<?xml version="1.0" encoding="UTF-8" standalone="no"?>
<!-- Generator: Adobe Illustrator 20.0.0, SVG Export Plug-In . SVG Version: 6.00 Build 0)  -->

<svg
   xmlns:dc="http://purl.org/dc/elements/1.1/"
   xmlns:cc="http://creativecommons.org/ns#"
   xmlns:rdf="http://www.w3.org/1999/02/22-rdf-syntax-ns#"
   xmlns:svg="http://www.w3.org/2000/svg"
   xmlns="http://www.w3.org/2000/svg"
   xmlns:sodipodi="http://sodipodi.sourceforge.net/DTD/sodipodi-0.dtd"
   xmlns:inkscape="http://www.inkscape.org/namespaces/inkscape"
   version="1.2"
   id="Layer_1"
   x="0px"
   y="0px"
   width="54"
   height="16.123751"
   viewBox="0 0 53.999999 16.123751"
   xml:space="preserve"
   inkscape:version="0.91 r13725"
   sodipodi:docname="1x06_smt_4ucon_20609_micro.svg"><metadata
     id="metadata83"><rdf:RDF><cc:Work
         rdf:about=""><dc:format>image/svg+xml</dc:format><dc:type
           rdf:resource="http://purl.org/dc/dcmitype/StillImage" /><dc:title></dc:title></cc:Work></rdf:RDF></metadata><defs
     id="defs81" /><sodipodi:namedview
     pagecolor="#ffffff"
     bordercolor="#666666"
     borderopacity="1"
     objecttolerance="10"
     gridtolerance="10"
     guidetolerance="10"
     inkscape:pageopacity="0"
     inkscape:pageshadow="2"
     inkscape:window-width="1341"
     inkscape:window-height="770"
     id="namedview79"
     showgrid="false"
     inkscape:document-units="in"
     fit-margin-top="0"
     fit-margin-left="0"
     fit-margin-right="0"
     fit-margin-bottom="0"
     inkscape:zoom="6.736111"
     inkscape:cx="21.6"
     inkscape:cy="6.4500005"
     inkscape:window-x="0"
     inkscape:window-y="0"
     inkscape:window-maximized="0"
     inkscape:current-layer="Layer_1" /><g
     id="g4211"
     transform="scale(1.25,1.25)"><g
       id="g3"><rect
         id="rect5"
         height="5.1040001"
         width="2.0409999"
         y="7.7950001"
         x="2.5799999"
         style="fill:#dcdcdc" /><rect
         id="rect7"
         height="5.1040001"
         width="2.0409999"
         x="9.7799997"
         y="0"
         style="fill:#dcdcdc" /><rect
         id="rect9"
         height="5.1040001"
         width="2.0409999"
         y="7.7950001"
         x="16.98"
         style="fill:#dcdcdc" /><rect
         id="rect11"
         height="5.1040001"
         width="2.0409999"
         x="24.18"
         y="0"
         style="fill:#dcdcdc" /><rect
         id="rect13"
         height="5.1040001"
         width="2.0409999"
         y="7.7950001"
         x="31.379999"
         style="fill:#dcdcdc" /><rect
         id="rect15"
         height="5.1040001"
         width="2.0409999"
         x="38.578999"
         y="0"
         style="fill:#dcdcdc" /><rect
         id="rect17"
         height="7.1989999"
         width="43.200001"
         y="2.849"
         x="0"
         style="fill:#404040" /><rect
         id="rect19"
         height="2.7820001"
         width="2.7809999"
         y="5.0580001"
         x="2.21" /><polygon
         id="polygon21"
         points="1.185,4.033 2.208,5.058 4.992,5.058 6.016,4.033 "
         style="fill:#2a2a29" /><polygon
         id="polygon23"
         points="6.016,4.033 4.992,5.061 4.992,7.842 6.016,8.865 "
         style="fill:#474747" /><polygon
         id="polygon25"
         points="6.016,8.865 4.991,7.842 2.208,7.842 1.185,8.865 "
         style="fill:#595959" /><polygon
         id="polygon27"
         points="1.183,8.865 2.208,7.84 2.208,5.058 1.183,4.033 "
         style="fill:#373737" /><rect
         id="rect29"
         height="2.7820001"
         width="2.7809999"
         y="5.0580001"
         x="9.4099998" /><polygon
         id="polygon31"
         points="8.385,4.033 9.408,5.058 12.192,5.058 13.216,4.033 "
         style="fill:#2a2a29" /><polygon
         id="polygon33"
         points="13.216,4.033 12.192,5.061 12.192,7.842 13.216,8.865 "
         style="fill:#474747" /><polygon
         id="polygon35"
         points="13.216,8.865 12.191,7.842 9.408,7.842 8.385,8.865 "
         style="fill:#595959" /><polygon
         id="polygon37"
         points="8.383,8.865 9.408,7.84 9.408,5.058 8.383,4.033 "
         style="fill:#373737" /><rect
         id="rect39"
         height="2.7820001"
         width="2.7809999"
         y="5.0580001"
         x="16.610001" /><polygon
         id="polygon41"
         points="15.585,4.033 16.608,5.058 19.392,5.058 20.416,4.033 "
         style="fill:#2a2a29" /><polygon
         id="polygon43"
         points="20.416,4.033 19.392,5.061 19.392,7.842 20.416,8.865 "
         style="fill:#474747" /><polygon
         id="polygon45"
         points="20.416,8.865 19.391,7.842 16.608,7.842 15.585,8.865 "
         style="fill:#595959" /><polygon
         id="polygon47"
         points="15.583,8.865 16.608,7.84 16.608,5.058 15.583,4.033 "
         style="fill:#373737" /><rect
         id="rect49"
         height="2.7820001"
         width="2.7809999"
         y="5.0580001"
         x="23.809999" /><polygon
         id="polygon51"
         points="22.785,4.033 23.808,5.058 26.592,5.058 27.616,4.033 "
         style="fill:#2a2a29" /><polygon
         id="polygon53"
         points="27.616,4.033 26.592,5.061 26.592,7.842 27.616,8.865 "
         style="fill:#474747" /><polygon
         id="polygon55"
         points="27.616,8.865 26.591,7.842 23.808,7.842 22.785,8.865 "
         style="fill:#595959" /><polygon
         id="polygon57"
         points="22.783,8.865 23.808,7.84 23.808,5.058 22.783,4.033 "
         style="fill:#373737" /><rect
         id="rect59"
         height="2.7820001"
         width="2.7809999"
         y="5.0580001"
         x="31.01" /><polygon
         id="polygon61"
         points="29.985,4.033 31.008,5.058 33.792,5.058 34.816,4.033 "
         style="fill:#2a2a29" /><polygon
         id="polygon63"
         points="34.816,4.033 33.792,5.061 33.792,7.842 34.816,8.865 "
         style="fill:#474747" /><polygon
         id="polygon65"
         points="34.816,8.865 33.791,7.842 31.008,7.842 29.985,8.865 "
         style="fill:#595959" /><polygon
         id="polygon67"
         points="29.983,8.865 31.008,7.84 31.008,5.058 29.983,4.033 "
         style="fill:#373737" /><rect
         id="rect69"
         height="2.7820001"
         width="2.7809999"
         y="5.0580001"
         x="38.209999" /><polygon
         id="polygon71"
         points="37.185,4.033 38.208,5.058 40.992,5.058 42.016,4.033 "
         style="fill:#2a2a29" /><polygon
         id="polygon73"
         points="42.016,4.033 40.992,5.061 40.992,7.842 42.016,8.865 "
         style="fill:#474747" /><polygon
         id="polygon75"
         points="42.016,8.865 40.991,7.842 38.208,7.842 37.185,8.865 "
         style="fill:#595959" /><polygon
         id="polygon77"
         points="37.183,8.865 38.208,7.84 38.208,5.058 37.183,4.033 "
         style="fill:#373737" /></g></g></svg>