<?xml version="1.0" encoding="UTF-8" standalone="no"?>
<!-- Generator: Adobe Illustrator 20.0.0, SVG Export Plug-In . SVG Version: 6.00 Build 0)  -->

<svg
   xmlns:dc="http://purl.org/dc/elements/1.1/"
   xmlns:cc="http://creativecommons.org/ns#"
   xmlns:rdf="http://www.w3.org/1999/02/22-rdf-syntax-ns#"
   xmlns:svg="http://www.w3.org/2000/svg"
   xmlns="http://www.w3.org/2000/svg"
   xmlns:sodipodi="http://sodipodi.sourceforge.net/DTD/sodipodi-0.dtd"
   xmlns:inkscape="http://www.inkscape.org/namespaces/inkscape"
   version="1.2"
   id="Layer_1"
   x="0px"
   y="0px"
   width="72"
   height="16.123751"
   viewBox="0 0 72.000002 16.123751"
   xml:space="preserve"
   inkscape:version="0.91 r13725"
   sodipodi:docname="1x08_smt_4ucon_20610_micro.svg"><metadata
     id="metadata107"><rdf:RDF><cc:Work
         rdf:about=""><dc:format>image/svg+xml</dc:format><dc:type
           rdf:resource="http://purl.org/dc/dcmitype/StillImage" /><dc:title></dc:title></cc:Work></rdf:RDF></metadata><defs
     id="defs105" /><sodipodi:namedview
     pagecolor="#ffffff"
     bordercolor="#666666"
     borderopacity="1"
     objecttolerance="10"
     gridtolerance="10"
     guidetolerance="10"
     inkscape:pageopacity="0"
     inkscape:pageshadow="2"
     inkscape:window-width="1448"
     inkscape:window-height="579"
     id="namedview103"
     showgrid="false"
     inkscape:document-units="in"
     inkscape:zoom="5.0520835"
     inkscape:cx="28.799999"
     inkscape:cy="6.4499998"
     inkscape:window-x="0"
     inkscape:window-y="14"
     inkscape:window-maximized="0"
     inkscape:current-layer="Layer_1"
     fit-margin-top="0"
     fit-margin-left="0"
     fit-margin-right="0"
     fit-margin-bottom="0" /><g
     id="g4351"
     transform="scale(1.25,1.25)"><g
       id="g3"><rect
         id="rect5"
         height="5.1040001"
         width="2.0409999"
         y="7.7950001"
         x="2.5799999"
         style="fill:#dcdcdc" /><rect
         id="rect7"
         height="5.1040001"
         width="2.0409999"
         x="9.7799997"
         y="0"
         style="fill:#dcdcdc" /><rect
         id="rect9"
         height="5.1040001"
         width="2.0409999"
         y="7.7950001"
         x="16.98"
         style="fill:#dcdcdc" /><rect
         id="rect11"
         height="5.1040001"
         width="2.0409999"
         x="24.18"
         y="0"
         style="fill:#dcdcdc" /><rect
         id="rect13"
         height="5.1040001"
         width="2.0409999"
         y="7.7950001"
         x="31.379999"
         style="fill:#dcdcdc" /><rect
         id="rect15"
         height="5.1040001"
         width="2.0409999"
         x="38.578999"
         y="0"
         style="fill:#dcdcdc" /><rect
         id="rect17"
         height="5.1040001"
         width="2.0409999"
         y="7.7950001"
         x="45.778999"
         style="fill:#dcdcdc" /><rect
         id="rect19"
         height="5.1040001"
         width="2.0409999"
         x="52.979"
         y="0"
         style="fill:#dcdcdc" /><rect
         id="rect21"
         height="7.1989999"
         width="57.599998"
         y="2.849"
         x="0"
         style="fill:#404040" /><rect
         id="rect23"
         height="2.7820001"
         width="2.7809999"
         y="5.0580001"
         x="2.21" /><polygon
         id="polygon25"
         points="1.185,4.033 2.208,5.058 4.992,5.058 6.016,4.033 "
         style="fill:#2a2a29" /><polygon
         id="polygon27"
         points="6.016,4.033 4.992,5.061 4.992,7.842 6.016,8.865 "
         style="fill:#474747" /><polygon
         id="polygon29"
         points="6.016,8.865 4.991,7.842 2.208,7.842 1.185,8.865 "
         style="fill:#595959" /><polygon
         id="polygon31"
         points="1.183,8.865 2.208,7.84 2.208,5.058 1.183,4.033 "
         style="fill:#373737" /><rect
         id="rect33"
         height="2.7820001"
         width="2.7809999"
         y="5.0580001"
         x="9.4099998" /><polygon
         id="polygon35"
         points="8.385,4.033 9.408,5.058 12.192,5.058 13.216,4.033 "
         style="fill:#2a2a29" /><polygon
         id="polygon37"
         points="13.216,4.033 12.192,5.061 12.192,7.842 13.216,8.865 "
         style="fill:#474747" /><polygon
         id="polygon39"
         points="13.216,8.865 12.191,7.842 9.408,7.842 8.385,8.865 "
         style="fill:#595959" /><polygon
         id="polygon41"
         points="8.383,8.865 9.408,7.84 9.408,5.058 8.383,4.033 "
         style="fill:#373737" /><rect
         id="rect43"
         height="2.7820001"
         width="2.7809999"
         y="5.0580001"
         x="16.610001" /><polygon
         id="polygon45"
         points="15.585,4.033 16.608,5.058 19.392,5.058 20.416,4.033 "
         style="fill:#2a2a29" /><polygon
         id="polygon47"
         points="20.416,4.033 19.392,5.061 19.392,7.842 20.416,8.865 "
         style="fill:#474747" /><polygon
         id="polygon49"
         points="20.416,8.865 19.391,7.842 16.608,7.842 15.585,8.865 "
         style="fill:#595959" /><polygon
         id="polygon51"
         points="15.583,8.865 16.608,7.84 16.608,5.058 15.583,4.033 "
         style="fill:#373737" /><rect
         id="rect53"
         height="2.7820001"
         width="2.7809999"
         y="5.0580001"
         x="23.809999" /><polygon
         id="polygon55"
         points="22.785,4.033 23.808,5.058 26.592,5.058 27.616,4.033 "
         style="fill:#2a2a29" /><polygon
         id="polygon57"
         points="27.616,4.033 26.592,5.061 26.592,7.842 27.616,8.865 "
         style="fill:#474747" /><polygon
         id="polygon59"
         points="27.616,8.865 26.591,7.842 23.808,7.842 22.785,8.865 "
         style="fill:#595959" /><polygon
         id="polygon61"
         points="22.783,8.865 23.808,7.84 23.808,5.058 22.783,4.033 "
         style="fill:#373737" /><rect
         id="rect63"
         height="2.7820001"
         width="2.7809999"
         y="5.0580001"
         x="31.01" /><polygon
         id="polygon65"
         points="29.985,4.033 31.008,5.058 33.792,5.058 34.816,4.033 "
         style="fill:#2a2a29" /><polygon
         id="polygon67"
         points="34.816,4.033 33.792,5.061 33.792,7.842 34.816,8.865 "
         style="fill:#474747" /><polygon
         id="polygon69"
         points="34.816,8.865 33.791,7.842 31.008,7.842 29.985,8.865 "
         style="fill:#595959" /><polygon
         id="polygon71"
         points="29.983,8.865 31.008,7.84 31.008,5.058 29.983,4.033 "
         style="fill:#373737" /><rect
         id="rect73"
         height="2.7820001"
         width="2.7809999"
         y="5.0580001"
         x="38.209999" /><polygon
         id="polygon75"
         points="37.185,4.033 38.208,5.058 40.992,5.058 42.016,4.033 "
         style="fill:#2a2a29" /><polygon
         id="polygon77"
         points="42.016,4.033 40.992,5.061 40.992,7.842 42.016,8.865 "
         style="fill:#474747" /><polygon
         id="polygon79"
         points="42.016,8.865 40.991,7.842 38.208,7.842 37.185,8.865 "
         style="fill:#595959" /><polygon
         id="polygon81"
         points="37.183,8.865 38.208,7.84 38.208,5.058 37.183,4.033 "
         style="fill:#373737" /><rect
         id="rect83"
         height="2.7820001"
         width="2.7809999"
         y="5.0580001"
         x="45.41" /><polygon
         id="polygon85"
         points="44.385,4.033 45.408,5.058 48.192,5.058 49.216,4.033 "
         style="fill:#2a2a29" /><polygon
         id="polygon87"
         points="49.216,4.033 48.192,5.061 48.192,7.842 49.216,8.865 "
         style="fill:#474747" /><polygon
         id="polygon89"
         points="49.216,8.865 48.191,7.842 45.408,7.842 44.385,8.865 "
         style="fill:#595959" /><polygon
         id="polygon91"
         points="44.383,8.865 45.408,7.84 45.408,5.058 44.383,4.033 "
         style="fill:#373737" /><rect
         id="rect93"
         height="2.7820001"
         width="2.7809999"
         y="5.0580001"
         x="52.610001" /><polygon
         id="polygon95"
         points="51.585,4.033 52.608,5.058 55.392,5.058 56.416,4.033 "
         style="fill:#2a2a29" /><polygon
         id="polygon97"
         points="56.416,4.033 55.392,5.061 55.392,7.842 56.416,8.865 "
         style="fill:#474747" /><polygon
         id="polygon99"
         points="56.416,8.865 55.391,7.842 52.608,7.842 51.585,8.865 "
         style="fill:#595959" /><polygon
         id="polygon101"
         points="51.583,8.865 52.608,7.84 52.608,5.058 51.583,4.033 "
         style="fill:#373737" /></g></g></svg>