<?xml version="1.0" encoding="UTF-8" standalone="no"?>
<!-- Generator: Adobe Illustrator 15.0.1, SVG Export Plug-In . SVG Version: 6.00 Build 0)  -->

<svg
   xmlns:dc="http://purl.org/dc/elements/1.1/"
   xmlns:cc="http://creativecommons.org/ns#"
   xmlns:rdf="http://www.w3.org/1999/02/22-rdf-syntax-ns#"
   xmlns:svg="http://www.w3.org/2000/svg"
   xmlns="http://www.w3.org/2000/svg"
   xmlns:sodipodi="http://sodipodi.sourceforge.net/DTD/sodipodi-0.dtd"
   xmlns:inkscape="http://www.inkscape.org/namespaces/inkscape"
   version="1.1"
   id="svg"
   x="0px"
   y="0px"
   width="0.80011117in"
   height="0.1in"
   viewBox="0 0 72.010007 9.0000003"
   xml:space="preserve"
   inkscape:version="0.91 r13725"
   sodipodi:docname="1x08.svg"><metadata
     id="metadata89"><rdf:RDF><cc:Work
         rdf:about=""><dc:format>image/svg+xml</dc:format><dc:type
           rdf:resource="http://purl.org/dc/dcmitype/StillImage" /><dc:title></dc:title></cc:Work></rdf:RDF></metadata><defs
     id="defs87" /><sodipodi:namedview
     pagecolor="#ffffff"
     bordercolor="#666666"
     borderopacity="1"
     objecttolerance="10"
     gridtolerance="10"
     guidetolerance="10"
     inkscape:pageopacity="0"
     inkscape:pageshadow="2"
     inkscape:window-width="1209"
     inkscape:window-height="669"
     id="namedview85"
     showgrid="false"
     inkscape:document-units="in"
     units="in"
     fit-margin-top="0"
     fit-margin-left="0"
     fit-margin-right="0"
     fit-margin-bottom="0"
     inkscape:zoom="5.0520835"
     inkscape:cx="28.799999"
     inkscape:cy="3.5990004"
     inkscape:window-x="0"
     inkscape:window-y="55"
     inkscape:window-maximized="0"
     inkscape:current-layer="svg" /><g
     id="g3417"
     transform="scale(1.2501737,1.2501737)"><rect
       style="fill:#404040"
       id="rect3"
       height="7.1989999"
       width="57.599998"
       y="1.6093254e-007"
       x="0" /><rect
       id="rect5"
       height="2.7820001"
       width="2.7809999"
       y="2.2090003"
       x="2.21" /><polygon
       style="fill:#2a2a29"
       id="polygon7"
       points="2.208,2.209 4.991,2.209 6.017,1.184 1.185,1.184 " /><polygon
       style="fill:#474747"
       id="polygon9"
       points="4.991,2.212 4.991,4.993 6.017,6.016 6.017,1.184 " /><polygon
       style="fill:#595959"
       id="polygon11"
       points="4.99,4.993 2.208,4.993 1.185,6.016 6.016,6.016 " /><polygon
       style="fill:#373737"
       id="polygon13"
       points="2.208,4.991 2.208,2.209 1.183,1.184 1.183,6.016 " /><rect
       id="rect15"
       height="2.7820001"
       width="2.7809999"
       y="2.2090003"
       x="9.4099998" /><polygon
       style="fill:#2a2a29"
       id="polygon17"
       points="9.408,2.209 12.192,2.209 13.217,1.184 8.384,1.184 " /><polygon
       style="fill:#474747"
       id="polygon19"
       points="12.192,2.212 12.192,4.993 13.217,6.016 13.217,1.184 " /><polygon
       style="fill:#595959"
       id="polygon21"
       points="12.191,4.993 9.408,4.993 8.384,6.016 13.215,6.016 " /><polygon
       style="fill:#373737"
       id="polygon23"
       points="9.408,4.991 9.408,2.209 8.382,1.184 8.382,6.016 " /><rect
       id="rect25"
       height="2.7820001"
       width="2.7809999"
       y="2.2090003"
       x="16.611" /><polygon
       style="fill:#2a2a29"
       id="polygon27"
       points="16.609,2.209 19.392,2.209 20.416,1.184 15.584,1.184 " /><polygon
       style="fill:#474747"
       id="polygon29"
       points="19.392,2.212 19.392,4.993 20.416,6.016 20.416,1.184 " /><polygon
       style="fill:#595959"
       id="polygon31"
       points="19.391,4.993 16.609,4.993 15.584,6.016 20.415,6.016 " /><polygon
       style="fill:#373737"
       id="polygon33"
       points="16.609,4.991 16.609,2.209 15.582,1.184 15.582,6.016 " /><rect
       id="rect35"
       height="2.7820001"
       width="2.7809999"
       y="2.2090003"
       x="23.811001" /><polygon
       style="fill:#2a2a29"
       id="polygon37"
       points="23.809,2.209 26.592,2.209 27.616,1.184 22.784,1.184 " /><polygon
       style="fill:#474747"
       id="polygon39"
       points="26.592,2.212 26.592,4.993 27.616,6.016 27.616,1.184 " /><polygon
       style="fill:#595959"
       id="polygon41"
       points="26.59,4.993 23.809,4.993 22.784,6.016 27.615,6.016 " /><polygon
       style="fill:#373737"
       id="polygon43"
       points="23.809,4.991 23.809,2.209 22.782,1.184 22.782,6.016 " /><rect
       id="rect45"
       height="2.7820001"
       width="2.7809999"
       y="2.2090003"
       x="31.01" /><polygon
       style="fill:#2a2a29"
       id="polygon47"
       points="31.008,2.209 33.791,2.209 34.817,1.184 29.985,1.184 " /><polygon
       style="fill:#474747"
       id="polygon49"
       points="33.791,2.212 33.791,4.993 34.817,6.016 34.817,1.184 " /><polygon
       style="fill:#595959"
       id="polygon51"
       points="33.79,4.993 31.008,4.993 29.985,6.016 34.816,6.016 " /><polygon
       style="fill:#373737"
       id="polygon53"
       points="31.008,4.991 31.008,2.209 29.983,1.184 29.983,6.016 " /><rect
       id="rect55"
       height="2.7820001"
       width="2.7809999"
       y="2.2090003"
       x="38.209999" /><polygon
       style="fill:#2a2a29"
       id="polygon57"
       points="38.208,2.209 40.991,2.209 42.017,1.184 37.185,1.184 " /><polygon
       style="fill:#474747"
       id="polygon59"
       points="40.991,2.212 40.991,4.993 42.017,6.016 42.017,1.184 " /><polygon
       style="fill:#595959"
       id="polygon61"
       points="40.99,4.993 38.208,4.993 37.185,6.016 42.016,6.016 " /><polygon
       style="fill:#373737"
       id="polygon63"
       points="38.208,4.991 38.208,2.209 37.183,1.184 37.183,6.016 " /><rect
       id="rect65"
       height="2.7820001"
       width="2.7809999"
       y="2.2090003"
       x="45.41" /><polygon
       style="fill:#2a2a29"
       id="polygon67"
       points="45.408,2.209 48.192,2.209 49.217,1.184 44.384,1.184 " /><polygon
       style="fill:#474747"
       id="polygon69"
       points="48.192,2.212 48.192,4.993 49.217,6.016 49.217,1.184 " /><polygon
       style="fill:#595959"
       id="polygon71"
       points="48.191,4.993 45.408,4.993 44.384,6.016 49.215,6.016 " /><polygon
       style="fill:#373737"
       id="polygon73"
       points="45.408,4.991 45.408,2.209 44.382,1.184 44.382,6.016 " /><rect
       id="rect75"
       height="2.7820001"
       width="2.7809999"
       y="2.2090003"
       x="52.611" /><polygon
       style="fill:#2a2a29"
       id="polygon77"
       points="52.609,2.209 55.392,2.209 56.416,1.184 51.584,1.184 " /><polygon
       style="fill:#474747"
       id="polygon79"
       points="55.392,2.212 55.392,4.993 56.416,6.016 56.416,1.184 " /><polygon
       style="fill:#595959"
       id="polygon81"
       points="55.391,4.993 52.609,4.993 51.584,6.016 56.415,6.016 " /><polygon
       style="fill:#373737"
       id="polygon83"
       points="52.609,4.991 52.609,2.209 51.582,1.184 51.582,6.016 " /></g></svg>