<?xml version="1.0" encoding="UTF-8" standalone="no"?>
<!-- Generator: Adobe Illustrator 15.0.1, SVG Export Plug-In . SVG Version: 6.00 Build 0)  -->

<svg
   xmlns:dc="http://purl.org/dc/elements/1.1/"
   xmlns:cc="http://creativecommons.org/ns#"
   xmlns:rdf="http://www.w3.org/1999/02/22-rdf-syntax-ns#"
   xmlns:svg="http://www.w3.org/2000/svg"
   xmlns="http://www.w3.org/2000/svg"
   xmlns:sodipodi="http://sodipodi.sourceforge.net/DTD/sodipodi-0.dtd"
   xmlns:inkscape="http://www.inkscape.org/namespaces/inkscape"
   version="1.1"
   id="svg"
   x="0px"
   y="0px"
   width="1.2in"
   height="0.1in"
   viewBox="0 0 108.00001 9.0000003"
   xml:space="preserve"
   inkscape:version="0.91 r13725"
   sodipodi:docname="1x12_F.svg"><metadata
     id="metadata89"><rdf:RDF><cc:Work
         rdf:about=""><dc:format>image/svg+xml</dc:format><dc:type
           rdf:resource="http://purl.org/dc/dcmitype/StillImage" /><dc:title></dc:title></cc:Work></rdf:RDF></metadata><defs
     id="defs87" /><sodipodi:namedview
     pagecolor="#ffffff"
     bordercolor="#666666"
     borderopacity="1"
     objecttolerance="10"
     gridtolerance="10"
     guidetolerance="10"
     inkscape:pageopacity="0"
     inkscape:pageshadow="2"
     inkscape:window-width="1209"
     inkscape:window-height="669"
     id="namedview85"
     showgrid="false"
     inkscape:document-units="in"
     units="in"
     fit-margin-top="0"
     fit-margin-left="0"
     fit-margin-right="0"
     fit-margin-bottom="0"
     inkscape:zoom="5.0520835"
     inkscape:cx="48.986268"
     inkscape:cy="15.614252"
     inkscape:window-x="0"
     inkscape:window-y="55"
     inkscape:window-maximized="0"
     inkscape:current-layer="svg" /><g
     id="g3819"><rect
       style="fill:#404040"
       id="rect3"
       height="9.0074558"
       width="108"
       y="-0.0074554379"
       x="0" /><rect
       id="rect5"
       height="3.4779832"
       width="3.476733"
       y="2.7616341"
       x="2.7628839" /><polygon
       transform="scale(1.2501737,1.2501737)"
       style="fill:#2a2a29"
       id="polygon7"
       points="1.185,1.184 2.208,2.209 4.991,2.209 6.017,1.184 " /><polygon
       transform="scale(1.2501737,1.2501737)"
       style="fill:#474747"
       id="polygon9"
       points="6.017,1.184 4.991,2.212 4.991,4.993 6.017,6.016 " /><polygon
       transform="scale(1.2501737,1.2501737)"
       style="fill:#595959"
       id="polygon11"
       points="6.016,6.016 4.99,4.993 2.208,4.993 1.185,6.016 " /><polygon
       transform="scale(1.2501737,1.2501737)"
       style="fill:#373737"
       id="polygon13"
       points="1.183,6.016 2.208,4.991 2.208,2.209 1.183,1.184 " /><rect
       id="rect15"
       height="3.4779832"
       width="3.476733"
       y="2.7616341"
       x="11.764134" /><polygon
       transform="scale(1.2501737,1.2501737)"
       style="fill:#2a2a29"
       id="polygon17"
       points="8.384,1.184 9.408,2.209 12.192,2.209 13.217,1.184 " /><polygon
       transform="scale(1.2501737,1.2501737)"
       style="fill:#474747"
       id="polygon19"
       points="13.217,1.184 12.192,2.212 12.192,4.993 13.217,6.016 " /><polygon
       transform="scale(1.2501737,1.2501737)"
       style="fill:#595959"
       id="polygon21"
       points="13.215,6.016 12.191,4.993 9.408,4.993 8.384,6.016 " /><polygon
       transform="scale(1.2501737,1.2501737)"
       style="fill:#373737"
       id="polygon23"
       points="8.382,6.016 9.408,4.991 9.408,2.209 8.382,1.184 " /><rect
       id="rect25"
       height="3.4779832"
       width="3.476733"
       y="2.7616341"
       x="20.766636" /><polygon
       transform="scale(1.2501737,1.2501737)"
       style="fill:#2a2a29"
       id="polygon27"
       points="15.584,1.184 16.609,2.209 19.392,2.209 20.416,1.184 " /><polygon
       transform="scale(1.2501737,1.2501737)"
       style="fill:#474747"
       id="polygon29"
       points="20.416,1.184 19.392,2.212 19.392,4.993 20.416,6.016 " /><polygon
       transform="scale(1.2501737,1.2501737)"
       style="fill:#595959"
       id="polygon31"
       points="20.415,6.016 19.391,4.993 16.609,4.993 15.584,6.016 " /><polygon
       transform="scale(1.2501737,1.2501737)"
       style="fill:#373737"
       id="polygon33"
       points="15.582,6.016 16.609,4.991 16.609,2.209 15.582,1.184 " /><rect
       id="rect35"
       height="3.4779832"
       width="3.476733"
       y="2.7616341"
       x="29.767887" /><polygon
       transform="scale(1.2501737,1.2501737)"
       style="fill:#2a2a29"
       id="polygon37"
       points="22.784,1.184 23.809,2.209 26.592,2.209 27.616,1.184 " /><polygon
       transform="scale(1.2501737,1.2501737)"
       style="fill:#474747"
       id="polygon39"
       points="27.616,1.184 26.592,2.212 26.592,4.993 27.616,6.016 " /><polygon
       transform="scale(1.2501737,1.2501737)"
       style="fill:#595959"
       id="polygon41"
       points="27.615,6.016 26.59,4.993 23.809,4.993 22.784,6.016 " /><polygon
       transform="scale(1.2501737,1.2501737)"
       style="fill:#373737"
       id="polygon43"
       points="22.782,6.016 23.809,4.991 23.809,2.209 22.782,1.184 " /><rect
       id="rect45"
       height="3.4779832"
       width="3.476733"
       y="2.7616341"
       x="38.767887" /><polygon
       transform="scale(1.2501737,1.2501737)"
       style="fill:#2a2a29"
       id="polygon47"
       points="29.985,1.184 31.008,2.209 33.791,2.209 34.817,1.184 " /><polygon
       transform="scale(1.2501737,1.2501737)"
       style="fill:#474747"
       id="polygon49"
       points="34.817,1.184 33.791,2.212 33.791,4.993 34.817,6.016 " /><polygon
       transform="scale(1.2501737,1.2501737)"
       style="fill:#595959"
       id="polygon51"
       points="34.816,6.016 33.79,4.993 31.008,4.993 29.985,6.016 " /><polygon
       transform="scale(1.2501737,1.2501737)"
       style="fill:#373737"
       id="polygon53"
       points="29.983,6.016 31.008,4.991 31.008,2.209 29.983,1.184 " /><rect
       id="rect55"
       height="3.4779832"
       width="3.476733"
       y="2.7616341"
       x="47.769135" /><polygon
       transform="scale(1.2501737,1.2501737)"
       style="fill:#2a2a29"
       id="polygon57"
       points="37.185,1.184 38.208,2.209 40.991,2.209 42.017,1.184 " /><polygon
       transform="scale(1.2501737,1.2501737)"
       style="fill:#474747"
       id="polygon59"
       points="42.017,1.184 40.991,2.212 40.991,4.993 42.017,6.016 " /><polygon
       transform="scale(1.2501737,1.2501737)"
       style="fill:#595959"
       id="polygon61"
       points="42.016,6.016 40.99,4.993 38.208,4.993 37.185,6.016 " /><polygon
       transform="scale(1.2501737,1.2501737)"
       style="fill:#373737"
       id="polygon63"
       points="37.183,6.016 38.208,4.991 38.208,2.209 37.183,1.184 " /><rect
       id="rect65"
       height="3.4779832"
       width="3.476733"
       y="2.7616341"
       x="56.770386" /><polygon
       transform="scale(1.2501737,1.2501737)"
       style="fill:#2a2a29"
       id="polygon67"
       points="44.384,1.184 45.408,2.209 48.192,2.209 49.217,1.184 " /><polygon
       transform="scale(1.2501737,1.2501737)"
       style="fill:#474747"
       id="polygon69"
       points="49.217,1.184 48.192,2.212 48.192,4.993 49.217,6.016 " /><polygon
       transform="scale(1.2501737,1.2501737)"
       style="fill:#595959"
       id="polygon71"
       points="49.215,6.016 48.191,4.993 45.408,4.993 44.384,6.016 " /><polygon
       transform="scale(1.2501737,1.2501737)"
       style="fill:#373737"
       id="polygon73"
       points="44.382,6.016 45.408,4.991 45.408,2.209 44.382,1.184 " /><rect
       id="rect75"
       height="3.4779832"
       width="3.476733"
       y="2.7616341"
       x="65.772888" /><polygon
       transform="scale(1.2501737,1.2501737)"
       style="fill:#2a2a29"
       id="polygon77"
       points="51.584,1.184 52.609,2.209 55.392,2.209 56.416,1.184 " /><polygon
       transform="scale(1.2501737,1.2501737)"
       style="fill:#474747"
       id="polygon79"
       points="56.416,1.184 55.392,2.212 55.392,4.993 56.416,6.016 " /><polygon
       transform="scale(1.2501737,1.2501737)"
       style="fill:#595959"
       id="polygon81"
       points="56.415,6.016 55.391,4.993 52.609,4.993 51.584,6.016 " /><polygon
       transform="scale(1.2501737,1.2501737)"
       style="fill:#373737"
       id="polygon83"
       points="51.582,6.016 52.609,4.991 52.609,2.209 51.582,1.184 " /><rect
       x="74.72393"
       y="2.7616341"
       width="3.476733"
       height="3.4779832"
       id="rect3501" /><polygon
       points="31.008,2.209 33.791,2.209 34.817,1.184 29.985,1.184 "
       id="polygon3503"
       style="fill:#2a2a29"
       transform="matrix(1.2501737,0,0,1.2501737,35.956042,0)" /><polygon
       points="33.791,2.212 33.791,4.993 34.817,6.016 34.817,1.184 "
       id="polygon3505"
       style="fill:#474747"
       transform="matrix(1.2501737,0,0,1.2501737,35.956042,0)" /><polygon
       points="33.79,4.993 31.008,4.993 29.985,6.016 34.816,6.016 "
       id="polygon3507"
       style="fill:#595959"
       transform="matrix(1.2501737,0,0,1.2501737,35.956042,0)" /><polygon
       points="31.008,4.991 31.008,2.209 29.983,1.184 29.983,6.016 "
       id="polygon3509"
       style="fill:#373737"
       transform="matrix(1.2501737,0,0,1.2501737,35.956042,0)" /><rect
       x="83.725174"
       y="2.7616341"
       width="3.476733"
       height="3.4779832"
       id="rect3511" /><polygon
       points="38.208,2.209 40.991,2.209 42.017,1.184 37.185,1.184 "
       id="polygon3513"
       style="fill:#2a2a29"
       transform="matrix(1.2501737,0,0,1.2501737,35.956042,0)" /><polygon
       points="40.991,2.212 40.991,4.993 42.017,6.016 42.017,1.184 "
       id="polygon3515"
       style="fill:#474747"
       transform="matrix(1.2501737,0,0,1.2501737,35.956042,0)" /><polygon
       points="40.99,4.993 38.208,4.993 37.185,6.016 42.016,6.016 "
       id="polygon3517"
       style="fill:#595959"
       transform="matrix(1.2501737,0,0,1.2501737,35.956042,0)" /><polygon
       points="38.208,4.991 38.208,2.209 37.183,1.184 37.183,6.016 "
       id="polygon3519"
       style="fill:#373737"
       transform="matrix(1.2501737,0,0,1.2501737,35.956042,0)" /><rect
       x="92.726425"
       y="2.7616341"
       width="3.476733"
       height="3.4779832"
       id="rect3521" /><polygon
       points="45.408,2.209 48.192,2.209 49.217,1.184 44.384,1.184 "
       id="polygon3523"
       style="fill:#2a2a29"
       transform="matrix(1.2501737,0,0,1.2501737,35.956042,0)" /><polygon
       points="48.192,2.212 48.192,4.993 49.217,6.016 49.217,1.184 "
       id="polygon3525"
       style="fill:#474747"
       transform="matrix(1.2501737,0,0,1.2501737,35.956042,0)" /><polygon
       points="48.191,4.993 45.408,4.993 44.384,6.016 49.215,6.016 "
       id="polygon3527"
       style="fill:#595959"
       transform="matrix(1.2501737,0,0,1.2501737,35.956042,0)" /><polygon
       points="45.408,4.991 45.408,2.209 44.382,1.184 44.382,6.016 "
       id="polygon3529"
       style="fill:#373737"
       transform="matrix(1.2501737,0,0,1.2501737,35.956042,0)" /><rect
       x="101.72893"
       y="2.7616341"
       width="3.476733"
       height="3.4779832"
       id="rect3531" /><polygon
       points="52.609,2.209 55.392,2.209 56.416,1.184 51.584,1.184 "
       id="polygon3533"
       style="fill:#2a2a29"
       transform="matrix(1.2501737,0,0,1.2501737,35.956042,0)" /><polygon
       points="55.392,2.212 55.392,4.993 56.416,6.016 56.416,1.184 "
       id="polygon3535"
       style="fill:#474747"
       transform="matrix(1.2501737,0,0,1.2501737,35.956042,0)" /><polygon
       points="55.391,4.993 52.609,4.993 51.584,6.016 56.415,6.016 "
       id="polygon3537"
       style="fill:#595959"
       transform="matrix(1.2501737,0,0,1.2501737,35.956042,0)" /><polygon
       points="52.609,4.991 52.609,2.209 51.582,1.184 51.582,6.016 "
       id="polygon3539"
       style="fill:#373737"
       transform="matrix(1.2501737,0,0,1.2501737,35.956042,0)" /></g></svg>