<?xml version="1.0" encoding="utf-8"?>
<!-- Generator: Adobe Illustrator 20.0.0, SVG Export Plug-In . SVG Version: 6.00 Build 0)  -->
<svg version="1.2" baseProfile="tiny" id="Layer_1" xmlns="http://www.w3.org/2000/svg" xmlns:xlink="http://www.w3.org/1999/xlink"
	 x="0px" y="0px" width="21.313px" height="14.229px" viewBox="0 0 21.313 14.229" xml:space="preserve">
<g>
	<g>
		<polygon fill="#404040" points="21.313,12.717 21.313,8.785 21.313,5.445 21.313,1.511 19.802,0 15.871,0 14.361,1.511 
			14.361,5.445 14.361,8.785 14.361,12.717 15.871,14.229 19.802,14.229 		"/>
		<polygon fill="#404040" points="14.131,12.717 14.131,8.785 14.131,5.445 14.131,1.511 12.622,0 8.69,0 7.177,1.511 7.177,5.445 
			7.177,8.785 7.177,12.717 8.69,14.229 12.622,14.229 		"/>
		<polygon fill="#404040" points="6.954,12.717 6.954,8.785 6.954,5.445 6.954,1.511 5.442,0 1.509,0 0,1.511 0,5.445 0,8.785 
			0,12.717 1.509,14.229 5.442,14.229 		"/>
	</g>
	<g>
		<rect x="2.309" y="2.366" fill="#8D8C8C" width="2.299" height="2.298"/>
		<rect x="2.309" y="9.565" fill="#8D8C8C" width="2.299" height="2.298"/>
		<rect x="9.508" y="2.366" fill="#8D8C8C" width="2.298" height="2.298"/>
		<rect x="9.508" y="9.565" fill="#8D8C8C" width="2.298" height="2.298"/>
		<rect x="16.706" y="2.366" fill="#8D8C8C" width="2.298" height="2.298"/>
		<rect x="16.706" y="9.565" fill="#8D8455" width="2.298" height="2.298"/>
		<rect x="17.264" y="10.124" fill="#8C8663" width="1.183" height="1.184"/>
		<polygon fill="#B8AF82" points="19.004,9.565 18.445,10.124 18.445,11.305 19.004,11.863 		"/>
		<polygon fill="#80795B" points="17.264,11.305 18.445,11.305 19.004,11.863 16.706,11.863 		"/>
		<polygon fill="#5E5B43" points="17.264,10.124 17.264,11.305 16.706,11.863 16.706,9.565 		"/>
		<polygon fill="#9A916C" points="19.004,9.565 18.445,10.124 17.264,10.124 16.706,9.565 		"/>
		<rect x="17.264" y="2.924" fill="#8C8663" width="1.183" height="1.182"/>
		<polygon fill="#B8AF82" points="19.004,2.366 18.445,2.924 18.445,4.105 19.004,4.663 		"/>
		<polygon fill="#80795B" points="17.264,4.105 18.445,4.105 19.004,4.663 16.706,4.663 		"/>
		<polygon fill="#5E5B43" points="17.264,2.924 17.264,4.105 16.706,4.663 16.706,2.366 		"/>
		<polygon fill="#9A916C" points="19.004,2.366 18.445,2.924 17.264,2.924 16.706,2.366 		"/>
		<rect x="10.065" y="10.124" fill="#8C8663" width="1.184" height="1.184"/>
		<polygon fill="#B8AF82" points="11.805,9.565 11.248,10.124 11.248,11.305 11.805,11.863 		"/>
		<polygon fill="#80795B" points="10.065,11.305 11.248,11.305 11.805,11.863 9.508,11.863 		"/>
		<polygon fill="#5E5B43" points="10.065,10.124 10.065,11.305 9.508,11.863 9.508,9.565 		"/>
		<polygon fill="#9A916C" points="11.805,9.565 11.248,10.124 10.065,10.124 9.508,9.565 		"/>
		<rect x="10.065" y="2.924" fill="#8C8663" width="1.184" height="1.182"/>
		<polygon fill="#B8AF82" points="11.805,2.366 11.248,2.924 11.248,4.105 11.805,4.663 		"/>
		<polygon fill="#80795B" points="10.065,4.105 11.248,4.105 11.805,4.663 9.508,4.663 		"/>
		<polygon fill="#5E5B43" points="10.065,2.924 10.065,4.105 9.508,4.663 9.508,2.366 		"/>
		<polygon fill="#9A916C" points="11.805,2.366 11.248,2.924 10.065,2.924 9.508,2.366 		"/>
		<rect x="2.864" y="10.124" fill="#8C8663" width="1.185" height="1.184"/>
		<polygon fill="#B8AF82" points="4.607,9.565 4.048,10.124 4.048,11.305 4.607,11.863 		"/>
		<polygon fill="#80795B" points="2.864,11.305 4.048,11.305 4.607,11.863 2.309,11.863 		"/>
		<polygon fill="#5E5B43" points="2.864,10.124 2.864,11.305 2.309,11.863 2.309,9.565 		"/>
		<polygon fill="#9A916C" points="4.607,9.565 4.048,10.124 2.864,10.124 2.309,9.565 		"/>
		<rect x="2.864" y="2.924" fill="#8C8663" width="1.185" height="1.182"/>
		<polygon fill="#B8AF82" points="4.607,2.366 4.048,2.924 4.048,4.105 4.607,4.663 		"/>
		<polygon fill="#80795B" points="2.864,4.105 4.048,4.105 4.607,4.663 2.309,4.663 		"/>
		<polygon fill="#5E5B43" points="2.864,2.924 2.864,4.105 2.309,4.663 2.309,2.366 		"/>
		<polygon fill="#9A916C" points="4.607,2.366 4.048,2.924 2.864,2.924 2.309,2.366 		"/>
	</g>
</g>
</svg>
