<?xml version="1.0" encoding="UTF-8" standalone="no"?>
<!-- Generator: Adobe Illustrator 20.0.0, SVG Export Plug-In . SVG Version: 6.00 Build 0)  -->

<svg
   xmlns:dc="http://purl.org/dc/elements/1.1/"
   xmlns:cc="http://creativecommons.org/ns#"
   xmlns:rdf="http://www.w3.org/1999/02/22-rdf-syntax-ns#"
   xmlns:svg="http://www.w3.org/2000/svg"
   xmlns="http://www.w3.org/2000/svg"
   xmlns:sodipodi="http://sodipodi.sourceforge.net/DTD/sodipodi-0.dtd"
   xmlns:inkscape="http://www.inkscape.org/namespaces/inkscape"
   version="1.2"
   id="Layer_1"
   x="0px"
   y="0px"
   width="38.443176"
   height="19.199999"
   viewBox="0 0 38.443177 19.199999"
   xml:space="preserve"
   sodipodi:docname="2X04.svg"
   inkscape:version="0.92.2 (5c3e80d, 2017-08-06)"><metadata
     id="metadata91"><rdf:RDF><cc:Work
         rdf:about=""><dc:format>image/svg+xml</dc:format><dc:type
           rdf:resource="http://purl.org/dc/dcmitype/StillImage" /><dc:title></dc:title></cc:Work></rdf:RDF></metadata><defs
     id="defs89" /><sodipodi:namedview
     pagecolor="#ffffff"
     bordercolor="#666666"
     borderopacity="1"
     objecttolerance="10"
     gridtolerance="10"
     guidetolerance="10"
     inkscape:pageopacity="0"
     inkscape:pageshadow="2"
     inkscape:window-width="1680"
     inkscape:window-height="1028"
     id="namedview87"
     showgrid="true"
     inkscape:snap-bbox="true"
     inkscape:bbox-paths="true"
     inkscape:bbox-nodes="true"
     inkscape:snap-bbox-edge-midpoints="true"
     inkscape:snap-bbox-midpoints="true"
     fit-margin-top="0"
     fit-margin-left="0"
     fit-margin-right="0"
     fit-margin-bottom="0"
     inkscape:zoom="20.835315"
     inkscape:cx="11.121632"
     inkscape:cy="5.1946818"
     inkscape:window-x="1672"
     inkscape:window-y="-8"
     inkscape:window-maximized="1"
     inkscape:current-layer="Layer_1"
     showguides="true"
     inkscape:guide-bbox="true"><inkscape:grid
       type="xygrid"
       id="grid945"
       spacingx="9.6"
       spacingy="9.6"
       originx="0"
       originy="-9.4455821e-007" /><sodipodi:guide
       position="29.469197,-13.774691"
       orientation="1,0"
       id="guide1848"
       inkscape:locked="false" /></sodipodi:namedview><g
     id="g1029"
     transform="scale(1.3493569)"><polygon
       style="fill:#404040"
       id="polygon2"
       points="19.802,14.229 21.313,12.717 21.313,8.785 21.313,5.445 21.313,1.511 19.802,0 15.871,0 14.361,1.511 14.361,5.445 14.361,8.785 14.361,12.717 15.871,14.229 " /><polygon
       style="fill:#404040"
       id="polygon4"
       points="12.622,14.229 14.131,12.717 14.131,8.785 14.131,5.445 14.131,1.511 12.622,0 8.69,0 7.177,1.511 7.177,5.445 7.177,8.785 7.177,12.717 8.69,14.229 " /><polygon
       style="fill:#404040"
       id="polygon6"
       points="5.442,14.229 6.954,12.717 6.954,8.785 6.954,5.445 6.954,1.511 5.442,0 1.509,0 0,1.511 0,5.445 0,8.785 0,12.717 1.509,14.229 " /><polygon
       transform="translate(14.359)"
       style="fill:#404040"
       id="polygon4-3"
       points="12.622,0 8.69,0 7.177,1.511 7.177,5.445 7.177,8.785 7.177,12.717 8.69,14.229 12.622,14.229 14.131,12.717 14.131,8.785 14.131,5.445 14.131,1.511 " /><rect
       style="fill:#8d8c8c"
       id="rect10"
       height="2.2980001"
       width="2.299"
       y="2.3659999"
       x="2.309" /><rect
       style="fill:#8d8c8c"
       id="rect12"
       height="2.2980001"
       width="2.299"
       y="9.5649996"
       x="2.309" /><rect
       style="fill:#8d8c8c"
       id="rect14"
       height="2.2980001"
       width="2.2980001"
       y="2.3659999"
       x="9.5080004" /><rect
       style="fill:#8d8c8c"
       id="rect16"
       height="2.2980001"
       width="2.2980001"
       y="9.5649996"
       x="9.5080004" /><rect
       style="fill:#8d8c8c"
       id="rect18"
       height="2.2980001"
       width="2.2980001"
       y="2.3659999"
       x="16.705999" /><rect
       style="fill:#8d8455"
       id="rect20"
       height="2.2980001"
       width="2.2980001"
       y="9.5649996"
       x="16.705999" /><rect
       style="fill:#8c8663"
       id="rect22"
       height="1.184"
       width="1.183"
       y="10.124"
       x="17.264" /><polygon
       style="fill:#b8af82"
       id="polygon24"
       points="19.004,11.863 19.004,9.565 18.445,10.124 18.445,11.305 " /><polygon
       style="fill:#80795b"
       id="polygon26"
       points="16.706,11.863 17.264,11.305 18.445,11.305 19.004,11.863 " /><polygon
       style="fill:#5e5b43"
       id="polygon28"
       points="16.706,9.565 17.264,10.124 17.264,11.305 16.706,11.863 " /><polygon
       style="fill:#9a916c"
       id="polygon30"
       points="16.706,9.565 19.004,9.565 18.445,10.124 17.264,10.124 " /><rect
       style="fill:#8c8663"
       id="rect32"
       height="1.182"
       width="1.183"
       y="2.924"
       x="17.264" /><polygon
       style="fill:#b8af82"
       id="polygon34"
       points="18.445,2.924 18.445,4.105 19.004,4.663 19.004,2.366 " /><polygon
       style="fill:#80795b"
       id="polygon36"
       points="18.445,4.105 19.004,4.663 16.706,4.663 17.264,4.105 " /><polygon
       style="fill:#5e5b43"
       id="polygon38"
       points="17.264,4.105 16.706,4.663 16.706,2.366 17.264,2.924 " /><polygon
       style="fill:#9a916c"
       id="polygon40"
       points="18.445,2.924 17.264,2.924 16.706,2.366 19.004,2.366 " /><rect
       style="fill:#8c8663"
       id="rect42"
       height="1.184"
       width="1.184"
       y="10.124"
       x="10.065" /><polygon
       style="fill:#b8af82"
       id="polygon44"
       points="11.805,11.863 11.805,9.565 11.248,10.124 11.248,11.305 " /><polygon
       style="fill:#80795b"
       id="polygon46"
       points="9.508,11.863 10.065,11.305 11.248,11.305 11.805,11.863 " /><polygon
       style="fill:#5e5b43"
       id="polygon48"
       points="9.508,9.565 10.065,10.124 10.065,11.305 9.508,11.863 " /><polygon
       style="fill:#9a916c"
       id="polygon50"
       points="9.508,9.565 11.805,9.565 11.248,10.124 10.065,10.124 " /><rect
       style="fill:#8c8663"
       id="rect52"
       height="1.182"
       width="1.184"
       y="2.924"
       x="10.065" /><polygon
       style="fill:#b8af82"
       id="polygon54"
       points="11.805,4.663 11.805,2.366 11.248,2.924 11.248,4.105 " /><polygon
       style="fill:#80795b"
       id="polygon56"
       points="9.508,4.663 10.065,4.105 11.248,4.105 11.805,4.663 " /><polygon
       style="fill:#5e5b43"
       id="polygon58"
       points="9.508,2.366 10.065,2.924 10.065,4.105 9.508,4.663 " /><polygon
       style="fill:#9a916c"
       id="polygon60"
       points="9.508,2.366 11.805,2.366 11.248,2.924 10.065,2.924 " /><rect
       style="fill:#8c8663"
       id="rect62"
       height="1.184"
       width="1.1849999"
       y="10.124"
       x="2.8640001" /><polygon
       style="fill:#b8af82"
       id="polygon64"
       points="4.607,11.863 4.607,9.565 4.048,10.124 4.048,11.305 " /><polygon
       style="fill:#80795b"
       id="polygon66"
       points="2.309,11.863 2.864,11.305 4.048,11.305 4.607,11.863 " /><polygon
       style="fill:#5e5b43"
       id="polygon68"
       points="2.309,9.565 2.864,10.124 2.864,11.305 2.309,11.863 " /><polygon
       style="fill:#9a916c"
       id="polygon70"
       points="2.309,9.565 4.607,9.565 4.048,10.124 2.864,10.124 " /><rect
       style="fill:#8c8663"
       id="rect72"
       height="1.182"
       width="1.1849999"
       y="2.924"
       x="2.8640001" /><polygon
       style="fill:#b8af82"
       id="polygon74"
       points="4.607,4.663 4.607,2.366 4.048,2.924 4.048,4.105 " /><polygon
       style="fill:#80795b"
       id="polygon76"
       points="2.309,4.663 2.864,4.105 4.048,4.105 4.607,4.663 " /><polygon
       style="fill:#5e5b43"
       id="polygon78"
       points="2.309,2.366 2.864,2.924 2.864,4.105 2.309,4.663 " /><polygon
       style="fill:#9a916c"
       id="polygon80"
       points="2.309,2.366 4.607,2.366 4.048,2.924 2.864,2.924 " /><rect
       style="fill:#8d8c8c"
       id="rect14-9"
       height="2.2980001"
       width="2.2980001"
       y="2.3659999"
       x="23.867001" /><rect
       style="fill:#8d8c8c"
       id="rect16-0"
       height="2.2980001"
       width="2.2980001"
       y="9.5649996"
       x="23.867001" /><rect
       style="fill:#8c8663"
       id="rect42-3"
       height="1.184"
       width="1.184"
       y="10.124"
       x="24.424" /><polygon
       transform="translate(14.359)"
       style="fill:#b8af82"
       id="polygon44-0"
       points="11.248,11.305 11.805,11.863 11.805,9.565 11.248,10.124 " /><polygon
       transform="translate(14.359)"
       style="fill:#80795b"
       id="polygon46-3"
       points="11.805,11.863 9.508,11.863 10.065,11.305 11.248,11.305 " /><polygon
       transform="translate(14.359)"
       style="fill:#5e5b43"
       id="polygon48-7"
       points="9.508,11.863 9.508,9.565 10.065,10.124 10.065,11.305 " /><polygon
       transform="translate(14.359)"
       style="fill:#9a916c"
       id="polygon50-2"
       points="10.065,10.124 9.508,9.565 11.805,9.565 11.248,10.124 " /><rect
       style="fill:#8c8663"
       id="rect52-0"
       height="1.182"
       width="1.184"
       y="2.924"
       x="24.424" /><polygon
       transform="translate(14.359)"
       style="fill:#b8af82"
       id="polygon54-6"
       points="11.805,2.366 11.248,2.924 11.248,4.105 11.805,4.663 " /><polygon
       transform="translate(14.359)"
       style="fill:#80795b"
       id="polygon56-7"
       points="10.065,4.105 11.248,4.105 11.805,4.663 9.508,4.663 " /><polygon
       transform="translate(14.359)"
       style="fill:#5e5b43"
       id="polygon58-2"
       points="10.065,2.924 10.065,4.105 9.508,4.663 9.508,2.366 " /><polygon
       transform="translate(14.359)"
       style="fill:#9a916c"
       id="polygon60-5"
       points="11.805,2.366 11.248,2.924 10.065,2.924 9.508,2.366 " /></g></svg>