<?xml version="1.0" encoding="utf-8"?>
<!-- Generator: Adobe Illustrator 21.0.0, SVG Export Plug-In . SVG Version: 6.00 Build 0)  -->
<svg version="1.1"
	 id="Layer_1" inkscape:version="0.91 r13725" sodipodi:docname="2x05_1.27mm.svg" xmlns:cc="http://creativecommons.org/ns#" xmlns:dc="http://purl.org/dc/elements/1.1/" xmlns:inkscape="http://www.inkscape.org/namespaces/inkscape" xmlns:rdf="http://www.w3.org/1999/02/22-rdf-syntax-ns#" xmlns:sodipodi="http://sodipodi.sourceforge.net/DTD/sodipodi-0.dtd" xmlns:svg="http://www.w3.org/2000/svg"
	 xmlns="http://www.w3.org/2000/svg" xmlns:xlink="http://www.w3.org/1999/xlink" x="0px" y="0px" width="35.4px" height="17px"
	 viewBox="0 0 35.4 17" style="enable-background:new 0 0 35.4 17;" xml:space="preserve">
<style type="text/css">
	.st0{fill:#CCCCCC;}
	.st1{fill:#1A1A1A;}
	.st2{fill:#2A2A29;}
	.st3{fill:#595959;}
	.st4{fill:#373737;}
	.st5{fill:#474747;}
	.st6{fill:#404040;}
	.st7{fill:#141414;}
	.st8{fill:#8C8663;}
	.st9{fill:#B8AF82;}
	.st10{fill:#5E5B43;}
	.st11{fill:#9A916C;}
</style>
<sodipodi:namedview  bordercolor="#666666" borderopacity="1" fit-margin-bottom="0" fit-margin-left="0" fit-margin-right="0" fit-margin-top="0" gridtolerance="10" guidetolerance="10" id="namedview95" inkscape:current-layer="Layer_1" inkscape:cx="17.240508" inkscape:cy="-22.946689" inkscape:document-units="mm" inkscape:guide-bbox="true" inkscape:pageopacity="0" inkscape:pageshadow="2" inkscape:window-height="856" inkscape:window-maximized="0" inkscape:window-width="1448" inkscape:window-x="295" inkscape:window-y="164" inkscape:zoom="4.1942754" objecttolerance="10" pagecolor="#ffffff" showgrid="false" showguides="true" units="mm">
	</sodipodi:namedview>
<g id="g8302" transform="matrix(-1,0,0,-1,44.291343,21.259839)">
	<rect id="rect21733" x="33" y="4.3" class="st0" width="1.4" height="17"/>
	<rect id="rect21731" x="29.4" y="4.3" class="st0" width="1.4" height="17"/>
	<rect id="rect21729" x="25.8" y="4.3" class="st0" width="1.4" height="17"/>
	<rect id="rect21727" x="22.2" y="4.3" class="st0" width="1.4" height="17"/>
	<rect id="rect21725" x="18.6" y="4.3" class="st0" width="1.4" height="17"/>
	<path id="path8547" inkscape:connector-curvature="0" class="st1" d="M8.9,19.8h35.4V6.2H8.9L8.9,19.8z"/>
	<path id="path8549" inkscape:connector-curvature="0" class="st2" d="M8.9,19.8h35.4v-1.5H8.9L8.9,19.8z"/>
	<path id="path8551" inkscape:connector-curvature="0" class="st3" d="M8.9,7.7h35.4V6.2H8.9L8.9,7.7z"/>
	<path id="path8553" inkscape:connector-curvature="0" class="st4" d="M8.9,19.8V6.2l1.7,1.5v10.6L8.9,19.8z"/>
	<path id="path8555" inkscape:connector-curvature="0" class="st5" d="M44.3,19.8V6.2l-1.7,1.5v10.6L44.3,19.8z"/>
	<path id="path8557" inkscape:connector-curvature="0" class="st6" d="M8.9,19.8h35.4v-1H8.9L8.9,19.8z"/>
	<path id="path8559" inkscape:connector-curvature="0" class="st6" d="M8.9,7.2h35.4v-1H8.9L8.9,7.2z"/>
	<path id="path8561" inkscape:connector-curvature="0" class="st6" d="M8.9,19.8H10V6.2H8.9V19.8z"/>
	<path id="path8563" inkscape:connector-curvature="0" class="st6" d="M43.2,19.8h1.1V6.2h-1.1V19.8z"/>
	<path id="path8685" inkscape:connector-curvature="0" class="st1" d="M22.8,8.8h7.4V6.2h-7.4L22.8,8.8z"/>
	<path id="path8974" inkscape:connector-curvature="0" class="st1" d="M8.9,19.3h35.4V5.7H8.9L8.9,19.3z"/>
	<path id="path8976" inkscape:connector-curvature="0" class="st2" d="M8.9,19.3h35.4v-1.5H8.9L8.9,19.3z"/>
	<path id="path8978" inkscape:connector-curvature="0" class="st3" d="M8.9,7.2h35.4V5.7H8.9L8.9,7.2z"/>
	<path id="path8980" inkscape:connector-curvature="0" class="st4" d="M8.9,19.3V5.7l1.7,1.5v10.6L8.9,19.3z"/>
	<path id="path8982" inkscape:connector-curvature="0" class="st5" d="M44.3,19.3V5.7l-1.7,1.5v10.6L44.3,19.3z"/>
	<path id="path8984" inkscape:connector-curvature="0" class="st6" d="M8.9,19.3h35.4v-1H8.9L8.9,19.3z"/>
	<path id="path8986" inkscape:connector-curvature="0" class="st6" d="M8.9,6.6h35.4v-1H8.9L8.9,6.6z"/>
	<path id="path8988" inkscape:connector-curvature="0" class="st6" d="M8.9,19.3H10V5.7H8.9V19.3z"/>
	<path id="path8990" inkscape:connector-curvature="0" class="st6" d="M43.2,19.3h1.1V5.7h-1.1V19.3z"/>
	<path id="path9112" inkscape:connector-curvature="0" class="st1" d="M22.8,8.3h7.4V5.7h-7.4L22.8,8.3z"/>
	<g id="g21215" transform="translate(1.3908556,-16.142355)">
		<g id="g21106">
			<g id="g21042" transform="translate(0,4.0000004)">
				<rect id="upper_connector_bgnd" x="16.9" y="25.7" class="st7" width="2.1" height="2.1"/>
				<rect id="connector9pin" x="17.3" y="26.1" class="st8" width="1.3" height="1.3"/>
				<rect id="upper_connector_top_inset" x="17.3" y="26.1" class="st9" width="1.3" height="0.3"/>
				<rect id="upper_connector_bottom_inset" x="17.3" y="27.1" class="st10" width="1.3" height="0.3"/>
				<path id="upper_connector_left_inset" inkscape:connector-curvature="0" class="st11" d="M17.3,26.1v1.3l0.3-0.3v-0.7L17.3,26.1
					z"/>
				<path id="upper_connector_right_inset" inkscape:connector-curvature="0" class="st11" d="M18.6,26.1v1.3l-0.3-0.3v-0.7
					L18.6,26.1z"/>
			</g>
			<g id="g21050" transform="translate(4.5011077,4.0000004)">
				<rect id="rect21052" x="16" y="25.7" class="st7" width="2.1" height="2.1"/>
				<rect id="rect21054" x="16.4" y="26.1" class="st8" width="1.3" height="1.3"/>
				<rect id="rect21056" x="16.4" y="26.1" class="st9" width="1.3" height="0.3"/>
				<rect id="rect21058" x="16.4" y="27.1" class="st10" width="1.3" height="0.3"/>
				<path id="path21060" inkscape:connector-curvature="0" class="st11" d="M16.4,26.1v1.3l0.3-0.3v-0.7L16.4,26.1z"/>
				<path id="path21062" inkscape:connector-curvature="0" class="st11" d="M17.7,26.1v1.3l-0.3-0.3v-0.7L17.7,26.1z"/>
			</g>
			<g id="g21064" transform="translate(9.001108,4.0000004)">
				<rect id="rect21066" x="15.1" y="25.7" class="st7" width="2.1" height="2.1"/>
				<rect id="rect21068" x="15.5" y="26.1" class="st8" width="1.3" height="1.3"/>
				<rect id="rect21070" x="15.5" y="26.1" class="st9" width="1.3" height="0.3"/>
				<rect id="rect21072" x="15.5" y="27.1" class="st10" width="1.3" height="0.3"/>
				<path id="path21074" inkscape:connector-curvature="0" class="st11" d="M15.5,26.1v1.3l0.3-0.3v-0.7L15.5,26.1z"/>
				<path id="path21076" inkscape:connector-curvature="0" class="st11" d="M16.8,26.1v1.3l-0.3-0.3v-0.7L16.8,26.1z"/>
			</g>
			<g id="g21078" transform="translate(13.502216,4.0000004)">
				<rect id="rect21080" x="14.2" y="25.7" class="st7" width="2.1" height="2.1"/>
				<rect id="rect21082" x="14.6" y="26.1" class="st8" width="1.3" height="1.3"/>
				<rect id="rect21084" x="14.6" y="26.1" class="st9" width="1.3" height="0.3"/>
				<rect id="rect21086" x="14.6" y="27.1" class="st10" width="1.3" height="0.3"/>
				<path id="path21088" inkscape:connector-curvature="0" class="st11" d="M14.6,26.1v1.3l0.3-0.3v-0.7L14.6,26.1z"/>
				<path id="path21090" inkscape:connector-curvature="0" class="st11" d="M15.9,26.1v1.3l-0.3-0.3v-0.7L15.9,26.1z"/>
			</g>
			<g id="g21092" transform="translate(18.001109,4.0000004)">
				<rect id="rect21094" x="13.3" y="25.7" class="st7" width="2.1" height="2.1"/>
				<rect id="rect21096" x="13.7" y="26.1" class="st8" width="1.3" height="1.3"/>
				<rect id="rect21098" x="13.7" y="26.1" class="st9" width="1.3" height="0.3"/>
				<rect id="rect21100" x="13.7" y="27.1" class="st10" width="1.3" height="0.3"/>
				<path id="path21102" inkscape:connector-curvature="0" class="st11" d="M13.7,26.1v1.3l0.3-0.3v-0.7L13.7,26.1z"/>
				<path id="path21104" inkscape:connector-curvature="0" class="st11" d="M15,26.1v1.3l-0.3-0.3v-0.7L15,26.1z"/>
			</g>
		</g>
		<g id="g21143" transform="translate(0,-4.5003047)">
			<g id="g21145" transform="translate(0,4.0000004)">
				<rect id="rect21147" x="16.9" y="26.6" class="st7" width="2.1" height="2.1"/>
				<rect id="rect21149" x="17.3" y="27" class="st8" width="1.3" height="1.3"/>
				<rect id="rect21151" x="17.3" y="27" class="st9" width="1.3" height="0.3"/>
				<rect id="rect21153" x="17.3" y="28" class="st10" width="1.3" height="0.3"/>
				<path id="path21155" inkscape:connector-curvature="0" class="st11" d="M17.3,27v1.3l0.3-0.3v-0.7L17.3,27z"/>
				<path id="path21157" inkscape:connector-curvature="0" class="st11" d="M18.6,27v1.3L18.3,28v-0.7L18.6,27z"/>
			</g>
			<g id="g21159" transform="translate(4.5011077,4.0000004)">
				<rect id="rect21161" x="16" y="26.6" class="st7" width="2.1" height="2.1"/>
				<rect id="rect21163" x="16.4" y="27" class="st8" width="1.3" height="1.3"/>
				<rect id="rect21165" x="16.4" y="27" class="st9" width="1.3" height="0.3"/>
				<rect id="rect21167" x="16.4" y="28" class="st10" width="1.3" height="0.3"/>
				<path id="path21169" inkscape:connector-curvature="0" class="st11" d="M16.4,27v1.3l0.3-0.3v-0.7L16.4,27z"/>
				<path id="path21171" inkscape:connector-curvature="0" class="st11" d="M17.7,27v1.3L17.4,28v-0.7L17.7,27z"/>
			</g>
			<g id="g21173" transform="translate(9.001108,4.0000004)">
				<rect id="rect21175" x="15.1" y="26.6" class="st7" width="2.1" height="2.1"/>
				<rect id="rect21177" x="15.5" y="27" class="st8" width="1.3" height="1.3"/>
				<rect id="rect21179" x="15.5" y="27" class="st9" width="1.3" height="0.3"/>
				<rect id="rect21181" x="15.5" y="28" class="st10" width="1.3" height="0.3"/>
				<path id="path21183" inkscape:connector-curvature="0" class="st11" d="M15.5,27v1.3l0.3-0.3v-0.7L15.5,27z"/>
				<path id="path21185" inkscape:connector-curvature="0" class="st11" d="M16.8,27v1.3L16.5,28v-0.7L16.8,27z"/>
			</g>
			<g id="g21187" transform="translate(13.502216,4.0000004)">
				<rect id="rect21189" x="14.2" y="26.6" class="st7" width="2.1" height="2.1"/>
				<rect id="rect21191" x="14.6" y="27" class="st8" width="1.3" height="1.3"/>
				<rect id="rect21193" x="14.6" y="27" class="st9" width="1.3" height="0.3"/>
				<rect id="rect21195" x="14.6" y="28" class="st10" width="1.3" height="0.3"/>
				<path id="path21197" inkscape:connector-curvature="0" class="st11" d="M14.6,27v1.3l0.3-0.3v-0.7L14.6,27z"/>
				<path id="path21199" inkscape:connector-curvature="0" class="st11" d="M15.9,27v1.3L15.6,28v-0.7L15.9,27z"/>
			</g>
			<g id="g21201" transform="translate(18.001109,4.0000004)">
				<rect id="rect21203" x="13.3" y="26.6" class="st7" width="2.1" height="2.1"/>
				<rect id="rect21205" x="13.7" y="27" class="st8" width="1.3" height="1.3"/>
				<rect id="rect21207" x="13.7" y="27" class="st9" width="1.3" height="0.3"/>
				<rect id="rect21209" x="13.7" y="28" class="st10" width="1.3" height="0.3"/>
				<path id="path21211" inkscape:connector-curvature="0" class="st11" d="M13.7,27v1.3L14,28v-0.7L13.7,27z"/>
				<path id="path21213" inkscape:connector-curvature="0" class="st11" d="M15,27v1.3L14.7,28v-0.7L15,27z"/>
			</g>
		</g>
	</g>
</g>
</svg>
