<?xml version="1.0" encoding="UTF-8" standalone="no"?>
<!-- Generator: Adobe Illustrator 20.0.0, SVG Export Plug-In . SVG Version: 6.00 Build 0)  -->

<svg
   xmlns:dc="http://purl.org/dc/elements/1.1/"
   xmlns:cc="http://creativecommons.org/ns#"
   xmlns:rdf="http://www.w3.org/1999/02/22-rdf-syntax-ns#"
   xmlns:svg="http://www.w3.org/2000/svg"
   xmlns="http://www.w3.org/2000/svg"
   xmlns:sodipodi="http://sodipodi.sourceforge.net/DTD/sodipodi-0.dtd"
   xmlns:inkscape="http://www.inkscape.org/namespaces/inkscape"
   version="1.2"
   id="Layer_1"
   x="0px"
   y="0px"
   width="76.583427"
   height="19.199999"
   viewBox="0 0 76.583428 19.199999"
   xml:space="preserve"
   sodipodi:docname="2X08M.svg"
   inkscape:version="0.92.3 (2405546, 2018-03-11)"><metadata
   id="metadata91"><rdf:RDF><cc:Work
       rdf:about=""><dc:format>image/svg+xml</dc:format><dc:type
         rdf:resource="http://purl.org/dc/dcmitype/StillImage" /><dc:title></dc:title></cc:Work></rdf:RDF></metadata><defs
   id="defs89">
	
	

		
		
		
		
		
		
		
		
		
		
		
		
		
		
		
		
		
		
		
		
		
		
		
		
		
		
		
		
		
		
		
		
		
		
		
		
	
		
		
		
	
	
	

		
		
		
		
		
		
		
		
		
		
		
		
		
		
		
		
		
		
		
		
		
		
		
		
		
		
		
		
		
		
		
		
		
		
		
		
	
		
		
		
	</defs><sodipodi:namedview
   pagecolor="#ffffff"
   bordercolor="#666666"
   borderopacity="1"
   objecttolerance="10"
   gridtolerance="10"
   guidetolerance="10"
   inkscape:pageopacity="0"
   inkscape:pageshadow="2"
   inkscape:window-width="1461"
   inkscape:window-height="875"
   id="namedview87"
   showgrid="false"
   inkscape:document-units="in"
   inkscape:zoom="7.5071554"
   inkscape:cx="70.778996"
   inkscape:cy="10.931804"
   inkscape:window-x="516"
   inkscape:window-y="57"
   inkscape:window-maximized="0"
   inkscape:current-layer="Layer_1"
   fit-margin-top="0"
   fit-margin-left="0"
   fit-margin-right="0"
   fit-margin-bottom="0" />

<g
   id="g824"><g
     id="g514"><polygon
       points="6.954,1.511 5.442,0 1.509,0 0,1.511 0,5.445 0,8.785 0,12.717 1.509,14.229 5.442,14.229 6.954,12.717 6.954,8.785 6.954,5.445 "
       id="polygon6"
       style="fill:#404040"
       transform="scale(1.3493569)" /><rect
       x="3.1156652"
       y="3.1925783"
       width="3.1021717"
       height="3.1008222"
       id="rect10"
       style="fill:#8d8c8c;stroke-width:1.34935689" /><rect
       x="3.1156652"
       y="12.906598"
       width="3.1021717"
       height="3.1008222"
       id="rect12"
       style="fill:#8d8c8c;stroke-width:1.34935689" /><rect
       x="3.8645582"
       y="13.660889"
       width="1.5989878"
       height="1.5976386"
       id="rect62"
       style="fill:#8c8663;stroke-width:1.34935689" /><polygon
       points="4.607,11.863 4.607,9.565 4.048,10.124 4.048,11.305 "
       id="polygon64"
       style="fill:#b8af82"
       transform="scale(1.3493569)" /><polygon
       points="2.309,11.863 2.864,11.305 4.048,11.305 4.607,11.863 "
       id="polygon66"
       style="fill:#80795b"
       transform="scale(1.3493569)" /><polygon
       points="2.309,9.565 2.864,10.124 2.864,11.305 2.309,11.863 "
       id="polygon68"
       style="fill:#5e5b43"
       transform="scale(1.3493569)" /><polygon
       points="2.309,9.565 4.607,9.565 4.048,10.124 2.864,10.124 "
       id="polygon70"
       style="fill:#9a916c"
       transform="scale(1.3493569)" /><rect
       x="3.8645582"
       y="3.9455197"
       width="1.5989878"
       height="1.5949399"
       id="rect72"
       style="fill:#8c8663;stroke-width:1.34935689" /><polygon
       points="4.607,4.663 4.607,2.366 4.048,2.924 4.048,4.105 "
       id="polygon74"
       style="fill:#b8af82"
       transform="scale(1.3493569)" /><polygon
       points="2.309,4.663 2.864,4.105 4.048,4.105 4.607,4.663 "
       id="polygon76"
       style="fill:#80795b"
       transform="scale(1.3493569)" /><polygon
       points="2.309,2.366 2.864,2.924 2.864,4.105 2.309,4.663 "
       id="polygon78"
       style="fill:#5e5b43"
       transform="scale(1.3493569)" /><polygon
       points="2.309,2.366 4.607,2.366 4.048,2.924 2.864,2.924 "
       id="polygon80"
       style="fill:#9a916c"
       transform="scale(1.3493569)" /></g><g
     transform="translate(9.6000001)"
     id="g542"><polygon
       transform="scale(1.3493569)"
       style="fill:#404040"
       id="polygon516"
       points="5.442,0 1.509,0 0,1.511 0,5.445 0,8.785 0,12.717 1.509,14.229 5.442,14.229 6.954,12.717 6.954,8.785 6.954,5.445 6.954,1.511 " /><rect
       style="fill:#8d8c8c;stroke-width:1.34935689"
       id="rect518"
       height="3.1008222"
       width="3.1021717"
       y="3.1925783"
       x="3.1156652" /><rect
       style="fill:#8d8c8c;stroke-width:1.34935689"
       id="rect520"
       height="3.1008222"
       width="3.1021717"
       y="12.906598"
       x="3.1156652" /><rect
       style="fill:#8c8663;stroke-width:1.34935689"
       id="rect522"
       height="1.5976386"
       width="1.5989878"
       y="13.660889"
       x="3.8645582" /><polygon
       transform="scale(1.3493569)"
       style="fill:#b8af82"
       id="polygon524"
       points="4.607,9.565 4.048,10.124 4.048,11.305 4.607,11.863 " /><polygon
       transform="scale(1.3493569)"
       style="fill:#80795b"
       id="polygon526"
       points="2.864,11.305 4.048,11.305 4.607,11.863 2.309,11.863 " /><polygon
       transform="scale(1.3493569)"
       style="fill:#5e5b43"
       id="polygon528"
       points="2.864,10.124 2.864,11.305 2.309,11.863 2.309,9.565 " /><polygon
       transform="scale(1.3493569)"
       style="fill:#9a916c"
       id="polygon530"
       points="4.607,9.565 4.048,10.124 2.864,10.124 2.309,9.565 " /><rect
       style="fill:#8c8663;stroke-width:1.34935689"
       id="rect532"
       height="1.5949399"
       width="1.5989878"
       y="3.9455197"
       x="3.8645582" /><polygon
       transform="scale(1.3493569)"
       style="fill:#b8af82"
       id="polygon534"
       points="4.607,2.366 4.048,2.924 4.048,4.105 4.607,4.663 " /><polygon
       transform="scale(1.3493569)"
       style="fill:#80795b"
       id="polygon536"
       points="2.864,4.105 4.048,4.105 4.607,4.663 2.309,4.663 " /><polygon
       transform="scale(1.3493569)"
       style="fill:#5e5b43"
       id="polygon538"
       points="2.864,2.924 2.864,4.105 2.309,4.663 2.309,2.366 " /><polygon
       transform="scale(1.3493569)"
       style="fill:#9a916c"
       id="polygon540"
       points="4.607,2.366 4.048,2.924 2.864,2.924 2.309,2.366 " /></g><g
     transform="translate(19.2)"
     id="g570"><polygon
       transform="scale(1.3493569)"
       style="fill:#404040"
       id="polygon544"
       points="5.442,0 1.509,0 0,1.511 0,5.445 0,8.785 0,12.717 1.509,14.229 5.442,14.229 6.954,12.717 6.954,8.785 6.954,5.445 6.954,1.511 " /><rect
       style="fill:#8d8c8c;stroke-width:1.34935689"
       id="rect546"
       height="3.1008222"
       width="3.1021717"
       y="3.1925783"
       x="3.1156652" /><rect
       style="fill:#8d8c8c;stroke-width:1.34935689"
       id="rect548"
       height="3.1008222"
       width="3.1021717"
       y="12.906598"
       x="3.1156652" /><rect
       style="fill:#8c8663;stroke-width:1.34935689"
       id="rect550"
       height="1.5976386"
       width="1.5989878"
       y="13.660889"
       x="3.8645582" /><polygon
       transform="scale(1.3493569)"
       style="fill:#b8af82"
       id="polygon552"
       points="4.607,9.565 4.048,10.124 4.048,11.305 4.607,11.863 " /><polygon
       transform="scale(1.3493569)"
       style="fill:#80795b"
       id="polygon554"
       points="2.864,11.305 4.048,11.305 4.607,11.863 2.309,11.863 " /><polygon
       transform="scale(1.3493569)"
       style="fill:#5e5b43"
       id="polygon556"
       points="2.864,10.124 2.864,11.305 2.309,11.863 2.309,9.565 " /><polygon
       transform="scale(1.3493569)"
       style="fill:#9a916c"
       id="polygon558"
       points="4.607,9.565 4.048,10.124 2.864,10.124 2.309,9.565 " /><rect
       style="fill:#8c8663;stroke-width:1.34935689"
       id="rect560"
       height="1.5949399"
       width="1.5989878"
       y="3.9455197"
       x="3.8645582" /><polygon
       transform="scale(1.3493569)"
       style="fill:#b8af82"
       id="polygon562"
       points="4.607,2.366 4.048,2.924 4.048,4.105 4.607,4.663 " /><polygon
       transform="scale(1.3493569)"
       style="fill:#80795b"
       id="polygon564"
       points="2.864,4.105 4.048,4.105 4.607,4.663 2.309,4.663 " /><polygon
       transform="scale(1.3493569)"
       style="fill:#5e5b43"
       id="polygon566"
       points="2.864,2.924 2.864,4.105 2.309,4.663 2.309,2.366 " /><polygon
       transform="scale(1.3493569)"
       style="fill:#9a916c"
       id="polygon568"
       points="4.607,2.366 4.048,2.924 2.864,2.924 2.309,2.366 " /></g><g
     id="g598"
     transform="translate(28.8)"><polygon
       points="1.509,0 0,1.511 0,5.445 0,8.785 0,12.717 1.509,14.229 5.442,14.229 6.954,12.717 6.954,8.785 6.954,5.445 6.954,1.511 5.442,0 "
       id="polygon572"
       style="fill:#404040"
       transform="scale(1.3493569)" /><rect
       x="3.1156652"
       y="3.1925783"
       width="3.1021717"
       height="3.1008222"
       id="rect574"
       style="fill:#8d8c8c;stroke-width:1.34935689" /><rect
       x="3.1156652"
       y="12.906598"
       width="3.1021717"
       height="3.1008222"
       id="rect576"
       style="fill:#8d8c8c;stroke-width:1.34935689" /><rect
       x="3.8645582"
       y="13.660889"
       width="1.5989878"
       height="1.5976386"
       id="rect578"
       style="fill:#8c8663;stroke-width:1.34935689" /><polygon
       points="4.048,10.124 4.048,11.305 4.607,11.863 4.607,9.565 "
       id="polygon580"
       style="fill:#b8af82"
       transform="scale(1.3493569)" /><polygon
       points="4.048,11.305 4.607,11.863 2.309,11.863 2.864,11.305 "
       id="polygon582"
       style="fill:#80795b"
       transform="scale(1.3493569)" /><polygon
       points="2.864,11.305 2.309,11.863 2.309,9.565 2.864,10.124 "
       id="polygon584"
       style="fill:#5e5b43"
       transform="scale(1.3493569)" /><polygon
       points="4.048,10.124 2.864,10.124 2.309,9.565 4.607,9.565 "
       id="polygon586"
       style="fill:#9a916c"
       transform="scale(1.3493569)" /><rect
       x="3.8645582"
       y="3.9455197"
       width="1.5989878"
       height="1.5949399"
       id="rect588"
       style="fill:#8c8663;stroke-width:1.34935689" /><polygon
       points="4.048,2.924 4.048,4.105 4.607,4.663 4.607,2.366 "
       id="polygon590"
       style="fill:#b8af82"
       transform="scale(1.3493569)" /><polygon
       points="4.048,4.105 4.607,4.663 2.309,4.663 2.864,4.105 "
       id="polygon592"
       style="fill:#80795b"
       transform="scale(1.3493569)" /><polygon
       points="2.864,4.105 2.309,4.663 2.309,2.366 2.864,2.924 "
       id="polygon594"
       style="fill:#5e5b43"
       transform="scale(1.3493569)" /><polygon
       points="4.048,2.924 2.864,2.924 2.309,2.366 4.607,2.366 "
       id="polygon596"
       style="fill:#9a916c"
       transform="scale(1.3493569)" /></g><g
     transform="translate(38.4)"
     id="g626"><polygon
       transform="scale(1.3493569)"
       style="fill:#404040"
       id="polygon600"
       points="5.442,0 1.509,0 0,1.511 0,5.445 0,8.785 0,12.717 1.509,14.229 5.442,14.229 6.954,12.717 6.954,8.785 6.954,5.445 6.954,1.511 " /><rect
       style="fill:#8d8c8c;stroke-width:1.34935689"
       id="rect602"
       height="3.1008222"
       width="3.1021717"
       y="3.1925783"
       x="3.1156652" /><rect
       style="fill:#8d8c8c;stroke-width:1.34935689"
       id="rect604"
       height="3.1008222"
       width="3.1021717"
       y="12.906598"
       x="3.1156652" /><rect
       style="fill:#8c8663;stroke-width:1.34935689"
       id="rect606"
       height="1.5976386"
       width="1.5989878"
       y="13.660889"
       x="3.8645582" /><polygon
       transform="scale(1.3493569)"
       style="fill:#b8af82"
       id="polygon608"
       points="4.607,9.565 4.048,10.124 4.048,11.305 4.607,11.863 " /><polygon
       transform="scale(1.3493569)"
       style="fill:#80795b"
       id="polygon610"
       points="2.864,11.305 4.048,11.305 4.607,11.863 2.309,11.863 " /><polygon
       transform="scale(1.3493569)"
       style="fill:#5e5b43"
       id="polygon612"
       points="2.864,10.124 2.864,11.305 2.309,11.863 2.309,9.565 " /><polygon
       transform="scale(1.3493569)"
       style="fill:#9a916c"
       id="polygon614"
       points="4.607,9.565 4.048,10.124 2.864,10.124 2.309,9.565 " /><rect
       style="fill:#8c8663;stroke-width:1.34935689"
       id="rect616"
       height="1.5949399"
       width="1.5989878"
       y="3.9455197"
       x="3.8645582" /><polygon
       transform="scale(1.3493569)"
       style="fill:#b8af82"
       id="polygon618"
       points="4.607,2.366 4.048,2.924 4.048,4.105 4.607,4.663 " /><polygon
       transform="scale(1.3493569)"
       style="fill:#80795b"
       id="polygon620"
       points="2.864,4.105 4.048,4.105 4.607,4.663 2.309,4.663 " /><polygon
       transform="scale(1.3493569)"
       style="fill:#5e5b43"
       id="polygon622"
       points="2.864,2.924 2.864,4.105 2.309,4.663 2.309,2.366 " /><polygon
       transform="scale(1.3493569)"
       style="fill:#9a916c"
       id="polygon624"
       points="4.607,2.366 4.048,2.924 2.864,2.924 2.309,2.366 " /></g><g
     id="g654"
     transform="translate(48)"><polygon
       points="1.509,0 0,1.511 0,5.445 0,8.785 0,12.717 1.509,14.229 5.442,14.229 6.954,12.717 6.954,8.785 6.954,5.445 6.954,1.511 5.442,0 "
       id="polygon628"
       style="fill:#404040"
       transform="scale(1.3493569)" /><rect
       x="3.1156652"
       y="3.1925783"
       width="3.1021717"
       height="3.1008222"
       id="rect630"
       style="fill:#8d8c8c;stroke-width:1.34935689" /><rect
       x="3.1156652"
       y="12.906598"
       width="3.1021717"
       height="3.1008222"
       id="rect632"
       style="fill:#8d8c8c;stroke-width:1.34935689" /><rect
       x="3.8645582"
       y="13.660889"
       width="1.5989878"
       height="1.5976386"
       id="rect634"
       style="fill:#8c8663;stroke-width:1.34935689" /><polygon
       points="4.048,10.124 4.048,11.305 4.607,11.863 4.607,9.565 "
       id="polygon636"
       style="fill:#b8af82"
       transform="scale(1.3493569)" /><polygon
       points="4.048,11.305 4.607,11.863 2.309,11.863 2.864,11.305 "
       id="polygon638"
       style="fill:#80795b"
       transform="scale(1.3493569)" /><polygon
       points="2.864,11.305 2.309,11.863 2.309,9.565 2.864,10.124 "
       id="polygon640"
       style="fill:#5e5b43"
       transform="scale(1.3493569)" /><polygon
       points="4.048,10.124 2.864,10.124 2.309,9.565 4.607,9.565 "
       id="polygon642"
       style="fill:#9a916c"
       transform="scale(1.3493569)" /><rect
       x="3.8645582"
       y="3.9455197"
       width="1.5989878"
       height="1.5949399"
       id="rect644"
       style="fill:#8c8663;stroke-width:1.34935689" /><polygon
       points="4.048,2.924 4.048,4.105 4.607,4.663 4.607,2.366 "
       id="polygon646"
       style="fill:#b8af82"
       transform="scale(1.3493569)" /><polygon
       points="4.048,4.105 4.607,4.663 2.309,4.663 2.864,4.105 "
       id="polygon648"
       style="fill:#80795b"
       transform="scale(1.3493569)" /><polygon
       points="2.864,4.105 2.309,4.663 2.309,2.366 2.864,2.924 "
       id="polygon650"
       style="fill:#5e5b43"
       transform="scale(1.3493569)" /><polygon
       points="4.048,2.924 2.864,2.924 2.309,2.366 4.607,2.366 "
       id="polygon652"
       style="fill:#9a916c"
       transform="scale(1.3493569)" /></g><g
     id="g682"
     transform="translate(57.6)"><polygon
       points="1.509,0 0,1.511 0,5.445 0,8.785 0,12.717 1.509,14.229 5.442,14.229 6.954,12.717 6.954,8.785 6.954,5.445 6.954,1.511 5.442,0 "
       id="polygon656"
       style="fill:#404040"
       transform="scale(1.3493569)" /><rect
       x="3.1156652"
       y="3.1925783"
       width="3.1021717"
       height="3.1008222"
       id="rect658"
       style="fill:#8d8c8c;stroke-width:1.34935689" /><rect
       x="3.1156652"
       y="12.906598"
       width="3.1021717"
       height="3.1008222"
       id="rect660"
       style="fill:#8d8c8c;stroke-width:1.34935689" /><rect
       x="3.8645582"
       y="13.660889"
       width="1.5989878"
       height="1.5976386"
       id="rect662"
       style="fill:#8c8663;stroke-width:1.34935689" /><polygon
       points="4.048,10.124 4.048,11.305 4.607,11.863 4.607,9.565 "
       id="polygon664"
       style="fill:#b8af82"
       transform="scale(1.3493569)" /><polygon
       points="4.048,11.305 4.607,11.863 2.309,11.863 2.864,11.305 "
       id="polygon666"
       style="fill:#80795b"
       transform="scale(1.3493569)" /><polygon
       points="2.864,11.305 2.309,11.863 2.309,9.565 2.864,10.124 "
       id="polygon668"
       style="fill:#5e5b43"
       transform="scale(1.3493569)" /><polygon
       points="4.048,10.124 2.864,10.124 2.309,9.565 4.607,9.565 "
       id="polygon670"
       style="fill:#9a916c"
       transform="scale(1.3493569)" /><rect
       x="3.8645582"
       y="3.9455197"
       width="1.5989878"
       height="1.5949399"
       id="rect672"
       style="fill:#8c8663;stroke-width:1.34935689" /><polygon
       points="4.048,2.924 4.048,4.105 4.607,4.663 4.607,2.366 "
       id="polygon674"
       style="fill:#b8af82"
       transform="scale(1.3493569)" /><polygon
       points="4.048,4.105 4.607,4.663 2.309,4.663 2.864,4.105 "
       id="polygon676"
       style="fill:#80795b"
       transform="scale(1.3493569)" /><polygon
       points="2.864,4.105 2.309,4.663 2.309,2.366 2.864,2.924 "
       id="polygon678"
       style="fill:#5e5b43"
       transform="scale(1.3493569)" /><polygon
       points="4.048,2.924 2.864,2.924 2.309,2.366 4.607,2.366 "
       id="polygon680"
       style="fill:#9a916c"
       transform="scale(1.3493569)" /></g><g
     transform="translate(67.2)"
     id="g710"><polygon
       transform="scale(1.3493569)"
       style="fill:#404040"
       id="polygon684"
       points="0,1.511 0,5.445 0,8.785 0,12.717 1.509,14.229 5.442,14.229 6.954,12.717 6.954,8.785 6.954,5.445 6.954,1.511 5.442,0 1.509,0 " /><rect
       style="fill:#8d8c8c;stroke-width:1.34935689"
       id="rect686"
       height="3.1008222"
       width="3.1021717"
       y="3.1925783"
       x="3.1156652" /><rect
       style="fill:#8d8c8c;stroke-width:1.34935689"
       id="rect688"
       height="3.1008222"
       width="3.1021717"
       y="12.906598"
       x="3.1156652" /><rect
       style="fill:#8c8663;stroke-width:1.34935689"
       id="rect690"
       height="1.5976386"
       width="1.5989878"
       y="13.660889"
       x="3.8645582" /><polygon
       transform="scale(1.3493569)"
       style="fill:#b8af82"
       id="polygon692"
       points="4.048,11.305 4.607,11.863 4.607,9.565 4.048,10.124 " /><polygon
       transform="scale(1.3493569)"
       style="fill:#80795b"
       id="polygon694"
       points="4.607,11.863 2.309,11.863 2.864,11.305 4.048,11.305 " /><polygon
       transform="scale(1.3493569)"
       style="fill:#5e5b43"
       id="polygon696"
       points="2.309,11.863 2.309,9.565 2.864,10.124 2.864,11.305 " /><polygon
       transform="scale(1.3493569)"
       style="fill:#9a916c"
       id="polygon698"
       points="2.864,10.124 2.309,9.565 4.607,9.565 4.048,10.124 " /><rect
       style="fill:#8c8663;stroke-width:1.34935689"
       id="rect700"
       height="1.5949399"
       width="1.5989878"
       y="3.9455197"
       x="3.8645582" /><polygon
       transform="scale(1.3493569)"
       style="fill:#b8af82"
       id="polygon702"
       points="4.048,4.105 4.607,4.663 4.607,2.366 4.048,2.924 " /><polygon
       transform="scale(1.3493569)"
       style="fill:#80795b"
       id="polygon704"
       points="4.607,4.663 2.309,4.663 2.864,4.105 4.048,4.105 " /><polygon
       transform="scale(1.3493569)"
       style="fill:#5e5b43"
       id="polygon706"
       points="2.309,4.663 2.309,2.366 2.864,2.924 2.864,4.105 " /><polygon
       transform="scale(1.3493569)"
       style="fill:#9a916c"
       id="polygon708"
       points="2.864,2.924 2.309,2.366 4.607,2.366 4.048,2.924 " /></g></g></svg>