<?xml version="1.0" encoding="UTF-8" standalone="no"?>
<!-- Generator: Adobe Illustrator 15.0.1, SVG Export Plug-In . SVG Version: 6.00 Build 0)  -->

<svg
   xmlns:dc="http://purl.org/dc/elements/1.1/"
   xmlns:cc="http://creativecommons.org/ns#"
   xmlns:rdf="http://www.w3.org/1999/02/22-rdf-syntax-ns#"
   xmlns:svg="http://www.w3.org/2000/svg"
   xmlns="http://www.w3.org/2000/svg"
   xmlns:sodipodi="http://sodipodi.sourceforge.net/DTD/sodipodi-0.dtd"
   xmlns:inkscape="http://www.inkscape.org/namespaces/inkscape"
   version="1.1"
   id="svg"
   x="0px"
   y="0px"
   width="1.2in"
   height="0.20008284in"
   viewBox="0 0 108.00001 18.007456"
   xml:space="preserve"
   inkscape:version="0.91 r13725"
   sodipodi:docname="2x12_F.svg"><metadata
     id="metadata89"><rdf:RDF><cc:Work
         rdf:about=""><dc:format>image/svg+xml</dc:format><dc:type
           rdf:resource="http://purl.org/dc/dcmitype/StillImage" /><dc:title></dc:title></cc:Work></rdf:RDF></metadata><defs
     id="defs87" /><sodipodi:namedview
     pagecolor="#ffffff"
     bordercolor="#666666"
     borderopacity="1"
     objecttolerance="10"
     gridtolerance="10"
     guidetolerance="10"
     inkscape:pageopacity="0"
     inkscape:pageshadow="2"
     inkscape:window-width="1925"
     inkscape:window-height="961"
     id="namedview85"
     showgrid="false"
     inkscape:document-units="in"
     units="in"
     fit-margin-top="0"
     fit-margin-left="0"
     fit-margin-right="0"
     fit-margin-bottom="0"
     inkscape:zoom="5.0520835"
     inkscape:cx="5.1429705"
     inkscape:cy="24.614252"
     inkscape:window-x="44"
     inkscape:window-y="174"
     inkscape:window-maximized="0"
     inkscape:current-layer="svg" /><g
     id="g8250"><g
       transform="translate(0,0.00745544)"
       id="g3819"><rect
         x="0"
         y="-0.0074554379"
         width="108"
         height="9.0074558"
         id="rect3"
         style="fill:#404040" /><rect
         x="2.7628839"
         y="2.7616341"
         width="3.476733"
         height="3.4779832"
         id="rect5" /><polygon
         points="6.017,1.184 1.185,1.184 2.208,2.209 4.991,2.209 "
         id="polygon7"
         style="fill:#2a2a29"
         transform="scale(1.2501737,1.2501737)" /><polygon
         points="6.017,6.016 6.017,1.184 4.991,2.212 4.991,4.993 "
         id="polygon9"
         style="fill:#474747"
         transform="scale(1.2501737,1.2501737)" /><polygon
         points="1.185,6.016 6.016,6.016 4.99,4.993 2.208,4.993 "
         id="polygon11"
         style="fill:#595959"
         transform="scale(1.2501737,1.2501737)" /><polygon
         points="1.183,1.184 1.183,6.016 2.208,4.991 2.208,2.209 "
         id="polygon13"
         style="fill:#373737"
         transform="scale(1.2501737,1.2501737)" /><rect
         x="11.764134"
         y="2.7616341"
         width="3.476733"
         height="3.4779832"
         id="rect15" /><polygon
         points="13.217,1.184 8.384,1.184 9.408,2.209 12.192,2.209 "
         id="polygon17"
         style="fill:#2a2a29"
         transform="scale(1.2501737,1.2501737)" /><polygon
         points="13.217,6.016 13.217,1.184 12.192,2.212 12.192,4.993 "
         id="polygon19"
         style="fill:#474747"
         transform="scale(1.2501737,1.2501737)" /><polygon
         points="8.384,6.016 13.215,6.016 12.191,4.993 9.408,4.993 "
         id="polygon21"
         style="fill:#595959"
         transform="scale(1.2501737,1.2501737)" /><polygon
         points="8.382,1.184 8.382,6.016 9.408,4.991 9.408,2.209 "
         id="polygon23"
         style="fill:#373737"
         transform="scale(1.2501737,1.2501737)" /><rect
         x="20.766636"
         y="2.7616341"
         width="3.476733"
         height="3.4779832"
         id="rect25" /><polygon
         points="20.416,1.184 15.584,1.184 16.609,2.209 19.392,2.209 "
         id="polygon27"
         style="fill:#2a2a29"
         transform="scale(1.2501737,1.2501737)" /><polygon
         points="20.416,6.016 20.416,1.184 19.392,2.212 19.392,4.993 "
         id="polygon29"
         style="fill:#474747"
         transform="scale(1.2501737,1.2501737)" /><polygon
         points="15.584,6.016 20.415,6.016 19.391,4.993 16.609,4.993 "
         id="polygon31"
         style="fill:#595959"
         transform="scale(1.2501737,1.2501737)" /><polygon
         points="15.582,1.184 15.582,6.016 16.609,4.991 16.609,2.209 "
         id="polygon33"
         style="fill:#373737"
         transform="scale(1.2501737,1.2501737)" /><rect
         x="29.767887"
         y="2.7616341"
         width="3.476733"
         height="3.4779832"
         id="rect35" /><polygon
         points="27.616,1.184 22.784,1.184 23.809,2.209 26.592,2.209 "
         id="polygon37"
         style="fill:#2a2a29"
         transform="scale(1.2501737,1.2501737)" /><polygon
         points="27.616,6.016 27.616,1.184 26.592,2.212 26.592,4.993 "
         id="polygon39"
         style="fill:#474747"
         transform="scale(1.2501737,1.2501737)" /><polygon
         points="22.784,6.016 27.615,6.016 26.59,4.993 23.809,4.993 "
         id="polygon41"
         style="fill:#595959"
         transform="scale(1.2501737,1.2501737)" /><polygon
         points="22.782,1.184 22.782,6.016 23.809,4.991 23.809,2.209 "
         id="polygon43"
         style="fill:#373737"
         transform="scale(1.2501737,1.2501737)" /><rect
         x="38.767887"
         y="2.7616341"
         width="3.476733"
         height="3.4779832"
         id="rect45" /><polygon
         points="34.817,1.184 29.985,1.184 31.008,2.209 33.791,2.209 "
         id="polygon47"
         style="fill:#2a2a29"
         transform="scale(1.2501737,1.2501737)" /><polygon
         points="34.817,6.016 34.817,1.184 33.791,2.212 33.791,4.993 "
         id="polygon49"
         style="fill:#474747"
         transform="scale(1.2501737,1.2501737)" /><polygon
         points="29.985,6.016 34.816,6.016 33.79,4.993 31.008,4.993 "
         id="polygon51"
         style="fill:#595959"
         transform="scale(1.2501737,1.2501737)" /><polygon
         points="29.983,1.184 29.983,6.016 31.008,4.991 31.008,2.209 "
         id="polygon53"
         style="fill:#373737"
         transform="scale(1.2501737,1.2501737)" /><rect
         x="47.769135"
         y="2.7616341"
         width="3.476733"
         height="3.4779832"
         id="rect55" /><polygon
         points="42.017,1.184 37.185,1.184 38.208,2.209 40.991,2.209 "
         id="polygon57"
         style="fill:#2a2a29"
         transform="scale(1.2501737,1.2501737)" /><polygon
         points="42.017,6.016 42.017,1.184 40.991,2.212 40.991,4.993 "
         id="polygon59"
         style="fill:#474747"
         transform="scale(1.2501737,1.2501737)" /><polygon
         points="37.185,6.016 42.016,6.016 40.99,4.993 38.208,4.993 "
         id="polygon61"
         style="fill:#595959"
         transform="scale(1.2501737,1.2501737)" /><polygon
         points="37.183,1.184 37.183,6.016 38.208,4.991 38.208,2.209 "
         id="polygon63"
         style="fill:#373737"
         transform="scale(1.2501737,1.2501737)" /><rect
         x="56.770386"
         y="2.7616341"
         width="3.476733"
         height="3.4779832"
         id="rect65" /><polygon
         points="49.217,1.184 44.384,1.184 45.408,2.209 48.192,2.209 "
         id="polygon67"
         style="fill:#2a2a29"
         transform="scale(1.2501737,1.2501737)" /><polygon
         points="49.217,6.016 49.217,1.184 48.192,2.212 48.192,4.993 "
         id="polygon69"
         style="fill:#474747"
         transform="scale(1.2501737,1.2501737)" /><polygon
         points="44.384,6.016 49.215,6.016 48.191,4.993 45.408,4.993 "
         id="polygon71"
         style="fill:#595959"
         transform="scale(1.2501737,1.2501737)" /><polygon
         points="44.382,1.184 44.382,6.016 45.408,4.991 45.408,2.209 "
         id="polygon73"
         style="fill:#373737"
         transform="scale(1.2501737,1.2501737)" /><rect
         x="65.772888"
         y="2.7616341"
         width="3.476733"
         height="3.4779832"
         id="rect75" /><polygon
         points="56.416,1.184 51.584,1.184 52.609,2.209 55.392,2.209 "
         id="polygon77"
         style="fill:#2a2a29"
         transform="scale(1.2501737,1.2501737)" /><polygon
         points="56.416,6.016 56.416,1.184 55.392,2.212 55.392,4.993 "
         id="polygon79"
         style="fill:#474747"
         transform="scale(1.2501737,1.2501737)" /><polygon
         points="51.584,6.016 56.415,6.016 55.391,4.993 52.609,4.993 "
         id="polygon81"
         style="fill:#595959"
         transform="scale(1.2501737,1.2501737)" /><polygon
         points="51.582,1.184 51.582,6.016 52.609,4.991 52.609,2.209 "
         id="polygon83"
         style="fill:#373737"
         transform="scale(1.2501737,1.2501737)" /><rect
         id="rect3501"
         height="3.4779832"
         width="3.476733"
         y="2.7616341"
         x="74.72393" /><polygon
         transform="matrix(1.2501737,0,0,1.2501737,35.956042,0)"
         style="fill:#2a2a29"
         id="polygon3503"
         points="29.985,1.184 31.008,2.209 33.791,2.209 34.817,1.184 " /><polygon
         transform="matrix(1.2501737,0,0,1.2501737,35.956042,0)"
         style="fill:#474747"
         id="polygon3505"
         points="34.817,1.184 33.791,2.212 33.791,4.993 34.817,6.016 " /><polygon
         transform="matrix(1.2501737,0,0,1.2501737,35.956042,0)"
         style="fill:#595959"
         id="polygon3507"
         points="34.816,6.016 33.79,4.993 31.008,4.993 29.985,6.016 " /><polygon
         transform="matrix(1.2501737,0,0,1.2501737,35.956042,0)"
         style="fill:#373737"
         id="polygon3509"
         points="29.983,6.016 31.008,4.991 31.008,2.209 29.983,1.184 " /><rect
         id="rect3511"
         height="3.4779832"
         width="3.476733"
         y="2.7616341"
         x="83.725174" /><polygon
         transform="matrix(1.2501737,0,0,1.2501737,35.956042,0)"
         style="fill:#2a2a29"
         id="polygon3513"
         points="37.185,1.184 38.208,2.209 40.991,2.209 42.017,1.184 " /><polygon
         transform="matrix(1.2501737,0,0,1.2501737,35.956042,0)"
         style="fill:#474747"
         id="polygon3515"
         points="42.017,1.184 40.991,2.212 40.991,4.993 42.017,6.016 " /><polygon
         transform="matrix(1.2501737,0,0,1.2501737,35.956042,0)"
         style="fill:#595959"
         id="polygon3517"
         points="42.016,6.016 40.99,4.993 38.208,4.993 37.185,6.016 " /><polygon
         transform="matrix(1.2501737,0,0,1.2501737,35.956042,0)"
         style="fill:#373737"
         id="polygon3519"
         points="37.183,6.016 38.208,4.991 38.208,2.209 37.183,1.184 " /><rect
         id="rect3521"
         height="3.4779832"
         width="3.476733"
         y="2.7616341"
         x="92.726425" /><polygon
         transform="matrix(1.2501737,0,0,1.2501737,35.956042,0)"
         style="fill:#2a2a29"
         id="polygon3523"
         points="44.384,1.184 45.408,2.209 48.192,2.209 49.217,1.184 " /><polygon
         transform="matrix(1.2501737,0,0,1.2501737,35.956042,0)"
         style="fill:#474747"
         id="polygon3525"
         points="49.217,1.184 48.192,2.212 48.192,4.993 49.217,6.016 " /><polygon
         transform="matrix(1.2501737,0,0,1.2501737,35.956042,0)"
         style="fill:#595959"
         id="polygon3527"
         points="49.215,6.016 48.191,4.993 45.408,4.993 44.384,6.016 " /><polygon
         transform="matrix(1.2501737,0,0,1.2501737,35.956042,0)"
         style="fill:#373737"
         id="polygon3529"
         points="44.382,6.016 45.408,4.991 45.408,2.209 44.382,1.184 " /><rect
         id="rect3531"
         height="3.4779832"
         width="3.476733"
         y="2.7616341"
         x="101.72893" /><polygon
         transform="matrix(1.2501737,0,0,1.2501737,35.956042,0)"
         style="fill:#2a2a29"
         id="polygon3533"
         points="51.584,1.184 52.609,2.209 55.392,2.209 56.416,1.184 " /><polygon
         transform="matrix(1.2501737,0,0,1.2501737,35.956042,0)"
         style="fill:#474747"
         id="polygon3535"
         points="56.416,1.184 55.392,2.212 55.392,4.993 56.416,6.016 " /><polygon
         transform="matrix(1.2501737,0,0,1.2501737,35.956042,0)"
         style="fill:#595959"
         id="polygon3537"
         points="56.415,6.016 55.391,4.993 52.609,4.993 51.584,6.016 " /><polygon
         transform="matrix(1.2501737,0,0,1.2501737,35.956042,0)"
         style="fill:#373737"
         id="polygon3539"
         points="51.582,6.016 52.609,4.991 52.609,2.209 51.582,1.184 " /></g><g
       transform="matrix(1,0,0,0.99917226,0,9.0149048)"
       id="g8126"><rect
         style="fill:#404040"
         id="rect8128"
         height="9.0074558"
         width="108"
         y="-0.0074554379"
         x="0" /><rect
         id="rect8130"
         height="3.4779832"
         width="3.476733"
         y="2.7616341"
         x="2.7628839" /><polygon
         transform="scale(1.2501737,1.2501737)"
         style="fill:#2a2a29"
         id="polygon8132"
         points="1.185,1.184 2.208,2.209 4.991,2.209 6.017,1.184 " /><polygon
         transform="scale(1.2501737,1.2501737)"
         style="fill:#474747"
         id="polygon8134"
         points="6.017,1.184 4.991,2.212 4.991,4.993 6.017,6.016 " /><polygon
         transform="scale(1.2501737,1.2501737)"
         style="fill:#595959"
         id="polygon8136"
         points="6.016,6.016 4.99,4.993 2.208,4.993 1.185,6.016 " /><polygon
         transform="scale(1.2501737,1.2501737)"
         style="fill:#373737"
         id="polygon8138"
         points="1.183,6.016 2.208,4.991 2.208,2.209 1.183,1.184 " /><rect
         id="rect8140"
         height="3.4779832"
         width="3.476733"
         y="2.7616341"
         x="11.764134" /><polygon
         transform="scale(1.2501737,1.2501737)"
         style="fill:#2a2a29"
         id="polygon8142"
         points="8.384,1.184 9.408,2.209 12.192,2.209 13.217,1.184 " /><polygon
         transform="scale(1.2501737,1.2501737)"
         style="fill:#474747"
         id="polygon8144"
         points="13.217,1.184 12.192,2.212 12.192,4.993 13.217,6.016 " /><polygon
         transform="scale(1.2501737,1.2501737)"
         style="fill:#595959"
         id="polygon8146"
         points="13.215,6.016 12.191,4.993 9.408,4.993 8.384,6.016 " /><polygon
         transform="scale(1.2501737,1.2501737)"
         style="fill:#373737"
         id="polygon8148"
         points="8.382,6.016 9.408,4.991 9.408,2.209 8.382,1.184 " /><rect
         id="rect8150"
         height="3.4779832"
         width="3.476733"
         y="2.7616341"
         x="20.766636" /><polygon
         transform="scale(1.2501737,1.2501737)"
         style="fill:#2a2a29"
         id="polygon8152"
         points="15.584,1.184 16.609,2.209 19.392,2.209 20.416,1.184 " /><polygon
         transform="scale(1.2501737,1.2501737)"
         style="fill:#474747"
         id="polygon8154"
         points="20.416,1.184 19.392,2.212 19.392,4.993 20.416,6.016 " /><polygon
         transform="scale(1.2501737,1.2501737)"
         style="fill:#595959"
         id="polygon8156"
         points="20.415,6.016 19.391,4.993 16.609,4.993 15.584,6.016 " /><polygon
         transform="scale(1.2501737,1.2501737)"
         style="fill:#373737"
         id="polygon8158"
         points="15.582,6.016 16.609,4.991 16.609,2.209 15.582,1.184 " /><rect
         id="rect8160"
         height="3.4779832"
         width="3.476733"
         y="2.7616341"
         x="29.767887" /><polygon
         transform="scale(1.2501737,1.2501737)"
         style="fill:#2a2a29"
         id="polygon8162"
         points="22.784,1.184 23.809,2.209 26.592,2.209 27.616,1.184 " /><polygon
         transform="scale(1.2501737,1.2501737)"
         style="fill:#474747"
         id="polygon8164"
         points="27.616,1.184 26.592,2.212 26.592,4.993 27.616,6.016 " /><polygon
         transform="scale(1.2501737,1.2501737)"
         style="fill:#595959"
         id="polygon8166"
         points="27.615,6.016 26.59,4.993 23.809,4.993 22.784,6.016 " /><polygon
         transform="scale(1.2501737,1.2501737)"
         style="fill:#373737"
         id="polygon8168"
         points="22.782,6.016 23.809,4.991 23.809,2.209 22.782,1.184 " /><rect
         id="rect8170"
         height="3.4779832"
         width="3.476733"
         y="2.7616341"
         x="38.767887" /><polygon
         transform="scale(1.2501737,1.2501737)"
         style="fill:#2a2a29"
         id="polygon8172"
         points="29.985,1.184 31.008,2.209 33.791,2.209 34.817,1.184 " /><polygon
         transform="scale(1.2501737,1.2501737)"
         style="fill:#474747"
         id="polygon8174"
         points="34.817,1.184 33.791,2.212 33.791,4.993 34.817,6.016 " /><polygon
         transform="scale(1.2501737,1.2501737)"
         style="fill:#595959"
         id="polygon8176"
         points="34.816,6.016 33.79,4.993 31.008,4.993 29.985,6.016 " /><polygon
         transform="scale(1.2501737,1.2501737)"
         style="fill:#373737"
         id="polygon8178"
         points="29.983,6.016 31.008,4.991 31.008,2.209 29.983,1.184 " /><rect
         id="rect8180"
         height="3.4779832"
         width="3.476733"
         y="2.7616341"
         x="47.769135" /><polygon
         transform="scale(1.2501737,1.2501737)"
         style="fill:#2a2a29"
         id="polygon8182"
         points="37.185,1.184 38.208,2.209 40.991,2.209 42.017,1.184 " /><polygon
         transform="scale(1.2501737,1.2501737)"
         style="fill:#474747"
         id="polygon8184"
         points="42.017,1.184 40.991,2.212 40.991,4.993 42.017,6.016 " /><polygon
         transform="scale(1.2501737,1.2501737)"
         style="fill:#595959"
         id="polygon8186"
         points="42.016,6.016 40.99,4.993 38.208,4.993 37.185,6.016 " /><polygon
         transform="scale(1.2501737,1.2501737)"
         style="fill:#373737"
         id="polygon8188"
         points="37.183,6.016 38.208,4.991 38.208,2.209 37.183,1.184 " /><rect
         id="rect8190"
         height="3.4779832"
         width="3.476733"
         y="2.7616341"
         x="56.770386" /><polygon
         transform="scale(1.2501737,1.2501737)"
         style="fill:#2a2a29"
         id="polygon8192"
         points="44.384,1.184 45.408,2.209 48.192,2.209 49.217,1.184 " /><polygon
         transform="scale(1.2501737,1.2501737)"
         style="fill:#474747"
         id="polygon8194"
         points="49.217,1.184 48.192,2.212 48.192,4.993 49.217,6.016 " /><polygon
         transform="scale(1.2501737,1.2501737)"
         style="fill:#595959"
         id="polygon8196"
         points="49.215,6.016 48.191,4.993 45.408,4.993 44.384,6.016 " /><polygon
         transform="scale(1.2501737,1.2501737)"
         style="fill:#373737"
         id="polygon8198"
         points="44.382,6.016 45.408,4.991 45.408,2.209 44.382,1.184 " /><rect
         id="rect8200"
         height="3.4779832"
         width="3.476733"
         y="2.7616341"
         x="65.772888" /><polygon
         transform="scale(1.2501737,1.2501737)"
         style="fill:#2a2a29"
         id="polygon8202"
         points="51.584,1.184 52.609,2.209 55.392,2.209 56.416,1.184 " /><polygon
         transform="scale(1.2501737,1.2501737)"
         style="fill:#474747"
         id="polygon8204"
         points="56.416,1.184 55.392,2.212 55.392,4.993 56.416,6.016 " /><polygon
         transform="scale(1.2501737,1.2501737)"
         style="fill:#595959"
         id="polygon8206"
         points="56.415,6.016 55.391,4.993 52.609,4.993 51.584,6.016 " /><polygon
         transform="scale(1.2501737,1.2501737)"
         style="fill:#373737"
         id="polygon8208"
         points="51.582,6.016 52.609,4.991 52.609,2.209 51.582,1.184 " /><rect
         x="74.72393"
         y="2.7616341"
         width="3.476733"
         height="3.4779832"
         id="rect8210" /><polygon
         points="31.008,2.209 33.791,2.209 34.817,1.184 29.985,1.184 "
         id="polygon8212"
         style="fill:#2a2a29"
         transform="matrix(1.2501737,0,0,1.2501737,35.956042,0)" /><polygon
         points="33.791,2.212 33.791,4.993 34.817,6.016 34.817,1.184 "
         id="polygon8214"
         style="fill:#474747"
         transform="matrix(1.2501737,0,0,1.2501737,35.956042,0)" /><polygon
         points="33.79,4.993 31.008,4.993 29.985,6.016 34.816,6.016 "
         id="polygon8216"
         style="fill:#595959"
         transform="matrix(1.2501737,0,0,1.2501737,35.956042,0)" /><polygon
         points="31.008,4.991 31.008,2.209 29.983,1.184 29.983,6.016 "
         id="polygon8218"
         style="fill:#373737"
         transform="matrix(1.2501737,0,0,1.2501737,35.956042,0)" /><rect
         x="83.725174"
         y="2.7616341"
         width="3.476733"
         height="3.4779832"
         id="rect8220" /><polygon
         points="38.208,2.209 40.991,2.209 42.017,1.184 37.185,1.184 "
         id="polygon8222"
         style="fill:#2a2a29"
         transform="matrix(1.2501737,0,0,1.2501737,35.956042,0)" /><polygon
         points="40.991,2.212 40.991,4.993 42.017,6.016 42.017,1.184 "
         id="polygon8224"
         style="fill:#474747"
         transform="matrix(1.2501737,0,0,1.2501737,35.956042,0)" /><polygon
         points="40.99,4.993 38.208,4.993 37.185,6.016 42.016,6.016 "
         id="polygon8226"
         style="fill:#595959"
         transform="matrix(1.2501737,0,0,1.2501737,35.956042,0)" /><polygon
         points="38.208,4.991 38.208,2.209 37.183,1.184 37.183,6.016 "
         id="polygon8228"
         style="fill:#373737"
         transform="matrix(1.2501737,0,0,1.2501737,35.956042,0)" /><rect
         x="92.726425"
         y="2.7616341"
         width="3.476733"
         height="3.4779832"
         id="rect8230" /><polygon
         points="45.408,2.209 48.192,2.209 49.217,1.184 44.384,1.184 "
         id="polygon8232"
         style="fill:#2a2a29"
         transform="matrix(1.2501737,0,0,1.2501737,35.956042,0)" /><polygon
         points="48.192,2.212 48.192,4.993 49.217,6.016 49.217,1.184 "
         id="polygon8234"
         style="fill:#474747"
         transform="matrix(1.2501737,0,0,1.2501737,35.956042,0)" /><polygon
         points="48.191,4.993 45.408,4.993 44.384,6.016 49.215,6.016 "
         id="polygon8236"
         style="fill:#595959"
         transform="matrix(1.2501737,0,0,1.2501737,35.956042,0)" /><polygon
         points="45.408,4.991 45.408,2.209 44.382,1.184 44.382,6.016 "
         id="polygon8238"
         style="fill:#373737"
         transform="matrix(1.2501737,0,0,1.2501737,35.956042,0)" /><rect
         x="101.72893"
         y="2.7616341"
         width="3.476733"
         height="3.4779832"
         id="rect8240" /><polygon
         points="52.609,2.209 55.392,2.209 56.416,1.184 51.584,1.184 "
         id="polygon8242"
         style="fill:#2a2a29"
         transform="matrix(1.2501737,0,0,1.2501737,35.956042,0)" /><polygon
         points="55.392,2.212 55.392,4.993 56.416,6.016 56.416,1.184 "
         id="polygon8244"
         style="fill:#474747"
         transform="matrix(1.2501737,0,0,1.2501737,35.956042,0)" /><polygon
         points="55.391,4.993 52.609,4.993 51.584,6.016 56.415,6.016 "
         id="polygon8246"
         style="fill:#595959"
         transform="matrix(1.2501737,0,0,1.2501737,35.956042,0)" /><polygon
         points="52.609,4.991 52.609,2.209 51.582,1.184 51.582,6.016 "
         id="polygon8248"
         style="fill:#373737"
         transform="matrix(1.2501737,0,0,1.2501737,35.956042,0)" /></g></g></svg>