<?xml version="1.0" encoding="utf-8"?>
<!-- Generator: Adobe Illustrator 24.2.1, SVG Export Plug-In . SVG Version: 6.00 Build 0)  -->
<svg version="1.2" baseProfile="tiny" id="Layer_1" xmlns="http://www.w3.org/2000/svg" xmlns:xlink="http://www.w3.org/1999/xlink"
	 x="0px" y="0px" width="129.6px" height="14.399px" viewBox="0 0 129.6 14.399" overflow="visible" xml:space="preserve">
<g>
	<rect fill="#404040" width="129.6" height="14.399"/>
	<rect x="2.21" y="9.409" width="2.781" height="2.782"/>
	<polygon fill="#2A2A29" points="1.185,8.384 2.208,9.409 4.992,9.409 6.016,8.384 	"/>
	<polygon fill="#474747" points="6.016,8.384 4.992,9.412 4.992,12.193 6.016,13.216 	"/>
	<polygon fill="#595959" points="6.016,13.216 4.991,12.193 2.208,12.193 1.185,13.216 	"/>
	<polygon fill="#373737" points="1.183,13.216 2.208,12.191 2.208,9.409 1.183,8.384 	"/>
	<rect x="9.41" y="9.409" width="2.781" height="2.782"/>
	<polygon fill="#2A2A29" points="8.385,8.384 9.408,9.409 12.192,9.409 13.216,8.384 	"/>
	<polygon fill="#474747" points="13.216,8.384 12.192,9.412 12.192,12.193 13.216,13.216 	"/>
	<polygon fill="#595959" points="13.216,13.216 12.191,12.193 9.408,12.193 8.385,13.216 	"/>
	<polygon fill="#373737" points="8.383,13.216 9.408,12.191 9.408,9.409 8.383,8.384 	"/>
	<rect x="16.61" y="9.409" width="2.781" height="2.782"/>
	<polygon fill="#2A2A29" points="15.585,8.384 16.608,9.409 19.392,9.409 20.416,8.384 	"/>
	<polygon fill="#474747" points="20.416,8.384 19.392,9.412 19.392,12.193 20.416,13.216 	"/>
	<polygon fill="#595959" points="20.416,13.216 19.391,12.193 16.608,12.193 15.585,13.216 	"/>
	<polygon fill="#373737" points="15.583,13.216 16.608,12.191 16.608,9.409 15.583,8.384 	"/>
	<rect x="23.81" y="9.409" width="2.781" height="2.782"/>
	<polygon fill="#2A2A29" points="22.785,8.384 23.808,9.409 26.592,9.409 27.616,8.384 	"/>
	<polygon fill="#474747" points="27.616,8.384 26.592,9.412 26.592,12.193 27.616,13.216 	"/>
	<polygon fill="#595959" points="27.616,13.216 26.591,12.193 23.808,12.193 22.785,13.216 	"/>
	<polygon fill="#373737" points="22.783,13.216 23.808,12.191 23.808,9.409 22.783,8.384 	"/>
	<rect x="31.01" y="9.409" width="2.781" height="2.782"/>
	<polygon fill="#2A2A29" points="29.985,8.384 31.008,9.409 33.792,9.409 34.816,8.384 	"/>
	<polygon fill="#474747" points="34.816,8.384 33.792,9.412 33.792,12.193 34.816,13.216 	"/>
	<polygon fill="#595959" points="34.816,13.216 33.791,12.193 31.008,12.193 29.985,13.216 	"/>
	<polygon fill="#373737" points="29.983,13.216 31.008,12.191 31.008,9.409 29.983,8.384 	"/>
	<rect x="38.21" y="9.409" width="2.781" height="2.782"/>
	<polygon fill="#2A2A29" points="37.185,8.384 38.208,9.409 40.992,9.409 42.016,8.384 	"/>
	<polygon fill="#474747" points="42.016,8.384 40.992,9.412 40.992,12.193 42.016,13.216 	"/>
	<polygon fill="#595959" points="42.016,13.216 40.991,12.193 38.208,12.193 37.185,13.216 	"/>
	<polygon fill="#373737" points="37.183,13.216 38.208,12.191 38.208,9.409 37.183,8.384 	"/>
	<rect x="45.41" y="9.409" width="2.781" height="2.782"/>
	<polygon fill="#2A2A29" points="44.385,8.384 45.408,9.409 48.192,9.409 49.216,8.384 	"/>
	<polygon fill="#474747" points="49.216,8.384 48.192,9.412 48.192,12.193 49.216,13.216 	"/>
	<polygon fill="#595959" points="49.216,13.216 48.191,12.193 45.408,12.193 44.385,13.216 	"/>
	<polygon fill="#373737" points="44.383,13.216 45.408,12.191 45.408,9.409 44.383,8.384 	"/>
	<rect x="52.61" y="9.409" width="2.781" height="2.782"/>
	<polygon fill="#2A2A29" points="51.585,8.384 52.608,9.409 55.392,9.409 56.416,8.384 	"/>
	<polygon fill="#474747" points="56.416,8.384 55.392,9.412 55.392,12.193 56.416,13.216 	"/>
	<polygon fill="#595959" points="56.416,13.216 55.391,12.193 52.608,12.193 51.585,13.216 	"/>
	<polygon fill="#373737" points="51.583,13.216 52.608,12.191 52.608,9.409 51.583,8.384 	"/>
	<rect x="2.21" y="2.209" width="2.781" height="2.782"/>
	<polygon fill="#2A2A29" points="1.185,1.184 2.208,2.209 4.992,2.209 6.016,1.184 	"/>
	<polygon fill="#474747" points="6.016,1.184 4.992,2.212 4.992,4.993 6.016,6.016 	"/>
	<polygon fill="#595959" points="6.016,6.016 4.991,4.993 2.208,4.993 1.185,6.016 	"/>
	<polygon fill="#373737" points="1.183,6.016 2.208,4.991 2.208,2.209 1.183,1.184 	"/>
	<rect x="9.41" y="2.209" width="2.781" height="2.782"/>
	<polygon fill="#2A2A29" points="8.385,1.184 9.408,2.209 12.192,2.209 13.216,1.184 	"/>
	<polygon fill="#474747" points="13.216,1.184 12.192,2.212 12.192,4.993 13.216,6.016 	"/>
	<polygon fill="#595959" points="13.216,6.016 12.191,4.993 9.408,4.993 8.385,6.016 	"/>
	<polygon fill="#373737" points="8.383,6.016 9.408,4.991 9.408,2.209 8.383,1.184 	"/>
	<rect x="16.61" y="2.209" width="2.781" height="2.782"/>
	<polygon fill="#2A2A29" points="15.585,1.184 16.608,2.209 19.392,2.209 20.416,1.184 	"/>
	<polygon fill="#474747" points="20.416,1.184 19.392,2.212 19.392,4.993 20.416,6.016 	"/>
	<polygon fill="#595959" points="20.416,6.016 19.391,4.993 16.608,4.993 15.585,6.016 	"/>
	<polygon fill="#373737" points="15.583,6.016 16.608,4.991 16.608,2.209 15.583,1.184 	"/>
	<rect x="23.81" y="2.209" width="2.781" height="2.782"/>
	<polygon fill="#2A2A29" points="22.785,1.184 23.808,2.209 26.592,2.209 27.616,1.184 	"/>
	<polygon fill="#474747" points="27.616,1.184 26.592,2.212 26.592,4.993 27.616,6.016 	"/>
	<polygon fill="#595959" points="27.616,6.016 26.591,4.993 23.808,4.993 22.785,6.016 	"/>
	<polygon fill="#373737" points="22.783,6.016 23.808,4.991 23.808,2.209 22.783,1.184 	"/>
	<rect x="31.01" y="2.209" width="2.781" height="2.782"/>
	<polygon fill="#2A2A29" points="29.985,1.184 31.008,2.209 33.792,2.209 34.816,1.184 	"/>
	<polygon fill="#474747" points="34.816,1.184 33.792,2.212 33.792,4.993 34.816,6.016 	"/>
	<polygon fill="#595959" points="34.816,6.016 33.791,4.993 31.008,4.993 29.985,6.016 	"/>
	<polygon fill="#373737" points="29.983,6.016 31.008,4.991 31.008,2.209 29.983,1.184 	"/>
	<rect x="38.21" y="2.209" width="2.781" height="2.782"/>
	<polygon fill="#2A2A29" points="37.185,1.184 38.208,2.209 40.992,2.209 42.016,1.184 	"/>
	<polygon fill="#474747" points="42.016,1.184 40.992,2.212 40.992,4.993 42.016,6.016 	"/>
	<polygon fill="#595959" points="42.016,6.016 40.991,4.993 38.208,4.993 37.185,6.016 	"/>
	<polygon fill="#373737" points="37.183,6.016 38.208,4.991 38.208,2.209 37.183,1.184 	"/>
	<rect x="45.41" y="2.209" width="2.781" height="2.782"/>
	<polygon fill="#2A2A29" points="44.385,1.184 45.408,2.209 48.192,2.209 49.216,1.184 	"/>
	<polygon fill="#474747" points="49.216,1.184 48.192,2.212 48.192,4.993 49.216,6.016 	"/>
	<polygon fill="#595959" points="49.216,6.016 48.191,4.993 45.408,4.993 44.385,6.016 	"/>
	<polygon fill="#373737" points="44.383,6.016 45.408,4.991 45.408,2.209 44.383,1.184 	"/>
	<rect x="52.61" y="2.209" width="2.781" height="2.782"/>
	<polygon fill="#2A2A29" points="51.585,1.184 52.608,2.209 55.392,2.209 56.416,1.184 	"/>
	<polygon fill="#474747" points="56.416,1.184 55.392,2.212 55.392,4.993 56.416,6.016 	"/>
	<polygon fill="#595959" points="56.416,6.016 55.391,4.993 52.608,4.993 51.585,6.016 	"/>
	<polygon fill="#373737" points="51.583,6.016 52.608,4.991 52.608,2.209 51.583,1.184 	"/>
	<rect x="59.81" y="9.409" width="2.781" height="2.782"/>
	<polygon fill="#2A2A29" points="58.785,8.384 59.808,9.409 62.592,9.409 63.616,8.384 	"/>
	<polygon fill="#474747" points="63.616,8.384 62.592,9.412 62.592,12.193 63.616,13.216 	"/>
	<polygon fill="#595959" points="63.616,13.216 62.591,12.193 59.808,12.193 58.785,13.216 	"/>
	<polygon fill="#373737" points="58.783,13.216 59.808,12.191 59.808,9.409 58.783,8.384 	"/>
	<rect x="59.81" y="2.209" width="2.781" height="2.782"/>
	<polygon fill="#2A2A29" points="58.785,1.184 59.808,2.209 62.592,2.209 63.616,1.184 	"/>
	<polygon fill="#474747" points="63.616,1.184 62.592,2.212 62.592,4.993 63.616,6.016 	"/>
	<polygon fill="#595959" points="63.616,6.016 62.591,4.993 59.808,4.993 58.785,6.016 	"/>
	<polygon fill="#373737" points="58.783,6.016 59.808,4.991 59.808,2.209 58.783,1.184 	"/>
	<rect x="67.01" y="9.409" width="2.781" height="2.782"/>
	<polygon fill="#2A2A29" points="65.985,8.384 67.008,9.409 69.792,9.409 70.816,8.384 	"/>
	<polygon fill="#474747" points="70.816,8.384 69.792,9.412 69.792,12.193 70.816,13.216 	"/>
	<polygon fill="#595959" points="70.816,13.216 69.791,12.193 67.008,12.193 65.985,13.216 	"/>
	<polygon fill="#373737" points="65.983,13.216 67.008,12.191 67.008,9.409 65.983,8.384 	"/>
	<rect x="67.01" y="2.209" width="2.781" height="2.782"/>
	<polygon fill="#2A2A29" points="65.985,1.184 67.008,2.209 69.792,2.209 70.816,1.184 	"/>
	<polygon fill="#474747" points="70.816,1.184 69.792,2.212 69.792,4.993 70.816,6.016 	"/>
	<polygon fill="#595959" points="70.816,6.016 69.791,4.993 67.008,4.993 65.985,6.016 	"/>
	<polygon fill="#373737" points="65.983,6.016 67.008,4.991 67.008,2.209 65.983,1.184 	"/>
	<rect x="74.21" y="9.409" width="2.781" height="2.782"/>
	<polygon fill="#2A2A29" points="73.185,8.384 74.208,9.409 76.992,9.409 78.016,8.384 	"/>
	<polygon fill="#474747" points="78.016,8.384 76.992,9.412 76.992,12.193 78.016,13.216 	"/>
	<polygon fill="#595959" points="78.016,13.216 76.991,12.193 74.208,12.193 73.185,13.216 	"/>
	<polygon fill="#373737" points="73.183,13.216 74.208,12.191 74.208,9.409 73.183,8.384 	"/>
	<rect x="74.21" y="2.209" width="2.781" height="2.782"/>
	<polygon fill="#2A2A29" points="73.185,1.184 74.208,2.209 76.992,2.209 78.016,1.184 	"/>
	<polygon fill="#474747" points="78.016,1.184 76.992,2.212 76.992,4.993 78.016,6.016 	"/>
	<polygon fill="#595959" points="78.016,6.016 76.991,4.993 74.208,4.993 73.185,6.016 	"/>
	<polygon fill="#373737" points="73.183,6.016 74.208,4.991 74.208,2.209 73.183,1.184 	"/>
	<rect x="81.41" y="9.409" width="2.781" height="2.782"/>
	<polygon fill="#2A2A29" points="80.385,8.384 81.408,9.409 84.192,9.409 85.216,8.384 	"/>
	<polygon fill="#474747" points="85.216,8.384 84.192,9.412 84.192,12.193 85.216,13.216 	"/>
	<polygon fill="#595959" points="85.216,13.216 84.191,12.193 81.408,12.193 80.385,13.216 	"/>
	<polygon fill="#373737" points="80.383,13.216 81.408,12.191 81.408,9.409 80.383,8.384 	"/>
	<rect x="81.41" y="2.209" width="2.781" height="2.782"/>
	<polygon fill="#2A2A29" points="80.385,1.184 81.408,2.209 84.192,2.209 85.216,1.184 	"/>
	<polygon fill="#474747" points="85.216,1.184 84.192,2.212 84.192,4.993 85.216,6.016 	"/>
	<polygon fill="#595959" points="85.216,6.016 84.191,4.993 81.408,4.993 80.385,6.016 	"/>
	<polygon fill="#373737" points="80.383,6.016 81.408,4.991 81.408,2.209 80.383,1.184 	"/>
	<rect x="88.61" y="9.409" width="2.781" height="2.782"/>
	<polygon fill="#2A2A29" points="87.585,8.384 88.608,9.409 91.392,9.409 92.416,8.384 	"/>
	<polygon fill="#474747" points="92.416,8.384 91.392,9.412 91.392,12.193 92.416,13.216 	"/>
	<polygon fill="#595959" points="92.416,13.216 91.391,12.193 88.608,12.193 87.585,13.216 	"/>
	<polygon fill="#373737" points="87.583,13.216 88.608,12.191 88.608,9.409 87.583,8.384 	"/>
	<rect x="88.61" y="2.209" width="2.781" height="2.782"/>
	<polygon fill="#2A2A29" points="87.585,1.184 88.608,2.209 91.392,2.209 92.416,1.184 	"/>
	<polygon fill="#474747" points="92.416,1.184 91.392,2.212 91.392,4.993 92.416,6.016 	"/>
	<polygon fill="#595959" points="92.416,6.016 91.391,4.993 88.608,4.993 87.585,6.016 	"/>
	<polygon fill="#373737" points="87.583,6.016 88.608,4.991 88.608,2.209 87.583,1.184 	"/>
	<rect x="95.81" y="9.409" width="2.781" height="2.782"/>
	<polygon fill="#2A2A29" points="94.785,8.384 95.808,9.409 98.592,9.409 99.616,8.384 	"/>
	<polygon fill="#474747" points="99.616,8.384 98.592,9.412 98.592,12.193 99.616,13.216 	"/>
	<polygon fill="#595959" points="99.616,13.216 98.591,12.193 95.808,12.193 94.785,13.216 	"/>
	<polygon fill="#373737" points="94.783,13.216 95.808,12.191 95.808,9.409 94.783,8.384 	"/>
	<rect x="95.81" y="2.209" width="2.781" height="2.782"/>
	<polygon fill="#2A2A29" points="94.785,1.184 95.808,2.209 98.592,2.209 99.616,1.184 	"/>
	<polygon fill="#474747" points="99.616,1.184 98.592,2.212 98.592,4.993 99.616,6.016 	"/>
	<polygon fill="#595959" points="99.616,6.016 98.591,4.993 95.808,4.993 94.785,6.016 	"/>
	<polygon fill="#373737" points="94.783,6.016 95.808,4.991 95.808,2.209 94.783,1.184 	"/>
	<rect x="103.01" y="9.409" width="2.781" height="2.782"/>
	<polygon fill="#2A2A29" points="101.985,8.384 103.008,9.409 105.792,9.409 106.816,8.384 	"/>
	<polygon fill="#474747" points="106.816,8.384 105.792,9.412 105.792,12.193 106.816,13.216 	"/>
	<polygon fill="#595959" points="106.816,13.216 105.791,12.193 103.008,12.193 101.985,13.216 	"/>
	<polygon fill="#373737" points="101.983,13.216 103.008,12.191 103.008,9.409 101.983,8.384 	"/>
	<rect x="103.01" y="2.209" width="2.781" height="2.782"/>
	<polygon fill="#2A2A29" points="101.985,1.184 103.008,2.209 105.792,2.209 106.816,1.184 	"/>
	<polygon fill="#474747" points="106.816,1.184 105.792,2.212 105.792,4.993 106.816,6.016 	"/>
	<polygon fill="#595959" points="106.816,6.016 105.791,4.993 103.008,4.993 101.985,6.016 	"/>
	<polygon fill="#373737" points="101.983,6.016 103.008,4.991 103.008,2.209 101.983,1.184 	"/>
	<rect x="110.21" y="9.409" width="2.781" height="2.782"/>
	<polygon fill="#2A2A29" points="109.185,8.384 110.208,9.409 112.992,9.409 114.016,8.384 	"/>
	<polygon fill="#474747" points="114.016,8.384 112.992,9.412 112.992,12.193 114.016,13.216 	"/>
	<polygon fill="#595959" points="114.016,13.216 112.991,12.193 110.208,12.193 109.185,13.216 	"/>
	<polygon fill="#373737" points="109.183,13.216 110.208,12.191 110.208,9.409 109.183,8.384 	"/>
	<rect x="110.21" y="2.209" width="2.781" height="2.782"/>
	<polygon fill="#2A2A29" points="109.185,1.184 110.208,2.209 112.992,2.209 114.016,1.184 	"/>
	<polygon fill="#474747" points="114.016,1.184 112.992,2.212 112.992,4.993 114.016,6.016 	"/>
	<polygon fill="#595959" points="114.016,6.016 112.991,4.993 110.208,4.993 109.185,6.016 	"/>
	<polygon fill="#373737" points="109.183,6.016 110.208,4.991 110.208,2.209 109.183,1.184 	"/>
	<rect x="117.41" y="9.409" width="2.781" height="2.782"/>
	<polygon fill="#2A2A29" points="116.385,8.384 117.408,9.409 120.192,9.409 121.216,8.384 	"/>
	<polygon fill="#474747" points="121.216,8.384 120.192,9.412 120.192,12.193 121.216,13.216 	"/>
	<polygon fill="#595959" points="121.216,13.216 120.191,12.193 117.408,12.193 116.385,13.216 	"/>
	<polygon fill="#373737" points="116.383,13.216 117.408,12.191 117.408,9.409 116.383,8.384 	"/>
	<rect x="117.41" y="2.209" width="2.781" height="2.782"/>
	<polygon fill="#2A2A29" points="116.385,1.184 117.408,2.209 120.192,2.209 121.216,1.184 	"/>
	<polygon fill="#474747" points="121.216,1.184 120.192,2.212 120.192,4.993 121.216,6.016 	"/>
	<polygon fill="#595959" points="121.216,6.016 120.191,4.993 117.408,4.993 116.385,6.016 	"/>
	<polygon fill="#373737" points="116.383,6.016 117.408,4.991 117.408,2.209 116.383,1.184 	"/>
	<rect x="124.61" y="9.409" width="2.781" height="2.782"/>
	<polygon fill="#2A2A29" points="123.585,8.384 124.608,9.409 127.392,9.409 128.416,8.384 	"/>
	<polygon fill="#474747" points="128.416,8.384 127.392,9.412 127.392,12.193 128.416,13.216 	"/>
	<polygon fill="#595959" points="128.416,13.216 127.391,12.193 124.608,12.193 123.585,13.216 	"/>
	<polygon fill="#373737" points="123.583,13.216 124.608,12.191 124.608,9.409 123.583,8.384 	"/>
	<rect x="124.61" y="2.209" width="2.781" height="2.782"/>
	<polygon fill="#2A2A29" points="123.585,1.184 124.608,2.209 127.392,2.209 128.416,1.184 	"/>
	<polygon fill="#474747" points="128.416,1.184 127.392,2.212 127.392,4.993 128.416,6.016 	"/>
	<polygon fill="#595959" points="128.416,6.016 127.391,4.993 124.608,4.993 123.585,6.016 	"/>
	<polygon fill="#373737" points="123.583,6.016 124.608,4.991 124.608,2.209 123.583,1.184 	"/>
</g>
</svg>
