<?xml version="1.0" encoding="UTF-8" standalone="no"?>
<!-- Generator: Adobe Illustrator 20.0.0, SVG Export Plug-In . SVG Version: 6.00 Build 0)  -->

<svg
   xmlns:dc="http://purl.org/dc/elements/1.1/"
   xmlns:cc="http://creativecommons.org/ns#"
   xmlns:rdf="http://www.w3.org/1999/02/22-rdf-syntax-ns#"
   xmlns:svg="http://www.w3.org/2000/svg"
   xmlns="http://www.w3.org/2000/svg"
   xmlns:sodipodi="http://sodipodi.sourceforge.net/DTD/sodipodi-0.dtd"
   xmlns:inkscape="http://www.inkscape.org/namespaces/inkscape"
   version="1.2"
   id="Layer_1"
   x="0px"
   y="0px"
   width="0.8000555in"
   height="0.30000001in"
   viewBox="0 0 72.004997 27"
   xml:space="preserve"
   inkscape:version="0.91 r13725"
   sodipodi:docname="3x08_female.svg"><metadata
     id="metadata171"><rdf:RDF><cc:Work
         rdf:about=""><dc:format>image/svg+xml</dc:format><dc:type
           rdf:resource="http://purl.org/dc/dcmitype/StillImage" /><dc:title></dc:title></cc:Work></rdf:RDF></metadata><defs
     id="defs169" /><sodipodi:namedview
     pagecolor="#ffffff"
     bordercolor="#666666"
     borderopacity="1"
     objecttolerance="10"
     gridtolerance="10"
     guidetolerance="10"
     inkscape:pageopacity="0"
     inkscape:pageshadow="2"
     inkscape:window-width="1366"
     inkscape:window-height="685"
     id="namedview167"
     showgrid="false"
     inkscape:zoom="7.9549515"
     inkscape:cx="23.155407"
     inkscape:cy="13.087114"
     inkscape:window-x="378"
     inkscape:window-y="105"
     inkscape:window-maximized="0"
     inkscape:current-layer="Layer_1"
     inkscape:document-units="in"
     units="in"
     fit-margin-top="0"
     fit-margin-left="0"
     fit-margin-right="0"
     fit-margin-bottom="0" /><rect
     style="fill:#404040"
     y="0"
     x="0"
     id="rect5"
     height="27"
     width="72.004997" /><rect
     id="rect7"
     height="3.4777415"
     width="3.4764912"
     y="20.762068"
     x="2.762692" /><polygon
     style="fill:#2a2a29"
     id="polygon9"
     points="4.992,9.409 6.016,8.384 1.185,8.384 2.208,9.409 "
     transform="matrix(1.2500868,0,0,1.2500868,0,9.0000001)" /><polygon
     style="fill:#474747"
     id="polygon11"
     points="4.992,12.193 6.016,13.216 6.016,8.384 4.992,9.412 "
     transform="matrix(1.2500868,0,0,1.2500868,0,9.0000001)" /><polygon
     style="fill:#595959"
     id="polygon13"
     points="2.208,12.193 1.185,13.216 6.016,13.216 4.991,12.193 "
     transform="matrix(1.2500868,0,0,1.2500868,0,9.0000001)" /><polygon
     style="fill:#373737"
     id="polygon15"
     points="2.208,9.409 1.183,8.384 1.183,13.216 2.208,12.191 "
     transform="matrix(1.2500868,0,0,1.2500868,0,9.0000001)" /><rect
     id="rect17"
     height="3.4777415"
     width="3.4764912"
     y="20.762068"
     x="11.763316" /><polygon
     style="fill:#2a2a29"
     id="polygon19"
     points="12.192,9.409 13.216,8.384 8.385,8.384 9.408,9.409 "
     transform="matrix(1.2500868,0,0,1.2500868,0,9.0000001)" /><polygon
     style="fill:#474747"
     id="polygon21"
     points="12.192,12.193 13.216,13.216 13.216,8.384 12.192,9.412 "
     transform="matrix(1.2500868,0,0,1.2500868,0,9.0000001)" /><polygon
     style="fill:#595959"
     id="polygon23"
     points="9.408,12.193 8.385,13.216 13.216,13.216 12.191,12.193 "
     transform="matrix(1.2500868,0,0,1.2500868,0,9.0000001)" /><polygon
     style="fill:#373737"
     id="polygon25"
     points="9.408,9.409 8.383,8.384 8.383,13.216 9.408,12.191 "
     transform="matrix(1.2500868,0,0,1.2500868,0,9.0000001)" /><rect
     id="rect27"
     height="3.4777415"
     width="3.4764912"
     y="20.762068"
     x="20.763943" /><polygon
     style="fill:#2a2a29"
     id="polygon29"
     points="19.392,9.409 20.416,8.384 15.585,8.384 16.608,9.409 "
     transform="matrix(1.2500868,0,0,1.2500868,0,9.0000001)" /><polygon
     style="fill:#474747"
     id="polygon31"
     points="19.392,12.193 20.416,13.216 20.416,8.384 19.392,9.412 "
     transform="matrix(1.2500868,0,0,1.2500868,0,9.0000001)" /><polygon
     style="fill:#595959"
     id="polygon33"
     points="16.608,12.193 15.585,13.216 20.416,13.216 19.391,12.193 "
     transform="matrix(1.2500868,0,0,1.2500868,0,9.0000001)" /><polygon
     style="fill:#373737"
     id="polygon35"
     points="16.608,9.409 15.583,8.384 15.583,13.216 16.608,12.191 "
     transform="matrix(1.2500868,0,0,1.2500868,0,9.0000001)" /><rect
     id="rect37"
     height="3.4777415"
     width="3.4764912"
     y="20.762068"
     x="29.764566" /><polygon
     style="fill:#2a2a29"
     id="polygon39"
     points="26.592,9.409 27.616,8.384 22.785,8.384 23.808,9.409 "
     transform="matrix(1.2500868,0,0,1.2500868,0,9.0000001)" /><polygon
     style="fill:#474747"
     id="polygon41"
     points="26.592,12.193 27.616,13.216 27.616,8.384 26.592,9.412 "
     transform="matrix(1.2500868,0,0,1.2500868,0,9.0000001)" /><polygon
     style="fill:#595959"
     id="polygon43"
     points="23.808,12.193 22.785,13.216 27.616,13.216 26.591,12.193 "
     transform="matrix(1.2500868,0,0,1.2500868,0,9.0000001)" /><polygon
     style="fill:#373737"
     id="polygon45"
     points="23.808,9.409 22.783,8.384 22.783,13.216 23.808,12.191 "
     transform="matrix(1.2500868,0,0,1.2500868,0,9.0000001)" /><rect
     id="rect47"
     height="3.4777415"
     width="3.4764912"
     y="20.762068"
     x="38.76519" /><polygon
     style="fill:#2a2a29"
     id="polygon49"
     points="33.792,9.409 34.816,8.384 29.985,8.384 31.008,9.409 "
     transform="matrix(1.2500868,0,0,1.2500868,0,9.0000001)" /><polygon
     style="fill:#474747"
     id="polygon51"
     points="33.792,12.193 34.816,13.216 34.816,8.384 33.792,9.412 "
     transform="matrix(1.2500868,0,0,1.2500868,0,9.0000001)" /><polygon
     style="fill:#595959"
     id="polygon53"
     points="31.008,12.193 29.985,13.216 34.816,13.216 33.791,12.193 "
     transform="matrix(1.2500868,0,0,1.2500868,0,9.0000001)" /><polygon
     style="fill:#373737"
     id="polygon55"
     points="31.008,9.409 29.983,8.384 29.983,13.216 31.008,12.191 "
     transform="matrix(1.2500868,0,0,1.2500868,0,9.0000001)" /><rect
     id="rect57"
     height="3.4777415"
     width="3.4764912"
     y="20.762068"
     x="47.765816" /><polygon
     style="fill:#2a2a29"
     id="polygon59"
     points="40.992,9.409 42.016,8.384 37.185,8.384 38.208,9.409 "
     transform="matrix(1.2500868,0,0,1.2500868,0,9.0000001)" /><polygon
     style="fill:#474747"
     id="polygon61"
     points="40.992,12.193 42.016,13.216 42.016,8.384 40.992,9.412 "
     transform="matrix(1.2500868,0,0,1.2500868,0,9.0000001)" /><polygon
     style="fill:#595959"
     id="polygon63"
     points="38.208,12.193 37.185,13.216 42.016,13.216 40.991,12.193 "
     transform="matrix(1.2500868,0,0,1.2500868,0,9.0000001)" /><polygon
     style="fill:#373737"
     id="polygon65"
     points="38.208,9.409 37.183,8.384 37.183,13.216 38.208,12.191 "
     transform="matrix(1.2500868,0,0,1.2500868,0,9.0000001)" /><rect
     id="rect67"
     height="3.4777415"
     width="3.4764912"
     y="20.762068"
     x="56.766441" /><polygon
     style="fill:#2a2a29"
     id="polygon69"
     points="48.192,9.409 49.216,8.384 44.385,8.384 45.408,9.409 "
     transform="matrix(1.2500868,0,0,1.2500868,0,9.0000001)" /><polygon
     style="fill:#474747"
     id="polygon71"
     points="48.192,12.193 49.216,13.216 49.216,8.384 48.192,9.412 "
     transform="matrix(1.2500868,0,0,1.2500868,0,9.0000001)" /><polygon
     style="fill:#595959"
     id="polygon73"
     points="45.408,12.193 44.385,13.216 49.216,13.216 48.191,12.193 "
     transform="matrix(1.2500868,0,0,1.2500868,0,9.0000001)" /><polygon
     style="fill:#373737"
     id="polygon75"
     points="45.408,9.409 44.383,8.384 44.383,13.216 45.408,12.191 "
     transform="matrix(1.2500868,0,0,1.2500868,0,9.0000001)" /><rect
     id="rect77"
     height="3.4777415"
     width="3.4764912"
     y="20.762068"
     x="65.767067" /><polygon
     style="fill:#2a2a29"
     id="polygon79"
     points="55.392,9.409 56.416,8.384 51.585,8.384 52.608,9.409 "
     transform="matrix(1.2500868,0,0,1.2500868,0,9.0000001)" /><polygon
     style="fill:#474747"
     id="polygon81"
     points="55.392,12.193 56.416,13.216 56.416,8.384 55.392,9.412 "
     transform="matrix(1.2500868,0,0,1.2500868,0,9.0000001)" /><polygon
     style="fill:#595959"
     id="polygon83"
     points="52.608,12.193 51.585,13.216 56.416,13.216 55.391,12.193 "
     transform="matrix(1.2500868,0,0,1.2500868,0,9.0000001)" /><polygon
     style="fill:#373737"
     id="polygon85"
     points="52.608,9.409 51.583,8.384 51.583,13.216 52.608,12.191 "
     transform="matrix(1.2500868,0,0,1.2500868,0,9.0000001)" /><rect
     id="rect87"
     height="3.4777415"
     width="3.4764912"
     y="11.761442"
     x="2.762692" /><polygon
     style="fill:#2a2a29"
     id="polygon89"
     points="4.992,2.209 6.016,1.184 1.185,1.184 2.208,2.209 "
     transform="matrix(1.2500868,0,0,1.2500868,0,9.0000001)" /><polygon
     style="fill:#474747"
     id="polygon91"
     points="4.992,4.993 6.016,6.016 6.016,1.184 4.992,2.212 "
     transform="matrix(1.2500868,0,0,1.2500868,0,9.0000001)" /><polygon
     style="fill:#595959"
     id="polygon93"
     points="2.208,4.993 1.185,6.016 6.016,6.016 4.991,4.993 "
     transform="matrix(1.2500868,0,0,1.2500868,0,9.0000001)" /><polygon
     style="fill:#373737"
     id="polygon95"
     points="2.208,2.209 1.183,1.184 1.183,6.016 2.208,4.991 "
     transform="matrix(1.2500868,0,0,1.2500868,0,9.0000001)" /><rect
     id="rect97"
     height="3.4777415"
     width="3.4764912"
     y="11.761442"
     x="11.763316" /><polygon
     style="fill:#2a2a29"
     id="polygon99"
     points="12.192,2.209 13.216,1.184 8.385,1.184 9.408,2.209 "
     transform="matrix(1.2500868,0,0,1.2500868,0,9.0000001)" /><polygon
     style="fill:#474747"
     id="polygon101"
     points="12.192,4.993 13.216,6.016 13.216,1.184 12.192,2.212 "
     transform="matrix(1.2500868,0,0,1.2500868,0,9.0000001)" /><polygon
     style="fill:#595959"
     id="polygon103"
     points="9.408,4.993 8.385,6.016 13.216,6.016 12.191,4.993 "
     transform="matrix(1.2500868,0,0,1.2500868,0,9.0000001)" /><polygon
     style="fill:#373737"
     id="polygon105"
     points="9.408,2.209 8.383,1.184 8.383,6.016 9.408,4.991 "
     transform="matrix(1.2500868,0,0,1.2500868,0,9.0000001)" /><rect
     id="rect107"
     height="3.4777415"
     width="3.4764912"
     y="11.761442"
     x="20.763943" /><polygon
     style="fill:#2a2a29"
     id="polygon109"
     points="19.392,2.209 20.416,1.184 15.585,1.184 16.608,2.209 "
     transform="matrix(1.2500868,0,0,1.2500868,0,9.0000001)" /><polygon
     style="fill:#474747"
     id="polygon111"
     points="19.392,4.993 20.416,6.016 20.416,1.184 19.392,2.212 "
     transform="matrix(1.2500868,0,0,1.2500868,0,9.0000001)" /><polygon
     style="fill:#595959"
     id="polygon113"
     points="16.608,4.993 15.585,6.016 20.416,6.016 19.391,4.993 "
     transform="matrix(1.2500868,0,0,1.2500868,0,9.0000001)" /><polygon
     style="fill:#373737"
     id="polygon115"
     points="16.608,2.209 15.583,1.184 15.583,6.016 16.608,4.991 "
     transform="matrix(1.2500868,0,0,1.2500868,0,9.0000001)" /><rect
     id="rect117"
     height="3.4777415"
     width="3.4764912"
     y="11.761442"
     x="29.764566" /><polygon
     style="fill:#2a2a29"
     id="polygon119"
     points="26.592,2.209 27.616,1.184 22.785,1.184 23.808,2.209 "
     transform="matrix(1.2500868,0,0,1.2500868,0,9.0000001)" /><polygon
     style="fill:#474747"
     id="polygon121"
     points="26.592,4.993 27.616,6.016 27.616,1.184 26.592,2.212 "
     transform="matrix(1.2500868,0,0,1.2500868,0,9.0000001)" /><polygon
     style="fill:#595959"
     id="polygon123"
     points="23.808,4.993 22.785,6.016 27.616,6.016 26.591,4.993 "
     transform="matrix(1.2500868,0,0,1.2500868,0,9.0000001)" /><polygon
     style="fill:#373737"
     id="polygon125"
     points="23.808,2.209 22.783,1.184 22.783,6.016 23.808,4.991 "
     transform="matrix(1.2500868,0,0,1.2500868,0,9.0000001)" /><rect
     id="rect127"
     height="3.4777415"
     width="3.4764912"
     y="11.761442"
     x="38.76519" /><polygon
     style="fill:#2a2a29"
     id="polygon129"
     points="33.792,2.209 34.816,1.184 29.985,1.184 31.008,2.209 "
     transform="matrix(1.2500868,0,0,1.2500868,0,9.0000001)" /><polygon
     style="fill:#474747"
     id="polygon131"
     points="33.792,4.993 34.816,6.016 34.816,1.184 33.792,2.212 "
     transform="matrix(1.2500868,0,0,1.2500868,0,9.0000001)" /><polygon
     style="fill:#595959"
     id="polygon133"
     points="31.008,4.993 29.985,6.016 34.816,6.016 33.791,4.993 "
     transform="matrix(1.2500868,0,0,1.2500868,0,9.0000001)" /><polygon
     style="fill:#373737"
     id="polygon135"
     points="31.008,2.209 29.983,1.184 29.983,6.016 31.008,4.991 "
     transform="matrix(1.2500868,0,0,1.2500868,0,9.0000001)" /><rect
     id="rect137"
     height="3.4777415"
     width="3.4764912"
     y="11.761442"
     x="47.765816" /><polygon
     style="fill:#2a2a29"
     id="polygon139"
     points="40.992,2.209 42.016,1.184 37.185,1.184 38.208,2.209 "
     transform="matrix(1.2500868,0,0,1.2500868,0,9.0000001)" /><polygon
     style="fill:#474747"
     id="polygon141"
     points="40.992,4.993 42.016,6.016 42.016,1.184 40.992,2.212 "
     transform="matrix(1.2500868,0,0,1.2500868,0,9.0000001)" /><polygon
     style="fill:#595959"
     id="polygon143"
     points="38.208,4.993 37.185,6.016 42.016,6.016 40.991,4.993 "
     transform="matrix(1.2500868,0,0,1.2500868,0,9.0000001)" /><polygon
     style="fill:#373737"
     id="polygon145"
     points="38.208,2.209 37.183,1.184 37.183,6.016 38.208,4.991 "
     transform="matrix(1.2500868,0,0,1.2500868,0,9.0000001)" /><rect
     id="rect147"
     height="3.4777415"
     width="3.4764912"
     y="11.761442"
     x="56.766441" /><polygon
     style="fill:#2a2a29"
     id="polygon149"
     points="48.192,2.209 49.216,1.184 44.385,1.184 45.408,2.209 "
     transform="matrix(1.2500868,0,0,1.2500868,0,9.0000001)" /><polygon
     style="fill:#474747"
     id="polygon151"
     points="48.192,4.993 49.216,6.016 49.216,1.184 48.192,2.212 "
     transform="matrix(1.2500868,0,0,1.2500868,0,9.0000001)" /><polygon
     style="fill:#595959"
     id="polygon153"
     points="45.408,4.993 44.385,6.016 49.216,6.016 48.191,4.993 "
     transform="matrix(1.2500868,0,0,1.2500868,0,9.0000001)" /><polygon
     style="fill:#373737"
     id="polygon155"
     points="45.408,2.209 44.383,1.184 44.383,6.016 45.408,4.991 "
     transform="matrix(1.2500868,0,0,1.2500868,0,9.0000001)" /><rect
     id="rect157"
     height="3.4777415"
     width="3.4764912"
     y="11.761442"
     x="65.767067" /><polygon
     style="fill:#2a2a29"
     id="polygon159"
     points="55.392,2.209 56.416,1.184 51.585,1.184 52.608,2.209 "
     transform="matrix(1.2500868,0,0,1.2500868,0,9.0000001)" /><polygon
     style="fill:#474747"
     id="polygon161"
     points="55.392,4.993 56.416,6.016 56.416,1.184 55.392,2.212 "
     transform="matrix(1.2500868,0,0,1.2500868,0,9.0000001)" /><polygon
     style="fill:#595959"
     id="polygon163"
     points="52.608,4.993 51.585,6.016 56.416,6.016 55.391,4.993 "
     transform="matrix(1.2500868,0,0,1.2500868,0,9.0000001)" /><polygon
     style="fill:#373737"
     id="polygon165"
     points="52.608,2.209 51.583,1.184 51.583,6.016 52.608,4.991 "
     transform="matrix(1.2500868,0,0,1.2500868,0,9.0000001)" /><rect
     x="2.762692"
     y="2.8009205"
     width="3.4764912"
     height="3.4777415"
     id="rect3792" /><polygon
     transform="matrix(1.2500868,0,0,1.2500868,0,0.03947783)"
     points="6.016,1.184 1.185,1.184 2.208,2.209 4.992,2.209 "
     id="polygon3794"
     style="fill:#2a2a29" /><polygon
     transform="matrix(1.2500868,0,0,1.2500868,0,0.03947783)"
     points="6.016,6.016 6.016,1.184 4.992,2.212 4.992,4.993 "
     id="polygon3796"
     style="fill:#474747" /><polygon
     transform="matrix(1.2500868,0,0,1.2500868,0,0.03947783)"
     points="1.185,6.016 6.016,6.016 4.991,4.993 2.208,4.993 "
     id="polygon3798"
     style="fill:#595959" /><polygon
     transform="matrix(1.2500868,0,0,1.2500868,0,0.03947783)"
     points="1.183,1.184 1.183,6.016 2.208,4.991 2.208,2.209 "
     id="polygon3800"
     style="fill:#373737" /><rect
     x="11.763316"
     y="2.8009205"
     width="3.4764912"
     height="3.4777415"
     id="rect3802" /><polygon
     transform="matrix(1.2500868,0,0,1.2500868,0,0.03947783)"
     points="13.216,1.184 8.385,1.184 9.408,2.209 12.192,2.209 "
     id="polygon3804"
     style="fill:#2a2a29" /><polygon
     transform="matrix(1.2500868,0,0,1.2500868,0,0.03947783)"
     points="13.216,6.016 13.216,1.184 12.192,2.212 12.192,4.993 "
     id="polygon3806"
     style="fill:#474747" /><polygon
     transform="matrix(1.2500868,0,0,1.2500868,0,0.03947783)"
     points="8.385,6.016 13.216,6.016 12.191,4.993 9.408,4.993 "
     id="polygon3808"
     style="fill:#595959" /><polygon
     transform="matrix(1.2500868,0,0,1.2500868,0,0.03947783)"
     points="8.383,1.184 8.383,6.016 9.408,4.991 9.408,2.209 "
     id="polygon3810"
     style="fill:#373737" /><rect
     x="20.763943"
     y="2.8009205"
     width="3.4764912"
     height="3.4777415"
     id="rect3812" /><polygon
     transform="matrix(1.2500868,0,0,1.2500868,0,0.03947783)"
     points="20.416,1.184 15.585,1.184 16.608,2.209 19.392,2.209 "
     id="polygon3814"
     style="fill:#2a2a29" /><polygon
     transform="matrix(1.2500868,0,0,1.2500868,0,0.03947783)"
     points="20.416,6.016 20.416,1.184 19.392,2.212 19.392,4.993 "
     id="polygon3816"
     style="fill:#474747" /><polygon
     transform="matrix(1.2500868,0,0,1.2500868,0,0.03947783)"
     points="15.585,6.016 20.416,6.016 19.391,4.993 16.608,4.993 "
     id="polygon3818"
     style="fill:#595959" /><polygon
     transform="matrix(1.2500868,0,0,1.2500868,0,0.03947783)"
     points="15.583,1.184 15.583,6.016 16.608,4.991 16.608,2.209 "
     id="polygon3820"
     style="fill:#373737" /><rect
     x="29.764566"
     y="2.8009205"
     width="3.4764912"
     height="3.4777415"
     id="rect3822" /><polygon
     transform="matrix(1.2500868,0,0,1.2500868,0,0.03947783)"
     points="27.616,1.184 22.785,1.184 23.808,2.209 26.592,2.209 "
     id="polygon3824"
     style="fill:#2a2a29" /><polygon
     transform="matrix(1.2500868,0,0,1.2500868,0,0.03947783)"
     points="27.616,6.016 27.616,1.184 26.592,2.212 26.592,4.993 "
     id="polygon3826"
     style="fill:#474747" /><polygon
     transform="matrix(1.2500868,0,0,1.2500868,0,0.03947783)"
     points="22.785,6.016 27.616,6.016 26.591,4.993 23.808,4.993 "
     id="polygon3828"
     style="fill:#595959" /><polygon
     transform="matrix(1.2500868,0,0,1.2500868,0,0.03947783)"
     points="22.783,1.184 22.783,6.016 23.808,4.991 23.808,2.209 "
     id="polygon3830"
     style="fill:#373737" /><rect
     x="38.76519"
     y="2.8009205"
     width="3.4764912"
     height="3.4777415"
     id="rect3832" /><polygon
     transform="matrix(1.2500868,0,0,1.2500868,0,0.03947783)"
     points="34.816,1.184 29.985,1.184 31.008,2.209 33.792,2.209 "
     id="polygon3834"
     style="fill:#2a2a29" /><polygon
     transform="matrix(1.2500868,0,0,1.2500868,0,0.03947783)"
     points="34.816,6.016 34.816,1.184 33.792,2.212 33.792,4.993 "
     id="polygon3836"
     style="fill:#474747" /><polygon
     transform="matrix(1.2500868,0,0,1.2500868,0,0.03947783)"
     points="29.985,6.016 34.816,6.016 33.791,4.993 31.008,4.993 "
     id="polygon3838"
     style="fill:#595959" /><polygon
     transform="matrix(1.2500868,0,0,1.2500868,0,0.03947783)"
     points="29.983,1.184 29.983,6.016 31.008,4.991 31.008,2.209 "
     id="polygon3840"
     style="fill:#373737" /><rect
     x="47.765816"
     y="2.8009205"
     width="3.4764912"
     height="3.4777415"
     id="rect3842" /><polygon
     transform="matrix(1.2500868,0,0,1.2500868,0,0.03947783)"
     points="42.016,1.184 37.185,1.184 38.208,2.209 40.992,2.209 "
     id="polygon3844"
     style="fill:#2a2a29" /><polygon
     transform="matrix(1.2500868,0,0,1.2500868,0,0.03947783)"
     points="42.016,6.016 42.016,1.184 40.992,2.212 40.992,4.993 "
     id="polygon3846"
     style="fill:#474747" /><polygon
     transform="matrix(1.2500868,0,0,1.2500868,0,0.03947783)"
     points="37.185,6.016 42.016,6.016 40.991,4.993 38.208,4.993 "
     id="polygon3848"
     style="fill:#595959" /><polygon
     transform="matrix(1.2500868,0,0,1.2500868,0,0.03947783)"
     points="37.183,1.184 37.183,6.016 38.208,4.991 38.208,2.209 "
     id="polygon3850"
     style="fill:#373737" /><rect
     x="56.766441"
     y="2.8009205"
     width="3.4764912"
     height="3.4777415"
     id="rect3852" /><polygon
     transform="matrix(1.2500868,0,0,1.2500868,0,0.03947783)"
     points="49.216,1.184 44.385,1.184 45.408,2.209 48.192,2.209 "
     id="polygon3854"
     style="fill:#2a2a29" /><polygon
     transform="matrix(1.2500868,0,0,1.2500868,0,0.03947783)"
     points="49.216,6.016 49.216,1.184 48.192,2.212 48.192,4.993 "
     id="polygon3856"
     style="fill:#474747" /><polygon
     transform="matrix(1.2500868,0,0,1.2500868,0,0.03947783)"
     points="44.385,6.016 49.216,6.016 48.191,4.993 45.408,4.993 "
     id="polygon3858"
     style="fill:#595959" /><polygon
     transform="matrix(1.2500868,0,0,1.2500868,0,0.03947783)"
     points="44.383,1.184 44.383,6.016 45.408,4.991 45.408,2.209 "
     id="polygon3860"
     style="fill:#373737" /><rect
     x="65.767067"
     y="2.8009205"
     width="3.4764912"
     height="3.4777415"
     id="rect3862" /><polygon
     transform="matrix(1.2500868,0,0,1.2500868,0,0.03947783)"
     points="56.416,1.184 51.585,1.184 52.608,2.209 55.392,2.209 "
     id="polygon3864"
     style="fill:#2a2a29" /><polygon
     transform="matrix(1.2500868,0,0,1.2500868,0,0.03947783)"
     points="56.416,6.016 56.416,1.184 55.392,2.212 55.392,4.993 "
     id="polygon3866"
     style="fill:#474747" /><polygon
     transform="matrix(1.2500868,0,0,1.2500868,0,0.03947783)"
     points="51.585,6.016 56.416,6.016 55.391,4.993 52.608,4.993 "
     id="polygon3868"
     style="fill:#595959" /><polygon
     transform="matrix(1.2500868,0,0,1.2500868,0,0.03947783)"
     points="51.583,1.184 51.583,6.016 52.608,4.991 52.608,2.209 "
     id="polygon3870"
     style="fill:#373737" /></svg>