<?xml version="1.0" encoding="UTF-8" standalone="no"?>
<svg
   xmlns:dc="http://purl.org/dc/elements/1.1/"
   xmlns:cc="http://creativecommons.org/ns#"
   xmlns:rdf="http://www.w3.org/1999/02/22-rdf-syntax-ns#"
   xmlns:svg="http://www.w3.org/2000/svg"
   xmlns="http://www.w3.org/2000/svg"
   viewBox="0 0 35 33"
   height="0.33000001in"
   width="0.34999999in"
   id="svg2"
   version="1.2">
  <metadata
     id="metadata10193">
    <rdf:RDF>
      <cc:Work
         rdf:about="">
        <dc:format>image/svg+xml</dc:format>
        <dc:type
           rdf:resource="http://purl.org/dc/dcmitype/StillImage" />
        <dc:title />
      </cc:Work>
    </rdf:RDF>
  </metadata>
  <defs
     id="defs10191" />
  <g
     transform="translate(-3.5,0)"
     id="breadboard">
    <rect
       style="fill:#303030"
       height="27"
       width="70"
       y="3"
       x="0"
       id="middle" />
    <rect
       style="fill:#3d3d3d"
       height="2.46"
       width="70"
       y="3"
       x="0"
       id="top" />
    <rect
       style="fill:#000000"
       height="2.46"
       width="70"
       y="27.540001"
       x="0"
       id="bottom" />
    <polygon
       style="fill:#141414"
       points="70,30 70,3 69.25,5.46 69.25,27.54 "
       id="right" />
    <polygon
       style="fill:#1f1f1f"
       points="0,30 0,3 0.75,5.46 0.75,27.54 "
       id="left" />
    <polygon
       style="fill:#1c1c1c"
       points="0.56,16.5 5,16.5 5,11.5 0.75,11.46 0.56,13.58 "
       id="left-upper-rect" />
    <polygon
       style="fill:#383838"
       points="0.56,16.5 0.56,19.42 0.75,21.55 5,21.55 5,16.5 "
       id="left-lower-rect" />
    <path
       style="fill:#262626"
       d="m 0.56,13.58 0,5.83 c 1.47,-0.17 2.62,-1.4 2.62,-2.92 0,-1.52 -1.14,-2.74 -2.62,-2.91 z"
       id="slot" />
    <path
       style="fill:#303030"
       d="m 0.75,5.46 0,5.99 c 2.38,0.45 4.19,2.53 4.19,5.04 0,2.51 -1.8,4.6 -4.19,5.05 l 0,0.01 5,0 0,-16.09 -5,0 z"
       id="cover" />
    <rect
       style="fill:#8c8c8c"
       height="4.3400002"
       width="3"
       y="28.66"
       x="63.5"
       id="connector6pin" />
    <rect
       style="fill:#8c8c8c"
       height="3"
       width="3"
       y="30"
       x="63.5"
       id="connector6terminal" />
    <polygon
       style="fill:#8c8c8c"
       id="polygon10143"
       points="66.5,30.66 66.5,28.66 61.5,28.66 61.5,29.74 63.5,30.66 " />
    <rect
       style="fill:#8c8c8c"
       height="4.3400002"
       width="3"
       y="0"
       x="63.5"
       id="connector7pin" />
    <rect
       style="fill:#8c8c8c"
       height="3"
       width="3"
       y="0"
       x="63.5"
       id="connector7terminal" />
    <polygon
       style="fill:#8c8c8c"
       id="polygon10147"
       points="61.5,3.26 61.5,4.34 66.5,4.34 66.5,2.34 63.5,2.34 " />
    <rect
       style="fill:#8c8c8c"
       height="4.3400002"
       width="3"
       y="0"
       x="43.5"
       id="connector9pin" />
    <rect
       style="fill:#8c8c8c"
       y="0"
       height="3"
       width="3"
       x="43.5"
       id="connector9terminal" />
    <polygon
       style="fill:#8c8c8c"
       id="polygon10163"
       points="43.5,2.34 41.5,3.26 41.5,4.34 48.5,4.34 48.5,3.26 46.5,2.34 " />
    <rect
       style="fill:#8c8c8c"
       height="4.3400002"
       width="3"
       y="0"
       x="53.5"
       id="connector8pin" />
    <rect
       style="fill:#8c8c8c"
       y="0"
       height="3"
       width="3"
       x="53.5"
       id="connector8terminal" />
    <polygon
       style="fill:#8c8c8c"
       id="polygon10167"
       points="53.5,2.34 51.5,3.26 51.5,4.34 58.5,4.34 58.5,3.26 56.5,2.34 " />
    <g
       id="icon">
      <circle
         style="fill:#212121"
         cx="6.5"
         cy="23.469999"
         r="2.0599999"
         id="circle10130" />
      <text
         style="font-size:8px;font-family:OCRA;text-anchor:start;fill:#e6e6e6;stroke:none"
         id="label"
         x="6.5"
         y="16.5"
         font-size="8">IC</text>
      <rect
         style="fill:#8c8c8c"
         id="connector0pin"
         x="3.5"
         y="28.66"
         width="3"
         height="4.3400002" />
      <rect
         style="fill:#8c8c8c"
         id="connector0terminal"
         x="3.5"
         y="30"
         width="3"
         height="3" />
      <polygon
         style="fill:#8c8c8c"
         points="8.5,28.66 3.5,28.66 3.5,30.66 6.5,30.66 8.5,29.74 "
         id="polygon10135" />
      <rect
         style="fill:#8c8c8c"
         y="0"
         id="connector13pin"
         x="3.5"
         width="3"
         height="4.3400002" />
      <rect
         style="fill:#8c8c8c"
         y="0"
         id="connector13terminal"
         x="3.5"
         width="3"
         height="3" />
      <polygon
         style="fill:#8c8c8c"
         points="3.5,4.34 8.5,4.34 8.5,3.26 6.5,2.34 3.5,2.34 "
         id="polygon10139" />
      <rect
         style="fill:#8c8c8c"
         id="connector12pin"
         x="13.5"
         y="0"
         width="3"
         height="4.3400002" />
      <rect
         style="fill:#8c8c8c"
         y="0"
         id="connector12terminal"
         x="13.5"
         width="3"
         height="3" />
      <polygon
         style="fill:#8c8c8c"
         points="11.5,3.26 11.5,4.34 18.5,4.34 18.5,3.26 16.5,2.34 13.5,2.34 "
         id="polygon10151" />
      <rect
         style="fill:#8c8c8c"
         id="connector11pin"
         x="23.5"
         y="0"
         width="3"
         height="4.3400002" />
      <rect
         style="fill:#8c8c8c"
         y="0"
         id="connector11terminal"
         x="23.5"
         width="3"
         height="3" />
      <polygon
         style="fill:#8c8c8c"
         points="21.5,3.26 21.5,4.34 28.5,4.34 28.5,3.26 26.5,2.34 23.5,2.34 "
         id="polygon10155" />
      <rect
         style="fill:#8c8c8c"
         id="connector10pin"
         x="33.5"
         y="0"
         width="3"
         height="4.3400002" />
      <rect
         style="fill:#8c8c8c"
         y="0"
         id="connector10terminal"
         x="33.5"
         width="3"
         height="3" />
      <polygon
         style="fill:#8c8c8c"
         points="31.5,3.26 31.5,4.34 38.5,4.34 38.5,3.26 36.5,2.34 33.5,2.34 "
         id="polygon10159" />
      <rect
         style="fill:#8c8c8c"
         id="connector1pin"
         x="13.5"
         y="28.66"
         width="3"
         height="4.3400002" />
      <rect
         style="fill:#8c8c8c"
         id="connector1terminal"
         x="13.5"
         y="30"
         width="3"
         height="3" />
      <polygon
         style="fill:#8c8c8c"
         points="18.5,29.74 18.5,28.66 11.5,28.66 11.5,29.74 13.5,30.66 16.5,30.66 "
         id="polygon10171" />
      <rect
         style="fill:#8c8c8c"
         id="connector2pin"
         x="23.5"
         y="28.66"
         width="3"
         height="4.3400002" />
      <rect
         style="fill:#8c8c8c"
         id="connector2terminal"
         x="23.5"
         y="30"
         width="3"
         height="3" />
      <polygon
         style="fill:#8c8c8c"
         points="28.5,29.74 28.5,28.66 21.5,28.66 21.5,29.74 23.5,30.66 26.5,30.66 "
         id="polygon10175" />
      <rect
         style="fill:#8c8c8c"
         id="connector3pin"
         x="33.5"
         y="28.66"
         width="3"
         height="4.3400002" />
      <rect
         style="fill:#8c8c8c"
         id="connector3terminal"
         x="33.5"
         y="30"
         width="3"
         height="3" />
      <polygon
         style="fill:#8c8c8c"
         points="38.5,29.74 38.5,28.66 31.5,28.66 31.5,29.74 33.5,30.66 36.5,30.66 "
         id="polygon10179" />
      <text
         font-size="8"
         y="22.74"
         x="6.5"
         id="text4196"
         style="font-size:8.00000027px;font-family:'Droid Sans';text-anchor:start;fill:#ff00ff;stroke:none;-inkscape-font-specification:'Droid Sans, Normal';font-weight:normal;font-style:normal;font-stretch:normal;font-variant:normal;text-align:start;writing-mode:lr;line-height:125%;">
        <tspan
           id="tspan5404">Single</tspan>
      </text>
    </g>
    <rect
       style="fill:#8c8c8c"
       height="4.3400002"
       width="3"
       y="28.66"
       x="43.5"
       id="connector4pin" />
    <rect
       style="fill:#8c8c8c"
       height="3"
       width="3"
       y="30"
       x="43.5"
       id="connector4terminal" />
    <polygon
       style="fill:#8c8c8c"
       id="polygon10183"
       points="46.5,30.66 48.5,29.74 48.5,28.66 41.5,28.66 41.5,29.74 43.5,30.66 " />
    <rect
       style="fill:#8c8c8c"
       height="4.3400002"
       width="3"
       y="28.66"
       x="53.5"
       id="connector5pin" />
    <rect
       style="fill:#8c8c8c"
       height="3"
       width="3"
       y="30"
       x="53.5"
       id="connector5terminal" />
    <polygon
       style="fill:#8c8c8c"
       id="polygon10187"
       points="56.5,30.66 58.5,29.74 58.5,28.66 51.5,28.66 51.5,29.74 53.5,30.66 " />
  </g>
</svg>
