<?xml version="1.0" encoding="UTF-8" standalone="no"?>
<svg
   xmlns:dc="http://purl.org/dc/elements/1.1/"
   xmlns:cc="http://creativecommons.org/ns#"
   xmlns:rdf="http://www.w3.org/1999/02/22-rdf-syntax-ns#"
   xmlns:svg="http://www.w3.org/2000/svg"
   xmlns="http://www.w3.org/2000/svg"
   viewBox="0 0 700 330"
   height="0.33in"
   width="0.7in"
   id="svg2"
   version="1.2">
  <metadata
     id="metadata76">
    <rdf:RDF>
      <cc:Work
         rdf:about="">
        <dc:format>image/svg+xml</dc:format>
        <dc:type
           rdf:resource="http://purl.org/dc/dcmitype/StillImage" />
        <dc:title></dc:title>
      </cc:Work>
    </rdf:RDF>
  </metadata>
  <defs
     id="defs74" />
  <g
     id="icon">
    <rect
       fill="#303030"
       stroke-width="10"
       height="270"
       width="700"
       y="30"
       x="0"
       id="middle" />
    <rect
       fill="#3d3d3d"
       stroke-width="10"
       height="24.6"
       width="700"
       y="30"
       x="0"
       id="top" />
    <rect
       fill="#000000"
       stroke-width="10"
       height="24.6"
       width="700"
       y="275"
       x="0"
       id="bottom" />
    <polygon
       fill="#141414"
       points="692.5,275.4 700,300 700,30 692.5,54.6 "
       id="right" />
    <polygon
       fill="#1f1f1f"
       points="7.5,275 0,300 0,30 7.5,54 "
       id="left" />
    <polygon
       fill="#1c1c1c"
       points="50,115 7.5,114 5.6,135 5.6,165 50,165 "
       id="left-upper-rect" />
    <polygon
       fill="#383838"
       points="7.5,215 50,215 50,165 5.6,165 5.6,190 "
       id="left-lower-rect" />
    <path
       fill="#262626"
       stroke-width="10"
       d="m 5.6,135 v 58.3 c 14.7,-1.7 26,-14 26,-29 0,-15 -11,-27 -26,-29 z"
       id="slot" />
    <path
       fill="#303030"
       stroke-width="10"
       d="m 7.5,54 v 60 c 24,4.5 42,25 42,50 0,25 -18,46 -42,50 v 0.1 H 58 V 55 Z"
       id="cover" />
    <circle
       fill="#212121"
       stroke-width="10"
       id="circle13"
       r="20.6"
       cy="234"
       cx="65" />
    <text
       font-size="60"
       y="150.21127"
       x="350.9155"
       id="label"
       style="font-size:60px;font-family:OCRA;text-anchor:middle;fill:#e6e6e6">IC</text>
    <text
       font-size="49"
       y="236.85915"
       x="355.84509"
       id="text4196"
       style="font-size:49px;font-family:OCRA;text-anchor:middle;fill:#00ffff">Multipart</text>
    <rect
       fill="#8c8c8c"
       stroke-width="10"
       height="43"
       width="30"
       y="286"
       x="35"
       id="connector0pin" />
    <rect
       fill="#8c8c8c"
       stroke-width="10"
       height="30"
       width="30"
       y="300"
       x="35"
       id="connector0terminal" />
    <polygon
       fill="#8c8c8c"
       id="polygon18"
       points="35,286 35,306 65,306 85,297 85,286 " />
    <rect
       fill="#8c8c8c"
       stroke-width="10"
       height="43"
       width="30"
       x="35"
       id="connector13pin"
       y="0" />
    <rect
       fill="#8c8c8c"
       stroke-width="10"
       height="30"
       width="30"
       x="35"
       id="connector13terminal"
       y="0" />
    <polygon
       fill="#8c8c8c"
       id="polygon22"
       points="85,43 85,32 65,23 35,23 35,43 " />
    <rect
       fill="#8c8c8c"
       stroke-width="10"
       height="43"
       width="30"
       y="286"
       x="635"
       id="connector6pin" />
    <rect
       fill="#8c8c8c"
       stroke-width="10"
       height="30"
       width="30"
       y="300"
       x="635"
       id="connector6terminal" />
    <polygon
       fill="#8c8c8c"
       id="polygon26"
       points="615,286 615,297 635,306 665,306 665,286 " />
    <rect
       fill="#8c8c8c"
       stroke-width="10"
       height="43"
       width="30"
       y="0"
       x="635"
       id="connector7pin" />
    <rect
       fill="#8c8c8c"
       stroke-width="10"
       height="30"
       width="30"
       y="0"
       x="635"
       id="connector7terminal" />
    <polygon
       fill="#8c8c8c"
       id="polygon30"
       points="665,43 665,23 635,23 615,32 615,43 " />
    <rect
       fill="#8c8c8c"
       stroke-width="10"
       height="43"
       width="30"
       y="0"
       x="135"
       id="connector12pin" />
    <rect
       fill="#8c8c8c"
       stroke-width="10"
       height="30"
       width="30"
       x="135"
       id="connector12terminal"
       y="0" />
    <polygon
       fill="#8c8c8c"
       id="polygon34"
       points="115,32 115,43 185,43 185,32 165,23 135,23 " />
    <rect
       fill="#8c8c8c"
       stroke-width="10"
       height="43"
       width="30"
       y="0"
       x="235"
       id="connector11pin" />
    <rect
       fill="#8c8c8c"
       stroke-width="10"
       height="30"
       width="30"
       x="235"
       id="connector11terminal"
       y="0" />
    <polygon
       fill="#8c8c8c"
       id="polygon38"
       points="215,32 215,43 285,43 285,32 265,23 235,23 " />
    <rect
       fill="#8c8c8c"
       stroke-width="10"
       height="43"
       width="30"
       y="0"
       x="335"
       id="connector10pin" />
    <rect
       fill="#8c8c8c"
       stroke-width="10"
       height="30"
       width="30"
       x="335"
       id="connector10terminal"
       y="0" />
    <polygon
       fill="#8c8c8c"
       id="polygon42"
       points="315,32 315,43 385,43 385,32 365,23 335,23 " />
    <rect
       fill="#8c8c8c"
       stroke-width="10"
       height="43"
       width="30"
       y="0"
       x="435"
       id="connector9pin" />
    <rect
       fill="#8c8c8c"
       stroke-width="10"
       height="30"
       width="30"
       x="435"
       id="connector9terminal"
       y="0" />
    <polygon
       fill="#8c8c8c"
       id="polygon46"
       points="415,32 415,43 485,43 485,32 465,23 435,23 " />
    <rect
       fill="#8c8c8c"
       stroke-width="10"
       height="43"
       width="30"
       y="0"
       x="535"
       id="connector8pin" />
    <rect
       fill="#8c8c8c"
       stroke-width="10"
       height="30"
       width="30"
       x="535"
       id="connector8terminal"
       y="0" />
    <polygon
       fill="#8c8c8c"
       id="polygon50"
       points="515,32 515,43 585,43 585,32 565,23 535,23 " />
    <rect
       fill="#8c8c8c"
       stroke-width="10"
       height="43"
       width="30"
       y="286"
       x="135"
       id="connector1pin" />
    <rect
       fill="#8c8c8c"
       stroke-width="10"
       height="30"
       width="30"
       y="300"
       x="135"
       id="connector1terminal" />
    <polygon
       fill="#8c8c8c"
       id="polygon54"
       points="185,297 185,286 115,286 115,297 135,306 165,306 " />
    <rect
       fill="#8c8c8c"
       stroke-width="10"
       height="43"
       width="30"
       y="286"
       x="235"
       id="connector2pin" />
    <rect
       fill="#8c8c8c"
       stroke-width="10"
       height="30"
       width="30"
       y="300"
       x="235"
       id="connector2terminal" />
    <polygon
       fill="#8c8c8c"
       id="polygon58"
       points="285,297 285,286 215,286 215,297 235,306 265,306 " />
    <rect
       fill="#8c8c8c"
       stroke-width="10"
       height="43"
       width="30"
       y="286"
       x="335"
       id="connector3pin" />
    <rect
       fill="#8c8c8c"
       stroke-width="10"
       height="30"
       width="30"
       y="300"
       x="335"
       id="connector3terminal" />
    <polygon
       fill="#8c8c8c"
       id="polygon62"
       points="385,297 385,286 315,286 315,297 335,306 365,306 " />
    <rect
       fill="#8c8c8c"
       stroke-width="10"
       height="43"
       width="30"
       y="286"
       x="435"
       id="connector4pin" />
    <rect
       fill="#8c8c8c"
       stroke-width="10"
       height="30"
       width="30"
       y="300"
       x="435"
       id="connector4terminal" />
    <polygon
       fill="#8c8c8c"
       id="polygon66"
       points="485,297 485,286 415,286 415,297 435,306 465,306 " />
    <rect
       fill="#8c8c8c"
       stroke-width="10"
       height="43"
       width="30"
       y="286"
       x="535"
       id="connector5pin" />
    <rect
       fill="#8c8c8c"
       stroke-width="10"
       height="30"
       width="30"
       y="300"
       x="535"
       id="connector5terminal" />
    <polygon
       fill="#8c8c8c"
       id="polygon70"
       points="585,297 585,286 515,286 515,297 535,306 565,306 " />
  </g>
</svg>
