<?xml version="1.0" encoding="utf-8"?>
<!-- Generator: Adobe Illustrator 20.0.0, SVG Export Plug-In . SVG Version: 6.00 Build 0)  -->
<svg version="1.2" baseProfile="tiny" id="Layer_1" xmlns="http://www.w3.org/2000/svg" xmlns:xlink="http://www.w3.org/1999/xlink"
	 x="0px" y="0px" width="39.685px" height="24.52px" viewBox="0 0 39.685 24.52" xml:space="preserve">
<g>
	<path fill="#E1C57A" d="M19.843,18.85v5.669h0.709c0-0.391,0.317-0.709,0.709-0.709s0.709,0.317,0.709,0.709h0.709V18.85H19.843z"
		/>
	<path fill="#E1C57A" d="M32.741,0c0,0.391-0.317,0.709-0.709,0.709c-0.391,0-0.709-0.317-0.709-0.709h-0.709v5.669h2.835V0H32.741z
		"/>
	<path fill="#E1C57A" d="M14.316,0c0,0.391-0.317,0.709-0.709,0.709S12.898,0.391,12.898,0h-0.709v24.52h0.709
		c0-0.391,0.317-0.709,0.709-0.709s0.709,0.317,0.709,0.709h0.709V0H14.316z"/>
	<polygon fill="#333333" points="5.67,3.259 5.67,5.244 1.418,5.244 1.418,19.417 5.67,19.417 5.67,21.401 39.686,21.401 
		39.686,3.259 	"/>
	<rect x="1.418" y="5.847" fill="#4B4B4B" width="4.252" height="4.251"/>
	<rect x="1.418" y="7.051" fill="#646464" width="4.252" height="1.488"/>
	<rect x="1.418" y="15.741" fill="#191919" width="4.252" height="2.249"/>
	<polygon fill="#F0E2BD" points="15.025,3.968 15.025,3.259 7.087,3.259 7.651,3.968 	"/>
	<polygon fill="#9A916C" points="7.651,20.693 7.087,21.401 15.025,21.401 15.025,20.693 	"/>
	<path fill="#F0E2BD" d="M7.087,9.554l-1.589,0.953c-1.376,0.826-1.376,2.82,0,3.646l1.589,0.953
		C7.087,15.106,7.087,9.554,7.087,9.554z"/>
	<path fill="#E1C57A" d="M9.874,6.76c0.32,0.402,0.213,0.994-0.228,1.259L7.087,9.554v5.552l2.558,1.535
		c0.441,0.264,0.548,0.857,0.228,1.259l-2.222,2.792h7.373V3.968H7.651L9.874,6.76z"/>
</g>
</svg>
