<?xml version="1.0" encoding="UTF-8" standalone="no"?>
<!-- Generator: Adobe Illustrator 20.0.0, SVG Export Plug-In . SVG Version: 6.00 Build 0)  -->

<svg
   xmlns:dc="http://purl.org/dc/elements/1.1/"
   xmlns:cc="http://creativecommons.org/ns#"
   xmlns:rdf="http://www.w3.org/1999/02/22-rdf-syntax-ns#"
   xmlns:svg="http://www.w3.org/2000/svg"
   xmlns="http://www.w3.org/2000/svg"
   xmlns:sodipodi="http://sodipodi.sourceforge.net/DTD/sodipodi-0.dtd"
   xmlns:inkscape="http://www.inkscape.org/namespaces/inkscape"
   version="1.2"
   id="Layer_1"
   x="0px"
   y="0px"
   width="17.655556mm"
   height="7.6786613mm"
   viewBox="0 0 62.559062 27.207855"
   xml:space="preserve"
   inkscape:version="0.91 r13725"
   sodipodi:docname="4uconn_19269.svg"><metadata
     id="metadata35"><rdf:RDF><cc:Work
         rdf:about=""><dc:format>image/svg+xml</dc:format><dc:type
           rdf:resource="http://purl.org/dc/dcmitype/StillImage" /><dc:title></dc:title></cc:Work></rdf:RDF></metadata><defs
     id="defs33" /><sodipodi:namedview
     pagecolor="#ffffff"
     bordercolor="#666666"
     borderopacity="1"
     objecttolerance="10"
     gridtolerance="10"
     guidetolerance="10"
     inkscape:pageopacity="0"
     inkscape:pageshadow="2"
     inkscape:window-width="1541"
     inkscape:window-height="792"
     id="namedview31"
     showgrid="false"
     inkscape:zoom="11.175301"
     inkscape:cx="9.1604123"
     inkscape:cy="9.3285019"
     inkscape:window-x="99"
     inkscape:window-y="202"
     inkscape:window-maximized="0"
     inkscape:current-layer="Layer_1"
     inkscape:document-units="mm"
     units="mm"
     fit-margin-top="0"
     fit-margin-left="0"
     fit-margin-right="0"
     fit-margin-bottom="0" /><g
     id="g33885"><polygon
       transform="matrix(-1.4398745,0,0,-1.3333943,63.744722,27.521839)"
       id="polygon7"
       points="39.918,14.794 39.918,16.691 44.19,16.691 44.19,4.617 39.918,4.617 39.918,6.52 39.918,6.52 39.918,14.794 "
       style="fill:#2b2b2b" /><polygon
       transform="matrix(-1.4398745,0,0,-1.3333943,63.744722,27.521839)"
       id="polygon9"
       points="39.918,14.794 39.918,14.794 39.918,16.26 44.19,16.26 44.19,14.52 39.918,14.52 "
       style="fill:#292929" /><polygon
       transform="matrix(-1.4398745,0,0,-1.3333943,63.744722,27.521839)"
       id="polygon11"
       points="39.918,6.485 39.918,6.485 39.918,5.014 44.19,5.014 44.19,7.093 39.918,7.093 "
       style="fill:#292929" /><rect
       transform="scale(-1,-1)"
       id="rect13"
       height="4.2775292"
       width="6.1194668"
       y="-16.207987"
       x="-6.2678123"
       style="fill:#333333" /><rect
       transform="scale(-1,-1)"
       id="rect15"
       height="2.3507743"
       width="6.1194668"
       y="-14.977263"
       x="-6.2678123"
       style="fill:#383838" /><rect
       transform="scale(-1,-1)"
       id="rect17"
       height="0.58135992"
       width="6.149704"
       y="-5.8421774"
       x="-6.2678123"
       style="fill:#212121" /><rect
       transform="scale(-1,-1)"
       id="rect19"
       height="0.5280242"
       width="6.149704"
       y="-21.36289"
       x="-6.2678123"
       style="fill:#212121" /></g><rect
     style="fill:#c7c7c7"
     id="connector0pad"
     x="-13.41359"
     y="54.63298"
     width="5.191"
     height="7.9543338"
     transform="matrix(0,-1,1,0,0,0)"
     rx="1.4173229" /><rect
     x="21.24918"
     height="5.6631265"
     id="rect33676"
     ry="1.5434343"
     y="44.082951"
     rx="0.53527683"
     style="opacity:1;fill:#cccccc;fill-opacity:1"
     width="6.0219498"
     transform="matrix(0,1,1,0,0,0)" /><rect
     id="rect33674"
     height="4.355597"
     x="20.921497"
     ry="1.1870793"
     y="12.129002"
     style="opacity:1;fill:#cccccc;fill-opacity:1"
     rx="0.55967307"
     width="6.296411"
     transform="matrix(0,1,1,0,0,0)" /><rect
     x="-0.62288648"
     height="5.1678476"
     id="rect33663"
     ry="1.408451"
     y="18.097778"
     rx="0.50338191"
     style="opacity:1;fill:#cccccc;fill-opacity:1"
     width="5.6631265"
     transform="matrix(0,1,1,0,0,0)" /><rect
     id="rect33661"
     height="2.7840595"
     x="-0.85495335"
     ry="0.75877035"
     y="9.3764849"
     style="opacity:1;fill:#cccccc;fill-opacity:1"
     rx="0.70866042"
     width="7.9725285"
     transform="matrix(0,1,1,0,0,0)" /><g
     id="g33"
     transform="matrix(-1.2485764,0,0,-0.9121234,56.207915,23.075674)"><g
       id="g35"><rect
         style="fill:#333333"
         x="0"
         y="0"
         width="40.318001"
         height="21.601"
         id="rect37" /></g></g><rect
     x="-16.542278"
     y="-23.037291"
     width="4.4283943"
     height="2.527"
     id="rect39"
     transform="scale(-1,-1)" /><rect
     x="-23.269182"
     y="-5.9096227"
     width="5.1890001"
     height="2.5280001"
     id="rect41"
     transform="scale(-1,-1)" /><rect
     x="-49.692261"
     y="-23.075674"
     width="5.5706444"
     height="2.527"
     id="rect44"
     transform="scale(-1,-1)" /><rect
     x="-13.41359"
     y="54.522831"
     width="5.191"
     height="1.7054371"
     id="rect48"
     transform="matrix(0,-1,1,0,0,0)" /><rect
     transform="scale(-1,-1)"
     id="rect33883"
     height="2.4099643"
     width="2.784585"
     y="-5.7715125"
     x="-12.148764" /></svg>