<?xml version='1.0' encoding='UTF-8' standalone='no'?>
<svg
  xmlns="http://www.w3.org/2000/svg"
  xmlns:xlink="http://www.w3.org/1999/xlink"
  version="1.2"
  baseProfile="tiny"
  x="0"
  y="0"
  width="0.8in"
  height="0.8in"
  viewBox="0 0 72 72"
  xml:space="preserve">
  <g
    id="icon">
    <g
      fill="#111111">
      <!-- plastic body, full matrix -->
      <rect
        x="0"
        y="0"
        width="72"
        height="72"
      />
    </g>
    <!-- offset origin to the center of the first (top, left) led -->
    <g
      transform="translate(4.5,4.5)"
      fill="white" stroke="none">
      <!-- circles for the matrix of LEDs -->
      <!-- top row -->
      <circle cx="63" cy="0" r="3.5" />
      <circle cx="54" cy="0" r="3.5" />
      <circle cx="45" cy="0" r="3.5" />
      <circle cx="36" cy="0" r="3.5" />
      <circle cx="27" cy="0" r="3.5" />
      <circle cx="18" cy="0" r="3.5" />
      <circle cx="9" cy="0" r="3.5" />
      <circle cx="0" cy="0" r="3.5" />
      <g transform="translate(0,9)">
        <circle cx="63" cy="0" r="3.5" />
        <circle cx="54" cy="0" r="3.5" />
        <circle cx="45" cy="0" r="3.5" />
        <circle cx="36" cy="0" r="3.5" />
        <circle cx="27" cy="0" r="3.5" />
        <circle cx="18" cy="0" r="3.5" />
        <circle cx="9" cy="0" r="3.5" />
        <circle cx="0" cy="0" r="3.5" />
      </g>
      <g transform="translate(0,18)">
        <circle cx="63" cy="0" r="3.5" />
        <circle cx="54" cy="0" r="3.5" />
        <circle cx="45" cy="0" r="3.5" />
        <circle cx="36" cy="0" r="3.5" />
        <circle cx="27" cy="0" r="3.5" />
        <circle cx="18" cy="0" r="3.5" />
        <circle cx="9" cy="0" r="3.5" />
        <circle cx="0" cy="0" r="3.5" />
      </g>
      <g transform="translate(0,27)">
        <circle cx="63" cy="0" r="3.5" />
        <circle cx="54" cy="0" r="3.5" />
        <circle cx="45" cy="0" r="3.5" />
        <circle cx="36" cy="0" r="3.5" />
        <circle cx="27" cy="0" r="3.5" />
        <circle cx="18" cy="0" r="3.5" />
        <circle cx="9" cy="0" r="3.5" />
        <circle cx="0" cy="0" r="3.5" />
      </g>
      <g transform="translate(0,36)">
        <circle cx="63" cy="0" r="3.5" />
        <circle cx="54" cy="0" r="3.5" />
        <circle cx="45" cy="0" r="3.5" />
        <circle cx="36" cy="0" r="3.5" />
        <circle cx="27" cy="0" r="3.5" />
        <circle cx="18" cy="0" r="3.5" />
        <circle cx="9" cy="0" r="3.5" />
        <circle cx="0" cy="0" r="3.5" />
      </g>
      <g transform="translate(0,45)">
        <circle cx="63" cy="0" r="3.5" />
        <circle cx="54" cy="0" r="3.5" />
        <circle cx="45" cy="0" r="3.5" />
        <circle cx="36" cy="0" r="3.5" />
        <circle cx="27" cy="0" r="3.5" />
        <circle cx="18" cy="0" r="3.5" />
        <circle cx="9" cy="0" r="3.5" />
        <circle cx="0" cy="0" r="3.5" />
      </g>
      <g transform="translate(0,54)">
        <circle cx="63" cy="0" r="3.5" />
        <circle cx="54" cy="0" r="3.5" />
        <circle cx="45" cy="0" r="3.5" />
        <circle cx="36" cy="0" r="3.5" />
        <circle cx="27" cy="0" r="3.5" />
        <circle cx="18" cy="0" r="3.5" />
        <circle cx="9" cy="0" r="3.5" />
        <circle cx="0" cy="0" r="3.5" />
      </g>
      <!-- bottom row of LED circles -->
      <g transform="translate(0,63)">
        <circle cx="63" cy="0" r="3.5" />
        <circle cx="54" cy="0" r="3.5" />
        <circle cx="45" cy="0" r="3.5" />
        <circle cx="36" cy="0" r="3.5" />
        <circle cx="27" cy="0" r="3.5" />
        <circle cx="18" cy="0" r="3.5" />
        <circle cx="9" cy="0" r="3.5" />
        <circle cx="0" cy="0" r="3.5" />
      </g>
    </g>
  </g>
</svg>