<svg xmlns="http://www.w3.org/2000/svg" height="833" width="2083"><path d="M94.78 745.518c-.367-.367-.667-1.02-.667-1.453s29.957-37.548 66.572-82.48l66.572-81.693-1.162-.718c-.64-.395-4.384-1.016-8.322-1.38s-13.78-1.994-21.87-3.624l-14.71-2.963-27.36-9.003L129.5 550.38l-21.87-14.625-23.273-22.6-12.458-17.47-10-19.874-6.605-20.164-4.5-25.962.04-41 1.664-12.388c2.192-16.32 4.857-28.075 9.57-42.212l3.867-11.6 5.203-10.4c10.14-20.267 21.308-35.403 37.27-50.51l9.443-8.937 18.752-13.466 28-13.98 21-6.79 10.5-2.093c5.775-1.15 14.55-2.546 19.5-3.1l9-1.006h33l9 1.027c4.95.565 13.435 1.93 18.857 3.032l9.857 2.005 21.287 7.108 20.258 9.854 20.742 13.784 18.297 16.054 16.703 20.106 13.5 21.512 4.172 9.5c5.404 12.303 9.387 24.047 12.38 36.5l2.404 10 3.35 25-.027 41-3.42 22-6.893 26.906-10.228 25.612-6.827 12.526c-9.394 17.237-24.7 40.2-42.606 63.956l-15.083 20-119.3 146.5H95.447l-.667-.667zM257 474.163l8.376-2.008 15.426-8.025 13.097-10.803 11.213-14.33L311 426.658l4.404-15.973-.117-22-5.286-18-3.39-6c-1.864-3.3-5.433-8.575-7.93-11.722l-4.542-5.722-13.515-11.188-18-8.913-14-2.92-20.18-.035-7.4 1.91c-13.67 3.525-23.163 8.8-34.157 18.98l-5.908 5.47-4.303 6.07c-2.367 3.34-5.51 8.476-6.988 11.416l-2.685 5.346-4.085 15.308-.102 22 3.28 13.46 2.928 6.457c3.662 8.076 7.62 13.858 14.772 21.584l5.593 6.04 8.123 5.32c9.38 6.142 16.426 9.282 25.027 11.154l6.095 1.326 20 .145 8.376-2.008zm-2.724-15.295c-.6-.724-2.638-6.687-4.526-13.25l-3.433-11.933-4.672-26 .194-57 2.785-12 5.838-.665 4.58 1.227c2.52.675 8.02 2.986 12.22 5.136l7.64 3.91 12.14 10.986 10.07 15.056 4.512 14.35v23l-4.512 14.35-10.08 15.073-12.406 11.14-15.732 7.936h-3.524l-1.093-1.317zM770.27 708.16c-3.49-.48-9.163-1.812-12.61-2.96l-6.265-2.085-4.89-3.06c-2.7-1.683-7.085-5.155-9.765-7.716l-4.874-4.656-7.774-11.843-5.346-16.157v-30l5.297-16 7.186-12 10.933-11.107 5.484-3.324c3.016-1.828 8.392-4.38 11.947-5.67l6.462-2.346 18.144-2.327 19.414 2.22 10.604 3.162 1.174 3.06-2.654 11.063-2.574 2.574-12.55-3.94-17.168-1.142-14.832 3.308-5 2.887c-6.092 3.517-10.882 8.106-14.698 14.08l-2.874 4.5-3.837 12.416-1.322 14.588 2.242 14.45 4.134 11.05 7.8 9.855 9.098 6.26 11.466 4.22 25 .014 13-4.325 1.208 1.62c.665.89 1.753 4.055 2.42 7.03l1.21 5.41-2.873 2.873-14.966 3.82-21 1.067-6.344-.874zm87.844-.007l-4.5-.945-12.18-6-10.418-11.016-5.855-12.517-2.203-15.852.697-6.074c.383-3.34 1.547-8.84 2.587-12.224l1.9-6.15 8.083-12.104 4.85-3.56c2.668-1.958 6.832-4.437 9.255-5.51l4.405-1.948 14.39-2.233 14.5 2.194 12.18 5.928 10.418 11.016 5.89 12.59 2.323 16.428-2.194 15.515-4.283 11.19-8.588 10.942-4.768 3.158c-2.623 1.737-7.27 4.095-10.33 5.24l-5.562 2.08-16.087.786-4.5-.945zm19.803-16.867c4.318-2.203 8.383-6.048 11.182-10.576l1.97-3.188 3.292-12.836-1.07-14-4.136-11-6.038-7.32-8.634-4.18h-9.637l-8.232 2.46-8.24 8.227-4.454 11.814-1.076 15.256 4.286 14.11 6.483 8.48 8.815 4.652h11.765l3.723-1.9zM1044.46 708.1c-2.834-.474-7.672-1.803-10.75-2.955l-5.597-2.094v-2.75c0-1.513.732-4.898 1.626-7.523l1.626-4.773 2.624.52c1.443.286 5.265 1.477 8.494 2.648l5.87 2.128 11.617.056 7.388-3.506 2.916-6.98-1.224-6.524-6.666-5.853-7.83-3.26c-9.333-3.885-13.837-6.66-18.142-11.182l-3.2-3.36-3.1-7.436v-11.672l5.156-10.346 3.056-2.57c1.68-1.414 4.73-3.425 6.775-4.468l3.72-1.897 13.14-2.288 14.545 2.257 8.61 3.81v1.878c0 1.033-.73 4.018-1.62 6.634l-1.62 4.756-2.666 1.023-11.168-4.178h-9.99l-6.775 2.83-2.16 4.038v7.783l4.542 4.267 7.98 3.57 11.463 5.29 3.484 1.72 9.337 9 1.598 5.432c1.983 6.74 2.008 10.323.12 16.68l-1.477 4.975-7.097 8.29-10.448 5.05-6.5 1.03c-7.404 1.172-10.386 1.163-17.653-.05zm84.446-.243l-4.708-1.33-7.924-5.49-2.628-3.792c-1.445-2.086-3.614-6.212-4.82-9.17l-2.192-5.378-.644-66.805 2.624-1.664 6.668-.015c3.668-.008 7.38.258 8.25.592l1.582.607.02 52.286 2.098 12.928 4.123 7.336 7.94 4.463 11.642-.842 8.07-5.34 5.61-9.545.61-60.95 2.39-1.52h14l2.314 1.473.593 89.03-1.525 2.468h-12.74l-3.143-3.143v-7.976l-9.5 8-9.665 4.275-14.335.827-4.708-1.33zm262.25.262l-5.457-.967-10.946-5.01-8.38-6.868-6.47-10.082-3.97-12.496-.106-20 3.32-12.8 5.467-10.2 10.464-10.594 11-5.03 13.195-2.054 13.13 2.286 9.303 4.714 8.563 9.3 2.408 5.195c1.324 2.857 2.887 7.5 3.473 10.317l1.065 5.122-.59 15.756-60.93.53-1.813 1.813 4.19 13.797 7.412 7.632 8.805 3.895 14.335 1.025 7.5-1.725c4.125-.95 8.824-1.78 10.443-1.846l2.943-.12 2.913 11.84-4.33 3.507-13.467 3.053-18 .99-5.457-.967zm26.59-62.593l-.64-4.67-4.9-8.378-5.216-3.417-10.367-2.127-8.613 2.368-8.2 7.392-2.333 5c-1.283 2.75-2.338 5.788-2.343 6.75l-.01 1.75h43.272l-.64-4.67zm-485.48 60.35l-1.094-1.318-.175-88.363 1.236-2h13.482l2.4 2.4v7.482l1.683 1.04 6.543-6.75 12.11-5.435 14.163-.236 9.198 2.675 9.74 7.36 5.495 8.964 3.068 11.92v62.366l-1.582.607c-.87.334-4.582.6-8.25.592l-6.668-.015-2.342-1.5-.658-60.98-4.228-9-2.386-2.11c-4.598-4.07-11.162-5.272-18.163-3.328l-3.777 1.05-7.28 6.39-4.166 9-.663 58.982-2.337 1.487-14.255.03-1.094-1.318zm277 0l-1.094-1.318-.176-88.363 1.236-2h13.482l2.4 2.4v8.77l4.525-3.983c5.583-4.914 9.736-6.934 17.036-8.283l5.65-1.044 4.145.67c2.28.368 5.975 1.463 8.21 2.433l4.066 1.763 9.61 10.9 10.256-10.197 7.52-3.532 11.792-2.077 11.168 2.318 9.52 6.362 6.48 9.698 3.34 10.302.867 63.567-2.434 2.933-14.255-.03-2.318-1.475-.878-59.995-2.38-7.438-2.58-3.067c-1.42-1.687-3.855-3.726-5.412-4.53l-2.83-1.464h-7.676l-8.908 4.5-2.248 3.382c-1.236 1.86-2.7 5-3.252 7l-1.005 3.618-.02 57.1-2.4 2.4h-14.355l-2.134-2.572-.602-60.928-5-9.896-5.272-3.824-8.928-1.006-9.017 3.99-5.244 6.875-3.04 8.614v56.35l-2.4 2.4h-14.355l-1.094-1.318zm246.05.12l-1.2-1.2V615.4l1.582-.607c.87-.334 4.155-.607 7.3-.607h5.718l2.4 2.4v4.8c0 2.64.157 4.8.348 4.8s2.78-2.427 5.75-5.392l5.402-5.392 5.43-1.608c2.987-.884 6.39-1.608 7.56-1.608h2.127l3.475 2.54-.592 15.96-12 1.168-6.397 3.33-2.532 3.32c-1.393 1.826-3.288 5.314-4.21 7.75l-1.68 4.43-.892 55-2.29 1.47-14.1.03-1.2-1.2zm-1047.2-131.433c-1.375-.2-6.55-.863-11.5-1.476s-9.788-1.53-10.75-2.038l-1.75-.923v-1.072c0-.6 4.23-7.436 9.4-15.215s12.54-19.64 16.38-26.36l6.98-12.218 9.473-21.564 3.98-12.5c2.19-6.875 4.514-13.62 5.168-14.99l1.188-2.49 15.956-3.308 12.865-5.227 12.48-8.13 15.634-16.442 6.642-11.24 4.77-13.716 2.335-14.953-1.134-16.274-3.26-12.726-6.846-14.326-11.167-14.016-14.342-11.48-16.215-7.64-13.42-3.112-8.382-.122c-4.6-.067-8.772-.388-9.248-.713s-3.03-4.588-5.676-9.475-7.865-13.436-11.598-19l-6.787-10.116-16.674-18.873-10-8.413c-16.5-13.88-33.704-24.422-51-31.25-4.4-1.737-8.64-3.772-9.424-4.52l-1.424-1.362 7.424-9.772c9.732-12.8 125.95-156.588 127.347-157.547l1.077-.74 128 .478v3.42l-25.028 30.8L441.81 206.38l1.254.775c.7.426 5.37 1.316 10.402 1.977s14.773 2.335 21.648 3.72l12.5 2.518 27 8.865 24.574 11.874 8.713 5.68c11.884 7.746 21.253 15.558 30.968 25.82l8.18 8.64 13.015 19.55 3.92 8.444c4.944 10.652 8.407 21.075 10.982 33.058l2.017 9.386 2.4 25-1.304 30.735-1.43 10.18c-8.002 57.002-33.43 100.455-76.224 130.25l-7.81 5.44-25.017 12.724-23.983 7.948-11 2.115c-6.05 1.163-15.05 2.56-20 3.104l-9 .99-16.5-.128c-9.075-.07-17.625-.3-19-.49zm655.594-17.974c-10.35-1.87-17.358-3.944-26.898-7.964l-7.804-3.29-15.392-9.547-20.132-20.092-3.905-6c-8.74-13.43-14.69-28.54-17.898-45.466l-1.605-8.466-1.197-23.067 2.287-22.44 2.36-9.28c1.298-5.104 3.765-12.915 5.48-17.358l3.12-8.078 10.488-17.627 17.382-18.386 7.31-5.038c12.742-8.782 26.242-14.77 41.426-18.378l8.224-1.953 24.29-1.844 23.84 1.93 19.528 5.067 18.467 8.74 14.926 10.32 15.62 16.324 3.965 6c2.18 3.3 5.446 8.925 7.257 12.5l3.292 6.5 3.382 10.5c1.86 5.775 3.992 13.875 4.737 18l1.355 7.5-.104 37-3.483 18.645-6.113 18.355-8.277 16-11.48 15.244-6.032 5.585c-12.627 11.69-26.59 19.9-43.54 25.567l-9.027 3.024-18.945 3.072-29-.17-7.906-1.428zm34.676-44.862l6.77-1.435 12.002-6.397 12.46-13.23 3.31-6.24c1.82-3.43 4.38-9.38 5.686-13.22l2.375-6.983 3.397-20.315-1.1-27.2-5.15-20-7.904-16-10.106-11.3-9.435-6.25-13.085-4.108-17 .028-13 4.056-9.68 6.142-10.017 10.43-9.635 20-1.56 6.5c-.858 3.575-2.012 9.65-2.564 13.5l-1.004 7v18l1.004 7c.552 3.85 1.708 9.925 2.57 13.5l1.565 6.5 8.877 18.52 13.206 14 14.24 6.976 5.5.885c8.044 1.295 10.752 1.243 18.27-.35zm183.538 44.49l-7.693-1.95-12.615-5.784-12.303-9.14-10.528-12.65-7.675-16-3.194-15 1.025-25 4.372-14 7.292-14 15.01-15.757 5.5-3.737c21.587-14.666 50.484-22.44 91.253-24.548l12.753-.66 1.048-1.696-2.124-13.602-5.032-10.405-9.996-8.987-11.392-4.262-16.678-2.232-22.333 2.272-20 5.22-20.873 9.95-2.31-2.555-5.167-17.5c-2.842-9.625-5.163-18.282-5.158-19.24l.01-1.74 7.75-3.885c14.53-7.284 29.467-11.776 48.75-14.662l11-1.646 32-.127 16 2.5 16 5.003 16 8.24 17.196 17.054 3.503 6.05c4.554 7.864 8.257 17.207 10.936 27.597l2.154 8.353 1.477 136 1.154 12c.634 6.6 1.348 12.563 1.585 13.25s.172 1.925-.144 2.75l-.576 1.5h-53.716l-.914-1.75c-.503-.962-1.45-5.8-2.103-10.75s-1.39-9.612-1.632-10.36l-.443-1.36-13.83 13.047-6.824 3.923c-7.677 4.414-14.987 7.436-23.824 9.848l-6 1.638-31 .735-7.693-1.95zm56.457-45.98l5.764-2.195 10.97-8.346 8.007-10.708 4.042-13.31-.548-35.983-21 .646-18.803 2.906-7.49 2.514c-9.296 3.12-14.897 6.358-20.235 11.696l-4.136 4.136-3.606 7.103-2.46 11.91 1.3 11.07 4.613 10.018 3.3 3.204c3.453 3.354 8.442 6.096 13.514 7.43l3 .788 18-.684 5.764-2.195zm363.236 46.53c-13.41-3.09-25.873-8.763-36.54-16.626l-6.54-4.82-5.5-5.812c-14.986-15.81-25.193-36.298-30.03-60.277l-1.923-9.536-1.217-30 2.308-21.187 4.94-20.406 3.594-8.703c1.977-4.787 5.64-12.152 8.143-16.366l4.548-7.663 13.512-15.867 16.492-12.427 7.6-3.8c8.407-4.198 17.468-7.32 26.6-9.166l6-1.212 27 .145 19.448 5.023 16.495 8.582 13.557 12.79V213.585l2.4-2.4 57.1.03 2.362 1.502 1.376 333.468.262 6.5-53.86.533-1.413-2.286-.66-12.624c-.363-6.943-.903-13.877-1.2-15.408l-.54-2.784-9.83 12.986-13.495 10.9-15 8.065-18 5.4-32 .682-6-1.383zm47.7-49.676l5.3-1.105 13-6.112 13.027-13.177 5.517-10.35 3.956-15.47v-53.582l-2.194-10.598-6.8-14.333-9.79-10.667-11.55-6.95-13.162-3.436-13-.086-12.814 3.02-11.727 6.25-12.88 13.652-8.004 16.547-4.51 18-.052 34 2.282 9 2.282 9 7.13 14.437 11.563 12.563 10.793 6.48 14.937 3.9 11.402.1 5.3-1.105zm191.15 50.08c-15.35-1.617-33.605-6.38-46.11-12.03l-6.26-2.828-1.138-2.966 11.46-42.152h3.754l5.72 2.885c11.774 5.936 30.817 11.15 46.222 12.657l6.5.635 15.742-2.19 9.258-4.094 5.752-5.393 3.704-8 .044-8.768-2.445-8.232-9.227-9.267-7.44-3.58c-4.092-1.968-11.93-5.184-17.414-7.146s-14.924-6.013-20.974-9.003l-11-5.435-16.21-12.847-4.505-5.862c-2.478-3.224-5.696-8.216-7.15-11.093l-2.647-5.23-2.956-12.538-.03-14.584 3.178-15.416 6.52-14 9.382-12.38 4.7-3.926c2.59-2.16 7.297-5.575 10.458-7.59l5.748-3.663 15.477-6.197 19.027-3.964 30-.016 20 3.404 10.607 3.5c5.834 1.92 12.02 4.35 13.75 5.402l3.143 1.91v1.518c0 1.328-5.166 20.783-9.628 36.26l-1.514 5.25h-3.925l-4.805-2.435c-6.622-3.357-16.213-6.485-25.128-8.197l-7.5-1.44-17.477-.037-11.23 3.54-8.653 7.616-2.33 7.062.076 9.767 1.662 3.213c.914 1.767 3.077 4.53 4.808 6.14l3.146 2.927 7.5 3.793c4.125 2.086 13.045 5.873 19.823 8.415l12.323 4.622 19.688 10.113 13.12 9.932 10.38 12.468 6.56 14 3.107 15.416v14.17l-3.064 15.416-8.24 17-16.194 16.17-6.05 3.516c-7.864 4.57-17.574 8.42-27.216 10.792l-7.734 1.9-19.42 2.12-9.79-.136c-5.384-.075-13.006-.475-16.937-.89zm-1192.352-2.094c-5.775-.462-14.05-1.26-18.386-1.772l-7.886-.932-1.697-2.677-.03-314.357 2.898-2.898 7.8-1.106c22.79-3.23 50.484-5.116 75.3-5.125l15.5-.006 27.07 2.05 23.044 4.68 17.184 6.9 17.616 10.865 15.294 15.086 9.336 18.914 2.92 14 .035 19.18-3.937 15.393-8.283 15.92-13.057 14.102-6.112 4.35c-3.362 2.392-8.7 5.615-11.862 7.16s-5.75 3.132-5.75 3.525 1.688 1.255 3.75 1.915 7.65 3.196 12.414 5.635l8.664 4.433 13.64 11.456 9.425 11.7 3.46 6.616c1.904 3.64 4.376 9.422 5.495 12.853l2.034 6.237 2.334 20.073-2.283 19.356-5.963 17.798-8.19 14.024-14.137 14.882-13.143 9.908-18 8.8-8.227 2.57c-11.625 3.63-26.288 6.466-42.136 8.148l-13.637 1.447-62-.257-10.5-.84zm87.106-48.298c12.765-2.884 21.304-6.714 29.528-13.245l4.134-3.283 3.467-5.278c1.907-2.903 4.22-7.303 5.14-9.778l1.673-4.5 1.688-14-1.804-14-6.95-14.316-11.148-10.19-14.414-6.933-17.92-4.477-47-.085v101l11 1.31 36-.733 6.606-1.493zm-2.205-149.55l8.4-2.076 12.48-5.956 9.873-8.877 6.208-11.647 2.515-13.65-2.424-14.134-6.322-11.86-8.272-6.778-5.43-2.485c-2.987-1.367-8.355-3.29-11.93-4.277l-6.5-1.792H784.42l-3.306 2.745v82.422l1.5 1.577 42-1.133 8.4-2.076zm642.616 194.716c-.23-.687-.68-50.3-.998-110.25l-.798-116-.22-7 51.866-.535 1.56 1.56.578 13.987c.318 7.693.83 16.44 1.134 19.437l.556 5.45 8.2-15.71 16.366-17.19 12.74-7.55 16-5.197 21-.102 4.53 2.437-.53 56.413-3.5-.178c-1.925-.098-7.775-.265-13-.37l-9.5-.194-4.968 1.175c-2.733.646-7.746 2.5-11.14 4.12l-6.17 2.945-11.242 11.242-7.914 16.26-3.064 15.416v127.92l-1.214 3.164h-59.85l-.42-1.25z" fill="#f1ced0"/><path d="M95.705 744.332l-.527-.853 66.468-81.582 66.468-82.647c0-.586-.2-1.065-.466-1.065-2.826 0-25.697-3.7-35.034-5.652l-12-2.522-27-8.877-24.016-11.83-8.492-5.668c-12.1-8.076-20.872-15.46-30.427-25.6l-8.323-8.84-5.513-8.25c-10.698-16.008-17.754-32.928-21.67-51.96l-1.933-9.392-2.37-25.896.676-13.96c.84-17.333 1.98-26.772 5.047-41.727l2.396-11.687 7.213-21.627 5.366-11.186c6.546-13.646 12.434-22.923 22.243-35.048l7.47-9.234 7.166-6.65c23.53-21.83 50.325-36.364 80.666-43.747l10.5-2.555 23.963-3.128 35.037.016 8.5 1.063c12.724 1.59 26.707 4.606 37.164 8.012l9.336 3.04 11.5 5.517c12.678 6.082 17.824 9.145 29 17.262l7.5 5.447 9.84 9.595c10.798 10.528 16.694 17.57 24.578 29.35l5.2 7.755 5.308 10.745c12.16 24.617 18.058 47.15 20.666 78.95l1.13 13.794-1.283 26-3.084 21-6.7 26-3.632 9.476c-14.604 38.103-36.562 70.444-104.576 154.025l-85.43 105H96.232l-.527-.853zM259.48 474.787l5.866-1.637 14-7.026 5.766-4.437c3.17-2.44 8.407-7.322 11.635-10.848l5.87-6.41 7.55-12.745 5.383-16v-31l-5.383-16-7.55-13-18-18.213-14-8.182-16-5.564-31-.026-17.522 6.244-11.478 6.73-20 20-8.528 16.3-4.204 15.7v23l4.102 15.308 2.704 5.346c1.487 2.94 4.4 7.82 6.45 10.846l3.747 5.5 13.73 13.205 5.92 3.786c7.1 4.542 15.923 8.242 24.08 10.098l6 1.365 25-.715 5.866-1.637zm-5.82-19.78c-2.54-6.35-7.142-25.008-9.203-37.32l-1.842-11 .02-54 2.488-11.907 2.003-2.003 11.43 2.397 15.012 7.13 18.085 18.384 6.395 13.106 3.04 12.894v15l-2.95 12.507-7.28 14.493-17.24 17.173-14.77 7.327h-3.514l-1.672-4.18zm515.955 252.08l-6-.855-6-2.125c-8.107-2.87-14.006-6.385-19.894-11.85l-4.923-4.57-7.704-11.843-5.315-16.157-.163-29 4.663-15 7.162-13 13.175-13.017 15-7.402 13-3.447 24-.055 6 1.325c3.3.73 7.237 1.96 8.75 2.736l2.75 1.412v1.796c0 .988-.732 3.944-1.626 6.57l-1.626 4.773-2.624-.49c-1.443-.27-5.774-1.204-9.624-2.078l-7-1.59-13-.006-12.538 2.956-10.223 5.18-9.572 9.572-2.495 4.923c-1.372 2.708-3.295 7.604-4.272 10.88l-1.777 5.957v22l1.777 6c.978 3.3 2.954 8.173 4.39 10.83l2.614 4.83 11.526 10.67 5.785 2.165c3.182 1.19 8.26 2.63 11.285 3.2l5.5 1.035 17.178-1.185 12.265-3.817 1.005 1.21c.553.666 1.55 3.574 2.217 6.46l1.212 5.25-1.44.935c-2.73 1.773-11.656 3.972-20.035 4.935-9.666 1.11-14.968 1.085-23.404-.118zm86.605-.483l-5.395-1.45-9.757-5.31-9.082-9.71-5.797-12.447-2.274-14.8 1.413-13.2 1.778-5.714c.978-3.143 2.917-7.658 4.3-10.034l2.532-4.32 10.23-9.568 10.962-4.848 13.977-2.308 14.5 2.336 12.2 5.94 9.42 10.07 5.894 12.595 2.383 16.352-2.37 16.26-6.315 13.7-11.66 11.12-10.71 4.903-5.313 1.008c-2.922.554-7.614.978-10.427.942l-5.114-.066-5.395-1.45zm22.875-14.907l4.913-2.5L891 680.05l3.578-10.364-.144-19-4.334-11.16-7.372-8.613-8.112-3.684-9.768-.044-8.218 2.462-9.252 9.038-4.372 11.868-1.17 12.532 2.47 12.55 1.91 3.747c1.05 2.06 3.268 5.292 4.926 7.18l3.015 3.434 8.458 4.187 11.566.002 4.913-2.5zm165.384 15.46c-2.825-.507-7.325-1.73-10-2.72l-4.864-1.8-.577-4.95 2.807-8 2.385.163c1.312.1 5.085 1.145 8.385 2.347l6 2.184 14.4-.727 5.6-4.147 2.86-8.09-2.932-7.702-3.964-2.577c-2.18-1.417-7.07-3.866-10.866-5.44s-8.957-4.247-11.468-5.937l-4.566-3.073-5.97-8.54-.813-12.76 2.485-7.53 8.146-8.837 7.2-3.672 12.856-2.33 5.372.67c2.955.37 7.52 1.31 10.148 2.09l4.775 1.418 2.572 3.1-3.434 10.895-1.2-.033c-.66-.018-3.674-.903-6.7-1.967l-5.5-1.935-10.6-.065-5.78 2.99-3.12 4.456v8.282l2.43 2.43c2.708 2.708 3.133 2.94 16.692 9.168l9.622 4.42 8.146 8.146 1.555 5.237c1.83 6.162 1.943 9.936.46 15.282l-1.085 3.91-4.977 7.52-7.647 5.3-9.695 2.924-14 .83-5.136-.92zm84.575-.27l-4.56-1.294-3.072-2.187c-1.7-1.203-4.428-3.732-6.086-5.62l-3.014-3.433-4.69-11.664-.02-67h16l1.207 60 1.138 3.5c.626 1.925 2.024 4.944 3.107 6.7l1.97 3.2 8 4.08h9.144l3.29-1.375c1.8-.756 4.895-2.784 6.857-4.506l3.566-3.13 3.722-7.488 1-61h16l1.163 89-2.163 1.47-11.1.03-2.4-2.4v-4.133c0-2.273-.296-4.43-.657-4.8l-.657-.657-9.668 9.044-9.518 4.106-14 .824-4.56-1.294zm262.6.3c-7.018-1.267-12.527-3.54-17.976-7.412l-4.706-3.346-7.815-10.4-3.884-12.574-1.274-13.766 3.026-16.854 6.255-12.705 9.744-9.744 10.813-5.29 13.36-2.214 13.775 2.462 10.584 6.346 7.584 10 4.287 11 .2 21-60.28.53-2.134 2.57 2.652 11.408 5.36 8.1 9.15 5.803 11.25 2.338 14-1.194 10.7-3.192 2.563.984 2.514 10.478-3.514 2.57-13.75 3.127-17.514.876-4.972-.897zm27.166-60.93l-.584-4.932-4.092-8.02-6.78-5.17-10.738-2.205-8.192 2.255-8.073 5.848-6.235 12.477v4.68h45.28l-.584-4.932zM933.412 705.4l-1.202-.764-.294-87.31 1.317-2.13h5.36c2.948 0 6.07.273 6.94.607l1.582.607v3.81c0 2.096.277 4.533.615 5.414l.615 1.603 8.92-8.222 11.35-5.202 16-.07 11 5.17 2.632 2.483c1.447 1.366 3.792 4.242 5.21 6.39l2.58 3.907 3.107 12.163-.53 61.837h-16l-1-61-5.596-11.396-6.644-4.106-8.78-1.203-8.593 2.314-8.2 7.392-3.643 8-.044 56.63-2.07 3.87-13.43-.03-1.202-.764zm276.99-.006l-1.21-.77-.238-87.362 1.278-2.068h11.482l2.4 2.4v8.267l1.36 1.36 7.962-8.286 11.178-5.17 15-.02 9.373 4.567 3.313 3.77c1.822 2.074 3.822 4.635 4.444 5.692l1.13 1.92 10.227-10.605 11.512-5.324 15 .028 9.18 4.147 7.582 7.582 4.686 10.235 2.014 13.938.04 54.1-2.4 2.4h-13.482l-1.618-2.5-1-62-5.006-8.94-7.994-4.528-8 .012-8.14 3.698-6.182 7.5-2.177 8.644v56.9l-1.582.607c-.87.334-3.983.607-6.918.607s-6.048-.273-6.918-.607l-1.582-.607v-55.688l-2.15-10.025-2.175-3.195c-1.196-1.757-3.34-4.056-4.762-5.1l-2.587-1.915-8.094-1.086-7.495 2.473-7.653 6.914-4.086 10.92v56.71l-1.582.607c-.87.334-4.132.6-7.25.592l-5.668-.015-1.21-.77zm245.823-.565l-1.133-1.365.52-87.77 4.934-.312c2.714-.172 5.976-.05 7.25.27l2.316.58v11.63l1.266 1.266 2.8-3.863c1.54-2.125 4.384-5.073 6.322-6.55l3.523-2.687 4.704-1.416c2.587-.78 5.725-1.416 6.974-1.416h2.27l3.143 3.143v5.347c0 2.94-.273 6.06-.607 6.93l-.607 1.582h-8.85l-7.436 3.1-6.505 6.296-3.995 10.678v52.056l-2.07 3.87h-13.685l-1.133-1.365zM403.114 573.128c-4.125-.507-9.863-1.41-12.75-2.003l-5.25-1.08v-.956c0-.526 3.976-6.906 8.835-14.18 11.808-17.674 19.166-30.348 26.405-45.48l6.013-12.57 10.518-32.172 16.067-3.355 6.1-2.468c3.36-1.357 8.663-3.977 11.783-5.822l5.674-3.355 17.095-17.095 3.355-5.674a105.7 105.7 0 0 0 5.806-11.742l2.45-6.068 2.888-15.097-.07-13.324-2.698-15.12-2.512-6.218c-1.38-3.42-4.02-8.727-5.866-11.794l-3.355-5.576-11.744-12.865-6.17-4.403c-3.393-2.422-9.48-5.99-13.526-7.928l-7.356-3.525-14.203-3.132-16.988-.44-4.172-7.78c-6.75-12.59-13.192-22.433-21.363-32.642l-7.664-9.576-8.906-8.52c-18.253-17.46-40.43-31.758-62.156-40.078l-6.25-2.393v-2.938l7.687-10.036c4.228-5.52 34.18-42.774 66.558-82.786l58.87-72.75h126.766l1.14 1.845-9.94 12.328-66.943 82.328-57.002 70 .728.746c.756.776 4.46 1.486 22.135 4.244 5.775.9 16.35 3.134 23.5 4.962l13 3.323 10 3.724c20.404 7.6 40.244 19.156 56.405 32.855l8.405 7.125 6.943 8c8.822 10.177 15.72 20.588 21.212 32l4.327 9 6.29 19.78 4.24 23.22.1 44-1.24 9c-.682 4.95-2.17 13.725-3.31 19.5l-2.07 10.5-8.53 26-11.124 22.172-14.02 20.967-9.227 9.75c-27.84 29.417-61.352 46.89-103.9 54.17l-9.5 1.626-44 .68-7.5-.922zm677.5-15.666c-15.268-.8-30.6-4.25-43.467-9.763l-8.258-3.534-16.376-10.675-13.44-12.573-9.976-13.232-9.773-19-2.55-8.126c-1.402-4.47-3.352-12.12-4.334-17l-1.785-8.874.122-37 4.35-20.377 3.107-8.812c5.398-15.308 12.846-27.742 23.6-39.397l5.78-6.263 15.073-11.206 16.086-8.37 17.92-6.003 18.922-3.4 30-.043 18.03 3.29 7.984 2.668c14.743 4.926 28.707 13.112 39.75 23.3l6.083 5.612 11.858 15.953 4.254 8.524c4.95 9.916 8.935 21.48 11.045 32.048l1.492 7.475 1.295 27.186-2.5 22.814-4.756 18.38-7.735 17.942-11.703 17.59-15.238 15.088-6.93 4.627c-3.812 2.545-10.236 6.285-14.276 8.31l-7.345 3.683-18.143 5.93-9.083 1.386c-10.02 1.53-21.397 2.25-29.083 1.84zm17.644-44.72l6.644-1.408 4.356-2.187c2.396-1.203 6.692-3.93 9.547-6.062l5.19-3.875 4.438-6.262c5.448-7.688 8.266-13.192 11.255-21.98l2.298-6.757 3.397-20.315-1.1-27.2-5.15-19.842-2.952-6.308c-5.328-11.386-12.386-19.935-21.076-25.526l-4.5-2.895-12.71-3.928h-17.426l-5.432 1.612c-2.987.886-7.457 2.64-9.93 3.896l-4.5 2.284-9.402 8.292-8.888 13.416-2.484 6c-2.92 7.052-5.283 16.248-6.682 26l-1.004 7v18l1.004 7c.552 3.85 1.706 9.925 2.564 13.5l1.56 6.5 9.773 20.306 12.736 12.925 14.824 7.265 5.5.885c8.023 1.292 10.752 1.243 18.144-.324zm195.856 44.36l-7.5-.684-6.5-1.698c-3.575-.934-9.235-2.997-12.578-4.586l-6.078-2.888-13.37-10.32-4.6-6.106c-5.54-7.37-8.495-13.046-11.57-22.222l-2.316-6.914.1-31 5.34-16 7.52-13 17.04-17 7.915-4.46c4.353-2.453 11.706-5.982 16.34-7.843l8.426-3.383 22.3-5.627 12.5-1.576c6.875-.867 18.462-1.876 25.75-2.243l13.25-.668v-11.338l-3.022-10.177-6.595-9.57-9.624-6.632-14.26-4.463-26 .068-8.682 1.725c-11.226 2.23-22.214 5.844-31.42 10.332l-7.353 3.585-2.687-1.03-10.557-35.24 1.108-2.89 6.795-3.4c13.207-6.627 28.74-11.305 47.333-14.255l10.462-1.66 35-.104 8.57 1.678c16.847 3.297 29.88 8.934 40.574 17.55l5.807 4.678 9.508 11.802 7.84 15.15 2.135 6.97c1.174 3.833 2.842 10.583 3.707 15l1.572 8.03 1.657 145 .866 5.097c.476 2.803.693 5.616.48 6.25l-.384 1.153h-52.795l-.507-2.25c-.28-1.238-1.16-6.46-1.958-11.605s-1.7-9.605-2.004-9.91l-.554-.554-5.757 5.462c-18.704 17.745-44.18 26.244-71.257 23.774zm39.465-44.45l5.885-1.533 4.93-2.683c2.71-1.475 6.856-4.38 9.21-6.452l4.282-3.77 6.44-10.035 3.79-12.174v-37.11l-30.5 1.193-7.5 1.636c-4.125.9-10.875 2.942-15 4.54l-7.5 2.903-10 7.57-6.473 9.63-2.46 8.315.072 16.034 5.475 11.96 2.175 2.315c3.192 3.397 8.49 6.435 13.66 7.83l4.55 1.227 13.08.135 5.885-1.533zm377.856 44.4l-8.18-.724-6.32-1.71c-3.477-.94-9.975-3.392-14.44-5.445l-8.12-3.734-12.762-8.665-13.516-13.702-4.853-7.193c-6.495-9.625-11.272-19.31-14.894-30.193l-2.995-9-3.742-20 .124-41 2.177-10.104c10.483-48.652 39.264-80.39 81.7-90.097l7-1.6 28 .087 19.448 5.086 16.552 8.6 6.883 6.76c3.786 3.718 7.048 6.76 7.25 6.76s.367-28.52.367-63.378V214.43l2.743-2.276 56.757.532 1.758 332 .242 7h-53l-.75-10.5-1.33-16.75-.58-6.25h-.705c-.388 0-1.558 1.463-2.6 3.25s-4.853 6.353-8.466 10.145l-6.57 6.895-14.583 9.597-15.448 5.958-7.984 1.518c-4.39.835-10.91 1.678-14.484 1.874l-6.5.356-8.18-.724zm39.586-49.407l6.407-1.5 12.16-6.45 11.026-11.026 6.55-12.346 3.95-15.448v-52.313l-2.183-11.867-6.72-14.572-12.198-12.703-11.585-6.175-12.814-3.02h-12l-12.563 2.962-4.218 2.117c-2.32 1.164-6.554 3.86-9.41 5.992l-5.19 3.875-9.157 12.832-6.004 13.24-4.05 16.452-1.142 27 3.303 18.894 4.79 13.775 6.642 11.097 11.568 11.642 12.432 6.117 13 2.815 11 .13 6.407-1.5zm188.093 48.505c-19.173-2.35-45.99-10.634-49.98-15.44l-1.178-1.42 5.494-20.135c3.022-11.074 5.774-20.415 6.117-20.758l.623-.623 2.712 1.114c1.492.612 6.312 2.707 10.712 4.654l8 3.54 19.824 5.13 18.475 2.06 16.7-2.05 12.923-6.538 5.693-9.222 1.136-11.005-3.353-10.095-9.633-9.01-5.194-2.632c-2.857-1.448-12.03-5.243-20.383-8.434-18.01-6.88-21.623-8.634-32.258-15.658l-8.068-5.33-14.217-14.967-6.953-14.648-2.194-10.598V380.1l3.132-15.416 8.147-16.96 18.22-18.216 21-10.35 15.373-3.86 20.627-2.302 9 .64c4.95.352 13.275 1.34 18.5 2.2l9.5 1.56 7.995 2.516c4.397 1.384 10.36 3.56 13.25 4.84l5.255 2.324.026 1.305c.014.718-2.348 10.024-5.25 20.68l-5.276 19.375-1.262.487-1.262.487-5.645-2.673c-8.108-3.84-18.784-7.155-27.627-8.582l-7.67-1.237-19.66.947-11.786 5.834-6.026 8.574-.768 13.587 4.15 8.133 7.42 6.115 7.07 3.44c3.888 1.89 12.695 5.562 19.57 8.157l12.5 4.718 19 9.705 13.977 11.154 8.623 10.404 6.754 14 3.146 15.416v14.17l-3.132 15.416-7.7 16-11.43 12.602-5.62 3.8c-11.316 7.672-21.346 11.83-36.62 15.18l-9 1.973-34 .82-7.5-.92zm-1172.5-1.002c-8.8-.4-21.85-1.277-29-1.952l-13-1.227-3.5-1.854V235.43l2.52-2.092 10.5-1.52c5.77-.836 16.8-2.105 24.5-2.82l14-1.3 65 .012 11.122 1.752c14.52 2.288 25.1 5.097 34.498 9.16l7.62 3.295 7.38 4.773c4.06 2.625 9.3 6.345 11.646 8.266l4.265 3.493 9.258 12.234 6.724 14.057 2.953 13.943.035 19.18-3.87 15.128-2.685 5.346c-8.033 15.995-20.107 27.603-38.196 36.723-3.437 1.733-6.25 3.334-6.25 3.556s2.362 1.172 5.25 2.1 8.625 3.45 12.75 5.58l7.5 3.877 13.45 10.12 11.188 13.38 8.685 18 3.538 14-.127 27-4.265 16-3.432 7.244c-10.1 21.34-27.36 36.773-52.09 46.602l-9.054 3.6-10.446 2.483c-5.745 1.366-15.18 3.17-20.967 4.012l-10.52 1.53-17.98.997c-19.594 1.086-24.967 1.086-48.98-.002zm66.5-46.934c3.025-.644 8.962-2.292 13.192-3.663L854 502.06l11.632-7.518 8.457-9.608 2.477-5.236c1.362-2.88 2.932-7.2 3.49-9.624l1.012-4.388v-17l-1.01-4.385c-.556-2.412-2.206-6.827-3.668-9.81l-2.657-5.425-11.116-11.05-16-7.748-17-4.312-48.518-.995.518 103.727 13 1.286 33-.586 5.5-1.17zm2.5-150.472c3.3-.948 8.81-3.058 12.246-4.69l6.246-2.966 11.607-10.746 5.284-10.79 2.494-13.537-2.373-13.84-4.193-8.92-7.722-8.773-13.59-7.065-14-3.73h-45l-5.5 1.538v86.144l48.5-.9 6-1.723zm641.18 193.79l-.68-.68-.052-167.167-1.87-63.9 1.1-1.1h49.667l1.24 1.24.936 18.38.964 20.63.028 2.25.75-.004c.413-.002 1.58-2.025 2.597-4.495 2.68-6.518 9-15.913 14.956-22.272l5.197-5.538 14.74-9.68 16.26-5.26 19-.224 5.532 1.518-.532 55.454-26-.62-11.85 3.185-10.15 5.4-12 12.052-3.17 6.49c-1.744 3.57-3.97 9.19-4.95 12.49l-1.778 6-1.103 136-58.137.53-.68-.68z" fill="#e39da0"/><path d="M96.66 744.26l-.572-.925 64.137-78.825 66.643-81.515 2.505-2.7-1.1-2.87-6.83-.708c-3.756-.39-12.68-1.787-19.83-3.107-35.817-6.6-63.494-17.95-88.5-36.258l-7.5-5.49-18.67-18.186-5.262-7c-2.894-3.85-7.363-10.6-9.932-15l-4.67-8-7.97-20.36-2.062-8.683c-1.134-4.776-2.7-13.47-3.478-19.32l-1.416-10.636-.037-31 3.097-27 5.06-22.766 6.998-20.234 10.67-22 11.938-18 7.53-8.61c13.465-15.394 30.066-28.76 48.204-38.81l9-4.987 20.693-8.28 11.332-2.862c6.232-1.574 16.426-3.643 22.653-4.598l11.322-1.736 40-.04 9.5 1.316c5.225.724 14.85 2.657 21.386 4.295l11.886 2.98 8.686 3.315c12.538 4.785 23.29 10.41 35.144 18.387l10.398 6.998 7.86 6.955c4.323 3.825 10.99 10.492 14.816 14.816l6.955 7.86 14.003 20.81 4.537 9.034c8.917 17.755 15.493 38.93 18.84 60.657l1.617 10.5 1.147 36.17-2.358 22.83-4.963 24.675-8.105 24.325-6.374 13.287c-12.963 27.02-32.782 56.814-63.336 95.213L223.89 743.435l-1.997 1.75H97.232l-.572-.925zm161.954-268.607l6-1.59 16.165-7.924 13.31-10.98 10.905-13.22 6.922-13.255 4.39-14 1.003-22-1.53-7.178c-1.848-8.676-5.3-17.456-9.812-24.955l-3.355-5.576-11.57-12.674-12.43-9.42-14-6.52-12.887-3.333-17.113-1.074-17.097 2.986-6.23 2.517c-3.427 1.384-8.794 4.026-11.928 5.87l-5.697 3.355-18.25 18-8.182 14-5.524 16-.09 29 3.5 12.663 7.06 14.068 4.346 5.635c11.443 14.838 26.794 25.33 43.152 29.493 9.112 2.32 11.145 2.508 22.442 2.09l10.5-.4 6-1.59zm-5.913-25.718c-5.6-18.68-7.952-31.314-9.686-52.25l-1.16-14 .565-12c.31-6.6 1.102-16.156 1.758-21.234l1.193-9.234 2.417-2.006 5.912 1.535c3.252.844 8.162 2.573 10.912 3.842l5 2.308 12.407 9.4 4.916 6.2c5.906 7.448 9.672 14.667 11.685 22.393l1.492 5.727v19.16l-1.492 5.727c-1.858 7.132-5.103 13.604-10.38 20.704l-4.08 5.5-12.548 10.583-11.82 5.917h-4.616l-2.478-8.25zM765.186 705.7l-6.428-1.46-14.783-7.02-12.697-12.192-7.22-13.74-3.944-15.42v-22.36l4.004-15.82 6.496-13 14-14.202 17-8.336 15-3.154 24 1.016 10.683 2.93 2.835 2.835-1.642 4.955c-.903 2.725-1.95 5.3-2.33 5.724l-.686.77-4.14-1.46c-2.277-.803-7.627-1.945-11.9-2.538l-7.75-1.078-16.082 2.135-14.563 6.835-9.437 9.695-2.742 5.608c-1.508 3.084-3.42 8.213-4.25 11.397l-1.508 5.79v20.16l1.492 5.727c.82 3.15 2.65 8 4.063 10.8l2.57 5.073 8.26 8.96 4.343 2.545c2.39 1.4 7.14 3.435 10.558 4.523l6.214 1.978 21-.073 14-4.03 2.418 3.186 1.323 8.822-.576.576c-.317.317-3.633 1.456-7.37 2.532l-6.795 1.956-27 .818-6.428-1.46zm88.928-.39c-7.085-2.277-12.484-5.74-17.58-11.277l-4.08-4.433-5.113-10.915-2.23-10.598v-14.48l1.532-5.96c.842-3.278 2.72-8.33 4.173-11.228l2.64-5.268 10.3-9.742 4.427-2.263c2.435-1.245 6.677-2.864 9.427-3.6l5-1.336 13.08-.024 11.6 3.022 8.607 5.044 9.35 9.995 2.306 5.22c1.268 2.87 2.875 7.765 3.57 10.876l1.264 5.656-1.016 19.687-4.24 10.954-7.35 10.673-11.044 7.91-12.835 3.964-16.29-.108-5.5-1.767zm26.753-13.79l4.567-2.836 6.693-9.737 3.21-11.04V653.46l-3.205-11.024-6.517-9.7-6.802-4.557-8.087-2.178-10.598 1.324-9.448 6.358-5.398 7.995-1.537 5.502c-.845 3.026-1.8 7.425-2.1 9.775l-.562 4.273 2.14 13.454 6.498 11.865 7.15 5.787 7.745 2.883 11.686-.86 4.567-2.836zm159.747 14.328c-2.75-.71-6.35-1.955-8-2.77l-3-1.482.165-2.534c.09-1.394.847-4.168 1.68-6.164l1.517-3.63 12.637 5.162 12.495 1.027 9.174-3.504 3.823-6.27v-8l-3.73-6.118-5.38-2.614-13.066-6.213-7.685-3.6-7.95-9.03-2.394-9.978.7-3.676c.955-5.092 3.772-10.298 7.59-14.032l3.23-3.157 9.148-4.3 15.054-1.03 11.05 2.297 6.303 3.833-3.236 10.118h-1.687c-.928 0-3.284-.667-5.235-1.483l-3.548-1.483-10.823-1.272-9.183 4.062-3.142 6.076v6.03l6.023 6.86 20.188 8.52 9.46 7.477 3.72 7.714.83 12.302-1.162 3.52c-.64 1.936-2.46 5.314-4.05 7.506l-2.888 3.986-13.24 6.52-20.38.62-5-1.288zm88.494.458c-1.38-.45-3.915-1.547-5.636-2.437l-3.13-1.618-8.272-9.397-4.437-14.17-.02-62h16l1.005 62 4.795 9.67 7.865 5.205 12.335-.035 4-2.073c4.234-2.194 7.037-4.887 10.118-9.72l1.882-2.953 1-62.093h16l.52 88.592-13.5-.592-.78-5.435c-.428-2.99-.985-5.64-1.236-5.892s-2.36 1.446-4.686 3.772l-4.23 4.23-10.09 5.18-17 .588-2.506-.82zm258.03-.726l-5.476-1.47-4.376-2.565c-2.407-1.41-6.175-4.363-8.373-6.56l-3.997-3.997-5.792-12.376-2.233-11.926 1.004-17 4.34-13 7.546-11 9.833-7.545 13.738-4.222 16.793 1.048 10.898 5.332 7.882 8.955 4.37 9.294 1.393 6.57c.766 3.613 1.4 8.51 1.4 10.885l.017 4.316-2.07 3.87h-61.21l1.146 11.105 5.802 10.395 9.517 6.473 8.103 2.182 15.71-.103 14.06-3.394.89.92c.49.506 1.19 2.987 1.56 5.512l.672 4.59-2.84 1.167c-1.562.642-6 1.83-9.84 2.64l-7 1.474-18-.097-5.476-1.47zm32.808-56.246l.333-2.35-3.345-10.3-5.104-6.738-8.982-3.973-13.48.762-8.097 5.61-2.483 3.752c-1.366 2.063-3.22 5.926-4.123 8.583l-1.64 4.83 1.04 2.71 45.548-.538.333-2.35zm-487.05 18.39l-.28-51.042 13.244-.586.614 2.293c.338 1.26.62 3.98.628 6.043l.014 3.75h.646c.355 0 2.845-2.057 5.533-4.57l4.886-4.57 9.402-4.16 13.182-.943 11.217 3.26 8.633 6.57 6.49 12.91 2.066 14-.555 54h-16l-1-62-1.867-3.5c-2.46-4.6-5.473-7.847-9.027-9.695l-2.894-1.505h-11.4l-8.002 4.082-3.222 3.67c-1.772 2.02-3.753 4.858-4.402 6.31l-1.18 2.64-1.007 60-15.5.584-.22-37.542zm277.002-.542l-.283-50.5h12.98l.864 5.5c.475 3.025 1.025 5.67 1.223 5.88s2.413-1.735 4.925-4.32l4.567-4.7 9.44-4.34 17 .004 8.136 4.33 3.432 3.902c1.887 2.146 3.956 4.766 4.596 5.822l1.165 1.92 9.217-10.375 11.454-5.625h17l7.934 3.934 7.15 7.15 4.235 9 2.276 11.906-.595 58h-15l-1-61-5.24-11.177-7.75-4.8h-11.205l-8.287 5.484-4.983 7.53-2.034 10.726v53.727H1266.3l-.875-60.5-3.4-9.186-6.42-6.2-9-2.36-8.106 2.217-8.1 6.942-4.735 10.587-.73 58.5h-14.82l-.217-38zm246.875 37.256c-.282-.455-.618-20.387-.747-44.292l-.235-43.464 13.048-.585.627 3.793c.345 2.086.632 5.255.638 7.043l.01 3.25h1.95l2.984-5.77 9.047-7.963 8.644-2.42 6.876.655.588 14.5-1.294.115c-.712.063-2.09.034-3.06-.066s-4.13.505-7.015 1.344l-5.247 1.525-6.37 6.58-4.602 10-1 56-14.33.584-.512-.828zM412.114 573.226c-5.225-.438-12.874-1.322-16.997-1.966l-7.497-1.17-1.746-1.746 9.494-14.33c5.222-7.88 12.697-20.002 16.612-26.935l7.118-12.605 9.778-22.8 3.73-12 4.077-13.22.347-1.22 2.293-.45c1.26-.247 5.443-1.156 9.293-2.02l7-1.57 18-8.925 12.373-10.222 10.15-12.373 8.04-15.427 4.093-15.573v-23l-4.093-15.573-8.118-15.604-10.803-13.097-14.423-11.285-14.22-6.794-13-3.38-19.987-1.265-5.124-9.6c-20.865-39.085-53.572-69.176-93.89-86.38-6.05-2.582-11.187-4.88-11.415-5.106-.726-.72 13.798-19.067 74.152-93.665l58.858-72.75H573.28l-.333.947c-.183.52-30.033 37.454-66.333 82.074l-66 81.126v3.29l4 .704 17.5 2.867c24.695 3.957 44.966 10.144 65.5 19.99l10 4.796 9.5 6.238c39.9 26.197 62.4 61.608 68.56 107.946l1.4 10.522.04 31.153-2.126 21.847-4.968 25-7.96 24-5.378 11c-9.716 19.87-20.444 34.475-36.732 50l-9.442 9-18.894 13.47-26 12.92-21 6.91-10 2.05c-13.3 2.728-24.292 3.972-40 4.527l-13 .46-9.5-.796zm658.5-17.098c-3.85-.52-11.498-2.093-16.997-3.497l-9.997-2.552-9.126-4.323c-5.02-2.378-11.996-6.244-15.503-8.59l-6.377-4.268-19-19.292-10.488-17.763-3.103-8.047c-3.805-9.867-6.432-19.943-7.84-30.075l-1.068-7.678v-26.1l3.146-21.2 6.048-19.067 3.787-7.634c5.12-10.324 10.9-18.653 18.712-26.924l6.518-6.9 6.644-4.924c3.654-2.708 10.02-6.74 14.144-8.96l7.5-4.035 9-2.986c4.95-1.642 12.6-3.73 17-4.64l8-1.654 27-1.1 9 1.178c4.95.648 12.6 2.124 17 3.28l8 2.102 17.19 7.346 14.734 9.795 13.543 12.776 4.924 6.644c2.708 3.654 6.742 10.02 8.964 14.144l4.04 7.5 7.054 21.104 3.302 20.846-1.106 37.05-1.65 7.5c-3.673 16.7-10.407 32.454-19.187 44.9l-4.667 6.6-14.318 14.22-7.412 5c-8.993 6.067-17.02 10.17-26.678 13.64l-7.266 2.61-20.467 4.196-26 .722-7-.944zm32.41-43.837l6.087-1.895 10.018-6.428 12.733-13.753 7.146-14.53 5.082-17.638 2.32-22.878-2.217-21.484-4.058-16-9.128-18.542-11.887-12.707-13.505-7.072-12.632-2.465-15.562 1.2-11.805 4.344-11 7.394-9.64 11.848-7.784 16-4.058 17.105-2.113 20.59 2.12 22.305 1.862 7c3.52 13.236 8.054 22.58 15.08 31.084l3.753 4.542 5.4 4.074c5.793 4.38 9.79 6.356 16.9 8.355l4.5 1.267 16.322.18 6.087-1.895zm183.7 43.362l-7.88-1.494-5.898-2.382c-3.244-1.3-8.448-3.892-11.566-5.737l-5.668-3.355-12.332-12.19-8.14-13.81-3.97-12-2.39-16.47 2.28-19.344 5.076-15.187 8.9-14.32 15.644-14.68 15.593-8.88 9.116-3.428c5.014-1.885 13.27-4.484 18.348-5.774l9.232-2.345 23.536-3.27 30-1.304-.226-15.22-5.376-11.78-8.4-8.668-4.733-2.424c-2.603-1.333-7.328-3.11-10.5-3.95l-5.767-1.527-24-.004-8.5 1.577c-4.675.867-12.153 2.718-16.62 4.113l-8.12 2.536-15.763 7.71-.96-.94c-.528-.518-3.29-8.7-6.14-18.182l-5.18-17.24 2.97-3.364 9.156-4.007c15.107-6.612 32.332-11.036 50.867-13.065l9.71-1.063 22.58.012 19.607 2.955 18.393 6.135 14 8.212 15 15.27 3.355 5.68c6.725 11.384 11.058 25.1 13.037 41.236l1.103 9v112.34l1.166 15.33 1.25 18.33.084 3-50 .49-2.447-1.574-3.22-21.914-1.79-1.858-6.27 5.986c-7.84 7.484-13.88 11.628-23.28 15.97l-7.357 3.4-16.636 4.052-23 .913-7.88-1.494zm44.65-41.937l6.77-1.435 12.404-6.596 10.35-10.34 6.23-12.66 1.963-12-.02-30-1.785-2.82-27.685 1.315-9 1.897c-4.95 1.043-11.54 2.86-14.646 4.035l-5.646 2.138-12.228 7.903-6.48 9.126-3.417 9.406-.084 15.137 2.98 10.036 5.935 8.194 9.35 5.48 5.116 1.242c2.814.683 6.917 1.272 9.117 1.31l4 .068 6.77-1.435zm379.23 42.865c-1.65-.244-6.326-1.153-10.39-2.02l-7.39-1.575-13.665-5.56-15.343-9.563-15.55-15.362-11.58-17.767-7.616-17.666-2.4-9.235c-1.32-5.08-2.886-12.735-3.48-17.013l-1.082-7.778v-32.657l3.89-22.76 6.342-18.94 3.792-7.5c2.085-4.125 6.063-10.718 8.84-14.65l5.05-7.15 13.518-13.518 17.563-11.532 7.998-3.084c4.4-1.696 10.813-3.775 14.253-4.62l6.255-1.535 24-1.142 18.678 3.262 14.902 5.786 13.03 8.49 10.843 11.982 1.05-2.788.498-127 56.868-.532 1.525 1.532.34 337-49.598.536-1.763-1.763-2.202-33.273-2.17.004-2.852 4.515c-1.57 2.483-5.523 7.227-8.787 10.542l-5.934 6.027-13.78 8.914-15.345 6.144-13.303 2.87-11 .412c-6.05.226-12.35.212-14-.032zm41-48.584l5-1.057 13.34-6.92 12.192-12.697 7.112-14.976 3.046-17.653-.926-51.01-1.478-5c-.813-2.75-2.785-7.672-4.383-10.94l-2.905-5.94-10-10.96-10.227-6.55-12.773-4.424-20 .048-13 4.42-9.196 5.858-12.393 12.906-8.697 18.58-1.604 6.5c-.882 3.575-2.13 11.338-2.77 17.25l-1.166 10.75 1.18 10.75c.648 5.913 1.877 13.45 2.73 16.75l1.552 6 7.91 16.475 12.288 13.136 4.34 2.543c2.386 1.398 6.7 3.443 9.584 4.544l5.245 2 13 1.507 4-.42c2.2-.23 6.25-.894 9-1.475zm187 47.5c-15.047-1.952-30.724-6.193-42.75-11.564l-6.75-3.015v-1.586c0-.873 2.322-10.262 5.16-20.866l5.16-19.28 1.1.002c.6.001 5.14 1.75 10.1 3.884 10.863 4.685 19.995 7.444 32 9.668l9 1.667 23-.983 9.865-3.55 10.433-10.188 2.28-11.19-1.066-4.757c-1.467-6.548-3.21-9.595-7.917-13.848l-4.035-3.646-6.24-3.15c-3.43-1.732-12.005-5.33-19.052-7.997l-12.813-4.847-19.456-10.006-14-11.104-9.385-11.28-2.996-6.088c-1.648-3.348-3.463-8.112-4.033-10.587l-1.036-4.5-.02-20 3.023-12.824 5.92-12.407 9.686-12.464 13.5-10.825 16.598-8.034 19.744-5.093 28-1.106 22.53 3.326 8.56 2.48c4.708 1.364 11.114 3.554 14.235 4.867l5.675 2.387.62 4.057-3.64 13.318-5.132 18.568-1.493 5.25h-1.21c-.665 0-5.02-1.61-9.68-3.575l-8.47-3.575-17-4.2-23-.14-8.118 2.468-9.255 6.13-5.127 10.288.01 4.054c0 2.23.487 5.787 1.075 7.905l1.07 3.85 8.637 8.637 8.356 4.007c4.596 2.204 13.98 6.117 20.856 8.696s16.1 6.544 20.5 8.81l8 4.123 15.39 11.6 9.076 11.433 5.964 12.106 3.04 12.894v21l-3.055 13-7.123 14.437-12.08 13.185-5.606 3.8c-7.95 5.4-14.342 8.446-24.102 11.523l-8.496 2.678-19.008 2.865-16-.144c-8.8-.08-17.35-.32-19-.533zm-1174.5-.942c-11.488-.57-40.092-3.308-41.103-3.932l-.897-.555v-314.93l2.338-.89c3.223-1.225 24.308-3.803 41.162-5.032l14-1.02 52.012-.008 24.988 2.93 19.412 4.932 8.452 3.96c4.65 2.178 11.756 6.097 15.794 8.707l7.342 4.747 12 12.36 6.642 11.194 4.933 14.184 2.095 17.125-2.268 17.04-2.324 6.4c-1.278 3.52-3.843 8.927-5.7 12.014l-3.377 5.613-11.656 12.768-16.55 11.012-10.363 4.307.622 1.867 17.31 6.512 5.637 3.413c3.1 1.877 8.294 5.562 11.542 8.188l5.905 4.775 10.08 12.45 7.853 16 3.526 13 .085 30-1.76 6.38c-4.04 14.643-9.76 25.45-18.735 35.396l-5.5 6.095-14.067 11.18-16.092 8.372-8.92 2.984c-11.994 4.012-24.955 6.808-40.236 8.678l-12.685 1.553-27 .3c-14.85.166-30.375.133-34.5-.072zm61.297-44.882l7.797-.58 17.353-5.03 11.38-6.066 10.16-9.313 6.893-11.687 3.118-13.708-.03-12.605-3.023-12.827-5.263-9.67-11.58-11.045-16.78-8.05-19.826-4.224-45-.182-.518 102.882 2.1 2.1 13.204.582c7.262.32 15.23.45 17.704.287l12.297-.874zm9.847-151.273l7.644-2.077 11.923-6.02 11.24-10.274 6.548-13.3v-24.042l-5.376-11.472-9.746-9.746-12.878-6.086-16-3.696-40 .223-8 1.866-.522 84.91 1.04 2.71 46.482-.92 7.644-2.077zm642.075 192.55l-1.05-1.267-.668-230.497h24.75l24.884.25c.074.137.636 9.664 1.25 21.17l1.116 20.92 2.205.727 2.128-5.12c1.17-2.816 4.157-8.173 6.638-11.904l4.5-6.784 13.53-12.76 6.994-3.627c3.847-1.995 9.47-4.463 12.494-5.485l5.5-1.858 23.57-.03 1.917 3-.488 52-23-.693-13.794 3.232-12.184 6.46-11.117 11.263-6.454 12.11-4.384 15.628-1.067 134-56.23.53-1.052-1.267z" fill="#de7c82"/><path d="M97.134 743.435c.01-.413 29.757-37.2 66.1-81.75l66.603-82.293c.287-.71.354-1.452.15-1.645s-7.35-1.34-15.874-2.55l-15.5-2.2-30-7.61-9.5-3.738c-18.925-7.447-33.572-15.56-48.5-26.86l-8-6.056-17-17.195-11.578-16.186-9.932-19.507-3.415-10.58c-1.878-5.82-4.125-14.338-4.993-18.932l-1.58-8.35-2.09-27.793 2.19-33.22 1.972-11.143c2.68-15.145 6.324-27.884 12-41.95l4.764-11.807 9.662-16.994 15.263-20.392L117.69 255.5l8.255-6.12c4.54-3.366 12.623-8.59 17.96-11.605l9.706-5.484 10-4c13.14-5.244 25.392-8.738 39.5-11.266l11.5-2.06 39-1.02 10.404 1.133c5.722.623 14.947 2.053 20.5 3.177l10.096 2.044 10.5 3.5c18.525 6.173 34.53 14.645 50.48 26.72l8.02 6.073 18.096 18.096 6.073 8.02c11.11 14.676 19.32 29.585 25.718 46.717l3.637 9.738 5.822 23.842 3.407 25.682.004 39-1.7 11c-2.338 15.126-4.924 25.817-9.795 40.5l-4.147 12.5-15.535 31-8.79 13.725c-19.103 29.83-28.844 42.448-104.998 136.025l-58.39 71.75h-125.9l.02-.75zm160.57-267.25l7.9-2 14-6.947 13.72-10.38 11.765-14.175 8.077-15.427 4.17-15.573v-23l-4.17-15.573-8.14-15.648-11.693-13.89-14.73-11.27-13.07-6.107-16.842-4.26-26.087 1.03-6.467 2.204c-18.447 6.285-32.432 17.18-43.657 34.013l-4.335 6.5-5.98 16.39-2.322 18.11 2.322 18.11 5.744 15.74 4.44 6.826c2.442 3.754 6.546 9.153 9.12 11.998l4.68 5.172 13.647 10.117 12.85 6.013 14.96 3.916 22.18.1 7.9-2zm-3.392-23.21c-2.798-7.494-6.902-24.554-8.73-36.3l-1.558-10-1.2-38.008 1.228-11.915c.676-6.553 1.646-13.013 2.156-14.354l.927-2.44 3.734.694c2.053.382 6.098 1.522 8.987 2.534l5.254 1.84 13.7 9.108 4.17 4.525c2.294 2.49 5.975 7.317 8.18 10.73l4 6.204 4.4 14.083v21l-4.49 14.35-10.07 15.055-11.418 10.07-6.5 3.398c-3.575 1.87-7.473 3.692-8.663 4.052l-2.163.654-1.975-5.3zm516.963 253.183c-8.032-1.103-15.075-3.384-22.53-7.297l-5.868-3.08-11.263-11.097-7.33-13.998-3.57-13v-26l3.572-13 8.017-15.437L746.4 589.95l14.214-6.712 13-3.4 22-.032 7.5 1.717c4.125.944 8.12 2.106 8.877 2.582l1.377.864-2.5 10.38-2.728 1.047-9.536-3.35-20-1.103-6.177 1.587c-3.397.873-8.292 2.58-10.876 3.796l-4.7 2.21-11.44 10.6-6.388 12.975-2.922 15.272v10.648l2.91 15.214 7.384 14.052 9.205 8.12 9.462 4.806 12.538 2.956 13.584.03 7.708-1.646c4.24-.905 8.585-1.693 9.656-1.75l1.95-.104 2.823 9.866-3.2 2.34-15.52 3.2-17 .927-6.34-.87zm86.34-.294c-2.75-.706-7.122-2.344-9.715-3.64l-4.715-2.357-4.063-3.904c-4.64-4.458-7.897-9.368-10.348-15.596l-1.7-4.32-2.067-14.86 2.14-15.5 6.826-14.412 9.24-9.24 12.4-5.776 14.15-2.173 12.287 1.98 4.78 2.107c2.63 1.16 6.507 3.3 8.615 4.755l3.834 2.648 7.867 10.987 3.755 12.158 1.358 12.966-2.195 13.548-4.1 10.956-8.018 10.143-4.62 2.93c-2.54 1.61-7.073 3.848-10.07 4.97l-5.45 2.04-15.195.875-5-1.283zm20.5-12.354l3.5-1.422 7.673-7.402 4.64-9.067 2.466-12.533-.614-6.2c-.833-8.41-2.05-12.26-5.898-18.678l-3.268-5.45-9.805-6.048-14.195-.694-11 5.76-7.45 10.912-3.05 11.92v12.16l3.066 11.92 7.163 10.478 3.586 2.216c1.972 1.22 5.634 2.768 8.136 3.44l4.55 1.225 3.5-.557c1.925-.306 5.075-1.197 7-1.98zm166.716 12.623l-5.784-.884-9.182-4.062.552-2.75c.304-1.513 1.04-4.034 1.64-5.603l1.087-2.852 1.736.716c.955.394 4.21 1.608 7.236 2.7l5.5 1.982 13.065.082 2.967-1.543c1.632-.85 4.017-2.667 5.3-4.04l2.332-2.497 1.056-7.87-1.515-2.913c-.833-1.602-2.597-3.923-3.92-5.158l-2.404-2.245-18.28-7.814-8.88-6.378-5.22-9.59v-10.837l5.207-10.45 3.202-2.442c1.76-1.343 5.42-3.423 8.13-4.62l4.927-2.18 16.036-.047 5.5 1.664c3.025.915 6.144 2.083 6.932 2.594l1.432.93-1.18 3.83c-.648 2.106-1.542 4.388-1.986 5.072l-.808 1.243-11.34-3.986h-11.248l-6.685 3.172-1.4 2.164c-.77 1.2-1.704 3.398-2.075 4.905l-.675 2.742 2.79 6.68 5.222 4.107 19.817 8.362 8.273 7.08 3.74 7.332 1.39 9.26-3.385 11.643-8.313 8.254-11 4.06-14 1.067-5.784-.884zm85.235-.247c-2.502-.71-6.167-2.288-8.143-3.5l-3.594-2.22-5.408-7.1-4.3-11.38v-65h14l1.168 60 3.49 9.41 7.724 6.978 7.244 1.36 8.958-1 9.364-5.79 6.053-9.784 1-61.163 12.797-.603 1.572 1.603.457 87-10.488.6-2.838-2.355v-9.637l-2.135-1.32-6.948 8.118-12.417 6.113-13 .96-4.55-1.29zm264.55.643c-1.65-.24-5.475-1.128-8.5-1.972l-5.5-1.534-9.445-6-6.35-7.232-5.62-12.095-1.877-15.386 1.65-14.72 1.973-5.19c1.085-2.855 3.117-7.144 4.515-9.53l2.543-4.34 8.04-7.263 9.864-5 13.224-2.113 5.828.94c3.205.516 7.45 1.616 9.43 2.444l3.604 1.506 9.422 8.653 5.633 11.87 2.166 10.43-.6 12.698-59.832.53-2.786 2.312.666 4.08c.366 2.243 1.57 6.206 2.672 8.806l2.006 4.727 8.64 7.963 7.635 3.27 16 1.007 7.5-1.672c4.125-.92 8.144-1.75 8.93-1.846l1.43-.174 2.66 9-3.26 2.394-13.263 2.934-8 .477c-4.4.262-9.35.28-11 .04zm25.5-58.217v-3.874l-1.443-4.088c-.793-2.25-2.408-5.395-3.59-6.992l-2.146-2.903-7.61-4.278-9.182-1.26-9.53 2.657-10.147 10.128-1.676 4.92c-.922 2.706-1.676 5.964-1.676 7.242v2.322h47v-3.874zM933.59 703.98c-.273-.713-.38-20.646-.236-44.296l.26-43h12l1.01 11.345 1.54 1.54 9.19-9.323 8.328-4.03 10.93-2.117 12.45 2.305 8.967 5.687 5.97 8.24 3.613 10.356v64h-14l-1.102-60-1.337-3.5c-.735-1.925-2.46-5.01-3.833-6.86l-2.496-3.36-8.232-3.738-9-.024-10.082 4.695-2.86 3.393c-1.573 1.866-3.575 4.968-4.45 6.893l-1.588 3.5-1.02 59-13.527.592-.497-1.296zm277 0c-.274-.713-.38-20.646-.236-44.296l.26-43 9.655-.616 2.845 2.36v9.637l2.136 1.32 7.032-8.216 8.63-5.058 11.7-1.935 10.312 2.1 8.707 5.767 2.885 4.565c1.587 2.51 3.158 4.56 3.49 4.552s2.74-2.448 5.35-5.424l4.746-5.412 10.972-5.368 14.536-.165 10 4.484 6.328 6.123 5.132 11.436 2 13.84.04 52.255-2.83 2.35-11.67-.605-1.06-59-2.76-8.515-6.71-7.84-7.2-2.377-9.718.934-7.94 5.254-5.61 9.545-1 62h-14l-1-62-4.262-9.217-7.582-5.783h-13.483l-8.465 6-6.208 11-1 60-13.527.592-.497-1.296zm246.672-.118l-1.17-1.41.522-85.77h12l.5 7.17c.275 3.943.793 7.462 1.15 7.818l.65.648 7.424-11.185 8.836-5.178 8.168-1.835 3.77 1.197v13.865h-9.685l-8.815 4.614-3.223 4.766c-1.773 2.62-3.747 6.42-4.387 8.443l-1.163 3.677-1.227 54-12.183.587-1.17-1.41zM410.614 572.6c-7.218-.728-19.964-2.5-21.75-3.026-.962-.283-1.75-.873-1.75-1.31s4.005-6.82 8.9-14.183c11.677-17.562 21.73-35.263 27.605-48.604l4.748-10.782 9.473-28.894 16.132-3.47 14.078-5.915 12.72-9.077 14.843-15.865 6.73-11.257 6.005-17.423 1.048-20.54-2.483-15.56-5.782-15-3.76-5.558c-2.068-3.057-5.335-7.495-7.26-9.863l-3.5-4.305-14.62-11.774-16.38-7.92-6.502-1.504c-3.576-.827-10.737-1.858-15.913-2.3l-9.41-.786-3.97-7.5c-2.184-4.125-6.753-11.775-10.153-17l-6.182-9.5-7.707-9.183c-17.142-20.424-40.052-38.05-64.16-49.365-5.5-2.58-11.687-5.236-13.75-5.9l-3.75-1.207v-.81c0-.445 3.22-5.023 7.153-10.172 6.986-9.144 105.497-131.247 119.093-147.613l6.853-8.25h123.782l1.037 1.678-132.92 163.36v2.87l3.25.543 34.25 5.563 11.082 2.913c36.377 9.563 67.167 27.08 89.702 51.035l7.66 8.142 6.112 9.137c7.807 11.672 11.907 19.858 16.373 32.687l3.577 10.276 3.975 19.506 1.985 27.8-1.89 31.377-1.572 9.768c-3.266 20.296-9.243 39.71-17.505 56.854l-4.82 10-14.04 21-6.917 7.902c-3.804 4.346-10.473 11.014-14.82 14.82l-7.902 6.917-20.652 13.76-9.174 4.488c-17.233 8.43-32.43 13.178-53.674 16.767l-11.5 1.943-19 .357c-10.45.196-20.8.175-23-.046zm653.636-18.01l-8.364-1.402-8.847-2.964c-11.056-3.704-20.362-8.39-29.56-14.883l-7.137-5.038-13.347-13.48-11.076-16.646-7.696-17.48-4.906-19-2.44-23 1.35-23 1.85-9.54c1.017-5.247 3.047-13.11 4.512-17.47l2.663-7.932 9.018-17.46 4.948-6.536c2.722-3.595 7.75-9.277 11.174-12.625l6.226-6.09 16.677-11.148 17.323-7.467 21-5.255 23.62-1.76L1114 316.22l18.963 4.8 16.298 7.063L1165.66 339l17.016 17.675 4.733 7.607c2.603 4.184 6.337 11.307 8.297 15.83l3.564 8.224 4.688 18.483 2.433 20.856-1.175 26.184-4.133 20.284-2.6 7.266c-5.66 15.76-13.33 28.458-24.052 39.824l-6.518 6.9-6.644 4.924c-3.654 2.708-10.02 6.742-14.144 8.964l-7.5 4.04-21 7.017-19 3.08-27-.196-8.364-1.402zm33.43-40.478l5.934-1.084 13-6.148 14-14.185 6.73-11.478 5.69-16.522 3.304-19-1.062-30-2.062-8.237c-2.58-10.302-6.1-18.73-11.2-26.8l-3.953-6.26-4.364-4.022c-6.03-5.56-11.34-8.746-18.763-11.264l-6.33-2.147-17-.006-4.885 1.147c-2.687.63-7.412 2.332-10.5 3.78l-5.615 2.633-15.19 15.165-8.34 17-5.32 20v38l5.334 19.895 8.162 16.476 11.82 12.9 4.8 3.086c10.727 6.883 23.242 9.352 35.8 7.06zm188.51 41.06c-7.322-1.542-14.205-4.03-21.245-7.682l-6.67-3.46-12.054-10.91-9.435-14.192-5.95-17.235-.983-22.104 3.413-16.896 7.545-16 9.528-12.572 15.276-11.954 18-8.915 18.4-5.968 10.3-1.968c12.672-2.42 25.366-3.84 42.06-4.705l12.76-.66 1.085-4.324-2.213-13.854-5.027-10.08-8.098-8.3-13.27-6.09-6.5-1.043c-3.575-.574-9.592-1.046-13.372-1.05l-6.872-.008-21.052 3.126-8.102 2.54c-4.456 1.397-12.046 4.362-16.867 6.59s-8.92 3.87-9.107 3.648c-.494-.58-10.628-34.638-10.628-35.718v-.904l5.75-3.007c12.27-6.418 31.26-12.14 49.25-14.837l10.5-1.575 34-.03 21 4.307 14.648 5.862 13.352 8.72 4.84 4.83c12.243 12.214 19.35 27.23 23.113 48.834l1.547 8.88.074 102.238.912 19 1.606 26.25.694 7.25h-51.25l-.507-2.25c-.28-1.238-1.163-6.478-1.964-11.645l-1.457-9.395-2.085-2.085-11.525 11.63-5.863 3.986c-7.287 4.955-16.268 9.07-25.81 11.825l-7.326 2.116-30 .727-4.425-.932zm47.993-41.572c2.987-.877 8-2.956 11.142-4.618l5.71-3.023 11.15-11.688 6.43-13.575.673-41.337-4.202-2.25-13.84 1.04c-14.767 1.11-21.343 2.125-30.13 4.646l-5.5 1.578-13.527 7.083-10.78 11.645-3.692 10.593.134 18 4.464 10 3.7 3.832c4.058 4.202 7.598 6.34 13.7 8.27l4 1.265 15.137.134 5.43-1.595zm367.447 40.994c-3.84-.855-10.408-2.875-14.593-4.49l-7.608-2.934-17.815-11.762-13.248-13.76-5.62-8.624c-9.22-14.146-14.82-28.524-18.295-46.98l-1.76-9.352v-39l4.495-22.526 3.082-8.737c3.867-10.964 7.74-18.672 14.188-28.237l5.056-7.5 15.1-15.06 14.63-9.68 7.685-3.208c4.227-1.764 10.452-3.97 13.834-4.903l6.15-1.695 18.702-1.728 19 1.7 5.718 1.517c8.53 2.263 16.982 5.92 23.17 10.03l5.52 3.663 10.986 11.866h2.106V215.43l2.744-2.278 54.756.533 1.72 332 .28 5h-51l-1.162-15.5-1.25-17.25-.092-1.75-2.5.004-2.83 4.478c-1.556 2.463-4.878 6.757-7.382 9.542l-4.553 5.064-12.55 8.955-16.687 7.73-13 3.443-30 .74-6.984-1.555zm49.853-45.907c3.184-.83 8.34-2.728 11.46-4.22l5.67-2.71 14.006-14.062 6.437-13.13 3.208-13.832-.716-60.038-5.368-13.56-7.285-10.976-10-8.747-5.14-2.577c-2.828-1.417-7.823-3.266-11.1-4.108l-5.96-1.532h-14.16l-5.96 1.53c-3.278.842-8.344 2.685-11.258 4.097l-5.298 2.566-11.8 10.925-3.895 6.2c-4.563 7.252-8.497 16.74-10.92 26.337l-1.73 6.853.054 37 4.376 16 8.337 17 13.2 13.23 12.54 6.33 11.437 2.773 14.08.167 5.79-1.508zm189.22 46.48c-16.694-1.913-35.95-7.097-46.853-12.61l-4.763-2.41.667-2.726c2.206-9.023 10.16-37.362 10.616-37.816l.544-.545 4.902 2.484c7.177 3.637 23.6 9.164 33.324 11.215l8.473 1.787 23 .113 14.597-4.552 9.717-9.413 2.41-9-1-11.145-4.174-8.182-8.547-6.942-7-3.464c-3.85-1.905-12.175-5.4-18.5-7.744-13.48-5.017-25.12-10.7-33.5-16.33l-6-4.037-13.29-13.432-8.23-16.725-2.21-12 1.167-18 3.26-11 8.257-16 14.1-14.138 14.073-8.36 16.14-5.9 17.745-3.346 26.016.026 7.992 1.18c15.024 2.22 37.183 9.103 39.056 12.134l.568.92-5.156 18.74c-2.836 10.306-5.484 19.085-5.885 19.508l-.73.77-6.647-3.014c-3.656-1.658-10.493-4.128-15.194-5.49l-8.547-2.477-17.507-1.756-13.517 1.627-9.45 4.18-2.842 2.696c-3.315 3.145-6.11 8.33-6.996 12.98l-.626 3.285 2.203 10.27 8.844 9.455 6.71 3.488c3.7 1.918 12.334 5.608 19.21 8.2s15.823 6.24 19.883 8.11l7.383 3.4 16.6 11.045 10.97 12.12 3.492 6.67c1.92 3.67 4.31 9.37 5.312 12.67l1.82 6-.086 26-5.52 15.98-3.418 5.5c-6.194 9.984-14.45 17.7-25.626 23.95l-5.692 3.183-8.48 2.884c-4.663 1.586-12.227 3.602-16.808 4.48l-8.33 1.597-30 .793-7.9-.907zm-1184.59-1.61l-30.5-2.603-3.5-1.83V236.43l2.52-2.092 10.5-1.527c5.77-.84 17.015-2.092 25-2.783l14.5-1.256 62-.004 23.53 3.5 17.47 5.006 7.245 3.41c9.538 4.488 20.177 11.432 26.482 17.286l5.09 4.726 9.672 14.74 5.405 16.26-.008 29-5.244 14.67-6.64 11.2-13 13.97-7.04 4.585c-3.872 2.522-9.843 5.9-13.27 7.528l-6.23 2.943.28.84c.154.462 5 2.74 10.77 5.064l10.49 4.224 15.512 10.745 11.862 12.68 8 13.56 5.078 15.24 2.104 18.868-.974 8.576c-2.866 25.225-11.81 41.685-31.686 58.317l-7.17 6-15.735 8.333-20.47 7.09-10.765 2.087c-5.92 1.148-16.84 2.735-24.265 3.528l-13.5 1.442-30-.15-33.5-.467zm83.09-45.67l9.59-2.497 5.41-2.7c2.976-1.49 7.772-4.514 10.658-6.718l5.247-4.007 7.988-11.962 4.165-13.3.17-18-3.475-12-2.537-4.375c-1.395-2.406-4.092-6.096-5.993-8.2l-3.456-3.825-10.967-7.28-15.947-5.82-17.205-3h-42.524l-1.214 3.164v99.454l2.5 3.295 5 .43c2.75.236 13.55.298 24 .138l19-.29 9.59-2.497zm-8.09-148.042c3.575-.807 9.04-2.423 12.146-3.592l5.646-2.125 12.043-7.784 8.02-10.146 4.53-11.504-.035-20-1.702-4.5c-.936-2.475-3.32-6.86-5.295-9.747l-3.593-5.247-11.728-7.83-6.266-2.036c-3.446-1.12-8.936-2.51-12.2-3.087l-5.934-1.05-35.133.146-10.674 1.518-1.795 2.836-.03 83.357 3.414 3.414 42.086-1.153 6.5-1.466zm645.618 81.114l-.583-110.265-1.227-10.5h49.897l.642 8.25c.353 4.538.648 11.175.655 14.75a175.98 175.98 0 0 0 .651 13.25l.638 6.75h2.265l8.2-16.5 9.365-12.432 5.69-4.53c3.13-2.49 8.657-6.094 12.283-8.006l6.592-3.476 11.816-3.168 18.112-.146 4.42 1.403-.532 53.355-2.5-.252c-1.375-.14-6.775-.343-12-.453l-9.5-.2-11 2.682-11.753 5.88-10.064 9.344-7.704 11.843-5.47 16.157-1.01 136-57.3.53-.583-110.265z" fill="#d15a60"/><path d="M98.706 743.334l-.526-.85 66.467-81.596 66.467-82.63v-1.034l-2.25-.483c-1.238-.265-7.425-1.198-13.75-2.072-46.302-6.4-81.54-20.946-110.77-45.723-9.598-8.136-15.32-14.263-23.234-24.885l-5.682-7.625-10.31-20.07-3.434-10.34c-4.115-12.4-6.056-21.615-7.645-36.34l-1.187-11 1.227-35 1.512-10.5c.832-5.775 2.895-16.054 4.585-22.842L63.25 338l3.477-9.11c1.912-5.01 6.2-14.36 9.506-20.775l6.03-11.664 15.795-21.037 7.528-7.602c32.638-32.958 73.705-50.282 126.03-53.166l12-.66 28 2.346 20.89 4.002 23.94 7.86 20.17 9.924 8.5 5.664c28.19 18.786 50.133 44.81 63.62 75.457l4.365 9.918 7.007 23.116 1.962 10.894c1.08 5.992 2.493 16.885 3.142 24.206l1.18 13.312-1.12 30-1.655 10.5c-3.375 21.41-9.814 42.35-18.91 61.5-12.07 25.412-35.732 60.547-67 99.5l-113.68 139.25-2.932 2.75H99.232l-.526-.85zm159.908-266.568l6-1.576 18.803-9.39 17.69-16.835 9.126-13.727 4.954-12.193 3.18-15.36-.988-23-5.38-16-4.017-6.8c-4.794-8.116-10.97-15.312-19.267-22.444l-6.1-5.245-15-7.81-14-4.33-21.036-1.146-16.86 3.416-6 2.526c-7.404 3.116-15.416 8.178-22.468 14.195l-5.364 4.577-10.75 13.738-7.024 14.324-4 15.82v21.36l4 15.82 7.133 14.544 12.06 15 14.282 11.175 5.96 3.01c7.685 3.88 12.54 5.6 20.567 7.33l6.5 1.393 22-.785 6-1.576zm-4.913-27.832c-3.518-11.712-5.206-18.877-7.01-29.75l-1.576-9.5-2.076-30 .572-8.5c.315-4.675 1.077-13.154 1.693-18.84l1.12-10.34 2.996-1.15 4.596 1.187c2.528.653 7.96 2.828 12.074 4.833l7.478 3.647 15.233 15.233 8.324 16.932 1.988 10.773-.03 14.227-3.016 12.794-7.402 14.206-15.342 15.257-7.24 3.622c-3.982 1.992-7.84 3.622-8.573 3.622h-1.333l-2.478-8.25zm511.913 255.67l-7-1.554-14.716-7.045-12.532-12.532-7.278-14.79-2.94-14v-20l2.953-13.943 6.72-14.057 8.014-9.625 10.78-8.17 12.178-5.577 16.73-3.4 21.092 1 12.704 3.575-.634 3.965c-.35 2.18-1.062 4.764-1.584 5.74l-.95 1.775-12.536-4.072-21-.145-6 1.796c-3.3.988-8.142 2.956-10.76 4.373l-4.76 2.576-9.775 10.336-5.228 10.317-3.152 13.518.804 24 4.39 12 7.395 10.748 10.488 7.918 14.598 5.15 22-.152 5.5-1.453c3.025-.8 6.26-1.774 7.19-2.167l1.69-.713 1.12 4.16c.616 2.287.978 4.912.805 5.834l-.315 1.675-13.987 3.628-25 .845-7-1.554zm91.246.495c-2.065-.487-6.042-2.044-8.837-3.46l-5.083-2.576-8.976-8.976-5.807-12.4-2.04-10.764.03-12.227 2.956-12.538 5.18-10.223 9.556-9.556 4.14-2.112c2.277-1.162 6.952-2.833 10.39-3.715l6.25-1.603 15 1.055 11.305 4.264 8.936 6.823 3.112 4.698c1.71 2.584 4.07 7.22 5.24 10.303l2.13 5.605 1.05 17.432-2.463 12.568-4.837 10.248-8.172 9.284-4.437 2.6c-2.44 1.43-7.16 3.448-10.5 4.484l-6.053 1.884-14.322-.2-3.754-.885zm21.754-11.302l5-2.368 6.36-6.745 5.065-10.145 2.17-13.988-2.116-13.246-3.918-9.14-9.207-9.843-9.213-3.14h-3.38c-1.858 0-5.41.51-7.9 1.136l-4.51 1.136-10.6 9.688-4.094 9.54-2.36 13 1.32 11.773 4.195 11.212 11.175 11.115 7 2.196 10 .185 5-2.368zm162.035 10.84c-3.28-.828-6.968-2.163-8.194-2.966l-2.23-1.46 3.076-9.027h.823c.453 0 2.984.926 5.624 2.058l4.8 2.058 12.485 1.166 9.106-2.55 5.972-6.802v-10.96l-6.5-7.02-18.82-8.074-8.633-5.94-5.38-9.18v-11.255l4.02-9.066 3.402-2.875c1.87-1.58 5.427-3.802 7.902-4.935l4.5-2.06 19-.064 10.5 3.66v1.77c0 .974-.507 3.225-1.127 5.003l-1.127 3.233-2.123-.675c-1.168-.37-4.36-1.31-7.09-2.083l-4.968-1.408h-7.628l-6.53 2.728-5.407 6.425v7.347l4.062 6.662 8.715 3.96c4.793 2.178 10.666 4.954 13.05 6.17l4.334 2.2 7.68 8.29 1.07 3.855c.59 2.12 1.073 5.71 1.076 7.98l.01 4.124-3.086 8.75-7.333 7.513-11.082 4.224-18 .723-5.965-1.505zm86.927.014l-4.037-1.492-7.335-6.046-6.095-12.43-2.064-21 .568-46h14l1.013 61 3.694 8.475 6.738 5.916 3.777 1.05c4.782 1.328 6.358 1.32 11.826-.056l4.435-1.117 9.084-7.996 3.433-6.27 1-61h14l.52 86.5h-11.774l-.918-11.07-2.08-2.08-8.597 9.172-10.937 5.35-16.216.587-4.037-1.492zm260.642.02c-2.967-.836-7.597-2.72-10.288-4.184l-4.893-2.663-8.102-8.8-4.704-10.35-2.377-13.82 1.288-15.447 1.99-5.787c1.095-3.183 3.082-7.65 4.416-9.924l2.425-4.137 4.456-4.108c5.25-4.84 9.35-7.1 16.185-8.92l5-1.332 11.137-.024 10.03 2.98 8.177 5.52 6.08 7.678 4.173 11.153 2.218 15.685-2.27 4.984h-61.043v8.644l3.353 9.84 10.21 10.21 10.936 3.684 17.014-.138 12.838-3.29 1.664 1.664.485 7.75-12 3.778-23 .864-5.395-1.52zm32.713-54.75l.317-2.762-3.188-10.968-6.257-7.127-7.6-3.882-12.58.044-8.112 3.684-7.372 8.613-2.008 5.367c-2.1 5.587-2.487 8.48-1.324 9.643l.684.684 47.13-.535.318-2.762zm-486.818 18.458v-35.895l-1.293-15.302h12.043l.625 3.125c.344 1.72.625 4.392.625 5.94v2.816l2.144 1.325 8.985-9.377 11.093-5.078 12.556-1.008 11.268 3.544 8.843 7.784 5.188 10.967 1.986 16.46-.563 50h-14l-1-61-4.705-9.554-6.295-4.795-9.423-2.368-10.04 2.41-7.903 5.725-5.634 9.584-1 60-13.5.59v-35.895zm277-.046v-35.85l-1.293-15.302h12.014L1223 628.47l1.835 1.835 11.942-11.942 10.7-3.178h9.385l8.614 3.04 6.635 5.06 4.502 7.884 2.315.016 12.845-12.845 11.696-3.4 12.203.98 8.078 4.12 7.122 7.883 4.68 11.762.71 64.595-13.648-.595-1-61-1.798-3.986c-.99-2.192-2.79-5.064-4-6.382l-2.202-2.396-8-3.692-6.564-.044-7.436 3.1-6.675 6.4-4.325 8-.632 60.5H1267.3l-.698-60.5-2.277-4.963c-2.916-6.357-4.768-8.39-9.7-10.656l-4-1.837-7.107-.044-10.23 5.098-2.633 3.452c-1.448 1.898-3.39 5.14-4.313 7.2l-1.68 3.75-.696 58.5h-12.84v-35.85zm245.82-5.105l-.25-43.296-.07-2.25 11.33-.595.656 6.797c1.09 11.287 1.625 11.645 6.014 4.014l3-5.217 9.555-6.386 8.92-1.338 3.025 1.16v11.783l-11.094 1.145-4.273 2.504-4.273 2.504-2.624 3.813c-1.443 2.097-3.195 5.163-3.892 6.813l-1.268 3-1.076 56-13.5.59-.18-41.046zm-1049.82-91.513c-.825-.197-5.437-.894-10.25-1.55l-8.75-1.19v-.93c0-.51 3.08-5.527 6.84-11.146 11.025-16.464 19.05-30.26 26.304-45.217l6.8-14 4.665-14.5 5-15.72.324-1.22 2.793-.532c1.536-.293 5.718-1.202 9.293-2.02l6.5-1.487 19-9.427 21-21.094 8.37-16 4.522-16v-25l-4.41-15.583-6.828-13.56-11.173-14.023-6.24-5.062c-3.433-2.784-8.94-6.66-12.24-8.61l-6-3.548-16-5.333-21.964-1.28-4.856-9c-6.894-12.776-14.194-23.47-23.894-35l-8.413-10-9.33-8.216c-5.132-4.52-13.43-11.143-18.436-14.72l-9.105-6.504-12.5-6.403c-6.875-3.52-14.652-7.202-17.283-8.178s-5.025-2.168-5.32-2.647l-.538-.87 8.748-11.23C341.586 171.98 446.348 43.033 447.46 42.607c.635-.243 28.768-.324 62.52-.182l61.366.26-133.313 163.84.592 3.073 39.425 6.457 9.68 2.638c28.065 7.646 51.503 19.05 71.932 35.003l8.127 6.346 17.056 18.12 10.282 14.873 9.782 19.652 3.014 9.5c3.802 11.985 5.76 21.555 7.263 35.5l1.186 11-1.118 34-3.36 23-2.87 11.24c-6.687 26.18-16.688 47.148-32.314 67.757l-6.064 7.998-16.036 16.036-8.02 6.104c-10.546 8.028-19.754 13.63-31.977 19.452l-10 4.764-21.49 7.134-27.51 5.255-23.5.324c-12.925.178-24.175.163-25-.034zm664.845-16.6c-4.2-.52-11.893-2.023-17.074-3.337l-9.42-2.39-15.168-6.314-18.353-12.09-14.46-14.46-5.147-7.696c-8.553-12.787-14.13-26.223-17.703-42.644l-1.632-7.5-1.138-32 3.32-22.53 5.06-17.46 7.58-16.177 10.27-15.22 13.516-13.677 13.276-9.453 20.724-9.88 19.102-4.945 20.898-2.435 23 1.186 16.7 3.204 7.15 2.554c3.933 1.404 10.98 4.518 15.66 6.92l8.51 4.366 16.16 12.93 5.576 6.815c13.8 16.867 22.108 36.286 25.668 59.994l1.08 7.192-.02 27.617-2.886 19-5.236 17.99-7.716 16.466-10.327 14.94-16.324 15.62-5.667 3.742c-8.397 5.545-18.325 10.36-28.388 13.773l-8.945 3.033-17 2.982-23 .836-7.655-.948zm37.83-44.395l7.824-3.84 14.08-14.226 9.393-18.968 4.13-16 2.302-22.5-2.308-22.5-4.238-15.94-6.564-14.06-9.3-12.502-12.053-8.873-11.45-4.348-17.226-1.04-14.915 3.318-12.592 7.443-11.658 12.458-9.128 18.542-3.97 15.78-2.305 22.737 2.217 21.484 4.058 16 8.866 18 11.104 12.26 10.504 6.74 13.046 4.57 22.353-.694 7.824-3.84zm180.824 44.422c-3.3-.513-9.15-1.875-13-3.027l-7-2.094-13-7.167-15.067-15.17-3.262-6.225c-1.794-3.424-4.146-8.795-5.227-11.937l-1.965-5.712-1.89-16.626 1.945-17.5 2.048-6.414c2.683-8.4 5.686-14.206 11.263-21.776l4.56-6.2 13.53-11.16 9.532-4.87c21.736-11.102 45.178-16.37 79.8-17.93l14.743-.664-.188-16-4.42-11.403-9.056-10.073-12.336-5.79-10.984-2.55-23.084.114-8.713 1.633c-12.076 2.263-20.728 5.002-30.99 9.812l-8.773 4.11-.853-.927c-.986-1.07-10.1-31.414-10.1-33.623v-1.473l8.75-4.125c20.418-9.625 47.286-15.213 73.106-15.204l8.644.003 9 1.103c4.95.607 12.375 1.95 16.5 2.987l7.5 1.884 18 8.945 11.407 9.162 10.066 13.412 7.202 14.735 4.68 18.45 2.145 19.236v113.466l1.104 13.557 1.25 16.057.146 2.5-48.864.536-1.577-1.577-3.218-21.96-2.57-2.656-12.724 12.49-13.4 8.67-14.94 5.983-14.327 3.014-19.38.892-6-.932zm46.92-41.912l5.92-2.055 9.637-6.184 9.88-10.812 5.2-10.97 1.953-10.297v-33.327l-2.4-2.4h-18.152l-8.474 1.053c-4.66.58-12.003 1.95-16.316 3.045l-7.842 1.992-13.315 6.266-12.175 12.144-4.5 12 .798 20 5.232 10.127 3.99 3.604c4.916 4.44 6.65 5.385 13.364 7.277l5.303 1.494 16-.902 5.92-2.055zm371.08 41.89c-14.2-1.902-28.8-7.76-41-16.44l-6-4.272-13.137-13.723-4.305-6.377c-2.368-3.508-6.247-10.483-8.62-15.5l-4.314-9.123-5.228-18-3.08-20 1.017-38 2.01-9.277c3.836-17.702 9.156-30.842 17.918-44.258l4.875-7.464 11.863-12.8 13-9.874 20-9.762 18-4.5 30 .17 16 4.307 14.6 6.922 11.4 9.05 5.884 7.996h3.616v-130h55.882l1.02 1.653.298 334.847h-48.702l-.72-6.5c-.397-3.575-1.072-11.446-1.5-17.49l-.78-10.99-3-.554-2.883 4.582c-1.585 2.52-5.143 7.055-7.906 10.078l-5.023 5.496-12.508 8.926-15.078 6.966-16.603 3.9-20 .96-7-.938zm47.133-47.05l6.167-1.905 12.175-8.13 9.135-10.35 6.744-14 3.146-15.416-.034-49.584-2.93-13.825-5.732-12.175-9.25-11.298-12.022-8.028-12.533-4.14-14-1.22-15 3.172-13 6.356-13.156 13.16-7.212 13-5.188 15.517-3.14 20.483 1.062 22 1.525 7.115c.84 3.913 2.7 10.213 4.115 14l2.6 6.885 8.077 12.404 4.3 3.963c5.388 4.966 11.115 8.605 17.516 11.128l4.97 1.96 12.54 1.887 12.966-1.05 6.167-1.905zm181.367 46.098c-3.575-.487-10.775-1.854-16-3.036l-9.5-2.15-20.642-8.007-.974-2.537 5.115-18.852c2.813-10.37 5.306-19.043 5.54-19.276s3.92 1.168 8.192 3.114c9.95 4.53 21.675 8.207 32.895 10.312l8.874 1.665 24-.92 11.664-4.506 6.954-6.106 4.233-8.19.088-13-2.582-7.464-8.367-8.61-11.263-6.444-15.363-5.846c-17.368-6.61-23.354-9.46-33.363-15.895l-7-4.5-14-14.242-3.155-6c-1.735-3.3-3.873-8.444-4.75-11.432l-1.595-5.43v-19.317l3.944-15.42 7.535-14.4 15.02-15.19 7-3.99c12.355-7.045 23.155-10.493 38.997-12.45l9.003-1.113 23 1.156 8.5 1.604c10.488 1.98 20.734 4.95 27.706 8.033l5.294 2.34v1.493c0 1.993-9.607 36.557-10.374 37.324l-.6.6-6.763-3.075c-9.096-4.136-18.297-6.836-28.25-8.292l-8.26-1.208-16.252 1.1-9.267 3.265-8.057 6.897-4.176 8.626.044 10.87 3.643 8 8.27 7.456 7.77 3.87c4.274 2.128 12.946 5.796 19.27 8.15 14.207 5.29 27.58 11.89 35.57 17.56l6.07 4.307 10.86 11.733 6.55 12.295 3.95 15.448v19.36l-3.87 15.128-2.677 5.346c-1.473 2.94-4.49 7.72-6.708 10.624l-4.03 5.278-12.397 9.864-6.91 3.476c-8.09 4.07-15.993 6.792-26.41 9.097l-7.5 1.66-38 .72-6.5-.886zm-1177.5-1.002c-15.88-.985-34.5-2.865-35.698-3.605l-.802-.495V235.4l6.25-1.07c9.042-1.548 22.253-2.97 38.25-4.12l14-1.006 47.153-.008 10.924 1.068c6.008.587 15.05 1.915 20.092 2.95l9.168 1.882 18.147 6.816 16.46 9.784 16.27 16 8.276 17 3.26 13-.004 20-3.217 13.5-3.147 6.25c-8.412 16.704-19.983 27.673-38.44 36.438-4.093 1.944-7.44 3.88-7.44 4.3 0 1.248 2.293 2.686 5.5 3.45 4.825 1.148 18.74 7.97 25.194 12.354l5.956 4.045 14.085 15.082 8.135 15.636 4.22 14.945 1.143 21-3.284 18.793-5.948 14.855-9.06 14.007-14.194 13.86-6.806 4.525c-16.13 10.723-37.683 17.513-66.745 21.026l-12.695 1.535-51 .75-14-.868zm74.5-43.628l8.5-1.502 6.5-2.577c3.575-1.417 8.75-4.008 11.5-5.757l5-3.18 10.202-11.174 2.17-4.618c1.194-2.54 2.836-7.172 3.65-10.292l1.478-5.674v-15.16l-1.492-5.727c-.82-3.15-2.683-8.077-4.138-10.95l-2.646-5.222-11.278-11.022-12-6.38-16.96-4.915-18.987-2.32-36 .616-.518 104.882 2.113 2.118 12.702.59c6.986.325 16.977.405 22.202.178l9.5-.413 8.5-1.502zm-4.838-148.763l7.338-1.41 6.623-2.5c8.347-3.15 13.873-6.627 19.558-12.312l4.47-4.47 6.35-13.4v-24l-5.748-12.445-10.417-9.852-10.526-5.334-15.308-4.235-44-.08-8.5 2.524v87.6l1.333 1.333h41.49l7.338-1.41zm649.045 189.16l-1.064-1.282-.643-228.503 48 .535.796 20.5c.438 11.275.986 21.063 1.22 21.75l.423 1.25h2.864l9.087-18.5 9.128-11.484 11.484-9.093 14-6.95 15-3.153 15.573.854 1.962 1.962-.535 50.865-22.126-.72-11.874 2.415-13 6.127-13.5 13.47-3.468 7.353c-1.908 4.044-4.252 10.053-5.2 13.353l-1.742 6-1.08 134-54.23.532-1.064-1.282z" fill="#cf3a43"/><path d="M99.74 741.98c.415-.67 30.402-37.612 66.64-82.09l65.885-80.87-1.045-2.723-3.303-.546c-1.816-.3-7.128-1.024-11.803-1.61s-14.05-2.174-20.833-3.532l-12.333-2.47-29.55-9.74-11.213-5.6c-14.27-7.115-25.12-14.2-36.957-24.133l-9.385-7.877-6.51-7.557c-3.58-4.156-9.13-11.568-12.328-16.47l-5.817-8.914-3.976-9.086c-4.617-10.55-8.473-23.34-10.88-36.086l-1.7-9 .01-51 1.797-11c2.335-14.293 6.573-30.617 11.178-43.055l3.682-9.945 5.026-9.5c2.764-5.225 7.785-13.543 11.157-18.485l6.132-8.985 21-21.796 8.04-6.285c16.685-13.044 33.04-21.75 53.56-28.5l11.6-3.82 10.9-2.04c14.184-2.655 28.977-4.078 42.4-4.078h10.788l10.356 1.06c5.696.583 15.026 1.96 20.735 3.06l10.38 2 21.243 6.878 26 13.045 18.986 13.455 24.014 24.014 13.514 18.986 13.98 28 3.398 10.5c4.425 13.675 7.286 27.098 9.123 42.8l1.484 12.69v32.33l-3.188 24.683-6.562 26-7.445 20-14.41 28-7.928 12.5c-18.468 29.12-32.9 47.81-109.245 141.5l-53.782 66-123.568.515.754-1.22zm149.873-262.832l7-.997 15.298-5.063 6.133-3.708c3.373-2.04 8.622-5.73 11.664-8.202l5.53-4.493 11.968-14.734 6.89-13.683 4.48-15.583-.008-25-3.498-13-7.653-16L295.682 344l-14.688-11.816-16.38-7.92-14-3.442h-23l-14 3.43-18 8.824-14.86 12.608-10.586 13.912-3.432 7.044c-1.888 3.874-4.174 9.744-5.08 13.044l-1.648 6-1.156 21.092 3.246 16.02 2.585 6.36c4.965 12.22 13.514 23.605 24.38 32.47l6.554 5.346 13 7.07 6.5 2.077c11.7 3.742 22.715 4.708 34.5 3.03zm6.566-23.84c-.552-1.03-2.573-7.893-4.492-15.25l-3.49-13.374-3.536-23-.04-47 1.287-7.458c.708-4.102 1.492-7.663 1.744-7.915s3.268.325 6.705 1.28l6.25 1.737 11.975 6.355 13.442 12.657 7.38 11.117 4.575 13.09 1.34 14.31-2.252 14.825-7.76 16.292-14.003 14.708-5.345 3.208c-2.94 1.764-7.017 3.9-9.06 4.75l-3.715 1.54-1.003-1.875zm507.136 247.92l-7.298-1.978-12.35-6.566-11.125-11-7.394-14.227-3.27-13.773-.04-22 3.332-13.87 6.443-13.13 13.76-14.506 15.666-7.84 15.324-3.41 25.25 1.057 5.25 1.638c2.888.9 5.243 1.733 5.235 1.85s-.63 2.236-1.383 4.71l-1.368 4.5-1.367-.21c-.752-.115-4.067-.895-7.367-1.734l-6-1.526-19-.008-10.263 2.733-12.342 6.578-9.752 10.67-5.132 10.848-2.982 12.648v18l2.952 12.52 6.174 12.23 9.583 9.583 5.114 2.59c2.813 1.425 7.69 3.263 10.84 4.083l5.727 1.492 20.08-.115 13.67-3.564.82 2.16a25.78 25.78 0 0 1 1.164 4.538l.343 2.38-12 3.807-29 .818-7.298-1.978zm90.02-.015l-5.278-1.9-9.69-7.112-7.2-10.517-3.27-9-1.06-19.687 1.248-5.656c.686-3.11 2.33-7.962 3.65-10.78l2.403-5.124 8.105-9.207 15.1-7.462 18.645-.815 13.626 4.23 9.335 6.902 3.238 4.706c1.78 2.588 4.168 6.998 5.306 9.8l2.068 5.094-.012 27-4.603 11.565-6.42 8.42-9.91 7.55-12.71 3.967-17.29-.072-5.278-1.9zm22.69-7.596l5.276-1.567 8.8-8.12 6.5-13.203v-24.042l-6.167-13.013-3.282-3.282c-3.903-3.903-9.124-6.675-14.366-7.627l-3.815-.693-10.74 2.23-8.027 5.39-6.087 7.994-4.015 12.71v16.852l4.173 12.437 3.163 4.146c5.1 6.697 13.18 11.21 20.232 11.3l3.068.044 5.276-1.567zm164.08 8.196c-2.478-.713-5.55-1.856-6.828-2.54l-2.322-1.243.582-1.516c.32-.834.854-2.6 1.186-3.923.732-2.915.535-2.907 7.922-.3l5.965 2.097 10 1.025 8.66-2.34 7.097-6.504.965-10.045-3.22-6.228-6.502-4.926-18.34-7.882-7.923-6.275-3.737-7.52.108-12 4.335-8.307 7.558-6.25 9.863-2.943h14.274l4.93 1.496c2.712.823 5.504 1.868 6.204 2.323l1.273.827-3.072 7.354h-1.052c-.58 0-1.92-.465-2.983-1.033s-4.46-1.5-7.55-2.072l-5.62-1.04-9.5 2.28-6.417 6.62-1.062 7.916 3.275 6.334 3.722 2.447c2.047 1.346 7.636 4.08 12.42 6.074l8.698 3.628 8.85 7.79 3.253 6.855-.044 12.698-3.704 8-5.752 5.393-10 4.515-21 .52-4.506-1.297zm84.985-1.38l-5.38-2.75-5.6-7.067-4.396-11.933-.796-62.5h13.057l.734 59.5 3.557 9.41 7.6 6.875 9.733 2.063 4-.755c5.27-.994 9.555-3.3 13.545-7.29l3.257-3.257 3.654-8.044.044-58.5h13v85h-9.75l-.625-3.125c-.344-1.72-.625-4.433-.625-6.03v-2.906l-3.044-1.168-8.014 9.104-12.26 6.127h-16.322l-5.38-2.75zm260.857.895c-7.274-2.408-11.763-5.214-16.205-10.13l-3.562-3.942-4.82-9.572-2.25-10.598v-15.48l1.478-5.674c.813-3.12 2.43-7.7 3.594-10.176l2.116-4.503 8.144-9.252 7.36-4.646 10.67-3.17h13.274l10.25 3.044 10.803 9.873 5.347 11.915 2.07 11.204-.608 9.464-62 1 .062 10.064 3.72 9.743 7.1 7.848 10.127 5.222 19.633.86 7.014-1.705c3.858-.938 7.222-1.497 7.476-1.243s.72 2.06 1.038 4.012l.576 3.55-10.738 3.356-26 .812-5.664-1.875zm34.23-50.18l1.934-1.035v-2.36c0-1.298-.886-5.226-1.968-8.73l-1.968-6.37-7.564-7.37-7.436-3.098h-9.332l-7.85 2.352-8.77 7.72-2.465 5.214c-1.356 2.868-2.772 6.856-3.148 8.863l-.683 3.65 3.685 2.142 43.63.06 1.934-1.035zm-486.066 7.535v-42.5h11v4.918c0 2.705.273 5.63.607 6.5l.607 1.582h1.043c.573 0 3.113-2.157 5.643-4.793l4.6-4.793 10-4.914h19l9.226 5.424 6.07 6.913 4.612 11.664.765 62.5h-13.04l-.695-60.5-1.628-3.5c-.895-1.925-2.646-4.794-3.9-6.376l-2.262-2.876-8.157-3.705-11-.024-10.142 4.722-6.416 7.758-2.943 9.863v54.637h-13v-42.5zm277 0v-42.5h9.786l.607 1.582c.334.87.607 3.584.607 6.03v4.45l3.21 1.232 7.957-9.31 9.148-5.36 16.184-.813 11 5.74 6.906 10.447 3.094-.001 8.577-9.96 9.072-5.317 13.825-.99 9.525 2.656 10.147 10.128 3.763 9.983.715 64.5h-11.992l-.634-59.5-4.607-10-5.337-5.573-10.556-3.07-10.644 3.094-7.605 7.386-3.707 8.162-.044 59.5h-13v-57.637l-3.1-10.473-7.627-7.627-9.762-2.33-9.296 2.8-7.143 5.448-6.06 12.128v57.68h-13v-42.5zm246.995 9.75c0-18.013-.296-37.138-.65-42.5l-.646-9.75h11.302v15.063l3.372 1.294 1.064-1.818c.585-1 2.414-3.892 4.064-6.426l3-4.608 10-5.457 8.5-.047V628.4l-3.07-1.178-9.83 2.108-7.916 5.734-6.685 13.57-.643 54.55h-11.857l-.01-32.75zm-1045.995-98.9l-13.26-1.454-9.76-1.113-.874-1.414 7.004-10.43c10.792-16.07 19.6-31.17 26.53-45.43l6.308-13 10.557-32.136 15.155-3.145 6.2-2.505c3.41-1.378 8.758-4.014 11.882-5.86l5.68-3.355 18.08-18.08 3.355-5.68c4.486-7.597 7.97-16.424 9.694-24.553l1.417-6.686v-19L508.662 371c-1.737-8.195-5.247-17.053-9.694-24.46l-3.355-5.588-12.776-13.862-6.192-4.42c-3.406-2.43-8.904-5.764-12.22-7.41l-6.026-3-14.786-4.103-19.24-1.266-2.227-4.608c-3.626-7.503-11.762-20.57-18.29-29.375l-6.098-8.224-20.145-20.754-8-6.25c-4.4-3.438-11.927-8.805-16.727-11.926l-8.727-5.675-11.273-5.286-14.532-6.702-3.26-1.416 9.3-12c14.33-18.493 120.722-149.838 122.515-151.25l1.587-1.25h121.618l-.018.75c-.01.412-29.515 36.975-65.568 81.25l-66.412 82.054-.863 1.554 1.46 2.363 16.45 2.53c19.565 3 33.67 6.286 47.95 11.135l10.5 3.566 11 5.232c41.477 19.73 69.523 49.675 82.512 88.1l2.988 8.84 4 20.78 1.884 26.363-1.912 31.922-1.526 9.486c-8.65 53.752-35.764 97.203-77.684 124.488l-8.727 5.68-22.545 10.735-19 6.24-24 4.822-23 2.1-11-.157c-6.05-.086-12.575-.3-14.5-.497zm657.5-17.485c-3.85-.49-11.217-2.013-16.37-3.382l-9.37-2.5-8.44-3.955c-4.642-2.175-11.552-6.024-15.356-8.553l-6.916-4.597-14.912-14.767-10.422-15.444-7.9-16.857-6.03-23.31-1.045-36.29 1.198-8.354c3.522-24.567 11.926-44.366 26.063-61.397l5.5-6.626 6.67-5.463c3.668-3.005 10.308-7.65 14.756-10.323l8.086-4.86 8.744-3.178c4.81-1.748 12.57-4.06 17.244-5.138l8.5-1.96 30-1.172 8.656 1.156c11.557 1.543 22.66 4.523 32.162 8.632l7.818 3.38 16.49 10.972 13.48 13.347 5.038 7.137c6.538 9.26 11.3 18.726 14.803 29.482l2.827 8.654 3.533 20-.034 31-3.5 20-2.88 8.814c-3.563 10.91-8.476 20.806-15.05 30.317l-5.04 7.3-15.868 15.16-7.058 4.566c-8.733 5.65-18.88 10.36-29.48 13.685l-8.102 2.542-21.052 3.126-9.872-.126c-5.43-.07-13.022-.528-16.872-1.02zm31.37-39.308c2.953-.786 7.8-2.614 10.75-4.062l5.38-2.633 10.95-10.007 8.84-13.346 2.7-6.42c1.48-3.532 3.55-9.78 4.6-13.888l1.9-7.467 2.05-21.724-2.037-21.5-5.02-18.723-9.388-18.177-12.09-12.323-12.48-6.295-12.52-2.952-10 .006-13.347 2.83-11.653 5.586-15.067 15.05-3.278 6.255c-1.803 3.44-4.39 9.515-5.748 13.5l-2.47 7.245-2.936 16.762.026 28.238 3.735 18 6.208 16 8.146 12.436 11.838 10.713 5.273 2.648c2.9 1.457 7.748 3.306 10.773 4.1l5.5 1.46 14 .108 5.37-1.43zm187.962 39.5c-2.568-.472-7.293-1.616-10.5-2.543l-5.83-1.684-13.456-7.045-12.748-11.68-8.2-12.594-5.048-13.42-2.387-17.925 2.35-19.127 5.745-15.743 7.528-11.785 12.365-12.14 15.243-9.5 16.608-7.038 11-2.86c6.05-1.573 15.725-3.57 21.5-4.438l10.5-1.577 32-1.217 3.5-1.8V395.7c0-2.43-.506-6.8-1.124-9.715l-1.124-5.3-4.82-9.572-6.893-7.63-11.723-6.248-12.814-3.02-22.238-.03-8.552 1.49c-10.653 1.858-22.854 5.656-32.98 10.267-4.273 1.946-7.985 3.322-8.25 3.058s-2.433-6.968-4.82-14.898l-5.055-16.626-.715-2.208 5.87-2.963c3.23-1.63 10.382-4.534 15.896-6.453l10.026-3.5 9.408-2.02c5.175-1.11 14.127-2.56 19.894-3.222l10.486-1.2 32.03 1.156 7.5 1.644c4.125.904 10.875 2.947 15 4.54l7.5 2.896 13 8.506 12.017 12.305 8.442 14.754 2.433 6.983c1.338 3.84 3.205 10.358 4.15 14.483l1.716 7.5 1.44 143 .57 1.5c.314.825.845 4.538 1.18 8.25l.6 6.75h-49.018l-.487-2.25c-.268-1.237-.966-5.85-1.55-10.25s-1.283-9.012-1.55-10.25l-.487-2.25h-4.916l-3.493 5.33-14.704 11.685-16.35 7.866-16 4.22-25 .803-4.67-.858zm45.67-39.22c2.2-.557 7.007-2.586 10.682-4.51l6.682-3.495 11.207-11.75 6.43-13.575.643-43.794-2.643-1.676-6.644-.015c-3.654-.008-11.205.453-16.78 1.025l-10.136 1.04-18.596 4.717-12.512 6.316-4.557 4.193c-2.506 2.306-5.6 5.827-6.854 7.824l-2.297 3.63-3.36 11.555.88 16.183 4.175 9.35 8.224 8.922 5.17 2.224c2.843 1.223 7.22 2.586 9.727 3.03l4.558.806 6-.496c3.3-.273 7.8-.952 10-1.51zm369.234 38.588l-7.766-1.404-16.17-6.236-17.432-11.66-14.503-15.268-4.508-6.968c-8.866-13.705-14.802-29.784-18.04-48.868l-1.615-9.512.034-33 1.597-9.512c.88-5.232 2.758-13.557 4.176-18.5l2.578-8.988 9.847-20.284 12.026-15.96 12.544-11.617 13.892-9 7.554-3.17c4.155-1.743 10.93-4.027 15.054-5.075l7.5-1.905 33 .163 17.946 5.458 12.054 6.314 17.8 17.56 2.7-2.24V215.185h55v298.68l1.316 36.32h-48.157l-.527-2.75c-.3-1.513-.8-8.375-1.132-15.25s-.84-13.737-1.132-15.25l-.527-2.75h-3.65l-2.62 4.47c-1.44 2.458-5.14 7.192-8.222 10.52l-5.604 6.053-16.596 11.043-16.205 5.914-17.205 3-17.238-.18-7.766-1.404zm49.335-44.03c2.987-.887 8.116-2.967 11.397-4.623l5.966-3.01 12.33-12.33 7.1-14.097 3.638-12.827.002-58-5.75-17.542-9.794-13.946-4.92-3.888c-5.873-4.642-12.162-7.806-19.294-9.704l-5.244-1.396h-18l-5.37 1.43c-2.953.786-7.903 2.693-11 4.238l-5.63 2.81-14.048 14-8.344 16.1-4.973 17.16-2.142 23.022 1.02 9.86c.562 5.423 1.728 12.784 2.593 16.36l1.572 6.5 8.923 18.616 13.4 13.614 5.5 2.814c3.025 1.548 8.2 3.602 11.5 4.564l6 1.75 18.137.142 5.432-1.612zm191.703 44.52l-10.73-.84-11.556-2.592c-11.24-2.52-20.086-5.4-27.74-9.06l-3.747-1.787.024-1.565c.013-.86 2.176-9.44 4.807-19.065l4.783-17.5 1.444.187c.794.103 5.788 1.98 11.098 4.173l9.654 3.986 21.69 5.603 29 .024 11.71-4.395 6.87-5.24 5.4-8.158.748-14.803-3.525-9.23-8.2-8.16-7.112-3.725c-3.91-2.05-12.687-5.816-19.5-8.37-21.272-7.98-35.03-15.728-45.58-25.673l-5.2-4.893-7.973-12.323-4.426-13v-21l3.43-13 6.044-12.346 9.35-11.606 11.72-9.442 13.232-6.904 16.082-5.038 15.562-2.165 22.355.012 9.963 1.502c12.142 1.83 22.982 4.785 31.24 8.516l6.203 2.803-1.965 6.834-5.055 18.334c-1.7 6.325-3.232 11.65-3.405 11.834s-4.354-1.282-9.29-3.257-12.736-4.563-17.333-5.75l-8.357-2.16-24-.055-11.664 4.593-6.954 6.106-3.993 7.826-1.137 9.602 3.35 10.083 9.646 9.022 5.877 2.947c3.232 1.62 11.502 5.075 18.377 7.675s15.823 6.258 19.883 8.127l7.383 3.4 16.478 10.964 5.46 5.897c6.572 7.098 9.925 12.624 12.752 21.016l2.12 6.294 1.985 15.835-2.014 16.06-4.94 14.203-7.454 11.238-10.753 10.51-15.402 9.04-18.553 5.962-8.724 1.42c-4.798.78-13.224 1.62-18.724 1.868l-10 .45-10.73-.84zm-1183.27-1.51l-34.25-3.04-3.25-.58v-312.66l.75-.462c1.265-.78 24.934-3.578 40.25-4.76l14.5-1.118 52-.094 10 1.2c26.654 3.197 41.365 8.22 59.09 20.178l7.09 4.784 12.033 13.132 7.278 14.522 3.412 13 .05 23-4.62 15-7.067 12.736-14.064 14.806-6.603 4.37c-3.632 2.404-9.676 5.758-13.432 7.452l-6.83 3.08.657 3.306 6.5 2.2c9.194 3.114 14.857 5.754 21.62 10.08l5.88 3.76 13.443 12.978 4.02 6.17c2.21 3.394 5.108 8.848 6.438 12.12l2.418 5.95 3.18 15.4v20.17l-3.158 15.3-5.126 12.805-9.518 14.58-5.69 5.69c-18.402 18.402-40.606 27.752-78.555 33.08l-11.454 1.608-31 .318c-17.05.175-33.25.15-36-.055zm78-43.248l8-2.138 16-7.88 10.548-10.358 2.47-4.217c1.36-2.32 3.388-6.88 4.51-10.137l2.038-5.92 1.2-14.16-2.406-13.84-6.2-13-11.597-11.597-18.563-8.67-7-1.63c-3.85-.896-11.275-2.066-16.5-2.6l-9.5-.97-30.63-.035-3.87 2.07V508.94l1.25 1.034c2.133 1.764 6.517 2.023 29.75 1.756l22.5-.258 8-2.138zm-4.882-148.912c9.166-2.537 17.34-6.302 23.502-10.826l4.905-3.6 8.047-11.237 4.166-13.716-.946-17.358-4.4-11.403-9.393-10.454-9-5.713-15-4.738-20-2.422-14 .683c-7.7.376-15.967 1.052-18.372 1.503l-4.372.82-1.726 2.724-.03 86.1 2.5 2.58 47-.973 7.118-1.97zm643.165 77.012l-.385-112.75-1.612-3.5h47.905l.65 12.75c.358 7.012.652 15.758.654 19.435v6.685l1.95 5.13h3.068l7.856-16.536 10.083-13.32 11.44-9.32 13.594-6.846 12.507-2.95 8.168-.015c4.493-.008 8.88.258 9.75.592l1.582.607v50.826l-18.52-1.302-14.674 2.475-15.592 7.804-12.13 12.968-6.886 14.515-3.554 14-.747 131.5h-54.726l-.385-112.75z" fill="#df2e3c"/><path d="M99.74 741.98c.415-.67 30.402-37.612 66.64-82.09l65.885-80.87-1.045-2.723-3.303-.546c-1.816-.3-7.128-1.024-11.803-1.61s-14.05-2.174-20.833-3.532l-12.333-2.47-29.55-9.74-11.213-5.6c-14.27-7.115-25.12-14.2-36.957-24.133l-9.385-7.877-6.51-7.557c-3.58-4.156-9.13-11.568-12.328-16.47l-5.817-8.914-3.976-9.086c-4.617-10.55-8.473-23.34-10.88-36.086l-1.7-9 .01-51 1.797-11c2.335-14.293 6.573-30.617 11.178-43.055l3.682-9.945 5.026-9.5c2.764-5.225 7.785-13.543 11.157-18.485l6.132-8.985 21-21.796 8.04-6.285c16.685-13.044 33.04-21.75 53.56-28.5l11.6-3.82 10.9-2.04c14.184-2.655 28.977-4.078 42.4-4.078h10.788l10.356 1.06c5.696.583 15.026 1.96 20.735 3.06l10.38 2 21.243 6.878 26 13.045 18.986 13.455 24.014 24.014 13.514 18.986 13.98 28 3.398 10.5c4.425 13.675 7.286 27.098 9.123 42.8l1.484 12.69v32.33l-3.188 24.683-6.562 26-7.445 20-14.41 28-7.928 12.5c-18.468 29.12-32.9 47.81-109.245 141.5l-53.782 66-123.568.515.754-1.22zm149.873-262.832l7-.997 15.298-5.063 6.133-3.708c3.373-2.04 8.622-5.73 11.664-8.202l5.53-4.493 11.968-14.734 6.89-13.683 4.48-15.583-.008-25-3.498-13-7.653-16L295.682 344l-14.688-11.816-16.38-7.92-14-3.442h-23l-14 3.43-18 8.824-14.86 12.608-10.586 13.912-3.432 7.044c-1.888 3.874-4.174 9.744-5.08 13.044l-1.648 6-1.156 21.092 3.246 16.02 2.585 6.36c4.965 12.22 13.514 23.605 24.38 32.47l6.554 5.346 13 7.07 6.5 2.077c11.7 3.742 22.715 4.708 34.5 3.03zm513.702 224.08l-7.298-1.978-12.35-6.566-11.125-11-7.394-14.227-3.27-13.773-.04-22 3.332-13.87 6.443-13.13 13.76-14.506 15.666-7.84 15.324-3.41 25.25 1.057 5.25 1.638c2.888.9 5.243 1.733 5.235 1.85s-.63 2.236-1.383 4.71l-1.368 4.5-1.367-.21c-.752-.115-4.067-.895-7.367-1.734l-6-1.526-19-.008-10.263 2.733-12.342 6.578-9.752 10.67-5.132 10.848-2.982 12.648v18l2.952 12.52 6.174 12.23 9.583 9.583 5.114 2.59c2.813 1.425 7.69 3.263 10.84 4.083l5.727 1.492 20.08-.115 13.67-3.564.82 2.16a25.78 25.78 0 0 1 1.164 4.538l.343 2.38-12 3.807-29 .818-7.298-1.978zm90.02-.015l-5.278-1.9-9.69-7.112-7.2-10.517-3.27-9-1.06-19.687 1.248-5.656c.686-3.11 2.33-7.962 3.65-10.78l2.403-5.124 8.105-9.207 15.1-7.462 18.645-.815 13.626 4.23 9.335 6.902 3.238 4.706c1.78 2.588 4.168 6.998 5.306 9.8l2.068 5.094-.012 27-4.603 11.565-6.42 8.42-9.91 7.55-12.71 3.967-17.29-.072-5.278-1.9zm22.69-7.596l5.276-1.567 8.8-8.12 6.5-13.203v-24.042l-6.167-13.013-3.282-3.282c-3.903-3.903-9.124-6.675-14.366-7.627l-3.815-.693-10.74 2.23-8.027 5.39-6.087 7.994-4.015 12.71v16.852l4.173 12.437 3.163 4.146c5.1 6.697 13.18 11.21 20.232 11.3l3.068.044 5.276-1.567zm164.08 8.196c-2.478-.713-5.55-1.856-6.828-2.54l-2.322-1.243.582-1.516c.32-.834.854-2.6 1.186-3.923.732-2.915.535-2.907 7.922-.3l5.965 2.097 10 1.025 8.66-2.34 7.097-6.504.965-10.045-3.22-6.228-6.502-4.926-18.34-7.882-7.923-6.275-3.737-7.52.108-12 4.335-8.307 7.558-6.25 9.863-2.943h14.274l4.93 1.496c2.712.823 5.504 1.868 6.204 2.323l1.273.827-3.072 7.354h-1.052c-.58 0-1.92-.465-2.983-1.033s-4.46-1.5-7.55-2.072l-5.62-1.04-9.5 2.28-6.417 6.62-1.062 7.916 3.275 6.334 3.722 2.447c2.047 1.346 7.636 4.08 12.42 6.074l8.698 3.628 8.85 7.79 3.253 6.855-.044 12.698-3.704 8-5.752 5.393-10 4.515-21 .52-4.506-1.297zm84.985-1.38l-5.38-2.75-5.6-7.067-4.396-11.933-.796-62.5h13.057l.734 59.5 3.557 9.41 7.6 6.875 9.733 2.063 4-.755c5.27-.994 9.555-3.3 13.545-7.29l3.257-3.257 3.654-8.044.044-58.5h13v85h-9.75l-.625-3.125c-.344-1.72-.625-4.433-.625-6.03v-2.906l-3.044-1.168-8.014 9.104-12.26 6.127h-16.322l-5.38-2.75zm260.857.895c-7.274-2.408-11.763-5.214-16.205-10.13l-3.562-3.942-4.82-9.572-2.25-10.598v-15.48l1.478-5.674c.813-3.12 2.43-7.7 3.594-10.176l2.116-4.503 8.144-9.252 7.36-4.646 10.67-3.17h13.274l10.25 3.044 10.803 9.873 5.347 11.915 2.07 11.204-.608 9.464-62 1 .062 10.064 3.72 9.743 7.1 7.848 10.127 5.222 19.633.86 7.014-1.705c3.858-.938 7.222-1.497 7.476-1.243s.72 2.06 1.038 4.012l.576 3.55-10.738 3.356-26 .812-5.664-1.875zm34.23-50.18l1.934-1.035v-2.36c0-1.298-.886-5.226-1.968-8.73l-1.968-6.37-7.564-7.37-7.436-3.098h-9.332l-7.85 2.352-8.77 7.72-2.465 5.214c-1.356 2.868-2.772 6.856-3.148 8.863l-.683 3.65 3.685 2.142 43.63.06 1.934-1.035zm-486.066 7.535v-42.5h11v4.918c0 2.705.273 5.63.607 6.5l.607 1.582h1.043c.573 0 3.113-2.157 5.643-4.793l4.6-4.793 10-4.914h19l9.226 5.424 6.07 6.913 4.612 11.664.765 62.5h-13.04l-.695-60.5-1.628-3.5c-.895-1.925-2.646-4.794-3.9-6.376l-2.262-2.876-8.157-3.705-11-.024-10.142 4.722-6.416 7.758-2.943 9.863v54.637h-13v-42.5zm277 0v-42.5h9.786l.607 1.582c.334.87.607 3.584.607 6.03v4.45l3.21 1.232 7.957-9.31 9.148-5.36 16.184-.813 11 5.74 6.906 10.447 3.094-.001 8.577-9.96 9.072-5.317 13.825-.99 9.525 2.656 10.147 10.128 3.763 9.983.715 64.5h-11.992l-.634-59.5-4.607-10-5.337-5.573-10.556-3.07-10.644 3.094-7.605 7.386-3.707 8.162-.044 59.5h-13v-57.637l-3.1-10.473-7.627-7.627-9.762-2.33-9.296 2.8-7.143 5.448-6.06 12.128v57.68h-13v-42.5zm246.995 9.75c0-18.013-.296-37.138-.65-42.5l-.646-9.75h11.302v15.063l3.372 1.294 1.064-1.818c.585-1 2.414-3.892 4.064-6.426l3-4.608 10-5.457 8.5-.047V628.4l-3.07-1.178-9.83 2.108-7.916 5.734-6.685 13.57-.643 54.55h-11.857l-.01-32.75zM1069.614 554.04c-3.85-.49-11.217-2.013-16.37-3.382l-9.37-2.5-8.44-3.955c-4.642-2.175-11.552-6.024-15.356-8.553l-6.916-4.597-14.912-14.767-10.422-15.444-7.9-16.857-6.03-23.31-1.045-36.29 1.198-8.354c3.522-24.567 11.926-44.366 26.063-61.397l5.5-6.626 6.67-5.463c3.668-3.005 10.308-7.65 14.756-10.323l8.086-4.86 8.744-3.178c4.81-1.748 12.57-4.06 17.244-5.138l8.5-1.96 30-1.172 8.656 1.156c11.557 1.543 22.66 4.523 32.162 8.632l7.818 3.38 16.49 10.972 13.48 13.347 5.038 7.137c6.538 9.26 11.3 18.726 14.803 29.482l2.827 8.654 3.533 20-.034 31-3.5 20-2.88 8.814c-3.563 10.91-8.476 20.806-15.05 30.317l-5.04 7.3-15.868 15.16-7.058 4.566c-8.733 5.65-18.88 10.36-29.48 13.685l-8.102 2.542-21.052 3.126-9.872-.126c-5.43-.07-13.022-.528-16.872-1.02zm31.37-39.308c2.953-.786 7.8-2.614 10.75-4.062l5.38-2.633 10.95-10.007 8.84-13.346 2.7-6.42c1.48-3.532 3.55-9.78 4.6-13.888l1.9-7.467 2.05-21.724-2.037-21.5-5.02-18.723-9.388-18.177-12.09-12.323-12.48-6.295-12.52-2.952-10 .006-13.347 2.83-11.653 5.586-15.067 15.05-3.278 6.255c-1.803 3.44-4.39 9.515-5.748 13.5l-2.47 7.245-2.936 16.762.026 28.238 3.735 18 6.208 16 8.146 12.436 11.838 10.713 5.273 2.648c2.9 1.457 7.748 3.306 10.773 4.1l5.5 1.46 14 .108 5.37-1.43zm187.962 39.5c-2.568-.472-7.293-1.616-10.5-2.543l-5.83-1.684-13.456-7.045-12.748-11.68-8.2-12.594-5.048-13.42-2.387-17.925 2.35-19.127 5.745-15.743 7.528-11.785 12.365-12.14 15.243-9.5 16.608-7.038 11-2.86c6.05-1.573 15.725-3.57 21.5-4.438l10.5-1.577 32-1.217 3.5-1.8V395.7c0-2.43-.506-6.8-1.124-9.715l-1.124-5.3-4.82-9.572-6.893-7.63-11.723-6.248-12.814-3.02-22.238-.03-8.552 1.49c-10.653 1.858-22.854 5.656-32.98 10.267-4.273 1.946-7.985 3.322-8.25 3.058s-2.433-6.968-4.82-14.898l-5.055-16.626-.715-2.208 5.87-2.963c3.23-1.63 10.382-4.534 15.896-6.453l10.026-3.5 9.408-2.02c5.175-1.11 14.127-2.56 19.894-3.222l10.486-1.2 32.03 1.156 7.5 1.644c4.125.904 10.875 2.947 15 4.54l7.5 2.896 13 8.506 12.017 12.305 8.442 14.754 2.433 6.983c1.338 3.84 3.205 10.358 4.15 14.483l1.716 7.5 1.44 143 .57 1.5c.314.825.845 4.538 1.18 8.25l.6 6.75h-49.018l-.487-2.25c-.268-1.237-.966-5.85-1.55-10.25s-1.283-9.012-1.55-10.25l-.487-2.25h-4.916l-3.493 5.33-14.704 11.685-16.35 7.866-16 4.22-25 .803-4.67-.858zm45.67-39.22c2.2-.557 7.007-2.586 10.682-4.51l6.682-3.495 11.207-11.75 6.43-13.575.643-43.794-2.643-1.676-6.644-.015c-3.654-.008-11.205.453-16.78 1.025l-10.136 1.04-18.596 4.717-12.512 6.316-4.557 4.193c-2.506 2.306-5.6 5.827-6.854 7.824l-2.297 3.63-3.36 11.555.88 16.183 4.175 9.35 8.224 8.922 5.17 2.224c2.843 1.223 7.22 2.586 9.727 3.03l4.558.806 6-.496c3.3-.273 7.8-.952 10-1.51zm369.234 38.588l-7.766-1.404-16.17-6.236-17.432-11.66-14.503-15.268-4.508-6.968c-8.866-13.705-14.802-29.784-18.04-48.868l-1.615-9.512.034-33 1.597-9.512c.88-5.232 2.758-13.557 4.176-18.5l2.578-8.988 9.847-20.284 12.026-15.96 12.544-11.617 13.892-9 7.554-3.17c4.155-1.743 10.93-4.027 15.054-5.075l7.5-1.905 33 .163 17.946 5.458 12.054 6.314 17.8 17.56 2.7-2.24V215.185h55v298.68l1.316 36.32h-48.157l-.527-2.75c-.3-1.513-.8-8.375-1.132-15.25s-.84-13.737-1.132-15.25l-.527-2.75h-3.65l-2.62 4.47c-1.44 2.458-5.14 7.192-8.222 10.52l-5.604 6.053-16.596 11.043-16.205 5.914-17.205 3-17.238-.18-7.766-1.404zm49.335-44.03c2.987-.887 8.116-2.967 11.397-4.623l5.966-3.01 12.33-12.33 7.1-14.097 3.638-12.827.002-58-5.75-17.542-9.794-13.946-4.92-3.888c-5.873-4.642-12.162-7.806-19.294-9.704l-5.244-1.396h-18l-5.37 1.43c-2.953.786-7.903 2.693-11 4.238l-5.63 2.81-14.048 14-8.344 16.1-4.973 17.16-2.142 23.022 1.02 9.86c.562 5.423 1.728 12.784 2.593 16.36l1.572 6.5 8.923 18.616 13.4 13.614 5.5 2.814c3.025 1.548 8.2 3.602 11.5 4.564l6 1.75 18.137.142 5.432-1.612zm191.703 44.52l-10.73-.84-11.556-2.592c-11.24-2.52-20.086-5.4-27.74-9.06l-3.747-1.787.024-1.565c.013-.86 2.176-9.44 4.807-19.065l4.783-17.5 1.444.187c.794.103 5.788 1.98 11.098 4.173l9.654 3.986 21.69 5.603 29 .024 11.71-4.395 6.87-5.24 5.4-8.158.748-14.803-3.525-9.23-8.2-8.16-7.112-3.725c-3.91-2.05-12.687-5.816-19.5-8.37-21.272-7.98-35.03-15.728-45.58-25.673l-5.2-4.893-7.973-12.323-4.426-13v-21l3.43-13 6.044-12.346 9.35-11.606 11.72-9.442 13.232-6.904 16.082-5.038 15.562-2.165 22.355.012 9.963 1.502c12.142 1.83 22.982 4.785 31.24 8.516l6.203 2.803-1.965 6.834-5.055 18.334c-1.7 6.325-3.232 11.65-3.405 11.834s-4.354-1.282-9.29-3.257-12.736-4.563-17.333-5.75l-8.357-2.16-24-.055-11.664 4.593-6.954 6.106-3.993 7.826-1.137 9.602 3.35 10.083 9.646 9.022 5.877 2.947c3.232 1.62 11.502 5.075 18.377 7.675s15.823 6.258 19.883 8.127l7.383 3.4 16.478 10.964 5.46 5.897c6.572 7.098 9.925 12.624 12.752 21.016l2.12 6.294 1.985 15.835-2.014 16.06-4.94 14.203-7.454 11.238-10.753 10.51-15.402 9.04-18.553 5.962-8.724 1.42c-4.798.78-13.224 1.62-18.724 1.868l-10 .45-10.73-.84zm-1183.27-1.51l-34.25-3.04-3.25-.58v-312.66l.75-.462c1.265-.78 24.934-3.578 40.25-4.76l14.5-1.118 52-.094 10 1.2c26.654 3.197 41.365 8.22 59.09 20.178l7.09 4.784 12.033 13.132 7.278 14.522 3.412 13 .05 23-4.62 15-7.067 12.736-14.064 14.806-6.603 4.37c-3.632 2.404-9.676 5.758-13.432 7.452l-6.83 3.08.657 3.306 6.5 2.2c9.194 3.114 14.857 5.754 21.62 10.08l5.88 3.76 13.443 12.978 4.02 6.17c2.21 3.394 5.108 8.848 6.438 12.12l2.418 5.95 3.18 15.4v20.17l-3.158 15.3-5.126 12.805-9.518 14.58-5.69 5.69c-18.402 18.402-40.606 27.752-78.555 33.08l-11.454 1.608-31 .318c-17.05.175-33.25.15-36-.055zm78-43.248l8-2.138 16-7.88 10.548-10.358 2.47-4.217c1.36-2.32 3.388-6.88 4.51-10.137l2.038-5.92 1.2-14.16-2.406-13.84-6.2-13-11.597-11.597-18.563-8.67-7-1.63c-3.85-.896-11.275-2.066-16.5-2.6l-9.5-.97-30.63-.035-3.87 2.07V508.94l1.25 1.034c2.133 1.764 6.517 2.023 29.75 1.756l22.5-.258 8-2.138zm-4.882-148.912c9.166-2.537 17.34-6.302 23.502-10.826l4.905-3.6 8.047-11.237 4.166-13.716-.946-17.358-4.4-11.403-9.393-10.454-9-5.713-15-4.738-20-2.422-14 .683c-7.7.376-15.967 1.052-18.372 1.503l-4.372.82-1.726 2.724-.03 86.1 2.5 2.58 47-.973 7.118-1.97zm643.165 77.012l-.385-112.75-1.612-3.5h47.905l.65 12.75c.358 7.012.652 15.758.654 19.435v6.685l1.95 5.13h3.068l7.856-16.536 10.083-13.32 11.44-9.32 13.594-6.846 12.507-2.95 8.168-.015c4.493-.008 8.88.258 9.75.592l1.582.607v50.826l-18.52-1.302-14.674 2.475-15.592 7.804-12.13 12.968-6.886 14.515-3.554 14-.747 131.5h-54.726l-.385-112.75z" fill="#c0262c"/></svg>