<?xml version="1.0" encoding="utf-8"?>
<!-- Generator: Adobe Illustrator 20.0.0, SVG Export Plug-In . SVG Version: 6.00 Build 0)  -->
<svg version="1.2" baseProfile="tiny" id="Layer_1" xmlns="http://www.w3.org/2000/svg" xmlns:xlink="http://www.w3.org/1999/xlink"
	 x="0px" y="0px" width="8.194px" height="8.136px" viewBox="0 0 8.194 8.136" xml:space="preserve">
<path fill="#DCDCDC" d="M5.144,0.638c-0.67-0.401-1.013-0.607-1.013-0.633L4.105,0C3.187,0.839,2.818,1.541,2.997,2.1
	c0.179,0.565-0.006,0.786-0.554,0.659C1.889,2.638,1.076,2.818,0,3.282c0.021,0,0.216,0.253,0.601,0.755
	c0.38,0.507,1.087,0.855,2.121,1.055C2.601,5.076,2.4,5.308,2.11,5.772C1.83,6.231,1.762,7.017,1.904,8.13l0.059,0.006
	c1.15-0.032,1.841-0.343,2.073-0.939c0.237-0.586,0.528-0.665,0.865-0.243c0.348,0.438,0.807,0.707,1.372,0.802
	c0.543,0.084,0.834,0.132,0.87,0.153C7.212,6.732,7.064,5.93,6.7,5.498C6.325,5.081,6.104,4.875,6.025,4.891
	C7.08,4.643,7.755,4.242,8.04,3.688c0.28-0.554,0.179-0.96-0.301-1.224c-0.49-0.248-1.018-0.248-1.588,0.011
	C5.587,2.738,5.292,2.886,5.265,2.923C5.861,1.81,5.819,1.05,5.144,0.638z M3.498,5.888c-0.121,0.09-0.211,0.116-0.264,0.084
	c-0.063-0.036-0.09-0.126-0.063-0.274C3.202,5.54,3.26,5.382,3.35,5.223c0.111-0.185,0.216-0.317,0.322-0.401
	c0.116-0.09,0.206-0.127,0.28-0.09c0.058,0.032,0.073,0.133,0.047,0.28C3.983,5.134,3.92,5.292,3.82,5.498
	C3.709,5.672,3.603,5.804,3.498,5.888z M2.575,3.978c-0.121-0.09-0.169-0.169-0.142-0.232c0.02-0.079,0.105-0.121,0.247-0.137
	s0.311,0,0.512,0.058C3.387,3.72,3.54,3.794,3.656,3.878C3.783,3.957,3.83,4.036,3.814,4.115c-0.016,0.063-0.1,0.106-0.253,0.127
	c-0.169,0.011-0.338-0.01-0.512-0.063C2.875,4.137,2.717,4.073,2.575,3.978z M4.178,3.614C4.12,3.466,4.094,3.298,4.094,3.113
	c0-0.19,0.026-0.359,0.084-0.517c0.058-0.132,0.121-0.2,0.19-0.2c0.069,0,0.132,0.069,0.19,0.2c0.053,0.158,0.079,0.327,0.079,0.517
	c0,0.179-0.021,0.348-0.074,0.501C4.511,3.757,4.447,3.825,4.379,3.825C4.3,3.825,4.236,3.757,4.178,3.614z M4.891,4.115
	C4.864,4.036,4.917,3.957,5.038,3.878C5.149,3.799,5.307,3.73,5.513,3.672c0.18-0.058,0.348-0.074,0.507-0.058
	c0.142,0.011,0.232,0.048,0.253,0.127c0.021,0.068-0.032,0.148-0.158,0.237c-0.142,0.095-0.301,0.164-0.464,0.2
	c-0.18,0.054-0.349,0.075-0.518,0.064C4.991,4.221,4.912,4.179,4.891,4.115z M4.658,5.055C4.606,4.917,4.6,4.823,4.648,4.77
	c0.053-0.053,0.142-0.048,0.28,0.016c0.126,0.058,0.258,0.163,0.416,0.306C5.482,5.234,5.582,5.371,5.64,5.498
	c0.069,0.142,0.074,0.237,0.021,0.29C5.608,5.836,5.513,5.825,5.376,5.772C5.26,5.725,5.123,5.624,4.97,5.466
	C4.817,5.324,4.716,5.187,4.658,5.055z"/>
</svg>
