<svg xmlns="http://www.w3.org/2000/svg" width="109.152" viewBox="0 0 1137.487 1346.851" height="129.312"><style><![CDATA[.B{font-family:Droid Sans}.C{font-size:75px}.D{stroke-width:5}.E{stroke-width:2}]]></style><g stroke="#000" stroke-width="14"><path d="M1130.487 457.614C1130.487 212.3 881.5 7 571.57 7 261.583 7 7 212.3 7 457.614l.986 682.767 187.07 199.47h740l195.334-198.487z" fill="#a7a9ac"/><circle cx="553.921" cy="683.468" r="164.486" fill="#fff"/><circle cx="557.518" cy="681.108" r="262" fill="none"/></g><path d="M284.38 1234.123h50v50h-50zm100 0h50v50h-50zm100 0h50v50h-50zm100 0h50v50h-50zm100 0h50v50h-50z" fill="#c49a6c"/><text transform="rotate(270)" y="336.485" x="-1144.023" class="B C">B</text><text transform="rotate(270)" y="435.694" x="-1141.508" class="B C">5V</text><text transform="rotate(270)" y="535.32" x="-1132.54" class="B C">A</text><text transform="rotate(270)" y="635.736" x="-1130.34" class="B C">X</text><text transform="rotate(270)" y="736.512" x="-1134.589" class="B C">G</text><text x="334.737" y="285.021" font-size="120" class="B">AMT103</text><g stroke="#000"><g fill="none"><g class="D"><path d="M258.032 1180.7v128.75m505.653-128.704v128.75"/><path d="M763.654 1211.37H255.53m510.207 95.574H255.53"/></g><path d="M701.39 1169.704H317.425" class="E"/><path d="M358.466 1210.485v98.958m100.01-98.958v98.958m100-98.958v98.958m100-98.958v98.958M311.57 1183.246h-56.04" class="D"/><path d="M701.267 1197.83H320.55m379.964-8.742H320.296m380.262-11.05h-381.05" class="E"/><path d="M309.487 1180.7v31.25m403.125-31.25v31.25" class="D"/></g><g class="E"><path fill="gray" d="M318.117 1169.095l-8.902 15.194"/><g fill="none"><path d="M321.744 1177.644L308.5 1191.58m12.083-2.937l-12.078 6.163"/><path d="M320.416 1178.735v18.75m-2.3-27.7l2.362 9.017m.822 19.097l-12.078-2.1"/></g><path fill="gray" d="M699.794 1189.68l12.83-3.078"/><g fill="none"><path d="M711.277 1185.053l-11.653-6.692m.433-.296l1.184-8.58"/><path d="M700.273 1197.86l-.167-20.793m.647-7.817l12.078 14.773"/></g></g><path fill="none" d="M766.206 1183.246h-56.042" class="D"/><path fill="gray" d="M700.28 1197.928l10.773-6.113" class="E"/></g></svg>