<svg xmlns="http://www.w3.org/2000/svg" xmlns:xlink="http://www.w3.org/1999/xlink" width="294" height="202" viewBox="0 0 219.996 151.2"><style><![CDATA[.B{fill:#fff}.C{fill:#9a916c}.D{fill:none}.E{font-family:'OCRA'}.F{stroke:#9a916c}.G{stroke-width:.72}.H{fill:#474747}.I{fill:#373737}.J{opacity:.2}.K{fill:#2a2a29}.L{fill:#595959}.M{opacity:.1}.N{font-size:3.5px}.O{opacity:.5}.P{fill:#b8af82}.Q{fill:#404040}.R{fill:#e6e6e6}.S{fill:#d1c690}.T{fill:#e2d6a1}.U{fill:#f2f2f2}.V{font-size:3px}.W{fill:#1a1a1a}.X{stroke:#fff}.Y{fill:#ccc}.Z{fill:#999}.a{fill:#b3b3b3}.b{stroke-linecap:round}.c{fill:#8c8663}.d{fill:#80795b}.e{fill:#5e5b43}.f{opacity:.15}.g{stroke-width:.2}.h{stroke-miterlimit:10}.i{opacity:.24}.j{font-family:'MyriadPro-Regular'}.k{font-size:4.176px}.l{fill:#1f1f1f}.m{fill:#22b573}.n{fill-opacity:.7}.o{fill:#9d956c}.p{opacity:.55}.q{opacity:.03}.r{fill-opacity:.15}.s{fill:#3d3d3d}.t{stroke-width:.25}.u{fill:#b7b7b7}.v{stroke-width:.198}]]></style><path fill="#0f7391" d="M199.44 144l7.2-7.2V43.2l-7.2-7.2V3.6l-3.6-3.6H15.075C13.5 0 12.24 1.27 12.24 2.834v145.53c0 1.565 1.27 2.835 2.834 2.835h181.53c1.565 0 2.835-1.27 2.835-2.834V144M26.263 26.28c0-2.544 2.062-4.606 4.605-4.606a4.61 4.61 0 0 1 4.606 4.606 4.61 4.61 0 0 1-4.606 4.606c-2.543 0-4.605-2.062-4.605-4.606zm0 32.4c0-2.544 2.062-4.606 4.605-4.606a4.61 4.61 0 0 1 4.606 4.606 4.61 4.61 0 0 1-4.606 4.606c-2.543 0-4.605-2.062-4.605-4.606zm168.642-8.28c-.004-2.505 2.022-4.54 4.527-4.543s4.54 2.022 4.543 4.527c.005 2.52-2.022 4.555-4.527 4.56s-4.54-2.023-4.543-4.528zm0 79.2c-.004-2.505 2.022-4.54 4.527-4.543s4.54 2.022 4.543 4.527c.005 2.52-2.022 4.555-4.527 4.56s-4.54-2.022-4.543-4.527zm-144-122.04c-.004-2.505 2.023-4.54 4.528-4.542s4.538 2.024 4.542 4.53c.004 2.518-2.023 4.55-4.528 4.555s-4.54-2.024-4.542-4.53zM47.304 144c-.004-2.506 2.024-4.54 4.53-4.543s4.538 2.024 4.542 4.53a4.54 4.54 0 0 1-4.529 4.555c-2.505.004-4.538-2.023-4.542-4.528zM128.88 7.2a1.44 1.44 0 0 1 1.44-1.44 1.44 1.44 0 1 1 0 2.88 1.44 1.44 0 0 1-1.44-1.44zm-7.2 0a1.44 1.44 0 1 1 2.88-.004 1.44 1.44 0 0 1-1.438 1.446 1.44 1.44 0 0 1-1.441-1.438zm-7.2 0a1.44 1.44 0 1 1 2.88-.004 1.44 1.44 0 0 1-1.438 1.446 1.44 1.44 0 0 1-1.441-1.438zm-7.2 0a1.44 1.44 0 1 1 2.88-.004 1.44 1.44 0 1 1-2.88.008zm-7.2 0a1.44 1.44 0 0 1 1.438-1.442 1.44 1.44 0 0 1 .003 2.884 1.44 1.44 0 0 1-1.442-1.438zm-7.2 0a1.44 1.44 0 0 1 1.438-1.442 1.44 1.44 0 0 1 .003 2.884 1.44 1.44 0 0 1-1.441-1.438zm-7.2 0a1.44 1.44 0 1 1 2.88-.004 1.44 1.44 0 1 1-2.88.008zm-7.2 0a1.44 1.44 0 1 1 2.88-.004 1.44 1.44 0 1 1-2.88.008zM154.8 144a1.44 1.44 0 0 1 2.88 0 1.44 1.44 0 0 1-2.88 0zm7.2 0a1.44 1.44 0 0 1 1.44-1.44 1.44 1.44 0 0 1 1.439 1.44 1.44 1.44 0 0 1-1.439 1.439A1.44 1.44 0 0 1 162 144zm7.2 0a1.44 1.44 0 0 1 1.44-1.44 1.44 1.44 0 0 1 1.439 1.44 1.44 1.44 0 0 1-1.439 1.439A1.44 1.44 0 0 1 169.2 144zm7.2 0a1.44 1.44 0 0 1 1.439-1.44 1.44 1.44 0 0 1 1.44 1.44 1.44 1.44 0 0 1-1.44 1.439A1.44 1.44 0 0 1 176.4 144zm7.2 0a1.44 1.44 0 0 1 1.439-1.44 1.44 1.44 0 0 1 1.44 1.44 1.44 1.44 0 0 1-1.44 1.439A1.44 1.44 0 0 1 183.6 144zm7.2 0a1.44 1.44 0 0 1 2.88 0 1.44 1.44 0 0 1-2.88 0zm0-136.8a1.44 1.44 0 0 1 2.88 0 1.44 1.44 0 1 1-2.88 0zm-7.2 0a1.44 1.44 0 0 1 1.439-1.44 1.44 1.44 0 1 1 0 2.88A1.44 1.44 0 0 1 183.6 7.2zm-7.2 0a1.44 1.44 0 0 1 1.439-1.44 1.44 1.44 0 1 1 0 2.88A1.44 1.44 0 0 1 176.4 7.2zm-7.2 0a1.44 1.44 0 0 1 1.44-1.44 1.44 1.44 0 1 1 0 2.88 1.44 1.44 0 0 1-1.44-1.44zm-7.2 0a1.44 1.44 0 0 1 1.44-1.44 1.44 1.44 0 1 1 0 2.88A1.44 1.44 0 0 1 162 7.2zm-7.2 0a1.44 1.44 0 0 1 2.88 0 1.44 1.44 0 1 1-2.88 0zm-7.2 0a1.44 1.44 0 0 1 1.439-1.44 1.44 1.44 0 1 1 0 2.88A1.44 1.44 0 0 1 147.6 7.2zm-7.2 0a1.44 1.44 0 0 1 1.439-1.44 1.44 1.44 0 1 1 0 2.88A1.44 1.44 0 0 1 140.4 7.2zm46.08 12.96a1.44 1.44 0 0 1 1.439-1.44 1.44 1.44 0 1 1 0 2.88 1.44 1.44 0 0 1-1.439-1.44zm0 14.4a1.44 1.44 0 0 1 1.439-1.44 1.44 1.44 0 0 1 .001 2.88 1.44 1.44 0 0 1-1.44-1.44zm0 7.2a1.44 1.44 0 0 1 1.439-1.44 1.44 1.44 0 1 1 0 2.88 1.44 1.44 0 0 1-1.439-1.44zm0 7.2a1.44 1.44 0 0 1 1.439-1.44 1.44 1.44 0 0 1 0 2.88 1.44 1.44 0 0 1-1.439-1.44zm0 7.2a1.44 1.44 0 0 1 1.439-1.44 1.44 1.44 0 1 1 0 2.88 1.44 1.44 0 0 1-1.439-1.44zM104.4 144a1.44 1.44 0 1 1 2.88-.004 1.44 1.44 0 0 1-1.438 1.445 1.44 1.44 0 0 1-1.441-1.438zm7.2 0a1.44 1.44 0 1 1 2.88-.004 1.44 1.44 0 0 1-1.438 1.445 1.44 1.44 0 0 1-1.441-1.438zm7.2 0a1.44 1.44 0 1 1 2.88-.004 1.44 1.44 0 1 1-2.88.007zm7.2 0a1.44 1.44 0 0 1 1.44-1.44 1.44 1.44 0 0 1 .001 2.881 1.44 1.44 0 0 1-1.442-1.438zm7.2 0a1.44 1.44 0 0 1 1.44-1.44 1.44 1.44 0 0 1 1.439 1.44 1.44 1.44 0 0 1-1.439 1.439A1.44 1.44 0 0 1 133.2 144zm7.2 0a1.44 1.44 0 0 1 1.439-1.44 1.44 1.44 0 0 1 1.44 1.44 1.44 1.44 0 0 1-1.44 1.439A1.44 1.44 0 0 1 140.4 144z"/><text transform="matrix(0 -1 1 0 142.4646 14.7271)" class="B E N">7</text><text transform="matrix(0 -1 1 0 131.7185 14.7271)" class="B E N">8</text><g transform="matrix(0 -1 1 0 149.9324 16.813)" class="B N"><text x="0" y="0" class="j">~</text><text x="2.086" y="0" class="E">6</text></g><g transform="matrix(0 -1 1 0 124.031 16.813)" class="B N"><text x="0" y="0" class="j">~</text><text x="2.086" y="0" class="E">9</text></g><g transform="matrix(0 -1 1 0 157.2234 16.8125)" class="B N"><text x="0" y="0" class="j">~</text><text x="2.086" y="0" class="E">5</text></g><text transform="matrix(0 -1 1 0 164.4246 20.8809)" class="B E V">SDCS</text><text transform="matrix(0 -1 1 0 117.0779 23.0938)" class="B E V">ETHCS</text><text transform="matrix(0 -1 1 0 109.9021 21.0527)" class="B E V">MOSI</text><text transform="matrix(0 -1 1 0 102.7029 20.8809)" class="B E V">MISO</text><text transform="matrix(0 -1 1 0 95.5769 18.7617)" class="B E V">SCK</text><g transform="matrix(0 -1 1 0 172.0437 16.8125)" class="B N"><text x="0" y="0" class="j">~</text><text x="2.086" y="0" class="E">3</text></g><text transform="matrix(0 -1 1 0 157.2234 138.6001)" class="B E N">A0</text><text transform="matrix(0 -1 1 0 164.8201 138.6001)" class="B E N">A1</text><text transform="matrix(0 -1 1 0 172.0193 138.6001)" class="B E N">A2</text><text transform="matrix(0 -1 1 0 179.2195 138.6001)" class="B E N">A3</text><text transform="matrix(0 -1 1 0 121.7253 138.6001)" class="B E N">5V</text><text transform="matrix(0 -1 1 0 129.322 138.6001)" class="B E N">GND</text><text transform="matrix(0 -1 1 0 136.5212 138.6001)" class="B E N">GND</text><text transform="matrix(0 -1 1 0 143.7214 138.6001)" class="B E N">Vin</text><text transform="matrix(0 -1 1 0 186.4197 138.6001)" class="B E N">A4</text><text transform="matrix(0 -1 1 0 193.6199 138.6001)" class="B E N">A5</text><text transform="matrix(0 -1 1 0 186.03 16.2695)" class="B E V">TX</text><text transform="matrix(0 -1 1 0 193.7429 16.2695)" class="B E V">RX</text><text transform="translate(76.606 37.654)" font-size="6.348" class="B E">Arduino</text><text transform="translate(76.651 43.685)" font-size="4.773" class="B E">Ethernet</text><text transform="translate(76.651 48.235)" font-size="3.419" class="B E">www.arduino.cc</text><text transform="matrix(0 -1 1 0 81.101 20.88)" class="B E V">AREF</text><text transform="translate(186.3 66.805)" font-size="4.604" class="B E">1</text><text transform="matrix(0 -1 1 0 88.304 18.762)" class="B E V">GND</text><text transform="translate(178.637 21.053)" font-size="2.101" class="B E">BLK</text><text transform="matrix(0 -1 1 0 107.64 138.6)" class="B E N">RESET</text><text transform="matrix(0 -1 1 0 114.84 138.6)" class="B E N">3V3</text><text transform="translate(108.699 33.514)" font-size="2.673" class="B E">TM</text><text transform="translate(130.32 24.12)" font-size="2.673" class="B E">(*=PWM)</text><text transform="translate(191.519 60.12)" class="B E k">ICSP</text><text transform="translate(18.36 93.96)" class="B E k">L</text><text transform="translate(16.92 68.76)" class="B E k">RX</text><text transform="translate(25.2 80.64)" class="B E k">TX</text><path d="M59.832 88.92h12.816v10.8H59.832zm7.51 20.448h3.865v4.465h-3.865zm.82 13.842h6.236v11.338h-6.236zm91.498-87.03h13.323v13.323H159.66zM54.24 75.646h3.118v5.67H54.24zm2.57 48.14h8.064v4.428H56.8z" class="B r"/><path fill="#333" stroke-width=".5" d="M100.41 76.62h26.702v26.73H100.41z" class="X h"/><path d="M140.64 90.045h3.118v5.67h-3.118zm0 21.6h3.118v5.67h-3.118zm0-11.52h3.118v5.67h-3.118z" class="B r"/><path fill="#333" stroke-width=".5" d="M79.347 119.308h18.426v18.425H79.347z" class="X h"/><path d="M79.948 80.12h3.543v7.087h-3.543zm-6.84-.286h3.543v7.087h-3.543zm82.917-58.702h9.07v4.535h-9.07z" class="B r"/><circle cx="130.32" cy="7.2" r="1.8" class="D F G"/><use xlink:href="#B" class="C"/><circle cx="123.12" cy="7.2" r="1.8" class="D F G"/><use xlink:href="#C" class="C"/><circle cx="115.92" cy="7.2" r="1.8" class="D F G"/><use xlink:href="#C" x="-7.2" class="C"/><circle cx="108.719" cy="7.2" r="1.8" class="D F G"/><path d="M106.92 3.06h3.6v8.28h-3.6V3.06m0 4.14a1.8 1.8 0 1 0 3.601.003 1.8 1.8 0 0 0-3.601-.007z" class="C"/><circle cx="101.52" cy="7.2" r="1.8" class="D F G"/><path d="M99.72 3.06h3.6v8.28h-3.6V3.06m0 4.14a1.8 1.8 0 1 0 3.601.003 1.8 1.8 0 0 0-3.601-.007z" class="C"/><circle cx="94.32" cy="7.2" r="1.8" class="D F G"/><use xlink:href="#C" x="-28.8" class="C"/><circle cx="87.12" cy="7.2" r="1.8" class="D F G"/><use xlink:href="#C" x="-36" class="C"/><circle cx="79.92" cy="7.2" r="1.8" class="D F G"/><use xlink:href="#C" x="-43.2" class="C"/><circle cx="156.24" cy="144" r="1.8" class="D F G"/><use xlink:href="#D" class="C"/><circle cx="163.44" cy="144" r="1.8" class="D F G"/><path d="M161.64 139.86h3.6v8.28h-3.6v-8.28m0 4.14a1.8 1.8 0 1 0 3.6 0 1.8 1.8 0 1 0-3.6 0z" class="C"/><circle cx="170.64" cy="144" r="1.8" class="D F G"/><use xlink:href="#E" class="C"/><circle cx="177.84" cy="144" r="1.8" class="D F G"/><use xlink:href="#E" x="7.2" class="C"/><circle cx="185.04" cy="144" r="1.8" class="D F G"/><use xlink:href="#D" x="28.8" class="C"/><circle cx="192.24" cy="144" r="1.8" class="D F G"/><use xlink:href="#D" x="36" class="C"/><circle cx="192.24" cy="7.2" r="1.8" class="D F G"/><use xlink:href="#B" x="61.92" class="C"/><circle cx="185.04" cy="7.2" r="1.8" class="D F G"/><use xlink:href="#B" x="54.72" class="C"/><circle cx="177.84" cy="7.2" r="1.8" class="D F G"/><use xlink:href="#F" class="C"/><circle cx="170.64" cy="7.2" r="1.8" class="D F G"/><use xlink:href="#F" x="-7.2" class="C"/><circle cx="163.44" cy="7.2" r="1.8" class="D F G"/><path d="M161.64 3.06h3.6v8.28h-3.6V3.06m0 4.14a1.8 1.8 0 1 0 3.6 0 1.8 1.8 0 1 0-3.6 0z" class="C"/><circle cx="156.24" cy="7.2" r="1.8" class="D F G"/><use xlink:href="#B" x="25.92" class="C"/><circle cx="149.04" cy="7.2" r="1.8" class="D F G"/><use xlink:href="#B" x="18.72" class="C"/><circle cx="141.84" cy="7.2" r="1.8" class="D F G"/><use xlink:href="#F" x="-36" class="C"/><circle cx="187.92" cy="20.16" r="1.8" class="D F G"/><use xlink:href="#G" class="C"/><circle cx="187.92" cy="34.56" r="1.8" class="D F G"/><use xlink:href="#G" y="14.4" class="C"/><circle cx="187.92" cy="27.366" r="1.8" class="D F G"/><use xlink:href="#G" y="7.206" class="C"/><circle cx="187.92" cy="41.76" r="1.8" class="D F G"/><use xlink:href="#G" y="21.6" class="C"/><circle cx="187.92" cy="48.96" r="1.8" class="D F G"/><use xlink:href="#G" y="28.8" class="C"/><circle cx="187.92" cy="56.16" r="1.8" class="D F G"/><use xlink:href="#G" y="36" class="C"/><circle cx="105.84" cy="144" r="1.8" class="D F G"/><path d="M104.04 139.86h3.6v8.28h-3.6v-8.28m0 4.14a1.8 1.8 0 1 0 3.601.003c0-.997-.805-1.804-1.8-1.806a1.8 1.8 0 0 0-1.802 1.799z" class="C"/><circle cx="113.04" cy="144" r="1.8" class="D F G"/><use xlink:href="#H" class="C"/><circle cx="120.24" cy="144" r="1.8" class="D F G"/><use xlink:href="#H" x="7.2" class="C"/><circle cx="127.44" cy="144" r="1.8" class="D F G"/><path d="M125.64 139.86h3.6v8.28h-3.6v-8.28m0 4.14a1.8 1.8 0 1 0 3.6 0c.001-.994-.805-1.8-1.8-1.803a1.8 1.8 0 0 0-1.801 1.799z" class="C"/><circle cx="134.64" cy="144" r="1.8" class="D F G"/><use xlink:href="#E" x="-36" class="C"/><circle cx="141.84" cy="144" r="1.8" class="D F G"/><use xlink:href="#E" x="-28.8" class="C"/><g transform="matrix(-1 0 0 -1 136.214 127.975)"><path d="M.002 8.568h1.04v1.27H.002zm19.4 0h1.037v1.27h-1.037z" class="Y"/><path d="M.002 9.64h1.04v.202H.002zm19.4 0h1.037v.202h-1.037z" class="M"/><path d="M.002 8.568h1.04v.203H.002zm19.4 0h1.037v.203h-1.037z" class="J B"/><use xlink:href="#I" class="W"/><circle cx="10.216" cy="9.175" r="8.703" class="R"/><use xlink:href="#I" fill="#333"/><path d="M19.392 14.355l-3.81 3.812H2.426a1.39 1.39 0 0 1-1.385-1.387v.184a1.39 1.39 0 0 0 1.385 1.388h13.157l3.81-3.812v-.185z"/><path d="M1.04 1.568A1.39 1.39 0 0 1 2.426.183h13.157l3.81 3.808V3.81L15.583 0H2.426a1.39 1.39 0 0 0-1.385 1.383v.185z" class="B M"/><path d="M10.216 18c-1.88 0-3.615-.604-5.038-1.614-2.215-1.578-3.664-4.162-3.664-7.088s1.45-5.51 3.664-7.087C6.6 1.197 8.336.596 10.216.596c4.806 0 8.703 3.896 8.703 8.702S15.02 18 10.216 18z" class="R"/><path d="M1.514 9.176c0 2.926 1.45 5.508 3.664 7.088V2.088c-2.215 1.577-3.664 4.16-3.664 7.088z"/><g class="B"><path opacity=".3" d="M18.92 9.42c0-4.807-3.897-8.703-8.703-8.703-1.88 0-3.615.604-5.038 1.616C2.963 3.9 1.514 6.493 1.514 9.42v-.243c0-2.928 1.45-5.51 3.664-7.088C6.6 1.074 8.336.473 10.216.473c4.806 0 8.703 3.896 8.703 8.703v.243z"/><path d="M1.514 8.946c0 2.925 1.45 5.508 3.664 7.088v.23a8.69 8.69 0 0 1-3.664-7.089v-.228z" class="O"/></g><path d="M5.178 16.034a8.66 8.66 0 0 0 5.038 1.614c4.806 0 8.703-3.897 8.703-8.702v.23c0 4.806-3.897 8.703-8.703 8.703-1.88 0-3.615-.604-5.038-1.614v-.23z" class="J"/></g><g transform="matrix(0 1 -1 0 52.5445 81.966504)"><path d="M17.862 0v4.896h-3.457V0zm-6.554 0v4.896H7.85V0zM4.752-.001v4.896H1.297V-.001z" class="Z"/><path d="M17.862 0v.146h-3.457V0zm-6.554 0v.146H7.85V0zM4.752-.001v.146H1.297v-.146z" class="J B"/><path d="M14.682 14.838v5.285H4.474v-5.285z" class="Z"/><path d="M14.682 19.962v.16H4.474v-.16z" class="B J"/><path fill="#303030" d="M19.162 4.896v9.942H0V4.896z"/><path d="M19.16 14.84H-.001l.72-.72h17.718zm0-9.944H-.001l.72.723h17.718z" class="l"/><path d="M19.16 14.84V4.896l-.724.723v8.5z"/><path d="M-.001 14.84V4.896l.72.723v8.5z" class="s"/><circle cx="16.999" cy="7.059" r=".72" class="l"/></g><g transform="matrix(0 1 -1 0 95.79504 89.959004)"><path d="M7.52 0v2.062H6.062V0zM4.76 0v2.062H3.305V0zM2-.001v2.06H.545v-2.06z" class="Z"/><path d="M7.52 0v.063H6.062V0zM4.76 0v.063H3.305V0zM2-.001v.063H.545v-.063z" class="J B"/><path d="M6.18 6.245V8.47H1.883V6.245z" class="Z"/><path d="M6.18 8.402v.067H1.883v-.067z" class="B J"/><path fill="#303030" d="M8.064 2.06v4.185H.001V2.06z"/><path d="M8.064 6.245H.001l.3-.303h7.46zm0-4.185H.001l.3.304h7.46z" class="l"/><path d="M8.064 6.245V2.06l-.304.304v3.577z"/><path d="M.001 6.245V2.06l.3.304v3.577z" class="s"/><circle cx="7.154" cy="2.971" r=".303" class="l"/></g><g transform="matrix(0 -1 1 0 189.30401 82.044)"><path d="M21.313 12.762V1.556l-1.5-1.5h-3.93l-1.5 1.5v11.206l1.5 1.512h3.93zm-7.183 0V1.556l-1.5-1.5H8.7l-1.513 1.5v11.206L8.7 14.274h3.932zm-7.176 0V1.556L5.443.045H1.5L0 1.556v11.206l1.5 1.512h3.934z" class="Q"/><path d="M2.46 4.752v-2.3h2.3v2.3zm0 7.198V9.652h2.3v2.298zm7.2-7.198v-2.3h2.298v2.3zm0 7.198V9.653h2.298v2.298zm7.198-7.198v-2.3h2.298v2.3z" fill="#8d8c8c"/><path fill="#8d8455" d="M16.858 11.95V9.653h2.298v2.298z"/><path d="M17.416 11.396v-1.184H18.6v1.184z" class="c"/><path d="M19.156 9.653l-.56.56v1.18l.56.558z" class="P"/><path d="M17.416 11.393h1.18l.56.558h-2.298z" class="d"/><path d="M17.416 10.212v1.18l-.558.558V9.653z" class="e"/><path d="M19.156 9.653l-.56.56h-1.18l-.558-.56z" class="C"/><path d="M17.416 4.193V3.01H18.6v1.182z" class="c"/><path d="M19.156 2.454l-.56.558v1.18l.56.558z" class="P"/><path d="M17.416 4.193h1.18l.56.558h-2.298z" class="d"/><path d="M17.416 3.012v1.18l-.558.558V2.454z" class="e"/><path d="M19.156 2.454l-.56.558h-1.18l-.558-.558z" class="C"/><path d="M10.217 11.396v-1.184H11.4v1.184z" class="c"/><path d="M11.957 9.653l-.557.56v1.18l.557.558z" class="P"/><path d="M10.217 11.393H11.4l.557.558H9.66z" class="d"/><path d="M10.217 10.212v1.18l-.557.558V9.653z" class="e"/><path d="M11.957 9.653l-.557.56h-1.183l-.557-.56z" class="C"/><path d="M10.217 4.194V3.012H11.4v1.182z" class="c"/><path d="M11.957 2.454l-.557.558v1.18l.557.558z" class="P"/><path d="M10.217 4.193H11.4l.557.558H9.66z" class="d"/><path d="M10.217 3.012v1.18l-.557.558V2.454z" class="e"/><path d="M11.957 2.454l-.557.558h-1.183l-.557-.558z" class="C"/><path d="M3.016 11.396v-1.184H4.2v1.184z" class="c"/><path d="M4.76 9.653l-.56.56v1.18l.56.558z" class="P"/><path d="M3.016 11.393H4.2l.56.558H2.46z" class="d"/><path d="M3.016 10.212v1.18l-.555.558V9.653z" class="e"/><path d="M4.76 9.653l-.56.56H3.016l-.555-.56z" class="C"/><path d="M3.016 4.194V3.012H4.2v1.182z" class="c"/><path d="M4.76 2.454l-.56.558v1.18l.56.558z" class="P"/><path d="M3.016 4.193H4.2l.56.558H2.46z" class="d"/><path d="M3.016 3.012v1.18l-.555.558V2.454z" class="e"/><path d="M4.76 2.454l-.56.558H3.016l-.555-.558z" class="C"/></g><path d="M133.932 10.807h-57.6v-7.2h57.6z" class="Q"/><use xlink:href="#J"/><use xlink:href="#K" class="K"/><use xlink:href="#L" class="H"/><use xlink:href="#M" class="L"/><use xlink:href="#N" class="I"/><use xlink:href="#J" x="-7.2"/><path d="M125.548 9.623l-1.024-1.025h-2.784l-1.025 1.025z" class="K"/><path d="M120.715 9.623l1.025-1.028v-2.78l-1.025-1.023z" class="H"/><use xlink:href="#O" class="L"/><use xlink:href="#P" class="I"/><use xlink:href="#J" x="-14.402"/><use xlink:href="#Q" class="K"/><use xlink:href="#R" class="H"/><use xlink:href="#S" class="L"/><use xlink:href="#T" class="I"/><use xlink:href="#J" x="-21.602"/><use xlink:href="#Q" x="-7.2" class="K"/><use xlink:href="#R" x="-7.2" class="H"/><path d="M106.317 4.79l1.025 1.023h2.78l1.025-1.023z" class="L"/><use xlink:href="#T" x="-7.2" class="I"/><use xlink:href="#J" x="-28.8"/><use xlink:href="#K" x="-28.8" class="K"/><path d="M99.115 9.623l1.026-1.028v-2.78L99.115 4.79z" class="H"/><use xlink:href="#M" x="-28.8" class="L"/><use xlink:href="#N" x="-28.8" class="I"/><use xlink:href="#J" x="-36"/><path d="M96.747 9.623l-1.023-1.025H92.94l-1.026 1.025z" class="K"/><path d="M91.915 9.623l1.026-1.028v-2.78L91.915 4.79z" class="H"/><use xlink:href="#M" x="-36" class="L"/><use xlink:href="#N" x="-36" class="I"/><use xlink:href="#J" x="-43.2"/><path d="M89.548 9.623l-1.024-1.025H85.74l-1.025 1.025z" class="K"/><path d="M84.715 9.623l1.025-1.028v-2.78L84.715 4.79z" class="H"/><use xlink:href="#O" x="-36" class="L"/><use xlink:href="#P" x="-36" class="I"/><use xlink:href="#J" x="-50.402"/><path d="M82.348 9.623l-1.025-1.025H78.54l-1.024 1.025z" class="K"/><path d="M77.516 9.623l1.024-1.028v-2.78L77.516 4.79z" class="H"/><use xlink:href="#S" x="-36" class="L"/><use xlink:href="#T" x="-36" class="I"/><path d="M152.628 140.394h43.2v7.198h-43.2z" class="Q"/><use xlink:href="#U"/><path d="M153.813 141.58l1.023 1.024h2.784l1.025-1.024z" class="K"/><use xlink:href="#V" class="H"/><path d="M158.644 146.41l-1.025-1.024h-2.783l-1.023 1.024z" class="L"/><use xlink:href="#W" class="I"/><use xlink:href="#U" x="7.202"/><path d="M161.012 141.58l1.024 1.024h2.783l1.025-1.024z" class="K"/><use xlink:href="#V" x="7.199" class="H"/><path d="M165.843 146.41l-1.025-1.024h-2.782l-1.024 1.024z" class="L"/><path d="M161 146.41l1.026-1.026v-2.782L161 141.58z" class="I"/><use xlink:href="#U" x="14.4"/><path d="M168.212 141.58l1.024 1.024h2.784l1.025-1.024z" class="K"/><use xlink:href="#V" x="14.4" class="H"/><path d="M173.044 146.41l-1.025-1.024h-2.783l-1.024 1.024z" class="L"/><use xlink:href="#W" x="14.4" class="I"/><use xlink:href="#U" x="21.602"/><path d="M175.413 141.58l1.024 1.024h2.783l1.025-1.024z" class="K"/><use xlink:href="#V" x="21.6" class="H"/><path d="M180.244 146.41l-1.026-1.024h-2.78l-1.024 1.024z" class="L"/><path d="M175.4 146.41l1.027-1.026v-2.782l-1.027-1.024z" class="I"/><use xlink:href="#U" x="28.8"/><path d="M182.613 141.58l1.023 1.024h2.784l1.025-1.024z" class="K"/><use xlink:href="#V" x="28.8" class="H"/><path d="M187.443 146.41l-1.024-1.024h-2.783l-1.023 1.024z" class="L"/><use xlink:href="#W" x="28.8" class="I"/><use xlink:href="#U" x="36"/><path d="M189.812 141.58l1.024 1.024h2.784l1.024-1.024z" class="K"/><path d="M194.644 141.58l-1.024 1.027v2.78l1.024 1.024z" class="H"/><path d="M194.644 146.41l-1.025-1.024h-2.783l-1.024 1.024z" class="L"/><path d="M189.8 146.41l1.026-1.026v-2.782l-1.026-1.024z" class="I"/><path d="M195.852 10.807h-57.6v-7.2h57.6z" class="Q"/><use xlink:href="#J" x="61.92"/><use xlink:href="#K" x="61.92" class="K"/><use xlink:href="#L" x="61.92" class="H"/><use xlink:href="#M" x="61.92" class="L"/><use xlink:href="#N" x="61.92" class="I"/><use xlink:href="#J" x="54.72"/><path d="M187.468 9.623l-1.024-1.025h-2.784l-1.025 1.025z" class="K"/><path d="M182.635 9.623l1.025-1.028v-2.78l-1.025-1.023z" class="H"/><use xlink:href="#O" x="61.92" class="L"/><use xlink:href="#P" x="61.92" class="I"/><use xlink:href="#J" x="47.518"/><use xlink:href="#Q" x="61.92" class="K"/><use xlink:href="#R" x="61.92" class="H"/><use xlink:href="#S" x="61.92" class="L"/><use xlink:href="#T" x="61.92" class="I"/><use xlink:href="#J" x="40.318"/><use xlink:href="#Q" x="54.72" class="K"/><use xlink:href="#R" x="54.72" class="H"/><path d="M168.237 4.79l1.025 1.023h2.78l1.025-1.023z" class="L"/><use xlink:href="#T" x="54.72" class="I"/><use xlink:href="#J" x="33.12"/><use xlink:href="#K" x="33.12" class="K"/><use xlink:href="#L" x="33.12" class="H"/><use xlink:href="#M" x="33.12" class="L"/><use xlink:href="#N" x="33.12" class="I"/><use xlink:href="#J" x="25.92"/><use xlink:href="#K" x="25.92" class="K"/><use xlink:href="#L" x="25.92" class="H"/><use xlink:href="#M" x="25.92" class="L"/><use xlink:href="#N" x="25.92" class="I"/><use xlink:href="#J" x="18.72"/><path d="M151.468 9.623l-1.024-1.025h-2.784l-1.025 1.025z" class="K"/><path d="M146.635 9.623l1.025-1.028v-2.78l-1.025-1.023z" class="H"/><use xlink:href="#O" x="25.92" class="L"/><use xlink:href="#P" x="25.92" class="I"/><use xlink:href="#J" x="11.518"/><use xlink:href="#Q" x="25.92" class="K"/><use xlink:href="#R" x="25.92" class="H"/><use xlink:href="#S" x="25.92" class="L"/><use xlink:href="#T" x="25.92" class="I"/><g transform="matrix(0 1 -1 0 -8.06349 116.05451)"><path d="M-17.704-31.277v7.35h-3.833v-7.35z" class="U"/><path d="M-21.537-26.53s.468.646.427.867.147.54 0 .676l-.425-.018-.002-1.525z" class="m n"/><path d="M-19.11-28.1v.854h-.96v-.854z" class="B"/><path d="M-20.048-28.1v.854h-.05v-.854z" class="a"/><g class="S"><path d="M-21.112-25.95l-.105.963h.732l-.105-.963z"/><path d="M-20.914-25.888c.035-.275.104-.455.162-.607.08-.2.782-.56.696-.828-.012-.026.01-.06.043-.065s.068.01.078.04c.095.305-.617.674-.7.893a2.08 2.08 0 0 0-.155.572c-.004.03-.032.055-.067.05s-.056-.026-.056-.053zm2.688-3.482l.104-.966h-.73l.104.966z"/><path d="M-19.746-27.716c0-.025.02-.05.048-.055.3-.063 1.15-1.1 1.15-1.886 0-.032.026-.057.063-.057s.063.025.063.057v.002c0 .75-.77 1.892-1.245 1.993-.035.008-.067-.012-.078-.04zm-.016.47s.002-.355-.312-.383v.383h.312z"/><path d="M-19.443-27.68s-.307.158-.352.053-.052-.178.027-.24c.085-.06.325.187.325.187z"/></g><g class="o"><path d="M-20.1-27.322c.084.27-.62.62-.7.828a2.22 2.22 0 0 0-.161.599h.06c.035-.267.104-.447.162-.6.08-.2.782-.56.696-.828h-.057zm1.296-2.048l-.103-.966h.054l.104.966z"/><use xlink:href="#X"/><path d="M-20.13-27.63v.38h.058v-.38h-.058z"/><use xlink:href="#Y"/></g><path d="M-17.704-29.8v4.223h-.05V-29.8z" class="B O"/><use xlink:href="#Z" class="O U"/><path d="M-18.357-30.267h.27c.15.018.27-.013.27.098v4.854c0 .168-.065.176-.065-.013v-4.346c0-.457-.104-.518-.197-.518l-.272.002c-.18 0-.18-.077-.008-.077z" class="B p"/><path d="M-21.316-25.14c-.067 0-.138.012-.138-.1v-4.816c0-.168.065-.176.065.008l.002 3.59c.002.595.07 1.318.07 1.318z" class="q"/><path d="M-21.537-31.276v.77h.52c.125 0 .214.08.27.188h3.047v-1h-3.834" class="S"/><path d="M-17.703-31.326v1.006h-.052v-1.006z" class="B O"/><path d="M-21.537-23.93h3.833V-25h-3.464c-.056.105-.146.19-.27.19h-.1v.83" class="S"/><path d="M-17.703-25.002v1.072h-.052v-1.072z" class="B O"/></g><g transform="matrix(0 1 -1 0 -8.06349 123.97451)"><path d="M-17.705-31.278v7.35h-3.832v-7.35z" class="U"/><path d="M-21.536-26.53s.467.646.426.867.147.54 0 .676l-.424-.018-.002-1.525z" class="m n"/><path d="M-19.11-28.1v.854h-.96v-.854z" class="B"/><path d="M-20.05-28.1v.854h-.05v-.854z" class="a"/><g class="S"><path d="M-21.113-25.95l-.104.963h.73l-.104-.963z"/><path d="M-20.913-25.888c.034-.275.104-.455.16-.607.08-.2.782-.56.696-.828-.012-.026.01-.06.043-.065s.068.01.078.04c.095.305-.617.674-.7.893a2.08 2.08 0 0 0-.155.572c-.004.03-.032.055-.067.05s-.055-.026-.055-.053zm2.688-3.482l.103-.966h-.73l.103.966z"/><path d="M-19.745-27.716c0-.025.02-.05.047-.055.3-.063 1.15-1.1 1.15-1.886 0-.032.026-.057.063-.057s.063.025.063.057v.002c0 .75-.77 1.892-1.245 1.993-.034.008-.067-.012-.077-.04zm-.017.47s.002-.355-.312-.383v.383h.312z"/><path d="M-19.443-27.68s-.307.158-.352.053-.052-.178.028-.24.324.187.324.187z"/></g><g class="o"><path d="M-20.1-27.322c.084.27-.618.62-.698.828a2.25 2.25 0 0 0-.162.599h.06c.034-.267.104-.447.16-.6.08-.2.782-.56.696-.828h-.057zm1.306-2.048l-.104-.966h.056l.103.966z"/><use xlink:href="#X"/><path d="M-20.13-27.63v.38h.058v-.38h-.058zm.312-.24c-.08.063-.076.13-.03.238h.06c-.05-.107-.053-.18.027-.24h-.057z"/></g><path d="M-17.704-29.8v4.223h-.05V-29.8z" class="B O"/><use xlink:href="#Z" class="O U"/><path d="M-18.357-30.267h.27c.15.018.27-.013.27.098v4.854c0 .168-.065.176-.065-.013v-4.346c0-.457-.104-.518-.196-.518l-.272.002c-.183 0-.183-.077-.01-.077z" class="B p"/><path d="M-21.316-25.14c-.067 0-.137.012-.137-.1v-4.816c0-.168.064-.176.064.008l.002 3.59c.002.595.07 1.318.07 1.318z" class="q"/><path d="M-21.536-31.276v.77h.52c.125 0 .213.08.27.188h3.047v-1h-3.834" class="S"/><path d="M-17.702-31.327v1.006h-.053v-1.006z" class="B O"/><path d="M-21.536-23.93h3.832V-25h-3.464c-.056.105-.146.19-.27.19h-.1v.83" class="S"/><path d="M-17.703-25.002v1.072h-.053v-1.072z" class="B O"/></g><path d="M102.228 140.394h43.2v7.198h-43.2z" class="Q"/><use xlink:href="#U" x="-50.4"/><path d="M103.413 141.58l1.023 1.024h2.785l1.024-1.024z" class="K"/><path d="M108.245 141.58l-1.024 1.027v2.78l1.024 1.024z" class="H"/><path d="M108.244 146.41l-1.024-1.024h-2.784l-1.023 1.024z" class="L"/><use xlink:href="#W" x="-50.4" class="I"/><use xlink:href="#U" x="-43.198"/><path d="M110.612 141.58l1.025 1.024h2.782l1.025-1.024z" class="K"/><use xlink:href="#V" x="-43.201" class="H"/><path d="M115.443 146.41l-1.025-1.024h-2.78l-1.025 1.024z" class="L"/><path d="M110.6 146.41l1.027-1.026v-2.782l-1.027-1.024z" class="I"/><use xlink:href="#U" x="-36"/><path d="M117.812 141.58l1.024 1.024h2.784l1.025-1.024z" class="K"/><use xlink:href="#V" x="-36" class="H"/><path d="M122.644 146.41l-1.025-1.024h-2.783l-1.024 1.024z" class="L"/><use xlink:href="#W" x="-36" class="I"/><use xlink:href="#U" x="-28.798"/><path d="M125.014 141.58l1.023 1.024h2.783l1.026-1.024z" class="K"/><path d="M129.846 141.58l-1.026 1.027v2.78l1.026 1.024z" class="H"/><path d="M129.845 146.41l-1.027-1.024h-2.78l-1.023 1.024z" class="L"/><path d="M125 146.41l1.027-1.026v-2.782L125 141.58z" class="I"/><use xlink:href="#U" x="-21.6"/><path d="M132.213 141.58l1.023 1.024h2.784l1.025-1.024z" class="K"/><use xlink:href="#V" x="-21.6" class="H"/><path d="M137.043 146.41l-1.024-1.024h-2.783l-1.023 1.024z" class="L"/><use xlink:href="#W" x="-21.6" class="I"/><use xlink:href="#U" x="-14.4"/><path d="M139.412 141.58l1.024 1.024h2.785l1.023-1.024z" class="K"/><path d="M144.244 141.58l-1.023 1.027v2.78l1.023 1.024z" class="H"/><path d="M144.244 146.41l-1.024-1.024h-2.784l-1.024 1.024z" class="L"/><path d="M139.4 146.41l1.026-1.026v-2.782l-1.026-1.024z" class="I"/><g transform="matrix(0 1 -1 0 -8.89149 91.21451)"><path d="M-17.704-31.277v7.348h-3.833v-7.348z" class="U"/><path d="M-21.537-26.53s.467.645.426.867.148.54 0 .676l-.424-.018-.002-1.525z" class="m n"/><path d="M-19.11-28.1v.854h-.96v-.854z" class="B"/><path d="M-20.05-28.102v.854h-.05v-.854z" class="a"/><g class="S"><path d="M-21.113-25.95l-.104.963h.73l-.104-.963z"/><path d="M-20.914-25.888c.035-.274.104-.455.162-.606.08-.2.782-.56.696-.828-.012-.027.01-.06.043-.066s.068.01.078.04c.095.306-.617.674-.7.894a2.1 2.1 0 0 0-.155.571c-.004.03-.033.056-.068.05s-.055-.027-.055-.054zm2.69-3.482l.103-.966h-.73l.103.966z"/><path d="M-19.746-27.717c0-.024.02-.05.047-.055.292-.063 1.152-1.088 1.152-1.885 0-.033.026-.057.063-.057s.063.024.063.057v.002c0 .75-.77 1.9-1.245 1.993-.035.008-.068-.012-.078-.04zm-.016.47s.002-.356-.3-.383v.383h.3z"/><path d="M-19.443-27.68s-.306.158-.35.054-.052-.18.028-.24.323.186.323.186z"/></g><g class="o"><path d="M-20.1-27.322c.084.27-.618.62-.698.828a2.24 2.24 0 0 0-.162.598h.06c.035-.266.104-.447.162-.598.08-.2.782-.56.696-.828h-.057zm1.306-2.048l-.103-.966h.055l.103.966z"/><use xlink:href="#a"/><path d="M-20.13-27.63v.38h.057v-.38h-.057z"/><use xlink:href="#Y"/></g><path d="M-17.704-29.8v4.224h-.05V-29.8z" class="B O"/><use xlink:href="#Z" class="O U"/><path d="M-18.356-30.267h.27c.15.02.27-.012.27.1v4.854c0 .168-.065.176-.065-.012v-4.346c0-.457-.105-.52-.197-.52h-.272c-.182-.001-.182-.078-.008-.078z" class="B p"/><path d="M-21.315-25.14c-.068 0-.138.013-.138-.098v-4.817c0-.168.065-.176.065.01l.002 3.59c.001.594.07 1.317.07 1.317z" class="q"/><path d="M-21.537-31.276v.77h.52c.125 0 .213.08.268.188h3.047v-1h-3.834" class="S"/><path d="M-17.703-31.326v1.006h-.052v-1.006z" class="B O"/><path d="M-21.537-23.93h3.833V-25h-3.464c-.056.104-.146.2-.27.2h-.1v.83" class="S"/><path d="M-17.703-25.002v1.07h-.052v-1.07z" class="B O"/></g><g transform="matrix(0 1 -1 0 -8.89149 99.13451)"><path d="M-17.704-31.277v7.348h-3.833v-7.348z" class="U"/><path d="M-21.537-26.53s.468.645.427.867.147.54 0 .676l-.425-.018-.002-1.525z" class="m n"/><path d="M-19.1-28.102v.854h-.962v-.854z" class="B"/><path d="M-20.048-28.102v.854h-.05v-.854z" class="a"/><g class="S"><path d="M-21.112-25.95l-.105.963h.732l-.105-.963z"/><path d="M-20.914-25.888c.035-.274.104-.455.162-.606.08-.2.782-.56.696-.828-.012-.027.01-.06.043-.066s.068.01.078.04c.095.306-.617.674-.7.894a2.1 2.1 0 0 0-.155.57c-.004.03-.033.056-.067.05s-.056-.027-.056-.054zm2.688-3.482l.104-.966h-.73l.104.966z"/><path d="M-19.746-27.717c0-.024.02-.05.047-.055.292-.063 1.152-1.088 1.152-1.885 0-.033.026-.057.063-.057s.063.024.063.057v.002c0 .75-.77 1.9-1.245 1.993-.035.008-.067-.012-.078-.04zm-.017.47s.003-.356-.3-.383v.383h.3z"/><path d="M-19.442-27.68s-.307.158-.352.054-.053-.18.027-.24.325.186.325.186z"/></g><g class="o"><path d="M-20.1-27.322c.084.27-.62.62-.7.828a2.24 2.24 0 0 0-.162.598h.06c.035-.266.104-.447.162-.598.08-.2.782-.56.696-.828h-.057zm1.296-2.048l-.103-.966h.054l.104.966z"/><use xlink:href="#a"/><path d="M-20.13-27.63v.38h.057v-.38h-.057z"/><use xlink:href="#Y" x="0.001"/></g><path d="M-17.704-29.8v4.224h-.05V-29.8z" class="B O"/><use xlink:href="#Z" class="O U"/><path d="M-18.357-30.267h.27c.15.02.27-.012.27.1v4.854c0 .168-.065.176-.065-.012v-4.346c0-.457-.104-.52-.197-.52h-.272c-.18-.001-.18-.078-.008-.078z" class="B p"/><path d="M-21.315-25.14c-.067 0-.138.013-.138-.098v-4.817c0-.168.065-.176.065.01l.002 3.59c.001.594.07 1.317.07 1.317z" class="q"/><path d="M-21.537-31.276v.77h.52c.125 0 .214.08.27.188h3.047v-1h-3.834" class="S"/><path d="M-17.703-31.326v1.006h-.052v-1.006z" class="B O"/><path d="M-21.537-23.93h3.833V-25h-3.464c-.056.104-.146.2-.27.2h-.1v.83" class="S"/><path d="M-17.703-25.002v1.07h-.052v-1.07z" class="B O"/></g><path d="M.783 20.598H55.2v43.774H.783z" class="W"/><path d="M10.113 31.433c.396 0 .72.324.72.725v2.648c0 .396-.324.725-.72.725H.665c-.396 0-.72-.324-.72-.725v-2.648c0-.396.323-.725.72-.725h9.448zm0 18.007c.396 0 .72.324.72.725v2.648c0 .395-.324.725-.72.725H.665c-.396 0-.72-.324-.72-.725v-2.648c0-.396.323-.725.72-.725h9.448z" class="a"/><path d="M10.113 31.433c.396 0 .72.324.72.725v2.648c0 .396-.324.725-.72.725H8.945v-4.098h1.168zm0 18.007c.396 0 .72.324.72.725v2.648c0 .395-.324.725-.72.725H8.945V49.44h1.168z" class="Y"/><path d="M5.068 31.433H9.13v4.098H5.068zm0 18.007H9.13v4.098H5.068z" class="Z"/><path d="M2.695 31.433H6.57v4.098H2.695zm0 18.007H6.57v4.098H2.695z" class="a"/><path d="M3.32 31.433H4.8v4.098H3.32zm0 18.007H4.8v4.098H3.32z" class="Y"/><path d="M8.975 31.433h.312v4.098h-.312z" class="R"/><path d="M9.344 31.437h.49v4.098h-.49z" class="U"/><path d="M11.21 64.375h50.5V20.598h-50.5v.288H.783v9.784l.717.047 10.207.672c.395.025.72.37.72.77v2.666c0 .396-.324.738-.72.768l-10.925.72v12.362l.717.05 10.21.694a.78.78 0 0 1 .718.768v2.63a.79.79 0 0 1-.718.771l-10.926.74v9.778h10.43l-.001.27z" class="Y"/><path opacity=".37" d="M.784 20.598H61.7v3.475H.784z" class="R"/><path opacity=".37" fill="gray" d="M.784 60.904H61.7v3.473H.784z"/><path opacity=".45" d="M.784 33.48v-2.047h9.33c.48 0 .722.434.722.725v1.322H.784zm0 18.006v-2.043h9.33c.48 0 .722.428.722.72v1.324H.784z" class="R"/><path opacity=".45" d="M.784 51.5v2.05h9.33c.48 0 .722-.436.722-.727V51.5H.784zm0-18.02v2.05h9.33c.48 0 .722-.432.722-.723V33.48H.784z" class="a"/><path opacity=".76" d="M3.757 31.433h.813v4.098h-.813zm0 18.007h.813v4.098h-.813zm5.218 0h.312v4.098h-.312z" class="R"/><path opacity=".76" d="M9.318 49.445h.41v4.094h-.41z" class="U"/><path d="M11.9 19.413h1.698v.386H11.9zm-4.743 1.18s3-.657 4.74-.782v-.398c-1.75.125-4.74.783-4.74.783l-1.903.396 1.903.001z" class="Z"/><path d="M8.855 20.594s3.003-.67 4.753-.794v-.397c-1.75.125-4.753.794-4.753.794l-1.902.396 1.902.001z" class="Y"/><path d="M11.9 65.174h1.698v.387H11.9zm-4.743-.794s3 .656 4.74.78v.398c-1.75-.125-4.74-.783-4.74-.783l-1.903-.396h1.903z" class="Z"/><path d="M8.855 64.38s3.003.67 4.753.795v.396c-1.75-.125-4.753-.795-4.753-.795l-1.902-.396h1.902z" class="Y"/><path fill="#232323" d="M14.653 112.96h32.972v23.732H14.653z"/><path fill="#494949" d="M15.255 113.534h31.938v1.645H15.255z"/><path fill-opacity=".3" d="M15.255 115.18H47.19v5.37H15.255z" class="s"/><path d="M14.22 134.557h32.973v1.62H14.22z"/><path fill="#0f0f0f" fill-opacity=".4" d="M14.22 128.78h32.973v5.826H14.22z"/><path d="M47.032 112.96h.593v23.732h-.593z" class="J"/><path stroke="#000" d="M44.814 136.694V112.96" class="D O h t"/><path opacity=".25" d="M16.863 112.987h1.287v23.73h-1.287z"/><use xlink:href="#b" opacity=".25" stroke="#565656" class="h t"/><g fill="#232323"><use xlink:href="#b"/><path d="M10.184 112.07h7.688v25.512h-7.688z"/></g><path fill="#6d6d6d" d="M47.625 121.97h1.7v5.713h-1.7z"/><path d="M47.623 119.215h.977v11.223h-.977zm-36.743-6.73h6.267v1.05H10.88z" fill="#494949"/><path d="M10.88 136.17h6.268v1.05H10.88zM164.282 84.9h29.042v8.863h-29.042zm.345 12.46h20.676v23.6h-20.676z"/><path d="M164.28 99.986h1.032c.43 0 .78.24.78.53v2.075c0 .29-.354.526-.78.526h-1.032" class="Q"/><path d="M167.672 102.943l-2.053-.105c-.36-.018-.656-.25-.656-.518v-1.527c0-.265.296-.5.656-.52l2.16-.11" class="M"/><path d="M164.28 115.547h1.032c.43 0 .78.237.78.528v2.075c0 .293-.354.53-.78.53h-1.032" class="Q"/><path d="M167.672 118.503l-2.053-.104c-.36-.02-.656-.25-.656-.518v-1.527c0-.27.296-.5.656-.52l2.16-.1" class="M"/><path d="M187.877 96.377h3.52v24.563h-3.52z" class="Q"/><path d="M191.662 106.687h4.305v.977h-4.305zm-.002-2.96h4.307v.977h-4.307zm0-2.96h4.307v.978h-4.307zm0-2.96h4.307v.978h-4.307zm0 21.197h4.307v.977h-4.307zm0-2.96h4.307v.98h-4.307zm0-2.96h4.307v.977h-4.307zm0-2.96h4.307v.977h-4.307z" class="u"/><path d="M191.892 107.997h.256v-1.656h-.256v-1.298h.256v-1.656h-.256v-1.303h.256v-1.656h-.256V99.1h.256v-1.657h-.256v-.254h-2.356v11.166h2.356zm0 12.368h.256v-1.657h-.256V117.4h.256v-1.657h-.256v-1.302h.256v-1.657h-.256v-1.33h.256V109.8h-.256v-.254h-2.356v11.166h2.356z" class="f"/><g class="u"><use xlink:href="#c"/><use xlink:href="#c" y="2.959"/><use xlink:href="#c" y="5.92"/><use xlink:href="#c" y="8.881"/><path d="M189.572 106.687h2v.977h-2zm-.002-2.96h2v.977h-2zm.002-2.96h2v.977h-2zm0-2.96h2v.977h-2z"/></g><path d="M188.362 97.086h1.81v11.9h-1.81z" class="f"/><g class="u"><use xlink:href="#c" y="12.316"/><use xlink:href="#c" y="15.277"/><use xlink:href="#c" y="18.236"/><use xlink:href="#c" y="21.197"/><path d="M189.572 119.004h2v.977h-2zm0-2.96h2v.98h-2zm0-2.96h2v.977h-2zm0-2.96h2v.977h-2z"/></g><path d="M188.362 109.403h1.81v11.9h-1.81z" class="f"/><path fill="#666" d="M204.4 120.878l-2.34-1.47V95.724l2.15-1.375v-2.214l2.438-1.41v-4.84h-2.6v1.875c0 .276-.48.276-.48 0v-.3c0-.375-.078-.5-.313-.5h-.985c-.234 0-.313.125-.313.5v.3c0 .276-.48.276-.48 0v-2.875h-3.16v38.03h6.075v-2.038h.006z" class="J"/><path fill="#606060" d="M204.072 120.878l-2.338-1.47V95.724l2.15-1.375v-2.214l2.438-1.41v-4.84h-2.6v1.875c0 .276-.48.276-.48 0v-.3c0-.375-.078-.5-.313-.5h-.986c-.232 0-.313.125-.313.5v.3c0 .276-.48.276-.48 0v-2.875H164.28v2.685l.62.08c.154.02.28.164.28.317v.173c0 .152-.127.3-.28.316l-.62.08V99.24l18.567-.52c.312-.01.565.174.565.4s-.257.433-.564.446l-17.125.882c-.313.02-.566.217-.566.444v1.315c0 .23.257.43.566.444l17.125.882c.31.018.564.217.564.446s-.257.412-.565.402l-18.567-.52v10.938l18.567-.52c.312-.01.565.172.565.402s-.257.432-.564.446l-17.125.88c-.313.017-.566.218-.566.444v1.316c0 .23.257.43.566.444l17.125.88c.31.017.564.218.564.444s-.257.412-.565.404l-18.567-.52v3.482h39.79v-2.03h.002v.01zm-14.207-30.43v.375c0 .154-.117.283-.264.283s-.264-.054-.264-.117-.128-.12-.283-.12h-12.478c-.155 0-.284-.127-.284-.283V84.97h15.768v.44c0 .154-.127.3-.28.324l-7.674 1.137c-.154.02-.373-.05-.484-.156l-.468-.45a.83.83 0 0 0-.487-.195h-2.59c-.155 0-.283.13-.283.28v3.47c0 .154.128.28.283.28h2.434c.155 0 .364-.098.467-.217l.822-.982c.102-.12.31-.23.465-.24l7.516-.607c.154-.016.28.104.28.26v2.612c0 .098-.115.18-.26.18s-.258-.13-.258-.283v-.38c0-.156-.128-.283-.283-.283h-1.11a.28.28 0 0 0-.289.279zm.568 17.584a.57.57 0 0 1-.568-.565v-9.45c0-.313.256-.564.568-.564h5.78c.313 0 .566.254.566.564v9.447a.57.57 0 0 1-.566.568h-5.78zm0 12.343a.57.57 0 0 1-.568-.565v-9.45c0-.313.256-.565.568-.565h5.78a.57.57 0 0 1 .566.565v9.45c0 .313-.254.565-.566.565h-5.78z"/><g class="B"><path d="M203.723 86.156h2.6v1.424h-2.6z" class="i"/><path d="M164.28 122.05h39.793v.7H164.28z" class="f"/></g><path stroke-linejoin="round" d="M191.85 85.85l-7.724 1.157c-.153.022-.377-.043-.494-.146l-.553-.486c-.116-.104-.34-.188-.496-.188h-2.34" class="D X b i t"/><path d="M176.29 84.89h15.768v.166H176.29z" class="B i"/><g class="D X b"><path d="M182.915 103.44l-16.968-.867c-.473-.05-.487-.26-.487-.26m17.484-2.637l-16.995.88c-.474.053-.487.246-.487.246m17.453 18.2l-16.968-.864c-.473-.054-.487-.26-.487-.26m17.484-2.64l-16.995.88c-.474.054-.487.246-.487.246" class="f v"/><path opacity=".3" d="M196.265 97.35h-5.853c-.356 0-.652.293-.652.65v9.467c0 .358.296.65.652.65h5.853" class="g"/></g><path opacity=".77" stroke="#353535" d="M196.892 98.014v9.586" class="D b g"/><path opacity=".3" d="M196.265 109.697h-5.853c-.356 0-.652.293-.652.652v9.467c0 .358.296.65.652.65h5.853" class="D X b g"/><path opacity=".77" stroke="#353535" d="M196.892 110.36v9.586" class="D b g"/><g class="X D"><path d="M182.9 98.6l-18.282.522m18.282 5.362l-18.282-.52M182.9 114.18l-18.282.523m18.282 5.36l-18.282-.522" class="f v b"/><path d="M176.222 90.686c0 .153.127.282.28.282h12.48c.156 0 .283.054.283.116" class="J g h"/></g><path d="M189.865 90.822v-.375c0-.156.13-.283.283-.283h1.11c.155 0 .282.127.282.283v.375" class="B i"/><path opacity=".3" d="M206.222 90.668l-2.44 1.412v2.213l-2.15 1.375v23.8l2.34 1.47" class="D X b g"/><path d="M203.245 87.463c0-.375-.078-.5-.313-.5h-.984c-.234 0-.313.125-.313.5h1.6z" class="B i"/><path d="M192.246 52.566h5.953v7.2h-5.953z"/><path d="M196.768 57.316v-2.3h20.882l2.346.557v1.18l-2.346.56z" class="P"/><path d="M219.996 55.574l-.656-.154v1.494l.656-.16z" class="T"/><path d="M196.768 55.017h20.882l2.346.557v.28l-2.346-.56h-20.882z" class="B J"/><path d="M196.768 57.054h20.882l2.346-.56v.28l-2.346.558h-20.882z" class="M"/><circle cx="187.946" cy="56.166" r="1.892" class="R"/><path d="M186.054 56.166c0-1.045.847-1.893 1.892-1.893s1.893.848 1.893 1.893v.33c0-1.046-.847-1.894-1.893-1.894s-1.892.848-1.892 1.894v-.33z" class="B J"/><path d="M189.838 56.166c0 1.045-.847 1.893-1.893 1.893s-1.892-.848-1.892-1.893v-.344c0 1.045.847 1.894 1.892 1.894s1.893-.85 1.893-1.894v.344z" class="M W"/><path d="M194.37 57.316v-2.3h-7.276v2.3z" class="P"/><path d="M187.534 57.316v-2.3h-.44v2.3z" class="C"/><path d="M188.21 57.316v-2.3h-.66v2.3z" class="T"/><path d="M192.246 53.6h5.953v5.152h-5.953z" class="Q"/><path d="M192.246 58.744v1.022h5.953v-1.022z" class="H"/><path d="M198.2 53.6v-1.024h-5.953V53.6z" class="I"/><use xlink:href="#d" class="B J"/><use xlink:href="#d" y="2.037" class="M"/><path d="M192.246 45.365h5.953v7.2h-5.953z"/><use xlink:href="#e" class="P"/><path d="M219.996 48.375l-.656-.155v1.494l.656-.16z" class="T"/><use xlink:href="#f" class="B J"/><path d="M196.768 49.853h20.882l2.346-.558v.28l-2.346.56h-20.882z" class="M"/><circle cx="187.946" cy="48.966" r="1.892" class="R"/><path d="M186.054 48.966a1.89 1.89 0 0 1 1.892-1.892c1.046 0 1.893.847 1.893 1.892v.33c0-1.045-.847-1.893-1.893-1.893s-1.892.848-1.892 1.893v-.33z" class="B J"/><path d="M189.838 48.966c0 1.045-.847 1.894-1.893 1.894s-1.892-.85-1.892-1.894v-.343c0 1.045.847 1.893 1.892 1.893s1.893-.848 1.893-1.893v.343z" class="M W"/><path d="M194.37 50.115v-2.3h-7.276v2.3z" class="P"/><path d="M187.534 50.115v-2.3h-.44v2.3z" class="C"/><path d="M188.21 50.115v-2.3h-.66v2.3z" class="T"/><path d="M192.246 46.4h5.953v5.152h-5.953z" class="Q"/><path d="M192.246 51.544v1.022h5.953v-1.022z" class="H"/><path d="M198.2 46.4v-1.025h-5.953V46.4z" class="I"/><use xlink:href="#d" y="-7.2" class="B J"/><use xlink:href="#d" y="-5.163" class="M"/><path d="M192.246 38.165h5.953v7.2h-5.953z"/><use xlink:href="#e" y="-7.2" class="P"/><path d="M219.996 41.175l-.656-.156v1.495l.656-.16z" class="T"/><use xlink:href="#f" y="-7.201" class="B J"/><path d="M196.768 42.652h20.882l2.346-.557v.28l-2.346.56h-20.882z" class="M"/><circle cx="187.946" cy="41.766" r="1.892" class="R"/><path d="M186.054 41.766a1.89 1.89 0 0 1 1.892-1.892c1.046 0 1.893.847 1.893 1.892v.33c0-1.045-.847-1.894-1.893-1.894s-1.892.85-1.892 1.894v-.33z" class="B J"/><path d="M189.838 41.766c0 1.045-.847 1.893-1.893 1.893s-1.892-.848-1.892-1.893v-.343c0 1.045.847 1.894 1.892 1.894s1.893-.85 1.893-1.894v.343z" class="M W"/><path d="M194.37 42.915v-2.3h-7.276v2.3z" class="P"/><path d="M187.534 42.915v-2.3h-.44v2.3z" class="C"/><path d="M188.21 42.915v-2.3h-.66v2.3z" class="T"/><path d="M192.246 39.19h5.953v5.152h-5.953z" class="Q"/><path d="M192.246 44.344v1.02h5.953v-1.02z" class="H"/><path d="M198.2 39.19v-1.024h-5.953v1.024z" class="I"/><use xlink:href="#d" y="-14.4" class="B J"/><use xlink:href="#d" y="-12.363" class="M"/><path d="M192.246 30.965h5.953v7.2h-5.953z"/><path d="M196.768 35.715v-2.298h20.882l2.346.558v1.18l-2.346.56z" class="P"/><path d="M219.996 33.975l-.656-.156v1.495l.656-.16z" class="T"/><path d="M196.768 33.417h20.882l2.346.558v.28l-2.346-.56h-20.882z" class="B J"/><path d="M196.768 35.453h20.882l2.346-.558v.28l-2.346.56h-20.882z" class="M"/><circle cx="187.946" cy="34.566" r="1.892" class="R"/><path d="M186.054 34.566a1.89 1.89 0 0 1 1.892-1.892c1.046 0 1.893.847 1.893 1.892v.33c0-1.045-.847-1.892-1.893-1.892a1.89 1.89 0 0 0-1.892 1.892v-.33z" class="B J"/><use xlink:href="#g" class="M W"/><path d="M194.37 35.715v-2.298h-7.276v2.298z" class="P"/><path d="M187.534 35.715v-2.298h-.44v2.298z" class="C"/><path d="M188.21 35.715v-2.298h-.66v2.298z" class="T"/><path d="M192.246 31.99h5.953v5.153h-5.953z" class="Q"/><path d="M192.246 37.144v1.02h5.953v-1.02z" class="H"/><path d="M198.2 31.99v-1.024h-5.953v1.024z" class="I"/><use xlink:href="#d" y="-21.6" class="B J"/><use xlink:href="#d" y="-19.563" class="M"/><path d="M192.246 23.765h5.953v7.2h-5.953z"/><use xlink:href="#e" y="-21.6" class="P"/><path d="M219.996 26.775l-.656-.156v1.494l.656-.16z" class="T"/><use xlink:href="#f" y="-21.6" class="B J"/><path d="M196.768 28.253h20.882l2.346-.56v.28l-2.346.558h-20.882z" class="M"/><circle cx="187.946" cy="27.366" r="1.892" class="R"/><use xlink:href="#h" class="B J"/><use xlink:href="#g" y="-7.2" class="M W"/><path d="M194.37 28.515v-2.3h-7.276v2.3z" class="P"/><path d="M187.534 28.515v-2.3h-.44v2.3z" class="C"/><path d="M188.21 28.515v-2.3h-.66v2.3z" class="T"/><path d="M192.246 24.79h5.953v5.153h-5.953z" class="Q"/><path d="M192.246 29.944v1.02h5.953v-1.02z" class="H"/><path d="M198.2 24.79v-1.024h-5.953v1.024z" class="I"/><use xlink:href="#d" y="-28.8" class="B J"/><use xlink:href="#d" y="-26.764" class="M"/><path d="M192.246 16.565h5.953v7.2h-5.953z"/><use xlink:href="#e" y="-28.8" class="P"/><path d="M219.996 19.575l-.656-.156v1.494l.656-.16z" class="T"/><use xlink:href="#f" y="-28.8" class="B J"/><path d="M196.768 21.053h20.882l2.346-.56v.28l-2.346.558h-20.882z" class="M"/><circle cx="187.946" cy="20.166" r="1.892" class="R"/><use xlink:href="#h" y="-7.2" class="B J"/><use xlink:href="#g" y="-14.4" class="M W"/><path d="M194.37 21.315v-2.3h-7.276v2.3z" class="P"/><path d="M187.534 21.315v-2.3h-.44v2.3z" class="C"/><path d="M188.21 21.315v-2.3h-.66v2.3z" class="T"/><path d="M192.246 17.59h5.953v5.153h-5.953z" class="Q"/><path d="M192.246 22.743v1.022h5.953v-1.022z" class="H"/><path d="M198.2 17.59v-1.024h-5.953v1.024z" class="I"/><use xlink:href="#d" y="-36" class="B J"/><use xlink:href="#d" y="-33.964" class="M"/><g transform="matrix(0 -1 1 0 9.559996 22.776)"><g class="Y"><path d="M3.315 14.857h.37v8.264h-.37v6.246h15.98V8.61H3.315z"/><path d="M21.854 23.12h-.37v-8.264h.37V8.61H5.995v20.756h15.86z"/></g><circle fill="#641d1c" cx="12.583" cy="18.991" r="5.117"/><path d="M12.833 24.105c2.826 0 5.117-2.29 5.117-5.114a5.12 5.12 0 0 0-5.117-5.12h-.25a5.12 5.12 0 0 1 5.117 5.12c0 2.825-2.29 5.114-5.117 5.114h.25z" class="J"/><g fill="#852725"><circle cx="12.584" cy="18.991" r="4.93"/><circle cx="12.467" cy="18.991" r="4.929"/></g><path d="M7.654 19.107a4.93 4.93 0 1 0 9.861 0v-.233a4.93 4.93 0 1 1-9.861 0v.233z" class="M"/><path d="M17.514 19.107a4.931 4.931 0 1 0-9.861 0v-.233a4.931 4.931 0 1 1 9.861 0v.233zm-14.2-4.25V8.6h.37v6.248zm.001 14.5v-6.244h.37v6.244zm.366-6.244v-8.267h.368v8.267z" class="J B"/><path d="M21.468 14.857V8.6h.368v6.248zm0 14.508V23.12h.37v6.244zm-.368-6.24v-8.267h.37v8.267z" class="J"/></g><path d="M38.95 15.2h2.75v2.25h-2.75zm0-12.25h2.75v2.252h-2.75zM15.575 8.4h2.75v3.417h-2.75zm0 6.8h2.75v2.25h-2.75zm0-12.25h2.75v2.252h-2.75z" class="R"/><path d="M15.575 8.4h.334v3.417h-.334zm0 6.8h.334v2.25h-.334zm0-12.25h.334v2.252h-.334z" class="J B"/><path d="M41.64 15.173h.103v2.25h-.103zm0-12.25h.103v2.252h-.103z" class="J"/><path d="M38.967 15.205h.334v2.25h-.334zm0-12.25h.334v2.252h-.334z" class="M"/><defs ><path id="B" d="M128.52 3.06h3.6v8.28h-3.6V3.06m0 4.14a1.8 1.8 0 1 0 3.6 0 1.8 1.8 0 0 0-3.6 0z"/><path id="C" d="M121.32 3.06h3.6v8.28h-3.6V3.06m0 4.14a1.8 1.8 0 0 0 3.6.003 1.8 1.8 0 0 0-3.6-.007z"/><path id="D" d="M154.44 139.86h3.6v8.28h-3.6v-8.28m0 4.14a1.8 1.8 0 0 0 3.6 0 1.8 1.8 0 1 0-3.6 0z"/><path id="E" d="M168.84 139.86h3.6v8.28h-3.6v-8.28m0 4.14a1.8 1.8 0 1 0 3.601 0 1.8 1.8 0 1 0-3.601 0z"/><path id="F" d="M176.04 3.06h3.6v8.28h-3.6V3.06m0 4.14a1.8 1.8 0 1 0 3.601 0 1.8 1.8 0 1 0-3.601 0z"/><path id="G" d="M183.78 18.36h8.28v3.6h-8.28v-3.6m2.34 1.8a1.8 1.8 0 1 0 3.6 0 1.8 1.8 0 0 0-3.6 0z"/><path id="H" d="M111.24 139.86h3.6v8.28h-3.6v-8.28m0 4.14a1.8 1.8 0 0 0 3.6.003c.001-.997-.804-1.804-1.798-1.806a1.8 1.8 0 0 0-1.802 1.799z"/><path id="I" d="M15.583 0H2.426a1.39 1.39 0 0 0-1.385 1.383v15.58a1.39 1.39 0 0 0 1.385 1.387h13.157l3.81-3.81V3.81L15.583 0z"/><path id="J" d="M131.722 8.598h-2.78V5.816h2.78z"/><path id="K" d="M132.747 9.623l-1.023-1.025h-2.783l-1.026 1.025z"/><path id="L" d="M127.915 9.623l1.026-1.028v-2.78l-1.026-1.023z"/><path id="M" d="M127.916 4.79l1.026 1.023h2.782l1.023-1.023z"/><path id="N" d="M132.75 4.79l-1.025 1.025v2.782l1.025 1.025z"/><path id="O" d="M120.717 4.79l1.024 1.023h2.783l1.024-1.023z"/><path id="P" d="M125.55 4.79l-1.026 1.025v2.782l1.026 1.025z"/><path id="Q" d="M118.348 9.623l-1.025-1.025h-2.783l-1.024 1.025z"/><path id="R" d="M113.516 9.623l1.024-1.028v-2.78l-1.024-1.023z"/><path id="S" d="M113.517 4.79l1.024 1.023h2.782l1.025-1.023z"/><path id="T" d="M118.35 4.79l-1.027 1.025v2.782l1.027 1.025z"/><path id="U" d="M154.838 142.603h2.78v2.782h-2.78z"/><path id="V" d="M158.645 141.58l-1.025 1.027v2.78l1.025 1.024z"/><path id="W" d="M153.81 146.41l1.025-1.026v-2.782l-1.025-1.024z"/><path id="X" d="M-19.756-27.773c.29-.063 1.212-1.07 1.15-1.886h.06c.06.877-.86 1.826-1.15 1.888l-.058-.002z"/><path id="Y" d="M-19.818-27.87c-.08.063-.076.13-.03.238h.06c-.05-.107-.052-.18.028-.24h-.057z"/><path id="Z" d="M-17.704-30.318h-3.83V-25l3.83.004v-5.32z"/><path id="a" d="M-19.756-27.773c.29-.062 1.212-1.07 1.15-1.885h.06c.06.877-.86 1.826-1.152 1.887l-.057-.002z"/><path id="b" d="M17.146 117.285v15.08h13.296a7.54 7.54 0 0 0 7.541-7.541c0-4.164-3.375-7.54-7.54-7.54l-13.296.002z"/><path id="c" d="M191.43 97.586h.28v1.418h-.28z"/><path id="d" d="M192.246 55.296h-5.15v-.28h5.15z"/><path id="e" d="M196.768 50.115v-2.3h20.882l2.346.56v1.18l-2.346.56z"/><path id="f" d="M196.768 47.816h20.882l2.346.56v.28l-2.346-.558h-20.882z"/><path id="g" d="M189.838 34.566c0 1.045-.847 1.892-1.893 1.892a1.89 1.89 0 0 1-1.892-1.892v-.343a1.89 1.89 0 0 0 1.892 1.892c1.046 0 1.893-.847 1.893-1.892v.343z"/><path id="h" d="M186.054 27.366a1.89 1.89 0 0 1 1.892-1.892c1.046 0 1.893.847 1.893 1.892v.328c0-1.045-.847-1.892-1.893-1.892a1.89 1.89 0 0 0-1.892 1.892v-.328z"/></defs></svg>