<svg xmlns="http://www.w3.org/2000/svg" xmlns:xlink="http://www.w3.org/1999/xlink" width="260" height="202" viewBox="0 0 194.4 151.2"><style><![CDATA[.B{fill:#fff}.C{fill:none}.D{font-family:OCRA}.E{stroke:#9a916c}.F{fill:#9a916c}.G{stroke-width:.673}.H{fill:#ccc}.I{fill:#2a2a29}.J{fill:#474747}.K{fill:#595959}.L{fill:#373737}.M{font-size:2.9px}.N{fill:#b3b3b3}.O{opacity:.15}.P{opacity:.5}.Q{fill:#999}.R{fill:gray}.S{font-size:4.176px}.T{stroke-linecap:round}.U{fill:#d1c690}.V{opacity:.2}.W{stroke:#fff}.X{stroke-width:.432}.Y{font-size:3px}.Z{stroke-width:.72}.a{opacity:.1}.b{fill:#f2f2f2}.c{fill:#feefd8}.d{fill:#fddfb1}.e{fill:#254e89}.f{fill:#3a5c8e}.g{fill:#123c66}.h{fill:#8b8b8b}.i{fill:#666}.j{fill:#5171a1}.k{font-size:3.5px}.l{fill:#22b573}.m{fill-opacity:.7}.n{fill:#9d956c}.o{opacity:.55}.p{opacity:.03}.q{fill:#404040}.r{stroke-width:.36}.s{font-family:Droid Sans}.t{stroke-miterlimit:10}]]></style><path fill="#0f7391" d="M187.2 144l7.2-7.2V43.2l-7.2-7.2V3.6L183.6 0H2.835C1.27 0 0 1.27 0 2.834v145.53c0 1.564 1.27 2.834 2.835 2.834h181.53c1.565 0 2.835-1.27 2.835-2.834V144m-4.535-93.6c-.004-2.505 2.022-4.54 4.527-4.543s4.54 2.022 4.544 4.527a4.54 4.54 0 0 1-4.528 4.559 4.54 4.54 0 0 1-4.543-4.528zm0 79.2c-.004-2.505 2.022-4.54 4.527-4.543s4.54 2.02 4.544 4.527a4.54 4.54 0 0 1-4.528 4.559c-2.504.004-4.538-2.02-4.543-4.527zm-144-122.04c-.004-2.505 2.023-4.54 4.528-4.542s4.54 2.024 4.542 4.53c.004 2.518-2.023 4.552-4.528 4.555s-4.538-2.024-4.542-4.53zM35.064 144c-.003-2.506 2.023-4.54 4.528-4.543s4.538 2.023 4.542 4.528c.005 2.52-2.023 4.552-4.528 4.556s-4.538-2.023-4.542-4.528zm107.6-93.6a1.35 1.35 0 0 1 1.345-1.349 1.35 1.35 0 0 1 1.349 1.345 1.35 1.35 0 0 1-1.345 1.353c-.744.001-1.348-.6-1.35-1.344zm0-7.2c-.001-.744.6-1.348 1.345-1.35a1.35 1.35 0 0 1 1.349 1.344c.002.748-.602 1.35-1.345 1.352s-1.348-.6-1.35-1.344zm0-7.2a1.35 1.35 0 0 1 1.345-1.349 1.35 1.35 0 0 1 1.349 1.345 1.35 1.35 0 0 1-1.345 1.353c-.744.001-1.348-.6-1.35-1.345zm21.6 14.4a1.35 1.35 0 0 1 1.346-1.349 1.35 1.35 0 0 1 1.349 1.345 1.35 1.35 0 0 1-1.345 1.353 1.35 1.35 0 0 1-1.35-1.344zm0-7.2a1.35 1.35 0 0 1 1.346-1.349 1.35 1.35 0 0 1 1.349 1.344c.001.748-.6 1.35-1.345 1.352a1.35 1.35 0 0 1-1.35-1.344zm0-7.2a1.35 1.35 0 0 1 1.346-1.349 1.35 1.35 0 0 1 1.349 1.345 1.35 1.35 0 0 1-1.345 1.353 1.35 1.35 0 0 1-1.35-1.345zm-21.6 108a1.35 1.35 0 0 1 1.345-1.351 1.35 1.35 0 0 1 1.349 1.347 1.35 1.35 0 0 1-1.345 1.352c-.744.002-1.348-.602-1.35-1.344zm7.2 0a1.35 1.35 0 0 1 1.344-1.351 1.35 1.35 0 0 1 1.349 1.347 1.35 1.35 0 0 1-1.344 1.352c-.744.002-1.348-.602-1.35-1.344zm7.2 0a1.35 1.35 0 0 1 1.344-1.351 1.35 1.35 0 0 1 1.349 1.347 1.35 1.35 0 0 1-1.345 1.352 1.35 1.35 0 0 1-1.349-1.344zm7.2 0a1.35 1.35 0 0 1 1.346-1.351 1.35 1.35 0 0 1 1.349 1.347 1.35 1.35 0 0 1-1.345 1.352 1.35 1.35 0 0 1-1.35-1.344zm7.2 0a1.35 1.35 0 0 1 1.345-1.351 1.35 1.35 0 0 1 1.35 1.347 1.35 1.35 0 0 1-1.346 1.352 1.35 1.35 0 0 1-1.349-1.344zm7.2 0a1.35 1.35 0 0 1 1.345-1.351 1.35 1.35 0 0 1 1.349 1.347 1.35 1.35 0 0 1-1.345 1.352c-.744.002-1.348-.602-1.35-1.344zM116.734 7.2c-.001-.744.6-1.348 1.345-1.35s1.347.6 1.348 1.344-.6 1.35-1.344 1.352-1.348-.6-1.35-1.344zm-7.2 0c-.001-.744.6-1.348 1.345-1.35a1.35 1.35 0 0 1 1.35 1.344 1.35 1.35 0 0 1-1.346 1.352 1.35 1.35 0 0 1-1.349-1.344zm-7.2 0a1.35 1.35 0 0 1 1.346-1.349 1.35 1.35 0 0 1 1.349 1.344 1.35 1.35 0 0 1-1.345 1.352 1.35 1.35 0 0 1-1.35-1.344zm-7.2 0a1.35 1.35 0 0 1 1.346-1.349 1.35 1.35 0 0 1 1.349 1.344 1.35 1.35 0 0 1-1.345 1.352 1.35 1.35 0 0 1-1.35-1.344zm-7.2 0c-.001-.744.6-1.348 1.345-1.35a1.35 1.35 0 0 1 1.349 1.344c.001.748-.6 1.35-1.345 1.352a1.35 1.35 0 0 1-1.349-1.344zm-7.2 0a1.35 1.35 0 0 1 1.345-1.349c.744-.001 1.348.6 1.35 1.344s-.6 1.35-1.345 1.352a1.35 1.35 0 0 1-1.349-1.344zm-7.2 0c-.002-.744.6-1.348 1.344-1.35a1.35 1.35 0 0 1 1.35 1.344 1.35 1.35 0 0 1-1.345 1.352 1.35 1.35 0 0 1-1.349-1.344zm-7.2 0a1.35 1.35 0 0 1 1.344-1.349 1.35 1.35 0 0 1 1.35 1.344c.001.748-.602 1.35-1.344 1.352a1.35 1.35 0 0 1-1.35-1.344zm-7.2 0a1.35 1.35 0 0 1 1.348-1.347c.743 0 1.346.603 1.346 1.347s-.603 1.346-1.346 1.346-1.348-.602-1.348-1.346zm-7.2 0c0-.744.603-1.347 1.347-1.347A1.35 1.35 0 0 1 54.627 7.2c0 .744-.604 1.346-1.347 1.346s-1.347-.602-1.347-1.346zm126.72 0c-.001-.744.6-1.348 1.345-1.35a1.35 1.35 0 0 1 1.349 1.344c.002.748-.602 1.35-1.345 1.352s-1.348-.6-1.35-1.344zm-7.2 0a1.35 1.35 0 0 1 1.345-1.349 1.35 1.35 0 0 1 1.35 1.344 1.35 1.35 0 0 1-1.346 1.352 1.35 1.35 0 0 1-1.349-1.344zm-7.2 0a1.35 1.35 0 0 1 1.346-1.349 1.35 1.35 0 0 1 1.349 1.344c.001.748-.6 1.35-1.345 1.352a1.35 1.35 0 0 1-1.35-1.344zm-7.2 0c-.003-.744.6-1.348 1.344-1.35s1.348.6 1.35 1.344-.6 1.35-1.345 1.352a1.35 1.35 0 0 1-1.349-1.344zm-7.2 0c-.001-.744.6-1.348 1.344-1.35s1.348.6 1.35 1.344-.6 1.35-1.344 1.352-1.348-.6-1.35-1.344zm-7.2 0c-.001-.744.6-1.348 1.345-1.35a1.35 1.35 0 0 1 1.349 1.344c.002.748-.602 1.35-1.345 1.352s-1.348-.6-1.35-1.344zm-7.2 0a1.35 1.35 0 0 1 1.345-1.349 1.35 1.35 0 0 1 1.35 1.344 1.35 1.35 0 0 1-1.346 1.352 1.35 1.35 0 0 1-1.349-1.344zm-7.2 0a1.35 1.35 0 0 1 1.346-1.349 1.35 1.35 0 0 1 1.349 1.344c.001.748-.6 1.35-1.345 1.352a1.35 1.35 0 0 1-1.35-1.344zM16.128 86.4a1.87 1.87 0 1 1 3.744-.001c.001 1.035-.837 1.873-1.87 1.874a1.87 1.87 0 0 1-1.873-1.871zm0 10.8c0-1.033.838-1.87 1.87-1.873s1.873.838 1.873 1.87a1.87 1.87 0 0 1-1.871 1.875c-1.034 0-1.872-.837-1.873-1.87zm0 10.8a1.87 1.87 0 1 1 3.744-.002c.001 1.035-.837 1.873-1.87 1.875s-1.872-.838-1.873-1.87zm0 10.8c0-1.033.838-1.87 1.87-1.872a1.87 1.87 0 1 1 .002 3.745c-1.034 0-1.872-.838-1.873-1.87zm0 10.8c0-1.034.838-1.873 1.87-1.873s1.873.838 1.873 1.87v.002a1.87 1.87 0 0 1-1.871 1.873c-1.034 0-1.872-.838-1.873-1.87zm0 10.8a1.87 1.87 0 1 1 3.744-.001c.001 1.035-.837 1.873-1.87 1.874a1.87 1.87 0 0 1-1.873-1.871zm104.926-90c-.003-.744.6-1.347 1.344-1.35s1.348.6 1.35 1.345a1.35 1.35 0 0 1-1.345 1.353c-.743.001-1.347-.6-1.348-1.344zm0-7.2c-.003-.744.6-1.348 1.344-1.35s1.348.6 1.35 1.344-.6 1.35-1.345 1.352-1.347-.6-1.348-1.344zm0-7.2c-.003-.744.6-1.347 1.344-1.35s1.348.6 1.35 1.345a1.35 1.35 0 0 1-1.345 1.353c-.743.001-1.347-.6-1.348-1.345zm-21.6 14.4a1.35 1.35 0 0 1 1.344-1.349 1.35 1.35 0 0 1 1.35 1.345 1.35 1.35 0 0 1-1.345 1.353 1.35 1.35 0 0 1-1.349-1.344zm0-7.2a1.35 1.35 0 0 1 1.344-1.349 1.35 1.35 0 0 1 1.35 1.344 1.35 1.35 0 0 1-1.345 1.352 1.35 1.35 0 0 1-1.349-1.344zm0-7.2a1.35 1.35 0 0 1 1.344-1.349 1.35 1.35 0 0 1 1.35 1.345 1.35 1.35 0 0 1-1.345 1.353 1.35 1.35 0 0 1-1.349-1.345zM85.052 144a1.35 1.35 0 0 1 1.346-1.351 1.35 1.35 0 0 1 1.349 1.347 1.35 1.35 0 0 1-1.345 1.352 1.35 1.35 0 0 1-1.35-1.344zm-7.2 0a1.35 1.35 0 0 1 1.346-1.351 1.35 1.35 0 0 1 1.349 1.347 1.35 1.35 0 0 1-1.345 1.352 1.35 1.35 0 0 1-1.35-1.344zm14.402 0a1.35 1.35 0 0 1 1.346-1.351 1.35 1.35 0 0 1 1.348 1.347 1.35 1.35 0 0 1-1.344 1.352 1.35 1.35 0 0 1-1.35-1.344zm7.2 0a1.35 1.35 0 0 1 1.344-1.351 1.35 1.35 0 0 1 1.35 1.347 1.35 1.35 0 0 1-1.345 1.352 1.35 1.35 0 0 1-1.349-1.344zm7.2 0a1.35 1.35 0 0 1 1.345-1.351 1.35 1.35 0 0 1 1.349 1.347 1.35 1.35 0 0 1-1.345 1.352c-.744.002-1.348-.602-1.35-1.344zm7.2 0a1.35 1.35 0 0 1 1.344-1.351 1.35 1.35 0 0 1 1.349 1.347 1.35 1.35 0 0 1-1.344 1.352c-.744.002-1.348-.602-1.35-1.344zm7.2 0a1.35 1.35 0 0 1 1.344-1.351 1.35 1.35 0 0 1 1.349 1.347 1.35 1.35 0 0 1-1.345 1.352c-.743.002-1.347-.602-1.348-1.344zm7.2 0a1.35 1.35 0 0 1 1.346-1.351 1.35 1.35 0 0 1 1.349 1.347 1.35 1.35 0 0 1-1.345 1.352 1.35 1.35 0 0 1-1.35-1.344zM56.16 54a1.44 1.44 0 0 1 1.44-1.44 1.44 1.44 0 0 1 0 2.88A1.44 1.44 0 0 1 56.16 54zm0-7.2a1.44 1.44 0 0 1 1.44-1.44 1.44 1.44 0 1 1 0 2.88 1.44 1.44 0 0 1-1.44-1.44zm0-7.2a1.44 1.44 0 0 1 1.44-1.44 1.44 1.44 0 1 1 0 2.88 1.44 1.44 0 0 1-1.44-1.44zm0-7.2a1.44 1.44 0 0 1 1.44-1.44 1.44 1.44 0 1 1 0 2.88 1.44 1.44 0 0 1-1.44-1.44zM77.76 54a1.44 1.44 0 1 1 2.88-.004c.001.8-.645 1.445-1.438 1.446a1.44 1.44 0 0 1-1.442-1.438zm0-7.2a1.44 1.44 0 0 1 1.438-1.442c.793-.001 1.44.643 1.442 1.438s-.645 1.445-1.438 1.446a1.44 1.44 0 0 1-1.442-1.438zm0-7.2a1.44 1.44 0 1 1 2.88-.004c.001.8-.645 1.445-1.438 1.446s-1.44-.643-1.442-1.438zm0-7.2a1.44 1.44 0 0 1 1.438-1.442c.793-.001 1.44.643 1.442 1.438s-.645 1.445-1.438 1.446a1.44 1.44 0 0 1-1.442-1.438z"/><g stroke-width="1.152" class="C T W"><path d="M7.2 79.2h21.6m0 0v68.4"/><path d="M28.8 147.6H7.2m0 0V79.2"/></g><text transform="matrix(0 1 -1 0 1.798 136.799)" class="B D S">GND</text><text transform="matrix(0 1 -1 0 1.798 126)" class="B D S">VIN</text><text transform="matrix(0 1 -1 0 2.798 116.2)" class="B D k">A+</text><text transform="matrix(0 1 -1 0 2.798 105.401)" class="B D k">A-</text><text transform="matrix(0 1 -1 0 2.798 93.401)" class="B D k">B+</text><text transform="matrix(0 1 -1 0 2.798 82.6)" class="B D k">B-</text><g class="C W"><g class="X"><path d="M166.32 66.456h-23.04" class="T"/><path d="M166.32 77.543a1.08 1.08 0 0 0 1.08-1.08m-24.12-10.007a1.08 1.08 0 0 0-1.08 1.08m25.2 0a1.08 1.08 0 0 0-1.08-1.08M142.2 76.463a1.08 1.08 0 0 0 1.08 1.08"/><path d="M143.28 77.543h23.04m1.08-1.08v-8.927m-25.2 0v3.024m0 0v2.88m0 0v3.023" class="T"/><path d="M142.2 73.44a1.44 1.44 0 0 0 0-2.88"/><path d="M142.2 76.536h25.2m-7.996 16.982v7.37m-9.214 0v-7.37" class="T"/><path d="M159.404 93.518a.92.92 0 0 0-.921-.922h-.001m-7.37 0a.92.92 0 0 0-.921.922m-.001 7.37a.92.92 0 0 0 .921.921m7.37.001a.92.92 0 0 0 .922-.92"/><g class="T"><path d="M150.998 101.8h.388m1.296 0h.548m1.295 0h.547m1.295 0h.548m1.285 0h.272m-7.36-9.214h.274m1.296 0h.548m1.295 0h.547"/><path d="M156.367 92.596h.548m1.285 0h.272"/></g></g><circle cx="152.119" cy="99.441" r="1.417" stroke-width=".144"/><g class="T X"><path d="M140.4 32.4h7.2m0 21.6V32.4m-7.2 0V54m7.2-21.6h1.8"/><path d="M149.4 54V32.4M147.6 54h-7.2m9 0h-1.8"/></g></g><path d="M143.28 51.12h1.44v1.44h-1.44zm0-7.2h1.44v1.44h-1.44zm0-7.2h1.44v1.44h-1.44z" class="B"/><g class="C T W X"><path d="M162 32.4h7.2m0 21.6V32.4m-7.2 0V54m7.2-21.6h1.8"/><path d="M171 54V32.4M169.2 54H162m9 0h-1.8"/></g><path d="M164.88 51.12h1.44v1.44h-1.44zm0-7.2h1.44v1.44h-1.44zm0-7.2h1.44v1.44h-1.44z" class="B"/><g class="C T W X"><path d="M163.8 140.4h3.6m0 0l1.8 1.8m0 0v3.6m0 0l-1.8 1.8m1.8-5.4l1.8-1.8m0 0h3.6m0 0l1.8 1.8m0 0v3.6"/><path d="M176.4 145.8l-1.8 1.8m0 0H171m0 0l-1.8-1.8m-14.4-3.6l1.8-1.8m0 0h3.6m0 0l1.8 1.8m0 0v3.6m0 0l-1.8 1.8"/><path d="M160.2 147.6h-3.6m0 0l-1.8-1.8m9-5.4l-1.8 1.8m0 3.6l1.8 1.8m3.6 0h-3.6m-21.6-7.2h3.6m0 0l1.8 1.8m0 0v3.6"/><path d="M147.6 145.8l-1.8 1.8m1.8-5.4l1.8-1.8m0 0h3.6m0 0l1.8 1.8m0 0v3.6m0 0l-1.8 1.8m0 0h-3.6m0 0l-1.8-1.8m-7.2-3.6v3.6m1.8-5.4l-1.8 1.8m0 3.6l1.8 1.8m3.6 0h-3.6m36-7.2h3.6m0 0l1.8 1.8m0 0v3.6m0 0l-1.8 1.8"/><path d="M178.2 140.4l-1.8 1.8m0 3.6l1.8 1.8m3.6 0h-3.6M64.08 9l-1.8 1.8m0 0h-3.6m0 0L56.88 9m0 0V5.4m0 0l1.8-1.8"/><path d="M58.68 3.6h3.6m0 0l1.8 1.8m12.6 5.4h-3.6m0 0L71.28 9"/><path d="M71.28 9V5.4m0 0l1.8-1.8M71.28 9l-1.8 1.8m0 0h-3.6m0 0L64.08 9m0 0V5.4m0 0l1.8-1.8m0 0h3.6"/><path d="M69.48 3.6l1.8 1.8M85.68 9l-1.8 1.8m0 0h-3.6m0 0L78.48 9"/><path d="M78.48 9V5.4m0 0l1.8-1.8m0 0h3.6m0 0l1.8 1.8m-9 5.4l1.8-1.8m0-3.6l-1.8-1.8m-3.6 0h3.6m21.6 7.2h-3.6m0 0L92.88 9m0 0V5.4m0 0l1.8-1.8M92.88 9l-1.8 1.8m0 0h-3.6m0 0L85.68 9m0 0V5.4m0 0l1.8-1.8"/><path d="M87.48 3.6h3.6m0 0l1.8 1.8m14.4 3.6l-1.8 1.8m0 0h-3.6m0 0l-1.8-1.8m0 0V5.4m0 0l1.8-1.8m0 0h3.6"/><path d="M105.48 3.6l1.8 1.8m-9 5.4l1.8-1.8m0-3.6l-1.8-1.8m-3.6 0h3.6m21.6 7.2h-3.6m0 0l-1.8-1.8m0 0V5.4m0 0l1.8-1.8m-1.8 5.4l-1.8 1.8m0 0h-3.6m0 0l-1.8-1.8m0 0V5.4m0 0l1.8-1.8m0 0h3.6m0 0l1.8 1.8m7.2 3.6V5.4"/><path d="M119.88 10.8l1.8-1.8m0-3.6l-1.8-1.8m-3.6 0h3.6m-64.8 7.2h-3.6m0 0L49.68 9m0 0V5.4m0 0l1.8-1.8m3.6 7.2l1.8-1.8"/><path d="M56.88 5.4l-1.8-1.8m-3.6 0h3.6m83.52 7.2H135m0 0L133.2 9"/><path d="M133.2 9V5.4m0 0l1.8-1.8M147.6 9l-1.8 1.8m0 0h-3.6m0 0L140.4 9m0 0V5.4m0 0l1.8-1.8m0 0h3.6"/><path d="M145.8 3.6l1.8 1.8m-9 5.4l1.8-1.8m0-3.6l-1.8-1.8m-3.6 0h3.6m21.6 7.2h-3.6m0 0L154.8 9m0 0V5.4m0 0l1.8-1.8M154.8 9l-1.8 1.8m0 0h-3.6m0 0L147.6 9m0 0V5.4m0 0l1.8-1.8m0 0h3.6m0 0l1.8 1.8M169.2 9l-1.8 1.8m0 0h-3.6m0 0L162 9m0 0V5.4m0 0l1.8-1.8"/><path d="M163.8 3.6h3.6m0 0l1.8 1.8m-9 5.4L162 9m0-3.6l-1.8-1.8m-3.6 0h3.6m21.6 7.2h-3.6m0 0L176.4 9m0 0V5.4"/><path d="M176.4 5.4l1.8-1.8M176.4 9l-1.8 1.8m0 0H171m0 0L169.2 9"/><path d="M169.2 9V5.4m0 0l1.8-1.8m0 0h3.6m0 0l1.8 1.8m7.2 3.6V5.4m-1.8 5.4l1.8-1.8m0-3.6l-1.8-1.8m-3.6 0h3.6m-50.4 7.2h-3.6m0 0L126 9m0 0V5.4m0 0l1.8-1.8"/><path d="M131.4 10.8l1.8-1.8m0-3.6l-1.8-1.8m-3.6 0h3.6M13.68 85.68v1.44"/><path d="M22.32 85.68v1.44m0-1.44h-1.08m1.08 1.44h-1.08m-7.56 0h1.08m-1.08-1.44h1.08m-1.08 10.8v1.44m8.64-1.44v1.44m0-1.44h-1.08"/><path d="M22.32 97.92h-1.08m-7.56 0h1.08m-1.08-1.44h1.08m-1.08 10.8v1.44"/><path d="M22.32 107.28v1.44m0-1.44h-1.08m1.08 1.44h-1.08m-7.56 0h1.08m-1.08-1.44h1.08m-1.08 10.8v1.44m8.64-1.44v1.44m0-1.44h-1.08"/><path d="M22.32 119.52h-1.08m-7.56 0h1.08m-1.08-1.44h1.08m-1.08 10.8v1.44"/><path d="M22.32 128.88v1.44m0-1.44h-1.08m1.08 1.44h-1.08m-7.56 0h1.08m-1.08-1.44h1.08m-1.08 10.8v1.44m8.64-1.44v1.44m0-1.44h-1.08"/><path d="M22.32 141.12h-1.08m-7.56 0h1.08m-1.08-1.44h1.08M118.8 32.4h7.2m0 21.6V32.4m-7.2 0V54m7.2-21.6h1.8m0 21.6V32.4M126 54h-7.2m9 0H126"/></g><path d="M121.68 51.12h1.438v1.44h-1.438zm0-7.2h1.438v1.44h-1.438zm0-7.2h1.438v1.44h-1.438z" class="B"/><g class="C T W X"><path d="M97.2 32.4h7.2m0 21.6V32.4m-7.2 0V54m7.2-21.6h1.8"/><path d="M106.2 54V32.4M104.4 54h-7.2m9 0h-1.8"/></g><path d="M100.08 51.12h1.44v1.44h-1.44zm0-7.2h1.44v1.44h-1.44zm0-7.2h1.44v1.44h-1.44z" class="B"/><g class="C T W X"><path d="M120.6 140.4h3.6m0 0l1.8 1.8m0 0v3.6m0 0l-1.8 1.8m-12.6-5.4l1.8-1.8m0 0h3.6m0 0l1.8 1.8m0 0v3.6"/><path d="M118.8 145.8l-1.8 1.8m0 0h-3.6m0 0l-1.8-1.8m9-5.4l-1.8 1.8m0 3.6l1.8 1.8m3.6 0h-3.6M99 140.4h3.6m0 0l1.8 1.8"/><path d="M104.4 142.2v3.6m0 0l-1.8 1.8m1.8-5.4l1.8-1.8m0 0h3.6"/><path d="M109.8 140.4l1.8 1.8m0 0v3.6m0 0l-1.8 1.8m0 0h-3.6m0 0l-1.8-1.8M90 142.2l1.8-1.8m0 0h3.6m0 0l1.8 1.8m0 0v3.6m0 0l-1.8 1.8m0 0h-3.6m0 0l-1.8-1.8"/><path d="M99 140.4l-1.8 1.8m0 3.6l1.8 1.8m3.6 0H99m-21.6-7.2H81m0 0l1.8 1.8m0 0v3.6"/><path d="M82.8 145.8l-1.8 1.8m1.8-5.4l1.8-1.8m0 0h3.6m0 0l1.8 1.8m0 0v3.6m0 0l-1.8 1.8m0 0h-3.6m0 0l-1.8-1.8m-7.2-3.6v3.6m1.8-5.4l-1.8 1.8m0 3.6l1.8 1.8m3.6 0h-3.6m50.4-7.2h3.6m0 0l1.8 1.8m0 0v3.6m0 0l-1.8 1.8"/><path d="M127.8 140.4l-1.8 1.8m0 3.6l1.8 1.8m3.6 0h-3.6"/></g><text transform="translate(10.576 24.726)" class="B D S">RESET</text><g class="C W"><g class="T r"><path d="M9.56 5.85V17.2m16.16 0v-4.25m0-2.837V5.85m0 7.088h.708"/><path d="M26.427 12.938v-2.835m0 0h-.708m-5.245 6.52h-5.67m.001 0v.566m0 .001v.567m0-.001h5.67"/><path d="M20.474 17.756v-.567m0 .001v-.566m0-11.34h-5.67m.001 0v.567m0-.001v.566m0 .001h5.67"/><path d="M20.474 6.417V5.85m0 0v-.567M25.72 17.2h-5.245m-5.67 0H9.56"/><path d="M14.805 5.85H9.56m10.914 0h5.245"/></g><circle cx="17.64" cy="11.52" r="4.252" class="r"/><circle cx="17.64" cy="11.52" r="3.402" class="r"/><g class="T X"><path d="M54 28.8h7.2m0 28.8V28.8"/><path d="M61.2 57.6H54m0-28.8v28.8m7.2-28.8H63m0 28.8V28.8m0 28.8h-1.8"/></g></g><path d="M56.88 40.32h1.44v1.44h-1.44zm0 7.2h1.44v1.44h-1.44zm0 7.2h1.44v1.44h-1.44zm0-21.6h1.44v1.44h-1.44z" class="B"/><g class="C T W X"><path d="M75.6 28.8h7.2m0 28.8V28.8"/><path d="M82.8 57.6h-7.2m0-28.8v28.8m7.2-28.8h1.8m0 28.8V28.8m0 28.8h-1.8"/></g><g class="B"><path d="M78.48 40.32h1.438v1.44H78.48zm0 7.2h1.438v1.44H78.48zm0 7.2h1.438v1.44H78.48zm0-21.6h1.438v1.44H78.48z"/><text transform="translate(140.399 130.961)" class="D Y">ANALOG</text><text transform="translate(2.757 39.416)" font-size="4.877" class="D">Arduino</text><text transform="translate(2.843 54.184)" font-size="3.71" class="D">www.arduino.cc</text><text transform="matrix(0 -1 1 0 69.312 20.533)" class="D M">AREF</text><text transform="matrix(0 -1 1 0 76.513 18.436)" class="D M">GND</text><text transform="matrix(0 -1 1 0 174.407 20.533)" class="D M">TX&gt;1</text><text transform="matrix(0 -1 1 0 181.248 20.533)" class="D M">RX&lt;0</text></g><g transform="matrix(0 -1 1 0 105.581 11.52)" class="B M"><text transform="translate(-6.548 -.27)" class="s">~</text><text transform="translate(-4.818 -.27)" class="D">10</text></g><text transform="matrix(0 -1 1 0 95.283 138.719)" class="B D Y">RES</text><text transform="matrix(0 -1 1 0 102.483 138.719)" class="B D Y">3V3</text><text transform="translate(27.536 36.001)" font-size="1.561" class="B D">TM</text><text transform="matrix(0 -1 1 0 124.651 26.823)" class="B D M">(*=PWM)</text><text transform="matrix(0 -1 1 0 88.082 138.719)" class="B D Y">IOREF</text><text transform="matrix(0 -1 1 0 90.912 26.823)" class="B D M">12-DIRA</text><text transform="matrix(0 -1 1 0 98.112 26.823)" class="B D M">11-PWMB</text><text transform="matrix(0 -1 1 0 62.112 18.436)" class="B D M">SDA</text><text transform="matrix(0 -1 1 0 54.912 18.436)" class="B D M">SCL</text><text transform="matrix(0 -1 1 0 83.711 26.823)" class="B D M">13-DIRB</text><text transform="matrix(0 -1 1 0 112.512 28.919)" class="B D M">BRAKEA 9</text><text transform="matrix(0 -1 1 0 119.713 28.919)" class="B D M">BRAKEB 8</text><text transform="matrix(0 -1 1 0 131.231 14.098)" class="B D M">7</text><g transform="matrix(0 -1 1 0 138.701 11.52)" class="B M"><text transform="translate(-4.451 -.269)" class="s">~</text><text transform="translate(-2.723 -.269)" class="D">6</text></g><g transform="matrix(0 -1 1 0 145.901 11.52)" class="B M"><text transform="translate(-4.451 -.269)" class="s">~</text><text transform="translate(-2.723 -.269)" class="D">5</text></g><text transform="matrix(0 -1 1 0 160.036 24.726)" class="B D M">PWMA 3</text><text transform="translate(143.042 138.719)" class="B D M">0</text><text transform="translate(39.384 91.063)" class="B D M">B</text><text transform="translate(39.384 114.597)" class="B D M">A</text><text transform="translate(150.19 138.719)" class="B D M">1</text><text transform="translate(157.378 138.719)" class="B D M">2</text><text transform="translate(164.503 138.719)" class="B D M">3</text><text transform="translate(171.753 138.719)" class="B D M">4</text><text transform="translate(178.608 138.719)" class="B D M">5</text><text transform="matrix(0 -1 1 0 152.831 14.098)" class="B D M">4</text><text transform="matrix(0 -1 1 0 166.72 14.098)" class="B D M">2</text><text transform="translate(2.756 44.273)" font-size="3.707" class="B D">MOTOR</text><text transform="translate(2.756 49.68)" font-size="3.707" class="B D">SHIELD REV3</text><text transform="matrix(0 -1 1 0 109.682 138.719)" class="B D Y">+5V</text><text transform="translate(115.641 138.719)" class="B D Y">GND</text><text transform="matrix(0 -1 1 0 131.282 138.719)" class="B D Y">VIN</text><text transform="translate(139.216 61.167)" class="B D S">IN2</text><text transform="translate(160.817 61.167)" class="B D S">IN3</text><text transform="translate(13.679 82.799)" class="B D S">LSP1</text><text transform="translate(13.679 93.6)" class="B D S">LSP2</text><text transform="translate(13.679 104.401)" class="B D S">LSP3</text><text transform="translate(13.679 115.2)" class="B D S">LSP4</text><text transform="translate(13.679 126.001)" class="B D S">LSP5</text><text transform="translate(13.679 136.799)" class="B D S">LSP6</text><text transform="translate(116.688 61.167)" class="B D S">OUT5</text><text transform="translate(95.088 61.167)" class="B D S">OUT6</text><text transform="translate(120.716 130.961)" class="B D Y">POWER</text><text transform="translate(46.599 63.001)" class="B D S">TWI-IN</text><text transform="translate(68.55 63.001)" class="B D S">TWI-OUT</text><path fill-opacity=".15" d="M142.2 66.456h25.2v11.087h-25.2zm8 26.14h9.213v9.213H150.2z" class="B"/><circle cx="144" cy="50.4" r="1.683" class="C E G"/><path d="M140.13 48.717h7.742v3.366h-7.742v-3.366m2.188 1.683a1.68 1.68 0 0 0 1.68 1.686c.93.002 1.686-.75 1.688-1.68.001-.935-.75-1.7-1.682-1.692s-1.684.75-1.686 1.68z" class="F"/><circle cx="144" cy="43.2" r="1.683" class="C E G"/><path d="M140.13 41.517h7.742v3.366h-7.742v-3.366m2.188 1.683c-.002.93.75 1.684 1.68 1.686s1.686-.75 1.688-1.68c.001-.936-.75-1.69-1.682-1.692s-1.684.75-1.686 1.68z" class="F"/><circle cx="144" cy="36" r="1.683" class="C E G"/><path d="M140.13 34.317h7.742v3.366h-7.742v-3.366M142.317 36a1.68 1.68 0 0 0 1.68 1.686c.93.001 1.686-.75 1.688-1.68.001-.936-.75-1.69-1.682-1.692s-1.684.75-1.686 1.68z" class="F"/><circle cx="165.6" cy="50.4" r="1.683" class="C E G"/><path d="M161.73 48.717h7.742v3.366h-7.742v-3.366m2.188 1.683c-.001.93.75 1.685 1.682 1.686a1.68 1.68 0 0 0 1.686-1.68c.002-.935-.75-1.7-1.68-1.692s-1.686.75-1.688 1.68z" class="F"/><circle cx="165.6" cy="43.2" r="1.683" class="C E G"/><path d="M161.73 41.517h7.742v3.366h-7.742v-3.366m2.188 1.683c-.001.93.75 1.684 1.682 1.686s1.685-.75 1.686-1.68c.002-.936-.75-1.69-1.68-1.692s-1.686.75-1.688 1.68z" class="F"/><circle cx="165.6" cy="36" r="1.683" class="C E G"/><path d="M161.73 34.317h7.742v3.366h-7.742v-3.366M163.917 36c-.001.93.75 1.685 1.682 1.686s1.685-.75 1.686-1.68c.002-.936-.75-1.69-1.68-1.692s-1.686.75-1.688 1.68z" class="F"/><circle cx="144" cy="144" r="1.683" class="C E G"/><use xlink:href="#B" class="F"/><circle cx="151.2" cy="144" r="1.683" class="C E G"/><path d="M149.517 140.13h3.365v7.742h-3.365v-7.742m0 3.87c-.002.93.75 1.684 1.68 1.686s1.685-.75 1.687-1.68c.001-.937-.75-1.693-1.68-1.694s-1.685.75-1.686 1.682z" class="F"/><circle cx="158.4" cy="144" r="1.683" class="C E G"/><use xlink:href="#C" class="F"/><circle cx="165.6" cy="144" r="1.683" class="C E G"/><use xlink:href="#C" x="7.201" class="F"/><circle cx="172.799" cy="144" r="1.683" class="C E G"/><path d="M171.117 140.13h3.366v7.742h-3.366v-7.742m0 3.87c-.002.93.75 1.684 1.68 1.686s1.686-.75 1.688-1.68c.002-.937-.75-1.693-1.68-1.694s-1.686.75-1.688 1.682z" class="F"/><circle cx="180" cy="144" r="1.683" class="C E G"/><use xlink:href="#B" x="36" class="F"/><circle cx="118.08" cy="7.2" r="1.683" class="C E G"/><path d="M116.397 3.33h3.366v7.742h-3.366V3.33m0 3.87c0 .93.753 1.683 1.683 1.683s1.685-.753 1.685-1.683-.755-1.683-1.685-1.683-1.683.754-1.683 1.683z" class="F"/><circle cx="110.88" cy="7.2" r="1.683" class="C E G"/><path d="M109.197 3.33h3.366v7.742h-3.366V3.33m0 3.87c0 .93.754 1.683 1.683 1.683s1.685-.753 1.685-1.683-.754-1.683-1.685-1.683-1.683.754-1.683 1.683z" class="F"/><circle cx="103.68" cy="7.2" r="1.683" class="C E G"/><use xlink:href="#D" class="F"/><circle cx="96.48" cy="7.2" r="1.683" class="C E G"/><use xlink:href="#E" class="F"/><circle cx="89.28" cy="7.2" r="1.683" class="C E G"/><path d="M87.596 3.33h3.365v7.742h-3.365V3.33m0 3.87c0 .93.754 1.683 1.684 1.683s1.683-.753 1.683-1.683-.754-1.683-1.683-1.683-1.684.754-1.684 1.683z" class="F"/><circle cx="82.08" cy="7.2" r="1.683" class="C E G"/><use xlink:href="#E" x="-14.4" class="F"/><circle cx="74.88" cy="7.2" r="1.683" class="C E G"/><path d="M73.197 3.33h3.365v7.742h-3.365V3.33m0 3.87c0 .93.753 1.683 1.683 1.683s1.684-.753 1.684-1.683-.753-1.683-1.684-1.683-1.683.754-1.683 1.683z" class="F"/><circle cx="67.68" cy="7.2" r="1.683" class="C E G"/><use xlink:href="#D" x="-36" class="F"/><circle cx="60.48" cy="7.2" r="1.683" class="C E G"/><path d="M58.796 3.33h3.366v7.742h-3.366V3.33m0 3.87c-.001.93.752 1.684 1.683 1.685s1.684-.752 1.685-1.682-.752-1.687-1.682-1.688-1.685.752-1.686 1.68z" class="F"/><circle cx="53.28" cy="7.2" r="1.683" class="C E G"/><path d="M51.596 3.33h3.365v7.742h-3.365V3.33m0 3.87c0 .93.753 1.684 1.682 1.685s1.685-.752 1.685-1.682-.752-1.687-1.682-1.688-1.684.752-1.685 1.68z" class="F"/><circle cx="180" cy="7.2" r="1.683" class="C E G"/><use xlink:href="#F" class="F"/><circle cx="172.799" cy="7.2" r="1.683" class="C E G"/><use xlink:href="#G" class="F"/><circle cx="165.6" cy="7.2" r="1.683" class="C E G"/><use xlink:href="#H" class="F"/><circle cx="158.4" cy="7.2" r="1.683" class="C E G"/><use xlink:href="#H" x="-7.201" class="F"/><circle cx="151.2" cy="7.2" r="1.683" class="C E G"/><path d="M149.517 3.33h3.365v7.742h-3.365V3.33m0 3.87c-.002.93.75 1.684 1.68 1.686s1.685-.75 1.687-1.68c.001-.936-.75-1.69-1.68-1.692a1.68 1.68 0 0 0-1.686 1.68z" class="F"/><circle cx="144" cy="7.2" r="1.683" class="C E G"/><use xlink:href="#F" x="-36" class="F"/><circle cx="136.799" cy="7.2" r="1.683" class="C E G"/><use xlink:href="#G" x="-36" class="F"/><circle cx="129.6" cy="7.2" r="1.683" class="C E G"/><path d="M127.917 3.33h3.366v7.742h-3.366V3.33m0 3.87c0 .93.754 1.683 1.685 1.683s1.683-.753 1.683-1.683-.753-1.683-1.683-1.683-1.685.754-1.685 1.683z" class="F"/><g class="C E"><g stroke-width="1.188"><circle cx="18" cy="86.4" r="2.466"/><circle cx="18" cy="97.2" r="2.466"/><circle cx="18" cy="108" r="2.466"/><circle cx="18" cy="118.8" r="2.466"/><circle cx="18" cy="129.6" r="2.466"/><circle cx="18" cy="140.4" r="2.466"/></g><circle cx="122.4" cy="50.4" r="1.683" class="G"/></g><use xlink:href="#I" class="F"/><circle cx="122.4" cy="43.2" r="1.683" class="C E G"/><use xlink:href="#I" y="-7.2" class="F"/><circle cx="122.4" cy="36" r="1.683" class="C E G"/><path d="M118.53 34.317h7.742v3.366h-7.742v-3.366M120.716 36c0 .93.754 1.683 1.685 1.683s1.683-.753 1.683-1.683-.753-1.683-1.683-1.683-1.685.753-1.685 1.683z" class="F"/><circle cx="100.799" cy="50.4" r="1.683" class="C E G"/><use xlink:href="#J" class="F"/><circle cx="100.799" cy="43.2" r="1.683" class="C E G"/><use xlink:href="#J" y="-7.2" class="F"/><circle cx="100.799" cy="36" r="1.683" class="C E G"/><path d="M96.93 34.317h7.74v3.366h-7.74v-3.366M99.117 36c0 .93.753 1.683 1.683 1.683s1.685-.753 1.685-1.683-.754-1.683-1.685-1.683-1.683.753-1.683 1.683z" class="F"/><circle cx="86.4" cy="144" r="1.683" class="C E G"/><use xlink:href="#K" class="F"/><circle cx="79.201" cy="144" r="1.683" class="C E G"/><use xlink:href="#K" x="-7.199" class="F"/><circle cx="93.6" cy="144" r="1.683" class="C E G"/><path d="M91.917 140.13h3.366v7.742h-3.366v-7.742m0 3.87c0 .93.753 1.683 1.684 1.683s1.684-.753 1.684-1.683-.754-1.685-1.684-1.685-1.684.756-1.684 1.685z" class="F"/><circle cx="100.799" cy="144" r="1.683" class="C E G"/><use xlink:href="#L" class="F"/><circle cx="108" cy="144" r="1.683" class="C E G"/><use xlink:href="#L" x="7.2" class="F"/><circle cx="115.2" cy="144" r="1.683" class="C E G"/><path d="M113.517 140.13h3.365v7.742h-3.365v-7.742m0 3.87c0 .93.753 1.683 1.683 1.683s1.684-.753 1.684-1.683-.754-1.685-1.684-1.685-1.683.756-1.683 1.685z" class="F"/><circle cx="122.4" cy="144" r="1.683" class="C E G"/><use xlink:href="#M" class="F"/><circle cx="129.6" cy="144" r="1.683" class="C E G"/><use xlink:href="#M" x="7.201" class="F"/><circle cx="57.6" cy="54" r="1.8" class="C E Z"/><path d="M53.46 52.2h8.28v3.6h-8.28v-3.6M55.8 54c0 .994.806 1.8 1.8 1.802s1.8-.805 1.802-1.8-.806-1.804-1.8-1.805-1.802.805-1.803 1.8z" class="F"/><circle cx="57.6" cy="46.8" r="1.8" class="C E Z"/><path d="M53.46 45h8.28v3.6h-8.28V45m2.34 1.8c0 .994.806 1.8 1.8 1.802A1.8 1.8 0 1 0 57.602 45a1.8 1.8 0 0 0-1.803 1.798z" class="F"/><circle cx="57.6" cy="39.6" r="1.8" class="C E Z"/><path d="M53.46 37.8h8.28v3.6h-8.28v-3.6m2.34 1.8a1.8 1.8 0 1 0 3.602.003c.001-.997-.806-1.804-1.8-1.805a1.8 1.8 0 0 0-1.803 1.798z" class="F"/><circle cx="57.6" cy="32.4" r="1.8" class="C E Z"/><path d="M53.46 30.6h8.28v3.6h-8.28v-3.6m2.34 1.8c0 .994.806 1.8 1.8 1.802a1.8 1.8 0 1 0 .003-3.602 1.8 1.8 0 0 0-1.803 1.798z" class="F"/><circle cx="79.2" cy="54" r="1.8" class="C E Z"/><path d="M75.06 52.2h8.278v3.6H75.06v-3.6M77.4 54a1.8 1.8 0 1 0 3.6.003 1.8 1.8 0 1 0-3.6-.006z" class="F"/><circle cx="79.2" cy="46.8" r="1.8" class="C E Z"/><path d="M75.06 45h8.278v3.6H75.06V45m2.34 1.8a1.8 1.8 0 1 0 3.6.004 1.8 1.8 0 1 0-3.6-.006z" class="F"/><circle cx="79.2" cy="39.6" r="1.8" class="C E Z"/><path d="M75.06 37.8h8.278v3.6H75.06v-3.6m2.34 1.8a1.8 1.8 0 0 0 3.6.003 1.8 1.8 0 0 0-3.6-.007z" class="F"/><circle cx="79.2" cy="32.4" r="1.8" class="C E Z"/><path d="M75.06 30.6h8.278v3.6H75.06v-3.6m2.34 1.8a1.8 1.8 0 1 0 3.6.004 1.8 1.8 0 1 0-3.6-.006z" class="F"/><g transform="matrix(0 -1 1 0 135.70798 55.803)"><path d="M0 16.27V-.001h25.2v16.27z" class="c"/><path d="M4.536 16.257V13.31h16.167v2.946z" class="d"/><path d="M0 16.268v-.272h25.2v.272z" class="V"/><path d="M0 .27v-.27h25.2v.27z" class="B a"/><path d="M4.495 9.263V7.447h1.812v1.816z" class="N"/><path d="M3.64 6.588l.856.86h1.898l.77-.86z" class="H"/><path d="M6.305 9.262v-1.8l.857-.873v3.527z" class="Q"/><path d="M4.495 9.262h1.8l.857.853H3.64z" class="R"/><use xlink:href="#N" class="H"/><path d="M11.693 9.264V7.45h1.813v1.815z" class="N"/><path d="M10.837 6.588l.856.86h1.9l.77-.86z" class="H"/><path d="M13.504 9.262v-1.8l.858-.873v3.527z" class="Q"/><path d="M11.693 9.262h1.81l.858.853h-3.525z" class="R"/><use xlink:href="#N" x="7.197" class="H"/><path d="M18.895 9.264V7.45h1.813v1.815z" class="N"/><path d="M18.038 6.588l.857.86h1.897l.77-.86z" class="H"/><path d="M20.704 9.262v-1.8l.86-.873v3.527z" class="Q"/><path d="M18.895 9.262h1.81l.86.853h-3.525z" class="R"/><path d="M18.038 6.588l.857.87v1.805l-.857.853z" class="H"/></g><g transform="matrix(0 -1 1 0 157.30798 55.803)"><path d="M0 16.268V0h25.2v16.268z" class="c"/><path d="M4.536 16.258V13.31h16.167v2.947z" class="d"/><path d="M0 16.267v-.272h25.2v.272z" class="V"/><path d="M0 .268V0h25.2v.268z" class="B a"/><path d="M4.496 9.263V7.447h1.812v1.816z" class="N"/><path d="M3.64 6.588l.856.86h1.898l.77-.86z" class="H"/><path d="M6.305 9.262v-1.8l.857-.873v3.527z" class="Q"/><path d="M4.495 9.262h1.8l.857.853H3.64z" class="R"/><use xlink:href="#N" class="H"/><path d="M11.693 9.263V7.448h1.813v1.815z" class="N"/><path d="M10.837 6.588l.856.86h1.9l.77-.86z" class="H"/><path d="M13.504 9.262v-1.8l.858-.873v3.527z" class="Q"/><path d="M11.693 9.262h1.81l.858.853h-3.525z" class="R"/><use xlink:href="#N" x="7.197" class="H"/><path d="M18.895 9.263V7.448h1.813v1.815z" class="N"/><path d="M18.038 6.588l.857.86h1.897l.77-.86z" class="H"/><path d="M20.704 9.262v-1.8l.86-.873v3.527z" class="Q"/><path d="M18.895 9.262h1.81l.86.853h-3.525z" class="R"/><path d="M18.038 6.588l.857.87v1.805l-.857.853z" class="H"/></g><g transform="matrix(0 -1 1 0 68.75449 99.29151)"><path d="M-21.727-24.402v-7.35h3.833v7.35z" class="b"/><path d="M-21.726-27.003s.467.646.426.867.148.54 0 .676l-.424-.02-.002-1.524z" class="l m"/><path d="M-20.262-27.722v-.854h.96v.854z" class="B"/><path d="M-20.287-27.72v-.854h.05v.854z" class="N"/><g class="U"><path d="M-21.303-26.423l-.103.963h.73l-.103-.963z"/><path d="M-21.103-26.36c.035-.275.104-.455.162-.607.08-.2.78-.56.695-.828-.012-.026.012-.06.043-.065s.068.01.078.04c.096.305-.617.674-.7.894a2.03 2.03 0 0 0-.154.571c-.004.028-.033.056-.067.05s-.056-.028-.056-.054zm2.69-3.483l.104-.967h-.73l.104.967z"/><path d="M-19.935-28.2c0-.024.02-.05.047-.056.293-.063 1.152-1.088 1.152-1.885 0-.033.025-.058.063-.058s.063.024.063.058h0c0 .75-.77 1.892-1.245 1.993-.035.008-.067-.013-.078-.04zm-.015.47s.002-.356-.313-.384v.384h.313z"/><path d="M-19.633-28.154s-.307.157-.352.053-.052-.178.028-.24c.086-.062.324.186.324.186z"/></g><g class="n"><path d="M-20.3-27.796c.084.27-.617.62-.697.828-.06.146-.127.33-.162.598h.06c.035-.266.104-.446.162-.598.08-.2.78-.56.695-.828h-.057zm1.306-2.047l-.104-.967h.057l.104.967z"/><path d="M-19.945-28.247c.3-.063 1.213-1.07 1.148-1.885h.06c.06.877-.86 1.826-1.152 1.887l-.057-.002zm-.373.144v.382h.057v-.382h-.057z"/><path d="M-20.008-28.343c-.08.063-.076.13-.03.237l.06.002c-.05-.106-.053-.18.027-.24h-.057z"/></g><path d="M-17.945-26.05v-4.223h.052v4.223z" class="B P"/><path d="M-17.892-30.792h-3.832v5.317l3.832.004v-5.32z" class="P b"/><path d="M-18.545-30.74h.27c.15.02.27-.013.27.098v4.854c0 .168-.064.177-.064-.012v-4.347c0-.457-.104-.52-.196-.52l-.27.002c-.187 0-.187-.076-.01-.076z" class="B o"/><path d="M-21.504-25.613c-.068 0-.14.012-.14-.1v-4.816c0-.168.063-.177.063.008l.002 3.6.074 1.317z" class="p"/><path d="M-21.726-31.75v.77h.52c.125 0 .213.08.268.188h3.047v-1h-3.834" class="U"/><path d="M-17.945-30.794V-31.8h.053v1.006z" class="B P"/><path d="M-21.726-24.402h3.834v-1.07h-3.465c-.057.104-.146.19-.27.19h-.1v.83" class="U"/><path d="M-17.945-24.403v-1.072h.053v1.072z" class="B P"/></g><g transform="matrix(0 -1 1 0 68.75449 88.49151)"><path d="M-21.538-24.403v-7.35h3.833v7.35z" class="b"/><path d="M-21.537-27.003s.468.646.427.867.147.54 0 .676l-.425-.02-.002-1.524z" class="l m"/><path d="M-20.07-27.72v-.854h.96v.854z" class="B"/><path d="M-20.097-27.72v-.854h.05v.854z" class="N"/><g class="U"><path d="M-21.112-26.423l-.105.963h.732l-.105-.963z"/><path d="M-20.914-26.36c.035-.275.104-.455.162-.607.08-.2.782-.56.696-.828-.012-.026.01-.06.043-.065s.068.01.078.04c.095.305-.617.674-.7.894a2.1 2.1 0 0 0-.155.57c-.004.028-.032.056-.067.05s-.056-.028-.056-.054zm2.688-3.483l.104-.967h-.73l.104.967z"/><path d="M-19.746-28.2c0-.024.02-.05.048-.056.3-.063 1.15-1.088 1.15-1.885 0-.033.026-.058.063-.058s.063.024.063.058h0c0 .75-.77 1.892-1.245 1.993-.034.008-.067-.013-.078-.04zm-.016.47s.002-.356-.312-.384v.384h.312z"/><path d="M-19.442-28.154s-.307.157-.352.053-.053-.178.027-.24.325.186.325.186z"/></g><g class="n"><path d="M-20.1-27.796c.084.27-.62.62-.7.828a2.22 2.22 0 0 0-.161.598h.06c.035-.266.104-.446.162-.598.08-.2.782-.56.696-.828h-.058zm1.296-2.047l-.103-.967h.054l.104.967z"/><path d="M-19.756-28.247c.3-.063 1.212-1.07 1.15-1.885h.06c.06.877-.86 1.826-1.15 1.887l-.058-.002zm-.374.144v.382h.058v-.382h-.058z"/><path d="M-19.817-28.343c-.08.063-.076.13-.03.237l.06.002c-.05-.106-.052-.18.028-.24h-.058z"/></g><path d="M-17.754-26.05v-4.223h.05v4.223z" class="B P"/><path d="M-17.704-30.792h-3.83v5.317l3.83.004v-5.32z" class="P b"/><path d="M-18.357-30.74h.27c.15.02.27-.013.27.098v4.854c0 .168-.064.177-.064-.012v-4.347c0-.457-.104-.52-.196-.52l-.272.002c-.183 0-.183-.076-.01-.076z" class="B o"/><path d="M-21.315-25.613c-.067 0-.14.012-.14-.1v-4.816c0-.168.065-.177.065.008l.002 3.6c.002.593.072 1.317.072 1.317z" class="p"/><path d="M-21.537-31.75v.77h.52c.125 0 .215.08.27.188h3.05v-1h-3.836" class="U"/><path d="M-17.755-30.794V-31.8h.052v1.006z" class="B P"/><path d="M-21.537-24.402h3.833v-1.07h-3.464c-.056.104-.146.19-.27.19h-.102v.83" class="U"/><path d="M-17.755-24.403v-1.072h.053v1.072z" class="B P"/></g><g transform="matrix(0 -1 1 0 68.75449 77.69151)"><path d="M-20.83-24.402v-7.35h3.834v7.35z" class="b"/><path d="M-20.83-27.003s.468.646.427.867.147.54 0 .676l-.425-.02v-1.524z" class="l m"/><path d="M-19.364-27.72v-.854h.96v.854z" class="B"/><path d="M-19.4-27.722v-.854h.05v.854z" class="N"/><g class="U"><path d="M-20.406-26.423l-.104.963h.73l-.104-.963z"/><path d="M-20.208-26.36c.035-.275.104-.455.162-.607.08-.2.78-.56.695-.828-.012-.026.012-.06.043-.065s.068.01.078.04c.095.305-.616.674-.7.894a2.1 2.1 0 0 0-.155.57c-.004.028-.033.056-.067.05s-.056-.028-.056-.054zm2.7-3.483l.103-.967h-.73l.103.967z"/><path d="M-19.04-28.2c0-.024.02-.05.047-.056.293-.063 1.152-1.088 1.152-1.885 0-.033.025-.058.063-.058.033.002.063.024.063.058h0c0 .75-.77 1.892-1.246 1.993-.035.008-.066-.013-.078-.04zm-.015.47s.002-.356-.3-.384v.384h.3z"/><path d="M-18.736-28.154s-.306.157-.35.053c-.05-.106-.054-.178.026-.24.086-.062.325.186.325.186z"/></g><g class="n"><path d="M-19.404-27.796c.084.27-.618.62-.698.828-.06.146-.127.33-.162.598h.06c.035-.266.104-.446.162-.598.08-.2.783-.56.696-.828h-.057zm1.307-2.047l-.103-.967h.055l.103.967z"/><path d="M-19.05-28.247c.3-.063 1.213-1.07 1.15-1.885h.06c.062.877-.858 1.826-1.152 1.887l-.057-.002zm-.372.144v.382h.06v-.382h-.06z"/><path d="M-19.11-28.343c-.08.063-.076.13-.03.237l.06.002c-.05-.106-.05-.18.03-.24h-.058z"/></g><path d="M-17.047-26.05v-4.223h.05v4.223z" class="B P"/><path d="M-16.997-30.792h-3.832v5.317l3.832.004v-5.32z" class="P b"/><path d="M-17.65-30.74h.27c.15.02.27-.013.27.098v4.854c0 .168-.065.177-.065-.012v-4.347c0-.457-.104-.52-.197-.52l-.27.002c-.183 0-.183-.076-.01-.076z" class="B o"/><path d="M-20.608-25.613c-.068 0-.14.012-.14-.1v-4.816c0-.168.064-.177.064.008l.003 3.6c.002.593.072 1.317.072 1.317z" class="p"/><path d="M-20.83-31.75v.77h.52c.125 0 .213.08.27.188h3.047v-1h-3.834" class="U"/><path d="M-17.047-30.794V-31.8h.05v1.006z" class="B P"/><path d="M-20.83-24.402h3.834v-1.07h-3.465c-.057.104-.146.19-.27.19h-.102v.83" class="U"/><path d="M-17.048-24.403v-1.072h.05v1.072z" class="B P"/></g><g transform="matrix(0 -1 1 0 68.75449 66.89151)"><path d="M-18.96-24.404v-7.35h3.833v7.35z" class="b"/><path d="M-18.96-27.003s.468.646.427.867.147.54 0 .676l-.425-.02v-1.524z" class="l m"/><path d="M-17.494-27.72v-.854h.96v.854z" class="B"/><path d="M-17.52-27.72v-.854h.05v.854z" class="N"/><g class="U"><path d="M-18.536-26.423l-.102.963h.73l-.102-.963z"/><path d="M-18.338-26.36c.035-.275.104-.455.162-.607.08-.2.78-.56.695-.828-.012-.026.012-.06.043-.065s.068.01.078.04c.096.305-.617.674-.7.894a2.07 2.07 0 0 0-.154.57c-.004.028-.032.056-.067.05s-.056-.028-.056-.054zm2.69-3.483l.1-.967h-.727l.1.967z"/><path d="M-17.17-28.2c0-.024.02-.05.048-.056.292-.063 1.15-1.088 1.15-1.885 0-.033.025-.058.063-.058s.063.024.063.058h0c0 .75-.77 1.892-1.244 1.993-.035.008-.068-.013-.078-.04zm-.014.47s.003-.356-.312-.384v.384h.312z"/><path d="M-16.866-28.154s-.308.157-.353.053-.05-.178.03-.24c.086-.062.324.186.324.186z"/></g><g class="n"><path d="M-17.534-27.796c.084.27-.618.62-.697.828-.062.146-.128.33-.162.598h.06c.035-.266.104-.446.162-.598.08-.2.78-.56.694-.828h-.057zm1.307-2.047l-.103-.967h.056l.1.967z"/><path d="M-17.177-28.247c.3-.063 1.2-1.07 1.147-1.885h.062c.06.877-.86 1.826-1.152 1.887l-.057-.002zm-.373.144v.382h.057v-.382h-.057z"/><path d="M-17.24-28.343c-.08.063-.076.13-.03.237l.062.002c-.05-.106-.053-.18.026-.24h-.057z"/></g><path d="M-15.178-26.05v-4.223h.052v4.223z" class="B P"/><path d="M-15.127-30.792h-3.832v5.317l3.832.004v-5.32z" class="P b"/><path d="M-15.78-30.74h.27c.15.02.27-.013.27.098v4.854c0 .168-.063.177-.063-.012v-4.347c0-.457-.105-.52-.197-.52l-.27.002c-.185 0-.185-.076-.01-.076z" class="B o"/><path d="M-18.738-25.613c-.066 0-.14.012-.14-.1v-4.816c0-.168.064-.177.064.008l.002 3.6.073 1.317z" class="p"/><path d="M-18.96-31.75v.77h.52c.125 0 .213.08.268.188h3.047v-1h-3.834" class="U"/><path d="M-15.18-30.794V-31.8h.054v1.006z" class="B P"/><path d="M-18.96-24.402h3.834v-1.07h-3.465c-.057.104-.146.19-.27.19h-.1v.83" class="U"/><path d="M-15.18-24.403v-1.072h.053v1.072z" class="B P"/></g><g class="C W t"><path stroke-width=".513" d="M1.44 79.322H46.6v21.95H1.44z"/><path stroke-width=".488" d="M1.44 102.89H46.6v19.89H1.44z"/></g><g transform="matrix(0 -1 1 0 114.10798 55.803)"><path d="M0 16.267V-.001h25.2v16.268z" class="c"/><path d="M4.537 16.257V13.3h16.167v2.947z" class="d"/><path d="M-.001 16.267v-.272h25.2v.272z" class="V"/><path d="M0 .267v-.268h25.2v.268z" class="B a"/><path d="M4.496 9.263V7.45h1.812v1.814z" class="N"/><path d="M3.64 6.588l.856.86h1.898l.77-.86z" class="H"/><path d="M6.305 9.262v-1.8l.857-.873v3.527z" class="Q"/><path d="M4.495 9.262h1.8l.857.853H3.64z" class="R"/><use xlink:href="#N" class="H"/><path d="M11.694 9.263V7.448h1.813v1.815z" class="N"/><path d="M10.837 6.588l.856.86h1.9l.77-.86z" class="H"/><path d="M13.504 9.262v-1.8l.858-.873v3.527z" class="Q"/><path d="M11.693 9.262h1.81l.858.853h-3.525z" class="R"/><use xlink:href="#N" x="7.197" class="H"/><path d="M18.896 9.263V7.448h1.813v1.815z" class="N"/><path d="M18.038 6.588l.857.86h1.897l.77-.86z" class="H"/><path d="M20.704 9.262v-1.8l.86-.873v3.527z" class="Q"/><path d="M18.895 9.262h1.81l.86.853h-3.525z" class="R"/><path d="M18.038 6.588l.857.87v1.805l-.857.853z" class="H"/></g><g transform="matrix(0 -1 1 0 92.50798 55.803)"><path d="M0 16.268V0h25.2v16.268z" class="c"/><path d="M4.536 16.258V13.31h16.167v2.947z" class="d"/><path d="M0 16.267v-.272h25.2v.272z" class="V"/><path d="M0 .268V0h25.2v.268z" class="B a"/><path d="M4.496 9.263V7.447h1.812v1.816z" class="N"/><path d="M3.64 6.588l.856.858h1.898l.77-.858z" class="H"/><path d="M6.305 9.262v-1.8l.857-.873v3.526z" class="Q"/><path d="M4.495 9.262h1.8l.857.852H3.64z" class="R"/><path d="M3.64 6.588l.856.87v1.805l-.856.852z" class="H"/><path d="M11.693 9.263V7.448h1.813v1.815z" class="N"/><path d="M10.837 6.588l.856.858h1.9l.77-.858z" class="H"/><path d="M13.504 9.262v-1.8l.858-.873v3.526z" class="Q"/><path d="M11.693 9.262h1.81l.858.852h-3.525z" class="R"/><path d="M10.837 6.588l.856.87v1.805l-.856.852z" class="H"/><path d="M18.895 9.263V7.448h1.813v1.815z" class="N"/><path d="M18.038 6.588l.857.858h1.897l.77-.858z" class="H"/><path d="M20.704 9.262v-1.8l.86-.873v3.526z" class="Q"/><path d="M18.895 9.262h1.81l.86.852h-3.525z" class="R"/><path d="M18.038 6.588l.857.87v1.805l-.857.852z" class="H"/></g><g transform="matrix(0 -1 1 0 46.95149 57.6005)"><path d="M0 18.523V2.252h28.8v16.27z" class="c"/><path d="M6.336 18.512v-2.946h16.168v2.946z" class="d"/><path d="M0 18.52v-.27h28.8v.27z" class="V"/><path d="M0 2.52v-.27h28.8v.27z" class="B a"/><path d="M9.896 11.516V9.7h1.812v1.815z" class="N"/><path d="M9.04 8.84l.856.86h1.897l.77-.86z" class="H"/><path d="M11.705 11.516v-1.8l.857-.874v3.528z" class="Q"/><path d="M9.895 11.516h1.8l.857.853H9.04z" class="R"/><use xlink:href="#N" x="5.4" y="2.252" class="H"/><path d="M2.695 11.516V9.702h1.812v1.814z" class="N"/><path d="M1.84 8.84l.856.86h1.898l.77-.86z" class="H"/><path d="M4.505 11.516v-1.8l.857-.874v3.528z" class="Q"/><path d="M2.695 11.516h1.8l.857.853H1.84z" class="R"/><use xlink:href="#N" x="-1.8" y="2.252" class="H"/><path d="M17.094 11.516V9.7h1.813v1.815z" class="N"/><path d="M16.238 8.84l.856.86h1.9l.77-.86z" class="H"/><path d="M18.906 11.516v-1.8l.857-.874v3.528z" class="Q"/><path d="M17.094 11.516h1.812l.857.853h-3.525z" class="R"/><use xlink:href="#N" x="12.598" y="2.252" class="H"/><path d="M24.295 11.515V9.7h1.813v1.814z" class="N"/><path d="M23.438 8.84l.857.86h1.897l.77-.86z" class="H"/><path d="M26.104 11.516v-1.8l.86-.874v3.528z" class="Q"/><path d="M24.295 11.516h1.81l.86.853h-3.525z" class="R"/><path d="M23.438 8.84l.857.87v1.805l-.857.853z" class="H"/></g><g transform="matrix(0 -1 1 0 68.55149 57.6005)"><path d="M0 18.522V2.25h28.8v16.27z" class="c"/><path d="M6.337 18.512v-2.947h16.168v2.947z" class="d"/><path d="M0 18.52v-.273h28.8v.273z" class="V"/><path d="M0 2.52v-.27h28.8v.27z" class="B a"/><path d="M9.895 11.517V9.7h1.813v1.816z" class="N"/><path d="M9.04 8.84l.856.86h1.897l.77-.86z" class="H"/><path d="M11.705 11.516V9.714l.857-.873v3.528z" class="Q"/><path d="M9.895 11.516h1.8l.857.853H9.04z" class="R"/><path d="M9.04 8.84l.856.87v1.806l-.856.853z" class="H"/><path d="M2.695 11.517V9.7h1.812v1.816z" class="N"/><path d="M1.84 8.84l.856.86h1.898l.77-.86z" class="H"/><path d="M4.505 11.516V9.714l.857-.873v3.528z" class="Q"/><path d="M2.695 11.516h1.8l.857.853H1.84z" class="R"/><path d="M1.84 8.84l.856.87v1.806l-.856.853z" class="H"/><path d="M17.094 11.518V9.703h1.813v1.815z" class="N"/><path d="M16.238 8.84l.856.86h1.9l.77-.86z" class="H"/><path d="M18.906 11.516V9.714l.857-.873v3.528z" class="Q"/><path d="M17.094 11.516h1.812l.857.853h-3.525z" class="R"/><path d="M16.238 8.84l.856.87v1.806l-.856.853z" class="H"/><path d="M24.294 11.517V9.7h1.813v1.816z" class="N"/><path d="M23.438 8.84l.857.86h1.897l.77-.86z" class="H"/><path d="M26.104 11.516V9.714l.86-.873v3.528z" class="Q"/><path d="M24.295 11.516h1.81l.86.853h-3.525z" class="R"/><path d="M23.438 8.84l.857.87v1.806l-.857.853z" class="H"/></g><path d="M20.507 135.77v.396h-3.203v-.396H7.287v11.42h10.017v.392h3.203v-.392h8.22v-11.42z" class="e"/><path d="M13.228 141.676c0 2.59 2.142 4.697 4.783 4.697v-9.395c-2.645-.002-4.783 2.107-4.783 4.698z" class="f"/><path d="M22.787 141.676c0-2.592-2.144-4.696-4.772-4.696v9.396c2.632.002 4.772-2.103 4.772-4.7z" class="g"/><path d="M14.156 141.676c0-2.092 1.73-3.79 3.855-3.79s3.854 1.7 3.854 3.79c0 1-.4 1.95-1.112 2.664-.73.728-1.7 1.127-2.738 1.127-2.13 0-3.86-1.698-3.86-3.79z" class="h"/><path d="M21.816 141.676c0 2.064-1.705 3.742-3.805 3.738s-3.804-1.674-3.804-3.738 1.7-3.737 3.804-3.737 3.805 1.676 3.805 3.737m.106 0c0-2.123-1.754-3.848-3.908-3.848s-3.91 1.723-3.91 3.848c0 2.12 1.754 3.84 3.91 3.84a3.88 3.88 0 0 0 2.783-1.142 3.8 3.8 0 0 0 1.125-2.699z"/><path d="M21.503 141.676c0 .904-.352 1.76-1.002 2.404-.657.652-1.542 1.02-2.482 1.016-1.93 0-3.494-1.532-3.494-3.42s1.564-3.426 3.494-3.426c1.917.001 3.484 1.538 3.484 3.426m.313 0c0-2.063-1.705-3.737-3.805-3.737s-3.804 1.676-3.804 3.737 1.7 3.738 3.804 3.738c2.1.005 3.805-1.67 3.805-3.738z" class="P"/><path d="M18.013 138.25a3.62 3.62 0 0 0-.909.129v6.588c.288.078.593.13.91.13.305 0 .604-.046.893-.13v-6.594a3.72 3.72 0 0 0-.893-.123z" class="i"/><path d="M18.756 145.006l.15-.04v-6.596l-.148-.033-.001 6.668z" class="O"/><path d="M17.27 138.338l-.167.04v6.588a1.77 1.77 0 0 0 .167.041v-6.67z" class="B O"/><path d="M7.287 135.77h2.917v11.42H7.287z" class="j"/><path d="M7.287 135.967h10.017v.396h3.203v-.396h8.22v-.196h-8.22v.396h-3.203v-.396H7.287z" class="B O"/><path d="M7.287 147.19h10.017v.394h3.203v-.394h8.22v-.198h-8.22v.394h-3.203v-.394H7.287z" class="O"/><path d="M20.507 124.432v.395h-3.203v-.395H7.287v11.42h10.017v.392h3.203v-.392h8.22v-11.42z" class="e"/><path d="M13.228 130.337c0 2.592 2.142 4.698 4.783 4.698v-9.394c-2.645-.004-4.783 2.104-4.783 4.696z" class="f"/><path d="M22.787 130.337c0-2.6-2.144-4.695-4.772-4.695v9.395c2.632.003 4.772-2.103 4.772-4.7z" class="g"/><path d="M14.156 130.337c0-2.1 1.73-3.79 3.855-3.79s3.854 1.7 3.854 3.79a3.72 3.72 0 0 1-1.112 2.664 3.84 3.84 0 0 1-2.738 1.127c-2.13.001-3.86-1.698-3.86-3.79z" class="h"/><path d="M21.816 130.337c0 2.065-1.705 3.742-3.805 3.738s-3.804-1.673-3.804-3.738 1.7-3.736 3.804-3.736 3.805 1.675 3.805 3.736m.106 0c0-2.12-1.754-3.847-3.908-3.847s-3.91 1.722-3.91 3.847c0 2.12 1.754 3.842 3.91 3.842 1.057.006 2.035-.4 2.783-1.143a3.8 3.8 0 0 0 1.125-2.699z"/><path d="M21.503 130.337a3.36 3.36 0 0 1-1.002 2.404 3.48 3.48 0 0 1-2.482 1.016c-1.93 0-3.494-1.53-3.494-3.42s1.564-3.426 3.494-3.426c1.917.002 3.484 1.537 3.484 3.426m.313 0c0-2.062-1.705-3.736-3.805-3.736s-3.804 1.676-3.804 3.736c0 2.065 1.7 3.738 3.804 3.738 2.1.006 3.805-1.67 3.805-3.738z" class="P"/><path d="M18.013 126.913a3.62 3.62 0 0 0-.909.129v6.588c.288.078.593.13.91.13.305 0 .604-.045.893-.13v-6.596a3.72 3.72 0 0 0-.893-.121z" class="i"/><path d="M18.756 133.67l.15-.04v-6.596l-.148-.033-.001 6.668z" class="O"/><path d="M17.27 127l-.167.04v6.588l.167.04V127z" class="B O"/><path d="M7.287 124.432h2.917v11.42H7.287z" class="j"/><path d="M7.287 124.63h10.017v.395h3.203v-.395h8.22v-.197h-8.22v.395h-3.203v-.395H7.287z" class="B O"/><path d="M7.287 135.85h10.017v.394h3.203v-.394h8.22v-.198h-8.22v.395h-3.203v-.395H7.287z" class="O"/><path d="M20.507 113.092v.396h-3.203v-.396H7.287v11.42h10.017v.393h3.203v-.393h8.22v-11.42z" class="e"/><path d="M13.228 119c0 2.592 2.142 4.698 4.783 4.698V114.3c-2.645-.004-4.783 2.105-4.783 4.698z" class="f"/><path d="M22.787 119c0-2.59-2.144-4.695-4.772-4.695v9.395c2.632.001 4.772-2.105 4.772-4.7z" class="g"/><path d="M14.156 119c0-2.09 1.73-3.79 3.855-3.79s3.854 1.7 3.854 3.79a3.72 3.72 0 0 1-1.112 2.664 3.84 3.84 0 0 1-2.738 1.127c-2.13 0-3.86-1.7-3.86-3.79z" class="h"/><path d="M21.816 119c0 2.065-1.705 3.742-3.805 3.738s-3.804-1.673-3.804-3.738 1.7-3.736 3.804-3.736 3.805 1.674 3.805 3.736m.106 0c0-2.12-1.754-3.847-3.908-3.847s-3.91 1.722-3.91 3.847c0 2.12 1.754 3.842 3.91 3.842 1.057.006 2.035-.4 2.783-1.143.723-.726 1.125-1.683 1.125-2.7z"/><path d="M21.503 119a3.36 3.36 0 0 1-1.002 2.404 3.48 3.48 0 0 1-2.482 1.016c-1.93 0-3.494-1.53-3.494-3.42s1.564-3.426 3.494-3.426c1.917 0 3.484 1.536 3.484 3.426m.313 0c0-2.062-1.705-3.736-3.805-3.736s-3.804 1.676-3.804 3.736 1.7 3.738 3.804 3.738 3.805-1.67 3.805-3.738z" class="P"/><use xlink:href="#O" class="i"/><use xlink:href="#P" class="O"/><path d="M17.27 115.66l-.167.04v6.588a1.51 1.51 0 0 0 .167.041v-6.67z" class="B O"/><path d="M7.287 113.092h2.917v11.42H7.287z" class="j"/><path d="M7.287 113.292h10.017v.393h3.203v-.393h8.22v-.2h-8.22v.396h-3.203v-.396H7.287z" class="B O"/><path d="M7.287 124.5h10.017v.395h3.203v-.395h8.22v-.197h-8.22v.397h-3.203v-.397H7.287z" class="O"/><path d="M20.507 101.754v.395h-3.203v-.395H7.287v11.42h10.017v.392h3.203v-.392h8.22v-11.42z" class="e"/><path d="M13.228 107.66c0 2.59 2.142 4.698 4.783 4.698v-9.395c-2.645-.003-4.783 2.104-4.783 4.697z" class="f"/><path d="M22.787 107.66c0-2.59-2.144-4.696-4.772-4.696v9.396c2.632.001 4.772-2.104 4.772-4.7z" class="g"/><use xlink:href="#Q" class="h"/><path d="M21.816 107.66c0 2.065-1.705 3.742-3.805 3.738s-3.804-1.673-3.804-3.738 1.7-3.737 3.804-3.737 3.805 1.675 3.805 3.737m.106 0c0-2.122-1.754-3.847-3.908-3.847s-3.91 1.722-3.91 3.847c0 2.12 1.754 3.84 3.91 3.84 1.057.006 2.035-.4 2.783-1.142.723-.726 1.125-1.683 1.125-2.7z"/><path d="M21.503 107.66a3.36 3.36 0 0 1-1.002 2.404c-.657.653-1.542 1.02-2.482 1.017-1.93 0-3.494-1.533-3.494-3.42s1.564-3.426 3.494-3.426c1.917 0 3.484 1.536 3.484 3.426m.313 0c0-2.062-1.705-3.737-3.805-3.737s-3.804 1.677-3.804 3.737 1.7 3.738 3.804 3.738 3.805-1.67 3.805-3.738z" class="P"/><path d="M18.013 104.234c-.316 0-.612.054-.91.13v6.588c.288.078.593.13.91.13.305 0 .604-.046.893-.13v-6.595c-.288-.068-.585-.122-.893-.122z" class="i"/><use xlink:href="#P" y="-11.33" class="O"/><path d="M17.27 104.322l-.167.04v6.588a1.77 1.77 0 0 0 .167.041v-6.67z" class="B O"/><path d="M7.287 101.754h2.917v11.42H7.287z" class="j"/><path d="M7.287 101.952h10.017v.394h3.203v-.394h8.22v-.198h-8.22v.395h-3.203v-.395H7.287z" class="B O"/><path d="M7.287 113.172h10.017v.394h3.203v-.394h8.22v-.198h-8.22v.396h-3.203v-.396H7.287z" class="O"/><path d="M20.507 90.417v.393h-3.203v-.393H7.287v11.42h10.017v.4h3.203v-.4h8.22v-11.42z" class="e"/><path d="M13.228 96.32c0 2.592 2.142 4.698 4.783 4.698v-9.396c-2.645-.001-4.783 2.105-4.783 4.698z" class="f"/><path d="M22.787 96.32c0-2.59-2.144-4.695-4.772-4.695v9.395c2.632.001 4.772-2.102 4.772-4.7z" class="g"/><path d="M14.156 96.32c0-2.09 1.73-3.79 3.855-3.79s3.854 1.7 3.854 3.79c0 1-.4 1.95-1.112 2.664a3.84 3.84 0 0 1-2.738 1.127c-2.13 0-3.86-1.697-3.86-3.79z" class="h"/><path d="M21.816 96.32c0 2.064-1.705 3.742-3.805 3.738s-3.804-1.674-3.804-3.738 1.7-3.736 3.804-3.736 3.805 1.673 3.805 3.736m.106 0c0-2.122-1.754-3.847-3.908-3.847s-3.91 1.722-3.91 3.847c0 2.12 1.754 3.842 3.91 3.842 1.057.006 2.035-.4 2.783-1.143a3.8 3.8 0 0 0 1.125-2.699z"/><path d="M21.503 96.32a3.36 3.36 0 0 1-1.002 2.404c-.657.652-1.542 1.02-2.482 1.016-1.93 0-3.494-1.53-3.494-3.42s1.564-3.426 3.494-3.426c1.917 0 3.484 1.536 3.484 3.426m.313 0c0-2.063-1.705-3.736-3.805-3.736s-3.804 1.676-3.804 3.736 1.7 3.738 3.804 3.738 3.805-1.672 3.805-3.738z" class="P"/><use xlink:href="#O" y="-22.678" class="i"/><use xlink:href="#P" y="-22.68" class="O"/><path d="M17.27 92.983l-.167.04v6.588a1.51 1.51 0 0 0 .167.041v-6.67z" class="B O"/><path d="M7.287 90.417h2.917v11.42H7.287z" class="j"/><path d="M7.287 90.613h10.017v.393h3.203v-.393h8.22v-.196h-8.22v.393h-3.203v-.393H7.287z" class="B O"/><path d="M7.287 101.835h10.017v.392h3.203v-.392h8.22v-.2h-8.22v.396h-3.203v-.396H7.287z" class="O"/><path d="M20.507 79.077v.394h-3.203v-.394H7.287v11.42h10.017v.4h3.203v-.4h8.22v-11.42z" class="e"/><path d="M13.228 84.982c0 2.59 2.142 4.698 4.783 4.698v-9.394c-2.645-.004-4.783 2.103-4.783 4.696z" class="f"/><path d="M22.787 84.982c0-2.59-2.144-4.696-4.772-4.696v9.396c2.632.001 4.772-2.103 4.772-4.7z" class="g"/><use xlink:href="#Q" y="-22.678" class="h"/><path d="M21.816 84.982c0 2.065-1.705 3.742-3.805 3.737s-3.804-1.672-3.804-3.737 1.7-3.737 3.804-3.737 3.805 1.676 3.805 3.737m.106 0c0-2.122-1.754-3.847-3.908-3.847s-3.91 1.722-3.91 3.847c0 2.12 1.754 3.84 3.91 3.84a3.88 3.88 0 0 0 2.783-1.142 3.8 3.8 0 0 0 1.125-2.699z"/><path d="M21.503 84.982c0 .905-.352 1.76-1.002 2.403-.657.654-1.542 1.02-2.482 1.017-1.93 0-3.494-1.532-3.494-3.42s1.564-3.426 3.494-3.426c1.917 0 3.484 1.536 3.484 3.426m.313 0c0-2.062-1.705-3.737-3.805-3.737s-3.804 1.676-3.804 3.737 1.7 3.737 3.804 3.737 3.805-1.67 3.805-3.737z" class="P"/><use xlink:href="#O" y="-34.017" class="i"/><use xlink:href="#P" y="-34.018" class="O"/><path d="M17.27 81.644l-.167.04v6.588c.056.017.11.028.167.04v-6.67z" class="B O"/><path d="M7.287 79.077h2.917v11.42H7.287z" class="j"/><path d="M7.287 79.274h10.017v.395h3.203v-.395h8.22v-.197h-8.22v.394h-3.203v-.394H7.287z" class="B O"/><path d="M7.287 90.495h10.017v.392h3.203v-.392h8.22v-.2h-8.22v.396h-3.203v-.396H7.287z" class="O"/><g transform="matrix(0 -1 1 0 9.559996 22.776)"><g class="H"><path d="M20.524 12.322h-.368V4.058h.368v-6.246H4.545V18.57h15.98z"/><path d="M1.985 4.058h.37v8.264h-.37v6.247h15.86V-2.188H1.985z"/></g><circle fill="#641d1c" cx="11.257" cy="8.189" r="5.117"/><path d="M11.007 3.074c-2.827 0-5.118 2.29-5.118 5.114a5.12 5.12 0 0 0 5.118 5.12h.25a5.12 5.12 0 0 1-5.118-5.12c0-2.825 2.29-5.114 5.118-5.114h-.25z" class="V"/><g fill="#852725"><circle cx="11.256" cy="8.189" r="4.93"/><circle cx="11.372" cy="8.189" r="4.929"/></g><path d="M16.185 8.072a4.93 4.93 0 1 0-9.86 0v.233a4.93 4.93 0 1 1 9.86 0v-.233z" class="a"/><path d="M6.326 8.072a4.93 4.93 0 1 0 9.86 0v.233a4.93 4.93 0 1 1-9.86 0v-.233zm13.83 10.498v-6.248h.37v6.248zm-.001-14.513v-6.244h.37v6.244zm-.364 8.266V4.057h.368v8.266z" class="V B"/><path d="M2.002 18.57v-6.248h.368v6.248zm0-14.512v-6.244h.37v6.244zm.368 8.265V4.056h.37v8.267z" class="V"/></g><path d="M4.6 4.27h2.75v2.25H4.6zm0 12.25h2.75v2.252H4.6zm23.374-6.624h2.75v3.417h-2.75zm0-5.626h2.75v2.25h-2.75zm0 12.25h2.75v2.252h-2.75z" fill="#e6e6e6"/><path d="M30.4 9.896h.334v3.417H30.4zm0-5.626h.334v2.25H30.4zm0 12.25h.334v2.252H30.4z" class="V B"/><path d="M4.556 4.3h.103v2.25h-.103zm0 12.25h.103v2.252h-.103z" class="V"/><path d="M7 4.257h.334v2.25H7zm0 12.25h.334v2.252H7z" class="a"/><path d="M183.6 10.8H126V3.6h57.6z" class="q"/><path d="M181.39 8.59h-2.78V5.81h2.78z"/><path d="M182.416 9.616l-1.023-1.025H178.6l-1.026 1.025z" class="I"/><path d="M177.584 9.616l1.026-1.028v-2.78l-1.026-1.023z" class="J"/><path d="M177.584 4.784l1.026 1.023h2.783l1.023-1.023z" class="K"/><path d="M182.418 4.784l-1.025 1.025V8.59l1.025 1.025z" class="L"/><path d="M174.2 8.59h-2.778V5.81h2.778z"/><path d="M175.217 9.616l-1.025-1.025h-2.784l-1.025 1.025z" class="I"/><path d="M170.383 9.616l1.025-1.028v-2.78l-1.025-1.023z" class="J"/><path d="M170.385 4.784l1.025 1.023h2.782l1.025-1.023z" class="K"/><path d="M175.22 4.784l-1.027 1.025V8.59l1.027 1.025z" class="L"/><path d="M166.988 8.59H164.2V5.81h2.778z"/><path d="M168.016 9.616L167 8.59h-2.78l-1.025 1.025z" class="I"/><path d="M163.184 9.616l1.025-1.028v-2.78l-1.025-1.023z" class="J"/><path d="M163.186 4.784l1.023 1.023H167l1.026-1.023z" class="K"/><path d="M168.018 4.784L167 5.81V8.59l1.028 1.025z" class="L"/><path d="M159.79 8.59h-2.78V5.81h2.78z"/><path d="M160.817 9.616L159.79 8.59h-2.782l-1.025 1.025z" class="I"/><path d="M155.984 9.616l1.025-1.028v-2.78l-1.025-1.023z" class="J"/><path d="M155.985 4.784l1.026 1.023h2.78l1.026-1.023z" class="K"/><path d="M160.82 4.784L159.79 5.81V8.59l1.028 1.025z" class="L"/><path d="M152.59 8.59h-2.78V5.81h2.78z"/><path d="M153.614 9.616l-1.02-1.025H149.8l-1.028 1.025z" class="I"/><path d="M148.782 9.616l1.028-1.028v-2.78l-1.028-1.023z" class="J"/><path d="M148.784 4.784l1.026 1.023h2.783l1.02-1.023z" class="K"/><path d="M153.617 4.784l-1.024 1.025V8.59l1.024 1.025z" class="L"/><path d="M145.4 8.59h-2.78V5.81h2.78z"/><path d="M146.415 9.616l-1.023-1.025h-2.783l-1.026 1.025z" class="I"/><path d="M141.583 9.616l1.026-1.028v-2.78l-1.026-1.023z" class="J"/><path d="M141.585 4.784l1.025 1.023h2.782l1.023-1.023z" class="K"/><path d="M146.417 4.784l-1.025 1.025V8.59l1.025 1.025z" class="L"/><path d="M138.19 8.59h-2.78V5.81h2.78z"/><path d="M139.216 9.616l-1.023-1.025h-2.786l-1.023 1.025z" class="I"/><path d="M134.384 9.616l1.023-1.028v-2.78l-1.023-1.023z" class="J"/><path d="M134.386 4.784l1.023 1.023h2.784l1.023-1.023z" class="K"/><path d="M139.218 4.784l-1.025 1.025V8.59l1.025 1.025z" class="L"/><path d="M130.99 8.59h-2.78V5.81h2.78z"/><path d="M132.017 9.616L130.99 8.59h-2.783l-1.023 1.025z" class="I"/><path d="M127.185 9.616l1.023-1.028v-2.78l-1.023-1.023z" class="J"/><path d="M127.185 4.784l1.025 1.023h2.78l1.026-1.023z" class="K"/><path d="M132.02 4.784L130.99 5.81V8.59l1.028 1.025z" class="L"/><path d="M133.2 147.598H75.6V140.4h57.6z" class="q"/><path d="M130.99 145.39h-2.78v-2.78h2.78z"/><path d="M132.017 146.415l-1.025-1.026H128.2l-1.025 1.026z" class="I"/><path d="M127.185 146.415l1.025-1.027v-2.782l-1.025-1.023z" class="J"/><path d="M127.185 141.583l1.025 1.023h2.782l1.025-1.023z" class="K"/><use xlink:href="#R" class="L"/><path d="M123.8 145.39h-2.78v-2.78h2.78z"/><path d="M124.818 146.415l-1.026-1.026h-2.783l-1.025 1.026z" class="I"/><path d="M119.984 146.415l1.025-1.027v-2.782l-1.025-1.023z" class="J"/><path d="M119.985 141.583l1.026 1.023h2.78l1.026-1.023z" class="K"/><use xlink:href="#R" x="-7.2" class="L"/><path d="M116.59 145.39h-2.78v-2.78h2.78z"/><path d="M117.616 146.415l-1.025-1.026h-2.78l-1.026 1.026z" class="I"/><path d="M112.784 146.415l1.026-1.027v-2.782l-1.026-1.023z" class="J"/><path d="M112.786 141.583l1.024 1.023h2.78l1.025-1.023z" class="K"/><path d="M117.617 141.583l-1.026 1.025v2.78l1.026 1.026z" class="L"/><path d="M109.4 145.39h-2.78v-2.78h2.78z"/><path d="M110.417 146.415l-1.025-1.026H106.6l-1.026 1.026z" class="I"/><path d="M105.584 146.415l1.026-1.027v-2.782l-1.026-1.023z" class="J"/><path d="M105.586 141.583l1.025 1.023h2.78l1.025-1.023z" class="K"/><use xlink:href="#R" x="-21.6" class="L"/><path d="M102.192 145.39h-2.78v-2.78h2.78z"/><path d="M103.215 146.415l-1.02-1.026H99.4l-1.027 1.026z" class="I"/><path d="M98.383 146.415l1.027-1.027v-2.782l-1.027-1.023z" class="J"/><path d="M98.385 141.583l1.025 1.023h2.784l1.02-1.023z" class="K"/><path d="M103.22 141.583l-1.025 1.025v2.78l1.025 1.026z" class="L"/><path d="M95 145.39H92.2v-2.78H95z"/><path d="M96.016 146.415l-1.024-1.026H92.21l-1.025 1.026z" class="I"/><path d="M91.184 146.415l1.025-1.027v-2.782l-1.025-1.023z" class="J"/><path d="M91.186 141.583l1.025 1.023h2.78l1.024-1.023z" class="K"/><path d="M96.018 141.583l-1.026 1.025v2.78l1.026 1.026z" class="L"/><path d="M87.79 145.39H85v-2.78h2.78z"/><path d="M88.817 146.415l-1.024-1.026h-2.785l-1.023 1.026z" class="I"/><path d="M83.985 146.415l1.023-1.027v-2.782l-1.023-1.023z" class="J"/><path d="M83.986 141.583L85 142.606h2.783l1.024-1.023z" class="K"/><path d="M88.82 141.583l-1.026 1.025v2.78l1.026 1.026z" class="L"/><path d="M80.6 145.39h-2.78v-2.78h2.78z"/><path d="M81.617 146.415l-1.025-1.026H77.81l-1.024 1.026z" class="I"/><path d="M76.785 146.415l1.024-1.027v-2.782l-1.024-1.023z" class="J"/><path d="M76.785 141.583l1.026 1.023h2.78l1.025-1.023z" class="K"/><use xlink:href="#R" x="-50.4" class="L"/><path d="M49.68 3.6h72v7.2h-72z" class="q"/><path d="M116.69 5.81h2.78V8.59h-2.78z"/><path d="M120.496 9.615L119.472 8.6h-2.784l-1.024 1.025z" class="I"/><path d="M115.664 9.615l1.024-1.028v-2.78l-1.024-1.024z" class="J"/><path d="M115.664 4.783l1.025 1.024h2.783l1.024-1.024z" class="K"/><path d="M120.498 4.783l-1.026 1.026V8.6l1.026 1.025z" class="L"/><path d="M109.488 5.81h2.78V8.59h-2.78z"/><path d="M113.297 9.615L112.272 8.6H109.5l-1.026 1.025z" class="I"/><use xlink:href="#S" class="J"/><path d="M108.465 4.783l1.025 1.024h2.782l1.025-1.024z" class="K"/><path d="M113.298 4.783l-1.026 1.026V8.6l1.026 1.025z" class="L"/><path d="M102.29 5.81h2.78V8.59h-2.78z"/><path d="M106.096 9.615L105.072 8.6h-2.783l-1.026 1.025z" class="I"/><use xlink:href="#S" x="-7.201" class="J"/><path d="M101.264 4.783l1.025 1.024h2.783l1.024-1.024z" class="K"/><path d="M106.097 4.783l-1.025 1.026V8.6l1.025 1.025z" class="L"/><path d="M95.09 5.81h2.78V8.59h-2.78z"/><path d="M98.895 9.615L97.87 8.6H95.09l-1.026 1.025z" class="I"/><use xlink:href="#S" x="-14.401" class="J"/><path d="M94.064 4.783L95.1 5.807h2.78l1.024-1.024z" class="K"/><path d="M98.898 4.783L97.87 5.81V8.6l1.027 1.025z" class="L"/><path d="M87.89 5.81h2.78V8.59h-2.78z"/><path d="M91.697 9.615L90.673 8.6h-2.785l-1.023 1.025z" class="I"/><path d="M86.865 9.615l1.023-1.028v-2.78l-1.023-1.024z" class="J"/><path d="M86.865 4.783l1.024 1.024h2.784l1.024-1.024z" class="K"/><path d="M91.7 4.783L90.673 5.81V8.6L91.7 9.615z" class="L"/><path d="M80.688 5.81h2.78V8.59h-2.78z"/><path d="M84.495 9.615L83.47 8.6h-2.783l-1.025 1.025z" class="I"/><use xlink:href="#T" class="J"/><path d="M79.665 4.783L80.7 5.807h2.78l1.024-1.024z" class="K"/><path d="M84.497 4.783L83.47 5.81V8.6l1.026 1.025z" class="L"/><path d="M73.49 5.81h2.78V8.59h-2.78z"/><path d="M77.296 9.615L76.272 8.6H73.49l-1.025 1.025z" class="I"/><use xlink:href="#T" x="-7.199" class="J"/><path d="M72.465 4.783l1.026 1.024h2.78l1.024-1.024z" class="K"/><path d="M77.298 4.783L76.272 5.81V8.6l1.026 1.025z" class="L"/><path d="M66.3 5.81h2.78V8.59H66.3z"/><path d="M70.096 9.615L69.073 8.6h-2.785l-1.024 1.025z" class="I"/><path d="M65.264 9.615l1.024-1.028v-2.78l-1.024-1.024z" class="J"/><path d="M65.264 4.783L66.3 5.807h2.783l1.023-1.024z" class="K"/><path d="M70.098 4.783L69.073 5.81V8.6l1.025 1.025z" class="L"/><path d="M59.09 5.81h2.78V8.59h-2.78z"/><path d="M62.895 9.615L61.872 8.6H59.09l-1.026 1.025z" class="I"/><use xlink:href="#S" x="-50.401" class="J"/><path d="M58.065 4.783L59.1 5.807h2.782l1.023-1.024z" class="K"/><path d="M62.898 4.783L61.872 5.81V8.6l1.026 1.025z" class="L"/><path d="M51.89 5.81h2.78V8.59h-2.78z"/><path d="M55.696 9.615L54.673 8.6H51.89l-1.025 1.025z" class="I"/><use xlink:href="#T" x="-28.799" class="J"/><path d="M50.866 4.783l1.023 1.024h2.784l1.023-1.024z" class="K"/><path d="M55.698 4.783L54.673 5.81V8.6l1.025 1.025z" class="L"/><path d="M140.4 140.4h43.2v7.2h-43.2z" class="q"/><path d="M178.608 142.6h2.78v2.78h-2.78z"/><path d="M182.415 146.417l-1.024-1.026h-2.783l-1.025 1.026z" class="I"/><use xlink:href="#T" x="97.92" y="136.802" class="J"/><path d="M177.583 141.584l1.025 1.024h2.783l1.024-1.024z" class="K"/><path d="M182.417 141.584l-1.026 1.026v2.78l1.026 1.026z" class="L"/><path d="M171.407 142.6h2.78v2.78h-2.78z"/><path d="M175.215 146.417l-1.023-1.026h-2.783l-1.026 1.026z" class="I"/><use xlink:href="#S" x="61.919" y="136.802" class="J"/><path d="M170.385 141.584l1.024 1.024h2.783l1.023-1.024z" class="K"/><path d="M175.217 141.584l-1.025 1.026v2.78l1.025 1.026z" class="L"/><path d="M164.208 142.6h2.78v2.78h-2.78z"/><path d="M168.016 146.417l-1.025-1.026h-2.783l-1.026 1.026z" class="I"/><use xlink:href="#S" x="54.718" y="136.802" class="J"/><path d="M163.184 141.584l1.024 1.024h2.783l1.025-1.024z" class="K"/><path d="M168.016 141.584l-1.025 1.026v2.78l1.025 1.026z" class="L"/><path d="M157.006 142.6h2.78v2.78h-2.78z"/><path d="M160.813 146.417l-1.023-1.026h-2.784l-1.025 1.026z" class="I"/><use xlink:href="#T" x="76.317" y="136.802" class="J"/><path d="M155.983 141.584l1.025 1.024h2.782l1.023-1.024z" class="K"/><path d="M160.817 141.584L159.8 142.6v2.78l1.027 1.026z" class="L"/><path d="M149.807 142.6h2.78v2.78h-2.78z"/><path d="M153.614 146.417l-1.024-1.026h-2.783l-1.025 1.026z" class="I"/><use xlink:href="#T" x="69.119" y="136.802" class="J"/><path d="M148.784 141.584l1.023 1.024h2.783l1.024-1.024z" class="K"/><path d="M153.616 141.584L152.6 142.6v2.78l1.026 1.026z" class="L"/><path d="M142.608 142.6h2.78v2.78h-2.78z"/><path d="M146.415 146.417l-1.024-1.026h-2.785l-1.023 1.026z" class="I"/><path d="M141.583 146.417l1.023-1.028v-2.78l-1.023-1.024z" class="J"/><path d="M141.583 141.584l1.025 1.024h2.783l1.024-1.024z" class="K"/><path d="M146.417 141.584l-1.026 1.026v2.78l1.026 1.026z" class="L"/><path d="M140.4 127.767H180m-88.2 0h39.6" stroke-width=".5" class="C W t"/><defs ><path id="B" d="M142.317 140.13h3.366v7.742h-3.366v-7.742m0 3.87c-.002.93.75 1.684 1.68 1.686s1.686-.75 1.688-1.68c.001-.937-.75-1.693-1.682-1.694s-1.684.75-1.686 1.682z"/><path id="C" d="M156.716 140.13h3.366v7.742h-3.366v-7.742m0 3.87c-.001.93.75 1.684 1.682 1.686a1.68 1.68 0 0 0 1.686-1.68c.002-.937-.75-1.693-1.68-1.694s-1.686.75-1.688 1.682z"/><path id="D" d="M101.997 3.33h3.366v7.742h-3.366V3.33m0 3.87c0 .93.754 1.683 1.685 1.683s1.683-.753 1.683-1.683-.754-1.683-1.683-1.683-1.685.754-1.685 1.683z"/><path id="E" d="M94.796 3.33h3.366v7.742h-3.366V3.33m0 3.87c0 .93.754 1.683 1.684 1.683s1.683-.753 1.683-1.683-.754-1.683-1.684-1.683-1.683.754-1.683 1.683z"/><path id="F" d="M178.317 3.33h3.366v7.742h-3.366V3.33m0 3.87c-.002.93.75 1.684 1.68 1.686s1.686-.75 1.688-1.68c.001-.936-.75-1.69-1.682-1.692s-1.684.75-1.686 1.68z"/><path id="G" d="M171.117 3.33h3.366v7.742h-3.366V3.33m0 3.87c-.002.93.75 1.684 1.68 1.686s1.686-.75 1.688-1.68c.002-.936-.75-1.69-1.68-1.692s-1.686.75-1.688 1.68z"/><path id="H" d="M163.917 3.33h3.366v7.742h-3.366V3.33m0 3.87c-.001.93.75 1.684 1.682 1.686s1.685-.75 1.686-1.68c.002-.936-.75-1.69-1.68-1.692s-1.686.75-1.688 1.68z"/><path id="I" d="M118.53 48.717h7.742v3.366h-7.742v-3.366m2.187 1.683c0 .93.754 1.683 1.685 1.683s1.683-.753 1.683-1.683-.753-1.683-1.683-1.683-1.685.754-1.685 1.683z"/><path id="J" d="M96.93 48.717h7.74v3.366h-7.74v-3.366m2.188 1.683c0 .93.753 1.683 1.683 1.683s1.685-.753 1.685-1.683-.754-1.683-1.685-1.683-1.683.754-1.683 1.683z"/><path id="K" d="M84.716 140.13h3.366v7.742h-3.366v-7.742m0 3.87c0 .93.754 1.683 1.685 1.683s1.683-.753 1.683-1.683-.754-1.685-1.683-1.685-1.685.756-1.685 1.685z"/><path id="L" d="M99.117 140.13h3.366v7.742h-3.366v-7.742m0 3.87c0 .93.753 1.683 1.683 1.683s1.685-.753 1.685-1.683-.754-1.685-1.685-1.685-1.683.756-1.683 1.685z"/><path id="M" d="M120.716 140.13h3.366v7.742h-3.366v-7.742m0 3.87c0 .93.754 1.683 1.685 1.683s1.683-.753 1.683-1.683-.753-1.685-1.683-1.685-1.685.756-1.685 1.685z"/><path id="N" d="M3.64 6.588l.856.87v1.805l-.856.853z"/><path id="O" d="M18.013 115.573a3.62 3.62 0 0 0-.909.129v6.588c.288.078.593.13.91.13.305 0 .604-.045.893-.13v-6.595c-.288-.07-.585-.122-.893-.122z"/><path id="P" d="M18.756 122.33l.15-.04v-6.595l-.148-.033-.001 6.667z"/><path id="Q" d="M14.156 107.66c0-2.09 1.73-3.79 3.855-3.79s3.854 1.7 3.854 3.79c0 1-.4 1.95-1.112 2.664-.73.728-1.7 1.127-2.738 1.127-2.13 0-3.86-1.698-3.86-3.79z"/><path id="R" d="M132.02 141.583l-1.027 1.025v2.78l1.027 1.026z"/><path id="S" d="M108.464 9.615l1.026-1.028v-2.78l-1.026-1.024z"/><path id="T" d="M79.663 9.615l1.025-1.028v-2.78l-1.025-1.024z"/></defs></svg>