<svg xmlns="http://www.w3.org/2000/svg" xmlns:xlink="http://www.w3.org/1999/xlink" width="620" height="266" viewBox="0 0 464.93 199.055"><style><![CDATA[.B{fill:#fff}.C{fill:none}.D{fill:#9a916c}.E{opacity:.2}.F{stroke:#9a916c}.G{stroke-width:.72}.H{opacity:.5}.I{stroke-linecap:round}.J{font-family:'OCRA'}.K{fill:#ccc}.L{fill:#f2f2f2}.M{fill:#999}.N{stroke:#fff}.O{font-size:4.176px}.P{fill:#d1c690}.Q{fill:#b3b3b3}.R{opacity:.6}.S{stroke-width:.432}.T{font-size:4.677px}.U{stroke-width:.36}.V{opacity:.1}.W{fill:#8c8663}.X{fill:#b8af82}.Y{fill:#80795b}.Z{fill:#5e5b43}.a{fill:#666}.b{fill:#313131}.c{fill:#1a1a1a}.d{fill:#22b573}.e{fill-opacity:.7}.f{fill:#9d956c}.g{opacity:.55}.h{opacity:.03}.i{fill:#3f3f3f}.j{fill:#2d2d2d}.k{stroke-width:.864}.l{fill:#e6e6e6}.m{stroke-width:.576}.n{stroke-width:.144}.o{stroke-width:.198}.p{stroke-miterlimit:10}]]></style><path fill="#0f7391" d="M82.252 199.054h297.64c46.967 0 85.04-38.074 85.04-85.04s-38.072-85.038-85.04-85.038H82.252C35.286 30.542-1.517 69.885.05 116.85c1.494 44.765 37.437 80.71 82.202 82.203m222.412-46.08c-.004-1.957 1.58-3.547 3.537-3.552s3.546 1.58 3.55 3.537c.003 1.972-1.58 3.56-3.537 3.564s-3.546-1.58-3.55-3.537zm0-99.36c-.004-1.957 1.58-3.546 3.537-3.55s3.546 1.58 3.55 3.537c.003 1.97-1.58 3.56-3.537 3.562s-3.546-1.58-3.55-3.537zm-151.2 0c-.003-1.957 1.58-3.546 3.537-3.55s3.546 1.58 3.55 3.537c.003 1.97-1.58 3.56-3.537 3.562s-3.546-1.58-3.55-3.537zm0 99.36a3.55 3.55 0 0 1 3.537-3.552c1.957-.004 3.546 1.58 3.55 3.537.003 1.972-1.58 3.56-3.537 3.564s-3.546-1.58-3.55-3.537zm217.332.38c-.001-1.4 1.14-2.554 2.548-2.556s2.553 1.14 2.555 2.548a2.55 2.55 0 0 1-2.547 2.561c-1.4.002-2.554-1.14-2.556-2.547zm18.04-18.04c-.002-1.408 1.14-2.553 2.55-2.556s2.553 1.142 2.555 2.55c.002 1.416-1.14 2.56-2.55 2.56s-2.553-1.14-2.555-2.55zm-30.24-12.2c-.002-1.408 1.14-2.553 2.55-2.555s2.554 1.14 2.555 2.55-1.14 2.56-2.55 2.56-2.553-1.14-2.555-2.55zm-18.04-18.04a2.55 2.55 0 0 1 2.547-2.553c1.4-.002 2.554 1.14 2.556 2.547.002 1.416-1.14 2.56-2.548 2.56a2.55 2.55 0 0 1-2.555-2.547zm48.28-30.24a2.55 2.55 0 0 1 2.549-2.554c1.408-.002 2.553 1.14 2.555 2.548.002 1.415-1.14 2.56-2.55 2.56s-2.553-1.14-2.555-2.55zm-18.04 18.04c-.001-1.4 1.14-2.553 2.548-2.555a2.55 2.55 0 0 1 2.555 2.547c.002 1.416-1.14 2.562-2.547 2.562s-2.554-1.14-2.556-2.548zm49 30.238c-.001-1.408 1.14-2.553 2.548-2.555s2.553 1.14 2.556 2.55-1.14 2.56-2.55 2.56-2.553-1.14-2.555-2.55zm-18.04-18.04a2.55 2.55 0 0 1 2.549-2.553c1.408-.002 2.553 1.14 2.555 2.547.002 1.416-1.14 2.56-2.55 2.56s-2.553-1.14-2.555-2.547zm-173.684 73.82c-.004-2.506 2.02-4.54 4.527-4.543s4.54 2.02 4.543 4.526a4.54 4.54 0 0 1-4.527 4.56c-2.505.004-4.54-2.023-4.543-4.527zm150.117-64.88c0-2.504 2.03-4.533 4.535-4.533s4.534 2.03 4.534 4.533-2.03 4.536-4.534 4.536-4.535-2.03-4.535-4.536zm-120.38-76.24a1.44 1.44 0 0 1 1.439-1.44 1.44 1.44 0 0 1 1.439 1.44 1.44 1.44 0 0 1-1.439 1.439 1.44 1.44 0 0 1-1.439-1.439zm30.24 0a1.44 1.44 0 0 1 1.44-1.44 1.44 1.44 0 0 1 1.438 1.44 1.44 1.44 0 0 1-1.438 1.439 1.44 1.44 0 0 1-1.44-1.439zm7.292 0a1.44 1.44 0 0 1 1.44-1.44 1.44 1.44 0 0 1 1.438 1.44 1.44 1.44 0 0 1-1.438 1.439 1.44 1.44 0 0 1-1.44-1.439zm7.117 0a1.44 1.44 0 0 1 1.44-1.44 1.44 1.44 0 0 1 1.438 1.44 1.44 1.44 0 0 1-1.438 1.439 1.44 1.44 0 0 1-1.44-1.439zm-37.394 0a1.44 1.44 0 0 1 1.44-1.44 1.44 1.44 0 0 1 1.438 1.44 1.44 1.44 0 0 1-1.438 1.439 1.44 1.44 0 0 1-1.44-1.439zm7.118 0a1.44 1.44 0 0 1 1.44-1.44 1.44 1.44 0 0 1 1.438 1.44 1.44 1.44 0 0 1-1.438 1.439 1.44 1.44 0 0 1-1.44-1.439zm-74.853 0a1.44 1.44 0 0 1 1.44-1.44 1.44 1.44 0 0 1 1.438 1.44 1.44 1.44 0 0 1-1.438 1.439 1.44 1.44 0 0 1-1.44-1.439zm7.117 0a1.44 1.44 0 0 1 1.44-1.44 1.44 1.44 0 0 1 1.438 1.44 1.44 1.44 0 0 1-1.438 1.439 1.44 1.44 0 0 1-1.44-1.439zm-37.37 0a1.44 1.44 0 0 1 1.44-1.44 1.44 1.44 0 0 1 1.438 1.44 1.44 1.44 0 0 1-1.438 1.439 1.44 1.44 0 0 1-1.44-1.439zm7.117 0a1.44 1.44 0 0 1 1.44-1.44 1.44 1.44 0 0 1 1.438 1.44 1.44 1.44 0 0 1-1.438 1.439 1.44 1.44 0 0 1-1.44-1.439zM306.8 70.893c0-.783.635-1.417 1.417-1.417a1.42 1.42 0 0 1 1.418 1.417 1.42 1.42 0 0 1-1.418 1.417c-.782.001-1.417-.633-1.417-1.417zm0 7.2c0-.783.635-1.417 1.417-1.417a1.42 1.42 0 0 1 1.418 1.417 1.42 1.42 0 0 1-1.418 1.417 1.42 1.42 0 0 1-1.417-1.417zm0 7.2a1.42 1.42 0 0 1 1.417-1.417 1.42 1.42 0 0 1 1.418 1.417c0 .784-.635 1.417-1.418 1.417s-1.417-.633-1.417-1.417zm0 7.2a1.42 1.42 0 0 1 1.417-1.418 1.42 1.42 0 0 1 1.418 1.418 1.42 1.42 0 0 1-1.418 1.418 1.42 1.42 0 0 1-1.417-1.418zm0 7.2a1.42 1.42 0 0 1 1.417-1.418 1.42 1.42 0 0 1 1.418 1.418 1.42 1.42 0 0 1-1.418 1.416c-.782 0-1.417-.634-1.417-1.416zm0 7.2a1.42 1.42 0 0 1 1.417-1.418 1.42 1.42 0 0 1 1.418 1.418 1.42 1.42 0 0 1-1.418 1.418 1.42 1.42 0 0 1-1.417-1.418zm0 7.2a1.42 1.42 0 0 1 1.417-1.416 1.42 1.42 0 0 1 1.418 1.416 1.42 1.42 0 0 1-1.418 1.418 1.42 1.42 0 0 1-1.417-1.418zm0 7.198a1.42 1.42 0 0 1 1.417-1.416 1.42 1.42 0 0 1 1.418 1.416 1.42 1.42 0 0 1-1.418 1.418 1.42 1.42 0 0 1-1.417-1.418zm0 7.2a1.42 1.42 0 0 1 1.417-1.418 1.42 1.42 0 0 1 1.418 1.418 1.42 1.42 0 0 1-1.418 1.418 1.42 1.42 0 0 1-1.417-1.418zm0 7.2c0-.783.635-1.416 1.417-1.416s1.418.633 1.418 1.416a1.42 1.42 0 0 1-1.418 1.418 1.42 1.42 0 0 1-1.417-1.418zm-151.2-64.8c0-.783.635-1.417 1.417-1.417a1.42 1.42 0 0 1 1.417 1.417 1.42 1.42 0 0 1-1.417 1.417c-.782 0-1.417-.633-1.417-1.417zm0 7.2c0-.783.635-1.417 1.417-1.417a1.42 1.42 0 0 1 1.417 1.417 1.42 1.42 0 0 1-1.417 1.417 1.42 1.42 0 0 1-1.417-1.417zm0 7.2a1.42 1.42 0 0 1 1.417-1.417 1.42 1.42 0 0 1 1.417 1.417c0 .784-.635 1.417-1.417 1.417s-1.417-.633-1.417-1.417zm0 7.2a1.42 1.42 0 0 1 1.417-1.418 1.42 1.42 0 0 1 1.417 1.418 1.42 1.42 0 0 1-1.417 1.418 1.42 1.42 0 0 1-1.417-1.418zm0 7.2a1.42 1.42 0 0 1 1.417-1.418 1.42 1.42 0 0 1 1.417 1.418 1.42 1.42 0 0 1-1.417 1.416c-.782 0-1.417-.634-1.417-1.416zm0 7.2a1.42 1.42 0 0 1 1.417-1.418 1.42 1.42 0 0 1 1.417 1.418 1.42 1.42 0 0 1-1.417 1.418 1.42 1.42 0 0 1-1.417-1.418zm0 7.2a1.42 1.42 0 0 1 1.417-1.416 1.42 1.42 0 0 1 1.417 1.416 1.42 1.42 0 0 1-1.417 1.418 1.42 1.42 0 0 1-1.417-1.418zm0 7.198a1.42 1.42 0 0 1 1.417-1.416 1.42 1.42 0 0 1 1.417 1.416 1.42 1.42 0 0 1-1.417 1.418 1.42 1.42 0 0 1-1.417-1.418zm0 7.2a1.42 1.42 0 0 1 1.417-1.418 1.42 1.42 0 0 1 1.417 1.418 1.42 1.42 0 0 1-1.417 1.418 1.42 1.42 0 0 1-1.417-1.418zm0 7.2c0-.783.635-1.416 1.417-1.416s1.417.633 1.417 1.416a1.42 1.42 0 0 1-1.417 1.418 1.42 1.42 0 0 1-1.417-1.418zm4.298-97.92a1.44 1.44 0 0 1 2.88 0 1.44 1.44 0 0 1-2.88 0zm30.24 0a1.44 1.44 0 1 1 2.88 0 1.44 1.44 0 1 1-2.88 0z"/><g class="C N"><g class="I"><path d="M223.973 124.33v-17.492m0-.001l-2.126 2.9m2.126-2.9l2.126 2.9m13.137 12.465l2.86 2.137m-2.86 2.137l2.86-2.137m0 .001H223.94" class="k"/><path d="M206.328 124.173v3.962m0 2.157v3.96m-14.76-10.08v3.962" stroke-width=".792"/></g><g class="k"><circle cx="223.968" cy="124.173" r=".504"/><circle cx="223.968" cy="124.173" r="2.881"/></g></g><text transform="translate(121.728 196.895)" class="B J O">MICRO</text><text transform="translate(47.59 43.257)" class="B J O">RESET</text><text transform="translate(332.758 39.684)" class="B J O">LIGHT</text><text transform="translate(226.64 162.901)" class="B J O">TEMP</text><text transform="translate(242.194 126.384)" class="B J T">X</text><text transform="translate(220.126 108.806)" class="B J T">Y</text><text transform="translate(218.493 121.866)" class="B J T">Z</text><text transform="translate(116.605 39.684)" class="B J O">BUZZER</text><text transform="translate(329.088 196.895)" class="B J O">LED</text><text transform="translate(224.84 104.582)" class="B J O">ACCEL</text><text transform="matrix(0 -1 1 0 205.608 137.495)" class="B J O">1.5</text><text transform="matrix(0 -1 1 0 205.248 127.774)" class="B J O">6g</text><text transform="matrix(0 -1 1 0 197.328 120.934)" class="B J O">SELF-T</text><g class="C I N"><g class="U"><path d="M334.915 51.476v3.685m0-.001h8.504m.001 0v-4.536m-7.654.001h7.653"/><path d="M335.766 50.625l-.85.85"/></g><path d="M101.6 173.874l1.418 2.836m-.01-.01l1.416-2.836m0 .01H101.6" class="m"/></g><path d="M102.144 179.108h1.728v4.465h-1.728z" class="B"/><g class="C N"><path d="M122.17 165.856h-7.37m0-9.212h7.37" class="I S"/><path d="M122.17 165.856a.92.92 0 0 0 .92-.922m.01-7.37c0-.508-.412-.92-.92-.922m-7.38.001a.92.92 0 0 0-.922.92m0 7.37a.92.92 0 0 0 .921.922" class="S"/><circle cx="116.246" cy="158.572" r="1.417" class="n"/><g class="S"><path d="M268.464 111.573v41.76" class="I"/><path d="M289.632 111.573a1.08 1.08 0 0 0-1.079-1.08m-20.09 42.84a1.08 1.08 0 0 0 1.08 1.08m0-43.92a1.08 1.08 0 0 0-1.08 1.08m20.09 42.84a1.08 1.08 0 0 0 1.079-1.08"/><path d="M289.632 153.333v-41.76m-1.08-1.08h-19m.001 43.92h5.904m0 0h7.2m0 0h5.905" class="I"/></g><path d="M288.624 154.413v-43.92" class="I n"/><path d="M282.648 154.413a3.6 3.6 0 1 0-7.202 0" class="S"/></g><g class="B"><path d="M289.092 152.433h1.44v.358h-1.44zm0-3.6h1.44v.36h-1.44zm0-3.6h1.44v.358h-1.44zm0-3.598h1.44v.358h-1.44zm0-3.603h1.44v.36h-1.44zm0-3.6h1.44v.358h-1.44zm0-3.6h1.44v.36h-1.44zm0-3.6h1.44v.358h-1.44z"/><use xlink:href="#B"/><path d="M267.564 148.833h1.438v.36h-1.438z"/><use xlink:href="#B" y="-7.2"/><use xlink:href="#B" y="-10.798"/><path d="M267.564 138.032h1.438v.36h-1.438z"/><use xlink:href="#B" y="-18"/><path d="M267.564 130.833h1.438v.36h-1.438z"/><use xlink:href="#B" y="-25.2"/><use xlink:href="#B" y="-28.798"/><path d="M267.564 120.032h1.438v.36h-1.438z"/><use xlink:href="#B" y="-36"/><path d="M267.564 112.833h1.438v.36h-1.438zm21.528 10.802h1.44v.358h-1.44zm0-3.603h1.44v.36h-1.44zm0-3.6h1.44v.358h-1.44zm0-3.6h1.44v.36h-1.44z"/></g><g class="C N"><path d="M225.38 120.286h.283m-.283 0v-3.117m0-2.553V111.5m0 0h.283m13.9 8.786h.283m0 0v-3.117m0-2.553V111.5m0 0h-.283" class="I U"/><circle cx="242.273" cy="108.127" r=".704" stroke-width="1.728"/><g class="I S"><path d="M186.888 67.293l1.8-1.8m0-3.6l-1.8-1.8m0 .001l1.8-1.8m0-3.6l-1.8-1.8m0 14.4h-10.8m0 0l-1.8-1.8m0 0v-3.6m0 0l1.8-1.8"/><path d="M176.088 60.094l-1.8-1.8m0-.001v-3.6m0 0l1.8-1.8m0 7.2h10.8"/><path d="M176.088 52.893h10.8m1.8 5.4v-3.6m0 10.8v-3.6m-1.8-9l1.8-1.8m0-3.6l-1.8-1.8m-10.8 7.2l-1.8-1.8"/><path d="M174.288 51.094v-3.6m0-.001l1.8-1.8m0 0h10.8m1.8 5.4v-3.6"/></g></g><text transform="translate(85.368 38.134)" class="B J O">L</text><path d="M86.164 43.893h.567v.566h-.567z" class="B"/><g class="C I N"><path d="M271.488 65.22V58.13" class="U"/><path d="M269.717 64.368V58.7m3.543 0v5.67" class="o"/></g><path d="M270.495 61.958h1.983v.85h-1.983z" class="B"/><g class="C I N"><path d="M216.048 54.778V47.69" class="U"/><path d="M214.276 53.928v-5.67m3.544.002v5.67" class="o"/></g><path d="M215.055 51.52h1.984v.85h-1.984z" class="B"/><g class="C N k"><path d="M171.408 162.692h-17.73" class="I"/><path d="M148.008 157.024a5.67 5.67 0 0 0 5.669 5.668"/><path d="M148.008 157.024V49.563" class="I"/><path d="M153.677 43.893a5.67 5.67 0 0 0-5.669 5.669"/><path d="M153.677 43.893h17.73m122.403 118.8h17.73" class="I"/><path d="M311.538 162.692a5.67 5.67 0 0 0 5.67-5.668"/><path d="M317.208 157.024V49.563" class="I"/><path d="M317.208 49.563a5.67 5.67 0 0 0-5.669-5.669"/><path d="M311.538 43.893h-17.73" class="I"/></g><text transform="translate(224.688 196.895)" class="B J O">LINEAR</text><g class="C I N U"><path d="M296.387 191.65v-25.5m-127.56 25.5v-25.5"/><path d="M168.828 166.138h127.56m-.001 25.512h-127.56"/></g><text transform="translate(73.848 38.134)" class="B J T">ON</text><path d="M76.804 43.893h.567v.566h-.567z" class="B"/><text transform="translate(101.928 38.494)" class="B J T">RX</text><path d="M104.884 43.893h.567v.566h-.567z" class="B"/><g class="C N S"><path d="M208.128 135.333v-12.24" class="I"/><path d="M213.168 136.054a.72.72 0 0 0 .72-.722m0-12.238a.72.72 0 0 0-.72-.722m-4.32 0a.72.72 0 0 0-.72.722m0 12.24a.72.72 0 0 0 .72.722"/><path d="M208.848 136.054h4.32m-4.32-13.682h4.32m.72.722v12.24m-20.88-.001v-12.24" class="I"/><path d="M198.048 136.054a.72.72 0 0 0 .72-.722m0-12.238a.72.72 0 0 0-.72-.722m-4.32 0a.72.72 0 0 0-.72.722m0 12.24a.72.72 0 0 0 .72.722"/><path d="M193.728 136.054h4.32m-4.32-13.682h4.32m.72.722v12.24" class="I"/></g><text transform="translate(92.567 38.494)" class="B J T">TX</text><path d="M95.524 43.893h.567v.566h-.567z" class="B"/><circle cx="146.568" cy="179.253" r="13.748" class="C N m"/><text transform="matrix(0 -1 1 0 154.873 183.184)" class="B J O">-</text><g class="C I N"><path d="M184.864 140.444h-4.593m-.001-8.062h4.593m.001 2.55v2.96m-4.594-2.693v-.267m0 2.96v-.268m0-4.976v-.267m0 8.06v-.267m4.594 0v.267m0-8.062v.267" class="S"/><path d="M204.023 81.03v7.086m0 0h-9.07m-.001 0V81.03m0 0h9.07" class="U"/></g><path fill-opacity=".15" d="M334.915 50.625h8.504v4.536h-8.504zM101.6 173.874h2.835v5.234H101.6zm12.278-17.23h9.213v9.213h-9.213z" class="B"/><path fill="#333" d="M267.564 110.493h22.968v43.92h-22.968z"/><path fill-opacity=".15" d="M225.38 107.423h17.6v12.863h-17.6zm44.337-49.293h3.543v7.088h-3.543zm-55.44-10.44h3.543v7.087h-3.543zM331.1 44.106h17.575V61.68H331.1zm-122.972 78.266h5.76v13.683h-5.76zm-15.12 0h5.76v13.683h-5.76zm-12.738 10h4.592v8.063h-4.592zm14.682-51.352h9.07v7.086h-9.07z" class="B"/><circle cx="259.248" cy="37.773" r="1.8" class="C F G"/><use xlink:href="#C" class="D"/><circle cx="289.488" cy="37.773" r="1.8" class="C F G"/><path d="M287.688 33.633h3.602v8.28h-3.602v-8.28m0 4.14c0 .994.808 1.8 1.802 1.8a1.8 1.8 0 1 0 0-3.6 1.8 1.8 0 0 0-1.802 1.8z" class="D"/><circle cx="308.208" cy="70.893" r="1.777" class="C F G"/><path d="M304.12 69.116h8.176v3.555h-8.176v-3.555m2.31 1.777a1.78 1.78 0 0 0 1.777 1.776c.982 0 1.777-.795 1.777-1.776s-.795-1.777-1.777-1.777a1.78 1.78 0 0 0-1.777 1.777z" class="D"/><circle cx="308.208" cy="78.093" r="1.777" class="C F G"/><use xlink:href="#D" class="D"/><circle cx="308.208" cy="85.293" r="1.778" class="C F G"/><use xlink:href="#E" class="D"/><circle cx="308.208" cy="92.493" r="1.777" class="C F G"/><path d="M304.12 90.716h8.176v3.556h-8.176v-3.556m2.31 1.777a1.78 1.78 0 0 0 1.777 1.777c.982 0 1.777-.795 1.777-1.777a1.78 1.78 0 0 0-1.777-1.777 1.78 1.78 0 0 0-1.777 1.777z" class="D"/><circle cx="308.208" cy="99.694" r="1.777" class="C F G"/><path d="M304.12 97.917h8.176v3.556h-8.176v-3.556m2.31 1.777a1.78 1.78 0 0 0 1.777 1.777 1.78 1.78 0 0 0 1.777-1.777c0-.982-.795-1.777-1.777-1.777a1.78 1.78 0 0 0-1.777 1.777z" class="D"/><circle cx="308.208" cy="106.894" r="1.777" class="C F G"/><path d="M304.12 105.116h8.176v3.555h-8.176v-3.555m2.31 1.778a1.78 1.78 0 0 0 1.777 1.776c.982 0 1.777-.795 1.777-1.776s-.795-1.777-1.777-1.777-1.777.794-1.777 1.777z" class="D"/><circle cx="308.208" cy="114.093" r="1.777" class="C F G"/><path d="M304.12 112.315h8.176v3.555h-8.176v-3.555m2.31 1.78a1.78 1.78 0 0 0 1.777 1.776c.982 0 1.777-.795 1.777-1.776a1.78 1.78 0 0 0-1.777-1.777c-.98-.002-1.777.795-1.777 1.777z" class="D"/><circle cx="308.208" cy="121.292" r="1.777" class="C F G"/><path d="M304.12 119.515h8.176v3.555h-8.176v-3.555m2.31 1.777a1.78 1.78 0 0 0 1.777 1.777c.982 0 1.777-.795 1.777-1.777a1.78 1.78 0 0 0-1.777-1.776 1.78 1.78 0 0 0-1.777 1.776z" class="D"/><circle cx="308.208" cy="128.493" r="1.777" class="C F G"/><path d="M304.12 126.716h8.176v3.556h-8.176v-3.556m2.31 1.777a1.78 1.78 0 0 0 1.777 1.777 1.78 1.78 0 0 0 1.777-1.777c0-.98-.795-1.777-1.777-1.777a1.78 1.78 0 0 0-1.777 1.777z" class="D"/><circle cx="308.208" cy="135.692" r="1.777" class="C F G"/><use xlink:href="#F" class="D"/><circle cx="157.008" cy="70.893" r="1.777" class="C F G"/><path d="M152.92 69.116h8.176v3.555h-8.176v-3.555m2.31 1.777c0 .98.796 1.776 1.777 1.776s1.777-.795 1.777-1.776-.795-1.777-1.777-1.777a1.78 1.78 0 0 0-1.777 1.777z" class="D"/><circle cx="157.008" cy="78.093" r="1.777" class="C F G"/><g class="D"><use xlink:href="#D" x="-151.2"/><path d="M271.848 33.633h3.6v8.28h-3.6v-8.28m0 4.14a1.8 1.8 0 1 0 3.601 0 1.8 1.8 0 1 0-3.601 0z"/><use xlink:href="#G"/><use xlink:href="#C" x="44.64"/><use xlink:href="#C" x="37.442"/><use xlink:href="#G" x="-90.72"/><use xlink:href="#G" x="-97.92"/><use xlink:href="#G" x="-60.48"/><use xlink:href="#C" x="-60.48"/></g><circle cx="157.008" cy="85.293" r="1.778" class="C F G"/><use xlink:href="#E" x="-151.2" class="D"/><circle cx="157.008" cy="92.493" r="1.777" class="C F G"/><path d="M152.92 90.716h8.176v3.556h-8.176v-3.556m2.31 1.777c0 .982.796 1.777 1.777 1.777s1.777-.795 1.777-1.777a1.78 1.78 0 0 0-1.777-1.777 1.78 1.78 0 0 0-1.777 1.777z" class="D"/><circle cx="157.008" cy="99.694" r="1.777" class="C F G"/><path d="M152.92 97.917h8.176v3.556h-8.176v-3.556m2.31 1.777a1.78 1.78 0 0 0 1.777 1.777 1.78 1.78 0 0 0 1.777-1.777c0-.982-.795-1.777-1.777-1.777s-1.777.795-1.777 1.777z" class="D"/><circle cx="157.008" cy="106.894" r="1.777" class="C F G"/><path d="M152.92 105.116h8.176v3.555h-8.176v-3.555m2.31 1.778c0 .98.796 1.776 1.777 1.776s1.777-.795 1.777-1.776-.795-1.777-1.777-1.777-1.777.794-1.777 1.777z" class="D"/><circle cx="157.008" cy="114.093" r="1.777" class="C F G"/><path d="M152.92 112.315h8.176v3.555h-8.176v-3.555m2.31 1.78c0 .98.796 1.776 1.777 1.776s1.777-.795 1.777-1.776a1.78 1.78 0 0 0-1.777-1.777c-.98-.002-1.777.795-1.777 1.777z" class="D"/><circle cx="157.008" cy="121.292" r="1.777" class="C F G"/><path d="M152.92 119.515h8.176v3.555h-8.176v-3.555m2.31 1.777c0 .982.796 1.777 1.777 1.777s1.777-.795 1.777-1.777a1.78 1.78 0 0 0-1.777-1.776c-.98-.001-1.777.796-1.777 1.776z" class="D"/><circle cx="157.008" cy="128.493" r="1.777" class="C F G"/><path d="M152.92 126.716h8.176v3.556h-8.176v-3.556m2.31 1.777a1.78 1.78 0 0 0 1.777 1.777 1.78 1.78 0 0 0 1.777-1.777c0-.98-.795-1.777-1.777-1.777s-1.777.795-1.777 1.777z" class="D"/><circle cx="157.008" cy="135.692" r="1.777" class="C F G"/><use xlink:href="#F" x="-151.2" class="D"/><circle cx="161.328" cy="37.773" r="1.8" class="C F G"/><use xlink:href="#G" x="-105.12" class="D"/><circle cx="191.568" cy="37.773" r="1.8" class="C F G"/><use xlink:href="#G" x="-74.88" class="D"/><g class="C F G"><circle cx="273.648" cy="37.773" r="1.8"/><circle cx="266.448" cy="37.773" r="1.8"/><circle cx="303.889" cy="37.773" r="1.8"/><circle cx="296.688" cy="37.773" r="1.8"/><circle cx="175.728" cy="37.773" r="1.8"/><circle cx="168.528" cy="37.773" r="1.8"/><circle cx="205.968" cy="37.773" r="1.8"/><circle cx="198.768" cy="37.773" r="1.8"/></g><g transform="matrix(0 -1 1 0 283.192 46.456)"><path d="M-26.972 9.84V8.57h1.04v1.27zm19.392 0V8.568h1.037V9.84z" class="K"/><path d="M-26.97 9.84v-.203h1.04v.203zm19.388.002V9.64h1.037v.203z" class="V"/><path d="M-26.97 8.773v-.205h1.04v.205zm19.4 0v-.205h1.037v.205z" class="E B"/><use xlink:href="#H" class="c"/><circle cx="-16.757" cy="9.175" r="8.703" class="l"/><use xlink:href="#H" fill="#333"/><path d="M-7.58 14.357l-3.8 3.81h-13.157a1.39 1.39 0 0 1-1.385-1.387v.185a1.39 1.39 0 0 0 1.385 1.387h13.157l3.8-3.812v-.184z"/><path d="M-25.932 1.568A1.39 1.39 0 0 1-24.547.184H-11.4l3.8 3.808v-.184l-3.8-3.81h-13.157a1.39 1.39 0 0 0-1.385 1.384v.185z" class="B V"/><path d="M-16.757 18c-1.88 0-3.614-.604-5.038-1.614-2.215-1.58-3.663-4.163-3.663-7.088S-24 3.788-21.795 2.2A8.65 8.65 0 0 1-16.757.595c4.807 0 8.703 3.896 8.703 8.703s-3.898 8.7-8.703 8.7z" class="l"/><path d="M-25.46 9.175c0 2.926 1.448 5.51 3.663 7.088V2.088C-24 3.665-25.46 6.247-25.46 9.175z"/><g class="B"><path opacity=".3" d="M-8.054 9.42c0-4.807-3.896-8.703-8.703-8.703a8.67 8.67 0 0 0-5.038 1.615C-24 3.91-25.458 6.493-25.458 9.42v-.244a8.68 8.68 0 0 1 3.663-7.087C-20.37 1.073-18.637.473-16.757.473c4.807 0 8.703 3.896 8.703 8.702v.244z"/><path d="M-25.46 8.947c0 2.924 1.448 5.508 3.663 7.088v.23c-2.215-1.58-3.663-4.162-3.663-7.088v-.23z" class="H"/></g><path d="M-21.795 16.035c1.424 1.013 3.158 1.615 5.038 1.615 4.807 0 8.703-3.898 8.703-8.703v.23c0 4.805-3.896 8.703-8.703 8.703a8.67 8.67 0 0 1-5.038-1.615v-.23z" class="E"/></g><path fill="#1f1f1f" d="M226.463 153.536c0 .898.373 1.738 1.005 2.45h11.276c.632-.713 1.005-1.553 1.005-2.45h-13.286z"/><path fill="#141414" d="M233.102 148.878c-3.667 0-6.64 2.086-6.64 4.66h13.277c.001-2.574-2.97-4.66-6.638-4.66z"/><text font-family="'Droid Sans'" transform="translate(229.061 153.872)" font-size="2.652" class="B">TMP36</text><g transform="matrix(0 1 -1 0 188.744 19.47599)"><path d="M48.286 12.762V1.556l-1.5-1.5h-3.93l-1.5 1.5v11.206l1.5 1.512h3.93zm-7.182 0V1.556l-1.5-1.5h-3.932l-1.513 1.5v11.206l1.513 1.512h3.932zm-7.177 0V1.556L32.415.045h-3.933l-1.508 1.5V12.76l1.508 1.512h3.933z" fill="#404040"/><path d="M31.733 2.455v2.298h-2.3V2.455zm0 7.197v2.298h-2.3V9.652zm7.197-7.198v2.298h-2.298V2.454zm0 7.2v2.298h-2.298V9.653zm7.2-7.2v2.298h-2.3V2.454z" fill="#8d8c8c"/><path fill="#8d8455" d="M46.13 9.653v2.298H43.83V9.653z"/><path d="M45.573 10.212v1.184H44.39v-1.184z" class="W"/><path d="M46.13 9.653l-.56.56v1.18l.56.558z" class="X"/><path d="M44.39 11.393h1.18l.56.558H43.83z" class="Y"/><path d="M44.39 10.212v1.18l-.558.558V9.653z" class="Z"/><path d="M46.13 9.653l-.56.56h-1.18l-.558-.56z" class="D"/><path d="M45.574 3.012v1.182H44.4V3.012z" class="W"/><path d="M46.13 2.454l-.56.558v1.18l.56.558z" class="X"/><path d="M44.39 4.193h1.18l.56.558H43.83z" class="Y"/><path d="M44.39 3.012v1.18l-.558.558V2.454z" class="Z"/><path d="M46.13 2.454l-.56.558h-1.18l-.558-.558z" class="D"/><path d="M38.374 10.212v1.184H37.2v-1.184z" class="W"/><path d="M38.93 9.653l-.557.56v1.18l.557.558z" class="X"/><path d="M37.2 11.393h1.183l.557.558h-2.297z" class="Y"/><path d="M37.2 10.212v1.18l-.557.558V9.653z" class="Z"/><path d="M38.93 9.653l-.557.56H37.2l-.557-.56z" class="D"/><path d="M38.374 3.012v1.182H37.2V3.012z" class="W"/><path d="M38.93 2.454l-.557.558v1.18l.557.558z" class="X"/><path d="M37.2 4.193h1.183l.557.558h-2.297z" class="Y"/><path d="M37.2 3.012v1.18l-.557.558V2.454z" class="Z"/><path d="M38.93 2.454l-.557.558H37.2l-.557-.558z" class="D"/><path d="M31.173 10.212v1.184h-1.186v-1.184z" class="W"/><path d="M31.732 9.653l-.56.56v1.18l.56.558z" class="X"/><path d="M29.99 11.393h1.184l.56.558h-2.298z" class="Y"/><path d="M29.99 10.212v1.18l-.555.558V9.653z" class="Z"/><path d="M31.732 9.653l-.56.56H29.99l-.555-.56z" class="D"/><path d="M31.174 3.012v1.182h-1.186V3.012z" class="W"/><path d="M31.732 2.454l-.56.558v1.18l.56.558z" class="X"/><path d="M29.99 4.193h1.184l.56.558h-2.298z" class="Y"/><path d="M29.99 3.012v1.18l-.555.558V2.454z" class="Z"/><path d="M31.732 2.454l-.56.558H29.99l-.555-.558z" class="D"/></g><path d="M257.493 30.292h3.528v10.113h-3.528zm7.2 0h3.526v10.113h-3.526zm7.2 0h3.526v10.113h-3.526z" class="K"/><path d="M257.493 33.958h3.528v.525h-3.528zm7.2 0h3.526v.525h-3.526zm7.2 0h3.526v.525h-3.526z" class="V"/><path d="M273.654 30.96a3.01 3.01 0 0 1-2.997 2.998h-8.234a3.01 3.01 0 0 1-2.999-2.998V3a3.01 3.01 0 0 1 2.999-3h8.234a3.01 3.01 0 0 1 2.997 3v27.96z" class="L"/><path d="M273.654 3.553a3.01 3.01 0 0 0-2.997-2.999h-8.234a3.01 3.01 0 0 0-2.999 2.999V3a3.01 3.01 0 0 1 2.999-3h8.234a3.01 3.01 0 0 1 2.997 3v.554z" class="B E"/><path d="M274.2 2.793h-1.067l-.394 1.52v25.98h1.853V4.313zm-7.198 0h-1.07l-.4 1.52v25.98h1.852V4.313zm-7.19.01h-1.07l-.4 1.52v25.97h1.85l.01-25.97z" class="K"/><path d="M257.493 40.406h3.528v.883h-3.528zm7.2 0h3.526v.883h-3.526zm7.2 0h3.526v.883h-3.526z" class="M"/><path d="M254.956 23.126h23.167v10.832h-23.167z" class="L"/><path d="M254.956 23.126h23.167v.545h-23.167z" class="B E"/><path d="M272.728 4.458l.394-1.52h1.067l.392 1.52v-.145l-.392-1.52h-1.067l-.394 1.52m-7.198.145l.4-1.52H267l.4 1.52v-.145l-.4-1.52h-1.07l-.4 1.52m-7.2.155l.4-1.52h1.07l.4 1.52v-.145l-.4-1.52h-1.07l-.4 1.52" class="B E"/><path d="M287.732 30.292h3.53v10.113h-3.53zm7.202 0h3.526v10.113h-3.526zm7.2 0h3.526v10.113h-3.526z" class="K"/><path d="M287.732 33.958h3.53v.525h-3.53zm7.202 0h3.526v.525h-3.526zm7.2 0h3.526v.525h-3.526z" class="V"/><path d="M303.894 30.96a3.01 3.01 0 0 1-2.998 2.998h-8.233a3.01 3.01 0 0 1-2.999-2.998V3a3.01 3.01 0 0 1 2.999-3h8.233a3.01 3.01 0 0 1 2.998 3v27.96z" class="L"/><path d="M303.894 3.553a3.01 3.01 0 0 0-2.998-2.999h-8.233a3.01 3.01 0 0 0-2.999 2.999V3a3.01 3.01 0 0 1 2.999-3h8.233a3.01 3.01 0 0 1 2.998 3v.554z" class="B E"/><path d="M304.43 2.793h-1.068l-.393 1.52v25.98h1.852V4.313zm-7.198 0h-1.07l-.4 1.52v25.98h1.85V4.313zm-7.2.01h-1.07l-.402 1.52v25.97h1.85l.012-25.97z" class="K"/><path d="M287.732 40.406h3.53v.883h-3.53zm7.202 0h3.526v.883h-3.526zm7.2 0h3.526v.883h-3.526z" class="M"/><path d="M285.196 23.126h23.167v10.832h-23.167z" class="L"/><path d="M285.196 23.126h23.167v.545h-23.167z" class="B E"/><g class="B E"><use xlink:href="#I"/><use xlink:href="#J"/><path d="M288.57 4.468l.402-1.52h1.07l.392 1.52v-.145l-.392-1.52h-1.07l-.402 1.52"/></g><g transform="matrix(-1 0 0 -1 224.647 -104.872)"><path d="M-12.146-147.055h.992v1.236h-.992z" class="a"/><path d="M-12.146-147.055h.09v1.096h-.09z" class="M"/><path d="M-10.3-147.055h1v1.236h-1z" class="a"/><path d="M-10.3-147.055h.09v1.096h-.09z" class="M"/><path d="M-8.458-147.055h1v1.236h-1z" class="a"/><path d="M-8.458-147.055h.088v1.096h-.088z" class="M"/><path d="M-6.615-147.055h1v1.236h-1z" class="a"/><path d="M-6.615-147.055h.088v1.096h-.088z" class="M"/><path d="M-4.773-147.055h1v1.236h-1z" class="a"/><path d="M-4.773-147.055h.088v1.096h-.088z" class="M"/><path d="M1.475-129.094h-18.843v-17.01H1.476z" class="Q"/><path d="M1.68-139.5h.995v3.04H1.68zm-20.285 0h1.004v3.04h-1.004z" class="a"/><path d="M-17.368-146.103H1.477v.13h-18.845z" class="K"/><path fill="#333" d="M-13.11-146.103h10.292v15.615H-13.11z"/><path d="M-17.6-129.464v.478l-.64 1.082h-.365z" class="Q"/><path d="M-17.6-128.986v.538l-.64.544z" class="K"/><path d="M2.678-127.904h-.364l-.64-1.082v-.478z" class="Q"/><path d="M2.314-127.904l-.64-.544-.001-.538h.001z" class="K"/><path d="M-4.03-130.115h.477v.648h-.477zm-2.086 0h.48v.648h-.48zm-2.084 0h.476v.648H-8.2zm-2.086 0h.478v.648h-.478zm-2.084 0h.476v.648h-.476z" class="L"/><path d="M-12.37-130.115h.097v.648h-.097zm2.084 0h.097v.648h-.097zm2.086 0h.097v.648H-8.2zm2.085 0h.097v.648h-.097zm2.087 0h.097v.648h-.097z" fill="gray"/><path fill="#4d4d4d" d="M-12.884-129.28h.514v-.396h.478v.396h1.608v-.396h.477v.396H-8.2v-.396h.476v.396h1.608v-.396h.48v.396h1.608v-.396h.477v.396h.593c.08 0 .144-.063.144-.146v-1.064c0-.08-.063-.146-.144-.146h-10.003c-.078 0-.146.063-.146.146v1.064c0 .078.064.146.146.146h.078z"/><path d="M-17.6-145.536l.23-.566h2.532s-2.302.1-2.384.282.1.284.1.284h-.487zm19.275 0l-.23-.565H-1.09s2.3.112 2.383.283-.1.282-.1.282h.5z" class="K"/><path d="M-1.714-146.103v1.634H-3.32v-1.634h-.46v.564h-8.364v-.564h-.524v1.635h-1.605v-1.635h-3.324v17.007h19.27v-17.007h-3.388zm-10.955 13.857v.814h-1.593v-.88c-.427-.277-.708-.76-.708-1.308 0-.598.22-1.104.708-1.37v-4.48h1.592v4.482c.487.264.825.772.825 1.37s-.336 1.107-.824 1.37zm10.888 0v.814h-1.592v-.88a1.56 1.56 0 0 1-.707-1.308c0-.598.217-1.104.707-1.37v-4.48h1.592v4.482a1.55 1.55 0 0 1 .826 1.37c0 .597-.335 1.107-.826 1.37z" class="l"/><path d="M-17.195-129.094h-.406v-16.442h1.53z" class="L"/><path d="M1.675-129.094l-.57-10.98-.566-5.463h1.136z" class="M"/><path d="M-14.262-139.47h1.592v.13h-1.592zm10.892 0h1.6v.13h-1.6z" class="K"/><path d="M-16.656-129.957H.73v.66h-17.387z" class="Q"/><path d="M-16.656-129.407H.73v.313h-17.387z" class="K"/></g><path d="M84.66 40.517h3.833v7.348H84.66z" class="L"/><path d="M84.66 45.265s.467.645.426.867.148.54 0 .676l-.424-.018-.002-1.525z" class="d e"/><path d="M86.125 43.693h.96v.854h-.96z" class="B"/><path d="M86.1 43.693h.05v.854h-.05z" class="Q"/><g class="P"><path d="M85.084 45.845l-.104.963h.73l-.104-.963z"/><use xlink:href="#K"/><path d="M87.972 42.425l.103-.966h-.73l.103.966z"/><use xlink:href="#L"/><path d="M86.435 44.548s.002-.356-.31-.383v.383h.31z"/><use xlink:href="#M"/></g><g class="f"><use xlink:href="#N"/><path d="M87.393 42.425l-.103-.966h.055l.103.966z"/><path d="M86.44 44.02c.3-.062 1.212-1.07 1.15-1.885h.06c.06.877-.86 1.826-1.152 1.887l-.057-.002zm-.372.145v.38h.057v-.38h-.057z"/><use xlink:href="#O"/></g><path d="M88.442 41.995h.05v4.224h-.05z" class="B H"/><path d="M88.493 41.476h-3.83v5.317l3.83.004v-5.32z" class="H L"/><use xlink:href="#P" class="B g"/><path d="M84.882 46.654c-.068 0-.138.013-.138-.098V41.74c0-.168.065-.176.065.01v3.59c.001.594.07 1.317.07 1.317z" class="h"/><use xlink:href="#Q" class="P"/><path d="M88.442 40.468h.052v1.006h-.052z" class="B H"/><path d="M84.66 47.865h3.833v-1.072H85.03c-.056.104-.146.2-.27.2h-.1v.83" class="P"/><path d="M88.442 46.792h.052v1.07h-.052z" class="B H"/><path d="M309.902 170.563h16.75v18.14h-16.75z" class="L"/><path fill="#333" d="M311.336 170.563l-1.434 1.434v16.707h16.75v-18.14z"/><circle cx="318.479" cy="179.634" r="6.75" class="L"/><path d="M325.23 180.034a6.75 6.75 0 1 0-13.5 0v-.4a6.75 6.75 0 1 1 13.5 0v.4z" class="E"/><path fill="#4b4b4b" d="M167.994 165.874h127.56v25.515h-127.56z"/><path d="M167.994 165.874h127.56v1.1h-127.56z" class="B E"/><path d="M167.994 190.3h127.56v1.1h-127.56z" class="E"/><path d="M171.054 174.192h121.44v8.875h-121.44z" class="c"/><path fill="#7c7c7c" d="M172.244 176.3h119v4.683h-119z"/><path d="M171.054 173.946h121.44v.496h-121.44z"/><path d="M171.054 182.747h121.44v.547h-121.44z" opacity=".4" class="B"/><path opacity=".4" d="M171.054 174.192h121.44v3.402h-121.44z"/><path d="M178.827 175.095h11.833v6.668h-11.833z"/><path d="M188.932 187.845c0 .55-.45 1-1 1h-6.375c-.55 0-1-.45-1-1v-18.5a1 1 0 0 1 1-1h6.375a1 1 0 0 1 1 1v18.5z" class="c"/><path fill="#2a2a2a" d="M181.775 168.345h3.47v20.5h-3.47z"/><path fill="#3b3b3b" d="M183.025 168.345h2v20.5h-2z"/><path fill="#4b4b4b" d="M183.723 168.38h1.115v20.5h-1.115z"/><path d="M188.932 169.845a1 1 0 0 0-1-1h-6.375a1 1 0 0 0-1 1v-.5a1 1 0 0 1 1-1h6.375a1 1 0 0 1 1 1v.5z" class="B E"/><path d="M180.557 187.345c0 .55.45 1 1 1h6.375c.55 0 1-.45 1-1v.5c0 .55-.45 1-1 1h-6.375c-.55 0-1-.45-1-1v-.5z" class="E"/><path d="M75.3 40.552h3.833V47.9H75.3z" class="L"/><path d="M75.3 45.3s.467.645.426.867.148.54 0 .676l-.424-.02L75.3 45.3z" class="d e"/><path d="M76.765 43.728h.96v.854h-.96z" class="B"/><path d="M76.74 43.728h.05v.854h-.05z" class="Q"/><g class="P"><path d="M75.724 45.88l-.104.963h.73l-.104-.963z"/><path d="M75.923 45.94c.035-.274.104-.455.162-.606.08-.2.782-.56.696-.828-.012-.027.01-.06.043-.066s.068.01.078.04c.095.305-.617.674-.7.894a2.1 2.1 0 0 0-.155.571c-.004.03-.033.056-.068.05s-.055-.026-.055-.053zm2.69-3.48l.103-.966h-.73l.103.966z"/><path d="M77.1 44.113c0-.024.02-.05.047-.055.292-.063 1.152-1.088 1.152-1.885 0-.033.026-.058.063-.058s.063.025.063.058v.002c0 .75-.77 1.9-1.245 1.993-.035.008-.068-.013-.078-.04zm-.015.47s.002-.356-.3-.384v.384h.3z"/><path d="M77.394 44.148s-.306.158-.35.053-.052-.178.028-.24.323.186.323.186z"/></g><g class="f"><use xlink:href="#N" x="-9.36" y="0.035"/><path d="M78.033 42.46l-.103-.966h.055l.103.966z"/><path d="M77.08 44.056c.3-.063 1.212-1.07 1.15-1.885h.06c.06.877-.86 1.825-1.152 1.887l-.057-.002zm-.372.144v.38h.057v-.38h-.057z"/><path d="M77.02 43.96c-.08.063-.076.13-.03.237l.06.002c-.05-.106-.052-.18.028-.24h-.057z"/></g><path d="M79.082 42.03h.05v4.224h-.05z" class="B H"/><path d="M79.133 41.51h-3.83v5.316l3.83.005v-5.32z" class="H L"/><path d="M78.48 41.562h.27c.15.018.27-.012.27.098v4.854c0 .168-.065.176-.065-.012v-4.347c0-.457-.105-.518-.197-.518l-.272.002c-.182 0-.182-.077-.008-.077z" class="B g"/><path d="M75.522 46.69c-.068 0-.138.012-.138-.098v-4.817c0-.168.065-.176.065.008v3.59a16.6 16.6 0 0 0 .071 1.318z" class="h"/><use xlink:href="#Q" x="-9.36" y="0.035" class="P"/><path d="M79.082 40.503h.052v1.006h-.052z" class="B H"/><path d="M75.3 47.9h3.833v-1.072H75.67c-.056.105-.146.19-.27.19h-.1v.83" class="P"/><path d="M79.082 46.827h.052V47.9h-.052z" class="B H"/><path d="M159.366 30.292h3.528v10.113h-3.528zm7.2 0h3.527v10.113h-3.527zm7.2 0h3.527v10.113h-3.527z" class="K"/><path d="M159.366 33.958h3.528v.525h-3.528zm7.2 0h3.527v.525h-3.527zm7.2 0h3.527v.525h-3.527z" class="V"/><use xlink:href="#R" fill="#fbb03b"/><path d="M175.528 3.553A3.01 3.01 0 0 0 172.53.554h-8.234a3.01 3.01 0 0 0-2.999 2.999V3a3.01 3.01 0 0 1 2.999-3h8.234a3.01 3.01 0 0 1 2.998 3v.554z" class="B E"/><path d="M176.063 2.793h-1.068l-.393 1.52v25.98h1.852V4.313zm-7.198 0h-1.07l-.4 1.52v25.98h1.85V4.313zm-7.2.01h-1.07l-.4 1.52v25.97h1.85l.01-25.97z" class="K"/><path d="M159.366 40.406h3.528v.883h-3.528zm7.2 0h3.527v.883h-3.527zm7.2 0h3.527v.883h-3.527z" class="M"/><path fill="#fb9f3b" d="M156.83 23.126h23.167v10.832H156.83z"/><path d="M156.83 23.126h23.167v.545H156.83z" class="B E"/><g class="B E"><use xlink:href="#I" x="-128.368"/><use xlink:href="#J" x="-128.366"/><path d="M160.204 4.468l.4-1.52h1.07l.39 1.52v-.145l-.39-1.52h-1.07l-.4 1.52"/></g><path d="M189.606 30.292h3.528v10.113h-3.528zm7.2 0h3.527v10.113h-3.527zm7.2 0h3.527v10.113h-3.527z" class="K"/><path d="M189.606 33.958h3.528v.525h-3.528zm7.2 0h3.527v.525h-3.527zm7.2 0h3.527v.525h-3.527z" class="V"/><use xlink:href="#R" x="30.24" fill="#fbb03b"/><path d="M205.768 3.553A3.01 3.01 0 0 0 202.77.554h-8.234a3.01 3.01 0 0 0-2.999 2.999V3a3.01 3.01 0 0 1 2.999-3h8.234a3.01 3.01 0 0 1 2.998 3v.554z" class="B E"/><path d="M206.303 2.793h-1.068l-.393 1.52v25.98h1.852V4.313zm-7.198 0h-1.07l-.4 1.52v25.98h1.85V4.313zm-7.2.01h-1.07l-.4 1.52v25.97h1.85l.01-25.97z" class="K"/><path d="M189.606 40.406h3.528v.883h-3.528zm7.2 0h3.527v.883h-3.527zm7.2 0h3.527v.883h-3.527z" class="M"/><path fill="#fb9f3b" d="M187.07 23.126h23.167v10.832H187.07z"/><path d="M187.07 23.126h23.167v.545H187.07z" class="B E"/><g class="B E"><use xlink:href="#I" x="-98.128"/><use xlink:href="#J" x="-98.126"/><path d="M190.444 4.468l.4-1.52h1.07l.39 1.52v-.145l-.39-1.52h-1.07l-.4 1.52"/></g><g transform="matrix(-1 0 0 -1 73.53272 170.32742)"><circle cx="-7.603" cy="56.233" r="38.409" class="b"/><g fill="#161616"><circle cx="-7.603" cy="56.234" r="35.969" class="H"/><circle cx="-7.603" cy="56.233" r="34.042"/></g><circle cx="-7.604" cy="56.234" r="30.828"/><circle cx="-7.604" cy="56.233" r="29.088" class="b"/><g class="B"><path d="M-3.67 27.412c-15.918-2.175-30.582 8.967-32.755 24.885s8.97 30.584 24.886 32.758 30.58-8.97 32.755-24.89-8.97-30.58-24.886-32.754zm13.3 51.504c-11.85 9.003-29.168 6.143-38.687-6.388s-7.632-29.98 4.218-38.98 29.166-6.144 38.685 6.39c9.517 12.525 7.63 29.978-4.216 38.98z" opacity=".3"/><path d="M8.398 41.742c7.865 8.168 10.6 19.312 8.148 29.187 5.166-9.312 4.475-21.55-2.7-30.992C4.33 27.408-12.99 24.55-24.838 33.55c-.194.145-.378.303-.567.455C-14.325 29.514-.8 32.19 8.398 41.742z" opacity=".05"/><path d="M11.853 40.738c7.056 9.287 8.34 21.066 4.37 30.75 5.512-9.377 4.943-21.918-2.375-31.553-5.854-7.707-14.66-11.748-23.33-11.627 8.068.995 15.88 5.25 21.336 12.43z" opacity=".05"/></g><path d="M-35.06 52.898c-.438 6.703 1.5 13.717 6.004 19.633 5.376 7.076 13.242 11.064 21.206 11.577-15.326-2.98-26.185-15.7-27.2-31.2z" class="E"/></g><path stroke="#8c8c8c" stroke-width="2.1" d="M351.002 52.584h-22.228" class="C I"/><path d="M332.587 52.63c0 2.178.96 4.127 2.474 5.467h9.654a7.26 7.26 0 0 0 2.479-5.467c0-2.178-.96-4.126-2.48-5.465h-9.656c-1.513 1.337-2.472 3.287-2.472 5.465z"/><path d="M335.06 47.165h9.656v10.932h-9.656z"/><path d="M344.732 57.47l-4.847.23c-2.495 0-4.842-.23-4.842-.23l-.224-4.84.225-4.845s2.348-.23 4.844-.23l4.846.23a56.69 56.69 0 0 0 .229 4.845l-.23 4.84z" class="K"/><path fill="#8f0000" d="M344.206 48.523l-.032-.182-.184-.03c-.02-.002-1.98-.312-4.104-.312-1.108 0-2.163.087-2.852.146l-1.243.164c-.057 0-.104.02-.146.063-.062.027-.074.08-.076.143-.06.188-.107.55-.18 1.264a29.84 29.84 0 0 0-.142 2.856c0 2.136.32 4.09.323 4.104l.03.182.183.03c.02.004 1.97.313 4.104.313 2.14 0 4.087-.313 4.104-.313l.184-.03.03-.182c.004-.02.32-1.98.32-4.104s-.315-4.09-.317-4.11zm-8.157 7.943a28.23 28.23 0 0 1-.289-3.838c0-1.8.188-3.383.27-3.84l.964-.12c-.006.044-.02.08-.02.126 0 .306.188.82.21.88.047.12.168.188.293.162.014-.002 1.156-.235 2.4-.235 1.188 0 2.27.21 2.39.23.003.006.013.02.013.062 0 .104-.05.27-.104.416-.28-.05-.813-.125-1.435-.125-.887 0-1.735.158-1.77.166-.075.02-.14.062-.178.125-.016.03-.102.196-.102.52 0 .27.07.646.074.677.013.063.05.127.105.165.06.04.127.052.194.04.003 0 .4-.075.8-.075a4.26 4.26 0 0 1 .646.051.82.82 0 0 1 .021.24c0 .104-.013.204-.02.3h-1.5c-.12 0-.225.08-.25.194a2.8 2.8 0 0 0-.076.604c0 .3.074.522.082.55.03.086.104.15.19.168.02.004.438.084.908.084.248 0 .48-.02.646-.043a1.78 1.78 0 0 1 .023.334c0 .074-.01.12-.017.164-.28.043-.896.13-1.52.13-.832 0-1.533-.146-1.54-.146-.102-.02-.2.016-.26.098-.02.023-.23.313-.23.656s.21.63.234.66c.038.05.094.083.15.097.05.012 1.207.246 2.515.246a14.29 14.29 0 0 0 2.288-.203c.056.176.105.383.105.494 0 .084-.03.14-.063.18l-2.34.113c-1.706-.005-3.3-.217-3.826-.296zm7.676 0l-.938.12c.006-.04.02-.075.02-.123 0-.305-.188-.82-.21-.877-.045-.12-.168-.188-.293-.163-.017.002-1.158.234-2.4.234-1.04 0-2-.16-2.303-.216-.04-.07-.084-.18-.084-.272a.58.58 0 0 1 .057-.226c.274.048.826.132 1.467.132.886 0 1.734-.158 1.77-.165a.3.3 0 0 0 .177-.128c.02-.03.104-.193.104-.52 0-.287-.063-.66-.063-.676a.38.38 0 0 0-.104-.162c-.063-.04-.13-.054-.188-.04a4.56 4.56 0 0 1-.832.081c-.26 0-.494-.028-.646-.05-.013-.065-.022-.146-.022-.24 0-.104.015-.204.025-.29h1.5c.12 0 .226-.08.252-.196.002-.013.074-.312.074-.604 0-.303-.074-.523-.082-.553-.03-.1-.104-.15-.2-.168-.02-.02-.438-.103-.9-.103-.248 0-.475.02-.645.062-.014-.105-.025-.23-.025-.353 0-.063.01-.104.017-.146.278-.044.896-.146 1.52-.146.828 0 1.53.153 1.54.154.117.024.238-.035.287-.146.02-.06.22-.492.22-.812 0-.376-.264-.53-.396-.563-.05-.02-1.207-.24-2.517-.24-.983 0-1.885.137-2.29.2-.058-.188-.1-.392-.1-.492 0-.08.03-.146.062-.188l2.338-.104c1.722 0 3.313.212 3.838.285a28.18 28.18 0 0 1 .289 3.841c-.012 1.737-.22 3.33-.3 3.856z"/><g fill="#8c8c8c"><circle cx="334.157" cy="52.63" r="1.379"/><circle cx="345.619" cy="52.629" r="1.379"/></g><path d="M344.715 47.165h-9.656a7.27 7.27 0 0 0-2.472 5.465c0 2.178.96 4.127 2.474 5.467h9.654a7.26 7.26 0 0 0 2.479-5.467 7.28 7.28 0 0 0-2.479-5.465zm-5.123 9.66c-2.484 0-4.5-2.02-4.5-4.5 0-2.484 2.016-4.5 4.5-4.5s4.5 2.017 4.5 4.5a4.5 4.5 0 0 1-4.5 4.5z" class="E"/><circle opacity=".8" cx="338.081" cy="50.562" r="1.17" class="B"/><path d="M103.38 40.517h3.833v7.348h-3.833z" class="L"/><path d="M103.38 45.265s.467.645.426.867.148.54 0 .676l-.424-.018v-1.525z" class="d e"/><path d="M104.844 43.693h.96v.854h-.96z" class="B"/><path d="M104.82 43.693h.05v.854h-.05z" class="Q"/><g class="P"><path d="M103.803 45.845l-.104.963h.73l-.104-.963z"/><use xlink:href="#K" x="18.719"/><path d="M106.69 42.425l.103-.966h-.73l.103.966z"/><use xlink:href="#L" x="18.72"/><path d="M105.154 44.548s.002-.356-.31-.383v.383h.31z"/><use xlink:href="#M" x="18.719"/></g><g class="f"><use xlink:href="#N" x="18.719"/><path d="M106.112 42.425l-.103-.966h.055l.103.966z"/><path d="M105.16 44.02c.3-.062 1.212-1.07 1.15-1.885h.06c.06.877-.86 1.826-1.152 1.887l-.057-.002zm-.373.145v.38h.057v-.38h-.057z"/><use xlink:href="#O" x="18.718"/></g><path d="M107.16 41.995h.05v4.224h-.05z" class="B H"/><path d="M107.212 41.476h-3.83v5.317l3.83.004v-5.32z" class="H L"/><use xlink:href="#P" x="18.72" class="B g"/><path d="M103.6 46.654c-.068 0-.138.013-.138-.098V41.74c0-.168.065-.176.065.01l.002 3.59c.001.594.07 1.317.07 1.317z" class="h"/><use xlink:href="#Q" x="18.72" class="P"/><path d="M107.16 40.468h.052v1.006h-.052z" class="B H"/><path d="M103.38 47.865h3.833v-1.072h-3.464c-.056.104-.146.2-.27.2h-.1v.83" class="P"/><path d="M107.16 46.792h.052v1.07h-.052z" class="B H"/><g transform="matrix(-.707107 .707107 -.707107 -.707107 408.9656 118.7438)"><path d="M54.844 15.195v-28.048l-2.984-2.983H23.813l-2.984 2.983v28.05l2.983 2.983H51.86z"/><path d="M52.62 13.55c-.001 1.327-1.08 2.41-2.41 2.41H25.46c-1.326 0-2.41-1.083-2.408-2.412l.001-24.752a2.41 2.41 0 0 1 2.409-2.409l24.75-.001c1.326 0 2.406 1.083 2.406 2.4V13.55z" class="M"/><circle cx="27.357" cy="-9.307" r="2.562"/><circle cx="48.387" cy="-9.26" r="2.56"/><circle cx="48.341" cy="11.767" r="2.562"/><circle cx="27.313" cy="11.72" r="2.562"/><circle cx="37.834" cy="1.172" r="8.624" class="i"/><circle cx="37.834" cy="1.172" r="8.624" class="j"/><circle cx="37.985" cy="2.197" r="7.588" class="R"/><circle cx="37.846" cy="1.224" r="7.394" class="b"/><g class="B"><path d="M27.027-9.44c.05-.12.144-.213.274-.233l-.253-1.617c-.095.015-.2.004-.293.033l-.002-.008c-.6.182-1.043.628-1.276 1.197l1.55.628zm21.028.045c.05-.124.14-.217.273-.238l-.25-1.614c-.102.02-.2.003-.298.032l-.003-.01a2.01 2.01 0 0 0-1.268 1.196l1.545.633zM48 11.632c.05-.124.14-.217.274-.238l-.252-1.614c-.098.018-.198.003-.293.033l-.006-.013c-.595.184-1.042.63-1.268 1.2l1.545.633zm-21.03-.046c.05-.123.144-.212.278-.236l-.253-1.615c-.098.023-.2.006-.296.033l-.003-.008c-.598.18-1.04.626-1.27 1.197l1.545.63z" class="H"/><path d="M40.494-5.67c-.574-.222-1.177-.383-1.813-.457-1.6-.175-3.108.176-4.408.896l-.16.42c1.45-.775 3.14-1.135 4.897-.936a8.15 8.15 0 0 1 1.566.344l-.083-.268z" class="R"/></g></g><g transform="matrix(-.707107 -.707107 .707107 -.707107 354.9568 111.6606)"><path d="M18.18 10.2v-28.047l-2.984-2.982H-12.85l-2.984 2.984v28.046l2.982 2.984 28.05.001z"/><path d="M15.955 8.555a2.42 2.42 0 0 1-2.41 2.413l-24.747-.001c-1.327-.001-2.41-1.083-2.41-2.41l-.001-24.753c.001-1.326 1.083-2.41 2.41-2.41l24.752-.001c1.327.001 2.407 1.084 2.407 2.4l-.001 24.752z" class="M"/><circle cx="-9.307" cy="-14.298" r="2.562"/><circle cx="11.721" cy="-14.253" r="2.561"/><circle cx="11.677" cy="6.775" r="2.562"/><circle cx="-9.353" cy="6.725" r="2.562"/><circle cx="1.17" cy="-3.82" r="8.623" class="i"/><circle cx="1.17" cy="-3.82" r="8.623" class="j"/><circle cx="1.32" cy="-2.796" r="7.588" class="R"/><circle cx="1.181" cy="-3.769" r="7.395" class="b"/><g class="B"><path d="M-9.638-14.432a.36.36 0 0 1 .276-.234l-.254-1.616c-.097.017-.2.003-.293.035l-.003-.008c-.597.183-1.043.63-1.275 1.197l1.55.626zm21.028.045c.05-.125.142-.217.274-.238l-.25-1.613c-.102.017-.2.003-.298.03l-.004-.01c-.6.184-1.04.63-1.268 1.2l1.545.633zM11.345 6.64c.05-.126.14-.218.275-.24l-.252-1.6c-.098.018-.2.003-.295.032l-.003-.015c-.595.183-1.042.63-1.27 1.2l1.545.635zm-21.03-.045c.05-.123.144-.213.276-.236l-.255-1.615c-.096.023-.197.004-.294.032l-.003-.008c-.597.18-1.042.628-1.272 1.197l1.548.63z" class="H"/><path d="M3.826-10.66a7.29 7.29 0 0 0-1.812-.458c-1.6-.175-3.11.175-4.407.896l-.162.42a8.35 8.35 0 0 1 4.899-.938c.542.063 1.068.184 1.565.343l-.083-.264z" class="R"/></g></g><g transform="matrix(.707107 -.707107 .707107 .707107 361.69412 57.5938)"><path d="M13.187 46.87V18.82l-2.985-2.984-28.046.001-2.985 2.983v28.047l2.985 2.984 28.047.001z"/><path d="M10.963 45.222c-.001 1.328-1.08 2.413-2.41 2.41h-24.747c-1.326-.001-2.41-1.083-2.41-2.412V20.468c.001-1.327 1.083-2.41 2.4-2.4l24.75.002a2.41 2.41 0 0 1 2.406 2.407l.001 24.755z" class="M"/><circle cx="-14.3" cy="22.367" r="2.562"/><circle cx="6.73" cy="22.413" r="2.561"/><circle cx="6.684" cy="43.44" r="2.562"/><circle cx="-14.345" cy="43.392" r="2.562"/><circle cx="-3.823" cy="32.845" r="8.624" class="i"/><circle cx="-3.823" cy="32.845" r="8.624" class="j"/><circle cx="-3.672" cy="33.869" r="7.588" class="R"/><circle cx="-3.811" cy="32.896" r="7.395" class="b"/><g class="B"><path d="M-14.632 22.232c.052-.117.144-.213.277-.234l-.254-1.616c-.097.017-.2.003-.295.034l-.001-.008c-.6.183-1.043.63-1.275 1.197l1.548.627zm21.028.046c.048-.124.142-.215.275-.238l-.25-1.613c-.102.018-.2.003-.3.03l-.003-.01c-.6.184-1.04.628-1.268 1.197l1.544.633zm-.043 21.027c.05-.124.14-.217.275-.238l-.25-1.613c-.098.018-.2.003-.294.034l-.005-.014c-.596.184-1.043.628-1.27 1.2l1.544.63zm-21.03-.045a.36.36 0 0 1 .278-.235l-.256-1.615c-.097.022-.198.004-.293.032l-.002-.008c-.598.18-1.043.628-1.273 1.197l1.546.63z" class="H"/><path d="M-1.166 26.003a7.24 7.24 0 0 0-1.813-.456c-1.59-.176-3.107.175-4.407.895l-.16.42c1.45-.775 3.14-1.135 4.898-.937a8.12 8.12 0 0 1 1.567.345l-.084-.268z" class="R"/></g></g><g transform="matrix(-.707107 -.707107 .707107 -.707107 416.6388 111.7456)"><path d="M18.18 10.2v-28.046l-2.985-2.985h-28.047l-2.983 2.984v28.047l2.983 2.984h28.047z"/><path d="M15.955 8.555c-.001 1.327-1.08 2.41-2.41 2.41l-24.748-.001c-1.324.001-2.408-1.083-2.41-2.41l.001-24.753c0-1.326 1.083-2.408 2.41-2.408h24.75c1.327-.001 2.406 1.082 2.407 2.408V8.555z" class="M"/><circle cx="-9.307" cy="-14.3" r="2.562"/><circle cx="11.722" cy="-14.252" r="2.562"/><circle cx="11.676" cy="6.774" r="2.562"/><circle cx="-9.352" cy="6.727" r="2.562"/><circle cx="1.169" cy="-3.821" r="8.624" class="i"/><circle cx="1.169" cy="-3.821" r="8.624" class="j"/><circle cx="1.321" cy="-2.796" r="7.588" class="R"/><circle cx="1.182" cy="-3.769" r="7.395" class="b"/><g class="B"><path d="M-9.64-14.433c.052-.12.144-.213.276-.235l-.253-1.616c-.097.017-.2.003-.295.035v-.007c-.6.182-1.043.628-1.273 1.196l1.545.627zm21.03.045c.05-.122.142-.217.275-.238l-.25-1.615c-.1.02-.2.003-.297.032l-.004-.01a2.02 2.02 0 0 0-1.27 1.197l1.544.634zM11.345 6.64c.052-.126.14-.22.276-.24l-.252-1.612c-.098.018-.198.006-.293.035l-.006-.016c-.597.184-1.045.63-1.27 1.2l1.544.633zm-21.03-.045c.05-.123.144-.213.278-.236l-.252-1.614c-.1.02-.2.003-.296.032l-.003-.008c-.597.18-1.04.626-1.27 1.197l1.544.63z" class="H"/><path d="M3.828-10.66a7.24 7.24 0 0 0-1.813-.457c-1.588-.177-3.108.175-4.407.894l-.162.422c1.452-.775 3.14-1.136 4.9-.938.54.063 1.068.184 1.567.345l-.084-.266z" class="R"/></g></g><g transform="matrix(-1 0 0 -1 109.09744 139.982496)"><g class="c"><circle cx="-16.95" cy="87.089" r="16.725"/><use xlink:href="#S" opacity=".8"/></g><circle fill="#333" cx="-16.95" cy="86.958" r="16.725"/><path d="M-.228 87.233c0-9.237-7.486-16.726-16.724-16.726a16.73 16.73 0 0 0-16.725 16.726v-.276c0-9.235 7.487-16.724 16.726-16.724A16.73 16.73 0 0 1-.226 86.958v.275h-.002z" class="B E"/><circle cx="-16.951" cy="86.958" r="1.809" class="c"/><use xlink:href="#S" opacity=".8"/><path d="M-18.76 87.074a1.81 1.81 0 1 0 3.62 0v-.118c0 1-.81 1.812-1.8 1.812s-1.8-.813-1.8-1.812v.118z" class="B E"/><path opacity=".8" d="M-33.675 87.22a16.73 16.73 0 0 0 16.725 16.726A16.73 16.73 0 0 0-.223 87.221v-.266a16.73 16.73 0 0 1-16.727 16.726 16.73 16.73 0 0 1-16.725-16.726"/></g><g transform="matrix(-1 0 0 -1 62.336 30.144)"><g fill="#6d6d6d"><path d="M1.07-18.227l2.093 2.098h8.812l2.093-2.098v-8.8l-2.093-2.092H3.164L1.07-27.037z"/><path d="M3.164-30.18h8.812v15.103H3.164z"/><path d="M.018-27.037h15.104v8.81H.018z"/></g><path fill="#7f7f7f" d="M1.703-18.654l1.89 1.89h7.955l1.892-1.89v-7.955l-1.892-1.89H3.592l-1.89 1.89z"/><g stroke-width=".218" class="C p"><path d="M3.8-28.192L2-26.4v7.54l1.79 1.79h7.538" class="E N"/><path stroke="#606060" d="M11.34-17.07l1.792-1.79v-7.54l-1.792-1.792H3.802" class="E"/></g><path fill="#bca16a" d="M7.57-19.195a3.44 3.44 0 0 1-3.435-3.436 3.44 3.44 0 0 1 3.435-3.436 3.44 3.44 0 0 1 3.435 3.436c-.004 1.894-1.544 3.436-3.435 3.436z"/><path fill="#606060" d="M7.57-25.832c1.77 0 3.204 1.436 3.204 3.204S9.34-19.424 7.57-19.424s-3.204-1.436-3.204-3.204a3.2 3.2 0 0 1 3.204-3.204m0-.46a3.67 3.67 0 0 0-3.665 3.664 3.67 3.67 0 0 0 3.665 3.666c2.02 0 3.665-1.646 3.665-3.666S9.59-26.293 7.57-26.293z"/><g fill="#bca16a" stroke-width=".489" class="p"><path d="M9.59-20.61a2.86 2.86 0 0 1-4.044-4.044" class="E N"/><path stroke="#606060" d="M5.547-24.654a2.86 2.86 0 0 1 4.044 4.044" class="E"/></g></g><path d="M94.02 40.517h3.833v7.348H94.02z" class="L"/><path d="M94.02 45.266s.467.645.426.867.148.54 0 .676l-.424-.018-.002-1.525z" class="d e"/><path d="M95.485 43.693h.96v.854h-.96z" class="B"/><path d="M95.46 43.693h.05v.854h-.05z" class="Q"/><g class="P"><path d="M94.444 45.846l-.104.962h.73l-.104-.962z"/><path d="M94.643 45.906c.035-.274.104-.455.162-.606.08-.2.782-.56.696-.828-.012-.027.01-.06.043-.066s.068.01.078.04c.095.306-.617.674-.7.894a2.1 2.1 0 0 0-.155.571c-.004.03-.033.056-.068.05s-.055-.027-.055-.054zm2.69-3.48l.103-.966h-.73l.103.966z"/><path d="M95.81 44.08c0-.024.02-.05.047-.055C96.15 43.96 97 42.936 97 42.14c0-.033.026-.057.063-.057s.063.024.063.057h0c0 .75-.77 1.89-1.245 1.993-.035.008-.068-.012-.078-.04z"/><path d="M95.795 44.55s.002-.356-.31-.383v.383h.31z"/><use xlink:href="#M" x="9.36"/></g><g class="f"><use xlink:href="#N" x="9.36" y="0.001"/><path d="M96.753 42.426l-.103-.966h.055l.103.966z"/><path d="M95.8 44.02c.3-.062 1.212-1.07 1.15-1.885H97c.06.877-.86 1.826-1.152 1.887l-.057-.002zm-.372.146v.38h.057v-.38h-.057z"/><use xlink:href="#O" x="9.36" y="0.001"/></g><path d="M97.802 41.995h.05v4.224h-.05z" class="B H"/><path d="M97.853 41.476h-3.83v5.317l3.83.004v-5.32z" class="H L"/><use xlink:href="#P" x="9.36" class="B g"/><path d="M94.242 46.654c-.068 0-.138.013-.138-.098V41.74c0-.168.065-.176.065.01v3.59a16.56 16.56 0 0 0 .071 1.317z" class="h"/><use xlink:href="#Q" x="9.36" class="P"/><path d="M97.802 40.47h.052v1.006h-.052z" class="B H"/><path d="M94.02 47.865h3.833v-1.07H94.39c-.056.104-.146.2-.27.2h-.1v.83" class="P"/><path d="M97.802 46.793h.052v1.07h-.052z" class="B H"/><g transform="matrix(-1 0 0 -1 21.7835 298.816508)"><circle fill="#c1c1c1" cx="-124.784" cy="119.532" r="13.748"/><path fill="#212121" d="M-124.784,132.015c-6.883,0-12.48-5.6-12.48-12.479s5.6-12.479,12.48-12.479s12.479,5.6,12.479,12.479S-117.902,132.015-124.784,132.015z"/><path fill="#3a3a3a" d="M-124.784 107.202c6.81 0 12.33 5.52 12.33 12.33s-5.52 12.332-12.33 12.332-12.33-5.52-12.33-12.332 5.52-12.33 12.33-12.33m0-.3a12.65 12.65 0 0 0-12.631 12.632c0 6.965 5.666 12.63 12.63 12.63s12.63-5.666 12.63-12.63a12.65 12.65 0 0 0-12.631-12.632z"/><g fill="#595959"><path d="M-130.697 130.32c-.015 0-.03.005-.046.007l.775.383c-.156-.235-.426-.4-.73-.4zm2.65 0c-.464 0-.84.36-.873.814.535.188 1.082.357 1.648.477a.89.89 0 0 0 .105-.41.88.88 0 0 0-.88-.882zm3.53.882c0-.484-.394-.882-.88-.882a.88.88 0 0 0-.88.882.9.9 0 0 0 .236.6 12.68 12.68 0 0 0 1.224.063.89.89 0 0 0 .301-.663zm-6.62-2.642a.88.88 0 1 0-1.709.287l.73.584c.032.002.063.01.097.01a.88.88 0 0 0 .881-.881z"/><circle cx="-129.368" cy="128.561" r=".881"/><circle cx="-126.72" cy="128.561" r=".881"/><path d="M-135.794 125.063c.192.385.403.758.635 1.117.025-.084.044-.172.044-.264a.88.88 0 0 0-.679-.853z"/><circle cx="-133.347" cy="125.918" r=".88"/><circle cx="-130.696" cy="125.919" r=".881"/><circle cx="-128.048" cy="125.919" r=".881"/><circle cx="-125.397" cy="125.919" r=".881"/><path d="M-122.85 130.32a.88.88 0 0 0-.88.882c0 .23.1.438.233.594.496-.053.98-.144 1.457-.25.045-.104.07-.22.07-.344a.88.88 0 0 0-.879-.882zm2.65 0a.88.88 0 0 0-.88.882c0 .03.006.06.01.1.54-.17 1.06-.388 1.563-.627a.86.86 0 0 0-.69-.345z"/><circle cx="-124.171" cy="128.561" r=".881"/><circle cx="-121.522" cy="128.56" r=".88"/><circle cx="-118.872" cy="128.561" r=".881"/><path d="M-117.103 128.56a.89.89 0 0 0 .15.494c.447-.367.856-.775 1.248-1.2a.88.88 0 0 0-1.398.707z"/><circle cx="-122.851" cy="125.918" r=".88"/><circle cx="-120.2" cy="125.918" r=".88"/><circle cx="-117.553" cy="125.918" r=".88"/><path d="M-114.9 125.038a.88.88 0 0 0-.881.881c0 .483.395.88.88.88.023 0 .046-.006.07-.008a13.34 13.34 0 0 0 .757-1.164c-.12-.344-.443-.6-.827-.6zm-21.802-2.393l.242.828c.015-.063.023-.13.023-.197a.89.89 0 0 0-.265-.63z"/><circle cx="-134.667" cy="123.274" r=".88"/><circle cx="-132.019" cy="123.275" r=".881"/><circle cx="-129.368" cy="123.275" r=".881"/><circle cx="-126.72" cy="123.275" r=".881"/><circle cx="-135.995" cy="120.635" r=".88"/><circle cx="-133.347" cy="120.635" r=".88"/><circle cx="-130.697" cy="120.635" r=".88"/><circle cx="-128.048" cy="120.634" r=".881"/><circle cx="-125.397" cy="120.634" r=".881"/><path d="M-136.437 118c0-.33-.186-.614-.455-.766a12.34 12.34 0 0 0-.188 1.609c.37-.1.643-.438.643-.843z"/><circle cx="-134.667" cy="117.992" r=".88"/><circle cx="-132.019" cy="117.992" r=".882"/><circle cx="-129.368" cy="117.992" r=".882"/><circle cx="-126.72" cy="117.992" r=".88"/><path d="M-135.115 115.35a.88.88 0 0 0-.882-.881c-.008 0-.016.002-.022.004a12.01 12.01 0 0 0-.573 1.521c.157.146.366.237.598.237a.88.88 0 0 0 .879-.881z"/><circle cx="-133.347" cy="115.349" r=".881"/><circle cx="-130.697" cy="115.349" r=".881"/><circle cx="-128.048" cy="115.349" r=".881"/><circle cx="-125.398" cy="115.349" r=".881"/><circle cx="-122.851" cy="120.635" r=".88"/><circle cx="-120.2" cy="120.635" r=".88"/><circle cx="-117.553" cy="120.635" r=".88"/><circle cx="-114.901" cy="120.635" r=".88"/><path d="M-113.132 120.636c0 .354.21.66.518.8.083-.54.137-1.092.146-1.65-.38.092-.664.438-.664.85z"/><circle cx="-124.171" cy="117.992" r=".88"/><circle cx="-121.522" cy="117.992" r=".88"/><circle cx="-118.872" cy="117.992" r=".88"/><circle cx="-116.222" cy="117.992" r=".88"/><circle cx="-113.573" cy="117.992" r=".882"/><circle cx="-122.851" cy="115.349" r=".881"/><circle cx="-120.2" cy="115.349" r=".881"/><circle cx="-117.553" cy="115.35" r=".88"/><circle cx="-114.902" cy="115.35" r=".88"/><path d="M-134.667 113.59a.88.88 0 0 0 .237-1.726 12.71 12.71 0 0 0-.94 1.369c.16.215.414.357.703.357z"/><circle cx="-132.019" cy="112.707" r=".882"/><circle cx="-129.368" cy="112.707" r=".882"/><circle cx="-126.72" cy="112.707" r=".88"/><path d="M-132.466 110.064c0-.055-.007-.104-.017-.155-.388.313-.758.645-1.106 1a.92.92 0 0 0 .242.036.88.88 0 0 0 .881-.881z"/><circle cx="-130.697" cy="110.065" r=".88"/><circle cx="-128.048" cy="110.065" r=".88"/><circle cx="-125.398" cy="110.065" r=".88"/><path d="M-128.577 107.802l-1.135.432a.87.87 0 0 0 .344.07c.35.002.647-.205.8-.502zm1.857.504a.88.88 0 0 0 .88-.883c0-.058-.006-.1-.017-.166a12.59 12.59 0 0 0-1.731.277c.055.434.42.772.867.772z"/><circle cx="-124.171" cy="112.707" r=".88"/><circle cx="-121.522" cy="112.707" r=".88"/><circle cx="-118.872" cy="112.707" r=".882"/><circle cx="-116.222" cy="112.707" r=".882"/><path d="M-114.083 113.423l-.357-.588c.034.242.166.453.357.588z"/><circle cx="-122.851" cy="110.065" r=".88"/><circle cx="-120.2" cy="110.065" r=".88"/><path d="M-118.43 110.064a.88.88 0 0 0 1.741.183 12.32 12.32 0 0 0-1.25-.97.88.88 0 0 0-.49.787zm-5.74-1.758a.88.88 0 0 0 .879-.883c0-.04-.006-.082-.013-.123a12.06 12.06 0 0 0-1.48-.096l-.24.012a.78.78 0 0 0-.027.207.88.88 0 0 0 .88.883zm2.65 0c.316 0 .592-.17.747-.422-.528-.184-1.07-.336-1.628-.445.01.478.4.867.88.867z"/><circle cx="-124.171" cy="123.275" r=".881"/><circle cx="-121.521" cy="123.275" r=".881"/><circle cx="-118.872" cy="123.275" r=".881"/><circle cx="-116.222" cy="123.275" r=".881"/><path d="M-113.573 122.395c-.486 0-.88.396-.88.88s.395.88.88.88a.98.98 0 0 0 .229-.032c.182-.45.33-.916.46-1.396-.163-.202-.41-.334-.688-.334z"/></g><circle cx="-124.784" cy="119.533" stroke="#fdfffd" r="13.442" stroke-width=".5" class="C"/></g><defs ><path id="B" d="M267.564 152.433h1.438v.358h-1.438z"/><path id="C" d="M257.448 33.633h3.6v8.28h-3.6v-8.28m0 4.14a1.8 1.8 0 1 0 3.6 0 1.8 1.8 0 1 0-3.6 0z"/><path id="D" d="M304.12 76.316h8.176v3.555h-8.176v-3.555m2.31 1.778a1.78 1.78 0 0 0 1.777 1.776c.982 0 1.777-.796 1.777-1.776s-.795-1.777-1.777-1.777-1.777.794-1.777 1.777z"/><path id="E" d="M304.12 83.516h8.176v3.556h-8.176v-3.556m2.31 1.777a1.78 1.78 0 0 0 1.777 1.778c.982 0 1.777-.796 1.777-1.778s-.795-1.776-1.777-1.776-1.777.795-1.777 1.776z"/><path id="F" d="M304.12 133.915h8.176v3.556h-8.176v-3.556m2.31 1.777a1.78 1.78 0 0 0 1.777 1.777c.982 0 1.777-.796 1.777-1.777a1.78 1.78 0 0 0-1.777-1.777 1.78 1.78 0 0 0-1.777 1.777z"/><path id="G" d="M264.648 33.633h3.6v8.28h-3.6v-8.28m0 4.14a1.8 1.8 0 0 0 3.6 0 1.8 1.8 0 0 0-3.6 0z"/><path id="H" d="M-11.4-.001h-13.157a1.39 1.39 0 0 0-1.385 1.384v15.58a1.39 1.39 0 0 0 1.385 1.387H-11.4l3.8-3.812V3.808l-3.8-3.81z"/><path id="I" d="M302.97 4.458l.393-1.52h1.068l.39 1.52v-.145l-.39-1.52h-1.068l-.393 1.52"/><path id="J" d="M295.77 4.458l.39-1.52h1.07l.4 1.52v-.145l-.4-1.52h-1.07l-.39 1.52"/><path id="K" d="M85.283 45.906c.035-.274.104-.455.162-.606.08-.21.782-.56.696-.828-.012-.027.01-.06.043-.066s.068.01.078.04c.095.306-.617.674-.7.894a2.1 2.1 0 0 0-.155.571c-.004.03-.033.056-.068.05-.03-.004-.055-.027-.055-.054z"/><path id="L" d="M86.45 44.078c0-.024.02-.05.047-.055.292-.063 1.152-1.088 1.152-1.885 0-.033.026-.057.063-.057s.063.024.063.057v.002c0 .75-.77 1.89-1.245 1.993-.035.008-.068-.013-.078-.04z"/><path id="M" d="M86.754 44.113s-.306.158-.35.054-.052-.18.028-.24.323.186.323.186z"/><path id="N" d="M86.086 44.472c.084.27-.618.62-.698.828a2.24 2.24 0 0 0-.162.598h.06c.035-.266.104-.447.162-.598.08-.21.782-.56.696-.828h-.057z"/><path id="O" d="M86.38 43.925c-.08.063-.076.13-.03.237l.06.003c-.05-.107-.052-.18.028-.24h-.057z"/><path id="P" d="M87.84 41.527h.27c.15.02.27-.012.27.1v4.854c0 .168-.065.176-.065-.012V42.12c0-.456-.105-.518-.197-.518l-.272.002c-.182-.001-.182-.078-.008-.078z"/><path id="Q" d="M84.66 40.518v.77h.52c.125 0 .213.08.268.188h3.047v-1h-3.834"/><path id="R" d="M175.528 30.96a3.01 3.01 0 0 1-2.998 2.998h-8.234a3.01 3.01 0 0 1-2.999-2.998V3a3.01 3.01 0 0 1 2.999-3h8.234a3.01 3.01 0 0 1 2.998 3v27.96z"/><path id="S" d="M-33.675 87.088a16.73 16.73 0 0 0 16.725 16.726c9.237 0 16.727-7.485 16.727-16.726v-.264c0 9.233-7.488 16.726-16.727 16.726a16.73 16.73 0 0 1-16.725-16.726"/></defs></svg>