<?xml version="1.0" encoding="UTF-8" standalone="no"?>
<!-- Generator: Adobe Illustrator 20.0.0, SVG Export Plug-In . SVG Version: 6.00 Build 0)  -->

<svg
   xmlns:dc="http://purl.org/dc/elements/1.1/"
   xmlns:cc="http://creativecommons.org/ns#"
   xmlns:rdf="http://www.w3.org/1999/02/22-rdf-syntax-ns#"
   xmlns:svg="http://www.w3.org/2000/svg"
   xmlns="http://www.w3.org/2000/svg"
   xmlns:sodipodi="http://sodipodi.sourceforge.net/DTD/sodipodi-0.dtd"
   xmlns:inkscape="http://www.inkscape.org/namespaces/inkscape"
   version="1.2"
   id="Ebene_1"
   inkscape:version="0.91 r13725"
   sodipodi:docname="arduinor3.svg"
   x="0px"
   y="0px"
   width="194.4px"
   height="151.2px"
   viewBox="0 0 194.4 151.2"
   xml:space="preserve"><metadata
     id="metadata220"><rdf:RDF><cc:Work
         rdf:about=""><dc:format>image/svg+xml</dc:format><dc:type
           rdf:resource="http://purl.org/dc/dcmitype/StillImage" /></cc:Work></rdf:RDF></metadata><defs
     id="defs218"><sodipodi:namedview
       zoom="4.4169736"
       window-y="120"
       window-x="700"
       window-width="1135"
       window-maximized="0"
       units="in"
       showgrid="false"
       pageopacity="0"
       pagecolor="#ffffff"
       objecttolerance="10"
       inkscape:window-height="696"
       inkscape:pageshadow="2"
       inkscape:document-units="in"
       inkscape:cy="140.39292"
       inkscape:cx="163.80446"
       inkscape:current-layer="Ebene_1"
       id="namedview5"
       guidetolerance="10"
       gridtolerance="10"
       borderopacity="1"
       bordercolor="#666666" /></defs><sodipodi:namedview
     bordercolor="#666666"
     borderopacity="1"
     gridtolerance="10"
     guidetolerance="10"
     id="namedview303"
     inkscape:current-layer="Ebene_1"
     inkscape:cx="69.068554"
     inkscape:cy="69.196166"
     inkscape:document-units="in"
     inkscape:pageopacity="0"
     inkscape:pageshadow="2"
     inkscape:window-height="696"
     inkscape:window-maximized="0"
     inkscape:window-width="1135"
     inkscape:window-x="700"
     inkscape:window-y="120"
     inkscape:zoom="1.561636"
     objecttolerance="10"
     pagecolor="#ffffff"
     showgrid="false"
     units="in" /><g
     id="g8492"
     transform="translate(-1.6122031,1.3216954)"><g
       id="g5866_1_"
       transform="matrix(1.25017,0,0,1.25017,152.6,-127.494)"><rect
         id="rect21_1_"
         x="-20.131001"
         y="103.803"
         width="46.080002"
         height="5.7589998"
         style="fill:#404040" /><rect
         id="rect23_1_"
         x="-18.363001"
         y="105.57"
         width="2.2249999"
         height="2.2260001" /><polygon
         id="polygon25_1_"
         points="-19.183,104.75 -18.365,105.57 -16.138,105.57 -15.319,104.75 "
         style="fill:#2a2a29" /><polygon
         id="polygon27_1_"
         points="-15.319,104.75 -16.138,105.572 -16.138,107.797 -15.319,108.616 "
         style="fill:#474747" /><polygon
         id="polygon29_1_"
         points="-15.319,108.616 -16.139,107.797 -18.365,107.797 -19.183,108.616 "
         style="fill:#595959" /><polygon
         id="polygon31_1_"
         points="-19.185,108.616 -18.365,107.796 -18.365,105.57 -19.185,104.75 "
         style="fill:#373737" /><rect
         id="rect33_1_"
         x="-12.603"
         y="105.57"
         width="2.2249999"
         height="2.2260001" /><polygon
         id="polygon35_1_"
         points="-13.423,104.75 -12.605,105.57 -10.378,105.57 -9.559,104.75 "
         style="fill:#2a2a29" /><polygon
         id="polygon37_1_"
         points="-9.559,104.75 -10.378,105.572 -10.378,107.797 -9.559,108.616 "
         style="fill:#474747" /><polygon
         id="polygon39_1_"
         points="-9.559,108.616 -10.379,107.797 -12.605,107.797 -13.423,108.616 "
         style="fill:#595959" /><polygon
         id="polygon41_1_"
         points="-13.425,108.616 -12.605,107.796 -12.605,105.57 -13.425,104.75 "
         style="fill:#373737" /><rect
         id="rect43_1_"
         x="-6.8429999"
         y="105.57"
         width="2.2249999"
         height="2.2260001" /><polygon
         id="polygon45_1_"
         points="-7.663,104.75 -6.845,105.57 -4.618,105.57 -3.799,104.75 "
         style="fill:#2a2a29" /><polygon
         id="polygon47_1_"
         points="-3.799,104.75 -4.618,105.572 -4.618,107.797 -3.799,108.616 "
         style="fill:#474747" /><polygon
         id="polygon49_1_"
         points="-3.799,108.616 -4.619,107.797 -6.845,107.797 -7.663,108.616 "
         style="fill:#595959" /><polygon
         id="polygon51_1_"
         points="-7.665,108.616 -6.845,107.796 -6.845,105.57 -7.665,104.75 "
         style="fill:#373737" /><rect
         id="rect53_1_"
         x="-1.0829999"
         y="105.57"
         width="2.2249999"
         height="2.2260001" /><polygon
         id="polygon55_1_"
         points="-1.903,104.75 -1.085,105.57 1.142,105.57 1.961,104.75 "
         style="fill:#2a2a29" /><polygon
         id="polygon57_1_"
         points="1.961,104.75 1.142,105.572 1.142,107.797 1.961,108.616 "
         style="fill:#474747" /><polygon
         id="polygon59_1_"
         points="1.961,108.616 1.141,107.797 -1.085,107.797 -1.903,108.616 "
         style="fill:#595959" /><polygon
         id="polygon61_1_"
         points="-1.905,108.616 -1.085,107.796 -1.085,105.57 -1.905,104.75 "
         style="fill:#373737" /><rect
         id="rect63_1_"
         x="4.677"
         y="105.57"
         width="2.2249999"
         height="2.2260001" /><polygon
         id="polygon65_1_"
         points="3.857,104.75 4.675,105.57 6.902,105.57 7.721,104.75 "
         style="fill:#2a2a29" /><polygon
         id="polygon67_1_"
         points="7.721,104.75 6.902,105.572 6.902,107.797 7.721,108.616 "
         style="fill:#474747" /><polygon
         id="polygon69_1_"
         points="7.721,108.616 6.901,107.797 4.675,107.797 3.857,108.616 "
         style="fill:#595959" /><polygon
         id="polygon71_1_"
         points="3.855,108.616 4.675,107.796 4.675,105.57 3.855,104.75 "
         style="fill:#373737" /><rect
         id="rect73_1_"
         x="10.437"
         y="105.57"
         width="2.2249999"
         height="2.2260001" /><polygon
         id="polygon75_1_"
         points="9.617,104.75 10.435,105.57 12.662,105.57 13.481,104.75 "
         style="fill:#2a2a29" /><polygon
         id="polygon77_1_"
         points="13.481,104.75 12.662,105.572 12.662,107.797 13.481,108.616 "
         style="fill:#474747" /><polygon
         id="polygon79_1_"
         points="13.481,108.616 12.661,107.797 10.435,107.797 9.617,108.616 "
         style="fill:#595959" /><polygon
         id="polygon81_1_"
         points="9.615,108.616 10.435,107.796 10.435,105.57 9.615,104.75 "
         style="fill:#373737" /><rect
         id="rect83_1_"
         x="16.197001"
         y="105.57"
         width="2.2249999"
         height="2.2260001" /><polygon
         id="polygon85_1_"
         points="15.377,104.75 16.195,105.57 18.422,105.57 19.241,104.75 "
         style="fill:#2a2a29" /><polygon
         id="polygon87_1_"
         points="19.241,104.75 18.422,105.572 18.422,107.797 19.241,108.616 "
         style="fill:#474747" /><polygon
         id="polygon89_1_"
         points="19.241,108.616 18.421,107.797 16.195,107.797 15.377,108.616 "
         style="fill:#595959" /><polygon
         id="polygon91_1_"
         points="15.375,108.616 16.195,107.796 16.195,105.57 15.375,104.75 "
         style="fill:#373737" /><rect
         id="rect93_1_"
         x="21.955999"
         y="105.57"
         width="2.2249999"
         height="2.2260001" /><polygon
         id="polygon95_1_"
         points="21.136,104.75 21.955,105.57 24.182,105.57 25.001,104.75 "
         style="fill:#2a2a29" /><polygon
         id="polygon97_1_"
         points="25.001,104.75 24.182,105.572 24.182,107.797 25.001,108.616 "
         style="fill:#474747" /><polygon
         id="polygon99_1_"
         points="25.001,108.616 24.181,107.797 21.955,107.797 21.136,108.616 "
         style="fill:#595959" /><polygon
         id="polygon101_1_"
         points="21.135,108.616 21.955,107.796 21.955,105.57 21.135,104.75 "
         style="fill:#373737" /></g><g
       id="g5909_1_"
       transform="matrix(1.25017,0,0,1.25017,89.6001,43.5065)"><rect
         id="rect5911_1_"
         x="-10.053"
         y="76.446999"
         width="46.080002"
         height="5.7589998"
         style="fill:#404040" /><rect
         id="rect5913_1_"
         x="-8.2849998"
         y="78.213997"
         width="2.2249999"
         height="2.2260001" /><polygon
         id="polygon5915_1_"
         points="-5.24,77.394 -9.105,77.394 -8.286,78.214 -6.059,78.214 "
         style="fill:#2a2a29" /><polygon
         id="polygon5917_1_"
         points="-5.24,81.26 -5.24,77.394 -6.059,78.216 -6.059,80.441 "
         style="fill:#474747" /><polygon
         id="polygon5919_1_"
         points="-9.105,81.26 -5.24,81.26 -6.06,80.441 -8.286,80.441 "
         style="fill:#595959" /><polygon
         id="polygon5921_1_"
         points="-9.106,77.394 -9.106,81.26 -8.286,80.44 -8.286,78.214 "
         style="fill:#373737" /><rect
         id="rect5923_1_"
         x="-2.5250001"
         y="78.213997"
         width="2.2249999"
         height="2.2260001" /><polygon
         id="polygon5925_1_"
         points="0.52,77.394 -3.345,77.394 -2.526,78.214 -0.299,78.214 "
         style="fill:#2a2a29" /><polygon
         id="polygon5927_1_"
         points="0.52,81.26 0.52,77.394 -0.299,78.216 -0.299,80.441 "
         style="fill:#474747" /><polygon
         id="polygon5929_1_"
         points="-3.345,81.26 0.52,81.26 -0.3,80.441 -2.526,80.441 "
         style="fill:#595959" /><polygon
         id="polygon5931_1_"
         points="-3.346,77.394 -3.346,81.26 -2.526,80.44 -2.526,78.214 "
         style="fill:#373737" /><rect
         id="rect5933_1_"
         x="3.2349999"
         y="78.213997"
         width="2.2249999"
         height="2.2260001" /><polygon
         id="polygon5935_1_"
         points="6.28,77.394 2.415,77.394 3.234,78.214 5.461,78.214 "
         style="fill:#2a2a29" /><polygon
         id="polygon5937_1_"
         points="6.28,81.26 6.28,77.394 5.461,78.216 5.461,80.441 "
         style="fill:#474747" /><polygon
         id="polygon5939_1_"
         points="2.415,81.26 6.28,81.26 5.46,80.441 3.234,80.441 "
         style="fill:#595959" /><polygon
         id="polygon5941_1_"
         points="2.414,77.394 2.414,81.26 3.234,80.44 3.234,78.214 "
         style="fill:#373737" /><rect
         id="rect5943_1_"
         x="8.9949999"
         y="78.213997"
         width="2.2249999"
         height="2.2260001" /><polygon
         id="polygon5945_1_"
         points="12.04,77.394 8.175,77.394 8.994,78.214 11.221,78.214 "
         style="fill:#2a2a29" /><polygon
         id="polygon5947_1_"
         points="12.04,81.26 12.04,77.394 11.221,78.216 11.221,80.441 "
         style="fill:#474747" /><polygon
         id="polygon5949_1_"
         points="8.175,81.26 12.04,81.26 11.22,80.441 8.994,80.441 "
         style="fill:#595959" /><polygon
         id="polygon5951_1_"
         points="8.174,77.394 8.174,81.26 8.994,80.44 8.994,78.214 "
         style="fill:#373737" /><rect
         id="rect5953_1_"
         x="14.755"
         y="78.213997"
         width="2.2249999"
         height="2.2260001" /><polygon
         id="polygon5955_1_"
         points="17.8,77.394 13.935,77.394 14.754,78.214 16.981,78.214 "
         style="fill:#2a2a29" /><polygon
         id="polygon5957_1_"
         points="17.8,81.26 17.8,77.394 16.981,78.216 16.981,80.441 "
         style="fill:#474747" /><polygon
         id="polygon5959_1_"
         points="13.935,81.26 17.8,81.26 16.98,80.441 14.754,80.441 "
         style="fill:#595959" /><polygon
         id="polygon5961_1_"
         points="13.934,77.394 13.934,81.26 14.754,80.44 14.754,78.214 "
         style="fill:#373737" /><rect
         id="rect5963_1_"
         x="20.514999"
         y="78.213997"
         width="2.2249999"
         height="2.2260001" /><polygon
         id="polygon5965_1_"
         points="23.56,77.394 19.695,77.394 20.513,78.214 22.741,78.214 "
         style="fill:#2a2a29" /><polygon
         id="polygon5967_1_"
         points="23.56,81.26 23.56,77.394 22.741,78.216 22.741,80.441 "
         style="fill:#474747" /><polygon
         id="polygon5969_1_"
         points="19.695,81.26 23.56,81.26 22.74,80.441 20.513,80.441 "
         style="fill:#595959" /><polygon
         id="polygon5971_1_"
         points="19.693,77.394 19.693,81.26 20.513,80.44 20.513,78.214 "
         style="fill:#373737" /><rect
         id="rect5973_1_"
         x="26.275"
         y="78.213997"
         width="2.2249999"
         height="2.2260001" /><polygon
         id="polygon5975_1_"
         points="29.32,77.394 25.455,77.394 26.273,78.214 28.501,78.214 "
         style="fill:#2a2a29" /><polygon
         id="polygon5977_1_"
         points="29.32,81.26 29.32,77.394 28.501,78.216 28.501,80.441 "
         style="fill:#474747" /><polygon
         id="polygon5979_1_"
         points="25.455,81.26 29.32,81.26 28.5,80.441 26.273,80.441 "
         style="fill:#595959" /><polygon
         id="polygon5981_1_"
         points="25.453,77.394 25.453,81.26 26.273,80.44 26.273,78.214 "
         style="fill:#373737" /><rect
         id="rect5983_1_"
         x="32.035"
         y="78.213997"
         width="2.2249999"
         height="2.2260001" /><polygon
         id="polygon5985_1_"
         points="35.08,77.394 31.215,77.394 32.033,78.214 34.261,78.214 "
         style="fill:#2a2a29" /><polygon
         id="polygon5987_1_"
         points="35.08,81.26 35.08,77.394 34.261,78.216 34.261,80.441 "
         style="fill:#474747" /><polygon
         id="polygon5989_1_"
         points="31.215,81.26 35.08,81.26 34.26,80.441 32.033,80.441 "
         style="fill:#595959" /><polygon
         id="polygon5991_1_"
         points="31.213,77.394 31.213,81.26 32.033,80.44 32.033,78.214 "
         style="fill:#373737" /></g><g
       id="g6150_1_"
       transform="translate(136.15,45.4713)"><rect
         id="rect17_1_"
         x="5.6820002"
         y="93.608002"
         width="43.200001"
         height="7.1989999"
         style="fill:#404040" /><rect
         id="rect19_1_"
         x="7.8920002"
         y="95.817001"
         width="2.7809999"
         height="2.7820001" /><polygon
         id="polygon21_1_"
         points="11.698,94.792 6.867,94.792 7.89,95.817 10.674,95.817 "
         style="fill:#2a2a29" /><polygon
         id="polygon23_1_"
         points="11.698,99.624 11.698,94.792 10.674,95.82 10.674,98.601 "
         style="fill:#474747" /><polygon
         id="polygon25-5_1_"
         points="6.867,99.624 11.698,99.624 10.673,98.601 7.89,98.601 "
         style="fill:#595959" /><polygon
         id="polygon27-1_1_"
         points="6.865,94.792 6.865,99.624 7.89,98.599 7.89,95.817 "
         style="fill:#373737" /><rect
         id="rect29_1_"
         x="15.092"
         y="95.817001"
         width="2.7809999"
         height="2.7820001" /><polygon
         id="polygon31-9_1_"
         points="18.898,94.792 14.067,94.792 15.09,95.817 17.874,95.817 "
         style="fill:#2a2a29" /><polygon
         id="polygon33_1_"
         points="18.898,99.624 18.898,94.792 17.874,95.82 17.874,98.601 "
         style="fill:#474747" /><polygon
         id="polygon35-8_1_"
         points="14.067,99.624 18.898,99.624 17.873,98.601 15.09,98.601 "
         style="fill:#595959" /><polygon
         id="polygon37-5_1_"
         points="14.065,94.792 14.065,99.624 15.09,98.599 15.09,95.817 "
         style="fill:#373737" /><rect
         id="rect39_1_"
         x="22.292"
         y="95.817001"
         width="2.7809999"
         height="2.7820001" /><polygon
         id="polygon41-6_1_"
         points="26.098,94.792 21.267,94.792 22.29,95.817 25.074,95.817 "
         style="fill:#2a2a29" /><polygon
         id="polygon43_1_"
         points="26.098,99.624 26.098,94.792 25.074,95.82 25.074,98.601 "
         style="fill:#474747" /><polygon
         id="polygon45-1_1_"
         points="21.267,99.624 26.098,99.624 25.073,98.601 22.29,98.601 "
         style="fill:#595959" /><polygon
         id="polygon47-8_1_"
         points="21.265,94.792 21.265,99.624 22.29,98.599 22.29,95.817 "
         style="fill:#373737" /><rect
         id="rect49_1_"
         x="29.492001"
         y="95.817001"
         width="2.7809999"
         height="2.7820001" /><polygon
         id="polygon51-3_1_"
         points="33.298,94.792 28.467,94.792 29.49,95.817 32.274,95.817 "
         style="fill:#2a2a29" /><polygon
         id="polygon53_1_"
         points="33.298,99.624 33.298,94.792 32.274,95.82 32.274,98.601 "
         style="fill:#474747" /><polygon
         id="polygon55-7_1_"
         points="28.467,99.624 33.298,99.624 32.273,98.601 29.49,98.601 "
         style="fill:#595959" /><polygon
         id="polygon57-0_1_"
         points="28.465,94.792 28.465,99.624 29.49,98.599 29.49,95.817 "
         style="fill:#373737" /><rect
         id="rect59_1_"
         x="36.692001"
         y="95.817001"
         width="2.7809999"
         height="2.7820001" /><polygon
         id="polygon61-7_1_"
         points="40.498,94.792 35.667,94.792 36.69,95.817 39.474,95.817 "
         style="fill:#2a2a29" /><polygon
         id="polygon63_1_"
         points="40.498,99.624 40.498,94.792 39.474,95.82 39.474,98.601 "
         style="fill:#474747" /><polygon
         id="polygon65-3_1_"
         points="35.667,99.624 40.498,99.624 39.473,98.601 36.69,98.601 "
         style="fill:#595959" /><polygon
         id="polygon67-7_1_"
         points="35.665,94.792 35.665,99.624 36.69,98.599 36.69,95.817 "
         style="fill:#373737" /><rect
         id="rect69_1_"
         x="43.891998"
         y="95.817001"
         width="2.7809999"
         height="2.7820001" /><polygon
         id="polygon71-9_1_"
         points="47.698,94.792 42.867,94.792 43.89,95.817 46.674,95.817 "
         style="fill:#2a2a29" /><polygon
         id="polygon73_1_"
         points="47.698,99.624 47.698,94.792 46.674,95.82 46.674,98.601 "
         style="fill:#474747" /><polygon
         id="polygon75-6_1_"
         points="42.867,99.624 47.698,99.624 46.673,98.601 43.89,98.601 "
         style="fill:#595959" /><polygon
         id="polygon77-6_1_"
         points="42.865,94.792 42.865,99.624 43.89,98.599 43.89,95.817 "
         style="fill:#373737" /></g><g
       id="g7048_1_"
       transform="translate(-74.5488,72.3407)"><g
         id="g17227_1_"
         transform="translate(9,0)"><rect
           id="rect25_1_"
           x="116.661"
           y="-70.060997"
           width="72"
           height="7.1989999"
           style="fill:#404040" /><rect
           id="rect27_1_"
           x="118.871"
           y="-67.851997"
           width="2.7809999"
           height="2.7820001" /><polygon
           id="polygon29-6_1_"
           points="117.846,-68.877 118.869,-67.852 121.653,-67.852 122.677,-68.877 "
           style="fill:#2a2a29" /><polygon
           id="polygon31-1_1_"
           points="122.677,-68.877 121.653,-67.849 121.653,-65.068 122.677,-64.045 "
           style="fill:#474747" /><polygon
           id="polygon33-8_1_"
           points="122.677,-64.045 121.652,-65.068 118.869,-65.068 117.846,-64.045 "
           style="fill:#595959" /><polygon
           id="polygon35-5_1_"
           points="117.844,-64.045 118.869,-65.07 118.869,-67.852 117.844,-68.877 "
           style="fill:#373737" /><rect
           id="rect37_1_"
           x="126.071"
           y="-67.851997"
           width="2.7809999"
           height="2.7820001" /><polygon
           id="polygon39-7_1_"
           points="125.046,-68.877 126.069,-67.852 128.853,-67.852 129.877,-68.877 "
           style="fill:#2a2a29" /><polygon
           id="polygon41-8_1_"
           points="129.877,-68.877 128.853,-67.849 128.853,-65.068 129.877,-64.045 "
           style="fill:#474747" /><polygon
           id="polygon43-1_1_"
           points="129.877,-64.045 128.852,-65.068 126.069,-65.068 125.046,-64.045 "
           style="fill:#595959" /><polygon
           id="polygon45-6_1_"
           points="125.044,-64.045 126.069,-65.07 126.069,-67.852 125.044,-68.877 "
           style="fill:#373737" /><rect
           id="rect47_1_"
           x="133.271"
           y="-67.851997"
           width="2.7809999"
           height="2.7820001" /><polygon
           id="polygon49-0_1_"
           points="132.246,-68.877 133.269,-67.852 136.053,-67.852 137.077,-68.877 "
           style="fill:#2a2a29" /><polygon
           id="polygon51-0_1_"
           points="137.077,-68.877 136.053,-67.849 136.053,-65.068 137.077,-64.045 "
           style="fill:#474747" /><polygon
           id="polygon53-7_1_"
           points="137.077,-64.045 136.052,-65.068 133.269,-65.068 132.246,-64.045 "
           style="fill:#595959" /><polygon
           id="polygon55-0_1_"
           points="132.244,-64.045 133.269,-65.07 133.269,-67.852 132.244,-68.877 "
           style="fill:#373737" /><rect
           id="rect57_1_"
           x="140.47099"
           y="-67.851997"
           width="2.7809999"
           height="2.7820001" /><polygon
           id="polygon59-2_1_"
           points="139.446,-68.877 140.469,-67.852 143.253,-67.852 144.277,-68.877 "
           style="fill:#2a2a29" /><polygon
           id="polygon61-0_1_"
           points="144.277,-68.877 143.253,-67.849 143.253,-65.068 144.277,-64.045 "
           style="fill:#474747" /><polygon
           id="polygon63-6_1_"
           points="144.277,-64.045 143.252,-65.068 140.469,-65.068 139.446,-64.045 "
           style="fill:#595959" /><polygon
           id="polygon65-4_1_"
           points="139.444,-64.045 140.469,-65.07 140.469,-67.852 139.444,-68.877 "
           style="fill:#373737" /><rect
           id="rect67_1_"
           x="147.67101"
           y="-67.851997"
           width="2.7809999"
           height="2.7820001" /><polygon
           id="polygon69-1_1_"
           points="146.646,-68.877 147.669,-67.852 150.453,-67.852 151.477,-68.877 "
           style="fill:#2a2a29" /><polygon
           id="polygon71-7_1_"
           points="151.477,-68.877 150.453,-67.849 150.453,-65.068 151.477,-64.045 "
           style="fill:#474747" /><polygon
           id="polygon73-1_1_"
           points="151.477,-64.045 150.452,-65.068 147.669,-65.068 146.646,-64.045 "
           style="fill:#595959" /><polygon
           id="polygon75-7_1_"
           points="146.644,-64.045 147.669,-65.07 147.669,-67.852 146.644,-68.877 "
           style="fill:#373737" /><rect
           id="rect77_1_"
           x="154.871"
           y="-67.851997"
           width="2.7809999"
           height="2.7820001" /><polygon
           id="polygon79-6_1_"
           points="153.846,-68.877 154.869,-67.852 157.653,-67.852 158.677,-68.877 "
           style="fill:#2a2a29" /><polygon
           id="polygon81-8_1_"
           points="158.677,-68.877 157.653,-67.849 157.653,-65.068 158.677,-64.045 "
           style="fill:#474747" /><polygon
           id="polygon83_1_"
           points="158.677,-64.045 157.652,-65.068 154.869,-65.068 153.846,-64.045 "
           style="fill:#595959" /><polygon
           id="polygon85-8_1_"
           points="153.844,-64.045 154.869,-65.07 154.869,-67.852 153.844,-68.877 "
           style="fill:#373737" /><rect
           id="rect87_1_"
           x="162.071"
           y="-67.851997"
           width="2.7809999"
           height="2.7820001" /><polygon
           id="polygon89-4_1_"
           points="161.046,-68.877 162.069,-67.852 164.853,-67.852 165.877,-68.877 "
           style="fill:#2a2a29" /><polygon
           id="polygon91-2_1_"
           points="165.877,-68.877 164.853,-67.849 164.853,-65.068 165.877,-64.045 "
           style="fill:#474747" /><polygon
           id="polygon93_1_"
           points="165.877,-64.045 164.852,-65.068 162.069,-65.068 161.046,-64.045 "
           style="fill:#595959" /><polygon
           id="polygon95-7_1_"
           points="161.044,-64.045 162.069,-65.07 162.069,-67.852 161.044,-68.877 "
           style="fill:#373737" /><rect
           id="rect97_1_"
           x="169.271"
           y="-67.851997"
           width="2.7809999"
           height="2.7820001" /><polygon
           id="polygon99-8_1_"
           points="168.246,-68.877 169.269,-67.852 172.053,-67.852 173.077,-68.877 "
           style="fill:#2a2a29" /><polygon
           id="polygon101-5_1_"
           points="173.077,-68.877 172.053,-67.849 172.053,-65.068 173.077,-64.045 "
           style="fill:#474747" /><polygon
           id="polygon103_1_"
           points="173.077,-64.045 172.052,-65.068 169.269,-65.068 168.246,-64.045 "
           style="fill:#595959" /><polygon
           id="polygon105_1_"
           points="168.244,-64.045 169.269,-65.07 169.269,-67.852 168.244,-68.877 "
           style="fill:#373737" /><rect
           id="rect107_1_"
           x="176.47099"
           y="-67.851997"
           width="2.7809999"
           height="2.7820001" /><polygon
           id="polygon109_1_"
           points="175.446,-68.877 176.469,-67.852 179.253,-67.852 180.277,-68.877 "
           style="fill:#2a2a29" /><polygon
           id="polygon111_1_"
           points="180.277,-68.877 179.253,-67.849 179.253,-65.068 180.277,-64.045 "
           style="fill:#474747" /><polygon
           id="polygon113_1_"
           points="180.277,-64.045 179.252,-65.068 176.469,-65.068 175.446,-64.045 "
           style="fill:#595959" /><polygon
           id="polygon115_1_"
           points="175.444,-64.045 176.469,-65.07 176.469,-67.852 175.444,-68.877 "
           style="fill:#373737" /><rect
           id="rect117_1_"
           x="183.67101"
           y="-67.851997"
           width="2.7809999"
           height="2.7820001" /><polygon
           id="polygon119_1_"
           points="182.646,-68.877 183.669,-67.852 186.453,-67.852 187.477,-68.877 "
           style="fill:#2a2a29" /><polygon
           id="polygon121_1_"
           points="187.477,-68.877 186.453,-67.849 186.453,-65.068 187.477,-64.045 "
           style="fill:#474747" /><polygon
           id="polygon123_1_"
           points="187.477,-64.045 186.452,-65.068 183.669,-65.068 182.646,-64.045 "
           style="fill:#595959" /><polygon
           id="polygon125_1_"
           points="182.644,-64.045 183.669,-65.07 183.669,-67.852 182.644,-68.877 "
           style="fill:#373737" /></g></g></g></svg>