<svg xmlns="http://www.w3.org/2000/svg" xmlns:xlink="http://www.w3.org/1999/xlink" viewBox="0 0 2200 600" baseProfile="tiny" width="212" height="58"><style><![CDATA[.B{fill:#fff}.C{font-family:OCRA}.D{font-size:45px}.E{fill:#8d8c8c}.F{fill:#8c8663}.G{fill:#b8af82}.H{fill:#80795b}.I{fill:#5e5b43}.J{fill:#9a916c}.K{text-anchor:end}]]></style><path fill="#1f7a34" d="M0 0v270a30 30 0 0 1 0 60v270h2200V0H0z"/><g transform="matrix(.5 0 0 .5 1025.1971 225.1971)"><g fill="#8c8c8c"><path d="M0 45.276h31.496v11.8H0zM0 64.96h31.496v11.8H0zm0 19.686h31.496v11.8H0zm0 19.684h31.496v11.8H0zm0 19.686h31.496v11.8H0zM0 143.7h31.496v11.8H0zm0 19.686h31.496v11.8H0zm0 19.684h31.496v11.8H0zm0 19.686h31.496v11.8H0zm0 19.684h31.496v11.8H0zm0 19.686h31.496v11.8H0z"/><use xlink:href="#B"/><path d="M64.96 267.717h11.81v31.496H64.96z"/><use xlink:href="#B" x="39.37"/><use xlink:href="#B" x="59.054"/><use xlink:href="#B" x="78.74"/><path d="M143.7 267.717h11.81v31.496H143.7z"/><use xlink:href="#B" x="118.11"/><use xlink:href="#B" x="137.794"/><use xlink:href="#B" x="157.48"/><use xlink:href="#B" x="177.164"/><use xlink:href="#B" x="196.85"/><use xlink:href="#C"/><use xlink:href="#C" y="-19.686"/><use xlink:href="#C" y="-39.37"/><use xlink:href="#C" y="-59.056"/><use xlink:href="#C" y="-78.74"/><use xlink:href="#C" y="-98.426"/><use xlink:href="#C" y="-118.11"/><use xlink:href="#C" y="-137.796"/><use xlink:href="#C" y="-157.48"/><use xlink:href="#C" y="-177.166"/><use xlink:href="#C" y="-196.85"/><use xlink:href="#B" x="196.85" y="-267.717"/><use xlink:href="#B" x="177.164" y="-267.717"/><use xlink:href="#B" x="157.48" y="-267.717"/><use xlink:href="#B" x="137.794" y="-267.717"/><use xlink:href="#B" x="118.11" y="-267.717"/><path d="M143.7 0h11.81v31.496H143.7z"/><use xlink:href="#B" x="78.74" y="-267.717"/><use xlink:href="#B" x="59.054" y="-267.717"/><use xlink:href="#B" x="39.37" y="-267.717"/><path d="M64.96 0h11.81v31.496H64.96z"/><use xlink:href="#B" y="-267.717"/></g><path fill="#303030" d="M7.81 7.81h283.59v283.59H7.81z"/><path d="M7.8 7.8h283.6l-10 10H17.8zm0 283.592h283.6l-10-10H17.8z" fill="#1f1f1f"/><path d="M7.81 7.81v283.59l10-10V17.81z"/><path fill="#3d3d3d" d="M291.402 7.81v283.59l-10-10V17.81z"/><circle fill="#1f1f1f" r="10" cx="37.811" cy="261.402"/></g><text x="50" y="324.375" font-size="65" class="B C">QFN-44-NOPAD</text><text transform="matrix(0 -1 1 0 63.5 526.05)" x="0" y="0" class="B C D">1</text><text transform="matrix(0 -1 1 0 63.5 73.95)" x="0" y="0" class="B C D K">44</text><text transform="matrix(0 -1 1 0 163.5 526.05)" x="0" y="0" class="B C D">2</text><text transform="matrix(0 -1 1 0 163.5 73.95)" x="0" y="0" class="B C D K">43</text><text transform="matrix(0 -1 1 0 263.5 526.05)" x="0" y="0" class="B C D">3</text><text transform="matrix(0 -1 1 0 263.5 73.95)" x="0" y="0" class="B C D K">42</text><text transform="matrix(0 -1 1 0 363.5 526.05)" x="0" y="0" class="B C D">4</text><text transform="matrix(0 -1 1 0 363.5 73.95)" x="0" y="0" class="B C D K">41</text><text transform="matrix(0 -1 1 0 463.5 526.05)" x="0" y="0" class="B C D">5</text><text transform="matrix(0 -1 1 0 463.5 73.95)" x="0" y="0" class="B C D K">40</text><text transform="matrix(0 -1 1 0 563.5 526.05)" x="0" y="0" class="B C D">6</text><text transform="matrix(0 -1 1 0 563.5 73.95)" x="0" y="0" class="B C D K">39</text><text transform="matrix(0 -1 1 0 663.5 526.05)" x="0" y="0" class="B C D">7</text><text transform="matrix(0 -1 1 0 663.5 73.95)" x="0" y="0" class="B C D K">38</text><text transform="matrix(0 -1 1 0 763.5 526.05)" x="0" y="0" class="B C D">8</text><text transform="matrix(0 -1 1 0 763.5 73.95)" x="0" y="0" class="B C D K">37</text><text transform="matrix(0 -1 1 0 863.5 526.05)" x="0" y="0" class="B C D">9</text><text transform="matrix(0 -1 1 0 863.5 73.95)" x="0" y="0" class="B C D K">36</text><text transform="matrix(0 -1 1 0 963.5 526.05)" x="0" y="0" class="B C D">10</text><text transform="matrix(0 -1 1 0 963.5 73.95)" x="0" y="0" class="B C D K">35</text><text transform="matrix(0 -1 1 0 1063.5 526.05)" x="0" y="0" class="B C D">11</text><text transform="matrix(0 -1 1 0 1063.5 73.95)" x="0" y="0" class="B C D K">34</text><text transform="matrix(0 -1 1 0 1163.5 526.05)" x="0" y="0" class="B C D">12</text><text transform="matrix(0 -1 1 0 1163.5 73.95)" x="0" y="0" class="B C D K">33</text><text transform="matrix(0 -1 1 0 1263.5 526.05)" x="0" y="0" class="B C D">13</text><text transform="matrix(0 -1 1 0 1263.5 73.95)" x="0" y="0" class="B C D K">32</text><text transform="matrix(0 -1 1 0 1363.5 526.05)" x="0" y="0" class="B C D">14</text><text transform="matrix(0 -1 1 0 1363.5 73.95)" x="0" y="0" class="B C D K">31</text><text transform="matrix(0 -1 1 0 1463.5 526.05)" x="0" y="0" class="B C D">15</text><text transform="matrix(0 -1 1 0 1463.5 73.95)" x="0" y="0" class="B C D K">30</text><text transform="matrix(0 -1 1 0 1563.5 526.05)" x="0" y="0" class="B C D">16</text><text transform="matrix(0 -1 1 0 1563.5 73.95)" x="0" y="0" class="B C D K">29</text><text transform="matrix(0 -1 1 0 1663.5 526.05)" x="0" y="0" class="B C D">17</text><text transform="matrix(0 -1 1 0 1663.5 73.95)" x="0" y="0" class="B C D K">28</text><text transform="matrix(0 -1 1 0 1763.5 526.05)" x="0" y="0" class="B C D">18</text><text transform="matrix(0 -1 1 0 1763.5 73.95)" x="0" y="0" class="B C D K">27</text><text transform="matrix(0 -1 1 0 1863.5 526.05)" x="0" y="0" class="B C D">19</text><text transform="matrix(0 -1 1 0 1863.5 73.95)" x="0" y="0" class="B C D K">26</text><text transform="matrix(0 -1 1 0 1963.5 526.05)" x="0" y="0" class="B C D">20</text><text transform="matrix(0 -1 1 0 1963.5 73.95)" x="0" y="0" class="B C D K">25</text><text transform="matrix(0 -1 1 0 2063.5 526.05)" x="0" y="0" class="B C D">21</text><text transform="matrix(0 -1 1 0 2063.5 73.95)" x="0" y="0" class="B C D K">24</text><text transform="matrix(0 -1 1 0 2163.5 526.05)" x="0" y="0" class="B C D">22</text><text transform="matrix(0 -1 1 0 2163.5 73.95)" x="0" y="0" class="B C D K">23</text><use xlink:href="#D" class="E"/><path d="M41.827 541.785H58.27V558.2H41.827z" class="F"/><use xlink:href="#E" class="G"/><path d="M58.243 541.813H41.938l-7.903-7.763h31.93z" class="H"/><use xlink:href="#F" class="I"/><use xlink:href="#G" class="J"/><use xlink:href="#D" y="-500" class="E"/><path d="M41.827 41.785H58.27V58.2H41.827z" class="F"/><use xlink:href="#H" class="G"/><path d="M58.243 41.813H41.938l-7.903-7.763h31.93z" class="H"/><use xlink:href="#I" class="I"/><use xlink:href="#G" y="-500" class="J"/><use xlink:href="#D" x="100" class="E"/><use xlink:href="#J" class="F"/><use xlink:href="#E" x="100" class="G"/><use xlink:href="#K" class="H"/><use xlink:href="#F" x="100" class="I"/><use xlink:href="#G" x="100" class="J"/><use xlink:href="#D" x="100" y="-500" class="E"/><use xlink:href="#L" class="F"/><use xlink:href="#H" x="100" class="G"/><use xlink:href="#K" y="-500" class="H"/><use xlink:href="#I" x="100" class="I"/><use xlink:href="#G" x="100" y="-500" class="J"/><use xlink:href="#D" x="200" class="E"/><use xlink:href="#J" x="100" class="F"/><use xlink:href="#E" x="200" class="G"/><use xlink:href="#K" x="100" class="H"/><use xlink:href="#F" x="200" class="I"/><use xlink:href="#G" x="200" class="J"/><use xlink:href="#D" x="200" y="-500" class="E"/><use xlink:href="#L" x="100" class="F"/><use xlink:href="#H" x="200" class="G"/><use xlink:href="#K" x="100" y="-500" class="H"/><use xlink:href="#I" x="200" class="I"/><use xlink:href="#G" x="200" y="-500" class="J"/><use xlink:href="#D" x="300" class="E"/><use xlink:href="#J" x="200" class="F"/><use xlink:href="#E" x="300" class="G"/><use xlink:href="#K" x="200" class="H"/><use xlink:href="#F" x="300" class="I"/><use xlink:href="#G" x="300" class="J"/><use xlink:href="#D" x="300" y="-500" class="E"/><use xlink:href="#L" x="200" class="F"/><use xlink:href="#H" x="300" class="G"/><use xlink:href="#K" x="200" y="-500" class="H"/><use xlink:href="#I" x="300" class="I"/><use xlink:href="#G" x="300" y="-500" class="J"/><use xlink:href="#D" x="400" class="E"/><use xlink:href="#J" x="300" class="F"/><use xlink:href="#E" x="400" class="G"/><use xlink:href="#K" x="300" class="H"/><use xlink:href="#F" x="400" class="I"/><use xlink:href="#G" x="400" class="J"/><use xlink:href="#D" x="400" y="-500" class="E"/><use xlink:href="#L" x="300" class="F"/><use xlink:href="#H" x="400" class="G"/><use xlink:href="#K" x="300" y="-500" class="H"/><use xlink:href="#I" x="400" class="I"/><use xlink:href="#G" x="400" y="-500" class="J"/><use xlink:href="#D" x="500" class="E"/><use xlink:href="#J" x="400" class="F"/><use xlink:href="#E" x="500" class="G"/><use xlink:href="#K" x="400" class="H"/><use xlink:href="#F" x="500" class="I"/><use xlink:href="#G" x="500" class="J"/><use xlink:href="#D" x="500" y="-500" class="E"/><use xlink:href="#L" x="400" class="F"/><use xlink:href="#H" x="500" class="G"/><use xlink:href="#K" x="400" y="-500" class="H"/><use xlink:href="#I" x="500" class="I"/><use xlink:href="#G" x="500" y="-500" class="J"/><use xlink:href="#D" x="600" class="E"/><use xlink:href="#J" x="500" class="F"/><use xlink:href="#E" x="600" class="G"/><use xlink:href="#K" x="500" class="H"/><use xlink:href="#F" x="600" class="I"/><use xlink:href="#G" x="600" class="J"/><use xlink:href="#D" x="600" y="-500" class="E"/><use xlink:href="#L" x="500" class="F"/><use xlink:href="#H" x="600" class="G"/><use xlink:href="#K" x="500" y="-500" class="H"/><use xlink:href="#I" x="600" class="I"/><use xlink:href="#G" x="600" y="-500" class="J"/><use xlink:href="#D" x="700" class="E"/><use xlink:href="#J" x="600" class="F"/><use xlink:href="#E" x="700" class="G"/><use xlink:href="#K" x="600" class="H"/><use xlink:href="#F" x="700" class="I"/><use xlink:href="#G" x="700" class="J"/><use xlink:href="#D" x="700" y="-500" class="E"/><use xlink:href="#L" x="600" class="F"/><use xlink:href="#H" x="700" class="G"/><use xlink:href="#K" x="600" y="-500" class="H"/><use xlink:href="#I" x="700" class="I"/><use xlink:href="#G" x="700" y="-500" class="J"/><use xlink:href="#D" x="800" class="E"/><use xlink:href="#J" x="700" class="F"/><use xlink:href="#E" x="800" class="G"/><use xlink:href="#K" x="700" class="H"/><use xlink:href="#F" x="800" class="I"/><use xlink:href="#G" x="800" class="J"/><use xlink:href="#D" x="800" y="-500" class="E"/><use xlink:href="#L" x="700" class="F"/><use xlink:href="#H" x="800" class="G"/><use xlink:href="#K" x="700" y="-500" class="H"/><use xlink:href="#I" x="800" class="I"/><use xlink:href="#G" x="800" y="-500" class="J"/><use xlink:href="#D" x="900" class="E"/><use xlink:href="#J" x="800" class="F"/><use xlink:href="#E" x="900" class="G"/><use xlink:href="#K" x="800" class="H"/><use xlink:href="#F" x="900" class="I"/><use xlink:href="#G" x="900" class="J"/><use xlink:href="#D" x="900" y="-500" class="E"/><use xlink:href="#L" x="800" class="F"/><use xlink:href="#H" x="900" class="G"/><use xlink:href="#K" x="800" y="-500" class="H"/><use xlink:href="#I" x="900" class="I"/><use xlink:href="#G" x="900" y="-500" class="J"/><use xlink:href="#D" x="1000.005" class="E"/><use xlink:href="#J" x="900.005" class="F"/><use xlink:href="#E" x="1000.005" class="G"/><use xlink:href="#K" x="900.005" class="H"/><use xlink:href="#F" x="1000.005" class="I"/><use xlink:href="#G" x="1000.005" class="J"/><use xlink:href="#D" x="1000.005" y="-500" class="E"/><use xlink:href="#L" x="900.005" class="F"/><use xlink:href="#H" x="1000.005" class="G"/><use xlink:href="#K" x="900.005" y="-500" class="H"/><use xlink:href="#I" x="1000.005" class="I"/><use xlink:href="#G" x="1000.005" y="-500" class="J"/><use xlink:href="#D" x="1100.005" class="E"/><use xlink:href="#J" x="1000.005" class="F"/><use xlink:href="#E" x="1100.005" class="G"/><use xlink:href="#K" x="1000.005" class="H"/><use xlink:href="#F" x="1100.005" class="I"/><use xlink:href="#G" x="1100.005" class="J"/><use xlink:href="#D" x="1100.005" y="-500" class="E"/><use xlink:href="#L" x="1000.005" class="F"/><use xlink:href="#H" x="1100.005" class="G"/><use xlink:href="#K" x="1000.005" y="-500" class="H"/><use xlink:href="#I" x="1100.005" class="I"/><use xlink:href="#G" x="1100.005" y="-500" class="J"/><use xlink:href="#D" x="1200.005" class="E"/><use xlink:href="#J" x="1100.005" class="F"/><use xlink:href="#E" x="1200.005" class="G"/><use xlink:href="#K" x="1100.005" class="H"/><use xlink:href="#F" x="1200.005" class="I"/><use xlink:href="#G" x="1200.005" class="J"/><use xlink:href="#D" x="1200.005" y="-500" class="E"/><use xlink:href="#L" x="1100.005" class="F"/><use xlink:href="#H" x="1200.005" class="G"/><use xlink:href="#K" x="1100.005" y="-500" class="H"/><use xlink:href="#I" x="1200.005" class="I"/><use xlink:href="#G" x="1200.005" y="-500" class="J"/><use xlink:href="#D" x="1300.005" class="E"/><use xlink:href="#J" x="1200.005" class="F"/><use xlink:href="#E" x="1300.005" class="G"/><use xlink:href="#K" x="1200.005" class="H"/><use xlink:href="#F" x="1300.005" class="I"/><use xlink:href="#G" x="1300.005" class="J"/><use xlink:href="#D" x="1300.005" y="-500" class="E"/><use xlink:href="#L" x="1200.005" class="F"/><use xlink:href="#H" x="1300.005" class="G"/><use xlink:href="#K" x="1200.005" y="-500" class="H"/><use xlink:href="#I" x="1300.005" class="I"/><use xlink:href="#G" x="1300.005" y="-500" class="J"/><use xlink:href="#D" x="1400.005" class="E"/><use xlink:href="#J" x="1300.005" class="F"/><use xlink:href="#E" x="1400.005" class="G"/><use xlink:href="#K" x="1300.005" class="H"/><use xlink:href="#F" x="1400.005" class="I"/><use xlink:href="#G" x="1400.005" class="J"/><use xlink:href="#D" x="1400.005" y="-500" class="E"/><use xlink:href="#L" x="1300.005" class="F"/><use xlink:href="#H" x="1400.005" class="G"/><use xlink:href="#K" x="1300.005" y="-500" class="H"/><use xlink:href="#I" x="1400.005" class="I"/><use xlink:href="#G" x="1400.005" y="-500" class="J"/><use xlink:href="#D" x="1500.005" class="E"/><use xlink:href="#J" x="1400.005" class="F"/><use xlink:href="#E" x="1500.005" class="G"/><use xlink:href="#K" x="1400.005" class="H"/><use xlink:href="#F" x="1500.005" class="I"/><use xlink:href="#G" x="1500.005" class="J"/><use xlink:href="#D" x="1500.005" y="-500" class="E"/><use xlink:href="#L" x="1400.005" class="F"/><use xlink:href="#H" x="1500.005" class="G"/><use xlink:href="#K" x="1400.005" y="-500" class="H"/><use xlink:href="#I" x="1500.005" class="I"/><use xlink:href="#G" x="1500.005" y="-500" class="J"/><use xlink:href="#D" x="1600.005" class="E"/><use xlink:href="#J" x="1500.005" class="F"/><use xlink:href="#E" x="1600.005" class="G"/><use xlink:href="#K" x="1500.005" class="H"/><use xlink:href="#F" x="1600.005" class="I"/><use xlink:href="#G" x="1600.005" class="J"/><use xlink:href="#D" x="1600.005" y="-500" class="E"/><use xlink:href="#L" x="1500.005" class="F"/><use xlink:href="#H" x="1600.005" class="G"/><use xlink:href="#K" x="1500.005" y="-500" class="H"/><use xlink:href="#I" x="1600.005" class="I"/><use xlink:href="#G" x="1600.005" y="-500" class="J"/><use xlink:href="#D" x="1700.005" class="E"/><use xlink:href="#J" x="1600.005" class="F"/><use xlink:href="#E" x="1700.005" class="G"/><use xlink:href="#K" x="1600.005" class="H"/><use xlink:href="#F" x="1700.005" class="I"/><use xlink:href="#G" x="1700.005" class="J"/><use xlink:href="#D" x="1700.005" y="-500" class="E"/><use xlink:href="#L" x="1600.005" class="F"/><use xlink:href="#H" x="1700.005" class="G"/><use xlink:href="#K" x="1600.005" y="-500" class="H"/><use xlink:href="#I" x="1700.005" class="I"/><use xlink:href="#G" x="1700.005" y="-500" class="J"/><use xlink:href="#D" x="1800.005" class="E"/><use xlink:href="#J" x="1700.005" class="F"/><use xlink:href="#E" x="1800.005" class="G"/><use xlink:href="#K" x="1700.005" class="H"/><use xlink:href="#F" x="1800.005" class="I"/><use xlink:href="#G" x="1800.005" class="J"/><use xlink:href="#D" x="1800.005" y="-500" class="E"/><use xlink:href="#L" x="1700.005" class="F"/><use xlink:href="#H" x="1800.005" class="G"/><use xlink:href="#K" x="1700.005" y="-500" class="H"/><use xlink:href="#I" x="1800.005" class="I"/><use xlink:href="#G" x="1800.005" y="-500" class="J"/><use xlink:href="#D" x="1900.005" class="E"/><use xlink:href="#J" x="1800.005" class="F"/><use xlink:href="#E" x="1900.005" class="G"/><use xlink:href="#K" x="1800.005" class="H"/><use xlink:href="#F" x="1900.005" class="I"/><use xlink:href="#G" x="1900.005" class="J"/><use xlink:href="#D" x="1900.005" y="-500" class="E"/><use xlink:href="#L" x="1800.005" class="F"/><use xlink:href="#H" x="1900.005" class="G"/><use xlink:href="#K" x="1800.005" y="-500" class="H"/><use xlink:href="#I" x="1900.005" class="I"/><use xlink:href="#G" x="1900.005" y="-500" class="J"/><use xlink:href="#D" x="2000.005" class="E"/><use xlink:href="#J" x="1900.005" class="F"/><use xlink:href="#E" x="2000.005" class="G"/><use xlink:href="#K" x="1900.005" class="H"/><use xlink:href="#F" x="2000.005" class="I"/><use xlink:href="#G" x="2000.005" class="J"/><use xlink:href="#D" x="2000.005" y="-500" class="E"/><use xlink:href="#L" x="1900.005" class="F"/><use xlink:href="#H" x="2000.005" class="G"/><use xlink:href="#K" x="1900.005" y="-500" class="H"/><use xlink:href="#I" x="2000.005" class="I"/><use xlink:href="#G" x="2000.005" y="-500" class="J"/><use xlink:href="#D" x="2099.995" class="E"/><use xlink:href="#J" x="1999.995" class="F"/><use xlink:href="#E" x="2099.995" class="G"/><use xlink:href="#K" x="1999.995" class="H"/><use xlink:href="#F" x="2099.995" class="I"/><use xlink:href="#G" x="2099.995" class="J"/><use xlink:href="#D" x="2099.995" y="-500" class="E"/><use xlink:href="#L" x="1999.995" class="F"/><use xlink:href="#H" x="2099.995" class="G"/><use xlink:href="#K" x="1999.995" y="-500" class="H"/><use xlink:href="#I" x="2099.995" class="I"/><use xlink:href="#G" x="2099.995" y="-500" class="J"/><defs ><path id="B" d="M45.276 267.717h11.81v31.496h-11.81z"/><path id="C" d="M267.717 242.126h31.496v11.81h-31.496z"/><path id="D" d="M34.035 534.05h31.93v31.9h-31.93z"/><path id="E" d="M34.035 565.95l7.792-7.763v-17.165l-7.792-6.972z"/><path id="F" d="M58.243 558.187v-16.374l7.722-7.763v31.9z"/><path id="G" d="M34.035 565.95l7.875-7.763h16.333l7.722 7.763z"/><path id="H" d="M34.035 65.95l7.792-7.763V41.022l-7.792-6.972z"/><path id="I" d="M58.243 58.187V41.813l7.722-7.763v31.9z"/><path id="J" d="M141.827 541.785h16.444V558.2h-16.444z"/><path id="K" d="M158.243 541.813h-16.305l-7.903-7.763h31.93z"/><path id="L" d="M141.827 41.785h16.444V58.2h-16.444z"/></defs></svg>