<?xml version="1.0" encoding="UTF-8" standalone="no"?>
<!-- Generator: Adobe Illustrator 20.0.0, SVG Export Plug-In . SVG Version: 6.00 Build 0)  -->

<svg
   xmlns:dc="http://purl.org/dc/elements/1.1/"
   xmlns:cc="http://creativecommons.org/ns#"
   xmlns:rdf="http://www.w3.org/1999/02/22-rdf-syntax-ns#"
   xmlns:svg="http://www.w3.org/2000/svg"
   xmlns="http://www.w3.org/2000/svg"
   xmlns:sodipodi="http://sodipodi.sourceforge.net/DTD/sodipodi-0.dtd"
   xmlns:inkscape="http://www.inkscape.org/namespaces/inkscape"
   version="1.2"
   id="Ebene_1"
   inkscape:version="0.91 r13725"
   sodipodi:docname="b3f-10xx.svg"
   x="0px"
   y="0px"
   width="21.259842"
   height="21.259844"
   viewBox="0 0 21.259843 21.259845"
   xml:space="preserve"><metadata
     id="metadata22713"><rdf:RDF><cc:Work
         rdf:about=""><dc:format>image/svg+xml</dc:format><dc:type
           rdf:resource="http://purl.org/dc/dcmitype/StillImage" /><dc:title></dc:title></cc:Work></rdf:RDF></metadata><defs
     id="defs22711" /><sodipodi:namedview
     bordercolor="#666666"
     borderopacity="1"
     fit-margin-bottom="0"
     fit-margin-left="0"
     fit-margin-right="0"
     fit-margin-top="0"
     gridtolerance="10"
     guidetolerance="10"
     id="namedview38"
     inkscape:current-layer="Ebene_1"
     inkscape:cx="-23.490448"
     inkscape:cy="5.8373423"
     inkscape:document-units="mm"
     inkscape:pageopacity="0"
     inkscape:pageshadow="2"
     inkscape:window-height="650"
     inkscape:window-maximized="0"
     inkscape:window-width="1745"
     inkscape:window-x="0"
     inkscape:window-y="0"
     inkscape:zoom="9.9966114"
     objecttolerance="10"
     pagecolor="#ffffff"
     showgrid="false"
     units="mm" /><g
     id="g4149"
     transform="matrix(1.5062946,0,0,1.5064014,0,-5.4501603)"><path
       id="path5"
       inkscape:connector-curvature="0"
       d="m 14.113,16.581 c 0,0.634 -0.517,1.15 -1.15,1.15 l -11.813,0 C 0.518,17.731 0,17.214 0,16.581 L 0,4.768 C 0.002,4.134 0.518,3.618 1.15,3.618 l 11.814,0 c 0.634,0 1.15,0.517 1.15,1.15 l -0.001,11.813 c 0,0 0,0 0,0 z"
       style="fill:#999999" /><circle
       id="circle7"
       cx="2.056"
       cy="5.6739998"
       r="1.223"
       style="fill:#141414" /><circle
       id="circle9"
       cx="12.093"
       cy="5.6950002"
       r="1.223"
       style="fill:#141414" /><circle
       id="circle11"
       cx="12.072"
       cy="15.731"
       r="1.222"
       style="fill:#141414" /><circle
       id="circle13"
       cx="2.036"
       cy="15.709"
       r="1.222"
       style="fill:#141414" /><circle
       id="circle22"
       cx="7.0570002"
       cy="10.675"
       r="4.1160002"
       style="fill:#323232" /><circle
       id="circle26"
       cx="7.0630002"
       cy="10.699"
       r="3.53"
       style="fill:#141414" /><path
       id="path28"
       inkscape:connector-curvature="0"
       d="M 1.899,5.61 C 1.921,5.553 1.967,5.508 2.029,5.496 L 1.909,4.726 C 1.862,4.735 1.814,4.728 1.768,4.743 l 0,-0.005 C 1.482,4.825 1.27,5.039 1.16,5.31 l 0.739,0.3 z"
       style="fill:#c8c8c8" /><path
       id="path30"
       inkscape:connector-curvature="0"
       d="M 11.934,5.631 C 11.956,5.573 12.002,5.528 12.065,5.517 L 11.946,4.747 C 11.898,4.756 11.852,4.749 11.804,4.763 L 11.802,4.758 c -0.283,0.086 -0.498,0.299 -0.606,0.572 10e-4,0 0.738,0.301 0.738,0.301 z"
       style="fill:#c8c8c8" /><path
       id="path32"
       inkscape:connector-curvature="0"
       d="m 11.913,15.666 c 0.023,-0.058 0.066,-0.103 0.13,-0.114 l -0.117,-0.77 c -0.05,0.01 -0.094,0.002 -0.143,0.017 l -10e-4,-0.006 c -0.283,0.085 -0.498,0.3 -0.607,0.572 0,-0.002 0.738,0.301 0.738,0.301 z"
       style="fill:#c8c8c8" /><path
       id="path34"
       inkscape:connector-curvature="0"
       d="M 1.877,15.646 C 1.9,15.588 1.945,15.544 2.009,15.532 L 1.888,14.761 C 1.841,14.772 1.794,14.763 1.747,14.778 L 1.745,14.772 c -0.283,0.086 -0.498,0.3 -0.608,0.571 l 0.74,0.303 z"
       style="fill:#c8c8c8" /><path
       id="path36"
       inkscape:connector-curvature="0"
       d="M 8.325,7.41 C 8.051,7.303 7.765,7.227 7.461,7.192 6.702,7.107 5.976,7.275 5.356,7.619 l -0.077,0.2 C 5.972,7.449 6.777,7.277 7.617,7.369 7.875,7.399 8.128,7.457 8.367,7.533 8.368,7.534 8.325,7.41 8.325,7.41 Z"
       style="fill:#c8c8c8" /></g></svg>