<?xml version="1.0" encoding="UTF-8"?>
<svg width=".52in" height=".425in" version="1.2" viewBox="0 0 520 425" xmlns="http://www.w3.org/2000/svg">
<g id="icon">
	<rect x="0" y="12.5" width="520" height="400" fill="#2d2d2d"/>
	<g fill="#8c8c8c">
		<rect x="500" width="20" height="25"/>
		<rect x="400" width="20" height="25"/>
		<rect width="20" height="25"/>
		<rect y="400" width="20" height="25"/>
		<rect x="400" y="400" width="20" height="25"/>
		<rect x="500" y="400" width="20" height="25"/>
	</g>
	<line x1="10" x2="10" y1="20" y2="405" fill="none" stroke="#606060" stroke-linecap="round" stroke-width="10"/>
	<g transform="translate(80 212.5)">
		<g transform="rotate(-3.6)" data-state-off="rotate(-3.6)" data-state-on="rotate(3.6)">
			<circle r="25" fill="#606060"/>
			<circle r="15" fill="#333"/>
			<path d="m406.2-5-6-13.5h-41l-6 13.5z" fill="#b23820"/>
			<path d="m406.2 5-6 13.5h-41l-6-13.5z" fill="#b23820"/>
			<line x2="405" fill="none" stroke="#7c7c7c" stroke-linecap="round" stroke-width="10"/>		
		</g>
	</g>
	<line x1="10" x2="60" y1="212.5" y2="212.5" fill="none" stroke="#606060" stroke-width="10"/>
	<g transform="scale(12.4)">
		<path d="m41.15 1.7v8.6c0 0.95016-0.58042 1.7281-1.2918 1.7281h-5.2" fill="none" stroke="#606060" stroke-linecap="round" stroke-width=".96"/>
		<g transform="matrix(-1.44 0 0 1.44 42 .765)" fill="#b23820">
			<polygon points="2.01 8.17 2.365 8.945 4.616 8.945 4.969 8.17"/>
			<polygon points="2.01 14.577 2.365 13.802 4.616 13.802 4.969 14.577"/>
		</g>
		<path d="m41.15 32.5v-8.6c0-0.95164-0.58042-1.7266-1.2918-1.7266h-5.2" fill="none" stroke="#606060" stroke-linecap="round" stroke-width=".96"/>
		<g transform="matrix(-1.45 0 0 1.45 44.8 -1)" fill="none" stroke-linecap="round">
			<g stroke="#752119" stroke-width=".75">
				<path d="m22.797 15.132c0.921 0.607-6.856 0.787-7.891 0.683"/>
				<path d="m22.797 15.975c0.933 0.611-6.871 0.78-7.891 0.682"/>
				<path d="m22.797 16.819c0.922 0.602-6.86 0.782-7.891 0.678"/>
				<path d="m22.797 17.661c0.521 0.34-2.353 0.962-7.891 0.962"/>
				<path d="m22.797 11.763c0.921 0.606-6.854 0.785-7.891 0.682"/>
				<path d="m22.797 12.606c0.93 0.608-6.868 0.778-7.891 0.68"/>
				<path d="m22.797 13.448c0.925 0.603-6.86 0.785-7.891 0.681"/>
				<path d="m22.797 14.29c0.916 0.601-6.845 0.789-7.891 0.681"/>
				<path d="m22.797 8.393c0.911 0.603-6.845 0.789-7.891 0.682"/>
				<path d="m22.797 9.236c0.921 0.604-6.854 0.786-7.891 0.683"/>
				<path d="m22.797 10.079c0.929 0.606-6.867 0.782-7.891 0.679"/>
				<path d="m22.797 10.921c0.931 0.611-6.877 0.782-7.891 0.682"/>
				<path d="m22.655 6.71c0.924 0.604-6.72 0.781-7.75 0.679"/>
				<path d="m22.797 7.551c0.933 0.61-6.871 0.778-7.891 0.679"/>
			</g>
			<g stroke="#b23820" stroke-width=".75">
				<path d="m14.906 7.412c2.514-0.527 5.224-0.594 7.967 0.25"/>
				<path d="m14.906 8.251c2.514-0.527 5.224-0.594 7.967 0.25"/>
				<path d="m14.906 9.09c2.514-0.528 5.224-0.594 7.967 0.25"/>
				<path d="m14.906 9.928c2.514-0.528 5.224-0.595 7.967 0.25"/>
				<path d="m14.906 10.768c2.514-0.528 5.224-0.595 7.967 0.249"/>
				<path d="m14.906 11.608c2.514-0.528 5.224-0.595 7.967 0.249"/>
				<path d="m14.906 12.447c2.514-0.528 5.224-0.595 7.967 0.249"/>
				<path d="m14.906 13.287c2.514-0.528 5.224-0.595 7.967 0.249"/>
				<path d="m14.906 14.125c2.514-0.528 5.224-0.595 7.967 0.249"/>
				<path d="m14.906 14.964c2.514-0.527 5.224-0.594 7.967 0.25"/>
				<path d="m14.906 15.803c2.514-0.527 5.224-0.595 7.967 0.249"/>
				<path d="m14.906 16.643c2.514-0.527 5.224-0.595 7.967 0.249"/>
				<path d="m14.906 17.495c2.514-0.527 5.224-0.595 7.967 0.249"/>
				<path d="m14.906 6.155c3.955 0 5.637-0.087 7.923 0.622"/>
			</g>
			<path d="m8.088 23.124v-3.312c0-0.641 0.523-1.164 1.164-1.164h5.653" stroke="#752119" stroke-width=".7311"/>
			<path d="m8.088 2.009v2.982c0 0.64 0.523 1.164 1.164 1.164h5.653" stroke="#b23820" stroke-width=".75"/>
		</g>
	</g>
</g>
</svg>
