<?xml version="1.0" encoding="utf-8"?>
<!-- Generator: Adobe Illustrator 16.0.0, SVG Export Plug-In . SVG Version: 6.00 Build 0)  -->
<!DOCTYPE svg PUBLIC "-//W3C//DTD SVG 1.1//EN" "http://www.w3.org/Graphics/SVG/1.1/DTD/svg11.dtd">
<svg version="1.1" id="_x30_" xmlns:xml="http://www.w3.org/XML/1998/namespace"
	 xmlns="http://www.w3.org/2000/svg" xmlns:xlink="http://www.w3.org/1999/xlink" x="0px" y="0px" width="32px" height="32px"
	 viewBox="0 0 32 32" enable-background="new 0 0 32 32" xml:space="preserve">
<g id="icon">
	<rect y="-0.023" fill="#006699" width="32" height="32.023"/>
	<g>
		<path fill="#FFFFFF" d="M21.23,25.738c-0.408-0.068-0.758,0.14-1.028,0.341c-0.349,0.278-0.692,0.416-1.106,0.624
			c-0.135,0.066-0.135,0.141-0.135,0.271c0.135,0.758-0.136,1.313-0.832,1.652c-1.508,0.762-3.031,1.52-4.684,1.936
			c-0.486,0.144-0.963,0.063-1.31-0.416c-0.548-0.688-1.031-1.52-1.377-2.344c-0.145-0.412-0.353-0.689-0.694-0.962
			c-0.477-0.416-0.762-0.969-0.896-1.519C8.685,23.6,8.204,21.811,7.93,20.018c-0.068-0.483-0.14-0.895-0.14-1.379
			c-0.074-0.764,0.206-1.172,0.895-1.447c0.483-0.209,0.902-0.275,1.379-0.346c0.48-0.068,0.83-0.207,1.041-0.688
			c0.274-0.76,0.896-1.105,1.714-1.238c0.622-0.14,1.171,0.069,1.657,0.273c0.548,0.205,1.103,0.345,1.725,0.136
			c0.549-0.136,1.031-0.067,1.509,0.141c0.485,0.208,0.968,0.413,1.515,0.621c0.418,0.136,0.758,0.136,1.172,0.068
			c0.896-0.14,2.271,0.208,2.819,1.241c0.283,0.552,0.622,1.031,0.896,1.584c0.146,0.277,0.146,0.55,0,0.896
			c-0.137,0.342-0.342,0.62-0.547,0.891c-0.14,0.215-0.14,0.416-0.063,0.557c0.204,1.169,0,2.27-0.484,3.375
			c-0.351,0.761-0.899,1.104-1.656,1.104C21.371,25.738,21.3,25.738,21.23,25.738z M11.653,20.706
			c0.348,0.204,0.554,0.483,0.688,0.828c0.482,1.313,1.037,2.687,1.585,3.995c0.278,0.689,0.963,1.104,1.725,0.966
			c0.274-0.067,0.476-0.138,0.759-0.201c0.273-0.075,0.345-0.215,0.345-0.556c0-0.272-0.069-0.549-0.135-0.825
			c-0.493-1.724-0.904-3.519-1.313-5.31c0-0.068-0.068-0.135,0-0.135c0.066,0,0.066,0.064,0.14,0.064
			c0.207,0.417,0.415,0.824,0.549,1.313c0.211,0.689,0.416,1.45,0.55,2.137c0.211,0.828,0.483,1.658,0.828,2.481
			c0.144,0.412,0.419,0.554,0.76,0.554c0.347,0,0.759-0.068,1.103-0.205c0.555-0.138,0.832-0.554,0.832-1.103
			c-0.073-0.62-0.139-1.239-0.209-1.864c-0.065-0.752-0.205-1.519-0.276-2.271c0-0.071-0.065-0.137,0.069-0.137
			c0.139,0,0.066,0.063,0.139,0.137c0.134,0.615,0.273,1.236,0.342,1.855c0.072,0.689,0.207,1.316,0.276,2.006
			c0.071,0.41,0.272,0.617,0.688,0.617c0.555,0.068,1.174-0.207,1.445-0.765c0.068-0.2,0.141-0.341,0.21-0.55
			c0.204-0.619,0.204-1.309,0.274-1.93c0-0.207,0-0.412-0.141-0.619c-0.14-0.276-0.275-0.545-0.41-0.826
			c-0.068-0.07-0.068-0.211-0.068-0.348c0.135,0.137,0.273,0.348,0.414,0.483c0.064,0.069,0.064,0.146,0.139,0.146
			c0.071,0,0.066-0.146,0.066-0.209c0-0.35-0.066-0.621,0-0.97c0.063,0.138,0.14,0.276,0.201,0.349
			c0.145-0.14,0.145-0.349,0.207-0.482c0,0.066,0.074,0.137,0.074,0.208c0,0.063,0,0.063,0.066,0.063s0.066-0.063,0-0.063
			c-0.066-0.276-0.066-0.554-0.207-0.763c-0.206-0.34-0.414-0.688-0.618-1.104c-0.21-0.411-0.554-0.612-0.967-0.753
			c-0.275-0.07-0.619-0.208-0.896-0.279c-0.068,0-0.14,0-0.209,0c-0.479,0.141-1.031,0.279-1.307,0.83
			c-0.07-0.066-0.07-0.139-0.07-0.209c-0.068-0.342-0.207-0.621-0.48-0.755c-0.483-0.208-0.965-0.416-1.45-0.62
			c-0.829-0.344-1.655,0.068-1.93,0.964c-0.066,0.207-0.066,0.412-0.14,0.619c-0.206-0.619-0.14-1.24-0.755-1.653
			c-0.556-0.344-1.104-0.552-1.725-0.416c-0.549,0.072-0.958,0.416-1.166,0.896c-0.206,0.481-0.346,0.961-0.276,1.513
			c-0.276-0.203-0.482-0.345-0.763-0.408c-0.688-0.144-1.311,0-1.926,0.27c-0.28,0.141-0.342,0.348-0.342,0.624
			c0,0.345,0,0.759,0.057,1.101c0.352,1.937,0.694,3.863,1.383,5.654c0.134,0.412,0.203,0.828,0.482,1.102
			c0.621,0.695,1.45,0.896,2.346,0.621c0.689-0.205,0.958-0.621,0.757-1.311c0-0.141-0.068-0.208-0.068-0.344
			c-0.348-0.896-0.689-1.794-1.037-2.691C12.067,22.016,11.866,21.395,11.653,20.706z M15.859,28.221
			c-0.207-0.072-0.277-0.209-0.277-0.346c-0.062-0.204-0.062-0.344,0-0.553c0-0.137,0-0.203-0.14-0.203
			c-0.414-0.072-0.762-0.137-1.176-0.137c-0.824,0-1.585,0.271-2.264,0.479c-0.346,0.139-0.414,0.412-0.276,0.758
			c0.201,0.553,0.549,1.032,0.828,1.586c0.135,0.278,0.409,0.346,0.689,0.346c0.279,0,0.48-0.143,0.756-0.213
			c0.895-0.271,1.797-0.621,2.623-1.103c-0.072-0.063-0.21-0.063-0.28-0.138c0.482-0.137,0.967-0.346,1.451-0.483
			c0.135-0.065,0.275-0.065,0.275-0.208c0.136-0.273,0.136-0.615-0.069-0.895c-0.204-0.271-0.481-0.344-0.824-0.271
			c-0.354,0.063-0.695,0.134-1.044,0.204c-0.269,0.066-0.413,0.204-0.337,0.482C15.792,27.738,15.792,28.012,15.859,28.221z"/>
	</g>
	<g>
		<g>
			<g>
				<g>
					<g>
						<path fill="#FFFFFF" d="M9.886,10.535c0,0.346-0.069,0.656-0.196,0.944s-0.322,0.541-0.564,0.749
							c-0.253,0.208-0.552,0.368-0.92,0.495c-0.369,0.115-0.783,0.173-1.244,0.173h-3.04h-0.84V12.24
							c0-0.197,0.092-0.311,0.276-0.346c0.012,0,0.046,0,0.069-0.011c0.023-0.012,0.081-0.012,0.162-0.035
							c0.08-0.011,0.195-0.034,0.333-0.057V5.953C3.784,5.93,3.668,5.907,3.588,5.896C3.507,5.884,3.45,5.872,3.427,5.861
							c-0.035,0-0.057-0.012-0.069-0.012C3.173,5.814,3.082,5.688,3.082,5.504V4.847h0.84h2.775c0.53,0,0.979,0.046,1.347,0.15
							c0.369,0.104,0.679,0.242,0.921,0.426c0.242,0.184,0.415,0.414,0.53,0.679C9.61,6.367,9.656,6.667,9.656,6.989
							c0,0.185-0.023,0.369-0.081,0.542C9.518,7.703,9.437,7.864,9.322,8.014c-0.115,0.149-0.265,0.287-0.45,0.414
							C8.7,8.555,8.481,8.659,8.228,8.739C9.334,8.992,9.886,9.591,9.886,10.535 M5.419,8.336h1.197
							c0.506,0,0.898-0.092,1.163-0.276c0.265-0.184,0.403-0.483,0.403-0.886c0-0.415-0.115-0.714-0.357-0.898
							C7.583,6.092,7.215,6.01,6.708,6.01h-1.29L5.419,8.336L5.419,8.336z M8.413,10.501c0-0.173-0.023-0.334-0.081-0.472
							c-0.069-0.138-0.15-0.253-0.276-0.357C7.94,9.568,7.779,9.499,7.595,9.441C7.411,9.384,7.181,9.36,6.916,9.36H5.419v2.373
							h1.52c0.277,0,0.507-0.035,0.703-0.104c0.184-0.068,0.333-0.161,0.449-0.265c0.115-0.114,0.195-0.241,0.242-0.391
							C8.378,10.823,8.413,10.673,8.413,10.501"/>
						<path fill="#FFFFFF" d="M14.307,7.277c0.3,0.115,0.565,0.288,0.784,0.507c0.219,0.219,0.392,0.495,0.507,0.817
							c0.126,0.322,0.184,0.691,0.184,1.105c0,0.104-0.011,0.185-0.011,0.253c-0.012,0.069-0.023,0.126-0.046,0.161
							c-0.023,0.035-0.058,0.069-0.092,0.081c-0.046,0.012-0.092,0.024-0.162,0.024h-3.535c0.046,0.587,0.196,1.012,0.472,1.289
							c0.276,0.276,0.645,0.415,1.094,0.415c0.219,0,0.415-0.023,0.576-0.081c0.161-0.057,0.299-0.104,0.425-0.173
							c0.115-0.057,0.219-0.114,0.311-0.172c0.092-0.057,0.185-0.081,0.265-0.081c0.059,0,0.104,0.011,0.139,0.034
							c0.046,0.023,0.08,0.046,0.104,0.092l0.403,0.495c-0.149,0.185-0.323,0.334-0.507,0.45c-0.196,0.126-0.391,0.219-0.599,0.288
							c-0.207,0.069-0.414,0.126-0.633,0.149c-0.207,0.035-0.415,0.046-0.623,0.046c-0.391,0-0.759-0.069-1.104-0.196
							c-0.346-0.126-0.633-0.322-0.887-0.588c-0.253-0.253-0.449-0.575-0.599-0.956c-0.15-0.38-0.219-0.817-0.219-1.324
							c0-0.392,0.058-0.76,0.184-1.105c0.127-0.345,0.311-0.645,0.541-0.898c0.242-0.253,0.53-0.46,0.864-0.599
							c0.346-0.15,0.725-0.219,1.152-0.219C13.674,7.104,13.996,7.162,14.307,7.277 M12.396,8.428
							c-0.23,0.23-0.368,0.553-0.438,0.967h2.58c0-0.172-0.023-0.345-0.069-0.506c-0.046-0.161-0.126-0.299-0.219-0.415
							c-0.104-0.115-0.23-0.207-0.38-0.276c-0.149-0.069-0.333-0.104-0.529-0.104C12.938,8.083,12.626,8.198,12.396,8.428"/>
						<path fill="#FFFFFF" d="M21.838,12.24v0.656h-0.691h-0.147h-0.474c-0.127,0-0.229-0.024-0.311-0.058
							c-0.07-0.034-0.127-0.115-0.162-0.242l-0.125-0.403c-0.15,0.127-0.289,0.243-0.428,0.346s-0.287,0.184-0.426,0.253
							c-0.15,0.069-0.311,0.115-0.471,0.15c-0.174,0.034-0.357,0.045-0.556,0.045c-0.239,0-0.459-0.034-0.668-0.091
							c-0.207-0.069-0.381-0.162-0.528-0.288c-0.15-0.127-0.265-0.3-0.347-0.483c-0.08-0.196-0.125-0.415-0.125-0.679
							c0-0.219,0.057-0.427,0.173-0.646c0.114-0.207,0.299-0.402,0.563-0.575c0.264-0.173,0.608-0.312,1.049-0.427
							c0.438-0.115,0.979-0.172,1.633-0.172V9.292c0-0.392-0.077-0.668-0.241-0.852c-0.16-0.185-0.392-0.276-0.701-0.276
							c-0.219,0-0.404,0.023-0.554,0.081c-0.149,0.057-0.274,0.115-0.393,0.173c-0.103,0.057-0.205,0.126-0.3,0.172
							c-0.09,0.057-0.193,0.08-0.307,0.08c-0.094,0-0.174-0.023-0.242-0.069c-0.069-0.046-0.117-0.104-0.162-0.173L16.645,7.99
							c0.658-0.599,1.451-0.898,2.383-0.898c0.334,0,0.634,0.057,0.9,0.161c0.264,0.115,0.482,0.265,0.666,0.46
							c0.184,0.195,0.322,0.426,0.414,0.703c0.094,0.276,0.139,0.564,0.139,0.886v2.533c0.127,0.023,0.23,0.034,0.299,0.057
							c0.07,0.012,0.104,0.023,0.117,0.023C21.744,11.929,21.838,12.043,21.838,12.24 M19.799,10.466
							c-0.402,0-0.736,0.023-1.002,0.081c-0.264,0.046-0.482,0.116-0.645,0.196c-0.16,0.081-0.275,0.173-0.344,0.276
							c-0.068,0.104-0.104,0.219-0.104,0.345c0,0.242,0.067,0.416,0.217,0.519c0.14,0.103,0.334,0.16,0.563,0.16
							c0.14,0,0.277-0.011,0.394-0.034c0.115-0.023,0.229-0.058,0.334-0.116c0.104-0.057,0.207-0.114,0.312-0.195
							c0.092-0.069,0.197-0.161,0.301-0.265v-0.967H19.799z"/>
						<path fill="#FFFFFF" d="M28.918,12.251v0.656h-0.85h-1.373V9.269c0-0.345-0.078-0.622-0.242-0.806
							c-0.16-0.195-0.402-0.288-0.725-0.288c-0.24,0-0.459,0.058-0.666,0.161c-0.209,0.104-0.404,0.253-0.588,0.438v3.028
							c0.137,0.023,0.254,0.046,0.321,0.058c0.08,0.011,0.14,0.023,0.16,0.034c0.035,0,0.06,0.012,0.069,0.012
							c0.185,0.034,0.277,0.162,0.277,0.345v0.656h-0.842H23.09h-0.84v-0.656c0-0.196,0.094-0.311,0.275-0.345
							c0.014,0,0.035-0.012,0.07-0.012c0.034-0.011,0.082-0.023,0.159-0.034c0.082-0.012,0.197-0.035,0.334-0.058V8.29
							c-0.137-0.022-0.252-0.046-0.334-0.057c-0.077-0.012-0.139-0.023-0.159-0.035c-0.035-0.012-0.058-0.012-0.07-0.012
							C22.343,8.151,22.25,8.024,22.25,7.84V7.185h0.84h0.84c0.174,0,0.303,0.081,0.346,0.253l0.093,0.449
							c0.116-0.116,0.241-0.23,0.368-0.322c0.13-0.092,0.267-0.185,0.404-0.253c0.137-0.069,0.299-0.127,0.461-0.162
							c0.16-0.035,0.346-0.057,0.529-0.057c0.311,0,0.588,0.057,0.828,0.161c0.242,0.104,0.438,0.253,0.6,0.449
							c0.162,0.195,0.287,0.414,0.369,0.679c0.078,0.265,0.125,0.552,0.125,0.875v2.533c0.139,0.023,0.254,0.046,0.334,0.057
							c0.082,0.012,0.139,0.023,0.162,0.035c0.033,0,0.057,0.011,0.068,0.011C28.826,11.94,28.918,12.055,28.918,12.251"/>
						<path fill="#FFFFFF" d="M12.489,5.918h-0.081h-0.035h-1.531h-0.276V5.746c0-0.035,0.023-0.069,0.058-0.069
							c0.035-0.012,0.219-0.046,0.219-0.046V3.442c0,0-0.184-0.034-0.219-0.045c-0.035,0-0.058-0.035-0.058-0.069V3.167h0.276h0.369
							l0,0h0.276v0.161c0,0.035-0.023,0.069-0.058,0.069c-0.035,0.011-0.208,0.045-0.219,0.045v2.153h0.99
							c0.011-0.115,0.023-0.207,0.023-0.219c0.012-0.035,0.035-0.069,0.081-0.069h0.185V5.918L12.489,5.918z"/>
						<path fill="#FFFFFF" d="M13.64,5.746v0.161h-0.887V5.746c0-0.035,0.023-0.069,0.058-0.069C12.845,5.665,13.03,5.63,13.03,5.63
							V4.249c0,0-0.185-0.035-0.219-0.046c-0.035,0-0.058-0.035-0.058-0.069V3.972h0.622V5.63c0,0,0.184,0.035,0.219,0.046
							C13.617,5.688,13.64,5.71,13.64,5.746 M12.972,3.454c-0.011-0.034-0.023-0.057-0.023-0.092c0-0.035,0.012-0.069,0.023-0.092
							c0.012-0.034,0.035-0.057,0.058-0.081c0.023-0.022,0.045-0.034,0.081-0.057c0.023-0.012,0.057-0.023,0.092-0.023
							c0.034,0,0.069,0.011,0.092,0.023c0.034,0.012,0.057,0.035,0.08,0.057c0.023,0.024,0.034,0.047,0.057,0.081
							c0,0.023,0.012,0.058,0.012,0.092c0,0.034-0.012,0.069-0.023,0.092c-0.012,0.023-0.035,0.058-0.059,0.081
							c-0.022,0.023-0.045,0.046-0.08,0.058c-0.034,0.012-0.057,0.023-0.092,0.023c-0.034,0-0.068-0.012-0.091-0.023
							c-0.035-0.011-0.058-0.035-0.081-0.058C13.007,3.512,12.984,3.477,12.972,3.454"/>
						<path fill="#FFFFFF" d="M14.86,3.961c0.069,0.023,0.139,0.046,0.208,0.081h0.53v0.126c0,0.046-0.023,0.069-0.082,0.081
							l-0.219,0.035c0.046,0.081,0.069,0.173,0.069,0.276c0,0.092-0.023,0.184-0.057,0.253c-0.035,0.081-0.092,0.139-0.15,0.196
							c-0.068,0.057-0.138,0.092-0.23,0.126c-0.092,0.034-0.185,0.046-0.288,0.046c-0.092,0-0.172-0.011-0.252-0.035
							c-0.046,0.023-0.069,0.058-0.092,0.081C14.273,5.25,14.25,5.296,14.25,5.331c0,0.046,0.023,0.081,0.057,0.104
							c0.035,0.023,0.082,0.046,0.15,0.046c0.058,0.011,0.126,0.011,0.207,0.023c0.08,0,0.162,0.011,0.242,0.011
							c0.081,0,0.162,0.012,0.242,0.035c0.081,0.011,0.149,0.034,0.208,0.069c0.057,0.035,0.114,0.081,0.149,0.127
							c0.034,0.057,0.057,0.126,0.057,0.219c0,0.081-0.023,0.161-0.057,0.242c-0.046,0.081-0.104,0.15-0.185,0.207
							c-0.081,0.058-0.173,0.115-0.288,0.15c-0.114,0.035-0.242,0.058-0.379,0.058c-0.138,0-0.265-0.011-0.369-0.046
							C14.18,6.541,14.088,6.507,14.02,6.46c-0.069-0.046-0.127-0.103-0.161-0.161c-0.035-0.058-0.046-0.126-0.046-0.196
							c0-0.092,0.034-0.173,0.092-0.242c0.057-0.069,0.149-0.115,0.253-0.161c-0.057-0.023-0.104-0.058-0.126-0.104
							c-0.035-0.046-0.046-0.104-0.046-0.172c0-0.023,0.011-0.058,0.011-0.092c0.012-0.035,0.024-0.058,0.046-0.092
							c0.023-0.035,0.046-0.058,0.081-0.081c0.034-0.023,0.069-0.046,0.104-0.069c-0.092-0.058-0.173-0.126-0.231-0.219
							c-0.057-0.092-0.08-0.195-0.08-0.311c0-0.092,0.023-0.185,0.058-0.253c0.034-0.081,0.091-0.138,0.149-0.195
							c0.069-0.058,0.139-0.092,0.23-0.127c0.092-0.035,0.185-0.046,0.3-0.046C14.71,3.938,14.791,3.949,14.86,3.961 M15.194,5.907
							c-0.023-0.035-0.057-0.058-0.104-0.069c-0.046-0.011-0.104-0.023-0.162-0.035c-0.057-0.011-0.126-0.011-0.195-0.011
							c-0.069,0-0.139-0.012-0.208-0.012c-0.068,0-0.137-0.011-0.195-0.023c-0.068,0.035-0.126,0.081-0.173,0.127
							c-0.046,0.046-0.069,0.104-0.069,0.184c0,0.046,0.012,0.081,0.035,0.127c0.023,0.034,0.057,0.069,0.104,0.104
							c0.046,0.023,0.104,0.046,0.172,0.069c0.069,0.012,0.15,0.023,0.242,0.023c0.093,0,0.173-0.012,0.254-0.023
							c0.068-0.011,0.138-0.034,0.184-0.069c0.046-0.035,0.093-0.069,0.116-0.104c0.023-0.046,0.046-0.092,0.046-0.139
							C15.229,5.976,15.217,5.93,15.194,5.907 M14.814,4.939c0.058-0.023,0.104-0.046,0.139-0.081
							c0.034-0.034,0.057-0.081,0.08-0.126c0.023-0.046,0.023-0.104,0.023-0.161c0-0.115-0.034-0.219-0.103-0.288
							c-0.07-0.069-0.173-0.103-0.312-0.103c-0.138,0-0.242,0.034-0.311,0.104c-0.068,0.069-0.104,0.161-0.104,0.288
							c0,0.058,0.012,0.115,0.023,0.161c0.023,0.046,0.046,0.092,0.081,0.126c0.035,0.035,0.081,0.058,0.138,0.081
							c0.057,0.023,0.115,0.023,0.185,0.023C14.7,4.962,14.757,4.951,14.814,4.939"/>
						<path fill="#FFFFFF" d="M17.07,3.938c0.207,0,0.369,0.069,0.484,0.207c0.114,0.127,0.159,0.311,0.159,0.53V5.63
							c0.127,0.023,0.195,0.035,0.222,0.046c0.032,0.011,0.057,0.034,0.057,0.069v0.161h-0.621V4.675
							c0-0.311-0.139-0.461-0.416-0.461c-0.184,0-0.367,0.092-0.529,0.277v1.151l0.046,0.011c0.104,0.023,0.16,0.035,0.172,0.035
							c0.035,0.012,0.057,0.035,0.057,0.069v0.162h-0.897V5.746c0-0.046,0.023-0.058,0.058-0.069l0.219-0.046V3.362
							c-0.15-0.023-0.23-0.035-0.253-0.046c-0.034-0.011-0.058-0.035-0.058-0.069V3.086h0.656v1.14
							C16.623,4.042,16.83,3.938,17.07,3.938"/>
						<path fill="#FFFFFF" d="M18.58,5.814c-0.082-0.081-0.129-0.207-0.129-0.368V4.26h-0.229c-0.023,0-0.035-0.012-0.045-0.023
							c-0.013-0.012-0.025-0.035-0.025-0.058V4.042l0.324-0.046l0.08-0.598c0-0.023,0.012-0.035,0.022-0.046
							c0.01-0.012,0.034-0.023,0.058-0.023h0.174v0.667h0.551v0.253h-0.551v1.163c0,0.081,0.021,0.138,0.057,0.184
							c0.047,0.035,0.092,0.058,0.15,0.058c0.035,0,0.067,0,0.092-0.011c0.021-0.012,0.045-0.023,0.068-0.035
							c0.022-0.012,0.034-0.023,0.045-0.035c0.014-0.012,0.024-0.012,0.034-0.012c0.013,0,0.035,0.012,0.048,0.035l0.104,0.161
							c-0.057,0.058-0.125,0.104-0.207,0.127c-0.082,0.035-0.174,0.046-0.252,0.046C18.775,5.941,18.66,5.907,18.58,5.814"/>
						<path fill="#FFFFFF" d="M21.838,5.135c0,0.242-0.082,0.426-0.254,0.563c-0.174,0.149-0.414,0.219-0.715,0.219h-1.254V5.746
							c0-0.035,0.023-0.058,0.059-0.069l0.219-0.046V3.442c-0.129-0.022-0.197-0.034-0.219-0.045
							c-0.035-0.012-0.059-0.035-0.059-0.069V3.167h1.152c0.494,0,0.795,0.138,0.907,0.415c0.035,0.092,0.06,0.184,0.06,0.265
							c0,0.092-0.012,0.161-0.035,0.23c-0.023,0.058-0.057,0.115-0.092,0.172c-0.092,0.115-0.219,0.196-0.394,0.253
							C21.631,4.583,21.838,4.79,21.838,5.135 M20.271,4.398h0.496c0.311,0,0.494-0.092,0.573-0.276
							c0.022-0.058,0.035-0.127,0.035-0.195c0-0.162-0.045-0.277-0.147-0.357c-0.092-0.08-0.256-0.115-0.451-0.115h-0.506V4.398
							L20.271,4.398z M21.436,5.319c0.021-0.057,0.035-0.126,0.035-0.196c0-0.138-0.047-0.253-0.152-0.333
							c-0.104-0.081-0.252-0.127-0.459-0.127h-0.598v0.956h0.598C21.17,5.619,21.365,5.515,21.436,5.319"/>
						<path fill="#FFFFFF" d="M22.932,5.746v0.161h-0.897V5.746c0-0.046,0.022-0.058,0.057-0.069l0.222-0.046V3.362
							c-0.115-0.023-0.187-0.035-0.207-0.035c-0.035-0.012-0.06-0.035-0.06-0.069V3.086h0.621V5.63
							c0.127,0.023,0.194,0.035,0.222,0.046C22.922,5.688,22.932,5.71,22.932,5.746"/>
						<path fill="#FFFFFF" d="M24.637,5.4V4.249c-0.025,0-0.094-0.023-0.221-0.046c-0.033-0.012-0.057-0.035-0.057-0.069V3.972
							h0.277h0.344V5.63c0.127,0.023,0.194,0.035,0.221,0.046c0.033,0.011,0.057,0.034,0.057,0.069v0.161h-0.484
							c-0.045,0-0.08-0.023-0.092-0.069L24.658,5.63c-0.184,0.207-0.402,0.311-0.645,0.311c-0.207,0-0.369-0.069-0.484-0.208
							c-0.104-0.126-0.16-0.311-0.16-0.529V4.249c-0.127-0.023-0.195-0.035-0.219-0.046c-0.033-0.012-0.06-0.035-0.06-0.069V3.972
							h0.623v1.244c0,0.149,0.035,0.265,0.104,0.345c0.068,0.081,0.174,0.116,0.311,0.116C24.301,5.677,24.475,5.584,24.637,5.4"/>
						<path fill="#FFFFFF" d="M26.674,3.995c0.104,0.035,0.184,0.092,0.252,0.173c0.07,0.069,0.129,0.162,0.174,0.276
							c0.033,0.104,0.06,0.23,0.06,0.368c0,0.058-0.013,0.092-0.013,0.104c-0.014,0.023-0.035,0.023-0.069,0.023h-1.289
							c0,0.126,0.022,0.23,0.047,0.323c0.033,0.092,0.067,0.172,0.125,0.23c0.058,0.058,0.117,0.104,0.194,0.138
							c0.07,0.035,0.164,0.046,0.255,0.046c0.079,0,0.161-0.012,0.219-0.035c0.06-0.023,0.115-0.046,0.162-0.069
							c0.045-0.023,0.08-0.046,0.114-0.058c0.033-0.023,0.058-0.034,0.08-0.034c0.023,0,0.045,0.011,0.07,0.034l0.092,0.127
							c-0.047,0.046-0.092,0.092-0.149,0.138c-0.06,0.035-0.115,0.069-0.185,0.092s-0.139,0.046-0.207,0.058
							c-0.069,0.012-0.139,0.023-0.219,0.023c-0.139,0-0.254-0.023-0.371-0.069c-0.113-0.046-0.205-0.115-0.299-0.196
							c-0.078-0.092-0.148-0.196-0.195-0.323c-0.045-0.126-0.067-0.276-0.067-0.449c0-0.138,0.022-0.265,0.06-0.38
							c0.045-0.115,0.102-0.219,0.184-0.311c0.08-0.081,0.172-0.149,0.287-0.207c0.115-0.046,0.242-0.069,0.379-0.069
							C26.467,3.938,26.582,3.961,26.674,3.995 M25.971,4.33c-0.09,0.092-0.15,0.23-0.172,0.391h1.059
							c0-0.081-0.012-0.149-0.032-0.219C26.8,4.433,26.777,4.375,26.73,4.33c-0.045-0.046-0.092-0.081-0.147-0.116
							c-0.06-0.023-0.129-0.034-0.207-0.034C26.201,4.191,26.063,4.237,25.971,4.33"/>
						<path fill="#FFFFFF" d="M27.895,3.236l0.31,0.552c0.014,0.023,0.024,0.023,0.047,0.023h0.015c0.021,0,0.032-0.011,0.045-0.023
							l0.299-0.552c0,0.022,0,0.034,0,0.057v0.564c-0.045,0.011-0.068,0.011-0.08,0.011s-0.021,0.012-0.021,0.023v0.058h0.299V3.892
							c0-0.011-0.012-0.023-0.024-0.023c-0.011,0-0.033-0.011-0.068-0.011V3.144c0,0,0.022,0,0.068-0.012
							c0.014,0,0.024-0.012,0.024-0.023V3.051h-0.174c-0.012,0-0.023,0-0.023,0L28.6,3.062l-0.301,0.542
							c-0.012,0.023-0.023,0.046-0.023,0.069c-0.01-0.034-0.022-0.046-0.022-0.069l-0.312-0.542l-0.01-0.011c0,0-0.014,0-0.024,0
							h-0.173v0.058c0,0.011,0.013,0.023,0.023,0.023c0.01,0,0.035,0.012,0.07,0.012v0.702l-0.07,0.012
							c-0.012,0-0.023,0.011-0.023,0.023v0.058h0.302V3.88c0-0.012,0-0.023-0.013-0.023c-0.014,0-0.035-0.012-0.082-0.012V3.293
							C27.895,3.27,27.895,3.247,27.895,3.236z M27.631,3.051h-0.047h-0.668v0.195h0.057c0.012,0,0.023,0,0.023-0.011
							c0-0.012,0-0.035,0.012-0.081h0.207v0.691c-0.035,0.012-0.057,0.012-0.068,0.012c-0.014,0-0.022,0.011-0.022,0.023v0.058
							h0.299V3.88c0-0.012,0-0.023-0.012-0.023c-0.013,0-0.035-0.012-0.058-0.012h-0.012v-0.69h0.207
							c0,0.046,0.012,0.069,0.012,0.081c0,0.011,0.01,0.011,0.023,0.011h0.057V3.051H27.631z"/>
					</g>
				</g>
			</g>
		</g>
	</g>
</g>
</svg>
