<?xml version="1.0" encoding="UTF-8" standalone="no"?>
<!-- Created with Inkscape (http://www.inkscape.org/) -->

<svg
   xmlns:dc="http://purl.org/dc/elements/1.1/"
   xmlns:cc="http://creativecommons.org/ns#"
   xmlns:rdf="http://www.w3.org/1999/02/22-rdf-syntax-ns#"
   xmlns:svg="http://www.w3.org/2000/svg"
   xmlns="http://www.w3.org/2000/svg"
   xmlns:xlink="http://www.w3.org/1999/xlink"
   xmlns:sodipodi="http://sodipodi.sourceforge.net/DTD/sodipodi-0.dtd"
   xmlns:inkscape="http://www.inkscape.org/namespaces/inkscape"
   width="13.000005mm"
   height="27.467405mm"
   viewBox="0 0 46.063008 97.325449"
   id="svg8424"
   version="1.1"
   inkscape:version="0.91 r13725"
   sodipodi:docname="bluetooth_module.svg">
  <defs
     id="defs8426">
    <linearGradient
       gradientTransform="matrix(0.70448949,0,0,0.87500004,534.56653,-394.1515)"
       xlink:href="#linearGradient8859-8"
       id="linearGradient5867"
       y1="47.25"
       x1="31.950001"
       y2="43.650002"
       x2="31.950001"
       gradientUnits="userSpaceOnUse" />
    <linearGradient
       id="linearGradient8859-8">
      <stop
         offset="0"
         style="stop-color:#cccccc;stop-opacity:1"
         id="stop8861-4" />
      <stop
         offset="0.25000012"
         style="stop-color:#e0e0e0;stop-opacity:1"
         id="stop8863-1" />
      <stop
         offset="1"
         style="stop-color:#494949;stop-opacity:1"
         id="stop8865-3" />
    </linearGradient>
    <linearGradient
       gradientTransform="matrix(0.70448949,0,0,0.87500004,529.2168,-394.1515)"
       xlink:href="#linearGradient8859-8"
       id="linearGradient5864"
       y1="47.25"
       x1="31.950001"
       y2="43.650002"
       x2="31.950001"
       gradientUnits="userSpaceOnUse" />
    <linearGradient
       gradientTransform="matrix(0.70448949,0,0,0.87500004,523.86706,-394.1515)"
       xlink:href="#linearGradient8859-8"
       id="linearGradient5861"
       y1="47.25"
       x1="31.950001"
       y2="43.650002"
       x2="31.950001"
       gradientUnits="userSpaceOnUse" />
    <linearGradient
       gradientTransform="matrix(0.70448949,0,0,0.87500004,518.51733,-394.1515)"
       xlink:href="#linearGradient8859-8"
       id="linearGradient5858"
       y1="47.25"
       x1="31.950001"
       y2="43.650002"
       x2="31.950001"
       gradientUnits="userSpaceOnUse" />
    <linearGradient
       gradientTransform="matrix(0.70448949,0,0,0.87500004,513.16759,-394.1515)"
       xlink:href="#linearGradient8859-8"
       id="linearGradient5855"
       y1="47.25"
       x1="31.950001"
       y2="43.650002"
       x2="31.950001"
       gradientUnits="userSpaceOnUse" />
    <linearGradient
       gradientTransform="matrix(0.70448949,0,0,0.87500004,507.81786,-394.1515)"
       xlink:href="#linearGradient8859-8"
       id="linearGradient5852"
       y1="47.25"
       x1="31.950001"
       y2="43.650002"
       x2="31.950001"
       gradientUnits="userSpaceOnUse" />
    <linearGradient
       gradientTransform="matrix(0.70448949,0,0,0.87500004,502.46812,-394.1515)"
       xlink:href="#linearGradient8859-8"
       id="linearGradient5849"
       y1="47.25"
       x1="31.950001"
       y2="43.650002"
       x2="31.950001"
       gradientUnits="userSpaceOnUse" />
    <linearGradient
       gradientTransform="matrix(0.70448949,0,0,0.87500004,497.11839,-394.1515)"
       xlink:href="#linearGradient8859-8"
       id="linearGradient5846"
       y1="47.25"
       x1="31.950001"
       y2="43.650002"
       x2="31.950001"
       gradientUnits="userSpaceOnUse" />
    <linearGradient
       gradientTransform="matrix(0.70448949,0,0,0.87500004,491.76865,-394.1515)"
       xlink:href="#linearGradient8859-8"
       id="linearGradient5843"
       y1="47.25"
       x1="31.950001"
       y2="43.650002"
       x2="31.950001"
       gradientUnits="userSpaceOnUse" />
    <linearGradient
       gradientTransform="matrix(0.70448949,0,0,0.87500004,486.41892,-394.1515)"
       xlink:href="#linearGradient8859-8"
       id="linearGradient5840"
       y1="47.25"
       x1="31.950001"
       y2="43.650002"
       x2="31.950001"
       gradientUnits="userSpaceOnUse" />
    <linearGradient
       gradientTransform="matrix(0.70448949,0,0,0.87500004,481.06918,-394.1515)"
       xlink:href="#linearGradient8859-8"
       id="linearGradient5837"
       y1="47.25"
       x1="31.950001"
       y2="43.650002"
       x2="31.950001"
       gradientUnits="userSpaceOnUse" />
    <linearGradient
       gradientTransform="matrix(0.70448949,0,0,0.87500004,475.71945,-394.1515)"
       xlink:href="#linearGradient8859-8"
       id="linearGradient5834"
       y1="47.25"
       x1="31.950001"
       y2="43.650002"
       x2="31.950001"
       gradientUnits="userSpaceOnUse" />
    <linearGradient
       gradientTransform="matrix(0.70448949,0,0,0.87500004,470.36971,-394.1515)"
       xlink:href="#linearGradient8859-8"
       id="linearGradient5831"
       y1="47.25"
       x1="31.950001"
       y2="43.650002"
       x2="31.950001"
       gradientUnits="userSpaceOnUse" />
    <linearGradient
       gradientTransform="matrix(0.88888593,0,0,0.62500004,374.5501,-45.281192)"
       xlink:href="#linearGradient8859-8"
       id="linearGradient5804"
       y1="47.25"
       x1="31.950001"
       y2="43.650002"
       x2="31.950001"
       gradientUnits="userSpaceOnUse" />
    <linearGradient
       gradientTransform="matrix(0.88888593,0,0,0.62500004,367.8001,-45.281192)"
       xlink:href="#linearGradient8859-8"
       id="linearGradient5806"
       y1="47.25"
       x1="31.950001"
       y2="43.650002"
       x2="31.950001"
       gradientUnits="userSpaceOnUse" />
    <linearGradient
       gradientTransform="matrix(0.88888593,0,0,0.62500004,361.0501,-45.281192)"
       xlink:href="#linearGradient8859-8"
       id="linearGradient5808"
       y1="47.25"
       x1="31.950001"
       y2="43.650002"
       x2="31.950001"
       gradientUnits="userSpaceOnUse" />
    <linearGradient
       gradientTransform="matrix(0.88888593,0,0,0.62500004,354.3001,-45.281192)"
       xlink:href="#linearGradient8859-8"
       id="linearGradient5810"
       y1="47.25"
       x1="31.950001"
       y2="43.650002"
       x2="31.950001"
       gradientUnits="userSpaceOnUse" />
    <linearGradient
       gradientTransform="matrix(0.88888593,0,0,0.62500004,347.5501,-45.281192)"
       xlink:href="#linearGradient8859-8"
       id="linearGradient5812"
       y1="47.25"
       x1="31.950001"
       y2="43.650002"
       x2="31.950001"
       gradientUnits="userSpaceOnUse" />
    <linearGradient
       gradientTransform="matrix(0.88888593,0,0,0.62500004,340.8001,-45.281192)"
       xlink:href="#linearGradient8859-8"
       id="linearGradient5814"
       y1="47.25"
       x1="31.950001"
       y2="43.650002"
       x2="31.950001"
       gradientUnits="userSpaceOnUse" />
    <linearGradient
       gradientTransform="matrix(0.88888593,0,0,0.62500004,334.0501,-45.281192)"
       xlink:href="#linearGradient8859-8"
       id="linearGradient5816"
       y1="47.25"
       x1="31.950001"
       y2="43.650002"
       x2="31.950001"
       gradientUnits="userSpaceOnUse" />
    <linearGradient
       gradientTransform="matrix(0.88888593,0,0,0.62500004,327.3001,-45.281192)"
       xlink:href="#linearGradient8859-8"
       id="linearGradient5818"
       y1="47.25"
       x1="31.950001"
       y2="43.650002"
       x2="31.950001"
       gradientUnits="userSpaceOnUse" />
    <linearGradient
       gradientTransform="matrix(0.88888593,0,0,0.62500004,320.5501,-45.281192)"
       xlink:href="#linearGradient8859-8"
       id="linearGradient5820"
       y1="47.25"
       x1="31.950001"
       y2="43.650002"
       x2="31.950001"
       gradientUnits="userSpaceOnUse" />
    <linearGradient
       gradientTransform="matrix(0.88888593,0,0,0.62500004,313.8001,-45.281192)"
       xlink:href="#linearGradient8859-8"
       id="linearGradient5822"
       y1="47.25"
       x1="31.950001"
       y2="43.650002"
       x2="31.950001"
       gradientUnits="userSpaceOnUse" />
    <linearGradient
       gradientTransform="matrix(0.88888593,0,0,0.62500004,307.0501,-45.281192)"
       xlink:href="#linearGradient8859-8"
       id="linearGradient5824"
       y1="47.25"
       x1="31.950001"
       y2="43.650002"
       x2="31.950001"
       gradientUnits="userSpaceOnUse" />
    <linearGradient
       gradientTransform="matrix(0.88888593,0,0,0.62500004,300.3001,-45.281192)"
       xlink:href="#linearGradient8859-8"
       id="linearGradient5826"
       y1="47.25"
       x1="31.950001"
       y2="43.650002"
       x2="31.950001"
       gradientUnits="userSpaceOnUse" />
    <linearGradient
       gradientTransform="matrix(0.88888593,0,0,0.62500004,293.5501,-45.281192)"
       xlink:href="#linearGradient8859-8"
       id="linearGradient5828"
       y1="47.25"
       x1="31.950001"
       y2="43.650002"
       x2="31.950001"
       gradientUnits="userSpaceOnUse" />
    <linearGradient
       gradientTransform="matrix(0.70448949,0,0,0.62500004,380.77348,-45.281192)"
       xlink:href="#linearGradient8859-8"
       id="linearGradient5895"
       y1="47.25"
       x1="31.950001"
       y2="43.650002"
       x2="31.950001"
       gradientUnits="userSpaceOnUse" />
    <linearGradient
       gradientTransform="matrix(0.70448949,0,0,0.62500004,375.42375,-45.281192)"
       xlink:href="#linearGradient8859-8"
       id="linearGradient5897"
       y1="47.25"
       x1="31.950001"
       y2="43.650002"
       x2="31.950001"
       gradientUnits="userSpaceOnUse" />
    <linearGradient
       gradientTransform="matrix(0.70448949,0,0,0.62500004,370.07401,-45.281192)"
       xlink:href="#linearGradient8859-8"
       id="linearGradient5899"
       y1="47.25"
       x1="31.950001"
       y2="43.650002"
       x2="31.950001"
       gradientUnits="userSpaceOnUse" />
    <linearGradient
       gradientTransform="matrix(0.70448949,0,0,0.62500004,364.72428,-45.281192)"
       xlink:href="#linearGradient8859-8"
       id="linearGradient5901"
       y1="47.25"
       x1="31.950001"
       y2="43.650002"
       x2="31.950001"
       gradientUnits="userSpaceOnUse" />
    <linearGradient
       gradientTransform="matrix(0.70448949,0,0,0.62500004,359.37454,-45.281192)"
       xlink:href="#linearGradient8859-8"
       id="linearGradient5903"
       y1="47.25"
       x1="31.950001"
       y2="43.650002"
       x2="31.950001"
       gradientUnits="userSpaceOnUse" />
    <linearGradient
       gradientTransform="matrix(0.70448949,0,0,0.62500004,354.02481,-45.281192)"
       xlink:href="#linearGradient8859-8"
       id="linearGradient5905"
       y1="47.25"
       x1="31.950001"
       y2="43.650002"
       x2="31.950001"
       gradientUnits="userSpaceOnUse" />
    <linearGradient
       gradientTransform="matrix(0.70448949,0,0,0.62500004,348.67507,-45.281192)"
       xlink:href="#linearGradient8859-8"
       id="linearGradient5907"
       y1="47.25"
       x1="31.950001"
       y2="43.650002"
       x2="31.950001"
       gradientUnits="userSpaceOnUse" />
    <linearGradient
       gradientTransform="matrix(0.70448949,0,0,0.62500004,343.32534,-45.281192)"
       xlink:href="#linearGradient8859-8"
       id="linearGradient5909"
       y1="47.25"
       x1="31.950001"
       y2="43.650002"
       x2="31.950001"
       gradientUnits="userSpaceOnUse" />
    <radialGradient
       fx="58.5"
       fy="22.5"
       cx="58.5"
       cy="22.5"
       xlink:href="#linearGradient7410"
       r="1.125"
       id="radialGradient7408"
       gradientUnits="userSpaceOnUse"
       gradientTransform="matrix(1.4999995,0,0,1.5,325.90656,432.19614)" />
    <linearGradient
       id="linearGradient7410">
      <stop
         offset="0"
         style="stop-color:#cccccc;stop-opacity:1"
         id="stop7412" />
      <stop
         offset="0.40000001"
         style="stop-color:#e0e0e0;stop-opacity:1"
         id="stop7414" />
      <stop
         offset="1"
         style="stop-color:#494949;stop-opacity:1"
         id="stop7416" />
    </linearGradient>
    <linearGradient
       gradientTransform="matrix(1,0,0,0.75688073,337.95783,488.36186)"
       xlink:href="#linearGradient14878-1"
       id="linearGradient5689"
       y1="58.5"
       x1="9"
       y2="36"
       x2="69.75"
       gradientUnits="userSpaceOnUse" />
    <linearGradient
       id="linearGradient14878-1">
      <stop
         offset="0"
         style="stop-color:#b3b3b3;stop-opacity:1"
         id="stop14880-7" />
      <stop
         offset="0.25"
         style="stop-color:#939393;stop-opacity:1"
         id="stop14900-4" />
      <stop
         offset="0.5"
         style="stop-color:#d3d3d3;stop-opacity:1"
         id="stop14884-0" />
      <stop
         offset="0.75"
         style="stop-color:#969696;stop-opacity:1"
         id="stop14886-9" />
      <stop
         offset="1"
         style="stop-color:#909090;stop-opacity:1"
         id="stop14882-4" />
    </linearGradient>
    <linearGradient
       gradientTransform="matrix(1,0,0,0.75688073,337.95783,488.36186)"
       xlink:href="#linearGradient14878-1"
       id="linearGradient5691"
       y1="11.25"
       x1="11.25"
       y2="94.5"
       x2="67.5"
       gradientUnits="userSpaceOnUse" />
  </defs>
  <sodipodi:namedview
     id="base"
     pagecolor="#ffffff"
     bordercolor="#666666"
     borderopacity="1.0"
     inkscape:pageopacity="0.0"
     inkscape:pageshadow="2"
     inkscape:zoom="1.91875"
     inkscape:cx="-57.483912"
     inkscape:cy="111.74559"
     inkscape:document-units="mm"
     inkscape:current-layer="layer1"
     showgrid="false"
     fit-margin-top="0"
     fit-margin-left="0"
     fit-margin-right="0"
     fit-margin-bottom="0"
     inkscape:window-width="1463"
     inkscape:window-height="764"
     inkscape:window-x="272"
     inkscape:window-y="60"
     inkscape:window-maximized="0"
     showborder="false" />
  <metadata
     id="metadata8429">
    <rdf:RDF>
      <cc:Work
         rdf:about="">
        <dc:format>image/svg+xml</dc:format>
        <dc:type
           rdf:resource="http://purl.org/dc/dcmitype/StillImage" />
        <dc:title></dc:title>
      </cc:Work>
    </rdf:RDF>
  </metadata>
  <g
     inkscape:label="Layer 1"
     inkscape:groupmode="layer"
     id="layer1"
     transform="translate(-372.58632,-443.40019)">
    <g
       id="g4255">
      <rect
         id="rect6353"
         style="fill:#000080;fill-opacity:1;stroke:none;stroke-width:0.38387066;stroke-linecap:butt;stroke-linejoin:miter;stroke-miterlimit:4;stroke-dasharray:none;stroke-dashoffset:0;stroke-opacity:1"
         height="80.645134"
         y="460.08051"
         x="372.58633"
         width="46.062992" />
      <rect
         width="45.985504"
         x="372.62506"
         y="443.43893"
         height="19.19492"
         style="display:inline;fill:#a05a2c;stroke:#000000;stroke-width:0.07748988;stroke-linecap:butt;stroke-linejoin:round;stroke-miterlimit:4;stroke-dasharray:none;stroke-dashoffset:0;stroke-opacity:1"
         id="rect7385" />
      <path
         style="color:#000000;display:inline;overflow:visible;visibility:visible;fill:none;stroke:#ffdd8b;stroke-width:1.35000002;stroke-linecap:round;stroke-linejoin:round;stroke-miterlimit:4;stroke-dasharray:none;stroke-dashoffset:0;stroke-opacity:1;marker:none;enable-background:accumulate"
         id="path7388"
         d="m 413.65653,465.94614 0,-20.25 -5.4,0 0,15.75 -3.6,0 0,-15.75 -5.4,0 0,15.75 -3.6,0 0,-15.75 -5.4,0 0,15.75 -3.6,0 0,-15.75 -11.25,0"
         inkscape:connector-curvature="0" />
      <path
         style="fill:url(#radialGradient7408);fill-opacity:1;stroke:none"
         id="path7390"
         d="m 415.00653,465.94614 a 1.35,1.3500004 0 1 1 -2.7,0 1.35,1.3500004 0 1 1 2.7,0 z"
         inkscape:connector-curvature="0" />
      <rect
         rx="1.77081"
         width="43.563732"
         x="373.89798"
         y="463.91922"
         height="75.791924"
         style="fill:#cccccc;fill-opacity:1;stroke:#b9b9b9;stroke-width:0.38917574;stroke-linecap:butt;stroke-linejoin:miter;stroke-miterlimit:4;stroke-dasharray:none;stroke-dashoffset:0;stroke-opacity:1"
         id="rect5621" />
      <g
         transform="matrix(0,1.3056165,-1.3056165,0,1074.0706,214.10555)"
         id="g7435">
        <path
           style="fill:#2e3192"
           inkscape:connector-curvature="0"
           d="m 247.60577,534.16368 c 0,0.994 -0.806,1.8 -1.8,1.8 l -50.4,0 c -0.994,0 -1.8,-0.806 -1.8,-1.8 l 0,-28.801 c 0,-0.994 0.806,-1.8 1.8,-1.8 l 50.4,0 c 0.994,0 1.8,0.806 1.8,1.8 l 0,28.801 z"
           id="path6499" />
        <path
           style="fill:#ffffff"
           inkscape:connector-curvature="0"
           d="m 223.30277,510.33268 0,1.092 c 0,0.737 -0.364,1.102 -1.102,1.102 l -1.481,0 0,-5.929 1.464,0 c 0.736,0 1.101,0.364 1.101,1.102 l 0,0.872 c 0,0.525 -0.178,0.787 -0.508,0.906 0.356,0.117 0.526,0.371 0.526,0.855 m -1.254,-2.939 -0.432,0 0,1.728 0.398,0 c 0.254,0 0.373,-0.119 0.373,-0.373 l 0,-1.017 c 0.001,-0.228 -0.111,-0.338 -0.339,-0.338 m -0.432,4.336 0.449,0 c 0.229,0 0.338,-0.11 0.338,-0.339 l 0,-1.127 c 0,-0.254 -0.118,-0.372 -0.372,-0.372 l -0.415,0 0,1.838 z"
           id="path6501" />
        <polygon
           style="fill:#ffffff"
           points="106.383,152.033 106.383,152.854 104.478,152.854 104.478,146.925 105.384,146.925 105.384,152.033 "
           id="polygon6503"
           transform="translate(119.33377,359.67168)" />
        <path
           style="fill:#ffffff"
           inkscape:connector-curvature="0"
           d="m 228.70677,511.47468 c 0,0.737 -0.364,1.102 -1.101,1.102 l -0.44,0 c -0.737,0 -1.101,-0.364 -1.101,-1.102 l 0,-4.878 0.905,0 0,4.836 c 0,0.237 0.11,0.348 0.348,0.348 l 0.144,0 c 0.229,0 0.339,-0.11 0.339,-0.348 l 0,-4.836 0.906,0 0,4.878 z"
           id="path6505" />
        <polygon
           style="fill:#ffffff"
           points="110.814,147.748 110.814,149.424 111.881,149.424 111.881,150.246 110.814,150.246 110.814,152.033 111.94,152.033 111.94,152.854 109.908,152.854 109.908,146.925 111.924,146.925 111.924,147.748 "
           id="polygon6507"
           transform="translate(119.33377,359.67168)" />
        <polygon
           style="fill:#ffffff"
           points="114.354,149.458 114.354,150.28 113.33,150.28 113.33,152.854 112.424,152.854 112.424,146.925 114.397,146.925 114.397,147.748 113.33,147.748 113.33,149.458 "
           id="polygon6509"
           transform="translate(119.33377,359.67168)" />
        <path
           style="fill:#ffffff"
           inkscape:connector-curvature="0"
           d="m 236.78077,510.50968 0,2.016 -0.906,0 0,-1.999 c 0,-0.263 -0.118,-0.381 -0.382,-0.381 l -0.406,0 0,2.38 -0.906,0 0,-5.929 1.49,0 c 0.737,0 1.102,0.364 1.102,1.102 l 0,1.117 c 0,0.525 -0.187,0.779 -0.516,0.915 0.371,0.102 0.524,0.33 0.524,0.779 m -1.254,-3.108 -0.44,0 0,1.956 0.406,0 c 0.255,0 0.373,-0.118 0.373,-0.363 l 0,-1.254 c 0,-0.229 -0.109,-0.339 -0.339,-0.339"
           id="path6511" />
        <path
           style="fill:#ffffff"
           inkscape:connector-curvature="0"
           d="m 239.93977,511.47468 c 0,0.737 -0.364,1.102 -1.101,1.102 l -0.44,0 c -0.737,0 -1.101,-0.364 -1.101,-1.102 l 0,-4.878 0.905,0 0,4.836 c 0,0.237 0.11,0.348 0.348,0.348 l 0.144,0 c 0.229,0 0.339,-0.11 0.339,-0.348 l 0,-4.836 0.906,0 0,4.878 z"
           id="path6513" />
        <rect
           style="fill:#ffffff"
           x="240.48376"
           y="506.59668"
           width="0.90499997"
           height="5.9289999"
           id="rect6515" />
        <polygon
           style="fill:#ffffff"
           points="124.14,147.748 124.14,152.854 123.233,152.854 123.233,147.748 122.42,147.748 122.42,146.925 124.952,146.925 124.952,147.748 "
           id="polygon6517"
           transform="translate(119.33377,359.67168)" />
        <rect
           style="fill:#ffffff"
           x="217.46977"
           y="506.61368"
           width="0.5"
           height="16.322001"
           id="rect6519" />
        <polygon
           style="fill:#ffffff"
           points="102.299,161.659 102.299,162.049 101.812,162.049 101.812,163.274 101.38,163.274 101.38,160.454 102.318,160.454 102.318,160.844 101.812,160.844 101.812,161.659 "
           id="polygon6521"
           transform="translate(119.33377,359.67168)" />
        <path
           style="fill:#ffffff"
           inkscape:connector-curvature="0"
           d="m 223.11777,521.78968 0,0.656 c 0,0.351 -0.174,0.523 -0.524,0.523 l -0.213,0 c -0.351,0 -0.524,-0.173 -0.524,-0.523 l 0,-1.82 c 0,-0.351 0.174,-0.524 0.524,-0.524 l 0.209,0 c 0.351,0 0.52,0.169 0.52,0.521 l 0,0.575 -0.423,0 0,-0.553 c 0,-0.111 -0.052,-0.164 -0.161,-0.164 l -0.072,0 c -0.113,0 -0.165,0.053 -0.165,0.164 l 0,1.782 c 0,0.112 0.052,0.165 0.165,0.165 l 0.08,0 c 0.109,0 0.161,-0.053 0.161,-0.165 l 0,-0.637 0.423,0 z"
           id="path6523" />
        <path
           style="fill:#ffffff"
           inkscape:connector-curvature="0"
           d="m 224.60977,521.78968 0,0.656 c 0,0.351 -0.173,0.523 -0.523,0.523 l -0.214,0 c -0.351,0 -0.523,-0.173 -0.523,-0.523 l 0,-1.82 c 0,-0.351 0.173,-0.524 0.523,-0.524 l 0.21,0 c 0.351,0 0.52,0.169 0.52,0.521 l 0,0.575 -0.423,0 0,-0.553 c 0,-0.111 -0.053,-0.164 -0.161,-0.164 l -0.073,0 c -0.112,0 -0.165,0.053 -0.165,0.164 l 0,1.782 c 0,0.112 0.053,0.165 0.165,0.165 l 0.081,0 c 0.108,0 0.161,-0.053 0.161,-0.165 l 0,-0.637 0.422,0 z"
           id="path6525" />
        <rect
           style="fill:#ffffff"
           x="225.36476"
           y="520.12671"
           width="0.43099999"
           height="2.819"
           id="rect6527" />
        <path
           style="fill:#ffffff"
           inkscape:connector-curvature="0"
           d="m 226.05677,520.12568 0.648,0 c 0.419,0 0.616,0.201 0.616,0.616 l 0,1.588 c 0,0.414 -0.197,0.616 -0.616,0.616 l -0.648,0 0,-2.82 z m 0.431,2.441 0.156,0 c 0.17,0 0.246,-0.081 0.246,-0.25 l 0,-1.563 c 0,-0.169 -0.076,-0.25 -0.246,-0.25 l -0.156,0 0,2.063 z"
           id="path6529" />
        <path
           style="fill:#ffffff"
           inkscape:connector-curvature="0"
           d="m 227.94777,521.27368 -0.407,0 0,-0.536 0.407,0 0,0.536 z m 0,1.672 -0.407,0 0,-0.536 0.407,0 0,0.536 z"
           id="path6531" />
        <path
           style="fill:#ffffff"
           inkscape:connector-curvature="0"
           d="m 229.90877,521.98668 0,0.459 c 0,0.351 -0.174,0.523 -0.524,0.523 l -0.189,0 c -0.35,0 -0.52,-0.173 -0.52,-0.52 l 0,-0.596 0.419,0 0,0.58 c 0,0.108 0.053,0.161 0.165,0.161 l 0.057,0 c 0.114,0 0.165,-0.053 0.165,-0.161 l 0,-0.387 c 0,-0.117 -0.04,-0.169 -0.12,-0.229 l -0.436,-0.318 c -0.193,-0.137 -0.25,-0.271 -0.25,-0.487 l 0,-0.387 c 0,-0.351 0.174,-0.524 0.524,-0.524 l 0.181,0 c 0.347,0 0.52,0.174 0.52,0.521 l 0,0.511 -0.423,0 0,-0.495 c 0,-0.108 -0.052,-0.161 -0.161,-0.161 l -0.052,0 c -0.109,0 -0.161,0.053 -0.161,0.161 l 0,0.314 c 0,0.116 0.04,0.173 0.12,0.229 l 0.436,0.318 c 0.189,0.137 0.249,0.258 0.249,0.488"
           id="path6533" />
        <path
           style="fill:#ffffff"
           inkscape:connector-curvature="0"
           d="m 230.55977,521.32568 c 0.097,-0.052 0.206,-0.084 0.335,-0.084 l 0.02,0 c 0.286,0 0.455,0.189 0.455,0.467 l 0,0.738 c 0,0.35 -0.173,0.522 -0.523,0.522 l -0.189,0 c -0.351,0 -0.523,-0.173 -0.523,-0.522 l 0,-1.821 c 0,-0.351 0.173,-0.524 0.523,-0.524 l 0.186,0 c 0.351,0 0.516,0.166 0.516,0.516 l 0,0.387 -0.415,0 0,-0.358 c 0,-0.112 -0.053,-0.165 -0.157,-0.165 l -0.068,0 c -0.104,0 -0.157,0.053 -0.157,0.165 l 0,0.679 z m 0,1.1 c 0,0.112 0.053,0.165 0.157,0.165 l 0.072,0 c 0.105,0 0.157,-0.053 0.157,-0.165 l 0,-0.633 c 0,-0.117 -0.048,-0.169 -0.165,-0.169 -0.08,0 -0.169,0.02 -0.222,0.044 l 0,0.758 z"
           id="path6535" />
        <path
           style="fill:#ffffff"
           inkscape:connector-curvature="0"
           d="m 232.33777,522.96868 -0.213,0 c -0.351,0 -0.524,-0.173 -0.524,-0.523 l 0,-1.819 c 0,-0.352 0.174,-0.525 0.524,-0.525 l 0.213,0 c 0.351,0 0.524,0.174 0.524,0.525 l 0,1.819 c 0,0.351 -0.174,0.523 -0.524,0.523 m -0.065,-2.489 -0.08,0 c -0.113,0 -0.165,0.053 -0.165,0.165 l 0,1.781 c 0,0.112 0.052,0.165 0.165,0.165 l 0.08,0 c 0.109,0 0.161,-0.053 0.161,-0.165 l 0,-1.781 c 10e-4,-0.112 -0.051,-0.165 -0.161,-0.165"
           id="path6537" />
        <path
           style="fill:#ffffff"
           inkscape:connector-curvature="0"
           d="m 234.33877,521.90168 0,0.519 c 0,0.352 -0.174,0.525 -0.523,0.525 l -0.705,0 0,-2.82 0.696,0 c 0.351,0 0.524,0.174 0.524,0.523 l 0,0.415 c 0,0.25 -0.085,0.375 -0.242,0.432 0.169,0.055 0.25,0.176 0.25,0.406 m -0.597,-1.398 -0.205,0 0,0.822 0.189,0 c 0.121,0 0.177,-0.056 0.177,-0.177 l 0,-0.483 c 0,-0.109 -0.051,-0.162 -0.161,-0.162 m -0.205,2.063 0.214,0 c 0.108,0 0.161,-0.053 0.161,-0.161 l 0,-0.536 c 0,-0.12 -0.057,-0.177 -0.178,-0.177 l -0.197,0 0,0.874 z"
           id="path6539" />
        <polygon
           style="fill:#ffffff"
           points="116.15,162.883 116.15,163.274 115.244,163.274 115.244,160.454 115.676,160.454 115.676,162.883 "
           id="polygon6541"
           transform="translate(119.33377,359.67168)" />
        <path
           style="fill:#ffffff"
           inkscape:connector-curvature="0"
           d="m 236.90477,522.44568 c 0,0.351 -0.173,0.523 -0.523,0.523 l -0.21,0 c -0.351,0 -0.523,-0.173 -0.523,-0.523 l 0,-2.32 0.431,0 0,2.301 c 0,0.112 0.053,0.166 0.166,0.166 l 0.068,0 c 0.108,0 0.161,-0.054 0.161,-0.166 l 0,-2.301 0.431,0 0,2.32 z"
           id="path6543" />
        <polygon
           style="fill:#ffffff"
           points="118.255,160.844 118.255,161.642 118.761,161.642 118.761,162.033 118.255,162.033 118.255,162.883 118.79,162.883 118.79,163.274 117.823,163.274 117.823,160.454 118.782,160.454 118.782,160.844 "
           id="polygon6545"
           transform="translate(119.33377,359.67168)" />
        <polygon
           style="fill:#ffffff"
           points="119.936,161.659 119.936,162.049 119.449,162.049 119.449,163.274 119.019,163.274 119.019,160.454 119.957,160.454 119.957,160.844 119.449,160.844 119.449,161.659 "
           id="polygon6547"
           transform="translate(119.33377,359.67168)" />
        <path
           style="fill:#ffffff"
           inkscape:connector-curvature="0"
           d="m 240.73977,521.98668 0,0.96 -0.432,0 0,-0.952 c 0,-0.125 -0.057,-0.181 -0.181,-0.181 l -0.193,0 0,1.133 -0.432,0 0,-2.821 0.709,0 c 0.351,0 0.523,0.174 0.523,0.523 l 0,0.532 c 0,0.25 -0.088,0.37 -0.245,0.435 0.178,0.049 0.251,0.157 0.251,0.371 m -0.596,-1.479 -0.209,0 0,0.931 0.193,0 c 0.12,0 0.177,-0.057 0.177,-0.173 l 0,-0.597 c 0,-0.108 -0.053,-0.161 -0.161,-0.161"
           id="path6549" />
        <path
           style="fill:#ffffff"
           inkscape:connector-curvature="0"
           d="m 242.23977,522.44568 c 0,0.351 -0.173,0.523 -0.523,0.523 l -0.21,0 c -0.351,0 -0.523,-0.173 -0.523,-0.523 l 0,-2.32 0.431,0 0,2.301 c 0,0.112 0.053,0.166 0.166,0.166 l 0.068,0 c 0.108,0 0.161,-0.054 0.161,-0.166 l 0,-2.301 0.431,0 0,2.32 z"
           id="path6551" />
        <rect
           style="fill:#ffffff"
           x="242.49577"
           y="520.12671"
           width="0.43200001"
           height="2.819"
           id="rect6553" />
        <polygon
           style="fill:#ffffff"
           points="124.583,160.844 124.583,163.274 124.152,163.274 124.152,160.844 123.766,160.844 123.766,160.454 124.97,160.454 124.97,160.844 "
           id="polygon6555"
           transform="translate(119.33377,359.67168)" />
        <path
           style="fill:#ffffff"
           inkscape:connector-curvature="0"
           d="m 198.08477,514.32668 c -0.287,0 -0.508,0.111 -0.654,0.224 l 0,-1.442 c 0,-0.047 -0.038,-0.083 -0.082,-0.083 l -0.605,0 c -0.045,0 -0.083,0.036 -0.083,0.083 l 0,5.636 c 0,0.046 0.038,0.083 0.083,0.083 l 0.605,0 c 0.044,0 0.082,-0.037 0.082,-0.083 l 0,-0.084 c 0.146,0.107 0.367,0.215 0.654,0.215 0.534,0 0.854,-0.35 0.854,-0.933 l 0,-2.683 c 0,-0.585 -0.319,-0.933 -0.854,-0.933 m -0.653,0.916 c 0.146,-0.118 0.31,-0.178 0.471,-0.178 0.19,0 0.267,0.076 0.267,0.265 l 0,2.54 c 0,0.19 -0.077,0.267 -0.267,0.267 -0.161,0 -0.325,-0.06 -0.471,-0.178 l 0,-2.716 z"
           id="path6557" />
        <path
           style="fill:#ffffff"
           inkscape:connector-curvature="0"
           d="m 200.05677,513.02468 -0.604,0 c -0.045,0 -0.083,0.036 -0.083,0.083 l 0,5.636 c 0,0.046 0.038,0.083 0.083,0.083 l 0.604,0 c 0.046,0 0.082,-0.037 0.082,-0.083 l 0,-5.636 c 0,-0.047 -0.036,-0.083 -0.082,-0.083"
           id="path6559" />
        <path
           style="fill:#ffffff"
           inkscape:connector-curvature="0"
           d="m 202.75077,514.37468 -0.603,0 c -0.045,0 -0.084,0.036 -0.084,0.083 l 0,3.503 c -0.18,0.124 -0.333,0.176 -0.497,0.176 -0.164,0 -0.225,-0.068 -0.225,-0.241 l 0,-3.438 c 0,-0.047 -0.036,-0.083 -0.082,-0.083 l -0.605,0 c -0.048,0 -0.084,0.036 -0.084,0.083 l 0,3.563 c 0,0.55 0.289,0.854 0.812,0.854 0.306,0 0.521,-0.107 0.681,-0.227 l 0,0.096 c 0,0.046 0.039,0.083 0.084,0.083 l 0.603,0 c 0.047,0 0.083,-0.037 0.083,-0.083 l 0,-4.286 c 0,-0.047 -0.036,-0.083 -0.083,-0.083"
           id="path6561" />
        <path
           style="fill:#ffffff"
           inkscape:connector-curvature="0"
           d="m 204.44277,514.32668 -0.127,0 c -0.687,0 -1.052,0.364 -1.052,1.052 l 0,2.444 c 0,0.688 0.365,1.052 1.052,1.052 l 0.127,0 c 0.689,0 1.052,-0.363 1.052,-1.052 l 0,-0.467 c 0,-0.049 -0.038,-0.086 -0.082,-0.086 l -0.588,0 c -0.048,0 -0.085,0.037 -0.085,0.086 l 0,0.491 c 0,0.209 -0.087,0.297 -0.297,0.297 l -0.112,0 c -0.207,0 -0.298,-0.088 -0.298,-0.297 l 0,-0.94 1.38,0 c 0.044,0 0.082,-0.037 0.082,-0.083 l 0,-1.445 c 0,-0.688 -0.363,-1.052 -1.052,-1.052 m -0.41,1.842 0,-0.813 c 0,-0.21 0.091,-0.299 0.298,-0.299 l 0.097,0 c 0.209,0 0.295,0.089 0.295,0.299 l 0,0.813 -0.69,0 z"
           id="path6563" />
        <path
           style="fill:#ffffff"
           inkscape:connector-curvature="0"
           d="m 207.20777,513.02468 -0.248,0 c -0.627,0 -0.947,0.317 -0.947,0.948 l 0,0.401 -0.163,0 c -0.043,0 -0.08,0.036 -0.08,0.083 l 0,0.556 c 0,0.046 0.037,0.083 0.08,0.083 l 0.163,0 0,3.647 c 0,0.046 0.039,0.083 0.083,0.083 l 0.604,0 c 0.046,0 0.082,-0.037 0.082,-0.083 l 0,-3.647 0.403,0 c 0.044,0 0.082,-0.037 0.082,-0.083 l 0,-0.556 c 0,-0.047 -0.038,-0.083 -0.082,-0.083 l -0.403,0 0,-0.426 c 0,-0.143 0.059,-0.202 0.204,-0.202 l 0.222,0 c 0.046,0 0.083,-0.038 0.083,-0.083 l 0,-0.556 c 0,-0.046 -0.037,-0.082 -0.083,-0.082"
           id="path6565" />
        <path
           style="fill:#ffffff"
           inkscape:connector-curvature="0"
           d="m 208.98777,514.33568 c -0.282,0 -0.463,0.111 -0.606,0.293 l 0,-0.171 c 0,-0.047 -0.037,-0.083 -0.083,-0.083 l -0.605,0 c -0.046,0 -0.083,0.036 -0.083,0.083 l 0,4.286 c 0,0.046 0.037,0.083 0.083,0.083 l 0.605,0 c 0.046,0 0.083,-0.037 0.083,-0.083 l 0,-3.336 c 0.159,-0.137 0.345,-0.205 0.612,-0.226 0.044,-0.002 0.076,-0.039 0.076,-0.082 l 0,-0.683 c 0,-0.044 -0.036,-0.081 -0.082,-0.081"
           id="path6567" />
        <path
           style="fill:#ffffff"
           inkscape:connector-curvature="0"
           d="m 211.59677,514.37468 -0.604,0 c -0.044,0 -0.083,0.036 -0.083,0.083 l 0,3.503 c -0.18,0.124 -0.332,0.176 -0.495,0.176 -0.164,0 -0.226,-0.068 -0.226,-0.241 l 0,-3.438 c 0,-0.047 -0.036,-0.083 -0.082,-0.083 l -0.604,0 c -0.045,0 -0.083,0.036 -0.083,0.083 l 0,3.563 c 0,0.55 0.287,0.854 0.811,0.854 0.306,0 0.52,-0.107 0.679,-0.227 l 0,0.096 c 0,0.046 0.039,0.083 0.083,0.083 l 0.604,0 c 0.046,0 0.083,-0.037 0.083,-0.083 l 0,-4.286 c 0,-0.047 -0.037,-0.083 -0.083,-0.083"
           id="path6569" />
        <path
           style="fill:#ffffff"
           inkscape:connector-curvature="0"
           d="m 212.81077,513.26168 -0.637,0 c -0.046,0 -0.083,0.038 -0.083,0.083 l 0,0.676 c 0,0.045 0.037,0.083 0.083,0.083 l 0.637,0 c 0.045,0 0.083,-0.038 0.083,-0.083 l 0,-0.676 c 0,-0.045 -0.039,-0.083 -0.083,-0.083"
           id="path6571" />
        <path
           style="fill:#ffffff"
           inkscape:connector-curvature="0"
           d="m 212.79277,514.37468 -0.604,0 c -0.044,0 -0.083,0.036 -0.083,0.083 l 0,4.286 c 0,0.046 0.039,0.083 0.083,0.083 l 0.604,0 c 0.047,0 0.083,-0.037 0.083,-0.083 l 0,-4.286 c 0,-0.047 -0.036,-0.083 -0.083,-0.083"
           id="path6573" />
        <path
           style="fill:#ffffff"
           inkscape:connector-curvature="0"
           d="m 214.62477,514.37468 -0.353,0 0,-0.633 c 0,-0.043 -0.038,-0.081 -0.081,-0.081 l -0.605,0 c -0.046,0 -0.082,0.038 -0.082,0.081 l 0,0.633 -0.204,0 c -0.046,0 -0.082,0.036 -0.082,0.083 l 0,0.556 c 0,0.046 0.036,0.083 0.082,0.083 l 0.204,0 0,3.647 c 0,0.046 0.036,0.083 0.082,0.083 l 0.605,0 c 0.043,0 0.081,-0.037 0.081,-0.083 l 0,-3.647 0.353,0 c 0.046,0 0.083,-0.037 0.083,-0.083 l 0,-0.556 c 0,-0.047 -0.037,-0.083 -0.083,-0.083"
           id="path6575" />
        <path
           style="fill:#ffffff"
           inkscape:connector-curvature="0"
           d="m 205.29477,508.84868 c -0.358,-0.728 -0.882,-1.381 -1.51,-1.902 -0.52,-0.463 -1.022,-0.849 -1.674,-1.078 1.468,0.409 2.766,1.491 3.476,2.852 0.009,-0.041 0.019,-0.08 0.021,-0.119 0.508,-3.423 -4.344,-3.274 -4.344,-3.274 l 0.01,0.015 c 0.023,0.185 0.825,4.207 4.021,3.506"
           id="path6577" />
        <path
           style="fill:#ffffff"
           inkscape:connector-curvature="0"
           d="m 206.12877,508.84868 c 0.255,-0.519 0.627,-0.984 1.076,-1.354 0.368,-0.331 0.73,-0.585 1.192,-0.747 -1.044,0.293 -1.967,1.062 -2.474,2.031 -0.005,-0.029 -0.012,-0.059 -0.016,-0.087 -0.361,-2.436 3.095,-2.329 3.095,-2.329 l -0.01,0.01 c -0.013,0.132 -0.525,2.997 -2.863,2.476"
           id="path6579" />
        <path
           style="fill:#ffffff"
           inkscape:connector-curvature="0"
           d="m 201.28077,511.49068 c 0.025,0.023 0.065,0.024 0.089,0.003 1.236,-1.082 2.821,-1.675 4.457,-1.675 1.639,0 3.22,0.593 4.457,1.675 0.013,0.01 0.027,0.016 0.043,0.016 0.017,0 0.033,-0.006 0.048,-0.019 0.073,-0.07 0.149,-0.141 0.223,-0.209 0.016,-0.012 0.025,-0.031 0.025,-0.049 0,-0.021 -0.009,-0.037 -0.025,-0.05 -1.321,-1.166 -3.013,-1.808 -4.771,-1.808 -1.757,0 -3.449,0.642 -4.77,1.808 -0.017,0.013 -0.025,0.028 -0.025,0.05 0,0.018 0.008,0.037 0.025,0.049 0.077,0.068 0.152,0.139 0.224,0.209"
           id="path6581" />
        <path
           style="fill:#ffffff"
           inkscape:connector-curvature="0"
           d="m 209.57677,512.35868 c 0.02,-0.002 0.035,-0.01 0.046,-0.026 0.062,-0.081 0.124,-0.162 0.189,-0.24 0.024,-0.027 0.021,-0.068 -0.007,-0.093 -1.106,-0.958 -2.518,-1.484 -3.978,-1.484 -1.457,0 -2.869,0.526 -3.977,1.484 -0.028,0.024 -0.03,0.065 -0.007,0.093 0.066,0.078 0.129,0.159 0.19,0.24 0.008,0.017 0.026,0.024 0.044,0.026 l 0.007,0 c 0.017,0 0.031,-0.004 0.043,-0.017 1.029,-0.893 2.345,-1.385 3.7,-1.385 1.357,0 2.671,0.492 3.701,1.385 0.013,0.013 0.033,0.019 0.049,0.017"
           id="path6583" />
        <path
           style="fill:#ffffff"
           inkscape:connector-curvature="0"
           d="m 209.02177,519.93868 c -0.008,-0.02 -0.023,-0.031 -0.044,-0.035 -0.021,-0.002 -0.042,0.004 -0.059,0.019 -0.842,0.788 -1.943,1.222 -3.092,1.222 -1.149,0 -2.248,-0.434 -3.092,-1.222 -0.016,-0.015 -0.036,-0.022 -0.059,-0.019 -0.019,0.004 -0.036,0.016 -0.045,0.035 -0.048,0.091 -0.103,0.184 -0.157,0.272 -0.015,0.027 -0.008,0.062 0.015,0.083 0.918,0.833 2.103,1.292 3.338,1.292 1.236,0 2.422,-0.459 3.34,-1.292 0.024,-0.021 0.027,-0.056 0.012,-0.083 -0.053,-0.088 -0.106,-0.181 -0.157,-0.272"
           id="path6585" />
        <path
           style="fill:#ffffff"
           inkscape:connector-curvature="0"
           d="m 210.37477,521.71868 c -0.024,-0.023 -0.065,-0.023 -0.091,-0.003 -1.237,1.081 -2.818,1.677 -4.457,1.677 -1.636,0 -3.221,-0.596 -4.457,-1.677 -0.023,-0.021 -0.064,-0.021 -0.089,0.003 -0.073,0.071 -0.15,0.143 -0.223,0.21 -0.018,0.013 -0.026,0.029 -0.026,0.05 0,0.019 0.008,0.038 0.026,0.05 1.32,1.164 3.012,1.805 4.769,1.805 1.758,0 3.453,-0.641 4.772,-1.805 0.015,-0.012 0.024,-0.031 0.024,-0.05 0,-0.021 -0.009,-0.037 -0.024,-0.05 -0.075,-0.067 -0.151,-0.138 -0.224,-0.21"
           id="path6587" />
        <path
           style="fill:#ffffff"
           inkscape:connector-curvature="0"
           d="m 201.85077,521.21068 c 1.105,0.959 2.518,1.484 3.977,1.484 1.46,0 2.872,-0.525 3.977,-1.484 0.028,-0.023 0.031,-0.064 0.008,-0.093 -0.064,-0.079 -0.127,-0.157 -0.19,-0.24 -0.009,-0.015 -0.025,-0.024 -0.045,-0.024 -0.016,-0.005 -0.037,10e-4 -0.049,0.015 -1.031,0.895 -2.344,1.387 -3.701,1.387 -1.359,0 -2.671,-0.492 -3.701,-1.387 -0.011,-0.014 -0.032,-0.02 -0.049,-0.015 -0.021,0 -0.037,0.01 -0.044,0.024 -0.062,0.083 -0.127,0.161 -0.191,0.24 -0.027,0.028 -0.02,0.069 0.008,0.093"
           id="path6589" />
        <path
           style="fill:#ffffff"
           inkscape:connector-curvature="0"
           d="m 209.16677,512.91568 c -0.918,-0.833 -2.104,-1.291 -3.34,-1.291 -1.234,0 -2.42,0.46 -3.338,1.291 -0.022,0.021 -0.029,0.056 -0.014,0.082 0.053,0.091 0.108,0.182 0.157,0.275 0.009,0.017 0.025,0.03 0.045,0.035 l 0.012,0 c 0.018,0 0.034,-0.007 0.046,-0.019 0.844,-0.79 1.944,-1.225 3.092,-1.225 1.15,0 2.25,0.435 3.093,1.225 0.017,0.014 0.037,0.021 0.059,0.019 0.02,-0.005 0.036,-0.019 0.043,-0.035 0.051,-0.094 0.104,-0.185 0.158,-0.275 0.014,-0.027 0.011,-0.062 -0.013,-0.082"
           id="path6591" />
        <path
           style="fill:#ffffff"
           inkscape:connector-curvature="0"
           d="m 193.60577,526.07368 0,8.09 c 0,0.994 0.806,1.8 1.8,1.8 l 50.4,0 c 0.994,0 1.8,-0.806 1.8,-1.8 l 0,-8.09 -54,0 z"
           id="path6593" />
        <path
           style="fill:#00adef"
           inkscape:connector-curvature="0"
           d="m 229.32977,532.51368 c -0.384,0.384 -0.911,0.62 -1.496,0.62 -0.586,0 -1.112,-0.236 -1.497,-0.62 -0.383,-0.383 -0.619,-0.91 -0.619,-1.496 0,-0.585 0.236,-1.112 0.619,-1.495 0.385,-0.385 0.911,-0.62 1.497,-0.62 0.585,0 1.112,0.235 1.496,0.62 0.082,0.082 0.157,0.172 0.226,0.266 l 0.469,-0.346 c -0.49,-0.681 -1.288,-1.124 -2.19,-1.125 -1.395,10e-4 -2.54,1.057 -2.685,2.412 l -1.025,0 0,-1.767 1.277,0 0.463,-0.577 -1.994,0 -0.289,0 0,5.252 0.543,-0.395 0,-1.936 1.025,0 c 0.145,1.354 1.29,2.41 2.685,2.41 0.902,0 1.7,-0.443 2.19,-1.124 l -0.469,-0.347 c -0.069,0.096 -0.144,0.186 -0.226,0.268"
           id="path6595" />
        <path
           style="fill:#00adef"
           inkscape:connector-curvature="0"
           d="m 227.83377,530.04868 c 0.331,10e-4 0.623,0.167 0.798,0.421 l 0.471,-0.347 c -0.281,-0.398 -0.745,-0.657 -1.269,-0.657 -0.858,0 -1.553,0.694 -1.553,1.552 0,0.858 0.694,1.552 1.553,1.552 0.523,0 0.987,-0.259 1.269,-0.656 l -0.471,-0.347 c -0.175,0.253 -0.467,0.42 -0.798,0.42 -0.535,-10e-4 -0.968,-0.434 -0.969,-0.969 0.001,-0.534 0.434,-0.967 0.969,-0.969"
           id="path6597" />
        <path
           style="fill:#00adef"
           inkscape:connector-curvature="0"
           d="m 242.18877,531.42468 c 0.179,0.851 0.934,1.474 1.838,1.474 0.087,0 0.173,-0.006 0.257,-0.017 l 0,0.814 c -0.092,0.01 -0.199,0.021 -0.293,0.021 -1.519,0 -2.689,-1.212 -2.689,-2.7 0,-1.487 1.219,-2.693 2.706,-2.693 0.093,0 0.206,0.005 0.296,0.014 l -0.003,0.84 c -0.082,-0.011 -0.188,-0.038 -0.273,-0.038 -0.898,0 -1.649,0.63 -1.835,1.472 l 1.551,0 0,0.813 -1.555,0 z"
           id="path6599" />
        <path
           style="fill:#00adef"
           inkscape:connector-curvature="0"
           d="m 239.71177,529.15668 c -0.083,-0.01 -0.172,-0.017 -0.257,-0.017 -1.038,0 -1.88,0.842 -1.88,1.88 0,1.037 0.842,1.879 1.88,1.879 0.087,0 0.173,-0.006 0.257,-0.017 l -0.002,0.814 c -0.09,0.01 -0.182,0.014 -0.274,0.014 -1.487,0 -2.693,-1.205 -2.693,-2.692 0,-1.487 1.195,-2.7 2.683,-2.7 0.094,0 0.196,0.012 0.286,0.021 l 0,0.818 z"
           id="path6601" />
        <path
           style="fill:#00adef"
           inkscape:connector-curvature="0"
           d="m 209.17577,531.88268 0,1.789 -0.607,0 0,-1.767 c 0,-0.318 -0.144,-0.463 -0.463,-0.463 l -0.447,0 0,2.23 -0.606,0 0,-5.309 1.129,0 c 0.661,0 0.986,0.327 0.986,0.986 l 0,0.985 c 0,0.479 -0.166,0.713 -0.47,0.835 0.334,0.092 0.478,0.305 0.478,0.714 m -1.017,-2.965 -0.5,0 0,1.987 0.455,0 c 0.304,0 0.447,-0.145 0.447,-0.447 l 0,-1.138 c 0,-0.273 -0.129,-0.402 -0.402,-0.402"
           id="path6603" />
        <path
           style="fill:#00adef"
           inkscape:connector-curvature="0"
           d="m 210.61477,533.71768 c -0.614,0 -0.924,-0.312 -0.924,-0.926 l 0,-2.335 c 0,-0.614 0.31,-0.926 0.924,-0.926 l 0.167,0 c 0.615,0 0.926,0.312 0.926,0.926 l 0,2.335 c 0,0.614 -0.311,0.926 -0.926,0.926 l -0.167,0 z m 0.016,-3.647 c -0.243,0 -0.364,0.121 -0.364,0.364 l 0,2.381 c 0,0.242 0.121,0.363 0.364,0.363 l 0.137,0 c 0.242,0 0.363,-0.121 0.363,-0.363 l 0,-2.381 c 0,-0.243 -0.121,-0.364 -0.363,-0.364 l -0.137,0 z"
           id="path6605" />
        <polygon
           style="fill:#00adef"
           points="95.102,168.692 95.102,174 94.496,174 94.496,171.574 93.511,171.574 93.511,174 92.903,174 92.903,168.692 93.511,168.692 93.511,171.005 94.496,171.005 94.496,168.692 "
           id="polygon6607"
           transform="translate(119.33377,359.67168)" />
        <path
           style="fill:#00adef"
           inkscape:connector-curvature="0"
           d="m 217.11177,531.95868 0,0.773 c 0,0.66 -0.325,0.986 -0.985,0.986 l -0.167,0 c -0.653,0 -0.971,-0.326 -0.971,-0.971 l 0,-1.115 0.591,0 0,1.138 c 0,0.273 0.129,0.402 0.402,0.402 l 0.121,0 c 0.274,0 0.403,-0.129 0.403,-0.402 l 0,-0.796 c 0,-0.266 -0.091,-0.38 -0.266,-0.509 l -0.743,-0.538 c -0.395,-0.28 -0.508,-0.554 -0.508,-0.985 l 0,-0.637 c 0,-0.66 0.325,-0.987 0.986,-0.987 l 0.152,0 c 0.652,0 0.97,0.327 0.97,0.972 l 0,0.955 -0.591,0 0,-0.979 c 0,-0.272 -0.129,-0.401 -0.403,-0.401 l -0.105,0 c -0.274,0 -0.403,0.129 -0.403,0.401 l 0,0.668 c 0,0.266 0.099,0.379 0.274,0.508 l 0.735,0.531 c 0.387,0.281 0.508,0.531 0.508,0.986"
           id="path6609" />
        <path
           style="fill:#00adef"
           inkscape:connector-curvature="0"
           d="m 202.23877,530.67468 c -0.019,-0.118 -0.082,-0.151 -0.237,-0.201 -0.117,-0.036 -0.903,-0.288 -0.903,-0.288 0,0 -0.548,-0.206 -0.954,0.086 -0.055,0.039 -0.111,0.084 -0.168,0.132 0.048,-0.057 0.092,-0.113 0.131,-0.168 0.293,-0.406 0.085,-0.954 0.085,-0.954 0,0 -0.252,-0.785 -0.29,-0.902 -0.05,-0.154 -0.084,-0.219 -0.201,-0.237 -0.118,-0.019 -0.17,0.032 -0.265,0.164 -0.072,0.1 -0.553,0.77 -0.553,0.77 0,0 -0.366,0.457 -0.214,0.934 0.021,0.064 0.046,0.132 0.075,0.201 -0.04,-0.063 -0.08,-0.123 -0.12,-0.178 -0.296,-0.403 -0.881,-0.375 -0.881,-0.375 0,0 -0.826,-0.003 -0.949,-0.003 -0.162,-10e-4 -0.233,0.012 -0.287,0.118 -0.054,0.106 -0.022,0.171 0.074,0.302 0.072,0.1 0.561,0.765 0.561,0.765 0,0 0.321,0.489 0.822,0.491 0.068,0 0.14,-0.003 0.213,-0.008 -0.071,0.018 -0.141,0.037 -0.205,0.058 -0.474,0.158 -0.629,0.725 -0.629,0.725 0,0 -0.258,0.782 -0.296,0.899 -0.05,0.154 -0.06,0.226 0.024,0.31 0.085,0.085 0.156,0.074 0.31,0.023 0.118,-0.038 0.901,-0.298 0.901,-0.298 0,0 0.564,-0.154 0.72,-0.63 0.022,-0.064 0.04,-0.133 0.059,-0.205 -0.005,0.073 -0.009,0.146 -0.008,0.213 0.003,0.501 0.493,0.821 0.493,0.821 0,0 0.665,0.487 0.765,0.561 0.131,0.095 0.196,0.127 0.302,0.072 0.106,-0.054 0.119,-0.125 0.118,-0.287 0,-0.123 -0.005,-0.948 -0.005,-0.948 0,0 0.027,-0.585 -0.377,-0.881 -0.054,-0.04 -0.113,-0.08 -0.177,-0.119 0.07,0.028 0.137,0.054 0.201,0.073 0.476,0.152 0.933,-0.215 0.933,-0.215 0,0 0.67,-0.482 0.77,-0.554 0.132,-0.097 0.181,-0.148 0.162,-0.267 m -2.84,-0.607 c 0.089,0.015 0.134,0.206 0.099,0.428 -0.035,0.222 -0.136,0.391 -0.226,0.376 -0.09,-0.015 -0.135,-0.205 -0.1,-0.428 0.036,-0.222 0.137,-0.39 0.227,-0.376 m -1.152,0.589 c 0.041,-0.082 0.237,-0.064 0.437,0.037 0.2,0.102 0.329,0.25 0.288,0.331 -0.041,0.081 -0.237,0.064 -0.437,-0.037 -0.201,-0.102 -0.329,-0.25 -0.288,-0.331 m 0.608,1.106 c -0.159,0.159 -0.34,0.235 -0.404,0.171 -0.065,-0.064 0.011,-0.245 0.171,-0.404 0.158,-0.159 0.338,-0.235 0.403,-0.171 0.063,0.064 -0.012,0.246 -0.17,0.404 m 0.874,0.372 c -0.082,0.042 -0.23,-0.087 -0.332,-0.287 -0.103,-0.199 -0.119,-0.396 -0.039,-0.438 0.082,-0.041 0.23,0.088 0.333,0.288 0.101,0.201 0.119,0.396 0.038,0.437 m 0.209,-0.926 c -0.222,0.036 -0.413,-0.009 -0.428,-0.098 -0.013,-0.091 0.155,-0.192 0.376,-0.228 0.222,-0.035 0.413,0.009 0.428,0.099 0.015,0.09 -0.153,0.192 -0.376,0.227"
           id="path6611" />
        <polygon
           style="fill:#ffffff"
           points="102.291,154.488 102.291,156.164 103.358,156.164 103.358,156.985 102.291,156.985 102.291,158.771 103.417,158.771 103.417,159.592 101.385,159.592 101.385,153.667 103.4,153.667 103.4,154.488 "
           id="polygon6613"
           transform="translate(119.33377,359.67168)" />
        <polygon
           style="fill:#ffffff"
           points="104.824,158.78 106.136,158.78 106.136,159.592 103.936,159.592 103.936,158.704 105.255,154.479 103.978,154.479 103.978,153.667 106.136,153.667 106.136,154.555 "
           id="polygon6615"
           transform="translate(119.33377,359.67168)" />
        <rect
           style="fill:#ffffff"
           x="225.57277"
           y="516.46368"
           width="1.5829999"
           height="0.787"
           id="rect6617" />
        <polygon
           style="fill:#ffffff"
           points="110.277,158.771 110.277,159.592 108.373,159.592 108.373,153.667 109.278,153.667 109.278,158.771 "
           id="polygon6619"
           transform="translate(119.33377,359.67168)" />
        <rect
           style="fill:#ffffff"
           x="230.03577"
           y="513.33868"
           width="0.90600002"
           height="5.9260001"
           id="rect6621" />
        <polygon
           style="fill:#ffffff"
           points="112.963,155.596 112.973,159.592 112.159,159.592 112.159,153.667 113.217,153.667 114.063,157.349 114.056,153.667 114.868,153.667 114.868,159.592 113.886,159.592 "
           id="polygon6623"
           transform="translate(119.33377,359.67168)" />
        <polygon
           style="fill:#ffffff"
           points="115.411,159.592 115.411,153.667 116.317,153.667 116.317,156.529 117.257,153.667 118.204,153.667 117.189,156.579 118.17,159.592 117.197,159.592 116.317,156.688 116.317,159.592 "
           id="polygon6625"
           transform="translate(119.33377,359.67168)" />
      </g>
    </g>
  </g>
</svg>
