<?xml version="1.0" encoding="utf-8"?>
<!-- Generator: Adobe Illustrator 23.0.2, SVG Export Plug-In . SVG Version: 6.00 Build 0)  -->
<svg version="1.2" baseProfile="tiny" id="Layer_1" xmlns="http://www.w3.org/2000/svg" xmlns:xlink="http://www.w3.org/1999/xlink"
	 x="0px" y="0px" width="5.669px" height="5.682px" viewBox="0 0 5.669 5.682" xml:space="preserve">
<g id="g3346" transform="matrix(0.94175571,0,0,0.9323048,0,0.59490537)">
</g>
<g>
	<path id="path5" fill="#B4B4B4" d="M0.768,0h4.134c0.424,0,0.768,0.367,0.768,0.821v4.041c0,0.452-0.343,0.821-0.768,0.821H0.768
		C0.344,5.682,0,5.315,0,4.862V0.82C0.001,0.367,0.344,0,0.768,0z"/>
	<path id="path7" fill="#DCDCDC" d="M4.897,0.551c0.169,0,0.307,0.147,0.307,0.327v4.023c0,0.181-0.139,0.327-0.307,0.327l-4.1,0
		c-0.169,0-0.307-0.147-0.307-0.327V0.879c0-0.181,0.139-0.327,0.307-0.327L4.897,0.551z"/>
	<g>
		<ellipse id="circle9" cx="3.841" cy="1.828" rx="0.352" ry="0.349"/>
	</g>
</g>
</svg>
