<?xml version="1.0" encoding="utf-8"?>
<!-- Generator: Adobe Illustrator 24.0.1, SVG Export Plug-In . SVG Version: 6.00 Build 0)  -->
<svg version="1.1" id="Layer_1" xmlns="http://www.w3.org/2000/svg" xmlns:xlink="http://www.w3.org/1999/xlink" x="0px" y="0px"
	 width="7.1251px" height="7.1792px" viewBox="0 0 7.1251 7.1792" enable-background="new 0 0 7.1251 7.1792" xml:space="preserve">
<g>
	<g>
		
			<rect x="3.2651" y="2.8209" transform="matrix(3.683460e-11 -1 1 3.683460e-11 -2.8065 9.9294)" fill="#DCDCDC" width="0.5926" height="7.0942"/>
		
			<rect x="3.2651" y="0.969" transform="matrix(4.297280e-11 -1 1 4.297280e-11 -0.9547 8.0775)" fill="#DCDCDC" width="0.5926" height="7.0942"/>
		
			<rect x="3.2651" y="-0.8829" transform="matrix(4.297280e-11 -1 1 4.297280e-11 0.8972 6.2257)" fill="#DCDCDC" width="0.5926" height="7.0942"/>
		
			<rect x="3.2651" y="-2.7348" transform="matrix(3.069551e-11 -1 1 3.069551e-11 2.7491 4.3738)" fill="#DCDCDC" width="0.5926" height="7.0942"/>
		
			<rect x="-0.0127" y="1.2853" transform="matrix(3.613471e-11 -1 1 3.613471e-11 -0.0287 7.1516)" fill="#333333" width="7.1482" height="4.6097"/>
	</g>
	<circle fill="#898989" cx="2.2513" cy="6.2587" r="0.5436"/>
</g>
</svg>
