<svg xmlns="http://www.w3.org/2000/svg" xmlns:xlink="http://www.w3.org/1999/xlink" width="414" height="365" viewBox="0 0 309.969 273.599"><style><![CDATA[.B{stroke-miterlimit:10}.C{fill:#231f20}.D{fill:#fff}.E{fill:#414141}.F{stroke:#231f20}.G{fill:#383838}.H{fill:#585858}.I{fill:#494848}.J{font-family:OCRA}.K{font-size:4px}.L{fill:#444}.M{fill:#b88a00}.N{fill:#b0b0b0}.O{fill:#f8ee6b}.P{fill:#707171}.Q{fill:#171818}.R{stroke-width:2}.S{stroke-linecap:round}.T{fill-rule:evenodd}]]></style><path fill="#421111" d="M.001-.001v273.6H309.97V-.001H.001zm87.862 113.358a2.13 2.13 0 0 1 2.127 2.126 2.13 2.13 0 0 1-2.127 2.127 2.13 2.13 0 0 1-2.127-2.127 2.13 2.13 0 0 1 2.127-2.126zm0 14.173a2.13 2.13 0 0 1 2.127 2.127 2.13 2.13 0 0 1-2.127 2.127 2.13 2.13 0 0 1-2.127-2.127 2.13 2.13 0 0 1 2.127-2.127zm-76.21 139.526c-2.442 0-4.422-1.98-4.422-4.422s1.98-4.422 4.422-4.422 4.422 1.98 4.422 4.422-1.98 4.422-4.422 4.422zm0-252.335C9.2 14.72 7.23 12.74 7.23 10.3s1.98-4.422 4.422-4.422 4.422 1.98 4.422 4.422-1.98 4.422-4.422 4.422zM75.6 203.556a2.13 2.13 0 0 1-2.127-2.127 2.13 2.13 0 0 1 2.127-2.127 2.13 2.13 0 0 1 2.127 2.127 2.13 2.13 0 0 1-2.127 2.127zm0-7.086a2.13 2.13 0 0 1-2.127-2.127 2.13 2.13 0 0 1 2.127-2.127 2.13 2.13 0 0 1 2.127 2.127 2.13 2.13 0 0 1-2.127 2.127zm0-7.088c-1.174 0-2.127-.95-2.127-2.127s.953-2.125 2.127-2.125 2.127.95 2.127 2.125a2.13 2.13 0 0 1-2.127 2.127zm0-7.086a2.13 2.13 0 0 1-2.127-2.127 2.13 2.13 0 0 1 2.127-2.126 2.13 2.13 0 0 1 2.127 2.126 2.13 2.13 0 0 1-2.127 2.127zm0-29.253a2.13 2.13 0 0 1-2.127-2.127 2.13 2.13 0 0 1 2.127-2.127 2.13 2.13 0 0 1 2.127 2.127 2.13 2.13 0 0 1-2.127 2.127zm0-7.085a2.13 2.13 0 0 1-2.127-2.127 2.13 2.13 0 0 1 2.127-2.127 2.13 2.13 0 0 1 2.127 2.127 2.13 2.13 0 0 1-2.127 2.127zm0-7.088a2.13 2.13 0 0 1-2.127-2.127 2.13 2.13 0 0 1 2.127-2.127 2.13 2.13 0 0 1 2.127 2.127 2.13 2.13 0 0 1-2.127 2.127zm0-7.086a2.13 2.13 0 0 1-2.127-2.127 2.13 2.13 0 0 1 2.127-2.127 2.13 2.13 0 0 1 2.127 2.127 2.13 2.13 0 0 1-2.127 2.127zm0-7.088c-1.174 0-2.127-.95-2.127-2.127s.953-2.125 2.127-2.125 2.127.95 2.127 2.125a2.13 2.13 0 0 1-2.127 2.127zm0-7.086a2.13 2.13 0 0 1-2.127-2.127 2.13 2.13 0 0 1 2.127-2.126 2.13 2.13 0 0 1 2.127 2.126 2.13 2.13 0 0 1-2.127 2.127zm10.135 26.22a2.13 2.13 0 0 1 2.127-2.127 2.13 2.13 0 0 1 2.127 2.127 2.13 2.13 0 0 1-2.127 2.127 2.13 2.13 0 0 1-2.127-2.127zm4.96 9.214a2.13 2.13 0 0 1-2.127-2.127 2.13 2.13 0 0 1 2.127-2.127 2.13 2.13 0 0 1 2.127 2.127 2.13 2.13 0 0 1-2.127 2.127zm0-14.173a2.13 2.13 0 0 1-2.127-2.127 2.13 2.13 0 0 1 2.127-2.127 2.13 2.13 0 0 1 2.127 2.127 2.13 2.13 0 0 1-2.127 2.127zm0-14.174a2.13 2.13 0 0 1-2.127-2.127 2.13 2.13 0 0 1 2.127-2.127 2.13 2.13 0 0 1 2.127 2.127 2.13 2.13 0 0 1-2.127 2.127zm208.286 142.36c-2.44 0-4.422-1.98-4.422-4.422s1.98-4.422 4.422-4.422 4.422 1.98 4.422 4.422-1.98 4.422-4.422 4.422zm0-252.335c-2.44 0-4.422-1.98-4.422-4.422s1.98-4.422 4.422-4.422 4.422 1.98 4.422 4.422-1.98 4.422-4.422 4.422z"/><path d="M59.4 250.92h18v18h-18z" class="P"/><g class="Q"><circle cx="68.399" cy="259.921" r="3.917"/><circle cx="74.735" cy="265.796" r="1.333"/><circle cx="61.9" cy="265.796" r="1.334"/><circle cx="61.9" cy="253.919" r="1.334"/><circle cx="74.735" cy="253.919" r="1.333"/></g><path d="M29.16 250.92h18v18h-18z" class="P"/><g class="Q"><circle cx="38.16" cy="259.922" r="3.917"/><circle cx="44.495" cy="265.797" r="1.333"/><circle cx="31.66" cy="265.797" r="1.334"/><circle cx="31.66" cy="253.92" r="1.334"/><circle cx="44.495" cy="253.92" r="1.333"/></g><path d="M291.24 26.28h18v18h-18z" class="P"/><g class="Q"><circle cx="300.239" cy="35.282" r="3.917"/><circle cx="306.575" cy="41.157" r="1.333"/><circle cx="293.74" cy="41.157" r="1.334"/><circle cx="293.74" cy="29.28" r="1.334"/><circle cx="306.575" cy="29.28" r="1.333"/></g><path fill="#06c" d="M.575 215.873h15.732v29.055H.575z"/><path fill="#005cb8" d="M21.55 219.505v21.79l-5.244 3.63v-29.054z"/><g fill="#ccc"><ellipse cx="8.586" cy="222.127" rx="5.244" ry="3.632"/><ellipse cx="8.588" cy="238.471" rx="5.244" ry="3.632"/></g><g class="B"><path stroke="#000" d="M3.49 230.4h10.488" class="R S"/><g fill="none" stroke="#fff"><path d="M6.838 222.245h3.496"/><path d="M8.68 223.44v-2.522m-2.133 17.67h3.496"/><path d="M8.387 239.783v-2.522"/></g></g><path fill="#06c" d="M.575 26.513h15.732v29.055H.575z"/><path fill="#005cb8" d="M21.55 30.146v21.79l-5.244 3.63V26.513z"/><g fill="#ccc"><ellipse cx="8.586" cy="32.768" rx="5.244" ry="3.632"/><ellipse cx="8.588" cy="49.111" rx="5.244" ry="3.632"/></g><g class="B"><path stroke="#000" d="M3.49 41.04h10.488" class="R S"/><g fill="none" stroke="#fff"><path d="M6.838 32.885h3.496"/><path d="M8.68 34.08v-2.52M6.547 49.228h3.496"/><path d="M8.387 50.423V47.9"/></g></g><path d="M0 95.73h32.145v15.902H0z" class="L"/><g fill="none" class="B R"><path stroke="#ccc" d="M27.898 99.26l-.15 8.504"/><path stroke="#000" d="M9.072 100.18v6.166"/></g><g stroke="#333" class="B"><path fill="none" d="M10.24 100.18v6.166m-2.667-6.166v6.166"/><path fill="none" stroke-width="3" d="M10.74 103.512h16"/></g><path d="M5.528 62.156h31.935v20.818H5.528zm-8.43-2.093h8.43v25.313h-8.43z" class="Q"/><path d="M50.715 62.4h9.45v6.968h-9.45zm11.81 5.564l-2.36 1.404V62.4l2.36 1.352zm-14.172-4.16l2.36-1.404v6.967l-2.36-1.35z" class="L"/><path d="M51.853 65.063h1.312v1.663h-1.312zm5.774-.001h1.312v1.664h-1.312z" class="M"/><path d="M50.715 69.327h9.45v6.966h-9.45zm11.81 5.573l-2.36 1.402v-6.965l2.36 1.35zm-14.172-4.17l2.36-1.403v6.965l-2.36-1.35z" class="L"/><path d="M51.853 71.978h1.312v1.664h-1.312zm5.774 0h1.312v1.664h-1.312z" class="M"/><path d="M50.715 76.398h9.45v6.967h-9.45zm11.81 5.562l-2.36 1.405v-6.967l2.36 1.352zM48.354 77.8l2.36-1.402v6.967l-2.36-1.352z" class="L"/><path d="M51.853 79.048h1.312v1.664h-1.312zm5.774 0h1.312v1.664h-1.312z" class="M"/><path d="M50.715 83.365h9.45v6.967h-9.45zm11.81 5.562l-2.36 1.405v-6.967l2.36 1.35zM48.354 84.77l2.36-1.404v6.967l-2.36-1.352z" class="L"/><path d="M51.853 86.017h1.312v1.662h-1.312zm5.774-.002h1.312v1.664h-1.312z" class="M"/><path d="M227.24 96.795h6.968v9.45h-6.968zm5.563-2.36l1.405 2.36h-6.968l1.352-2.36zm-4.16 14.172l-1.404-2.36h6.968l-1.352 2.36z" class="L"/><path d="M229.892 103.795h1.663v1.312h-1.663zm-.002-5.775h1.664v1.313H229.9z" class="M"/><path d="M234.156 96.795h6.966v9.45h-6.966zm5.564-2.36l1.403 2.36h-6.966l1.35-2.36zm-4.16 14.172l-1.403-2.36h6.966l-1.352 2.36z" class="L"/><path d="M236.807 103.795h1.664v1.312h-1.664zm0-5.775h1.664v1.313h-1.664z" class="M"/><path d="M241.227 96.795h6.967v9.45h-6.967zm5.573-2.36l1.404 2.36h-6.967l1.352-2.36zm-4.17 14.172l-1.402-2.36h6.967l-1.352 2.36z" class="L"/><path d="M243.877 103.795h1.664v1.312h-1.664zm0-5.775h1.664v1.313h-1.664z" class="M"/><path d="M248.194 96.795h6.967v9.45h-6.967zm5.562-2.36l1.405 2.36h-6.967l1.35-2.36zm-4.158 14.172l-1.404-2.36h6.967l-1.352 2.36z" class="L"/><path d="M250.846 103.795h1.662v1.312h-1.662zm-.002-5.775h1.664v1.313h-1.664z" class="M"/><path d="M227.24 160.875h6.968v9.45h-6.968zm5.563-2.36l1.405 2.36h-6.968l1.352-2.36zm-4.16 14.172l-1.404-2.36h6.968l-1.352 2.36z" class="L"/><path d="M229.892 167.875h1.663v1.312h-1.663zm-.002-5.775h1.664v1.313H229.9z" class="M"/><path d="M234.156 160.875h6.966v9.45h-6.966zm5.564-2.36l1.403 2.36h-6.966l1.35-2.36zm-4.16 14.172l-1.403-2.36h6.966l-1.352 2.36z" class="L"/><path d="M236.807 167.875h1.664v1.312h-1.664zm0-5.775h1.664v1.313h-1.664z" class="M"/><path d="M241.227 160.875h6.967v9.45h-6.967zm5.573-2.36l1.404 2.36h-6.967l1.352-2.36zm-4.17 14.172l-1.402-2.36h6.967l-1.352 2.36z" class="L"/><path d="M243.877 167.875h1.664v1.312h-1.664zm0-5.775h1.664v1.313h-1.664z" class="M"/><path d="M248.194 160.875h6.967v9.45h-6.967zm5.562-2.36l1.405 2.36h-6.967l1.35-2.36zm-4.158 14.172l-1.404-2.36h6.967l-1.352 2.36z" class="L"/><path d="M250.846 167.875h1.662v1.312h-1.662zm-.002-5.775h1.664v1.313h-1.664z" class="M"/><g class="L"><path d="M23.646 43.652h7.427v3.713h-7.427z"/><path d="M29.217 41.795l1.856 1.857h-7.427l1.858-1.857zm1.856 5.57l-1.856 1.857h-3.713l-1.858-1.857z"/></g><use xlink:href="#B" class="M"/><g class="L"><path d="M23.646 36.155h7.427v3.713h-7.427z"/><path d="M29.217 34.298l1.856 1.857h-7.427l1.858-1.857zm1.856 5.57l-1.856 1.857h-3.713l-1.858-1.857z"/></g><use xlink:href="#B" y="-7.498" class="M"/><g class="L"><path d="M107.887 211.412h7.426v3.713h-7.426z"/><path d="M113.458 209.555l1.855 1.857h-7.426l1.858-1.857zm1.855 5.57l-1.855 1.857h-3.713l-1.858-1.857z"/></g><use xlink:href="#B" x="84.241" y="167.759" class="M"/><g class="L"><path d="M107.887 203.915h7.426v3.713h-7.426z"/><path d="M113.458 202.057l1.855 1.858h-7.426l1.858-1.858zm1.855 5.57l-1.855 1.857h-3.713l-1.858-1.857z"/></g><use xlink:href="#B" x="84.241" y="160.262" class="M"/><g class="L"><path d="M238.208 196.292h7.426v3.713h-7.426z"/><path d="M243.778 194.436l1.855 1.856h-7.425l1.857-1.856zm1.855 5.57l-1.855 1.858h-3.713l-1.857-1.858z"/></g><use xlink:href="#B" x="214.561" y="152.64" class="M"/><g class="L"><path d="M238.208 188.795h7.426v3.713h-7.426z"/><path d="M243.778 186.938l1.855 1.857h-7.425l1.857-1.857zm1.855 5.57l-1.855 1.857h-3.713l-1.857-1.857z"/></g><use xlink:href="#B" x="214.561" y="145.143" class="M"/><g class="L"><path d="M101.675 181.326h3.713v7.428h-3.713z"/><path d="M107.245 186.896l-1.857 1.857v-7.427l1.857 1.857zm-5.57 1.857l-1.857-1.857v-3.713l1.857-1.857z"/></g><path d="M102.875 184.205h1.313v1.668h-1.313z" class="M"/><g class="L"><path d="M109.172 181.326h3.713v7.428h-3.713z"/><path d="M114.742 186.896l-1.857 1.857v-7.427l1.857 1.857zm-5.57 1.857l-1.857-1.857v-3.713l1.857-1.857z"/></g><path d="M110.373 184.205h1.313v1.668h-1.313z" class="M"/><g class="L"><use xlink:href="#C"/><use xlink:href="#D"/><use xlink:href="#E"/></g><use xlink:href="#B" x="1.44" y="188.64" class="M"/><g class="L"><use xlink:href="#C" y="-7.498"/><use xlink:href="#F"/><path d="M32.514 228.507l-1.858 1.858h-3.713l-1.857-1.858z"/></g><use xlink:href="#B" x="1.44" y="181.142" class="M"/><g class="L"><use xlink:href="#C" x="74.88" y="-20.88"/><use xlink:href="#G"/><use xlink:href="#H"/></g><use xlink:href="#B" x="76.32" y="167.759" class="M"/><g class="L"><use xlink:href="#C" x="74.88" y="-28.377"/><path d="M105.537 202.057l1.857 1.858h-7.428l1.858-1.858z"/><use xlink:href="#H" y="-7.498"/></g><use xlink:href="#B" x="76.32" y="160.262" class="M"/><g class="L"><path d="M288.875 237.487h3.713v7.427h-3.713z"/><path d="M294.445 243.057l-1.857 1.857v-7.427l1.857 1.857zm-5.57 1.857l-1.857-1.857v-3.713l1.857-1.857z"/></g><path d="M290.075 240.366h1.313v1.668h-1.313z" class="M"/><g class="L"><path d="M296.373 237.487h3.713v7.427h-3.713z"/><path d="M301.942 243.057l-1.857 1.857v-7.427l1.857 1.857zm-5.57 1.857l-1.857-1.857v-3.713l1.857-1.857z"/></g><path d="M297.573 240.366h1.313v1.668h-1.313z" class="M"/><g class="L"><use xlink:href="#C" x="64.8" y="-198.442"/><use xlink:href="#G" x="-10.08" y="-177.561"/><use xlink:href="#H" x="-10.08" y="-177.562"/></g><use xlink:href="#B" x="66.241" y="-9.803" class="M"/><g class="L"><use xlink:href="#C" x="64.8" y="-183.455"/><use xlink:href="#G" x="-10.08" y="-162.575"/><use xlink:href="#H" x="-10.08" y="-162.575"/></g><use xlink:href="#B" x="66.241" y="5.184" class="M"/><g class="L"><use xlink:href="#C" x="64.8" y="-190.952"/><use xlink:href="#G" x="-10.08" y="-170.073"/><use xlink:href="#H" x="-10.08" y="-170.073"/></g><use xlink:href="#B" x="66.241" y="-2.313" class="M"/><g class="L"><use xlink:href="#C" x="10.8" y="-14.842"/><path d="M41.457 215.593l1.857 1.858h-7.428l1.858-1.858z"/><use xlink:href="#I"/></g><use xlink:href="#B" x="12.241" y="173.797" class="M"/><g class="L"><use xlink:href="#C" x="10.8" y="0.145"/><use xlink:href="#G" x="-64.08" y="21.025"/><use xlink:href="#I" y="14.986"/></g><use xlink:href="#B" x="12.241" y="188.784" class="M"/><g class="L"><use xlink:href="#C" x="10.8" y="-7.352"/><use xlink:href="#J"/><use xlink:href="#H" x="-64.08" y="13.527"/></g><use xlink:href="#B" x="12.241" y="181.287" class="M"/><g class="L"><use xlink:href="#C" x="18" y="-14.842"/><path d="M48.656 215.593l1.858 1.858h-7.428l1.857-1.858z"/><use xlink:href="#K"/></g><use xlink:href="#B" x="19.441" y="173.797" class="M"/><g class="L"><use xlink:href="#C" x="18" y="0.145"/><use xlink:href="#D" x="18" y="0.145"/><use xlink:href="#K" y="14.986"/></g><use xlink:href="#B" x="19.441" y="188.784" class="M"/><g class="L"><use xlink:href="#C" x="18" y="-7.352"/><use xlink:href="#F" x="18" y="0.145"/><use xlink:href="#E" x="18" y="-7.353"/></g><use xlink:href="#B" x="19.441" y="181.287" class="M"/><g class="L"><use xlink:href="#C" x="25.2" y="-14.842"/><path d="M55.856 215.593l1.858 1.858h-7.428l1.858-1.858z"/><use xlink:href="#L"/></g><use xlink:href="#B" x="26.641" y="173.797" class="M"/><g class="L"><use xlink:href="#C" x="25.2" y="0.145"/><path d="M55.856 230.58l1.858 1.857h-7.428l1.858-1.857z"/><use xlink:href="#L" y="14.986"/></g><use xlink:href="#B" x="26.641" y="188.784" class="M"/><g class="L"><use xlink:href="#C" x="25.2" y="-7.352"/><path d="M55.856 223.083l1.858 1.856h-7.428l1.858-1.856zm1.858 5.57l-1.858 1.857h-3.712l-1.858-1.857z"/></g><use xlink:href="#B" x="26.641" y="181.287" class="M"/><g class="L"><use xlink:href="#C" x="32.4" y="-14.842"/><path d="M63.057 215.593l1.857 1.858h-7.428l1.858-1.858z"/><use xlink:href="#I" x="21.6"/></g><use xlink:href="#B" x="33.841" y="173.797" class="M"/><g class="L"><use xlink:href="#C" x="32.4" y="0.145"/><use xlink:href="#G" x="-42.48" y="21.025"/><use xlink:href="#I" x="21.6" y="14.986"/></g><use xlink:href="#B" x="33.841" y="188.784" class="M"/><g class="L"><use xlink:href="#C" x="32.4" y="-7.352"/><use xlink:href="#J" x="21.6"/><use xlink:href="#H" x="-42.48" y="13.527"/></g><use xlink:href="#B" x="33.841" y="181.287" class="M"/><g class="L"><use xlink:href="#C" x="39.6" y="-14.842"/><path d="M70.256 215.593l1.858 1.858h-7.428l1.857-1.858z"/><use xlink:href="#K" x="21.6"/></g><use xlink:href="#B" x="41.041" y="173.797" class="M"/><g class="L"><use xlink:href="#C" x="39.6" y="0.145"/><use xlink:href="#D" x="39.6" y="0.145"/><use xlink:href="#K" x="21.6" y="14.986"/></g><use xlink:href="#B" x="41.041" y="188.784" class="M"/><g class="L"><use xlink:href="#C" x="39.6" y="-7.352"/><use xlink:href="#F" x="39.6" y="0.145"/><use xlink:href="#E" x="39.6" y="-7.353"/></g><use xlink:href="#B" x="41.041" y="181.287" class="M"/><g class="L"><use xlink:href="#C" x="46.8" y="-14.842"/><path d="M77.457 215.593l1.857 1.858h-7.428l1.858-1.858z"/><use xlink:href="#I" x="36"/></g><use xlink:href="#B" x="48.241" y="173.797" class="M"/><g class="L"><use xlink:href="#C" x="46.8" y="0.145"/><use xlink:href="#G" x="-28.08" y="21.025"/><use xlink:href="#I" x="36" y="14.986"/></g><use xlink:href="#B" x="48.241" y="188.784" class="M"/><g class="L"><use xlink:href="#C" x="46.8" y="-7.352"/><use xlink:href="#J" x="36"/><use xlink:href="#H" x="-28.08" y="13.527"/></g><use xlink:href="#B" x="48.241" y="181.287" class="M"/><g class="L"><use xlink:href="#C" x="54" y="-14.842"/><path d="M84.656 215.593l1.858 1.858h-7.428l1.857-1.858z"/><use xlink:href="#K" x="36"/></g><use xlink:href="#B" x="55.441" y="173.797" class="M"/><g class="L"><use xlink:href="#C" x="54" y="0.145"/><use xlink:href="#D" x="54" y="0.145"/><use xlink:href="#K" x="36" y="14.986"/></g><use xlink:href="#B" x="55.441" y="188.784" class="M"/><g class="L"><use xlink:href="#C" x="54" y="-7.352"/><use xlink:href="#F" x="54" y="0.145"/><use xlink:href="#E" x="54" y="-7.353"/></g><use xlink:href="#B" x="55.441" y="181.287" class="M"/><g class="L"><use xlink:href="#C" x="61.2" y="-14.842"/><path d="M91.856 215.593l1.858 1.858h-7.428l1.858-1.858z"/><use xlink:href="#L" x="36"/></g><use xlink:href="#B" x="62.641" y="173.797" class="M"/><g class="L"><use xlink:href="#C" x="61.2" y="0.145"/><path d="M91.856 230.58l1.858 1.857h-7.428l1.858-1.857z"/><use xlink:href="#L" x="36" y="14.986"/></g><use xlink:href="#B" x="62.641" y="188.784" class="M"/><g class="L"><use xlink:href="#C" x="61.2" y="-7.352"/><path d="M91.856 223.083l1.858 1.856h-7.428l1.858-1.856zm1.858 5.57l-1.858 1.857h-3.712l-1.858-1.857z"/></g><use xlink:href="#B" x="62.641" y="181.287" class="M"/><g class="L"><use xlink:href="#C" x="64.8" y="17.558"/><use xlink:href="#J" x="54" y="24.911"/><use xlink:href="#H" x="-10.08" y="38.438"/></g><use xlink:href="#B" x="66.241" y="206.197" class="M"/><g class="L"><use xlink:href="#C" x="64.8" y="32.544"/><use xlink:href="#J" x="54" y="39.897"/><path d="M97.314 268.55l-1.857 1.858h-3.713l-1.858-1.858z"/></g><use xlink:href="#B" x="66.241" y="221.184" class="M"/><g class="L"><use xlink:href="#C" x="64.8" y="25.048"/><use xlink:href="#G" x="-10.08" y="45.927"/><use xlink:href="#H" x="-10.08" y="45.927"/></g><use xlink:href="#B" x="66.241" y="213.687" class="M"/><g class="L"><use xlink:href="#C" x="194.4" y="17.558"/><use xlink:href="#F" x="194.4" y="25.056"/><use xlink:href="#K" x="176.4" y="32.399"/></g><use xlink:href="#B" x="195.841" y="206.197" class="M"/><g class="L"><use xlink:href="#C" x="194.4" y="32.544"/><use xlink:href="#F" x="194.4" y="40.042"/><use xlink:href="#E" x="194.4" y="32.545"/></g><use xlink:href="#B" x="195.841" y="221.184" class="M"/><g class="L"><use xlink:href="#C" x="194.4" y="25.048"/><use xlink:href="#D" x="194.4" y="25.047"/><use xlink:href="#E" x="194.4" y="25.047"/></g><use xlink:href="#B" x="195.841" y="213.687" class="M"/><g class="L"><use xlink:href="#C" x="231.84" y="-43.642"/><use xlink:href="#J" x="221.04" y="-36.289"/><use xlink:href="#H" x="156.96" y="-22.762"/></g><use xlink:href="#B" x="233.281" y="144.997" class="M"/><g class="L"><use xlink:href="#C" x="231.84" y="-28.656"/><path d="M262.497 201.78l1.857 1.855h-7.428l1.858-1.855zm1.857 5.57l-1.857 1.858h-3.713l-1.858-1.858z"/></g><use xlink:href="#B" x="233.281" y="159.984" class="M"/><g class="L"><use xlink:href="#C" x="231.84" y="-36.152"/><use xlink:href="#G" x="156.96" y="-15.272"/><path d="M264.354 199.853l-1.857 1.855h-3.713l-1.858-1.855z"/></g><use xlink:href="#B" x="233.281" y="152.487" class="M"/><g class="L"><use xlink:href="#C" x="129.6" y="17.558"/><use xlink:href="#D" x="129.6" y="17.558"/><use xlink:href="#E" x="129.6" y="17.558"/></g><use xlink:href="#B" x="131.041" y="206.197" class="M"/><g class="L"><use xlink:href="#C" x="129.6" y="32.544"/><use xlink:href="#D" x="129.6" y="32.545"/><path d="M162.114 268.55l-1.858 1.858h-3.713l-1.857-1.858z"/></g><use xlink:href="#B" x="131.041" y="221.184" class="M"/><g class="L"><use xlink:href="#C" x="129.6" y="25.046"/><use xlink:href="#F" x="129.6" y="32.544"/><path d="M162.114 261.05l-1.858 1.858h-3.713l-1.857-1.858z"/></g><use xlink:href="#B" x="131.041" y="213.687" class="M"/><g class="L"><use xlink:href="#C" x="252" y="-227.242"/><use xlink:href="#G" x="177.12" y="-206.362"/><use xlink:href="#H" x="177.12" y="-206.362"/></g><use xlink:href="#B" x="253.441" y="-38.603" class="M"/><g class="L"><use xlink:href="#C" x="252" y="-212.256"/><use xlink:href="#J" x="241.2" y="-204.903"/><use xlink:href="#H" x="177.12" y="-191.375"/></g><use xlink:href="#B" x="253.441" y="-23.616" class="M"/><g class="L"><use xlink:href="#C" x="252" y="-219.752"/><use xlink:href="#J" x="241.2" y="-212.4"/><use xlink:href="#I" x="241.2" y="-204.912"/></g><use xlink:href="#B" x="253.441" y="-31.113" class="M"/><g class="L"><path d="M300.837 97.086h3.713v7.428h-3.713z"/><path d="M306.407 102.657l-1.857 1.857v-7.428l1.857 1.858z"/><use xlink:href="#M"/></g><path d="M302.037 99.966h1.313v1.668h-1.313z" class="M"/><g class="L"><path d="M285.85 97.086h3.713v7.428h-3.713z"/><use xlink:href="#N"/><use xlink:href="#M" x="-14.987"/></g><path d="M287.05 99.966h1.313v1.668h-1.313z" class="M"/><g class="L"><path d="M293.348 97.086h3.713v7.428h-3.713z"/><use xlink:href="#N" x="7.497"/><path d="M293.348 104.514l-1.856-1.857v-3.713l1.856-1.858z"/></g><path d="M294.548 99.966h1.313v1.668h-1.313z" class="M"/><g class="L"><path d="M300.837 161.886h3.713v7.428h-3.713z"/><path d="M306.407 167.457l-1.857 1.857v-7.428l1.857 1.858z"/><use xlink:href="#M" y="64.8"/></g><path d="M302.037 164.766h1.313v1.668h-1.313z" class="M"/><g class="L"><path d="M285.85 161.886h3.713v7.428h-3.713z"/><use xlink:href="#N" y="64.8"/><use xlink:href="#M" x="-14.987" y="64.8"/></g><path d="M287.05 164.766h1.313v1.668h-1.313z" class="M"/><g class="L"><path d="M293.348 161.886h3.713v7.428h-3.713z"/><use xlink:href="#N" x="7.497" y="64.8"/><path d="M293.348 169.314l-1.856-1.857v-3.713l1.856-1.858z"/></g><path d="M294.548 164.766h1.313v1.668h-1.313z" class="M"/><g class="L"><use xlink:href="#C" x="187.2" y="-227.242"/><path d="M217.856 3.193l1.857 1.857h-7.427l1.857-1.857zm1.857 5.57l-1.857 1.857h-3.713l-1.857-1.857z"/></g><use xlink:href="#B" x="188.642" y="-38.603" class="M"/><g class="L"><use xlink:href="#C" x="187.2" y="-212.256"/><path d="M217.856 18.18l1.857 1.856h-7.427l1.857-1.856zm1.857 5.57l-1.857 1.857h-3.713l-1.857-1.857z"/></g><use xlink:href="#B" x="188.642" y="-23.616" class="M"/><g class="L"><use xlink:href="#C" x="187.2" y="-219.752"/><path d="M217.856 10.683l1.857 1.856h-7.427l1.857-1.856zm1.857 5.57l-1.857 1.856h-3.713l-1.857-1.856z"/></g><use xlink:href="#B" x="188.642" y="-31.113" class="M"/><g class="L"><use xlink:href="#C" x="122.4" y="-227.242"/><use xlink:href="#J" x="111.6" y="-219.889"/><use xlink:href="#H" x="47.52" y="-206.362"/></g><use xlink:href="#B" x="123.841" y="-38.603" class="M"/><g class="L"><use xlink:href="#C" x="122.4" y="-212.255"/><use xlink:href="#G" x="47.52" y="-191.375"/><use xlink:href="#I" x="111.6" y="-197.414"/></g><use xlink:href="#B" x="123.841" y="-23.616" class="M"/><g class="L"><use xlink:href="#C" x="122.4" y="-219.752"/><use xlink:href="#G" x="47.52" y="-198.873"/><use xlink:href="#H" x="47.52" y="-198.873"/></g><use xlink:href="#B" x="123.841" y="-31.113" class="M"/><g class="L"><use xlink:href="#C" x="57.6" y="-227.242"/><use xlink:href="#D" x="57.6" y="-227.242"/><use xlink:href="#E" x="57.6" y="-227.242"/></g><use xlink:href="#B" x="59.041" y="-38.603" class="M"/><g class="L"><use xlink:href="#C" x="57.6" y="-212.255"/><use xlink:href="#D" x="57.6" y="-212.255"/><use xlink:href="#K" x="39.6" y="-197.414"/></g><use xlink:href="#B" x="59.041" y="-23.616" class="M"/><g class="L"><use xlink:href="#C" x="57.6" y="-219.752"/><use xlink:href="#D" x="57.6" y="-219.753"/><use xlink:href="#E" x="57.6" y="-219.753"/></g><use xlink:href="#B" x="59.041" y="-31.113" class="M"/><path d="M0 167.275h16.3v19.843H0z" class="P"/><path d="M.5 169.88h8v3h-8zM.5 182.212h8v3h-8z" class="L"/><path d="M0 120.608h16.3v19.843H0z" class="P"/><path d="M.5 123.212h8v3h-8zM.5 135.545h8v3h-8z" class="L"/><use xlink:href="#O" class="N"/><path d="M21.977 157.13h2.128v2.47h-2.128z" class="O"/><use xlink:href="#O" x="14.4" class="N"/><path d="M36.376 157.13h2.128v2.47h-2.128z" class="O"/><path d="M58.977 101.52c0 1.12-.953 2.025-2.128 2.025h-4.257c-1.176 0-2.13-.906-2.13-2.025s.953-2.024 2.13-2.024h4.257c1.175 0 2.128.906 2.128 2.024z" class="N"/><path d="M53.657 100.25h2.128v2.47h-2.128z" class="O"/><path d="M12.177 158.4c0 1.12-.953 2.025-2.128 2.025H5.792c-1.176 0-2.13-.906-2.13-2.025s.953-2.024 2.13-2.024h4.257c1.175-.001 2.128.906 2.128 2.024z" class="N"/><path d="M6.856 157.13h2.128v2.47H6.856z" class="O"/><path d="M28.017 209.52c0 1.12-.953 2.025-2.128 2.025h-4.257c-1.176 0-2.13-.906-2.13-2.025s.953-2.024 2.13-2.024h4.257c1.174 0 2.128.906 2.128 2.024z" class="N"/><path d="M22.696 208.25h2.128v2.47h-2.128z" class="O"/><use xlink:href="#P" class="N"/><path d="M148.5 211.335h2.47v2.128h-2.47z" class="O"/><use xlink:href="#Q" class="N"/><path d="M167.93 211.335h2.47v2.128h-2.47z" class="O"/><use xlink:href="#P" x="12.96" class="N"/><path d="M161.45 211.335h2.47v2.128h-2.47z" class="O"/><use xlink:href="#Q" x="-12.96" class="N"/><path d="M154.97 211.335h2.47v2.128h-2.47z" class="O"/><path d="M13.617 209.52c0 1.12-.953 2.025-2.128 2.025H7.232c-1.176 0-2.13-.906-2.13-2.025s.953-2.024 2.13-2.024h4.257c1.175 0 2.128.906 2.128 2.024z" class="N"/><path d="M8.296 208.25h2.128v2.47H8.296z" class="O"/><path d="M47.592 83.492H63v7.98H47.592zM283.26 97.16h15.408v7.98H283.26zm.768 64.155h15.408v7.98h-15.408zm10.587 75.985h15.408v7.98h-15.408zm-75.34 10.3h7.98v15.408h-7.98zm-64.667.333h7.98v15.408h-7.98zm-65-.333h7.98v15.408h-7.98zm18.667-53h7.98v15.408h-7.98zm-83 20.334h7.98v15.408h-7.98zM50 190.296h8v15.408h-8zm39.676-151h7.98v15.408h-7.98zM82.343 10.63h7.98v15.408h-7.98zm64.667.333H155V26.37H147zm64.8 0h7.98V26.37h-7.98zm64.8 0h7.98V26.37h-7.98zm-51.2 67.453h7.98v15.408h-7.98zm9.2-.001h7.98v15.4h-7.98zm3.344 100.335h7.98v15.408h-7.98zM99.66 194.582h7.98V210h-7.98z" fill="#157dec"/><g class="L"><path d="M218.478 187.525h9.445v6.98h-9.445z"/><path d="M230.287 193.1l-2.364 1.406v-6.98l2.364 1.354zm-14.174-4.168l2.365-1.407v6.98l-2.365-1.353z"/></g><path d="M219.615 190.182h1.313v1.668h-1.313zm5.773 0h1.313v1.668h-1.313z" class="M"/><g class="L"><path d="M218.478 194.506h9.445v6.982h-9.445z"/><path d="M230.287 200.08l-2.364 1.408v-6.983l2.364 1.356zm-14.174-4.167l2.365-1.407v6.983l-2.365-1.356z"/></g><path d="M219.615 197.163h1.313v1.668h-1.313zm5.773 0h1.313v1.668h-1.313z" class="M"/><g class="L"><path d="M218.478 201.493h9.445v6.982h-9.445z"/><path d="M230.287 207.067l-2.364 1.408v-6.982l2.364 1.355zm-14.174-4.167l2.365-1.406v6.982l-2.365-1.355z"/></g><path d="M219.615 204.15h1.313v1.668h-1.313zm5.773 0h1.313v1.668h-1.313z" class="M"/><path d="M215.228 200.995h15.408v7.98h-15.408zm34-7.335h15.408v7.98h-15.408z" fill="#157dec"/><g class="L"><path d="M166.21 67.276h6.98v9.445h-6.98z"/><path d="M171.784 64.913l1.407 2.363h-6.982l1.355-2.363zm-4.168 14.174l-1.407-2.365h6.982l-1.355 2.365z"/></g><g class="M"><use xlink:href="#B" x="142.341" y="29.419"/><use xlink:href="#B" x="142.341" y="23.647"/></g><g class="L"><path d="M201.2 67.276h6.98v9.445h-6.98z"/><path d="M206.785 64.913l1.406 2.363h-6.98l1.354-2.363zm-4.168 14.174l-1.407-2.365h6.98l-1.354 2.365z"/></g><g class="M"><use xlink:href="#B" x="177.342" y="29.419"/><use xlink:href="#B" x="177.342" y="23.647"/></g><g class="L"><path d="M173.24 67.274h6.968v9.45h-6.968zm5.562-2.36l1.405 2.36h-6.968l1.352-2.36z"/><path d="M174.643 79.086l-1.404-2.362h6.968l-1.352 2.362z"/></g><path d="M175.9 74.274h1.663v1.313H175.9zm.01-5.774h1.664v1.312H175.9z" class="M"/><g class="L"><path d="M180.155 67.274h6.966v9.45h-6.966zm5.563-2.36l1.403 2.36h-6.966l1.35-2.36z"/><path d="M181.558 79.086l-1.403-2.362h6.966l-1.352 2.362z"/></g><path d="M182.806 74.274h1.664v1.313h-1.664zm0-5.774h1.664v1.312h-1.664z" class="M"/><g class="L"><path d="M187.226 67.274h6.967v9.45h-6.967zm5.564-2.36l1.404 2.36h-6.967l1.352-2.36z"/><path d="M188.628 79.086l-1.402-2.362h6.967l-1.352 2.362z"/></g><path d="M189.876 74.274h1.664v1.313h-1.664zm0-5.774h1.664v1.312h-1.664z" class="M"/><g class="L"><path d="M194.193 67.274h6.967v9.45h-6.967zm5.562-2.36l1.405 2.36h-6.967l1.35-2.36z"/><path d="M195.597 79.086l-1.404-2.362h6.967l-1.352 2.362z"/></g><path d="M196.845 74.274h1.662v1.313h-1.662zm-.002-5.774h1.664v1.312h-1.664z" class="M"/><path d="M280.4 183.2h29.58v29.58H280.4z" class="P"/><path d="M158.626 134.867h28.347v28.347h-28.347zM28.262 121.862H50.94v22.677H28.262z" class="L"/><path d="M146.126 113.995l-.2-6.263h-.067l-2.54 5.9-2.74 5.945h-3.98l-2.407-5.878c-.735-1.8-1.47-3.98-2.04-5.97h-.066l-.368 6.3-.435 5.787h-4.713l1.438-15.238h6.786l2.206 5.087c.735 1.764 1.404 3.663 1.906 5.45h.134l2.14-5.472 2.373-5.064h6.686l1.204 15.238h-4.948l-.37-5.832zm19.42 5.833l-2.04-2.758-2.005-2.736h-.068c-.467.882-1.035 1.673-1.77 2.736l-1.84 2.758h-5.816l6.52-7.7-6.285-7.528h5.85l1.973 2.78 1.704 2.532h.066l1.538-2.532 1.905-2.78h5.816l-6.35 7.438 6.685 7.8h-5.882zm15.142 0v-3.505h-9.628v-2.237l8.2-8.954h6.25v8.614h2.574v2.577H185.5v3.505h-4.812zm0-6.082v-3.255l.133-2.735h-.1l-2.04 2.735-2.875 3.2-.033.045h4.914z" fill="#59595c"/><path d="M135.566 81.925h6.233v20.334h-6.233zm-18.904 0v20.334h6.233V81.925zm17.778 0h-6.233l-5.313 9.3 4.7 11.035h6.845l-5.313-11.035zm24.296 0h-15.532v5.96h4.65v14.373h6.233V87.886h4.65z" class="C"/><path d="M82.986 101.773c-.694.336-2.233.855-4.195.855-4.406 0-7.272-3.024-7.272-7.546 0-4.554 3.078-7.884 7.846-7.884 1.57 0 2.958.397 3.682.795l-.603 2.047c-.634-.336-1.63-.703-3.08-.703-3.35 0-5.16 2.536-5.16 5.592 0 3.422 2.172 5.53 5.07 5.53a7.54 7.54 0 0 0 3.26-.702l.453 2.016zM84.104 80.6h2.655v9.258h.06a5.03 5.03 0 0 1 1.901-1.925c.785-.458 1.72-.733 2.716-.733 1.962 0 5.1 1.223 5.1 6.295v8.8H93.88V93.8c0-2.384-.875-4.37-3.38-4.37-1.72 0-3.048 1.223-3.56 2.658-.15.397-.182.794-.182 1.283v8.922h-2.655V80.6zm16.693 2.75c0 .917-.633 1.65-1.7 1.65-.966 0-1.6-.733-1.6-1.65s.664-1.68 1.66-1.68c.965 0 1.63.734 1.63 1.68zm-2.957 18.943v-14.79h2.656v14.788H97.84zm4.06-9.96l-.12-4.827h2.354l.15 2.536h.06c1.056-1.803 2.807-2.842 5.2-2.842 3.56 0 6.217 3.025 6.217 7.486 0 5.316-3.23 7.943-6.67 7.943-1.93 0-3.62-.855-4.496-2.32h-.06v8.035H101.9v-16zm2.625 3.942c0 .396.03.764.12 1.1.483 1.863 2.083 3.147 3.984 3.147 2.807 0 4.436-2.322 4.436-5.714 0-2.934-1.54-5.47-4.346-5.47-1.8 0-3.53 1.283-4.014 3.3-.1.337-.18.733-.18 1.07v2.568z" fill="#ed2f26"/><path d="M159.54 83.714v-1.48h-.553v-.3h1.453v.3h-.538v1.48h-.362zm1.116 0v-1.79h.565l.326 1.23.327-1.23h.566v1.79h-.346v-1.427l-.386 1.427h-.33l-.383-1.427v1.427h-.34z" class="C"/><path fill="#ed2f26" d="M188.62 99.195c0 1.686-1.38 3.064-3.065 3.064H166.78c-1.687 0-3.065-1.38-3.065-3.064V84.99c0-1.686 1.38-3.065 3.065-3.065h18.775c1.687 0 3.065 1.38 3.065 3.065v14.204z"/><g class="D"><path d="M168.938 85.086c-1 0-2.02.102-2.768.263v13.42h2.646v-5.073c.183.02.344.02.526.02 1.112 0 2.466-.404 3.313-1.313.707-.748 1.152-1.8 1.152-3.274 0-1.15-.363-2.284-1.172-2.99-.867-.83-2.12-1.053-3.697-1.053zm.324 6.49c-.162 0-.303 0-.445-.02V87.33c.162-.062.404-.102.647-.102 1.232 0 1.718.93 1.718 2.122 0 1.275-.586 2.225-1.92 2.225z"/><path d="M176.674 90.32h-.08l-.142-1.435h-2.283l.08 2.97v6.912h2.647v-5.032c0-.404.04-.768.122-1 .282-1.01 1.03-1.395 1.596-1.395l.566.02v-2.606c-.14-.04-.283-.06-.566-.06-.706 0-1.515.565-1.94 1.616z"/><path d="M186.82 93.797c0-3.133-1.395-5.093-3.738-5.093-1.96 0-3.82 1.596-3.82 5.153 0 3.214 1.414 5.073 3.778 5.073 1.496.001 3.78-1 3.78-5.133zM183.1 96.9c-.95 0-1.212-1.415-1.212-3.112 0-1.354.202-3.072 1.173-3.072.908 0 1.13 1.72 1.13 3.072 0 1.454-.223 3.112-1.092 3.112z"/></g><path d="M135.518 258.966h7.2v7.2h-7.2z" class="E"/><path d="M137.318 260.765h3.6v3.6h-3.6z" class="B C F"/><path d="M140.918 260.765h-3.6l-.9-.9h5.4z" class="G"/><path d="M140.918 264.365h-3.6l-.9.9h5.4z" class="H"/><g class="I"><use xlink:href="#R"/><use xlink:href="#S"/></g><path d="M113.917 258.966h7.2v7.2h-7.2z" class="E"/><path d="M115.716 260.765h3.6v3.6h-3.6z" class="B C F"/><path d="M119.316 260.765h-3.6l-.9-.9h5.4z" class="G"/><path d="M119.316 264.365h-3.6l-.9.9h5.4z" class="H"/><g class="I"><use xlink:href="#R" x="-21.602"/><use xlink:href="#S" x="-21.602"/></g><path d="M128.318 258.966h7.2v7.2h-7.2z" class="E"/><path d="M130.12 260.765h3.6v3.6h-3.6z" class="B C F"/><path d="M133.72 260.765h-3.6l-.9-.9h5.4z" class="G"/><path d="M133.72 264.365h-3.6l-.9.9h5.4z" class="H"/><g class="I"><use xlink:href="#R" x="-7.198"/><use xlink:href="#S" x="-7.198"/></g><path d="M121.117 258.966h7.2v7.2h-7.2z" class="E"/><path d="M122.918 260.765h3.6v3.6h-3.6z" class="B C F"/><path d="M126.518 260.765h-3.6l-.9-.9h5.4z" class="G"/><path d="M126.518 264.365h-3.6l-.9.9h5.4z" class="H"/><g class="I"><use xlink:href="#R" x="-14.4"/><use xlink:href="#S" x="-14.4"/></g><path d="M106.716 258.966h7.2v7.2h-7.2z" class="E"/><path d="M108.517 260.765h3.6v3.6h-3.6z" class="B C F"/><path d="M112.117 260.765h-3.6l-.9-.9h5.4z" class="G"/><path d="M112.117 264.365h-3.6l-.9.9h5.4z" class="H"/><g class="I"><use xlink:href="#R" x="-28.801"/><use xlink:href="#S" x="-28.801"/></g><path d="M100.417 258.966h7.2v7.2h-7.2z" class="E"/><path d="M102.216 260.765h3.6v3.6h-3.6z" class="B C F"/><path d="M105.816 260.765h-3.6l-.9-.9h5.4z" class="G"/><path d="M105.816 264.365h-3.6l-.9.9h5.4z" class="H"/><g class="I"><use xlink:href="#R" x="-35.102"/><use xlink:href="#S" x="-35.102"/></g><path d="M135.518 265.966h7.2v7.2h-7.2z" class="E"/><path d="M137.318 267.765h3.6v3.6h-3.6z" class="B C F"/><path d="M140.918 267.765h-3.6l-.9-.9h5.4z" class="G"/><path d="M140.918 271.365h-3.6l-.9.9h5.4z" class="H"/><g class="I"><use xlink:href="#R" y="7"/><use xlink:href="#S" y="7"/></g><path d="M113.917 265.966h7.2v7.2h-7.2z" class="E"/><path d="M115.716 267.765h3.6v3.6h-3.6z" class="B C F"/><path d="M119.316 267.765h-3.6l-.9-.9h5.4z" class="G"/><path d="M119.316 271.365h-3.6l-.9.9h5.4z" class="H"/><g class="I"><use xlink:href="#R" x="-21.602" y="7"/><use xlink:href="#S" x="-21.602" y="7"/></g><path d="M128.318 265.966h7.2v7.2h-7.2z" class="E"/><path d="M130.12 267.765h3.6v3.6h-3.6z" class="B C F"/><path d="M133.72 267.765h-3.6l-.9-.9h5.4z" class="G"/><path d="M133.72 271.365h-3.6l-.9.9h5.4z" class="H"/><g class="I"><use xlink:href="#R" x="-7.198" y="7"/><use xlink:href="#S" x="-7.198" y="7"/></g><path d="M121.117 265.966h7.2v7.2h-7.2z" class="E"/><path d="M122.918 267.765h3.6v3.6h-3.6z" class="B C F"/><path d="M126.518 267.765h-3.6l-.9-.9h5.4z" class="G"/><path d="M126.518 271.365h-3.6l-.9.9h5.4z" class="H"/><g class="I"><use xlink:href="#R" x="-14.4" y="7"/><use xlink:href="#S" x="-14.4" y="7"/></g><path d="M106.716 265.966h7.2v7.2h-7.2z" class="E"/><path d="M108.517 267.765h3.6v3.6h-3.6z" class="B C F"/><path d="M112.117 267.765h-3.6l-.9-.9h5.4z" class="G"/><path d="M112.117 271.365h-3.6l-.9.9h5.4z" class="H"/><g class="I"><use xlink:href="#R" x="-28.801" y="7"/><use xlink:href="#S" x="-28.801" y="7"/></g><path d="M100.417 265.966h7.2v7.2h-7.2z" class="E"/><path d="M102.216 267.765h3.6v3.6h-3.6z" class="B C F"/><path d="M105.816 267.765h-3.6l-.9-.9h5.4z" class="G"/><path d="M105.816 271.365h-3.6l-.9.9h5.4z" class="H"/><g class="I"><use xlink:href="#R" x="-35.102" y="7"/><use xlink:href="#S" x="-35.102" y="7"/></g><path d="M203.918 258.966h7.2v7.2h-7.2z" class="E"/><path d="M205.72 260.765h3.6v3.6h-3.6z" class="B C F"/><path d="M209.32 260.765h-3.6l-.9-.9h5.4z" class="G"/><path d="M209.32 264.365h-3.6l-.9.9h5.4z" class="H"/><g class="I"><use xlink:href="#R" x="68.402"/><use xlink:href="#S" x="68.402"/></g><path d="M182.318 258.966h7.2v7.2h-7.2z" class="E"/><path d="M184.117 260.765h3.6v3.6h-3.6z" class="B C F"/><path d="M187.716 260.765h-3.6l-.9-.9h5.4z" class="G"/><path d="M187.716 264.365h-3.6l-.9.9h5.4z" class="H"/><g class="I"><use xlink:href="#R" x="46.799"/><use xlink:href="#S" x="46.799"/></g><path d="M196.72 258.966h7.2v7.2h-7.2z" class="E"/><path d="M198.52 260.765h3.6v3.6h-3.6z" class="B C F"/><path d="M202.12 260.765h-3.6l-.9-.9h5.4z" class="G"/><path d="M202.12 264.365h-3.6l-.9.9h5.4z" class="H"/><g class="I"><use xlink:href="#R" x="61.202"/><use xlink:href="#S" x="61.202"/></g><path d="M189.518 258.966h7.2v7.2h-7.2z" class="E"/><path d="M191.32 260.765h3.6v3.6h-3.6z" class="B C F"/><path d="M194.918 260.765h-3.6l-.9-.9h5.4z" class="G"/><path d="M194.918 264.365h-3.6l-.9.9h5.4z" class="H"/><g class="I"><use xlink:href="#R" x="54.002"/><use xlink:href="#S" x="54.002"/></g><path d="M175.117 258.966h7.2v7.2h-7.2z" class="E"/><path d="M176.917 260.765h3.6v3.6h-3.6z" class="B C F"/><path d="M180.517 260.765h-3.6l-.9-.9h5.4z" class="G"/><path d="M180.517 264.365h-3.6l-.9.9h5.4z" class="H"/><g class="I"><use xlink:href="#R" x="39.599"/><use xlink:href="#S" x="39.599"/></g><path d="M168.817 258.966h7.2v7.2h-7.2z" class="E"/><path d="M170.617 260.765h3.6v3.6h-3.6z" class="B C F"/><path d="M174.216 260.765h-3.6l-.9-.9h5.4z" class="G"/><path d="M174.216 264.365h-3.6l-.9.9h5.4z" class="H"/><g class="I"><use xlink:href="#R" x="33.299"/><use xlink:href="#S" x="33.299"/></g><path d="M203.918 265.966h7.2v7.2h-7.2z" class="E"/><path d="M205.72 267.765h3.6v3.6h-3.6z" class="B C F"/><path d="M209.32 267.765h-3.6l-.9-.9h5.4z" class="G"/><path d="M209.32 271.365h-3.6l-.9.9h5.4z" class="H"/><g class="I"><use xlink:href="#R" x="68.402" y="7"/><use xlink:href="#S" x="68.402" y="7"/></g><path d="M182.318 265.966h7.2v7.2h-7.2z" class="E"/><path d="M184.117 267.765h3.6v3.6h-3.6z" class="B C F"/><path d="M187.716 267.765h-3.6l-.9-.9h5.4z" class="G"/><path d="M187.716 271.365h-3.6l-.9.9h5.4z" class="H"/><g class="I"><use xlink:href="#R" x="46.799" y="7"/><use xlink:href="#S" x="46.799" y="7"/></g><path d="M196.72 265.966h7.2v7.2h-7.2z" class="E"/><path d="M198.52 267.765h3.6v3.6h-3.6z" class="B C F"/><path d="M202.12 267.765h-3.6l-.9-.9h5.4z" class="G"/><path d="M202.12 271.365h-3.6l-.9.9h5.4z" class="H"/><g class="I"><use xlink:href="#R" x="61.202" y="7"/><use xlink:href="#S" x="61.202" y="7"/></g><path d="M189.518 265.966h7.2v7.2h-7.2z" class="E"/><path d="M191.32 267.765h3.6v3.6h-3.6z" class="B C F"/><path d="M194.918 267.765h-3.6l-.9-.9h5.4z" class="G"/><path d="M194.918 271.365h-3.6l-.9.9h5.4z" class="H"/><g class="I"><use xlink:href="#R" x="54.002" y="7"/><use xlink:href="#S" x="54.002" y="7"/></g><path d="M175.117 265.966h7.2v7.2h-7.2z" class="E"/><path d="M176.917 267.765h3.6v3.6h-3.6z" class="B C F"/><path d="M180.517 267.765h-3.6l-.9-.9h5.4z" class="G"/><path d="M180.517 271.365h-3.6l-.9.9h5.4z" class="H"/><g class="I"><use xlink:href="#R" x="39.599" y="7"/><use xlink:href="#S" x="39.599" y="7"/></g><path d="M168.817 265.966h7.2v7.2h-7.2z" class="E"/><path d="M170.617 267.765h3.6v3.6h-3.6z" class="B C F"/><path d="M174.216 267.765h-3.6l-.9-.9h5.4z" class="G"/><path d="M174.216 271.365h-3.6l-.9.9h5.4z" class="H"/><g class="I"><use xlink:href="#R" x="33.299" y="7"/><use xlink:href="#S" x="33.299" y="7"/></g><path d="M270 258.966h7.2v7.2H270z" class="E"/><path d="M271.8 260.765h3.6v3.6h-3.6z" class="B C F"/><path d="M275.4 260.765h-3.6l-.9-.9h5.4z" class="G"/><path d="M275.4 264.365h-3.6l-.9.9h5.4z" class="H"/><g class="I"><use xlink:href="#R" x="134.482"/><use xlink:href="#S" x="134.482"/></g><path d="M248.4 258.966h7.2v7.2h-7.2z" class="E"/><path d="M250.2 260.765h3.6v3.6h-3.6z" class="B C F"/><path d="M253.798 260.765h-3.6l-.9-.9h5.4z" class="G"/><path d="M253.798 264.365h-3.6l-.9.9h5.4z" class="H"/><g class="I"><use xlink:href="#R" x="112.882"/><use xlink:href="#S" x="112.882"/></g><path d="M262.8 258.966h7.2v7.2h-7.2z" class="E"/><path d="M264.602 260.765h3.6v3.6h-3.6z" class="B C F"/><path d="M268.202 260.765h-3.6l-.9-.9h5.4z" class="G"/><path d="M268.202 264.365h-3.6l-.9.9h5.4z" class="H"/><g class="I"><use xlink:href="#R" x="127.284"/><use xlink:href="#S" x="127.284"/></g><path d="M255.6 258.966h7.2v7.2h-7.2z" class="E"/><path d="M257.4 260.765h3.6v3.6h-3.6z" class="B C F"/><path d="M261 260.765h-3.6l-.9-.9h5.4z" class="G"/><path d="M261 264.365h-3.6l-.9.9h5.4z" class="H"/><g class="I"><use xlink:href="#R" x="120.082"/><use xlink:href="#S" x="120.082"/></g><path d="M241.2 258.966h7.2v7.2h-7.2z" class="E"/><path d="M243 260.765h3.6v3.6H243z" class="B C F"/><path d="M246.6 260.765H243l-.9-.9h5.4z" class="G"/><path d="M246.6 264.365H243l-.9.9h5.4z" class="H"/><g class="I"><use xlink:href="#R" x="105.682"/><use xlink:href="#S" x="105.682"/></g><path d="M234.9 258.966h7.2v7.2h-7.2z" class="E"/><path d="M236.7 260.765h3.6v3.6h-3.6z" class="B C F"/><path d="M240.298 260.765h-3.6l-.9-.9h5.4z" class="G"/><path d="M240.298 264.365h-3.6l-.9.9h5.4z" class="H"/><g class="I"><use xlink:href="#R" x="99.382"/><use xlink:href="#S" x="99.382"/></g><path d="M270 265.966h7.2v7.2H270z" class="E"/><path d="M271.8 267.765h3.6v3.6h-3.6z" class="B C F"/><path d="M275.4 267.765h-3.6l-.9-.9h5.4z" class="G"/><path d="M275.4 271.365h-3.6l-.9.9h5.4z" class="H"/><g class="I"><use xlink:href="#R" x="134.482" y="7"/><use xlink:href="#S" x="134.482" y="7"/></g><path d="M248.4 265.966h7.2v7.2h-7.2z" class="E"/><path d="M250.2 267.765h3.6v3.6h-3.6z" class="B C F"/><path d="M253.798 267.765h-3.6l-.9-.9h5.4z" class="G"/><path d="M253.798 271.365h-3.6l-.9.9h5.4z" class="H"/><g class="I"><use xlink:href="#R" x="112.882" y="7"/><use xlink:href="#S" x="112.882" y="7"/></g><path d="M262.8 265.966h7.2v7.2h-7.2z" class="E"/><path d="M264.602 267.765h3.6v3.6h-3.6z" class="B C F"/><path d="M268.202 267.765h-3.6l-.9-.9h5.4z" class="G"/><path d="M268.202 271.365h-3.6l-.9.9h5.4z" class="H"/><g class="I"><use xlink:href="#R" x="127.284" y="7"/><use xlink:href="#S" x="127.284" y="7"/></g><path d="M255.6 265.966h7.2v7.2h-7.2z" class="E"/><path d="M257.4 267.765h3.6v3.6h-3.6z" class="B C F"/><path d="M261 267.765h-3.6l-.9-.9h5.4z" class="G"/><path d="M261 271.365h-3.6l-.9.9h5.4z" class="H"/><g class="I"><use xlink:href="#R" x="120.082" y="7"/><use xlink:href="#S" x="120.082" y="7"/></g><path d="M241.2 265.966h7.2v7.2h-7.2z" class="E"/><path d="M243 267.765h3.6v3.6H243z" class="B C F"/><path d="M246.6 267.765H243l-.9-.9h5.4z" class="G"/><path d="M246.6 271.365H243l-.9.9h5.4z" class="H"/><g class="I"><use xlink:href="#R" x="105.682" y="7"/><use xlink:href="#S" x="105.682" y="7"/></g><path d="M234.9 265.966h7.2v7.2h-7.2z" class="E"/><path d="M236.7 267.765h3.6v3.6h-3.6z" class="B C F"/><path d="M240.298 267.765h-3.6l-.9-.9h5.4z" class="G"/><path d="M240.298 271.365h-3.6l-.9.9h5.4z" class="H"/><g class="I"><use xlink:href="#R" x="99.382" y="7"/><use xlink:href="#S" x="99.382" y="7"/></g><path d="M71.55.285h7.2v7.2h-7.2z" class="E"/><path d="M73.35 2.083h3.6v3.6h-3.6z" class="B C F"/><path d="M76.95 2.083h-3.6l-.9-.9h5.4z" class="G"/><path d="M76.95 5.683h-3.6l-.9.9h5.4z" class="H"/><g class="I"><use xlink:href="#R" x="-63.968" y="-258.682"/><use xlink:href="#S" x="-63.968" y="-258.682"/></g><path d="M49.95.285h7.2v7.2h-7.2z" class="E"/><path d="M51.75 2.083h3.6v3.6h-3.6z" class="B C F"/><path d="M55.348 2.083h-3.6l-.9-.9h5.4z" class="G"/><path d="M55.348 5.683h-3.6l-.9.9h5.4z" class="H"/><g class="I"><use xlink:href="#R" x="-85.568" y="-258.682"/><use xlink:href="#S" x="-85.568" y="-258.682"/></g><path d="M64.35.285h7.2v7.2h-7.2z" class="E"/><path d="M66.152 2.083h3.6v3.6h-3.6z" class="B C F"/><path d="M69.75 2.083h-3.6l-.9-.9h5.4z" class="G"/><path d="M69.75 5.683h-3.6l-.9.9h5.4z" class="H"/><g class="I"><use xlink:href="#R" x="-71.166" y="-258.682"/><use xlink:href="#S" x="-71.166" y="-258.682"/></g><path d="M57.15.285h7.2v7.2h-7.2z" class="E"/><path d="M58.95 2.083h3.6v3.6h-3.6z" class="B C F"/><path d="M62.55 2.083h-3.6l-.9-.9h5.4z" class="G"/><path d="M62.55 5.683h-3.6l-.9.9h5.4z" class="H"/><g class="I"><use xlink:href="#R" x="-78.368" y="-258.682"/><use xlink:href="#S" x="-78.368" y="-258.682"/></g><path d="M42.75.285h7.2v7.2h-7.2z" class="E"/><path d="M44.55 2.083h3.6v3.6h-3.6z" class="B C F"/><path d="M48.15 2.083h-3.6l-.9-.9h5.4z" class="G"/><path d="M48.15 5.683h-3.6l-.9.9h5.4z" class="H"/><g class="I"><use xlink:href="#R" x="-92.768" y="-258.682"/><use xlink:href="#S" x="-92.768" y="-258.682"/></g><path d="M36.45.285h7.2v7.2h-7.2z" class="E"/><path d="M38.25 2.083h3.6v3.6h-3.6z" class="B C F"/><path d="M41.848 2.083h-3.6l-.9-.9h5.4z" class="G"/><path d="M41.848 5.683h-3.6l-.9.9h5.4z" class="H"/><g class="I"><use xlink:href="#R" x="-99.068" y="-258.682"/><use xlink:href="#S" x="-99.068" y="-258.682"/></g><path d="M71.55 7.285h7.2v7.2h-7.2z" class="E"/><path d="M73.35 9.083h3.6v3.6h-3.6z" class="B C F"/><path d="M76.95 9.083h-3.6l-.9-.9h5.4z" class="G"/><path d="M76.95 12.683h-3.6l-.9.9h5.4z" class="H"/><g class="I"><use xlink:href="#R" x="-63.968" y="-251.682"/><use xlink:href="#S" x="-63.968" y="-251.682"/></g><path d="M49.95 7.285h7.2v7.2h-7.2z" class="E"/><path d="M51.75 9.083h3.6v3.6h-3.6z" class="B C F"/><path d="M55.348 9.083h-3.6l-.9-.9h5.4z" class="G"/><path d="M55.348 12.683h-3.6l-.9.9h5.4z" class="H"/><g class="I"><use xlink:href="#R" x="-85.568" y="-251.682"/><use xlink:href="#S" x="-85.568" y="-251.682"/></g><path d="M64.35 7.285h7.2v7.2h-7.2z" class="E"/><path d="M66.152 9.083h3.6v3.6h-3.6z" class="B C F"/><path d="M69.75 9.083h-3.6l-.9-.9h5.4z" class="G"/><path d="M69.75 12.683h-3.6l-.9.9h5.4z" class="H"/><g class="I"><use xlink:href="#R" x="-71.166" y="-251.682"/><use xlink:href="#S" x="-71.166" y="-251.682"/></g><path d="M57.15 7.285h7.2v7.2h-7.2z" class="E"/><path d="M58.95 9.083h3.6v3.6h-3.6z" class="B C F"/><path d="M62.55 9.083h-3.6l-.9-.9h5.4z" class="G"/><path d="M62.55 12.683h-3.6l-.9.9h5.4z" class="H"/><g class="I"><use xlink:href="#R" x="-78.368" y="-251.682"/><use xlink:href="#S" x="-78.368" y="-251.682"/></g><path d="M42.75 7.285h7.2v7.2h-7.2z" class="E"/><path d="M44.55 9.083h3.6v3.6h-3.6z" class="B C F"/><path d="M48.15 9.083h-3.6l-.9-.9h5.4z" class="G"/><path d="M48.15 12.683h-3.6l-.9.9h5.4z" class="H"/><g class="I"><use xlink:href="#R" x="-92.768" y="-251.682"/><use xlink:href="#S" x="-92.768" y="-251.682"/></g><path d="M36.45 7.285h7.2v7.2h-7.2z" class="E"/><path d="M38.25 9.083h3.6v3.6h-3.6z" class="B C F"/><path d="M41.848 9.083h-3.6l-.9-.9h5.4z" class="G"/><path d="M41.848 12.683h-3.6l-.9.9h5.4z" class="H"/><g class="I"><use xlink:href="#R" x="-99.068" y="-251.682"/><use xlink:href="#S" x="-99.068" y="-251.682"/></g><path d="M136.35 0h7.2v7.2h-7.2z" class="E"/><path d="M138.15 1.8h3.6v3.6h-3.6z" class="B C F"/><path d="M141.75 1.8h-3.6l-.9-.9h5.4z" class="G"/><path d="M141.75 5.398h-3.6l-.9.9h5.4z" class="H"/><g class="I"><use xlink:href="#T"/><use xlink:href="#S" x="0.832" y="-258.967"/></g><path d="M114.75 0h7.2v7.2h-7.2z" class="E"/><path d="M116.548 1.8h3.6v3.6h-3.6z" class="B C F"/><path d="M120.148 1.8h-3.6l-.9-.9h5.4z" class="G"/><path d="M120.148 5.398h-3.6l-.9.9h5.4z" class="H"/><g class="I"><use xlink:href="#T" x="-21.602"/><use xlink:href="#S" x="-20.77" y="-258.967"/></g><path d="M129.15 0h7.2v7.2h-7.2z" class="E"/><path d="M130.952 1.8h3.6v3.6h-3.6z" class="B C F"/><path d="M134.55 1.8h-3.6l-.9-.9h5.4z" class="G"/><path d="M134.55 5.398h-3.6l-.9.9h5.4z" class="H"/><g class="I"><use xlink:href="#T" x="-7.198"/><use xlink:href="#S" x="-6.366" y="-258.967"/></g><path d="M121.95 0h7.2v7.2h-7.2z" class="E"/><path d="M123.75 1.8h3.6v3.6h-3.6z" class="B C F"/><path d="M127.35 1.8h-3.6l-.9-.9h5.4z" class="G"/><path d="M127.35 5.398h-3.6l-.9.9h5.4z" class="H"/><g class="I"><use xlink:href="#T" x="-14.4"/><use xlink:href="#S" x="-13.568" y="-258.967"/></g><path d="M107.548 0h7.2v7.2h-7.2z" class="E"/><path d="M109.35 1.8h3.6v3.6h-3.6z" class="B C F"/><path d="M112.95 1.8h-3.6l-.9-.9h5.4z" class="G"/><path d="M112.95 5.398h-3.6l-.9.9h5.4z" class="H"/><g class="I"><use xlink:href="#T" x="-28.8"/><use xlink:href="#S" x="-27.968" y="-258.967"/></g><path d="M101.25 0h7.2v7.2h-7.2z" class="E"/><path d="M103.048 1.8h3.6v3.6h-3.6z" class="B C F"/><path d="M106.648 1.8h-3.6l-.9-.9h5.4z" class="G"/><path d="M106.648 5.398h-3.6l-.9.9h5.4z" class="H"/><g class="I"><use xlink:href="#T" x="-35.102"/><use xlink:href="#S" x="-34.27" y="-258.967"/></g><path d="M136.35 7h7.2v7.2h-7.2z" class="E"/><path d="M138.15 8.8h3.6v3.6h-3.6z" class="B C F"/><path d="M141.75 8.8h-3.6l-.9-.9h5.4z" class="G"/><path d="M141.75 12.398h-3.6l-.9.9h5.4z" class="H"/><g class="I"><use xlink:href="#U"/><use xlink:href="#S" x="0.832" y="-251.967"/></g><path d="M114.75 7h7.2v7.2h-7.2z" class="E"/><path d="M116.548 8.8h3.6v3.6h-3.6z" class="B C F"/><path d="M120.148 8.8h-3.6l-.9-.9h5.4z" class="G"/><path d="M120.148 12.398h-3.6l-.9.9h5.4z" class="H"/><g class="I"><use xlink:href="#U" x="-21.602"/><use xlink:href="#S" x="-20.77" y="-251.967"/></g><path d="M129.15 7h7.2v7.2h-7.2z" class="E"/><path d="M130.952 8.8h3.6v3.6h-3.6z" class="B C F"/><path d="M134.55 8.8h-3.6l-.9-.9h5.4z" class="G"/><path d="M134.55 12.398h-3.6l-.9.9h5.4z" class="H"/><g class="I"><use xlink:href="#U" x="-7.198"/><use xlink:href="#S" x="-6.366" y="-251.967"/></g><path d="M121.95 7h7.2v7.2h-7.2z" class="E"/><path d="M123.75 8.8h3.6v3.6h-3.6z" class="B C F"/><path d="M127.35 8.8h-3.6l-.9-.9h5.4z" class="G"/><path d="M127.35 12.398h-3.6l-.9.9h5.4z" class="H"/><g class="I"><use xlink:href="#U" x="-14.4"/><use xlink:href="#S" x="-13.568" y="-251.967"/></g><path d="M107.548 7h7.2v7.2h-7.2z" class="E"/><path d="M109.35 8.8h3.6v3.6h-3.6z" class="B C F"/><path d="M112.95 8.8h-3.6l-.9-.9h5.4z" class="G"/><path d="M112.95 12.398h-3.6l-.9.9h5.4z" class="H"/><g class="I"><use xlink:href="#U" x="-28.8"/><use xlink:href="#S" x="-27.968" y="-251.967"/></g><path d="M101.25 7h7.2v7.2h-7.2z" class="E"/><path d="M103.048 8.8h3.6v3.6h-3.6z" class="B C F"/><path d="M106.648 8.8h-3.6l-.9-.9h5.4z" class="G"/><path d="M106.648 12.398h-3.6l-.9.9h5.4z" class="H"/><g class="I"><use xlink:href="#U" x="-35.102"/><use xlink:href="#S" x="-34.27" y="-251.967"/></g><path d="M201.15 0h7.2v7.2h-7.2z" class="E"/><path d="M202.95 1.8h3.6v3.6h-3.6z" class="B C F"/><path d="M206.55 1.8h-3.6l-.9-.9h5.4z" class="G"/><path d="M206.55 5.398h-3.6l-.9.9h5.4z" class="H"/><g class="I"><use xlink:href="#T" x="64.8"/><use xlink:href="#S" x="65.632" y="-258.967"/></g><path d="M179.55 0h7.2v7.2h-7.2z" class="E"/><path d="M181.35 1.8h3.6v3.6h-3.6z" class="B C F"/><path d="M184.95 1.8h-3.6l-.9-.9h5.4z" class="G"/><path d="M184.95 5.398h-3.6l-.9.9h5.4z" class="H"/><g class="I"><use xlink:href="#T" x="43.2"/><use xlink:href="#S" x="44.032" y="-258.967"/></g><path d="M193.95 0h7.2v7.2h-7.2z" class="E"/><path d="M195.75 1.8h3.6v3.6h-3.6z" class="B C F"/><path d="M199.35 1.8h-3.6l-.9-.9h5.4z" class="G"/><path d="M199.35 5.398h-3.6l-.9.9h5.4z" class="H"/><g class="I"><use xlink:href="#T" x="57.6"/><use xlink:href="#S" x="58.432" y="-258.967"/></g><path d="M186.75 0h7.2v7.2h-7.2z" class="E"/><path d="M188.55 1.8h3.6v3.6h-3.6z" class="B C F"/><path d="M192.15 1.8h-3.6l-.9-.9h5.4z" class="G"/><path d="M192.15 5.398h-3.6l-.9.9h5.4z" class="H"/><g class="I"><use xlink:href="#T" x="50.4"/><use xlink:href="#S" x="51.232" y="-258.967"/></g><path d="M172.35 0h7.2v7.2h-7.2z" class="E"/><path d="M174.15 1.8h3.6v3.6h-3.6z" class="B C F"/><path d="M177.75 1.8h-3.6l-.9-.9h5.4z" class="G"/><path d="M177.75 5.398h-3.6l-.9.9h5.4z" class="H"/><g class="I"><use xlink:href="#T" x="36"/><use xlink:href="#S" x="36.832" y="-258.967"/></g><path d="M166.048 0h7.2v7.2h-7.2z" class="E"/><path d="M167.85 1.8h3.6v3.6h-3.6z" class="B C F"/><path d="M171.45 1.8h-3.6l-.9-.9h5.4z" class="G"/><path d="M171.45 5.398h-3.6l-.9.9h5.4z" class="H"/><g class="I"><use xlink:href="#T" x="29.7"/><use xlink:href="#S" x="30.532" y="-258.967"/></g><path d="M201.15 7h7.2v7.2h-7.2z" class="E"/><path d="M202.95 8.8h3.6v3.6h-3.6z" class="B C F"/><path d="M206.55 8.8h-3.6l-.9-.9h5.4z" class="G"/><path d="M206.55 12.398h-3.6l-.9.9h5.4z" class="H"/><g class="I"><use xlink:href="#U" x="64.8"/><use xlink:href="#S" x="65.632" y="-251.967"/></g><path d="M179.55 7h7.2v7.2h-7.2z" class="E"/><path d="M181.35 8.8h3.6v3.6h-3.6z" class="B C F"/><path d="M184.95 8.8h-3.6l-.9-.9h5.4z" class="G"/><path d="M184.95 12.398h-3.6l-.9.9h5.4z" class="H"/><g class="I"><use xlink:href="#U" x="43.2"/><use xlink:href="#S" x="44.032" y="-251.967"/></g><path d="M193.95 7h7.2v7.2h-7.2z" class="E"/><path d="M195.75 8.8h3.6v3.6h-3.6z" class="B C F"/><path d="M199.35 8.8h-3.6l-.9-.9h5.4z" class="G"/><path d="M199.35 12.398h-3.6l-.9.9h5.4z" class="H"/><g class="I"><use xlink:href="#U" x="57.6"/><use xlink:href="#S" x="58.432" y="-251.967"/></g><path d="M186.75 7h7.2v7.2h-7.2z" class="E"/><path d="M188.55 8.8h3.6v3.6h-3.6z" class="B C F"/><path d="M192.15 8.8h-3.6l-.9-.9h5.4z" class="G"/><path d="M192.15 12.398h-3.6l-.9.9h5.4z" class="H"/><g class="I"><use xlink:href="#U" x="50.4"/><use xlink:href="#S" x="51.232" y="-251.967"/></g><path d="M172.35 7h7.2v7.2h-7.2z" class="E"/><path d="M174.15 8.8h3.6v3.6h-3.6z" class="B C F"/><path d="M177.75 8.8h-3.6l-.9-.9h5.4z" class="G"/><path d="M177.75 12.398h-3.6l-.9.9h5.4z" class="H"/><g class="I"><use xlink:href="#U" x="36"/><use xlink:href="#S" x="36.832" y="-251.967"/></g><path d="M166.048 7h7.2v7.2h-7.2z" class="E"/><path d="M167.85 8.8h3.6v3.6h-3.6z" class="B C F"/><path d="M171.45 8.8h-3.6l-.9-.9h5.4z" class="G"/><path d="M171.45 12.398h-3.6l-.9.9h5.4z" class="H"/><g class="I"><use xlink:href="#U" x="29.7"/><use xlink:href="#S" x="30.532" y="-251.967"/></g><path d="M265.95 0h7.2v7.2h-7.2z" class="E"/><path d="M267.75 1.8h3.6v3.6h-3.6z" class="B C F"/><path d="M271.35 1.8h-3.6l-.9-.9h5.4z" class="G"/><path d="M271.35 5.398h-3.6l-.9.9h5.4z" class="H"/><g class="I"><use xlink:href="#T" x="129.6"/><use xlink:href="#S" x="130.432" y="-258.967"/></g><path d="M244.35 0h7.2v7.2h-7.2z" class="E"/><path d="M246.15 1.8h3.6v3.6h-3.6z" class="B C F"/><path d="M249.75 1.8h-3.6l-.9-.9h5.4z" class="G"/><path d="M249.75 5.398h-3.6l-.9.9h5.4z" class="H"/><g class="I"><use xlink:href="#T" x="108"/><use xlink:href="#S" x="108.832" y="-258.967"/></g><path d="M258.75 0h7.2v7.2h-7.2z" class="E"/><path d="M260.55 1.8h3.6v3.6h-3.6z" class="B C F"/><path d="M264.15 1.8h-3.6l-.9-.9h5.4z" class="G"/><path d="M264.15 5.398h-3.6l-.9.9h5.4z" class="H"/><g class="I"><use xlink:href="#T" x="122.4"/><use xlink:href="#S" x="123.232" y="-258.967"/></g><path d="M251.55 0h7.2v7.2h-7.2z" class="E"/><path d="M253.35 1.8h3.6v3.6h-3.6z" class="B C F"/><path d="M256.95 1.8h-3.6l-.9-.9h5.4z" class="G"/><path d="M256.95 5.398h-3.6l-.9.9h5.4z" class="H"/><g class="I"><use xlink:href="#T" x="115.2"/><use xlink:href="#S" x="116.032" y="-258.967"/></g><path d="M237.15 0h7.2v7.2h-7.2z" class="E"/><path d="M238.95 1.8h3.6v3.6h-3.6z" class="B C F"/><path d="M242.55 1.8h-3.6l-.9-.9h5.4z" class="G"/><path d="M242.55 5.398h-3.6l-.9.9h5.4z" class="H"/><g class="I"><use xlink:href="#T" x="100.8"/><use xlink:href="#S" x="101.632" y="-258.967"/></g><path d="M230.848 0h7.2v7.2h-7.2z" class="E"/><path d="M232.65 1.8h3.6v3.6h-3.6z" class="B C F"/><path d="M236.25 1.8h-3.6l-.9-.9h5.4z" class="G"/><path d="M236.25 5.398h-3.6l-.9.9h5.4z" class="H"/><g class="I"><use xlink:href="#T" x="94.5"/><use xlink:href="#S" x="95.332" y="-258.967"/></g><path d="M265.95 7h7.2v7.2h-7.2z" class="E"/><path d="M267.75 8.8h3.6v3.6h-3.6z" class="B C F"/><path d="M271.35 8.8h-3.6l-.9-.9h5.4z" class="G"/><path d="M271.35 12.398h-3.6l-.9.9h5.4z" class="H"/><g class="I"><use xlink:href="#U" x="129.6"/><use xlink:href="#S" x="130.432" y="-251.967"/></g><path d="M244.35 7h7.2v7.2h-7.2z" class="E"/><path d="M246.15 8.8h3.6v3.6h-3.6z" class="B C F"/><path d="M249.75 8.8h-3.6l-.9-.9h5.4z" class="G"/><path d="M249.75 12.398h-3.6l-.9.9h5.4z" class="H"/><g class="I"><use xlink:href="#U" x="108"/><use xlink:href="#S" x="108.832" y="-251.967"/></g><path d="M258.75 7h7.2v7.2h-7.2z" class="E"/><path d="M260.55 8.8h3.6v3.6h-3.6z" class="B C F"/><path d="M264.15 8.8h-3.6l-.9-.9h5.4z" class="G"/><path d="M264.15 12.398h-3.6l-.9.9h5.4z" class="H"/><g class="I"><use xlink:href="#U" x="122.4"/><use xlink:href="#S" x="123.232" y="-251.967"/></g><path d="M251.55 7h7.2v7.2h-7.2z" class="E"/><path d="M253.35 8.8h3.6v3.6h-3.6z" class="B C F"/><path d="M256.95 8.8h-3.6l-.9-.9h5.4z" class="G"/><path d="M256.95 12.398h-3.6l-.9.9h5.4z" class="H"/><g class="I"><use xlink:href="#U" x="115.2"/><use xlink:href="#S" x="116.032" y="-251.967"/></g><path d="M237.15 7h7.2v7.2h-7.2z" class="E"/><path d="M238.95 8.8h3.6v3.6h-3.6z" class="B C F"/><path d="M242.55 8.8h-3.6l-.9-.9h5.4z" class="G"/><path d="M242.55 12.398h-3.6l-.9.9h5.4z" class="H"/><g class="I"><use xlink:href="#U" x="100.8"/><use xlink:href="#S" x="101.632" y="-251.967"/></g><path d="M230.848 7h7.2v7.2h-7.2z" class="E"/><path d="M232.65 8.8h3.6v3.6h-3.6z" class="B C F"/><path d="M236.25 8.8h-3.6l-.9-.9h5.4z" class="G"/><path d="M236.25 12.398h-3.6l-.9.9h5.4z" class="H"/><g class="I"><use xlink:href="#U" x="94.5"/><use xlink:href="#S" x="95.332" y="-251.967"/></g><path d="M295.77 50.85h7.2v7.2h-7.2z" class="E"/><path d="M297.57 52.65h3.6v3.6h-3.6z" class="B C F"/><use xlink:href="#V" class="G"/><use xlink:href="#W" class="H"/><g class="I"><use xlink:href="#X"/><use xlink:href="#Y"/></g><path d="M295.77 72.45h7.2v7.2h-7.2z" class="E"/><path d="M297.57 74.25h3.6v3.6h-3.6z" class="B C F"/><use xlink:href="#V" y="21.6" class="G"/><use xlink:href="#W" y="21.6" class="H"/><g class="I"><use xlink:href="#X" y="21.6"/><use xlink:href="#Y" y="21.6"/></g><path d="M295.77 58.05h7.2v7.2h-7.2z" class="E"/><path d="M297.57 59.85h3.6v3.6h-3.6z" class="B C F"/><use xlink:href="#V" y="7.2" class="G"/><use xlink:href="#W" y="7.2" class="H"/><g class="I"><use xlink:href="#X" y="7.198"/><use xlink:href="#Y" y="7.198"/></g><path d="M295.77 65.25h7.2v7.2h-7.2z" class="E"/><path d="M297.57 67.05h3.6v3.6h-3.6z" class="B C F"/><use xlink:href="#V" y="14.4" class="G"/><use xlink:href="#W" y="14.4" class="H"/><g class="I"><use xlink:href="#X" y="14.4"/><use xlink:href="#Y" y="14.4"/></g><path d="M295.77 79.65h7.2v7.202h-7.2z" class="E"/><path d="M297.57 81.45h3.6v3.6h-3.6z" class="B C F"/><use xlink:href="#V" y="28.8" class="G"/><use xlink:href="#W" y="28.8" class="H"/><g class="I"><use xlink:href="#X" y="28.8"/><use xlink:href="#Y" y="28.8"/></g><path d="M295.77 85.95h7.2v7.2h-7.2z" class="E"/><path d="M297.57 87.75h3.6v3.6h-3.6z" class="B C F"/><use xlink:href="#V" y="35.1" class="G"/><use xlink:href="#W" y="35.1" class="H"/><g class="I"><use xlink:href="#X" y="35.1"/><use xlink:href="#Y" y="35.1"/></g><path d="M302.77 50.85h7.2v7.2h-7.2z" class="E"/><path d="M304.57 52.65h3.6v3.6h-3.6z" class="B C F"/><use xlink:href="#V" x="7" class="G"/><use xlink:href="#W" x="7" class="H"/><g class="I"><use xlink:href="#X" x="7"/><use xlink:href="#Y" x="7"/></g><path d="M302.77 72.45h7.2v7.2h-7.2z" class="E"/><path d="M304.57 74.25h3.6v3.6h-3.6z" class="B C F"/><use xlink:href="#V" x="7" y="21.6" class="G"/><use xlink:href="#W" x="7" y="21.6" class="H"/><g class="I"><use xlink:href="#X" x="7" y="21.6"/><use xlink:href="#Y" x="7" y="21.6"/></g><path d="M302.77 58.05h7.2v7.2h-7.2z" class="E"/><path d="M304.57 59.85h3.6v3.6h-3.6z" class="B C F"/><use xlink:href="#V" x="7" y="7.2" class="G"/><use xlink:href="#W" x="7" y="7.2" class="H"/><g class="I"><use xlink:href="#X" x="7" y="7.198"/><use xlink:href="#Y" x="7" y="7.198"/></g><path d="M302.77 65.25h7.2v7.2h-7.2z" class="E"/><path d="M304.57 67.05h3.6v3.6h-3.6z" class="B C F"/><use xlink:href="#V" x="7" y="14.4" class="G"/><use xlink:href="#W" x="7" y="14.4" class="H"/><g class="I"><use xlink:href="#X" x="7" y="14.4"/><use xlink:href="#Y" x="7" y="14.4"/></g><path d="M302.77 79.65h7.2v7.202h-7.2z" class="E"/><path d="M304.57 81.45h3.6v3.6h-3.6z" class="B C F"/><use xlink:href="#V" x="7" y="28.8" class="G"/><use xlink:href="#W" x="7" y="28.8" class="H"/><g class="I"><use xlink:href="#X" x="7" y="28.8"/><use xlink:href="#Y" x="7" y="28.8"/></g><path d="M302.77 85.95h7.2v7.2h-7.2z" class="E"/><path d="M304.57 87.75h3.6v3.6h-3.6z" class="B C F"/><use xlink:href="#V" x="7" y="35.1" class="G"/><use xlink:href="#W" x="7" y="35.1" class="H"/><g class="I"><use xlink:href="#X" x="7" y="35.1"/><use xlink:href="#Y" x="7" y="35.1"/></g><path d="M295.77 115.65h7.2v7.2h-7.2z" class="E"/><path d="M297.57 117.45h3.6v3.6h-3.6z" class="B C F"/><use xlink:href="#V" y="64.8" class="G"/><use xlink:href="#W" y="64.8" class="H"/><g class="I"><use xlink:href="#X" y="64.8"/><use xlink:href="#Y" y="64.8"/></g><path d="M295.77 137.25h7.2v7.2h-7.2z" class="E"/><path d="M297.57 139.05h3.6v3.6h-3.6z" class="B C F"/><use xlink:href="#V" y="86.4" class="G"/><use xlink:href="#W" y="86.4" class="H"/><g class="I"><use xlink:href="#X" y="86.4"/><use xlink:href="#Y" y="86.4"/></g><path d="M295.77 122.85h7.2v7.2h-7.2z" class="E"/><path d="M297.57 124.65h3.6v3.6h-3.6z" class="B C F"/><use xlink:href="#V" y="72" class="G"/><use xlink:href="#W" y="72" class="H"/><g class="I"><use xlink:href="#X" y="72"/><use xlink:href="#Y" y="72"/></g><path d="M295.77 130.05h7.2v7.2h-7.2z" class="E"/><path d="M297.57 131.85h3.6v3.6h-3.6z" class="B C F"/><use xlink:href="#V" y="79.2" class="G"/><use xlink:href="#W" y="79.2" class="H"/><g class="I"><use xlink:href="#X" y="79.2"/><use xlink:href="#Y" y="79.2"/></g><path d="M295.77 144.45h7.2v7.2h-7.2z" class="E"/><path d="M297.57 146.25h3.6v3.6h-3.6z" class="B C F"/><use xlink:href="#V" y="93.6" class="G"/><use xlink:href="#W" y="93.6" class="H"/><g class="I"><use xlink:href="#X" y="93.6"/><use xlink:href="#Y" y="93.6"/></g><path d="M295.77 150.75h7.2v7.2h-7.2z" class="E"/><path d="M297.57 152.55h3.6v3.6h-3.6z" class="B C F"/><use xlink:href="#V" y="99.9" class="G"/><use xlink:href="#W" y="99.9" class="H"/><g class="I"><use xlink:href="#X" y="99.9"/><use xlink:href="#Y" y="99.9"/></g><path d="M302.77 115.65h7.2v7.2h-7.2z" class="E"/><path d="M304.57 117.45h3.6v3.6h-3.6z" class="B C F"/><use xlink:href="#V" x="7" y="64.8" class="G"/><use xlink:href="#W" x="7" y="64.8" class="H"/><g class="I"><use xlink:href="#X" x="7" y="64.8"/><use xlink:href="#Y" x="7" y="64.8"/></g><path d="M302.77 137.25h7.2v7.2h-7.2z" class="E"/><path d="M304.57 139.05h3.6v3.6h-3.6z" class="B C F"/><use xlink:href="#V" x="7" y="86.4" class="G"/><use xlink:href="#W" x="7" y="86.4" class="H"/><g class="I"><use xlink:href="#X" x="7" y="86.4"/><use xlink:href="#Y" x="7" y="86.4"/></g><path d="M302.77 122.85h7.2v7.2h-7.2z" class="E"/><path d="M304.57 124.65h3.6v3.6h-3.6z" class="B C F"/><use xlink:href="#V" x="7" y="72" class="G"/><use xlink:href="#W" x="7" y="72" class="H"/><g class="I"><use xlink:href="#X" x="7" y="72"/><use xlink:href="#Y" x="7" y="72"/></g><path d="M302.77 130.05h7.2v7.2h-7.2z" class="E"/><path d="M304.57 131.85h3.6v3.6h-3.6z" class="B C F"/><use xlink:href="#V" x="7" y="79.2" class="G"/><use xlink:href="#W" x="7" y="79.2" class="H"/><g class="I"><use xlink:href="#X" x="7" y="79.2"/><use xlink:href="#Y" x="7" y="79.2"/></g><path d="M302.77 144.45h7.2v7.2h-7.2z" class="E"/><path d="M304.57 146.25h3.6v3.6h-3.6z" class="B C F"/><use xlink:href="#V" x="7" y="93.6" class="G"/><use xlink:href="#W" x="7" y="93.6" class="H"/><g class="I"><use xlink:href="#X" x="7" y="93.6"/><use xlink:href="#Y" x="7" y="93.6"/></g><path d="M302.77 150.75h7.2v7.2h-7.2z" class="E"/><path d="M304.57 152.55h3.6v3.6h-3.6z" class="B C F"/><use xlink:href="#V" x="7" y="99.9" class="G"/><use xlink:href="#W" x="7" y="99.9" class="H"/><g class="I"><use xlink:href="#X" x="7" y="99.9"/><use xlink:href="#Y" x="7" y="99.9"/></g><text transform="matrix(0 -1 1 0 111.7612 258.3657)" class="D J K">GND</text><text transform="matrix(0 -1 1 0 111.4277 245.3667)" class="D J K">GND</text><text transform="matrix(0 -1 1 0 180.0942 245.3667)" class="D J K">GND</text><text transform="matrix(0 -1 1 0 245.4282 245.0347)" class="D J K">GND</text><text transform="matrix(0 -1 1 0 180.0952 258.3657)" class="D J K">GND</text><text transform="matrix(0 -1 1 0 245.7612 258.0337)" class="D J K">GND</text><text transform="matrix(0 -1 1 0 69.4277 23.6997)" class="D J K">GND</text><text transform="matrix(0 -1 1 0 62.4277 23.6997)" class="D J K">RE7</text><text transform="matrix(0 -1 1 0 62.7612 36.3667)" class="D J K">RE3</text><text transform="matrix(0 -1 1 0 55.7612 36.3667)" class="D J K">RE2</text><text transform="matrix(0 -1 1 0 47.7612 36.3667)" class="D J K">RE1</text><text transform="matrix(0 -1 1 0 41.0947 36.0337)" class="D J K">RE0</text><text transform="matrix(0 -1 1 0 55.4277 23.3677)" class="D J K">RE6</text><text transform="matrix(0 -1 1 0 48.0942 23.3677)" class="D J K">RE5</text><text transform="matrix(0 -1 1 0 41.0947 23.0337)" class="D J K">RE4</text><text transform="matrix(0 -1 1 0 191.7612 23.3657)" class="D J K">RF1</text><text transform="matrix(0 -1 1 0 192.0952 36.0332)" class="D J K">RG15</text><text transform="matrix(0 -1 1 0 185.0952 36.0332)" class="D J K">RG14</text><text transform="matrix(0 -1 1 0 177.0952 36.0332)" class="D J K">RG13</text><text transform="matrix(0 -1 1 0 170.4282 35.7002)" class="D J K">RG12</text><text transform="matrix(0 -1 1 0 184.7612 23.0337)" class="D J K">RF0</text><text transform="matrix(0 -1 1 0 177.4282 23.0337)" class="D J K">RG1</text><text transform="matrix(0 -1 1 0 170.4282 22.6997)" class="D J K">RG0</text><text transform="matrix(0 -1 1 0 127.7607 26.3662)" class="D J K">RB14</text><text transform="matrix(0 -1 1 0 128.0942 36.0337)" class="D J K">RG6</text><text transform="matrix(0 -1 1 0 121.0942 36.0337)" class="D J K">RG7</text><text transform="matrix(0 -1 1 0 113.0942 36.0337)" class="D J K">RG8</text><text transform="matrix(0 -1 1 0 106.4277 35.6997)" class="D J K">RG9</text><text transform="matrix(0 -1 1 0 120.7607 23.0337)" class="D J K">RD4</text><text transform="matrix(0 -1 1 0 113.4272 23.0337)" class="D J K">RD5</text><text transform="matrix(0 -1 1 0 106.4277 25.6997)" class="D J K">RB15</text><text transform="matrix(0 -1 1 0 256.4272 23.0317)" class="D J K">RC2</text><text transform="matrix(0 -1 1 0 256.7603 35.6997)" class="D J K">RC1</text><text transform="matrix(0 -1 1 0 249.7603 35.6997)" class="D J K">RD9</text><text transform="matrix(0 -1 1 0 241.7603 35.6997)" class="D J K">RD1</text><text transform="matrix(0 -1 1 0 235.0942 35.3657)" class="D J K">RD7</text><text transform="matrix(0 -1 1 0 249.4272 25.6997)" class="D J K">RD10</text><text transform="matrix(0 -1 1 0 242.0942 22.6997)" class="D J K">RD2</text><text transform="matrix(0 -1 1 0 235.0942 22.3657)" class="D J K">RD6</text><text transform="matrix(0 -1 1 0 140.4272 245.6987)" class="D J K">RB10</text><text transform="matrix(0 -1 1 0 140.7607 258.3657)" class="D J K">RA9</text><text transform="matrix(0 -1 1 0 133.7612 258.3667)" class="D J K">RA10</text><text transform="matrix(0 -1 1 0 125.7612 258.3667)" class="D J K">RD12</text><text transform="matrix(0 -1 1 0 119.0942 258.0317)" class="D J K">RC4</text><text transform="matrix(0 -1 1 0 133.4272 245.3667)" class="D J K">RB11</text><text transform="matrix(0 -1 1 0 126.0933 245.3667)" class="D J K">RB12</text><text transform="matrix(0 -1 1 0 119.0942 245.0327)" class="D J K">RB13</text><text transform="matrix(0 -1 1 0 208.4272 246.0317)" class="D J K">RB0</text><text transform="matrix(0 -1 1 0 208.7603 258.6997)" class="D J K">RB4</text><text transform="matrix(0 -1 1 0 201.7603 258.6997)" class="D J K">RB5</text><text transform="matrix(0 -1 1 0 193.7603 258.6997)" class="D J K">RB8</text><text transform="matrix(0 -1 1 0 187.0942 258.3657)" class="D J K">RB9</text><text transform="matrix(0 -1 1 0 201.4272 245.6997)" class="D J K">RB1</text><text transform="matrix(0 -1 1 0 194.0942 245.6997)" class="D J K">RB2</text><text transform="matrix(0 -1 1 0 187.0942 245.3657)" class="D J K">RB3</text><text transform="matrix(0 -1 1 0 274.0942 246.0327)" class="D J K">RF12</text><text transform="matrix(0 -1 1 0 274.4282 258.6997)" class="D J K">RE8</text><text transform="matrix(0 -1 1 0 267.4282 258.6997)" class="D J K">RD0</text><text transform="matrix(0 -1 1 0 259.4282 258.6997)" class="D J K">RD8</text><text transform="matrix(0 -1 1 0 252.7612 258.3667)" class="D J K">RD13</text><text transform="matrix(0 -1 1 0 267.0942 245.6997)" class="D J K">RF5</text><text transform="matrix(0 -1 1 0 259.7603 245.6997)" class="D J K">RF4</text><text transform="matrix(0 -1 1 0 252.7612 245.3667)" class="D J K">RF13</text><text transform="translate(286.559 142.237)" class="D J K">RA5</text><text transform="translate(273.891 142.57)" class="D J K">RA7</text><text transform="translate(273.891 135.57)" class="D J K">RA6</text><text transform="translate(273.891 127.571)" class="D J K">RA15</text><text transform="translate(274.225 120.904)" class="D J K">RA14</text><text transform="translate(286.891 135.237)" class="D J K">RA4</text><text transform="translate(286.891 127.904)" class="D J K">RA1</text><text transform="translate(287.227 120.904)" class="D J K">RA0</text><text transform="translate(285.892 76.57)" class="D J K">RC3</text><text transform="translate(273.224 76.904)" class="D J K">RD15</text><text transform="translate(273.224 69.903)" class="D J K">RF2</text><text transform="translate(273.224 61.903)" class="D J K">RF8</text><text transform="translate(273.558 55.237)" class="D J K">RD14</text><text transform="translate(284.224 69.57)" class="D J K">RD11</text><text transform="translate(286.224 62.236)" class="D J K">RD3</text><text transform="translate(286.56 55.237)" class="D J K">RE9</text><text transform="matrix(0 -1 1 0 69.4277 36.3667)" class="D J K">GND</text><text transform="matrix(0 -1 1 0 135.0942 36.0337)" class="D J K">GND</text><text transform="matrix(0 -1 1 0 199.7612 35.7007)" class="D J K">GND</text><text transform="matrix(0 -1 1 0 264.0952 36.3677)" class="D J K">GND</text><text transform="matrix(0 -1 1 0 199.7622 23.0337)" class="D J K">GND</text><text transform="matrix(0 -1 1 0 134.7612 23.0337)" class="D J K">GND</text><text transform="matrix(0 -1 1 0 264.0942 23.3677)" class="D J K">GND</text><text transform="translate(286.891 84.57)" class="D J K">GND</text><text transform="translate(274.225 84.904)" class="D J K">GND</text><text transform="translate(273.484 150.337)" class="D J K">GND</text><text transform="translate(286.557 150.238)" class="D J K">GND</text><text transform="matrix(0 -1 1 0 105.3545 258.4673)" class="D J K">VDD</text><text transform="matrix(0 -1 1 0 105.3545 245.4673)" class="D J K">VDD</text><text transform="matrix(0 -1 1 0 76.6875 23.8003)" class="D J K">VDD</text><text transform="matrix(0 -1 1 0 76.6875 36.1333)" class="D J K">VDD</text><text transform="matrix(0 -1 1 0 142.021 35.7993)" class="D J K">VDD</text><text transform="matrix(0 -1 1 0 141.6875 23.1333)" class="D J K">VDD</text><text transform="matrix(0 -1 1 0 206.688 23.1333)" class="D J K">VDD</text><text transform="matrix(0 -1 1 0 272.022 23.1333)" class="D J K">VDD</text><text transform="matrix(0 -1 1 0 272.354 36.1333)" class="D J K">VDD</text><text transform="translate(287.152 91.335)" class="D J K">VDD</text><text transform="translate(286.819 156.002)" class="D J K">VDD</text><text transform="translate(273.152 156.002)" class="D J K">VDD</text><text transform="translate(273.819 91.335)" class="D J K">VDD</text><text transform="matrix(0 -1 1 0 206.688 36.4663)" class="D J K">VDD</text><text transform="matrix(0 -1 1 0 172.688 245.4673)" class="D J K">VDD</text><text transform="matrix(0 -1 1 0 173.022 258.4673)" class="D J K">VDD</text><text transform="matrix(0 -1 1 0 239.022 258.7993)" class="D J K">VDD</text><text transform="matrix(0 -1 1 0 239.022 245.1313)" class="D J K">VDD</text><path d="M135.254 186.696h6.104l-3.048-5.27zm-6.297.704l5.982-10.317h-6.776c-.562 0-1.018.512-1.018 1.144v8.03c0 .632.456 1.144 1.018 1.144h.794zm75.463-10.317h-62.846l5.98 10.317h56.865c.56 0 1.017-.512 1.017-1.144v-8.03c0-.63-.456-1.143-1.017-1.143z" fill="#00703c" class="T"/><path d="M155.042 190.873v-2.33h1.436c.237 0 .416.05.538.146s.183.24.183.43c0 .095-.02.18-.057.253a.45.45 0 0 1-.165.179c.13.073.226.162.292.268a.66.66 0 0 1 .098.354c0 .217-.072.388-.217.514s-.346.188-.6.188h-1.507zm1.425-1.997h-1.06v.55h1.063c.117 0 .205-.023.265-.07s.1-.115.1-.207-.03-.16-.1-.205-.15-.07-.27-.07zm.123.892h-1.182v.77h1.182c.128 0 .227-.033.298-.102s.104-.163.104-.286-.035-.215-.104-.28-.17-.1-.298-.1zm1.912 1.105v-2.334h2.193v.34h-1.827v.586h1.197v.335h-1.197v.737h1.927v.335h-2.293zm3.904 0v-1.2l-1.063-1.143h.47l.772.827.76-.827h.485l-1.068 1.137v1.197h-.357zm3.278.074c-.417 0-.758-.117-1.025-.354s-.402-.53-.402-.886a1.13 1.13 0 0 1 .399-.885c.27-.232.6-.35 1.028-.35s.765.116 1.03.348.4.526.4.886a1.13 1.13 0 0 1-.4.887c-.267.236-.6.353-1.03.353zm0-.342c.312 0 .565-.084.763-.253a.81.81 0 0 0 .295-.645.81.81 0 0 0-.296-.644c-.198-.17-.452-.255-.762-.255s-.563.084-.76.253a.81.81 0 0 0-.293.646c0 .26.097.475.293.645s.45.253.76.253zm2.453.268v-2.334h.2l1.485 1.64v-1.64h.357v2.334h-.2l-1.482-1.635v1.635h-.36zm4.296-2.333c.382 0 .688.108.92.326s.35.5.35.85-.114.633-.343.844-.538.315-.928.315h-1.037v-2.334h1.037zm.005.334h-.676v1.665h.676c.277 0 .497-.073.654-.224s.238-.35.238-.605c0-.247-.082-.447-.246-.604s-.38-.232-.646-.232zm5.104 2v-2h-.984v-.325h2.337v.325h-1v2h-.364zm2.498-1.085v1.085h-.366v-2.334h.366v.908h1.64v-.908h.364v2.334h-.364v-1.085h-1.64zm3.216 1.085v-2.334h2.192v.34h-1.826v.586h1.2v.335h-1.2v.737h1.927v.335h-2.293zm4.46.074c-.417 0-.758-.117-1.025-.354a1.12 1.12 0 0 1-.401-.886 1.12 1.12 0 0 1 .4-.885c.267-.232.608-.35 1.026-.35s.765.116 1.03.348.402.526.402.886a1.13 1.13 0 0 1-.403.887c-.267.236-.6.353-1.03.353zm0-.342c.312 0 .565-.084.763-.253a.81.81 0 0 0 .296-.645c0-.26-.1-.475-.296-.644s-.453-.255-.763-.255-.563.084-.76.253-.294.385-.294.646a.81.81 0 0 0 .294.645c.196.17.45.253.76.253zm2.82-.755v1.02h-.367v-2.33h1.608c.238 0 .425.058.56.172a.6.6 0 0 1 .203.479c0 .167-.054.3-.16.432a.67.67 0 0 1-.417.223l.646 1.026h-.396l-.66-1.02h-1.016zm0-.34h1.24c.126 0 .222-.027.288-.082s.1-.133.1-.236-.033-.18-.1-.234-.162-.08-.288-.08h-1.24v.633zm3.656 1.363v-1.2l-1.063-1.143h.47l.773.827.76-.827h.486l-1.07 1.137v1.197h-.357z"/><g class="D"><path d="M148.346 186.136v-7.798h1.596c1.194 0 2.04.056 2.534.17a3.63 3.63 0 0 1 1.306.569 3.33 3.33 0 0 1 1.107 1.324c.253.538.38 1.15.38 1.84s-.126 1.303-.38 1.84-.62.98-1.108 1.323a3.6 3.6 0 0 1-1.27.562c-.477.112-1.216.17-2.217.17h-1.948zm2.067-1.74h.352c.822 0 1.423-.173 1.8-.516s.566-.888.566-1.635-.2-1.294-.566-1.643-.978-.523-1.8-.523h-.352v4.317zm6.66 1.74v-7.798h2.113v7.798h-2.113zm7.89-2.866v-1.64h4.114l.007.175.002.283c0 1.344-.348 2.386-1.046 3.127s-1.68 1.1-2.946 1.1c-.62 0-1.175-.095-1.66-.285s-.918-.48-1.298-.87a3.94 3.94 0 0 1-.848-1.324 4.34 4.34 0 0 1-.302-1.603 4.34 4.34 0 0 1 .293-1.608 3.94 3.94 0 0 1 .877-1.32c.385-.38.826-.668 1.324-.862s1.036-.293 1.613-.293c.752 0 1.417.15 1.996.452s1.065.748 1.46 1.344l-1.818.9c-.215-.303-.46-.528-.73-.676a1.87 1.87 0 0 0-.908-.224c-.625 0-1.12.213-1.478.64s-.54 1.005-.54 1.74c0 .744.18 1.33.54 1.755s.853.642 1.478.642c.53 0 .973-.132 1.327-.396a1.51 1.51 0 0 0 .62-1.054h-2.08zm5.903 2.866v-7.798h2.1v7.798h-2.1zm4.24 0v-7.798h2.088v5.978h2.607v1.82h-4.695zm6.158 0v-7.798h4.708v1.708H183.3v1.347h2.512v1.675H183.3v1.327h2.664v1.74h-4.708zm8.554 0h-2.023v-7.798h2.023l3.472 4.837v-4.837h2v7.798h-2l-3.472-4.772v4.772zm8.685 0v-5.955h-1.72v-1.843h5.53v1.843h-1.72v5.955h-2.1z" class="T"/><path d="M203.626 178.336a.71.71 0 0 1 .709.71.71.71 0 0 1-.709.709.71.71 0 0 1-.709-.709.71.71 0 0 1 .709-.71m.003 1.312c.325 0 .57-.265.57-.602s-.246-.606-.57-.606c-.33 0-.575.266-.575.606s.244.602.575.602zm-.273-1.02h.316c.19 0 .286.077.286.232 0 .134-.084.23-.215.23l.234.366h-.14l-.232-.366h-.113v.366h-.136v-.83zm.136.358h.16c.104 0 .17-.02.17-.13 0-.094-.084-.12-.17-.12h-.16v.25z"/></g><path fill="#919195" d="M147.276 189.32H133.41c-.568 0-.27-.46-.27-.46l4.76-8.103s.28-.413.016-.93l-.375-.63c-.258-.412-.506-.015-.506-.015l-6.665 11.42s-.28.455.268.455l15.628.006c.562 0 .81-.454.81-.454l.48-.845c0 .001.263-.445-.28-.445z"/><path fill="#babcbe" d="M144.543 186.956s.26.45-.265.45h-9.338c-.59 0-.825.435-.825.435l-.448.738s-.316.443.302.443l13.157.002c.65 0 .3-.5.3-.5l-7.82-13.473s-.242-.443-.785-.443h-.764c-.574 0-.25.5-.25.5l6.737 11.84z"/><path fill="#d8d9da" d="M137.53 178.605c.001 0 4.678 8.06 4.678 8.06s.232.46.83.46l.725-.001s.508.012.26-.465c0-.001-6.52-11.48-6.522-11.483-.298-.52-.54-.076-.54-.076l-7.944 13.705s-.243.408-.004.863a499.58 499.58 0 0 1 .524.918s.24.43.536-.064c.001-.002 5.684-9.733 6.958-11.916 0-.001.237-.403.502 0z"/><path d="M204.42 176.52h-63.173l-1.175-2.027c-.04-.06-.415-.6-1.06-.6h-1.493c-.665 0-1.04.544-1.08.605l-.006.01-.005.01-1.16 2h-7.104c-.872 0-1.583.766-1.583 1.708v8.03c0 .94.7 1.71 1.583 1.71h.466l-.33.57a1.34 1.34 0 0 0-.056 1.292 159.74 159.74 0 0 0 .735 1.292c.134.25.53.663 1.184.663h15.99c.026.004.054.005.085.006h.187c.613 0 1.02-.434 1.164-.7l.678-1.2c.283-.557.123-1.083-.023-1.314l-.358-.618h56.537c.872 0 1.582-.768 1.582-1.71v-8.03c-.001-.942-.71-1.708-1.583-1.708zm-66.367-1.9h.764c.543 0 .785.443.785.443l7.82 13.47s.353.5-.3.5l-13.166-.002c-.618 0-.302-.443-.302-.443l.448-.738s.235-.435.825-.435h9.338c.03 0 .058-.003.084-.005.02-.003.038-.007.055-.01.032-.007.045-.013.058-.017.027-.013.037-.02.047-.026.02-.015.028-.024.034-.03.016-.018.02-.027.026-.034l.016-.037.007-.04.001-.042-.003-.04a.24.24 0 0 0-.007-.037l-.01-.036-.01-.032-.01-.027-.01-.023-6.747-11.856c.001.005-.325-.494.25-.494zm-2.8 12.078l3.056-5.27 3.048 5.27h-6.104zm-7.09.705c-.562 0-1.018-.512-1.018-1.144v-8.03c0-.632.456-1.144 1.018-1.144h6.776l-5.982 10.317h-.794zm1.907 3.12c-.297.493-.536.064-.536.064l-.524-.918c-.24-.455.004-.863.004-.863l7.944-13.704s.243-.445.54.076l.07.127 6.437 11.33a.33.33 0 0 0 .015.026c.25.477-.26.465-.26.465l-.725.001c-.596 0-.83-.46-.83-.46l-4.678-8.06c-.265-.403-.502-.001-.502-.001l-6.96 11.916zm17.485-.753l-.48.845s-.25.454-.81.454-15.08-.006-15.628-.006-.268-.455-.268-.455l6.666-11.42s.248-.397.506.015a48.82 48.82 0 0 1 .375.629c.263.517-.016.93-.016.93l-4.76 8.103s-.297.46.27.46h13.867c.54-.001.278.445.278.445zm57.883-3.5c0 .632-.456 1.144-1.017 1.144h-56.865l-5.98-10.317h62.846c.56 0 1.017.512 1.017 1.144v8.03z" class="C"/><defs ><path id="B" d="M26.525 44.853h1.668v1.313h-1.668z"/><path id="C" d="M25.086 232.292h7.428v3.713h-7.428z"/><path id="D" d="M30.656 230.435l1.858 1.857h-7.428l1.857-1.857z"/><path id="E" d="M32.514 236.005l-1.858 1.857h-3.713l-1.857-1.857z"/><path id="F" d="M30.656 222.938l1.858 1.856h-7.428l1.857-1.856z"/><path id="G" d="M105.537 209.555l1.857 1.857h-7.428l1.858-1.857z"/><path id="H" d="M107.394 215.125l-1.857 1.857h-3.713l-1.858-1.857z"/><path id="I" d="M43.314 221.164l-1.857 1.856h-3.713l-1.858-1.856z"/><path id="J" d="M41.457 223.083l1.857 1.856h-7.428l1.858-1.856z"/><path id="K" d="M50.514 221.164l-1.858 1.856h-3.713l-1.857-1.856z"/><path id="L" d="M57.714 221.164l-1.858 1.856h-3.712l-1.858-1.856z"/><path id="M" d="M300.837 104.514l-1.857-1.857v-3.713l1.857-1.858z"/><path id="N" d="M291.42 102.657l-1.856 1.857v-7.428l1.856 1.858z"/><path id="O" d="M27.297 158.4c0 1.12-.953 2.025-2.128 2.025h-4.257c-1.176 0-2.13-.906-2.13-2.025s.953-2.024 2.13-2.024h4.257c1.175-.001 2.128.906 2.128 2.024z"/><path id="P" d="M149.76 208.143c1.12 0 2.025.953 2.025 2.128v4.257c0 1.176-.906 2.13-2.025 2.13s-2.024-.953-2.024-2.13v-4.257c0-1.175.906-2.128 2.024-2.128z"/><path id="Q" d="M169.2 208.143c1.12 0 2.025.953 2.025 2.128v4.257c0 1.176-.906 2.13-2.025 2.13s-2.024-.953-2.024-2.13v-4.257c-.001-1.175.906-2.128 2.024-2.128z"/><path id="R" d="M141.818 265.265l-.9-.9v-3.6l.9-.9z"/><path id="S" d="M137.318 264.365l-.9.9v-5.4l.9.9z"/><path id="T" d="M142.65 6.3l-.9-.9V1.8l.9-.9z"/><path id="U" d="M142.65 13.3l-.9-.9V8.8l.9-.9z"/><path id="V" d="M297.57 52.65v3.6l-.9.9v-5.4z"/><path id="W" d="M301.168 52.65v3.6l.9.9v-5.4z"/><path id="X" d="M302.07 51.75l-.9.9h-3.6l-.9-.9z"/><path id="Y" d="M301.168 56.25l.9.9h-5.4l.9-.9z"/></defs></svg>