<svg xmlns="http://www.w3.org/2000/svg" xmlns:xlink="http://www.w3.org/1999/xlink" width="260" height="202" viewBox="0 0 194.457 151.256"><style><![CDATA[.B{stroke-miterlimit:10}.C{fill:#444}.D{fill:#b88a00}.E{fill:#fff}.F{fill:#414141}.G{fill:#231f20}.H{stroke:#231f20}.I{fill:#383838}.J{fill:#585858}.K{fill:#494848}.L{font-family:OCRA}.M{font-size:4px}.N{fill:#06c}.O{fill:#005cb8}.P{fill:#ccc}.Q{stroke:#000}.R{stroke-linecap:round}.S{stroke-width:2}.T{fill:none}.U{stroke:#fff}.V{fill:#b0b0b0}.W{fill:#f8ee6b}]]></style><path fill="#421111" d="M.001 0h194.456v151.256H.001z"/><text transform="matrix(0 -1 1 0 93.7529 138.3325)" class="E L M">RESET</text><text transform="matrix(0 -1 1 0 73.2529 146.5825)" class="E L M">BTN1</text><text transform="matrix(0 -1 1 0 44.2529 146.0825)" class="E L M">BTN2</text><path d="M12.897 132.537c0 1.118-.953 2.024-2.128 2.024H6.51c-1.175 0-2.128-.906-2.128-2.024s.953-2.024 2.128-2.024h4.257c1.176-.001 2.13.905 2.13 2.024z" class="V"/><path d="M7.576 131.266h2.128v2.472H7.576z" class="W"/><path d="M12.897 125.336c0 1.12-.953 2.025-2.128 2.025H6.51c-1.175 0-2.128-.906-2.128-2.025s.953-2.025 2.128-2.025h4.257c1.176 0 2.13.906 2.13 2.025z" class="V"/><path d="M7.576 124.067h2.128v2.47H7.576z" class="W"/><path d="M12.897 139.737c0 1.118-.953 2.024-2.128 2.024H6.51c-1.175 0-2.128-.906-2.128-2.024s.953-2.025 2.128-2.025h4.257c1.176-.001 2.13.906 2.13 2.025z" class="V"/><path d="M7.576 138.466h2.128v2.472H7.576z" class="W"/><path d="M12.897 146.936c0 1.12-.953 2.025-2.128 2.025H6.512c-1.176 0-2.13-.906-2.13-2.025s.953-2.024 2.13-2.024h4.258c1.174 0 2.127.906 2.127 2.024z" class="V"/><path d="M7.576 145.667h2.13v2.47h-2.13z" class="W"/><path d="M113.914 10.857h7.2v7.2h-7.2z" class="F"/><path d="M115.713 12.658h3.6v3.6h-3.6z" class="B G H"/><use xlink:href="#B" class="I"/><use xlink:href="#C" class="J"/><g class="K"><use xlink:href="#D"/><use xlink:href="#E"/></g><path d="M92.313 10.857h7.2v7.2h-7.2z" class="F"/><path d="M94.113 12.658h3.6v3.6h-3.6z" class="B G H"/><use xlink:href="#B" x="-21.601" class="I"/><use xlink:href="#C" x="-21.601" class="J"/><g class="K"><use xlink:href="#D" x="-21.601"/><use xlink:href="#E" x="-21.6"/></g><path d="M106.713 10.857h7.2v7.2h-7.2z" class="F"/><path d="M108.514 12.658h3.6v3.6h-3.6z" class="B G H"/><use xlink:href="#B" x="-7.199" class="I"/><use xlink:href="#C" x="-7.199" class="J"/><g class="K"><use xlink:href="#D" x="-7.2"/><use xlink:href="#E" x="-7.199"/></g><path d="M99.513 10.857h7.2v7.2h-7.2z" class="F"/><path d="M101.313 12.658h3.6v3.6h-3.6z" class="B G H"/><use xlink:href="#B" x="-14.4" class="I"/><use xlink:href="#C" x="-14.4" class="J"/><g class="K"><use xlink:href="#D" x="-14.401"/><use xlink:href="#E" x="-14.4"/></g><path d="M71.612 10.857h7.2v7.2h-7.2z" class="F"/><path d="M73.413 12.658h3.6v3.6h-3.6z" class="B G H"/><use xlink:href="#B" x="-42.301" class="I"/><use xlink:href="#C" x="-42.301" class="J"/><g class="K"><use xlink:href="#D" x="-42.301"/><use xlink:href="#E" x="-42.3"/></g><path d="M85.113 10.857h7.2v7.2h-7.2z" class="F"/><path d="M86.914 12.658h3.6v3.6h-3.6z" class="B G H"/><use xlink:href="#B" x="-28.8" class="I"/><use xlink:href="#C" x="-28.8" class="J"/><g class="K"><use xlink:href="#D" x="-28.8"/><use xlink:href="#E" x="-28.799"/></g><path d="M64.646 10.857h7.2v7.2h-7.2z" class="F"/><path d="M66.446 12.658h3.6v3.6h-3.6z" class="B G H"/><use xlink:href="#B" x="-49.267" class="I"/><use xlink:href="#C" x="-49.267" class="J"/><g class="K"><use xlink:href="#D" x="-49.268"/><use xlink:href="#E" x="-49.267"/></g><path d="M78.813 10.857h7.2v7.2h-7.2z" class="F"/><path d="M80.613 12.658h3.6v3.6h-3.6z" class="B G H"/><use xlink:href="#B" x="-35.101" class="I"/><use xlink:href="#C" x="-35.101" class="J"/><g class="K"><use xlink:href="#D" x="-35.101"/><use xlink:href="#E" x="-35.1"/></g><path d="M113.914 3.657h7.2v7.2h-7.2z" class="F"/><path d="M115.713 5.457h3.6v3.6h-3.6z" class="B G H"/><use xlink:href="#B" y="-7.201" class="I"/><use xlink:href="#C" y="-7.201" class="J"/><g class="K"><use xlink:href="#D" y="-7.201"/><use xlink:href="#E" y="-7.201"/></g><path d="M92.313 3.657h7.2v7.2h-7.2z" class="F"/><path d="M94.113 5.457h3.6v3.6h-3.6z" class="B G H"/><use xlink:href="#B" x="-21.601" y="-7.201" class="I"/><use xlink:href="#C" x="-21.601" y="-7.201" class="J"/><g class="K"><use xlink:href="#D" x="-21.601" y="-7.201"/><use xlink:href="#E" x="-21.6" y="-7.201"/></g><path d="M106.713 3.657h7.2v7.2h-7.2z" class="F"/><path d="M108.514 5.457h3.6v3.6h-3.6z" class="B G H"/><use xlink:href="#B" x="-7.199" y="-7.201" class="I"/><use xlink:href="#C" x="-7.199" y="-7.201" class="J"/><g class="K"><use xlink:href="#D" x="-7.2" y="-7.201"/><use xlink:href="#E" x="-7.199" y="-7.201"/></g><path d="M99.513 3.657h7.2v7.2h-7.2z" class="F"/><path d="M101.313 5.457h3.6v3.6h-3.6z" class="B G H"/><use xlink:href="#B" x="-14.4" y="-7.201" class="I"/><use xlink:href="#C" x="-14.4" y="-7.201" class="J"/><g class="K"><use xlink:href="#D" x="-14.401" y="-7.201"/><use xlink:href="#E" x="-14.4" y="-7.201"/></g><path d="M71.612 3.657h7.2v7.2h-7.2z" class="F"/><path d="M73.413 5.457h3.6v3.6h-3.6z" class="B G H"/><use xlink:href="#B" x="-42.301" y="-7.201" class="I"/><use xlink:href="#C" x="-42.301" y="-7.201" class="J"/><g class="K"><use xlink:href="#D" x="-42.301" y="-7.201"/><use xlink:href="#E" x="-42.3" y="-7.201"/></g><path d="M85.113 3.657h7.2v7.2h-7.2z" class="F"/><path d="M86.914 5.457h3.6v3.6h-3.6z" class="B G H"/><use xlink:href="#B" x="-28.8" y="-7.201" class="I"/><use xlink:href="#C" x="-28.8" y="-7.201" class="J"/><g class="K"><use xlink:href="#D" x="-28.8" y="-7.201"/><use xlink:href="#E" x="-28.799" y="-7.201"/></g><path d="M64.646 3.657h7.2v7.2h-7.2z" class="F"/><path d="M66.446 5.457h3.6v3.6h-3.6z" class="B G H"/><use xlink:href="#B" x="-49.267" y="-7.201" class="I"/><use xlink:href="#C" x="-49.267" y="-7.201" class="J"/><g class="K"><use xlink:href="#D" x="-49.268" y="-7.201"/><use xlink:href="#E" x="-49.267" y="-7.201"/></g><path d="M78.813 3.657h7.2v7.2h-7.2z" class="F"/><path d="M80.613 5.457h3.6v3.6h-3.6z" class="B G H"/><use xlink:href="#B" x="-35.101" y="-7.201" class="I"/><use xlink:href="#C" x="-35.101" y="-7.201" class="J"/><g class="K"><use xlink:href="#D" x="-35.101" y="-7.201"/><use xlink:href="#E" x="-35.1" y="-7.201"/></g><path d="M175.833 10.857h7.2v7.2h-7.2z" class="F"/><path d="M177.634 12.658h3.6v3.6h-3.6z" class="B G H"/><use xlink:href="#B" x="61.92" class="I"/><use xlink:href="#C" x="61.92" class="J"/><g class="K"><use xlink:href="#D" x="61.92"/><use xlink:href="#E" x="61.921"/></g><path d="M154.233 10.857h7.2v7.2h-7.2z" class="F"/><path d="M156.033 12.658h3.6v3.6h-3.6z" class="B G H"/><use xlink:href="#B" x="40.32" class="I"/><use xlink:href="#C" x="40.32" class="J"/><g class="K"><use xlink:href="#D" x="40.319"/><use xlink:href="#E" x="40.32"/></g><path d="M168.634 10.857h7.2v7.2h-7.2z" class="F"/><path d="M170.435 12.658h3.6v3.6h-3.6z" class="B G H"/><use xlink:href="#B" x="54.721" class="I"/><use xlink:href="#C" x="54.721" class="J"/><g class="K"><use xlink:href="#D" x="54.721"/><use xlink:href="#E" x="54.722"/></g><path d="M161.433 10.857h7.2v7.2h-7.2z" class="F"/><path d="M163.233 12.658h3.6v3.6h-3.6z" class="B G H"/><use xlink:href="#B" x="47.52" class="I"/><use xlink:href="#C" x="47.52" class="J"/><g class="K"><use xlink:href="#D" x="47.519"/><use xlink:href="#E" x="47.52"/></g><path d="M133.532 10.857h7.2v7.2h-7.2z" class="F"/><path d="M135.333 12.658h3.6v3.6h-3.6z" class="B G H"/><use xlink:href="#B" x="19.62" class="I"/><use xlink:href="#C" x="19.62" class="J"/><g class="K"><use xlink:href="#D" x="19.619"/><use xlink:href="#E" x="19.62"/></g><path d="M147.032 10.857h7.2v7.2h-7.2z" class="F"/><path d="M148.833 12.658h3.6v3.6h-3.6z" class="B G H"/><use xlink:href="#B" x="33.12" class="I"/><use xlink:href="#C" x="33.12" class="J"/><g class="K"><use xlink:href="#D" x="33.119"/><use xlink:href="#E" x="33.12"/></g><path d="M126.565 10.857h7.2v7.2h-7.2z" class="F"/><path d="M128.366 12.658h3.6v3.6h-3.6z" class="B G H"/><use xlink:href="#B" x="12.653" class="I"/><use xlink:href="#C" x="12.653" class="J"/><g class="K"><use xlink:href="#D" x="12.652"/><use xlink:href="#E" x="12.653"/></g><path d="M140.732 10.857h7.2v7.2h-7.2z" class="F"/><path d="M142.532 12.658h3.6v3.6h-3.6z" class="B G H"/><use xlink:href="#B" x="26.819" class="I"/><use xlink:href="#C" x="26.819" class="J"/><g class="K"><use xlink:href="#D" x="26.818"/><use xlink:href="#E" x="26.819"/></g><path d="M175.833 3.657h7.2v7.2h-7.2z" class="F"/><path d="M177.634 5.457h3.6v3.6h-3.6z" class="B G H"/><use xlink:href="#B" x="61.92" y="-7.201" class="I"/><use xlink:href="#C" x="61.92" y="-7.201" class="J"/><g class="K"><use xlink:href="#D" x="61.92" y="-7.201"/><use xlink:href="#E" x="61.921" y="-7.201"/></g><path d="M154.233 3.657h7.2v7.2h-7.2z" class="F"/><path d="M156.033 5.457h3.6v3.6h-3.6z" class="B G H"/><use xlink:href="#B" x="40.32" y="-7.201" class="I"/><use xlink:href="#C" x="40.32" y="-7.201" class="J"/><g class="K"><use xlink:href="#D" x="40.319" y="-7.201"/><use xlink:href="#E" x="40.32" y="-7.201"/></g><path d="M168.634 3.657h7.2v7.2h-7.2z" class="F"/><path d="M170.435 5.457h3.6v3.6h-3.6z" class="B G H"/><use xlink:href="#B" x="54.721" y="-7.201" class="I"/><use xlink:href="#C" x="54.721" y="-7.201" class="J"/><g class="K"><use xlink:href="#D" x="54.721" y="-7.201"/><use xlink:href="#E" x="54.722" y="-7.201"/></g><path d="M161.433 3.657h7.2v7.2h-7.2z" class="F"/><path d="M163.233 5.457h3.6v3.6h-3.6z" class="B G H"/><use xlink:href="#B" x="47.52" y="-7.201" class="I"/><use xlink:href="#C" x="47.52" y="-7.201" class="J"/><g class="K"><use xlink:href="#D" x="47.519" y="-7.201"/><use xlink:href="#E" x="47.52" y="-7.201"/></g><path d="M133.532 3.657h7.2v7.2h-7.2z" class="F"/><path d="M135.333 5.457h3.6v3.6h-3.6z" class="B G H"/><use xlink:href="#B" x="19.62" y="-7.201" class="I"/><use xlink:href="#C" x="19.62" y="-7.201" class="J"/><g class="K"><use xlink:href="#D" x="19.619" y="-7.201"/><use xlink:href="#E" x="19.62" y="-7.201"/></g><path d="M147.032 3.657h7.2v7.2h-7.2z" class="F"/><path d="M148.833 5.457h3.6v3.6h-3.6z" class="B G H"/><use xlink:href="#B" x="33.12" y="-7.201" class="I"/><use xlink:href="#C" x="33.12" y="-7.201" class="J"/><g class="K"><use xlink:href="#D" x="33.119" y="-7.201"/><use xlink:href="#E" x="33.12" y="-7.201"/></g><path d="M126.565 3.657h7.2v7.2h-7.2z" class="F"/><path d="M128.366 5.457h3.6v3.6h-3.6z" class="B G H"/><use xlink:href="#B" x="12.653" y="-7.201" class="I"/><use xlink:href="#C" x="12.653" y="-7.201" class="J"/><g class="K"><use xlink:href="#D" x="12.652" y="-7.201"/><use xlink:href="#E" x="12.653" y="-7.201"/></g><path d="M140.732 3.657h7.2v7.2h-7.2z" class="F"/><path d="M142.532 5.457h3.6v3.6h-3.6z" class="B G H"/><use xlink:href="#B" x="26.819" y="-7.201" class="I"/><use xlink:href="#C" x="26.819" y="-7.201" class="J"/><g class="K"><use xlink:href="#D" x="26.818" y="-7.201"/><use xlink:href="#E" x="26.819" y="-7.201"/></g><path d="M126 140.457h7.2v7.2H126z" class="F"/><path d="M127.8 142.256h3.6v3.6h-3.6z" class="B G H"/><use xlink:href="#B" x="12.087" y="129.598" class="I"/><use xlink:href="#C" x="12.087" y="129.599" class="J"/><g class="K"><use xlink:href="#D" x="12.086" y="129.598"/><use xlink:href="#E" x="12.087" y="129.599"/></g><path d="M118.8 140.457h7.2v7.2h-7.2z" class="F"/><path d="M120.6 142.256h3.6v3.6h-3.6z" class="B G H"/><use xlink:href="#B" x="4.887" y="129.598" class="I"/><use xlink:href="#C" x="4.887" y="129.599" class="J"/><g class="K"><use xlink:href="#D" x="4.886" y="129.598"/><use xlink:href="#E" x="4.887" y="129.599"/></g><path d="M111.598 140.457h7.2v7.2h-7.2z" class="F"/><path d="M113.4 142.256h3.6v3.6h-3.6z" class="B G H"/><use xlink:href="#B" x="-2.313" y="129.598" class="I"/><use xlink:href="#C" x="-2.313" y="129.599" class="J"/><g class="K"><use xlink:href="#D" x="-2.314" y="129.598"/><use xlink:href="#E" x="-2.313" y="129.599"/></g><path d="M104.4 140.457h7.2v7.2h-7.2z" class="F"/><path d="M106.2 142.256h3.6v3.6h-3.6z" class="B G H"/><use xlink:href="#B" x="-9.513" y="129.598" class="I"/><use xlink:href="#C" x="-9.513" y="129.599" class="J"/><g class="K"><use xlink:href="#D" x="-9.514" y="129.598"/><use xlink:href="#E" x="-9.513" y="129.599"/></g><path d="M97.2 140.457h7.2v7.2h-7.2z" class="F"/><path d="M99 142.256h3.6v3.6H99z" class="B G H"/><path d="M102.6 142.256H99l-.9-.9h5.4z" class="I"/><path d="M102.6 145.856H99l-.9.9h5.4z" class="J"/><g class="K"><use xlink:href="#D" x="-16.714" y="129.598"/><use xlink:href="#E" x="-16.713" y="129.599"/></g><path d="M90 140.457h7.2v7.2H90z" class="F"/><path d="M91.8 142.256h3.6v3.6h-3.6z" class="B G H"/><use xlink:href="#B" x="-23.913" y="129.598" class="I"/><use xlink:href="#C" x="-23.913" y="129.599" class="J"/><g class="K"><use xlink:href="#D" x="-23.914" y="129.598"/><use xlink:href="#E" x="-23.913" y="129.599"/></g><path d="M176.4 133.256h7.2v7.2h-7.2z" class="F"/><path d="M178.2 135.057h3.6v3.6h-3.6z" class="B G H"/><use xlink:href="#B" x="62.487" y="122.399" class="I"/><use xlink:href="#C" x="62.487" y="122.4" class="J"/><g class="K"><use xlink:href="#D" x="62.486" y="122.399"/><use xlink:href="#E" x="62.487" y="122.4"/></g><path d="M169.2 133.256h7.2v7.2h-7.2z" class="F"/><path d="M171 135.057h3.6v3.6H171z" class="B G H"/><path d="M174.6 135.057H171l-.9-.9h5.4z" class="I"/><path d="M174.6 138.657H171l-.9.9h5.4z" class="J"/><g class="K"><use xlink:href="#D" x="55.286" y="122.399"/><use xlink:href="#E" x="55.287" y="122.4"/></g><path d="M162 133.256h7.2v7.2H162z" class="F"/><path d="M163.8 135.057h3.6v3.6h-3.6z" class="B G H"/><use xlink:href="#B" x="48.087" y="122.399" class="I"/><use xlink:href="#C" x="48.087" y="122.4" class="J"/><g class="K"><use xlink:href="#D" x="48.086" y="122.399"/><use xlink:href="#E" x="48.087" y="122.4"/></g><path d="M154.8 133.256h7.2v7.2h-7.2z" class="F"/><path d="M156.6 135.057h3.6v3.6h-3.6z" class="B G H"/><use xlink:href="#B" x="40.887" y="122.399" class="I"/><use xlink:href="#C" x="40.887" y="122.4" class="J"/><g class="K"><use xlink:href="#D" x="40.886" y="122.399"/><use xlink:href="#E" x="40.887" y="122.4"/></g><path d="M147.6 133.256h7.2v7.2h-7.2z" class="F"/><path d="M149.4 135.057H153v3.6H149.4z" class="B G H"/><path d="M153 135.057H149.4l-.9-.9h5.402z" class="I"/><path d="M153 138.657H149.4l-.9.9h5.402z" class="J"/><g class="K"><use xlink:href="#D" x="33.686" y="122.399"/><use xlink:href="#E" x="33.687" y="122.4"/></g><path d="M140.4 133.256h7.2v7.2h-7.2z" class="F"/><path d="M142.2 135.057h3.6v3.6h-3.6z" class="B G H"/><use xlink:href="#B" x="26.487" y="122.399" class="I"/><use xlink:href="#C" x="26.487" y="122.4" class="J"/><g class="K"><use xlink:href="#D" x="26.486" y="122.399"/><use xlink:href="#E" x="26.487" y="122.4"/></g><path d="M176.4 140.457h7.2v7.2h-7.2z" class="F"/><path d="M178.2 142.256h3.6v3.6h-3.6z" class="B G H"/><use xlink:href="#B" x="62.487" y="129.598" class="I"/><use xlink:href="#C" x="62.487" y="129.599" class="J"/><g class="K"><use xlink:href="#D" x="62.486" y="129.598"/><use xlink:href="#E" x="62.487" y="129.599"/></g><path d="M169.2 140.457h7.2v7.2h-7.2z" class="F"/><path d="M171 142.256h3.6v3.6H171z" class="B G H"/><path d="M174.6 142.256H171l-.9-.9h5.4z" class="I"/><path d="M174.6 145.856H171l-.9.9h5.4z" class="J"/><g class="K"><use xlink:href="#D" x="55.286" y="129.598"/><use xlink:href="#E" x="55.287" y="129.599"/></g><path d="M162 140.457h7.2v7.2H162z" class="F"/><path d="M163.8 142.256h3.6v3.6h-3.6z" class="B G H"/><use xlink:href="#B" x="48.087" y="129.598" class="I"/><use xlink:href="#C" x="48.087" y="129.599" class="J"/><g class="K"><use xlink:href="#D" x="48.086" y="129.598"/><use xlink:href="#E" x="48.087" y="129.599"/></g><path d="M154.8 140.457h7.2v7.2h-7.2z" class="F"/><path d="M156.6 142.256h3.6v3.6h-3.6z" class="B G H"/><use xlink:href="#B" x="40.887" y="129.598" class="I"/><use xlink:href="#C" x="40.887" y="129.599" class="J"/><g class="K"><use xlink:href="#D" x="40.886" y="129.598"/><use xlink:href="#E" x="40.887" y="129.599"/></g><path d="M147.6 140.457h7.2v7.2h-7.2z" class="F"/><path d="M149.4 142.256H153v3.6H149.4z" class="B G H"/><path d="M153 142.256H149.4l-.9-.9h5.402z" class="I"/><path d="M153 145.856H149.4l-.9.9h5.402z" class="J"/><g class="K"><use xlink:href="#D" x="33.686" y="129.598"/><use xlink:href="#E" x="33.687" y="129.599"/></g><path d="M140.4 140.457h7.2v7.2h-7.2z" class="F"/><path d="M142.2 142.256h3.6v3.6h-3.6z" class="B G H"/><use xlink:href="#B" x="26.487" y="129.598" class="I"/><use xlink:href="#C" x="26.487" y="129.599" class="J"/><g class="K"><use xlink:href="#D" x="26.486" y="129.598"/><use xlink:href="#E" x="26.487" y="129.599"/></g><path fill="#707171" d="M21.96 128.577h18v18h-18z"/><g fill="#171818"><circle cx="30.96" cy="137.578" r="3.917"/><circle cx="37.295" cy="143.453" r="1.333"/><circle cx="24.46" cy="143.453" r="1.333"/><circle cx="24.46" cy="131.577" r="1.333"/><circle cx="37.295" cy="131.577" r="1.333"/></g><path fill="#707171" d="M50.76 128.577h18v18h-18z"/><g fill="#171818"><circle cx="59.76" cy="137.578" r="3.917"/><circle cx="66.095" cy="143.453" r="1.333"/><circle cx="53.26" cy="143.453" r="1.333"/><circle cx="53.26" cy="131.577" r="1.333"/><circle cx="66.095" cy="131.577" r="1.333"/></g><text font-size="6" transform="translate(71.919 46.73)" class="E L">Motor Shield</text><text transform="matrix(0 -1 1 0 102.019 138.4165)" class="E L M">3V3</text><text transform="matrix(0 -1 1 0 109.272 138.6167)" class="E L M">5V0</text><text transform="matrix(0 -1 1 0 116.6714 138.4165)" class="E L M">GND</text><text transform="matrix(0 -1 1 0 123.4717 138.4165)" class="E L M">GND</text><text transform="matrix(0 -1 1 0 130.4863 138.6167)" class="E L M">VIN</text><text transform="matrix(0 -1 1 0 144.5869 132.9634)" class="E L M">A6</text><text transform="matrix(0 -1 1 0 151.3193 133.1587)" class="E L M">A7</text><text transform="matrix(0 -1 1 0 159.3203 133.1587)" class="E L M">A8</text><text transform="matrix(0 -1 1 0 166.1865 132.8442)" class="E L M">A9</text><text transform="matrix(0 -1 1 0 172.7197 132.8442)" class="E L M">A10</text><text transform="matrix(0 -1 1 0 176.7021 132.8442)" class="E L M">A11</text><text transform="matrix(0 -1 1 0 173.8867 22.7749)" class="E L M">1</text><text transform="matrix(0 -1 1 0 166.3535 22.7749)" class="E L M">2</text><text transform="matrix(0 -1 1 0 158.4541 22.7749)" class="E L M">3</text><text transform="matrix(0 -1 1 0 150.9531 22.7749)" class="E L M">4</text><text transform="matrix(0 -1 1 0 145.0859 22.7749)" class="E L M">5</text><text transform="matrix(0 -1 1 0 137.4541 22.7749)" class="E L M">6</text><text transform="matrix(0 -1 1 0 130.8525 22.7749)" class="E L M">7</text><text transform="matrix(0 -1 1 0 118.6548 22.7749)" class="E L M">8</text><text transform="matrix(0 -1 1 0 110.5552 22.7749)" class="E L M">9</text><text transform="matrix(0 -1 1 0 75.9185 22.7749)" class="E L M">G</text><text transform="matrix(0 -1 1 0 68.9521 22.7749)" class="E L M">A</text><text transform="matrix(0 -1 1 0 104.019 25.4595)" class="E L M">10</text><text transform="matrix(0 -1 1 0 96.6221 25.3345)" class="E L M">11</text><text transform="matrix(0 -1 1 0 89.855 25.3345)" class="E L M">12</text><text transform="matrix(0 -1 1 0 83.1187 25.4595)" class="E L M">13</text><text transform="matrix(0 -1 1 0 83.1187 32.7681)" class="E L M">39</text><text transform="matrix(0 -1 1 0 89.855 32.7681)" class="E L M">38</text><text transform="matrix(0 -1 1 0 96.6221 32.7329)" class="E L M">37</text><text transform="matrix(0 -1 1 0 104.019 32.7681)" class="E L M">36</text><text transform="matrix(0 -1 1 0 110.5552 32.7681)" class="E L M">35</text><text transform="matrix(0 -1 1 0 118.436 32.7681)" class="E L M">34</text><text transform="matrix(0 -1 1 0 130.8525 29.7681)" class="E L M">33</text><text transform="matrix(0 -1 1 0 137.4541 29.7329)" class="E L M">32</text><text transform="matrix(0 -1 1 0 145.0859 29.7329)" class="E L M">31</text><text transform="matrix(0 -1 1 0 151.2041 29.7329)" class="E L M">30</text><text transform="matrix(0 -1 1 0 158.4541 29.7329)" class="E L M">29</text><text transform="matrix(0 -1 1 0 166.1533 29.7329)" class="E L M">28</text><text transform="matrix(0 -1 1 0 174.1377 29.7329)" class="E L M">27</text><text transform="matrix(0 -1 1 0 75.9185 32.7329)" class="E L M">40</text><text transform="matrix(0 -1 1 0 68.9521 32.7681)" class="E L M">41</text><text transform="translate(12.72 126.872)" class="E L M">LD1</text><text transform="translate(12.72 133.871)" class="E L M">LD2</text><text transform="translate(12.72 140.871)" class="E L M">LD3</text><text transform="translate(13.22 148.121)" class="E L M">LD4</text><g class="C"><path d="M27.08 99.732h6.968v9.45H27.08z"/><path d="M32.643 97.37l1.404 2.362H27.08l1.353-2.362zm-4.16 14.173l-1.404-2.362h6.968l-1.352 2.362z"/></g><path d="M29.73 106.73h1.663v1.313H29.73zm0-5.772h1.664v1.312H29.73z" class="D"/><g class="C"><path d="M33.995 99.732h6.967v9.45h-6.967z"/><path d="M39.56 97.37l1.403 2.362h-6.967l1.352-2.362zm-4.162 14.173l-1.403-2.362h6.967l-1.352 2.362z"/></g><path d="M36.646 106.73H38.3v1.313h-1.664zm0-5.772H38.3v1.312h-1.664z" class="D"/><g class="C"><path d="M41.066 99.732h6.967v9.45h-6.967z"/><path d="M46.63 97.37l1.403 2.362h-6.967l1.352-2.362zm-4.16 14.173l-1.404-2.362h6.967l-1.35 2.362z"/></g><path d="M43.718 106.73h1.664v1.313h-1.664zm0-5.772h1.664v1.312h-1.664z" class="D"/><g class="C"><path d="M48.033 99.732H55v9.45h-6.968z"/><path d="M53.597 97.37L55 99.732h-6.968l1.352-2.362zm-4.16 14.173l-1.405-2.362H55l-1.353 2.362z"/></g><path d="M50.686 106.73h1.663v1.313h-1.663zm-.001-5.772h1.664v1.312h-1.664z" class="D"/><g class="C"><path d="M116.75 63.014h6.98v9.445h-6.98z"/><path d="M122.323 60.65l1.407 2.364h-6.98l1.354-2.364zm-4.167 14.174l-1.406-2.365h6.98l-1.354 2.365z"/></g><path d="M119.406 70h1.667v1.313h-1.667zm0-5.763h1.667v1.313h-1.667z" class="D"/><g class="C"><path d="M116.75 105.494h6.98v9.445h-6.98z"/><path d="M122.323 103.13l1.407 2.365h-6.98l1.354-2.365zm-4.167 14.173l-1.406-2.364h6.98l-1.354 2.364z"/></g><path d="M119.406 112.5h1.667v1.313h-1.667zm0-5.784h1.667v1.313h-1.667z" class="D"/><path d="M3.473.648h29.055V16.38H3.473z" class="N"/><path d="M28.896 21.625H7.104l-3.63-5.244h29.054z" class="O"/><g class="P"><ellipse cx="26.272" cy="8.66" rx="3.632" ry="5.244"/><ellipse cx="9.93" cy="8.661" rx="3.632" ry="5.244"/></g><g class="B"><path d="M18 3.562V14.05" class="Q R S"/><g class="T U"><path d="M26.155 6.912v3.496"/><path d="M24.96 8.753h2.522M9.813 6.62v3.496"/><path d="M8.618 8.46h2.522"/></g></g><path d="M142.355 30.17h15.732v29.055h-15.732z" class="N"/><path d="M137.11 55.592V33.8l5.244-3.632v29.055z" class="O"/><g class="P"><ellipse cx="150.076" cy="52.969" rx="5.244" ry="3.632"/><ellipse cx="150.075" cy="36.626" rx="5.244" ry="3.632"/></g><g class="B"><path d="M155.175 44.697h-10.488" class="Q R S"/><g class="T U"><path d="M151.824 52.852h-3.496"/><path d="M149.983 51.658v2.522m2.132-17.67h-3.496"/><path d="M150.275 35.315v2.52"/></g></g><path d="M32.993.65h29.055V16.38H32.993z" class="N"/><path d="M58.416 21.625h-21.79l-3.632-5.244h29.054z" class="O"/><g class="P"><ellipse cx="55.792" cy="8.661" rx="3.632" ry="5.244"/><ellipse cx="39.45" cy="8.662" rx="3.632" ry="5.244"/></g><g class="B"><path d="M47.52 3.562V14.05" class="Q R S"/><g class="T U"><path d="M55.675 6.913v3.496"/><path d="M54.48 8.753h2.522m-17.67-2.13v3.496"/><path d="M38.138 8.46h2.522"/></g></g><path d="M142.355 85.61h15.732v29.055h-15.732z" class="N"/><path d="M137.11 111.032V89.24l5.244-3.632v29.055z" class="O"/><g class="P"><ellipse cx="150.076" cy="108.409" rx="5.244" ry="3.632"/><ellipse cx="150.075" cy="92.066" rx="5.244" ry="3.632"/></g><g class="B"><path d="M155.175 100.136h-10.488" class="Q R S"/><g class="T U"><path d="M151.824 108.292h-3.496"/><path d="M149.983 107.097v2.523m2.132-17.67h-3.496"/><path d="M150.275 90.754v2.522"/></g></g><path d="M.592 81.3h15.732v29.055H.592z" class="N"/><path d="M21.568 84.92v21.79l-5.244 3.632V81.3z" class="O"/><g class="P"><ellipse cx="8.604" cy="87.544" rx="5.244" ry="3.632"/><ellipse cx="8.604" cy="103.887" rx="5.244" ry="3.632"/></g><g class="B"><path d="M3.505 95.817h10.488" class="Q R S"/><g class="T U"><path d="M6.855 87.662h3.497"/><path d="M8.696 88.856v-2.523m-2.132 17.67h3.497"/><path d="M8.404 105.2v-2.522"/></g></g><path d="M.592 52.49h15.732v29.055H.592z" class="N"/><path d="M21.568 56.12v21.792l-5.244 3.63V52.49z" class="O"/><g class="P"><ellipse cx="8.604" cy="58.744" rx="5.244" ry="3.632"/><ellipse cx="8.604" cy="75.087" rx="5.244" ry="3.632"/></g><g class="B"><path d="M3.505 67.017h10.488" class="Q R S"/><g class="T U"><path d="M6.855 58.86h3.497"/><path d="M8.696 60.056v-2.523M6.564 75.205h3.497"/><path d="M8.404 76.4v-2.522"/></g></g><path d="M.592 23.69h15.732v29.055H.592z" class="N"/><path d="M21.568 27.32v21.79l-5.244 3.632V23.69z" class="O"/><g class="P"><ellipse cx="8.604" cy="29.944" rx="5.244" ry="3.632"/><ellipse cx="8.604" cy="46.287" rx="5.244" ry="3.632"/></g><g class="B"><path d="M3.505 38.217h10.488" class="Q R S"/><g class="T U"><path d="M6.855 30.062h3.497"/><path d="M8.696 31.256v-2.523m-2.132 17.67h3.497"/><path d="M8.404 47.6v-2.522"/></g></g><g class="C"><path d="M40.43 82.454h6.98V91.9h-6.98z"/><path d="M46.004 80.1l1.406 2.365h-6.98l1.353-2.365zm-4.168 14.173L40.43 91.9h6.98l-1.353 2.364z"/></g><path d="M43.086 89.45h1.668v1.313h-1.668zm0-5.774h1.668v1.313h-1.668z" class="D"/><g class="C"><path d="M48.35 82.454h6.98V91.9h-6.98z"/><path d="M53.924 80.1l1.406 2.365h-6.98l1.353-2.365zm-4.168 14.173L48.35 91.9h6.98l-1.353 2.364z"/></g><path d="M51.006 89.45h1.668v1.313h-1.668zm0-5.774h1.668v1.313h-1.668z" class="D"/><g class="C"><path d="M8.958 111.766h9.445v6.98H8.958z"/><path d="M20.767 117.34l-2.364 1.408v-6.982l2.364 1.355zm-14.174-4.168l2.365-1.406v6.982l-2.365-1.355z"/></g><path d="M10.094 114.422h1.313v1.668h-1.313zm5.774 0h1.313v1.668h-1.313z" class="D"/><g class="C"><path d="M56.757 35.223h3.713v7.427h-3.713z"/><path d="M62.326 40.793L60.47 42.65v-7.427l1.856 1.857zm-5.57 1.857L54.9 40.793V37.08l1.857-1.857z"/></g><path d="M57.957 38.103h1.313v1.668h-1.313z" class="D"/><g class="C"><path d="M41.77 35.223h3.713v7.427H41.77z"/><path d="M47.34 40.793l-1.857 1.857v-7.427l1.857 1.857zm-5.57 1.857l-1.857-1.857V37.08l1.857-1.857z"/></g><path d="M42.97 38.103h1.313v1.668H42.97z" class="D"/><g class="C"><path d="M49.268 35.223h3.713v7.427h-3.713z"/><path d="M54.838 40.793L52.98 42.65v-7.427l1.858 1.857zm-5.57 1.857l-1.857-1.857V37.08l1.857-1.857z"/></g><path d="M50.47 38.103h1.313v1.668H50.47z" class="D"/><g class="C"><path d="M56.757 43.863h3.713V51.3h-3.713z"/><path d="M62.326 49.433L60.47 51.3v-7.427l1.856 1.857zm-5.57 1.867L54.9 49.433V45.72l1.857-1.857z"/></g><path d="M57.957 46.743h1.313v1.668h-1.313z" class="D"/><g class="C"><path d="M41.77 43.863h3.713V51.3H41.77z"/><path d="M47.34 49.433L45.483 51.3v-7.427l1.857 1.857zM41.77 51.3l-1.857-1.857V45.72l1.857-1.857z"/></g><path d="M42.97 46.743h1.313v1.668H42.97z" class="D"/><g class="C"><path d="M49.268 43.863h3.713V51.3h-3.713z"/><path d="M54.838 49.433L52.98 51.3v-7.427l1.858 1.857zm-5.57 1.867l-1.857-1.857V45.72l1.857-1.857z"/></g><path d="M50.47 46.743h1.313v1.668H50.47z" class="D"/><g class="C"><path d="M56.757 52.503h3.713v7.426h-3.713z"/><path d="M62.326 58.073L60.47 59.93v-7.427l1.856 1.857zm-5.57 1.857L54.9 58.073V54.36l1.857-1.857z"/></g><path d="M57.957 55.383h1.313v1.668h-1.313z" class="D"/><g class="C"><path d="M41.77 52.503h3.713v7.426H41.77z"/><path d="M47.34 58.073l-1.857 1.857v-7.427l1.857 1.857z"/><use xlink:href="#F"/></g><path d="M42.97 55.383h1.313v1.668H42.97z" class="D"/><g class="C"><path d="M49.268 52.503h3.713v7.426h-3.713z"/><path d="M54.838 58.073L52.98 59.93v-7.427l1.858 1.857z"/><use xlink:href="#F" x="7.498"/></g><path d="M50.47 55.383h1.313v1.668H50.47z" class="D"/><g class="C"><path d="M56.757 61.144h3.713v7.426h-3.713z"/><path d="M62.326 66.713L60.47 68.57v-7.426L62.326 63zm-5.57 1.857L54.9 66.713V63l1.857-1.856z"/></g><path d="M57.957 64.023h1.313v1.668h-1.313z" class="D"/><g class="C"><path d="M41.77 61.144h3.713v7.426H41.77z"/><path d="M47.34 66.713l-1.857 1.857v-7.426L47.34 63zm-5.57 1.857l-1.857-1.857V63l1.857-1.856z"/></g><path d="M42.97 64.023h1.313v1.668H42.97z" class="D"/><g class="C"><path d="M49.268 61.144h3.713v7.426h-3.713z"/><path d="M54.838 66.713L52.98 68.57v-7.426L54.838 63zm-5.57 1.857l-1.857-1.857V63l1.857-1.856z"/></g><path d="M50.47 64.023h1.313v1.668H50.47z" class="D"/><g class="C"><path d="M92.757 52.503h3.713v7.427h-3.713z"/><path d="M98.326 58.073L96.47 59.93v-7.427l1.856 1.857zm-5.57 1.857L90.9 58.073V54.36l1.857-1.857z"/></g><path d="M93.957 55.383h1.313v1.668h-1.313z" class="D"/><g class="C"><path d="M77.77 52.503h3.713v7.427H77.77z"/><path d="M83.34 58.073l-1.857 1.857v-7.427l1.857 1.857z"/><use xlink:href="#F" x="36"/></g><path d="M78.97 55.383h1.313v1.668H78.97z" class="D"/><g class="C"><path d="M85.268 52.503h3.713v7.427h-3.713z"/><path d="M90.838 58.073L88.98 59.93v-7.427l1.858 1.857z"/><use xlink:href="#F" x="43.498"/></g><path d="M86.47 55.383h1.313v1.668H86.47z" class="D"/><g class="C"><path d="M92.757 61.143h3.713v7.427h-3.713z"/><path d="M98.326 66.713L96.47 68.57v-7.427L98.326 63zm-5.57 1.857L90.9 66.713V63l1.857-1.857z"/></g><path d="M93.957 64.023h1.313v1.668h-1.313z" class="D"/><g class="C"><path d="M77.77 61.143h3.713v7.427H77.77z"/><path d="M83.34 66.713l-1.857 1.857v-7.427L83.34 63zm-5.57 1.857l-1.857-1.857V63l1.857-1.857z"/></g><path d="M78.97 64.023h1.313v1.668H78.97z" class="D"/><g class="C"><path d="M85.268 61.143h3.713v7.427h-3.713z"/><path d="M90.838 66.713L88.98 68.57v-7.427L90.838 63zm-5.57 1.857l-1.857-1.857V63l1.857-1.857z"/></g><path d="M86.47 64.023h1.313v1.668H86.47z" class="D"/><g class="C"><path d="M92.757 96.423h3.713v7.426h-3.713z"/><path d="M98.326 101.993l-1.856 1.856v-7.426l1.856 1.857zm-5.57 1.857l-1.857-1.856V98.28l1.857-1.857z"/></g><path d="M93.957 99.302h1.313v1.668h-1.313z" class="D"/><g class="C"><path d="M77.77 96.423h3.713v7.426H77.77z"/><path d="M83.34 101.993l-1.857 1.856v-7.426l1.857 1.857zm-5.57 1.857l-1.857-1.856V98.28l1.857-1.857z"/></g><path d="M78.97 99.302h1.313v1.668H78.97z" class="D"/><g class="C"><path d="M85.268 96.423h3.713v7.426h-3.713z"/><path d="M90.838 101.993l-1.858 1.856v-7.426l1.858 1.857zm-5.57 1.857l-1.857-1.856V98.28l1.857-1.857z"/></g><path d="M86.47 99.302h1.313v1.668H86.47z" class="D"/><g class="C"><path d="M92.757 105.064h3.713v7.426h-3.713z"/><path d="M98.326 110.633L96.47 112.5v-7.426l1.856 1.856z"/><use xlink:href="#G"/></g><path d="M93.957 107.943h1.313v1.668h-1.313z" class="D"/><g class="C"><path d="M77.77 105.064h3.713v7.426H77.77z"/><path d="M83.34 110.633l-1.857 1.857v-7.426l1.857 1.856z"/><use xlink:href="#G" x="-14.987"/></g><path d="M78.97 107.943h1.313v1.668H78.97z" class="D"/><g class="C"><path d="M85.268 105.064h3.713v7.426h-3.713z"/><path d="M90.838 110.633L88.98 112.5v-7.426l1.858 1.856z"/><use xlink:href="#G" x="-7.489"/></g><path d="M86.47 107.943h1.313v1.668H86.47z" class="D"/><g class="C"><path d="M164.757 75.543h3.713v7.427h-3.713z"/><path d="M170.326 81.113l-1.856 1.857v-7.427l1.856 1.857zm-5.57 1.857l-1.857-1.857V77.4l1.857-1.857z"/></g><path d="M165.957 78.423h1.313v1.668h-1.313z" class="D"/><g class="C"><path d="M149.77 75.543h3.713v7.427h-3.713z"/><path d="M155.34 81.113l-1.857 1.857v-7.427l1.857 1.857zm-5.57 1.857l-1.857-1.857V77.4l1.857-1.857z"/></g><path d="M150.97 78.423h1.313v1.668h-1.313z" class="D"/><g class="C"><path d="M157.268 75.543h3.713v7.427h-3.713z"/><path d="M162.838 81.113l-1.858 1.857v-7.427l1.858 1.857zm-5.57 1.857l-1.857-1.857V77.4l1.857-1.857z"/></g><path d="M158.47 78.423h1.313v1.668h-1.313z" class="D"/><g class="C"><path d="M125.877 120.903h3.713v7.428h-3.713z"/><path d="M131.446 126.473l-1.856 1.858v-7.428l1.856 1.857zm-5.57 1.857l-1.856-1.858v-3.713l1.856-1.857z"/></g><path d="M127.077 123.783h1.313v1.668h-1.313z" class="D"/><g class="C"><path d="M110.9 120.903h3.713v7.428H110.9zm5.57 5.57l-1.856 1.858v-7.428l1.856 1.857z"/><path d="M110.89 128.33l-1.857-1.858v-3.713l1.857-1.857z"/></g><path d="M112.09 123.783h1.313v1.668h-1.313z" class="D"/><g class="C"><path d="M118.388 120.903h3.713v7.428h-3.713z"/><path d="M123.958 126.473l-1.857 1.858v-7.428l1.857 1.857zm-5.57 1.857l-1.857-1.858v-3.713l1.857-1.857z"/></g><path d="M119.59 123.783h1.313v1.668h-1.313z" class="D"/><g class="C"><path d="M142.42 64.743h3.713v7.428h-3.713zm5.58 5.57l-1.857 1.857v-7.427L148 66.6z"/><path d="M142.42 72.17l-1.857-1.857V66.6l1.857-1.857z"/></g><path d="M143.62 67.623h1.313v1.668h-1.313z" class="D"/><g class="C"><path d="M164.906 64.743h3.713v7.426h-3.713z"/><path d="M170.477 70.312l-1.858 1.856v-7.425l1.858 1.856zm-5.57 1.856l-1.857-1.856V66.6l1.857-1.856z"/></g><path d="M166.106 67.622h1.313V69.3h-1.313z" class="D"/><g class="C"><path d="M149.92 64.743h3.713v7.426h-3.713zm5.58 5.57l-1.857 1.856v-7.425L155.5 66.6z"/><path d="M149.92 72.168l-1.857-1.856V66.6l1.857-1.856z"/></g><path d="M151.12 67.622h1.313V69.3h-1.313z" class="D"/><g class="C"><path d="M157.418 64.743h3.713v7.426h-3.713z"/><path d="M162.987 70.312l-1.856 1.856v-7.425l1.856 1.856zm-5.57 1.856l-1.857-1.856V66.6l1.857-1.856z"/></g><path d="M158.617 67.622h1.313V69.3h-1.313z" class="D"/><g class="C"><path d="M142.42 118.023h3.713v7.428h-3.713zm5.58 5.57l-1.857 1.858v-7.428L148 119.88z"/><path d="M142.42 125.45l-1.857-1.858v-3.713l1.857-1.857z"/></g><path d="M143.62 120.903h1.313v1.668h-1.313z" class="D"/><g class="C"><path d="M164.906 118.023h3.713v7.426h-3.713z"/><path d="M170.477 123.592l-1.858 1.857v-7.426l1.858 1.856z"/><use xlink:href="#G" x="72.149" y="12.95"/></g><path d="M166.106 120.902h1.313v1.668h-1.313z" class="D"/><g class="C"><path d="M149.92 118.023h3.713v7.426h-3.713zm5.58 5.57l-1.857 1.857v-7.426l1.857 1.856z"/><use xlink:href="#G" x="57.163" y="12.95"/></g><path d="M151.12 120.902h1.313v1.668h-1.313z" class="D"/><g class="C"><path d="M157.418 118.023h3.713v7.426h-3.713z"/><path d="M162.987 123.592l-1.856 1.857v-7.426l1.856 1.856z"/><use xlink:href="#G" x="64.661" y="12.95"/></g><path d="M158.617 120.902h1.313v1.668h-1.313z" class="D"/><g class="C"><path d="M176.137 62.79h7.427v3.713h-7.427z"/><path d="M181.707 60.934l1.856 1.857h-7.426l1.857-1.857zm1.856 5.57l-1.856 1.858h-3.713l-1.857-1.858z"/></g><path d="M179.016 63.992h1.668v1.313h-1.668z" class="D"/><g class="C"><path d="M176.137 77.777h7.427V81.5h-7.427z"/><path d="M181.707 75.92l1.856 1.857h-7.426l1.857-1.857zm1.856 5.58l-1.856 1.857h-3.713l-1.857-1.857z"/></g><path d="M179.016 78.978h1.668v1.313h-1.668z" class="D"/><g class="C"><path d="M176.137 70.28h7.427v3.713h-7.427z"/><path d="M181.707 68.423l1.856 1.857h-7.426l1.857-1.857zm1.856 5.57l-1.856 1.856h-3.713l-1.857-1.856z"/></g><path d="M179.016 71.48h1.668v1.313h-1.668z" class="D"/><g class="C"><path d="M183.637 62.625h7.427v3.713h-7.427z"/><path d="M189.207 60.767l1.856 1.858h-7.426l1.857-1.858zm1.856 5.57l-1.856 1.858h-3.713l-1.857-1.858z"/></g><path d="M186.516 63.825h1.668v1.313h-1.668z" class="D"/><g class="C"><path d="M183.637 77.61h7.427v3.713h-7.427z"/><path d="M189.207 75.753l1.856 1.858h-7.426l1.857-1.858zm1.856 5.57l-1.856 1.857h-3.713l-1.857-1.857z"/></g><path d="M186.516 78.81h1.668v1.313h-1.668z" class="D"/><g class="C"><path d="M183.637 70.113h7.427v3.713h-7.427z"/><path d="M189.207 68.256l1.856 1.857h-7.426l1.857-1.857zm1.856 5.57l-1.856 1.857h-3.713l-1.857-1.857z"/></g><path d="M186.516 71.314h1.668v1.313h-1.668z" class="D"/><g fill="#157dec"><path d="M14.08 111.972h14.173v6.98H14.08zm61.512-59.815H91v7.98H75.6zm0 8.75H91v7.982H75.6zm7.75 35.25h15.4v7.982h-15.4zm-7.527-21.612h15.4v7.982h-15.4z"/><path d="M75.815 82.465h15.4v7.982h-15.4zm7.625 22.66h15.4v7.982h-15.4zm33.12 15.84h15.4v7.982h-15.4zm38.752-45.75h15.408v7.982h-15.408zM39.774 79.503h7.982V94.9h-7.982zm8.63 0h7.982V94.9h-7.982z"/></g><path d="M178.207 19.5h21.188v35.25h-21.188zm0 76.25h21.188V131h-21.188z" class="E"/><defs ><path id="B" d="M119.313 12.658h-3.6l-.9-.9h5.4z"/><path id="C" d="M119.313 16.257h-3.6l-.9.9h5.4z"/><path id="D" d="M120.214 17.158l-.9-.9v-3.6l.9-.9z"/><path id="E" d="M115.713 16.257l-.9.9v-5.4l.9.9z"/><path id="F" d="M41.77 59.93l-1.857-1.857V54.36l1.857-1.857z"/><path id="G" d="M92.757 112.5l-1.857-1.857v-3.713l1.857-1.856z"/></defs></svg>