<?xml version="1.0" encoding="utf-8"?>
<!-- Generator: Adobe Illustrator 20.0.0, SVG Export Plug-In . SVG Version: 6.00 Build 0)  -->
<svg version="1.2" baseProfile="tiny" id="Layer_1" xmlns="http://www.w3.org/2000/svg" xmlns:xlink="http://www.w3.org/1999/xlink"
	 x="0px" y="0px" width="50.457px" height="40.379px" viewBox="0 0 50.457 40.379" xml:space="preserve">
<g>
	<path fill="#646464" d="M10.542,11.721l3.72-4.279l-1.323-1.15c-1.456,1.217-2.707,2.664-3.723,4.276L10.542,11.721z"/>
	<path fill="#646464" d="M43.567,12.656V1.281h-5.958v6.335c-3.3-3.413-7.919-5.544-13.042-5.544c-4.166,0-7.992,1.418-11.055,3.778
		l1.75,1.522l-4.649,5.348l-1.77-1.538c-1.536,2.664-2.428,5.746-2.428,9.042c0,3.259,0.87,6.309,2.373,8.953l1.824-1.586
		l4.649,5.348l-1.835,1.595c3.077,2.399,6.936,3.841,11.14,3.841c5.123,0,9.741-2.131,13.042-5.544v6.199h5.958V27.323h1.083V12.656
		H43.567z"/>
	<path fill="#646464" d="M14.262,32.87l-3.72-4.279l-1.381,1.2c1.007,1.618,2.251,3.071,3.701,4.296L14.262,32.87z"/>
	<path fill="#787878" d="M44.126,22.646c-0.287,2.744-1.044,5.313-2.173,7.606v5.812H40.63v2.646h-0.945v-5.607
		c0-1.269-1.56-1.918-2.427-0.991c-3.172,3.39-7.678,5.511-12.691,5.511c-8.792,0-16.043-6.515-17.24-14.976H4.459
		c0.101,0.785,0.245,1.556,0.428,2.313l0.553-0.134c0.245,1.011,0.551,1.998,0.946,2.941l-0.528,0.22
		c0.411,0.985,0.913,1.92,1.468,2.82l0.489-0.301c0.543,0.879,1.146,1.716,1.817,2.496l-0.437,0.375
		c0.691,0.805,1.442,1.556,2.25,2.244l0.373-0.439c0.783,0.667,1.624,1.264,2.506,1.804l-0.299,0.49
		c0.902,0.551,1.84,1.046,2.827,1.453L17.07,38.4c0.945,0.391,1.931,0.697,2.944,0.938l-0.132,0.553
		c1.02,0.242,2.067,0.407,3.14,0.488l0.043-0.565c0.497,0.038,0.995,0.076,1.502,0.076c0.536,0,1.062-0.038,1.587-0.08l0.046,0.565
		c1.073-0.086,2.118-0.259,3.137-0.505l-0.134-0.553c1.011-0.245,1.998-0.551,2.941-0.946l0.22,0.528
		c0.894-0.373,1.754-0.811,2.577-1.305c0.676-0.406,1.532,0.07,1.532,0.859v0c0,0.559,0.453,1.013,1.013,1.013h5.723
		c0.559,0,1.013-0.453,1.013-1.013v-7.497c1.139-2.505,1.888-5.317,2.159-8.31H44.126z"/>
	<path fill="#787878" d="M41.953,4.127v6.001c1.129,2.292,1.886,4.861,2.173,7.606h2.253c-0.27-2.994-1.019-5.807-2.159-8.314V1.806
		c0-0.597-0.484-1.081-1.081-1.081h-5.587c-0.597,0-1.081,0.484-1.081,1.081c0,0.842-0.912,1.347-1.636,0.918
		c-0.791-0.469-1.616-0.886-2.473-1.243l-0.22,0.528c-0.944-0.395-1.93-0.701-2.941-0.946l0.134-0.553
		c-1.019-0.246-2.065-0.42-3.137-0.505l-0.046,0.565c-0.525-0.042-1.051-0.08-1.587-0.08c-0.507,0-1.005,0.038-1.502,0.076L23.022,0
		c-1.073,0.081-2.12,0.246-3.14,0.488l0.132,0.553c-1.012,0.241-1.998,0.547-2.944,0.938l-0.218-0.529
		c-0.987,0.407-1.926,0.902-2.827,1.453l0.299,0.49c-0.882,0.54-1.722,1.137-2.506,1.804l-0.373-0.439
		c-0.808,0.688-1.559,1.439-2.25,2.244l0.437,0.375C8.961,8.159,8.358,8.995,7.815,9.874L7.326,9.573
		c-0.555,0.899-1.057,1.834-1.468,2.82l0.528,0.22c-0.395,0.944-0.701,1.93-0.946,2.941L4.887,15.42
		c-0.183,0.757-0.328,1.528-0.428,2.313h2.868c1.197-8.461,8.448-14.976,17.24-14.976c5.012,0,9.519,2.121,12.691,5.511
		c0.867,0.927,2.427,0.278,2.427-0.991V1.67h0.945v2.457H41.953z"/>
	<path fill="#E1C57A" d="M27.213,13.387V9.418h-1.89v2.854c0,0.417-0.338,0.756-0.756,0.756s-0.756-0.338-0.756-0.756V9.418h-1.89
		v3.969h-7.896c-0.495,0-0.953,0.258-1.211,0.68l-1.817,2.986c-0.257,0.423-0.716,0.68-1.211,0.68H0.709
		C0.317,17.733,0,18.05,0,18.442v3.496c0,0.391,0.317,0.709,0.709,0.709h9.078c0.495,0,0.953,0.258,1.211,0.68l1.817,2.986
		c0.257,0.423,0.716,0.68,1.211,0.68h7.896v3.968h1.89v-2.854c0-0.417,0.338-0.756,0.756-0.756s0.756,0.338,0.756,0.756v2.854h1.89
		v-3.968h10.441c0.391,0,0.709-0.317,0.709-0.709V14.095c0-0.391-0.317-0.709-0.709-0.709H27.213z"/>
	<rect x="7.327" y="17.733" fill="#998652" width="1.889" height="4.913"/>
	<path fill="#646464" d="M34.819,16.221H15.118c-0.209,0-0.378,0.169-0.378,0.378c0,0.209,0.169,0.378,0.378,0.378h12.754v2.835
		h-6.329c-0.209,0-0.378,0.169-0.378,0.378s0.169,0.378,0.378,0.378h6.329v2.835H15.118c-0.209,0-0.378,0.169-0.378,0.378
		c0,0.209,0.169,0.378,0.378,0.378h19.701c0.391,0,0.709-0.317,0.709-0.709v-6.52C35.528,16.538,35.21,16.221,34.819,16.221z"/>
	<path fill="#998652" d="M33.228,22.694v-1.417c0-0.391-0.317-0.709-0.709-0.709h-5.647v2.835h5.647
		C32.91,23.402,33.228,23.085,33.228,22.694z"/>
	<path fill="#998652" d="M32.519,16.977h-5.647v2.835h5.647c0.391,0,0.709-0.317,0.709-0.709v-1.417
		C33.228,17.294,32.91,16.977,32.519,16.977z"/>
	<rect x="39.937" y="1.67" fill="#E1C57A" width="0.63" height="37.039"/>
	<path fill="#E1C57A" d="M49.748,17.733h-8.142V6.394h-0.63v27.591h0.63V22.646h8.142c0.391,0,0.709-0.317,0.709-0.709v-3.496
		C50.457,18.05,50.139,17.733,49.748,17.733z"/>
</g>
</svg>
