<svg fill="none" height="50" stroke-linecap="round" stroke-linejoin="round" viewBox="-1.3 -50 48.8 50" width="48.8" xmlns="http://www.w3.org/2000/svg"><g transform="scale(1 -1)"><path d="m0 49a1 1 0 0 0 1 1h43a1 1 0 0 0 1-1v-.72a.5.5 0 0 1 -.25-.43v-5a.5.5 0 0 1 .25-.43v-41.42a1 1 0 0 0 -1-1h-43a1 1 0 0 0 -1 1zm44-11a1 1 0 0 1 -2 0 1 1 0 0 1 2 0zm-17.85 10a1.05 1.05 0 0 1 -2.1 0 1.05 1.05 0 0 1 2.1 0zm-16.6 0a1.05 1.05 0 0 1 -2.1 0 1.05 1.05 0 0 1 2.1 0zm16.6-46a1.05 1.05 0 0 1 -2.1 0 1.05 1.05 0 0 1 2.1 0zm-23.15 46a1 1 0 0 1 -2 0 1 1 0 0 1 2 0zm0-46a1 1 0 0 1 -2 0 1 1 0 0 1 2 0zm6.55 0a1.05 1.05 0 0 1 -2.1 0 1.05 1.05 0 0 1 2.1 0zm34.45 0a1 1 0 0 1 -2 0 1 1 0 0 1 2 0zm-13.8 37.94a.55.55 0 0 1 -1.1 0 .55.55 0 0 1 1.1 0zm2.55 0a.55.55 0 0 1 -1.1 0 .55.55 0 0 1 1.1 0zm-2.55-2.54a.55.55 0 0 1 -1.1 0 .55.55 0 0 1 1.1 0zm2.55 0a.55.55 0 0 1 -1.1 0 .55.55 0 0 1 1.1 0z" fill="#697d99"/><path d="m41.9 19.7a2.5 2.5 0 0 1 -5.01 0 2.5 2.5 0 0 1 5.01 0z" fill="#fff"/><path d="m41.16 19.66a.03.03 0 0 1 0 0 1.81 1.81 0 0 1 -.03.31.03.03 0 0 1 0 0 1.14 1.14 0 0 1 -.05.2.84.84 0 0 1 -.31.39.03.03 0 0 1 0 0 .82.82 0 0 1 -.37.14 1.67 1.67 0 0 1 -.13 0 .75.75 0 0 1 -.09 0 .03.03 0 0 0 0 0 .46.46 0 0 1 -.05 0 .03.03 0 0 0 0 0 .69.69 0 0 1 -.14-.04.78.78 0 0 1 -.31-.19 1.39 1.39 0 0 1 -.27-.38.03.03 0 0 0 -.02-.02.37.37 0 0 1 -.3-.63.03.03 0 0 0 .01-.02 1.02 1.02 0 0 0 -.17-.24.03.03 0 0 0 0 0 .52.52 0 0 0 -.1-.08.03.03 0 0 0 0 0 .58.58 0 0 0 -.12-.05.02.02 0 0 0 0 0 .65.65 0 0 0 -.16-.02.25.25 0 0 1 -.01 0 .5.5 0 0 0 -.44.22.25.25 0 0 1 0 0 .56.56 0 0 0 -.04.07.02.02 0 0 0 0 0 .94.94 0 0 0 -.09.29 1.43 1.43 0 0 0 -.01.11 1.6 1.6 0 0 0 .01.3 1.58 1.58 0 0 0 .04.18.03.03 0 0 0 .03.02l.06-.03a.03.03 0 0 1 .03.02l.17.43a.03.03 0 0 1 -.02.03l-.42.16a.03.03 0 0 1 -.04-.02l-.16-.42a.03.03 0 0 1 .02-.04l.08-.03a.03.03 0 0 0 .01-.03 1.84 1.84 0 0 1 -.05-.23 1.86 1.86 0 0 1 -.02-.35 1.68 1.68 0 0 1 .02-.14 1.19 1.19 0 0 1 .11-.37.03.03 0 0 1 0 0 .82.82 0 0 1 .06-.09.02.02 0 0 0 0 0 .76.76 0 0 1 .66-.33.02.02 0 0 0 0 0 .9.9 0 0 1 .22.03.02.02 0 0 1 0 0 .83.83 0 0 1 .19.07.03.03 0 0 1 0 0 .77.77 0 0 1 .15.12 1.28 1.28 0 0 1 .22.31.03.03 0 0 0 .02.02.37.37 0 0 1 .29.62.03.03 0 0 0 0 .03 1.14 1.14 0 0 0 .22.32.53.53 0 0 0 .21.12.25.25 0 0 1 0 0 .44.44 0 0 0 .09.02.25.25 0 0 1 .01.01.21.21 0 0 0 .03 0 .25.25 0 0 1 .01 0 .5.5 0 0 0 .05 0 1.42 1.42 0 0 0 .12-.01.57.57 0 0 0 .25-.09.02.02 0 0 0 0 0 .59.59 0 0 0 .21-.27.02.02 0 0 1 0 0 .89.89 0 0 0 .04-.15 1.56 1.56 0 0 0 .02-.26.03.03 0 0 0 0 0 1.84 1.84 0 0 0 -.07-.48.03.03 0 0 0 -.03-.02l-.09.03a.03.03 0 0 1 -.03-.01l-.16-.43a.03.03 0 0 1 .01-.03l.43-.16a.03.03 0 0 1 .03.01l.16.43a.03.03 0 0 1 -.02.04l-.05.02a.03.03 0 0 0 -.01.03 2.09 2.09 0 0 1 .09.56z" fill="#697d99"/><g fill="#fff"><path d="m35.85 38.38a.08.08 0 0 0 0 .15 1.08 1.08 0 0 0 0-2.15 1.08 1.08 0 0 0 0 2.15.08.08 0 0 1 0-.15.93.93 0 0 1 0-1.85.93.93 0 0 1 0 1.85z"/><path d="m35.45 37.34a.1.1 0 0 0 0 .2h.75a.1.1 0 0 0 0-.2z"/><path d="m38.73 13.75a.03.03 0 0 0 -.03.03v.27a.05.05 0 0 1 -.05.05h-.42a.04.04 0 0 1 -.03-.01l-.01-.01-.01-.01-.02-.02-.03-.02-.03-.03-.07-.06-.14-.12-.09-.08-.15-.13-.12-.11-.07-.06-.05-.04-.01-.02-.06-.05a.16.16 0 0 1 -.05-.12v-.24a.03.03 0 0 0 -.03-.03h-.18a.03.03 0 0 0 -.03.03v1.24a.03.03 0 0 0 .03.03h.18a.03.03 0 0 0 .03-.03v-.13a.04.04 0 0 1 .06-.03l.18.14.22.19.1.08a.03.03 0 0 0 0 0l.03.03a.03.03 0 0 0 0 0l.02.01-.01.01-.03.02-.06.05-.11.1-.1.08-.12.11-.12.1a.04.04 0 0 1 -.06-.03v-.15a.03.03 0 0 0 -.03-.03h-.18a.03.03 0 0 0 -.03.03v1.01a.03.03 0 0 0 .03.02h.18a.03.03 0 0 0 .03-.02v-.25a.16.16 0 0 1 .05-.12l.04-.04.07-.05.74-.65a.03.03 0 0 0 0 0 .04.04 0 0 1 .03-.01h.43a.05.05 0 0 1 .05.05v.28a.03.03 0 0 0 .03.03h.18a.03.03 0 0 0 .03-.03v-1.23a.03.03 0 0 0 -.03-.03z"/><path d="m37.61 10.51h1.01a.08.08 0 0 1 .08.07v.28a.03.03 0 0 0 .03.02h.18a.03.03 0 0 0 .03-.02v-1.04a.03.03 0 0 0 -.03-.02h-.18a.03.03 0 0 0 -.03.02v.24a.08.08 0 0 1 -.08.08h-1.22a.12.12 0 0 1 -.11-.11v-.23a.03.03 0 0 0 -.03-.02h-.18a.03.03 0 0 0 -.03.02v.89a.03.03 0 0 0 .01.02l1.16 1.29-.84-.02a.1.1 0 0 1 -.09-.09v-.25a.03.03 0 0 0 -.03-.03h-.18a.03.03 0 0 0 -.03.03v1.05a.03.03 0 0 0 .03.02h.18a.03.03 0 0 0 .03-.02v-.24a.1.1 0 0 1 .09-.1l1.53.02a.03.03 0 0 0 .03-.02v-.34a.03.03 0 0 0 -.01-.02z"/><path d="m38.83 4.19a.04.04 0 0 1 .04-.05h.08a.03.03 0 0 0 .02-.03v-.24a.03.03 0 0 0 -.02-.02h-.69a.03.03 0 0 0 -.03.02v.21a.03.03 0 0 0 .03.03.41.41 0 0 1 .34.25.03.03 0 0 0 0 0 1.63 1.63 0 0 1 .12 1.06.03.03 0 0 0 0 0 .36.36 0 0 1 -.15.28.18.18 0 0 1 -.26-.13.03.03 0 0 0 0 0 2.83 2.83 0 0 1 -.08-.47.03.03 0 0 0 0 0 8.66 8.66 0 0 0 -.09-.69.74.74 0 0 0 -.27-.53.03.03 0 0 0 0 0 .49.49 0 0 0 -.69.12.03.03 0 0 0 -.01 0 1.6 1.6 0 0 0 -.24.89 2.06 2.06 0 0 0 .21.88.04.04 0 0 1 -.04.06.03.03 0 0 0 0 0h-.05a.03.03 0 0 0 -.02.02v.21a.03.03 0 0 0 .02.03h.59a.03.03 0 0 0 .03-.03v-.18a.03.03 0 0 0 -.02-.03.47.47 0 0 1 -.31-.29.03.03 0 0 0 0 0 1.62 1.62 0 0 1 -.07-1.04.03.03 0 0 0 0 0 .34.34 0 0 1 .12-.21.14.14 0 0 1 .21.06.62.62 0 0 1 .03.15 20.75 20.75 0 0 1 .09.72.03.03 0 0 0 0 0 4.13 4.13 0 0 0 .08.44.96.96 0 0 0 .18.37.03.03 0 0 0 0 0 .54.54 0 0 0 .42.17.49.49 0 0 0 .39-.21 1.32 1.32 0 0 0 .23-.63 2.19 2.19 0 0 0 -.19-1.19z"/><path d="m38.73 7.03a.86.86 0 0 0 -.67-.37.9.9 0 0 0 -.07 0 .9.9 0 0 0 -.06.01.86.86 0 0 0 -.67.36 1.75 1.75 0 0 0 -.33 1.05 1.75 1.75 0 0 0 .33 1.04.86.86 0 0 0 .67.37.9.9 0 0 0 .06 0 .9.9 0 0 0 .07 0 .86.86 0 0 0 .67-.36 1.75 1.75 0 0 0 .33-1.05 1.75 1.75 0 0 0 -.33-1.05zm-.11 1.58a.03.03 0 0 1 -.01 0 .82.82 0 0 1 -.6.28h-.02a.82.82 0 0 1 -.61-.28.03.03 0 0 1 0 0 .9.9 0 0 1 0-1.06.03.03 0 0 1 0-.01.82.82 0 0 1 .61-.28h.02a.82.82 0 0 1 .6.28.03.03 0 0 1 .01.01.9.9 0 0 1 0 1.06z"/><path d="m40.73 5.45a.07.07 0 1 0 .11-.1l-.07-.08-.03-.16v-.07l.03-.12.02-.02.1-.03h.05l.04.02.03.07.04.18a.08.08 0 0 0 .01 0l.04.14a.08.08 0 0 0 0 .01l.07.15a.08.08 0 0 0 .04.03l.13.05a.08.08 0 0 0 .03 0h.08a.07.07 0 0 0 .03 0l.13-.05a.07.07 0 0 0 .03-.02l.08-.09a.08.08 0 0 0 .01-.02l.09-.19a.08.08 0 0 0 .01-.03v-.09a.08.08 0 0 0 -.01-.02l-.04-.19a.07.07 0 0 0 -.02-.03l-.12-.14a.07.07 0 0 0 -.12.1l.12.13.04.16v.06l-.08.17-.06.07-.1.03h-.06l-.09-.03-.05-.11-.04-.13-.04-.18a.07.07 0 0 0 -.01-.02l-.04-.09a.07.07 0 0 0 -.03-.04l-.09-.04a.07.07 0 0 0 -.03-.01h-.09a.07.07 0 0 0 -.02 0l-.13.05a.08.08 0 0 0 -.03.02l-.04.05a.07.07 0 0 0 -.02.03l-.04.14a.08.08 0 0 0 0 .02v.09a.08.08 0 0 0 0 .02l.04.18a.07.07 0 0 0 .02.04z"/><path d="m41.75 5.88a.08.08 0 0 0 0-.15h-1.09a.07.07 0 0 0 -.07.07v.49a.07.07 0 0 0 0 .04l.05.08a.07.07 0 0 0 .01.01l.08.1a.08.08 0 0 0 .03.02l.08.03a.08.08 0 0 0 .03.01h.13a.08.08 0 0 0 .03-.01l.17-.08a.08.08 0 0 0 .04-.05l.03-.09a.07.07 0 0 0 0-.02v-.53a.08.08 0 0 0 -.15 0v.51l-.01.06-.13.06h-.09l-.06-.03-.07-.07-.02-.06v-.39z"/><path d="m41.75 6.98a.08.08 0 0 0 0-.15h-1.09a.07.07 0 0 0 -.07.07v.49a.07.07 0 0 0 0 .04l.05.08a.07.07 0 0 0 .01.01l.08.1a.08.08 0 0 0 .03.02l.08.03a.08.08 0 0 0 .03.01h.13a.08.08 0 0 0 .03-.01l.17-.08a.08.08 0 0 0 .04-.05l.03-.09a.07.07 0 0 0 0-.02v-.53a.08.08 0 0 0 -.15 0v.51l-.01.06-.13.06h-.09l-.06-.03-.07-.07-.02-.06v-.39z"/><path d="m41.23 7.28a.08.08 0 0 0 -.07.13l.55.3a.08.08 0 0 0 .08-.13z"/><path d="m40.59 8.79a.08.08 0 0 0 .15 0v-.72h.94v.72a.08.08 0 0 0 .15 0v-.79a.07.07 0 0 0 -.08-.07h-1.09a.07.07 0 0 0 -.07.07z"/><path d="m41.27 8a.08.08 0 0 0 -.15 0v.67a.08.08 0 0 0 .15 0z"/><path d="m40.73 9.85a.07.07 0 1 0 .11-.1l-.07-.08-.03-.16v-.07l.03-.12.02-.02.1-.03h.05l.04.02.03.07.04.18a.08.08 0 0 0 .01 0l.04.14a.08.08 0 0 0 0 .01l.07.15a.08.08 0 0 0 .04.03l.13.05a.08.08 0 0 0 .03 0h.08a.07.07 0 0 0 .03 0l.13-.05a.07.07 0 0 0 .03-.02l.08-.09a.08.08 0 0 0 .01-.02l.09-.19a.08.08 0 0 0 .01-.03v-.09a.08.08 0 0 0 -.01-.02l-.04-.19a.07.07 0 0 0 -.02-.03l-.12-.14a.07.07 0 0 0 -.12.1l.12.13.04.16v.06l-.08.17-.06.07-.1.03h-.06l-.09-.03-.05-.11-.04-.13-.04-.18a.07.07 0 0 0 -.01-.02l-.04-.09a.07.07 0 0 0 -.03-.04l-.09-.04a.07.07 0 0 0 -.03-.01h-.09a.07.07 0 0 0 -.02 0l-.13.05a.08.08 0 0 0 -.03.02l-.04.05a.07.07 0 0 0 -.02.03l-.04.14a.08.08 0 0 0 0 .02v.09a.08.08 0 0 0 0 .02l.04.18a.07.07 0 0 0 .02.04z"/><path d="m40.59 10.99a.08.08 0 0 0 .15 0v-.71h.94v.71a.08.08 0 0 0 .15 0v-.79a.07.07 0 0 0 -.08-.07h-1.09a.07.07 0 0 0 -.07.07z"/><path d="m41.27 10.2a.08.08 0 0 0 -.15 0v.67a.08.08 0 0 0 .15 0z"/><path d="m41.75 11.38a.08.08 0 0 0 0-.15h-1.09a.08.08 0 0 0 -.04.13l.9.66h-.86a.08.08 0 0 0 0 .15h1.09a.08.08 0 0 0 .04-.14l-.9-.65z"/><path d="m40.73 13.15a.07.07 0 0 0 .11-.1l-.07-.08-.03-.16v-.07l.03-.12.02-.02.1-.03h.05l.04.02.03.07.04.18a.08.08 0 0 0 .01 0l.04.14a.08.08 0 0 0 0 .01l.07.15a.08.08 0 0 0 .04.03l.13.05a.08.08 0 0 0 .03 0h.08a.07.07 0 0 0 .03 0l.13-.05a.07.07 0 0 0 .03-.02l.08-.09a.08.08 0 0 0 .01-.02l.09-.19a.08.08 0 0 0 .01-.03v-.09a.08.08 0 0 0 -.01-.02l-.04-.19a.07.07 0 0 0 -.02-.03l-.12-.14a.07.07 0 1 0 -.12.1l.12.13.04.16v.06l-.08.17-.06.07-.1.03h-.06l-.09-.03-.05-.11-.04-.13-.04-.18a.07.07 0 0 0 -.01-.02l-.04-.09a.07.07 0 0 0 -.03-.04l-.09-.04a.07.07 0 0 0 -.03-.01h-.09a.07.07 0 0 0 -.02 0l-.13.05a.08.08 0 0 0 -.03.02l-.04.05a.07.07 0 0 0 -.02.03l-.04.14a.08.08 0 0 0 0 .02v.09a.08.08 0 0 0 0 .02l.04.18a.07.07 0 0 0 .02.04z"/><path d="m40.59 14.29a.08.08 0 0 0 .15 0v-.71h.94v.71a.08.08 0 0 0 .15 0v-.79a.07.07 0 0 0 -.08-.07h-1.09a.07.07 0 0 0 -.07.07z"/><path d="m41.27 13.5a.08.08 0 0 0 -.15 0v.67a.08.08 0 0 0 .15 0z"/><path d="m37.48 24.46a.07.07 0 1 0 .09-.13l-.11-.08-.07-.17v-.07l.07-.19.14-.1.14-.04h.23l.14.04.14.1.08.19v.07l-.07.17-.15.08a.08.08 0 0 0 .07.13l.17-.09a.07.07 0 0 0 .03-.04l.09-.21a.08.08 0 0 0 .01-.03v-.09a.08.08 0 0 0 -.01-.03l-.08-.22a.07.07 0 0 0 -.03-.03l-.17-.13a.07.07 0 0 0 -.02-.02l-.17-.04a.07.07 0 0 0 -.02 0h-.25a.07.07 0 0 0 -.01 0l-.17.04a.07.07 0 0 0 -.03.02l-.17.13a.08.08 0 0 0 -.02.03l-.09.22a.08.08 0 0 0 0 .03v.09a.08.08 0 0 0 0 .03l.09.21a.08.08 0 0 0 .02.03z"/><path d="m38.44 24.76a.07.07 0 1 0 -.08-.12l-1.09.79a.07.07 0 1 0 .08.13z"/><path d="m37.35 24.64a.07.07 0 1 0 -.08.12l1.09.8a.07.07 0 1 0 .08-.13z"/><path d="m38.4 25.88a.08.08 0 0 0 0-.15h-1.09a.07.07 0 0 0 -.07.07v.49a.08.08 0 0 0 0 .03l.09.18a.07.07 0 0 0 .01.02l.09.08a.08.08 0 0 0 .01.01l.09.05a.08.08 0 0 0 .04.01h.58a.07.07 0 0 0 .03-.01l.09-.05a.08.08 0 0 0 .01-.01l.09-.08a.08.08 0 0 0 .01-.02l.09-.18a.08.08 0 0 0 .01-.03v-.49a.08.08 0 0 0 -.15 0v.47l-.08.15-.06.07-.06.03h-.55l-.05-.03-.07-.07-.07-.15v-.39z"/><path d="m37.24 27.6a.08.08 0 0 0 .15 0v-.58h.31l-.03.08a.08.08 0 0 0 -.01.03v.19a.08.08 0 0 0 0 .02l.05.14a.07.07 0 0 0 .01.03l.07.09a.07.07 0 0 0 .01.02l.13.09a.07.07 0 0 0 .05.01h.17a.07.07 0 0 0 .04-.01l.13-.09a.08.08 0 0 0 .02-.03l.08-.14a.07.07 0 0 0 .01-.01l.04-.14a.08.08 0 0 0 .01-.03v-.09a.08.08 0 0 0 -.01-.03l-.09-.19a.08.08 0 0 0 -.01-.02l-.08-.09a.07.07 0 1 0 -.12.1l.08.09.08.16v.06l-.04.12-.07.12-.1.07h-.12l-.1-.07-.05-.07-.04-.12v-.16l.08-.17a.08.08 0 0 0 -.07-.11h-.51a.07.07 0 0 0 -.07.08z"/><path d="m37.38 28.8a.07.07 0 0 0 .11-.1l-.03-.04-.04-.07-.03-.11v-.16l.03-.11.04-.06.05-.04.11-.03h.47l.11.04.06.03.03.05.04.12v.16l-.04.11-.03.06-.06.03-.11.04h-.05l-.06-.03-.05-.06-.04-.15v-.17l.03-.14.06-.06.07-.04a.08.08 0 1 0 -.07-.14l-.08.05a.08.08 0 0 0 -.02.01l-.08.08a.08.08 0 0 0 -.03.05l-.02.17a.07.07 0 0 0 -.01.01v.19a.07.07 0 0 0 .01.02l.04.17a.07.07 0 0 0 .02.04l.07.08a.07.07 0 0 0 .02.01l.08.05a.08.08 0 0 0 .04.01h.08a.08.08 0 0 0 .03 0l.13-.05a.08.08 0 0 0 .01-.01l.08-.04a.08.08 0 0 0 .03-.03l.04-.09a.07.07 0 0 0 .01-.01l.04-.13a.07.07 0 0 0 .01-.02v-.19a.07.07 0 0 0 -.01-.02l-.04-.13a.07.07 0 0 0 -.01-.01l-.04-.08a.08.08 0 0 0 -.03-.03l-.08-.05a.08.08 0 0 0 -.01 0l-.13-.05a.07.07 0 0 0 -.03 0h-.49a.07.07 0 0 0 -.03 0l-.13.05a.08.08 0 0 0 -.01 0l-.07.05a.07.07 0 0 0 -.02.02l-.06.08a.08.08 0 0 0 -.01.02l-.04.13a.07.07 0 0 0 0 .02v.19a.07.07 0 0 0 0 .02l.04.13a.08.08 0 0 0 .01.01l.04.09a.07.07 0 0 0 .01.01z"/><path d="m37.69 29.13a.08.08 0 0 0 0 .15h.32l.16.03.06.03.07.06.03.05v.1l-.03.04-.07.07-.06.02-.16.03h-.31l-.16-.03-.06-.02-.07-.07-.02-.04v-.1l.02-.05.07-.06.06-.03.17-.03a.08.08 0 0 0 -.03-.15l-.17.04a.08.08 0 0 0 -.02 0l-.08.04a.08.08 0 0 0 -.02.01l-.09.08a.08.08 0 0 0 -.01.02l-.04.07a.07.07 0 0 0 -.01.04v.14a.07.07 0 0 0 .01.04l.04.07a.08.08 0 0 0 .01.01l.09.08a.08.08 0 0 0 .02.02l.08.03a.08.08 0 0 0 .02.01l.17.03a.07.07 0 0 0 .01 0h.33a.07.07 0 0 0 .01 0l.17-.03a.08.08 0 0 0 .02-.01l.08-.03a.08.08 0 0 0 .02-.02l.09-.08a.08.08 0 0 0 .01-.01l.04-.07a.07.07 0 0 0 .02-.04v-.14a.07.07 0 0 0 -.02-.04l-.04-.07a.08.08 0 0 0 -.01-.02l-.09-.08a.08.08 0 0 0 -.02-.01l-.08-.04a.08.08 0 0 0 -.02 0l-.17-.04a.07.07 0 0 0 -.01 0z"/><path d="m37.56 30.27a.08.08 0 0 0 -.07-.14l-.09.05a.07.07 0 0 0 -.02.02l-.08.09a.08.08 0 0 0 -.02.02l-.04.09a.08.08 0 0 0 0 .03v.28a.08.08 0 0 0 0 .04l.04.09a.08.08 0 0 0 .02.02l.08.09a.07.07 0 0 0 .02.02l.09.04a.07.07 0 0 0 .03.01h.17a.07.07 0 0 0 .04-.01l.08-.04a.08.08 0 0 0 .02-.02l.5-.55v.55a.08.08 0 0 0 .15 0v-.75a.08.08 0 0 0 -.14-.05l-.61.69-.06.03h-.13l-.06-.03-.06-.07-.03-.07v-.25l.03-.07.06-.07z"/><path d="m38.4 31.38a.08.08 0 0 0 0-.15h-1.09a.07.07 0 0 0 -.07.07v.49a.07.07 0 0 0 0 .04l.05.08a.07.07 0 0 0 .01.01l.08.1a.08.08 0 0 0 .03.02l.08.03a.08.08 0 0 0 .03.01h.13a.08.08 0 0 0 .03-.01l.17-.08a.08.08 0 0 0 .04-.05l.03-.09a.07.07 0 0 0 0-.02v-.53a.08.08 0 0 0 -.15 0v.51l-.01.06-.13.06h-.09l-.06-.03-.07-.07-.02-.06v-.39z"/><path d="m37.32 32.33a.07.07 0 0 0 -.02.14l.81.15-.4.14a.08.08 0 0 0 0 .14l.41.15-.82.15a.07.07 0 0 0 .02.15l1.09-.2a.08.08 0 0 0 .02-.14l-.47-.18.46-.16a.08.08 0 0 0 -.01-.15z"/><path d="m38.4 33.63a.08.08 0 0 0 0-.15h-1.09a.07.07 0 0 0 -.07.08v.49a.07.07 0 0 0 0 .03l.05.09a.07.07 0 0 0 .01.01l.08.1a.08.08 0 0 0 .03.01l.08.04a.08.08 0 0 0 .03 0h.13a.08.08 0 0 0 .03 0l.17-.08a.08.08 0 0 0 .04-.05l.03-.09a.08.08 0 0 0 0-.03v-.52a.08.08 0 0 0 -.15 0v.51l-.01.05-.13.06h-.09l-.06-.02-.07-.07-.02-.06v-.4z"/><path d="m37.92 34.05a.08.08 0 0 0 -.14.07l.04.09a.08.08 0 0 0 .02.02l.08.08a.07.07 0 0 0 .02.02l.08.04a.07.07 0 0 0 .04.01h.13a.07.07 0 0 0 .03-.01l.09-.04a.08.08 0 0 0 .01-.02l.09-.08a.08.08 0 0 0 .02-.02l.04-.09a.08.08 0 0 0 .01-.04v-.52a.08.08 0 0 0 -.15 0v.51l-.03.06-.07.07-.06.03h-.09l-.06-.03-.07-.07z"/><path d="m37.31 34.58a.08.08 0 0 0 0 .15h1.02v.72a.08.08 0 0 0 .15 0v-.79a.07.07 0 0 0 -.08-.08z"/><path d="m38.4 35.83a.08.08 0 0 0 0-.15h-1.09a.08.08 0 0 0 -.04.14l.5.37-.51.39a.08.08 0 0 0 .05.13h1.09a.08.08 0 0 0 0-.15h-.87l.41-.31a.08.08 0 0 0 0-.12l-.4-.3z"/><path d="m37.66 37.1a.07.07 0 0 0 -.08-.13l-.31.17a.08.08 0 0 0 .04.14h1.09a.08.08 0 0 0 0-.15h-.8z"/><path d="m40.45 23.68a.08.08 0 0 0 0-.15h-1.09a.08.08 0 0 0 -.04.13l.5.37-.51.39a.08.08 0 0 0 .05.13h1.09a.08.08 0 0 0 0-.15h-.87l.41-.31a.08.08 0 0 0 0-.12l-.4-.29z"/><path d="m40.48 24.83a.08.08 0 0 0 -.06-.14l-1.09.4a.08.08 0 0 0 0 .14l1.09.39a.08.08 0 0 0 .06-.14l-.9-.32z"/><path d="m40.19 24.88a.08.08 0 0 0 -.15 0v.56a.08.08 0 0 0 .15 0z"/><path d="m40.45 25.93a.08.08 0 0 0 0-.15h-1.09a.07.07 0 0 0 -.07.08v.49a.08.08 0 0 0 0 .03l.09.18a.07.07 0 0 0 .01.02l.09.08a.08.08 0 0 0 .01.01l.09.05a.08.08 0 0 0 .04.01h.58a.07.07 0 0 0 .03-.01l.09-.05a.08.08 0 0 0 .01-.01l.09-.08a.07.07 0 0 0 .01-.02l.09-.18a.08.08 0 0 0 .01-.03v-.49a.08.08 0 0 0 -.15 0v.47l-.08.15-.06.07-.06.03h-.55l-.05-.03-.07-.07-.07-.15v-.4z"/><path d="m39.29 27.75a.08.08 0 0 0 .15 0v-.72h.94v.72a.08.08 0 0 0 .15 0v-.79a.07.07 0 0 0 -.08-.08h-1.09a.07.07 0 0 0 -.07.08z"/><path d="m39.97 26.96a.08.08 0 0 0 -.15 0v.66a.08.08 0 0 0 .15 0z"/><path d="m40.53 29.31a.08.08 0 0 0 -.15 0v.36a.08.08 0 0 0 .15 0z"/><path d="m40.45 29.57a.08.08 0 0 0 0-.15h-1.09a.08.08 0 0 0 0 .15z"/><path d="m39.44 29.31a.08.08 0 0 0 -.15 0v.36a.08.08 0 0 0 .15 0z"/><path d="m40.45 30.18a.08.08 0 0 0 0-.15h-1.09a.08.08 0 0 0 -.04.14l.9.66h-.86a.08.08 0 0 0 0 .15h1.09a.08.08 0 0 0 .04-.14l-.9-.66z"/><path d="m39.36 32.79a.08.08 0 0 0 0 .15h.84a.07.07 0 0 0 .03-.01l.09-.04a.08.08 0 0 0 .01-.01l.13-.12a.07.07 0 0 0 .01-.02l.05-.08a.07.07 0 0 0 .01-.04v-.08a.08.08 0 0 0 -.01-.04l-.09-.15a.07.07 0 0 0 -.02-.02l-.13-.09a.08.08 0 1 0 -.08.13l.11.07.07.12v.04l-.03.06-.11.1-.06.03z"/><path d="m40.48 33.48a.08.08 0 0 0 -.06-.14l-1.09.39a.08.08 0 0 0 0 .14l1.09.4a.08.08 0 1 0 .06-.14l-.9-.33z"/><path d="m40.19 33.52a.08.08 0 0 0 -.15 0v.56a.08.08 0 0 0 .15 0z"/><path d="m40.45 34.58a.08.08 0 0 0 0-.15h-1.09a.07.07 0 0 0 -.07.08v.49a.07.07 0 0 0 0 .03l.05.08a.07.07 0 0 0 .01.02l.08.09a.08.08 0 0 0 .03.02l.08.04a.08.08 0 0 0 .03 0h.13a.08.08 0 0 0 .03 0l.17-.09a.08.08 0 0 0 .04-.04l.03-.1a.08.08 0 0 0 0-.02v-.52a.08.08 0 0 0 -.15 0v.51l-.01.05-.13.06h-.09l-.06-.02-.07-.07-.02-.06v-.4z"/><path d="m40.48 35.68a.08.08 0 1 0 -.06-.14l-1.09.39a.08.08 0 0 0 0 .14l1.09.4a.08.08 0 1 0 .06-.14l-.9-.33z"/><path d="m40.19 35.72a.08.08 0 0 0 -.15 0v.56a.08.08 0 0 0 .15 0z"/><path d="m40.45 36.78a.08.08 0 0 0 0-.15h-1.09a.08.08 0 0 0 -.04.14l.9.66h-.86a.08.08 0 0 0 0 .15h1.09a.08.08 0 0 0 .04-.14l-.9-.66z"/><path d="m35.85 40.92a.08.08 0 0 0 0 .16 1.08 1.08 0 0 0 0-2.16 1.08 1.08 0 0 0 0 2.16.08.08 0 0 1 0-.16.93.93 0 0 1 0-1.84.93.93 0 0 1 0 1.84z"/><path d="m35.45 39.89a.1.1 0 0 0 0 .2h.75a.1.1 0 0 0 0-.2z"/><path d="m35.92 39.55a.1.1 0 0 0 -.2 0v.85a.1.1 0 0 0 .2 0z"/><path d="m41.05 39.27a.03.03 0 0 0 0-.01.08.08 0 0 0 -.02-.04.02.02 0 0 0 0 0 .07.07 0 0 0 -.06-.02.05.05 0 0 1 -.04-.02.02.02 0 0 0 0-.01.32.32 0 0 1 -.03-.08.16.16 0 0 0 -.04-.07.27.27 0 0 0 -.06-.05.49.49 0 0 0 -.12-.05.02.02 0 0 0 0 0 .5.5 0 0 0 -.22 0 .02.02 0 0 0 0 0l-.03.01a.15.15 0 0 0 -.06.04.02.02 0 0 0 -.01.01.15.15 0 0 1 -.07.06l-.02.01a.08.08 0 0 1 -.07-.01.03.03 0 0 0 -.01 0 .1.1 0 0 0 -.02 0 .03.03 0 0 0 0 0 .04.04 0 0 0 -.04.03.08.08 0 0 0 -.01.03.1.1 0 0 0 .05.09.31.31 0 0 0 .08.04 1.55 1.55 0 0 0 .18.04l.36.04a.55.55 0 0 0 .23 0 .02.02 0 0 0 0 0 .06.06 0 0 0 .02-.02.03.03 0 0 0 .01-.01z"/><path d="m41.05 40.52a.03.03 0 0 0 -.01-.01.06.06 0 0 0 -.02-.02.02.02 0 0 0 0 0 .55.55 0 0 0 -.23 0l-.36.04a.03.03 0 0 0 0 0 1.55 1.55 0 0 0 -.18.04.02.02 0 0 0 0 0 .31.31 0 0 0 -.08.04.02.02 0 0 0 0 0 .1.1 0 0 0 -.05.09.08.08 0 0 0 .01.03.03.03 0 0 0 0 0 .04.04 0 0 0 .04.03.03.03 0 0 0 0 0 .1.1 0 0 0 .02 0 .03.03 0 0 0 .01 0 .08.08 0 0 1 .07-.01l.02.01a.15.15 0 0 1 .07.06.02.02 0 0 0 .01.01.15.15 0 0 0 .06.04l.03.01a.03.03 0 0 0 0 0 .5.5 0 0 0 .22 0 .02.02 0 0 0 0 0 .49.49 0 0 0 .12-.05.02.02 0 0 0 0 0 .27.27 0 0 0 .06-.05.02.02 0 0 0 0 0 .16.16 0 0 0 .04-.07.32.32 0 0 1 .03-.08.02.02 0 0 0 0-.01.05.05 0 0 1 .04-.02.07.07 0 0 0 .06-.02.02.02 0 0 0 0 0 .08.08 0 0 0 .02-.04.03.03 0 0 0 0-.01z"/><path d="m39.93 38.85a.41.41 0 0 0 -.14-.06 2.13 2.13 0 0 0 -.28-.06l-.11-.02a1.21 1.21 0 0 0 -1.34.79.03.03 0 0 0 0 0 1.57 1.57 0 0 0 -.05.4 1.57 1.57 0 0 0 .05.4.03.03 0 0 0 0 0 1.21 1.21 0 0 0 1.34.79l.11-.01a2.13 2.13 0 0 0 .28-.07.41.41 0 0 0 .14-.06.03.03 0 0 0 0-.05l-.02-.01a.02.02 0 0 0 0 0 .23.23 0 0 0 -.06-.02.02.02 0 0 0 0 0 1.55 1.55 0 0 0 -.3.03l-.15.03a1.05 1.05 0 1 1 0-2.06l.15.03a1.55 1.55 0 0 0 .3.03.02.02 0 0 0 0 0 .23.23 0 0 0 .06-.02.02.02 0 0 0 0 0l.02-.01a.03.03 0 0 0 0-.05z"/></g><path d="m30.25 43.42a.6.6 0 0 1 -1.2 0 .6.6 0 0 1 1.2 0z" fill="#8c8663"/><path d="m30.75 49.15a.15.15 0 0 0 .3 0v-1.42a.15.15 0 0 0 -.04-.11l-.4-.39.4-.39a.15.15 0 0 0 .04-.11v-1.54a.15.15 0 0 0 -.04-.11l-.4-.39.4-.39a.15.15 0 0 0 .04-.11v-1.41a.15.15 0 0 0 -.3 0v1.35l-.46.45a.15.15 0 0 0 0 .22l.46.45v1.42l-.46.45a.15.15 0 0 0 0 .22l.46.45z" fill="#fff"/><path d="m28.55 42.78a.15.15 0 0 0 -.3 0v1.41a.15.15 0 0 0 .04.11l.4.39-.4.39a.15.15 0 0 0 -.04.11v1.54a.15.15 0 0 0 .04.11l.4.39-.4.39a.15.15 0 0 0 -.04.11v1.42a.15.15 0 0 0 .3 0v-1.36l.46-.45a.15.15 0 0 0 0-.22l-.46-.45v-1.42l.46-.45a.15.15 0 0 0 0-.22l-.46-.45z" fill="#fff"/><path d="m30.79 42.88a.15.15 0 1 0 .22-.21l-.5-.5a.15.15 0 0 0 -.22.21z" fill="#fff"/><path d="m30.39 49.44a.15.15 0 0 0 .21.22l.41-.41a.15.15 0 1 0 -.22-.21z" fill="#fff"/><path d="m28.51 49.04a.15.15 0 1 0 -.22.21l.41.41a.15.15 0 0 0 .21-.22z" fill="#fff"/><path d="m30.4 48.5a.75.75 0 0 1 -1.5 0 .75.75 0 0 1 1.5 0z" fill="#8c8663"/><path d="m30.4 45.96a.75.75 0 0 1 -1.5 0 .75.75 0 0 1 1.5 0z" fill="#8c8663"/><path d="m30.4 43.42a.75.75 0 0 1 -1.5 0 .75.75 0 0 1 1.5 0z" fill="#8c8663"/><path d="m30.78 38.17a.15.15 0 0 0 .3 0v-1.54a.15.15 0 0 0 -.3 0z" fill="#fff"/><path d="m33.32 38.17a.15.15 0 0 0 .3 0v-1.54a.15.15 0 0 0 -.3 0z" fill="#fff"/><path d="m32.97 36.28a.15.15 0 0 0 0-.3h-1.54a.15.15 0 0 0 0 .3z" fill="#fff"/><path d="m30.82 36.52a.15.15 0 0 0 .22.22l.5-.5a.15.15 0 1 0 -.22-.22z" fill="#fff"/><path d="m33.08 36.02a.15.15 0 1 0 -.22.22l.5.5a.15.15 0 0 0 .22-.22z" fill="#fff"/><path d="m33.58 38.28a.15.15 0 0 0 -.22-.22l-.5.5a.15.15 0 1 0 .22.22z" fill="#fff"/><path d="m31.32 38.78a.15.15 0 1 0 .22-.22l-.5-.5a.15.15 0 0 0 -.22.22z" fill="#fff"/><path d="m30.78 40.71a.15.15 0 0 0 .3 0v-1.54a.15.15 0 0 0 -.3 0z" fill="#fff"/><path d="m33.32 40.71a.15.15 0 0 0 .3 0v-1.54a.15.15 0 0 0 -.3 0z" fill="#fff"/><path d="m32.97 38.82a.15.15 0 0 0 0-.3h-1.54a.15.15 0 0 0 0 .3z" fill="#fff"/><path d="m30.82 39.06a.15.15 0 1 0 .22.22l.5-.5a.15.15 0 0 0 -.22-.22z" fill="#fff"/><path d="m33.08 38.56a.15.15 0 0 0 -.22.22l.5.5a.15.15 0 0 0 .22-.22z" fill="#fff"/><path d="m33.58 40.82a.15.15 0 0 0 -.22-.22l-.5.5a.15.15 0 1 0 .22.22z" fill="#fff"/><path d="m31.32 41.32a.15.15 0 0 0 .22-.22l-.5-.5a.15.15 0 0 0 -.22.22z" fill="#fff"/><path d="m32.97 41.36a.15.15 0 0 0 0-.3h-1.54a.15.15 0 0 0 0 .3z" fill="#fff"/><path d="m28.23 38.17a.15.15 0 0 0 .3 0v-1.54a.15.15 0 0 0 -.3 0z" fill="#fff"/><path d="m30.77 38.17a.15.15 0 0 0 .3 0v-1.54a.15.15 0 0 0 -.3 0z" fill="#fff"/><path d="m30.42 36.28a.15.15 0 0 0 0-.3h-1.54a.15.15 0 0 0 0 .3z" fill="#fff"/><path d="m28.27 36.52a.15.15 0 0 0 .22.22l.5-.5a.15.15 0 1 0 -.22-.22z" fill="#fff"/><path d="m30.53 36.02a.15.15 0 1 0 -.22.22l.5.5a.15.15 0 0 0 .22-.22z" fill="#fff"/><path d="m31.03 38.28a.15.15 0 0 0 -.22-.22l-.5.5a.15.15 0 1 0 .22.22z" fill="#fff"/><path d="m28.77 38.78a.15.15 0 1 0 .22-.22l-.5-.5a.15.15 0 0 0 -.22.22z" fill="#fff"/><path d="m28.23 40.71a.15.15 0 0 0 .3 0v-1.54a.15.15 0 0 0 -.3 0z" fill="#fff"/><path d="m30.77 40.71a.15.15 0 0 0 .3 0v-1.54a.15.15 0 0 0 -.3 0z" fill="#fff"/><path d="m30.42 38.82a.15.15 0 0 0 0-.3h-1.54a.15.15 0 0 0 0 .3z" fill="#fff"/><path d="m28.27 39.06a.15.15 0 1 0 .22.22l.5-.5a.15.15 0 0 0 -.22-.22z" fill="#fff"/><path d="m30.53 38.56a.15.15 0 0 0 -.22.22l.5.5a.15.15 0 1 0 .22-.22z" fill="#fff"/><path d="m31.03 40.82a.15.15 0 1 0 -.22-.22l-.5.5a.15.15 0 0 0 .22.22z" fill="#fff"/><path d="m28.77 41.32a.15.15 0 1 0 .22-.22l-.5-.5a.15.15 0 0 0 -.22.22z" fill="#fff"/><path d="m30.42 41.36a.15.15 0 0 0 0-.3h-1.54a.15.15 0 0 0 0 .3z" fill="#fff"/><g id="35audioplug"><g transform="matrix(.02264 0 0 .02264 33 42.35)"><path d="m554.42 75.08v114.93 26.37h59.3v-167.7h-59.3z" fill="#2b2b2b"/><path d="m554.42 186.18v3.83 20.37h59.3v-24.2z" fill="#292929"/><path d="m554.42 83.04v-8.43-20.42h59.3v28.85z" fill="#292929"/><path d="m554.42 102.39h59.03v44.57h-59.03z" fill="#333"/><path d="m554.42 115.22h59.03v24.47h-59.03z" fill="#383838"/><path d="m554.42 210.36h59.32v6.06h-59.32z" fill="#212121"/><path d="m554.42 48.71h59.32v5.5h-59.32z" fill="#212121"/><path d="m613.49 48.71h26.17v167.64h-26.17z" fill="#a1a1a1"/><path d="m613.49 83.03h26.17v103.18h-26.17z" fill="#ababab"/><path d="m613.49 102.39h26.17v44.57h-26.17z" fill="#c7c7c7"/><path d="m613.49 115.22h26.17v24.47h-26.17z" fill="#e6e6e6"/><path d="m613.49 48.71h26.17v5.5h-26.17z" fill="#737373"/><path d="m613.49 210.63h26.17v5.5h-26.17z" fill="#737373"/><g><g><path d="m0 0h559.96v265h-559.96z" fill="#333"/></g></g><g fill="#c7c7c7"><path d="m258.88.11h72.08v11.6h-72.08z"/><path d="m410.76 253.39h72.1v11.61h-72.1z"/></g></g></g><g transform="matrix(0 -1 1 0 .29 31.28)"><g id="header8male"><g fill="#000" transform="scale(.00254)"><path d="m217.11 0-217.11 217.11v565.64l217.11 217.25h565.64l217.25-217.25v-565.64l-217.25-217.11z" fill="#404040"/><path id="connector0pin" d="m306.15 306.15h387.69v387.69h-387.69z" fill="none"/><path id="connector0terminal" d="m349.77 342.96h300.6v314.21h-300.6z" fill="none"/><path d="m340.46 340.46h319.21v319.21h-319.21z" fill="#8d8c8c"/><path d="m417.97 417.97h164.19v164.19h-164.19z" fill="#8c8663"/><path d="m340.46 340.46 77.51 77.51h164.06l77.64-77.51z" fill="#b8af82"/><path d="m582.03 582.03v-164.06l77.64-77.51v319.21z" fill="#80795b"/><path d="m417.97 582.03h164.06l77.64 77.64h-319.21z" fill="#5e5b43"/><path d="m340.46 340.46 77.51 77.51v164.06l-77.51 77.64z" fill="#9a916c"/><path d="m1217.11 0-217.11 217.11v565.64l217.11 217.25h565.64l217.25-217.25v-565.64l-217.25-217.11z" fill="#404040"/><path id="connector1pin" d="m1306.15 306.15h387.69v387.69h-387.69z" fill="none"/><path id="connector1terminal" d="m1349.77 342.96h300.6v314.21h-300.6z" fill="none"/><path d="m1340.46 340.46h319.21v319.21h-319.21z" fill="#8d8c8c"/><path d="m1417.97 417.97h164.19v164.19h-164.19z" fill="#8c8663"/><path d="m1340.46 340.46 77.51 77.51h164.06l77.64-77.51z" fill="#b8af82"/><path d="m1582.03 582.03v-164.06l77.64-77.51v319.21z" fill="#80795b"/><path d="m1417.97 582.03h164.06l77.64 77.64h-319.21z" fill="#5e5b43"/><path d="m1340.46 340.46 77.51 77.51v164.06l-77.51 77.64z" fill="#9a916c"/><path d="m2217.11 0-217.11 217.11v565.64l217.11 217.25h565.64l217.25-217.25v-565.64l-217.25-217.11z" fill="#404040"/><path id="connector2pin" d="m2306.15 306.15h387.69v387.69h-387.69z" fill="none"/><path id="connector2terminal" d="m2349.77 342.96h300.6v314.21h-300.6z" fill="none"/><path d="m2340.46 340.46h319.21v319.21h-319.21z" fill="#8d8c8c"/><path d="m2417.97 417.97h164.19v164.19h-164.19z" fill="#8c8663"/><path d="m2340.46 340.46 77.51 77.51h164.06l77.64-77.51z" fill="#b8af82"/><path d="m2582.03 582.03v-164.06l77.64-77.51v319.21z" fill="#80795b"/><path d="m2417.97 582.03h164.06l77.64 77.64h-319.21z" fill="#5e5b43"/><path d="m2340.46 340.46 77.51 77.51v164.06l-77.51 77.64z" fill="#9a916c"/><path d="m3217.11 0-217.11 217.11v565.64l217.11 217.25h565.64l217.25-217.25v-565.64l-217.25-217.11z" fill="#404040"/><path id="connector3pin" d="m3306.15 306.15h387.69v387.69h-387.69z" fill="none"/><path id="connector3terminal" d="m3349.77 342.96h300.6v314.21h-300.6z" fill="none"/><path d="m3340.46 340.46h319.21v319.21h-319.21z" fill="#8d8c8c"/><path d="m3417.97 417.97h164.19v164.19h-164.19z" fill="#8c8663"/><path d="m3340.46 340.46 77.51 77.51h164.06l77.64-77.51z" fill="#b8af82"/><path d="m3582.03 582.03v-164.06l77.64-77.51v319.21z" fill="#80795b"/><path d="m3417.97 582.03h164.06l77.64 77.64h-319.21z" fill="#5e5b43"/><path d="m3340.46 340.46 77.51 77.51v164.06l-77.51 77.64z" fill="#9a916c"/><path d="m4217.11 0-217.11 217.11v565.64l217.11 217.25h565.64l217.25-217.25v-565.64l-217.25-217.11z" fill="#404040"/><path id="connector4pin" d="m4306.15 306.15h387.69v387.69h-387.69z" fill="none"/><path id="connector4terminal" d="m4349.77 342.96h300.6v314.21h-300.6z" fill="none"/><path d="m4340.46 340.46h319.21v319.21h-319.21z" fill="#8d8c8c"/><path d="m4417.97 417.97h164.19v164.19h-164.19z" fill="#8c8663"/><path d="m4340.46 340.46 77.51 77.51h164.05l77.65-77.51z" fill="#b8af82"/><path d="m4582.02 582.03v-164.06l77.65-77.51v319.21z" fill="#80795b"/><path d="m4417.97 582.03h164.05l77.65 77.64h-319.21z" fill="#5e5b43"/><path d="m4340.46 340.46 77.51 77.51v164.06l-77.51 77.64z" fill="#9a916c"/><path d="m5217.11 0-217.11 217.11v565.64l217.11 217.25h565.64l217.25-217.25v-565.64l-217.25-217.11z" fill="#404040"/><path id="connector5pin" d="m5306.15 306.15h387.69v387.69h-387.69z" fill="none"/><path id="connector5terminal" d="m5349.77 342.96h300.6v314.21h-300.6z" fill="none"/><path d="m5340.46 340.46h319.21v319.21h-319.21z" fill="#8d8c8c"/><path d="m5417.97 417.97h164.19v164.19h-164.19z" fill="#8c8663"/><path d="m5340.46 340.46 77.51 77.51h164.05l77.65-77.51z" fill="#b8af82"/><path d="m5582.02 582.03v-164.06l77.65-77.51v319.21z" fill="#80795b"/><path d="m5417.97 582.03h164.05l77.65 77.64h-319.21z" fill="#5e5b43"/><path d="m5340.46 340.46 77.51 77.51v164.06l-77.51 77.64z" fill="#9a916c"/><path d="m6217.11 0-217.11 217.11v565.64l217.11 217.25h565.64l217.25-217.25v-565.64l-217.25-217.11z" fill="#404040"/><path id="connector6pin" d="m6306.15 306.15h387.69v387.69h-387.69z" fill="none"/><path id="connector6terminal" d="m6349.77 342.96h300.6v314.21h-300.6z" fill="none"/><path d="m6340.46 340.46h319.21v319.21h-319.21z" fill="#8d8c8c"/><path d="m6417.97 417.97h164.19v164.19h-164.19z" fill="#8c8663"/><path d="m6340.46 340.46 77.51 77.51h164.05l77.65-77.51z" fill="#b8af82"/><path d="m6582.02 582.03v-164.06l77.65-77.51v319.21z" fill="#80795b"/><path d="m6417.97 582.03h164.05l77.65 77.64h-319.21z" fill="#5e5b43"/><path d="m6340.46 340.46 77.51 77.51v164.06l-77.51 77.64z" fill="#9a916c"/><path d="m7217.11 0-217.11 217.11v565.64l217.11 217.25h565.64l217.25-217.25v-565.64l-217.25-217.11z" fill="#404040"/><path id="connector7pin" d="m7306.15 306.15h387.69v387.69h-387.69z" fill="none"/><path id="connector7terminal" d="m7349.77 342.96h300.6v314.21h-300.6z" fill="none"/><path d="m7340.46 340.46h319.21v319.21h-319.21z" fill="#8d8c8c"/><path d="m7417.97 417.97h164.19v164.19h-164.19z" fill="#8c8663"/><path d="m7340.46 340.46 77.51 77.51h164.05l77.65-77.51z" fill="#b8af82"/><path d="m7582.02 582.03v-164.06l77.65-77.51v319.21z" fill="#80795b"/><path d="m7417.97 582.03h164.05l77.65 77.64h-319.21z" fill="#5e5b43"/><path d="m7340.46 340.46 77.51 77.51v164.06l-77.51 77.64z" fill="#9a916c"/></g></g></g><g transform="matrix(0 -1 1 0 2.84 31.28)"><use href="#header8male"/></g><g transform="matrix(0 -1 1 0 28.35 31.15)"><g id="header4male"><g fill="#000" transform="scale(.00254)"><path d="m217.11 0-217.11 217.11v565.64l217.11 217.25h565.64l217.25-217.25v-565.64l-217.25-217.11z" fill="#404040"/><path id="connector0pin" d="m306.15 306.15h387.69v387.69h-387.69z" fill="none"/><path id="connector0terminal" d="m349.77 342.96h300.6v314.21h-300.6z" fill="none"/><path d="m340.46 340.46h319.21v319.21h-319.21z" fill="#8d8c8c"/><path d="m417.97 417.97h164.19v164.19h-164.19z" fill="#8c8663"/><path d="m340.46 340.46 77.51 77.51h164.06l77.64-77.51z" fill="#b8af82"/><path d="m582.03 582.03v-164.06l77.64-77.51v319.21z" fill="#80795b"/><path d="m417.97 582.03h164.06l77.64 77.64h-319.21z" fill="#5e5b43"/><path d="m340.46 340.46 77.51 77.51v164.06l-77.51 77.64z" fill="#9a916c"/><path d="m1217.11 0-217.11 217.11v565.64l217.11 217.25h565.64l217.25-217.25v-565.64l-217.25-217.11z" fill="#404040"/><path id="connector1pin" d="m1306.15 306.15h387.69v387.69h-387.69z" fill="none"/><path id="connector1terminal" d="m1349.77 342.96h300.6v314.21h-300.6z" fill="none"/><path d="m1340.46 340.46h319.21v319.21h-319.21z" fill="#8d8c8c"/><path d="m1417.97 417.97h164.19v164.19h-164.19z" fill="#8c8663"/><path d="m1340.46 340.46 77.51 77.51h164.06l77.64-77.51z" fill="#b8af82"/><path d="m1582.03 582.03v-164.06l77.64-77.51v319.21z" fill="#80795b"/><path d="m1417.97 582.03h164.06l77.64 77.64h-319.21z" fill="#5e5b43"/><path d="m1340.46 340.46 77.51 77.51v164.06l-77.51 77.64z" fill="#9a916c"/><path d="m2217.11 0-217.11 217.11v565.64l217.11 217.25h565.64l217.25-217.25v-565.64l-217.25-217.11z" fill="#404040"/><path id="connector2pin" d="m2306.15 306.15h387.69v387.69h-387.69z" fill="none"/><path id="connector2terminal" d="m2349.77 342.96h300.6v314.21h-300.6z" fill="none"/><path d="m2340.46 340.46h319.21v319.21h-319.21z" fill="#8d8c8c"/><path d="m2417.97 417.97h164.19v164.19h-164.19z" fill="#8c8663"/><path d="m2340.46 340.46 77.51 77.51h164.06l77.64-77.51z" fill="#b8af82"/><path d="m2582.03 582.03v-164.06l77.64-77.51v319.21z" fill="#80795b"/><path d="m2417.97 582.03h164.06l77.64 77.64h-319.21z" fill="#5e5b43"/><path d="m2340.46 340.46 77.51 77.51v164.06l-77.51 77.64z" fill="#9a916c"/><path d="m3217.11 0-217.11 217.11v565.64l217.11 217.25h565.64l217.25-217.25v-565.64l-217.25-217.11z" fill="#404040"/><path id="connector3pin" d="m3306.15 306.15h387.69v387.69h-387.69z" fill="none"/><path id="connector3terminal" d="m3349.77 342.96h300.6v314.21h-300.6z" fill="none"/><path d="m3340.46 340.46h319.21v319.21h-319.21z" fill="#8d8c8c"/><path d="m3417.97 417.97h164.19v164.19h-164.19z" fill="#8c8663"/><path d="m3340.46 340.46 77.51 77.51h164.06l77.64-77.51z" fill="#b8af82"/><path d="m3582.03 582.03v-164.06l77.64-77.51v319.21z" fill="#80795b"/><path d="m3417.97 582.03h164.06l77.64 77.64h-319.21z" fill="#5e5b43"/><path d="m3340.46 340.46 77.51 77.51v164.06l-77.51 77.64z" fill="#9a916c"/></g></g><g transform="translate(0 2.54)"><use href="#header4male"/></g></g><g transform="matrix(0 -1 1 0 -1.3 41.15)"><g id="usb_minib"><path d="m0 0v5.6h6.9v-5.6" fill="#737373"/><path d="m0 0v5.6h6.9v-5.6h-.2v.6h-6.5v-.6" fill="#e6e6e6"/><path d="m1 1.6h.9v1.5h-.9" fill="#737373"/><path d="m1.2 2.1h.7v1h-.7" fill="#ababab"/><path d="m5 1.6h.9v1.5h-.9" fill="#737373"/><path d="m5 2.1h.7v1h-.7" fill="#ababab"/><path d="m1 5.2h4.9v.4h-4.9" fill="#c7c7c7"/><path d="m1.5 5.2h3.9v.4h-3.9" fill="#ababab"/><path d="m2 5.2h2.9v.4h-2.9" fill="#a1a1a1"/><g fill="#737373"><path d="m2.5 5.2h1.9v.4h-1.9"/><path d="m1 5h4.9v.2h-4.9"/></g></g></g><g transform="matrix(0 -1 1 0 28.38 49.77)"><g id="header3male"><g fill="#000" transform="scale(.00254)"><path d="m217.11 0-217.11 217.11v565.64l217.11 217.25h565.64l217.25-217.25v-565.64l-217.25-217.11z" fill="#404040"/><path id="connector0pin" d="m306.15 306.15h387.69v387.69h-387.69z" fill="none"/><path id="connector0terminal" d="m349.77 342.96h300.6v314.21h-300.6z" fill="none"/><path d="m340.46 340.46h319.21v319.21h-319.21z" fill="#8d8c8c"/><path d="m417.97 417.97h164.19v164.19h-164.19z" fill="#8c8663"/><path d="m340.46 340.46 77.51 77.51h164.06l77.64-77.51z" fill="#b8af82"/><path d="m582.03 582.03v-164.06l77.64-77.51v319.21z" fill="#80795b"/><path d="m417.97 582.03h164.06l77.64 77.64h-319.21z" fill="#5e5b43"/><path d="m340.46 340.46 77.51 77.51v164.06l-77.51 77.64z" fill="#9a916c"/><path d="m1217.11 0-217.11 217.11v565.64l217.11 217.25h565.64l217.25-217.25v-565.64l-217.25-217.11z" fill="#404040"/><path id="connector1pin" d="m1306.15 306.15h387.69v387.69h-387.69z" fill="none"/><path id="connector1terminal" d="m1349.77 342.96h300.6v314.21h-300.6z" fill="none"/><path d="m1340.46 340.46h319.21v319.21h-319.21z" fill="#8d8c8c"/><path d="m1417.97 417.97h164.19v164.19h-164.19z" fill="#8c8663"/><path d="m1340.46 340.46 77.51 77.51h164.06l77.64-77.51z" fill="#b8af82"/><path d="m1582.03 582.03v-164.06l77.64-77.51v319.21z" fill="#80795b"/><path d="m1417.97 582.03h164.06l77.64 77.64h-319.21z" fill="#5e5b43"/><path d="m1340.46 340.46 77.51 77.51v164.06l-77.51 77.64z" fill="#9a916c"/><path d="m2217.11 0-217.11 217.11v565.64l217.11 217.25h565.64l217.25-217.25v-565.64l-217.25-217.11z" fill="#404040"/><path id="connector2pin" d="m2306.15 306.15h387.69v387.69h-387.69z" fill="none"/><path id="connector2terminal" d="m2349.77 342.96h300.6v314.21h-300.6z" fill="none"/><path d="m2340.46 340.46h319.21v319.21h-319.21z" fill="#8d8c8c"/><path d="m2417.97 417.97h164.19v164.19h-164.19z" fill="#8c8663"/><path d="m2340.46 340.46 77.51 77.51h164.06l77.64-77.51z" fill="#b8af82"/><path d="m2582.03 582.03v-164.06l77.64-77.51v319.21z" fill="#80795b"/><path d="m2417.97 582.03h164.06l77.64 77.64h-319.21z" fill="#5e5b43"/><path d="m2340.46 340.46 77.51 77.51v164.06l-77.51 77.64z" fill="#9a916c"/></g></g></g><g id="SKRPADE010" transform="translate(.4 4.45)"><path d="m.8-.2v4.6h1.6v-4.6m-2.15 0h2.7v4.6h-2.7" fill="#ababab"/><path d="m0 0h3.2v4.2h-3.2" fill="#cdcdcd"/><path d="m.35 2.5a1.25 1.25 0 0 0 2.5 0v-.8a1.25 1.25 0 0 0 -2.5 0" fill="#000"/><path d="m.5 2.5a1.1 1.1 0 0 0 2.2 0v-.8a1.1 1.1 0 0 0 -2.2 0" fill="#333"/><g fill="#000" stroke="#a1a1a1" stroke-width=".35"><path d="m.3 3.9v-.4l.4.4z"/><path d="m.3.3v.4l.4-.4z"/><path d="m2.9 3.9v-.4l-.4.4z"/><path d="m2.9.3v.4l-.4-.4z"/></g></g><path d="m554.42 102.39h59.03v44.57h-59.03z" fill="#333"/><path d="m554.42 115.22h59.03v24.47h-59.03z" fill="#383838"/><path d="m554.42 210.36h59.32v6.06h-59.32z" fill="#212121"/><path d="m554.42 48.71h59.32v5.5h-59.32z" fill="#212121"/><path d="m613.49 48.71h26.17v167.64h-26.17z" fill="#a1a1a1"/><path d="m613.49 83.03h26.17v103.18h-26.17z" fill="#ababab"/><path d="m613.49 102.39h26.17v44.57h-26.17z" fill="#c7c7c7"/><path d="m613.49 115.22h26.17v24.47h-26.17z" fill="#e6e6e6"/><path d="m613.49 48.71h26.17v5.5h-26.17z" fill="#737373"/><path d="m613.49 210.63h26.17v5.5h-26.17z" fill="#737373"/></g><g transform="translate(6.5)"><g transform="scale(1 -1)"><path d="m0 49a1 1 0 0 0 1 1h18.6a1 1 0 0 0 1-1v-48a1 1 0 0 0 -1-1h-18.6a1 1 0 0 0 -1 1zm3-1a1 1 0 0 1 -2 0 1 1 0 0 1 2 0zm16.6 0a1 1 0 0 1 -2 0 1 1 0 0 1 2 0zm-16.6-46a1 1 0 0 1 -2 0 1 1 0 0 1 2 0zm16.6 0a1 1 0 0 1 -2 0 1 1 0 0 1 2 0zm-6.57 4.25a.38.38 0 0 1 -.75 0 .38.38 0 0 1 .75 0zm2 0a.38.38 0 0 1 -.75 0 .38.38 0 0 1 .75 0z" fill="#697d99" stroke="#d3d3d3" stroke-width=".2"/><g fill="#fff"><path d="m5.28 1.45a.08.08 0 0 0 -.15 0v1.7a.07.07 0 0 0 .07.08h3.6a.07.07 0 0 0 .08-.08v-1.7a.07.07 0 0 0 -.08-.07h-3.6a.08.08 0 0 0 0 .15h3.53v1.55h-3.45z"/><path d="m5.58 1.75a.08.08 0 0 0 -.15 0v1.09a.07.07 0 0 0 .07.07h.49a.07.07 0 0 0 .04 0l.08-.05a.07.07 0 0 0 .01-.01l.1-.08a.08.08 0 0 0 .02-.03l.03-.08a.08.08 0 0 0 .01-.03v-.13a.08.08 0 0 0 -.01-.03l-.08-.17a.08.08 0 0 0 -.05-.04l-.09-.03a.07.07 0 0 0 -.02 0h-.53a.08.08 0 0 0 0 .15h.51l.06.01.06.13v.09l-.03.06-.07.07-.06.02h-.39z"/><path d="m5.88 2.27a.08.08 0 0 0 .13.07l.3-.55a.08.08 0 0 0 -.13-.08z"/><path d="m7.35 2.77a.07.07 0 0 0 -.1-.11l-.08.07-.16.03h-.07l-.12-.03-.02-.02-.03-.1v-.05l.02-.04.07-.03.18-.04a.08.08 0 0 0 0-.01l.14-.04a.08.08 0 0 0 .01 0l.15-.07a.08.08 0 0 0 .03-.04l.05-.13a.08.08 0 0 0 0-.03v-.08a.07.07 0 0 0 0-.03l-.05-.13a.07.07 0 0 0 -.02-.03l-.09-.08a.08.08 0 0 0 -.02-.01l-.19-.09a.08.08 0 0 0 -.03 0h-.09a.08.08 0 0 0 -.02 0l-.19.04a.07.07 0 0 0 -.03.02l-.14.12a.07.07 0 1 0 .1.12l.13-.12.16-.03h.06l.17.07.07.06.03.1v.06l-.03.09-.11.05-.13.04-.18.04a.07.07 0 0 0 -.02.01l-.09.04a.07.07 0 0 0 -.04.03l-.04.09a.07.07 0 0 0 -.01.03v.09a.07.07 0 0 0 0 .02l.05.13a.08.08 0 0 0 .02.03l.05.04a.07.07 0 0 0 .03.02l.14.04a.08.08 0 0 0 .02 0h.09a.08.08 0 0 0 .02 0l.18-.04a.07.07 0 0 0 .04-.02z"/><path d="m7.7 2.76a.08.08 0 0 0 0 .15h.79a.08.08 0 0 0 0-.15z"/><path d="m8.17 1.75a.08.08 0 0 0 -.15 0v1.09a.08.08 0 0 0 .15 0z"/><path d="m5.72 8.05a.07.07 0 0 0 -.14.06l.03.05a.07.07 0 0 0 .01.02l.04.05a.08.08 0 0 0 .02.01l.05.03a.08.08 0 0 0 .04.01h.14a.08.08 0 0 0 .03-.01l.05-.03a.08.08 0 0 0 .02-.01l.05-.05a.07.07 0 0 0 .01-.02l.02-.05a.08.08 0 0 0 .01-.03v-.11a.08.08 0 0 0 -.01-.03l-.02-.05a.08.08 0 0 0 -.01-.02l-.24-.24h.2a.08.08 0 0 0 0-.15h-.37a.08.08 0 0 0 -.05.12l.34.37.01.02v.07l-.01.03-.03.03-.02.01h-.1l-.02-.01-.03-.03z"/><path d="m4.42 8.05a.07.07 0 1 0 -.14.06l.03.05a.08.08 0 0 0 0 .01l.05.06a.07.07 0 0 0 .03.02l.07.02a.07.07 0 0 0 .02.01h.09a.07.07 0 0 0 .02 0l.09-.03a.08.08 0 0 0 .04-.02l.04-.06a.08.08 0 0 0 .01-.01l.02-.05a.08.08 0 0 0 .01-.03v-.08a.08.08 0 0 0 -.01-.03l-.02-.05a.08.08 0 0 0 -.01-.01l-.02-.03a.08.08 0 0 0 -.02-.02l-.05-.03a.08.08 0 0 0 -.03-.01h-.14a.08.08 0 0 0 0 .15h.12l.01.01.01.01.01.03v.04l-.01.03-.02.02-.06.02h-.06l-.04-.01-.02-.03z"/><path d="m4.62 7.83a.07.07 0 0 0 .04.14l.06-.02a.07.07 0 0 0 .04-.03l.05-.08a.08.08 0 0 0 .01-.04v-.1a.07.07 0 0 0 0-.02l-.02-.08a.07.07 0 0 0 -.02-.02l-.04-.05a.08.08 0 0 0 -.04-.03l-.11-.02a.07.07 0 0 0 -.02 0h-.09a.07.07 0 0 0 -.02 0l-.07.03a.08.08 0 0 0 -.04.03l-.06.1a.07.07 0 1 0 .12.08l.05-.08.04-.01h.06l.08.01.02.02.01.05v.07l-.02.04z"/><path d="m7.08 7.99a.08.08 0 0 0 -.14.06l.09.19a.08.08 0 1 0 .13-.07z"/><path d="m7.02 8.2a.08.08 0 0 0 .15 0v-.65a.08.08 0 0 0 -.15 0z"/><path d="m8.18 7.97a.08.08 0 0 0 .15 0v-.18l.01-.09.01-.04.03-.03h.01.02.01l.02.03.01.04.02.09v.18l-.02.09-.01.03-.02.03-.01.01h-.02l-.01-.01-.03-.03-.01-.03-.01-.1a.07.07 0 1 0 -.15.03l.02.1a.08.08 0 0 0 0 .01l.02.05a.08.08 0 0 0 .01.02l.04.06a.08.08 0 0 0 .01.01l.04.02a.07.07 0 0 0 .04.02h.07a.08.08 0 0 0 .05-.02l.03-.02a.07.07 0 0 0 .02-.01l.04-.06a.08.08 0 0 0 .01-.02l.02-.05a.08.08 0 0 0 0-.01l.02-.1a.07.07 0 0 0 0-.02v-.19a.07.07 0 0 0 0-.01l-.02-.11a.08.08 0 0 0 0-.01l-.02-.05a.08.08 0 0 0 -.01-.02l-.04-.05a.07.07 0 0 0 -.02-.02l-.03-.02a.08.08 0 0 0 -.05-.01h-.07a.07.07 0 0 0 -.04.01l-.04.02a.08.08 0 0 0 -.01.02l-.04.05a.08.08 0 0 0 -.01.02l-.02.05a.08.08 0 0 0 0 .01l-.02.11a.07.07 0 0 0 0 .01z"/><path d="m16.52 43.6a.05.05 0 0 0 .07.04l.84-.42a.05.05 0 0 0 0-.08l-.84-.42a.05.05 0 0 0 -.07.04z"/><path d="m3.88 42.76a.05.05 0 0 0 -.07-.04l-.84.42a.05.05 0 0 0 0 .08l.84.42a.05.05 0 0 0 .07-.04z"/><path d="m11.89 24.38a.05.05 0 0 0 .04.07h.34a.05.05 0 0 0 .04-.07l-.17-.34a.05.05 0 0 0 -.08 0z"/><path d="m12.39 7.38a.08.08 0 0 0 0 .15h.51a.08.08 0 0 0 0-.15z"/><path d="m12.72 7.13a.08.08 0 0 0 -.15 0v.63a.08.08 0 0 0 .15 0z"/><path d="m14.39 7.38a.08.08 0 0 0 0 .15h.51a.08.08 0 0 0 0-.15z"/><g stroke="#00bfff" stroke-width="0"><g id="sony"><path d="m7.42 45.27a.03.03 0 0 1 -.04-.03v-.05a.03.03 0 0 0 -.03-.03h-.18a.03.03 0 0 0 -.02.03v.53a.03.03 0 0 0 .02.03h.16a.03.03 0 0 0 .03-.03.33.33 0 0 1 .19-.26.02.02 0 0 0 .01 0 1.29 1.29 0 0 1 .83-.1.03.03 0 0 0 0 0 .28.28 0 0 1 .22.12.14.14 0 0 1 -.1.21.02.02 0 0 0 0 0 2.23 2.23 0 0 1 -.37.06.03.03 0 0 0 0 0 6.84 6.84 0 0 0 -.55.07.58.58 0 0 0 -.41.21.02.02 0 0 0 0 0 .39.39 0 0 0 .08.55.02.02 0 0 0 .01 0 1.27 1.27 0 0 0 .7.19.03.03 0 0 0 0 0 1.62 1.62 0 0 0 .7-.16.03.03 0 0 1 .04.03.03.03 0 0 0 0 0v.03a.03.03 0 0 0 .03.03h.16a.03.03 0 0 0 .02-.03v-.45a.03.03 0 0 0 -.02-.03h-.15a.03.03 0 0 0 -.02.02.37.37 0 0 1 -.23.24.03.03 0 0 0 0 0 1.28 1.28 0 0 1 -.82.06.02.02 0 0 0 0 0 .27.27 0 0 1 -.16-.1.11.11 0 0 1 .04-.16.49.49 0 0 1 .12-.03.02.02 0 0 0 0 0 16.38 16.38 0 0 1 .57-.07.02.02 0 0 0 0 0 3.27 3.27 0 0 0 .34-.06.03.03 0 0 0 0 0 .76.76 0 0 0 .3-.14.02.02 0 0 0 0 0 .43.43 0 0 0 .14-.33.38.38 0 0 0 -.17-.31.02.02 0 0 0 0 0 1.04 1.04 0 0 0 -.5-.18.03.03 0 0 0 0 0 1.73 1.73 0 0 0 -.94.14z"/><path d="m12.41 46.24v-.8a.06.06 0 0 1 .06-.06h.21a.03.03 0 0 0 .02-.03v-.13a.03.03 0 0 0 -.02-.03h-.81a.03.03 0 0 0 -.02.03v.13a.03.03 0 0 0 .02.03h.19a.06.06 0 0 1 .06.06v.96a.09.09 0 0 1 -.09.09h-.17a.03.03 0 0 0 -.03.03v.14a.03.03 0 0 0 .03.02h.69a.03.03 0 0 0 .02-.01l1.01-.91-.01.66a.08.08 0 0 1 -.07.07h-.2a.03.03 0 0 0 -.02.03v.14a.03.03 0 0 0 .02.02h.83a.03.03 0 0 0 .02-.02v-.14a.03.03 0 0 0 -.02-.03h-.19a.08.08 0 0 1 -.07-.07l.01-1.2a.03.03 0 0 0 -.02-.03h-.27a.03.03 0 0 0 -.01.01z"/><path d="m14.97 45.35a.03.03 0 0 0 .02.03h.21a.04.04 0 0 1 .05.04v.33a.03.03 0 0 1 -.01.02l-.01.01-.01.01-.01.02-.02.02-.02.02-.05.06-.1.11-.06.07-.1.11-.06.07-.08.09-.03.03-.01.02-.04.04a.13.13 0 0 1 -.1.04h-.18a.03.03 0 0 0 -.03.03v.14a.03.03 0 0 0 .03.02h.97a.03.03 0 0 0 .03-.02v-.14a.03.03 0 0 0 -.03-.03h-.1a.03.03 0 0 1 -.03-.05l.12-.13.18-.22.04-.05a.02.02 0 0 0 0 0l.01-.02a.03.03 0 0 0 0 0l.01-.01.01.01.01.01.02.02.02.04.08.09.07.07.16.19a.03.03 0 0 1 -.02.05h-.12a.03.03 0 0 0 -.02.03v.14a.03.03 0 0 0 .02.02h.79a.03.03 0 0 0 .03-.02v-.14a.03.03 0 0 0 -.03-.03h-.19a.13.13 0 0 1 -.09-.04l-.04-.04-.21-.24-.33-.38a.02.02 0 0 0 0 0l-.01-.01a.03.03 0 0 1 -.01-.02v-.34a.04.04 0 0 1 .04-.04h.22a.03.03 0 0 0 .03-.03v-.13a.03.03 0 0 0 -.03-.03h-.97a.03.03 0 0 0 -.02.03z"/><path d="m9.66 45.36a.68.68 0 0 0 -.29.53.71.71 0 0 0 0 .05.71.71 0 0 0 0 .05.68.68 0 0 0 .29.53 1.38 1.38 0 0 0 .83.25 1.38 1.38 0 0 0 .82-.25.68.68 0 0 0 .29-.53.71.71 0 0 0 0-.05.03.03 0 0 0 0 0 .71.71 0 0 0 0-.05.68.68 0 0 0 -.28-.53 1.38 1.38 0 0 0 -.83-.27 1.38 1.38 0 0 0 -.83.27zm1.25.09a.03.03 0 0 1 0 0 .64.64 0 0 1 .22.47v.02a.64.64 0 0 1 -.22.48.03.03 0 0 1 0 0 .71.71 0 0 1 -.84 0 .03.03 0 0 1 0 0 .64.64 0 0 1 -.23-.48v-.02a.64.64 0 0 1 .23-.47.03.03 0 0 1 0 0 .71.71 0 0 1 .84 0z"/></g></g><path d="m5.75 27.75a2.5 2.5 0 0 1 0 5.01 2.5 2.5 0 0 1 0-5.01z"/></g><path d="m5.71 28.49a.03.03 0 0 1 0 0 1.81 1.81 0 0 1 .31.03.03.03 0 0 1 0 0 1.14 1.14 0 0 1 .2.05.84.84 0 0 1 .39.31.03.03 0 0 1 0 0 .82.82 0 0 1 .14.37 1.67 1.67 0 0 1 0 .13.75.75 0 0 1 0 .09.03.03 0 0 0 0 0 .46.46 0 0 1 0 .05.03.03 0 0 0 0 0 .69.69 0 0 1 -.04.14.78.78 0 0 1 -.19.31 1.39 1.39 0 0 1 -.38.27.03.03 0 0 0 -.02.02.37.37 0 0 1 -.63.3.03.03 0 0 0 -.02-.01 1.02 1.02 0 0 0 -.24.17.03.03 0 0 0 0 0 .52.52 0 0 0 -.08.1.03.03 0 0 0 0 0 .58.58 0 0 0 -.05.12.02.02 0 0 0 0 0 .65.65 0 0 0 -.02.16.25.25 0 0 1 0 .01.5.5 0 0 0 .22.44.25.25 0 0 1 0 0 .56.56 0 0 0 .07.04.02.02 0 0 0 0 0 .94.94 0 0 0 .29.09 1.43 1.43 0 0 0 .11.01 1.6 1.6 0 0 0 .3-.01 1.58 1.58 0 0 0 .18-.04.03.03 0 0 0 .02-.03l-.03-.06a.03.03 0 0 1 .02-.03l.43-.16a.03.03 0 0 1 .03.01l.16.42a.03.03 0 0 1 -.02.04l-.42.16a.03.03 0 0 1 -.04-.02l-.03-.08a.03.03 0 0 0 -.03-.01 1.84 1.84 0 0 1 -.23.05 1.86 1.86 0 0 1 -.35.02 1.68 1.68 0 0 1 -.14-.02 1.19 1.19 0 0 1 -.37-.11.03.03 0 0 1 0 0 .82.82 0 0 1 -.09-.06.02.02 0 0 0 0 0 .76.76 0 0 1 -.33-.66.02.02 0 0 0 0 0 .9.9 0 0 1 .03-.22.02.02 0 0 1 0 0 .83.83 0 0 1 .07-.19.03.03 0 0 1 0 0 .77.77 0 0 1 .12-.15 1.28 1.28 0 0 1 .31-.22.03.03 0 0 0 .02-.02.37.37 0 0 1 .62-.29.03.03 0 0 0 .03 0 1.14 1.14 0 0 0 .32-.22.53.53 0 0 0 .12-.21.25.25 0 0 1 0 0 .44.44 0 0 0 .02-.09.25.25 0 0 1 .01-.01.21.21 0 0 0 0-.03.25.25 0 0 1 0-.01.5.5 0 0 0 0-.05 1.42 1.42 0 0 0 -.01-.12.57.57 0 0 0 -.09-.25.02.02 0 0 0 0 0 .59.59 0 0 0 -.27-.21.02.02 0 0 1 0 0 .89.89 0 0 0 -.15-.04 1.56 1.56 0 0 0 -.26-.02.03.03 0 0 0 0 0 1.84 1.84 0 0 0 -.48.07.03.03 0 0 0 -.02.03l.04.09a.03.03 0 0 1 -.02.03l-.43.16a.03.03 0 0 1 -.03-.01l-.16-.43a.03.03 0 0 1 .01-.03l.43-.16a.03.03 0 0 1 .04.02l.02.05a.03.03 0 0 0 .03.01 2.09 2.09 0 0 1 .56-.09z" fill="#697d99"/><path d="m11.7 7.9a.15.15 0 0 0 0-.3h-1.1a.15.15 0 0 0 0 .3z" fill="#fff"/><path d="m10.45 7.75a.15.15 0 0 0 .3 0v-7.3a.15.15 0 0 0 -.3 0z" fill="#fff"/><g id="breadboard" fill="#000"><g transform="matrix(0 -.00254 .00254 0 .16 44.45)"><path d="m0 0h13000v1000h-13000z" fill="#404040"/><path d="m306.73 306.73h386.54v386.54h-386.54z"/><path d="m1306.73 306.73h386.54v386.54h-386.54z"/><path d="m2306.73 306.73h386.54v386.54h-386.54z"/><path d="m3306.73 306.73h386.54v386.54h-386.54z"/><path d="m4306.73 306.73h386.54v386.54h-386.54z"/><path d="m5306.73 306.73h386.54v386.54h-386.54z"/><path d="m6306.73 306.73h386.54v386.54h-386.54z"/><path d="m7306.73 306.73h386.54v386.54h-386.54z"/><path d="m8306.73 306.73h386.54v386.54h-386.54z"/><path d="m9306.73 306.73h386.54v386.54h-386.54z"/><path d="m10306.7 306.73h386.54v386.54h-386.54z"/><path d="m11306.7 306.73h386.54v386.54h-386.54z"/><path d="m12306.7 306.73h386.54v386.54h-386.54z"/></g><g transform="matrix(0 -.00254 .00254 0 17.9 44.45)"><path d="m0 0h13000v1000h-13000z" fill="#404040"/><path d="m306.73 306.73h386.54v386.54h-386.54z"/><path d="m1306.73 306.73h386.54v386.54h-386.54z"/><path d="m2306.73 306.73h386.54v386.54h-386.54z"/><path d="m3306.73 306.73h386.54v386.54h-386.54z"/><path d="m4306.73 306.73h386.54v386.54h-386.54z"/><path d="m5306.73 306.73h386.54v386.54h-386.54z"/><path d="m6306.73 306.73h386.54v386.54h-386.54z"/><path d="m7306.73 306.73h386.54v386.54h-386.54z"/><path d="m8306.73 306.73h386.54v386.54h-386.54z"/><path d="m9306.73 306.73h386.54v386.54h-386.54z"/><path d="m10306.7 306.73h386.54v386.54h-386.54z"/><path d="m11306.7 306.73h386.54v386.54h-386.54z"/><path d="m12306.7 306.73h386.54v386.54h-386.54z"/></g></g><path d="m11.9 49.5a.1.1 0 0 0 .1-.1v-1.4a.1.1 0 0 0 -.1-.1h-4.8a.1.1 0 0 0 -.1.1v1.4a.1.1 0 0 0 .1.1z" fill="#fff"/><path d="m5.6 49.45a.05.05 0 0 0 .05.05h1.1a.05.05 0 0 0 .05-.05v-1.5a.05.05 0 0 0 -.05-.05h-1.1a.05.05 0 0 0 -.05.05z" fill="#9a916c"/><path d="m12.2 49.45a.05.05 0 0 0 .05.05h1.1a.05.05 0 0 0 .05-.05v-1.5a.05.05 0 0 0 -.05-.05h-1.1a.05.05 0 0 0 -.05.05z" fill="#9a916c"/><g transform="matrix(0 .248625 -.248625 0 19.2 4.97)"><path d="m2.27.29v3.96c0 .16-.13.29-.29.29h-1.69c-.16 0-.29-.13-.29-.29v-3.96c0-.16.13-.29.29-.29h1.69c.16 0 .29.13.29.29z" fill="#dcdcdc"/><path d="m0 1.13h2.27v2.27h-2.27z" fill="#0080ff" transform="matrix(0 -1 1 0 -1.13 3.4)"/><circle cx="1.13" cy="2.27" fill="#0050a0" r=".35"/></g><path d="m4.6 4.58a.1.1 0 0 0 .1-.11v-.79a.1.1 0 0 0 -.1-.1h-.75a.1.1 0 0 0 -.1.1v.79a.1.1 0 0 0 .1.11z" fill="#fff"/><path d="m10.15 4.58a.1.1 0 0 0 .1-.11v-.79a.1.1 0 0 0 -.1-.1h-.75a.1.1 0 0 0 -.1.1v.79a.1.1 0 0 0 .1.11z" fill="#fff"/><g transform="matrix(.394 0 0 .394 4 5.5)"><path d="m2.27.29v3.96c0 .16-.13.29-.29.29h-1.69c-.16 0-.29-.13-.29-.29v-3.96c0-.16.13-.29.29-.29h1.69c.16 0 .29.13.29.29z" fill="#dcdcdc"/><path d="m0 1.13h2.27v2.27h-2.27z" fill="#0f0" transform="matrix(0 -1 1 0 -1.13 3.4)"/><circle cx="1.13" cy="2.27" fill="#00b400" r=".35"/></g><g transform="matrix(.394 0 0 .394 5.3 5.5)"><path d="m2.27.29v3.96c0 .16-.13.29-.29.29h-1.69c-.16 0-.29-.13-.29-.29v-3.96c0-.16.13-.29.29-.29h1.69c.16 0 .29.13.29.29z" fill="#dcdcdc"/><path d="m0 1.13h2.27v2.27h-2.27z" fill="#0f0" transform="matrix(0 -1 1 0 -1.13 3.4)"/><circle cx="1.13" cy="2.27" fill="#00b400" r=".35"/></g><g transform="matrix(.394 0 0 .394 6.6 5.5)"><path d="m2.27.29v3.96c0 .16-.13.29-.29.29h-1.69c-.16 0-.29-.13-.29-.29v-3.96c0-.16.13-.29.29-.29h1.69c.16 0 .29.13.29.29z" fill="#dcdcdc"/><path d="m0 1.13h2.27v2.27h-2.27z" fill="#0f0" transform="matrix(0 -1 1 0 -1.13 3.4)"/><circle cx="1.13" cy="2.27" fill="#00b400" r=".35"/></g><g transform="matrix(.394 0 0 .394 7.9 5.5)"><path d="m2.27.29v3.96c0 .16-.13.29-.29.29h-1.69c-.16 0-.29-.13-.29-.29v-3.96c0-.16.13-.29.29-.29h1.69c.16 0 .29.13.29.29z" fill="#dcdcdc"/><path d="m0 1.13h2.27v2.27h-2.27z" fill="#0f0" transform="matrix(0 -1 1 0 -1.13 3.4)"/><circle cx="1.13" cy="2.27" fill="#00b400" r=".35"/></g><g id="ds602gg" transform="matrix(0 -1 1 0 10.25 37.8)"><path d="m0 0h6.5v6.5h-6.5z" fill="#333"/><g fill="#999"><circle cx="1" cy="1" r=".5"/><g transform="translate(1 5)"><use transform="matrix(.5 0 0 .5 -3.71 -22.64)" href="#sony"/></g></g></g><g id="156_xfbga" transform="matrix(0 -1 1 0 7.11 24.06)"><path d="m0 0h5.56v5.34h-5.56z" fill="#117"/></g></g><g transform="matrix(0 -1 1 0 .8 -5.5)"><path d="m1.75.44a.95.95 0 0 0 0 1.9m0 0a.95.95 0 0 0 0-1.9" fill="#fdba58"/><path d="m.9 1.39a.85.85 0 0 0 1.7 0m0 0a.85.85 0 0 0 -1.7 0" fill="#fecf8d"/><path d="m.93 1.39a.82.82 0 0 0 1.64 0m0 0a.82.82 0 0 0 -1.64 0" fill="#ffe5c2"/><g fill="#dcdcdc"><path d="m0 2.05h.25v.34h-.25z"/><path d="m0 .39h.25v.34h-.25z"/><path d="m3.25 2.05h.25v.34h-.25z"/><path d="m3.25.39h.25v.34h-.25z"/></g><g><path d="m.65 2.76c-.01 0-.05-.02-.09-.03-.06-.02-.07-.02-.05-.02.01 0 .04.01.08.02s.07.02.08.02c.03.01.03.01.03-.1 0-.09 0-.1-.01-.11-.01-.02-.04-.05-.06-.06-.01 0-.04-.01-.12-.01-.06 0-.11 0-.11 0s-.04-.04-.08-.08l-.07-.07v-.28c0-.28 0-.28-.01-.3-.02-.03-.06-.06-.13-.08-.06-.02-.07-.02-.08-.06 0-.02-.01-.03-.01-.03-.01-.01-.01-.39 0-.39 0 0 .01-.01.01-.03.01-.04.02-.04.08-.06.07-.02.11-.04.13-.08.01-.02.01-.02.01-.3v-.28l.07-.07c.04-.04.08-.07.08-.08h.11c.08 0 .11 0 .12-.01.02-.01.05-.03.06-.06.01-.02.01-.02.01-.11 0-.11 0-.1-.03-.1-.01 0-.05.01-.08.02-.04.01-.07.02-.08.02s0-.01.07-.03l.08-.03h.18.2.02v.1c0 .12 0 .12.04.15.02.02.04.03.07.03s.06-.01.08-.03.17-.21.17-.21c0-.01.7-.01.71 0 0 .01.15.19.17.21s.05.03.08.03.05-.01.07-.03c.03-.03.03-.03.04-.15v-.1h.02.2.18l.08.03c.07.02.08.03.07.03s-.04-.01-.08-.02-.08-.02-.08-.02c-.03-.01-.03-.01-.03.1 0 .09 0 .1.01.11.01.02.04.05.06.06.01 0 .03.01.09.01.08 0 .1 0 .11.02.01.01.01.02.01.06 0 .06 0 .07.02.09.01.01.02.01.08.01h.07v.27c0 .27 0 .27.01.29 0 .01.01.02.02.03.02.02.05.03.07.04.03.01.09.03.1.03.01.01.01.02.02.04 0 .02.01.03.01.03s.01.39 0 .39c0 0-.01.01-.01.03-.01.02-.01.03-.02.04s-.07.03-.1.03c-.02 0-.05.02-.07.04-.01.01-.02.02-.02.03-.01.02-.01.02-.01.29v.27h-.07c-.07 0-.07 0-.08.01-.02.01-.02.03-.02.09 0 .04 0 .05-.01.06-.01.02-.03.02-.11.02-.06 0-.08 0-.09.01-.02.01-.05.03-.06.06-.01.02-.01.02-.01.11 0 .11 0 .1.03.1.01 0 .05-.01.08-.02.04-.01.07-.02.08-.02s0 .01-.07.03l-.08.03h-.18c-.1 0-.19 0-.2 0h-.02v-.1c0-.12 0-.12-.04-.15-.02-.02-.04-.03-.07-.03s-.06.01-.08.03-.17.21-.17.21-.07.01-.35.01h-.35l-.01-.01c-.01-.02-.17-.21-.18-.22-.02-.02-.04-.02-.07-.02s-.04.01-.07.03c-.03.03-.03.03-.04.15v.1h-.02c-.01 0-.09 0-.19.01-.14 0-.17 0-.19 0zm1.24-.43c.38-.06.69-.34.78-.71.02-.09.03-.13.03-.24 0-.07 0-.1-.01-.14-.04-.28-.2-.52-.44-.67-.04-.02-.13-.07-.18-.09s-.13-.04-.19-.05c-.07-.01-.21-.01-.28 0-.11.02-.19.04-.28.09-.19.09-.34.24-.43.43-.05.1-.07.17-.09.28-.01.04-.01.06-.01.15 0 .11.01.15.03.24.1.38.42.65.81.7.06.01.2.01.25 0z" fill="#e9e2d9" stroke="#e9e2d9" stroke-width=".01"/><g fill="#d8ccbb"/></g></g><g transform="matrix(0 -1 1 0 17.73 -6.3)"><path d="m.1 0h2.8v1.9h-2.8z" fill="#362f2d"/><path d="m.1.4.6-.4h1.6l.6.4v1.1l-.6.4h-1.6l-.6-.4z" fill="#e9e2d9"/><circle cx="1.5" cy=".95" fill="#362f2d" r=".38"/><circle cx="1.5" cy=".95" fill="#645856" r=".32"/></g><g transform="translate(13.4 -23.25)"><path d="m0 0h2v1.6h-2z" fill="#dcdcdc"/><path d="m.6 0h.8v1.6h-.8z" fill="#a55a5a"/></g><g transform="translate(13.6 -20.95)"><path d="m0 0h2v1.6h-2z" fill="#dcdcdc"/><path d="m.6 0h.8v1.6h-.8z" fill="#a55a5a"/></g><g transform="matrix(.352 0 0 .352 6.45 -15.85)"><g id="r2012"><path d="m5.39 3.54h-5.11c-.15 0-.28-.12-.28-.28v-2.98c0-.15.13-.28.28-.28h5.1c.16 0 .28.13.28.28v2.98c.01.16-.12.28-.27.28z" fill="#dcdcdc"/><path d="m1.06 0h3.54v3.54h-3.54z" fill="#75b2bf"/></g></g><g transform="matrix(.352 0 0 .352 11.15 -15.85)"><use href="#r2012"/></g><g transform="matrix(0 -.352 .352 0 4.45 -15.7)"><use href="#r2012"/></g><g transform="matrix(0 -.352 .352 0 9.15 -14.25)"><use href="#r2012"/></g><g transform="translate(5.4 -11.6)"><g id="c20fht_smr_gab_tf"><g fill="#dcdcdc"><path d="m1.35-.39h.3v.77h-.3z"/><path d="m2.35-.39h.3v.77h-.3z"/><path d="m3.35-.39h.3v.77h-.3z"/><path d="m4.35-.39h.3v.77h-.3z"/><path d="m5.35-.39h.3v.77h-.3z"/><path d="m6.35-.39h.3v.77h-.3z"/><path d="m7.35-.39h.3v.77h-.3z"/><path d="m8.35-.39h.3v.77h-.3z"/><path d="m9.35-.39h.3v.77h-.3z"/><path d="m10.35-.39h.3v.77h-.3z"/><path d="m.85 2h.3v.77h-.3z"/><path d="m1.85 2h.3v.77h-.3z"/><path d="m2.85 2h.3v.77h-.3z"/><path d="m3.85 2h.3v.77h-.3z"/><path d="m4.85 2h.3v.77h-.3z"/><path d="m5.85 2h.3v.77h-.3z"/><path d="m6.85 2h.3v.77h-.3z"/><path d="m7.85 2h.3v.77h-.3z"/><path d="m8.85 2h.3v.77h-.3z"/><path d="m9.85 2h.3v.77h-.3z"/></g><path d="m0 0h11.5v2l-.3.3h-10.9l-.3-.3z" fill="#404040"/><path d="m.5 1h10.5l.25-.15h-11z" fill="#373737"/><path d="m.5 1v.5l-.25.25v-.85z" fill="#2a2a29"/><path d="m10.85 1v.5l.25.25v-.85z" fill="#595959"/><path d="m.5 1h10.25v.5h-10.25z" fill="#000"/></g></g></g></svg>