<?xml version="1.0" encoding="UTF-8" standalone="no"?>
<svg
   xmlns:dc="http://purl.org/dc/elements/1.1/"
   xmlns:cc="http://creativecommons.org/ns#"
   xmlns:rdf="http://www.w3.org/1999/02/22-rdf-syntax-ns#"
   xmlns:svg="http://www.w3.org/2000/svg"
   xmlns="http://www.w3.org/2000/svg"
   id="svg2"
   viewBox="0 0 2999.9997 2000"
   height="0.2in"
   width="0.29999998in"
   y="0in"
   x="0in"
   version="1.2">
  <metadata
     id="metadata57">
    <rdf:RDF>
      <cc:Work
         rdf:about="">
        <dc:format>image/svg+xml</dc:format>
        <dc:type
           rdf:resource="http://purl.org/dc/dcmitype/StillImage" />
        <dc:title></dc:title>
      </cc:Work>
    </rdf:RDF>
  </metadata>
  <defs
     id="defs55" />
  <g
     transform="translate(-1.0596382e-4,500.00002)"
     id="breadboard">
    <polygon
       style="fill:#404040"
       id="polygon5"
       points="217.113,1000 782.747,1000 1000,782.747 1000,217.113 782.747,0 217.113,0 217.113,0 0,217.113 0,782.747 " />
    <rect
       style="fill:none"
       height="387.69199"
       width="387.69199"
       y="306.15302"
       x="306.15302"
       id="connector0pin" />
    <rect
       style="fill:none"
       height="314.20999"
       width="300.59698"
       y="342.96399"
       x="349.76999"
       id="connector0terminal" />
    <rect
       style="fill:#8d8c8c"
       id="rect9"
       height="319.211"
       width="319.211"
       y="340.46301"
       x="340.46301" />
    <rect
       style="fill:#8c8663"
       id="rect11"
       height="164.189"
       width="164.189"
       y="417.974"
       x="417.974" />
    <polygon
       style="fill:#b8af82"
       id="polygon13"
       points="659.674,340.463 340.463,340.463 417.974,417.974 582.025,417.974 " />
    <polygon
       style="fill:#80795b"
       id="polygon15"
       points="659.674,659.674 582.025,582.025 582.025,417.974 659.674,340.463 " />
    <polygon
       style="fill:#5e5b43"
       id="polygon17"
       points="340.463,659.674 417.974,582.025 582.025,582.025 659.674,659.674 " />
    <polygon
       style="fill:#9a916c"
       id="polygon19"
       points="340.463,659.674 340.463,340.463 417.974,417.974 417.974,582.025 " />
    <polygon
       style="fill:#404040"
       id="polygon21"
       points="1217.11,1000 1782.75,1000 2000,782.747 2000,217.113 1782.75,0 1217.11,0 1217.11,0 1000,217.113 1000,782.747 " />
    <rect
       style="fill:none"
       height="387.69199"
       width="387.69199"
       y="306.15302"
       x="1306.15"
       id="connector1pin" />
    <rect
       style="fill:none"
       height="314.20999"
       width="300.59698"
       y="342.96399"
       x="1349.77"
       id="connector1terminal" />
    <rect
       style="fill:#8d8c8c"
       id="rect25"
       height="319.211"
       width="319.211"
       y="340.46301"
       x="1340.46" />
    <rect
       style="fill:#8c8663"
       id="rect27"
       height="164.189"
       width="164.189"
       y="417.974"
       x="1417.97" />
    <polygon
       style="fill:#b8af82"
       id="polygon29"
       points="1659.67,340.463 1340.46,340.463 1417.97,417.974 1582.03,417.974 " />
    <polygon
       style="fill:#80795b"
       id="polygon31"
       points="1659.67,659.674 1582.03,582.025 1582.03,417.974 1659.67,340.463 " />
    <polygon
       style="fill:#5e5b43"
       id="polygon33"
       points="1340.46,659.674 1417.97,582.025 1582.03,582.025 1659.67,659.674 " />
    <polygon
       style="fill:#9a916c"
       id="polygon35"
       points="1340.46,659.674 1340.46,340.463 1417.97,417.974 1417.97,582.025 " />
    <polygon
       style="fill:#404040"
       id="polygon37"
       points="2217.11,1000 2782.75,1000 3000,782.747 3000,217.113 2782.75,0 2217.11,0 2217.11,0 2000,217.113 2000,782.747 " />
    <rect
       style="fill:none"
       height="387.69199"
       width="387.69199"
       y="306.15302"
       x="2306.1499"
       id="connector2pin" />
    <rect
       style="fill:none"
       height="314.20999"
       width="300.59698"
       y="342.96399"
       x="2349.77"
       id="connector2terminal" />
    <rect
       style="fill:#8d8c8c"
       id="rect41"
       height="319.211"
       width="319.211"
       y="340.46301"
       x="2340.46" />
    <rect
       style="fill:#8c8663"
       id="rect43"
       height="164.189"
       width="164.189"
       y="417.974"
       x="2417.97" />
    <polygon
       style="fill:#b8af82"
       id="polygon45"
       points="2659.67,340.463 2340.46,340.463 2417.97,417.974 2582.03,417.974 " />
    <polygon
       style="fill:#80795b"
       id="polygon47"
       points="2659.67,659.674 2582.03,582.025 2582.03,417.974 2659.67,340.463 " />
    <polygon
       style="fill:#5e5b43"
       id="polygon49"
       points="2340.46,659.674 2417.97,582.025 2582.03,582.025 2659.67,659.674 " />
    <polygon
       style="fill:#9a916c"
       id="polygon51"
       points="2340.46,659.674 2340.46,340.463 2417.97,417.974 2417.97,582.025 " />
  </g>
  <text
     id="text4189"
     y="360.00815"
     x="217.69601"
     style="font-style:normal;font-weight:normal;font-size:347.222229px;line-height:125%;font-family:sans-serif;letter-spacing:0px;word-spacing:0px;fill:#8c3b00;fill-opacity:1;stroke:none;stroke-width:1px;stroke-linecap:butt;stroke-linejoin:miter;stroke-opacity:1;"
     xml:space="preserve"><tspan
       style="font-style:normal;font-variant:normal;font-weight:normal;font-stretch:normal;font-size:347.222229px;font-family:'Droid Sans';-inkscape-font-specification:'Droid Sans';fill:#8c3b00;fill-opacity:1;"
       y="360.00815"
       x="217.69601"
       id="tspan4191">gnd</tspan></text>
  <text
     id="text4193"
     y="360.00815"
     x="1202.9418"
     style="font-style:normal;font-weight:normal;font-size:347.222229px;line-height:125%;font-family:sans-serif;letter-spacing:0px;word-spacing:0px;fill:#cc1414;fill-opacity:1;stroke:none;stroke-width:1px;stroke-linecap:butt;stroke-linejoin:miter;stroke-opacity:1;"
     xml:space="preserve"><tspan
       y="360.00815"
       x="1202.9418"
       id="tspan4195">Vcc</tspan></text>
  <text
     id="text4193-5"
     y="360.00815"
     x="2033.7388"
     style="font-style:normal;font-weight:normal;font-size:347.222229px;line-height:125%;font-family:sans-serif;letter-spacing:0px;word-spacing:0px;fill:#ef6100;fill-opacity:1;stroke:none;stroke-width:1px;stroke-linecap:butt;stroke-linejoin:miter;stroke-opacity:1;"
     xml:space="preserve"><tspan
       y="360.00815"
       x="2033.7388"
       id="tspan4195-6">pulse</tspan></text>
</svg>
