<?xml version="1.0" encoding="UTF-8" standalone="no"?>
<!-- Generator: Adobe Illustrator 20.0.0, SVG Export Plug-In . SVG Version: 6.00 Build 0)  -->

<svg
   xmlns:dc="http://purl.org/dc/elements/1.1/"
   xmlns:cc="http://creativecommons.org/ns#"
   xmlns:rdf="http://www.w3.org/1999/02/22-rdf-syntax-ns#"
   xmlns:svg="http://www.w3.org/2000/svg"
   xmlns="http://www.w3.org/2000/svg"
   xmlns:sodipodi="http://sodipodi.sourceforge.net/DTD/sodipodi-0.dtd"
   xmlns:inkscape="http://www.inkscape.org/namespaces/inkscape"
   version="1.2"
   id="Layer_1"
   x="0px"
   y="0px"
   width="2mm"
   height="2mm"
   viewBox="0 0 7.0866142 7.0866144"
   xml:space="preserve"
   inkscape:version="0.91 r13725"
   sodipodi:docname="dfn6_taos.svg"><metadata
     id="metadata17"><rdf:RDF><cc:Work
         rdf:about=""><dc:format>image/svg+xml</dc:format><dc:type
           rdf:resource="http://purl.org/dc/dcmitype/StillImage" /><dc:title /></cc:Work></rdf:RDF></metadata><defs
     id="defs15" /><sodipodi:namedview
     pagecolor="#ffffff"
     bordercolor="#666666"
     borderopacity="1"
     objecttolerance="10"
     gridtolerance="10"
     guidetolerance="10"
     inkscape:pageopacity="0"
     inkscape:pageshadow="2"
     inkscape:window-width="1522"
     inkscape:window-height="887"
     id="namedview13"
     showgrid="false"
     inkscape:zoom="28.284271"
     inkscape:cx="-6.1119625"
     inkscape:cy="7.0169824"
     inkscape:window-x="274"
     inkscape:window-y="38"
     inkscape:window-maximized="0"
     inkscape:current-layer="Layer_1"
     inkscape:document-units="mm"
     units="mm" /><rect
     style="fill:#d4aa00;fill-opacity:1;stroke-width:0;stroke-miterlimit:4;stroke-dasharray:none;opacity:0.699"
     id="rect4978"
     width="7.0866146"
     height="7.0866146"
     x="-2.3841858e-007"
     y="1.9344198e-010" /><path
     style="fill:#b3b3b3;fill-opacity:1;fill-rule:evenodd;stroke:#000000;stroke-width:0;stroke-linecap:butt;stroke-linejoin:miter;stroke-miterlimit:4;stroke-dasharray:none;stroke-opacity:1"
     d="m 0.00390601,6.219427 0,-0.9804688 0.48828128,0 0,-0.1757813 2.69531271,0 0,1.3515626 -2.69921896,0 0,-0.1953125 z"
     id="path4904"
     inkscape:connector-curvature="0" /><path
     style="fill:#b3b3b3;fill-opacity:1;fill-rule:evenodd;stroke:#000000;stroke-width:0;stroke-linecap:butt;stroke-linejoin:miter;stroke-miterlimit:4;stroke-dasharray:none;stroke-opacity:1"
     d="m -8.0700557e-4,4.0757435 0,-0.9804689 0.48828130557,0 0,-0.1757813 2.6953129,0 0,1.3515627 -2.69921915,0 0,-0.1953125 z"
     id="path4904-1"
     inkscape:connector-curvature="0" /><path
     style="fill:#b3b3b3;fill-opacity:1;fill-rule:evenodd;stroke:#000000;stroke-width:0;stroke-linecap:butt;stroke-linejoin:miter;stroke-miterlimit:4;stroke-dasharray:none;stroke-opacity:1"
     d="m 7.0608263,6.2191611 0,-0.980469 -0.4882813,0 0,-0.1757813 -2.6953131,0 0,1.3515628 2.6992194,0 0,-0.1953125 z"
     id="path4904-1-6"
     inkscape:connector-curvature="0" /><path
     style="fill:#b3b3b3;fill-opacity:1;fill-rule:evenodd;stroke:#000000;stroke-width:0;stroke-linecap:butt;stroke-linejoin:miter;stroke-miterlimit:4;stroke-dasharray:none;stroke-opacity:1"
     d="m 7.0608264,4.0646951 0,-0.9804691 -0.4882814,0 0,-0.1757813 -2.6953132,0 0,1.3515629 2.6992195,0 0,-0.1953125 z"
     id="path4904-1-6-7"
     inkscape:connector-curvature="0" /><path
     style="fill:#b3b3b3;fill-opacity:1;fill-rule:evenodd;stroke:#000000;stroke-width:0;stroke-linecap:butt;stroke-linejoin:miter;stroke-miterlimit:4;stroke-dasharray:none;stroke-opacity:1"
     d="m 7.0497779,1.910229 0,-0.98046914 -0.4882814,0 0,-0.17578127 -2.6953133,0 0,1.35156291 2.6992196,0 0,-0.1953125 z"
     id="path4904-1-6-77"
     inkscape:connector-curvature="0" /><path
     style="fill:#b3b3b3;fill-opacity:1;fill-rule:evenodd;stroke:#000000;stroke-width:0;stroke-linecap:butt;stroke-linejoin:miter;stroke-miterlimit:4;stroke-dasharray:none;stroke-opacity:1"
     d="m 0.03454829,1.9102288 0,-0.98046895 0.4882813,0 0,-0.1757813 2.69531311,0 0,1.35156275 -2.69921931,0 0,-0.1953125 z"
     id="path4904-1-8"
     inkscape:connector-curvature="0" /><path
     inkscape:connector-curvature="0"
     id="path3791"
     style="fill:#9e5500;fill-opacity:1;stroke:#000000;stroke-width:0.03413454;stroke-linecap:round;stroke-linejoin:round;stroke-miterlimit:10;stroke-dasharray:none;stroke-opacity:1"
     d="m 5.4143982,0.71888292 -3.7839254,0 0,5.89108108 3.7839254,0 0,-5.89108108 z" /><path
     d="m 2.7978419,2.8866203 1.5849582,0 0,-1.7733501 -1.5849582,0 0,1.7733501 z"
     style="fill:#d4aa00;fill-opacity:1;fill-rule:nonzero;stroke:none"
     id="path3793"
     inkscape:connector-curvature="0" /></svg>