<?xml version="1.0" encoding="UTF-8" standalone="no"?>
<!-- Created with Fritzing (http://www.fritzing.org/) -->

<svg
   xmlns:dc="http://purl.org/dc/elements/1.1/"
   xmlns:cc="http://creativecommons.org/ns#"
   xmlns:rdf="http://www.w3.org/1999/02/22-rdf-syntax-ns#"
   xmlns:svg="http://www.w3.org/2000/svg"
   xmlns="http://www.w3.org/2000/svg"
   xmlns:sodipodi="http://sodipodi.sourceforge.net/DTD/sodipodi-0.dtd"
   xmlns:inkscape="http://www.inkscape.org/namespaces/inkscape"
   width="1.4in"
   x="0in"
   version="1.2"
   y="0in"
   height="0.33in"
   viewBox="0 0 1400 330"
   id="svg2"
   inkscape:version="0.91 r13725"
   sodipodi:docname="dil28-3-round.svg">
  <metadata
     id="metadata133">
    <rdf:RDF>
      <cc:Work
         rdf:about="">
        <dc:format>image/svg+xml</dc:format>
        <dc:type
           rdf:resource="http://purl.org/dc/dcmitype/StillImage" />
        <dc:title></dc:title>
      </cc:Work>
    </rdf:RDF>
  </metadata>
  <defs
     id="defs131" />
  <sodipodi:namedview
     pagecolor="#ffffff"
     bordercolor="#666666"
     borderopacity="1"
     objecttolerance="10"
     gridtolerance="10"
     guidetolerance="10"
     inkscape:pageopacity="0"
     inkscape:pageshadow="2"
     inkscape:window-width="1223"
     inkscape:window-height="611"
     id="namedview129"
     showgrid="false"
     inkscape:zoom="2.5476191"
     inkscape:cx="62.999999"
     inkscape:cy="14.850001"
     inkscape:window-x="5"
     inkscape:window-y="0"
     inkscape:window-maximized="0"
     inkscape:current-layer="svg2" />
  <g
     id="g8288">
    <rect
       width="1400"
       x="0"
       y="30"
       height="270"
       id="middle"
       style="fill:#303030;stroke-width:0" />
    <rect
       width="1400"
       x="0"
       y="30"
       height="24.6"
       id="top"
       style="fill:#3d3d3d;stroke-width:0" />
    <rect
       width="1400"
       x="0"
       y="275.39999"
       height="24.6"
       id="bottom"
       style="fill:#000000;stroke-width:0" />
    <polygon
       points="1392.5,275.4 1400,300 1400,30 1392.5,54.6 "
       id="right"
       style="fill:#141414;stroke-width:0" />
    <polygon
       points="7.5,275.4 0,300 0,30 7.5,54.6 "
       id="left"
       style="fill:#1f1f1f;stroke-width:0" />
    <polygon
       points="5.6,135.8 5.6,165 50,165 50,115 7.5,114.6 "
       id="left-upper-rect"
       style="fill:#1c1c1c;stroke-width:0" />
    <polygon
       points="50,165 5.6,165 5.6,194.2 7.5,215.5 50,215.5 "
       id="left-lower-rect"
       style="fill:#383838;stroke-width:0" />
    <path
       id="slot"
       d="m 5.6,135.8 0,58.3 c 14.7,-1.7 26.2,-14 26.2,-29.2 0,-15.2 -11.4,-27.4 -26.2,-29.1 z"
       inkscape:connector-curvature="0"
       style="fill:#262626;stroke-width:0" />
    <path
       id="cover"
       d="m 7.5,54.6 0,59.9 c 23.8,4.5 41.9,25.3 41.9,50.4 0,25.1 -18,46 -41.9,50.5 l 0,0.1 50,0 0,-160.9 -50,0 z"
       inkscape:connector-curvature="0"
       style="fill:#303030;stroke-width:0" />
    <circle
       cx="65"
       cy="234.7"
       r="20.6"
       id="circle14"
       style="fill:#212121;stroke-width:0" />
    <rect
       width="30"
       x="35"
       y="286.60001"
       height="43.400002"
       id="connector0pin"
       style="fill:#8c8c8c;stroke-width:0" />
    <rect
       width="30"
       x="35"
       y="300"
       height="30"
       id="connector0terminal"
       style="fill:#8c8c8c;stroke-width:0" />
    <polygon
       points="65,306.6 85,297.4 85,286.6 35,286.6 35,306.6 "
       id="polygon19"
       style="fill:#8c8c8c;stroke-width:0" />
    <rect
       width="30"
       x="35"
       y="0"
       height="43.400002"
       id="connector27pin"
       style="fill:#8c8c8c;stroke-width:0" />
    <rect
       width="30"
       x="35"
       y="0"
       height="30"
       id="connector27terminal"
       style="fill:#8c8c8c;stroke-width:0" />
    <polygon
       points="65,23.4 35,23.4 35,43.4 85,43.4 85,32.6 "
       id="polygon23"
       style="fill:#8c8c8c;stroke-width:0" />
    <rect
       width="30"
       x="1335"
       y="286.60001"
       height="43.400002"
       id="connector13pin"
       style="fill:#8c8c8c;stroke-width:0" />
    <rect
       width="30"
       x="1335"
       y="300"
       height="30"
       id="connector13terminal"
       style="fill:#8c8c8c;stroke-width:0" />
    <polygon
       points="1335,306.6 1365,306.6 1365,286.6 1315,286.6 1315,297.4 "
       id="polygon27"
       style="fill:#8c8c8c;stroke-width:0" />
    <rect
       width="30"
       x="1335"
       y="0"
       height="43.400002"
       id="connector14pin"
       style="fill:#8c8c8c;stroke-width:0" />
    <rect
       width="30"
       x="1335"
       y="0"
       height="30"
       id="connector14terminal"
       style="fill:#8c8c8c;stroke-width:0" />
    <polygon
       points="1335,23.4 1315,32.6 1315,43.4 1365,43.4 1365,23.4 "
       id="polygon31"
       style="fill:#8c8c8c;stroke-width:0" />
    <rect
       width="30"
       x="135"
       y="0"
       height="43.400002"
       id="connector26pin"
       style="fill:#8c8c8c;stroke-width:0" />
    <rect
       width="30"
       x="135"
       y="0"
       height="30"
       id="connector26terminal"
       style="fill:#8c8c8c;stroke-width:0" />
    <polygon
       points="165,23.4 135,23.4 115,32.6 115,43.4 185,43.4 185,32.6 "
       id="polygon35"
       style="fill:#8c8c8c;stroke-width:0" />
    <rect
       width="30"
       x="235"
       y="0"
       height="43.400002"
       id="connector25pin"
       style="fill:#8c8c8c;stroke-width:0" />
    <rect
       width="30"
       x="235"
       y="0"
       height="30"
       id="connector25terminal"
       style="fill:#8c8c8c;stroke-width:0" />
    <polygon
       points="265,23.4 235,23.4 215,32.6 215,43.4 285,43.4 285,32.6 "
       id="polygon39"
       style="fill:#8c8c8c;stroke-width:0" />
    <rect
       width="30"
       x="335"
       y="0"
       height="43.400002"
       id="connector24pin"
       style="fill:#8c8c8c;stroke-width:0" />
    <rect
       width="30"
       x="335"
       y="0"
       height="30"
       id="connector24terminal"
       style="fill:#8c8c8c;stroke-width:0" />
    <polygon
       points="365,23.4 335,23.4 315,32.6 315,43.4 385,43.4 385,32.6 "
       id="polygon43"
       style="fill:#8c8c8c;stroke-width:0" />
    <rect
       width="30"
       x="435"
       y="0"
       height="43.400002"
       id="connector23pin"
       style="fill:#8c8c8c;stroke-width:0" />
    <rect
       width="30"
       x="435"
       y="0"
       height="30"
       id="connector23terminal"
       style="fill:#8c8c8c;stroke-width:0" />
    <polygon
       points="465,23.4 435,23.4 415,32.6 415,43.4 485,43.4 485,32.6 "
       id="polygon47"
       style="fill:#8c8c8c;stroke-width:0" />
    <rect
       width="30"
       x="535"
       y="0"
       height="43.400002"
       id="connector22pin"
       style="fill:#8c8c8c;stroke-width:0" />
    <rect
       width="30"
       x="535"
       y="0"
       height="30"
       id="connector22terminal"
       style="fill:#8c8c8c;stroke-width:0" />
    <polygon
       points="565,23.4 535,23.4 515,32.6 515,43.4 585,43.4 585,32.6 "
       id="polygon51"
       style="fill:#8c8c8c;stroke-width:0" />
    <rect
       width="30"
       x="635"
       y="0"
       height="43.400002"
       id="connector21pin"
       style="fill:#8c8c8c;stroke-width:0" />
    <rect
       width="30"
       x="635"
       y="0"
       height="30"
       id="connector21terminal"
       style="fill:#8c8c8c;stroke-width:0" />
    <polygon
       points="665,23.4 635,23.4 615,32.6 615,43.4 685,43.4 685,32.6 "
       id="polygon55"
       style="fill:#8c8c8c;stroke-width:0" />
    <rect
       width="30"
       x="735"
       y="0"
       height="43.400002"
       id="connector20pin"
       style="fill:#8c8c8c;stroke-width:0" />
    <rect
       width="30"
       x="735"
       y="0"
       height="30"
       id="connector20terminal"
       style="fill:#8c8c8c;stroke-width:0" />
    <polygon
       points="765,23.4 735,23.4 715,32.6 715,43.4 785,43.4 785,32.6 "
       id="polygon59"
       style="fill:#8c8c8c;stroke-width:0" />
    <rect
       width="30"
       x="835"
       y="0"
       height="43.400002"
       id="connector19pin"
       style="fill:#8c8c8c;stroke-width:0" />
    <rect
       width="30"
       x="835"
       y="0"
       height="30"
       id="connector19terminal"
       style="fill:#8c8c8c;stroke-width:0" />
    <polygon
       points="865,23.4 835,23.4 815,32.6 815,43.4 885,43.4 885,32.6 "
       id="polygon63"
       style="fill:#8c8c8c;stroke-width:0" />
    <rect
       width="30"
       x="935"
       y="0"
       height="43.400002"
       id="connector18pin"
       style="fill:#8c8c8c;stroke-width:0" />
    <rect
       width="30"
       x="935"
       y="0"
       height="30"
       id="connector18terminal"
       style="fill:#8c8c8c;stroke-width:0" />
    <polygon
       points="965,23.4 935,23.4 915,32.6 915,43.4 985,43.4 985,32.6 "
       id="polygon67"
       style="fill:#8c8c8c;stroke-width:0" />
    <rect
       width="30"
       x="1035"
       y="0"
       height="43.400002"
       id="connector17pin"
       style="fill:#8c8c8c;stroke-width:0" />
    <rect
       width="30"
       x="1035"
       y="0"
       height="30"
       id="connector17terminal"
       style="fill:#8c8c8c;stroke-width:0" />
    <polygon
       points="1065,23.4 1035,23.4 1015,32.6 1015,43.4 1085,43.4 1085,32.6 "
       id="polygon71"
       style="fill:#8c8c8c;stroke-width:0" />
    <rect
       width="30"
       x="1135"
       y="0"
       height="43.400002"
       id="connector16pin"
       style="fill:#8c8c8c;stroke-width:0" />
    <rect
       width="30"
       x="1135"
       y="0"
       height="30"
       id="connector16terminal"
       style="fill:#8c8c8c;stroke-width:0" />
    <polygon
       points="1165,23.4 1135,23.4 1115,32.6 1115,43.4 1185,43.4 1185,32.6 "
       id="polygon75"
       style="fill:#8c8c8c;stroke-width:0" />
    <rect
       width="30"
       x="1235"
       y="0"
       height="43.400002"
       id="connector15pin"
       style="fill:#8c8c8c;stroke-width:0" />
    <rect
       width="30"
       x="1235"
       y="0"
       height="30"
       id="connector15terminal"
       style="fill:#8c8c8c;stroke-width:0" />
    <polygon
       points="1265,23.4 1235,23.4 1215,32.6 1215,43.4 1285,43.4 1285,32.6 "
       id="polygon79"
       style="fill:#8c8c8c;stroke-width:0" />
    <rect
       width="30"
       x="135"
       y="286.60001"
       height="43.400002"
       id="connector1pin"
       style="fill:#8c8c8c;stroke-width:0" />
    <rect
       width="30"
       x="135"
       y="300"
       height="30"
       id="connector1terminal"
       style="fill:#8c8c8c;stroke-width:0" />
    <polygon
       points="135,306.6 165,306.6 185,297.4 185,286.6 115,286.6 115,297.4 "
       id="polygon83"
       style="fill:#8c8c8c;stroke-width:0" />
    <rect
       width="30"
       x="235"
       y="286.60001"
       height="43.400002"
       id="connector2pin"
       style="fill:#8c8c8c;stroke-width:0" />
    <rect
       width="30"
       x="235"
       y="300"
       height="30"
       id="connector2terminal"
       style="fill:#8c8c8c;stroke-width:0" />
    <polygon
       points="235,306.6 265,306.6 285,297.4 285,286.6 215,286.6 215,297.4 "
       id="polygon87"
       style="fill:#8c8c8c;stroke-width:0" />
    <rect
       width="30"
       x="335"
       y="286.60001"
       height="43.400002"
       id="connector3pin"
       style="fill:#8c8c8c;stroke-width:0" />
    <rect
       width="30"
       x="335"
       y="300"
       height="30"
       id="connector3terminal"
       style="fill:#8c8c8c;stroke-width:0" />
    <polygon
       points="335,306.6 365,306.6 385,297.4 385,286.6 315,286.6 315,297.4 "
       id="polygon91"
       style="fill:#8c8c8c;stroke-width:0" />
    <rect
       width="30"
       x="435"
       y="286.60001"
       height="43.400002"
       id="connector4pin"
       style="fill:#8c8c8c;stroke-width:0" />
    <rect
       width="30"
       x="435"
       y="300"
       height="30"
       id="connector4terminal"
       style="fill:#8c8c8c;stroke-width:0" />
    <polygon
       points="435,306.6 465,306.6 485,297.4 485,286.6 415,286.6 415,297.4 "
       id="polygon95"
       style="fill:#8c8c8c;stroke-width:0" />
    <rect
       width="30"
       x="535"
       y="286.60001"
       height="43.400002"
       id="connector5pin"
       style="fill:#8c8c8c;stroke-width:0" />
    <rect
       width="30"
       x="535"
       y="300"
       height="30"
       id="connector5terminal"
       style="fill:#8c8c8c;stroke-width:0" />
    <polygon
       points="535,306.6 565,306.6 585,297.4 585,286.6 515,286.6 515,297.4 "
       id="polygon99"
       style="fill:#8c8c8c;stroke-width:0" />
    <rect
       width="30"
       x="635"
       y="286.60001"
       height="43.400002"
       id="connector6pin"
       style="fill:#8c8c8c;stroke-width:0" />
    <rect
       width="30"
       x="635"
       y="300"
       height="30"
       id="connector6terminal"
       style="fill:#8c8c8c;stroke-width:0" />
    <polygon
       points="635,306.6 665,306.6 685,297.4 685,286.6 615,286.6 615,297.4 "
       id="polygon103"
       style="fill:#8c8c8c;stroke-width:0" />
    <rect
       width="30"
       x="735"
       y="286.60001"
       height="43.400002"
       id="connector7pin"
       style="fill:#8c8c8c;stroke-width:0" />
    <rect
       width="30"
       x="735"
       y="300"
       height="30"
       id="connector7terminal"
       style="fill:#8c8c8c;stroke-width:0" />
    <polygon
       points="735,306.6 765,306.6 785,297.4 785,286.6 715,286.6 715,297.4 "
       id="polygon107"
       style="fill:#8c8c8c;stroke-width:0" />
    <rect
       width="30"
       x="835"
       y="286.60001"
       height="43.400002"
       id="connector8pin"
       style="fill:#8c8c8c;stroke-width:0" />
    <rect
       width="30"
       x="835"
       y="300"
       height="30"
       id="connector8terminal"
       style="fill:#8c8c8c;stroke-width:0" />
    <polygon
       points="835,306.6 865,306.6 885,297.4 885,286.6 815,286.6 815,297.4 "
       id="polygon111"
       style="fill:#8c8c8c;stroke-width:0" />
    <rect
       width="30"
       x="935"
       y="286.60001"
       height="43.400002"
       id="connector9pin"
       style="fill:#8c8c8c;stroke-width:0" />
    <rect
       width="30"
       x="935"
       y="300"
       height="30"
       id="connector9terminal"
       style="fill:#8c8c8c;stroke-width:0" />
    <polygon
       points="935,306.6 965,306.6 985,297.4 985,286.6 915,286.6 915,297.4 "
       id="polygon115"
       style="fill:#8c8c8c;stroke-width:0" />
    <rect
       width="30"
       x="1035"
       y="286.60001"
       height="43.400002"
       id="connector10pin"
       style="fill:#8c8c8c;stroke-width:0" />
    <rect
       width="30"
       x="1035"
       y="300"
       height="30"
       id="connector10terminal"
       style="fill:#8c8c8c;stroke-width:0" />
    <polygon
       points="1035,306.6 1065,306.6 1085,297.4 1085,286.6 1015,286.6 1015,297.4 "
       id="polygon119"
       style="fill:#8c8c8c;stroke-width:0" />
    <rect
       width="30"
       x="1135"
       y="286.60001"
       height="43.400002"
       id="connector11pin"
       style="fill:#8c8c8c;stroke-width:0" />
    <rect
       width="30"
       x="1135"
       y="300"
       height="30"
       id="connector11terminal"
       style="fill:#8c8c8c;stroke-width:0" />
    <polygon
       points="1135,306.6 1165,306.6 1185,297.4 1185,286.6 1115,286.6 1115,297.4 "
       id="polygon123"
       style="fill:#8c8c8c;stroke-width:0" />
    <rect
       width="30"
       x="1235"
       y="286.60001"
       height="43.400002"
       id="connector12pin"
       style="fill:#8c8c8c;stroke-width:0" />
    <rect
       width="30"
       x="1235"
       y="300"
       height="30"
       id="connector12terminal"
       style="fill:#8c8c8c;stroke-width:0" />
    <polygon
       points="1235,306.6 1265,306.6 1285,297.4 1285,286.6 1215,286.6 1215,297.4 "
       id="polygon127"
       style="fill:#8c8c8c;stroke-width:0" />
  </g>
</svg>
