<?xml version="1.0" encoding="UTF-8" standalone="no"?>
<!-- Generator: Adobe Illustrator 20.0.0, SVG Export Plug-In . SVG Version: 6.00 Build 0)  -->

<svg
   xmlns:dc="http://purl.org/dc/elements/1.1/"
   xmlns:cc="http://creativecommons.org/ns#"
   xmlns:rdf="http://www.w3.org/1999/02/22-rdf-syntax-ns#"
   xmlns:svg="http://www.w3.org/2000/svg"
   xmlns="http://www.w3.org/2000/svg"
   xmlns:sodipodi="http://sodipodi.sourceforge.net/DTD/sodipodi-0.dtd"
   xmlns:inkscape="http://www.inkscape.org/namespaces/inkscape"
   version="1.2"
   id="Layer_1"
   x="0px"
   y="0px"
   width="7.7474036mm"
   height="10.054mm"
   viewBox="0 0 27.45143 35.624408"
   xml:space="preserve"
   inkscape:version="0.92.2 (5c3e80d, 2017-08-06)"
   sodipodi:docname="dipswitch_3pin_y.svg"><metadata
     id="metadata19"><rdf:RDF><cc:Work
         rdf:about=""><dc:format>image/svg+xml</dc:format><dc:type
           rdf:resource="http://purl.org/dc/dcmitype/StillImage" /><dc:title></dc:title></cc:Work></rdf:RDF></metadata><defs
     id="defs17"><pattern
       y="0"
       x="0"
       height="6"
       width="6"
       patternUnits="userSpaceOnUse"
       id="EMFhbasepattern" /><pattern
       y="0"
       x="0"
       height="6"
       width="6"
       patternUnits="userSpaceOnUse"
       id="EMFhbasepattern-1" /></defs><sodipodi:namedview
     pagecolor="#ffffff"
     bordercolor="#666666"
     borderopacity="1"
     objecttolerance="10"
     gridtolerance="10"
     guidetolerance="10"
     inkscape:pageopacity="0"
     inkscape:pageshadow="2"
     inkscape:window-width="2498"
     inkscape:window-height="1418"
     id="namedview15"
     showgrid="false"
     inkscape:zoom="25.206943"
     inkscape:cx="15.478023"
     inkscape:cy="17.29067"
     inkscape:window-x="54"
     inkscape:window-y="-8"
     inkscape:window-maximized="1"
     inkscape:current-layer="Layer_1"
     units="mm"
     inkscape:document-units="mm"
     fit-margin-top="0"
     fit-margin-left="0"
     fit-margin-right="0"
     fit-margin-bottom="0"
     showguides="false" /><g
     id="g2155"><g
       transform="translate(25.171429,1.6174655)"
       id="g1967"><g
         id="g1777"><rect
           style="opacity:1;fill:#e6e6e6;fill-opacity:1;stroke:none;stroke-width:4.48660755;stroke-linecap:butt;stroke-linejoin:miter;stroke-miterlimit:10;stroke-dasharray:none;stroke-opacity:1"
           x="-21.909687"
           height="35.624409"
           y="-1.6174655"
           id="rect4863"
           width="3.2399998" /><rect
           style="opacity:1;fill:#e6e6e6;fill-opacity:1;stroke:none;stroke-width:4.48660755;stroke-linecap:butt;stroke-linejoin:miter;stroke-miterlimit:10;stroke-dasharray:none;stroke-opacity:1"
           x="-13.014612"
           height="35.624409"
           y="-1.6174655"
           id="rect4863-8"
           width="3.2399998" /><rect
           style="opacity:1;fill:#e6e6e6;fill-opacity:1;stroke:none;stroke-width:4.48660755;stroke-linecap:butt;stroke-linejoin:miter;stroke-miterlimit:10;stroke-dasharray:none;stroke-opacity:1"
           x="-3.8020134"
           height="35.624409"
           y="-1.6174655"
           id="rect4863-3"
           width="3.2399998" /><rect
           width="4.6032743"
           id="rect3115"
           y="2.2305655"
           height="27.928347"
           x="-22.591324"
           style="opacity:1;fill:#e6e6e6;fill-opacity:1;stroke:none;stroke-width:4.73508644;stroke-linecap:butt;stroke-linejoin:miter;stroke-miterlimit:10;stroke-dasharray:none;stroke-opacity:1" /><rect
           width="4.6032743"
           id="rect3117"
           y="2.2305655"
           height="27.928347"
           x="-13.696249"
           style="opacity:1;fill:#e6e6e6;fill-opacity:1;stroke:none;stroke-width:4.73508596;stroke-linecap:butt;stroke-linejoin:miter;stroke-miterlimit:10;stroke-dasharray:none;stroke-opacity:1" /><rect
           width="4.6032743"
           id="rect3119"
           y="2.2305655"
           height="27.928347"
           x="-4.4836483"
           style="opacity:1;fill:#e6e6e6;fill-opacity:1;stroke:none;stroke-width:4.73508596;stroke-linecap:butt;stroke-linejoin:miter;stroke-miterlimit:10;stroke-dasharray:none;stroke-opacity:1" /></g><rect
         x="-25.171429"
         height="21.968489"
         y="5.2104945"
         id="rect45"
         width="27.451429"
         style="fill:#4d4d4d;stroke-width:1.39734375" /><rect
         x="-22.323475"
         height="10.888019"
         y="10.751246"
         id="rect51"
         width="4.3627958"
         style="fill:#ffdd55;stroke-width:1.17732215" /><rect
         style="fill:#cccccc;stroke-width:1.26116538"
         width="2.1813972"
         id="rect57"
         y="12.058571"
         height="8.820653"
         x="-21.232786" /><rect
         width="0.17067412"
         id="rect63"
         enable-background="new    "
         y="12.058571"
         height="8.820653"
         x="-21.40346"
         style="opacity:0.2;fill:#ffffff;stroke-width:1.26116538" /><rect
         style="fill:#b3b3b3;stroke-width:1.26116538"
         width="2.1813972"
         id="rect69"
         y="12.058571"
         height="0.22275904"
         x="-21.232786" /><rect
         x="-22.323475"
         height="0.71968335"
         y="10.751246"
         id="rect77"
         width="4.3627958"
         style="fill:#4d4d4d;stroke-width:1.17732215" /><g
         id="g89"
         transform="matrix(1.2623826,0,0,1.2599493,-26.249999,5.2104945)"><rect
           x="3.6863999"
           height="3.7832"
           y="4.5440001"
           id="rect91"
           width="2.3039999"
           style="fill:#b3b3b3" /><rect
           x="3.6863999"
           height="0.90239799"
           y="4.5440001"
           id="rect93"
           width="2.3039999"
           style="fill:#f2f2f2" /><rect
           x="3.6863999"
           height="1.2192"
           y="5.6664"
           id="rect95"
           width="2.3039999"
           style="fill:#f2f2f2" /><rect
           style="opacity:0.2"
           x="5.8351998"
           height="1.2768"
           y="7.0503998"
           enable-background="new    "
           id="rect97"
           width="0.1552" /><rect
           style="opacity:0.2"
           x="4.5591998"
           height="0.15440001"
           y="8.1704197"
           enable-background="new    "
           id="rect99"
           width="1.276" /><g
           id="g101"><g
             id="g103"><rect
               style="opacity:0.11000001"
               x="5.8383999"
               height="1.0648"
               y="5.8216"
               enable-background="new    "
               id="rect105"
               width="0.1552" /><rect
               style="opacity:0.11000001"
               x="4.5632"
               height="0.1552"
               y="6.7296"
               enable-background="new    "
               id="rect107"
               width="1.2752" /></g><rect
             x="3.6831999"
             height="1.064"
             y="5.6664"
             id="rect109"
             width="0.1552"
             style="fill:#ffffff" /><rect
             x="3.8392"
             height="0.1552"
             y="5.6655998"
             id="rect111"
             width="1.2752"
             style="fill:#ffffff" /></g><g
           id="g113"><g
             id="g115"><rect
               style="opacity:0.11000001"
               x="5.8383999"
               height="0.91439998"
               y="4.5328002"
               enable-background="new    "
               id="rect117"
               width="0.1552" /><rect
               style="opacity:0.11000001"
               x="4.5632"
               height="0.15440001"
               y="5.2904"
               enable-background="new    "
               id="rect119"
               width="1.2752" /></g><rect
             x="3.6831999"
             height="0.88400197"
             y="4.5440001"
             id="rect121"
             width="0.1552"
             style="fill:#ffffff" /><rect
             x="3.8392"
             height="0.15360001"
             y="4.5832"
             id="rect123"
             width="1.2752"
             style="fill:#ffffff" /></g></g><rect
         style="opacity:0.2;fill:#ffffff;stroke-width:1.17732215"
         x="-22.523449"
         y="10.751246"
         height="10.888019"
         enable-background="new    "
         width="0.19996153"
         id="rect127" /><rect
         x="-13.476982"
         height="10.888019"
         y="10.751246"
         id="rect49"
         width="4.3627958"
         style="fill:#ffdd55;fill-opacity:1;stroke-width:1.17732215" /><rect
         style="fill:#cccccc;stroke-width:1.26116538"
         width="2.1813972"
         id="rect55"
         y="12.058571"
         height="8.820653"
         x="-12.384369" /><g
         id="g1333"
         transform="translate(1.5760942)"><rect
           style="opacity:0.2;fill:#ffffff;stroke-width:1.26116538"
           x="-14.135153"
           height="8.820653"
           y="12.058571"
           enable-background="new    "
           id="rect61"
           width="0.17572366" /><rect
           x="-13.960464"
           height="0.22275904"
           y="12.058571"
           id="rect67"
           width="2.1813972"
           style="fill:#b3b3b3;stroke-width:1.26116538" /></g><rect
         x="-12.748898"
         height="4.7666349"
         y="16.145844"
         id="rect71"
         width="2.9085345"
         style="fill:#b3b3b3;stroke-width:1.17732215" /><rect
         x="-12.748898"
         height="1.136978"
         y="16.145844"
         id="rect73"
         width="2.9085345"
         style="fill:#f2f2f2;stroke-width:1.17732215" /><rect
         x="-12.748898"
         height="1.5361241"
         y="17.560993"
         id="rect75"
         width="2.9085345"
         style="fill:#f2f2f2;stroke-width:1.17732215" /><rect
         x="-13.474986"
         height="0.71968335"
         y="10.751246"
         id="rect79"
         width="4.3627958"
         style="fill:#4d4d4d;stroke-width:1.17732215" /><rect
         style="opacity:0.2;fill:#ffffff;stroke-width:1.17732215"
         x="-13.677032"
         y="10.751246"
         height="10.888019"
         enable-background="new    "
         width="0.19996153"
         id="rect129" /><g
         id="g131"
         transform="matrix(1.2623826,0,0,1.2599493,-24.673905,5.2104945)"><rect
           style="opacity:0.2"
           x="11.5952"
           y="11.1856"
           height="1.2768"
           enable-background="new    "
           width="0.1552"
           id="rect133" /><rect
           style="opacity:0.2"
           x="10.32"
           y="12.3064"
           height="0.15440001"
           enable-background="new    "
           width="1.2752"
           id="rect135" /></g><g
         id="g137"
         transform="matrix(1.2623826,0,0,1.2599493,-24.673905,5.2104945)"><g
           id="g139"><rect
             style="opacity:0.11000001"
             x="11.5952"
             y="9.95681"
             height="1.0648"
             enable-background="new    "
             width="0.1552"
             id="rect141" /><rect
             style="opacity:0.11000001"
             x="10.32"
             y="10.8656"
             height="0.1552"
             enable-background="new    "
             width="1.2752"
             id="rect143" /></g><rect
           x="9.43999"
           y="9.8023701"
           height="1.064"
           width="0.15440001"
           id="rect145"
           style="fill:#ffffff" /><rect
           x="9.5968103"
           y="9.8015804"
           height="0.1552"
           width="1.2752"
           id="rect147"
           style="fill:#ffffff" /></g><g
         id="g149"
         transform="matrix(1.2623826,0,0,1.2599493,-24.673905,5.2104945)"><g
           id="g151"><rect
             style="opacity:0.11000001"
             x="11.5952"
             y="8.6688004"
             height="0.91439998"
             enable-background="new    "
             width="0.1552"
             id="rect153" /><rect
             style="opacity:0.11000001"
             x="10.32"
             y="9.4255896"
             height="0.15440001"
             enable-background="new    "
             width="1.2752"
             id="rect155" /></g><rect
           x="9.43999"
           y="8.6791697"
           height="0.88400197"
           width="0.15440001"
           id="rect157"
           style="fill:#ffffff" /><rect
           x="9.5968103"
           y="8.7184095"
           height="0.15360001"
           width="1.2752"
           id="rect159"
           style="fill:#ffffff" /></g><g
         id="g1243"
         transform="translate(9.0428188)"><rect
           style="fill:#333333;stroke-width:0.46295547"
           width="0.27000001"
           id="rect87"
           y="15.153045"
           height="5.9560342"
           x="-7.0328183" /><rect
           width="0.29186362"
           id="rect175"
           enable-background="new    "
           y="5.2104945"
           height="6.4630466"
           x="-7.0546818"
           style="opacity:0.2;stroke-width:1.17732215" /><rect
           width="0.29186362"
           id="rect177"
           enable-background="new    "
           y="11.673533"
           height="3.4794731"
           x="-7.0546818"
           style="opacity:0.2;stroke-width:1.17732215" /><rect
           width="0.29186362"
           id="rect179"
           enable-background="new    "
           y="21.884466"
           height="5.1032972"
           x="-7.0546818"
           style="opacity:0.2;stroke-width:1.17732215" /><rect
           width="14.098291"
           id="rect181"
           enable-background="new    "
           y="26.697462"
           height="0.28928357"
           x="-21.152996"
           style="opacity:0.2;stroke-width:1.17732215" /><rect
           width="0.29186362"
           id="rect183"
           enable-background="new    "
           y="22.075716"
           height="5.1032972"
           x="-7.0546818"
           style="opacity:0.2;stroke-width:1.17732215" /><rect
           width="8.915431"
           id="rect185"
           enable-background="new    "
           y="26.887714"
           height="0.29129985"
           x="-15.970157"
           style="opacity:0.2;stroke-width:1.17732215" /></g><g
         id="g1251"
         transform="translate(1.0785713)"><rect
           style="fill:#4d4d4d;stroke-width:1.17732215"
           width="1.7451183"
           id="rect81"
           y="11.673533"
           height="9.4355068"
           x="-26.25" /><rect
           style="fill:#333333;stroke-width:0.46308932"
           width="0.27000001"
           id="rect83"
           y="15.153045"
           height="5.9560342"
           x="-26.25" /><rect
           width="0.29085344"
           id="rect171"
           enable-background="new    "
           y="21.109091"
           height="6.0689344"
           x="-26.25"
           style="opacity:0.2;fill:#ffffff;stroke-width:1.17732215" /><rect
           width="0.29085344"
           id="rect187"
           enable-background="new    "
           y="5.2115026"
           height="5.1032972"
           x="-26.25"
           style="opacity:0.2;fill:#ffffff;stroke-width:1.17732215" /><rect
           width="8.9164619"
           id="rect189"
           enable-background="new    "
           y="5.2115026"
           height="0.29029235"
           x="-25.959146"
           style="opacity:0.2;fill:#ffffff;stroke-width:1.17732215" /><rect
           width="0.29085344"
           id="rect191"
           enable-background="new    "
           y="11.673533"
           height="3.4794731"
           x="-26.23687"
           style="opacity:0.2;stroke-width:1.17732215" /></g><rect
         style="fill:#ffdd55;fill-opacity:1;stroke-width:1.17732215"
         width="4.3627958"
         id="rect1362"
         y="10.751246"
         height="10.888019"
         x="-4.2643819" /><rect
         x="-3.1717687"
         height="8.820653"
         y="12.058571"
         id="rect1364"
         width="2.1813972"
         style="fill:#cccccc;stroke-width:1.26116538" /><g
         transform="translate(10.788695)"
         id="g1370"><rect
           width="0.17572366"
           id="rect1366"
           enable-background="new    "
           y="12.058571"
           height="8.820653"
           x="-14.135153"
           style="opacity:0.2;fill:#ffffff;stroke-width:1.26116538" /><rect
           style="fill:#b3b3b3;stroke-width:1.26116538"
           width="2.1813972"
           id="rect1368"
           y="12.058571"
           height="0.22275904"
           x="-13.960464" /></g><rect
         style="fill:#b3b3b3;stroke-width:1.17732215"
         width="2.9085345"
         id="rect1372"
         y="16.145844"
         height="4.7666349"
         x="-3.5362973" /><rect
         style="fill:#f2f2f2;stroke-width:1.17732215"
         width="2.9085345"
         id="rect1374"
         y="16.145844"
         height="1.136978"
         x="-3.5362973" /><rect
         style="fill:#f2f2f2;stroke-width:1.17732215"
         width="2.9085345"
         id="rect1376"
         y="17.560993"
         height="1.5361241"
         x="-3.5362973" /><rect
         style="fill:#4d4d4d;stroke-width:1.17732215"
         width="4.3627958"
         id="rect1378"
         y="10.751246"
         height="0.71968335"
         x="-4.2623858" /><rect
         id="rect1380"
         width="0.19996153"
         enable-background="new    "
         height="10.888019"
         y="10.751246"
         x="-4.4644322"
         style="opacity:0.2;fill:#ffffff;stroke-width:1.17732215" /><g
         transform="matrix(1.2623826,0,0,1.2599493,-15.461304,5.2104945)"
         id="g1386"><rect
           id="rect1382"
           width="0.1552"
           enable-background="new    "
           height="1.2768"
           y="11.1856"
           x="11.5952"
           style="opacity:0.2" /><rect
           id="rect1384"
           width="1.2752"
           enable-background="new    "
           height="0.15440001"
           y="12.3064"
           x="10.32"
           style="opacity:0.2" /></g><g
         transform="matrix(1.2623826,0,0,1.2599493,-15.461304,5.2104945)"
         id="g1398"><g
           id="g1392"><rect
             id="rect1388"
             width="0.1552"
             enable-background="new    "
             height="1.0648"
             y="9.95681"
             x="11.5952"
             style="opacity:0.11000001" /><rect
             id="rect1390"
             width="1.2752"
             enable-background="new    "
             height="0.1552"
             y="10.8656"
             x="10.32"
             style="opacity:0.11000001" /></g><rect
           style="fill:#ffffff"
           id="rect1394"
           width="0.15440001"
           height="1.064"
           y="9.8023701"
           x="9.43999" /><rect
           style="fill:#ffffff"
           id="rect1396"
           width="1.2752"
           height="0.1552"
           y="9.8015804"
           x="9.5968103" /></g><g
         transform="matrix(1.2623826,0,0,1.2599493,-15.461304,5.2104945)"
         id="g1410"><g
           id="g1404"><rect
             id="rect1400"
             width="0.1552"
             enable-background="new    "
             height="0.91439998"
             y="8.6688004"
             x="11.5952"
             style="opacity:0.11000001" /><rect
             id="rect1402"
             width="1.2752"
             enable-background="new    "
             height="0.15440001"
             y="9.4255896"
             x="10.32"
             style="opacity:0.11000001" /></g><rect
           style="fill:#ffffff"
           id="rect1406"
           width="0.15440001"
           height="0.88400197"
           y="8.6791697"
           x="9.43999" /><rect
           style="fill:#ffffff"
           id="rect1408"
           width="1.2752"
           height="0.15360001"
           y="8.7184095"
           x="9.5968103" /></g></g><g
       id="text1971"
       style="font-style:normal;font-weight:normal;font-size:3.125px;line-height:1.25;font-family:sans-serif;letter-spacing:0px;word-spacing:0px;fill:#ffdd55;fill-opacity:1;stroke:none;stroke-width:0.9375"
       aria-label="ON DIP"><g
         id="g2033"><path
           d="m 7.197979,7.7490444 q 0.2499389,0.2746582 0.3817749,0.6729126 0.1345825,0.3982544 0.1345825,0.9036255 0,0.5053711 -0.1373291,0.9063725 -0.1345825,0.398254 -0.3790283,0.664672 -0.2526856,0.277405 -0.5987549,0.417481 -0.3433228,0.140076 -0.7855225,0.140076 -0.4312133,0 -0.7855224,-0.142823 Q 4.6766167,11.168539 4.4294243,10.896627 4.1822319,10.624716 4.0476494,10.229208 3.9158134,9.8337002 3.9158134,9.3255825 q 0,-0.4998779 0.131836,-0.8953857 Q 4.1794853,8.0319424 4.4321709,7.7490444 4.6738701,7.4798794 5.0309258,7.3370571 5.390728,7.1942348 5.8137016,7.1942348 q 0.4394532,0 0.7882691,0.1455689 0.3515625,0.1428223 0.5960083,0.4092407 z m -0.049438,1.5765381 q 0,-0.7965088 -0.3570557,-1.2277222 -0.3570556,-0.4339599 -0.9750366,-0.4339599 -0.6234741,0 -0.9805298,0.4339599 -0.3543091,0.4312134 -0.3543091,1.2277222 0,0.8047485 0.3625489,1.2332155 0.3625488,0.42572 0.97229,0.42572 0.6097412,0 0.9695435,-0.42572 0.3625488,-0.428467 0.3625488,-1.2332155 z"
           style="font-style:normal;font-variant:normal;font-weight:normal;font-stretch:normal;font-size:5.625px;font-family:sans-serif;-inkscape-font-specification:'sans-serif, Normal';font-variant-ligatures:normal;font-variant-caps:normal;font-variant-numeric:normal;font-feature-settings:normal;text-align:start;writing-mode:lr-tb;text-anchor:start;fill:#ffdd55;fill-opacity:1;stroke-width:0.9375"
           id="path2017" /><path
           d="M 11.69688,11.36904 H 11.023968 L 9.0848808,7.7105923 V 11.36904 H 8.5767632 V 7.2793789 H 9.4199638 L 11.188763,10.619223 V 7.2793789 h 0.508117 z"
           style="font-style:normal;font-variant:normal;font-weight:normal;font-stretch:normal;font-size:5.625px;font-family:sans-serif;-inkscape-font-specification:'sans-serif, Normal';font-variant-ligatures:normal;font-variant-caps:normal;font-variant-numeric:normal;font-feature-settings:normal;text-align:start;writing-mode:lr-tb;text-anchor:start;fill:#ffdd55;fill-opacity:1;stroke-width:0.9375"
           id="path2019" /><path
           d="m 18.217266,9.3283291 q 0,0.5575561 -0.244446,1.0107419 -0.241699,0.453186 -0.645446,0.703125 -0.280152,0.173035 -0.626221,0.249939 -0.343323,0.07691 -0.906372,0.07691 H 14.762066 V 7.2793789 h 1.021728 q 0.598755,0 0.950318,0.087891 0.354309,0.085144 0.598755,0.2362061 0.41748,0.2609253 0.65094,0.6948852 0.233459,0.43396 0.233459,1.0299683 z m -0.568542,-0.00824 q 0,-0.4806518 -0.167542,-0.8102417 -0.167541,-0.3295898 -0.499878,-0.519104 -0.241699,-0.1373291 -0.513611,-0.1895141 -0.271911,-0.054932 -0.65094,-0.054932 h -0.510864 v 3.1558232 h 0.510864 q 0.392762,0 0.683899,-0.05768 0.293885,-0.05768 0.53833,-0.214233 0.304871,-0.195007 0.455933,-0.513611 0.153809,-0.3186034 0.153809,-0.7965087 z"
           style="font-style:normal;font-variant:normal;font-weight:normal;font-stretch:normal;font-size:5.625px;font-family:sans-serif;-inkscape-font-specification:'sans-serif, Normal';font-variant-ligatures:normal;font-variant-caps:normal;font-variant-numeric:normal;font-feature-settings:normal;text-align:start;writing-mode:lr-tb;text-anchor:start;fill:#ffdd55;fill-opacity:1;stroke-width:0.9375"
           id="path2021" /><path
           d="m 20.543621,11.36904 h -1.61499 v -0.417481 h 0.535583 V 7.6968594 H 18.928631 V 7.2793789 h 1.61499 v 0.4174805 h -0.535583 v 3.2546996 h 0.535583 z"
           style="font-style:normal;font-variant:normal;font-weight:normal;font-stretch:normal;font-size:5.625px;font-family:sans-serif;-inkscape-font-specification:'sans-serif, Normal';font-variant-ligatures:normal;font-variant-caps:normal;font-variant-numeric:normal;font-feature-settings:normal;text-align:start;writing-mode:lr-tb;text-anchor:start;fill:#ffdd55;fill-opacity:1;stroke-width:0.9375"
           id="path2023" /><path
           d="m 24.149883,8.5153408 q 0,0.2719116 -0.09613,0.5053711 -0.09338,0.2307129 -0.263672,0.401001 -0.211487,0.2114868 -0.499878,0.3186035 -0.288391,0.1043701 -0.727844,0.1043701 H 22.018536 V 11.36904 H 21.474712 V 7.2793789 h 1.10962 q 0.368042,0 0.623474,0.063171 0.255432,0.060425 0.453186,0.1922607 0.233459,0.1565552 0.359802,0.3900147 0.129089,0.2334594 0.129089,0.5905151 z m -0.565796,0.013733 q 0,-0.2114868 -0.07416,-0.368042 Q 23.435772,8.0044765 23.28471,7.9055996 23.152874,7.8204556 22.982586,7.78475 22.815044,7.7462978 22.556866,7.7462978 h -0.53833 v 1.6342163 h 0.458679 q 0.32959,0 0.535583,-0.057678 0.205994,-0.060425 0.335083,-0.1895141 0.12909,-0.131836 0.181275,-0.2774048 0.05493,-0.1455689 0.05493,-0.3268433 z"
           style="font-style:normal;font-variant:normal;font-weight:normal;font-stretch:normal;font-size:5.625px;font-family:sans-serif;-inkscape-font-specification:'sans-serif, Normal';font-variant-ligatures:normal;font-variant-caps:normal;font-variant-numeric:normal;font-feature-settings:normal;text-align:start;writing-mode:lr-tb;text-anchor:start;fill:#ffdd55;fill-opacity:1;stroke-width:0.9375"
           id="path2025" /></g></g><g
       id="text1971-0"
       style="font-style:normal;font-variant:normal;font-weight:normal;font-stretch:normal;font-size:3.125px;line-height:1.25;font-family:sans-serif;-inkscape-font-specification:'sans-serif, Normal';font-variant-ligatures:normal;font-variant-caps:normal;font-variant-numeric:normal;font-feature-settings:normal;text-align:start;letter-spacing:0px;word-spacing:0px;writing-mode:lr-tb;text-anchor:start;fill:#ffdd55;fill-opacity:1;stroke:none;stroke-width:0.9375"
       aria-label="1"><path
         id="path2035"
         style="font-style:normal;font-variant:normal;font-weight:normal;font-stretch:normal;font-size:5.625px;font-family:sans-serif;-inkscape-font-specification:'sans-serif, Normal';font-variant-ligatures:normal;font-variant-caps:normal;font-variant-numeric:normal;font-feature-settings:normal;text-align:start;writing-mode:lr-tb;text-anchor:start"
         d="M 6.1362648,28.185524 H 3.9225197 v -0.41748 H 4.7739601 V 25.026955 H 3.9225197 v -0.373536 q 0.1730347,0 0.3707886,-0.02746 0.1977539,-0.03021 0.2993774,-0.08514 0.1263428,-0.06866 0.1977539,-0.173035 0.074158,-0.107117 0.085144,-0.285645 h 0.4257203 v 3.685914 h 0.8349609 z" /></g><g
       id="text2005"
       style="font-style:normal;font-variant:normal;font-weight:normal;font-stretch:normal;font-size:5.625px;line-height:1.25;font-family:sans-serif;-inkscape-font-specification:'sans-serif, Normal';font-variant-ligatures:normal;font-variant-caps:normal;font-variant-numeric:normal;font-feature-settings:normal;text-align:start;letter-spacing:0px;word-spacing:0px;writing-mode:lr-tb;text-anchor:start;fill:#ffdd55;fill-opacity:1;stroke:none;stroke-width:0.9375"
       aria-label="2"><path
         id="path2038"
         style=""
         d="m 15.335609,28.185524 h -2.768554 v -0.574036 q 0.288391,-0.247192 0.576782,-0.494384 0.291138,-0.247193 0.541077,-0.491639 0.527343,-0.510864 0.722351,-0.810241 0.195007,-0.302124 0.195007,-0.65094 0,-0.318604 -0.211487,-0.497132 -0.20874,-0.181274 -0.585022,-0.181274 -0.249939,0 -0.541076,0.08789 -0.291138,0.08789 -0.568543,0.269165 h -0.02747 v -0.576783 q 0.195008,-0.09613 0.519104,-0.175781 0.326844,-0.07965 0.631714,-0.07965 0.628967,0 0.986023,0.304871 0.357056,0.302124 0.357056,0.821228 0,0.233459 -0.06043,0.436706 -0.05768,0.200501 -0.173035,0.381775 -0.107116,0.170288 -0.252685,0.335083 -0.142823,0.164795 -0.348816,0.365296 -0.293884,0.288391 -0.606995,0.560303 -0.31311,0.269165 -0.585022,0.499877 h 2.200012 z" /></g><g
       id="text2009"
       style="font-style:normal;font-variant:normal;font-weight:normal;font-stretch:normal;font-size:3.125px;line-height:1.25;font-family:sans-serif;-inkscape-font-specification:'sans-serif, Normal';font-variant-ligatures:normal;font-variant-caps:normal;font-variant-numeric:normal;font-feature-settings:normal;text-align:start;letter-spacing:0px;word-spacing:0px;writing-mode:lr-tb;text-anchor:start;fill:#ffdd55;fill-opacity:1;stroke:none;stroke-width:0.9375"
       aria-label="3"><path
         id="path2041"
         style="font-style:normal;font-variant:normal;font-weight:normal;font-stretch:normal;font-size:5.625px;font-family:sans-serif;-inkscape-font-specification:'sans-serif, Normal';font-variant-ligatures:normal;font-variant-caps:normal;font-variant-numeric:normal;font-feature-settings:normal;text-align:start;writing-mode:lr-tb;text-anchor:start"
         d="m 24.127668,26.216225 q 0.131836,0.118103 0.21698,0.296631 0.08514,0.178527 0.08514,0.461425 0,0.280152 -0.101623,0.513611 -0.101624,0.23346 -0.285645,0.406494 -0.205993,0.192261 -0.486145,0.285645 -0.277404,0.09064 -0.609741,0.09064 -0.340576,0 -0.670166,-0.0824 -0.32959,-0.07965 -0.541077,-0.175782 v -0.574035 h 0.0412 q 0.23346,0.153808 0.549317,0.255432 0.315857,0.101623 0.609741,0.101623 0.173034,0 0.368042,-0.05768 0.195007,-0.05768 0.315857,-0.170288 0.126342,-0.12085 0.186767,-0.266418 0.06317,-0.145569 0.06317,-0.368042 0,-0.219727 -0.07141,-0.362549 -0.06867,-0.145569 -0.192261,-0.227967 -0.123596,-0.08514 -0.299378,-0.115356 -0.175781,-0.03296 -0.379028,-0.03296 H 22.68022 v -0.455933 h 0.19226 q 0.417481,0 0.664673,-0.173034 0.249939,-0.175782 0.249939,-0.510865 0,-0.148315 -0.06317,-0.258178 -0.06317,-0.11261 -0.175781,-0.184021 -0.118103,-0.07141 -0.252686,-0.09888 -0.134582,-0.02747 -0.304871,-0.02747 -0.260925,0 -0.554809,0.09338 -0.293884,0.09338 -0.55481,0.263672 h -0.02747 v -0.574036 q 0.195008,-0.09613 0.519104,-0.175781 0.326844,-0.0824 0.631714,-0.0824 0.299378,0 0.527344,0.05493 0.227966,0.05493 0.411987,0.175781 0.197754,0.131836 0.299378,0.318604 0.101623,0.186767 0.101623,0.436706 0,0.340576 -0.241699,0.596009 -0.238952,0.252685 -0.565796,0.318603 v 0.03845 q 0.131836,0.02197 0.302124,0.09338 0.170288,0.06866 0.288391,0.173035 z" /></g></g></svg>