<?xml version="1.0" encoding="UTF-8" standalone="no"?>
<!-- Generator: Adobe Illustrator 16.0.0, SVG Export Plug-In . SVG Version: 6.00 Build 0)  -->

<svg
   xmlns:dc="http://purl.org/dc/elements/1.1/"
   xmlns:cc="http://creativecommons.org/ns#"
   xmlns:rdf="http://www.w3.org/1999/02/22-rdf-syntax-ns#"
   xmlns:svg="http://www.w3.org/2000/svg"
   xmlns="http://www.w3.org/2000/svg"
   xmlns:sodipodi="http://sodipodi.sourceforge.net/DTD/sodipodi-0.dtd"
   xmlns:inkscape="http://www.inkscape.org/namespaces/inkscape"
   version="1.1"
   id="Ebene_1"
   x="0px"
   y="0px"
   width="10.551166mm"
   height="2.5400777mm"
   viewBox="0 0 70.866147 0"
   enable-background="new 0 0 25.459 39.142"
   xml:space="preserve"
   inkscape:version="0.91 r13725"
   sodipodi:docname="do14-10.svg"><metadata
     id="metadata48"><rdf:RDF><cc:Work
         rdf:about=""><dc:format>image/svg+xml</dc:format><dc:type
           rdf:resource="http://purl.org/dc/dcmitype/StillImage" /><dc:title></dc:title></cc:Work></rdf:RDF></metadata><defs
     id="defs46"><pattern
       y="0"
       x="0"
       height="6"
       width="6"
       patternUnits="userSpaceOnUse"
       id="EMFhbasepattern" /><pattern
       y="0"
       x="0"
       height="6"
       width="6"
       patternUnits="userSpaceOnUse"
       id="EMFhbasepattern-0" /></defs><sodipodi:namedview
     pagecolor="#ffffff"
     bordercolor="#666666"
     borderopacity="1"
     objecttolerance="10"
     gridtolerance="10"
     guidetolerance="10"
     inkscape:pageopacity="0"
     inkscape:pageshadow="2"
     inkscape:window-width="1400"
     inkscape:window-height="700"
     id="namedview44"
     showgrid="false"
     inkscape:zoom="5.6568543"
     inkscape:cx="-8.6033709"
     inkscape:cy="-8.5367235"
     inkscape:window-x="25"
     inkscape:window-y="205"
     inkscape:window-maximized="0"
     inkscape:current-layer="Ebene_1"
     inkscape:document-units="mm"
     units="mm"
     showborder="true"
     fit-margin-top="0"
     fit-margin-left="0"
     fit-margin-right="0"
     fit-margin-bottom="0" /><g
     id="g4923"><rect
       style="fill:none"
       id="connector0pin"
       x="0.032389846"
       y="3.2287488"
       width="1.2499996"
       height="1.2499996" /><rect
       style="fill:none"
       id="connector1pin"
       x="31.98863"
       y="3.2287488"
       width="1.2499996"
       height="1.2499996" /><line
       style="fill:none;stroke:#8c8c8c;stroke-width:2.61749935;stroke-linecap:round"
       id="connector0leg"
       x1="1.3273895"
       y1="4.5374985"
       x2="2.6361392"
       y2="4.5374985" /><line
       style="fill:none;stroke:#8c8c8c;stroke-width:2.61749935;stroke-linecap:round"
       id="connector1leg"
       x1="34.749878"
       y1="4.5374985"
       x2="36.058628"
       y2="4.5374985" /><rect
       style="fill:#8c8c8c"
       id="rect7"
       x="2.6361392"
       y="3.2287488"
       width="32.113739"
       height="2.6174994" /><path
       d="M 11.467386,0 8.771137,0 c -0.5937498,0 -0.4912498,8.9912471 0,8.9912471 l 2.696249,0 c 0.495,0 13.892496,0 14.384996,0 l 2.697499,0 C 29.193631,8.9912471 29.24738,0 28.549881,0 L 25.852382,0 C 25.356132,0 11.959886,0 11.467386,0 Z"
       id="Body_1_"
       inkscape:connector-curvature="0"
       style="fill:#1a1a1a" /><rect
       height="8.9912472"
       width="2.4899993"
       enable-background="new    "
       y="0"
       x="12.247386"
       id="rect16"
       style="opacity:0.73999999;fill:#ffffff" /><path
       d="m 9.1298869,0.44749986 c 0.9075001,0 1.4312491,0 2.3324991,0 0.89875,0 13.482496,0 14.384996,0 0.02625,0 0.286249,0 0.598749,0 0.70375,0 1.3325,0 1.63875,0 0.4425,0 1.432499,0.44999985 -0.4425,0.44999985 -1.35,0 -0.9075,0 -1.797499,0 -0.89625,0 -13.488746,0 -14.384996,0 -0.90375,0 -1.431249,0 -2.3324991,0 -0.4449998,0.00125 -0.8924997,-0.44999985 0.0025,-0.44999985 z"
       enable-background="new    "
       id="Reflex_1_"
       inkscape:connector-curvature="0"
       style="opacity:0.4;fill:#ffffff" /><path
       d="m 28.546131,8.9924971 c -0.90875,0.0175 -1.7975,0 -2.694999,0 -1.1275,0 -16.1774952,0 -17.0837449,0 -0.11375,0 -0.2525,-0.9037497 -0.2275,-0.9037497 1.6162499,0 2.0162489,0 2.9199989,0 0.90375,0 13.486246,0 14.386246,0 0.901249,0 2.087499,0 2.991249,0 0.02625,0 -0.1075,0.9012497 -0.29125,0.9037497 z"
       enable-background="new    "
       id="Shaddow_1_"
       inkscape:connector-curvature="0"
       style="opacity:0.4" /></g></svg>