<svg xmlns="http://www.w3.org/2000/svg" width="22" height="24" viewBox="0 0 21.6 23.76"><style><![CDATA[.B{fill:#101110}.C{fill:none}.D{stroke:#000}.E{stroke:#101110}.F{stroke-width:.215}.G{stroke-width:.174}.H{font-family:'Droid Sans-Bold'}.I{stroke-width:.427}]]></style><path fill="#f7f7f7" d="M20.564 3.338v10.665l-.627.628v5.02l.627.627v9.41l-.627.628h-23.84l-.627-.628.025-9.41.63-.627v-5.02l-.63-.628-.025-10.665 1.254-1.255h1.87l.627-.627h8.162L8 2.083l.627-.627h8.16l.63.627h1.883z" class="D G"/><path d="M3.48 9.504l.082.184-1.906.017.12-.2H3.48zm.052-.08H1.73l-.213.363 2.172-.02-.157-.343zm.2-.79l.688.18-.54-.75-.837.395z" class="B"/><path d="M3.866 8.436s-.83.56-.654 2.09" class="C E F"/><path d="M1.852 8.633l-.688.18.27-.376.27-.375.418.197.42.198z" class="B"/><path d="M1.724 8.436s.83.56.654 2.09" class="C E F"/><path d="M14.193 9.504l.117.2-1.903-.017.082-.184h1.704zm.046-.08h-1.802l-.155.343 2.172.02-.215-.363zm-1.99-.79l-.688.18.27-.376.27-.375.418.197.418.198z" class="B"/><path d="M12.104 8.436s.83.56.655 2.09" class="C E F"/><path d="M14.117 8.633l.7.18-.27-.376-.268-.375-.42.197-.42.198z" class="B"/><path d="M14.245 8.436s-.828.56-.653 2.09" class="C E F"/><g class="B"><path d="M.65 26.107c-.01-.01-.023-.017-.04-.02s-.037-.008-.062-.008h-.1v.222h.105c.022 0 .043-.003.06-.007s.03-.014.04-.022.016-.02.02-.036.007-.03.007-.05-.002-.03-.007-.042-.012-.026-.022-.036z"/><path d="M.596 25.93c.015-.004.027-.01.036-.02s.018-.02.02-.03.006-.025.006-.04c0-.034-.008-.057-.03-.07s-.05-.022-.095-.022H.448v.188h.094c.02.001.04-.002.054-.005zm-2.326-.054c-.006-.016-.01-.033-.015-.05l-.014-.06-.01-.05c-.001.008-.004.018-.006.03s-.007.024-.008.037l-.01.038c-.004.013-.007.025-.008.036s-.007.02-.008.03-.004.017-.006.02l-.055.186h.206l-.052-.185c-.006-.006-.01-.016-.014-.033zm5.037.054c-.02 0-.036.004-.05.01s-.025.02-.034.033-.014.032-.02.053a.35.35 0 0 0-.007.077v.02a.42.42 0 0 0 .006.083c.004.023.01.044.02.062s.02.028.034.036a.1.1 0 0 0 .052.012.08.08 0 0 0 .078-.051c.016-.035.025-.08.025-.146s-.01-.1-.025-.143-.042-.046-.078-.046z"/><path d="M6.3 12.56H4.5s-.095-1.733-.808-2.796l-2.17.012c.873 1.833.66 3.9.66 3.9-.034 3.92-2.077 11.098-6.715 14.078l-.004 1.925.627.628 1.335.002.346-.288.356-.298.703.6h1l.352-.292.356-.298.355.298.352.294 1.095.001.353-.295.356-.298.355.298.356.297h.544s1.548-4.555 2.015-10.815c.157-2.152.2-4.5-.01-6.933zm-7.876 13.885l-.058-.2h-.292l-.058.2h-.18l.274-.85h.22l.276.85h-.18zm2.406-.14c-.014.03-.035.055-.06.076s-.056.036-.093.05a.39.39 0 0 1-.122.017h-.3v-.845h.248a.73.73 0 0 1 .14.011.3.3 0 0 1 .101.036c.027.02.048.038.06.066s.02.06.02.1c0 .024-.004.047-.008.066s-.015.038-.026.055-.023.028-.04.04-.035.02-.054.02v.008a.26.26 0 0 1 .059.021c.02.008.034.02.048.037a.17.17 0 0 1 .032.058c.008.024.012.05.012.083a.28.28 0 0 1-.02.102zm.942-4.777l-.084.083-.097.093c-.034.032-.066.06-.098.084l-.526.424-.47-.583 1.476-1.177h.797v4.585H1.8v-2.652l.002-.197.006-.238.01-.25.007-.23a.9.9 0 0 1-.052.056zm1.078 4.785c-.013.03-.032.056-.057.078a.3.3 0 0 1-.092.05.43.43 0 0 1-.124.019c-.04 0-.08-.007-.118-.014s-.073-.02-.106-.036v-.168c.02.008.036.02.056.024s.037.017.057.022.04.012.058.017.04.005.06.005a.18.18 0 0 0 .05-.006c.014-.004.025-.01.034-.02s.015-.018.02-.028a.09.09 0 0 0 .006-.036c0-.015-.003-.03-.01-.04s-.016-.023-.028-.034-.025-.02-.044-.032-.036-.02-.058-.032a2.1 2.1 0 0 1-.06-.034.35.35 0 0 1-.062-.05c-.02-.02-.036-.043-.05-.07a.22.22 0 0 1-.02-.1.26.26 0 0 1 .02-.102c.013-.032.03-.054.053-.076s.05-.036.083-.048a.38.38 0 0 1 .11-.017c.02 0 .04.002.06.004s.038.008.058.012.038.012.058.02.04.016.06.023l-.058.14-.05-.02c-.015-.006-.03-.01-.044-.016s-.028-.008-.042-.008-.027-.005-.04-.005c-.03 0-.053.008-.07.024s-.024.036-.024.064a.1.1 0 0 0 .007.036c.005.01.013.02.022.032s.024.02.04.03.037.02.062.035a.77.77 0 0 1 .08.048.32.32 0 0 1 .062.053c.02.02.032.04.042.064a.25.25 0 0 1 .015.087c0 .043-.007.077-.02.107zm.714-.046a.29.29 0 0 1-.047.105c-.022.028-.045.05-.072.066s-.06.02-.094.02a.27.27 0 0 1-.058-.008c-.018-.004-.03-.01-.044-.02s-.022-.016-.035-.024-.02-.02-.027-.032H3.19c.002.014.005.025.006.037l.003.032a.23.23 0 0 1 .001.023v.262h-.175v-.93h.143l.024.083H3.2c.007-.012.018-.024.027-.036a.16.16 0 0 1 .037-.031.17.17 0 0 1 .047-.022c.017-.006.036-.007.058-.007.034 0 .064.007.1.02s.05.036.07.064.035.063.046.105.016.1.016.145a.53.53 0 0 1-.018.146zm12.063-.16a.09.09 0 0 0-.04-.021c-.017-.006-.036-.008-.063-.008h-.1v.222h.105a.26.26 0 0 0 .06-.007c.017-.004.028-.014.038-.022a.08.08 0 0 0 .021-.036c.004-.015.007-.03.007-.05s-.003-.03-.007-.042-.012-.026-.022-.036zm2.333-.177c-.02 0-.035.004-.05.01s-.022.02-.033.033-.015.032-.02.053-.006.048-.006.077v.02a.42.42 0 0 0 .006.083c.004.023.008.044.02.062.007.016.02.028.033.036s.03.012.05.012c.037 0 .062-.016.078-.05s.025-.08.025-.146a.31.31 0 0 0-.025-.143.08.08 0 0 0-.078-.046zm-2.388 0c.018-.004.028-.01.037-.02s.016-.02.02-.03.008-.025.008-.04c0-.034-.01-.057-.03-.07s-.053-.022-.096-.022h-.086v.188h.095c.018.001.038-.002.05-.005z"/><path d="M13.148 25.876l-.015-.05c-.008-.02-.01-.037-.015-.06l-.01-.05c-.001.008-.004.018-.007.03l-.008.037-.01.038c-.004.013-.008.025-.008.036s-.008.02-.01.03l-.005.02-.055.186h.207l-.053-.186c-.004-.005-.007-.015-.012-.032zm7.364 1.87c-4.637-2.98-6.68-10.158-6.715-14.078 0 0-.2-2.057.662-3.9l-2.172-.013c-.713 1.063-.807 2.796-.807 2.796H9.662c-.202 2.433-.168 4.782-.007 6.93.468 6.258 2.013 10.815 2.013 10.815h.545l.355-.296.355-.297.7.6 1.097-.001.353-.293.355-.297.355.297.35.292h1l.705-.588.355.297.348.288 1.334-.001.628-.628-.01-1.925zm-7.2-1.3l-.06-.2h-.3l-.06.2h-.182l.275-.85h.22l.275.85h-.178zm-.88-1.407v-.675L13.5 23.2l.37-.404c.112-.123.208-.243.286-.36a1.68 1.68 0 0 0 .186-.355c.043-.122.064-.253.064-.393 0-.153-.047-.274-.138-.36s-.218-.128-.374-.128a.98.98 0 0 0-.478.124c-.152.08-.312.196-.48.348l-.527-.625a5.12 5.12 0 0 1 .295-.246 2.02 2.02 0 0 1 .34-.209c.123-.062.258-.108.4-.146a2.02 2.02 0 0 1 .498-.056 1.72 1.72 0 0 1 .59.093 1.25 1.25 0 0 1 .445.258c.125.1.22.248.283.406a1.45 1.45 0 0 1 .1.535 1.42 1.42 0 0 1-.096.517c-.062.165-.147.326-.256.483a4.58 4.58 0 0 1-.379.472c-.14.155-.296.313-.457.475l-.552.556v.044h1.868v.815l-3.077-.004zm3.392 1.267c-.014.03-.033.055-.06.076s-.055.036-.1.05-.078.017-.125.017h-.296v-.845h.247a.73.73 0 0 1 .14.011.31.31 0 0 1 .1.036c.027.016.05.038.062.066s.02.06.02.1c0 .024-.004.047-.01.066s-.013.038-.023.055-.025.028-.04.04a.09.09 0 0 1-.055.02v.008a.26.26 0 0 1 .059.021c.02.008.036.02.05.037s.022.034.03.058.013.05.013.083-.01.07-.023.102zm1.696.008c-.014.03-.03.056-.057.078s-.055.036-.092.05-.078.02-.123.02-.08-.007-.12-.014a.37.37 0 0 1-.105-.036v-.168c.02.008.036.02.055.024s.037.017.06.022.038.012.06.017.037.005.06.005a.18.18 0 0 0 .05-.006c.015-.006.026-.01.035-.02s.015-.018.02-.028a.09.09 0 0 0 .006-.036c0-.015-.003-.03-.01-.04s-.018-.023-.028-.034-.025-.02-.045-.032-.035-.02-.056-.032-.038-.02-.062-.034a.44.44 0 0 1-.062-.05c-.02-.02-.035-.043-.05-.07s-.02-.062-.02-.1a.28.28 0 0 1 .02-.102c.012-.032.03-.054.053-.076a.24.24 0 0 1 .084-.048.38.38 0 0 1 .11-.017c.02 0 .04.002.06.004s.04.008.06.012.037.012.057.02.04.016.06.023l-.058.14c-.018-.007-.034-.015-.05-.02a.45.45 0 0 1-.044-.016c-.014-.006-.028-.008-.042-.008s-.027-.005-.04-.005c-.03 0-.053.008-.068.024s-.023.036-.023.064c0 .014.004.025.007.036s.013.02.022.032.023.02.04.03l.06.035a.77.77 0 0 1 .08.048c.025.016.047.033.064.053s.032.04.04.064.016.054.016.087c-.005.043-.01.077-.024.107zm.715-.046a.31.31 0 0 1-.048.105c-.02.028-.044.05-.07.066a.21.21 0 0 1-.094.021c-.02 0-.04-.004-.057-.008s-.033-.01-.047-.02-.02-.016-.033-.024-.02-.02-.027-.032h-.008c.002.014.004.025.005.037s.003.02.003.032.002.02.002.023v.262h-.176v-.93h.143l.025.083h.007c.007-.012.017-.024.027-.036s.02-.02.035-.03a.22.22 0 0 1 .049-.022c.017-.006.035-.007.058-.007.033 0 .064.007.092.02s.05.036.07.064.035.063.046.105.015.1.015.145a.57.57 0 0 1-.016.146zM-.047 19.27v-.212H.08v.212h.2v.127h-.2v.2h-.126v-.2h-.2v-.127h.2zm.493-.445v.182l-.848-.264v-.195l.848-.264v.182l-.5.142c-.007.003-.02.006-.035.008s-.032.007-.05.01l-.055.01c-.02.003-.035.007-.047.007l.047.008c.018.005.037.008.055.012l.05.01c.015.006.026.008.035.008l.5.144zm-.306-.848a.34.34 0 0 1-.018.102c-.01.032-.028.06-.05.08a.26.26 0 0 1-.08.056c-.033.013-.07.02-.1.02a.34.34 0 0 1-.123-.021c-.037-.015-.066-.037-.093-.064a.27.27 0 0 1-.058-.104.44.44 0 0 1-.021-.141.73.73 0 0 1 .004-.064l.007-.06.014-.055c.007-.017.013-.033.022-.047h.153c-.007.014-.015.03-.02.048s-.013.036-.018.055-.01.038-.012.058l-.004.055c0 .05.01.092.032.118s.056.04.102.04.073-.014.095-.04.034-.066.034-.123c0-.01 0-.02-.002-.032l-.005-.034-.006-.03a.12.12 0 0 0-.007-.026l.038-.07.43.032v.446h-.15v-.294l-.167-.014c.003.013.005.026.007.043a.29.29 0 0 1 .007.068z"/><path d="M.03 17.255c-.07 0-.134-.01-.188-.028a.4.4 0 0 1-.134-.085c-.037-.037-.063-.082-.082-.136s-.027-.114-.027-.183V16.6h.847v.248a.49.49 0 0 1-.026.167c-.018.05-.044.094-.08.128s-.078.063-.13.08-.113.03-.18.03zm-.005-.182c.047 0 .087-.005.122-.015s.062-.02.085-.04.04-.038.05-.066.017-.054.017-.09v-.082h-.55v.066c0 .075.022.132.068.168s.116.058.21.058z"/><path d="M-.4 16.387v-.227l.64-.333v-.005l-.088.007-.08.003-.074.002h-.4v-.16h.847v.226l-.633.332v.004l.087-.005a.46.46 0 0 0 .037-.002l.076-.002h.432v.16H-.4z"/><path d="M.074 15.137v.335h-.438l-.02-.067c-.007-.02-.01-.046-.015-.07s-.007-.05-.01-.077l-.004-.086a.43.43 0 0 1 .028-.167.35.35 0 0 1 .082-.124.36.36 0 0 1 .138-.076c.054-.017.118-.026.188-.026a.55.55 0 0 1 .18.029.4.4 0 0 1 .137.086c.037.036.066.083.086.14a.5.5 0 0 1 .032.188.58.58 0 0 1-.015.133c-.01.033-.02.082-.037.118l-.144-.06c.013-.026.024-.056.033-.088a.4.4 0 0 0 .013-.104.27.27 0 0 0-.02-.106.22.22 0 0 0-.058-.08.28.28 0 0 0-.091-.051c-.036-.013-.077-.02-.12-.02a.44.44 0 0 0-.112.013c-.036.007-.066.02-.1.04s-.044.04-.058.067a.22.22 0 0 0-.02.1l.003.065.008.05h.177v-.16l.15-.002zm15.952 4.28c0-.037.004-.07.016-.102s.027-.06.05-.08a.26.26 0 0 1 .082-.054c.03-.013.066-.02.1-.02a.36.36 0 0 1 .123.021c.036.015.067.036.092.065a.27.27 0 0 1 .06.103.46.46 0 0 1 .02.14l-.003.064-.008.062a.23.23 0 0 1-.014.053l-.02.046h-.153a.23.23 0 0 0 .02-.047l.018-.055c.006-.02.008-.036.012-.058s.006-.036.006-.054c0-.05-.012-.092-.035-.118s-.053-.04-.1-.04-.075.012-.096.038-.03.066-.03.123v.032l.006.034c.001.012.005.02.008.03s.004.02.006.026l-.037.07-.43-.032v-.447h.15v.293l.168.013c-.002-.012-.006-.026-.007-.042-.012-.02-.012-.04-.012-.066zm-.308-.847v-.18l.847.264v.196l-.847.263v-.18l.5-.143c.007-.003.018-.005.032-.008l.052-.01.054-.01c.02-.005.036-.008.048-.008l-.048-.007-.054-.012-.052-.01c-.015-.006-.025-.008-.033-.008l-.5-.145zm.482-.445v.212h-.126v-.212h-.213V18h.213v-.212h.126v.2h.2v.127l-.2.001zm-.1-1.227v-.336h.438l.02.067.016.07a.61.61 0 0 1 .009.076.78.78 0 0 1 .005.086c0 .062-.01.12-.03.167s-.046.1-.082.123a.35.35 0 0 1-.137.076c-.055.017-.117.026-.2.026-.064 0-.125-.01-.182-.03a.44.44 0 0 1-.136-.085.37.37 0 0 1-.087-.139.52.52 0 0 1-.031-.188c0-.045.007-.088.016-.132a.51.51 0 0 1 .037-.118l.142.06a.55.55 0 0 0-.032.09.39.39 0 0 0-.014.104c0 .038.008.075.02.106s.033.06.06.08.054.04.092.05.074.02.117.02a.57.57 0 0 0 .115-.012.31.31 0 0 0 .089-.038.23.23 0 0 0 .06-.068.21.21 0 0 0 .02-.1c0-.026-.003-.048-.004-.065s-.007-.035-.007-.05h-.178v.16h-.15z"/><path d="M16.565 15.646v.228l-.64.333v.005l.1-.006.078-.004.077-.002h.397v.16h-.846v-.226l.63-.332v-.004l-.086.005-.037.001-.037.002-.037.001h-.433v-.16h.844z"/><path d="M16.134 14.78a.56.56 0 0 1 .188.029.41.41 0 0 1 .137.084.34.34 0 0 1 .08.136.54.54 0 0 1 .027.182v.224h-.847v-.248c0-.062.008-.118.026-.167a.34.34 0 0 1 .08-.128c.035-.036.078-.062.13-.082a.5.5 0 0 1 .18-.03zm.003.18c-.047 0-.087.006-.122.015s-.062.022-.085.04a.2.2 0 0 0-.049.066.21.21 0 0 0-.017.09v.082h.55v-.064c0-.076-.022-.133-.068-.17s-.114-.058-.2-.058zm1.786-11.002l.272-.275h1.02V4.1h-.3v.1h.3v.424h-.596v.558h-.698l.001-1.244zm2.013-.6c0-.144-.12-.26-.262-.26h-2.208a.26.26 0 0 0-.261.26v2.208a.26.26 0 0 0 .261.261h1.5l.967-.967.002-1.502z"/></g><g fill="#1e1b1f"><path d="M6.012 9.807l-.22-.784h-.007l.007.122.002.052.003.053.001.05v.508H5.6v-1h.29l.215.764h.004l.23-.764h.288v1H6.44v-.512-.048l.002-.05c.002-.017.002-.034.002-.05l.006-.12h-.006l-.238.783-.195-.001z"/><path d="M7.74 9.306c0 .077-.01.147-.027.2s-.046.118-.082.163a.37.37 0 0 1-.138.106c-.057.024-.124.035-.2.035s-.144-.01-.2-.035-.103-.06-.138-.106-.066-.098-.08-.162-.027-.134-.027-.21a.73.73 0 0 1 .027-.211c.018-.063.045-.117.082-.162s.082-.08.14-.104.123-.036.2-.036.143.012.2.036a.38.38 0 0 1 .138.104.42.42 0 0 1 .082.162c.016.063.025.133.025.21zm-.68 0c0 .052.005.1.014.14a.29.29 0 0 0 .042.106c.02.03.043.05.072.067a.22.22 0 0 0 .103.023c.04 0 .075-.007.104-.023s.052-.038.07-.066.032-.066.04-.107.013-.09.013-.14a.86.86 0 0 0-.013-.142c-.01-.04-.023-.076-.04-.105s-.042-.052-.07-.068-.063-.023-.103-.023-.075.01-.104.023-.053.04-.072.068a.31.31 0 0 0-.042.106.75.75 0 0 0-.014.141z"/><path d="M8.27 9.807h-.21v-.822h-.25v-.177h.712v.177h-.25v.822z"/><path d="M9.486 9.306c0 .077-.01.147-.026.2a.45.45 0 0 1-.083.163c-.036.046-.083.08-.138.106s-.124.035-.2.035a.5.5 0 0 1-.198-.035.35.35 0 0 1-.139-.106c-.037-.045-.066-.098-.082-.162s-.027-.134-.027-.21.01-.148.027-.21.046-.117.082-.162.083-.08.14-.104.123-.036.2-.036.143.012.2.036a.38.38 0 0 1 .138.104c.037.045.065.1.082.162s.026.133.026.21zm-.678 0c0 .052.004.1.014.14s.023.078.042.107.042.05.07.066.063.023.103.023.076-.007.104-.023.052-.038.07-.066.032-.065.04-.106.013-.09.013-.14a.86.86 0 0 0-.013-.142.31.31 0 0 0-.041-.106c-.02-.03-.042-.052-.07-.068s-.064-.023-.104-.023a.22.22 0 0 0-.103.023c-.03.016-.053.04-.072.068a.29.29 0 0 0-.042.106c-.01.042-.014.09-.014.14z"/><path d="M9.904 9.424v.383h-.2v-1h.273c.128 0 .223.024.283.074s.094.124.094.226c0 .034-.007.065-.014.093a.25.25 0 0 1-.037.075c-.015.023-.033.04-.05.056s-.04.03-.064.04l.14.217.05.08.043.07.043.068h-.236L10 9.424h-.095zm0-.173h.058c.06 0 .1-.01.125-.035s.04-.06.04-.104-.014-.08-.042-.102-.07-.03-.127-.03h-.053v.27zm-4.626 1.227c-.04 0-.076.007-.107.022s-.058.04-.08.068a.32.32 0 0 0-.048.107.56.56 0 0 0-.017.142c0 .053.006.102.015.143s.024.076.045.105a.18.18 0 0 0 .08.064c.034.014.07.022.112.022a.58.58 0 0 0 .123-.014l.133-.04v.177c-.022.01-.043.018-.065.024l-.066.016-.068.01-.076.003c-.078 0-.144-.012-.2-.036a.36.36 0 0 1-.14-.104.43.43 0 0 1-.08-.16.76.76 0 0 1-.025-.21.65.65 0 0 1 .03-.208.36.36 0 0 1 .1-.163.39.39 0 0 1 .146-.106c.058-.025.125-.038.2-.038.05 0 .1.007.15.02s.096.03.14.05l-.066.173-.113-.047c-.038-.013-.077-.02-.114-.02z"/><path d="M6.57 10.814c0 .077-.008.147-.027.2s-.045.118-.08.163-.083.08-.14.104-.124.037-.2.037-.144-.013-.198-.037-.103-.06-.14-.104a.48.48 0 0 1-.083-.163.81.81 0 0 1-.025-.211c0-.077.007-.148.025-.21a.48.48 0 0 1 .083-.161c.037-.045.083-.08.14-.104s.124-.037.2-.037a.49.49 0 0 1 .198.037c.057.023.103.06.14.104a.45.45 0 0 1 .081.162c.017.063.027.133.027.21zm-.678 0c0 .053.005.1.013.142s.023.077.042.105.042.05.07.066.064.023.103.023.075-.008.104-.023.053-.037.07-.066.033-.064.04-.105.014-.09.014-.142-.005-.1-.014-.14-.02-.078-.04-.107a.18.18 0 0 0-.071-.066c-.027-.015-.063-.023-.103-.023s-.074.01-.104.023-.05.037-.072.066-.033.065-.042.107a.75.75 0 0 0-.012.141z"/><path d="M7.62 11.315h-.268l-.393-.756h-.01l.008.104.004.094.001.088v.47h-.188v-1h.27l.392.748h.004l-.005-.103-.002-.044-.003-.047v-.555h.2v1zm.617 0h-.2v-.823h-.25v-.176H8.5v.176h-.25v.823z"/><path d="M8.852 10.93v.384h-.2v-1h.27c.128 0 .225.024.285.073s.09.125.09.227c0 .033-.004.064-.014.093s-.02.052-.036.073-.034.04-.052.057-.04.03-.062.04l.136.218.095.15c.013.02.02.037.032.05l.01.02h-.237l-.216-.383-.094-.002zm0-.172H8.9c.06 0 .1-.012.126-.035s.038-.06.038-.104-.014-.08-.04-.1-.07-.03-.128-.03h-.054v.27z"/><path d="M10.374 10.814c0 .077-.01.147-.027.2a.45.45 0 0 1-.083.163c-.037.045-.082.08-.138.104s-.124.037-.2.037a.51.51 0 0 1-.199-.037.37.37 0 0 1-.138-.104.42.42 0 0 1-.082-.163c-.017-.062-.027-.134-.027-.21a.77.77 0 0 1 .027-.211.43.43 0 0 1 .083-.161c.036-.045.083-.08.138-.104s.124-.037.2-.037a.5.5 0 0 1 .199.037c.056.023.102.06.138.104a.42.42 0 0 1 .082.162c.018.063.027.133.027.21zm-.678 0a.85.85 0 0 0 .013.142c.01.04.023.077.043.105s.042.05.07.066.063.023.103.023.076-.008.104-.023.053-.037.07-.066.032-.064.04-.105.013-.09.013-.142a.75.75 0 0 0-.013-.141c-.01-.042-.022-.078-.04-.107s-.042-.05-.07-.066-.064-.023-.104-.023-.074.01-.103.023-.053.037-.072.066-.033.065-.043.107-.012.09-.012.14z"/><path d="M10.58 11.315v-1h.212v.824h.363v.175h-.575zm-14.495 1.02h-.13v.515h-.177v-.515h-.097v-.085l.096-.048v-.048a.36.36 0 0 1 .015-.102c.01-.027.024-.05.043-.065s.04-.028.067-.035a.35.35 0 0 1 .088-.01.43.43 0 0 1 .089.009c.024.006.045.013.063.02l-.04.13-.038-.01c-.013-.004-.028-.005-.046-.005s-.04.007-.05.02-.015.035-.015.058v.04h.13l.002.132z"/><path d="M-3.455 12.2h.032c.02.002.023.003.025.005v.166l-.03-.005-.032-.001c-.023 0-.043.003-.063.01a.15.15 0 0 0-.05.027c-.014.012-.023.03-.032.052a.2.2 0 0 0-.01.077v.33H-3.8v-.647h.133l.026.097h.008c.008-.017.02-.03.03-.045s.02-.026.036-.036a.12.12 0 0 1 .045-.02c.017-.003.036-.01.057-.01zm.17-.154c0-.018.003-.03.007-.042s.012-.02.022-.026.02-.012.03-.015a.14.14 0 0 1 .037-.004c.012 0 .024.001.037.004s.02.007.03.015.016.016.02.026.007.024.007.042-.002.03-.007.04-.012.02-.02.026-.02.012-.03.016-.024.003-.038.003a.15.15 0 0 1-.037-.004c-.013-.003-.02-.007-.03-.015s-.015-.016-.022-.026-.007-.025-.007-.04zm.184.813h-.176v-.647h.18l-.003.647z"/><path d="M-2.654 12.72c.018 0 .036-.002.05-.006a.33.33 0 0 0 .048-.015v.13c-.018.01-.038.016-.063.022s-.05.008-.08.008a.3.3 0 0 1-.079-.01c-.025-.007-.045-.02-.063-.035s-.033-.038-.042-.065a.3.3 0 0 1-.016-.104v-.312h-.084v-.074l.096-.06.05-.138h.113v.14h.157v.132h-.156v.312c0 .024.006.044.02.055s.028.02.048.02z"/><path d="M-2.01 12.85h-.476v-.104l.264-.407h-.247v-.135h.446v.115l-.255.398h.267v.133z"/><path d="M-1.892 12.036c0-.018.003-.03.008-.042s.012-.02.02-.026.02-.012.03-.015.024-.004.037-.004a.15.15 0 0 1 .037.004c.012.003.022.007.03.015s.016.016.02.026.008.024.008.042-.002.03-.008.04-.01.02-.02.026-.02.012-.03.016-.023.003-.037.003-.023-.001-.037-.004-.02-.007-.03-.015-.014-.016-.02-.026-.008-.025-.008-.04zm.183.813h-.176v-.647h.176v.647z"/><path d="M-.963 12.85h-.177v-.377c0-.048-.007-.082-.02-.106s-.036-.034-.066-.034c-.022 0-.042.004-.058.014s-.027.022-.036.04-.016.04-.02.066-.007.058-.007.092v.305h-.175v-.647h.135l.023.083h.01c.007-.017.02-.03.034-.043s.027-.022.043-.03.032-.013.05-.017.037-.006.054-.006c.032 0 .06.004.085.014a.15.15 0 0 1 .066.042c.02.02.033.044.042.075s.015.065.015.107l.003.42z"/><path d="M-.245 12.203v.097l-.095.03c.007.013.013.026.016.04s.004.028.004.046c0 .032-.005.062-.016.1s-.025.05-.046.07-.047.033-.078.044a.34.34 0 0 1-.108.016c-.008 0-.02 0-.028-.001s-.02-.002-.023-.004l-.02.02c-.004.007-.007.016-.007.025s.002.015.007.02.01.01.02.012.02.005.03.006.022.001.034.001h.1a.29.29 0 0 1 .083.012c.023.007.046.018.063.032s.03.034.04.056.013.05.013.08-.007.07-.02.1-.037.055-.066.076-.066.034-.11.046a.61.61 0 0 1-.15.016c-.044 0-.083-.003-.115-.012a.27.27 0 0 1-.082-.035c-.02-.016-.037-.035-.05-.057s-.016-.047-.016-.074.004-.044.01-.062.02-.032.033-.045.03-.02.046-.03.034-.014.052-.018c-.007-.003-.016-.008-.024-.015s-.015-.013-.02-.02-.01-.017-.017-.026-.005-.02-.005-.03.001-.022.005-.033.01-.02.016-.028.017-.017.026-.024l.036-.024c-.036-.014-.06-.036-.08-.07s-.03-.07-.03-.115a.27.27 0 0 1 .016-.093c.01-.027.027-.05.047-.07s.05-.033.08-.043a.34.34 0 0 1 .107-.016c.007 0 .016 0 .026.002s.02.002.028.004.02.003.027.005l.24.003v-.002zm-.463.737c0 .01.002.02.007.028s.01.017.02.023.022.014.037.02a.27.27 0 0 0 .054.006c.062 0 .107-.01.138-.025s.046-.04.046-.068-.01-.04-.028-.05-.048-.012-.087-.012h-.083c-.01 0-.02 0-.033.004a.16.16 0 0 0-.033.012c-.01.007-.02.016-.025.025-.01.01-.013.022-.013.037zm.064-.526c0 .035.007.062.02.08s.033.03.06.03.047-.01.06-.03.02-.046.02-.08-.007-.062-.02-.083-.032-.03-.06-.03c-.054 0-.08.037-.08.113z"/><path d="M-.152 12.767a.16.16 0 0 1 .007-.047c.005-.012.013-.022.02-.03s.02-.014.034-.018.024-.006.04-.006.025.002.037.006.022.01.033.018.017.018.02.03.008.028.008.047-.003.03-.008.044a.1.1 0 0 1-.021.031c-.007.008-.02.014-.033.018s-.025.006-.037.006-.027-.003-.04-.006-.023-.01-.034-.018-.017-.02-.02-.03-.007-.027-.007-.044z"/><path d="M.77 12.524c0 .054-.008.102-.022.144a.27.27 0 0 1-.059.105c-.024.028-.056.05-.094.065s-.08.022-.124.022-.08-.008-.118-.022a.27.27 0 0 1-.093-.065c-.027-.03-.046-.064-.06-.105s-.022-.1-.022-.144.007-.102.022-.144.034-.076.06-.104.057-.05.093-.065a.34.34 0 0 1 .125-.022c.042 0 .08.008.118.022a.26.26 0 0 1 .093.065c.026.028.046.063.062.104s.02.09.02.144zm-.4 0a.3.3 0 0 0 .026.146c.02.032.048.05.09.05s.068-.018.088-.05.027-.08.027-.145-.01-.112-.027-.144-.05-.048-.1-.048-.07.017-.087.048-.026.08-.026.144z"/><path d="M1.258 12.19H1.3c.02.002.023.003.023.005v.166l-.03-.005-.032-.001c-.022 0-.043.003-.062.01s-.037.015-.05.027-.022.03-.032.052a.24.24 0 0 0-.012.077v.33H.918v-.647h.134l.026.097h.01c.008-.017.02-.03.03-.045s.02-.026.036-.036.027-.017.045-.02.038-.01.06-.01z"/><path d="M1.958 12.203v.097l-.095.03c.008.013.014.026.016.04a.16.16 0 0 1 .006.046c0 .032-.007.062-.016.1a.17.17 0 0 1-.048.07c-.02.02-.045.033-.076.044s-.066.016-.108.016c-.01 0-.02 0-.03-.001s-.02-.002-.023-.004c-.008.008-.014.014-.018.02s-.008.016-.008.025.003.015.008.02.01.01.02.012a.14.14 0 0 0 .028.006c.01.001.022.001.035.001h.1c.032 0 .06.005.084.012s.045.018.063.032.03.034.04.056.014.05.014.08-.007.07-.02.1-.037.055-.066.076a.37.37 0 0 1-.108.046.63.63 0 0 1-.151.016c-.044 0-.08-.003-.115-.012a.25.25 0 0 1-.082-.035.18.18 0 0 1-.05-.057c-.01-.022-.017-.047-.017-.074s.006-.044.013-.062.02-.032.032-.045.03-.02.047-.03l.052-.018c-.007-.003-.016-.008-.023-.015s-.015-.013-.02-.02-.01-.018-.016-.026-.007-.02-.007-.03.003-.023.006-.034.008-.02.016-.027.016-.018.026-.024.022-.016.035-.024a.16.16 0 0 1-.08-.07c-.02-.032-.03-.07-.03-.114 0-.035.005-.065.016-.094a.21.21 0 0 1 .047-.07.22.22 0 0 1 .078-.044c.032-.01.066-.015.108-.015.007 0 .016 0 .026.002s.02.002.028.003.02.003.026.005.014.003.02.004h.218v-.002zm-.463.737c0 .01.002.02.006.028s.01.017.02.023.023.014.037.02a.3.3 0 0 0 .056.006c.06 0 .105-.01.136-.025s.048-.04.048-.068-.01-.04-.03-.05-.05-.012-.088-.012H1.6c-.01 0-.02 0-.034.004a.28.28 0 0 0-.034.012c-.01.007-.02.016-.023.025-.01.01-.015.022-.015.037zm.064-.526c0 .035.007.062.02.08s.033.03.06.03.048-.01.06-.03.02-.046.02-.08-.006-.062-.018-.083-.033-.03-.06-.03c-.054 0-.08.037-.08.113z"/></g><text transform="translate(7.15 26.448)" font-size="1.185" class="B H">Vin</text><g class="B"><path d="M14.623 13.686c0-.006.006-.017.013-.032l-.085.008-.082.012.016-.315.005-.292-.005-.29-.022-.312-.002-.148v-.147l-.033-.018c-.006-.016 0-.03.01-.042s.025-.023.047-.033a.34.34 0 0 1 .072-.022.66.66 0 0 1 .088-.016c.065-.013.124-.02.182-.02l.074-.002.04-.001c0 .004.002.02.01.042.036 0 .09-.006.16-.017l.22-.033.22-.02c.07-.002.12.006.154.022l.012.087c.006.02.008.056.012.1-.005.008-.012.013-.018.015l-.05.007v-.02h-.02v-.02l-.08-.03c-.02-.008-.038-.013-.05-.016a.37.37 0 0 0-.052-.01l-.08-.008v-.06l-.296.04c-.058.01-.094.036-.11.075s-.018.098-.007.178c.007.04.01.09.015.15l.008.206c.008 0 .016.004.022.005s.015.006.024.008c0 .007.002.02.007.037.083-.017.122-.06.114-.124s.01-.103.057-.112v.02h.02c.014.032.024.062.03.09s.01.063.007.104h.02l.002.078.002.042.006.024.007.03.024.014c-.013.082-.032.107-.06.07a.3.3 0 0 1-.047-.103c-.04-.002-.076-.018-.106-.046-.023-.025-.065-.04-.128-.043l.007.164c.003.016.005.038.007.064l.006.097h.02c-.03.058-.033.117-.01.176s.024.118.008.177a3.7 3.7 0 0 1 .385-.033c.134-.005.224-.084.266-.237.007-.004.018-.008.024-.01l.04-.015c.004.005.014.01.03.017.007.052.007.105 0 .16s-.006.113-.002.174c-.01.004-.02.007-.027.01l-.03.01c-.007-.027-.023-.048-.055-.062s-.064-.02-.104-.023a1.03 1.03 0 0 0-.134.003l-.14.017-.12.02-.08.012v.02c.008.001.012.002.02.005.014.013.01.024.004.03l-.014.027-.064.012-.066.014c-.007-.02-.02-.033-.036-.038-.02-.005-.04-.005-.063.002s-.047.016-.07.028l-.07.04-.06.04a.19.19 0 0 1-.04.023c-.007-.025-.004-.04-.002-.047m.05-1.4l.17-.112-.015-.02c-.107-.001-.188.012-.244.04s-.08.094-.084.203l.172-.11m-.04.16l.096-.056c-.007-.006-.01-.012-.012-.018-.037.008-.072.02-.105.03s-.066.02-.102.024c.002.008.004.02.004.032s.002.028.006.048c.04-.02.078-.04.113-.06m.04.157l.144-.1v-.024c-.013.002-.033.01-.063.02l-.08.032-.157.067.005.063c0 .02.003.042.006.064l.145-.11m-.01.153c.053-.033.085-.064.097-.1-.04.01-.076.02-.113.036s-.074.025-.11.03l.002.042c.001.014.004.027.006.04.028-.007.067-.027.117-.058m.058.174c.084-.063.13-.112.14-.146l-.074.018-.05.015c-.014.003-.036.01-.066.02l-.122.044-.001.15c.033-.006.09-.04.17-.102m0 .214c.08-.053.128-.094.14-.123l-.15.035-.15.033.004.067c0 .022.004.046.006.067.018 0 .07-.028.15-.08m-.096.328c.02-.013.045-.025.064-.04-.008-.01-.014-.012-.02-.013s-.016-.002-.027-.004-.027-.003-.048-.003l.005-.04.09-.066.095-.063a.44.44 0 0 0-.092.01c-.033.01-.074.016-.125.02l-.008.12-.004.117.068-.038m.024-1.344l.08-.025-.013-.017-.044.008c-.012.001-.02.003-.028.004s-.015.004-.02.007-.02.008-.028.012c-.004.008-.007.02-.008.035l.062-.024m.17.857c.027-.006.045-.012.053-.015s.02-.006.027-.01.02-.01.028-.016.003-.025.005-.042l.006-.06a.23.23 0 0 0-.119.054l-.107.086v.027l.107-.023m.015-.706l.08-.02c0-.013.004-.034.008-.065-.088.008-.14.044-.16.11a.76.76 0 0 1 .072-.023m.053.455c.03-.005.047-.037.047-.1-.014-.002-.027 0-.043.006s-.03.013-.042.02-.026.02-.04.03-.023.02-.037.03v.03l.115-.02m-.04.703l.09-.02c-.001-.01-.001-.02-.003-.028s-.002-.02-.002-.028c-.012.003-.026.008-.044.017s-.038.018-.062.03c-.048.022-.065.04-.055.05.023-.01.047-.015.075-.02m.004-.863l.068-.02a.3.3 0 0 1 .01-.062l-.025.004c-.007.001-.015.004-.02.008s-.02.01-.036.02a.86.86 0 0 0-.068.045v.03l.072-.024m-.004.587c.017-.002.03-.007.044-.015s.023-.017.03-.03.014-.03.014-.055c-.018.003-.04.013-.064.03l-.084.05c.004.012.005.017.01.023l.05-.001"/><path d="M16.067 13.687l-.038-.012c-.027-.153-.028-.317-.003-.487a1 1 0 0 0-.047-.472l-.014-.27c0-.047-.006-.093-.013-.135a.66.66 0 0 0-.034-.123c-.02-.005-.036-.008-.036-.01l.001-.067c.027-.002.047-.002.052-.001s.02.005.035.01c0 .012.003.02.007.024s.008.013.008.027c.003.023.008.028.014.03v-.1l.125-.008.094-.007c.053-.007.12-.034.203-.083a3.2 3.2 0 0 1 .51.165v.016l.023.016.018.013c.006.006.01.01.016.02s.013.018.02.032l.02.001v.02h.018l.02.05.02.048h.016l-.004.036h.02l.073.17a.62.62 0 0 1 .04.196c.02.008.03.02.032.037-.014.018-.03.036-.05.057a1.35 1.35 0 0 1-.319.529c-.153.16-.33.254-.532.28 0-.008.004-.02.01-.037l-.153.007a.16.16 0 0 0-.031.005c-.014.002-.028.006-.045.01-.015.014-.027.02-.04.02l-.04-.016m.084-1.158c.06-.092.08-.15.062-.17l-.044.028c-.012.007-.02.014-.024.016s-.01.008-.018.015a.24.24 0 0 0-.024.022v.057c-.007.002-.015.003-.02.006l-.02.004v-.02h-.027l-.001.2c.02-.01.06-.064.118-.16m0 .4c.024-.034.05-.074.07-.12l.123-.225c-.06.012-.107.053-.138.124s-.077.114-.136.132c.004-.036.016-.065.033-.087s.037-.046.06-.074l-.02-.02c-.06.074-.09.125-.094.154a2.48 2.48 0 0 0 .021.2c.025-.022.052-.05.08-.084m.018.12l.063-.08.03-.038c-.007-.007-.017-.01-.028-.012l-.065.082c-.024.03-.052.052-.08.062l-.006.05c-.001.015-.002.025-.004.033.007-.002.037-.035.09-.1m-.038.225l.047-.06.043-.066.042-.057c-.035.01-.066.028-.094.056s-.058.05-.092.067l-.001.104c.02-.008.038-.024.055-.044m.04.305l.07-.077c-.015.003-.027.006-.038.01l-.03.014c-.008.004-.02.008-.03.01s-.02.005-.037.005c.007-.052.028-.102.066-.15l.057-.07.05-.066c-.045.02-.078.043-.102.072s-.055.047-.102.054l.006.175c.002.022.006.045.014.073.027-.006.053-.022.076-.05m.082-1.116l.036-.05a.12.12 0 0 1 .104-.051l-.004-.05v-.037l-.02.001c-.006 0-.01.002-.02.003-.007.01-.02.026-.035.044l-.064.07c-.05.055-.06.094-.036.115.015-.015.027-.03.04-.046m.033.94l.08-.053.006-.052a.44.44 0 0 1 .004-.052c-.04.01-.073.04-.1.087-.014.02-.023.043-.035.064l-.032.058.077-.052m.022-.236c.012-.005.02-.01.027-.013s.01-.008.016-.013l.02-.022c-.002-.008-.004-.02-.004-.027s.002-.02.002-.027h-.04l-.03.05-.02.03c-.004.008-.007.02-.008.042a.23.23 0 0 1 .036-.02m.035-.962c.02-.014.034-.032.037-.057l-.06.028c-.003.004-.007.008-.017.016s-.018.016-.028.025c.001.008.005.015.007.024.022-.01.04-.023.06-.036m.023.526c.01-.018.014-.044.014-.078-.023.005-.05.023-.072.057s-.02.058.003.077a.22.22 0 0 0 .055-.056m-.01.197c.012-.022.02-.043.02-.058h-.03c-.006.014-.014.022-.018.03l-.01.02c-.003.006-.006.01-.013.016s-.008.012-.018.02c.012.01.016.013.017.016.022-.005.04-.02.05-.043m.035.655a1.12 1.12 0 0 0 .002-.136c-.037 0-.064.018-.076.052a.62.62 0 0 0-.021.1l.062-.003c.006 0 .016.003.025.008.006-.001.008-.01.008-.02m.312-.08l.108-.082.1-.087-.008-.444-.004-.446-.03-.1-.014-.06a.41.41 0 0 1-.008-.091.82.82 0 0 1-.184-.048l-.17-.052v.04c-.001.01-.003.02-.008.03s-.01.015-.02.018-.02.004-.043.002l-.008.706.026.713a.5.5 0 0 0 .254-.089m.31-.664c.01-.013.018-.026.025-.04s.018-.027.02-.042.013-.026.02-.035c-.025.002-.045.008-.06.015s-.024.017-.032.03-.008.028-.008.044l.002.057c.01-.007.02-.015.032-.028m.01-.313c.008-.003.018-.007.022-.01l.018-.014c.006-.005.01-.01.02-.02a.08.08 0 0 0-.004-.024c-.004-.007-.012-.027-.03-.062h-.047l-.012.073c-.004.024-.006.05-.008.07l.04-.01m-.018.68c.026-.02.033-.036.04-.055s.017-.036.026-.054c-.018-.02-.03-.04-.037-.068l.094-.124a.1.1 0 0 0-.029.007l-.036.016-.038.016c-.015.005-.028.008-.038.01l.002.13c0 .04.002.084.007.128m.118-.373l.053-.028.008-.038c.004-.015.008-.03.01-.05-.036.01-.058.025-.067.046s-.022.046-.037.077c.015-.001.028-.004.034-.008"/><path d="M17.76 13.724h-.02v-.028c-.013-.003-.026-.007-.04-.008l-.042-.005-.01.024-.048.007c0-.01.002-.02.004-.03s.002-.02.002-.03c-.025-.01-.05-.023-.07-.04s-.036-.036-.052-.057-.022-.04-.032-.062-.01-.04-.01-.057h-.022c-.02-.06-.037-.115-.044-.167s-.015-.102-.015-.15V12.8l.123-.284.14-.276c.018-.008.03-.02.038-.03s.014-.023.02-.036.006-.025.006-.04l.008-.045c.012-.002.023-.004.037-.004l.035-.002-.002.03c.128-.062.24-.102.334-.118s.21.01.354.073c0 .027.02.047.053.054l.054.008.05.003.007.034-.067.052-.062.057a.28.28 0 0 1-.14.077c-.001-.033-.003-.062-.007-.086a.3.3 0 0 0-.016-.06.65.65 0 0 0-.066-.126l-.02-.003c-.022-.02-.024-.03-.024-.04-.11 0-.195.013-.258.04-.03.013-.065.03-.097.053s-.07.05-.108.082v.12c.001.035.007.062.007.083a1.18 1.18 0 0 1 .012.101l.02.165h.02c-.01.023-.02.08-.02.17l-.002.298.02.305c.01.096.025.16.042.193l.196.008c.064.001.135-.002.213-.01-.008-.086-.005-.182.01-.286a2.01 2.01 0 0 0 .03-.278h-.037l-.02.05-.017.04c-.008.02-.036.035-.09.04l.005-.136c0-.034.003-.058.008-.07.005-.024.008-.05.008-.077l-.022-.02c.001-.006.002-.014.005-.02s.003-.017.007-.026l.095.001c.052.084.095.126.132.125l.28.001-.02.333-.008.348h.02c-.008.013-.014.02-.02.03s-.014.013-.02.018-.016.008-.024.01-.022.006-.04.01v-.02h-.022l.013-.033c.005-.01.007-.02.01-.024l-.16.03-.15.036c-.1 0-.18-.001-.24-.001l-.117.001a.75.75 0 0 0-.11.014l-.007-.022zm-.234-.877c.05-.07.06-.12.03-.145l-.1.12c-.02.028-.035.075-.036.143.026-.008.06-.047.106-.117m-.038.25c.01-.02.02-.037.027-.054l.02-.04-.028-.01c-.027.04-.05.066-.066.08s-.02.043-.02.095c.025-.01.048-.033.067-.07m-.008.276c.007-.003.015-.005.022-.008l.124-.206c-.035.007-.077.034-.122.08s-.05.094-.024.133m.157-.806c.035-.04.06-.09.064-.155h-.058c-.003.008-.007.016-.01.024s-.008.017-.014.028-.013.027-.02.045l-.03.07c-.016.002-.03.006-.04.008l-.01.02c-.008.024-.01.033-.012.044s-.008.024-.012.044l.142-.126m-.01.494c.02-.02.035-.032.048-.04.026-.02.043-.072.05-.16h-.037l-.078.137c-.023.043-.05.08-.07.118.015.013.02.017.024.018l.065-.073m.817.515c.03-.032.046-.06.04-.087-.032.006-.062.02-.09.05s-.04.057-.04.09c.03-.006.058-.024.09-.053"/><path d="M19.1 13.59l.105-.126.107-.206.057-.115c.02-.046.037-.076.048-.09.01-.002.02-.002.027-.003h.02l.024-.063c.006-.02.018-.046.028-.072l-.042.007c-.01.001-.02.004-.03.005-.02-.036-.05-.077-.096-.125s-.066-.08-.07-.1l-.017-.02-.06-.042c-.008-.01-.02-.016-.028-.017 0-.008.003-.015.005-.02-.026-.018-.043-.027-.05-.03s-.018-.007-.03-.01c-.004-.015-.004-.027-.006-.035l-.054-.02c.001-.003.001-.01.001-.02-.033-.006-.07-.03-.107-.075s-.064-.076-.07-.095c-.008 0-.02-.001-.025-.002v-.018h-.017c-.008-.018-.018-.035-.03-.053s-.02-.03-.02-.04c-.01 0-.018-.001-.02-.002l-.043-.12c-.01-.03.012-.05.07-.06.032.022.108.028.23.018l.26-.022c.02-.01.036-.016.047-.016s.02.005.027.014.012.02.014.035l.006.05.106.246c.007.027.01.048.012.063.026.022.028.036.035.046s.007.018.007.023a.13.13 0 0 1 .006.039c.008.004.018.007.02.01.01.05.02.1.04.153l.035.007.09-.164c.037-.066.068-.137.096-.21a1.03 1.03 0 0 0 .061-.21.25.25 0 0 0-.025-.172.16.16 0 0 0 .01-.044l.036.002c.01 0 .02.001.028.002.014 0 .037.01.07.03.014-.008.023-.013.03-.014s.02.002.043.006c0 .01.004.02.01.025s.008.018.004.03c-.076.04-.123.092-.143.16l-.02.1-.025.112c-.017.01-.032.014-.044.013s-.025-.003-.037-.007a.65.65 0 0 1-.088.213.41.41 0 0 0-.062.206c.01.007.018.013.023.016l.02.01c-.001.008-.003.017-.003.026l-.05.01-.055.008-.102.31-.05.162a1.28 1.28 0 0 0-.105.199 1.2 1.2 0 0 0-.053.22c-.043 0-.088-.001-.133-.001l-.125.002c.012-.05.04-.096.08-.137m-.213-1.36c.008-.004.024-.015.05-.03l.11-.062-.014-.015c-.04-.003-.074 0-.107.008s-.066.012-.107.008l-.005.05c-.003.027.007.044.03.053.01-.001.024-.005.042-.013m.144.072c.05-.026.08-.05.088-.068-.018 0-.037.002-.055.008-.01.001-.027.006-.053.013l-.11.03v.01c.008.018.012.018.014.018.002.018.008.02.02.02l-.002.017.098-.048m.043.096a.27.27 0 0 1 .035-.017l.035-.02.06-.038c-.036-.002-.067.005-.103.02l-.094.04-.007.026h.02v.02l.052-.03m.246-.056l.066-.015c.018-.065.008-.12-.032-.16a.33.33 0 0 0-.123-.091c-.014.008-.027.017-.045.024l-.06.027c-.043.02-.07.04-.08.064.02.004.036.004.057 0s.036-.006.054-.01.036-.01.056-.014.04-.005.064-.005c-.01.024-.03.043-.05.056l-.066.038c.004.015.006.02.008.024l.082-.02c.028-.007.06-.008.094-.003a.49.49 0 0 1-.051.051c-.02.015-.033.03-.04.047.02-.003.043-.008.064-.013m-.102.124l.098-.065c-.02-.02-.06-.018-.122.01-.06.024-.094.05-.108.07l.026.015c.036.003.07-.008.106-.032m-.003 1.137l.027-.068.02-.05-.028-.002-.057.1c-.02.033-.035.068-.055.103.04-.004.07-.032.092-.083m.185-.952l.064-.058-.026.001c-.007 0-.015.001-.02.003-.014.003-.054.014-.12.035-.002.004-.004.012-.004.025.01 0 .016.004.02.01s.007.012.017.015c.03-.001.053-.012.07-.03"/></g><path d="M2.36 24.04h11.3m-11.3-1.257h11.3m-11.3-1.255h11.3m-11.3-1.256h11.3m-11.3-1.254h11.3m-11.3-1.256h11.3m-11.3-1.256h11.3M2.36 15.25h11.3m-11.3-1.255h11.3M2.36 12.74h11.3" stroke="#d8d8d8" class="C I"/><path fill="#3d3d3d" d="M4.243 12.112h7.532v12.555H4.243z"/><g class="C G"><path d="M11.776 12.113v12.554H4.243" class="D"/><path stroke="#e8e8e8" d="M4.243 24.667V12.113h7.533"/><path d="M-3.3 14.623h2.5v5.02h-2.5zm20.097 0h2.512v5.02h-2.512z" class="D"/></g><path stroke-width=".123" d="M6.755 27.178h2.5v2.5h-2.5z" class="C D"/><path d="M-.78 1.44h8.16v6.277H-.78zm9.417 0h8.16v6.277h-8.16z" stroke="#232323" class="G C"/><g fill="#72683f" stroke="#9a916c" class="I"><circle cx="18.065" cy="15.892" r=".715"/><circle cx="18.065" cy="18.403" r=".716"/><circle cx="18.065" cy="28.447" r=".715"/><circle cx="15.553" cy="28.447" r=".715"/><circle cx="13.042" cy="28.447" r=".715"/><circle cx="8.021" cy="28.447" r=".715"/><circle cx="2.999" cy="28.447" r=".715"/><circle cx=".488" cy="28.447" r=".715"/><circle cx="-2.024" cy="15.892" r=".715"/><circle cx="-2.024" cy="18.403" r=".716"/><circle cx="-2.024" cy="28.447" r=".715"/><circle cx="4.959" cy="5.295" r=".716"/><circle cx="1.644" cy="5.295" r=".716"/><circle cx="14.374" cy="5.295" r=".716"/><circle cx="11.06" cy="5.295" r=".716"/></g></svg>