<?xml version="1.0" encoding="UTF-8" standalone="no"?>
<!-- Generator: Adobe Illustrator 15.0.1, SVG Export Plug-In . SVG Version: 6.00 Build 0)  -->

<svg
   xmlns:dc="http://purl.org/dc/elements/1.1/"
   xmlns:cc="http://creativecommons.org/ns#"
   xmlns:rdf="http://www.w3.org/1999/02/22-rdf-syntax-ns#"
   xmlns:svg="http://www.w3.org/2000/svg"
   xmlns="http://www.w3.org/2000/svg"
   xmlns:sodipodi="http://sodipodi.sourceforge.net/DTD/sodipodi-0.dtd"
   xmlns:inkscape="http://www.inkscape.org/namespaces/inkscape"
   version="1.1"
   id="svg"
   x="0px"
   y="0px"
   width="9.6999998mm"
   height="9.6999998mm"
   viewBox="0 0 34.370078 34.370078"
   xml:space="preserve"
   inkscape:version="0.91 r13725"
   sodipodi:docname="electret_9.7.svg"><metadata
     id="metadata19"><rdf:RDF><cc:Work
         rdf:about=""><dc:format>image/svg+xml</dc:format><dc:type
           rdf:resource="http://purl.org/dc/dcmitype/StillImage" /><dc:title></dc:title></cc:Work></rdf:RDF></metadata><defs
     id="defs17"><pattern
       y="0"
       x="0"
       height="6"
       width="6"
       patternUnits="userSpaceOnUse"
       id="EMFhbasepattern" /></defs><sodipodi:namedview
     pagecolor="#ffffff"
     bordercolor="#666666"
     borderopacity="1"
     objecttolerance="10"
     gridtolerance="10"
     guidetolerance="10"
     inkscape:pageopacity="0"
     inkscape:pageshadow="2"
     inkscape:window-width="1262"
     inkscape:window-height="959"
     id="namedview15"
     showgrid="false"
     fit-margin-top="0"
     fit-margin-left="0"
     fit-margin-right="0"
     fit-margin-bottom="0"
     inkscape:zoom="32.777779"
     inkscape:cx="5.3352599"
     inkscape:cy="8.6301751"
     inkscape:window-x="482"
     inkscape:window-y="98"
     inkscape:window-maximized="0"
     inkscape:current-layer="svg"
     inkscape:document-units="mm"
     units="mm" /><g
     id="g8341"
     transform="matrix(3.5454091,0,0,3.5454091,0,-87.485912)"><path
       style="fill:#c1c1c1;fill-opacity:1;fill-rule:nonzero;stroke:none"
       d="m 9.6942487,29.522968 c 0,2.688138 -2.1589718,4.84711 -4.8471103,4.84711 C 2.1801497,34.370078 0,32.211106 0,29.522968 c 0,-2.666989 2.1801497,-4.847139 4.8471384,-4.847139 2.6881385,0 4.8471103,2.18015 4.8471103,4.847139 z"
       id="path8084"
       inkscape:connector-curvature="0" /><path
       style="fill:#212121;fill-opacity:1;fill-rule:nonzero;stroke:none"
       d="m 4.8471384,33.925606 c -2.4341553,0 -4.4026412,-1.9685 -4.4026412,-4.402638 0,-2.434156 1.9684859,-4.402642 4.4026412,-4.402642 2.4341385,0 4.4026385,1.968486 4.4026385,4.402642 0,2.434138 -1.9685,4.402638 -4.4026385,4.402638 z"
       id="path8086"
       inkscape:connector-curvature="0" /><path
       style="fill:#3a3a3a;fill-opacity:1;fill-rule:nonzero;stroke:none"
       d="m 4.8471384,25.183826 c 2.4129718,0 4.3603052,1.94732 4.3603052,4.339142 0,2.412971 -1.9473334,4.360305 -4.3603052,4.360305 -2.391822,0 -4.3391412,-1.947334 -4.3391412,-4.360305 0,-2.391822 1.9473192,-4.339142 4.3391412,-4.339142 m 0,-0.105833 c -2.455322,0 -4.4449746,1.989653 -4.4449746,4.444975 0,2.455305 1.9896526,4.466138 4.4449746,4.466138 2.4553052,0 4.4661385,-2.010833 4.4661385,-4.466138 0,-2.455322 -2.0108333,-4.444975 -4.4661385,-4.444975 l 0,0 z"
       id="path8088"
       inkscape:connector-curvature="0" /><path
       style="fill:#595959;fill-opacity:1;fill-rule:nonzero;stroke:none"
       d="m 2.7728136,33.33294 c -0.021167,0 -0.021167,0 -0.021167,0 0.084658,0.04233 0.1693249,0.08467 0.2751582,0.127 -0.0635,-0.08467 -0.1481667,-0.127 -0.2539915,-0.127 z"
       id="path8090"
       inkscape:connector-curvature="0" /><path
       style="fill:#595959;fill-opacity:1;fill-rule:nonzero;stroke:none"
       d="m 3.7041384,33.33294 c -0.1693333,0 -0.2963333,0.127 -0.3175,0.296333 0.1905,0.0635 0.381,0.105833 0.5926667,0.148167 0.021167,-0.04233 0.021167,-0.08467 0.021167,-0.127 0,-0.169334 -0.127,-0.3175 -0.2963334,-0.3175 z"
       id="path8092"
       inkscape:connector-curvature="0" /><path
       style="fill:#595959;fill-opacity:1;fill-rule:nonzero;stroke:none"
       d="m 4.9529718,33.65044 c 0,-0.169334 -0.1481667,-0.3175 -0.3175,-0.3175 -0.1693334,0 -0.3175,0.148166 -0.3175,0.3175 0,0.0635 0.042333,0.148166 0.084667,0.211666 0.1481667,0 0.2963334,0.02117 0.4445,0.02117 0.0635,-0.0635 0.1058334,-0.148166 0.1058334,-0.232833 z"
       id="path8094"
       inkscape:connector-curvature="0" /><path
       style="fill:#595959;fill-opacity:1;fill-rule:nonzero;stroke:none"
       d="m 2.6034802,32.719106 c 0,-0.1905 -0.1269971,-0.3175 -0.2963305,-0.3175 -0.1905,0 -0.3174971,0.127 -0.3174971,0.3175 0,0.02117 0,0.0635 0.021167,0.08467 0.084667,0.08467 0.1693305,0.148167 0.2539972,0.211667 0,0 0.021167,0 0.042333,0 0.1693334,0 0.2963305,-0.127 0.2963305,-0.296333 z"
       id="path8096"
       inkscape:connector-curvature="0" /><path
       style="fill:#595959;fill-opacity:1;fill-rule:nonzero;stroke:none"
       d="m 3.5348051,32.719106 c 0,0.169334 -0.127,0.296334 -0.2963333,0.296334 -0.1693334,0 -0.3175,-0.127 -0.3175,-0.296334 0,-0.1905 0.1481666,-0.3175 0.3175,-0.3175 0.1693333,0 0.2963333,0.127 0.2963333,0.3175 z"
       id="path8098"
       inkscape:connector-curvature="0" /><path
       style="fill:#595959;fill-opacity:1;fill-rule:nonzero;stroke:none"
       d="m 4.4873051,32.719106 c 0,0.169334 -0.1481667,0.296334 -0.3175,0.296334 -0.1693333,0 -0.3175,-0.127 -0.3175,-0.296334 0,-0.1905 0.1481667,-0.3175 0.3175,-0.3175 0.1693333,0 0.3175,0.127 0.3175,0.3175 z"
       id="path8100"
       inkscape:connector-curvature="0" /><path
       style="fill:#595959;fill-opacity:1;fill-rule:nonzero;stroke:none"
       d="m 0.97365817,31.470273 c 0.0635,0.148166 0.12700003,0.275166 0.21166673,0.402166 0.021167,-0.04233 0.021167,-0.0635 0.021167,-0.08467 0,-0.148166 -0.1058333,-0.275166 -0.23283333,-0.3175 z"
       id="path8102"
       inkscape:connector-curvature="0" /><path
       style="fill:#595959;fill-opacity:1;fill-rule:nonzero;stroke:none"
       d="m 2.1378164,31.787773 c 0,0.169333 -0.1269972,0.296333 -0.3174972,0.296333 -0.1693305,0 -0.2963305,-0.127 -0.2963305,-0.296333 0,-0.1905 0.127,-0.3175 0.2963305,-0.3175 0.1905,0 0.3174972,0.127 0.3174972,0.3175 z"
       id="path8104"
       inkscape:connector-curvature="0" /><path
       style="fill:#595959;fill-opacity:1;fill-rule:nonzero;stroke:none"
       d="m 3.0691384,31.787773 c 0,0.169333 -0.127,0.296333 -0.2963248,0.296333 -0.1905,0 -0.3174972,-0.127 -0.3174972,-0.296333 0,-0.1905 0.1269972,-0.3175 0.3174972,-0.3175 0.1693248,0 0.2963248,0.127 0.2963248,0.3175 z"
       id="path8106"
       inkscape:connector-curvature="0" /><path
       style="fill:#595959;fill-opacity:1;fill-rule:nonzero;stroke:none"
       d="m 4.0004718,31.787773 c 0,0.169333 -0.127,0.296333 -0.2963334,0.296333 -0.1693333,0 -0.3175,-0.127 -0.3175,-0.296333 0,-0.1905 0.1481667,-0.3175 0.3175,-0.3175 0.1693334,0 0.2963334,0.127 0.2963334,0.3175 z"
       id="path8108"
       inkscape:connector-curvature="0" /><path
       style="fill:#595959;fill-opacity:1;fill-rule:nonzero;stroke:none"
       d="m 4.9529718,31.787773 c 0,0.169333 -0.1481667,0.296333 -0.3175,0.296333 -0.1693334,0 -0.3175,-0.127 -0.3175,-0.296333 0,-0.1905 0.1481666,-0.3175 0.3175,-0.3175 0.1693333,0 0.3175,0.127 0.3175,0.3175 z"
       id="path8110"
       inkscape:connector-curvature="0" /><path
       style="fill:#595959;fill-opacity:1;fill-rule:nonzero;stroke:none"
       d="m 5.5244718,33.33294 c -0.1693334,0 -0.2963334,0.148166 -0.2963334,0.3175 0,0.0635 0.021167,0.148166 0.084667,0.211666 0.1693333,-0.02117 0.3386667,-0.0635 0.5079718,-0.105833 0.021167,-0.02117 0.021167,-0.0635 0.021167,-0.105833 0,-0.169334 -0.1481385,-0.3175 -0.3174718,-0.3175 z"
       id="path8112"
       inkscape:connector-curvature="0" /><path
       style="fill:#595959;fill-opacity:1;fill-rule:nonzero;stroke:none"
       d="m 6.4769436,33.33294 c -0.1905,0 -0.3175,0.148166 -0.3175,0.3175 0,0 0,0.02117 0,0.02117 0.1905,-0.0635 0.381,-0.127 0.5503333,-0.211667 -0.0635,-0.08467 -0.1481667,-0.127 -0.2328333,-0.127 z"
       id="path8114"
       inkscape:connector-curvature="0" /><path
       style="fill:#595959;fill-opacity:1;fill-rule:nonzero;stroke:none"
       d="m 5.3763051,32.719106 c 0,0.169334 -0.1481667,0.296334 -0.3175,0.296334 -0.1693333,0 -0.2963333,-0.127 -0.2963333,-0.296334 0,-0.1905 0.127,-0.3175 0.2963333,-0.3175 0.1693333,0 0.3175,0.127 0.3175,0.3175 z"
       id="path8116"
       inkscape:connector-curvature="0" /><path
       style="fill:#595959;fill-opacity:1;fill-rule:nonzero;stroke:none"
       d="m 6.3076102,32.719106 c 0,0.169334 -0.127,0.296334 -0.2963333,0.296334 -0.1905,0 -0.3174718,-0.127 -0.3174718,-0.296334 0,-0.1905 0.1269718,-0.3175 0.3174718,-0.3175 0.1693333,0 0.2963333,0.127 0.2963333,0.3175 z"
       id="path8118"
       inkscape:connector-curvature="0" /><path
       style="fill:#595959;fill-opacity:1;fill-rule:nonzero;stroke:none"
       d="m 7.2389436,32.719106 c 0,0.169334 -0.127,0.296334 -0.2963334,0.296334 -0.1693333,0 -0.3175,-0.127 -0.3175,-0.296334 0,-0.1905 0.1481667,-0.3175 0.3175,-0.3175 0.1693334,0 0.2963334,0.127 0.2963334,0.3175 z"
       id="path8120"
       inkscape:connector-curvature="0" /><path
       style="fill:#595959;fill-opacity:1;fill-rule:nonzero;stroke:none"
       d="m 7.5564436,32.719106 c 0,0.0635 0.021167,0.105834 0.0635,0.169334 0.1481666,-0.127 0.2963333,-0.275167 0.4233333,-0.423334 -0.042333,-0.04233 -0.1058333,-0.0635 -0.1693333,-0.0635 -0.1693334,0 -0.3175,0.127 -0.3175,0.3175 z"
       id="path8122"
       inkscape:connector-curvature="0" /><path
       style="fill:#595959;fill-opacity:1;fill-rule:nonzero;stroke:none"
       d="m 5.8419436,31.787773 c 0,0.169333 -0.1481385,0.296333 -0.3174718,0.296333 -0.1693334,0 -0.2963334,-0.127 -0.2963334,-0.296333 0,-0.1905 0.127,-0.3175 0.2963334,-0.3175 0.1693333,0 0.3174718,0.127 0.3174718,0.3175 z"
       id="path8124"
       inkscape:connector-curvature="0" /><path
       style="fill:#595959;fill-opacity:1;fill-rule:nonzero;stroke:none"
       d="m 6.7732769,31.787773 c 0,0.169333 -0.127,0.296333 -0.2963333,0.296333 -0.1905,0 -0.3175,-0.127 -0.3175,-0.296333 0,-0.1905 0.127,-0.3175 0.3175,-0.3175 0.1693333,0 0.2963333,0.127 0.2963333,0.3175 z"
       id="path8126"
       inkscape:connector-curvature="0" /><path
       style="fill:#595959;fill-opacity:1;fill-rule:nonzero;stroke:none"
       d="m 7.7046102,31.787773 c 0,0.169333 -0.127,0.296333 -0.2963333,0.296333 -0.1693333,0 -0.3175,-0.127 -0.3175,-0.296333 0,-0.1905 0.1481667,-0.3175 0.3175,-0.3175 0.1693333,0 0.2963333,0.127 0.2963333,0.3175 z"
       id="path8128"
       inkscape:connector-curvature="0" /><path
       style="fill:#595959;fill-opacity:1;fill-rule:nonzero;stroke:none"
       d="m 8.3396102,31.470273 c -0.1693333,0 -0.3175,0.127 -0.3175,0.3175 0,0.169333 0.1481667,0.296333 0.3175,0.296333 0,0 0.021167,0 0.021167,0 0.1058333,-0.127 0.1905,-0.275167 0.2751667,-0.402167 -0.042333,-0.127 -0.1693334,-0.211666 -0.2963334,-0.211666 z"
       id="path8130"
       inkscape:connector-curvature="0" /><path
       style="fill:#595959;fill-opacity:1;fill-rule:nonzero;stroke:none"
       d="m 0.656161,30.623606 c 0.021167,0.105833 0.042333,0.1905 0.0846667,0.296333 0,-0.02117 0,-0.04233 0,-0.0635 0,-0.105833 -0.0423333,-0.169333 -0.0846667,-0.232833 z"
       id="path8132"
       inkscape:connector-curvature="0" /><path
       style="fill:#595959;fill-opacity:1;fill-rule:nonzero;stroke:none"
       d="m 1.6721554,30.856439 c 0,0.169334 -0.127,0.296334 -0.3175,0.296334 -0.1693305,0 -0.2963305,-0.127 -0.2963305,-0.296334 0,-0.1905 0.127,-0.3175 0.2963305,-0.3175 0.1905,0 0.3175,0.127 0.3175,0.3175 z"
       id="path8134"
       inkscape:connector-curvature="0" /><path
       style="fill:#595959;fill-opacity:1;fill-rule:nonzero;stroke:none"
       d="m 2.6034802,30.856439 c 0,0.169334 -0.1269971,0.296334 -0.2963305,0.296334 -0.1905,0 -0.3174971,-0.127 -0.3174971,-0.296334 0,-0.1905 0.1269971,-0.3175 0.3174971,-0.3175 0.1693334,0 0.2963305,0.127 0.2963305,0.3175 z"
       id="path8136"
       inkscape:connector-curvature="0" /><path
       style="fill:#595959;fill-opacity:1;fill-rule:nonzero;stroke:none"
       d="m 3.5348051,30.856439 c 0,0.169334 -0.127,0.296334 -0.2963333,0.296334 -0.1693334,0 -0.3175,-0.127 -0.3175,-0.296334 0,-0.1905 0.1481666,-0.3175 0.3175,-0.3175 0.1693333,0 0.2963333,0.127 0.2963333,0.3175 z"
       id="path8138"
       inkscape:connector-curvature="0" /><path
       style="fill:#595959;fill-opacity:1;fill-rule:nonzero;stroke:none"
       d="m 4.4873051,30.856439 c 0,0.169334 -0.1481667,0.296334 -0.3175,0.296334 -0.1693333,0 -0.3175,-0.127 -0.3175,-0.296334 0,-0.1905 0.1481667,-0.3175 0.3175,-0.3175 0.1693333,0 0.3175,0.127 0.3175,0.3175 z"
       id="path8140"
       inkscape:connector-curvature="0" /><path
       style="fill:#595959;fill-opacity:1;fill-rule:nonzero;stroke:none"
       d="m 1.2064915,29.903968 c 0,0.1905 -0.1481666,0.3175 -0.31749717,0.3175 -0.16933333,0 -0.29633333,-0.127 -0.29633333,-0.3175 0,-0.169334 0.127,-0.296334 0.29633333,-0.296334 0.16933057,0 0.31749717,0.127 0.31749717,0.296334 z"
       id="path8142"
       inkscape:connector-curvature="0" /><path
       style="fill:#595959;fill-opacity:1;fill-rule:nonzero;stroke:none"
       d="m 2.1378164,29.903968 c 0,0.1905 -0.1269972,0.3175 -0.3174972,0.3175 -0.1693305,0 -0.2963305,-0.127 -0.2963305,-0.3175 0,-0.169334 0.127,-0.296334 0.2963305,-0.296334 0.1905,0 0.3174972,0.127 0.3174972,0.296334 z"
       id="path8144"
       inkscape:connector-curvature="0" /><path
       style="fill:#595959;fill-opacity:1;fill-rule:nonzero;stroke:none"
       d="m 3.0691384,29.903968 c 0,0.1905 -0.127,0.3175 -0.2963248,0.3175 -0.1905,0 -0.3174972,-0.127 -0.3174972,-0.3175 0,-0.169334 0.1269972,-0.296334 0.3174972,-0.296334 0.1693248,0 0.2963248,0.127 0.2963248,0.296334 z"
       id="path8146"
       inkscape:connector-curvature="0" /><path
       style="fill:#595959;fill-opacity:1;fill-rule:nonzero;stroke:none"
       d="m 4.0004718,29.903968 c 0,0.1905 -0.127,0.3175 -0.2963334,0.3175 -0.1693333,0 -0.3175,-0.127 -0.3175,-0.3175 0,-0.169334 0.1481667,-0.296334 0.3175,-0.296334 0.1693334,0 0.2963334,0.127 0.2963334,0.296334 z"
       id="path8148"
       inkscape:connector-curvature="0" /><path
       style="fill:#595959;fill-opacity:1;fill-rule:nonzero;stroke:none"
       d="m 4.9529718,29.903968 c 0,0.1905 -0.1481667,0.3175 -0.3175,0.3175 -0.1693334,0 -0.3175,-0.127 -0.3175,-0.3175 0,-0.169334 0.1481666,-0.296334 0.3175,-0.296334 0.1693333,0 0.3175,0.127 0.3175,0.296334 z"
       id="path8150"
       inkscape:connector-curvature="0" /><path
       style="fill:#595959;fill-opacity:1;fill-rule:nonzero;stroke:none"
       d="m 0.74082766,28.972634 c 0,-0.105833 -0.0635,-0.211666 -0.16933046,-0.254 -0.021167,0.169334 -0.042333,0.359834 -0.0635,0.5715 0.1269971,-0.04233 0.23283046,-0.169333 0.23283046,-0.3175 z"
       id="path8152"
       inkscape:connector-curvature="0" /><path
       style="fill:#595959;fill-opacity:1;fill-rule:nonzero;stroke:none"
       d="m 1.6721554,28.972634 c 0,0.1905 -0.127,0.3175 -0.3175,0.3175 -0.1693305,0 -0.2963305,-0.127 -0.2963305,-0.3175 0,-0.169333 0.127,-0.296333 0.2963305,-0.296333 0.1905,0 0.3175,0.127 0.3175,0.296333 z"
       id="path8154"
       inkscape:connector-curvature="0" /><path
       style="fill:#595959;fill-opacity:1;fill-rule:nonzero;stroke:none"
       d="m 2.6034802,28.972634 c 0,0.1905 -0.1269971,0.3175 -0.2963305,0.3175 -0.1905,0 -0.3174971,-0.127 -0.3174971,-0.3175 0,-0.169333 0.1269971,-0.296333 0.3174971,-0.296333 0.1693334,0 0.2963305,0.127 0.2963305,0.296333 z"
       id="path8156"
       inkscape:connector-curvature="0" /><path
       style="fill:#595959;fill-opacity:1;fill-rule:nonzero;stroke:none"
       d="m 3.5348051,28.972634 c 0,0.1905 -0.127,0.3175 -0.2963333,0.3175 -0.1693334,0 -0.3175,-0.127 -0.3175,-0.3175 0,-0.169333 0.1481666,-0.296333 0.3175,-0.296333 0.1693333,0 0.2963333,0.127 0.2963333,0.296333 z"
       id="path8158"
       inkscape:connector-curvature="0" /><path
       style="fill:#595959;fill-opacity:1;fill-rule:nonzero;stroke:none"
       d="m 4.4873051,28.972634 c 0,0.1905 -0.1481667,0.3175 -0.3175,0.3175 -0.1693333,0 -0.3175,-0.127 -0.3175,-0.3175 0,-0.169333 0.1481667,-0.296333 0.3175,-0.296333 0.1693333,0 0.3175,0.127 0.3175,0.296333 z"
       id="path8160"
       inkscape:connector-curvature="0" /><path
       style="fill:#595959;fill-opacity:1;fill-rule:nonzero;stroke:none"
       d="m 1.2064915,28.041301 c 0,-0.169333 -0.1481666,-0.296333 -0.31749717,-0.296333 0,0 0,0 0,0 -0.0846667,0.169333 -0.14816667,0.338666 -0.21166663,0.529166 0.0635,0.0635 0.12699996,0.08467 0.21166663,0.08467 0.16933057,0 0.31749717,-0.127 0.31749717,-0.3175 z"
       id="path8162"
       inkscape:connector-curvature="0" /><path
       style="fill:#595959;fill-opacity:1;fill-rule:nonzero;stroke:none"
       d="m 2.1378164,28.041301 c 0,0.1905 -0.1269972,0.3175 -0.3174972,0.3175 -0.1693305,0 -0.2963305,-0.127 -0.2963305,-0.3175 0,-0.169333 0.127,-0.296333 0.2963305,-0.296333 0.1905,0 0.3174972,0.127 0.3174972,0.296333 z"
       id="path8164"
       inkscape:connector-curvature="0" /><path
       style="fill:#595959;fill-opacity:1;fill-rule:nonzero;stroke:none"
       d="m 3.0691384,28.041301 c 0,0.1905 -0.127,0.3175 -0.2963248,0.3175 -0.1905,0 -0.3174972,-0.127 -0.3174972,-0.3175 0,-0.169333 0.1269972,-0.296333 0.3174972,-0.296333 0.1693248,0 0.2963248,0.127 0.2963248,0.296333 z"
       id="path8166"
       inkscape:connector-curvature="0" /><path
       style="fill:#595959;fill-opacity:1;fill-rule:nonzero;stroke:none"
       d="m 4.0004718,28.041301 c 0,0.1905 -0.127,0.3175 -0.2963334,0.3175 -0.1693333,0 -0.3175,-0.127 -0.3175,-0.3175 0,-0.169333 0.1481667,-0.296333 0.3175,-0.296333 0.1693334,0 0.2963334,0.127 0.2963334,0.296333 z"
       id="path8168"
       inkscape:connector-curvature="0" /><path
       style="fill:#595959;fill-opacity:1;fill-rule:nonzero;stroke:none"
       d="m 4.9529718,28.041301 c 0,0.1905 -0.1481667,0.3175 -0.3175,0.3175 -0.1693334,0 -0.3175,-0.127 -0.3175,-0.3175 0,-0.169333 0.1481666,-0.296333 0.3175,-0.296333 0.1693333,0 0.3175,0.127 0.3175,0.296333 z"
       id="path8170"
       inkscape:connector-curvature="0" /><path
       style="fill:#595959;fill-opacity:1;fill-rule:nonzero;stroke:none"
       d="m 5.8419436,29.903968 c 0,0.1905 -0.1481385,0.3175 -0.3174718,0.3175 -0.1693334,0 -0.2963334,-0.127 -0.2963334,-0.3175 0,-0.169334 0.127,-0.296334 0.2963334,-0.296334 0.1693333,0 0.3174718,0.127 0.3174718,0.296334 z"
       id="path8172"
       inkscape:connector-curvature="0" /><path
       style="fill:#595959;fill-opacity:1;fill-rule:nonzero;stroke:none"
       d="m 6.7732769,29.903968 c 0,0.1905 -0.127,0.3175 -0.2963333,0.3175 -0.1905,0 -0.3175,-0.127 -0.3175,-0.3175 0,-0.169334 0.127,-0.296334 0.3175,-0.296334 0.1693333,0 0.2963333,0.127 0.2963333,0.296334 z"
       id="path8174"
       inkscape:connector-curvature="0" /><path
       style="fill:#595959;fill-opacity:1;fill-rule:nonzero;stroke:none"
       d="m 7.7046102,29.903968 c 0,0.1905 -0.127,0.3175 -0.2963333,0.3175 -0.1693333,0 -0.3175,-0.127 -0.3175,-0.3175 0,-0.169334 0.1481667,-0.296334 0.3175,-0.296334 0.1693333,0 0.2963333,0.127 0.2963333,0.296334 z"
       id="path8176"
       inkscape:connector-curvature="0" /><path
       style="fill:#595959;fill-opacity:1;fill-rule:nonzero;stroke:none"
       d="m 8.6571102,29.903968 c 0,0.1905 -0.1481666,0.3175 -0.3175,0.3175 -0.1693333,0 -0.3175,-0.127 -0.3175,-0.3175 0,-0.169334 0.1481667,-0.296334 0.3175,-0.296334 0.1693334,0 0.3175,0.127 0.3175,0.296334 z"
       id="path8178"
       inkscape:connector-curvature="0" /><path
       style="fill:#595959;fill-opacity:1;fill-rule:nonzero;stroke:none"
       d="m 8.9534436,29.925134 c 0,0.105834 0.084667,0.232834 0.1905,0.275167 0.021167,-0.1905 0.042333,-0.381 0.042333,-0.592667 -0.127,0.04233 -0.2328333,0.169334 -0.2328333,0.3175 z"
       id="path8180"
       inkscape:connector-curvature="0" /><path
       style="fill:#595959;fill-opacity:1;fill-rule:nonzero;stroke:none"
       d="m 5.3763051,28.972634 c 0,0.1905 -0.1481667,0.3175 -0.3175,0.3175 -0.1693333,0 -0.2963333,-0.127 -0.2963333,-0.3175 0,-0.169333 0.127,-0.296333 0.2963333,-0.296333 0.1693333,0 0.3175,0.127 0.3175,0.296333 z"
       id="path8182"
       inkscape:connector-curvature="0" /><path
       style="fill:#595959;fill-opacity:1;fill-rule:nonzero;stroke:none"
       d="m 6.3076102,28.972634 c 0,0.1905 -0.127,0.3175 -0.2963333,0.3175 -0.1905,0 -0.3174718,-0.127 -0.3174718,-0.3175 0,-0.169333 0.1269718,-0.296333 0.3174718,-0.296333 0.1693333,0 0.2963333,0.127 0.2963333,0.296333 z"
       id="path8184"
       inkscape:connector-curvature="0" /><path
       style="fill:#595959;fill-opacity:1;fill-rule:nonzero;stroke:none"
       d="m 7.2389436,28.972634 c 0,0.1905 -0.127,0.3175 -0.2963334,0.3175 -0.1693333,0 -0.3175,-0.127 -0.3175,-0.3175 0,-0.169333 0.1481667,-0.296333 0.3175,-0.296333 0.1693334,0 0.2963334,0.127 0.2963334,0.296333 z"
       id="path8186"
       inkscape:connector-curvature="0" /><path
       style="fill:#595959;fill-opacity:1;fill-rule:nonzero;stroke:none"
       d="m 8.1914436,28.972634 c 0,0.1905 -0.1481667,0.3175 -0.3175,0.3175 -0.1693334,0 -0.3175,-0.127 -0.3175,-0.3175 0,-0.169333 0.1481666,-0.296333 0.3175,-0.296333 0.1693333,0 0.3175,0.127 0.3175,0.296333 z"
       id="path8188"
       inkscape:connector-curvature="0" /><path
       style="fill:#595959;fill-opacity:1;fill-rule:nonzero;stroke:none"
       d="m 9.1227769,28.972634 c 0,0.1905 -0.1481667,0.3175 -0.3175,0.3175 -0.1693333,0 -0.3175,-0.127 -0.3175,-0.3175 0,-0.169333 0.1481667,-0.296333 0.3175,-0.296333 0.1693333,0 0.3175,0.127 0.3175,0.296333 z"
       id="path8190"
       inkscape:connector-curvature="0" /><path
       style="fill:#595959;fill-opacity:1;fill-rule:nonzero;stroke:none"
       d="m 5.8419436,28.041301 c 0,0.1905 -0.1481385,0.3175 -0.3174718,0.3175 -0.1693334,0 -0.2963334,-0.127 -0.2963334,-0.3175 0,-0.169333 0.127,-0.296333 0.2963334,-0.296333 0.1693333,0 0.3174718,0.127 0.3174718,0.296333 z"
       id="path8192"
       inkscape:connector-curvature="0" /><path
       style="fill:#595959;fill-opacity:1;fill-rule:nonzero;stroke:none"
       d="m 6.7732769,28.041301 c 0,0.1905 -0.127,0.3175 -0.2963333,0.3175 -0.1905,0 -0.3175,-0.127 -0.3175,-0.3175 0,-0.169333 0.127,-0.296333 0.3175,-0.296333 0.1693333,0 0.2963333,0.127 0.2963333,0.296333 z"
       id="path8194"
       inkscape:connector-curvature="0" /><path
       style="fill:#595959;fill-opacity:1;fill-rule:nonzero;stroke:none"
       d="m 7.7046102,28.041301 c 0,0.169333 -0.127,0.3175 -0.2963333,0.3175 -0.1693333,0 -0.3175,-0.148167 -0.3175,-0.3175 0,-0.169333 0.1481667,-0.296333 0.3175,-0.296333 0.1693333,0 0.2963333,0.127 0.2963333,0.296333 z"
       id="path8196"
       inkscape:connector-curvature="0" /><path
       style="fill:#595959;fill-opacity:1;fill-rule:nonzero;stroke:none"
       d="m 8.6359436,28.041301 c 0,0.169333 -0.127,0.3175 -0.2963334,0.3175 -0.1693333,0 -0.3175,-0.148167 -0.3175,-0.3175 0,-0.169333 0.1481667,-0.296333 0.3175,-0.296333 0.1693334,0 0.2963334,0.127 0.2963334,0.296333 z"
       id="path8198"
       inkscape:connector-curvature="0" /><path
       style="fill:#595959;fill-opacity:1;fill-rule:nonzero;stroke:none"
       d="m 1.3546554,27.427476 c 0.1905,0 0.3175,-0.148167 0.3175,-0.317497 0,-0.127 -0.084667,-0.254 -0.2328334,-0.296333 -0.1058305,0.169333 -0.2328305,0.3175 -0.3174971,0.48683 0.042333,0.08467 0.1481666,0.127 0.2328305,0.127 z"
       id="path8200"
       inkscape:connector-curvature="0" /><path
       style="fill:#595959;fill-opacity:1;fill-rule:nonzero;stroke:none"
       d="m 2.6034802,27.109979 c 0,0.16933 -0.1269971,0.317497 -0.2963305,0.317497 -0.1905,0 -0.3174971,-0.148167 -0.3174971,-0.317497 0,-0.169333 0.1269971,-0.296333 0.3174971,-0.296333 0.1693334,0 0.2963305,0.127 0.2963305,0.296333 z"
       id="path8202"
       inkscape:connector-curvature="0" /><path
       style="fill:#595959;fill-opacity:1;fill-rule:nonzero;stroke:none"
       d="m 3.5348051,27.109979 c 0,0.16933 -0.127,0.317497 -0.2963333,0.317497 -0.1693334,0 -0.3175,-0.148167 -0.3175,-0.317497 0,-0.169333 0.1481666,-0.296333 0.3175,-0.296333 0.1693333,0 0.2963333,0.127 0.2963333,0.296333 z"
       id="path8204"
       inkscape:connector-curvature="0" /><path
       style="fill:#595959;fill-opacity:1;fill-rule:nonzero;stroke:none"
       d="m 4.4873051,27.109979 c 0,0.16933 -0.1481667,0.317497 -0.3175,0.317497 -0.1693333,0 -0.3175,-0.148167 -0.3175,-0.317497 0,-0.169333 0.1481667,-0.296333 0.3175,-0.296333 0.1693333,0 0.3175,0.127 0.3175,0.296333 z"
       id="path8206"
       inkscape:connector-curvature="0" /><path
       style="fill:#595959;fill-opacity:1;fill-rule:nonzero;stroke:none"
       d="m 2.1378164,26.178651 c 0,-0.02117 0,-0.02117 0,-0.04233 -0.1481638,0.105834 -0.2751638,0.211667 -0.4021638,0.338664 0.042333,0.02117 0.0635,0.02117 0.084667,0.02117 0.1905,0 0.3174972,-0.148164 0.3174972,-0.317497 z"
       id="path8208"
       inkscape:connector-curvature="0" /><path
       style="fill:#595959;fill-opacity:1;fill-rule:nonzero;stroke:none"
       d="m 3.0691384,26.178651 c 0,0.169334 -0.127,0.317497 -0.2963248,0.317497 -0.1905,0 -0.3174972,-0.148163 -0.3174972,-0.317497 0,-0.16933 0.1269972,-0.29633 0.3174972,-0.29633 0.1693248,0 0.2963248,0.127 0.2963248,0.29633 z"
       id="path8210"
       inkscape:connector-curvature="0" /><path
       style="fill:#595959;fill-opacity:1;fill-rule:nonzero;stroke:none"
       d="m 4.0004718,26.178651 c 0,0.169334 -0.127,0.317497 -0.2963334,0.317497 -0.1693333,0 -0.3175,-0.148163 -0.3175,-0.317497 0,-0.16933 0.1481667,-0.29633 0.3175,-0.29633 0.1693334,0 0.2963334,0.127 0.2963334,0.29633 z"
       id="path8212"
       inkscape:connector-curvature="0" /><path
       style="fill:#595959;fill-opacity:1;fill-rule:nonzero;stroke:none"
       d="m 4.9529718,26.178651 c 0,0.169334 -0.1481667,0.317497 -0.3175,0.317497 -0.1693334,0 -0.3175,-0.148163 -0.3175,-0.317497 0,-0.16933 0.1481666,-0.29633 0.3175,-0.29633 0.1693333,0 0.3175,0.127 0.3175,0.29633 z"
       id="path8214"
       inkscape:connector-curvature="0" /><path
       style="fill:#595959;fill-opacity:1;fill-rule:nonzero;stroke:none"
       d="m 3.5136384,25.39549 c -0.1481666,0.04233 -0.2751666,0.08467 -0.4021666,0.148167 0.042333,0.02117 0.084667,0.02117 0.127,0.02117 0.127,0 0.2328333,-0.0635 0.2751666,-0.169333 z"
       id="path8216"
       inkscape:connector-curvature="0" /><path
       style="fill:#595959;fill-opacity:1;fill-rule:nonzero;stroke:none"
       d="m 4.1698051,25.564824 c 0.1693333,0 0.3175,-0.148167 0.3175,-0.317498 0,-0.02117 -0.021167,-0.04233 -0.021167,-0.04233 -0.2116666,0 -0.4021666,0.04233 -0.6138333,0.08466 0.021167,0.148167 0.1481667,0.275167 0.3175,0.275167 z"
       id="path8218"
       inkscape:connector-curvature="0" /><path
       style="fill:#595959;fill-opacity:1;fill-rule:nonzero;stroke:none"
       d="m 5.3763051,27.109979 c 0,0.16933 -0.1481667,0.317497 -0.3175,0.317497 -0.1693333,0 -0.2963333,-0.148167 -0.2963333,-0.317497 0,-0.169333 0.127,-0.296333 0.2963333,-0.296333 0.1693333,0 0.3175,0.127 0.3175,0.296333 z"
       id="path8220"
       inkscape:connector-curvature="0" /><path
       style="fill:#595959;fill-opacity:1;fill-rule:nonzero;stroke:none"
       d="m 6.3076102,27.109979 c 0,0.16933 -0.127,0.317497 -0.2963333,0.317497 -0.1905,0 -0.3174718,-0.148167 -0.3174718,-0.317497 0,-0.169333 0.1269718,-0.296333 0.3174718,-0.296333 0.1693333,0 0.2963333,0.127 0.2963333,0.296333 z"
       id="path8222"
       inkscape:connector-curvature="0" /><path
       style="fill:#595959;fill-opacity:1;fill-rule:nonzero;stroke:none"
       d="m 7.2389436,27.109979 c 0,0.16933 -0.127,0.317497 -0.2963334,0.317497 -0.1693333,0 -0.3175,-0.148167 -0.3175,-0.317497 0,-0.169333 0.1481667,-0.296333 0.3175,-0.296333 0.1693334,0 0.2963334,0.127 0.2963334,0.296333 z"
       id="path8224"
       inkscape:connector-curvature="0" /><path
       style="fill:#595959;fill-opacity:1;fill-rule:nonzero;stroke:none"
       d="m 8.1914436,27.109979 c 0,0.16933 -0.1481667,0.317497 -0.3175,0.317497 -0.1693334,0 -0.3175,-0.148167 -0.3175,-0.317497 0,-0.169333 0.1481666,-0.296333 0.3175,-0.296333 0.1693333,0 0.3175,0.127 0.3175,0.296333 z"
       id="path8226"
       inkscape:connector-curvature="0" /><path
       style="fill:#595959;fill-opacity:1;fill-rule:nonzero;stroke:none"
       d="m 8.6147769,27.363976 c -0.021167,-0.0635 -0.0635,-0.127 -0.1058333,-0.211664 0,0.105831 0.042333,0.169331 0.1058333,0.211664 z"
       id="path8228"
       inkscape:connector-curvature="0" /><path
       style="fill:#595959;fill-opacity:1;fill-rule:nonzero;stroke:none"
       d="m 5.8419436,26.178651 c 0,0.169334 -0.1481385,0.317497 -0.3174718,0.317497 -0.1693334,0 -0.2963334,-0.148163 -0.2963334,-0.317497 0,-0.16933 0.127,-0.29633 0.2963334,-0.29633 0.1693333,0 0.3174718,0.127 0.3174718,0.29633 z"
       id="path8230"
       inkscape:connector-curvature="0" /><path
       style="fill:#595959;fill-opacity:1;fill-rule:nonzero;stroke:none"
       d="m 6.7732769,26.178651 c 0,0.169334 -0.127,0.317497 -0.2963333,0.317497 -0.1905,0 -0.3175,-0.148163 -0.3175,-0.317497 0,-0.16933 0.127,-0.29633 0.3175,-0.29633 0.1693333,0 0.2963333,0.127 0.2963333,0.29633 z"
       id="path8232"
       inkscape:connector-curvature="0" /><path
       style="fill:#595959;fill-opacity:1;fill-rule:nonzero;stroke:none"
       d="m 7.0907769,26.178651 c 0,0.169334 0.1481667,0.317497 0.3175,0.317497 0.1481667,0 0.2751667,-0.10583 0.2963333,-0.253997 -0.1481666,-0.105833 -0.2751666,-0.23283 -0.4445,-0.338664 -0.1058333,0.0635 -0.1693333,0.169331 -0.1693333,0.275164 z"
       id="path8234"
       inkscape:connector-curvature="0" /><path
       style="fill:#595959;fill-opacity:1;fill-rule:nonzero;stroke:none"
       d="m 5.0588051,25.564824 c 0.1693333,0 0.3175,-0.148167 0.3175,-0.317498 0,0 0,-0.02117 0,-0.04233 -0.1693333,-0.02117 -0.3598333,-0.02117 -0.5291667,-0.02117 -0.021167,0 -0.0635,0 -0.084667,0 0,0.02117 0,0.04233 0,0.0635 0,0.169331 0.127,0.317498 0.2963333,0.317498 z"
       id="path8236"
       inkscape:connector-curvature="0" /><path
       style="fill:#595959;fill-opacity:1;fill-rule:nonzero;stroke:none"
       d="m 6.0112769,25.564824 c 0.1058333,0 0.1905,-0.0635 0.254,-0.148167 -0.1905,-0.0635 -0.381,-0.127 -0.5714718,-0.148167 0,0.169334 0.1269718,0.296334 0.3174718,0.296334 z"
       id="path8238"
       inkscape:connector-curvature="0" /><path
       style="fill:#595959;fill-opacity:1;fill-rule:nonzero;stroke:none"
       d="m 5.3763051,30.856439 c 0,0.169334 -0.1481667,0.296334 -0.3175,0.296334 -0.1693333,0 -0.2963333,-0.127 -0.2963333,-0.296334 0,-0.1905 0.127,-0.3175 0.2963333,-0.3175 0.1693333,0 0.3175,0.127 0.3175,0.3175 z"
       id="path8240"
       inkscape:connector-curvature="0" /><path
       style="fill:#595959;fill-opacity:1;fill-rule:nonzero;stroke:none"
       d="m 6.3076102,30.856439 c 0,0.169334 -0.127,0.296334 -0.2963333,0.296334 -0.1905,0 -0.3174718,-0.127 -0.3174718,-0.296334 0,-0.1905 0.1269718,-0.3175 0.3174718,-0.3175 0.1693333,0 0.2963333,0.127 0.2963333,0.3175 z"
       id="path8242"
       inkscape:connector-curvature="0" /><path
       style="fill:#595959;fill-opacity:1;fill-rule:nonzero;stroke:none"
       d="m 7.2389436,30.856439 c 0,0.169334 -0.127,0.296334 -0.2963334,0.296334 -0.1693333,0 -0.3175,-0.127 -0.3175,-0.296334 0,-0.1905 0.1481667,-0.3175 0.3175,-0.3175 0.1693334,0 0.2963334,0.127 0.2963334,0.3175 z"
       id="path8244"
       inkscape:connector-curvature="0" /><path
       style="fill:#595959;fill-opacity:1;fill-rule:nonzero;stroke:none"
       d="m 8.1914436,30.856439 c 0,0.169334 -0.1481667,0.296334 -0.3175,0.296334 -0.1693334,0 -0.3175,-0.127 -0.3175,-0.296334 0,-0.1905 0.1481666,-0.3175 0.3175,-0.3175 0.1693333,0 0.3175,0.127 0.3175,0.3175 z"
       id="path8246"
       inkscape:connector-curvature="0" /><path
       style="fill:#595959;fill-opacity:1;fill-rule:nonzero;stroke:none"
       d="m 8.8052769,30.538939 c -0.1693333,0 -0.3175,0.127 -0.3175,0.3175 0,0.169334 0.1481667,0.296334 0.3175,0.296334 0.021167,0 0.0635,0 0.084667,0 0.0635,-0.169334 0.1058333,-0.338667 0.1481666,-0.508 -0.042333,-0.0635 -0.127,-0.105834 -0.2328333,-0.105834 z"
       id="path8248"
       inkscape:connector-curvature="0" /><path
       style="fill:none;stroke:#fdfffd;stroke-width:0.16933207px;stroke-linecap:butt;stroke-linejoin:miter;stroke-miterlimit:10;stroke-dasharray:none;stroke-opacity:1"
       d="m 9.5884153,29.522968 c 0,2.624638 -2.1166384,4.741277 -4.7412769,4.741277 -2.6246553,0 -4.7413059,-2.116639 -4.7413059,-4.741277 0,-2.624656 2.1166506,-4.741306 4.7413059,-4.741306 2.6246385,0 4.7412769,2.11665 4.7412769,4.741306 z"
       id="path8250"
       inkscape:connector-curvature="0" /></g></svg>