<svg xmlns="http://www.w3.org/2000/svg" xmlns:xlink="http://www.w3.org/1999/xlink" width="126" height="63"><path d="M41.238 4.603c-.11.12-.116.234-.116 2.774v2.65H2.693l-.26.278V31.58l.12 21.395c.12.12.2.12 19.344.12H41.12v2.688c0 2.056.018 2.712.075 2.79.07.095 2.544.102 39.78.102l39.794-.088c.13-.13.126-53.863-.004-53.993-.072-.072-5.847-.086-39.75-.1L41.354 4.48l-.116.124z" fill="#333"/><path d="M41.238 4.603c-.11.12-.116.234-.116 2.774v2.65H2.693l-.26.278V31.58l.12 21.395c.12.12.2.12 19.344.12H41.12v2.688c0 2.056.018 2.712.075 2.79.07.095 2.544.102 39.78.102l39.794-.088c.13-.13.126-53.863-.004-53.993-.072-.072-5.847-.086-39.75-.1L41.354 4.48l-.116.124zm1.083 3.13v2.505l1.59 1.588h2.276l1.59-1.588v-5h3.54v5l1.59 1.588h2.273l.254-.25c.44-.432.44-.43.44 1.977v2.073l-.9.925v4.96l3.032 3.032h1.947v2.31c0 2.23.004 2.313.12 2.43s.2.12 4.15.12h4.03l2.828-2.82h1.187l.404.4c.378.365.422.4.68.4.205 0 .276.023.276.1 0 .077.17.1 1.17.1h1.17v-1.14h-1.17c-1 0-1.17.013-1.17.1 0 .184-.212.08-.604-.3l-.404-.4H70.73l-2.828 2.82h-7.165v-2.3c0-2.27-.001-2.292-.13-2.43s-.16-.14-1.184-.14h-1.054l-2.6-2.608v-4.25l.9-.925V11.17l-.378-.43.498-.508V5.23h3.54v5.01l.48.477.48.477v15.83l1.117 1.117h5.3l1.443-1.47 1.443-1.47h2.594l.225.24c.124.132.225.266.225.3 0 .04.42.06 1.17.06h1.17v-1.14H74.86c-1.03 0-1.122-.01-1.24-.12s-.212-.12-1.744-.12H70.26l-2.88 2.94H62.75l-.693-.686v-14.85h2.13l1.588-1.59V5.23h3.54v3.48h-1.045l-3.606 3.6h-1.367l-.76.76v12.938l.878.878h3.705l3.067-3.06h1.723c1.492 0 1.723.012 1.723.1s.17.1 1.17.1h1.17v-1.14h-1.17c-1 0-1.17.013-1.17.1s-.25.1-1.902.1H69.83l-3.067 3.06h-2.99l-.455-.444V13.41l.168-.16c.162-.156.192-.16.852-.16h.684l3.606-3.6h.687v.748l1.588 1.59h2.28l1.59-1.588v-5h3.54v5l1.59 1.588h2.273l.254-.25c.448-.44.44-.483.44 2.456v2.552l-.33.346c-.326.34-.33.35-.33.7 0 .284-.02.364-.1.364-.077 0-.1.17-.1 1.17v1.17h1.14v-1.17c0-1-.013-1.17-.1-1.17-.064 0-.1-.064-.1-.22 0-.184.053-.275.33-.565l.33-.346v-5.703l-.378-.43.498-.508V5.23h3.54v5.014l.54.53v2.64l-2.1 2.11v1.24c0 1.063-.013 1.24-.1 1.24s-.1.17-.1 1.17v1.17h1.14v-1.17c0-1-.013-1.17-.1-1.17s-.1-.158-.1-1.063V15.88l2.1-2.11v-2.203l.14.13c.132.124.19.13 1.275.13h1.137l1.588-1.59V5.23h3.54v3.48h-1.048l-4.7 4.7v2.69l-1.26 1.278v.31c0 .235-.022.31-.1.31-.077 0-.1.17-.1 1.17v1.17h1.14v-1.17c0-1-.013-1.17-.1-1.17-.053 0-.1-.055-.1-.132 0-.087.215-.35.63-.77l.63-.64v-2.687l4.288-4.29h.7v.748l1.588 1.59h2.283l1.588-1.59V5.23h3.54v5l1.59 1.588h2.276l1.59-1.588v-5h3.54v5.004l.507.516-1.795 1.798H97.25l-1.1 1.08h-1.106c-.775 0-1.135.024-1.2.075a3.85 3.85 0 0 0-.345.362l-.25.29V17l-.2.232c-.174.193-.2.278-.2.502 0 .2-.023.27-.1.27-.077 0-.1.17-.1 1.17v1.17h1.14v-1.17c0-1-.013-1.17-.1-1.17-.152 0-.1-.184.12-.428l.2-.232v-1.36c0-1.18.013-1.374.1-1.47s.21-.1 1.238-.1h1.138l1.1-1.08h15.76l2.017-2.005.515.505h2.273l1.59-1.588v-5h.36v8.757h-3.816l-1.102 1.102v1.237h-2.02c-1.992 0-2.023 0-2.16.13-.17.16-.178.37-.02.53.116.116.2.12 2.423.12h2.303l.6.54h3.79v.84h-1.9c-1.865 0-1.903 0-2.038.13l-.138.13-.654-.62h-16.51l-.692.66h-.86v-.78h-1.14v2.34h1.14v-.78h1.21l.692-.66h15.83l.406.418-.13.14c-.12.128-.13.202-.13.862v.723l1.096 1.096h3.823v.84H116.3l-.14.148c-.076.08-.162.134-.2.116s-.05-.21-.05-.426v-.395l-1.3-1.326-1.5-1.52-.2-.195h-13.1l-.997.997v.742h-.78v1.14h2.34v-1.14h-.78v-.193c0-.15.064-.258.283-.48l.283-.287h12.436l2.534 2.584v.383c0 .32.024.412.15.56.147.175.148.177.03.284-.106.096-.12.186-.12.84v.732l1.096 1.096h3.823v.84h-3.816l-1.102 1.102v1.46l1.096 1.096h3.823v.84h-3.796l-.305.285a12.19 12.19 0 0 0-.585.594l-.28.31-.432-.443v-7.606l-1.117-1.117h-1.37l-.693-.686v-.418c0-.346-.022-.442-.13-.557l-.13-.14h-8.4l-2.47 2.46h-2.366v1.14h1.17c1 0 1.17-.013 1.17-.1 0-.05.046-.1.102-.1s.698-.594 1.426-1.32l1.324-1.32h7.524v.4c0 .298.025.41.105.478a38.98 38.98 0 0 1 .567.51l.462.42h1.352l.693.686v7.607l.52.53c.286.292.57.547.63.566.072.023.1.093.1.203 0 .132.118.286.548.716l.548.548h3.823v.84h-3.816L115.2 37.58v1.46l1.096 1.096h3.823v.84h-3.816L115.2 42.08v1.46l1.096 1.096h3.823v.84h-4.92v3.346l-2.65 2.592h-1.59l-1.337-1.38h-7.166l-2.59-2.58h-5.54l-1.26-1.238c-.693-.68-1.26-1.274-1.26-1.32s.04-.082.1-.082c.077 0 .1-.17.1-1.17v-1.17h-1.14v1.17c0 1 .013 1.17.1 1.17.065 0 .1.067.1.242 0 .28-.133.13 1.716 1.94L94 48.235h5.5l2.59 2.58h7.207l1.318 1.38h2.252l3.092-3.06h4.15v1.02h-4.606l-1.58 1.594c-.87.877-1.614 1.652-1.654 1.725-.11.196-.098 1.004.016 1.167.102.145.32.176.434.06.043-.043.072-.25.072-.518v-.446l2.962-2.983h4.356v7.198h-.36v-5.07l-1.59-1.588h-2.276l-1.59 1.588v5.07h-3.54v-5.07l-1.59-1.588h-2.276l-1.59 1.588v.75h-.956l-4.85-4.8H88.595l-.867-.873v-2.324l.27-.29c.148-.16.27-.344.27-.41s.04-.122.1-.122c.077 0 .1-.17.1-1.17v-1.17h-1.14v1.17c0 .828.02 1.17.068 1.17.037 0-.044.12-.18.27l-.248.27v2.966l1.296 1.296h10.933l4.855 4.8h1.27v3.54h-3.54v-5.067l-1.588-1.59h-2.28l-.796.794c-.785.783-.796.798-.796 1.063v.27l-3.394-3.386h-5l-1.563-1.514v-3.704h.36v-2.34h-1.14v6.36l.195.2a74.62 74.62 0 0 0 1.013.989l.818.788h4.96l1.803 1.8c.992 1 1.836 1.8 1.876 1.8.055 0 .073.423.073 1.77v1.77h-3.54v-5.067l-1.588-1.59H88.9l-.993.988-3.178-3.177V46.96c0-1.867.012-2.145.1-2.145s.1-.17.1-1.17v-1.17h-1.14v1.17c0 1 .013 1.17.1 1.17s.1.298.1 2.322v2.322l3.39 3.316-.032 5.176H83.77V52.88l-.78-.773V48.46c0-3.2.01-3.646.1-3.646s.1-.17.1-1.17v-1.17h-1.14v1.17c0 1 .013 1.17.1 1.17s.1.4.1 3.24v3.24h-2.308l-1.59 1.588v5.07h-3.54v-3.54h1.048l5.37-5.37V46.93c0-1.84.012-2.114.1-2.114s.1-.17.1-1.17v-1.17h-1.14v1.17c0 1 .013 1.17.1 1.17s.1.255.1 1.934v1.934l-4.948 4.95h-.7v-.75l-1.59-1.588h-2.276l-1.59 1.588v5.07h-3.54v-5.07l-1.59-1.588h-2.276l-1.59 1.588v5.07h-3.54v-5.07l-1.59-1.588H52.9l-1.59 1.588v.75h-.96l-2.16-2.115V50.36l.873-.867h1.052c.832 0 1.076-.018 1.168-.088s.315-.09.97-.1h.855v-2.22h-.293l-.037-2.28-2.07-2.07-10.497-.032v-5.064l.426-.43c.38-.382.43-.46.458-.706l.03-.277h2.804V30.9h-.807l.833-.84h1.94c1.563 0 1.97-.017 2.1-.086.09-.047.337-.263.55-.48l.388-.394h2.853v-4.14h-1.08v-1.2h2.76v-3.66h-4.14v2.52h-.85c-.79 0-.86.01-1 .13-.17.16-.178.37-.02.53.108.108.2.12.93.12h.8v1.56h-1.08v2.846l-.746.753h-1.94c-1.554 0-1.97.017-2.1.085-.09.047-.645.573-1.235 1.17L41.045 30.9h-1.363v5.34h.163c.153 0 .134.03-.285.45l-.448.45v6.412l.273.273 10.824.032 1.47 1.466v1.77h-.9v1.62h-2.063l-1.296 1.296v1.825l.195.2c.107.11.698.7 1.312 1.29l1.117 1.088h1.274v3.54h-3.54v-5.07l-1.59-1.588h-2.276l-1.59 1.588v5.07h-.42v-2.68c0-2.67-.001-2.68-.13-2.82l-.13-.14H3.212V10.807h38.41l.278-.26V5.23h.42v2.505zm31.787 4.903l-2.084 2.07h-1.57v2.22h2.34v-1.907l1.98-1.946c2.1-2.075 2.136-2.108 1.86-2.385s-.303-.254-2.523 1.95zm10.64-1.09l-.618.618v5.842h-.36v2.34h1.14v-7.82l.5-.52c.55-.562.618-.728.4-.956-.24-.24-.397-.167-1.062.498zm8.126 1.288l-1.007 1.007v2.686l-.42.433c-.41.42-.42.44-.42.74 0 .232-.022.306-.1.306-.077 0-.1.17-.1 1.17v1.17h1.14v-1.17c0-1-.013-1.17-.1-1.17-.208 0-.077-.274.33-.694l.42-.433v-2.684l1.59-1.588h.664c.616 0 .673-.01.794-.14.168-.18.165-.347-.008-.51-.13-.12-.2-.13-.973-.13h-.834l-1.007 1.007zm-34.207-.457a2.93 2.93 0 0 0-.725.722c-.068.13-.085.532-.085 2.024v1.862h-1.32v3.66h1.32v.184c0 .1.03.243.067.315.095.188 1.432 1.532 1.625 1.635.582.308 1.296-.372 1-.953-.037-.072-.3-.367-.584-.656l-.517-.525h1.227v-3.66h-1.32v-1.642c0-1.417.013-1.653.094-1.72.14-.117.266-.39.266-.578-.001-.497-.63-.898-1.05-.668zm-12.432.1c-.398.243-.434.38-.434 1.635v1.125h-.36v2.34h2.22v-2.34h-.372l.02-1.185c.022-1.302.007-1.375-.326-1.577a.68.68 0 0 0-.747 0zm2.445.18c-.213.213-.155.396.27.835l.4.404v3.56h4.14v-3.66h-3.083l-.64-.63c-.686-.676-.84-.748-1.077-.5zm27.232 1.846v1.126l-.406.403c-.377.374-.425.403-.668.403-.25 0-.288.026-.842.57l-.58.57H66.2l-.037-.228a.72.72 0 0 0-.192-.375c-.15-.14-.2-.147-.966-.147h-.8l-.175.196c-.174.194-.175.202-.175.95v.755l.204.204c.144.144.258.204.4.204h.186v.884l-.234.038a.61.61 0 0 0-.39.222c-.15.177-.155.215-.155.936v.75l.408.408h.755c.75 0 .756 0 .95-.175l.196-.175v-.8c0-.776-.006-.816-.146-.966a.72.72 0 0 0-.375-.192l-.228-.037v-.884h.175c.26 0 .537-.26.582-.545l.037-.234h7.56l.586-.576c.558-.548.59-.57.655-.447a.87.87 0 0 0 .619.362c.265 0 .452-.13 1.06-.745.35-.352.616-.574.69-.574s.32.198.616.496l.494.496v4.106h-.658c-.59 0-.664.012-.72.116-.042.078-.062 2.887-.062 8.668v8.552h-1.7c-1.67 0-1.7 0-1.7.12 0 .11-.04.12-.548.12h-.548L70.7 40.866l-2.09 2.075-.255.268v2.035l.31.326c.17.18.278.326.24.326-.05 0-.07.316-.07 1.1v1.1h2.34v-2.22H70.12l-.987-.992v-1.392l3.723-3.674h.388c.218 0 .388.026.388.06s.6.06 1.7.06h1.7v.57c0 .918-1.175.8 8.787.8h8.548v3.48h1.14v-3.47l.17-.037c.095-.02.4-.25.7-.52l.52-.482V29.362l2.62-.04 4.136-.04c1.004 0 1.567-.023 1.666-.068.082-.038.19-.166.237-.285s.157-.282.243-.362c.193-.18.2-.363.017-.534-.195-.183-.417-.166-.632.05l-.18.18h-1.434a346.57 346.57 0 0 1-4.053-.04l-2.62-.04-.03-6.67-17.254-.03.03-4.566-1.4-1.404v-2.128h-2.34v1.126zm3.18-.017v1.1h1.32v1.2c0 1.026-.013 1.2-.1 1.2s-.1.17-.1 1.17v1.17h1.14v-1.17c0-1-.013-1.17-.1-1.17s-.1-.173-.1-1.2c0-1.16.004-1.2.12-1.2s.12-.04.12-1.1v-1.1h-2.34v1.1zm-14.852-.753a.82.82 0 0 0-.255.217c-.115.147-.128.238-.128.91v.748l.408.408h.75c.72 0 .76-.01.936-.155a.61.61 0 0 0 .222-.39l.037-.234h1.064v1.68h2.34v-2.22h-.875c-.784 0-.89-.012-1.028-.12s-.243-.12-.827-.12H66.2l-.037-.228c-.02-.133-.1-.3-.192-.375-.146-.137-.204-.147-.886-.16-.402-.01-.787.01-.857.04zm33.52.8l-.554.556v1.44l1.112 1.107h1.44l1.107-1.112v-1.44l-1.112-1.107h-1.44l-.554.556zm1.683.247c.235.1.553.427.64.656.145.385.053.787-.255 1.113-.45.476-1.06.496-1.533.05s-.496-1.06-.05-1.533c.336-.354.786-.462 1.198-.285zm2.816-.247l-.554.556v1.44l1.112 1.107h1.44l1.107-1.112v-1.44l-1.112-1.107h-1.44l-.554.556zm1.683.247c.235.1.553.427.64.656.145.385.053.787-.255 1.113-.45.476-1.06.496-1.533.05s-.496-1.06-.05-1.533c.336-.354.786-.462 1.198-.285zm2.262 1.027v1.83h3.66v-3.66h-3.66v1.83zm2.236-1.027c.235.1.553.427.64.656.145.385.053.787-.255 1.113-.45.476-1.06.496-1.533.05s-.496-1.06-.05-1.533c.336-.354.786-.462 1.198-.285zm-67.377-.053v.4h-1.824l-1.355 1.355v2.23c0 2.15.004 2.236.12 2.35.16.16.37.152.53-.02.13-.137.13-.167.13-2.176v-2.037l.466-.463.466-.463h1.467v.78h2.22v-2.34h-2.22v.4zm47.134.798l-.708.708v.882c0 .744-.014.882-.1.882s-.1.17-.1 1.17v1.17h1.14v-1.17c0-1-.013-1.17-.1-1.17s-.1-.118-.1-.7v-.7l.6-.6c.644-.655.716-.81.48-1.047-.246-.246-.393-.17-1.152.587zm6.72.243l-.35.35v.94c0 .795-.014.94-.1.94s-.1.17-.1 1.17v1.17h1.14v-1.17c0-1-.013-1.17-.1-1.17s-.1-.124-.1-.758v-.758l.24-.26c.27-.292.306-.497.12-.683-.21-.21-.404-.155-.79.23zm-91.284 3.4v2.67h28.372v-.78h1.215c1.1 0 1.233-.01 1.407-.117.49-.3.49-.965 0-1.264-.174-.106-.308-.117-1.407-.117h-1.215v-1.2h1.215c1.1 0 1.233-.01 1.407-.117.49-.3.49-.965 0-1.264-.174-.106-.308-.117-1.407-.117h-1.215v-.36H3.632v2.67zm37.43-.483v1.167l.915.034 2.19.065 1.275.03v.388c0 .38.003.388.163.388s.156.01-.133.3l-.295.3H43.94v-.72h-4.26v5.338h1.44v.81l-1.713 1.71c-.942.94-1.752 1.782-1.8 1.87-.07.133-.086.592-.086 2.552v2.4l-.305.298c-.168.164-.343.37-.4.46-.072.136-.085.91-.085 4.818l.067 4.787c.096.19 1.013 1.114 1.205 1.215.123.065.418.086 1.215.086h1.053v1.2h3.66v-3.9h-3.66v1.2h-1.656l-.383-.396v-8.396l.305-.298c.5-.5.475-.324.475-3.01V31l1.713-1.71c.942-.94 1.752-1.782 1.8-1.87.06-.11.086-.36.086-.795v-.633h.69l.84.844c.46.464.912.883 1 .93.602.32 1.3-.378.983-.982-.047-.09-.56-.63-1.14-1.205l-1.055-1.043v-.648c0-.367.026-.664.06-.685s.06-.103.06-.184v-.146h.783c.563 0 .828-.024.945-.086.193-.102 1.35-1.267 1.445-1.455.037-.072.067-.227.067-.345 0-.198.014-.214.18-.214h.18v-2.34h-2.22v.78h-2.16v-1.68h-2.22v1.167zm35.63-.39v.296l-1.858.038-.275.275c-.21.21-.283.332-.308.522-.03.22-.012.268.157.437s.22.187.433.158c.134-.018.303-.09.376-.157.118-.11.207-.125.804-.125h.67v.6h1.14v-2.34h-1.14v.296zm-9.537 2.9v.856l-1.192 1.188h-1.756l-.175.196c-.174.194-.175.2-.175.95v.755l.408.408h.755c.75 0 .756 0 .95-.175.19-.17.197-.193.216-.705l.02-.53 1.578-1.6h1.71v-2.22h-2.34v.856zm3.18.254v1.1h2.34v-.48h.48c.387 0 .48.018.48.1s.17.1 1.17.1h1.17v-1.14h-1.17c-1 0-1.17.013-1.17.1 0 .072-.093.1-.48.1h-.48v-.96h-2.34v1.1zm31.103.4l-1.026 1.02h-2.365v1.14h1.17c1 0 1.17-.013 1.17-.1 0-.05.046-.1.1-.1s.603-.5 1.217-1.1l1.115-1.1h8.65l.66.7c.71.745.852.817 1.093.56.225-.24.164-.366-.546-1.114-.368-.387-.725-.75-.795-.808-.117-.096-.46-.104-4.77-.105h-4.645l-1.026 1.02zM54.97 23.756l-.233.233v1.634h-.78v2.22h2.34v-2.22h-.78v-.635c0-.545.017-.657.12-.788.066-.084.12-.216.12-.294s-.054-.196-.12-.262c-.188-.188-.402-.15-.667.113zm49.013.667v.36h-.6l-1.87 1.8h-.564c-.46 0-.564-.016-.564-.1s-.17-.1-1.17-.1h-1.17v1.14h1.17c1 0 1.17-.013 1.17-.1s.123-.1.747-.1h.747l.89-.9c.708-.715.924-.9 1.052-.9.157 0 .16.01.16.36v.36h2.34v-2.22h-2.34v.36zm3.18.75v1.1h2.34v-.72h.898l.538.5c.362.343.584.5.68.5.183 0 .404-.207.403-.377s-.076-.254-.76-.9l-.55-.52h-1.2v-.72h-2.34v1.1zM10.7 28.052v2.67H32l.033-2.13 1.83 1.79v.68c0 .6.014.693.12.8.16.16.37.152.53-.02.12-.13.13-.2.13-.964v-.826l-1.205-1.18c-.663-.65-1.257-1.204-1.32-1.234-.106-.05-.114-.13-.114-1.155v-1.1H10.7v2.67zm46.427-1.32v1.1h.63l-2.01 1.975h-.704c-.82 0-.68-.077-1.624.908l-.67.7v.73h-1.44v4.14h3.66v-.36h2.46v1.64l-.473.485c-.477.49-.605.728-.606 1.13-.001.396.373.76.78.76.36 0 .78-.362.78-.673 0-.044.19-.268.424-.498s.463-.49.5-.58c.068-.128.086-.486.086-1.712v-1.55l.455-.444h2.604v-3.3h-3.66v3.24h-3.36v-2.28h-1.44v-.213c0-.187.067-.282.55-.78l.55-.567h1.43l1.27-1.236c.7-.68 1.296-1.3 1.327-1.38.05-.13.092-.143.435-.143h.378v-2.22h-2.34v1.1zm49.966 1.8v.87h-.744l-2.71 2.7h-3.266v-.36h-2.34v1.14h5.962l2.664-2.655 6.49.022V27.66h-6.058v.87zm-35.747-.32c-.067.072-.122.2-.122.262 0 .124.29.545.44.64.038.024.495.045 1.015.045.8.001.945.015.945.09s.17.1 1.17.1h1.17V28.2h-1.17c-1 0-1.17.013-1.17.1s-.128.1-.788.1c-.763 0-.792 0-.927-.15-.172-.185-.4-.193-.562-.02zM56.795 30.5l-.678.678v.405c0 .35.02.425.147.552.18.18.41.19.58.02.104-.104.12-.17.087-.37-.04-.242-.034-.25.427-.713l.466-.47h5.76c4.97 0 5.776.014 5.876.1s.454.088 2.144.088h2.028v.3h2.34v-1.145l-3.02.042c-2.757.038-3.033.033-3.162-.057s-.66-.1-6.23-.1h-6.087l-.678.678zm41.25.012v.57h4.598l.13-.14c.168-.18.165-.347-.008-.5-.132-.124-.19-.13-1.26-.13h-1.12v-.36h-2.34v.57zm-34 2.34v1.65h3.66v-2.1h.285c.255 0 .31.026.51.24.26.275.456.308.642.11s.15-.373-.157-.72c-.154-.174-.31-.337-.345-.36s-.26-.045-.5-.045h-.435v-.42h-3.66v1.65zm9.597-1.014c0 .085-.127.094-1.135.076-1.043-.018-1.145-.01-1.26.093a.41.41 0 0 0-.005.574c.112.11.2.12 1.26.12.973 0 1.14.013 1.14.1s.17.1 1.17.1h1.17v-1.14h-1.17c-1.03 0-1.17.01-1.17.096zm33.47.535v.45l-.93-.013c-.903-.013-.933-.01-1.08.13-.182.17-.194.378-.03.54.1.1.2.12 1.08.12h.96v.9h6.058v-.15c0-.082.02-.15.047-.15s.2.156.4.347l.343.347v4.616l-.18.17c-.102.096-.18.232-.18.312 0 .175.216.387.396.387.12 0 .592-.338.698-.502.024-.037.044-1.254.045-2.704v-2.636l-.558-.558c-.503-.503-.58-.558-.78-.558h-.22v-1.5h-6.058v.45zM45.02 34.23v2.07h1.953l.388.394c.515.523.606.565 1.225.565.5 0 .513.001.513.153 0 .257.143.45.896 1.196l.724.72v2.91h1.545l.07.168c.038.092.446.544.907 1.004l.837.836v.9c0 .794.014.924.12 1.097.066.108.187.227.27.264.127.058.15.11.15.33v.26h-.6v2.22h2.34v-1.1c0-1.07-.004-1.1-.12-1.1s-.12-.04-.12-.645c0-.71-.092-.97-.4-1.106-.148-.068-.15-.077-.15-.812 0-.426-.028-.8-.067-.875s-.353-.42-.704-.776l-.637-.645h1.168v-4.5h-4.113l-.313-.317c-.302-.306-.313-.33-.313-.65 0-.385-.146-.653-.475-.875-.178-.12-.277-.136-.823-.136h-.62v-3.6h-3.66v2.07zm-34.3.9v2.67h21.294v-3.12h1.19c1.165 0 1.192 0 1.32-.14.168-.18.165-.347-.008-.5-.133-.125-.2-.13-1.32-.13h-1.18v-1.44H10.7v2.67zm62.922-1.56c0 .05-.037.1-.082.1s-.15.054-.234.12c-.146.115-.243.12-2.143.12h-2l-2.512 2.46h-5.06l-1.462 1.455c-.912.907-1.705 1.76-2.107 2.264-.855 1.074-1.685 2.3-1.685 2.5 0 .275.358.49.576.343.036-.024.3-.39.588-.815.848-1.253 1.354-1.846 2.94-3.443l1.504-1.514h5.02l2.512-2.46H70.9l3.237-.04 1.844-.04v-1.12h-1.17c-1 0-1.17.013-1.17.1zm24.413.47v.58h2.34v-.3h3.386l2.59 2.58h.744v1.8h6.058v-2.58h-6.445l-2.59-2.58h-1.287l-3.04-.04-1.754-.04v.58zm-24.46 1.332c-.065.074-.415.088-2.216.088H69.23L67 37.68h-4.826l-.2.195a159.41 159.41 0 0 0-1.349 1.372l-1.148 1.177v1.292l-.27.29c-.3.32-.342.52-.15.714.215.215.404.156.82-.26l.38-.38v-1.336L62.5 38.46h4.867l2.23-2.22H71.6c1.758 0 2.022.012 2.022.1s.17.1 1.17.1h1.17v-1.14h-1.155c-.936 0-1.17.02-1.232.1zm24.46.477v.57h1.17c1 0 1.17-.013 1.17-.1s.178-.1 1.245-.1h1.245l4.528 4.53v3.328h3.66v-1.86h.9v1.5h2.22v-2.358l-1.56.036-1.56.037v-1.853h-3.687l-4.145-4.14h-1.423c-1.225 0-1.423-.013-1.423-.1s-.17-.1-1.17-.1h-1.17v.57zm-29.672 2.19l-.997 1.02h-4.493l-.79.758-.924.903c-.13.14-.135.186-.135 1.268V43.1l-.873.867H59.11c-.752 0-1.078.02-1.144.075-.05.04-.26.256-.46.478l-.37.403v2.334c0 2.138.01 2.344.105 2.45.058.065.34.338.625.607.56.525.706.583.938.367.24-.222.175-.377-.38-.908l-.5-.5V45.2l.455-.444h2.148l1.296-1.296v-2.287l.69-.668.69-.668h4.51l1.984-2.04h3.944v.36h2.34v-1.14H69.37l-.997 1.02zm29.672-.45v.57h1.17c1 0 1.17-.013 1.17-.1s.172-.1 1.186-.1h1.185l1.616 1.62h-2.248v4.5h1.44v.592c0 .5.018.615.12.744.107.136.12.243.12.998v.845h2.34V45.06l-1.77-.034-.035-.93h1.445v-4.5h-.173c-.145 0-.358-.19-1.345-1.2l-1.172-1.2h-1.354c-1.164 0-1.354-.013-1.354-.1s-.17-.1-1.17-.1h-1.17v.57zM41.72 39.984v2.245l.555.02c.305.01 1.344.01 2.31 0l1.754-.02v-.294c0-.264.018-.304.174-.384.2-.098 2.2-2.16 2.324-2.384.314-.566-.382-1.294-.957-1.002-.072.037-.448.38-.836.764l-.705.697v-1.888h-4.62v2.245zm-6.94-1.408c-.366.223-.378.294-.378 2.196v1.72l-.75.7h-1.65v-1.92H3.632v5.338h28.372v-1.92h1.053c1.107 0 1.25-.028 1.49-.293.107-.118.118-.12.193-.02.062.082.08.572.08 2.282.002 1.8.017 2.207.1 2.347.1.192 1.406 1.46 1.682 1.63.17.107.374.112 4.067.112 3.26 0 3.913-.014 4.05-.086.09-.047.702-.628 1.36-1.3l1.2-1.204H50v-3.9h-3.66v2.73l-2.25 2.248h-6.817l-.947-.87-.002-2.178c-.002-2.28-.001-2.274-.28-2.6l-.14-.17v-2.2c0-2.076-.007-2.21-.117-2.392-.222-.364-.65-.475-1.004-.26zm63.264.812v.57h1.17c.87 0 1.17-.018 1.17-.072 0-.04.108.033.24.162l.24.234v2.034l-.33.346c-.362.38-.414.57-.2.775.136.136.352.156.5.045.05-.04.26-.257.46-.478l.37-.403v-2.664l-.47-.47c-.352-.352-.51-.47-.63-.47-.103 0-.16-.032-.16-.1 0-.077-.17-.1-1.17-.1h-1.17v.57zM69.673 39.3c-.115.06-.56.462-.99.893l-.78.784h-2.278l-1.396 1.396c-1.49 1.49-1.547 1.572-1.276 1.843s.357.206 1.738-1.17l1.294-1.3h2.267l.847-.84c.466-.462.888-.84.94-.84.15 0 .353-.263.353-.458 0-.207-.215-.445-.394-.435a1.01 1.01 0 0 0-.326.116zm3.867 1.315c-.152.062-.24.17-.297.363-.024.082-.284.396-.577.697-.574.59-.643.753-.413.983.237.237.41.164 1-.42l.537-.54h2.192v-1.14h-1.155c-.635 0-1.2.026-1.277.053zm24.484.528c-.02.322-.04.902-.04 1.3v.705h-.66v-.66h-1.14v2.34h1.14v-.54h.65l.02.628c.03.943-.055.897 1.715.92l1.422.018.438.424c.426.413.444.423.685.39.344-.046.5-.218.5-.553 0-.258-.02-.29-.555-.823l-.555-.555-2.52-.036v-2.634l.195-.177c.178-.162.233-.178.63-.18h.435v-1.14h-2.32l-.04.585zM76.69 43.647c0 1.13.004 1.17.12 1.17s.12.04.12 1.758v1.758l-.396.383h-7.594l-.808.78H61.85l-3.322 3.314-2.877-2.835h-5.59l-.346.31c-.2.17-.378.354-.42.405-.1.14-.09.35.043.483.192.192.392.15.714-.15l.29-.27h4.987l1.53 1.5c1.26 1.236 1.56 1.5 1.697 1.5s.46-.292 1.91-1.74l1.743-1.74h6.277l.808-.78h7.6l.82-.82v-1.93c0-1.246.02-1.93.06-1.93s.06-.43.06-1.17v-1.17h-1.14v1.17zm1.8 0c0 1 .013 1.17.1 1.17s.1.252.1 1.905v1.905l-.706.704-.706.704h-7.304l-.64.63-.64.63h-1.05c-1.02 0-1.055 0-1.18.14-.163.173-.167.365-.01.52.112.112.2.12 1.36.12h1.24l1.278-1.26h7.307l1.834-1.834v-2.082c0-1.81.012-2.082.1-2.082s.1-.17.1-1.17v-1.17h-1.14v1.17zm10.617 0c0 1 .013 1.17.1 1.17s.1.107.1.6v.6h-.38c-.32 0-.4.022-.5.14-.118.126-.13.203-.13.828 0 .762-.005.75.44 1.127l.29.246h1.886c1.806 0 1.89-.01 2.006-.12.157-.157.152-.353-.015-.546a29.12 29.12 0 0 0-.923-.915l-.79-.76h-1.092v-.6c0-.493.016-.6.1-.6s.1-.17.1-1.17v-1.17h-1.14v1.17zm3.54 0c0 1 .013 1.17.1 1.17.063 0 .1.064.1.216 0 .194.073.292.728.975l.873.894.145.135h5.388l2.512 2.46h10.5l.29-.25c.364-.314.434-.407.437-.575.002-.178-.2-.375-.388-.375-.087 0-.247.088-.382.2l-.232.2h-9.913l-2.506-2.46h-5.392l-.64-.656c-.63-.646-.727-.784-.55-.784.077 0 .1-.17.1-1.17v-1.17h-1.14v1.17zm-18.772-.06l-.64.63H71.16l-.205-.18c-.238-.21-.45-.23-.62-.06-.2.2-.153.404.17.728l.29.29h2.177v.9h-.96v2.22h2.34v-2.22h-.6v-1.043l.66-.67c.707-.717.78-.867.54-1.107s-.39-.166-1.077.5zm38.086 1.44v.45h-.685c-.643 0-.696.01-.863.15-.156.13-.235.15-.634.15h-.456v-.72h-2.34v2.22h2.34v-.72h.595c.547 0 .6-.012.773-.15s.23-.15.724-.15h.546v.66h2.22v-2.34h-2.22v.45zm-53.625 2.34v1.65h3.66v-3.3h-3.66v1.65zm5.698 0v1.65h3.66v-3.3h-3.66v1.65z" fill="#4d4d4d"/><path d="M3.532 19.167v2.67h28.372v-.78c0-4.078 0 2.586 0-1.5v-1.2c0-4.078 0 2.586 0-1.5v-.36H3.532zm7.078 8.877v2.67h21.3l.033-2.13.033-.95c.008-.12-.063-.134-.063-1.158v-1.1H10.6v2.67zm0 7.078v2.67h21.294v-3.12c0-3.736 0 2.234 0-.78v-1.44H10.6zM31.904 43.2v-1.92H3.532v5.34h28.372V44.7c0-4.707 0 4.753 0-1.5zm13.644 14.868l-3.22-.107v-2.15h.622l-.3-.32-.3-.3v-2.276l.788-.798.798-.797H46.2l1.595 1.595v2.276l-.3.3-.3.32h.622v2.16h3.54v-2.16h.622l-.3-.32-.3-.3v-2.276l.798-.798.788-.797H55.2l1.595 1.595v2.276l-.3.3-.3.32h.622v2.16h3.54v-2.16h.622l-.3-.32-.3-.3v-2.276l.798-.798.788-.797h2.286l.788.797.798.798v2.276l-.3.3-.3.32h.622v2.16h3.54v-2.16h.622l-.3-.32-.3-.3v-2.276l1.595-1.595h2.276l.788.797.798.798v2.276l-.3.3-.3.32h.622v2.16h3.54v-2.16h.622l-.3-.32-.3-.3v-2.276l1.595-1.595h2.276l.798.797.788.798v2.276l-.3.3-.3.32h.622v2.16h3.54v-2.16h.632l-.632-.632v-2.276l1.595-1.595h2.276l.798.797.788.798v2.276l-.3.3-.3.32h.622v2.16h3.54v-2.16h.632l-.632-.632V52.9l1.595-1.595h2.276l1.595 1.595v2.276l-.32.3-.3.32h.632v2.16h3.53v-2.16h.632l-.3-.32-.32-.3V52.9l1.595-1.595h2.276l1.595 1.595v2.276l-.32.3-.3.32h.632v2.16h3.54v-2.16h.622l-.3-.32-.3-.3V52.9l.788-.798.798-.797h2.276l1.595 1.595v2.276l-.632.632h.632v2.16h.36V49.1l-2.46.04-2.46.03v-3.696l2.46.04 2.46.03V44.6h-1.74v-.564l-.32.3-.3.3h-1.44l-1.1-1.1v-1.44l1.1-1.1h1.44l.3.3.32.3v-.564h1.74V40.1h-1.74v-.564l-.32.3-.3.3h-1.44l-1.1-1.1v-1.44l1.1-1.1h1.44l.3.3.32.3v-.564h1.74V35.6h-1.74v-.574l-.632.632h-1.44l-.554-.554-.554-.564V33.1l.554-.545.554-.554h1.44l.3.3.32.3v-.564h1.74v-.963h-1.74v-.564l-.32.3-.3.3h-1.44l-1.1-1.1V28.6l1.1-1.1h1.44l.3.3.32.3v-.564h1.74v-.953h-1.74v-.574l-.632.632h-1.44l-.554-.554-.554-.564v-1.44l1.1-1.1h1.44l.3.32.32.3v-.564h1.74v-.963h-1.74v-.564l-.32.3-.3.3h-1.44l-1.1-1.1v-1.44l1.1-1.1h1.44l.3.3.32.3v-.564h1.74V17.6h-1.74v-.564l-.32.3-.3.32h-1.44l-.554-.564-.554-.554v-1.44l1.1-1.1h1.44l.3.32.32.3v-.564h1.74v-8.82h.05V58.02l-68.13.04c-2.122-.038-4.34.024-6.497.01zm-.496-.097l1.653-.05s-.087-.2-.195-.35c-.214-.32-.647-.643-.992-.74-.492-.137-.975-.05-1.43.253-.26.173-.68.694-.68.836 0 .03.724.05 1.644.05zm8.996 0l1.653-.05s-.087-.2-.195-.35c-.214-.32-.647-.643-.992-.74-.492-.137-.975-.05-1.43.253-.26.173-.68.694-.68.836 0 .03.724.05 1.644.05zm9.006 0l1.644-.05s-.087-.2-.195-.35c-.214-.32-.647-.643-.992-.74-.492-.137-.975-.05-1.43.253-.26.173-.68.694-.68.836 0 .03.734.05 1.653.05zm8.996 0l1.644-.05s-.087-.2-.195-.35c-.214-.32-.647-.643-.992-.74-.492-.137-.975-.05-1.43.253-.26.173-.68.694-.68.836 0 .03.734.05 1.653.05zm8.996 0l1.644-.05s-.087-.2-.195-.35c-.214-.32-.647-.643-.992-.74-.492-.137-.975-.05-1.43.253-.26.173-.68.694-.68.836 0 .03.734.05 1.653.05zm8.996 0l1.644-.05s-.087-.2-.195-.35c-.214-.32-.647-.643-.992-.74-.492-.137-.975-.05-1.43.253-.26.173-.68.694-.68.836 0 .03.734.05 1.653.05zm8.996 0l1.653-.05s-.097-.2-.204-.35c-.214-.32-.647-.643-.992-.74-.492-.137-.975-.05-1.43.253-.26.173-.68.694-.68.836 0 .03.734.05 1.653.05zm8.996 0l1.653-.05s-.087-.2-.195-.35a2.06 2.06 0 0 0-1.002-.74c-.492-.137-.965-.05-1.42.253-.26.173-.7.694-.7.836 0 .03.734.05 1.653.05zm8.996 0l1.653-.05s-.087-.2-.195-.35a2.06 2.06 0 0 0-1.002-.74c-.492-.137-.965-.05-1.42.253-.26.173-.68.694-.68.836 0 .03.724.05 1.644.05zM41.765 5.12l78 .126v2.1h-.632l.32.3.3.32v2.276l-.798.798-.798.788h-2.276l-.798-.788-.788-.798V7.98l.3-.32.3-.3h-.622v-2.1h-3.54v2.1h-.632l.632.632v2.276l-.798.798-.798.788H106.9l-.798-.788-.798-.798V7.98l.632-.632h-.632v-2.1h-3.53v2.1h-.632l.632.632v2.276l-.798.798-.798.788h-2.276l-.798-.788-.798-.798V7.98l.3-.32.32-.3h-.632v-2.1h-3.54v2.1h-.622l.3.3.3.32v2.276l-.788.798-.798.788H88.9l-1.585-1.585V7.98l.3-.32.32-.3h-.632v-2.1h-3.54v2.1h-.622l.3.3.3.32v2.276l-.788.798-.798.788H79.9l-.798-.788-.798-.798V7.98l.3-.32.3-.3h-.622v-2.1h-3.54v2.1h-.622l.3.3.3.32v2.276L73.2 11.84h-2.286l-1.585-1.585V7.98l.3-.32.3-.3h-.622v-2.1h-3.54v2.1h-.622l.3.3.3.32v2.276L64.2 11.84h-2.286l-1.585-1.585V7.98l.3-.32.3-.3h-.622v-2.1h-3.54v2.1h-.622l.3.3.3.32v2.276L55.2 11.84H52.9l-1.585-1.585V7.98l.3-.32.3-.3h-.622v-2.1h-3.54v2.1h-.622l.3.3.3.32v2.276l-.798.798-.798.788H43.91l-.798-.788-.788-.798V7.98l.3-.32.3-.3h-.622v-2.1h-.42v5.32l-.136.126m.01 41.782c.13.138.126.14.126 2.8v2.645c-.045 0-.1-.01-.136-.01m3.287-2.13c.276 0 .56-.05.74-.146a1.92 1.92 0 0 0 .827-.807c.154-.28.175-.378.175-.797s-.02-.52-.175-.798a1.86 1.86 0 0 0-.827-.797 2.15 2.15 0 0 0-1.225-.107c-.53.163-1.08.734-1.225 1.274-.2.77.2 1.618.982 2.033.18.096.453.146.73.146zm8.996 0c.276 0 .56-.05.74-.146a1.92 1.92 0 0 0 .827-.807c.154-.28.175-.378.175-.797s-.02-.52-.175-.798a1.86 1.86 0 0 0-.827-.797 2.15 2.15 0 0 0-1.225-.107c-.53.163-1.08.734-1.225 1.274-.2.77.2 1.618.982 2.033.18.096.453.146.73.146zm9.006 0c.276 0 .55-.05.73-.146a1.92 1.92 0 0 0 .827-.807c.154-.28.175-.378.175-.797s-.02-.52-.175-.798a1.86 1.86 0 0 0-.827-.797 2.15 2.15 0 0 0-1.225-.107c-.53.163-1.08.734-1.225 1.274-.2.77.2 1.618.982 2.033.18.096.463.146.74.146zm8.996 0c.276 0 .55-.05.73-.146a1.92 1.92 0 0 0 .827-.807c.154-.28.175-.378.175-.797s-.02-.52-.175-.798a1.86 1.86 0 0 0-.827-.797 2.15 2.15 0 0 0-1.225-.107c-.53.163-1.08.734-1.225 1.274-.2.77.2 1.618.982 2.033.18.096.463.146.74.146zm8.996 0c.276 0 .55-.05.73-.146a1.92 1.92 0 0 0 .827-.807c.154-.28.185-.378.185-.797s-.03-.52-.185-.798a1.86 1.86 0 0 0-.827-.797c-.286-.146-.914-.2-1.216-.107a2.06 2.06 0 0 0-1.235 1.274c-.2.77.2 1.618.982 2.033.18.096.463.146.74.146zm8.996 0c.276 0 .55-.05.73-.146a1.94 1.94 0 0 0 .836-.807c.154-.28.175-.378.175-.797s-.02-.52-.175-.798c-.2-.36-.465-.608-.836-.797-.286-.146-.914-.2-1.216-.107a2.06 2.06 0 0 0-1.235 1.274c-.2.77.2 1.618.982 2.033.18.096.463.146.74.146zm8.996 0c.276 0 .55-.05.73-.146a1.94 1.94 0 0 0 .836-.807c.154-.28.175-.378.175-.797s-.02-.52-.175-.798c-.2-.36-.465-.608-.836-.797-.286-.146-.914-.2-1.216-.107-.53.163-1.08.734-1.225 1.274-.2.77.2 1.618.982 2.033.18.096.453.146.73.146zm8.996 0c.276 0 .55-.05.73-.146a1.94 1.94 0 0 0 .836-.807c.154-.28.175-.378.175-.797s-.02-.52-.175-.798c-.2-.36-.465-.608-.836-.797-.286-.146-.914-.2-1.216-.107-.53.163-1.08.734-1.225 1.274-.2.77.2 1.618.982 2.033.18.096.453.146.73.146zm8.996 0c.276 0 .56-.05.74-.146a1.92 1.92 0 0 0 .827-.807c.154-.28.175-.378.175-.797s-.02-.52-.175-.798a1.86 1.86 0 0 0-.827-.797 2.15 2.15 0 0 0-1.225-.107c-.53.163-1.08.734-1.225 1.274-.2.77.2 1.618.982 2.033.18.096.453.146.73.146zm.03-7.353a1.1 1.1 0 0 0 .759-.37c.308-.326.408-.733.263-1.12-.086-.23-.407-.55-.642-.652-.412-.177-.86-.073-1.196.282-.447.472-.428 1.086.05 1.537.236.223.5.33.768.32zm2.976-.01c.072 0 .087-.185.087-1.1 0-1.018-.01-1.1-.107-1.1-.3.01-.786.4-.914.74a1.12 1.12 0 0 0 .019.778c.146.34.62.7.914.7zm-2.976-4.493c.268-.01.533-.132.76-.37.308-.326.408-.723.263-1.1a1.47 1.47 0 0 0-.642-.66c-.412-.177-.86-.063-1.196.292a1.01 1.01 0 0 0 .05 1.527c.236.223.5.33.768.32zm2.976 0c.072 0 .087-.185.087-1.1 0-1.018-.01-1.1-.107-1.1-.3.01-.786.4-.914.74a1.12 1.12 0 0 0 .02.778c.146.34.62.7.914.7zm-2.976-4.493c.268-.01.533-.13.76-.37.308-.326.408-.733.263-1.12-.086-.23-.407-.55-.642-.652-.412-.177-.86-.072-1.196.282-.447.472-.428 1.086.05 1.537.236.223.5.33.768.32zm2.976-.01c.072 0 .087-.185.087-1.1 0-1.018-.01-1.1-.107-1.1-.3.01-.786.4-.914.74a1.12 1.12 0 0 0 .02.778c.146.34.62.7.914.7zm-2.976-4.493a1.1 1.1 0 0 0 .759-.369c.308-.326.408-.723.263-1.1a1.47 1.47 0 0 0-.642-.66c-.412-.177-.86-.073-1.196.282-.447.472-.428 1.086.05 1.537.236.223.5.33.768.32zm2.976 0c.072 0 .087-.185.087-1.1 0-1.018-.01-1.1-.107-1.1-.3.01-.786.4-.914.74a1.12 1.12 0 0 0 .02.778c.146.34.62.7.914.7zm-2.976-4.493c.268-.01.533-.14.76-.38.308-.326.408-.723.263-1.1-.086-.23-.407-.55-.642-.652-.412-.177-.86-.072-1.196.282a1.01 1.01 0 0 0 .05 1.527c.236.223.5.34.768.33zm2.976-.01c.072 0 .087-.185.087-1.1 0-1.018-.01-1.1-.107-1.1-.3.01-.786.4-.914.74a1.12 1.12 0 0 0 .02.778c.146.34.62.7.914.7zm-2.976-4.493c.268-.01.533-.13.76-.37.308-.326.408-.733.263-1.12-.086-.23-.407-.55-.642-.652-.412-.177-.86-.072-1.196.282-.447.472-.428 1.086.05 1.537.236.223.5.33.768.32zm2.976 0c.072 0 .087-.185.087-1.1 0-1.018-.01-1.1-.107-1.1-.3.01-.786.4-.914.73a1.12 1.12 0 0 0 .02.778c.146.34.62.7.914.7zm-2.976-4.503c.268-.01.533-.13.76-.37.308-.326.408-.723.263-1.1a1.47 1.47 0 0 0-.642-.66c-.412-.177-.86-.063-1.196.292a1.01 1.01 0 0 0 .05 1.527c.236.223.5.33.768.32zm2.976 0c.072 0 .087-.185.087-1.1 0-1.018-.01-1.1-.107-1.1-.3.01-.786.4-.914.74a1.12 1.12 0 0 0 .02.778c.146.34.62.7.914.7zM98.32 17.666l-1.1-1.1v-1.44l.554-.554.554-.564h1.44l1.1 1.1v1.44l-.554.554-.554.564h-.72zm4.503 0l-.554-.554-.564-.554v-1.44l.554-.554.554-.564h1.44l.554.554.564.554v1.44l-.554.554-.554.564h-.72zm3.385 0V14h3.657v3.667h-1.828zm-7.14-.72a1.1 1.1 0 0 0 .759-.37c.308-.326.398-.733.253-1.12a1.44 1.44 0 0 0-.632-.652c-.412-.177-.86-.073-1.196.282-.447.472-.428 1.086.05 1.537.236.223.5.33.768.32zm4.503 0a1.1 1.1 0 0 0 .759-.37c.308-.326.398-.733.253-1.12-.086-.23-.407-.55-.642-.652-.412-.177-.86-.073-1.196.282-.447.472-.428 1.086.05 1.537.236.223.5.33.778.32zm4.493 0a1.1 1.1 0 0 0 .759-.37c.308-.326.408-.733.263-1.12-.086-.23-.407-.55-.642-.652-.412-.177-.86-.073-1.196.282-.447.472-.428 1.086.05 1.537.236.223.5.33.768.32zm8.996 0a1.1 1.1 0 0 0 .759-.37c.308-.326.408-.733.263-1.12-.086-.23-.407-.55-.642-.652-.412-.177-.86-.073-1.196.282-.447.472-.428 1.086.05 1.537.236.223.5.33.768.32zm2.976 0c.072 0 .087-.194.087-1.118 0-1.018-.01-1.1-.107-1.1-.3.01-.786.4-.914.73a1.12 1.12 0 0 0 .02.778c.146.34.62.7.914.7zM45.05 10.848c.382 0 .538-.02.74-.126a1.92 1.92 0 0 0 .827-.807c.154-.28.175-.378.175-.798s-.02-.52-.175-.798c-.2-.36-.456-.618-.827-.807-.286-.146-.924-.2-1.225-.107a2.06 2.06 0 0 0-1.225 1.284 1.84 1.84 0 0 0 .525 1.721 1.53 1.53 0 0 0 1.187.438zm8.996 0c.382 0 .538-.02.74-.126a1.92 1.92 0 0 0 .827-.807c.154-.28.175-.378.175-.798s-.02-.52-.175-.798c-.2-.36-.456-.618-.827-.807-.286-.146-.924-.2-1.225-.107a2.06 2.06 0 0 0-1.225 1.284 1.84 1.84 0 0 0 .525 1.721 1.53 1.53 0 0 0 1.187.438zm9.006 0c.382 0 .528-.02.73-.126a1.92 1.92 0 0 0 .827-.807c.154-.28.175-.378.175-.798s-.02-.52-.175-.798c-.2-.36-.456-.618-.827-.807-.286-.146-.924-.2-1.225-.107a2.06 2.06 0 0 0-1.225 1.284c-.154.57.085 1.326.535 1.72a1.53 1.53 0 0 0 1.187.438zm8.996 0c.382 0 .528-.02.73-.126a1.92 1.92 0 0 0 .827-.807c.154-.28.175-.378.175-.798s-.02-.52-.175-.798c-.2-.36-.456-.618-.827-.807-.286-.146-.924-.2-1.225-.107a2.06 2.06 0 0 0-1.225 1.284c-.154.57.085 1.326.535 1.72a1.53 1.53 0 0 0 1.187.438zm8.996 0c.382 0 .528-.02.73-.126a1.92 1.92 0 0 0 .827-.807c.154-.28.185-.378.185-.798s-.03-.52-.185-.798c-.2-.36-.456-.618-.827-.807a2.12 2.12 0 0 0-1.216-.107c-.53.163-1.1.744-1.235 1.284-.154.57.085 1.326.535 1.72a1.53 1.53 0 0 0 1.187.438zm8.996 0c.382 0 .528-.02.73-.126.376-.2.64-.45.836-.807.154-.28.175-.378.175-.798s-.02-.52-.175-.798c-.2-.36-.465-.618-.836-.807a2.12 2.12 0 0 0-1.216-.107c-.53.163-1.1.744-1.235 1.284-.154.57.085 1.326.535 1.72a1.53 1.53 0 0 0 1.187.438zm8.996 0c.382 0 .528-.02.73-.126.376-.2.64-.45.836-.807.154-.28.175-.378.175-.798s-.02-.52-.175-.798c-.2-.36-.465-.618-.836-.807a2.12 2.12 0 0 0-1.216-.107 2.06 2.06 0 0 0-1.225 1.284 1.84 1.84 0 0 0 .525 1.721 1.53 1.53 0 0 0 1.187.438zm8.996 0c.382 0 .528-.02.73-.126.376-.2.64-.45.836-.807.154-.28.175-.378.175-.798s-.02-.52-.175-.798c-.2-.36-.465-.618-.836-.807a2.12 2.12 0 0 0-1.216-.107 2.06 2.06 0 0 0-1.225 1.284 1.84 1.84 0 0 0 .525 1.721 1.53 1.53 0 0 0 1.187.438zm8.996 0c.382 0 .538-.02.74-.126a1.92 1.92 0 0 0 .827-.807c.154-.28.175-.378.175-.798s-.02-.52-.175-.798c-.2-.36-.456-.618-.827-.807-.286-.146-.924-.2-1.225-.107a2.06 2.06 0 0 0-1.225 1.284 1.84 1.84 0 0 0 .525 1.721 1.53 1.53 0 0 0 1.187.438zm-71.98-4.493c.382 0 .538-.03.74-.136.353-.187.615-.44.778-.73l.146-.243H43.4l.136.243c.163.3.435.542.788.73.2.107.348.136.73.136zm8.996 0c.382 0 .538-.03.74-.136.353-.187.625-.44.788-.73l.136-.243h-3.316l.136.243c.163.3.435.542.788.73.2.107.348.136.73.136zm9.006 0c.382 0 .528-.03.73-.136.353-.187.625-.44.788-.73l.136-.243h-3.316l.136.243c.163.3.435.542.788.73.2.107.358.136.74.136zm8.996 0c.382 0 .528-.03.73-.136.353-.187.625-.44.788-.73l.136-.243h-3.316l.136.243c.163.3.435.542.788.73.2.107.358.136.74.136zm8.996 0c.382 0 .528-.03.73-.136.353-.187.625-.44.788-.73l.136-.243H79.38l.146.243c.163.3.426.542.778.73.2.107.358.136.74.136zm8.996 0c.382 0 .528-.03.73-.136.353-.187.625-.44.788-.73l.136-.243H88.38l.146.243c.163.3.426.542.778.73.2.107.358.136.74.136zm8.996 0c.382 0 .528-.03.73-.136.353-.187.625-.44.788-.73l.136-.243H97.38l.136.243c.163.3.435.542.788.73.2.107.348.136.73.136zm8.996 0c.382 0 .528-.03.73-.136.353-.187.625-.44.788-.73l.136-.243h-3.307l.136.243c.163.3.435.542.788.73.2.107.348.136.73.136zm8.996 0c.382 0 .538-.03.74-.136.353-.187.615-.44.778-.73l.146-.243h-3.316l.136.243c.163.3.435.542.788.73.2.107.348.136.73.136z" fill="#ff0"/><g transform="matrix(1 0 0 -1 0 -989.36)"><rect rx="1.12" ry="1.396" x="75.081" width="23.964" y="-1032.855" height="24.353"/><rect fill="#ccc" rx="1.12" ry="1.396" x="58.352" width="9.337" y="-1036.667" height="14.472"/><rect rx="1.12" ry="1.396" x="60.92" width="4.202" y="-1032.154" height="5.68"/><g fill="#e6e6e6"><rect rx="1.12" ry="1.396" x="64.032" width="2.101" y="-1013.714" height="3.423"/><rect rx="1.12" ry="1.396" x="64.11" width="1.945" y="-1007.645" height="3.423"/></g><rect rx="1.12" ry="1.396" x="68" width="4.279" y="-1006.167" height="2.023"/><rect rx="1.12" ry="1.396" x="67.845" width="3.968" y="-1011.769" height="2.023"/><rect rx="1.12" ry="1.396" x="46.059" width="7.547" y="-1022.74" height="5.291"/><rect rx="1.12" ry="1.396" x="51.739" width="5.602" y="-1010.758" height="5.68"/><rect rx="1.12" ry="1.396" x="44.736" width="8.247" y="-1031.221" height="3.657"/><rect rx="1.12" ry="1.396" x="41.546" width="7.158" y="-1036.823" height="2.723"/><rect rx="1.12" ry="1.396" x="51.739" width="3.346" y="-1038.301" height="1.634"/><rect rx="1.12" ry="1.396" x="69.634" width="3.89" y="-1037.056" height="1.712"/><rect rx="1.12" ry="1.396" x="76.87" width="3.579" y="-1004.611" height="1.634"/><rect fill="#ccc" rx="1.12" ry="1.396" x="108.149" width="4.046" y="-1027.564" height="9.804"/><rect rx="1.12" ry="1.396" x="45.514" width="1.867" y="-1008.968" height="3.346"/><rect rx="1.12" ry="1.396" x="41.235" width="1.945" y="-1008.268" height="3.501"/><rect rx="1.12" ry="1.396" x="39.912" width="3.423" y="-1023.907" height="11.749"/></g><g fill="#f9f9f9" font-size="5.305"><text x="86.99" y="1018.945" text-anchor="middle" transform="translate(0 -989.36)">Espruino</text><text x="86.99" y="1025.576" text-anchor="middle" transform="translate(0 -989.36)">Pico</text></g><g fill="olive"><use xlink:href="#B"/><use xlink:href="#B" x="18"/><use xlink:href="#B" x="9"/><use xlink:href="#B" x="27"/><use xlink:href="#B" x="36"/><use xlink:href="#B" x="45"/><use xlink:href="#B" x="54"/><use xlink:href="#B" x="63"/><use xlink:href="#B" x="72"/><use xlink:href="#B" x="72" y="45"/><use xlink:href="#B" x="63" y="45"/><use xlink:href="#B" x="54" y="45"/><use xlink:href="#B" x="45" y="45"/><use xlink:href="#B" x="36" y="45"/><use xlink:href="#B" x="27" y="45"/><use xlink:href="#B" x="18" y="45"/><use xlink:href="#B" x="9" y="45"/><use xlink:href="#B" y="45"/><use xlink:href="#C"/><use xlink:href="#C" y="-4.5"/><use xlink:href="#C" y="-9"/><use xlink:href="#C" y="-13.5"/><use xlink:href="#C" y="-18"/><use xlink:href="#C" y="-22.5"/><use xlink:href="#C" y="-27"/><use xlink:href="#C" y="-31.5"/><use xlink:href="#C" x="-9" y="-31.5"/><use xlink:href="#C" x="-13.5" y="-31.5"/><use xlink:href="#C" x="-18" y="-31.5"/></g><defs ><path id="B" d="M46.8 9.153a1.8 1.8 0 0 0-3.6 0 1.8 1.8 0 0 0 3.6 0z"/><path id="C" d="M118.125 47.403c0-.62-.504-1.125-1.125-1.125s-1.125.504-1.125 1.125.504 1.125 1.125 1.125 1.125-.504 1.125-1.125z"/></defs></svg>