<?xml version="1.0" encoding="utf-8"?>
<!-- Generator: Adobe Illustrator 22.1.0, SVG Export Plug-In . SVG Version: 6.00 Build 0)  -->
<svg version="1.2" baseProfile="tiny"
	 id="svg" inkscape:version="0.91 r13725" sodipodi:docname="1x16_F.svg" xmlns:cc="http://creativecommons.org/ns#" xmlns:dc="http://purl.org/dc/elements/1.1/" xmlns:inkscape="http://www.inkscape.org/namespaces/inkscape" xmlns:rdf="http://www.w3.org/1999/02/22-rdf-syntax-ns#" xmlns:sodipodi="http://sodipodi.sourceforge.net/DTD/sodipodi-0.dtd" xmlns:svg="http://www.w3.org/2000/svg"
	 xmlns="http://www.w3.org/2000/svg" xmlns:xlink="http://www.w3.org/1999/xlink" x="0px" y="0px" width="118.155px"
	 height="79.206px" viewBox="0 0 118.155 79.206" xml:space="preserve">
<sodipodi:namedview  bordercolor="#666666" borderopacity="1" fit-margin-bottom="0" fit-margin-left="0" fit-margin-right="0" fit-margin-top="0" gridtolerance="10" guidetolerance="10" id="namedview85" inkscape:current-layer="svg" inkscape:cx="62.143749" inkscape:cy="3.918975" inkscape:document-units="in" inkscape:pageopacity="0" inkscape:pageshadow="2" inkscape:window-height="669" inkscape:window-maximized="0" inkscape:window-width="1209" inkscape:window-x="748" inkscape:window-y="262" inkscape:zoom="2.7789859" objecttolerance="10" pagecolor="#ffffff" showgrid="false" units="in">
	</sodipodi:namedview>
<g>
	<rect id="rect8128" x="31.755" y="0" fill="#404040" width="86.4" height="14.406"/>
	<rect id="rect8130" x="113.163" y="2.206" width="2.781" height="2.78"/>
	<polygon id="polygon8132" fill="#2A2A29" points="116.97,6.011 115.947,4.987 113.163,4.987 112.137,6.011 	"/>
	<polygon id="polygon8134" fill="#474747" points="112.137,6.011 113.163,4.984 113.163,2.204 112.137,1.182 	"/>
	<polygon id="polygon8136" fill="#595959" points="112.138,1.182 113.164,2.204 115.947,2.204 116.97,1.182 	"/>
	<polygon id="polygon8138" fill="#373737" points="116.972,1.182 115.947,2.206 115.947,4.987 116.972,6.011 	"/>
	<rect id="rect8140" x="105.962" y="2.206" width="2.781" height="2.78"/>
	<polygon id="polygon8142" fill="#2A2A29" points="109.77,6.011 108.746,4.987 105.961,4.987 104.936,6.011 	"/>
	<polygon id="polygon8144" fill="#474747" points="104.936,6.011 105.961,4.984 105.961,2.204 104.936,1.182 	"/>
	<polygon id="polygon8146" fill="#595959" points="104.938,1.182 105.962,2.204 108.746,2.204 109.77,1.182 	"/>
	<polygon id="polygon8148" fill="#373737" points="109.772,1.182 108.746,2.206 108.746,4.987 109.772,6.011 	"/>
	<rect id="rect8150_1_" x="98.76" y="2.206" width="2.781" height="2.78"/>
	<polygon id="polygon8152_1_" fill="#2A2A29" points="102.569,6.011 101.544,4.987 98.76,4.987 97.736,6.011 	"/>
	<polygon id="polygon8154_1_" fill="#474747" points="97.736,6.011 98.76,4.984 98.76,2.204 97.736,1.182 	"/>
	<polygon id="polygon8156_1_" fill="#595959" points="97.737,1.182 98.761,2.204 101.544,2.204 102.569,1.182 	"/>
	<polygon id="polygon8158_1_" fill="#373737" points="102.571,1.182 101.544,2.206 101.544,4.987 102.571,6.011 	"/>
	<rect id="rect8160_1_" x="91.559" y="2.206" width="2.781" height="2.78"/>
	<polygon id="polygon8162_1_" fill="#2A2A29" points="95.368,6.011 94.343,4.987 91.559,4.987 90.535,6.011 	"/>
	<polygon id="polygon8164_1_" fill="#474747" points="90.535,6.011 91.559,4.984 91.559,2.204 90.535,1.182 	"/>
	<polygon id="polygon8166_1_" fill="#595959" points="90.536,1.182 91.561,2.204 94.343,2.204 95.368,1.182 	"/>
	<polygon id="polygon8168_1_" fill="#373737" points="95.37,1.182 94.343,2.206 94.343,4.987 95.37,6.011 	"/>
	<rect id="rect8170_1_" x="84.359" y="2.206" width="2.781" height="2.78"/>
	<polygon id="polygon8172_1_" fill="#2A2A29" points="88.166,6.011 87.143,4.987 84.359,4.987 83.333,6.011 	"/>
	<polygon id="polygon8174_1_" fill="#474747" points="83.333,6.011 84.359,4.984 84.359,2.204 83.333,1.182 	"/>
	<polygon id="polygon8176_1_" fill="#595959" points="83.334,1.182 84.36,2.204 87.143,2.204 88.166,1.182 	"/>
	<polygon id="polygon8178_1_" fill="#373737" points="88.168,1.182 87.143,2.206 87.143,4.987 88.168,6.011 	"/>
	<rect id="rect8180_1_" x="77.158" y="2.206" width="2.781" height="2.78"/>
	<polygon id="polygon8182_1_" fill="#2A2A29" points="80.965,6.011 79.942,4.987 77.158,4.987 76.132,6.011 	"/>
	<polygon id="polygon8184_1_" fill="#474747" points="76.132,6.011 77.158,4.984 77.158,2.204 76.132,1.182 	"/>
	<polygon id="polygon8186_1_" fill="#595959" points="76.133,1.182 77.159,2.204 79.942,2.204 80.965,1.182 	"/>
	<polygon id="polygon8188_1_" fill="#373737" points="80.967,1.182 79.942,2.206 79.942,4.987 80.967,6.011 	"/>
	<rect id="rect8190_1_" x="69.957" y="2.206" width="2.781" height="2.78"/>
	<polygon id="polygon8192_1_" fill="#2A2A29" points="73.765,6.011 72.741,4.987 69.956,4.987 68.931,6.011 	"/>
	<polygon id="polygon8194_1_" fill="#474747" points="68.931,6.011 69.956,4.984 69.956,2.204 68.931,1.182 	"/>
	<polygon id="polygon8196_1_" fill="#595959" points="68.933,1.182 69.957,2.204 72.741,2.204 73.765,1.182 	"/>
	<polygon id="polygon8198_1_" fill="#373737" points="73.767,1.182 72.741,2.206 72.741,4.987 73.767,6.011 	"/>
	<rect id="rect8200_1_" x="62.755" y="2.206" width="2.781" height="2.78"/>
	<polygon id="polygon8202_1_" fill="#2A2A29" points="66.564,6.011 65.539,4.987 62.755,4.987 61.731,6.011 	"/>
	<polygon id="polygon8204_1_" fill="#474747" points="61.731,6.011 62.755,4.984 62.755,2.204 61.731,1.182 	"/>
	<polygon id="polygon8206_1_" fill="#595959" points="61.732,1.182 62.756,2.204 65.539,2.204 66.564,1.182 	"/>
	<polygon id="polygon8208_1_" fill="#373737" points="66.566,1.182 65.539,2.206 65.539,4.987 66.566,6.011 	"/>
	<rect id="rect8210_1_" x="55.594" y="2.206" width="2.781" height="2.78"/>
	<polygon id="polygon8212_1_" fill="#2A2A29" points="58.378,4.987 55.594,4.987 54.568,6.011 59.401,6.011 	"/>
	<polygon id="polygon8214_1_" fill="#474747" points="55.594,4.984 55.594,2.204 54.568,1.182 54.568,6.011 	"/>
	<polygon id="polygon8216_1_" fill="#595959" points="55.595,2.204 58.378,2.204 59.401,1.182 54.569,1.182 	"/>
	<polygon id="polygon8218_1_" fill="#373737" points="58.378,2.206 58.378,4.987 59.403,6.011 59.403,1.182 	"/>
	<rect id="rect8220_1_" x="48.393" y="2.206" width="2.781" height="2.78"/>
	<polygon id="polygon8222_1_" fill="#2A2A29" points="51.177,4.987 48.393,4.987 47.367,6.011 52.2,6.011 	"/>
	<polygon id="polygon8224_1_" fill="#474747" points="48.393,4.984 48.393,2.204 47.367,1.182 47.367,6.011 	"/>
	<polygon id="polygon8226_1_" fill="#595959" points="48.394,2.204 51.177,2.204 52.2,1.182 47.368,1.182 	"/>
	<polygon id="polygon8228_1_" fill="#373737" points="51.177,2.206 51.177,4.987 52.202,6.011 52.202,1.182 	"/>
	<rect id="rect8230_1_" x="41.192" y="2.206" width="2.781" height="2.78"/>
	<polygon id="polygon8232_1_" fill="#2A2A29" points="43.976,4.987 41.191,4.987 40.166,6.011 45,6.011 	"/>
	<polygon id="polygon8234_1_" fill="#474747" points="41.191,4.984 41.191,2.204 40.166,1.182 40.166,6.011 	"/>
	<polygon id="polygon8236_1_" fill="#595959" points="41.192,2.204 43.976,2.204 45,1.182 40.168,1.182 	"/>
	<polygon id="polygon8238_1_" fill="#373737" points="43.976,2.206 43.976,4.987 45.002,6.011 45.002,1.182 	"/>
	<rect id="rect8240_1_" x="33.99" y="2.206" width="2.781" height="2.78"/>
	<polygon id="polygon8242_1_" fill="#2A2A29" points="36.774,4.987 33.99,4.987 32.966,6.011 37.799,6.011 	"/>
	<polygon id="polygon8244_1_" fill="#474747" points="33.99,4.984 33.99,2.204 32.966,1.182 32.966,6.011 	"/>
	<polygon id="polygon8246_1_" fill="#595959" points="33.991,2.204 36.774,2.204 37.799,1.182 32.967,1.182 	"/>
	<polygon id="polygon8248_1_" fill="#373737" points="36.774,2.206 36.774,4.987 37.801,6.011 37.801,1.182 	"/>
	<rect id="rect8148" x="2.955" y="64.8" fill="#404040" width="115.2" height="14.406"/>
	<rect id="rect8150" x="113.163" y="74.208" width="2.781" height="2.782"/>
	<polygon id="polygon8152" fill="#2A2A29" points="116.97,78.016 115.947,76.991 113.163,76.991 112.137,78.016 	"/>
	<polygon id="polygon8154" fill="#474747" points="112.137,78.016 113.163,76.988 113.163,74.206 112.137,73.183 	"/>
	<polygon id="polygon8156" fill="#595959" points="112.138,73.183 113.164,74.206 115.947,74.206 116.97,73.183 	"/>
	<polygon id="polygon8158" fill="#373737" points="116.972,73.183 115.947,74.208 115.947,76.991 116.972,78.016 	"/>
	<rect id="rect8160" x="105.962" y="74.208" width="2.781" height="2.782"/>
	<polygon id="polygon8162" fill="#2A2A29" points="109.77,78.016 108.746,76.991 105.961,76.991 104.936,78.016 	"/>
	<polygon id="polygon8164" fill="#474747" points="104.936,78.016 105.961,76.988 105.961,74.206 104.936,73.183 	"/>
	<polygon id="polygon8166" fill="#595959" points="104.938,73.183 105.962,74.206 108.746,74.206 109.77,73.183 	"/>
	<polygon id="polygon8168" fill="#373737" points="109.772,73.183 108.746,74.208 108.746,76.991 109.772,78.016 	"/>
	<rect id="rect8170" x="98.76" y="74.208" width="2.781" height="2.782"/>
	<polygon id="polygon8172" fill="#2A2A29" points="102.569,78.016 101.544,76.991 98.76,76.991 97.736,78.016 	"/>
	<polygon id="polygon8174" fill="#474747" points="97.736,78.016 98.76,76.988 98.76,74.206 97.736,73.183 	"/>
	<polygon id="polygon8176" fill="#595959" points="97.737,73.183 98.761,74.206 101.544,74.206 102.569,73.183 	"/>
	<polygon id="polygon8178" fill="#373737" points="102.571,73.183 101.544,74.208 101.544,76.991 102.571,78.016 	"/>
	<rect id="rect8180" x="91.559" y="74.208" width="2.781" height="2.782"/>
	<polygon id="polygon8182" fill="#2A2A29" points="95.368,78.016 94.343,76.991 91.559,76.991 90.535,78.016 	"/>
	<polygon id="polygon8184" fill="#474747" points="90.535,78.016 91.559,76.988 91.559,74.206 90.535,73.183 	"/>
	<polygon id="polygon8186" fill="#595959" points="90.536,73.183 91.561,74.206 94.343,74.206 95.368,73.183 	"/>
	<polygon id="polygon8188" fill="#373737" points="95.37,73.183 94.343,74.208 94.343,76.991 95.37,78.016 	"/>
	<rect id="rect8190" x="84.359" y="74.208" width="2.781" height="2.782"/>
	<polygon id="polygon8192" fill="#2A2A29" points="88.166,78.016 87.143,76.991 84.359,76.991 83.333,78.016 	"/>
	<polygon id="polygon8194" fill="#474747" points="83.333,78.016 84.359,76.988 84.359,74.206 83.333,73.183 	"/>
	<polygon id="polygon8196" fill="#595959" points="83.334,73.183 84.36,74.206 87.143,74.206 88.166,73.183 	"/>
	<polygon id="polygon8198" fill="#373737" points="88.168,73.183 87.143,74.208 87.143,76.991 88.168,78.016 	"/>
	<rect id="rect8200" x="77.158" y="74.208" width="2.781" height="2.782"/>
	<polygon id="polygon8202" fill="#2A2A29" points="80.965,78.016 79.942,76.991 77.158,76.991 76.132,78.016 	"/>
	<polygon id="polygon8204" fill="#474747" points="76.132,78.016 77.158,76.988 77.158,74.206 76.132,73.183 	"/>
	<polygon id="polygon8206" fill="#595959" points="76.133,73.183 77.159,74.206 79.942,74.206 80.965,73.183 	"/>
	<polygon id="polygon8208" fill="#373737" points="80.967,73.183 79.942,74.208 79.942,76.991 80.967,78.016 	"/>
	<rect id="rect8210" x="69.957" y="74.208" width="2.781" height="2.782"/>
	<polygon id="polygon8212" fill="#2A2A29" points="73.765,78.016 72.741,76.991 69.956,76.991 68.931,78.016 	"/>
	<polygon id="polygon8214" fill="#474747" points="68.931,78.016 69.956,76.988 69.956,74.206 68.931,73.183 	"/>
	<polygon id="polygon8216" fill="#595959" points="68.933,73.183 69.957,74.206 72.741,74.206 73.765,73.183 	"/>
	<polygon id="polygon8218" fill="#373737" points="73.767,73.183 72.741,74.208 72.741,76.991 73.767,78.016 	"/>
	<rect id="rect8220" x="62.755" y="74.208" width="2.781" height="2.782"/>
	<polygon id="polygon8222" fill="#2A2A29" points="66.564,78.016 65.539,76.991 62.755,76.991 61.731,78.016 	"/>
	<polygon id="polygon8224" fill="#474747" points="61.731,78.016 62.755,76.988 62.755,74.206 61.731,73.183 	"/>
	<polygon id="polygon8226" fill="#595959" points="61.732,73.183 62.756,74.206 65.539,74.206 66.564,73.183 	"/>
	<polygon id="polygon8228" fill="#373737" points="66.566,73.183 65.539,74.208 65.539,76.991 66.566,78.016 	"/>
	<rect id="rect8230" x="55.594" y="74.208" width="2.781" height="2.782"/>
	<polygon id="polygon8232" fill="#2A2A29" points="58.378,76.991 55.594,76.991 54.568,78.016 59.401,78.016 	"/>
	<polygon id="polygon8234" fill="#474747" points="55.594,76.988 55.594,74.206 54.568,73.183 54.568,78.016 	"/>
	<polygon id="polygon8236" fill="#595959" points="55.595,74.206 58.378,74.206 59.401,73.183 54.569,73.183 	"/>
	<polygon id="polygon8238" fill="#373737" points="58.378,74.208 58.378,76.991 59.403,78.016 59.403,73.183 	"/>
	<rect id="rect8240" x="48.393" y="74.208" width="2.781" height="2.782"/>
	<polygon id="polygon8242" fill="#2A2A29" points="51.177,76.991 48.393,76.991 47.367,78.016 52.2,78.016 	"/>
	<polygon id="polygon8244" fill="#474747" points="48.393,76.988 48.393,74.206 47.367,73.183 47.367,78.016 	"/>
	<polygon id="polygon8246" fill="#595959" points="48.394,74.206 51.177,74.206 52.2,73.183 47.368,73.183 	"/>
	<polygon id="polygon8248" fill="#373737" points="51.177,74.208 51.177,76.991 52.202,78.016 52.202,73.183 	"/>
	<rect id="rect8250" x="41.192" y="74.208" width="2.781" height="2.782"/>
	<polygon id="polygon8252" fill="#2A2A29" points="43.976,76.991 41.191,76.991 40.166,78.016 45,78.016 	"/>
	<polygon id="polygon8254" fill="#474747" points="41.191,76.988 41.191,74.206 40.166,73.183 40.166,78.016 	"/>
	<polygon id="polygon8256" fill="#595959" points="41.192,74.206 43.976,74.206 45,73.183 40.168,73.183 	"/>
	<polygon id="polygon8258" fill="#373737" points="43.976,74.208 43.976,76.991 45.002,78.016 45.002,73.183 	"/>
	<rect id="rect8260" x="33.99" y="74.208" width="2.781" height="2.782"/>
	<polygon id="polygon8262" fill="#2A2A29" points="36.774,76.991 33.99,76.991 32.966,78.016 37.799,78.016 	"/>
	<polygon id="polygon8264" fill="#474747" points="33.99,76.988 33.99,74.206 32.966,73.183 32.966,78.016 	"/>
	<polygon id="polygon8266" fill="#595959" points="33.991,74.206 36.774,74.206 37.799,73.183 32.967,73.183 	"/>
	<polygon id="polygon8268" fill="#373737" points="36.774,74.208 36.774,76.991 37.801,78.016 37.801,73.183 	"/>
	<rect id="rect8270" x="26.794" y="74.208" width="2.781" height="2.782"/>
	<polygon id="polygon8272" fill="#2A2A29" points="26.794,76.991 25.768,78.016 30.601,78.016 29.578,76.991 	"/>
	<polygon id="polygon8274" fill="#474747" points="26.794,74.206 25.768,73.183 25.768,78.016 26.794,76.988 	"/>
	<polygon id="polygon8276" fill="#595959" points="29.578,74.206 30.601,73.183 25.769,73.183 26.795,74.206 	"/>
	<polygon id="polygon8278" fill="#373737" points="29.578,76.991 30.603,78.016 30.603,73.183 29.578,74.208 	"/>
	<rect id="rect8280" x="19.593" y="74.208" width="2.781" height="2.782"/>
	<polygon id="polygon8282" fill="#2A2A29" points="19.593,76.991 18.567,78.016 23.4,78.016 22.377,76.991 	"/>
	<polygon id="polygon8284" fill="#474747" points="19.593,74.206 18.567,73.183 18.567,78.016 19.593,76.988 	"/>
	<polygon id="polygon8286" fill="#595959" points="22.377,74.206 23.4,73.183 18.568,73.183 19.594,74.206 	"/>
	<polygon id="polygon8288" fill="#373737" points="22.377,76.991 23.402,78.016 23.402,73.183 22.377,74.208 	"/>
	<rect id="rect8290" x="12.392" y="74.208" width="2.781" height="2.782"/>
	<polygon id="polygon8292" fill="#2A2A29" points="12.391,76.991 11.366,78.016 16.2,78.016 15.176,76.991 	"/>
	<polygon id="polygon8294" fill="#474747" points="12.391,74.206 11.366,73.183 11.366,78.016 12.391,76.988 	"/>
	<polygon id="polygon8296" fill="#595959" points="15.176,74.206 16.2,73.183 11.368,73.183 12.392,74.206 	"/>
	<polygon id="polygon8298" fill="#373737" points="15.176,76.991 16.202,78.016 16.202,73.183 15.176,74.208 	"/>
	<rect id="rect8300" x="5.19" y="74.208" width="2.781" height="2.782"/>
	<polygon id="polygon8302" fill="#2A2A29" points="5.19,76.991 4.166,78.016 8.999,78.016 7.974,76.991 	"/>
	<polygon id="polygon8304" fill="#474747" points="5.19,74.206 4.166,73.183 4.166,78.016 5.19,76.988 	"/>
	<polygon id="polygon8306" fill="#595959" points="7.974,74.206 8.999,73.183 4.167,73.183 5.191,74.206 	"/>
	<polygon id="polygon8308" fill="#373737" points="7.974,76.991 9.001,78.016 9.001,73.183 7.974,74.208 	"/>
	<rect id="rect5_1_" x="113.163" y="9.408" width="2.781" height="2.782"/>
	<polygon id="polygon7_1_" fill="#2A2A29" points="112.137,13.216 116.97,13.216 115.947,12.191 113.163,12.191 	"/>
	<polygon id="polygon9_1_" fill="#474747" points="112.137,8.383 112.137,13.216 113.163,12.188 113.163,9.406 	"/>
	<polygon id="polygon11_1_" fill="#595959" points="116.97,8.383 112.138,8.383 113.164,9.406 115.947,9.406 	"/>
	<polygon id="polygon13_1_" fill="#373737" points="116.972,13.216 116.972,8.383 115.947,9.408 115.947,12.191 	"/>
	<rect id="rect15_1_" x="105.962" y="9.408" width="2.781" height="2.782"/>
	<polygon id="polygon17_1_" fill="#2A2A29" points="104.936,13.216 109.77,13.216 108.746,12.191 105.961,12.191 	"/>
	<polygon id="polygon19_1_" fill="#474747" points="104.936,8.383 104.936,13.216 105.961,12.188 105.961,9.406 	"/>
	<polygon id="polygon21_1_" fill="#595959" points="109.77,8.383 104.938,8.383 105.962,9.406 108.746,9.406 	"/>
	<polygon id="polygon23_1_" fill="#373737" points="109.772,13.216 109.772,8.383 108.746,9.408 108.746,12.191 	"/>
	<rect id="rect25_1_" x="98.76" y="9.408" width="2.781" height="2.782"/>
	<polygon id="polygon27_1_" fill="#2A2A29" points="97.736,13.216 102.569,13.216 101.544,12.191 98.76,12.191 	"/>
	<polygon id="polygon29_1_" fill="#474747" points="97.736,8.383 97.736,13.216 98.76,12.188 98.76,9.406 	"/>
	<polygon id="polygon31_1_" fill="#595959" points="102.569,8.383 97.737,8.383 98.761,9.406 101.544,9.406 	"/>
	<polygon id="polygon33_1_" fill="#373737" points="102.571,13.216 102.571,8.383 101.544,9.408 101.544,12.191 	"/>
	<rect id="rect35_1_" x="91.559" y="9.408" width="2.781" height="2.782"/>
	<polygon id="polygon37_1_" fill="#2A2A29" points="90.535,13.216 95.368,13.216 94.343,12.191 91.559,12.191 	"/>
	<polygon id="polygon39_1_" fill="#474747" points="90.535,8.383 90.535,13.216 91.559,12.188 91.559,9.406 	"/>
	<polygon id="polygon41_1_" fill="#595959" points="95.368,8.383 90.536,8.383 91.561,9.406 94.343,9.406 	"/>
	<polygon id="polygon43_1_" fill="#373737" points="95.37,13.216 95.37,8.383 94.343,9.408 94.343,12.191 	"/>
	<rect id="rect45_1_" x="84.359" y="9.408" width="2.781" height="2.782"/>
	<polygon id="polygon47_1_" fill="#2A2A29" points="83.333,13.216 88.166,13.216 87.143,12.191 84.359,12.191 	"/>
	<polygon id="polygon49_1_" fill="#474747" points="83.333,8.383 83.333,13.216 84.359,12.188 84.359,9.406 	"/>
	<polygon id="polygon51_1_" fill="#595959" points="88.166,8.383 83.334,8.383 84.36,9.406 87.143,9.406 	"/>
	<polygon id="polygon53_1_" fill="#373737" points="88.168,13.216 88.168,8.383 87.143,9.408 87.143,12.191 	"/>
	<rect id="rect55_1_" x="77.158" y="9.408" width="2.781" height="2.782"/>
	<polygon id="polygon57_1_" fill="#2A2A29" points="76.132,13.216 80.965,13.216 79.942,12.191 77.158,12.191 	"/>
	<polygon id="polygon59_1_" fill="#474747" points="76.132,8.383 76.132,13.216 77.158,12.188 77.158,9.406 	"/>
	<polygon id="polygon61_1_" fill="#595959" points="80.965,8.383 76.133,8.383 77.159,9.406 79.942,9.406 	"/>
	<polygon id="polygon63_1_" fill="#373737" points="80.967,13.216 80.967,8.383 79.942,9.408 79.942,12.191 	"/>
	<rect id="rect65_1_" x="69.957" y="9.408" width="2.781" height="2.782"/>
	<polygon id="polygon67_1_" fill="#2A2A29" points="68.931,13.216 73.765,13.216 72.741,12.191 69.956,12.191 	"/>
	<polygon id="polygon69_1_" fill="#474747" points="68.931,8.383 68.931,13.216 69.956,12.188 69.956,9.406 	"/>
	<polygon id="polygon71_1_" fill="#595959" points="73.765,8.383 68.933,8.383 69.957,9.406 72.741,9.406 	"/>
	<polygon id="polygon73_1_" fill="#373737" points="73.767,13.216 73.767,8.383 72.741,9.408 72.741,12.191 	"/>
	<rect id="rect75_1_" x="62.755" y="9.408" width="2.781" height="2.782"/>
	<polygon id="polygon77_1_" fill="#2A2A29" points="61.731,13.216 66.564,13.216 65.539,12.191 62.755,12.191 	"/>
	<polygon id="polygon79_1_" fill="#474747" points="61.731,8.383 61.731,13.216 62.755,12.188 62.755,9.406 	"/>
	<polygon id="polygon81_1_" fill="#595959" points="66.564,8.383 61.732,8.383 62.756,9.406 65.539,9.406 	"/>
	<polygon id="polygon83_1_" fill="#373737" points="66.566,13.216 66.566,8.383 65.539,9.408 65.539,12.191 	"/>
	<rect id="rect3501_1_" x="55.594" y="9.408" width="2.781" height="2.782"/>
	<polygon id="polygon3503_1_" fill="#2A2A29" points="59.401,13.216 58.378,12.191 55.594,12.191 54.568,13.216 	"/>
	<polygon id="polygon3505_1_" fill="#474747" points="54.568,13.216 55.594,12.188 55.594,9.406 54.568,8.383 	"/>
	<polygon id="polygon3507_1_" fill="#595959" points="54.569,8.383 55.595,9.406 58.378,9.406 59.401,8.383 	"/>
	<polygon id="polygon3509_1_" fill="#373737" points="59.403,8.383 58.378,9.408 58.378,12.191 59.403,13.216 	"/>
	<rect id="rect3511_1_" x="48.393" y="9.408" width="2.781" height="2.782"/>
	<polygon id="polygon3513_1_" fill="#2A2A29" points="52.2,13.216 51.177,12.191 48.393,12.191 47.367,13.216 	"/>
	<polygon id="polygon3515_1_" fill="#474747" points="47.367,13.216 48.393,12.188 48.393,9.406 47.367,8.383 	"/>
	<polygon id="polygon3517_1_" fill="#595959" points="47.368,8.383 48.394,9.406 51.177,9.406 52.2,8.383 	"/>
	<polygon id="polygon3519_1_" fill="#373737" points="52.202,8.383 51.177,9.408 51.177,12.191 52.202,13.216 	"/>
	<rect id="rect3521_1_" x="41.192" y="9.408" width="2.781" height="2.782"/>
	<polygon id="polygon3523_1_" fill="#2A2A29" points="45,13.216 43.976,12.191 41.191,12.191 40.166,13.216 	"/>
	<polygon id="polygon3525_1_" fill="#474747" points="40.166,13.216 41.191,12.188 41.191,9.406 40.166,8.383 	"/>
	<polygon id="polygon3527_1_" fill="#595959" points="40.168,8.383 41.192,9.406 43.976,9.406 45,8.383 	"/>
	<polygon id="polygon3529_1_" fill="#373737" points="45.002,8.383 43.976,9.408 43.976,12.191 45.002,13.216 	"/>
	<rect id="rect3531_1_" x="33.99" y="9.408" width="2.781" height="2.782"/>
	<polygon id="polygon3533_1_" fill="#2A2A29" points="37.799,13.216 36.774,12.191 33.99,12.191 32.966,13.216 	"/>
	<polygon id="polygon3535_1_" fill="#474747" points="32.966,13.216 33.99,12.188 33.99,9.406 32.966,8.383 	"/>
	<polygon id="polygon3537_1_" fill="#595959" points="32.967,8.383 33.991,9.406 36.774,9.406 37.799,8.383 	"/>
	<polygon id="polygon3539_1_" fill="#373737" points="37.801,8.383 36.774,9.408 36.774,12.191 37.801,13.216 	"/>
	<rect id="rect5" x="113.163" y="67.008" width="2.781" height="2.782"/>
	<polygon id="polygon7" fill="#2A2A29" points="112.137,70.816 116.97,70.816 115.947,69.791 113.163,69.791 	"/>
	<polygon id="polygon9" fill="#474747" points="112.137,65.983 112.137,70.816 113.163,69.788 113.163,67.006 	"/>
	<polygon id="polygon11" fill="#595959" points="116.97,65.983 112.138,65.983 113.164,67.006 115.947,67.006 	"/>
	<polygon id="polygon13" fill="#373737" points="116.972,70.816 116.972,65.983 115.947,67.008 115.947,69.791 	"/>
	<rect id="rect15" x="105.962" y="67.008" width="2.781" height="2.782"/>
	<polygon id="polygon17" fill="#2A2A29" points="104.936,70.816 109.77,70.816 108.746,69.791 105.961,69.791 	"/>
	<polygon id="polygon19" fill="#474747" points="104.936,65.983 104.936,70.816 105.961,69.788 105.961,67.006 	"/>
	<polygon id="polygon21" fill="#595959" points="109.77,65.983 104.938,65.983 105.962,67.006 108.746,67.006 	"/>
	<polygon id="polygon23" fill="#373737" points="109.772,70.816 109.772,65.983 108.746,67.008 108.746,69.791 	"/>
	<rect id="rect25" x="98.76" y="67.008" width="2.781" height="2.782"/>
	<polygon id="polygon27" fill="#2A2A29" points="97.736,70.816 102.569,70.816 101.544,69.791 98.76,69.791 	"/>
	<polygon id="polygon29" fill="#474747" points="97.736,65.983 97.736,70.816 98.76,69.788 98.76,67.006 	"/>
	<polygon id="polygon31" fill="#595959" points="102.569,65.983 97.737,65.983 98.761,67.006 101.544,67.006 	"/>
	<polygon id="polygon33" fill="#373737" points="102.571,70.816 102.571,65.983 101.544,67.008 101.544,69.791 	"/>
	<rect id="rect35" x="91.559" y="67.008" width="2.781" height="2.782"/>
	<polygon id="polygon37" fill="#2A2A29" points="90.535,70.816 95.368,70.816 94.343,69.791 91.559,69.791 	"/>
	<polygon id="polygon39" fill="#474747" points="90.535,65.983 90.535,70.816 91.559,69.788 91.559,67.006 	"/>
	<polygon id="polygon41" fill="#595959" points="95.368,65.983 90.536,65.983 91.561,67.006 94.343,67.006 	"/>
	<polygon id="polygon43" fill="#373737" points="95.37,70.816 95.37,65.983 94.343,67.008 94.343,69.791 	"/>
	<rect id="rect45" x="84.359" y="67.008" width="2.781" height="2.782"/>
	<polygon id="polygon47" fill="#2A2A29" points="83.333,70.816 88.166,70.816 87.143,69.791 84.359,69.791 	"/>
	<polygon id="polygon49" fill="#474747" points="83.333,65.983 83.333,70.816 84.359,69.788 84.359,67.006 	"/>
	<polygon id="polygon51" fill="#595959" points="88.166,65.983 83.334,65.983 84.36,67.006 87.143,67.006 	"/>
	<polygon id="polygon53" fill="#373737" points="88.168,70.816 88.168,65.983 87.143,67.008 87.143,69.791 	"/>
	<rect id="rect55" x="77.158" y="67.008" width="2.781" height="2.782"/>
	<polygon id="polygon57" fill="#2A2A29" points="76.132,70.816 80.965,70.816 79.942,69.791 77.158,69.791 	"/>
	<polygon id="polygon59" fill="#474747" points="76.132,65.983 76.132,70.816 77.158,69.788 77.158,67.006 	"/>
	<polygon id="polygon61" fill="#595959" points="80.965,65.983 76.133,65.983 77.159,67.006 79.942,67.006 	"/>
	<polygon id="polygon63" fill="#373737" points="80.967,70.816 80.967,65.983 79.942,67.008 79.942,69.791 	"/>
	<rect id="rect65" x="69.957" y="67.008" width="2.781" height="2.782"/>
	<polygon id="polygon67" fill="#2A2A29" points="68.931,70.816 73.765,70.816 72.741,69.791 69.956,69.791 	"/>
	<polygon id="polygon69" fill="#474747" points="68.931,65.983 68.931,70.816 69.956,69.788 69.956,67.006 	"/>
	<polygon id="polygon71" fill="#595959" points="73.765,65.983 68.933,65.983 69.957,67.006 72.741,67.006 	"/>
	<polygon id="polygon73" fill="#373737" points="73.767,70.816 73.767,65.983 72.741,67.008 72.741,69.791 	"/>
	<rect id="rect75" x="62.755" y="67.008" width="2.781" height="2.782"/>
	<polygon id="polygon77" fill="#2A2A29" points="61.731,70.816 66.564,70.816 65.539,69.791 62.755,69.791 	"/>
	<polygon id="polygon79" fill="#474747" points="61.731,65.983 61.731,70.816 62.755,69.788 62.755,67.006 	"/>
	<polygon id="polygon81" fill="#595959" points="66.564,65.983 61.732,65.983 62.756,67.006 65.539,67.006 	"/>
	<polygon id="polygon83" fill="#373737" points="66.566,70.816 66.566,65.983 65.539,67.008 65.539,69.791 	"/>
	<rect id="rect3501" x="55.594" y="67.008" width="2.781" height="2.782"/>
	<polygon id="polygon3503" fill="#2A2A29" points="59.401,70.816 58.378,69.791 55.594,69.791 54.568,70.816 	"/>
	<polygon id="polygon3505" fill="#474747" points="54.568,70.816 55.594,69.788 55.594,67.006 54.568,65.983 	"/>
	<polygon id="polygon3507" fill="#595959" points="54.569,65.983 55.595,67.006 58.378,67.006 59.401,65.983 	"/>
	<polygon id="polygon3509" fill="#373737" points="59.403,65.983 58.378,67.008 58.378,69.791 59.403,70.816 	"/>
	<rect id="rect3511" x="48.393" y="67.008" width="2.781" height="2.782"/>
	<polygon id="polygon3513" fill="#2A2A29" points="52.2,70.816 51.177,69.791 48.393,69.791 47.367,70.816 	"/>
	<polygon id="polygon3515" fill="#474747" points="47.367,70.816 48.393,69.788 48.393,67.006 47.367,65.983 	"/>
	<polygon id="polygon3517" fill="#595959" points="47.368,65.983 48.394,67.006 51.177,67.006 52.2,65.983 	"/>
	<polygon id="polygon3519" fill="#373737" points="52.202,65.983 51.177,67.008 51.177,69.791 52.202,70.816 	"/>
	<rect id="rect3521" x="41.192" y="67.008" width="2.781" height="2.782"/>
	<polygon id="polygon3523" fill="#2A2A29" points="45,70.816 43.976,69.791 41.191,69.791 40.166,70.816 	"/>
	<polygon id="polygon3525" fill="#474747" points="40.166,70.816 41.191,69.788 41.191,67.006 40.166,65.983 	"/>
	<polygon id="polygon3527" fill="#595959" points="40.168,65.983 41.192,67.006 43.976,67.006 45,65.983 	"/>
	<polygon id="polygon3529" fill="#373737" points="45.002,65.983 43.976,67.008 43.976,69.791 45.002,70.816 	"/>
	<rect id="rect3531" x="33.99" y="67.008" width="2.781" height="2.782"/>
	<polygon id="polygon3533" fill="#2A2A29" points="37.799,70.816 36.774,69.791 33.99,69.791 32.966,70.816 	"/>
	<polygon id="polygon3535" fill="#474747" points="32.966,70.816 33.99,69.788 33.99,67.006 32.966,65.983 	"/>
	<polygon id="polygon3537" fill="#595959" points="32.967,65.983 33.991,67.006 36.774,67.006 37.799,65.983 	"/>
	<polygon id="polygon3539" fill="#373737" points="37.801,65.983 36.774,67.008 36.774,69.791 37.801,70.816 	"/>
	<rect id="rect3541" x="26.794" y="67.008" width="2.781" height="2.782"/>
	<polygon id="polygon3543" fill="#2A2A29" points="29.578,69.791 26.794,69.791 25.768,70.816 30.601,70.816 	"/>
	<polygon id="polygon3545" fill="#474747" points="26.794,69.788 26.794,67.006 25.768,65.983 25.768,70.816 	"/>
	<polygon id="polygon3547" fill="#595959" points="26.795,67.006 29.578,67.006 30.601,65.983 25.769,65.983 	"/>
	<polygon id="polygon3549" fill="#373737" points="29.578,67.008 29.578,69.791 30.603,70.816 30.603,65.983 	"/>
	<rect id="rect3551" x="19.593" y="67.008" width="2.781" height="2.782"/>
	<polygon id="polygon3553" fill="#2A2A29" points="22.377,69.791 19.593,69.791 18.567,70.816 23.4,70.816 	"/>
	<polygon id="polygon3555" fill="#474747" points="19.593,69.788 19.593,67.006 18.567,65.983 18.567,70.816 	"/>
	<polygon id="polygon3557" fill="#595959" points="19.594,67.006 22.377,67.006 23.4,65.983 18.568,65.983 	"/>
	<polygon id="polygon3559" fill="#373737" points="22.377,67.008 22.377,69.791 23.402,70.816 23.402,65.983 	"/>
	<rect id="rect3561" x="12.392" y="67.008" width="2.781" height="2.782"/>
	<polygon id="polygon3563" fill="#2A2A29" points="15.176,69.791 12.391,69.791 11.366,70.816 16.2,70.816 	"/>
	<polygon id="polygon3565" fill="#474747" points="12.391,69.788 12.391,67.006 11.366,65.983 11.366,70.816 	"/>
	<polygon id="polygon3567" fill="#595959" points="12.392,67.006 15.176,67.006 16.2,65.983 11.368,65.983 	"/>
	<polygon id="polygon3569" fill="#373737" points="15.176,67.008 15.176,69.791 16.202,70.816 16.202,65.983 	"/>
	<rect id="rect3571" x="5.19" y="67.008" width="2.781" height="2.782"/>
	<polygon id="polygon3573" fill="#2A2A29" points="7.974,69.791 5.19,69.791 4.166,70.816 8.999,70.816 	"/>
	<polygon id="polygon3575" fill="#474747" points="5.19,69.788 5.19,67.006 4.166,65.983 4.166,70.816 	"/>
	<polygon id="polygon3577" fill="#595959" points="5.191,67.006 7.974,67.006 8.999,65.983 4.167,65.983 	"/>
	<polygon id="polygon3579" fill="#373737" points="7.974,67.008 7.974,69.791 9.001,70.816 9.001,65.983 	"/>
</g>
</svg>
