<?xml version="1.0" encoding="utf-8"?>
<!-- Generator: Adobe Illustrator 20.0.0, SVG Export Plug-In . SVG Version: 6.00 Build 0)  -->
<svg version="1.2" baseProfile="tiny"
	 id="svg8690" inkscape:version="0.91 r13725" sodipodi:docname="fgpmmopa6h.svg" xmlns:cc="http://creativecommons.org/ns#" xmlns:dc="http://purl.org/dc/elements/1.1/" xmlns:inkscape="http://www.inkscape.org/namespaces/inkscape" xmlns:rdf="http://www.w3.org/1999/02/22-rdf-syntax-ns#" xmlns:sodipodi="http://sodipodi.sourceforge.net/DTD/sodipodi-0.dtd" xmlns:svg="http://www.w3.org/2000/svg"
	 xmlns="http://www.w3.org/2000/svg" xmlns:xlink="http://www.w3.org/1999/xlink" x="0px" y="0px" width="45.354px"
	 height="45.354px" viewBox="0 0 45.354 45.354" xml:space="preserve">
<sodipodi:namedview  bordercolor="#666666" borderopacity="1.0" fit-margin-bottom="0" fit-margin-left="0" fit-margin-right="0" fit-margin-top="0" id="base" inkscape:current-layer="layer1" inkscape:cx="13.911542" inkscape:cy="12.688391" inkscape:document-units="mm" inkscape:pageopacity="0" inkscape:pageshadow="2" inkscape:window-height="745" inkscape:window-maximized="0" inkscape:window-width="1334" inkscape:window-x="519" inkscape:window-y="208" inkscape:zoom="5.6" pagecolor="#80ffff" showgrid="false" units="mm">
	</sodipodi:namedview>
<rect id="rect19870" fill="#008000" width="45.354" height="45.354"/>
<path id="rect7920" fill="#DBBA93" d="M4.688,1.417h35.978c1.806,0,3.271,1.464,3.271,3.271v35.978c0,1.806-1.464,3.271-3.271,3.271
	H4.688c-1.806,0-3.271-1.464-3.271-3.271V4.688C1.417,2.882,2.882,1.417,4.688,1.417z"/>
<path id="rect8547" fill="#E6E6E6" d="M9.611,6.34h26.166c1.806,0,3.271,1.464,3.271,3.271v26.166c0,1.806-1.464,3.271-3.271,3.271
	H9.611c-1.806,0-3.271-1.464-3.271-3.271V9.611C6.34,7.805,7.805,6.34,9.611,6.34z"/>
<path id="path8549" inkscape:connector-curvature="0" fill="#CCCCCC" d="M26.602,22.677c0,2.168-1.757,3.925-3.925,3.925
	s-3.925-1.757-3.925-3.925s1.757-3.925,3.924-3.925C24.844,18.752,26.601,20.509,26.602,22.677
	C26.602,22.676,26.602,22.677,26.602,22.677z"/>
<path id="path8565" inkscape:connector-curvature="0" fill="none" stroke="#000000" stroke-width="1.2265" d="M27.583,22.677
	c0,2.71-2.197,4.906-4.906,4.906s-4.906-2.197-4.906-4.906s2.197-4.906,4.906-4.906S27.583,19.968,27.583,22.677z"/>
<g id="path8577">
	<g>
		<path fill="#EDDDC9" d="M2.028,41.358c-0.226,0-0.409-0.184-0.409-0.409V4.972c0-1.849,1.504-3.353,3.353-3.353H40.95
			c0.226,0,0.409,0.183,0.409,0.409s-0.184,0.409-0.409,0.409H4.972c-1.398,0-2.535,1.137-2.535,2.535V40.95
			C2.437,41.175,2.253,41.358,2.028,41.358z"/>
	</g>
</g>
<g id="path8582">
	<g>
		<path fill="#6E5D4A" d="M40.383,43.735H4.405c-0.226,0-0.409-0.184-0.409-0.409s0.183-0.409,0.409-0.409h35.978
			c1.397,0,2.534-1.137,2.534-2.534V4.405c0-0.226,0.184-0.409,0.409-0.409s0.409,0.183,0.409,0.409v35.978
			C43.735,42.231,42.231,43.735,40.383,43.735z"/>
	</g>
</g>
</svg>
