<?xml version="1.0" encoding="utf-8"?>
<!-- Generator: Adobe Illustrator 20.0.0, SVG Export Plug-In . SVG Version: 6.00 Build 0)  -->
<svg version="1.2" baseProfile="tiny" id="Layer_1" xmlns="http://www.w3.org/2000/svg" xmlns:xlink="http://www.w3.org/1999/xlink"
	 x="0px" y="0px" width="6.803px" height="9.921px" viewBox="0 0 6.803 9.921" xml:space="preserve">
<g>
	
		<rect x="-1.559" y="1.984" transform="matrix(-1.836970e-16 1 -1 -1.836970e-16 8.3622 1.5591)" fill="#DCDCDC" width="9.921" height="5.953"/>
	
		<rect x="3.969" y="0.992" transform="matrix(-1.836970e-16 1 -1 -1.836970e-16 7.7953 -2.9764)" fill="#E6E6E6" width="2.835" height="2.835"/>
	<path fill="#F0F0F0" d="M0,8.929V0.992h4.677c0.83,0.83,1.296,1.296,2.126,2.126v5.811H0z"/>
	<circle fill="#DCDCDC" cx="3.402" cy="4.961" r="2.976"/>
	<circle fill="#F0F0F0" cx="3.402" cy="4.961" r="1.984"/>
	<g>
		<path fill="#C8C8C8" d="M2.79,4.37v1.463h1.222V4.37l0.801-0.801c-0.36-0.365-0.859-0.592-1.412-0.592S2.349,3.204,1.989,3.569
			L2.79,4.37z"/>
		<path fill="#C8C8C8" d="M2.124,6.467V4.776L1.564,4.217c-0.093,0.23-0.147,0.48-0.147,0.744C1.417,5.567,1.695,6.103,2.124,6.467z
			"/>
		<path fill="#C8C8C8" d="M4.679,6.467c0.429-0.364,0.706-0.9,0.706-1.506c0-0.263-0.054-0.514-0.147-0.744L4.679,4.776V6.467z"/>
	</g>
</g>
</svg>
