<?xml version='1.0' encoding='UTF-8' standalone='no'?>
<svg xmlns="http://www.w3.org/2000/svg" height="93.413055pt" id="svg4" width="28.34646pt" version="1.1" viewBox="0 0 28.34646 93.413055" gorn="0" >
    <desc >
        <referenceFile >halogen.svg</referenceFile>
    </desc>
    <metadata id="metadata10" >
        <rdf:RDF xmlns:rdf="http://www.w3.org/1999/02/22-rdf-syntax-ns#">
            <cc:Work xmlns:cc="http://creativecommons.org/ns#" rdf:about="" xmlns:rdf="http://www.w3.org/1999/02/22-rdf-syntax-ns#">
                <dc:format xmlns:dc="http://purl.org/dc/elements/1.1/">image/svg+xml</dc:format>
                <dc:type rdf:resource="http://purl.org/dc/dcmitype/StillImage" xmlns:dc="http://purl.org/dc/elements/1.1/" xmlns:rdf="http://www.w3.org/1999/02/22-rdf-syntax-ns#"/>
                <dc:title xmlns:dc="http://purl.org/dc/elements/1.1/"/>
            </cc:Work>
        </rdf:RDF>
    </metadata>
    <defs id="defs8" />
    <path id="path2" stroke-opacity="1" fill-opacity="1" stroke="#8c8c8c" fill="#8c8c8c" stroke-width="0.174266" gorn="0.3"  d="m 7.5864795,65.15373 -0.0135,25.16859 c -8.7e-4,1.65895 0.40982,3.0036 0.91511,3.0036 0.5053,0 0.91546,-1.3446 0.91512,-3.0036 l -0.005,-25.16859 z"/>
    <path id="path2-5" stroke-opacity="1" fill-opacity="1" stroke="#8c8c8c" fill="#8c8c8c" stroke-width="0.174265" gorn="0.4"  d="m 18.90482,65.15373 -0.0135,25.16858 c -8.7e-4,1.65896 0.40981,3.00361 0.91511,3.00361 0.5053,0 0.91546,-1.34462 0.91512,-3.00361 l -0.005,-25.16858 z"/>
    <path id="path938" stroke="#666666" fill="#b3b3b3" stroke-width="0.214831" gorn="0.5"  d="M 19.76731,47.31428 19.74581,24.2629 18.75342,20.05548 v 4.1429 c 0,0.2649 -0.18668,0.4894 -0.43559,0.52207 -0.24892,0.0318 -0.48146,-0.13675 -0.54203,-0.39478 l -1.00795,-4.27039 v 4.14291 c 0,0.26489 -0.18669,0.48939 -0.4356,0.52206 -0.24891,0.0318 -0.48145,-0.13675 -0.54203,-0.39478 l -1.00713,-4.27039 v 4.14291 c 0,0.2649 -0.1875,0.48939 -0.43641,0.52207 -0.2481,0.0318 -0.48064,-0.13676 -0.54204,-0.39479 l -1.00712,-4.27039 v 4.14291 c 0,0.2649 -0.18669,0.48939 -0.43559,0.52207 -0.24893,0.0318 -0.48146,-0.13675 -0.54205,-0.39478 l -1.00793,-4.27039 v 4.1429 c 0,0.2649 -0.18669,0.4894 -0.4356,0.52207 -0.24891,0.0318 -0.4814605,-0.13675 -0.5420405,-0.39478 l -1.00794,-4.27039 0.0343,27.27621 -0.99704,-0.0128 -0.0295,-31.52542 c -8.3e-4,-0.0387 0.003,-0.0765 0.01,-0.11439 0.0188,-0.10407 0.0671,-0.19696 0.1351,-0.26835 0.0237,-0.0249 0.0491,-0.0473 0.0769,-0.0662 0.0786,-0.0559 0.17277,-0.0877 0.2743,-0.0877 0.14083,0 0.26855,0.0619 0.35862,0.1617 0.0237,0.0267 0.0459,0.0559 0.0639,0.0877 0.0287,0.049 0.05,0.10321 0.0623,0.16083 l 1.00467,4.25828 v -4.1429 c 0,-0.26576 0.1866905,-0.4894 0.4356005,-0.52207 0.24891,-0.0318 0.48146,0.13675 0.54204,0.39478 l 1.00712,4.27039 v -4.14291 c 0,-0.26575 0.18751,-0.48939 0.43641,-0.52206 0.2481,-0.0318 0.48065,0.13675 0.54204,0.39478 l 1.00712,4.27039 v -4.14291 c 0,-0.26576 0.18669,-0.48939 0.4356,-0.52207 0.24891,-0.0318 0.48146,0.13675 0.54203,0.39479 l 1.00795,4.27039 v -4.14291 c 0,-0.26576 0.18669,-0.48939 0.4356,-0.52207 0.24891,-0.0318 0.48146,0.13675 0.54203,0.39478 l 1.00795,4.27039 v -4.1429 c 0,-0.26576 0.18669,-0.4894 0.43559,-0.52207 0.24892,-0.0318 0.48146,0.13675 0.54204,0.39478 l 1.00713,4.27039 v -4.1429 c 0,-0.29071 0.22271,-0.52551 0.49701,-0.52551 0.27347,0 0.49619,0.2348 0.49619,0.52551 v 8.40471 0.0224 l 0.0215,23.10422 z"/>
    <path id="path965" stroke="#ff0000" fill="none" stroke-width="0.22018" gorn="0.6"  d="m 21.25917,54.83952 v -1.1e-4"/>
    <path id="path930" stroke="#4d4d4d" fill="#b3b3b3" stroke-width="0.22018" gorn="0.7"  d="m 6.7006595,65.17883 c -1.48217,-0.002 -2.60693,-1.54901 -2.60693,-3.11268 V 50.49547 c 0,-1.74339 1.40021,-3.15562 3.12809,-3.15562 0.76756,-6e-5 1.35234,-6.6e-4 2.08566,-6.6e-4 1.7270505,0 3.1281005,1.41225 3.1281005,3.15562 v 11.57067 c 0,1.56363 -1.10709,3.11121 -2.6069405,3.11269 z"/>
    <path id="path988" stroke="#b3b3b3" fill="none" stroke-width="0.749179" gorn="0.8"  style="stroke-miterlimit:4;stroke-dasharray:none" d="m 21.5322,73.98946 c 0.49624,0.0673 0.99172,0.14209 1.48642,0.22315 2.60405,0.4278 4.95325,-1.72246 4.95325,-4.53401 V 41.84911 c 0,-0.98484 -0.46134,-1.90383 -1.2292,-2.45048 L 26.03169,38.89218 C 25.51953,38.52859 25.21221,37.91537 25.21221,37.25881 V 10.89232 c 0,-3.2530805 -2.47138,-5.8897305 -5.51927,-5.8897305 h -1.95606 l -0.98791,-2.74022 c -0.90749,-2.51704 -4.24464,-2.51704 -5.15137,0 l -0.98792,2.74022 H 8.6536295 c -3.04789,0 -5.51926,2.63665 -5.51926,5.8897305 v 26.36649 c 0,0.65656 -0.30731,1.26978 -0.8195,1.63337 h -1.1e-4 l -0.71173,0.50645 c -0.76711,0.54662 -1.22844,1.46561 -1.22844,2.45048 V 69.6786 c 0,2.81172 2.34841,4.96181 4.95325,4.53401 0.49472,-0.081 1.16305,-0.13741 1.65851,-0.20481 L 10.48277,73.54548 c 2.45078,-0.16616 4.91935,-0.0963 7.37014,0.0699 z"/>
    <path id="path930-6" stroke="#4d4d4d" fill="#b3b3b3" stroke-width="0.220179" gorn="0.9"  d="m 18.76819,65.17883 c -1.48217,-0.002 -2.60694,-1.54901 -2.60694,-3.11268 V 50.49547 c 0,-1.74339 1.40022,-3.15562 3.1281,-3.15562 0.76756,-6e-5 1.35233,-6.6e-4 2.08566,-6.6e-4 1.72704,0 3.12809,1.41225 3.12809,3.15562 v 11.57067 c 0,1.56363 -1.10709,3.11121 -2.60693,3.11269 z"/>
</svg>
