<svg xmlns="http://www.w3.org/2000/svg" xmlns:xlink="http://www.w3.org/1999/xlink" width="151" height="59"><style><![CDATA[.B{fill-opacity:0}.C{fill:#fff}.D{font-family:OCRA}.E{stroke:#1f0000}.F{stroke-width:20}.G{font-size:5.105px}.H{fill:#0d9557}]]></style><defs><linearGradient x2="67.733" gradientUnits="userSpaceOnUse" id="A" y1="24.417" y2="24.417" x1="39.353"/><linearGradient x2="95.549" gradientUnits="userSpaceOnUse" id="B" y1="24.541" y2="24.541" x1="74.046"/><path id="C" d="M97.653 49.298l-.01-3.45 5.876-.016.01 3.45z"/><path id="D" d="M144.737 7.822l-.194-.05-7.382-.783.083-.077-.04-2.576.245.002 7.357-.81.07.078 4.588 2.076-.202.046z"/></defs><path d="M0 0h127.964v58.174H0z" fill="#0a73b1"/><text y="7.648" x="115.533" transform="scale(1.0073243 .99272895)" text-anchor="end" class="C D G">Key</text><text y="17.266" x="104.165" transform="scale(1.0073243 .99272895)" class="C D G">VCC</text><text y="26.334" x="104.214" transform="scale(1.0073243 .99272895)" class="C D G">GND</text><text y="36.072" x="104.087" transform="scale(1.0073243 .99272895)" class="C D G">TXD</text><text y="45.69" x="104.087" transform="scale(1.0073243 .99272895)" class="C D G">RXD</text><text y="52.325" x="102.774" font-size="4.898" transform="scale(.96647707 1.0346857)" class="C D">State</text><g fill="#28220b" class="B"><path d="M38.853 10.002h28.754v28.584H38.853z"/><path d="M39.502 24.435V10.82h27.88v27.23h-27.88V24.435zm3.056 4.1c.223-.314.25-.747.07-1.082-.084-.154-.084-.256 0-.307.2-.116.15-.712-.07-1.02-.167-.235-.31-.274-1-.274h-.806v2.957h.806c.69 0 .833-.04 1-.274zm2.695.09c0-.103-.11-.185-.25-.185-.233 0-.25-.082-.25-1.232v-1.232h-.5c-.374 0-.5.05-.5.196 0 .108.113.225.25.26.223.058.25.168.25 1.036 0 .89-.02.97-.25.97-.14 0-.25.082-.25.185 0 .144.167.185.75.185s.75-.04.75-.185zm3-.876c0-.952-.02-1.034-.25-1.034-.22 0-.25.082-.25.674 0 .618-.03.7-.36.858-.43.22-.516.157-.516-.367 0-.65-.145-1.165-.328-1.165-.13 0-.172.21-.172.852 0 1.24.002 1.243 1.013 1.228l.862-.013v-1.034zm2.75.876c0-.133-.138-.185-.5-.185-.554 0-.885-.097-.885-.26 0-.06.31-.1.688-.1h.688v-.452c0-.616-.292-.903-.916-.903-.736 0-.96.257-.96 1.103 0 .383.068.762.15.843s.492.148.938.148c.617 0 .788-.04.788-.185zm2.727-.216c.044-.377-.215-.466-.47-.16-.266.316-.506.083-.506-.49 0-.512.017-.535.406-.572.26-.025.406-.105.406-.223s-.146-.2-.406-.223c-.337-.032-.406-.1-.406-.34 0-.218-.068-.3-.25-.3-.172 0-.25.082-.25.264a.62.62 0 0 1-.219.431c-.208.16-.208.176 0 .335.156.12.22.343.22.776 0 .765.16.925.874.88.51-.033.567-.068.603-.375zm2.724.1c.266-.4.175-1.39-.15-1.623-.346-.25-1.135-.202-1.427.085-.308.304-.34 1.175-.055 1.574.156.22.316.274.8.274.52 0 .647-.048.822-.3zm2.696.107c.167-.15.23-.38.23-.855 0-.767-.264-1.035-1.02-1.035-.655 0-1.03.475-.946 1.2.033.288.13.607.215.708.216.257 1.226.244 1.522-.02zm2.83.056c.192-.2.195-.59.004-.59-.08 0-.246.09-.367.197-.32.286-.487.11-.487-.512 0-.52.017-.547.362-.547.2 0 .392-.078.43-.173.092-.236-.02-.32-.428-.32-.263 0-.355-.066-.385-.276-.06-.4-.478-.446-.478-.04 0 .2-.07.317-.188.317-.104 0-.188.1-.188.246s.083.246.188.246c.143 0 .188.155.188.653 0 .77.142.95.75.95.248 0 .518-.067.6-.148zm1.525-.485c0-.66.2-.956.656-.965.18-.003.22.106.22.602 0 .72.1.996.326.996.133 0 .174-.214.174-.91 0-1.08-.13-1.25-.876-1.152-.497.066-.5.065-.5-.354 0-.337-.05-.42-.25-.42-.236 0-.25.082-.25 1.417s.014 1.417.25 1.417c.218 0 .25-.082.25-.633zM41.7 22.895c.03 0 .052-.47.052-1.047V20.8h1.75v.97c0 1.016.144 1.327.547 1.174.178-.067.203-.378.203-2.528v-2.45h-.3c-.38 0-.45.192-.45 1.242v.852h-1.74l-.036-1.016c-.035-.993-.044-1.016-.35-1.016h-.313l-.034 2.394c-.035 2.45.01 2.694.45 2.533.092-.033.2-.06.22-.06zm6.98.048c.11-.04.198-.207.198-.37 0-.278-.043-.295-.74-.295-.865 0-.94-.057-1.436-1.083l-.364-.754.853-1.675.813-.062c.776-.06.814-.077.852-.4l.04-.34h-.987c-.862 0-1.02.035-1.25.277-.37.4-1.03 1.812-1.03 2.22 0 .5.95 2.295 1.286 2.428.32.127 1.477.16 1.767.05zm9.028.001c.448-.12.547-.568.545-2.49-.002-2.478.037-2.418-1.627-2.463-1.796-.05-1.747-.12-1.747 2.514 0 2.524-.007 2.513 1.53 2.5.567-.001 1.15-.033 1.297-.072zm4.867-.1c.2-.15.243-.328.243-1.304 0-1.357-.1-1.478-1.212-1.478h-.726v-1.355h.86c.903 0 1.215-.158 1.067-.54-.065-.167-.293-.2-1.377-.2h-1.3V20.8h1.875v1.478h-.56a5.36 5.36 0 0 1-1.132-.151c-.483-.127-.59-.123-.687.03-.17.267-.088.404.39.637.552.27 2.21.3 2.56.047zm-9.51-2.35v-.37l-2.313-.07v.354c0 .195.04.393.088.44s.57.07 1.156.05l1.07-.035v-.37z"/></g><g fill="#222b00" class="B"><path d="M73.858 9.88h21.628v28.584H73.858z"/><path d="M73.882 24.558V10.82H95v27.475H73.882V24.558z"/></g><path d="M38.853 9.756h28.63V38.71h-28.63z" class="B"/><path d="M39.45 24.434V10.758h27.88V38.1H39.45V24.434zm2.963 4.25c.24-.166.267-.298.264-1.307-.005-1.424-.132-1.588-1.226-1.588h-.75v3.08h.722c.44 0 .827-.072 1-.185zm2.85-.062c0-.102-.125-.202-.277-.224-.26-.037-.28-.107-.313-1.232l-.036-1.193H44.2c-.5 0-.63.343-.156.4.265.037.28.097.28 1.016 0 .885-.023.977-.243.977-.133 0-.277.055-.32.123-.164.262.108.38.792.345.53-.027.708-.083.708-.22zm2.32.12c.167-.088.242-.088.242 0 0 .07.084.128.188.128.152 0 .188-.198.188-1.04 0-.572-.053-1.073-.12-1.112-.18-.1-.38.352-.38.868 0 .478-.252.78-.656.788-.186.003-.22-.114-.22-.784 0-.562-.05-.807-.175-.854-.278-.105-.325.027-.325.914 0 .593.057.9.196 1.027.225.222.7.252 1.062.066zm3.43-.12c0-.135-.17-.195-.625-.223-.903-.055-1.025-.27-.152-.27.666 0 .715-.02.794-.33.125-.5-.184-.94-.742-1.078-.4-.096-.523-.074-.8.136s-.348.36-.38.88c-.054.896.23 1.16 1.2 1.1.534-.028.713-.083.713-.222zm2.616.053c.273-.27.246-.546-.054-.546-.138 0-.25.06-.25.132s-.127.114-.28.092c-.24-.034-.287-.125-.32-.625l-.038-.585h.454c.364 0 .445-.042.412-.216-.027-.14-.18-.23-.44-.254-.3-.03-.407-.105-.437-.308-.05-.344-.243-.346-.415-.006a2.88 2.88 0 0 1-.299.461c-.14.165-.133.2.036.273.146.055.202.236.202.652 0 .76.262 1.123.8 1.123.232 0 .5-.087.618-.194zm2.67.002c.227-.157.278-.3.276-.832-.001-.352-.043-.7-.094-.775-.286-.42-1.18-.5-1.6-.157-.25.204-.222 1.447.04 1.73s1.007.298 1.4.034zm2.8-.012c.283-.253.327-1.533.06-1.752-.43-.352-1.326-.265-1.6.157-.05.075-.093.423-.094.775-.002.523.05.675.276.832.364.25 1.08.245 1.37-.012zm2.908-.068c.25-.352.053-.592-.306-.372-.486.3-.624.196-.624-.465v-.616h.438c.3 0 .438-.058.438-.172 0-.187-.262-.32-.627-.32-.144 0-.246-.104-.27-.277-.05-.343-.396-.367-.455-.03-.024.136-.137.32-.252.408-.194.15-.193.173.01.322.158.116.22.333.22.784 0 .744.215 1.012.814 1.012.293 0 .48-.083.615-.272zm1.446-.402c0-.62.03-.7.362-.86.478-.244.6-.083.66.798.03.5.087.674.226.674.15 0 .186-.18.18-.9-.01-1.188-.3-1.442-1.2-1.064-.184.076-.22.023-.22-.333 0-.5-.102-.638-.332-.45-.12.098-.168.493-.168 1.395 0 1.275.035 1.422.333 1.422.12 0 .167-.195.167-.674zM41.75 22.76c.042-.107.076-.578.076-1.047v-.852h1.75v2.1l.688-.078.034-2.354c.036-2.47-.02-2.75-.518-2.563-.165.063-.203.27-.203 1.1v1.034h-1.75v-.87c0-.916-.14-1.347-.438-1.347-.098 0-.237.107-.308.238-.138.254-.185 4.282-.054 4.618.042.107.204.195.362.195s.32-.088.362-.195zm7.182-.098c.064-.33-.2-.442-1-.444l-.717-.002-.377-.736c-.207-.405-.377-.85-.377-1 0-.363.7-1.68.942-1.77.112-.042.482-.077.823-.077.665 0 .898-.213.6-.556-.193-.23-1.426-.246-1.874-.026-.455.224-1.24 1.74-1.246 2.402-.004.6.7 2.138 1.088 2.36.122.07.642.116 1.157.1.804-.025.943-.062.98-.26zm9.075.1c.164-.16.196-.552.196-2.334 0-2.592.044-2.524-1.625-2.524s-1.625-.075-1.625 2.57c0 1.536.045 2.23.15 2.334.24.237 2.656.2 2.904-.046zm4.626 0c.147-.145.196-.45.196-1.223 0-1.288-.103-1.417-1.134-1.417h-.74v-1.468l.905-.036c.77-.03.912-.07.95-.268.07-.36-.2-.442-1.45-.444l-1.156-.002v2.957h1.875v1.376l-.844-.064-1.22-.103c-.305-.03-.382.01-.414.23-.063.438.492.644 1.75.65.825.004 1.132-.042 1.28-.2zm-9.578-2.3l-.04-.4h-1.05c-1.104 0-1.402.146-1.225.6.065.166.278.202 1.215.202h1.137l-.04-.4zM.222 1.008h25.63v53.35H.222z" class="B"/><path d="M1.194 28.682V6.012h24.754v1.602h1.572c1.84 0 1.93-.044 1.93-.977v-.625h1.875v1.602h1.634c1.91 0 1.99-.04 1.99-.977v-.625h.625c.472 0 .625.045.625.185 0 .102.084.185.188.185.117 0 .188.116.188.308 0 .17.056.308.125.308s.125.14.125.308v.308h1.56c1.884 0 2.064-.09 2.064-1.013v-.59h.625c.472 0 .625.045.625.185 0 .102.084.185.188.185.132 0 .188.13.188.44 0 .722.165.792 1.865.792 1.824 0 2.01-.094 2.01-1.013v-.59h.625c.472 0 .625.045.625.185 0 .102.056.185.125.185s.125.222.125.493c0 .356.052.493.188.493.103 0 .188.055.188.123 0 .076.607.123 1.572.123 1.84 0 1.93-.044 1.93-.977v-.625h1.247l.08.493c.044.27.13.493.19.493s.11.06.11.132c0 .393.36.484 1.93.484.964 0 1.572-.048 1.572-.123 0-.068.084-.123.188-.123.144 0 .188-.157.188-.678v-.678h1.25v.603c0 .54.032.61.313.68.172.043.313.132.313.198 0 .073.624.12 1.56.12 1.884 0 2.064-.09 2.064-1.013v-.59h.548c.6 0 .697.136.7.89.001.255.077.355.314.414.172.043.313.127.313.187s.647.1 1.438.1c.875 0 1.438-.048 1.438-.123 0-.068.14-.123.313-.123.295 0 .313-.037.313-.678v-.678h.61c.658 0 .76.118.763.885.001.22.084.356.252.41.138.043.25.13.25.193s.656.115 1.5.115c.825 0 1.5-.05 1.5-.1s.14-.145.313-.187c.28-.07.313-.14.313-.69v-.614h1.25v.614c0 .552.03.62.313.69.172.043.313.127.313.187s.675.1 1.5.1c.845 0 1.5-.05 1.5-.115s.113-.15.25-.193c.167-.052.25-.187.252-.41.004-.692.126-.885.56-.885s.557.193.56.885c.001.22.084.356.252.41.138.043.25.13.25.193s.656.115 1.5.115 1.5-.05 1.5-.115.113-.15.25-.193c.167-.052.25-.187.252-.41.004-.767.105-.885.763-.885h.61v.614c0 .552.03.62.313.69.172.043.313.127.313.187s.675.1 1.5.1c.845 0 1.5-.05 1.5-.115s.113-.15.25-.193c.167-.052.25-.187.252-.41.004-.743.114-.885.686-.885s.682.14.686.89c.001.255.077.355.314.414.172.043.313.127.313.187s.647.1 1.438.1c.875 0 1.438-.048 1.438-.123 0-.068.084-.123.188-.123.135 0 .188-.137.188-.493 0-.27.056-.493.125-.493s.125-.083.125-.185c0-.155.264-.185 1.625-.185s1.625.03 1.625.185c0 .102.056.185.125.185s.125.4.125.924v.924h-.625c-.472 0-.625.045-.625.185 0 .102-.084.185-.188.185s-.188.083-.188.185-.056.185-.125.185c-.075 0-.125.513-.125 1.294 0 1.603.122 1.787 1.188 1.787h.688v1.602h-.625c-.344 0-.625.055-.625.123s-.084.123-.188.123-.188.083-.188.185-.056.185-.125.185c-.076 0-.125.554-.125 1.417V17.1h1.875v.933c0 1.136-.115 1.285-.99 1.285-.48 0-.634.045-.634.185 0 .102-.056.185-.125.185-.076 0-.125.554-.125 1.417v1.417h.813c.64 0 .813.04.813.185 0 .102.056.185.125.185s.125.4.125.924v.924h-.813c-.64 0-.813.04-.813.185 0 .102-.056.185-.125.185-.075 0-.125.513-.125 1.294 0 1.603.122 1.787 1.188 1.787h.688v1.848h-.813c-.64 0-.813.04-.813.185 0 .102-.056.185-.125.185-.076 0-.125.534-.125 1.355 0 1.672.113 1.848 1.188 1.848h.688v1.848h-.813c-.64 0-.813.04-.813.185 0 .102-.056.185-.125.185-.076 0-.125.554-.125 1.417 0 .925.046 1.417.134 1.417.074 0 .218.083.32.185.116.114.423.185.804.185h.616v.616c0 .34-.056.616-.125.616s-.125.083-.125.185c0 .133-.14.185-.5.185-.275 0-.5.055-.5.123s-.06.123-.134.123c-.388 0-.49.362-.49 1.715 0 1.71.092 1.858 1.153 1.858h.722v.563c0 .68-.205.915-.804.915-.314 0-.446.055-.446.185 0 .102-.06.185-.134.185-.388 0-.49.362-.49 1.716 0 .827.05 1.364.125 1.364.07 0 .125.083.125.185 0 .145.174.185.813.185h.813v1.602h-3.75v-.792c0-.54-.06-.85-.188-.977-.213-.2-.248-.45-.065-.45.067 0 .158-.14.2-.308s.13-.308.2-.308.11-1.333.11-3.02l-.125-3.02c-.07 0-.125-.083-.125-.185 0-.15-.207-.185-1.115-.185-.613 0-1.204.034-1.313.075-.174.066-.198.48-.198 3.388 0 2.863.025 3.313.188 3.313.103 0 .188.055.188.123s-.2.123-.447.123c-.328 0-.545.096-.813.36-.324.32-.365.446-.365 1.11v.75h-1.375v-.8c0-.452-.055-.8-.125-.8s-.125-.083-.125-.185-.056-.185-.125-.185-.125-.055-.125-.123.333-.123.75-.123.75-.055.75-.123.08-.123.18-.123.267-.087.375-.194c.168-.165.196-.632.196-3.203 0-2.928-.007-3-.25-3-.14 0-.25-.082-.25-.185 0-.152-.222-.185-1.25-.185s-1.25.033-1.25.185c0 .102-.056.185-.125.185s-.136.48-.15 1.14l-.025 1.14-.042-1.016c-.023-.56-.096-1.016-.162-1.016-.073 0-.12 1.13-.12 2.895l.125 2.895c.07 0 .136-.417.15-.955l.025-.955.043.955c.023.525.096.955.162.955s.12.083.12.185.084.185.188.185.188.055.188.123-.42.123-1.01.123c-.988 0-1.007-.005-.92-.277.048-.152.136-.296.196-.318.156-.06.14-6.058-.017-6.058-.07 0-.125-.083-.125-.185 0-.276-2.273-.268-2.554.01-.168.166-.196.644-.196 3.338 0 3.04.008 3.147.25 3.21.138.035.25.113.25.173s.338.11.75.11.75.055.75.123-.056.123-.125.123-.125.083-.125.185-.084.185-.188.185c-.147 0-.188.17-.188.8v.8h-1.375v-.8c0-.452-.055-.8-.125-.8s-.125-.06-.125-.132c0-.263-.367-.484-.804-.484-.513 0-.596-.183-.134-.297l.313-.077v-3.14c0-2.708-.026-3.14-.188-3.14-.103 0-.188-.083-.188-.185 0-.152-.222-.185-1.25-.185s-1.25.033-1.25.185c0 .102-.056.185-.125.185s-.136.48-.15 1.14l-.025 1.14-.042-1.016c-.023-.56-.096-1.016-.162-1.016-.073 0-.12 1.13-.12 2.895l.125 2.895c.07 0 .136-.438.15-1.016l.025-1.016.042 1.016c.023.56.096 1.016.162 1.016s.12.083.12.185.084.185.188.185c.24 0 .24.177 0 .414-.103.102-.188.244-.188.317s-.056.132-.125.132-.125.35-.125.8v.8H78.58v-.8c0-.452-.054-.8-.125-.8s-.125-.06-.125-.132c0-.383-.367-.484-1.75-.484s-1.75.1-1.75.484c0 .073-.084.132-.188.132-.147 0-.188.17-.188.8v.8h-1.25v-.75c0-.663-.042-.8-.365-1.11-.36-.355-.385-.36-1.76-.36-1.384 0-1.75.1-1.75.484 0 .073-.056.132-.125.132s-.125.35-.125.8v.8h-1.375v-.75c0-.663-.042-.8-.365-1.11-.36-.355-.386-.36-1.75-.36-.9 0-1.385.046-1.385.132 0 .17-.318.484-.49.484-.082 0-.134.313-.134.8v.8h-1.25v-.796c0-.564-.056-.842-.192-.955l-.366-.313c-.225-.2-3.068-.22-3.068-.022 0 .17-.318.484-.49.484-.082 0-.134.313-.134.8v.8h-1.25v-.924c0-.74-.038-.924-.188-.924-.103 0-.188-.083-.188-.185 0-.154-.25-.185-1.5-.185-1.334 0-1.528.027-1.75.246-.138.136-.25.357-.25.493s-.056.246-.125.246-.125.277-.125.616v.616h-1.375V50.5c0-.698-.048-.91-.25-1.11s-.417-.246-1.125-.246c-.897 0-1.045-.097-.688-.45.16-.157.188-.785.188-4.11l-.076-4.12c-.068-.174-.713-.195-6-.195H37.45v4.12l.188 4.303c.3.296.22.45-.237.45-.433 0-.576.155-.576.626 0 .13-.056.236-.125.236s-.125.305-.125.678v.678H34.95v-.8c0-.44-.05-.8-.11-.8s-.147-.14-.2-.308c-.078-.308-.08-.308-1.625-.308-1.79 0-1.7-.07-1.7 1.304v.914H29.45v-.8c0-.44-.05-.8-.11-.8s-.147-.14-.2-.308c-.078-.308-.08-.308-1.64-.308h-1.56v2.218H5.07V49.75h4.635c4.954 0 4.992-.005 4.992-.607 0-.14.056-.255.125-.255.08 0 .125-1.006.125-2.772l-.125-2.772c-.07 0-.125-.33-.125-.74v-.74h-.5c-.36 0-.5-.05-.5-.185 0-.16-.528-.185-4-.185-2.584 0-4-.044-4-.123 0-.068-.084-.123-.188-.123s-.188-.083-.188-.185-.056-.185-.125-.185-.125-.14-.125-.308c0-.192.07-.308.188-.308.103 0 .188.055.188.123 0 .08 1.354.123 3.813.123l3.813-.123c0-.07.354-.123.813-.123.64 0 .813-.04.813-.185 0-.102.056-.185.125-.185s.125-.222.125-.493c0-.356.052-.493.188-.493.16 0 .188-.376.188-2.65s-.027-2.65-.188-2.65c-.117 0-.188-.116-.188-.308 0-.17-.056-.308-.125-.308s-.125-.166-.125-.37v-.37h-.813c-.458 0-.813-.054-.813-.123 0-.08-1.417-.123-4-.123-2.362 0-4-.047-4-.114s1.894-.13 4.584-.154l4.636-.194c.03-.085.132-.154.23-.154.106 0 .177-.124.177-.308 0-.17.056-.308.125-.308s.125-.083.125-.185.084-.185.188-.185c.16 0 .188-.397.188-2.834s-.026-2.834-.188-2.834c-.135 0-.188-.137-.188-.493 0-.27-.056-.493-.125-.493s-.125-.14-.125-.308c0-.246-.063-.308-.313-.308-.172 0-.313-.055-.313-.123 0-.08-1.49-.124-4.22-.125l-4.5-.076c-.156-.04-.28-.17-.28-.3 0-.33.524-.37 5.095-.37l4.157-.125c0-.068.084-.123.188-.123s.188-.083.188-.185.056-.185.125-.185.125-.083.125-.185.084-.185.188-.185c.162 0 .188-.425.188-3.1v-3.1l-.73-.72H10.01c-5.07 0-4.94.02-4.94-.792v-.44h6.438l6.438-.185c0-.102.056-.185.125-.185.076 0 .125-.537.125-1.364 0-1.113-.04-1.402-.2-1.57-.192-.19-.863-.207-7.835-.207l-7.677.154c-.03.085-.132.154-.23.154-.15 0-.177.58-.177 3.635V17.1h9.376v1.206l-8.855.087-.26.296c-.25.286-.26.424-.26 3.973l.177 3.677c.097 0 .2.07.23.154.04.118 1.08.162 4.51.19l4.46.035v1.223H7l-4.657.207c-.185.182-.214.62-.247 3.635l-.037 3.428h2.13c1.337 0 2.13.046 2.13.123 0 .068.084.123.188.123s.188-.055.188-.123c0-.078.875-.123 2.375-.123h2.375v1.848h-4.5l-4.5.185c0 .102-.084.185-.188.185-.162 0-.188.486-.188 3.635s.025 3.635.188 3.635c.117 0 .188.116.188.308v.308h9v1.355H6.99c-4.405 0-4.457.003-4.688.265-.208.236-.233.49-.233 2.34v2.076h-.875v-22.67zM63.83 48.334c0-.102.06-.185.134-.185s.218-.083.32-.185c.143-.14.498-.185 1.482-.185s1.34.044 1.482.185c.103.102.248.185.32.185s.134.083.134.185c0 .158.347.185 2.375.185s2.375-.027 2.375-.185c0-.102.084-.185.188-.185s.188-.055.188-.123.084-.123.188-.123c.16 0 .188-.36.188-2.513 0-2.177-.026-2.523-.198-2.587-.11-.04-1.427-.075-2.93-.075-2.26 0-2.764.032-2.92.185-.14.138-.486.185-1.37.185-.936 0-1.198-.04-1.255-.185-.1-.283-5.72-.275-6.01.01s-.296 4.98-.01 4.98c.103 0 .188.055.188.123s.084.123.188.123.188.083.188.185c0 .158.347.185 2.375.185s2.375-.027 2.375-.185zm-8.824-.506c.11-.04.198-.207.198-.37s.056-.295.125-.295.125-.43.125-1.047-.05-1.047-.125-1.047-.125-.37-.125-.862.054-.862.125-.862.125-.4.125-.924-.053-.924-.125-.924-.125-.14-.125-.308c0-.192-.07-.308-.188-.308-.103 0-.188-.055-.188-.123s-.435-.123-1.054-.123c-.944 0-1.063.026-1.134.246-.044.136-.132.246-.196.246s-.117 1.257-.117 3.08l.125 3.08c.07 0 .125.102.125.226s.038.263.083.308c.104.103 2.076.11 2.344.007zm-20.357-.603c.043-.17.13-.308.2-.308s.11-1.333.11-3.02v-3.02h-.313c-.172 0-.313-.055-.313-.123 0-.073-.458-.123-1.125-.123s-1.125.05-1.125.123c0 .068-.137.123-.304.123-.184 0-.327.085-.362.216-.032.12-.058 1.477-.057 3.02.001 2.312.03 2.803.175 2.803.096 0 .174.083.174.185s.084.185.188.185.188.055.188.123c0 .074.5.123 1.248.123 1.227 0 1.25-.005 1.326-.308zm-4.824-2.218c0-.246.063-.308.313-.308h.313v-3.82h-.302c-.166 0-.324-.066-.35-.146-.072-.213-8.87-.217-8.943-.004-.028.082-.13.15-.228.15-.146 0-.177.36-.177 2.033 0 1.725.028 2.033.188 2.033.103 0 .188.083.188.185 0 .16.583.185 4.5.185h4.5v-.308zm42.184-4.45c.173-.065.198-.46.198-3.14 0-3.778.1-3.56-1.653-3.56-1.22 0-1.222 0-1.222.308 0 .17-.056.308-.125.308s-.136.374-.15.832l-.024.832-.044-.77c-.024-.424-.098-.77-.163-.77-.072 0-.12 1.12-.12 2.834l.12 2.834c.066 0 .14-.374.163-.832l.044-.832.024.832c.013.457.08.832.15.832s.125.083.125.185c0 .152.22.185 1.24.185.682 0 1.33-.034 1.438-.075zm23.45-1.527c.247-.244.25-.41.25-14.415l-.123-14.17c-.067 0-.158-.14-.2-.308l-.078-.308H84.568l-10.738.132c0 .073-.084.215-.188.317-.165.162-.188 1.915-.188 14.274l.188 14.274c.103.102.188.244.188.317 0 .093 3.17.132 10.69.132 10.522 0 10.693-.004 10.94-.246zm-27.952-.075c.11-.04.198-.207.198-.37s.056-.295.125-.295c.083 0 .125-4.66.125-13.738l-.125-13.738c-.07 0-.125-.222-.125-.493v-.493h-14.24l-14.315.195c-.104.267-.097 28.82.008 28.923s28.077.1 28.348.007zM32.95 37.923c0-.07.375-.123.875-.123s.875.053.875.123.378.123.885.123c.81 0 .915-.03 1.25-.36.347-.342.365-.413.365-1.417 0-.622-.05-1.057-.125-1.057s-.125-.083-.125-.185-.084-.185-.188-.185-.188-.055-.188-.123c0-.08-1.042-.123-2.875-.123s-2.875.045-2.875.123c0 .068-.138.123-.307.123-.252 0-.322.077-.39.434-.045.24-.06.784-.032 1.21.043.66.107.836.42 1.156.352.36.422.38 1.402.4.612.007 1.03-.038 1.03-.11zm-8.626-3.635c0-2.012-.045-3.142-.125-3.142-.07 0-.125-.083-.125-.185 0-.153-.23-.185-1.313-.185h-1.313V32c0 .853-.046 1.237-.153 1.272-.097.032-.17.398-.2.996-.04.807-.02.946.153.946s.2.172.2 1.11v1.11h2.875v-3.142zm4.172 2.865c.04-.152.076-.65.077-1.11.001-.658-.037-.832-.186-.832-.204 0-.262-.323-.07-.4.065-.023.156-.792.204-1.7.076-1.455.06-1.695-.117-1.87-.112-.11-.204-.26-.204-.333 0-.085-.447-.132-1.26-.132-1.246 0-1.616.11-1.616.484 0 .073-.084.132-.188.132-.16 0-.188.397-.188 2.834s.026 2.834.188 2.834c.103 0 .188.083.188.185 0 .154.255.185 1.548.185 1.5 0 1.55-.01 1.624-.277zm43.7-11.058c0-3.775.095-3.573-1.688-3.573-1.184 0-1.188.001-1.188.308 0 .17-.056.308-.125.308s-.136.417-.15.955l-.025.955-.043-.955c-.023-.525-.097-.955-.162-.955-.073 0-.12 1.1-.12 2.834 0 1.717.047 2.834.12 2.834.066 0 .14-.374.163-.832l.044-.832.024.837c.013.46.095.916.18 1.012.117.13.51.176 1.563.18l1.406.005v-3.08zM36.2 27.08c0-.068.084-.123.188-.123.162 0 .188-.472.188-3.51v-3.51h-1.25v-.924c0-.74-.038-.924-.188-.924-.103 0-.188-.083-.188-.185 0-.145-.174-.185-.813-.185-.618 0-.813.042-.813.175 0 .096-.07.197-.153.225-.1.033-.143.277-.124.71.045 1.02-.014 1.107-.73 1.107-.34 0-.617-.055-.617-.123s-.257-.123-.572-.123c-.466 0-.64.067-.938.36-.324.32-.365.446-.365 1.11v.75h.625c.344 0 .625.055.625.123s-.28.123-.625.123h-.625v.8c0 .63.04.8.188.8.103 0 .188.083.188.185s-.084.185-.188.185c-.147 0-.188.17-.188.8 0 .487.052.8.134.8.074 0 .214.08.313.176s.18.235.18.308.197.132.438.132c.275 0 .438.06.438.16 0 .088.098.28.22.43.2.26.306.27 2.438.27 1.397.001 2.22-.044 2.22-.122zm36.005-11.15c0-3.863.103-3.636-1.653-3.636H69.33v.37c0 .203-.054.37-.12.37s-.14.374-.163.832l-.044.832-.024-.832c-.013-.457-.08-.832-.15-.832-.08 0-.125 1.027-.125 2.834 0 1.717.047 2.834.12 2.834.066 0 .14-.374.163-.832l.044-.832.024.832c.013.457.08.832.15.832s.125.083.125.185c0 .154.243.185 1.438.185h1.438v-3.14zm-47.882.245c0-.192.07-.308.188-.308.162 0 .188-.418.188-3.02v-3.02h-.313c-.172 0-.313-.055-.313-.123s-.084-.123-.188-.123-.188-.083-.188-.185c0-.144-.17-.185-.767-.185-.658 0-.808.044-1.057.308-.16.17-.405.308-.546.308-.25 0-.256.06-.256 3.02 0 2.6.026 3.02.188 3.02.103 0 .188.058.188.128 0 .38.328.478 1.594.483l1.28.005v-.308zm3.876 0c0-.192.07-.308.188-.308.16 0 .188-.402.188-2.877 0-2.632-.02-2.9-.233-3.142-.128-.146-.297-.265-.375-.265s-.142-.083-.142-.185c0-.148-.188-.185-.938-.185s-.938.037-.938.185c0 .102-.06.185-.134.185s-.214.08-.313.176c-.145.143-.18.736-.18 3.142 0 1.895.045 2.966.125 2.966.07 0 .125.14.125.308v.308h2.625v-.308zm7.198.132c.098-.097.18-.235.18-.308s.084-.132.188-.132c.16 0 .188-.396.188-2.824 0-1.553-.034-2.91-.076-3.02s-.182-.195-.313-.195-.237-.055-.237-.123-.084-.123-.188-.123-.188-.083-.188-.185c0-.148-.188-.185-.938-.185s-.938.037-.938.185c0 .102-.084.185-.188.185s-.188.055-.188.123-.084.123-.188.123c-.162 0-.188.417-.188 3 0 2.51.03 3.04.188 3.195.103.102.188.244.188.317 0 .214 2.476.174 2.697-.044z" class="B"/><path d="M1.194 5.9c0-.08 4.2-.123 12.377-.123l12.377.123c0 .08-4.2.123-12.377.123S1.194 5.97 1.194 5.9zM5.07 30.777c0-12.236 2.167-18.727 6.25-18.727s6.25 6.492 6.25 18.727-2.167 18.727-6.25 18.727-6.25-6.492-6.25-18.727z" class="B"/><path d="M1.348 5.567h97.765v46.326H1.348z" class="H"/><path d="M39.353 10.372h28.38v28.09h-28.38z" fill="url(#A)"/><path d="M40.103 11.11h26.754v26.736H40.103z" fill="#333"/><g font-size="6.381" text-anchor="middle" transform="scale(1.0073243 .99272895)" class="C D"><text y="23.083" x="53.261">HC-05</text><text y="28.715" x="53.261" font-size="3.828">Bluetooth</text></g><path d="M47.004 22.773c-.364-.145-1.178-1.717-1.178-2.274 0-.543.766-2.1 1.127-2.3.388-.204 1.81-.107 1.81.124 0 .142-.19.193-.82.22l-.82.036-.4.798c-.492.984-.496 1.228-.03 2.136.396.772.56.87 1.468.873.548.002.818.2.523.383-.217.135-1.336.13-1.682-.008z" class="B"/><path d="M74.046 10.495H95.55v28.09H74.046z" fill="url(#B)"/><path d="M4.098 8.647H23.35V47.58H4.098z" fill="#d4aa00"/><g class="H"><path d="M19.975 10.74h3.876v38.44h-3.876z"/><path d="M6.473 10.74H20.1v2.464H6.473zM3.785 15.3h13.627v2.464H3.785zM6.4 19.736h13.627V22.2H6.4zM3.973 24.17H17.6v2.464H3.973zm2.625 4.436h13.627v2.464H6.598zm-2.75 4.806h13.627v2.464H3.848zm2.625 4.68H20.1v2.464H6.473z"/></g><g fill="#9393ac"><path d="M26.1 1.624h3.5v5.8h-3.5zm5.377-.062h3.5v5.8h-3.5zm5.688-.092h3.5v5.8h-3.5zm5.375-.062h3.5V7.2h-3.5zm5.47.016h3.5v5.8H48zm5.377-.062h3.5v5.8h-3.5zm5.688-.092h3.5v5.8h-3.5zm5.375-.062h3.5V7h-3.5zm5.064.216h3.5v5.8h-3.5zm5.386-.062h3.5v5.8h-3.5zm5.678-.092h3.5v5.8h-3.5zm5.376-.062h3.5V7h-3.5zm5.406.108h3.5v5.8h-3.5zM26.1 50.56h3.5v5.8h-3.5zm5.377-.06h3.5v5.8h-3.5zm5.688-.094h3.5v5.8h-3.5zm5.375-.06h3.5v5.8h-3.5zm5.47.015h3.5v5.8H48zm5.377-.06h3.5v5.8h-3.5zm5.688-.094h3.5v5.8h-3.5zm5.375-.06h3.5v5.8h-3.5zm5.064.215h3.5v5.8h-3.5zm5.386-.06h3.5v5.8h-3.5zm5.678-.094h3.5v5.8h-3.5zm5.376-.06h3.5v5.8h-3.5zm5.406.107h3.5v5.8h-3.5z"/><use xlink:href="#C"/><use xlink:href="#C" x="-0.109" y="-5.606"/><use xlink:href="#C" x="-0.186" y="-10.904"/><use xlink:href="#C" x="0.019" y="-15.894"/><use xlink:href="#C" x="-0.059" y="-21.192"/><use xlink:href="#C" x="-0.168" y="-26.798"/><use xlink:href="#C" x="-0.246" y="-32.095"/><use xlink:href="#C" x="-0.151" y="-37.424"/></g><path d="M74.86 11.11h20.003v26.613H74.86z" fill="#333"/><path d="M4.036 42.923h13.627v2.464H4.036z" class="H"/><g fill="#ffd5d5"><circle r="27.5" cx="70" cy="170" transform="matrix(.131776 0 0 .128577 112.82375 -16.208666)" class="E F"/><path d="M122 3.493h22.575v4.33H122z"/><use xlink:href="#D"/><circle r="27.5" cx="70" cy="170" transform="matrix(.131776 0 0 .128577 112.93129 -6.717415)" class="E F"/><path d="M122.256 12.968h22.575v4.33h-22.575z"/><use xlink:href="#D" x="0.246" y="9.475"/><circle r="27.5" cx="70" cy="170" transform="matrix(.131776 0 0 .128577 112.80326 11.996327)" class="E F"/><path d="M122.256 31.656h22.575v4.33h-22.575z"/><path d="M144.983 35.985l-.194-.05-7.382-.783.083-.077-.04-2.576h.245l7.357-.81.07.078 4.588 2.076-.202.046z"/><circle r="27.5" cx="70" cy="170" transform="matrix(.131776 0 0 .128577 112.87817 21.167083)" class="E F"/><path d="M122.256 40.843h22.575v4.33h-22.575z"/><use xlink:href="#D" x="0.246" y="37.35"/><circle r="27.5" cx="70" cy="170" transform="matrix(.131776 0 0 .128577 112.98891 30.628052)" class="E F"/><path d="M122.256 50.28h22.575v4.33h-22.575z"/><use xlink:href="#D" x="0.246" y="46.778"/><circle r="27.5" cx="70" cy="170" transform="matrix(.131776 0 0 .128577 112.8039 2.647027)" class="E F"/><path d="M122.57 22.343h22.575v4.33H122.57z"/><use xlink:href="#D" x="0.559" y="18.85"/></g></svg>