<?xml version="1.0" encoding="UTF-8" standalone="no"?>
<!-- Generator: Adobe Illustrator 15.1.0, SVG Export Plug-In . SVG Version: 6.00 Build 0)  -->

<svg
   xmlns:dc="http://purl.org/dc/elements/1.1/"
   xmlns:cc="http://creativecommons.org/ns#"
   xmlns:rdf="http://www.w3.org/1999/02/22-rdf-syntax-ns#"
   xmlns:svg="http://www.w3.org/2000/svg"
   xmlns="http://www.w3.org/2000/svg"
   xmlns:sodipodi="http://sodipodi.sourceforge.net/DTD/sodipodi-0.dtd"
   xmlns:inkscape="http://www.inkscape.org/namespaces/inkscape"
   version="1.1"
   id="Ebene_1"
   x="0px"
   y="0px"
   width="15.003386mm"
   height="11.609816mm"
   viewBox="0 0 53.161603 41.137141"
   enable-background="new 0 0 46.169 56.831"
   xml:space="preserve"
   inkscape:version="0.91 r13725"
   sodipodi:docname="hdmi.svg"><metadata
     id="metadata283"><rdf:RDF><cc:Work
         rdf:about=""><dc:format>image/svg+xml</dc:format><dc:type
           rdf:resource="http://purl.org/dc/dcmitype/StillImage" /><dc:title></dc:title></cc:Work></rdf:RDF></metadata><defs
     id="defs281" /><sodipodi:namedview
     pagecolor="#ffffff"
     bordercolor="#666666"
     borderopacity="1"
     objecttolerance="10"
     gridtolerance="10"
     guidetolerance="10"
     inkscape:pageopacity="0"
     inkscape:pageshadow="2"
     inkscape:window-width="1009"
     inkscape:window-height="612"
     id="namedview279"
     showgrid="false"
     inkscape:zoom="11.745505"
     inkscape:cx="28.371741"
     inkscape:cy="27.265219"
     inkscape:window-x="442"
     inkscape:window-y="172"
     inkscape:window-maximized="0"
     inkscape:current-layer="Ebene_1"
     fit-margin-top="0"
     fit-margin-left="0"
     fit-margin-right="0"
     fit-margin-bottom="0"
     units="mm"
     inkscape:document-units="mm" /><g
     id="g4676"
     transform="matrix(1,0,0,0.52823266,5.5493657,7.515989)"><g
       transform="matrix(0.99999994,0,0,3.0289685,-1.1763296,-102.77224)"
       id="g8211"><rect
         style="fill:#cccccc"
         id="rect8101"
         width="0.88582677"
         height="2.6574802"
         x="5.8139725"
         y="29.232286" /><rect
         y="29.232286"
         x="5.8139725"
         height="2.6574802"
         width="0.88582677"
         id="rect8109"
         style="fill:#cccccc" /><rect
         style="fill:#cccccc"
         id="rect8111"
         width="0.88582677"
         height="2.6574802"
         x="7.5856266"
         y="29.232286" /><rect
         y="29.232286"
         x="9.3572798"
         height="2.6574802"
         width="0.88582677"
         id="rect8113"
         style="fill:#cccccc" /><rect
         style="fill:#cccccc"
         id="rect8115"
         width="0.88582677"
         height="2.6574802"
         x="9.3572798"
         y="29.232286" /><rect
         y="29.232286"
         x="11.128934"
         height="2.6574802"
         width="0.88582677"
         id="rect8117"
         style="fill:#cccccc" /><rect
         y="29.232286"
         x="12.900588"
         height="2.6574802"
         width="0.88582677"
         id="rect8119"
         style="fill:#cccccc" /><rect
         style="fill:#cccccc"
         id="rect8121"
         width="0.88582677"
         height="2.6574802"
         x="12.900588"
         y="29.232286" /><rect
         y="29.232286"
         x="14.672241"
         height="2.6574802"
         width="0.88582677"
         id="rect8123"
         style="fill:#cccccc" /><rect
         style="fill:#cccccc"
         id="rect8125"
         width="0.88582677"
         height="2.6574802"
         x="16.443895"
         y="29.232286" /><rect
         y="29.232286"
         x="16.443895"
         height="2.6574802"
         width="0.88582677"
         id="rect8127"
         style="fill:#cccccc" /><rect
         style="fill:#cccccc"
         id="rect8129"
         width="0.88582677"
         height="2.6574802"
         x="18.215549"
         y="29.232286" /><rect
         y="29.232286"
         x="19.987204"
         height="2.6574802"
         width="0.88582677"
         id="rect8131"
         style="fill:#cccccc" /><rect
         style="fill:#cccccc"
         id="rect8133"
         width="0.88582677"
         height="2.6574802"
         x="19.987204"
         y="29.232286" /><rect
         y="29.232286"
         x="21.758856"
         height="2.6574802"
         width="0.88582677"
         id="rect8135"
         style="fill:#cccccc" /><rect
         style="fill:#cccccc"
         id="rect8137"
         width="0.88582677"
         height="2.6574802"
         x="23.53051"
         y="29.232286" /><rect
         y="29.232286"
         x="23.53051"
         height="2.6574802"
         width="0.88582677"
         id="rect8139"
         style="fill:#cccccc" /><rect
         style="fill:#cccccc"
         id="rect8141"
         width="0.88582677"
         height="2.6574802"
         x="25.302164"
         y="29.232286" /></g><rect
       style="fill:#cccccc"
       id="rect3536"
       width="0.88582671"
       height="8.0494242"
       x="27.669735"
       y="-14.228565" /><rect
       y="-14.228565"
       x="27.669735"
       height="8.0494242"
       width="0.88582671"
       id="rect3538"
       style="fill:#cccccc" /><rect
       style="fill:#cccccc"
       id="rect3540"
       width="0.88582671"
       height="8.0494242"
       x="29.441389"
       y="-14.228565" /><rect
       y="-14.228565"
       x="31.213041"
       height="8.0494242"
       width="0.88582671"
       id="rect3542"
       style="fill:#cccccc" /><rect
       style="fill:#cccccc"
       id="rect3544"
       width="0.88582671"
       height="8.0494242"
       x="31.213041"
       y="-14.228565" /><rect
       y="-14.228565"
       x="32.984695"
       height="8.0494242"
       width="0.88582671"
       id="rect3546"
       style="fill:#cccccc" /><rect
       y="-14.228565"
       x="34.756351"
       height="8.0494242"
       width="0.88582671"
       id="rect3548"
       style="fill:#cccccc" /><rect
       style="fill:#cccccc"
       id="rect3550"
       width="0.88582671"
       height="8.0494242"
       x="34.756351"
       y="-14.228565" /><rect
       y="-14.228565"
       x="36.528004"
       height="8.0494242"
       width="0.88582671"
       id="rect3552"
       style="fill:#cccccc" /><rect
       style="fill:#cccccc"
       id="rect3590"
       width="0.88582671"
       height="8.0494242"
       x="25.898083"
       y="-14.228565" /></g><path
     gorn="0.3.0.0.0.0.0.13.2.0"
     style="fill:#cccccc"
     d="m 1.9458117,40.899865 c -1.06304608,0 -1.93069637,-0.869977 -1.93069637,-1.930697 l 0,-34.4175696 c 0,-1.063046 0.86881336,-1.9330225 1.93069637,-1.9330225 l 49.2595083,0 c 1.065372,0 1.930696,0.8699765 1.930696,1.9330225 l 0,34.4175696 c 0,1.06072 -0.86765,1.930697 -1.930696,1.930697 l -49.2595083,0 z"
     id="_x30_.1.0.220.2.0"
     inkscape:connector-curvature="0" /><path
     gorn="0.3.0.0.0.0.0.13.2.1"
     style="fill:#ffffff;fill-opacity:0.2"
     d="m 53.134853,5.0307833 c 0,-1.0630461 -0.86765,-1.9306964 -1.930696,-1.9306964 l -49.2583453,0 c -1.06304608,0 -1.93069637,0.8676503 -1.93069637,1.9306964 l 0,-0.481511 c 0,-1.0653722 0.86881336,-1.9306964 1.93069637,-1.9306964 l 49.2595083,0 c 1.065372,0 1.930696,0.8653242 1.930696,1.9306964 l -0.0012,0.481511 0,0 z"
     id="_x30_.1.0.220.2.1"
     inkscape:connector-curvature="0" /><rect
     gorn="0.3.0.0.0.0.0.13.2.2"
     style="fill:#333333"
     width="53.11974"
     height="26.300505"
     x="0.015119228"
     id="_x30_.1.0.220.2.2"
     y="14.599357" /><path
     gorn="0.3.0.0.0.0.0.13.2.3"
     style="fill:#b3b3b3"
     d="m 44.580473,2.5301826 -35.9830634,0 0,6.5666934 -8.58578348,0 0,30.706214 0,1.332878 2.26333438,0 48.6186565,0 2.262172,0 0,-1.332878 0,-30.706214 -8.584621,0 0.0093,-6.5666934 0,0 z m -26.157447,35.3817554 -0.640852,0 c -0.384976,0 -0.736223,-0.243082 -0.778093,-0.538502 L 14.941957,20.584519 c -0.03024,-0.311702 -0.364041,-0.547806 -0.774604,-0.547806 l -1.612016,0 c -0.374508,0 -0.745527,0.252387 -0.78042,0.547806 L 9.7220984,37.37111 c -0.04536,0.297746 -0.364041,0.538502 -0.7769308,0.538502 l -0.6327102,0.0023 c -0.38265,0 -0.6769068,-0.243082 -0.6373624,-0.538502 l 2.740193,-19.975703 c 0.05234,-0.29542 0.383814,-0.533849 0.775768,-0.533849 l 4.340578,0 c 0.387302,0 0.744365,0.243082 0.78042,0.533849 l 2.737867,19.975729 c 0.0535,0.29542 -0.245408,0.538502 -0.626895,0.538502 z m 2.865805,-24.259316 0.718777,0 c 0.432662,0 0.82578,0.309376 0.872303,0.67458 l 2.319162,21.12019 c 0.0314,0.376835 0.410563,0.676907 0.86765,0.676907 l 1.812063,0 c 0.418705,0 0.831595,-0.309377 0.872303,-0.676907 l 2.301715,-21.117864 c 0.05234,-0.36753 0.411727,-0.67458 0.872303,-0.67458 l 0.70482,-0.0023 c 0.426847,0 0.757159,0.30705 0.714125,0.67458 L 30.429399,37.58863 c -0.06164,0.368693 -0.431499,0.666439 -0.869977,0.666439 l -4.877916,0 c -0.436151,0 -0.832758,-0.304724 -0.874628,-0.666439 L 20.56889,14.327202 c -0.0442,-0.368693 0.291931,-0.67458 0.719941,-0.67458 z m 23.568452,24.259316 -0.640851,0 c -0.383813,0 -0.73855,-0.243082 -0.779257,-0.538502 l -2.06445,-16.788917 c -0.02791,-0.311702 -0.364041,-0.547806 -0.774604,-0.547806 l -1.610852,0 c -0.376835,0 -0.743202,0.252387 -0.779257,0.547806 L 36.151704,37.37111 c -0.04769,0.297746 -0.364041,0.538502 -0.776931,0.538502 l -0.6362,0.0023 c -0.37916,0 -0.676906,-0.243082 -0.636199,-0.538502 l 2.737867,-19.975703 c 0.05466,-0.29542 0.383813,-0.533849 0.776931,-0.533849 l 4.339415,0 c 0.386139,0 0.744364,0.243082 0.781583,0.533849 l 2.736704,19.975729 c 0.06164,0.29542 -0.23843,0.538502 -0.617591,0.538502 z"
     id="_x30_.1.0.220.2.3"
     inkscape:connector-curvature="0" /><polygon
     gorn="0.3.0.0.0.0.0.13.2.4"
     style="fill:#939393"
     points="103.473,146.192 103.617,147.548 100.5,147.548 100.662,146.192 "
     id="_x30_.1.0.220.2.4"
     transform="matrix(1.1630701,0,0,1.1630701,-78.905006,-149.99948)" /><polygon
     gorn="0.3.0.0.0.0.0.13.2.5"
     style="fill:#666666"
     points="103.703,148.112 103.617,147.548 100.5,147.548 100.422,148.112 "
     id="_x30_.1.0.220.2.5"
     transform="matrix(1.1630701,0,0,1.1630701,-78.905006,-149.99948)" /><polygon
     gorn="0.3.0.0.0.0.0.13.2.6"
     style="fill:#939393"
     points="80.726,146.192 80.872,147.548 77.753,147.548 77.918,146.192 "
     id="_x30_.1.0.220.2.6"
     transform="matrix(1.1630701,0,0,1.1630701,-78.905006,-149.99948)" /><polygon
     gorn="0.3.0.0.0.0.0.13.2.7"
     style="fill:#666666"
     points="80.959,148.112 80.872,147.548 77.753,147.548 77.677,148.112 "
     id="_x30_.1.0.220.2.7"
     transform="matrix(1.1630701,0,0,1.1630701,-78.905006,-149.99948)" /><polygon
     gorn="0.3.0.0.0.0.0.13.2.8"
     style="fill:#939393"
     points="89.549,160.05 89.395,158.582 92.672,158.582 92.5,160.05 "
     id="_x30_.1.0.220.2.8"
     transform="matrix(1.1630701,0,0,1.1630701,-78.905006,-149.99948)" /><polygon
     gorn="0.3.0.0.0.0.0.13.2.9"
     style="fill:#666666"
     points="89.306,157.966 89.395,158.582 92.672,158.582 92.752,157.966 "
     id="_x30_.1.0.220.2.9"
     transform="matrix(1.1630701,0,0,1.1630701,-78.905006,-149.99948)" /><rect
     y="11.873137"
     id="_x30_.1.0.220.3"
     x="0.015120479"
     height="0.96534818"
     width="3.53457"
     style="fill:#808080"
     gorn="0.3.0.0.0.0.0.13.3" /><rect
     y="14.599366"
     id="_x30_.1.0.220.4"
     x="0.015120479"
     height="0.96534818"
     width="3.53457"
     style="fill:#808080"
     gorn="0.3.0.0.0.0.0.13.4" /><rect
     y="11.873137"
     id="_x30_.1.0.220.5"
     x="49.630524"
     height="0.96534818"
     width="3.531081"
     style="fill:#808080"
     gorn="0.3.0.0.0.0.0.13.5" /><rect
     y="14.599366"
     id="_x30_.1.0.220.6"
     x="49.630524"
     height="0.96534818"
     width="3.531081"
     style="fill:#808080"
     gorn="0.3.0.0.0.0.0.13.6" /><path
     inkscape:connector-curvature="0"
     id="_x30_.1.0.220.7"
     d="m 13.477653,2.6185844 c -0.531522,0 -0.965348,0 -0.965348,0 0,0 0,0.4047484 0,0.8967271 0,0.4908156 0,1.3293892 0,1.8585861 l 0,2.5948094 c 0,0.531523 0.402423,0.967674 0.895565,0.967674 0.495467,0 0.896726,-0.436151 0.896726,-0.967674 l 0,-2.5948094 c 0,-0.5291969 0.432663,-0.9653482 0.964185,-0.9653482 l 22.647302,0 c 0.531523,0 0.965348,0.4361513 0.965348,0.9653482 l 0,2.5948094 c 0,0.531523 0.405912,0.967674 0.896727,0.967674 0.490816,0 0.894401,-0.436151 0.894401,-0.967674 l 0,-2.5948094 c 0,-0.5291969 0,-1.3654443 0,-1.8585861 0,-0.4943048 0,-0.8967271 0,-0.8967271 0,0 -0.433825,0 -0.965349,0 l -26.229557,0 z"
     style="fill:#808080"
     gorn="0.3.0.0.0.0.0.13.7" /><rect
     y="9.0980482"
     id="_x30_.1.0.220.8"
     x="0"
     height="32.039093"
     width="2.2633345"
     style="fill:#ffffff;fill-opacity:0.1"
     gorn="0.3.0.0.0.0.0.13.8" /><rect
     y="9.0980482"
     id="_x30_.1.0.220.9"
     x="0.63735843"
     height="32.039093"
     width="1.6236459"
     style="fill:#ffffff;fill-opacity:0.2"
     gorn="0.3.0.0.0.0.0.13.9" /><rect
     y="9.0980482"
     id="_x30_.1.0.220.11"
     x="50.884319"
     height="32.039093"
     width="1.628298"
     style="fill-opacity:0.2"
     gorn="0.3.0.0.0.0.0.13.10" /><line
     y2="40.363705"
     y1="40.363705"
     id="_x30_.1.0.220.12"
     x2="50.879658"
     style="fill:none"
     x1="2.2656584"
     gorn="0.3.0.0.0.0.0.13.11" /></svg>