<?xml version='1.0' encoding='UTF-8'?>
<!DOCTYPE svg>
<!-- Creator: CorelDRAW X6 -->
<svg xmlns="http://www.w3.org/2000/svg" shape-rendering="geometricPrecision" viewBox="0 0 3395 3395" image-rendering="optimizeQuality" fill-rule="evenodd" xml:space="preserve" width="0.351815in" xmlns:xml="http://www.w3.org/XML/1998/namespace" text-rendering="geometricPrecision" version="1.1" clip-rule="evenodd"  height="0.351815in">
    <desc >
        <referenceFile >Hirose_DF13-2p-smd-h_icon.svg</referenceFile>
    </desc>
    <g id="DF13-2p-smd-h" gorn="0.1" >
        <metadata id="CorelCorpID_0Corel-Layer" />
        <g id="icon" gorn="0.1.1" >
            <rect fill="#373435" width="3395"  height="3395"/>
            <rect fill="#D2D3D5" x="339" y="1697" width="2716"  height="527"/>
            <g >
                <rect fill="#E6E7E8" x="668" y="1141" width="2059"  height="967"/>
                <rect fill="#96989A" x="668" y="1962" width="2059"  height="438"/>
            </g>
            <rect fill="#727376" x="909" y="983" width="1577"  height="1871"/>
            <rect fill="#A9ABAE" x="1004" y="2797" width="1387"  height="57"/>
            <g >
                <rect fill="#373435" x="1193" y="2557" width="1009"  height="313"/>
                <rect fill="#A9ABAE" x="1193" y="2528" width="1009"  height="57"/>
            </g>
            <g >
                <rect fill="#C8C5E2" x="1394" y="618" width="133"  height="1812"/>
                <rect fill="#FEFEFE" x="1394" y="2389" width="133"  height="67"/>
            </g>
            <g >
                <rect fill="#C8C5E2" x="1868" y="618" width="133"  height="1812"/>
                <rect fill="#FEFEFE" x="1868" y="2389" width="133"  height="67"/>
            </g>
            <rect fill="#FEFEFE" x="909" y="850" width="1577"  height="1374"/>
            <rect fill="#A9ABAE" x="1004" y="2213" width="1387"  height="69"/>
            <g >
                <rect fill="#FEFEFE" x="339" y="1697" width="71"  height="527"/>
                <rect fill="#373435" x="410" y="1877" width="117"  height="159"/>
                <rect fill="#96989A" x="339" y="2162" width="71"  height="63"/>
            </g>
            <g >
                <rect fill="#FEFEFE" x="2984" y="1697" width="71"  height="527"/>
                <rect fill="#373435" x="2867" y="1877" width="117"  height="159"/>
                <rect fill="#96989A" x="2984" y="2162" width="71"  height="63"/>
            </g>
            <g >
                <rect fill="#A9ABAE" x="909" y="2213" width="95"  height="641"/>
                <rect fill="#606062" x="1071" y="1380" width="241"  height="366"/>
                <rect fill="#D2D3D5" x="1071" y="1380" width="241"  height="57"/>
                <rect fill="#606062" x="909" y="2445" width="95"  height="176"/>
            </g>
            <g >
                <rect fill="#A9ABAE" x="2391" y="2213" width="95"  height="641"/>
                <rect fill="#606062" x="2089" y="1380" width="241"  height="366"/>
                <rect fill="#D2D3D5" x="2089" y="1380" width="241"  height="57"/>
                <rect fill="#606062" x="2391" y="2445" width="95"  height="176"/>
            </g>
        </g>
    </g>
</svg>
