<?xml version='1.0' encoding='UTF-8'?>
<!DOCTYPE svg>
<!-- Creator: CorelDRAW X6 -->
<svg xmlns="http://www.w3.org/2000/svg" shape-rendering="geometricPrecision" viewBox="0 0 23025 23025" image-rendering="optimizeQuality" fill-rule="evenodd" xml:space="preserve" width="0.608591in" xmlns:xml="http://www.w3.org/XML/1998/namespace" version="1.1" text-rendering="geometricPrecision" clip-rule="evenodd"  height="0.608591in">
    <desc >
        <referenceFile >Hirose_DF13_8p_smd-v_Icon.svg</referenceFile>
    </desc>
    <g id="DF13_smd-8p-v" gorn="0.1" >
        <metadata id="CorelCorpID_0Corel-Layer" />
        <g id="icon" gorn="0.1.1" >
            <rect fill="#373435" width="23025"  height="23025"/>
            <rect x="602" fill="#D2D3D5" y="11215" width="21821"  height="2067"/>
            <g >
                <rect x="602" fill="#FEFEFE" y="11215" width="279"  height="2067"/>
                <rect x="881" fill="#373435" y="11920" width="460"  height="624"/>
                <rect x="602" fill="#96989A" y="13037" width="279"  height="245"/>
            </g>
            <g >
                <rect x="22144" fill="#FEFEFE" y="11215" width="279"  height="2067"/>
                <rect x="21684" fill="#373435" y="11920" width="460"  height="624"/>
                <rect x="22144" fill="#96989A" y="13037" width="279"  height="245"/>
            </g>
            <g >
                <rect x="1890" fill="#848688" y="11493" width="19244"  height="1946"/>
                <rect x="1890" fill="#E6E7E8" y="9027" width="19244"  height="2428"/>
            </g>
            <rect x="2836" fill="#727376" y="7344" width="17353"  height="6416"/>
            <g >
                <rect x="3209" fill="#FEFEFE" y="9955" width="16608"  height="300"/>
                <rect x="3209" fill="#FEFEFE" y="7344" width="16608"  height="262"/>
            </g>
            <g >
                <rect x="3881" fill="#727376" y="9848" width="15264"  height="1811"/>
                <rect x="3881" fill="#D2D3D5" y="10470" width="15264"  height="687"/>
                <rect x="3881" fill="#FEFEFE" y="11157" width="15264"  height="285"/>
                <rect x="5480" fill="#D2D3D5" y="10470" width="12065"  height="2085"/>
            </g>
            <g >
                <rect x="2836" fill="#FEFEFE" y="7344" width="372"  height="2911"/>
                <rect x="2836" fill="#606062" y="8368" width="372"  height="864"/>
            </g>
            <g >
                <rect x="19817" fill="#FEFEFE" y="7344" width="372"  height="2911"/>
                <rect x="19817" fill="#606062" y="8368" width="372"  height="864"/>
            </g>
            <g >
                <rect x="4735" fill="#9D98CA" y="8632" width="521"  height="2318"/>
                <rect x="4735" fill="#FEFEFE" y="8633" width="521"  height="331"/>
                <rect x="4735" fill="#FEFEFE" y="13494" width="521"  height="1773"/>
                <rect x="4735" fill="#9D98CA" y="15104" width="521"  height="218"/>
            </g>
            <g >
                <rect x="6597" fill="#9D98CA" y="8632" width="521"  height="2318"/>
                <rect x="6597" fill="#FEFEFE" y="8633" width="521"  height="331"/>
                <rect x="6597" fill="#FEFEFE" y="13494" width="521"  height="1773"/>
                <rect x="6597" fill="#9D98CA" y="15104" width="521"  height="218"/>
            </g>
            <g >
                <rect x="8459" fill="#9D98CA" y="8632" width="521"  height="2318"/>
                <rect x="8459" fill="#FEFEFE" y="8633" width="521"  height="331"/>
                <rect x="8459" fill="#FEFEFE" y="13494" width="521"  height="1773"/>
                <rect x="8459" fill="#9D98CA" y="15104" width="521"  height="218"/>
            </g>
            <g >
                <rect x="10321" fill="#9D98CA" y="8632" width="521"  height="2318"/>
                <rect x="10321" fill="#FEFEFE" y="8633" width="521"  height="331"/>
                <rect x="10321" fill="#FEFEFE" y="13494" width="521"  height="1773"/>
                <rect x="10321" fill="#9D98CA" y="15104" width="521"  height="218"/>
            </g>
            <g >
                <rect x="12183" fill="#9D98CA" y="8632" width="521"  height="2318"/>
                <rect x="12183" fill="#FEFEFE" y="13494" width="521"  height="1773"/>
                <rect x="12183" fill="#9D98CA" y="15104" width="521"  height="218"/>
                <rect x="12183" fill="#FEFEFE" y="8633" width="521"  height="331"/>
            </g>
            <g >
                <rect x="14045" fill="#9D98CA" y="8632" width="521"  height="2318"/>
                <rect x="14045" fill="#FEFEFE" y="13494" width="521"  height="1773"/>
                <rect x="14045" fill="#9D98CA" y="15104" width="521"  height="218"/>
                <rect x="14045" fill="#FEFEFE" y="8633" width="521"  height="331"/>
            </g>
            <g >
                <rect x="15907" fill="#9D98CA" y="8632" width="521"  height="2318"/>
                <rect x="15907" fill="#FEFEFE" y="13494" width="521"  height="1773"/>
                <rect x="15907" fill="#9D98CA" y="15104" width="521"  height="218"/>
                <rect x="15907" fill="#FEFEFE" y="8633" width="521"  height="331"/>
            </g>
            <g >
                <rect x="17768" fill="#9D98CA" y="8632" width="521"  height="2318"/>
                <rect x="17768" fill="#FEFEFE" y="13494" width="521"  height="1773"/>
                <rect x="17768" fill="#9D98CA" y="15104" width="521"  height="218"/>
                <rect x="17768" fill="#FEFEFE" y="8633" width="521"  height="331"/>
            </g>
        </g>
    </g>
</svg>
