<?xml version='1.0' encoding='UTF-8'?>
<!DOCTYPE svg>
<!-- Creator: CorelDRAW X6 -->
<svg xmlns="http://www.w3.org/2000/svg" shape-rendering="geometricPrecision" viewBox="0 0 9102 9102" image-rendering="optimizeQuality" fill-rule="evenodd" xml:space="preserve" width="0.55585in" xmlns:xml="http://www.w3.org/XML/1998/namespace" version="1.1" text-rendering="geometricPrecision" clip-rule="evenodd"  height="0.55585in">
    <desc >
        <referenceFile >Hirose_DF13-7p-smd-v_icon.svg</referenceFile>
    </desc>
    <g id="DF13-7p-smd-v" gorn="0.1" >
        <metadata id="CorelCorpID_0Corel-Layer" />
        <g id="icon" gorn="0.1.1" >
            <rect fill="#373435" width="9102"  height="9102"/>
            <g >
                <rect x="232" fill="#D2D3D5" y="4390" width="8639"  height="895"/>
                <g >
                    <rect x="232" fill="#FEFEFE" y="4390" width="121"  height="895"/>
                    <rect x="352" fill="#373435" y="4695" width="199"  height="270"/>
                    <rect x="232" fill="#96989A" y="5179" width="121"  height="106"/>
                </g>
                <g >
                    <rect x="8750" fill="#FEFEFE" y="4390" width="121"  height="895"/>
                    <rect x="8551" fill="#373435" y="4695" width="199"  height="270"/>
                    <rect x="8750" fill="#96989A" y="5179" width="121"  height="106"/>
                </g>
                <g >
                    <rect x="789" fill="#848688" y="4510" width="7524"  height="842"/>
                    <rect x="789" fill="#E6E7E8" y="3443" width="7524"  height="1051"/>
                </g>
                <rect x="1199" fill="#727376" y="2715" width="6705"  height="2777"/>
                <g >
                    <rect x="1360" fill="#FEFEFE" y="3845" width="6383"  height="130"/>
                    <rect x="1360" fill="#FEFEFE" y="2715" width="6383"  height="114"/>
                </g>
                <g >
                    <rect x="1651" fill="#727376" y="3798" width="5801"  height="784"/>
                    <rect x="1651" fill="#D2D3D5" y="4068" width="5801"  height="297"/>
                    <rect x="1651" fill="#FEFEFE" y="4365" width="5801"  height="123"/>
                    <rect x="2343" fill="#D2D3D5" y="4068" width="4416"  height="967"/>
                </g>
                <g >
                    <rect x="1199" fill="#FEFEFE" y="2715" width="161"  height="1260"/>
                    <rect x="1199" fill="#606062" y="3158" width="161"  height="374"/>
                </g>
                <g >
                    <rect x="7742" fill="#FEFEFE" y="2715" width="161"  height="1260"/>
                    <rect x="7742" fill="#606062" y="3158" width="161"  height="374"/>
                </g>
                <g >
                    <rect x="2021" fill="#9D98CA" y="3272" width="226"  height="1003"/>
                    <rect x="2021" fill="#FEFEFE" y="3272" width="226"  height="143"/>
                    <rect x="2021" fill="#FEFEFE" y="5376" width="226"  height="767"/>
                    <rect x="2021" fill="#9D98CA" y="6074" width="226"  height="94"/>
                </g>
                <g >
                    <rect x="2827" fill="#9D98CA" y="3272" width="226"  height="1003"/>
                    <rect x="2827" fill="#FEFEFE" y="3272" width="226"  height="143"/>
                    <rect x="2827" fill="#FEFEFE" y="5376" width="226"  height="767"/>
                    <rect x="2827" fill="#9D98CA" y="6074" width="226"  height="94"/>
                </g>
                <g >
                    <rect x="3632" fill="#9D98CA" y="3272" width="226"  height="1003"/>
                    <rect x="3632" fill="#FEFEFE" y="3272" width="226"  height="143"/>
                    <rect x="3632" fill="#FEFEFE" y="5376" width="226"  height="767"/>
                    <rect x="3632" fill="#9D98CA" y="6074" width="226"  height="94"/>
                </g>
                <g >
                    <rect x="4438" fill="#9D98CA" y="3272" width="226"  height="1003"/>
                    <rect x="4438" fill="#FEFEFE" y="3272" width="226"  height="143"/>
                    <rect x="4438" fill="#FEFEFE" y="5376" width="226"  height="767"/>
                    <rect x="4438" fill="#9D98CA" y="6074" width="226"  height="94"/>
                </g>
                <g >
                    <rect x="5244" fill="#9D98CA" y="3272" width="226"  height="1003"/>
                    <rect x="5244" fill="#FEFEFE" y="5376" width="226"  height="767"/>
                    <rect x="5244" fill="#9D98CA" y="6074" width="226"  height="94"/>
                    <rect x="5244" fill="#FEFEFE" y="3272" width="226"  height="143"/>
                </g>
                <g >
                    <rect x="6050" fill="#9D98CA" y="3272" width="226"  height="1003"/>
                    <rect x="6050" fill="#FEFEFE" y="5376" width="226"  height="767"/>
                    <rect x="6050" fill="#9D98CA" y="6074" width="226"  height="94"/>
                    <rect x="6050" fill="#FEFEFE" y="3272" width="226"  height="143"/>
                </g>
                <g >
                    <rect x="6856" fill="#9D98CA" y="3272" width="226"  height="1003"/>
                    <rect x="6856" fill="#FEFEFE" y="5376" width="226"  height="767"/>
                    <rect x="6856" fill="#9D98CA" y="6074" width="226"  height="94"/>
                    <rect x="6856" fill="#FEFEFE" y="3272" width="226"  height="143"/>
                </g>
            </g>
        </g>
    </g>
</svg>
