<?xml version="1.0" encoding="UTF-8" standalone="no"?>
<svg
   xmlns:dc="http://purl.org/dc/elements/1.1/"
   xmlns:cc="http://creativecommons.org/ns#"
   xmlns:rdf="http://www.w3.org/1999/02/22-rdf-syntax-ns#"
   xmlns:svg="http://www.w3.org/2000/svg"
   xmlns="http://www.w3.org/2000/svg"
   xmlns:sodipodi="http://sodipodi.sourceforge.net/DTD/sodipodi-0.dtd"
   xmlns:inkscape="http://www.inkscape.org/namespaces/inkscape"
   viewBox="0 0 21.503599 20.927078"
   height="20.927078"
   width="21.503599"
   xml:space="preserve"
   id="svg2"
   version="1.1"
   sodipodi:docname="IFX_Icon.svg"
   inkscape:version="0.92.2 (5c3e80d, 2017-08-06)"><sodipodi:namedview
     pagecolor="#ffffff"
     bordercolor="#666666"
     borderopacity="1"
     objecttolerance="10"
     gridtolerance="10"
     guidetolerance="10"
     inkscape:pageopacity="0"
     inkscape:pageshadow="2"
     inkscape:window-width="1618"
     inkscape:window-height="1028"
     id="namedview18"
     showgrid="false"
     fit-margin-top="0"
     fit-margin-left="0"
     fit-margin-right="0"
     fit-margin-bottom="0"
     inkscape:zoom="3.1105533"
     inkscape:cx="50.473335"
     inkscape:cy="10.779479"
     inkscape:window-x="54"
     inkscape:window-y="-8"
     inkscape:window-maximized="1"
     inkscape:current-layer="svg2" /><metadata
     id="metadata8"><rdf:RDF><cc:Work
         rdf:about=""><dc:format>image/svg+xml</dc:format><dc:type
           rdf:resource="http://purl.org/dc/dcmitype/StillImage" /><dc:title></dc:title></cc:Work></rdf:RDF></metadata><defs
     id="defs6" /><g
     id="g854"
     transform="translate(0,-1.1324005)"><path
       inkscape:connector-curvature="0"
       d="m 7.6796931,9.0048003 h 5.7604399 l 1.9192,9.4072797 H 9.4072931 l -1.7276,-9.4072797"
       style="fill:#231f20;fill-opacity:1;fill-rule:nonzero;stroke:none;stroke-width:0.13333333"
       id="path14" /><path
       inkscape:connector-curvature="0"
       d="m 6.5275998,4.0126671 c 0,1.7276 1.3448,3.0713333 2.8796933,3.0713333 1.7281199,0 3.0729199,-1.3437333 3.0729199,-3.0713333 0,-1.5365333 -1.3448,-2.8802666 -3.0729199,-2.8802666 -1.5348933,0 -2.8796933,1.3437333 -2.8796933,2.8802666"
       style="fill:#231f20;fill-opacity:1;fill-rule:nonzero;stroke:none;stroke-width:0.13333333"
       id="path16" /><path
       inkscape:connector-curvature="0"
       d="m 4.9921865,5.1636004 0.9598934,1.3437333 c -1.72812,1.3448 -2.88072,3.4568266 -2.88072,5.5688133 0,0.959893 0.1927067,1.919267 0.7682267,2.880213 1.1525999,2.687493 3.4562532,4.608333 6.3364534,5.375 1.343746,0.384373 2.686986,0.57708 4.03236,0.57708 1.9192,0 4.0312,-0.384373 5.951466,-1.152613 L 16.512,3.6282671 c -0.191734,0 -0.3844,0 -0.576,0 -0.767734,0 -1.536534,0 -2.3048,0 V 2.6673338 c 1.343866,0 2.8808,0.1926667 4.224,0.5770667 l 3.648399,16.3202925 c -2.495733,1.534894 -5.567599,2.494786 -8.447866,2.494786 0,0 0,0 -0.192707,0 -3.6468796,0 -7.2953195,-1.343746 -10.1755194,-3.840106 C 0.95989598,16.68448 0,14.572494 0,12.46052 0,9.1960003 1.9192666,6.3157337 4.9921865,5.1636004"
       style="fill:#231f20;fill-opacity:1;fill-rule:nonzero;stroke:none;stroke-width:0.13333333"
       id="path18" /></g></svg>