<?xml version="1.0" encoding="utf-8"?>
<!-- Generator: Adobe Illustrator 20.0.0, SVG Export Plug-In . SVG Version: 6.00 Build 0)  -->
<svg version="1.2" baseProfile="tiny" id="Layer_1" xmlns="http://www.w3.org/2000/svg" xmlns:xlink="http://www.w3.org/1999/xlink"
	 x="0px" y="0px" width="6.803px" height="6.803px" viewBox="0 0 6.803 6.803" xml:space="preserve">
<g>
	<path fill="#333333" d="M6.803,0.709v5.385c0,0.313-0.254,0.567-0.567,0.567H0.567C0.254,6.661,0,6.407,0,6.094l0-5.386
		c0-0.313,0.254-0.567,0.567-0.567h5.669C6.549,0.142,6.803,0.395,6.803,0.709z"/>
	<path fill="#666666" d="M5.953,1.51v3.783c0,0.15-0.06,0.295-0.166,0.401L4.843,6.637c-0.106,0.106-0.25,0.166-0.401,0.166H2.361
		c-0.151,0-0.295-0.06-0.401-0.166L1.016,5.693C0.91,5.587,0.85,5.443,0.85,5.293V1.511c0-0.15,0.06-0.295,0.166-0.401L1.96,0.166
		C2.066,0.06,2.21,0,2.361,0l2.082,0c0.15,0,0.295,0.06,0.401,0.166l0.943,0.943C5.893,1.216,5.953,1.36,5.953,1.51z"/>
</g>
</svg>
