<svg xmlns="http://www.w3.org/2000/svg" xmlns:xlink="http://www.w3.org/1999/xlink" width="58" height="68" viewBox="0 0 57.928 67.694"><g fill="#1a1a1a"><path d="M14.74 59.218l-9.92-9.922v-31.18l10.63-10.63h31.18l10.63 10.63v31.18l-10.63 10.63H15.45z"/><path d="M14.033 8.903l-4.678-4.7.055.077C7.257 2.127 2.155 3.207.002 5.36L0 8.177a5.5 5.5 0 0 0 1.614 3.898L1.56 12l4.677 4.7 7.796-7.795zM3.006 8.237c0-1.565 1.27-2.835 2.834-2.835s2.835 1.27 2.835 2.835-1.27 2.835-2.835 2.835-2.834-1.27-2.834-2.835zM5.53 50.005v16.44c0 .688.563 1.25 1.25 1.25h6.712c.688 0 1.25-.563 1.25-1.25v-7.227L5.53 50.005zm4.606 14.052c-1.565 0-2.834-.27-2.834-1.834s1.27-2.835 2.834-2.835 2.835 1.27 2.835 2.835-1.27 1.834-2.835 1.834z"/></g><g fill="#333"><path d="M4.82 46.63V15.45L15.45 4.82h31.18l10.63 10.63v31.18L46.63 57.26H15.45z"/><path d="M14.033 6.238L9.4 1.615c-2.153-2.152-5.643-2.152-7.795 0s-2.152 5.643 0 7.796l4.623 4.623 7.795-7.796zM3.006 6.173c0-1.565 1.27-2.835 2.834-2.835s2.835 1.27 2.835 2.835-1.27 2.835-2.835 2.835-2.834-1.27-2.834-2.835z"/></g><path opacity=".2" fill="#fff" d="M1.614 9.4c-2.152-2.153-2.152-5.453 0-7.606s5.643-2.152 7.795 0l4.623 4.623v-.19L9.4 1.615c-2.153-2.152-5.643-2.152-7.795 0S-.538 7.257 1.614 9.4z"/><path fill="#333" d="M5.53 47.34v16.397c0 .688.563 1.25 1.25 1.25h6.712c.688 0 1.25-.563 1.25-1.25v-7.185L5.53 47.34zm4.606 15.653c-1.565 0-2.834-1.27-2.834-2.834s1.27-2.835 2.834-2.835 2.835 1.27 2.835 2.835-1.27 2.834-2.835 2.834z"/><path fill="#4d4d4d" d="M4.82 44.296v-31.18l10.63-10.63h31.18l10.63 10.63v31.18l-10.63 10.63H15.45z"/><path opacity=".2" d="M4.82 44.962l10.63 10.63h31.18l10.63-10.63v-.666l-10.63 10.63H15.45L4.82 44.296z"/><circle fill="#333" cx="31.041" cy="28.706" r="26.887"/><path opacity=".2" fill="#fff" d="M57.262 13.318L46.63 2.688H15.45L4.82 13.318v-.203l10.63-10.63h31.18l10.63 10.63z"/><circle fill="#4d4d4d" cx="31.041" cy="26.887" r="26.887"/><circle fill="#1a1a1a" cx="31.04" cy="26.886" r="13.427"/><circle fill="#333" cx="31.041" cy="21.214" r="17.977"/><circle fill="#666" cx="31.041" cy="19.796" r="17.977"/><g fill="gray"><path d="M45.867 29.954l-.557.557.08.08.477-.637zM42.3 33.5l.16.16.373-.34.467-.465-.178-.178-.822.823zm-1 1l.016.016.94-.704-.135-.134-.822.822zm3.928-3.716l-.105-.106-.822.822.178.178.1-.1.66-.804zm-1.75 1.896l-.177-.177.822-.822.177.177zm-5 3l-.177-.177.822-.822.177.177zm-1.178.82l.084.084.295-.108.62-.62-.178-.177-.822.822z"/><use xlink:href="#B"/><use xlink:href="#C"/><use xlink:href="#D"/><use xlink:href="#C" x="1" y="-1"/><use xlink:href="#E"/><path d="M47.732 26.444l.205-.56-.627.627.178.177.244-.244zM39.488 34.7l-.177-.177.822-.822.177.177zm-2.358 2.002l.006-.002-.002-.002z"/><use xlink:href="#C" x="2" y="-2"/><use xlink:href="#B" x="1" y="-1"/><use xlink:href="#C" x="3" y="-4.99"/><use xlink:href="#B" x="-4" y="2.001"/><use xlink:href="#E" x="-1" y="-1"/><use xlink:href="#B" x="-1" y="-1"/><use xlink:href="#E" x="1" y="-3"/><path d="M48.615 23.56l.082-.437-.387.387.178.177.127-.127zM35.488 36.7l-.177-.177.823-.823.177.177z"/><use xlink:href="#E" y="-2"/><use xlink:href="#C" x="2" y="-3.99"/><use xlink:href="#B" x="-2"/><path d="M34.37 37.45l.438-.082.504-.504-.178-.178-.764.764z"/><use xlink:href="#B" x="-5" y="3.001"/><use xlink:href="#B" y="-2"/><use xlink:href="#E" x="2" y="-4"/><use xlink:href="#D" x="-2"/><use xlink:href="#E" x="3" y="-7"/><use xlink:href="#B" x="-6" y="2.001"/><use xlink:href="#B" x="-3" y="-0.999"/><path d="M32.5 37.686l-.178-.177.82-.825.178.177zm-.396.032l.057-.003-.027-.027-.03.03z"/><use xlink:href="#B" x="-5" y="1.001"/><use xlink:href="#E" y="-4"/><use xlink:href="#E" x="1" y="-5"/><path d="M33.5 36.686l-.178-.177.82-.825.178.177z"/><use xlink:href="#C" x="3" y="-6.99"/><use xlink:href="#B" x="-4" y="0.001"/><use xlink:href="#E" x="-1" y="-3"/><use xlink:href="#B" x="-2" y="-1.999"/><use xlink:href="#E" x="-2" y="-2"/><path d="M48.945 21.23l.018-.373-.652.653.178.177.456-.457z"/><use xlink:href="#B" x="-7" y="3.001"/><use xlink:href="#B" x="-1" y="-2.999"/><use xlink:href="#E" x="2" y="-6"/><use xlink:href="#E" x="-3" y="-3"/><path d="M30.5 37.686l-.178-.177.82-.825.178.177zM48.986 19.2l-.018-.337-.658.66.178.177.498-.5z"/><use xlink:href="#B" x="-9" y="3.001"/><use xlink:href="#E" x="-2" y="-4"/><use xlink:href="#B" x="-5" y="-0.999"/><use xlink:href="#B" x="-6" y="0.001"/><path d="M30.098 37.724l.074.004-.04-.04-.035.036z"/><use xlink:href="#E" x="-1" y="-5"/><use xlink:href="#B" x="-10" y="4.001"/><use xlink:href="#B" x="-4" y="-1.999"/><use xlink:href="#B" x="-3" y="-2.999"/><use xlink:href="#E" y="-6"/><use xlink:href="#B" x="-7" y="1.001"/><use xlink:href="#B" x="-8" y="2.001"/><use xlink:href="#E" x="1" y="-7"/><use xlink:href="#B" x="-2" y="-3.999"/><use xlink:href="#C" x="3" y="-8.99"/><use xlink:href="#E" x="2" y="-8"/><use xlink:href="#E" x="3" y="-9"/><use xlink:href="#C" x="3" y="-10.99"/><use xlink:href="#B" x="-5" y="-2.999"/><path d="M28.3 37.5l.038.038.242.036.72-.72-.177-.178-.823.824zm20.52-20.165l-.047-.308-.473.474.178.177.342-.343z"/><use xlink:href="#B" x="-4" y="-3.999"/><use xlink:href="#B" x="-10" y="2.001"/><use xlink:href="#E" x="-2" y="-6"/><use xlink:href="#E" x="-3" y="-5"/><use xlink:href="#E" x="-1" y="-7"/><use xlink:href="#E" x="3" y="-11"/><use xlink:href="#E" x="1" y="-9"/><use xlink:href="#B" x="-9" y="1.001"/><use xlink:href="#B" x="-6" y="-1.999"/><use xlink:href="#E" y="-8"/><use xlink:href="#B" x="-8" y="0.001"/><use xlink:href="#B" x="-7" y="-0.999"/><use xlink:href="#B" x="-11" y="3.001"/><use xlink:href="#B" x="-3" y="-4.999"/><use xlink:href="#E" x="-4" y="-4"/><use xlink:href="#E" x="2" y="-10"/><use xlink:href="#B" x="-12" y="4.001"/><use xlink:href="#E" x="-2" y="-8"/><use xlink:href="#B" x="-7" y="-2.999"/><use xlink:href="#E" x="-1" y="-9"/><use xlink:href="#B" x="-5" y="-4.999"/><use xlink:href="#E" x="2" y="-12"/><path d="M26.62 37.2l.282.072.408-.408-.177-.178-.513.514z"/><use xlink:href="#E" x="3" y="-13"/><use xlink:href="#C" x="3" y="-12.99"/><use xlink:href="#D" x="-3" y="-7"/><use xlink:href="#E" x="-5" y="-5"/><use xlink:href="#B" x="-12" y="2.001"/><use xlink:href="#B" x="-13" y="3.001"/><use xlink:href="#E" x="1" y="-11"/><path d="M48.52 15.656l-.072-.282-.137.136.178.177.03-.03z"/><use xlink:href="#E" y="-10"/><use xlink:href="#B" x="-8" y="-1.999"/><use xlink:href="#E" x="-4" y="-6"/><use xlink:href="#B" x="-10" y="0.001"/><use xlink:href="#B" x="-6" y="-3.999"/><use xlink:href="#E" x="-3" y="-7"/><use xlink:href="#B" x="-11" y="1.001"/><use xlink:href="#B" x="-9" y="-0.999"/><use xlink:href="#B" x="-14.01" y="4.001"/><use xlink:href="#E" x="2" y="-14"/><use xlink:href="#E" x="3" y="-15"/><use xlink:href="#B" x="-8" y="-3.999"/><use xlink:href="#B" x="-7" y="-4.999"/><use xlink:href="#B" x="-10" y="-1.999"/><path d="M48.08 14.096l-.096-.26-.674.674.178.177.592-.6zM25.082 36.74l.16.06-.1-.1-.05.05z"/><use xlink:href="#E" x="1" y="-13"/><path d="M25.487 36.688l-.177-.177.82-.824.177.177z"/><use xlink:href="#B" x="-15.01" y="3.001"/><use xlink:href="#B" x="-11" y="-0.999"/><use xlink:href="#D" x="-5" y="-7"/><use xlink:href="#E" x="-5" y="-7"/><use xlink:href="#B" x="-13" y="1"/><use xlink:href="#B" x="-14.01" y="2.001"/><use xlink:href="#E" x="-4" y="-8"/><use xlink:href="#E" y="-12"/><use xlink:href="#E" x="-6" y="-6"/><use xlink:href="#D" x="-4" y="-8"/><use xlink:href="#B" x="-9" y="-2.999"/><use xlink:href="#E" x="-1" y="-11"/><use xlink:href="#B" x="-12" y="0.001"/><use xlink:href="#E" x="-3" y="-9"/><use xlink:href="#E" x="-2" y="-10"/><use xlink:href="#B" x="-16.01" y="2.001"/><use xlink:href="#E" x="-6" y="-8"/><use xlink:href="#B" x="-17.01" y="3.001"/><use xlink:href="#B" x="-9" y="-4.999"/><use xlink:href="#E" x="-5" y="-9"/><use xlink:href="#E" x="-4" y="-10"/><use xlink:href="#B" x="-14.01"/><use xlink:href="#E" x="1" y="-15"/><use xlink:href="#B" x="-13" y="-1"/><use xlink:href="#D" x="-5" y="-9"/><use xlink:href="#C" x="2.001" y="-16"/><use xlink:href="#E" x="-2" y="-12"/><use xlink:href="#D" x="-7" y="-7"/><use xlink:href="#B" x="-12" y="-1.999"/><use xlink:href="#E" x="-1" y="-13"/><use xlink:href="#B" x="-15.01" y="1"/><use xlink:href="#E" x="2" y="-16"/><use xlink:href="#E" x="-3" y="-11"/><path d="M47.53 12.645l-.115-.24-.105.104.178.177.042-.042zM23.65 36.17l.24.115.42-.42-.177-.177-.482.482z"/><use xlink:href="#D" x="-6" y="-8"/><use xlink:href="#E" y="-14"/><use xlink:href="#B" x="-10" y="-3.999"/><use xlink:href="#E" x="-7" y="-7"/><use xlink:href="#B" x="-11" y="-2.999"/><use xlink:href="#D" x="-7" y="-9"/><use xlink:href="#B" x="-14.01" y="-2"/><use xlink:href="#E" x="-3" y="-13"/><use xlink:href="#D" x="-8" y="-8"/><use xlink:href="#B" x="-18.01" y="2.001"/><use xlink:href="#B" x="-13" y="-3"/><use xlink:href="#B" x="-16.01"/><use xlink:href="#E" x="-6" y="-10"/><use xlink:href="#E" x="-5" y="-11"/><path d="M46.88 11.295l-.13-.226-.44.44.178.177.392-.392z"/><use xlink:href="#E" x="-4" y="-12"/><use xlink:href="#B" x="-17.01" y="1"/><path d="M22.314 35.507l.226.128.77-.77-.177-.177-.82.82z"/><use xlink:href="#E" x="1" y="-17"/><use xlink:href="#D" x="-9" y="-7"/><use xlink:href="#D" x="-6.01" y="-10"/><use xlink:href="#B" x="-12" y="-3.999"/><use xlink:href="#E" x="-8" y="-8"/><use xlink:href="#E" x="-2" y="-14"/><use xlink:href="#E" y="-16"/><use xlink:href="#E" x="-7" y="-9"/><use xlink:href="#B" x="-11" y="-4.999"/><use xlink:href="#F"/><use xlink:href="#B" x="-15.01" y="-1"/><use xlink:href="#E" x="-1" y="-15"/><use xlink:href="#B" x="-17.01" y="-1"/><use xlink:href="#D" x="-7.01" y="-11"/><use xlink:href="#D" x="-11" y="-7"/><use xlink:href="#E" y="-18"/><use xlink:href="#B" x="-19.01" y="1"/><use xlink:href="#E" x="-6" y="-12"/><use xlink:href="#B" x="-15.01" y="-3"/><use xlink:href="#E" x="-8" y="-10"/><use xlink:href="#B" x="-13" y="-5"/><use xlink:href="#E" x="-5" y="-13"/><use xlink:href="#E" x="-3" y="-15"/><use xlink:href="#B" x="-16.01" y="-2"/><use xlink:href="#E" x="-2" y="-16"/><path d="M21.07 34.75l.22.133.02-.02-.177-.177-.063.063z"/><use xlink:href="#B" x="-18.01"/><use xlink:href="#E" x="-7" y="-11"/><use xlink:href="#D" x="-9" y="-9"/><use xlink:href="#D" x="-10" y="-8"/><use xlink:href="#F" x="-1" y="-1"/><use xlink:href="#E" x="-1" y="-17"/><path d="M21.487 34.688l-.177-.177.82-.824.177.177z"/><use xlink:href="#E" x="-9" y="-9"/><use xlink:href="#D" x="-8.01" y="-10"/><use xlink:href="#B" x="-14.01" y="-4"/><path d="M46.13 10.046l-.133-.22-.686.685.178.177.64-.642z"/><use xlink:href="#E" x="-4" y="-14"/><use xlink:href="#B" x="-21.01" y="1"/><use xlink:href="#E" x="-10" y="-10"/><use xlink:href="#B" x="-19.01" y="-1"/><use xlink:href="#E" x="-6" y="-14"/><use xlink:href="#E" x="-2" y="-18"/><use xlink:href="#B" x="-15.01" y="-5"/><use xlink:href="#E" x="-4" y="-16"/><use xlink:href="#G"/><use xlink:href="#E" x="-3" y="-17"/><use xlink:href="#E" x="-5" y="-15"/><use xlink:href="#E" x="-9" y="-11"/><path d="M19.92 33.902l.203.15.188-.188-.177-.177-.214.214z"/><use xlink:href="#B" x="-17.01" y="-3"/><use xlink:href="#E" x="-8" y="-12"/><use xlink:href="#E" x="-7" y="-13"/><use xlink:href="#B" x="-16.01" y="-4"/><path d="M44.31 9.5l.178.177.81-.81-.072-.096-.094-.093-.823.823z"/><use xlink:href="#F" x="-2" y="-2"/><use xlink:href="#B" x="-18.01" y="-2"/><use xlink:href="#D" x="-9.01" y="-11"/><use xlink:href="#D" x="-8.01" y="-12"/><use xlink:href="#D" x="-11" y="-9"/><use xlink:href="#B" x="-20.01"/><use xlink:href="#D" x="-10" y="-10"/><use xlink:href="#G" x="0.99" y="-0.999"/><use xlink:href="#E" x="-1" y="-19"/><path d="M18.845 32.976l.186.17.28-.28-.177-.177-.288.287z"/><use xlink:href="#F" x="-3" y="-3"/><use xlink:href="#G" y="-2"/><use xlink:href="#B" x="-21.01" y="-1"/><use xlink:href="#D" x="-10.01" y="-12"/><use xlink:href="#D" x="-9.01" y="-13"/><use xlink:href="#E" x="-10" y="-12"/><use xlink:href="#F" x="-2" y="-4"/><use xlink:href="#H"/><use xlink:href="#E" x="-5" y="-17"/><use xlink:href="#E" x="-11" y="-11"/><use xlink:href="#E" x="-4" y="-18"/><use xlink:href="#G" x="-1" y="-1"/><use xlink:href="#E" x="-3" y="-19"/><use xlink:href="#B" x="-19.01" y="-3"/><use xlink:href="#E" x="-9" y="-13"/><use xlink:href="#B" x="-20.01" y="-2"/><use xlink:href="#E" x="-8" y="-14"/><use xlink:href="#G" x="-2"/><use xlink:href="#E" x="-7" y="-15"/><use xlink:href="#D" x="-11.01" y="-11"/><use xlink:href="#B" x="-22.01"/><use xlink:href="#B" x="-18.01" y="-4"/><use xlink:href="#B" x="-17.01" y="-5"/><use xlink:href="#E" x="-6" y="-16"/><use xlink:href="#G" x="0.99" y="-2.999"/><use xlink:href="#B" x="-23.01" y="-1"/><use xlink:href="#E" x="-12" y="-12"/><use xlink:href="#B" x="-20.01" y="-4"/><use xlink:href="#G" x="-4"/><use xlink:href="#B" x="-19.01" y="-5"/><use xlink:href="#E" x="-9" y="-15"/><path d="M17.846 31.975l.17.186.295-.295-.177-.177-.287.286z"/><use xlink:href="#E" x="-11" y="-13"/><use xlink:href="#E" x="-10" y="-14"/><use xlink:href="#B" x="-21.01" y="-3"/><use xlink:href="#G" x="0.99" y="-4.999"/><use xlink:href="#D" x="-11.01" y="-13"/><use xlink:href="#E" x="-5" y="-19"/><use xlink:href="#G" y="-4"/><use xlink:href="#D" x="-10.01" y="-14"/><use xlink:href="#E" x="-6" y="-18"/><use xlink:href="#F" x="-3" y="-5"/><use xlink:href="#G" x="-1" y="-3"/><use xlink:href="#H" x="-2"/><use xlink:href="#B" x="-22.01" y="-2"/><use xlink:href="#H" x="-1" y="-1"/><use xlink:href="#F" x="-4" y="-4"/><use xlink:href="#G" x="-2" y="-2"/><use xlink:href="#E" x="-7" y="-17"/><use xlink:href="#G" x="-3" y="-1"/><use xlink:href="#E" x="-8" y="-16"/><use xlink:href="#B" x="-23.01" y="-3"/><use xlink:href="#E" x="-9" y="-17"/><use xlink:href="#G" x="0.99" y="-6.999"/><use xlink:href="#G" x="-1" y="-5"/><use xlink:href="#H" x="-2" y="-2"/><use xlink:href="#G" y="-6"/><use xlink:href="#E" x="-10" y="-16"/><use xlink:href="#E" x="-8" y="-18"/><use xlink:href="#F" x="-5" y="-5"/><use xlink:href="#G" x="-2" y="-4"/><use xlink:href="#E" x="-13" y="-13"/><use xlink:href="#B" x="-24.01" y="-2"/><use xlink:href="#G" x="-5" y="-1"/><use xlink:href="#B" x="-21.01" y="-5"/><path d="M42.133 5.687l.178.177-.82.824-.178-.177zM16.92 30.9l.152.203.237-.237-.177-.177-.212.2z"/><use xlink:href="#D" x="-11.01" y="-15"/><use xlink:href="#E" x="-12" y="-14"/><use xlink:href="#E" x="-11" y="-15"/><use xlink:href="#G" x="-6"/><use xlink:href="#G" x="-4" y="-2"/><use xlink:href="#E" x="-7" y="-19"/><use xlink:href="#H" x="-3" y="-1"/><use xlink:href="#B" x="-22.01" y="-4"/><use xlink:href="#H" x="-4"/><use xlink:href="#G" x="-3" y="-3"/><use xlink:href="#H" x="-6"/><use xlink:href="#H" x="-3" y="-3"/><use xlink:href="#I"/><use xlink:href="#G" y="-8"/><use xlink:href="#G" x="-8"/><use xlink:href="#H" x="-4" y="-2"/><path d="M41.203 4.973l-.21-.144-.68.68.178.177.714-.714z"/><use xlink:href="#E" x="-12" y="-16"/><use xlink:href="#G" x="-4" y="-4"/><use xlink:href="#G" x="-2" y="-6"/><use xlink:href="#B" x="-24.01" y="-4"/><use xlink:href="#G" x="-6" y="-2"/><use xlink:href="#E" x="-11" y="-17"/><use xlink:href="#H" x="-5" y="-1"/><use xlink:href="#E" x="-10" y="-18"/><use xlink:href="#F" x="-6" y="-6"/><use xlink:href="#E" x="-9" y="-19"/><use xlink:href="#G" x="-3" y="-5"/><use xlink:href="#G" x="0.99" y="-8.999"/><use xlink:href="#G" x="-7" y="-1"/><use xlink:href="#E" x="-13" y="-15"/><use xlink:href="#G" x="-5" y="-3"/><use xlink:href="#G" x="-1" y="-7"/><path d="M16.074 29.747l.144.21.093-.093-.177-.177-.06.06z"/><use xlink:href="#B" x="-25.01" y="-3"/><use xlink:href="#B" x="-23.01" y="-5"/><use xlink:href="#J"/><path d="M16.3 27.865l-.177-.177-.815.815.023.04.146.146.823-.823z"/><use xlink:href="#H" x="-6" y="-2"/><use xlink:href="#G" x="-9.01" y="-1"/><use xlink:href="#F" x="-7" y="-7"/><use xlink:href="#G" x="-6.01" y="-4"/><use xlink:href="#I" y="-2"/><use xlink:href="#G" x="-8.01" y="-2"/><use xlink:href="#B" x="-25.01" y="-5"/><use xlink:href="#H" x="-7" y="-1"/><use xlink:href="#G" x="-4.01" y="-6"/><use xlink:href="#E" x="-11" y="-19"/><use xlink:href="#G" x="-2.01" y="-8"/><use xlink:href="#H" x="-8"/><use xlink:href="#G" x="-7.01" y="-3"/><use xlink:href="#H" x="-4" y="-4"/><use xlink:href="#E" x="-12" y="-18"/><use xlink:href="#G" x="-0.01" y="-10"/><path d="M39.97 4.207l-.22-.134-.437.437.178.177.48-.48z"/><use xlink:href="#E" x="-13" y="-17"/><use xlink:href="#H" x="-5" y="-3"/><use xlink:href="#G" x="-1.01" y="-9"/><use xlink:href="#G" x="-3.01" y="-7"/><use xlink:href="#G" x="-10.01"/><use xlink:href="#G" x="-5.01" y="-5"/><use xlink:href="#G" x="-2.01" y="-10"/><use xlink:href="#E" x="-13" y="-19"/><use xlink:href="#G" x="-8.01" y="-4"/><use xlink:href="#G" x="-7.01" y="-5"/><use xlink:href="#H" x="-8" y="-2"/><use xlink:href="#G" x="-11.01" y="-1"/><use xlink:href="#G" x="-4.01" y="-8"/><use xlink:href="#H" x="-10"/><use xlink:href="#H" x="-9" y="-1"/><use xlink:href="#G" x="-9.01" y="-3"/><use xlink:href="#G" x="-5.01" y="-7"/><use xlink:href="#I" x="-2" y="-2"/><path d="M14.656 27.165l.115.24.54-.54-.177-.177-.477.477z"/><use xlink:href="#J" y="-2"/><use xlink:href="#G" x="-10.01" y="-2"/><use xlink:href="#G" x="-1.01" y="-11"/><use xlink:href="#G" x="-3.01" y="-9"/><use xlink:href="#H" x="-5" y="-5"/><use xlink:href="#H" x="-6" y="-4"/><use xlink:href="#I" y="-4"/><use xlink:href="#H" x="-7" y="-3"/><path d="M38.133 3.687l.177.177-.822.822-.177-.177z"/><use xlink:href="#G" x="-12.01"/><use xlink:href="#G" x="-6.01" y="-6"/><path d="M38.648 3.527l-.238-.115-.1.1.178.177.16-.162z"/><use xlink:href="#K"/><use xlink:href="#H" x="-10" y="-2"/><use xlink:href="#G" x="-12.01" y="-2"/><use xlink:href="#G" x="-7.01" y="-7"/><use xlink:href="#H" x="-9" y="-3"/><use xlink:href="#H" x="-7" y="-5"/><use xlink:href="#H" x="-8" y="-4"/><use xlink:href="#G" x="-5.01" y="-9"/><use xlink:href="#G" x="-6.01" y="-8"/><path d="M35.31 4.512l.823-.824.177.177-.823.824z"/><use xlink:href="#G" x="-4.01" y="-10"/><use xlink:href="#G" x="-8.01" y="-6"/><use xlink:href="#G" x="-2.01" y="-12"/><use xlink:href="#H" x="-11" y="-1"/><use xlink:href="#G" x="-3.01" y="-11"/><use xlink:href="#I" x="-3" y="-3"/><use xlink:href="#J" y="-4"/><use xlink:href="#I" x="-2" y="-4"/><use xlink:href="#G" x="-10.01" y="-4"/><path d="M14.088 25.733l.095.26.126-.126-.177-.177-.044.044z"/><use xlink:href="#G" x="-11.01" y="-3"/><path d="M37.236 2.94l-.26-.095-.666.667.178.177.748-.75z"/><use xlink:href="#G" x="-9.01" y="-5"/><use xlink:href="#I" y="-6"/><use xlink:href="#G" x="-8.01" y="-8"/><use xlink:href="#G" x="-9.01" y="-7"/><path d="M33.31 4.512l.823-.824.177.177-.823.824z"/><use xlink:href="#J" y="-6"/><path d="M35.72 2.456l-.28-.073-.127.127.178.177.23-.23z"/><use xlink:href="#G" x="-4.01" y="-12"/><use xlink:href="#H" x="-11" y="-3"/><use xlink:href="#I" y="-8"/><use xlink:href="#H" x="-10" y="-4"/><use xlink:href="#G" x="-11.01" y="-5"/><use xlink:href="#G" x="-3.01" y="-13"/><use xlink:href="#I" x="-3" y="-5"/><use xlink:href="#G" x="-10.01" y="-6"/><use xlink:href="#I" x="-2" y="-6"/><path d="M13.628 24.193l.072.282.61-.61-.177-.177-.504.504z"/><use xlink:href="#G" x="-13.01" y="-3"/><use xlink:href="#G" x="-6.01" y="-10"/><use xlink:href="#G" x="-7.01" y="-9"/><use xlink:href="#I" x="-4" y="-4"/><use xlink:href="#H" x="-9" y="-5"/><use xlink:href="#K" x="20" y="-22.001"/><use xlink:href="#G" x="-12.01" y="-4"/><use xlink:href="#G" x="-5.01" y="-11"/><use xlink:href="#I" y="-10"/><use xlink:href="#K" x="18" y="-22"/><use xlink:href="#G" x="-11.01" y="-7"/><use xlink:href="#J" y="-8"/><use xlink:href="#I" x="-3" y="-7"/><use xlink:href="#G" x="-6.01" y="-12"/><use xlink:href="#G" x="-5.01" y="-13"/><use xlink:href="#G" x="-8.01" y="-10"/><use xlink:href="#K" x="-1" y="-3"/><use xlink:href="#H" x="-11" y="-5"/><use xlink:href="#G" x="-4.01" y="-14"/><path d="M34.08 2.096l-.31-.047-.46.462.176.177.594-.592z"/><use xlink:href="#G" x="-12.01" y="-6"/><path d="M31.3 4.512l.823-.824.177.177-.823.824z"/><use xlink:href="#I" x="-5" y="-5"/><use xlink:href="#G" x="-10.01" y="-8"/><use xlink:href="#G" x="-7.01" y="-11"/><use xlink:href="#G" x="-9.01" y="-9"/><use xlink:href="#G" x="-13.01" y="-5"/><use xlink:href="#I" x="-2" y="-8"/><use xlink:href="#I" x="-4" y="-6"/><use xlink:href="#J" y="-10"/><use xlink:href="#G" x="-13.01" y="-7"/><use xlink:href="#G" x="-7.01" y="-13"/><use xlink:href="#G" x="-6.01" y="-14"/><use xlink:href="#I" x="-6" y="-6"/><use xlink:href="#G" x="-11.01" y="-9"/><use xlink:href="#G" x="-10.01" y="-10"/><path d="M30.31 3.512l.823-.824.177.177-.823.824z"/><use xlink:href="#I" x="-5" y="-7"/><use xlink:href="#G" x="-9.01" y="-11"/><use xlink:href="#K" x="-1" y="-5"/><use xlink:href="#I" y="-12"/><use xlink:href="#I" x="-3" y="-9"/><path d="M13.1 20.71l.017.337.183-.183-.177-.177-.023.023z"/><use xlink:href="#G" x="-12.01" y="-8"/><use xlink:href="#G" x="-5.01" y="-15"/><path d="M32.293 1.883l-.338-.017-.645.645.176.177.807-.805z"/><use xlink:href="#I" x="-2" y="-10"/><use xlink:href="#I" x="-4" y="-8"/><use xlink:href="#G" x="-8.01" y="-12"/><path d="M29.136 2.7l.177.178-.825.82-.177-.178z"/><use xlink:href="#G" x="-7.01" y="-15"/><use xlink:href="#G" x="-6.01" y="-16"/><use xlink:href="#G" x="-9.01" y="-13"/><use xlink:href="#I" x="-5" y="-9"/><use xlink:href="#G" x="-12.01" y="-10"/><use xlink:href="#I" x="-4" y="-10"/><use xlink:href="#I" x="-3" y="-11"/><use xlink:href="#I" x="-2" y="-11.998"/><use xlink:href="#G" x="-11.01" y="-11"/><use xlink:href="#G" x="-10.01" y="-12"/><use xlink:href="#G" x="-13.01" y="-9"/><use xlink:href="#G" x="-8.01" y="-14"/><path d="M30.31 1.865l-.008-.01-.357.018-.636.637.176.177.825-.823z"/><use xlink:href="#I" x="-7" y="-7"/><use xlink:href="#K" x="-1" y="-7"/><use xlink:href="#I" x="-6" y="-8"/><path d="M13.12 18.702l-.02.373.21-.21-.177-.177-.013.013z"/><use xlink:href="#G" x="-8.01" y="-16"/><path d="M28.094 2.082l-.418.063-.366.366.177.177.607-.606zM14.3 15.865l-.177-.177-.743.743-.02.138.12.12.822-.823z"/><use xlink:href="#I" x="-5" y="-11"/><use xlink:href="#I" x="-8" y="-8"/><path d="M27.136 2.7l.177.178-.825.82-.177-.178z"/><use xlink:href="#I" x="-7" y="-9"/><use xlink:href="#I" x="-6" y="-10"/><use xlink:href="#G" x="-12.01" y="-12"/><use xlink:href="#G" x="-10.01" y="-14"/><use xlink:href="#G" x="-9.01" y="-15"/><use xlink:href="#I" x="-4" y="-11.998"/><use xlink:href="#G" x="-7.01" y="-17"/><use xlink:href="#G" x="-11.01" y="-13"/><use xlink:href="#K" y="-10"/><use xlink:href="#I" x="-8" y="-10"/><path d="M25.3 2.865l-.07-.07-.336.123-.594.594.177.177.823-.823z"/><use xlink:href="#K" x="2" y="-14"/><use xlink:href="#I" x="-9" y="-9"/><path d="M24.136 3.7l.177.178-.825.82-.177-.178zm-10.18 10.52l.353-.353-.164-.164-.2.517z"/><use xlink:href="#G" x="-10.01" y="-16"/><use xlink:href="#G" x="-8.01" y="-18"/><use xlink:href="#G" x="-9.01" y="-17"/><use xlink:href="#K" y="-12"/><use xlink:href="#K" x="8" y="-20"/><use xlink:href="#K" x="1" y="-13"/><path d="M21.744 4.43l-.32.194.063.063.257-.257z"/><use xlink:href="#K" x="4" y="-18"/><path d="M21.3 4.865l-.105-.105-.447.304-.448.447.177.177.823-.823z"/><use xlink:href="#K" x="5" y="-19"/><use xlink:href="#K" x="2" y="-16"/><use xlink:href="#K" x="3" y="-17"/><path d="M15.676 10.5l.634-.634-.152-.152-.482.786zm27.457-3.812l.178.177.822.823.178.177.822.823.094.093c-.922-1.186-1.986-2.25-3.172-3.17l.078.078.178.177.822.823zm-4-2l.178.177.822.823.178.177.822.823.178.177.822.823.178.177.822.823.178.177.822.823.178.177.822.823.178.177.822.823.178.177.822.823.178.177.502.502-.205-.56-.12-.12-.178-.177-9.28-9.28-.56-.205.842.842.822.823zm-3-1l.178.178.822.823.178.177.822.823.178.177.822.823.178.177.822.823.178.177.822.823.178.177.822.823.178.177.822.823.178.177.822.823.178.177.822.823.178.177.822.823.178.177.822.823.178.177.822.823.178.177.348.348-.117-.472-.053-.053-.178-.177L35.096 2.295l-.473-.117.5.5.178.178.822.823zm-2 0l.178.178.822.823.178.177.822.823.178.177.822.823.178.177.822.823.178.177.822.823.178.177.822.823.178.177.822.823.178.177.822.823.178.177.822.823.178.177.822.823.178.177.822.823.178.177.822.823.178.177.822.823.178.177.822.823.178.177.64.642-.018-.373-.445-.446-.178-.177L32.704 1.905l-.373-.02 1.802 1.802zm-3-1l1.178 1.178.822.823.178.177.822.823.178.177.822.823.178.177.822.823.178.177.822.823.178.177.822.823.178.177.822.823.178.177.822.823.178.177.822.823.178.177.822.823.178.177.822.823.178.177.822.823.178.177.822.823.178.177.822.823.178.177.822.823.178.177.822.823.178.177.67.67.016-.337-.508-.5-.178-.177L30.64 1.84l-.336.017.008.01.822.822zm-1 1l.178.178.822.823.178.177.822.823.178.177.822.823.178.177.822.823.178.177.822.823.178.177.822.823.178.177.822.823.178.177.822.823.178.177.822.823.178.177.822.823.178.177.822.823.178.177.822.823.178.177.822.823.178.177.822.823.178.177.822.823.178.177.822.823.178.177.822.823.178.177.822.823.178.177.502.502.047-.308-.37-.372-.178-.177L28.776 1.977l-.307.047.664.664.177.178.823.822zm-2 0l.177.178 20.18 20.18.072-.282-.074-.076-.178-.177L27.07 2.273l-.28.072.342.342.177.178.823.822zm-2 0l.177.178 21.733 21.732.094-.26-.648-.65-.178-.177L25.498 2.7l-.26.095.894.893zm-1 1L47.487 27.04l.115-.24-.113-.113-.178-.177L24.035 3.236l-.24.115.337.336.177.178.823.823zm-1 1l22.7 22.7.117-.237-.463-.463-.178-.177L22.685 3.886l-.236.117 1.684 1.685zm-2 0L46.08 29.632l.133-.22-24.79-24.787-.22.134.105.106.824.823zm-1 1l24.105 24.106.152-.203L20.245 5.447l-.202.15 1.1 1.1zm22.355 24l-.178-.177L19.143 6.345l-.185.168L44.325 31.88l.168-.186-1.005-1.005zm-1 1l-1-1-.178-.177L18.117 7.318l-.168.186.184.185 25.2 25.2.188-.17-1.032-1.032zm-1 1L17.165 8.366l-.152.203 25.254 25.254.203-.15-.16-.16-.822-.824zm-1 1.002L16.3 9.5l-.15.203L41.125 34.68l.203-.152-.84-.84zm-2 0L15.533 10.734l-.134.22 4.733 4.734L39.88 35.436l.223-.134-1.615-1.613zm-1 1L14.84 12.042l-.115.24 23.83 23.83.24-.116-.307-.306-.178-.178-.822-.82zm-1 1L14.24 13.442l-.095.26 23 22.988.26-.095-.084-.084-.823-.82zm-2-.002l-.178-.177-20.565-20.565-.072.282 4.637 4.638 17.298 17.298.283-.072-1.403-1.404zm-2 0l-.178-.177-18.942-18.943-.047.308 20.637 20.636.3-.047-.78-.78-.178-.177-.822-.82zm-1 1l-.178-.177-18.172-18.173-.017.337.012.013L32.16 37.714l.338-.017-.01-.01-.178-.177-.822-.82zm-2 0l-.178-.177L13.1 20.3v.373l17.064 17.064.375.02-.06-.06-.178-.177-.822-.822zm-2 0l-14.2-14.2.064.418L27.93 37.484l.42.064-.86-.86zm-3-1l-10.64-10.64.2.543 11.206 11.205.544.2-.476-.477-.823-.82zm-4-2l-5.146-5.146.55.904 5.498 5.498.905.55-1.806-1.805z"/></g><path opacity=".2" d="M57.928 27.157C57.928 12.307 45.9.27 31.04.27A26.89 26.89 0 0 0 4.154 27.157v-.27C4.154 12.037 16.192 0 31.04 0s26.887 12.037 26.887 26.887v.27zm-8.9-6.845A17.98 17.98 0 0 0 31.041 2.335a17.98 17.98 0 0 0-17.977 17.977v-.516A17.98 17.98 0 0 1 31.041 1.819a17.98 17.98 0 0 1 17.977 17.977v.516z" fill="#fff"/><path fill="#1a1a1a" d="M4.82 46.602l10.63 10.63v.662L4.82 47.264"/><path opacity=".2" d="M4.154 26.573c0 14.85 12.038 26.886 26.887 26.886s26.887-12.037 26.887-26.886v.314a26.89 26.89 0 0 1-26.887 26.886c-14.85 0-26.887-12.037-26.887-26.886M3.006 6.474c0 1.565 1.27 2.835 2.834 2.835s2.835-1.27 2.835-2.835v-.3c0 1.565-1.27 2.835-2.835 2.835S3.006 7.74 3.006 6.174M7.3 60.46c0 1.565 1.27 2.834 2.834 2.834s2.835-1.27 2.835-2.834v-.3c0 1.565-1.27 2.834-2.835 2.834S7.3 61.724 7.3 60.16" fill="#fff"/><defs ><path id="B" d="M42.31 31.865l-.822.822-.177-.177.822-.822z"/><path id="C" d="M44.487 29.69l-.178-.177.82-.824.178.177z"/><path id="D" d="M41.31 32.865l-.822.823-.178-.177.822-.823z"/><path id="E" d="M43.31 30.512l.822-.823.178.177-.822.823z"/><path id="F" d="M45.3 12.5l.822-.822.177.177-.822.822z"/><path id="G" d="M28.31 25.865l-.823.823-.177-.177.823-.823z"/><path id="H" d="M41.3 10.512l.822-.823.177.177-.822.823z"/><path id="I" d="M29.3 16.51l.823-.823.177.177-.823.823z"/><path id="J" d="M28.31 15.51l.823-.823.177.178-.823.823z"/><path id="K" d="M15.133 24.688l.177.177-.823.823-.177-.177z"/></defs></svg>