<?xml version="1.0" encoding="UTF-8" standalone="no"?>
<svg
   xmlns:dc="http://purl.org/dc/elements/1.1/"
   xmlns:cc="http://creativecommons.org/ns#"
   xmlns:rdf="http://www.w3.org/1999/02/22-rdf-syntax-ns#"
   xmlns:svg="http://www.w3.org/2000/svg"
   xmlns="http://www.w3.org/2000/svg"
   xmlns:sodipodi="http://sodipodi.sourceforge.net/DTD/sodipodi-0.dtd"
   xmlns:inkscape="http://www.inkscape.org/namespaces/inkscape"
   sodipodi:docname="jst_sh4_ra.svg"
   inkscape:version="1.0 (4035a4fb49, 2020-05-01)"
   xml:space="preserve"
   viewBox="0 0 22.381162 14.855478"
   height="14.855476"
   width="22.381163"
   y="0px"
   x="0px"
   id="Layer_1"
   version="1.2"><metadata
     id="metadata27"><rdf:RDF><cc:Work
         rdf:about=""><dc:format>image/svg+xml</dc:format><dc:type
           rdf:resource="http://purl.org/dc/dcmitype/StillImage" /><dc:title></dc:title></cc:Work></rdf:RDF></metadata><defs
     id="defs25" /><sodipodi:namedview
     inkscape:document-rotation="0"
     showguides="false"
     fit-margin-bottom="0"
     fit-margin-right="0"
     fit-margin-left="0"
     fit-margin-top="0"
     inkscape:document-units="mm"
     inkscape:current-layer="Layer_1"
     inkscape:window-maximized="0"
     inkscape:window-y="60"
     inkscape:window-x="49"
     inkscape:cy="1.2547057"
     inkscape:cx="0.8642497"
     inkscape:zoom="13.612616"
     showgrid="false"
     id="namedview23"
     inkscape:window-height="878"
     inkscape:window-width="1823"
     inkscape:pageshadow="2"
     inkscape:pageopacity="0"
     guidetolerance="10"
     gridtolerance="10"
     objecttolerance="10"
     borderopacity="1"
     bordercolor="#666666"
     pagecolor="#ffffff" /><g
     transform="rotate(180,18.671396,7.9746228)"
     id="g146"><g
       transform="matrix(1.0506094,0,0,-0.86003788,14.75657,15.949245)"
       id="g36"><path
         sodipodi:nodetypes="ccccccccc"
         inkscape:connector-curvature="0"
         id="polygon5"
         d="m 1.9715885,2.9555382 17.7340925,-0.021278 0.0024,1.7894276 1.7731,-0.00216 0.01703,12.5259912 -21.27966672,0.02553 -0.0170329,-12.5259906 1.77247502,-0.00216 z"
         style="fill:#666666;stroke-width:0.580438" /><rect
         style="stroke-width:0.507169"
         transform="matrix(-0.99997679,0.0068132,-0.0073672,-0.99997286,0,0)"
         x="-18.75477"
         y="-11.954589"
         width="1.7730939"
         height="5.4647388"
         id="rect7" /><rect
         style="stroke-width:0.507169"
         transform="matrix(-0.99997679,0.0068132,-0.0073672,-0.99997286,0,0)"
         x="-4.5718079"
         y="-11.954589"
         width="1.7730939"
         height="5.4647388"
         id="rect9" /><rect
         transform="matrix(-0.99997679,0.0068132,-0.0073672,-0.99997286,0,0)"
         x="-18.75477"
         y="-6.4898486"
         width="1.7730939"
         height="1.8217942"
         id="rect11"
         style="fill:#333333;stroke-width:0.507169" /><rect
         transform="matrix(-0.99997679,0.0068132,-0.0073672,-0.99997286,0,0)"
         x="-4.5718079"
         y="-6.4898486"
         width="1.7730939"
         height="1.8217942"
         id="rect13"
         style="fill:#333333;stroke-width:0.507169" /><rect
         transform="matrix(-0.99997679,0.0068132,-0.0073672,-0.99997286,0,0)"
         x="-16.71587"
         y="-4.6680551"
         width="1.2408531"
         height="4.5541635"
         id="rect19"
         style="fill:#dcdcdc;stroke-width:0.507169" /><rect
         transform="matrix(-0.99997679,0.0068132,-0.0073672,-0.99997286,0,0)"
         x="-13.170307"
         y="-4.6680551"
         width="1.2408531"
         height="4.5541635"
         id="rect21"
         style="fill:#dcdcdc;stroke-width:0.507169" /><rect
         transform="matrix(-0.99997679,0.0068132,-0.0073672,-0.99997286,0,0)"
         style="fill:#dcdcdc;stroke-width:0.507169"
         id="rect4164"
         height="4.5541635"
         width="1.2408531"
         y="-4.6680551"
         x="-13.170307" /><rect
         transform="matrix(-0.99997679,0.0068132,-0.0073672,-0.99997286,0,0)"
         x="-9.6244974"
         y="-4.6680551"
         width="1.2408531"
         height="4.5541635"
         id="rect4188"
         style="fill:#dcdcdc;stroke-width:0.507169" /><rect
         transform="matrix(-0.99997679,0.0068132,-0.0073672,-0.99997286,0,0)"
         style="fill:#dcdcdc;stroke-width:0.507169"
         id="rect4143"
         height="4.5541635"
         width="1.2408531"
         y="-4.6680551"
         x="-6.0787516" /><path
         inkscape:connector-curvature="0"
         id="path594"
         d="M 0.21888109,11.164321 C 0.21882055,7.8066097 0.21346343,4.9912105 0.20697637,4.9078779 L 0.19518173,4.756364 H 1.0886217 1.9820616 V 3.8564634 2.9565629 H 3.411623 4.8411846 l 0.012073,0.4269936 c 0.00664,0.2348465 0.012093,0.6150086 0.012116,0.8448046 l 4.22e-5,0.417811 0.2800711,-5.14e-5 c 0.1540391,-2.94e-5 0.4350285,-0.00547 0.6244208,-0.012087 L 6.1142579,4.6219992 V 3.7892811 2.9565629 h 1.1357744 1.1357744 l 0.011997,0.2892538 c 0.0066,0.1590895 0.012024,0.5309872 0.012058,0.8264392 l 6.11e-5,0.5371855 H 9.0343433 9.6587641 V 3.7830022 2.9565629 h 1.1386499 1.13865 l 0.0023,0.1377399 c 0.0013,0.075757 0.0044,0.1460043 0.0069,0.1561052 0.0025,0.010101 0.0056,0.3159919 0.0069,0.6797578 l 0.0023,0.6613925 0.625897,-0.00483 0.625898,-0.00483 -0.0022,-0.8126653 -0.0022,-0.8126653 h 1.137382 c 1.020203,0 1.138532,0.00299 1.148531,0.02905 0.0061,0.015978 0.01115,0.3796108 0.01115,0.808074 v 0.7790239 h 0.382768 c 0.210523,0 0.493578,-0.00531 0.629012,-0.0118 l 0.246244,-0.0118 -0.0055,-0.8054563 -0.0055,-0.8054563 h 1.479304 1.479304 v 0.8999005 0.8999006 h 0.878501 0.878501 l 0.01222,2.0691407 c 0.0067,1.1380275 0.01222,3.9520532 0.01222,6.2533902 v 4.18425 l -4.063327,2e-6 c -2.234829,2e-6 -7.019913,0.0055 -10.6335187,0.01224 L 0.21899117,17.26925 Z M 4.6635,11.556123 C 4.6636836,10.874818 4.6274068,6.238414 4.6154877,5.4196564 L 4.6038889,4.6229061 3.7199688,4.636372 C 3.2338127,4.643782 2.8337651,4.651985 2.8309739,4.65461 c -0.00691,0.0065 0.029489,5.3335249 0.043831,6.414832 l 0.011509,0.867761 h 0.8885418 0.8885422 l 1.102e-4,-0.38108 z m 14.171747,0.264822 c 0.01448,-0.01448 -0.02575,-6.8598107 -0.04182,-7.1163456 l -0.01072,-0.1711391 -0.878214,0.00585 c -0.483017,0.00322 -0.882207,0.00998 -0.887089,0.015034 -0.0084,0.00864 0.0056,2.3576962 0.03437,5.7829207 l 0.0127,1.512985 0.879129,-0.0084 c 0.483521,-0.0046 0.884756,-0.01403 0.891634,-0.02091 z"
         style="fill:#000000;fill-opacity:1;stroke-width:0.0183653" /><path
         inkscape:connector-curvature="0"
         id="path596"
         d="M 2.8384016,6.3541466 C 2.8322007,6.2884906 2.8270685,5.8823734 2.8269967,5.451664 l -1.305e-4,-0.783108 0.06887,-0.00884 C 2.9877252,4.647905 3.4952591,4.638687 4.1048746,4.637753 L 4.602357,4.6369914 4.61378,5.2889602 c 0.00628,0.3585828 0.00636,0.7695814 1.652e-4,0.9133302 l -0.011258,0.2613614 -0.8765057,0.00494 -0.8765058,0.00494 z"
         style="fill:#000000;fill-opacity:1;stroke-width:0.0183653" /><path
         inkscape:connector-curvature="0"
         id="path598"
         d="m 17.035286,6.1216763 c -0.0066,-0.1379595 -0.01203,-0.547047 -0.01203,-0.9090832 V 4.5543455 l 0.133148,-0.00428 c 0.07323,-0.00235 0.469883,-0.00442 0.881446,-0.00459 l 0.748298,-3.101e-4 0.002,0.1193746 c 0.0011,0.065656 0.0032,0.4768019 0.0047,0.9136575 l 0.0027,0.794283 -0.874097,1.69e-5 -0.874097,1.71e-5 z"
         style="fill:#000000;fill-opacity:1;stroke-width:0.0183653" /></g><ellipse
       style="fill:#4d4d4d;fill-opacity:1;stroke:none;stroke-width:0.637467;stroke-linecap:butt;stroke-linejoin:miter;stroke-miterlimit:10;stroke-dasharray:none;stroke-opacity:1"
       id="path21"
       cx="17.557022"
       cy="4.7100725"
       rx="2.5159123"
       ry="2.5159125" /><ellipse
       ry="2.5159125"
       rx="2.5159123"
       cy="4.7100725"
       cx="23.226313"
       id="ellipse4553"
       style="fill:#ff0000;fill-opacity:1;stroke:none;stroke-width:0.637467;stroke-linecap:butt;stroke-linejoin:miter;stroke-miterlimit:10;stroke-dasharray:none;stroke-opacity:1" /><ellipse
       style="fill:#0000ff;fill-opacity:1;stroke:none;stroke-width:0.637467;stroke-linecap:butt;stroke-linejoin:miter;stroke-miterlimit:10;stroke-dasharray:none;stroke-opacity:1"
       id="ellipse4555"
       cx="28.895603"
       cy="4.7100725"
       rx="2.5159123"
       ry="2.5159125" /><ellipse
       ry="2.5159125"
       rx="2.5159123"
       cy="4.7100725"
       cx="34.564899"
       id="ellipse4557"
       style="fill:#ffff00;fill-opacity:1;stroke:none;stroke-width:0.637467;stroke-linecap:butt;stroke-linejoin:miter;stroke-miterlimit:10;stroke-dasharray:none;stroke-opacity:1" /></g></svg>
