<?xml version='1.0' encoding='UTF-8' standalone='no'?>
<svg
  xmlns:dc="http://purl.org/dc/elements/1.1/"
  xmlns:cc="http://creativecommons.org/ns#"
  xmlns:rdf="http://www.w3.org/1999/02/22-rdf-syntax-ns#"
  xmlns:svg="http://www.w3.org/2000/svg"
  xmlns="http://www.w3.org/2000/svg"
  height="24.775694mm"
  version="1.0"
  id="svg121"
  width="14.999999mm"
  gorn="0"
  viewBox="0 0 590.55133 975.42136">
  <metadata
    id="metadata70">
    <rdf:RDF>
      <cc:Work
        rdf:about="">
        <dc:title/>
        <dc:format>image/svg+xml</dc:format>
        <dc:type
          rdf:resource="http://purl.org/dc/dcmitype/StillImage"
        />
      </cc:Work>
    </rdf:RDF>
  </metadata>
  <defs
    id="defs68">
    <defs
      id="defs3"
    />
  </defs>
  <desc
    id="desc2">
    <referenceFile>ky_006_1_breadboard.svg</referenceFile>
  </desc>
  <g
    id="breadboard">
    <path
      d="M -1.0238195e-7,-2.6609473e-7 V 728.34667 H 590.55135 V -2.6609473e-7 Z M 95.644852,28.91141 c 24.467288,0 42.261678,20.01564 42.261678,42.255264 v 0 c 0,23.351467 -20.01869,41.143276 -42.261678,41.143276 v 0 c -23.355137,0 -41.149529,-18.903656 -41.149529,-41.143276 v 0 C 53.38318,48.92705 72.289715,28.91141 95.644852,28.91141 Z m 400.373798,0 c 24.46729,0 42.26167,20.01564 42.26167,42.255264 v 0 c 0,23.351467 -20.01868,41.143276 -42.26167,41.143276 v 0 c -23.35514,0 -41.14952,-18.903656 -41.14952,-41.143276 0,-22.239624 18.90654,-42.255264 41.14952,-42.255264 z"
      id="path5"
      gorn="0.1.2"
      fill="#333333"
      fill-opacity="1"
      fill-rule="nonzero"
      stroke="none"
      stroke-width="13.90091038"
    />
    <path
      d="m 143.46728,72.278662 c 0,26.687432 -21.13084,47.815058 -47.822428,47.815058 -26.691586,0 -48.934576,-21.127626 -48.934576,-47.815058 0,-26.687572 22.24299,-48.927192 48.934576,-48.927192 26.691588,0 47.822428,22.23962 47.822428,48.927192 z"
      id="path7"
      gorn="0.1.3"
      fill="none"
      stroke="#8c8c8c"
      stroke-width="1.25539672"
      stroke-linecap="butt"
      stroke-linejoin="miter"
      stroke-miterlimit="4"
      stroke-dasharray="none"
      stroke-opacity="1"
    />
    <path
      d="m 544.95323,72.278662 c 0,26.687432 -21.13084,47.815058 -47.82243,47.815058 -26.69159,0 -47.82242,-21.127626 -47.82242,-47.815058 0,-26.687572 21.13083,-48.927192 47.82242,-48.927192 26.69159,0 47.82243,22.23962 47.82243,48.927192 z"
      id="path9"
      gorn="0.1.4"
      fill="none"
      stroke="#8c8c8c"
      stroke-width="1.25539672"
      stroke-linecap="butt"
      stroke-linejoin="miter"
      stroke-miterlimit="4"
      stroke-dasharray="none"
      stroke-opacity="1"
    />
    <path
      d="m 543.84107,352.49753 c 0,136.7734 -111.21494,247.9715 -248.00932,247.9715 -136.79439,0 -246.897175,-111.1981 -246.897175,-247.9715 0,-135.66155 110.102785,-246.85951 246.897175,-246.85951 136.79438,0 248.00932,111.19796 248.00932,246.85951 z"
      id="path11"
      gorn="0.1.5"
      fill="#666666"
      fill-opacity="1"
      fill-rule="nonzero"
      stroke="none"
      stroke-width="13.90091038"
    />
    <path
      d="m 351.43922,352.49753 c 0,31.13539 -24.46728,55.59898 -55.60747,55.59898 -30.02804,0 -55.60747,-24.46359 -55.60747,-55.59898 0,-30.02353 25.57943,-55.59897 55.60747,-55.59897 31.14019,0 55.60747,25.57544 55.60747,55.59897 z"
      id="path13"
      gorn="0.1.6"
      fill="#808080"
      fill-opacity="1"
      fill-rule="nonzero"
      stroke="none"
      stroke-width="13.90091038"
    />
    <path
      d="m 350.32707,187.92457 c 0,30.02339 -24.46729,54.487 -53.38316,54.487 -30.02804,0 -54.49533,-24.46361 -54.49533,-54.487 0,-28.91155 24.46729,-53.37514 54.49533,-53.37514 28.91587,0 53.38316,24.46359 53.38316,53.37514 z"
      id="path15"
      gorn="0.1.7"
      fill="none"
      stroke="#4d4d4d"
      stroke-width="0.94154763"
      stroke-linecap="butt"
      stroke-linejoin="miter"
      stroke-miterlimit="4"
      stroke-dasharray="none"
      stroke-opacity="1"
    />
    <path
      d="m 296.94391,153.45308 v 68.94284"
      id="path17"
      gorn="0.1.8"
      fill="none"
      stroke="#4d4d4d"
      stroke-width="1.25539672"
      stroke-linecap="butt"
      stroke-linejoin="miter"
      stroke-miterlimit="4"
      stroke-dasharray="none"
      stroke-opacity="1"
    />
    <path
      d="m 262.46727,187.92457 h 68.95326"
      id="path19"
      gorn="0.1.9"
      fill="none"
      stroke="#4d4d4d"
      stroke-width="1.25539672"
      stroke-linecap="butt"
      stroke-linejoin="miter"
      stroke-miterlimit="4"
      stroke-dasharray="none"
      stroke-opacity="1"
    />
    <path
      d="m 350.32707,187.92457 c 0,30.02339 -24.46729,53.37501 -53.38316,53.37501 -30.02804,0 -54.49533,-23.35162 -54.49533,-53.37501 0,-30.02353 24.46729,-53.37514 54.49533,-53.37514 28.91587,0 53.38316,23.35161 53.38316,53.37514 z"
      id="path21"
      gorn="0.1.10"
      fill="none"
      stroke="#4d4d4d"
      stroke-width="0.94154763"
      stroke-linecap="butt"
      stroke-linejoin="miter"
      stroke-miterlimit="4"
      stroke-dasharray="none"
      stroke-opacity="1"
    />
    <path
      d="m 296.94391,153.45308 v 68.94284"
      id="path23"
      gorn="0.1.11"
      fill="none"
      stroke="#4d4d4d"
      stroke-width="1.25539672"
      stroke-linecap="butt"
      stroke-linejoin="miter"
      stroke-miterlimit="4"
      stroke-dasharray="none"
      stroke-opacity="1"
    />
    <path
      d="m 261.35512,187.92457 h 70.06541"
      id="path25"
      gorn="0.1.12"
      fill="none"
      stroke="#4d4d4d"
      stroke-width="1.25539672"
      stroke-linecap="butt"
      stroke-linejoin="miter"
      stroke-miterlimit="4"
      stroke-dasharray="none"
      stroke-opacity="1"
    />
    <text
      x="184.73305"
      y="70.055267"
      font-size="49"
      id="text1058"
      font-family="OCRA"
      fill="#ffffff"
      stroke-width="1.00000036">KY-006</text>
    <polygon
      id="polygon7"
      points="217.113,1000 782.747,1000 1000,782.747 1000,217.113 782.747,0 217.113,0 0,217.113 0,782.747 "
      transform="matrix(-0.10000003,0,0,-0.10000003,432.33951,712.78117)"
      fill="#404040"
    />
    <polygon
      id="polygon23"
      points="1217.11,1000 1782.75,1000 2000,782.747 2000,217.113 1782.75,0 1217.11,0 1000,217.113 1000,782.747 "
      transform="matrix(-0.10000003,0,0,-0.10000003,432.33951,712.78117)"
      fill="#404040"
    />
    <polygon
      id="polygon39-2"
      points="2217.11,1000 2782.75,1000 3000,782.747 3000,217.113 2782.75,0 2217.11,0 2000,217.113 2000,782.747 "
      transform="matrix(-0.10000003,0,0,-0.10000003,432.33951,712.78117)"
      fill="#404040"
    />
    <polygon
      id="polygon33"
      points="1659.67,340.463 1659.67,659.674 1582.03,582.025 1582.03,417.974 "
      transform="matrix(0.19251482,-0.02924925,0.05130483,0.05099886,-155.51179,974.69085)"
      fill="#aa8800"
    />
    <rect
      id="rect3422"
      width="8.8936462"
      height="8.5491552"
      x="-776.47552"
      y="-669.87183"
      transform="matrix(-0.81476953,-0.57978497,0.665266,-0.74660642,0,0)"
      fill="#d4aa00"
      fill-opacity="1"
      stroke-width="0.0999992"
    />
    <rect
      id="rect29"
      x="942.02448"
      height="9.4534855"
      y="-179.54265"
      width="16.418905"
      transform="rotate(90)"
      fill="#ffffff"
      stroke-width="0.09999929"
    />
    <polygon
      id="polygon35"
      points="1659.67,659.674 1340.46,659.674 1417.97,582.025 1582.03,582.025 "
      transform="matrix(-0.09999854,0,0.05217162,-0.12397894,318.76144,1031.8529)"
      fill="#d4aa00"
    />
    <rect
      transform="scale(-1)"
      id="rect43"
      x="-220.17143"
      height="31.92111"
      y="-680.49878"
      width="31.920633"
      fill="#8d8c8c"
      stroke-width="0.09999929"
    />
    <rect
      transform="scale(-1)"
      id="rect45"
      x="-212.42055"
      height="16.418905"
      y="-672.74768"
      width="16.418659"
      fill="#8c8663"
      stroke-width="0.09999929"
    />
    <polygon
      id="polygon47"
      points="2340.46,340.463 2417.97,417.974 2582.03,417.974 2659.67,340.463 "
      transform="matrix(-0.09999854,0,0,-0.10000003,454.21401,714.54511)"
      fill="#b8af82"
    />
    <polygon
      id="polygon49"
      points="2582.03,582.025 2582.03,417.974 2659.67,340.463 2659.67,659.674 "
      transform="matrix(-0.09999854,0,0,-0.10000003,454.21401,714.54511)"
      fill="#80795b"
    />
    <polygon
      id="polygon51"
      points="2417.97,582.025 2582.03,582.025 2659.67,659.674 2340.46,659.674 "
      transform="matrix(-0.09999854,0,0,-0.10000003,454.21401,714.54511)"
      fill="#5e5b43"
    />
    <polygon
      id="polygon53-8"
      points="2340.46,340.463 2417.97,417.974 2417.97,582.025 2340.46,659.674 "
      transform="matrix(-0.09999854,0,0,-0.10000003,454.21401,714.54511)"
      fill="#9a916c"
    />
    <rect
      transform="scale(-1)"
      id="connector2pin"
      width="31.999533"
      height="100.00005"
      x="-219.32159"
      y="-950.17017"
      fill="#ffcc00"
      fill-opacity="1"
      stroke-width="0.09999929"
    />
    <rect
      y="945.39093"
      height="10.000004"
      width="10.000004"
      x="198.06967"
      gorn="0.1.5"
      id="connector2terminal"
      fill="none"
      stroke="none"
      stroke-width="0"
    />
    <rect
      transform="scale(-1)"
      y="-945.09204"
      x="-187.42101"
      height="295.05222"
      width="8.0207167"
      id="rect3420"
      fill="#d4aa00"
      fill-opacity="1"
      stroke-width="0.09999929"
    />
    <rect
      transform="scale(-1)"
      id="rect3424"
      width="19.99971"
      height="28.838846"
      x="-180.65028"
      y="-679.39954"
      fill="#d4aa00"
      fill-opacity="1"
      stroke-width="0.09999929"
    />
    <rect
      id="rect27"
      x="-692.39825"
      height="17.444296"
      y="-579.62781"
      width="28.766565"
      transform="matrix(-0.7140099,-0.7001356,0.53240588,-0.84648921,0,0)"
      fill="#ffffff"
      stroke-width="0.09999944"
    />
    <rect
      transform="scale(-1)"
      y="-950.17017"
      x="-219.32159"
      height="300.00012"
      width="31.999533"
      id="rect3681"
      fill="#ffcc00"
      fill-opacity="1"
      stroke-width="0.09999929"
    />
    <polygon
      transform="matrix(0.19251482,-0.02924925,0.05130483,0.05099886,-55.342248,974.69085)"
      points="1659.67,659.674 1582.03,582.025 1582.03,417.974 1659.67,340.463 "
      id="polygon3444"
      fill="#aa8800"
    />
    <rect
      transform="matrix(-0.81476953,-0.57978497,0.665266,-0.74660642,0,0)"
      y="-611.44586"
      x="-851.7124"
      height="8.5491552"
      width="8.8936462"
      id="rect3446"
      fill="#d4aa00"
      fill-opacity="1"
      stroke-width="0.0999992"
    />
    <rect
      transform="rotate(90)"
      width="16.418905"
      y="-279.71219"
      height="9.4534855"
      x="942.02448"
      id="rect3448"
      fill="#ffffff"
      stroke-width="0.09999929"
    />
    <polygon
      transform="matrix(-0.09999854,0,0.05217162,-0.12397894,418.93098,1031.8529)"
      points="1340.46,659.674 1417.97,582.025 1582.03,582.025 1659.67,659.674 "
      id="polygon3450"
      fill="#d4aa00"
    />
    <rect
      transform="scale(-1)"
      width="31.920633"
      y="-680.49878"
      height="31.92111"
      x="-320.34097"
      id="rect3452"
      fill="#8d8c8c"
      stroke-width="0.09999929"
    />
    <rect
      transform="scale(-1)"
      width="16.418659"
      y="-672.74768"
      height="16.418905"
      x="-312.59009"
      id="rect3454"
      fill="#8c8663"
      stroke-width="0.09999929"
    />
    <polygon
      transform="matrix(-0.09999854,0,0,-0.10000003,554.38355,714.54511)"
      points="2417.97,417.974 2582.03,417.974 2659.67,340.463 2340.46,340.463 "
      id="polygon3456"
      fill="#b8af82"
    />
    <polygon
      transform="matrix(-0.09999854,0,0,-0.10000003,554.38355,714.54511)"
      points="2582.03,417.974 2659.67,340.463 2659.67,659.674 2582.03,582.025 "
      id="polygon3458"
      fill="#80795b"
    />
    <polygon
      transform="matrix(-0.09999854,0,0,-0.10000003,554.38355,714.54511)"
      points="2582.03,582.025 2659.67,659.674 2340.46,659.674 2417.97,582.025 "
      id="polygon3460"
      fill="#5e5b43"
    />
    <polygon
      transform="matrix(-0.09999854,0,0,-0.10000003,554.38355,714.54511)"
      points="2417.97,417.974 2417.97,582.025 2340.46,659.674 2340.46,340.463 "
      id="polygon3462"
      fill="#9a916c"
    />
    <rect
      transform="scale(-1)"
      y="-950.17017"
      x="-319.49161"
      height="100.00005"
      width="32.000008"
      id="connector1pin"
      fill="#ffcc00"
      fill-opacity="1"
      stroke-width="0.09999929"
    />
    <rect
      y="945.39093"
      height="10.000004"
      width="10.000004"
      x="298.0697"
      gorn="0.1.7"
      id="connector1terminal"
      fill="none"
      stroke="none"
      stroke-width="0"
    />
    <rect
      transform="scale(-1)"
      id="rect3466"
      width="8.0207167"
      height="295.05222"
      x="-287.59055"
      y="-945.09204"
      fill="#d4aa00"
      fill-opacity="1"
      stroke-width="0.09999929"
    />
    <rect
      transform="scale(-1)"
      y="-679.39398"
      x="-280.81982"
      height="28.83334"
      width="19.99971"
      id="rect3468"
      fill="#d4aa00"
      fill-opacity="1"
      stroke-width="0.09999929"
    />
    <rect
      transform="matrix(-0.7140099,-0.7001356,0.53240588,-0.84648921,0,0)"
      width="28.766565"
      y="-507.85614"
      height="17.444296"
      x="-779.17279"
      id="rect3470"
      fill="#ffffff"
      stroke-width="0.09999944"
    />
    <rect
      transform="scale(-1)"
      id="rect3679"
      width="31.999533"
      height="300.00012"
      x="-319.49112"
      y="-950.17017"
      fill="#ffcc00"
      fill-opacity="1"
      stroke-width="0.09999929"
    />
    <polygon
      id="polygon3474"
      points="1659.67,659.674 1582.03,582.025 1582.03,417.974 1659.67,340.463 "
      transform="matrix(0.19251482,-0.02924925,0.05130483,0.05099886,44.656305,974.44992)"
      fill="#aa8800"
    />
    <rect
      id="rect3476"
      width="8.8936462"
      height="8.5491552"
      x="-926.65961"
      y="-552.92212"
      transform="matrix(-0.81476953,-0.57978497,0.665266,-0.74660642,0,0)"
      fill="#d4aa00"
      fill-opacity="1"
      stroke-width="0.0999992"
    />
    <rect
      id="rect3478"
      x="941.78357"
      height="9.4534855"
      y="-379.71075"
      width="16.418905"
      transform="rotate(90)"
      fill="#ffffff"
      stroke-width="0.09999929"
    />
    <polygon
      id="polygon3480"
      points="1340.46,659.674 1417.97,582.025 1582.03,582.025 1659.67,659.674 "
      transform="matrix(-0.09999854,0,0.05217162,-0.12397894,518.92953,1031.612)"
      fill="#d4aa00"
    />
    <rect
      transform="scale(-1)"
      id="rect3482"
      x="-420.33954"
      height="31.92111"
      y="-680.25787"
      width="31.920633"
      fill="#8d8c8c"
      stroke-width="0.09999929"
    />
    <rect
      transform="scale(-1)"
      id="rect3484"
      x="-412.58862"
      height="16.418905"
      y="-672.50677"
      width="16.418659"
      fill="#8c8663"
      stroke-width="0.09999929"
    />
    <polygon
      id="polygon3486"
      points="2417.97,417.974 2582.03,417.974 2659.67,340.463 2340.46,340.463 "
      transform="matrix(-0.09999854,0,0,-0.10000003,654.3821,714.30418)"
      fill="#b8af82"
    />
    <polygon
      id="polygon3488"
      points="2582.03,417.974 2659.67,340.463 2659.67,659.674 2582.03,582.025 "
      transform="matrix(-0.09999854,0,0,-0.10000003,654.3821,714.30418)"
      fill="#80795b"
    />
    <polygon
      id="polygon3490"
      points="2582.03,582.025 2659.67,659.674 2340.46,659.674 2417.97,582.025 "
      transform="matrix(-0.09999854,0,0,-0.10000003,654.3821,714.30418)"
      fill="#5e5b43"
    />
    <polygon
      id="polygon3492"
      points="2417.97,417.974 2417.97,582.025 2340.46,659.674 2340.46,340.463 "
      transform="matrix(-0.09999854,0,0,-0.10000003,654.3821,714.30418)"
      fill="#9a916c"
    />
    <rect
      transform="scale(-1)"
      id="connector0pin"
      width="31.999533"
      height="100.00005"
      x="-419.48969"
      y="-949.92926"
      fill="#ffcc00"
      fill-opacity="1"
      stroke-width="0.09999929"
    />
    <rect
      y="944.84924"
      height="10.000004"
      width="10.000003"
      x="398.06973"
      gorn="0.1.9"
      id="connector0terminal"
      fill="none"
      stroke="none"
      stroke-width="0"
    />
    <rect
      transform="scale(-1)"
      y="-944.85107"
      x="-387.58911"
      height="295.05222"
      width="8.0207167"
      id="rect3496"
      fill="#d4aa00"
      fill-opacity="1"
      stroke-width="0.09999929"
    />
    <rect
      transform="scale(-1)"
      id="rect3498"
      width="19.99971"
      height="28.83334"
      x="-380.81836"
      y="-679.15308"
      fill="#d4aa00"
      fill-opacity="1"
      stroke-width="0.09999929"
    />
    <rect
      id="rect3500"
      x="-865.66797"
      height="17.444296"
      y="-436.03091"
      width="28.766565"
      transform="matrix(-0.7140099,-0.7001356,0.53240588,-0.84648921,0,0)"
      fill="#ffffff"
      stroke-width="0.09999944"
    />
    <rect
      transform="scale(-1)"
      y="-949.92926"
      x="-419.48969"
      height="300.00012"
      width="31.999533"
      id="rect3677"
      fill="#ffcc00"
      fill-opacity="1"
      stroke-width="0.09999929"
    />
    <text
      id="text479"
      font-size="80"
      y="676.9552"
      x="465.49518"
      font-family="OCRA"
      fill="#ffffff"
      stroke-width="1.00000036">s</text>
    <text
      x="79.801735"
      y="682.62714"
      font-size="80"
      id="text481"
      font-family="OCRA"
      fill="#ffffff"
      stroke-width="1.00000036">-</text>
    <text
      transform="rotate(-90)"
      id="text498"
      font-size="35"
      y="37.852245"
      x="-432.2988"
      font-family="OCRA"
      fill="#ffffff"
      stroke-width="1.00000036">Keyes</text>
  </g>
</svg>
