<?xml version="1.0" encoding="utf-8"?>
<!-- Generator: Adobe Illustrator 20.0.0, SVG Export Plug-In . SVG Version: 6.00 Build 0)  -->
<svg version="1.2" baseProfile="tiny" id="Layer_1" xmlns="http://www.w3.org/2000/svg" xmlns:xlink="http://www.w3.org/1999/xlink"
	 x="0px" y="0px" width="340.157px" height="115.654px" viewBox="0 0 340.157 115.654" xml:space="preserve">
<rect fill="#6E6E6E" width="340.157" height="115.654"/>
<path fill="#FF1E00" d="M90.423,23.958l8.236-6.917l1.287,1.59l-5.92,33.79l-5.233,4.373L85.361,52.5L90.423,23.958z M78.412,91.616
	l5.748,6.917l1.973-1.67l6.091-33.949l-3.517-4.214l-5.147,4.293L78.412,91.616z M49.329,18.631l1.973-1.749l5.748,6.917
	L51.989,52.42l-5.233,4.373L43.324,52.5L49.329,18.631z M45.126,91.457l-8.322,6.917l-1.201-1.511l5.92-33.869l5.147-4.293
	l3.517,4.214L45.126,91.457z M46.069,92.57l-8.322,6.917l1.287,1.59h42.037l2.059-1.749l-5.748-6.758H46.069z M52.932,53.454
	l-5.233,4.373l3.517,4.134h31.399l5.147-4.373l-3.517-4.134H52.932z M97.715,15.927l-8.236,6.917H58.08l-5.662-6.758l1.973-1.749
	h42.037L97.715,15.927z"/>
<path fill="#FF1E00" d="M161.289,23.958l8.236-6.917l1.287,1.59l-5.92,33.79l-5.233,4.373l-3.432-4.293L161.289,23.958z
	 M149.278,91.616l5.748,6.917l1.973-1.67l6.091-33.949l-3.517-4.214l-5.147,4.293L149.278,91.616z M120.195,18.631l1.973-1.749
	l5.748,6.917l-5.062,28.622l-5.233,4.373L114.19,52.5L120.195,18.631z M115.992,91.457l-8.322,6.917l-1.201-1.511l5.92-33.869
	l5.147-4.293l3.517,4.214L115.992,91.457z M116.935,92.57l-8.322,6.917l1.287,1.59h42.037l2.059-1.749l-5.748-6.758H116.935z
	 M123.799,53.454l-5.233,4.373l3.517,4.134h31.399l5.147-4.373l-3.517-4.134H123.799z M168.581,15.927l-8.236,6.917h-31.399
	l-5.662-6.758l1.973-1.749h42.037L168.581,15.927z"/>
<path fill="#FF1E00" d="M248.029,23.958l8.236-6.917l1.287,1.59l-5.92,33.79l-5.233,4.373l-3.432-4.293L248.029,23.958z
	 M236.018,91.616l5.748,6.917l1.973-1.67l6.091-33.949l-3.517-4.214l-5.147,4.293L236.018,91.616z M206.936,18.631l1.973-1.749
	l5.748,6.917l-5.062,28.622l-5.233,4.373L200.93,52.5L206.936,18.631z M202.732,91.457l-8.322,6.917l-1.201-1.511l5.92-33.869
	l5.147-4.293l3.517,4.214L202.732,91.457z M203.676,92.57l-8.322,6.917l1.287,1.59h42.037l2.059-1.749l-5.748-6.758H203.676z
	 M210.539,53.454l-5.233,4.373l3.517,4.134h31.399l5.147-4.373l-3.517-4.134H210.539z M255.321,15.927l-8.236,6.917h-31.399
	l-5.662-6.758l1.973-1.749h42.037L255.321,15.927z"/>
<path fill="#FF1E00" d="M318.895,23.958l8.236-6.917l1.287,1.59l-5.919,33.79l-5.233,4.373l-3.432-4.293L318.895,23.958z
	 M306.885,91.616l5.748,6.917l1.973-1.67l6.091-33.949l-3.517-4.214l-5.147,4.293L306.885,91.616z M277.802,18.631l1.973-1.749
	l5.748,6.917l-5.062,28.622l-5.233,4.373l-3.432-4.293L277.802,18.631z M273.598,91.457l-8.322,6.917l-1.201-1.511l5.919-33.869
	l5.147-4.293l3.517,4.214L273.598,91.457z M274.542,92.57l-8.322,6.917l1.287,1.59h42.037l2.059-1.749l-5.748-6.758H274.542z
	 M281.405,53.454l-5.233,4.373l3.517,4.134h31.399l5.147-4.373l-3.517-4.134H281.405z M326.187,15.927l-8.236,6.917h-31.399
	l-5.662-6.758l1.973-1.749H324.9L326.187,15.927z"/>
<path fill="#FF1E00" d="M28.993,38.119c0,2.348-1.904,4.252-4.252,4.252s-4.252-1.904-4.252-4.252s1.904-4.252,4.252-4.252
	S28.993,35.771,28.993,38.119z M17.415,76.337c-2.348,0-4.252,1.904-4.252,4.252s1.904,4.252,4.252,4.252s4.252-1.904,4.252-4.252
	S19.764,76.337,17.415,76.337z"/>
<circle fill="#FF1E00" cx="268.296" cy="18.869" r="4.252"/>
<path fill="#FF1E00" d="M189.797,38.119c0,2.348-1.904,4.252-4.252,4.252s-4.252-1.904-4.252-4.252s1.904-4.252,4.252-4.252
	S189.797,35.771,189.797,38.119z M178.219,76.337c-2.348,0-4.252,1.904-4.252,4.252s1.904,4.252,4.252,4.252
	s4.252-1.904,4.252-4.252S180.567,76.337,178.219,76.337z"/>
</svg>
