<?xml version="1.0" encoding="utf-8"?>
<!-- Generator: Adobe Illustrator 20.0.0, SVG Export Plug-In . SVG Version: 6.00 Build 0)  -->
<svg version="1.2" baseProfile="tiny" id="Layer_1" xmlns="http://www.w3.org/2000/svg" xmlns:xlink="http://www.w3.org/1999/xlink"
	 x="0px" y="0px" width="71.15px" height="59.953px" viewBox="0 0 71.15 59.953" xml:space="preserve">
<rect fill="#141414" width="71.15" height="59.953"/>
<path fill="#FF1E00" d="M26.012,28.505h-6.329l-1.565,1.42l1.287,1.387h6.329l1.53-1.42L26.012,28.505z M20.309,23.195l-0.417,4.768
	h0.73l6.086-9.604l0.383-4.362h-0.974L20.309,23.195z M29.281,28.099l-1.6,1.42l-1.252-1.386l1.252-14.305l1.982-1.758l0.939,0.981
	L29.281,28.099z M16.449,28.133l1.287,1.386l1.565-1.42l1.113-12.715l-1.287-1.387l-1.53,1.387L16.449,28.133z M9.354,28.099
	l-1.6,1.42l-1.252-1.386l1.321-15.116l1.113-0.981l1.669,1.758L9.354,28.099z M12.728,13.997h-1.565l-0.278,2.976l4.521,10.99h0.522
	l0.417-5.14L12.728,13.997z M9.459,31.311l-1.287-1.387l1.565-1.42h6.294l1.287,1.387l-1.565,1.42H9.459z M11.024,13.422
	l-1.669-1.758l1.113-1.014h17.874l0.939,1.014l-1.982,1.758H11.024z M7.094,49.2l-0.939-1.015l1.982-1.792h16.275l1.669,1.792
	L24.968,49.2H7.094z M14.814,31.886L8.729,41.49 M14.814,31.886h0.73l-0.417,4.768L9.32,45.853H8.311l0.417-4.362 M24.551,42.843
	l-0.278,3.01h-1.565l-3.617-8.86l0.452-5.106h0.522L24.551,42.843z M4.834,46.766l0.939,1.014l1.982-1.792l1.287-14.305
	l-1.287-1.386l-1.565,1.42L4.834,46.766z M27.577,46.799l-1.078,1.015l-1.669-1.792l1.287-14.305l1.53-1.42l1.287,1.386
	L27.577,46.799z M15.023,44.432l1.287,1.42l1.565-1.42l1.113-12.749L17.7,30.297l-1.565,1.42L15.023,44.432z M31.185,47.797
	c0,0.783-0.635,1.417-1.417,1.417s-1.417-0.635-1.417-1.417s0.635-1.417,1.417-1.417S31.185,47.014,31.185,47.797z"/>
<path fill="#FF1E00" d="M62.012,28.505h-6.329l-1.565,1.42l1.287,1.387h6.329l1.53-1.42L62.012,28.505z M56.309,23.195l-0.417,4.768
	h0.73l6.086-9.604l0.383-4.362h-0.974L56.309,23.195z M65.281,28.099l-1.6,1.42l-1.252-1.386l1.252-14.305l1.982-1.758l0.939,0.981
	L65.281,28.099z M52.449,28.133l1.287,1.386l1.565-1.42l1.113-12.715l-1.287-1.387l-1.53,1.387L52.449,28.133z M45.354,28.099
	l-1.6,1.42l-1.252-1.386l1.321-15.116l1.113-0.981l1.669,1.758L45.354,28.099z M48.728,13.997h-1.565l-0.278,2.976l4.521,10.99
	h0.522l0.417-5.14L48.728,13.997z M45.459,31.311l-1.287-1.387l1.565-1.42h6.294l1.287,1.387l-1.565,1.42H45.459z M47.024,13.422
	l-1.669-1.758l1.113-1.014h17.874l0.939,1.014l-1.982,1.758H47.024z M43.094,49.2l-0.939-1.015l1.982-1.792h16.275l1.669,1.792
	L60.968,49.2H43.094z M50.814,31.886l-6.086,9.604 M50.814,31.886h0.73l-0.417,4.768l-5.807,9.198h-1.008l0.417-4.362
	 M60.551,42.843l-0.278,3.01h-1.565l-3.617-8.86l0.452-5.106h0.522L60.551,42.843z M40.834,46.766l0.939,1.014l1.982-1.792
	l1.287-14.305l-1.287-1.386l-1.565,1.42L40.834,46.766z M63.577,46.799l-1.078,1.015l-1.669-1.792l1.287-14.305l1.53-1.42
	l1.287,1.386L63.577,46.799z M51.023,44.432l1.287,1.42l1.565-1.42l1.113-12.749L53.7,30.297l-1.565,1.42L51.023,44.432z
	 M67.185,47.797c0,0.783-0.635,1.417-1.417,1.417c-0.783,0-1.417-0.635-1.417-1.417s0.635-1.417,1.417-1.417
	C66.55,46.38,67.185,47.014,67.185,47.797z"/>
</svg>
