<svg xmlns="http://www.w3.org/2000/svg" xmlns:xlink="http://www.w3.org/1999/xlink" viewBox="0 0 3323.126 2099.959" width="320" height="202"><style><![CDATA[.B{fill:#fff}.C{font-family:OCRA}.D{fill:#a80}.E{fill:none}.F{fill:#9a916c}.G{fill:#fd5}.H{fill:#ffd42a}.I{stroke:#9a916c}.J{stroke-width:11.268}.K{fill:#d4aa00}.L{font-size:52.083px}.M{font-size:46.4px}.N{fill:#c1c0bf}.O{fill:#ccc}.P{opacity:.25}.Q{opacity:.1}.R{fill:#999}.S{fill:#1f1f1f}.T{stroke:#000}.U{fill:#666}.V{fill:#020202}.W{fill:#fc0}.X{opacity:.5}.Y{fill:#8c8c8c}.Z{fill:#303030}.a{fill:#be944a}.b{fill:#8c8663}.c{fill:#b8af82}.d{fill:#80795b}.e{fill:#5e5b43}.f{fill:#ededed}.g{fill:#fefefe}.h{fill:#f3f3f3}.i{fill:#ebebeb}.j{fill:#cfcfcf}.k{font-size:41.667px}.l{fill:#b4b4b4}.m{fill:#b3b3b3}.n{fill:#c1c1c1}.o{fill:#ececec}.p{fill:#f6f6f6}.q{fill:#9b9b9b}.r{stroke-linejoin:round}.s{fill:#1a1a1a}.t{fill:#1e1e1e}.u{fill:#262626}.v{fill:#6d6d6d}.w{font-family:Droid Sans}.x{font-size:1.411px}.y{fill:#ffe500}.z{text-anchor:end}.AA{stroke-width:.75}.AB{fill:#dedede}.AC{fill:#b9b9b9}.AD{fill:#c2c2c2}.AE{fill:#f0f0ed}.AF{fill:#f2f2f2}.AG{fill:#3d3d3d}.AH{stroke-width:.952}]]></style><path d="M3162.806 0l60.32 60v450l100 100v1289.987l-100 100.014v60.556c0 21.736-17.972 39.403-39.68 39.403H62.487c-21.736 0-39.36-17.653-39.36-39.36V39.402C23.126 17.666 40.75.04 62.487.04H3162.82m-602.71 700c-.055 34.792 28.097 63.042 62.875 63.097 34.806 0 63.042-28.097 63.125-62.89v-.222c.056-34.792-28.097-63.042-62.89-63.097-34.792 0-63.042 28.083-63.11 62.875zm0 1100c-.055 34.792 28.097 63.042 62.875 63.097 34.806 0 63.042-28.07 63.125-62.875v-.222c.056-34.792-28.097-63.042-62.89-63.097-34.792-.14-63.042 28.07-63.11 62.875zm-1999.986-1700c-.056 34.778 28.097 63.042 62.89 63.097 34.778 0 63.042-28.083 63.097-62.875v-.222C686.167 65.25 658 37 623.21 36.958c-34.792 0-63.042 28.11-63.083 62.903zm1423.14 1900c-.014 9.222 7.444 16.736 16.694 16.764 9.222 0 16.736-7.458 16.764-16.708a16.75 16.75 0 0 0-16.68-16.792c-9.25 0-16.764 7.458-16.778 16.708zm100 0c-.028 9.222 7.458 16.736 16.68 16.764 9.25 0 16.764-7.458 16.764-16.708a16.73 16.73 0 0 0-16.68-16.792c-9.25 0-16.764 7.458-16.764 16.708zm100 0c0 9.222 7.458 16.736 16.708 16.764a16.75 16.75 0 0 0 .083-33.5c-9.25 0-16.764 7.458-16.792 16.708zm100.014 0c-.028 9.222 7.445 16.736 16.68 16.764 9.25 0 16.75-7.458 16.764-16.708a16.73 16.73 0 0 0-16.681-16.792 16.75 16.75 0 0 0-16.764 16.708zm99.986 0c-.028 9.222 7.458 16.736 16.695 16.764a16.77 16.77 0 0 0 16.778-16.708c.014-9.25-7.458-16.764-16.708-16.792-9.236 0-16.736 7.458-16.764 16.708zm100 0c-.014 9.222 7.445 16.736 16.695 16.764 9.222 0 16.736-7.458 16.764-16.708a16.75 16.75 0 0 0-16.68-16.792c-9.25 0-16.764 7.458-16.778 16.708zm-1.972-1100a18.71 18.71 0 0 0 18.68 18.736c10.333.014 18.778-8.347 18.778-18.667.028-10.333-8.39-18.708-18.722-18.722s-18.722 8.347-18.736 18.667zm100 0c-.014 10.333 8.36 18.722 18.667 18.736 10.333.014 18.722-8.347 18.75-18.667 0-10.333-8.36-18.708-18.667-18.722-10.333-.014-18.736 8.347-18.75 18.667zm-100 100a18.72 18.72 0 0 0 18.68 18.736c10.333 0 18.778-8.347 18.778-18.68.028-10.333-8.39-18.708-18.722-18.736-10.333 0-18.722 8.347-18.736 18.68zm100 0c-.014 10.333 8.36 18.708 18.667 18.736 10.333 0 18.722-8.347 18.75-18.68 0-10.333-8.36-18.708-18.667-18.736-10.333 0-18.736 8.347-18.75 18.68zm-100 100c-.014 10.333 8.347 18.722 18.68 18.75 10.333 0 18.778-8.36 18.778-18.694.028-10.306-8.39-18.722-18.722-18.722s-18.722 8.333-18.736 18.667zm100 0c-.014 10.333 8.36 18.722 18.667 18.75 10.333 0 18.722-8.36 18.75-18.694 0-10.306-8.36-18.722-18.667-18.722-10.333 0-18.736 8.333-18.75 18.667zm-896.46-1000c-.014 9.236 7.444 16.75 16.694 16.764 9.222 0 16.736-7.458 16.764-16.694a16.74 16.74 0 0 0-16.695-16.778c-9.236 0-16.75 7.458-16.764 16.694zm-100 0c-.028 9.236 7.458 16.75 16.694 16.764 9.236 0 16.75-7.458 16.778-16.694a16.74 16.74 0 0 0-16.681-16.792c-9.25 0-16.764 7.444-16.792 16.68zm-99.986 0c-.042 9.236 7.43 16.764 16.653 16.778 9.25 0 16.764-7.43 16.792-16.68V100c.028-9.25-7.43-16.764-16.653-16.792-9.25 0-16.764 7.444-16.792 16.68zm-100.014 0c-.028 9.236 7.43 16.764 16.68 16.778 9.25 0 16.764-7.43 16.792-16.68V100a16.73 16.73 0 0 0-16.681-16.792c-9.222 0-16.764 7.444-16.792 16.68zm-100 0c-.028 9.236 7.444 16.764 16.694 16.778 9.222 0 16.736-7.43 16.792-16.68V100a16.75 16.75 0 0 0-16.681-16.792c-9.25 0-16.764 7.444-16.778 16.68-.028 0-.028.14-.028.14zm-100 0c-.028 9.236 7.43 16.764 16.68 16.778 9.25 0 16.764-7.43 16.778-16.68V100a16.73 16.73 0 0 0-16.681-16.792c-9.236 0-16.764 7.444-16.778 16.68zm-100.014 0c-.028 9.236 7.445 16.764 16.68 16.778 9.25 0 16.764-7.43 16.792-16.68V100a16.74 16.74 0 0 0-16.681-16.792c-9.25 0-16.764 7.444-16.792 16.68zm-99.986 0a16.72 16.72 0 0 0 16.681 16.778c9.236 0 16.764-7.43 16.778-16.68V100a16.73 16.73 0 0 0-16.681-16.792c-9.236 0-16.764 7.444-16.778 16.68zm-100 0c-.028 9.236 7.444 16.764 16.68 16.778 9.25 0 16.764-7.43 16.792-16.68V100a16.74 16.74 0 0 0-16.681-16.792c-9.236 0-16.75 7.444-16.778 16.68-.014 0-.014.14-.014.14zm-100 0a16.72 16.72 0 0 0 16.681 16.778c9.25 0 16.764-7.43 16.792-16.68V100a16.74 16.74 0 0 0-16.681-16.792c-9.25 0-16.764 7.444-16.792 16.68zm1796.875 0c-.014 9.236 7.445 16.75 16.695 16.764 9.222 0 16.736-7.458 16.764-16.694.028-9.25-7.458-16.75-16.68-16.778-9.25-.014-16.764 7.458-16.778 16.694zm-100 0c-.028 9.236 7.458 16.75 16.695 16.764 9.236 0 16.75-7.458 16.778-16.694a16.75 16.75 0 0 0-16.708-16.778c-9.236-.014-16.736 7.458-16.764 16.694zm-99.986 0c-.028 9.236 7.445 16.75 16.68 16.764 9.25 0 16.75-7.458 16.764-16.694a16.72 16.72 0 0 0-16.681-16.778c-9.25-.014-16.736 7.458-16.764 16.694zm-100.014 0c0 9.236 7.458 16.75 16.708 16.764 9.25 0 16.736-7.458 16.764-16.694.028-9.25-7.458-16.75-16.68-16.778-9.25 0-16.764 7.458-16.792 16.694zm-100 0c-.028 9.236 7.458 16.75 16.68 16.764 9.25 0 16.764-7.458 16.764-16.694a16.72 16.72 0 0 0-16.68-16.778c-9.25 0-16.764 7.458-16.764 16.694zm-100 0c-.014 9.236 7.444 16.75 16.694 16.764 9.222 0 16.736-7.458 16.764-16.694.028-9.25-7.458-16.75-16.68-16.778-9.25-.014-16.764 7.458-16.778 16.694zm-100 0c-.028 9.236 7.458 16.75 16.694 16.764 9.236 0 16.75-7.458 16.778-16.694a16.75 16.75 0 0 0-16.708-16.778c-9.236-.014-16.736 7.458-16.764 16.694zm-99.986 0c-.028 9.236 7.445 16.75 16.68 16.764 9.25 0 16.75-7.458 16.764-16.694a16.72 16.72 0 0 0-16.681-16.778c-9.25-.014-16.736 7.458-16.764 16.694zm-698.458 1900c-.028 9.222 7.43 16.736 16.68 16.764 9.25 0 16.764-7.43 16.778-16.653v-.14c.028-9.25-7.43-16.764-16.667-16.792-9.25 0-16.764 7.43-16.792 16.68zm-99.986 0c-.028 9.222 7.43 16.736 16.68 16.764 9.25 0 16.764-7.43 16.778-16.653v-.14c.028-9.25-7.43-16.764-16.667-16.792-9.25 0-16.764 7.43-16.792 16.68zm200 0c-.028 9.222 7.43 16.736 16.667 16.764 9.236 0 16.75-7.43 16.778-16.653v-.14c.042-9.25-7.43-16.764-16.653-16.792-9.25 0-16.764 7.43-16.792 16.68zm99.986 0c-.028 9.222 7.43 16.736 16.68 16.764 9.236 0 16.75-7.43 16.792-16.653v-.14a16.74 16.74 0 0 0-16.68-16.792c-9.25 0-16.764 7.43-16.792 16.68zm100 0c-.042 9.222 7.417 16.736 16.667 16.764 9.25 0 16.764-7.43 16.792-16.653v-.14a16.73 16.73 0 0 0-16.68-16.792c-9.222 0-16.75 7.43-16.778 16.68zm100 0c-.028 9.222 7.458 16.736 16.68 16.764 9.25 0 16.764-7.458 16.764-16.708a16.73 16.73 0 0 0-16.681-16.792c-9.25 0-16.764 7.458-16.764 16.708zm100 0c0 9.222 7.458 16.736 16.708 16.764a16.75 16.75 0 0 0 .083-33.5c-9.25 0-16.764 7.458-16.792 16.708zm100.014 0c-.028 9.222 7.445 16.736 16.68 16.764 9.25 0 16.75-7.458 16.764-16.708a16.73 16.73 0 0 0-16.681-16.792 16.75 16.75 0 0 0-16.764 16.708z" fill="green"/><text y="1201.925" x="-274.178" transform="matrix(0 -1 1 0 20.833 -.002)" class="B C L">D13</text><text y="1301.935" x="-274.178" transform="matrix(0 -1 1 0 20.833 -.002)" class="B C L">D12</text><text y="1401.924" x="-274.178" transform="matrix(0 -1 1 0 20.833 -.002)" class="B C L">D11</text><text y="1501.913" x="-274.178" transform="matrix(0 -1 1 0 20.833 -.002)" class="B C L">D10</text><text y="1601.929" x="-236.54" transform="matrix(0 -1 1 0 20.833 -.002)" class="B C L">D9</text><text y="1701.918" x="-236.54" transform="matrix(0 -1 1 0 20.833 -.002)" class="B C L">D8</text><text y="1898.786" x="-236.54" transform="matrix(0 -1 1 0 20.833 -.002)" class="B C L">D7</text><text y="1998.802" x="-236.54" transform="matrix(0 -1 1 0 20.833 -.002)" class="B C L">D6</text><text y="2098.792" x="-236.54" transform="matrix(0 -1 1 0 20.833 -.002)" class="B C L">D5</text><text y="2198.782" x="-235.238" transform="matrix(0 -1 1 0 20.833 -.002)" class="B C L">D4</text><text y="2298.798" x="-236.54" transform="matrix(0 -1 1 0 20.833 -.002)" class="B C L">D3</text><text y="2398.787" x="-236.54" transform="matrix(0 -1 1 0 20.833 -.002)" class="B C L">D2</text><text y="1498.499" x="-1930.512" transform="matrix(0 -1 1 0 20.833 -.002)" class="B C M">5V</text><text y="1996.492" x="-1930.512" transform="matrix(0 -1 1 0 20.833 -.002)" class="B C M">A0</text><text y="998.095" x="-236.54" transform="matrix(0 -1 1 0 20.833 -.002)" class="B C L">NC</text><text y="1102.655" x="-274.178" transform="matrix(0 -1 1 0 20.833 -.002)" class="B C L">GND</text><text y="1297.277" x="-1925.005" transform="matrix(0 -1 1 0 20.833 -.002)" class="B C M">RST</text><text y="1397.079" x="-1929.997" transform="matrix(0 -1 1 0 20.833 -.002)" class="B C M">3V3</text><text y="2096.481" x="-1930.512" transform="matrix(0 -1 1 0 20.833 -.002)" class="B C M">A1</text><text y="2196.525" x="-1930.512" transform="matrix(0 -1 1 0 20.833 -.002)" class="B C M">A2</text><text y="2296.487" x="-1930.512" transform="matrix(0 -1 1 0 20.833 -.002)" class="B C M">NC</text><text y="2396.503" x="-1930.512" transform="matrix(0 -1 1 0 20.833 -.002)" class="B C M">SDA</text><text y="2496.492" x="-1930.512" transform="matrix(0 -1 1 0 20.833 -.002)" class="B C M">SCL</text><text y="1798.522" x="-1930.512" transform="matrix(0 -1 1 0 20.833 -.002)" class="B C M">NC</text><text y="1598.462" x="-1930.512" transform="matrix(0 -1 1 0 20.833 -.002)" class="B C M">GND</text><text y="1695.63" x="-1929.997" transform="matrix(0 -1 1 0 20.833 -.002)" class="B C M">GND</text><use xlink:href="#B" class="B"/><text y="1196.881" x="-1925.005" transform="matrix(0 -1 1 0 20.833 -.002)" class="B C M">IOREF</text><circle cx="2000.001" cy="2000.002" r="22.361" class="E I J"/><use xlink:href="#C" class="F"/><circle cx="2100.001" cy="2000.002" r="22.361" class="E I J"/><use xlink:href="#D" class="F"/><circle cx="2200.001" cy="2000.002" r="22.361" class="E I J"/><use xlink:href="#E" class="F"/><circle cx="2300.015" cy="2000.002" r="22.361" class="E I J"/><use xlink:href="#F" class="F"/><circle cx="2400.001" cy="2000.002" r="22.361" class="E I J"/><use xlink:href="#G" class="F"/><circle cx="2500.001" cy="2000.002" r="22.361" class="E I J"/><use xlink:href="#C" x="500" class="F"/><g class="E I"><g stroke-width="11.811"><circle cx="2498.826" cy="902.605" r="24.611"/><circle cx="2598.812" cy="902.605" r="24.611"/><circle cx="2498.826" cy="1002.604" r="24.597"/><circle cx="2598.812" cy="1002.604" r="24.597"/><circle cx="2498.826" cy="1102.605" r="24.597"/><circle cx="2598.812" cy="1102.605" r="24.597"/></g><circle cx="1700.829" cy="100.001" r="22.361" class="J"/></g><path d="M1678.468 48.555h44.75v102.89h-44.75V48.555m0 51.444c0 12.347 10.028 22.36 22.36 22.36 12.36 0 22.347-10.014 22.347-22.36 0-12.36-10.056-22.36-22.347-22.36-12.333 0-22.36 10.014-22.36 22.36z" class="F"/><circle cx="1600.843" cy="100.001" r="22.361" class="E I J"/><use xlink:href="#H" class="F"/><circle cx="1500.843" cy="100.001" r="22.361" class="E I J"/><path d="M1478.482 48.555h44.792v102.89h-44.792V48.555m0 51.444c0 12.347 10.07 22.36 22.347 22.36 12.375 0 22.375-10.014 22.375-22.36 0-12.36-10.014-22.36-22.375-22.36-12.347 0-22.347 10.014-22.347 22.36z" class="F"/><circle cx="1400.843" cy="100.001" r="22.361" class="E I J"/><path d="M1378.454 48.555h44.736v102.89h-44.736V48.555m0 51.444c0 12.347 10.028 22.36 22.375 22.36s22.292-10.014 22.292-22.36c0-12.36-10.07-22.36-22.292-22.36-12.347 0-22.375 10.014-22.375 22.36z" class="F"/><circle cx="1300.843" cy="100.001" r="22.361" class="E I J"/><path d="M1278.468 48.555h44.736v102.89h-44.736V48.555m0 51.444c0 12.347 10.014 22.36 22.347 22.36 12.36 0 22.32-10.014 22.32-22.36 0-12.36-10.014-22.36-22.32-22.36-12.333 0-22.347 10.014-22.347 22.36z" class="F"/><circle cx="1200.843" cy="100.001" r="22.361" class="E I J"/><path d="M1178.468 48.555h44.736v102.89h-44.736V48.555m0 51.444c0 12.347 10.014 22.36 22.36 22.36s22.36-10.014 22.36-22.36a22.36 22.36 0 0 0-22.361-22.361c-12.347 0-22.36 10.014-22.36 22.36z" class="F"/><circle cx="1100.843" cy="100.001" r="22.361" class="E I J"/><path d="M1078.468 48.555h44.736v102.89h-44.736V48.555m0 51.444c0 12.347 10.014 22.36 22.36 22.36a22.36 22.36 0 1 0 0-44.722c-12.347 0-22.36 10.014-22.36 22.36z" class="F"/><circle cx="1000.843" cy="100.001" r="22.361" class="E I J"/><path d="M978.482 48.555h44.736v102.89h-44.736V48.555m0 51.444c0 12.347 10.014 22.36 22.36 22.36s22.36-10.014 22.36-22.36a22.36 22.36 0 1 0-44.722 0z" class="F"/><circle cx="900.843" cy="100.001" r="22.361" class="E I J"/><path d="M878.468 48.555h44.736v102.89h-44.736V48.555m0 51.444c0 12.347 10.014 22.36 22.36 22.36S923.2 112.347 923.2 100a22.36 22.36 0 0 0-22.361-22.361c-12.347 0-22.36 10.014-22.36 22.36z" class="F"/><circle cx="800.829" cy="100.001" r="22.361" class="E I J"/><path d="M778.468 48.555h44.736v102.89h-44.736V48.555m0 51.444c0 12.347 10.014 22.36 22.36 22.36 12.36 0 22.375-10.014 22.375-22.36 0-12.36-10.014-22.36-22.375-22.36-12.347 0-22.36 10.014-22.36 22.36z" class="F"/><circle cx="2597.718" cy="100.001" r="22.361" class="E I J"/><use xlink:href="#I" class="F"/><circle cx="2497.718" cy="100.001" r="22.361" class="E I J"/><use xlink:href="#H" x="896.875" class="F"/><circle cx="2397.731" cy="100.001" r="22.361" class="E I J"/><use xlink:href="#J" class="F"/><circle cx="2297.718" cy="100.001" r="22.361" class="E I J"/><path d="M2275.33 48.555h44.75v102.89h-44.75V48.555m0 51.444c0 12.347 10.028 22.36 22.375 22.36s22.305-10.014 22.305-22.36c0-12.36-10.083-22.36-22.305-22.36-12.347 0-22.375 10.014-22.375 22.36z" class="F"/><circle cx="2197.718" cy="100.001" r="22.361" class="E I J"/><path d="M2175.343 48.555h44.736v102.89h-44.736V48.555m0 51.444c0 12.347 10.014 22.36 22.347 22.36 12.36 0 22.333-10.014 22.333-22.36 0-12.36-10.028-22.36-22.333-22.36-12.333 0-22.347 10.014-22.347 22.36z" class="F"/><circle cx="2097.718" cy="100.001" r="22.361" class="E I J"/><use xlink:href="#I" x="-500" class="F"/><circle cx="1997.718" cy="100.001" r="22.361" class="E I J"/><use xlink:href="#H" x="396.875" class="F"/><circle cx="1897.731" cy="100.001" r="22.361" class="E I J"/><use xlink:href="#J" x="-500" class="F"/><g class="E I J"><circle cx="1200.001" cy="2000.002" r="22.361"/><circle cx="1100.001" cy="2000.002" r="22.361"/></g><path d="M1177.626 1948.542h44.736v102.9h-44.736v-102.9m0 51.458c0 12.347 10.014 22.292 22.36 22.292 12.36 0 22.375-10.014 22.375-22.292 0-12.417-10.014-22.375-22.375-22.375-12.347 0-22.36 10.028-22.36 22.375zm-99.986-51.458h44.736v102.9h-44.736v-102.9m0 51.458c0 12.347 10.014 22.292 22.36 22.292 12.36 0 22.375-10.014 22.375-22.292 0-12.417-10.014-22.375-22.375-22.375s-22.36 10.028-22.36 22.375z" class="F"/><circle cx="1300.015" cy="2000.002" r="22.361" class="E I J"/><use xlink:href="#F" x="-1000" class="F"/><circle cx="1400.001" cy="2000.002" r="22.361" class="E I J"/><use xlink:href="#G" x="-1000" class="F"/><circle cx="1500.001" cy="2000.002" r="22.361" class="E I J"/><use xlink:href="#C" x="-500" class="F"/><circle cx="1600.001" cy="2000.002" r="22.361" class="E I J"/><use xlink:href="#D" x="-500" class="F"/><circle cx="1700.001" cy="2000.002" r="22.361" class="E I J"/><use xlink:href="#E" x="-499.999" class="F"/><circle cx="1800.015" cy="2000.002" r="22.361" class="E I J"/><use xlink:href="#F" x="-500" class="F"/><text y="2601.262" x="-387.094" transform="matrix(0 -1 1 0 20.833 -.002)" class="B C L">RX0 D0</text><text y="2501.273" x="-387.094" transform="matrix(0 -1 1 0 20.833 -.002)" class="B C L">TX0 D1</text><path d="M1950.03 1950h599.986v99.986H1950.03z" class="W"/><use xlink:href="#K"/><path d="M2033.57 1966.445h-67.11l14.222 14.236h38.68z" class="D"/><path d="M2033.57 2033.57v-67.125l-14.208 14.292v38.625z" class="H"/><path d="M1966.46 2033.57h67.11l-14.236-14.208h-38.653z" class="G"/><use xlink:href="#L" class="K"/><use xlink:href="#K" x="100.013"/><path d="M2133.557 1966.445h-67.11l14.25 14.236h38.625z" class="D"/><path d="M2133.557 2033.57v-67.125l-14.236 14.292v38.625z" class="H"/><path d="M2066.446 2033.57h67.11l-14.236-14.208h-38.625z" class="G"/><path d="M2066.418 1966.445v67.125l14.278-14.236v-38.653z" class="K"/><path d="M2180.7 1980.68h38.625v38.653H2180.7z"/><path d="M2233.585 1966.445h-67.11l14.208 14.236h38.653z" class="D"/><path d="M2233.585 2033.57v-67.125l-14.25 14.292v38.625z" class="H"/><path d="M2166.473 2033.57h67.11l-14.25-14.208h-38.653z" class="G"/><use xlink:href="#M" class="K"/><use xlink:href="#K" x="300.014"/><path d="M2333.598 1966.445h-67.11l14.208 14.236h38.653z" class="D"/><path d="M2333.598 2033.57v-67.125l-14.25 14.292v38.625z" class="H"/><path d="M2266.487 2033.57h67.083l-14.25-14.208h-38.625z" class="G"/><path d="M2266.432 1966.445v67.125l14.264-14.236v-38.653z" class="K"/><path d="M2380.71 1980.68h38.597v38.653h-38.597z"/><path d="M2433.585 1966.445h-67.11l14.208 14.236h38.667z" class="D"/><path d="M2433.585 2033.57v-67.125l-14.236 14.292v38.625z" class="H"/><path d="M2366.473 2033.57h67.083l-14.208-14.208h-38.667z" class="G"/><use xlink:href="#M" x="200" class="K"/><use xlink:href="#K" x="500"/><path d="M2533.57 1966.445h-67.11l14.222 14.236h38.68z" class="D"/><path d="M2533.57 2033.57v-67.125l-14.208 14.292v38.625z" class="H"/><path d="M2466.46 2033.57h67.11l-14.236-14.208h-38.653z" class="G"/><use xlink:href="#L" x="500" class="K"/><g fill="#404040"><use xlink:href="#N"/><use xlink:href="#O"/><use xlink:href="#P"/></g><g class="W"><use xlink:href="#N"/><use xlink:href="#O"/><use xlink:href="#P"/></g><path d="M2515.35 1115.743h-31.917v-31.93h31.917zm99.955-.003h-31.903v-31.93h31.903zm-99.958-99.993h-31.93V983.83h31.93zm99.98-.014h-31.903v-31.917h31.903zm-100-99.968h-31.903v-31.917h31.903z" fill="#8d8c8c"/><path fill="#8d8455" d="M2615.306 915.768h-31.903V883.85h31.903z"/><path d="M2607.62 908.035h-16.458v-16.43h16.458z" class="b"/><path d="M2615.326 883.86h-31.917l7.75 7.764h16.39z" class="c"/><path d="M2615.326 915.764l-7.778-7.75v-16.39l7.778-7.764z" class="d"/><path d="M2583.41 915.764l7.75-7.75h16.39l7.778 7.75z" class="e"/><path d="M2583.41 915.764V883.86l7.75 7.764v16.39z" class="F"/><path d="M2507.605 908.018h-16.458v-16.43h16.458z" class="b"/><path d="M2515.312 883.86h-31.875l7.736 7.764h16.39z" class="c"/><path d="M2515.312 915.764l-7.75-7.75v-16.39l7.75-7.764z" class="d"/><path d="M2483.437 915.764l7.736-7.75h16.39l7.75 7.75z" class="e"/><path d="M2483.437 915.764V883.86l7.736 7.764v16.39z" class="F"/><path d="M2607.603 1007.997h-16.458v-16.444h16.458z" class="b"/><path d="M2615.326 983.833h-31.917l7.75 7.736h16.39z" class="c"/><path d="M2615.326 1015.736l-7.778-7.722V991.57l7.778-7.736z" class="d"/><path d="M2583.41 1015.736l7.75-7.722h16.39l7.778 7.722z" class="e"/><path d="M2583.41 1015.736v-31.903l7.75 7.736v16.444z" class="F"/><path d="M2507.586 1008.02h-16.458v-16.444h16.458z" class="b"/><path d="M2515.312 983.833h-31.875l7.736 7.736h16.39z" class="c"/><path d="M2515.312 1015.736l-7.75-7.722V991.57l7.75-7.736z" class="d"/><path d="M2483.437 1015.736l7.736-7.722h16.39l7.75 7.722z" class="e"/><path d="M2483.437 1015.736v-31.903l7.736 7.736v16.444z" class="F"/><path d="M2607.604 1108.037h-16.444v-16.458h16.444z" class="b"/><path d="M2615.326 1083.833h-31.917l7.75 7.736h16.39z" class="c"/><path d="M2615.326 1115.736l-7.778-7.708v-16.458l7.778-7.736z" class="d"/><path d="M2583.41 1115.736l7.75-7.708h16.39l7.778 7.708z" class="e"/><path d="M2583.41 1115.736v-31.903l7.75 7.736v16.458z" class="F"/><path d="M2507.58 1108.04h-16.444v-16.486h16.444z" class="b"/><path d="M2515.326 1083.833h-31.89l7.736 7.736h16.39z" class="c"/><path d="M2515.326 1115.736l-7.764-7.708v-16.458l7.764-7.736z" class="d"/><path d="M2483.437 1115.736l7.736-7.708h16.39l7.764 7.708z" class="e"/><path d="M2483.437 1115.736v-31.903l7.736 7.736v16.458z" class="F"/><path d="M2647.718 150h-800V50.014h800z" class="W"/><path d="M1917.01 119.334h-38.61v-38.64h38.61z"/><path d="M1917.01 80.694l14.278-14.236h-67.11l14.194 14.236z" class="D"/><path d="M1917.01 119.36l14.278 14.208v-67.11l-14.278 14.278z" class="H"/><path d="M1878.37 119.36l-14.194 14.208h67.097l-14.264-14.208z" class="G"/><path d="M1878.37 80.694l-14.222-14.236v67.11l14.222-14.236z" class="K"/><path d="M2017.023 119.334h-38.597v-38.64h38.597z"/><path d="M2017.05 80.694l14.236-14.236h-67.14l14.222 14.236z" class="D"/><path d="M2017.05 119.36l14.236 14.208v-67.11l-14.236 14.278z" class="H"/><path d="M1978.37 119.36l-14.222 14.208h67.11l-14.236-14.208z" class="G"/><use xlink:href="#Q" class="K"/><path d="M2117.05 119.334h-38.625v-38.64h38.625z"/><path d="M2117.05 80.694l14.222-14.236h-67.11l14.222 14.236z" class="D"/><path d="M2117.05 119.36l14.222 14.208v-67.11l-14.222 14.278z" class="H"/><path d="M2078.384 119.36l-14.222 14.208h67.07l-14.194-14.208z" class="G"/><use xlink:href="#Q" x="100.014" class="K"/><path d="M2217.05 119.334h-38.61v-38.64h38.61z"/><path d="M2217.05 80.694l14.194-14.236h-67.11l14.278 14.236z" class="D"/><path d="M2217.05 119.36l14.194 14.208v-67.11l-14.194 14.278z" class="H"/><path d="M2178.412 119.36l-14.278 14.208h67.11l-14.222-14.208z" class="G"/><path d="M2178.412 80.694l-14.306-14.236v67.11l14.306-14.236z" class="K"/><path d="M2317.037 119.334h-38.625v-38.64h38.625z"/><path d="M2317.037 80.694l14.25-14.236h-67.11l14.208 14.236z" class="D"/><path d="M2317.037 119.36l14.25 14.208v-67.11l-14.25 14.278z" class="H"/><path d="M2278.384 119.36l-14.208 14.208h67.083l-14.264-14.208z" class="G"/><path d="M2278.384 80.694l-14.236-14.236v67.11l14.236-14.236z" class="D"/><path d="M2417.01 119.334h-38.61v-38.64h38.61z"/><path d="M2417.01 80.694l14.278-14.236h-67.11l14.194 14.236z" class="D"/><path d="M2417.01 119.36l14.278 14.208v-67.11l-14.278 14.278z" class="H"/><path d="M2378.37 119.36l-14.194 14.208h67.097l-14.264-14.208z" class="G"/><path d="M2378.37 80.694l-14.222-14.236v67.11l14.222-14.236z" class="K"/><path d="M2517.023 119.334h-38.597v-38.64h38.597z"/><path d="M2517.05 80.694l14.236-14.236h-67.14l14.222 14.236z" class="D"/><path d="M2517.05 119.36l14.236 14.208v-67.11l-14.236 14.278z" class="H"/><path d="M2478.37 119.36l-14.222 14.208h67.11l-14.236-14.208z" class="G"/><use xlink:href="#Q" x="500" class="K"/><path d="M2617.05 119.334h-38.625v-38.64h38.625z"/><path d="M2617.05 80.694l14.222-14.236h-67.11l14.222 14.236z" class="D"/><path d="M2617.05 119.36l14.222 14.208v-67.11l-14.222 14.278z" class="H"/><path d="M2578.384 119.36l-14.222 14.208h67.07l-14.194-14.208z" class="G"/><use xlink:href="#Q" x="600.014" class="K"/><path d="M1050 1950h800.014v99.986H1050z" class="W"/><use xlink:href="#K" x="-900.016"/><path d="M1133.57 1966.445h-67.11l14.208 14.236h38.653z" class="D"/><path d="M1133.57 2033.57v-67.125l-14.25 14.292v38.625z" class="H"/><path d="M1066.458 2033.57h67.097l-14.25-14.208h-38.64z" class="G"/><use xlink:href="#M" x="-1100.016" class="K"/><use xlink:href="#K" x="-800.016"/><path d="M1233.583 1966.445h-67.14l14.222 14.236h38.667z" class="D"/><path d="M1233.583 2033.57v-67.125l-14.25 14.292v38.625z" class="H"/><path d="M1166.444 2033.57h67.11l-14.236-14.208h-38.653z" class="G"/><use xlink:href="#L" x="-800.015" class="K"/><use xlink:href="#R"/><path d="M1333.556 1966.445h-67.11l14.222 14.236h38.667z" class="D"/><path d="M1333.556 2033.57v-67.125l-14.222 14.292v38.625z" class="H"/><path d="M1266.444 2033.57h67.097l-14.236-14.208h-38.64z" class="G"/><use xlink:href="#L" x="-700.015" class="K"/><use xlink:href="#K" x="-600.016"/><path d="M1433.542 1966.445h-67.11l14.236 14.236h38.68z" class="D"/><path d="M1433.542 2033.57v-67.125l-14.194 14.292v38.625z" class="H"/><path d="M1366.43 2033.57h67.11l-14.222-14.208h-38.653z" class="G"/><path d="M1366.403 1966.445v67.125l14.264-14.236v-38.653z" class="K"/><use xlink:href="#R" x="200"/><path d="M1533.542 1966.445h-67.11l14.25 14.236h38.64z" class="D"/><path d="M1533.542 2033.57v-67.125l-14.222 14.292v38.625z" class="H"/><path d="M1466.43 2033.57h67.11l-14.236-14.208h-38.625z" class="G"/><path d="M1466.403 1966.445v67.125l14.278-14.236v-38.653z" class="K"/><use xlink:href="#R" x="299.986"/><path d="M1633.57 1966.445h-67.11l14.208 14.236h38.64z" class="D"/><path d="M1633.57 2033.57v-67.125l-14.264 14.292v38.625z" class="H"/><path d="M1566.458 2033.57h67.083l-14.236-14.208h-38.64z" class="G"/><use xlink:href="#M" x="-600.016" class="K"/><use xlink:href="#R" x="399.986"/><path d="M1733.583 1966.445h-67.14l14.222 14.236h38.64z" class="D"/><path d="M1733.583 2033.57v-67.125l-14.278 14.292v38.625z" class="H"/><path d="M1666.444 2033.57h67.11l-14.25-14.208h-38.64z" class="G"/><use xlink:href="#L" x="-300.015" class="K"/><use xlink:href="#R" x="500"/><path d="M1833.555 1966.445h-67.11l14.222 14.236h38.667z" class="D"/><path d="M1833.555 2033.57v-67.125l-14.222 14.292v38.625z" class="H"/><path d="M1766.444 2033.57h67.097l-14.236-14.208h-38.64z" class="G"/><use xlink:href="#L" x="-200.015" class="K"/><path d="M750 50.004h1000V150H750z" class="W"/><path d="M780.708 80.685h38.597v38.64h-38.597z"/><path d="M766.472 66.448l14.208 14.236h38.653l14.25-14.236z" class="D"/><path d="M833.583 66.448l-14.25 14.278v38.625l14.25 14.208z" class="H"/><path d="M833.583 133.56l-14.25-14.208H780.68l-14.208 14.208z" class="G"/><path d="M766.444 133.56l14.236-14.236v-38.64l-14.236-14.236z" class="K"/><path d="M880.722 80.685h38.625v38.64h-38.625z"/><path d="M866.458 66.448l14.208 14.236h38.653l14.25-14.236z" class="D"/><path d="M933.57 66.448l-14.25 14.278v38.625l14.25 14.208z" class="H"/><path d="M933.57 133.56l-14.278-14.208h-38.625l-14.208 14.208z" class="G"/><path d="M866.43 133.56l14.236-14.236v-38.64L866.43 66.448z" class="K"/><path d="M980.708 80.685h38.597v38.64h-38.597z"/><path d="M966.444 66.448l14.208 14.236h38.694l14.236-14.236z" class="D"/><path d="M1033.583 66.448l-14.236 14.278v38.625l14.236 14.208z" class="H"/><path d="M1033.555 133.56l-14.208-14.208h-38.694l-14.208 14.208z" class="G"/><path d="M966.444 133.56l14.208-14.236v-38.64l-14.208-14.236z" class="K"/><path d="M1080.722 80.685h38.625v38.64h-38.625z"/><path d="M1066.458 66.448l14.25 14.236h38.653l14.208-14.236z" class="D"/><path d="M1133.57 66.448l-14.208 14.278v38.625l14.208 14.208z" class="H"/><path d="M1133.57 133.56l-14.236-14.208h-38.625l-14.25 14.208z" class="G"/><path d="M1066.43 133.56l14.278-14.236v-38.64l-14.278-14.236z" class="K"/><path d="M1180.722 80.685h38.597v38.64h-38.597z"/><path d="M1166.444 66.448l14.25 14.236h38.653l14.208-14.236z" class="D"/><path d="M1233.555 66.448l-14.208 14.278v38.625l14.208 14.208z" class="H"/><path d="M1233.528 133.56l-14.208-14.208h-38.625l-14.25 14.208z" class="G"/><path d="M1166.417 133.56l14.278-14.236v-38.64l-14.278-14.236z" class="K"/><path d="M1280.736 80.685h38.597v38.64h-38.597z"/><path d="M1266.472 66.448l14.208 14.236h38.653l14.264-14.236z" class="D"/><path d="M1333.597 66.448l-14.264 14.278v38.625l14.264 14.208z" class="H"/><path d="M1333.597 133.56l-14.306-14.208h-38.61l-14.208 14.208z" class="G"/><path d="M1266.444 133.56l14.236-14.236v-38.64l-14.236-14.236z" class="K"/><path d="M1380.694 80.685h38.61v38.64h-38.61z"/><path d="M1366.5 66.448l14.167 14.236h38.64l14.292-14.236z" fill="#806600"/><path d="M1433.597 66.448l-14.292 14.278v38.625l14.292 14.208z" class="H"/><path d="M1433.57 133.56l-14.292-14.208h-38.61L1366.5 133.56z" class="G"/><path d="M1366.458 133.56l14.208-14.236v-38.64l-14.208-14.236z" class="K"/><path d="M1480.694 80.685h38.597v38.64h-38.597z"/><path d="M1466.444 66.448l14.194 14.236h38.722l14.194-14.236z" class="D"/><path d="M1533.555 66.448l-14.194 14.278v38.625l14.194 14.208z" class="H"/><path d="M1533.555 133.56l-14.194-14.208h-38.722l-14.194 14.208z" class="G"/><path d="M1466.416 133.56l14.222-14.236v-38.64l-14.222-14.236z" class="K"/><path d="M1580.708 80.685h38.61v38.64h-38.61z"/><path d="M1566.458 66.448l14.25 14.236h38.667l14.194-14.236z" class="D"/><path d="M1633.57 66.448l-14.194 14.278v38.625l14.194 14.208z" class="H"/><path d="M1633.528 133.56l-14.194-14.208h-38.625l-14.25 14.208z" class="G"/><path d="M1566.43 133.56l14.278-14.236v-38.64l-14.278-14.236z" class="K"/><path d="M1680.736 80.685h38.583v38.64h-38.583z"/><path d="M1666.43 66.448l14.264 14.236h38.625l14.222-14.236z" class="D"/><path d="M1733.54 66.448l-14.222 14.278v38.625l14.222 14.208z" class="H"/><path d="M1733.514 133.56l-14.194-14.208h-38.625l-14.264 14.208z" class="G"/><path d="M1666.403 133.56l14.292-14.236v-38.64l-14.292-14.236z" class="K"/><path d="M1357.47 293.24v81.88h38.9v318.558h-38.9v81.282h251.923V293.24z" class="B"/><path d="M1355 450.424h41.987V617.77H1355z" fill="#dbdbdb"/><g stroke-width="1.215" class="E T"><path d="M1609.393 369.74v-76.5m0 76.5h-27.168m.617-50.204l-.618 50.203m-158.07-50.203h158.687m-158.687 83.672h-27.168m0-28.688v28.687m212.406 295.25V369.74m-212.406 33.468v47.216M1357.47 293.24v81.282m39.517-.002h-39.517m39.517 75.904H1355m227.225 298.236h-158.07m158.07-50.204v50.205m27.168-50.205h-27.168m27.168 0v76.502m-212.406-81.282v-28.7m0 .001h27.168m-27.168 0V617.77m-39.517 157.188v-81.282m39.517 0h-39.517"/><path d="M1396.987 617.77H1355m2.47-324.53h251.923m-212.406 157.184V617.77m185.238-248.03v328.717"/></g><path d="M1490.476 409.482v-19.048h19.048v19.048zm19.048 80.952v19.048h-19.048v-19.048zm-19.048 100h19.048v19.048h-19.048z" class="r y AH T"/><path d="M1490.482 689.94h19.036v19.536h-19.036z" stroke-width=".964" class="T r y"/><path d="M1857.422 302.684v80.276h38.137v312.3h-38.137v79.69h246.983V302.684z" class="B"/><path d="M1855 456.788h41.164v164.067H1855z" fill="#dbdbdb"/><g stroke-width="1.191" class="E T"><path d="M2104.405 377.686v-75.002m0 75.002h-26.635m.605-49.22l-.606 49.22m-154.97-49.22h155.575M1922.8 410.5h-26.635m-.001-28.127V410.5m208.24 289.458v-322.27m-208.24 32.812v46.288m-38.742-154.104v79.7m38.742-.001h-38.742m38.742 74.415H1855m222.77 292.388H1922.8m154.97-49.218v49.22m26.635-49.22h-26.635m26.635 0v75m-208.24-79.688v-28.125m0 0h26.635m-26.635 0v-46.3m-38.742 154.113v-79.7m38.742.002h-38.742"/><path d="M1896.164 620.855H1855m2.422-318.17h246.983m-208.24 154.104v164.067m181.606-243.17v322.27"/></g><path d="M1990.477 409.482v-19.048h19.048v19.048zm19.047 80.952v19.048h-19.048v-19.048zm-19.047 100h19.048v19.048h-19.048zm0 100h19.048v19.048h-19.048z" class="r y AH T"/><text y="-326.459" x="1759.763" font-size="83.668" transform="matrix(0 1 -1 0 20.833 -.002)" class="B C">+</text><text y="-330.262" font-size="78.125" x="1983.752" transform="matrix(0 1 -1 0 20.833 -.002)" class="B C">-</text><g transform="matrix(0 -1.337063 1.337063 0 2809.0392 1170.8614)" class="B"><path d="M0 71.817L3.516 65.4c1.838-3.516 3.458-4.4 6.8-.978l44.37 44.686c3.467 3.568 5.425 3.943 8.758.023 3.978-4.678 8.495-8.943 13.077-13.054 8.566-7.687 20.82-8.282 29.454-1.87 2.193 1.63 2.77 2.75.527 4.968l-44.9 44.866c-1.687 1.7-2.77 2.3-4.78.27L5.998 93.374c-2.766-2.756-3.45-6.72-5.998-9.557v-12zm79.697 83.996c-6.37.05-10.82-1.545-15-4.186-2.816-1.775-2.968-3.1-.453-5.585l46.06-45.794c2.706-2.66 3.145-4.238.102-6.963-4.83-4.325-9.388-8.988-13.77-13.775-7.823-8.548-8.544-20.5-2.263-29.438 1.924-2.742 3.2-2.9 5.654-.433l44.168 44.155c2.468 2.43 2.043 3.718-.168 5.906l-49.16 49.054c-4.58 4.584-10.113 6.854-15.16 7.06zM77.96 0c4.536.254 8.916 1.44 13 4 3.128 1.97 3.052 3.337.457 5.894l-45.3 45.092c-3.08 3.025-3.87 4.906-.172 8.086 4.78 4.113 9.136 8.753 13.434 13.4 7.516 8.108 8.305 20.18 2.206 29.005-1.647 2.383-2.836 3.618-5.585.82l-44.5-44.5c-2.314-2.28-1.85-3.486.182-5.502l49.468-49.4C65.75 2.276 71.36.203 77.96 0zm78.038 78.98l-.976 5.097c-1.014 3.73-2.217 8.285-5.714 9.445-2.727.905-4.757-3.48-6.933-5.63l-42-42.035c-3.017-3.096-4.586-2.857-7.3.146-4.335 4.816-8.98 9.384-13.77 13.755-8.5 7.757-21.253 8.44-29.857 2.03-2.2-1.633-2.687-2.65-.453-4.855l45.2-45.18c1.975-1.996 3.112-2.076 5.13-.04L149.06 61.55c4.56 4.573 6.7 10.217 6.93 17.432zm187.56 9.947c-4.787 0-8.597.187-12.37-.105-1.262-.098-2.757-1.165-3.582-2.227-3.04-3.9-5.82-8.02-8.752-12.013-.776-1.057-1.75-1.97-2.633-2.95l-1.215.34v16.7H302.67v-58.77h11.96v34.1c2.154-1.626 3.595-2.3 4.455-3.44 2.573-3.374 5.142-6.8 7.284-10.44 1.8-3.068 4-4.404 7.562-4.003 2.467.278 5 .054 8.782.054l-14.58 21.364 15.424 21.38zm-50.732-.21h-12.473l.007-25.126c.008-3.196.052-7.07-3.625-7.667-3.17-.516-6.734.697-9.955 1.695-.8.248-1.3 2.613-1.324 4.015l-.07 22.5c-.004 1.522-.132 3.044-.208 4.675h-11.745v-42.05c7.566-1.518 8.955-1.072 11.298 3.8 4.643-3.528 9.727-5.7 15.698-5.037 6.345.695 10.86 4.113 11.548 10.455.836 7.695.64 15.505.837 23.266.08 3.077.013 6.157.013 9.484zm-71.13-.016H186V31.66h12.13v46.364h23.577V88.7zm177.752-32.8H389.1c0 6.868-.16 13.34.075 19.8.1 2.776 2.16 4.177 4.967 4.162 1.543-.008 3.084-.142 4.677-.22.165.18.457.35.515.58 1.902 7.6.98 8.903-6.685 9.476-10.785.807-15.86-3.702-16.154-14.6-.168-6.205-.03-12.417-.03-18.9l-4.87-.694v-9.017c9.027.374 4.218-7.535 7.282-11.212h10.002v10.887h11.144l-.575 9.742zm-48.32-24.27h12.06v57.016h-12.06V31.64zM243 88.808h-11.7V46.454H243v42.354zm-5.7-60.088c4.476.066 6.782 2.288 6.65 6.407-.127 3.925-2.797 6.195-7.13 6.064-4.358-.132-6.76-2.488-6.66-6.534.097-3.94 2.58-6.004 7.142-5.937zm-2.324 103.032h-4.63l2.2-26.73.44-.163c4.58-.403 4.582-.403 6.427 3.765l4.682 10.586 1.042 2.074 3.297-7.377 3.213-7.306c.575-1.5 1.43-2.053 2.983-1.847.9.12 1.85.022 3.015.022l2.223 26.906h-4.6l-1.596-19.262-.372-.107-1.95 4.234-4.063 8.895c-.47 1.1-1.2 1.207-2.2 1.207s-1.72-.113-2.198-1.203c-1.686-3.837-3.483-7.625-5.244-11.428-.262-.565-.558-1.114-1.096-2.18l-1.596 19.914zm60.592-19.932v-7.748h4.43v27.678h-3.42l-.63-1.877c-1.394.686-2.66 1.558-4.062 1.955-5.065 1.437-9.188-1.628-9.9-7.226-.075-.593-.08-1.195-.105-1.794-.334-8.272 4.527-12.528 12.724-11.143l.963.155zm.054 9.4c0-1.53.046-3.063-.028-4.6-.022-.447-.263-1.07-.608-1.284-2.05-1.274-6.378-.325-7.537 1.777-1.726 3.128-1.686 6.4.026 9.53.968 1.77 2.874 2.273 5.08 1.652 2.343-.66 3.066-1.574 3.07-3.9l-.002-3.194zm87.786 10.394c-3.222.618-5.774.402-7.548-2.583-1.008-1.696-2.467-3.134-3.788-4.63-.418-.474-1.048-.762-2.04-1.455v8.76h-4.328V104.02h4.158v16.457c1.042-.6 1.777-.845 2.222-1.34 1.378-1.533 2.855-3.04 3.908-4.788 1.578-2.62 3.74-3.092 6.76-2.37l-1.158 1.762-5.502 6.848c-.705.836-.668 1.385.024 2.2l7.3 8.834zM324.25 120.38c.33-4.33-.808-5.612-4.88-5.404-1.768.1-3.52.517-5.514.827l-.682-3.058c3.942-1.403 7.826-1.884 11.793-.778 2.12.6 3.563 2.167 3.64 4.303.183 5.1.06 10.213.06 15.447h-3.245l-.602-1.878c-2.6 1.818-5.25 2.857-8.32 2.16-2.763-.628-4.36-2.32-4.542-4.83-.204-2.82 1.065-4.98 3.735-5.916 1.36-.477 2.84-.695 4.283-.84 1.372-.138 2.768-.03 4.278-.03zm-.056 2.96c-2.002.13-3.916.125-5.784.418-1.406.22-2.174 1.306-2.044 2.765.132 1.484 1.112 2.15 2.55 2.315 3.674.42 5.673-1.444 5.28-5.498zm-57.678-.34c-.157 5.173 2.875 6.435 11.5 4.87l.67 3c-4.06 1.45-8.028 2.036-12.093.376-.245-.1-.483-.226-.712-.36-4.156-2.438-5.47-9.942-2.66-15.183 2.14-3.993 7.85-5.577 12.277-3.406 3.14 1.54 5.118 6.415 3.874 9.823-.146.4-1.007.747-1.545.76-3.064.073-6.13.03-9.195.04-.714.003-1.428.06-2.128.1zm-.04-3.26h8.548c.312-3.05-.96-4.82-3.516-5.045-2.923-.26-4.7 1.433-5.032 5.045zm94.85 3.106h-12.714c-.524 5.008 2.118 6.13 11.442 5.074l.64 2.892c-4.345 1.57-8.7 2.4-12.86-.052-4.15-2.43-4.228-6.663-3.854-10.805.324-3.586 1.833-6.64 5.462-7.912 3.272-1.147 6.63-1.152 9.473 1.176 3.028 2.48 2.826 5.924 2.412 9.627zm-4.3-3.117c.314-3.134-1.044-4.922-3.722-5.053-2.96-.145-4.817 1.82-4.704 5.053h8.426zM334.05 108.8c-2.256 0-4.177.002-6.098-.001-2.747-.004-2.75-.006-2.584-2.808.02-.323.112-.64.2-1.078h21.692v3.845h-8.568v22.975h-4.634l.001-22.933zm-25.794 3.07v19.847h-4.15V111.86h4.15zm.468-5.87c.038 1.634-.92 2.632-2.6 2.57-1.497-.054-2.56-.673-2.597-2.382-.036-1.628.9-2.62 2.603-2.558 1.483.055 2.596.627 2.583 2.37zm-121.27-4.785h2.24v10.057l1.894-1.234c5.106-3.238 10.675-1.1 12.177 4.73.747 2.898.68 5.822-.244 8.665-.984 3.027-3.15 4.844-6.223 5.608-3.007.748-5.96.36-8.844-.56-.517-.165-1.195-.94-1.198-1.435v-25.353c-.001-.118.094-.236.2-.478zm2.333 18.725l.023 5.196c.016.48.165 1.144.5 1.392 2.534 1.9 8.658.45 10.14-2.494 1.747-3.473 1.685-7.1-.024-10.58-1.15-2.34-3.603-3.27-6.342-2.323-3.332 1.154-4.686 2.195-4.327 5.014.158 1.245.026 2.528.03 3.794zm17.364 16.907l.285-1.82c4.216.023 5.53-.808 6.94-4.663.304-.833.278-1.97-.026-2.812l-6.073-16.257-.726-2.056c1.77-.65 2.694-.296 3.287 1.47 1.7 5.027 3.553 9.995 5.46 15.298l5.45-15.25c.72-2 .792-2.04 3.2-1.527-.182.567-.336 1.13-.54 1.673l-7.032 18.667c-.472 1.24-1.006 2.47-1.65 3.626-1.937 3.485-4.34 4.52-8.566 3.65z"/><use xlink:href="#S"/><path d="M409.038 53.94h-1.74V45.36h-3.207v-1.485h8.145v1.435h-3.2v8.632z"/></g><g transform="matrix(1.695601 0 0 1.695601 1199.5729 834.91855)" class="B"><path d="M6.266 13.836l6.86.36v61.486h33.447l.283 6.153h-40.6v-68zm170.846 18.308l-23.462 24.92 25.232 22.8-1.187 1.53c-3.984.82-7.454.68-10.695-2.995-5.06-5.738-10.6-11.072-16.093-16.4-1.298-1.257-3.277-1.812-4.943-2.7-.43 1.657-1.187 3.305-1.233 4.972-.156 5.623-.06 11.253-.06 17.17h-6.132V12.067h6.024v42.926c2.825-1.736 4.75-2.495 6.1-3.83 5.473-5.36 10.922-10.758 16.072-16.422 2.67-2.935 5.47-4.064 10.365-2.598zM87.67 81.567h-6.485V32.243c5.54-2.43 5.603 1.564 6 3.798 6.167-1.827 12.133-4.567 18.315-5.203 9.915-1.02 16.25 4.138 16.905 14.066.795 12.055.2 24.203.2 36.58h-6.345l-.002-29.402c-.013-15.065-8.72-20.173-22.193-13.135-4.518 2.36-6.833 5.336-6.546 10.945.533 10.418.152 20.883.152 31.675zm151.7-5.845c1.743 3.572 1.034 5.262-2.53 6.142-12.605 3.113-19.778-2.154-20.016-15.1l-.213-28.47c-.003-.304-.243-.607-.5-1.2l-6.5-.464v-4.704c.698-.177 1.188-.45 1.636-.392 4.736.604 6.764-1.364 6.083-6.15-.162-1.138.118-2.33.053-3.5-.236-4.274 1.77-5.26 5.9-3.788v13.03H239.9l-.303 5.642H223.4l.006 29.063c.05 9.443 4.074 12.6 13.3 10.45.792-.183 1.6-.332 2.673-.558zm-42.485 5.886h-5.993V14.256h5.993v67.352zM59.563 31.763h5.752v49.67h-5.752v-49.67zm9.03-13.523c-3.102 1.76-4.846 3.562-6.284 3.344-1.515-.23-2.737-2.388-4.087-3.704 1.508-1.34 2.882-3.48 4.567-3.762 1.265-.2 2.928 1.966 5.804 4.122zm256.26.707c-12.877-.346-21.573 7.126-24.256 21.03-.5 2.596-.442 5.3-.722 9.03.395 2.75.655 6.6 1.534 10.282 2.54 10.676 10.997 17.273 22.04 17.513 11.398.248 20.07-5.446 22.835-16.23 1.5-5.846 2.153-12.218 1.624-18.214-1.3-14.742-9.956-23.06-23.055-23.4zM280.696 2.38v90h217.038v-90zm72.43 58.515c-3.345 14.7-15.282 22.568-30.874 21.787-14.95-.748-25.27-9.7-27.946-24.375-.623-3.418-.882-6.902-1.324-10.488.486-3.73.713-7.57 1.52-11.282 3.287-15.13 15.23-24.138 30.808-23.448 15.977.708 27.052 10.08 28.78 25.666.807 7.28.654 15.033-.962 22.14zm68.868 20.367c-3.65 1.328-6.2.34-8.582-3.08l-33.477-47.268c-.918-1.3-1.925-2.52-3.7-4.844v55.312h-6.373l-.001-66.914c3.917-1.273 6.444-.215 8.828 3.236l33.683 47.735c.906 1.28 1.903 2.494 3.66 4.783V14.345h5.973v66.917zm57.93-37.045l.3 5.724h-33.676V75.7h37.777v5.8h-44.46V14.253h44.368l.378 5.448h-37.944v24.516h33.258zM6.266 97.364l2.544.115v32.197c0 8.02.001 8.02 8.04 9.925-.944.416-1.856 1.07-2.84 1.206-3.8.53-5.7-.825-7.744-5.313v-38.13zm144.88 16.388c3.62-2.8 7.436-4.828 12.1-4.8 5.672.034 9.383 3.2 9.604 8.937.264 6.854.146 13.725.063 20.587-.008.704-.907 1.397-1.393 2.096l-.968-.5-.003-17.15c-.002-1.64.05-3.285-.077-4.915-.368-4.665-3.4-7.295-8.033-6.817-1.903.196-3.845.677-5.6 1.414-4.437 1.854-4.98 2.935-4.935 7.678l.026 17.825c.006 1.48-.048 2.774-2.435 1.9l-.01-18.902c-.082-3.853-.175-7.814-4.6-9.5-3.993-1.516-11.365.77-13.657 4.22-.558.84-.6 2.122-.62 3.202l-.026 20.867-.768.622c-.554-.627-1.583-1.25-1.6-1.883l-.022-27.35c.005-.6.7-1.175 1.1-1.762.384.6.873 1.143 1.12 1.787.206.54.13 1.188.202 2.085 6.935-4.5 13.773-7.688 20.535.343zm304.175-.332c9.525-6.752 16.736-5.33 20.413.38 3.623-2.693 7.453-4.897 12.192-4.855 5.584.05 9.338 3.04 9.603 8.6.337 7.053.17 14.133.097 21.2-.007.63-.93 1.25-1.425 1.874l-.93-.507-.004-18.068c-.002-1.434.05-2.877-.095-4.3-.44-4.358-3.3-6.918-7.674-6.58-2.002.155-4.056.668-5.915 1.434-4.458 1.837-5.016 2.954-4.97 7.654l.024 17.825c.004 1.445.018 2.808-2.433 1.955l-.01-18.88c-.08-3.85-.157-7.815-4.557-9.517-3.97-1.536-11.317.723-13.667 4.182-.565.832-.635 2.114-.643 3.192-.054 6.957-.028 13.915-.763 21.508-.565-.6-1.614-1.214-1.62-1.83l-.026-27.35c.004-.602.687-1.198 1.055-1.797.396.578.904 1.112 1.153 1.748.213.544.128 1.204.198 2.134zm-218.41-3.112v-12.58c2.634-.995 2.367.7 2.368 2.124l.003 40.44c-3.388.226-1.7-2.57-2.7-3.855l-5 3.007c-7.42 3.553-14.875.247-16.688-7.715-.778-3.417-1.006-7.158-.532-10.622 1.27-9.296 8.827-13.922 18.574-11.82 1.183.255 2.346.6 3.975 1.023zm-.06 13.038l-.04-8.576c-.03-.8-.3-1.954-.874-2.35-4.64-3.222-14.9-.97-17.482 4.067-2.97 5.772-2.894 11.85-.015 17.664 1.924 3.885 6.012 5.393 10.492 3.95 5.22-1.68 8.77-3.6 7.972-8.634-.316-1.994-.052-4.078-.053-6.12zM57.892 113.5l5.43-3.243c7.744-3.594 14.924-.27 16.714 8.055a31.43 31.43 0 0 1 .41 10.643c-1.026 7.547-5.822 11.65-13.67 11.835-3.104.073-6.27-.728-9.326-1.468-.784-.2-1.785-1.655-1.794-2.542l-.096-37.2c-.003-1.54.17-2.67 2.33-1.967l.002 15.866zM58 126.53v6.143c.001 5.137-.012 5.26 5.065 5.76 5.16.507 10.386.225 13.2-4.96 3.23-5.93 3.083-12.245-.006-18.24-1.9-3.688-6.073-4.875-10.742-3.615-5.04 1.36-7.524 4.154-7.526 8.462v6.45zm126.077-1.6c-.805 9.775 5.43 17.23 20.967 12.293-.462.7-.77 1.813-1.412 2.063-4.292 1.67-8.742 2.183-13.24.922-3.436-.963-6.1-3.057-7.375-6.43-2.32-6.08-2.383-12.243.337-18.2 2.62-5.75 9.37-8.145 16.034-5.94 5.154 1.704 8.513 7.977 7.146 13.72-.16.674-1.514 1.493-2.332 1.513-5.53.134-11.067.07-16.602.07l-3.524.001zm19.977-2.423c.568-7.2-2.974-11.413-9.37-11.418-6.296-.006-10.766 4.85-10.393 11.418h19.764zm135.176 14.84c-.472.654-.808 1.664-1.438 1.904-4.5 1.717-9.1 2.268-13.813.773-3.334-1.06-5.778-3.195-6.975-6.444-2.166-5.88-2.25-11.852.242-17.656 2.57-5.982 9.297-8.528 16.12-6.324 5.225 1.688 8.532 7.724 7.24 13.648-.155.7-1.654 1.586-2.546 1.604-6.544.136-13.092.074-19.6.074-2.4 10.8 5.647 15.52 20.762 12.42zm-1.133-14.933c.667-6.9-2.67-11.04-8.996-11.308-6.38-.27-11.014 4.567-10.777 11.52l18.038-.01c.6-.002 1.18-.135 1.735-.202zm-295.15 1.322c-.034.055.058-.027.066-.118 1-10.613-2.666-13.985-13.147-12.015-1.6.3-3.144.782-4.714 1.18l-.713-.605c.524-.664.987-1.84 1.582-1.9 4.125-.494 8.303-1.2 12.414-.964 3.655.2 6.045 2.743 6.677 6.556.15.906.388 1.816.392 2.725l.018 21.464-.86.493-1.848-2.973c-3.27 1.025-6.8 2.676-10.486 3.172-7.157.962-11.814-4.683-9.48-10.95 1.26-3.385 4.106-4.86 7.33-5.27 4.12-.526 8.307-.535 12.767-.784zm.658 6.785c-.53-1.388-.938-3.913-1.605-3.982-4.744-.496-9.62-1.15-14.147 1.137-2.366 1.195-3.276 3.34-3.004 5.887.268 2.52 1.83 4.004 4.27 4.614 3.918.98 7.453-.107 10.884-1.92 2.263-1.197 3.875-2.705 3.603-5.735zm239.293 10.086l-1.28-3.052c-3.5 1.073-7.078 2.728-10.805 3.194-7.155.894-11.758-4.858-9.3-11.087 1.316-3.337 4.18-4.78 7.42-5.165 4.114-.5 8.285-.505 12.566-.732 0-2.167.217-4.612-.053-7-.37-3.283-2.52-5.243-5.767-5.27-3.933-.032-7.87.428-12.458.717.36-.572.737-1.83 1.256-1.892 4.225-.502 8.5-1.222 12.712-.988 3.507.195 6.088 2.66 6.445 6.368.42 4.36.436 8.764.528 13.15.08 3.775.016 7.553.016 11.33l-1.28.426zm-7.325-14.472l-.1-.473c-2.96.643-6.013 1.022-8.854 2-2.478.86-3.38 3.197-3.163 5.75.214 2.5 1.684 4.1 4.15 4.705 5.1 1.255 9.446-.514 13.4-3.575.46-.357.663-1.225.73-1.882.637-6.352.546-6.44-5.842-6.535-.103-.001-.205 0-.307 0zm76.427-.8v14.604l-.816.612c-.548-.636-1.57-1.27-1.575-1.9L349.616 99c.004-.63.925-1.256 1.42-1.884l.948.5v26.857c1.77-.978 3.1-1.412 4.036-2.282 3.88-3.644 7.597-7.464 11.472-11.115.92-.865 2.22-1.325 3.976-2.335l-15.27 15.56 16.252 15.463-.394.83c-1.282-.508-2.833-.715-3.8-1.577-4.2-3.747-8.2-7.722-12.354-11.523-.86-.785-2.075-1.18-3.9-2.174zm64.488-.446c-.133-7.814 2.905-13.17 8.5-15.16 9.553-3.405 17.918 2.008 18.93 12.515.28 2.892-.003 5.97-.705 8.796-1.655 6.66-7.23 10.394-14.007 9.848-7.354-.592-12-5.297-12.697-12.932-.094-1.014-.013-2.044-.013-3.066zm2.133-.113l.298.03c0 1.023-.085 2.054.014 3.067.584 5.97 4.282 10.026 9.657 10.65 5.824.676 10.898-2.062 12.025-7.565.8-3.957.742-8.35-.067-12.317-1.02-5-5.495-7.672-10.6-7.526-5.256.15-9.012 2.943-10.388 7.94-.5 1.853-.64 3.8-.94 5.72zm-331.16 12.96c.792-.117 1.592-.375 2.374-.326 3.73.234 7.47.897 11.177.727 2.912-.134 5.2-1.898 5.5-5.213.3-3.337-1.722-5.077-4.55-6.083-2.596-.923-5.26-1.65-7.855-2.58-4.836-1.734-6.682-4.535-6.04-8.968.514-3.55 3.704-6.135 8.346-6.2 3.615-.05 7.24.45 10.858.706l.172 1.52c-.855.238-1.716.698-2.564.674-3.238-.1-6.485-.596-9.703-.44-2.484.12-4.422 1.532-4.767 4.36-.352 2.883 1 4.763 3.576 5.726 2.672 1.002 5.447 1.722 8.144 2.662 5.095 1.776 7.13 4.48 6.814 8.888-.287 4-3.03 6.406-8.12 7.354-4.6.855-8.92-.004-13.174-1.587l-.18-1.218zm222.28.512c-.494.644-.852 1.6-1.503 1.883-6.432 2.8-12.162-.935-12.235-7.958l-.015-20.474-5.34-.366c1.08-2.94 3.73-1.2 5.03-2.26 1.367-2.605-.563-6.177 2.64-8.405v8.76l9.025.04c.666.022 1.315.56 1.972.86-.662.393-1.3 1.094-1.988 1.124-2.834.128-5.678.054-8.778.054 0 7.75-.17 15.188.084 22.612.1 2.92 2.532 4.552 5.646 4.43 1.612-.063 3.2-.5 4.813-.783l.65.483zm99.865-26.925c-.756.237-1.533.723-2.264.662-2.025-.168-4.038-.86-6.043-.814-6.788.16-10.926 4.378-11.305 11.232a45.75 45.75 0 0 0-.084 2.456c-.015 10.78 6.353 15.73 16.812 13.065.6-.15 1.162-.37 2.533-.12-.437.682-.74 1.793-1.333 1.98-8.537 2.7-20.064.776-20.406-13.232-.052-2.14-.107-4.34.3-6.425 1.874-9.83 11.633-14.122 21.8-8.804zm-158.855 29.34c-.483-.605-1.382-1.205-1.388-1.815l-.01-27.616c.005-.57.765-1.133 1.174-1.7.397.565 1.136 1.128 1.14 1.696l.05 28.792-.966.642zm-132.9.965c-.817-1.286-1.65-2.04-1.664-2.8-.01-.54 1.2-1.623 1.678-1.533.763.14 1.884 1.037 1.923 1.67.043.686-.982 1.438-1.937 2.67zm261.82-5.304c1.068 1.206 2.184 1.935 2.116 2.526-.084.726-1.065 1.644-1.84 1.878-.428.13-1.667-.917-1.743-1.532-.088-.697.717-1.506 1.466-2.872zM250.66 98.9c.745 1.05 1.6 1.718 1.536 2.303-.058.62-1.13 1.717-1.48 1.618-.752-.213-1.64-.968-1.85-1.684-.127-.43.922-1.202 1.793-2.237z"/><use xlink:href="#S" x="-157.076" y="-27.258"/><path d="M251.962 26.673h-1.74V18.09h-3.207v-1.485h8.145v1.435h-3.2v8.632z"/></g><path d="M2809.04 1360.03c53.124 61.17 147.412 49.4 190.256-14.763-64.82 37.003-127.96 39.923-190.256 14.763m0-49.822c53.124-61.155 147.412-49.4 190.256 14.748-64.82-36.988-127.96-39.923-190.256-14.748m49.195 141.337c74.823 23.83 155.34-31.892 159.138-110.95-28.78 53.8-85.264 99.954-159.138 110.95m0-232.865c74.823-23.83 155.34 31.906 159.138 110.964-28.78-53.825-85.264-99.94-159.138-110.964m50.41 292.852l-5.328 28.407c-.125.696-.75 1.447-1.42 1.683l-20.325 8.736c-.626.32-1.642.25-2.226-.153l-24.123-16.54a1.58 1.58 0 0 0-1.948.195l-20.714 20.673c-.5.5-.556 1.377-.153 1.948l16.847 24.582c.403.584.473 1.544.153 2.184l-8.083 19.713c-.2.654-.932 1.308-1.628 1.447l-29.395 5.467c-.696.125-1.266.793-1.266 1.5v29.284c0 .7.57 1.363 1.266 1.5l29.38 5.48c.696.14 1.42.78 1.642 1.46l8.083 19.713c.32.626.25 1.6-.153 2.184l-16.847 24.568c-.403.584-.348 1.46.153 1.948l20.714 20.686a1.6 1.6 0 0 0 1.948.195l24.123-16.54a2.47 2.47 0 0 1 2.226-.153l20.325 8.723c.668.236 1.294.988 1.42 1.683l5.314 28.407c.14.696.793 1.266 1.5 1.266h29.242a1.62 1.62 0 0 0 1.53-1.266l5.16-27.712a2.32 2.32 0 0 1 1.461-1.642l21.632-8.653c.64-.32 1.6-.25 2.184.153l22.968 15.734c.584.403 1.46.348 1.948-.153l20.673-20.714a1.6 1.6 0 0 0 .195-1.948l-15.47-22.55a2.16 2.16 0 0 1-.07-2.142l5.328-9.947a1.18 1.18 0 0 0-.612-1.642l-49.54-20.478c-.654-.278-1.475.014-1.836.612l-1.53 2.448a11.77 11.77 0 0 1-1.224 1.614c-5.745 8.973-15.776 14.927-27.225 14.927-17.862 0-32.344-14.482-32.344-32.344s14.482-32.344 32.344-32.344c11.45 0 21.466 5.954 27.225 14.927.445.487.946 1.113 1.224 1.572l1.53 2.5c.362.584 1.182.85 1.836.57l49.54-20.478a1.19 1.19 0 0 0 .612-1.642l-5.314-9.947c-.362-.612-.334-1.558.07-2.142l15.47-22.55c.4-.584.306-1.46-.195-1.948l-20.673-20.673a1.6 1.6 0 0 0-1.948-.195l-22.968 15.734c-.584.403-1.544.473-2.184.153l-21.632-8.653c-.668-.2-1.336-.946-1.46-1.642l-5.175-27.712c-.125-.696-.835-1.266-1.53-1.266h-29.228c-.7-.042-1.363.543-1.5 1.224z" class="B"/><path stroke="#fff" stroke-width="6.944" d="M2413.473 1172.3h277.534v145.6h-277.534z" stroke-miterlimit="6.4000001" class="E r"/><g font-size="43.403" class="B C"><text y="1214.645" x="2399.529" transform="translate(20.833 -.002)">MISO</text><text y="1258.742" x="2399.529" transform="translate(20.833 -.002)">SCK</text><text y="1302.84" x="2399.529" transform="translate(20.833 -.002)">NC</text><text y="1214.259" x="2662.448" transform="translate(20.833 -.002)" class="z">NC</text><text y="1258.356" x="2662.448" transform="translate(20.833 -.002)" class="z">MOSI</text><text y="1302.453" x="2662.448" transform="translate(20.833 -.002)" class="z">GND</text></g><g transform="matrix(1.454887 0 0 1.454887 -1290.8479 186.24221)"><path d="M-9.375 27.233v-1.725h-5.06v1.725zm-5.06-8.573h5.06v-1.724h-5.06z" transform="matrix(17.871198 0 0 10.41667 1358.069 949.01872)" fill="#b7b7b7"/><path fill="#ad9e73" d="M959.598 1044.592h163.417v257.03H959.598z"/><path d="M1077.192 1116.446v112.656h10.563v19h35.24V1096.02h-35.24v20.427z" fill="#c2b990"/><path fill="#f1f3e6" d="M929.36 1076.3h30.23v203.316h-30.23z"/><path d="M1057.734 1096.02v152.083h29.98v-19h-10.583v-112.656h10.583v-20.427z" fill="#a0916b" class="X"/><g class="B"><path d="M986.723 1095.988h54.573v152.125h-54.573z" class="Q"/><path d="M964.702 1095.988h54.583v152.125h-54.583z" class="Q"/></g><g fill="#f1f3e6"><path d="M1122.994 1315.37h29.802v-31.677h-29.802zm0-239.07h29.802v-31.698h-29.802z"/><path d="M992.015 1258.987v-33.36h130.98v-93.464h-130.98v-33.393h130.98v-54.167H959.61v270.77h163.385v-56.384z"/></g><path d="M1122.994 1044.613h3.323v31.677h-3.323zm0 239.08h3.344v31.677h-3.344z" opacity=".4" fill="#c2b990"/><path d="M929.348 1230.755h30.25v31.677h-30.25zm-.01-134.747h30.25v31.698h-30.25z" opacity=".4" fill="#ad9e73"/></g><g transform="matrix(10.41667 0 0 10.41667 255.20841 1192.5653)"><path fill="gray" d="M0 6.34h12.988v33.002H0z"/><path d="M3.25 15.607h6.453V29.85H3.25z"/><g transform="matrix(1 0 0 1.012176 .019 6.339999)"><path d="M3.68 17.358H9.31v5.68H3.68z" class="U"/><g class="s"><use xlink:href="#T"/><use xlink:href="#U"/><path d="M3.68 21.93h5.63v.193H3.68z"/><use xlink:href="#V"/><path d="M3.68 21.354h5.63v.193H3.68z"/><use xlink:href="#U" y="-1.154"/><use xlink:href="#T" y="-1.73"/><use xlink:href="#U" y="-1.73"/><use xlink:href="#V" y="-1.442"/><use xlink:href="#T" y="-2.594"/><use xlink:href="#V" y="-2.017"/><use xlink:href="#T" y="-3.17"/><use xlink:href="#T" y="-3.456"/><use xlink:href="#T" y="-3.746"/><use xlink:href="#V" y="-3.169"/><use xlink:href="#T" y="-4.322"/><use xlink:href="#V" y="-3.746"/><use xlink:href="#U" y="-4.611"/></g><g class="B"><path d="M3.68 17.36h.18v5.678h-.18z" class="Q"/><path d="M3.86 17.36H9.3v.18H3.86z" class="Q"/></g></g><path d="M4.3 6.642h-4v4M8.665 6.65h4v4M4.3 39.024h-4v-4m8.366 3.992h4v-4" class="E T AA"/><path d="M0 6.342h.36v33H0z" opacity=".2" class="B"/><path d="M12.64 6.343H13v33h-.36z" class="Q"/></g><g transform="matrix(8.035891 0 0 8.035891 68.310967 1286.3652)"><path d="M0 6.34h12.988v33.002H0z" class="O"/><path d="M3.73 16.037h5.527v13.606H3.73z"/><g transform="matrix(.856545 0 0 1.012252 .930644 6.096075)"><path d="M3.68 17.358H9.31v5.68H3.68z" class="U"/><g class="s"><use xlink:href="#T"/><use xlink:href="#U"/><path d="M3.68 21.93h5.63v.193H3.68z"/><use xlink:href="#V"/><path d="M3.68 21.354h5.63v.193H3.68z"/><use xlink:href="#U" y="-1.154"/><use xlink:href="#T" y="-1.73"/><use xlink:href="#U" y="-1.73"/><use xlink:href="#V" y="-1.442"/><use xlink:href="#T" y="-2.594"/><use xlink:href="#V" y="-2.017"/><use xlink:href="#T" y="-3.17"/><use xlink:href="#T" y="-3.456"/><use xlink:href="#T" y="-3.746"/><use xlink:href="#V" y="-3.169"/><use xlink:href="#T" y="-4.322"/><use xlink:href="#V" y="-3.746"/><use xlink:href="#U" y="-4.611"/></g><g class="B"><path d="M3.68 17.36h.18v5.678h-.18z" class="Q"/><path d="M3.86 17.36H9.3v.18H3.86z" class="Q"/></g></g><path d="M4.3 6.642h-4v4M8.665 6.65h4v4M4.3 39.024h-4v-4m8.366 3.992h4v-4" class="E T AA"/><path d="M0 6.342h.36v33H0z" opacity=".2" class="B"/><path d="M12.64 6.343H13v33h-.36z" class="Q"/></g><g transform="matrix(6.928452 0 0 7.092785 1031.6931 827.87285)"><path d="M0 6.34h12.988v33.002H0z" class="O"/><path d="M3.73 16.037h5.527v13.606H3.73z"/><g transform="matrix(.856545 0 0 1.012252 .930644 6.096075)"><path d="M3.68 17.358H9.31v5.68H3.68z" class="U"/><g class="s"><use xlink:href="#T"/><use xlink:href="#U"/><path d="M3.68 21.93h5.63v.193H3.68z"/><use xlink:href="#V"/><path d="M3.68 21.354h5.63v.193H3.68z"/><use xlink:href="#U" y="-1.154"/><use xlink:href="#T" y="-1.73"/><use xlink:href="#U" y="-1.73"/><use xlink:href="#V" y="-1.442"/><use xlink:href="#T" y="-2.594"/><use xlink:href="#V" y="-2.017"/><use xlink:href="#T" y="-3.17"/><use xlink:href="#T" y="-3.456"/><use xlink:href="#T" y="-3.746"/><use xlink:href="#V" y="-3.169"/><use xlink:href="#T" y="-4.322"/><use xlink:href="#V" y="-3.746"/><use xlink:href="#U" y="-4.611"/></g><g class="B"><path d="M3.68 17.36h.18v5.678h-.18z" class="Q"/><path d="M3.86 17.36H9.3v.18H3.86z" class="Q"/></g></g><path d="M4.3 6.642h-4v4M8.665 6.65h4v4M4.3 39.024h-4v-4m8.366 3.992h4v-4" class="E T AA"/><path d="M0 6.342h.36v33H0z" opacity=".2" class="B"/><path d="M12.64 6.343H13v33h-.36z" class="Q"/></g><text y="853.388" x="1011.812" transform="translate(20.833 -.002)" class="B C k">SPI</text><text y="1161.903" x="1024.172" transform="translate(20.833 -.002)" class="B C k">SD</text><text y="1658.518" x="242.036" transform="translate(20.833 -.002)" class="B C L">BAT</text><text y="1235.25" x="245.319" transform="translate(20.833 -.002)" class="B C L">USB</text><text y="1319.443" x="44.281" transform="translate(20.833 -.002)" class="B C L">MS</text><text y="1658.518" x="43.47" transform="translate(20.833 -.002)" class="B C L">UART</text><g transform="matrix(-6.279222 0 0 5.126188 520.00088 213.66076)"><path d="M20.5 39.155h2.16v2.16H20.5zm0-32.315h2.16V9H20.5zm36 32.315h2.16v2.16H56.5zm0-32.315h2.16V9H56.5zm-18-.294h2.16v2.16H38.5zm0 32.61h2.16v2.16H38.5z" class="Y"/><path d="M1.53.787h68.553v46.45H1.53z" fill="#0a0a0a"/><path d="M11.08.787H1.53v46.45h9.55v-8.08h4.712V8.868H11.08zm23.06 8.08h-5.437V.787h-2.717v46.45h2.717v-8.08h5.437zm12.9-8.08h-2.718v46.45h2.718v-8.08h5.437V8.868H47.05zm15.597 0h7.437v46.45h-7.437z" fill="#282828"/><path d="M44.332 41.315V6.708H34.14v34.607zm18.315 0V6.708h-10.16v34.607z" fill="#e9e9e9"/><path d="M79.125 16.842h3.688v14.68h-3.688z" fill="#d6d6d6"/><path d="M79.125 17.887h3.688v.45h-3.688zm0 4.503h3.688v5.307h-3.688z" fill="#c8c8c8"/><path d="M79.125 25.574h3.688v2.123h-3.688z" class="l"/><path d="M79.125 23.45h3.688v2.123h-3.688z" fill="#bababa"/><path d="M70.083 10.11h2.57V38.24h-2.57z" class="t"/><path d="M70.083 12.113h2.57v.864h-2.57zm0 8.63h2.57V30.9h-2.57z" fill="#3c3c3c"/><path d="M70.083 26.842h2.57v4.067h-2.57z" class="t"/><path d="M70.083 22.775h2.57v4.067h-2.57z" fill="#2d2d2d"/><path d="M78.848 16.118H80.2v16.126h-1.353z" class="t"/><path d="M78.848 17.266H80.2v.496h-1.353zm0 4.948H80.2v5.828h-1.353z" fill="#3c3c3c"/><path d="M78.848 25.71H80.2v2.33h-1.353z" class="t"/><path d="M78.848 23.38H80.2v2.332h-1.353z" fill="#2d2d2d"/><path d="M79.354 33.382v-18.38l-.27-1.61h-6.357l-.21 1.273v19.102l.21 1.223h6.357z" class="l"/><path d="M72.725 18.843c-.13 1.38-.21 3.27-.21 5.352l.21 5.352H79c.224-1.38.354-3.268.354-5.352s-.137-3.97-.354-5.352z" fill="#bababa"/><path d="M78.875 29.542h-6.15c-.123.695-.2 1.66-.2 2.73 0 1.063.076 2.02.197 2.717H78.9c.252-.064.455-1.252.455-2.717-.002-1.5-.215-2.73-.48-2.73zm0-10.7h-6.15c-.123-.697-.2-1.66-.2-2.73 0-1.063.076-2.02.197-2.72H78.9c.252.066.455 1.252.455 2.72-.002 1.505-.215 2.73-.48 2.73z" fill="#d6d6d6"/><path d="M79.125 19.798L79 18.843h-6.275l-.073.955z" fill="#c8c8c8"/><g fill="#0a0a0a"><path d="M4.583 5.005H8.76v6.75H4.583zm0 30.775H8.76v6.75H4.583z"/><circle cx="6.671" r="2.188" cy="24.011"/><circle cx="66.365" r="2.188" cy="43.19"/><circle cx="66.365" r="2.188" cy="4.653"/></g><path d="M25.986 41.315V6.708H15.793v34.607z" class="AB"/><path d="M25.986 11.755V6.708H15.793v5.047z" class="f"/><path d="M25.986 11.755V7.92H15.793v3.835z" class="g"/><path d="M25.986 11.755V9.607H15.793v2.148z" class="h"/><path d="M25.986 11.755v1.637H15.793v-1.637z" class="i"/><path d="M25.986 21.844v-5.047H15.793v5.047z" class="l"/><path d="M25.986 21.772v-2.45H15.793v2.45z" class="AC"/><path d="M25.986 18.113v-1.316H15.793v1.316z" class="j"/><path d="M25.986 21.772v-1.507H15.793v1.507z" class="AD"/><path d="M25.986 21.844v-.825H15.793v.825z" class="j"/><path d="M19.134 27.453V16.797h-3.34v10.656z" class="f"/><path d="M19.134 25.574v-6.898h-3.34v6.898z" class="AE"/><path d="M19.134 27.453v-8.097h-3.34v8.097z" class="g"/><path d="M19.134 27.453v-4.536h-3.34v4.536z" class="h"/><path d="M19.134 27.453v3.456h-3.34v-3.456z" class="i"/><path d="M44.332 41.315V6.708H34.14v34.607z" class="AB"/><path d="M44.332 11.755V6.708H34.14v5.047z" class="f"/><path d="M44.332 11.755V7.92H34.14v3.835z" class="g"/><path d="M44.332 11.755V9.607H34.14v2.148z" class="h"/><path d="M44.332 11.755v1.637H34.14v-1.637z" class="i"/><path d="M44.332 21.844v-5.047H34.14v5.047z" class="l"/><path d="M44.332 21.772v-2.45H34.14v2.45z" class="AC"/><path d="M44.332 18.113v-1.316H34.14v1.316z" class="j"/><path d="M44.332 21.772v-1.507H34.14v1.507z" class="AD"/><path d="M44.332 21.844v-.825H34.14v.825z" class="j"/><path d="M37.48 27.453V16.797h-3.34v10.656z" class="f"/><path d="M37.48 25.574v-6.898h-3.34v6.898z" class="AE"/><path d="M37.48 27.453v-8.097h-3.34v8.097z" class="g"/><path d="M37.48 27.453v-4.536h-3.34v4.536z" class="h"/><path d="M37.48 27.453v3.456h-3.34v-3.456z" class="i"/><path d="M62.666 41.315V6.708H52.474v34.607z" class="AB"/><path d="M62.666 11.755V6.708H52.474v5.047z" class="f"/><path d="M62.666 11.755V7.92H52.474v3.835z" class="g"/><path d="M62.666 11.755V9.607H52.474v2.148z" class="h"/><path d="M62.666 11.755v1.637H52.474v-1.637z" class="i"/><path d="M62.666 21.844v-5.047H52.474v5.047z" class="l"/><path d="M62.666 21.772v-2.45H52.474v2.45z" class="AC"/><path d="M62.666 18.113v-1.316H52.474v1.316z" class="j"/><path d="M62.666 21.772v-1.507H52.474v1.507z" class="AD"/><path d="M62.666 21.844v-.825H52.474v.825z" class="j"/><path d="M55.815 27.453V16.797h-3.34v10.656z" class="f"/><path d="M55.815 25.574v-6.898h-3.34v6.898z" class="AE"/><path d="M55.815 27.453v-8.097h-3.34v8.097z" class="g"/><path d="M55.815 27.453v-4.536h-3.34v4.536z" class="h"/><path d="M55.815 27.453v3.456h-3.34v-3.456z" class="i"/></g><path d="M150 1054.1h41.667v10.417H150zm-29.442-86.997h-56.25v-53.125h56.25zM150 1092.63h41.667v10.417H150zm0-77.082h41.667v10.417H150zm0 18.75h41.667v10.417H150zm0 38.542h41.667v10.417H150zm-29.434 131.287h-56.25v-53.125h56.25z" class="Y"/><g transform="matrix(10.41667 0 0 10.41667 84.37471 798.25053)"><path d="M8.6 20.7h.7v1h-.7z" class="U"/><path d="M8.8 20.7h.5v.1h-.5z" class="R"/><path d="M8.6 22.6h.7v1h-.7z" class="U"/><path d="M8.8 22.6h.5v.1h-.5z" class="R"/><path d="M8.6 24.4h.7v1h-.7z" class="U"/><path d="M8.8 24.4h.5v.1h-.5z" class="R"/><path d="M8.6 26.3h.7v1h-.7z" class="U"/><path d="M8.8 26.3h.5v.1h-.5z" class="R"/><path d="M8.6 28.1h.7v1h-.7z" class="U"/><path d="M8.8 28.1h.5v.1h-.5z" class="R"/><path d="M8.9 15.5v18.9h-17V15.5z" class="m"/><path d="M-.8 34.6h3v1.8h-3zm0-21.2h3v1.8h-3z" fill="#b7b7b7"/><path d="M8.8 15.5h.1v18.8h-.1z" class="O"/><path d="M-8.1 19.8h17v10.3h-17z" fill="#333"/><path d="M-8.1 14.3H-7v1h-1.1z" class="m"/><path d="M-8.1 14.6H-7v.6h-1.1z" class="AF"/><path d="M-8.1 34.6H-7v1h-1.1z" class="m"/><path d="M-8.1 34.6H-7v.6h-1.1z" class="R"/><path d="M8.3 15.3l.6.2V18s-.1-2.3-.3-2.4-.3.1-.3.1v-.4zm0 19.3l.6-.2v-2.5s-.1 2.3-.3 2.4-.3-.1-.3-.1v.4z" class="O"/><path d="M8.3 31.2h-1v-1.6h1.6v-.5h-.6v-8.4h.6v-.5H7.3v-1.6h1.1v-3.3H-8.1v19.3H8.3zM-5 20.2h-.8v-1.6h.9c.3-.4.8-.7 1.3-.7.6 0 1.1.2 1.4.7h4.5v1.6h-4.5c-.3.5-.8.8-1.4.8s-1.1-.3-1.4-.8zm0 10.9h-.8v-1.6h.9c.3-.4.8-.7 1.3-.7.6 0 1.1.2 1.4.7h4.5v1.6h-4.5c-.3.5-.8.8-1.4.8s-1.1-.3-1.4-.8z" fill="#e6e6e6"/><path d="M8.3 15.3v1.5l-16.4-1.1v-.4z" class="AF"/><path d="M8.3 33.4v1.2H-8.1l11-.6z" class="R"/><path d="M2.1 18.6h.1v1.6h-.1zm0 10.9h.1v1.6h-.1z" class="O"/><path d="M-7.5 16.2h.7v17.4h-.7z" class="m"/><path d="M-8.1 16.2h.7v17.4h-.7z" class="O"/></g><text y="561.972" x="-1949.594" transform="matrix(0 -1 1 0 20.833 -.002)" class="B C L">PWR</text><text y="988.959" x="-1949.594" transform="matrix(0 -1 1 0 20.833 -.002)" class="B C L">RST</text><path d="M746.077 2053.54h48.736v46.416h-48.736z" class="s"/><path d="M660.208 1959.55H876.04v27.85H660.208z" class="O"/><path d="M622.917 2038.456h286.875v22.047H622.917z" class="m"/><path d="M643.125 1972.107h250v102.326h-250z" class="AF"/><text y="1941.732" x="694.399" transform="translate(20.833 -.002)" class="B C L">RST</text><path d="M468.764 997.72h-41.292v89.07h41.292z" class="Z"/><path d="M427.472 1086.8l-2.056 5.097 47.07.014-3.722-5.1m-41.292-89.08l-2.056-5.14h47.07l-3.722 5.14z" class="S"/><path d="M472.486 1091.9v-99.32l-3.722 5.14v89.07z" class="u"/><path d="M425.416 1091.887V992.58l2.056 5.14v89.07z"/><path d="M492.25 1032.83h-19.764v17.125h19.764zm-66.834 34.446H408.3v15.417h17.125zm0-67.32H408.3v14.903h17.125z" class="R"/><path d="M483.694 1032.83h-6v17.125h6zm-62.86 34.446h-5.57v15.417h5.57zm0-67.32h-5.57v14.903h5.57z" class="v"/><path d="M903.694 443.303v-41.292h89.07v41.292z" class="Z"/><path d="M992.764 402.012l5.097-2.056.014 47.07-5.1-3.722m-94.2 3.722l5.14-3.722v-41.292l-5.14-2.056z" class="S"/><path d="M898.555 447.026l5.14-3.722h89.07l5.11 3.722h-98.042z" class="u"/><path d="M898.555 399.956l5.14 2.056h89.07l5.097-2.056h-98.028z"/><path d="M938.806 466.8v-19.764h17.125V466.8zm34.444-66.834V382.83h15.417v17.125zm-67.32 0V382.83h14.903v17.125z" class="R"/><path d="M938.806 458.234v-6h17.125v6zm34.444-62.86v-5.57h15.417v5.57zm-67.32 0v-5.57h14.903v5.57z" class="v"/><path d="M594.192 547.597h57.18v31.472h-57.18z" class="V"/><path d="M594.22 547.597h9.083v31.472h-9.083zm48.014 0h9.14v31.472h-9.14z" class="N"/><path d="M408.916 899.97h52.958v25.472h-52.958z" class="a"/><path d="M449.944 899.97h11.917v25.472h-11.917zm-41.028-.014h11.917v25.486h-11.917z" class="N"/><g transform="matrix(0 8.140895 -6.184622 0 712.203123 1266.049896)"><g class="Y"><path d="M.332 18.142h.992v6.236H.332z"/><use xlink:href="#W"/><use xlink:href="#W" x="1.8"/><use xlink:href="#W" x="3.6"/><use xlink:href="#W" x="5.4"/><use xlink:href="#W" x="7.2"/><use xlink:href="#W" x="9"/><use xlink:href="#W" x="10.8"/><path d="M13.924 6.237h-.992V.001h.992zm-1.8 0h-.992V.001h.992zm-1.8 0h-.992V.001h.992zm-1.8 0h-.992V.001h.992zm-1.8 0h-.992V.001h.992zm-1.8 0h-.992V.001h.992zm-1.8 0h-.992V.001h.992zm-1.8 0H.332V.001h.992z"/></g><path d="M.183 6.662h13.9v11.055H.183z" class="Z"/><path d="M14.073 6.662l-.72.72H.903l-.72-.72zm0 11.055l-.72-.72H.903l-.72.72z" class="S"/><path d="M.183 17.717l.72-.72V7.382l-.72-.72z"/><path d="M14.073 17.717l-.72-.72V7.382l.72-.72z" class="AG"/><circle cx="2.343" r=".72" cy="15.557" class="S"/></g><g transform="matrix(0 .909223 -.909223 0 929.166649 1600.386038)"><path d="M16.598 188.976H32.74v40.158H16.598zm25.592 0h16.14v40.158H42.2zm25.6 0h16.14v40.158H67.78zm25.6 0h16.142v40.158H93.37zM93.37 0h16.142v40.158H93.37zm-25.6 0h16.14v40.158H67.78zM42.2 0h16.14v40.158H42.2zM16.598 0H32.74v40.158H16.598z" class="Y"/><path d="M0 51.512h126.1v126.1H0z" class="Z"/><path d="M10 61.512l-10-10h126.1l-10 10zm0 106.1l-10 10h126.1l-10-10z" class="S"/><path d="M10 61.512l-10-10v126.1l10-10z"/><path d="M116.1 61.512l10-10v126.1l-10-10z" class="AG"/><circle cx="30" r="10" cy="147.622" class="S"/></g><path d="M320.833 999.956h57.18v31.472h-57.18z" class="V"/><path d="M320.86 999.956h9.083v31.472h-9.083zm48.015 0h9.14v31.472h-9.14z" class="N"/><path d="M319.473 1053.793h57.18v31.472h-57.18z" class="V"/><path d="M319.5 1053.793h9.083v31.472H319.5zm48.015 0h9.14v31.472h-9.14z" class="N"/><path d="M1446.306 1188.04v52.958h-25.472v-52.958z" class="a"/><path d="M1446.306 1229.067v11.917h-25.472v-11.917zm.014-41.027v11.917h-25.486v-11.917z" class="N"/><path d="M1489.063 1188.04v52.958h-25.472v-52.958z" class="a"/><path d="M1489.063 1229.067v11.917h-25.472v-11.917zm.014-41.027v11.917h-25.486v-11.917z" class="N"/><path d="M1531.82 1188.04v52.958h-25.472v-52.958z" class="a"/><path d="M1531.82 1229.067v11.917h-25.472v-11.917zm.014-41.027v11.917h-25.486v-11.917z" class="N"/><path d="M1574.577 1188.04v52.958h-25.472v-52.958z" class="a"/><path d="M1574.577 1229.067v11.917h-25.472v-11.917zm.013-41.027v11.917h-25.486v-11.917z" class="N"/><path d="M1406.555 1185.93v57.18h-31.472v-57.18z" class="V"/><path d="M1406.555 1185.956v9.083h-31.472v-9.083zm0 48.014v9.14h-31.472v-9.14z" class="N"/><path d="M1363.798 1185.93v57.18h-31.472v-57.18z" class="V"/><path d="M1363.798 1185.956v9.083h-31.472v-9.083zm0 48.014v9.14h-31.472v-9.14z" class="N"/><g transform="matrix(.257732 0 0 .257732 1101.41831 632.79931)"><path d="M0 250h75v25H0zm0 40h75v25H0zm0 40h75v25H0zm0 40h75v25H0zm90 40h25v75H90zm40 0h25v75h-25zm40 0h25v75h-25zm40 0h25v75h-25zm40 0h25v75h-25zm40 0h25v75h-25zm40 0h25v75h-25zm40 0h25v75h-25zm40-40h75v25h-75zm0-40h75v25h-75zm0-40h75v25h-75zm0-40h75v25h-75zm0-40h75v25h-75zm0-40h75v25h-75zm0-40h75v25h-75zm0-40h75v25h-75zM370 0h25v75h-25zm-40 0h25v75h-25zm-40 0h25v75h-25zm-40 0h25v75h-25zm-40 0h25v75h-25zm-40 0h25v75h-25zm-40 0h25v75h-25zM90 0h25v75H90zM0 90h75v25H0zm0 40h75v25H0zm0 40h75v25H0zm0 40h75v25H0z" class="Y"/><path d="M28.5 28.5h428v428h-428z" class="Z"/><path d="M38.5 38.5l-10-10h428l-10 10zm0 408l-10 10h428l-10-10z" class="S"/><path d="M38.5 38.5l-10-10v428l10-10z"/><path d="M446.5 38.5l10-10v428l-10-10z" class="AG"/><circle cx="58.5" r="10" cy="426.5" class="S"/></g><path d="M594.192 585.115h57.18v31.472h-57.18z" class="V"/><path d="M594.22 585.115h9.083v31.472h-9.083zm48.014 0h9.14v31.472h-9.14z" class="N"/><path d="M596.304 625.64h52.958v25.472h-52.958z" class="a"/><path d="M637.33 625.64h11.917v25.472H637.33zm-41.026-.014h11.917v25.486h-11.917z" class="N"/><path d="M711.722 544.116h57.18v31.472h-57.18z" class="V"/><path d="M711.75 544.116h9.083v31.472h-9.083zm48.014 0h9.14v31.472h-9.14z" class="N"/><path d="M711.722 623.3h57.18v31.472h-57.18z" class="V"/><path d="M711.75 623.3h9.083v31.472h-9.083zm48.014 0h9.14v31.472h-9.14z" class="N"/><path d="M713.833 586.715h52.958v25.472h-52.958z" class="a"/><path d="M754.86 586.715h11.917v25.472H754.86zm-41.027-.015h11.917v25.486h-11.917z" class="N"/><path d="M1027.486 443.303v-41.292h89.07v41.292z" class="Z"/><path d="M1116.556 402.012l5.097-2.056.014 47.07-5.1-3.722m-89.07-.001V402.01l-5.14-2.056v47.07z" class="S"/><path d="M1023.625 447.026h-1.278l5.14-3.722h89.07l5.11 3.722z" class="u"/><path d="M1023.625 399.956h-1.278l5.14 2.056h89.07l5.097-2.056z"/><path d="M1062.597 466.8v-19.764h17.125V466.8zm34.445-66.834V382.83h15.417v17.125zm-67.32 0V382.83h14.903v17.125z" class="R"/><path d="M1062.597 458.234v-6h17.125v6zm34.445-62.86v-5.57h15.417v5.57zm-67.32 0v-5.57h14.903v5.57z" class="v"/><path d="M1151.278 443.303v-41.292h89.07v41.292z" class="Z"/><path d="M1240.347 402.012l5.097-2.056.014 47.07-5.1-3.722m-89.07-.001V402.01l-5.14-2.056v47.07z" class="S"/><path d="M1146.14 447.026l5.14-3.722h89.07l5.11 3.722h-98.042z" class="u"/><path d="M1146.14 399.956l5.14 2.056h89.07l5.097-2.056h-98.028z"/><path d="M1186.4 466.8v-19.764h17.125V466.8zm34.443-66.834V382.83h15.417v17.125zm-67.32 0V382.83h14.903v17.125z" class="R"/><path d="M1186.4 458.234v-6h17.125v6zm34.443-62.86v-5.57h15.417v5.57zm-67.32 0v-5.57h14.903v5.57z" class="v"/><text y="1097.11" x="-1922.96" transform="matrix(0 -1 1 0 20.833 -.002)" class="B C M">NC</text><path d="M993.69 495.61v42.5h-93.75v-42.5z" class="n"/><path d="M988.69 500.085v33.056h-83.75v-33.056z" class="o"/><path d="M964.583 500.095v33.056h-37.5v-33.056z" class="G"/><path d="M993.7 495.6l-5 4.474v33.056l5 4.97zm-93.75 0l5 4.474v33.056l-5 4.97z" class="O"/><path d="M988.69 500.085v.75h-84.8v-.75z" class="P p"/><path d="M988.69 532.4v.75h-83.75v-.75z" class="P q"/><path d="M1118.69 495.61v42.5h-93.75v-42.5z" class="n"/><path d="M1113.69 500.085v33.056h-83.75v-33.056z" class="o"/><path d="M1089.583 500.095v33.056h-37.5v-33.056z" class="G"/><path d="M1118.7 495.6l-5 4.474v33.056l5 4.97zm-93.75 0l5 4.474v33.056l-5 4.97z" class="O"/><path d="M1113.69 500.085v.75h-84.8v-.75z" class="P p"/><path d="M1113.69 532.4v.75h-83.75v-.75z" class="P q"/><path d="M1243.69 495.61v42.5h-93.75v-42.5z" class="n"/><path d="M1238.69 500.085v33.056h-83.75v-33.056z" class="o"/><path d="M1214.583 500.095v33.056h-37.5v-33.056z" class="G"/><path d="M1243.7 495.6l-5 4.474v33.056l5 4.97zm-93.75 0l5 4.474v33.056l-5 4.97z" class="O"/><path d="M1238.69 500.085v.75h-84.8v-.75z" class="P p"/><path d="M1238.69 532.4v.75h-83.75v-.75z" class="P q"/><text y="483.908" x="850.011" transform="translate(20.833 -.002)" class="B C k">L</text><text y="483.908" x="1081.228" transform="translate(20.833 -.002)" class="B C k">RX</text><text y="483.908" x="958.092" transform="translate(20.833 -.002)" class="B C k">TX</text><text y="897.787" x="-274.23" transform="matrix(0 -1 1 0 20.833 -.002)" class="B C L">SDA</text><text y="803.563" x="-274.178" transform="matrix(0 -1 1 0 20.833 -.002)" class="B C L">SCL</text><path d="M1011.25 2068.707h-42.5v-93.75h42.5z" class="n"/><path d="M1006.776 2063.707H973.72v-83.75h33.056z" class="o"/><path d="M1006.766 2039.6H973.71v-37.5h33.056z" class="G"/><path d="M1011.25 2068.707l-4.474-5H973.72l-4.97 5zm0-93.75l-4.474 5H973.72l-4.97-5z" class="O"/><path d="M1006.776 2063.707h-.75v-84.8h.75z" class="P p"/><path d="M974.47 2063.707h-.75v-83.75h.75z" class="P q"/><path d="M584.166 2068.707h-42.5v-93.75h42.5z" class="n"/><path d="M579.693 2063.707h-33.056v-83.75h33.056z" class="o"/><path d="M579.683 2039.6h-33.056v-37.5h33.056z" class="G"/><path d="M584.166 2068.707l-4.474-5h-33.056l-4.97 5zm0-93.75l-4.474 5h-33.056l-4.97-5z" class="O"/><path d="M579.693 2063.707h-.75v-84.8h.75z" class="P p"/><path d="M547.387 2063.707h-.75v-83.75h.75z" class="P q"/><use xlink:href="#B" x="-700.946" class="B"/><g transform="matrix(0 -38.759701 38.759701 0 -41988.136 1817.9885)"><path d="M0 1118.82h7.6v3.225H0z" class="Y"/><path d="M.162 1122.52v-4.3h7.3v4.3z" class="W"/><path fill="#f60" d="M.162 1122.52v-4.3h1v4.3z" class="P"/><use xlink:href="#X" class="D X"/><text y="1120.038" dx="0 0 0" x="3.015" class="D X w x">477J</text><text y="1121.775" dx="0" x="1.969" word-spacing="0" class="D X w x">00705</text></g><g transform="matrix(0 -38.759701 38.759701 0 -41810.95 1817.9885)"><path d="M0 1118.82h7.6v3.225H0z" class="Y"/><path d="M.162 1122.52v-4.3h7.3v4.3z" class="W"/><path fill="#f60" d="M.162 1122.52v-4.3h1v4.3z" class="P"/><use xlink:href="#X" class="D X"/><text y="1120.038" dx="0 0 0" x="3.015" class="D X w x">477J</text><text y="1121.775" dx="0" x="1.969" word-spacing="0" class="D X w x">00705</text></g><text y="450.64" x="1681.023" transform="translate(-61.266 10.608)" class="B C M">TX</text><text y="525.21" x="1681.023" transform="translate(-61.266 10.608)" class="B M">RX</text><text y="599.78" x="1681.023" transform="translate(-61.266 10.608)" class="B C M">5V</text><text y="674.35" x="1681.023" transform="translate(-61.266 10.608)" class="B C M">GND</text><text y="450.64" x="1681.023" transform="translate(433.318 10.608)" class="B C M">SDA</text><text y="525.21" x="1681.023" transform="translate(433.318 10.608)" class="B M">SCL</text><text y="599.78" x="1681.023" transform="translate(433.318 10.608)" class="B C M">5V</text><text y="674.35" x="1681.023" transform="translate(433.318 10.608)" class="B C M">GND</text><defs ><path id="B" d="M2306.25 280.47c-6.958.278-10.514-3.472-10.514-8.278 0-2.917.875-5.14 3.14-9.806 1.68-3.528 2.93-6.097 2.93-8.667 0-2.514-2.028-3.694-5.847-3.764v-4.167c7.792-.347 10.5 3.68 10.5 8 0 2.778-.847 5.278-3.056 10.083-1.597 3.264-3.083 5.833-3.083 8.347s1.736 4.028 5.93 4.167z"/><path id="C" d="M1977.626 1948.542h44.75v102.89h-44.75v-102.89m0 51.458c0 12.347 10.028 22.292 22.36 22.292 12.36 0 22.347-10.014 22.347-22.292a22.36 22.36 0 0 0-22.347-22.375c-12.333 0-22.36 10.028-22.36 22.375z"/><path id="D" d="M2077.626 1948.542h44.736v102.89h-44.736v-102.89m0 51.458c0 12.347 10.014 22.292 22.347 22.292 12.36 0 22.333-10.014 22.333-22.292 0-12.417-10.028-22.375-22.333-22.375-12.333 0-22.347 10.028-22.347 22.375z"/><path id="E" d="M2177.612 1948.542h44.75v102.89h-44.75v-102.89m0 51.458c0 12.347 10.028 22.292 22.375 22.292s22.305-10.014 22.305-22.292c0-12.417-10.083-22.375-22.305-22.375-12.347 0-22.375 10.028-22.375 22.375z"/><path id="F" d="M2277.626 1948.542h44.736v102.89h-44.736v-102.89m0 51.458c0 12.347 10.014 22.292 22.292 22.292 12.43 0 22.375-10.014 22.375-22.292 0-12.417-10.07-22.375-22.375-22.375-12.278 0-22.292 10.028-22.292 22.375z"/><path id="G" d="M2377.626 1948.542h44.736v102.89h-44.736v-102.89m0 51.458c0 12.347 10.014 22.292 22.375 22.292 12.347 0 22.347-10.014 22.347-22.292 0-12.417-10.014-22.375-22.347-22.375-12.375 0-22.375 10.028-22.375 22.375z"/><path id="H" d="M1578.468 48.555h44.736v102.89h-44.736V48.555m0 51.444c0 12.347 10.014 22.36 22.375 22.36 12.347 0 22.347-10.014 22.347-22.36 0-12.36-10.014-22.36-22.347-22.36-12.375 0-22.375 10.014-22.375 22.36z"/><path id="I" d="M2575.343 48.555h44.75v102.89h-44.75V48.555m0 51.444c0 12.347 10.028 22.36 22.36 22.36 12.36 0 22.347-10.014 22.347-22.36 0-12.36-10.055-22.36-22.347-22.36-12.333 0-22.36 10.014-22.36 22.36z"/><path id="J" d="M2375.343 48.555h44.736v102.89h-44.736V48.555m0 51.444c0 12.347 10.014 22.36 22.292 22.36 12.43 0 22.375-10.014 22.375-22.36 0-12.36-10.07-22.36-22.375-22.36-12.278 0-22.292 10.014-22.292 22.36z"/><path id="K" d="M1980.71 1980.68h38.625v38.653h-38.625z"/><path id="L" d="M1966.432 1966.445v67.125l14.25-14.236v-38.653z"/><path id="M" d="M2166.446 1966.445v67.125l14.236-14.236v-38.653z"/><path id="N" d="M2525.618 950.5h101.028l20.986-20.972v-54.583l-20.986-21h-155.653l-20.986 21v54.583l20.986 20.972z"/><path id="O" d="M2525.618 1050.292h101.028l20.986-21.028v-54.61l-20.986-20.958h-155.653l-20.986 20.958v54.61l20.986 21.028z"/><path id="P" d="M2525.618 1149.958h101.028l20.986-20.93v-54.653l-20.986-21h-155.653l-20.986 21v54.653l20.986 20.93z"/><path id="Q" d="M1978.37 80.694l-14.25-14.236v67.11l14.25-14.236z"/><path id="R" d="M1280.708 1980.68h38.61v38.653h-38.61z"/><path id="S" d="M415.704 46.7l-.58 7.23h-1.735l.83-10.108c.567 0 1.092-.056 1.594.026.218.035.465.32.57.55l2.5 5.593.355-.64 2.087-4.723c.255-.62.573-.93 1.263-.814.312.052.64.01 1.038.01l.833 10.098h-1.722l-.606-7.356-.34.53-1.96 4.288c-.19.436-.394.652-.923.658-.555.006-.716-.284-.9-.69l-2.155-4.674-.146.024z"/><path id="T" d="M3.68 22.506h5.63v.195H3.68z"/><path id="U" d="M3.68 22.217h5.63v.196H3.68z"/><path id="V" d="M3.68 21.642h5.63v.194H3.68z"/><path id="W" d="M2.132 18.142h.992v6.236h-.992z"/><path id="X" d="M1.715 1119.95c-.06-.06-.056-.077.054-.338.177-.418.322-.64.417-.64.085 0 .248.263.423.688.097.234.1.3-.035.33-.076.02-.105-.013-.203-.224-.09-.196-.146-.272-.2-.272-.04 0-.106.098-.203.307s-.158.245-.255.148z"/></defs></svg>