<?xml version='1.0' encoding='UTF-8' standalone='no'?>
<!-- Created with Inkscape (http://www.inkscape.org/) -->
<svg xmlns="http://www.w3.org/2000/svg"  width="29.700001" xml:space="preserve" xmlns:xml="http://www.w3.org/XML/1998/namespace" version="1.1" height="29.700001" viewBox="0 0 23.760001 23.76" id="0">
 <desc   id="0.0">
  <referenceFile   id="0.0.0">svg.icon.LM124-324_Quad_Opamp.svg</referenceFile>
 </desc>
 <metadata   id="0.1" oldid="metadata6708">
  <rdf:RDF xmlns:rdf="http://www.w3.org/1999/02/22-rdf-syntax-ns#"  id="0.1.0">
   <cc:Work xmlns:cc="http://creativecommons.org/ns#"  rdf:about="" xmlns:rdf="http://www.w3.org/1999/02/22-rdf-syntax-ns#" id="0.1.0.0">
    <dc:format xmlns:dc="http://purl.org/dc/elements/1.1/"  id="0.1.0.0.0">image/svg+xml</dc:format>
    <dc:type xmlns:dc="http://purl.org/dc/elements/1.1/"  id="0.1.0.0.1" rdf:resource="http://purl.org/dc/dcmitype/StillImage" xmlns:rdf="http://www.w3.org/1999/02/22-rdf-syntax-ns#"/>
    <dc:title xmlns:dc="http://purl.org/dc/elements/1.1/"  id="0.1.0.0.2"/>
   </cc:Work>
  </rdf:RDF>
 </metadata>
 <defs   id="0.2" oldid="defs6706"/>
 <path   style="fill:#303030" id="middle" d="m 0,2.1499994 0,19.4499996 23.75,0 0,-19.4499996 -23.75,0 z"/>
 <path   style="fill:#3d3d3d" id="top" d="m 0,2.1499994 0,1.775 23.75,0 0,-1.775 -23.75,0 z"/>
 <path   id="bottom" d="m 0,19.824999 0,1.775 23.75,0 0,-1.775 -23.75,0 z"/>
 <polygon  points="0.54,3.931 0.54,19.829 0,21.601 0,2.16 "  style="fill:#1f1f1f" id="left"/>
 <polygon  points="0.403,11.88 3.6,11.88 3.6,8.28 0.54,8.251 0.403,9.777 "  style="fill:#1c1c1c" id="left-upper-rect"/>
 <polygon  points="0.403,11.88 0.403,13.981 0.54,15.517 3.6,15.517 3.6,11.88 "  style="fill:#383838" id="left-lower-rect"/>
 <path   style="fill:#262626" id="slot" d="m 0.403,9.7769994 v 4.1989996 c 1.059,-0.123 1.887,-1.009 1.887,-2.104 0,-1.095 -0.821,-1.9719996 -1.887,-2.0949996 z"/>
 <path   style="fill:#303030" id="cover" d="m 0.54,3.9309994 v 4.313 c 1.714,0.324 3.018,1.8209996 3.018,3.6289996 0,1.808 -1.298,3.312 -3.018,3.636 v 0.008 h 3.6 V 3.9309994 h -3.6 z"/>
 <circle  cx="4.6799998"  cy="16.898001" style="fill:#212121" r="1.483" id="circle13"/>
 <rect  width="2.1600001" x="2.52" y="20.636"  height="3.1240001" style="fill:#8c8c8c" id="connector0pin"/>
 <rect  width="2.1600001" x="2.52" y="21.601"  height="2.1589999" style="fill:#8c8c8c" id="rect6651"/>
 <polygon  points="6.12,21.413 6.12,20.636 2.52,20.636 2.52,22.075 4.68,22.075 "  style="fill:#8c8c8c" id="polygon18"/>
 <rect  width="2.1600001" x="2.52" y="-6.1035155e-07"  height="3.125" style="fill:#8c8c8c" id="connector13pin"/>
 <rect  width="2.1600001" x="2.52" y="-6.1035155e-07"  height="2.1600001" style="fill:#8c8c8c" id="rect6655"/>
 <polygon  points="2.52,1.685 2.52,3.125 6.12,3.125 6.12,2.347 4.68,1.685 "  style="fill:#8c8c8c" id="polygon22"/>
 <rect  width="2.158" x="9.7200003" y="20.636"  height="3.1240001" style="fill:#8c8c8c" id="connector1pin"/>
 <rect  width="2.158" x="9.7200003" y="21.601"  height="2.1589999" style="fill:#8c8c8c" id="rect6667"/>
 <polygon  points="8.28,21.413 9.72,22.075 11.88,22.075 13.32,21.413 13.32,20.636 8.28,20.636 "  style="fill:#8c8c8c" id="polygon34"/>
 <rect  width="2.158" x="9.7200003" y="-6.1035155e-07"  height="3.125" style="fill:#8c8c8c" id="connector12pin"/>
 <rect  width="2.158" x="9.7200003" y="-6.1035155e-07"  height="2.1600001" style="fill:#8c8c8c" id="rect6671"/>
 <polygon  points="13.32,2.347 11.88,1.685 9.72,1.685 8.28,2.347 8.28,3.125 13.32,3.125 "  style="fill:#8c8c8c" id="polygon38"/>
 <rect  width="2.1600001" x="16.92" y="20.636"  height="3.1240001" style="fill:#8c8c8c" id="connector2pin"/>
 <rect  width="2.1600001" x="16.92" y="21.601"  height="2.1589999" style="fill:#8c8c8c" id="rect6675"/>
 <polygon  points="15.48,21.413 16.92,22.075 19.08,22.075 20.52,21.413 20.52,20.636 15.48,20.636 "  style="fill:#8c8c8c" id="polygon42"/>
 <rect  width="2.1600001" x="16.92" y="-6.1035155e-07"  height="3.125" style="fill:#8c8c8c" id="connector11pin"/>
 <rect  width="2.1600001" x="16.92" y="-6.1035155e-07"  height="2.1600001" style="fill:#8c8c8c" id="rect6679"/>
 <polygon  points="20.52,2.347 19.08,1.685 16.92,1.685 15.48,2.347 15.48,3.125 20.52,3.125 "  style="fill:#8c8c8c" id="polygon46"/>
 <path   style="fill:#8c8c8c" id="polygon50" d="m 22.675,20.624999 0,0.8 1.075,0.475 0,-1.275 -1.075,0 z"/>
 <path   style="fill:#8c8c8c" id="polygon54" d="m 23.75,1.8499994 -1.075,0.5 0,0.775 1.075,0 0,-1.275 z"/>
 <g  xml:space="preserve" xmlns:xml="http://www.w3.org/XML/1998/namespace" fill="#b3b3b3"  stroke="none" style="font-style:normal;font-variant:normal;font-weight:bold;font-stretch:normal;line-height:125%;letter-spacing:0px;word-spacing:0px;font-family:Droid Sans;-inkscape-font-specification:Droid Sans Bold" fill-opacity="1" id="text3012" font-size="5.12">
  <text  x="3.9264407" y="14.192186"  id="tspan3014">LM124</text>
 </g>
</svg>
