<?xml version='1.0' encoding='utf-8'?>
<!-- Generator: Adobe Illustrator 19.0.0, SVG Export Plug-In . SVG Version: 6.00 Build 0)  -->
<svg xmlns="http://www.w3.org/2000/svg" y="0px" x="0px"  gorn="0" height="0.444444in" xml:space="preserve" id="Ebene_1" version="1.2" xmlns:xml="http://www.w3.org/XML/1998/namespace" viewBox="0 0 32 32" width="0.444444in" baseProfile="tiny">
    <desc >
        <referenceFile >Untitled Sketch 5_ii.svg</referenceFile>
    </desc>
    <g  transform="translate(172,-267.9)">
        <g >
            <g >
                <g >
                    <g >
                        <g >
                            <g >
                                <g >
                                    <g >
                                        <g  gorn="0.1.0.0.0.0.0.0.0.0.0" id="icon">
                                            <path  d="M-143.9,268.8H-156v2c3.5,0,6.4,2,6.4,4.5s-2.9,4.5-6.4,4.5v6.6h12.1V268.8z" fill="#BFBCBC"/>
                                            <path  d="M-162.4,275.3c0-2.5,2.9-4.5,6.4-4.5v-2h-12.1v17.5h12.1v-6.5C-159.5,279.8-162.4,277.8-162.4,275.3z" fill="#808080"/>
                                            <rect y="306.1" x="-165.3"  gorn="0.1.0.0.0.0.0.0.0.0.0.2" height="24.9" id="rect4" fill="#8C8C8C" width="2.4"/>
                                            <rect y="306.1" x="-157.2"  gorn="0.1.0.0.0.0.0.0.0.0.0.3" height="24.9" id="rect6" fill="#8C8C8C" width="2.4"/>
                                            <rect y="306.1" x="-149.1"  gorn="0.1.0.0.0.0.0.0.0.0.0.4" height="24.9" id="rect8" fill="#8C8C8C" width="2.4"/>
                                            <polygon  gorn="0.1.0.0.0.0.0.0.0.0.0.5" id="polygon10" points="-171,272.1 -171,282.9 -168.1,282.9 -168.1,268.8 " fill="#CCCCCC"/>
                                            <polygon  gorn="0.1.0.0.0.0.0.0.0.0.0.6" id="polygon12" points="-141,272.1 -143.9,268.8 -143.9,282.9 -141,282.9 " fill="#999999"/>
                                            <polygon  gorn="0.1.0.0.0.0.0.0.0.0.0.7" id="polygon21" points="-161.3,314.3 -163.1,315.1 -165.1,315.1 -166.9,314.3 -166.9,304.5 -161.3,304.5 " fill="#8C8C8C"/>
                                            <polygon  gorn="0.1.0.0.0.0.0.0.0.0.0.8" id="polygon23" points="-153.2,314.3 -155,315.1 -157,315.1 -158.8,314.3 -158.8,304.5 -153.2,304.5 " fill="#8C8C8C"/>
                                            <polygon  gorn="0.1.0.0.0.0.0.0.0.0.0.9" id="polygon25" points="-145.1,314.3 -146.9,315.1 -148.9,315.1 -150.7,314.3 -150.7,304.5 -145.1,304.5 " fill="#8C8C8C"/>
                                            <rect y="294" x="-150.7"  height="18" fill="#141414" width="9.7"/>
                                            <rect y="294" x="-171"  height="18" fill="#333333" width="9.7"/>
                                            <path  gorn="0.1.0.0.0.0.0.0.0.0.0.12" d="M-171,300.5v5.8c2.3,0,4.2-1.3,4.2-2.9C-166.8,301.8-168.7,300.5-171,300.5z" id="path40_1_" fill="#262626"/>
                                            <path  gorn="0.1.0.0.0.0.0.0.0.0.0.13" d="M-141,300.5c-2.3,0-4.2,1.3-4.2,2.9s1.9,2.9,4.2,2.9V300.5z" id="path47"/>
                                            <path  d="M-171,294v8c2.3,0,4.2,1.3,4.2,2.9s-1.9,2.9-4.2,2.9v4.2h30v-18H-171z M-141,307.8c-2.3,0-4.2-1.3-4.2-2.9s1.9-2.9,4.2-2.9V307.8z" fill="#1A1A1A"/>
                                            <rect y="290.2" x="-171"  gorn="0.1.0.0.0.0.0.0.0.0.0.15" height="3.8" id="rect49" width="30"/>
                                            <rect y="285.5" x="-171"  gorn="0.1.0.0.0.0.0.0.0.0.0.16" height="4.7" id="rect51" fill="#333333" width="30"/>
                                            <rect y="268.8" x="-168.1"  gorn="0.1.0.0.0.0.0.0.0.0.0.17" height="3.4" id="rect53" fill="#B2B2B2" width="24.3"/>
                                            <path  gorn="0.1.0.0.0.0.0.0.0.0.0.18" d="M-143.9,271.5h-24.3l-2.8,3.3v10.8h30v-10.8L-143.9,271.5z M-156,282.4c-3.5,0-6.4-2-6.4-4.5s2.9-4.5,6.4-4.5s6.4,2,6.4,4.5S-152.5,282.4-156,282.4z" id="path55" fill="#8C8C8C"/>
                                            <text y="299" x="-166.5"  gorn="0.1.0.0.0.0.0.0.0.0.0.19" font-size="6" stroke-width="30" id="text176" fill="#dddddd" font-family="Droid Sans">LM2596</text>
                                        </g>
                                    </g>
                                </g>
                            </g>
                        </g>
                    </g>
                </g>
            </g>
        </g>
    </g>
</svg>
