<?xml version="1.0" encoding="UTF-8"?>
<svg width="6.2mm" height="6.2mm" baseProfile="tiny" version="1.2" viewBox="0 0 62 62" xmlns="http://www.w3.org/2000/svg">
	<g id="icon" transform="translate(83 99) rotate(180)">
		<g transform="translate(52.5 74)" fill="#dfdaca">
			<path d="m16.5-15v38.5h-33v-38.5z" fill="#dfdaca"/>
			<path d="m20 15v-21.5h-3.5v21.5h3.5" fill="#cac3ac"/>
			<path d="m-16.5-6.5v21.5h-3.5v-21.5h3.5" fill="#cac3ac"/>
			<path d="m-16.5 15v-2h-3.5v2h3.5" fill="#b9b3a6"/>
			<path d="m20 15v-2h-3.5v2h3.5" fill="#b9b3a6"/>
			<path d="m16.5 23.5-1.5 1.5h-30l-1.5-1.5h33" fill="#b9b3a6"/>
			<path d="m-28.5-25h57m-57 0c-0.8284 0-1.5 0.6716-1.5 1.5v7c0 0.8284 0.6716 1.5 1.5 1.5h8.5v8.5h7.5v-8.5h5.5v8.5h4.5v-8.5h5.5v8.5h4.5v-8.5h5.5v8.5h7.25v-8.5h8.5c1 0 1.5-0.6 1.5-1.5v-7c0-0.8284-0.6716-1.5-1.5-1.5"/>
			<path d="m-20-6.5h7.5v-8.5h5.5v8.5h4.5v-8.5h5.5v8.5h4.5v-8.5h5.5v8.5h7.25" stroke="#cac3ac" stroke-width="1.5"/>
			<path d="m7.5-23h5.5l-2.75 5z" fill="#cac3ac" stroke-width=".5"/>
			<path d="m10-25c0 -6 -6 -10-6 -16" stroke="black" stroke-width="6"/>
			<path d="m-10-25c0 -6 6 -10 6 -16" stroke="red" stroke-width="6"/>
			<path d="m0-25c0 -6 0 -10 0 -16" stroke="blue" stroke-width="6"/>
		</g>
	</g>
</svg>
