<?xml version='1.0' encoding='utf-8'?>
<svg xmlns="http://www.w3.org/2000/svg" height="0.33in" width="0.8in" version="1.2" baseProfile="tiny" gorn="0"  id="svg2" viewBox="0 0 80 33">
    <desc >
        <referenceFile >generic_ic_dip_16_300mil_bread.svg</referenceFile>
    </desc>
    <g gorn="0.1"  id="breadboard">
        <rect y="3" height="27" width="80" gorn="0.1.0" fill="#303030"  id="middle" x="0"/>
        <rect y="3.0" height="2.46" width="80" gorn="0.1.1" fill="#3D3D3D"  id="top" x="0"/>
        <rect y="27.54" height="2.46" width="80" gorn="0.1.2" fill="#000000"  id="bottom" x="0"/>
        <polygon points="80,3 79.25,5.46 79.25,27.54 80,30" gorn="0.1.3" fill="#141414"  id="right"/>
        <polygon points="0,3 0.75,5.46 0.75,27.54 0,30" gorn="0.1.4" fill="#1F1F1F"  id="left"/>
        <polygon points="5,11.5 0.75,11.46 0.56,13.58 0.56,16.5 5,16.5" gorn="0.1.5" fill="#1C1C1C"  id="left-upper-rect"/>
        <polygon points="0.75,21.55 5,21.55 5,16.5 0.56,16.5 0.56,19.42" gorn="0.1.6" fill="#383838"  id="left-lower-rect"/>
        <path gorn="0.1.7" fill="#262626"  d="M0.56,13.58v5.83c1.47-0.17,2.62-1.4,2.62-2.92C3.18,14.97,2.04,13.75,0.56,13.58z" id="slot"/>
        <path gorn="0.1.8" fill="#303030"  d="M0.75,5.46V11.45c2.38,0.45,4.19,2.53,4.19,5.04c0,2.51-1.8,4.6-4.19,5.05V21.55h5.0V5.46H0.75z" id="cover"/>
        <circle cy="23.47" r="2.06" fill="#212121" cx="6.5" />
        <text y="16.5" stroke="none" text-anchor="start" gorn="0.1.10" fill="#e6e6e6"  font-family="OCRA" id="label" font-size="8" x="6.5">MCP3008</text>
        <rect y="28.66" height="4.34" width="3" gorn="0.1.11" fill="#8C8C8C"  id="connector0pin" x="3.5"/>
        <rect y="30" height="3" width="3" gorn="0.1.12" fill="#8C8C8C"  id="connector0terminal" x="3.5"/>
        <polygon points="3.5,28.66 3.5,30.66 6.5,30.66 8.5,29.74 8.5,28.66 " fill="#8C8C8C" />
        <rect height="4.34" width="3" gorn="0.1.14" fill="#8C8C8C"  id="connector15pin" x="3.5"/>
        <rect height="3" width="3" gorn="0.1.15" fill="#8C8C8C"  id="connector15terminal" x="3.5"/>
        <polygon points="8.5,4.34 8.5,3.26 6.5,2.34 3.5,2.34 3.5,4.34" fill="#8C8C8C" />
        <rect y="28.66" height="4.34" width="3" gorn="0.1.17" fill="#8C8C8C"  id="connector7pin" x="73.5"/>
        <rect y="30" height="3" width="3" gorn="0.1.18" fill="#8C8C8C"  id="connector7terminal" x="73.5"/>
        <polygon points="71.5,28.66 71.5,29.74 73.5,30.66 76.5,30.66 76.5,28.66" fill="#8C8C8C" />
        <rect y="0" height="4.34" width="3" gorn="0.1.20" fill="#8C8C8C"  id="connector8pin" x="73.5"/>
        <rect y="0" height="3" width="3" gorn="0.1.21" fill="#8C8C8C"  id="connector8terminal" x="73.5"/>
        <polygon points="76.5,4.34 76.5,2.34 73.5,2.34 71.5,3.26 71.5,4.34 " fill="#8C8C8C" />
        <rect y="0" height="4.34" width="3" gorn="0.1.23" fill="#8C8C8C"  id="connector14pin" x="13.5"/>
        <rect height="3" width="3" gorn="0.1.24" fill="#8C8C8C"  id="connector14terminal" x="13.5"/>
        <polygon points="18.5,4.34 18.5,3.26 16.5,2.34 13.5,2.34 11.5,3.26 11.5,4.34" fill="#8C8C8C" />
        <rect y="0" height="4.34" width="3" gorn="0.1.26" fill="#8C8C8C"  id="connector13pin" x="23.5"/>
        <rect height="3" width="3" gorn="0.1.27" fill="#8C8C8C"  id="connector13terminal" x="23.5"/>
        <polygon points="28.5,4.34 28.5,3.26 26.5,2.34 23.5,2.34 21.5,3.26 21.5,4.34" fill="#8C8C8C" />
        <rect y="0" height="4.34" width="3" gorn="0.1.29" fill="#8C8C8C"  id="connector12pin" x="33.5"/>
        <rect height="3" width="3" gorn="0.1.30" fill="#8C8C8C"  id="connector12terminal" x="33.5"/>
        <polygon points="38.5,4.34 38.5,3.26 36.5,2.34 33.5,2.34 31.5,3.26 31.5,4.34" fill="#8C8C8C" />
        <rect y="0" height="4.34" width="3" gorn="0.1.32" fill="#8C8C8C"  id="connector11pin" x="43.5"/>
        <rect height="3" width="3" gorn="0.1.33" fill="#8C8C8C"  id="connector11terminal" x="43.5"/>
        <polygon points="48.5,4.34 48.5,3.26 46.5,2.34 43.5,2.34 41.5,3.26 41.5,4.34" fill="#8C8C8C" />
        <rect y="0" height="4.34" width="3" gorn="0.1.35" fill="#8C8C8C"  id="connector10pin" x="53.5"/>
        <rect height="3" width="3" gorn="0.1.36" fill="#8C8C8C"  id="connector10terminal" x="53.5"/>
        <polygon points="58.5,4.34 58.5,3.26 56.5,2.34 53.5,2.34 51.5,3.26 51.5,4.34" fill="#8C8C8C" />
        <rect y="0" height="4.34" width="3" gorn="0.1.38" fill="#8C8C8C"  id="connector9pin" x="63.5"/>
        <rect height="3" width="3" gorn="0.1.39" fill="#8C8C8C"  id="connector9terminal" x="63.5"/>
        <polygon points="68.5,4.34 68.5,3.26 66.5,2.34 63.5,2.34 61.5,3.26 61.5,4.34" fill="#8C8C8C" />
        <rect y="28.66" height="4.34" width="3" gorn="0.1.41" fill="#8C8C8C"  id="connector1pin" x="13.5"/>
        <rect y="30" height="3" width="3" gorn="0.1.42" fill="#8C8C8C"  id="connector1terminal" x="13.5"/>
        <polygon points="11.5,28.66 11.5,29.74 13.5,30.66 16.5,30.66 18.5,29.74 18.5,28.66" fill="#8C8C8C" />
        <rect y="28.66" height="4.34" width="3" gorn="0.1.44" fill="#8C8C8C"  id="connector2pin" x="23.5"/>
        <rect y="30" height="3" width="3" gorn="0.1.45" fill="#8C8C8C"  id="connector2terminal" x="23.5"/>
        <polygon points="21.5,28.66 21.5,29.74 23.5,30.66 26.5,30.66 28.5,29.74 28.5,28.66" fill="#8C8C8C" />
        <rect y="28.66" height="4.34" width="3" gorn="0.1.47" fill="#8C8C8C"  id="connector3pin" x="33.5"/>
        <rect y="30" height="3" width="3" gorn="0.1.48" fill="#8C8C8C"  id="connector3terminal" x="33.5"/>
        <polygon points="31.5,28.66 31.5,29.74 33.5,30.66 36.5,30.66 38.5,29.74 38.5,28.66" fill="#8C8C8C" />
        <rect y="28.66" height="4.34" width="3" gorn="0.1.50" fill="#8C8C8C"  id="connector4pin" x="43.5"/>
        <rect y="30" height="3" width="3" gorn="0.1.51" fill="#8C8C8C"  id="connector4terminal" x="43.5"/>
        <polygon points="41.5,28.66 41.5,29.74 43.5,30.66 46.5,30.66 48.5,29.74 48.5,28.66" fill="#8C8C8C" />
        <rect y="28.66" height="4.34" width="3" gorn="0.1.53" fill="#8C8C8C"  id="connector5pin" x="53.5"/>
        <rect y="30" height="3" width="3" gorn="0.1.54" fill="#8C8C8C"  id="connector5terminal" x="53.5"/>
        <polygon points="51.5,28.66 51.5,29.74 53.5,30.66 56.5,30.66 58.5,29.74 58.5,28.66" fill="#8C8C8C" />
        <rect y="28.66" height="4.34" width="3" gorn="0.1.56" fill="#8C8C8C"  id="connector6pin" x="63.5"/>
        <rect y="30" height="3" width="3" gorn="0.1.57" fill="#8C8C8C"  id="connector6terminal" x="63.5"/>
        <polygon points="61.5,28.66 61.5,29.74 63.5,30.66 66.5,30.66 68.5,29.74 68.5,28.66" fill="#8C8C8C" />
    </g>
</svg>
