<?xml version='1.0' encoding='utf-8'?>
<!-- Generator: Adobe Illustrator 19.0.0, SVG Export Plug-In . SVG Version: 6.00 Build 0)  -->
<svg xmlns="http://www.w3.org/2000/svg" y="0px" x="0px"  gorn="0" height="0.44444in" xml:space="preserve" id="Ebene_1" version="1.2" xmlns:xml="http://www.w3.org/XML/1998/namespace" viewBox="0 0 32 38" baseProfile="tiny" width="0.444444in">
    <g  transform="translate(0,-6)">
        <g >
            <g >
                <g >
                    <desc >
                        <referenceFile >Untitled Sketch 5_ii.svg</referenceFile>
                    </desc>
                    <g  transform="translate(172,-267.9)">
                        <g >
                            <g >
                                <g >
                                    <g  gorn="0.0.0.0.0.1.0.0.0.0" id="icon">
                                        <polygon  gorn="0.0.0.0.0.1.0.0.0.0.0" id="polygon10" points="-171,281.1 -171,291.9 -168.1,291.9 -168.1,277.8 " fill="#CCCCCC"/>
                                        <polygon  gorn="0.0.0.0.0.1.0.0.0.0.1" id="polygon12" points="-141,281.1 -143.9,277.8 -143.9,291.9 -141,291.9 " fill="#999999"/>
                                        <rect y="277.8" x="-168.1"  gorn="0.0.0.0.0.1.0.0.0.0.2" height="3.4" id="rect53" fill="#B2B2B2" width="24.3"/>
                                        <path  gorn="0.0.0.0.0.1.0.0.0.0.3" id="path55" d="M-143.9,280.5h-24.3l-2.8,3.3v10.8h30v-10.8L-143.9,280.5z" fill="#8C8C8C"/>
                                        <rect y="290.2" x="-171"  gorn="0.0.0.0.0.1.0.0.0.0.4" height="3.8" id="rect49" width="30"/>
                                        <rect y="285.5" x="-171"  gorn="0.0.0.0.0.1.0.0.0.0.5" height="4.7" id="rect51" fill="#333333" width="30"/>
                                        <rect y="294" x="-150.7"  height="18" fill="#141414" width="9.7"/>
                                        <rect y="294" x="-171"  height="18" fill="#333333" width="9.7"/>
                                        <path  gorn="0.0.0.0.0.1.0.0.0.0.8" id="path40_1_" d="M-171,300.5v5.8c2.3,0,4.2-1.3,4.2-2.9C-166.8,301.8-168.7,300.5-171,300.5z" fill="#262626"/>
                                        <path  gorn="0.0.0.0.0.1.0.0.0.0.9" id="path47" d="M-141,300.5c-2.3,0-4.2,1.3-4.2,2.9s1.9,2.9,4.2,2.9V300.5z"/>
                                        <path  d="M-171,294v8c2.3,0,4.2,1.3,4.2,2.9s-1.9,2.9-4.2,2.9v4.2h30v-18H-171z M-141,307.8c-2.3,0-4.2-1.3-4.2-2.9s1.9-2.9,4.2-2.9V307.8z" fill="#1A1A1A"/>
                                        <text y="300" x="-168.5"  gorn="0.0.0.0.0.1.0.0.0.0.11" font-size="7" stroke-width="30" id="text176" fill="#dddddd" font-family="Droid Sans">MIC2171</text>
                                    </g>
                                </g>
                            </g>
                        </g>
                    </g>
                </g>
            </g>
        </g>
    </g>
</svg>
