<svg xmlns="http://www.w3.org/2000/svg" xmlns:xlink="http://www.w3.org/1999/xlink" width="19" height="23" viewBox="0 0 18.708 22.165"><g fill="#ccc"><path d="M0 9.355h18.708v3.456H0z"/><circle cx="9.354" cy="12.811" r="9.354"/></g><path opacity=".2" d="M0 12.56c0 5.166 4.188 9.354 9.354 9.354s9.354-4.188 9.354-9.354v.252c0 5.166-4.188 9.354-9.354 9.354S0 17.977 0 12.81v-.252z"/><circle fill="#e6e6e6" cx="9.354" cy="9.355" r="9.354"/><path opacity=".2" fill="#1a1a1a" d="M0 9.194c0 5.166 4.188 9.354 9.354 9.354s9.354-4.188 9.354-9.354v.16c0 5.166-4.188 9.354-9.354 9.354S0 14.52 0 9.355v-.16z"/><path opacity=".2" fill="#fff" d="M0 9.594C0 4.428 4.188.24 9.354.24s9.354 4.188 9.354 9.354v-.24C18.708 4.19 14.52 0 9.354 0S0 4.19 0 9.355v.24z"/><circle fill="#1a1a1a" cx="9.354" cy="9.355" r="7.694"/><path d="M1.66 9.602c0 4.25 3.444 7.694 7.694 7.694s7.694-3.445 7.694-7.694v-.247c0 4.25-3.445 7.694-7.694 7.694S1.66 13.604 1.66 9.355v.247z"/><path d="M16 13.218l.14-.24-.19.19.048.05z"/><use xlink:href="#B"/><use xlink:href="#C"/><use xlink:href="#B" x="0.75" y="-0.75"/><use xlink:href="#C" x="-0.375" y="0.374"/><path d="M15.576 13.543l.14.14.18-.29-.084-.084-.235.234z"/><use xlink:href="#B" x="0.374" y="-0.374"/><path d="M13.56 15.56l-.234.234.088.1.277-.174h.01l-.14-.14zm-.584.582l.264-.153-.055-.055-.2.208z"/><use xlink:href="#B" y="-0.75"/><path d="M11.68 16.7l.008-.003-.002-.003z"/><use xlink:href="#B" x="-0.75"/><use xlink:href="#C" x="0.75" y="-1.5"/><use xlink:href="#C" y="-0.75"/><path d="M16.326 12.043l.14.14.06-.06.094-.255-.06-.06-.235.235z"/><use xlink:href="#B" x="-1.5" y="0.75"/><use xlink:href="#B" x="-0.376" y="-0.374"/><use xlink:href="#C" x="0.375" y="-1.126"/><use xlink:href="#B" x="-1.126" y="0.376"/><use xlink:href="#B" x="0.374" y="-1.124"/><use xlink:href="#C" x="-0.75"/><path d="M12.06 16.31l-.234.234.068.068.23-.084.078-.078-.14-.14z"/><use xlink:href="#C" x="-0.375" y="-0.376"/><use xlink:href="#C" x="0.375" y="-1.876"/><use xlink:href="#C" x="-1.125" y="-0.376"/><path d="M16.84 11.06l.014-.015.068-.35-.223.223.14.142z"/><use xlink:href="#B" x="-1.5"/><use xlink:href="#B" x="-2.626" y="1.126"/><use xlink:href="#C" x="0.75" y="-2.25"/><path d="M10.935 16.684l-.234.234.004.005.338-.065.033-.033-.14-.14z"/><use xlink:href="#B" x="-1.126" y="-0.374"/><use xlink:href="#D"/><use xlink:href="#B" x="-0.75" y="-0.75"/><use xlink:href="#B" y="-1.5"/><use xlink:href="#C" y="-1.5"/><use xlink:href="#B" x="-0.376" y="-1.124"/><use xlink:href="#C" x="-0.375" y="-1.126"/><use xlink:href="#B" x="-1.876" y="0.376"/><use xlink:href="#B" x="-2.25" y="0.75"/><use xlink:href="#C" x="-0.75" y="-0.75"/><path d="M10.185 16.684l-.235.234.096.096.095-.005.185-.185-.14-.14z"/><use xlink:href="#D" x="-1.5" y="0.75"/><use xlink:href="#B" x="-1.876" y="-0.374"/><use xlink:href="#B" x="-0.376" y="-1.874"/><use xlink:href="#D" x="-1.126" y="0.375"/><use xlink:href="#D" x="-2.626" y="1.875"/><use xlink:href="#D" x="-0.75"/><use xlink:href="#D" x="-1.876" y="1.125"/><use xlink:href="#B" x="-3" y="0.75"/><use xlink:href="#D" x="-2.25" y="1.5"/><use xlink:href="#B" x="-1.126" y="-1.124"/><use xlink:href="#B" x="-0.75" y="-1.5"/><use xlink:href="#B" x="-3.376" y="1.126"/><use xlink:href="#B" x="-2.626" y="0.376"/><use xlink:href="#D" y="-0.75"/><use xlink:href="#B" x="-2.25"/><path d="M16.7 10.167l.14.142.166-.167c.006-.042.004-.086.008-.128l-.08-.08-.235.233z"/><use xlink:href="#B" x="-1.5" y="-0.75"/><use xlink:href="#D" x="-0.376" y="-0.375"/><use xlink:href="#B" x="-3.751" y="0.75"/><use xlink:href="#B" x="-0.75" y="-2.25"/><use xlink:href="#B" x="-1.876" y="-1.124"/><use xlink:href="#D" x="-1.876" y="0.375"/><use xlink:href="#B" x="-1.126" y="-1.874"/><use xlink:href="#D" y="-1.5"/><path d="M16.7 9.417l.14.142.207-.207c0-.02-.004-.038-.004-.058l-.11-.1-.235.233z"/><use xlink:href="#D" x="-2.626" y="1.125"/><use xlink:href="#B" x="-2.626" y="-0.374"/><use xlink:href="#D" x="-1.126" y="-0.375"/><use xlink:href="#D" x="-3" y="1.5"/><use xlink:href="#B" x="-1.5" y="-1.5"/><use xlink:href="#B" x="-3.376" y="0.376"/><use xlink:href="#B" x="-3"/><use xlink:href="#D" x="-0.75" y="-0.75"/><use xlink:href="#B" x="-2.25" y="-0.75"/><use xlink:href="#D" x="-2.25" y="0.75"/><use xlink:href="#D" x="-0.376" y="-1.125"/><use xlink:href="#B" x="-4.126" y="1.126"/><path d="M9.434 16.684l-.234.234.13.13.02.001.225-.225-.142-.14z"/><use xlink:href="#D" x="-1.5"/><use xlink:href="#B" x="-3.751"/><use xlink:href="#D" x="-3" y="0.75"/><use xlink:href="#B" x="-2.25" y="-1.5"/><use xlink:href="#D" x="-2.25"/><use xlink:href="#B" x="-1.5" y="-2.25"/><path d="M16.7 8.667l.14.142.17-.17-.014-.14-.063-.063-.234.233z"/><use xlink:href="#B" x="-1.126" y="-2.624"/><use xlink:href="#B" x="-3" y="-0.75"/><use xlink:href="#D" x="-0.376" y="-1.875"/><use xlink:href="#B" x="-2.626" y="-1.124"/><use xlink:href="#B" x="-1.876" y="-1.874"/><use xlink:href="#B" x="-4.126" y="0.376"/><path d="M8.684 16.684l-.234.234.087.086.1.01.188-.188-.14-.14z"/><use xlink:href="#D" x="-1.876" y="-0.375"/><use xlink:href="#B" x="-4.501" y="0.75"/><use xlink:href="#D" x="-0.75" y="-1.5"/><use xlink:href="#D" x="-1.5" y="-0.75"/><use xlink:href="#B" x="-3.376" y="-0.374"/><use xlink:href="#D" x="-3.376" y="1.125"/><use xlink:href="#D" x="-1.126" y="-1.125"/><use xlink:href="#B" x="-4.876" y="1.126"/><use xlink:href="#D" y="-2.25"/><use xlink:href="#D" x="-2.626" y="0.375"/><use xlink:href="#B" x="-3" y="-1.5"/><use xlink:href="#D" x="-1.126" y="-1.875"/><use xlink:href="#D" x="-2.626" y="-0.375"/><use xlink:href="#E"/><path d="M16.84 8.06l.078-.077-.043-.24-.176.175.14.14z"/><use xlink:href="#B" x="-1.876" y="-2.624"/><use xlink:href="#B" x="-1.5" y="-3"/><use xlink:href="#D" x="-0.75" y="-2.25"/><use xlink:href="#B" x="-2.626" y="-1.874"/><use xlink:href="#D" x="-2.25" y="-0.75"/><use xlink:href="#B" x="-3.376" y="-1.124"/><use xlink:href="#D" x="-0.376" y="-2.625"/><use xlink:href="#D" x="-1.876" y="-1.125"/><use xlink:href="#D" x="-1.5" y="-1.5"/><use xlink:href="#D" x="-3"/><use xlink:href="#B" x="-2.25" y="-2.25"/><use xlink:href="#B" x="-5.251" y="0.75"/><use xlink:href="#B" x="-4.876" y="0.376"/><use xlink:href="#D" x="-3.75" y="0.75"/><use xlink:href="#B" x="-4.501"/><use xlink:href="#D" x="-3.376" y="0.375"/><use xlink:href="#B" x="-5.626" y="1.126"/><path d="M7.934 16.684l-.192.192.238.044.095-.096-.14-.14z"/><use xlink:href="#B" x="-4.126" y="-0.374"/><use xlink:href="#B" x="-3.751" y="-0.75"/><use xlink:href="#D" y="-3.75"/><use xlink:href="#D" x="-1.876" y="-1.875"/><use xlink:href="#B" x="-2.626" y="-2.624"/><use xlink:href="#D" x="-3.376" y="-0.375"/><use xlink:href="#B" x="-6.001" y="0.75"/><use xlink:href="#B" x="-3" y="-2.25"/><use xlink:href="#E" x="-0.75"/><path d="M7.145 16.723c.035.01.07.018.106.027l-.067-.066-.04.04z"/><use xlink:href="#B" x="-3.376" y="-1.874"/><path d="M16.738 7.205l-.016-.06-.02.02.037.04z"/><use xlink:href="#B" x="-5.251"/><use xlink:href="#B" x="-2.25" y="-3"/><use xlink:href="#D" x="-1.126" y="-2.625"/><use xlink:href="#D" x="-2.25" y="-1.5"/><use xlink:href="#D" x="-3.75"/><use xlink:href="#B" x="-4.501" y="-0.75"/><use xlink:href="#D" x="-1.5" y="-2.25"/><use xlink:href="#E" x="-0.376" y="-0.375"/><use xlink:href="#B" x="-5.626" y="0.376"/><use xlink:href="#D" x="-3" y="-0.75"/><use xlink:href="#B" x="-3.751" y="-1.5"/><use xlink:href="#D" x="-2.626" y="-1.125"/><use xlink:href="#B" x="-6.376" y="1.126"/><use xlink:href="#B" x="-4.876" y="-0.374"/><use xlink:href="#B" x="-1.876" y="-3.374"/><use xlink:href="#B" x="-4.126" y="-1.124"/><use xlink:href="#D" x="-4.126" y="0.375"/><use xlink:href="#B" x="-4.876" y="-1.124"/><use xlink:href="#B" x="-3.751" y="-2.25"/><use xlink:href="#B" x="-6.376" y="0.376"/><use xlink:href="#D" x="-3.75" y="-0.75"/><path d="M6.81 16.31l-.22.22.207.075.154-.154-.14-.14z"/><use xlink:href="#D" x="-0.376" y="-4.125"/><use xlink:href="#D" x="-4.126" y="-0.375"/><use xlink:href="#D" x="-3.376" y="-1.125"/><use xlink:href="#B" x="-2.25" y="-3.75"/><use xlink:href="#E" x="-1.5"/><use xlink:href="#B" x="-6.001"/><use xlink:href="#D" x="-1.876" y="-2.625"/><use xlink:href="#B" x="-2.626" y="-3.374"/><use xlink:href="#E" x="-1.126" y="-0.375"/><use xlink:href="#B" x="-3" y="-3"/><use xlink:href="#B" x="-5.626" y="-0.374"/><use xlink:href="#E" x="-0.75" y="-0.75"/><use xlink:href="#B" x="-4.126" y="-1.874"/><use xlink:href="#D" x="-2.25" y="-2.25"/><use xlink:href="#B" x="-6.751" y="0.75"/><use xlink:href="#B" x="-4.501" y="-1.5"/><use xlink:href="#D" x="-2.626" y="-1.875"/><use xlink:href="#B" x="-5.251" y="-0.75"/><use xlink:href="#B" x="-3.376" y="-2.624"/><use xlink:href="#D" x="-3" y="-1.5"/><path d="M16.466 6.934l.137-.137-.076-.207-.2.202.14.142z"/><use xlink:href="#D" x="-4.5"/><use xlink:href="#B" x="-3" y="-3.75"/><use xlink:href="#D" x="-0.75" y="-4.5"/><use xlink:href="#D" x="-4.126" y="-1.125"/><use xlink:href="#B" x="-6.751"/><use xlink:href="#B" x="-6.376" y="-0.374"/><use xlink:href="#D" x="-4.5" y="-0.75"/><use xlink:href="#E" x="-1.5" y="-0.75"/><use xlink:href="#D" x="-0.376" y="-4.875"/><use xlink:href="#E" x="-2.25"/><use xlink:href="#B" x="-7.501" y="0.75"/><use xlink:href="#D" x="-3" y="-2.25"/><use xlink:href="#B" x="-5.251" y="-1.5"/><use xlink:href="#E" x="-1.876" y="-0.375"/><use xlink:href="#B" x="-4.126" y="-2.624"/><use xlink:href="#B" x="-4.876" y="-1.874"/><use xlink:href="#B" x="-6.001" y="-0.75"/><use xlink:href="#B" x="-3.376" y="-3.374"/><use xlink:href="#D" x="-4.876" y="-0.375"/><use xlink:href="#B" x="-3.751" y="-3"/><use xlink:href="#B" x="-2.626" y="-4.124"/><use xlink:href="#B" x="-5.626" y="-1.124"/><use xlink:href="#D" x="-3.75" y="-1.5"/><use xlink:href="#B" x="-7.126" y="0.376"/><use xlink:href="#E" x="-1.126" y="-1.125"/><use xlink:href="#B" x="-4.501" y="-2.25"/><use xlink:href="#D" x="-3.376" y="-1.875"/><use xlink:href="#D" x="-2.626" y="-2.625"/><use xlink:href="#D" x="-4.876" y="-1.125"/><use xlink:href="#E" x="-1.5" y="-1.5"/><use xlink:href="#D" x="-4.5" y="-1.5"/><use xlink:href="#D" x="-0.75" y="-5.25"/><use xlink:href="#E" x="-1.876" y="-1.125"/><use xlink:href="#E" x="-2.626" y="-0.375"/><use xlink:href="#D" x="-3.75" y="-2.25"/><path d="M16.09 5.81l.06-.06-.102-.18-.098.098.14.142z"/><use xlink:href="#D" x="-5.25" y="-0.75"/><use xlink:href="#B" x="-4.126" y="-3.374"/><use xlink:href="#B" x="-7.876" y="0.376"/><use xlink:href="#B" x="-6.001" y="-1.5"/><use xlink:href="#B" x="-7.126" y="-0.374"/><use xlink:href="#D" x="-3.376" y="-2.625"/><use xlink:href="#B" x="-6.751" y="-0.75"/><use xlink:href="#B" x="-7.501"/><use xlink:href="#B" x="-6.376" y="-1.124"/><use xlink:href="#E" x="-3"/><use xlink:href="#D" x="-1.126" y="-4.875"/><use xlink:href="#B" x="-5.251" y="-2.25"/><use xlink:href="#D" x="-4.126" y="-1.875"/><use xlink:href="#B" x="-3.376" y="-4.124"/><use xlink:href="#E" x="-2.25" y="-0.75"/><use xlink:href="#B" x="-3" y="-4.5"/><use xlink:href="#B" x="-4.501" y="-3"/><path d="M5.684 15.934l-.114.114.18.103.076-.076-.142-.14z"/><use xlink:href="#B" x="-4.876" y="-2.624"/><use xlink:href="#B" x="-3.751" y="-3.75"/><use xlink:href="#B" x="-5.626" y="-1.874"/><use xlink:href="#E" x="-1.876" y="-1.875"/><use xlink:href="#D" x="-4.126" y="-2.625"/><use xlink:href="#B" x="-7.126" y="-1.124"/><use xlink:href="#B" x="-4.501" y="-3.75"/><use xlink:href="#E" x="-3.75"/><use xlink:href="#B" x="-6.376" y="-1.874"/><use xlink:href="#E" x="-3.376" y="-0.375"/><use xlink:href="#E" x="-2.626" y="-1.125"/><use xlink:href="#B" x="-3.376" y="-4.874"/><use xlink:href="#B" x="-8.251"/><use xlink:href="#D" x="-1.126" y="-5.625"/><use xlink:href="#D" x="-5.626" y="-1.125"/><use xlink:href="#B" x="-7.501" y="-0.75"/><use xlink:href="#D" x="-1.5" y="-5.25"/><use xlink:href="#E" x="-3" y="-0.75"/><use xlink:href="#B" x="-4.876" y="-3.374"/><use xlink:href="#B" x="-3.751" y="-4.5"/><use xlink:href="#B" x="-6.001" y="-2.25"/><use xlink:href="#B" x="-6.751" y="-1.5"/><use xlink:href="#B" x="-4.126" y="-4.124"/><use xlink:href="#E" x="-2.25" y="-1.5"/><use xlink:href="#B" x="-5.626" y="-2.624"/><use xlink:href="#D" x="-5.25" y="-1.5"/><path d="M5.3 15.56l-.206.206.176.106.172-.172-.142-.14zM15.716 5.434l.154-.155-.105-.176-.2.2.14.142z"/><use xlink:href="#B" x="-5.251" y="-3"/><use xlink:href="#B" x="-7.876" y="-0.374"/><use xlink:href="#D" x="-4.5" y="-2.25"/><use xlink:href="#D" x="-4.876" y="-1.875"/><use xlink:href="#B" x="-4.876" y="-4.124"/><use xlink:href="#D" x="-5.626" y="-1.875"/><use xlink:href="#B" x="-4.126" y="-4.874"/><use xlink:href="#B" x="-6.001" y="-3"/><use xlink:href="#E" x="-4.5"/><use xlink:href="#D" x="-4.876" y="-2.625"/><use xlink:href="#B" x="-6.751" y="-2.25"/><use xlink:href="#E" x="-3" y="-1.5"/><use xlink:href="#B" x="-8.626" y="-0.374"/><use xlink:href="#E" x="-2.626" y="-1.875"/><use xlink:href="#B" x="-6.376" y="-2.624"/><use xlink:href="#E" x="-3.376" y="-1.125"/><use xlink:href="#B" x="-7.501" y="-1.5"/><use xlink:href="#E" x="-2.25" y="-2.25"/><use xlink:href="#B" x="-5.251" y="-3.75"/><path d="M10.325 9.79l.235-.233.14.142-.235.233z"/><use xlink:href="#D" x="-1.876" y="-5.625"/><use xlink:href="#B" x="-3.751" y="-5.25"/><use xlink:href="#D" x="-1.5" y="-6"/><use xlink:href="#E" x="-4.126" y="-0.375"/><use xlink:href="#B" x="-8.251" y="-0.75"/><use xlink:href="#B" x="-5.626" y="-3.374"/><use xlink:href="#D" x="-5.25" y="-2.25"/><path d="M15.2 4.917l.14.142.227-.228-.04-.054-.094-.094-.235.234z"/><use xlink:href="#B" x="-9.001"/><use xlink:href="#B" x="-7.876" y="-1.124"/><use xlink:href="#B" x="-7.126" y="-1.874"/><use xlink:href="#B" x="-4.501" y="-4.5"/><use xlink:href="#E" x="-3.75" y="-0.75"/><path d="M10.325 9.04l.235-.233.14.142-.235.233z"/><use xlink:href="#B" x="-6.001" y="-3.75"/><use xlink:href="#B" x="-7.876" y="-1.874"/><use xlink:href="#B" x="-9.376" y="-0.374"/><use xlink:href="#B" x="-7.501" y="-2.25"/><use xlink:href="#B" x="-9.001" y="-0.75"/><use xlink:href="#B" x="-4.126" y="-5.624"/><use xlink:href="#B" x="-4.876" y="-4.874"/><use xlink:href="#B" x="-7.126" y="-2.624"/><use xlink:href="#B" x="-4.501" y="-5.25"/><use xlink:href="#E" x="-5.25"/><use xlink:href="#B" x="-8.251" y="-1.5"/><use xlink:href="#D" x="-2.25" y="-6"/><use xlink:href="#E" x="-2.626" y="-2.625"/><use xlink:href="#B" x="-5.251" y="-4.5"/><use xlink:href="#D" x="-1.5" y="-6.75"/><use xlink:href="#E" x="-4.876" y="-0.375"/><use xlink:href="#E" x="-3.376" y="-1.875"/><use xlink:href="#E" x="-4.5" y="-0.75"/><use xlink:href="#B" x="-6.376" y="-3.374"/><use xlink:href="#B" x="-8.626" y="-1.124"/><use xlink:href="#E" x="-3.75" y="-1.5"/><use xlink:href="#D" x="-5.626" y="-2.625"/><use xlink:href="#E" x="-3" y="-2.25"/><use xlink:href="#B" x="-6.751" y="-3"/><use xlink:href="#E" x="-4.126" y="-1.125"/><use xlink:href="#D" x="-1.876" y="-6.375"/><use xlink:href="#D" x="-6.376" y="-1.875"/><use xlink:href="#B" x="-5.626" y="-4.124"/><use xlink:href="#E" x="-4.5" y="-1.5"/><use xlink:href="#B" x="-8.626" y="-1.874"/><use xlink:href="#E" x="-5.626" y="-0.375"/><use xlink:href="#B" x="-4.501" y="-6"/><use xlink:href="#B" x="-4.876" y="-5.624"/><use xlink:href="#D" x="-2.25" y="-6.75"/><use xlink:href="#E" x="-3.75" y="-2.25"/><use xlink:href="#B" x="-5.626" y="-4.874"/><use xlink:href="#E" x="-4.876" y="-1.125"/><use xlink:href="#E" x="-5.25" y="-0.75"/><use xlink:href="#B" x="-6.376" y="-4.124"/><use xlink:href="#E" x="-4.126" y="-1.875"/><use xlink:href="#B" x="-6.001" y="-4.5"/><use xlink:href="#B" x="-5.251" y="-5.25"/><use xlink:href="#D" x="-1.876" y="-7.125"/><use xlink:href="#D" x="-2.626" y="-6.375"/><use xlink:href="#E" x="-3.376" y="-2.625"/><use xlink:href="#B" x="-7.501" y="-3"/><use xlink:href="#B" x="-8.251" y="-2.25"/><use xlink:href="#B" x="-9.001" y="-1.5"/><use xlink:href="#B" x="-9.376" y="-1.124"/><use xlink:href="#B" x="-6.751" y="-3.75"/><use xlink:href="#D" x="-6.376" y="-2.625"/><use xlink:href="#B" x="-9.751" y="-0.75"/><use xlink:href="#B" x="-7.876" y="-2.624"/><use xlink:href="#F"/><use xlink:href="#G"/><use xlink:href="#B" x="-7.126" y="-3.374"/><use xlink:href="#E" x="-3" y="-3"/><use xlink:href="#B" x="-9.376" y="-1.874"/><use xlink:href="#F" x="-0.375" y="-0.375"/><use xlink:href="#E" x="-5.626" y="-1.125"/><use xlink:href="#E" x="-4.126" y="-2.625"/><use xlink:href="#B" x="-6.751" y="-4.5"/><use xlink:href="#E" x="-3.376" y="-3.375"/><use xlink:href="#B" x="-8.251" y="-3"/><use xlink:href="#B" x="-5.251" y="-6"/><use xlink:href="#B" x="-7.876" y="-3.374"/><use xlink:href="#B" x="-5.626" y="-5.624"/><use xlink:href="#B" x="-10.126" y="-1.124"/><use xlink:href="#E" x="-4.876" y="-1.875"/><use xlink:href="#E" x="-4.5" y="-2.25"/><use xlink:href="#B" x="-9.001" y="-2.25"/><use xlink:href="#B" x="-6.001" y="-5.25"/><use xlink:href="#D" x="-2.626" y="-7.125"/><use xlink:href="#D" x="-3" y="-6.75"/><use xlink:href="#E" x="-5.25" y="-1.5"/><use xlink:href="#B" x="-9.751" y="-1.5"/><use xlink:href="#B" x="-8.626" y="-2.624"/><use xlink:href="#B" x="-7.126" y="-4.124"/><use xlink:href="#B" x="-6.376" y="-4.874"/><use xlink:href="#D" x="-2.25" y="-7.5"/><use xlink:href="#B" x="-7.501" y="-3.75"/><use xlink:href="#F" y="-0.75"/><use xlink:href="#B" x="-4.876" y="-6.374"/><use xlink:href="#F" x="0.375" y="-1.126"/><use xlink:href="#E" x="-3.75" y="-3"/><use xlink:href="#G" x="0.001" y="-0.75"/><use xlink:href="#B" x="-6.751" y="-5.25"/><use xlink:href="#B" x="-8.626" y="-3.374"/><use xlink:href="#B" x="-6.001" y="-6"/><use xlink:href="#B" x="-9.001" y="-3"/><use xlink:href="#B" x="-10.126" y="-1.874"/><use xlink:href="#F" y="-1.5"/><use xlink:href="#D" x="-2.626" y="-7.875"/><use xlink:href="#B" x="-5.626" y="-6.374"/><use xlink:href="#F" x="-0.75" y="-0.75"/><use xlink:href="#B" x="-9.376" y="-2.624"/><use xlink:href="#G" x="0.001" y="-1.5"/><use xlink:href="#B" x="-7.126" y="-4.874"/><use xlink:href="#E" x="-4.876" y="-2.625"/><use xlink:href="#B" x="-7.501" y="-4.5"/><use xlink:href="#B" x="-7.876" y="-4.124"/><use xlink:href="#B" x="-8.251" y="-3.75"/><use xlink:href="#B" x="-5.251" y="-6.75"/><use xlink:href="#D" x="-3" y="-7.5"/><use xlink:href="#F" x="0.375" y="-1.876"/><use xlink:href="#E" x="-4.5" y="-3"/><use xlink:href="#D" x="-3.376" y="-7.125"/><use xlink:href="#E" x="-3.75" y="-3.75"/><use xlink:href="#E" x="-5.626" y="-1.875"/><use xlink:href="#E" x="-5.25" y="-2.25"/><use xlink:href="#B" x="-10.501" y="-1.5"/><use xlink:href="#F" x="-0.375" y="-1.125"/><use xlink:href="#B" x="-9.751" y="-2.25"/><use xlink:href="#B" x="-6.376" y="-5.624"/><use xlink:href="#E" x="-4.126" y="-3.375"/><use xlink:href="#B" x="-10.126" y="-2.624"/><use xlink:href="#E" x="-5.626" y="-2.625"/><use xlink:href="#B" x="-9.001" y="-3.75"/><path d="M3.06 13.31l-.184.184.107.175.218-.22-.14-.14z"/><use xlink:href="#F" x="-0.75" y="-1.5"/><use xlink:href="#B" x="-8.251" y="-4.5"/><use xlink:href="#E" x="-4.126" y="-4.125"/><use xlink:href="#B" x="-7.126" y="-5.624"/><use xlink:href="#E" x="-4.5" y="-3.75"/><use xlink:href="#B" x="-6.376" y="-6.374"/><use xlink:href="#F" x="-1.125" y="-1.125"/><use xlink:href="#B" x="-5.626" y="-7.124"/><use xlink:href="#F" y="-2.25"/><use xlink:href="#B" x="-10.501" y="-2.25"/><use xlink:href="#F" x="-0.375" y="-1.875"/><use xlink:href="#B" x="-6.751" y="-6"/><use xlink:href="#B" x="-8.626" y="-4.124"/><use xlink:href="#F" x="0.375" y="-2.626"/><path d="M13.466 3.184l.2-.2-.176-.107-.166.167.14.14z"/><use xlink:href="#B" x="-6.001" y="-6.75"/><use xlink:href="#G" x="0.001" y="-2.25"/><use xlink:href="#E" x="-5.25" y="-3"/><use xlink:href="#B" x="-9.751" y="-3"/><use xlink:href="#D" x="-3.376" y="-7.875"/><use xlink:href="#E" x="-4.876" y="-3.375"/><use xlink:href="#B" x="-7.501" y="-5.25"/><use xlink:href="#B" x="-7.876" y="-4.874"/><use xlink:href="#D" x="-3.75" y="-7.5"/><use xlink:href="#B" x="-9.376" y="-3.374"/><use xlink:href="#B" x="-6.376" y="-7.124"/><use xlink:href="#E" x="-5.626" y="-3.375"/><use xlink:href="#F" x="-0.75" y="-2.25"/><path d="M13.09 2.81l.11-.1-.176-.106-.074.075.14.14z"/><use xlink:href="#B" x="-10.126" y="-3.374"/><use xlink:href="#B" x="-7.876" y="-5.624"/><use xlink:href="#B" x="-10.876" y="-2.624"/><use xlink:href="#F" x="-1.5" y="-1.5"/><use xlink:href="#B" x="-9.376" y="-4.124"/><use xlink:href="#B" x="-9.001" y="-4.5"/><use xlink:href="#B" x="-8.626" y="-4.874"/><use xlink:href="#B" x="-7.126" y="-6.374"/><use xlink:href="#B" x="-6.751" y="-6.75"/><use xlink:href="#F" x="0.375" y="-3.376"/><use xlink:href="#D" x="-3.75" y="-8.25"/><use xlink:href="#F" y="-3"/><path d="M2.684 12.934l-.092.092c.032.06.072.116.106.176l.127-.127-.14-.14z"/><use xlink:href="#B" x="-8.251" y="-5.25"/><use xlink:href="#F" x="-1.125" y="-1.875"/><use xlink:href="#B" x="-7.501" y="-6"/><use xlink:href="#E" x="-4.876" y="-4.125"/><use xlink:href="#G" x="0.001" y="-3"/><use xlink:href="#F" x="-0.375" y="-2.625"/><use xlink:href="#B" x="-9.751" y="-3.75"/><use xlink:href="#D" x="-4.126" y="-7.875"/><use xlink:href="#E" x="-4.5" y="-4.5"/><use xlink:href="#B" x="-10.501" y="-3"/><use xlink:href="#E" x="-5.25" y="-3.75"/><use xlink:href="#B" x="-6.001" y="-7.5"/><path d="M2.42 12.67l.02.04h.01l-.032-.03z"/><use xlink:href="#B" x="-11.251" y="-3"/><use xlink:href="#B" x="-8.251" y="-6"/><use xlink:href="#B" x="-9.751" y="-4.5"/><use xlink:href="#E" x="-4.876" y="-4.875"/><use xlink:href="#B" x="-9.376" y="-4.874"/><use xlink:href="#F" x="-0.375" y="-3.375"/><use xlink:href="#B" x="-9.001" y="-5.25"/><use xlink:href="#B" x="-10.876" y="-3.374"/><use xlink:href="#D" x="-4.126" y="-8.625"/><use xlink:href="#F" y="-3.75"/><use xlink:href="#B" x="-7.501" y="-6.75"/><use xlink:href="#B" x="-8.626" y="-5.624"/><use xlink:href="#F" x="-1.875" y="-1.875"/><use xlink:href="#D" x="-4.5" y="-8.25"/><use xlink:href="#F" x="-0.75" y="-3"/><use xlink:href="#F" x="-1.5" y="-2.25"/><use xlink:href="#E" x="-5.25" y="-4.5"/><use xlink:href="#B" x="-10.501" y="-3.75"/><use xlink:href="#E" x="-5.626" y="-4.125"/><use xlink:href="#B" x="-6.751" y="-7.5"/><use xlink:href="#B" x="-10.126" y="-4.124"/><use xlink:href="#B" x="-7.126" y="-7.124"/><use xlink:href="#F" x="0.375" y="-4.126"/><use xlink:href="#B" x="-7.876" y="-6.374"/><use xlink:href="#B" x="-6.376" y="-7.874"/><use xlink:href="#F" x="-1.125" y="-2.625"/><use xlink:href="#G" x="0.001" y="-3.75"/><use xlink:href="#B" x="-8.626" y="-6.374"/><use xlink:href="#F" x="-0.75" y="-3.75"/><use xlink:href="#B" x="-9.376" y="-5.624"/><use xlink:href="#F" y="-4.5"/><use xlink:href="#B" x="-7.876" y="-7.124"/><use xlink:href="#B" x="-10.126" y="-4.874"/><use xlink:href="#B" x="-11.251" y="-3.75"/><use xlink:href="#B" x="-9.001" y="-6"/><use xlink:href="#B" x="-10.876" y="-4.124"/><use xlink:href="#F" x="-1.5" y="-3"/><use xlink:href="#B" x="-8.251" y="-6.75"/><use xlink:href="#D" x="-4.876" y="-8.625"/><use xlink:href="#E" x="-5.25" y="-5.25"/><use xlink:href="#B" x="-10.501" y="-4.5"/><use xlink:href="#B" x="-9.751" y="-5.25"/><use xlink:href="#E" x="-5.626" y="-4.875"/><use xlink:href="#F" x="-1.875" y="-2.625"/><path d="M2.45 11.95l-.142-.14-.177.177.065.18.02.02.235-.235z"/><use xlink:href="#F" x="-1.125" y="-3.375"/><use xlink:href="#B" x="-6.751" y="-8.25"/><use xlink:href="#B" x="-7.126" y="-7.874"/><use xlink:href="#F" x="0.375" y="-4.876"/><path d="M11.966 2.434l.227-.226-.207-.076-.16.16.14.142z"/><use xlink:href="#F" x="-0.375" y="-4.125"/><use xlink:href="#B" x="-7.501" y="-7.5"/><use xlink:href="#F" x="-2.25" y="-2.25"/><use xlink:href="#G" x="0.001" y="-4.5"/><use xlink:href="#B" x="-7.501" y="-8.25"/><use xlink:href="#B" x="-9.001" y="-6.75"/><use xlink:href="#B" x="-8.251" y="-7.5"/><use xlink:href="#F" x="-2.25" y="-3"/><use xlink:href="#B" x="-11.251" y="-4.5"/><use xlink:href="#F" x="-1.875" y="-3.375"/><use xlink:href="#F" y="-5.25"/><use xlink:href="#F" x="0.375" y="-5.626"/><use xlink:href="#B" x="-8.626" y="-7.124"/><use xlink:href="#F" x="-0.375" y="-4.875"/><use xlink:href="#B" x="-9.751" y="-6"/><use xlink:href="#F" x="-2.625" y="-2.625"/><use xlink:href="#B" x="-7.126" y="-8.624"/><use xlink:href="#B" x="-9.376" y="-6.374"/><use xlink:href="#D" x="-5.25" y="-9"/><use xlink:href="#E" x="-5.626" y="-5.625"/><use xlink:href="#B" x="-10.501" y="-5.25"/><path d="M1.96 11.46l.048.184.068-.068-.116-.116z"/><use xlink:href="#F" x="-1.125" y="-4.125"/><use xlink:href="#G" x="0.001" y="-5.25"/><use xlink:href="#B" x="-7.876" y="-7.874"/><use xlink:href="#B" x="-10.126" y="-5.624"/><use xlink:href="#F" x="-0.75" y="-4.5"/><use xlink:href="#F" x="-1.5" y="-3.75"/><path d="M11.644 2.007c-.047-.015-.094-.022-.14-.036l.088.088.053-.052z"/><use xlink:href="#B" x="-10.876" y="-4.874"/><use xlink:href="#B" x="-11.626" y="-4.124"/><use xlink:href="#B" x="-7.876" y="-8.624"/><use xlink:href="#B" x="-9.376" y="-7.124"/><use xlink:href="#F" x="-1.125" y="-4.875"/><use xlink:href="#B" x="-8.251" y="-8.25"/><path d="M1.934 10.684l-.13.13.05.23.222-.222-.142-.14z"/><use xlink:href="#G" x="0.001" y="-6"/><use xlink:href="#F" y="-6"/><use xlink:href="#B" x="-10.126" y="-6.374"/><use xlink:href="#B" x="-10.876" y="-5.624"/><use xlink:href="#F" x="-3" y="-3"/><use xlink:href="#B" x="-8.626" y="-7.874"/><use xlink:href="#F" x="-1.5" y="-4.5"/><use xlink:href="#F" x="-0.375" y="-5.625"/><use xlink:href="#F" x="-1.875" y="-4.125"/><use xlink:href="#F" x="0.375" y="-6.376"/><use xlink:href="#F" x="-0.75" y="-5.25"/><use xlink:href="#F" x="-2.25" y="-3.75"/><use xlink:href="#B" x="-10.501" y="-6"/><use xlink:href="#B" x="-11.626" y="-4.874"/><use xlink:href="#F" x="-2.625" y="-3.375"/><use xlink:href="#B" x="-9.001" y="-7.5"/><use xlink:href="#B" x="-7.501" y="-9"/><use xlink:href="#B" x="-9.751" y="-6.75"/><path d="M10.84 2.06l.205-.205-.232-.05-.113.114.14.142z"/><use xlink:href="#B" x="-11.251" y="-5.25"/><use xlink:href="#B" x="-9.751" y="-7.5"/><use xlink:href="#B" x="-11.626" y="-5.624"/><path d="M10.092 2.06l.233-.233-.114-.114-.047-.007-.214.212.142.142zm-8.017 8.014l-.14-.14-.23.23.001.008.136.137z"/><use xlink:href="#B" x="-10.501" y="-6.75"/><use xlink:href="#F" x="-1.875" y="-4.875"/><use xlink:href="#F" y="-6.75"/><use xlink:href="#B" x="-11.251" y="-6"/><use xlink:href="#F" x="-2.25" y="-4.5"/><use xlink:href="#B" x="-10.876" y="-6.374"/><use xlink:href="#F" x="-0.375" y="-6.375"/><use xlink:href="#B" x="-9.376" y="-7.874"/><use xlink:href="#F" x="-1.5" y="-5.25"/><use xlink:href="#B" x="-8.251" y="-9"/><use xlink:href="#B" x="-9.001" y="-8.25"/><use xlink:href="#F" x="-0.75" y="-6"/><use xlink:href="#B" x="-7.876" y="-9.374"/><use xlink:href="#F" x="-3" y="-3.75"/><use xlink:href="#B" x="-10.126" y="-7.124"/><use xlink:href="#F" x="-1.125" y="-5.625"/><use xlink:href="#F" x="-2.625" y="-4.125"/><use xlink:href="#B" x="-8.626" y="-8.624"/><use xlink:href="#F" x="-3.375" y="-3.375"/><use xlink:href="#B" x="-11.626" y="-6.374"/><use xlink:href="#F" x="-2.25" y="-5.25"/><use xlink:href="#B" x="-10.876" y="-7.124"/><use xlink:href="#F" x="-0.75" y="-6.75"/><use xlink:href="#B" x="-8.626" y="-9.374"/><use xlink:href="#B" x="-9.001" y="-9"/><use xlink:href="#F" x="-1.125" y="-6.375"/><use xlink:href="#F" x="-1.875" y="-5.625"/><use xlink:href="#F" x="-1.5" y="-6"/><use xlink:href="#F" x="-3.75" y="-3.75"/><path d="M1.677 9.676l.002.045.02-.022-.023-.023z"/><use xlink:href="#B" x="-12.001" y="-6"/><use xlink:href="#B" x="-10.126" y="-7.874"/><use xlink:href="#F" x="-3" y="-4.5"/><use xlink:href="#F" x="-0.375" y="-7.125"/><use xlink:href="#B" x="-8.251" y="-9.75"/><use xlink:href="#B" x="-9.376" y="-8.624"/><use xlink:href="#B" x="-10.501" y="-7.5"/><path d="M9.72 1.68h-.01l.005.005z"/><use xlink:href="#F" x="-2.625" y="-4.875"/><use xlink:href="#F" x="-3.375" y="-4.125"/><use xlink:href="#B" x="-9.751" y="-8.25"/><use xlink:href="#B" x="-11.251" y="-6.75"/><use xlink:href="#B" x="-11.626" y="-7.124"/><use xlink:href="#H"/><use xlink:href="#F" x="-1.875" y="-6.376"/><use xlink:href="#H" x="-1.5" y="1.5"/><use xlink:href="#F" x="-1.5" y="-6.751"/><path d="M1.682 8.932l-.002.038.02-.02-.018-.017z"/><use xlink:href="#F" x="-2.25" y="-6.001"/><use xlink:href="#H" x="-0.375" y="0.376"/><path d="M3.575 7.076L3.34 7.3l-.14-.142.235-.234zM8.97 1.68h-.007l.004.003z"/><use xlink:href="#B" x="-12.001" y="-6.75"/><use xlink:href="#F" x="-3.75" y="-4.501"/><use xlink:href="#B" x="-10.876" y="-7.874"/><path d="M8.592 2.06l.233-.233-.132-.132c-.006.001-.014.001-.02.002l-.222.22.142.142z"/><use xlink:href="#F" x="-2.625" y="-5.626"/><use xlink:href="#F" x="-3.375" y="-4.876"/><use xlink:href="#H" x="-1.125" y="1.126"/><use xlink:href="#F" x="-3" y="-5.251"/><use xlink:href="#F" x="-4.125" y="-4.126"/><use xlink:href="#H" x="-0.75" y="0.75"/><use xlink:href="#B" x="-11.251" y="-7.5"/><use xlink:href="#H" x="-0.75"/><use xlink:href="#H" x="-2.25" y="1.5"/><use xlink:href="#F" x="-3.75" y="-5.251"/><use xlink:href="#H" x="-1.875" y="1.126"/><use xlink:href="#F" x="-3" y="-6.001"/><use xlink:href="#B" x="-11.626" y="-7.874"/><use xlink:href="#H" x="-0.375" y="-0.374"/><use xlink:href="#F" x="-3.375" y="-5.626"/><path d="M7.842 2.06l.233-.233-.043-.044-.233.037-.1.098.142.142zM2.075 7.824l-.14-.14-.116.115c-.014.067-.02.137-.032.205l.055.055.234-.235z"/><use xlink:href="#H" x="-1.5" y="0.75"/><use xlink:href="#F" x="-4.5" y="-4.501"/><path d="M2.825 7.076l-.235.234-.14-.142.235-.234z"/><use xlink:href="#F" x="-2.625" y="-6.376"/><use xlink:href="#H" x="-1.125" y="0.376"/><use xlink:href="#F" x="-4.125" y="-4.876"/><use xlink:href="#F" x="-2.25" y="-6.751"/><use xlink:href="#F" x="-4.5" y="-5.251"/><path d="M2.45 6.7l-.14-.14-.184.183-.026.074.118.118.233-.234zm-.428.323l-.043.147.096-.095-.053-.052z"/><use xlink:href="#F" x="-3.375" y="-6.376"/><use xlink:href="#H" x="-0.75" y="-0.75"/><use xlink:href="#H" x="-1.5"/><use xlink:href="#H" x="-2.25" y="0.75"/><use xlink:href="#F" x="-4.875" y="-4.876"/><use xlink:href="#F" x="-3.75" y="-6.001"/><use xlink:href="#H" x="-1.125" y="-0.374"/><use xlink:href="#H" x="-1.875" y="0.376"/><path d="M6.717 2.434L6.95 2.2l-.1-.11-.1.036-.166.167.142.142z"/><use xlink:href="#F" x="-4.125" y="-5.626"/><path d="M7.17 1.98l-.123.034.045.045.078-.08z"/><use xlink:href="#H" x="-2.625" y="1.126"/><path d="M2.825 5.575L2.72 5.47l-.17.297.042.04.233-.234z"/><use xlink:href="#F" x="-5.25" y="-5.251"/><path d="M5.217 3.184l.233-.234-.135-.135c-.01.008-.022.013-.034.02l-.206.207.142.142z"/><use xlink:href="#F" x="-4.875" y="-5.626"/><path d="M5.825 2.575L5.8 2.54l-.3.17.1.1.233-.234zM3.2 5.2l-.14-.14-.224.223-.008.013.14.14z"/><use xlink:href="#H" x="-1.5" y="-0.75"/><path d="M4.184 3.934l.14.14-.233.233-.14-.14z"/><use xlink:href="#H" x="-1.875" y="-0.374"/><path d="M14.076 3.324l1.453 1.453a8.04 8.04 0 0 0-1.598-1.598l.145.145zm-1.5-.75L16.492 6.5l-.232-.515-.168-.167-.14-.142-.234-.233-.14-.142-.234-.233-.14-.142-.234-.233-.14-.142-.234-.233-.14-.142-.234-.233-.14-.142-.234-.233-.14-.142-.234-.233-.14-.142-.234-.233-.14-.142-.22-.216-.514-.233.357.357zM11.45 2.2l5.385 5.385-.098-.38-.037-.038-.234-.233-.14-.142-.234-.233-.14-.142-.234-.233-.14-.142-.234-.233-.14-.142-.234-.233-.14-.142-.234-.233-.14-.142-.234-.233-.14-.142-.234-.233-.14-.142-.234-.233-.14-.142-.234-.233-.14-.142-.234-.233-.14-.142-.234-.233-.14-.142-.234-.233-.14-.142-.322-.32-.38-.098.326.326zm-.892-.14l.143.14.232.234.143.14.232.234.143.14.232.234.143.14.232.234.143.14.232.234.143.14.232.234.143.14.232.234.143.14.232.234.143.14.232.234.143.14.232.234.143.14.232.234.143.14.232.234.143.14.232.234.143.14.232.234.143.14.232.234.143.14.232.234.143.14.297.297-.05-.334-.105-.104-.14-.142-.234-.233-.14-.142-.234-.233-.14-.142-.234-.233-.14-.142-.234-.233-.14-.142-.234-.233-.14-.142-.234-.233-.14-.142-.234-.233-.14-.142-.234-.233-.14-.142-.234-.233-.14-.142-.234-.233-.14-.142-.234-.233-.14-.142-.234-.233-.14-.142-.234-.233-.14-.142-.234-.233-.14-.142-.234-.233-.14-.142-.234-.233-.14-.142-.156-.155-.333-.05.114.114.232.234zm-.983-.235l.233.233.142.14.233.234.142.14.233.234.143.14.232.234.143.14.232.234.143.14.232.234.143.14.232.234.143.14.232.234.143.14.232.234.143.14.232.234.143.14.232.234.143.14.232.234.143.14.232.234.143.14.232.234.143.14.232.234.143.14.232.234.143.14.232.234.143.14.984.984.1.1-.014-.297-.2-.188-.14-.142-.234-.233-.14-.142-.234-.233-.14-.142-.234-.233-.14-.142-.234-.233-.14-.142-.234-.233-.14-.142-.234-.233-.14-.142-.234-.233-.14-.142-.234-.233-.14-.142-.234-.233-.14-.142-.234-.233-.14-.142-.234-.233-.14-.142-.234-.233-.14-.142-.234-.233-.14-.142-.234-.233-.14-.142-.234-.233-.14-.142-.234-.233-.14-.142-.234-.233-.14-.142-.233-.233-.142-.14-.238-.238-.3-.016.162.162zm-.515.235l.14.14.233.234.142.14.233.234.142.14.233.234.142.14.233.234.143.14.232.234.143.14.232.234.143.14.232.234.143.14.232.234.143.14.232.234.143.14.232.234.143.14.232.234.143.14.232.234.143.14.232.234.143.14.232.234.143.14.232.234.143.14.232.234.143.14 1.814 1.814.014-.27-.188-.187-.14-.142-.234-.233-.14-.142-.234-.233-.14-.142-.234-.233-.14-.142-.234-.233-.14-.142-.234-.233-.14-.142-.234-.233-.14-.142-.234-.233-.14-.142-.234-.233-.14-.142-.234-.233-.14-.142-.234-.233-.14-.142-.234-.233-.14-.142-.234-.233-.14-.142-.234-.233-.14-.142-.234-.233-.14-.142-.234-.233-.14-.142-.234-.233-.14-.142-.234-.233-.14-.142-.233-.233-.142-.14-.234-.233-.14-.142-.234-.233-.14-.142-.233-.233-.004-.003-.27.013.132.132.234.233zm-.75 0l.374.374.142.14.233.234.142.14.233.234.142.14.233.234.142.14.233.234.142.14.233.234.143.14.232.234.143.14.232.234.143.14.232.234.143.14.232.234.143.14.232.234.143.14.232.234.143.14.232.234.143.14.232.234.143.14.232.234.143.14.232.234.143.14 2.477 2.477.037-.245-.123-.122-.14-.142-.234-.233-.14-.142-.234-.233-.14-.142-.234-.233-.14-.142-.234-.233-.14-.142-.234-.233-.14-.142-.234-.233-.14-.142-.234-.233-.14-.142-.234-.233-.14-.142-.234-.233-.14-.142-.234-.233-.14-.142-.234-.233-.14-.142-.234-.233-.14-.142-.234-.233-.14-.142-.234-.233-.14-.142-.234-.233-.14-.142-.234-.233-.14-.142-.234-.233-.14-.142-.233-.233-.143-.142-.234-.233-.14-.142-.234-.233-.14-.142-.234-.233-.14-.142L8.3 1.73l-.245.038.277.277zm-.6.14l9.093 9.1.057-.224-.008-.01-.14-.142-.234-.233-.14-.142-.234-.233-.14-.142-.234-.233-.14-.142-.234-.233-.14-.142-.234-.233-.14-.142-.234-.233-.14-.142-.234-.233-.14-.142-.234-.233-.14-.142-.234-.233-.14-.142-.234-.233-.14-.142-.234-.233-.14-.142-.234-.233-.14-.142-.234-.233-.14-.142-.234-.233-.14-.142-.234-.233-.14-.142-.234-.233-.14-.142-.234-.233-.14-.142-.233-.233-.143-.14-.234-.233-.14-.142-.234-.233-.14-.142-.234-.233-.14-.142-.234-.233-.14-.142-.808-.808-.226.058.283.283zm-.516.234l9.435 9.434.076-.206-.23-.23-.14-.142-.234-.233-.14-.142-.234-.233-.14-.142-.234-.233-.14-.142-.234-.233-.14-.142-.234-.233-.14-.142-.234-.233-.14-.142-.234-.233-.14-.142-.234-.233-.14-.142-.234-.233-.14-.142-.234-.233-.14-.142-.234-.233-.14-.142-.234-.233-.14-.142-.234-.233-.14-.142-.234-.233-.14-.142-.234-.233-.14-.142-.234-.233-.14-.142-.233-.233-.142-.14-.234-.233-.14-.142-.234-.233-.14-.142-.234-.233-.14-.142L8.6 3.56l-.14-.142-.234-.233-.14-.142-1.028-1.028-.207.075.1.1.234.234zm-.61.14l9.84 9.837.08-.2L6.5 2.216l-.202.08.28.28zM6.06 2.8l10.1 10.1.092-.2L5.98 2.447l-.2.092.035.036.234.234zm-.376.374l10.2 10.208.105-.175L5.5 2.708l-.176.106.135.136.234.234zm-.61.14l10.52 10.518.12-.16-10.69-10.69c-.055.037-.106.08-.16.12l.068.07.142.14zM4.7 3.7l10.57 10.57.123-.16L4.598 3.315l-.16.123.262.262zm-.375.375l10.6 10.588.135-.147L4.193 3.66l-.148.135.28.28zM14.45 14.668L3.8 4.027l-.135.148 10.858 10.857.148-.134-.23-.23z"/><path d="M14.076 15.043L3.453 4.42l-.124.157.104.105L14.13 15.38l.158-.125-.072-.07-.14-.14zm-.376.375L3.13 4.846 3 5.008 13.7 15.7c.057-.038.107-.08.162-.12l-.162-.162zm-.6.142L2.827 5.295l-.106.176 10.52 10.517.174-.106-.088-.1-.235-.234zm-.514.233L2.55 5.768l-.092.2L12.752 16.25l.2-.092-.365-.365zm-.376.375L2.307 6.274l-.083.2.085.086 9.927 9.926.2-.083-.234-.234zm-.6.142l-.375-.375-.14-.142-.234-.233-.14-.142-.234-.233-.14-.142-.234-.233-.14-.142-.234-.233-.14-.142-.234-.233-.14-.142-.234-.233-.14-.142-.234-.233-.14-.142-.234-.233-.14-.142-.234-.233-.14-.142-.234-.233-.14-.142L7.1 11.8l-.14-.142-.234-.233-.14-.142-.234-.233-.14-.142-.234-.233-.14-.142-.234-.233-.14-.142-.234-.233-.14-.142-.234-.233-.14-.142-.234-.233-.14-.142L4.11 8.8l-.14-.142-.234-.233-.14-.142-.234-.233-.14-.142-.234-.233-.14-.142-.234-.233-.14-.142-.35-.35-.077.207.286.286.142.14.233.234.142.14.233.234.142.14.233.234.142.14.233.234.142.14.233.234.142.14.233.234.142.14.233.234.142.14.233.234.142.14.233.234.142.14.233.234.142.14.233.234.142.14.233.234.142.14.233.234.142.14.233.234.142.14.233.234.142.14.233.234.142.14.233.234.142.14.233.234.142.14.233.234.142.14.233.234.142.14 1.737 1.737.207-.075-.068-.068-.235-.234zm-.514.233l-.234-.234-.14-.142-.234-.233-.88-.892-.234-.233-.14-.142-.234-.233-.14-.142-.234-.233-.14-.142-.234-.233-.14-.142-.234-.233-.14-.142-.234-.233-.14-.142-.234-.233-.14-.142-.234-.233-.14-.142-.234-.233-.14-.142-.234-.233-.14-.142-.234-.233-.14-.142-.234-.233-.14-.142-.234-.233-.14-.142-.234-.233-.14-.142-.234-.233-.14-.142-.234-.233-.14-.142-.234-.233-.14-.142-.234-.233-.14-.142-.234-.233-.14-.142-.234-.233-.14-.142-.152-.15-.058.225.068.068.142.14.233.234.142.14.233.234.142.14.233.234.142.14.233.234.142.14.233.234.142.14.233.234.142.14.233.234.142.14.233.234.142.14.233.234.142.14.233.234.142.14.233.234.142.14.233.234.142.14.233.234.142.14.233.234.142.14.233.234.142.14.233.234.142.14.233.234.142.14.233.234.142.14.233.234.142.14.233.234.142.14.233.234.142.14 1.146 1.145.223-.058-.102-.103-.14-.14zm-.6.14l-.375-.375-.14-.142-.234-.233-.14-.142-.234-.233-.14-.142-.234-.233-.14-.142-.234-.233-.14-.142-.234-.233-.14-.142-.234-.233-.14-.142-.234-.233-.14-.142-.234-.233-.14-.142-.234-.233-.14-.142-.234-.233-.14-.142-.234-.233-.14-.142-.234-.233-.14-.142-.234-.233-.14-.142-.234-.233-.14-.142-.234-.233-.14-.142-.234-.233-.14-.142-.234-.233-.14-.142-.234-.233-.14-.142-.234-.233-.14-.142-.234-.233-.14-.142-.234-.233-.14-.142-.3-.288-.037.244.185.186.142.14.233.234.14.14.233.234.142.14.233.234.142.14.233.234.142.14.233.234.142.14.233.234.142.14.233.234.142.14.233.234.142.14.233.234.142.14.233.234.142.14.233.234.142.14.233.234.142.14.233.234.142.14.233.234.142.14.233.234.142.14.233.234.142.14.233.234.142.14.233.234.142.14.233.234.142.14.233.234.142.14.233.234.142.14.375.375.135.136.244-.037-.004-.005-.234-.234zm-.75 0l-.375-.375-.14-.142-.234-.233-.14-.142-.234-.233-.14-.142-.234-.233-.14-.142-.234-.233-.14-.142-.234-.233-.14-.142-.234-.233-.14-.142-.234-.233-.14-.142-.234-.233-.14-.142-.234-.233-.14-.142-.234-.233-.14-.142-.234-.233-.14-.142-.234-.233-.14-.142-.234-.233-.14-.142-.234-.233-.14-.142-.234-.233-.14-.142-.234-.233-.14-.142-.234-.233-.14-.142-.234-.233-.14-.142-.234-.233-.14-.142-.234-.233-.14-.142-.005-.004-.013.27.018.017.233.234.142.14.233.234.142.14.233.234.142.14.233.234.142.14.233.234.142.14.233.234.142.14.233.234.142.14.233.234.142.14.233.234.142.14.233.234.142.14.233.234.142.14.233.234.142.14.233.234.142.14.233.234.142.14.233.234.142.14.233.234.142.14.233.234.142.14.233.234.142.14.233.234.142.14.233.234.142.14.233.234.142.14.203.203.268-.014-.096-.095-.234-.234z"/><path d="M8.966 16.684l-.375-.375-.14-.142-.234-.233-.14-.142-.234-.233-.14-.142-.234-.233-.14-.142-.234-.233-.14-.142-.234-.233-.14-.142-.234-.233-.14-.142-.234-.233-.14-.142-.234-.233-.14-.142-.234-.233-.14-.142-.234-.233-.14-.142-.234-.233-.14-.142-.234-.233-.14-.142-.234-.233-.14-.142-.234-.233-.14-.142-.234-.233-.14-.142-.234-.233-.14-.142-.234-.233-.14-.142-.234-.233-.18-.18c0 .1.01.198.015.297L1.7 9.7l.233.234.142.14.233.234.142.14.233.234.142.14.233.234.142.14.233.234.142.14.233.234.142.14.233.234.142.14.233.234.142.14.233.234.142.14.233.234.142.14.233.234.142.14.233.234.142.14.233.234.142.14.233.234.142.14.233.234.142.14.233.234.142.14.233.234.142.14.233.234.142.14.233.234.142.14.208.208.297.016-.364-.364zm-.75 0l-.375-.375-.14-.142-.234-.233-.14-.142-.234-.233-.14-.142-.234-.233-.14-.142-.234-.233-.14-.142-.234-.233-.14-.142-.234-.233-.14-.142-.234-.233-.14-.142-.234-.233-.14-.142-.234-.233-.14-.142-.234-.233-.14-.142-.234-.233-.14-.142-.234-.233-.14-.142-.234-.233-.14-.142-.234-.233-.14-.142-.234-.233-.14-.142-.234-.233-.136-.137.05.334.178.178.142.14.233.234.142.14.233.234.142.14.233.234.14.14.233.234.142.14.233.234.142.14.233.234.142.14.233.234.142.14.233.234.142.14.233.234.142.14.233.234.142.14.233.234.142.14.233.234.142.14.233.234.142.14.233.234.142.14.233.234.142.14.233.234.142.14.13.13.333.05-.087-.086-.234-.234zm-.89-.14l-.234-.234-.14-.142-.234-.233-.14-.142-.234-.233-.14-.142-.234-.233-.14-.142-.234-.233-.14-.142-.234-.233-.14-.142-.234-.233-.14-.142-.234-.233-.14-.142-.234-.233-.14-.142-.234-.233-.14-.142-.234-.233-.14-.142-.234-.233-.14-.142-.234-.233-.14-.142-.234-.233-.14-.142-.214-.214.098.38.116.115.233.234.142.14.233.234.142.14.233.234.142.14.233.234.142.14.233.234.142.14.233.234.142.14.233.234.142.14.233.234.142.14.233.234.142.14.233.234.142.14.233.234.142.14.233.234.142.14.233.234.142.14.233.234.067.066.38.098-.165-.164-.14-.14zM6.2 16.167l-.234-.233-.14-.142-.234-.233-.14-.142-.234-.233-.14-.142-.234-.233-.14-.142-.234-.233-.14-.142-.234-.233-.14-.142-.234-.233-.14-.142-.234-.233-.14-.142-.234-.233-.14-.142-.234-.233-.14-.142-.253-.252.222.504.03.03.233.234.142.14.233.234.142.14.233.234.142.14.233.234.142.14.233.234.142.14.233.234.142.14.233.234.142.14.233.234.142.14.233.234.142.14.216.216.503.222-.203-.203-.14-.142zm-1.5-.75l-.234-.233-.14-.142-.234-.233-.14-.142-.234-.233-.14-.142-.234-.233-.14-.142-.12-.12a7.76 7.76 0 0 0 1.833 1.833l-.07-.07-.14-.142z"/><defs ><path id="B" d="M14.076 15.324l-.234.234-.14-.14.234-.234z"/><path id="C" d="M15.2 13.92l.234-.234.14.14-.234.234z"/><path id="D" d="M16.326 11.293l.235-.234.14.142-.235.234z"/><path id="E" d="M16.326 8.292l.232-.233.142.14-.232.233z"/><path id="F" d="M9.575 9.043l.233-.233.14.14-.233.233z"/><path id="G" d="M10.324 8.293l.233-.234.142.14-.233.234z"/><path id="H" d="M5.45 5.2l-.233.233-.14-.14.233-.233z"/></defs></svg>