<?xml version="1.0" encoding="UTF-8" standalone="no"?>
<!-- Created with Inkscape (http://www.inkscape.org/) -->

<svg
   xmlns:dc="http://purl.org/dc/elements/1.1/"
   xmlns:cc="http://creativecommons.org/ns#"
   xmlns:rdf="http://www.w3.org/1999/02/22-rdf-syntax-ns#"
   xmlns:svg="http://www.w3.org/2000/svg"
   xmlns="http://www.w3.org/2000/svg"
   xmlns:sodipodi="http://sodipodi.sourceforge.net/DTD/sodipodi-0.dtd"
   xmlns:inkscape="http://www.inkscape.org/namespaces/inkscape"
   width="39.539536"
   height="28.348452"
   id="svg6142"
   version="1.1"
   inkscape:version="0.48.4 r9939"
   sodipodi:docname="New document 3">
  <defs
     id="defs6144" />
  <sodipodi:namedview
     id="base"
     pagecolor="#ffffff"
     bordercolor="#666666"
     borderopacity="1.0"
     inkscape:pageopacity="0.0"
     inkscape:pageshadow="2"
     inkscape:zoom="1.1634766"
     inkscape:cx="43.341195"
     inkscape:cy="54.174227"
     inkscape:document-units="px"
     inkscape:current-layer="layer1"
     showgrid="false"
     fit-margin-top="0"
     fit-margin-left="0"
     fit-margin-right="0"
     fit-margin-bottom="0"
     inkscape:window-width="1920"
     inkscape:window-height="1018"
     inkscape:window-x="-8"
     inkscape:window-y="-8"
     inkscape:window-maximized="1" />
  <metadata
     id="metadata6147">
    <rdf:RDF>
      <cc:Work
         rdf:about="">
        <dc:format>image/svg+xml</dc:format>
        <dc:type
           rdf:resource="http://purl.org/dc/dcmitype/StillImage" />
        <dc:title></dc:title>
      </cc:Work>
    </rdf:RDF>
  </metadata>
  <g
     inkscape:label="Layer 1"
     inkscape:groupmode="layer"
     id="layer1"
     transform="translate(-331.65881,-558.18796)">
    <g
       id="g5232"
       transform="matrix(-0.07272936,0,0,-0.04818592,371.19834,586.53641)">
      <rect
         id="rect5234"
         height="403.34299"
         y="184.957"
         x="3.86111"
         width="134.70799" />
      <rect
         id="rect5236"
         height="287.14999"
         y="296.358"
         x="188.54201"
         width="327.625" />
      <path
         id="path5238"
         d="m 225.167,588.3 0,-14.3471 c 0,-5.95828 3.31944,-10.8471 7.36111,-10.8471 l 28.8333,0 c 4.05555,0 7.34722,4.90273 7.34722,10.8471 l 0,14.3471"
         inkscape:connector-curvature="0"
         style="fill:#404040" />
      <path
         id="path5240"
         d="m 266.236,541.217 -1.45833,28.4997 c -0.26389,5.01384 -3.48611,9.12491 -7.19444,9.12491 -3.70833,0 -17.5278,0 -21.2222,0 -3.6944,0 -6.93055,-4.11107 -7.20833,-9.12491 l -1.54167,-30.0136"
         inkscape:connector-curvature="0"
         style="opacity:0.1" />
      <path
         id="path5242"
         d="m 441.278,588.3 0,-14.3471 c 0,-5.95828 3.31944,-10.8471 7.36111,-10.8471 l 28.8333,0 c 4.05555,0 7.34722,4.90273 7.34722,10.8471 l 0,14.3471"
         inkscape:connector-curvature="0"
         style="fill:#404040" />
      <path
         id="path5244"
         d="m 482.347,541.217 -1.45833,28.4997 c -0.26389,5.01384 -3.48611,9.12491 -7.19444,9.12491 -3.70833,0 -17.5278,0 -21.2222,0 -3.6944,0 -6.93055,-4.11107 -7.20833,-9.12491 l -1.54167,-30.0136"
         inkscape:connector-curvature="0"
         style="opacity:0.1" />
      <rect
         id="rect5246"
         height="48.930099"
         y="211.679"
         x="175.04201"
         width="341.13901"
         style="fill:#404040" />
      <g
         id="g5248">
        <g
           id="g5250">
          <rect
             id="rect5252"
             height="59.805"
             y="148.24899"
             x="318.23599"
             width="13.5694"
             style="fill:#b7b7b7" />
          <rect
             id="rect5254"
             height="59.805"
             y="148.24899"
             x="277.11099"
             width="13.5694"
             style="fill:#b7b7b7" />
          <rect
             id="rect5256"
             height="59.805"
             y="148.24899"
             x="236"
             width="13.5694"
             style="fill:#b7b7b7" />
          <rect
             id="rect5258"
             height="59.805"
             y="148.24899"
             x="194.875"
             width="13.5694"
             style="fill:#b7b7b7" />
        </g>
      </g>
      <g
         id="g5260">
        <g
           id="g5262">
          <rect
             id="rect5264"
             height="59.805"
             y="148.24899"
             x="489.29199"
             width="13.5694"
             style="fill:#b7b7b7" />
          <rect
             id="rect5266"
             height="59.805"
             y="148.24899"
             x="448.17999"
             width="13.5694"
             style="fill:#b7b7b7" />
          <rect
             id="rect5268"
             height="59.805"
             y="148.24899"
             x="407.069"
             width="13.5694"
             style="fill:#b7b7b7" />
          <rect
             id="rect5270"
             height="59.805"
             y="148.24899"
             x="365.944"
             width="13.5694"
             style="fill:#b7b7b7" />
        </g>
      </g>
      <g
         id="g5272"
         style="opacity:0.15">
        <polygon
           id="polygon5274"
           points="272.389,201.29 272.389,204.845 254.292,204.845 254.292,201.29 231.278,201.29 231.278,204.845 212.833,204.845 212.833,201.29 189.833,201.29 189.833,204.845 186.319,204.845 186.319,237.539 341.403,237.539 341.403,204.845 336.444,204.845 336.444,201.29 313.431,201.29 313.431,204.845 295.403,204.845 295.403,201.29 " />
      </g>
      <g
         id="g5276"
         style="opacity:0.15">
        <polygon
           id="polygon5278"
           points="444.153,201.29 444.153,204.845 426.055,204.845 426.055,201.29 403.055,201.29 403.055,204.845 384.597,204.845 384.597,201.29 361.597,201.29 361.597,204.845 358.083,204.845 358.083,237.539 513.167,237.539 513.167,204.845 508.208,204.845 508.208,201.29 485.208,201.29 485.208,204.845 467.167,204.845 467.167,201.29 " />
      </g>
      <g
         id="g5280">
        <g
           id="g5282">
          <rect
             id="rect5284"
             height="3.91663"
             y="207.33099"
             x="191.819"
             width="19.694401"
             style="fill:#b7b7b7" />
          <rect
             id="rect5286"
             height="3.91663"
             y="207.33099"
             x="232.931"
             width="19.694401"
             style="fill:#b7b7b7" />
          <rect
             id="rect5288"
             height="3.91663"
             y="207.33099"
             x="274.04199"
             width="19.694401"
             style="fill:#b7b7b7" />
          <rect
             id="rect5290"
             height="3.91663"
             y="207.33099"
             x="315.16699"
             width="19.694401"
             style="fill:#b7b7b7" />
          <rect
             id="rect5292"
             height="27.7775"
             y="209.28999"
             x="318.23599"
             width="13.5694"
             style="fill:#b7b7b7" />
          <rect
             id="rect5294"
             height="27.7775"
             y="209.28999"
             x="277.11099"
             width="13.5694"
             style="fill:#b7b7b7" />
          <rect
             id="rect5296"
             height="27.7775"
             y="209.28999"
             x="236"
             width="13.5694"
             style="fill:#b7b7b7" />
          <rect
             id="rect5298"
             height="27.7775"
             y="209.28999"
             x="194.875"
             width="13.5694"
             style="fill:#b7b7b7" />
        </g>
        <rect
           id="rect5300"
           height="25.110901"
           y="228.73399"
           x="184.88901"
           width="165.306"
           style="opacity:0.15" />
      </g>
      <g
         id="g5302">
        <g
           id="g5304">
          <rect
             id="rect5306"
             height="3.91663"
             y="207.33099"
             x="362.875"
             width="19.694401"
             style="fill:#b7b7b7" />
          <rect
             id="rect5308"
             height="3.91663"
             y="207.33099"
             x="404"
             width="19.694401"
             style="fill:#b7b7b7" />
          <rect
             id="rect5310"
             height="3.91663"
             y="207.33099"
             x="445.11099"
             width="19.694401"
             style="fill:#b7b7b7" />
          <rect
             id="rect5312"
             height="3.91663"
             y="207.33099"
             x="486.23599"
             width="19.694401"
             style="fill:#b7b7b7" />
          <rect
             id="rect5314"
             height="27.7775"
             y="209.28999"
             x="489.29199"
             width="13.5694"
             style="fill:#b7b7b7" />
          <rect
             id="rect5316"
             height="27.7775"
             y="209.28999"
             x="448.17999"
             width="13.5694"
             style="fill:#b7b7b7" />
          <rect
             id="rect5318"
             height="27.7775"
             y="209.28999"
             x="407.069"
             width="13.5694"
             style="fill:#b7b7b7" />
          <rect
             id="rect5320"
             height="27.7775"
             y="209.28999"
             x="365.944"
             width="13.5694"
             style="fill:#b7b7b7" />
        </g>
        <rect
           id="rect5322"
           height="25.110901"
           y="228.73399"
           x="355.944"
           width="165.306"
           style="opacity:0.15" />
      </g>
      <g
         id="g5324"
         style="opacity:0.2">
        <path
           id="path5326"
           d="m 515.347,31.2497 -20.4306,32.4719 -328.9584,0 -19.0972,-29.8747 -30.7358,0 L 96.5139,0 29.3194,0 l 0,36.0969 c 0,0 20.1806,0 26.0417,0 3.86111,0 3.86111,6.65271 0,6.65271 l -4.125,-10e-6 c -5.20833,0 -6.94444,1.08332 -6.94444,4.33329 l 0,13.6943 c 0,3.24997 1.73611,4.33329 6.94444,4.33329 l 4.125,0 c 3.86111,0 3.86111,6.65271 0,6.65271 L 0,71.7632 l 0,43.9024 543.653,0 0,-84.4159 -28.306,0 z"
           inkscape:connector-curvature="0"
           style="fill:#666666" />
      </g>
      <g
         id="g5328">
        <path
           id="path5330"
           d="M 515.347,35.6524 494.9164,68.1243 165.958,68.1244 146.8608,38.2497 116.125,38.2496 96.5139,4.40274 l -67.1945,0 0,36.0969 c 0,0 20.1806,0 26.0417,0 3.86111,0 3.86111,6.65271 0,6.65271 l -4.125,-5e-5 c -5.20833,0 -6.94444,1.08332 -6.94444,4.33329 l 0,13.6943 c 0,3.24997 1.73611,4.33329 6.94444,4.33329 l 4.125,0 c 3.86111,0 3.86111,6.65271 0,6.65271 L 0,76.1659 l 0,512.134 52.7222,0 1.09722,-8.59714 c 0.277778,-2.13887 2.27778,-3.90274 4.43055,-3.90274 l 2.38889,0 c 2.15278,0 4.16667,1.76387 4.43055,3.90274 l 1.09722,8.59714 148.667,0 -7.25,-257.873 c -0.125,-4.33329 2.40278,-7.87493 5.59722,-7.87493 3.18056,0 5.98611,3.55552 6.20833,7.86104 l 12.2222,237.845 c 0.23611,4.33329 3.01389,7.86104 6.19444,7.86104 l 18.2778,0 c 3.18056,0 5.97222,-3.54163 6.19444,-7.86104 l 12.2222,-237.845 c 0.23611,-4.3194 3.02778,-7.86104 6.20833,-7.86104 3.19444,0 5.72222,3.55552 5.59722,7.87493 l -7.25,257.873 151.917,0 -7.25,-257.873 c -0.125,-4.33329 2.40278,-7.87493 5.59722,-7.87493 3.18056,0 5.98611,3.55552 6.20833,7.86104 l 12.2222,237.845 c 0.23611,4.33329 3.01389,7.86104 6.19444,7.86104 l 18.2778,0 c 3.18056,0 5.97222,-3.54163 6.19444,-7.86104 l 12.2222,-237.845 c 0.23611,-4.3194 3.02778,-7.86104 6.20833,-7.86104 3.19444,0 5.72222,3.55552 5.59722,7.87493 l -7.25,257.873 48.4167,0 -6.9e-4,-552.6475 -28.264,0 z M 92.6667,232.984 l 5.20833,0 c 2.15278,0 3.93055,1.63887 3.93055,3.65274 0,2.01387 -0.73611,3.66663 -1.625,3.66663 -0.902778,0 -1.63889,1.76387 -1.63889,3.93052 l 0,173.318 c 0,2.16665 -1.77778,3.94441 -3.93055,3.94441 l -89.5833,0 -6e-5,-218.9703 17.7083,0 c 2.15278,0 4.19444,1.74998 4.5,3.88885 l 15.7917,106.582 c 0.305556,2.13887 -0.666667,5.18051 -2.16667,6.72216 l -6.23611,6.48605 c -1.5,1.56943 -2.73611,4.61107 -2.73611,6.77771 l 0,35.958 c 0,2.16665 1.77778,3.94441 3.93055,3.94441 l 48.1805,0 c 2.15278,0 3.93055,-1.77776 3.93055,-3.94441 l 0,-33.7913 c 0,-2.16665 -1.36111,-5.0694 -3.02778,-6.47216 l -13.6528,-11.4304 c -1.66667,-1.38888 -3.18056,-4.29163 -3.33333,-6.45827 l -8.48611,-104.36 c -0.166667,-2.15276 1.45833,-3.91663 3.625,-3.91663 0,0 34.9167,0 36.2778,0 1.3611,0 2.5,1.6111 2.5,3.59719 0,1.95831 -1.77778,3.5833 -3.93055,3.5833 l -5.23602,-5e-4 c -2.15278,0 -3.93055,1.76387 -3.93055,3.93052 l 0,15.4026 c -5e-5,2.18088 1.77775,3.95888 3.93055,3.95888 z m 244.2363,-7.875 c 0,4.33329 -3.54167,7.87493 -7.875,7.87493 l -131.25,7e-5 c -4.33333,0 -7.86111,-3.54163 -7.86111,-7.87493 l 0,-80.3187 c 0,-4.33329 3.54167,-7.87493 7.86111,-7.87493 l 131.236,0 c 4.33333,0 7.875,3.54163 7.875,7.87493 l 0,80.31863 z m 171.444,0 c 0,4.33329 -3.54167,7.87493 -7.875,7.87493 l -131.236,0 c -4.33333,0 -7.86111,-3.54163 -7.86111,-7.87493 l 0,-80.3187 c 0,-4.33329 3.54167,-7.87493 7.86111,-7.87493 l 131.236,0 c 4.33333,0 7.875,3.54163 7.875,7.87493 l 0,80.3187 z"
           inkscape:connector-curvature="0"
           style="fill:#606060" />
      </g>
      <g
         id="g5332"
         style="opacity:0.23999999">
        <rect
           id="rect5334"
           height="126.346"
           y="76.179802"
           x="2.7083299"
           width="13.8889"
           style="fill:#ffffff" />
      </g>
      <g
         id="g5336"
         style="opacity:0.23999999">
        <rect
           id="rect5338"
           height="36.096901"
           y="4.40274"
           x="33.083302"
           width="19.7778"
           style="fill:#ffffff" />
      </g>
      <g
         id="g5340"
         style="opacity:0.23999999">
        <rect
           id="rect5342"
           height="166.804"
           y="421.51001"
           x="2.7083299"
           width="13.8889"
           style="fill:#ffffff" />
      </g>
      <g
         id="g5344"
         style="opacity:0.15">
        <rect
           id="rect5346"
           height="552.66101"
           y="35.652401"
           x="531.61102"
           width="9.7083302"
           style="fill:#ffffff" />
      </g>
      <path
         id="path5348"
         d="m 28.8056,205.415 16.0972,107.277 c 0.319444,2.13887 -0.583333,5.22217 -2.02778,6.84716 L 36.125,327.219 c -1.44444,1.6111 -2.61111,4.72218 -2.61111,6.88882 l 0,32.5275"
         inkscape:connector-curvature="0"
         style="opacity:0.23999999;fill:none;stroke:#ffffff;stroke-width:5.27879524;stroke-linecap:round;stroke-linejoin:round" />
      <rect
         id="rect5350"
         height="218.98399"
         y="202.526"
         x="2.7083299"
         width="2.3055601"
         style="opacity:0.23999999;fill:#ffffff" />
      <g
         id="g5352">
        <path
           id="path5354"
           d="m 273.139,329.497 c 0,0 -11.3056,229.081 -12.0278,235.651 -0.7222,6.57 -3.61111,6.77771 -3.61111,6.77771"
           inkscape:connector-curvature="0"
           style="opacity:0.15;fill:none;stroke:#ffffff;stroke-width:4.18926048;stroke-linecap:round" />
        <path
           id="path5356"
           d="m 220.847,329.094 c 0,0 11.5139,229.47 12.2361,236.039 0.7222,6.569 3.40278,6.77771 3.40278,6.77771"
           inkscape:connector-curvature="0"
           style="opacity:0.15;fill:none;stroke:#ffffff;stroke-width:4.18926048;stroke-linecap:round" />
      </g>
      <g
         id="g5358">
        <path
           id="path5360"
           d="m 489.305,329.497 c 0,0 -11.3056,229.081 -12.0278,235.651 -0.7222,6.57 -3.61111,6.77771 -3.61111,6.77771"
           inkscape:connector-curvature="0"
           style="opacity:0.15;fill:none;stroke:#ffffff;stroke-width:4.18926048;stroke-linecap:round" />
        <path
           id="path5362"
           d="m 437.028,329.094 c 0,0 11.5139,229.47 12.2361,236.039 0.7222,6.569 3.40278,6.77771 3.40278,6.77771"
           inkscape:connector-curvature="0"
           style="opacity:0.15;fill:none;stroke:#ffffff;stroke-width:4.18926048;stroke-linecap:round" />
      </g>
      <path
         id="path5364"
         d="m 188.542,144.096 0,81.2631 c 0,4.97218 4.06944,9.05547 9.05555,9.05547 l 131.486,0 c 4.98611,0 9.05555,-4.08329 9.05555,-9.05547 l 0,-81.2631"
         inkscape:connector-curvature="0"
         style="opacity:0.3;fill:none;stroke:#ffffff;stroke-width:4.22304201;stroke-linecap:round" />
      <line
         id="line5366"
         x2="330.90302"
         y2="135.401"
         x1="197.75"
         y1="135.401"
         style="opacity:0.76999996;fill:none;stroke:#353535;stroke-width:4.22304201;stroke-linecap:round" />
      <path
         id="path5368"
         d="m 360.042,144.096 0,81.2631 c 0,4.97218 4.06944,9.05547 9.05555,9.05547 l 131.486,0 c 4.98611,0 9.05555,-4.08329 9.05555,-9.05547 l 0,-81.2631"
         inkscape:connector-curvature="0"
         style="opacity:0.3;fill:none;stroke:#ffffff;stroke-width:4.22304201;stroke-linecap:round" />
      <line
         id="line5370"
         x2="502.40302"
         y2="135.401"
         x1="369.25"
         y1="135.401"
         style="opacity:0.76999996;fill:none;stroke:#353535;stroke-width:4.22304201;stroke-linecap:round" />
      <rect
         id="rect5372"
         height="216.095"
         y="205.41499"
         x="8.9722204"
         width="7.6388898"
         style="opacity:0.23999999;fill:#ffffff" />
      <line
         id="line5374"
         x2="213.278"
         y2="583.633"
         x1="206.04201"
         y1="329.70499"
         style="opacity:0.15;fill:none;stroke:#ffffff;stroke-width:4.18926048;stroke-linecap:round" />
      <line
         id="line5376"
         x2="280.51401"
         y2="583.633"
         x1="287.77802"
         y1="329.70499"
         style="opacity:0.15;fill:none;stroke:#ffffff;stroke-width:4.18926048;stroke-linecap:round" />
      <line
         id="line5378"
         x2="429.55499"
         y2="583.633"
         x1="422.29199"
         y1="329.70499"
         style="opacity:0.15;fill:none;stroke:#ffffff;stroke-width:4.18926048;stroke-linecap:round" />
      <line
         id="line5380"
         x2="496.77802"
         y2="583.633"
         x1="504.02802"
         y1="329.70499"
         style="opacity:0.15;fill:none;stroke:#ffffff;stroke-width:4.18926048;stroke-linecap:round" />
      <rect
         id="rect5382"
         height="48.610699"
         y="372.89899"
         x="57.194401"
         width="3.3055601"
         style="fill:#404040" />
      <rect
         id="rect5384"
         height="2.1944201"
         y="372.89899"
         x="57.194401"
         width="3.3055601"
         style="fill:#353535" />
      <rect
         id="rect5386"
         height="2.2083099"
         y="419.28799"
         x="57.194401"
         width="3.3055601"
         style="fill:#353535" />
      <path
         id="path5388"
         stroke-miterlimit="10"
         d="m 95.9861,422.482 c 2.15278,0 3.93055,-1.76387 3.93055,-3.93052 l 0,-173.332 c 0,-2.16665 0.73611,-3.93052 1.63889,-3.93052"
         inkscape:connector-curvature="0"
         style="opacity:0.2;fill:none;stroke:#ffffff;stroke-width:4.22304201;stroke-miterlimit:10" />
      <path
         id="path5390"
         d="m 97.875,232.984 -5.2083,0 c -2.15278,0 -3.93055,-1.77776 -3.93055,-3.94441 l 0,-15.4026 c 0,-2.16665 1.77778,-3.93052 3.93055,-3.93052 l 5.20833,0"
         inkscape:connector-curvature="0"
         style="opacity:0.23999999;fill:#ffffff" />
      <polyline
         id="polyline5392"
         points="95.75,5.8055,115.361,39.6663,146.097,39.6663,165.194,69.541,495.736,69.541,516.167,37.0552"
         style="opacity:0.3;fill:none;stroke:#ffffff;stroke-width:4.22304201;stroke-linecap:round" />
      <path
         id="path5394"
         d="m 51.2361,47.1523 c -5.20833,0 -6.94444,1.08332 -6.94444,4.33329 l 0,13.6943 c 0,3.24997 1.73611,4.33329 6.94444,4.33329 l 0,-22.36088 z"
         inkscape:connector-curvature="0"
         style="opacity:0.23999999;fill:#ffffff" />
    </g>
  </g>
</svg>
