<?xml version="1.0" encoding="UTF-8" standalone="no"?>
<!-- Creator: CorelDRAW -->

<svg
   xmlns:dc="http://purl.org/dc/elements/1.1/"
   xmlns:cc="http://creativecommons.org/ns#"
   xmlns:rdf="http://www.w3.org/1999/02/22-rdf-syntax-ns#"
   xmlns:svg="http://www.w3.org/2000/svg"
   xmlns="http://www.w3.org/2000/svg"
   xmlns:sodipodi="http://sodipodi.sourceforge.net/DTD/sodipodi-0.dtd"
   xmlns:inkscape="http://www.inkscape.org/namespaces/inkscape"
   xml:space="preserve"
   width="14.1mm"
   height="15.5mm"
   style="clip-rule:evenodd;fill-rule:evenodd;image-rendering:optimizeQuality;shape-rendering:geometricPrecision;text-rendering:geometricPrecision"
   viewBox="0 0 0.55511814 0.61023624"
   id="svg2"
   version="1.1"
   inkscape:version="0.91 r13725"
   sodipodi:docname="microsd.svg"><metadata
     id="metadata174"><rdf:RDF><cc:Work
         rdf:about=""><dc:format>image/svg+xml</dc:format><dc:type
           rdf:resource="http://purl.org/dc/dcmitype/StillImage" /><dc:title></dc:title></cc:Work></rdf:RDF></metadata><sodipodi:namedview
     pagecolor="#ffffff"
     bordercolor="#666666"
     borderopacity="1"
     objecttolerance="10"
     gridtolerance="10"
     guidetolerance="10"
     inkscape:pageopacity="0"
     inkscape:pageshadow="2"
     inkscape:window-width="1805"
     inkscape:window-height="967"
     id="namedview172"
     showgrid="false"
     fit-margin-top="0"
     fit-margin-left="0"
     fit-margin-right="0"
     fit-margin-bottom="0"
     inkscape:zoom="6.9089493"
     inkscape:cx="42.038027"
     inkscape:cy="26.39597"
     inkscape:window-x="37"
     inkscape:window-y="141"
     inkscape:window-maximized="0"
     inkscape:current-layer="svg2"
     inkscape:document-units="mm"
     units="mm" /><defs
     id="defs4"><style
       type="text/css"
       id="style6"><![CDATA[
    .str1 {stroke:#231F20;stroke-width:0.003}
    .str0 {stroke:#808184;stroke-width:0.003}
    .str2 {stroke:black;stroke-width:0.003}
    .str3 {stroke:black;stroke-width:0.003;stroke-opacity:0.501961}
    .fil4 {fill:none;fill-rule:nonzero}
    .fil7 {fill:none;fill-rule:nonzero}
    .fil0 {fill:#231F20;fill-rule:nonzero}
    .fil6 {fill:#4A4A4C;fill-rule:nonzero}
    .fil5 {fill:#747678;fill-rule:nonzero}
    .fil1 {fill:#AFACB0;fill-rule:nonzero}
    .fil2 {fill:#C4C5C7;fill-rule:nonzero}
    .fil3 {fill:#E9E9EA;fill-rule:nonzero}
    .fil9 {fill:#C09038;fill-rule:nonzero;fill-opacity:0.501961}
    .fil8 {fill:#CCA251;fill-rule:nonzero;fill-opacity:0.501961}
    .fil10 {fill:#E1C57B;fill-rule:nonzero;fill-opacity:0.501961}
   ]]></style></defs><g
     id="Layer_x0020_1"
     transform="matrix(0.49193611,0,0,0.49193611,-1.9379313,-3.0887765)"><metadata
       id="CorelCorpID_0Corel-Layer" /><polygon
       class="fil0"
       points="4.08565,7.19655 4.08565,7.0802 4.02914,7.0802 4.02914,7.19655 "
       id="polygon10"
       style="fill:#231f20;fill-rule:nonzero" /><polygon
       class="fil0"
       points="4.63413,7.0802 4.63413,7.19655 4.69064,7.19655 4.69064,7.0802 "
       id="polygon12"
       style="fill:#231f20;fill-rule:nonzero" /><polygon
       class="fil1 str0"
       points="4.71374,7.52748 4.71374,7.38857 4.97314,7.38857 4.97314,7.52748 "
       id="polygon14"
       style="fill:#afacb0;fill-rule:nonzero;stroke:#808184;stroke-width:0.003" /><polygon
       class="fil2 str0"
       points="4.16439,6.37384 4.16439,6.32519 4.51572,6.32519 4.51572,6.37384 "
       id="polygon16"
       style="fill:#c4c5c7;fill-rule:nonzero;stroke:#808184;stroke-width:0.003" /><polygon
       class="fil2 str1"
       points="5.06021,6.97561 5.06021,6.90044 5.06886,6.90044 5.06886,6.97561 "
       id="polygon18"
       style="fill:#c4c5c7;fill-rule:nonzero;stroke:#231f20;stroke-width:0.003" /><polygon
       class="fil2 str1"
       points="5.06021,6.56176 5.06021,6.48659 5.06886,6.48659 5.06886,6.56176 "
       id="polygon20"
       style="fill:#c4c5c7;fill-rule:nonzero;stroke:#231f20;stroke-width:0.003" /><polygon
       class="fil2 str1"
       points="5.06021,7.30078 5.06021,7.22561 5.06886,7.22561 5.06886,7.30078 "
       id="polygon22"
       style="fill:#c4c5c7;fill-rule:nonzero;stroke:#231f20;stroke-width:0.003" /><polygon
       class="fil3"
       points="4.64359,6.36848 4.64742,6.36176 4.64742,6.296 4.64742,6.29063 4.6532,6.28526 4.65896,6.28124 4.76276,6.28124 4.76853,6.28526 4.7743,6.296 4.7743,6.31211 4.7743,6.31747 4.78006,6.32285 4.78582,6.32285 4.79448,6.32285 4.80024,6.32285 4.806,6.31211 4.806,6.28124 4.97996,6.28124 4.97996,6.31211 4.98573,6.32285 4.9915,6.32285 5.00111,6.32285 5.00688,6.32285 5.01264,6.31211 5.01264,6.296 5.01841,6.28526 5.02417,6.28124 5.06455,6.28124 5.06455,7.38857 4.98861,7.38857 4.98285,7.38857 4.97709,7.39393 4.97709,7.40065 4.97709,7.40869 4.97709,7.41542 4.98861,7.42078 5.04148,7.42078 5.05013,7.42346 5.05878,7.42748 5.06166,7.43554 5.06455,7.44494 5.06455,7.5013 5.06166,7.51339 5.05878,7.51876 5.05013,7.52547 5.04148,7.52815 4.95113,7.52815 4.95113,7.49594 4.95113,7.48654 4.94537,7.48118 4.93671,7.47715 4.9223,7.47715 4.91653,7.48118 4.91366,7.48386 4.91077,7.48924 4.91077,7.51608 4.90788,7.52279 4.905,7.52547 4.89924,7.52815 4.87617,7.52815 4.87041,7.52547 4.86752,7.52279 4.86463,7.51608 4.86463,7.48654 4.86463,7.47447 4.85887,7.46239 4.85021,7.45433 4.83869,7.44763 4.82716,7.44494 4.80024,7.44494 4.79159,7.44494 4.78295,7.43822 4.7743,7.43286 4.74257,7.40065 4.73392,7.39393 4.72239,7.38857 4.71374,7.38857 4.08423,7.38857 4.07557,7.38857 4.06405,7.39393 4.05539,7.40065 4.02367,7.43286 4.01503,7.43822 4.00638,7.44494 3.99485,7.44494 3.94871,7.44494 3.94871,6.28124 4.0208,6.28124 4.02656,6.28526 4.03232,6.29063 4.03232,6.296 4.03232,6.36176 4.03521,6.36848 4.03809,6.37117 4.04387,6.37385 4.06405,6.37385 4.07557,6.36848 4.07557,6.36176 4.07557,6.30808 4.07846,6.30003 4.08423,6.29063 4.08999,6.28526 4.09864,6.28124 4.12556,6.28124 4.1342,6.28526 4.14285,6.29063 4.14574,6.30003 4.14861,6.30808 4.14861,6.36176 4.14861,6.36848 4.16016,6.37385 4.18034,6.37385 4.1861,6.37117 4.18899,6.36848 4.19187,6.36176 4.19187,6.296 4.19763,6.28526 4.20341,6.28124 4.22646,6.28124 4.23224,6.28526 4.238,6.29063 4.24088,6.296 4.24088,6.31479 4.24088,6.32017 4.24377,6.32285 4.2553,6.32285 4.25819,6.32017 4.25819,6.31479 4.25819,6.28124 4.41773,6.28124 4.41773,6.31479 4.42061,6.32017 4.42349,6.32285 4.43214,6.32285 4.43791,6.32017 4.43791,6.31479 4.43791,6.296 4.44367,6.28526 4.44945,6.28124 4.47635,6.28124 4.48211,6.28526 4.48788,6.296 4.48788,6.36176 4.48788,6.36848 4.49942,6.37385 4.5196,6.37385 4.52537,6.37117 4.52826,6.36848 4.53113,6.36176 4.53113,6.30808 4.53113,6.30003 4.53691,6.29063 4.54555,6.28526 4.5542,6.28124 4.57727,6.28124 4.58592,6.28526 4.59457,6.29063 4.60034,6.30003 4.60321,6.30808 4.60321,6.36176 4.60321,6.36848 4.61476,6.37385 4.63494,6.37385 4.6407,6.37117 "
       id="polygon24"
       style="fill:#e9e9ea;fill-rule:nonzero" /><polygon
       class="fil4 str0"
       points="4.64359,6.36848 4.64742,6.36176 4.64742,6.296 4.64742,6.29063 4.6532,6.28526 4.65896,6.28124 4.76276,6.28124 4.76853,6.28526 4.7743,6.296 4.7743,6.31211 4.7743,6.31747 4.78006,6.32285 4.78582,6.32285 4.79448,6.32285 4.80024,6.32285 4.806,6.31211 4.806,6.28124 4.97996,6.28124 4.97996,6.31211 4.98573,6.32285 4.9915,6.32285 5.00111,6.32285 5.00688,6.32285 5.01264,6.31211 5.01264,6.296 5.01841,6.28526 5.02417,6.28124 5.06455,6.28124 5.06455,7.38857 4.98861,7.38857 4.98285,7.38857 4.97709,7.39393 4.97709,7.40065 4.97709,7.40869 4.97709,7.41542 4.98861,7.42078 5.04148,7.42078 5.05013,7.42346 5.05878,7.42748 5.06166,7.43554 5.06455,7.44494 5.06455,7.5013 5.06166,7.51339 5.05878,7.51876 5.05013,7.52547 5.04148,7.52815 4.95113,7.52815 4.95113,7.49594 4.95113,7.48654 4.94537,7.48118 4.93671,7.47715 4.9223,7.47715 4.91653,7.48118 4.91366,7.48386 4.91077,7.48924 4.91077,7.51608 4.90788,7.52279 4.905,7.52547 4.89924,7.52815 4.87617,7.52815 4.87041,7.52547 4.86752,7.52279 4.86463,7.51608 4.86463,7.48654 4.86463,7.47447 4.85887,7.46239 4.85021,7.45433 4.83869,7.44763 4.82716,7.44494 4.80024,7.44494 4.79159,7.44494 4.78295,7.43822 4.7743,7.43286 4.74257,7.40065 4.73392,7.39393 4.72239,7.38857 4.71374,7.38857 4.08423,7.38857 4.07557,7.38857 4.06405,7.39393 4.05539,7.40065 4.02367,7.43286 4.01503,7.43822 4.00638,7.44494 3.99485,7.44494 3.94871,7.44494 3.94871,6.28124 4.0208,6.28124 4.02656,6.28526 4.03232,6.29063 4.03232,6.296 4.03232,6.36176 4.03521,6.36848 4.03809,6.37117 4.04387,6.37385 4.06405,6.37385 4.07557,6.36848 4.07557,6.36176 4.07557,6.30808 4.07846,6.30003 4.08423,6.29063 4.08999,6.28526 4.09864,6.28124 4.12556,6.28124 4.1342,6.28526 4.14285,6.29063 4.14574,6.30003 4.14861,6.30808 4.14861,6.36176 4.14861,6.36848 4.16016,6.37385 4.18034,6.37385 4.1861,6.37117 4.18899,6.36848 4.19187,6.36176 4.19187,6.296 4.19763,6.28526 4.20341,6.28124 4.22646,6.28124 4.23224,6.28526 4.238,6.29063 4.24088,6.296 4.24088,6.31479 4.24088,6.32017 4.24377,6.32285 4.2553,6.32285 4.25819,6.32017 4.25819,6.31479 4.25819,6.28124 4.41773,6.28124 4.41773,6.31479 4.42061,6.32017 4.42349,6.32285 4.43214,6.32285 4.43791,6.32017 4.43791,6.31479 4.43791,6.296 4.44367,6.28526 4.44945,6.28124 4.47635,6.28124 4.48211,6.28526 4.48788,6.296 4.48788,6.36176 4.48788,6.36848 4.49942,6.37385 4.5196,6.37385 4.52537,6.37117 4.52826,6.36848 4.53113,6.36176 4.53113,6.30808 4.53113,6.30003 4.53691,6.29063 4.54555,6.28526 4.5542,6.28124 4.57727,6.28124 4.58592,6.28526 4.59457,6.29063 4.60034,6.30003 4.60321,6.30808 4.60321,6.36176 4.60321,6.36848 4.61476,6.37385 4.63494,6.37385 4.6407,6.37117 "
       id="polygon26"
       style="fill:none;fill-rule:nonzero;stroke:#808184;stroke-width:0.003" /><line
       class="fil4 str2"
       x1="4.0611601"
       y1="6.7751698"
       x2="4.0611601"
       y2="6.7751698"
       id="line28"
       style="fill:none;fill-rule:nonzero;stroke:#000000;stroke-width:0.003" /><path
       class="fil5"
       d="m 4.65031,7.07046 -0.232583,0 -0.011528,0 -0.011543,0.00537 -0.00865,0.00939 -0.00577,0.012083 0,0.012083 0,0.083209 c -0.00311,0.028319 0.022626,0.037583 0.037488,0.04161 l 0.232583,0 c 0.021346,-0.00722 0.032929,-0.00913 0.040362,-0.04161 l 0,-0.083209 C 4.6866289,7.0823183 4.6698651,7.0665821 4.65031,7.0704601 Z"
       id="path30"
       inkscape:connector-curvature="0"
       style="fill:#747678;fill-rule:nonzero" /><path
       class="fil4 str2"
       d="m 4.65031,7.07046 -0.232583,0 -0.011528,0 -0.011543,0.00537 -0.00865,0.00939 -0.00577,0.012083 0,0.012083 0,0.083209 c -0.00311,0.028319 0.022626,0.037583 0.037488,0.04161 l 0.232583,0 c 0.021346,-0.00722 0.032929,-0.00913 0.040362,-0.04161 l 0,-0.083209 C 4.6866289,7.0823183 4.6698651,7.0665821 4.65031,7.0704601 Z"
       id="path32"
       inkscape:connector-curvature="0"
       style="fill:none;fill-rule:nonzero;stroke:#000000;stroke-width:0.003" /><path
       class="fil5"
       d="m 4.29086,7.07046 -0.229709,0 -0.014402,0 -0.00865,0.00537 -0.00865,0.00939 -0.00576,0.012083 -0.00289,0.012083 0,0.083209 c 0.00544,0.028012 0.020902,0.038764 0.040362,0.04161 l 0.229709,0 c 0.028653,-0.00901 0.033083,-0.00532 0.040362,-0.04161 l 0,-0.083209 C 4.3261907,7.0762908 4.3164978,7.068653 4.29086,7.0704601 Z"
       id="path34"
       inkscape:connector-curvature="0"
       style="fill:#747678;fill-rule:nonzero" /><path
       class="fil4 str2"
       d="m 4.29086,7.07046 -0.229709,0 -0.014402,0 -0.00865,0.00537 -0.00865,0.00939 -0.00576,0.012083 -0.00289,0.012083 0,0.083209 c 0.00544,0.028012 0.020902,0.038764 0.040362,0.04161 l 0.229709,0 c 0.028653,-0.00901 0.033083,-0.00532 0.040362,-0.04161 l 0,-0.083209 C 4.3261907,7.0762908 4.3164978,7.068653 4.29086,7.0704601 Z"
       id="path36"
       inkscape:connector-curvature="0"
       style="fill:none;fill-rule:nonzero;stroke:#000000;stroke-width:0.003" /><line
       class="fil4 str2"
       x1="4.8934698"
       y1="6.82618"
       x2="4.8934698"
       y2="6.82618"
       id="line38"
       style="fill:none;fill-rule:nonzero;stroke:#000000;stroke-width:0.003" /><line
       class="fil4 str2"
       x1="4.8934698"
       y1="6.8167801"
       x2="4.8934698"
       y2="6.8167801"
       id="line40"
       style="fill:none;fill-rule:nonzero;stroke:#000000;stroke-width:0.003" /><polygon
       class="fil5"
       points="5.03282,6.92683 5.03571,6.92148 5.03571,6.91477 5.03571,6.79933 5.03571,6.78993 5.02994,6.78188 5.02129,6.77517 5.01264,6.77517 4.89347,6.77517 4.88482,6.77517 4.87617,6.78188 4.8704,6.78993 4.8704,6.79933 4.8704,6.91477 4.8704,6.92148 4.87329,6.92683 4.88193,6.93356 4.88482,6.93892 4.88482,6.94563 4.88482,6.93892 4.88482,7.29059 4.88769,7.29864 4.89347,7.30535 4.90211,7.30535 4.905,7.30535 4.91076,7.30535 4.91653,7.30267 4.91942,7.29594 4.92231,7.29059 4.93383,6.951 4.93094,6.94832 4.93094,6.9416 4.92807,6.93892 4.89635,6.90939 4.89347,6.90653 4.89347,6.89731 4.89347,6.82617 4.89347,6.81678 4.89347,6.8141 4.89924,6.80872 4.905,6.8047 4.90789,6.8047 4.99726,6.8047 5.00111,6.8047 5.00687,6.80872 5.01264,6.8141 5.01264,6.81678 5.01264,6.89731 5.01264,6.90403 5.00687,6.90939 4.97708,6.93892 4.97419,6.94563 4.97419,6.94832 4.97132,6.951 4.98285,7.29059 4.98574,7.29594 4.98861,7.30267 4.99439,7.30535 5.00111,7.30535 5.004,7.30535 5.01264,7.30535 5.01842,7.29864 5.02129,7.29059 5.02129,6.94563 5.02129,6.93892 5.02418,6.93356 "
       id="polygon42"
       style="fill:#747678;fill-rule:nonzero" /><polygon
       class="fil4 str2"
       points="5.03282,6.92683 5.03571,6.92148 5.03571,6.91477 5.03571,6.79933 5.03571,6.78993 5.02994,6.78188 5.02129,6.77517 5.01264,6.77517 4.89347,6.77517 4.88482,6.77517 4.87617,6.78188 4.8704,6.78993 4.8704,6.79933 4.8704,6.91477 4.8704,6.92148 4.87329,6.92683 4.88193,6.93356 4.88482,6.93892 4.88482,6.94563 4.88482,6.93892 4.88482,7.29059 4.88769,7.29864 4.89347,7.30535 4.90211,7.30535 4.905,7.30535 4.91076,7.30535 4.91653,7.30267 4.91942,7.29594 4.92231,7.29059 4.93383,6.951 4.93094,6.94832 4.93094,6.9416 4.92807,6.93892 4.89635,6.90939 4.89347,6.90653 4.89347,6.89731 4.89347,6.82617 4.89347,6.81678 4.89347,6.8141 4.89924,6.80872 4.905,6.8047 4.90789,6.8047 4.99726,6.8047 5.00111,6.8047 5.00687,6.80872 5.01264,6.8141 5.01264,6.81678 5.01264,6.89731 5.01264,6.90403 5.00687,6.90939 4.97708,6.93892 4.97419,6.94563 4.97419,6.94832 4.97132,6.951 4.98285,7.29059 4.98574,7.29594 4.98861,7.30267 4.99439,7.30535 5.00111,7.30535 5.004,7.30535 5.01264,7.30535 5.01842,7.29864 5.02129,7.29059 5.02129,6.94563 5.02129,6.93892 5.02418,6.93356 "
       id="polygon44"
       style="fill:none;fill-rule:nonzero;stroke:#000000;stroke-width:0.003" /><line
       class="fil4 str2"
       x1="4.1947498"
       y1="6.6476598"
       x2="4.1947498"
       y2="6.6476598"
       id="line46"
       style="fill:none;fill-rule:nonzero;stroke:#000000;stroke-width:0.003" /><polygon
       class="fil5"
       points="4.20917,6.93892 4.20917,6.93356 4.19475,6.65974 4.19764,6.65974 4.18899,6.52016 4.1861,6.51075 4.18322,6.50137 4.16592,6.49599 4.09864,6.49599 4.08133,6.50137 4.07557,6.52016 4.05252,6.93356 4.05539,6.93892 4.05828,6.94563 4.06404,6.94563 4.0727,6.94563 4.07846,6.94563 4.08422,6.93892 4.08422,6.93356 4.10441,6.55505 4.10441,6.55237 4.10441,6.54969 4.10441,6.55237 4.10441,6.54969 4.1073,6.54969 4.11017,6.54296 4.11691,6.5376 4.12267,6.53492 4.12843,6.53492 4.1342,6.53492 4.14285,6.53492 4.14861,6.5376 4.15439,6.54296 4.15727,6.54969 4.16016,6.55237 4.16016,6.54969 4.16016,6.55237 4.16016,6.55505 4.17745,6.93356 4.18033,6.93892 4.18322,6.94563 4.18899,6.94563 4.19764,6.94563 4.20341,6.94563 "
       id="polygon48"
       style="fill:#747678;fill-rule:nonzero" /><polygon
       class="fil4 str2"
       points="4.20917,6.93892 4.20917,6.93356 4.19475,6.65974 4.19764,6.65974 4.18899,6.52016 4.1861,6.51075 4.18322,6.50137 4.16592,6.49599 4.09864,6.49599 4.08133,6.50137 4.07557,6.52016 4.05252,6.93356 4.05539,6.93892 4.05828,6.94563 4.06404,6.94563 4.0727,6.94563 4.07846,6.94563 4.08422,6.93892 4.08422,6.93356 4.10441,6.55505 4.10441,6.55237 4.10441,6.54969 4.10441,6.55237 4.10441,6.54969 4.1073,6.54969 4.11017,6.54296 4.11691,6.5376 4.12267,6.53492 4.12843,6.53492 4.1342,6.53492 4.14285,6.53492 4.14861,6.5376 4.15439,6.54296 4.15727,6.54969 4.16016,6.55237 4.16016,6.54969 4.16016,6.55237 4.16016,6.55505 4.17745,6.93356 4.18033,6.93892 4.18322,6.94563 4.18899,6.94563 4.19764,6.94563 4.20341,6.94563 "
       id="polygon50"
       style="fill:none;fill-rule:nonzero;stroke:#000000;stroke-width:0.003" /><line
       class="fil4 str2"
       x1="4.6498299"
       y1="6.6476598"
       x2="4.6498299"
       y2="6.6476598"
       id="line52"
       style="fill:none;fill-rule:nonzero;stroke:#000000;stroke-width:0.003" /><polygon
       class="fil5"
       points="4.66425,6.93892 4.66425,6.93356 4.64983,6.65974 4.65272,6.65974 4.64407,6.52016 4.64118,6.51075 4.6383,6.50137 4.621,6.49599 4.55372,6.49599 4.53643,6.50137 4.53065,6.52016 4.50759,6.93356 4.51047,6.93892 4.51336,6.94563 4.51912,6.94563 4.52778,6.94563 4.53354,6.94563 4.5393,6.93892 4.5393,6.93356 4.55948,6.55505 4.55948,6.55237 4.55948,6.54969 4.55948,6.55237 4.55948,6.54969 4.56237,6.54969 4.56525,6.54296 4.57198,6.5376 4.57775,6.53492 4.58351,6.53492 4.58928,6.53492 4.59793,6.53492 4.60369,6.5376 4.60947,6.54296 4.61235,6.54969 4.61523,6.55237 4.61523,6.54969 4.61523,6.55237 4.61523,6.55505 4.63252,6.93356 4.63541,6.93892 4.6383,6.94563 4.64407,6.94563 4.65272,6.94563 4.65848,6.94563 "
       id="polygon54"
       style="fill:#747678;fill-rule:nonzero" /><polygon
       class="fil4 str2"
       points="4.66425,6.93892 4.66425,6.93356 4.64983,6.65974 4.65272,6.65974 4.64407,6.52016 4.64118,6.51075 4.6383,6.50137 4.621,6.49599 4.55372,6.49599 4.53643,6.50137 4.53065,6.52016 4.50759,6.93356 4.51047,6.93892 4.51336,6.94563 4.51912,6.94563 4.52778,6.94563 4.53354,6.94563 4.5393,6.93892 4.5393,6.93356 4.55948,6.55505 4.55948,6.55237 4.55948,6.54969 4.55948,6.55237 4.55948,6.54969 4.56237,6.54969 4.56525,6.54296 4.57198,6.5376 4.57775,6.53492 4.58351,6.53492 4.58928,6.53492 4.59793,6.53492 4.60369,6.5376 4.60947,6.54296 4.61235,6.54969 4.61523,6.55237 4.61523,6.54969 4.61523,6.55237 4.61523,6.55505 4.63252,6.93356 4.63541,6.93892 4.6383,6.94563 4.64407,6.94563 4.65272,6.94563 4.65848,6.94563 "
       id="polygon56"
       style="fill:none;fill-rule:nonzero;stroke:#000000;stroke-width:0.003" /><polygon
       class="fil2 str2"
       points="5.00688,6.8094 5.01264,6.81478 5.01264,6.81746 5.01264,6.82417 5.01264,6.81746 5.01264,6.82417 5.00976,6.82148 5.00688,6.81746 5.00111,6.81478 4.99727,6.81478 4.90788,6.81478 4.905,6.81478 4.89924,6.81746 4.89346,6.82417 4.89346,6.81746 4.89346,6.81478 4.89924,6.8094 4.905,6.80537 4.90788,6.80537 4.99727,6.80537 5.00111,6.80537 "
       id="polygon58"
       style="fill:#c4c5c7;fill-rule:nonzero;stroke:#000000;stroke-width:0.003" /><polygon
       class="fil2"
       points="4.5599,6.55087 4.56278,6.54417 4.56567,6.53879 4.57239,6.53343 4.57815,6.5294 4.58391,6.5294 4.58969,6.5294 4.59833,6.5294 4.60411,6.53343 4.60987,6.53879 4.61275,6.54417 4.61564,6.55087 "
       id="polygon60"
       style="fill:#c4c5c7;fill-rule:nonzero" /><polygon
       class="fil4 str2"
       points="4.5599,6.55087 4.56278,6.54417 4.56567,6.53879 4.57239,6.53343 4.57815,6.5294 4.58391,6.5294 4.58969,6.5294 4.59833,6.5294 4.60411,6.53343 4.60987,6.53879 4.61275,6.54417 4.61564,6.55087 "
       id="polygon62"
       style="fill:none;fill-rule:nonzero;stroke:#000000;stroke-width:0.003" /><polygon
       class="fil2"
       points="4.10296,6.55087 4.10585,6.54417 4.10874,6.53879 4.11546,6.53343 4.12122,6.5294 4.12699,6.5294 4.13277,6.5294 4.14141,6.5294 4.14719,6.53343 4.15295,6.53879 4.15582,6.54417 4.15871,6.55087 "
       id="polygon64"
       style="fill:#c4c5c7;fill-rule:nonzero" /><polygon
       class="fil4 str2"
       points="4.10296,6.55087 4.10585,6.54417 4.10874,6.53879 4.11546,6.53343 4.12122,6.5294 4.12699,6.5294 4.13277,6.5294 4.14141,6.5294 4.14719,6.53343 4.15295,6.53879 4.15582,6.54417 4.15871,6.55087 "
       id="polygon66"
       style="fill:none;fill-rule:nonzero;stroke:#000000;stroke-width:0.003" /><polygon
       class="fil2 str1"
       points="4.07559,6.34811 4.07559,6.32875 4.14863,6.32875 4.14863,6.34811 "
       id="polygon68"
       style="fill:#c4c5c7;fill-rule:nonzero;stroke:#231f20;stroke-width:0.003" /><polygon
       class="fil2 str1"
       points="4.53191,6.34811 4.53191,6.32875 4.60322,6.32875 4.60322,6.34811 "
       id="polygon70"
       style="fill:#c4c5c7;fill-rule:nonzero;stroke:#231f20;stroke-width:0.003" /><polygon
       class="fil2 str1"
       points="4.98863,7.52815 4.98863,7.42078 5.02242,7.42078 5.02242,7.52815 "
       id="polygon72"
       style="fill:#c4c5c7;fill-rule:nonzero;stroke:#231f20;stroke-width:0.003" /><polygon
       class="fil2 str1"
       points="3.94342,6.5282 3.94342,6.40607 3.95207,6.40607 3.95207,6.5282 "
       id="polygon74"
       style="fill:#c4c5c7;fill-rule:nonzero;stroke:#231f20;stroke-width:0.003" /><polygon
       class="fil2 str1"
       points="3.94342,7.06107 3.94342,6.93893 3.95207,6.93893 3.95207,7.06107 "
       id="polygon76"
       style="fill:#c4c5c7;fill-rule:nonzero;stroke:#231f20;stroke-width:0.003" /><path
       class="fil6"
       d="m 4.33123,7.13489 0,-0.0255 C 4.3262,7.076307 4.31651,7.068654 4.290868,7.070461 l -0.229709,0 -0.014417,0 -0.00865,0.00537 -0.00864,0.00939 -0.00578,0.012083 -0.00287,0.012083 0,0.0255 0.310429,0 z"
       id="path78"
       inkscape:connector-curvature="0"
       style="fill:#4a4a4c;fill-rule:nonzero" /><path
       class="fil4 str2"
       d="m 4.33123,7.13489 0,-0.0255 C 4.3262,7.076307 4.31651,7.068654 4.290868,7.070461 l -0.229709,0 -0.014417,0 -0.00865,0.00537 -0.00864,0.00939 -0.00578,0.012083 -0.00287,0.012083 0,0.0255 0.310429,0 z"
       id="path80"
       inkscape:connector-curvature="0"
       style="fill:none;fill-rule:nonzero;stroke:#000000;stroke-width:0.003" /><path
       class="fil6"
       d="m 4.69055,7.13489 0,-0.0255 C 4.68552,7.076307 4.675829,7.068654 4.650192,7.070461 l -0.229709,0 -0.014417,0 -0.00865,0.00537 -0.00865,0.00939 -0.00576,0.012083 -0.00287,0.012083 0,0.0255 0.310429,0 z"
       id="path82"
       inkscape:connector-curvature="0"
       style="fill:#4a4a4c;fill-rule:nonzero" /><path
       class="fil4 str2"
       d="m 4.69055,7.13489 0,-0.0255 C 4.68552,7.076307 4.675829,7.068654 4.650192,7.070461 l -0.229709,0 -0.014417,0 -0.00865,0.00537 -0.00865,0.00939 -0.00576,0.012083 -0.00287,0.012083 0,0.0255 0.310429,0 z"
       id="path84"
       inkscape:connector-curvature="0"
       style="fill:none;fill-rule:nonzero;stroke:#000000;stroke-width:0.003" /><g
       id="_105498792"><line
         id="_105498816"
         class="fil7 str3"
         x1="4.0553899"
         y1="7.1805902"
         x2="4.03232"
         y2="7.1805902"
         style="fill:none;fill-rule:nonzero;stroke:#000000;stroke-width:0.003;stroke-opacity:0.50196078" /><line
         id="_105498936"
         class="fil7 str3"
         x1="4.03232"
         y1="7.1711898"
         x2="4.0553899"
         y2="7.1711898"
         style="fill:none;fill-rule:nonzero;stroke:#000000;stroke-width:0.003;stroke-opacity:0.50196078" /><line
         id="_105499032"
         class="fil7 str3"
         x1="4.03232"
         y1="7.1510601"
         x2="4.0553899"
         y2="7.1510601"
         style="fill:none;fill-rule:nonzero;stroke:#000000;stroke-width:0.003;stroke-opacity:0.50196078" /><path
         id="_105498456"
         class="fil8"
         d="m 4.03233,7.13495 0,0.083335 c 0.00615,0.00759 0.014,0.012165 0.023067,0.014413 l 0,-0.097748 -0.023067,0 z"
         inkscape:connector-curvature="0"
         style="fill:#cca251;fill-opacity:0.50196078;fill-rule:nonzero" /><path
         id="_105380176"
         class="fil7 str3"
         d="m 4.03233,7.13495 0,0.083335 c 0.00615,0.00759 0.014,0.012165 0.023067,0.014413 l 0,-0.097748 -0.023067,0 z"
         inkscape:connector-curvature="0"
         style="fill:none;fill-rule:nonzero;stroke:#000000;stroke-width:0.003;stroke-opacity:0.50196078" /><polygon
         id="_105380272"
         class="fil9 str3"
         points="4.03232,7.14908 4.03232,7.13496 4.05539,7.13496 4.05539,7.14908 "
         style="fill:#c09038;fill-opacity:0.50196078;fill-rule:nonzero;stroke:#000000;stroke-width:0.003;stroke-opacity:0.50196078" /><polygon
         id="_105380392"
         class="fil10 str3"
         points="4.03232,7.1692 4.03232,7.14907 4.05539,7.14907 4.05539,7.1692 "
         style="fill:#e1c57b;fill-opacity:0.50196078;fill-rule:nonzero;stroke:#000000;stroke-width:0.003;stroke-opacity:0.50196078" /><line
         id="_105380536"
         class="fil7 str3"
         x1="4.1197801"
         y1="7.1349502"
         x2="4.1197801"
         y2="7.2342701"
         style="fill:none;fill-rule:nonzero;stroke:#000000;stroke-width:0.003;stroke-opacity:0.50196078" /><line
         id="_105380632"
         class="fil7 str3"
         x1="4.1428499"
         y1="7.1805902"
         x2="4.1197801"
         y2="7.1805902"
         style="fill:none;fill-rule:nonzero;stroke:#000000;stroke-width:0.003;stroke-opacity:0.50196078" /><line
         id="_105380728"
         class="fil7 str3"
         x1="4.1197801"
         y1="7.1711898"
         x2="4.1428499"
         y2="7.1711898"
         style="fill:none;fill-rule:nonzero;stroke:#000000;stroke-width:0.003;stroke-opacity:0.50196078" /><line
         id="_105380824"
         class="fil7 str3"
         x1="4.1197801"
         y1="7.1510601"
         x2="4.1428499"
         y2="7.1510601"
         style="fill:none;fill-rule:nonzero;stroke:#000000;stroke-width:0.003;stroke-opacity:0.50196078" /><line
         id="_105380920"
         class="fil7 str3"
         x1="4.1428499"
         y1="7.1349502"
         x2="4.1428499"
         y2="7.2342701"
         style="fill:none;fill-rule:nonzero;stroke:#000000;stroke-width:0.003;stroke-opacity:0.50196078" /><polygon
         id="_105380512"
         class="fil8 str3"
         points="4.11978,7.23428 4.11978,7.13496 4.14285,7.13496 4.14285,7.23428 "
         style="fill:#cca251;fill-opacity:0.50196078;fill-rule:nonzero;stroke:#000000;stroke-width:0.003;stroke-opacity:0.50196078" /><polygon
         id="_105409880"
         class="fil9 str3"
         points="4.11978,7.14908 4.11978,7.13496 4.14285,7.13496 4.14285,7.14908 "
         style="fill:#c09038;fill-opacity:0.50196078;fill-rule:nonzero;stroke:#000000;stroke-width:0.003;stroke-opacity:0.50196078" /><polygon
         id="_105409976"
         class="fil10 str3"
         points="4.11978,7.1692 4.11978,7.14907 4.14285,7.14907 4.14285,7.1692 "
         style="fill:#e1c57b;fill-opacity:0.50196078;fill-rule:nonzero;stroke:#000000;stroke-width:0.003;stroke-opacity:0.50196078" /><line
         id="_105410096"
         class="fil7 str3"
         x1="4.2322302"
         y1="7.1805902"
         x2="4.2062898"
         y2="7.1805902"
         style="fill:none;fill-rule:nonzero;stroke:#000000;stroke-width:0.003;stroke-opacity:0.50196078" /><line
         id="_105410192"
         class="fil7 str3"
         x1="4.2062802"
         y1="7.1711898"
         x2="4.2322302"
         y2="7.1711898"
         style="fill:none;fill-rule:nonzero;stroke:#000000;stroke-width:0.003;stroke-opacity:0.50196078" /><line
         id="_105410288"
         class="fil7 str3"
         x1="4.2062802"
         y1="7.1510601"
         x2="4.2322302"
         y2="7.1510601"
         style="fill:none;fill-rule:nonzero;stroke:#000000;stroke-width:0.003;stroke-opacity:0.50196078" /><line
         id="_105410384"
         class="fil7 str3"
         x1="4.2062802"
         y1="7.1349502"
         x2="4.2062802"
         y2="7.2342701"
         style="fill:none;fill-rule:nonzero;stroke:#000000;stroke-width:0.003;stroke-opacity:0.50196078" /><line
         id="_105410480"
         class="fil7 str3"
         x1="4.2322302"
         y1="7.1349502"
         x2="4.2322302"
         y2="7.2342701"
         style="fill:none;fill-rule:nonzero;stroke:#000000;stroke-width:0.003;stroke-opacity:0.50196078" /><polygon
         id="_105410072"
         class="fil8 str3"
         points="4.20629,7.23428 4.20629,7.13496 4.23224,7.13496 4.23224,7.23428 "
         style="fill:#cca251;fill-opacity:0.50196078;fill-rule:nonzero;stroke:#000000;stroke-width:0.003;stroke-opacity:0.50196078" /><polygon
         id="_105410648"
         class="fil9 str3"
         points="4.20629,7.14908 4.20629,7.13496 4.23224,7.13496 4.23224,7.14908 "
         style="fill:#c09038;fill-opacity:0.50196078;fill-rule:nonzero;stroke:#000000;stroke-width:0.003;stroke-opacity:0.50196078" /><polygon
         id="_105410744"
         class="fil10 str3"
         points="4.20629,7.1692 4.20629,7.14907 4.23224,7.14907 4.23224,7.1692 "
         style="fill:#e1c57b;fill-opacity:0.50196078;fill-rule:nonzero;stroke:#000000;stroke-width:0.003;stroke-opacity:0.50196078" /><polygon
         id="_105410840"
         class="fil9 str3"
         points="4.29663,7.1692 4.29663,7.17119 4.31969,7.17119 4.31969,7.1692 "
         style="fill:#c09038;fill-opacity:0.50196078;fill-rule:nonzero;stroke:#000000;stroke-width:0.003;stroke-opacity:0.50196078" /><polygon
         id="_105418800"
         class="fil9 str3"
         points="4.29663,7.17119 4.29663,7.18059 4.31969,7.18059 4.31969,7.17119 "
         style="fill:#c09038;fill-opacity:0.50196078;fill-rule:nonzero;stroke:#000000;stroke-width:0.003;stroke-opacity:0.50196078" /><path
         id="_105418920"
         class="fil9"
         d="m 4.31969,7.18059 -0.023071,0 0,0.049665 0,0.0023 C 4.307871,7.229245 4.314883,7.227465 4.31969,7.222965 l 0,-0.00747 0,-0.034902 z"
         inkscape:connector-curvature="0"
         style="fill:#c09038;fill-opacity:0.50196078;fill-rule:nonzero" /><path
         id="_105418992"
         class="fil7 str3"
         d="m 4.31969,7.18059 -0.023071,0 0,0.049665 0,0.0023 C 4.307871,7.229245 4.314883,7.227465 4.31969,7.222965 l 0,-0.00747 0,-0.034902 z"
         inkscape:connector-curvature="0"
         style="fill:none;fill-rule:nonzero;stroke:#000000;stroke-width:0.003;stroke-opacity:0.50196078" /><polygon
         id="_105418896"
         class="fil9 str3"
         points="4.29663,7.13496 4.29663,7.14908 4.31969,7.14908 4.31969,7.13496 "
         style="fill:#c09038;fill-opacity:0.50196078;fill-rule:nonzero;stroke:#000000;stroke-width:0.003;stroke-opacity:0.50196078" /><polygon
         id="_105419160"
         class="fil10 str3"
         points="4.29663,7.14819 4.29663,7.18059 4.31969,7.18059 4.31969,7.14819 "
         style="fill:#e1c57b;fill-opacity:0.50196078;fill-rule:nonzero;stroke:#000000;stroke-width:0.003;stroke-opacity:0.50196078" /></g><g
       id="_105419280"><line
         id="_105419304"
         class="fil7 str3"
         x1="4.4124298"
         y1="7.1805902"
         x2="4.38936"
         y2="7.1805902"
         style="fill:none;fill-rule:nonzero;stroke:#000000;stroke-width:0.003;stroke-opacity:0.50196078" /><line
         id="_105419400"
         class="fil7 str3"
         x1="4.38936"
         y1="7.1711898"
         x2="4.4124298"
         y2="7.1711898"
         style="fill:none;fill-rule:nonzero;stroke:#000000;stroke-width:0.003;stroke-opacity:0.50196078" /><line
         id="_105419496"
         class="fil7 str3"
         x1="4.38936"
         y1="7.1510601"
         x2="4.4124298"
         y2="7.1510601"
         style="fill:none;fill-rule:nonzero;stroke:#000000;stroke-width:0.003;stroke-opacity:0.50196078" /><path
         id="_105419256"
         class="fil8"
         d="m 4.38936,7.13495 0,0.083335 c 0.00615,0.00759 0.014,0.012165 0.023067,0.014413 l 0,-0.097748 -0.023067,0 z"
         inkscape:connector-curvature="0"
         style="fill:#cca251;fill-opacity:0.50196078;fill-rule:nonzero" /><path
         id="_105419640"
         class="fil7 str3"
         d="m 4.38936,7.13495 0,0.083335 c 0.00615,0.00759 0.014,0.012165 0.023067,0.014413 l 0,-0.097748 -0.023067,0 z"
         inkscape:connector-curvature="0"
         style="fill:none;fill-rule:nonzero;stroke:#000000;stroke-width:0.003;stroke-opacity:0.50196078" /><polygon
         id="_105419736"
         class="fil9 str3"
         points="4.38936,7.14908 4.38936,7.13496 4.41243,7.13496 4.41243,7.14908 "
         style="fill:#c09038;fill-opacity:0.50196078;fill-rule:nonzero;stroke:#000000;stroke-width:0.003;stroke-opacity:0.50196078" /><polygon
         id="_105419832"
         class="fil10 str3"
         points="4.38936,7.1692 4.38936,7.14907 4.41243,7.14907 4.41243,7.1692 "
         style="fill:#e1c57b;fill-opacity:0.50196078;fill-rule:nonzero;stroke:#000000;stroke-width:0.003;stroke-opacity:0.50196078" /><line
         id="_105419952"
         class="fil7 str3"
         x1="4.47682"
         y1="7.1349502"
         x2="4.47682"
         y2="7.2342701"
         style="fill:none;fill-rule:nonzero;stroke:#000000;stroke-width:0.003;stroke-opacity:0.50196078" /><line
         id="_105420048"
         class="fil7 str3"
         x1="4.4998899"
         y1="7.1805902"
         x2="4.47682"
         y2="7.1805902"
         style="fill:none;fill-rule:nonzero;stroke:#000000;stroke-width:0.003;stroke-opacity:0.50196078" /><line
         id="_105420144"
         class="fil7 str3"
         x1="4.47682"
         y1="7.1711898"
         x2="4.4998899"
         y2="7.1711898"
         style="fill:none;fill-rule:nonzero;stroke:#000000;stroke-width:0.003;stroke-opacity:0.50196078" /><line
         id="_105420240"
         class="fil7 str3"
         x1="4.47682"
         y1="7.1510601"
         x2="4.4998899"
         y2="7.1510601"
         style="fill:none;fill-rule:nonzero;stroke:#000000;stroke-width:0.003;stroke-opacity:0.50196078" /><line
         id="_105420336"
         class="fil7 str3"
         x1="4.4998899"
         y1="7.1349502"
         x2="4.4998899"
         y2="7.2342701"
         style="fill:none;fill-rule:nonzero;stroke:#000000;stroke-width:0.003;stroke-opacity:0.50196078" /><polygon
         id="_105419928"
         class="fil8 str3"
         points="4.47682,7.23428 4.47682,7.13496 4.49989,7.13496 4.49989,7.23428 "
         style="fill:#cca251;fill-opacity:0.50196078;fill-rule:nonzero;stroke:#000000;stroke-width:0.003;stroke-opacity:0.50196078" /><polygon
         id="_105420504"
         class="fil9 str3"
         points="4.47682,7.14908 4.47682,7.13496 4.49989,7.13496 4.49989,7.14908 "
         style="fill:#c09038;fill-opacity:0.50196078;fill-rule:nonzero;stroke:#000000;stroke-width:0.003;stroke-opacity:0.50196078" /><polygon
         id="_105420600"
         class="fil10 str3"
         points="4.47682,7.1692 4.47682,7.14907 4.49989,7.14907 4.49989,7.1692 "
         style="fill:#e1c57b;fill-opacity:0.50196078;fill-rule:nonzero;stroke:#000000;stroke-width:0.003;stroke-opacity:0.50196078" /><line
         id="_105420720"
         class="fil7 str3"
         x1="4.5892701"
         y1="7.1805902"
         x2="4.5633202"
         y2="7.1805902"
         style="fill:none;fill-rule:nonzero;stroke:#000000;stroke-width:0.003;stroke-opacity:0.50196078" /><line
         id="_105533480"
         class="fil7 str3"
         x1="4.5633202"
         y1="7.1711898"
         x2="4.5892601"
         y2="7.1711898"
         style="fill:none;fill-rule:nonzero;stroke:#000000;stroke-width:0.003;stroke-opacity:0.50196078" /><line
         id="_105533576"
         class="fil7 str3"
         x1="4.5633202"
         y1="7.1510601"
         x2="4.5892601"
         y2="7.1510601"
         style="fill:none;fill-rule:nonzero;stroke:#000000;stroke-width:0.003;stroke-opacity:0.50196078" /><line
         id="_105533672"
         class="fil7 str3"
         x1="4.5633202"
         y1="7.1349502"
         x2="4.5633202"
         y2="7.2342701"
         style="fill:none;fill-rule:nonzero;stroke:#000000;stroke-width:0.003;stroke-opacity:0.50196078" /><line
         id="_105533768"
         class="fil7 str3"
         x1="4.5892701"
         y1="7.1349502"
         x2="4.5892701"
         y2="7.2342701"
         style="fill:none;fill-rule:nonzero;stroke:#000000;stroke-width:0.003;stroke-opacity:0.50196078" /><polygon
         id="_105420696"
         class="fil8 str3"
         points="4.56332,7.23428 4.56332,7.13496 4.58926,7.13496 4.58926,7.23428 "
         style="fill:#cca251;fill-opacity:0.50196078;fill-rule:nonzero;stroke:#000000;stroke-width:0.003;stroke-opacity:0.50196078" /><polygon
         id="_105533936"
         class="fil9 str3"
         points="4.56332,7.14908 4.56332,7.13496 4.58926,7.13496 4.58926,7.14908 "
         style="fill:#c09038;fill-opacity:0.50196078;fill-rule:nonzero;stroke:#000000;stroke-width:0.003;stroke-opacity:0.50196078" /><polygon
         id="_105534032"
         class="fil10 str3"
         points="4.56332,7.1692 4.56332,7.14907 4.58926,7.14907 4.58926,7.1692 "
         style="fill:#e1c57b;fill-opacity:0.50196078;fill-rule:nonzero;stroke:#000000;stroke-width:0.003;stroke-opacity:0.50196078" /><polygon
         id="_105534128"
         class="fil9 str3"
         points="4.65365,7.1692 4.65365,7.17119 4.67672,7.17119 4.67672,7.1692 "
         style="fill:#c09038;fill-opacity:0.50196078;fill-rule:nonzero;stroke:#000000;stroke-width:0.003;stroke-opacity:0.50196078" /><polygon
         id="_105534224"
         class="fil9 str3"
         points="4.65365,7.17119 4.65365,7.18059 4.67672,7.18059 4.67672,7.17119 "
         style="fill:#c09038;fill-opacity:0.50196078;fill-rule:nonzero;stroke:#000000;stroke-width:0.003;stroke-opacity:0.50196078" /><path
         id="_105534344"
         class="fil9"
         d="m 4.67673,7.18059 -0.023067,0 0,0.049665 0,0.0023 C 4.664911,7.229245 4.671927,7.227465 4.67673,7.222965 l 0,-0.00747 0,-0.034902 z"
         inkscape:connector-curvature="0"
         style="fill:#c09038;fill-opacity:0.50196078;fill-rule:nonzero" /><path
         id="_105534416"
         class="fil7 str3"
         d="m 4.67673,7.18059 -0.023067,0 0,0.049665 0,0.0023 C 4.664911,7.229245 4.671927,7.227465 4.67673,7.222965 l 0,-0.00747 0,-0.034902 z"
         inkscape:connector-curvature="0"
         style="fill:none;fill-rule:nonzero;stroke:#000000;stroke-width:0.003;stroke-opacity:0.50196078" /><polygon
         id="_105534320"
         class="fil9 str3"
         points="4.65365,7.13496 4.65365,7.14908 4.67672,7.14908 4.67672,7.13496 "
         style="fill:#c09038;fill-opacity:0.50196078;fill-rule:nonzero;stroke:#000000;stroke-width:0.003;stroke-opacity:0.50196078" /><polygon
         id="_105534584"
         class="fil10 str3"
         points="4.65365,7.14819 4.65365,7.18059 4.67672,7.18059 4.67672,7.14819 "
         style="fill:#e1c57b;fill-opacity:0.50196078;fill-rule:nonzero;stroke:#000000;stroke-width:0.003;stroke-opacity:0.50196078" /></g><line
       class="fil4 str2"
       x1="4.1044102"
       y1="6.5550499"
       x2="4.1601501"
       y2="6.5550499"
       id="line146"
       style="fill:none;fill-rule:nonzero;stroke:#000000;stroke-width:0.003" /><line
       class="fil4 str2"
       x1="4.1031199"
       y1="6.5792098"
       x2="4.1612601"
       y2="6.5792098"
       id="line148"
       style="fill:none;fill-rule:nonzero;stroke:#000000;stroke-width:0.003" /><line
       class="fil4 str2"
       x1="4.1031199"
       y1="6.5845799"
       x2="4.1612601"
       y2="6.5845799"
       id="line150"
       style="fill:none;fill-rule:nonzero;stroke:#000000;stroke-width:0.003" /><line
       class="fil4 str2"
       x1="4.0994701"
       y1="6.6476598"
       x2="4.1643901"
       y2="6.6476598"
       id="line152"
       style="fill:none;fill-rule:nonzero;stroke:#000000;stroke-width:0.003" /><line
       class="fil4 str2"
       x1="4.0994701"
       y1="6.65974"
       x2="4.1643901"
       y2="6.65974"
       id="line154"
       style="fill:none;fill-rule:nonzero;stroke:#000000;stroke-width:0.003" /><line
       class="fil4 str2"
       x1="4.5594902"
       y1="6.5550499"
       x2="4.6152401"
       y2="6.5550499"
       id="line156"
       style="fill:none;fill-rule:nonzero;stroke:#000000;stroke-width:0.003" /><line
       class="fil4 str2"
       x1="4.5581999"
       y1="6.5792098"
       x2="4.6152301"
       y2="6.5792098"
       id="line158"
       style="fill:none;fill-rule:nonzero;stroke:#000000;stroke-width:0.003" /><line
       class="fil4 str2"
       x1="4.5594902"
       y1="6.5845799"
       x2="4.61658"
       y2="6.5845799"
       id="line160"
       style="fill:none;fill-rule:nonzero;stroke:#000000;stroke-width:0.003" /><line
       class="fil4 str2"
       x1="4.5545502"
       y1="6.6476598"
       x2="4.6194601"
       y2="6.6476598"
       id="line162"
       style="fill:none;fill-rule:nonzero;stroke:#000000;stroke-width:0.003" /><line
       class="fil4 str2"
       x1="4.5539098"
       y1="6.65974"
       x2="4.6200199"
       y2="6.65974"
       id="line164"
       style="fill:none;fill-rule:nonzero;stroke:#000000;stroke-width:0.003" /><line
       class="fil4 str1"
       x1="4.8934698"
       y1="6.8404799"
       x2="5.01265"
       y2="6.8404799"
       id="line166"
       style="fill:none;fill-rule:nonzero;stroke:#231f20;stroke-width:0.003" /><line
       class="fil4 str0"
       x1="4.7137399"
       y1="7.47715"
       x2="4.8646302"
       y2="7.47715"
       id="line168"
       style="fill:none;fill-rule:nonzero;stroke:#808184;stroke-width:0.003" /><line
       class="fil4 str0"
       x1="4.8281698"
       y1="7.47715"
       x2="4.8281698"
       y2="7.5268202"
       id="line170"
       style="fill:none;fill-rule:nonzero;stroke:#808184;stroke-width:0.003" /></g></svg>