<?xml version='1.0' encoding='UTF-8'?>
<!DOCTYPE svg>
<!-- Creator: CorelDRAW X6 -->
<svg xmlns="http://www.w3.org/2000/svg" version="1.1" shape-rendering="geometricPrecision" fill-rule="evenodd" xml:space="preserve" image-rendering="optimizeQuality" viewBox="0 0 113981 113981" xmlns:xml="http://www.w3.org/XML/1998/namespace" clip-rule="evenodd" width="0.492126in" height="0.492126in"  text-rendering="geometricPrecision">
    <desc >
        <referenceFile >Molex_53398-0571-smd_icon.svg</referenceFile>
    </desc>
    <g gorn="0.1" id="_53398-0571_smd-v" >
        <metadata id="CorelCorpID_0Corel-Layer" />
        <g gorn="0.1.1" id="icon" >
            <rect fill="#373435" width="113981" height="113981" />
            <g >
                <g >
                    <rect fill="#727376" width="11398" height="1824" x="82067" y="69453" />
                    <rect fill="#727376" width="6839" height="1824" x="59270" y="69453" />
                    <rect fill="#727376" width="6839" height="1824" x="70668" y="69453" />
                    <rect fill="#727376" width="6839" height="1824" x="47872" y="69453" />
                    <rect fill="#727376" width="6839" height="1824" x="36474" y="69453" />
                    <rect fill="#727376" width="11398" height="1824" x="20517" y="69453" />
                </g>
                <g >
                    <rect fill="#727376" width="72948" height="26425" x="20517" y="43156" />
                    <rect fill="#F0F0F0" width="72948" height="2275" x="20517" y="60076" />
                    <rect fill="#BDBFC1" width="72948" height="20804" x="20517" y="46589" />
                </g>
                <g >
                    <rect fill="#727376" width="31915" height="4104" x="41032" y="39372" />
                    <rect fill="#F0F0F0" width="31913" height="3271" x="41034" y="36101" />
                </g>
                <g >
                    <rect fill="#A8CF45" width="2918" height="4453" x="32735" y="45953" />
                    <rect fill="#706A22" width="2918" height="5463" x="32735" y="50407" />
                    <rect fill="#FEFEFE" width="912" height="2733" x="33738" y="45953" />
                    <rect fill="#BFD84F" width="2918" height="5652" x="32735" y="69581" />
                    <rect fill="#706A22" width="2918" height="1356" x="32735" y="73877" />
                </g>
                <g >
                    <rect fill="#A8CF45" width="2918" height="4453" x="44134" y="45953" />
                    <rect fill="#706A22" width="2918" height="5463" x="44134" y="50407" />
                    <rect fill="#FEFEFE" width="912" height="2733" x="45137" y="45953" />
                    <rect fill="#BFD84F" width="2918" height="5652" x="44134" y="69581" />
                    <rect fill="#706A22" width="2918" height="1356" x="44134" y="73877" />
                </g>
                <g >
                    <rect fill="#A8CF45" width="2918" height="4453" x="55532" y="45953" />
                    <rect fill="#706A22" width="2918" height="5463" x="55532" y="50407" />
                    <rect fill="#FEFEFE" width="912" height="2733" x="56535" y="45953" />
                    <rect fill="#BFD84F" width="2918" height="5652" x="55532" y="69581" />
                    <rect fill="#706A22" width="2918" height="1356" x="55532" y="73877" />
                </g>
                <g >
                    <rect fill="#A8CF45" width="2918" height="4453" x="66930" y="45953" />
                    <rect fill="#706A22" width="2918" height="5463" x="66930" y="50407" />
                    <rect fill="#FEFEFE" width="912" height="2733" x="67933" y="45953" />
                    <rect fill="#BFD84F" width="2918" height="5652" x="66930" y="69581" />
                    <rect fill="#706A22" width="2918" height="1356" x="66930" y="73877" />
                </g>
                <g >
                    <rect fill="#A8CF45" width="2918" height="4453" x="78328" y="45953" />
                    <rect fill="#706A22" width="2918" height="5463" x="78328" y="50407" />
                    <rect fill="#FEFEFE" width="912" height="2733" x="79331" y="45953" />
                    <rect fill="#BFD84F" width="2918" height="5652" x="78328" y="69581" />
                    <rect fill="#706A22" width="2918" height="1356" x="78328" y="73877" />
                </g>
                <g >
                    <polygon points="106165,48024 106165,48100 108966,50901 108966,63680 106165,66481 106165,66481 " fill="#BFD84F" />
                    <rect fill="#E6E7E8" width="12887" height="23708" x="93465" y="42196" />
                    <rect fill="#BDBFC1" width="3191" height="20155" x="93465" y="42196" />
                    <rect fill="#848688" width="12887" height="5042" x="93465" y="62351" />
                    <rect fill="#727376" width="12767" height="4104" x="75227" y="39372" />
                    <rect fill="#F0F0F0" width="18238" height="3271" x="75227" y="36101" />
                    <rect fill="#F0F0F0" width="5471" height="27595" x="87994" y="36102" />
                    <rect fill="#606062" width="2736" height="5723" x="87993" y="46322" />
                    <rect fill="#606062" width="5471" height="3542" x="87994" y="58267" />
                    <rect fill="#606062" width="9119" height="4850" x="84346" y="62033" />
                    <rect fill="#F0F0F0" width="9119" height="2107" x="84346" y="60076" />
                    <rect fill="#BDBFC1" width="9119" height="1131" x="84346" y="66262" />
                    <rect fill="#D2D3D5" width="8480" height="2111" x="69848" y="43156" />
                </g>
                <g >
                    <polygon points="7816,48100 7816,48100 7816,66406 7816,66481 5015,63680 5015,50901 " fill="#BFD84F" />
                    <rect fill="#E6E7E8" width="12887" height="23708" x="7629" y="42196" />
                    <rect fill="#BDBFC1" width="3191" height="20155" x="17325" y="42196" />
                    <rect fill="#848688" width="12887" height="5042" x="7629" y="62351" />
                    <rect fill="#727376" width="12765" height="4104" x="25988" y="39372" />
                    <rect fill="#F0F0F0" width="18236" height="3271" x="20517" y="36101" />
                    <rect fill="#F0F0F0" width="5471" height="27595" x="20517" y="36102" />
                    <rect fill="#606062" width="2736" height="5723" x="23252" y="46322" />
                    <rect fill="#606062" width="5471" height="3542" x="20517" y="58267" />
                    <rect fill="#606062" width="9119" height="4850" x="20517" y="62033" />
                    <rect fill="#F0F0F0" width="9119" height="2107" x="20517" y="60076" />
                    <rect fill="#BDBFC1" width="9119" height="1131" x="20517" y="66262" />
                    <rect fill="#D2D3D5" width="8480" height="2111" x="35653" y="43156" />
                </g>
            </g>
        </g>
    </g>
</svg>
