<?xml version='1.0' encoding='UTF-8'?>
<!DOCTYPE svg>
<!-- Creator: CorelDRAW X6 -->
<svg xmlns="http://www.w3.org/2000/svg" height="0.629921in" version="1.1" width="0.629921in" shape-rendering="geometricPrecision" fill-rule="evenodd" xml:space="preserve" text-rendering="geometricPrecision" viewBox="0 0 7737 7737" image-rendering="optimizeQuality"  xmlns:xml="http://www.w3.org/XML/1998/namespace" clip-rule="evenodd">
    <desc >
        <referenceFile >Molex_53398-0871-smd_icon.svg</referenceFile>
    </desc>
    <g gorn="0.1" id="_53398-0871_smd-v" >
        <metadata id="CorelCorpID_0Corel-Layer" />
        <g gorn="0.1.1" id="icon" >
            <rect height="7737" width="7737"  fill="#373435"/>
            <g >
                <g >
                    <rect height="97" width="604" x="6077"  y="4588" fill="#727376"/>
                    <rect height="97" width="363" x="3055"  y="4588" fill="#727376"/>
                    <rect height="97" width="363" x="3659"  y="4588" fill="#727376"/>
                    <rect height="97" width="363" x="4264"  y="4588" fill="#727376"/>
                    <rect height="97" width="363" x="4868"  y="4588" fill="#727376"/>
                    <rect height="97" width="363" x="5473"  y="4588" fill="#727376"/>
                    <rect height="97" width="363" x="2450"  y="4588" fill="#727376"/>
                    <rect height="97" width="363" x="1846"  y="4588" fill="#727376"/>
                    <rect height="97" width="604" x="1000"  y="4588" fill="#727376"/>
                </g>
                <g >
                    <rect height="1401" width="5682" x="1000"  y="3193" fill="#727376"/>
                    <rect height="121" width="5682" x="1000"  y="4090" fill="#F0F0F0"/>
                    <rect height="1103" width="5682" x="1000"  y="3375" fill="#BDBFC1"/>
                </g>
                <g >
                    <rect height="218" width="3506" x="2088"  y="2993" fill="#727376"/>
                    <rect height="173" width="3506" x="2088"  y="2819" fill="#F0F0F0"/>
                </g>
                <g >
                    <rect height="236" width="155" x="1648"  y="3342" fill="#A8CF45"/>
                    <rect height="290" width="155" x="1648"  y="3578" fill="#706A22"/>
                    <rect height="145" width="48" x="1701"  y="3342" fill="#FEFEFE"/>
                    <rect height="300" width="155" x="1648"  y="4594" fill="#BFD84F"/>
                    <rect height="72" width="155" x="1648"  y="4822" fill="#706A22"/>
                </g>
                <g >
                    <rect height="236" width="155" x="2252"  y="3342" fill="#A8CF45"/>
                    <rect height="290" width="155" x="2252"  y="3578" fill="#706A22"/>
                    <rect height="145" width="48" x="2305"  y="3342" fill="#FEFEFE"/>
                    <rect height="300" width="155" x="2252"  y="4594" fill="#BFD84F"/>
                    <rect height="72" width="155" x="2252"  y="4822" fill="#706A22"/>
                </g>
                <g >
                    <rect height="236" width="155" x="2857"  y="3342" fill="#A8CF45"/>
                    <rect height="290" width="155" x="2857"  y="3578" fill="#706A22"/>
                    <rect height="145" width="48" x="2910"  y="3342" fill="#FEFEFE"/>
                    <rect height="300" width="155" x="2857"  y="4594" fill="#BFD84F"/>
                    <rect height="72" width="155" x="2857"  y="4822" fill="#706A22"/>
                </g>
                <g >
                    <rect height="236" width="155" x="3461"  y="3342" fill="#A8CF45"/>
                    <rect height="290" width="155" x="3461"  y="3578" fill="#706A22"/>
                    <rect height="145" width="48" x="3514"  y="3342" fill="#FEFEFE"/>
                    <rect height="300" width="155" x="3461"  y="4594" fill="#BFD84F"/>
                    <rect height="72" width="155" x="3461"  y="4822" fill="#706A22"/>
                </g>
                <g >
                    <rect height="236" width="155" x="4066"  y="3342" fill="#A8CF45"/>
                    <rect height="290" width="155" x="4066"  y="3578" fill="#706A22"/>
                    <rect height="145" width="48" x="4119"  y="3342" fill="#FEFEFE"/>
                    <rect height="300" width="155" x="4066"  y="4594" fill="#BFD84F"/>
                    <rect height="72" width="155" x="4066"  y="4822" fill="#706A22"/>
                </g>
                <g >
                    <rect height="236" width="155" x="4670"  y="3342" fill="#A8CF45"/>
                    <rect height="290" width="155" x="4670"  y="3578" fill="#706A22"/>
                    <rect height="145" width="48" x="4723"  y="3342" fill="#FEFEFE"/>
                    <rect height="300" width="155" x="4670"  y="4594" fill="#BFD84F"/>
                    <rect height="72" width="155" x="4670"  y="4822" fill="#706A22"/>
                </g>
                <g >
                    <rect height="236" width="155" x="5274"  y="3342" fill="#A8CF45"/>
                    <rect height="290" width="155" x="5274"  y="3578" fill="#706A22"/>
                    <rect height="145" width="48" x="5328"  y="3342" fill="#FEFEFE"/>
                    <rect height="300" width="155" x="5274"  y="4594" fill="#BFD84F"/>
                    <rect height="72" width="155" x="5274"  y="4822" fill="#706A22"/>
                </g>
                <g >
                    <rect height="236" width="155" x="5879"  y="3342" fill="#A8CF45"/>
                    <rect height="290" width="155" x="5879"  y="3578" fill="#706A22"/>
                    <rect height="145" width="48" x="5932"  y="3342" fill="#FEFEFE"/>
                    <rect height="300" width="155" x="5879"  y="4594" fill="#BFD84F"/>
                    <rect height="72" width="155" x="5879"  y="4822" fill="#706A22"/>
                </g>
                <g >
                    <polygon points="7355,3451 7355,3455 7504,3604 7504,4282 7355,4430 7355,4430 "  fill="#BFD84F"/>
                    <rect height="1257" width="683" x="6681"  y="3142" fill="#E6E7E8"/>
                    <rect height="1069" width="169" x="6681"  y="3142" fill="#BDBFC1"/>
                    <rect height="267" width="683" x="6681"  y="4211" fill="#848688"/>
                    <rect height="218" width="677" x="5714"  y="2993" fill="#727376"/>
                    <rect height="173" width="967" x="5714"  y="2819" fill="#F0F0F0"/>
                    <rect height="1463" width="290" x="6391"  y="2819" fill="#F0F0F0"/>
                    <rect height="304" width="145" x="6391"  y="3361" fill="#606062"/>
                    <rect height="188" width="290" x="6391"  y="3995" fill="#606062"/>
                    <rect height="257" width="484" x="6198"  y="4194" fill="#606062"/>
                    <rect height="112" width="484" x="6198"  y="4090" fill="#F0F0F0"/>
                    <rect height="60" width="484" x="6198"  y="4419" fill="#BDBFC1"/>
                    <rect height="112" width="450" x="5429"  y="3193" fill="#D2D3D5"/>
                </g>
                <g >
                    <polygon points="326,3455 326,3455 326,4426 326,4430 178,4282 178,3604 "  fill="#BFD84F"/>
                    <rect height="1257" width="683" x="316"  y="3142" fill="#E6E7E8"/>
                    <rect height="1069" width="169" x="831"  y="3142" fill="#BDBFC1"/>
                    <rect height="267" width="683" x="316"  y="4211" fill="#848688"/>
                    <rect height="218" width="677" x="1290"  y="2993" fill="#727376"/>
                    <rect height="173" width="967" x="1000"  y="2819" fill="#F0F0F0"/>
                    <rect height="1463" width="290" x="1000"  y="2819" fill="#F0F0F0"/>
                    <rect height="304" width="145" x="1145"  y="3361" fill="#606062"/>
                    <rect height="188" width="290" x="1000"  y="3995" fill="#606062"/>
                    <rect height="257" width="484" x="1000"  y="4194" fill="#606062"/>
                    <rect height="112" width="484" x="1000"  y="4090" fill="#F0F0F0"/>
                    <rect height="60" width="484" x="1000"  y="4419" fill="#BDBFC1"/>
                    <rect height="112" width="450" x="1803"  y="3193" fill="#D2D3D5"/>
                </g>
            </g>
        </g>
    </g>
</svg>
