<?xml version='1.0' encoding='UTF-8'?>
<!DOCTYPE svg>
<!-- Creator: CorelDRAW X6 -->
<svg xmlns="http://www.w3.org/2000/svg" shape-rendering="geometricPrecision" viewBox="0 0 14381 14381"  xmlns:xml="http://www.w3.org/XML/1998/namespace" text-rendering="geometricPrecision" image-rendering="optimizeQuality" clip-rule="evenodd" height="0.551181in" version="1.1" width="0.551181in" xml:space="preserve" fill-rule="evenodd">
    <desc >
        <referenceFile >Molex_53261-0619-smd_icon.svg</referenceFile>
    </desc>
    <g  gorn="0.1" id="_53261-0619_smd-h">
        <metadata  id="CorelCorpID_0Corel-Layer"/>
        <g  gorn="0.1.1" id="icon">
            <rect  height="14381" fill="#373435" width="14381"/>
            <g >
                <g >
                    <rect  height="1427" fill="#A9ABAE" x="9912" y="8191" width="1438"/>
                    <rect  height="462" fill="#A9ABAE" x="10262" y="7747" width="1089"/>
                    <rect  height="103" fill="#606062" x="9912" y="9515" width="1438"/>
                </g>
                <g >
                    <rect  height="1427" fill="#A9ABAE" x="3082" y="8191" width="1438"/>
                    <rect  height="462" fill="#A9ABAE" x="3082" y="7747" width="1089"/>
                    <rect  height="103" fill="#606062" x="3082" y="9515" width="1438"/>
                </g>
                <g >
                    <rect  height="462" fill="#A9ABAE" x="5126" y="7747" width="4181"/>
                    <rect  height="1427" fill="#A9ABAE" x="4776" y="8191" width="4879"/>
                    <rect  height="103" fill="#606062" x="4776" y="9515" width="4879"/>
                </g>
                <g >
                    <polygon  points="7694,8574 7805,9060 7911,9060 8023,8574 8023,8574 7694,8574 " fill="#706A22"/>
                    <rect  height="3786" fill="#BFD84F" x="7694" y="4788" width="329"/>
                </g>
                <g >
                    <polygon  points="8978,8574 9089,9060 9195,9060 9306,8574 9306,8574 8978,8574 " fill="#706A22"/>
                    <rect  height="3786" fill="#BFD84F" x="8978" y="4788" width="329"/>
                </g>
                <g >
                    <polygon  points="10262,8574 10373,9060 10479,9060 10590,8574 10590,8574 10262,8574 " fill="#706A22"/>
                    <rect  height="3786" fill="#BFD84F" x="10262" y="4788" width="329"/>
                </g>
                <g >
                    <polygon  points="6410,8574 6521,9060 6627,9060 6739,8574 6739,8574 6410,8574 " fill="#706A22"/>
                    <rect  height="3786" fill="#BFD84F" x="6410" y="4788" width="329"/>
                </g>
                <g >
                    <polygon  points="5126,8574 5237,9060 5343,9060 5455,8574 5455,8574 5126,8574 " fill="#706A22"/>
                    <rect  height="3786" fill="#BFD84F" x="5126" y="4788" width="329"/>
                </g>
                <g >
                    <polygon  points="3842,8574 3953,9060 4059,9060 4171,8574 4171,8574 3842,8574 " fill="#706A22"/>
                    <rect  height="3786" fill="#BFD84F" x="3842" y="4788" width="329"/>
                </g>
                <g >
                    <rect  height="2249" fill="#F0F0F0" x="2465" y="5601" width="9502"/>
                    <rect  height="163" fill="#A9ABAE" x="2465" y="5438" width="9502"/>
                    <rect  height="103" fill="#606062" x="2465" y="7747" width="9502"/>
                </g>
                <g >
                    <rect  height="329" fill="#F0F0F0" x="2953" y="5304" width="822"/>
                    <rect  height="329" fill="#F0F0F0" x="4237" y="5304" width="822"/>
                    <rect  height="329" fill="#F0F0F0" x="5521" y="5304" width="822"/>
                    <rect  height="329" fill="#F0F0F0" x="6805" y="5304" width="822"/>
                    <rect  height="329" fill="#F0F0F0" x="8089" y="5304" width="822"/>
                    <rect  height="329" fill="#F0F0F0" x="9373" y="5304" width="822"/>
                    <rect  height="329" fill="#F0F0F0" x="10657" y="5304" width="822"/>
                </g>
                <g >
                    <polygon  points="13379,6536 13433,6536 13713,6817 13713,8311 13433,8591 13379,8591 " fill="#BFD84F"/>
                    <rect  height="2876" fill="#E6E7E8" x="11967" y="6126" width="1412"/>
                    <rect  height="2568" fill="#BDBFC1" x="11967" y="6126" width="360"/>
                    <rect  height="308" fill="#606062" x="11967" y="8694" width="1412"/>
                    <rect  height="1130" fill="#F0F0F0" x="11351" y="8488" width="616"/>
                    <rect  height="411" fill="#606062" x="11351" y="9207" width="616"/>
                    <rect  height="750" fill="#F0F0F0" x="10940" y="7738" width="1027"/>
                    <rect  height="103" fill="#606062" x="10940" y="8386" width="1027"/>
                </g>
                <g >
                    <polygon  points="999,6536 1053,6536 1053,8591 999,8591 719,8311 719,6817 " fill="#BFD84F"/>
                    <rect  height="2876" fill="#E6E7E8" x="1053" y="6126" width="1412"/>
                    <rect  height="2568" fill="#BDBFC1" x="2106" y="6126" width="360"/>
                    <rect  height="308" fill="#606062" x="1053" y="8694" width="1412"/>
                    <rect  height="1130" fill="#F0F0F0" x="2465" y="8488" width="616"/>
                    <rect  height="411" fill="#606062" x="2465" y="9207" width="616"/>
                    <rect  height="750" fill="#F0F0F0" x="2465" y="7738" width="1027"/>
                    <rect  height="103" fill="#606062" x="2465" y="8386" width="1027"/>
                </g>
            </g>
        </g>
    </g>
</svg>
