<?xml version='1.0' encoding='UTF-8'?>
<!DOCTYPE svg>
<!-- Creator: CorelDRAW X6 -->
<svg xmlns="http://www.w3.org/2000/svg" shape-rendering="geometricPrecision" viewBox="0 0 6902 6902"  xmlns:xml="http://www.w3.org/XML/1998/namespace" text-rendering="geometricPrecision" image-rendering="optimizeQuality" clip-rule="evenodd" height="0.393701in" version="1.1" width="0.393701in" xml:space="preserve" fill-rule="evenodd">
    <desc >
        <referenceFile >Molex_53261-0319-smd_icon.svg</referenceFile>
    </desc>
    <g  gorn="0.1" id="_53261-0319_smd-h">
        <metadata  id="CorelCorpID_0Corel-Layer"/>
        <g  gorn="0.1.1" id="icon">
            <rect  height="6902" fill="#373435" width="6902"/>
            <g >
                <g >
                    <rect  height="311" fill="#A9ABAE" x="3879" y="3822" width="1071"/>
                    <rect  height="959" fill="#A9ABAE" x="3552" y="4120" width="1398"/>
                    <rect  height="69" fill="#606062" x="3552" y="5010" width="1398"/>
                </g>
                <g >
                    <rect  height="311" fill="#A9ABAE" x="1982" y="3822" width="1071"/>
                    <rect  height="959" fill="#A9ABAE" x="1982" y="4120" width="1397"/>
                    <rect  height="69" fill="#606062" x="1983" y="5010" width="1397"/>
                </g>
                <g >
                    <polygon  points="4219,4377 4293,4704 4365,4704 4440,4377 4440,4377 4219,4377 " fill="#706A22"/>
                    <rect  height="2544" fill="#BFD84F" x="4219" y="1833" width="221"/>
                </g>
                <g >
                    <polygon  points="3356,4377 3430,4704 3502,4704 3577,4377 3577,4377 3356,4377 " fill="#706A22"/>
                    <rect  height="2544" fill="#BFD84F" x="3356" y="1833" width="221"/>
                </g>
                <g >
                    <polygon  points="2493,4377 2568,4704 2639,4704 2714,4377 2714,4377 2493,4377 " fill="#706A22"/>
                    <rect  height="2544" fill="#BFD84F" x="2493" y="1833" width="221"/>
                </g>
                <g >
                    <rect  height="1512" fill="#F0F0F0" x="1568" y="2379" width="3796"/>
                    <rect  height="109" fill="#A9ABAE" x="1568" y="2270" width="3796"/>
                    <rect  height="69" fill="#606062" x="1568" y="3822" width="3796"/>
                </g>
                <g >
                    <rect  height="221" fill="#F0F0F0" x="3622" y="2180" width="552"/>
                    <rect  height="221" fill="#F0F0F0" x="4484" y="2180" width="552"/>
                    <rect  height="221" fill="#F0F0F0" x="2759" y="2180" width="552"/>
                    <rect  height="221" fill="#F0F0F0" x="1896" y="2180" width="552"/>
                </g>
                <g >
                    <polygon  points="6314,3008 6350,3008 6538,3196 6538,4200 6350,4388 6314,4388 " fill="#BFD84F"/>
                    <rect  height="1933" fill="#E6E7E8" x="5365" y="2732" width="949"/>
                    <rect  height="1726" fill="#BDBFC1" x="5365" y="2732" width="242"/>
                    <rect  height="207" fill="#606062" x="5365" y="4458" width="949"/>
                    <rect  height="759" fill="#F0F0F0" x="4950" y="4320" width="414"/>
                    <rect  height="276" fill="#606062" x="4950" y="4803" width="414"/>
                    <rect  height="504" fill="#F0F0F0" x="4674" y="3816" width="690"/>
                    <rect  height="69" fill="#606062" x="4674" y="4250" width="690"/>
                </g>
                <g >
                    <polygon  points="583,3008 619,3008 619,4388 583,4388 395,4200 395,3196 " fill="#BFD84F"/>
                    <rect  height="1933" fill="#E6E7E8" x="619" y="2732" width="949"/>
                    <rect  height="1726" fill="#BDBFC1" x="1327" y="2732" width="242"/>
                    <rect  height="207" fill="#606062" x="619" y="4458" width="949"/>
                    <rect  height="759" fill="#F0F0F0" x="1568" y="4320" width="414"/>
                    <rect  height="276" fill="#606062" x="1568" y="4803" width="414"/>
                    <rect  height="504" fill="#F0F0F0" x="1568" y="3816" width="690"/>
                    <rect  height="69" fill="#606062" x="1568" y="4250" width="690"/>
                </g>
            </g>
        </g>
    </g>
</svg>
