<?xml version='1.0' encoding='UTF-8'?>
<!DOCTYPE svg>
<!-- Creator: CorelDRAW X6 -->
<svg xmlns="http://www.w3.org/2000/svg" shape-rendering="geometricPrecision" viewBox="0 0 9717 9717"  xmlns:xml="http://www.w3.org/XML/1998/namespace" text-rendering="geometricPrecision" image-rendering="optimizeQuality" clip-rule="evenodd" height="0.600394in" version="1.1" width="0.600394in" xml:space="preserve" fill-rule="evenodd">
    <desc >
        <referenceFile >Molex_53261-0719-smd_icon.svg</referenceFile>
    </desc>
    <g  gorn="0.1" id="_53261-0719_smd-h">
        <metadata  id="CorelCorpID_0Corel-Layer"/>
        <g  gorn="0.1.1" id="icon">
            <rect  height="9717" fill="#373435" width="9717"/>
            <g >
                <g >
                    <rect  height="885" fill="#A9ABAE" x="6937" y="5474" width="892"/>
                    <rect  height="287" fill="#A9ABAE" x="7154" y="5199" width="675"/>
                    <rect  height="64" fill="#606062" x="6937" y="6296" width="892"/>
                </g>
                <g >
                    <rect  height="885" fill="#A9ABAE" x="1903" y="5474" width="892"/>
                    <rect  height="287" fill="#A9ABAE" x="1903" y="5199" width="675"/>
                    <rect  height="64" fill="#606062" x="1903" y="6296" width="892"/>
                </g>
                <g >
                    <rect  height="287" fill="#A9ABAE" x="3171" y="5199" width="3390"/>
                    <rect  height="885" fill="#A9ABAE" x="2955" y="5474" width="3823"/>
                    <rect  height="64" fill="#606062" x="2955" y="6296" width="3823"/>
                </g>
                <g >
                    <polygon  points="4764,5712 4833,6014 4899,6014 4968,5712 4968,5712 4764,5712 " fill="#706A22"/>
                    <rect  height="2349" fill="#BFD84F" x="4764" y="3363" width="204"/>
                </g>
                <g >
                    <polygon  points="5561,5712 5629,6014 5695,6014 5765,5712 5765,5712 5561,5712 " fill="#706A22"/>
                    <rect  height="2349" fill="#BFD84F" x="5561" y="3363" width="204"/>
                </g>
                <g >
                    <polygon  points="6357,5712 6426,6014 6492,6014 6561,5712 6561,5712 6357,5712 " fill="#706A22"/>
                    <rect  height="2349" fill="#BFD84F" x="6357" y="3363" width="204"/>
                </g>
                <g >
                    <polygon  points="7154,5712 7222,6014 7288,6014 7358,5712 7358,5712 7154,5712 " fill="#706A22"/>
                    <rect  height="2349" fill="#BFD84F" x="7154" y="3363" width="204"/>
                </g>
                <g >
                    <polygon  points="3968,5712 4037,6014 4102,6014 4172,5712 4172,5712 3968,5712 " fill="#706A22"/>
                    <rect  height="2349" fill="#BFD84F" x="3968" y="3363" width="204"/>
                </g>
                <g >
                    <polygon  points="3171,5712 3240,6014 3306,6014 3375,5712 3375,5712 3171,5712 " fill="#706A22"/>
                    <rect  height="2349" fill="#BFD84F" x="3171" y="3363" width="204"/>
                </g>
                <g >
                    <polygon  points="2375,5712 2444,6014 2509,6014 2579,5712 2579,5712 2375,5712 " fill="#706A22"/>
                    <rect  height="2349" fill="#BFD84F" x="2375" y="3363" width="204"/>
                </g>
                <g >
                    <rect  height="1395" fill="#F0F0F0" x="1521" y="3867" width="6691"/>
                    <rect  height="101" fill="#A9ABAE" x="1521" y="3766" width="6691"/>
                    <rect  height="64" fill="#606062" x="1521" y="5199" width="6691"/>
                </g>
                <g >
                    <rect  height="204" fill="#F0F0F0" x="1824" y="3683" width="510"/>
                    <rect  height="204" fill="#F0F0F0" x="2620" y="3683" width="510"/>
                    <rect  height="204" fill="#F0F0F0" x="3417" y="3683" width="510"/>
                    <rect  height="204" fill="#F0F0F0" x="4213" y="3683" width="510"/>
                    <rect  height="204" fill="#F0F0F0" x="5010" y="3683" width="510"/>
                    <rect  height="204" fill="#F0F0F0" x="5806" y="3683" width="510"/>
                    <rect  height="204" fill="#F0F0F0" x="6603" y="3683" width="510"/>
                    <rect  height="204" fill="#F0F0F0" x="7399" y="3683" width="510"/>
                </g>
                <g >
                    <polygon  points="9088,4448 9121,4448 9295,4622 9295,5549 9121,5722 9088,5722 " fill="#BFD84F"/>
                    <rect  height="1784" fill="#E6E7E8" x="8212" y="4193" width="876"/>
                    <rect  height="1593" fill="#BDBFC1" x="8212" y="4193" width="223"/>
                    <rect  height="191" fill="#606062" x="8212" y="5786" width="876"/>
                    <rect  height="701" fill="#F0F0F0" x="7829" y="5659" width="382"/>
                    <rect  height="255" fill="#606062" x="7829" y="6105" width="382"/>
                    <rect  height="465" fill="#F0F0F0" x="7574" y="5194" width="637"/>
                    <rect  height="64" fill="#606062" x="7574" y="5595" width="637"/>
                </g>
                <g >
                    <polygon  points="612,4448 645,4448 645,5722 612,5722 438,5549 438,4622 " fill="#BFD84F"/>
                    <rect  height="1784" fill="#E6E7E8" x="645" y="4193" width="876"/>
                    <rect  height="1593" fill="#BDBFC1" x="1298" y="4193" width="223"/>
                    <rect  height="191" fill="#606062" x="645" y="5786" width="876"/>
                    <rect  height="701" fill="#F0F0F0" x="1521" y="5659" width="382"/>
                    <rect  height="255" fill="#606062" x="1521" y="6105" width="382"/>
                    <rect  height="465" fill="#F0F0F0" x="1521" y="5194" width="637"/>
                    <rect  height="64" fill="#606062" x="1521" y="5595" width="637"/>
                </g>
            </g>
        </g>
    </g>
</svg>
