<?xml version='1.0' encoding='UTF-8'?>
<!DOCTYPE svg>
<!-- Creator: CorelDRAW X6 -->
<svg xmlns="http://www.w3.org/2000/svg" version="1.1" text-rendering="geometricPrecision" width="0.590551in" fill-rule="evenodd" xml:space="preserve" shape-rendering="geometricPrecision" viewBox="0 0 10274 10274"  xmlns:xml="http://www.w3.org/XML/1998/namespace" image-rendering="optimizeQuality" clip-rule="evenodd" height="0.590551in">
    <desc >
        <referenceFile >Molex_53398-0771-smd_icon.svg</referenceFile>
    </desc>
    <g gorn="0.1"  id="_53398-0771_smd-v">
        <metadata  id="CorelCorpID_0Corel-Layer"/>
        <g gorn="0.1.1"  id="icon">
            <rect width="10274"  fill="#373435" height="10274"/>
            <g >
                <g >
                    <rect width="856" x="7877" y="6073"  fill="#727376" height="137"/>
                    <rect width="514" x="4452" y="6073"  fill="#727376" height="137"/>
                    <rect width="514" x="5308" y="6073"  fill="#727376" height="137"/>
                    <rect width="514" x="6165" y="6073"  fill="#727376" height="137"/>
                    <rect width="514" x="7021" y="6073"  fill="#727376" height="137"/>
                    <rect width="514" x="3596" y="6073"  fill="#727376" height="137"/>
                    <rect width="514" x="2740" y="6073"  fill="#727376" height="137"/>
                    <rect width="856" x="1541" y="6073"  fill="#727376" height="137"/>
                </g>
                <g >
                    <rect width="7192" x="1541" y="4098"  fill="#727376" height="1985"/>
                    <rect width="7192" x="1541" y="5369"  fill="#F0F0F0" height="171"/>
                    <rect width="7192" x="1541" y="4356"  fill="#BDBFC1" height="1563"/>
                </g>
                <g >
                    <rect width="4110" x="3082" y="3814"  fill="#727376" height="308"/>
                    <rect width="4109" x="3082" y="3568"  fill="#F0F0F0" height="246"/>
                </g>
                <g >
                    <rect width="219" x="2459" y="4308"  fill="#A8CF45" height="335"/>
                    <rect width="219" x="2459" y="4642"  fill="#706A22" height="410"/>
                    <rect width="68" x="2534" y="4308"  fill="#FEFEFE" height="205"/>
                    <rect width="219" x="2459" y="6083"  fill="#BFD84F" height="425"/>
                    <rect width="219" x="2459" y="6405"  fill="#706A22" height="102"/>
                </g>
                <g >
                    <rect width="219" x="3315" y="4308"  fill="#A8CF45" height="335"/>
                    <rect width="219" x="3315" y="4642"  fill="#706A22" height="410"/>
                    <rect width="68" x="3390" y="4308"  fill="#FEFEFE" height="205"/>
                    <rect width="219" x="3315" y="6083"  fill="#BFD84F" height="425"/>
                    <rect width="219" x="3315" y="6405"  fill="#706A22" height="102"/>
                </g>
                <g >
                    <rect width="219" x="4171" y="4308"  fill="#A8CF45" height="335"/>
                    <rect width="219" x="4171" y="4642"  fill="#706A22" height="410"/>
                    <rect width="68" x="4247" y="4308"  fill="#FEFEFE" height="205"/>
                    <rect width="219" x="4171" y="6083"  fill="#BFD84F" height="425"/>
                    <rect width="219" x="4171" y="6405"  fill="#706A22" height="102"/>
                </g>
                <g >
                    <rect width="219" x="5028" y="4308"  fill="#A8CF45" height="335"/>
                    <rect width="219" x="5028" y="4642"  fill="#706A22" height="410"/>
                    <rect width="68" x="5103" y="4308"  fill="#FEFEFE" height="205"/>
                    <rect width="219" x="5028" y="6083"  fill="#BFD84F" height="425"/>
                    <rect width="219" x="5028" y="6405"  fill="#706A22" height="102"/>
                </g>
                <g >
                    <rect width="219" x="5884" y="4308"  fill="#A8CF45" height="335"/>
                    <rect width="219" x="5884" y="4642"  fill="#706A22" height="410"/>
                    <rect width="68" x="5959" y="4308"  fill="#FEFEFE" height="205"/>
                    <rect width="219" x="5884" y="6083"  fill="#BFD84F" height="425"/>
                    <rect width="219" x="5884" y="6405"  fill="#706A22" height="102"/>
                </g>
                <g >
                    <rect width="219" x="6740" y="4308"  fill="#A8CF45" height="335"/>
                    <rect width="219" x="6740" y="4642"  fill="#706A22" height="410"/>
                    <rect width="68" x="6815" y="4308"  fill="#FEFEFE" height="205"/>
                    <rect width="219" x="6740" y="6083"  fill="#BFD84F" height="425"/>
                    <rect width="219" x="6740" y="6405"  fill="#706A22" height="102"/>
                </g>
                <g >
                    <rect width="219" x="7596" y="4308"  fill="#A8CF45" height="335"/>
                    <rect width="219" x="7596" y="4642"  fill="#706A22" height="410"/>
                    <rect width="68" x="7671" y="4308"  fill="#FEFEFE" height="205"/>
                    <rect width="219" x="7596" y="6083"  fill="#BFD84F" height="425"/>
                    <rect width="219" x="7596" y="6405"  fill="#706A22" height="102"/>
                </g>
                <g >
                    <polygon  points="9687,4464 9687,4469 9897,4680 9897,5640 9687,5850 9687,5850 " fill="#BFD84F"/>
                    <rect width="968" x="8733" y="4026"  fill="#E6E7E8" height="1781"/>
                    <rect width="240" x="8733" y="4026"  fill="#BDBFC1" height="1514"/>
                    <rect width="968" x="8733" y="5540"  fill="#848688" height="379"/>
                    <rect width="959" x="7363" y="3814"  fill="#727376" height="308"/>
                    <rect width="1370" x="7363" y="3568"  fill="#F0F0F0" height="246"/>
                    <rect width="411" x="8322" y="3568"  fill="#F0F0F0" height="2073"/>
                    <rect width="205" x="8322" y="4336"  fill="#606062" height="430"/>
                    <rect width="411" x="8322" y="5233"  fill="#606062" height="266"/>
                    <rect width="685" x="8048" y="5516"  fill="#606062" height="364"/>
                    <rect width="685" x="8048" y="5369"  fill="#F0F0F0" height="158"/>
                    <rect width="685" x="8048" y="5833"  fill="#BDBFC1" height="85"/>
                    <rect width="637" x="6959" y="4098"  fill="#D2D3D5" height="159"/>
                </g>
                <g >
                    <polygon  points="587,4469 587,4469 587,5844 587,5850 377,5640 377,4680 " fill="#BFD84F"/>
                    <rect width="968" x="573" y="4026"  fill="#E6E7E8" height="1781"/>
                    <rect width="240" x="1301" y="4026"  fill="#BDBFC1" height="1514"/>
                    <rect width="968" x="573" y="5540"  fill="#848688" height="379"/>
                    <rect width="959" x="1952" y="3814"  fill="#727376" height="308"/>
                    <rect width="1370" x="1541" y="3568"  fill="#F0F0F0" height="246"/>
                    <rect width="411" x="1541" y="3568"  fill="#F0F0F0" height="2073"/>
                    <rect width="205" x="1747" y="4336"  fill="#606062" height="430"/>
                    <rect width="411" x="1541" y="5233"  fill="#606062" height="266"/>
                    <rect width="685" x="1541" y="5516"  fill="#606062" height="364"/>
                    <rect width="685" x="1541" y="5369"  fill="#F0F0F0" height="158"/>
                    <rect width="685" x="1541" y="5833"  fill="#BDBFC1" height="85"/>
                    <rect width="637" x="2678" y="4098"  fill="#D2D3D5" height="159"/>
                </g>
            </g>
        </g>
    </g>
</svg>
