<?xml version='1.0' encoding='UTF-8'?>
<!DOCTYPE svg>
<!-- Creator: CorelDRAW X6 -->
<svg xmlns="http://www.w3.org/2000/svg" version="1.1" shape-rendering="geometricPrecision" fill-rule="evenodd" xml:space="preserve" image-rendering="optimizeQuality" viewBox="0 0 17286 17286" xmlns:xml="http://www.w3.org/XML/1998/namespace" clip-rule="evenodd" width="0.551181in" height="0.551181in"  text-rendering="geometricPrecision">
    <desc >
        <referenceFile >Molex_53398-0671-smd_icon.svg</referenceFile>
    </desc>
    <g gorn="0.1" id="_53398-0671_smd-v" >
        <metadata id="CorelCorpID_0Corel-Layer" />
        <g gorn="0.1.1" id="icon" >
            <rect fill="#373435" width="17286" height="17286" />
            <g >
                <g >
                    <rect fill="#727376" width="1543" height="247" x="12810" y="10331" />
                    <rect fill="#727376" width="926" height="247" x="8180" y="10331" />
                    <rect fill="#727376" width="926" height="247" x="9724" y="10331" />
                    <rect fill="#727376" width="926" height="247" x="11267" y="10331" />
                    <rect fill="#727376" width="926" height="247" x="6637" y="10331" />
                    <rect fill="#727376" width="926" height="247" x="5093" y="10331" />
                    <rect fill="#727376" width="1543" height="247" x="2933" y="10331" />
                </g>
                <g >
                    <rect fill="#727376" width="11421" height="3578" x="2933" y="6770" />
                    <rect fill="#F0F0F0" width="11421" height="308" x="2933" y="9061" />
                    <rect fill="#BDBFC1" width="11421" height="2817" x="2933" y="7235" />
                </g>
                <g >
                    <rect fill="#727376" width="5865" height="556" x="5711" y="6257" />
                    <rect fill="#F0F0F0" width="5865" height="443" x="5711" y="5814" />
                </g>
                <g >
                    <rect fill="#A8CF45" width="395" height="603" x="4587" y="7148" />
                    <rect fill="#706A22" width="395" height="740" x="4587" y="7752" />
                    <rect fill="#FEFEFE" width="123" height="370" x="4723" y="7148" />
                    <rect fill="#BFD84F" width="395" height="765" x="4587" y="10348" />
                    <rect fill="#706A22" width="395" height="184" x="4587" y="10930" />
                </g>
                <g >
                    <rect fill="#A8CF45" width="395" height="603" x="6130" y="7148" />
                    <rect fill="#706A22" width="395" height="740" x="6130" y="7752" />
                    <rect fill="#FEFEFE" width="123" height="370" x="6266" y="7148" />
                    <rect fill="#BFD84F" width="395" height="765" x="6130" y="10348" />
                    <rect fill="#706A22" width="395" height="184" x="6130" y="10930" />
                </g>
                <g >
                    <rect fill="#A8CF45" width="395" height="603" x="7674" y="7148" />
                    <rect fill="#706A22" width="395" height="740" x="7674" y="7752" />
                    <rect fill="#FEFEFE" width="123" height="370" x="7810" y="7148" />
                    <rect fill="#BFD84F" width="395" height="765" x="7674" y="10348" />
                    <rect fill="#706A22" width="395" height="184" x="7674" y="10930" />
                </g>
                <g >
                    <rect fill="#A8CF45" width="395" height="603" x="9217" y="7148" />
                    <rect fill="#706A22" width="395" height="740" x="9217" y="7752" />
                    <rect fill="#FEFEFE" width="123" height="370" x="9353" y="7148" />
                    <rect fill="#BFD84F" width="395" height="765" x="9217" y="10348" />
                    <rect fill="#706A22" width="395" height="184" x="9217" y="10930" />
                </g>
                <g >
                    <rect fill="#A8CF45" width="395" height="603" x="10761" y="7148" />
                    <rect fill="#706A22" width="395" height="740" x="10761" y="7752" />
                    <rect fill="#FEFEFE" width="123" height="370" x="10897" y="7148" />
                    <rect fill="#BFD84F" width="395" height="765" x="10761" y="10348" />
                    <rect fill="#706A22" width="395" height="184" x="10761" y="10930" />
                </g>
                <g >
                    <rect fill="#A8CF45" width="395" height="603" x="12304" y="7148" />
                    <rect fill="#706A22" width="395" height="740" x="12304" y="7752" />
                    <rect fill="#FEFEFE" width="123" height="370" x="12440" y="7148" />
                    <rect fill="#BFD84F" width="395" height="765" x="12304" y="10348" />
                    <rect fill="#706A22" width="395" height="184" x="12304" y="10930" />
                </g>
                <g >
                    <polygon points="16074,7429 16074,7439 16453,7819 16453,9549 16074,9928 16074,9928 " fill="#BFD84F" />
                    <rect fill="#E6E7E8" width="1745" height="3210" x="14354" y="6640" />
                    <rect fill="#BDBFC1" width="432" height="2729" x="14354" y="6640" />
                    <rect fill="#848688" width="1745" height="683" x="14354" y="9369" />
                    <rect fill="#727376" width="1729" height="556" x="11884" y="6257" />
                    <rect fill="#F0F0F0" width="2470" height="443" x="11884" y="5814" />
                    <rect fill="#F0F0F0" width="741" height="3737" x="13613" y="5814" />
                    <rect fill="#606062" width="370" height="775" x="13613" y="7198" />
                    <rect fill="#606062" width="741" height="480" x="13613" y="8816" />
                    <rect fill="#606062" width="1235" height="657" x="13119" y="9326" />
                    <rect fill="#F0F0F0" width="1235" height="285" x="13119" y="9061" />
                    <rect fill="#BDBFC1" width="1235" height="153" x="13119" y="9899" />
                    <rect fill="#D2D3D5" width="1148" height="286" x="11156" y="6770" />
                </g>
                <g >
                    <polygon points="1213,7439 1213,7439 1213,9918 1213,9928 833,9549 833,7819 " fill="#BFD84F" />
                    <rect fill="#E6E7E8" width="1745" height="3210" x="1187" y="6640" />
                    <rect fill="#BDBFC1" width="432" height="2729" x="2500" y="6640" />
                    <rect fill="#848688" width="1745" height="683" x="1187" y="9369" />
                    <rect fill="#727376" width="1729" height="556" x="3673" y="6257" />
                    <rect fill="#F0F0F0" width="2469" height="443" x="2933" y="5814" />
                    <rect fill="#F0F0F0" width="741" height="3737" x="2933" y="5814" />
                    <rect fill="#606062" width="370" height="775" x="3303" y="7198" />
                    <rect fill="#606062" width="741" height="480" x="2933" y="8816" />
                    <rect fill="#606062" width="1235" height="657" x="2933" y="9326" />
                    <rect fill="#F0F0F0" width="1235" height="285" x="2933" y="9061" />
                    <rect fill="#BDBFC1" width="1235" height="153" x="2933" y="9899" />
                    <rect fill="#D2D3D5" width="1148" height="286" x="4982" y="6770" />
                </g>
            </g>
        </g>
    </g>
</svg>
