<?xml version='1.0' encoding='UTF-8'?>
<!DOCTYPE svg>
<!-- Creator: CorelDRAW X6 -->
<svg xmlns="http://www.w3.org/2000/svg" width="0.393701in" image-rendering="optimizeQuality" fill-rule="evenodd" xml:space="preserve" viewBox="0 0 5960 5960"  xmlns:xml="http://www.w3.org/XML/1998/namespace" clip-rule="evenodd" height="0.393701in" version="1.1" shape-rendering="geometricPrecision" text-rendering="geometricPrecision">
    <desc >
        <referenceFile >Molex_53398-0371-smd_icon.svg</referenceFile>
    </desc>
    <g  gorn="0.1" id="_53398-0371_smd-v">
        <metadata  id="CorelCorpID_0Corel-Layer"/>
        <g  gorn="0.1.1" id="icon">
            <rect width="5960"  height="5960" fill="#373435"/>
            <g >
                <g >
                    <rect width="745"  x="3874" y="3868" height="119" fill="#727376"/>
                    <rect width="447"  x="3129" y="3868" height="119" fill="#727376"/>
                    <rect width="447"  x="2384" y="3868" height="119" fill="#727376"/>
                    <rect width="745"  x="1341" y="3868" height="119" fill="#727376"/>
                </g>
                <g >
                    <rect width="3278"  x="1341" y="2149" height="1727" fill="#727376"/>
                    <rect width="3278"  x="1341" y="3255" height="149" fill="#F0F0F0"/>
                    <rect width="3278"  x="1341" y="2373" height="1360" fill="#BDBFC1"/>
                </g>
                <g >
                    <rect width="191"  x="2140" y="2332" height="291" fill="#A8CF45"/>
                    <rect width="191"  x="2140" y="2623" height="357" fill="#706A22"/>
                    <rect width="60"  x="2205" y="2332" height="179" fill="#FEFEFE"/>
                    <rect width="191"  x="2140" y="3876" height="369" fill="#BFD84F"/>
                    <rect width="191"  x="2140" y="4157" height="89" fill="#706A22"/>
                </g>
                <g >
                    <rect width="191"  x="2885" y="2332" height="291" fill="#A8CF45"/>
                    <rect width="191"  x="2885" y="2623" height="357" fill="#706A22"/>
                    <rect width="60"  x="2950" y="2332" height="179" fill="#FEFEFE"/>
                    <rect width="191"  x="2885" y="3876" height="369" fill="#BFD84F"/>
                    <rect width="191"  x="2885" y="4157" height="89" fill="#706A22"/>
                </g>
                <g >
                    <rect width="191"  x="3630" y="2332" height="291" fill="#A8CF45"/>
                    <rect width="191"  x="3630" y="2623" height="357" fill="#706A22"/>
                    <rect width="60"  x="3695" y="2332" height="179" fill="#FEFEFE"/>
                    <rect width="191"  x="3630" y="3876" height="369" fill="#BFD84F"/>
                    <rect width="191"  x="3630" y="4157" height="89" fill="#706A22"/>
                </g>
                <g >
                    <polygon  points="5449,2467 5449,2472 5632,2655 5632,3491 5449,3674 5449,3674 " fill="#BFD84F"/>
                    <rect width="842"  x="4619" y="2086" height="1550" fill="#E6E7E8"/>
                    <rect width="209"  x="4619" y="2086" height="1317" fill="#BDBFC1"/>
                    <rect width="842"  x="4619" y="3404" height="330" fill="#848688"/>
                    <rect width="1227"  x="3034" y="1902" height="268" fill="#727376"/>
                    <rect width="1585"  x="3034" y="1688" height="214" fill="#F0F0F0"/>
                    <rect width="358"  x="4261" y="1688" height="1804" fill="#F0F0F0"/>
                    <rect width="179"  x="4261" y="2356" height="374" fill="#606062"/>
                    <rect width="358"  x="4261" y="3137" height="232" fill="#606062"/>
                    <rect width="596"  x="4023" y="3383" height="317" fill="#606062"/>
                    <rect width="596"  x="4023" y="3255" height="138" fill="#F0F0F0"/>
                    <rect width="596"  x="4023" y="3659" height="74" fill="#BDBFC1"/>
                </g>
                <g >
                    <polygon  points="511,2472 511,2472 511,3669 511,3674 328,3491 328,2655 " fill="#BFD84F"/>
                    <rect width="842"  x="499" y="2086" height="1550" fill="#E6E7E8"/>
                    <rect width="209"  x="1132" y="2086" height="1317" fill="#BDBFC1"/>
                    <rect width="842"  x="499" y="3404" height="330" fill="#848688"/>
                    <rect width="1187"  x="1699" y="1902" height="268" fill="#727376"/>
                    <rect width="1544"  x="1341" y="1688" height="214" fill="#F0F0F0"/>
                    <rect width="358"  x="1341" y="1688" height="1804" fill="#F0F0F0"/>
                    <rect width="179"  x="1520" y="2356" height="374" fill="#606062"/>
                    <rect width="358"  x="1341" y="3137" height="232" fill="#606062"/>
                    <rect width="596"  x="1341" y="3383" height="317" fill="#606062"/>
                    <rect width="596"  x="1341" y="3255" height="138" fill="#F0F0F0"/>
                    <rect width="596"  x="1341" y="3659" height="74" fill="#BDBFC1"/>
                    <rect width="554"  x="2703" y="2149" height="138" fill="#D2D3D5"/>
                </g>
            </g>
        </g>
    </g>
</svg>
