<?xml version='1.0' encoding='UTF-8'?>
<!DOCTYPE svg>
<!-- Creator: CorelDRAW X6 -->
<svg xmlns="http://www.w3.org/2000/svg" image-rendering="optimizeQuality" width="0.433071in" fill-rule="evenodd" xml:space="preserve" viewBox="0 0 15685 15685"  xmlns:xml="http://www.w3.org/XML/1998/namespace" clip-rule="evenodd" version="1.1" shape-rendering="geometricPrecision" height="0.433071in" text-rendering="geometricPrecision">
    <desc >
        <referenceFile >Molex_53398-0471-smd_icon.svg</referenceFile>
    </desc>
    <g  gorn="0.1" id="_53398-0471_smd-v">
        <metadata  id="CorelCorpID_0Corel-Layer"/>
        <g  gorn="0.1.1" id="_722054160">
            <rect width="15685"  height="15685" fill="#373435"/>
            <g >
                <g >
                    <rect width="1782"  x="10873" y="9889" height="285" fill="#727376"/>
                    <rect width="1069"  x="9090" y="9889" height="285" fill="#727376"/>
                    <rect width="1069"  x="7308" y="9889" height="285" fill="#727376"/>
                    <rect width="1069"  x="5525" y="9889" height="285" fill="#727376"/>
                    <rect width="1782"  x="3030" y="9889" height="285" fill="#727376"/>
                </g>
                <g >
                    <rect width="9625"  x="3030" y="5776" height="4132" fill="#727376"/>
                    <rect width="9625"  x="3030" y="8422" height="356" fill="#F0F0F0"/>
                    <rect width="9625"  x="3030" y="6313" height="3253" fill="#BDBFC1"/>
                </g>
                <g >
                    <rect width="3208"  x="6238" y="5185" height="642" fill="#727376"/>
                    <rect width="3208"  x="6238" y="4673" height="511" fill="#F0F0F0"/>
                </g>
                <g >
                    <rect width="456"  x="4941" y="6214" height="696" fill="#A8CF45"/>
                    <rect width="456"  x="4941" y="6910" height="854" fill="#706A22"/>
                    <rect width="143"  x="5098" y="6214" height="427" fill="#FEFEFE"/>
                    <rect width="456"  x="4941" y="9909" height="884" fill="#BFD84F"/>
                    <rect width="456"  x="4941" y="10580" height="212" fill="#706A22"/>
                </g>
                <g >
                    <rect width="456"  x="6723" y="6214" height="696" fill="#A8CF45"/>
                    <rect width="456"  x="6723" y="6910" height="854" fill="#706A22"/>
                    <rect width="143"  x="6880" y="6214" height="427" fill="#FEFEFE"/>
                    <rect width="456"  x="6723" y="9909" height="884" fill="#BFD84F"/>
                    <rect width="456"  x="6723" y="10580" height="212" fill="#706A22"/>
                </g>
                <g >
                    <rect width="456"  x="8506" y="6214" height="696" fill="#A8CF45"/>
                    <rect width="456"  x="8506" y="6910" height="854" fill="#706A22"/>
                    <rect width="143"  x="8662" y="6214" height="427" fill="#FEFEFE"/>
                    <rect width="456"  x="8506" y="9909" height="884" fill="#BFD84F"/>
                    <rect width="456"  x="8506" y="10580" height="212" fill="#706A22"/>
                </g>
                <g >
                    <rect width="456"  x="10288" y="6214" height="696" fill="#A8CF45"/>
                    <rect width="456"  x="10288" y="6910" height="854" fill="#706A22"/>
                    <rect width="143"  x="10445" y="6214" height="427" fill="#FEFEFE"/>
                    <rect width="456"  x="10288" y="9909" height="884" fill="#BFD84F"/>
                    <rect width="456"  x="10288" y="10580" height="212" fill="#706A22"/>
                </g>
                <g >
                    <polygon  points="14641,6538 14641,6550 15079,6988 15079,8986 14641,9424 14641,9424 " fill="#BFD84F"/>
                    <rect width="2015"  x="12655" y="5626" height="3707" fill="#E6E7E8"/>
                    <rect width="499"  x="12655" y="5626" height="3152" fill="#BDBFC1"/>
                    <rect width="2015"  x="12655" y="8778" height="788" fill="#848688"/>
                    <rect width="1996"  x="9803" y="5185" height="642" fill="#727376"/>
                    <rect width="2852"  x="9803" y="4673" height="511" fill="#F0F0F0"/>
                    <rect width="856"  x="11799" y="4673" height="4315" fill="#F0F0F0"/>
                    <rect width="428"  x="11799" y="6272" height="895" fill="#606062"/>
                    <rect width="856"  x="11799" y="8139" height="554" fill="#606062"/>
                    <rect width="1426"  x="11229" y="8728" height="758" fill="#606062"/>
                    <rect width="1426"  x="11229" y="8422" height="329" fill="#F0F0F0"/>
                    <rect width="1426"  x="11229" y="9390" height="177" fill="#BDBFC1"/>
                    <rect width="1326"  x="8962" y="5776" height="330" fill="#D2D3D5"/>
                </g>
                <g >
                    <polygon  points="1044,6550 1044,6550 1044,9412 1044,9424 606,8986 606,6988 " fill="#BFD84F"/>
                    <rect width="2015"  x="1015" y="5626" height="3707" fill="#E6E7E8"/>
                    <rect width="499"  x="2531" y="5626" height="3152" fill="#BDBFC1"/>
                    <rect width="2015"  x="1015" y="8778" height="788" fill="#848688"/>
                    <rect width="1996"  x="3886" y="5185" height="642" fill="#727376"/>
                    <rect width="2852"  x="3030" y="4673" height="511" fill="#F0F0F0"/>
                    <rect width="856"  x="3030" y="4673" height="4315" fill="#F0F0F0"/>
                    <rect width="428"  x="3458" y="6272" height="895" fill="#606062"/>
                    <rect width="856"  x="3030" y="8139" height="554" fill="#606062"/>
                    <rect width="1426"  x="3030" y="8728" height="758" fill="#606062"/>
                    <rect width="1426"  x="3030" y="8422" height="329" fill="#F0F0F0"/>
                    <rect width="1426"  x="3030" y="9390" height="177" fill="#BDBFC1"/>
                    <rect width="1326"  x="5397" y="5776" height="330" fill="#D2D3D5"/>
                </g>
            </g>
        </g>
    </g>
</svg>
