<?xml version="1.0" encoding="utf-8"?>
<!-- Generator: Adobe Illustrator 22.1.0, SVG Export Plug-In . SVG Version: 6.00 Build 0)  -->
<svg version="1.1" id="Layer_1" xmlns="http://www.w3.org/2000/svg" xmlns:xlink="http://www.w3.org/1999/xlink" x="0px" y="0px"
	 width="14.173px" height="14.173px" viewBox="0 0 14.173 14.173" style="enable-background:new 0 0 14.173 14.173;"
	 xml:space="preserve">
<style type="text/css">
	.st0{fill:#00800A;}
	.st1{fill:#B4B4B4;}
	.st2{fill:#DCDCDC;}
	.st3{fill:#646464;}
</style>
<g>
	
		<rect x="0" y="0" transform="matrix(-1 -8.977365e-11 8.977365e-11 -1 14.1732 14.1732)" class="st0" width="14.173" height="14.173"/>
	<path class="st1" d="M4.961,0.709h4.252c2.348,0,4.252,1.904,4.252,4.252v4.252c0,2.348-1.904,4.252-4.252,4.252H4.961
		c-2.348,0-4.252-1.904-4.252-4.252V4.961C0.709,2.612,2.612,0.709,4.961,0.709z"/>
	<path class="st2" d="M9.213,1.417c1.957,0,3.543,1.586,3.543,3.543v4.252c0,1.957-1.586,3.543-3.543,3.543H4.961
		c-1.957,0-3.543-1.586-3.543-3.543V4.96c1.384-1.384,2.16-2.16,3.543-3.543H9.213z"/>
	<circle class="st1" cx="7.087" cy="7.087" r="4.252"/>
	<circle class="st3" cx="7.087" cy="7.087" r="3.543"/>
</g>
</svg>
