<svg xmlns="http://www.w3.org/2000/svg" xmlns:xlink="http://www.w3.org/1999/xlink" width="48" height="63" viewBox="0 0 47.622 62.461"><path d="M13.53 55.392h1.548v7.068H13.53zM9.558 51h1.548v7.068H9.558zm26.87 0h1.548v7.068h-1.548zm-3.823 4.382h1.548v7.068h-1.548z" fill="#e6e6e6"/><g fill="#b5441b"><circle cx="23.811" cy="36.822" r="23.811"/><path d="M0 23.81h47.622v12.983H0z"/></g><circle cx="23.811" cy="23.811" r="23.811"/><g fill="#b3b3b3"><use xlink:href="#B"/><path d="M9.556 32.908l-.052.052.248.397.127-.127-.323-.322z"/><use xlink:href="#B" x="1" y="1"/><path d="M10.38 33.73l-.323-.322-.152.152.146.194.153.153.176-.177z"/><use xlink:href="#B" x="-0.5" y="-0.5"/><use xlink:href="#B" x="-2" y="-2"/><path d="M9.344 32.695l.027.045.01-.01-.036-.035z"/><use xlink:href="#B" x="-1" y="-1"/><path d="M14.056 37.408l-.175.175.37.276.128-.13-.322-.322z"/><use xlink:href="#B" x="-1.5" y="-1.5"/><use xlink:href="#B" x="0.5" y="0.5"/><path d="M14.556 37.908l-.1.1.402.244.01-.012-.323-.322z"/><use xlink:href="#B" x="-3.497" y="-4.498"/><use xlink:href="#B" x="3.5" y="2.5"/><use xlink:href="#B" x="1"/><path d="M16.556 38.908l-.17.172.436.21.058-.06-.323-.322z"/><use xlink:href="#B" x="2.5" y="1.5"/><use xlink:href="#B" x="-1.5" y="-2.5"/><path d="M8.224 30.576l.1.21.055-.055-.156-.154z"/><use xlink:href="#B" x="-2.997" y="-3.998"/><use xlink:href="#B" x="2" y="1"/><use xlink:href="#B" x="-2" y="-3"/><use xlink:href="#B" x="1.5" y="0.5"/><use xlink:href="#B" y="-1"/><use xlink:href="#B" x="3" y="2"/><use xlink:href="#B" x="-1" y="-2"/><use xlink:href="#B" x="-2.497" y="-3.498"/><use xlink:href="#B" x="0.5" y="-0.5"/><use xlink:href="#B" x="-0.5" y="-1.5"/><path d="M8.88 31.23l-.323-.322-.116.115.113.234.15.15.177-.177z"/><use xlink:href="#B" x="2.5" y="0.5"/><use xlink:href="#B" x="-1" y="-3"/><use xlink:href="#B" x="-1.5" y="-3.5"/><use xlink:href="#B" x="5" y="3"/><use xlink:href="#B" y="-2"/><path d="M18.512 39.952l.14.05-.095-.095-.044.044z"/><use xlink:href="#B" x="4" y="2"/><use xlink:href="#B" x="2"/><use xlink:href="#B" x="-2.997" y="-4.998"/><use xlink:href="#B" x="-3.497" y="-5.498"/><path d="M18.056 39.408l-.177.177.213.214.16.06.126-.127-.323-.323z"/><use xlink:href="#B" x="-2.497" y="-4.498"/><use xlink:href="#B" x="-3.998" y="-5.998"/><use xlink:href="#B" x="3.5" y="1.5"/><use xlink:href="#B" x="-4.498" y="-6.498"/><use xlink:href="#B" x="1" y="-1"/><use xlink:href="#B" x="-1.997" y="-3.998"/><use xlink:href="#B" x="1.5" y="-0.5"/><use xlink:href="#B" x="4.5" y="2.5"/><use xlink:href="#B" x="-0.5" y="-2.5"/><path d="M7.62 28.97l.14.38.12-.12-.26-.26z"/><use xlink:href="#B" x="0.5" y="-1.5"/><use xlink:href="#B" x="3" y="1"/><use xlink:href="#B" x="6.499" y="3.5"/><use xlink:href="#B" x="4" y="1"/><use xlink:href="#B" x="3"/><use xlink:href="#B" x="-2.997" y="-5.998"/><use xlink:href="#B" x="5" y="2"/><use xlink:href="#B" x="1" y="-2"/><use xlink:href="#B" x="-3.498" y="-6.498"/><use xlink:href="#B" x="-3.998" y="-6.998"/><use xlink:href="#B" x="2" y="-1"/><use xlink:href="#B" x="3.5" y="0.5"/><use xlink:href="#B" x="-1.997" y="-4.998"/><path d="M7.258 27.61l.05.193.072-.072-.12-.12z"/><use xlink:href="#B" x="2.5" y="-0.5"/><use xlink:href="#B" x="5.999" y="3"/><use xlink:href="#B" y="-3"/><use xlink:href="#B" x="4.5" y="1.5"/><use xlink:href="#B" x="-1" y="-4"/><use xlink:href="#B" x="1.5" y="-1.5"/><use xlink:href="#C"/><path d="M7.88 28.23l-.323-.322-.176.176v.002l.322.322z"/><use xlink:href="#B" x="0.5" y="-2.5"/><path d="M19.556 39.908l-.177.177.156.157.265.067.08-.08-.323-.322z"/><use xlink:href="#B" x="-1.497" y="-4.498"/><use xlink:href="#B" x="-0.5" y="-3.5"/><use xlink:href="#B" x="5.5" y="2.5"/><use xlink:href="#B" x="-2.497" y="-5.498"/><use xlink:href="#B" x="-3.998" y="-7.998"/><use xlink:href="#B" x="-0.997" y="-4.998"/><use xlink:href="#B" x="7.499" y="3.5"/><use xlink:href="#B" y="-4"/><use xlink:href="#B" x="1.5" y="-2.5"/><use xlink:href="#B" x="-2.497" y="-6.498"/><use xlink:href="#B" x="-1.997" y="-5.998"/><use xlink:href="#B" x="3" y="-1"/><use xlink:href="#B" x="3.5" y="-0.5"/><use xlink:href="#B" x="5" y="1"/><use xlink:href="#B" x="-1.497" y="-5.498"/><path d="M20.922 40.542l.316.05-.183-.183-.133.134z"/><use xlink:href="#B" x="7.999" y="4"/><use xlink:href="#B" x="-4.498" y="-8.498"/><use xlink:href="#B" x="1" y="-3"/><use xlink:href="#B" x="-0.5" y="-4.5"/><use xlink:href="#B" x="6" y="2"/><use xlink:href="#B" x="6.499" y="2.5"/><use xlink:href="#B" x="6.999" y="3"/><use xlink:href="#B" x="-4.998" y="-8.998"/><use xlink:href="#B" x="4.5" y="0.5"/><use xlink:href="#B" x="2" y="-2"/><use xlink:href="#B" x="4"/><use xlink:href="#B" x="-2.998" y="-6.998"/><path d="M7.38 26.73l-.323-.322-.018.018.057.375.107.107.177-.178z"/><use xlink:href="#B" x="5.5" y="1.5"/><use xlink:href="#B" x="0.5" y="-3.5"/><use xlink:href="#B" x="2.5" y="-1.5"/><use xlink:href="#C" x="1"/><use xlink:href="#B" x="-0.997" y="-5.998"/><use xlink:href="#B" x="8.499" y="3.5"/><use xlink:href="#B" x="-3.998" y="-8.998"/><use xlink:href="#B" x="-1.998" y="-6.998"/><use xlink:href="#B" x="-4.498" y="-9.498"/><use xlink:href="#B" x="1" y="-4"/><use xlink:href="#B" x="7.499" y="2.5"/><use xlink:href="#C" x="2"/><use xlink:href="#B" x="2.5" y="-2.5"/><use xlink:href="#B" x="5"/><use xlink:href="#B" x="-2.998" y="-7.998"/><use xlink:href="#B" x="5.5" y="0.5"/><use xlink:href="#B" x="1.5" y="-3.5"/><path d="M22.056 40.408l-.177.177.122.122.375.026.002-.003-.322-.322z"/><use xlink:href="#B" x="3.5" y="-1.5"/><use xlink:href="#B" x="-0.497" y="-5.498"/><use xlink:href="#B" x="2" y="-3"/><use xlink:href="#B" x="-1.497" y="-6.498"/><use xlink:href="#B" x="-4.998" y="-9.998"/><use xlink:href="#B" x="6.999" y="2"/><use xlink:href="#B" x="4" y="-1"/><path d="M7.38 25.73l-.323-.322-.15.15.01.063.287.287.177-.178z"/><use xlink:href="#B" x="7.999" y="3"/><use xlink:href="#B" y="-5"/><use xlink:href="#B" x="0.5" y="-4.5"/><use xlink:href="#B" x="4.5" y="-0.5"/><use xlink:href="#B" x="8.999" y="4"/><use xlink:href="#B" x="6.499" y="1.5"/><use xlink:href="#B" x="6" y="1"/><use xlink:href="#B" x="-3.498" y="-8.498"/><use xlink:href="#B" x="3" y="-2"/><use xlink:href="#B" x="-0.497" y="-6.498"/><use xlink:href="#B" x="6.999" y="1"/><use xlink:href="#C" x="3"/><use xlink:href="#B" x="1" y="-4.999"/><use xlink:href="#B" x="4" y="-2"/><use xlink:href="#B" x="7.999" y="2"/><use xlink:href="#B" x="5.5" y="-0.5"/><use xlink:href="#B" x="-0.997" y="-6.998"/><use xlink:href="#B" x="9.999" y="4"/><use xlink:href="#B" x="-2.998" y="-8.998"/><use xlink:href="#B" x="8.999" y="3"/><use xlink:href="#B" x="-5.498" y="-11.498"/><use xlink:href="#B" x="3.5" y="-2.5"/><path d="M6.835 24.187l.004.083.04-.04-.044-.043z"/><use xlink:href="#B" x="2" y="-3.999"/><use xlink:href="#B" x="9.499" y="3.5"/><use xlink:href="#B" x="-1.998" y="-7.998"/><use xlink:href="#B" x="-3.998" y="-9.998"/><use xlink:href="#B" x="3" y="-3"/><use xlink:href="#B" x="6"/><use xlink:href="#B" x="0.5" y="-5.499"/><use xlink:href="#B" x="4.5" y="-1.5"/><use xlink:href="#B" x="-4.498" y="-10.498"/><use xlink:href="#B" x="7.499" y="1.5"/><path d="M23.056 40.408l-.177.177.183.183.267.014.05-.05-.323-.323z"/><use xlink:href="#B" x="5" y="-1"/><use xlink:href="#B" x="-2.498" y="-8.498"/><use xlink:href="#B" x="8.499" y="2.5"/><use xlink:href="#C" x="-0.5" y="-3.5"/><use xlink:href="#B" x="0.003" y="-5.998"/><use xlink:href="#B" x="1.5" y="-4.499"/><use xlink:href="#B" x="2.5" y="-3.499"/><use xlink:href="#B" x="6.5" y="0.5"/><use xlink:href="#B" x="-3.498" y="-9.498"/><use xlink:href="#B" x="2" y="-4.999"/><path d="M6.847 23.2l-.003.067.036-.035-.033-.032z"/><use xlink:href="#B" x="3.5" y="-3.499"/><use xlink:href="#B" x="5" y="-1.999"/><use xlink:href="#B" x="7.999" y="1"/><use xlink:href="#B" x="7"/><use xlink:href="#B" x="10.499" y="3.5"/><use xlink:href="#B" x="8.999" y="2"/><use xlink:href="#B" x="4.5" y="-2.499"/><use xlink:href="#B" x="0.003" y="-6.998"/><use xlink:href="#B" x="2.5" y="-4.499"/><use xlink:href="#B" x="9.499" y="2.5"/><path d="M24.056 40.408l-.177.177.207.207.245-.013.05-.05-.324-.322z"/><use xlink:href="#B" x="9.999" y="3"/><use xlink:href="#C" x="0.5" y="-3.5"/><use xlink:href="#D"/><use xlink:href="#D" x="-0.5" y="-0.5"/><use xlink:href="#B" x="7.499" y="0.5"/><use xlink:href="#B" x="-2.498" y="-9.498"/><use xlink:href="#B" x="1.5" y="-5.499"/><use xlink:href="#C" x="4.001"/><use xlink:href="#B" x="-1.498" y="-8.498"/><use xlink:href="#B" x="6" y="-1"/><use xlink:href="#B" x="-4.498" y="-11.498"/><use xlink:href="#B" x="8.499" y="1.5"/><use xlink:href="#B" x="1" y="-5.999"/><use xlink:href="#B" x="4" y="-2.999"/><use xlink:href="#B" x="-1.998" y="-8.998"/><use xlink:href="#B" x="5.5" y="-1.499"/><use xlink:href="#B" x="6.5" y="-0.5"/><use xlink:href="#B" x="-3.498" y="-10.498"/><use xlink:href="#B" x="-0.998" y="-7.998"/><use xlink:href="#B" x="3" y="-3.999"/><use xlink:href="#B" x="0.503" y="-6.498"/><use xlink:href="#B" x="10.999" y="4"/><use xlink:href="#B" x="-2.998" y="-9.998"/><use xlink:href="#B" x="-0.998" y="-8.998"/><use xlink:href="#B" x="3" y="-4.999"/><use xlink:href="#B" x="2" y="-5.999"/><use xlink:href="#C" x="1.5" y="-3.5"/><use xlink:href="#B" x="4" y="-3.999"/><use xlink:href="#B" x="0.003" y="-7.998"/><path d="M24.88 40.585l.158.16.338-.018-.32-.318-.177.177z"/><use xlink:href="#B" x="11.503" y="3.501"/><use xlink:href="#B" x="7.999" y="0.001"/><use xlink:href="#B" x="5" y="-2.999"/><use xlink:href="#D" x="0.5" y="-0.5"/><use xlink:href="#B" x="10.499" y="2.5"/><use xlink:href="#B" x="-2.498" y="-10.498"/><use xlink:href="#D" y="-1"/><use xlink:href="#B" x="4.5" y="-3.499"/><use xlink:href="#D" x="1"/><use xlink:href="#B" x="-3.498" y="-11.498"/><use xlink:href="#B" x="-1.998" y="-9.998"/><use xlink:href="#B" x="7" y="-0.999"/><use xlink:href="#B" x="2.5" y="-5.499"/><use xlink:href="#B" x="9.999" y="2"/><use xlink:href="#D" x="-0.5" y="-1.5"/><use xlink:href="#B" x="6.5" y="-1.499"/><use xlink:href="#B" x="7.5" y="-0.499"/><use xlink:href="#B" x="5.5" y="-2.499"/><use xlink:href="#B" x="-0.498" y="-8.498"/><use xlink:href="#B" x="3.5" y="-4.499"/><use xlink:href="#B" x="12.003" y="4.001"/><use xlink:href="#B" x="10.999" y="3"/><use xlink:href="#B" x="1.5" y="-6.499"/><use xlink:href="#B" x="1.003" y="-6.998"/><use xlink:href="#B" x="6" y="-1.999"/><use xlink:href="#B" x="8.999" y="1"/><use xlink:href="#B" x="-1.498" y="-9.498"/><use xlink:href="#B" x="8.499" y="0.501"/><use xlink:href="#C" x="5.001"/><use xlink:href="#B" x="9.499" y="1.5"/><use xlink:href="#B" x="-0.498" y="-9.498"/><use xlink:href="#B" x="4" y="-4.999"/><use xlink:href="#B" x="6" y="-2.999"/><use xlink:href="#B" x="6.5" y="-2.499"/><use xlink:href="#B" x="10.999" y="2.001"/><use xlink:href="#B" x="3.5" y="-5.499"/><use xlink:href="#B" x="-1.498" y="-10.498"/><use xlink:href="#B" x="12.503" y="3.501"/><use xlink:href="#B" x="8.999" y="0.001"/><use xlink:href="#B" x="9.499" y="0.501"/><use xlink:href="#B" x="3" y="-5.999"/><use xlink:href="#B" x="2" y="-6.999"/><use xlink:href="#B" x="12.003" y="3.001"/><use xlink:href="#D" x="1" y="-1"/><use xlink:href="#D" x="2"/><path d="M25.88 40.585l.07.07.308-.047-.202-.2-.177.177z"/><use xlink:href="#B" x="4.5" y="-4.499"/><use xlink:href="#C" x="2.5" y="-3.5"/><use xlink:href="#B" x="2.5" y="-6.499"/><use xlink:href="#B" x="13.003" y="4.001"/><use xlink:href="#B" x="8" y="-0.999"/><use xlink:href="#D" x="1.5" y="-0.5"/><use xlink:href="#B" x="5.5" y="-3.499"/><use xlink:href="#B" x="10.499" y="1.501"/><path d="M7.38 21.73l-.323-.323-.06.06-.03.204.236.237.178-.177z"/><use xlink:href="#B" x="5" y="-3.999"/><use xlink:href="#B" x="8.499" y="-0.499"/><use xlink:href="#B" x="-2.498" y="-11.498"/><use xlink:href="#C" x="6.001"/><use xlink:href="#B" x="1.003" y="-7.998"/><use xlink:href="#D" x="0.5" y="-1.5"/><use xlink:href="#B" x="0.503" y="-8.498"/><use xlink:href="#D" y="-2"/><use xlink:href="#B" x="0.002" y="-8.998"/><use xlink:href="#B" x="-0.998" y="-9.998"/><use xlink:href="#B" x="7" y="-1.999"/><use xlink:href="#B" x="9.999" y="1.001"/><use xlink:href="#B" x="11.503" y="2.501"/><use xlink:href="#B" x="7.5" y="-1.499"/><use xlink:href="#D" x="3"/><use xlink:href="#B" x="2.5" y="-7.499"/><use xlink:href="#B" x="8" y="-1.999"/><use xlink:href="#B" x="12.503" y="2.501"/><use xlink:href="#D" x="2" y="-1"/><use xlink:href="#B" x="9.999" y="0.001"/><use xlink:href="#B" x="7.5" y="-2.499"/><use xlink:href="#D" x="0.5" y="-2.5"/><use xlink:href="#D" x="1" y="-2"/><use xlink:href="#B" x="-0.498" y="-10.498"/><use xlink:href="#B" x="10.499" y="0.501"/><use xlink:href="#B" x="1.503" y="-8.498"/><use xlink:href="#B" x="12.003" y="2.001"/><use xlink:href="#B" x="1.002" y="-8.998"/><use xlink:href="#B" x="0.502" y="-9.498"/><use xlink:href="#B" x="7" y="-2.999"/><use xlink:href="#B" x="2.002" y="-7.998"/><use xlink:href="#B" x="14.003" y="4.001"/><path d="M26.962 40.502l.163-.025-.07-.068-.094.093z"/><use xlink:href="#B" x="8.999" y="-0.999"/><use xlink:href="#B" x="3" y="-6.999"/><use xlink:href="#B" x="13.503" y="3.501"/><use xlink:href="#B" x="3.5" y="-6.499"/><use xlink:href="#B" x="4.5" y="-5.499"/><use xlink:href="#D" x="2.5" y="-0.5"/><use xlink:href="#B" x="4" y="-5.999"/><use xlink:href="#D" y="-3"/><use xlink:href="#B" x="6" y="-3.999"/><use xlink:href="#B" x="5.5" y="-4.499"/><use xlink:href="#B" x="5" y="-4.999"/><use xlink:href="#B" x="0.002" y="-9.998"/><use xlink:href="#C" x="3.5" y="-3.5"/><use xlink:href="#C" x="16.001" y="8.999"/><use xlink:href="#D" x="1.5" y="-1.5"/><use xlink:href="#B" x="9.499" y="-0.499"/><use xlink:href="#B" x="6.5" y="-3.499"/><use xlink:href="#B" x="-1.498" y="-11.498"/><path d="M7.38 20.73l-.234-.234-.047.307.104.104.177-.177z"/><use xlink:href="#B" x="8.5" y="-1.499"/><use xlink:href="#B" x="10.999" y="1.001"/><use xlink:href="#B" x="13.003" y="3.001"/><use xlink:href="#B" x="4" y="-6.999"/><use xlink:href="#D" y="-4"/><use xlink:href="#B" x="12.003" y="1.001"/><use xlink:href="#D" x="4"/><use xlink:href="#B" x="9.999" y="-0.999"/><use xlink:href="#B" x="4.5" y="-6.499"/><use xlink:href="#B" x="-0.498" y="-11.498"/><path d="M7.34 19.692l-.027.104.066-.066-.04-.038z"/><use xlink:href="#B" x="5" y="-5.999"/><use xlink:href="#B" x="9.499" y="-1.499"/><use xlink:href="#D" x="2.5" y="-1.5"/><use xlink:href="#B" x="5.5" y="-5.499"/><use xlink:href="#B" x="10.499" y="-0.499"/><path d="M27.556 39.908l-.177.177.27.27.145-.037.087-.087-.324-.323z"/><use xlink:href="#B" x="10.999" y="0.001"/><use xlink:href="#B" x="3" y="-7.999"/><use xlink:href="#B" x="2.002" y="-8.998"/><use xlink:href="#B" x="11.503" y="0.501"/><use xlink:href="#B" x="1.002" y="-9.999"/><use xlink:href="#D" x="2" y="-2"/><use xlink:href="#B" x="2.502" y="-8.498"/><use xlink:href="#D" x="3" y="-1"/><use xlink:href="#D" x="0.5" y="-3.5"/><use xlink:href="#B" x="1.502" y="-9.499"/><use xlink:href="#D" x="1" y="-3"/><use xlink:href="#B" x="3.5" y="-7.499"/><use xlink:href="#C" x="17.001" y="8.999"/><use xlink:href="#B" x="8" y="-2.999"/><use xlink:href="#B" x="6" y="-4.999"/><use xlink:href="#B" x="7" y="-3.999"/><use xlink:href="#B" x="0.502" y="-10.499"/><use xlink:href="#B" x="8.999" y="-1.999"/><use xlink:href="#C" x="4.5" y="-3.5"/><use xlink:href="#D" x="1.5" y="-2.5"/><use xlink:href="#B" x="13.503" y="2.501"/><use xlink:href="#D" x="3.5" y="-0.5"/><use xlink:href="#B" x="14.003" y="3.001"/><use xlink:href="#B" x="6.5" y="-4.499"/><use xlink:href="#B" x="13.003" y="2.001"/><use xlink:href="#B" x="7.5" y="-3.499"/><use xlink:href="#B" x="14.503" y="3.501"/><use xlink:href="#B" x="8.5" y="-2.499"/><use xlink:href="#B" x="13.003" y="1.001"/><use xlink:href="#B" x="14.003" y="2.001"/><use xlink:href="#D" x="4" y="-1"/><use xlink:href="#B" x="8" y="-3.999"/><use xlink:href="#B" x="7.5" y="-4.499"/><use xlink:href="#B" x="8.5" y="-3.499"/><use xlink:href="#B" x="9" y="-2.999"/><use xlink:href="#D" x="2" y="-3"/><use xlink:href="#B" x="0.502" y="-11.499"/><use xlink:href="#C" x="18.001" y="8.999"/><use xlink:href="#B" x="2.002" y="-9.998"/><use xlink:href="#D" x="3.5" y="-1.5"/><use xlink:href="#D" x="1" y="-4"/><use xlink:href="#B" x="4" y="-7.999"/><use xlink:href="#B" x="7" y="-4.999"/><use xlink:href="#B" x="4.5" y="-7.499"/><use xlink:href="#D" x="1.5" y="-3.5"/><use xlink:href="#D" x="3" y="-2"/><use xlink:href="#B" x="5" y="-6.999"/><use xlink:href="#B" x="2.502" y="-9.498"/><use xlink:href="#B" x="3.002" y="-8.998"/><use xlink:href="#B" x="1.502" y="-10.499"/><use xlink:href="#B" x="15.003" y="3.001"/><use xlink:href="#C" x="5.5" y="-3.501"/><use xlink:href="#B" x="6.5" y="-5.499"/><use xlink:href="#D" x="0.5" y="-4.5"/><use xlink:href="#B" x="6" y="-5.999"/><use xlink:href="#B" x="14.503" y="2.501"/><use xlink:href="#B" x="15.503" y="3.501"/><path d="M28.38 40.085l.064.065.282-.073-.17-.17-.176.177z"/><use xlink:href="#B" x="5.5" y="-6.499"/><path d="M7.88 19.23l-.323-.323-.02.02-.065.25.23.23.177-.177z"/><use xlink:href="#B" x="3.5" y="-8.499"/><use xlink:href="#B" x="9.499" y="-2.499"/><use xlink:href="#D" x="4.5" y="-0.5"/><use xlink:href="#B" x="12.503" y="0.501"/><use xlink:href="#D" x="5"/><use xlink:href="#B" x="10.499" y="-1.499"/><use xlink:href="#D" x="2.5" y="-2.5"/><use xlink:href="#B" x="11.503" y="-0.499"/><use xlink:href="#B" x="10.999" y="-0.999"/><use xlink:href="#B" x="12.003" y="0.001"/><use xlink:href="#B" x="9.999" y="-1.999"/><use xlink:href="#D" x="1.5" y="-4.5"/><use xlink:href="#B" x="11.503" y="-1.499"/><use xlink:href="#B" x="4.5" y="-8.499"/><use xlink:href="#B" x="12.003" y="-0.999"/><use xlink:href="#B" x="3.002" y="-9.998"/><use xlink:href="#D" x="3.5" y="-2.5"/><use xlink:href="#D" x="2" y="-4"/><use xlink:href="#B" x="12.503" y="-0.499"/><use xlink:href="#B" x="2.502" y="-10.498"/><use xlink:href="#D" x="3" y="-3"/><use xlink:href="#B" x="4" y="-8.999"/><use xlink:href="#C" x="8" y="-2"/><use xlink:href="#D" x="4" y="-2"/><use xlink:href="#C" x="6.5" y="-3.5"/><path d="M7.802 18.153l-.1.245.167-.167-.077-.078z"/><use xlink:href="#B" x="7" y="-5.999"/><use xlink:href="#B" x="1.502" y="-11.499"/><use xlink:href="#B" x="8" y="-4.999"/><use xlink:href="#B" x="7.5" y="-5.499"/><use xlink:href="#D" x="2.5" y="-3.5"/><use xlink:href="#B" x="15.003" y="2.001"/><use xlink:href="#D" x="5" y="-1"/><use xlink:href="#B" x="6.5" y="-6.499"/><use xlink:href="#B" x="15.503" y="2.501"/><use xlink:href="#B" x="10.999" y="-1.999"/><use xlink:href="#C" x="19.001" y="8.999"/><use xlink:href="#B" x="9" y="-3.999"/><use xlink:href="#D" x="6"/><use xlink:href="#B" x="10.499" y="-2.499"/><use xlink:href="#B" x="9.999" y="-2.999"/><use xlink:href="#B" x="9.5" y="-3.499"/><use xlink:href="#D" x="0.5" y="-5.5"/><use xlink:href="#D" x="4.5" y="-1.5"/><use xlink:href="#B" x="14.003" y="1.001"/><use xlink:href="#B" x="8.5" y="-4.499"/><use xlink:href="#B" x="16.503" y="3.501"/><use xlink:href="#B" x="5.5" y="-7.499"/><use xlink:href="#B" x="6" y="-6.999"/><use xlink:href="#B" x="13.503" y="0.501"/><use xlink:href="#D" x="1" y="-5"/><use xlink:href="#D" x="5.5" y="-0.5"/><use xlink:href="#B" x="5" y="-7.999"/><use xlink:href="#B" x="16.003" y="3.001"/><use xlink:href="#B" x="13.003" y="0.001"/><use xlink:href="#B" x="17.003" y="3.001"/><use xlink:href="#B" x="5" y="-8.999"/><use xlink:href="#B" x="16.003" y="2.001"/><use xlink:href="#B" x="16.503" y="2.501"/><use xlink:href="#C" x="8" y="-3"/><use xlink:href="#B" x="4.002" y="-9.998"/><use xlink:href="#D" x="2.5" y="-4.499"/><use xlink:href="#E"/><use xlink:href="#D" x="6.5" y="-0.5"/><use xlink:href="#D" x="6" y="-1"/><use xlink:href="#D" x="3.5" y="-3.5"/><use xlink:href="#C" x="7.5" y="-3.5"/><use xlink:href="#D" x="3" y="-3.999"/><use xlink:href="#D" x="2" y="-4.999"/><path d="M29.88 39.585l.063.063.26-.095-.145-.145-.177.177z"/><use xlink:href="#D" x="5.5" y="-1.5"/><use xlink:href="#D" x="7.002"/><use xlink:href="#B" x="8.5" y="-5.499"/><use xlink:href="#B" x="8" y="-5.999"/><use xlink:href="#B" x="10" y="-3.999"/><use xlink:href="#B" x="9.5" y="-4.499"/><use xlink:href="#B" x="9" y="-4.999"/><use xlink:href="#B" x="13.503" y="-0.499"/><use xlink:href="#B" x="13.003" y="-0.999"/><use xlink:href="#B" x="11.503" y="-2.499"/><use xlink:href="#C" x="16.501" y="5.499"/><use xlink:href="#B" x="10.499" y="-3.499"/><use xlink:href="#B" x="10.999" y="-2.999"/><use xlink:href="#B" x="12.503" y="-1.499"/><use xlink:href="#D" x="1.5" y="-5.499"/><use xlink:href="#B" x="15.003" y="1.001"/><use xlink:href="#C" x="20.001" y="8.999"/><use xlink:href="#B" x="6.5" y="-7.499"/><use xlink:href="#B" x="6" y="-7.999"/><use xlink:href="#B" x="5.5" y="-8.499"/><use xlink:href="#B" x="7" y="-6.999"/><use xlink:href="#B" x="14.003" y="0.001"/><use xlink:href="#D" x="1" y="-5.999"/><path d="M8.38 17.73l-.3-.3-.095.26.228.228.177-.177z"/><use xlink:href="#B" x="7.5" y="-6.499"/><use xlink:href="#B" x="14.503" y="0.501"/><use xlink:href="#B" x="4.5" y="-9.499"/><use xlink:href="#D" x="5" y="-2"/><use xlink:href="#D" x="4" y="-3"/><use xlink:href="#D" x="4.5" y="-2.5"/><use xlink:href="#B" x="6" y="-8.999"/><use xlink:href="#B" x="17.003" y="2.001"/><use xlink:href="#B" x="6.5" y="-8.499"/><use xlink:href="#B" x="16.003" y="1.001"/><use xlink:href="#B" x="7" y="-7.999"/><use xlink:href="#D" x="2" y="-5.999"/><use xlink:href="#C" x="8.5" y="-3.5"/><use xlink:href="#B" x="15.003" y="0.001"/><use xlink:href="#B" x="15.503" y="0.501"/><use xlink:href="#B" x="4.502" y="-10.498"/><use xlink:href="#B" x="5" y="-9.999"/><use xlink:href="#B" x="12.503" y="-2.499"/><use xlink:href="#D" x="5" y="-2.999"/><use xlink:href="#D" x="2.5" y="-5.499"/><use xlink:href="#B" x="5.5" y="-9.499"/><use xlink:href="#D" x="3" y="-4.999"/><use xlink:href="#B" x="8.5" y="-6.499"/><use xlink:href="#B" x="10.5" y="-4.499"/><use xlink:href="#D" x="4.5" y="-3.499"/><use xlink:href="#B" x="14.003" y="-0.999"/><use xlink:href="#B" x="9.5" y="-5.499"/><use xlink:href="#C" x="21.001" y="8.999"/><path d="M30.556 38.908l-.177.177.274.275.185-.09.04-.04-.323-.322z"/><use xlink:href="#B" x="10.999" y="-3.999"/><use xlink:href="#C" x="17.501" y="5.499"/><use xlink:href="#B" x="9" y="-5.999"/><use xlink:href="#B" x="13.503" y="-1.499"/><use xlink:href="#B" x="8" y="-6.999"/><use xlink:href="#B" x="17.503" y="2.501"/><use xlink:href="#B" x="7.5" y="-7.499"/><use xlink:href="#C" x="16.501" y="4.499"/><use xlink:href="#D" x="1.5" y="-6.499"/><use xlink:href="#D" x="5.5" y="-2.499"/><path d="M8.377 16.73l-.003.008.005-.006z"/><use xlink:href="#B" x="14.503" y="-0.499"/><use xlink:href="#B" x="11.503" y="-3.499"/><use xlink:href="#D" x="1" y="-6.999"/><use xlink:href="#B" x="10" y="-4.999"/><use xlink:href="#D" x="3.5" y="-4.499"/><use xlink:href="#D" x="7.502" y="-0.5"/><use xlink:href="#D" x="7.002" y="-1"/><use xlink:href="#D" x="4" y="-3.999"/><use xlink:href="#D" x="6.5" y="-1.5"/><use xlink:href="#E" x="1"/><use xlink:href="#D" x="6" y="-1.999"/><use xlink:href="#D" x="8.002"/><use xlink:href="#D" x="2" y="-6.999"/><use xlink:href="#D" x="1.5" y="-7.499"/><use xlink:href="#B" x="8.5" y="-7.499"/><use xlink:href="#B" x="5.5" y="-10.499"/><use xlink:href="#C" x="17.501" y="4.499"/><use xlink:href="#B" x="12.503" y="-3.499"/><use xlink:href="#B" x="10" y="-5.999"/><use xlink:href="#B" x="13.503" y="-2.499"/><use xlink:href="#D" x="2.5" y="-6.499"/><use xlink:href="#B" x="16.503" y="0.501"/><use xlink:href="#D" x="5" y="-3.999"/><use xlink:href="#B" x="8" y="-7.999"/><use xlink:href="#B" x="9" y="-6.999"/><use xlink:href="#D" x="3.5" y="-5.499"/><use xlink:href="#B" x="16.003" y="0.001"/><use xlink:href="#D" x="6" y="-2.999"/><use xlink:href="#D" x="8.502" y="-0.5"/><use xlink:href="#D" x="7.002" y="-2"/><path d="M31.522 38.94l.047-.02-.013-.012-.034.033z"/><use xlink:href="#B" x="15.503" y="-0.499"/><use xlink:href="#C" x="9.5" y="-3.501"/><use xlink:href="#F"/><use xlink:href="#B" x="7.5" y="-8.499"/><use xlink:href="#D" x="5.5" y="-3.499"/><use xlink:href="#C" x="18.501" y="5.499"/><use xlink:href="#B" x="11.503" y="-4.499"/><use xlink:href="#B" x="14.503" y="-1.499"/><use xlink:href="#D" x="7.502" y="-1.5"/><use xlink:href="#B" x="15.003" y="-0.999"/><use xlink:href="#B" x="18.003" y="2.001"/><use xlink:href="#D" x="4.5" y="-4.499"/><use xlink:href="#C" x="22.001" y="8.999"/><use xlink:href="#E" x="2"/><use xlink:href="#B" x="6" y="-9.999"/><use xlink:href="#D" x="6.5" y="-2.499"/><use xlink:href="#D" x="4" y="-4.999"/><use xlink:href="#B" x="10.999" y="-4.999"/><use xlink:href="#D" x="9.002"/><use xlink:href="#B" x="17.003" y="1.001"/><use xlink:href="#B" x="6.5" y="-9.499"/><use xlink:href="#B" x="9.5" y="-6.499"/><use xlink:href="#B" x="12.003" y="-3.999"/><use xlink:href="#B" x="10.5" y="-5.499"/><use xlink:href="#D" x="8.002" y="-1"/><use xlink:href="#D" x="3" y="-5.999"/><path d="M8.88 16.23l-.177-.177-.115.24.115.115.177-.177z"/><use xlink:href="#B" x="7" y="-8.999"/><use xlink:href="#B" x="11" y="-5.999"/><use xlink:href="#D" x="10.002"/><use xlink:href="#B" x="12.503" y="-4.499"/><use xlink:href="#B" x="7.5" y="-9.499"/><use xlink:href="#D" x="4.5" y="-5.499"/><use xlink:href="#D" x="7.002" y="-3"/><use xlink:href="#B" x="11.503" y="-5.499"/><path d="M9.38 15.73l-.323-.323-.01.01-.125.206.283.283.176-.177z"/><use xlink:href="#D" x="9.502" y="-0.5"/><use xlink:href="#B" x="12.003" y="-4.999"/><use xlink:href="#B" x="7" y="-9.999"/><use xlink:href="#D" x="5" y="-4.999"/><use xlink:href="#B" x="18.003" y="1.001"/><use xlink:href="#F" y="-1"/><use xlink:href="#D" x="8.502" y="-1.5"/><use xlink:href="#D" x="3.5" y="-6.499"/><use xlink:href="#B" x="10" y="-6.999"/><use xlink:href="#B" x="15.503" y="-1.499"/><use xlink:href="#B" x="17.503" y="0.501"/><use xlink:href="#D" x="8.002" y="-2"/><use xlink:href="#B" x="6.5" y="-10.499"/><use xlink:href="#B" x="6" y="-10.999"/><use xlink:href="#C" x="19.501" y="5.499"/><use xlink:href="#D" x="7.502" y="-2.5"/><use xlink:href="#D" x="5.5" y="-4.499"/><use xlink:href="#B" x="13.503" y="-3.499"/><use xlink:href="#B" x="9" y="-7.999"/><use xlink:href="#F" x="0.5" y="-0.5"/><use xlink:href="#B" x="10.5" y="-6.499"/><use xlink:href="#D" x="2" y="-7.999"/><use xlink:href="#D" x="4" y="-5.999"/><use xlink:href="#D" x="6.5" y="-3.499"/><use xlink:href="#B" x="16.003" y="-0.999"/><use xlink:href="#E" x="3"/><use xlink:href="#D" x="9.002" y="-1"/><use xlink:href="#B" x="8" y="-8.999"/><path d="M31.88 38.586l.117.117.22-.135-.16-.16-.177.178z"/><use xlink:href="#D" x="3" y="-6.999"/><use xlink:href="#B" x="13.003" y="-3.999"/><use xlink:href="#B" x="9.5" y="-7.499"/><use xlink:href="#B" x="8.5" y="-8.499"/><use xlink:href="#B" x="14.503" y="-2.499"/><use xlink:href="#C" x="18.501" y="4.499"/><use xlink:href="#D" x="2.5" y="-7.499"/><use xlink:href="#B" x="16.503" y="-0.499"/><use xlink:href="#B" x="17.003" y="0.001"/><use xlink:href="#D" x="6" y="-3.999"/><use xlink:href="#F" y="-2"/><use xlink:href="#B" x="13.003" y="-4.999"/><use xlink:href="#B" x="18.003" y="0.001"/><use xlink:href="#D" x="8.502" y="-2.5"/><use xlink:href="#B" x="17.003" y="-0.999"/><use xlink:href="#B" x="17.503" y="-0.499"/><use xlink:href="#B" x="12.503" y="-5.499"/><path d="M32.38 38.086l.24.24.22-.134-.283-.283-.177.178z"/><use xlink:href="#C" x="19.501" y="4.499"/><use xlink:href="#D" x="5.5" y="-5.499"/><use xlink:href="#B" x="15.503" y="-2.499"/><use xlink:href="#D" x="6.5" y="-4.499"/><use xlink:href="#F" x="1" y="-1"/><use xlink:href="#D" x="6" y="-4.999"/><use xlink:href="#D" x="9.002" y="-2"/><use xlink:href="#F" x="0.5" y="-1.5"/><use xlink:href="#B" x="16.503" y="-1.499"/><use xlink:href="#B" x="14.003" y="-3.999"/><use xlink:href="#C" x="20.501" y="5.499"/><use xlink:href="#B" x="14.503" y="-3.499"/><use xlink:href="#B" x="13.503" y="-4.499"/><use xlink:href="#D" x="8.002" y="-3"/><use xlink:href="#D" x="4" y="-6.999"/><use xlink:href="#B" x="10" y="-7.999"/><use xlink:href="#G"/><use xlink:href="#B" x="11.503" y="-6.499"/><use xlink:href="#D" x="10.502" y="-0.5"/><use xlink:href="#B" x="11" y="-6.999"/><use xlink:href="#B" x="8.5" y="-9.499"/><use xlink:href="#B" x="12.003" y="-5.999"/><use xlink:href="#D" x="11.002"/><use xlink:href="#D" x="2" y="-8.999"/><use xlink:href="#D" x="4.5" y="-6.499"/><use xlink:href="#B" x="7.5" y="-10.499"/><use xlink:href="#D" x="10.002" y="-1"/><use xlink:href="#B" x="8" y="-9.999"/><use xlink:href="#B" x="10.5" y="-7.499"/><use xlink:href="#D" x="3.5" y="-7.499"/><use xlink:href="#D" x="9.502" y="-1.5"/><use xlink:href="#D" x="5" y="-5.999"/><use xlink:href="#D" x="7.502" y="-3.5"/><use xlink:href="#B" x="9" y="-8.999"/><use xlink:href="#B" x="7" y="-10.999"/><use xlink:href="#D" x="7.002" y="-4"/><use xlink:href="#D" x="3" y="-7.999"/><use xlink:href="#D" x="2.5" y="-8.499"/><use xlink:href="#B" x="9.5" y="-8.499"/><use xlink:href="#B" x="15.503" y="-3.499"/><use xlink:href="#B" x="17.503" y="-1.499"/><use xlink:href="#B" x="10.5" y="-8.499"/><use xlink:href="#D" x="9.002" y="-3"/><use xlink:href="#D" x="5" y="-6.999"/><use xlink:href="#C" x="20.501" y="4.499"/><use xlink:href="#F" x="0.5" y="-2.5"/><use xlink:href="#B" x="16.503" y="-2.499"/><use xlink:href="#D" x="11.502" y="-0.5"/><use xlink:href="#D" x="3.5" y="-8.499"/><use xlink:href="#C" x="16.001" y="-0.001"/><use xlink:href="#D" x="6.5" y="-5.499"/><use xlink:href="#B" x="9.5" y="-9.499"/><use xlink:href="#D" x="7.002" y="-5"/><use xlink:href="#B" x="8.5" y="-10.499"/><use xlink:href="#B" x="9" y="-9.999"/><use xlink:href="#F" x="1.5" y="-1.5"/><use xlink:href="#D" x="9.502" y="-2.5"/><use xlink:href="#B" x="13.003" y="-5.999"/><use xlink:href="#F" x="2" y="-1"/><use xlink:href="#F" y="-3"/><use xlink:href="#D" x="4" y="-7.999"/><use xlink:href="#D" x="7.502" y="-4.5"/><use xlink:href="#B" x="11" y="-7.999"/><use xlink:href="#D" x="6" y="-5.999"/><use xlink:href="#D" x="2.5" y="-9.499"/><use xlink:href="#B" x="18.003" y="-0.999"/><path d="M9.88 14.23l-.06-.058-.146.208.027.027.178-.177z"/><use xlink:href="#B" x="14.003" y="-4.999"/><use xlink:href="#B" x="13.503" y="-5.499"/><use xlink:href="#B" x="12.503" y="-6.499"/><use xlink:href="#F" x="1" y="-2"/><use xlink:href="#B" x="10" y="-8.999"/><use xlink:href="#D" x="8.502" y="-3.5"/><use xlink:href="#B" x="12.003" y="-6.999"/><use xlink:href="#C" x="21.501" y="5.499"/><use xlink:href="#B" x="7.5" y="-11.499"/><use xlink:href="#H"/><use xlink:href="#D" x="11.002" y="-1"/><use xlink:href="#D" x="4.5" y="-7.499"/><use xlink:href="#D" x="3" y="-8.999"/><use xlink:href="#D" x="8.002" y="-4"/><use xlink:href="#D" x="10.002" y="-2"/><use xlink:href="#D" x="5.5" y="-6.499"/><use xlink:href="#B" x="15.003" y="-3.999"/><use xlink:href="#B" x="8" y="-10.999"/><use xlink:href="#D" x="10.502" y="-1.5"/><use xlink:href="#B" x="14.503" y="-4.499"/><use xlink:href="#F" y="-4"/><use xlink:href="#B" x="11.503" y="-8.499"/><use xlink:href="#D" x="5" y="-7.999"/><use xlink:href="#D" x="12.002" y="-1"/><use xlink:href="#B" x="17.503" y="-2.499"/><use xlink:href="#D" x="10.002" y="-3"/><use xlink:href="#F" x="1" y="-3"/><use xlink:href="#B" x="9.5" y="-10.499"/><use xlink:href="#B" x="13.503" y="-6.499"/><use xlink:href="#F" x="0.5" y="-3.5"/><use xlink:href="#B" x="8.5" y="-11.499"/><use xlink:href="#D" x="11.002" y="-2"/><use xlink:href="#B" x="13.003" y="-6.999"/><use xlink:href="#D" x="8.002" y="-5"/><use xlink:href="#B" x="9" y="-10.999"/><use xlink:href="#F" x="2.5" y="-1.5"/><use xlink:href="#C" x="21.501" y="4.499"/><use xlink:href="#D" x="6.5" y="-6.499"/><use xlink:href="#B" x="14.503" y="-5.499"/><path d="M10.38 13.73l-.13-.13-.15.203.104.105.177-.178z"/><use xlink:href="#D" x="4.5" y="-8.499"/><use xlink:href="#F" x="2" y="-2"/><use xlink:href="#H" x="0.5" y="-0.5"/><use xlink:href="#D" x="3" y="-9.999"/><use xlink:href="#D" x="9.502" y="-3.5"/><use xlink:href="#B" x="12.003" y="-7.999"/><use xlink:href="#G" x="1.499" y="-0.499"/><use xlink:href="#C" x="17.001" y="-0.001"/><use xlink:href="#B" x="16.003" y="-3.999"/><use xlink:href="#D" x="10.502" y="-2.5"/><use xlink:href="#D" x="3.5" y="-9.499"/><use xlink:href="#B" x="11" y="-8.999"/><use xlink:href="#D" x="11.502" y="-1.5"/><use xlink:href="#B" x="15.503" y="-4.499"/><use xlink:href="#F" x="1.5" y="-2.5"/><use xlink:href="#D" x="6" y="-6.999"/><use xlink:href="#B" x="15.003" y="-4.999"/><use xlink:href="#D" x="4" y="-8.999"/><use xlink:href="#D" x="7.002" y="-6"/><use xlink:href="#B" x="10" y="-9.999"/><use xlink:href="#D" x="8.502" y="-4.5"/><use xlink:href="#B" x="16.503" y="-3.499"/><use xlink:href="#C" x="22.501" y="5.499"/><use xlink:href="#D" x="5.5" y="-7.499"/><use xlink:href="#D" x="7.502" y="-5.5"/><use xlink:href="#B" x="10.5" y="-9.499"/><use xlink:href="#B" x="14.003" y="-5.999"/><use xlink:href="#D" x="9.002" y="-4"/><use xlink:href="#F" x="1" y="-4"/><use xlink:href="#F" y="-5"/><use xlink:href="#F" x="1.5" y="-3.5"/><use xlink:href="#H" x="1" y="-1"/><use xlink:href="#D" x="6" y="-7.999"/><use xlink:href="#F" x="0.5" y="-4.5"/><use xlink:href="#D" x="8.002" y="-6"/><use xlink:href="#D" x="12.502" y="-1.5"/><use xlink:href="#D" x="12.002" y="-2"/><use xlink:href="#C" x="18.001" y="-0.001"/><use xlink:href="#F" x="3" y="-2"/><use xlink:href="#D" x="11.002" y="-3"/><use xlink:href="#B" x="12.003" y="-8.999"/><use xlink:href="#D" x="7.502" y="-6.5"/><use xlink:href="#D" x="10.002" y="-4"/><use xlink:href="#D" x="9.002" y="-5"/><use xlink:href="#D" x="9.502" y="-4.5"/><use xlink:href="#B" x="11" y="-9.999"/><use xlink:href="#D" x="3.5" y="-10.499"/><use xlink:href="#B" x="15.503" y="-5.499"/><use xlink:href="#D" x="4" y="-9.999"/><use xlink:href="#B" x="11.503" y="-9.499"/><use xlink:href="#B" x="12.503" y="-8.499"/><use xlink:href="#B" x="13.003" y="-7.999"/><use xlink:href="#D" x="8.502" y="-5.5"/><use xlink:href="#B" x="14.003" y="-6.999"/><use xlink:href="#B" x="15.003" y="-5.999"/><use xlink:href="#D" x="10.502" y="-3.5"/><use xlink:href="#G" x="1.999" y="-0.999"/><use xlink:href="#B" x="14.503" y="-6.499"/><path d="M34.38 37.086l.012.012.203-.152-.038-.037-.177.177z"/><use xlink:href="#D" x="6.5" y="-7.499"/><path d="M10.88 13.23l-.203-.202c-.054.065-.1.136-.15.202l.177.177.177-.177z"/><use xlink:href="#D" x="5.5" y="-8.499"/><use xlink:href="#D" x="5" y="-8.999"/><use xlink:href="#B" x="10" y="-10.999"/><use xlink:href="#D" x="7.002" y="-7"/><use xlink:href="#F" x="2.5" y="-2.5"/><use xlink:href="#D" x="11.502" y="-2.5"/><use xlink:href="#F" x="2" y="-3"/><use xlink:href="#G" x="2.499" y="-0.499"/><use xlink:href="#B" x="17.503" y="-3.499"/><use xlink:href="#B" x="9.5" y="-11.499"/><use xlink:href="#B" x="10.5" y="-10.499"/><use xlink:href="#D" x="4.5" y="-9.499"/><use xlink:href="#B" x="16.503" y="-4.499"/><use xlink:href="#B" x="17.003" y="-3.999"/><use xlink:href="#B" x="16.003" y="-4.999"/><use xlink:href="#C" x="22.501" y="4.499"/><use xlink:href="#B" x="12.503" y="-9.499"/><use xlink:href="#D" x="5.5" y="-9.499"/><use xlink:href="#B" x="12.003" y="-9.999"/><use xlink:href="#B" x="10.5" y="-11.499"/><use xlink:href="#H" x="1.5" y="-1.5"/><use xlink:href="#G" x="2.499" y="-1.499"/><use xlink:href="#D" x="6.5" y="-8.499"/><use xlink:href="#B" x="11.503" y="-10.499"/><use xlink:href="#D" x="4" y="-10.999"/><use xlink:href="#D" x="5" y="-9.999"/><use xlink:href="#G" x="3.499" y="-0.499"/><use xlink:href="#D" x="12.502" y="-2.5"/><use xlink:href="#D" x="13.002" y="-2"/><use xlink:href="#B" x="11" y="-10.999"/><use xlink:href="#F" x="2" y="-4"/><use xlink:href="#D" x="6" y="-8.999"/><use xlink:href="#D" x="4.5" y="-10.499"/><use xlink:href="#D" x="12.002" y="-3"/><use xlink:href="#G" x="2.999" y="-0.999"/><use xlink:href="#D" x="10.502" y="-4.5"/><use xlink:href="#D" x="9.502" y="-5.5"/><use xlink:href="#F" x="3" y="-3"/><use xlink:href="#B" x="18.003" y="-3.999"/><use xlink:href="#B" x="17.503" y="-4.499"/><use xlink:href="#B" x="17.003" y="-4.999"/><use xlink:href="#B" x="16.003" y="-5.999"/><use xlink:href="#B" x="16.503" y="-5.499"/><use xlink:href="#F" x="0.5" y="-5.5"/><use xlink:href="#B" x="13.003" y="-8.999"/><use xlink:href="#F" x="2.5" y="-3.5"/><path d="M11.38 12.73l-.23-.23-.168.186.22.22.177-.177z"/><use xlink:href="#F" x="1.5" y="-4.5"/><use xlink:href="#D" x="8.502" y="-6.5"/><use xlink:href="#D" x="10.002" y="-5"/><use xlink:href="#D" x="7.502" y="-7.5"/><use xlink:href="#F" y="-6"/><use xlink:href="#F" x="1" y="-5"/><path d="M34.88 36.586l.055.055.186-.17-.063-.063-.178.177z"/><use xlink:href="#D" x="9.002" y="-6"/><use xlink:href="#C" x="19.001" y="-0.001"/><use xlink:href="#B" x="14.003" y="-7.999"/><use xlink:href="#B" x="13.503" y="-8.499"/><use xlink:href="#D" x="7.002" y="-8"/><use xlink:href="#D" x="8.002" y="-7"/><use xlink:href="#D" x="11.502" y="-3.5"/><use xlink:href="#D" x="11.002" y="-4"/><use xlink:href="#B" x="15.503" y="-6.499"/><use xlink:href="#B" x="15.003" y="-6.999"/><use xlink:href="#F" x="3.5" y="-2.5"/><use xlink:href="#D" x="10.502" y="-5.5"/><use xlink:href="#D" x="5" y="-10.999"/><use xlink:href="#F" x="4" y="-3"/><use xlink:href="#D" x="12.502" y="-3.5"/><use xlink:href="#B" x="16.503" y="-6.499"/><use xlink:href="#F" x="3" y="-4"/><path d="M35.38 36.086l.08.078.186-.17-.088-.087-.177.178z"/><use xlink:href="#F" y="-7"/><use xlink:href="#C" x="20.001" y="-0.001"/><use xlink:href="#D" x="13.502" y="-2.5"/><use xlink:href="#B" x="15.003" y="-7.999"/><use xlink:href="#G" x="2.999" y="-1.999"/><use xlink:href="#D" x="9.002" y="-7"/><use xlink:href="#D" x="11.502" y="-4.5"/><use xlink:href="#B" x="16.003" y="-6.999"/><use xlink:href="#D" x="5.5" y="-10.499"/><use xlink:href="#D" x="4.5" y="-11.499"/><use xlink:href="#D" x="11.002" y="-5"/><use xlink:href="#D" x="9.502" y="-6.5"/><use xlink:href="#B" x="17.003" y="-5.999"/><use xlink:href="#G" x="3.999" y="-0.999"/><use xlink:href="#F" x="0.5" y="-6.5"/><use xlink:href="#B" x="18.003" y="-4.999"/><use xlink:href="#F" x="1" y="-6"/><use xlink:href="#F" x="2.5" y="-4.5"/><use xlink:href="#B" x="17.503" y="-5.499"/><use xlink:href="#D" x="10.002" y="-6"/><use xlink:href="#G" x="3.499" y="-1.499"/><use xlink:href="#F" x="1.5" y="-5.5"/><use xlink:href="#F" x="2" y="-5"/><use xlink:href="#D" x="13.002" y="-3"/><use xlink:href="#F" x="3.5" y="-3.5"/><use xlink:href="#D" x="8.502" y="-7.5"/><use xlink:href="#B" x="12.503" y="-10.499"/><use xlink:href="#C" x="16.501" y="-3.501"/><use xlink:href="#B" x="11.503" y="-11.499"/><use xlink:href="#B" x="14.003" y="-8.999"/><use xlink:href="#D" x="7.002" y="-9"/><use xlink:href="#B" x="13.503" y="-9.499"/><use xlink:href="#B" x="13.003" y="-9.999"/><path d="M11.88 12.23l-.253-.252-.168.186.244.244.177-.178z"/><use xlink:href="#H" x="2" y="-2"/><use xlink:href="#D" x="8.002" y="-8"/><use xlink:href="#G" x="4.499" y="-0.499"/><use xlink:href="#D" x="7.502" y="-8.5"/><use xlink:href="#B" x="14.503" y="-8.499"/><use xlink:href="#D" x="6" y="-9.999"/><use xlink:href="#D" x="12.002" y="-4"/><use xlink:href="#D" x="6.5" y="-9.499"/><use xlink:href="#B" x="12.503" y="-11.499"/><use xlink:href="#D" x="9.002" y="-8"/><use xlink:href="#D" x="16.499" y="-0.499"/><use xlink:href="#D" x="10.002" y="-7"/><use xlink:href="#H" x="2.5" y="-2.5"/><use xlink:href="#D" x="9.502" y="-7.5"/><use xlink:href="#C" x="16.501" y="-4.501"/><use xlink:href="#D" x="11.002" y="-6"/><use xlink:href="#G" x="3.999" y="-1.999"/><use xlink:href="#G" x="3.499" y="-2.499"/><use xlink:href="#D" x="10.502" y="-6.5"/><use xlink:href="#G" x="4.499" y="-1.499"/><use xlink:href="#F" y="-8"/><use xlink:href="#D" x="11.502" y="-5.5"/><use xlink:href="#F" x="1.5" y="-6.5"/><use xlink:href="#F" x="2" y="-6"/><use xlink:href="#F" x="2.5" y="-5.5"/><use xlink:href="#F" x="0.5" y="-7.5"/><use xlink:href="#D" x="5" y="-11.999"/><use xlink:href="#D" x="13.502" y="-3.5"/><use xlink:href="#F" x="1" y="-7"/><use xlink:href="#D" x="14.002" y="-3"/><use xlink:href="#F" x="4.5" y="-3.5"/><use xlink:href="#D" x="12.502" y="-4.5"/><path d="M35.88 35.586l.09.088.17-.186-.08-.08-.177.178z"/><use xlink:href="#B" x="18.003" y="-5.999"/><path d="M12.38 11.73l-.246-.246-.186.17.254.254.178-.177z"/><use xlink:href="#F" x="3" y="-5"/><use xlink:href="#C" x="17.501" y="-3.501"/><use xlink:href="#F" x="3.5" y="-4.5"/><use xlink:href="#D" x="13.002" y="-4"/><use xlink:href="#F" x="4" y="-4"/><use xlink:href="#D" x="12.002" y="-5"/><use xlink:href="#B" x="15.003" y="-8.999"/><use xlink:href="#B" x="17.503" y="-6.499"/><use xlink:href="#D" x="7.502" y="-9.5"/><use xlink:href="#D" x="7.002" y="-10"/><use xlink:href="#D" x="8.002" y="-9"/><use xlink:href="#D" x="8.502" y="-8.5"/><use xlink:href="#B" x="14.003" y="-9.999"/><use xlink:href="#B" x="13.503" y="-10.499"/><use xlink:href="#B" x="14.503" y="-9.499"/><use xlink:href="#D" x="6" y="-10.999"/><use xlink:href="#B" x="17.003" y="-6.999"/><use xlink:href="#D" x="5.5" y="-11.499"/><use xlink:href="#B" x="16.003" y="-7.999"/><use xlink:href="#B" x="15.503" y="-8.499"/><use xlink:href="#D" x="6.5" y="-10.499"/><use xlink:href="#C" x="21.001" y="-0.001"/><use xlink:href="#F" x="2" y="-7"/><use xlink:href="#D" x="13.002" y="-5"/><use xlink:href="#F" x="2.5" y="-6.5"/><use xlink:href="#F" x="3" y="-6"/><path d="M36.38 35.086l.064.064.17-.186-.057-.057-.176.18z"/><use xlink:href="#F" x="4" y="-5"/><use xlink:href="#F" x="4.5" y="-4.5"/><use xlink:href="#F" x="5" y="-4"/><use xlink:href="#F" x="3.5" y="-5.5"/><path d="M12.88 11.23l-.222-.222-.186.168.23.23.178-.176z"/><use xlink:href="#F" x="1.5" y="-7.5"/><use xlink:href="#C" x="18.501" y="-3.501"/><use xlink:href="#B" x="12.003" y="-12.999"/><use xlink:href="#D" x="16.499" y="-1.499"/><use xlink:href="#B" x="12.503" y="-12.499"/><use xlink:href="#G" x="4.499" y="-2.499"/><use xlink:href="#D" x="9.502" y="-8.5"/><use xlink:href="#D" x="10.002" y="-8"/><use xlink:href="#B" x="13.503" y="-11.499"/><use xlink:href="#C" x="17.501" y="-4.501"/><use xlink:href="#D" x="10.502" y="-7.5"/><use xlink:href="#D" x="12.502" y="-5.5"/><use xlink:href="#D" x="5.5" y="-12.499"/><use xlink:href="#D" x="13.502" y="-4.5"/><use xlink:href="#D" x="11.502" y="-6.5"/><use xlink:href="#D" x="14.502" y="-3.5"/><use xlink:href="#G" x="3.999" y="-2.999"/><use xlink:href="#H" x="3" y="-3"/><use xlink:href="#D" x="12.002" y="-6"/><use xlink:href="#D" x="14.002" y="-4"/><use xlink:href="#B" x="16.503" y="-8.499"/><use xlink:href="#D" x="6.5" y="-11.499"/><use xlink:href="#B" x="18.003" y="-6.999"/><use xlink:href="#B" x="17.003" y="-7.999"/><use xlink:href="#C" x="22.001" y="-0.001"/><use xlink:href="#F" x="0.5" y="-8.5"/><use xlink:href="#B" x="14.503" y="-10.499"/><use xlink:href="#D" x="6" y="-11.999"/><use xlink:href="#F" y="-9"/><use xlink:href="#F" x="1" y="-8"/><use xlink:href="#B" x="15.003" y="-9.999"/><use xlink:href="#D" x="8.502" y="-9.5"/><use xlink:href="#D" x="8.002" y="-10"/><use xlink:href="#D" x="9.002" y="-9"/><use xlink:href="#B" x="16.003" y="-8.999"/><use xlink:href="#D" x="7.002" y="-11"/><use xlink:href="#B" x="15.503" y="-9.499"/><use xlink:href="#D" x="7.502" y="-10.5"/><use xlink:href="#D" x="11.002" y="-7"/><use xlink:href="#D" x="7.502" y="-11.5"/><use xlink:href="#D" x="12.502" y="-6.5"/><use xlink:href="#B" x="16.503" y="-9.499"/><use xlink:href="#F" x="1" y="-9"/><use xlink:href="#B" x="12.003" y="-13.999"/><use xlink:href="#B" x="17.503" y="-8.499"/><use xlink:href="#D" x="10.002" y="-9"/><use xlink:href="#D" x="12.002" y="-7"/><use xlink:href="#D" x="10.502" y="-8.5"/><use xlink:href="#F" y="-10"/><use xlink:href="#D" x="9.502" y="-9.5"/><use xlink:href="#F" x="0.5" y="-9.5"/><use xlink:href="#D" x="16.499" y="-2.499"/><use xlink:href="#B" x="18.003" y="-7.999"/><use xlink:href="#D" x="11.502" y="-7.5"/><use xlink:href="#D" x="11.002" y="-8"/><use xlink:href="#B" x="16.003" y="-9.999"/><use xlink:href="#D" x="14.502" y="-4.5"/><use xlink:href="#D" x="8.002" y="-11"/><use xlink:href="#B" x="13.003" y="-12.999"/><use xlink:href="#B" x="14.503" y="-11.499"/><use xlink:href="#D" x="14.002" y="-5"/><use xlink:href="#D" x="6" y="-12.999"/><use xlink:href="#H" x="3.5" y="-3.5"/><use xlink:href="#B" x="13.503" y="-12.499"/><use xlink:href="#C" x="18.501" y="-4.501"/><use xlink:href="#D" x="8.502" y="-10.5"/><use xlink:href="#D" x="13.502" y="-5.5"/><use xlink:href="#D" x="7.002" y="-12"/><use xlink:href="#D" x="6.5" y="-12.499"/><use xlink:href="#D" x="13.002" y="-6"/><use xlink:href="#C" x="19.501" y="-3.501"/><use xlink:href="#G" x="4.499" y="-3.499"/><use xlink:href="#D" x="9.002" y="-10"/><use xlink:href="#D" x="15.002" y="-4"/><use xlink:href="#B" x="12.503" y="-13.499"/><use xlink:href="#B" x="15.503" y="-10.499"/><use xlink:href="#B" x="17.003" y="-8.999"/><path d="M13.38 10.73l-.18-.18-.202.152.206.207.177-.178z"/><use xlink:href="#F" x="2" y="-8"/><use xlink:href="#F" x="4.5" y="-5.5"/><use xlink:href="#F" x="5.5" y="-4.5"/><use xlink:href="#F" x="2.5" y="-7.5"/><use xlink:href="#F" x="1.5" y="-8.5"/><use xlink:href="#F" x="5" y="-5"/><use xlink:href="#F" x="3.5" y="-6.5"/><path d="M36.88 34.586l.04.04.152-.203-.017-.016-.176.178z"/><use xlink:href="#F" x="3" y="-7"/><use xlink:href="#F" x="4" y="-6"/><use xlink:href="#F" x="5" y="-6"/><use xlink:href="#H" x="4" y="-4"/><use xlink:href="#F" x="5.5" y="-5.5"/><use xlink:href="#B" x="16.503" y="-10.499"/><use xlink:href="#B" x="17.003" y="-9.999"/><use xlink:href="#F" x="3.5" y="-7.5"/><use xlink:href="#F" x="0.5" y="-10.5"/><path d="M13.88 10.23l-.11-.11-.202.15.134.135.177-.177z"/><use xlink:href="#D" x="16.499" y="-3.499"/><use xlink:href="#B" x="14.003" y="-12.999"/><use xlink:href="#D" x="12.502" y="-7.5"/><use xlink:href="#F" x="2.5" y="-8.5"/><use xlink:href="#D" x="10.502" y="-9.5"/><use xlink:href="#D" x="6.5" y="-13.499"/><use xlink:href="#D" x="7.502" y="-12.5"/><use xlink:href="#B" x="18.003" y="-8.999"/><use xlink:href="#D" x="11.002" y="-9"/><use xlink:href="#B" x="12.003" y="-14.999"/><use xlink:href="#D" x="8.002" y="-12"/><use xlink:href="#C" x="17.001" y="-7.001"/><use xlink:href="#D" x="11.502" y="-8.5"/><use xlink:href="#B" x="13.503" y="-13.499"/><use xlink:href="#D" x="7.002" y="-13"/><use xlink:href="#B" x="17.503" y="-9.499"/><use xlink:href="#D" x="12.002" y="-8"/><use xlink:href="#D" x="10.002" y="-10"/><use xlink:href="#F" y="-11"/><use xlink:href="#F" x="6" y="-5"/><use xlink:href="#C" x="17.501" y="-6.501"/><use xlink:href="#F" x="3" y="-8"/><use xlink:href="#F" x="1" y="-10"/><use xlink:href="#D" x="13.002" y="-7"/><use xlink:href="#F" x="1.5" y="-9.5"/><use xlink:href="#D" x="15.002" y="-5"/><use xlink:href="#D" x="9.502" y="-10.5"/><use xlink:href="#D" x="8.502" y="-11.5"/><use xlink:href="#C" x="20.501" y="-3.501"/><use xlink:href="#F" x="4.5" y="-6.5"/><use xlink:href="#F" x="4" y="-7"/><use xlink:href="#D" x="9.002" y="-11"/><use xlink:href="#C" x="19.501" y="-4.501"/><use xlink:href="#D" x="14.502" y="-5.5"/><use xlink:href="#B" x="15.503" y="-11.499"/><use xlink:href="#D" x="13.502" y="-6.5"/><use xlink:href="#F" x="2" y="-9"/><use xlink:href="#D" x="15.502" y="-4.5"/><use xlink:href="#B" x="14.503" y="-12.499"/><use xlink:href="#D" x="14.002" y="-6"/><use xlink:href="#D" x="13.502" y="-7.5"/><use xlink:href="#F" x="1.5" y="-10.5"/><use xlink:href="#D" x="14.502" y="-6.5"/><use xlink:href="#D" x="15.502" y="-5.5"/><use xlink:href="#B" x="16.503" y="-11.499"/><use xlink:href="#D" x="14.002" y="-7"/><use xlink:href="#F" x="2" y="-10"/><use xlink:href="#F" x="4.5" y="-7.5"/><use xlink:href="#F" x="5" y="-7"/><use xlink:href="#B" x="15.503" y="-12.499"/><use xlink:href="#D" x="15.002" y="-6"/><use xlink:href="#D" x="9.502" y="-11.5"/><use xlink:href="#F" x="2.5" y="-9.5"/><use xlink:href="#C" x="20.501" y="-4.501"/><use xlink:href="#D" x="10.002" y="-11"/><use xlink:href="#D" x="10.502" y="-10.5"/><use xlink:href="#B" x="17.503" y="-10.499"/><use xlink:href="#C" x="18.501" y="-6.501"/><use xlink:href="#D" x="12.502" y="-8.5"/><use xlink:href="#D" x="7.502" y="-13.5"/><use xlink:href="#F" x="6" y="-6"/><use xlink:href="#F" y="-12"/><use xlink:href="#D" x="13.002" y="-8"/><use xlink:href="#B" x="18.003" y="-9.999"/><use xlink:href="#D" x="7.002" y="-14"/><use xlink:href="#F" x="6.5" y="-5.5"/><use xlink:href="#F" x="3.5" y="-8.5"/><use xlink:href="#F" x="3" y="-9"/><use xlink:href="#B" x="12.503" y="-15.499"/><use xlink:href="#B" x="13.003" y="-14.999"/><use xlink:href="#D" x="11.502" y="-9.5"/><use xlink:href="#F" x="0.5" y="-11.5"/><use xlink:href="#D" x="8.502" y="-12.5"/><use xlink:href="#D" x="8.002" y="-13"/><use xlink:href="#C" x="18.001" y="-7.001"/><use xlink:href="#D" x="12.002" y="-9"/><use xlink:href="#D" x="11.002" y="-10"/><use xlink:href="#D" x="16.502" y="-4.5"/><use xlink:href="#F" x="1" y="-11"/><use xlink:href="#D" x="9.002" y="-12"/><use xlink:href="#F" x="5.5" y="-6.5"/><use xlink:href="#B" x="15.003" y="-12.999"/><use xlink:href="#D" x="16.002" y="-5"/><use xlink:href="#B" x="14.503" y="-13.499"/><path d="M14.38 9.73l-.034-.034-.205.148.062.063.177-.177z"/><use xlink:href="#B" x="12.003" y="-15.999"/><use xlink:href="#C" x="21.501" y="-3.501"/><use xlink:href="#F" x="4" y="-8"/><use xlink:href="#D" x="9.502" y="-12.5"/><use xlink:href="#B" x="14.003" y="-14.999"/><use xlink:href="#D" x="16.502" y="-5.5"/><use xlink:href="#D" x="12.502" y="-9.5"/><use xlink:href="#D" x="14.502" y="-7.5"/><path d="M37.88 32.586l.29.29.135-.22-.247-.246-.177.178z"/><use xlink:href="#F" x="1.5" y="-11.5"/><use xlink:href="#D" x="17" y="-5"/><use xlink:href="#C" x="21.501" y="-4.501"/><use xlink:href="#D" x="11.502" y="-10.5"/><use xlink:href="#F" y="-13"/><use xlink:href="#F" x="1" y="-12"/><use xlink:href="#C" x="19.001" y="-7.001"/><use xlink:href="#D" x="12.002" y="-10"/><use xlink:href="#D" x="8.002" y="-14"/><use xlink:href="#D" x="13.002" y="-9"/><use xlink:href="#D" x="11.002" y="-11"/><use xlink:href="#C" x="22.501" y="-3.501"/><use xlink:href="#D" x="15.002" y="-7"/><use xlink:href="#F" x="3.5" y="-9.5"/><use xlink:href="#D" x="14.002" y="-8"/><use xlink:href="#F" x="2.5" y="-10.5"/><use xlink:href="#F" x="6" y="-7"/><use xlink:href="#D" x="16.002" y="-6"/><use xlink:href="#B" x="16.003" y="-12.999"/><use xlink:href="#D" x="7.502" y="-14.5"/><use xlink:href="#F" x="2" y="-11"/><use xlink:href="#F" x="5" y="-8"/><use xlink:href="#D" x="10.002" y="-12"/><use xlink:href="#F" x="3" y="-10"/><use xlink:href="#D" x="9.002" y="-13"/><use xlink:href="#D" x="10.502" y="-11.5"/><use xlink:href="#B" x="13.503" y="-15.499"/><use xlink:href="#B" x="13.003" y="-15.999"/><use xlink:href="#C" x="19.501" y="-6.501"/><use xlink:href="#F" x="6.5" y="-6.5"/><use xlink:href="#B" x="15.503" y="-13.499"/><use xlink:href="#F" x="4" y="-9"/><use xlink:href="#B" x="16.503" y="-12.499"/><use xlink:href="#B" x="12.503" y="-16.499"/><use xlink:href="#D" x="15.502" y="-6.5"/><use xlink:href="#F" x="0.5" y="-12.5"/><use xlink:href="#B" x="17.503" y="-11.499"/><use xlink:href="#D" x="13.502" y="-8.5"/><use xlink:href="#D" x="8.502" y="-13.5"/><use xlink:href="#F" x="5.5" y="-7.5"/><use xlink:href="#F" x="4.5" y="-8.5"/><use xlink:href="#D" x="12" y="-10.999"/><use xlink:href="#D" x="20.999" y="-1.999"/><use xlink:href="#D" x="9.5" y="-13.499"/><use xlink:href="#B" x="24.003" y="-5.999"/><use xlink:href="#D" x="22.499" y="-0.499"/><use xlink:href="#C" x="25.001" y="-2.001"/><use xlink:href="#D" x="14.5" y="-8.499"/><use xlink:href="#D" x="17.999" y="-4.999"/><use xlink:href="#D" x="18.999" y="-3.999"/><use xlink:href="#C" x="27.501" y="0.499"/><use xlink:href="#C" x="24.001" y="-3.001"/><use xlink:href="#D" x="18.499" y="-4.499"/><use xlink:href="#D" x="17.499" y="-5.499"/><use xlink:href="#D" x="15" y="-7.999"/><use xlink:href="#B" x="18.503" y="-11.499"/><use xlink:href="#D" x="21.499" y="-1.499"/><use xlink:href="#C" x="23.501" y="-3.501"/><use xlink:href="#D" x="10" y="-12.999"/><use xlink:href="#D" x="16.999" y="-5.999"/><use xlink:href="#D" x="13.5" y="-9.499"/><path d="M38.38 32.085l.168.168.134-.22-.125-.125-.177.177z"/><use xlink:href="#D" x="21.999" y="-0.999"/><use xlink:href="#D" x="19.499" y="-3.499"/><use xlink:href="#D" x="11.5" y="-11.499"/><use xlink:href="#D" x="9" y="-13.999"/><use xlink:href="#D" x="10.5" y="-12.499"/><use xlink:href="#D" x="15.999" y="-6.999"/><use xlink:href="#D" x="13" y="-9.999"/><use xlink:href="#B" x="22.003" y="-7.999"/><use xlink:href="#D" x="15.5" y="-7.499"/><use xlink:href="#D" x="19.999" y="-2.999"/><use xlink:href="#D" x="8.5" y="-14.499"/><use xlink:href="#B" x="21.503" y="-8.499"/><use xlink:href="#C" x="29.001" y="1.999"/><use xlink:href="#D" x="16.499" y="-6.499"/><use xlink:href="#C" x="30.001" y="2.999"/><path d="M15.702 9.408l.177-.177-.3-.3-.17.103-.04.04.323.323z"/><use xlink:href="#C" x="28.001" y="0.999"/><use xlink:href="#D" x="22.999" y="0.001"/><use xlink:href="#D" x="20.499" y="-2.499"/><use xlink:href="#B" x="22.503" y="-7.499"/><use xlink:href="#D" x="11" y="-11.999"/><use xlink:href="#B" x="20.003" y="-9.999"/><use xlink:href="#B" x="21.003" y="-8.999"/><use xlink:href="#C" x="29.501" y="2.499"/><use xlink:href="#D" x="14" y="-8.999"/><use xlink:href="#D" x="12.5" y="-10.499"/><use xlink:href="#D" x="14" y="-9.999"/><use xlink:href="#D" x="15" y="-8.999"/><use xlink:href="#D" x="9" y="-14.999"/><use xlink:href="#B" x="24.003" y="-6.999"/><use xlink:href="#D" x="18.499" y="-5.499"/><use xlink:href="#D" x="20.999" y="-2.999"/><use xlink:href="#D" x="9.5" y="-14.499"/><use xlink:href="#D" x="19.499" y="-4.499"/><use xlink:href="#D" x="14.5" y="-9.499"/><use xlink:href="#D" x="19.999" y="-3.999"/><use xlink:href="#D" x="17.999" y="-5.999"/><use xlink:href="#D" x="22.999" y="-0.999"/><use xlink:href="#D" x="12.5" y="-11.499"/><use xlink:href="#B" x="22.003" y="-8.999"/><use xlink:href="#C" x="24.001" y="-4.001"/><use xlink:href="#D" x="21.499" y="-2.499"/><path d="M38.9 31.607l.04-.084-.063.062.022.022z"/><use xlink:href="#D" x="17.499" y="-6.499"/><use xlink:href="#C" x="29.001" y="0.999"/><use xlink:href="#D" x="15.5" y="-8.499"/><use xlink:href="#C" x="24.501" y="-3.501"/><use xlink:href="#D" x="18.999" y="-4.999"/><use xlink:href="#D" x="22.499" y="-1.499"/><use xlink:href="#B" x="21.503" y="-9.499"/><use xlink:href="#D" x="16" y="-7.999"/><use xlink:href="#D" x="10" y="-13.999"/><use xlink:href="#D" x="12" y="-11.999"/><use xlink:href="#B" x="23.003" y="-7.999"/><use xlink:href="#B" x="25.003" y="-5.999"/><use xlink:href="#C" x="28.001" y="-0.001"/><use xlink:href="#D" x="21.999" y="-1.999"/><use xlink:href="#D" x="23.999" y="0.001"/><use xlink:href="#B" x="21.003" y="-9.999"/><path d="M16.38 8.73l-.125-.125-.24.115.187.188.177-.178z"/><use xlink:href="#D" x="16.499" y="-7.499"/><use xlink:href="#D" x="13" y="-10.999"/><use xlink:href="#B" x="22.503" y="-8.499"/><use xlink:href="#C" x="25.001" y="-3.001"/><use xlink:href="#B" x="25.503" y="-5.499"/><use xlink:href="#D" x="11" y="-12.999"/><use xlink:href="#D" x="23.499" y="-0.499"/><use xlink:href="#D" x="20.499" y="-3.499"/><use xlink:href="#C" x="30.501" y="2.499"/><use xlink:href="#D" x="11.5" y="-12.499"/><use xlink:href="#D" x="13.5" y="-10.499"/><use xlink:href="#D" x="10.5" y="-13.499"/><use xlink:href="#D" x="16.999" y="-6.999"/><use xlink:href="#D" x="16.999" y="-7.999"/><use xlink:href="#D" x="21.499" y="-3.499"/><use xlink:href="#D" x="23.999" y="-0.999"/><path d="M38.88 30.585l.322.323.07-.07.07-.146-.285-.285-.176.177z"/><use xlink:href="#D" x="14" y="-10.999"/><use xlink:href="#D" x="19.999" y="-4.999"/><use xlink:href="#C" x="29.001" y="-0.001"/><use xlink:href="#C" x="29.501" y="0.499"/><use xlink:href="#B" x="23.003" y="-8.999"/><use xlink:href="#D" x="15.5" y="-9.499"/><use xlink:href="#D" x="15" y="-9.999"/><use xlink:href="#D" x="14.5" y="-10.499"/><use xlink:href="#D" x="22.999" y="-1.999"/><use xlink:href="#D" x="18.999" y="-5.999"/><use xlink:href="#D" x="20.499" y="-4.499"/><use xlink:href="#D" x="23.499" y="-1.499"/><use xlink:href="#D" x="10" y="-14.999"/><use xlink:href="#D" x="16.499" y="-8.499"/><use xlink:href="#D" x="12.5" y="-12.499"/><use xlink:href="#B" x="24.003" y="-7.999"/><use xlink:href="#B" x="22.503" y="-9.499"/><use xlink:href="#D" x="13" y="-11.999"/><use xlink:href="#D" x="11" y="-13.999"/><use xlink:href="#C" x="30.501" y="1.499"/><use xlink:href="#B" x="21.503" y="-10.499"/><use xlink:href="#D" x="17.499" y="-7.499"/><use xlink:href="#D" x="17.999" y="-6.999"/><use xlink:href="#D" x="18.499" y="-6.499"/><use xlink:href="#D" x="9.5" y="-15.499"/><use xlink:href="#B" x="22.003" y="-9.999"/><use xlink:href="#C" x="30.001" y="0.999"/><path d="M16.737 8.373l-.047.022.012.013.035-.035z"/><use xlink:href="#D" x="12" y="-12.999"/><use xlink:href="#D" x="16" y="-8.999"/><use xlink:href="#D" x="20.999" y="-3.999"/><use xlink:href="#D" x="21.999" y="-2.999"/><use xlink:href="#D" x="11.5" y="-13.499"/><use xlink:href="#D" x="10.5" y="-14.499"/><use xlink:href="#D" x="19.499" y="-5.499"/><use xlink:href="#C" x="25.001" y="-4.001"/><use xlink:href="#D" x="24.999" y="0.001"/><use xlink:href="#D" x="24.499" y="-0.499"/><use xlink:href="#C" x="25.501" y="-3.501"/><use xlink:href="#D" x="22.499" y="-2.499"/><use xlink:href="#B" x="23.503" y="-8.499"/><use xlink:href="#D" x="13.5" y="-11.499"/><use xlink:href="#B" x="26.003" y="-6.999"/><use xlink:href="#D" x="24.999" y="-0.999"/><use xlink:href="#D" x="11.5" y="-14.499"/><use xlink:href="#D" x="13" y="-12.999"/><use xlink:href="#D" x="18.999" y="-6.999"/><use xlink:href="#D" x="16.999" y="-8.999"/><use xlink:href="#D" x="24.499" y="-1.499"/><use xlink:href="#B" x="26.503" y="-6.499"/><use xlink:href="#D" x="15.5" y="-10.499"/><use xlink:href="#D" x="12.5" y="-13.499"/><use xlink:href="#D" x="17.499" y="-8.499"/><use xlink:href="#D" x="17.999" y="-7.999"/><use xlink:href="#D" x="22.999" y="-2.999"/><use xlink:href="#D" x="23.999" y="-1.999"/><use xlink:href="#B" x="24.003" y="-8.999"/><use xlink:href="#D" x="25.999" y="0.001"/><use xlink:href="#D" x="16" y="-9.999"/><use xlink:href="#B" x="21.503" y="-11.499"/><path d="M39.38 30.085l.157.157.095-.26-.075-.075-.177.177z"/><use xlink:href="#D" x="16.5" y="-9.499"/><use xlink:href="#D" x="19.999" y="-5.999"/><use xlink:href="#D" x="23.499" y="-2.499"/><use xlink:href="#D" x="19.499" y="-6.499"/><use xlink:href="#B" x="24.503" y="-8.499"/><use xlink:href="#D" x="25.499" y="-0.499"/><use xlink:href="#D" x="18.499" y="-7.499"/><use xlink:href="#D" x="10.5" y="-15.499"/><use xlink:href="#D" x="22.499" y="-3.499"/><use xlink:href="#D" x="13.5" y="-12.499"/><use xlink:href="#D" x="14.5" y="-11.499"/><use xlink:href="#C" x="30.001" y="-0.001"/><use xlink:href="#D" x="20.499" y="-5.499"/><use xlink:href="#D" x="21.999" y="-3.999"/><use xlink:href="#C" x="27.001" y="-3.001"/><use xlink:href="#D" x="14" y="-11.999"/><use xlink:href="#B" x="23.503" y="-9.499"/><path d="M17.88 8.23l-.24-.24-.26.095.323.323.177-.177z"/><use xlink:href="#D" x="11" y="-14.999"/><use xlink:href="#D" x="15" y="-10.999"/><use xlink:href="#D" x="12" y="-13.999"/><use xlink:href="#C" x="29.501" y="-0.501"/><use xlink:href="#B" x="22.003" y="-10.999"/><use xlink:href="#D" x="20.999" y="-4.999"/><use xlink:href="#B" x="23.003" y="-9.999"/><use xlink:href="#D" x="21.499" y="-4.499"/><use xlink:href="#D" x="26.999" y="0.001"/><use xlink:href="#B" x="23.503" y="-10.499"/><use xlink:href="#D" x="23.999" y="-2.999"/><use xlink:href="#D" x="12.5" y="-14.499"/><use xlink:href="#D" x="13" y="-13.999"/><use xlink:href="#C" x="27.501" y="-3.501"/><use xlink:href="#D" x="16" y="-10.999"/><use xlink:href="#D" x="13.5" y="-13.499"/><use xlink:href="#B" x="25.003" y="-8.999"/><use xlink:href="#B" x="24.503" y="-9.499"/><use xlink:href="#D" x="17" y="-9.999"/><use xlink:href="#D" x="18.499" y="-8.499"/><use xlink:href="#D" x="26.499" y="-0.499"/><use xlink:href="#C" x="31.001" y="-0.001"/><use xlink:href="#D" x="19.999" y="-6.999"/><use xlink:href="#D" x="16.5" y="-10.499"/><use xlink:href="#C" x="30.001" y="-1.001"/><use xlink:href="#D" x="15.5" y="-11.499"/><use xlink:href="#D" x="20.999" y="-5.999"/><use xlink:href="#D" x="21.499" y="-5.499"/><use xlink:href="#B" x="22.503" y="-11.499"/><use xlink:href="#D" x="14.5" y="-12.499"/><use xlink:href="#D" x="11.5" y="-15.499"/><use xlink:href="#D" x="23.499" y="-3.499"/><use xlink:href="#D" x="24.999" y="-1.999"/><use xlink:href="#D" x="14" y="-12.999"/><use xlink:href="#D" x="22.499" y="-4.499"/><use xlink:href="#D" x="17.999" y="-8.999"/><use xlink:href="#D" x="25.999" y="-0.999"/><use xlink:href="#D" x="20.499" y="-6.499"/><use xlink:href="#D" x="21.999" y="-4.999"/><path d="M18.38 7.73l-.01-.01-.26.095.09.09.177-.177z"/><use xlink:href="#B" x="24.003" y="-9.999"/><use xlink:href="#D" x="15" y="-11.999"/><use xlink:href="#D" x="22.999" y="-3.999"/><use xlink:href="#C" x="30.501" y="-0.501"/><use xlink:href="#D" x="19.499" y="-7.499"/><use xlink:href="#D" x="25.499" y="-1.499"/><use xlink:href="#D" x="24.499" y="-2.499"/><use xlink:href="#D" x="17.499" y="-9.499"/><use xlink:href="#D" x="11" y="-15.999"/><use xlink:href="#D" x="12" y="-14.999"/><use xlink:href="#D" x="18.999" y="-7.999"/><use xlink:href="#C" x="31.501" y="0.499"/><use xlink:href="#D" x="14.5" y="-13.499"/><use xlink:href="#D" x="26.499" y="-1.499"/><use xlink:href="#D" x="18.999" y="-8.999"/><use xlink:href="#D" x="20.499" y="-7.499"/><use xlink:href="#B" x="25.503" y="-9.499"/><use xlink:href="#B" x="23.503" y="-11.499"/><use xlink:href="#D" x="22.999" y="-4.999"/><use xlink:href="#D" x="17.5" y="-10.499"/><use xlink:href="#D" x="25.499" y="-2.499"/><use xlink:href="#B" x="26.503" y="-8.499"/><use xlink:href="#D" x="22.499" y="-5.499"/><use xlink:href="#D" x="24.999" y="-2.999"/><use xlink:href="#D" x="26.999" y="-0.999"/><use xlink:href="#D" x="19.999" y="-7.999"/><use xlink:href="#C" x="28.501" y="-3.501"/><use xlink:href="#D" x="27.999" y="0.001"/><use xlink:href="#D" x="21.999" y="-5.999"/><use xlink:href="#D" x="14" y="-13.999"/><use xlink:href="#D" x="25.999" y="-1.999"/><use xlink:href="#D" x="20.999" y="-6.999"/><use xlink:href="#D" x="12" y="-15.999"/><use xlink:href="#D" x="16" y="-11.999"/><use xlink:href="#D" x="18.499" y="-9.499"/><use xlink:href="#D" x="17.999" y="-9.999"/><use xlink:href="#C" x="31.501" y="-0.501"/><use xlink:href="#B" x="25.003" y="-9.999"/><use xlink:href="#D" x="12.5" y="-15.499"/><use xlink:href="#D" x="16.5" y="-11.499"/><use xlink:href="#D" x="19.499" y="-8.499"/><use xlink:href="#D" x="13.5" y="-14.499"/><use xlink:href="#D" x="23.999" y="-3.999"/><path d="M39.88 28.585l.186.187.073-.282-.082-.08-.177.176z"/><use xlink:href="#D" x="24.499" y="-3.499"/><use xlink:href="#D" x="15" y="-12.999"/><use xlink:href="#D" x="17" y="-10.999"/><use xlink:href="#D" x="13" y="-14.999"/><use xlink:href="#D" x="21.499" y="-6.499"/><use xlink:href="#D" x="27.499" y="-0.499"/><use xlink:href="#D" x="23.499" y="-4.499"/><use xlink:href="#D" x="15.5" y="-12.499"/><path d="M19.202 7.908l.177-.177-.247-.247-.205.052-.048.048.323.324z"/><use xlink:href="#C" x="30.501" y="-1.501"/><use xlink:href="#B" x="24.503" y="-10.499"/><use xlink:href="#D" x="15" y="-13.999"/><use xlink:href="#D" x="28.999" y="0.001"/><use xlink:href="#D" x="16" y="-12.999"/><path d="M19.797 7.313l-.15.04.056.056.095-.095z"/><use xlink:href="#D" x="17" y="-11.999"/><use xlink:href="#B" x="25.003" y="-10.999"/><use xlink:href="#B" x="24.503" y="-11.499"/><use xlink:href="#D" x="22.499" y="-6.499"/><use xlink:href="#D" x="12.5" y="-16.499"/><use xlink:href="#D" x="22.999" y="-5.999"/><use xlink:href="#B" x="26.503" y="-9.499"/><use xlink:href="#D" x="21.999" y="-6.999"/><use xlink:href="#C" x="31.501" y="-1.501"/><use xlink:href="#D" x="20.999" y="-7.999"/><use xlink:href="#D" x="27.499" y="-1.499"/><use xlink:href="#D" x="16.5" y="-12.499"/><use xlink:href="#D" x="14" y="-14.999"/><use xlink:href="#D" x="18.999" y="-9.999"/><use xlink:href="#D" x="17.5" y="-11.499"/><use xlink:href="#B" x="25.503" y="-10.499"/><use xlink:href="#D" x="18.499" y="-10.499"/><use xlink:href="#D" x="15.5" y="-13.499"/><use xlink:href="#D" x="18" y="-10.999"/><path d="M39.88 27.585l.322.323.115-.115.025-.1-.286-.285-.176.177z"/><use xlink:href="#D" x="13" y="-15.999"/><use xlink:href="#D" x="19.999" y="-8.999"/><use xlink:href="#D" x="20.499" y="-8.499"/><use xlink:href="#D" x="19.499" y="-9.499"/><use xlink:href="#D" x="13.5" y="-15.499"/><use xlink:href="#D" x="28.499" y="-0.499"/><use xlink:href="#D" x="21.499" y="-7.499"/><use xlink:href="#D" x="14.5" y="-14.499"/><use xlink:href="#D" x="23.499" y="-5.499"/><use xlink:href="#D" x="27.999" y="-0.999"/><use xlink:href="#D" x="24.499" y="-4.499"/><use xlink:href="#D" x="25.499" y="-3.499"/><use xlink:href="#D" x="26.999" y="-1.999"/><use xlink:href="#D" x="23.999" y="-4.999"/><use xlink:href="#B" x="26.003" y="-9.999"/><use xlink:href="#D" x="25.999" y="-2.999"/><use xlink:href="#D" x="26.499" y="-2.499"/><use xlink:href="#D" x="24.999" y="-3.999"/><use xlink:href="#B" x="26.003" y="-10.999"/><path d="M20.88 7.23l-.125-.125-.307.047.255.256.177-.178z"/><use xlink:href="#D" x="28.999" y="-0.999"/><use xlink:href="#D" x="18.999" y="-10.999"/><use xlink:href="#D" x="17.5" y="-12.499"/><use xlink:href="#B" x="25.503" y="-11.499"/><path d="M40.47 27.176l.032-.213-.122.122.1.09z"/><use xlink:href="#D" x="17" y="-12.999"/><use xlink:href="#D" x="16.5" y="-13.499"/><use xlink:href="#D" x="18" y="-11.999"/><use xlink:href="#D" x="18.5" y="-11.499"/><use xlink:href="#D" x="15" y="-14.999"/><use xlink:href="#D" x="26.999" y="-2.999"/><use xlink:href="#B" x="27.503" y="-9.499"/><use xlink:href="#B" x="27.003" y="-9.999"/><use xlink:href="#D" x="23.499" y="-6.499"/><use xlink:href="#D" x="23.999" y="-5.999"/><use xlink:href="#D" x="21.999" y="-7.999"/><use xlink:href="#D" x="24.499" y="-5.499"/><use xlink:href="#D" x="22.999" y="-6.999"/><use xlink:href="#D" x="29.999" y="0.001"/><use xlink:href="#D" x="22.499" y="-7.499"/><use xlink:href="#D" x="15.5" y="-14.499"/><use xlink:href="#D" x="28.499" y="-1.499"/><use xlink:href="#D" x="26.499" y="-3.499"/><use xlink:href="#D" x="27.499" y="-2.499"/><use xlink:href="#D" x="24.999" y="-4.999"/><use xlink:href="#D" x="27.999" y="-1.999"/><use xlink:href="#D" x="16" y="-13.999"/><use xlink:href="#D" x="25.499" y="-4.499"/><use xlink:href="#D" x="25.999" y="-3.999"/><use xlink:href="#B" x="26.503" y="-10.499"/><use xlink:href="#D" x="20.999" y="-8.999"/><use xlink:href="#D" x="20.499" y="-9.499"/><use xlink:href="#D" x="13.5" y="-16.499"/><use xlink:href="#D" x="21.499" y="-8.499"/><use xlink:href="#D" x="19.499" y="-10.499"/><use xlink:href="#D" x="29.499" y="-0.499"/><use xlink:href="#D" x="19.999" y="-9.999"/><use xlink:href="#D" x="14" y="-15.999"/><use xlink:href="#D" x="14.5" y="-15.499"/><use xlink:href="#D" x="20.499" y="-10.499"/><use xlink:href="#B" x="27.503" y="-10.499"/><use xlink:href="#D" x="29.499" y="-1.499"/><use xlink:href="#D" x="23.999" y="-6.999"/><use xlink:href="#D" x="16.5" y="-14.499"/><use xlink:href="#D" x="20.999" y="-9.999"/><use xlink:href="#D" x="24.999" y="-5.999"/><use xlink:href="#D" x="15.5" y="-15.499"/><use xlink:href="#D" x="27.499" y="-3.499"/><use xlink:href="#D" x="23.499" y="-7.499"/><use xlink:href="#D" x="24.499" y="-6.499"/><use xlink:href="#D" x="18.5" y="-12.499"/><use xlink:href="#D" x="19.499" y="-11.499"/><use xlink:href="#D" x="25.499" y="-5.499"/><use xlink:href="#D" x="16" y="-14.999"/><use xlink:href="#B" x="26.503" y="-11.499"/><use xlink:href="#D" x="28.499" y="-2.499"/><use xlink:href="#D" x="30.999" y="0.001"/><path d="M40.38 26.085l.223.223.047-.308-.093-.092-.177.177z"/><use xlink:href="#D" x="27.999" y="-2.999"/><use xlink:href="#D" x="19.999" y="-10.999"/><use xlink:href="#D" x="29.999" y="-0.999"/><use xlink:href="#D" x="18" y="-12.999"/><use xlink:href="#D" x="28.999" y="-1.999"/><use xlink:href="#C" x="31.501" y="-3.501"/><use xlink:href="#D" x="26.499" y="-4.499"/><use xlink:href="#D" x="21.999" y="-8.999"/><use xlink:href="#D" x="22.499" y="-8.499"/><use xlink:href="#D" x="25.999" y="-4.999"/><use xlink:href="#D" x="17.5" y="-13.499"/><use xlink:href="#D" x="21.499" y="-9.499"/><use xlink:href="#D" x="14.5" y="-16.499"/><use xlink:href="#D" x="15" y="-15.999"/><use xlink:href="#D" x="30.499" y="-0.499"/><use xlink:href="#D" x="17" y="-13.999"/><path d="M21.702 7.408l.177-.177-.258-.258-.154.023-.088.088.323.324z"/><use xlink:href="#D" x="22.999" y="-7.999"/><use xlink:href="#D" x="26.999" y="-3.999"/><use xlink:href="#D" x="18.999" y="-11.999"/><use xlink:href="#D" x="15.5" y="-16.499"/><use xlink:href="#D" x="23.499" y="-8.499"/><use xlink:href="#D" x="26.499" y="-5.499"/><use xlink:href="#D" x="19.499" y="-12.499"/><use xlink:href="#D" x="22.999" y="-8.999"/><use xlink:href="#D" x="15" y="-16.999"/><use xlink:href="#D" x="31.999" y="0.001"/><use xlink:href="#D" x="17.5" y="-14.499"/><use xlink:href="#D" x="25.499" y="-6.499"/><use xlink:href="#D" x="23.999" y="-7.999"/><use xlink:href="#B" x="27.503" y="-11.5"/><use xlink:href="#D" x="22.499" y="-9.499"/><use xlink:href="#D" x="17" y="-14.999"/><use xlink:href="#D" x="27.499" y="-4.499"/><use xlink:href="#D" x="16.5" y="-15.499"/><path d="M40.38 25.085l.322.323.024-.023.015-.293-.185-.184-.176.177z"/><use xlink:href="#D" x="31.499" y="-0.499"/><use xlink:href="#D" x="16" y="-15.999"/><use xlink:href="#D" x="24.499" y="-7.499"/><use xlink:href="#D" x="19.999" y="-11.999"/><use xlink:href="#D" x="26.999" y="-4.999"/><use xlink:href="#D" x="18.5" y="-13.499"/><use xlink:href="#D" x="28.999" y="-2.999"/><use xlink:href="#D" x="24.999" y="-6.999"/><use xlink:href="#D" x="28.499" y="-3.499"/><path d="M22.213 6.897c-.007.001-.014 0-.02.001l.01.01.01-.01z"/><use xlink:href="#D" x="20.999" y="-10.999"/><use xlink:href="#D" x="30.999" y="-0.999"/><use xlink:href="#D" x="21.999" y="-9.999"/><use xlink:href="#D" x="25.999" y="-5.999"/><use xlink:href="#D" x="20.499" y="-11.499"/><use xlink:href="#D" x="18" y="-13.999"/><use xlink:href="#D" x="21.499" y="-10.499"/><use xlink:href="#D" x="30.499" y="-1.499"/><use xlink:href="#D" x="19" y="-12.999"/><use xlink:href="#D" x="29.999" y="-1.999"/><use xlink:href="#D" x="29.499" y="-2.499"/><use xlink:href="#D" x="27.999" y="-3.999"/><use xlink:href="#D" x="25.999" y="-6.999"/><use xlink:href="#D" x="26.999" y="-5.999"/><use xlink:href="#D" x="21.499" y="-11.499"/><use xlink:href="#D" x="25.499" y="-7.499"/><use xlink:href="#D" x="19" y="-13.999"/><use xlink:href="#D" x="24.499" y="-8.499"/><use xlink:href="#D" x="30.499" y="-2.499"/><use xlink:href="#D" x="29.999" y="-2.999"/><use xlink:href="#D" x="23.499" y="-9.499"/><use xlink:href="#D" x="22.999" y="-9.999"/><path d="M23.266 6.844l-.122.006.058.058.064-.064z"/><use xlink:href="#D" x="17.5" y="-15.499"/><use xlink:href="#D" x="18.5" y="-14.499"/><use xlink:href="#D" x="21.999" y="-10.999"/><use xlink:href="#D" x="26.499" y="-6.499"/><use xlink:href="#D" x="22.499" y="-10.499"/><use xlink:href="#D" x="28.499" y="-4.499"/><path d="M40.38 24.085l.322.323.077-.077.01-.19-.232-.232-.177.177z"/><use xlink:href="#D" x="31.999" y="-0.999"/><use xlink:href="#D" x="31.499" y="-1.499"/><use xlink:href="#D" x="19.5" y="-13.499"/><use xlink:href="#D" x="28.999" y="-3.999"/><use xlink:href="#D" x="23.999" y="-8.999"/><use xlink:href="#D" x="17" y="-15.999"/><use xlink:href="#D" x="30.999" y="-1.999"/><use xlink:href="#D" x="20.499" y="-12.499"/><use xlink:href="#D" x="27.499" y="-5.499"/><use xlink:href="#D" x="16.5" y="-16.499"/><use xlink:href="#D" x="16" y="-16.999"/><use xlink:href="#D" x="20.999" y="-11.999"/><use xlink:href="#D" x="29.499" y="-3.499"/><use xlink:href="#D" x="32.499" y="-0.499"/><use xlink:href="#D" x="24.999" y="-7.999"/><use xlink:href="#D" x="18" y="-14.999"/><use xlink:href="#D" x="19.999" y="-12.999"/><use xlink:href="#D" x="27.999" y="-4.999"/><use xlink:href="#D" x="22.499" y="-11.499"/><use xlink:href="#D" x="26.999" y="-6.999"/><use xlink:href="#D" x="29.999" y="-3.999"/><use xlink:href="#D" x="23.499" y="-10.499"/><use xlink:href="#D" x="27.499" y="-6.499"/><use xlink:href="#D" x="19" y="-14.999"/><use xlink:href="#D" x="27.999" y="-5.999"/><use xlink:href="#D" x="28.499" y="-5.499"/><use xlink:href="#D" x="30.499" y="-3.499"/><path d="M40.38 23.085l.322.323.08-.08-.01-.207-.214-.214-.176.177z"/><use xlink:href="#D" x="24.499" y="-9.499"/><use xlink:href="#D" x="25.999" y="-7.999"/><use xlink:href="#D" x="21.499" y="-12.499"/><use xlink:href="#D" x="25.499" y="-8.499"/><use xlink:href="#D" x="19.5" y="-14.499"/><use xlink:href="#D" x="17" y="-16.999"/><use xlink:href="#D" x="18.5" y="-15.499"/><use xlink:href="#D" x="31.999" y="-1.999"/><use xlink:href="#D" x="30.999" y="-2.999"/><use xlink:href="#D" x="17.5" y="-16.499"/><use xlink:href="#D" x="23.999" y="-9.999"/><use xlink:href="#D" x="32.499" y="-1.499"/><use xlink:href="#D" x="20.999" y="-12.999"/><use xlink:href="#D" x="21.999" y="-11.999"/><use xlink:href="#D" x="31.499" y="-2.499"/><use xlink:href="#D" x="24.999" y="-8.999"/><path d="M24.27 6.84l-.144-.007.076.076.068-.07z"/><use xlink:href="#D" x="22.999" y="-10.999"/><use xlink:href="#D" x="29.499" y="-4.499"/><use xlink:href="#D" x="20.499" y="-13.499"/><use xlink:href="#D" x="18" y="-15.999"/><use xlink:href="#D" x="20" y="-13.999"/><use xlink:href="#D" x="28.999" y="-4.999"/><use xlink:href="#D" x="26.499" y="-7.499"/><use xlink:href="#D" x="24.499" y="-10.499"/><use xlink:href="#D" x="31.999" y="-2.999"/><use xlink:href="#D" x="28.499" y="-6.499"/><use xlink:href="#D" x="20.5" y="-14.499"/><use xlink:href="#D" x="31.499" y="-3.499"/><use xlink:href="#D" x="23.499" y="-11.499"/><path d="M40.38 22.085l.322.323.03-.03-.017-.31-.16-.16-.176.177z"/><use xlink:href="#D" x="30.499" y="-4.499"/><path d="M25.222 6.887l-.042-.002.02.022.02-.02z"/><use xlink:href="#D" x="20.999" y="-13.999"/><use xlink:href="#D" x="21.999" y="-12.999"/><use xlink:href="#D" x="26.499" y="-8.499"/><use xlink:href="#D" x="26.999" y="-7.999"/><use xlink:href="#D" x="23.999" y="-10.999"/><use xlink:href="#D" x="29.499" y="-5.499"/><use xlink:href="#D" x="29.999" y="-4.999"/><use xlink:href="#D" x="27.499" y="-7.499"/><use xlink:href="#D" x="21.499" y="-13.499"/><use xlink:href="#D" x="25.999" y="-8.999"/><use xlink:href="#D" x="22.499" y="-12.499"/><use xlink:href="#D" x="30.999" y="-3.999"/><use xlink:href="#D" x="18" y="-16.999"/><use xlink:href="#D" x="19.5" y="-15.499"/><use xlink:href="#D" x="19" y="-15.999"/><use xlink:href="#D" x="27.999" y="-6.999"/><use xlink:href="#D" x="22.999" y="-11.999"/><use xlink:href="#D" x="25.499" y="-9.499"/><use xlink:href="#D" x="18.5" y="-16.499"/><use xlink:href="#D" x="32.499" y="-2.499"/><use xlink:href="#D" x="28.999" y="-5.999"/><use xlink:href="#D" x="20" y="-14.999"/><use xlink:href="#D" x="24.999" y="-9.999"/><use xlink:href="#D" x="20.5" y="-15.499"/><use xlink:href="#D" x="25.499" y="-10.499"/><use xlink:href="#D" x="28.999" y="-6.999"/><use xlink:href="#D" x="32.499" y="-3.499"/><path d="M40.6 21.306l-.06-.383-.162.162.22.22z"/><use xlink:href="#D" x="22.499" y="-13.499"/><use xlink:href="#D" x="31.999" y="-3.999"/><use xlink:href="#D" x="24.999" y="-10.999"/><use xlink:href="#D" x="20.999" y="-14.999"/><use xlink:href="#D" x="19.5" y="-16.499"/><use xlink:href="#D" x="24.499" y="-11.499"/><use xlink:href="#D" x="22.999" y="-12.999"/><path d="M26.702 7.408l.178-.177-.146-.146-.307-.047-.047.047.322.323z"/><use xlink:href="#D" x="21.499" y="-14.499"/><use xlink:href="#D" x="23.999" y="-11.999"/><use xlink:href="#D" x="20" y="-15.999"/><use xlink:href="#D" x="26.999" y="-8.999"/><use xlink:href="#D" x="30.499" y="-5.499"/><use xlink:href="#D" x="30.999" y="-4.999"/><use xlink:href="#D" x="29.999" y="-5.999"/><use xlink:href="#D" x="27.999" y="-7.999"/><use xlink:href="#D" x="21.999" y="-13.999"/><use xlink:href="#D" x="25.999" y="-9.999"/><use xlink:href="#D" x="29.499" y="-6.499"/><use xlink:href="#D" x="23.499" y="-12.499"/><use xlink:href="#D" x="28.499" y="-7.499"/><use xlink:href="#D" x="26.499" y="-9.499"/><use xlink:href="#D" x="27.499" y="-8.499"/><use xlink:href="#D" x="31.499" y="-4.499"/><use xlink:href="#D" x="24.499" y="-12.499"/><use xlink:href="#D" x="31.499" y="-5.499"/><use xlink:href="#D" x="20.5" y="-16.497"/><use xlink:href="#D" x="29.999" y="-6.999"/><use xlink:href="#D" x="21" y="-15.999"/><use xlink:href="#D" x="28.499" y="-8.499"/><path d="M40.383 20.09l-.002-.007v.003z"/><use xlink:href="#D" x="25.999" y="-10.999"/><path d="M39.88 19.585l.322.323.107-.107-.048-.188-.205-.205-.176.177z"/><use xlink:href="#D" x="25.499" y="-11.499"/><use xlink:href="#D" x="26.499" y="-10.499"/><use xlink:href="#D" x="26.999" y="-9.999"/><use xlink:href="#D" x="31.999" y="-4.999"/><use xlink:href="#D" x="23.499" y="-13.499"/><use xlink:href="#D" x="23.999" y="-12.999"/><use xlink:href="#D" x="30.499" y="-6.499"/><use xlink:href="#D" x="21.499" y="-15.499"/><use xlink:href="#D" x="29.499" y="-7.499"/><use xlink:href="#D" x="30.999" y="-5.999"/><use xlink:href="#D" x="24.999" y="-11.999"/><use xlink:href="#D" x="22.999" y="-13.999"/><use xlink:href="#D" x="21.999" y="-14.999"/><use xlink:href="#D" x="22.499" y="-14.499"/><path d="M27.802 7.307l-.27-.07.17.17.1-.1z"/><use xlink:href="#D" x="27.999" y="-8.999"/><use xlink:href="#D" x="28.999" y="-7.999"/><use xlink:href="#D" x="27.499" y="-9.499"/><use xlink:href="#D" x="21.999" y="-15.997"/><use xlink:href="#D" x="23.499" y="-14.497"/><use xlink:href="#D" x="23.999" y="-13.997"/><use xlink:href="#D" x="24.999" y="-12.999"/><use xlink:href="#D" x="25.999" y="-11.999"/><use xlink:href="#D" x="29.499" y="-8.499"/><use xlink:href="#D" x="28.499" y="-9.499"/><use xlink:href="#D" x="25.499" y="-12.499"/><path d="M40.035 18.74c-.024-.078-.058-.15-.083-.228l-.072.072.155.156z"/><use xlink:href="#D" x="31.499" y="-6.499"/><use xlink:href="#D" x="29.999" y="-7.999"/><path d="M29.35 7.76l-.47-.172.32.322.15-.15zm10.03 10.325l.322.323.155-.154-.026-.07-.274-.274-.177.176z"/><use xlink:href="#D" x="27.499" y="-10.499"/><use xlink:href="#D" x="22.499" y="-15.497"/><use xlink:href="#D" x="27.999" y="-9.999"/><use xlink:href="#D" x="22.999" y="-14.997"/><use xlink:href="#D" x="28.999" y="-8.999"/><use xlink:href="#D" x="26.499" y="-11.499"/><use xlink:href="#D" x="30.499" y="-7.499"/><use xlink:href="#D" x="24.499" y="-13.499"/><use xlink:href="#D" x="26.999" y="-10.999"/><use xlink:href="#D" x="30.999" y="-6.999"/><use xlink:href="#D" x="25.499" y="-13.497"/><use xlink:href="#D" x="29.999" y="-8.999"/><path d="M38.88 16.585l.322.323.087-.087-.167-.348-.065-.064-.177.176zm.57.57l-.047-.096-.024.025.07.07z"/><use xlink:href="#D" x="27.499" y="-11.499"/><use xlink:href="#D" x="26.999" y="-11.997"/><use xlink:href="#D" x="24.999" y="-13.997"/><use xlink:href="#D" x="23.999" y="-14.997"/><use xlink:href="#D" x="26.499" y="-12.497"/><use xlink:href="#D" x="28.499" y="-10.499"/><use xlink:href="#D" x="24.499" y="-14.497"/><use xlink:href="#D" x="30.499" y="-8.499"/><use xlink:href="#D" x="30.999" y="-7.999"/><use xlink:href="#D" x="27.999" y="-10.999"/><path d="M31.202 8.908l.178-.177-.232-.23-.124-.06-.145.145.323.323zm-.417-.583l-.32-.154.236.237.083-.083z"/><use xlink:href="#D" x="25.999" y="-12.997"/><use xlink:href="#D" x="29.499" y="-9.499"/><use xlink:href="#D" x="28.999" y="-9.999"/><use xlink:href="#D" x="28.499" y="-11.497"/><path d="M38.202 14.907l.04-.04-.243-.4-.12.12.322.322z"/><use xlink:href="#D" x="29.499" y="-10.497"/><path d="M37.38 14.085l.322.323.157-.157c-.037-.055-.08-.105-.12-.16l-.184-.184-.176.177z"/><use xlink:href="#D" x="26.499" y="-13.497"/><use xlink:href="#D" x="26.999" y="-12.997"/><path d="M32.74 9.37l-.2-.115.152.153.038-.038zm.462.538l.156-.156-.398-.248-.08.08.322.323z"/><use xlink:href="#D" x="27.999" y="-11.997"/><use xlink:href="#D" x="27.499" y="-12.497"/><use xlink:href="#D" x="28.999" y="-10.997"/><use xlink:href="#D" x="25.999" y="-13.997"/><path d="M37.702 33.408l-4.66 4.66 1.255-.9.082-.08.177-.178.323-.322.177-.178.323-.322.177-.178.323-.322.177-.178.323-.322.177-.178.323-.322.177-.178.1-.1.9-1.255-.365.365zm1.178-2.178l-8.04 8.04.684-.33.034-.033.323-.322.177-.178.323-.322.177-.178.323-.322.177-.178.323-.322.177-.178.323-.322.177-.178.323-.322.177-.178.323-.322.177-.178.323-.322.177-.178.323-.322.177-.178.323-.322.177-.178.323-.322.177-.178.323-.322.177-.178.323-.322.177-.178.886-.885.33-.685-.392.392zm.822-1.822L29.186 39.924l.56-.204 9.975-9.975.204-.56-.222.222zm.178-1.178L27.792 40.317l.478-.123L40.194 28.27l.123-.478-.438.438zm.322-1.322L26.544 40.566l.42-.064 13.54-13.54.064-.418-.187.186-.177.177zm.178-1.178L25.383 40.726l.398-.045.098-.097 14.803-14.802.044-.398-.024.023-.323.323zm0-1L24.33 40.78l.373-.02L40.76 24.703l.02-.373-.4.4zm0-1l-.178.177-.322.323-.178.177L23.33 40.782l.337.018.213-.214 16.918-16.92c0-.114-.014-.224-.017-.337l-.4.4zm0-1l-.178.177-.322.323-.178.177-.322.323-.178.177-.322.323-.178.177-16.324 16.325.337.017.166-.165 17.87-17.87-.017-.337-.03.03-.323.322zm-.178-.823l-.322.323-.178.177-.322.323-.178.177-.322.323-.178.177-.322.323-.178.177-.322.323-.178.177-16.22 16.22.308.047L40.676 21.8l-.047-.308-.248.25-.18.176zm0-1l-.322.323-.178.177-.322.323-.178.177-.322.323-.178.177-.322.323-.178.177-.322.323-.178.177-.322.323-.178.177-.322.323-.178.177-16.086 16.087.308.047 19.62-19.62-.047-.308-.115.116-.18.176zm-.322-.677l-.178.177-.322.323-.178.177-.322.323-.178.177-.322.323-.178.177-.322.323-.178.177-.322.323-.178.177-.322.323-.178.177-.322.323-.178.177-.322.323-.178.177-15.9 15.9.282.073.297-.298 20-20-.072-.282-.107.107-.323.324zm-.178-.823l-.322.323-.178.177-.322.323-.178.177-.322.323-.178.177-.322.323-.178.177-.322.323-.178.177-.322.323-.178.177-.322.323-.178.177-.322.323-.178.177-.322.323-.178.177-.322.323-.178.177-15.697 15.697.282.072 20.9-20.9-.072-.282-.226.226-.178.177zm-.322-.677l-.178.177-.322.323-.178.177-.322.323-.178.177-.322.323-.178.177-.322.323-.178.177-.322.323-.178.177-.322.323-.178.177-.322.323-.178.177-.322.323-.178.177-.322.323-.178.177-.322.323-.178.177-.322.323-.178.177-15.448 15.45.26.095 21.44-21.44-.095-.26-.155.154-.322.322zm-.178-.823l-.322.323-.178.177-.322.323-.178.177-.322.323-.178.177-.322.323-.178.177-.322.323-.178.177-.322.323-.178.177-.322.323-.178.177-.322.323-.178.177-.322.323-.178.177-.322.323-.178.177-.322.323-.178.177-.322.323-.178.177-.322.323-.178.177-15.18 15.18.26.095L39.685 17.78l-.096-.26-.2.2-.178.176zm-.322-.677l-.178.177-.322.323-.178.177-.322.323-.178.177-.322.323-.178.177-.322.323-.178.177-.322.323-.178.177-.322.323-.178.177-.322.323-.178.177-.322.323-.178.177-.322.323-.178.177-.322.323-.178.177-.322.323-.178.177-.322.323-.178.177-.322.323-.178.177-.322.323-.178.177L16.82 39.3l.24.115.497-.496 21.847-21.86-.115-.24-.087.087-.323.322z"/><path d="M38.702 16.407l-.322.323-.178.177-.322.323-.178.177-.322.323-.178.177-.322.323-.178.177-.322.323-.178.177-.322.323-.178.177-.322.323-.178.177-.322.323-.178.177-.322.323-.178.177-.322.323-.178.177-.322.323-.178.177-.322.323-.178.177-.322.323-.178.177-.322.323-.178.177-.322.323-.178.177-.322.323-.178.177-14.556 14.557.24.115.17-.172 22.522-22.523-.115-.24-.084.085-.177.176zm-.5-.5l-.322.323-.178.177-.322.323-.178.177-.322.323-.178.177-.322.323-.178.177-.322.323-.178.177-.322.323-.178.177-.322.323-.178.177-.322.323-.178.177-.322.323-.178.177-.322.323-.178.177-.322.323-.178.177-.322.323-.178.177-.322.323-.178.177-.322.323-.178.177-.322.323-.178.177-.322.323-.178.177L15.5 38.62l.22.134L38.754 15.7l-.135-.22-.417.417zm-.322-.677l-.178.177-.322.323-.178.177-.322.323-.178.177-.322.323-.178.177-.322.323-.178.177-.322.323-.178.177-.322.323-.178.177-.322.323-.178.177-.322.323-.178.177-.322.323-.178.177-.322.323-.178.177-.322.323-.178.177-.322.323-.178.177-.322.323-.178.177-.322.323-.178.177-.322.323-.178.177-.322.323-.178.177L14.87 38.24l.22.135 23.288-23.3-.134-.22-.363.363zm-.5-.5l-.178.177-.322.323-.178.177-.322.323-.178.177-.322.323-.178.177-.322.323-.178.177-.322.323-.178.177-.322.323-.178.177-.322.323-.178.177-.322.323-.178.177-.322.323-.178.177-.322.323-.178.177-.322.323-.178.177-.322.323-.178.177-.322.323-.178.177-.322.323-.178.177-.322.323-.178.177-.322.323-.178.177-14.95 14.95.215.14L38 14.465l-.14-.215-.48.48zm-.178-.823l-.322.323-.178.177-.322.323-.178.177-.322.323-.178.177-.322.323-.178.177-.322.323-.178.177-.322.323-.178.177-.322.323-.178.177-.322.323-.178.177-.322.323-.178.177-.322.323-.178.177-.322.323-.178.177-.322.323-.178.177-.322.323-.178.177-.322.323-.178.177-.322.323-.178.177-.322.323-.178.177-.322.323-.178.177L13.68 37.43l.203.15 23.7-23.702-.15-.203-.23.23zm-.5-.5l-.322.323-.178.177-.322.323-.178.177-.322.323-.178.177-.322.323-.178.177-.322.323-.178.177-.322.323-.178.177-.322.323-.178.177-.322.323-.178.177-.322.323-.178.177-.322.323-.178.177-.322.323-.178.177-.322.323-.178.177-.322.323-.178.177-.322.323-.178.177-.322.323-.178.177-.322.323-.178.177-.322.323-.178.177-15.095 15.096.203.15L37.156 13.3l-.15-.203-.124.125-.18.176zm-.5-.5l-.322.323-.178.177-.322.323-.178.177-.322.323-.178.177-.322.323-.178.177-.322.323-.178.177-.322.323-.178.177-.322.323-.178.177-.322.323-.178.177-.322.323-.178.177-.322.323-.178.177-.322.323-.178.177-.322.323-.178.177-.322.323-.178.177-.322.323-.178.177-.322.323-.178.177-.322.323-.178.177-.322.323-.178.177-15.128 15.13.186.168L36.705 12.76l-.17-.186-.156.157-.178.177zm-.5-.5l-.322.323-.178.177-.322.323-.178.177-.322.323-.178.177-.322.323-.178.177-.322.323-.178.177-.322.323-.178.177-.322.323-.178.177-.322.323-.178.177-.322.323-.178.177-.322.323-.178.177-.322.323-.178.177-.322.323-.178.177-.322.323-.178.177-.322.323-.178.177-.322.323-.178.177-.322.323-.178.177-.322.323-.178.177L12.05 36.06l.186.168L36.23 12.235l-.17-.186-.18.18-.178.177z"/><path d="M35.202 11.907l-.322.323-.178.177-.322.323-.178.177-.322.323-.178.177-.322.323-.178.177-.322.323-.178.177-.322.323-.178.177-.322.323-.178.177-.322.323-.178.177-.322.323-.178.177-.322.323-.178.177-.322.323-.178.177-.322.323-.178.177-.322.323-.178.177-.322.323-.178.177-.322.323-.178.177-.322.323-.178.177-.322.323-.178.177L11.55 35.56l.168.187L35.745 11.72l-.186-.17-.18.18-.177.175zm-.5-.5l-.322.323-.178.177-.322.323-.178.177-.322.323-.178.177-.322.323-.178.177-.322.323-.178.177-.322.323-.178.177-.322.323-.178.177-.322.323-.178.177-.322.323-.178.177-.322.323-.178.177-.322.323-.178.177-.322.323-.178.177-.322.323-.178.177-.322.323-.178.177-.322.323-.178.177-.322.323-.178.177-.322.323-.178.177-15.127 15.13.17.186 23.98-23.98-.186-.17-.156.157-.18.175zm-.5-.5l-.322.323-.178.177-.322.323-.178.177-.322.323-.178.177-.322.323-.178.177-.322.323-.178.177-.322.323-.178.177-.322.323-.178.177-.322.323-.178.177-.322.323-.178.177-.322.323-.178.177-.322.323-.178.177-.322.323-.178.177-.322.323-.178.177-.322.323-.178.177-.322.323-.178.177-.322.323-.178.177-.322.323-.178.177L10.6 34.503l.16.195.113-.112L34.7 10.768l-.196-.16-.122.123-.18.175zm-.5-.5l-.322.323-.178.177-.322.323-.178.177-.322.323-.178.177-.322.323-.178.177-.322.323-.178.177-.322.323-.178.177-.322.323-.178.177-.322.323-.178.177-.322.323-.178.177-.322.323-.178.177-.322.323-.178.177-.322.323-.178.177-.322.323-.178.177-.322.323-.178.177-.322.323-.178.177-.322.323-.178.177-.322.323-.178.177-1.322 1.324-13.7 13.7.15.203 23.8-23.8-.203-.152-.05.05-.178.176zm-.822-.177l-.178.177-.322.323-.178.177-.322.323-.178.177-.322.323-.178.177-.322.323-.178.177-.322.323-.178.177-.322.323-.178.177-.322.323-.178.177-.322.323-.178.177-.322.323-.178.177-.322.323-.178.177-.322.323-.178.177-.322.323-.178.177-.322.323-.178.177-.322.323-.178.177-.322.323-.178.177-.322.323-.178.177-14.95 14.95.15.203L33.56 9.904l-.202-.152-.156.156-.322.323zm-.5-.5l-.178.177-.322.323-.178.177-.322.323-.178.177-.322.323-.178.177-.322.323-.178.177-.322.323-.178.177-.322.323-.178.177-.322.323-.178.177-.322.323-.178.177-.322.323-.178.177-.322.323-.178.177-.322.323-.178.177-.322.323-.178.177-.322.323-.178.177-.322.323-.178.177-.322.323-.178.177L9.37 32.74l.134.22L32.96 9.504l-.22-.134-.038.038-.322.323zm-.678-.322l-.322.323-.178.177-.322.323-.178.177-.322.323-.178.177-.322.323-.178.177-.322.323-.178.177-.322.323-.178.177-.322.323-.178.177-.322.323-.178.177-.322.323-.178.177-.322.323-.178.177-.322.323-.178.177-.322.323-.178.177-.322.323-.178.177-.322.323-.178.177-15.7 15.7.134.22 23.2-23.212-.22-.134-.416.416zm-.5-.5l-.322.323-.178.177-.322.323-.178.177-.322.323-.178.177-.322.323-.178.177-.322.323-.178.177-.322.323-.178.177-.322.323-.178.177-.322.323-.178.177-.322.323-.178.177-.322.323-.178.177-.322.323-.178.177-.322.323-.178.177-.322.323-.178.177L8.65 31.46l.115.238L31.7 8.765l-.24-.115-.08.08-.178.177zm-.822-.178l-.178.177-.322.323-.178.177-.322.323-.178.177-.322.323-.178.177-.322.323-.178.177-.322.323-.178.177-.322.323-.178.177-.322.323-.178.177-.322.323-.178.177-.322.323-.178.177-.322.323-.178.177-.322.323-.178.177L8.324 30.785l.115.238.116-.115L31.023 8.44l-.24-.115-.083.083-.322.323zm-.678-.322l-.322.323-.178.177-.322.323-.178.177-.322.323-.178.177-.322.323-.178.177-.322.323-.178.177-.322.323-.178.177-.322.323-.178.177-.322.323-.178.177-.322.323-.178.177-.322.323-.178.177L8.026 30.084l.095.26L30.342 8.12l-.26-.095-.204.205-.177.177zm-.822-.178l-.178.177-.322.323-.178.177-.322.323-.178.177-.322.323-.178.177-.322.323-.178.177-.322.323-.178.177-.322.323-.178.177-.322.323-.178.177-.322.323-.178.177L7.758 29.35l.095.26.026-.025L29.6 7.853l-.26-.095-.15.15-.323.324zm-.678-.322l-.322.323-.178.177-.322.323-.178.177-.322.323-.178.177-.322.323-.178.177-.322.323-.178.177-.322.323-.178.177-.322.323-.178.177-17.2 17.2.074.28L28.88 7.584 28.6 7.5l-.22.22-.178.18zm-.822-.178l-.178.177-.322.323-.178.177-.322.323-.178.177-.322.323-.178.177-.322.323-.178.177-.322.323-.178.177L7.307 27.802l.073.28L28.084 7.38l-.282-.072-.1.1-.322.323zm-.678-.322l-.322.323-.178.177-.322.323-.178.177-.322.323-.178.177-.322.323-.178.177-17.58 17.578.052.303L27.288 7.175l-.302-.052-.107.107-.177.178zm-1 0l-.322.323-.178.177-.322.323-.178.177L7 26.12l.047.307 19.39-19.39-.308-.047-.417.417zm-.822-.178l-.178.177L6.888 25.222l.018.336L25.558 6.906l-.336-.018-.343.343zm-1 0L6.84 24.27l.017.337.023-.022L24.6 6.855l-.337-.017-.068.068-.324.323zm-1 0L6.843 23.266l-.02.373L23.638 6.825l-.373.02-.064.064-.322.323zm-1 0L6.897 22.213l-.02.373.178-.177 15.53-15.53-.373.02-.01.01-.323.322zm-1.178.178L7.06 21.05l-.064.417 14.47-14.47-.417.064-.17.17-.18.177zm-1.322.322L7.313 19.797l-.123.476L20.272 7.2l-.477.123-.095.095-.32.323zm-1.178.178l-10.5 10.5-.175.53 11.4-11.4-.53.175-.196.196zm-1.822.822l-8.006 8.006-.288.642 9.294-9.294-.642.288-.358.358zm-2.178 1.178l-4.6 4.6-.547.9 6.375-6.375-.902.548-.316.316z"/></g><path opacity=".2" d="M6.84 29.07c.246-9.17 7.74-16.535 16.97-16.535S40.536 19.9 40.782 29.07v-4.8c-.246-9.17-7.74-16.535-16.97-16.535S7.085 15.1 6.84 24.27v4.8z"/><path fill="#b5441b" d="M23.81 7.736c9.23 0 16.725 7.364 16.97 16.535.004-.154.023-.305.023-.46 0-9.386-7.608-16.995-16.994-16.995A17 17 0 0 0 6.816 23.811c0 .155.02.306.023.46C7.085 15.1 14.58 7.736 23.81 7.736z"/><path fill="#f15a24" d="M23.81 0C10.66 0 0 10.66 0 23.81s10.66 23.81 23.81 23.81 23.81-10.66 23.81-23.81S36.96 0 23.81 0zm0 40.805c-9.386 0-16.995-7.608-16.995-16.994A17 17 0 0 1 23.811 6.816c9.386 0 16.994 7.61 16.994 16.995S33.197 40.805 23.81 40.805z"/><path opacity=".2" fill="#fff" d="M0 24.14C0 11 10.66.33 23.81.33S47.622 11 47.622 24.14v-.33C47.622 10.66 36.96 0 23.81 0S0 10.66 0 23.81v.33z"/><path opacity=".2" d="M0 36.3c0 13.15 10.66 23.81 23.81 23.81s23.81-10.66 23.81-23.81v.512c0 13.15-10.66 23.81-23.81 23.81S0 49.972 0 36.822V36.3z"/><path opacity=".2" fill="#fff" d="M40.805 24.058c0 9.386-7.608 16.994-16.994 16.994S6.816 33.444 6.816 24.058v-.247c0 9.386 7.61 16.994 16.995 16.994s16.994-7.608 16.994-16.994v.247z"/><defs ><path id="B" d="M12.555 35.906l.323.322-.177.177-.323-.322z"/><path id="C" d="M8.057 28.408l.323.322-.176.177-.323-.322z"/><path id="D" d="M7.555 23.907l.323.323-.177.177-.323-.323z"/><path id="E" d="M15.055 24.407l.323.323-.177.178-.323-.323z"/><path id="F" d="M31.058 38.408l.323.322-.177.178-.323-.322z"/><path id="G" d="M19.057 24.407l.322.322-.177.177-.322-.322z"/><path id="H" d="M19.558 23.907l.323.323-.178.177-.323-.323z"/></defs></svg>