<?xml version="1.0" encoding="utf-8"?>
<!-- Generator: Adobe Illustrator 24.2.3, SVG Export Plug-In . SVG Version: 6.00 Build 0)  -->
<svg version="1.1" id="Layer_1" xmlns="http://www.w3.org/2000/svg" xmlns:xlink="http://www.w3.org/1999/xlink" x="0px" y="0px"
	 width="9.354px" height="13.6571px" viewBox="0 0 9.354 13.6571" enable-background="new 0 0 9.354 13.6571" xml:space="preserve">
<g>
	<rect fill="#3B6301" width="9.354" height="13.6571"/>
	<path fill="#3D3D3D" d="M8.4373,13.3539H0.9174c-0.3128,0-0.5664-0.2536-0.5664-0.5664V0.8894
		c0-0.3128,0.2536-0.5664,0.5664-0.5664h7.5199c0.3128,0,0.5664,0.2536,0.5664,0.5664v11.8981
		C9.0037,13.1003,8.7501,13.3539,8.4373,13.3539z"/>
	<path fill="#727272" d="M8.3567,13.1306H1.0012c-0.2136,0-0.3868-0.1732-0.3868-0.3868V0.9653
		c0-0.2136,0.1732-0.3868,0.3868-0.3868h7.3555c0.2136,0,0.3868,0.1732,0.3868,0.3868v11.7785
		C8.7435,12.9574,8.5703,13.1306,8.3567,13.1306z"/>
	<circle cx="7.6224" cy="1.7312" r="0.7562"/>
	<circle fill="#353535" cx="1.7199" cy="12.0458" r="0.7457"/>
</g>
</svg>
