<svg xmlns="http://www.w3.org/2000/svg" height="60" width="122" viewBox="0 0 1266.553 617.647"><style><![CDATA[.B{fill:#8c8663}.C{fill:#b8af82}.D{fill:#80795b}.E{fill:#5e5b43}.F{fill:#9a916c}.G{fill:#999}.H{fill:#404040}.I{fill:#666}]]></style><path stroke="#500050" d="M839.857 7.575c43.92-7.506 65.95 5.548 61.284 51.958v137.224c2.952 38.837 28.57 48.533 55.955 55.955h255.796c29.82 4.558 43.217 21.433 44.63 47.296v95.257l2.536 128.208c2.946 38.3 1.746 74.766-51.164 88.618H62.145c-23.4-.865-44.92-7.832-54.3-54.3V54.87C11.33 30.912 15.854 7.652 55.15 7.575z" fill="#500050" stroke-width="123.456"/><path d="M157.57 372.417v9.533h-10.803v-9.533z" class="I"/><path d="M157.623 372.417v.858h-9.64v-.858z" class="G"/><path d="M157.57 390.172v9.486h-10.803v-9.486z" class="I"/><path d="M157.623 390.172v.835h-9.64v-.835z" class="G"/><path d="M157.57 407.88v9.533h-10.803v-9.533z" class="I"/><path d="M157.623 407.88v.858h-9.64v-.858z" class="G"/><path d="M157.57 425.648v9.5h-10.803v-9.5z" class="I"/><path d="M157.623 425.648v.835h-9.64v-.835z" class="G"/><path d="M157.57 443.357v9.533h-10.803v-9.533z" class="I"/><path d="M157.623 443.357v.858h-9.64v-.858z" class="G"/><path fill="#b3b3b3" d="M149.25 503.535L.01 503.51V322.11h149.24z"/><path d="M91.185 505.483v9.58h-26.67v-9.58zm0-195.25v9.626h-26.67v-9.626z" class="I"/><path fill="#333" d="M149.25 368.103v92.86H12.24v-92.86z"/><path d="M149.25 476.906h-14.334v-15.86h14.334v-4.56h-4.99v-82.67h4.99v-5.167h-14.355V352.8h14.355v-32.84H0v190.46h149.25zM27.664 368.626h-7.156v-15.765h7.716c2.432-4.215 6.67-6.977 11.48-6.977 5.264 0 9.682 2.238 11.998 6.977h39.345v15.74H51.702c-2.337 4.787-6.776 8.192-12.04 8.192-5.233-.022-9.693-3.334-11.998-8.168zm0 107.6h-7.156v-15.74h7.716c2.432-4.215 6.67-7 11.48-7 5.264 0 9.682 2.19 11.998 7h39.345v15.74H51.702c-2.337 4.834-6.776 8.168-12.04 8.168-5.233 0-9.693-3.322-11.998-8.168z" fill="#e6e6e6"/><path d="M144.26 505.46H.01l96.343-5.497 47.907-5.462z" class="G"/><path fill="#b3b3b3" d="M7.57 328.997v167.37H1.786v-167.37z"/><path fill="#ccc" d="M2.76 328.997v167.37H.01v-167.37z"/><path d="M283.37 43.8v155.753l21.758 20.988h56.584l21.744-20.988V43.8L361.71 22.797h-56.584z" class="H"/><path d="M325.202 62.825h16.433v16.437h-16.433z" class="B"/><path d="M317.444 87.04l7.758-7.794V62.88l-7.758-7.794z" class="C"/><path d="M341.663 62.88h-16.46l-7.758-7.794h31.935z" class="D"/><path d="M341.663 79.247V62.88l7.716-7.794V87.04z" class="E"/><path d="M325.202 162.865h16.433v16.45h-16.433z" class="B"/><path d="M317.444 187.067l7.758-7.78v-16.38l-7.758-7.766z" class="C"/><path d="M341.663 162.906h-16.46l-7.758-7.766h31.935z" class="D"/><path d="M341.663 179.287v-16.38l7.716-7.766v31.927z" class="E"/><path d="M317.444 187.067l7.758-7.78h16.46l7.716 7.78z" class="F"/><path d="M383.468 43.8v155.753l21.758 20.988H461.8l21.758-20.988V43.8L461.8 22.797h-56.584z" class="H"/><path d="M425.3 62.825h16.433v16.437H425.3z" class="B"/><path d="M417.558 87.04l7.744-7.794V62.88l-7.744-7.794z" class="C"/><path d="M441.762 62.88H425.3l-7.744-7.794h31.92z" class="D"/><path d="M441.762 79.247V62.88l7.716-7.794V87.04z" class="E"/><path d="M449.478 87.04h-31.92l7.744-7.794h16.46z" class="F"/><path d="M425.3 162.865h16.433v16.45H425.3z" class="B"/><path d="M417.558 187.067l7.744-7.78v-16.38l-7.744-7.766z" class="C"/><path d="M441.762 162.906H425.3l-7.744-7.766h31.92z" class="D"/><path d="M441.762 179.287v-16.38l7.716-7.766v31.927z" class="E"/><path d="M449.478 187.067h-31.92l7.744-7.78h16.46z" class="F"/><path d="M483.582 43.8v155.753l21.744 20.988h56.584l21.758-20.988V43.8L561.91 22.797h-56.584z" class="H"/><path d="M524.86 62.825h16.433v16.437H524.86z" class="B"/><path d="M517.657 87.04l7.744-7.794V62.88l-7.744-7.794z" class="C"/><path d="M541.862 62.88H525.4l-7.744-7.794h31.935z" class="D"/><path d="M541.862 79.247V62.88l7.73-7.794V87.04z" class="E"/><path d="M541.862 79.247l7.73 7.794h-31.935l7.744-7.794z" class="F"/><path d="M524.86 162.865h16.433v16.45H524.86z" class="B"/><path d="M517.657 187.067l7.744-7.78v-16.38l-7.744-7.766z" class="C"/><path d="M541.862 162.906H525.4l-7.744-7.766h31.935z" class="D"/><path d="M541.862 179.287v-16.38l7.73-7.766v31.927z" class="E"/><path d="M517.657 187.067l7.744-7.78h16.46l7.73 7.78z" class="F"/><path d="M583.68 43.8v155.753l21.744 20.988h56.598l21.744-20.988V43.8l-21.744-21.002h-56.598z" class="H"/><path d="M624.86 63.172h16.433V79.61H624.86z" class="B"/><path d="M617.757 87.04l7.758-7.794V62.88l-7.758-7.794z" class="C"/><path d="M641.96 62.88h-16.447l-7.758-7.794h31.935z" class="D"/><path d="M641.96 79.247V62.88l7.73-7.794V87.04z" class="E"/><path d="M641.96 79.247l7.73 7.794h-31.935l7.758-7.794z" class="F"/><path d="M624.86 162.865h16.433v16.45H624.86z" class="B"/><path d="M617.757 187.067l7.758-7.78v-16.38l-7.758-7.766z" class="C"/><path d="M641.96 162.906h-16.447l-7.758-7.766h31.935z" class="D"/><path d="M641.96 179.287v-16.38l7.73-7.766v31.927z" class="E"/><path d="M617.757 187.067l7.758-7.78h16.447l7.73 7.78z" class="F"/><path d="M683.78 43.8v155.753l21.744 20.988h56.598l21.744-20.988V43.8l-21.744-21.002h-56.598z" class="H"/><path d="M724.86 63.172h16.433V79.61H724.86z" class="B"/><path d="M717.856 87.04l7.758-7.794V62.88l-7.758-7.794z" class="C"/><path d="M742.06 62.88h-16.447l-7.758-7.794h31.935z" class="D"/><path d="M742.06 79.247V62.88l7.73-7.794V87.04z" class="E"/><path d="M742.06 79.247l7.73 7.794h-31.935l7.758-7.794z" class="F"/><path d="M724.86 162.865h16.433v16.45H724.86z" class="B"/><path d="M717.856 187.067l7.758-7.78v-16.38l-7.758-7.766z" class="C"/><path d="M742.06 162.906h-16.447l-7.758-7.766h31.935z" class="D"/><path d="M742.06 179.287v-16.38l7.73-7.766v31.927z" class="E"/><path d="M717.856 187.067l7.758-7.78h16.447l7.73 7.78z" class="F"/><path d="M783.88 43.8v155.753l21.758 20.988h56.584l21.744-20.988V43.8l-21.744-21.002h-56.584z" class="H"/><path d="M824.86 63.172h16.433V79.61H824.86z" class="B"/><path d="M817.955 87.04l7.758-7.794V62.88l-7.758-7.794z" class="C"/><path d="M842.174 62.88h-16.46l-7.758-7.794H849.9z" class="D"/><path d="M842.174 79.247V62.88l7.716-7.794V87.04z" class="E"/><path d="M842.174 79.247l7.716 7.794h-31.935l7.758-7.794z" class="F"/><path d="M824.86 162.865h16.433v16.45H824.86z" class="B"/><path d="M817.955 187.067l7.758-7.78v-16.38l-7.758-7.766z" class="C"/><path d="M842.174 162.906h-16.46l-7.758-7.766H849.9z" class="D"/><path d="M842.174 179.287v-16.38l7.716-7.766v31.927z" class="E"/><path d="M817.955 187.067l7.758-7.78h16.46l7.716 7.78z" class="F"/><g class="H"><path d="M1024.5 496.095l-20.988 21.758v56.584l20.988 21.744h155.753l21.002-21.744v-56.584l-21.002-21.758H1079.17z"/><path d="M1180.253 596.18l21.002-21.744v-56.584l-21.002-21.758H1024.5l-20.988 21.758v56.584l20.988 21.744h101.098z"/></g><path d="M1161.227 535.656v16.433H1144.8v-16.433z" class="B"/><path d="M1168.966 530.17h-31.955l7.794 7.772h16.367z" class="C"/><path d="M1168.966 562.105l-7.794-7.702v-16.46l7.794-7.772z" class="D"/><path d="M1137.01 562.105l7.794-7.702h16.367l7.794 7.702z" class="E"/><path d="M1144.805 537.942v16.46l-7.794 7.702V530.17z" class="F"/><path d="M1060.894 535.656v16.433h-16.45v-16.433z" class="B"/><path d="M1068.912 530.17h-31.927l7.78 7.772h16.38z" class="C"/><path d="M1068.912 562.105l-7.766-7.702v-16.46l7.766-7.772z" class="D"/><path d="M1036.984 562.105l7.78-7.702h16.38l7.766 7.702z" class="E"/><path d="M1036.984 562.105V530.17l7.78 7.772v16.46z" class="F"/><g stroke="#000"><g stroke-width="11.111"><path d="M491.156 282.8H635.53v64.76H491.156zm-233.856 0h125.922v64.76H257.3zm230.258 179.887h71.955v57.564h-71.955zm261.197-43.637H869.6v75.53H748.755zm-417.528 53.7h65.06v43.64h-65.06z"/><path d="M418.107 278.053h41.96v75.53h-41.96z" class="G"/><path d="M635.53 434.146h69.588v38.604H635.53zm0 73.85h72.945v45.317H635.53z"/><path d="M653.99 279.732h52.804v80.564H653.99z" class="G"/><path d="M802.465 286.445h52.03v70.493h-52.03z"/><path d="M728.245 281.007h52.03V351.5h-52.03z" class="G"/><path fill="#ececec" d="M203.864 137.1l89.04 89.04-45.792 45.792-89.04-89.04z"/></g><g fill="#fff"><path stroke-width="16.825" d="M19.456 151.223L154.288 16.39l69.342 69.342L88.798 220.566z"/><path stroke-width="7.881" d="M27.308 85.733L90.46 22.58l32.478 32.478-63.152 63.152z"/></g></g><path d="M223.797 3.534l58.245 69.686L255 74.26l15.6 47.844-64.485-71.766 26.002-1.04zm927.4 254.92c-3.23 0-6.14.466-8.723 1.396-2.585.88-4.8 2.403-6.613 4.574s-3.232 5.092-4.22 8.763c-.988 3.62-1.482 8.195-1.482 13.726v6.36l-9.578 6.36v11.398h9.578v68.942h17.4V311.03h12.942v-17.758h-12.942v-5.428c0-3.102.456-5.637 1.368-7.6.95-2.016 2.566-3.023 4.847-3.023 1.748 0 3.268.232 4.56.697s2.528.983 3.706 1.55l4.106-17.37c-1.672-.93-3.706-1.757-6.1-2.48-2.395-.775-5.34-1.164-8.837-1.164zm45.155 0c-3.23 0-6.137.466-8.722 1.396-2.585.88-4.8 2.403-6.615 4.574s-3.23 5.092-4.22 8.763c-.988 3.62-1.482 8.195-1.482 13.726v6.36l-9.58 6.36v11.398h9.58v68.942h17.4V311.03h12.942v-17.758h-12.942v-5.428c0-3.102.456-5.637 1.368-7.6.95-2.016 2.564-3.023 4.845-3.023 1.748 0 3.27.232 4.562.697s2.528.983 3.706 1.55l4.105-17.37c-1.672-.93-3.706-1.757-6.1-2.48-2.395-.775-5.34-1.164-8.837-1.164zm-283.6 6.36c-6.424 0-11.992 1.395-16.705 4.187-4.675 2.74-8.552 6.644-11.63 11.7s-5.378 11.192-6.898 18.378c-1.482 7.135-2.224 15.097-2.224 23.886s.742 16.803 2.224 24.04c1.52 7.186 3.8 13.34 6.84 18.457 3.08 5.118 6.955 9.074 11.63 11.865 4.713 2.792 10.262 4.187 16.648 4.187s11.916-1.395 16.6-4.187c4.713-2.792 8.6-6.747 11.688-11.865s5.36-11.27 6.843-18.457c1.52-7.186 2.28-15.148 2.28-23.886 0-8.84-.76-16.83-2.28-23.963-1.482-7.186-3.764-13.3-6.843-18.378-3.04-5.118-6.9-9.048-11.574-11.788-4.675-2.792-10.206-4.187-16.6-4.187zm161.465 0c-6.424 0-11.992 1.395-16.705 4.187-4.675 2.74-8.552 6.644-11.63 11.7s-5.378 11.192-6.898 18.378c-1.482 7.135-2.224 15.097-2.224 23.886s.742 16.803 2.224 24.04c1.52 7.186 3.8 13.34 6.84 18.457 3.08 5.118 6.956 9.074 11.63 11.865 4.713 2.792 10.262 4.187 16.648 4.187s11.916-1.395 16.6-4.187c4.713-2.792 8.6-6.747 11.688-11.865s5.36-11.27 6.843-18.457c1.52-7.186 2.28-15.148 2.28-23.886 0-8.84-.76-16.83-2.28-23.963-1.482-7.186-3.764-13.3-6.843-18.378-3.04-5.118-6.9-9.048-11.574-11.788-4.675-2.792-10.206-4.187-16.6-4.187zM912.76 284.82c3.345 0 6.215.88 8.6 2.638s4.353 4.3 5.873 7.6c1.558 3.3 2.698 7.34 3.42 12.098.76 4.705 1.14 10.03 1.14 15.975s-.38 11.298-1.14 16.054c-.722 4.705-1.86 8.7-3.42 12.02-1.52 3.257-3.497 5.764-5.93 7.52-2.395 1.758-5.284 2.635-8.666 2.635-3.307 0-6.158-.878-8.553-2.635s-4.4-4.264-5.985-7.52c-1.558-3.3-2.718-7.316-3.478-12.02-.76-4.756-1.14-10.1-1.14-16.054s.38-11.27 1.14-15.975c.76-4.756 1.92-8.8 3.478-12.098 1.596-3.3 3.6-5.84 6.044-7.6s5.3-2.638 8.608-2.638zm161.465 0c3.345 0 6.215.88 8.6 2.638s4.353 4.3 5.873 7.6c1.558 3.3 2.698 7.34 3.42 12.098.76 4.705 1.14 10.03 1.14 15.975s-.38 11.298-1.14 16.054c-.722 4.705-1.86 8.7-3.42 12.02-1.52 3.257-3.497 5.764-5.93 7.52-2.395 1.758-5.284 2.635-8.667 2.635-3.307 0-6.158-.878-8.553-2.635s-4.4-4.264-5.985-7.52c-1.558-3.3-2.718-7.316-3.478-12.02-.76-4.756-1.14-10.1-1.14-16.054s.38-11.27 1.14-15.975c.76-4.756 1.92-8.8 3.478-12.098 1.596-3.3 3.6-5.84 6.044-7.6s5.3-2.638 8.608-2.638zm-73.777 6.824a18.8 18.8 0 0 0-5.359.777 16.69 16.69 0 0 0-4.96 2.248c-1.558 1.034-3.002 2.352-4.332 3.954-1.292 1.603-2.395 3.515-3.307 5.738h-.97l-2.336-11.1H965.9v86.7h17.4v-40.8c0-4.6.2-8.688.57-12.255s1.008-6.565 1.882-8.995c.912-2.43 2.13-4.265 3.65-5.506s3.42-1.86 5.7-1.86c3.04 0 5.245 1.577 6.613 4.73 1.406 3.102 2.1 7.78 2.1 14.036v50.64h17.4v-56.52c0-5.584-.496-10.365-1.484-14.346-.988-4.033-2.394-7.342-4.22-9.927s-4-4.47-6.556-5.66c-2.547-1.24-5.38-1.86-8.496-1.86zm-50.434 96.682c-4.07 0-7.758.66-11.06 1.974-3.265 1.316-6.05 3.24-8.354 5.78-2.305 2.5-4.1 5.568-5.358 9.233-1.23 3.618-1.844 7.73-1.844 12.335 0 4.7.654 8.738 1.96 12.12 1.306 3.336 2.918 6.2 4.838 8.598 1.96 2.35 4.034 4.324 6.223 5.92s4.166 2.96 5.933 4.087c2.112 1.363 4.014 2.654 5.704 3.875 1.728 1.222 3.187 2.5 4.378 3.806 1.23 1.27 2.17 2.655 2.824 4.158.7 1.457 1.037 3.148 1.037 5.074 0 1.598-.2 3.08-.634 4.44-.384 1.316-1.017 2.465-1.9 3.452-.845.94-1.978 1.7-3.4 2.255-1.383.517-3.053.776-5.012.776-1.92 0-3.862-.234-5.82-.704a41.59 41.59 0 0 1-5.819-1.903 71.09 71.09 0 0 1-5.704-2.68l-5.587-3.17v20.298c3.226 2.067 6.722 3.617 10.486 4.65 3.802 1.034 7.74 1.55 11.8 1.55 4.647 0 8.756-.705 12.328-2.115 3.6-1.4 6.645-3.406 9.103-6 2.496-2.63 4.38-5.78 5.647-9.445 1.306-3.712 1.958-7.87 1.958-12.473 0-4.04-.48-7.565-1.44-10.572s-2.323-5.685-4.1-8.034c-1.728-2.396-3.803-4.56-6.223-6.485-2.42-1.973-5.07-3.9-7.95-5.78-2.38-1.55-4.416-2.937-6.106-4.158-1.652-1.222-3.016-2.42-4.092-3.595-1.037-1.175-1.805-2.42-2.304-3.735-.46-1.363-.7-2.913-.7-4.65 0-3.242.786-5.827 2.36-7.753 1.613-1.973 3.918-2.96 6.913-2.96 1.383 0 2.747.14 4.092.42 1.383.235 2.783.6 4.205 1.128a41.22 41.22 0 0 1 4.38 1.903 102.74 102.74 0 0 1 4.84 2.607l5.76-16.984a75.81 75.81 0 0 0-5.933-3.102 48.65 48.65 0 0 0-5.762-2.255 40.18 40.18 0 0 0-5.76-1.408c-1.92-.33-3.9-.495-5.935-.495zm39.35 1.482v103.04h17.86v-44.473h28.634v44.473h17.802v-103.04h-17.802v40.383h-28.634v-40.383zm78.698 0v12.404l10.256 5.78v66.67l-10.256 5.78v12.404h38.312v-12.404l-10.254-5.78v-66.67l10.254-5.78v-12.404zm52.658 0v103.04h15.958V444.92l-.058-4.44a119.94 119.94 0 0 0-.115-5.146l-.346-10.782-.576-12.547h.52l18.492 80.84h16.42l19.933-80.698h.46l-.403 12.333-.173 5.215-.23 10.22v52.93h16.65v-103.04h-24.312l-19.358 78.795h-.346l-18.204-78.795zM845.107 514.67v85.744h18.42c2.808 0 5.32-.566 7.532-1.7 2.237-1.134 4.13-2.758 5.676-4.87 1.57-2.15 2.772-4.75 3.605-7.8.833-3.1 1.25-6.587 1.25-10.497 0-3.363-.25-6.216-.75-8.562-.476-2.346-1.142-4.28-2-5.806-.833-1.564-1.82-2.777-2.962-3.638a12.48 12.48 0 0 0-3.64-2.053v-.586c1.285-.352 2.415-1.055 3.4-2.1 1-1.095 1.844-2.445 2.534-4.048s1.214-3.46 1.57-5.57.535-4.38.535-6.805c0-4.027-.428-7.407-1.285-10.144-.833-2.776-2.083-5.006-3.748-6.687-1.666-1.72-3.736-2.952-6.2-3.695-2.475-.782-5.354-1.172-8.638-1.172zm41.157 0v15.13h13.1v70.612h11.03V529.8h13.064v-15.13zm45.226 0v85.744h9.887v-40.35l-.107-7.508-.215-8.034-.357-8.975h.32l20.525 64.867h14.03V514.67h-9.924v43.87l.144 7.74.357 12.608h-.213l-20.5-64.218zm-75.316 14.896h5.246c2.713 0 4.688.724 5.926 2.17 1.26 1.408 1.892 3.753 1.892 7.037 0 1.642-.13 3.087-.393 4.34-.238 1.212-.643 2.23-1.214 3.052a5.49 5.49 0 0 1-2.248 1.875c-.928.4-2.083.586-3.463.586h-5.746zm0 33.487h6.2c1.523 0 2.795.255 3.818.764a6.2 6.2 0 0 1 2.464 2.171c.643.938 1.094 2.07 1.356 3.4.262 1.3.393 2.738.393 4.34 0 1.76-.13 3.363-.393 4.8s-.702 2.68-1.32 3.695a6.16 6.16 0 0 1-2.39 2.346c-.976.547-2.2.82-3.642.82h-6.496z" fill="#fff"/><circle r="17.005" cy="456.102" cx="899.124" fill="#fc0"/><path d="M228.78 544.003c-2.698 0-4.997.64-6.896 1.926-1.9 1.26-3.448 3.086-4.647 5.482s-2.078 5.324-2.637 8.782c-.54 3.458-.8 7.372-.8 11.744s.3 8.274.9 11.707c.62 3.433 1.55 6.347 2.788 8.743s2.798 4.225 4.677 5.484 4.087 1.89 6.626 1.89c2.698 0 4.997-.63 6.896-1.89 1.92-1.26 3.478-3.088 4.677-5.484 1.22-2.396 2.098-5.3 2.637-8.743.56-3.433.84-7.335.84-11.707 0-4.396-.3-8.323-.93-11.78s-1.56-6.386-2.818-8.782-2.828-4.222-4.707-5.482-4.077-1.89-6.596-1.89zm33.82 0c-2.698 0-4.997.64-6.896 1.926-1.9 1.26-3.448 3.086-4.647 5.482s-2.078 5.324-2.637 8.782c-.54 3.458-.8 7.372-.8 11.744s.3 8.274.9 11.707c.62 3.433 1.55 6.347 2.788 8.743s2.798 4.225 4.677 5.484 4.087 1.89 6.626 1.89c2.698 0 4.997-.63 6.896-1.89 1.92-1.26 3.478-3.088 4.677-5.484 1.22-2.396 2.098-5.3 2.637-8.743.56-3.433.84-7.335.84-11.707 0-4.396-.3-8.323-.93-11.78s-1.56-6.386-2.818-8.782-2.828-4.222-4.707-5.482-4.077-1.89-6.596-1.89zm66.53.074c-1.52 0-2.948.134-4.287.406a19.35 19.35 0 0 0-3.748 1.149c-1.16.47-2.24 1.025-3.238 1.667a21.69 21.69 0 0 0-2.729 2.112l4.677 7.63a22.09 22.09 0 0 1 1.59-1.259 12.74 12.74 0 0 1 1.949-1.185c.72-.37 1.49-.668 2.31-.9.84-.247 1.74-.37 2.7-.37 2.1 0 3.626.544 4.586 1.63.98 1.087 1.47 2.592 1.47 4.518 0 1.062-.15 2.064-.45 3.003s-.82 1.765-1.56 2.482c-.72.692-1.69 1.248-2.908 1.667-1.22.395-2.75.593-4.588.593h-3.057v8.04h3.117c1.96 0 3.61.173 4.948.52s2.42.84 3.238 1.48c.84.617 1.44 1.383 1.8 2.297.38.89.57 1.89.57 3 0 1.186-.15 2.285-.45 3.298-.28.988-.76 1.84-1.44 2.555s-1.59 1.272-2.73 1.667-2.568.593-4.287.593c-.86 0-1.78-.073-2.76-.22-.96-.148-1.938-.37-2.938-.667a29.83 29.83 0 0 1-2.999-1.149c-1-.445-1.95-.964-2.848-1.557v9.744c1.8.988 3.74 1.717 5.818 2.186 2.08.494 4.297.74 6.656.74 2.938 0 5.486-.407 7.645-1.222 2.18-.84 3.978-2 5.398-3.482a13.74 13.74 0 0 0 3.178-5.224c.7-2.025 1.05-4.225 1.05-6.596 0-3.58-.9-6.42-2.73-8.52-1.82-2.124-4.497-3.458-8.035-4v-.224c1.34-.395 2.58-.963 3.718-1.704a12.05 12.05 0 0 0 2.997-2.814c.86-1.136 1.53-2.446 2.008-3.928.5-1.507.75-3.2.75-5.076 0-2.05-.35-3.864-1.05-5.445-.68-1.605-1.65-2.952-2.908-4.038-1.26-1.11-2.78-1.953-4.558-2.52-1.76-.593-3.72-.888-5.877-.888zm68.81.074c-1.78 0-3.476.27-5.095.814s-3.05 1.372-4.29 2.484c-1.24 1.087-2.228 2.445-2.968 4.075-.72 1.605-1.08 3.48-1.08 5.63 0 1.605.18 3.076.54 4.4.38 1.334.88 2.556 1.5 3.667a16.83 16.83 0 0 0 2.249 3.003 26.71 26.71 0 0 0 2.759 2.482c-1.16.692-2.25 1.494-3.268 2.408s-1.91 1.963-2.67 3.148-1.36 2.52-1.8 4-.66 3.15-.66 5.002c0 2.248.32 4.274.96 6.077.66 1.803 1.62 3.32 2.878 4.555s2.808 2.186 4.647 2.853 3.937 1 6.295 1c2.18 0 4.168-.346 5.967-1.038 1.82-.692 3.378-1.68 4.677-2.964s2.3-2.84 3.03-4.668 1.08-3.866 1.08-6.114c0-1.803-.26-3.432-.78-4.89s-1.21-2.767-2.068-3.928a17.7 17.7 0 0 0-2.969-3.185 34.52 34.52 0 0 0-3.388-2.558 23.39 23.39 0 0 0 3.119-2.297 14.03 14.03 0 0 0 2.488-2.853c.7-1.087 1.25-2.284 1.65-3.593.4-1.334.6-2.816.6-4.446 0-2.198-.36-4.1-1.08-5.74s-1.69-2.988-2.908-4.075-2.64-1.903-4.26-2.447-3.338-.814-5.157-.814zm-214.22.703v54.165h9.144v-21.414h14.87v-9.373h-14.87v-13.97h15.98v-9.4zm182.2 0l-18.62 34.974v7.964h18.1v11.227h9.024v-11.227h5.276v-8.89h-5.276v-34.047zm-84.73.074v9.633h20.148l-15.6 44.458h9.683l15.98-46.903v-7.19zm116.69 7.595c.68 0 1.31.124 1.89.37a4.2 4.2 0 0 1 1.5 1.075c.42.47.75 1.05.99 1.74s.358 1.47.358 2.334c0 .988-.128 1.864-.388 2.63s-.61 1.458-1.05 2.076c-.42.593-.91 1.124-1.47 1.594a16.86 16.86 0 0 1-1.769 1.296c-.64-.445-1.25-.888-1.83-1.333-.56-.47-1.06-.99-1.5-1.557a8.04 8.04 0 0 1-1.019-2c-.24-.766-.36-1.668-.36-2.705 0-.864.12-1.642.36-2.334s.56-1.272.96-1.74c.42-.47.91-.828 1.47-1.075.58-.247 1.2-.37 1.86-.37zm-169.098.743c2.08 0 3.567 1.568 4.466 4.705.92 3.112 1.38 7.767 1.38 13.967 0 6.224-.46 10.88-1.38 13.967-.9 3.087-2.388 4.63-4.466 4.63-2.12 0-3.61-1.556-4.468-4.668s-1.288-7.755-1.288-13.93c0-3.087.1-5.792.3-8.113.2-2.346.53-4.297.99-5.853s1.05-2.73 1.77-3.52c.74-.8 1.64-1.185 2.7-1.185zm33.82 0c2.08 0 3.57 1.568 4.468 4.705.92 3.112 1.38 7.767 1.38 13.967 0 6.224-.46 10.88-1.38 13.967-.9 3.087-2.39 4.63-4.468 4.63-2.12 0-3.607-1.556-4.466-4.668s-1.3-7.755-1.3-13.93c0-3.087.1-5.792.3-8.113.2-2.346.53-4.297.99-5.853s1.048-2.73 1.768-3.52c.74-.8 1.64-1.185 2.7-1.185zm102.928 5.15h.27l-.1 1.222-.09 1.926-.1 2.334-.06 2.37-.06 2.076V578.9h-9.954l7.314-13.708c.58-1.16 1.09-2.322 1.53-3.482.46-1.16.868-2.258 1.228-3.296zm32.052 17.004l.66.52a63.56 63.56 0 0 1 2.1 1.704c.7.593 1.317 1.246 1.857 1.963a8.99 8.99 0 0 1 1.349 2.297c.36.815.54 1.742.54 2.78 0 2-.52 3.618-1.56 4.852-1.04 1.2-2.608 1.817-4.707 1.817-1 0-1.88-.16-2.64-.482a5.6 5.6 0 0 1-1.919-1.409c-.5-.593-.88-1.295-1.14-2.1-.26-.84-.4-1.754-.4-2.742 0-1.037.14-2 .42-2.9s.67-1.704 1.17-2.445a10.48 10.48 0 0 1 1.857-2.076c.72-.642 1.52-1.235 2.4-1.778z" fill="#fff"/></svg>