<?xml version="1.0" encoding="UTF-8" standalone="no"?>
<!-- Generator: Adobe Illustrator 16.0.0, SVG Export Plug-In . SVG Version: 6.00 Build 0)  -->

<svg
   xmlns:dc="http://purl.org/dc/elements/1.1/"
   xmlns:cc="http://creativecommons.org/ns#"
   xmlns:rdf="http://www.w3.org/1999/02/22-rdf-syntax-ns#"
   xmlns:svg="http://www.w3.org/2000/svg"
   xmlns="http://www.w3.org/2000/svg"
   xmlns:sodipodi="http://sodipodi.sourceforge.net/DTD/sodipodi-0.dtd"
   xmlns:inkscape="http://www.inkscape.org/namespaces/inkscape"
   version="1.1"
   id="Ebene_1"
   x="0px"
   y="0px"
   width="27.020882"
   height="24.944881"
   viewBox="0 0 27.020881 24.944882"
   enable-background="new 0 0 20.429 18.351"
   xml:space="preserve"
   sodipodi:docname="PANASONIC_D.svg"
   inkscape:version="0.92.2 (5c3e80d, 2017-08-06)"><metadata
     id="metadata41"><rdf:RDF><cc:Work
         rdf:about=""><dc:format>image/svg+xml</dc:format><dc:type
           rdf:resource="http://purl.org/dc/dcmitype/StillImage" /><dc:title></dc:title></cc:Work></rdf:RDF></metadata><defs
     id="defs39" /><sodipodi:namedview
     pagecolor="#ffffff"
     bordercolor="#666666"
     borderopacity="1"
     objecttolerance="10"
     gridtolerance="10"
     guidetolerance="10"
     inkscape:pageopacity="0"
     inkscape:pageshadow="2"
     inkscape:window-width="977"
     inkscape:window-height="1012"
     id="namedview37"
     showgrid="false"
     fit-margin-top="0"
     fit-margin-left="0"
     fit-margin-right="0"
     fit-margin-bottom="0"
     inkscape:zoom="12.860335"
     inkscape:cx="18.212501"
     inkscape:cy="9.1754979"
     inkscape:window-x="2361"
     inkscape:window-y="0"
     inkscape:window-maximized="0"
     inkscape:current-layer="Ebene_1" /><g
     id="g946"
     transform="translate(7.9980002,6.5938835)"><g
       transform="translate(-8.0000002,-3.3259425)"
       id="g913"><rect
         style="fill:#cccccc"
         id="rect2"
         height="1.272"
         width="1.039"
         y="8.5679998"
         x="0.0020000001" /><rect
         style="opacity:0.1"
         id="rect6"
         height="0.20299999"
         width="1.039"
         y="9.6379995"
         x="0.0020000001" /><rect
         style="opacity:0.2;fill:#ffffff"
         id="rect10"
         height="0.204"
         width="1.039"
         y="8.5679998"
         x="0.0020000001" /></g><g
       transform="translate(-1.4061191,-3.3259425)"
       id="g924"><g
         id="g918"><rect
           x="19.392"
           y="8.5679998"
           width="1.0369999"
           height="1.272"
           id="rect4"
           style="fill:#cccccc" /><rect
           x="19.392"
           y="9.6379995"
           width="1.0369999"
           height="0.20299999"
           id="rect8"
           style="opacity:0.1" /><rect
           x="19.392"
           y="8.5679998"
           width="1.0369999"
           height="0.204"
           id="rect12"
           style="opacity:0.2;fill:#ffffff" /></g></g><g
       transform="matrix(1.35932,0,0,1.35932,-8.3740523,-6.5938835)"
       id="g908"><path
         style="fill:#1a1a1a"
         inkscape:connector-curvature="0"
         id="path14"
         d="M 15.583,0 H 2.426 C 1.666,0 1.041,0.623 1.041,1.383 v 15.58 c 0,0.764 0.625,1.387 1.385,1.387 h 13.157 l 3.809,-3.811 V 10.906 7.271 3.808 Z" /><circle
         style="fill:#e6e6e6"
         id="circle16"
         r="8.7030001"
         cy="9.1750002"
         cx="10.216" /><path
         style="fill:#333333"
         inkscape:connector-curvature="0"
         id="path18"
         d="M 15.583,0 H 2.426 C 1.666,0 1.041,0.623 1.041,1.383 v 15.58 c 0,0.764 0.625,1.387 1.385,1.387 h 2.752 10.405 l 3.809,-3.811 V 10.906 7.271 3.808 Z" /><path
         inkscape:connector-curvature="0"
         id="path20"
         d="m 19.392,14.356 -3.809,3.811 H 5.178 2.426 c -0.76,0 -1.385,-0.623 -1.385,-1.387 v 0.184 c 0,0.764 0.625,1.387 1.385,1.387 h 2.752 10.405 l 3.809,-3.811 z" /><path
         style="opacity:0.1;fill:#ffffff"
         inkscape:connector-curvature="0"
         id="path22"
         d="m 1.041,1.568 c 0,-0.761 0.625,-1.384 1.385,-1.384 h 13.157 l 3.809,3.807 V 3.808 L 15.583,0 H 2.426 C 1.666,0 1.041,0.623 1.041,1.383 Z" /><path
         style="fill:#e6e6e6"
         inkscape:connector-curvature="0"
         id="path24"
         d="m 10.216,17.999 c -1.88,0 -3.615,-0.604 -5.038,-1.614 C 2.963,14.806 1.514,12.222 1.514,9.297 1.514,6.37 2.963,3.788 5.178,2.21 6.601,1.197 8.336,0.595 10.216,0.595 c 4.806,0 8.703,3.896 8.703,8.703 0,4.804 -3.898,8.701 -8.703,8.701 z" /><path
         inkscape:connector-curvature="0"
         id="path26"
         d="m 1.514,9.175 c 0,2.926 1.449,5.509 3.664,7.088 V 2.088 C 2.963,3.665 1.514,6.248 1.514,9.175 Z" /><path
         style="opacity:0.3;fill:#ffffff"
         inkscape:connector-curvature="0"
         id="path28"
         d="m 18.919,9.419 c 0,-4.807 -3.897,-8.703 -8.703,-8.703 -1.88,0 -3.615,0.604 -5.038,1.616 C 2.963,3.91 1.514,6.493 1.514,9.419 V 9.175 c 0,-2.927 1.449,-5.51 3.664,-7.087 1.423,-1.014 3.158,-1.615 5.038,-1.615 4.806,0 8.703,3.896 8.703,8.702 z" /><path
         style="opacity:0.5;fill:#ffffff"
         inkscape:connector-curvature="0"
         id="path30"
         d="m 1.514,8.946 c 0,2.925 1.449,5.508 3.664,7.088 v 0.229 C 2.963,14.684 1.514,12.101 1.514,9.175 Z" /><path
         style="opacity:0.2"
         inkscape:connector-curvature="0"
         id="path32"
         d="m 5.178,16.034 c 1.423,1.012 3.158,1.615 5.038,1.615 4.806,0 8.703,-3.898 8.703,-8.703 v 0.229 c 0,4.805 -3.897,8.703 -8.703,8.703 -1.88,0 -3.615,-0.604 -5.038,-1.615 z" /></g></g></svg>