<?xml version="1.0" encoding="UTF-8" standalone="no"?>
<!-- Generator: Adobe Illustrator 16.0.0, SVG Export Plug-In . SVG Version: 6.00 Build 0)  -->

<svg
   xmlns:dc="http://purl.org/dc/elements/1.1/"
   xmlns:cc="http://creativecommons.org/ns#"
   xmlns:rdf="http://www.w3.org/1999/02/22-rdf-syntax-ns#"
   xmlns:svg="http://www.w3.org/2000/svg"
   xmlns="http://www.w3.org/2000/svg"
   xmlns:sodipodi="http://sodipodi.sourceforge.net/DTD/sodipodi-0.dtd"
   xmlns:inkscape="http://www.inkscape.org/namespaces/inkscape"
   version="1.1"
   id="Ebene_1"
   x="0px"
   y="0px"
   width="5.7655201mm"
   height="5.17906mm"
   viewBox="0 0 20.429007 18.351"
   enable-background="new 0 0 20.429 18.351"
   xml:space="preserve"
   inkscape:version="0.91 r13725"
   sodipodi:docname="PANASONIC_C.svg"><metadata
     id="metadata41"><rdf:RDF><cc:Work
         rdf:about=""><dc:format>image/svg+xml</dc:format><dc:type
           rdf:resource="http://purl.org/dc/dcmitype/StillImage" /><dc:title></dc:title></cc:Work></rdf:RDF></metadata><defs
     id="defs39" /><sodipodi:namedview
     pagecolor="#ffffff"
     bordercolor="#666666"
     borderopacity="1"
     objecttolerance="10"
     gridtolerance="10"
     guidetolerance="10"
     inkscape:pageopacity="0"
     inkscape:pageshadow="2"
     inkscape:window-width="1253"
     inkscape:window-height="769"
     id="namedview37"
     showgrid="false"
     units="mm"
     inkscape:document-units="mm"
     inkscape:zoom="72.749039"
     inkscape:cx="24.092245"
     inkscape:cy="11.858929"
     inkscape:window-x="0"
     inkscape:window-y="0"
     inkscape:window-maximized="0"
     inkscape:current-layer="Ebene_1" /><g
     transform="matrix(1.3667531,0,0,1.3917156,-7.5144294,-3.6243603)"
     id="g4190"><rect
       style="fill:#cccccc"
       id="rect4192"
       height="1.272"
       width="1.0369999"
       y="8.5679998"
       x="19.392" /><rect
       style="opacity:0.1"
       id="rect4194"
       height="0.20299999"
       width="1.0369999"
       y="9.6379995"
       x="19.392" /><rect
       style="opacity:0.2;fill:#ffffff"
       id="rect4196"
       height="0.204"
       width="1.0369999"
       y="8.5679998"
       x="19.392" /></g><rect
     style="opacity:0.2;fill:#ffffff"
     id="rect13"
     height="0.204"
     width="1.039"
     y="8.5679998"
     x="0.0020000001" /><g
     id="g4185"
     transform="matrix(1.3667531,0,0,1.3917156,-26.497498,-3.6243603)"><rect
       x="19.392"
       y="8.5679998"
       width="1.0369999"
       height="1.272"
       id="rect7"
       style="fill:#cccccc" /><rect
       x="19.392"
       y="9.6379995"
       width="1.0369999"
       height="0.20299999"
       id="rect11"
       style="opacity:0.1" /><rect
       x="19.392"
       y="8.5679998"
       width="1.0369999"
       height="0.204"
       id="rect15"
       style="opacity:0.2;fill:#ffffff" /></g><path
     style="fill:#1a1a1a"
     inkscape:connector-curvature="0"
     id="path17"
     d="M 15.583,0 2.426,0 C 1.666,0 1.041,0.623 1.041,1.383 l 0,15.58 c 0,0.764 0.625,1.387 1.385,1.387 l 13.157,0 3.809,-3.811 0,-3.633 0,-3.635 0,-3.463 L 15.583,0 Z" /><circle
     style="fill:#e6e6e6"
     id="circle19"
     r="8.7030001"
     cy="9.1750002"
     cx="10.216" /><path
     style="fill:#333333"
     inkscape:connector-curvature="0"
     id="path21"
     d="M 15.583,0 2.426,0 C 1.666,0 1.041,0.623 1.041,1.383 l 0,15.58 c 0,0.764 0.625,1.387 1.385,1.387 l 2.752,0 10.405,0 3.809,-3.811 0,-3.633 0,-3.635 0,-3.463 L 15.583,0 Z" /><path
     inkscape:connector-curvature="0"
     id="path23"
     d="m 19.392,14.356 -3.809,3.811 -10.405,0 -2.752,0 c -0.76,0 -1.385,-0.623 -1.385,-1.387 l 0,0.184 c 0,0.764 0.625,1.387 1.385,1.387 l 2.752,0 10.405,0 3.809,-3.811 0,-0.184 z" /><path
     style="opacity:0.1;fill:#ffffff"
     inkscape:connector-curvature="0"
     id="path25"
     d="m 1.041,1.568 c 0,-0.761 0.625,-1.384 1.385,-1.384 l 13.157,0 3.809,3.807 0,-0.183 L 15.583,0 2.426,0 C 1.666,0 1.041,0.623 1.041,1.383 l 0,0.185 z" /><path
     style="fill:#e6e6e6"
     inkscape:connector-curvature="0"
     id="path27"
     d="m 10.216,17.999 c -1.88,0 -3.615,-0.604 -5.038,-1.614 C 2.963,14.806 1.514,12.222 1.514,9.297 1.514,6.37 2.963,3.788 5.178,2.21 6.601,1.197 8.336,0.595 10.216,0.595 c 4.806,0 8.703,3.896 8.703,8.703 0,4.804 -3.898,8.701 -8.703,8.701 z" /><path
     inkscape:connector-curvature="0"
     id="path29"
     d="m 1.514,9.175 c 0,2.926 1.449,5.509 3.664,7.088 l 0,-14.175 C 2.963,3.665 1.514,6.248 1.514,9.175 Z" /><path
     style="opacity:0.3;fill:#ffffff"
     inkscape:connector-curvature="0"
     id="path31"
     d="m 18.919,9.419 c 0,-4.807 -3.897,-8.703 -8.703,-8.703 -1.88,0 -3.615,0.604 -5.038,1.616 C 2.963,3.91 1.514,6.493 1.514,9.419 l 0,-0.244 c 0,-2.927 1.449,-5.51 3.664,-7.087 1.423,-1.014 3.158,-1.615 5.038,-1.615 4.806,0 8.703,3.896 8.703,8.702 l 0,0.244 z" /><path
     style="opacity:0.5;fill:#ffffff"
     inkscape:connector-curvature="0"
     id="path33"
     d="m 1.514,8.946 c 0,2.925 1.449,5.508 3.664,7.088 l 0,0.229 C 2.963,14.684 1.514,12.101 1.514,9.175 l 0,-0.229 z" /><path
     style="opacity:0.2"
     inkscape:connector-curvature="0"
     id="path35"
     d="m 5.178,16.034 c 1.423,1.012 3.158,1.615 5.038,1.615 4.806,0 8.703,-3.898 8.703,-8.703 l 0,0.229 c 0,4.805 -3.897,8.703 -8.703,8.703 -1.88,0 -3.615,-0.604 -5.038,-1.615 l 0,-0.229 z" /></svg>