<svg xmlns="http://www.w3.org/2000/svg" xmlns:xlink="http://www.w3.org/1999/xlink" width="260.448" viewBox="0 0 2713.237 2276.511" height="218.592"><style><![CDATA[.B{fill:#c2b59b}.C{font-family:Droid Sans}.D{fill:#ed1c24}.E{font-size:134px}.F{fill:#009444}.G{font-size:91px}.H{stroke-width:14}.I{fill:#00a651}]]></style><g stroke="#000" class="H"><path fill="none" d="M1146.056 2181.704h1281"/><path d="M2416.876 2181.54h78.722c81.875 0 148.14-53.847 148.14-120.375v-113.43h30.083c17.93 0 32.417-14.486 32.417-32.39V354.913c0-17.93-17.61-32.417-39.333-32.417h-23.14v-78.694c0-81.89-54.097-122.653-120.64-122.653H1148.278v-30.11c0-17.902-14.486-32.39-32.417-32.39H328.764c-17.917 0-32.403 17.583-32.403 39.333v23.14h-78.708c-81.89 0-148.153 53.847-148.153 120.36v113.445H39.403C21.486 354.927 7 369.413 7 387.316V1947.76c0 17.917 17.597 32.417 39.333 32.417h23.153v78.694c0 81.9 53.833 148.14 120.375 148.14h113.43v30.11c0 17.903 14.486 32.39 32.403 32.39h779.986c17.903 0 32.39-17.597 32.39-39.333l.222-48.625"/></g><use xlink:href="#B"/><g class="B"><circle r="19" cy="306.943" cx="525.236"/><path d="M455.417 234.37v108.042c16.222 0 29.208 0 29.39-20.61l-.194-73.75h83.236l-.167 73.75c-.208 20.61 13.028 20.61 29.417 20.61l-.097-.466V234.38H455.417v110.348"/></g><path d="M597.083 0h141.694v264.11H597.083z"/><g class="B"><circle r="19" cy="306.943" cx="666.931"/><path d="M597.084 234.37v108.042c16.222 0 29.208 0 29.403-20.61l-.194-73.75h83.222l-.153 73.75c-.208 20.61 13.014 20.61 29.417 20.61l-.11-.466V234.38H597.084v110.348"/></g><use xlink:href="#B" x="425.111"/><g class="B"><circle r="19" cy="306.943" cx="950.361"/><path d="M880.528 234.37v108.042c16.222 0 29.208 0 29.403-20.61l-.194-73.75h83.222l-.167 73.75c-.208 20.61 13.028 20.61 29.417 20.61l-.11-.466V234.38h-141.57v110.348"/></g><use xlink:href="#B" x="283.361"/><g class="B"><circle r="19" cy="306.943" cx="808.611"/><path d="M738.778 234.37v108.042c16.208 0 29.208 0 29.39-20.61l-.194-73.75h83.236l-.167 73.75c-.208 20.61 13.028 20.61 29.417 20.61l-.097-.466V234.38H738.778v110.348"/></g><path d="M874.306 458.76h-271.11l-.18 77.514c-.36 15.61 7.528 21.695 21.708 22.027 12 .297 23.972.24 35.958.254l186.208.155c19.056.14 28.82-6.098 27.708-26.987-1.264-23.79-.292-47.694-.292-72.958z" fill="#fff" stroke="#000" class="H"/><text y="-483.711" x="-815.538" transform="scale(-1)" font-size="76" class="C">CAN</text><path d="M1022.25 369.844v88.902H880.528v-88.902h141.722z" class="I"/><path d="M880.528 369.844v88.902h-141.68v-88.902h141.68z" fill="#fff200"/><path d="M738.792 369.844v88.902H597.07v-88.902h141.722z" class="I"/><path d="M597.07 369.844v88.902H455.39v-88.902h141.68z" fill="#fff200"/><use xlink:href="#B" x="448.305" y="1880.651"/><g class="B"><circle r="19" cy="2029.471" cx="975.57"/><path d="M1045.403 2102.04V1994.01c-16.222 0-29.208 0-29.403 20.584l.194 73.777h-83.222l.194-73.777h-.028c.208-20.584-13.028-20.584-29.417-20.584l.097.466v107.553h141.583v-110.348"/></g><use xlink:href="#B" x="306.625" y="1880.651"/><g class="B"><circle r="19" cy="2029.471" cx="833.889"/><path d="M903.723 2102.04V1994.01c-16.222 0-29.208 0-29.403 20.584l.194 73.777h-83.236l.194-73.777h-.028c.208-20.584-13.028-20.584-29.417-20.584l.097.466v107.553h141.597v-110.348"/></g><use xlink:href="#B" x="23.18" y="1880.651"/><g class="B"><circle r="19" cy="2029.471" cx="550.445"/><path d="M620.278 2102.04V1994.01c-16.222 0-29.208 0-29.403 20.584l.194 73.777h-83.236l.194-73.777H508c.208-20.584-13.028-20.584-29.403-20.584l.097.466v107.553h141.583v-110.348"/></g><path d="M620.36 1976.484h141.68v264.11H620.36z"/><g class="B"><circle r="19" cy="2029.471" cx="692.209"/><path d="M762.042 2102.04V1994.01c-16.222 0-29.208 0-29.39 20.584l.18 73.777H649.61l.194-73.777h-.028c.208-20.584-13.028-20.584-29.417-20.584l.11.466v107.553h141.57v-110.348"/></g><g stroke="#009444" class="H"><path d="M762.028 1966.58v-88.916h141.708v88.916H762.028z"/><path d="M911.667 1966.58v-88.916h127.792v88.916H911.667z" class="D"/></g><path d="M195.458 1724.316c-25.375 0-45.944 20.542-45.944 45.862 0 25.333 20.57 45.903 45.944 45.903l536.82-.622c16.264-.297 30.542 4.653 29.75 21.083-.708 14.667 0 29.806 0 41.112l283.375.862v-116.82c0-36.93-.194-37.125-37.86-37.346h-6.32c-262.39 0-543.375-.14-805.764 0z" class="F"/><path d="M444.18 1905.262l-263.5.24c-17.43 0-31.556-20.098-31.556-44.876s14.125-44.874 31.556-44.874h557.5c25.86.226 26 .4 26 36.527v114.292H456.653c0-11.07-.875-21.097-.375-35.443.542-16.056-2.847-26.278-14.014-25.973z" fill="#2e3192"/><path d="M26.583 701.32H291.07v141.486H26.583z"/><g class="B"><circle r="19" cy="773.067" cx="238"/><path d="M165.32 842.802h108.208c0-16.207 0-29.166-20.625-29.36l-73.86.198v-83.11l73.86.198c20.625.226 20.625-13 20.625-29.36l-.472.14H165.32v141.376h110.514"/></g><path d="M26.583 842.872H291.07v141.486H26.583z"/><g class="B"><circle r="19" cy="914.609" cx="238"/><path d="M165.32 984.345h108.208c0-16.208 0-29.167-20.625-29.348l-73.86.198v-83.11l73.86.198c20.625.212 20.625-13 20.625-29.375l-.472.14H165.32v141.36h110.514"/></g><g stroke="#009444" class="H"><path d="M291.07 701.288h98.958v141.5H291.07v-141.5z"/><path d="M291.07 842.802h98.958v141.472H291.07V842.802z" class="D"/></g><path d="M389.25 930.997c37.347 0 62.764.862 97.792-.82 6.417-.297 17.486-10.82 17.667-16.904 1.5-45.6 1.403-91.32.11-136.958-.18-6.07-9.764-16.723-15.347-16.973-36.292-1.54-62.944-.805-100.222-.805v172.46z" class="F"/><text y="-410.026" x="797.31" transform="rotate(90)" font-size="76" class="C">Vin</text><path d="M1368.2 1773.192h-90.667V1661.6c1.125-19.9 22.097-39.528 42.542-39.6 25.792-.14 48.153 15.013 48.125 35.972l.014 103.93m278.706 11.3h-90.68V1661.6c1.14-19.9 22.125-39.528 42.555-39.6 25.764-.14 48.125 15.013 48.125 35.972v103.93m278.696 11.3h-90.64V1661.6c1.097-19.9 22.097-39.528 42.528-39.6 25.806-.14 48.167 15.013 48.125 35.972l.028 103.93m281.417 11.3h-90.667V1661.6c1.125-19.9 22.1-39.528 42.542-39.6 25.778-.14 48.125 15.013 48.125 35.972v103.93m91.096 11.3l-1103.153.17c-27.6 1.243-21.014-4.528-23.153 22.93v76.167H2309.04v-89.097c.167-9.93-2.278-10.014-10.86-10.167z" class="F"/><path d="M2163.75 1877.2h141.694v264.097H2163.75z"/><g class="B"><circle r="19" cy="1930.18" cx="2235.598"/><path d="M2305.445 2002.747v-108.04c-16.236 0-29.208 0-29.39 20.597l.194 73.75h-83.236l.195-73.75h-.028c.222-20.597-13.028-20.597-29.417-20.597l.125.466v107.568h141.555v-110.347"/></g><path d="M2022.07 1877.2h141.667v264.097H2022.07z"/><g class="B"><circle r="19" cy="1930.18" cx="2093.918"/><path d="M2163.75 2002.747v-108.04c-16.208 0-29.194 0-29.39 20.597l.208 73.75h-83.236l.195-73.75h-.028c.222-20.597-13.028-20.597-29.403-20.597l.098.466v107.568h141.556v-110.347"/></g><path d="M1738.64 1877.2h141.68v264.097h-141.68z"/><g class="B"><circle r="19" cy="1930.18" cx="1810.473"/><path d="M1880.32 2002.747v-108.04c-16.222 0-29.222 0-29.403 20.597l.194 73.75H1767.9l.194-73.75h-.028c.208-20.597-13.028-20.597-29.403-20.597l.098.466v107.568h141.57v-110.347"/></g><path d="M1880.4 1877.2h141.68v264.097H1880.4z"/><g class="B"><circle r="19" cy="1930.18" cx="1952.237"/><path d="M2022.07 2002.747v-108.04c-16.222 0-29.208 0-29.403 20.597l.208 73.75h-83.222l.195-73.75h-.042c.208-20.597-13.014-20.597-29.403-20.597l.098.466v107.568h141.57v-110.347"/></g><path d="M1596.96 1877.2h141.68v264.097h-141.68z"/><g class="B"><circle r="19" cy="1930.18" cx="1668.806"/><path d="M1738.64 2002.747v-108.04c-16.236 0-29.222 0-29.39 20.597l.18 73.75h-83.222l.18-73.75c.208-20.597-13.028-20.597-29.417-20.597l.11.466v107.568h141.556v-110.347"/></g><path d="M1455.278 1877.2h141.68v264.097h-141.68z"/><g class="B"><circle r="19" cy="1930.18" cx="1527.126"/><path d="M1596.96 2002.747v-108.04c-16.236 0-29.208 0-29.39 20.597l.194 73.75h-83.236l.194-73.75h-.028c.222-20.597-13.028-20.597-29.403-20.597l.098.466v107.568h141.57v-110.347"/></g><path d="M1313.556 1877.2h141.694v264.097h-141.694z"/><g class="B"><circle r="19" cy="1930.18" cx="1385.403"/><path d="M1455.25 2002.747v-108.04c-16.236 0-29.222 0-29.403 20.597l.195 73.75h-83.222l.194-73.75h-.028c.208-20.597-13.028-20.597-29.417-20.597l.11.466v107.568h141.57v-110.347"/></g><path d="M1171.875 1877.2h141.68v264.097h-141.68z"/><g class="B"><circle r="19" cy="1930.18" cx="1243.723"/><path d="M1313.556 2002.747v-108.04c-16.222 0-29.208 0-29.403 20.597l.194 73.75h-83.236l.194-73.75h-.028c.208-20.597-13.028-20.597-29.403-20.597l.098.466v107.568h141.583v-110.347"/></g><path d="M1175.084 1867.29v-88.918h138.472v88.918h-138.472z" class="D"/><path d="M1313.556 1867.29v-88.918h141.722v88.918h-141.722z"/><path d="M1455.25 1867.29v-88.918h141.708v88.918H1455.25z" class="D"/><path d="M1596.96 1867.29v-88.918h141.68v88.918h-141.68z"/><path d="M1738.612 1867.29v-88.918h141.708v88.918h-141.708z" class="D"/><path d="M1880.32 1867.29v-88.918h141.667v88.918H1880.32z"/><path d="M2022.056 1867.29v-88.918h141.708v88.918h-141.708z" class="D"/><path d="M2163.765 1867.29v-88.918h141.68v88.918h-141.68z"/><path d="M2111.362 548.5h90.68v111.583c-1.125 19.9-22.1 39.528-42.556 39.6-25.778.14-48.14-15.013-48.125-35.958l-.014-103.945m-278.68-11.3h90.667v111.583c-1.14 19.9-22.1 39.528-42.542 39.6-25.764.14-48.125-15.013-48.125-35.958V559.802m-281.32-11.302H1642v111.583c-1.1 19.9-22.125 39.528-42.542 39.6-25.792.14-48.153-15.013-48.125-35.958l-.014-103.945m-281.416-11.3h90.68v111.583c-1.14 19.9-22.1 39.528-42.556 39.6-25.778.14-48.125-15.013-48.125-35.958V559.802m-91.096-11.302l1103.167-.17c27.597-1.215 21.014 4.542 23.14-22.93v-76.167H1167.917v89.1c-.14 9.903 2.306 10 10.9 10.153z" class="F"/><use xlink:href="#B" x="716.125" y="84.579"/><g class="B"><circle r="19" cy="391.522" cx="1241.375"/><path d="M1171.542 318.955v108.04c16.222 0 29.208 0 29.403-20.61l-.195-73.75h83.222l-.153 73.75c-.208 20.61 13.028 20.61 29.417 20.61l-.098-.466V318.963h-141.597V429.31"/></g><path d="M1313.223 180.412h141.667v264.11h-141.667z"/><g class="B"><circle r="19" cy="391.522" cx="1383.056"/><path d="M1313.223 318.955v108.04c16.222 0 29.208 0 29.403-20.61l-.195-73.75h83.222l-.167 73.75c-.222 20.61 13.028 20.61 29.403 20.61l-.098-.466V318.963h-141.57V429.31"/></g><path d="M1596.653 180.412h141.667v264.11h-141.667z"/><g class="B"><circle r="19" cy="391.522" cx="1666.487"/><path d="M1596.653 318.955v108.04c16.222 0 29.208 0 29.39-20.61l-.194-73.75h83.222l-.166 73.75c-.208 20.61 13.028 20.61 29.403 20.61l-.098-.466V318.963h-141.556V429.31"/></g><use xlink:href="#B" x="999.473" y="84.579"/><g class="B"><circle r="19" cy="391.522" cx="1524.737"/><path d="M1454.89 318.955v108.04c16.236 0 29.208 0 29.403-20.61l-.208-73.75h83.236l-.167 73.75c-.222 20.61 13.028 20.61 29.403 20.61l-.097-.466V318.963H1454.9V429.31"/></g><use xlink:href="#B" x="1282.917" y="84.579"/><g class="B"><circle r="19" cy="391.522" cx="1808.167"/><path d="M1738.334 318.955v108.04c16.236 0 29.222 0 29.403-20.61l-.194-73.75h83.236l-.208 73.75h.028c-.208 20.61 13.028 20.61 29.403 20.61l-.098-.466V318.963h-141.57V429.31"/></g><path d="M1880.015 180.412h141.694v264.11h-141.694z"/><g class="B"><circle r="19" cy="391.522" cx="1949.862"/><path d="M1880.015 318.955v108.04c16.236 0 29.222 0 29.403-20.61l-.194-73.75h83.222l-.208 73.75h.028c-.194 20.61 13.028 20.61 29.43 20.61l-.125-.466V318.963h-141.556V429.31"/></g><use xlink:href="#B" x="1566.32" y="84.579"/><g class="B"><circle r="19" cy="391.522" cx="2091.556"/><path d="M2021.737 318.955v108.04c16.222 0 29.208 0 29.403-20.61l-.208-73.75h83.222l-.166 73.75c-.222 20.61 13.028 20.61 29.417 20.61l-.11-.466V318.963h-141.556V429.31"/></g><use xlink:href="#B" x="1708" y="84.579"/><g class="B"><circle r="19" cy="391.522" cx="2233.251"/><path d="M2163.417 318.955v108.04c16.222 0 29.195 0 29.39-20.61l-.208-73.75h83.236l-.166 73.75c-.222 20.61 13.028 20.61 29.417 20.61l-.11-.466V318.963h-141.556V429.31"/></g><path d="M2301.9 454.413v88.904h-138.472v-88.904H2301.9z" class="D"/><path d="M2163.417 454.413v88.904H2021.71v-88.904h141.708z"/><path d="M2021.737 454.413v88.904h-141.722v-88.904h141.722z" class="D"/><path d="M1880.015 454.413v88.904h-141.68v-88.904h141.68z"/><path d="M1738.376 454.413v88.904h-141.708v-88.904h141.708z" class="D"/><path d="M1596.653 454.413v88.904h-141.68v-88.904h141.68z"/><path d="M1454.903 454.413v88.904H1313.21v-88.904h141.694z" class="D"/><path d="M1313.21 454.413v88.904h-141.68v-88.904h141.68z"/><text y="1801.397" x="214.301" font-size="76.389" class="C">COMPRESSOR OUT</text><path d="M1244.32 774.26v585.154c0 36.903-15.86 52.32-52.625 52.292-172.167-.14-344.334-.14-516.5 0-36.583 0-52.153-16.625-51.917-52.61l-.153-257.834c-.194-30.556 16.333-49.237 46.833-49.333H854.11c35.07-.14 43.264-8.514 43.306-43.764l.042-233.9h346.86zm-21.708 478.71H1021.57v98.916h201.042v-98.916z" class="F"/><path d="M1222.612 1253.816v98.945H1021.57v-98.945h201.042zm-18.903 77.64v-56.735h-164.25v56.735h164.25z" fill="#fff"/><path d="M1132.445 1092.997v118.375h-27c-61.375 0-122.75-.254-184.125.452-10.875.14-14.708-1.286-14.347-13.4 1-34.43.36-68.917.36-105.43h225.1zm-212.958 7.47v99.68h200.736v-99.68H919.486zm269.36 34.03v31.958h-32.278v-31.958h32.278zM953.7 1286.566h30.986v31.722H953.7v-31.722zm264.402-477.486v57.028H924.486V809.08h293.625zm-10.93 8.3H934.93v39.278h272.25V817.37zm-3.472 514.085h-164.25v-56.735h164.25v56.735zm-153.917-9.346h142.57v-38.694h-142.57v38.694z"/><path d="M919.486 1100.47h200.736v99.68H919.486v-99.68zM1100 1122.04H940.82v56.902H1100v-56.902zm107.18-304.67v39.278H934.93V817.37h272.25zm-152.097 3.473v33.208h31.208v-33.208h-31.208zM952.6 854.177h32.18v-32.694H952.6v32.694zm235.972.5v-33.722h-31.708v33.722h31.708zm-138.8 467.423v-38.694h142.57v38.694h-142.57zm138.958-35.404h-32.167v32.793h32.167v-32.793zm-133.528-.424v32.862h31.68v-32.862h-31.68z" fill="#fff"/><path d="M1100 1122.04v56.902H940.82v-56.902H1100zm-9.556 9.194H950.43v38.446h140.014v-38.446zm-35.36-310.4h31.208v33.208h-31.208v-33.208zM952.6 854.177v-32.694h32.18v32.694H952.6zm235.974.513h-31.708v-33.72h31.708v33.722zm.166 432.015v32.793h-32.167v-32.793h32.167zm-133.527-.417h31.68v32.862h-31.68v-32.862z"/><path d="M1090.445 1131.232v38.446H950.43v-38.446h140.014zm-137.472 2.708v33.07h32.278v-33.07h-32.278zm135.014.212h-32.555v32.61h32.555v-32.6z" fill="#fff"/><path d="M952.973 1133.94h32.278V1167h-32.278v-33.07zm135.014.2v32.6h-32.555v-32.6h32.555z"/><text y="1028.565" x="984.019" class="C G">VSOL</text><text y="1170.455" x="685.44" class="C G">12V</text><text y="1320.368" x="685.44" class="C G">24V</text><text y="1754.314" x="1285.311" class="C E">0</text><path d="M1602.848 1189.303l260.208.014c38.722 0 51.18 16.166 50 64.9-.75 32.32-17.722 46.93-51.07 46.777l-317.32-.014c-36.042.212-42.5 7.6-43.93 43.278-.43 11.847 1.292 24.1-1.278 35.46-4.944 22.04-20.264 33.25-42.6 33.4h-120.57c-27.694-.24-44.597-19.834-44.083-47.694.806-42.222 1.042-84.5.195-126.723-.625-31.167 15.055-49.3 46.014-49.32h264.445zm-206.32 122.305v-.198h-33.847c-51.722 0-51.722 0-50.597 51.32.514 23.53 6.306 29.348 30.583 29.556l84.64.14c55.097 0 56.903-2.125 53.764-57.2-.93-16.707-8.68-24.027-25.306-23.65-19.708.466-39.472.14-59.236.14zm205.362-162.472h-264.6c-28.625 0-45.528-19.445-44.93-48.764a3090.98 3090.98 0 0 0-.028-126.834c-.625-30.154 15.014-47.472 45.43-47.458h118.556c29.18 0 45.736 17.22 44.694 46.263-2.167 59.96 2.4 64.653 62.917 64.653h298.556c39.4 0 51.6 15.57 50.597 64.362-.708 33.583-17.056 47.304-52.875 47.1l-258.32-.17c.014.268.014.523.014.8zm-207.64-121.473v.24h33.792c52 0 52.986-1.75 53.306-52.625.153-21.083-9-29.597-28.6-29.75l-88.708-.367c-52.097 0-52.875 1.356-52.236 52.902.25 19.68 9.125 28.806 27.542 29.472 18.292.65 36.6.14 54.917.14z" class="F"/><path d="M1396.528 1311.608l59.25-.14c16.625-.38 24.375 6.944 25.306 23.653 3.14 55.082 1.333 57.207-53.764 57.207-28.208 0-56.43.17-84.64-.14-24.292-.212-30.07-6.027-30.583-29.556-1.125-51.318-1.125-51.318 50.597-51.318h33.847c-.014.14-.014.14-.014.198zm-2.278-283.945c-18.306 0-36.64.5-54.917-.155-18.417-.664-27.292-9.8-27.542-29.473-.625-51.527.14-52.96 52.236-52.902l88.708.367c19.597.155 28.75 8.68 28.6 29.75-.306 50.875-1.306 52.624-53.306 52.624h-33.792v-.226z" fill="#58595b"/><text y="1132.016" x="1431.243" class="C G">STATUS</text><text y="1281.929" x="1456.656" class="C G">COMP</text><text y="2649.734" x="-1900.325" transform="rotate(270)" font-size="111" class="C I">Pneumatics Control Module</text><text y="1892.399" x="219.346" font-size="76" fill="#fff" class="C">PRESSURE SW</text><text y="1755.622" x="1566.535" class="C E">1</text><text y="1755.622" x="1845.858" class="C E">2</text><text y="1754.314" x="2130.108" class="C E">3</text><text y="-565.69" x="-2192.342" transform="scale(-1)" class="C E">4</text><text y="-566.214" x="-1910.152" transform="scale(-1)" class="C E">5</text><text y="-564.84" x="-1630.21" transform="scale(-1)" class="C E">6</text><text y="-566.196" x="-1348.737" transform="scale(-.99996841 -1.0000316)" font-size="133.996" class="C">7</text><defs ><path id="B" d="M455.417 95.833h141.68v264.11h-141.68z"/></defs></svg>