<?xml version="1.0" encoding="UTF-8" standalone="no"?>
<!-- Generator: Adobe Illustrator 20.0.0, SVG Export Plug-In . SVG Version: 6.00 Build 0)  -->

<svg
   xmlns:dc="http://purl.org/dc/elements/1.1/"
   xmlns:cc="http://creativecommons.org/ns#"
   xmlns:rdf="http://www.w3.org/1999/02/22-rdf-syntax-ns#"
   xmlns:svg="http://www.w3.org/2000/svg"
   xmlns="http://www.w3.org/2000/svg"
   xmlns:sodipodi="http://sodipodi.sourceforge.net/DTD/sodipodi-0.dtd"
   xmlns:inkscape="http://www.inkscape.org/namespaces/inkscape"
   version="1.2"
   id="Layer_1"
   x="0px"
   y="0px"
   width="2.5032341mm"
   height="2.8999999mm"
   viewBox="0 0 8.869728 10.275591"
   xml:space="preserve"
   inkscape:version="0.92.2 (5c3e80d, 2017-08-06)"
   sodipodi:docname="pg-tsop6-6.svg"><metadata
     id="metadata29"><rdf:RDF><cc:Work
         rdf:about=""><dc:format>image/svg+xml</dc:format><dc:type
           rdf:resource="http://purl.org/dc/dcmitype/StillImage" /><dc:title></dc:title></cc:Work></rdf:RDF></metadata><defs
     id="defs27" /><sodipodi:namedview
     pagecolor="#ffffff"
     bordercolor="#666666"
     borderopacity="1"
     objecttolerance="10"
     gridtolerance="10"
     guidetolerance="10"
     inkscape:pageopacity="0"
     inkscape:pageshadow="2"
     inkscape:window-width="1609"
     inkscape:window-height="1050"
     id="namedview25"
     showgrid="false"
     units="mm"
     inkscape:document-units="mm"
     inkscape:zoom="31.277225"
     inkscape:cx="0.99667164"
     inkscape:cy="6.5665974"
     inkscape:window-x="574"
     inkscape:window-y="99"
     inkscape:window-maximized="0"
     inkscape:current-layer="Layer_1"
     fit-margin-top="0"
     fit-margin-left="0"
     fit-margin-right="0"
     fit-margin-bottom="0"
     showguides="false"
     inkscape:measure-start="9.36784,2.14214"
     inkscape:measure-end="9.39981,-0.0959164"><inkscape:grid
       type="xygrid"
       id="grid8103"
       units="mm"
       spacingx="1.7716538"
       spacingy="1.7716538"
       originx="-28.116702"
       originy="13.020823" /><sodipodi:guide
       position="-3.3135488,48.453898"
       orientation="1,0"
       id="guide5193"
       inkscape:locked="false" /></sodipodi:namedview><g
     id="g921"
     transform="translate(-0.85679233,-1.4391251)"><rect
       transform="rotate(-90)"
       x="-9.9430714"
       y="8.131094"
       width="1.0629921"
       height="1.594488"
       id="rect2-0"
       style="fill:#dcdcdc;stroke-width:0.35960644" /><rect
       transform="rotate(-90)"
       x="-7.1084156"
       y="8.1320324"
       width="1.0629921"
       height="1.594488"
       id="rect4-7-0"
       style="fill:#dcdcdc;stroke-width:0.35957727" /><rect
       transform="rotate(-90)"
       x="-4.1742096"
       y="8.1320324"
       width="1.0629921"
       height="1.594488"
       id="rect6-8"
       style="fill:#dcdcdc;stroke-width:0.3595773" /><rect
       transform="rotate(-90)"
       x="-9.9430714"
       width="1.0629921"
       height="1.594488"
       id="rect8-1"
       y="0.86589801"
       style="fill:#dcdcdc;stroke-width:0.16331142" /><rect
       transform="rotate(-90)"
       y="2.4627542"
       width="10.275591"
       height="5.669291"
       id="rect10-5"
       x="-11.714716"
       style="fill:#333333;stroke-width:0.54398429" /><rect
       transform="rotate(-90)"
       x="-4.1742096"
       y="0.85903823"
       width="1.0629921"
       height="1.594488"
       id="rect2-4-5"
       style="fill:#dcdcdc;stroke-width:0.35960644" /><g
       transform="matrix(4.9592894e-4,-0.08048972,-0.08048972,-4.9592894e-4,4.8065207,9.5978639)"
       id="g10-2-2"
       style="fill:#999999"><g
         transform="scale(0.1)"
         id="g12-5-8"
         style="fill:#999999"><path
           inkscape:connector-curvature="0"
           id="path14-46-4"
           style="fill:#999999;fill-opacity:1;fill-rule:nonzero;stroke:none"
           d="M 57.5977,101.664 H 100.801 L 115.195,31.1094 H 70.5547 l -12.957,70.5546" /><path
           inkscape:connector-curvature="0"
           id="path16-0-2"
           style="fill:#999999;fill-opacity:1;fill-rule:nonzero;stroke:none"
           d="m 48.957,139.105 c 0,-12.957 10.086,-23.035 21.5977,-23.035 12.9609,0 23.0469,10.078 23.0469,23.035 0,11.524 -10.086,21.602 -23.0469,21.602 -11.5117,0 -21.5977,-10.078 -21.5977,-21.602" /><path
           inkscape:connector-curvature="0"
           id="path18-6-5"
           style="fill:#999999;fill-opacity:1;fill-rule:nonzero;stroke:none"
           d="m 37.4414,130.473 7.1992,-10.078 C 31.6797,110.309 23.0352,94.4688 23.0352,78.6289 c 0,-7.1992 1.4453,-14.3945 5.7617,-21.6016 8.6445,-20.1562 25.9219,-34.5625 47.5234,-40.3125 10.0781,-2.8828 20.1524,-4.3281 30.2427,-4.3281 14.394,0 30.234,2.8828 44.636,8.6446 L 123.84,141.988 c -1.438,0 -2.883,0 -4.32,0 -5.758,0 -11.524,0 -17.286,0 v 7.207 c 10.079,0 21.606,-1.445 31.68,-4.328 L 161.277,22.4648 C 142.559,10.9531 119.52,3.75391 97.918,3.75391 c 0,0 0,0 -1.4453,0 C 69.1211,3.75391 41.7578,13.832 20.1563,32.5547 7.19922,44.0664 0,59.9063 0,75.7461 0,100.23 14.3945,121.832 37.4414,130.473" /><path
           inkscape:connector-curvature="0"
           id="path20-8-3"
           style="fill:#999999;fill-opacity:1;fill-rule:nonzero;stroke:none"
           d="m 239.723,1.60156 h 20 v 150.801 h -20 z" /><path
           inkscape:connector-curvature="0"
           id="path22-7-1"
           style="fill:#999999;fill-opacity:1;fill-rule:nonzero;stroke:none"
           d="m 303.516,91 h 0.398 c 4.199,8.1992 10.402,13.199 20.402,13.199 20,0 20.602,-17.7967 20.602,-33.199 V 1.60156 H 326.117 V 71.4023 c 0,7 -1.199,16 -11.199,16 -12.402,0 -11.402,-14.1992 -11.402,-22.8046 V 1.60156 H 284.719 V 102.602 h 18.797 V 91" /><path
           inkscape:connector-curvature="0"
           id="path24-94-0"
           style="fill:#999999;fill-opacity:1;fill-rule:nonzero;stroke:none"
           d="m 371.113,102.602 v 32.597 c 0,17.203 1.403,34 22.797,34 4.801,0 8.403,-0.996 12.606,-2.797 v -19.601 c -2.606,1.402 -4.801,2.398 -7.805,2.398 -9.602,0 -8.801,-9.398 -8.801,-16.195 v -30.402 h 15.602 V 87.8008 H 389.91 V 1.60156 H 371.113 V 87.8008 h -9.398 v 14.8012 h 9.398" /><path
           inkscape:connector-curvature="0"
           id="path26-1-9"
           style="fill:#999999;fill-opacity:1;fill-rule:nonzero;stroke:none"
           d="m 416.914,133.203 c 0,6.797 5.598,12.399 12.598,12.399 6.601,0 12.402,-5.602 12.402,-12.399 0,-7.004 -5.801,-12.601 -12.402,-12.601 -7,0 -12.598,5.597 -12.598,12.601 z M 438.711,1.60156 H 419.91 V 102.602 h 18.801 V 1.60156" /><path
           inkscape:connector-curvature="0"
           id="path28-45-0"
           style="fill:#999999;fill-opacity:1;fill-rule:nonzero;stroke:none"
           d="m 478.91,91 h 0.403 c 4.199,8.1992 10.398,13.199 20.398,13.199 20,0 20.602,-17.7967 20.602,-33.199 V 1.60156 H 501.508 V 71.4023 c 0,7 -1.195,16 -11.195,16 -12.403,0 -11.403,-14.1992 -11.403,-22.8046 V 1.60156 H 460.113 V 102.602 H 478.91 V 91" /><path
           inkscape:connector-curvature="0"
           id="path30-5-2"
           style="fill:#999999;fill-opacity:1;fill-rule:nonzero;stroke:none"
           d="m 557.906,48.4023 c 0,-8.4023 -0.394,-31.6015 11.801,-31.6015 10,0 11.801,11.0039 11.801,18.8008 h 17.398 C 598.906,17.0039 590.707,0 569.508,0 c -28.199,0 -30.801,30 -30.801,51.4023 0,20.5977 2.402,52.7967 30.199,52.7967 27.403,0 30.602,-31.9959 30.602,-52.7967 v -3 z m 22.403,13.3985 c 0,7.7969 0,25.6015 -11.403,25.6015 -11.797,0 -11,-17.8046 -11,-25.6015 h 22.403" /><path
           inkscape:connector-curvature="0"
           id="path32-8-7"
           style="fill:#999999;fill-opacity:1;fill-rule:nonzero;stroke:none"
           d="m 614.906,51.8008 c 0,22.0039 3,52.3982 31.797,52.3982 28.805,0 31.805,-30.3943 31.805,-52.3982 C 678.508,30.6016 675.508,0 646.703,0 617.906,0 614.906,30.6016 614.906,51.8008 Z m 44.403,0 c 0,8 1.796,35.1992 -12.606,35.1992 -14.398,0 -12.598,-27.1992 -12.598,-35.1992 0,-7.2031 -1.8,-34.5977 12.598,-34.5977 14.402,0 12.606,27.3946 12.606,34.5977" /><path
           inkscape:connector-curvature="0"
           id="path34-2-8"
           style="fill:#999999;fill-opacity:1;fill-rule:nonzero;stroke:none"
           d="m 715.707,91 h 0.402 c 4.2,8.1992 10.395,13.199 20.395,13.199 20,0 20.601,-17.7967 20.601,-33.199 V 1.60156 h -18.8 V 71.4023 c 0,7 -1.2,16 -11.2,16 -12.398,0 -11.398,-14.1992 -11.398,-22.8046 V 1.60156 H 696.902 V 102.602 h 18.805 V 91" /></g></g><text
       transform="rotate(-90)"
       id="text2187-46-9"
       y="6.8106375"
       x="-9.442482"
       style="font-style:normal;font-weight:normal;font-size:37.50000381px;line-height:1.25;font-family:sans-serif;letter-spacing:0px;word-spacing:0px;fill:#999999;fill-opacity:1;stroke:none;stroke-width:0.93750006"
       xml:space="preserve"><tspan
         style="font-style:normal;font-variant:normal;font-weight:normal;font-stretch:normal;font-size:1.625px;font-family:Tahoma;-inkscape-font-specification:'Tahoma, Normal';font-variant-ligatures:normal;font-variant-caps:normal;font-variant-numeric:normal;font-feature-settings:normal;text-align:start;writing-mode:lr-tb;text-anchor:start;fill:#999999;stroke-width:0.93750006"
         y="6.8106375"
         x="-9.442482"
         id="tspan2185-2-5"
         sodipodi:role="line">TLV493D</tspan></text>
<rect
       transform="rotate(90)"
       x="6.0454164"
       y="-2.4512806"
       width="1.0629921"
       height="1.5944883"
       id="rect4-7-0-9"
       style="fill:#dcdcdc;stroke-width:0.35957727" /><ellipse
       ry="0.3803978"
       rx="0.38039926"
       cy="10.809269"
       cx="7.2540922"
       id="path5217"
       style="opacity:1;fill:#4d4d4d;fill-opacity:1;stroke:none;stroke-width:0.9076308;stroke-linecap:butt;stroke-linejoin:miter;stroke-miterlimit:10;stroke-dasharray:none;stroke-opacity:1" /></g></svg>