<?xml version="1.0" encoding="UTF-8" standalone="no"?>
<!-- Generator: Adobe Illustrator 20.0.0, SVG Export Plug-In . SVG Version: 6.00 Build 0)  -->

<svg
   xmlns:dc="http://purl.org/dc/elements/1.1/"
   xmlns:cc="http://creativecommons.org/ns#"
   xmlns:rdf="http://www.w3.org/1999/02/22-rdf-syntax-ns#"
   xmlns:svg="http://www.w3.org/2000/svg"
   xmlns="http://www.w3.org/2000/svg"
   xmlns:sodipodi="http://sodipodi.sourceforge.net/DTD/sodipodi-0.dtd"
   xmlns:inkscape="http://www.inkscape.org/namespaces/inkscape"
   version="1.2"
   id="Layer_1"
   x="0px"
   y="0px"
   width="37.795277"
   height="56.503738"
   viewBox="0 0 37.795279 56.503737"
   xml:space="preserve"
   sodipodi:docname="pg-to-252-5-11.svg"
   inkscape:version="0.92.2 (5c3e80d, 2017-08-06)"><metadata
     id="metadata19"><rdf:RDF><cc:Work
         rdf:about=""><dc:format>image/svg+xml</dc:format><dc:type
           rdf:resource="http://purl.org/dc/dcmitype/StillImage" /><dc:title></dc:title></cc:Work></rdf:RDF></metadata><defs
     id="defs17" /><sodipodi:namedview
     pagecolor="#ffffff"
     bordercolor="#666666"
     borderopacity="1"
     objecttolerance="10"
     gridtolerance="10"
     guidetolerance="10"
     inkscape:pageopacity="0"
     inkscape:pageshadow="2"
     inkscape:window-width="1618"
     inkscape:window-height="1028"
     id="namedview15"
     showgrid="true"
     fit-margin-top="0"
     fit-margin-left="0"
     fit-margin-right="0"
     fit-margin-bottom="0"
     inkscape:zoom="14.671596"
     inkscape:cx="18.897638"
     inkscape:cy="28.251869"
     inkscape:window-x="54"
     inkscape:window-y="-8"
     inkscape:window-maximized="1"
     inkscape:current-layer="Layer_1"
     inkscape:snap-bbox="true"
     inkscape:bbox-paths="true"
     inkscape:bbox-nodes="true"
     inkscape:snap-bbox-edge-midpoints="true"
     inkscape:snap-bbox-midpoints="true"
     inkscape:snap-object-midpoints="true"
     inkscape:snap-center="true"><inkscape:grid
       type="xygrid"
       id="grid908"
       originx="-0.30236177"
       originy="6.1566026" /></sodipodi:namedview><g
     id="g2942"><g
       id="g1084"><g
         id="g1072"><rect
           style="fill:#dcdcdc;stroke-width:1.68654263"
           id="rect829"
           y="38.362"
           width="2.8346665"
           x="31.880304"
           height="18.141733" /><rect
           style="fill:#dcdcdc;stroke-width:1.68654263"
           id="rect833"
           y="38.362"
           width="2.8346665"
           x="27.080305"
           height="18.141733" /><rect
           style="fill:#dcdcdc;stroke-width:1.68654263"
           id="rect837"
           y="38.362"
           width="2.8346665"
           x="12.680305"
           height="18.141733" /><rect
           height="18.142447"
           x="7.8803048"
           width="2.8346665"
           y="38.36129"
           id="rect2063-7"
           style="fill:#dcdcdc;stroke-width:1.68657601" /><rect
           height="18.142447"
           x="3.0803051"
           width="2.8346665"
           y="38.36129"
           id="rect2063"
           style="fill:#dcdcdc;stroke-width:1.68657601" /><rect
           height="5.6692915"
           x="17.480305"
           width="2.8346665"
           y="37.984055"
           id="rect2065"
           style="fill:#dcdcdc;stroke-width:1.43223739" /><rect
           height="18.141733"
           x="22.280304"
           width="2.8346665"
           y="38.362"
           id="rect2067"
           style="fill:#dcdcdc;stroke-width:1.68654263" /></g><rect
         style="fill:#333333;stroke-width:2.14470625"
         x="-3.2391356e-009"
         id="rect2071"
         y="3.779331"
         width="37.795277"
         height="34.960629" /><path
         inkscape:connector-curvature="0"
         style="opacity:1;fill:#dcdcdc;fill-opacity:1;stroke:none;stroke-width:0;stroke-linecap:butt;stroke-linejoin:round;stroke-miterlimit:4;stroke-dasharray:none;stroke-opacity:1"
         d="M 7.5509585,0 7.5587685,0.052734 1.7732e-4,1.2988281 V 3.7792969 H 37.795099 V 1.2988281 L 30.236505,0.0527343 30.244305,3e-7 Z"
         id="rect848" /></g><g
       id="g2913"><g
         style="fill:#999999"
         id="g10-2-2"
         transform="matrix(0.39625707,0.00244149,0.00244149,-0.39625707,3.8791843,16.405994)"><g
           style="fill:#999999"
           id="g12-5-8"
           transform="scale(0.1)"><path
             d="M 57.5977,101.664 H 100.801 L 115.195,31.1094 H 70.5547 l -12.957,70.5546"
             style="fill:#999999;fill-opacity:1;fill-rule:nonzero;stroke:none"
             id="path14-46-4"
             inkscape:connector-curvature="0" /><path
             d="m 48.957,139.105 c 0,-12.957 10.086,-23.035 21.5977,-23.035 12.9609,0 23.0469,10.078 23.0469,23.035 0,11.524 -10.086,21.602 -23.0469,21.602 -11.5117,0 -21.5977,-10.078 -21.5977,-21.602"
             style="fill:#999999;fill-opacity:1;fill-rule:nonzero;stroke:none"
             id="path16-0-2"
             inkscape:connector-curvature="0" /><path
             d="m 37.4414,130.473 7.1992,-10.078 C 31.6797,110.309 23.0352,94.4688 23.0352,78.6289 c 0,-7.1992 1.4453,-14.3945 5.7617,-21.6016 8.6445,-20.1562 25.9219,-34.5625 47.5234,-40.3125 10.0781,-2.8828 20.1524,-4.3281 30.2427,-4.3281 14.394,0 30.234,2.8828 44.636,8.6446 L 123.84,141.988 c -1.438,0 -2.883,0 -4.32,0 -5.758,0 -11.524,0 -17.286,0 v 7.207 c 10.079,0 21.606,-1.445 31.68,-4.328 L 161.277,22.4648 C 142.559,10.9531 119.52,3.75391 97.918,3.75391 c 0,0 0,0 -1.4453,0 C 69.1211,3.75391 41.7578,13.832 20.1563,32.5547 7.19922,44.0664 0,59.9063 0,75.7461 0,100.23 14.3945,121.832 37.4414,130.473"
             style="fill:#999999;fill-opacity:1;fill-rule:nonzero;stroke:none"
             id="path18-6-5"
             inkscape:connector-curvature="0" /><path
             d="m 239.723,1.60156 h 20 v 150.801 h -20 z"
             style="fill:#999999;fill-opacity:1;fill-rule:nonzero;stroke:none"
             id="path20-8-3"
             inkscape:connector-curvature="0" /><path
             d="m 303.516,91 h 0.398 c 4.199,8.1992 10.402,13.199 20.402,13.199 20,0 20.602,-17.7967 20.602,-33.199 V 1.60156 H 326.117 V 71.4023 c 0,7 -1.199,16 -11.199,16 -12.402,0 -11.402,-14.1992 -11.402,-22.8046 V 1.60156 H 284.719 V 102.602 h 18.797 V 91"
             style="fill:#999999;fill-opacity:1;fill-rule:nonzero;stroke:none"
             id="path22-7-1"
             inkscape:connector-curvature="0" /><path
             d="m 371.113,102.602 v 32.597 c 0,17.203 1.403,34 22.797,34 4.801,0 8.403,-0.996 12.606,-2.797 v -19.601 c -2.606,1.402 -4.801,2.398 -7.805,2.398 -9.602,0 -8.801,-9.398 -8.801,-16.195 v -30.402 h 15.602 V 87.8008 H 389.91 V 1.60156 H 371.113 V 87.8008 h -9.398 v 14.8012 h 9.398"
             style="fill:#999999;fill-opacity:1;fill-rule:nonzero;stroke:none"
             id="path24-94-0"
             inkscape:connector-curvature="0" /><path
             d="m 416.914,133.203 c 0,6.797 5.598,12.399 12.598,12.399 6.601,0 12.402,-5.602 12.402,-12.399 0,-7.004 -5.801,-12.601 -12.402,-12.601 -7,0 -12.598,5.597 -12.598,12.601 z M 438.711,1.60156 H 419.91 V 102.602 h 18.801 V 1.60156"
             style="fill:#999999;fill-opacity:1;fill-rule:nonzero;stroke:none"
             id="path26-1-9"
             inkscape:connector-curvature="0" /><path
             d="m 478.91,91 h 0.403 c 4.199,8.1992 10.398,13.199 20.398,13.199 20,0 20.602,-17.7967 20.602,-33.199 V 1.60156 H 501.508 V 71.4023 c 0,7 -1.195,16 -11.195,16 -12.403,0 -11.403,-14.1992 -11.403,-22.8046 V 1.60156 H 460.113 V 102.602 H 478.91 V 91"
             style="fill:#999999;fill-opacity:1;fill-rule:nonzero;stroke:none"
             id="path28-45-0"
             inkscape:connector-curvature="0" /><path
             d="m 557.906,48.4023 c 0,-8.4023 -0.394,-31.6015 11.801,-31.6015 10,0 11.801,11.0039 11.801,18.8008 h 17.398 C 598.906,17.0039 590.707,0 569.508,0 c -28.199,0 -30.801,30 -30.801,51.4023 0,20.5977 2.402,52.7967 30.199,52.7967 27.403,0 30.602,-31.9959 30.602,-52.7967 v -3 z m 22.403,13.3985 c 0,7.7969 0,25.6015 -11.403,25.6015 -11.797,0 -11,-17.8046 -11,-25.6015 h 22.403"
             style="fill:#999999;fill-opacity:1;fill-rule:nonzero;stroke:none"
             id="path30-5-2"
             inkscape:connector-curvature="0" /><path
             d="m 614.906,51.8008 c 0,22.0039 3,52.3982 31.797,52.3982 28.805,0 31.805,-30.3943 31.805,-52.3982 C 678.508,30.6016 675.508,0 646.703,0 617.906,0 614.906,30.6016 614.906,51.8008 Z m 44.403,0 c 0,8 1.796,35.1992 -12.606,35.1992 -14.398,0 -12.598,-27.1992 -12.598,-35.1992 0,-7.2031 -1.8,-34.5977 12.598,-34.5977 14.402,0 12.606,27.3946 12.606,34.5977"
             style="fill:#999999;fill-opacity:1;fill-rule:nonzero;stroke:none"
             id="path32-8-7"
             inkscape:connector-curvature="0" /><path
             d="m 715.707,91 h 0.402 c 4.2,8.1992 10.395,13.199 20.395,13.199 20,0 20.601,-17.7967 20.601,-33.199 V 1.60156 h -18.8 V 71.4023 c 0,7 -1.2,16 -11.2,16 -12.398,0 -11.398,-14.1992 -11.398,-22.8046 V 1.60156 H 696.902 V 102.602 h 18.805 V 91"
             style="fill:#999999;fill-opacity:1;fill-rule:nonzero;stroke:none"
             id="path34-2-8"
             inkscape:connector-curvature="0" /></g></g><text
         xml:space="preserve"
         style="font-style:normal;font-variant:normal;font-weight:normal;font-stretch:normal;font-size:3.73333335px;line-height:1.25;font-family:sans-serif;-inkscape-font-specification:'sans-serif, Normal';font-variant-ligatures:normal;font-variant-caps:normal;font-variant-numeric:normal;font-feature-settings:normal;text-align:start;letter-spacing:0px;word-spacing:0px;writing-mode:lr-tb;text-anchor:start;fill:#999999;fill-opacity:1;stroke:none;stroke-width:3.61310148"
         x="3.4447739"
         y="22.273512"
         id="text2187-46-9"><tspan
           sodipodi:role="line"
           id="tspan2877"
           x="3.4447739"
           y="22.273512">BTS50010-1TAD</tspan></text>
</g></g></svg>