<?xml version='1.0' encoding='UTF-8'?>
<!DOCTYPE svg>
<!-- Creator: CorelDRAW X6 -->
<svg xmlns="http://www.w3.org/2000/svg" viewBox="0 0 760 1427"  xmlns:xml="http://www.w3.org/XML/1998/namespace" clip-rule="evenodd" shape-rendering="geometricPrecision" version="1.1" image-rendering="optimizeQuality" text-rendering="geometricPrecision" width="0.800551in" height="1.50384in" fill-rule="evenodd" xml:space="preserve">
    <desc >
        <referenceFile >photon_icon.svg</referenceFile>
    </desc>
    <g  id="SPARKCORE" gorn="0.1">
        <metadata  id="CorelCorpID_0Corel-Layer"/>
        <g  id="PCB" gorn="0.1.1">
            <path  fill="#404040" d="M0 60l753 0 7 2 0 146 0 0c-5,0 -9,6 -9,12 0,7 4,12 9,12l0 0 0 71 0 0c-5,0 -9,6 -9,12 0,7 4,12 9,12l0 0 0 71 0 0c-5,0 -9,6 -9,12 0,7 4,12 9,12l0 0 0 71 0 0c-5,0 -9,5 -9,12 0,7 4,12 9,12l0 0 0 71 0 0c-5,0 -9,5 -9,12 0,7 4,12 9,12l0 0 0 71 0 0c-5,0 -9,5 -9,12 0,6 4,12 9,12l0 0 0 71 0 0c-5,0 -9,5 -9,12 0,6 4,12 9,12l0 0 0 71 0 0c-5,0 -9,5 -9,12 0,6 4,12 9,12l0 0 0 70 0 0c-5,0 -9,6 -9,12 0,7 4,12 9,12l0 0 0 71 0 0c-5,0 -9,6 -9,12 0,7 4,12 9,12l0 0 0 71 0 0c-5,0 -9,6 -9,12 0,7 4,12 9,12l0 0 0 71c-5,0 -9,5 -9,12 0,7 4,12 9,12l0 37 -57 114 -645 0 -58 -114 0 -37c7,0 12,-5 12,-12 0,-7 -5,-12 -12,-12l0 -71c7,0 12,-5 12,-12 0,-6 -5,-12 -12,-12l0 -71c7,0 12,-5 12,-12 0,-6 -5,-12 -12,-12l0 -71c7,0 12,-5 12,-12 0,-6 -5,-12 -12,-12l0 -70c7,0 12,-6 12,-12 0,-7 -5,-12 -12,-12l0 -71c7,0 12,-6 12,-12 0,-7 -5,-12 -12,-12l0 -71c7,0 12,-6 12,-12 0,-7 -5,-12 -12,-12l0 -71c7,0 12,-5 12,-12 0,-7 -5,-12 -12,-12l0 -71c7,0 12,-5 12,-12 0,-7 -5,-12 -12,-12l0 -71c7,0 12,-5 12,-12 0,-6 -5,-12 -12,-12l0 -71c7,0 12,-5 12,-12 0,-6 -5,-12 -12,-12l0 -71c7,0 12,-5 12,-12 0,-6 -5,-12 -12,-12l0 -148z"/>
            <path  fill="#666666" d="M760 1276l0 37 -57 114 -6 0 56 -114 0 -41c2,3 4,4 7,4zm-7 -1216l7 2 0 146 0 0 -1 0 0 0 0 0 0 0 0 0 0 0 0 0 0 0 0 0 0 0 0 0 -1 0 0 0 0 0 0 1 0 0 0 0 0 0 0 0 0 0 0 0 0 0 0 0 0 0 0 0 -1 0 0 0 0 0 0 0 0 0 0 0 0 0 0 0 0 0 0 0 0 0 0 0 0 0 0 0 -1 0 0 0 0 0 0 0 0 0 0 0 0 0 0 0 0 0 0 1 0 0 0 0 0 0 0 0 -1 0 0 0 0 0 0 0 0 0 0 0 0 0 0 0 0 0 0 0 0 0 0 0 0 0 0 0 0 0 -1 1 0 0 0 0 0 0 0 0 0 0 0 0 0 0 0 0 0 0 0 0 0 0 0 0 0 0 0 0 0 1 0 0 0 0 -1 0 0 0 0 0 0 0 0 0 0 -152zm7 172l0 71 0 0 -1 0 0 0 0 0 0 0 0 0 0 0 0 0 0 0 0 0 0 0 0 0 0 0 -1 0 0 0 0 0 0 0 0 0 0 0 0 0 0 0 0 0 0 1 0 0 0 0 0 0 0 0 0 0 -1 0 0 0 0 0 0 0 0 0 0 0 0 0 0 0 0 0 0 0 0 0 0 0 0 0 0 0 -1 0 0 0 0 0 0 0 0 0 0 0 0 0 0 0 0 0 0 0 0 0 0 1 0 0 0 0 -1 0 0 0 0 0 0 0 0 0 0 0 0 0 0 0 0 0 0 0 0 0 0 0 0 0 0 0 0 0 -1 0 0 1 0 0 0 0 0 0 0 0 0 0 0 0 0 0 0 0 0 0 0 0 0 0 0 0 0 0 0 0 0 0 0 1 -1 0 0 0 0 0 0 0 0 0 0 -78 0 0 1 0 0 0 0 1 0 0 0 0 0 0 0 0 0 0 0 0 1 0 0 0 0 1 0 0 0 0 0 0 0 0 0 0 1 0 0 0 0 0 0 0 0 0 0 0 0 0 0 1 0 0 0 0 1 0 0 0 0 0 0 0 0 0 0 0 0 0 0 0 0 0 0 0 0 0 1 0 0 0 0 0 0 0 0 0 0 0 0 0 0 0 0 0 0 0 0 0 0 0 0 0 0 0 1 0 0 0 0 0 0 0 0 0 0 0 0 0 0 0 0 0 0 0 0 0 1 0 0 0zm0 95l0 71 0 0 -1 0 0 0 0 0 0 0 0 0 0 0 0 0 0 0 0 0 0 0 0 0 0 0 -1 0 0 0 0 0 0 0 0 0 0 0 0 0 0 0 0 0 0 0 0 0 0 0 0 0 0 0 0 0 -1 1 0 0 0 0 0 0 0 0 0 0 0 0 0 0 0 0 0 0 0 0 0 0 0 0 -1 0 0 0 0 0 0 0 0 0 0 0 0 0 0 0 0 0 0 0 0 0 0 0 0 0 0 0 -1 1 0 0 0 0 0 0 0 0 0 0 0 0 0 0 0 0 0 0 0 0 0 0 0 0 0 0 0 0 -1 0 0 1 0 0 0 0 0 0 0 0 0 0 0 0 0 0 0 0 0 0 0 0 0 0 0 0 -1 1 0 0 0 0 0 0 0 0 0 -78 0 0 0 0 0 0 0 0 1 0 0 0 0 0 0 0 0 0 0 0 0 0 0 0 0 1 0 0 0 0 0 0 0 0 0 0 0 0 0 0 0 0 0 0 1 0 0 0 0 0 0 0 0 0 0 0 0 0 0 1 0 0 0 0 0 0 0 0 0 0 0 0 0 0 1 0 0 0 0 0 0 0 0 0 0 0 0 0 0 0 0 0 0 0 0 0 0 0 0 0 0 0 1 1 0 0 0 0 0 0 0 0 0 0 0 0 0 0 0 0 0 0 0 0 0 0 0 0 0 0 1 0 0 0 0 0 0 0 0 0 0 0 0 0 0 0 0 0 0 0 0 0 0 0 0 0 0 0 0 0 1 0 0 0 0 0 0 0 0 0 0 0 0 0 0 0 0 0 0 0 0 0 0 0 1 0 0 0zm0 95l0 71 0 0 -1 0 0 0 0 0 0 0 0 0 0 0 0 0 0 0 0 0 0 0 0 0 0 0 0 0 -1 0 0 0 0 0 0 0 0 0 0 0 0 0 0 0 0 0 0 0 0 0 0 0 0 0 0 0 -1 0 0 0 0 0 0 0 0 1 0 0 0 0 0 0 0 0 0 0 0 0 0 0 0 0 0 0 -1 0 0 0 0 0 0 0 0 0 0 0 0 0 0 0 0 0 0 0 0 0 0 0 0 0 0 0 -1 0 0 0 0 1 0 0 0 0 0 0 0 0 0 0 0 0 0 0 0 0 0 0 0 0 0 0 0 0 0 0 -1 0 0 0 0 0 0 0 0 0 0 1 0 0 0 0 0 0 0 0 0 0 0 0 0 0 0 0 0 0 0 0 0 0 0 0 0 0 -1 1 0 0 0 0 0 0 0 -79 0 1 0 0 0 0 0 0 1 0 0 0 0 0 0 0 0 0 0 0 0 0 0 0 0 1 0 0 0 0 0 0 0 0 0 0 1 0 0 0 0 0 0 0 0 0 0 0 0 0 0 0 0 0 0 1 0 0 0 0 0 0 0 0 0 0 1 0 0 0 0 0 0 0 0 0 0 0 0 0 0 0 0 0 0 0 0 0 0 0 0 0 0 0 1 0 0 0 0 0 0 1 0 0 0 0 0 0 0 0 0 0 0 0 0 0 0 0 0 0 1 0 0 0 0 0 0 0 0 0 0 0 0 0 0 0 0 0 0 0 0 0 0 0 0 0 0 0 0 0 1 0 0 0 0 0 0 0 0 0 0 0 0 0 0 0 0 0 0 0 0 0 0 0 1 0 0 0zm0 95l0 71 0 0 -1 0 0 0 0 0 0 0 0 0 0 0 0 0 0 0 0 0 0 0 0 0 0 0 0 0 -1 0 0 0 0 0 0 0 0 0 0 0 0 0 0 0 0 0 0 0 0 0 0 0 0 0 0 0 -1 0 0 0 0 0 0 0 0 0 0 0 0 0 0 0 0 1 0 0 0 0 0 0 0 0 0 0 -1 0 0 0 0 0 0 0 0 0 0 0 0 0 0 0 0 0 0 0 0 0 0 0 0 0 0 0 -1 0 0 0 0 0 0 0 0 1 0 0 0 0 0 0 0 0 0 0 0 0 0 0 0 0 0 0 0 0 0 0 -1 0 0 0 0 0 0 0 0 0 0 0 0 0 0 1 0 0 0 0 0 0 0 0 0 0 0 0 0 0 0 0 0 0 0 0 0 0 -1 0 0 0 0 1 0 0 0 -79 0 0 0 0 0 1 1 0 0 0 0 0 0 0 0 0 0 0 0 0 0 0 0 0 0 0 0 0 0 0 0 0 0 0 0 1 0 0 0 0 0 0 0 0 1 0 0 0 0 0 0 0 0 0 0 0 0 0 0 0 0 0 0 0 0 0 0 0 0 0 0 1 0 0 0 0 1 0 0 0 0 0 0 0 0 0 0 0 0 0 0 0 0 0 0 0 0 0 0 0 0 0 0 0 1 0 0 0 0 0 0 0 0 0 0 0 0 0 0 0 0 1 0 0 0 0 0 0 0 0 0 0 1 0 0 0 0 0 0 0 0 0 0 0 0 0 0 0 0 0 0 0 0 0 0 0 0 0 0 0 1 0 0 0 0 0 0 0 0 0 0 0 0 0 0 0 0 0 0 0 0 0 0 0 0 0 1 0 0 0zm0 95l0 71 0 0 -1 0 0 0 0 0 0 0 0 0 0 0 0 0 0 0 0 0 0 0 0 0 0 0 0 0 -1 0 0 0 0 0 0 0 0 0 0 0 0 0 0 0 0 0 0 0 0 0 0 0 0 0 0 0 -1 0 0 0 0 0 0 0 0 0 0 0 0 0 0 0 0 0 0 0 0 0 0 0 0 1 0 0 -1 0 0 0 0 0 0 0 0 0 0 0 0 0 0 0 0 0 0 0 0 0 0 0 0 0 0 0 -1 0 0 0 0 0 0 0 0 0 0 0 0 0 0 1 0 0 0 0 0 0 0 0 0 0 0 0 0 0 -1 0 0 0 0 0 0 0 0 0 0 0 0 0 0 0 0 1 0 0 0 0 0 0 0 0 0 0 0 0 0 0 0 0 0 0 0 0 -1 0 0 0 0 0 0 1 0 0 0 -79 0 0 0 0 0 0 1 1 0 0 0 0 0 0 0 0 0 0 0 0 0 0 0 0 0 0 0 0 0 0 0 0 0 0 0 0 0 1 0 0 0 0 0 0 1 0 0 0 0 0 0 0 0 0 0 0 0 0 0 0 0 0 0 0 0 0 0 0 0 0 0 0 0 0 1 1 0 0 0 0 0 0 0 0 0 0 0 0 0 0 0 0 0 0 0 0 0 0 0 0 0 0 1 0 0 0 0 0 0 0 0 0 0 0 0 0 0 0 0 0 0 0 0 0 0 0 0 1 0 0 1 0 0 0 0 0 0 0 0 0 0 0 0 0 0 0 0 0 0 0 0 0 0 0 0 0 0 0 1 0 0 0 0 0 0 0 0 0 0 0 0 0 0 0 0 0 0 0 0 0 0 0 0 0 1 0 0 0zm0 95l0 71 0 0 -1 0 0 0 0 0 0 0 0 0 0 0 0 0 0 0 0 0 0 0 0 0 0 0 0 0 -1 0 0 0 0 0 0 0 0 0 0 0 0 0 0 0 0 0 0 0 0 0 0 0 0 0 0 0 -1 0 0 0 0 0 0 0 0 0 0 0 0 0 0 0 0 0 0 0 0 0 0 0 0 0 0 0 -1 0 0 1 0 0 0 0 0 0 0 0 0 0 0 0 0 0 0 0 0 0 0 0 0 0 0 0 0 0 -1 0 0 0 0 0 0 0 0 0 0 0 0 0 0 0 0 0 0 1 0 0 0 0 0 0 0 0 -1 0 0 0 0 0 0 0 0 0 0 0 0 0 0 0 0 0 0 0 0 1 0 0 0 0 0 0 0 0 0 0 0 0 0 0 0 0 -1 0 0 0 0 0 0 0 0 0 0 -78 0 0 0 0 0 0 1 1 0 0 0 0 0 0 0 0 0 0 0 0 0 0 0 0 0 0 0 0 0 1 1 0 0 0 0 0 0 0 0 0 0 0 0 0 0 0 0 0 0 0 0 0 1 0 0 0 0 1 0 0 0 0 0 0 0 0 0 0 0 0 0 0 0 0 0 0 0 0 1 0 0 0 0 0 0 0 0 0 0 0 0 0 0 0 0 0 0 0 0 0 0 0 0 0 0 0 1 0 0 0 0 0 0 1 0 0 0 0 0 0 0 0 0 0 0 0 0 0 0 0 0 0 0 0 1 0 0 0 0 0 0 0 0 0 0 0 0 0 0 0 0 0 0 0 0 0 0 0 0 0 1 0 0 0zm0 95l0 71 0 0 -1 0 0 0 0 0 0 0 0 0 0 0 0 0 0 0 0 0 0 0 0 0 0 0 0 0 -1 0 0 0 0 0 0 0 0 0 0 0 0 0 0 0 0 0 0 0 0 0 0 0 0 0 0 0 -1 0 0 0 0 0 0 0 0 0 0 0 0 0 0 0 0 0 0 0 0 0 0 0 0 0 0 0 -1 0 0 0 0 0 0 1 0 0 0 0 0 0 0 0 0 0 0 0 0 0 0 0 0 0 0 0 -1 0 0 0 0 0 0 0 0 0 0 0 0 0 0 0 0 0 0 0 0 0 0 1 0 0 0 0 0 0 0 0 -1 0 0 0 0 0 0 0 0 0 0 0 0 0 0 0 0 0 0 0 0 0 0 0 0 1 0 0 0 0 0 0 0 0 0 0 0 0 -1 0 0 0 0 0 0 0 0 0 0 0 0 -78 0 0 0 0 0 0 0 0 1 0 0 0 0 1 0 0 0 0 0 0 0 0 0 0 0 0 0 0 0 0 0 0 0 0 0 0 0 0 0 0 0 0 0 0 0 0 1 1 0 0 0 0 0 0 0 0 0 0 0 0 0 0 0 0 0 0 0 0 0 0 0 0 0 0 1 0 0 0 0 0 0 0 0 0 0 1 0 0 0 0 0 0 0 0 0 0 0 0 0 0 0 0 0 0 1 0 0 0 0 0 0 0 0 0 0 0 0 0 0 0 0 0 0 0 0 0 0 0 0 0 0 0 1 0 0 0 0 0 0 0 0 0 0 0 0 0 0 0 0 0 0 1 0 0 0 0 0 0 0 0 1 0 0 0 0 0 0 0 0 0 0 0 0 0 0 0 0 0 0 0 0 0 0 0 0 0 1 0 0 0zm0 95l0 70 0 0 -1 0 0 0 0 0 0 0 0 0 0 0 0 0 0 0 0 1 0 0 0 0 0 0 0 0 -1 0 0 0 0 0 0 0 0 0 0 0 0 0 0 0 0 0 0 0 0 0 0 0 0 0 0 0 -1 0 0 0 0 0 0 0 0 0 0 0 0 0 0 0 0 0 0 0 0 0 0 0 0 0 0 0 -1 0 0 0 0 0 0 0 0 0 0 0 0 0 0 1 0 0 0 0 0 0 0 0 0 0 0 0 0 0 -1 0 0 0 0 0 0 0 0 0 0 0 0 0 0 0 0 0 0 0 0 0 0 0 0 0 0 1 0 0 0 0 -1 0 0 0 0 0 0 0 0 0 0 0 0 0 0 0 0 0 0 0 0 0 0 0 0 0 0 0 0 1 0 0 0 0 0 0 -1 0 0 0 0 0 0 0 0 0 0 0 0 -78 0 0 0 0 0 0 0 0 1 0 0 0 0 1 0 0 0 0 0 0 0 0 0 0 0 0 0 0 0 0 0 0 0 0 0 0 0 0 1 0 0 0 0 1 0 0 0 0 0 0 0 0 0 0 0 0 0 0 0 0 0 0 0 0 0 0 0 0 1 0 0 0 0 0 0 0 0 0 0 0 0 0 0 0 0 1 0 0 0 0 0 0 0 0 0 0 1 0 0 0 0 0 0 0 0 0 0 0 0 0 0 0 0 0 0 0 0 0 0 0 0 0 0 0 1 0 0 0 0 0 0 0 0 0 0 0 0 0 0 0 0 0 0 0 0 0 0 0 0 0 0 0 1 0 0 0 0 0 0 0 0 1 0 0 0 0 0 0 0 0 0 0 0 0 0 0 0 0 1 0 0 0zm0 94l0 71 0 0 -1 0 0 0 0 0 0 0 0 0 0 0 0 0 0 0 0 0 0 0 0 0 0 0 0 0 -1 0 0 0 0 0 0 0 0 0 0 1 0 0 0 0 0 0 0 0 0 0 0 0 0 0 0 0 -1 0 0 0 0 0 0 0 0 0 0 0 0 0 0 0 0 0 0 0 0 0 0 0 0 0 0 0 -1 0 0 0 0 0 0 0 0 0 0 0 0 0 0 0 0 0 0 0 0 1 0 0 0 0 0 0 0 0 -1 0 0 0 0 0 0 0 0 0 0 0 0 0 0 0 0 0 0 0 0 0 0 0 0 0 0 0 0 0 0 1 -1 0 0 0 0 0 0 0 0 0 0 0 0 0 0 0 0 0 0 0 0 0 0 0 0 0 0 0 0 0 0 1 0 0 0 0 -1 0 0 0 0 0 0 0 0 0 0 0 0 -78 0 0 0 0 0 0 0 0 0 0 1 0 0 0 0 0 0 0 0 0 0 1 0 0 0 0 0 0 0 0 0 0 0 0 0 0 0 0 0 0 0 0 0 0 0 0 1 0 0 0 0 0 0 0 0 0 0 1 0 0 0 0 0 0 0 0 0 0 0 0 0 0 0 0 0 0 0 0 1 0 0 0 0 0 0 0 0 0 0 0 0 0 0 0 0 0 0 0 0 0 0 1 0 0 0 0 0 0 1 0 0 0 0 0 0 0 0 0 0 0 0 0 0 0 0 0 0 0 0 0 0 0 0 0 0 0 1 0 0 0 0 0 0 0 0 0 0 0 0 0 0 0 0 0 0 0 0 0 0 0 0 0 0 0 1 0 0 0 0 0 0 0 0 0 0 0 0 0 0 0 0 0 0 0 0 0 0 0 0 0 1 0 0 0zm0 95l0 71 0 0 -1 0 0 0 0 0 0 0 0 0 0 0 0 0 0 0 0 0 0 0 0 0 0 0 0 0 -1 0 0 0 0 0 0 0 0 0 0 0 0 0 0 0 0 0 0 0 0 0 0 1 0 0 0 0 -1 0 0 0 0 0 0 0 0 0 0 0 0 0 0 0 0 0 0 0 0 0 0 0 0 0 0 0 -1 0 0 0 0 0 0 0 0 0 0 0 0 0 0 0 0 0 0 0 0 0 0 0 0 0 0 1 0 0 -1 0 0 0 0 0 0 0 0 0 0 0 0 0 0 0 0 0 0 0 0 0 0 0 0 0 0 0 0 0 0 0 0 0 -1 1 0 0 0 0 0 0 0 0 0 0 0 0 0 0 0 0 0 0 0 0 0 0 0 0 0 0 0 0 0 1 0 0 -1 0 0 0 0 0 0 0 0 0 0 0 0 -78 0 0 0 0 0 0 0 0 1 0 0 0 0 0 0 0 0 0 0 1 0 0 0 0 0 0 0 0 0 0 0 0 0 0 0 0 1 0 0 0 0 0 0 0 0 0 0 0 0 0 0 1 0 0 0 0 0 0 0 0 0 0 0 0 0 0 0 0 1 0 0 0 0 0 0 0 0 0 0 0 0 0 0 0 0 0 0 0 0 0 0 0 0 0 0 0 0 1 1 0 0 0 0 0 0 0 0 0 0 0 0 0 0 0 0 0 0 0 0 0 0 0 0 0 0 0 1 0 0 0 0 0 0 0 0 0 0 0 0 0 0 0 0 0 0 0 0 0 0 0 0 0 0 0 1 0 0 0 0 0 0 0 0 0 0 0 0 0 0 0 0 0 0 0 0 0 0 0 0 0 1 0 0 0zm0 95l0 71 -1 0 0 0 0 0 0 0 0 0 0 0 0 0 0 0 0 0 0 0 0 0 0 0 0 0 -1 0 0 0 0 0 0 0 0 0 0 0 0 0 0 0 0 0 0 0 0 0 0 0 0 0 0 0 -1 0 0 0 0 1 0 0 0 0 0 0 0 0 0 0 0 0 0 0 0 0 0 0 0 0 -1 0 0 0 0 0 0 0 0 0 0 0 0 0 0 0 0 0 0 0 0 0 0 0 0 0 0 0 0 0 -1 1 0 0 0 0 0 0 0 0 0 0 0 0 0 0 0 0 0 0 0 0 0 0 0 0 0 0 0 0 0 0 0 0 -1 0 0 0 0 0 0 1 0 0 0 0 0 0 0 0 0 0 0 0 0 0 0 0 0 0 0 0 0 0 0 0 0 0 -1 1 0 0 0 0 0 0 0 0 0 0 0 -79 0 0 0 1 0 0 0 0 0 0 1 0 0 0 0 0 0 0 0 0 0 0 0 0 0 0 0 0 0 0 0 1 0 0 0 0 0 0 0 0 0 0 0 0 1 0 0 0 0 0 0 0 0 0 0 0 0 0 0 0 0 0 0 0 0 0 0 1 0 0 0 0 0 0 0 0 0 0 1 0 0 0 0 0 0 0 0 0 0 0 0 0 0 0 0 0 0 0 0 0 0 0 0 0 0 0 0 0 1 0 0 0 0 1 0 0 0 0 0 0 0 0 0 0 0 0 0 0 0 0 0 0 0 0 0 0 1 0 0 0 0 0 0 0 0 0 0 0 0 0 0 0 0 0 0 0 0 0 0 0 0 0 0 0 1 0 0 0 0 0 0 0 0 0 0 0 0 0 0 0 0 0 0 0 0 0 0 0 0 0 1 0 0 0z"/>
            <polygon  fill="#8C8C8C" points="760,1313 703,1427 697,1427 753,1313 "/>
            <path  fill="#00A0E3" d="M753 637l0 -21c-7,-2 -12,-9 -12,-17 0,-8 5,-15 12,-18l0 -17 -204 0c-38,5 -37,69 0,73l204 0z"/>
        </g>
        <g  id="MISC_x0020_COMPS" gorn="0.1.2">
            <polygon  fill="#666666" points="203,1196 241,1196 241,1234 203,1234 "/>
            <polygon  fill="#666666" points="378,1178 438,1178 438,1207 378,1207 "/>
            <polygon  fill="#666666" points="57,90 192,90 192,171 57,171 "/>
            <polygon  fill="#666666" points="312,1149 353,1149 353,1170 312,1170 "/>
            <polygon  fill="#666666" points="142,193 202,193 202,222 142,222 "/>
            <polygon  fill="#666666" points="471,360 471,300 500,300 500,360 "/>
            <polygon  fill="#666666" points="415,366 415,326 436,326 436,366 "/>
            <polygon  fill="#666666" points="430,632 430,591 451,591 451,632 "/>
            <polygon  fill="#666666" points="341,631 341,591 362,591 362,631 "/>
            <polygon  fill="#666666" points="291,632 291,591 312,591 312,632 "/>
            <polygon  fill="#666666" points="255,632 255,591 276,591 276,632 "/>
            <polygon  fill="#666666" points="149,632 149,591 170,591 170,632 "/>
            <polygon  fill="#666666" points="381,625 381,565 410,565 410,625 "/>
            <polygon  fill="#666666" points="474,631 474,571 503,571 503,631 "/>
            <polygon  fill="#666666" points="138,242 178,242 178,262 138,262 "/>
            <polygon  fill="#666666" points="579,382 620,382 620,402 579,402 "/>
            <polygon  fill="#666666" points="579,306 620,306 620,327 579,327 "/>
            <polygon  fill="#666666" points="579,268 620,268 620,288 579,288 "/>
            <polygon  fill="#666666" points="312,1149 353,1149 353,1170 312,1170 "/>
            <polygon  fill="#666666" points="279,1241 320,1241 320,1262 279,1262 "/>
            <polygon  fill="#666666" points="298,1185 338,1185 338,1206 298,1206 "/>
            <polygon  fill="#666666" points="274,1319 274,1279 295,1279 295,1319 "/>
            <polygon  fill="#666666" points="274,1383 274,1343 294,1343 294,1383 "/>
            <polygon  fill="#666666" points="132,1180 173,1180 173,1200 132,1200 "/>
            <polygon  fill="#666666" points="148,1234 170,1234 170,1248 148,1248 "/>
            <polygon  fill="#666666" points="235,1282 235,1260 249,1260 249,1282 "/>
            <polygon  fill="#666666" points="216,1172 216,1149 230,1149 230,1172 "/>
            <polygon  fill="#666666" points="501,1200 501,1159 522,1159 522,1200 "/>
            <polygon  fill="#666666" points="612,1199 612,1159 632,1159 632,1199 "/>
            <polygon  fill="#666666" points="570,1222 570,1162 599,1162 599,1222 "/>
            <polygon  fill="#666666" points="298,293 390,293 390,306 400,315 400,363 390,372 390,384 298,384 298,371 290,363 290,315 298,306 "/>
            <polygon  fill="#666666" points="613,694 613,654 634,654 634,694 "/>
        </g>
        <g  id="UFL" gorn="0.1.3">
            <polygon  fill="#CCCCCC" points="127,1317 127,1378 94,1378 94,1317 "/>
            <polygon  fill="#E5E5E5" points="127,1376 127,1378 94,1378 94,1376 "/>
            <polygon  fill="#CCCCCC" points="205,1317 205,1378 172,1378 172,1317 "/>
            <polygon  fill="#E5E5E5" points="205,1376 205,1378 172,1378 172,1376 "/>
            <polygon  fill="#CCCCCC" points="162,1295 162,1316 138,1316 138,1295 "/>
            <path  fill="#E5E5E5" stroke-width="2.84641" stroke="#8C8C8C" d="M111 1303l76 0c4,0 7,3 7,7l0 75c0,4 -3,7 -7,7l-76 0c-4,0 -7,-3 -7,-7l0 -75c0,-4 3,-7 7,-7z"/>
            <path  fill="#E5E5E5" stroke-width="2.84641" stroke="#8C8C8C" d="M149 1322c15,0 26,11 26,26 0,14 -11,26 -26,26 -14,0 -26,-12 -26,-26 0,-15 12,-26 26,-26z"/>
            <path  fill="#CC9933" d="M149 1341c4,0 7,3 7,7 0,3 -3,6 -7,6 -3,0 -6,-3 -6,-6 0,-4 3,-7 6,-7z"/>
        </g>
        <g  id="ANT" gorn="0.1.4">
            <polygon  fill="#CCCCCC" points="368,1313 668,1313 668,1389 368,1389 "/>
            <polygon  fill="#999999" points="368,1313 385,1313 385,1389 368,1389 "/>
            <polygon  fill="#999999" points="649,1313 668,1313 668,1389 649,1389 "/>
            <polygon  fill="#CC9933" points="413,1313 452,1313 452,1389 413,1389 "/>
        </g>
        <g  id="USB_x0020_MICRO" gorn="0.1.5">
            <g  id="PINS" gorn="0.1.5.0">
                <polygon  fill="#666666" points="421,234 421,251 434,251 434,234 "/>
                <polygon  fill="#999999" points="432,236 432,251 434,251 434,236 "/>
                <polygon  fill="#666666" points="396,234 396,251 409,251 409,234 "/>
                <polygon  fill="#999999" points="408,236 408,251 409,251 409,236 "/>
                <polygon  fill="#666666" points="372,234 372,251 385,251 385,234 "/>
                <polygon  fill="#999999" points="384,236 384,251 385,251 385,236 "/>
                <polygon  fill="#666666" points="348,234 348,251 361,251 361,234 "/>
                <polygon  fill="#999999" points="360,236 360,251 361,251 361,236 "/>
                <polygon  fill="#666666" points="324,234 324,251 337,251 337,234 "/>
                <polygon  fill="#999999" points="336,236 336,251 337,251 337,236 "/>
            </g>
            <polygon  fill="#B3B3B3" points="255,16 502,16 502,238 255,238 "/>
            <polygon  fill="#CCCCCC" points="255,236 255,238 502,238 502,236 "/>
            <polygon  fill="#333333" points="312,34 312,238 446,238 446,34 "/>
            <polygon  fill="#B3B3B3" points="505,20 505,14 513,0 518,0 "/>
            <polygon  fill="#CCCCCC" points="505,14 505,14 505,7 513,0 "/>
            <polygon  fill="#B3B3B3" points="240,0 244,0 253,14 253,20 "/>
            <polygon  fill="#CCCCCC" points="244,0 253,7 253,14 253,14 "/>
            <path  fill="#CCCCCC" d="M505 231l-3 7 -33 0c0,0 30,-1 31,-4 1,-2 -1,-3 -1,-3l6 0z"/>
            <path  fill="#CCCCCC" d="M253 231l3 7 33 0c0,0 -30,-1 -31,-4 -1,-2 1,-3 1,-3l-6 0z"/>
            <path  fill="#E6E6E6" d="M297 238l0 -21 21 0 0 21 6 0 0 -7 110 0 0 7 6 0 0 -21 21 0 0 21 44 0 0 -222 -252 0 0 222 44 0zm143 -181l0 -11 21 0 0 12c6,3 10,10 10,17 0,8 -3,14 -10,18l0 0 0 58 -21 0 0 -58c-6,-4 -10,-10 -10,-18 0,-8 4,-15 10,-18zm-142 0l0 -11 21 0 0 12c5,3 9,10 9,17 0,8 -3,14 -9,18l0 0 0 58 -21 0 0 -58c-6,-4 -11,-10 -11,-18 0,-8 5,-15 11,-18z"/>
            <polygon  fill="#F2F2F2" points="500,16 505,16 505,231 485,231 "/>
            <polygon  fill="#999999" points="253,16 260,159 268,231 253,231 "/>
            <polygon  fill="#CCCCCC" points="440,150 440,151 461,151 461,150 "/>
            <polygon  fill="#CCCCCC" points="298,150 298,151 319,151 319,150 "/>
            <polygon  fill="#B3B3B3" points="265,18 265,27 493,27 493,18 "/>
            <polygon  fill="#CCCCCC" points="265,16 265,20 493,20 493,16 "/>
        </g>
        <g  id="SPARK_x0020_LOGO" gorn="0.1.6">
            <polygon  fill="#CC9933" points="688,164 670,136 687,109 660,126 633,109 650,136 633,163 660,146 "/>
            <polygon  fill="#CC9933" points="664,154 660,151 656,154 660,174 "/>
            <polygon  fill="#CC9933" points="645,136 642,140 622,136 642,132 645,136 "/>
            <polygon  fill="#CC9933" points="678,141 675,136 678,131 698,136 "/>
            <polygon  fill="#CC9933" points="665,118 660,98 656,118 660,121 "/>
            <polygon  fill="#E6AB00" points="688,164 670,136 687,109 687,109 669,136 "/>
            <polygon  fill="#E6AB00" points="664,154 660,151 663,154 660,174 "/>
            <polygon  fill="#E6AB00" points="642,140 644,136 642,132 645,136 "/>
            <polygon  fill="#E6AB00" points="678,141 695,136 678,131 698,136 "/>
            <polygon  fill="#E6AB00" points="665,118 660,98 663,118 660,121 "/>
            <polygon  fill="#E6AB00" points="660,126 633,109 660,128 "/>
            <polygon  fill="#E6AB00" points="660,144 633,163 660,146 "/>
        </g>
        <g  id="BLUE_x0020_LED" gorn="0.1.7">
            <polygon  fill="#CCCCCC" points="553,583 613,583 613,617 553,617 "/>
            <polygon  fill="#E5E5E5" points="565,586 602,586 602,614 565,614 "/>
            <polygon  fill="#1B5BB3" points="576,595 591,595 591,605 576,605 "/>
        </g>
        <g  id="BUTTON" gorn="0.1.8">
            <polygon  fill="#CCCCCC" points="170,437 170,459 137,459 137,437 "/>
            <polygon  fill="#E5E5E5" points="170,457 170,459 137,459 137,457 "/>
            <polygon  fill="#CCCCCC" points="170,495 170,517 137,517 137,495 "/>
            <polygon  fill="#E5E5E5" points="170,515 170,517 137,517 137,515 "/>
            <polygon  fill="#CCCCCC" points="290,496 290,517 257,517 257,496 "/>
            <polygon  fill="#E5E5E5" points="290,515 290,517 257,517 257,515 "/>
            <polygon  fill="#CCCCCC" points="290,437 290,459 257,459 257,437 "/>
            <polygon  fill="#E5E5E5" points="290,457 290,459 257,459 257,457 "/>
            <polygon  fill="#999999" points="281,422 281,534 147,534 147,422 "/>
            <polygon  fill="#B2B2B2" points="281,534 278,534 278,422 281,422 "/>
            <polygon  fill="#8C8C8C" points="150,534 147,534 147,422 150,422 "/>
            <path  fill="black" d="M214 445c18,0 33,15 33,33 0,18 -15,32 -33,32 -18,0 -33,-14 -33,-32 0,-18 15,-33 33,-33z"/>
            <g >
                <path  fill="#404040" d="M212 448c17,0 30,13 30,30 0,16 -13,30 -30,30 -16,0 -29,-14 -29,-30 0,-17 13,-30 29,-30z"/>
                <path  fill="#999999" d="M212 448c17,0 30,13 30,30 0,16 -13,30 -30,30 39,-6 39,-55 0,-60z"/>
            </g>
        </g>
        <g  id="TEXT" gorn="0.1.9">
            <path  fill="#00A0E3" d="M165 407c0,2 0,3 -1,4 0,1 -1,2 -2,2 -1,1 -2,2 -3,2 -1,0 -3,1 -4,1 -2,0 -3,0 -4,-1 -2,0 -3,0 -4,-1l0 -3c1,0 1,0 2,0 0,0 1,1 2,1 0,0 1,0 2,0 0,0 1,0 2,0 2,0 4,0 5,-1 1,-1 1,-2 1,-3 0,-1 0,-2 0,-2 0,-1 -1,-1 -1,-2 -1,0 -1,-1 -2,-1 -1,-1 -2,-1 -3,-2 -2,0 -3,-1 -3,-1 -1,-1 -2,-1 -3,-2 0,-1 -1,-2 -1,-3 0,0 0,-2 0,-3 0,-1 0,-2 0,-3 1,-1 1,-2 2,-2 1,-1 2,-1 3,-2 1,0 2,0 4,0 1,0 3,0 4,0 1,0 2,1 4,1l-2 4c-1,-1 -2,-1 -3,-1 -1,-1 -2,-1 -3,-1 -2,0 -3,0 -4,1 -1,1 -2,2 -2,3 0,1 1,2 1,2 0,1 0,2 1,2 0,0 1,1 2,1 0,1 1,1 3,2 1,0 2,1 3,1 1,1 1,1 2,2 1,1 1,1 2,2 0,1 0,2 0,3zm22 8l-16 0 0 -30 16 0 0 4 -12 0 0 9 11 0 0 3 -11 0 0 11 12 0 0 3zm15 0l-4 0 0 -26 -8 0 0 -4 21 0 0 4 -9 0 0 26zm35 -30l0 20c0,1 0,3 -1,4 0,1 -1,2 -2,3 -1,1 -2,2 -3,3 -2,0 -3,1 -5,1 -2,0 -4,-1 -5,-1 -1,-1 -2,-1 -3,-2 -1,-1 -2,-3 -2,-4 -1,-1 -1,-3 -1,-4l0 -20 4 0 0 20c0,2 0,4 2,5 1,2 2,2 5,2 1,0 2,0 3,0 1,-1 2,-1 2,-2 1,-1 1,-1 1,-2 1,-1 1,-2 1,-3l0 -20 4 0zm26 9c0,1 -1,2 -1,4 0,1 -1,2 -2,3 -1,0 -2,1 -3,2 -2,0 -3,1 -5,1l-4 0 0 11 -3 0 0 -30 7 0c2,0 4,0 5,1 1,0 2,1 3,1 1,1 2,2 2,3 0,1 1,3 1,4zm-15 6l3 0c1,0 2,0 3,0 1,0 2,-1 3,-1 0,-1 1,-1 1,-2 0,-1 1,-2 1,-3 0,-2 -1,-3 -2,-4 -1,-1 -3,-2 -5,-2l-4 0 0 12z" fill-rule="nonzero"/>
            <path  fill="#00A0E3" d="M450 403l0 12 -3 0 0 -29 7 0c3,0 6,0 8,2 2,1 2,3 2,6 0,1 0,2 0,3 0,1 -1,2 -1,2 -1,1 -2,2 -2,2 -1,1 -2,1 -2,1l8 13 -5 0 -7 -12 -5 0zm0 -3l4 0c1,0 2,0 3,0 1,-1 1,-1 2,-2 0,0 1,-1 1,-1 0,-1 0,-2 0,-3 0,-1 0,-2 0,-2 0,-1 -1,-1 -1,-2 -1,0 -1,-1 -2,-1 -1,0 -2,0 -3,0l-4 0 0 11zm37 15l-16 0 0 -29 16 0 0 3 -12 0 0 9 11 0 0 4 -11 0 0 10 12 0 0 3zm22 -7c0,1 0,2 -1,3 0,1 -1,2 -2,3 -1,0 -2,1 -3,1 -1,1 -3,1 -4,1 -2,0 -3,0 -4,0 -2,-1 -3,-1 -4,-1l0 -4c1,0 1,0 2,1 1,0 1,0 2,0 0,0 1,0 2,1 1,0 1,0 2,0 2,0 4,-1 5,-2 1,0 1,-2 1,-3 0,-1 0,-1 0,-2 0,-1 -1,-1 -1,-2 -1,0 -1,0 -2,-1 -1,0 -2,-1 -3,-1 -1,-1 -2,-1 -3,-2 -1,0 -2,-1 -3,-2 0,0 -1,-1 -1,-2 0,-1 0,-2 0,-3 0,-1 0,-2 0,-3 1,-1 1,-2 2,-3 1,0 2,-1 3,-1 1,-1 2,-1 4,-1 1,0 3,0 4,1 1,0 3,0 4,1l-2 3c-1,0 -2,-1 -3,-1 -1,0 -2,0 -3,0 -2,0 -3,0 -4,1 -1,0 -1,2 -1,3 0,1 0,1 0,2 0,0 0,1 1,1 0,1 1,1 2,2 1,0 1,0 3,1 1,0 2,1 3,1 1,1 2,2 2,2 1,1 1,2 2,2 0,1 0,2 0,4zm22 7l-16 0 0 -29 16 0 0 3 -12 0 0 9 11 0 0 4 -11 0 0 10 12 0 0 3zm15 0l-4 0 0 -26 -9 0 0 -3 21 0 0 3 -8 0 0 26z" fill-rule="nonzero"/>
            <path  fill="#00A0E3" d="M647 236c1,0 2,0 3,0 1,1 2,1 2,2 1,0 1,1 2,2 0,1 1,2 1,3l0 0c0,-3 1,-5 2,-6 2,-2 4,-2 6,-2 1,0 2,0 4,0 1,1 2,2 3,3 1,1 1,2 2,3 0,2 1,4 1,6 0,1 -1,3 -1,4 0,2 -1,3 -1,4l-4 0c1,-1 1,-2 1,-4 1,-1 1,-3 1,-4 0,-2 0,-3 0,-4 -1,-1 -1,-2 -2,-2 0,-1 -1,-1 -2,-2 -1,0 -1,0 -2,0 -1,0 -2,0 -3,0 -1,1 -1,1 -2,2 0,1 -1,2 -1,3 0,1 0,2 0,3l0 3 -4 0 0 -3c0,-1 0,-2 0,-3 0,-1 -1,-2 -1,-2 -1,-1 -2,-1 -2,-2 -1,0 -2,0 -3,0 -1,0 -1,0 -2,0 -1,1 -1,1 -2,1 0,1 0,1 0,2 -1,1 -1,2 -1,2 0,2 0,4 1,5 0,1 1,2 2,3l-3 2c0,0 -1,-1 -1,-2 -1,0 -1,-1 -1,-2 -1,-1 -1,-2 -1,-3 0,0 0,-1 0,-2 0,-2 0,-4 0,-5 1,-1 1,-2 2,-3 1,-1 2,-1 3,-2 1,0 2,0 3,0zm-8 -26l0 -4 33 11 0 4 -33 11 0 -5 21 -6c1,-1 3,-1 4,-1 1,-1 2,-1 4,-1 -2,0 -3,-1 -4,-1 -1,0 -3,-1 -4,-1l-21 -7zm8 -26c1,0 2,0 3,1 1,0 2,0 2,1 1,1 1,1 2,2 0,1 1,2 1,3l0 0c0,-2 1,-4 2,-6 2,-1 4,-2 6,-2 1,0 2,0 4,1 1,0 2,1 3,2 1,1 1,2 2,4 0,1 1,3 1,5 0,2 -1,3 -1,5 0,1 -1,3 -1,4l-4 0c1,-1 1,-3 1,-4 1,-2 1,-3 1,-5 0,-1 0,-2 0,-3 -1,-1 -1,-2 -2,-3 0,-1 -1,-1 -2,-1 -1,-1 -1,-1 -2,-1 -1,0 -2,0 -3,1 -1,0 -1,1 -2,2 0,0 -1,1 -1,2 0,1 0,3 0,4l0 3 -4 0 0 -3c0,-1 0,-2 0,-3 0,-1 -1,-2 -1,-3 -1,0 -2,-1 -2,-1 -1,-1 -2,-1 -3,-1 -1,0 -1,0 -2,1 -1,0 -1,0 -2,1 0,0 0,1 0,2 -1,0 -1,1 -1,2 0,2 0,3 1,4 0,1 1,3 2,4l-3 2c0,-1 -1,-1 -1,-2 -1,-1 -1,-2 -1,-2 -1,-1 -1,-2 -1,-3 0,-1 0,-2 0,-3 0,-2 0,-3 0,-4 1,-2 1,-3 2,-3 1,-1 2,-2 3,-2 1,-1 2,-1 3,-1z" fill-rule="nonzero"/>
            <path  fill="#00A0E3" d="M659 334l13 0 0 4 -33 0 0 -8c0,-4 1,-7 3,-9 1,-2 4,-3 7,-3 1,0 2,0 3,1 1,0 2,0 3,1 0,1 1,1 1,2 1,1 1,2 2,3l14 -9 0 5 -13 7 0 6zm-4 0l0 -4c0,-1 0,-3 0,-3 0,-1 -1,-2 -1,-3 -1,0 -2,-1 -2,-1 -1,0 -2,-1 -3,-1 -1,0 -2,1 -3,1 -1,0 -1,1 -2,1 0,1 0,2 -1,3 0,1 0,2 0,3l0 4 12 0zm9 -41c1,0 2,0 3,1 2,1 3,1 3,2 1,1 2,2 2,4 1,1 1,3 1,4 0,2 0,4 -1,5 0,2 0,3 -1,4l-4 0c1,-1 1,-1 1,-2 0,-1 0,-1 1,-2 0,-1 0,-2 0,-2 0,-1 0,-2 0,-3 0,-2 0,-4 -1,-5 -1,-1 -2,-2 -4,-2 -1,0 -2,1 -2,1 -1,0 -1,0 -2,1 0,0 -1,1 -1,2 -1,1 -1,2 -2,4 0,1 -1,2 -2,3 0,1 -1,2 -2,2 0,1 -1,2 -2,2 -1,0 -2,0 -4,0 -1,0 -2,0 -3,0 -1,-1 -2,-2 -3,-2 -1,-1 -1,-2 -1,-4 -1,-1 -1,-2 -1,-4 0,-1 0,-3 0,-4 1,-2 1,-3 2,-4l3 1c0,1 -1,2 -1,4 0,1 0,2 0,3 0,2 0,4 1,5 1,1 2,1 3,1 1,0 2,0 3,0 0,0 1,-1 1,-1 1,-1 1,-2 2,-2 0,-1 1,-2 1,-4 1,-1 1,-2 2,-3 0,-1 1,-2 2,-3 0,0 1,-1 2,-1 1,-1 2,-1 4,-1zm8 -16l0 4 -29 0 0 10 -4 0 0 -23 4 0 0 9 29 0z" fill-rule="nonzero"/>
            <path  fill="#00A0E3" d="M640 435l0 -5 33 11 0 4 -33 11 0 -4 21 -7c1,0 2,-1 4,-1 1,0 2,-1 3,-1 -1,0 -2,0 -3,-1 -2,0 -3,0 -5,-1l-20 -6zm0 -9l0 -9c0,-2 0,-4 0,-5 0,-2 1,-3 2,-4 0,-1 1,-2 2,-2 1,-1 3,-1 4,-1 1,0 2,0 3,0 0,1 1,1 2,2 0,0 1,1 1,2 1,0 1,1 1,2l0 0c1,-1 1,-2 1,-2 1,-1 1,-2 2,-3 0,-1 1,-1 2,-1 1,-1 2,-1 3,-1 2,0 3,0 4,1 1,0 2,1 3,2 1,1 2,2 2,3 0,2 1,3 1,5l0 11 -33 0zm14 -5l0 -5c0,-1 0,-2 -1,-3 0,-1 0,-2 -1,-2 0,-1 -1,-1 -1,-2 -1,0 -2,0 -3,0 -1,0 -3,1 -4,2 0,1 -1,3 -1,5l0 5 11 0zm3 0l12 0 0 -6c0,-1 0,-2 0,-3 -1,-1 -1,-1 -2,-2 0,-1 -1,-1 -2,-1 0,0 -1,-1 -2,-1 -1,0 -2,1 -2,1 -1,0 -2,0 -2,1 -1,1 -1,1 -1,2 -1,1 -1,2 -1,4l0 5zm16 -43l-11 3 0 13 11 3 0 4 -33 -12 0 -3 33 -13 0 5zm-14 5l-10 3c0,0 0,0 -1,0 0,0 -1,1 -1,1 -1,0 -1,0 -1,0 -1,0 -1,0 -2,0 1,1 1,1 2,1 0,0 0,0 1,0 0,0 1,1 1,1 1,0 1,0 1,0l10 3 0 -9zm14 -24l0 5 -30 0 0 9 -3 0 0 -23 3 0 0 9 30 0z" fill-rule="nonzero"/>
            <path  fill="#00A0E3" d="M655 544l0 -11 16 0c0,1 0,1 1,2 0,1 0,2 0,3 0,1 0,2 1,3 0,1 0,2 0,3 0,2 -1,4 -2,6 0,2 -1,3 -3,5 -1,1 -3,2 -5,2 -2,1 -5,1 -7,1 -3,0 -5,0 -7,-1 -2,0 -4,-1 -6,-3 -1,-1 -2,-3 -3,-5 -1,-2 -1,-4 -1,-7 0,-1 0,-3 0,-4 1,-2 1,-3 2,-5l3 2c0,0 0,1 0,2 -1,0 -1,1 -1,2 0,0 0,1 0,2 0,0 -1,1 -1,2 0,2 1,3 1,5 1,1 2,2 3,3 1,1 3,2 4,2 2,1 4,1 6,1 2,0 3,0 5,-1 2,0 3,-1 4,-2 1,0 2,-2 3,-3 1,-1 1,-3 1,-5 0,-1 0,-1 0,-2 0,-1 0,-1 0,-2 0,0 0,0 0,-1 -1,0 -1,-1 -1,-1l-10 0 0 7 -3 0zm17 -44l0 5 -27 16 0 0c1,0 2,0 3,0 1,0 2,0 3,0 1,0 2,0 3,0l18 0 0 4 -33 0 0 -5 27 -16 0 0c-1,0 -2,0 -3,0 -1,0 -1,0 -2,0 0,0 -1,0 -1,0 -1,0 -1,0 -1,0 -1,0 -1,0 -2,0l-18 0 0 -4 33 0zm-17 -33c3,0 6,0 8,1 2,1 4,2 5,3 1,2 2,3 3,5 1,2 1,5 1,7l0 8 -33 0 0 -9c0,-2 1,-4 1,-6 1,-2 2,-4 3,-5 2,-1 3,-2 5,-3 2,-1 5,-1 7,-1zm1 5c-3,0 -5,0 -6,0 -2,1 -3,1 -4,2 -1,1 -2,3 -2,4 -1,1 -1,3 -1,5l0 4 26 0 0 -3c0,-4 -2,-7 -4,-9 -2,-2 -5,-3 -9,-3z" fill-rule="nonzero"/>
            <path  fill="#404040" d="M656 601c2,0 5,0 7,1 2,1 4,2 5,3 2,1 3,3 3,5 1,2 1,4 1,7l0 8 -33 0 0 -9c0,-2 1,-4 2,-6 0,-2 1,-4 3,-5 1,-1 3,-2 5,-3 2,-1 4,-1 7,-1zm0 4c-2,0 -4,1 -6,1 -2,0 -3,1 -4,2 -1,1 -2,2 -2,4 -1,1 -1,3 -1,4l0 5 26 0 0 -4c0,-4 -1,-7 -3,-9 -3,-2 -6,-3 -10,-3zm16 -13l-29 -13 0 17 -4 0 0 -21 4 0 29 12 0 5z" fill-rule="nonzero"/>
            <path  fill="#00A0E3" d="M655 694c3,0 6,1 8,1 2,1 3,2 5,4 1,1 2,3 3,5 1,2 1,4 1,6l0 9 -33 0 0 -10c0,-2 0,-4 1,-6 1,-2 2,-3 3,-4 2,-2 3,-3 5,-4 2,0 5,-1 7,-1zm0 5c-2,0 -4,0 -5,1 -2,0 -3,1 -4,2 -1,1 -2,2 -3,3 0,2 0,3 0,5l0 4 25 0 0 -3c0,-4 -1,-7 -3,-9 -2,-2 -5,-3 -10,-3zm3 -10c-2,0 -3,0 -5,0 -1,0 -3,-1 -4,-1 -2,0 -3,-1 -4,-2 -1,0 -2,-1 -3,-2 -1,-1 -2,-3 -3,-4 0,-2 0,-3 0,-5 0,-1 0,-1 0,-1 0,-1 0,-1 0,-1 0,-1 0,-1 0,-1 0,-1 0,-1 0,-1l4 0c0,0 -1,1 -1,2 0,0 0,1 0,2 0,1 0,2 1,3 0,1 0,2 1,3 1,0 1,1 2,2 1,0 2,1 3,1 1,0 2,0 3,1 1,0 2,0 3,0l0 0c0,-1 -1,-1 -1,-2 -1,0 -1,0 -1,-1 -1,-1 -1,-1 -1,-2 0,-1 -1,-1 -1,-2 0,-2 1,-3 1,-4 1,-1 1,-2 2,-3 1,-1 2,-2 3,-2 1,0 3,-1 4,-1 2,0 4,1 5,1 1,0 3,1 4,2 1,1 1,2 2,3 0,1 1,3 1,4 0,2 -1,3 -1,5 -1,1 -2,2 -3,3 -1,1 -3,2 -5,2 -1,1 -4,1 -6,1zm11 -11c0,-1 0,-1 0,-2 -1,-1 -1,-2 -2,-2 0,-1 -1,-1 -2,-1 -1,-1 -2,-1 -4,-1 -1,0 -2,0 -2,1 -1,0 -2,0 -2,1 -1,0 -2,1 -2,2 0,0 0,1 0,2 0,1 0,2 0,3 1,1 1,1 2,2 0,1 1,1 2,1 0,1 1,1 2,1 1,0 2,0 3,-1 1,0 2,0 2,-1 1,0 2,-1 2,-2 1,-1 1,-2 1,-3z" fill-rule="nonzero"/>
            <path  fill="#00A0E3" d="M655 789c3,0 5,0 7,1 2,1 4,2 5,3 2,1 3,3 4,5 0,2 1,4 1,7l0 8 -33 0 0 -9c0,-2 0,-4 1,-6 0,-2 1,-4 3,-5 1,-1 3,-2 5,-3 2,-1 4,-1 7,-1zm0 4c-2,0 -4,1 -6,1 -1,1 -3,1 -4,2 -1,1 -1,2 -2,4 0,1 -1,3 -1,4l0 5 26 0 0 -4c0,-4 -1,-7 -3,-9 -2,-2 -6,-3 -10,-3zm-4 -19c0,-2 1,-3 1,-4 0,-2 1,-3 2,-4 1,-1 2,-1 3,-2 1,-1 2,-1 4,-1 2,0 3,0 5,1 1,0 2,1 3,2 1,1 2,2 2,4 1,1 1,3 1,5 0,1 0,2 0,2 0,1 0,2 0,2 -1,1 -1,2 -1,2 0,1 0,2 -1,2l-4 0c1,0 1,-1 1,-2 1,0 1,-1 1,-2 0,-1 0,-1 0,-2 1,-1 1,-1 1,-2 0,-1 -1,-2 -1,-3 0,-1 -1,-2 -1,-3 -1,0 -1,-1 -2,-1 -1,0 -2,-1 -3,-1 -3,0 -4,1 -5,2 -2,2 -2,4 -2,6 0,1 0,1 0,1 0,1 0,1 0,2 0,0 0,1 0,1 0,1 0,1 0,1l-1 2 -15 -1 0 -15 3 0 0 12 10 0c0,0 0,-1 0,-1 -1,-1 -1,-2 -1,-3z" fill-rule="nonzero"/>
            <path  fill="#00A0E3" d="M655 885c3,0 6,1 8,1 2,1 4,2 5,4 1,1 2,3 3,5 1,2 1,4 1,6l0 9 -33 0 0 -10c0,-2 1,-4 1,-6 1,-2 2,-3 3,-5 2,-1 3,-2 5,-3 2,0 5,-1 7,-1zm1 5c-3,0 -4,0 -6,1 -2,0 -3,1 -4,2 -1,1 -2,2 -2,3 -1,2 -1,3 -1,5l0 4 26 0 0 -3c0,-4 -1,-7 -4,-9 -2,-2 -5,-3 -9,-3zm9 -32l0 5 7 0 0 4 -7 0 0 15 -4 0 -22 -15 0 -4 22 0 0 -5 4 0zm-4 9l-8 0c-1,0 -2,0 -3,0 0,0 -1,0 -2,0 -1,0 -2,0 -3,0 0,0 -1,0 -2,0l0 0c1,0 1,0 1,0 1,0 1,0 1,1 1,0 1,0 2,0 0,0 0,1 0,1l14 9 0 -11z" fill-rule="nonzero"/>
            <path  fill="#00A0E3" d="M655 978c3,0 6,1 8,2 2,0 3,1 5,3 1,1 2,3 3,5 1,2 1,4 1,6l0 9 -33 0 0 -9c0,-3 0,-5 1,-7 1,-2 2,-3 3,-4 2,-2 3,-3 5,-4 2,0 5,-1 7,-1zm0 5c-2,0 -4,0 -5,1 -2,0 -3,1 -4,2 -1,1 -2,2 -3,3 0,2 0,3 0,5l0 4 25 0 0 -3c0,-4 -1,-7 -3,-9 -2,-2 -5,-3 -10,-3zm-8 -29c1,0 2,0 3,0 1,1 2,1 2,2 1,1 1,1 2,2 0,1 1,2 1,3l0 0c0,-3 1,-5 2,-6 2,-1 4,-2 6,-2 1,0 2,0 4,1 1,0 2,1 3,2 1,1 1,2 2,4 0,1 1,3 1,5 0,2 -1,3 -1,5 0,1 -1,2 -1,4l-4 0c1,-2 1,-3 1,-4 1,-2 1,-3 1,-5 0,-1 0,-2 0,-3 -1,-1 -1,-2 -2,-3 0,-1 -1,-1 -2,-1 0,-1 -1,-1 -2,-1 -1,0 -2,0 -3,1 -1,0 -1,1 -2,1 0,1 -1,2 -1,3 0,1 0,2 0,4l0 3 -4 0 0 -3c0,-1 0,-3 0,-4 0,0 -1,-1 -1,-2 -1,-1 -2,-1 -2,-1 -1,-1 -2,-1 -3,-1 -1,0 -1,0 -2,1 -1,0 -1,0 -2,1 0,0 0,1 0,1 -1,1 -1,2 -1,3 0,1 0,3 1,4 0,1 1,2 2,4l-3 2c0,-1 -1,-2 -1,-2 -1,-1 -1,-2 -1,-3 -1,0 -1,-1 -1,-2 0,-1 0,-2 0,-3 0,-2 0,-3 0,-4 1,-2 1,-3 2,-4 1,0 2,-1 3,-1 1,-1 2,-1 3,-1z" fill-rule="nonzero"/>
            <path  fill="#00A0E3" d="M656 1073c3,0 5,1 7,1 2,1 4,2 5,4 2,1 3,3 3,5 1,2 2,4 2,6l0 9 -33 0 0 -10c0,-2 0,-4 1,-6 0,-2 1,-3 3,-5 1,-1 3,-2 5,-3 2,0 4,-1 7,-1zm0 5c-2,0 -4,0 -6,1 -1,0 -3,1 -4,2 -1,1 -2,2 -2,3 -1,2 -1,3 -1,5l0 4 26 0 0 -3c0,-4 -1,-7 -3,-9 -3,-2 -6,-3 -10,-3zm17 -30l0 20 -4 0 -9 -8c-1,-1 -2,-2 -3,-3 -1,0 -2,-1 -3,-2 -1,0 -2,-1 -3,-1 -1,-1 -2,-1 -3,-1 -1,0 -2,0 -2,1 -1,0 -1,0 -2,1 0,0 -1,1 -1,1 0,1 0,2 0,3 0,1 0,2 0,3 1,2 2,3 3,4l-3 2c-1,-1 -1,-1 -2,-2 0,-1 0,-1 -1,-2 0,-1 0,-2 -1,-3 0,-1 0,-1 0,-2 0,-2 0,-3 1,-4 0,-2 1,-3 1,-3 1,-1 2,-2 3,-2 1,-1 3,-1 4,-1 1,0 2,0 4,1 1,0 2,1 3,1 1,1 2,2 3,3 1,1 3,2 4,3l7 6 0 0 0 -15 4 0z" fill-rule="nonzero"/>
            <path  fill="#00A0E3" d="M655 1162c3,0 5,0 8,1 2,0 3,1 5,3 1,1 2,3 3,5 1,2 1,4 1,7l0 8 -33 0 0 -9c0,-3 0,-5 1,-7 1,-1 2,-3 3,-4 2,-2 3,-3 5,-3 2,-1 5,-1 7,-1zm0 4c-2,0 -4,0 -5,1 -2,0 -3,1 -4,2 -1,1 -2,2 -3,3 0,2 0,3 0,5l0 5 25 0 0 -4c0,-4 -1,-7 -3,-9 -2,-2 -5,-3 -10,-3zm17 -23l0 4 -21 0c0,0 -1,0 -2,0 0,0 -1,0 -2,0 -1,0 -1,0 -2,0 -1,0 -1,0 -2,0 1,0 1,0 1,0 0,0 0,1 1,1 0,0 0,0 0,0 0,1 1,1 1,1l3 4 -3 2 -7 -9 0 -3 33 0z" fill-rule="nonzero"/>
            <path  fill="#00A0E3" d="M655 1264c3,0 6,0 8,1 2,0 4,1 5,3 1,1 2,3 3,5 1,2 1,4 1,7l0 8 -33 0 0 -9c0,-3 1,-5 1,-7 1,-1 2,-3 3,-4 2,-2 3,-3 5,-3 2,-1 5,-1 7,-1zm0 4c-2,0 -4,0 -5,1 -2,0 -3,1 -4,2 -1,1 -2,2 -2,3 -1,2 -1,3 -1,5l0 5 26 0 0 -4c0,-4 -2,-7 -4,-9 -2,-2 -5,-3 -10,-3zm1 -30c2,0 5,0 7,0 2,1 4,1 5,2 2,1 3,2 3,3 1,2 2,3 2,5 0,2 -1,3 -2,5 0,1 -1,2 -3,3 -1,1 -3,2 -5,2 -2,0 -5,1 -7,1 -3,0 -5,-1 -8,-1 -2,0 -3,-1 -5,-2 -1,-1 -2,-2 -3,-3 -1,-1 -1,-3 -1,-5 0,-2 0,-3 1,-5 1,-1 2,-2 3,-3 2,-1 3,-1 5,-2 3,0 5,0 8,0zm0 16c2,0 4,0 6,0 1,0 3,0 4,-1 1,0 2,-1 2,-2 1,-1 1,-2 1,-3 0,-1 0,-2 -1,-3 0,-1 -1,-1 -2,-2 -1,0 -3,-1 -4,-1 -2,0 -4,0 -6,0 -3,0 -5,0 -6,0 -2,0 -3,1 -4,1 -2,1 -2,1 -3,2 -1,1 -1,2 -1,3 0,1 0,2 1,3 1,1 1,2 3,2 1,1 2,1 4,1 1,0 3,0 6,0z" fill-rule="nonzero"/>
            <path  fill="#00A0E3" d="M122 1268l-11 4 0 12 11 4 0 4 -33 -12 0 -4 33 -12 0 4zm-14 5l-10 3c0,0 0,1 -1,1 0,0 -1,0 -1,0 0,0 -1,0 -1,0 -1,1 -1,1 -2,1 1,0 1,0 2,0 0,0 1,0 1,1 1,0 1,0 1,0 1,0 1,0 1,0l10 4 0 -10zm-3 -32c3,0 5,0 7,0 2,0 4,1 6,2 1,1 2,2 3,3 1,2 1,3 1,5 0,2 0,3 -1,5 -1,1 -2,2 -3,3 -2,1 -4,1 -6,2 -2,0 -4,1 -7,1 -2,0 -5,-1 -7,-1 -2,0 -4,-1 -5,-2 -2,-1 -3,-2 -4,-3 0,-1 -1,-3 -1,-5 0,-2 1,-3 1,-5 1,-1 2,-2 4,-3 1,-1 3,-1 5,-2 2,0 5,0 7,0zm0 16c2,0 4,0 6,0 2,0 3,-1 4,-1 1,-1 2,-1 3,-2 0,-1 1,-2 1,-3 0,-1 -1,-2 -1,-3 -1,-1 -2,-1 -3,-2 -1,0 -2,-1 -4,-1 -2,0 -4,0 -6,0 -2,0 -4,0 -6,0 -1,0 -3,1 -4,1 -1,1 -2,1 -2,2 -1,1 -1,2 -1,3 0,1 0,2 1,3 0,1 1,1 2,2 1,0 3,1 4,1 2,0 4,0 6,0z" fill-rule="nonzero"/>
            <path  fill="#00A0E3" d="M122 1173l-11 4 0 12 11 4 0 4 -33 -12 0 -4 33 -12 0 4zm-14 5l-10 3c0,1 0,1 -1,1 0,0 -1,0 -1,0 0,0 -1,0 -1,1 -1,0 -1,0 -2,0 1,0 1,0 2,0 0,0 1,1 1,1 1,0 1,0 1,0 1,0 1,0 1,0l10 4 0 -10zm14 -25l0 4 -21 0c0,0 -1,0 -2,0 -1,0 -1,0 -2,0 -1,0 -2,0 -2,0 -1,0 -1,0 -2,0 0,0 1,0 1,0 0,1 0,1 0,1 0,0 1,0 1,1 0,0 0,0 1,0l2 4 -2 2 -7 -9 0 -3 33 0z" fill-rule="nonzero"/>
            <path  fill="#00A0E3" d="M122 1078l-11 4 0 12 11 4 0 4 -33 -12 0 -4 33 -12 0 4zm-14 5l-10 4c0,0 0,0 -1,0 0,0 -1,0 -1,0 0,0 -1,1 -1,1 -1,0 -1,0 -2,0 1,0 1,0 2,0 0,1 1,1 1,1 1,0 1,0 1,0 1,0 1,0 1,1l10 3 0 -10zm14 -32l0 21 -4 0 -8 -8c-2,-1 -3,-2 -4,-3 -1,-1 -2,-2 -3,-2 -1,-1 -2,-1 -3,-2 0,0 -2,0 -3,0 -1,0 -1,0 -2,0 -1,0 -1,1 -2,1 0,1 -1,1 -1,2 0,1 0,1 0,2 0,2 0,3 1,4 0,1 1,2 2,3l-3 3c0,-1 -1,-2 -1,-2 -1,-1 -1,-2 -2,-3 0,0 0,-1 0,-2 -1,-1 -1,-2 -1,-3 0,-1 1,-3 1,-4 0,-1 1,-2 2,-3 0,-1 1,-1 2,-2 2,0 3,0 4,0 1,0 3,0 4,0 1,1 2,1 3,2 1,1 2,1 4,2 1,1 2,2 3,3l7 7 0 0 0 -16 4 0z" fill-rule="nonzero"/>
            <path  fill="#00A0E3" d="M122 983l-11 4 0 12 11 4 0 4 -33 -12 0 -4 33 -12 0 4zm-14 5l-10 4c0,0 0,0 -1,0 0,0 -1,0 -1,0 0,1 -1,1 -1,1 -1,0 -1,0 -2,0 1,0 1,0 2,1 0,0 1,0 1,0 1,0 1,0 1,0 1,0 1,1 1,1l10 3 0 -10zm-11 -30c1,0 2,0 3,0 0,0 1,1 2,1 1,1 1,2 2,3 0,1 0,2 0,3l1 0c0,-3 1,-5 2,-6 1,-2 3,-3 5,-3 2,0 3,1 4,1 2,1 3,1 3,2 1,1 2,3 2,4 1,2 1,4 1,6 0,1 0,3 0,4 0,2 -1,3 -2,4l-3 0c0,-1 1,-2 1,-4 1,-1 1,-3 1,-4 0,-2 0,-3 -1,-4 0,-1 0,-2 -1,-2 -1,-1 -1,-2 -2,-2 -1,0 -2,0 -3,0 -1,0 -2,0 -2,0 -1,1 -2,1 -2,2 -1,1 -1,2 -1,3 0,1 0,2 0,3l0 3 -4 0 0 -3c0,-1 0,-2 0,-3 -1,-1 -1,-2 -2,-2 0,-1 -1,-1 -2,-2 0,0 -1,0 -2,0 -1,0 -2,0 -2,0 -1,0 -1,1 -2,1 0,1 -1,1 -1,2 0,1 0,1 0,2 0,2 0,3 1,5 0,1 1,2 2,3l-3 2c-1,0 -1,-1 -2,-2 0,0 0,-1 -1,-2 0,-1 0,-2 0,-3 -1,-1 -1,-2 -1,-3 0,-1 1,-3 1,-4 0,-1 1,-2 2,-3 0,-1 1,-1 2,-2 1,0 2,0 4,0z" fill-rule="nonzero"/>
            <path  fill="#00A0E3" d="M122 889l-11 3 0 12 11 4 0 4 -33 -12 0 -4 33 -12 0 5zm-14 4l-10 4c0,0 0,0 -1,0 0,0 -1,0 -1,1 0,0 -1,0 -1,0 -1,0 -1,0 -2,0 1,0 1,1 2,1 0,0 1,0 1,0 1,0 1,0 1,0 1,1 1,1 1,1l10 3 0 -10zm6 -33l0 5 8 0 0 4 -8 0 0 15 -3 0 -22 -15 0 -4 22 0 0 -5 3 0zm-3 9l-8 0c-1,0 -2,0 -3,-1 -1,0 -2,0 -3,0 -1,0 -1,0 -2,0 -1,0 -2,0 -2,0l0 0c0,1 0,1 1,1 0,0 1,0 1,0 0,1 1,1 1,1 0,0 1,0 1,0l14 10 0 -11z" fill-rule="nonzero"/>
            <path  fill="#00A0E3" d="M122 794l-11 3 0 13 11 3 0 4 -33 -12 0 -4 33 -12 0 5zm-14 5l-10 3c0,0 0,0 -1,0 0,0 -1,0 -1,1 0,0 -1,0 -1,0 -1,0 -1,0 -2,0 1,1 1,1 2,1 0,0 1,0 1,0 1,0 1,0 1,1 1,0 1,0 1,0l10 3 0 -9zm-6 -22c0,-1 0,-3 0,-4 1,-1 1,-2 2,-3 1,-1 2,-2 3,-3 1,0 3,0 4,0 2,0 3,0 5,0 1,1 2,2 3,3 1,1 2,2 2,3 1,2 1,3 1,5 0,1 0,2 0,3 0,0 0,1 0,2 0,0 -1,1 -1,2 0,0 0,1 -1,1l-3 0c0,0 0,-1 0,-1 1,-1 1,-2 1,-2 0,-1 0,-2 1,-3 0,0 0,-1 0,-2 0,-1 0,-2 -1,-3 0,-1 0,-2 -1,-2 -1,-1 -1,-1 -2,-2 -1,0 -2,0 -3,0 -2,0 -4,0 -5,2 -1,1 -2,3 -2,5 0,1 0,1 0,2 0,0 0,1 0,1 0,1 0,1 0,2 0,0 1,0 1,1l-2 2 -15 -2 0 -15 4 0 0 12 9 1c0,-1 0,-1 0,-2 0,-1 0,-2 0,-3z" fill-rule="nonzero"/>
            <path  fill="#00A0E3" d="M104 715c3,0 6,0 8,1 2,1 4,2 5,3 1,2 3,3 3,5 1,2 1,5 1,7l0 8 -33 0 0 -9c0,-2 1,-4 1,-6 1,-2 2,-4 3,-5 2,-1 4,-2 6,-3 2,-1 4,-1 6,-1zm1 4c-3,0 -4,1 -6,1 -2,1 -3,1 -4,2 -1,1 -2,2 -2,4 -1,1 -1,3 -1,5l0 4 26 0 0 -4c0,-4 -1,-7 -4,-9 -2,-2 -5,-3 -9,-3zm16 -31l-10 4 0 12 10 4 0 4 -33 -12 0 -4 33 -12 0 4zm-14 5l-9 4c0,0 -1,0 -1,0 -1,0 -1,0 -1,0 -1,1 -1,1 -2,1 0,0 -1,0 -1,0 0,0 1,0 1,1 1,0 1,0 2,0 0,0 0,0 1,0 0,0 1,1 1,1l9 3 0 -10zm-15 -27c0,2 0,3 0,5 1,1 2,2 3,3 1,1 3,2 4,2 2,1 4,1 6,1 2,0 4,0 5,-1 2,0 3,-1 5,-2 1,-1 2,-2 2,-3 1,-1 1,-3 1,-5 0,-1 0,-2 0,-3 -1,-2 -1,-3 -1,-4l3 0c1,1 1,1 1,2 0,0 0,1 0,2 1,0 1,1 1,2 0,0 0,1 0,2 0,2 -1,5 -1,6 -1,2 -2,4 -4,5 -1,1 -3,2 -5,3 -2,0 -5,0 -7,0 -3,0 -5,0 -7,-1 -2,0 -4,-1 -5,-2 -2,-2 -3,-3 -4,-5 -1,-2 -1,-4 -1,-7 0,-1 0,-3 0,-4 1,-2 1,-3 2,-4l3 1c0,1 -1,2 -1,4 0,1 0,2 0,3z" fill-rule="nonzero"/>
            <path  fill="#00A0E3" d="M89 621l0 -4 19 -5c1,-1 2,-1 3,-1 0,0 1,0 2,-1 1,0 2,0 2,0 1,0 2,0 2,-1 0,0 -1,0 -2,0 0,0 -1,0 -2,0 -1,0 -1,0 -2,0 -1,-1 -2,-1 -2,-1l-20 -4 0 -5 33 8 0 5 -21 5c-1,1 -2,1 -3,1 -1,0 -1,0 -2,0 -1,1 -2,1 -2,1 0,0 1,0 2,0 1,1 1,1 2,1 1,0 2,0 3,1l21 5 0 4 -33 9 0 -4 20 -5c1,-1 1,-1 2,-1 1,0 1,0 2,0 1,-1 2,-1 2,-1 1,0 2,0 2,0 0,0 -1,0 -2,0 0,0 -1,-1 -2,-1 -1,0 -2,0 -3,0 0,0 -1,-1 -2,-1l-19 -5zm33 -49l0 5 -16 10 3 3 13 0 0 4 -33 0 0 -4 16 0 -4 -3 -12 -10 0 -5 14 12 19 -12zm-24 -24c2,0 3,0 4,0 2,1 3,1 4,2 1,1 1,3 2,4 1,2 1,4 1,6l0 3 13 0 0 4 -33 0 0 -8c0,-2 0,-3 0,-5 1,-1 1,-3 2,-3 1,-1 2,-2 3,-3 2,0 3,0 4,0zm7 15l0 -3c0,-1 0,-2 0,-3 0,-1 -1,-2 -1,-3 -1,0 -1,-1 -2,-1 -1,-1 -2,-1 -3,-1 -2,0 -4,1 -5,2 -1,1 -2,3 -2,6l0 3 13 0z" fill-rule="nonzero"/>
            <path  fill="#00A0E3" d="M108 523l14 0 0 4 -33 0 0 -8c0,-4 1,-7 2,-9 2,-1 4,-2 7,-2 1,0 3,0 4,0 1,0 1,1 2,2 1,0 1,1 2,2 0,0 1,1 1,2l15 -9 0 5 -14 8 0 5zm-3 0l0 -4c0,-1 -1,-2 -1,-3 0,-1 0,-2 -1,-2 -1,-1 -1,-1 -2,-2 -1,0 -2,0 -3,0 -1,0 -2,0 -2,0 -1,1 -2,1 -2,2 -1,0 -1,1 -1,2 -1,1 -1,2 -1,4l0 3 13 0zm17 -44l0 5 -15 8 15 8 0 5 -17 -11 -16 10 0 -5 12 -7 -12 -8 0 -4 15 10 18 -11z" fill-rule="nonzero"/>
            <path  fill="#00A0E3" d="M122 421l0 4 -30 0 0 9 -3 0 0 -23 3 0 0 10 30 0zm0 -35l0 4 -15 8 15 9 0 4 -17 -10 -16 9 0 -4 12 -8 -12 -7 0 -5 15 10 18 -10z" fill-rule="nonzero"/>
            <path  fill="#00A0E3" d="M104 348l0 -11 17 0c0,0 0,1 0,2 1,1 1,2 1,3 0,1 0,2 0,3 0,1 0,2 0,3 0,2 0,4 -1,6 -1,2 -2,3 -3,5 -2,1 -4,2 -6,2 -2,1 -4,1 -7,1 -2,0 -5,0 -7,-1 -2,0 -4,-1 -5,-3 -1,-1 -3,-3 -3,-5 -1,-2 -2,-4 -2,-7 0,-1 1,-3 1,-5 0,-1 1,-2 1,-4l4 2c0,0 0,1 -1,2 0,0 0,1 0,1 0,1 -1,2 -1,3 0,0 0,1 0,2 0,1 0,3 1,4 1,2 2,3 3,4 1,1 2,2 4,2 1,1 3,1 5,1 2,0 4,0 6,-1 1,0 3,-1 4,-2 1,-1 2,-2 3,-3 0,-2 1,-3 1,-5 0,-1 0,-2 0,-2 -1,-1 -1,-1 -1,-2 0,0 0,-1 0,-1 0,0 0,-1 0,-1l-10 0 0 7 -4 0zm18 -44l0 5 -27 16 0 0c1,0 2,0 3,0 1,0 2,0 3,0 1,0 2,0 3,0l18 0 0 4 -33 0 0 -5 27 -16 0 0c-1,0 -2,0 -3,0 -1,0 -1,0 -2,0 0,0 -1,0 -1,0 -1,0 -1,0 -2,0 0,0 -1,0 -1,0l-18 0 0 -4 33 0zm-17 -33c3,0 5,0 7,1 2,1 4,2 6,3 1,2 2,3 3,5 0,2 1,4 1,7l0 8 -33 0 0 -9c0,-2 0,-4 1,-6 1,-2 2,-4 3,-5 1,-1 3,-2 5,-3 2,-1 4,-1 7,-1zm0 4c-2,0 -4,1 -6,1 -1,1 -2,1 -3,2 -2,1 -2,2 -3,4 0,1 -1,3 -1,5l0 4 26 0 0 -4c0,-4 -1,-7 -3,-9 -2,-2 -6,-3 -10,-3z" fill-rule="nonzero"/>
            <path  fill="#00A0E3" d="M89 232l0 -5 33 11 0 5 -33 11 0 -5 21 -6c1,-1 2,-1 3,-2 2,0 3,0 4,0 -1,-1 -2,-1 -4,-1 -1,-1 -2,-1 -4,-2l-20 -6zm33 -18l0 12 -3 0 -1 -4 -26 0 -1 4 -2 0 0 -12 2 0 1 4 26 0 1 -4 3 0zm0 -31l0 5 -28 15 0 1c1,0 3,-1 4,-1 1,0 2,0 3,0 1,0 2,0 3,0l18 0 0 4 -33 0 0 -5 27 -15 0 0c-1,0 -3,0 -4,0 0,0 -1,0 -1,0 -1,0 -1,0 -2,0 0,0 -1,0 -1,0 -1,0 -1,0 -1,0l-18 0 0 -4 33 0z" fill-rule="nonzero"/>
        </g>
        <g  id="BUTTON_0" gorn="0.1.10">
            <polygon  fill="#CCCCCC" points="503,438 503,459 470,459 470,438 "/>
            <polygon  fill="#E5E5E5" points="503,457 503,459 470,459 470,457 "/>
            <polygon  fill="#CCCCCC" points="503,496 503,517 470,517 470,496 "/>
            <polygon  fill="#E5E5E5" points="503,515 503,517 470,517 470,515 "/>
            <polygon  fill="#CCCCCC" points="623,496 623,517 590,517 590,496 "/>
            <polygon  fill="#E5E5E5" points="623,515 623,517 590,517 590,515 "/>
            <polygon  fill="#CCCCCC" points="623,438 623,459 590,459 590,438 "/>
            <polygon  fill="#E5E5E5" points="623,457 623,459 590,459 590,457 "/>
            <polygon  fill="#999999" points="614,422 614,534 480,534 480,422 "/>
            <polygon  fill="#B2B2B2" points="614,534 611,534 611,422 614,422 "/>
            <polygon  fill="#8C8C8C" points="483,534 480,534 480,422 483,422 "/>
            <path  fill="black" d="M547 445c18,0 33,15 33,33 0,18 -15,33 -33,33 -18,0 -33,-15 -33,-33 0,-18 15,-33 33,-33z"/>
            <g >
                <path  fill="#404040" d="M545 448c17,0 30,14 30,30 0,17 -13,30 -30,30 -16,0 -30,-13 -30,-30 0,-16 14,-30 30,-30z"/>
                <path  fill="#999999" d="M545 448c17,0 30,14 30,30 0,17 -13,30 -30,30 38,-6 39,-55 0,-60z"/>
            </g>
        </g>
        <g  id="SMPS" gorn="0.1.11">
            <polygon  fill="#CCCCCC" points="179,352 179,373 146,373 146,352 "/>
            <polygon  fill="#E5E5E5" points="179,371 179,373 146,373 146,371 "/>
            <polygon  fill="#CCCCCC" points="179,280 179,302 146,302 146,280 "/>
            <polygon  fill="#E5E5E5" points="179,300 179,302 146,302 146,300 "/>
            <polygon  fill="#CCCCCC" points="259,281 259,302 226,302 226,281 "/>
            <polygon  fill="#E5E5E5" points="259,300 259,302 226,302 226,300 "/>
            <polygon  fill="#CCCCCC" points="259,316 259,337 226,337 226,316 "/>
            <polygon  fill="#E5E5E5" points="259,335 259,337 226,337 226,335 "/>
            <polygon  fill="#CCCCCC" points="259,352 259,373 226,373 226,352 "/>
            <polygon  fill="#E5E5E5" points="259,371 259,373 226,373 226,371 "/>
            <polygon  fill="#666666" points="168,270 235,270 235,381 168,381 "/>
        </g>
        <g  id="P0_x0020_MODULE" gorn="0.1.12">
            <polygon  fill="#006900" points="174,676 584,676 584,1125 174,1125 "/>
            <polygon  fill="#CCCCCC" points="180,1065 223,1065 223,1117 180,1117 "/>
            <polygon  fill="#B2B2B2" points="180,686 223,686 223,750 180,750 "/>
            <polygon  fill="#B2B2B2" points="520,686 578,686 578,726 520,726 "/>
            <polygon  fill="#CCCCCC" points="529,1076 578,1076 578,1117 529,1117 "/>
            <polygon  fill="#CCCCCC" points="397,1076 493,1076 493,1117 397,1117 "/>
            <polygon  fill="#B2B2B2" points="452,686 497,686 497,726 452,726 "/>
            <polygon  fill="#B2B2B2" points="358,686 398,686 398,726 358,726 "/>
            <polygon  fill="#9A916C" points="272,1080 329,1080 329,1110 272,1110 "/>
            <polygon  fill="#CC9933" points="259,689 328,689 328,722 259,722 "/>
            <polygon  fill="#CC9933" points="574,1069 550,1069 550,1027 574,1027 "/>
            <polygon  fill="#B2B2B2" points="187,694 571,694 571,1107 187,1107 "/>
            <path  fill="#CCCCCC" d="M187 802l0 -108 384 0 0 329c-73,-192 -288,-25 -384,-221z"/>
            <g  id="MARKINGS" gorn="0.1.12.13">
                <path  fill="#666666" d="M410 970c1,0 2,0 3,0 0,1 1,1 1,1 1,1 2,1 2,2 0,0 0,1 0,2 0,1 0,1 0,2 0,0 0,0 -1,1 0,0 -1,1 -1,1 -1,0 -1,1 -2,1 1,0 2,0 2,1 1,0 1,0 2,1 0,0 0,1 1,1 0,1 0,1 0,2 0,1 0,2 0,2 -1,1 -1,2 -2,2 0,1 -1,1 -2,1 -1,1 -2,1 -3,1 -1,0 -2,0 -3,-1 -1,0 -1,0 -2,-1 -1,0 -1,-1 -1,-1 -1,-1 -1,-2 -1,-3 0,0 0,-1 1,-2 0,0 0,-1 0,-1 1,-1 1,-1 2,-1 0,-1 1,-1 1,-1 0,0 0,-1 -1,-1 0,0 -1,-1 -1,-1 0,-1 -1,-1 -1,-1 0,-1 0,-2 0,-2 0,-1 0,-2 0,-2 1,-1 1,-1 2,-2 0,0 1,0 2,-1 1,0 1,0 2,0zm-4 15c0,1 0,1 0,2 0,0 1,0 1,1 0,0 1,0 1,0 1,0 1,1 2,1 1,0 1,-1 2,-1 0,0 1,0 1,0 1,-1 1,-1 1,-1 0,-1 0,-1 0,-2 0,0 0,-1 0,-1 0,-1 0,-1 -1,-1 0,-1 -1,-1 -1,-1 -1,0 -1,-1 -2,-1l0 0c-2,0 -2,1 -3,2 -1,0 -1,1 -1,2zm4 -13c-1,0 -2,0 -2,1 -1,0 -1,1 -1,2 0,1 0,1 0,1 0,1 0,1 1,1 0,1 0,1 1,1 0,0 1,1 1,1 1,0 1,-1 2,-1 0,0 0,0 1,-1 0,0 0,0 0,-1 1,0 1,0 1,-1 0,-1 -1,-2 -1,-2 -1,-1 -2,-1 -3,-1zm17 6c1,0 2,0 3,1 0,0 1,0 2,1 0,0 1,1 1,1 1,1 1,2 1,3 0,1 0,2 -1,3 0,1 0,1 -1,2 -1,0 -2,1 -3,1 -1,0 -2,1 -3,1 -1,0 -1,0 -2,0 0,0 -1,-1 -1,-1 0,0 -1,0 -1,0 -1,0 -1,0 -1,0l0 -3c0,0 0,1 1,1 0,0 1,0 1,0 1,0 1,0 2,0 0,1 1,1 1,1 1,0 2,-1 2,-1 1,0 1,0 2,-1 0,0 1,0 1,-1 0,0 0,-1 0,-2 0,-1 0,-2 -1,-3 -1,0 -2,-1 -4,-1 0,0 -1,0 -1,0 0,0 -1,0 -1,0 0,0 -1,0 -1,0 0,1 0,1 -1,1l-1 -1 1 -10 10 0 0 3 -8 0 0 5c0,0 0,0 1,0 0,0 1,0 2,0zm24 2c0,2 0,3 0,5 -1,1 -1,2 -1,3 -1,1 -2,1 -3,2 -1,0 -2,1 -3,1 -1,0 -2,-1 -3,-1 -1,-1 -2,-1 -2,-2 -1,-1 -1,-2 -1,-3 -1,-2 -1,-3 -1,-5 0,-1 0,-3 0,-4 1,-1 1,-2 2,-3 0,-1 1,-2 2,-2 1,-1 2,-1 3,-1 1,0 2,0 3,1 1,0 2,1 2,2 1,1 1,2 2,3 0,1 0,3 0,4zm-11 0c0,2 0,3 0,4 0,1 0,2 1,2 0,1 1,2 1,2 1,0 1,1 2,1 1,0 2,-1 2,-1 1,0 1,-1 1,-1 1,-1 1,-2 1,-3 0,-1 0,-2 0,-4 0,-1 0,-2 0,-3 0,-1 0,-2 -1,-3 0,0 0,-1 -1,-1 0,-1 -1,-1 -2,-1 -1,0 -1,0 -2,1 0,0 -1,1 -1,1 -1,1 -1,2 -1,3 0,1 0,2 0,3zm23 10l-2 0 0 -12c0,0 0,-1 0,-1 0,-1 0,-1 0,-2 0,0 0,-1 0,-1 0,0 0,-1 0,-1 0,0 -1,0 -1,0 0,1 0,1 0,1 0,0 0,0 -1,0 0,0 0,0 0,1l-2 1 -2 -2 6 -4 2 0 0 20zm22 -10c0,2 0,3 0,5 -1,1 -1,2 -2,3 0,1 -1,1 -2,2 -1,0 -2,1 -3,1 -1,0 -2,-1 -3,-1 -1,-1 -2,-1 -2,-2 -1,-1 -1,-2 -2,-3 0,-2 0,-3 0,-5 0,-1 0,-3 0,-4 1,-1 1,-2 2,-3 0,-1 1,-2 2,-2 1,-1 2,-1 3,-1 1,0 2,0 3,1 1,0 2,1 2,2 1,1 1,2 2,3 0,1 0,3 0,4zm-11 0c0,2 0,3 0,4 0,1 0,2 1,2 0,1 1,2 1,2 1,0 1,1 2,1 1,0 1,-1 2,-1 1,0 1,-1 1,-1 1,-1 1,-2 1,-3 0,-1 0,-2 0,-4 0,-1 0,-2 0,-3 0,-1 0,-2 -1,-3 0,0 0,-1 -1,-1 -1,-1 -1,-1 -2,-1 -1,0 -1,0 -2,1 0,0 -1,1 -1,1 -1,1 -1,2 -1,3 0,1 0,2 0,3zm29 6l-3 0 0 4 -3 0 0 -4 -10 0 0 -2 10 -14 3 0 0 14 3 0 0 2zm-6 -2l0 -5c0,-1 0,-1 0,-2 0,0 0,-1 0,-1 0,-1 0,-2 0,-2 0,0 0,-1 0,-1l0 0c0,0 0,0 0,0 0,1 0,1 0,1 -1,0 -1,1 -1,1 0,0 0,0 0,0l-6 9 7 0zm-92 19l6 0c1,0 2,0 3,0 1,0 2,1 2,1 1,0 2,1 2,2 0,0 0,1 0,2 0,1 0,1 0,2 0,0 0,0 -1,1 0,0 0,1 -1,1 -1,0 -1,0 -2,0l0 0c1,1 1,1 2,1 1,0 1,0 2,1 0,0 0,1 1,1 0,1 0,1 0,2 0,1 0,2 0,3 -1,0 -1,1 -2,1 0,1 -1,1 -2,1 -1,1 -2,1 -3,1l-7 0 0 -20zm2 8l4 0c1,0 2,0 2,0 1,0 1,0 2,0 0,-1 0,-1 0,-1 1,-1 1,-1 1,-2 0,-1 -1,-2 -1,-2 -1,-1 -3,-1 -4,-1l-4 0 0 6zm0 3l0 7 4 0c1,0 2,0 3,-1 0,0 1,0 1,0 0,-1 1,-1 1,-2 0,0 0,0 0,-1 0,-1 0,-1 0,-1 0,-1 -1,-1 -1,-1 0,-1 -1,-1 -1,-1 -1,0 -2,0 -3,0l-4 0zm26 9l-7 -18 0 0c0,1 0,2 0,2 0,1 1,2 1,2 0,1 0,1 0,2l0 12 -3 0 0 -20 4 0 6 16 0 0 6 -16 5 0 0 20 -3 0 0 -12c0,-1 0,-1 0,-2 0,0 0,-1 0,-2 0,0 0,-1 0,-2l0 0 -7 18 -2 0zm16 -6l0 -3 7 0 0 3 -7 0zm24 -4c0,1 0,3 0,4 -1,1 -1,3 -2,3 0,1 -1,2 -2,2 -1,1 -2,1 -3,1 -1,0 -2,0 -3,-1 -1,0 -2,-1 -2,-2 -1,0 -1,-2 -2,-3 0,-1 0,-3 0,-4 0,-2 0,-3 0,-4 1,-2 1,-3 2,-4 0,-1 1,-1 2,-2 1,0 2,0 3,0 1,0 2,0 3,0 1,1 2,1 2,2 1,1 1,2 2,4 0,1 0,2 0,4zm-11 0c0,1 0,2 0,3 0,1 0,2 1,3 0,1 1,1 1,2 1,0 1,0 2,0 1,0 1,0 2,0 1,-1 1,-1 1,-2 1,-1 1,-2 1,-3 0,-1 0,-2 0,-3 0,-1 0,-3 0,-4 0,-1 0,-2 -1,-2 0,-1 0,-1 -1,-2 -1,0 -1,0 -2,0 -1,0 -1,0 -2,0 0,1 -1,1 -1,2 -1,0 -1,1 -1,2 0,1 0,3 0,4zm28 -2c0,1 0,2 0,3 0,1 0,2 -1,3 0,1 0,2 -1,2 0,1 -1,2 -2,2 0,1 -1,1 -2,2 -1,0 -2,0 -4,0 0,0 0,0 0,0 0,0 -1,0 -1,0 0,0 0,0 -1,0 0,0 0,0 0,0l0 -2c0,0 1,0 1,0 0,0 1,0 1,0 2,0 3,0 4,0 1,-1 1,-1 2,-2 0,-1 1,-2 1,-3 0,-1 0,-2 0,-3l0 0c0,0 0,1 -1,1 0,0 0,1 -1,1 0,0 -1,0 -1,0 0,0 -1,0 -2,0 -1,0 -1,0 -2,0 -1,0 -2,-1 -2,-1 -1,-1 -1,-1 -1,-2 -1,-1 -1,-2 -1,-3 0,-1 0,-2 1,-2 0,-1 0,-2 1,-3 1,0 1,-1 2,-1 1,0 2,0 3,0 1,0 2,0 3,0 1,1 1,1 2,2 1,1 1,1 1,3 1,1 1,2 1,3zm-7 -6c-1,0 -1,0 -2,0 0,0 -1,0 -1,1 0,0 -1,1 -1,1 0,1 0,2 0,2 0,1 0,2 0,2 0,1 0,1 1,1 0,1 1,1 1,1 1,0 1,0 2,0 0,0 1,0 2,0 0,0 1,0 1,-1 0,0 1,0 1,-1 0,0 0,-1 0,-1 0,-1 0,-1 0,-2 0,-1 0,-1 -1,-2 0,0 -1,0 -1,-1 -1,0 -1,0 -2,0zm10 12l0 -3 7 0 0 3 -7 0zm23 1c0,0 0,1 -1,2 0,1 0,1 -1,2 -1,0 -1,1 -2,1 -1,0 -2,0 -3,0 -2,0 -3,0 -4,0 -1,0 -1,0 -2,-1l0 -2c0,0 1,0 1,0 1,0 1,0 2,1 0,0 0,0 1,0 1,0 1,0 2,0 1,0 2,0 3,-1 1,0 1,-1 1,-2 0,-1 0,-1 0,-1 0,-1 0,-1 -1,-1 0,-1 -1,-1 -1,-1 -1,-1 -2,-1 -3,-1 0,-1 -1,-1 -2,-1 -1,-1 -1,-1 -1,-2 -1,0 -1,-1 -1,-1 -1,-1 -1,-2 -1,-2 0,-1 0,-2 1,-2 0,-1 1,-2 1,-2 1,0 1,-1 2,-1 1,0 2,0 3,0 1,0 2,0 3,0 1,0 2,0 3,1l-1 2c-1,0 -2,-1 -3,-1 0,0 -1,0 -2,0 -1,0 -2,0 -3,1 -1,0 -1,1 -1,2 0,0 0,1 0,1 0,0 1,1 1,1 0,0 1,1 1,1 1,0 2,1 3,1 0,0 1,0 2,1 1,0 1,1 2,1 0,0 0,1 1,2 0,0 0,1 0,2zm-106 25c1,0 2,0 3,1 0,0 1,0 2,1 0,0 1,1 1,1 1,1 1,2 1,3 0,1 0,2 -1,3 0,1 0,1 -1,2 -1,0 -2,1 -3,1 -1,0 -2,1 -3,1 -1,0 -1,0 -2,0 0,0 -1,-1 -1,-1 0,0 -1,0 -1,0 -1,0 -1,0 -1,0l0 -3c0,0 0,1 1,1 0,0 1,0 1,0 1,0 1,0 2,0 0,1 1,1 1,1 1,0 2,-1 2,-1 1,0 1,0 2,-1 0,0 1,0 1,-1 0,0 0,-1 0,-2 0,-1 0,-2 -1,-3 -1,0 -2,-1 -4,-1 0,0 -1,0 -1,0 0,0 -1,0 -1,0 0,0 -1,0 -1,0 0,1 0,1 -1,1l-1 -1 1 -10 10 0 0 3 -8 0 0 5c0,0 0,0 1,0 0,0 1,0 2,0zm13 12l8 -17 -11 0 0 -3 14 0 0 2 -8 18 -3 0zm27 -15c0,1 0,1 0,2 -1,0 -1,1 -1,1 -1,1 -1,1 -2,1 0,1 -1,1 -2,1l0 0c2,0 3,1 4,2 1,0 2,1 2,3 0,1 0,1 -1,2 0,1 -1,1 -1,2 -1,1 -2,1 -3,1 -1,1 -2,1 -3,1 -1,0 -2,0 -3,-1 -1,0 -2,0 -3,0l0 -3c1,1 2,1 3,1 1,0 2,1 3,1 1,0 1,-1 2,-1 1,0 1,0 2,-1 0,0 0,0 1,-1 0,0 0,-1 0,-1 0,-1 0,-2 0,-2 -1,0 -1,-1 -2,-1 0,0 -1,-1 -1,-1 -1,0 -2,0 -3,0l-2 0 0 -2 2 0c1,0 2,0 2,0 1,0 2,-1 2,-1 0,0 1,-1 1,-1 0,-1 0,-1 0,-2 0,0 0,-1 0,-1 0,0 0,-1 -1,-1 0,0 0,0 -1,-1 0,0 -1,0 -1,0 -2,0 -3,0 -3,1 -1,0 -2,0 -3,1l-1 -2c0,0 1,0 1,-1 1,0 1,0 2,0 0,0 1,-1 1,-1 1,0 2,0 2,0 2,0 3,0 3,1 1,0 2,0 2,1 1,0 1,1 2,1 0,1 0,1 0,2z" fill-rule="nonzero"/>
                <g  id="SPARK_x0020_LOGO_1" gorn="0.1.12.13.1">
                    <polygon  fill="#666666" points="428,854 401,811 426,769 385,795 343,769 370,810 344,852 385,826 "/>
                    <polygon  fill="#666666" points="392,838 385,834 379,838 385,869 "/>
                    <polygon  fill="#666666" points="362,811 358,816 327,811 358,804 361,810 "/>
                    <polygon  fill="#666666" points="412,818 408,811 413,803 443,811 "/>
                    <polygon  fill="#666666" points="392,783 385,752 378,783 385,787 "/>
                    <polygon  fill="#666666" points="428,854 401,811 426,769 426,769 399,811 "/>
                </g>
                <path  fill="#666666" d="M383 887c0,1 0,2 -1,3 0,1 -1,2 -2,3 -1,1 -2,1 -4,2 -1,0 -3,0 -5,0l-3 0 0 11 -4 0 0 -27 7 0c2,0 4,0 6,0 1,1 2,1 3,2 1,1 2,2 2,3 0,0 1,2 1,3zm-15 6l2 0c2,0 3,-1 4,-1 1,0 2,0 2,-1 1,0 2,-1 2,-1 0,-1 0,-2 0,-3 0,-2 0,-3 -1,-4 -2,-1 -3,-1 -6,-1l-3 0 0 11zm40 -1c0,3 -1,5 -1,6 0,2 -1,3 -2,5 -1,1 -2,2 -3,2 -1,1 -3,1 -5,1 -1,0 -3,0 -4,-1 -1,0 -3,-1 -3,-2 -1,-2 -2,-3 -2,-5 -1,-1 -1,-3 -1,-6 0,-2 0,-4 1,-5 0,-2 1,-4 1,-5 1,-1 2,-2 4,-3 1,0 2,0 4,0 2,0 4,0 5,0 1,1 2,2 3,3 1,1 1,3 2,5 0,1 1,3 1,5zm-17 0c0,2 0,4 1,5 0,2 0,3 1,4 0,1 1,1 1,2 1,0 2,0 3,0 1,0 2,0 3,0 1,-1 2,-1 2,-2 1,-1 1,-2 1,-4 0,-1 0,-3 0,-5 0,-1 0,-3 0,-4 0,-2 0,-3 -1,-4 0,-1 -1,-1 -2,-2 -1,0 -2,-1 -3,-1 -1,0 -2,1 -3,1 0,1 -1,1 -1,2 -1,1 -1,2 -1,4 -1,1 -1,3 -1,4z" fill-rule="nonzero"/>
                <path  fill="#666666" id="QRCODE" gorn="0.1.12.13.3" d="M247 1054l0 -7 0 -8 0 -7 0 -7 0 -7 0 -7 0 -7 0 -8 0 -7 0 -7 0 -7 0 -7 0 -7 0 -8 0 -7 0 -7 0 -7 0 -7 7 0 0 7 7 0 0 -7 7 0 0 7 7 0 0 -7 8 0 0 7 0 7 7 0 7 0 7 0 7 0 0 -7 -7 0 0 -7 7 0 0 7 7 0 0 -7 8 0 0 7 -8 0 0 7 8 0 0 7 7 0 0 -7 7 0 0 -7 -7 0 0 -7 7 0 0 7 7 0 0 -7 7 0 0 7 -7 0 0 7 7 0 0 7 0 7 0 8 0 7 0 7 -7 0 0 7 0 7 7 0 0 7 0 8 0 7 0 7 0 7 -7 0 0 7 7 0 0 7 -7 0 0 -7 -7 0 -7 0 0 7 -7 0 0 -7 -8 0 0 -7 -7 0 0 -7 -7 0 0 7 -7 0 0 7 7 0 0 7 7 0 0 8 0 0 7 0 8 0 7 0 7 0 7 0 7 0 0 -8 0 -7 0 -7 7 0 0 -7 8 0 7 0 0 7 -7 0 0 0 -8 0 0 7 0 7 0 8 0 0 8 0 7 0 0 7 -7 0 -8 0 -7 0 -7 0 -7 0 -7 0 -7 0 -8 0 -7 0 -7 0 -7 0 -7 0 -7 0 -8 0 -7 0 -7 0 -7 0 -7 0zm129 -115l-7 0 0 7 0 0 7 0 0 7 -7 0 0 8 0 0 7 0 0 7 -7 0 0 7 7 0 0 7 -7 0 0 -7 -8 0 0 7 -7 0 0 -7 0 -7 0 -7 7 0 0 -8 -7 0 0 -7 0 -7 0 -7 7 0 0 -7 8 0 0 7 7 0 0 7zm-7 0l0 -7 -8 0 0 7 8 0zm7 57l-7 0 0 8 7 0 0 7 -7 0 0 -7 -8 0 0 7 -7 0 0 -7 0 -8 7 0 8 0 0 -7 7 0 0 7zm0 43l-7 0 0 -7 7 0 0 7zm-29 -93l-7 0 0 7 0 8 -7 0 0 -8 -7 0 0 0 0 8 -8 0 0 -8 0 -7 0 -7 -7 0 0 7 -7 0 0 7 0 8 -7 0 -7 0 0 7 -7 0 0 -7 0 -8 7 0 0 -7 -7 0 -8 0 0 7 -7 0 0 8 -7 0 0 7 -7 0 0 7 7 0 0 -7 7 0 0 0 7 0 0 7 0 7 -7 0 0 7 -7 0 0 7 7 0 7 0 0 -7 8 0 0 7 -8 0 0 8 0 7 8 0 0 -7 7 0 7 0 0 -8 7 0 7 0 0 8 -7 0 0 7 7 0 7 0 8 0 0 7 -8 0 0 7 8 0 7 0 7 0 7 0 0 -7 -7 0 -7 0 0 -7 7 0 7 0 0 -7 0 -8 -7 0 -7 0 0 8 -7 0 0 0 -8 0 0 -8 0 -7 8 0 0 7 7 0 0 -7 -7 0 0 -7 -8 0 -7 0 0 7 -7 0 0 -7 7 0 0 -7 7 0 0 -7 8 0 0 7 0 7 7 0 0 -7 0 -7 7 0 7 0 0 -7 0 -8 0 -7zm-7 43l0 -7 -7 0 0 7 7 0zm-36 50l-7 0 0 8 7 0 0 -8zm-7 -21l-7 0 0 7 7 0 0 -7zm-7 -86l0 -7 7 0 0 7 -7 0zm0 50l0 -7 7 0 0 7 -7 0zm-7 50l-8 0 0 7 8 0 0 -7zm-8 -93l-7 0 0 -7 -7 0 0 7 -7 0 0 7 0 7 0 8 7 0 0 -8 0 -7 7 0 7 0 0 -7zm0 79l-7 0 0 -7 -7 0 0 -7 0 -8 -7 0 0 8 0 7 0 7 7 0 0 7 0 7 -7 0 0 7 0 8 7 0 7 0 0 -8 0 -7 7 0 0 -7 0 -7zm-7 -43l-7 0 0 7 7 0 0 -7zm-7 7l-7 0 0 7 7 0 0 -7z"/>
                <g  id="USI_x0020_LOGO" gorn="0.1.12.13.4">
                    <path  fill="#666666" d="M402 916l41 0 21 29 49 0 0 6 -51 0 -22 -30 -35 0 -3 -5zm18 14l15 0 11 15 -16 0 -10 -15zm36 21l-29 0 -19 -26 29 0 19 26zm57 4l0 6 -78 0 -5 -6 83 0z"/>
                    <path  fill="#666666" d="M464 915l4 0 0 14c0,3 0,4 0,5 1,1 1,2 2,2 1,1 2,1 3,1 1,0 2,0 3,-1 0,0 1,-1 1,-2 0,-1 0,-2 0,-4l0 -15 5 0 0 14c0,3 0,5 -1,7 0,1 0,2 -1,3 -1,1 -1,1 -3,2 -1,0 -2,1 -4,1 -2,0 -4,-1 -5,-1 -1,-1 -2,-1 -3,-2 0,-1 -1,-2 -1,-3 0,-2 0,-4 0,-7l0 -14zm23 18l5 0c0,1 0,1 0,2 0,1 2,2 3,2 2,0 3,0 4,-1 0,-1 1,-1 1,-2 0,-1 0,-1 -1,-2 0,0 -1,-1 -1,-1 -1,0 -2,-1 -4,-1 -3,-1 -4,-2 -5,-3 -2,-1 -3,-3 -3,-5 0,-1 1,-3 1,-4 1,-1 2,-2 3,-2 2,-1 3,-1 5,-1 3,0 5,0 6,2 2,1 3,3 3,6l-5 0c0,-2 -1,-2 -1,-3 -1,-1 -2,-1 -3,-1 -2,0 -3,0 -3,1 -1,0 -1,1 -1,2 0,0 0,1 1,1 0,1 2,1 4,2 2,1 4,1 5,2 1,0 2,1 2,3 1,1 1,2 1,4 0,1 0,3 -1,4 0,1 -2,2 -3,3 -1,0 -3,1 -5,1 -3,0 -5,-1 -7,-3 -2,-1 -1,-3 -1,-6zm21 8l0 -26 5 0 0 26 -5 0z" fill-rule="nonzero"/>
                    <path  fill="#666666" d="M521 915c0,0 1,0 2,1 0,0 1,1 1,1 1,1 1,2 1,2 0,1 0,2 -1,3 0,0 -1,1 -1,1 -1,0 -2,1 -2,1 -1,0 -2,-1 -3,-1 0,0 -1,-1 -1,-1 -1,-1 -1,-2 -1,-3 0,0 0,-1 1,-2 0,0 1,-1 1,-1 1,-1 2,-1 3,-1zm0 1c-1,0 -2,0 -2,0 -1,1 -1,1 -2,2 0,0 0,1 0,1 0,1 0,2 0,2 1,1 1,1 2,2 0,0 1,0 2,0 0,0 1,0 1,0 1,-1 1,-1 2,-2 0,0 0,-1 0,-2 0,0 0,-1 0,-1 -1,-1 -1,-1 -2,-2 0,0 -1,0 -1,0zm-2 6l0 -5 1 0c1,0 1,0 1,0 1,0 1,1 1,1 0,0 0,0 0,0 0,1 0,1 0,1 0,1 -1,1 -1,1 0,0 0,0 0,0 0,0 1,0 1,1l1 1 -1 0 -1 -1c0,0 0,-1 -1,-1 0,0 0,0 0,0l-1 0 0 2 0 0zm0 -3l1 0c1,0 1,0 1,0 0,0 0,0 0,0 0,-1 0,-1 0,-1 0,0 0,0 0,0 0,0 0,0 -1,0l-1 0 0 1z"/>
                </g>
            </g>
            <g  id="PIN1" gorn="0.1.12.14">
                <path  fill="#404040" d="M233 764c-6,-6 -6,-16 0,-22 6,-6 15,-6 21,0 6,6 6,16 0,22 -6,5 -15,5 -21,0z"/>
                <path  fill="white" d="M233 764c-6,-6 -6,-16 0,-22 6,-6 15,-6 21,0 -16,-12 -34,6 -21,22z"/>
            </g>
        </g>
        <g  id="RGB_x0020_LED" gorn="0.1.13">
            <g >
                <polygon  fill="#CCCCCC" points="361,486 361,507 342,507 342,486 "/>
                <polygon  fill="#E5E5E5" points="361,505 361,507 342,507 342,505 "/>
            </g>
            <g >
                <polygon  fill="#CCCCCC" points="361,450 361,471 342,471 342,450 "/>
                <polygon  fill="#E5E5E5" points="361,469 361,471 342,471 342,469 "/>
            </g>
            <g >
                <polygon  fill="#CCCCCC" points="414,486 414,508 394,508 394,486 "/>
                <polygon  fill="#E5E5E5" points="414,506 414,508 394,508 394,506 "/>
            </g>
            <g >
                <polygon  fill="#CCCCCC" points="414,450 414,471 394,471 394,450 "/>
                <polygon  fill="#E5E5E5" points="414,469 414,471 394,471 394,469 "/>
            </g>
            <polygon  fill="black" points="344,514 344,443 356,443 411,443 411,514 "/>
            <polygon  fill="#404040" points="344,458 344,457 355,443 356,443 "/>
            <polygon  fill="#E5E5E5" points="354,504 350,478 354,454 378,450 402,454 406,478 402,504 378,507 "/>
            <path  fill="#B2B2B2" d="M366 477c0,-6 5,-11 11,-11l0 11 -11 0z"/>
            <path  fill="#1B5BB3" d="M366 478c0,7 5,12 11,12l0 -12 -11 0z"/>
            <path  fill="#00A63D" d="M389 478c0,7 -5,12 -11,12l0 -12 11 0z"/>
            <path  fill="#CC1414" d="M389 477c0,-6 -5,-11 -11,-11l0 11 11 0z"/>
            <polygon  fill="white" points="354,504 350,478 354,454 378,450 402,454 378,452 354,454 352,478 "/>
            <polygon  fill="#B2B2B2" points="402,454 406,478 402,504 378,507 354,504 378,505 402,504 404,478 "/>
        </g>
        <g  id="BTCOEX_x0020_PADS" gorn="0.1.14">
            <polygon  fill="#CC9933" points="127,1018 127,987 159,987 159,1018 "/>
            <polygon  fill="#CC9933" points="127,972 127,941 159,941 159,972 "/>
            <polygon  fill="#CC9933" points="127,926 127,894 159,894 159,926 "/>
            <polygon  fill="#E6AB00" points="127,1018 127,1017 159,1017 159,1018 "/>
            <polygon  fill="#E6AB00" points="127,972 127,971 159,971 159,972 "/>
            <polygon  fill="#E6AB00" points="127,926 127,925 159,925 159,926 "/>
        </g>
        <g  id="PINS_2" gorn="0.1.15">
            <g  id="PIN" gorn="0.1.15.0">
                <path  fill="#B2B2B2" d="M80 1264c0,18 -14,33 -33,33 -18,0 -33,-15 -33,-33 0,-18 15,-33 33,-33 19,0 33,15 33,33z"/>
                <path  fill="#999999" d="M75 1246c-5,0 -17,4 -28,18 -11,-15 -21,-18 -27,-19 8,-10 19,-14 27,-14 9,0 21,4 28,15z"/>
                <path  fill="#999999" d="M35 1276l12 -12 12 12c-8,-2 -16,-2 -24,0z"/>
                <path  fill="#CCCCCC" d="M47 1264l12 -12c-2,8 -2,16 0,24l-12 -12z"/>
                <path  fill="#999999" d="M47 1264l-12 -12c8,2 16,2 24,0l-12 12z"/>
                <path  fill="#CCCCCC" d="M47 1264l-12 12c2,-8 2,-16 0,-24l12 12z"/>
                <path  fill="#CCCCCC" d="M53 1264c-1,3 -2,5 -6,5 -3,0 -5,-2 -5,-5 0,-3 2,-5 5,-5 4,0 6,2 6,5z"/>
                <path  fill="#E5E5E5" d="M53 1264c-1,3 -2,5 -6,5 -1,0 -3,0 -4,-1 1,1 2,1 4,1 3,0 5,-2 5,-5 0,-2 0,-3 -1,-4 1,1 2,2 2,4z"/>
                <path  fill="#666666" d="M44 1268c-1,-1 -2,-2 -2,-4 0,-3 2,-5 5,-5 2,0 3,0 4,1 -1,0 -2,-1 -3,-1 -4,0 -6,2 -6,5 0,2 1,3 2,4z"/>
            </g>
            <g  id="PIN_3" gorn="0.1.15.1">
                <path  fill="#B2B2B2" d="M80 1169c0,18 -14,33 -33,33 -18,0 -33,-15 -33,-33 0,-18 15,-33 33,-33 19,0 33,15 33,33z"/>
                <path  fill="#999999" d="M75 1151c-5,0 -17,4 -28,18 -11,-14 -21,-18 -27,-19 8,-10 19,-14 27,-14 9,0 21,4 28,15z"/>
                <path  fill="#999999" d="M35 1181l12 -12 12 12c-8,-2 -16,-2 -24,0z"/>
                <path  fill="#CCCCCC" d="M47 1169l12 -12c-2,8 -2,16 0,24l-12 -12z"/>
                <path  fill="#999999" d="M47 1169l-12 -12c8,2 16,2 24,0l-12 12z"/>
                <path  fill="#CCCCCC" d="M47 1169l-12 12c2,-8 2,-16 0,-24l12 12z"/>
                <path  fill="#CCCCCC" d="M53 1169c-1,3 -2,5 -6,5 -3,0 -5,-1 -5,-5 0,-3 2,-5 5,-5 4,0 6,2 6,5z"/>
                <path  fill="#E5E5E5" d="M53 1169c-1,3 -2,5 -6,5 -1,0 -3,0 -4,-1 1,1 2,1 4,1 3,0 5,-2 5,-5 0,-2 0,-3 -1,-4 1,1 2,2 2,4z"/>
                <path  fill="#666666" d="M44 1173c-1,-1 -2,-2 -2,-4 0,-3 2,-5 5,-5 2,0 3,0 4,1 -1,0 -2,-1 -3,-1 -4,0 -6,2 -6,6 0,1 1,2 2,3z"/>
            </g>
            <g  id="PIN_4" gorn="0.1.15.2">
                <path  fill="#B2B2B2" d="M80 1074c0,19 -14,33 -33,33 -18,0 -33,-14 -33,-33 0,-18 15,-33 33,-33 19,0 33,15 33,33z"/>
                <path  fill="#999999" d="M75 1056c-5,0 -17,4 -28,18 -11,-14 -21,-18 -27,-19 8,-10 19,-14 27,-14 9,0 21,4 28,15z"/>
                <path  fill="#999999" d="M35 1086l12 -12 12 12c-8,-2 -16,-2 -24,0z"/>
                <path  fill="#CCCCCC" d="M47 1074l12 -12c-2,8 -2,16 0,24l-12 -12z"/>
                <path  fill="#999999" d="M47 1074l-12 -12c8,2 16,2 24,0l-12 12z"/>
                <path  fill="#CCCCCC" d="M47 1074l-12 12c2,-8 2,-16 0,-24l12 12z"/>
                <path  fill="#CCCCCC" d="M53 1074c-1,4 -2,6 -6,6 -3,0 -5,-2 -5,-6 0,-3 2,-5 5,-5 4,0 6,2 6,5z"/>
                <path  fill="#E5E5E5" d="M53 1074c-1,4 -2,6 -6,6 -1,0 -3,-1 -4,-2 1,1 2,1 4,1 3,0 5,-2 5,-5 0,-2 0,-3 -1,-4 1,1 2,3 2,4z"/>
                <path  fill="#666666" d="M44 1078c-1,0 -2,-2 -2,-4 0,-3 2,-5 5,-5 2,0 3,1 4,1 -1,0 -2,-1 -3,-1 -4,0 -6,2 -6,6 0,1 1,3 2,3z"/>
            </g>
            <g  id="PIN_5" gorn="0.1.15.3">
                <path  fill="#B2B2B2" d="M80 979c0,19 -14,34 -33,34 -18,0 -33,-15 -33,-34 0,-18 15,-33 33,-33 19,0 33,15 33,33z"/>
                <path  fill="#999999" d="M75 961c-5,0 -17,4 -28,18 -11,-14 -21,-17 -27,-18 8,-11 19,-15 27,-15 9,0 21,4 28,15z"/>
                <path  fill="#999999" d="M35 991l12 -12 12 12c-8,-2 -16,-2 -24,0z"/>
                <path  fill="#CCCCCC" d="M47 979l12 -11c-2,7 -2,15 0,23l-12 -12z"/>
                <path  fill="#999999" d="M47 979l-12 -11c8,1 16,2 24,0l-12 11z"/>
                <path  fill="#CCCCCC" d="M47 979l-12 12c2,-8 2,-16 0,-23l12 11z"/>
                <path  fill="#CCCCCC" d="M53 979c-1,4 -2,6 -6,6 -3,0 -5,-2 -5,-6 0,-3 2,-5 5,-5 4,0 6,2 6,5z"/>
                <path  fill="#E5E5E5" d="M53 979c-1,4 -2,6 -6,6 -1,0 -3,-1 -4,-2 1,1 2,1 4,1 3,0 5,-2 5,-5 0,-1 0,-3 -1,-4 1,1 2,3 2,4z"/>
                <path  fill="#666666" d="M44 984c-1,-1 -2,-3 -2,-5 0,-3 2,-5 5,-5 2,0 3,1 4,2 -1,-1 -2,-1 -3,-1 -4,0 -6,1 -6,5 0,1 1,3 2,4z"/>
            </g>
            <g  id="PIN_6" gorn="0.1.15.4">
                <path  fill="#B2B2B2" d="M80 885c0,18 -14,33 -33,33 -18,0 -33,-15 -33,-33 0,-19 15,-33 33,-33 19,0 33,14 33,33z"/>
                <path  fill="#999999" d="M75 866c-5,0 -17,4 -28,19 -11,-15 -21,-18 -27,-19 8,-11 19,-15 27,-14 9,-1 21,4 28,14z"/>
                <path  fill="#999999" d="M35 896l12 -11 12 11c-8,-1 -16,-1 -24,0z"/>
                <path  fill="#CCCCCC" d="M47 885l12 -12c-2,7 -2,15 0,23l-12 -11z"/>
                <path  fill="#999999" d="M47 885l-12 -12c8,2 16,2 24,0l-12 12z"/>
                <path  fill="#CCCCCC" d="M47 885l-12 11c2,-8 2,-15 0,-23l12 12z"/>
                <path  fill="#CCCCCC" d="M53 885c-1,3 -2,5 -6,5 -3,0 -5,-2 -5,-5 0,-4 2,-6 5,-6 4,0 6,2 6,6z"/>
                <path  fill="#E5E5E5" d="M53 885c-1,3 -2,5 -6,5 -1,0 -3,-1 -4,-2 1,1 2,1 4,1 3,0 5,-2 5,-5 0,-1 0,-3 -1,-4 1,1 2,3 2,5z"/>
                <path  fill="#666666" d="M44 889c-1,-1 -2,-3 -2,-4 0,-4 2,-6 5,-6 2,0 3,1 4,2 -1,-1 -2,-1 -3,-1 -4,0 -6,2 -6,5 0,2 1,3 2,4z"/>
            </g>
            <g  id="PIN_7" gorn="0.1.15.5">
                <path  fill="#B2B2B2" d="M80 790c0,18 -14,33 -33,33 -18,0 -33,-15 -33,-33 0,-19 15,-33 33,-33 19,0 33,14 33,33z"/>
                <path  fill="#999999" d="M75 771c-5,0 -17,4 -28,19 -11,-15 -21,-18 -27,-19 8,-11 19,-14 27,-14 9,0 21,4 28,14z"/>
                <path  fill="#999999" d="M35 802l12 -12 12 12c-8,-2 -16,-2 -24,0z"/>
                <path  fill="#CCCCCC" d="M47 790l12 -12c-2,8 -2,16 0,24l-12 -12z"/>
                <path  fill="#999999" d="M47 790l-12 -12c8,2 16,2 24,0l-12 12z"/>
                <path  fill="#CCCCCC" d="M47 790l-12 12c2,-8 2,-16 0,-24l12 12z"/>
                <path  fill="#CCCCCC" d="M53 790c-1,3 -2,5 -6,5 -3,0 -5,-2 -5,-5 0,-4 2,-6 5,-6 4,0 6,3 6,6z"/>
                <path  fill="#E5E5E5" d="M53 790c-1,3 -2,5 -6,5 -1,0 -3,-1 -4,-2 1,1 2,2 4,2 3,0 5,-2 5,-6 0,-1 0,-2 -1,-3 1,1 2,2 2,4z"/>
                <path  fill="#666666" d="M44 794c-1,-1 -2,-2 -2,-4 0,-4 2,-6 5,-6 2,0 3,1 4,2 -1,-1 -2,-1 -3,-1 -4,0 -6,2 -6,5 0,2 1,3 2,4z"/>
            </g>
            <g  id="PIN_8" gorn="0.1.15.6">
                <path  fill="#B2B2B2" d="M80 695c0,18 -14,33 -33,33 -18,0 -33,-15 -33,-33 0,-18 15,-33 33,-33 19,0 33,15 33,33z"/>
                <path  fill="#999999" d="M75 676c-5,1 -17,5 -28,19 -11,-15 -21,-18 -27,-19 8,-11 19,-14 27,-14 9,0 21,4 28,14z"/>
                <path  fill="#999999" d="M35 707l12 -12 12 12c-8,-2 -16,-2 -24,0z"/>
                <path  fill="#CCCCCC" d="M47 695l12 -12c-2,8 -2,16 0,24l-12 -12z"/>
                <path  fill="#999999" d="M47 695l-12 -12c8,2 16,2 24,0l-12 12z"/>
                <path  fill="#CCCCCC" d="M47 695l-12 12c2,-8 2,-16 0,-24l12 12z"/>
                <path  fill="#CCCCCC" d="M53 695c-1,3 -2,5 -6,5 -3,0 -5,-2 -5,-5 0,-3 2,-5 5,-5 4,0 6,2 6,5z"/>
                <path  fill="#E5E5E5" d="M53 695c-1,3 -2,5 -6,5 -1,0 -3,0 -4,-1 1,0 2,1 4,1 3,0 5,-2 5,-6 0,-1 0,-2 -1,-3 1,1 2,2 2,4z"/>
                <path  fill="#666666" d="M44 699c-1,-1 -2,-2 -2,-4 0,-3 2,-5 5,-5 2,0 3,0 4,1 -1,-1 -2,-1 -3,-1 -4,0 -6,2 -6,5 0,2 1,3 2,4z"/>
            </g>
            <g  id="PIN_9" gorn="0.1.15.7">
                <path  fill="#B2B2B2" d="M80 600c0,18 -14,33 -33,33 -18,0 -33,-15 -33,-33 0,-18 15,-33 33,-33 19,0 33,15 33,33z"/>
                <path  fill="#999999" d="M75 581c-5,1 -17,5 -28,19 -11,-15 -21,-18 -27,-19 8,-10 19,-14 27,-14 9,0 21,4 28,14z"/>
                <path  fill="#999999" d="M35 612l12 -12 12 12c-8,-2 -16,-2 -24,0z"/>
                <path  fill="#CCCCCC" d="M47 600l12 -12c-2,8 -2,16 0,24l-12 -12z"/>
                <path  fill="#999999" d="M47 600l-12 -12c8,2 16,2 24,0l-12 12z"/>
                <path  fill="#CCCCCC" d="M47 600l-12 12c2,-8 2,-16 0,-24l12 12z"/>
                <path  fill="#CCCCCC" d="M53 600c-1,3 -2,5 -6,5 -3,0 -5,-2 -5,-5 0,-3 2,-5 5,-5 4,0 6,2 6,5z"/>
                <path  fill="#E5E5E5" d="M53 600c-1,3 -2,5 -6,5 -1,0 -3,0 -4,-1 1,0 2,1 4,1 3,0 5,-2 5,-5 0,-2 0,-3 -1,-4 1,1 2,2 2,4z"/>
                <path  fill="#666666" d="M44 604c-1,-1 -2,-2 -2,-4 0,-3 2,-5 5,-5 2,0 3,0 4,1 -1,-1 -2,-1 -3,-1 -4,0 -6,2 -6,5 0,2 1,3 2,4z"/>
            </g>
            <g  id="PIN_10" gorn="0.1.15.8">
                <path  fill="#B2B2B2" d="M80 505c0,18 -14,33 -33,33 -18,0 -33,-15 -33,-33 0,-18 15,-33 33,-33 19,0 33,15 33,33z"/>
                <path  fill="#999999" d="M75 487c-5,0 -17,4 -28,18 -11,-15 -21,-18 -27,-19 8,-10 19,-14 27,-14 9,0 21,4 28,15z"/>
                <path  fill="#999999" d="M35 517l12 -12 12 12c-8,-2 -16,-2 -24,0z"/>
                <path  fill="#CCCCCC" d="M47 505l12 -12c-2,8 -2,16 0,24l-12 -12z"/>
                <path  fill="#999999" d="M47 505l-12 -12c8,2 16,2 24,0l-12 12z"/>
                <path  fill="#CCCCCC" d="M47 505l-12 12c2,-8 2,-16 0,-24l12 12z"/>
                <path  fill="#CCCCCC" d="M53 505c-1,3 -2,5 -6,5 -3,0 -5,-2 -5,-5 0,-3 2,-5 5,-5 4,0 6,2 6,5z"/>
                <path  fill="#E5E5E5" d="M53 505c-1,3 -2,5 -6,5 -1,0 -3,0 -4,-1 1,0 2,1 4,1 3,0 5,-2 5,-5 0,-2 0,-3 -1,-4 1,1 2,2 2,4z"/>
                <path  fill="#666666" d="M44 509c-1,-1 -2,-2 -2,-4 0,-3 2,-5 5,-5 2,0 3,0 4,1 -1,0 -2,-1 -3,-1 -4,0 -6,2 -6,5 0,2 1,3 2,4z"/>
            </g>
            <g  id="PIN_11" gorn="0.1.15.9">
                <path  fill="#B2B2B2" d="M80 410c0,18 -14,33 -33,33 -18,0 -33,-15 -33,-33 0,-18 15,-33 33,-33 19,0 33,15 33,33z"/>
                <path  fill="#999999" d="M75 392c-5,0 -17,4 -28,18 -11,-14 -21,-18 -27,-19 8,-10 19,-14 27,-14 9,0 21,4 28,15z"/>
                <path  fill="#999999" d="M35 422l12 -12 12 12c-8,-2 -16,-2 -24,0z"/>
                <path  fill="#CCCCCC" d="M47 410l12 -12c-2,8 -2,16 0,24l-12 -12z"/>
                <path  fill="#999999" d="M47 410l-12 -12c8,2 16,2 24,0l-12 12z"/>
                <path  fill="#CCCCCC" d="M47 410l-12 12c2,-8 2,-16 0,-24l12 12z"/>
                <path  fill="#CCCCCC" d="M53 410c-1,3 -2,5 -6,5 -3,0 -5,-2 -5,-5 0,-3 2,-5 5,-5 4,0 6,2 6,5z"/>
                <path  fill="#E5E5E5" d="M53 410c-1,3 -2,5 -6,5 -1,0 -3,0 -4,-1 1,1 2,1 4,1 3,0 5,-2 5,-5 0,-2 0,-3 -1,-4 1,1 2,2 2,4z"/>
                <path  fill="#666666" d="M44 414c-1,-1 -2,-2 -2,-4 0,-3 2,-5 5,-5 2,0 3,0 4,1 -1,0 -2,-1 -3,-1 -4,0 -6,2 -6,5 0,2 1,3 2,4z"/>
            </g>
            <g  id="PIN_12" gorn="0.1.15.10">
                <path  fill="#B2B2B2" d="M80 315c0,19 -14,33 -33,33 -18,0 -33,-14 -33,-33 0,-18 15,-33 33,-33 19,0 33,15 33,33z"/>
                <path  fill="#999999" d="M75 297c-5,0 -17,4 -28,18 -11,-14 -21,-18 -27,-19 8,-10 19,-14 27,-14 9,0 21,4 28,15z"/>
                <path  fill="#999999" d="M35 327l12 -12 12 12c-8,-2 -16,-2 -24,0z"/>
                <path  fill="#CCCCCC" d="M47 315l12 -12c-2,8 -2,16 0,24l-12 -12z"/>
                <path  fill="#999999" d="M47 315l-12 -12c8,2 16,2 24,0l-12 12z"/>
                <path  fill="#CCCCCC" d="M47 315l-12 12c2,-8 2,-16 0,-24l12 12z"/>
                <path  fill="#CCCCCC" d="M53 315c-1,4 -2,6 -6,6 -3,0 -5,-2 -5,-6 0,-3 2,-5 5,-5 4,0 6,2 6,5z"/>
                <path  fill="#E5E5E5" d="M53 315c-1,4 -2,6 -6,6 -1,0 -3,-1 -4,-2 1,1 2,1 4,1 3,0 5,-2 5,-5 0,-2 0,-3 -1,-4 1,1 2,3 2,4z"/>
                <path  fill="#666666" d="M44 319c-1,0 -2,-2 -2,-4 0,-3 2,-5 5,-5 2,0 3,1 4,1 -1,0 -2,-1 -3,-1 -4,0 -6,2 -6,6 0,1 1,3 2,3z"/>
            </g>
            <g  id="PIN_13" gorn="0.1.15.11">
                <path  fill="#B2B2B2" d="M80 220c0,19 -14,33 -33,33 -18,0 -33,-14 -33,-33 0,-18 15,-33 33,-33 19,0 33,15 33,33z"/>
                <path  fill="#999999" d="M75 202c-5,0 -17,4 -28,18 -11,-14 -21,-17 -27,-18 8,-11 19,-15 27,-15 9,0 21,4 28,15z"/>
                <path  fill="#999999" d="M35 232l12 -12 12 12c-8,-2 -16,-2 -24,0z"/>
                <path  fill="#CCCCCC" d="M47 220l12 -11c-2,7 -2,15 0,23l-12 -12z"/>
                <path  fill="#999999" d="M47 220l-12 -11c8,1 16,2 24,0l-12 11z"/>
                <path  fill="#CCCCCC" d="M47 220l-12 12c2,-8 2,-16 0,-23l12 11z"/>
                <path  fill="#CCCCCC" d="M53 220c-1,4 -2,6 -6,6 -3,0 -5,-2 -5,-6 0,-3 2,-5 5,-5 4,0 6,2 6,5z"/>
                <path  fill="#E5E5E5" d="M53 220c-1,4 -2,6 -6,6 -1,0 -3,-1 -4,-2 1,1 2,1 4,1 3,0 5,-2 5,-5 0,-2 0,-3 -1,-4 1,1 2,3 2,4z"/>
                <path  fill="#666666" d="M44 225c-1,-1 -2,-3 -2,-5 0,-3 2,-5 5,-5 2,0 3,1 4,2 -1,-1 -2,-2 -3,-2 -4,0 -6,2 -6,6 0,1 1,3 2,4z"/>
            </g>
            <g  id="PIN_14" gorn="0.1.15.12">
                <path  fill="#B2B2B2" d="M744 1264c0,18 -14,33 -33,33 -18,0 -33,-15 -33,-33 0,-18 15,-33 33,-33 19,0 33,15 33,33z"/>
                <path  fill="#999999" d="M739 1246c-5,0 -17,4 -28,18 -11,-15 -21,-18 -27,-19 8,-10 19,-14 27,-14 9,0 21,4 28,15z"/>
                <path  fill="#999999" d="M700 1276l11 -12 12 12c-8,-2 -15,-2 -23,0z"/>
                <path  fill="#CCCCCC" d="M711 1264l12 -12c-2,8 -2,16 0,24l-12 -12z"/>
                <path  fill="#999999" d="M711 1264l-11 -12c7,2 15,2 23,0l-12 12z"/>
                <path  fill="#CCCCCC" d="M711 1264l-11 12c1,-8 1,-16 0,-24l11 12z"/>
                <path  fill="#CCCCCC" d="M717 1264c0,3 -2,5 -6,5 -3,0 -5,-2 -5,-5 0,-3 2,-5 5,-5 4,0 6,2 6,5z"/>
                <path  fill="#E5E5E5" d="M717 1264c0,3 -2,5 -6,5 -1,0 -3,0 -4,-1 1,1 2,1 4,1 3,0 5,-2 5,-5 0,-2 0,-3 -1,-4 1,1 2,2 2,4z"/>
                <path  fill="#666666" d="M708 1268c-1,-1 -2,-2 -2,-4 0,-3 2,-5 5,-5 2,0 4,0 4,1 0,0 -2,-1 -3,-1 -4,0 -6,2 -6,5 0,2 1,3 2,4z"/>
            </g>
            <g  id="PIN_15" gorn="0.1.15.13">
                <path  fill="#B2B2B2" d="M744 1169c0,18 -14,33 -33,33 -18,0 -33,-15 -33,-33 0,-18 15,-33 33,-33 19,0 33,15 33,33z"/>
                <path  fill="#999999" d="M739 1151c-5,0 -17,4 -28,18 -11,-14 -21,-18 -27,-19 8,-10 19,-14 27,-14 9,0 21,4 28,15z"/>
                <path  fill="#999999" d="M700 1181l11 -12 12 12c-8,-2 -15,-2 -23,0z"/>
                <path  fill="#CCCCCC" d="M711 1169l12 -12c-2,8 -2,16 0,24l-12 -12z"/>
                <path  fill="#999999" d="M711 1169l-11 -12c7,2 15,2 23,0l-12 12z"/>
                <path  fill="#CCCCCC" d="M711 1169l-11 12c1,-8 1,-16 0,-24l11 12z"/>
                <path  fill="#CCCCCC" d="M717 1169c0,3 -2,5 -6,5 -3,0 -5,-1 -5,-5 0,-3 2,-5 5,-5 4,0 6,2 6,5z"/>
                <path  fill="#E5E5E5" d="M717 1169c0,3 -2,5 -6,5 -1,0 -3,0 -4,-1 1,1 2,1 4,1 3,0 5,-2 5,-5 0,-2 0,-3 -1,-4 1,1 2,2 2,4z"/>
                <path  fill="#666666" d="M708 1173c-1,-1 -2,-2 -2,-4 0,-3 2,-5 5,-5 2,0 4,0 4,1 0,0 -2,-1 -3,-1 -4,0 -6,2 -6,6 0,1 1,2 2,3z"/>
            </g>
            <g  id="PIN_16" gorn="0.1.15.14">
                <path  fill="#B2B2B2" d="M744 1074c0,19 -14,33 -33,33 -18,0 -33,-14 -33,-33 0,-18 15,-33 33,-33 19,0 33,15 33,33z"/>
                <path  fill="#999999" d="M739 1056c-5,0 -17,4 -28,18 -11,-14 -21,-18 -27,-19 8,-10 19,-14 27,-14 9,0 21,4 28,15z"/>
                <path  fill="#999999" d="M700 1086l11 -12 12 12c-8,-2 -15,-2 -23,0z"/>
                <path  fill="#CCCCCC" d="M711 1074l12 -12c-2,8 -2,16 0,24l-12 -12z"/>
                <path  fill="#999999" d="M711 1074l-11 -12c7,2 15,2 23,0l-12 12z"/>
                <path  fill="#CCCCCC" d="M711 1074l-11 12c1,-8 1,-16 0,-24l11 12z"/>
                <path  fill="#CCCCCC" d="M717 1074c0,4 -2,6 -6,6 -3,0 -5,-2 -5,-6 0,-3 2,-5 5,-5 4,0 6,2 6,5z"/>
                <path  fill="#E5E5E5" d="M717 1074c0,4 -2,6 -6,6 -1,0 -3,-1 -4,-2 1,1 2,1 4,1 3,0 5,-2 5,-5 0,-2 0,-3 -1,-4 1,1 2,3 2,4z"/>
                <path  fill="#666666" d="M708 1078c-1,0 -2,-2 -2,-4 0,-3 2,-5 5,-5 2,0 4,1 4,1 0,0 -2,-1 -3,-1 -4,0 -6,2 -6,6 0,1 1,3 2,3z"/>
            </g>
            <g  id="PIN_17" gorn="0.1.15.15">
                <path  fill="#B2B2B2" d="M744 979c0,19 -14,34 -33,34 -18,0 -33,-15 -33,-34 0,-18 15,-33 33,-33 19,0 33,15 33,33z"/>
                <path  fill="#999999" d="M739 961c-5,0 -17,4 -28,18 -11,-14 -21,-17 -27,-18 8,-11 19,-15 27,-15 9,0 21,4 28,15z"/>
                <path  fill="#999999" d="M700 991l11 -12 12 12c-8,-2 -15,-2 -23,0z"/>
                <path  fill="#CCCCCC" d="M711 979l12 -11c-2,7 -2,15 0,23l-12 -12z"/>
                <path  fill="#999999" d="M711 979l-11 -11c7,1 15,2 23,0l-12 11z"/>
                <path  fill="#CCCCCC" d="M711 979l-11 12c1,-8 1,-16 0,-23l11 11z"/>
                <path  fill="#CCCCCC" d="M717 979c0,4 -2,6 -6,6 -3,0 -5,-2 -5,-6 0,-3 2,-5 5,-5 4,0 6,2 6,5z"/>
                <path  fill="#E5E5E5" d="M717 979c0,4 -2,6 -6,6 -1,0 -3,-1 -4,-2 1,1 2,1 4,1 3,0 5,-2 5,-5 0,-1 0,-3 -1,-4 1,1 2,3 2,4z"/>
                <path  fill="#666666" d="M708 984c-1,-1 -2,-3 -2,-5 0,-3 2,-5 5,-5 2,0 4,1 4,2 0,-1 -2,-1 -3,-1 -4,0 -6,1 -6,5 0,1 1,3 2,4z"/>
            </g>
            <g  id="PIN_18" gorn="0.1.15.16">
                <path  fill="#B2B2B2" d="M744 885c0,18 -14,33 -33,33 -18,0 -33,-15 -33,-33 0,-19 15,-33 33,-33 19,0 33,14 33,33z"/>
                <path  fill="#999999" d="M739 866c-5,0 -17,4 -28,19 -11,-15 -21,-18 -27,-19 8,-11 19,-15 27,-14 9,-1 21,4 28,14z"/>
                <path  fill="#999999" d="M700 896l11 -11 12 11c-8,-1 -15,-1 -23,0z"/>
                <path  fill="#CCCCCC" d="M711 885l12 -12c-2,7 -2,15 0,23l-12 -11z"/>
                <path  fill="#999999" d="M711 885l-11 -12c7,2 15,2 23,0l-12 12z"/>
                <path  fill="#CCCCCC" d="M711 885l-11 11c1,-8 1,-15 0,-23l11 12z"/>
                <path  fill="#CCCCCC" d="M717 885c0,3 -2,5 -6,5 -3,0 -5,-2 -5,-5 0,-4 2,-6 5,-6 4,0 6,2 6,6z"/>
                <path  fill="#E5E5E5" d="M717 885c0,3 -2,5 -6,5 -1,0 -3,-1 -4,-2 1,1 2,1 4,1 3,0 5,-2 5,-5 0,-1 0,-3 -1,-4 1,1 2,3 2,5z"/>
                <path  fill="#666666" d="M708 889c-1,-1 -2,-3 -2,-4 0,-4 2,-6 5,-6 2,0 4,1 4,2 0,-1 -2,-1 -3,-1 -4,0 -6,2 -6,5 0,2 1,3 2,4z"/>
            </g>
            <g  id="PIN_19" gorn="0.1.15.17">
                <path  fill="#B2B2B2" d="M744 790c0,18 -14,33 -33,33 -18,0 -33,-15 -33,-33 0,-19 15,-33 33,-33 19,0 33,14 33,33z"/>
                <path  fill="#999999" d="M739 771c-5,0 -17,4 -28,19 -11,-15 -21,-18 -27,-19 8,-11 19,-14 27,-14 9,0 21,4 28,14z"/>
                <path  fill="#999999" d="M700 802l11 -12 12 12c-8,-2 -15,-2 -23,0z"/>
                <path  fill="#CCCCCC" d="M711 790l12 -12c-2,8 -2,16 0,24l-12 -12z"/>
                <path  fill="#999999" d="M711 790l-11 -12c7,2 15,2 23,0l-12 12z"/>
                <path  fill="#CCCCCC" d="M711 790l-11 12c1,-8 1,-16 0,-24l11 12z"/>
                <path  fill="#CCCCCC" d="M717 790c0,3 -2,5 -6,5 -3,0 -5,-2 -5,-5 0,-4 2,-6 5,-6 4,0 6,3 6,6z"/>
                <path  fill="#E5E5E5" d="M717 790c0,3 -2,5 -6,5 -1,0 -3,-1 -4,-2 1,1 2,2 4,2 3,0 5,-2 5,-6 0,-1 0,-2 -1,-3 1,1 2,2 2,4z"/>
                <path  fill="#666666" d="M708 794c-1,-1 -2,-2 -2,-4 0,-4 2,-6 5,-6 2,0 4,1 4,2 0,-1 -2,-1 -3,-1 -4,0 -6,2 -6,5 0,2 1,3 2,4z"/>
            </g>
            <g  id="PIN_20" gorn="0.1.15.18">
                <path  fill="#B2B2B2" d="M744 695c0,18 -14,33 -33,33 -18,0 -33,-15 -33,-33 0,-18 15,-33 33,-33 19,0 33,15 33,33z"/>
                <path  fill="#999999" d="M739 676c-5,1 -17,5 -28,19 -11,-15 -21,-18 -27,-19 8,-11 19,-14 27,-14 9,0 21,4 28,14z"/>
                <path  fill="#999999" d="M700 707l11 -12 12 12c-8,-2 -15,-2 -23,0z"/>
                <path  fill="#CCCCCC" d="M711 695l12 -12c-2,8 -2,16 0,24l-12 -12z"/>
                <path  fill="#999999" d="M711 695l-11 -12c7,2 15,2 23,0l-12 12z"/>
                <path  fill="#CCCCCC" d="M711 695l-11 12c1,-8 1,-16 0,-24l11 12z"/>
                <path  fill="#CCCCCC" d="M717 695c0,3 -2,5 -6,5 -3,0 -5,-2 -5,-5 0,-3 2,-5 5,-5 4,0 6,2 6,5z"/>
                <path  fill="#E5E5E5" d="M717 695c0,3 -2,5 -6,5 -1,0 -3,0 -4,-1 1,0 2,1 4,1 3,0 5,-2 5,-6 0,-1 0,-2 -1,-3 1,1 2,2 2,4z"/>
                <path  fill="#666666" d="M708 699c-1,-1 -2,-2 -2,-4 0,-3 2,-5 5,-5 2,0 4,0 4,1 0,-1 -2,-1 -3,-1 -4,0 -6,2 -6,5 0,2 1,3 2,4z"/>
            </g>
            <g  id="PIN_21" gorn="0.1.15.19">
                <path  fill="#B2B2B2" d="M744 600c0,18 -14,33 -33,33 -18,0 -33,-15 -33,-33 0,-18 15,-33 33,-33 19,0 33,15 33,33z"/>
                <path  fill="#999999" d="M739 581c-5,1 -17,5 -28,19 -11,-15 -21,-18 -27,-19 8,-10 19,-14 27,-14 9,0 21,4 28,14z"/>
                <path  fill="#999999" d="M700 612l11 -12 12 12c-8,-2 -15,-2 -23,0z"/>
                <path  fill="#CCCCCC" d="M711 600l12 -12c-2,8 -2,16 0,24l-12 -12z"/>
                <path  fill="#999999" d="M711 600l-11 -12c7,2 15,2 23,0l-12 12z"/>
                <path  fill="#CCCCCC" d="M711 600l-11 12c1,-8 1,-16 0,-24l11 12z"/>
                <path  fill="#CCCCCC" d="M717 600c0,3 -2,5 -6,5 -3,0 -5,-2 -5,-5 0,-3 2,-5 5,-5 4,0 6,2 6,5z"/>
                <path  fill="#E5E5E5" d="M717 600c0,3 -2,5 -6,5 -1,0 -3,0 -4,-1 1,0 2,1 4,1 3,0 5,-2 5,-5 0,-2 0,-3 -1,-4 1,1 2,2 2,4z"/>
                <path  fill="#666666" d="M708 604c-1,-1 -2,-2 -2,-4 0,-3 2,-5 5,-5 2,0 4,0 4,1 0,-1 -2,-1 -3,-1 -4,0 -6,2 -6,5 0,2 1,3 2,4z"/>
            </g>
            <g  id="PIN_22" gorn="0.1.15.20">
                <path  fill="#B2B2B2" d="M744 505c0,18 -14,33 -33,33 -18,0 -33,-15 -33,-33 0,-18 15,-33 33,-33 19,0 33,15 33,33z"/>
                <path  fill="#999999" d="M739 487c-5,0 -17,4 -28,18 -11,-15 -21,-18 -27,-19 8,-10 19,-14 27,-14 9,0 21,4 28,15z"/>
                <path  fill="#999999" d="M700 517l11 -12 12 12c-8,-2 -15,-2 -23,0z"/>
                <path  fill="#CCCCCC" d="M711 505l12 -12c-2,8 -2,16 0,24l-12 -12z"/>
                <path  fill="#999999" d="M711 505l-11 -12c7,2 15,2 23,0l-12 12z"/>
                <path  fill="#CCCCCC" d="M711 505l-11 12c1,-8 1,-16 0,-24l11 12z"/>
                <path  fill="#CCCCCC" d="M717 505c0,3 -2,5 -6,5 -3,0 -5,-2 -5,-5 0,-3 2,-5 5,-5 4,0 6,2 6,5z"/>
                <path  fill="#E5E5E5" d="M717 505c0,3 -2,5 -6,5 -1,0 -3,0 -4,-1 1,0 2,1 4,1 3,0 5,-2 5,-5 0,-2 0,-3 -1,-4 1,1 2,2 2,4z"/>
                <path  fill="#666666" d="M708 509c-1,-1 -2,-2 -2,-4 0,-3 2,-5 5,-5 2,0 4,0 4,1 0,0 -2,-1 -3,-1 -4,0 -6,2 -6,5 0,2 1,3 2,4z"/>
            </g>
            <g  id="PIN_23" gorn="0.1.15.21">
                <path  fill="#B2B2B2" d="M744 410c0,18 -14,33 -33,33 -18,0 -33,-15 -33,-33 0,-18 15,-33 33,-33 19,0 33,15 33,33z"/>
                <path  fill="#999999" d="M739 392c-5,0 -17,4 -28,18 -11,-14 -21,-18 -27,-19 8,-10 19,-14 27,-14 9,0 21,4 28,15z"/>
                <path  fill="#999999" d="M700 422l11 -12 12 12c-8,-2 -15,-2 -23,0z"/>
                <path  fill="#CCCCCC" d="M711 410l12 -12c-2,8 -2,16 0,24l-12 -12z"/>
                <path  fill="#999999" d="M711 410l-11 -12c7,2 15,2 23,0l-12 12z"/>
                <path  fill="#CCCCCC" d="M711 410l-11 12c1,-8 1,-16 0,-24l11 12z"/>
                <path  fill="#CCCCCC" d="M717 410c0,3 -2,5 -6,5 -3,0 -5,-2 -5,-5 0,-3 2,-5 5,-5 4,0 6,2 6,5z"/>
                <path  fill="#E5E5E5" d="M717 410c0,3 -2,5 -6,5 -1,0 -3,0 -4,-1 1,1 2,1 4,1 3,0 5,-2 5,-5 0,-2 0,-3 -1,-4 1,1 2,2 2,4z"/>
                <path  fill="#666666" d="M708 414c-1,-1 -2,-2 -2,-4 0,-3 2,-5 5,-5 2,0 4,0 4,1 0,0 -2,-1 -3,-1 -4,0 -6,2 -6,5 0,2 1,3 2,4z"/>
            </g>
            <g  id="PIN_24" gorn="0.1.15.22">
                <path  fill="#B2B2B2" d="M744 315c0,19 -14,33 -33,33 -18,0 -33,-14 -33,-33 0,-18 15,-33 33,-33 19,0 33,15 33,33z"/>
                <path  fill="#999999" d="M739 297c-5,0 -17,4 -28,18 -11,-14 -21,-18 -27,-19 8,-10 19,-14 27,-14 9,0 21,4 28,15z"/>
                <path  fill="#999999" d="M700 327l11 -12 12 12c-8,-2 -15,-2 -23,0z"/>
                <path  fill="#CCCCCC" d="M711 315l12 -12c-2,8 -2,16 0,24l-12 -12z"/>
                <path  fill="#999999" d="M711 315l-11 -12c7,2 15,2 23,0l-12 12z"/>
                <path  fill="#CCCCCC" d="M711 315l-11 12c1,-8 1,-16 0,-24l11 12z"/>
                <path  fill="#CCCCCC" d="M717 315c0,4 -2,6 -6,6 -3,0 -5,-2 -5,-6 0,-3 2,-5 5,-5 4,0 6,2 6,5z"/>
                <path  fill="#E5E5E5" d="M717 315c0,4 -2,6 -6,6 -1,0 -3,-1 -4,-2 1,1 2,1 4,1 3,0 5,-2 5,-5 0,-2 0,-3 -1,-4 1,1 2,3 2,4z"/>
                <path  fill="#666666" d="M708 319c-1,0 -2,-2 -2,-4 0,-3 2,-5 5,-5 2,0 4,1 4,1 0,0 -2,-1 -3,-1 -4,0 -6,2 -6,6 0,1 1,3 2,3z"/>
            </g>
            <g  id="PIN_25" gorn="0.1.15.23">
                <path  fill="#B2B2B2" d="M744 220c0,19 -14,33 -33,33 -18,0 -33,-14 -33,-33 0,-18 15,-33 33,-33 19,0 33,15 33,33z"/>
                <path  fill="#999999" d="M739 202c-5,0 -17,4 -28,18 -11,-14 -21,-17 -27,-18 8,-11 19,-15 27,-15 9,0 21,4 28,15z"/>
                <path  fill="#999999" d="M700 232l11 -12 12 12c-8,-2 -15,-2 -23,0z"/>
                <path  fill="#CCCCCC" d="M711 220l12 -11c-2,7 -2,15 0,23l-12 -12z"/>
                <path  fill="#999999" d="M711 220l-11 -11c7,1 15,2 23,0l-12 11z"/>
                <path  fill="#CCCCCC" d="M711 220l-11 12c1,-8 1,-16 0,-23l11 11z"/>
                <path  fill="#CCCCCC" d="M717 220c0,4 -2,6 -6,6 -3,0 -5,-2 -5,-6 0,-3 2,-5 5,-5 4,0 6,2 6,5z"/>
                <path  fill="#E5E5E5" d="M717 220c0,4 -2,6 -6,6 -1,0 -3,-1 -4,-2 1,1 2,1 4,1 3,0 5,-2 5,-5 0,-2 0,-3 -1,-4 1,1 2,3 2,4z"/>
                <path  fill="#666666" d="M708 225c-1,-1 -2,-3 -2,-5 0,-3 2,-5 5,-5 2,0 4,1 4,2 0,-1 -2,-2 -3,-2 -4,0 -6,2 -6,6 0,1 1,3 2,4z"/>
            </g>
            <g  id="castellated_top" gorn="0.1.15.24">
                <path  fill="#B2B2B2" d="M0 1241c13,0 24,10 24,23 0,13 -11,24 -24,24l0 -12c7,0 12,-5 12,-12 0,-7 -5,-12 -12,-12l0 -11z"/>
                <path  fill="#B2B2B2" d="M0 1146c13,0 24,10 24,23 0,13 -11,24 -24,24l0 -12c7,0 12,-5 12,-12 0,-6 -5,-12 -12,-12l0 -11z"/>
                <path  fill="#B2B2B2" d="M0 1051c13,0 24,10 24,23 0,13 -11,24 -24,24l0 -12c7,0 12,-5 12,-12 0,-6 -5,-12 -12,-12l0 -11z"/>
                <path  fill="#B2B2B2" d="M0 956c13,0 24,10 24,23 0,13 -11,24 -24,24l0 -12c7,0 12,-5 12,-12 0,-6 -5,-12 -12,-12l0 -11z"/>
                <path  fill="#B2B2B2" d="M0 861c13,0 24,11 24,24 0,13 -11,23 -24,23l0 -11c7,0 12,-6 12,-12 0,-7 -5,-12 -12,-12l0 -12z"/>
                <path  fill="#B2B2B2" d="M0 766c13,0 24,11 24,24 0,13 -11,23 -24,23l0 -11c7,0 12,-6 12,-12 0,-7 -5,-12 -12,-12l0 -12z"/>
                <path  fill="#B2B2B2" d="M0 671c13,0 24,11 24,24 0,13 -11,23 -24,23l0 -11c7,0 12,-6 12,-12 0,-7 -5,-12 -12,-12l0 -12z"/>
                <path  fill="#B2B2B2" d="M0 576c13,0 24,11 24,24 0,13 -11,23 -24,23l0 -11c7,0 12,-5 12,-12 0,-7 -5,-12 -12,-12l0 -12z"/>
                <path  fill="#B2B2B2" d="M0 481c13,0 24,11 24,24 0,13 -11,24 -24,24l0 -12c7,0 12,-5 12,-12 0,-7 -5,-12 -12,-12l0 -12z"/>
                <path  fill="#B2B2B2" d="M0 387c13,0 24,10 24,23 0,13 -11,24 -24,24l0 -12c7,0 12,-5 12,-12 0,-6 -5,-12 -12,-12l0 -11z"/>
                <path  fill="#B2B2B2" d="M0 292c13,0 24,10 24,23 0,13 -11,24 -24,24l0 -12c7,0 12,-5 12,-12 0,-6 -5,-12 -12,-12l0 -11z"/>
                <path  fill="#B2B2B2" d="M0 197c13,0 24,10 24,23 0,13 -11,24 -24,24l0 -12c7,0 12,-5 12,-12 0,-6 -5,-12 -12,-12l0 -11z"/>
            </g>
            <g  id="castellated_pin" gorn="0.1.15.25">
                <path  fill="#B2B2B2" d="M753 244c-9,0 -17,-11 -17,-24 0,-13 8,-23 17,-23l0 11c-5,0 -9,6 -9,12 0,7 4,12 9,12l0 12z"/>
                <polygon  fill="#CCCCCC" points="753,232 753,244 760,244 760,232 "/>
                <polygon  fill="#CCCCCC" points="753,197 753,208 760,208 760,197 "/>
                <path  fill="#666666" d="M760 208l-7 0 0 0c-5,0 -9,6 -9,12 0,7 4,12 9,12l6 0c-4,0 -8,-5 -8,-12 0,-6 4,-12 9,-12z"/>
            </g>
            <g  id="castellated_pin_26" gorn="0.1.15.26">
                <path  fill="#B2B2B2" d="M753 339c-9,0 -17,-11 -17,-24 0,-13 8,-23 17,-23l0 11c-5,0 -9,6 -9,12 0,7 4,12 9,12l0 12z"/>
                <polygon  fill="#CCCCCC" points="753,327 753,339 760,339 760,327 "/>
                <polygon  fill="#CCCCCC" points="753,292 753,303 760,303 760,292 "/>
                <path  fill="#666666" d="M760 303l-7 0 0 0c-5,0 -9,6 -9,12 0,7 4,12 9,12l6 0c-4,0 -8,-5 -8,-12 0,-6 4,-12 9,-12z"/>
            </g>
            <g  id="castellated_pin_27" gorn="0.1.15.27">
                <path  fill="#B2B2B2" d="M753 434c-9,0 -17,-11 -17,-24 0,-13 8,-23 17,-23l0 11c-5,0 -9,6 -9,12 0,7 4,12 9,12l0 12z"/>
                <polygon  fill="#CCCCCC" points="753,422 753,434 760,434 760,422 "/>
                <polygon  fill="#CCCCCC" points="753,387 753,398 760,398 760,387 "/>
                <path  fill="#666666" d="M760 398l-7 0 0 0c-5,0 -9,6 -9,12 0,7 4,12 9,12l6 0c-4,0 -8,-5 -8,-12 0,-6 4,-12 9,-12z"/>
            </g>
            <g  id="castellated_pin_28" gorn="0.1.15.28">
                <path  fill="#B2B2B2" d="M753 813c-9,0 -17,-10 -17,-23 0,-13 8,-24 17,-24l0 12c-5,0 -9,5 -9,12 0,6 4,12 9,12l0 11z"/>
                <polygon  fill="#CCCCCC" points="753,802 753,813 760,813 760,802 "/>
                <polygon  fill="#CCCCCC" points="753,766 753,778 760,778 760,766 "/>
                <path  fill="#666666" d="M760 778l-7 0 0 0c-5,0 -9,5 -9,12 0,6 4,12 9,12l6 0c-4,-1 -8,-6 -8,-12 0,-7 4,-12 9,-12z"/>
            </g>
            <g  id="castellated_pin_29" gorn="0.1.15.29">
                <path  fill="#B2B2B2" d="M753 718c-9,0 -17,-10 -17,-23 0,-13 8,-24 17,-24l0 12c-5,0 -9,5 -9,12 0,6 4,12 9,12l0 11z"/>
                <polygon  fill="#CCCCCC" points="753,707 753,718 760,718 760,707 "/>
                <polygon  fill="#CCCCCC" points="753,671 753,683 760,683 760,671 "/>
                <path  fill="#666666" d="M760 683l-7 0 0 0c-5,0 -9,5 -9,12 0,6 4,12 9,12l6 0c-4,0 -8,-6 -8,-12 0,-7 4,-12 9,-12z"/>
            </g>
            <g  id="castellated_pin_30" gorn="0.1.15.30">
                <path  fill="#B2B2B2" d="M753 623c-9,0 -17,-10 -17,-23 0,-13 8,-24 17,-24l0 12c-5,0 -9,5 -9,12 0,7 4,12 9,12l0 11z"/>
                <polygon  fill="#CCCCCC" points="753,612 753,623 760,623 760,612 "/>
                <polygon  fill="#CCCCCC" points="753,576 753,588 760,588 760,576 "/>
                <path  fill="#666666" d="M760 588l-7 0 0 0c-5,0 -9,5 -9,12 0,7 4,12 9,12l6 0c-4,0 -8,-6 -8,-12 0,-7 4,-12 9,-12z"/>
            </g>
            <g  id="castellated_pin_31" gorn="0.1.15.31">
                <path  fill="#B2B2B2" d="M753 529c-9,0 -17,-11 -17,-24 0,-13 8,-24 17,-24l0 12c-5,0 -9,5 -9,12 0,7 4,12 9,12l0 12z"/>
                <polygon  fill="#CCCCCC" points="753,517 753,529 760,529 760,517 "/>
                <polygon  fill="#CCCCCC" points="753,481 753,493 760,493 760,481 "/>
                <path  fill="#666666" d="M760 493l-7 0 0 0c-5,0 -9,5 -9,12 0,7 4,12 9,12l6 0c-4,0 -8,-5 -8,-12 0,-7 4,-12 9,-12z"/>
            </g>
            <g  id="castellated_pin_32" gorn="0.1.15.32">
                <path  fill="#B2B2B2" d="M753 1288c-9,0 -17,-11 -17,-24 0,-13 8,-23 17,-23l0 11c-5,0 -9,5 -9,12 0,7 4,12 9,12l0 12z"/>
                <polygon  fill="#CCCCCC" points="753,1276 753,1288 760,1288 760,1276 "/>
                <polygon  fill="#CCCCCC" points="753,1241 753,1252 760,1252 760,1241 "/>
                <path  fill="#666666" d="M760 1252l-7 0 0 0c-5,0 -9,5 -9,12 0,7 4,12 9,12l6 0c-4,0 -8,-5 -8,-12 0,-7 4,-12 9,-12z"/>
            </g>
            <g  id="castellated_pin_33" gorn="0.1.15.33">
                <path  fill="#B2B2B2" d="M753 1193c-9,0 -17,-11 -17,-24 0,-13 8,-23 17,-23l0 11c-5,0 -9,6 -9,12 0,7 4,12 9,12l0 12z"/>
                <polygon  fill="#CCCCCC" points="753,1181 753,1193 760,1193 760,1181 "/>
                <polygon  fill="#CCCCCC" points="753,1146 753,1157 760,1157 760,1146 "/>
                <path  fill="#666666" d="M760 1157l-7 0 0 0c-5,0 -9,6 -9,12 0,7 4,12 9,12l6 0c-4,0 -8,-5 -8,-12 0,-6 4,-12 9,-12z"/>
            </g>
            <g  id="castellated_pin_34" gorn="0.1.15.34">
                <path  fill="#B2B2B2" d="M753 1098c-9,0 -17,-11 -17,-24 0,-13 8,-23 17,-23l0 11c-5,0 -9,6 -9,12 0,7 4,12 9,12l0 12z"/>
                <polygon  fill="#CCCCCC" points="753,1086 753,1098 760,1098 760,1086 "/>
                <polygon  fill="#CCCCCC" points="753,1051 753,1062 760,1062 760,1051 "/>
                <path  fill="#666666" d="M760 1062l-7 0 0 0c-5,0 -9,6 -9,12 0,7 4,12 9,12l6 0c-4,0 -8,-5 -8,-12 0,-6 4,-12 9,-12z"/>
            </g>
            <g  id="castellated_pin_35" gorn="0.1.15.35">
                <path  fill="#B2B2B2" d="M753 1003c-9,0 -17,-11 -17,-24 0,-13 8,-23 17,-23l0 11c-5,0 -9,6 -9,12 0,7 4,12 9,12l0 12z"/>
                <polygon  fill="#CCCCCC" points="753,991 753,1003 760,1003 760,991 "/>
                <polygon  fill="#CCCCCC" points="753,956 753,967 760,967 760,956 "/>
                <path  fill="#666666" d="M760 967l-7 0 0 0c-5,0 -9,6 -9,12 0,7 4,12 9,12l6 0c-4,0 -8,-5 -8,-12 0,-6 4,-12 9,-12z"/>
            </g>
            <g  id="castellated_pin_36" gorn="0.1.15.36">
                <path  fill="#B2B2B2" d="M753 908c-9,0 -17,-10 -17,-23 0,-13 8,-24 17,-24l0 12c-5,0 -9,5 -9,12 0,6 4,12 9,12l0 11z"/>
                <polygon  fill="#CCCCCC" points="753,897 753,908 760,908 760,897 "/>
                <polygon  fill="#CCCCCC" points="753,861 753,873 760,873 760,861 "/>
                <path  fill="#666666" d="M760 873l-7 0 0 0c-5,0 -9,5 -9,12 0,6 4,12 9,12l6 0c-4,-1 -8,-6 -8,-12 0,-7 4,-12 9,-12z"/>
            </g>
        </g>
    </g>
</svg>
