<?xml version="1.0" encoding="utf-8"?>
<!-- Generator: Adobe Illustrator 20.0.0, SVG Export Plug-In . SVG Version: 6.00 Build 0)  -->
<svg version="1.2" baseProfile="tiny" id="Layer_1" xmlns="http://www.w3.org/2000/svg" xmlns:xlink="http://www.w3.org/1999/xlink"
	 x="0px" y="0px" width="181.35px" height="140.815px" viewBox="0 0 181.35 140.815" xml:space="preserve">
<path fill="#FFFFFF" d="M127.559,140.315L127.559,140.315c-1.566,0-2.835-1.269-2.835-2.835v-42.52c0-1.566,1.269-2.835,2.835-2.835
	h0c1.566,0,2.835,1.269,2.835,2.835v42.52C130.394,139.046,129.125,140.315,127.559,140.315z"/>
<path fill="#FFFFFF" d="M0,96.378c0-1.566,1.269-2.835,2.835-2.835h8.504c1.566,0,2.835-1.269,2.835-2.835v-42.52
	c0-1.566-1.269-2.835-2.835-2.835H2.835C1.269,45.354,0,44.085,0,42.52V96.378z"/>
</svg>
