<?xml version="1.0" encoding="utf-8"?>
<!-- Generator: Adobe Illustrator 16.0.0, SVG Export Plug-In . SVG Version: 6.00 Build 0)  -->
<!DOCTYPE svg PUBLIC "-//W3C//DTD SVG 1.1//EN" "http://www.w3.org/Graphics/SVG/1.1/DTD/svg11.dtd">
<svg version="1.1" id="_x30_" xmlns:xml="http://www.w3.org/XML/1998/namespace"
	 xmlns="http://www.w3.org/2000/svg" xmlns:xlink="http://www.w3.org/1999/xlink" x="0px" y="0px" width="32px" height="32px"
	 viewBox="0 0 32 32" enable-background="new 0 0 32 32" xml:space="preserve">
<g>
	<path fill="#68A243" d="M21.442,2.382c0,0,0.222,1.911,0.347,3.861l-5.4-1.299L21.442,2.382z"/>
	<polygon fill="#68A243" points="24.299,7.458 23.268,10.612 11.697,5.78 12.444,4.605 	"/>
	<path fill="#F6E0B9" d="M15.364,21.285c-3.79,0-6.89-3.101-6.89-6.89c0-2.173,1.023-4.115,2.608-5.379
		c0.565,1.302,1.313,2.147,1.834,1.983c0.33-0.104,0.502-0.592,0.513-1.288c0.002-0.004,0.002-0.007,0,0
		c0.862,1.416,1.91,2.298,2.444,2.008c0.309-0.167,0.382-0.697,0.25-1.401c0.003-0.002,0.003-0.002,0,0
		c0.536,0.525,1.038,0.771,1.356,0.598c0.258-0.141,0.353-0.534,0.299-1.072l3.798,1.587c0.432,0.899,0.678,1.903,0.678,2.963
		C22.255,18.185,19.153,21.285,15.364,21.285"/>
	<path fill="#221F1F" d="M14.065,16.496c-0.027,0-0.054-0.003-0.081-0.008l-0.979-0.2c-0.011-0.002-0.022-0.005-0.034-0.008
		c-0.596-0.144-0.98-0.719-0.862-1.298c0.119-0.58,0.701-0.959,1.306-0.854c0.01,0.001,0.02,0.002,0.03,0.004l0.979,0.201
		c0.218,0.044,0.358,0.256,0.313,0.474c-0.044,0.218-0.256,0.357-0.474,0.313l-0.958-0.195c-0.006-0.001-0.012-0.002-0.018-0.003
		c-0.184-0.036-0.36,0.064-0.392,0.222c-0.032,0.159,0.09,0.319,0.272,0.358c0.008,0.001,0.016,0.004,0.022,0.005l0.955,0.195
		c0.217,0.044,0.357,0.257,0.313,0.474C14.42,16.365,14.252,16.496,14.065,16.496"/>
	<path fill="#221F1F" d="M14.547,19.18c-0.13,0-0.26-0.004-0.392-0.013c-1.82-0.123-3.412-1.08-4.259-2.56
		c-0.119-0.208-0.032-0.479,0.197-0.572c0.189-0.078,0.405,0.009,0.508,0.187c0.706,1.221,2.086,2.041,3.608,2.143
		c1.528,0.104,3.011-0.53,3.873-1.653c0.135-0.176,0.387-0.208,0.563-0.073s0.208,0.387,0.073,0.563
		C17.758,18.456,16.218,19.18,14.547,19.18"/>
	<path fill="#221F1F" d="M24.206,5.987l-1.092-0.262l-0.021-0.266c2.602-0.393,5.307-2.852,5.307-2.852
		c-0.722,0.309-1.099,0.514-3.147,0.741c-1.095,0.122-1.803,0.732-2.227,1.274l-0.162-1.961c-0.001-0.016-0.003-0.032-0.005-0.048
		c-0.101-0.87-0.795-1.501-1.651-1.501c-0.27,0-0.542,0.066-0.787,0.192l-5.048,2.559l-2.23-0.537
		c-0.144-0.035-0.292-0.052-0.442-0.052c-0.681,0-1.327,0.349-1.685,0.911l-0.312,0.491c-0.28,0.44-0.353,0.973-0.199,1.463
		c0.053,0.168,0.132,0.325,0.231,0.467c-2.651,1.576-4.431,4.464-4.431,7.791c0,5.52,4.896,9.835,10.542,8.942
		c3.82-0.604,6.841-3.618,7.457-7.438c0.245-1.524,0.107-2.982-0.319-4.307c0.331-0.216,0.588-0.542,0.718-0.938l0.78-2.384
		c0.153-0.473,0.104-0.991-0.136-1.421C25.105,6.418,24.69,6.104,24.206,5.987 M21.442,2.382c0,0,0.222,1.911,0.347,3.861
		l-5.4-1.299L21.442,2.382z M15.364,21.285c-3.79,0-6.89-3.101-6.89-6.89c0-2.173,1.023-4.115,2.608-5.379
		c0.564,1.302,1.313,2.147,1.834,1.983c0.33-0.104,0.502-0.592,0.513-1.288c0.002-0.003,0.002-0.007,0,0
		c0.862,1.416,1.91,2.298,2.444,2.008c0.309-0.167,0.382-0.697,0.25-1.401c0.003-0.002,0.003-0.002,0,0
		c0.536,0.525,1.038,0.771,1.356,0.598c0.258-0.141,0.353-0.534,0.299-1.072l3.798,1.587c0.432,0.899,0.678,1.903,0.678,2.963
		C22.255,18.185,19.153,21.285,15.364,21.285 M24.299,7.458l-1.031,3.154L11.697,5.78l0.747-1.174L24.299,7.458z"/>
	<path fill="#221F1F" d="M11.646,12.89c0.015,0.457-0.351,0.832-0.803,0.832c-0.443,0-0.803-0.36-0.803-0.804
		c0-0.455,0.378-0.822,0.837-0.803C11.291,12.132,11.632,12.476,11.646,12.89"/>
	<path fill="#221F1F" d="M18.877,12.89c0.018,0.457-0.35,0.832-0.802,0.832c-0.444,0-0.804-0.36-0.804-0.804
		c0-0.455,0.378-0.822,0.838-0.803C18.522,12.132,18.863,12.476,18.877,12.89"/>
</g>
<path fill="#221F1F" d="M2.91,28.974c-0.024-0.016-0.055-0.031-0.071-0.031c-0.047,0-0.095,0.047-0.095,0.103v1.812
	c0,0.135-0.111,0.245-0.245,0.245c-0.142,0-0.253-0.11-0.253-0.245v-3.394c0-1.163,0.933-2.088,2.088-2.088
	c1.146,0,2.072,0.925,2.072,2.088c0,1.146-0.926,2.072-2.072,2.072C3.78,29.535,3.282,29.322,2.91,28.974 M2.752,27.463
	c0,0.861,0.704,1.582,1.582,1.582c0.87,0,1.582-0.721,1.582-1.582c0-0.878-0.711-1.583-1.582-1.583
	C3.456,25.88,2.752,26.585,2.752,27.463"/>
<path fill="#221F1F" d="M6.889,24.062c0-0.135,0.103-0.245,0.253-0.245c0.126,0,0.237,0.11,0.237,0.245
	c0,0.142-0.111,0.245-0.237,0.245C6.992,24.307,6.889,24.203,6.889,24.062 M7.379,29.29c0,0.135-0.111,0.245-0.237,0.245
	c-0.15,0-0.253-0.11-0.253-0.245v-3.671c0-0.126,0.103-0.245,0.253-0.245c0.126,0,0.237,0.119,0.237,0.245V29.29z"/>
<path fill="#221F1F" d="M7.878,27.424c0-1.148,0.949-2.05,2.08-2.05c1.155,0,2.073,0.918,2.081,2.073v1.843
	c0,0.135-0.103,0.245-0.245,0.245c-0.134,0-0.245-0.11-0.245-0.245v-1.835c0-0.879-0.712-1.582-1.59-1.582
	c-0.87,0-1.574,0.712-1.582,1.582v1.835c0,0.135-0.111,0.245-0.246,0.245c-0.142,0-0.252-0.11-0.252-0.245V27.424z"/>
<path fill="#221F1F" d="M16.714,27.455c0,1.154-0.926,2.08-2.081,2.08c-1.147,0-2.081-0.926-2.081-2.08
	c0-1.155,0.934-2.081,2.081-2.081C15.788,25.374,16.714,26.3,16.714,27.455 M16.215,27.455c0-0.87-0.712-1.582-1.582-1.582
	s-1.582,0.712-1.582,1.582c0,0.869,0.712,1.582,1.582,1.582S16.215,28.324,16.215,27.455"/>
<path fill="#221F1F" d="M20.787,28.783c0,0.071-0.055,0.15-0.087,0.183c-0.371,0.356-0.877,0.569-1.431,0.569
	c-1.147,0-2.073-0.926-2.073-2.072c0-1.163,0.926-2.089,2.073-2.089c0.546,0,1.06,0.229,1.431,0.569
	c0.056,0.048,0.096,0.119,0.096,0.19c0,0.143-0.111,0.253-0.253,0.253c-0.079,0-0.143-0.039-0.19-0.095
	c-0.285-0.253-0.672-0.412-1.083-0.412c-0.862,0-1.582,0.705-1.582,1.583c0,0.861,0.72,1.582,1.582,1.582
	c0.419,0,0.798-0.175,1.083-0.427c0.048-0.056,0.104-0.088,0.183-0.088C20.661,28.53,20.787,28.649,20.787,28.783"/>
<path fill="#221F1F" d="M24.728,28.783c0,0.071-0.056,0.15-0.087,0.183c-0.372,0.356-0.879,0.569-1.433,0.569
	c-1.146,0-2.072-0.926-2.072-2.072c0-1.163,0.926-2.089,2.072-2.089c0.546,0,1.061,0.229,1.433,0.569
	c0.055,0.048,0.095,0.119,0.095,0.19c0,0.143-0.11,0.253-0.253,0.253c-0.079,0-0.143-0.039-0.19-0.095
	c-0.284-0.253-0.672-0.412-1.084-0.412c-0.862,0-1.582,0.705-1.582,1.583c0,0.861,0.72,1.582,1.582,1.582
	c0.419,0,0.8-0.175,1.084-0.427c0.048-0.056,0.103-0.088,0.182-0.088C24.602,28.53,24.728,28.649,24.728,28.783"/>
<path fill="#221F1F" d="M25.352,24.062c0-0.135,0.104-0.245,0.254-0.245c0.127,0,0.237,0.11,0.237,0.245
	c0,0.142-0.11,0.245-0.237,0.245C25.455,24.307,25.352,24.203,25.352,24.062 M25.843,29.29c0,0.135-0.11,0.245-0.237,0.245
	c-0.15,0-0.254-0.11-0.254-0.245v-3.671c0-0.126,0.104-0.245,0.254-0.245c0.127,0,0.237,0.119,0.237,0.245V29.29z"/>
<path fill="#221F1F" d="M30.534,27.455c0,1.154-0.926,2.08-2.081,2.08c-1.146,0-2.081-0.926-2.081-2.08
	c0-1.155,0.935-2.081,2.081-2.081C29.608,25.374,30.534,26.3,30.534,27.455 M30.035,27.455c0-0.87-0.712-1.582-1.582-1.582
	s-1.582,0.712-1.582,1.582c0,0.869,0.712,1.582,1.582,1.582S30.035,28.324,30.035,27.455"/>
</svg>
