<svg xmlns="http://www.w3.org/2000/svg" xmlns:xlink="http://www.w3.org/1999/xlink" width="54" height="72" viewBox="0 0 43.2 57.6"><style><![CDATA[.B{fill:#d1d3d4}.C{fill:#fff}.D{fill:#603913}.E{stroke-width:.142}]]></style><path fill="#008d4e" d="M.558.558h42.084v56.484H.558z"/><path d="M9.725 16.343h16.457v16.102H9.725z"/><path d="M-45.626 49.28h1.746v2.52h-1.746zm2.853 0h1.748v2.52h-1.748zm2.68 0h1.75v2.52h-1.75zm2.652 0h1.746v2.52h-1.746zm-8.184 17.163h1.746v2.522h-1.746zm2.853 0h1.748v2.522h-1.748zm2.68 0h1.75v2.522h-1.75zm2.652 0h1.746v2.522h-1.746zm2.9-17.165h1.746v2.52h-1.746zm2.852 0h1.748v2.52h-1.748zm2.68 0h1.75v2.52H-29zm-5.532 17.165h1.746v2.522h-1.746zm2.852 0h1.748v2.522h-1.748zm2.68 0h1.75v2.522H-29z" transform="matrix(.787477 0 0 1.070847 46.648388 -38.916276)" class="B"/><path d="M-45.626 49.28h1.746v2.52h-1.746zm2.853 0h1.748v2.52h-1.748zm2.68 0h1.75v2.52h-1.75zm2.652 0h1.746v2.52h-1.746zm-8.184 17.163h1.746v2.522h-1.746zm2.853 0h1.748v2.522h-1.748zm2.68 0h1.75v2.522h-1.75zm2.652 0h1.746v2.522h-1.746zm2.9-17.165h1.746v2.52h-1.746zm2.852 0h1.748v2.52h-1.748zm2.68 0h1.75v2.52H-29zm-5.532 17.165h1.746v2.522h-1.746zm2.852 0h1.748v2.522h-1.748zm2.68 0h1.75v2.522H-29z" transform="matrix(0 .787477 1.070847 0 -45.35648 53.088593)" class="B"/><path d="M6.045 47.95h2.973v5.352H6.045z" class="B"/><path d="M6.045 49.244h2.973v2.763H6.045z"/><path d="M33.645 45.473h2.973v5.352h-2.973z" class="B"/><path d="M33.645 46.767h2.973v2.763h-2.973z"/><path d="M6.324 40.42h2.973v5.352H6.324z" class="B"/><path d="M6.324 41.713h2.973v2.763H6.324z"/><path d="M16.065 2v2.973h-5.352V2z" class="B"/><path d="M14.77 2v2.973h-2.763V2z"/><path d="M17.48 2.763h2.973v5.352H17.48z" class="B"/><path d="M17.48 4.057h2.973V6.82H17.48z" class="D"/><path d="M7.997 5.83h2.973v5.352H7.997z" class="B"/><path d="M7.997 7.125h2.973v2.763H7.997z" class="D"/><path d="M17.37 9.694v2.973h-5.352V9.694z" class="B"/><path d="M16.076 9.694v2.973h-2.763V9.694z" class="D"/><path d="M36.354 2.28v4.647H26.54V2.28z" class="B"/><path d="M33.98 2.28v4.647h-5.067V2.28z" class="D"/><path d="M26.628 7.962H29.6v5.352h-2.973z" class="B"/><path d="M26.628 9.256H29.6v2.763h-2.973z" class="D"/><path d="M33.028 8.34h3.903v7.026h-3.903z" class="B"/><path d="M33.028 10.04h3.903v3.627h-3.903z" fill="#094f13"/><path d="M33.226 34.682h4.182v8.14h-4.182z" class="B"/><path d="M33.226 36.65h4.182v4.203h-4.182z" fill="#094f13"/><path d="M27.7 37.014h2.973v5.352H27.7z" class="B"/><path d="M27.7 38.308h2.973v2.763H27.7z" class="D"/><path d="M13.198 43.205v-2.973h5.352v2.973z" class="B"/><path d="M14.492 43.205v-2.973h2.763v2.973z" class="D"/><path d="M13.308 51.8h2.835v2.835h-2.835zm0-5.045h2.835v2.835h-2.835zm4.752-8.437a1.42 1.42 0 0 1-.71 1.228c-.44.254-.98.253-1.417 0a1.42 1.42 0 0 1-.71-1.228c0-.508.27-.974.7-1.228s.98-.253 1.417 0a1.42 1.42 0 0 1 .71 1.228z" class="B"/><g stroke="#000" class="E"><path d="M19.224 44.867h11.76v10.366h-11.76z" class="B"/><path d="M29.45 50.05c0 2.4-1.946 4.346-4.346 4.346s-4.346-1.946-4.346-4.346 1.946-4.346 4.346-4.346 4.346 1.946 4.346 4.346z"/><path d="M27.777 50.05c0 1.476-1.197 2.673-2.673 2.673s-2.673-1.197-2.673-2.673 1.197-2.673 2.673-2.673 2.673 1.197 2.673 2.673z" class="B"/><path d="M26.096 50.05a.99.99 0 1 1-1.984 0 .99.99 0 1 1 1.984 0z"/><path d="M25.104 45.7c-2.4 0-4.35 1.95-4.35 4.35s1.95 4.35 4.35 4.35 4.35-1.95 4.35-4.35-1.95-4.35-4.35-4.35zm0 1.05c.393 0 .7.366.7.8v1.275c.222.127.397.307.525.525h1.275c.434 0 .8.307.8.7s-.366.7-.8.7H26.33c-.128.218-.303.398-.525.525v1.275c0 .434-.307.8-.7.8s-.7-.366-.7-.8v-1.275c-.215-.128-.377-.307-.5-.525h-1.3c-.434 0-.8-.307-.8-.7s.366-.7.8-.7h1.3c.123-.218.285-.397.5-.525V47.55c0-.434.307-.8.7-.8z" class="B"/></g><path d="M5.224 3.45c0 1.13-.916 2.045-2.045 2.045S1.134 4.578 1.134 3.45 2.05 1.404 3.18 1.404s2.045.916 2.045 2.045z" class="B"/><path d="M4.313 3.45c0 .626-.508 1.134-1.134 1.134S2.045 4.075 2.045 3.45s.508-1.134 1.134-1.134 1.134.508 1.134 1.134z" class="C"/><use xlink:href="#B" class="B"/><use xlink:href="#C" class="C"/><use xlink:href="#B" y="14.486" class="B"/><use xlink:href="#C" y="14.486" class="C"/><use xlink:href="#B" y="-14.486" class="B"/><use xlink:href="#C" y="-14.486" class="C"/><use xlink:href="#B" y="-28.972" class="B"/><use xlink:href="#C" y="-28.972" class="C"/><path d="M5.224 17.935c0 1.13-.916 2.045-2.045 2.045s-2.045-.916-2.045-2.045S2.05 15.9 3.18 15.9s2.045.916 2.045 2.045z" class="B"/><path d="M4.313 17.935c0 .626-.508 1.134-1.134 1.134s-1.134-.508-1.134-1.134S2.553 16.8 3.18 16.8s1.134.508 1.134 1.134z" class="C"/><use xlink:href="#B" y="-7.244" class="B"/><use xlink:href="#C" y="-7.244" class="C"/><use xlink:href="#B" y="7.243" class="B"/><use xlink:href="#C" y="7.243" class="C"/><path d="M38.155 8.647h4.1v4.1h-4.1z" class="B"/><use xlink:href="#C" x="37.021" y="-28.972" class="C"/><use xlink:href="#B" x="37.022" y="-36.214" class="B"/><use xlink:href="#C" x="37.022" y="-36.214" class="C"/><use xlink:href="#B" x="37.022" class="B"/><use xlink:href="#C" x="37.022" class="C"/><use xlink:href="#B" x="37.022" y="-14.486" class="B"/><use xlink:href="#C" x="37.022" y="-14.486" class="C"/><use xlink:href="#B" x="37.022" y="-21.729" class="B"/><use xlink:href="#C" x="37.022" y="-21.729" class="C"/><use xlink:href="#B" x="37.022" y="-7.244" class="B"/><use xlink:href="#C" x="37.022" y="-7.244" class="C"/><use xlink:href="#B" x="37.022" y="7.243" class="B"/><use xlink:href="#C" x="37.022" y="7.243" class="C"/><path d="M38.155 52.105h4.1v4.1h-4.1z" class="B"/><use xlink:href="#C" x="37.021" y="14.486" class="C"/><defs ><path id="B" d="M5.224 39.664c0 1.13-.916 2.045-2.045 2.045s-2.045-.916-2.045-2.045.916-2.045 2.045-2.045 2.045.916 2.045 2.045z"/><path id="C" d="M4.313 39.664c0 .626-.508 1.134-1.134 1.134s-1.134-.508-1.134-1.134.508-1.134 1.134-1.134 1.134.508 1.134 1.134z"/></defs></svg>