<?xml version="1.0" encoding="UTF-8" standalone="no"?>
<!-- Generator: Adobe Illustrator 14.0.0, SVG Export Plug-In . SVG Version: 6.00 Build 43363)  -->

<svg
   width="3.2816741in"
   xml:space="preserve"
   x="0px"
   version="1.1"
   y="0px"
   height="0.55360126in"
   viewBox="0 0 3281.6741 553.60127"
   id="svg"
   xmlns="http://www.w3.org/2000/svg"
   xmlns:svg="http://www.w3.org/2000/svg"><defs
   id="defs106">
  
  
  
  
  
  
  
  
  
  
  
  
  
  
  
  
  
  
 
   
   
   
   
   
   
   
   
  
   
   
  
   
   
  
   
  
   
   
  
   
   
   
  
    
    
   
    
    
   
    
    
   
    
   
    
    
   
     
     
    </defs>
 
 
 
 
 
 
 
<g
   id="breadboard"><polyline
     fill="#727272"
     points="13.588,20.53 13.588,15.149 246.614,15.149 246.614,20.53 "
     id="polyline8"
     transform="matrix(13.580387,0,0,13.888861,-67.572192,0)"
     style="stroke-width:1.01131" /><line
     y1="247.7634"
     x1="117.20808"
     y2="236.88841"
     x2="117.20808"
     id="line10"
     style="stroke-width:13.8889" /><rect
     style="fill:#808080;stroke:none;stroke-width:0"
     id="rect761"
     width="116.97199"
     height="63.330154"
     x="0.23625542"
     y="202" /><path
     d="m 20.055514,226.0551 c -2.388884,9.5972 14.111081,18.3333 37.194371,18.3333 23.0694,0 39.72214,-8.7361 37.47214,-18.3333 -1.99999,-8.51387 -18.5694,-14.80553 -37.22214,-14.80553 -18.62496,0 -35.305486,6.29166 -37.444371,14.80553 z"
     id="path38"
     style="stroke-width:13.8889" /><polygon
     fill="#3f3f3f"
     points="13.588,19.065 5.167,19.065 5.167,37.843 241.448,37.843 241.448,19.065 233.026,19.065 233.026,20.481 13.588,20.481 "
     id="polygon44"
     transform="matrix(13.888861,0,0,13.888861,-71.763745,0)" /><rect
     style="fill:#808080;stroke:none;stroke-width:0"
     id="rect421"
     width="116.97199"
     height="63.330154"
     x="3164.3613"
     y="201.54309" /><path
     d="m 3261.5907,226.0551 c 2.3889,9.5972 -14.1111,18.3333 -37.1944,18.3333 -23.0555,0 -39.736,-8.7361 -37.4582,-18.3333 1.9861,-8.51387 18.5555,-14.80553 37.2221,-14.80553 18.6111,0 35.2916,6.29166 37.4305,14.80553 z"
     id="path68"
     style="stroke-width:13.8889" /><rect
     width="3047.2161"
     x="117.20808"
     y="239.8884"
     height="15.763857"
     id="rect72"
     style="stroke-width:13.8889" /><rect
     width="246.2495"
     x="1937.3571"
     y="216.52734"
     fill="#212121"
     height="56.805443"
     id="rect74"
     style="stroke-width:13.8889" /><rect
     width="246.2495"
     x="1937.3571"
     y="210.55513"
     fill="#333333"
     height="54.416557"
     id="rect76"
     style="stroke-width:13.8889" /><path
     fill="#333333"
     d="m 2107.8986,159.61079 1.0555,-77.569289 -11.875,-16.444411 12.4028,-29.374941 L 2098.5097,0 h -21.8889 l -8.9027,148.70803 h -14.2639 L 2044.4542,0 h -21.8888 l -11,36.222149 12.4306,29.374941 -11.875,16.499966 0.9722,77.513734 c 1.6806,34.12493 2.1667,86.22205 -9.5972,86.22205 0,0 17.5277,7.54165 57.0415,7.54165 39.5139,0 56.9166,-7.54165 56.9166,-7.54165 -11.7222,0 -11.2639,-52.09712 -9.5555,-86.22205 z"
     id="path78"
     style="stroke-width:13.8889" /><path
     fill="#212121"
     d="m 2013.0932,87.41649 c -0.2222,35.86104 2.1667,158.41635 -9.5972,158.41635 14.375,0 16.4861,-131.15252 9.5972,-158.41635 z"
     id="path80"
     style="stroke-width:13.8889" /><path
     fill="#212121"
     d="m 2107.8986,87.41649 c 0.25,34.88882 -2.1667,158.41635 9.5555,158.41635 -14.3611,0 -16.5,-131.15252 -9.5555,-158.41635 z"
     id="path82"
     style="stroke-width:13.8889" /><rect
     width="47.249905"
     x="2897.0403"
     y="508.97119"
     fill="#8c8c8c"
     height="44.624912"
     id="rect90"
     style="stroke-width:13.8889" /><rect
     width="47.22213"
     x="2700.176"
     y="508.97635"
     fill="#8c8c8c"
     height="44.624912"
     id="rect92"
     style="stroke-width:13.8889" /><rect
     width="66.485977"
     x="2690.551"
     y="508.97635"
     fill="#8c8c8c"
     height="16.624968"
     id="rect94"
     style="stroke-width:13.8889" /><rect
     width="66.485977"
     x="327.55905"
     y="508.97635"
     fill="#8c8c8c"
     height="16.624968"
     id="rect96"
     style="stroke-width:13.8889" /><rect
     width="66.485977"
     x="2887.4014"
     y="508.97119"
     fill="#8c8c8c"
     height="16.624968"
     id="rect98"
     style="stroke-width:13.8889" /><rect
     width="47.236015"
     x="337.18402"
     y="508.97635"
     fill="#8c8c8c"
     height="44.624912"
     id="rect100"
     style="stroke-width:13.8889" /><rect
     width="66.485977"
     x="524.40942"
     y="508.97635"
     fill="#8c8c8c"
     height="16.624968"
     id="rect1489"
     style="stroke-width:13.8889" /><rect
     width="47.236015"
     x="534.03442"
     y="508.97635"
     fill="#8c8c8c"
     height="44.624912"
     id="rect1491"
     style="stroke-width:13.8889" /><rect
     width="47.236015"
     x="534.03442"
     y="508.97635"
     fill="none"
     height="44.624912"
     id="connector0pin"
     style="stroke-width:0" /><rect
     width="47.236015"
     x="337.18402"
     y="508.97635"
     fill="none"
     height="44.624912"
     id="connector1pin"
     style="stroke-width:0" /><rect
     width="47.22213"
     x="2700.176"
     y="508.97635"
     fill="none"
     height="44.624912"
     id="connector2pin"
     style="stroke-width:0" /><rect
     width="47.249905"
     x="2897.0403"
     y="508.97119"
     fill="none"
     height="44.624912"
     id="connector3pin"
     style="stroke-width:0" /></g></svg>
