<?xml version="1.0" encoding="UTF-8" standalone="no"?>
<svg
   version="1.1"
   id="svg2"
   x="0px"
   y="0px"
   width="0.24719791in"
   height="0.32999721in"
   viewBox="0 0 247.1979 329.9972"
   xml:space="preserve"
   xmlns="http://www.w3.org/2000/svg"
   xmlns:svg="http://www.w3.org/2000/svg"><defs
   id="defs40">






	
	
	
	
	
	
	
	
	
	
	

		
		
		
	
		
		
	
		
		
	
		
		
		
	
			
			
		
			
			
		
			
			
		</defs>
	

<g
   id="breadboard"><rect
     id="rect97"
     x="8.5999279"
     y="289.99756"
     fill="none"
     width="29.999746"
     height="39.99966"
     style="stroke-width:9.99992" /><rect
     id="rect99"
     x="108.59908"
     y="0"
     fill="none"
     width="29.999746"
     height="39.99966"
     style="stroke-width:9.99992" /><rect
     id="rect101"
     x="208.59825"
     y="289.99756"
     fill="none"
     width="29.999746"
     height="39.99966"
     style="stroke-width:9.99992" /><rect
     id="rect10"
     x="8.5999279"
     y="276.21765"
     fill="#8c8c8c"
     width="67.929428"
     height="19.99983"
     style="stroke-width:9.99992" /><rect
     id="rect14"
     x="8.5999279"
     y="278.90765"
     fill="#8c8c8c"
     width="29.999746"
     height="51.089569"
     style="stroke-width:9.99992" /><rect
     id="rect8"
     x="170.28856"
     y="275.92767"
     fill="#8c8c8c"
     width="68.309425"
     height="19.99983"
     style="stroke-width:9.99992" /><rect
     id="rect16"
     x="208.59825"
     y="278.60764"
     fill="#8c8c8c"
     width="29.999746"
     height="51.389565"
     style="stroke-width:9.99992" /><rect
     id="rect12"
     x="92.59922"
     y="34.789707"
     fill="#8c8c8c"
     width="61.999474"
     height="19.99983"
     style="stroke-width:9.99992" /><rect
     id="rect18"
     x="108.59908"
     fill="#8c8c8c"
     width="29.999746"
     height="59.999493"
     y="0"
     style="stroke-width:9.99992" /><path
     id="path20"
     fill="#6b6b6b"
     d="M 123.56896,39.799664 C 55.329533,39.799664 0,95.139197 0,163.41862 V 287.00758 H 123.56896 247.19791 V 163.39862 C 247.20791,95.139197 191.85838,39.799664 123.56896,39.799664 Z M 54.319541,210.41822 v -93.9992 H 192.86837 v 93.9992 z"
     style="stroke-width:9.99992" /><path
     id="path27"
     fill="#cecece"
     d="M 102.25914,84.359288 C 58.669505,96.129188 32.879722,141.03881 44.629623,184.61844 56.429524,228.21807 101.28914,254.01786 144.91878,242.26795 188.54841,230.46805 214.31819,185.59843 202.55829,141.9688 190.75839,98.369169 145.89877,72.559387 102.25914,84.359288 Z m -7.329941,100.669152 3.54997,-28.90976 43.209631,-11.6699 17.62985,23.1898 z"
     style="stroke-width:9.99992" /><polygon
     id="rect31"
     points="14.015,17.282 15.146,21.465 12.539,22.17 11.408,17.987 "
     transform="scale(9.9999156)" /><polygon
     id="polygon33"
     points="10.133,13.266 9.493,18.503 9.848,15.612 14.169,14.444 15.932,16.764 12.741,12.561 12.181,10.491 9.577,11.196 "
     transform="scale(9.9999156)" /><polygon
     id="polygon37"
     fill="#4d4d4d"
     points="7.224,19.115 9.493,18.503 9.848,15.612 6.521,16.51 "
     transform="scale(9.9999156)" /><polygon
     id="polygon39"
     fill="#4d4d4d"
     points="15.932,16.764 18.202,16.152 17.496,13.546 14.169,14.444 "
     transform="scale(9.9999156)" /><path
     id="path41"
     opacity="0.3"
     d="m 237.458,166.60859 c -0.44,-7.58993 -1.61999,-15.27987 -3.65997,-22.9098 -1.85999,-6.85995 -4.37997,-13.29989 -7.36994,-19.43984 l -5.34996,1.81999 -7.99993,-10.62991 c -2.27998,-3.46998 -4.81996,-6.76995 -7.48994,-9.88992 l -8.40992,-11.119907 4.56996,-3.429971 C 174.54853,65.979443 135.58886,54.929536 97.259179,65.269449 58.989502,75.619362 30.869739,104.77912 19.969831,140.09882 l 5.659953,0.65999 -1.669986,13.85988 c -0.709994,4.03997 -1.22999,8.13994 -1.479988,12.3099 l -1.579986,13.22989 -5.549954,1.08999 c 0.539996,6.82994 1.619987,13.67988 3.469971,20.52983 2.079983,7.62993 4.929958,14.84987 8.369929,21.63981 l 5.829951,-4.69996 c 6.799943,13.81989 16.449861,25.54979 27.969764,34.85971 l -5.85995,4.65996 c 26.909772,22.36981 63.859465,31.79973 100.229155,21.99981 36.31969,-9.82991 63.51946,-36.56969 75.47936,-69.42941 l -7.38994,-1.11999 c 5.29996,-13.82988 7.71994,-28.82976 6.61995,-44.19963 z m -92.26923,76.01936 C 106.5791,253.07786 66.799436,230.20806 56.369524,191.60838 45.959612,152.98871 68.789419,113.21904 107.39909,102.81913 c 38.64968,-10.43991 78.38934,12.4099 88.81925,50.99957 10.45992,38.64968 -12.41989,78.38934 -51.02957,88.80925 z"
     style="stroke-width:9.99992" /><path
     id="path43"
     d="M 96.479185,62.889469 C 40.979654,77.849343 8.1599311,134.95886 23.159804,190.41839 38.129678,245.88792 95.239196,278.75765 150.72873,263.73777 206.18826,248.7579 239.02798,191.65838 224.01811,136.17885 209.04824,80.729318 151.95872,47.889596 96.479185,62.889469 Z M 144.93878,242.26795 C 101.31914,254.01786 56.419524,228.25807 44.639623,184.62844 32.849723,140.98881 58.659505,96.089189 102.26914,84.319288 145.89877,72.549387 190.79839,98.35917 202.58829,141.9788 c 11.7499,43.61963 -14.04988,88.52925 -57.64951,100.28915 z"
     style="stroke-width:9.99992" /><path
     id="path45"
     fill="#1a1a1a"
     d="m 234.75802,157.18867 c -0.44,-7.59993 -1.59999,-15.29987 -3.67997,-22.9298 -1.82999,-6.80995 -4.32996,-13.27989 -7.34994,-19.43984 l -5.33995,1.78999 -23.9198,-31.609738 4.55996,-3.429971 C 171.84855,56.539523 132.90888,45.499616 94.579201,55.839529 56.249525,66.189441 28.169762,95.339195 17.269854,130.6589 l 5.639953,0.66999 -4.709961,39.38967 -5.549953,1.12999 c 0.519996,6.82994 1.619987,13.67988 3.449971,20.47983 2.079983,7.64993 4.899959,14.85987 8.379929,21.64981 L 40.24966,201.2883 68.249424,236.07801 52.419557,248.8479 c 26.869774,22.32981 63.829463,31.74973 100.189153,21.94981 36.34969,-9.78991 63.54947,-36.54969 75.51936,-69.39941 l -20.04983,-3.02997 6.60995,-44.16963 z M 142.4788,233.22803 C 103.86912,243.64794 64.089459,220.79814 53.679547,182.18846 43.269635,143.56879 66.089442,103.80912 104.71912,93.409211 c 38.62967,-10.429912 78.35933,12.399899 88.78925,51.039569 10.43991,38.60967 -12.4199,78.33934 -51.02957,88.77925 z"
     style="stroke-width:9.99992" /><circle
     id="circle47"
     opacity="0.4"
     fill="#ffffff"
     cx="40.169662"
     cy="116.30901"
     r="8.3299294"
     style="stroke-width:9.99992" /><circle
     id="circle49"
     opacity="0.4"
     fill="#ffffff"
     cx="172.02853"
     cy="80.70932"
     r="8.3399296"
     style="stroke-width:9.99992" /><path
     id="path53"
     fill="#ffffff"
     d="m 100.33915,245.67793 -3.499968,-0.85 0.829993,-3.53997 3.479975,0.82 0.83999,-3.46997 7.02994,1.66998 -6.69994,28.14976 -7.049944,-1.66998 z"
     style="opacity:0.4;stroke-width:9.99992" /><path
     id="path55"
     fill="#ffffff"
     d="m 157.91867,265.21776 -14.04988,3.54997 -0.89,-3.53997 -3.46997,0.87999 -5.33995,-21.08982 3.48997,-0.87999 -0.88999,-3.46997 14.07988,-3.54997 0.84999,3.49997 3.55997,-0.87999 5.30995,21.05982 -3.55997,0.87999 z m -4.38997,-2.67998 -5.34995,-21.03982 -6.98994,1.77999 5.30995,21.05982 z"
     style="opacity:0.4;stroke-width:9.99992" /><path
     id="path57"
     fill="#ffffff"
     d="m 196.61834,226.55809 2.53998,-2.51998 2.56998,2.56998 -2.52998,2.53998 5.10996,5.13995 -5.18996,5.14996 -5.09996,-5.10996 -7.70993,7.62994 -5.10996,-5.14996 2.52998,-2.49998 -5.06996,-5.18995 2.55998,-2.55998 5.13996,5.13995 -2.60998,2.59998 2.53998,2.55998 5.15995,-5.10996 -12.76989,-12.81989 5.17996,-5.14995 z"
     style="opacity:0.4;stroke-width:9.99992" /><rect
     id="connector0pin"
     x="8.5999279"
     y="299.99747"
     fill="none"
     width="29.999746"
     height="29.999746"
     style="stroke-width:9.99992" /><rect
     id="connector1pin"
     x="108.59908"
     y="0"
     fill="none"
     width="29.999746"
     height="29.999746"
     style="stroke-width:9.99992" /><rect
     id="connector2pin"
     x="208.59825"
     y="299.99747"
     fill="none"
     width="29.999746"
     height="29.999746"
     style="stroke-width:9.99992" /></g></svg>
