<?xml version='1.0' encoding='utf-8'?>
<!DOCTYPE svg>
<!-- Generator: Adobe Illustrator 17.0.0, SVG Export Plug-In . SVG Version: 6.00 Build 0)  -->
<svg xmlns="http://www.w3.org/2000/svg" width="2.02144in" x="0px" version="1.1" y="0px" gorn="0"  height="1.33008in" viewBox="0 0 145.544 95.766" xmlns:xml="http://www.w3.org/XML/1998/namespace" id="Layer_1" enable-background="new -8.456 -12.246 145.544 95.766" xml:space="preserve">
    <desc >
        <referenceFile >Polymer Lithium Ion Battery-850mAh_breadboard.svg</referenceFile>
    </desc>
    <g  transform="translate(8.456,12.246)">
        <g >
            <g >
                <g >
                    <g gorn="0.1.0.0.0.0"  id="_x3C_desc_x3E_"/>
                    <g gorn="0.1.0.0.0.1"  id="breadboard">
                        <g gorn="0.1.0.0.0.1.0"  id="icon_1_">
                            <path fill="#D2D2D2" gorn="0.1.0.0.0.1.0.0"  id="path4_1_" d="M-0.118,0.873c0-0.532,0.484-0.904,0.906-0.904h135.396c0.602,0,0.905,0.308,0.905,0.904v81.739c0,0.479-0.377,0.905-0.905,0.905H0.786c-0.492,0-0.905-0.354-0.905-0.905L-0.118,0.873L-0.118,0.873z"/>
                            <g >
                                <path fill="#FFC900" gorn="0.1.0.0.0.1.0.1.0"  id="path4_2_" d="M15.741,83.517H0.789c-0.493,0-0.908-0.355-0.908-0.904l0.001-81.739l0,0c0-0.532,0.484-0.904,0.908-0.904h14.949v83.55L15.741,83.517L15.741,83.517z"/>
                                <path opacity="0.36" fill="#1D1D1D" gorn="0.1.0.0.0.1.0.1.1"  id="path4_3_" enable-background="new    " d="M11.195,83.517H0.789c-0.493,0-0.908-0.355-0.908-0.904l0.001-81.739l0,0c0-0.532,0.484-0.904,0.908-0.904h10.402v83.55L11.195,83.517L11.195,83.517z"/>
                                <g gorn="0.1.0.0.0.1.0.1.2"  id="path112_1_">
                                    <path  d="M-0.135,18.361c-1.665,0-6.082,0-6.082-6.767c0-4.301,1.83-7.431,3.602-10.454c1.561-2.663,3.028-5.18,3.028-8.255v-5.137h1.175v5.137c0,3.395-1.55,6.044-3.188,8.85c-1.693,2.892-3.441,5.879-3.441,9.859c-0.001,5.588,3.192,5.588,4.908,5.588L-0.135,18.361L-0.135,18.361z"/>
                                </g>
                                <g gorn="0.1.0.0.0.1.0.1.3"  id="path114_1_">
                                    <path fill="#FF0000"  d="M-0.147,23.865c-2.157,0-7.753-2.207-7.751-12.265c0-4.372,1.448-7.264,2.854-10.058C-3.731-1.071-2.49-3.541-2.49-7.115v-5.131h1.176v5.132c0,3.854-1.361,6.563-2.68,9.185c-1.341,2.672-2.729,5.435-2.729,9.53c-0.001,9.051,4.873,11.086,6.58,11.086v1.179L-0.147,23.865L-0.147,23.865z"/>
                                </g>
                                <path opacity="0.35" gorn="0.1.0.0.0.1.0.1.4"  id="path22_1_" enable-background="new    " d="M2.162,83.096c-0.803,0-1.824-0.741-1.824-1.624v-4.063c0,0.887,1.023,2.262,1.824,2.262h132.638c0.803,0,1.818-1.375,1.818-2.262v4.063c0,0.883-1.019,1.624-1.818,1.624H2.162L2.162,83.096z"/>
                                <path opacity="0.35" fill="#FFFFFF" gorn="0.1.0.0.0.1.0.1.5"  id="path22_2_" enable-background="new    " d="M134.702,0.441c0.804,0,1.822,0.742,1.822,1.626v4.06c0-0.879-1.021-2.257-1.822-2.257H2.067c-0.804,0-1.82,1.378-1.82,2.257v-4.06c0-0.885,1.02-1.626,1.82-1.626L134.702,0.441L134.702,0.441z"/>
                            </g>
                            <g gorn="0.1.0.0.0.1.0.2"  id="silkscreen_1_">
                                <g  transform="matrix(1, 0, 0, 1, 28.2537, 30.6853)">
                                    <g >
                                        <g >
                                            <g />
                                        </g>
                                    </g>
                                </g>
                                <g  transform="matrix(1, 0, 0, 1, 28.2537, 40.1101)">
                                    <g >
                                        <g >
                                            <g >
                                                <g  transform="matrix(1 0 0 1 -2.994 -9.5)">
                                                    <g >
                                                        <g >
                                                            <g  enable-background="new    ">
                                                                <text x="0" y="0" font-family="DroidSans"  font-size="13">Polymer Lithium </text>
                                                                <text x="0" y="15.6" font-family="DroidSans"  font-size="13">Ion Battery</text>
                                                                <text x="0" y="31.2" font-family="DroidSans"  font-size="13">850mAh 3.7V</text>
                                                            </g>
                                                        </g>
                                                    </g>
                                                </g>
                                            </g>
                                        </g>
                                    </g>
                                </g>
                                <g  transform="matrix(1 0 0 1 14.0445 14.0525)">
                                    <g >
                                        <g >
                                            <text font-family="Droid Sans"  font-size="13">_</text>
                                        </g>
                                    </g>
                                </g>
                                <g  transform="matrix(1 0 0 1 13.7405 28.637)">
                                    <g >
                                        <g >
                                            <text font-family="Droid Sans"  font-size="13">+</text>
                                        </g>
                                    </g>
                                </g>
                            </g>
                            <g gorn="0.1.0.0.0.1.0.3"  id="copper1_1_">
                                <rect width="1.175" x="0.412" y="-12.251" fill="none" gorn="0.1.0.0.0.1.0.3.0"  height="5.137" id="connector1pin"/>
                                <rect width="0.00235" x="0.998325" y="-12.256137" fill="none" gorn="0.1.0.0.0.1.0.3.1"  height="0.010274" stroke="none" id="connector1terminal" stroke-width="0"/>
                                <rect width="1.175" x="-2.491" y="-12.251" fill="none" gorn="0.1.0.0.0.1.0.3.2"  height="5.137" id="connector0pin"/>
                                <rect width="0.00235" x="-1.904675" y="-12.256137" fill="none" gorn="0.1.0.0.0.1.0.3.3"  height="0.010274" stroke="none" id="connector0terminal" stroke-width="0"/>
                            </g>
                        </g>
                    </g>
                </g>
            </g>
        </g>
    </g>
</svg>
