<svg xmlns="http://www.w3.org/2000/svg" xmlns:xlink="http://www.w3.org/1999/xlink" width="34" height="212" viewBox="0 -48.677 33.345 211.597"><style><![CDATA[.B{stroke-miterlimit:10}.C{fill:#262626}.D{fill:#b3b3b3}.E{stroke-width:1.16}]]></style><path fill="none" stroke="#6b6b6b" d="M23.97-46.307c0 5.833-20.87 4.887-20.87 19.32 0 28.568 13.945-3.996 13.945 52.15" class="B"/><ellipse cx="16.658" cy="28.693" rx="8.491" ry="3.321" class="C"/><g class="D"><ellipse cx="16.658" cy="160.91" rx="3.702" ry="2.01"/><path d="M12.956 127.963h7.403v32.946h-7.403z"/></g><path d="M31.348 88.3h1.997v36.2h-1.997zm-31.378 0h1.997v36.2H-.03z" fill="#ffc11f"/><path d="M0-48.677h4.74v4.74H0zm21.6 0h4.74v4.74H21.6z" fill="#6b6b6b"/><path fill="none" stroke="#3a3a3a" stroke-width="2.5" d="M3.1-26.988c0 30.404 13.945-3.996 13.945 52.15" class="B"/><path d="M22.004 22.558v-9.115h-10.69v9.125l-3.146 6.3V54.55H25.15V28.858z" class="C"/><path opacity=".1" fill="none" stroke="#fff" d="M12.763 54.48v-24.92l3.167-6.3v-7.013" class="B E"/><g fill="#ccc"><ellipse cx="16.658" cy="127.963" rx="13.266" ry="5.188"/><ellipse cx="16.658" cy="144.559" rx="13.266" ry="5.189"/><path d="M3.393 127.963h26.53v16.596H3.393z"/></g><g fill="#ffce4e"><path d="M4.627 56.158H28.7v21.68H4.627zm-3.66 44.28h31.38v27.526H.968z"/><path d="M4.627 64.427v3.538c0 5.43-.822 9.872-1.83 9.872s-1.83 4.44-1.83 9.872v30.382c0 5.43 4.442 9.872 9.872 9.872h11.636c5.43 0 9.872-4.442 9.872-9.872V87.71c0-5.43-.823-9.872-1.83-9.872s-1.828-4.44-1.828-9.872v-3.538"/><ellipse cx="16.658" cy="127.963" rx="15.69" ry="6.139"/><ellipse cx="16.658" cy="56.158" rx="12.031" ry="4.708"/><ellipse cx="16.658" cy="79.578" rx="14.689" ry="5.748"/></g><g opacity=".2" fill="#333"><use xlink:href="#B"/><use xlink:href="#B" y="-1"/><use xlink:href="#B" y="-2"/><use xlink:href="#B" y="-3"/><use xlink:href="#B" y="-4"/><use xlink:href="#B" y="-5"/><use xlink:href="#B" y="-6"/></g><ellipse cx="16.658" cy="13.443" rx="5.346" ry="2.091" class="C"/><g fill="#ffc11f"><path d="M23.575 116.924c0 4.074-3.114 7.404-6.917 7.404s-6.92-3.33-6.92-7.404v-21.21c0-4.073 3.113-7.404 6.92-7.404s6.917 3.33 6.917 7.404v21.21z"/><path d="M9.74 118.123c0 4.073 3.113 7.403 6.92 7.403s6.917-3.33 6.917-7.403v-1.198c0 4.074-3.114 7.404-6.917 7.404s-6.92-3.33-6.92-7.404v1.198z"/></g><path fill="#b28203" d="M22.21 121.153l.06.06c.387-.576.68-1.217.9-1.896l-.033.033-.487-.487.487-.485.238.238c.11-.497.176-1.01.186-1.54l-.424.425-.487-.486.487-.487.437.437c0-.013.002-.024.002-.037v-1.715l-.438.438-.487-.486.487-.487.438.438v-1.754l-.438.438-.487-.487.487-.486.438.438v-1.755l-.438.44-.487-.487.487-.486.438.438v-1.755l-.438.438-.487-.486.487-.487.438.438v-1.754l-.438.438-.487-.487.487-.486.438.438v-1.755l-.438.438-.487-.487.487-.485.438.438v-1.755l-.438.438-.487-.486.487-.487.438.438v-1.754l-.438.438-.487-.487.487-.487.438.438V100.4l-.438.438-.487-.487.487-.486.438.44V98.55l-.438.438-.487-.486.487-.487.438.438v-1.755l-.438.44-.487-.487.487-.487.438.438v-.89c0-.27-.05-.528-.075-.8l-.363.363-.487-.487.487-.486.337.338c-.06-.437-.156-.858-.284-1.27l-.053.053-.487-.486.29-.29c-.087-.202-.192-.39-.296-.58l-.432.43-.487-.487.487-.486.317.317a7.18 7.18 0 0 0-2.648-2.648l.04.04-.486.487-.487-.487.363-.363c-.21-.095-.438-.147-.657-.22l-.145.146-.292-.293c-.358-.09-.73-.132-1.11-.158l-.45.45-.45-.45c-.378.026-.75.07-1.11.158l-.292.293-.146-.146c-.22.072-.447.125-.656.22l.363.363-.486.487-.49-.487.038-.038c-1.086.622-2 1.528-2.646 2.646l.32-.317.486.486-.486.487-.435-.43-.295.58.3.29-.486.486-.055-.053c-.128.4-.227.832-.286 1.27l.34-.338.486.486-.486.487-.366-.363-.075.8v.01l.003.002-.003.003v.874l.44-.438.486.487-.486.487-.44-.44v.875l.003.002-.005.004v.874l.44-.438.486.487-.486.486-.44-.44v.875l.003.002-.003.002v.876l.44-.44.486.486-.486.487-.44-.438v.875l.003.003H9.74v.874l.44-.438.486.487-.486.487-.44-.438v.874l.003.002-.003.004v.874l.44-.438.486.487-.486.486-.44-.438v.875h.003l-.003.002v.876l.44-.438.486.485-.486.487-.44-.438v.875l.003.003-.003.002v.875l.44-.438.486.486-.486.487-.44-.438v.874l.003.003-.003.003v.874l.44-.438.486.487-.486.486-.44-.438v.875l.003.002-.003.003v.875l.44-.438.486.486-.486.487-.44-.44v.876l.003.002-.003.002v.875l.44-.438.486.486-.486.487-.44-.438v.874l.003.003-.003.003v.874l.44-.438.486.487-.486.486-.44-.438v.874l.003.002-.003.003v.836c0 .013.004.024.004.037l.438-.437.486.487-.486.486-.427-.425a7.8 7.8 0 0 0 .186 1.541l.24-.238.486.485-.486.487-.038-.035c.22.682.516 1.322.903 1.898l.06-.06.486.486-.123.122.398.478.163-.16.487.487-.133.132.477.4.095-.095.358.36c.662.396 1.377.692 2.146.836l.27-.27.336.334c.198.02.39.065.6.065s.392-.046.59-.065l.336-.334.27.27c.77-.146 1.486-.44 2.15-.838l.356-.357.095.095c.168-.12.317-.268.475-.402l-.13-.13.486-.487.162.16c.144-.148.268-.315.4-.478l-.123-.122.488-.486zm.487-1.364l-.486.486-.487-.486.487-.487.486.487zm-5.553-16.66l-.486.487-.487-.487.487-.486.486.486zm-.974-1.85l.487-.487.486.487-.486.486-.487-.486zm.974 3.7l-.486.487-.487-.487.487-.487.486.487zm0 1.852l-.486.486-.487-.486.487-.487.486.487zm0 1.85l-.486.486-.487-.486.487-.486.486.486zm0 1.85l-.486.487-.487-.487.487-.486.486.486zm0 1.85l-.486.486-.487-.486.487-.487.486.487zm-.05-.926l.487-.486.487.486-.487.487-.487-.487zm0-1.85l.487-.487.487.487-.487.486-.487-.486zm0-1.852l.487-.486.487.486-.487.487-.487-.487zm0-1.85l.487-.485.487.485-.487.487-.487-.487zm0-1.85l.487-.487.487.487-.487.486-.487-.486zm0-1.85l.487-.487.487.487-.487.487-.487-.487zm0-1.852l.487-.486.487.486-.487.487-.487-.487zm0-1.85l.487-.487.487.487-.487.486-.487-.486zm.05.925l-.486.487-.487-.487.487-.487.486.487zm-1.412-.438l-.49-.486.49-.487.487.487-.487.486zm.487 1.363l-.487.487-.49-.487.49-.486.487.486zm0 1.852l-.487.487-.49-.487.49-.487.487.487zm0 1.85l-.487.486-.49-.486.49-.487.487.487zm0 1.85l-.487.487-.49-.487.49-.485.487.485zm0 1.85l-.487.487-.49-.487.49-.486.487.486zm0 1.852l-.487.486-.49-.486.49-.487.487.487zm0 1.85l-.487.487-.49-.487.49-.486.487.486zm0 1.85l-.487.487-.49-.487.49-.486.487.486zm.438.44l.486.486-.486.487-.487-.487.487-.486zm.438-.44l.487-.486.487.486-.487.487-.487-.487zm1.413.44l.487.486-.487.487-.486-.487.486-.486zm-.486-1.365l.486-.487.487.487-.487.486-.486-.486zm0-1.85l.486-.486.487.486-.487.487-.486-.487zm0-1.85l.486-.486.487.486-.487.486-.486-.486zm0-1.85l.486-.487.487.487-.487.486-.486-.486zm0-1.852l.486-.487.487.487-.487.487-.486-.487zm0-1.852l.486-.486.487.486-.487.487-.486-.487zm0-1.85l.486-.487.487.487-.487.486-.486-.486zm0-1.852l.486-.487.487.487-.487.487-.486-.487zm0-1.85l.486-.486.487.486-.487.487-.486-.487zm-.44-.438l-.487-.487.487-.487.487.487-.487.487zm-.438.438l-.486.487-.487-.487.487-.486.486.486zm-1.412-.438l-.49-.487.49-.487.487.487-.487.487zm-.44.438l-.487.487-.49-.487.49-.486.487.486zm0 1.85l-.487.487-.49-.487.49-.487.487.487zm0 1.852l-.487.486-.49-.486.49-.487.487.487zm0 1.85l-.487.487-.49-.487.49-.486.487.486zm0 1.852l-.487.487-.49-.487.49-.487.487.487zm0 1.852l-.487.486-.49-.486.49-.487.487.487zm0 1.85l-.487.486-.49-.486.49-.486.487.486zm0 1.85l-.487.487-.49-.487.49-.486.487.486zm0 1.85l-.487.486-.49-.486.49-.487.487.487zm0 1.85l-.487.487-.49-.487.49-.486.487.486zm0 1.85l-.487.487-.49-.487.49-.486.487.486zm-.05-.924l.49-.487.487.487-.487.486-.49-.486zm1.415.438l.486.486-.486.487-.487-.487.487-.486zm.438-.438l.487-.487.487.487-.487.486-.487-.486zm1.413.438l.487.486-.487.487-.486-.487.486-.486zm.44-.438l.487-.487.486.487-.486.486-.487-.486zm0-1.852l.487-.486.486.486-.486.487-.487-.487zm0-1.85l.487-.486.486.486-.486.487-.487-.487zm0-1.85l.487-.487.486.487-.486.486-.487-.486zm0-1.852l.487-.486.486.486-.486.487-.487-.487zm0-1.85l.487-.485.486.485-.486.487-.487-.487zm0-1.85l.487-.487.486.487-.486.486-.487-.486zm0-1.85l.487-.487.486.487-.486.487-.487-.487zm0-1.852l.487-.486.486.486-.486.487-.487-.487zm0-1.85l.487-.487.486.487-.486.486-.487-.486zm0-1.85l.487-.487.486.487-.486.487-.487-.487zm-.44-.44l-.486-.486.486-.486.487.486-.487.486zm-.926-.924l-.487-.487.487-.486.487.486-.487.487zm-.438.438l-.486.486-.487-.486.487-.486.486.486zm-1.412-.438l-.49-.487.49-.486.487.486-.487.487zm-.44.438l-.487.486-.49-.486.49-.486.487.486zm-.926.926l-.486.487-.49-.487.49-.487.486.487zm0 1.85l-.486.486-.49-.486.49-.487.486.487zm0 1.85l-.486.487-.49-.487.49-.486.486.486zm0 1.852l-.486.487-.49-.487.49-.487.486.487zm0 1.85l-.486.486-.49-.486.49-.487.486.487zm0 1.85l-.486.487-.49-.487.49-.485.486.485zm0 1.85l-.486.487-.49-.487.49-.486.486.486zm0 1.852l-.486.486-.49-.486.49-.487.486.487zm0 1.85l-.486.487-.49-.487.49-.486.486.486zm0 1.85l-.486.487-.49-.487.49-.486.486.486zm0 1.852l-.486.486-.49-.486.49-.487.486.487zm0 1.85l-.486.486-.49-.486.49-.487.486.487zm.44.438l.487.487-.487.486-.49-.486.49-.487zm.436-.438l.49-.487.487.487-.487.486-.49-.486zm1.415.438l.486.487-.486.486-.487-.486.487-.487zm.438-.438l.487-.487.487.487-.487.486-.487-.486zm1.413.438l.487.487-.487.486-.486-.486.486-.487zm.44-.438l.487-.487.486.487-.486.486-.487-.486zm.924-.927l.487-.486.487.486-.487.487-.487-.487zm0-1.85l.487-.486.487.486-.487.487-.487-.487zm0-1.85l.487-.487.487.487-.487.486-.487-.486zm0-1.85l.487-.486.487.486-.487.487-.487-.487zm0-1.85l.487-.486.487.486-.487.486-.487-.486zm0-1.85l.487-.487.487.487-.487.486-.487-.486zm0-1.852l.487-.487.487.487-.487.487-.487-.487zm0-1.852l.487-.486.487.486-.487.487-.487-.487zm0-1.85l.487-.487.487.487-.487.486-.487-.486zm0-1.852l.487-.487.487.487-.487.487-.487-.487zm0-1.85l.487-.486.487.486-.487.487-.487-.487zm0-1.85l.487-.486.487.486-.487.486-.487-.486zm-.437-.438l-.487-.487.487-.486.486.486-.486.487zm-.926-.925l-.486-.487.486-.487.487.487-.487.487zm-.926-.927l-.487-.486.487-.487.487.487-.487.486zm-.438.44l-.486.487-.487-.487.487-.487.486.487zm-1.412-.44l-.49-.486.49-.487.487.487-.487.486zm-.44.44l-.487.487-.49-.487.49-.487.487.487zm-.926.924l-.486.487-.49-.487.49-.486.486.486zm-.924.926l-.487.486-.49-.486.49-.486.487.486zm0 1.85l-.487.487-.49-.487.49-.486.487.486zm0 1.85l-.487.487-.49-.487.49-.487.487.487zm0 1.852l-.487.486-.49-.486.49-.487.487.487zm0 1.85l-.487.487-.49-.487.49-.486.487.486zm0 1.852l-.487.487-.49-.487.49-.487.487.487zm0 1.852l-.487.486-.49-.486.49-.487.487.487zm0 1.85l-.487.486-.49-.486.49-.486.487.486zm0 1.85l-.487.487-.49-.487.49-.486.487.486zm0 1.85l-.487.486-.49-.486.49-.487.487.487zm0 1.85l-.487.487-.49-.487.49-.486.487.486zm0 1.85l-.487.487-.49-.487.49-.486.487.486zm0 1.852l-.487.486-.49-.486.49-.487.487.487zm.438.44l.486.485-.486.487-.49-.487.49-.485zm.925.925l.487.487-.487.486-.49-.486.49-.487zm.436-.44l.49-.485.487.485-.487.487-.49-.487zm1.415.44l.486.487-.486.486-.487-.486.487-.487zm.438-.44l.487-.485.487.485-.487.487-.487-.487zm1.413.44l.487.487-.487.486-.486-.486.486-.487zm.44-.44l.487-.485.486.485-.486.487-.487-.487zm.924-.925l.487-.487.487.487-.487.486-.487-.486zm.927-.925l.486-.487.487.487-.487.486-.486-.486zm0-1.85l.486-.487.487.487-.487.486-.486-.486zm0-1.852l.486-.486.487.486-.487.487-.486-.487zm0-1.85l.486-.486.487.486-.487.487-.486-.487zm0-1.85l.486-.487.487.487-.487.486-.486-.486zm0-1.852l.486-.486.487.486-.487.487-.486-.487zm0-1.85l.486-.485.487.485-.487.487-.486-.487zm0-1.85l.486-.487.487.487-.487.486-.486-.486zm0-1.85l.486-.487.487.487-.487.487-.486-.487zm0-1.852l.486-.486.487.486-.487.487-.486-.487zm0-1.85l.486-.487.487.487-.487.486-.486-.486zm0-1.85l.486-.487.487.487-.487.487-.486-.487zm0-1.852l.486-.486.487.486-.487.487-.486-.487zm-.44-.437l-.487-.487.487-.487.487.487-.487.487zm-.488-2.34l.487-.486.487.486-.486.487-.488-.487zm.05.926l-.486.486-.487-.486.487-.487.486.487zm-1.412-.44l-.486-.487.486-.486.487.486-.487.487zm-.926-.925l-.487-.487.487-.487.487.487-.487.487zm-.438.438l-.486.487-.487-.487.487-.486.486.486zm-1.412-.438l-.49-.487.49-.487.487.487-.487.487zm-.44.438l-.487.487-.49-.487.49-.486.487.486zm-.926.926l-.486.486-.49-.486.49-.487.486.487zm-1.412-.44l-.49-.487.49-.486.487.486-.487.487zm.488 1.365l-.487.487-.49-.487.49-.487.487.487zm-.926.924l-.487.487-.49-.487.49-.486.487.486zm0 1.852l-.487.487-.49-.487.49-.487.487.487zm0 1.85l-.487.486-.49-.486.49-.487.487.487zm0 1.85l-.487.487-.49-.487.49-.486.487.486zm0 1.852l-.487.487-.49-.487.49-.487.487.487zm0 1.85l-.487.486-.49-.486.49-.487.487.487zm0 1.85l-.487.487-.49-.487.49-.485.487.485zm0 1.85l-.487.487-.49-.487.49-.486.487.486zm0 1.852l-.487.486-.49-.486.49-.487.487.487zm0 1.85l-.487.487-.49-.487.49-.486.487.486zm0 1.85l-.487.487-.49-.487.49-.486.487.486zm0 1.852l-.487.486-.49-.486.49-.487.487.487zm0 1.85l-.487.486-.49-.486.49-.487.487.487zm0 1.85l-.487.487-.49-.487.49-.485.487.485zm.438.44l.487.487-.487.486-.49-.486.49-.487zm.926.925l.486.487-.486.486-.49-.486.49-.487zm.925.927l.487.486-.487.486-.49-.486.49-.486zm.436-.44l.49-.487.487.487-.487.486-.49-.486zm1.415.44l.486.486-.486.486-.487-.486.487-.486zm.438-.44l.487-.487.487.487-.487.486-.487-.486zm1.413.44l.487.486-.487.486-.486-.486.486-.486zm.44-.44l.487-.487.486.487-.486.486-.487-.486zm.924-.924l.487-.487.487.487-.487.486-.487-.486zm.927-.927l.486-.485.487.485-.487.487-.486-.487zm1.9-.925l-.486.486-.487-.486.487-.487.486.487zm0-1.852l-.486.487-.487-.487.487-.486.486.486zm0-1.85l-.486.487-.487-.487.487-.486.486.486zm0-1.85l-.486.486-.487-.486.487-.487.486.487zm0-1.85l-.486.487-.487-.487.487-.486.486.486zm0-1.85l-.486.486-.487-.486.487-.486.486.486zm0-1.85l-.486.486-.487-.486.487-.487.486.487zm0-1.852l-.486.487-.487-.487.487-.487.486.487zm0-1.852l-.486.487-.487-.487.487-.486.486.486zm0-1.85l-.486.486-.487-.486.487-.487.486.487zm0-1.852l-.486.487-.487-.487.487-.487.486.487zm0-1.85l-.486.487-.487-.487.487-.486.486.486zm0-1.85l-.486.486-.487-.486.487-.486.486.486zm0-1.85l-.486.487-.487-.487.487-.487.486.487zm-.925-.926l-.487.486-.486-.486.486-.487.487.487zm0-1.85l-.487.487-.486-.487.486-.487.487.487zm-1.413-1.413l.487.487-.487.486-.487-.486.487-.487zm-.44 1.413l-.486.487-.487-.487.487-.487.486.487zm-.925-.926l-.487.486-.486-.486.486-.487.487.487zm-1.413-1.412l.487.486-.487.487-.487-.487.487-.486zm-.438 1.412l-.486.486-.487-.486.487-.487.486.487zm-1.412-1.412l.487.486-.487.487-.49-.487.49-.486zm-.926.925l.487.487-.487.486-.49-.486.49-.487zm-.44 1.413l-.486.487-.49-.487.49-.487.486.487zm-1.412-1.413l.487.487-.487.486-.49-.486.49-.487zm-1.415 1.413l.49-.487.487.487-.487.487-.49-.487zm.5 1.363l.487.487-.487.486-.49-.486.49-.487zm-1.415 1.414l.49-.487.486.487-.486.487-.49-.487zm0 1.85l.49-.486.486.486-.486.486-.49-.486zm0 1.85l.49-.486.486.486-.486.487-.49-.487zm0 1.85l.49-.487.486.487-.486.487-.49-.487zm0 1.852l.49-.487.486.487-.486.486-.49-.486zm0 1.85l.49-.486.486.486-.486.487-.49-.487zm0 1.852l.49-.487.486.487-.486.487-.49-.487zm0 1.852l.49-.487.486.487-.486.486-.49-.486zm0 1.85l.49-.486.486.486-.486.486-.49-.486zm0 1.85l.49-.486.486.486-.486.487-.49-.487zm0 1.85l.49-.487.486.487-.486.486-.49-.486zm0 1.85l.49-.486.486.486-.486.487-.49-.487zm0 1.85l.49-.486.486.486-.486.487-.49-.487zm0 1.852l.49-.487.486.487-.486.486-.49-.486zm0 1.852l.49-.487.486.487-.486.486-.49-.486zm.925.924l.49-.487.487.487-.487.486-.49-.486zm.926.926l.49-.486.487.486-.487.486-.49-.486zm.926.926l.49-.487.486.487-.486.486-.49-.486zm1.414 1.41l-.49-.486.49-.487.487.487-.487.486zm.436-1.41l.49-.487.487.487-.487.486-.49-.486zm1.415 1.41l-.487-.486.487-.487.486.487-.486.486zm.438-1.41l.487-.487.487.487-.487.486-.487-.486zm1.413 1.41l-.486-.486.486-.487.487.487-.487.486zm.926-.925l-.487-.486.487-.487.486.487-.486.486zm.925-.926l-.487-.486.487-.486.487.486-.487.486zm.925-.925l-.486-.486.486-.487.487.487-.487.486z" opacity=".5"/><g opacity=".5"><path fill="#f2f2f2" d="M9.747 133.468v15.502l.984.21v-15.533l-.984-.178z"/><path fill="#fff" d="M10.732 133.646v15.533l.727.154V133.75l-.727-.104z"/><path d="M11.46 149.333l1.112.137v-15.586l-1.112-.135v15.584zm-.002-15.583v15.584zm-3.335-.64v15.393l1.624.47V133.47l-1.624-.36z" fill="#e6e6e6"/><path d="M24.707 133.224v15.433l.574-.184v-15.387l-.574.138z" class="D"/><path fill="#999" d="M24.283 133.326v15.47l.424-.138v-15.433l-.424.102z"/><g class="D"><path d="M23.635 133.456v15.5l.648-.16v-15.47l-.648.13z"/><path opacity=".5" d="M25.28 148.473l.95-.337V132.82l-.95.267v15.386z"/></g></g><g opacity=".2"><path fill="#f2f2f2" d="M15.56 162.818v-13.113l-.68-.026v12.983c.215.065.44.118.68.156z"/><path fill="#fff" d="M16.06 162.885v-13.16l-.5-.02v13.113l.5.068z"/><g fill="#e6e6e6"><path d="M16.658 162.92c.058 0 .11-.007.17-.01v-13.17l-.17.008c-.205 0-.396-.02-.598-.024v13.16l.598.034z"/><path d="M16.06 149.724h.001v13.16zm-1.18-.046l-1.118-.063v12.533c.306.2.684.382 1.118.513v-12.983z"/></g></g><path opacity=".1" d="M3.393 132.313c2.78 1.72 7.674 2.87 13.266 2.87s10.485-1.15 13.266-2.87v-1.082c-2.78 1.72-7.675 2.87-13.266 2.87s-10.486-1.15-13.266-2.87"/><path opacity=".25" fill="none" stroke="#fff" stroke-linecap="round" d="M9.072 55.535v17.56c0 3.495-4.444 7.162-4.444 12.23v42.638" class="B E"/><path opacity=".2" d="M12.956 149.94a31.72 31.72 0 0 0 3.702.231c1.294 0 2.52-.094 3.7-.23v-.424c-1.183.137-2.407.23-3.7.23s-2.52-.095-3.702-.23"/><path opacity=".12" fill="#fff" d="M12.956 161.006c1.183.137 2.408.23 3.702.23s2.52-.094 3.7-.23v-.425c-1.183.138-2.407.23-3.7.23s-2.52-.094-3.702-.23"/><path fill="none" stroke="#6b6b6b" d="M2.37-46.307c0 5.833.73 4.887.73 19.32" class="B"/><defs ><path id="B" d="M28.7 65.612c0-2.598-5.387-4.707-12.03-4.707s-12.032 2.11-12.032 4.707v-.427c0-2.598 5.387-4.706 12.03-4.706s12.03 2.108 12.03 4.706v.427z"/></defs></svg>