<?xml version="1.0" encoding="utf-8"?>
<!-- Generator: Adobe Illustrator 20.0.0, SVG Export Plug-In . SVG Version: 6.00 Build 0)  -->
<svg version="1.2" baseProfile="tiny" id="Layer_1" xmlns="http://www.w3.org/2000/svg" xmlns:xlink="http://www.w3.org/1999/xlink"
	 x="0px" y="0px" width="50.468px" height="45.354px" viewBox="0 0 50.468 45.354" xml:space="preserve">
<g>
	<path fill="#006E1E" d="M44.221,42.52c0-0.626,0.508-1.134,1.134-1.134v-3.402c-0.626,0-1.134-0.508-1.134-1.134
		s0.508-1.134,1.134-1.134v-3.402c-0.626,0-1.134-0.508-1.134-1.134s0.508-1.134,1.134-1.134v-3.402
		c-0.626,0-1.134-0.508-1.134-1.134c0-0.626,0.508-1.134,1.134-1.134v-3.402c-0.626,0-1.134-0.508-1.134-1.134
		s0.508-1.134,1.134-1.134v-3.402c-0.626,0-1.134-0.508-1.134-1.134s0.508-1.134,1.134-1.134V9.638
		c-0.626,0-1.134-0.508-1.134-1.134s0.508-1.134,1.134-1.134V3.969c-0.626,0-1.134-0.508-1.134-1.134s0.508-1.134,1.134-1.134V0H0
		v1.701c0.626,0,1.134,0.508,1.134,1.134S0.626,3.968,0,3.969V7.37c0.626,0,1.134,0.508,1.134,1.134S0.626,9.638,0,9.638v3.402
		c0.626,0,1.134,0.508,1.134,1.134S0.626,15.307,0,15.307v3.402c0.626,0,1.134,0.508,1.134,1.134S0.626,20.976,0,20.976v3.402
		c0.626,0,1.134,0.508,1.134,1.134c0,0.626-0.508,1.134-1.134,1.134v3.402c0.626,0,1.134,0.508,1.134,1.134S0.626,32.315,0,32.315
		v3.402c0.626,0,1.134,0.508,1.134,1.134S0.626,37.984,0,37.984v3.402c0.626,0,1.134,0.508,1.134,1.134S0.626,43.654,0,43.654v1.701
		h45.354v-1.701C44.728,43.653,44.221,43.146,44.221,42.52z M3.402,43.654c-0.626,0-1.134-0.508-1.134-1.134
		s0.508-1.134,1.134-1.134s1.134,0.508,1.134,1.134C4.535,43.146,4.028,43.654,3.402,43.654z M3.402,37.984
		c-0.626,0-1.134-0.508-1.134-1.134s0.508-1.134,1.134-1.134s1.134,0.508,1.134,1.134S4.028,37.984,3.402,37.984z M3.402,32.315
		c-0.626,0-1.134-0.508-1.134-1.134s0.508-1.134,1.134-1.134s1.134,0.508,1.134,1.134S4.028,32.315,3.402,32.315z M3.402,26.646
		c-0.626,0-1.134-0.508-1.134-1.134c0-0.626,0.508-1.134,1.134-1.134s1.134,0.508,1.134,1.134
		C4.535,26.138,4.028,26.646,3.402,26.646z M3.402,20.976c-0.626,0-1.134-0.508-1.134-1.134s0.508-1.134,1.134-1.134
		s1.134,0.508,1.134,1.134S4.028,20.976,3.402,20.976z M3.402,15.307c-0.626,0-1.134-0.508-1.134-1.134s0.508-1.134,1.134-1.134
		s1.134,0.508,1.134,1.134S4.028,15.307,3.402,15.307z M3.402,9.638c-0.626,0-1.134-0.508-1.134-1.134S2.776,7.37,3.402,7.37
		s1.134,0.508,1.134,1.134C4.535,9.13,4.028,9.638,3.402,9.638z M3.402,3.969c-0.626,0-1.134-0.508-1.134-1.134
		s0.508-1.134,1.134-1.134s1.134,0.508,1.134,1.134S4.028,3.969,3.402,3.969z M41.953,43.654c-0.626,0-1.134-0.508-1.134-1.134
		s0.508-1.134,1.134-1.134s1.134,0.508,1.134,1.134C43.087,43.146,42.579,43.654,41.953,43.654z M41.953,37.984
		c-0.626,0-1.134-0.508-1.134-1.134s0.508-1.134,1.134-1.134s1.134,0.508,1.134,1.134S42.579,37.984,41.953,37.984z M41.953,32.315
		c-0.626,0-1.134-0.508-1.134-1.134s0.508-1.134,1.134-1.134s1.134,0.508,1.134,1.134S42.579,32.315,41.953,32.315z M41.953,26.646
		c-0.626,0-1.134-0.508-1.134-1.134c0-0.626,0.508-1.134,1.134-1.134s1.134,0.508,1.134,1.134
		C43.087,26.138,42.579,26.646,41.953,26.646z M41.953,20.976c-0.626,0-1.134-0.508-1.134-1.134s0.508-1.134,1.134-1.134
		s1.134,0.508,1.134,1.134S42.579,20.976,41.953,20.976z M41.953,15.307c-0.626,0-1.134-0.508-1.134-1.134s0.508-1.134,1.134-1.134
		s1.134,0.508,1.134,1.134S42.579,15.307,41.953,15.307z M41.953,9.638c-0.626,0-1.134-0.508-1.134-1.134s0.508-1.134,1.134-1.134
		s1.134,0.508,1.134,1.134C43.087,9.13,42.579,9.638,41.953,9.638z M41.953,3.969c-0.626,0-1.134-0.508-1.134-1.134
		s0.508-1.134,1.134-1.134s1.134,0.508,1.134,1.134S42.579,3.969,41.953,3.969z"/>
	<g>
		<path fill="#E1C57A" d="M3.402,40.819H0v0.567c0.626,0,1.134,0.508,1.134,1.134S0.626,43.654,0,43.654v0.567h3.402
			c0.939,0,1.701-0.761,1.701-1.701C5.102,41.58,4.341,40.819,3.402,40.819z M3.402,43.654c-0.626,0-1.134-0.508-1.134-1.134
			s0.508-1.134,1.134-1.134s1.134,0.508,1.134,1.134C4.535,43.146,4.028,43.654,3.402,43.654z"/>
		<path fill="#E1C57A" d="M41.953,38.551h3.402v-0.567c-0.626,0-1.134-0.508-1.134-1.134s0.508-1.134,1.134-1.134V35.15h-3.402
			c-0.939,0-1.701,0.761-1.701,1.701S41.014,38.551,41.953,38.551z M41.953,35.717c0.626,0,1.134,0.508,1.134,1.134
			s-0.508,1.134-1.134,1.134s-1.134-0.508-1.134-1.134S41.327,35.717,41.953,35.717z"/>
		<path fill="#E1C57A" d="M3.402,23.811H0v0.567c0.626,0,1.134,0.508,1.134,1.134c0,0.626-0.508,1.134-1.134,1.134v0.567h3.402
			c0.939,0,1.701-0.761,1.701-1.701C5.102,24.573,4.341,23.811,3.402,23.811z M3.402,26.646c-0.626,0-1.134-0.508-1.134-1.134
			c0-0.626,0.508-1.134,1.134-1.134s1.134,0.508,1.134,1.134C4.535,26.138,4.028,26.646,3.402,26.646z"/>
		<path fill="#E1C57A" d="M41.953,32.882h3.402v-0.567c-0.626,0-1.134-0.508-1.134-1.134s0.508-1.134,1.134-1.134V29.48h-3.402
			c-0.939,0-1.701,0.761-1.701,1.701C40.252,32.121,41.014,32.882,41.953,32.882z M41.953,30.047c0.626,0,1.134,0.508,1.134,1.134
			s-0.508,1.134-1.134,1.134s-1.134-0.508-1.134-1.134S41.327,30.047,41.953,30.047z"/>
		<path fill="#E1C57A" d="M3.402,35.15H0v0.567c0.626,0,1.134,0.508,1.134,1.134S0.626,37.984,0,37.984v0.567h3.402
			c0.939,0,1.701-0.761,1.701-1.701S4.341,35.15,3.402,35.15z M3.402,37.984c-0.626,0-1.134-0.508-1.134-1.134
			s0.508-1.134,1.134-1.134s1.134,0.508,1.134,1.134S4.028,37.984,3.402,37.984z"/>
		<path fill="#E1C57A" d="M41.953,10.205h3.402V9.638c-0.626,0-1.134-0.508-1.134-1.134s0.508-1.134,1.134-1.134V6.803h-3.402
			c-0.939,0-1.701,0.761-1.701,1.701C40.252,9.443,41.014,10.205,41.953,10.205z M41.953,7.37c0.626,0,1.134,0.508,1.134,1.134
			s-0.508,1.134-1.134,1.134s-1.134-0.508-1.134-1.134S41.327,7.37,41.953,7.37z"/>
		<path fill="#E1C57A" d="M41.953,4.535h3.402V3.969c-0.626,0-1.134-0.508-1.134-1.134s0.508-1.134,1.134-1.134V1.134h-3.402
			c-0.939,0-1.701,0.761-1.701,1.701S41.014,4.535,41.953,4.535z M41.953,1.701c0.626,0,1.134,0.508,1.134,1.134
			s-0.508,1.134-1.134,1.134s-1.134-0.508-1.134-1.134S41.327,1.701,41.953,1.701z"/>
		<path fill="#E1C57A" d="M41.953,21.543h3.402v-0.567c-0.626,0-1.134-0.508-1.134-1.134s0.508-1.134,1.134-1.134v-0.567h-3.402
			c-0.939,0-1.701,0.761-1.701,1.701S41.014,21.543,41.953,21.543z M41.953,18.709c0.626,0,1.134,0.508,1.134,1.134
			s-0.508,1.134-1.134,1.134s-1.134-0.508-1.134-1.134S41.327,18.709,41.953,18.709z"/>
		<path fill="#E1C57A" d="M41.953,27.213h3.402v-0.567c-0.626,0-1.134-0.508-1.134-1.134c0-0.626,0.508-1.134,1.134-1.134v-0.567
			h-3.402c-0.939,0-1.701,0.761-1.701,1.701C40.252,26.451,41.014,27.213,41.953,27.213z M41.953,24.378
			c0.626,0,1.134,0.508,1.134,1.134c0,0.626-0.508,1.134-1.134,1.134s-1.134-0.508-1.134-1.134S41.327,24.378,41.953,24.378z"/>
		<path fill="#E1C57A" d="M41.953,15.874h3.402v-0.567c-0.626,0-1.134-0.508-1.134-1.134s0.508-1.134,1.134-1.134v-0.567h-3.402
			c-0.939,0-1.701,0.761-1.701,1.701S41.014,15.874,41.953,15.874z M41.953,13.039c0.626,0,1.134,0.508,1.134,1.134
			s-0.508,1.134-1.134,1.134s-1.134-0.508-1.134-1.134S41.327,13.039,41.953,13.039z"/>
		<path fill="#E1C57A" d="M3.402,29.48H0v0.567c0.626,0,1.134,0.508,1.134,1.134S0.626,32.315,0,32.315v0.567h3.402
			c0.939,0,1.701-0.761,1.701-1.701S4.341,29.48,3.402,29.48z M3.402,32.315c-0.626,0-1.134-0.508-1.134-1.134
			s0.508-1.134,1.134-1.134s1.134,0.508,1.134,1.134S4.028,32.315,3.402,32.315z"/>
		<path fill="#E1C57A" d="M3.402,1.134H0v0.567c0.626,0,1.134,0.508,1.134,1.134S0.626,3.969,0,3.969v0.567h3.402
			c0.939,0,1.701-0.761,1.701-1.701S4.341,1.134,3.402,1.134z M3.402,3.969c-0.626,0-1.134-0.508-1.134-1.134
			s0.508-1.134,1.134-1.134s1.134,0.508,1.134,1.134S4.028,3.969,3.402,3.969z"/>
		<path fill="#E1C57A" d="M3.402,12.472H0v0.567c0.626,0,1.134,0.508,1.134,1.134S0.626,15.307,0,15.307v0.567h3.402
			c0.939,0,1.701-0.761,1.701-1.701S4.341,12.472,3.402,12.472z M3.402,15.307c-0.626,0-1.134-0.508-1.134-1.134
			s0.508-1.134,1.134-1.134s1.134,0.508,1.134,1.134S4.028,15.307,3.402,15.307z"/>
		<path fill="#E1C57A" d="M44.221,42.52c0-0.626,0.508-1.134,1.134-1.134v-0.567h-3.402c-0.939,0-1.701,0.761-1.701,1.701
			c0,0.939,0.761,1.701,1.701,1.701h3.402v-0.567C44.728,43.654,44.221,43.146,44.221,42.52z M41.953,43.654
			c-0.626,0-1.134-0.508-1.134-1.134s0.508-1.134,1.134-1.134s1.134,0.508,1.134,1.134C43.087,43.146,42.579,43.654,41.953,43.654z"
			/>
		<path fill="#E1C57A" d="M3.402,6.803H0V7.37c0.626,0,1.134,0.508,1.134,1.134S0.626,9.638,0,9.638v0.567h3.402
			c0.939,0,1.701-0.761,1.701-1.701C5.102,7.565,4.341,6.803,3.402,6.803z M3.402,9.638c-0.626,0-1.134-0.508-1.134-1.134
			S2.776,7.37,3.402,7.37s1.134,0.508,1.134,1.134C4.535,9.13,4.028,9.638,3.402,9.638z"/>
		<path fill="#E1C57A" d="M3.402,18.142H0v0.567c0.626,0,1.134,0.508,1.134,1.134S0.626,20.976,0,20.976v0.567h3.402
			c0.939,0,1.701-0.761,1.701-1.701S4.341,18.142,3.402,18.142z M3.402,20.976c-0.626,0-1.134-0.508-1.134-1.134
			s0.508-1.134,1.134-1.134s1.134,0.508,1.134,1.134S4.028,20.976,3.402,20.976z"/>
	</g>
	<rect x="8.434" y="4.118" fill="#333333" width="17.008" height="17.008"/>
	<path fill="#DCDCDC" d="M35.031,10.938h-4.535c-0.313,0-0.567-0.254-0.567-0.567v-7.37c0-0.313,0.254-0.567,0.567-0.567h4.535
		c0.313,0,0.567,0.254,0.567,0.567v7.37C35.598,10.684,35.344,10.938,35.031,10.938z"/>
	<rect x="29.929" y="29.809" fill="#333333" width="5.669" height="4.252"/>
	<rect x="14.812" y="38.551" fill="#333333" width="4.252" height="5.669"/>
	<g>
		<path fill="#FFFFFF" d="M39.895,32.414v3.202c0.422-0.701,1.182-1.177,2.059-1.177h2.693v-0.85h-2.693
			C41.077,33.591,40.316,33.115,39.895,32.414z"/>
		<path fill="#FFFFFF" d="M39.895,38.084v3.202c0.422-0.701,1.182-1.176,2.059-1.176h2.693v-0.85h-2.693
			C41.077,39.26,40.316,38.785,39.895,38.084z"/>
		<path fill="#FFFFFF" d="M4.535,44.645h2.348V0.709H4.535c0.759,0.406,1.276,1.207,1.276,2.126c0,1.329-1.081,2.41-2.41,2.41H0.708
			v0.85h2.693c1.329,0,2.41,1.081,2.41,2.409c0,1.329-1.081,2.41-2.41,2.41H0.708v0.85h2.693c1.329,0,2.41,1.081,2.41,2.41
			c0,1.328-1.081,2.409-2.41,2.409H0.708v0.85h2.693c1.329,0,2.41,1.081,2.41,2.41s-1.081,2.41-2.41,2.41H0.708v0.85h2.693
			c1.329,0,2.41,1.081,2.41,2.409c0,1.329-1.081,2.41-2.41,2.41H0.708v0.85h2.693c1.329,0,2.41,1.081,2.41,2.41
			c0,1.328-1.081,2.409-2.41,2.409H0.708v0.85h2.693c1.329,0,2.41,1.081,2.41,2.41s-1.081,2.41-2.41,2.41H0.708v0.85h2.693
			c1.329,0,2.41,1.081,2.41,2.409C5.811,43.438,5.294,44.239,4.535,44.645z"/>
		<path fill="#FFFFFF" d="M39.895,15.406v3.202c0.422-0.701,1.182-1.177,2.059-1.177h2.693v-0.85h-2.693
			C41.077,16.583,40.316,16.108,39.895,15.406z"/>
		<path fill="#FFFFFF" d="M39.895,9.737v3.203c0.422-0.701,1.182-1.177,2.059-1.177h2.693v-0.85h-2.693
			C41.077,10.914,40.316,10.439,39.895,9.737z"/>
		<path fill="#FFFFFF" d="M41.953,5.245c-0.876,0-1.637-0.475-2.059-1.177V7.27c0.422-0.701,1.182-1.176,2.059-1.176h2.693v-0.85
			h-2.693V5.245z"/>
		<path fill="#FFFFFF" d="M39.895,26.745v3.203c0.422-0.701,1.182-1.177,2.059-1.177h2.693v-0.85h-2.693
			C41.077,27.922,40.316,27.447,39.895,26.745z"/>
		<path fill="#FFFFFF" d="M39.895,21.076v3.202c0.422-0.701,1.182-1.176,2.059-1.176h2.693v-0.85h-2.693
			C41.077,22.253,40.316,21.778,39.895,21.076z"/>
	</g>
	<circle fill="#646464" cx="23.174" cy="18.858" r="0.85"/>
</g>
</svg>
