<?xml version="1.0" encoding="utf-8"?>
<!-- Generator: Adobe Illustrator 21.1.0, SVG Export Plug-In . SVG Version: 6.00 Build 0)  -->
<svg version="1.1" id="Layer_1" xmlns="http://www.w3.org/2000/svg" xmlns:xlink="http://www.w3.org/1999/xlink" x="0px" y="0px"
	 width="23.528px" height="13.89px" viewBox="0 0 23.528 13.89" style="enable-background:new 0 0 23.528 13.89;"
	 xml:space="preserve">
<style type="text/css">
	.st0{fill:#333333;}
	.st1{fill:#DCDCDC;}
	.st2{fill:#F0F0F0;}
	.st3{fill:#B4B4B4;}
</style>
<g>
	<path class="st0" d="M11.197,9.354v3.969c-0.221,0.221-0.346,0.346-0.567,0.567H8.079c-0.221-0.221-0.346-0.346-0.567-0.567V9.354
		H11.197z"/>
	<path class="st1" d="M0.567,3.402h1.701v5.102H0.567C0.254,8.504,0,8.758,0,9.071s0.254,0.567,0.567,0.567h1.701h0.284h18.425
		h0.283h1.701c0.313,0,0.567-0.254,0.567-0.567s-0.254-0.567-0.567-0.567H21.26V3.402h1.701c0.313,0,0.567-0.254,0.567-0.567
		s-0.254-0.567-0.567-0.567H21.26h-0.283h-2.268V0l-1.134,0v2.268h-3.118V0l-1.134,0v2.268h-7.37V0L4.819,0v2.268H2.551H2.268H0.567
		C0.254,2.268,0,2.522,0,2.835S0.254,3.402,0.567,3.402z"/>
	
		<rect x="0.142" y="5.811" transform="matrix(8.983753e-11 -1 1 8.983753e-11 -3.5433 8.3622)" class="st2" width="4.535" height="0.283"/>
	
		<rect x="18.85" y="5.811" transform="matrix(8.983753e-11 -1 1 8.983753e-11 15.1653 27.0709)" class="st2" width="4.535" height="0.283"/>
	
		<rect x="17.575" y="1.984" transform="matrix(-1 -8.983804e-11 8.983804e-11 -1 36.2835 4.252)" class="st3" width="1.134" height="0.283"/>
	
		<rect x="13.323" y="1.984" transform="matrix(-1 -8.903601e-11 8.903601e-11 -1 27.7795 4.252)" class="st3" width="1.134" height="0.283"/>
	
		<rect x="4.819" y="1.984" transform="matrix(-1 -8.983804e-11 8.983804e-11 -1 10.7717 4.252)" class="st3" width="1.134" height="0.283"/>
	<path class="st0" d="M3.969,8.504v1.134H2.268V7.937h1.134C3.715,7.937,3.969,8.191,3.969,8.504z"/>
	<path class="st0" d="M3.969,2.268v1.134c0,0.313-0.254,0.567-0.567,0.567H2.268V2.268H3.969z"/>
	<path class="st0" d="M21.26,7.937v1.701h-1.701V8.504c0-0.313,0.254-0.567,0.567-0.567H21.26z"/>
	<path class="st0" d="M21.26,2.268v1.701h-1.134c-0.313,0-0.567-0.254-0.567-0.567V2.268H21.26z"/>
</g>
</svg>
