<?xml version="1.0" encoding="UTF-8" standalone="no"?>
<!-- Created with Inkscape (http://www.inkscape.org/) -->

<svg
   xmlns:dc="http://purl.org/dc/elements/1.1/"
   xmlns:cc="http://creativecommons.org/ns#"
   xmlns:rdf="http://www.w3.org/1999/02/22-rdf-syntax-ns#"
   xmlns:svg="http://www.w3.org/2000/svg"
   xmlns="http://www.w3.org/2000/svg"
   xmlns:sodipodi="http://sodipodi.sourceforge.net/DTD/sodipodi-0.dtd"
   xmlns:inkscape="http://www.inkscape.org/namespaces/inkscape"
   width="18.089024mm"
   height="13.519424mm"
   viewBox="0 0 18.089024 13.519424"
   version="1.1"
   id="svg15523"
   inkscape:version="0.92.2 (5c3e80d, 2017-08-06)"
   sodipodi:docname="rj45_18x13mm.svg">
  <defs
     id="defs15517" />
  <sodipodi:namedview
     id="base"
     pagecolor="#ffffff"
     bordercolor="#666666"
     borderopacity="1.0"
     inkscape:pageopacity="0.0"
     inkscape:pageshadow="2"
     inkscape:zoom="7.9195959"
     inkscape:cx="42.366681"
     inkscape:cy="23.613841"
     inkscape:document-units="mm"
     inkscape:current-layer="layer1"
     showgrid="false"
     fit-margin-top="0"
     fit-margin-left="0"
     fit-margin-right="0"
     fit-margin-bottom="0"
     inkscape:window-width="1680"
     inkscape:window-height="1028"
     inkscape:window-x="1672"
     inkscape:window-y="-8"
     inkscape:window-maximized="1" />
  <metadata
     id="metadata15520">
    <rdf:RDF>
      <cc:Work
         rdf:about="">
        <dc:format>image/svg+xml</dc:format>
        <dc:type
           rdf:resource="http://purl.org/dc/dcmitype/StillImage" />
        <dc:title></dc:title>
      </cc:Work>
    </rdf:RDF>
  </metadata>
  <g
     inkscape:label="Layer 1"
     inkscape:groupmode="layer"
     id="layer1"
     transform="translate(-87.717397,-176.84743)">
    <g
       id="_x30_.1.0.223"
       gorn="0.3.0.0.0.0.0.16"
       transform="matrix(-0.35277756,0,0,-0.35277756,174.48967,229.11813)">
      <g
         transform="translate(7.7428,14.064)"
         id="g651">
        <g
           id="g649">
          <g
             id="g647">
            <g
               id="_x30_.1.0.0.0.223.0"
               gorn="0.3.0.0.0.0.0.16.0.0.0">
              <g
                 id="_x30_.1.0.0.223.0"
                 gorn="0.3.0.0.0.0.0.16.0.0.0.0">
                <g
                   id="poe-rj45"
                   gorn="0.3.0.0.0.0.0.16.0.0.0.0.0">
                  <g
                     id="_x30_.1.0.223.0.0"
                     gorn="0.3.0.0.0.0.0.16.0.0.0.0.0.0">
                    <rect
                       x="192.347"
                       width="45.182999"
                       height="36.336102"
                       y="96.773201"
                       id="_x30_.1.0.223.0.0.0"
                       gorn="0.3.0.0.0.0.0.16.0.0.0.0.0.0.0"
                       style="fill:#1a1a1a" />
                    <g
                       id="_x30_.1.0.223.0.0.1"
                       gorn="0.3.0.0.0.0.0.16.0.0.0.0.0.0.1">
                      <path
                         d="m 237.626,105.77 c 0.324,0 0.6,0.27 0.6,0.604 v 2.195 c 0,0.332 -0.271,0.604 -0.6,0.604 h -7.84399 c -0.33,0 -0.602,-0.271 -0.602,-0.604 v -2.195 c 0,-0.334 0.27,-0.604 0.602,-0.604 z"
                         id="_x30_.1.0.223.0.0.1.0"
                         gorn="0.3.0.0.0.0.0.16.0.0.0.0.0.0.1.0"
                         inkscape:connector-curvature="0"
                         style="fill:#b3b3b3" />
                      <path
                         d="m 237.626,120.717 c 0.324,0 0.6,0.272 0.6,0.604 v 2.197 c 0,0.332 -0.271,0.604 -0.6,0.604 h -7.84399 c -0.33,0 -0.602,-0.271 -0.602,-0.604 v -2.197 c 0,-0.332 0.27,-0.604 0.602,-0.604 z"
                         id="_x30_.1.0.223.0.0.1.1"
                         gorn="0.3.0.0.0.0.0.16.0.0.0.0.0.0.1.1"
                         inkscape:connector-curvature="0"
                         style="fill:#b3b3b3" />
                      <path
                         d="m 229.782,105.77 h 0.973 v 3.40101 h -0.973 c -0.328,0 -0.6,-0.272 -0.6,-0.604 v -2.197 c 0.001,-0.333 0.27,-0.6 0.6,-0.6 v 0 z"
                         id="_x30_.1.0.223.0.0.1.2"
                         gorn="0.3.0.0.0.0.0.16.0.0.0.0.0.0.1.2"
                         inkscape:connector-curvature="0"
                         style="fill:#cccccc" />
                      <path
                         d="m 230.755,120.717 v 3.40101 h -0.975 c -0.328,0 -0.602,-0.272 -0.602,-0.603 v -2.197 c 0,-0.332 0.271,-0.604 0.602,-0.604 h 0.975 v 0.003 z"
                         id="_x30_.1.0.223.0.0.1.3"
                         gorn="0.3.0.0.0.0.0.16.0.0.0.0.0.0.1.3"
                         inkscape:connector-curvature="0"
                         style="fill:#cccccc" />
                      <rect
                         x="230.595"
                         width="3.3729999"
                         height="3.40101"
                         y="105.77"
                         id="_x30_.1.0.223.0.0.1.4"
                         gorn="0.3.0.0.0.0.0.16.0.0.0.0.0.0.1.4"
                         style="fill:#999999" />
                      <rect
                         x="230.595"
                         width="3.3729999"
                         height="3.40101"
                         y="120.717"
                         id="_x30_.1.0.223.0.0.1.5"
                         gorn="0.3.0.0.0.0.0.16.0.0.0.0.0.0.1.5"
                         style="fill:#999999" />
                      <rect
                         x="232.724"
                         width="3.217"
                         height="3.40101"
                         y="105.77"
                         id="_x30_.1.0.223.0.0.1.6"
                         gorn="0.3.0.0.0.0.0.16.0.0.0.0.0.0.1.6"
                         style="fill:#b3b3b3" />
                      <rect
                         x="232.724"
                         width="3.217"
                         height="3.40101"
                         y="120.717"
                         id="_x30_.1.0.223.0.0.1.7"
                         gorn="0.3.0.0.0.0.0.16.0.0.0.0.0.0.1.7"
                         style="fill:#b3b3b3" />
                      <rect
                         x="234.202"
                         width="1.221"
                         height="3.40101"
                         y="105.77"
                         id="_x30_.1.0.223.0.0.1.8"
                         gorn="0.3.0.0.0.0.0.16.0.0.0.0.0.0.1.8"
                         style="fill:#cccccc" />
                      <rect
                         x="234.202"
                         width="1.221"
                         height="3.40101"
                         y="120.717"
                         id="_x30_.1.0.223.0.0.1.9"
                         gorn="0.3.0.0.0.0.0.16.0.0.0.0.0.0.1.9"
                         style="fill:#cccccc" />
                      <rect
                         x="230.468"
                         width="0.25999999"
                         height="3.40101"
                         y="105.77"
                         id="_x30_.1.0.223.0.0.1.10"
                         gorn="0.3.0.0.0.0.0.16.0.0.0.0.0.0.1.10"
                         style="fill:#e6e6e6" />
                      <rect
                         x="230.013"
                         width="0.40599999"
                         height="3.4040101"
                         y="105.771"
                         id="_x30_.1.0.223.0.0.1.11"
                         gorn="0.3.0.0.0.0.0.16.0.0.0.0.0.0.1.11"
                         style="fill:#f2f2f2" />
                      <path
                         d="m 228.868,133.113 v -0.225 h 8.65999 v -0.359 -7.16201 -0.598 l -0.598,-0.041 v 0 l -4.236,-0.287 -4.234,-0.289 c -0.328,-0.025 -0.598,-0.311 -0.598,-0.641 v -2.183 c 0,-0.33 0.27,-0.617 0.598,-0.644 l 4.234,-0.289 4.236,-0.289 v 0 l 0.598,-0.041 v -0.60201 -9.06302 -0.6 l -0.598,-0.043 v 0 l -4.236,-0.275 -4.234,-0.281 c -0.326,-0.02 -0.598,-0.307 -0.598,-0.637 v -2.213 c 0,-0.332 0.271,-0.619 0.598,-0.646 l 4.234,-0.273 4.236,-0.279 0.598,-0.038 v -0.601 -7.162009 -0.362001 H 228.868 v -0.236 h -41.314 -0.604 v 0.601001 35.146099 0.603 h 0.604 41.314 v 0.009 0 z"
                         id="_x30_.1.0.223.0.0.1.12"
                         gorn="0.3.0.0.0.0.0.16.0.0.0.0.0.0.1.12"
                         inkscape:connector-curvature="0"
                         style="fill:#cccccc" />
                    </g>
                    <rect
                       x="186.95"
                       width="50.577999"
                       height="2.8889999"
                       y="96.773201"
                       id="_x30_.1.0.223.0.0.2"
                       gorn="0.3.0.0.0.0.0.16.0.0.0.0.0.0.2"
                       style="fill:#e6e6e6;fill-opacity:0.37000002" />
                    <rect
                       x="186.95"
                       width="50.577999"
                       height="2.8870101"
                       y="130.23"
                       id="_x30_.1.0.223.0.0.3"
                       gorn="0.3.0.0.0.0.0.16.0.0.0.0.0.0.3"
                       style="fill:#808080;fill-opacity:0.37000002" />
                    <path
                       d="m 229.183,107.467 c 0,0 0,-0.855 0,-1.097 0,-0.242 0.199,-0.604 0.603,-0.604 0.396,0 7.74399,0 7.74399,0 v 1.697 H 229.183 Z"
                       id="_x30_.1.0.223.0.0.4"
                       gorn="0.3.0.0.0.0.0.16.0.0.0.0.0.0.4"
                       inkscape:connector-curvature="0"
                       style="fill:#e6e6e6;fill-opacity:0.45" />
                    <path
                       d="m 237.528,122.412 h -8.34799 c 0,0 0,-0.854 0,-1.096 0,-0.242 0.201,-0.6 0.602,-0.6 0.396,0 7.74599,0 7.74599,0 z"
                       id="_x30_.1.0.223.0.0.5"
                       gorn="0.3.0.0.0.0.0.16.0.0.0.0.0.0.5"
                       inkscape:connector-curvature="0"
                       style="fill:#e6e6e6;fill-opacity:0.45" />
                    <path
                       d="m 229.183,122.417 c 0,0 0,0.854 0,1.097 0,0.241 0.199,0.604 0.603,0.604 0.396,0 7.74399,0 7.74399,0 v -1.703 H 229.183 Z"
                       id="_x30_.1.0.223.0.0.6"
                       gorn="0.3.0.0.0.0.0.16.0.0.0.0.0.0.6"
                       inkscape:connector-curvature="0"
                       style="fill:#b3b3b3;fill-opacity:0.45" />
                    <path
                       d="m 229.183,107.467 c 0,0 0,0.86 0,1.104 0,0.24 0.199,0.604 0.603,0.604 0.396,0 7.74399,0 7.74399,0 v -1.703 H 229.183 Z"
                       id="_x30_.1.0.223.0.0.7"
                       gorn="0.3.0.0.0.0.0.16.0.0.0.0.0.0.7"
                       inkscape:connector-curvature="0"
                       style="fill:#b3b3b3;fill-opacity:0.45" />
                    <g
                       id="_x30_.1.0.223.0.0.12"
                       gorn="0.3.0.0.0.0.0.16.0.0.0.0.0.0.8">
                      <g
                         id="_x30_.1.0.223.0.0.12.0"
                         gorn="0.3.0.0.0.0.0.16.0.0.0.0.0.0.8.0">
                        <rect
                           x="226.88"
                           width="1.408"
                           height="0.32200101"
                           y="95.7892"
                           id="_x30_.1.0.223.0.0.12.0.0"
                           gorn="0.3.0.0.0.0.0.16.0.0.0.0.0.0.8.0.0"
                           style="fill:#999999" />
                        <rect
                           x="226.88"
                           width="1.408"
                           height="0.32200101"
                           y="95.7892"
                           id="_x30_.1.0.223.0.0.12.0.1"
                           gorn="0.3.0.0.0.0.0.16.0.0.0.0.0.0.8.0.1"
                           style="fill:#999999" />
                      </g>
                      <path
                         d="m 233.806,96.7702 c -0.336,-0.117 -1.578,-0.330001 -1.578,-0.330001 0,0 -2.479,-0.543001 -3.936,-0.646001 v 0.324001 c 1.447,0.104 3.936,0.646001 3.936,0.646001 0,0 0.775,0.007 1.578,0.006 z"
                         id="_x30_.1.0.223.0.0.12.1"
                         gorn="0.3.0.0.0.0.0.16.0.0.0.0.0.0.8.1"
                         inkscape:connector-curvature="0"
                         style="fill:#999999" />
                      <path
                         d="m 232.405,96.7702 c -0.336,-0.117 -1.576,-0.330001 -1.576,-0.330001 0,0 -2.492,-0.555001 -3.945,-0.658001 v 0.328001 c 1.453,0.104 3.945,0.660001 3.945,0.660001 0,0 0.771,10e-4 1.576,0 z"
                         id="_x30_.1.0.223.0.0.12.2"
                         gorn="0.3.0.0.0.0.0.16.0.0.0.0.0.0.8.2"
                         inkscape:connector-curvature="0"
                         style="fill:#cccccc" />
                    </g>
                    <g
                       id="_x30_.1.0.223.0.0.13"
                       gorn="0.3.0.0.0.0.0.16.0.0.0.0.0.0.9">
                      <g
                         id="_x30_.1.0.223.0.0.13.0"
                         gorn="0.3.0.0.0.0.0.16.0.0.0.0.0.0.9.0">
                        <rect
                           x="226.88"
                           width="1.408"
                           height="0.32200101"
                           y="133.77499"
                           id="_x30_.1.0.223.0.0.13.0.0"
                           gorn="0.3.0.0.0.0.0.16.0.0.0.0.0.0.9.0.0"
                           style="fill:#999999" />
                        <rect
                           x="226.88"
                           width="1.408"
                           height="0.32200101"
                           y="133.77499"
                           id="_x30_.1.0.223.0.0.13.0.1"
                           gorn="0.3.0.0.0.0.0.16.0.0.0.0.0.0.9.0.1"
                           style="fill:#999999" />
                      </g>
                      <path
                         d="m 233.806,133.117 c -0.336,0.119 -1.578,0.328 -1.578,0.328 0,0 -2.479,0.547 -3.936,0.648 v -0.328 c 1.447,-0.105 3.936,-0.648 3.936,-0.648 0,0 0.775,0 1.578,0 z"
                         id="_x30_.1.0.223.0.0.13.1"
                         gorn="0.3.0.0.0.0.0.16.0.0.0.0.0.0.9.1"
                         inkscape:connector-curvature="0"
                         style="fill:#999999" />
                      <path
                         d="m 232.405,133.117 c -0.336,0.119 -1.576,0.328 -1.576,0.328 0,0 -2.492,0.557 -3.945,0.66 v -0.33 c 1.453,-0.102 3.945,-0.658 3.945,-0.658 0,0 0.771,0 1.576,0 z"
                         id="_x30_.1.0.223.0.0.13.2"
                         gorn="0.3.0.0.0.0.0.16.0.0.0.0.0.0.9.2"
                         inkscape:connector-curvature="0"
                         style="fill:#cccccc" />
                    </g>
                  </g>
                </g>
              </g>
            </g>
          </g>
        </g>
      </g>
    </g>
  </g>
</svg>
