<svg xmlns="http://www.w3.org/2000/svg" width="68" height="118" viewBox="0 0 50.609 88.136"><g fill="#919191"><path d="M16.925 84.986h2.14v3.147h-2.14zm14.42 0h2.16v3.146h-2.16z"/><path d="M31.344 87.734h2.16v.4h-2.16z"/></g><path d="M16.777 79.895h2.994v8.24h-2.994zm14.386 0h2.994v8.24h-2.994z" fill="#8b8b8b"/><path d="M18.268 69.534v10.36m14.427-10.36v10.36" fill="none" stroke="#000" stroke-width="3"/><path fill="#262626" d="M41.816 64.894c-8.48 10.74-24.245 10.74-32.726 0l.325-57.6c8.312 10.528 23.763 10.526 32.076 0l.325 57.6z"/><path opacity=".63" d="M16.872 71.087c-3.463-1.594-5.098-2.813-7.63-6.104l.323-57.505c2.48 3.226 4.083 4.42 7.478 5.982l-.17 57.627z"/><path fill="#8b8b8b" d="M41.538 65.263l-.517.638-.308-57.522a16.1 16.1 0 0 0 .505-.622l.32 57.506z"/><path fill="#141414" d="M3.067 16.052H47.6c-.01.04-.025.075-.053.104s-.06.055-.102.074-.094.033-.148.043a1.25 1.25 0 0 1-.191.014H3.54c-.067 0-.13-.005-.183-.014s-.104-.024-.144-.043-.072-.045-.1-.074-.04-.063-.048-.104"/><path fill="#131313" d="M47.64 15.822l-.05.23H3.067l-.053-.23z"/><path fill="#535353" d="M38.057 3.896h-26.21l-.002-.002-.001-.003-.004-.006 26.218.01"/><path fill="#4b4b4b" d="M38.063 3.885H11.84l-.002-.002-.001-.003-.004-.008 26.23.013"/><path fill="#404040" d="M38.07 3.872h-26.24l-.003-.003-.001-.004-.002-.002-.002-.004 26.247.013"/><path fill="#262626" d="M38.08 3.86H11.824l-.002-.005-.003-.003-.001-.004-.003-.003 26.266.01v.005"/><path fill="#252525" d="M38.087 3.844H11.815l-.006-.01-.002-.004 26.28.013"/><g fill="#242424"><path d="M38.095 3.83H11.807l-.002-.003-.003-.004v-.002l-.003-.004 26.296.013"/><path d="M38.102 3.818H11.8l-.001-.005-.003-.003-.002-.003-.001-.004 26.312.01-.002.005"/></g><path fill="#232323" d="M38.11 3.803H11.792L11.8 3.8l-.002-.004-.004-.006 26.325.012"/><path fill="#222" d="M38.116 3.79H11.784l-.003-.004v-.003l-.003-.003-.002-.003 26.34.013"/><g fill="#212121"><path d="M38.126 3.778h-26.35l-.006-.012-.002-.002 26.36.01-.002.004"/><path d="M38.134 3.764H11.767l-.004-.004-.002-.005V3.75l-.002-.005 26.38.01-.002.005-.001.004"/></g><path fill="#202020" d="M38.142 3.746H11.757l-.003-.005-.004-.005-.003-.005-.002-.007 26.403.012-.006.01"/><path fill="#1f1f1f" d="M38.156 3.724h-26.41l-.004-.005-.004-.003-.002-.005-.004-.005 26.427.013-.002.005"/><g fill="#1e1e1e"><path d="M38.167 3.706H11.73V3.7l-.005-.005-.002-.005-.003-.007 26.454.012-.006.01"/><path d="M38.177 3.684H11.72l-.002-.005-.004-.003-.002-.005-.004-.004 26.473.012-.003.005"/></g><path fill="#1d1d1d" d="M38.19 3.667H11.707l-.003-.006-.003-.005-.003-.004-.003-.006 26.5.01-.003.005-.004.006"/><path fill="#1c1c1c" d="M38.2 3.646H11.695l-.008-.012-.003-.006-.005-.006 26.53.012-.008.012"/><g fill="#1b1b1b"><path d="M38.217 3.622H11.68l-.005-.01-.006-.01-.006-.008-.006-.01 26.577.01-.006.008-.006.01-.004.01"/><path d="M38.24 3.585H11.656l-.005-.01-.007-.01-.006-.01-.005-.007 26.622.007-.006.01-.004.01-.006.01"/></g><path fill="#1a1a1a" d="M38.26 3.55H11.633l-.007-.01-.005-.01-.007-.01-.006-.01 26.67.01-.007.01-.005.01-.007.01"/><path fill="#191919" d="M38.284 3.5H11.608c-.016-.02-.02-.027-.023-.034l-.02-.03h26.758c-.012.02-.017.026-.02.03s-.01.012-.012.018"/><g fill="#181818"><path d="M38.323 3.448H11.566c-.004-.007-.01-.014-.015-.02s-.008-.013-.013-.018l-.013-.02c-.005-.006-.01-.012-.014-.02H38.37c-.004.006-.007.012-.013.02s-.007.013-.013.02-.01.012-.012.018-.003.014-.008.02"/><path d="M38.373 3.375h-26.86l-.02-.027c-.006-.01-.014-.018-.02-.026s-.013-.02-.02-.025-.013-.017-.02-.025h27c-.006.01-.01.018-.02.025s-.013.017-.02.025-.012.018-.02.026c0 .008-.006.017-.013.027"/></g><path fill="#171717" d="M38.446 3.27h-27l-.033-.042-.032-.04-.03-.035a.28.28 0 0 1-.028-.034h27.252c-.01.01-.02.02-.028.034s-.02.022-.03.035l-.028.04c-.013.014-.022.03-.034.042"/><path fill="#161616" d="M38.565 3.12H11.313l-.06-.062L11.2 3l-.05-.035c-.017-.01-.03-.017-.043-.02h27.648c-.014.005-.025.013-.042.02L38.67 3l-.052.048-.053.062"/><path fill="#151515" d="M38.76 2.956H11.1l-.012-.005-.01-.003-.02-.002 27.692.01"/><path fill="#212121" d="M38.057 3.896l6.472 9.28H5.963l1.052-1.66 1.468-2.313 3.365-5.307 26.21-.001z"/><path fill="#535353" d="M11.846 3.896l-5.893 9.286 5.89-9.287.002.001"/><path fill="#4b4b4b" d="M11.843 3.89L5.94 13.2l5.9-9.303.002.004"/><path fill="#404040" d="M11.84 3.885l-5.912 9.312 5.91-9.317.002.004.001.001"/><path fill="#262626" d="M11.835 3.88l-5.92 9.323 5.916-9.328.002.003.001.002"/><path fill="#252525" d="M11.83 3.872L5.904 13.2l5.925-9.34h.002"/><path d="M11.828 3.865l-5.934 9.35-.004.002 5.935-9.356v.002l.002.001.001.001m-.004-.005l-5.942 9.36-.003.002 5.942-9.37.003.006" fill="#242424"/><path fill="#232323" d="M11.82 3.85l-5.953 9.38 5.95-9.384.002.004"/><path fill="#222" d="M11.815 3.844l-5.96 9.394 5.96-9.396.002.002"/><path d="M11.8 3.84l-5.97 9.405 5.97-9.395m-.002-.018L5.83 13.25l5.975-9.422h.002" fill="#212121"/><path fill="#202020" d="M11.803 3.825l-5.986 9.433 5.985-9.435.001.002"/><path fill="#1f1f1f" d="M11.8 3.82l-5.994 9.442-.003.002 5.994-9.45v.003l.001.002v.002"/><path d="M11.797 3.812l-6.004 9.46 6.002-9.463.002.004m-.004-.008L5.78 13.28l6-9.477.002.003" fill="#1e1e1e"/><path fill="#1d1d1d" d="M11.79 3.8l-6.022 9.485 6.02-9.5.001.003.001.002"/><path fill="#1c1c1c" d="M11.785 3.793l-6.03 9.5 6.027-9.503h.001l.002.002"/><path d="M11.78 3.787L5.744 13.3l6.034-9.517.003.003v.002m-.004-.008L5.73 13.305l6.044-9.528.001.002" fill="#1b1b1b"/><path fill="#1a1a1a" d="M11.774 3.774L5.72 13.312 11.77 3.77l.002.003"/><path fill="#191919" d="M11.77 3.767L5.706 13.32l6.06-9.556.001.001.001.002"/><path d="M11.765 3.76l-6.07 9.566-.01.006-.022.012 6.1-9.605.004.005.003.007.003.005.003.004m-.014-.02l-6.114 9.618-.013.007-.01.007 6.122-9.658.005.004.005.006.002.007.004.007" fill="#181818"/><path fill="#171717" d="M11.736 3.715L5.602 13.38l-.013.006-.01.008-.012.007L11.72 3.7l.003.006.005.006.004.006.003.007"/><path fill="#161616" d="M11.72 3.7l-6.17 9.718-.01.007-.012.007-.013.007 6.2-9.763.004.006.004.005.004.006V3.7"/><path d="M11.707 3.666l-6.2 9.77-.012.008-.013.007-.012.007 6.223-9.817.003.007.005.006.003.005.004.007m-.016-.026l-6.224 9.816-.036.02c-.012.01-.024.016-.035.022l-.037.02a.29.29 0 0 1-.036.022l6.323-9.973c.004.006.007.012.012.018s.007.012.012.02.006.012.01.018" fill="#151515"/><path fill="#141414" d="M11.647 3.572l-6.323 9.973-.736.484-.624.48c-.187.157-.35.312-.486.456a2.79 2.79 0 0 0-.326.405l.384-.606.387-.607.388-.6.39-.614.783-1.23.785-1.238.395-.622 4.352-6.863c.02-.03.05-.04.087-.03s.085.042.142.092a1.91 1.91 0 0 1 .186.208l.217.32"/><path fill="#535353" d="M44.528 13.177L38.056 3.9l.012-.018 6.524 9.33-.033-.017c-.008-.002-.013-.007-.018-.01"/><path fill="#4b4b4b" d="M44.59 13.21l-6.516-9.346.013-.022c.01-.014.01-.017.012-.02l6.574 9.43-.02-.012c-.007-.003-.014-.007-.02-.01s-.016-.007-.02-.012c-.006 0-.014-.003-.02-.007"/><path fill="#404040" d="M44.674 13.254L38.1 3.823c.01-.014.01-.018.012-.022l.014-.02 6.632 9.515c-.008-.003-.014-.007-.02-.01s-.016-.007-.02-.01l-.02-.01c-.01-.003-.017-.005-.023-.01"/><path fill="#262626" d="M44.756 13.297l-6.633-9.515.013-.024 6.684 9.572c-.007-.002-.013-.006-.018-.01l-.033-.018"/><path fill="#252525" d="M44.818 13.33l-6.68-9.58.003-.004.003-.005.002-.005.003-.006 6.698 9.616-.01-.005-.01-.005-.01-.006"/><g fill="#242424"><path d="M44.86 13.352l-6.71-9.62.004-.006.004-.005.006-.008L44.9 13.37l-.01-.006-.01-.005-.01-.007"/><path d="M44.9 13.376l-6.736-9.664.002-.005.006-.01.002-.005 6.756 9.7-.01-.006-.02-.01"/></g><path fill="#232323" d="M44.94 13.398l-6.767-9.706.002-.006.003-.005.006-.008 6.787 9.742-.01-.006-.012-.005-.01-.006"/><path fill="#222" d="M44.98 13.42l-6.795-9.748.006-.01.003-.004.004-.005 6.814 9.783-.01-.006-.012-.004-.01-.006"/><g fill="#212121"><path d="M45.02 13.444l-6.817-9.8.002-.006.004-.003 6.843 9.826-.01-.006-.01-.006-.012-.005"/><path d="M45.062 13.467l-6.854-9.832.016-.024 6.908 9.895-.018-.01-.02-.01c-.006-.003-.013-.008-.02-.01"/></g><path fill="#202020" d="M45.132 13.506L38.23 3.602l.016-.024 6.96 9.97-.017-.01c-.007-.003-.014-.006-.02-.01s-.012-.008-.017-.012"/><path fill="#1f1f1f" d="M45.2 13.547L38.247 3.57l.015-.024 7.012 10.04c-.008-.003-.013-.006-.02-.01s-.01-.007-.018-.01l-.018-.012"/><g fill="#1e1e1e"><path d="M45.272 13.587L38.267 3.54l.013-.02.01-.02 7.065 10.135c-.008-.004-.015-.01-.02-.013s-.015-.008-.02-.013-.015-.01-.02-.014-.015-.005-.02-.01"/><path d="M45.354 13.636L38.29 3.5l.018-.027.018-.026 7.147 10.255-.026-.02c-.01-.006-.02-.012-.03-.018s-.02-.012-.03-.018c-.012.001-.022-.006-.034-.012"/></g><path fill="#1d1d1d" d="M45.47 13.708L38.323 3.453c.01-.02.015-.023.02-.03l.018-.026 7.24 10.386-.03-.02c-.012-.006-.02-.013-.03-.02l-.03-.02c-.013-.004-.024-.01-.037-.015"/><path fill="#1c1c1c" d="M45.597 13.785L38.358 3.4c.004-.007.01-.013.013-.02l.013-.018.014-.02c.004-.005.007-.01.01-.017l7.368 10.568-.043-.027c-.017-.01-.03-.02-.045-.027l-.044-.028-.048-.027"/><g fill="#1b1b1b"><path d="M45.773 13.896L38.405 3.328c.005-.008.012-.016.017-.023l.017-.02c.005-.007.01-.016.017-.02s.012-.014.017-.02l7.535 10.8-.057-.04-.06-.038-.12-.08"/><path d="M46.005 14.05L38.47 3.24l.022-.03.02-.028c.01-.01.018-.02.022-.027s.015-.018.02-.025l7.774 11.15-.08-.058-.08-.058-.083-.057-.08-.057"/></g><path fill="#1a1a1a" d="M46.33 14.28L38.556 3.13c.013-.013.022-.025.032-.036s.022-.023.032-.034.02-.02.028-.027l.027-.025 8.104 11.624-.105-.087-.11-.088-.115-.088-.12-.09"/><path fill="#191919" d="M46.78 14.63L38.677 3.008l.04-.032c.015-.01.025-.016.037-.02s.023-.008.035-.01.02 0 .028.002l8.517 12.218-.116-.127-.13-.133-.146-.137-.163-.137"/><path fill="#181818" d="M47.336 15.168L38.82 2.95c.012.005.014.007.018.01.01.01.015.012.016.016l.435.623.435.624 1.745 2.498.432.624 3.9 5.574.852 1.22.847 1.2c-.013-.015-.02-.03-.033-.044l-.034-.045c-.012-.015-.022-.03-.037-.046a.28.28 0 0 1-.049-.046"/><g fill="#262626"><path d="M5.963 13.177l38.573.005H5.954l.003-.002h.001l.003-.002h.002"/><path d="M5.954 13.182l38.594.006H5.943l.003-.002.003-.001v-.002l.003-.001"/><path d="M5.943 13.188l38.618.007H5.93l.003-.002.003-.001.006-.004"/><path d="M5.93 13.195l38.643.006H5.92h.003l.003-.002.006-.003"/><path d="M5.92 13.2l38.666.007H5.908l.004-.002.001-.002.006-.003m-.01.008l38.7.006h-38.7l.006-.004.003-.001.002-.001m-.012.006l38.713.005H5.887l.003-.002.004-.002.003-.001m-.012.006l38.736.006H5.874l.002-.001.003-.002.006-.003"/><path d="M5.874 13.225l38.76.007H5.862l.003-.001h.004v-.002l.003-.002"/><path d="M5.862 13.232l38.784.008H5.85l.004-.002.003-.002.004-.002.002-.002"/><path d="M5.85 13.24l38.808.005H5.84l.003-.002.002-.001.003-.002h.002"/><path d="M5.84 13.245l38.832.007H5.828l.002-.002h.004l.003-.002.002-.002"/><path d="M5.828 13.252l38.854.006H5.816l.004-.001.003-.001.003-.002.002-.002"/><path d="M5.816 13.258l38.876.005H5.804l.003-.002h.004.002l.003-.002"/><path d="M5.804 13.263l38.902.007H5.794l.006-.004.002-.001.002-.002"/><path d="M5.794 13.27l38.924.007H5.783l.003-.002.002-.002.003-.002h.003"/><path d="M5.783 13.277l38.946.006H5.77l.002-.001.004-.001h.002l.004-.002"/><path d="M5.77 13.283l38.97.006H5.762l.002-.002.003-.002.004-.002m-.01.007l38.995.008H5.75v-.002l.003-.002.003-.001.003-.003"/><path d="M5.75 13.297l39.016.005H5.737l.006-.003.006-.002"/><path d="M5.737 13.302l39.04.006H5.726l.002-.002.004-.001.002-.002.003-.001"/><path d="M5.726 13.308l39.064.007H5.714l.004-.002.001-.002h.003l.004-.001"/><path d="M5.714 13.315l39.095.012H5.694l.005-.004.005-.002H5.7l.004-.004"/><path d="M5.694 13.327l39.147.016.032.017H5.636c.02-.01.025-.013.03-.017l.03-.016"/><path d="M5.636 13.36l39.265.016.03.015H5.58l.03-.016.025-.015"/><path d="M5.58 13.4l39.38.018c.023.01.028.012.032.016H5.525l.03-.016.027-.018m-.057.035l39.494.018c.022.01.027.013.03.017H5.47l.03-.017a.08.08 0 0 1 .026-.018"/><path d="M5.47 13.458h39.577l1.084.678c.325.228.61.452.843.663s.41.4.528.583.166.323.14.44H3.014c-.023-.116.023-.267.132-.44s.276-.372.498-.583.49-.436.798-.663.654-.458 1.027-.678"/></g><path fill="#aa1010" d="M9.974 8.577h30.753v4.092H9.974z"/><g fill="#8c0000"><path d="M9.892 9.09h30.88c-.007.028-.02.052-.037.072a.22.22 0 0 1-.07.052c-.03.014-.063.023-.103.03s-.085.01-.134.01H10.22c-.046 0-.1-.003-.127-.01s-.07-.017-.1-.03-.05-.03-.07-.052-.027-.045-.032-.072"/><path d="M40.805 8.93l-.034.162H9.892l-.037-.162z"/></g><g fill="#dd2020"><path d="M34.16.66H15.98V.658l-.003-.003-.002-.003L34.16.66"/><path d="M34.163.652h-18.19l-.002-.004-.001-.004V.64l18.195.01-.002.002"/><path d="M34.17.64h-18.2l-.002-.004-.003-.003L34.17.64"/><path d="M34.175.634h-18.2L15.964.63h-.003V.626l-.002-.002L34.176.63l-.001.003"/><path d="M34.18.624H15.958L15.957.62h-.001l-.002-.003V.614l18.226.01m.005-.01h-18.23l-.002-.002L15.95.6V.608l-.002-.004 18.24.008-.002.002"/><path d="M34.2.604H15.948L15.947.6h-.002l-.001-.002-.001-.003L34.192.6 34.2.604"/><path d="M34.195.594H15.943L15.94.593V.6l-.002-.004 18.258.008M34.2.586H15.937l-.002-.002-.001-.002-.002-.003-.002-.002 18.27.01"/><path d="M34.207.577H15.93l-.002-.003V.572l-.002-.004 18.28.01"/><path d="M34.213.568H15.926l-.003-.003-.001-.005-.004-.006L34.215.56l-.001.005-.001.003m.007-.014h-18.3l-.002-.002-.002-.004-.002-.003L15.9.54l18.312.007-.003.006"/><path d="M34.227.54H15.9l-.002-.004-.003-.003-.002-.003L15.9.527l18.33.007v.003l-.002.004"/><path d="M34.235.527H15.9V.524L15.896.52l-.002-.004-.002-.003L34.24.52l-.002.005-.002.003m.007-.016h-18.35L15.9.5l-.003-.004-.001-.003-.012.007 18.363.006-.002.004-.002.002"/><path d="M34.25.5H15.884l-.002-.004-.002-.003-.003.007-.002-.003 18.38.01L34.25.5m.01-.013H15.875l-.003-.005-.002-.006-.002-.004-.003-.003 18.4.007-.003.006v.005"/><path d="M34.27.47H15.865L15.86.462l-.005-.006-.004-.007-.005-.005L34.28.45l-.004.007-.004.006-.004.007"/><path d="M34.286.444h-18.44l-.003-.008L15.84.43l-.004-.005-.004-.006 18.465.006-.005.005-.003.006-.003.008"/><path d="M34.3.42H15.832L15.828.4l-.004-.006L15.82.4h-.005l18.492.016L34.3.42m.016-.03h-18.5L15.8.37l-.015-.022h18.56L34.33.37l-.014.02m.028-.043H15.786l-.018-.025-.018-.026h18.627l-.018.026-.015.025"/><path d="M34.378.298H15.75c-.005-.006-.01-.013-.013-.02s-.01-.014-.015-.02L15.71.24l-.013-.02h18.732c-.004.005-.008.013-.012.02l-.014.018-.014.02c-.001.006-.005.012-.01.02"/><path d="M34.43.224H15.696c-.007-.01-.015-.02-.023-.028s-.014-.02-.02-.027-.015-.016-.02-.024l-.02-.022h18.9c-.008.007-.014.015-.02.022l-.02.024-.02.027c-.007.01-.01.02-.02.028M34.5.12H15.6l-.04-.04-.036-.034L15.5.02c-.01-.006-.02-.012-.03-.016h19.177c-.01.004-.02.01-.028.016l-.03.024c-.013.01-.022.02-.036.034l-.04.043"/><path d="M34.645.007H15.47l-.007-.003-.008-.002L15.44 0l19.205.007"/></g><path fill="#cc1414" d="M34.16.66l4.487 6.436H11.9L15.98.66h18.18z"/><g fill="#aa1010"><path d="M15.98.66L11.893 7.1 15.978.657l.002.002h0"/><path d="M15.978.657l-4.093 6.447 4.1-6.45.001.001.001.002m-.003-.005l-4.1 6.458L15.972.648l.001.002h.001M15.97.646l-4.104 6.468L15.97.643v.003"/><path d="M15.97.64l-4.1 6.478 4.1-6.48m-.002-.001l-4.116 6.485-.003.002 4.116-6.5.002.001.001.001"/><path d="M15.965.634l-4.123 6.494L15.964.63h0l.001.002M15.962.63l-4.13 6.504L15.96.626v.001.002m-.003-.005l-4.134 6.513L15.957.62h.001v.002M15.956.62l-4.14 6.52L15.954.616l.002.002V.62m-.002-.005L11.8 7.145l-.003.001 4.156-6.54"/><path d="M15.95.6L11.8 7.152 15.95.608V.61.6"/><path d="M15.95.606l-4.16 6.55 4.16-6.55M15.946.6l-4.164 6.562L15.946.6m-.003-.005l-4.17 6.57L15.94.594h.002v.001"/><path d="M15.94.592l-4.177 6.58L15.94.592m-.002-.004l-4.182 6.588L15.938.578"/><path d="M15.935.584L11.748 7.18l4.184-6.6.002.002h.001v.002"/><path d="M15.932.58L11.74 7.184 15.93.577l.002.002"/><path d="M15.93.574L11.73 7.2l4.2-6.626M15.927.57L11.72 7.195 15.927.57m-.002-.003L11.714 7.2l-.007.005-.008.004-.007.005 4.225-6.66.003.004.002.004.003.005"/><path d="M15.915.55l-4.233 6.668-.007.003-.01.005-.007.006 4.246-6.7.004.004.003.004.002.005.002.004"/><path d="M15.904.533L11.65 7.237l-.01.004-.007.006-.008.004 4.27-6.736.005.01.003.004.002.004m-.01-.018l-4.278 6.742-.008.003-.018.01L15.884.5l.002.005.003.004.003.003.002.004"/><path d="M15.884.5l-4.3 6.777-.008.005-.018.01L15.873.483l.002.004.01.012"/><path d="M15.873.483L11.557 7.3l-.024.015c-.007.005-.02.01-.025.016s-.017.01-.024.015l-.025.015L15.845.435l.017.026a.14.14 0 0 1 .011.022m-.03-.05L11.457 7.35l-.5.336-.434.335a4.1 4.1 0 0 0-.338.316c-.095.1-.17.194-.226.28l.266-.42.27-.422.54-.85.54-.855.27-.43.272-.43.817-1.295.548-.865.274-.434L15.4.017c.013-.02.033-.028.06-.02s.06.03.098.064a1.28 1.28 0 0 1 .13.145l.163.225"/></g><g fill="#dd2020"><path d="M38.647 7.095L34.16.66l.01-.02 4.523 6.477-.046-.023"/><path d="M38.7 7.12L34.17.638l.014-.02 4.564 6.534-.03-.017c-.018-.01-.023-.012-.03-.014m.06.03L34.188.6h.012l4.605 6.592-.028-.016-.03-.014m.057.026l-4.6-6.6.012-.022 4.632 6.646-.023-.012c-.014-.01-.018-.01-.02-.013"/><path d="M38.848 7.203L34.22.552l.002-.004.002-.003 4.645 6.67-.008-.005-.006-.004-.007-.003"/><path d="M38.877 7.218L34.224.545l.002-.004.003-.003V.534.53l4.665 6.698-.008-.004-.007-.004-.006-.003m.03.016l-4.668-6.7.002-.005V.516l4.687 6.73-.008-.005-.007-.003-.007-.004m.028.016L34.244.5l.002-.002.002-.004 4.707 6.756-.007-.003-.016-.008"/><path d="M38.96 7.264L34.248.504l.006-.01.003-.004 4.726 6.786-.007-.004-.007-.005-.008-.004m.03.017L34.26.48l.003-.004 4.753 6.82L39 7.293l-.006-.004-.007-.004-.008-.004"/><path d="M39.017 7.297L34.263.478l.014-.022 4.8 6.87-.027-.015c-.013-.01-.018-.012-.022-.014m.048.027l-4.8-6.87.014-.02 4.824 6.92-.026-.013-.023-.016m.05.025L34.3.432l.014-.02 4.858 6.968-.027-.014-.022-.014m.05.028L34.305.412l.014-.02 4.903 7.023-.03-.018-.03-.016"/><path d="M39.22 7.415l-4.9-7.03.012-.018.012-.02 4.958 7.113-.02-.013c-.008-.004-.015-.008-.02-.013l-.02-.013c-.007.001-.014-.003-.022-.007"/><path d="M39.3 7.464L34.344.35l.013-.02.013-.018 5.02 7.202-.02-.014-.02-.013c-.008-.004-.014-.01-.02-.014s-.02-.006-.027-.01"/><path d="M39.39 7.517L34.368.315c.01-.02.015-.022.017-.026.013-.016.015-.022.018-.026l5.11 7.33c-.01-.006-.02-.014-.03-.02s-.02-.013-.03-.02-.02-.013-.03-.02-.023-.01-.033-.016"/><path d="M39.5 7.594L34.4.263l.023-.03c.004-.006.008-.01.013-.016L39.675 7.7c-.013-.01-.024-.02-.04-.027s-.025-.018-.04-.025a.28.28 0 0 0-.04-.027c-.018-.007-.033-.017-.046-.026"/><path d="M39.67 7.7L34.445.204c.006-.007.01-.014.016-.02l.016-.02c.006-.007.01-.013.016-.02s.01-.012.014-.018L39.9 7.858l-.112-.08-.058-.04c-.02-.01-.04-.023-.06-.037"/><path d="M39.897 7.86L34.504.128l.022-.024.02-.022c.006-.007.014-.014.02-.02s.013-.012.02-.017l5.62 8.062-.072-.062-.077-.062-.08-.062-.082-.06m.313.242L34.6.043c.01-.01.02-.016.028-.022s.018-.01.026-.014.016-.005.023-.007.013 0 .02.001l5.906 8.474-.08-.088-.1-.092-.102-.094-.112-.098"/><path d="M40.594 8.475L35.013.452l.303.432.302.434 5.062 7.26c-.007-.012-.015-.02-.022-.03l-.025-.032c-.02-.018-.03-.027-.04-.04"/></g><g fill="#aa1010"><path d="M11.9 7.095l26.753.004h-26.76l.002-.001.002-.002.002-.001m-.005.005l26.767.004H11.885l.004-.002h.005"/><path d="M11.885 7.103l26.786.005H11.878l.004-.002.003-.003"/><path d="M11.878 7.108l26.8.005H11.87v-.001l.003-.002.004-.002"/><path d="M11.87 7.113l26.816.004H11.862l.003-.001.003-.002.002-.001"/><path d="M11.862 7.117l26.833.004h-26.84.001l.006-.003"/><path d="M11.855 7.12l26.85.005h-26.86l.004-.002.003-.002h.003m-.01.006l26.867.004H11.838l.006-.003.001-.001"/><path d="M11.838 7.13l26.882.004h-26.9l.008-.004"/><path d="M11.83 7.134l26.9.004H11.822l.002-.001.002-.002h.003"/><path d="M11.822 7.138l26.915.004H11.814l.008-.004"/><path d="M11.814 7.142l26.932.006h-26.94l.001-.002.003-.001.003-.002"/><path d="M11.806 7.148l26.95.004H11.798l.003-.001h.003l.002-.001"/><path d="M11.798 7.152l26.962.004H11.8l.002-.001h.002l.002-.001.002-.002"/><path d="M11.8 7.156l26.98.005H11.783h.002l.003-.003.002-.001"/><path d="M11.783 7.16l26.996.004H11.775l.008-.004m-.008.005l27.012.005h-27.02.003l.001-.002.003-.001"/><path d="M11.767 7.17l27.03.004H11.76v-.001l.004-.002h.003"/><path d="M11.76 7.174l27.045.004H11.75l.002-.001h.002l.002-.001.002-.002"/><path d="M11.75 7.178l27.06.004H11.743l.002-.001h.002l.002-.001h.002"/><path d="M11.743 7.182l27.078.005H11.736l.001-.002.003-.001v-.001l.002-.001"/><path d="M11.736 7.187l27.093.005H11.727l.003-.001.004-.004h.002"/><path d="M11.727 7.192l27.116.008h-27.13l.003-.002.002-.002.005-.002.003-.002"/><path d="M11.714 7.2h27.174-27.214.02.02m-.04.02h27.2c.016.007.02.01.023.012l.02.01H11.635l.02-.01.018-.012m-.038.025h27.3c.015.008.018.01.02.012l.022.01H11.595l.02-.01.02-.012"/><path d="M11.595 7.267l27.393.012.02.012H11.557l.02-.012.017-.012"/><path d="M11.557 7.29h27.45l.752.47c.227.158.423.313.584.46s.285.284.367.404.114.224.097.305H9.855c-.018-.08.016-.184.09-.305s.19-.258.345-.404.34-.302.553-.46a8.73 8.73 0 0 1 .713-.47"/></g><path fill="#262626" d="M50.52 30.26H.14l2.87-14.4h44.64z"/><path fill="#141414" d="M50.61 30.633c0 .346-.28.625-.624.625H.625c-.345 0-.625-.28-.625-.625s.28-.625.625-.625h49.36c.344 0 .624.28.624.625z"/></svg>