<?xml version="1.0" encoding="utf-8"?>
<!-- Generator: Adobe Illustrator 24.2.3, SVG Export Plug-In . SVG Version: 6.00 Build 0)  -->
<svg version="1.1" id="Layer_1" xmlns="http://www.w3.org/2000/svg" xmlns:xlink="http://www.w3.org/1999/xlink" x="0px" y="0px"
	 width="99.5305px" height="65.1969px" viewBox="0 0 99.5305 65.1969" enable-background="new 0 0 99.5305 65.1969"
	 xml:space="preserve">
<g>
	<rect x="0" y="0" fill="#006837" width="99.5305" height="65.1969"/>
	<circle fill="#B7932E" cx="4.197" cy="61.1969" r="2.2844"/>
	<circle fill="#B7932E" cx="11.3828" cy="61.1969" r="2.2844"/>
	<circle fill="#B7932E" cx="18.5828" cy="61.1969" r="2.2844"/>
	<circle fill="#B7932E" cx="25.7828" cy="61.1969" r="2.2844"/>
	<circle fill="#B7932E" cx="32.9828" cy="61.0659" r="2.2844"/>
	<circle fill="#B7932E" cx="40.1828" cy="61.0659" r="2.2844"/>
	<circle fill="#B7932E" cx="47.3828" cy="61.0659" r="2.2844"/>
	<g>
		<g>
			<g>
				<path fill="#0F0F0F" d="M96.1532,14.4749h-7.7451l-3.3568-3.3568V5.2547c0-2.1229-1.7209-3.8437-3.8438-3.8437H21.2533V1.3936
					h-6.4608L14.774,1.3751L3.3365,12.8126v25.1508l-0.0686,0.0686l11.4375,11.4375l0.0955-0.0955h3.5255h2.9269h59.9543
					c2.1228,0,3.8438-1.7209,3.8438-3.8438v-7.1918l3.2764-3.2764h7.8254c0.9216,0,1.6688-0.7471,1.6688-1.6688V16.1437
					C97.822,15.2221,97.0748,14.4749,96.1532,14.4749z"/>
			</g>
		</g>
		<path fill="#212121" d="M79.1064,33.3772V16.1909c0-0.6558,0.5317-1.1875,1.1875-1.1875h15.8073
			c0.6558,0,1.1875,0.5317,1.1875,1.1875v17.1862c0,0.6558-0.5317,1.1875-1.1875,1.1875H80.2939
			C79.6381,34.5647,79.1064,34.033,79.1064,33.3772z"/>
		
			<rect x="61.1587" y="13.9263" transform="matrix(-1.346942e-10 1 -1 -1.346942e-10 93.2804 -43.2169)" fill="#212121" width="14.1798" height="22.211"/>
		<path fill="#212121" d="M18.0962,32.8498V17.2137c0-0.3563,0.2889-0.6452,0.6452-0.6452h38.8332
			c0.3563,0,0.6452,0.2889,0.6452,0.6452v15.6361c0,0.3563-0.2889,0.6452-0.6452,0.6452H18.7415
			C18.3851,33.495,18.0962,33.2062,18.0962,32.8498z"/>
		<path fill="#212121" d="M6.7944,34.1077V16.2861c0-0.558,0.4524-1.0104,1.0104-1.0104h9.4775c0.558,0,1.0104,0.4524,1.0104,1.0104
			v17.8217c0,0.558-0.4524,1.0104-1.0104,1.0104H7.8048C7.2467,35.1181,6.7944,34.6658,6.7944,34.1077z"/>
		<path fill="#8E8E8E" d="M49.7053,41.7397v1.1767c0,0.3591-0.2911,0.6502-0.6502,0.6502H39.0255
			c-0.3591,0-0.6502-0.2911-0.6502-0.6502v-1.1767c0-0.3591,0.2911-0.6502,0.6502-0.6502h10.0296
			C49.4142,41.0896,49.7053,41.3807,49.7053,41.7397z"/>
		<path fill="#8E8E8E" d="M49.7053,7.3641v1.1767c0,0.3591-0.2911,0.6502-0.6502,0.6502H39.0255
			c-0.3591,0-0.6502-0.2911-0.6502-0.6502V7.3641c0-0.3591,0.2911-0.6502,0.6502-0.6502h10.0296
			C49.4142,6.7139,49.7053,7.005,49.7053,7.3641z"/>
	</g>
</g>
</svg>
