<svg xmlns="http://www.w3.org/2000/svg" xmlns:xlink="http://www.w3.org/1999/xlink" height="190" width="247"><style><![CDATA[.B{fill:#fff}.C{font-family:OCRA}.D{font-size:4px}.E{stroke-linejoin:round}.F{stroke:#000}.G{stroke-width:.049}.H{fill:#c49d26}.I{fill:#ededed}.J{fill:#737373}.K{fill:none}.L{fill:#f4c330}.M{fill:#aaa}.N{stroke-width:.088}.O{stroke-miterlimit:10}.P{fill:#dbdbdb}.Q{fill:#ffe500}.R{fill:#e6e6e6}.S{stroke-width:.063}.T{stroke-width:.061}.U{stroke-linecap:round}]]></style><path d="M4.75.47v188.938l55.813.03c1.65-.43 3.28-2.937 5.063-2.937h11.25c1.84 0 3.333 2.593 5.125 2.97l156.594-.062v-9.03l8.97-8.97V55.313l-8.97-8.97V5.875L233.188.47H4.75zM58.688 3.78c3.115 0 5.625 2.562 5.625 5.688s-2.5 5.656-5.625 5.656a5.66 5.66 0 0 1-5.656-5.656c0-3.126 2.54-5.687 5.656-5.687zm155.156 35.625c.862 0 1.563.7 1.563 1.563s-.7 1.563-1.562 1.563-1.562-.7-1.562-1.562.7-1.562 1.563-1.562zm9 0c.862 0 1.563.7 1.563 1.563s-.7 1.563-1.562 1.563-1.562-.7-1.562-1.562.7-1.562 1.563-1.562zm-9 8.97c.862 0 1.563.7 1.563 1.563s-.7 1.563-1.562 1.563-1.562-.7-1.562-1.562.7-1.562 1.563-1.562zm9 0c.862 0 1.563.7 1.563 1.563s-.7 1.563-1.562 1.563-1.562-.7-1.562-1.562.7-1.562 1.563-1.562zm-9 9c.862 0 1.563.7 1.563 1.563s-.7 1.563-1.562 1.563-1.562-.7-1.562-1.562.7-1.562 1.563-1.562zm9 0c.862 0 1.563.7 1.563 1.563s-.7 1.563-1.562 1.563-1.562-.7-1.562-1.562.7-1.562 1.563-1.562zm15.72.406c3.115 0 5.625 2.53 5.625 5.656s-2.5 5.656-5.625 5.656a5.66 5.66 0 0 1-5.656-5.656 5.66 5.66 0 0 1 5.656-5.656zm-24.72 8.594c.862 0 1.563.7 1.563 1.563s-.7 1.563-1.562 1.563-1.562-.7-1.562-1.562.7-1.562 1.563-1.562zm9 0c.862 0 1.563.7 1.563 1.563s-.7 1.563-1.562 1.563-1.562-.7-1.562-1.562.7-1.562 1.563-1.562zm15.75 90.344c3.115 0 5.625 2.562 5.625 5.688s-2.5 5.656-5.625 5.656a5.66 5.66 0 0 1-5.656-5.656c0-3.126 2.54-5.687 5.656-5.687z" fill="#f8393f"/><g transform="matrix(1.249998 0 0 1.249998 -192.725486 -746.31093)"><g class="E F"><path stroke-width=".055" d="M297.463 737.78h44.778v7.173h-44.778z" class="L"/><g class="G H"><path d="M338.985 742.5l1.417 1.418H335.3l1.417-1.418h2.267z"/><use xlink:href="#B"/><use xlink:href="#C"/><use xlink:href="#D"/></g></g><path d="M336.718 740.233h2.266v2.266h-2.266z"/><g class="E F G H"><path d="M331.785 742.5l1.417 1.418H328.1l1.417-1.418h2.267z"/><use xlink:href="#B" x="-7.2"/><use xlink:href="#C" x="-7.2"/><use xlink:href="#D" x="-7.2"/></g><path d="M329.518 740.233h2.266v2.266h-2.266z"/><g class="E F G H"><use xlink:href="#E"/><use xlink:href="#B" x="-21.597"/><use xlink:href="#C" x="-21.597"/><use xlink:href="#D" x="-21.598"/></g><path d="M315.12 740.233h2.266v2.266h-2.266z"/><g class="E F G H"><use xlink:href="#E" x="-7.199"/><use xlink:href="#B" x="-28.797"/><use xlink:href="#C" x="-28.797"/><use xlink:href="#D" x="-28.797"/></g><path d="M307.92 740.233h2.266v2.266h-2.266z"/><g class="E F G H"><path d="M324.586 742.5l1.417 1.418H320.9l1.417-1.418h2.267z"/><use xlink:href="#B" x="-14.399"/><use xlink:href="#C" x="-14.399"/><use xlink:href="#D" x="-14.399"/></g><path d="M322.32 740.233h2.266v2.266h-2.266z"/><g class="E F G H"><use xlink:href="#E" x="-14.399"/><use xlink:href="#B" x="-35.997"/><use xlink:href="#C" x="-35.997"/><use xlink:href="#D" x="-35.997"/></g><path d="M300.72 740.233h2.266v2.266h-2.266z"/></g><g transform="matrix(1.249998 0 0 1.249998 1.75637 .336436)"><g class="E F"><path stroke-width=".07" d="M51.23 3.807h73.5v7.13h-73.5z" class="L"/><g class="G H"><path d="M56.655 8.505l1.417 1.418H52.97l1.417-1.418h2.267z"/><path d="M54.387 8.505L52.97 9.923V4.82l1.417 1.418v2.268z"/><path d="M54.387 6.237L52.97 4.82h5.102l-1.417 1.418h-2.267z"/><use xlink:href="#F"/></g></g><path d="M54.388 6.238h2.266v2.266h-2.266z"/><g class="E F G H"><use xlink:href="#E" x="-195.937" y="-733.995"/><use xlink:href="#G"/><use xlink:href="#C" x="-217.537" y="-733.995"/><use xlink:href="#F" x="64.795"/></g><path d="M119.182 6.238h2.266v2.266h-2.266z"/><g class="E F G H"><use xlink:href="#E" x="-217.537" y="-733.995"/><use xlink:href="#G" x="-21.597"/><path d="M97.583 6.237L96.166 4.82h5.102L99.85 6.237h-2.267z"/><path d="M99.85 6.237l1.417-1.418v5.104L99.85 8.505V6.237z"/></g><path d="M97.584 6.238h2.266v2.266h-2.266z"/><g class="E F G H"><use xlink:href="#E" x="-231.935" y="-733.995"/><use xlink:href="#G" x="-35.996"/><path d="M83.184 6.237L81.767 4.82h5.102l-1.417 1.418h-2.267z"/><path d="M85.452 6.237L86.87 4.82v5.104l-1.417-1.418V6.237z"/></g><path d="M83.185 6.238h2.266v2.266h-2.266z"/><g class="E F G H"><use xlink:href="#E" x="-239.134" y="-733.995"/><use xlink:href="#G" x="-43.195"/><path d="M75.985 6.237L74.568 4.82h5.102l-1.417 1.418h-2.267z"/><path d="M78.253 6.237L79.67 4.82v5.104l-1.417-1.418V6.237z"/></g><path d="M75.986 6.238h2.266v2.266h-2.266z"/><g class="E F G H"><use xlink:href="#E" x="-224.735" y="-733.995"/><use xlink:href="#G" x="-28.796"/><path d="M90.384 6.237L88.967 4.82h5.102l-1.417 1.418h-2.267z"/><path d="M92.652 6.237L94.07 4.82v5.104l-1.417-1.418V6.237z"/></g><path d="M90.385 6.238h2.266v2.266h-2.266z"/><g class="E F G H"><path d="M71.054 8.505l1.417 1.418H67.37l1.417-1.418h2.267z"/><path d="M68.786 8.505L67.37 9.923V4.82l1.417 1.418v2.268z"/><path d="M68.786 6.237L67.37 4.82h5.102l-1.417 1.418h-2.267z"/><path d="M71.054 6.237L72.47 4.82v5.104l-1.417-1.418V6.237z"/></g><path d="M68.787 6.238h2.266v2.266h-2.266z"/><g class="E F G H"><path d="M63.855 8.505l1.417 1.418H60.17l1.417-1.418h2.267z"/><path d="M61.587 8.505L60.17 9.923V4.82l1.417 1.418v2.268z"/><path d="M61.587 6.237L60.17 4.82h5.102l-1.417 1.418h-2.267z"/><use xlink:href="#F" x="7.2"/></g><path d="M61.588 6.238h2.266v2.266h-2.266z"/><g class="E F G H"><use xlink:href="#E" x="-210.337" y="-733.995"/><use xlink:href="#G" x="-14.398"/><use xlink:href="#C" x="-231.935" y="-733.995"/><use xlink:href="#F" x="50.395"/></g><path d="M104.783 6.238h2.266v2.266h-2.266z"/><g class="E F G H"><use xlink:href="#E" x="-203.137" y="-733.995"/><use xlink:href="#G" x="-7.2"/><use xlink:href="#C" x="-224.737" y="-733.995"/><use xlink:href="#F" x="57.595"/></g><path d="M111.982 6.238h2.266v2.266h-2.266z"/></g><g transform="matrix(1.249998 0 0 1.249998 3.45618 .766634)"><g class="E F"><path d="M126.264 3.51h59.095v7.165h-59.095z" class="L S"/><g class="G H"><use xlink:href="#E" x="-135.307" y="-734.272"/><use xlink:href="#H"/><path d="M179.812 5.96l-1.417-1.418h5.102L182.08 5.96h-2.267z"/><use xlink:href="#I"/></g></g><path d="M179.813 5.96h2.266v2.266h-2.266z"/><g class="E F G H"><use xlink:href="#E" x="-142.507" y="-734.272"/><use xlink:href="#H" x="-7.199"/><path d="M172.613 5.96l-1.417-1.418h5.102L174.88 5.96h-2.267z"/><use xlink:href="#I" x="-7.2"/></g><path d="M172.614 5.96h2.266v2.266h-2.266z"/><g class="E F G H"><use xlink:href="#E" x="-156.905" y="-734.272"/><use xlink:href="#H" x="-21.598"/><use xlink:href="#C" x="-178.503" y="-734.272"/><use xlink:href="#I" x="-21.598"/></g><path d="M158.215 5.96h2.266v2.266h-2.266z"/><g class="E F G H"><use xlink:href="#E" x="-164.104" y="-734.272"/><use xlink:href="#H" x="-28.797"/><use xlink:href="#C" x="-185.702" y="-734.272"/><use xlink:href="#I" x="-28.797"/></g><path d="M151.016 5.96h2.266v2.266h-2.266z"/><g class="E F G H"><use xlink:href="#E" x="-149.705" y="-734.272"/><use xlink:href="#H" x="-14.398"/><use xlink:href="#C" x="-171.303" y="-734.272"/><use xlink:href="#I" x="-14.398"/></g><path d="M165.415 5.96h2.266v2.266h-2.266z"/><g class="E F G H"><path d="M146.084 8.228l1.417 1.418H142.4l1.417-1.418h2.267z"/><path d="M143.816 8.228L142.4 9.646V4.542l1.417 1.418v2.268z"/><path d="M143.816 5.96L142.4 4.542h5.102l-1.417 1.418h-2.267z"/><use xlink:href="#I" x="-35.996"/></g><path d="M143.817 5.96h2.266v2.266h-2.266z"/><g class="E F G H"><path d="M138.885 8.228l1.417 1.418H135.2l1.417-1.418h2.267z"/><path d="M136.617 8.228L135.2 9.646V4.542l1.417 1.418v2.268z"/><path d="M136.617 5.96L135.2 4.542h5.102l-1.417 1.418h-2.267z"/><use xlink:href="#I" x="-43.195"/></g><path d="M136.618 5.96h2.266v2.266h-2.266z"/><g class="E F G H"><path d="M131.685 8.228l1.417 1.418H128l1.417-1.418h2.267z"/><path d="M129.417 8.228L128 9.646V4.542l1.417 1.418v2.268z"/><path d="M129.417 5.96L128 4.542h5.102l-1.417 1.418h-2.267z"/><use xlink:href="#I" x="-50.395"/></g><path d="M129.418 5.96h2.266v2.266h-2.266z"/></g><g transform="matrix(1.249998 0 0 1.249998 -59.39001 171.44488)"><g class="E F"><path d="M126.264 3.51h59.095v7.165h-59.095z" class="L S"/><g class="G H"><use xlink:href="#E" x="-135.307" y="-734.272"/><use xlink:href="#H"/><path d="M179.812 5.96l-1.417-1.418h5.102L182.08 5.96h-2.267z"/><use xlink:href="#I"/></g></g><path d="M179.813 5.96h2.266v2.266h-2.266z"/><g class="E F G H"><use xlink:href="#E" x="-142.507" y="-734.272"/><use xlink:href="#H" x="-7.199"/><path d="M172.613 5.96l-1.417-1.418h5.102L174.88 5.96h-2.267z"/><use xlink:href="#I" x="-7.2"/></g><path d="M172.614 5.96h2.266v2.266h-2.266z"/><g class="E F G H"><use xlink:href="#E" x="-156.905" y="-734.272"/><use xlink:href="#H" x="-21.598"/><use xlink:href="#C" x="-178.503" y="-734.272"/><use xlink:href="#I" x="-21.598"/></g><path d="M158.215 5.96h2.266v2.266h-2.266z"/><g class="E F G H"><use xlink:href="#E" x="-164.104" y="-734.272"/><use xlink:href="#H" x="-28.797"/><use xlink:href="#C" x="-185.702" y="-734.272"/><use xlink:href="#I" x="-28.797"/></g><path d="M151.016 5.96h2.266v2.266h-2.266z"/><g class="E F G H"><use xlink:href="#E" x="-149.705" y="-734.272"/><use xlink:href="#H" x="-14.398"/><use xlink:href="#C" x="-171.303" y="-734.272"/><use xlink:href="#I" x="-14.398"/></g><path d="M165.415 5.96h2.266v2.266h-2.266z"/><g class="E F G H"><path d="M146.084 8.228l1.417 1.418H142.4l1.417-1.418h2.267z"/><path d="M143.816 8.228L142.4 9.646V4.542l1.417 1.418v2.268z"/><path d="M143.816 5.96L142.4 4.542h5.102l-1.417 1.418h-2.267z"/><use xlink:href="#I" x="-35.996"/></g><path d="M143.817 5.96h2.266v2.266h-2.266z"/><g class="E F G H"><path d="M138.885 8.228l1.417 1.418H135.2l1.417-1.418h2.267z"/><path d="M136.617 8.228L135.2 9.646V4.542l1.417 1.418v2.268z"/><path d="M136.617 5.96L135.2 4.542h5.102l-1.417 1.418h-2.267z"/><use xlink:href="#I" x="-43.195"/></g><path d="M136.618 5.96h2.266v2.266h-2.266z"/><g class="E F G H"><path d="M131.685 8.228l1.417 1.418H128l1.417-1.418h2.267z"/><path d="M129.417 8.228L128 9.646V4.542l1.417 1.418v2.268z"/><path d="M129.417 5.96L128 4.542h5.102l-1.417 1.418h-2.267z"/><use xlink:href="#I" x="-50.395"/></g><path d="M129.418 5.96h2.266v2.266h-2.266z"/></g><g transform="matrix(1.249998 0 0 1.249998 218.01867 -1215.5616)" class="F G"><g class="L"><use xlink:href="#J"/><use xlink:href="#K"/><use xlink:href="#L"/><use xlink:href="#M"/><use xlink:href="#N"/><use xlink:href="#O"/></g><use xlink:href="#P" class="I"/><g class="E J"><use xlink:href="#Q"/><use xlink:href="#R"/><use xlink:href="#S"/><use xlink:href="#T"/></g><use xlink:href="#U" class="I"/><g class="E J"><use xlink:href="#Q" x="7.199"/><use xlink:href="#R" x="7.199"/><use xlink:href="#V"/><use xlink:href="#W"/></g><use xlink:href="#P" y="-7.203" class="I"/><g class="E J"><use xlink:href="#Q" y="-7.202"/><use xlink:href="#R" y="-7.203"/><use xlink:href="#S" y="-7.202"/><use xlink:href="#T" y="-7.212"/></g><use xlink:href="#U" y="-7.203" class="I"/><g class="E J"><use xlink:href="#Q" x="7.199" y="-7.202"/><use xlink:href="#R" x="7.199" y="-7.203"/><use xlink:href="#V" y="-7.202"/><use xlink:href="#W" y="-7.212"/></g><use xlink:href="#P" y="-14.403" class="I"/><g class="E J"><use xlink:href="#Q" y="-14.404"/><use xlink:href="#R" y="-14.405"/><use xlink:href="#S" y="-14.404"/><use xlink:href="#T" y="-14.414"/></g><use xlink:href="#U" y="-14.403" class="I"/><g class="E J"><use xlink:href="#Q" x="7.199" y="-14.404"/><use xlink:href="#R" x="7.199" y="-14.405"/><use xlink:href="#V" y="-14.404"/><use xlink:href="#W" y="-14.414"/></g></g><g transform="matrix(1.249998 0 0 1.249998 166.20406 -1162.9075)"><g class="B"><use xlink:href="#X"/><use xlink:href="#Y"/><use xlink:href="#Z"/><path d="M31.614 1046.61h-1.562v-19.477h1.562v19.477z"/><use xlink:href="#a"/></g><path d="M16.992 1031.905h2.413v9.937h-2.413v-9.937z" class="P"/><g class="F N"><g class="K O"><path d="M31.614 1027.135v-4.543m0 4.543h-1.562m.018-2.98l-.017 2.98m-9.086-2.98h9.103m-9.103 4.968h-1.562m.001-1.702v1.703m12.208 17.487v-19.477m-12.208 1.99v2.782m-2.272-9.312v4.827m2.272.001h-2.27m2.27 4.485h-2.413m13.06 17.688h-9.085m9.085-2.983v2.98m1.562-2.98h-1.562m1.562 0v4.543m-12.208-4.825v-1.704m0 0h1.562m-1.562 0v-2.782m-2.272 9.312v-4.826m2.272 0h-2.27"/><path d="M19.406 1041.842h-2.413m.14-19.25h14.48"/><path d="M19.406 1031.905v9.937m12.208 9.312h-14.48"/><path d="M30.052 1027.135v19.477"/></g><g class="E Q"><path d="M24.8 1029.065v-1.42h1.42v1.42H24.8zm1.42 4.213v1.42H24.8v-1.42h1.42z"/><use xlink:href="#b"/><use xlink:href="#b" y="5.678"/></g></g></g><path fill="#333" d="M124.178 61.58h35.404v35.404h-35.404z"/><g class="F"><g stroke-miterlimit="5.714286" class="T"><path d="M23.233 94.84H3.04V67.903h20.195V72.5H20.4v2.835l2.834.06v12.05l-2.834-.06v2.835h2.834v4.608zM8.707 88.814v2.127h5.314v-2.125H8.707zm0-14.177h5.314V72.5H8.707v2.127z" class="I"/><path d="M22.525 90.232H20.4v-2.835l2.834.06v2.775z" fill="#454545"/><path d="M8.707 72.5h5.314v2.127H8.707V72.5z" fill="#ccc"/><path d="M23.233 67.903H4.76m0 0H3.04" class="K"/><path d="M20.4 75.346V72.5h2.834v2.896s0 0-2.834-.06z" fill="#454545"/><path d="M8.707 88.814h5.314v2.127H8.707v-2.127z" fill="#ccc"/></g><path d="M83.66 178.863v7.576H58.865v-7.576h6.022v-1.337H77.64v1.337h4.25z" stroke-width=".065" class="B"/><path d="M76.582 186.468v2.976H65.944v-2.976h10.638z" fill="#242424" stroke-width=".052"/></g><path d="M84.278 158.627H73.7v-6.558h10.58v6.558zm4.067-24.717v6.558h-2.472V133.9h2.472zm-8.12 0v6.558h-2.472V133.9h2.472zm-8.122 0v6.558H69.63V133.9h2.472z" class="R"/><path d="M90.085 140.468v11.6H67.89v-11.6h22.194z" fill="#2a2a2a"/><g transform="matrix(1.249998 0 0 1.249998 -212.383839 -4.290155)"><path d="M181.032 45.87h3.4v2.268h-3.4V45.87z" class="B"/><path d="M185 45.87v2.268h-.567V45.87H185zm-4.535 2.268V45.87h.567v2.268h-.567z" class="M"/><path d="M181.032 40.454h3.4v2.268h-3.4v-2.268z" class="B"/><path d="M185 40.454v2.268h-.567v-2.268H185zm-4.535 2.268v-2.268h.567v2.268h-.567z" class="M"/><path d="M181.032 35.067h3.4v2.268h-3.4v-2.268z" class="B"/><path d="M185 35.067v2.268h-.567v-2.268H185zm-4.535 2.268v-2.268h.567v2.268h-.567z" class="M"/><path d="M181.032 29.65h3.4v2.268h-3.4V29.65z" class="B"/><path d="M185 29.65v2.268h-.567V29.65H185zm-4.535 2.27v-2.27h.567v2.268h-.567z" class="M"/></g><g transform="matrix(1.249998 0 0 1.249998 199.93021 -1162.9075)"><g class="B"><use xlink:href="#X"/><use xlink:href="#Y"/><path d="M31.614 1046.61h-1.562v-19.477h1.562v19.477z"/><use xlink:href="#a"/></g><path d="M16.992 1031.905h2.413v9.937h-2.413v-9.937z" class="P"/><g class="F K N O"><path d="M31.614 1027.135v-4.543m0 4.543h-1.562m.018-2.98l-.017 2.98m-9.086-2.98h9.103m-9.103 4.968h-1.562m.001-1.702v1.703m12.208 17.487v-19.477m-12.208 1.99v2.782m-2.272-9.312v4.827m2.272.001h-2.27m2.27 4.485h-2.413m13.06 17.688h-9.085m9.085-2.983v2.98m1.562-2.98h-1.562m1.562 0v4.543m-12.208-4.825v-1.704m0 0h1.562m-1.562 0v-2.782m-2.272 9.312v-4.826m2.272 0h-2.27"/><path d="M19.406 1041.842h-2.413m.14-19.25h14.48"/><path d="M19.406 1031.905v9.937m12.208 9.312h-14.48"/><path d="M30.052 1027.135v19.477"/></g><use xlink:href="#Z" class="B"/><g class="E F N Q"><path d="M24.8 1029.065v-1.42h1.42v1.42H24.8zm1.42 4.213v1.42H24.8v-1.42h1.42z"/><use xlink:href="#b"/><use xlink:href="#b" y="5.678"/></g></g><path d="M37.58 178.592H-.572v-34.025h41.098v34.025H37.58z" fill="#333"/><path d="M45.84 122.286h-8.667v-2.47h8.667v2.47zm-5.957-8.102h-2.7v-2.498h2.7v2.498zm5.957-8.13h-8.667v-2.47h8.667v2.47z" class="R"/><path d="M17.334 103.72v-2.48h19.84v23.392h-19.84v-20.91z" fill="#333"/><path d="M17.334 103.72v18.43h-4.4l-1.258-1.26v-15.913l1.258-1.26h4.4z" class="R"/><g transform="matrix(0 -1.249998 1.249998 0 -1282.95291 32.363707)" class="F G"><g class="L"><use xlink:href="#J"/><use xlink:href="#K"/><use xlink:href="#L"/><use xlink:href="#M"/><use xlink:href="#N"/><use xlink:href="#O"/></g><use xlink:href="#P" class="I"/><g class="E J"><use xlink:href="#Q"/><use xlink:href="#R"/><use xlink:href="#S"/><use xlink:href="#T"/></g><use xlink:href="#U" class="I"/><g class="E J"><use xlink:href="#Q" x="7.199"/><use xlink:href="#R" x="7.199"/><use xlink:href="#V"/><use xlink:href="#W"/></g><use xlink:href="#P" y="-7.203" class="I"/><g class="E J"><use xlink:href="#Q" y="-7.202"/><use xlink:href="#R" y="-7.203"/><use xlink:href="#S" y="-7.202"/><use xlink:href="#T" y="-7.212"/></g><use xlink:href="#U" y="-7.203" class="I"/><g class="E J"><use xlink:href="#Q" x="7.199" y="-7.202"/><use xlink:href="#R" x="7.199" y="-7.203"/><use xlink:href="#V" y="-7.202"/><use xlink:href="#W" y="-7.212"/></g><use xlink:href="#P" y="-14.403" class="I"/><g class="E J"><use xlink:href="#Q" y="-14.404"/><use xlink:href="#R" y="-14.405"/><use xlink:href="#S" y="-14.404"/><use xlink:href="#T" y="-14.414"/></g><use xlink:href="#U" y="-14.403" class="I"/><g class="E J"><use xlink:href="#Q" x="7.199" y="-14.404"/><use xlink:href="#R" x="7.199" y="-14.405"/><use xlink:href="#V" y="-14.404"/><use xlink:href="#W" y="-14.414"/></g></g><path d="M13.906 59.783h4.25v2.835h-4.25v-2.835z" class="B"/><path d="M18.866 59.783v2.835h-.7v-2.835h.7zm-5.67 2.837v-2.835h.7v2.835h-.7z" class="M"/><path d="M51.168 180.52v4.25h-2.835v-4.25h2.835z" class="B"/><path d="M51.168 185.48h-2.835v-.7h2.835v.7zm-2.835-5.668h2.835v.7h-2.835v-.7z" class="M"/><path d="M118 103.712v19.97h19.97v-19.97H118zm8.932 2.496h2.105c.05 0 .098.04.107.09l.394 2.113c.01.05.056.102.104.118l1.417.58a.17.17 0 0 0 .157-.011l1.767-1.21c.042-.03.104-.025.14.01l1.486 1.49c.036.036.042.1.014.14l-1.19 1.734c-.03.042-.034.114-.01.16l.627 1.46c.017.048.07.093.12.102l2.042.382c.05.01.09.056.09.107v2.102c0 .05-.04.1-.09.1l-1.992.37c-.05.01-.103.056-.118.105l-.622 1.555a.17.17 0 0 0 .011.157l1.13 1.65c.03.042.022.104-.014.14l-1.486 1.486c-.036.036-.1.042-.14.014l-1.62-1.112c-.042-.028-.11-.03-.154-.005l-.715.382c-.045.023-.1.002-.118-.044l-1.472-3.56c-.02-.047-.001-.106.04-.132l.18-.1c.033-.02.078-.056.113-.088a2.32 2.32 0 0 0 1.073-1.956c0-1.284-1.04-2.325-2.325-2.325s-2.325 1.04-2.325 2.325a2.32 2.32 0 0 0 1.073 1.956c.035.032.082.068.116.088l.176.1c.043.026.064.085.044.132l-1.472 3.56c-.02.047-.073.067-.118.044l-.715-.383c-.044-.026-.112-.023-.154.005l-1.62 1.112c-.042.028-.105.022-.14-.014l-1.49-1.486c-.036-.036-.04-.1-.01-.14l1.13-1.65c.03-.042.033-.11.01-.157l-.622-1.555c-.015-.048-.07-.096-.118-.105l-1.992-.37c-.05-.01-.09-.06-.09-.1v-2.102c0-.05.04-.098.09-.107l2.042-.382c.05-.01.104-.054.12-.102l.627-1.46c.023-.045.018-.118-.01-.16l-1.19-1.734c-.03-.042-.022-.104.014-.14l1.486-1.49c.036-.036.1-.04.14-.01l1.767 1.21c.042.03.11.033.157.01l1.417-.58c.048-.016.095-.07.105-.118l.394-2.113c.01-.05.057-.09.107-.09z" class="B"/><path d="M224.476 67.834l-.2-.78m.002.002l-.57-.57m0 0l-.778-.2m0 .001l-.778.2m0-.001l-.57.57m0 0l-.2.78m.001-.002l.2.78m-.001-.001l.57.57m0 0l.778.2m0-.003l.778-.2m0 .003l.57-.57m0 0l.2-.78m-.002-8.988l-.2-.78m.002.002l-.57-.57m0 0l-.778-.2m0 .001l-.778.2m0-.001l-.57.57m0 0l-.2.78m.001-.002l.2.78m-.001-.001l.57.57m0 0l.778.2m0-.001l.778-.2m0 .001l.57-.57m0 0l.2-.78m-.002-8.987l-.2-.78m.002.001l-.57-.57m0 0l-.778-.2m0 .002l-.778.2m0-.002l-.57.57m0 0l-.2.78m.001-.001l.2.78m-.001-.002l.57.57m0 0l.778.2m0-.001l.778-.2m0 .001l.57-.57m0 0l.2-.78m-.002-8.987l-.2-.78m.002.002l-.57-.57m0 0l-.778-.2m0 0l-.778.2m0 0l-.57.57m0 0l-.2.78m.001-.002l.2.78m-.001-.002l.57.57m0 0l.778.2m0-.001l.778-.2m0 .001l.57-.57m0 0l.2-.78m-9.022.002l-.2-.78m.001.002l-.57-.57m0 0l-.778-.2m.001 0l-.778.2m-.002 0l-.57.57m0 0l-.2.78m.003-.002l.2.78m-.003-.002l.57.57m0 0l.778.2m.002-.001l.778-.2m-.001.001l.57-.57m0 0l.2-.78m-.001 8.99l-.2-.78m.001.001l-.57-.57m0 0l-.778-.2m.001.002l-.778.2m-.002-.002l-.57.57m0 0l-.2.78m.003-.001l.2.78m-.003-.002l.57.57m0 0l.778.2m.002-.001l.778-.2m-.001.001l.57-.57m0 0l.2-.78m-.001 9l-.2-.78m.001.002l-.57-.57m0 0l-.778-.2m.001.001l-.778.2m-.002-.001l-.57.57m0 0l-.2.78m.003-.002l.2.78m-.003-.001l.57.57m0 0l.778.2m.002-.001l.778-.2m-.001.001l.57-.57m0 0l.2-.78m-.001 9l-.2-.78m.001.002l-.57-.57m0 0l-.778-.2m.001.001l-.778.2m-.002-.001l-.57.57m0 0l-.2.78m.003-.002l.2.78m-.003-.001l.57.57m0 0l.778.2m.002-.003l.778-.2m-.001.003l.57-.57m0 0l.2-.78" class="F K O T"/><path stroke="#fff" d="M210.292 37.607h16.03v33.884h-16.03z" stroke-width=".6" class="K"/><g fill="#f5c430"><path d="M220.125 65.143v5.527h5.503v-5.527h-5.503zm2.752 1.364c.776 0 1.412.612 1.412 1.388a1.42 1.42 0 0 1-1.412 1.412 1.42 1.42 0 0 1-1.412-1.412c0-.776.636-1.388 1.412-1.388z"/><use xlink:href="#c"/><use xlink:href="#c" y="-8.978"/><use xlink:href="#c" x="9.043" y="-8.874"/><use xlink:href="#c" x="9.043" y="-17.852"/><use xlink:href="#c" y="-17.955"/><use xlink:href="#c" y="-26.933"/><use xlink:href="#c" x="9.043" y="-26.828"/></g><g class="B"><path d="M99.845 119.65c-.055-.058-.12-.102-.198-.13a.73.73 0 0 0-.252-.044.84.84 0 0 0-.134.012c-.05.008-.1.02-.148.033a.93.93 0 0 0-.14.05.75.75 0 0 0-.117.065v1.342l.16.026a1.28 1.28 0 0 0 .185.012c.152 0 .28-.024.385-.072a.71.71 0 0 0 .254-.19c.065-.08.112-.17.14-.272s.044-.208.044-.316c0-.114-.016-.214-.047-.3s-.076-.158-.13-.216m7.594-1.804h-.524v1.375a1.21 1.21 0 0 0-.579-.141 1.32 1.32 0 0 0-.482.084 1.01 1.01 0 0 0-.367.24 1.06 1.06 0 0 0-.232.373 1.36 1.36 0 0 0-.082.484 1.49 1.49 0 0 0 .076.497c.05.143.122.263.212.36s.197.17.32.22a1.07 1.07 0 0 0 .405.075 1.1 1.1 0 0 0 .213-.021 1.35 1.35 0 0 0 .2-.054 1.28 1.28 0 0 0 .176-.077.99.99 0 0 0 .145-.092l.016.195h.503v-3.516zm-2.8 2.315a1.44 1.44 0 0 0-.066-.454.87.87 0 0 0-.2-.34.89.89 0 0 0-.327-.213 1.26 1.26 0 0 0-.453-.075 1.32 1.32 0 0 0-.478.083c-.143.055-.266.133-.368.233s-.182.222-.238.364a1.28 1.28 0 0 0-.084.472 1.41 1.41 0 0 0 .082.496 1.02 1.02 0 0 0 .233.371 1.01 1.01 0 0 0 .37.232 1.42 1.42 0 0 0 .49.08 1.9 1.9 0 0 0 .523-.064c.153-.044.298-.103.436-.18v-.4a1.85 1.85 0 0 1-.216.114c-.076.034-.15.06-.226.083s-.15.04-.22.052a1.25 1.25 0 0 1-.203.018c-.1 0-.208-.016-.297-.047a.74.74 0 0 1-.234-.132.63.63 0 0 1-.157-.202.74.74 0 0 1-.072-.257h1.706v-.223zm-2.894-2.315h-.522v3.517h.522v-3.517zm-1.2 2.296c0-.158-.024-.3-.072-.43a.94.94 0 0 0-.21-.336.95.95 0 0 0-.336-.22 1.23 1.23 0 0 0-.451-.077 1.23 1.23 0 0 0-.175.013l-.177.036a1.18 1.18 0 0 0-.162.053.93.93 0 0 0-.133.067c.004-.025.006-.057.008-.095l.004-.118.003-.118.001-.093v-.978h-.522v3.42a2.09 2.09 0 0 0 .177.049l.224.045.253.033.265.012a1.53 1.53 0 0 0 .54-.09 1.14 1.14 0 0 0 .67-.655 1.4 1.4 0 0 0 .093-.519m-2.682.86a.71.71 0 0 1-.106.018l-.1.004c-.036 0-.07-.015-.105-.046s-.05-.08-.05-.144v-.86a1.27 1.27 0 0 0-.06-.42c-.04-.113-.1-.206-.18-.276a.7.7 0 0 0-.296-.149 1.67 1.67 0 0 0-.408-.045 1.77 1.77 0 0 0-.371.041 1.55 1.55 0 0 0-.341.111v.405a2.37 2.37 0 0 1 .347-.113c.117-.028.23-.042.344-.042.157 0 .27.044.34.132s.103.214.103.38l-.175-.012-.162-.004c-.364 0-.64.065-.825.194a.64.64 0 0 0-.28.558c0 .098.016.188.048.27a.6.6 0 0 0 .141.216c.062.062.14.1.237.144a.98.98 0 0 0 .333.051c.163 0 .304-.027.42-.082s.22-.12.307-.2c.015.044.034.083.06.117s.054.064.1.088a.42.42 0 0 0 .13.057.62.62 0 0 0 .177.02.91.91 0 0 0 .216-.024c.066-.016.122-.04.167-.073v-.313zm-2.927-1.052c0-.282-.066-.498-.2-.647s-.337-.223-.614-.223a.94.94 0 0 0-.21.023 1.02 1.02 0 0 0-.184.061.92.92 0 0 0-.156.087 1.02 1.02 0 0 0-.128.103l-.017-.223h-.505v2.23h.522v-1.614c.034-.033.073-.064.115-.094a1.04 1.04 0 0 1 .137-.082.81.81 0 0 1 .157-.059.69.69 0 0 1 .17-.022c.13 0 .228.042.292.126s.096.205.096.363v1.38h.525v-1.413zm-2.692-1.933H90.15v3.346h2.105v-.45H90.68v-1.137h1.05v-.403h-1.05v-.8h1.575v-.545zm15.033-4.176h1.534v9.84H88.85v-9.84h11.662l3.4 3.883 3.373-3.883zm-10.6 6.487a1.14 1.14 0 0 0-.299.033c-.078.022-.14.05-.185.087s-.077.077-.095.122a.38.38 0 0 0-.027.142c0 .092.028.168.083.226s.133.087.232.087a.7.7 0 0 0 .3-.068 1.16 1.16 0 0 0 .28-.182v-.435l-.14-.008-.16-.003m10.02-.8a1.1 1.1 0 0 0-.143-.038c-.05-.01-.103-.015-.155-.015a.88.88 0 0 0-.261.039.57.57 0 0 0-.227.133c-.066.063-.12.145-.16.247s-.06.23-.06.382a1.04 1.04 0 0 0 .047.329.64.64 0 0 0 .126.228.51.51 0 0 0 .186.133.59.59 0 0 0 .226.044.74.74 0 0 0 .197-.026 1.23 1.23 0 0 0 .174-.064 1.03 1.03 0 0 0 .145-.083l.112-.083v-1.12a.48.48 0 0 0-.087-.056c-.036-.02-.077-.036-.12-.052m-2.727.1c.093.088.143.216.152.385h-1.18c.036-.17.1-.297.22-.385a.66.66 0 0 1 .425-.132c.163 0 .3.044.383.132m1.69-12.332c-.264 0-.485.108-.662.324s-.266.556-.266 1.02c0 .45.095.785.284 1.007s.413.334.67.334a.84.84 0 0 0 .662-.319c.182-.212.273-.537.273-.973 0-.48-.093-.832-.278-1.057s-.413-.337-.684-.337m1.503-1.747h-.6v1.738a1.18 1.18 0 0 0-.403-.348 1.17 1.17 0 0 0-.565-.134 1.4 1.4 0 0 0-.783.228 1.38 1.38 0 0 0-.526.656 2.49 2.49 0 0 0-.175.953 2.23 2.23 0 0 0 .193.953 1.52 1.52 0 0 0 .545.646 1.37 1.37 0 0 0 .77.23c.432 0 .76-.174.98-.522v.443h.552v-4.843zm-3.825 3.082c0-.58-.15-1.028-.446-1.348a1.5 1.5 0 0 0-1.15-.479c-.485 0-.88.163-1.183.5s-.456.784-.456 1.374c0 .57.15 1.014.45 1.33s.708.474 1.22.474c.407 0 .742-.1 1.004-.297a1.49 1.49 0 0 0 .538-.836l-.614-.076c-.1.25-.213.434-.367.548a.91.91 0 0 1-.558.172.97.97 0 0 1-.733-.307c-.196-.205-.305-.5-.327-.885h2.616l.003-.16m-4.03-.046c0-.253-.035-.5-.106-.714a1.78 1.78 0 0 0-.292-.57 1.25 1.25 0 0 0-.476-.367 1.47 1.47 0 0 0-.613-.131 1.17 1.17 0 0 0-.96.472v-1.728h-.595v4.843h.552v-.44c.236.346.56.518.974.518s.773-.164 1.07-.492.446-.793.446-1.394m-4.192-.6c0-.4-.093-.697-.28-.9s-.455-.3-.803-.3c-.445 0-.806.205-1.084.615a.86.86 0 0 0-.352-.453c-.167-.108-.38-.162-.64-.162-.233 0-.442.052-.624.157a1.25 1.25 0 0 0-.439.415v-.492h-.532v3.508h.595v-1.82c0-.32.032-.564.096-.733a.75.75 0 0 1 .309-.387c.142-.088.297-.132.464-.132.22 0 .38.066.476.198s.145.33.145.595v2.28h.595v-2.038c0-.36.08-.624.244-.788a.83.83 0 0 1 .615-.246c.137 0 .255.032.357.096a.5.5 0 0 1 .21.253c.04.105.058.276.058.514v2.2h.6v-2.408zm13.7-4.26v9.582h-1.783l-3.125 3.598-3.152-3.598h-11.9v-9.582h19.97zm-7.068 3.57c-.273 0-.503.1-.7.274s-.3.427-.3.733h1.96c-.026-.295-.102-.517-.225-.664a.91.91 0 0 0-.737-.344m-3.32.327c.182.218.273.556.273 1.014 0 .447-.095.783-.284 1s-.414.34-.674.34c-.32 0-.573-.153-.76-.46-.115-.187-.172-.5-.172-.912s.095-.754.284-.98.414-.34.674-.34.477.1.66.327"/><text x="348.216" y="179.578" transform="translate(-287.553 -5.487)" class="C D">BUTTON</text><text x="306.772" y="66.617" transform="translate(-287.553 -3.487)" class="C D">LED_USB</text><text x="306.772" y="39.626" transform="translate(-287.553 -3.487)" class="C D">LED4</text><text x="306.772" y="53.372" transform="translate(-287.553 -3.487)" class="C D">LED2</text><text x="306.772" y="60.242" transform="translate(-287.553 -3.487)" class="C D">LED1</text><text x="306.772" y="46.47" transform="translate(-287.553 -3.487)" class="C D">LED3</text><text x="479.397" y="116.91" transform="translate(-287.553 -3.487)" class="C D">I2C</text><text x="508.845" y="116.846" transform="translate(-285.553 -3.487)" class="C D">UART</text><text x="515.026" y="79.461" transform="translate(-285.553 -3.487)" class="C D">SPI</text><text x="304.683" y="10.099" transform="translate(-285.553 -3.487)" class="C D">SWD</text><text x="-179.071" y="428.816" transform="matrix(0 -1 1 0 -287.553 -5.487)" class="C D">5V</text><text x="-179.141" y="473.289" transform="matrix(0 -1 1 0 -287.553 -5.487)" class="C D">P0_11</text><text x="-36.862" y="377.893" transform="matrix(0 -1 1 0 -287.553 -5.487)" class="C D">P0_7</text><text x="-36.862" y="359.529" transform="matrix(0 -1 1 0 -287.553 -5.487)" class="C D">P0_4</text><text x="-36.862" y="368.513" transform="matrix(0 -1 1 0 -287.553 -5.487)" class="C D">P0_5</text><text x="-36.862" y="386.468" transform="matrix(0 -1 1 0 -287.553 -5.487)" class="C D">GND</text><text x="-179.071" y="410.693" transform="matrix(0 -1 1 0 -287.553 -5.487)" class="C D">RST</text><text x="-179.071" y="419.68" transform="matrix(0 -1 1 0 -287.553 -5.487)" class="C D">3V3</text><text x="-179.141" y="482.274" transform="matrix(0 -1 1 0 -287.553 -5.487)" class="C D">P0_12</text><text x="-179.141" y="491.261" transform="matrix(0 -1 1 0 -287.553 -5.487)" class="C D">P0_13</text><text x="-179.141" y="500.247" transform="matrix(0 -1 1 0 -287.553 -5.487)" class="C D">P0_14</text><text x="-179.141" y="509.233" transform="matrix(0 -1 1 0 -287.553 -5.487)" class="C D">P0_16</text><text x="-179.141" y="518.22" transform="matrix(0 -1 1 0 -287.553 -5.487)" class="C D">P0_22</text><text x="-179.071" y="455.776" transform="matrix(0 -1 1 0 -287.553 -5.487)" class="C D">VIN</text><text x="-179.071" y="437.803" transform="matrix(0 -1 1 0 -287.553 -5.487)" class="C D">GND</text><text x="-36.862" y="413.586" transform="matrix(0 -1 1 0 -287.553 -5.487)" class="C D">P0_9</text><text x="-36.862" y="422.123" transform="matrix(0 -1 1 0 -287.553 -5.487)" class="C D">P0_2</text><text x="-36.862" y="431.108" transform="matrix(0 -1 1 0 -287.553 -5.487)" class="C D">P1_27</text><text x="-36.862" y="463.909" transform="matrix(0 -1 1 0 -287.553 -5.487)" class="C D">P1_25</text><text x="-36.862" y="472.895" transform="matrix(0 -1 1 0 -287.553 -5.487)" class="C D">P1_24</text><text x="-36.862" y="491.317" transform="matrix(0 -1 1 0 -287.553 -5.487)" class="C D">P1_17</text><text x="-36.862" y="395.613" transform="matrix(0 -1 1 0 -287.553 -5.487)" class="C D">P1_29</text><text x="-179.071" y="401.707" transform="matrix(0 -1 1 0 -287.553 -5.487)" class="C D">IOREF</text><text x="-179.071" y="446.79" transform="matrix(0 -1 1 0 -287.553 -5.487)" class="C D">GND</text><text x="-36.862" y="509.075" transform="matrix(0 -1 1 0 -287.553 -5.487)" class="C D">P0_19</text><text x="-36.862" y="518.063" transform="matrix(0 -1 1 0 -287.553 -5.487)" class="C D">P0_18</text><text x="-179.071" y="392.562" transform="matrix(0 -1 1 0 -287.553 -5.487)" class="C D">P0_23</text><text x="-36.862" y="405.713" transform="matrix(0 -1 1 0 -287.553 -5.487)" class="C D">P0_8</text><text x="-36.862" y="440.078" transform="matrix(0 -1 1 0 -287.553 -5.487)" class="C D">P1_26</text><text x="-36.862" y="454.393" transform="matrix(0 -1 1 0 -287.553 -5.487)" class="C D">P1_5</text><text x="-36.862" y="481.234" transform="matrix(0 -1 1 0 -287.553 -5.487)" class="C D">P1_18</text><text x="-36.862" y="498.77" transform="matrix(0 -1 1 0 -287.553 -5.487)" class="C D">P0_17</text><text x="464.497" y="135.374" transform="translate(-287.553 -3.487)" class="C D">SDA</text><text x="464.497" y="148.973" transform="translate(-287.553 -3.487)" class="C D">GND</text><text x="464.497" y="128.574" transform="translate(-287.553 -3.487)" class="C D">SCL</text><text x="464.139" y="142.174" transform="translate(-287.553 -3.487)" class="C D">3V3</text><text x="499.644" y="135.33" transform="translate(-287.553 -3.487)" class="C D">TX</text><text x="499.644" y="148.929" transform="translate(-287.553 -3.487)" class="C D">GND</text><text x="499.644" y="128.53" transform="translate(-287.553 -3.487)" class="C D">RX</text><text x="499.644" y="142.129" transform="translate(-287.553 -3.487)" class="C D">3V3</text><text x="331.65" y="179.578" transform="translate(-287.553 -5.487)" class="C D">PWR</text><text x="-40.228" y="518.616" transform="matrix(0 -1 1 0 -287.553 -5.487)" class="C D">~</text><text x="-40.228" y="509.778" transform="matrix(0 -1 1 0 -287.553 -5.487)" class="C D">~</text><text x="-40.228" y="473.141" transform="matrix(0 -1 1 0 -287.553 -5.487)" class="C D">~</text><text x="-40.228" y="463.817" transform="matrix(0 -1 1 0 -287.553 -5.487)" class="C D">~</text><text x="-40.228" y="440.836" transform="matrix(0 -1 1 0 -287.553 -5.487)" class="C D">~</text><text x="-40.228" y="396.465" transform="matrix(0 -1 1 0 -269.553 -5.487)" class="C D">~</text><text x="-40.228" y="406.541" transform="matrix(0 -1 1 0 -287.553 -5.487)" class="C D">~</text><text x="496.307" y="129.016" transform="translate(-287.553 -3.487)" class="C D">~</text><text x="496.309" y="136.264" transform="translate(-287.553 -3.487)" class="C D">~</text><text x="440.218" y="116.765" transform="translate(-287.553 -3.487)" class="C D">ANALOG</text><text x="431.318" y="135.229" transform="translate(-287.553 -3.487)" class="C D">A0</text><text x="431.318" y="148.828" transform="translate(-287.553 -3.487)" class="C D">GND</text><text x="431.318" y="128.429" transform="translate(-287.553 -3.487)" class="C D">A1</text><text x="430.961" y="142.028" transform="translate(-287.553 -3.487)" class="C D">3V3</text></g><g transform="matrix(1.248096 0 0 1.248096 -564.61618 -156.10148)" stroke="#fff" stroke-width=".864" class="K"><path d="M466.823 271.92h3.6" class="U"/><path d="M473.303 271.92a2.88 2.88 0 0 0-2.882-2.881m.002 5.76a2.88 2.88 0 0 0 2.882-2.881"/><g class="U"><path d="M473.303 271.92h2.52m0 1.8h3.6m-16.2 0h3.6"/><path d="M465.023 271.92v3.6"/></g><circle cx="470.423" cy="271.919" r="1.139"/></g><g transform="matrix(1.248096 0 0 1.248096 7.58159 5.308174)" class="B"><path d="M53.384 28.423c-3.356 2.915-2.7 8.088.8 10.44-2.03-3.557-2.2-7.022-.8-10.44m2.734 0c3.356 2.915 2.7 8.088-.8 10.44 2.03-3.557 2.2-7.022.8-10.44m-7.755 2.7c-1.308 4.105 1.75 8.524 6.088 8.732-2.953-1.58-5.484-4.68-6.088-8.732m12.777 0c1.307 4.105-1.75 8.524-6.1 8.732 2.953-1.58 5.484-4.68 6.1-8.732" fill-rule="evenodd"/><path d="M93.135 31.992l-.184-.005a2.77 2.77 0 0 0-2.133.933c-.563.6-.845 1.318-.845 2.15a3 3 0 0 0 .845 2.141 2.77 2.77 0 0 0 2.133.933l.184-.006V37c-.558-.001-1.027-.188-1.407-.56-.38-.367-.57-.823-.57-1.367 0-.537.2-.993.57-1.367s.85-.56 1.407-.562v-1.15zm3.16 5.972v-7.64h-1.18v2.638c-.54-.603-1.197-.926-1.978-.97v1.15h.007a1.9 1.9 0 0 1 1.386.562c.4.38.585.837.585 1.367s-.195.985-.585 1.367a1.9 1.9 0 0 1-1.386.561h-.007v1.14a2.74 2.74 0 0 0 1.978-.97v.795h1.18zm-10.07-5.977c-.867.002-1.608.304-2.222.9-.626.615-.938 1.34-.938 2.172 0 .84.312 1.562.938 2.162.614.606 1.355.9 2.222.9V37c-.46-.001-.87-.142-1.23-.424-.326-.247-.544-.56-.652-.933h1.883V34.49H84.34c.108-.367.326-.678.652-.933a1.99 1.99 0 0 1 1.231-.414v-1.155zm0 6.157h.006c.5 0 .96-.115 1.414-.345s.843-.55 1.17-.96l-1.006-.625c-.2.26-.448.457-.722.588S86.53 37 86.23 37h-.006v1.145zm3.16-3.074c0-.847-.313-1.572-.938-2.172a3.04 3.04 0 0 0-2.216-.911h-.006v1.155h.006c.462 0 .87.138 1.224.414.3.233.526.544.652.933h-1.882v1.154h3.106l.04-.317.014-.255m-10.07-3.084c-.868.002-1.6.304-2.223.9-.626.615-.938 1.34-.938 2.172a2.89 2.89 0 0 0 .938 2.162c.614.606 1.355.9 2.223.9V37a1.95 1.95 0 0 1-1.231-.424 1.78 1.78 0 0 1-.653-.933h1.883V34.49H77.43c.1-.367.327-.678.653-.933a1.99 1.99 0 0 1 1.231-.414v-1.155zm0 6.157h.007c.5 0 .96-.115 1.412-.345s.843-.55 1.17-.96l-1.006-.625c-.208.26-.448.457-.72.588a1.93 1.93 0 0 1-.855.196h-.007v1.145zm3.16-3.074c0-.847-.313-1.572-.938-2.172a3.04 3.04 0 0 0-2.215-.911h-.007v1.155h.007a1.93 1.93 0 0 1 1.223.414c.308.233.526.544.652.933h-1.882v1.154h3.105l.04-.317.013-.255m-10.07-3.084c-.867.002-1.6.304-2.222.9-.626.615-.938 1.34-.938 2.172 0 .84.312 1.562.938 2.162.614.606 1.355.9 2.222.9V37c-.46-.001-.87-.142-1.23-.424-.326-.247-.543-.56-.652-.933h1.882V34.49H70.52a1.82 1.82 0 0 1 .652-.933 1.99 1.99 0 0 1 1.231-.414v-1.155zm0 6.157h.007a3.05 3.05 0 0 0 1.413-.345c.453-.23.843-.55 1.17-.96l-1.006-.625c-.208.26-.448.457-.72.588a1.94 1.94 0 0 1-.856.196h-.007v1.145zm3.16-3.074c0-.847-.313-1.572-.938-2.172a3.04 3.04 0 0 0-2.216-.911H72.4v1.155h.007c.463 0 .87.138 1.223.414.308.233.526.544.652.933H72.4v1.154h3.106l.04-.317.014-.255"/><path d="M68.5 36.32c0-.742-.345-1.243-1.033-1.505h.014c-.055-.028-.662-.15-1.822-.37-.58-.12-.87-.332-.87-.636 0-.227.14-.4.422-.52.226-.1.494-.148.802-.148s.58.05.815.148a.64.64 0 0 1 .408.636h1.17c0-.657-.267-1.155-.802-1.495-.462-.297-.992-.444-1.6-.444s-1.128.148-1.6.444c-.535.34-.802.8-.802 1.38 0 .742.344 1.247 1.033 1.516.055.02.23.06.53.12l1.277.25c.58.12.87.33.87.626 0 .453-.44.678-1.32.678a2.78 2.78 0 0 1-.482-.037 2.42 2.42 0 0 1-.387-.101h.014a.65.65 0 0 1-.462-.656h-1.17c0 .664.286 1.17.856 1.515.5.283 1.033.424 1.63.424.318 0 .6-.036.877-.107a2.85 2.85 0 0 0 .755-.317c.57-.346.856-.812.856-1.4m57.17-4.334a3.06 3.06 0 0 0-2.222.91c-.625.615-.938 1.34-.938 2.172a2.89 2.89 0 0 0 .938 2.162 3.05 3.05 0 0 0 2.222.911V37c-.56-.001-1.028-.188-1.407-.56-.38-.367-.57-.824-.57-1.367 0-.536.2-.993.57-1.367s.848-.56 1.407-.562V31.99zm3.16 3.084a2.9 2.9 0 0 0-.938-2.172 3.04 3.04 0 0 0-2.215-.911h-.007v1.155h.007c.543 0 1.007.187 1.385.562.4.38.585.837.585 1.367a1.85 1.85 0 0 1-.585 1.367 1.9 1.9 0 0 1-1.385.561h-.007v1.145h.007a3.04 3.04 0 0 0 2.215-.911 2.87 2.87 0 0 0 .938-2.162"/><path d="M121.846 30.895c0-.213-.073-.392-.217-.54s-.33-.223-.56-.223a.75.75 0 0 0-.55.223.73.73 0 0 0-.225.54.73.73 0 0 0 .225.54.75.75 0 0 0 .549.223c.228 0 .414-.075.56-.223a.75.75 0 0 0 .217-.54m-.2 1.282h-1.17v5.787h1.17v-5.787zm-5.395-.185l-.184-.005a2.77 2.77 0 0 0-2.133.933c-.562.6-.842 1.318-.842 2.15a3 3 0 0 0 .842 2.141 2.77 2.77 0 0 0 2.133.933l.184-.006V37c-.56-.001-1.028-.188-1.407-.56a1.82 1.82 0 0 1-.573-1.367 1.84 1.84 0 0 1 .573-1.367c.378-.374.847-.56 1.407-.562v-1.15zm3.16 5.972v-7.64h-1.183v2.638a2.77 2.77 0 0 0-1.977-.97v1.15h.005c.544 0 1.006.188 1.387.562.4.38.585.837.585 1.367s-.195.985-.585 1.367c-.38.374-.843.56-1.387.56h-.005v1.14c.788-.043 1.447-.366 1.977-.97v.795h1.183zm-7.155 0v-5.787h-1.17v3.445a1.34 1.34 0 0 1-.409.975 1.54 1.54 0 0 1-.454.297 1.41 1.41 0 0 1-.551.106 1.36 1.36 0 0 1-.993-.403 1.32 1.32 0 0 1-.421-.975v-3.445h-1.17v3.445c0 .67.22 1.255.666 1.75a2.22 2.22 0 0 0 1.726.774 2.27 2.27 0 0 0 1.604-.636v.456h1.17zm-5.81-4.642v-1.145h-1.143v-1.304h-1.182v1.304h-1.143v1.145h1.143v4.8h1.182v-4.8h1.143zm-4.112 2.998c0-.742-.344-1.243-1.033-1.505h.014c-.055-.028-.66-.15-1.822-.37-.58-.12-.87-.332-.87-.636 0-.227.14-.4.422-.52.226-.1.494-.148.802-.148s.58.05.815.148a.64.64 0 0 1 .408.636h1.17c0-.657-.267-1.155-.802-1.495-.463-.297-.992-.444-1.6-.444a2.94 2.94 0 0 0-1.6.444c-.535.34-.802.8-.802 1.38 0 .742.344 1.247 1.033 1.516.055.02.23.06.53.12l1.278.25c.58.12.87.33.87.626 0 .453-.44.678-1.32.678-.18 0-.34-.012-.483-.037a2.49 2.49 0 0 1-.386-.1H99a.65.65 0 0 1-.462-.656h-1.17c0 .664.286 1.17.857 1.515a3.2 3.2 0 0 0 1.631.424 3.42 3.42 0 0 0 .877-.107 2.86 2.86 0 0 0 .754-.317c.57-.346.857-.812.857-1.4"/></g><path d="M170.115 41.86v12.113h27c0-12.113 0 1.722 0-12.113zm18.584 2.965h1.307v2.36c.304-.39.702-.765 1.37-.765 1 0 1.594.653 1.594 1.72v3.028h-1.34v-2.614c0-.626-.293-.924-.797-.924s-.83.3-.83.924v2.614H188.7zm-13.102.223h1.21l2.614 6.12h-1.403l-.542-1.37h-2.582l-.542 1.37h-1.37zm7.427 1.37v1.37h-.064c-.878 0-1.403.545-1.403 1.658v1.72h-1.34v-4.654h1.34v.924c.27-.643.684-1.055 1.466-1.02zm2.933 0c.878 0 1.414.3 1.85.797l-.797.86c-.295-.313-.615-.5-1.084-.5-.66 0-1.116.59-1.116 1.275 0 .713.458 1.307 1.18 1.307.443 0 .73-.206 1.052-.5l.797.797c-.452.495-.983.83-1.913.83a2.36 2.36 0 0 1-2.423-2.391v-.032c0-1.33 1.03-2.423 2.455-2.423zm-9.786.223l-.797 1.976H177z" class="B"/><g transform="matrix(1.249998 0 0 1.249998 132.24598 -1162.9075)"><g class="B"><use xlink:href="#X"/><use xlink:href="#Y"/><use xlink:href="#Z"/><path d="M31.614 1046.61h-1.562v-19.477h1.562v19.477z"/><use xlink:href="#a"/></g><path d="M16.992 1031.905h2.413v9.937h-2.413v-9.937z" class="P"/><g class="F N"><g class="K O"><path d="M31.614 1027.135v-4.543m0 4.543h-1.562m.018-2.98l-.017 2.98m-9.086-2.98h9.103m-9.103 4.968h-1.562m.001-1.702v1.703m12.208 17.487v-19.477m-12.208 1.99v2.782m-2.272-9.312v4.827m2.272.001h-2.27m2.27 4.485h-2.413m13.06 17.688h-9.085m9.085-2.983v2.98m1.562-2.98h-1.562m1.562 0v4.543m-12.208-4.825v-1.704m0 0h1.562m-1.562 0v-2.782m-2.272 9.312v-4.826m2.272 0h-2.27"/><path d="M19.406 1041.842h-2.413m.14-19.25h14.48"/><path d="M19.406 1031.905v9.937m12.208 9.312h-14.48"/><path d="M30.052 1027.135v19.477"/></g><g class="E Q"><path d="M24.8 1029.065v-1.42h1.42v1.42H24.8zm1.42 4.213v1.42H24.8v-1.42h1.42z"/><use xlink:href="#b"/><use xlink:href="#b" y="5.678"/></g></g></g><defs ><path id="B" d="M336.717 742.5l-1.417 1.418v-5.104l1.417 1.418v2.268z"/><path id="C" d="M336.717 740.232l-1.417-1.418h5.102l-1.417 1.418h-2.267z"/><path id="D" d="M338.985 740.232l1.417-1.418v5.104l-1.417-1.418v-2.268z"/><path id="E" d="M317.387 742.5l1.417 1.418h-5.102l1.417-1.418h2.267z"/><path id="F" d="M56.655 6.237l1.417-1.418v5.104l-1.417-1.418V6.237z"/><path id="G" d="M119.18 8.505l-1.417 1.418V4.82l1.417 1.418v2.268z"/><path id="H" d="M179.812 8.228l-1.417 1.418V4.542l1.417 1.418v2.268z"/><path id="I" d="M182.08 5.96l1.417-1.418v5.104l-1.417-1.418V5.96z"/><path id="J" d="M12.84 1039.76l-1.417 1.418H7.057l-1.417-1.418v-4.367l1.417-1.418h4.365l1.417 1.418v4.367zm-2.693-1.276v-1.815H8.333v1.815h1.814z"/><path id="K" d="M7.057 1048.38l-1.417-1.418v-4.367l1.417-1.418h4.365l1.417 1.418v4.367l-1.417 1.418H7.057zm1.275-4.508v1.815h1.814v-1.815H8.333z"/><path id="L" d="M7.057 1048.38h4.365l1.417 1.418v4.366l-1.417 1.418H7.057l-1.417-1.418v-4.366l1.417-1.418zm1.275 2.694v1.815h1.814v-1.815H8.333z"/><path id="M" d="M12.84 1039.76v-4.367l1.417-1.418h4.365l1.417 1.418v4.367l-1.417 1.418h-4.365l-1.417-1.418zm4.507-1.276v-1.815h-1.814v1.815h1.814z"/><path id="N" d="M20.04 1049.8v4.366l-1.417 1.418h-4.365l-1.417-1.418v-4.366l1.417-1.418h4.365l1.417 1.418zm-4.507 1.276v1.815h1.814v-1.815h-1.814z"/><path id="O" d="M12.84 1046.963v-4.367l1.417-1.418h4.365l1.417 1.418v4.367l-1.417 1.418h-4.365l-1.417-1.418zm2.693-1.276h1.814v-1.815h-1.814v1.815z"/><path id="P" d="M9.948 1051.273v1.418H8.53v-1.418h1.417z"/><path id="Q" d="M10.147 1051.074v1.815l-.198-.198v-1.418l.198-.198z"/><path id="R" d="M8.333 1052.89v-1.815l.198.198v1.418l-.198.198z"/><path id="S" d="M8.333 1051.074h1.814l-.198.198H8.532l-.198-.198z"/><path id="T" d="M8.532 1052.7H9.95l.198.198H8.333l.198-.198z"/><path id="U" d="M17.148 1051.273v1.418H15.73v-1.418h1.417z"/><path id="V" d="M15.532 1051.074h1.814l-.198.198H15.73l-.198-.198z"/><path id="W" d="M15.73 1052.7h1.417l.198.198h-1.814l.198-.198z"/><path id="X" d="M31.614 1022.592v4.543h-1.562l.017-2.98h-9.103v4.968h-1.562v-1.703h-2.27v-4.827h14.48z"/><path id="Y" d="M31.614 1046.61v4.543h-14.48v-4.826h2.27v-1.704h1.562v4.968h9.085v-2.98h1.562z"/><path id="Z" d="M20.967 1049.593v-25.44h9.103l-.017 2.98v22.458h-9.085zm3.833-20.527h1.42v-1.42H24.8v1.42zm1.42 5.632v-1.42H24.8v1.42h1.42zm0 9.983H24.8v1.42h1.42v-1.42zm-1.42-4.26h1.42v-1.42H24.8v1.42z"/><path id="a" d="M19.406 1031.905v-2.782h1.562v15.502h-1.562v-12.72z"/><path id="b" d="M24.8 1039.002h1.42v1.42H24.8v-1.42z"/><path id="c" d="M213.882 65.098a2.69 2.69 0 0 0-2.686 2.686 2.69 2.69 0 0 0 2.686 2.686 2.69 2.69 0 0 0 2.686-2.686 2.69 2.69 0 0 0-2.686-2.686zm0 1.354a1.34 1.34 0 0 1 1.354 1.332 1.36 1.36 0 0 1-1.354 1.354 1.36 1.36 0 0 1-1.354-1.354 1.34 1.34 0 0 1 1.354-1.332z"/></defs></svg>