<?xml version='1.0' encoding='utf-8'?>
<svg xmlns="http://www.w3.org/2000/svg" height="0.1in" baseProfile="tiny" width="0.3in" version="1.2" x="0in" y="0in"  viewBox="0 0 3000 1000">
    <desc>
        <referenceFile>generic_male_pin_header_3_100mil_bread.svg</referenceFile>
    </desc>
    <g id="breadboard" gorn="0.0" >
        <polygon  fill="#404040" points="217.113,0 0,217.113 0,782.747 217.113,1000 782.747,1000 1000,782.747 1000,217.113 782.747,0 217.113,0"/>
        <rect height="387.692" width="387.692" id="connector0pin" x="306.153" y="306.153" gorn="0.0.1"  fill="none"/>
        <rect height="314.210" width="300.597" id="connector0terminal" x="349.77" y="342.964" gorn="0.0.2"  fill="none"/>
        <rect height="319.211" width="319.211" x="340.463" y="340.463"  fill="#8D8C8C"/>
        <rect height="164.189" width="164.189" x="417.974" y="417.974"  fill="#8C8663"/>
        <polygon  fill="#B8AF82" points="340.463,340.463 417.974,417.974 582.025,417.974 659.674,340.463"/>
        <polygon  fill="#80795B" points="582.025,582.025 582.025,417.974 659.674,340.463 659.674,659.674 &#x9;"/>
        <polygon  fill="#5E5B43" points="417.974,582.025 582.025,582.025 659.674,659.674 340.463,659.674&#x9;&#x9;"/>
        <polygon  fill="#9A916C" points="340.463,340.463 417.974,417.974 417.974,582.025 340.463,659.674 &#x9;"/>
        <polygon  fill="#404040" points="1217.11,0 1000,217.113 1000,782.747 1217.11,1000 1782.75,1000 2000,782.747 2000,217.113 1782.75,0 1217.11,0"/>
        <rect height="387.692" width="387.692" id="connector1pin" x="1306.15" y="306.153" gorn="0.0.10"  fill="none"/>
        <rect height="314.210" width="300.597" id="connector1terminal" x="1349.77" y="342.964" gorn="0.0.11"  fill="none"/>
        <rect height="319.211" width="319.211" x="1340.46" y="340.463"  fill="#8D8C8C"/>
        <rect height="164.189" width="164.189" x="1417.97" y="417.974"  fill="#8C8663"/>
        <polygon  fill="#B8AF82" points="1340.46,340.463 1417.97,417.974 1582.03,417.974 1659.67,340.463"/>
        <polygon  fill="#80795B" points="1582.03,582.025 1582.03,417.974 1659.67,340.463 1659.67,659.674 &#x9;"/>
        <polygon  fill="#5E5B43" points="1417.97,582.025 1582.03,582.025 1659.67,659.674 1340.46,659.674&#x9;&#x9;"/>
        <polygon  fill="#9A916C" points="1340.46,340.463 1417.97,417.974 1417.97,582.025 1340.46,659.674 &#x9;"/>
        <polygon  fill="#404040" points="2217.11,0 2000,217.113 2000,782.747 2217.11,1000 2782.75,1000 3000,782.747 3000,217.113 2782.75,0 2217.11,0"/>
        <rect height="387.692" width="387.692" id="connector2pin" x="2306.15" y="306.153" gorn="0.0.19"  fill="none"/>
        <rect height="314.210" width="300.597" id="connector2terminal" x="2349.77" y="342.964" gorn="0.0.20"  fill="none"/>
        <rect height="319.211" width="319.211" x="2340.46" y="340.463"  fill="#8D8C8C"/>
        <rect height="164.189" width="164.189" x="2417.97" y="417.974"  fill="#8C8663"/>
        <polygon  fill="#B8AF82" points="2340.46,340.463 2417.97,417.974 2582.03,417.974 2659.67,340.463"/>
        <polygon  fill="#80795B" points="2582.03,582.025 2582.03,417.974 2659.67,340.463 2659.67,659.674 &#x9;"/>
        <polygon  fill="#5E5B43" points="2417.97,582.025 2582.03,582.025 2659.67,659.674 2340.46,659.674&#x9;&#x9;"/>
        <polygon  fill="#9A916C" points="2340.46,340.463 2417.97,417.974 2417.97,582.025 2340.46,659.674 &#x9;"/>
    </g>
</svg>
