<?xml version='1.0' encoding='UTF-8' standalone='no'?>
<svg
  xmlns:dc="http://purl.org/dc/elements/1.1/"
  xmlns:cc="http://creativecommons.org/ns#"
  xmlns:rdf="http://www.w3.org/1999/02/22-rdf-syntax-ns#"
  xmlns:svg="http://www.w3.org/2000/svg"
  xmlns="http://www.w3.org/2000/svg"
  id="svg8"
  gorn="0"
  version="1.1"
  xml:space="preserve"
  viewBox="0 0 1090.0108 1968.6465"
  y="0px"
  height="1.9686458in"
  enable-background="new 0 0 78.48 141.74"
  x="0px"
  width="1.0900104in">
  <metadata
    id="metadata174">
    <rdf:RDF>
      <cc:Work
        rdf:about="">
        <dc:format>image/svg+xml</dc:format>
        <dc:type
          rdf:resource="http://purl.org/dc/dcmitype/StillImage"
        />
        <dc:title/>
      </cc:Work>
    </rdf:RDF>
  </metadata>
  <defs
    id="defs172">
                                        </defs>
  <g
    id="breadboard">
    <path
      id="rect9174"
      gorn="0.1"
      d="M 1084.0247,1118.6311 H 965.96945 c -3.29166,0 -5.97221,2.6667 -5.97221,5.9722 v 118.0558 c 0,3.2916 2.66666,5.9722 5.97221,5.9722 h 118.05525 c 3.3055,0 5.9861,-2.6667 5.9861,-5.9722 v -118.0558 c -0.014,-3.2917 -2.6806,-5.9722 -5.9861,-5.9722 z"
      fill="#0088aa"
      stroke-width="13.88888168"
    />
    <path
      id="rect9172"
      gorn="0.2"
      d="M 5.9722051,1118.6172 H 124.02742 c 3.29166,0 5.97221,2.6806 5.97221,5.9861 v 118.0558 c 0,3.2916 -2.66666,5.9722 -5.97221,5.9722 H 5.9722051 C 2.666659,1248.6313 0,1245.9507 0,1242.6591 v -118.0558 c 0,-3.2917 2.666659,-5.9861 5.9722051,-5.9861 z"
      fill="#0088aa"
      stroke-width="13.88888168"
    />
    <path
      id="rect9170"
      gorn="0.3"
      d="m 139.9996,1068.631 h 809.99767 c 11.04164,0 19.98606,11.5139 19.98606,25.7223 v 848.5709 c 0,14.1944 -8.95831,25.7222 -19.98606,25.7222 H 139.9996 c -11.04164,0 -19.98606,-11.5139 -19.98606,-25.7222 v -848.5848 c -0.0139,-14.1945 8.94442,-25.7084 19.98606,-25.7084 z"
      fill="#0088aa"
      stroke-width="13.88888168"
    />
    <path
      id="path9160"
      gorn="0.4"
      d="m 959.08058,1176.6451 c 0,33.6389 27.2777,60.9167 60.91652,60.9167 33.6388,0 60.9165,-27.2778 60.9165,-60.9167 0,-16.9723 -0.9167,1.9861 -0.9167,-118.0141 0,0 -61.4998,15.5278 -78.1664,15.5278 -33.65272,0 -42.74992,68.8473 -42.74992,102.4863 z"
      fill="#333333"
      stroke-width="13.88888168"
    />
    <path
      id="circle9155"
      gorn="0.5"
      d="m 130.91629,1176.6451 c 0,33.6389 -27.2777,60.9167 -60.916491,60.9167 -33.638792,0 -60.9164917,-27.2778 -60.9164917,-60.9167 0,-16.9723 0.916664,1.9861 0.916664,-118.0141 0,0 61.4998237,15.5278 78.1664427,15.5278 33.652676,0 42.749876,68.8473 42.749876,102.4863 z"
      fill="#333333"
      stroke-width="13.88888168"
    />
    <ellipse
      id="path9153"
      cx="69.999802"
      gorn="0.6"
      cy="1064.6045"
      rx="60.902607"
      ry="60.902885"
      fill="#4d4d4d"
      stroke-width="13.88888168"
    />
    <rect
      id="rect4759"
      gorn="0.7"
      y="1001.0211"
      height="2.6805604"
      x="69.999802"
      width="949.99731"
      fill="#b3b3b3"
      fill-opacity="0.57999998"
      stroke-width="13.88888168"
    />
    <polygon
      id="polygon4735"
      gorn="0.8"
      points="11.814,44.618 11.814,53.532 26.055,53.532 26.055,44.618 "
      transform="matrix(13.888849,0,0,13.888913,0,0.00416668)"
      fill="#4d4d4d"
    />
    <rect
      id="rect4737"
      gorn="0.9"
      y="619.69983"
      height="123.80576"
      x="722.27576"
      width="197.77721"
      fill="#4d4d4d"
      stroke-width="13.88888168"
    />
    <rect
      id="rect4739"
      gorn="0.10"
      y="1003.7014"
      height="126.93077"
      x="69.999802"
      width="949.99731"
      fill="#4d4d4d"
      stroke-width="13.88888168"
    />
    <rect
      id="rect4757"
      gorn="0.11"
      y="1125.5076"
      height="2.6666713"
      x="69.999802"
      width="949.99731"
      stroke-width="13.88888168"
    />
    <rect
      id="rect4741"
      gorn="0.12"
      y="1127.7014"
      height="109.8613"
      x="69.999802"
      width="949.99731"
      fill="#333333"
      stroke-width="13.88888168"
    />
    <rect
      id="rect4743"
      gorn="0.13"
      y="742.20099"
      height="385.51456"
      x="164.13841"
      width="197.77721"
      fill="#333333"
      stroke-width="13.88888168"
    />
    <rect
      id="rect4745"
      gorn="0.14"
      y="742.20099"
      height="385.51456"
      x="722.30347"
      width="197.77721"
      fill="#333333"
      stroke-width="13.88888168"
    />
    <rect
      id="rect4749"
      gorn="0.15"
      y="617.01935"
      height="2.6805604"
      x="164.08287"
      width="197.79111"
      fill="#b3b3b3"
      stroke-width="13.88888168"
    />
    <rect
      id="rect4751"
      gorn="0.16"
      y="617.01935"
      height="2.6805604"
      x="722.27576"
      width="197.77721"
      fill="#b3b3b3"
      stroke-width="13.88888168"
    />
    <rect
      id="rect4753"
      gorn="0.17"
      y="740.85315"
      height="2.6527824"
      x="164.08287"
      width="197.79111"
      fill="#b3b3b3"
      fill-opacity="0.57999998"
      stroke-width="13.88888168"
    />
    <rect
      id="rect4755"
      gorn="0.18"
      y="1235.02"
      height="2.6527824"
      x="119.3191"
      width="844.80316"
      stroke-width="13.88888168"
    />
    <rect
      id="rect4761"
      gorn="0.19"
      y="740.85315"
      height="2.6527824"
      x="722.30347"
      width="197.77721"
      fill="#b3b3b3"
      fill-opacity="0.57999998"
      stroke-width="13.88888168"
    />
    <rect
      id="rect4763"
      gorn="0.20"
      y="661.57513"
      height="2.6666713"
      x="327.15186"
      width="34.76379"
      fill="#b3b3b3"
      stroke-width="13.88888168"
    />
    <rect
      id="rect4765"
      gorn="0.21"
      y="661.57513"
      height="2.6666713"
      x="722.26178"
      width="34.76379"
      fill="#b3b3b3"
      stroke-width="13.88888168"
    />
    <rect
      id="rect4767"
      gorn="0.22"
      y="664.242"
      height="34.722282"
      x="327.15186"
      width="34.722122"
      fill="#1a1a1a"
      stroke-width="13.88888168"
    />
    <rect
      id="rect4769"
      gorn="0.23"
      y="664.242"
      height="34.722282"
      x="722.27576"
      width="34.722122"
      fill="#1a1a1a"
      stroke-width="13.88888168"
    />
    <ellipse
      cy="457.83429"
      rx="20.722162"
      ry="30.694498"
      gorn="0.24.0.0.0"
      cx="449.79126"
      id="connector0pin-8"
      fill="none"
      stroke="#9a916c"
      stroke-width="1.27222145"
    />
    <ellipse
      cy="458.06995"
      rx="36.236008"
      ry="53.666759"
      gorn="0.24.0.0.1"
      cx="475.18005"
      id="connector0pin_1_"
      fill="none"
      stroke="#9a916c"
      stroke-width="1.27222145"
    />
    <path
      d="m 577.8881,458.07023 c 0,-53.25009 -1.58332,-104.15296 -4.36109,-151.68082 V 0 h -71.94424 c -42.15266,0 -76.30534,205.09757 -76.30534,458.05634 0,252.95877 34.15268,458.04246 76.30534,458.04246 h 71.94424 V 609.69549 c 2.76388,-47.48619 4.36109,-98.38906 4.36109,-151.62526 z"
      gorn="0.24.0.0.2"
      id="path4674"
      fill="#999999"
      stroke-width="13.88888168"
    />
    <path
      d="m 454.99957,789.40414 c 13.80551,75.08346 31.74991,121.09743 51.69429,121.09743 h 54.81929 c -21.36105,-46.18064 -22.05549,-5.16668 -59.93038,-29.6945 -28.9027,-18.68059 -28.05548,-60.3751 -46.5832,-91.40293 z"
      gorn="0.24.0.0.3"
      id="path4676"
      fill="#808080"
      stroke-width="13.88888168"
    />
    <path
      d="M 437.01351,307.09775 C 443.19405,207.4448 459.319,21.180592 508.27719,4.8472306 h 57.56928 C 554.55484,29.236162 550.58263,48.444528 536.916,65.625114 524.67992,80.972362 509.11052,75.222352 492.27724,74.347351 460.72177,72.666792 448.90236,216.48648 437.01351,307.09775 Z"
      gorn="0.24.0.0.4"
      id="path4678"
      fill="#e6e6e6"
      stroke-width="13.88888168"
    />
    <ellipse
      cy="458.06995"
      rx="76.305336"
      ry="458.05634"
      gorn="0.24.0.0.5"
      cx="573.52698"
      id="ellipse4680"
      fill="#e6e6e6"
      stroke-width="13.88888168"
    />
    <ellipse
      cy="458.06995"
      rx="16.069397"
      ry="96.54184"
      gorn="0.24.0.0.6"
      cx="573.52698"
      id="ellipse4682"
      fill="#808080"
      stroke-width="13.88888168"
    />
    <path
      d="m 573.52701,361.54229 c -2.95833,0 -5.68054,5.06945 -8.04165,13.38891 4.79166,16.70836 8.04165,47.50008 8.04165,83.13903 0,35.62506 -3.24999,66.43067 -8.04165,83.15292 2.36111,8.27779 5.08332,13.36114 8.04165,13.36114 8.87497,0 16.06939,-43.2223 16.06939,-96.54184 0,-53.30565 -7.20831,-96.50016 -16.06939,-96.50016 z"
      gorn="0.24.0.0.7"
      id="path4684"
      fill="#b3b3b3"
      stroke-width="13.88888168"
    />
    <path
      d="m 573.52701,361.54229 c -0.47222,0 -0.91667,0.30555 -1.36111,0.58333 8.41664,3.02778 15.12496,44.5973 15.12496,95.9585 0,51.37509 -6.69443,92.9446 -15.11107,95.97239 0.44444,0.27778 0.875,0.58333 1.34722,0.58333 8.88886,0 16.08328,-43.2223 16.08328,-96.54183 0,-53.31954 -7.2222,-96.52795 -16.08328,-96.52795 z"
      gorn="0.24.0.0.8"
      id="path4686"
      fill="#e6e6e6"
      stroke-width="13.88888168"
    />
    <path
      d="m 501.58277,458.07023 c 0,-248.55598 32.98601,-450.417439 74.12479,-457.41745109 C 574.97145,0.51388978 574.26312,0 573.52701,0 c -42.15266,0 -76.31923,205.09757 -76.31923,458.04245 0,252.97266 34.16657,458.05635 76.31923,458.05635 0.73611,0 1.44444,-0.52778 2.18055,-0.65278 -41.13878,-7.02779 -74.12479,-208.86147 -74.12479,-457.43135 z"
      gorn="0.24.0.0.9"
      id="path4688"
      fill="#f2f2f2"
      stroke-width="13.88888168"
    />
    <path
      d="m 573.52701,361.54229 c 0.74999,0 1.44444,0.72222 2.18055,1.33333 -0.0278,-21.1667 -9.13887,-357.8200557 -9.87498,-358.0145004 -9.7083,-2.8194494 -29.37491,55.8473184 -29.37491,55.8473184 l 28.0277,317.528322 c 2.56943,-10.51391 5.68053,-16.69447 9.04164,-16.69447 z"
      gorn="0.24.0.0.10"
      id="path4692"
      fill="#f2f2f2"
      stroke-width="13.88888168"
    />
    <path
      d="m 567.54091,532.57036 c -0.29166,4.30556 -2.05555,8.66668 -2.05555,8.66668 0,0 6.29165,27.75005 15.38885,2.51389 0,0 1.41666,-4.84723 2.34721,-8.73612 1.23611,-5.22223 -15.37495,-6.75001 -15.68051,-2.44445 z"
      gorn="0.24.0.0.11"
      id="path4694"
      fill="#f2f2f2"
      stroke-width="13.88888168"
    />
    <path
      d="m 570.01313,552.23706 5.69443,363.23674 c 0,0 22.34715,-13.45836 31.93046,-47.7362 -9.15275,-62.43066 -26.76381,-324.04222 -26.76381,-324.04222 z"
      gorn="0.24.0.0.12"
      id="path4696"
      fill="#f2f2f2"
      stroke-width="13.88888168"
    />
    <ellipse
      id="circle9162"
      cx="1019.9971"
      gorn="0.25"
      cy="1064.6045"
      rx="60.902607"
      ry="60.902885"
      fill="#4d4d4d"
      stroke-width="13.88888168"
    />
    <ellipse
      id="path9164"
      cx="69.999802"
      gorn="0.26"
      cy="1064.6045"
      rx="31.569353"
      ry="31.569498"
      fill="#1a1a1a"
      stroke-width="13.88888168"
    />
    <ellipse
      id="circle9166"
      cx="1019.9971"
      gorn="0.27"
      cy="1064.6045"
      rx="31.569353"
      ry="31.569498"
      fill="#1a1a1a"
      stroke-width="13.88888168"
    />
    <ellipse
      id="circle9644"
      cx="239.99931"
      gorn="0.28"
      cy="1518.6322"
      rx="89.999741"
      ry="90.000153"
      fill="#cccccc"
      stroke-width="13.88888168"
    />
    <ellipse
      id="path9642"
      cx="239.99931"
      gorn="0.29"
      cy="1518.6322"
      rx="74.999786"
      ry="75.00013"
      fill="#ffffff"
      stroke-width="13.88888168"
    />
    <ellipse
      id="ellipse9646"
      cx="849.99756"
      gorn="0.30"
      cy="1518.6322"
      rx="89.999741"
      ry="90.000153"
      fill="#cccccc"
      stroke-width="13.88888168"
    />
    <ellipse
      id="circle9648"
      cx="849.99756"
      gorn="0.31"
      cy="1518.6322"
      rx="74.999786"
      ry="75.00013"
      fill="#ffffff"
      stroke-width="13.88888168"
    />
    <rect
      id="connector0terminal"
      gorn="0.1.5"
      x="460.41876"
      width="10.000004"
      height="10.000004"
      y="1869.0646"
      fill="#ffcc00"
      stroke="none"
      stroke-width="0"
    />
    <rect
      id="connector1terminal"
      gorn="0.1.7"
      x="560.41882"
      width="10.000004"
      height="10.000004"
      y="1869.0647"
      fill="#ffcc00"
      stroke="none"
      stroke-width="0"
    />
    <rect
      id="connector2terminal"
      gorn="0.1.9"
      x="660.41888"
      width="10.000004"
      height="10.000004"
      y="1869.0647"
      fill="#ffcc00"
      stroke="none"
      stroke-width="0"
    />
    <polygon
      id="polygon7"
      points="1000,217.113 782.747,0 217.113,0 0,217.113 0,782.747 217.113,1000 782.747,1000 1000,782.747 "
      transform="matrix(-0.10000003,0,0,-0.10000003,695.63006,1641.9216)"
      fill="#404040"
    />
    <polygon
      id="polygon23"
      points="2000,217.113 1782.75,0 1217.11,0 1000,217.113 1000,782.747 1217.11,1000 1782.75,1000 2000,782.747 "
      transform="matrix(-0.10000003,0,0,-0.10000003,695.63006,1641.9216)"
      fill="#404040"
    />
    <polygon
      id="polygon39-2"
      points="3000,217.113 2782.75,0 2217.11,0 2000,217.113 2000,782.747 2217.11,1000 2782.75,1000 3000,782.747 "
      transform="matrix(-0.10000003,0,0,-0.10000003,695.63006,1641.9216)"
      fill="#404040"
    />
    <polygon
      id="polygon33"
      points="1582.03,417.974 1659.67,340.463 1659.67,659.674 1582.03,582.025 "
      transform="matrix(0.19251482,-0.02924925,0.05130483,0.05099886,107.77876,1903.8313)"
      fill="#aa8800"
    />
    <rect
      id="rect3422"
      width="8.8936462"
      height="8.5491552"
      x="-1596.0739"
      y="-1277.8892"
      transform="matrix(-0.81476953,-0.57978497,0.665266,-0.74660642,0,0)"
      fill="#d4aa00"
      fill-opacity="1"
      stroke-width="0.0999992"
    />
    <rect
      id="rect29"
      x="1871.165"
      height="9.4534855"
      y="-442.83319"
      width="16.418905"
      transform="rotate(90)"
      fill="#0088aa"
      stroke-width="0.09999929"
    />
    <polygon
      id="polygon35"
      points="1582.03,582.025 1659.67,659.674 1340.46,659.674 1417.97,582.025 "
      transform="matrix(-0.09999854,0,0.05217162,-0.12397894,582.05199,1960.9933)"
      fill="#d4aa00"
    />
    <rect
      id="rect43"
      x="-483.46198"
      height="31.92111"
      y="-1609.6393"
      width="31.920633"
      transform="scale(-1)"
      fill="#8d8c8c"
      stroke-width="0.09999929"
    />
    <rect
      id="rect45"
      x="-475.71109"
      height="16.418905"
      y="-1601.8882"
      width="16.418659"
      transform="scale(-1)"
      fill="#8c8663"
      stroke-width="0.09999929"
    />
    <polygon
      id="polygon47"
      points="2659.67,340.463 2340.46,340.463 2417.97,417.974 2582.03,417.974 "
      transform="matrix(-0.09999854,0,0,-0.10000003,717.50456,1643.6855)"
      fill="#b8af82"
    />
    <polygon
      id="polygon49"
      points="2659.67,659.674 2582.03,582.025 2582.03,417.974 2659.67,340.463 "
      transform="matrix(-0.09999854,0,0,-0.10000003,717.50456,1643.6855)"
      fill="#80795b"
    />
    <polygon
      id="polygon51"
      points="2340.46,659.674 2417.97,582.025 2582.03,582.025 2659.67,659.674 "
      transform="matrix(-0.09999854,0,0,-0.10000003,717.50456,1643.6855)"
      fill="#5e5b43"
    />
    <polygon
      id="polygon53-8"
      points="2340.46,659.674 2340.46,340.463 2417.97,417.974 2417.97,582.025 "
      transform="matrix(-0.09999854,0,0,-0.10000003,717.50456,1643.6855)"
      fill="#9a916c"
    />
    <rect
      id="connector0pin"
      width="32.000011"
      height="32.000011"
      x="-482.61264"
      y="-1879.3105"
      transform="scale(-1)"
      fill="#ffcc00"
      fill-opacity="1"
      stroke-width="0.05656856"
    />
    <rect
      y="-1874.2325"
      x="-450.71155"
      height="295.05222"
      width="8.0207167"
      id="rect3420"
      transform="scale(-1)"
      fill="#d4aa00"
      fill-opacity="1"
      stroke-width="0.09999929"
    />
    <rect
      id="rect3424"
      width="19.99971"
      height="28.838846"
      x="-443.94083"
      y="-1608.54"
      transform="scale(-1)"
      fill="#d4aa00"
      fill-opacity="1"
      stroke-width="0.09999929"
    />
    <rect
      id="rect27"
      x="-1426.7242"
      height="17.444296"
      y="-1069.9031"
      width="28.766565"
      transform="matrix(-0.7140099,-0.7001356,0.53240588,-0.84648921,0,0)"
      fill="#0088aa"
      stroke-width="0.09999944"
    />
    <rect
      y="-1879.3107"
      x="-482.61215"
      height="300.00012"
      width="31.999533"
      id="rect3681"
      transform="scale(-1)"
      fill="#ffcc00"
      fill-opacity="1"
      stroke-width="0.09999929"
    />
    <polygon
      transform="matrix(0.19251482,-0.02924925,0.05130483,0.05099886,207.9483,1903.8313)"
      points="1659.67,340.463 1659.67,659.674 1582.03,582.025 1582.03,417.974 "
      id="polygon3444"
      fill="#aa8800"
    />
    <rect
      transform="matrix(-0.81476953,-0.57978497,0.665266,-0.74660642,0,0)"
      y="-1219.4633"
      x="-1671.3108"
      height="8.5491552"
      width="8.8936462"
      id="rect3446"
      fill="#d4aa00"
      fill-opacity="1"
      stroke-width="0.0999992"
    />
    <rect
      transform="rotate(90)"
      width="16.418905"
      y="-543.00275"
      height="9.4534855"
      x="1871.165"
      id="rect3448"
      fill="#0088aa"
      stroke-width="0.09999929"
    />
    <polygon
      transform="matrix(-0.09999854,0,0.05217162,-0.12397894,682.22153,1960.9933)"
      points="1659.67,659.674 1340.46,659.674 1417.97,582.025 1582.03,582.025 "
      id="polygon3450"
      fill="#d4aa00"
    />
    <rect
      width="31.920633"
      y="-1609.6393"
      height="31.92111"
      x="-583.63153"
      id="rect3452"
      transform="scale(-1)"
      fill="#8d8c8c"
      stroke-width="0.09999929"
    />
    <rect
      width="16.418659"
      y="-1601.8882"
      height="16.418905"
      x="-575.88062"
      id="rect3454"
      transform="scale(-1)"
      fill="#8c8663"
      stroke-width="0.09999929"
    />
    <polygon
      transform="matrix(-0.09999854,0,0,-0.10000003,817.6741,1643.6855)"
      points="2340.46,340.463 2417.97,417.974 2582.03,417.974 2659.67,340.463 "
      id="polygon3456"
      fill="#b8af82"
    />
    <polygon
      transform="matrix(-0.09999854,0,0,-0.10000003,817.6741,1643.6855)"
      points="2582.03,582.025 2582.03,417.974 2659.67,340.463 2659.67,659.674 "
      id="polygon3458"
      fill="#80795b"
    />
    <polygon
      transform="matrix(-0.09999854,0,0,-0.10000003,817.6741,1643.6855)"
      points="2417.97,582.025 2582.03,582.025 2659.67,659.674 2340.46,659.674 "
      id="polygon3460"
      fill="#5e5b43"
    />
    <polygon
      transform="matrix(-0.09999854,0,0,-0.10000003,817.6741,1643.6855)"
      points="2340.46,340.463 2417.97,417.974 2417.97,582.025 2340.46,659.674 "
      id="polygon3462"
      fill="#9a916c"
    />
    <rect
      y="-1879.3107"
      x="-582.78217"
      height="32.000011"
      width="32.000008"
      id="connector1pin"
      transform="scale(-1)"
      fill="#ffcc00"
      fill-opacity="1"
      stroke-width="0.05656814"
    />
    <rect
      id="rect3466"
      width="8.0207167"
      height="295.05222"
      x="-550.8811"
      y="-1874.2325"
      transform="scale(-1)"
      fill="#d4aa00"
      fill-opacity="1"
      stroke-width="0.09999929"
    />
    <rect
      y="-1608.5344"
      x="-544.11035"
      height="28.83334"
      width="19.99971"
      id="rect3468"
      transform="scale(-1)"
      fill="#d4aa00"
      fill-opacity="1"
      stroke-width="0.09999929"
    />
    <rect
      transform="matrix(-0.7140099,-0.7001356,0.53240588,-0.84648921,0,0)"
      width="28.766565"
      y="-998.13141"
      height="17.444296"
      x="-1513.4988"
      id="rect3470"
      fill="#0088aa"
      stroke-width="0.09999944"
    />
    <rect
      id="rect3679"
      width="31.999533"
      height="300.00012"
      x="-582.78168"
      y="-1879.3107"
      transform="scale(-1)"
      fill="#ffcc00"
      fill-opacity="1"
      stroke-width="0.09999929"
    />
    <polygon
      id="polygon3474"
      points="1659.67,340.463 1659.67,659.674 1582.03,582.025 1582.03,417.974 "
      transform="matrix(0.19251482,-0.02924925,0.05130483,0.05099886,307.94685,1903.5904)"
      fill="#aa8800"
    />
    <rect
      id="rect3476"
      width="8.8936462"
      height="8.5491552"
      x="-1746.2579"
      y="-1160.9395"
      transform="matrix(-0.81476953,-0.57978497,0.665266,-0.74660642,0,0)"
      fill="#d4aa00"
      fill-opacity="1"
      stroke-width="0.0999992"
    />
    <rect
      id="rect3478"
      x="1870.9241"
      height="9.4534855"
      y="-643.00128"
      width="16.418905"
      transform="rotate(90)"
      fill="#0088aa"
      stroke-width="0.09999929"
    />
    <polygon
      id="polygon3480"
      points="1659.67,659.674 1340.46,659.674 1417.97,582.025 1582.03,582.025 "
      transform="matrix(-0.09999854,0,0.05217162,-0.12397894,782.22008,1960.7524)"
      fill="#d4aa00"
    />
    <rect
      id="rect3482"
      x="-683.63007"
      height="31.92111"
      y="-1609.3983"
      width="31.920633"
      transform="scale(-1)"
      fill="#8d8c8c"
      stroke-width="0.09999929"
    />
    <rect
      id="rect3484"
      x="-675.87921"
      height="16.418905"
      y="-1601.6472"
      width="16.418659"
      transform="scale(-1)"
      fill="#8c8663"
      stroke-width="0.09999929"
    />
    <polygon
      id="polygon3486"
      points="2340.46,340.463 2417.97,417.974 2582.03,417.974 2659.67,340.463 "
      transform="matrix(-0.09999854,0,0,-0.10000003,917.67265,1643.4446)"
      fill="#b8af82"
    />
    <polygon
      id="polygon3488"
      points="2582.03,582.025 2582.03,417.974 2659.67,340.463 2659.67,659.674 "
      transform="matrix(-0.09999854,0,0,-0.10000003,917.67265,1643.4446)"
      fill="#80795b"
    />
    <polygon
      id="polygon3490"
      points="2417.97,582.025 2582.03,582.025 2659.67,659.674 2340.46,659.674 "
      transform="matrix(-0.09999854,0,0,-0.10000003,917.67265,1643.4446)"
      fill="#5e5b43"
    />
    <polygon
      id="polygon3492"
      points="2340.46,340.463 2417.97,417.974 2417.97,582.025 2340.46,659.674 "
      transform="matrix(-0.09999854,0,0,-0.10000003,917.67265,1643.4446)"
      fill="#9a916c"
    />
    <rect
      id="connector2pin"
      width="32.000011"
      height="32.000011"
      x="-682.7807"
      y="-1879.0697"
      transform="scale(-1)"
      fill="#ffcc00"
      fill-opacity="1"
      stroke-width="0.05656856"
    />
    <rect
      y="-1873.9916"
      x="-650.87964"
      height="295.05222"
      width="8.0207167"
      id="rect3496"
      transform="scale(-1)"
      fill="#d4aa00"
      fill-opacity="1"
      stroke-width="0.09999929"
    />
    <rect
      id="rect3498"
      width="19.99971"
      height="28.83334"
      x="-644.10895"
      y="-1608.2936"
      transform="scale(-1)"
      fill="#d4aa00"
      fill-opacity="1"
      stroke-width="0.09999929"
    />
    <rect
      id="rect3500"
      x="-1599.9939"
      height="17.444296"
      y="-926.30621"
      width="28.766565"
      transform="matrix(-0.7140099,-0.7001356,0.53240588,-0.84648921,0,0)"
      fill="#0088aa"
      stroke-width="0.09999944"
    />
    <rect
      y="-1879.0697"
      x="-682.78021"
      height="300.00012"
      width="31.999533"
      id="rect3677"
      transform="scale(-1)"
      fill="#ffcc00"
      fill-opacity="1"
      stroke-width="0.09999929"
    />
    <text
      id="text3683"
      font-size="48.61104584"
      y="-525.30078"
      x="1419.8434"
      transform="rotate(90)"
      font-family="OCRA"
      fill="#ffffff"
      stroke-width="1.00000036">GND</text>
    <text
      x="1416.7152"
      y="-626.84436"
      font-size="48.61104584"
      id="text3685"
      transform="rotate(90)"
      font-family="OCRA"
      fill="#ffffff"
      stroke-width="1.00000036">OUT</text>
    <text
      x="1423.0996"
      y="-424.7999"
      font-size="48.61104584"
      id="text3687"
      transform="rotate(90)"
      font-family="OCRA"
      fill="#ffffff"
      stroke-width="1.00000036">VCC</text>
  </g>
</svg>
