<?xml version="1.0" encoding="utf-8"?>
<!-- Generator: Adobe Illustrator 20.0.0, SVG Export Plug-In . SVG Version: 6.00 Build 0)  -->
<svg version="1.2" baseProfile="tiny" id="Layer_1" xmlns="http://www.w3.org/2000/svg" xmlns:xlink="http://www.w3.org/1999/xlink"
	 x="0px" y="0px" width="5.669px" height="5.669px" viewBox="0 0 5.669 5.669" xml:space="preserve">
<rect x="0" y="0" transform="matrix(-1 -8.983804e-11 8.983804e-11 -1 5.6693 5.6693)" fill="#C8C8C8" width="5.669" height="5.669"/>
<rect x="0" y="0.354" transform="matrix(-1 -8.983804e-11 8.983804e-11 -1 0.9922 1.4173)" fill="#DCDCDC" width="0.992" height="0.709"/>
<rect x="4.677" y="0.354" transform="matrix(-1 -8.983804e-11 8.983804e-11 -1 10.3465 1.4173)" fill="#DCDCDC" width="0.992" height="0.709"/>
<polygon fill="#DCDCDC" points="0,4.606 0,5.315 2.48,5.315 2.48,5.669 3.189,5.669 3.189,5.315 5.669,5.315 5.669,4.606 
	3.189,4.606 3.189,3.898 5.669,3.898 5.669,3.189 3.189,3.189 3.189,2.48 5.669,2.48 5.669,1.772 3.189,1.772 3.189,0 2.48,0 
	2.48,1.772 0,1.772 0,2.48 2.48,2.48 2.48,3.189 0,3.189 0,3.898 2.48,3.898 2.48,4.606 "/>
<rect x="0.992" y="0.709" transform="matrix(-1 -8.983804e-11 8.983804e-11 -1 5.6693 6.0236)" fill="#646464" width="3.685" height="4.606"/>
</svg>
