<?xml version="1.0" encoding="utf-8"?>
<!-- Generator: Adobe Illustrator 20.0.0, SVG Export Plug-In . SVG Version: 6.00 Build 0)  -->
<svg version="1.2" baseProfile="tiny" id="Layer_1" xmlns="http://www.w3.org/2000/svg" xmlns:xlink="http://www.w3.org/1999/xlink"
	 x="0px" y="0px" width="91.429px" height="85.039px" viewBox="0 0 91.429 85.039" xml:space="preserve">
<g>
	<path fill="#006E1E" d="M90.72,69.449c0-0.391,0.317-0.709,0.709-0.709v-1.417c-0.391,0-0.709-0.317-0.709-0.709
		c0-0.391,0.317-0.709,0.709-0.709v-1.417c-0.391,0-0.709-0.317-0.709-0.709c0-0.391,0.317-0.709,0.709-0.709v-1.417
		c-0.391,0-0.709-0.317-0.709-0.709c0-0.391,0.317-0.709,0.709-0.709v-1.417c-0.391,0-0.709-0.317-0.709-0.709
		c0-0.391,0.317-0.709,0.709-0.709v-1.417c-0.391,0-0.709-0.317-0.709-0.709s0.317-0.709,0.709-0.709V53.15
		c-0.391,0-0.709-0.317-0.709-0.709c0-0.391,0.317-0.709,0.709-0.709v-1.417c-0.391,0-0.709-0.317-0.709-0.709
		c0-0.391,0.317-0.709,0.709-0.709V47.48c-0.391,0-0.709-0.317-0.709-0.709c0-0.391,0.317-0.709,0.709-0.709v-1.417
		c-0.391,0-0.709-0.317-0.709-0.709c0-0.391,0.317-0.709,0.709-0.709v-1.417c-0.391,0-0.709-0.317-0.709-0.709
		c0-0.391,0.317-0.709,0.709-0.709v-1.417c-0.391,0-0.709-0.317-0.709-0.709s0.317-0.709,0.709-0.709v-1.417
		c-0.391,0-0.709-0.317-0.709-0.709c0-0.391,0.317-0.709,0.709-0.709v-1.417c-0.391,0-0.709-0.317-0.709-0.709
		c0-0.391,0.317-0.709,0.709-0.709v-1.417c-0.391,0-0.709-0.317-0.709-0.709c0-0.391,0.317-0.709,0.709-0.709v-1.417
		c-0.391,0-0.709-0.317-0.709-0.709c0-0.391,0.317-0.709,0.709-0.709v-1.417c-0.391,0-0.709-0.317-0.709-0.709
		c0-0.391,0.317-0.709,0.709-0.709v-1.417c-0.391,0-0.709-0.317-0.709-0.709s0.317-0.709,0.709-0.709v-1.417
		c-0.391,0-0.709-0.317-0.709-0.709c0-0.391,0.317-0.709,0.709-0.709v-1.417c-0.391,0-0.709-0.317-0.709-0.709
		c0-0.391,0.317-0.709,0.709-0.709V1.417c-0.783,0-1.417-0.635-1.417-1.417H76.547c0,0.391-0.317,0.709-0.709,0.709
		c-0.391,0-0.709-0.317-0.709-0.709h-1.417c0,0.391-0.317,0.709-0.709,0.709c-0.391,0-0.709-0.317-0.709-0.709h-1.417
		c0,0.391-0.317,0.709-0.709,0.709c-0.391,0-0.709-0.317-0.709-0.709h-1.417c0,0.391-0.317,0.709-0.709,0.709
		c-0.391,0-0.709-0.317-0.709-0.709h-1.417c0,0.391-0.317,0.709-0.709,0.709S63.791,0.391,63.791,0h-1.417
		c0,0.391-0.317,0.709-0.709,0.709c-0.391,0-0.709-0.317-0.709-0.709h-1.417c0,0.391-0.317,0.709-0.709,0.709
		c-0.391,0-0.709-0.317-0.709-0.709h-1.417c0,0.391-0.317,0.709-0.709,0.709c-0.391,0-0.709-0.317-0.709-0.709H53.87
		c0,0.391-0.317,0.709-0.709,0.709c-0.391,0-0.709-0.317-0.709-0.709h-1.417c0,0.391-0.317,0.709-0.709,0.709
		c-0.391,0-0.709-0.317-0.709-0.709H48.2c0,0.391-0.317,0.709-0.709,0.709S46.783,0.391,46.783,0h-1.417
		c0,0.391-0.317,0.709-0.709,0.709c-0.391,0-0.709-0.317-0.709-0.709h-1.417c0,0.391-0.317,0.709-0.709,0.709
		c-0.391,0-0.709-0.317-0.709-0.709h-1.417c0,0.391-0.317,0.709-0.709,0.709c-0.391,0-0.709-0.317-0.709-0.709h-1.417
		c0,0.391-0.317,0.709-0.709,0.709c-0.391,0-0.709-0.317-0.709-0.709h-1.417c0,0.391-0.317,0.709-0.709,0.709
		c-0.391,0-0.709-0.317-0.709-0.709h-1.417c0,0.391-0.317,0.709-0.709,0.709S29.775,0.391,29.775,0h-1.417
		c0,0.391-0.317,0.709-0.709,0.709c-0.391,0-0.709-0.317-0.709-0.709h-1.417c0,0.391-0.317,0.709-0.709,0.709
		c-0.391,0-0.709-0.317-0.709-0.709h-1.417c0,0.391-0.317,0.709-0.709,0.709c-0.391,0-0.709-0.317-0.709-0.709H7.807
		c0,0.783-0.635,1.417-1.417,1.417v13.465c0.391,0,0.709,0.317,0.709,0.709c0,0.391-0.317,0.709-0.709,0.709v1.417
		c0.391,0,0.709,0.317,0.709,0.709c0,0.391-0.317,0.709-0.709,0.709v1.417c0.391,0,0.709,0.317,0.709,0.709
		s-0.317,0.709-0.709,0.709v1.417c0.391,0,0.709,0.317,0.709,0.709c0,0.391-0.317,0.709-0.709,0.709v1.417
		c0.391,0,0.709,0.317,0.709,0.709c0,0.391-0.317,0.709-0.709,0.709v1.417c0.391,0,0.709,0.317,0.709,0.709
		c0,0.391-0.317,0.709-0.709,0.709v1.417c0.391,0,0.709,0.317,0.709,0.709c0,0.391-0.317,0.709-0.709,0.709v1.417
		c0.391,0,0.709,0.317,0.709,0.709c0,0.391-0.317,0.709-0.709,0.709v1.417c0.391,0,0.709,0.317,0.709,0.709
		s-0.317,0.709-0.709,0.709v1.417c0.391,0,0.709,0.317,0.709,0.709c0,0.391-0.317,0.709-0.709,0.709v1.417
		c0.391,0,0.709,0.317,0.709,0.709c0,0.391-0.317,0.709-0.709,0.709v1.417c0.391,0,0.709,0.317,0.709,0.709
		c0,0.391-0.317,0.709-0.709,0.709v1.417c0.391,0,0.709,0.317,0.709,0.709c0,0.391-0.317,0.709-0.709,0.709v1.417
		c0.391,0,0.709,0.317,0.709,0.709c0,0.391-0.317,0.709-0.709,0.709v1.417c0.391,0,0.709,0.317,0.709,0.709
		s-0.317,0.709-0.709,0.709v1.417c0.391,0,0.709,0.317,0.709,0.709c0,0.391-0.317,0.709-0.709,0.709v1.417
		c0.391,0,0.709,0.317,0.709,0.709c0,0.391-0.317,0.709-0.709,0.709v1.417c0.391,0,0.709,0.317,0.709,0.709
		c0,0.391-0.317,0.709-0.709,0.709v1.417c0.391,0,0.709,0.317,0.709,0.709c0,0.391-0.317,0.709-0.709,0.709v1.417
		c0.391,0,0.709,0.317,0.709,0.709c0,0.391-0.317,0.709-0.709,0.709v13.465c0.783,0,1.417,0.635,1.417,1.417h13.465
		c0-0.391,0.317-0.709,0.709-0.709c0.391,0,0.709,0.317,0.709,0.709h1.417c0-0.391,0.317-0.709,0.709-0.709
		c0.391,0,0.709,0.317,0.709,0.709h1.417c0-0.391,0.317-0.709,0.709-0.709c0.391,0,0.709,0.317,0.709,0.709h1.417
		c0-0.391,0.317-0.709,0.709-0.709s0.709,0.317,0.709,0.709h1.417c0-0.391,0.317-0.709,0.709-0.709c0.391,0,0.709,0.317,0.709,0.709
		h1.417c0-0.391,0.317-0.709,0.709-0.709c0.391,0,0.709,0.317,0.709,0.709h1.417c0-0.391,0.317-0.709,0.709-0.709
		c0.391,0,0.709,0.317,0.709,0.709h1.417c0-0.391,0.317-0.709,0.709-0.709c0.391,0,0.709,0.317,0.709,0.709h1.417
		c0-0.391,0.317-0.709,0.709-0.709c0.391,0,0.709,0.317,0.709,0.709h1.417c0-0.391,0.317-0.709,0.709-0.709s0.709,0.317,0.709,0.709
		h1.417c0-0.391,0.317-0.709,0.709-0.709c0.391,0,0.709,0.317,0.709,0.709h1.417c0-0.391,0.317-0.709,0.709-0.709
		c0.391,0,0.709,0.317,0.709,0.709h1.417c0-0.391,0.317-0.709,0.709-0.709c0.391,0,0.709,0.317,0.709,0.709h1.417
		c0-0.391,0.317-0.709,0.709-0.709c0.391,0,0.709,0.317,0.709,0.709h1.417c0-0.391,0.317-0.709,0.709-0.709
		c0.391,0,0.709,0.317,0.709,0.709h1.417c0-0.391,0.317-0.709,0.709-0.709s0.709,0.317,0.709,0.709h1.417
		c0-0.391,0.317-0.709,0.709-0.709c0.391,0,0.709,0.317,0.709,0.709h1.417c0-0.391,0.317-0.709,0.709-0.709
		c0.391,0,0.709,0.317,0.709,0.709h1.417c0-0.391,0.317-0.709,0.709-0.709c0.391,0,0.709,0.317,0.709,0.709h1.417
		c0-0.391,0.317-0.709,0.709-0.709c0.391,0,0.709,0.317,0.709,0.709h13.465c0-0.783,0.635-1.417,1.417-1.417V70.157
		C91.037,70.157,90.72,69.84,90.72,69.449z"/>
	<path fill="#DCDCDC" d="M88.509,82.687h-79.2c-0.313,0-0.567-0.254-0.567-0.567V8.257c0-0.15,0.06-0.295,0.166-0.401l5.337-5.337
		c0.106-0.106,0.251-0.166,0.401-0.166h73.863c0.313,0,0.567,0.254,0.567,0.567v79.2C89.076,82.433,88.822,82.687,88.509,82.687z"/>
	<path fill="#E1C57A" d="M6.389,14.882c0.391,0,0.709,0.317,0.709,0.709c0,0.391-0.317,0.709-0.709,0.709v0.142h1.502V14.74H6.389
		V14.882z"/>
	<path fill="#E1C57A" d="M91.429,14.882c-0.391,0-0.709,0.317-0.709,0.709c0,0.391,0.317,0.709,0.709,0.709v0.142h-1.502V14.74
		h1.502V14.882z"/>
	<path fill="#E1C57A" d="M6.389,17.717c0.391,0,0.709,0.317,0.709,0.709c0,0.391-0.317,0.709-0.709,0.709v0.142h1.502v-1.701H6.389
		V17.717z"/>
	<path fill="#E1C57A" d="M91.429,17.717c-0.391,0-0.709,0.317-0.709,0.709c0,0.391,0.317,0.709,0.709,0.709v0.142h-1.502v-1.701
		h1.502V17.717z"/>
	<path fill="#E1C57A" d="M6.389,20.551c0.391,0,0.709,0.317,0.709,0.709c0,0.391-0.317,0.709-0.709,0.709v0.142h1.502v-1.701H6.389
		V20.551z"/>
	<path fill="#E1C57A" d="M91.429,20.551c-0.391,0-0.709,0.317-0.709,0.709c0,0.391,0.317,0.709,0.709,0.709v0.142h-1.502v-1.701
		h1.502V20.551z"/>
	<path fill="#E1C57A" d="M6.389,23.386c0.391,0,0.709,0.317,0.709,0.709c0,0.391-0.317,0.709-0.709,0.709v0.142h1.502v-1.701H6.389
		V23.386z"/>
	<path fill="#E1C57A" d="M91.429,23.386c-0.391,0-0.709,0.317-0.709,0.709c0,0.391,0.317,0.709,0.709,0.709v0.142h-1.502v-1.701
		h1.502V23.386z"/>
	<path fill="#E1C57A" d="M6.389,26.22c0.391,0,0.709,0.317,0.709,0.709c0,0.391-0.317,0.709-0.709,0.709v0.142h1.502v-1.701H6.389
		V26.22z"/>
	<path fill="#E1C57A" d="M91.429,26.22c-0.391,0-0.709,0.317-0.709,0.709c0,0.391,0.317,0.709,0.709,0.709v0.142h-1.502v-1.701
		h1.502V26.22z"/>
	<path fill="#E1C57A" d="M6.389,29.055c0.391,0,0.709,0.317,0.709,0.709c0,0.391-0.317,0.709-0.709,0.709v0.142h1.502v-1.701H6.389
		V29.055z"/>
	<path fill="#E1C57A" d="M91.429,29.055c-0.391,0-0.709,0.317-0.709,0.709c0,0.391,0.317,0.709,0.709,0.709v0.142h-1.502v-1.701
		h1.502V29.055z"/>
	<path fill="#E1C57A" d="M6.389,31.89c0.391,0,0.709,0.317,0.709,0.709c0,0.391-0.317,0.709-0.709,0.709v0.142h1.502v-1.701H6.389
		V31.89z"/>
	<path fill="#E1C57A" d="M91.429,31.89c-0.391,0-0.709,0.317-0.709,0.709c0,0.391,0.317,0.709,0.709,0.709v0.142h-1.502v-1.701
		h1.502V31.89z"/>
	<path fill="#E1C57A" d="M6.389,34.724c0.391,0,0.709,0.317,0.709,0.709c0,0.391-0.317,0.709-0.709,0.709v0.142h1.502v-1.701H6.389
		V34.724z"/>
	<path fill="#E1C57A" d="M91.429,34.724c-0.391,0-0.709,0.317-0.709,0.709c0,0.391,0.317,0.709,0.709,0.709v0.142h-1.502v-1.701
		h1.502V34.724z"/>
	<path fill="#E1C57A" d="M6.389,37.559c0.391,0,0.709,0.317,0.709,0.709c0,0.391-0.317,0.709-0.709,0.709v0.142h1.502v-1.701H6.389
		V37.559z"/>
	<path fill="#E1C57A" d="M91.429,37.559c-0.391,0-0.709,0.317-0.709,0.709c0,0.391,0.317,0.709,0.709,0.709v0.142h-1.502v-1.701
		h1.502V37.559z"/>
	<path fill="#E1C57A" d="M6.389,40.394c0.391,0,0.709,0.317,0.709,0.709c0,0.391-0.317,0.709-0.709,0.709v0.142h1.502v-1.701H6.389
		V40.394z"/>
	<path fill="#E1C57A" d="M91.429,40.394c-0.391,0-0.709,0.317-0.709,0.709c0,0.391,0.317,0.709,0.709,0.709v0.142h-1.502v-1.701
		h1.502V40.394z"/>
	<path fill="#E1C57A" d="M6.389,43.228c0.391,0,0.709,0.317,0.709,0.709c0,0.391-0.317,0.709-0.709,0.709v0.142h1.502v-1.701H6.389
		V43.228z"/>
	<path fill="#E1C57A" d="M91.429,43.228c-0.391,0-0.709,0.317-0.709,0.709c0,0.391,0.317,0.709,0.709,0.709v0.142h-1.502v-1.701
		h1.502V43.228z"/>
	<path fill="#E1C57A" d="M6.389,46.063c0.391,0,0.709,0.317,0.709,0.709c0,0.391-0.317,0.709-0.709,0.709v0.142h1.502v-1.701H6.389
		V46.063z"/>
	<path fill="#E1C57A" d="M91.429,46.063c-0.391,0-0.709,0.317-0.709,0.709c0,0.391,0.317,0.709,0.709,0.709v0.142h-1.502v-1.701
		h1.502V46.063z"/>
	<path fill="#E1C57A" d="M6.389,48.898c0.391,0,0.709,0.317,0.709,0.709c0,0.391-0.317,0.709-0.709,0.709v0.142h1.502v-1.701H6.389
		V48.898z"/>
	<path fill="#E1C57A" d="M91.429,48.898c-0.391,0-0.709,0.317-0.709,0.709c0,0.391,0.317,0.709,0.709,0.709v0.142h-1.502v-1.701
		h1.502V48.898z"/>
	<path fill="#E1C57A" d="M6.389,51.732c0.391,0,0.709,0.317,0.709,0.709c0,0.391-0.317,0.709-0.709,0.709v0.142h1.502v-1.701H6.389
		V51.732z"/>
	<path fill="#E1C57A" d="M91.429,51.732c-0.391,0-0.709,0.317-0.709,0.709c0,0.391,0.317,0.709,0.709,0.709v0.142h-1.502v-1.701
		h1.502V51.732z"/>
	<path fill="#E1C57A" d="M6.389,54.567c0.391,0,0.709,0.317,0.709,0.709c0,0.391-0.317,0.709-0.709,0.709v0.142h1.502v-1.701H6.389
		V54.567z"/>
	<path fill="#E1C57A" d="M91.429,54.567c-0.391,0-0.709,0.317-0.709,0.709c0,0.391,0.317,0.709,0.709,0.709v0.142h-1.502v-1.701
		h1.502V54.567z"/>
	<path fill="#E1C57A" d="M6.389,57.402c0.391,0,0.709,0.317,0.709,0.709c0,0.391-0.317,0.709-0.709,0.709v0.142h1.502V57.26H6.389
		V57.402z"/>
	<path fill="#E1C57A" d="M91.429,57.402c-0.391,0-0.709,0.317-0.709,0.709c0,0.391,0.317,0.709,0.709,0.709v0.142h-1.502V57.26
		h1.502V57.402z"/>
	<path fill="#E1C57A" d="M6.389,60.236c0.391,0,0.709,0.317,0.709,0.709c0,0.391-0.317,0.709-0.709,0.709v0.142h1.502v-1.701H6.389
		V60.236z"/>
	<path fill="#E1C57A" d="M91.429,60.236c-0.391,0-0.709,0.317-0.709,0.709c0,0.391,0.317,0.709,0.709,0.709v0.142h-1.502v-1.701
		h1.502V60.236z"/>
	<path fill="#E1C57A" d="M6.389,63.071c0.391,0,0.709,0.317,0.709,0.709c0,0.391-0.317,0.709-0.709,0.709v0.142h1.502v-1.701H6.389
		V63.071z"/>
	<path fill="#E1C57A" d="M91.429,63.071c-0.391,0-0.709,0.317-0.709,0.709c0,0.391,0.317,0.709,0.709,0.709v0.142h-1.502v-1.701
		h1.502V63.071z"/>
	<path fill="#E1C57A" d="M6.389,65.906c0.391,0,0.709,0.317,0.709,0.709c0,0.391-0.317,0.709-0.709,0.709v0.142h1.502v-1.701H6.389
		V65.906z"/>
	<path fill="#E1C57A" d="M91.429,65.906c-0.391,0-0.709,0.317-0.709,0.709c0,0.391,0.317,0.709,0.709,0.709v0.142h-1.502v-1.701
		h1.502V65.906z"/>
	<path fill="#E1C57A" d="M6.389,68.74c0.391,0,0.709,0.317,0.709,0.709c0,0.391-0.317,0.709-0.709,0.709v0.142h1.502v-1.701H6.389
		V68.74z"/>
	<path fill="#E1C57A" d="M91.429,68.74c-0.391,0-0.709,0.317-0.709,0.709c0,0.391,0.317,0.709,0.709,0.709v0.142h-1.502v-1.701
		h1.502V68.74z"/>
	<path fill="#E1C57A" d="M22.688,0c0,0.391-0.317,0.709-0.709,0.709c-0.391,0-0.709-0.317-0.709-0.709h-0.142v1.502h1.701V0H22.688z
		"/>
	<path fill="#E1C57A" d="M22.688,85.039c0-0.391-0.317-0.709-0.709-0.709c-0.391,0-0.709,0.317-0.709,0.709h-0.142v-1.502h1.701
		v1.502H22.688z"/>
	<path fill="#E1C57A" d="M25.523,0c0,0.391-0.317,0.709-0.709,0.709c-0.391,0-0.709-0.317-0.709-0.709h-0.142v1.502h1.701V0H25.523z
		"/>
	<path fill="#E1C57A" d="M25.523,85.039c0-0.391-0.317-0.709-0.709-0.709c-0.391,0-0.709,0.317-0.709,0.709h-0.142v-1.502h1.701
		v1.502H25.523z"/>
	<path fill="#E1C57A" d="M28.358,0c0,0.391-0.317,0.709-0.709,0.709c-0.391,0-0.709-0.317-0.709-0.709h-0.142v1.502H28.5V0H28.358z"
		/>
	<path fill="#E1C57A" d="M28.358,85.039c0-0.391-0.317-0.709-0.709-0.709c-0.391,0-0.709,0.317-0.709,0.709h-0.142v-1.502H28.5
		v1.502H28.358z"/>
	<path fill="#E1C57A" d="M31.192,0c0,0.391-0.317,0.709-0.709,0.709c-0.391,0-0.709-0.317-0.709-0.709h-0.142v1.502h1.701V0H31.192z
		"/>
	<path fill="#E1C57A" d="M31.192,85.039c0-0.391-0.317-0.709-0.709-0.709c-0.391,0-0.709,0.317-0.709,0.709h-0.142v-1.502h1.701
		v1.502H31.192z"/>
	<path fill="#E1C57A" d="M34.027,0c0,0.391-0.317,0.709-0.709,0.709c-0.391,0-0.709-0.317-0.709-0.709h-0.142v1.502h1.701V0H34.027z
		"/>
	<path fill="#E1C57A" d="M34.027,85.039c0-0.391-0.317-0.709-0.709-0.709c-0.391,0-0.709,0.317-0.709,0.709h-0.142v-1.502h1.701
		v1.502H34.027z"/>
	<path fill="#E1C57A" d="M36.862,0c0,0.391-0.317,0.709-0.709,0.709c-0.391,0-0.709-0.317-0.709-0.709h-0.142v1.502h1.701V0H36.862z
		"/>
	<path fill="#E1C57A" d="M36.862,85.039c0-0.391-0.317-0.709-0.709-0.709c-0.391,0-0.709,0.317-0.709,0.709h-0.142v-1.502h1.701
		v1.502H36.862z"/>
	<path fill="#E1C57A" d="M39.696,0c0,0.391-0.317,0.709-0.709,0.709c-0.391,0-0.709-0.317-0.709-0.709h-0.142v1.502h1.701V0H39.696z
		"/>
	<path fill="#E1C57A" d="M39.696,85.039c0-0.391-0.317-0.709-0.709-0.709c-0.391,0-0.709,0.317-0.709,0.709h-0.142v-1.502h1.701
		v1.502H39.696z"/>
	<path fill="#E1C57A" d="M42.531,0c0,0.391-0.317,0.709-0.709,0.709c-0.391,0-0.709-0.317-0.709-0.709h-0.142v1.502h1.701V0H42.531z
		"/>
	<path fill="#E1C57A" d="M42.531,85.039c0-0.391-0.317-0.709-0.709-0.709c-0.391,0-0.709,0.317-0.709,0.709h-0.142v-1.502h1.701
		v1.502H42.531z"/>
	<path fill="#E1C57A" d="M45.366,0c0,0.391-0.317,0.709-0.709,0.709c-0.391,0-0.709-0.317-0.709-0.709h-0.142v1.502h1.701V0H45.366z
		"/>
	<path fill="#E1C57A" d="M45.366,85.039c0-0.391-0.317-0.709-0.709-0.709c-0.391,0-0.709,0.317-0.709,0.709h-0.142v-1.502h1.701
		v1.502H45.366z"/>
	<path fill="#E1C57A" d="M48.2,0c0,0.391-0.317,0.709-0.709,0.709c-0.391,0-0.709-0.317-0.709-0.709h-0.142v1.502h1.701V0H48.2z"/>
	<path fill="#E1C57A" d="M48.2,85.039c0-0.391-0.317-0.709-0.709-0.709c-0.391,0-0.709,0.317-0.709,0.709h-0.142v-1.502h1.701v1.502
		H48.2z"/>
	<path fill="#E1C57A" d="M51.035,0c0,0.391-0.317,0.709-0.709,0.709c-0.391,0-0.709-0.317-0.709-0.709h-0.142v1.502h1.701V0H51.035z
		"/>
	<path fill="#E1C57A" d="M51.035,85.039c0-0.391-0.317-0.709-0.709-0.709c-0.391,0-0.709,0.317-0.709,0.709h-0.142v-1.502h1.701
		v1.502H51.035z"/>
	<path fill="#E1C57A" d="M53.87,0c0,0.391-0.317,0.709-0.709,0.709c-0.391,0-0.709-0.317-0.709-0.709h-0.142v1.502h1.701V0H53.87z"
		/>
	<path fill="#E1C57A" d="M53.87,85.039c0-0.391-0.317-0.709-0.709-0.709c-0.391,0-0.709,0.317-0.709,0.709h-0.142v-1.502h1.701
		v1.502H53.87z"/>
	<path fill="#E1C57A" d="M56.704,0c0,0.391-0.317,0.709-0.709,0.709c-0.391,0-0.709-0.317-0.709-0.709h-0.142v1.502h1.701V0H56.704z
		"/>
	<path fill="#E1C57A" d="M56.704,85.039c0-0.391-0.317-0.709-0.709-0.709c-0.391,0-0.709,0.317-0.709,0.709h-0.142v-1.502h1.701
		v1.502H56.704z"/>
	<path fill="#E1C57A" d="M59.539,0c0,0.391-0.317,0.709-0.709,0.709c-0.391,0-0.709-0.317-0.709-0.709H57.98v1.502h1.701V0H59.539z"
		/>
	<path fill="#E1C57A" d="M59.539,85.039c0-0.391-0.317-0.709-0.709-0.709c-0.391,0-0.709,0.317-0.709,0.709H57.98v-1.502h1.701
		v1.502H59.539z"/>
	<path fill="#E1C57A" d="M62.374,0c0,0.391-0.317,0.709-0.709,0.709c-0.391,0-0.709-0.317-0.709-0.709h-0.142v1.502h1.701V0H62.374z
		"/>
	<path fill="#E1C57A" d="M62.374,85.039c0-0.391-0.317-0.709-0.709-0.709c-0.391,0-0.709,0.317-0.709,0.709h-0.142v-1.502h1.701
		v1.502H62.374z"/>
	<path fill="#E1C57A" d="M65.208,0c0,0.391-0.317,0.709-0.709,0.709c-0.391,0-0.709-0.317-0.709-0.709h-0.142v1.502h1.701V0H65.208z
		"/>
	<path fill="#E1C57A" d="M65.208,85.039c0-0.391-0.317-0.709-0.709-0.709c-0.391,0-0.709,0.317-0.709,0.709h-0.142v-1.502h1.701
		v1.502H65.208z"/>
	<path fill="#E1C57A" d="M68.043,0c0,0.391-0.317,0.709-0.709,0.709c-0.391,0-0.709-0.317-0.709-0.709h-0.142v1.502h1.701V0H68.043z
		"/>
	<path fill="#E1C57A" d="M68.043,85.039c0-0.391-0.317-0.709-0.709-0.709c-0.391,0-0.709,0.317-0.709,0.709h-0.142v-1.502h1.701
		v1.502H68.043z"/>
	<path fill="#E1C57A" d="M70.877,0c0,0.391-0.317,0.709-0.709,0.709c-0.391,0-0.709-0.317-0.709-0.709h-0.142v1.502h1.701V0H70.877z
		"/>
	<path fill="#E1C57A" d="M70.877,85.039c0-0.391-0.317-0.709-0.709-0.709c-0.391,0-0.709,0.317-0.709,0.709h-0.142v-1.502h1.701
		v1.502H70.877z"/>
	<path fill="#E1C57A" d="M73.712,0c0,0.391-0.317,0.709-0.709,0.709c-0.391,0-0.709-0.317-0.709-0.709h-0.142v1.502h1.701V0H73.712z
		"/>
	<path fill="#E1C57A" d="M73.712,85.039c0-0.391-0.317-0.709-0.709-0.709c-0.391,0-0.709,0.317-0.709,0.709h-0.142v-1.502h1.701
		v1.502H73.712z"/>
	<path fill="#E1C57A" d="M76.547,0c0,0.391-0.317,0.709-0.709,0.709c-0.391,0-0.709-0.317-0.709-0.709h-0.142v1.502h1.701V0H76.547z
		"/>
	<path fill="#E1C57A" d="M76.547,85.039c0-0.391-0.317-0.709-0.709-0.709c-0.391,0-0.709,0.317-0.709,0.709h-0.142v-1.502h1.701
		v1.502H76.547z"/>
	<path fill="#DCDCDC" d="M14.893,0H8.09c0,0.939-0.761,1.701-1.701,1.701v6.803L14.893,0z"/>
	<circle fill="#BEBEBE" cx="12.994" cy="78.435" r="1.417"/>
	<circle fill="#BEBEBE" cx="84.824" cy="78.435" r="1.417"/>
	<circle fill="#BEBEBE" cx="84.824" cy="6.605" r="1.417"/>
	<path d="M13.901,6.841l1.276-0.736c0.189-0.109,0.425,0.027,0.425,0.245v1.473c0,0.218-0.236,0.355-0.425,0.245l-1.276-0.736
		C13.712,7.223,13.712,6.95,13.901,6.841z"/>
	<rect x="20.563" y="14.173" fill="#FFFFFF" width="56.693" height="56.693"/>
	<path fill="#DC1E1E" d="M20.563,24.945h15.224c1.07,0,2.049-0.602,2.531-1.558l2.719-5.388c0.482-0.955,1.461-1.558,2.531-1.558
		h33.688v-2.268H20.563V24.945z"/>
</g>
</svg>
