<?xml version="1.0" encoding="utf-8"?>
<!-- Generator: Adobe Illustrator 20.0.0, SVG Export Plug-In . SVG Version: 6.00 Build 0)  -->
<svg version="1.2" baseProfile="tiny" id="Layer_1" xmlns="http://www.w3.org/2000/svg" xmlns:xlink="http://www.w3.org/1999/xlink"
	 x="0px" y="0px" width="50.457px" height="44.787px" viewBox="0 0 50.457 44.787" xml:space="preserve">
<g>
	<path fill="#006E1E" d="M49.748,44.787H0.709c0-0.391-0.317-0.709-0.709-0.709V0.709c0.391,0,0.709-0.317,0.709-0.709h49.039
		c0,0.391,0.317,0.709,0.709,0.709v43.37C50.065,44.079,49.748,44.396,49.748,44.787z"/>
	<path fill="#DCDCDC" d="M48.331,43.795H2.126c0-0.626-0.508-1.134-1.134-1.134V2.126c0.626,0,1.134-0.508,1.134-1.134h46.205
		c0,0.626,0.508,1.134,1.134,1.134v40.535C48.838,42.661,48.331,43.169,48.331,43.795z"/>
	<rect x="2.551" y="2.551" fill="#FFFFFF" width="45.354" height="39.685"/>
	<path fill="#DC1E1E" d="M2.551,11.169h12.179c0.856,0,1.639-0.482,2.025-1.246l2.175-4.311c0.386-0.764,1.169-1.246,2.025-1.246
		h26.951V2.551H2.551V11.169z"/>
</g>
</svg>
