<?xml version="1.0" encoding="utf-8"?>
<!-- Generator: Adobe Illustrator 20.0.0, SVG Export Plug-In . SVG Version: 6.00 Build 0)  -->
<svg version="1.2" baseProfile="tiny" id="Layer_1" xmlns="http://www.w3.org/2000/svg" xmlns:xlink="http://www.w3.org/1999/xlink"
	 x="0px" y="0px" width="70.741px" height="68.032px" viewBox="0 0 70.741 68.032" xml:space="preserve">
<g>
	<path fill="#006E1E" d="M70.026,56.693c0-0.391,0.317-0.709,0.709-0.709v-1.417c-0.391,0-0.709-0.317-0.709-0.709
		c0-0.391,0.317-0.709,0.709-0.709v-1.417c-0.391,0-0.709-0.317-0.709-0.709s0.317-0.709,0.709-0.709v-1.417
		c-0.391,0-0.709-0.317-0.709-0.709c0-0.391,0.317-0.709,0.709-0.709v-1.417c-0.391,0-0.709-0.317-0.709-0.709
		c0-0.391,0.317-0.709,0.709-0.709v-1.417c-0.391,0-0.709-0.317-0.709-0.709c0-0.391,0.317-0.709,0.709-0.709v-1.417
		c-0.391,0-0.709-0.317-0.709-0.709c0-0.391,0.317-0.709,0.709-0.709v-1.417c-0.391,0-0.709-0.317-0.709-0.709
		c0-0.391,0.317-0.709,0.709-0.709v-1.417c-0.391,0-0.709-0.317-0.709-0.709s0.317-0.709,0.709-0.709V31.89
		c-0.391,0-0.709-0.317-0.709-0.709c0-0.391,0.317-0.709,0.709-0.709v-1.417c-0.391,0-0.709-0.317-0.709-0.709
		c0-0.391,0.317-0.709,0.709-0.709V26.22c-0.391,0-0.709-0.317-0.709-0.709c0-0.391,0.317-0.709,0.709-0.709v-1.417
		c-0.391,0-0.709-0.317-0.709-0.709c0-0.391,0.317-0.709,0.709-0.709V20.55c-0.391,0-0.709-0.317-0.709-0.709
		c0-0.391,0.317-0.709,0.709-0.709v-1.417c-0.391,0-0.709-0.317-0.709-0.709s0.317-0.709,0.709-0.709V14.88
		c-0.391,0-0.709-0.317-0.709-0.709c0-0.391,0.317-0.709,0.709-0.709v-1.417c-0.391,0-0.709-0.317-0.709-0.709
		c0-0.391,0.317-0.709,0.709-0.709v-9.21c-0.783,0-1.417-0.635-1.417-1.417h-9.213c0,0.391-0.317,0.709-0.709,0.709
		c-0.391,0-0.709-0.317-0.709-0.709H57.27c0,0.391-0.317,0.709-0.709,0.709c-0.391,0-0.709-0.317-0.709-0.709h-1.417
		c0,0.391-0.317,0.709-0.709,0.709c-0.391,0-0.709-0.317-0.709-0.709H51.6c0,0.391-0.317,0.709-0.709,0.709
		c-0.391,0-0.709-0.317-0.709-0.709h-1.417c0,0.391-0.317,0.709-0.709,0.709S47.349,0.391,47.349,0h-1.417
		c0,0.391-0.317,0.709-0.709,0.709c-0.391,0-0.709-0.317-0.709-0.709h-1.417c0,0.391-0.317,0.709-0.709,0.709
		c-0.391,0-0.709-0.317-0.709-0.709h-1.417c0,0.391-0.317,0.709-0.709,0.709c-0.391,0-0.709-0.317-0.709-0.709h-1.417
		c0,0.391-0.317,0.709-0.709,0.709c-0.391,0-0.709-0.317-0.709-0.709h-1.416c0,0.391-0.317,0.709-0.709,0.709
		c-0.391,0-0.709-0.317-0.709-0.709h-1.417c0,0.391-0.317,0.709-0.709,0.709S30.341,0.391,30.341,0h-1.417
		c0,0.391-0.317,0.709-0.709,0.709c-0.391,0-0.709-0.317-0.709-0.709h-1.417c0,0.391-0.317,0.709-0.709,0.709
		c-0.391,0-0.709-0.317-0.709-0.709h-1.417c0,0.391-0.317,0.709-0.709,0.709c-0.391,0-0.709-0.317-0.709-0.709h-1.417
		c0,0.391-0.317,0.709-0.709,0.709c-0.391,0-0.709-0.317-0.709-0.709h-1.417c0,0.391-0.317,0.709-0.709,0.709
		c-0.391,0-0.709-0.317-0.709-0.709h-1.417c0,0.391-0.317,0.709-0.709,0.709S13.333,0.391,13.333,0H4.12
		c0,0.783-0.635,1.417-1.417,1.417v9.213c0.391,0,0.709,0.317,0.709,0.709c0,0.391-0.317,0.709-0.709,0.709v1.417
		c0.391,0,0.709,0.317,0.709,0.709c0,0.391-0.317,0.709-0.709,0.709V16.3c0.391,0,0.709,0.317,0.709,0.709s-0.318,0.708-0.709,0.708
		v1.417c0.391,0,0.709,0.317,0.709,0.709c0,0.391-0.317,0.709-0.709,0.709v1.417c0.391,0,0.709,0.317,0.709,0.709
		c0,0.391-0.317,0.709-0.709,0.709v1.417c0.391,0,0.709,0.317,0.709,0.709c0,0.391-0.317,0.709-0.709,0.709v1.417
		c0.391,0,0.709,0.317,0.709,0.709c0,0.391-0.317,0.709-0.709,0.709v1.417c0.391,0,0.709,0.317,0.709,0.709
		c0,0.391-0.317,0.709-0.709,0.709v1.417c0.391,0,0.709,0.317,0.709,0.709s-0.318,0.706-0.709,0.706v1.417
		c0.391,0,0.709,0.317,0.709,0.709c0,0.391-0.317,0.709-0.709,0.709v1.417c0.391,0,0.709,0.317,0.709,0.709
		c0,0.391-0.317,0.709-0.709,0.709v1.417c0.391,0,0.709,0.317,0.709,0.709c0,0.391-0.317,0.709-0.709,0.709v1.417
		c0.391,0,0.709,0.317,0.709,0.709c0,0.391-0.317,0.709-0.709,0.709v1.417c0.391,0,0.709,0.317,0.709,0.709
		c0,0.391-0.317,0.709-0.709,0.709v1.417c0.391,0,0.709,0.317,0.709,0.709s-0.318,0.707-0.709,0.707v1.417
		c0.391,0,0.709,0.317,0.709,0.709c0,0.391-0.317,0.709-0.709,0.709v1.417c0.391,0,0.709,0.317,0.709,0.709
		c0,0.391-0.317,0.709-0.709,0.709v9.213c0.783,0,1.417,0.635,1.417,1.417h9.213c0-0.391,0.317-0.709,0.709-0.709
		s0.709,0.317,0.709,0.709h1.417c0-0.391,0.317-0.709,0.709-0.709c0.391,0,0.709,0.317,0.709,0.709h1.417
		c0-0.391,0.317-0.709,0.709-0.709c0.391,0,0.709,0.317,0.709,0.709h1.417c0-0.391,0.317-0.709,0.709-0.709
		c0.391,0,0.709,0.317,0.709,0.709h1.417c0-0.391,0.317-0.709,0.709-0.709c0.391,0,0.709,0.317,0.709,0.709h1.417
		c0-0.391,0.317-0.709,0.709-0.709c0.391,0,0.709,0.317,0.709,0.709h1.417c0-0.391,0.317-0.709,0.709-0.709s0.709,0.317,0.709,0.709
		h1.417c0-0.391,0.317-0.709,0.709-0.709c0.391,0,0.709,0.317,0.709,0.709h1.417c0-0.391,0.317-0.709,0.709-0.709
		c0.391,0,0.709,0.317,0.709,0.709h1.417c0-0.391,0.317-0.709,0.709-0.709c0.391,0,0.709,0.317,0.709,0.709h1.417
		c0-0.391,0.317-0.709,0.709-0.709c0.391,0,0.709,0.317,0.709,0.709h1.417c0-0.391,0.317-0.709,0.709-0.709
		c0.391,0,0.709,0.317,0.709,0.709h1.417c0-0.391,0.317-0.709,0.709-0.709s0.709,0.317,0.709,0.709h1.417
		c0-0.391,0.317-0.709,0.709-0.709c0.391,0,0.709,0.317,0.709,0.709h1.417c0-0.391,0.317-0.709,0.709-0.709
		c0.391,0,0.709,0.317,0.709,0.709h1.417c0-0.391,0.317-0.709,0.709-0.709c0.391,0,0.709,0.317,0.709,0.709h1.417
		c0-0.391,0.317-0.709,0.709-0.709c0.391,0,0.709,0.317,0.709,0.709h9.213c0-0.783,0.635-1.417,1.417-1.417v-9.213
		C70.343,57.402,70.026,57.084,70.026,56.693z"/>
	<path fill="#DCDCDC" d="M67.701,65.707H5.736c-0.391,0-0.709-0.317-0.709-0.709V3.033c0-0.391,0.317-0.709,0.709-0.709h61.965
		c0.391,0,0.709,0.317,0.709,0.709v61.965C68.41,65.39,68.093,65.707,67.701,65.707z"/>
	<path fill="#E1C57A" d="M37.427,0c0,0.391-0.317,0.709-0.709,0.709c-0.391,0-0.709-0.317-0.709-0.709h-0.142v1.276h1.701V0H37.427z
		"/>
	<path fill="#E1C57A" d="M37.427,68.032c0-0.391-0.317-0.709-0.709-0.709c-0.391,0-0.709,0.317-0.709,0.709h-0.142v-1.276h1.701
		v1.276H37.427z"/>
	<path fill="#E1C57A" d="M40.262,0c0,0.391-0.317,0.709-0.709,0.709c-0.391,0-0.709-0.317-0.709-0.709h-0.141v1.276h1.701V0H40.262z
		"/>
	<path fill="#E1C57A" d="M40.262,68.032c0-0.391-0.317-0.709-0.709-0.709c-0.391,0-0.709,0.317-0.709,0.709h-0.141v-1.276h1.701
		v1.276H40.262z"/>
	<path fill="#E1C57A" d="M43.097,0c0,0.391-0.317,0.709-0.709,0.709c-0.391,0-0.709-0.317-0.709-0.709h-0.142v1.276h1.701V0H43.097z
		"/>
	<path fill="#E1C57A" d="M43.097,68.032c0-0.391-0.317-0.709-0.709-0.709c-0.391,0-0.709,0.317-0.709,0.709h-0.142v-1.276h1.701
		v1.276H43.097z"/>
	<path fill="#E1C57A" d="M45.931,0c0,0.391-0.317,0.709-0.709,0.709c-0.391,0-0.709-0.317-0.709-0.709h-0.142v1.276h1.701V0H45.931z
		"/>
	<path fill="#E1C57A" d="M45.931,68.032c0-0.391-0.317-0.709-0.709-0.709c-0.391,0-0.709,0.317-0.709,0.709h-0.142v-1.276h1.701
		v1.276H45.931z"/>
	<path fill="#E1C57A" d="M48.766,0c0,0.391-0.317,0.709-0.709,0.709c-0.391,0-0.709-0.317-0.709-0.709h-0.142v1.276h1.701V0H48.766z
		"/>
	<path fill="#E1C57A" d="M48.766,68.032c0-0.391-0.317-0.709-0.709-0.709c-0.391,0-0.709,0.317-0.709,0.709h-0.142v-1.276h1.701
		v1.276H48.766z"/>
	<path fill="#E1C57A" d="M51.601,0c0,0.391-0.317,0.709-0.709,0.709c-0.391,0-0.709-0.317-0.709-0.709h-0.142v1.276h1.701V0H51.601z
		"/>
	<path fill="#E1C57A" d="M51.601,68.032c0-0.391-0.317-0.709-0.709-0.709c-0.391,0-0.709,0.317-0.709,0.709h-0.142v-1.276h1.701
		v1.276H51.601z"/>
	<path fill="#E1C57A" d="M54.435,0c0,0.391-0.317,0.709-0.709,0.709c-0.391,0-0.709-0.317-0.709-0.709h-0.142v1.276h1.701V0H54.435z
		"/>
	<path fill="#E1C57A" d="M54.435,68.032c0-0.391-0.317-0.709-0.709-0.709c-0.391,0-0.709,0.317-0.709,0.709h-0.142v-1.276h1.701
		v1.276H54.435z"/>
	<path fill="#E1C57A" d="M57.27,0c0,0.391-0.317,0.709-0.709,0.709c-0.391,0-0.709-0.317-0.709-0.709H55.71v1.276h1.701V0H57.27z"/>
	<path fill="#E1C57A" d="M57.27,68.032c0-0.391-0.317-0.709-0.709-0.709c-0.391,0-0.709,0.317-0.709,0.709H55.71v-1.276h1.701v1.276
		H57.27z"/>
	<path fill="#E1C57A" d="M60.105,0c0,0.391-0.317,0.709-0.709,0.709c-0.391,0-0.709-0.317-0.709-0.709h-0.142v1.276h1.701V0H60.105z
		"/>
	<path fill="#E1C57A" d="M60.105,68.032c0-0.391-0.317-0.709-0.709-0.709c-0.391,0-0.709,0.317-0.709,0.709h-0.142v-1.276h1.701
		v1.276H60.105z"/>
	<path fill="#E1C57A" d="M34.593,0c0,0.391-0.317,0.709-0.709,0.709c-0.391,0-0.709-0.317-0.709-0.709h-0.142v1.276h1.701V0H34.593z
		"/>
	<path fill="#E1C57A" d="M34.593,68.032c0-0.391-0.317-0.709-0.709-0.709c-0.391,0-0.709,0.317-0.709,0.709h-0.142v-1.276h1.701
		v1.276H34.593z"/>
	<path fill="#E1C57A" d="M31.758,0c0,0.391-0.317,0.709-0.709,0.709c-0.391,0-0.709-0.317-0.709-0.709h-0.142v1.276h1.701V0H31.758z
		"/>
	<path fill="#E1C57A" d="M31.758,68.032c0-0.391-0.317-0.709-0.709-0.709c-0.391,0-0.709,0.317-0.709,0.709h-0.142v-1.276h1.701
		v1.276H31.758z"/>
	<path fill="#E1C57A" d="M28.924,0c0,0.391-0.317,0.709-0.709,0.709c-0.391,0-0.709-0.317-0.709-0.709h-0.142v1.276h1.701V0H28.924z
		"/>
	<path fill="#E1C57A" d="M28.924,68.032c0-0.391-0.317-0.709-0.709-0.709c-0.391,0-0.709,0.317-0.709,0.709h-0.142v-1.276h1.701
		v1.276H28.924z"/>
	<path fill="#E1C57A" d="M26.089,0c0,0.391-0.317,0.709-0.709,0.709c-0.391,0-0.709-0.317-0.709-0.709h-0.142v1.276h1.701V0H26.089z
		"/>
	<path fill="#E1C57A" d="M26.089,68.032c0-0.391-0.317-0.709-0.709-0.709c-0.391,0-0.709,0.317-0.709,0.709h-0.142v-1.276h1.701
		v1.276H26.089z"/>
	<path fill="#E1C57A" d="M23.254,0c0,0.391-0.317,0.709-0.709,0.709c-0.391,0-0.709-0.317-0.709-0.709h-0.142v1.276h1.701V0H23.254z
		"/>
	<path fill="#E1C57A" d="M23.254,68.032c0-0.391-0.317-0.709-0.709-0.709c-0.391,0-0.709,0.317-0.709,0.709h-0.142v-1.276h1.701
		v1.276H23.254z"/>
	<path fill="#E1C57A" d="M20.42,0c0,0.391-0.317,0.709-0.709,0.709c-0.391,0-0.709-0.317-0.709-0.709H18.86v1.276h1.701V0H20.42z"/>
	<path fill="#E1C57A" d="M20.42,68.032c0-0.391-0.317-0.709-0.709-0.709c-0.391,0-0.709,0.317-0.709,0.709H18.86v-1.276h1.701v1.276
		H20.42z"/>
	<path fill="#E1C57A" d="M17.585,0c0,0.391-0.317,0.709-0.709,0.709c-0.391,0-0.709-0.317-0.709-0.709h-0.142v1.276h1.701V0H17.585z
		"/>
	<path fill="#E1C57A" d="M17.585,68.032c0-0.391-0.317-0.709-0.709-0.709c-0.391,0-0.709,0.317-0.709,0.709h-0.142v-1.276h1.701
		v1.276H17.585z"/>
	<path fill="#E1C57A" d="M14.75,0c0,0.391-0.317,0.709-0.709,0.709c-0.391,0-0.709-0.317-0.709-0.709H13.19v1.276h1.701V0H14.75z"/>
	<path fill="#E1C57A" d="M14.75,68.032c0-0.391-0.317-0.709-0.709-0.709c-0.391,0-0.709,0.317-0.709,0.709H13.19v-1.276h1.701v1.276
		H14.75z"/>
	<path fill="#E1C57A" d="M2.703,33.307c0.391,0,0.709,0.317,0.709,0.709c0,0.391-0.317,0.709-0.709,0.709v0.142h1.276v-1.701H2.703
		V33.307z"/>
	<path fill="#E1C57A" d="M70.735,33.307c-0.391,0-0.709,0.317-0.709,0.709c0,0.391,0.317,0.709,0.709,0.709v0.142h-1.276v-1.701
		h1.276V33.307z"/>
	<path fill="#E1C57A" d="M2.703,36.142c0.391,0,0.709,0.317,0.709,0.709c0,0.391-0.317,0.709-0.709,0.709v0.142h1.276V36H2.703
		V36.142z"/>
	<path fill="#E1C57A" d="M70.735,36.142c-0.391,0-0.709,0.317-0.709,0.709c0,0.391,0.317,0.709,0.709,0.709v0.142h-1.276V36h1.276
		V36.142z"/>
	<path fill="#E1C57A" d="M2.703,38.976c0.391,0,0.709,0.317,0.709,0.709c0,0.391-0.317,0.709-0.709,0.709v0.142h1.276v-1.701H2.703
		V38.976z"/>
	<path fill="#E1C57A" d="M70.735,38.976c-0.391,0-0.709,0.317-0.709,0.709c0,0.391,0.317,0.709,0.709,0.709v0.142h-1.276v-1.701
		h1.276V38.976z"/>
	<path fill="#E1C57A" d="M2.703,41.811c0.391,0,0.709,0.317,0.709,0.709c0,0.391-0.317,0.709-0.709,0.709v0.142h1.276V41.67H2.703
		V41.811z"/>
	<path fill="#E1C57A" d="M70.735,41.811c-0.391,0-0.709,0.317-0.709,0.709c0,0.391,0.317,0.709,0.709,0.709v0.142h-1.276V41.67
		h1.276V41.811z"/>
	<path fill="#E1C57A" d="M2.703,44.646c0.391,0,0.709,0.317,0.709,0.709c0,0.391-0.317,0.709-0.709,0.709v0.142h1.276v-1.701H2.703
		V44.646z"/>
	<path fill="#E1C57A" d="M70.735,44.646c-0.391,0-0.709,0.317-0.709,0.709c0,0.391,0.317,0.709,0.709,0.709v0.142h-1.276v-1.701
		h1.276V44.646z"/>
	<path fill="#E1C57A" d="M2.703,47.48c0.391,0,0.709,0.317,0.709,0.709c0,0.391-0.317,0.709-0.709,0.709v0.142h1.276v-1.701H2.703
		V47.48z"/>
	<path fill="#E1C57A" d="M70.735,47.48c-0.391,0-0.709,0.317-0.709,0.709c0,0.391,0.317,0.709,0.709,0.709v0.142h-1.276v-1.701
		h1.276V47.48z"/>
	<path fill="#E1C57A" d="M2.703,50.315c0.391,0,0.709,0.317,0.709,0.709c0,0.391-0.317,0.709-0.709,0.709v0.142h1.276v-1.701H2.703
		V50.315z"/>
	<path fill="#E1C57A" d="M70.735,50.315c-0.391,0-0.709,0.317-0.709,0.709c0,0.391,0.317,0.709,0.709,0.709v0.142h-1.276v-1.701
		h1.276V50.315z"/>
	<path fill="#E1C57A" d="M2.703,53.15c0.391,0,0.709,0.317,0.709,0.709c0,0.391-0.317,0.709-0.709,0.709v0.142h1.276v-1.701H2.703
		V53.15z"/>
	<path fill="#E1C57A" d="M70.735,53.15c-0.391,0-0.709,0.317-0.709,0.709c0,0.391,0.317,0.709,0.709,0.709v0.142h-1.276v-1.701
		h1.276V53.15z"/>
	<path fill="#E1C57A" d="M2.703,55.984c0.391,0,0.709,0.317,0.709,0.709c0,0.391-0.317,0.709-0.709,0.709v0.142h1.276v-1.701H2.703
		V55.984z"/>
	<path fill="#E1C57A" d="M70.735,55.984c-0.391,0-0.709,0.317-0.709,0.709c0,0.391,0.317,0.709,0.709,0.709v0.142h-1.276v-1.701
		h1.276V55.984z"/>
	<path fill="#E1C57A" d="M2.703,30.472c0.391,0,0.709,0.317,0.709,0.709c0,0.391-0.317,0.709-0.709,0.709v0.142h1.276v-1.701H2.703
		V30.472z"/>
	<path fill="#E1C57A" d="M70.735,30.472c-0.391,0-0.709,0.317-0.709,0.709c0,0.391,0.317,0.709,0.709,0.709v0.142h-1.276v-1.701
		h1.276V30.472z"/>
	<path fill="#E1C57A" d="M2.703,27.638c0.391,0,0.709,0.317,0.709,0.709c0,0.391-0.317,0.709-0.709,0.709v0.142h1.276v-1.701H2.703
		V27.638z"/>
	<path fill="#E1C57A" d="M70.735,27.638c-0.391,0-0.709,0.317-0.709,0.709c0,0.391,0.317,0.709,0.709,0.709v0.142h-1.276v-1.701
		h1.276V27.638z"/>
	<path fill="#E1C57A" d="M2.703,24.803c0.391,0,0.709,0.317,0.709,0.709c0,0.391-0.317,0.709-0.709,0.709v0.142h1.276v-1.701H2.703
		V24.803z"/>
	<path fill="#E1C57A" d="M70.735,24.803c-0.391,0-0.709,0.317-0.709,0.709c0,0.391,0.317,0.709,0.709,0.709v0.142h-1.276v-1.701
		h1.276V24.803z"/>
	<path fill="#E1C57A" d="M2.703,21.969c0.391,0,0.709,0.317,0.709,0.709c0,0.391-0.317,0.709-0.709,0.709v0.142h1.276v-1.701H2.703
		V21.969z"/>
	<path fill="#E1C57A" d="M70.735,21.969c-0.391,0-0.709,0.317-0.709,0.709c0,0.391,0.317,0.709,0.709,0.709v0.142h-1.276v-1.701
		h1.276V21.969z"/>
	<path fill="#E1C57A" d="M2.703,19.134c0.391,0,0.709,0.317,0.709,0.709c0,0.391-0.317,0.709-0.709,0.709v0.142h1.276v-1.701H2.703
		V19.134z"/>
	<path fill="#E1C57A" d="M70.735,19.134c-0.391,0-0.709,0.317-0.709,0.709c0,0.391,0.317,0.709,0.709,0.709v0.142h-1.276v-1.701
		h1.276V19.134z"/>
	<path fill="#E1C57A" d="M2.703,16.299c0.391,0,0.709,0.317,0.709,0.709c0,0.391-0.317,0.709-0.709,0.709v0.142h1.276v-1.701H2.703
		V16.299z"/>
	<path fill="#E1C57A" d="M70.735,16.299c-0.391,0-0.709,0.317-0.709,0.709c0,0.391,0.317,0.709,0.709,0.709v0.142h-1.276v-1.701
		h1.276V16.299z"/>
	<path fill="#E1C57A" d="M2.703,13.465c0.391,0,0.709,0.317,0.709,0.709c0,0.391-0.317,0.709-0.709,0.709v0.142h1.276v-1.701H2.703
		V13.465z"/>
	<path fill="#E1C57A" d="M70.735,13.465c-0.391,0-0.709,0.317-0.709,0.709c0,0.391,0.317,0.709,0.709,0.709v0.142h-1.276v-1.701
		h1.276V13.465z"/>
	<path fill="#E1C57A" d="M2.703,10.63c0.391,0,0.709,0.317,0.709,0.709c0,0.391-0.317,0.709-0.709,0.709v0.142h1.276v-1.701H2.703
		V10.63z"/>
	<path fill="#E1C57A" d="M70.735,10.63c-0.391,0-0.709,0.317-0.709,0.709c0,0.391,0.317,0.709,0.709,0.709v0.142h-1.276v-1.701
		h1.276V10.63z"/>
	<path fill="#DCDCDC" d="M6.955,0H4.262c0,0.861-0.698,1.559-1.559,1.559v2.693L6.955,0z"/>
	<rect x="8.372" y="5.669" fill="#FFFFFF" width="56.693" height="56.693"/>
	<path fill="#DC1E1E" d="M8.372,16.441h15.224c1.07,0,2.049-0.602,2.531-1.558l2.719-5.388c0.482-0.955,1.461-1.558,2.531-1.558
		h33.688V5.669H8.372V16.441z"/>
</g>
</svg>
