<?xml version="1.0" encoding="utf-8"?>
<!-- Generator: Adobe Illustrator 20.0.0, SVG Export Plug-In . SVG Version: 6.00 Build 0)  -->
<svg version="1.2" baseProfile="tiny" id="Layer_1" xmlns="http://www.w3.org/2000/svg" xmlns:xlink="http://www.w3.org/1999/xlink"
	 x="0px" y="0px" width="29.197px" height="29.197px" viewBox="0 0 29.197 29.197" xml:space="preserve">
<g>
	
		<rect x="-12.6" y="14.031" transform="matrix(8.980645e-11 -1 1 8.980645e-11 -12.6 16.5968)" fill="#DCDCDC" width="29.197" height="1.134"/>
	
		<rect x="-9" y="14.031" transform="matrix(8.980645e-11 -1 1 8.980645e-11 -9 20.1968)" fill="#DCDCDC" width="29.197" height="1.134"/>
	
		<rect x="-5.4" y="14.031" transform="matrix(8.980645e-11 -1 1 8.980645e-11 -5.4 23.7969)" fill="#DCDCDC" width="29.197" height="1.134"/>
	
		<rect x="-1.8" y="14.031" transform="matrix(8.980645e-11 -1 1 8.980645e-11 -1.8 27.3969)" fill="#DCDCDC" width="29.197" height="1.134"/>
	
		<rect x="1.8" y="14.031" transform="matrix(8.980645e-11 -1 1 8.980645e-11 1.8 30.9969)" fill="#DCDCDC" width="29.197" height="1.134"/>
	
		<rect x="5.4" y="14.031" transform="matrix(8.980645e-11 -1 1 8.980645e-11 5.4 34.5969)" fill="#DCDCDC" width="29.197" height="1.134"/>
	
		<rect x="9" y="14.031" transform="matrix(8.980645e-11 -1 1 8.980645e-11 9 38.1968)" fill="#DCDCDC" width="29.197" height="1.134"/>
	
		<rect x="12.6" y="14.031" transform="matrix(8.980645e-11 -1 1 8.980645e-11 12.6 41.7969)" fill="#DCDCDC" width="29.197" height="1.134"/>
	
		<rect x="3.969" y="0" transform="matrix(8.979490e-11 -1 1 8.979490e-11 -1.539147e-09 29.1968)" fill="#333333" width="21.26" height="29.197"/>
	
		<rect x="13.89" y="9.921" transform="matrix(8.983753e-11 -1 1 8.983753e-11 -9.9213 39.1181)" fill="#505050" width="1.417" height="29.197"/>
	<path d="M0,16.866c1.252,0,2.268-1.015,2.268-2.268S1.252,12.331,0,12.331L0,16.866z"/>
</g>
</svg>
