<?xml version="1.0" encoding="utf-8"?>
<!-- Generator: Adobe Illustrator 16.0.0, SVG Export Plug-In . SVG Version: 6.00 Build 0)  -->
<svg version="1.2" baseProfile="tiny" id="svg2" xmlns:xml="http://www.w3.org/XML/1998/namespace"
	 xmlns="http://www.w3.org/2000/svg" xmlns:xlink="http://www.w3.org/1999/xlink" x="0px" y="0px" width="77.209px"
	 height="72.359px" viewBox="0 10.696 77.209 72.359" xml:space="preserve">
<g id="icon">
	<rect id="Red_Background" x="0.446" y="10.773" fill="#C52717" stroke="#FFFFFF" stroke-width="0.2032" width="76.5" height="72"/>
	<text id="CS" transform="matrix(1 0 0 1 60.9558 75.4954)" fill="#FFFFFF" font-family="'DroidSans'" font-size="4.95">CS</text>
	<text id="DO" transform="matrix(1 0 0 1 59.45 30.4954)" fill="#FFFFFF" font-family="'DroidSans'" font-size="4.95">DO</text>
	<text id="GND" transform="matrix(1 0 0 1 56.1003 39.4954)" fill="#FFFFFF" font-family="'DroidSans'" font-size="4.95">GND</text>
	<text transform="matrix(1 0 0 1 57.9304 57.4954)" fill="#FFFFFF" font-family="'DroidSans'" font-size="4.95">V</text>
	<text transform="matrix(1 0 0 1 60.6423 57.4954)" fill="#FFFFFF" font-family="'DroidSans'" font-size="4.95">C</text>
	<text transform="matrix(1 0 0 1 63.5281 57.4954)" fill="#FFFFFF" font-family="'DroidSans'" font-size="4.95">C</text>
	<text id="SCK" transform="matrix(1 0 0 1 58.0886 48.4954)" fill="#FFFFFF" font-family="'DroidSans'" font-size="4.95">SCK</text>
	<text transform="matrix(1 0 0 1 61.4949 66.4954)" fill="#FFFFFF" font-family="'DroidSans'" font-size="4.95">D</text>
	<text transform="matrix(1 0 0 1 64.8328 66.4954)" fill="#FFFFFF" font-family="'DroidSans'" font-size="4.95">I</text>
	<text id="CD" transform="matrix(1 0 0 1 60.1414 21.4954)" fill="#FFFFFF" font-family="'DroidSans'" font-size="4.95">CD</text>
	
		<line id="line101" fill="none" stroke="#000000" stroke-width="0.2032" stroke-linecap="round" x1="0.36" y1="82.696" x2="76.86" y2="82.696"/>
	
		<line id="line103" fill="none" stroke="#000000" stroke-width="0.2032" stroke-linecap="round" x1="76.86" y1="82.696" x2="76.86" y2="10.696"/>
	
		<line id="line105" fill="none" stroke="#000000" stroke-width="0.2032" stroke-linecap="round" x1="76.86" y1="10.696" x2="0.36" y2="10.696"/>
	
		<line id="line107" fill="none" stroke="#000000" stroke-width="0.2032" stroke-linecap="round" x1="0.36" y1="10.696" x2="0.36" y2="82.696"/>
	
		<line id="line127" fill="none" stroke="#FFFFFF" stroke-width="0.2032" stroke-linecap="round" x1="67.86" y1="21.946" x2="67.86" y2="17.446"/>
	
		<line id="line129" fill="none" stroke="#FFFFFF" stroke-width="0.2032" stroke-linecap="round" x1="67.86" y1="17.446" x2="70.11" y2="15.196"/>
	
		<line id="line131" fill="none" stroke="#FFFFFF" stroke-width="0.2032" stroke-linecap="round" x1="74.61" y1="15.196" x2="76.86" y2="17.446"/>
	
		<line id="line133" fill="none" stroke="#FFFFFF" stroke-width="0.2032" stroke-linecap="round" x1="70.11" y1="33.196" x2="67.86" y2="30.946"/>
	
		<line id="line135" fill="none" stroke="#FFFFFF" stroke-width="0.2032" stroke-linecap="round" x1="67.86" y1="30.946" x2="67.86" y2="26.446"/>
	
		<line id="line137" fill="none" stroke="#FFFFFF" stroke-width="0.2032" stroke-linecap="round" x1="67.86" y1="26.446" x2="70.11" y2="24.196"/>
	
		<line id="line139" fill="none" stroke="#FFFFFF" stroke-width="0.2032" stroke-linecap="round" x1="74.61" y1="24.196" x2="76.86" y2="26.446"/>
	
		<line id="line141" fill="none" stroke="#FFFFFF" stroke-width="0.2032" stroke-linecap="round" x1="76.86" y1="26.446" x2="76.86" y2="30.946"/>
	
		<line id="line143" fill="none" stroke="#FFFFFF" stroke-width="0.2032" stroke-linecap="round" x1="76.86" y1="30.946" x2="74.61" y2="33.196"/>
	
		<line id="line145" fill="none" stroke="#FFFFFF" stroke-width="0.2032" stroke-linecap="round" x1="67.86" y1="21.946" x2="70.11" y2="24.196"/>
	
		<line id="line147" fill="none" stroke="#FFFFFF" stroke-width="0.2032" stroke-linecap="round" x1="74.61" y1="24.196" x2="76.86" y2="21.946"/>
	
		<line id="line149" fill="none" stroke="#FFFFFF" stroke-width="0.2032" stroke-linecap="round" x1="76.86" y1="17.446" x2="76.86" y2="21.946"/>
	
		<line id="line151" fill="none" stroke="#FFFFFF" stroke-width="0.2032" stroke-linecap="round" x1="67.86" y1="48.946" x2="67.86" y2="44.446"/>
	
		<line id="line153" fill="none" stroke="#FFFFFF" stroke-width="0.2032" stroke-linecap="round" x1="67.86" y1="44.446" x2="70.11" y2="42.196"/>
	
		<line id="line155" fill="none" stroke="#FFFFFF" stroke-width="0.2032" stroke-linecap="round" x1="74.61" y1="42.196" x2="76.86" y2="44.446"/>
	
		<line id="line157" fill="none" stroke="#FFFFFF" stroke-width="0.2032" stroke-linecap="round" x1="70.11" y1="42.196" x2="67.86" y2="39.946"/>
	
		<line id="line159" fill="none" stroke="#FFFFFF" stroke-width="0.2032" stroke-linecap="round" x1="67.86" y1="39.946" x2="67.86" y2="35.446"/>
	
		<line id="line161" fill="none" stroke="#FFFFFF" stroke-width="0.2032" stroke-linecap="round" x1="67.86" y1="35.446" x2="70.11" y2="33.196"/>
	
		<line id="line163" fill="none" stroke="#FFFFFF" stroke-width="0.2032" stroke-linecap="round" x1="74.61" y1="33.196" x2="76.86" y2="35.446"/>
	
		<line id="line165" fill="none" stroke="#FFFFFF" stroke-width="0.2032" stroke-linecap="round" x1="76.86" y1="35.446" x2="76.86" y2="39.946"/>
	
		<line id="line167" fill="none" stroke="#FFFFFF" stroke-width="0.2032" stroke-linecap="round" x1="76.86" y1="39.946" x2="74.61" y2="42.196"/>
	
		<line id="line169" fill="none" stroke="#FFFFFF" stroke-width="0.2032" stroke-linecap="round" x1="70.11" y1="60.196" x2="67.86" y2="57.946"/>
	
		<line id="line171" fill="none" stroke="#FFFFFF" stroke-width="0.2032" stroke-linecap="round" x1="67.86" y1="57.946" x2="67.86" y2="53.446"/>
	
		<line id="line173" fill="none" stroke="#FFFFFF" stroke-width="0.2032" stroke-linecap="round" x1="67.86" y1="53.446" x2="70.11" y2="51.196"/>
	
		<line id="line175" fill="none" stroke="#FFFFFF" stroke-width="0.2032" stroke-linecap="round" x1="74.61" y1="51.196" x2="76.86" y2="53.446"/>
	
		<line id="line177" fill="none" stroke="#FFFFFF" stroke-width="0.2032" stroke-linecap="round" x1="76.86" y1="53.446" x2="76.86" y2="57.946"/>
	
		<line id="line179" fill="none" stroke="#FFFFFF" stroke-width="0.2032" stroke-linecap="round" x1="76.86" y1="57.946" x2="74.61" y2="60.196"/>
	
		<line id="line181" fill="none" stroke="#FFFFFF" stroke-width="0.2032" stroke-linecap="round" x1="67.86" y1="48.946" x2="70.11" y2="51.196"/>
	
		<line id="line183" fill="none" stroke="#FFFFFF" stroke-width="0.2032" stroke-linecap="round" x1="74.61" y1="51.196" x2="76.86" y2="48.946"/>
	
		<line id="line185" fill="none" stroke="#FFFFFF" stroke-width="0.2032" stroke-linecap="round" x1="76.86" y1="44.446" x2="76.86" y2="48.946"/>
	
		<line id="line187" fill="none" stroke="#FFFFFF" stroke-width="0.2032" stroke-linecap="round" x1="67.86" y1="75.946" x2="67.86" y2="71.446"/>
	
		<line id="line189" fill="none" stroke="#FFFFFF" stroke-width="0.2032" stroke-linecap="round" x1="67.86" y1="71.446" x2="70.11" y2="69.196"/>
	
		<line id="line191" fill="none" stroke="#FFFFFF" stroke-width="0.2032" stroke-linecap="round" x1="74.61" y1="69.196" x2="76.86" y2="71.446"/>
	
		<line id="line193" fill="none" stroke="#FFFFFF" stroke-width="0.2032" stroke-linecap="round" x1="70.11" y1="69.196" x2="67.86" y2="66.946"/>
	
		<line id="line195" fill="none" stroke="#FFFFFF" stroke-width="0.2032" stroke-linecap="round" x1="67.86" y1="66.946" x2="67.86" y2="62.446"/>
	
		<line id="line197" fill="none" stroke="#FFFFFF" stroke-width="0.2032" stroke-linecap="round" x1="67.86" y1="62.446" x2="70.11" y2="60.196"/>
	
		<line id="line199" fill="none" stroke="#FFFFFF" stroke-width="0.2032" stroke-linecap="round" x1="74.61" y1="60.196" x2="76.86" y2="62.446"/>
	
		<line id="line201" fill="none" stroke="#FFFFFF" stroke-width="0.2032" stroke-linecap="round" x1="76.86" y1="62.446" x2="76.86" y2="66.946"/>
	
		<line id="line203" fill="none" stroke="#FFFFFF" stroke-width="0.2032" stroke-linecap="round" x1="76.86" y1="66.946" x2="74.61" y2="69.196"/>
	
		<line id="line205" fill="none" stroke="#FFFFFF" stroke-width="0.2032" stroke-linecap="round" x1="70.11" y1="78.196" x2="74.61" y2="78.196"/>
	
		<line id="line207" fill="none" stroke="#FFFFFF" stroke-width="0.2032" stroke-linecap="round" x1="67.86" y1="75.946" x2="70.11" y2="78.196"/>
	
		<line id="line209" fill="none" stroke="#FFFFFF" stroke-width="0.2032" stroke-linecap="round" x1="74.61" y1="78.196" x2="76.86" y2="75.946"/>
	
		<line id="line211" fill="none" stroke="#FFFFFF" stroke-width="0.2032" stroke-linecap="round" x1="76.86" y1="71.446" x2="76.86" y2="75.946"/>
	
		<line id="line213" fill="none" stroke="#FFFFFF" stroke-width="0.2032" stroke-linecap="round" x1="70.11" y1="15.196" x2="74.61" y2="15.196"/>
	<path id="path5519" d="M4.767,34.517h12.437v39.508H4.767V34.517z"/>
	<path id="path5521" d="M21.81,45.43h30.26v28.134H21.81V45.43z"/>
	<path id="path5523" fill="#404040" d="M25.212,74.025v-1.417c0-0.567,0.283-1.063,0.674-1.063h2.657
		c0.39,0,0.673,0.496,0.673,1.063v1.417"/>
	<path id="path5525" d="M29.003,69.418l-0.142,2.764c-0.035,0.496-0.318,0.922-0.673,0.922h-1.949c-0.354,0-0.638-0.426-0.673-0.922
		l-0.142-2.94"/>
	<path id="path5527" fill="#404040" d="M45.161,74.025v-1.417c0-0.567,0.318-1.063,0.673-1.063h2.693
		c0.354,0,0.673,0.496,0.673,1.063v1.417"/>
	<path id="path5529" d="M48.952,69.418l-0.142,2.764c0,0.496-0.319,0.922-0.638,0.922h-1.984c-0.319,0-0.638-0.426-0.638-0.922
		l-0.142-2.94"/>
	<path id="path5531" fill="#404040" d="M20.57,37.139h31.5v4.783h-31.5V37.139z"/>
	<path id="path5533" fill="#B7B7B7" d="M33.787,30.903h1.275v5.882h-1.275V30.903z"/>
	<path id="path5535" fill="#B7B7B7" d="M29.995,30.903h1.24v5.882h-1.24V30.903z"/>
	<path id="path5537" fill="#B7B7B7" d="M26.204,30.903h1.24v5.882h-1.24V30.903z"/>
	<path id="path5539" fill="#B7B7B7" d="M22.413,30.903h1.24v5.882h-1.24V30.903z"/>
	<path id="path5541" fill="#B7B7B7" d="M49.59,30.903h1.275v5.882H49.59V30.903z"/>
	<path id="path5543" fill="#B7B7B7" d="M45.799,30.903h1.275v5.882h-1.275V30.903z"/>
	<path id="path5545" fill="#B7B7B7" d="M42.007,30.903h1.24v5.882h-1.24V30.903z"/>
	<path id="path5547" fill="#B7B7B7" d="M38.216,30.903h1.24v5.882h-1.24V30.903z"/>
	<path id="path5549" d="M21.952,36.112v0.354h-0.354v3.188h14.351v-3.188h-0.461v-0.354h-2.126v0.354h-1.665v-0.354H29.57v0.354
		h-1.665v-0.354h-2.126v0.354h-1.701v-0.354H21.952z"/>
	<path id="path5551" d="M37.791,36.112v0.354h-0.319v3.188h14.351v-3.188h-0.461v-0.354h-2.126v0.354H47.57v-0.354h-2.126v0.354
		h-1.701v-0.354h-2.126v0.354h-1.7v-0.354H37.791z"/>
	<path id="path5553" fill="#B7B7B7" d="M22.129,36.714h1.808v0.39h-1.808V36.714z"/>
	<path id="path5555" fill="#B7B7B7" d="M25.921,36.714h1.807v0.39h-1.807V36.714z"/>
	<path id="path5557" fill="#B7B7B7" d="M29.712,36.714h1.808v0.39h-1.808V36.714z"/>
	<path id="path5559" fill="#B7B7B7" d="M33.503,36.714h1.843v0.39h-1.843V36.714z"/>
	<path id="path5561" fill="#B7B7B7" d="M33.787,36.891h1.275v2.729h-1.275V36.891z"/>
	<path id="path5563" fill="#B7B7B7" d="M29.995,36.891h1.24v2.729h-1.24V36.891z"/>
	<path id="path5565" fill="#B7B7B7" d="M26.204,36.891h1.24v2.729h-1.24V36.891z"/>
	<path id="path5567" fill="#B7B7B7" d="M22.413,36.891h1.24v2.729h-1.24V36.891z"/>
	<path id="path5569" d="M21.491,38.804h15.272v2.445H21.491V38.804z"/>
	<path id="path5571" fill="#B7B7B7" d="M37.932,36.714h1.807v0.39h-1.807V36.714z"/>
	<path id="path5573" fill="#B7B7B7" d="M41.723,36.714h1.808v0.39h-1.808V36.714z"/>
	<path id="path5575" fill="#B7B7B7" d="M45.515,36.714h1.807v0.39h-1.807V36.714z"/>
	<path id="path5577" fill="#B7B7B7" d="M49.306,36.714h1.843v0.39h-1.843V36.714z"/>
	<path id="path5579" fill="#B7B7B7" d="M49.59,36.891h1.275v2.729H49.59V36.891z"/>
	<path id="path5581" fill="#B7B7B7" d="M45.799,36.891h1.275v2.729h-1.275V36.891z"/>
	<path id="path5583" fill="#B7B7B7" d="M42.007,36.891h1.24v2.729h-1.24V36.891z"/>
	<path id="path5585" fill="#B7B7B7" d="M38.216,36.891h1.24v2.729h-1.24V36.891z"/>
	<path id="path5587" d="M37.295,38.804h15.271v2.445H37.295V38.804z"/>
	<path id="path5589" fill="#666666" d="M51.999,19.458l-1.878,3.188H19.719l-1.736-2.941h-2.87l-1.807-3.295H7.105v3.508h2.41
		c0.354,0,0.354,0.674,0,0.674H9.125c-0.46,0-0.638,0.105-0.638,0.425v1.347c0,0.318,0.178,0.425,0.638,0.425h0.391
		c0.354,0,0.354,0.638,0,0.638H4.413v4.288h50.208v-8.256H51.999z"/>
	<path id="path5591" fill="#606060" d="M51.999,19.883l-1.878,3.188H19.719l-1.736-2.94h-2.87l-1.807-3.295H7.105v3.543h2.41
		c0.354,0,0.354,0.638,0,0.638H9.125c-0.46,0-0.638,0.106-0.638,0.425v1.347c0,0.319,0.178,0.426,0.638,0.426h0.391
		c0.354,0,0.354,0.638,0,0.638H4.413v50.173h4.854l0.105-0.851c0.036-0.212,0.213-0.39,0.391-0.39h0.248
		c0.177,0,0.39,0.178,0.39,0.39l0.105,0.851h13.748l-0.673-25.264c-0.035-0.425,0.213-0.779,0.496-0.779
		c0.319,0,0.567,0.354,0.603,0.779l1.099,23.279c0.035,0.426,0.283,0.779,0.602,0.779h1.666c0.318,0,0.566-0.354,0.566-0.779
		l1.134-23.279c0.036-0.425,0.284-0.779,0.567-0.779c0.318,0,0.531,0.354,0.531,0.779l-0.673,25.264h14.031l-0.673-25.264
		c0-0.425,0.248-0.779,0.531-0.779s0.566,0.354,0.566,0.779l1.135,23.279c0.035,0.426,0.283,0.779,0.566,0.779h1.701
		c0.283,0,0.531-0.354,0.566-0.779l1.134-23.279c0-0.425,0.284-0.779,0.567-0.779s0.531,0.354,0.531,0.779l-0.673,25.264h4.464
		V19.883H51.999L51.999,19.883z M12.952,39.23h0.496c0.177,0,0.354,0.142,0.354,0.354c0,0.177-0.071,0.354-0.142,0.354
		c-0.106,0-0.142,0.178-0.142,0.39V57.3c0,0.213-0.178,0.39-0.391,0.39H4.873V36.218h1.63c0.178,0,0.391,0.177,0.426,0.39
		L8.381,47.06c0.036,0.213-0.07,0.496-0.212,0.638l-0.567,0.639c-0.142,0.177-0.248,0.46-0.248,0.673v3.508
		c0,0.213,0.142,0.39,0.354,0.39h4.465c0.177,0,0.354-0.177,0.354-0.39v-3.295c0-0.213-0.142-0.496-0.284-0.638l-1.275-1.099
		c-0.142-0.142-0.283-0.426-0.283-0.638l-0.779-10.24c-0.036-0.213,0.106-0.39,0.318-0.39h3.366c0.106,0,0.213,0.177,0.213,0.354
		c0,0.213-0.178,0.354-0.354,0.354h-0.496c-0.177,0-0.354,0.178-0.354,0.39v1.524C12.597,39.052,12.775,39.23,12.952,39.23z
		 M35.523,38.449c0,0.426-0.319,0.78-0.744,0.78H22.661c-0.39,0-0.709-0.354-0.709-0.78v-7.865c0-0.426,0.319-0.78,0.709-0.78
		h12.118c0.425,0,0.744,0.354,0.744,0.78V38.449z M51.361,38.449c0,0.426-0.318,0.78-0.744,0.78H38.499
		c-0.39,0-0.708-0.354-0.708-0.78v-7.865c0-0.426,0.318-0.78,0.708-0.78h12.118c0.426,0,0.744,0.354,0.744,0.78V38.449z"/>
	<path id="path5593" fill="#FFFFFF" d="M4.661,23.852h1.275v12.366H4.661V23.852z"/>
	<path id="path5595" fill="#FFFFFF" d="M7.46,16.836h1.808v3.543H7.46V16.836z"/>
	<path id="path5597" fill="#FFFFFF" d="M4.661,57.69h1.275v16.335H4.661V57.69z"/>
	<path id="path5599" fill="#FFFFFF" d="M53.523,19.883h0.886v54.142h-0.886V19.883z"/>
	<path id="path5601" fill="none" stroke="#FFFFFF" stroke-width="0.09" stroke-linecap="round" stroke-linejoin="round" d="
		M7.07,36.501l1.488,10.523c0,0.213-0.071,0.496-0.213,0.673l-0.603,0.744c-0.142,0.178-0.248,0.461-0.248,0.674v3.188"/>
	<path id="path5603" fill="#FFFFFF" d="M4.661,36.218h0.212V57.69H4.661V36.218z"/>
	<path id="path5605" fill="none" stroke="#FFFFFF" stroke-width="0.07" stroke-linecap="round" d="M29.641,48.655
		c0,0-1.063,22.465-1.135,23.103c-0.035,0.638-0.318,0.638-0.318,0.638"/>
	<path id="path5607" fill="none" stroke="#FFFFFF" stroke-width="0.07" stroke-linecap="round" d="M24.787,48.619
		c0,0,1.063,22.5,1.134,23.138c0.07,0.638,0.318,0.638,0.318,0.638"/>
	<path id="path5609" fill="none" stroke="#FFFFFF" stroke-width="0.07" stroke-linecap="round" d="M49.59,48.655
		c0,0-1.027,22.465-1.099,23.103c-0.07,0.638-0.318,0.638-0.318,0.638"/>
	<path id="path5611" fill="none" stroke="#FFFFFF" stroke-width="0.07" stroke-linecap="round" d="M44.771,48.619
		c0,0,1.063,22.5,1.134,23.138c0.07,0.638,0.318,0.638,0.318,0.638"/>
	<path id="path5613" fill="none" stroke="#FFFFFF" stroke-width="0.07" stroke-linecap="round" d="M21.81,30.513v7.973
		c0,0.46,0.39,0.886,0.851,0.886h12.153c0.461,0,0.814-0.426,0.814-0.886v-7.973"/>
	<path id="path5615" fill="none" stroke="#353535" stroke-width="0.07" stroke-linecap="round" d="M22.661,29.662h12.295"/>
	<path id="path5617" fill="none" stroke="#FFFFFF" stroke-width="0.07" stroke-linecap="round" d="M37.649,30.513v7.973
		c0,0.46,0.39,0.886,0.85,0.886h12.154c0.46,0,0.814-0.426,0.814-0.886v-7.973"/>
	<path id="path5619" fill="none" stroke="#353535" stroke-width="0.07" stroke-linecap="round" d="M38.499,29.662H50.83"/>
	<path id="path5621" fill="#FFFFFF" d="M5.227,36.501h0.709V57.69H5.227V36.501z"/>
	<path id="path5623" fill="none" stroke="#FFFFFF" stroke-width="0.07" stroke-linecap="round" d="M23.44,48.69l0.673,24.874"/>
	<path id="path5625" fill="none" stroke="#FFFFFF" stroke-width="0.07" stroke-linecap="round" d="M30.987,48.69l-0.673,24.874"/>
	<path id="path5627" fill="none" stroke="#FFFFFF" stroke-width="0.07" stroke-linecap="round" d="M43.425,48.69l0.673,24.874"/>
	<path id="path5629" fill="none" stroke="#FFFFFF" stroke-width="0.07" stroke-linecap="round" d="M50.971,48.69l-0.673,24.874"/>
	<path id="path5631" fill="#404040" d="M9.692,52.906h0.283v4.783H9.692V52.906z"/>
	<path id="path5633" fill="#353535" d="M9.692,52.906h0.283v0.213H9.692V52.906z"/>
	<path id="path5635" fill="#353535" d="M9.692,57.478h0.283v0.212H9.692V57.478z"/>
	<path id="path5637" fill="none" stroke="#FFFFFF" stroke-width="0.07" d="M13.271,57.761c0.177,0,0.354-0.142,0.354-0.354V40.399
		c0-0.213,0.071-0.354,0.143-0.354"/>
	<path id="path5639" fill="#FFFFFF" d="M13.448,39.23h-0.496c-0.177,0-0.354-0.178-0.354-0.39v-1.524c0-0.212,0.178-0.39,0.354-0.39
		h0.496"/>
	<path id="path5641" fill="none" stroke="#FFFFFF" stroke-width="0.07" stroke-linecap="round" d="M13.235,16.978l1.808,3.295h2.87
		l1.736,2.941h30.543l1.878-3.189"/>
	<path id="path5643" fill="#FFFFFF" d="M9.125,21.017c-0.46,0-0.638,0.106-0.638,0.425v1.347c0,0.319,0.178,0.426,0.638,0.426
		V21.017z"/>
	<circle id="_x31_" fill="none" stroke="#9A916C" stroke-width="1.224" cx="72.361" cy="19.695" r="2.565"/>
	<circle id="_x32_" fill="none" stroke="#9A916C" stroke-width="1.224" cx="72.361" cy="28.695" r="2.565"/>
	<circle id="_x33_" fill="none" stroke="#9A916C" stroke-width="1.224" cx="72.361" cy="37.695" r="2.565"/>
	<circle id="_x34_" fill="none" stroke="#9A916C" stroke-width="1.224" cx="72.361" cy="46.695" r="2.565"/>
	<circle id="_x35_" fill="none" stroke="#9A916C" stroke-width="1.224" cx="72.361" cy="55.695" r="2.565"/>
	<circle id="_x36_" fill="none" stroke="#9A916C" stroke-width="1.224" cx="72.361" cy="64.695" r="2.565"/>
	<circle id="_x37_" fill="none" stroke="#9A916C" stroke-width="1.224" cx="72.361" cy="73.695" r="2.565"/>
</g>
</svg>
