<?xml version='1.0' encoding='utf-8'?>
<!DOCTYPE svg>
<!-- Generator: Adobe Illustrator 17.0.0, SVG Export Plug-In . SVG Version: 6.00 Build 0)  -->
<svg xmlns="http://www.w3.org/2000/svg" width="0.4in" x="0px" version="1.1" y="0px" gorn="0"  height="0.4in" viewBox="0 0 28.8 28.8" xmlns:xml="http://www.w3.org/XML/1998/namespace" id="Layer_3" enable-background="new 0 0 28.8 28.8" xml:space="preserve">
    <desc >
        <referenceFile >Tilt-A-Whirl_RPI-1031_BOB-v11_breadboard-02.svg</referenceFile>
    </desc>
    <g gorn="0.1"  id="breadboard_1_">
        <g gorn="0.1.0"  id="icon">
            <g gorn="0.1.0.0"  id="_x3C_Group_x3E_">
                <path fill="#ED1C24"  d="M0,0l28.8,0v28.8H0L0,0z M27.252,3.6c0-1.133-0.919-2.052-2.052-2.052c-1.133,0-2.052,0.919-2.052,2.052s0.919,2.052,2.052,2.052C26.333,5.652,27.252,4.733,27.252,3.6z M27.252,10.8c0-1.133-0.919-2.052-2.052-2.052c-1.133,0-2.052,0.919-2.052,2.052s0.919,2.052,2.052,2.052C26.333,12.852,27.252,11.933,27.252,10.8z M27.252,18c0-1.133-0.919-2.052-2.052-2.052c-1.133,0-2.052,0.919-2.052,2.052c0,1.133,0.919,2.052,2.052,2.052C26.333,20.052,27.252,19.133,27.252,18z M27.252,25.2c0-1.133-0.919-2.052-2.052-2.052c-1.133,0-2.052,0.919-2.052,2.052c0,1.133,0.919,2.052,2.052,2.052C26.333,27.252,27.252,26.333,27.252,25.2z"/>
                <g gorn="0.1.0.0.1"  id="_x3C_Group_x3E__1_">
                    <g gorn="0.1.0.0.1.0"  id="silkscreen">
                        <path fill="none"  stroke="#FFFFFF" stroke-width="0.576" d="M28.512,0.288H0.288v28.224h28.224V0.288z"/>
                        <g >
                            <title >element:JP1</title>
                            <g >
                                <title >package:1X04</title>
                                <line fill="none"  stroke="#FFFFFF" stroke-linecap="round" y1="23.329" stroke-width="0.576" x1="28.512" y2="26.929" x2="28.512"/>
                                <line fill="none"  stroke="#FFFFFF" stroke-linecap="round" y1="26.929" stroke-width="0.576" x1="28.512" y2="28.512" x2="27"/>
                                <line fill="none"  stroke="#FFFFFF" stroke-linecap="round" y1="28.512" stroke-width="0.576" x1="23.4" y2="27" x2="21.6"/>
                                <line fill="none"  stroke="#FFFFFF" stroke-linecap="round" y1="14.4" stroke-width="0.576" x1="27" y2="16.129" x2="28.512"/>
                                <line fill="none"  stroke="#FFFFFF" stroke-linecap="round" y1="16.129" stroke-width="0.576" x1="28.512" y2="19.729" x2="28.512"/>
                                <line fill="none"  stroke="#FFFFFF" stroke-linecap="round" y1="19.729" stroke-width="0.576" x1="28.512" y2="21.6" x2="27"/>
                                <line fill="none"  stroke="#FFFFFF" stroke-linecap="round" y1="21.6" stroke-width="0.576" x1="23.4" y2="19.8" x2="21.6"/>
                                <line fill="none"  stroke="#FFFFFF" stroke-linecap="round" y1="19.8" stroke-width="0.576" x1="21.6" y2="16.2" x2="21.6"/>
                                <line fill="none"  stroke="#FFFFFF" stroke-linecap="round" y1="16.2" stroke-width="0.576" x1="21.6" y2="14.4" x2="23.4"/>
                                <line fill="none"  stroke="#FFFFFF" stroke-linecap="round" y1="23.329" stroke-width="0.576" x1="28.512" y2="21.6" x2="27"/>
                                <line fill="none"  stroke="#FFFFFF" stroke-linecap="round" y1="21.6" stroke-width="0.576" x1="23.4" y2="23.4" x2="21.6"/>
                                <line fill="none"  stroke="#FFFFFF" stroke-linecap="round" y1="27" stroke-width="0.576" x1="21.6" y2="23.4" x2="21.6"/>
                                <line fill="none"  stroke="#FFFFFF" stroke-linecap="round" y1="1.729" stroke-width="0.576" x1="28.512" y2="5.329" x2="28.512"/>
                                <line fill="none"  stroke="#FFFFFF" stroke-linecap="round" y1="5.329" stroke-width="0.576" x1="28.512" y2="7.2" x2="27"/>
                                <line fill="none"  stroke="#FFFFFF" stroke-linecap="round" y1="7.2" stroke-width="0.576" x1="23.4" y2="5.4" x2="21.6"/>
                                <line fill="none"  stroke="#FFFFFF" stroke-linecap="round" y1="7.2" stroke-width="0.576" x1="27" y2="8.929" x2="28.512"/>
                                <line fill="none"  stroke="#FFFFFF" stroke-linecap="round" y1="8.929" stroke-width="0.576" x1="28.512" y2="12.529" x2="28.512"/>
                                <line fill="none"  stroke="#FFFFFF" stroke-linecap="round" y1="12.529" stroke-width="0.576" x1="28.512" y2="14.4" x2="27"/>
                                <line fill="none"  stroke="#FFFFFF" stroke-linecap="round" y1="14.4" stroke-width="0.576" x1="23.4" y2="12.6" x2="21.6"/>
                                <line fill="none"  stroke="#FFFFFF" stroke-linecap="round" y1="12.6" stroke-width="0.576" x1="21.6" y2="9" x2="21.6"/>
                                <line fill="none"  stroke="#FFFFFF" stroke-linecap="round" y1="9" stroke-width="0.576" x1="21.6" y2="7.2" x2="23.4"/>
                                <line fill="none"  stroke="#FFFFFF" stroke-linecap="round" y1="0.288" stroke-width="0.576" x1="27" y2="0.288" x2="23.4"/>
                                <line fill="none"  stroke="#FFFFFF" stroke-linecap="round" y1="1.729" stroke-width="0.576" x1="28.512" y2="0.288" x2="27"/>
                                <line fill="none"  stroke="#FFFFFF" stroke-linecap="round" y1="0.288" stroke-width="0.576" x1="23.4" y2="1.8" x2="21.6"/>
                                <line fill="none"  stroke="#FFFFFF" stroke-linecap="round" y1="5.4" stroke-width="0.576" x1="21.6" y2="1.8" x2="21.6"/>
                                <line fill="none"  stroke="#FFFFFF" stroke-linecap="round" y1="28.512" stroke-width="0.576" x1="27" y2="28.512" x2="23.4"/>
                            </g>
                        </g>
                        <path fill="#FFFFFF"  stroke="#FFFFFF" stroke-linejoin="round" stroke-width="0.25" d="M11.529,25.615V24.5l-1.231-0.215c-0.077-0.311-0.2-0.604-0.361-0.87l0.719-1.023l-0.789-0.788l-1.024,0.719c-0.267-0.16-0.559-0.282-0.869-0.359l-0.216-1.234H6.642l-0.216,1.234c-0.31,0.076-0.602,0.199-0.869,0.359l-1.024-0.719L3.744,22.39l0.719,1.023c-0.161,0.267-0.284,0.56-0.362,0.87L2.871,24.5v1.116l1.228,0.215c0.078,0.312,0.201,0.605,0.362,0.874l-0.716,1.02l0.789,0.788l1.019-0.715c0.162,0.099,0.333,0.182,0.512,0.251l0.694-1.878c-0.44-0.175-0.751-0.606-0.751-1.108c0-0.659,0.534-1.192,1.192-1.192s1.192,0.534,1.192,1.192c0,0.502-0.311,0.933-0.751,1.108l0.694,1.878c0.179-0.068,0.35-0.152,0.512-0.251l1.019,0.715l0.789-0.788l-0.716-1.02c0.161-0.269,0.285-0.563,0.361-0.874L11.529,25.615z"/>
                        <path fill="#FFFFFF"  d="M18.289,21.024c0,0,0.114,0.485-0.251,0.552c-0.255,0.045-0.666-0.208-0.874-0.459c-0.255-0.311-0.223-0.556-0.025-0.773c0.299-0.33,0.808-0.202,0.808-0.202s-0.935-0.821-1.91-0.149c-0.868,0.597-0.618,1.411,0.164,2.122c0.707,0.642,0.143,1.347-0.569,1.254c-0.487-0.062-0.686-0.453-0.569-0.693c0.102-0.205,0.451-0.331,0.451-0.331s-0.402-0.163-0.875,0.015c-0.424,0.16-0.775,0.511-0.747,1.391v4.078c0,0,0.439-0.542,0.954-1.092c0.578-0.62,0.842-1.041,1.436-0.992c1.123,0.069,1.936-0.43,2.487-1.23C19.831,22.974,19.001,21.254,18.289,21.024z"/>
                    </g>
                    <g  transform="matrix(-1, 0, 0, -1, 35.0078, 35.2063)">
                        <g >
                            <g >
                                <g >
                                    <g >
                                        <rect width="2.409" x="22.507" y="22.096" fill="#9A916C" gorn="0.1.0.0.1.1.0.0.0.0.0"  height="3.827" id="connector13pad"/>
                                    </g>
                                </g>
                            </g>
                        </g>
                    </g>
                    <g  transform="matrix(-1, 0, 0, -1, 39.515, 50.4)">
                        <g >
                            <g >
                                <g >
                                    <g >
                                        <rect width="5.669" x="29.48" y="45.524" fill="#EF4130" gorn="0.1.0.0.1.2.0.0.0.0.0"  height="2.551" id="connector9pad"/>
                                    </g>
                                </g>
                            </g>
                        </g>
                    </g>
                    <g  transform="matrix(-1, 0, 0, -1, 42.9449, 21.8835)">
                        <g >
                            <g >
                                <g >
                                    <g >
                                        <rect width="2.409" x="34.413" y="2.112" fill="#9A916C" gorn="0.1.0.0.1.3.0.0.0.0.0"  height="3.827" id="connector11pad"/>
                                    </g>
                                </g>
                            </g>
                        </g>
                    </g>
                    <g  transform="matrix(-1, 0, 0, -1, 50.8819, 35.2063)">
                        <g >
                            <g >
                                <g >
                                    <g >
                                        <rect width="2.409" x="46.318" y="22.096" fill="#9A916C" gorn="0.1.0.0.1.4.0.0.0.0.0"  height="3.827" id="connector15pad"/>
                                    </g>
                                </g>
                            </g>
                        </g>
                    </g>
                    <g  transform="matrix(0, -1, 1, 0, -1.75748, 23.3574)">
                        <g >
                            <g >
                                <g >
                                    <g >
                                        <g  transform="matrix(-2.547107e-006 -1 1 -2.547107e-006 -10.8 28.715)">
                                            <g >
                                                <g >
                                                    <g >
                                                        <rect width="2.551" x="7.682" y="16.923" fill="#EF4130" gorn="0.1.0.0.1.5.0.0.0.0.0.0.0.0.0"  height="5.669" id="connector4pad"/>
                                                    </g>
                                                </g>
                                            </g>
                                        </g>
                                    </g>
                                </g>
                            </g>
                        </g>
                    </g>
                    <g  transform="matrix(-1, 0, 0, -1, 35.0078, 21.8835)">
                        <g >
                            <g >
                                <g >
                                    <g >
                                        <rect width="2.409" x="22.507" y="2.112" fill="#9A916C" gorn="0.1.0.0.1.6.0.0.0.0.0"  height="3.827" id="connector10pad"/>
                                    </g>
                                </g>
                            </g>
                        </g>
                    </g>
                    <g  transform="matrix(-1, 0, 0, -1, 50.8819, 21.8835)">
                        <g >
                            <g >
                                <g >
                                    <g >
                                        <rect width="2.409" x="46.318" y="2.112" fill="#9A916C" gorn="0.1.0.0.1.7.0.0.0.0.0"  height="3.827" id="connector12pad"/>
                                    </g>
                                </g>
                            </g>
                        </g>
                    </g>
                    <g  transform="matrix(0, 1, -1, 0, 34.2426, 12.6426)">
                        <g >
                            <g >
                                <g >
                                    <g >
                                        <g  transform="matrix(2.578893e-006 1 -1 2.578893e-006 10.8001 21.6853)">
                                            <g >
                                                <g >
                                                    <g >
                                                        <rect width="2.551" x="-6.718" y="13.408" fill="#EF4130" gorn="0.1.0.0.1.8.0.0.0.0.0.0.0.0.0"  height="5.669" id="connector6pad"/>
                                                    </g>
                                                </g>
                                            </g>
                                        </g>
                                    </g>
                                </g>
                            </g>
                        </g>
                    </g>
                    <g  transform="matrix(-1, 0, 0, -1, 42.9449, 35.2063)">
                        <g >
                            <g >
                                <g >
                                    <g >
                                        <rect width="2.409" x="34.413" y="22.096" fill="#9A916C" gorn="0.1.0.0.1.9.0.0.0.0.0"  height="3.827" id="connector14pad"/>
                                    </g>
                                </g>
                            </g>
                        </g>
                    </g>
                    <circle fill="none" cx="25.2" gorn="0.1.0.0.1.10"  cy="3.6" stroke="#9A916C" id="connector0pad" r="2.052" stroke-width="1.224"/>
                    <circle fill="none" cx="25.2" gorn="0.1.0.0.1.11"  cy="10.8" stroke="#9A916C" id="connector8pin" r="2.052" stroke-width="1.224"/>
                    <circle fill="none" cx="25.2" gorn="0.1.0.0.1.12"  cy="18" stroke="#9A916C" id="connector6pin" r="2.052" stroke-width="1.224"/>
                    <circle fill="none" cx="25.2" gorn="0.1.0.0.1.13"  cy="25.2" stroke="#9A916C" id="connector7pin" r="2.052" stroke-width="1.224"/>
                    <rect width="4.104" x="23.148" y="1.548" fill="none" gorn="0.1.0.0.1.14"  height="4.104" stroke="#9A916C" id="connector9pin" stroke-width="1.224"/>
                    <rect width="10.347" x="2.154" y="9.283" fill="#FDF8D6"  height="10.488"/>
                    <rect width="10.347" x="2.154" y="9.283" fill="none"  height="10.488" stroke="#E5E1C6" stroke-width="0.25" stroke-miterlimit="10"/>
                    <path fill="none"  stroke="#C6C2AF" stroke-width="0.25" d="M12.501,9.283" stroke-miterlimit="10"/>
                    <path fill="none"  stroke="#C6C2AF" stroke-width="0.25" d="M2.154,9.283" stroke-miterlimit="10"/>
                    <circle cx="11.608"  cy="18.983" r="0.452"/>
                </g>
            </g>
            <g gorn="0.1.0.1"  id="Part"/>
            <g gorn="0.1.0.2"  id="Title"/>
        </g>
    </g>
</svg>
