<?xml version="1.0" encoding="utf-8"?>
<!-- Generator: Adobe Illustrator 24.2.1, SVG Export Plug-In . SVG Version: 6.00 Build 0)  -->
<svg version="1.2" baseProfile="tiny" id="Layer_1" xmlns="http://www.w3.org/2000/svg" xmlns:xlink="http://www.w3.org/1999/xlink"
	 x="0px" y="0px" width="45.3544px" height="45.3543px" viewBox="0 0 45.3544 45.3543" overflow="visible" xml:space="preserve">
<g>
	<polygon fill="#DCDCDC" points="5.3292,0 4.8756,0 4.8756,4.8756 0,4.8756 0,5.3291 4.8756,5.3291 4.8756,6.0095 0,6.0095 0,6.463 
		4.8756,6.463 4.8756,7.1433 0,7.1433 0,7.5969 4.8756,7.5969 4.8756,8.2772 0,8.2772 0,8.7307 4.8756,8.7307 4.8756,9.411 0,9.411 
		0,9.8646 4.8756,9.8646 4.8756,10.5449 0,10.5449 0,10.9984 4.8756,10.9984 4.8756,11.6787 0,11.6787 0,12.1323 4.8756,12.1323 
		4.8756,12.8126 0,12.8126 0,13.2661 4.8756,13.2661 4.8756,13.9465 0,13.9465 0,14.4 4.8756,14.4 4.8756,15.0803 0,15.0803 
		0,15.5339 4.8756,15.5339 4.8756,16.2142 0,16.2142 0,16.6677 4.8756,16.6677 4.8756,17.348 0,17.348 0,17.8016 4.8756,17.8016 
		4.8756,18.4819 0,18.4819 0,18.9354 4.8756,18.9354 4.8756,19.6157 0,19.6157 0,20.0693 4.8756,20.0693 4.8756,20.7496 0,20.7496 
		0,21.2031 4.8756,21.2031 4.8756,21.8835 0,21.8835 0,22.337 4.8756,22.337 4.8756,23.0173 0,23.0173 0,23.4709 4.8756,23.4709 
		4.8756,24.1512 0,24.1512 0,24.6047 4.8756,24.6047 4.8756,25.285 0,25.285 0,25.7386 4.8756,25.7386 4.8756,26.4189 0,26.4189 
		0,26.8724 4.8756,26.8724 4.8756,27.5527 0,27.5527 0,28.0063 4.8756,28.0063 4.8756,28.6866 0,28.6866 0,29.1401 4.8756,29.1401 
		4.8756,29.8205 0,29.8205 0,30.274 4.8756,30.274 4.8756,30.9543 0,30.9543 0,31.4078 4.8756,31.4078 4.8756,32.0882 0,32.0882 
		0,32.5417 4.8756,32.5417 4.8756,33.222 0,33.222 0,33.6756 4.8756,33.6756 4.8756,34.3559 0,34.3559 0,34.8094 4.8756,34.8094 
		4.8756,35.4897 0,35.4897 0,35.9433 4.8756,35.9433 4.8756,36.6236 0,36.6236 0,37.0771 4.8756,37.0771 4.8756,37.7574 0,37.7574 
		0,38.211 4.8756,38.211 4.8756,38.8914 0,38.8914 0,39.3448 4.8756,39.3448 4.8756,40.0252 0,40.0252 0,40.4788 4.8756,40.4788 
		4.8756,45.3543 5.3292,45.3543 5.3292,40.4788 6.0095,40.4788 6.0095,45.3543 6.463,45.3543 6.463,40.4788 7.1433,40.4788 
		7.1433,45.3543 7.5969,45.3543 7.5969,40.4788 8.2772,40.4788 8.2772,45.3543 8.7307,45.3543 8.7307,40.4788 9.411,40.4788 
		9.411,45.3543 9.8646,45.3543 9.8646,40.4788 10.5449,40.4788 10.5449,45.3543 10.9984,45.3543 10.9984,40.4788 11.6788,40.4788 
		11.6788,45.3543 12.1323,45.3543 12.1323,40.4788 12.8126,40.4788 12.8126,45.3543 13.2662,45.3543 13.2662,40.4788 
		13.9465,40.4788 13.9465,45.3543 14.4,45.3543 14.4,40.4788 15.0803,40.4788 15.0803,45.3543 15.5339,45.3543 15.5339,40.4788 
		16.2142,40.4788 16.2142,45.3543 16.6677,45.3543 16.6677,40.4788 17.348,40.4788 17.348,45.3543 17.8016,45.3543 17.8016,40.4788 
		18.4819,40.4788 18.4819,45.3543 18.9354,45.3543 18.9354,40.4788 19.6158,40.4788 19.6158,45.3543 20.0693,45.3543 
		20.0693,40.4788 20.7496,40.4788 20.7496,45.3543 21.2032,45.3543 21.2032,40.4788 21.8835,40.4788 21.8835,45.3543 
		22.337,45.3543 22.337,40.4788 23.0173,40.4788 23.0173,45.3543 23.4709,45.3543 23.4709,40.4788 24.1512,40.4788 24.1512,45.3543 
		24.6047,45.3543 24.6047,40.4788 25.285,40.4788 25.285,45.3543 25.7386,45.3543 25.7386,40.4788 26.4189,40.4788 26.4189,45.3543 
		26.8724,45.3543 26.8724,40.4788 27.5528,40.4788 27.5528,45.3543 28.0063,45.3543 28.0063,40.4788 28.6866,40.4788 
		28.6866,45.3543 29.1402,45.3543 29.1402,40.4788 29.8205,40.4788 29.8205,45.3543 30.274,45.3543 30.274,40.4788 30.9543,40.4788 
		30.9543,45.3543 31.4079,45.3543 31.4079,40.4788 32.0882,40.4788 32.0882,45.3543 32.5417,45.3543 32.5417,40.4788 
		33.222,40.4788 33.222,45.3543 33.6756,45.3543 33.6756,40.4788 34.3559,40.4788 34.3559,45.3543 34.8094,45.3543 34.8094,40.4788 
		35.4897,40.4788 35.4897,45.3543 35.9433,45.3543 35.9433,40.4788 36.6237,40.4788 36.6237,45.3543 37.0771,45.3543 
		37.0771,40.4788 37.7575,40.4788 37.7575,45.3543 38.2111,45.3543 38.2111,40.4788 38.8914,40.4788 38.8914,45.3543 
		39.3449,45.3543 39.3449,40.4788 40.0252,40.4788 40.0252,45.3543 40.4788,45.3543 40.4788,40.4788 45.3544,40.4788 
		45.3544,40.0252 40.4788,40.0252 40.4788,39.3448 45.3544,39.3448 45.3544,38.8914 40.4788,38.8914 40.4788,38.211 45.3544,38.211 
		45.3544,37.7574 40.4788,37.7574 40.4788,37.0771 45.3544,37.0771 45.3544,36.6236 40.4788,36.6236 40.4788,35.9433 
		45.3544,35.9433 45.3544,35.4897 40.4788,35.4897 40.4788,34.8094 45.3544,34.8094 45.3544,34.3559 40.4788,34.3559 
		40.4788,33.6756 45.3544,33.6756 45.3544,33.222 40.4788,33.222 40.4788,32.5417 45.3544,32.5417 45.3544,32.0882 40.4788,32.0882 
		40.4788,31.4078 45.3544,31.4078 45.3544,30.9543 40.4788,30.9543 40.4788,30.274 45.3544,30.274 45.3544,29.8205 40.4788,29.8205 
		40.4788,29.1401 45.3544,29.1401 45.3544,28.6866 40.4788,28.6866 40.4788,28.0063 45.3544,28.0063 45.3544,27.5527 
		40.4788,27.5527 40.4788,26.8724 45.3544,26.8724 45.3544,26.4189 40.4788,26.4189 40.4788,25.7386 45.3544,25.7386 
		45.3544,25.285 40.4788,25.285 40.4788,24.6047 45.3544,24.6047 45.3544,24.1512 40.4788,24.1512 40.4788,23.4709 45.3544,23.4709 
		45.3544,23.0173 40.4788,23.0173 40.4788,22.337 45.3544,22.337 45.3544,21.8835 40.4788,21.8835 40.4788,21.2031 45.3544,21.2031 
		45.3544,20.7496 40.4788,20.7496 40.4788,20.0693 45.3544,20.0693 45.3544,19.6157 40.4788,19.6157 40.4788,18.9354 
		45.3544,18.9354 45.3544,18.4819 40.4788,18.4819 40.4788,17.8016 45.3544,17.8016 45.3544,17.348 40.4788,17.348 40.4788,16.6677 
		45.3544,16.6677 45.3544,16.2142 40.4788,16.2142 40.4788,15.5339 45.3544,15.5339 45.3544,15.0803 40.4788,15.0803 40.4788,14.4 
		45.3544,14.4 45.3544,13.9465 40.4788,13.9465 40.4788,13.2661 45.3544,13.2661 45.3544,12.8126 40.4788,12.8126 40.4788,12.1323 
		45.3544,12.1323 45.3544,11.6787 40.4788,11.6787 40.4788,10.9984 45.3544,10.9984 45.3544,10.5449 40.4788,10.5449 
		40.4788,9.8646 45.3544,9.8646 45.3544,9.411 40.4788,9.411 40.4788,8.7307 45.3544,8.7307 45.3544,8.2772 40.4788,8.2772 
		40.4788,7.5969 45.3544,7.5969 45.3544,7.1433 40.4788,7.1433 40.4788,6.463 45.3544,6.463 45.3544,6.0095 40.4788,6.0095 
		40.4788,5.3291 45.3544,5.3291 45.3544,4.8756 40.4788,4.8756 40.4788,0 40.0252,0 40.0252,4.8756 39.3449,4.8756 39.3449,0 
		38.8914,0 38.8914,4.8756 38.2111,4.8756 38.2111,0 37.7575,0 37.7575,4.8756 37.0771,4.8756 37.0771,0 36.6237,0 36.6237,4.8756 
		35.9433,4.8756 35.9433,0 35.4897,0 35.4897,4.8756 34.8094,4.8756 34.8094,0 34.3559,0 34.3559,4.8756 33.6756,4.8756 33.6756,0 
		33.222,0 33.222,4.8756 32.5417,4.8756 32.5417,0 32.0882,0 32.0882,4.8756 31.4079,4.8756 31.4079,0 30.9543,0 30.9543,4.8756 
		30.274,4.8756 30.274,0 29.8205,0 29.8205,4.8756 29.1402,4.8756 29.1402,0 28.6866,0 28.6866,4.8756 28.0063,4.8756 28.0063,0 
		27.5528,0 27.5528,4.8756 26.8724,4.8756 26.8724,0 26.4189,0 26.4189,4.8756 25.7386,4.8756 25.7386,0 25.285,0 25.285,4.8756 
		24.6047,4.8756 24.6047,0 24.1512,0 24.1512,4.8756 23.4709,4.8756 23.4709,0 23.0173,0 23.0173,4.8756 22.337,4.8756 22.337,0 
		21.8835,0 21.8835,4.8756 21.2032,4.8756 21.2032,0 20.7496,0 20.7496,4.8756 20.0693,4.8756 20.0693,0 19.6158,0 19.6158,4.8756 
		18.9354,4.8756 18.9354,0 18.4819,0 18.4819,4.8756 17.8016,4.8756 17.8016,0 17.348,0 17.348,4.8756 16.6677,4.8756 16.6677,0 
		16.2142,0 16.2142,4.8756 15.5339,4.8756 15.5339,0 15.0803,0 15.0803,4.8756 14.4,4.8756 14.4,0 13.9465,0 13.9465,4.8756 
		13.2662,4.8756 13.2662,0 12.8126,0 12.8126,4.8756 12.1323,4.8756 12.1323,0 11.6788,0 11.6788,4.8756 10.9984,4.8756 10.9984,0 
		10.5449,0 10.5449,4.8756 9.8646,4.8756 9.8646,0 9.411,0 9.411,4.8756 8.7307,4.8756 8.7307,0 8.2772,0 8.2772,4.8756 
		7.5969,4.8756 7.5969,0 7.1433,0 7.1433,4.8756 6.463,4.8756 6.463,0 6.0095,0 6.0095,4.8756 5.3292,4.8756 	"/>
	<path fill="#333333" d="M42.5197,4.252v36.8504c-0.5535,0.5535-0.8638,0.8638-1.4173,1.4173H4.252
		c-0.5535-0.5535-0.8638-0.8638-1.4173-1.4173V4.252C3.3882,3.6985,3.6985,3.3881,4.252,2.8346h36.8504
		C41.6559,3.3881,41.9662,3.6985,42.5197,4.252z"/>
	<circle cx="5.6699" cy="39.6845" r="0.7087"/>
</g>
</svg>
