<?xml version='1.0' encoding='UTF-8' standalone='no'?>
<!-- Created with Fritzing (http://www.fritzing.org/) -->
<svg xmlns="http://www.w3.org/2000/svg" y="0in" x="0in"  height="0.33in" version="1.2" viewBox="0 0 400 330" baseProfile="tiny" width="0.4in">
    <g id="icon">

        <g transform="translate(80,-20) scale(18.0)">  

<g stroke-width="0">
							<g fill="#8c8c8c">
								<rect x=".648" y="14.83" width="1.728" height="6.264"/>
								<rect x="4.248" y="14.83" width="1.728" height="6.264"/>
								<rect x="7.848" y="14.83" width="1.728" height="6.264"/>
								<rect x="11.45" y="14.83" width="1.728" height="6.264"/>
								<rect x="11.45" width="1.728" height="6.264"/>
								<rect x="7.848" width="1.728" height="6.264"/>
								<rect x="4.248" width="1.728" height="6.264"/>
								<rect x=".648" width="1.728" height="6.264"/>
							</g>
							<rect x=".2166" y="5.437" width="13.39" height="10.22" fill="#303030"/>
							<polygon points="0.2166 5.437 13.61 5.437 12.89 6.157 0.9366 6.157" fill="#1f1f1f"/>
							<polygon points="0.2166 15.66 13.61 15.66 12.89 14.94 0.9366 14.94" fill="#1f1f1f"/>
							<polygon points="0.2166 5.437 0.2166 15.66 0.9366 14.94 0.9366 6.157"/>
							<polygon points="13.61 5.437 13.61 15.66 12.89 14.94 12.89 6.157" fill="#3d3d3d"/>
							<circle cx="2.377" cy="13.5" r=".72" fill="#1f1f1f"/>

						</g>
</g>
         <text text-anchor="start" y="180" x="95" stroke="none" font-size="60" id="label" fill="#e6e6e6" font-family="OCRA">ST662</text>
 </g>
</svg>
