<?xml version="1.0" encoding="UTF-8" standalone="no"?>
<!-- Created with Fritzing (http://www.fritzing.org/) -->

<svg
   xmlns:dc="http://purl.org/dc/elements/1.1/"
   xmlns:cc="http://creativecommons.org/ns#"
   xmlns:rdf="http://www.w3.org/1999/02/22-rdf-syntax-ns#"
   xmlns:svg="http://www.w3.org/2000/svg"
   xmlns="http://www.w3.org/2000/svg"
   xmlns:sodipodi="http://sodipodi.sourceforge.net/DTD/sodipodi-0.dtd"
   xmlns:inkscape="http://www.inkscape.org/namespaces/inkscape"
   x="0in"
   y="0in"
   height="0.094486117in"
   viewBox="0 0 6.8030003 6.8030002"
   version="1.2"
   width="0.094486117in"
   id="svg430"
   sodipodi:docname="storage_choke_3.svg"
   inkscape:version="0.92.2 (5c3e80d, 2017-08-06)">
  <metadata
     id="metadata436">
    <rdf:RDF>
      <cc:Work
         rdf:about="">
        <dc:format>image/svg+xml</dc:format>
        <dc:type
           rdf:resource="http://purl.org/dc/dcmitype/StillImage" />
        <dc:title></dc:title>
      </cc:Work>
    </rdf:RDF>
  </metadata>
  <defs
     id="defs434" />
  <sodipodi:namedview
     pagecolor="#ffffff"
     bordercolor="#666666"
     borderopacity="1"
     objecttolerance="10"
     gridtolerance="10"
     guidetolerance="10"
     inkscape:pageopacity="0"
     inkscape:pageshadow="2"
     inkscape:window-width="1680"
     inkscape:window-height="1028"
     id="namedview432"
     showgrid="false"
     fit-margin-top="0"
     fit-margin-left="0"
     fit-margin-right="0"
     fit-margin-bottom="0"
     inkscape:zoom="11.588694"
     inkscape:cx="38.535333"
     inkscape:cy="8.3753337"
     inkscape:window-x="1672"
     inkscape:window-y="-8"
     inkscape:window-maximized="1"
     inkscape:current-layer="svg430" />
  <desc
     id="desc2">
    <referenceFile>Adafruit LM3671_breadboard.svg</referenceFile>
  </desc>
  <desc
     id="desc4">Fritzing breadboard generated by brd2svg</desc>
  <g
     id="g364">
    <g
       id="g362">
      <g
         id="g360">
        <g
           id="g358">
          <g
             gorn="0.2.3.0.0.0.0"
             id="inductor_taiyoyuden_nrh2412t">
            <g
               id="g355"
               transform="rotate(-90,3.4015,3.4015)">
              <g
                 id="g353">
                <g
                   id="g351">
                  <g
                     id="g349">
                    <g
                       id="g347">
                      <g
                         id="g345">
                        <path
                           id="path341"
                           d="m 6.803,0.709 v 5.385 c 0,0.313 -0.254,0.567 -0.567,0.567 H 0.567 C 0.254,6.661 0,6.407 0,6.094 V 0.708 C 0,0.395 0.254,0.141 0.567,0.141 h 5.669 c 0.313,0.001 0.567,0.254 0.567,0.568 z"
                           inkscape:connector-curvature="0"
                           style="fill:#333333" />
                        <path
                           id="path343"
                           d="m 5.953,1.51 v 3.783 c 0,0.15 -0.06,0.295 -0.166,0.401 L 4.843,6.637 C 4.737,6.743 4.593,6.803 4.442,6.803 H 2.361 C 2.21,6.803 2.066,6.743 1.96,6.637 L 1.016,5.693 C 0.910001,5.587 0.850003,5.443 0.850003,5.293 V 1.511 c 0,-0.15 0.06,-0.295 0.166,-0.401 L 1.96,0.166 C 2.066,0.06 2.21,0 2.361,0 h 2.082 c 0.15,0 0.295,0.06 0.401,0.166 L 5.786998,1.108998 C 5.893,1.216 5.953,1.36 5.953,1.51 Z"
                           inkscape:connector-curvature="0"
                           style="fill:#666666" />
                      </g>
                    </g>
                  </g>
                </g>
              </g>
            </g>
          </g>
        </g>
      </g>
    </g>
  </g>
</svg>
