<?xml version="1.0" encoding="UTF-8" standalone="no"?>
<svg
   xmlns:dc="http://purl.org/dc/elements/1.1/"
   xmlns:cc="http://creativecommons.org/ns#"
   xmlns:rdf="http://www.w3.org/1999/02/22-rdf-syntax-ns#"
   xmlns:svg="http://www.w3.org/2000/svg"
   xmlns="http://www.w3.org/2000/svg"
   xmlns:sodipodi="http://sodipodi.sourceforge.net/DTD/sodipodi-0.dtd"
   xmlns:inkscape="http://www.inkscape.org/namespaces/inkscape"
   inkscape:version="1.0 (4035a4fb49, 2020-05-01)"
   sodipodi:docname="STX3100.svg"
   id="svg2"
   viewBox="0 0 36.13917 42.237697"
   height="0.5866347in"
   y="0px"
   version="1.2"
   x="0px"
   xml:space="preserve"
   width="0.50193244in"><metadata
   id="metadata122"><rdf:RDF><cc:Work
       rdf:about=""><dc:format>image/svg+xml</dc:format><dc:type
         rdf:resource="http://purl.org/dc/dcmitype/StillImage" /><dc:title></dc:title></cc:Work></rdf:RDF></metadata><defs
   id="defs120" /><sodipodi:namedview
   inkscape:current-layer="svg2"
   inkscape:window-maximized="0"
   inkscape:window-y="102"
   inkscape:window-x="342"
   inkscape:cy="32.633342"
   inkscape:cx="-15.673783"
   inkscape:zoom="3.2156349"
   fit-margin-bottom="0"
   fit-margin-right="0"
   fit-margin-left="0"
   fit-margin-top="0"
   showgrid="false"
   id="namedview118"
   inkscape:window-height="819"
   inkscape:window-width="1338"
   inkscape:pageshadow="2"
   inkscape:pageopacity="0"
   guidetolerance="10"
   gridtolerance="10"
   objecttolerance="10"
   borderopacity="1"
   bordercolor="#666666"
   pagecolor="#ffffff" />
 
<g
   id="g656"><g
     id="g589"><g
       id="g187"
       transform="matrix(1.0624168,0,0,1.2052085,0,-1.7541109e-5)"><g
         id="breadboard"><rect
           width="3.125"
           x="15.416"
           y="18.546"
           fill="none"
           height="2.8340001"
           id="connector0pin-8" /><rect
           width="2.8340001"
           x="15.562"
           y="19.254"
           fill="none"
           height="1.418"
           id="connector0terminal-4" /><rect
           width="2.835"
           x="1.193"
           y="4.0139999"
           fill="none"
           height="3.125"
           id="connector1pin-2" /><rect
           width="1.418"
           x="1.901"
           y="4.1589999"
           fill="none"
           height="2.8340001"
           id="connector1terminal-5" /><rect
           width="2.835"
           x="8.3929996"
           y="4.0139999"
           fill="none"
           height="3.125"
           id="connector2pin-1" /><rect
           width="1.418"
           x="9.1020002"
           y="4.1589999"
           fill="none"
           height="2.8340001"
           id="connector2terminal-9" /><rect
           width="2.8340001"
           x="22.792999"
           y="4.0139999"
           fill="none"
           height="3.125"
           id="connector3pin-7" /><rect
           width="1.418"
           x="23.500999"
           y="4.1589999"
           fill="none"
           height="2.8340001"
           id="connector3terminal-9" /><rect
           width="2.8340001"
           x="29.993"
           y="4.0139999"
           fill="none"
           height="3.125"
           id="connector4pin-9" /><rect
           width="1.418"
           x="30.701"
           y="4.1589999"
           fill="none"
           height="2.8340001"
           id="connector4terminal-9" /><polygon
           fill="#333333"
           points="0,0 0,28.347 4.252,28.347 4.252,31.182 29.764,31.182 29.764,28.347 34.016,28.347 34.016,0 "
           id="polygon12" /><rect
           width="0.99199998"
           x="33.022999"
           y="0.958"
           height="2.836"
           id="rect14" /><rect
           x="0"
           width="0.99199998"
           y="0.958"
           height="2.836"
           id="rect16" /><rect
           width="1.418"
           x="1.901"
           y="4.158"
           height="2.836"
           id="rect18" /><rect
           width="0.77700001"
           x="2.2219999"
           y="4.7709999"
           fill="#cccccc"
           height="1.6109999"
           id="rect20" /><rect
           width="1.418"
           x="30.701"
           y="4.158"
           height="2.836"
           id="rect22" /><rect
           width="1.418"
           x="9.1020002"
           y="4.1589999"
           height="2.8340001"
           id="rect24" /><rect
           width="1.418"
           x="23.500999"
           y="4.1589999"
           height="2.8340001"
           id="rect26" /><rect
           width="0.77700001"
           x="31.021"
           y="4.7709999"
           fill="#cccccc"
           height="1.6109999"
           id="rect28" /><rect
           width="0.77700001"
           x="23.820999"
           y="4.7709999"
           fill="#cccccc"
           height="1.6109999"
           id="rect30" /><rect
           width="0.77700001"
           x="9.4219999"
           y="4.7709999"
           fill="#cccccc"
           height="1.6109999"
           id="rect32" /><rect
           width="15.817"
           x="9.1020002"
           y="10.324"
           fill="#2b2b2b"
           height="8.2040005"
           id="rect34" /><g
           id="g40"><rect
             width="15.817"
             x="9.1020002"
             y="21.542"
             fill="#2b2b2b"
             height="6.8049998"
             id="rect36" /><path
             fill="#2b2b2b"
             d="M 25.072,28.5 H 8.948 V 21.389 H 25.072 Z M 9.255,28.193 H 24.766 V 21.695 H 9.255 Z"
             id="path38" /></g><polyline
           fill="none"
           points="9.102,18.528 9.102,10.324 24.919,10.324 "
           stroke="#1a1a1a"
           stroke-linecap="square"
           stroke-width="0.2473"
           id="polyline42" /><polyline
           fill="none"
           points="24.92,10.323 24.92,18.527 9.103,18.527 "
           stroke="#262626"
           stroke-linecap="square"
           stroke-width="0.2473"
           id="polyline44" /><g
           id="g54"><line
             fill="#525252"
             y1="27.542999"
             x1="14.457"
             y2="27.546"
             x2="14.455"
             id="line46" /><line
             fill="#525252"
             y1="27.546"
             x1="19.563999"
             y2="27.542999"
             x2="19.562"
             id="line48" /><rect
             width="4.9959998"
             x="19.563999"
             y="27.542999"
             fill="#cccccc"
             height="0.003"
             id="rect50" /><rect
             width="4.9970002"
             x="9.46"
             y="27.542999"
             fill="#cccccc"
             height="0.003"
             id="rect52" /></g><polygon
           fill="#2b2b2b"
           points="21.148,28.5 12.874,28.5 12.874,31.182 10.975,31.182 10.975,33.183 23.048,33.183 23.048,31.182 21.148,31.182 "
           id="polygon56" /><polygon
           fill="#292929"
           points="13.146,33.183 13.146,28.5 12.874,28.5 12.874,31.182 11.405,31.182 11.405,33.183 "
           id="polygon58" /><polygon
           fill="#292929"
           points="20.573,33.183 20.573,28.5 21.182,28.5 21.182,31.182 22.65,31.182 22.65,33.183 "
           id="polygon60" /><rect
           width="7.7280002"
           x="13.146"
           y="26.618999"
           fill="#cccccc"
           height="1.881"
           id="rect62" /><rect
           width="3.21"
           x="15.972"
           y="26.618999"
           fill="#d6d6d6"
           height="1.881"
           id="rect64" /><g
           id="g70"><path
             fill="#cccccc"
             d="m 20.155,28.019 c -0.325,-0.031 -0.62,-0.28 -0.691,-0.579 l -0.34,-1.42 c -0.067,-0.283 -0.359,-0.514 -0.65,-0.514 h -2.926 c -0.291,0 -0.583,0.23 -0.65,0.514 l -0.342,1.42 c -0.071,0.299 -0.366,0.548 -0.687,0.579 H 9.46 l -0.05,-6.099 15.15,-0.05 0.05,6.148 h -4.455 z"
             id="path66" /><path
             fill="#3d3d3d"
             d="m 24.561,21.92 v 6.049 h -4.405 c -0.293,-0.028 -0.575,-0.256 -0.643,-0.541 l -0.34,-1.42 c -0.072,-0.304 -0.387,-0.552 -0.699,-0.552 h -2.926 c -0.312,0 -0.627,0.248 -0.699,0.552 l -0.342,1.42 c -0.067,0.285 -0.35,0.513 -0.643,0.541 H 9.46 V 21.92 h 15.101 m 0.099,-0.1 h -0.1 -15.1 -0.1 v 0.1 6.049 0.1 h 0.1 4.404 c 0.351,-0.033 0.664,-0.299 0.74,-0.617 l 0.342,-1.42 c 0.061,-0.258 0.337,-0.476 0.602,-0.476 h 2.926 c 0.265,0 0.541,0.218 0.602,0.476 l 0.34,1.42 c 0.076,0.318 0.39,0.584 0.73,0.617 h 4.415 0.1 v -0.1 -6.049 -0.1 z"
             id="path68" /></g><polygon
           fill="#d9d9d9"
           points="9.46,26.396 9.46,27.12 14.581,27.12 14.755,26.396 "
           id="polygon72" /><polygon
           fill="#d9d9d9"
           points="24.561,27.12 24.561,26.396 19.266,26.396 19.439,27.12 "
           id="polygon74" /><path
           fill="#878787"
           d="m 19.513,27.428 c 0.01,0.041 0.032,0.077 0.05,0.115 h 4.998 V 27.12 H 19.44 Z"
           id="path76" /><path
           fill="#878787"
           d="M 14.507,27.428 14.581,27.12 H 9.46 v 0.423 h 4.997 c 0.018,-0.038 0.04,-0.074 0.05,-0.115 z"
           id="path78" /><path
           fill="#525252"
           d="m 20.155,27.969 h 4.405 v -0.423 h -4.996 c 0.108,0.226 0.341,0.398 0.591,0.423 z"
           id="path80" /><path
           fill="#525252"
           d="M 14.455,27.546 H 9.46 v 0.423 h 4.404 c 0.25,-0.025 0.484,-0.197 0.591,-0.423 z"
           id="path82" /><rect
           width="15.101"
           x="9.46"
           y="21.92"
           fill="#8f8f8f"
           height="1.846"
           id="rect84" /><g
           id="g88"><polygon
             fill="#dedede"
             points="9.46,23.979 9.46,23.553 24.561,23.553 24.561,23.979 "
             id="polygon86" /></g><rect
           width="1.761"
           x="16.496"
           y="26.618999"
           fill="#dedede"
           height="1.881"
           id="rect90" /><rect
           width="3.21"
           x="15.972"
           y="28.517"
           fill="#333333"
           height="4.6479998"
           id="rect92" /><rect
           width="1.761"
           x="16.496"
           y="28.517"
           fill="#383838"
           height="4.6479998"
           id="rect94" /><rect
           width="0.43099999"
           x="10.975"
           y="31.181999"
           fill="#212121"
           height="2.0009999"
           id="rect96" /><rect
           width="0.39700001"
           x="22.65"
           y="31.181999"
           fill="#212121"
           height="2.0009999"
           id="rect98" /><rect
           width="12.071"
           x="10.975"
           y="33.165001"
           fill="#a1a1a1"
           height="1.881"
           id="rect100" /><rect
           width="7.427"
           x="13.146"
           y="33.165001"
           fill="#ababab"
           height="1.881"
           id="rect102" /><rect
           width="3.21"
           x="15.972"
           y="33.165001"
           fill="#c7c7c7"
           height="1.881"
           id="rect104" /><rect
           width="1.761"
           x="16.496"
           y="33.165001"
           fill="#e6e6e6"
           height="1.881"
           id="rect106" /><rect
           width="0.39700001"
           x="22.65"
           y="33.165001"
           fill="#737373"
           height="1.881"
           id="rect108" /><rect
           width="0.39700001"
           x="10.991"
           y="33.165001"
           fill="#737373"
           height="1.881"
           id="rect110" /><rect
           width="2.8340001"
           x="15.562"
           y="19.254"
           height="1.418"
           id="rect112" /><rect
           width="1.6109999"
           x="16.173"
           y="19.573999"
           fill="#cccccc"
           height="0.77700001"
           id="rect114" /></g></g></g></g></svg>
