<?xml version='1.0' encoding='UTF-8' standalone='no'?>
<!-- Created with Fritzing (http://www.fritzing.org/) -->
<svg xmlns="http://www.w3.org/2000/svg" y="0in" x="0in"  height="0.33in" version="1.2" viewBox="0 0 400 330" width="0.4in" baseProfile="tiny">
    <desc >
        <referenceFile >lm2574_dip.svg</referenceFile>
    </desc>
    <g  gorn="0.1" id="breadboard">
        <rect y="30" x="0"  gorn="0.1.0" height="270" id="middle" fill="#303030" width="400"/>
        <rect y="30" x="0"  gorn="0.1.1" height="24.6" id="top" fill="#3D3D3D" width="400"/>
        <rect y="275.4" x="0"  gorn="0.1.2" height="24.6" id="bottom" fill="#000000" width="400"/>
        <polygon  gorn="0.1.3" id="right" points="400,30,392.5,54.6,392.5,275.4,400,300" fill="#141414"/>
        <polygon  gorn="0.1.4" id="left" points="0,30,7.5,54.6,7.5,275.4,0,300" fill="#1F1F1F"/>
        <polygon  gorn="0.1.5" id="left-upper-rect" points="50,115,7.5,114.6,5.6,135.8,5.6,165,50,165" fill="#1C1C1C"/>
        <polygon  gorn="0.1.6" id="left-lower-rect" points="7.5,215.5,50,215.5,50,165,5.6,165,5.6,194.2" fill="#383838"/>
        <path  gorn="0.1.7" id="slot" d="M5.6,135.8l0,58.3c14.7,-1.7,26.2,-14,26.2,-29.2C31.8,149.7,20.4,137.5,5.6,135.8z" fill="#262626"/>
        <path  gorn="0.1.8" id="cover" d="M7.5,54.6L7.5,114.5c23.8,4.5,41.9,25.3,41.9,50.4c0,25.1,-18,46,-41.9,50.5L7.5,215.5l50,0L57.5,54.6L7.5,54.6z" fill="#303030"/>
        <circle cx="65"  cy="234.7" fill="#212121" r="20.6"/>
        <text text-anchor="start" y="165" x="55"  gorn="0.1.10" stroke="none" font-size="80" id="label" fill="#e6e6e6" font-family="OCRA">LM2574</text>
        <rect y="286.6" x="35"  gorn="0.1.11" height="43.4" id="connector0pin" fill="#8C8C8C" width="30"/>
        <rect y="300" x="35"  gorn="0.1.12" height="30" id="connector0terminal" fill="#8C8C8C" width="30"/>
        <polygon  points="35,286.6,35,306.6,65,306.6,85,297.4,85,286.6" fill="#8C8C8C"/>
        <rect x="35"  gorn="0.1.14" height="43.4" id="connector7pin" fill="#8C8C8C" width="30"/>
        <rect x="35"  gorn="0.1.15" height="30" id="connector7terminal" fill="#8C8C8C" width="30"/>
        <polygon  points="85,43.4,85,32.6,65,23.4,35,23.4,35,43.4" fill="#8C8C8C"/>
        <rect y="286.6" x="335"  gorn="0.1.17" height="43.4" id="connector3pin" fill="#8C8C8C" width="30"/>
        <rect y="300" x="335"  gorn="0.1.18" height="30" id="connector3terminal" fill="#8C8C8C" width="30"/>
        <polygon  points="315,286.6,315,297.4,335,306.6,365,306.6,365,286.6" fill="#8C8C8C"/>
        <rect y="0" x="335"  gorn="0.1.20" height="43.4" id="connector4pin" fill="#8C8C8C" width="30"/>
        <rect y="0" x="335"  gorn="0.1.21" height="30" id="connector4terminal" fill="#8C8C8C" width="30"/>
        <polygon  points="365,43.4,365,23.4,335,23.4,315,32.6,315,43.4" fill="#8C8C8C"/>
        <rect y="0" x="135"  gorn="0.1.23" height="43.4" id="connector6pin" fill="#8C8C8C" width="30"/>
        <rect x="135"  gorn="0.1.24" height="30" id="connector6terminal" fill="#8C8C8C" width="30"/>
        <polygon  points="185,43.4,185,32.6,165,23.4,135,23.4,115,32.6,115,43.4" fill="#8C8C8C"/>
        <rect y="0" x="235"  gorn="0.1.26" height="43.4" id="connector5pin" fill="#8C8C8C" width="30"/>
        <rect x="235"  gorn="0.1.27" height="30" id="connector5terminal" fill="#8C8C8C" width="30"/>
        <polygon  points="285,43.4,285,32.6,265,23.4,235,23.4,215,32.6,215,43.4" fill="#8C8C8C"/>
        <rect y="286.6" x="135"  gorn="0.1.29" height="43.4" id="connector1pin" fill="#8C8C8C" width="30"/>
        <rect y="300" x="135"  gorn="0.1.30" height="30" id="connector1terminal" fill="#8C8C8C" width="30"/>
        <polygon  points="115,286.6,115,297.4,135,306.6,165,306.6,185,297.4,185,286.6" fill="#8C8C8C"/>
        <rect y="286.6" x="235"  gorn="0.1.32" height="43.4" id="connector2pin" fill="#8C8C8C" width="30"/>
        <rect y="300" x="235"  gorn="0.1.33" height="30" id="connector2terminal" fill="#8C8C8C" width="30"/>
        <polygon  points="215,286.6,215,297.4,235,306.6,265,306.6,285,297.4,285,286.6" fill="#8C8C8C"/>
    </g>
</svg>
