<?xml version="1.0" encoding="utf-8"?>
<!-- Generator: Adobe Illustrator 20.0.0, SVG Export Plug-In . SVG Version: 6.00 Build 0)  -->
<svg version="1.2" baseProfile="tiny" id="Layer_1" xmlns="http://www.w3.org/2000/svg" xmlns:xlink="http://www.w3.org/1999/xlink"
	 x="0px" y="0px" width="31.187px" height="10.862px" viewBox="0 0 31.187 10.862" xml:space="preserve">
<g>
	<g>
		<path fill="#DCDCDC" d="M8.013,8.322c-0.074,0-0.149-0.015-0.221-0.044C7.577,8.189,7.437,7.979,7.437,7.746V4.344
			c0-0.233,0.141-0.443,0.355-0.532c0.214-0.089,0.463-0.04,0.628,0.125l1.701,1.701c0.108,0.108,0.169,0.254,0.169,0.407
			s-0.061,0.299-0.169,0.407L8.42,8.153C8.31,8.263,8.162,8.322,8.013,8.322z"/>
	</g>
	<g>
		<path fill="#DCDCDC" d="M26.694,7.712c-0.865,0-1.569-0.704-1.569-1.569c0-0.866,0.704-1.57,1.569-1.57s1.569,0.704,1.569,1.57
			C28.264,7.008,27.56,7.712,26.694,7.712z M26.694,5.282c-0.475,0-0.86,0.386-0.86,0.861s0.386,0.86,0.86,0.86
			s0.86-0.386,0.86-0.86S27.169,5.282,26.694,5.282z"/>
	</g>
	<path fill="#DCDCDC" d="M30.534,6.167l-1.897,1.779l0.556,0.168c-0.6,0.758-1.514,1.216-2.499,1.216
		c-1.757,0-3.187-1.43-3.187-3.188c0-1.758,1.43-3.188,3.187-3.188c1.758,0,3.188,1.43,3.188,3.188h1.305
		c0-2.477-2.016-4.492-4.492-4.492s-4.491,2.015-4.491,4.492s2.015,4.491,4.491,4.491c1.557,0,2.988-0.811,3.806-2.124l0.626,0.19
		L30.534,6.167z"/>
	<path fill="#DCDCDC" d="M6.913,6.077c0-1.518-0.594-2.943-1.672-4.011C4.986,1.813,4.572,1.815,4.319,2.07
		C4.066,2.326,4.068,2.739,4.323,2.992C5.152,3.814,5.609,4.91,5.609,6.077c0,0.664-0.285,1.516-0.686,2.168L4.209,7.656
		L3.67,10.862l3.046-1.135L5.93,9.077C6.513,8.2,6.913,7.039,6.913,6.077z"/>
	<path fill="#DCDCDC" d="M21.073,6.013l-3.246,0.166l0.504,0.779c-1.609,0.561-3.474,0.479-5.202-0.378
		c-0.323-0.163-0.714-0.028-0.874,0.294c-0.16,0.323-0.028,0.714,0.294,0.874c1.174,0.583,2.39,0.878,3.616,0.878
		c1.016,0,1.984-0.192,2.889-0.551l0.54,0.834L21.073,6.013z"/>
	<g>
		<path fill="#DCDCDC" d="M16.165,9.461c-0.368,0-0.734-0.029-1.099-0.076v0.599c0,0.455,0.508,0.823,1.134,0.823
			s1.134-0.369,1.134-0.823V9.375C16.949,9.426,16.561,9.461,16.165,9.461z"/>
		<path fill="#DCDCDC" d="M14.499,2.854h0.567v3.503c0.775,0.156,1.54,0.15,2.268,0.002V2.854H17.9c0.233,0,0.443-0.141,0.532-0.355
			c0.029-0.071,0.044-0.146,0.044-0.221c0-0.149-0.059-0.297-0.169-0.407l-1.701-1.701C16.499,0.061,16.353,0,16.2,0
			S15.9,0.061,15.792,0.169L14.091,1.87c-0.165,0.165-0.214,0.414-0.125,0.628C14.056,2.713,14.266,2.854,14.499,2.854z"/>
	</g>
	<g>
		<path fill="#DCDCDC" d="M4.773,6.077c0-0.405-0.081-0.795-0.212-1.166H0.823C0.369,4.911,0,5.419,0,6.045s0.369,1.134,0.823,1.134
			h3.703C4.675,6.794,4.773,6.392,4.773,6.077z"/>
	</g>
</g>
</svg>
