<?xml version="1.0" encoding="UTF-8" standalone="no"?>
<!-- Generator: Adobe Illustrator 15.0.1, SVG Export Plug-In . SVG Version: 6.00 Build 0)  -->

<svg
   xmlns:dc="http://purl.org/dc/elements/1.1/"
   xmlns:cc="http://creativecommons.org/ns#"
   xmlns:rdf="http://www.w3.org/1999/02/22-rdf-syntax-ns#"
   xmlns:svg="http://www.w3.org/2000/svg"
   xmlns="http://www.w3.org/2000/svg"
   xmlns:sodipodi="http://sodipodi.sourceforge.net/DTD/sodipodi-0.dtd"
   xmlns:inkscape="http://www.inkscape.org/namespaces/inkscape"
   version="1.1"
   id="Ebene_1"
   x="0px"
   y="0px"
   width="8mm"
   height="6mm"
   viewBox="0 0 22.677378 17.008033"
   xml:space="preserve"
   inkscape:version="0.92.2 (5c3e80d, 2017-08-06)"
   sodipodi:docname="tactile2w-pth-6mm.svg"><metadata
     id="metadata39"><rdf:RDF><cc:Work
         rdf:about=""><dc:format>image/svg+xml</dc:format><dc:type
           rdf:resource="http://purl.org/dc/dcmitype/StillImage" /><dc:title></dc:title></cc:Work></rdf:RDF></metadata><defs
     id="defs37"><defs
       id="defs2461" /><sodipodi:namedview
       inkscape:window-x="0"
       guidetolerance="10"
       gridtolerance="10"
       fit-margin-bottom="0"
       units="mm"
       inkscape:current-layer="Ebene_1"
       inkscape:document-units="mm"
       fit-margin-right="0"
       bordercolor="#666666"
       fit-margin-left="0"
       inkscape:cy="5.8373423"
       fit-margin-top="0"
       id="namedview2463"
       cx="-23.490448"
       showgrid="false"
       inkscape:window-height="650"
       inkscape:window-maximized="0"
       inkscape:zoom="9.9966114"
       pagecolor="#ffffff"
       window-width="1745"
       objecttolerance="10"
       inkscape:pageshadow="2"
       inkscape:pageopacity="0"
       borderopacity="1"
       inkscape:window-y="0" /></defs><sodipodi:namedview
     pagecolor="#ffffff"
     bordercolor="#666666"
     borderopacity="1"
     objecttolerance="10"
     gridtolerance="10"
     guidetolerance="10"
     inkscape:pageopacity="0"
     inkscape:pageshadow="2"
     inkscape:window-width="2498"
     inkscape:window-height="1418"
     id="namedview35"
     showgrid="false"
     inkscape:zoom="5.5503814"
     inkscape:cx="-31.786572"
     inkscape:cy="10.224949"
     inkscape:window-x="54"
     inkscape:window-y="-8"
     inkscape:window-maximized="1"
     inkscape:current-layer="g8143"
     fit-margin-top="0"
     fit-margin-left="0"
     fit-margin-right="0"
     fit-margin-bottom="0"
     units="mm"
     inkscape:document-units="mm" /><g
     id="g937"><g
       transform="rotate(-90,8.4123379,16.871918)"
       id="g8143"><g
         id="g913"><g
           id="g1035"><rect
             style="fill:#cccccc;stroke:#cccccc;stroke-width:0;stroke-miterlimit:4;stroke-dasharray:none;stroke-dashoffset:11.71939468;stroke-opacity:1"
             id="rect8997"
             width="2.834671"
             height="22.677376"
             x="9.3708563"
             y="8.4595804"
             rx="1.6394873" /><rect
             rx="1.6394874"
             y="8.4595804"
             x="21.498121"
             height="22.677376"
             width="2.8346713"
             id="rect8999"
             style="fill:#cccccc;stroke:#cccccc;stroke-width:0;stroke-miterlimit:4;stroke-dasharray:none;stroke-dashoffset:11.71939468;stroke-opacity:1" /><g
             id="g1016"><path
               inkscape:connector-curvature="0"
               id="path2465"
               d="m 8.2774723,12.680163 c 0,-0.764054 0.6230074,-1.385904 1.3858027,-1.385904 h 14.235221 c 0.761539,3e-6 1.385751,0.623056 1.385751,1.385904 v 14.236214 c -0.0024,0.764054 -0.624212,1.385901 -1.385803,1.385901 H 9.6620338 c -0.7639974,0 -1.3858027,-0.623053 -1.3858027,-1.385904 l 0.00121,-14.23626 c 0,0 0,0 0,0 z"
               style="fill:#999999;stroke-width:1.50635898" /><g
               id="g1000"><ellipse
                 ry="1.473877"
                 rx="1.4737693"
                 transform="scale(-1)"
                 style="fill:#141414;stroke-width:1.50635898"
                 cx="-22.806679"
                 cy="-25.82453"
                 id="circle2467" /><ellipse
                 ry="1.473877"
                 rx="1.4737693"
                 transform="scale(-1)"
                 style="fill:#141414;stroke-width:1.50635898"
                 cx="-10.711629"
                 cy="-25.799221"
                 id="circle2469" /><ellipse
                 ry="1.4726733"
                 rx="1.4725658"
                 transform="scale(-1)"
                 style="fill:#141414;stroke-width:1.50635898"
                 cx="-10.736995"
                 cy="-13.704524"
                 id="circle2471" /><ellipse
                 ry="1.4726733"
                 rx="1.4725658"
                 transform="scale(-1)"
                 style="fill:#141414;stroke-width:1.50635898"
                 cx="-22.830778"
                 cy="-13.731037"
                 id="circle2473" /><path
                 style="fill:#c8c8c8;stroke-width:1.50635898"
                 d="m 22.99587,25.901657 c -0.02651,0.06869 -0.08194,0.122923 -0.156656,0.137385 l 0.144606,0.927951 c 0.05664,-0.01085 0.114479,-0.0024 0.169911,-0.02049 v 0.006 c 0.344642,-0.104846 0.600111,-0.362744 0.732664,-0.689335 z"
                 id="path2479"
                 inkscape:connector-curvature="0" /><path
                 style="fill:#c8c8c8;stroke-width:1.50635898"
                 d="m 10.903261,25.876349 c -0.02646,0.0699 -0.08199,0.124129 -0.157905,0.137385 l 0.143475,0.927951 c 0.05781,-0.01085 0.113229,-0.0024 0.171041,-0.01928 l 0.0025,0.006 c 0.341028,-0.103642 0.600112,-0.360334 0.730256,-0.689335 -0.0012,0 -0.889321,-0.362745 -0.889321,-0.362745 z"
                 id="path2481"
                 inkscape:connector-curvature="0" /><path
                 style="fill:#c8c8c8;stroke-width:1.50635898"
                 d="m 10.928537,13.782858 c -0.02772,0.0699 -0.07953,0.124128 -0.156655,0.137385 l 0.14099,0.927951 c 0.06025,-0.01205 0.113274,-0.0024 0.172321,-0.02049 l 0.0012,0.0072 c 0.341027,-0.102436 0.600111,-0.361539 0.731461,-0.689335 0,0.0024 -0.889322,-0.362744 -0.889322,-0.362744 z"
                 id="path2483"
                 inkscape:connector-curvature="0" /><path
                 style="fill:#c8c8c8;stroke-width:1.50635898"
                 d="m 23.022381,13.80696 c -0.02772,0.0699 -0.08194,0.122924 -0.159066,0.137385 l 0.14581,0.929156 c 0.05664,-0.01326 0.113274,-0.0024 0.169912,-0.02049 l 0.0024,0.0072 c 0.341027,-0.103641 0.600111,-0.361539 0.732666,-0.68813 z"
                 id="path2485"
                 inkscape:connector-curvature="0" /><g
                 id="g986"><ellipse
                   id="circle2475"
                   cy="-19.797682"
                   cx="-16.780258"
                   style="fill:#808080;stroke-width:1.50635898"
                   transform="scale(-1)"
                   rx="4.9599576"
                   ry="4.96032" /><ellipse
                   id="circle2477"
                   cy="-19.768713"
                   cx="-16.773027"
                   style="fill:#ffffff;stroke-width:1.50635898"
                   transform="scale(-1)"
                   rx="4.2538023"
                   ry="4.2541127" /><path
                   inkscape:connector-curvature="0"
                   id="path2487"
                   d="m 15.252262,23.732421 c 0.330182,0.128949 0.674825,0.220539 1.041158,0.262718 0.914627,0.102437 1.789489,-0.100025 2.536616,-0.514591 l 0.09279,-0.241026 c -0.835095,0.445899 -1.805155,0.653181 -2.817391,0.542309 -0.310901,-0.03615 -0.615777,-0.106051 -0.903782,-0.197641 -0.0012,-0.0012 0.05061,0.148231 0.05061,0.148231 z"
                   style="fill:#c8c8c8;stroke-width:1.50635898" /></g></g></g></g></g></g></g></svg>