<?xml version="1.0" encoding="UTF-8" standalone="no"?>
<!-- Generator: Adobe Illustrator 15.0.1, SVG Export Plug-In . SVG Version: 6.00 Build 0)  -->

<svg
   xmlns:dc="http://purl.org/dc/elements/1.1/"
   xmlns:cc="http://creativecommons.org/ns#"
   xmlns:rdf="http://www.w3.org/1999/02/22-rdf-syntax-ns#"
   xmlns:svg="http://www.w3.org/2000/svg"
   xmlns="http://www.w3.org/2000/svg"
   xmlns:sodipodi="http://sodipodi.sourceforge.net/DTD/sodipodi-0.dtd"
   xmlns:inkscape="http://www.inkscape.org/namespaces/inkscape"
   version="1.1"
   id="Ebene_1"
   x="0px"
   y="0px"
   width="8mm"
   height="6mm"
   viewBox="0 0 22.677378 17.008033"
   xml:space="preserve"
   inkscape:version="0.92.2 (5c3e80d, 2017-08-06)"
   sodipodi:docname="tactile2b-pth-6mm.svg"><metadata
     id="metadata39"><rdf:RDF><cc:Work
         rdf:about=""><dc:format>image/svg+xml</dc:format><dc:type
           rdf:resource="http://purl.org/dc/dcmitype/StillImage" /><dc:title></dc:title></cc:Work></rdf:RDF></metadata><defs
     id="defs37" /><sodipodi:namedview
     pagecolor="#ffffff"
     bordercolor="#666666"
     borderopacity="1"
     objecttolerance="10"
     gridtolerance="10"
     guidetolerance="10"
     inkscape:pageopacity="0"
     inkscape:pageshadow="2"
     inkscape:window-width="2498"
     inkscape:window-height="1418"
     id="namedview35"
     showgrid="false"
     inkscape:zoom="5.5503814"
     inkscape:cx="-31.786572"
     inkscape:cy="10.224949"
     inkscape:window-x="54"
     inkscape:window-y="-8"
     inkscape:window-maximized="1"
     inkscape:current-layer="Ebene_1"
     fit-margin-top="0"
     fit-margin-left="0"
     fit-margin-right="0"
     fit-margin-bottom="0"
     units="mm"
     inkscape:document-units="mm" /><g
     id="g8143"
     transform="rotate(-90,8.4123379,16.871918)"><g
       id="g913"><rect
         style="fill:#cccccc;stroke:#cccccc;stroke-width:0;stroke-miterlimit:4;stroke-dasharray:none;stroke-dashoffset:11.71939468;stroke-opacity:1"
         id="rect8997"
         width="2.834671"
         height="22.677376"
         x="9.3708563"
         y="8.4595804"
         rx="1.6394873" /><rect
         rx="1.6394874"
         y="8.4595804"
         x="21.498121"
         height="22.677376"
         width="2.8346713"
         id="rect8999"
         style="fill:#cccccc;stroke:#cccccc;stroke-width:0;stroke-miterlimit:4;stroke-dasharray:none;stroke-dashoffset:11.71939468;stroke-opacity:1" /><g
         id="g2493"
         transform="matrix(0,1.0000093,-1.0000093,0,25.284247,11.294314)"><g
           id="g2491"
           transform="rotate(90,8.5039,8.5039)"><metadata
             id="metadata2459"><rdf:RDF><cc:Work
                 rdf:about=""><dc:format>image/svg+xml</dc:format><dc:type
                   rdf:resource="http://purl.org/dc/dcmitype/StillImage" /><dc:title /></cc:Work></rdf:RDF></metadata><defs
             id="defs2461" /><sodipodi:namedview
             inkscape:window-y="0"
             borderopacity="1"
             inkscape:pageopacity="0"
             inkscape:pageshadow="2"
             objecttolerance="10"
             window-width="1745"
             pagecolor="#ffffff"
             inkscape:zoom="9.9966114"
             inkscape:window-maximized="0"
             inkscape:window-height="650"
             showgrid="false"
             cx="-23.490448"
             id="namedview2463"
             fit-margin-top="0"
             inkscape:cy="5.8373423"
             fit-margin-left="0"
             bordercolor="#666666"
             fit-margin-right="0"
             inkscape:document-units="mm"
             inkscape:current-layer="Ebene_1"
             units="mm"
             fit-margin-bottom="0"
             gridtolerance="10"
             guidetolerance="10"
             inkscape:window-x="0" /><g
             id="g2489"
             transform="matrix(1.50629,0,0,1.5064,0,-4.36013)"><path
               inkscape:connector-curvature="0"
               id="path2465"
               d="m 11.2904,13.2648 c 0,0.5072 -0.4136,0.920002 -0.920002,0.920002 H 0.919968 C 0.4144,14.1848 0,13.7712 0,13.2648 V 3.8144 c 0.0016,-0.5072 0.4144,-0.92 0.920002,-0.92 h 9.45122 c 0.5072,0 0.920002,0.4136 0.920002,0.920002 l -8e-4,9.45043 c 0,0 0,0 0,0 z"
               style="fill:#999999" /><circle
               id="circle2467"
               cy="4.5391998"
               cx="1.6447999"
               r="0.97840101"
               style="fill:#141414" /><circle
               id="circle2469"
               cy="4.5560002"
               cx="9.6744204"
               r="0.97840101"
               style="fill:#141414" /><circle
               id="circle2471"
               cy="12.5848"
               cx="9.6575804"
               r="0.97760201"
               style="fill:#141414" /><circle
               id="circle2473"
               cy="12.5672"
               cx="1.6288"
               r="0.97760201"
               style="fill:#141414" /><circle
               id="circle2475"
               cy="8.5399904"
               cx="5.6455998"
               r="3.2927999"
               style="fill:#323232" /><circle
               id="circle2477"
               cy="8.5592203"
               cx="5.6504002"
               r="2.8239999"
               style="fill:#141414" /><path
               inkscape:connector-curvature="0"
               id="path2479"
               d="M 1.5192,4.488 C 1.5368,4.4424 1.5736,4.4064 1.6232,4.3968 L 1.5272,3.7808 C 1.4896,3.788 1.4512,3.7824 1.4144,3.7944 V 3.7904 C 1.1856,3.86 1.016,4.0312 0.928001,4.248 Z"
               style="fill:#c8c8c8" /><path
               inkscape:connector-curvature="0"
               id="path2481"
               d="M 9.5472,4.5048 C 9.56477,4.4584 9.60163,4.4224 9.65203,4.4136 L 9.55678,3.7976 C 9.5184,3.8048 9.48161,3.7992 9.44323,3.8104 L 9.44158,3.8064 c -0.2264,0.0688 -0.3984,0.2392 -0.4848,0.4576 8e-4,0 0.5904,0.2408 0.5904,0.2408 z"
               style="fill:#c8c8c8" /><path
               inkscape:connector-curvature="0"
               id="path2483"
               d="m 9.53042,12.5328 c 0.0184,-0.0464 0.0528,-0.0824 0.104,-0.0912 l -0.0936,-0.616 c -0.04,0.008 -0.0752,0.0016 -0.1144,0.0136 l -8e-4,-0.0048 c -0.2264,0.068 -0.3984,0.24 -0.4856,0.4576 0,-0.0016 0.5904,0.2408 0.5904,0.2408 z"
               style="fill:#c8c8c8" /><path
               inkscape:connector-curvature="0"
               id="path2485"
               d="M 1.5016,12.5168 C 1.52,12.4704 1.556,12.4352 1.6072,12.4256 L 1.5104,11.8088 C 1.4728,11.8176 1.4352,11.8104 1.3976,11.8224 L 1.396,11.8176 c -0.2264,0.0688 -0.3984,0.24 -0.4864,0.4568 z"
               style="fill:#c8c8c8" /><path
               inkscape:connector-curvature="0"
               id="path2487"
               d="M 6.66,5.928 C 6.4408,5.8424 6.212,5.7816 5.9688,5.7536 5.3616,5.6856 4.7808,5.82 4.2848,6.0952 l -0.0616,0.16 C 4.7776,5.9592 5.4216,5.8216 6.0936,5.8952 6.3,5.9192 6.5024,5.9656 6.6936,6.0264 6.6944,6.0272 6.66,5.928 6.66,5.928 Z"
               style="fill:#c8c8c8" /></g></g></g></g></g></svg>