<svg xmlns="http://www.w3.org/2000/svg" xmlns:xlink="http://www.w3.org/1999/xlink" viewBox="0 0 42.962 45.533" height="49" width="46"><style><![CDATA[.B{fill:#fff}.C{stroke:#fff}.D{fill:#aab3c4}.E{stroke:#aab3c4}.F{fill:#969ca8}.G{stroke:#969ca8}.H{fill:#9ea5b2}.I{stroke:#9ea5b2}.J{fill:#adb7c9}.K{stroke:#adb7c9}.L{fill:#808794}.M{stroke:#808794}.N{fill:#8e94a0}.O{stroke:#8e94a0}.P{fill:#acb6c9}.Q{stroke:#acb6c9}.R{fill:#a5adbc}.S{stroke:#a5adbc}.T{fill:#7a8291}.U{stroke:#7a8291}.V{fill:#80899a}.W{stroke:#80899a}.X{fill:#909aad}.Y{stroke:#909aad}.Z{fill:#878d99}.a{stroke:#878d99}.b{fill:#9da8bb}.c{stroke:#9da8bb}.d{fill:#a7b1c5}.e{stroke:#a7b1c5}.f{fill:#a6aebd}.g{fill:#949fb4}.h{fill:#6e7686}.i{stroke:#6e7686}.j{fill:#6f7888}.k{stroke:#6f7888}.l{fill:#6e7787}.m{stroke:#6e7787}.n{fill:#6b7382}.o{stroke:#6b7382}.p{fill:#8d9bb5}.q{stroke:#8d9bb5}.r{fill:#d3e3ff}.s{stroke:#d3e3ff}.t{fill:#f8ffff}.u{stroke:#f8ffff}.v{fill:#f9f9f9}.w{fill:#aab4c7}.x{fill:#6c7483}.y{stroke:#6c7483}.z{fill:#6c7584}.AA{stroke:#6c7584}.AB{fill:#707989}.AC{stroke:#707989}.AD{fill:#69717f}.AE{stroke:#69717f}.AF{fill:#636a76}.AG{stroke:#636a76}.AH{fill:#656c79}.AI{stroke:#656c79}.AJ{fill:#757f91}.AK{stroke:#757f91}.AL{fill:#666d7a}.AM{stroke:#666d7a}.AN{fill:#616773}.AO{stroke:#616773}.AP{fill:#626975}.AQ{stroke:#626975}.AR{fill:#7c879b}.AS{stroke:#7c879b}.AT{fill:#6d7584}.AU{stroke:#6d7584}.AV{fill:#8592a9}.AW{stroke:#8592a9}.AX{fill:#a3abbb}.AY{stroke:#a3abbb}.AZ{fill:#989fac}.Aa{stroke:#989fac}.Ab{fill:#a0a7b5}.Ac{stroke:#a0a7b5}.Ad{fill:#a1b1cf}.Ae{stroke:#a1b1cf}.Af{fill:#a3afc2}.Ag{stroke:#a3afc2}.Ah{fill:#e0f0ff}.Ai{stroke:#e0f0ff}.Aj{fill:#d8e7ff}.Ak{stroke:#d8e7ff}.Al{fill:#f7ffff}.Am{stroke:#f7ffff}.An{fill:#e6f7ff}.Ao{stroke:#e6f7ff}.Ap{fill:#bdc7d9}.Aq{stroke:#bdc7d9}.Ar{fill:#f9ffff}.As{stroke:#f9ffff}.At{fill:#fcffff}.Au{stroke:#fcffff}.Av{fill:#c7d6e7}.Aw{stroke:#c7d6e7}.Ax{fill:#b4c1d3}.Ay{stroke:#b4c1d3}]]></style><path d="M16.76 37.824h9v2.657h-9zm0-16.654h9v2.657h-9zm0-16.653h9v2.657h-9z" fill="#c8cfdb"/><path d="M9.56 0h23.4v45H9.56z" fill="#e5351e"/><path d="M11.36 0l-.9 2.475V4.95h-.9v35.1h.9v2.477l.9 2.475h19.8l.9-2.475V40.05h.9V4.95h-.9V2.475L31.16 0h-19.8z" class="f"/><use xlink:href="#B" stroke="#ccc" stroke-width=".1" class="g"/><g class="v"><use xlink:href="#C"/><use xlink:href="#D"/></g><use xlink:href="#E" class="f"/><path d="M21.703 1.242C9.96 1.242.443 10.76.443 22.502c.002 10.373 7.49 19.23 17.717 20.96v2.072h7.086V43.44c10.22-1.727 17.706-10.574 17.717-20.94 0-11.74-9.518-21.26-21.26-21.26zm-1.77 10.244v1.625h3.543v-1.615c5.406.87 9.384 5.53 9.39 11.006-.001 6.164-4.998 11.16-11.162 11.16s-11.16-4.996-11.162-11.16c.002-5.48 3.98-10.146 9.39-11.016z" class="B"/><path d="M21.26 1.242C9.518 1.242 0 10.76 0 22.502c.002 10.373 7.49 19.23 17.717 20.96v2.072h7.086V43.44c10.22-1.727 17.706-10.574 17.717-20.94 0-11.74-9.518-21.26-21.26-21.26zm-1.77 10.244v1.625h3.543v-1.615c5.406.87 9.384 5.53 9.39 11.006-.001 6.164-4.998 11.16-11.162 11.16s-11.16-4.996-11.162-11.16c.002-5.48 3.98-10.146 9.39-11.016z" class="w"/><path d="M25.505 41.657a19.49 19.49 0 0 0 15.312-22.916A19.49 19.49 0 0 0 17.901 3.43 19.49 19.49 0 0 0 2.589 26.345a19.49 19.49 0 0 0 22.916 15.312zm-.612-3.078c-.265.053-.525.036-.8.075-.02.007-.017.027-.037.033-.213.064-.48.098-.8.093l-1.037.055c-.207.007-.418.06-.623.06-.158-.001-.307-.044-.464-.05l-1.153-.05c-.136-.017-.153-.076-.267-.1L18.4 38.56c-.52-.107-.968-.478-1.406-.873s-.868-.814-1.35-1.018-1.02-.19-1.547-.2-1.04-.04-1.476-.332c-.138-.092-.25-.22-.385-.316-.35.03-.742-.128-1.214-.607l-1.208-1.068a16.25 16.25 0 0 1-1.097-1.18c-.398-.508-.543-.893-.522-1.214-.007-.01-.017-.02-.024-.03-.298-.44-.38-1-.44-1.575s-.1-1.166-.3-1.667-.595-.91-.952-1.334-.69-.86-.8-1.414c-.013-.064-.006-.126-.018-.2-.365-.183-.628-.524-.608-1.317a15.94 15.94 0 0 1-.071-1.599 15.92 15.92 0 0 1 .089-1.597c.095-.674.3-1.034.57-1.242.03-.18.022-.37.058-.547.107-.52.4-.887.716-1.244s.66-.703.863-1.187.27-1.104.356-1.712.196-1.203.487-1.638c.03-.045.072-.08.102-.126.014-.315.165-.662.61-1.08L9.93 11.06s.796-.74 1.22-1.08c.18-.134.28-.106.43-.187L12.523 9c.44-.298.964-.41 1.505-.503s1.1-.162 1.6-.372.945-.562 1.402-.888.928-.63 1.482-.74c.472-.094.935-.084 1.405-.136.102-.008.114-.068.232-.066l1.033-.054c.208-.007.42-.062.627-.06.16.001.312.044.472.05l1.143.05c.135.017.15.075.265.1l1.316.14c.52.107.978.43 1.425.776s.884.717 1.368.92 1.013.24 1.53.297 1.023.138 1.457.43c.138.092.25.22.385.316.35-.03.742.128 1.214.607a16.37 16.37 0 0 1 1.21 1.07 16.22 16.22 0 0 1 1.095 1.18c.398.508.543.893.522 1.214.007.01.017.017.023.027.298.44.357.966.392 1.51s.05 1.103.26 1.603.618.942 1 1.398.74.926.85 1.48c.013.064.006.127.018.192.365.183.628.524.608 1.317.05.53.073 1.064.07 1.597s-.032 1.067-.088 1.6c-.095.675-.3 1.035-.57 1.243-.03.18-.02.368-.057.545-.107.52-.48.91-.876 1.293s-.82.755-1.022 1.24-.2 1.08-.197 1.662-.037 1.152-.328 1.587c-.03.043-.068.078-.097.12-.013.316-.168.665-.616 1.086l-1.11 1.192s-.796.74-1.22 1.08c-.178.133-.276.105-.427.186l-.943.783c-.44.298-.983.312-1.545.303s-1.138-.038-1.638.173-.926.664-1.364 1.1-.89.826-1.443.936z" class="B"/><path d="M37.324 25.214c-.725.555-2.03-.182-3.777-.43l-1.5-.285a10.96 10.96 0 0 1-1.582 3.93l1.196.776c1.288.836 3.138 1.424 3.097 2.455.03-.043.07-.078.097-.12.3-.435.32-1.004.328-1.587s-.006-1.178.197-1.662.625-.857 1.022-1.24.768-.773.876-1.293c.037-.177.026-.366.057-.545zM34.76 13.25c-.06.93-1.584 1.3-3.04 2.353l-1.284.84c.772 1.176 1.312 2.5 1.588 3.87l1.548-.308c1.38-.274 2.912-.96 3.733-.547-.012-.064-.005-.127-.018-.192-.1-.554-.467-1.024-.85-1.48s-.8-.897-1-1.398-.224-1.06-.26-1.603-.094-1.07-.392-1.5c-.007-.01-.017-.017-.023-.027zM23.237 6.302c2.023.424.877 1.915.524 4.135l-.266 1.268c1.426.298 2.778.876 3.98 1.702l.802-1.165c.842-1.224 1.448-2.977 2.444-3.063-.135-.096-.247-.223-.385-.316-.435-.3-.94-.37-1.457-.43s-1.047-.094-1.53-.297-.92-.574-1.368-.92-.905-.67-1.425-.776c-.428-.1-.88-.085-1.316-.14z" class="g"/><path d="M20.73 6.165l.605-.033.494.02c-.16-.006-.31-.05-.472-.05-.207-.001-.42.054-.627.06z" class="w"/><path d="M11.13 9.706c1.583-.85 1.893.876 3.2 2.607l.737 1.08a10.81 10.81 0 0 1 4.04-1.7l-.243-1.222c-.37-1.854-1.584-4.013.6-4.176-.47.052-.933.042-1.405.136-.554.1-1.024.412-1.482.74s-.902.678-1.402.888-1.06.28-1.6.372-1.066.204-1.505.503c-.34.23-.62.528-.942.783zm-5.954 9.996c.725-.557 2.032.182 3.78.43l1.5.285c.267-1.4.804-2.737 1.58-3.933l-1.196-.776c-1.3-.837-3.138-1.426-3.092-2.46-.03.045-.072.08-.102.126-.3.435-.4 1.03-.487 1.638s-.153 1.228-.356 1.712-.546.83-.863 1.187-.6.724-.716 1.244c-.037.178-.028.367-.058.547zM7.74 31.666c.06-.93 1.584-1.3 3.04-2.353l1.284-.84a11 11 0 0 1-1.59-3.872l-1.548.308c-1.38.274-2.9.96-3.732.55.012.064.005.126.018.2.1.554.442 1 .8 1.414s.742.833.952 1.334.25 1.1.3 1.667.143 1.136.44 1.575c.007.01.017.02.024.03zM19.26 38.6c-2.02-.425-.875-1.914-.522-4.134l.265-1.27c-1.425-.298-2.777-.876-3.976-1.7l-.802 1.165c-.84 1.224-1.448 2.977-2.444 3.063.135.096.247.223.385.316.435.3.95.323 1.476.332s1.063-.003 1.547.2.913.622 1.35 1.018.886.766 1.406.873c.427.088.876.083 1.312.137z" class="v"/><path d="M21.768 38.75l-.603.032c-.162.001-.323-.017-.484-.02.157.005.306.048.464.05.205.001.417-.054.623-.06z" class="w"/><path d="M24.44 38.492c.554-.1 1.005-.5 1.443-.936s.864-.88 1.364-1.1 1.077-.18 1.638-.173 1.105-.005 1.545-.303c.34-.232.623-.528.943-.783-1.587.854-1.896-.873-3.205-2.606l-.736-1.078c-1.218.835-2.592 1.416-4.04 1.708l.243 1.222c.333 1.675 1.414 3.63.014 4.115.265-.04.524-.023.8-.075z" class="g"/><path d="M25.053 41.57a19.49 19.49 0 0 0 15.312-22.916A19.49 19.49 0 0 0 17.449 3.343 19.49 19.49 0 0 0 2.137 26.259a19.49 19.49 0 0 0 22.916 15.312zm-.612-3.078c-.265.053-.525.036-.8.075-.02.007-.017.027-.037.033-.213.064-.48.098-.8.093l-1.037.055c-.207.007-.418.06-.623.06-.158-.001-.307-.044-.464-.05l-1.153-.05c-.136-.017-.153-.076-.267-.1l-1.312-.137c-.52-.107-.968-.478-1.406-.873s-.868-.814-1.35-1.018-1.02-.19-1.547-.2-1.04-.04-1.476-.332c-.138-.092-.25-.22-.385-.316-.35.03-.742-.128-1.214-.607L9.36 34.06a16.25 16.25 0 0 1-1.097-1.18c-.398-.508-.543-.893-.522-1.214-.007-.01-.017-.02-.024-.03-.298-.44-.38-1-.44-1.575s-.1-1.166-.3-1.667-.595-.91-.952-1.334-.69-.86-.8-1.414c-.013-.064-.006-.126-.018-.2-.365-.183-.628-.524-.608-1.317a15.94 15.94 0 0 1-.071-1.599 15.92 15.92 0 0 1 .089-1.597c.095-.674.3-1.034.57-1.242.03-.18.022-.37.058-.547.107-.52.4-.887.716-1.244s.66-.703.863-1.187.27-1.104.356-1.712.196-1.203.487-1.638c.03-.045.072-.08.102-.126.014-.315.165-.662.61-1.08l1.107-1.192s.796-.74 1.22-1.08c.18-.134.28-.106.43-.187l.942-.783c.44-.298.964-.41 1.505-.503s1.1-.162 1.6-.372.945-.562 1.402-.888.928-.63 1.482-.74c.472-.094.935-.084 1.405-.136.102-.008.114-.068.232-.066l1.033-.054c.208-.007.42-.062.627-.06.16.001.312.044.472.05l1.143.05c.135.017.15.075.265.1l1.316.14c.52.107.978.43 1.425.776s.884.717 1.368.92 1.013.24 1.53.297 1.023.138 1.457.43c.138.092.25.22.385.316.35-.03.742.128 1.214.607a16.37 16.37 0 0 1 1.21 1.07 16.22 16.22 0 0 1 1.095 1.18c.398.508.543.893.522 1.214.007.01.017.017.023.027.298.44.357.966.392 1.51s.05 1.103.26 1.603.618.942 1 1.398.74.926.85 1.48c.013.064.006.127.018.192.365.183.628.524.608 1.317.05.53.073 1.064.07 1.597s-.032 1.067-.088 1.6c-.095.675-.3 1.035-.57 1.243-.03.18-.02.368-.057.545-.107.52-.48.91-.876 1.293s-.82.755-1.022 1.24-.2 1.08-.197 1.662-.037 1.152-.328 1.587c-.03.043-.068.078-.097.12-.013.316-.168.665-.616 1.086l-1.11 1.192s-.796.74-1.22 1.08c-.178.133-.276.105-.427.186l-.943.783c-.44.298-.983.312-1.545.303s-1.138-.038-1.638.173-.926.664-1.364 1.1-.89.826-1.443.936z" fill="#b7c0d1"/><path d="M23.595 38.6c1.52-.438.383-2.45.043-4.157l-.243-1.222-.75.1.25 1.26c.892 3.27 1.152 3.317-1.734 3.426-3.34.16-2.08-1.003-1.676-3.43l.265-1.27-.746-.116-.266 1.268c-.373 2.345-1.75 3.92.788 4.234l1.637.07 1.64-.087c.165.002.314-.004.448-.02a2.13 2.13 0 0 0 .341-.066zm7.237-3.082c.27-.06.588-.22.97-.508l1.22-1.08 1.107-1.2c1.9-1.795-.797-2.452-2.48-3.543l-1.194-.776-.437.62 1.22.8c2.9 1.616 3.228 1.503 1.256 3.56-2.26 2.4-2.248.745-3.7-1.223l-.745-1.092-.616.437.737 1.08c1.164 1.542 1.486 3.186 2.66 2.928zm-18.837.18c.875-.294 1.45-1.9 2.232-3.037l.802-1.165-.603-.458-.822 1.195c-1.67 2.846-1.622 3.183-3.717 1.275-2.483-2.205-.624-2.196 1.336-3.593l1.28-.838-.437-.616-1.286.84c-1.96 1.418-4.064 1.6-2.516 3.567l1.095 1.18a16.35 16.35 0 0 0 1.21 1.068c.57.577 1.028.714 1.426.58zM37 25.408c.46-.112.766-.507.897-1.437a15.95 15.95 0 0 0 .088-1.599 15.89 15.89 0 0 0-.073-1.597c.064-2.575-2.346-1.166-4.34-.77l-1.55.308.1.75 1.586-.315c3.2-.848 3.423-1.227 3.5 1.622.1 3.37-1.04 2.045-3.576 1.667l.035.005-1.538-.292-.116.748 1.513.287c1.5.213 2.687.8 3.452.624zm-30.335.11l2.266-.6 1.548-.308-.1-.75-1.584.315c-3.016.828-3.426 1.277-3.508-1.62v-.002c-.138-3.296 1.2-2.018 3.574-1.665l-.035-.005 1.538.292.116-.748-1.513-.287c-2.4-.34-3.997-1.666-4.347.813l-.1 1.597a15.83 15.83 0 0 0 .07 1.6c-.04 1.6.887 1.66 2.074 1.378zm23.772-9.074l1.284-.84c1.96-1.418 4.064-1.6 2.516-3.567l-1.095-1.18-1.2-1.07c-1.82-1.846-2.52.804-3.658 2.456l-.802 1.165.6.46.823-1.197c1.67-2.847 1.624-3.185 3.716-1.273 2.363 2.104.683 2.155-1.336 3.593l-1.28.838.437.616zm-18.4.04l.437-.62-1.22-.8c-2.9-1.616-3.228-1.5-1.258-3.56 2.274-2.427 2.258-.713 3.723 1.255l.723 1.06.616-.437-.737-1.08c-1.433-1.898-1.6-3.95-3.632-2.42l-1.22 1.08-1.107 1.192c-1.9 1.795.8 2.45 2.48 3.54l1.194.776zm11.45-4.778l.266-1.268c.373-2.345 1.75-3.92-.788-4.234l-1.637-.07-1.64.087c-2.64-.036-1.217 2.302-.83 4.242l.243 1.222.75-.1-.25-1.26c-.9-3.194-1.1-3.32 1.732-3.425 3.338-.16 2.08 1.004 1.676 3.43l-.265 1.27.746.116z" fill="#e6e6e6"/><use xlink:href="#B" class="g"/><g class="v"><use xlink:href="#C"/><use xlink:href="#D"/></g><use xlink:href="#E" fill="#c8cfdb"/><path d="M21.26 13.5a9 9 0 0 0-3.543 17.27v-.598h7.086v.592a9 9 0 0 0 2.821-14.628 9 9 0 0 0-6.364-2.636z" fill="#91949b"/><path d="M21.26 14.4a8.1 8.1 0 0 0-3.178 15.549h6.336a8.1 8.1 0 0 0-3.158-15.549z" class="B"/><circle r="7.2" cy="22.5" cx="21.26"/><g stroke-width=".078"><path d="M24.694 21.193l1.875 8.75-1.64-8.126z" class="T U"/><path d="M17.975 21.82l-1.406 7.188 1.64-7.813z" class="V W"/><path d="M24.382 20.568l1.953 8.438-1.64-7.813z" class="L M"/><path d="M18.21 21.193l-1.094 6.954 1.406-7.58z" class="X Y"/><path d="M23.913 20.02l1.875 8.126-1.406-7.58z" class="Z a"/><path d="M18.522 20.568l-.78 6.798 1.25-7.345z" class="b c"/><path d="M23.444 19.63l1.72 7.735-1.25-7.345z" class="N O"/><path d="M18.99 20.02l-.47 6.64.938-7.032z" class="d e"/><path d="M22.82 19.318l1.563 7.345-.938-7.032z" class="F G"/><path d="M19.46 19.63v6.563l.625-6.876z" class="P Q"/><path d="M22.116 19.084l1.328 7.1-.625-6.876z" class="H I"/><path d="M20.085 19.318l.313 6.563.39-6.798z" class="J K"/><path d="M21.49 19.006l1.016 6.876-.39-6.798z" class="R S"/><path d="M20.788 19.084l.703 6.72v-6.798z" class="D E"/><g class="V W"><path d="M17.975 21.82L16.5 29.476v-.156z"/><path d="M16.5 29.476l1.485-7.657-1.64 7.97z"/></g><path d="M24.694 21.193l1.72 8.126v.156z" class="T U"/><path d="M17.975 21.82l-1.485 7.5.078-.156zm-1.64 7.968l1.64-7.97-1.64 7.97z" class="V W"/><g class="T U"><path d="M24.694 21.193l1.72 8.282.156.313z"/><path d="M26.413 29.32l-1.72-8.126 1.64 7.97zm-1.72-8.127l1.875 8.595z"/></g><g class="X Y"><path d="M18.21 21.193L16.88 28.46v-.078z"/><path d="M16.88 28.46l1.328-7.266-1.485 7.58z"/><path d="M16.725 28.772l1.485-7.58-1.563 7.657z"/></g><path d="M17.975 21.82l-1.64 8.126v-.156z" class="V W"/><g class="L M"><path d="M24.382 20.568l1.64 7.813v.078z"/><path d="M24.382 20.568l1.64 7.89.156.313z"/></g><path d="M18.21 21.193l-1.328 7.188.156-.156z" class="X Y"/><path d="M24.382 20.568l1.797 8.204.078.078z" class="L M"/><path d="M26.57 29.944l-1.875-8.75 1.875 8.595z" class="T U"/><path d="M26.023 28.382l-1.64-7.813 1.485 7.657z" class="L M"/><path d="M16.57 29.007l1.406-7.188-1.406 7.345z" class="V W"/><path d="M24.694 21.193l1.64 7.813v.156z" class="T U"/><g class="b c"><path d="M17.428 27.6l1.094-7.032-1.328 7.345z"/><path d="M18.522 20.568L17.428 27.6l.078-.078z"/></g><path d="M18.21 21.193l-1.64 7.813.078-.156z" class="X Y"/><g class="Z a"><path d="M23.913 20.02l1.563 7.58.234.313z"/><path d="M23.913 20.02l1.485 7.5.078.078z"/></g><path d="M17.506 27.522l.078-.078.938-6.876z" class="b c"/><path d="M26.335 29.007l-1.953-8.438 1.875 8.282z" class="L M"/><path d="M25.32 27.444l.078.078-1.485-7.5z" class="Z a"/><path d="M17.116 28.147l1.094-6.954-1.172 7.032z" class="X Y"/><g class="d e"><path d="M18.99 20.02l-.938 7.032.078-.078z"/><path d="M18.99 20.02l-1.016 7.032h.078z"/></g><path d="M24.85 27.053l-1.406-7.423 1.328 7.345z" class="N O"/><path d="M24.382 20.568l1.406 7.58.078.078z" class="L M"/><path d="M18.99 20.02l-.86 6.954.313-.313z" class="d e"/><path d="M23.444 19.63l1.406 7.423h.078z" class="N O"/><path d="M18.522 20.568l-1.406 7.58.078-.234z" class="b c"/><path d="M24.773 26.975l-1.328-7.345 1.016 7.032z" class="N O"/><path d="M25.788 28.147l-1.875-8.126 1.797 7.89z" class="Z a"/><g class="P Q"><path d="M19.46 19.63l-.547 6.798.078-.078z"/><path d="M19.46 19.63l-.703 6.876.156-.078z"/></g><path d="M23.99 26.428l-1.172-7.1 1.094 7.032z" class="F G"/><path d="M17.74 27.366l.78-6.798-.938 6.876z" class="b c"/><path d="M22.82 19.318l1.172 7.1.156.078z" class="F G"/><path d="M19.46 19.63l-.47 6.72.313-.156z" class="P Q"/><path d="M23.913 26.35l-1.094-7.032.78 6.876z" class="F G"/><path d="M23.913 20.02l1.25 7.345.156.078z" class="Z a"/><path d="M20.085 19.318l-.156 6.64h.078z" class="J K"/><path d="M22.976 25.96l-.86-6.876.78 6.876z" class="H I"/><path d="M18.99 20.02l-1.25 7.345.234-.313z" class="d e"/><path d="M19.46 19.63l-.156 6.563h.078z" class="P Q"/><path d="M20.085 19.318l-.47 6.798.313-.156z" class="J K"/><path d="M22.116 19.084l.86 6.876.313.156z" class="H I"/><path d="M20.788 19.084l.156 6.72h.078z" class="D E"/><path d="M23.6 26.194l-.78-6.876.703 6.876z" class="F G"/><path d="M23.444 19.63l1.485 7.423.234.313z" class="N O"/><path d="M21.96 25.803l-.47-6.798.39 6.798z" class="R S"/><path d="M20.085 19.318l-.078 6.64.313-.078z" class="J K"/><path d="M22.897 25.96l-.78-6.876.47 6.798z" class="H I"/><path d="M20.788 19.084l-.156 6.72h.313z" class="D E"/><path d="M21.49 19.006l.47 6.798h.313z" class="R S"/><path d="M18.522 26.663l.47-6.64-.547 6.64z" class="d e"/><path d="M20.788 19.084l.234 6.72.313-.078z" class="D E"/><path d="M21.882 25.803l-.39-6.798.078 6.72z" class="R S"/><path d="M23.444 19.63l.938 7.032h.078z" class="N O"/><path d="M20.085 19.318l.234 6.563z" class="J K"/><path d="M19.46 19.63l-.938 7.032.234-.156z" class="P Q"/><path d="M22.585 25.88l-.47-6.798.47 6.798z" class="H I"/><path d="M22.82 19.318l1.328 7.188.234.156z" class="F G"/><path d="M19.46 26.194V19.63l-.078 6.563z" class="P Q"/><path d="M22.82 19.318l.625 6.876h.078z" class="F G"/><path d="M20.085 19.318l-.625 6.876.156-.078z" class="J K"/><path d="M22.116 19.084l1.172 7.032.156.078z" class="H I"/><path d="M20.788 19.084l-.39 6.798.234-.078z" class="D E"/><path d="M21.49 19.006l.78 6.798.234.078z" class="R S"/><path d="M20.397 25.88l-.313-6.563.234 6.563z" class="J K"/><path d="M21.49 25.803l-.703-6.72.547 6.64z" class="D E"/><path d="M21.49 19.006v6.798l.078-.078z" class="R S"/><path d="M22.116 19.084l.39 6.798h.078z" class="H I"/><path d="M18.444 35.336l.47.234h-.078z" class="h i"/><path d="M24.46 35.336l-.39.234h-.078z" fill="#6d7685" stroke="#6d7685"/><path d="M19.303 35.804h.078l.47.156z" class="h i"/><path d="M23.6 35.804l-.547.156.47-.156z" fill="#6d7685" stroke="#6d7685"/><path d="M18.053 35.023l.39.313v-.078z" class="j k"/><path d="M24.85 35.023l-.39.234v.078z" class="x y"/><path d="M18.834 35.57h.078l.39.234z" class="l m"/><path d="M24.07 35.57l-.47.234.39-.234z" class="z AA"/><path d="M17.506 34.398l.547.625-.234-.234z" class="j k"/><path d="M25.398 34.398l-.313.39-.234.234z" class="x y"/><path d="M18.444 35.257v.078l.39.234z" class="AB AC"/><path d="M24.46 35.257l-.39.313.39-.234z" class="n o"/><path d="M16.334 31.976l.078.547-.078-.39z" class="l m"/><path d="M26.57 31.976v.156l-.078.39z" class="z AA"/><path d="M20.944 36.195l.547.078v-.078z" class="l m"/><path d="M21.96 36.195h-.47v.078z" fill="#6d7585" stroke="#6d7585"/><path d="M20.397 36.117l.547.078z" class="AB AC"/><path d="M22.507 36.117l-.547.078z" fill="#6b7483" stroke="#6b7483"/><path d="M17.82 34.79l.234.234.39.234z" fill="#747e90" stroke="#747e90"/><path d="M25.085 34.79l-.625.47.39-.234z" fill="#676e7c" stroke="#676e7c"/><path d="M17.194 34.007l.313.39-.156-.234z" fill="#747e90" stroke="#747e90"/><path d="M25.7 34.007l-.156.156-.156.234z" fill="#676e7c" stroke="#676e7c"/><path d="M19.85 35.96l.547.156v-.078z" fill="#717b8c" stroke="#717b8c"/><path d="M23.054 35.96l-.547.078v.078z" fill="#6a7280" stroke="#6a7280"/><path d="M16.256 31.507l.078.47-.078-.39z" fill="#727b8c" stroke="#727b8c"/><path d="M26.648 31.507v.078l-.078.39z" class="AD AE"/><path d="M16.334 32.132l.078.39.078.078z" class="j k"/><path d="M26.57 32.132l-.156.47.078-.078z" class="x y"/><path d="M16.88 33.617l.313.39-.156-.313z" fill="#778194" stroke="#778194"/><path d="M26.023 33.617l-.156.078-.156.313z" fill="#646b77" stroke="#646b77"/><path d="M19.303 35.804l.547.156v-.078z" fill="#747d8f" stroke="#747d8f"/><path d="M23.6 35.804l-.547.078v.078z" fill="#676f7d" stroke="#676f7d"/><path d="M17.35 34.164l.156.234.313.39z" fill="#788296" stroke="#788296"/><path d="M25.554 34.164l-.47.625.313-.39z" class="AF AG"/><path d="M20.944 36.195h.547z" class="l m"/><path d="M21.96 36.195h-.47.47z" fill="#6d7585" stroke="#6d7585"/><path d="M16.57 29.163l-.078.234.078-.39z" fill="#808998" stroke="#808998"/><path d="M26.413 29.397l-.078-.234v-.156z" fill="#808897" stroke="#808897"/><path d="M18.834 35.57l.47.234v-.078z" fill="#768093" stroke="#768093"/><path d="M24.07 35.57l-.47.156v.078z" class="AH AI"/><path d="M20.397 36.04v.078l.547.078z" fill="#70798a" stroke="#70798a"/><path d="M22.507 36.04l-.547.156.547-.078z" class="n o"/><path d="M16.256 31.585l.078.39v.156z" fill="#727c8d" stroke="#727c8d"/><path d="M26.648 31.585l-.078.547v-.156z" fill="#69707e" stroke="#69707e"/><path d="M16.178 30.96l.078.547v-.39z" class="AJ AK"/><path d="M26.726 30.96l-.078.156v.39z" class="AL AM"/><path d="M16.647 33.148l.234.47-.078-.313z" fill="#7a8599" stroke="#7a8599"/><path d="M26.257 33.148l-.156.156-.078.313z" class="AN AO"/><path d="M17.037 33.695l.156.313.156.156z" fill="#798397" stroke="#798397"/><path d="M25.866 33.695l-.313.47.156-.156z" class="AP AQ"/><path d="M18.444 35.257l.39.313v-.078z" fill="#798497" stroke="#798497"/><path d="M24.46 35.257l-.39.234v.078z" class="AP AQ"/><path d="M19.85 35.882v.078l.547.078z" fill="#737c8e" stroke="#737c8e"/><path d="M23.054 35.882l-.547.156.547-.078z" fill="#69707e" stroke="#69707e"/><path d="M16.647 28.85l.156-.313-.078.234z" fill="#8992a2" stroke="#8992a2"/><path d="M26.1 28.538l.156.313-.078-.078z" fill="#828a99" stroke="#828a99"/><path d="M16.178 30.96l.078.156v-.625z" fill="#7e889b" stroke="#7e889b"/><path d="M26.726 30.96l-.078-.47v.625z" fill="#676e7a" stroke="#676e7a"/><path d="M16.88 28.382l-.156.39.078-.234z" fill="#8992a2" stroke="#8992a2"/><path d="M26.18 28.772l-.156-.39.078.156z" fill="#828a99" stroke="#828a99"/><path d="M26.49 29.476l-.078-.078-.078-.39z" fill="#7e8695" stroke="#7e8695"/><path d="M16.412 29.476l.156-.47-.078.39z" fill="#828b9b" stroke="#828b9b"/><path d="M16.256 31.116v.47z" class="AJ AK"/><path d="M26.648 31.116v.39z" class="AL AM"/><path d="M19.303 35.726v.078l.547.078z" fill="#757f92" stroke="#757f92"/><path d="M23.6 35.726l-.547.156.547-.078z" class="AL AM"/><path d="M16.5 32.6l.156.547-.078-.39z" fill="#7d889d" stroke="#7d889d"/><path d="M26.413 32.6l-.078.156-.078.39z" fill="#5e646e" stroke="#5e646e"/><path d="M16.803 33.304l.078.313.156.078z" class="AR AS"/><path d="M26.1 33.304l-.234.39.156-.078z" fill="#5f6570" stroke="#5f6570"/><path d="M17.82 34.79l.625.47-.234-.234z" class="AR AS"/><path d="M25.085 34.79l-.39.234-.234.234z" fill="#606671" stroke="#606671"/><path d="M17.037 28.225l-.156.156.234-.234z" fill="#9099ab" stroke="#9099ab"/><path d="M26.023 28.382l-.234-.234z" fill="#858d9b" stroke="#858d9b"/><path d="M18.834 35.492v.078l.47.156z" fill="#788396" stroke="#788396"/><path d="M24.07 35.492l-.47.234.47-.156z" class="AF AG"/><path d="M16.256 30.49v.078l.078-.625z" fill="#8792a6" stroke="#8792a6"/><path d="M26.648 30.49l-.078-.547.078.625z" fill="#6a707b" stroke="#6a707b"/><path d="M16.803 28.538l-.234.47z" fill="#8a94a5" stroke="#8a94a5"/><path d="M26.257 28.85l-.156-.313.234.47z" fill="#808896" stroke="#808896"/><path d="M16.334 32.132l.156.47-.078-.39z" fill="#818da3" stroke="#818da3"/><path d="M26.57 32.132l-.078.078-.078.39z" fill="#5a5f69" stroke="#5a5f69"/><path d="M16.57 32.757l.078.39.156.156z" fill="#7f8ba1" stroke="#7f8ba1"/><path d="M26.335 32.757l-.234.547.156-.156z" fill="#5c616b" stroke="#5c616b"/><path d="M20.944 36.195h.547v-.078z" class="AB AC"/><path d="M21.96 36.195l-.47-.078v.078z" class="AT AU"/><path d="M16.256 31.116v-.625z" fill="#7e889c" stroke="#7e889c"/><path d="M26.648 31.116v-.547z" fill="#676e7a" stroke="#676e7a"/><path d="M18.21 35.023l.234.234.39.234z" fill="#7e8a9f" stroke="#7e8a9f"/><path d="M24.694 35.023l-.625.47.39-.234z" fill="#5d636d" stroke="#5d636d"/><path d="M25.7 27.913l-.313-.39.078.156z" fill="#88909d" stroke="#88909d"/><path d="M17.506 27.522l-.313.39.234-.234z" fill="#97a0b2" stroke="#97a0b2"/><path d="M17.35 34.164l.47.625-.156-.313z" fill="#818ca2" stroke="#818ca2"/><path d="M25.554 34.164l-.313.313-.156.313z" fill="#5b606a" stroke="#5b606a"/><path d="M16.334 29.944v.078l.078-.547z" fill="#8f9bb0" stroke="#8f9bb0"/><path d="M26.57 29.944l-.078-.47.078.547z" fill="#6d727d" stroke="#6d727d"/><path d="M20.397 36.04l.547.156-.078-.156z" fill="#737d8e" stroke="#737d8e"/><path d="M22.507 36.04h-.47l-.078.156z" class="AD AE"/><path d="M26.1 28.538l-.078-.156-.234-.234z" fill="#838a97" stroke="#838a97"/><path d="M16.803 28.538l.313-.39-.234.234z" fill="#929bae" stroke="#929bae"/><path d="M16.256 31.585l.078.547v-.47z" fill="#8491a8" stroke="#8491a8"/><path d="M26.648 31.585l-.078.078v.47z" fill="#575b63" stroke="#575b63"/><path d="M16.412 32.2l.078.39.078.156z" fill="#838fa5" stroke="#838fa5"/><path d="M26.49 32.2l-.156.547.078-.156z" fill="#595d66" stroke="#595d66"/><path d="M25.398 27.522l-.078-.078-.156-.078z" fill="#8e96a3" stroke="#8e96a3"/><path d="M17.584 27.444l-.078.078.234-.156z" fill="#9aa4b6" stroke="#9aa4b6"/><path d="M19.85 35.882l.547.156-.078-.078z" fill="#788295" stroke="#788295"/><path d="M23.054 35.882l-.47.078-.078.078z" class="AH AI"/><path d="M16.256 30.57l.078-.547v-.078z" fill="#8893a7" stroke="#8893a7"/><path d="M26.648 30.57l-.078-.625v.078z" fill="#6a707a" stroke="#6a707a"/><path d="M17.037 33.695l.313.47-.156-.313z" fill="#8794ac" stroke="#8794ac"/><path d="M25.866 33.695l-.156.156-.156.313z" fill="#555961" stroke="#555961"/><path d="M18.913 26.428l.39-.234-.313.156z" fill="#9da5b5" stroke="#9da5b5"/><path d="M23.6 26.194l.39.234-.078-.078z" fill="#9ca4b4" stroke="#9ca4b4"/><path d="M17.662 34.476l.156.313.39.234z" fill="#8591a9" stroke="#8591a9"/><path d="M25.24 34.476l-.547.547.39-.234z" fill="#585c65" stroke="#585c65"/><path d="M25.7 27.913l-.234-.234.313.47z" fill="#868d9a" stroke="#868d9a"/><path d="M17.428 27.68l-.234.234-.078.234z" fill="#98a2b5" stroke="#98a2b5"/><path d="M16.412 29.476l.078.078.078-.547z" fill="#97a3b9" stroke="#97a3b9"/><path d="M26.49 29.476l-.156-.47.078.547z" fill="#70757e" stroke="#70757e"/><path d="M18.053 26.975l-.078.078-.234.313z" fill="#9aa4b6" stroke="#9aa4b6"/><path d="M24.93 27.053l-.078-.078.313.39z" fill="#8e96a3" stroke="#8e96a3"/><path d="M20.866 36.04l.078.156.547-.078z" fill="#717a8a" stroke="#717a8a"/><path d="M22.038 36.04l-.547.078.47.078z" class="z AA"/><path d="M19.303 35.726l.547.156v-.078z" fill="#7c879c" stroke="#7c879c"/><path d="M23.6 35.726l-.547.078v.078z" class="AN AO"/><path d="M16.256 31.116v.47l.078-.39z" fill="#8b98b1" stroke="#8b98b1"/><path d="M26.648 31.116l-.078.078.078.39z" fill="#575a61" stroke="#575a61"/><path d="M16.334 31.663v.47l.078.078z" class="AV AW"/><path d="M26.57 31.663l-.078.547.078-.078z" fill="#565a62" stroke="#565a62"/><path d="M19.928 25.96h.078z" fill="#a0a9b9" stroke="#a0a9b9"/><path d="M22.897 25.96h.078z" fill="#9fa8b7" stroke="#9fa8b7"/><path d="M24.85 26.975l-.39-.313.313.313z" fill="#9198a4" stroke="#9198a4"/><path d="M18.444 26.663l-.39.313h.078z" fill="#a3adc0" stroke="#a3adc0"/><path d="M19.616 26.116l.313-.156z" fill="#a0a9b9" stroke="#a0a9b9"/><path d="M22.976 25.96l.313.156-.313-.156z" fill="#9ea6b5" stroke="#9ea6b5"/><path d="M16.803 33.304l.234.39-.078-.313z" fill="#8b99b2" stroke="#8b99b2"/><path d="M26.1 33.304l-.156.078-.078.313z" fill="#51555b" stroke="#51555b"/><path d="M18.834 35.492l.47.234v-.156z" fill="#808ca2" stroke="#808ca2"/><path d="M24.07 35.492l-.47.078v.156z" fill="#5d636d" stroke="#5d636d"/><path d="M16.334 30.023l.156-.47-.078-.078z" fill="#909cb2" stroke="#909cb2"/><path d="M26.57 30.023l-.078-.547-.078.078z" fill="#6d727c" stroke="#6d727c"/><path d="M25.476 27.68l-.078-.156-.234-.156z" fill="#89909c" stroke="#89909c"/><path d="M17.428 27.68l.313-.313-.234.156z" fill="#9ea8bc" stroke="#9ea8bc"/><path d="M20.32 35.96l.078.078h.47z" class="AJ AK"/><path d="M22.585 35.96l-.547.078h.47z" fill="#68707e" stroke="#68707e"/><path d="M20.944 25.803h.078z" class="AX AY"/><path d="M21.882 25.803h.078zm-1.954.157l.4-.078-.313.078z" fill="#a2aaba" stroke="#a2aaba"/><path d="M22.585 25.88l.39.078h-.078z" fill="#a0a8b7" stroke="#a0a8b7"/><path d="M17.194 33.85l.156.313.313.313z" fill="#8a98b1" stroke="#8a98b1"/><path d="M25.7 33.85l-.47.625.313-.313z" fill="#52565d" stroke="#52565d"/><path d="M16.256 31.116l.078.078-.078-.625z" fill="#94a2bb" stroke="#94a2bb"/><path d="M26.648 31.116v-.547l-.078.625z" fill="#595c62" stroke="#595c62"/><path d="M16.57 29.007h.078l.156-.47z" fill="#9eaac1" stroke="#9eaac1"/><path d="M26.335 29.007l-.234-.47.156.47z" fill="#747981" stroke="#747981"/><path d="M20.632 25.803h.313z" class="AX AY"/><path d="M21.96 25.803z" fill="#a1a9b9" stroke="#a1a9b9"/><path d="M24.148 26.507l-.156-.078.39.234z" fill="#959ba8" stroke="#959ba8"/><path d="M18.913 26.428l-.156.078-.234.156z" fill="#a7b1c3" stroke="#a7b1c3"/><path d="M16.334 31.195l-.078.39.078.078z" fill="#8c99b1" stroke="#8c99b1"/><path d="M26.57 31.195v.47l.078-.078z" fill="#565a61" stroke="#565a61"/><path d="M20.944 25.803l.39-.078-.313.078z" class="AX AY"/><path d="M21.57 25.725l.39.078h-.078z" fill="#a2abba" stroke="#a2abba"/><path d="M19.85 35.804v.078l.47.078z" fill="#798498" stroke="#798498"/><path d="M23.054 35.804l-.47.156.47-.078z" fill="#646b78" stroke="#646b78"/><path d="M25.163 27.366l-.313-.39h-.078z" fill="#8d939f" stroke="#8d939f"/><path d="M17.74 27.366l.39-.39h-.078z" fill="#a3adc1" stroke="#a3adc1"/><path d="M16.57 32.757l.234.547-.078-.47z" fill="#8f9db8" stroke="#8f9db8"/><path d="M26.335 32.757l-.156.078-.078.47z" fill="#53575e" stroke="#53575e"/><path d="M19.303 26.194l-.39.234h.078z" fill="#a9b3c5" stroke="#a9b3c5"/><path d="M23.99 26.428l-.39-.234.313.234z" class="AZ Aa"/><path d="M16.96 33.382l.078.313.156.156z" class="p q"/><path d="M25.945 33.382l-.234.47.156-.156z" fill="#505359" stroke="#505359"/><path d="M18.21 35.023l.625.47-.156-.313z" class="AV AW"/><path d="M24.694 35.023l-.47.156-.156.313z" fill="#585d66" stroke="#585d66"/><path d="M16.5 29.554l.156-.547h-.078z" fill="#9ba7be" stroke="#9ba7be"/><path d="M26.413 29.554l-.078-.547h-.078z" fill="#6f747c" stroke="#6f747c"/><path d="M23.6 35.57l-.547.234.547-.078z" fill="#606671" stroke="#606671"/><path d="M19.303 35.57v.156l.547.078z" fill="#7e899e" stroke="#7e899e"/><path d="M18.99 26.428l.39-.234h-.078z" fill="#a9b3c5" stroke="#a9b3c5"/><path d="M23.522 26.194l.39.234-.313-.234z" class="AZ Aa"/><path d="M16.803 28.538l.078.078.234-.47z" fill="#a5b1c8" stroke="#a5b1c8"/><path d="M26.1 28.538l-.313-.39.234.47z" fill="#787c84" stroke="#787c84"/><path d="M16.256 30.57l.078.078v-.625z" fill="#9dabc6" stroke="#9dabc6"/><path d="M26.648 30.57l-.078-.547v.625z" fill="#62666e" stroke="#62666e"/><path d="M18.444 26.663l-.313.313.39-.313z" fill="#a7b1c4" stroke="#a7b1c4"/><path d="M24.773 26.975l-.313-.313h-.078z" fill="#9197a3" stroke="#9197a3"/><path d="M19.928 25.96l-.47.234z" fill="#aab4c6" stroke="#aab4c6"/><path d="M23.288 26.116l-.313-.156.47.234z" fill="#9ca3b0" stroke="#9ca3b0"/><path d="M16.412 32.2l.156.547v-.47z" fill="#93a2be" stroke="#93a2be"/><path d="M26.49 32.2l-.156.078v.47z" fill="#5b626e" stroke="#5b626e"/><path d="M20.32 25.88l-.39.078v.078z" fill="#abb4c6" stroke="#abb4c6"/><path d="M22.976 25.96l-.39-.078.39.156z" class="Ab Ac"/><path d="M18.678 35.18l.156.313.47.078z" fill="#8693ab" stroke="#8693ab"/><path d="M24.226 35.18l-.625.39.47-.078z" fill="#595e67" stroke="#595e67"/><path d="M16.334 31.195v-.547l-.078-.078z" fill="#95a3bd" stroke="#95a3bd"/><path d="M26.57 31.195l.078-.625-.078.078z" fill="#595c62" stroke="#595c62"/><path d="M16.725 32.835l.078.47.156.078z" fill="#91a0bb" stroke="#91a0bb"/><path d="M26.18 32.835l-.234.547.156-.078z" fill="#565c65" stroke="#565c65"/><path d="M24.382 26.663l-.39-.234h-.078z" fill="#949ba7" stroke="#949ba7"/><path d="M18.522 26.663l.47-.234h-.078z" fill="#a9b4c7" stroke="#a9b4c7"/><path d="M16.647 29.007l.234-.39-.078-.078z" fill="#a2afc6" stroke="#a2afc6"/><path d="M26.257 29.007l-.156-.47-.078.078z" fill="#73777f" stroke="#73777f"/><path d="M22.272 25.803h-.313l.547.078z" fill="#a3abb9" stroke="#a3abb9"/><path d="M20.944 25.803h-.313l-.234.078z" class="D E"/><path d="M17.116 28.147h.078l.234-.47z" fill="#aab7ce" stroke="#aab7ce"/><path d="M25.788 28.147l-.313-.47.234.47z" fill="#7c8088" stroke="#7c8088"/><path d="M20.866 36.04l.625.078v-.156z" fill="#737c8d" stroke="#737c8d"/><path d="M22.038 36.04l-.547-.078v.156z" class="h i"/><path d="M19.928 26.038l.39-.156z" fill="#abb4c6" stroke="#abb4c6"/><path d="M22.585 25.88l.39.156-.39-.156z" class="Ab Ac"/><path d="M21.335 25.725l-.39.078v.078z" fill="#a8b1c1" stroke="#a8b1c1"/><path d="M21.96 25.803l-.39-.078.39.156z" stroke="#a6aebd" class="f"/><path d="M17.662 34.476l.547.547-.078-.313z" class="p q"/><path d="M25.24 34.476l-.47.234-.078.313z" fill="#52555c" stroke="#52555c"/><path d="M16.334 30.023l.078.156.078-.625z" fill="#a6b4d0" stroke="#a6b4d0"/><path d="M26.57 30.023l-.156-.47.078.625z" fill="#6e747f" stroke="#6e747f"/><path d="M16.334 31.663l.078.547.078-.47z" fill="#98a8c5" stroke="#98a8c5"/><path d="M26.57 31.663l-.156.078.078.47z" fill="#656e7e" stroke="#656e7e"/><path d="M23.913 26.428l-.39-.234h-.078z" class="AZ Aa"/><path d="M19.38 26.194l-.39.234.47-.234z" fill="#abb5c8" stroke="#abb5c8"/><path d="M20.32 35.96l.547.078v-.156z" fill="#798396" stroke="#798396"/><path d="M22.585 35.96l-.547-.078v.156z" fill="#69707f" stroke="#69707f"/><path d="M16.57 32.288v.47l.156.078z" fill="#95a4c1" stroke="#95a4c1"/><path d="M26.335 32.288l-.156.547.156-.078z" fill="#606776" stroke="#606776"/><path d="M17.428 27.68l.078.078.234-.39z" fill="#afbcd3" stroke="#afbcd3"/><path d="M25.476 27.68l-.313-.313.234.39z" fill="#80848c" stroke="#80848c"/><path d="M23.444 26.194l-.47-.234v.078z" fill="#9ca3b0" stroke="#9ca3b0"/><path d="M19.46 26.194l.47-.156v-.078z" fill="#abb5c7" stroke="#abb5c7"/><path d="M16.88 28.616l.313-.47h-.078z" fill="#a9b6ce" stroke="#a9b6ce"/><path d="M26.023 28.616l-.234-.47H25.7z" fill="#777b82" stroke="#777b82"/><path d="M16.334 30.648l.078-.47-.078-.156z" fill="#9fadc8" stroke="#9fadc8"/><path d="M26.57 30.648v-.625l-.078.156z" fill="#656972" stroke="#656972"/><path d="M18.13 34.7l.078.313.47.156z" fill="#8f9db8" stroke="#8f9db8"/><path d="M24.773 34.7l-.547.47.47-.156z" fill="#52555c" stroke="#52555c"/><path d="M17.194 33.85l.47.625-.078-.39z" fill="#94a3bf" stroke="#94a3bf"/><path d="M25.7 33.85l-.39.234-.078.39z" fill="#575d67" stroke="#575d67"/><path d="M19.85 35.804l.47.156v-.156z" fill="#7f8aa0" stroke="#7f8aa0"/><path d="M23.054 35.804h-.47v.156z" class="AF AG"/><path d="M16.334 31.195v.47l.078-.39z" fill="#a1b1d0" stroke="#a1b1d0"/><path d="M26.57 31.195l-.078.078.078.39z" fill="#727d92" stroke="#727d92"/><path d="M22.507 25.88l-.547-.078v.078z" fill="#a3abb9" stroke="#a3abb9"/><path d="M20.397 25.88h.547v-.078z" class="D E"/><path d="M20.32 25.88l-.39.156.47-.156z" fill="#abb5c6" stroke="#abb5c6"/><path d="M22.976 26.038l-.39-.156h-.078z" class="Ab Ac"/><path d="M16.5 29.554l.078.078.078-.625z" fill="#adbcd8" stroke="#adbcd8"/><path d="M26.413 29.554l-.156-.547.078.625z" fill="#787f8c" stroke="#787f8c"/><path d="M21.335 25.725l-.39.156.547-.078z" fill="#a8b1c1" stroke="#a8b1c1"/><path d="M21.96 25.88l-.39-.156-.078.078z" stroke="#a6aebd" class="f"/><path d="M16.5 31.74l-.078.47.156.078z" fill="#99a9c7" stroke="#99a9c7"/><path d="M26.413 31.74l-.078.547.156-.078z" fill="#687283" stroke="#687283"/><path d="M20.866 35.882v.156l.625-.078z" fill="#747e8f" stroke="#747e8f"/><path d="M22.038 35.882l-.547.078.547.078z" class="h i"/><path d="M17.74 27.366l.313-.156.078-.234z" fill="#b3bfd6" stroke="#b3bfd6"/><path d="M25.163 27.366l-.39-.39.078.234z" fill="#858992" stroke="#858992"/><path d="M19.303 35.57l.547.234v-.156z" class="AV AW"/><path d="M23.6 35.57l-.547.078v.156z" fill="#5e636e" stroke="#5e636e"/><path d="M17.194 28.147l.313-.39-.078-.078z" fill="#afbcd4" stroke="#afbcd4"/><path d="M25.7 28.147l-.234-.47-.078.078z" fill="#7b7f86" stroke="#7b7f86"/><path d="M16.96 33.382l.234.47v-.39z" fill="#9babca" stroke="#9babca"/><path d="M25.945 33.382l-.234.078v.39z" fill="#656f80" stroke="#656f80"/><path d="M16.412 30.18l.156-.547-.078-.078z" fill="#a9b9d5" stroke="#a9b9d5"/><path d="M26.49 30.18l-.078-.625-.078.078z" fill="#757c8a" stroke="#757c8a"/><path d="M16.334 31.195l.078.078-.078-.625z" fill="#aabbda" stroke="#aabbda"/><path d="M26.57 31.195v-.547l-.078.625z" fill="#7d889c" stroke="#7d889c"/><path d="M17.584 34.085l.078.39.47.234z" fill="#97a7c4" stroke="#97a7c4"/><path d="M25.32 34.085l-.547.625.47-.234z" fill="#595e69" stroke="#595e69"/><path d="M20.32 35.804v.156l.547-.078z" fill="#7b8599" stroke="#7b8599"/><path d="M22.585 35.804l-.547.078.547.078z" fill="#68707e" stroke="#68707e"/><path d="M18.13 26.975l.313-.078.078-.234z" fill="#b5c1d8" stroke="#b5c1d8"/><path d="M24.773 26.975l-.39-.313.078.234z" fill="#8a8f97" stroke="#8a8f97"/><path d="M16.412 31.273l-.078.39.156.078z" fill="#a2b2d1" stroke="#a2b2d1"/><path d="M26.49 31.273l-.078.47.156-.078z" fill="#737e93" stroke="#737e93"/><path d="M16.647 29.007l.156.078.078-.47z" fill="#b5c5e1" stroke="#b5c5e1"/><path d="M26.257 29.007l-.234-.39.078.47z" fill="#828a9a" stroke="#828a9a"/><path d="M17.506 27.757l.547-.547-.313.156z" fill="#b7c4dd" stroke="#b7c4dd"/><path d="M25.398 27.757l-.234-.39-.313-.156z" fill="#7f8389" stroke="#7f8389"/><path d="M19.85 35.648v.156h.47z" fill="#818da4" stroke="#818da4"/><path d="M23.054 35.648l-.47.156h.47z" class="AP AQ"/><path d="M18.522 26.663l.39-.078.078-.156z" fill="#b6c2d8" stroke="#b6c2d8"/><path d="M24.382 26.663l-.47-.234.078.156z" fill="#8f949d" stroke="#8f949d"/><path d="M16.725 32.835l.234.547v-.39z" fill="#a0b0ce" stroke="#a0b0ce"/><path d="M26.18 32.835l-.234.156v.39z" fill="#6e7a8e" stroke="#6e7a8e"/><path d="M18.678 35.18l.625.39-.078-.313z" fill="#8d9bb6" stroke="#8d9bb6"/><path d="M24.226 35.18l-.547.078-.078.313z" fill="#575c64" stroke="#575c64"/><path d="M17.194 33.46v.39l.39.234z" fill="#9daecd" stroke="#9daecd"/><path d="M25.7 33.46l-.39.625.39-.234z" fill="#677183" stroke="#677183"/><path d="M16.334 30.648l.156.078-.078-.547z" fill="#b3c3e1" stroke="#b3c3e1"/><path d="M26.57 30.648l-.078-.47-.078.547z" fill="#8793a7" stroke="#8793a7"/><path d="M18.99 26.428l.39-.078.078-.156z" fill="#b6c2d7" stroke="#b6c2d7"/><path d="M23.913 26.428l-.47-.234.078.156z" fill="#959aa4" stroke="#959aa4"/><path d="M16.57 29.632l.234-.547-.156-.078z" fill="#b2c2df" stroke="#b2c2df"/><path d="M26.335 29.632l-.078-.625-.156.078z" fill="#818a9b" stroke="#818a9b"/><path d="M18.053 27.2l.39-.313-.313.078z" fill="#b7c4db" stroke="#b7c4db"/><path d="M24.85 27.2l-.078-.234-.313-.078z" fill="#888c94" stroke="#888c94"/><path d="M26.023 28.616l-.313-.47.156.47z" fill="#8891a0" stroke="#8891a0"/><path d="M16.88 28.616h.156l.156-.47z" fill="#bbcae7" stroke="#bbcae7"/><path d="M19.46 26.194h.47v-.156z" fill="#b6c1d5" stroke="#b6c1d5"/><path d="M23.444 26.194l-.47-.156v.156z" fill="#9aa0ab" stroke="#9aa0ab"/><path d="M19.225 35.257l.078.313.547.078z" fill="#8b99b3" stroke="#8b99b3"/><path d="M23.68 35.257l-.625.39.547-.078z" fill="#5b606a" stroke="#5b606a"/><path d="M16.412 31.273l.078-.547-.156-.078z" fill="#abbcdb" stroke="#abbcdb"/><path d="M26.49 31.273l.078-.625-.156.078z" fill="#7f8a9e" stroke="#7f8a9e"/><path d="M16.57 32.288l.156.547.078-.39z" fill="#a4b4d0" stroke="#a4b4d0"/><path d="M26.335 32.288l-.234.156.078.39z" fill="#758094" stroke="#758094"/><path d="M16.96 32.992v.39l.234.078z" class="Ad Ae"/><path d="M25.945 32.992l-.234.47.234-.078z" fill="#6f7a8e" stroke="#6f7a8e"/><path d="M19.928 26.038h.47v-.156z" fill="#b4bed1" stroke="#b4bed1"/><path d="M22.976 26.038l-.47-.156v.156z" fill="#9fa6b2" stroke="#9fa6b2"/><path d="M20.866 35.882l.625.078v-.156z" fill="#778295" stroke="#778295"/><path d="M22.038 35.882l-.547-.078v.156z" fill="#717b8b" stroke="#717b8b"/><path d="M18.444 26.897l.47-.313-.39.078z" fill="#b8c5db" stroke="#b8c5db"/><path d="M24.46 26.897l-.078-.234-.39-.078z" fill="#8d929b" stroke="#8d929b"/><path d="M20.397 25.88l.547.078v-.078z" fill="#b1bbcc" stroke="#b1bbcc"/><path d="M22.507 25.88h-.547v.078z" fill="#a4acb9" stroke="#a4acb9"/><path d="M20.944 25.88l.547.078v-.156z" fill="#adb6c7" stroke="#adb6c7"/><path d="M21.96 25.88l-.47-.078v.156z" fill="#a9b1c0" stroke="#a9b1c0"/><path d="M18.13 34.7l.547.47-.078-.39z" fill="#98a7c5" stroke="#98a7c5"/><path d="M24.773 34.7l-.47.078-.078.39z" fill="#505358" stroke="#505358"/><path d="M16.803 29.085l.234-.47h-.156z" fill="#bac9e7" stroke="#bac9e7"/><path d="M26.1 29.085l-.078-.47h-.156z" fill="#8993a5" stroke="#8993a5"/><path d="M17.194 28.147l.156.078.156-.47z" fill="#bfcfeb" stroke="#bfcfeb"/><path d="M25.7 28.147l-.313-.39.156.47z" fill="#8c94a3" stroke="#8c94a3"/><path d="M16.412 30.18h.156v-.547z" fill="#bbcbe8" stroke="#bbcbe8"/><path d="M26.49 30.18l-.156-.547v.547z" fill="#919db0" stroke="#919db0"/><path d="M16.5 31.74l.078.547.078-.39z" fill="#adbcd7" stroke="#adbcd7"/><path d="M26.413 31.74l-.156.156.078.39z" fill="#7f8b9e" stroke="#7f8b9e"/><path d="M18.913 26.585l.47-.234-.39.078z" fill="#b8c4da" stroke="#b8c4da"/><path d="M23.99 26.585l-.078-.156-.39-.078z" fill="#9398a2" stroke="#9398a2"/><path d="M20.32 35.804l.547.078v-.156z" fill="#7f8ba1" stroke="#7f8ba1"/><path d="M22.585 35.804l-.547-.078v.156z" class="n o"/><path d="M16.803 32.445l-.078.39.234.156z" fill="#a5b5d1" stroke="#a5b5d1"/><path d="M26.1 32.445l-.156.547.234-.156z" fill="#758195" stroke="#758195"/><path d="M19.38 26.35l.547-.156h-.47z" fill="#b7c2d7" stroke="#b7c2d7"/><path d="M23.522 26.35l-.078-.156h-.47z" fill="#999fa9" stroke="#999fa9"/><path d="M16.5 30.726l.078-.547h-.156z" fill="#b6c6e3" stroke="#b6c6e3"/><path d="M26.413 30.726l.078-.547h-.156z" fill="#8c98ab" stroke="#8c98ab"/><path d="M19.928 26.194l.47-.156h-.47z" fill="#b4bfd2" stroke="#b4bfd2"/><path d="M22.976 26.194v-.156h-.47z" fill="#9fa6b2" stroke="#9fa6b2"/><path d="M16.412 31.273l.078.47.078-.39z" fill="#b5c4de" stroke="#b5c4de"/><path d="M26.49 31.273l-.156.078.078.39z" fill="#8895a8" stroke="#8895a8"/><path d="M19.85 35.648l.47.156v-.234z" fill="#8895ad" stroke="#8895ad"/><path d="M23.054 35.648l-.47-.078v.234z" fill="#656b78" stroke="#656b78"/><path d="M17.037 28.616l.313-.39-.156-.078z" fill="#bfcfec" stroke="#bfcfec"/><path d="M25.866 28.616l-.156-.47-.156.078z" fill="#8f99ab" stroke="#8f99ab"/><path d="M18.6 34.79l.078.39.547.078z" fill="#96a6c3" stroke="#96a6c3"/><path d="M24.304 34.79l-.625.47.547-.078z" fill="#54585f" stroke="#54585f"/><path d="M20.397 26.038l.547-.078-.547-.078z" fill="#b1bbcd" stroke="#b1bbcd"/><path d="M22.507 26.038v-.156l-.547.078z" fill="#a4acb9" stroke="#a4acb9"/><path d="M17.584 34.085l.547.625-.078-.47z" class="Ad Ae"/><path d="M25.32 34.085l-.47.156-.078.47z" fill="#5e6673" stroke="#5e6673"/><path d="M20.944 25.96h.547l-.547-.078z" fill="#aeb6c7" stroke="#aeb6c7"/><path d="M21.96 25.96v-.078l-.47.078z" fill="#a9b1c0" stroke="#a9b1c0"/><path d="M17.506 27.757l.313-.156.234-.39z" fill="#c0cfea" stroke="#c0cfea"/><path d="M25.398 27.757l-.547-.547.234.39z" fill="#888d97" stroke="#888d97"/><path d="M20.866 35.726v.156l.625-.078z" fill="#7a8498" stroke="#7a8498"/><path d="M22.038 35.726l-.547.078.547.078z" fill="#717a8b" stroke="#717a8b"/><path d="M16.647 31.898l-.078.39.234.156z" fill="#aebdd7" stroke="#aebdd7"/><path d="M26.257 31.898l-.156.547.234-.156z" fill="#808c9f" stroke="#808c9f"/><path d="M16.57 29.632h.156l.078-.547z" fill="#c4d3f0" stroke="#c4d3f0"/><path d="M26.335 29.632l-.234-.547.078.547z" fill="#9aa6b9" stroke="#9aa6b9"/><path d="M16.412 31.273l.156.078-.078-.625z" fill="#becce5" stroke="#becce5"/><path d="M26.49 31.273l-.078-.547-.078.625z" fill="#919eb1" stroke="#919eb1"/><path d="M17.194 33.46l.39.625v-.47z" fill="#a8b7d2" stroke="#a8b7d2"/><path d="M25.7 33.46l-.39.156v.47z" fill="#6d788c" stroke="#6d788c"/><path d="M20.32 35.57v.234l.547-.078z" fill="#828ea5" stroke="#828ea5"/><path d="M22.585 35.57l-.547.156.547.078z" class="n o"/><path d="M16.57 31.35l-.078.39.156.156z" fill="#b6c5de" stroke="#b6c5de"/><path d="M26.335 31.35l-.078.547.156-.156z" fill="#8995a8" stroke="#8995a8"/><path d="M17.35 28.225l.47-.625-.313.156z" fill="#c7d7f5" stroke="#c7d7f5"/><path d="M25.554 28.225l-.156-.47-.313-.156z" fill="#97a2b5" stroke="#97a2b5"/><path d="M18.053 27.2l.39-.078v-.234z" fill="#c5d3ee" stroke="#c5d3ee"/><path d="M24.85 27.2l-.39-.313v.234z" fill="#8a8f97" stroke="#8a8f97"/><path d="M16.57 30.18l.156-.547h-.156z" fill="#c0d0eb" stroke="#c0d0eb"/><path d="M26.335 30.18v-.547h-.156z" fill="#96a2b6" stroke="#96a2b6"/><path d="M18.053 34.242l.078.47.47.078z" class="Ad Ae"/><path d="M24.85 34.242l-.547.547.47-.078z" fill="#555962" stroke="#555962"/><path d="M16.96 32.992l.234.47v-.39z" fill="#adbbd4" stroke="#adbbd4"/><path d="M25.945 32.992l-.234.078v.39z" fill="#737f93" stroke="#737f93"/><path d="M19.225 35.257l.625.39-.078-.39z" fill="#91a0bc" stroke="#91a0bc"/><path d="M23.68 35.257h-.547l-.078.39z" fill="#5f6570" stroke="#5f6570"/><path d="M16.803 29.085l.156.078.078-.547z" fill="#cadaf6" stroke="#cadaf6"/><path d="M26.1 29.085l-.234-.47.078.547z" fill="#9facbf" stroke="#9facbf"/><path d="M18.444 26.897l.39-.078.078-.234z" fill="#c5d3ec" stroke="#c5d3ec"/><path d="M24.46 26.897l-.47-.313.078.234z" fill="#888c92" stroke="#888c92"/><path d="M19.772 35.257l.078.39.47-.078z" fill="#8e9db7" stroke="#8e9db7"/><path d="M23.132 35.257l-.547.313.47.078z" fill="#646b77" stroke="#646b77"/><path d="M16.5 30.726l.156.078-.078-.625z" fill="#c7d5ec" stroke="#c7d5ec"/><path d="M26.413 30.726l-.078-.547-.078.625z" fill="#9aa7b9" stroke="#9aa7b9"/><path d="M18.913 26.585h.39l.078-.234z" fill="#c3d0e9" stroke="#c3d0e9"/><path d="M23.99 26.585l-.47-.234.078.234z" fill="#90949b" stroke="#90949b"/><path d="M17.82 27.6l.625-.47-.39.078z" fill="#cad9f6" stroke="#cad9f6"/><path d="M25.085 27.6l-.234-.39-.39-.078z" fill="#959cab" stroke="#959cab"/><path d="M17.584 33.617v.47l.47.156z" fill="#aab9d3" stroke="#aab9d3"/><path d="M25.32 33.617l-.47.625.47-.156z" fill="#646d7e" stroke="#646d7e"/><path d="M16.725 29.632l.234-.47-.156-.078z" fill="#c8d7f2" stroke="#c8d7f2"/><path d="M26.18 29.632l-.078-.547-.156.078z" fill="#9eaabd" stroke="#9eaabd"/><path d="M16.803 32.445l.156.547.078-.47z" fill="#b6c3d9" stroke="#b6c3d9"/><path d="M26.1 32.445l-.234.078.078.47z" fill="#7c889b" stroke="#7c889b"/><path d="M19.38 26.35h.47l.078-.156z" fill="#c0cce3" stroke="#c0cce3"/><path d="M23.522 26.35l-.547-.156.078.156z" fill="#979ca6" stroke="#979ca6"/><path d="M16.57 31.35l.078-.547-.156-.078z" fill="#c1cfe7" stroke="#c1cfe7"/><path d="M26.335 31.35l.078-.625-.156.078z" fill="#94a1b3" stroke="#94a1b3"/><path d="M17.037 28.616l.156.078.156-.47z" fill="#cfdffb" stroke="#cfdffb"/><path d="M25.866 28.616l-.313-.39.156.47z" class="Af Ag"/><path d="M19.928 26.194h.47v-.156z" fill="#bcc8dc" stroke="#bcc8dc"/><path d="M22.976 26.194l-.47-.156v.156z" fill="#9fa5b0" stroke="#9fa5b0"/><path d="M20.866 35.726l.625.078v-.234z" fill="#7f8aa0" stroke="#7f8aa0"/><path d="M22.038 35.726l-.547-.156v.234z" fill="#788295" stroke="#788295"/><path d="M17.194 33.07v.39l.39.156z" fill="#afbdd5" stroke="#afbdd5"/><path d="M25.7 33.07l-.39.547.39-.156z" fill="#6f7b8f" stroke="#6f7b8f"/><path d="M20.397 26.038l.547.078v-.156z" fill="#b8c2d5" stroke="#b8c2d5"/><path d="M22.507 26.038l-.547-.078v.156z" fill="#a6adba" stroke="#a6adba"/><path d="M20.944 25.96l.547.156v-.156z" fill="#b2bbcc" stroke="#b2bbcc"/><path d="M21.96 25.96h-.47v.156z" fill="#acb4c3" stroke="#acb4c3"/><path d="M18.444 27.132l.39-.313-.39.078z" fill="#c7d5f0" stroke="#c7d5f0"/><path d="M24.46 27.132v-.234l-.39-.078z" fill="#8a8d94" stroke="#8a8d94"/><path d="M16.647 31.898l.156.547.078-.47z" fill="#bfcce1" stroke="#bfcce1"/><path d="M26.257 31.898l-.234.078.078.47z" fill="#8591a4" stroke="#8591a4"/><path d="M17.037 32.523l-.078.47.234.078z" fill="#b7c4da" stroke="#b7c4da"/><path d="M25.866 32.523l-.156.547.234-.078z" fill="#798599" stroke="#798599"/><path d="M18.834 26.82l.47-.234h-.39z" fill="#c5d3ec" stroke="#c5d3ec"/><path d="M24.07 26.82l-.078-.234h-.39z" fill="#8e9198" stroke="#8e9198"/><path d="M16.96 29.163l.234-.47-.156-.078z" fill="#ceddf8" stroke="#ceddf8"/><path d="M25.945 29.163l-.078-.547-.156.078z" class="Af Ag"/><path d="M24.304 34.79l-.625.078v.39z" fill="#595d66" stroke="#595d66"/><path d="M18.6 34.79l.625.47v-.39z" fill="#9fb0ce" stroke="#9fb0ce"/><path d="M20.32 35.57l.547.156v-.234z" fill="#8996ae" stroke="#8996ae"/><path d="M22.585 35.57l-.547-.078v.234z" fill="#717a8b" stroke="#717a8b"/><path d="M16.57 30.18l.234.078-.078-.625z" fill="#d1def4" stroke="#d1def4"/><path d="M26.335 30.18l-.156-.547-.078.625z" fill="#a2aec1" stroke="#a2aec1"/><path d="M19.303 26.585l.547-.234h-.47z" fill="#c3cfe6" stroke="#c3cfe6"/><path d="M23.6 26.585l-.078-.234h-.47z" fill="#969aa3" stroke="#969aa3"/><path d="M16.57 31.35l.078.547.156-.47z" fill="#c7d4e8" stroke="#c7d4e8"/><path d="M26.335 31.35l-.234.078.156.47z" fill="#8e9aad" stroke="#8e9aad"/><path d="M25.554 28.225l-.47-.625.156.547z" class="Af Ag"/><path d="M17.35 28.225l.313-.078.156-.547z" fill="#d1e1ff" stroke="#d1e1ff"/><path d="M19.85 26.35l.547-.156h-.47z" fill="#bec9df" stroke="#bec9df"/><path d="M23.054 26.35l-.078-.156h-.47z" fill="#9ea4ae" stroke="#9ea4ae"/><path d="M16.647 30.804l.156-.547-.234-.078z" fill="#ccd9ef" stroke="#ccd9ef"/><path d="M26.257 30.804l.078-.625-.234.078z" fill="#9daabc" stroke="#9daabc"/><path d="M20.397 26.194l.547-.078-.547-.078z" fill="#b8c3d5" stroke="#b8c3d5"/><path d="M22.507 26.194v-.156l-.547.078z" fill="#a6acb9" stroke="#a6acb9"/><path d="M20.944 26.116h.547l-.547-.156z" fill="#b3bccd" stroke="#b3bccd"/><path d="M21.96 26.116v-.156l-.47.156z" fill="#acb4c3" stroke="#acb4c3"/><path d="M16.88 31.976l-.078.47.234.078z" fill="#c1cee1" stroke="#c1cee1"/><path d="M26.023 31.976l-.156.547.234-.078z" fill="#838fa2" stroke="#838fa2"/><path d="M19.225 34.867v.39h.547z" fill="#9daecd" stroke="#9daecd"/><path d="M23.68 34.867l-.547.39h.547z" fill="#5f656f" stroke="#5f656f"/><path d="M20.866 35.492v.234l.625-.156z" fill="#828ea4" stroke="#828ea4"/><path d="M22.038 35.492l-.547.078.547.156z" fill="#788396" stroke="#788396"/><path d="M17.194 28.694l.47-.547-.313.078z" fill="#d6e5ff" stroke="#d6e5ff"/><path d="M25.7 28.694l-.156-.47-.313-.078z" fill="#a9b5c8" stroke="#a9b5c8"/><path d="M16.57 31.35l.234.078-.156-.625z" fill="#d0dcee" stroke="#d0dcee"/><path d="M26.335 31.35l-.078-.547-.156.625z" fill="#94a1b3" stroke="#94a1b3"/><path d="M18.053 34.242l.547.547v-.39z" fill="#abbad3" stroke="#abbad3"/><path d="M24.85 34.242l-.547.156v.39z" fill="#52565c" stroke="#52565c"/><path d="M16.725 29.632l.234.156v-.625z" fill="#d8e5fb" stroke="#d8e5fb"/><path d="M26.18 29.632l-.234-.47v.625z" fill="#a7b4c6" stroke="#a7b4c6"/><path d="M16.803 31.43l-.156.47.234.078z" fill="#c9d6e8" stroke="#c9d6e8"/><path d="M26.1 31.43l-.078.547.234-.078z" fill="#8c98ab" stroke="#8c98ab"/><path d="M25.085 27.6l-.625-.47.234.39z" fill="#a1acc0" stroke="#a1acc0"/><path d="M17.82 27.6l.39-.078.234-.39z" class="r s"/><path d="M19.772 35.257l.547.313v-.39z" fill="#94a4c0" stroke="#94a4c0"/><path d="M23.132 35.257l-.547-.078v.39z" class="AT AU"/><path d="M16.803 30.257l.156-.47-.234-.156z" fill="#d5e2f7" stroke="#d5e2f7"/><path d="M26.1 30.257l.078-.625-.234.156z" fill="#a3b0c2" stroke="#a3b0c2"/><path d="M20.32 35.18v.39l.547-.078z" fill="#909fba" stroke="#909fba"/><path d="M22.585 35.18l-.547.313.547.078z" fill="#727b8c" stroke="#727b8c"/><path d="M25.32 33.617l-.547.156.078.47z" fill="#545961" stroke="#545961"/><path d="M17.584 33.617l.47.625.078-.47z" fill="#b5c2d7" stroke="#b5c2d7"/><path d="M24.46 27.132l-.39-.313v.234z" fill="#99a0ae" stroke="#99a0ae"/><path d="M18.444 27.132l.39-.078v-.234z" class="r s"/><path d="M18.6 34.398v.39l.625.078z" fill="#aab8d2" stroke="#aab8d2"/><path d="M24.304 34.398l-.625.47.625-.078z" fill="#5a5e68" stroke="#5a5e68"/><path d="M16.96 29.163l.234.078v-.547z" fill="#ddeaff" stroke="#ddeaff"/><path d="M25.945 29.163l-.234-.47v.547z" fill="#aab7c9" stroke="#aab7c9"/><path d="M17.194 33.07l.39.547.078-.39z" fill="#bdc9dc" stroke="#bdc9dc"/><path d="M25.7 33.07l-.47.156.078.39z" fill="#646d7c" stroke="#646d7c"/><path d="M17.662 28.147l.547-.625-.39.078z" fill="#d9e9ff" stroke="#d9e9ff"/><path d="M25.24 28.147l-.156-.547-.39-.078z" fill="#a8b4c7" stroke="#a8b4c7"/><path d="M17.037 32.523l.156.547.156-.47z" fill="#c5d1e2" stroke="#c5d1e2"/><path d="M25.866 32.523l-.313.078.156.47z" fill="#727c90" stroke="#727c90"/><path d="M16.647 30.804l.234.078-.078-.625z" fill="#dbe6f7" stroke="#dbe6f7"/><path d="M26.257 30.804l-.156-.547-.078.625z" fill="#98a5b8" stroke="#98a5b8"/><path d="M18.834 26.82h.47v-.234z" fill="#d0dffb" stroke="#d0dffb"/><path d="M24.07 26.82l-.47-.234v.234z" fill="#8e9298" stroke="#8e9298"/><path d="M16.803 31.43l.078-.547-.234-.078z" fill="#d4e0f1" stroke="#d4e0f1"/><path d="M26.1 31.43l.156-.625-.234.078z" fill="#93a0b3" stroke="#93a0b3"/><path d="M16.96 29.788l.234-.547-.234-.078z" fill="#dbe8fd" stroke="#dbe8fd"/><path d="M25.945 29.788v-.625l-.234.078z" fill="#a7b4c7" stroke="#a7b4c7"/><path d="M19.303 26.585l.547.078v-.313z" fill="#ccd9f3" stroke="#ccd9f3"/><path d="M23.6 26.585l-.547-.234v.313z" fill="#969aa1" stroke="#969aa1"/><path d="M20.866 35.492l.625.078v-.313z" fill="#8996af" stroke="#8996af"/><path d="M22.038 35.492l-.547-.234v.313z" fill="#818da3" stroke="#818da3"/><path d="M20.397 26.194l.547.156v-.234z" fill="#bfcade" stroke="#bfcade"/><path d="M22.507 26.194l-.547-.078v.234z" fill="#a8afbb" stroke="#a8afbb"/><path d="M20.944 26.116l.547.156v-.156z" fill="#b8c1d3" stroke="#b8c1d3"/><path d="M21.96 26.116h-.47v.156z" fill="#b0b8c7" stroke="#b0b8c7"/><path d="M19.85 26.35l.547.078v-.234z" fill="#c5d2e8" stroke="#c5d2e8"/><path d="M23.054 26.35l-.547-.156v.234z" fill="#9fa5af" stroke="#9fa5af"/><path d="M18.21 27.522l.625-.47-.39.078z" fill="#d8e9ff" stroke="#d8e9ff"/><path d="M24.694 27.522l-.234-.39-.39-.078z" fill="#a1abbc" stroke="#a1abbc"/><path d="M16.88 31.976l.156.547.156-.47z" fill="#d0dbea" stroke="#d0dbea"/><path d="M26.023 31.976l-.313.078.156.47z" fill="#7a8599" stroke="#7a8599"/><path d="M18.13 33.773l-.078.47.547.156z" fill="#b5c2d7" stroke="#b5c2d7"/><path d="M24.773 33.773l-.47.625.547-.156z" fill="#545860" stroke="#545860"/><path d="M19.225 34.867l.547.39v-.47z" fill="#a4b3d0" stroke="#a4b3d0"/><path d="M23.68 34.867l-.547-.078v.47z" class="AD AE"/><path d="M17.35 32.6l-.156.47.47.156z" fill="#c7d2e3" stroke="#c7d2e3"/><path d="M25.554 32.6l-.313.625.47-.156z" fill="#646b78" stroke="#646b78"/><path d="M18.834 27.053l.47-.234h-.47z" fill="#d3e2ff" stroke="#d3e2ff"/><path d="M24.07 27.053v-.234h-.47z" fill="#92979f" stroke="#92979f"/><path d="M17.194 28.694l.39-.078.078-.47z" fill="#e0eeff" stroke="#e0eeff"/><path d="M25.7 28.694l-.47-.547.078.47z" fill="#acb8cb" stroke="#acb8cb"/><path d="M16.803 31.43l.078.547.234-.47z" fill="#d8e3f1" stroke="#d8e3f1"/><path d="M26.1 31.43l-.313.078.234.47z" fill="#818da1" stroke="#818da1"/><path d="M17.662 33.226l-.078.39.547.156z" fill="#becadc" stroke="#becadc"/><path d="M25.24 33.226l-.47.547.547-.156z" fill="#505359" stroke="#505359"/><path d="M16.803 30.257l.234.078-.078-.547z" fill="#e3eefe" stroke="#e3eefe"/><path d="M26.1 30.257l-.156-.47-.078.547z" fill="#9ca8bb" stroke="#9ca8bb"/><path d="M19.303 26.82l.547-.156-.547-.078z" fill="#cedcf6" stroke="#cedcf6"/><path d="M23.6 26.82v-.234l-.547.078z" fill="#94989f" stroke="#94989f"/><path d="M17.194 32.054l-.156.47.313.078z" fill="#d1dcea" stroke="#d1dcea"/><path d="M25.7 32.054l-.156.547.313-.078z" fill="#747d8f" stroke="#747d8f"/><path d="M19.772 34.79v.47l.547-.078z" fill="#a0b1ce" stroke="#a0b1ce"/><path d="M23.132 34.79l-.547.39.547.078z" class="j k"/><path d="M17.194 29.24l.39-.625-.39.078z" fill="#e4f1ff" stroke="#e4f1ff"/><path d="M25.7 29.24v-.547l-.39-.078z" fill="#a9b6c9" stroke="#a9b6c9"/><path d="M16.88 30.882l.156-.547-.234-.078z" fill="#dfeafa" stroke="#dfeafa"/><path d="M26.023 30.882l.078-.625-.234.078z" fill="#97a3b6" stroke="#97a3b6"/><path d="M20.944 26.35l.547-.078-.547-.156z" fill="#b8c2d4" stroke="#b8c2d4"/><path d="M21.96 26.35v-.234l-.47.156z" fill="#b0b8c7" stroke="#b0b8c7"/><path d="M20.397 26.428l.547-.078-.547-.156z" fill="#c1cce0" stroke="#c1cce0"/><path d="M22.507 26.428v-.234l-.547.156z" fill="#a7aeba" stroke="#a7aeba"/><path d="M19.85 26.663l.547-.234-.547-.078z" fill="#c8d5ec" stroke="#c8d5ec"/><path d="M23.054 26.663v-.313l-.547.078z" fill="#9ea3ad" stroke="#9ea3ad"/><path d="M16.803 31.43l.313.078-.234-.625z" fill="#e0ebf8" stroke="#e0ebf8"/><path d="M26.1 31.43l-.078-.547-.234.625z" fill="#8591a5" stroke="#8591a5"/><path d="M17.116 31.507l-.234.47.313.078z" fill="#dae4f2" stroke="#dae4f2"/><path d="M25.788 31.507l-.078.547.313-.078z" fill="#7c879a" stroke="#7c879a"/><path d="M20.32 35.18l.547.313v-.47z" fill="#96a5c2" stroke="#96a5c2"/><path d="M22.585 35.18l-.547-.156v.47z" fill="#7e8a9f" stroke="#7e8a9f"/><path d="M20.866 35.023v.47l.625-.234z" fill="#91a0bc" stroke="#91a0bc"/><path d="M22.038 35.023l-.547.234.547.234z" fill="#8390a7" stroke="#8390a7"/><path d="M17.662 28.147l.47-.078.078-.547z" fill="#e2f1ff" stroke="#e2f1ff"/><path d="M25.24 28.147l-.547-.625.078.547z" fill="#aab5c9" stroke="#aab5c9"/><path d="M16.96 29.788l.234.078v-.625z" fill="#e9f4ff" stroke="#e9f4ff"/><path d="M25.945 29.788l-.234-.547v.625z" fill="#9fabbe" stroke="#9fabbe"/><path d="M18.6 34.398l.625.47v-.47z" fill="#b2c0d6" stroke="#b2c0d6"/><path d="M24.304 34.398h-.625v.47z" class="AH AI"/><path d="M25.866 30.335l.078-.547-.234.078z" fill="#9aa5b9" stroke="#9aa5b9"/><path d="M17.037 30.335l.156-.47-.234-.078z" fill="#e7f2ff" stroke="#e7f2ff"/><path d="M17.584 28.616l.547-.547-.47.078z" fill="#e8f6ff" stroke="#e8f6ff"/><path d="M25.32 28.616l-.078-.47-.47-.078z" fill="#a9b4c8" stroke="#a9b4c8"/><path d="M18.21 27.522l.47.078.156-.547z" class="Ah Ai"/><path d="M24.694 27.522l-.625-.47.156.547z" fill="#a2abbd" stroke="#a2abbd"/><path d="M19.225 34.398v.47l.547-.078z" fill="#afbdd5" stroke="#afbdd5"/><path d="M23.68 34.398l-.547.39.547.078z" class="AT AU"/><path d="M16.88 30.882l.313.078-.156-.625z" fill="#ebf5ff" stroke="#ebf5ff"/><path d="M26.023 30.882l-.156-.547-.156.625z" fill="#858e9f" stroke="#858e9f"/><path d="M17.116 31.507l.078-.547-.313-.078z" fill="#e5effa" stroke="#e5effa"/><path d="M25.788 31.507l.234-.625-.313.078z" fill="#808a9b" stroke="#808a9b"/><path d="M18.834 27.053l.47.078v-.313z" fill="#def" stroke="#def"/><path d="M24.07 27.053l-.47-.234v.313z" fill="#9398a0" stroke="#9398a0"/><path d="M18.13 33.773l.47.625.078-.547z" fill="#bfcbdc" stroke="#bfcbdc"/><path d="M24.773 33.773l-.547.078.078.547z" class="AN AO"/><path d="M17.194 32.054l.156.547.156-.47z" fill="#d4e6f3" stroke="#d4e6f3"/><path d="M25.7 32.054l-.313.078.156.47z" fill="#62656c" stroke="#62656c"/><path d="M20.944 26.35l.547.234v-.313z" fill="#bec8db" stroke="#bec8db"/><path d="M21.96 26.35l-.47-.078v.313z" fill="#b5bece" stroke="#b5bece"/><path d="M17.35 32.6l.313.625.156-.47z" fill="#d8e1ed" stroke="#d8e1ed"/><path d="M25.554 32.6l-.47.156.156.47z" fill="#62666e" stroke="#62666e"/><path d="M19.303 26.82l.547.078v-.234z" class="Aj Ak"/><path d="M23.6 26.82l-.547-.156v.234z" fill="#979ba2" stroke="#979ba2"/><path d="M17.662 33.226l.47.547.078-.47z" fill="#cfd9e6" stroke="#cfd9e6"/><path d="M25.24 33.226l-.547.078.078.47z" fill="#636973" stroke="#636973"/><path d="M18.13 28.07l.547-.47-.47-.078z" fill="#e8f6ff" stroke="#e8f6ff"/><path d="M24.773 28.07l-.078-.547-.47.078z" fill="#a4afc2" stroke="#a4afc2"/><path d="M20.397 26.428l.47.234.078-.313z" fill="#c7d3e9" stroke="#c7d3e9"/><path d="M22.507 26.428l-.547-.078.078.313z" fill="#acb3c0" stroke="#acb3c0"/><path d="M17.194 29.24l.39.078v-.703z" fill="#effaff" stroke="#effaff"/><path d="M25.7 29.24l-.39-.625v.703z" fill="#9fabbf" stroke="#9fabbf"/><path d="M19.85 26.663l.47.078.078-.313z" fill="#d0def7" stroke="#d0def7"/><path d="M23.054 26.663l-.547-.234.078.313z" fill="#a2a7b2" stroke="#a2a7b2"/><path d="M19.772 34.79l.547.39v-.47z" fill="#a7b6d1" stroke="#a7b6d1"/><path d="M23.132 34.79l-.547-.078v.47z" fill="#7d889d" stroke="#7d889d"/><path d="M17.194 29.866l.39-.547-.39-.078z" fill="#f1fbff" stroke="#f1fbff"/><path d="M25.7 29.866v-.625l-.39.078z" fill="#99a4b8" stroke="#99a4b8"/><path d="M20.866 35.023l.625.234v-.313z" fill="#95a4c1" stroke="#95a4c1"/><path d="M22.038 35.023l-.547-.078v.313z" class="p q"/><path d="M17.116 31.507l.078.547.234-.47z" fill="#d4e6f4" stroke="#d4e6f4"/><path d="M25.788 31.507l-.313.078.234.47z" fill="#676a70" stroke="#676a70"/><path d="M18.678 33.85l-.078.547h.625z" fill="#bdc9db" stroke="#bdc9db"/><path d="M24.226 33.85l-.547.547h.625z" fill="#6a7281" stroke="#6a7281"/><path d="M20.32 34.7v.47l.547-.156z" fill="#a3b3d0" stroke="#a3b3d0"/><path d="M22.585 34.7l-.547.313.547.156z" fill="#838fa6" stroke="#838fa6"/><path d="M18.678 27.6l.625-.47-.47-.078z" fill="#e3f3ff" stroke="#e3f3ff"/><path d="M24.226 27.6l-.156-.547-.47.078z" fill="#969ca6" stroke="#969ca6"/><path d="M17.037 30.335l.313.078-.156-.547z" fill="#eafcff" stroke="#eafcff"/><path d="M25.866 30.335l-.156-.47-.156.547z" fill="#848b99" stroke="#848b99"/><path d="M19.303 27.132l.547-.234-.547-.078z" fill="#daeaff" stroke="#daeaff"/><path d="M23.6 27.132v-.313l-.547.078z" fill="#969aa1" stroke="#969aa1"/><path d="M17.194 30.96l.156-.547-.313-.078z" fill="#e3f5ff" stroke="#e3f5ff"/><path d="M25.7 30.96l.156-.625-.313.078z" fill="#7e8592" stroke="#7e8592"/><path d="M17.506 32.132l-.156.47.47.156z" fill="#cfe0ee" stroke="#cfe0ee"/><path d="M25.398 32.132l-.313.625.47-.156z" fill="#686d76" stroke="#686d76"/><path d="M20.866 26.663l.625-.078-.547-.234z" fill="#c0cbde" stroke="#c0cbde"/><path d="M22.038 26.663l-.078-.313-.47.234z" fill="#b5bece" stroke="#b5bece"/><path d="M17.116 31.507l.313.078-.234-.625z" fill="#d5e6f4" stroke="#d5e6f4"/><path d="M25.788 31.507l-.078-.547-.234.625z" fill="#6e7278" stroke="#6e7278"/><path d="M17.428 31.585l-.234.47.313.078z" fill="#d1e3f1" stroke="#d1e3f1"/><path d="M25.476 31.585l-.078.547.313-.078z" fill="#6a6e76" stroke="#6a6e76"/><path d="M18.21 33.304l-.078.47.547.078z" fill="#cdd7e5" stroke="#cdd7e5"/><path d="M24.694 33.304l-.47.547.547-.078z" fill="#6b727f" stroke="#6b727f"/><path d="M19.85 26.897l.47-.156-.47-.078z" fill="#d3e1fc" stroke="#d3e1fc"/><path d="M23.054 26.897v-.234l-.47.078z" fill="#a1a6b0" stroke="#a1a6b0"/><path d="M20.32 26.74l.547-.078-.47-.234z" fill="#cad7ee" stroke="#cad7ee"/><path d="M22.585 26.74l-.078-.313-.47.234z" fill="#abb2bf" stroke="#abb2bf"/><path d="M17.82 32.757l-.156.47.547.078z" fill="#cee0ee" stroke="#cee0ee"/><path d="M25.085 32.757l-.39.547.547-.078z" fill="#6b717c" stroke="#6b717c"/><path d="M17.584 28.616l.47.078.078-.625z" fill="#f3ffff" stroke="#f3ffff"/><path d="M25.32 28.616l-.547-.547.078.625z" fill="#9ca6b7" stroke="#9ca6b7"/><path d="M19.225 34.398l.547.39.078-.47z" fill="#b7c4d8" stroke="#b7c4d8"/><path d="M23.68 34.398l-.625-.078.078.47z" class="AR AS"/><path d="M20.866 34.7v.313l.625-.078z" fill="#a1b1ce" stroke="#a1b1ce"/><path d="M22.038 34.7l-.547.234.547.078z" fill="#96a5c2" stroke="#96a5c2"/><path d="M17.584 29.32l.47-.625-.47-.078z" class="Al Am"/><path d="M25.32 29.32v-.703l-.47.078z" fill="#929aa8" stroke="#929aa8"/><path d="M19.85 34.32l-.078.47.547-.078z" fill="#b4c1d7" stroke="#b4c1d7"/><path d="M23.054 34.32l-.47.39.547.078z" fill="#828ea5" stroke="#828ea5"/><path d="M20.32 34.7l.547.313V34.7z" fill="#a7b6d1" stroke="#a7b6d1"/><path d="M22.585 34.7h-.547v.313z" class="p q"/><path d="M17.194 30.96l.313.078-.156-.625z" fill="#d6e7f5" stroke="#d6e7f5"/><path d="M25.7 30.96l-.156-.547-.156.625z" fill="#797e86" stroke="#797e86"/><path d="M18.13 28.07l.47.078.078-.547z" fill="#f1feff" stroke="#f1feff"/><path d="M24.773 28.07l-.547-.47.078.547z" fill="#949aa4" stroke="#949aa4"/><path d="M17.35 30.413l.313-.547h-.47z" class="An Ao"/><path d="M25.554 30.413l.156-.547h-.47z" fill="#797c82" stroke="#797c82"/><path d="M17.428 31.585l.078-.547-.313-.078z" fill="#d2e3f1" stroke="#d2e3f1"/><path d="M25.476 31.585l.234-.625-.313.078z" fill="#747880" stroke="#747880"/><path d="M17.194 29.866h.47l-.078-.547z" fill="#eff" stroke="#eff"/><path d="M25.7 29.866l-.39-.547-.078.547z" fill="#7c8086" stroke="#7c8086"/><path d="M18.678 33.85l.547.547.078-.547z" fill="#cad4e3" stroke="#cad4e3"/><path d="M24.226 33.85H23.6l.078.547z" fill="#7d889b" stroke="#7d889b"/><path d="M20.866 26.663l.625.234v-.313z" fill="#c6d1e7" stroke="#c6d1e7"/><path d="M22.038 26.663l-.547-.078v.313z" class="Ap Aq"/><path d="M18.678 27.6l.547.078.078-.547z" fill="#ebfaff" stroke="#ebfaff"/><path d="M24.226 27.6l-.625-.47.078.547z" fill="#93969d" stroke="#93969d"/><path d="M19.303 27.132l.547.156v-.39z" fill="#e3f4ff" stroke="#e3f4ff"/><path d="M23.6 27.132l-.547-.234v.39z" fill="#9da2ab" stroke="#9da2ab"/><path d="M17.428 31.585l.078.547.234-.47z" fill="#c6d7e6" stroke="#c6d7e6"/><path d="M25.476 31.585l-.313.078.234.47z" fill="#7c838f" stroke="#7c838f"/><path d="M20.32 26.74l.547.234v-.313z" fill="#d1dff8" stroke="#d1dff8"/><path d="M22.585 26.74l-.547-.078v.313z" fill="#b3bbca" stroke="#b3bbca"/><path d="M19.85 26.897l.47.156v-.313z" fill="#dbebff" stroke="#dbebff"/><path d="M23.054 26.897l-.47-.156v.313z" fill="#a8afba" stroke="#a8afba"/><path d="M20.866 34.7l.625.234v-.313z" fill="#a2b2cf" stroke="#a2b2cf"/><path d="M22.038 34.7l-.547-.078v.313z" fill="#9aabc9" stroke="#9aabc9"/><path d="M18.053 28.694l.547-.547-.47-.078z" class="t u"/><path d="M24.85 28.694l-.078-.625-.47.078z" fill="#8b8f96" stroke="#8b8f96"/><path d="M17.506 32.132l.313.625.234-.547z" fill="#c3d3e2" stroke="#c3d3e2"/><path d="M25.398 32.132l-.547.078.234.547z" fill="#7e8694" stroke="#7e8694"/><path d="M19.303 33.85l-.078.547.625-.078z" fill="#c7d2e1" stroke="#c7d2e1"/><path d="M23.6 33.85l-.547.47.625.078z" fill="#8591a7" stroke="#8591a7"/><path d="M18.21 33.304l.47.547.156-.547z" fill="#c9dbe9" stroke="#c9dbe9"/><path d="M24.694 33.304h-.625l.156.547z" fill="#818b9e" stroke="#818b9e"/><path d="M17.82 32.757l.39.547.234-.47z" fill="#c3d4e2" stroke="#c3d4e2"/><path d="M25.085 32.757l-.625.078.234.47z" fill="#818a9a" stroke="#818a9a"/><path d="M17.428 31.585l.313.078-.234-.625z" fill="#c7d7e6" stroke="#c7d7e6"/><path d="M25.476 31.585l-.078-.547-.234.625z" fill="#848b97" stroke="#848b97"/><path d="M20.32 34.32v.39h.547z" fill="#b5c3d8" stroke="#b5c3d8"/><path d="M22.585 34.32l-.547.39h.547z" fill="#99a9c6" stroke="#99a9c6"/><path d="M20.866 26.975l.625-.078-.625-.234z" fill="#c9d5eb" stroke="#c9d5eb"/><path d="M22.038 26.975v-.313l-.547.234z" class="Ap Aq"/><path d="M18.6 28.147l.625-.47-.547-.078z" fill="#f3ffff" stroke="#f3ffff"/><path d="M24.304 28.147l-.078-.547-.547.078z" fill="#93979e" stroke="#93979e"/><path d="M19.225 27.68l.625-.39-.547-.156z" fill="#eaf9ff" stroke="#eaf9ff"/><path d="M23.68 27.68l-.078-.547-.547.156z" fill="#9da2ab" stroke="#9da2ab"/><path d="M19.85 27.288l.47-.234-.47-.156z" fill="#dfefff" stroke="#dfefff"/><path d="M23.054 27.288v-.39l-.47.156z" fill="#a8aeba" stroke="#a8aeba"/><path d="M19.85 34.32l.47.39v-.39z" fill="#bac7db" stroke="#bac7db"/><path d="M23.054 34.32h-.47v.39z" fill="#8f9db7" stroke="#8f9db7"/><path d="M20.32 27.053l.547-.078-.547-.234z" fill="#d5e3fd" stroke="#d5e3fd"/><path d="M22.585 27.053v-.313l-.547.234z" fill="#b3bbca" stroke="#b3bbca"/><path d="M17.506 31.038l.313-.547-.47-.078z" fill="#d2e2f1" stroke="#d2e2f1"/><path d="M25.398 31.038l.156-.625-.47.078z" fill="#868c97" stroke="#868c97"/><path d="M17.74 31.663l-.234.47.547.078z" fill="#c1d1e1" stroke="#c1d1e1"/><path d="M25.163 31.663l-.313.547.547-.078z" fill="#848c9b" stroke="#848c9b"/><path d="M17.584 29.32l.547.078-.078-.703z" class="t u"/><path d="M25.32 29.32l-.47-.625-.078.703z" fill="#8a8e96" stroke="#8a8e96"/><path d="M18.834 33.304l-.156.547h.625z" fill="#ccdeec" stroke="#ccdeec"/><path d="M24.07 33.304l-.47.547h.625z" fill="#8994a9" stroke="#8994a9"/><path d="M17.35 30.413l.47.078-.156-.625z" fill="#d7e7f6" stroke="#d7e7f6"/><path d="M25.554 30.413l-.313-.547-.156.625z" fill="#888e99" stroke="#888e99"/><path d="M17.662 29.866l.47-.47-.547-.078z" fill="#ebfdff" stroke="#ebfdff"/><path d="M25.24 29.866l.078-.547-.547.078z" fill="#8b8f99" stroke="#8b8f99"/><path d="M18.053 32.2l-.234.547.625.078z" fill="#becede" stroke="#becede"/><path d="M24.85 32.2l-.39.625.625-.078z" fill="#8892a4" stroke="#8892a4"/><path d="M18.444 32.835l-.234.47h.625z" fill="#c2d3e2" stroke="#c2d3e2"/><path d="M24.46 32.835l-.39.47h.625z" fill="#8a94a8" stroke="#8a94a8"/><path d="M20.866 34.32v.39l.625-.078z" fill="#b2c0d8" stroke="#b2c0d8"/><path d="M22.038 34.32l-.547.313.547.078z" fill="#a8b7d4" stroke="#a8b7d4"/><path d="M20.32 34.32l.547.39v-.39z" fill="#b9c6db" stroke="#b9c6db"/><path d="M22.585 34.32h-.547v.39z" fill="#9fb0cf" stroke="#9fb0cf"/><path d="M19.303 33.85l.547.47v-.47z" fill="#cfd9e7" stroke="#cfd9e7"/><path d="M23.6 33.85h-.547v.47z" fill="#94a2bc" stroke="#94a2bc"/><path d="M19.85 33.85v.47h.47z" fill="#ccd6e5" stroke="#ccd6e5"/><path d="M23.054 33.85l-.47.47h.47z" fill="#9eaecb" stroke="#9eaecb"/><path d="M17.74 31.663l.313-.547-.547-.078z" fill="#c2d1e2" stroke="#c2d1e2"/><path d="M25.163 31.663l.234-.625-.547.078z" fill="#919aaa" stroke="#919aaa"/><path d="M18.053 28.694l.547.078v-.625z" class="B C"/><path d="M24.85 28.694l-.547-.547v.625z" fill="#979ca6" stroke="#979ca6"/><path d="M20.866 26.975l.625.234v-.313z" fill="#d0ddf5" stroke="#d0ddf5"/><path d="M22.038 26.975l-.547-.078v.313z" fill="#c6d2e7" stroke="#c6d2e7"/><path d="M19.85 27.288l.47.156v-.39z" fill="#e7f7ff" stroke="#e7f7ff"/><path d="M23.054 27.288l-.47-.234v.39z" fill="#b2bac9" stroke="#b2bac9"/><path d="M20.32 27.053l.547.234v-.313z" fill="#dcecff" stroke="#dcecff"/><path d="M22.585 27.053l-.547-.078v.313z" fill="#bcc6d8" stroke="#bcc6d8"/><path d="M20.866 34.32l.625.313v-.39z" fill="#b5c3da" stroke="#b5c3da"/><path d="M22.038 34.32l-.547-.078v.39z" fill="#adbcd7" stroke="#adbcd7"/><path d="M17.506 31.038l.547.078-.234-.625z" fill="#c5d4e4" stroke="#c5d4e4"/><path d="M25.398 31.038l-.313-.547-.234.625z" fill="#949dad" stroke="#949dad"/><path d="M17.74 31.663l.313.547.078-.547z" fill="#bbcadb" stroke="#bbcadb"/><path d="M25.163 31.663h-.39l.078.547z" fill="#929cae" stroke="#929cae"/><path d="M18.13 29.397l.47-.625-.547-.078z" class="Ar As"/><path d="M24.773 29.397l.078-.703-.547.078z" fill="#999faa" stroke="#999faa"/><path d="M19.225 27.68l.547.156.078-.547z" fill="#f1ffff" stroke="#f1ffff"/><path d="M23.68 27.68l-.625-.39.078.547z" fill="#aab2bf" stroke="#aab2bf"/><path d="M18.834 33.304l.47.547v-.47z" fill="#c7d8e6" stroke="#c7d8e6"/><path d="M24.07 33.304l-.47.078v.47z" fill="#97a5be" stroke="#97a5be"/><path d="M18.6 28.147l.625.156v-.625z" class="At Au"/><path d="M24.304 28.147l-.625-.47v.625z" fill="#a2a8b3" stroke="#a2a8b3"/><path d="M17.82 30.49l.39-.547-.547-.078z" fill="#d4e4f3" stroke="#d4e4f3"/><path d="M25.085 30.49l.156-.625-.547.078z" fill="#9aa2b1" stroke="#9aa2b1"/><path d="M19.303 33.382v.47h.547z" fill="#c9dbe9" stroke="#c9dbe9"/><path d="M23.6 33.382l-.547.47h.547z" fill="#a4b4d1" stroke="#a4b4d1"/><path d="M17.662 29.866l.547.078-.078-.547z" fill="#dcecfc" stroke="#dcecfc"/><path d="M25.24 29.866l-.47-.47-.078.547z" fill="#9aa2b1" stroke="#9aa2b1"/><path d="M18.053 32.2l.39.625v-.547z" fill="#b9c8d8" stroke="#b9c8d8"/><path d="M24.85 32.2l-.39.078v.547z" fill="#97a2b8" stroke="#97a2b8"/><path d="M20.32 33.93v.39h.547z" fill="#cad5e6" stroke="#cad5e6"/><path d="M22.585 33.93l-.547.39h.547z" fill="#aebeda" stroke="#aebeda"/><path d="M20.866 27.288l.625-.078-.625-.234z" fill="#d4e2fb" stroke="#d4e2fb"/><path d="M22.038 27.288v-.313l-.547.234z" fill="#c7d2e8" stroke="#c7d2e8"/><path d="M18.444 32.835l.39.47v-.47z" fill="#bcccdc" stroke="#bcccdc"/><path d="M24.46 32.835h-.39v.47z" fill="#98a5bd" stroke="#98a5bd"/><path d="M19.85 33.85l.47.47v-.39z" fill="#cfdae8" stroke="#cfdae8"/><path d="M23.054 33.85l-.47.078v.39z" fill="#a5b6d5" stroke="#a5b6d5"/><path d="M17.74 31.663h.39l-.078-.547z" fill="#bccbdb" stroke="#bccbdb"/><path d="M25.163 31.663l-.313-.547-.078.547z" fill="#9aa4b7" stroke="#9aa4b7"/><path d="M22.585 27.444v-.39l-.547.234z" class="Ap Aq"/><path d="M20.32 27.444l.547-.156-.547-.234z" class="Ah Ai"/><path d="M19.772 27.835l.547-.39-.47-.156z" fill="#eefdff" stroke="#eefdff"/><path d="M23.132 27.835l-.078-.547-.47.156z" fill="#b3bbcb" stroke="#b3bbcb"/><path d="M18.13 31.663l-.078.547.39.078z" fill="#b5c4d5" stroke="#b5c4d5"/><path d="M24.773 31.663l-.313.625.39-.078z" fill="#a1adc4" stroke="#a1adc4"/><path d="M18.6 28.772l.625-.47-.625-.156z" class="B C"/><path d="M24.304 28.772v-.625l-.625.156z" fill="#a4abb9" stroke="#a4abb9"/><path d="M18.834 32.835v.47l.47.078z" fill="#bcccdb" stroke="#bcccdb"/><path d="M24.07 32.835l-.47.547.47-.078z" fill="#a5b4d0" stroke="#a5b4d0"/><path d="M18.444 32.288v.547h.39z" fill="#b5c4d4" stroke="#b5c4d4"/><path d="M24.46 32.288l-.39.547h.39z" fill="#a5b3cd" stroke="#a5b3cd"/><path d="M20.866 33.85v.47l.625-.078z" fill="#c7d3e5" stroke="#c7d3e5"/><path d="M22.038 33.85l-.547.39.547.078z" fill="#bdcbe1" stroke="#bdcbe1"/><path d="M19.225 28.304l.547-.47-.547-.156z" fill="#fbffff" stroke="#fbffff"/><path d="M23.68 28.304v-.625l-.547.156z" fill="#adb5c3" stroke="#adb5c3"/><path d="M20.32 33.93l.547.39v-.47z" fill="#cdd8e8" stroke="#cdd8e8"/><path d="M22.585 33.93l-.547-.078v.47z" fill="#b4c3dd" stroke="#b4c3dd"/><path d="M19.303 33.382l.547.47v-.47z" fill="#c8d9e7" stroke="#c8d9e7"/><path d="M23.6 33.382h-.547v.47z" fill="#a9b9d8" stroke="#a9b9d8"/><path d="M19.85 33.382v.47l.47.078z" fill="#cddfed" stroke="#cddfed"/><path d="M23.054 33.382l-.47.547.47-.078z" fill="#b5c4e0" stroke="#b5c4e0"/><path d="M18.053 31.116l.39-.47-.625-.156z" fill="#c1d0e1" stroke="#c1d0e1"/><path d="M24.85 31.116l.234-.625-.625.156z" fill="#a7b3c7" stroke="#a7b3c7"/><path d="M18.13 29.397l.547.078-.078-.703z" fill="#ecfdff" stroke="#ecfdff"/><path d="M24.773 29.397l-.47-.625-.078.703z" fill="#a9b2c3" stroke="#a9b2c3"/><path d="M20.866 27.288l.625.313v-.39z" fill="#dcebff" stroke="#dcebff"/><path d="M22.038 27.288l-.547-.078v.39z" fill="#d2e0f8" stroke="#d2e0f8"/><path d="M17.82 30.49l.625.156-.234-.703z" class="Av Aw"/><path d="M25.085 30.49l-.39-.547-.234.703z" fill="#a9b4c9" stroke="#a9b4c9"/><path d="M18.13 31.663l.313.625.078-.547z" fill="#b3c2d3" stroke="#b3c2d3"/><path d="M24.773 31.663l-.39.078.078.547z" fill="#a7b4cd" stroke="#a7b4cd"/><path d="M18.21 29.944l.47-.47-.547-.078z" fill="#deeefd" stroke="#deeefd"/><path d="M24.694 29.944l.078-.547-.547.078z" fill="#aab4c6" stroke="#aab4c6"/><path d="M18.13 31.663l.313-.47-.39-.078z" fill="#b6c4d5" stroke="#b6c4d5"/><path d="M24.773 31.663l.078-.547-.39.078z" fill="#abb8d0" stroke="#abb8d0"/><path d="M20.32 27.444l.547.234v-.39z" fill="#e8f9ff" stroke="#e8f9ff"/><path d="M22.585 27.444l-.547-.156v.39z" fill="#c8d4ea" stroke="#c8d4ea"/><path d="M20.866 33.85l.625.39v-.47z" fill="#c9d5e7" stroke="#c9d5e7"/><path d="M22.038 33.85l-.547-.078v.47z" fill="#c2cfe4" stroke="#c2cfe4"/><path d="M18.834 32.835l.47.547v-.47z" fill="#bac9d9" stroke="#bac9d9"/><path d="M24.07 32.835l-.47.078v.47z" fill="#acbcd9" stroke="#acbcd9"/><path d="M18.444 32.288l.39.547.078-.547z" fill="#b3c2d2" stroke="#b3c2d2"/><path d="M24.46 32.288h-.47l.078.547z" fill="#abbad6" stroke="#abbad6"/><path d="M19.303 32.913v.47h.547z" fill="#bcccdc" stroke="#bcccdc"/><path d="M23.6 32.913l-.547.47h.547z" fill="#b8c8e5" stroke="#b8c8e5"/><path d="M19.772 27.835l.547.234v-.625z" fill="#f4ffff" stroke="#f4ffff"/><path d="M23.132 27.835l-.547-.39v.625z" fill="#c3cee2" stroke="#c3cee2"/><path d="M18.13 31.663l.39.078-.078-.547z" fill="#b4c2d3" stroke="#b4c2d3"/><path d="M24.773 31.663l-.313-.47-.078.547z" fill="#afbdd6" stroke="#afbdd6"/><path d="M20.866 27.68l.625-.078-.625-.313z" class="Ah Ai"/><path d="M22.038 27.68v-.39l-.547.313z" fill="#d3e1fa" stroke="#d3e1fa"/><path d="M20.397 33.382l-.078.547.547-.078z" fill="#d5e7f4" stroke="#d5e7f4"/><path d="M22.507 33.382l-.47.47.547.078z" fill="#c4d1e7" stroke="#c4d1e7"/><path d="M18.6 28.772l.625.156v-.625z" class="B C"/><path d="M24.304 28.772l-.625-.47v.625z" fill="#b5bfd1" stroke="#b5bfd1"/><path d="M19.85 33.382l.47.547.078-.547z" fill="#ccddec" stroke="#ccddec"/><path d="M23.054 33.382h-.547l.078.547z" fill="#bac9e3" stroke="#bac9e3"/><path d="M18.522 31.74l-.078.547h.47z" fill="#afbdcf" stroke="#afbdcf"/><path d="M24.382 31.74l-.39.547h.47z" fill="#b6c5e2" stroke="#b6c5e2"/><path d="M18.053 31.116l.39.078v-.547z" fill="#bbc9da" stroke="#bbc9da"/><path d="M24.85 31.116l-.39-.47v.547z" fill="#b1bed6" stroke="#b1bed6"/><path d="M18.913 32.288l-.078.547.47.078z" fill="#b2c1d2" stroke="#b2c1d2"/><path d="M23.99 32.288l-.39.625.47-.078z" fill="#b9c9e8" stroke="#b9c9e8"/><path d="M19.225 28.304l.547.156v-.625z" class="B C"/><path d="M23.68 28.304l-.547-.47v.625z" fill="#bec8dc" stroke="#bec8dc"/><path d="M20.32 28.07l.547-.39-.547-.234z" fill="#f1ffff" stroke="#f1ffff"/><path d="M22.585 28.07v-.625l-.547.234z" fill="#cbd7ee" stroke="#cbd7ee"/><path d="M18.678 29.476l.547-.547-.625-.156z" fill="azure" stroke="azure"/><path d="M24.226 29.476l.078-.703-.625.156z" fill="#b8c3d8" stroke="#b8c3d8"/><path d="M20.944 33.382l-.078.47.625-.078z" fill="#dbe5f2" stroke="#dbe5f2"/><path d="M21.96 33.382l-.47.39.547.078z" fill="#d1ddee" stroke="#d1ddee"/><path d="M18.444 30.648l.39-.547-.625-.156z" fill="#c8d6e7" stroke="#c8d6e7"/><path d="M24.46 30.648l.234-.703-.625.156z" fill="#bac7e0" stroke="#bac7e0"/><path d="M19.303 32.913l.547.47v-.47z" fill="#bbcada" stroke="#bbcada"/><path d="M23.6 32.913h-.547v.47z" fill="#becde8" stroke="#becde8"/><path d="M18.21 29.944l.625.156-.156-.625z" fill="#d1e0f1" stroke="#d1e0f1"/><path d="M24.694 29.944l-.47-.47-.156.625z" fill="#bbc7df" stroke="#bbc7df"/><path d="M20.397 33.382l.47.47.078-.47z" fill="#d4e6f3" stroke="#d4e6f3"/><path d="M22.507 33.382h-.547l.078.47z" fill="#cad6eb" stroke="#cad6eb"/><path d="M19.772 28.46l.547-.39-.547-.234z" class="B C"/><path d="M23.132 28.46v-.625l-.547.234z" fill="#c6d2e8" stroke="#c6d2e8"/><path d="M19.85 32.913v.47h.547z" fill="#c0d0e0" stroke="#c0d0e0"/><path d="M23.054 32.913l-.547.47h.547z" fill="#c9d7ed" stroke="#c9d7ed"/><path d="M19.225 28.93l.547-.47-.547-.156z" class="B C"/><path d="M23.68 28.93v-.625l-.547.156z" fill="#c0cce1" stroke="#c0cce1"/><path d="M18.522 31.74l.39.547.078-.47z" fill="#afbcce" stroke="#afbcce"/><path d="M24.382 31.74l-.47.078.078.47z" fill="#bbccea" stroke="#bbccea"/><path d="M20.866 27.68l.625.313v-.39z" fill="#eafaff" stroke="#eafaff"/><path d="M22.038 27.68l-.547-.078v.39z" fill="#e1f0ff" stroke="#e1f0ff"/><path d="M18.913 32.288l.39.625.078-.547z" fill="#b1bfd0" stroke="#b1bfd0"/><path d="M23.99 32.288l-.47.078.078.547z" fill="#beceeb" stroke="#beceeb"/><path d="M18.522 31.74l.39-.47-.47-.078z" fill="#b0bed0" stroke="#b0bed0"/><path d="M24.382 31.74l.078-.547-.47.078z" fill="#c0d1ef" stroke="#c0d1ef"/><path d="M18.444 31.195l.39-.547h-.39z" fill="#b8c5d7" stroke="#b8c5d7"/><path d="M24.46 31.195v-.547h-.39z" fill="#c2d1ee" stroke="#c2d1ee"/><path d="M20.944 33.382l.547.39v-.39z" fill="#dde7f3" stroke="#dde7f3"/><path d="M21.96 33.382h-.47v.39z" fill="#d5e0f0" stroke="#d5e0f0"/><path d="M19.38 32.367l-.078.547h.547z" fill="#b3c1d2" stroke="#b3c1d2"/><path d="M23.522 32.367l-.47.547h.547z" fill="#cad9f1" stroke="#cad9f1"/><path d="M18.522 31.74l.47.078-.078-.547z" fill="#afbdcf" stroke="#afbdcf"/><path d="M24.382 31.74l-.39-.47-.078.547z" fill="#c3d4f3" stroke="#c3d4f3"/><path d="M18.99 31.82l-.078.47.47.078z" fill="#adbbcd" stroke="#adbbcd"/><path d="M23.913 31.82l-.39.547.47-.078z" fill="#c9d8f3" stroke="#c9d8f3"/><path d="M20.32 28.07l.547.234v-.625z" class="Ar As"/><path d="M22.585 28.07l-.547-.39v.625z" fill="#deedff" stroke="#deedff"/><path d="M18.444 30.648h.39V30.1z" fill="#c1cfe1" stroke="#c1cfe1"/><path d="M24.46 30.648l-.39-.547v.547z" fill="#c4d3ef" stroke="#c4d3ef"/><path d="M18.444 31.195l.47.078-.078-.625z" fill="#b6c3d5" stroke="#b6c3d5"/><path d="M24.46 31.195l-.39-.547-.078.625z" fill="#c5d6f4" stroke="#c5d6f4"/><path d="M18.678 29.476l.625.156-.078-.703z" fill="#e5f5ff" stroke="#e5f5ff"/><path d="M24.226 29.476l-.547-.547-.078.703z" fill="#c7d5ef" stroke="#c7d5ef"/><path d="M20.397 32.913v.47h.547z" fill="#c7d8e7" stroke="#c7d8e7"/><path d="M22.507 32.913l-.547.47h.547z" fill="#d8e4f4" stroke="#d8e4f4"/><path d="M19.85 32.913l.547.47v-.47z" fill="#bfcfdf" stroke="#bfcfdf"/><path d="M23.054 32.913h-.547v.47z" fill="#cfdcf0" stroke="#cfdcf0"/><path d="M20.866 28.304l.625-.313-.625-.313z" class="Al Am"/><path d="M22.038 28.304v-.625l-.547.313z" fill="#e7f8ff" stroke="#e7f8ff"/><path d="M18.834 30.1l.47-.47-.625-.156z" fill="#d6e5f6" stroke="#d6e5f6"/><path d="M24.07 30.1l.156-.625-.625.156z" fill="#c9d7f2" stroke="#c9d7f2"/><path d="M19.772 28.46l.547.234v-.625z" class="B C"/><path d="M23.132 28.46l-.547-.39v.625z" class="Aj Ak"/><path d="M20.944 32.913v.47h.547z" fill="#d2e3f2" stroke="#d2e3f2"/><path d="M21.96 32.913l-.47.47h.47z" fill="#e5effb" stroke="#e5effb"/><path d="M19.225 28.93l.625.234-.078-.703z" class="B C"/><path d="M23.68 28.93l-.547-.47-.078.703z" fill="#d2e0fc" stroke="#d2e0fc"/><path d="M19.38 32.367l.47.547.078-.547z" fill="#b2c0d1" stroke="#b2c0d1"/><path d="M23.522 32.367h-.547l.078.547z" fill="#d0def4" stroke="#d0def4"/><path d="M18.99 31.82l.39.547.078-.547z" fill="#adbacc" stroke="#adbacc"/><path d="M23.913 31.82h-.47l.078.547z" fill="#cddcf6" stroke="#cddcf6"/><path d="M20.397 32.913l.547.47v-.47z" fill="#c7d8e7" stroke="#c7d8e7"/><path d="M22.507 32.913h-.547v.47z" fill="#dce7f6" stroke="#dce7f6"/><path d="M19.928 32.367l-.078.547h.547z" fill="#b7c6d6" stroke="#b7c6d6"/><path d="M22.976 32.367l-.47.547h.547z" fill="#dbe7f9" stroke="#dbe7f9"/><path d="M23.913 31.82l.078-.547h-.47z" fill="#d3e2fb" stroke="#d3e2fb"/><path d="M18.99 31.82l.39-.547h-.47z" fill="#aebbcd" stroke="#aebbcd"/><path d="M20.32 28.694l.547-.39-.547-.234z" class="B C"/><path d="M22.585 28.694v-.625l-.547.234z" fill="#e4f4ff" stroke="#e4f4ff"/><path d="M18.834 30.648l.47-.47-.47-.078z" fill="#c1cfe1" stroke="#c1cfe1"/><path d="M24.07 30.648V30.1l-.47.078z" fill="#d3e4ff" stroke="#d3e4ff"/><path d="M19.303 29.632l.547-.47-.625-.234z" fill="#ebfcff" stroke="#ebfcff"/><path d="M23.6 29.632l.078-.703-.625.234z" class="r s"/><path d="M19.46 31.82l-.078.547h.547z" fill="#aebcce" stroke="#aebcce"/><path d="M23.444 31.82l-.47.547h.547z" fill="#dae7fb" stroke="#dae7fb"/><path d="M18.913 31.273l.39-.547-.47-.078z" fill="#b5c2d4" stroke="#b5c2d4"/><path d="M23.99 31.273l.078-.625-.47.078z" fill="#d5e4ff" stroke="#d5e4ff"/><path d="M20.944 32.913l.547.47v-.47z" fill="#d2e4f2" stroke="#d2e4f2"/><path d="M21.96 32.913h-.47v.47z" fill="#e0f2ff" stroke="#e0f2ff"/><g class="B C"><path d="M20.866 28.304l.625.078v-.39z"/><path d="M22.038 28.304l-.547-.313v.39z"/></g><path d="M18.99 31.82h.47l-.078-.547z" fill="#aebbcd" stroke="#aebbcd"/><path d="M23.913 31.82l-.39-.547-.078.547z" fill="#d5e3fc" stroke="#d5e3fc"/><path d="M18.834 30.1l.47.078v-.547z" fill="#cfdeef" stroke="#cfdeef"/><path d="M24.07 30.1l-.47-.47v.547z" class="r s"/><path d="M19.85 29.163l.47-.47-.547-.234z" class="B C"/><path d="M23.054 29.163l.078-.703-.547.234z" fill="#dbebff" stroke="#dbebff"/><path d="M18.913 31.273h.47l-.078-.547z" class="Ax Ay"/><path d="M23.99 31.273l-.39-.547-.078.547z" class="Aj Ak"/><path d="M18.834 30.648l.47.078v-.547z" fill="#bfcdde" stroke="#bfcdde"/><path d="M24.07 30.648l-.47-.47v.547z" fill="#d7e7ff" stroke="#d7e7ff"/><path d="M20.397 32.367v.547h.547z" fill="#bfcede" stroke="#bfcede"/><path d="M22.507 32.367l-.547.547h.547z" fill="#eaf4ff" stroke="#eaf4ff"/><path d="M19.928 32.367l.47.547v-.547z" fill="#b7c6d6" stroke="#b7c6d6"/><path d="M22.976 32.367h-.47v.547z" fill="#dfeafb" stroke="#dfeafb"/><path d="M19.46 31.82l.47.547v-.47z" fill="#aebcce" stroke="#aebcce"/><path d="M23.444 31.82l-.47.078v.47z" fill="#dde9fd" stroke="#dde9fd"/><g class="B C"><path d="M20.866 28.772l.625-.4-.625-.078zm1.172 0v-.47l-.547.078z"/><path d="M20.32 28.694l.547.078v-.47zm2.265 0l-.547-.4v.47z"/></g><path d="M19.303 29.632h.547v-.47z" fill="#e4f4ff" stroke="#e4f4ff"/><path d="M23.6 29.632l-.547-.47v.47z" fill="#deeeff" stroke="#deeeff"/><path d="M20.944 32.367v.547h.547z" fill="#cadae9" stroke="#cadae9"/><path d="M21.96 32.367l-.47.547h.47z" fill="#d9eaf8" stroke="#d9eaf8"/><path d="M19.303 30.18l.547-.547h-.547z" fill="#d3e1f2" stroke="#d3e1f2"/><path d="M23.6 30.18v-.547h-.547z" fill="#e1f1ff" stroke="#e1f1ff"/><path d="M19.928 31.898v.47h.47z" fill="#b3c1d2" stroke="#b3c1d2"/><path d="M22.976 31.898l-.47.47h.47z" fill="#eaf5ff" stroke="#eaf5ff"/><path d="M19.46 31.82l.47-.47-.547-.078z" fill="#afbccf" stroke="#afbccf"/><path d="M23.444 31.82l.078-.547-.547.078z" fill="#e4f1ff" stroke="#e4f1ff"/><path d="M20.397 32.367l.547.547v-.547z" fill="#bfcede" stroke="#bfcede"/><path d="M22.507 32.367h-.547v.547z" fill="#ebf5ff" stroke="#ebf5ff"/><path d="M19.85 29.163l.47.078v-.547z" class="B C"/><path d="M23.054 29.163l-.47-.47v.547z" fill="#e7f7ff" stroke="#e7f7ff"/><path d="M19.46 31.82l.47.078v-.547z" fill="#afbccf" stroke="#afbccf"/><path d="M23.444 31.82l-.47-.47v.547z" fill="#e5f1ff" stroke="#e5f1ff"/><path d="M19.303 30.726l.547-.547h-.547z" fill="#c2cfe1" stroke="#c2cfe1"/><path d="M23.6 30.726v-.547h-.547z" fill="#e6f4ff" stroke="#e6f4ff"/><path d="M19.38 31.273l.47-.47-.547-.078z" fill="#b6c3d5" stroke="#b6c3d5"/><path d="M23.522 31.273l.078-.547-.547.078z" fill="#e7f4ff" stroke="#e7f4ff"/><path d="M20.32 29.24l.547-.47-.547-.078zm2.265 0v-.547l-.547.078z" class="B C"/><path d="M20.944 32.367l.547.547v-.547z" fill="#cadaea" stroke="#cadaea"/><path d="M21.96 32.367h-.47v.547z" fill="#d8e9f7" stroke="#d8e9f7"/><g class="B C"><path d="M20.866 28.772l.625.078v-.47z"/><path d="M22.038 28.772l-.547-.39v.47z"/></g><path d="M19.85 29.632l.47-.39-.47-.078z" fill="#edfdff" stroke="#edfdff"/><path d="M23.054 29.632v-.47l-.47.078z" fill="#ebfaff" stroke="#ebfaff"/><path d="M19.303 30.18h.547v-.547z" fill="#d1dff0" stroke="#d1dff0"/><path d="M23.6 30.18l-.547-.547v.547z" fill="#e4f3ff" stroke="#e4f3ff"/><path d="M19.928 31.898l.47.47v-.47z" fill="#b3c1d3" stroke="#b3c1d3"/><path d="M22.976 31.898h-.47v.47z" fill="#ebf6ff" stroke="#ebf6ff"/><path d="M20.397 31.898v.47h.547z" fill="#bbc9da" stroke="#bbc9da"/><path d="M22.507 31.898l-.547.47h.547z" fill="#e5f7ff" stroke="#e5f7ff"/><path d="M19.38 31.273l.547.078-.078-.547z" fill="#b5c2d4" stroke="#b5c2d4"/><path d="M23.522 31.273l-.47-.47-.078.547z" fill="#e9f6ff" stroke="#e9f6ff"/><path d="M19.303 30.726l.547.078v-.625z" fill="#c0cedf" stroke="#c0cedf"/><path d="M23.6 30.726l-.547-.547v.625z" fill="#e9f6ff" stroke="#e9f6ff"/><g class="B C"><path d="M20.32 29.24h.547v-.47zm2.265 0l-.547-.47v.47z"/><path d="M20.866 29.24l.625-.4-.625-.078zm1.172 0v-.47l-.547.078z"/></g><path d="M19.85 29.632l.47.078v-.47z" fill="#ebfbff" stroke="#ebfbff"/><path d="M23.054 29.632l-.47-.39v.47z" fill="#f0feff" stroke="#f0feff"/><path d="M20.944 31.898v.47h.547z" fill="#c6d5e6" stroke="#c6d5e6"/><path d="M21.96 31.898l-.47.47h.47z" fill="#d4e5f4" stroke="#d4e5f4"/><path d="M19.928 31.898l.47-.547h-.47z" class="Ax Ay"/><path d="M22.976 31.898v-.547h-.47z" fill="#f3fdff" stroke="#f3fdff"/><path d="M19.85 30.18l.47-.47-.47-.078z" fill="#d7e6f7" stroke="#d7e6f7"/><path d="M23.054 30.18v-.547l-.47.078z" fill="#f2ffff" stroke="#f2ffff"/><path d="M19.928 31.898h.47v-.547z" class="Ax Ay"/><path d="M22.976 31.898l-.47-.547v.547z" fill="#f3feff" stroke="#f3feff"/><path d="M20.397 31.898l.547.47v-.47z" fill="#bbc9db" stroke="#bbc9db"/><path d="M22.507 31.898h-.547v.47z" fill="#e5f6ff" stroke="#e5f6ff"/><path d="M20.32 29.7l.547-.47h-.547zm2.265 0v-.47h-.547z" class="B C"/><path d="M20.944 31.898l.547.47v-.47z" fill="#c6d5e6" stroke="#c6d5e6"/><path d="M21.96 31.898h-.47v.47z" fill="#d4e4f4" stroke="#d4e4f4"/><g class="B C"><path d="M20.866 29.24l.625.078v-.47z"/><path d="M22.038 29.24l-.547-.39v.47z"/></g><path d="M19.85 30.804l.547-.547-.547-.078z" fill="#c6d4e5" stroke="#c6d4e5"/><path d="M23.054 30.804v-.625l-.547.078z" fill="#f6ffff" stroke="#f6ffff"/><path d="M19.928 31.35l.47-.547h-.547z" fill="#bac7d9" stroke="#bac7d9"/><path d="M22.976 31.35l.078-.547h-.547z" class="Al Am"/><path d="M19.85 30.18l.547.078-.078-.547z" fill="#d5e4f5" stroke="#d5e4f5"/><path d="M23.054 30.18l-.47-.47-.078.547z" fill="#f5ffff" stroke="#f5ffff"/><path d="M19.928 31.35h.47v-.547z" fill="#bac7d9" stroke="#bac7d9"/><path d="M22.976 31.35l-.47-.547v.547z" class="t u"/><path d="M20.397 31.898h.547v-.547z" fill="#bccadb" stroke="#bccadb"/><path d="M22.507 31.898l-.547-.547v.547z" class="An Ao"/><path d="M20.397 31.898l.547-.547h-.547z" fill="#bccadb" stroke="#bccadb"/><path d="M22.507 31.898v-.547h-.547z" fill="#e7f8ff" stroke="#e7f8ff"/><path d="M20.32 29.7l.547.078v-.547zm2.265 0l-.547-.47v.547z" class="B C"/><path d="M19.85 30.804h.547v-.547z" fill="#c5d2e4" stroke="#c5d2e4"/><path d="M23.054 30.804l-.547-.547v.547z" class="Ar As"/><path d="M20.866 29.788l.625-.47-.625-.078zm1.172 0v-.547l-.547.078z" class="B C"/><path d="M20.397 30.257l.47-.47-.547-.078z" fill="#e1f1ff" stroke="#e1f1ff"/><path d="M22.507 30.257l.078-.547-.547.078z" class="B C"/><path d="M20.944 31.898h.547v-.547z" class="Av Aw"/><path d="M21.96 31.898l-.47-.547v.547z" fill="#d5e5f5" stroke="#d5e5f5"/><path d="M20.944 31.898l.547-.547h-.547z" class="Av Aw"/><path d="M21.96 31.898v-.547h-.47z" fill="#d5e5f5" stroke="#d5e5f5"/><path d="M20.397 31.35l.547-.47-.547-.078z" fill="#c2d0e1" stroke="#c2d0e1"/><path d="M22.507 31.35v-.547l-.547.078z" fill="#eff" stroke="#eff"/><g class="B C"><path d="M20.866 29.788l.625.078v-.547z"/><path d="M22.038 29.788l-.547-.47v.547z"/></g><path d="M20.397 31.35h.547v-.47z" fill="#c2d0e1" stroke="#c2d0e1"/><path d="M22.507 31.35l-.547-.47v.47z" fill="#ecfeff" stroke="#ecfeff"/><path d="M20.397 30.804l.547-.47-.547-.078z" fill="#cddced" stroke="#cddced"/><path d="M22.507 30.804v-.547l-.547.078z" class="At Au"/><path d="M20.397 30.257l.547.078-.078-.547z" fill="#dfefff" stroke="#dfefff"/><path d="M22.507 30.257l-.47-.47-.078.547z" class="B C"/><path d="M20.944 30.335l.547-.47-.625-.078z" fill="azure" stroke="azure"/><path d="M21.96 30.335l.078-.547-.547.078z" class="B C"/><path d="M20.397 30.804l.547.078v-.547z" fill="#cddbec" stroke="#cddbec"/><path d="M22.507 30.804l-.547-.47v.547z" class="t u"/><path d="M20.944 31.35h.547v-.47z" fill="#cddced" stroke="#cddced"/><path d="M21.96 31.35l-.47-.47v.47z" fill="#dbebfb" stroke="#dbebfb"/><path d="M20.944 31.35l.547-.47h-.547z" fill="#cddcec" stroke="#cddcec"/><path d="M21.96 31.35v-.47h-.47z" fill="#dcecfb" stroke="#dcecfb"/><path d="M20.944 30.335h.547v-.47z" fill="#eefeff" stroke="#eefeff"/><path d="M21.96 30.335l-.47-.47v.47z" class="At Au"/><path d="M20.944 30.882l.547-.547h-.547z" fill="#d8e8f8" stroke="#d8e8f8"/><path d="M21.96 30.882v-.547h-.47z" fill="#e8f8ff" stroke="#e8f8ff"/><path d="M20.944 30.882h.547v-.547z" fill="#d8e8f8" stroke="#d8e8f8"/><path d="M21.96 30.882l-.47-.547v.547z" class="An Ao"/></g><defs ><path id="B" d="M21.26 8.327H13.08L4.894 22.5l8.184 14.174h8.184V30.57a8.08 8.08 0 0 1-4.039-15.066 8.08 8.08 0 0 1 4.039-1.072V8.327z"/><path id="C" d="M21.26 8.327v6.104A8.08 8.08 0 0 1 25.3 29.495a8.08 8.08 0 0 1-4.039 1.074v6.104h8.184L37.626 22.5 29.444 8.325l-8.184.002z"/><path id="D" d="M14.617 10.224c-3.256 1.88-5.63 4.975-6.604 8.606s-.464 7.5 1.416 10.755 4.975 5.63 8.606 6.604 7.5.464 10.755-1.416 5.63-4.975 6.604-8.606.464-7.5-1.416-10.755-4.975-5.63-8.606-6.604-7.5-.464-10.755 1.416zm3.048 5.28A8.08 8.08 0 0 1 28.7 18.46a8.08 8.08 0 0 1-2.957 11.035 8.08 8.08 0 0 1-11.035-2.957 8.08 8.08 0 0 1 2.957-11.035z"/><path id="E" d="M14.174 10.224c-3.256 1.88-5.63 4.975-6.604 8.606s-.464 7.5 1.416 10.755 4.975 5.63 8.606 6.604 7.5.464 10.755-1.416 5.63-4.975 6.604-8.606.464-7.5-1.416-10.755-4.975-5.63-8.606-6.604-7.5-.464-10.755 1.416zm3.048 5.28a8.08 8.08 0 0 1 11.035 2.957A8.08 8.08 0 0 1 25.3 29.495a8.08 8.08 0 0 1-11.035-2.957 8.08 8.08 0 0 1 2.957-11.035z"/></defs></svg>