<svg xmlns="http://www.w3.org/2000/svg" xmlns:xlink="http://www.w3.org/1999/xlink" width="273.6" viewBox="0 0 2850.001 1289.724" height="123.84"><style><![CDATA[.B{stroke:#000}.C{stroke-width:20}.D{fill:none}.E{stroke-width:10}.F{fill:#141414}.G{fill:#8c8663}.H{fill:#b8af82}.I{fill:#5e5b43}.J{fill:#9a916c}.K{font-size:60px}.L{font-family:Droid Sans}.M{stroke:#58595b}.N{stroke:#4d4d4d}.O{stroke-width:13.889}.P{stroke-width:11.944}.Q{stroke-width:4.99}]]></style><g class="E"><path d="M61.846 50.847l51.215-47.17" class="B D"/><path fill="#b3b3b3" d="M63.458 54.1h2739.584v1182.917H63.458z" class="N"/></g><path fill="#fff200" d="M2709.154 301.053h86.11v86.11h-86.11z" class="M O"/><path fill="#999" stroke-width="24" d="M2786.886 744.314V544.106" class="N"/><path d="M61.596 90.867l51.218-47.17" class="B D E"/><g fill="gray" stroke="gray"><path transform="matrix(.728594 -.684945 -.054655 .998505 0 0)" d="M103.437 128.507h53.025v16.518h-53.025z" class="P"/><path transform="matrix(.618044 .786143 .595826 -.803113 0 0)" d="M2301.488 2224.57h72.843v16.01h-72.843z" class="E"/></g><g class="B E"><path fill="#4d4d4d" d="M112.667 6.098H2758.23v38.22H112.667z"/><path d="M2759.558 4.106l47.17 51.22m-48.386-12.914l47.17 51.218M61.596 1238.876l51.218 47.17" class="D"/></g><path transform="matrix(.618044 -.786143 .595826 .803113 0 0)" fill="gray" stroke="gray" d="M1504.672 3051.107h72.843v16.01h-72.843z" class="E"/><path fill="#4d4d4d" d="M112.668 1284.198h2645.564v-41.346H112.668z" class="B E"/><path transform="matrix(.728594 .684945 -.054655 -.998505 0 0)" fill="gray" stroke="gray" d="M1.248-1233.748h53.025v16.518H1.248z" class="P"/><g class="B D"><path d="M61.596 1199.354l51.218 47.17m2646.744 39.59l47.17-51.22m-48.386 12.915l47.17-51.218" class="E"/><g class="C"><path d="M306.15 788.627v453.344m-.004-1195.644V498.4m2120.332 356.44L2628 752.637m-394.08-228.34l202-91.214"/><path d="M2630.016 534.473L2427.528 432.86m7.915 422.367l-200.415-115.003"/><path d="M2623.4 752.885v-217.71M2240.334 748.02V515.728"/></g></g><circle cy="-644.239" cx="-2431.41" transform="scale(-1)" fill="#fff" stroke="#666" r="88" class="C"/><path d="M2613.503 753.437h194.792M2613.555 534.3h194.792" class="B D C"/><g class="M O"><path fill="#fff200" d="M2708.112 501.053h86.11v86.11h-86.11z"/><path d="M2709.154 601.053h86.1v86.1h-86.1zm0-200h86.1v86.1h-86.1z" fill="#39b54a"/></g><path fill="#1a1a1a" d="M2024.417 239.494v800H1676v-800z"/><path fill="#2a2a29" d="M2024.417 239.494v800h-38.86v-800z"/><path fill="#595959" d="M1714.862 239.494v800H1676v-800z"/><path d="M2024.417 239.492H1676l38.86 38.86h270.695z" fill="#373737"/><path d="M2024.417 1039.493H1676l38.86-38.86h270.695z" fill="#474747"/><g fill="#404040"><path d="M2024.417 239.494v800h-24.972v-800zm-323.444 0v800H1676v-800z"/><path d="M2024.417 239.494v24.972H1676v-24.972zm0 775.03v24.972H1676v-24.972z"/></g><path d="M1928.445 413.113v52.764h-52.764v-52.764z" class="F"/><use xlink:href="#B" class="G"/><use xlink:href="#C" class="H"/><use xlink:href="#C" x="-24.181" class="I"/><g class="J"><use xlink:href="#D"/><use xlink:href="#E"/></g><path d="M1928.445 513.112v52.764h-52.764v-52.764z" class="F"/><use xlink:href="#B" y="100" class="G"/><use xlink:href="#C" y="100" class="H"/><use xlink:href="#C" x="-24.181" y="100" class="I"/><g class="J"><use xlink:href="#D" y="100"/><use xlink:href="#E" y="100"/></g><path d="M1928.445 613.11v52.764h-52.764V613.11z" class="F"/><use xlink:href="#B" y="199.998" class="G"/><use xlink:href="#C" y="199.998" class="H"/><use xlink:href="#C" x="-24.181" y="199.998" class="I"/><g class="J"><use xlink:href="#D" y="200.001"/><use xlink:href="#E" y="200.001"/></g><path d="M1928.445 713.112v52.764h-52.764v-52.764z" class="F"/><use xlink:href="#B" y="300" class="G"/><use xlink:href="#C" y="300" class="H"/><use xlink:href="#C" x="-24.181" y="300" class="I"/><g class="J"><use xlink:href="#D" y="300"/><use xlink:href="#E" y="300.001"/></g><path d="M1928.445 813.11v52.764h-52.764V813.11z" class="F"/><use xlink:href="#B" y="399.998" class="G"/><use xlink:href="#C" y="399.998" class="H"/><use xlink:href="#C" x="-24.181" y="399.998" class="I"/><g class="J"><use xlink:href="#D" y="400.001"/><use xlink:href="#E" y="400.001"/></g><path d="M1828.445 413.113v52.764h-52.764v-52.764z" class="F"/><use xlink:href="#B" x="-100" class="G"/><use xlink:href="#C" x="-100" class="H"/><use xlink:href="#C" x="-124.181" class="I"/><g class="J"><use xlink:href="#D" x="-100"/><use xlink:href="#E" x="-100"/></g><path d="M1828.445 513.112v52.764h-52.764v-52.764z" class="F"/><use xlink:href="#B" x="-100" y="100" class="G"/><use xlink:href="#C" x="-100" y="100" class="H"/><use xlink:href="#C" x="-124.181" y="100" class="I"/><g class="J"><use xlink:href="#D" x="-100" y="100"/><use xlink:href="#E" x="-100" y="100"/></g><path d="M1828.445 613.11v52.764h-52.764V613.11z" class="F"/><use xlink:href="#B" x="-100" y="199.998" class="G"/><use xlink:href="#C" x="-100" y="199.998" class="H"/><use xlink:href="#C" x="-124.181" y="199.998" class="I"/><g class="J"><use xlink:href="#D" x="-100" y="200.001"/><use xlink:href="#E" x="-100" y="200.001"/></g><path d="M1828.445 713.112v52.764h-52.764v-52.764z" class="F"/><use xlink:href="#B" x="-100" y="300" class="G"/><use xlink:href="#C" x="-100" y="300" class="H"/><use xlink:href="#C" x="-124.181" y="300" class="I"/><g class="J"><use xlink:href="#D" x="-100" y="300"/><use xlink:href="#E" x="-100" y="300.001"/></g><path d="M1828.445 813.11v52.764h-52.764V813.11z" class="F"/><use xlink:href="#B" x="-100" y="399.998" class="G"/><use xlink:href="#C" x="-100" y="399.998" class="H"/><use xlink:href="#C" x="-124.181" y="399.998" class="I"/><g class="J"><use xlink:href="#D" x="-100" y="400.001"/><use xlink:href="#E" x="-100" y="400.001"/></g><path fill="#1a1a1a" d="M1743.92 555.445v168.097H1676V555.445z"/><g fill="#b3b3b3" class="N"><circle r="60" cy="1139.87" cx="1850.907" class="C"/><circle cx="1851.949" cy="1138.828" r="24" class="E"/><circle cx="1851.949" cy="145.077" r="60" class="C"/><circle r="24" cy="145.077" cx="1851.949" class="E"/></g><g class="B D"><path d="M63.438 46.817v45.208" class="E"/><g class="C"><path d="M2032.417 125.9h520.833m-471.874 438.427h160.417M2077.2 431.025h241.667m-286.46-152.93h291.667"/><path d="M2087.085 574.317V420.15m226.665 20.834V269.1m-271.395 18.75V123.275m508.578 368.75V43.066M2313.25 126.4V52.443m-280.832 1100.49h520.834"/><path d="M2078.25 685.67h160.417M2081.38 847.65h241.666"/><path d="M2032.417 996.942H2322m-234.322-303.875V856.6"/><path d="M2313.753 836.818v171.875M2042.417 988.9v164.584m508.333-360.417v448.96m-237.495-405.21v171.875m-1.045 133.333v100M1661.588 125.87H305.338"/></g></g><path d="M1243.245 43.9h78.343v35.773h-78.343zm0 42.566h78.343v35.773h-78.343z" fill="red" class="M Q"/><path d="M1611.588 575.146h-993.75" class="B C D"/><text x="1380.083" y="191.439" class="K L">B/C</text><path d="M1611.588 430.984h-1075" class="B C D"/><text y="253.721" x="1377.713" class="K L">CAL</text><path d="M1648.046 278.973H536.587m1065.205 305.76v-163.54" class="B C D"/><path fill="#fff" stroke-width="17.781" d="M1494.807 123.217h156.178v156.178h-156.178z" class="M"/><g class="B D"><path d="M1369 114.534v173.96" class="E"/><path d="M545.88 440.984V269.1m1105.917 19.8V124.317M546.38 440.984V269.1m0-143.75V51.4m1101.662 1101.46H305.333" class="C"/></g><path d="M1243.245 1149.73h78.343v35.773h-78.343zm0 42.57h78.343v35.773h-78.343z" fill="red" class="M Q"/><g class="B C D"><path d="M1611.583 685.67h-993.75m993.75 161.98h-1075"/><path d="M1656.375 999.755H536.583m1065.21-324.397V857.65"/><path d="M545.876 837.86v171.875m1106.41-19.793v172.917m-1105.913-325v171.875m.006 138.54v105.208"/></g><path fill="#999" stroke-width="24" d="M80.44 744.314V544.106" class="N"/><g class="B C D"><path d="M440.848 854.85L239.316 752.638m394.082-228.34l-202-91.214"/><path d="M237.3 534.473L439.8 432.86m-7.917 422.367l200.415-115.003"/><path d="M243.927 752.885v-217.71M626.992 748.02V515.728"/></g><circle transform="scale(1 -1)" cx="435.917" cy="-644.239" fill="#fff" stroke="#666" r="88" class="C"/><path d="M253.823 753.437H59.03M253.77 534.3H58.98" class="B D C"/><path d="M2701.167 192.025h100v100h-100z"/><path fill="red" d="M2702.21 994.11h100v100h-100z"/><path fill="#0f0" d="M71.875 192.317h100v100h-100z"/><path fill="#fff" d="M72 994.11h100v100H72z"/><text y="1064.274" x="74.513" class="K L">M+</text><text x="78.196" y="259.572" class="K L">M-</text><text y="263.981" x="2568.245" class="K L">GND</text><text x="2568.245" y="1065.023" class="K L">+Vin</text><text x="2568.245" y="458.773" class="K L">CAN</text><defs ><path id="B" d="M1918.028 423.53v31.93h-31.93v-31.93z"/><path id="C" d="M1918.028 423.53v31.93h-7.75v-31.93z"/><path id="D" d="M1918.028 423.527h-31.93l7.75 7.75h16.43z"/><path id="E" d="M1918.028 455.457h-31.93l7.75-7.75h16.43z"/></defs></svg>