<?xml version='1.0' encoding='utf-8'?>
<!DOCTYPE svg>
<!-- Generator: Adobe Illustrator 16.0.0, SVG Export Plug-In . SVG Version: 6.00 Build 0)  -->
<svg xmlns="http://www.w3.org/2000/svg" y="0px" xmlns:xml="http://www.w3.org/XML/1998/namespace" width="2.75597in" enable-background="new 0 0 198.43 85.04" xml:space="preserve" viewBox="0 0 198.43 85.04" height="1.18111in" gorn="0"  id="Layer_1" x="0px" version="1.1">
    <desc >
        <referenceFile >Talon.svg</referenceFile>
    </desc>
    <rect width="198.43" height="85.04"  fill="#414042"/>
    <rect width="16.833" height="34.333" />
    <rect y="50.707" width="16.833" height="34.333" />
    <rect width="16.834" height="34.333"  x="181.596"/>
    <rect y="50.707" width="16.834" height="34.333"  x="181.596"/>
    <rect width="154.167" height="4.667"  x="22"/>
    <rect y="80.5" width="154.167" height="4.666"  x="22"/>
    <rect y="36.667" width="134.167" height="11.667"  x="36"/>
    <rect y="17.167" width="154.167" height="7.833"  x="22"/>
    <rect y="59.666" width="154.167" height="7.834"  x="22"/>
    <g  transform="matrix(-4.371139e-008 -1 1 -4.371139e-008 14.2798 21.084)">
        <g >
            <text font-family="Droid Sans"  fill="#8DC63F" font-size="12">V+</text>
        </g>
    </g>
    <g  transform="matrix(-4.371139e-008 -1 1 -4.371139e-008 14.2798 78.2354)">
        <g >
            <text font-family="Droid Sans"  fill="#8DC63F" font-size="12">GND</text>
        </g>
    </g>
    <g  transform="matrix(-4.371139e-008 -1 1 -4.371139e-008 192.7793 25)">
        <g >
            <text font-family="Droid Sans"  fill="#8DC63F" font-size="12">m+</text>
        </g>
    </g>
    <g  transform="matrix(-4.371139e-008 -1 1 -4.371139e-008 192.7793 75.1152)">
        <g >
            <text font-family="Droid Sans"  fill="#8DC63F" font-size="12">m-</text>
        </g>
    </g>
    <rect y="56" width="3.096" height="24.5"  fill="#00A79D" x="195.334"/>
    <rect y="4.917" width="3.096" height="24.5"  fill="#FFFFFF" x="195.334"/>
    <rect y="55.791" width="3.096" height="24.5" stroke-miterlimit="10"  stroke-width="1" stroke="#58595B"/>
    <rect y="4.708" width="3.096" height="24.5"  fill="#ED1C24"/>
    <rect y="78.235" width="8.75" height="6.931" stroke-miterlimit="10"  fill="#FFF200" stroke-width="1" x="23.75" stroke="#58595B"/>
    <rect y="78.235" width="8.75" height="6.931" stroke-miterlimit="10"  fill="#39B54A" stroke-width="1" x="32.5" stroke="#58595B"/>
    <rect y="78.235" width="8.75" height="6.931" stroke-miterlimit="10"  fill="#FFF200" stroke-width="1" x="41.25" stroke="#58595B"/>
    <rect y="78.235" width="8.75" height="6.931" stroke-miterlimit="10"  fill="#39B54A" stroke-width="1" x="50" stroke="#58595B"/>
</svg>
