<?xml version="1.0" encoding="UTF-8" standalone="no"?>
<svg
   xmlns:dc="http://purl.org/dc/elements/1.1/"
   xmlns:cc="http://creativecommons.org/ns#"
   xmlns:rdf="http://www.w3.org/1999/02/22-rdf-syntax-ns#"
   xmlns:svg="http://www.w3.org/2000/svg"
   xmlns="http://www.w3.org/2000/svg"
   xmlns:sodipodi="http://sodipodi.sourceforge.net/DTD/sodipodi-0.dtd"
   xmlns:inkscape="http://www.inkscape.org/namespaces/inkscape"
   width="3.093734mm"
   x="0px"
   version="1.0"
   y="0px"
   height="10.303435mm"
   viewBox="0 0 8.7696223 29.206589"
   id="svg2"
   inkscape:version="0.91 r13725"
   sodipodi:docname="tc38h.svg">
  <metadata
     id="metadata55">
    <rdf:RDF>
      <cc:Work
         rdf:about="">
        <dc:format>image/svg+xml</dc:format>
        <dc:type
           rdf:resource="http://purl.org/dc/dcmitype/StillImage" />
        <dc:title></dc:title>
      </cc:Work>
    </rdf:RDF>
  </metadata>
  <defs
     id="defs53" />
  <sodipodi:namedview
     pagecolor="#ffffff"
     bordercolor="#666666"
     borderopacity="1"
     objecttolerance="10"
     gridtolerance="10"
     guidetolerance="10"
     inkscape:pageopacity="0"
     inkscape:pageshadow="2"
     inkscape:window-width="1015"
     inkscape:window-height="717"
     id="namedview51"
     showgrid="false"
     inkscape:zoom="4.3086333"
     inkscape:cx="1.3842088"
     inkscape:cy="26.323314"
     inkscape:window-x="855"
     inkscape:window-y="165"
     inkscape:window-maximized="0"
     inkscape:current-layer="svg2"
     fit-margin-top="0"
     fit-margin-left="0"
     fit-margin-right="0"
     fit-margin-bottom="0"
     inkscape:document-units="mm"
     units="mm" />
  <g
     transform="matrix(0,-0.9999999,1.0000001,0,-19.275311,80.66079)"
     id="g10646">
    <path
       inkscape:connector-curvature="0"
       id="path10642"
       d="m 52.259987,20.085131 c 1.451699,2.488583 4.062494,1.739409 6.40441,2.356823"
       style="fill:#cccccc;fill-opacity:1;fill-rule:evenodd;stroke:#d1d1d1;stroke-width:1.60000002;stroke-linecap:round;stroke-linejoin:miter;stroke-miterlimit:4;stroke-dasharray:none;stroke-opacity:1" />
    <path
       style="fill:#cccccc;fill-opacity:1;fill-rule:evenodd;stroke:#d1d1d1;stroke-width:1.60000002;stroke-linecap:round;stroke-linejoin:miter;stroke-miterlimit:4;stroke-dasharray:none;stroke-opacity:1"
       d="m 52.259987,27.235065 c 1.451699,-2.488583 4.062494,-1.739409 6.40441,-2.356823"
       id="path10644"
       inkscape:connector-curvature="0" />
    <g
       transform="matrix(0,0.64326613,-0.64326613,0,80.817657,18.759615)"
       id="g13">
      <ellipse
         id="ellipse15"
         cy="34.992001"
         cx="7.7280502"
         ry="3.4030001"
         rx="6.4000201"
         style="fill:#727272" />
      <g
         id="g17">
        <path
           d="m 13.8851,34.481 c 0,1.877 -2.75401,3.402 -6.15802,3.402 -1.701,0 -3.24101,-0.381 -4.35601,-0.996998 -1.115,-0.616 -1.804,-1.467 -1.804,-2.405 0,-0.939002 0.689001,-1.791 1.804,-2.407 1.115,-0.616 2.65501,-0.997999 4.35601,-0.997999 1.702,0 3.24101,0.382 4.35501,0.997999 1.11401,0.616 1.803,1.467 1.803,2.407 z"
           id="path19"
           inkscape:connector-curvature="0"
           style="fill:#b5b5b5" />
        <path
           d="m 2.504,17.868 c 0.557001,-0.308 4.37301,-0.499 5.22301,-0.499 0.397001,0 2.3,0.042 2.64701,0.117 0.398001,0.086 2.27801,0.217 2.57601,0.382 0.557001,0.308 0.9,8.56699 0.9,9.036 0,0.729 -0.829001,9.18497 -1.99801,9.42703 -0.168,0.034 -1.865,0.062 -2.046,0.08 -0.181,0.018 -1.89001,0.027 -2.08,0.027 -0.851004,0 -4.66601,-0.19 -5.22301,-0.498 C 1.946,35.631 1.60101,27.374 1.60101,26.904 1.602,26.435 1.947,18.176 2.504,17.868 Z"
           id="path21"
           inkscape:connector-curvature="0"
           style="fill:#b5b5b5" />
        <polygon
           id="polygon23"
           points="1.63701,19.327 1.63701,3.662 7.72704,3.662 10.773,3.662 13.818,3.662 13.818,19.327 13.818,34.992 10.773,34.992 7.72704,34.992 1.63701,34.992 "
           style="fill:#b5b5b5" />
      </g>
      <path
         d="M 1.67201,3.289 1.567,34.481 c 0,0 -0.204,0.875002 0.904003,1.773 l 0,-30.894 C 1.657,4.956 1.67201,3.289 1.67201,3.289 Z"
         id="path25"
         inkscape:connector-curvature="0"
         style="fill:#404040" />
      <path
         d="M 2.471,5.36 2.300999,36.222 c 0.763999,0.6 1.062,0.813002 1.84401,1.076 L 4.14701,6.456 C 3.22301,5.945 2.471,5.36 2.471,5.36 Z"
         id="path27"
         inkscape:connector-curvature="0"
         style="fill:#8c8c8c" />
      <path
         d="m 7.29101,7.051 -0.14,30.814 c 0,0 3.18801,0.062 3.80801,-0.65 L 10.963,6.525 C 9.95803,7.051 7.29101,7.051 7.29101,7.051 Z"
         id="path29"
         inkscape:connector-curvature="0"
         style="fill:#dbdbdb" />
      <path
         d="m 4.14701,6.42 -10e-4,30.961 c 1.41201,0.568 2.09501,0.603 3.58201,0.587 L 7.848,7.004 C 6.20701,7.26401 4.14701,6.42 4.14701,6.42 Z"
         id="path31"
         inkscape:connector-curvature="0"
         style="fill:#b5b5b5" />
      <g
         id="g33">
        <ellipse
           transform="matrix(1,-0.0025,0.0025,1,-0.009,0.0192)"
           id="ellipse35"
           cy="3.6470001"
           cx="7.7270398"
           ry="3.4030001"
           rx="6.0910101"
           style="fill:#bfbfbf" />
        <g
           id="g55"
           style="opacity:0.4">
          <g
             id="g57">
            <path
               d="m 2.16901,3.628 c 0,-1.325 1.959,-2.435 2.603,-2.758002 C 4.08501,0.918 2.05001,2.138 2.05001,3.643 c 0,1.534 3.33101,2.781 4.038,2.781 0.918,0 2.38401,0 2.39,0 C 5.168,6.424 2.169,4.991 2.169,3.628 Z"
               id="path59"
               inkscape:connector-curvature="0"
               style="fill:#ffffff" />
          </g>
        </g>
        <g
           id="g61"
           style="opacity:0.4">
          <g
             id="g63">
            <path
               d="m 10.612,0.718 c 0.645001,0.307 2.713,1.334 2.713,2.571 0,1.262 -1.251,2.325 -1.922,2.6 0,0 -2.93301,0.535 -2.92501,0.535 2.479,0.098 4.96601,-1.682 4.96601,-3.122 0,-1.406 -2.14301,-2.538 -2.832,-2.584 z"
               id="path65"
               inkscape:connector-curvature="0"
               style="fill:#878787" />
          </g>
        </g>
      </g>
    </g>
  </g>
</svg>
