<?xml version="1.0" encoding="utf-8"?>
<!-- Generator: Adobe Illustrator 20.0.0, SVG Export Plug-In . SVG Version: 6.00 Build 0)  -->
<svg version="1.2" baseProfile="tiny" id="Layer_1" xmlns="http://www.w3.org/2000/svg" xmlns:xlink="http://www.w3.org/1999/xlink"
	 x="0px" y="0px" width="5.669px" height="6.803px" viewBox="0 0 5.669 6.803" xml:space="preserve">
<g>
	<rect fill="#D2D2B4" width="5.669" height="6.803"/>
	<path fill="#DCDCDC" d="M0.283,5.811V5.669H0v-0.85h0.283V4.677h1.488V3.969H0.283V3.827H0v-0.85h0.283V2.835h1.488V2.126H0.283
		V1.984H0v-0.85h0.283V0.992H0.78c0.157,0,0.283-0.127,0.283-0.283V0.355h0.496l0.354,0.354h1.276V0.355h1.417v0.354
		c0,0.157,0.127,0.283,0.283,0.283h0.496v0.142h0.284v0.85H5.386v0.142H3.897v0.709h1.489v0.142h0.284v0.85H5.386v0.142H3.897v0.709
		h1.489v0.142h0.284v0.85H5.386v0.142H4.889c-0.157,0-0.283,0.127-0.283,0.283v0.354H3.189V6.094H2.48v0.354H1.063V6.095
		c0-0.157-0.127-0.283-0.283-0.283H0.283z"/>
	<rect x="1.276" y="0.567" fill="#AA8246" width="3.118" height="5.669"/>
	<rect x="2.486" y="2.469" fill="#554123" width="1.049" height="1.134"/>
</g>
</svg>
