<?xml version="1.0" encoding="UTF-8" standalone="no"?>
<!-- Generator: Adobe Illustrator 20.0.0, SVG Export Plug-In . SVG Version: 6.00 Build 0)  -->

<svg
   xmlns:dc="http://purl.org/dc/elements/1.1/"
   xmlns:cc="http://creativecommons.org/ns#"
   xmlns:rdf="http://www.w3.org/1999/02/22-rdf-syntax-ns#"
   xmlns:svg="http://www.w3.org/2000/svg"
   xmlns="http://www.w3.org/2000/svg"
   xmlns:sodipodi="http://sodipodi.sourceforge.net/DTD/sodipodi-0.dtd"
   xmlns:inkscape="http://www.inkscape.org/namespaces/inkscape"
   version="1.2"
   id="Layer_1"
   x="0px"
   y="0px"
   width="18.299999mm"
   height="6.999999mm"
   viewBox="0 0 64.842514 24.803146"
   xml:space="preserve"
   inkscape:version="0.91 r13725"
   sodipodi:docname="termblock_1x5-3.5mm.svg"><metadata
     id="metadata31"><rdf:RDF><cc:Work
         rdf:about=""><dc:format>image/svg+xml</dc:format><dc:type
           rdf:resource="http://purl.org/dc/dcmitype/StillImage" /><dc:title /></cc:Work></rdf:RDF></metadata><defs
     id="defs29" /><sodipodi:namedview
     pagecolor="#ffffff"
     bordercolor="#666666"
     borderopacity="1"
     objecttolerance="10"
     gridtolerance="10"
     guidetolerance="10"
     inkscape:pageopacity="0"
     inkscape:pageshadow="2"
     inkscape:window-width="1666"
     inkscape:window-height="841"
     id="namedview27"
     showgrid="false"
     inkscape:document-units="mm"
     units="mm"
     inkscape:zoom="14.898813"
     inkscape:cx="34.300446"
     inkscape:cy="11.818052"
     inkscape:window-x="243"
     inkscape:window-y="83"
     inkscape:window-maximized="0"
     inkscape:current-layer="Layer_1"
     fit-margin-top="0"
     fit-margin-left="0"
     fit-margin-right="0"
     fit-margin-bottom="0" /><rect
     x="23.385681"
     y="15.235879"
     width="2.8349309"
     height="6.3773451"
     id="rect3"
     style="fill:#000000" /><rect
     x="24.803146"
     y="1.4174645"
     width="2.8349309"
     height="2.8349309"
     id="rect5"
     style="fill:#000000" /><path
     style="fill:#333333"
     d="M 64.756105,-0.13423984 1.4174655,-9.5367432e-7 1.4174655,17.007085 0,17.007085 l 0,2.834931 1.4174655,0 0,3.188673 63.3386395,-0.134239 0,-3.188673 -1.416215,0 0,-2.834931 1.416215,0 z"
     id="polygon7"
     inkscape:connector-curvature="0"
     sodipodi:nodetypes="ccccccccccccc" /><circle
     cx="7.6185641"
     cy="12.400948"
     r="4.6061378"
     id="circle9"
     style="fill:#b4b4b4" /><circle
     cx="20.019514"
     cy="12.400948"
     r="4.6061378"
     id="circle11"
     style="fill:#b4b4b4" /><rect
     x="3.1886725"
     y="1.7712059"
     width="9.2122755"
     height="3.543664"
     id="rect13"
     style="fill:#000000" /><polygon
     points="20.976,19.843 20.976,17.008 1.134,17.008 1.134,19.843 4.677,19.843 4.677,18.089 7.512,18.089 7.512,19.843 14.598,19.843 14.598,18.089 17.433,18.089 17.433,19.843 "
     id="polygon17"
     style="fill:#000000"
     transform="scale(1.2499696,1.2499696)" /><rect
     x="2.303694"
     y="22.255707"
     width="10.629741"
     height="2.1261983"
     id="rect19"
     style="fill:#8c8c8c" /><rect
     x="14.704642"
     y="22.255707"
     width="10.629741"
     height="2.1261983"
     id="rect21"
     style="fill:#8c8c8c" /><path
     d="m 7.7273119,8.7035375 -2.0537,0.5499866 0.6424844,2.3961919 -3.2911699,0.882479 c 0.010004,0.352491 0.048749,0.706233 0.1437465,1.061224 0.094998,0.354991 0.2387442,0.681233 0.4062401,0.991226 l 3.2911699,-0.882478 0.6424844,2.396191 2.0537,-0.549987 L 8.9197829,13.15218 12.210953,12.2697 c -0.01003,-0.351241 -0.04874,-0.706231 -0.143747,-1.059973 -0.095,-0.353742 -0.238744,-0.682484 -0.40624,-0.992476 L 8.3697964,11.09973 7.7273119,8.7035375 Z"
     id="path23"
     inkscape:connector-curvature="0"
     style="fill:#646464" /><path
     d="m 16.87209,10.457245 -0.549987,2.0537 2.396191,0.642485 -0.882478,3.29117 c 0.309992,0.167495 0.636234,0.311242 0.991226,0.40624 0.354991,0.095 0.709983,0.133746 1.061224,0.143746 l 0.882479,-3.29117 2.396192,0.642484 0.549986,-2.0537 -2.396192,-0.642484 0.882479,-3.2911701 C 21.893217,8.19105 21.566975,8.0473035 21.211984,7.9523058 20.856992,7.8573081 20.502001,7.818559 20.150759,7.8085593 L 19.267031,11.09973 16.87209,10.457245 Z"
     id="path25"
     inkscape:connector-curvature="0"
     style="fill:#646464" /><circle
     style="fill:#b4b4b4"
     id="circle4173"
     r="4.6061378"
     cy="12.400948"
     cx="32.421165" /><circle
     style="fill:#b4b4b4"
     id="circle4175"
     r="4.6061378"
     cy="12.400948"
     cx="44.822117" /><polygon
     transform="matrix(1.2499696,0,0,1.2499696,24.803007,-9.5367432e-7)"
     style="fill:#000000"
     id="polygon4198"
     points="20.976,17.008 1.134,17.008 1.134,19.843 4.677,19.843 4.677,18.089 7.512,18.089 7.512,19.843 14.598,19.843 14.598,18.089 17.433,18.089 17.433,19.843 20.976,19.843 " /><rect
     style="fill:#8c8c8c"
     id="rect4181"
     height="2.1261983"
     width="10.629741"
     y="22.255707"
     x="27.106297" /><polygon
     points="1.134,19.843 4.677,19.843 4.677,18.089 7.512,18.089 7.512,19.843 14.598,19.843 14.598,18.089 17.433,18.089 17.433,19.843 20.976,19.843 20.976,17.008 1.134,17.008 "
     id="polygon4200"
     style="fill:#000000"
     transform="matrix(1.3142408,0,0,1.2499696,37.131698,-9.5367432e-7)" /><rect
     style="fill:#8c8c8c"
     id="rect4183"
     height="2.1261983"
     width="10.629741"
     y="22.255707"
     x="39.507244" /><path
     style="fill:#646464"
     inkscape:connector-curvature="0"
     id="path4185"
     d="m 32.529914,8.7035375 -2.0537,0.5499866 0.642484,2.3961919 -3.29117,0.882479 c 0.01,0.352491 0.04875,0.706233 0.143747,1.061224 0.095,0.354991 0.238744,0.681233 0.40624,0.991226 l 3.29117,-0.882478 0.642484,2.396191 2.0537,-0.549987 -0.642484,-2.396191 3.29117,-0.88248 c -0.01003,-0.351241 -0.04874,-0.706231 -0.143747,-1.059973 -0.095,-0.353742 -0.238744,-0.682484 -0.40624,-0.992476 l -3.29117,0.882479 -0.642484,-2.3961925 z" /><path
     style="fill:#646464"
     inkscape:connector-curvature="0"
     id="path4187"
     d="m 41.674692,10.457245 -0.549987,2.0537 2.396191,0.642485 -0.882478,3.29117 c 0.309992,0.167495 0.636234,0.311242 0.991226,0.40624 0.354991,0.095 0.709983,0.133746 1.061224,0.143746 l 0.882479,-3.29117 2.396192,0.642484 0.549986,-2.0537 -2.396192,-0.642484 0.882479,-3.2911701 C 46.695819,8.19105 46.369577,8.0473035 46.014586,7.9523058 45.659594,7.8573081 45.304603,7.818559 44.953361,7.8085593 L 44.069633,11.09973 41.674692,10.457245 Z" /><circle
     cx="57.224056"
     cy="12.400948"
     r="4.6061378"
     id="circle4189"
     style="fill:#b4b4b4" /><rect
     x="51.909184"
     y="22.255707"
     width="10.629741"
     height="2.1261983"
     id="rect4193"
     style="fill:#8c8c8c" /><path
     d="m 54.076633,10.457245 -0.549987,2.0537 2.396191,0.642485 -0.882478,3.29117 c 0.309992,0.167495 0.636234,0.311242 0.991226,0.40624 0.354991,0.095 0.709983,0.133746 1.061224,0.143746 l 0.882479,-3.29117 2.396192,0.642484 0.549986,-2.0537 -2.396192,-0.642484 0.882479,-3.2911701 C 59.09776,8.19105 58.771518,8.0473035 58.416527,7.9523058 58.061535,7.8573081 57.706544,7.818559 57.355302,7.8085593 L 56.471574,11.09973 54.076633,10.457245 Z"
     id="path4195"
     inkscape:connector-curvature="0"
     style="fill:#646464" /><rect
     style="fill:#000000"
     id="rect4202"
     height="3.543664"
     width="9.2122755"
     y="1.7712059"
     x="15.590551" /><rect
     style="fill:#000000"
     id="rect4206"
     height="3.543664"
     width="9.2122755"
     y="1.7712059"
     x="27.992126" /><rect
     x="40.394005"
     y="1.7712059"
     width="9.2122755"
     height="3.543664"
     id="rect4208"
     style="fill:#000000" /><rect
     style="fill:#000000"
     id="rect4210"
     height="3.543664"
     width="9.2122755"
     y="1.7712059"
     x="52.795277" /></svg>