<?xml version="1.0" encoding="UTF-8" standalone="no"?>
<!-- Generator: Adobe Illustrator 20.0.0, SVG Export Plug-In . SVG Version: 6.00 Build 0)  -->

<svg
   xmlns:dc="http://purl.org/dc/elements/1.1/"
   xmlns:cc="http://creativecommons.org/ns#"
   xmlns:rdf="http://www.w3.org/1999/02/22-rdf-syntax-ns#"
   xmlns:svg="http://www.w3.org/2000/svg"
   xmlns="http://www.w3.org/2000/svg"
   xmlns:sodipodi="http://sodipodi.sourceforge.net/DTD/sodipodi-0.dtd"
   xmlns:inkscape="http://www.inkscape.org/namespaces/inkscape"
   version="1.2"
   id="Layer_1"
   x="0px"
   y="0px"
   width="7.8000803mm"
   height="7mm"
   viewBox="0 0 27.638079 24.803149"
   xml:space="preserve"
   inkscape:version="0.91 r13725"
   sodipodi:docname="termblock_1x2-3.5mm.svg"><metadata
     id="metadata31"><rdf:RDF><cc:Work
         rdf:about=""><dc:format>image/svg+xml</dc:format><dc:type
           rdf:resource="http://purl.org/dc/dcmitype/StillImage" /><dc:title /></cc:Work></rdf:RDF></metadata><defs
     id="defs29" /><sodipodi:namedview
     pagecolor="#ffffff"
     bordercolor="#666666"
     borderopacity="1"
     objecttolerance="10"
     gridtolerance="10"
     guidetolerance="10"
     inkscape:pageopacity="0"
     inkscape:pageshadow="2"
     inkscape:window-width="1666"
     inkscape:window-height="861"
     id="namedview27"
     showgrid="false"
     inkscape:document-units="mm"
     units="mm"
     fit-margin-top="0"
     fit-margin-left="0"
     fit-margin-right="0"
     fit-margin-bottom="0"
     inkscape:zoom="11.893363"
     inkscape:cx="-4.3317329"
     inkscape:cy="9.9215025"
     inkscape:window-x="523"
     inkscape:window-y="36"
     inkscape:window-maximized="0"
     inkscape:current-layer="Layer_1" /><rect
     x="23.385681"
     y="15.23588"
     width="2.8349309"
     height="6.3773451"
     id="rect3"
     style="fill:#000000" /><rect
     x="24.803146"
     y="1.4174654"
     width="2.8349309"
     height="2.8349309"
     id="rect5"
     style="fill:#000000" /><polygon
     points="20.976,0 1.134,0 1.134,13.606 0,13.606 0,15.874 1.134,15.874 1.134,18.425 20.976,18.425 20.976,15.874 19.843,15.874 19.843,13.606 20.976,13.606 "
     id="polygon7"
     style="fill:#333333"
     transform="scale(1.2499696,1.2499696)" /><circle
     cx="7.6185641"
     cy="12.400949"
     r="4.6061378"
     id="circle9"
     style="fill:#b4b4b4" /><circle
     cx="20.019514"
     cy="12.400949"
     r="4.6061378"
     id="circle11"
     style="fill:#b4b4b4" /><rect
     x="3.1886725"
     y="1.7712069"
     width="9.2122755"
     height="3.543664"
     id="rect13"
     style="fill:#000000" /><rect
     x="14.173405"
     y="1.7712069"
     width="9.2122755"
     height="3.543664"
     id="rect15"
     style="fill:#000000" /><polygon
     points="1.134,19.843 4.677,19.843 4.677,18.089 7.512,18.089 7.512,19.843 14.598,19.843 14.598,18.089 17.433,18.089 17.433,19.843 20.976,19.843 20.976,17.008 1.134,17.008 "
     id="polygon17"
     style="fill:#000000"
     transform="scale(1.2499696,1.2499696)" /><rect
     x="2.303694"
     y="22.255709"
     width="10.629741"
     height="2.1261983"
     id="rect19"
     style="fill:#8c8c8c" /><rect
     x="14.704642"
     y="22.255709"
     width="10.629741"
     height="2.1261983"
     id="rect21"
     style="fill:#8c8c8c" /><path
     d="m 7.7273119,8.7035385 -2.0537,0.5499866 0.6424844,2.3961919 -3.2911699,0.882479 c 0.010004,0.352491 0.048749,0.706233 0.1437465,1.061224 0.094998,0.354991 0.2387442,0.681233 0.4062401,0.991226 l 3.2911699,-0.882478 0.6424844,2.396191 2.0537,-0.549987 -0.6424844,-2.396191 3.2911701,-0.88248 c -0.01003,-0.351241 -0.04874,-0.706231 -0.143747,-1.059973 -0.095,-0.353742 -0.238744,-0.682484 -0.40624,-0.992476 L 8.3697964,11.099731 7.7273119,8.7035385 Z"
     id="path23"
     inkscape:connector-curvature="0"
     style="fill:#646464" /><path
     d="m 16.87209,10.457246 -0.549987,2.0537 2.396191,0.642485 -0.882478,3.29117 c 0.309992,0.167495 0.636234,0.311242 0.991226,0.40624 0.354991,0.095 0.709983,0.133746 1.061224,0.143746 l 0.882479,-3.29117 2.396192,0.642484 0.549986,-2.0537 -2.396192,-0.642484 0.882479,-3.2911701 C 21.893217,8.191051 21.566975,8.0473045 21.211984,7.9523068 20.856992,7.8573091 20.502001,7.81856 20.150759,7.8085603 L 19.267031,11.099731 16.87209,10.457246 Z"
     id="path25"
     inkscape:connector-curvature="0"
     style="fill:#646464" /></svg>