<?xml version="1.0" encoding="UTF-8" standalone="no"?>
<!-- Generator: Adobe Illustrator 20.0.0, SVG Export Plug-In . SVG Version: 6.00 Build 0)  -->

<svg
   xmlns:dc="http://purl.org/dc/elements/1.1/"
   xmlns:cc="http://creativecommons.org/ns#"
   xmlns:rdf="http://www.w3.org/1999/02/22-rdf-syntax-ns#"
   xmlns:svg="http://www.w3.org/2000/svg"
   xmlns="http://www.w3.org/2000/svg"
   xmlns:sodipodi="http://sodipodi.sourceforge.net/DTD/sodipodi-0.dtd"
   xmlns:inkscape="http://www.inkscape.org/namespaces/inkscape"
   version="1.2"
   id="Layer_1"
   x="0px"
   y="0px"
   width="0.40000001in"
   height="0.29916078in"
   viewBox="0 0 36.000001 26.92447"
   xml:space="preserve"
   inkscape:version="0.92.4 (5da689c313, 2019-01-14)"
   sodipodi:docname="termblock_1x2_5.08mm.svg"><metadata
     id="metadata31"><rdf:RDF><cc:Work
         rdf:about=""><dc:format>image/svg+xml</dc:format><dc:type
           rdf:resource="http://purl.org/dc/dcmitype/StillImage" /><dc:title /></cc:Work></rdf:RDF></metadata><defs
     id="defs29" /><sodipodi:namedview
     pagecolor="#ffffff"
     bordercolor="#666666"
     borderopacity="1"
     objecttolerance="10"
     gridtolerance="10"
     guidetolerance="10"
     inkscape:pageopacity="0"
     inkscape:pageshadow="2"
     inkscape:window-width="1666"
     inkscape:window-height="861"
     id="namedview27"
     showgrid="false"
     inkscape:document-units="in"
     units="in"
     fit-margin-top="0"
     fit-margin-left="0"
     fit-margin-right="0"
     fit-margin-bottom="0"
     inkscape:zoom="23.050593"
     inkscape:cx="19.2"
     inkscape:cy="17.830344"
     inkscape:window-x="85"
     inkscape:window-y="165"
     inkscape:window-maximized="0"
     inkscape:current-layer="Layer_1" /><g
     id="g8158"
     transform="rotate(-180,18.000001,13.462236)"><rect
       y="3.3833683e-09"
       x="1.8209229e-06"
       height="24.738379"
       width="36"
       id="rect4160"
       style="opacity:1;fill:#333333;fill-opacity:1" /><rect
       y="23.381165"
       x="-3.2812501e-14"
       height="3.5433071"
       width="36"
       id="rect4237"
       style="opacity:1;fill:#000000;fill-opacity:1;stroke:none;stroke-width:4.22716522;stroke-linecap:butt;stroke-linejoin:miter;stroke-miterlimit:10;stroke-dasharray:none;stroke-opacity:1" /><rect
       style="fill:#000000"
       id="rect13"
       height="3.8899806"
       width="12.40174"
       y="1.6203189"
       x="3.0425196" /><g
       transform="matrix(1.2263679,0,0,1.2263516,1.057923,-1.3598282)"
       id="g4180"><g
         id="g4177"><circle
           style="fill:#b4b4b4"
           id="circle9"
           r="5.0562882"
           cy="13.356051"
           cx="6.720654" /></g><path
         d="m 7.5471383,11.930645 -2.2583866,0.614 0.00215,-0.01324 -3.6128108,0.968722 c 0.010977,0.38694 0.053514,0.775252 0.1577952,1.164936 0.1042842,0.389684 0.2620761,0.747809 0.4459412,1.088097 l 3.6128108,-0.968721 0.016472,-0.0057 2.2387798,-0.595924 -8.47e-4,-0.0022 3.6128111,-0.968723 c -0.01101,-0.385567 -0.0535,-0.77525 -0.157796,-1.163562 -0.104284,-0.388313 -0.262076,-0.749182 -0.445941,-1.089469 L 7.5453044,11.92767 Z"
         id="path23"
         inkscape:connector-curvature="0"
         style="fill:#646464"
         sodipodi:nodetypes="ccccscccccccccc" /></g><rect
       style="fill:#8c8c8c"
       id="rect19"
       height="2.3339882"
       width="12.40174"
       y="23.919241"
       x="3.0710533" /><rect
       x="21.042521"
       y="1.6203189"
       width="12.40174"
       height="3.8899806"
       id="rect4209"
       style="fill:#000000" /><g
       id="g4211"
       transform="matrix(1.2263679,0,0,1.2263516,19.057923,-1.3598282)"><g
         id="g4213"><circle
           cx="6.720654"
           cy="13.356051"
           r="5.0562882"
           id="circle4215"
           style="fill:#b4b4b4" /></g><path
         sodipodi:nodetypes="ccccscccccccccc"
         style="fill:#646464"
         inkscape:connector-curvature="0"
         id="path4217"
         d="m 7.5471383,11.930645 -2.2583866,0.614 0.00215,-0.01324 -3.6128108,0.968722 c 0.010977,0.38694 0.053514,0.775252 0.1577952,1.164936 0.1042842,0.389684 0.2620761,0.747809 0.4459412,1.088097 l 3.6128108,-0.968721 0.016472,-0.0057 2.2387798,-0.595924 -8.47e-4,-0.0022 3.6128111,-0.968723 c -0.01101,-0.385567 -0.0535,-0.77525 -0.157796,-1.163562 -0.104284,-0.388313 -0.262076,-0.749182 -0.445941,-1.089469 L 7.5453044,11.92767 Z" /></g><rect
       x="21.071053"
       y="23.919241"
       width="12.40174"
       height="2.3339882"
       id="rect4219"
       style="fill:#8c8c8c" /></g></svg>