<?xml version="1.0" encoding="UTF-8" standalone="no"?>
<!-- Generator: Adobe Illustrator 20.0.0, SVG Export Plug-In . SVG Version: 6.00 Build 0)  -->

<svg
   xmlns:dc="http://purl.org/dc/elements/1.1/"
   xmlns:cc="http://creativecommons.org/ns#"
   xmlns:rdf="http://www.w3.org/1999/02/22-rdf-syntax-ns#"
   xmlns:svg="http://www.w3.org/2000/svg"
   xmlns="http://www.w3.org/2000/svg"
   xmlns:sodipodi="http://sodipodi.sourceforge.net/DTD/sodipodi-0.dtd"
   xmlns:inkscape="http://www.inkscape.org/namespaces/inkscape"
   version="1.2"
   id="Layer_1"
   x="0px"
   y="0px"
   width="15.24mm"
   height="7.5999999mm"
   viewBox="0 0 53.999997 26.929134"
   xml:space="preserve"
   inkscape:version="0.91 r13725"
   sodipodi:docname="termblock_1x3_5.08mm.svg"><metadata
     id="metadata31"><rdf:RDF><cc:Work
         rdf:about=""><dc:format>image/svg+xml</dc:format><dc:type
           rdf:resource="http://purl.org/dc/dcmitype/StillImage" /><dc:title></dc:title></cc:Work></rdf:RDF></metadata><defs
     id="defs29" /><sodipodi:namedview
     pagecolor="#ffffff"
     bordercolor="#666666"
     borderopacity="1"
     objecttolerance="10"
     gridtolerance="10"
     guidetolerance="10"
     inkscape:pageopacity="0"
     inkscape:pageshadow="2"
     inkscape:window-width="1666"
     inkscape:window-height="861"
     id="namedview27"
     showgrid="false"
     inkscape:document-units="mm"
     units="mm"
     fit-margin-top="0"
     fit-margin-left="0"
     fit-margin-right="0"
     fit-margin-bottom="0"
     inkscape:zoom="16"
     inkscape:cx="35.651063"
     inkscape:cy="14.018231"
     inkscape:window-x="604"
     inkscape:window-y="158"
     inkscape:window-maximized="0"
     inkscape:current-layer="Layer_1" /><rect
     style="opacity:1;fill:#015dd9;fill-opacity:1"
     id="rect4160"
     width="53.998508"
     height="24.738379"
     x="-8.6425779e-008"
     y="0.0046640034" /><rect
     style="opacity:1;fill:#0c3878;fill-opacity:1;stroke:none;stroke-width:4.22716522;stroke-linecap:butt;stroke-linejoin:miter;stroke-miterlimit:10;stroke-dasharray:none;stroke-opacity:1"
     id="rect4237"
     width="54"
     height="3.5433071"
     x="-1.9073486e-006"
     y="23.385828" /><g
     id="g4185"
     transform="matrix(1.0000133,0,0,1,1.4346581,0)"><rect
       style="fill:#0c3878"
       id="rect13"
       height="3.8899806"
       width="12.401575"
       y="1.6249828"
       x="1.6078383" /><g
       transform="matrix(1.2263516,0,0,1.2263516,-0.37673199,-1.3551642)"
       id="g4180"><g
         id="g4177"><circle
           style="fill:#b4b4b4"
           id="circle9"
           r="5.0562882"
           cy="13.356051"
           cx="6.720654" /></g><path
         d="m 7.5471383,11.930645 -2.2583866,0.614 0.00215,-0.01324 -3.6128108,0.968722 c 0.010977,0.38694 0.053514,0.775252 0.1577952,1.164936 0.1042842,0.389684 0.2620761,0.747809 0.4459412,1.088097 l 3.6128108,-0.968721 0.016472,-0.0057 2.2387798,-0.595924 -8.47e-4,-0.0022 3.6128111,-0.968723 c -0.01101,-0.385567 -0.0535,-0.77525 -0.157796,-1.163562 -0.104284,-0.388313 -0.262076,-0.749182 -0.445941,-1.089469 L 7.5453044,11.92767 Z"
         id="path23"
         inkscape:connector-curvature="0"
         style="fill:#646464"
         sodipodi:nodetypes="ccccscccccccccc" /></g><rect
       style="fill:#8c8c8c"
       id="rect19"
       height="2.3339882"
       width="12.401575"
       y="23.923904"
       x="1.6363715" /></g><g
     transform="matrix(1.0000133,0,0,1,19.434658,0)"
     id="g4207"><rect
       x="1.6078383"
       y="1.6249828"
       width="12.401575"
       height="3.8899806"
       id="rect4209"
       style="fill:#0c3878" /><g
       id="g4211"
       transform="matrix(1.2263516,0,0,1.2263516,-0.37673199,-1.3551642)"><g
         id="g4213"><circle
           cx="6.720654"
           cy="13.356051"
           r="5.0562882"
           id="circle4215"
           style="fill:#b4b4b4" /></g><path
         sodipodi:nodetypes="ccccscccccccccc"
         style="fill:#646464"
         inkscape:connector-curvature="0"
         id="path4217"
         d="m 7.5471383,11.930645 -2.2583866,0.614 0.00215,-0.01324 -3.6128108,0.968722 c 0.010977,0.38694 0.053514,0.775252 0.1577952,1.164936 0.1042842,0.389684 0.2620761,0.747809 0.4459412,1.088097 l 3.6128108,-0.968721 0.016472,-0.0057 2.2387798,-0.595924 -8.47e-4,-0.0022 3.6128111,-0.968723 c -0.01101,-0.385567 -0.0535,-0.77525 -0.157796,-1.163562 -0.104284,-0.388313 -0.262076,-0.749182 -0.445941,-1.089469 L 7.5453044,11.92767 Z" /></g><rect
       x="1.6363715"
       y="23.923904"
       width="12.401575"
       height="2.3339882"
       id="rect4219"
       style="fill:#8c8c8c" /></g><g
     id="g4221"
     transform="matrix(1.0000133,0,0,1,37.434658,0)"><rect
       style="fill:#0c3878"
       id="rect4223"
       height="3.8899806"
       width="12.401575"
       y="1.6249828"
       x="1.6078383" /><g
       transform="matrix(1.2263516,0,0,1.2263516,-0.37673199,-1.3551642)"
       id="g4225"><g
         id="g4227"><circle
           style="fill:#b4b4b4"
           id="circle4229"
           r="5.0562882"
           cy="13.356051"
           cx="6.720654" /></g><path
         d="m 7.5471383,11.930645 -2.2583866,0.614 0.00215,-0.01324 -3.6128108,0.968722 c 0.010977,0.38694 0.053514,0.775252 0.1577952,1.164936 0.1042842,0.389684 0.2620761,0.747809 0.4459412,1.088097 l 3.6128108,-0.968721 0.016472,-0.0057 2.2387798,-0.595924 -8.47e-4,-0.0022 3.6128111,-0.968723 c -0.01101,-0.385567 -0.0535,-0.77525 -0.157796,-1.163562 -0.104284,-0.388313 -0.262076,-0.749182 -0.445941,-1.089469 L 7.5453044,11.92767 Z"
         id="path4231"
         inkscape:connector-curvature="0"
         style="fill:#646464"
         sodipodi:nodetypes="ccccscccccccccc" /></g><rect
       style="fill:#8c8c8c"
       id="rect4233"
       height="2.3339882"
       width="12.401575"
       y="23.923904"
       x="1.6363715" /></g></svg>