<?xml version="1.0" encoding="utf-8"?>
<!-- Generator: Adobe Illustrator 20.0.0, SVG Export Plug-In . SVG Version: 6.00 Build 0)  -->
<svg version="1.2" baseProfile="tiny" id="Layer_1" xmlns="http://www.w3.org/2000/svg" xmlns:xlink="http://www.w3.org/1999/xlink"
	 x="0px" y="0px" width="91.559px" height="107.717px" viewBox="0 0 91.559 107.717" xml:space="preserve">
<g>
	<rect fill="#F5F5F5" width="91.559" height="107.717"/>
	<polygon fill="#141414" points="86.457,66.614 86.457,55.843 88.724,55.843 88.724,35.433 86.457,35.433 86.457,20.693 
		88.724,20.693 88.724,1.417 71.717,1.417 71.717,4.252 62.362,4.252 62.362,1.417 29.197,1.417 29.197,4.252 19.843,4.252 
		19.843,1.417 2.835,1.417 2.835,20.693 5.102,20.693 5.102,35.433 2.835,35.433 2.835,55.843 5.102,55.843 5.102,66.614 
		2.835,66.614 2.835,98.079 88.724,98.079 88.724,66.614 	"/>
	<rect x="5.244" y="4.394" width="81.071" height="84.472"/>
	
		<rect x="4.96" y="7.512" transform="matrix(-1.836970e-16 1 -1 -1.836970e-16 92.4096 0.8505)" fill="#1E1E1E" width="81.638" height="78.236"/>
	<polygon points="86.315,88.866 5.244,88.866 5.244,97.37 8.22,97.37 8.22,107.717 83.339,107.717 83.339,97.37 86.315,97.37 	"/>
	<polygon fill="#E6AA50" points="20.118,102.047 16.575,105.591 11.906,105.591 11.906,107.717 74.268,107.717 74.268,102.047 	"/>
	<line fill="none" stroke="#735550" stroke-miterlimit="10" x1="29.792" y1="102.047" x2="29.792" y2="107.717"/>
	<line fill="none" stroke="#735550" stroke-miterlimit="10" x1="34.137" y1="102.047" x2="34.137" y2="107.717"/>
	<line fill="none" stroke="#735550" stroke-miterlimit="10" x1="35.929" y1="102.047" x2="35.929" y2="107.717"/>
	<line fill="none" stroke="#735550" stroke-miterlimit="10" x1="37.722" y1="102.047" x2="37.722" y2="107.717"/>
	<line fill="none" stroke="#735550" stroke-miterlimit="10" x1="40.655" y1="102.047" x2="40.655" y2="107.717"/>
	<line fill="none" stroke="#735550" stroke-miterlimit="10" x1="42.067" y1="102.047" x2="42.067" y2="107.717"/>
	<line fill="none" stroke="#735550" stroke-miterlimit="10" x1="44.294" y1="102.047" x2="44.294" y2="107.717"/>
	<line fill="none" stroke="#735550" stroke-miterlimit="10" x1="45.598" y1="102.047" x2="45.598" y2="107.717"/>
	<line fill="none" stroke="#735550" stroke-miterlimit="10" x1="46.901" y1="102.047" x2="46.901" y2="107.717"/>
	<line fill="none" stroke="#735550" stroke-miterlimit="10" x1="49.888" y1="102.047" x2="49.888" y2="107.717"/>
	<line fill="none" stroke="#735550" stroke-miterlimit="10" x1="51.79" y1="102.047" x2="51.79" y2="107.717"/>
	<line fill="none" stroke="#735550" stroke-miterlimit="10" x1="53.147" y1="102.047" x2="53.147" y2="107.717"/>
	<line fill="none" stroke="#735550" stroke-miterlimit="10" x1="54.505" y1="102.047" x2="54.505" y2="107.717"/>
	<line fill="none" stroke="#735550" stroke-miterlimit="10" x1="56.732" y1="102.047" x2="56.732" y2="107.717"/>
	<line fill="none" stroke="#735550" stroke-miterlimit="10" x1="58.959" y1="102.047" x2="58.959" y2="107.717"/>
	<line fill="none" stroke="#735550" stroke-miterlimit="10" x1="63.087" y1="102.047" x2="63.087" y2="107.717"/>
	<line fill="none" stroke="#735550" stroke-miterlimit="10" x1="65.368" y1="102.047" x2="65.368" y2="107.717"/>
	<line fill="none" stroke="#735550" stroke-miterlimit="10" x1="66.835" y1="102.047" x2="66.835" y2="107.717"/>
	<line fill="none" stroke="#735550" stroke-miterlimit="10" x1="12.875" y1="105.591" x2="12.875" y2="107.717"/>
	<g>
		<rect x="9.78" y="10.63" fill="#FF0000" width="72" height="0.562"/>
		<rect x="9.78" y="11.192" fill="#FF0000" width="72" height="0.562"/>
		<rect x="9.78" y="11.755" fill="#FF0007" width="72" height="0.562"/>
		<rect x="9.78" y="12.317" fill="#FF0011" width="72" height="0.562"/>
		<rect x="9.78" y="12.88" fill="#FF001D" width="72" height="0.562"/>
		<rect x="9.78" y="13.442" fill="#FF0029" width="72" height="0.562"/>
		<rect x="9.78" y="14.005" fill="#FF0037" width="72" height="0.562"/>
		<rect x="9.78" y="14.567" fill="#FF0046" width="72" height="0.562"/>
		<rect x="9.78" y="15.13" fill="#FF0056" width="72" height="0.562"/>
		<rect x="9.78" y="15.692" fill="#FF0066" width="72" height="0.562"/>
		<rect x="9.78" y="16.255" fill="#FF0077" width="72" height="0.562"/>
		<rect x="9.78" y="16.817" fill="#FF0088" width="72" height="0.562"/>
		<rect x="9.78" y="17.38" fill="#FF0099" width="72" height="0.562"/>
		<rect x="9.78" y="17.942" fill="#FF00A9" width="72" height="0.562"/>
		<rect x="9.78" y="18.505" fill="#FF00B8" width="72" height="0.562"/>
		<rect x="9.78" y="19.067" fill="#FF00C8" width="72" height="0.562"/>
		<rect x="9.78" y="19.63" fill="#FF00D5" width="72" height="0.562"/>
		<rect x="9.78" y="20.192" fill="#FF00E2" width="72" height="0.562"/>
		<rect x="9.78" y="20.755" fill="#FF00ED" width="72" height="0.562"/>
		<rect x="9.78" y="21.317" fill="#FF00F7" width="72" height="0.562"/>
		<rect x="9.78" y="21.88" fill="#FF00FF" width="72" height="0.562"/>
		<rect x="9.78" y="22.442" fill="#F900FF" width="72" height="0.562"/>
		<rect x="9.78" y="23.005" fill="#F100FF" width="72" height="0.562"/>
		<rect x="9.78" y="23.567" fill="#E900FF" width="72" height="0.562"/>
		<rect x="9.78" y="24.13" fill="#DF00FF" width="72" height="0.562"/>
		<rect x="9.78" y="24.692" fill="#D400FF" width="72" height="0.562"/>
		<rect x="9.78" y="25.255" fill="#C900FF" width="72" height="0.562"/>
		<rect x="9.78" y="25.817" fill="#BC00FF" width="72" height="0.562"/>
		<rect x="9.78" y="26.38" fill="#AF00FF" width="72" height="0.562"/>
		<rect x="9.78" y="26.942" fill="#A200FF" width="72" height="0.562"/>
		<rect x="9.78" y="27.505" fill="#9400FF" width="72" height="0.562"/>
		<rect x="9.78" y="28.067" fill="#8600FF" width="72" height="0.562"/>
		<rect x="9.78" y="28.63" fill="#7800FF" width="72" height="0.562"/>
		<rect x="9.78" y="29.192" fill="#6B00FF" width="72" height="0.562"/>
		<rect x="9.78" y="29.755" fill="#5D00FF" width="72" height="0.562"/>
		<rect x="9.78" y="30.317" fill="#4F00FF" width="72" height="0.562"/>
		<rect x="9.78" y="30.88" fill="#4200FF" width="72" height="0.562"/>
		<rect x="9.78" y="31.442" fill="#3600FF" width="72" height="0.562"/>
		<rect x="9.78" y="32.005" fill="#2A00FF" width="72" height="0.562"/>
		<rect x="9.78" y="32.567" fill="#2000FF" width="72" height="0.562"/>
		<rect x="9.78" y="33.13" fill="#1600FF" width="72" height="0.562"/>
		<rect x="9.78" y="33.692" fill="#0D00FF" width="72" height="0.562"/>
		<rect x="9.78" y="34.255" fill="#0500FF" width="72" height="0.562"/>
		<rect x="9.78" y="34.817" fill="#0000FF" width="72" height="0.562"/>
		<rect x="9.78" y="35.38" fill="#0007FF" width="72" height="0.562"/>
		<rect x="9.78" y="35.942" fill="#0011FF" width="72" height="0.562"/>
		<rect x="9.78" y="36.505" fill="#001BFF" width="72" height="0.562"/>
		<rect x="9.78" y="37.067" fill="#0027FF" width="72" height="0.562"/>
		<rect x="9.78" y="37.63" fill="#0034FF" width="72" height="0.562"/>
		<rect x="9.78" y="38.192" fill="#0042FF" width="72" height="0.562"/>
		<rect x="9.78" y="38.755" fill="#0050FF" width="72" height="0.562"/>
		<rect x="9.78" y="39.317" fill="#005FFF" width="72" height="0.562"/>
		<rect x="9.78" y="39.88" fill="#006FFF" width="72" height="0.562"/>
		<rect x="9.78" y="40.442" fill="#007FFF" width="72" height="0.562"/>
		<rect x="9.78" y="41.005" fill="#008EFF" width="72" height="0.562"/>
		<rect x="9.78" y="41.567" fill="#009DFF" width="72" height="0.562"/>
		<rect x="9.78" y="42.13" fill="#00ACFF" width="72" height="0.562"/>
		<rect x="9.78" y="42.692" fill="#00BBFF" width="72" height="0.562"/>
		<rect x="9.78" y="43.255" fill="#00C9FF" width="72" height="0.562"/>
		<rect x="9.78" y="43.817" fill="#00D7FF" width="72" height="0.562"/>
		<rect x="9.78" y="44.38" fill="#00E2FF" width="72" height="0.562"/>
		<rect x="9.78" y="44.942" fill="#00ECFF" width="72" height="0.562"/>
		<rect x="9.78" y="45.505" fill="#00F5FF" width="72" height="0.562"/>
		<rect x="9.78" y="46.067" fill="#00FDFF" width="72" height="0.562"/>
		<rect x="9.78" y="46.63" fill="#00FFFA" width="72" height="0.562"/>
		<rect x="9.78" y="47.192" fill="#00FFF3" width="72" height="0.562"/>
		<rect x="9.78" y="47.755" fill="#00FFEA" width="72" height="0.562"/>
		<rect x="9.78" y="48.317" fill="#00FFE1" width="72" height="0.562"/>
		<rect x="9.78" y="48.88" fill="#00FFD6" width="72" height="0.562"/>
		<rect x="9.78" y="49.442" fill="#00FFCB" width="72" height="0.562"/>
		<rect x="9.78" y="50.005" fill="#00FFBE" width="72" height="0.562"/>
		<rect x="9.78" y="50.567" fill="#00FFB2" width="72" height="0.562"/>
		<rect x="9.78" y="51.13" fill="#00FFA4" width="72" height="0.562"/>
		<rect x="9.78" y="51.692" fill="#00FF97" width="72" height="0.562"/>
		<rect x="9.78" y="52.255" fill="#00FF89" width="72" height="0.562"/>
		<rect x="9.78" y="52.817" fill="#00FF7B" width="72" height="0.562"/>
		<rect x="9.78" y="53.38" fill="#00FF6D" width="72" height="0.562"/>
		<rect x="9.78" y="53.942" fill="#00FF60" width="72" height="0.562"/>
		<rect x="9.78" y="54.505" fill="#00FF52" width="72" height="0.562"/>
		<rect x="9.78" y="55.067" fill="#00FF45" width="72" height="0.562"/>
		<rect x="9.78" y="55.63" fill="#00FF38" width="72" height="0.562"/>
		<rect x="9.78" y="56.192" fill="#00FF2C" width="72" height="0.562"/>
		<rect x="9.78" y="56.755" fill="#00FF22" width="72" height="0.562"/>
		<rect x="9.78" y="57.317" fill="#00FF17" width="72" height="0.562"/>
		<rect x="9.78" y="57.88" fill="#00FF0E" width="72" height="0.562"/>
		<rect x="9.78" y="58.442" fill="#00FF07" width="72" height="0.562"/>
		<rect x="9.78" y="59.005" fill="#00FF00" width="72" height="0.562"/>
		<rect x="9.78" y="59.567" fill="#06FF00" width="72" height="0.562"/>
		<rect x="9.78" y="60.13" fill="#0EFF00" width="72" height="0.562"/>
		<rect x="9.78" y="60.692" fill="#17FF00" width="72" height="0.562"/>
		<rect x="9.78" y="61.255" fill="#22FF00" width="72" height="0.562"/>
		<rect x="9.78" y="61.817" fill="#2EFF00" width="72" height="0.562"/>
		<rect x="9.78" y="62.38" fill="#3AFF00" width="72" height="0.562"/>
		<rect x="9.78" y="62.942" fill="#47FF00" width="72" height="0.562"/>
		<rect x="9.78" y="63.505" fill="#56FF00" width="72" height="0.562"/>
		<rect x="9.78" y="64.067" fill="#64FF00" width="72" height="0.562"/>
		<rect x="9.78" y="64.63" fill="#73FF00" width="72" height="0.562"/>
		<rect x="9.78" y="65.192" fill="#81FF00" width="72" height="0.562"/>
		<rect x="9.78" y="65.755" fill="#8FFF00" width="72" height="0.562"/>
		<rect x="9.78" y="66.317" fill="#9EFF00" width="72" height="0.562"/>
		<rect x="9.78" y="66.88" fill="#ACFF00" width="72" height="0.562"/>
		<rect x="9.78" y="67.442" fill="#BBFF00" width="72" height="0.562"/>
		<rect x="9.78" y="68.005" fill="#C7FF00" width="72" height="0.562"/>
		<rect x="9.78" y="68.567" fill="#D4FF00" width="72" height="0.562"/>
		<rect x="9.78" y="69.13" fill="#E0FF00" width="72" height="0.562"/>
		<rect x="9.78" y="69.692" fill="#EAFF00" width="72" height="0.562"/>
		<rect x="9.78" y="70.255" fill="#F3FF00" width="72" height="0.562"/>
		<rect x="9.78" y="70.817" fill="#FBFF00" width="72" height="0.562"/>
		<rect x="9.78" y="71.38" fill="#FFFD00" width="72" height="0.562"/>
		<rect x="9.78" y="71.942" fill="#FFF500" width="72" height="0.562"/>
		<rect x="9.78" y="72.505" fill="#FFED00" width="72" height="0.562"/>
		<rect x="9.78" y="73.067" fill="#FFE100" width="72" height="0.562"/>
		<rect x="9.78" y="73.63" fill="#FFD500" width="72" height="0.562"/>
		<rect x="9.78" y="74.192" fill="#FFC800" width="72" height="0.562"/>
		<rect x="9.78" y="74.755" fill="#FFBB00" width="72" height="0.562"/>
		<rect x="9.78" y="75.317" fill="#FFAC00" width="72" height="0.562"/>
		<rect x="9.78" y="75.88" fill="#FF9C00" width="72" height="0.562"/>
		<rect x="9.78" y="76.442" fill="#FF8D00" width="72" height="0.562"/>
		<rect x="9.78" y="77.005" fill="#FF7D00" width="72" height="0.562"/>
		<rect x="9.78" y="77.567" fill="#FF6E00" width="72" height="0.562"/>
		<rect x="9.78" y="78.13" fill="#FF5E00" width="72" height="0.562"/>
		<rect x="9.78" y="78.692" fill="#FF5000" width="72" height="0.562"/>
		<rect x="9.78" y="79.255" fill="#FF4100" width="72" height="0.562"/>
		<rect x="9.78" y="79.817" fill="#FF3200" width="72" height="0.562"/>
		<rect x="9.78" y="80.38" fill="#FF2600" width="72" height="0.562"/>
		<rect x="9.78" y="80.942" fill="#FF1A00" width="72" height="0.562"/>
		<rect x="9.78" y="81.505" fill="#FF1000" width="72" height="0.562"/>
		<rect x="9.78" y="82.067" fill="#FF0800" width="72" height="0.562"/>
	</g>
	<circle fill="#DCDCDC" cx="4.11" cy="102.898" r="2.126"/>
	<circle fill="#DCDCDC" cx="87.449" cy="102.898" r="2.126"/>
</g>
</svg>
