<?xml version="1.0" encoding="UTF-8" standalone="no"?>
<!-- Generator: Adobe Illustrator 15.1.0, SVG Export Plug-In . SVG Version: 6.00 Build 0)  -->

<svg
   xmlns:dc="http://purl.org/dc/elements/1.1/"
   xmlns:cc="http://creativecommons.org/ns#"
   xmlns:rdf="http://www.w3.org/1999/02/22-rdf-syntax-ns#"
   xmlns:svg="http://www.w3.org/2000/svg"
   xmlns="http://www.w3.org/2000/svg"
   xmlns:sodipodi="http://sodipodi.sourceforge.net/DTD/sodipodi-0.dtd"
   xmlns:inkscape="http://www.inkscape.org/namespaces/inkscape"
   version="1.1"
   id="Ebene_1"
   x="0px"
   y="0px"
   width="23.790617"
   height="23.788155"
   viewBox="0 0 23.790617 23.788154"
   enable-background="new 0 0 9.646 12.89"
   xml:space="preserve"
   inkscape:version="0.91 r13725"
   sodipodi:docname="trimpot-6mm.svg"><metadata
     id="metadata36"><rdf:RDF><cc:Work
         rdf:about=""><dc:format>image/svg+xml</dc:format><dc:type
           rdf:resource="http://purl.org/dc/dcmitype/StillImage" /><dc:title></dc:title></cc:Work></rdf:RDF></metadata><defs
     id="defs34" /><sodipodi:namedview
     pagecolor="#ffffff"
     bordercolor="#666666"
     borderopacity="1"
     objecttolerance="10"
     gridtolerance="10"
     guidetolerance="10"
     inkscape:pageopacity="0"
     inkscape:pageshadow="2"
     inkscape:window-width="1211"
     inkscape:window-height="706"
     id="namedview32"
     showgrid="false"
     inkscape:zoom="18.308766"
     inkscape:cx="10.846809"
     inkscape:cy="1.0795855"
     inkscape:window-x="604"
     inkscape:window-y="42"
     inkscape:window-maximized="0"
     inkscape:current-layer="Ebene_1"
     fit-margin-top="0"
     fit-margin-left="0"
     fit-margin-right="0"
     fit-margin-bottom="0" /><g
     transform="matrix(1.2499996,0,0,1.2499996,-143.92299,-185.07849)"
     id="g14363"><path
       style="fill:#6b6b6b"
       inkscape:connector-curvature="0"
       id="path20"
       d="m 124.65271,148.06284 c -5.25483,0 -9.51428,4.25945 -9.51428,9.51625 l 0,9.51428 9.51428,0 9.51822,0 0,-9.51428 c 0,-5.2568 -4.26142,-9.51625 -9.51822,-9.51625 z m -5.3317,13.13511 0,-7.23575 10.66734,0 0,7.23575 -10.66734,0 z" /><path
       style="fill:#cecece"
       inkscape:connector-curvature="0"
       id="path27"
       d="m 123.01082,151.49247 c -3.35473,0.90669 -5.33959,4.36392 -4.43684,7.71865 0.90865,3.35868 4.36194,5.3455 7.72062,4.44079 3.35867,-0.91063 5.34353,-4.36589 4.43684,-7.72259 -0.90668,-3.35671 -4.36194,-5.3455 -7.72062,-4.43685 z m -0.56372,7.75019 0.27398,-2.22335 3.32714,-0.8988 1.35805,1.78183 -4.95917,1.34032 z" /><g
       transform="matrix(1.9710544,0,0,1.9710544,115.13843,144.99982)"
       id="g16"><polygon
         id="rect31"
         points="4.456,7.025 5.474,6.749 5.916,8.382 4.898,8.659 " /><polygon
         id="polygon33"
         points="3.741,4.373 3.957,5.181 3.708,7.226 3.847,6.098 5.534,5.642 6.224,6.546 4.977,4.906 4.758,4.098 " /></g><g
       transform="matrix(1.9710544,0,0,1.9710544,115.13843,144.99982)"
       id="g35"><polygon
         style="fill:#4d4d4d"
         id="polygon37"
         points="2.547,6.449 2.821,7.465 3.708,7.226 3.847,6.098 " /><polygon
         style="fill:#4d4d4d"
         id="polygon39-6"
         points="5.534,5.642 6.224,6.546 7.109,6.309 6.835,5.291 " /></g><path
       style="opacity:0.3"
       inkscape:connector-curvature="0"
       id="path41"
       enable-background="new    "
       d="m 133.42193,157.82547 c -0.0355,-0.5854 -0.12812,-1.17672 -0.28186,-1.76409 -0.14586,-0.52627 -0.34099,-1.02298 -0.56963,-1.49603 l -0.41196,0.13994 -0.61496,-0.81799 c -0.1774,-0.26609 -0.36859,-0.52035 -0.57752,-0.76279 l -0.64651,-0.85544 0.35282,-0.26412 c -2.09523,-1.92572 -5.0932,-2.77525 -8.04584,-1.98091 -2.94673,0.79827 -5.11095,3.04331 -5.94865,5.76139 l 0.43364,0.0513 -0.12812,1.06634 c -0.0532,0.30945 -0.0946,0.62679 -0.11235,0.9461 l -0.12221,1.02101 -0.42969,0.0848 c 0.0414,0.52627 0.12418,1.05451 0.26806,1.58275 0.16163,0.58146 0.37845,1.1373 0.64454,1.65963 l 0.45137,-0.36267 c 0.52233,1.06831 1.26542,1.96908 2.15239,2.68654 l -0.45137,0.35873 c 2.07158,1.72271 4.91581,2.44805 7.71471,1.69117 2.7989,-0.75689 4.88821,-2.81467 5.81264,-5.34747 l -0.56964,-0.0808 c 0.40801,-1.06437 0.59526,-2.21941 0.50853,-3.40599 l 0.57161,0.0887 z m -7.10565,5.85403 c -2.97235,0.80025 -6.0334,-0.95596 -6.83759,-3.92634 -0.80025,-2.97629 0.95596,-6.03734 3.93028,-6.83956 2.97235,-0.80222 6.03143,0.95596 6.83562,3.92831 0.80616,2.9763 -0.95399,6.03537 -3.92831,6.83759 z" /><path
       inkscape:connector-curvature="0"
       id="path43"
       d="m 122.56733,149.84073 c -4.27324,1.1511 -6.80013,5.54852 -5.6451,9.81585 1.1511,4.27522 5.54852,6.80408 9.82177,5.64904 4.26733,-1.15504 6.79619,-5.54852 5.64116,-9.82176 -1.15307,-4.26931 -5.54655,-6.7962 -9.81783,-5.64313 z m 3.72924,13.81118 c -3.35868,0.90471 -6.81394,-1.07817 -7.72259,-4.44079 -0.90669,-3.35867 1.08014,-6.8159 4.43684,-7.72062 3.35868,-0.90471 6.81788,1.08211 7.72259,4.44079 0.90472,3.3567 -1.07816,6.81393 -4.43684,7.72062 z" /><path
       style="fill:#1a1a1a"
       inkscape:connector-curvature="0"
       id="path45"
       d="m 133.213,157.10012 c -0.0315,-0.5854 -0.12221,-1.17672 -0.28383,-1.76606 -0.13995,-0.52233 -0.33508,-1.02101 -0.5657,-1.49603 l -0.40997,0.13797 -1.84491,-2.43228 0.35479,-0.26412 c -2.09523,-1.92769 -5.09321,-2.77722 -8.04388,-1.98091 -2.95066,0.79631 -5.11291,3.04134 -5.95061,5.75942 l 0.43363,0.0513 -0.36267,3.03542 -0.42575,0.0828 c 0.0394,0.52627 0.12418,1.05057 0.26412,1.57881 0.16163,0.58737 0.37845,1.14321 0.64454,1.66554 l 1.21417,-0.97764 2.15633,2.67669 -1.21811,0.98356 c 2.06764,1.71876 4.91384,2.4441 7.71076,1.69116 2.7989,-0.75688 4.89413,-2.81269 5.81461,-5.34156 l -1.54136,-0.23258 0.50656,-3.3981 1.54728,0.22667 z m -7.10368,5.85403 c -2.97432,0.80025 -6.03734,-0.95596 -6.83759,-3.93028 -0.80222,-2.97235 0.95596,-6.03142 3.93028,-6.83364 2.97432,-0.80222 6.03143,0.95596 6.83365,3.93028 0.80419,2.97235 -0.95596,6.03143 -3.92634,6.83364 z" /><circle
       style="opacity:0.4;fill:#ffffff"
       id="circle47"
       enable-background="new    "
       cx="118.23102"
       cy="153.95432"
       r="0.64059263" /><circle
       style="opacity:0.4;fill:#ffffff"
       id="circle49"
       enable-background="new    "
       cx="128.38391"
       cy="151.21259"
       r="0.64256376" /><g
       transform="matrix(1.9710544,0,0,1.9710544,115.13843,144.99982)"
       style="opacity:0.4"
       id="g51"><path
         style="fill:#ffffff"
         inkscape:connector-curvature="0"
         id="path53"
         d="M 3.919,9.595 3.782,9.562 3.815,9.424 3.95,9.456 3.983,9.321 4.258,9.385 3.995,10.485 3.72,10.422 3.919,9.595 Z" /><path
         style="fill:#ffffff"
         inkscape:connector-curvature="0"
         id="path55"
         d="M 6.168,10.359 5.619,10.497 5.585,10.359 5.448,10.394 5.24,9.57 5.377,9.535 5.342,9.399 5.893,9.262 5.926,9.397 6.064,9.364 6.272,10.185 6.132,10.22 6.168,10.359 Z M 5.997,10.253 5.787,9.434 5.515,9.501 5.722,10.325 5.997,10.253 Z" /><path
         style="fill:#ffffff"
         inkscape:connector-curvature="0"
         id="path57"
         d="M 7.68,8.849 7.781,8.75 7.881,8.851 7.782,8.951 7.98,9.15 7.779,9.352 7.577,9.154 7.277,9.452 7.077,9.249 7.176,9.152 6.979,8.949 7.079,8.849 7.278,9.048 7.177,9.152 7.276,9.25 7.478,9.052 6.98,8.549 l 0.202,-0.2 0.498,0.5 z" /></g></g></svg>