<?xml version="1.0" encoding="utf-8"?>
<!-- Generator: Adobe Illustrator 20.0.0, SVG Export Plug-In . SVG Version: 6.00 Build 0)  -->
<svg version="1.2" baseProfile="tiny"
	 id="Layer_1" inkscape:version="0.91 r13725" sodipodi:docname="tsl2561_fn.svg" xmlns:cc="http://creativecommons.org/ns#" xmlns:dc="http://purl.org/dc/elements/1.1/" xmlns:inkscape="http://www.inkscape.org/namespaces/inkscape" xmlns:rdf="http://www.w3.org/1999/02/22-rdf-syntax-ns#" xmlns:sodipodi="http://sodipodi.sourceforge.net/DTD/sodipodi-0.dtd" xmlns:svg="http://www.w3.org/2000/svg"
	 xmlns="http://www.w3.org/2000/svg" xmlns:xlink="http://www.w3.org/1999/xlink" x="0px" y="0px" width="5.669px" height="5.669px"
	 viewBox="0 0 5.669 5.669" xml:space="preserve">
<sodipodi:namedview  bordercolor="#666666" borderopacity="1" gridtolerance="10" guidetolerance="10" id="namedview13" inkscape:current-layer="Layer_1" inkscape:cx="4.3178626" inkscape:cy="7.0169824" inkscape:document-units="mm" inkscape:pageopacity="0" inkscape:pageshadow="2" inkscape:window-height="887" inkscape:window-maximized="0" inkscape:window-width="1522" inkscape:window-x="274" inkscape:window-y="38" inkscape:zoom="28.284271" objecttolerance="10" pagecolor="#ffffff" showgrid="false" units="mm">
	</sodipodi:namedview>
<rect id="rect4978" x="0" y="0" fill="#646464" width="5.669" height="5.669"/>
<g id="g4970">
	<path id="path4904" inkscape:connector-curvature="0" fill="#B3B3B3" d="M0.003,4.976V4.191h0.391V4.051H2.55v1.081H0.391V4.976
		H0.003z"/>
	<path id="path4904-1" inkscape:connector-curvature="0" fill="#B3B3B3" d="M-0.001,3.261V2.476H0.39V2.336h2.156v1.081H0.387V3.261
		H-0.001z"/>
	<path id="path4904-1-6" inkscape:connector-curvature="0" fill="#B3B3B3" d="M5.649,4.975V4.191H5.258V4.05H3.102v1.081h2.159
		V4.975L5.649,4.975z"/>
	<path id="path4904-1-6-7" inkscape:connector-curvature="0" fill="#B3B3B3" d="M5.649,3.252V2.467H5.258V2.327H3.102v1.081h2.159
		V3.252H5.649z"/>
	<path id="path4904-1-6-77" inkscape:connector-curvature="0" fill="#B3B3B3" d="M5.64,1.528V0.744H5.249V0.603H3.093v1.081h2.159
		V1.528H5.64z"/>
	<path id="path4968" inkscape:connector-curvature="0" sodipodi:nodetypes="ccccccccccc" fill="#B3B3B3" d="M0.021,1.522V0.744
		h0.375V0.592h1.039C1.667,0.59,1.78,0.436,1.729,0.02L2.56,0.009v1.655H0.392V1.526L0.021,1.522z"/>
</g>
<path id="path3791" inkscape:connector-curvature="0" fill="#D3BC5F" stroke="#000000" stroke-width="0.0328" stroke-linecap="round" stroke-linejoin="round" stroke-miterlimit="10" d="
	M4.332,0.716H1.304v4.346h3.028C4.332,5.062,4.332,0.716,4.332,0.716z"/>
<path id="path3793" inkscape:connector-curvature="0" fill="#BFBFBF" d="M2.832,4.827H4.1V0.919H2.832
	C2.832,0.919,2.832,4.827,2.832,4.827z"/>
<path id="path3793-4" inkscape:connector-curvature="0" fill="#1A1A1A" d="M2.986,4.823h0.49V0.915h-0.49
	C2.986,0.915,2.986,4.823,2.986,4.823z"/>
</svg>
