<?xml version="1.0" standalone="no"?>
<!DOCTYPE svg PUBLIC "-//W3C//DTD SVG 1.1//EN"
"http://www.w3.org/Graphics/SVG/1.1/DTD/svg11.dtd">
<svg width="9.53mm"
	height="9.53mm"
	viewBox="0 0 953 953"
	id="TSR3386UT_Icon"
	version="1.1"
	xmlns="http://www.w3.org/2000/svg"
	xmlns:xlink="http://www.w3.org/1999/xlink">
	<g id="icon">
		<title>TSR3386UT Square Trimming Potentiometer - Icon</title>
		<g id="outline">
			<path
			   style="fill:#0000E0;stroke:none"
			   d="m 0,0 l 953,0 0,953 -75,0 0,-38 -803,0 0,38 -75,0 z" />
		</g>
		<g id="knob">
			<circle
			   style="fill:none;stroke:black;stroke-width:20"
			   cx="476.5" cy="419" r="419" />
			<g id="grooves">
				<g id="grooveception5">
					<g id="grooveception4">
						<g id="grooveception3">
							<g id="grooveception2">
								<g id="grooveception1">
									<line id="grooveception0"
										style="fill:none;stroke:black;stroke-width:5"
										x1="476.5" y1="419" x2="57.5" y2="419" />
									<use xlink:href="#grooveception0" transform="rotate(4, 476.5, 419)" />
								</g>
								<use xlink:href="#grooveception1" transform="rotate(8, 476.5, 419)" />
							</g>
							<use xlink:href="#grooveception2" transform="rotate(16, 476.5, 419)" />
						</g>
						<use xlink:href="#grooveception3" transform="rotate(32, 476.5, 419)" />
					</g>
					<use xlink:href="#grooveception4" transform="rotate(64, 476.5, 419)" />
				</g>
				<use xlink:href="#grooveception5" transform="rotate(128, 476.5, 419)" />
				<use xlink:href="#grooveception5" transform="rotate(256, 476.5, 419)" />
			</g>
			<circle
			   style="fill:#0000E0;stroke:black;stroke-width:20"
			   cx="476.5" cy="419" r="330" />
			<circle
			   style="fill:none;stroke:black;stroke-width:20"
			   cx="476.5" cy="419" r="290" />
			<path id="arrow"
			   style="fill:#000040"
			   d="m 476.5,89 l 150,300 -80,0 0,300 -140,0 0,-300 -80,0 z"
			/>
		</g>
	</g>
</svg>
