<?xml version="1.0" encoding="utf-8"?>
<!-- Generator: Adobe Illustrator 20.0.0, SVG Export Plug-In . SVG Version: 6.00 Build 0)  -->
<svg version="1.2" baseProfile="tiny" id="Layer_1" xmlns="http://www.w3.org/2000/svg" xmlns:xlink="http://www.w3.org/1999/xlink"
	 x="0px" y="0px" width="14.457px" height="17.858px" viewBox="0 0 14.457 17.858" xml:space="preserve">
<g>
	<path fill="#DCDCDC" d="M2.126,0v17.858H1.417V0L2.126,0z M3.26,0v17.858h0.709V0L3.26,0z M5.102,0v17.858h0.709V0L5.102,0z
		 M6.945,0v17.858h0.709V0L6.945,0z M8.787,0v17.858h0.709V0L8.787,0z M10.63,0v17.858h0.709V0L10.63,0z M12.472,0v17.858h0.709V0
		L12.472,0z"/>
	<rect x="0" y="2.693" fill="#333333" width="14.457" height="12.472"/>
	<circle cx="2.126" cy="13.039" r="1.134"/>
</g>
</svg>
