<?xml version="1.0" encoding="utf-8"?>
<!-- Generator: Adobe Illustrator 20.0.0, SVG Export Plug-In . SVG Version: 6.00 Build 0)  -->
<svg version="1.2" baseProfile="tiny" id="Layer_1" xmlns="http://www.w3.org/2000/svg" xmlns:xlink="http://www.w3.org/1999/xlink"
	 x="0px" y="0px" width="27.496px" height="17.858px" viewBox="0 0 27.496 17.858" xml:space="preserve">
<g>
	<path fill="#DCDCDC" d="M2.126,0v17.858H1.417V0L2.126,0z M3.26,0v17.858h0.709V0L3.26,0z M5.102,0v17.858h0.709V0L5.102,0z
		 M6.945,0v17.858h0.709V0L6.945,0z M8.787,0v17.858h0.709V0L8.787,0z M10.63,0v17.858h0.709V0L10.63,0z M12.472,0v17.858h0.709V0
		L12.472,0z M14.315,0v17.858h0.709V0L14.315,0z M16.157,0v17.858h0.709V0L16.157,0z M18,0v17.858h0.709V0L18,0z M19.843,0v17.858
		h0.709V0L19.843,0z M21.685,0v17.858h0.709V0L21.685,0z M23.528,0v17.858h0.709V0L23.528,0z M25.37,0v17.858h0.709V0L25.37,0z"/>
	
		<rect x="7.512" y="-4.819" transform="matrix(4.491880e-11 -1 1 4.491880e-11 4.8189 22.6772)" fill="#333333" width="12.472" height="27.496"/>
	<circle cx="2.126" cy="13.039" r="1.134"/>
</g>
</svg>
