<?xml version="1.0" encoding="utf-8"?>
<!-- Generator: Adobe Illustrator 20.0.0, SVG Export Plug-In . SVG Version: 6.00 Build 0)  -->
<svg version="1.2" baseProfile="tiny" id="Layer_1" xmlns="http://www.w3.org/2000/svg" xmlns:xlink="http://www.w3.org/1999/xlink"
	 x="0px" y="0px" width="20.636px" height="17.858px" viewBox="0 0 20.636 17.858" xml:space="preserve">
<g>
	<path fill="#DCDCDC" d="M1.954,0v17.858H1.245V0H1.954z M3.088,0v17.858h0.709V0H3.088z M4.93,0v17.858h0.709V0H4.93z M6.773,0
		v17.858h0.709V0H6.773z M8.615,0v17.858h0.709V0H8.615z M10.458,0v17.858h0.709V0H10.458z M12.3,0v17.858h0.709V0H12.3z M14.143,0
		v17.858h0.709V0H14.143z M15.985,0v17.858h0.709V0H15.985z M17.828,0v17.858h0.709V0H17.828z"/>
	<rect x="0" y="2.693" fill="#333333" width="19.843" height="12.472"/>
	<circle cx="2.126" cy="13.039" r="1.134"/>
</g>
</svg>
