<?xml version="1.0" encoding="utf-8"?>
<!-- Generator: Adobe Illustrator 16.0.0, SVG Export Plug-In . SVG Version: 6.00 Build 0)  -->
<svg version="1.2" baseProfile="tiny" id="_x30_" xmlns:xml="http://www.w3.org/XML/1998/namespace"
	 xmlns="http://www.w3.org/2000/svg" xmlns:xlink="http://www.w3.org/1999/xlink" x="0px" y="0px" width="32px" height="32px"
	 viewBox="0 0 32 32" xml:space="preserve">
<g id="icon">
	<g>
		<path d="M10.391,13.351h2.432c0.732,0,1.406,0.333,2.018,0.996c0.546,0.66,0.819,1.412,0.819,2.255v0.111
			c0,1.042-0.431,1.928-1.29,2.654c-0.522,0.362-1.008,0.543-1.456,0.543h-2.524c-0.025,0-0.037-0.012-0.037-0.035v-6.488
			C10.357,13.363,10.37,13.351,10.391,13.351"/>
	</g>
	<g>
		<path d="M20.077,13.473l0.164,0.004c1.039,0.033,1.909,0.519,2.614,1.456c0.395,0.601,0.582,1.209,0.562,1.82l-0.007,0.221
			c-0.03,0.945-0.496,1.765-1.396,2.452c-0.632,0.429-1.303,0.63-2.006,0.606l-0.128-0.003c-1.171-0.038-2.11-0.623-2.821-1.752
			c-0.263-0.548-0.387-1.063-0.369-1.545l0.007-0.183c0.033-1.044,0.566-1.915,1.599-2.606
			C18.882,13.61,19.477,13.453,20.077,13.473"/>
	</g>
	<g>
		<path fill="#EC008B" d="M5.696,12.448L5.508,8.531C5.469,7.669,4.571,7.71,4.611,8.566l0.188,3.925L5.696,12.448z"/>
	</g>
	<g>
		<path fill="#EC008B" d="M8.751,12.698l0.225-2.069c0.093-0.883-0.802-0.97-0.895-0.106l-0.225,2.079L8.751,12.698z"/>
	</g>
	<g>
		<path fill="#EC008B" d="M3.107,13.368v2.14c-0.003-0.001,0.029,2.524,0.052,2.555c0.039,0.166,0.099,0.338,0.184,0.514
			c0.606,0.92,1.447,1.378,2.522,1.378h0.117c0.5,0,0.997-0.124,1.491-0.372c0.839-0.539,1.26-1.155,1.26-1.857v-4.358L3.107,13.368
			L3.107,13.368z"/>
	</g>
	<g>
		<path fill="#EC008B" d="M2.532,15.208c-0.324-0.248-0.621-0.517-0.749-0.629c-0.431-0.374-1.023,0.042-0.965,0.411
			c0.039,0.249,0.214,0.446,0.508,0.702c0.229,0.198,0.864,0.754,1.206,1.31V15.208L2.532,15.208z"/>
	</g>
	<g>
		<path fill="#EC008B" d="M4.035,12.606l-0.34-3.241C3.603,8.489,2.711,8.571,2.801,9.446l0.342,3.255L4.035,12.606z"/>
	</g>
	<g>
		<path fill="#EC008B" d="M7.167,12.509l0.276-3.246c0.077-0.89-0.817-0.961-0.891-0.09l-0.277,3.26L7.167,12.509z"/>
	</g>
	<g>
		<path d="M27.847,13.473l0.164,0.004c1.036,0.033,1.908,0.519,2.612,1.456c0.395,0.601,0.581,1.209,0.562,1.82l-0.007,0.221
			c-0.032,0.945-0.496,1.765-1.395,2.452c-0.631,0.429-1.302,0.63-2.006,0.606l-0.13-0.003c-1.169-0.038-2.109-0.623-2.819-1.752
			c-0.262-0.548-0.387-1.063-0.369-1.545l0.006-0.183c0.035-1.044,0.566-1.915,1.601-2.606
			C26.652,13.61,27.245,13.453,27.847,13.473"/>
	</g>
</g>
</svg>
