<?xml version="1.0" encoding="utf-8"?>
<!-- Generator: Adobe Illustrator 24.0.0, SVG Export Plug-In . SVG Version: 6.00 Build 0)  -->
<svg version="1.2" baseProfile="tiny" id="Layer_1" xmlns="http://www.w3.org/2000/svg" xmlns:xlink="http://www.w3.org/1999/xlink"
	 x="0px" y="0px" width="25.342px" height="21.572px" viewBox="0 0 25.342 21.572" xml:space="preserve">
<g>
	<rect y="0.737" fill="#DCDCDC" width="25.342" height="20.835"/>
	<path fill="#DCDCDC" d="M3.458,1.304H2.891V0h0.567V1.304z M4.309,0H3.742v1.304h0.567V0z M5.726,0H5.159v1.304h0.567V0z M6.576,0
		H6.009v1.304h0.567V0z M7.994,0H7.427v1.304h0.567V0z M9.411,0H8.844v1.304h0.567V0z M10.828,0h-0.567v1.304h0.567V0z M12.246,0
		h-0.567v1.304h0.567V0z M13.663,0h-0.567v1.304h0.567V0z M15.08,0h-0.567v1.304h0.567V0z M16.498,0h-0.567v1.304h0.567V0z
		 M17.915,0h-0.567v1.304h0.567V0z M19.332,0h-0.567v1.304h0.567V0z M20.183,0h-0.567v1.304h0.567V0z M21.6,0h-0.567v1.304H21.6V0z
		 M22.45,0h-0.567v1.304h0.567V0z"/>
	<rect x="2.044" y="0.737" fill="#F0F0F0" width="1.297" height="20.835"/>
	<rect x="22" y="0.737" fill="#BEBEBE" width="1.297" height="20.835"/>
	<path fill="#8C8C8C" d="M25.342,0.737v1.998h-0.283c-0.344,0-0.624-0.279-0.624-0.624V1.579c0-0.344-0.279-0.624-0.624-0.624
		h-2.831c-0.344,0-0.624,0.279-0.624,0.624V3.6c0,0.344-0.279,0.624-0.624,0.624h-3.413c-0.344,0-0.624-0.279-0.624-0.624V3.553
		c0-0.344,0.279-0.624,0.624-0.624h1.536c0.344,0,0.624-0.279,0.624-0.624V1.579c0-0.344-0.279-0.624-0.624-0.624H7.485
		c-0.344,0-0.624,0.279-0.624,0.624v0.727c0,0.344,0.279,0.624,0.624,0.624h1.536c0.344,0,0.624,0.279,0.624,0.624V3.6
		c0,0.344-0.279,0.624-0.624,0.624H5.608c-0.344,0-0.624-0.279-0.624-0.624V1.579c0-0.344-0.279-0.624-0.624-0.624H1.53
		c-0.344,0-0.624,0.279-0.624,0.624v0.533c0,0.344-0.279,0.624-0.624,0.624H0V0.737H25.342z"/>
	<rect x="5.89" y="6.554" fill="#8C8C8C" width="3.463" height="1.424"/>
	
		<rect x="15.988" y="6.554" transform="matrix(-1 -4.464707e-11 4.464707e-11 -1 35.4396 14.5327)" fill="#8C8C8C" width="3.463" height="1.424"/>
</g>
</svg>
