<?xml version="1.0" encoding="UTF-8" standalone="no"?>
<!-- Created with Inkscape (http://www.inkscape.org/) -->

<svg
   xmlns:dc="http://purl.org/dc/elements/1.1/"
   xmlns:cc="http://creativecommons.org/ns#"
   xmlns:rdf="http://www.w3.org/1999/02/22-rdf-syntax-ns#"
   xmlns:svg="http://www.w3.org/2000/svg"
   xmlns="http://www.w3.org/2000/svg"
   xmlns:sodipodi="http://sodipodi.sourceforge.net/DTD/sodipodi-0.dtd"
   xmlns:inkscape="http://www.inkscape.org/namespaces/inkscape"
   width="12mm"
   height="11mm"
   viewBox="0 0 42.519685 38.976378"
   id="svg2"
   version="1.1"
   inkscape:version="0.91 r13725"
   sodipodi:docname="usi_wm-n-bm-09.svg">
  <defs
     id="defs4" />
  <sodipodi:namedview
     id="base"
     pagecolor="#ffffff"
     bordercolor="#666666"
     borderopacity="1.0"
     inkscape:pageopacity="0.0"
     inkscape:pageshadow="2"
     inkscape:zoom="16.110035"
     inkscape:cx="11.328145"
     inkscape:cy="19.488189"
     inkscape:document-units="mm"
     inkscape:current-layer="layer1"
     showgrid="false"
     inkscape:window-width="1920"
     inkscape:window-height="1090"
     inkscape:window-x="0"
     inkscape:window-y="1"
     inkscape:window-maximized="1" />
  <metadata
     id="metadata7">
    <rdf:RDF>
      <cc:Work
         rdf:about="">
        <dc:format>image/svg+xml</dc:format>
        <dc:type
           rdf:resource="http://purl.org/dc/dcmitype/StillImage" />
        <dc:title></dc:title>
      </cc:Work>
    </rdf:RDF>
  </metadata>
  <g
     inkscape:label="Layer 1"
     inkscape:groupmode="layer"
     id="layer1"
     transform="translate(0,-1013.3858)">
    <g
       id="g4427"
       transform="matrix(0,1,-1,0,1052.3622,1013.3858)">
      <rect
         y="1009.8425"
         x="0"
         height="42.519684"
         width="38.976379"
         id="rect3517"
         style="fill:#008000" />
      <path
         inkscape:connector-curvature="0"
         id="rect3519"
         d="m 0.76612043,1010.7044 3.59118967,0 0,6.1769 -3.59118967,0 z"
         style="fill:#cccccc" />
      <path
         inkscape:connector-curvature="0"
         id="rect3521"
         d="m 17.285593,1010.7044 3.78272,0 0,2.6335 -3.78272,0 z"
         style="fill:#cccccc" />
      <path
         inkscape:connector-curvature="0"
         id="rect3523"
         d="m 26.431156,1010.8002 4.022133,0 0,2.1547 -4.022133,0 z"
         style="fill:#cccccc" />
      <path
         inkscape:connector-curvature="0"
         id="rect3525"
         d="m 32.608002,1010.6565 5.50649,0 0,3.9264 -5.50649,0 z"
         style="fill:#cccccc" />
      <path
         inkscape:connector-curvature="0"
         id="rect3531"
         d="m 0.71823794,1046.4727 3.78271956,0 0,5.1234 -3.78271956,0 z"
         style="fill:#cccccc" />
      <path
         inkscape:connector-curvature="0"
         id="rect3529"
         d="m 19.823366,1047.8612 9.959566,0 0,3.5912 -9.959566,0 z"
         style="fill:#cccccc" />
      <path
         inkscape:connector-curvature="0"
         id="rect3527"
         d="m 33.709301,1047.8134 4.261545,0 0,3.5911 -4.261545,0 z"
         style="fill:#cccccc;fill-opacity:1" />
      <rect
         y="1011.8536"
         x="1.723771"
         height="38.689083"
         width="35.576717"
         id="rect3533"
         style="fill:#999999" />
      <g
         id="text3551"
         style="font-style:normal;font-variant:normal;font-weight:bold;font-stretch:normal;font-size:5px;line-height:125%;font-family:sans-serif;-inkscape-font-specification:'sans-serif Bold';letter-spacing:0px;word-spacing:0px;fill:#000000;fill-opacity:1;stroke:none;stroke-width:1px;stroke-linecap:butt;stroke-linejoin:miter;stroke-opacity:1">
        <path
           inkscape:connector-curvature="0"
           id="path4385"
           d="m 20.713293,1017.833 0.939941,0 0,2.1851 q 0,0.4516 0.146485,0.6469 0.148926,0.1929 0.483398,0.1929 0.336914,0 0.483399,-0.1929 0.148926,-0.1953 0.148926,-0.6469 l 0,-2.1851 0.939941,0 0,2.1851 q 0,0.7739 -0.388184,1.1523 -0.388183,0.3784 -1.184082,0.3784 -0.793457,0 -1.18164,-0.3784 -0.388184,-0.3784 -0.388184,-1.1523 l 0,-2.1851 z" />
        <path
           inkscape:connector-curvature="0"
           id="path4387"
           d="m 27.312414,1017.9478 0,0.7714 q -0.300293,-0.1342 -0.585937,-0.2026 -0.285645,-0.068 -0.539551,-0.068 -0.336914,0 -0.498047,0.093 -0.161133,0.093 -0.161133,0.2881 0,0.1465 0.107422,0.2295 0.109863,0.081 0.395508,0.1392 l 0.400391,0.08 q 0.60791,0.1221 0.864257,0.3711 0.256348,0.249 0.256348,0.708 0,0.603 -0.358887,0.8985 -0.356445,0.2929 -1.091308,0.2929 -0.34668,0 -0.695801,-0.066 -0.349121,-0.066 -0.698242,-0.1953 l 0,-0.7935 q 0.349121,0.1856 0.673828,0.2808 0.327148,0.093 0.629883,0.093 0.307617,0 0.471191,-0.1026 0.163574,-0.1025 0.163574,-0.2929 0,-0.1709 -0.112304,-0.2637 -0.109864,-0.093 -0.441895,-0.166 l -0.363769,-0.081 q -0.546875,-0.1172 -0.800782,-0.3735 -0.251465,-0.2564 -0.251465,-0.6909 0,-0.5445 0.351563,-0.8374 0.351562,-0.293 1.010742,-0.293 0.300293,0 0.617676,0.046 0.317383,0.044 0.656738,0.1343 z" />
        <path
           inkscape:connector-curvature="0"
           id="path4389"
           d="m 28.389074,1017.833 0.939942,0 0,3.645 -0.939942,0 0,-3.645 z" />
      </g>
      <path
         inkscape:connector-curvature="0"
         id="path4363"
         d="m 37.204724,1050.4469 -35.3851879,0 0,-27.9634 c 0,0 10.9650989,0.1915 18.2911259,10.3905 7.326027,10.199 17.05023,9.844 17.05023,9.844 z"
         style="fill:#808080;fill-opacity:1;fill-rule:evenodd;stroke:#000000;stroke-width:0;stroke-linecap:butt;stroke-linejoin:miter;stroke-miterlimit:4;stroke-dasharray:none;stroke-opacity:1" />
      <g
         id="text3543"
         style="font-style:normal;font-weight:normal;font-size:2.5px;line-height:125%;font-family:sans-serif;letter-spacing:0px;word-spacing:0px;fill:#000000;fill-opacity:1;stroke:none;stroke-width:1px;stroke-linecap:butt;stroke-linejoin:miter;stroke-opacity:1">
        <path
           inkscape:connector-curvature="0"
           id="path4392"
           d="m 24.656681,1032.069 0,0.2404 q -0.140381,-0.067 -0.264893,-0.1 -0.124511,-0.033 -0.240478,-0.033 -0.201416,0 -0.311279,0.078 -0.108643,0.078 -0.108643,0.2222 0,0.1208 0.07202,0.1831 0.07324,0.061 0.275878,0.099 l 0.148926,0.03 q 0.275879,0.053 0.406494,0.1855 0.131836,0.1319 0.131836,0.354 0,0.2649 -0.178222,0.4016 -0.177002,0.1368 -0.52002,0.1368 -0.129394,0 -0.275879,-0.029 -0.145263,-0.029 -0.301513,-0.087 l 0,-0.2539 q 0.150146,0.084 0.294189,0.1269 0.144043,0.043 0.283203,0.043 0.211182,0 0.325928,-0.083 0.114746,-0.083 0.114746,-0.2369 0,-0.1342 -0.08301,-0.2099 -0.08179,-0.076 -0.269775,-0.1135 l -0.150147,-0.029 q -0.275879,-0.055 -0.39917,-0.1722 -0.123291,-0.1171 -0.123291,-0.3259 0,-0.2417 0.169678,-0.3808 0.170899,-0.1392 0.469971,-0.1392 0.128174,0 0.26123,0.023 0.133057,0.023 0.272217,0.07 z" />
        <path
           inkscape:connector-curvature="0"
           id="path4394"
           d="m 26.248478,1032.069 0,0.2404 q -0.140381,-0.067 -0.264893,-0.1 -0.124511,-0.033 -0.240478,-0.033 -0.201416,0 -0.311279,0.078 -0.108643,0.078 -0.108643,0.2222 0,0.1208 0.07202,0.1831 0.07324,0.061 0.275879,0.099 l 0.148926,0.03 q 0.275879,0.053 0.406494,0.1855 0.131836,0.1319 0.131836,0.354 0,0.2649 -0.178222,0.4016 -0.177002,0.1368 -0.52002,0.1368 -0.129395,0 -0.275879,-0.029 -0.145264,-0.029 -0.301514,-0.087 l 0,-0.2539 q 0.150147,0.084 0.29419,0.1269 0.144043,0.043 0.283203,0.043 0.211182,0 0.325928,-0.083 0.114746,-0.083 0.114746,-0.2369 0,-0.1342 -0.08301,-0.2099 -0.08179,-0.076 -0.269775,-0.1135 l -0.150147,-0.029 q -0.275879,-0.055 -0.39917,-0.1722 -0.123291,-0.1171 -0.123291,-0.3259 0,-0.2417 0.169678,-0.3808 0.170898,-0.1392 0.469971,-0.1392 0.128173,0 0.26123,0.023 0.133057,0.023 0.272217,0.07 z" />
        <path
           inkscape:connector-curvature="0"
           id="path4396"
           d="m 27.840275,1032.069 0,0.2404 q -0.140381,-0.067 -0.264893,-0.1 -0.124511,-0.033 -0.240478,-0.033 -0.201416,0 -0.31128,0.078 -0.108642,0.078 -0.108642,0.2222 0,0.1208 0.07202,0.1831 0.07324,0.061 0.275879,0.099 l 0.148926,0.03 q 0.275879,0.053 0.406494,0.1855 0.131836,0.1319 0.131836,0.354 0,0.2649 -0.178223,0.4016 -0.177002,0.1368 -0.520019,0.1368 -0.129395,0 -0.275879,-0.029 -0.145264,-0.029 -0.301514,-0.087 l 0,-0.2539 q 0.150147,0.084 0.29419,0.1269 0.144043,0.043 0.283203,0.043 0.211182,0 0.325928,-0.083 0.114746,-0.083 0.114746,-0.2369 0,-0.1342 -0.08301,-0.2099 -0.08179,-0.076 -0.269775,-0.1135 l -0.150147,-0.029 q -0.275879,-0.055 -0.39917,-0.1722 -0.123291,-0.1171 -0.123291,-0.3259 0,-0.2417 0.169678,-0.3808 0.170898,-0.1392 0.469971,-0.1392 0.128173,0 0.26123,0.023 0.133057,0.023 0.272217,0.07 z" />
        <path
           inkscape:connector-curvature="0"
           id="path4398"
           d="m 29.432072,1032.069 0,0.2404 q -0.140381,-0.067 -0.264893,-0.1 -0.124512,-0.033 -0.240478,-0.033 -0.201416,0 -0.31128,0.078 -0.108642,0.078 -0.108642,0.2222 0,0.1208 0.07202,0.1831 0.07324,0.061 0.275879,0.099 l 0.148926,0.03 q 0.275879,0.053 0.406494,0.1855 0.131836,0.1319 0.131836,0.354 0,0.2649 -0.178223,0.4016 -0.177002,0.1368 -0.520019,0.1368 -0.129395,0 -0.275879,-0.029 -0.145264,-0.029 -0.301514,-0.087 l 0,-0.2539 q 0.150147,0.084 0.29419,0.1269 0.144043,0.043 0.283203,0.043 0.211181,0 0.325928,-0.083 0.114746,-0.083 0.114746,-0.2369 0,-0.1342 -0.08301,-0.2099 -0.08179,-0.076 -0.269776,-0.1135 l -0.150146,-0.029 q -0.275879,-0.055 -0.39917,-0.1722 -0.123291,-0.1171 -0.123291,-0.3259 0,-0.2417 0.169678,-0.3808 0.170898,-0.1392 0.46997,-0.1392 0.128174,0 0.261231,0.023 0.133057,0.023 0.272217,0.07 z" />
        <path
           inkscape:connector-curvature="0"
           id="path4400"
           d="m 29.826359,1032.0092 1.431885,0 0,0.1879 -1.152344,1.427 1.18042,0 0,0.2076 -1.488037,0 0,-0.188 1.152343,-1.427 -1.124267,0 0,-0.2075 z" />
        <path
           inkscape:connector-curvature="0"
           id="path4402"
           d="m 31.540226,1032.0092 1.431885,0 0,0.1879 -1.152344,1.427 1.18042,0 0,0.2076 -1.488037,0 0,-0.188 1.152344,-1.427 -1.124268,0 0,-0.2075 z" />
        <path
           inkscape:connector-curvature="0"
           id="path4404"
           d="m 23.810734,1036.0863 0,0.6677 0.395508,0 q 0.198974,0 0.294189,-0.082 0.09644,-0.083 0.09644,-0.2526 0,-0.1709 -0.09644,-0.2515 -0.09521,-0.082 -0.294189,-0.082 l -0.395508,0 z m 0,-0.7495 0,0.5493 0.36499,0 q 0.180664,0 0.268555,-0.067 0.08911,-0.068 0.08911,-0.2075 0,-0.138 -0.08911,-0.2063 -0.08789,-0.068 -0.268555,-0.068 l -0.36499,0 z m -0.246582,-0.2026 0.629883,0 q 0.281982,0 0.43457,0.1171 0.152588,0.1172 0.152588,0.3333 0,0.1672 -0.07813,0.2661 -0.07813,0.099 -0.229492,0.1233 0.181884,0.039 0.281982,0.1636 0.101318,0.1233 0.101318,0.3088 0,0.2442 -0.166015,0.3772 -0.166016,0.1331 -0.472412,0.1331 l -0.654297,0 0,-1.8225 z" />
        <path
           inkscape:connector-curvature="0"
           id="path4406"
           d="m 25.278019,1035.1342 0.367432,0 0.465087,1.2402 0.46753,-1.2402 0.367431,0 0,1.8225 -0.240478,0 0,-1.6004 -0.469971,1.25 -0.247803,0 -0.46997,-1.25 0,1.6004 -0.239258,0 0,-1.8225 z" />
        <path
           inkscape:connector-curvature="0"
           id="path4408"
           d="m 27.308048,1036.1718 0.657959,0 0,0.2001 -0.657959,0 0,-0.2001 z" />
        <path
           inkscape:connector-curvature="0"
           id="path4410"
           d="m 28.883976,1035.2965 q -0.19043,0 -0.286865,0.188 -0.09522,0.1868 -0.09522,0.5627 0,0.3748 0.09522,0.5628 0.09643,0.1868 0.286865,0.1868 0.19165,0 0.286865,-0.1868 0.09644,-0.188 0.09644,-0.5628 0,-0.3759 -0.09644,-0.5627 -0.09521,-0.188 -0.286865,-0.188 z m 0,-0.1953 q 0.306396,0 0.467529,0.2429 0.162354,0.2417 0.162354,0.7031 0,0.4602 -0.162354,0.7032 -0.161133,0.2417 -0.467529,0.2417 -0.306397,0 -0.46875,-0.2417 -0.161133,-0.243 -0.161133,-0.7032 0,-0.4614 0.161133,-0.7031 0.162353,-0.2429 0.46875,-0.2429 z" />
        <path
           inkscape:connector-curvature="0"
           id="path4412"
           d="m 29.955753,1036.9188 0,-0.2246 q 0.09277,0.044 0.187989,0.067 0.09521,0.023 0.186767,0.023 0.244141,0 0.372315,-0.1635 0.129394,-0.1648 0.147705,-0.4993 -0.0708,0.105 -0.179444,0.1611 -0.108642,0.056 -0.240478,0.056 -0.273438,0 -0.43335,-0.1648 -0.158691,-0.166 -0.158691,-0.4529 0,-0.2807 0.166015,-0.4504 0.166016,-0.1697 0.441895,-0.1697 0.316162,0 0.482178,0.2429 0.167236,0.2417 0.167236,0.7031 0,0.4309 -0.205078,0.6885 -0.203858,0.2564 -0.549316,0.2564 -0.09277,0 -0.187989,-0.018 -0.09521,-0.018 -0.197754,-0.055 z m 0.490723,-0.7727 q 0.166016,0 0.262451,-0.1135 0.09766,-0.1135 0.09766,-0.3113 0,-0.1965 -0.09766,-0.31 -0.09643,-0.1148 -0.262451,-0.1148 -0.166016,0 -0.263672,0.1148 -0.09643,0.1135 -0.09643,0.31 0,0.1978 0.09643,0.3113 0.09766,0.1135 0.263672,0.1135 z" />
        <path
           inkscape:connector-curvature="0"
           id="path4414"
           d="m 23.588566,1038.2592 0.968017,0 0,0.2075 -0.742187,0 0,0.4468 q 0.05371,-0.018 0.107422,-0.027 0.05371,-0.01 0.107422,-0.01 0.305175,0 0.483398,0.1673 0.178223,0.1672 0.178223,0.4528 0,0.2942 -0.183106,0.4578 -0.183105,0.1624 -0.516357,0.1624 -0.114746,0 -0.234375,-0.02 -0.118408,-0.02 -0.245361,-0.059 l 0,-0.2478 q 0.109863,0.06 0.22705,0.089 0.117188,0.029 0.247803,0.029 0.211182,0 0.334473,-0.111 0.123291,-0.1111 0.123291,-0.3016 0,-0.1904 -0.123291,-0.3015 -0.123291,-0.111 -0.334473,-0.111 -0.09888,0 -0.197754,0.022 -0.09766,0.022 -0.200195,0.068 l 0,-0.9155 z" />
        <path
           inkscape:connector-curvature="0"
           id="path4416"
           d="m 25.115665,1038.2592 1.171875,0 0,0.1049 -0.661621,1.7176 -0.257568,0 0.622559,-1.615 -0.875245,0 0,-0.2075 z" />
        <path
           inkscape:connector-curvature="0"
           id="path4418"
           d="m 27.516788,1039.099 q 0.177002,0.038 0.275879,0.1575 0.100098,0.1196 0.100098,0.2954 0,0.2698 -0.185547,0.4175 -0.185547,0.1477 -0.527344,0.1477 -0.114746,0 -0.236816,-0.023 -0.12085,-0.022 -0.250244,-0.067 l 0,-0.238 q 0.102539,0.06 0.224609,0.09 0.122071,0.031 0.255127,0.031 0.231934,0 0.352783,-0.091 0.122071,-0.092 0.122071,-0.2661 0,-0.1612 -0.113526,-0.2515 -0.112304,-0.091 -0.31372,-0.091 l -0.212403,0 0,-0.2027 0.222168,0 q 0.181885,0 0.278321,-0.072 0.09643,-0.073 0.09643,-0.21 0,-0.1403 -0.100098,-0.2148 -0.09888,-0.076 -0.284423,-0.076 -0.101319,0 -0.217286,0.022 -0.115966,0.022 -0.255126,0.068 l 0,-0.2197 q 0.14038,-0.039 0.262451,-0.059 0.123291,-0.019 0.231933,-0.019 0.280762,0 0.444336,0.1282 0.163574,0.1269 0.163574,0.3442 0,0.1514 -0.08667,0.2564 -0.08667,0.1037 -0.246583,0.144 z" />
      </g>
      <ellipse
         ry="1.4604172"
         rx="1.3885933"
         cy="1017.4797"
         cx="6.7035542"
         id="path3537"
         style="fill:#000000" />
    </g>
  </g>
</svg>
