<?xml version="1.0" encoding="utf-8"?>
<!-- Generator: Adobe Illustrator 20.0.0, SVG Export Plug-In . SVG Version: 6.00 Build 0)  -->
<svg version="1.2" baseProfile="tiny" id="Layer_1" xmlns="http://www.w3.org/2000/svg" xmlns:xlink="http://www.w3.org/1999/xlink"
	 x="0px" y="0px" width="41.754px" height="64.802px" viewBox="0 0 41.754 64.802" xml:space="preserve">
<g>
	<path fill="#0F2D4B" d="M0,24.367c0.47,0,0.85,0.381,0.85,0.85c0,0.47-0.381,0.85-0.85,0.85l0,1.179c0.47,0,0.85,0.381,0.85,0.85
		S0.47,28.947,0,28.947l0,1.179c0.47,0,0.85,0.381,0.85,0.85S0.47,31.827,0,31.827l0,1.179c0.47,0,0.85,0.381,0.85,0.85
		S0.47,34.707,0,34.707l0,1.179c0.47,0,0.85,0.381,0.85,0.85S0.47,37.587,0,37.587l0,1.179c0.47,0,0.85,0.381,0.85,0.85
		S0.47,40.467,0,40.467l0,1.179c0.47,0,0.85,0.381,0.85,0.85S0.47,43.347,0,43.347l0,1.179c0.47,0,0.85,0.381,0.85,0.85
		S0.47,46.227,0,46.227l0,1.179c0.47,0,0.85,0.381,0.85,0.85S0.47,49.107,0,49.107l0,1.179c0.47,0,0.85,0.381,0.85,0.85
		S0.47,51.987,0,51.987l0,9.581h4.535c0-0.47,0.381-0.85,0.85-0.85s0.85,0.381,0.85,0.85h6.939c0-0.47,0.381-0.85,0.85-0.85
		s0.85,0.381,0.85,0.85h1.179c0-0.47,0.381-0.85,0.85-0.85s0.85,0.381,0.85,0.85h1.179c0-0.47,0.381-0.85,0.85-0.85
		s0.85,0.381,0.85,0.85h1.179c0-0.47,0.381-0.85,0.85-0.85s0.85,0.381,0.85,0.85h1.179c0-0.47,0.381-0.85,0.85-0.85
		s0.85,0.381,0.85,0.85h1.179c0-0.47,0.381-0.85,0.85-0.85s0.85,0.381,0.85,0.85h1.179c0-0.47,0.381-0.85,0.85-0.85
		s0.85,0.381,0.85,0.85h1.179c0-0.47,0.381-0.85,0.85-0.85c0.47,0,0.85,0.381,0.85,0.85h6.718V54.85c-0.47,0-0.85-0.381-0.85-0.85
		s0.381-0.85,0.85-0.85V51.97c-0.47,0-0.85-0.381-0.85-0.85s0.381-0.85,0.85-0.85V49.09c-0.47,0-0.85-0.381-0.85-0.85
		s0.381-0.85,0.85-0.85V46.21c-0.47,0-0.85-0.381-0.85-0.85s0.381-0.85,0.85-0.85V34.69c-0.47,0-0.85-0.381-0.85-0.85
		s0.381-0.85,0.85-0.85V28.93c-0.47,0-0.85-0.381-0.85-0.85s0.381-0.85,0.85-0.85V26.05c-0.47,0-0.85-0.381-0.85-0.85
		s0.381-0.85,0.85-0.85V23.17c-0.47,0-0.85-0.381-0.85-0.85s0.381-0.85,0.85-0.85V20.29c-0.47,0-0.85-0.381-0.85-0.85
		s0.381-0.85,0.85-0.85V0L0,0L0,24.367z"/>
	
		<rect x="1.516" y="21.331" transform="matrix(4.486284e-11 -1 1 4.486284e-11 -18.4536 60.2079)" fill="#DCDCDC" width="38.721" height="36"/>
	<path fill="#FFFFFF" d="M33.207,55.857H8.547c-1.566,0-2.835-1.269-2.835-2.835V25.639c0-1.566,1.269-2.835,2.835-2.835h24.661
		c1.566,0,2.835,1.269,2.835,2.835v27.383C36.042,54.588,34.773,55.857,33.207,55.857z"/>
	<path fill="#E1C57A" d="M0,50.287c0.47,0,0.85,0.381,0.85,0.85S0.47,51.987,0,51.987l0,0.316h1.318v-2.333H0L0,50.287z"/>
	<path fill="#E1C57A" d="M0,47.407c0.47,0,0.85,0.381,0.85,0.85S0.47,49.107,0,49.107l0,0.316h1.318v-2.333H0L0,47.407z"/>
	<path fill="#E1C57A" d="M0,44.527c0.47,0,0.85,0.381,0.85,0.85S0.47,46.227,0,46.227l0,0.316h1.318v-2.333H0L0,44.527z"/>
	<path fill="#E1C57A" d="M0,41.647c0.47,0,0.85,0.381,0.85,0.85S0.47,43.347,0,43.347l0,0.316h1.318v-2.333H0L0,41.647z"/>
	<path fill="#E1C57A" d="M0,38.767c0.47,0,0.85,0.381,0.85,0.85S0.47,40.467,0,40.467l0,0.316h1.318v-2.333H0L0,38.767z"/>
	<path fill="#E1C57A" d="M0,35.887c0.47,0,0.85,0.381,0.85,0.85S0.47,37.587,0,37.587l0,0.316h1.318v-2.333H0L0,35.887z"/>
	<path fill="#E1C57A" d="M0,33.007c0.47,0,0.85,0.381,0.85,0.85S0.47,34.707,0,34.707l0,0.316h1.318v-2.333H0L0,33.007z"/>
	<path fill="#E1C57A" d="M0,30.127c0.47,0,0.85,0.381,0.85,0.85S0.47,31.827,0,31.827l0,0.316h1.318v-2.333H0L0,30.127z"/>
	<path fill="#E1C57A" d="M0,27.247c0.47,0,0.85,0.381,0.85,0.85S0.47,28.947,0,28.947l0,0.316h1.318v-2.333H0L0,27.247z"/>
	<path fill="#E1C57A" d="M0,24.367c0.47,0,0.85,0.381,0.85,0.85S0.47,26.067,0,26.067l0,0.316h1.318v-2.333H0L0,24.367z"/>
	<path fill="#E1C57A" d="M4.535,61.568c0-0.47,0.381-0.85,0.85-0.85s0.85,0.381,0.85,0.85h0.316V60.25H4.219v1.318H4.535z"/>
	<path fill="#E1C57A" d="M13.175,61.568c0-0.47,0.381-0.85,0.85-0.85s0.85,0.381,0.85,0.85h0.316V60.25h-2.333v1.318H13.175z"/>
	<path fill="#E1C57A" d="M16.055,61.568c0-0.47,0.381-0.85,0.85-0.85s0.85,0.381,0.85,0.85h0.316V60.25h-2.333v1.318H16.055z"/>
	<path fill="#E1C57A" d="M18.935,61.568c0-0.47,0.381-0.85,0.85-0.85s0.85,0.381,0.85,0.85h0.316V60.25h-2.333v1.318H18.935z"/>
	<path fill="#E1C57A" d="M21.815,61.568c0-0.47,0.381-0.85,0.85-0.85s0.85,0.381,0.85,0.85h0.316V60.25h-2.333v1.318H21.815z"/>
	<path fill="#E1C57A" d="M24.695,61.568c0-0.47,0.381-0.85,0.85-0.85s0.85,0.381,0.85,0.85h0.316V60.25h-2.333v1.318H24.695z"/>
	<path fill="#E1C57A" d="M27.575,61.568c0-0.47,0.381-0.85,0.85-0.85s0.85,0.381,0.85,0.85h0.316V60.25h-2.333v1.318H27.575z"/>
	<path fill="#E1C57A" d="M30.455,61.568c0-0.47,0.381-0.85,0.85-0.85s0.85,0.381,0.85,0.85h0.316V60.25h-2.333v1.318H30.455z"/>
	<path fill="#E1C57A" d="M33.335,61.568c0-0.47,0.381-0.85,0.85-0.85s0.85,0.381,0.85,0.85h0.316V60.25h-2.333v1.318H33.335z"/>
	<path fill="#E1C57A" d="M41.754,54.85c-0.47,0-0.85-0.381-0.85-0.85s0.381-0.85,0.85-0.85v-0.316h-1.318v2.333h1.318V54.85z"/>
	<path fill="#E1C57A" d="M41.754,51.97c-0.47,0-0.85-0.381-0.85-0.85s0.381-0.85,0.85-0.85v-0.316h-1.318v2.333h1.318V51.97z"/>
	<path fill="#E1C57A" d="M41.754,49.09c-0.47,0-0.85-0.381-0.85-0.85s0.381-0.85,0.85-0.85v-0.316h-1.318v2.333h1.318V49.09z"/>
	<path fill="#E1C57A" d="M41.754,46.21c-0.47,0-0.85-0.381-0.85-0.85s0.381-0.85,0.85-0.85v-0.316h-1.318v2.333h1.318V46.21z"/>
	<path fill="#E1C57A" d="M41.754,34.69c-0.47,0-0.85-0.381-0.85-0.85s0.381-0.85,0.85-0.85v-0.316h-1.318v2.333h1.318V34.69z"/>
	<path fill="#E1C57A" d="M41.754,28.93c-0.47,0-0.85-0.381-0.85-0.85s0.381-0.85,0.85-0.85v-0.316h-1.318v2.333h1.318V28.93z"/>
	<path fill="#E1C57A" d="M41.754,26.05c-0.47,0-0.85-0.381-0.85-0.85s0.381-0.85,0.85-0.85v-0.316h-1.318v2.333h1.318V26.05z"/>
	<path fill="#E1C57A" d="M41.754,23.17c-0.47,0-0.85-0.381-0.85-0.85s0.381-0.85,0.85-0.85v-0.316h-1.318v2.333h1.318V23.17z"/>
	<path fill="#E1C57A" d="M41.754,20.29c-0.47,0-0.85-0.381-0.85-0.85s0.381-0.85,0.85-0.85v-0.316h-1.318v2.333h1.318V20.29z"/>
	<polygon fill="#E1C57A" points="40.888,1.793 40.888,15.465 38.347,15.465 38.347,3.206 34.451,3.206 34.451,7.088 33.118,7.088 
		33.118,3.206 28.442,3.206 28.442,10.463 19.976,10.463 19.976,3.248 15.299,3.248 15.299,10.505 6.981,10.505 6.981,3.227 
		2.241,3.227 2.241,14.134 0.823,14.134 0.823,1.878 8.25,1.878 8.25,9.05 13.966,9.05 13.966,1.793 21.457,1.793 21.457,9.05 
		26.961,9.05 26.961,1.793 	"/>
</g>
</svg>
