<?xml version="1.0" encoding="UTF-8" standalone="no"?>
<!-- Generator: Adobe Illustrator 20.0.0, SVG Export Plug-In . SVG Version: 6.00 Build 0)  -->

<svg
   xmlns:dc="http://purl.org/dc/elements/1.1/"
   xmlns:cc="http://creativecommons.org/ns#"
   xmlns:rdf="http://www.w3.org/1999/02/22-rdf-syntax-ns#"
   xmlns:svg="http://www.w3.org/2000/svg"
   xmlns="http://www.w3.org/2000/svg"
   xmlns:sodipodi="http://sodipodi.sourceforge.net/DTD/sodipodi-0.dtd"
   xmlns:inkscape="http://www.inkscape.org/namespaces/inkscape"
   version="1.2"
   id="Layer_1"
   x="0px"
   y="0px"
   width="5.4000916mm"
   height="5mm"
   viewBox="0 0 19.134181 17.716536"
   xml:space="preserve"
   inkscape:version="0.91 r13725"
   sodipodi:docname="ws28115050.svg"><metadata
     id="metadata31"><rdf:RDF><cc:Work
         rdf:about=""><dc:format>image/svg+xml</dc:format><dc:type
           rdf:resource="http://purl.org/dc/dcmitype/StillImage" /><dc:title></dc:title></cc:Work></rdf:RDF></metadata><defs
     id="defs29" /><sodipodi:namedview
     pagecolor="#ffffff"
     bordercolor="#666666"
     borderopacity="1"
     objecttolerance="10"
     gridtolerance="10"
     guidetolerance="10"
     inkscape:pageopacity="0"
     inkscape:pageshadow="2"
     inkscape:window-width="960"
     inkscape:window-height="857"
     id="namedview27"
     showgrid="false"
     inkscape:zoom="20.656954"
     inkscape:cx="5.6121496"
     inkscape:cy="6.3941312"
     inkscape:window-x="579"
     inkscape:window-y="100"
     inkscape:window-maximized="0"
     inkscape:current-layer="Layer_1"
     fit-margin-top="0"
     fit-margin-left="0"
     fit-margin-right="0"
     fit-margin-bottom="0"
     inkscape:document-units="mm"
     units="mm" /><rect
     x="13.465716"
     y="-19.134182"
     transform="matrix(0,1,-1,0,0,0)"
     width="2.4800398"
     height="19.134058"
     id="rect4170"
     style="fill:#dcdcdc" /><rect
     style="fill:#dcdcdc"
     id="rect5"
     height="19.134058"
     width="2.4800398"
     transform="matrix(0,1,-1,0,0,0)"
     y="-19.134058"
     x="1.7730289" /><rect
     style="fill:#dcdcdc"
     id="rect7"
     height="19.134058"
     width="2.4800398"
     transform="matrix(0,1,-1,0,0,0)"
     y="-19.134182"
     x="7.6081247" /><rect
     style="fill:#f0f0f0"
     id="rect9"
     height="17.716536"
     width="17.716536"
     y="3.786819e-008"
     x="0.70838606" /><circle
     style="fill:#dcdcdc"
     id="circle11"
     r="7.5301213"
     cy="8.8588924"
     cx="9.5672779" /><circle
     style="fill:#c8c8c8"
     id="circle13"
     r="6.2013497"
     cy="8.8588924"
     cx="9.5672779" /><polygon
     style="fill:#e6e6e6"
     id="polygon15"
     points="0.567,4.535 3.118,1.984 0.567,1.984 "
     transform="matrix(1.2500201,0,0,1.2500201,-3.7527067e-4,-2.4800398)" /><path
     style="fill:#f0f0f0"
     inkscape:connector-curvature="0"
     id="path17"
     d="m 13.40734,5.3150855 0,0.1550025 c 0,0.1962532 -0.158752,0.3537557 -0.353755,0.3537557 l -2.507541,0 c -0.196253,0 -0.353755,-0.1587525 -0.353755,-0.3537557 l 0,-2.7487942 c -0.2087537,-0.02125 -0.411257,-0.062501 -0.6250104,-0.062501 -0.2137535,0 -0.4162567,0.041251 -0.6250101,0.062501 l 0,8.6313892 c 0,0.196253 -0.1587525,0.353755 -0.3537557,0.353755 l -2.5087903,0 c -0.1962532,0 -0.3537557,-0.158752 -0.3537557,-0.353755 l 0,-6.0375975 c 0,-0.1962531 -0.1587525,-0.3537556 -0.3537557,-0.3537556 l -0.5925095,0 C 3.9096876,6.028847 3.3659289,7.3738686 3.3659289,8.8588925 c 0,1.5787755 0.6075097,3.0025485 1.5787753,4.0975655 l 3.6425586,0 c 0.1962532,0 0.3537557,0.158753 0.3537557,0.353756 l 0,1.686277 c 0.2087534,0.02125 0.4112566,0.0625 0.6250101,0.0625 0.2137534,0 0.4162566,-0.04125 0.6250104,-0.0625 l 0,-7.5676215 c 0,-0.1962531 0.158752,-0.3537557 0.353755,-0.3537557 l 2.507541,0 c 0.196253,0 0.353755,0.1587526 0.353755,0.3537557 l 0,4.9738305 c 0,0.196253 0.158753,0.353755 0.353756,0.353755 l 0.591259,0 c 0.870014,-1.067517 1.413773,-2.412539 1.413773,-3.8975625 0,-1.4850239 -0.543759,-2.8300455 -1.413773,-3.8975626 l -0.588759,0 c -0.196253,0 -0.355006,0.1587525 -0.355006,0.3537556 z" /><rect
     style="fill:#645050"
     id="rect19"
     height="2.1262841"
     width="2.8350453"
     y="8.5751381"
     x="5.9022198" /><rect
     style="fill:#ff4000"
     id="rect21"
     height="0.70876133"
     width="1.0625172"
     y="8.5038862"
     x="10.618546" /><rect
     style="fill:#40ff40"
     id="rect23"
     height="0.70876133"
     width="1.0625172"
     y="12.047693"
     x="10.618546" /><rect
     style="fill:#4040ff"
     id="rect25"
     height="0.70876133"
     width="1.0625172"
     y="4.9613299"
     x="10.618546" /></svg>