<svg width=".4444in" height=".4444in" baseProfile="tiny" version="1.2" viewBox="0 0 32 32" xmlns="http://www.w3.org/2000/svg" xmlns:xml="http://www.w3.org/XML/1998/namespace">
 <g id="icon" transform="translate(172,-267.9)">
  <path d="M-143.9,268.8H-156v2c3.5,0,6.4,2,6.4,4.5s-2.9,4.5-6.4,4.5v6.6h12.1V268.8z" fill="#BFBCBC"/>
  <path d="m-162.4 275.3c0-2.5 2.9-4.5 6.4-4.5v-2h-12.1v17.5h12.1v-6.5c-3.5 0-6.4-2-6.4-4.5z" fill="#808080"/>
  <g fill="#8C8C8C">
   <rect x="-165.3" y="306.1" width="2.4" height="24.9"/>
   <rect x="-157.2" y="306.1" width="2.4" height="24.9"/>
   <rect x="-149.1" y="306.1" width="2.4" height="24.9"/>
  </g>
  <polygon points="-171 272.1 -171 282.9 -168.1 282.9 -168.1 268.8" fill="#ccc"/>
  <polygon points="-141 272.1 -143.9 268.8 -143.9 282.9 -141 282.9" fill="#999"/>
  <g fill="#8C8C8C">
   <polygon points="-161.3 314.3 -163.1 315.1 -165.1 315.1 -166.9 314.3 -166.9 304.5 -161.3 304.5"/>
   <polygon points="-153.2 314.3 -155 315.1 -157 315.1 -158.8 314.3 -158.8 304.5 -153.2 304.5"/>
   <polygon points="-145.1 314.3 -146.9 315.1 -148.9 315.1 -150.7 314.3 -150.7 304.5 -145.1 304.5"/>
  </g>
  <rect x="-150.7" y="294" width="9.7" height="18" fill="#141414"/>
  <rect x="-171" y="294" width="9.7" height="18" fill="#333"/>
  <path d="m-171 300.5v5.8c2.3 0 4.2-1.3 4.2-2.9s-1.9-2.9-4.2-2.9z" fill="#262626"/>
  <path d="m-141 300.5c-2.3 0-4.2 1.3-4.2 2.9s1.9 2.9 4.2 2.9v-5.8z"/>
  <path d="m-171 294v8c2.3 0 4.2 1.3 4.2 2.9s-1.9 2.9-4.2 2.9v4.2h30v-18h-30zm30 13.8c-2.3 0-4.2-1.3-4.2-2.9s1.9-2.9 4.2-2.9v5.8z" fill="#1A1A1A"/>
  <rect x="-171" y="290.2" width="30" height="3.8"/>
  <rect x="-171" y="285.5" width="30" height="4.7" fill="#333"/>
  <rect x="-168.1" y="268.8" width="24.3" height="3.4" fill="#B2B2B2"/>
  <path d="m-143.9 271.5h-24.3l-2.8 3.3v10.8h30v-10.8l-2.9-3.3zm-12.1 10.9c-3.5 0-6.4-2-6.4-4.5s2.9-4.5 6.4-4.5 6.4 2 6.4 4.5-2.9 4.5-6.4 4.5z" fill="#8C8C8C"/>
  <text x="-166.5" y="299" fill="#dddddd" font-family="Droid Sans" font-size="6" stroke-width="30">XL4016</text>
 </g>
</svg>
