<?xml version="1.0" encoding="UTF-8" standalone="no"?>
<!-- Created with Inkscape (http://www.inkscape.org/) -->

<svg
   xmlns:dc="http://purl.org/dc/elements/1.1/"
   xmlns:cc="http://creativecommons.org/ns#"
   xmlns:rdf="http://www.w3.org/1999/02/22-rdf-syntax-ns#"
   xmlns:svg="http://www.w3.org/2000/svg"
   xmlns="http://www.w3.org/2000/svg"
   xmlns:sodipodi="http://sodipodi.sourceforge.net/DTD/sodipodi-0.dtd"
   xmlns:inkscape="http://www.inkscape.org/namespaces/inkscape"
   width="3.2mm"
   height="1.5mm"
   viewBox="0 0 11.338583 5.3149607"
   id="svg8932"
   version="1.1"
   inkscape:version="0.91 r13725"
   sodipodi:docname="xtal3215.svg">
  <defs
     id="defs8934" />
  <sodipodi:namedview
     id="base"
     pagecolor="#ffffff"
     bordercolor="#666666"
     borderopacity="1.0"
     inkscape:pageopacity="0.0"
     inkscape:pageshadow="2"
     inkscape:zoom="15.839192"
     inkscape:cx="15.402357"
     inkscape:cy="3.6139759"
     inkscape:document-units="px"
     inkscape:current-layer="layer1"
     showgrid="false"
     fit-margin-top="0"
     fit-margin-left="0"
     fit-margin-right="0"
     fit-margin-bottom="0"
     inkscape:window-width="1920"
     inkscape:window-height="1018"
     inkscape:window-x="-8"
     inkscape:window-y="-8"
     inkscape:window-maximized="1" />
  <metadata
     id="metadata8937">
    <rdf:RDF>
      <cc:Work
         rdf:about="">
        <dc:format>image/svg+xml</dc:format>
        <dc:type
           rdf:resource="http://purl.org/dc/dcmitype/StillImage" />
        <dc:title></dc:title>
      </cc:Work>
    </rdf:RDF>
  </metadata>
  <g
     inkscape:label="Layer 1"
     inkscape:groupmode="layer"
     id="layer1"
     transform="translate(-445.51435,-265.56146)">
    <g
       id="g8994"
       transform="matrix(0,0.6284688,-0.48755518,0,581.18922,-19.080768)">
      <g
         transform="translate(429.69286,163.11692)"
         id="g2855">
        <path
           style="fill:#d2d2d4"
           inkscape:connector-curvature="0"
           id="path2857"
           d="m 31.616,114.727 c 0,0.204 -0.127,0.37 -0.285,0.37 l -7.762,0 c -0.157,0 -0.285,-0.166 -0.285,-0.37 l 0,-22.391 c 0,-0.204 0.127,-0.37 0.285,-0.37 l 7.762,0 c 0.157,0 0.285,0.166 0.285,0.37 l 0,22.391 z" />
        <path
           style="fill:#808184"
           inkscape:connector-curvature="0"
           id="path2859"
           d="m 31.331,115.159 -7.763,0 c -0.191,0 -0.347,-0.194 -0.347,-0.432 l 0,-22.391 c 0,-0.239 0.155,-0.433 0.347,-0.433 l 7.763,0 c 0.191,0 0.347,0.194 0.347,0.433 l 0,22.391 c 0,0.239 -0.155,0.432 -0.347,0.432 z m -7.762,-23.13 c -0.122,0 -0.222,0.138 -0.222,0.308 l 0,22.391 c 0,0.169 0.1,0.307 0.222,0.307 l 7.763,0 c 0.122,0 0.222,-0.138 0.222,-0.307 l 0,-22.392 c 0,-0.169 -0.1,-0.308 -0.222,-0.308 l -7.763,0 z" />
      </g>
      <g
         transform="translate(429.69286,163.11692)"
         id="g2861">
        <g
           style="opacity:0.8"
           id="g2863">
          <path
             style="fill:#d2d2d4"
             inkscape:connector-curvature="0"
             id="path2865"
             d="m 30.714,112.371 c 0,0.817 -0.633,1.479 -1.413,1.479 l -3.701,0 c -0.781,0 -1.413,-0.662 -1.413,-1.479 l 0,-17.678 c 0,-0.817 0.633,-1.479 1.413,-1.479 l 3.701,0 c 0.781,0 1.413,0.662 1.413,1.479 l 0,17.678 z" />
          <path
             style="fill:#808184"
             inkscape:connector-curvature="0"
             id="path2867"
             d="m 29.301,113.912 -3.701,0 c -0.814,0 -1.477,-0.691 -1.477,-1.542 l 0,-17.677 c 0,-0.85 0.662,-1.542 1.477,-1.542 l 3.701,0 c 0.813,0 1.476,0.692 1.476,1.542 l 0,17.678 c 0,0.85 -0.662,1.541 -1.476,1.541 z M 25.6,93.276 c -0.745,0 -1.352,0.636 -1.352,1.417 l 0,17.678 c 0,0.781 0.606,1.417 1.352,1.417 l 3.701,0 c 0.745,0 1.351,-0.635 1.351,-1.417 l 0,-17.678 c 0,-0.781 -0.605,-1.417 -1.351,-1.417 l -3.701,0 z" />
        </g>
        <g
           id="g2869">
          <g
             id="g2871">
            <path
               style="fill:#e5e6e7"
               inkscape:connector-curvature="0"
               id="path2873"
               d="m 28.73,111.682 c 0.104,0 0.163,0.059 0.163,0.212 0,0.152 -0.058,0.212 -0.163,0.212 l -2.372,0 0,-1.406 c 0,-0.195 0.023,-0.335 0.134,-0.487 0.13,-0.182 0.251,-0.199 0.427,-0.199 l 0.443,0 c 0.167,0 0.284,0.017 0.417,0.174 0.144,0.165 0.156,0.339 0.156,0.567 l 0,0.927 0.795,0 z m -1.121,0 0,-0.94 c 0,-0.25 -0.049,-0.305 -0.235,-0.305 l -0.456,0 c -0.186,0 -0.235,0.055 -0.235,0.305 l 0,0.94 0.926,0 z" />
          </g>
          <g
             id="g2875">
            <path
               style="fill:#e5e6e7"
               inkscape:connector-curvature="0"
               id="path2877"
               d="m 27.042,107.391 -0.521,0 c -0.104,0 -0.163,-0.059 -0.163,-0.212 0,-0.152 0.058,-0.212 0.163,-0.212 l 0.515,0 c 0.042,0 0.088,0.004 0.127,0.026 l 1.586,0.809 c 0.082,0.042 0.144,0.08 0.144,0.212 0,0.131 -0.062,0.169 -0.144,0.212 l -1.586,0.809 c -0.039,0.021 -0.085,0.026 -0.127,0.026 l -0.515,0 c -0.104,0 -0.163,-0.059 -0.163,-0.212 0,-0.153 0.058,-0.212 0.163,-0.212 l 0.521,0 1.245,-0.622 -1.245,-0.624 z" />
          </g>
        </g>
      </g>
    </g>
  </g>
</svg>
