<?xml version='1.0' encoding='utf-8'?>
<!DOCTYPE svg>
<!-- Generator: Adobe Illustrator 16.0.0, SVG Export Plug-In . SVG Version: 6.00 Build 0)  -->
<svg xmlns="http://www.w3.org/2000/svg" width="1.57486in" enable-background="new 0 0 113.39 167.24" height="2.32278in" version="1.1" xmlns:xml="http://www.w3.org/XML/1998/namespace" y="0px"  x="0px" xml:space="preserve" viewBox="0 0 113.39 167.24" gorn="0" id="Layer_1">
    <desc >
        <referenceFile >YumoE6B2.svg</referenceFile>
    </desc>
    <rect width="113.386" stroke="#000000" stroke-width="1" height="104.693" stroke-miterlimit="10" y="62.547"  x="0" fill="#414042"/>
    <rect width="56.693" stroke="#000000" stroke-width="1" height="14.173" stroke-miterlimit="10" y="42.517"  x="28.348" fill="#BCBEC0"/>
    <rect width="17.008" stroke="#000000" stroke-width="1" height="42.52" stroke-miterlimit="10"  x="48.191" fill="#D1D3D4"/>
    <rect width="113.388" stroke="#000000" stroke-width="1" height="5.857" stroke-miterlimit="10" y="56.69"  x="0.001" fill="#939598"/>
    <g >
        <path stroke="#000000" stroke-width="1" stroke-miterlimit="10"  d="M43.392,166.673c0,0.313-0.199,0.567-0.444,0.567h-7.98c-0.245,0-0.444-0.254-0.444-0.567v-13.205c0-0.313,0.199-0.567,0.444-0.567h7.98c0.245,0,0.444,0.254,0.444,0.567V166.673z" fill="#F7941E"/>
        <path stroke="#000000" stroke-width="1" stroke-miterlimit="10"  d="M52.26,166.673c0,0.313-0.199,0.567-0.444,0.567h-7.98c-0.245,0-0.444-0.254-0.444-0.567v-13.205c0-0.313,0.199-0.567,0.444-0.567h7.98c0.245,0,0.444,0.254,0.444,0.567V166.673z" fill="#F7941E"/>
        <path stroke="#000000" stroke-width="1" stroke-miterlimit="10"  d="M61.128,166.673c0,0.313-0.199,0.567-0.443,0.567h-7.981c-0.245,0-0.444-0.254-0.444-0.567v-13.205c0-0.313,0.199-0.567,0.444-0.567h7.981c0.244,0,0.443,0.254,0.443,0.567V166.673z" fill="#F7941E"/>
        <path stroke="#000000" stroke-width="1" stroke-miterlimit="10"  d="M69.997,166.673c0,0.313-0.199,0.567-0.443,0.567h-7.981c-0.245,0-0.444-0.254-0.444-0.567v-13.205c0-0.313,0.199-0.567,0.444-0.567h7.981c0.244,0,0.443,0.254,0.443,0.567V166.673z" fill="#F7941E"/>
        <path stroke="#000000" stroke-width="1" stroke-miterlimit="10"  d="M78.866,166.673c0,0.313-0.199,0.567-0.443,0.567h-7.981c-0.245,0-0.444-0.254-0.444-0.567v-13.205c0-0.313,0.199-0.567,0.444-0.567h7.981c0.244,0,0.443,0.254,0.443,0.567V166.673z" fill="#F7941E"/>
    </g>
    <g transform="matrix(0.9522 0 0 1 62.1318 151.2705)" >
        <g >
            <g >
                <text font-family="Droid Sans"  fill="#E6E7E8" font-size="12">Z</text>
            </g>
        </g>
    </g>
    <g transform="matrix(0.9522 0 0 1 70.457 151.2705)" >
        <g >
            <g >
                <text font-family="Droid Sans"  fill="#E6E7E8" font-size="12">G</text>
            </g>
        </g>
    </g>
    <g transform="matrix(0.9522 0 0 1 35.7988 151.2705)" >
        <g >
            <g >
                <text font-family="Droid Sans"  fill="#E6E7E8" font-size="12">V</text>
            </g>
        </g>
    </g>
    <g transform="matrix(0.9522 0 0 1 44.3818 151.2705)" >
        <g >
            <g >
                <text font-family="Droid Sans"  fill="#E6E7E8" font-size="12">A</text>
            </g>
        </g>
    </g>
    <g transform="matrix(0.9522 0 0 1 53.4653 151.2705)" >
        <g >
            <g >
                <text font-family="Droid Sans"  fill="#E6E7E8" font-size="12">B</text>
            </g>
        </g>
    </g>
</svg>
