<svg xmlns="http://www.w3.org/2000/svg" xmlns:xlink="http://www.w3.org/1999/xlink" viewBox="0 0 1588.74 3358.543" height="322.464" width="152.544"><style><![CDATA[.B{font-size:49px}.C{font-family:Droid Sans}.D{stroke-width:20}]]></style><text y="3311.668" x="733.618" class="B C">B</text><g class="D"><path d="M773.53 3025.517c-28.246 127.158-185.795 219.833-178.744 292.742" fill="none" stroke="maroon"/><path d="M793.14 3028.487c-9.566 128.752 4.16 213.804.877 284.13" fill="#ccc" stroke="#ccc"/></g><g stroke="#000"><path stroke-width="80" d="M792.084 2336.668v695"/><g stroke-width="13.889"><path fill="#414042" d="M6.944 875.654h1574.81v1454.07H6.944z"/><path fill="#bcbec0" d="M400.668 597.46h787.405v196.847H400.668z"/><path fill="#d1d3d4" d="M676.266 6.944H912.49V597.5H676.266z"/><path fill="#939598" d="M6.958 794.306h1574.837v81.347H6.958z"/></g></g><use xlink:href="#B" fill="#666"/><path d="M787.063 3030.438c-27.485 127.462-93.116 215.075-92.624 285.36" stroke="#000" class="D"/><g fill="#666"><use xlink:href="#B" x="100" y="1.042"/><use xlink:href="#C"/></g><path d="M801.84 3031.967c20.327 132.23 97.58 202.246 93.09 284.13" fill="#ccc" stroke="#f95" class="D"/><use xlink:href="#C" x="100" y="1.042" fill="#666"/><path d="M814.02 3018.048c21.387 129.968 190.937 207.342 180.086 303.27" fill="none" stroke="#00f" class="D"/><use xlink:href="#C" x="200" y="1.042" fill="#666"/><text y="3311.668" x="541.045" class="B C">V</text><text x="631.553" y="3311.568" class="B C">A</text><text x="833.444" y="3311.668" class="B C">Z</text><text y="3310.974" x="929.54" class="B C">G</text><defs ><path id="B" d="M604.167 3355.442c0 1.137-.42 2.06-.94 2.06h-16.872c-.518 0-.94-.923-.94-2.06v-47.965c0-1.137.42-2.06.94-2.06h16.872c.518 0 .94.923.94 2.06z"/><path id="C" d="M804.167 3355.442c0 1.137-.42 2.06-.937 2.06h-16.875c-.518 0-.94-.923-.94-2.06v-47.965c0-1.137.42-2.06.94-2.06h16.875c.516 0 .937.923.937 2.06z"/></defs></svg>