<?xml version='1.0' encoding='UTF-8' standalone='no'?>
<!-- Created with Fritzing (http://www.fritzing.org/) -->
<svg xmlns="http://www.w3.org/2000/svg"  width="1.2in" x="0in" version="1.2" y="0in" height="1.1in" viewBox="0 0 86.4 79.2" baseProfile="tiny">
 <desc >Fritzing schematic generated by brd2svg</desc>
 <g  id="schematic">
  <rect  width="57.15" x="14.4" y="14.4" fill="none" height="50.4" stroke="#000000" stroke-linejoin="round" stroke-linecap="round" stroke-width="0.9"/>
  <text  x="43.2" y="28.8" font-family="'Droid Sans'" fill="#000000" text-anchor="middle" stroke="none" id="label" font-size="3.5">SparkFun</text>
  <text  x="43.2" y="32.3" font-family="'Droid Sans'" fill="#000000" text-anchor="middle" stroke="none" id="label" font-size="3.5">Triple</text>
  <text  x="43.2" y="35.8" font-family="'Droid Sans'" fill="#000000" text-anchor="middle" stroke="none" id="label" font-size="3.5">Axis</text>
  <text  x="43.2" y="39.3" font-family="'Droid Sans'" fill="#000000" text-anchor="middle" stroke="none" id="label" font-size="3.5">Accelerometer</text>
  <text  x="43.2" y="42.8" font-family="'Droid Sans'" fill="#000000" text-anchor="middle" stroke="none" id="label" font-size="3.5">Breakout</text>
  <text  x="43.2" y="46.3" font-family="'Droid Sans'" fill="#000000" text-anchor="middle" stroke="none" id="label" font-size="3.5">MMA7361</text>
  <line  fill="none" stroke="#787878" stroke-linejoin="round" stroke-linecap="round" y1="28.8" stroke-width="0.699998" x1="0.349999" y2="28.8" x2="14.4"/>
  <rect  width="14.4" x="0" y="28.45" fill="none" height="0.699998" id="connector10pin" stroke-width="0" connectorName="0GD"/>
  <rect  width="0" x="0" y="28.45" fill="none" height="0.699998" id="connector10terminal" stroke-width="0"/>
  <text  x="15.8" y="29.5" font-family="'Droid Sans'" fill="#8c8c8c" text-anchor="start" stroke="none" id="label10" font-size="3.5">0GD</text>
  <line  fill="none" stroke="#787878" stroke-linejoin="round" stroke-linecap="round" y1="36" stroke-width="0.699998" x1="0.349999" y2="36" x2="14.4"/>
  <rect  width="14.4" x="0" y="35.65" fill="none" height="0.699998" id="connector9pin" stroke-width="0" connectorName="GSEL"/>
  <rect  width="0" x="0" y="35.65" fill="none" height="0.699998" id="connector9terminal" stroke-width="0"/>
  <text  x="15.8" y="36.7" font-family="'Droid Sans'" fill="#8c8c8c" text-anchor="start" stroke="none" id="label9" font-size="3.5">GSEL</text>
  <line  fill="none" stroke="#787878" stroke-linejoin="round" stroke-linecap="round" y1="43.2" stroke-width="0.699998" x1="0.349999" y2="43.2" x2="14.4"/>
  <rect  width="14.4" x="0" y="42.85" fill="none" height="0.699998" id="connector11pin" stroke-width="0" connectorName="SLEEP"/>
  <rect  width="0" x="0" y="42.85" fill="none" height="0.699998" id="connector11terminal" stroke-width="0"/>
  <text  x="15.8" y="43.9" font-family="'Droid Sans'" fill="#8c8c8c" text-anchor="start" stroke="none" id="label11" font-size="3.5">SLEEP</text>
  <line  fill="none" stroke="#787878" stroke-linejoin="round" stroke-linecap="round" y1="28.8" stroke-width="0.699998" x1="71.65" y2="28.8" x2="86.0501"/>
  <rect  width="14.4" x="72" y="28.45" fill="none" connectorname="ZOUT" height="0.699998" id="connector14pin" stroke-width="0"/>
  <rect  width="0" x="86.4" y="28.45" fill="none" height="0.699998" id="connector14terminal" stroke-width="0"/>
  <text  x="70.6" y="29.5" font-family="'Droid Sans'" fill="#8c8c8c" text-anchor="end" stroke="none" id="label14" font-size="3.5">ZOUT</text>
  <line  fill="none" stroke="#787878" stroke-linejoin="round" stroke-linecap="round" y1="36" stroke-width="0.699998" x1="71.65" y2="36" x2="86.0501"/>
  <rect  width="14.4" x="72" y="35.65" fill="none" connectorname="YOUT" height="0.699998" id="connector13pin" stroke-width="0"/>
  <rect  width="0" x="86.4" y="35.65" fill="none" height="0.699998" id="connector13terminal" stroke-width="0"/>
  <text  x="70.6" y="36.7" font-family="'Droid Sans'" fill="#8c8c8c" text-anchor="end" stroke="none" id="label13" font-size="3.5">YOUT</text>
  <line  fill="none" stroke="#787878" stroke-linejoin="round" stroke-linecap="round" y1="43.2" stroke-width="0.699998" x1="71.65" y2="43.2" x2="86.0501"/>
  <rect  width="14.4" x="72" y="42.85" fill="none" connectorname="XOUT" height="0.699998" id="connector12pin" stroke-width="0"/>
  <rect  width="0" x="86.4" y="42.85" fill="none" height="0.699998" id="connector12terminal" stroke-width="0"/>
  <text  x="70.6" y="43.9" font-family="'Droid Sans'" fill="#8c8c8c" text-anchor="end" stroke="none" id="label12" font-size="3.5">XOUT</text>
  <line  fill="none" stroke="#787878" stroke-linejoin="round" stroke-linecap="round" y1="50.4" stroke-width="0.699998" x1="71.65" y2="50.4" x2="86.0501"/>
  <rect  width="14.4" x="72" y="50.05" fill="none" connectorname="STP" height="0.699998" id="connector8pin" stroke-width="0"/>
  <rect  width="0" x="86.4" y="50.05" fill="none" height="0.699998" id="connector8terminal" stroke-width="0"/>
  <text  x="70.6" y="51.1" font-family="'Droid Sans'" fill="#8c8c8c" text-anchor="end" stroke="none" id="label8" font-size="3.5">STP</text>
  <line  fill="none" stroke="#787878" stroke-linejoin="round" stroke-linecap="round" y1="0.349999" stroke-width="0.699998" x1="43.2" y2="14.4" x2="43.2"/>
  <rect  width="0.699998" x="42.85" y="0" fill="none" connectorname="VDD" height="14.4" id="connector16pin" stroke-width="0"/>
  <rect  width="0.699998" x="42.85" y="0" fill="none" height="0" id="connector16terminal" stroke-width="0"/>
  <g  transform="matrix(1, 0, 0, 1, 44.6, 16)">
   <g  transform="rotate(270)">
    <text  x="0" y="0" font-family="'Droid Sans'" fill="#8c8c8c" text-anchor="end" stroke="none" id="label16" font-size="3.5">VDD</text>
   </g>
  </g>
  <line  fill="none" stroke="#787878" stroke-linejoin="round" stroke-linecap="round" y1="64.8" stroke-width="0.699998" x1="43.2" y2="78.8501" x2="43.2"/>
  <rect  width="0.699998" x="42.85" y="64.8" fill="none" connectorname="GND" height="14.4" id="connector15pin" stroke-width="0"/>
  <rect  width="0.699998" x="42.85" y="79.2" fill="none" height="0" id="connector15terminal" stroke-width="0"/>
  <g  transform="matrix(1, 0, 0, 1, 44.6, 63.2)">
   <g  transform="rotate(270)">
    <text  x="0" y="0" font-family="'Droid Sans'" fill="#8c8c8c" text-anchor="start" stroke="none" id="label15" font-size="3.5">GND</text>
   </g>
  </g>
 </g>
</svg>
