<?xml version='1.0' encoding='utf-8'?>
<!DOCTYPE svg>
<!-- Generator: Adobe Illustrator 17.0.0, SVG Export Plug-In . SVG Version: 6.00 Build 0)  -->
<svg xmlns="http://www.w3.org/2000/svg" width="4.16719in" x="0px" version="1.1" y="0px" gorn="0"  height="1.76639in" viewBox="0 0 300.038 127.18" xmlns:xml="http://www.w3.org/XML/1998/namespace" id="Layer_1" enable-background="new 0 0 300.038 127.18" xml:space="preserve">
    <desc >
        <referenceFile >ML8511_Breakout_schematic.svg</referenceFile>
    </desc>
    <desc >Fritzing schematic generated by brd2svg</desc>
    <g gorn="0.2"  id="schematic">
        <rect width="255.118" x="22.46" y="22.46" fill="none"  height="82.26" stroke="#000000" stroke-linejoin="round" stroke-linecap="round" stroke-width="2.4"/>
        <g  transform="matrix(1 0 0 1 119.1387 57.4795)">
            <g >
                <g  enable-background="new    ">
                    <text x="0" y="0" font-family="DroidSans"  font-size="18">ML8511</text>
                    <text x="-14.295" y="21.6" font-family="DroidSans"  font-size="18">UV SENSOR</text>
                </g>
            </g>
        </g>
        <line fill="none"  stroke="#000000" stroke-linejoin="round" stroke-linecap="round" y1="64.98" stroke-width="2.4" x1="1.2" y2="64.98" x2="21.26"/>
        <rect width="21.26" x="0" y="63.78" fill="none" gorn="0.2.3"  height="2.4" id="connector4pin"/>
        <rect width="2.4" x="0" y="63.78" fill="none" gorn="0.2.4"  height="2.4" id="connector4terminal"/>
        <g  transform="matrix(1 0 0 1 27.7399 67.3795)">
            <g >
                <text font-family="DroidSans" gorn="0.2.5.0.0"  id="label4" font-size="9.936">EN</text>
            </g>
        </g>
        <line fill="none"  stroke="#000000" stroke-linejoin="round" stroke-linecap="round" y1="64.98" stroke-width="2.4" x1="277.578" y2="64.98" x2="298.837"/>
        <rect width="21.26" x="278.778" y="63.78" fill="none" gorn="0.2.7"  height="2.4" id="connector10pin"/>
        <rect width="2.4" x="297.638" y="63.78" fill="none" gorn="0.2.8"  height="2.4" id="connector10terminal"/>
        <g  transform="matrix(1 0 0 1 254.4006 67.3795)">
            <g >
                <text font-family="DroidSans" gorn="0.2.9.0.0"  id="label10" font-size="9.936">OUT</text>
            </g>
        </g>
        <line fill="none"  stroke="#000000" stroke-linejoin="round" stroke-linecap="round" y1="1.2" stroke-width="2.4" x1="150.019" y2="21.26" x2="150.019"/>
        <rect width="2.4" x="148.819" y="0" fill="none" gorn="0.2.11"  height="21.26"/>
        <polygon fill="none" points="148.819,0 151.219,0 151.219,0 " gorn="0.2.12" />
        <g  transform="matrix(1 0 0 1 141.405 33.8599)">
            <g >
                <text font-family="DroidSans" gorn="0.2.13.0.0"  id="label0" font-size="9.936">3.3V</text>
            </g>
        </g>
        <line fill="none"  stroke="#000000" stroke-linejoin="round" stroke-linecap="round" y1="105.92" stroke-width="2.4" x1="150.019" y2="125.98" x2="150.019"/>
        <rect width="2.4" x="148.819" y="105.92" fill="none" gorn="0.2.15"  height="21.26"/>
        <polygon fill="none" points="148.819,127.18 151.219,127.18 151.219,127.18 " gorn="0.2.16" />
        <g  transform="matrix(1 0 0 1 139.5712 100.1593)">
            <g >
                <text font-family="DroidSans" gorn="0.2.17.0.0"  id="label1" font-size="9.936">GND</text>
            </g>
        </g>
        <rect width="2.4" x="148.819" y="0" fill="none" gorn="0.2.18"  height="21.26"/>
        <polygon fill="none" points="148.819,0 151.219,0 151.219,0 " gorn="0.2.19" />
        <rect width="2.4" x="148.819" y="0" fill="none" gorn="0.2.20"  height="21.26" id="connector6pin"/>
        <polygon fill="none" points="148.819,0 151.219,0 151.219,0 " gorn="0.2.21"  id="connector6terminal"/>
        <rect width="2.4" x="148.819" y="0" fill="none" gorn="0.2.22"  height="21.26" id="connector12pin"/>
        <polygon fill="none" points="148.819,0 151.219,0 151.219,0 " gorn="0.2.23"  id="connector12terminal"/>
        <rect width="2.4" x="148.819" y="0" fill="none" gorn="0.2.24"  height="21.26" id="connector15pin"/>
        <polygon fill="none" points="148.819,0 151.219,0 151.219,0 " gorn="0.2.25"  id="connector15terminal"/>
        <rect width="2.4" x="148.819" y="0" fill="none" gorn="0.2.26"  height="21.26" id="connector17pin"/>
        <polygon fill="none" points="148.819,0 151.219,0 151.219,0 " gorn="0.2.27"  id="connector17terminal"/>
        <rect width="2.4" x="148.819" y="0" fill="none" gorn="0.2.28"  height="21.26" id="connector18pin"/>
        <polygon fill="none" points="148.819,0 151.219,0 151.219,0 " gorn="0.2.29"  id="connector18terminal"/>
        <rect width="2.4" x="148.819" y="0" fill="none" gorn="0.2.30"  height="21.26" id="connector3pin"/>
        <polygon fill="none" points="148.819,0 151.219,0 151.219,0 " gorn="0.2.31"  id="connector21terminal"/>
        <rect width="2.4" x="148.819" y="105.92" fill="none" gorn="0.2.32"  height="21.26"/>
        <polygon fill="none" points="148.819,127.18 151.219,127.18 151.219,127.18 " gorn="0.2.33" />
        <rect width="2.4" x="148.819" y="105.92" fill="none" gorn="0.2.34"  height="21.26" id="connector5pin"/>
        <polygon fill="none" points="148.819,127.18 151.219,127.18 151.219,127.18 " gorn="0.2.35"  id="connector5terminal"/>
        <rect width="2.4" x="148.819" y="105.92" fill="none" gorn="0.2.36"  height="21.26" id="connector7pin"/>
        <polygon fill="none" points="148.819,127.18 151.219,127.18 151.219,127.18 " gorn="0.2.37"  id="connector7terminal"/>
        <rect width="2.4" x="148.819" y="105.92" fill="none" gorn="0.2.38"  height="21.26" id="connector13pin"/>
        <polygon fill="none" points="148.819,127.18 151.219,127.18 151.219,127.18 " gorn="0.2.39"  id="connector13terminal"/>
        <rect width="2.4" x="148.819" y="105.92" fill="none" gorn="0.2.40"  height="21.26" id="connector2pin"/>
        <polygon fill="none" points="148.819,127.18 151.219,127.18 151.219,127.18 " gorn="0.2.41"  id="connector20terminal"/>
        <rect width="21.26" x="0" y="63.78" fill="none" gorn="0.2.42"  height="2.4" id="connector0pin"/>
        <rect width="2.4" x="0" y="63.78" fill="none" gorn="0.2.43"  height="2.4" id="connector19terminal"/>
        <rect width="21.26" x="278.778" y="63.78" fill="none" gorn="0.2.44"  height="2.4" id="connector16pin"/>
        <rect width="2.4" x="297.638" y="63.78" fill="none" gorn="0.2.45"  height="2.4" id="connector16terminal"/>
        <rect width="21.26" x="278.778" y="63.78" fill="none" gorn="0.2.46"  height="2.4" id="connector1pin"/>
        <rect width="2.4" x="297.638" y="63.78" fill="none" gorn="0.2.47"  height="2.4" id="connector24terminal"/>
    </g>
</svg>
