<?xml version='1.0' encoding='utf-8'?>
<!DOCTYPE svg>
<!-- Generator: Adobe Illustrator 17.0.0, SVG Export Plug-In . SVG Version: 6.00 Build 0)  -->
<svg xmlns="http://www.w3.org/2000/svg" width="2.10026in" x="0px" version="1.1" y="0px" gorn="0"  height="1.80499in" viewBox="0 0 151.219 129.959" xmlns:xml="http://www.w3.org/XML/1998/namespace" id="Layer_1" enable-background="new 0 0 151.219 129.959" xml:space="preserve">
    <desc >
        <referenceFile >UhOh-v11_schematic.svg</referenceFile>
    </desc>
    <desc >Fritzing schematic generated by brd2svg</desc>
    <g gorn="0.2"  id="schematic">
        <rect width="106.299" x="22.46" y="22.46" fill="none"  height="85.039" stroke="#000000" stroke-linejoin="round" stroke-linecap="round" stroke-width="2.4"/>
        <g  transform="matrix(1 0 0 1 52.7735 60.9797)">
            <g >
                <g >
                    <g gorn="0.2.1.0.0.0"  id="label" enable-background="new    ">
                        <text x="0" y="0" font-family="DroidSans"  font-size="18">UhOh </text>
                        <text x="11.676" y="21.6" font-family="DroidSans"  font-size="18">v11</text>
                    </g>
                </g>
            </g>
        </g>
        <line fill="none" gorn="0.2.2"  stroke="#000000" stroke-linejoin="round" stroke-linecap="round" id="connector2pin" y1="1.2" stroke-width="2.4" x1="75.609" y2="21.26" x2="75.609"/>
        <rect width="2.4" x="74.409" y="0" fill="none"  height="21.26"/>
        <polygon fill="none" points="74.409,0 76.809,0 76.809,0 " />
        <g  transform="matrix(1 0 0 1 66.9955 33.8602)">
            <g >
                <g >
                    <text font-family="DroidSans" gorn="0.2.5.0.0.0"  id="label1" font-size="9.936">VCC</text>
                </g>
            </g>
        </g>
        <line fill="none"  stroke="#000000" stroke-linejoin="round" stroke-linecap="round" y1="108.699" stroke-width="2.4" x1="75.609" y2="128.759" x2="75.609"/>
        <rect width="2.4" x="74.409" y="108.699" fill="none"  height="21.26"/>
        <polygon fill="none" points="74.409,129.959 76.809,129.959 76.809,129.959 " />
        <g  transform="matrix(1 0 0 1 65.1615 102.9393)">
            <g >
                <g >
                    <text font-family="DroidSans" gorn="0.2.9.0.0.0"  id="label0" font-size="9.936">GND</text>
                </g>
            </g>
        </g>
        <rect width="2.4" x="74.409" y="0" fill="none"  height="21.26"/>
        <polygon fill="none" points="74.409,0 76.809,0 76.809,0 " />
        <rect width="2.4" x="74.409" y="0" fill="none"  height="21.26"/>
        <polygon fill="none" points="74.409,0 76.809,0 76.809,0 " />
        <rect width="2.4" x="74.409" y="0" fill="none" gorn="0.2.14"  height="21.26" id="connector0pin"/>
        <polygon fill="none" points="74.409,0 76.809,0 76.809,0 " gorn="0.2.15"  id="connector6terminal"/>
        <rect width="2.4" x="74.409" y="108.699" fill="none"  height="21.26"/>
        <polygon fill="none" points="74.409,129.959 76.809,129.959 76.809,129.959 " />
        <rect width="2.4" x="74.409" y="108.699" fill="none"  height="21.26"/>
        <polygon fill="none" points="74.409,129.959 76.809,129.959 76.809,129.959 " />
        <rect width="2.4" x="74.409" y="108.699" fill="none" gorn="0.2.20"  height="21.26" id="connector5pin"/>
        <polygon fill="none" points="74.409,129.959 76.809,129.959 76.809,129.959 " gorn="0.2.21"  id="connector7terminal"/>
        <line fill="none"  stroke="#000000" stroke-linejoin="round" stroke-linecap="round" y1="64.38" stroke-width="2.4" x1="1.2" y2="64.38" x2="21.26"/>
        <rect width="21.26" x="0" y="63.18" fill="none" gorn="0.2.23"  height="2.4" id="connector4pin"/>
        <rect width="2.4" x="0" y="63.18" fill="none" gorn="0.2.24"  height="2.4" id="connector16terminal"/>
        <g  transform="matrix(1 0 0 1 27.7399 66.7797)">
            <g >
                <g >
                    <text font-family="DroidSans" gorn="0.2.25.0.0.0"  id="label16" font-size="9.936">TP1</text>
                </g>
            </g>
        </g>
        <line fill="none" gorn="0.2.26"  stroke="#000000" stroke-linejoin="round" stroke-linecap="round" id="connector3pin" y1="127.709" stroke-width="2.4" x1="75.609" y2="107.649" x2="75.609"/>
        <rect width="2.4" x="74.409" y="106.449" fill="none" gorn="0.2.27"  height="21.26" id="connector0pin_1_"/>
        <polygon fill="none" points="76.809,106.449 74.409,106.449 74.409,106.449 " gorn="0.2.28"  id="connector0terminal_1_"/>
        <rect width="2.4" x="74.409" y="106.449" fill="none" gorn="0.2.29"  height="21.26" id="connector2pin_1_"/>
        <polygon fill="none" points="76.809,106.449 74.409,106.449 74.409,106.449 " gorn="0.2.30"  id="connector2terminal_1_"/>
        <rect width="2.4" x="74.409" y="106.449" fill="none" gorn="0.2.31"  height="21.26" id="connector4pin_1_"/>
        <polygon fill="none" points="76.809,106.449 74.409,106.449 74.409,106.449 " gorn="0.2.32"  id="connector4terminal_1_"/>
        <rect width="2.4" x="74.409" y="106.449" fill="none" gorn="0.2.33"  height="21.26" id="connector1pin"/>
        <polygon fill="none" points="76.809,106.449 74.409,106.449 74.409,106.449 " gorn="0.2.34"  id="connector7terminal_1_"/>
    </g>
</svg>
