<?xml version='1.0' encoding='utf-8'?>
<!DOCTYPE svg>
<!-- Generator: Adobe Illustrator 17.1.0, SVG Export Plug-In . SVG Version: 6.00 Build 0)  -->
<svg xmlns="http://www.w3.org/2000/svg" viewBox="0 0 363.8 249.3" id="Layer_1" enable-background="new 0 0 363.8 249.3" x="0px" y="0px" width="5.05278in" version="1.1" height="3.4625in" xml:space="preserve" gorn="0"  xmlns:xml="http://www.w3.org/XML/1998/namespace">
    <desc >
        <referenceFile >TB6612FNG Breakout v11_schematic.svg</referenceFile>
    </desc>
    <desc >Fritzing schematic generated by brd2svg</desc>
    <g id="schematic" gorn="0.2" >
        <rect fill="none" stroke-width="2.4" stroke="#000000" stroke-linecap="round" x="22.5" y="22.5" width="318.9" stroke-linejoin="round" height="204.3" />
        <g transform="matrix(1 0 0 1 78.9454 64.9795)" >
            <g >
                <g >
                    <g >
                        <text id="label" font-size="18" font-family="DroidSans" gorn="0.2.1.0.0.0.0" >TB6612FNG Breakout v11</text>
                    </g>
                </g>
            </g>
        </g>
        <line fill="none" stroke-width="2.4" y1="65" y2="65" stroke="#000000" stroke-linecap="round" x1="1.2" x2="21.3" stroke-linejoin="round" />
        <rect fill="none" x="0" y="63.8" width="21.3" height="2.4" />
        <rect fill="none" x="0" y="63.8" width="2.4" height="2.4" />
        <g transform="matrix(1 0 0 1 27.7402 67.3795)" >
            <g >
                <g >
                    <g >
                        <text id="label10" font-size="9.936" font-family="DroidSans" gorn="0.2.5.0.0.0.0" >PWMA</text>
                    </g>
                </g>
            </g>
        </g>
        <line fill="none" stroke-width="2.4" y1="86.2" y2="86.2" stroke="#000000" stroke-linecap="round" x1="1.2" x2="21.3" stroke-linejoin="round" />
        <rect fill="none" x="0" y="85" width="21.3" height="2.4" />
        <rect fill="none" x="0" y="85" width="2.4" height="2.4" />
        <g transform="matrix(1 0 0 1 27.7402 88.6392)" >
            <g >
                <g >
                    <g >
                        <text id="label9" font-size="9.936" font-family="DroidSans" gorn="0.2.9.0.0.0.0" >AIN2</text>
                    </g>
                </g>
            </g>
        </g>
        <line fill="none" stroke-width="2.4" y1="107.5" y2="107.5" stroke="#000000" stroke-linecap="round" x1="1.2" x2="21.3" stroke-linejoin="round" />
        <rect id="connector16pin" fill="none" x="0" y="106.3" width="21.3" height="2.4" gorn="0.2.11" />
        <rect id="connector16terminal" fill="none" x="0" y="106.3" width="2.4" height="2.4" gorn="0.2.12" />
        <g transform="matrix(1 0 0 1 27.7402 109.899)" >
            <g >
                <g >
                    <g >
                        <text id="label16" font-size="9.936" font-family="DroidSans" gorn="0.2.13.0.0.0.0" >AIN1</text>
                    </g>
                </g>
            </g>
        </g>
        <line fill="none" stroke-width="2.4" y1="128.8" y2="128.8" stroke="#000000" stroke-linecap="round" x1="1.2" x2="21.3" stroke-linejoin="round" />
        <rect fill="none" x="0" y="127.6" width="21.3" height="2.4" />
        <rect fill="none" x="0" y="127.6" width="2.4" height="2.4" />
        <g transform="matrix(1 0 0 1 27.7402 131.159)" >
            <g >
                <g >
                    <g >
                        <text id="label15" font-size="9.936" font-family="DroidSans" gorn="0.2.17.0.0.0.0" >STBY</text>
                    </g>
                </g>
            </g>
        </g>
        <line fill="none" stroke-width="2.4" y1="150" y2="150" stroke="#000000" stroke-linecap="round" x1="1.2" x2="21.3" stroke-linejoin="round" />
        <rect fill="none" x="0" y="148.8" width="21.3" height="2.4" />
        <rect fill="none" x="0" y="148.8" width="2.4" height="2.4" />
        <g transform="matrix(1 0 0 1 27.7402 152.419)" >
            <g >
                <g >
                    <g >
                        <text id="label7" font-size="9.936" font-family="DroidSans" gorn="0.2.21.0.0.0.0" >BIN1</text>
                    </g>
                </g>
            </g>
        </g>
        <line fill="none" stroke-width="2.4" y1="65" y2="65" stroke="#000000" stroke-linecap="round" x1="341.4" x2="362.6" stroke-linejoin="round" />
        <rect id="connector17pin" fill="none" x="342.6" y="63.8" width="21.3" height="2.4" gorn="0.2.23" />
        <rect id="connector17terminal" fill="none" x="361.4" y="63.8" width="2.4" height="2.4" gorn="0.2.24" />
        <g transform="matrix(1 0 0 1 314.4539 67.3795)" >
            <g >
                <g >
                    <g >
                        <text id="label17" font-size="9.936" font-family="DroidSans" gorn="0.2.25.0.0.0.0" >A01</text>
                    </g>
                </g>
            </g>
        </g>
        <line fill="none" stroke-width="2.4" y1="86.2" y2="86.2" stroke="#000000" stroke-linecap="round" x1="341.4" x2="362.6" stroke-linejoin="round" />
        <rect id="connector20pin" fill="none" x="342.6" y="85" width="21.3" height="2.4" gorn="0.2.27" />
        <rect id="connector20terminal" fill="none" x="361.4" y="85" width="2.4" height="2.4" gorn="0.2.28" />
        <g transform="matrix(1 0 0 1 313.9198 88.6392)" >
            <g >
                <g >
                    <g >
                        <text id="label20" font-size="9.936" font-family="DroidSans" gorn="0.2.29.0.0.0.0" >A02</text>
                    </g>
                </g>
            </g>
        </g>
        <line fill="none" stroke-width="2.4" y1="107.5" y2="107.5" stroke="#000000" stroke-linecap="round" x1="341.4" x2="362.6" stroke-linejoin="round" />
        <rect fill="none" x="342.6" y="106.3" width="21.3" height="2.4" />
        <rect fill="none" x="361.4" y="106.3" width="2.4" height="2.4" />
        <g transform="matrix(1 0 0 1 314.4536 109.899)" >
            <g >
                <g >
                    <g >
                        <text id="label14" font-size="9.936" font-family="DroidSans" gorn="0.2.33.0.0.0.0" >B02</text>
                    </g>
                </g>
            </g>
        </g>
        <line fill="none" stroke-width="2.4" y1="128.8" y2="128.8" stroke="#000000" stroke-linecap="round" x1="341.4" x2="362.6" stroke-linejoin="round" />
        <rect id="connector19pin" fill="none" x="342.6" y="127.6" width="21.3" height="2.4" gorn="0.2.35" />
        <rect id="connector19terminal" fill="none" x="361.4" y="127.6" width="2.4" height="2.4" gorn="0.2.36" />
        <g transform="matrix(1 0 0 1 314.4542 131.159)" >
            <g >
                <g >
                    <g >
                        <text id="label19" font-size="9.936" font-family="DroidSans" gorn="0.2.37.0.0.0.0" >B01</text>
                    </g>
                </g>
            </g>
        </g>
        <line fill="none" stroke-width="2.4" y1="1.2" y2="21.3" stroke="#000000" stroke-linecap="round" x1="171.3" x2="171.3" stroke-linejoin="round" />
        <rect fill="none" x="170.1" y="0" width="2.4" height="21.3" />
        <polygon fill="none" points="170.1,0 172.5,0 172.5,0 " />
        <g transform="matrix(1 0 0 1 164.1354 33.8599)" >
            <g >
                <g >
                    <g >
                        <text id="label0" font-size="9.936" font-family="DroidSans" gorn="0.2.41.0.0.0.0" >VM</text>
                    </g>
                </g>
            </g>
        </g>
        <line fill="none" stroke-width="2.4" y1="1.2" y2="21.3" stroke="#000000" stroke-linecap="round" x1="192.5" x2="192.5" stroke-linejoin="round" />
        <rect fill="none" x="191.3" y="0" width="2.4" height="21.3" />
        <polygon fill="none" points="191.3,0 193.7,0 193.7,0 " />
        <g transform="matrix(1 0 0 1 183.9254 33.8599)" >
            <g >
                <g >
                    <g >
                        <text id="label2" font-size="9.936" font-family="DroidSans" gorn="0.2.45.0.0.0.0" >VCC</text>
                    </g>
                </g>
            </g>
        </g>
        <line fill="none" stroke-width="2.4" y1="228" y2="248.1" stroke="#000000" stroke-linecap="round" x1="181.9" x2="181.9" stroke-linejoin="round" />
        <rect fill="none" x="180.7" y="228" width="2.4" height="21.3" />
        <polygon fill="none" points="180.7,249.3 183.1,249.3 183.1,249.3 " />
        <g transform="matrix(1 0 0 1 171.4614 222.238)" >
            <g >
                <g >
                    <g >
                        <text id="label1" font-size="9.936" font-family="DroidSans" gorn="0.2.49.0.0.0.0" >GND</text>
                    </g>
                </g>
            </g>
        </g>
        <rect fill="none" x="170.1" y="0" width="2.4" height="21.3" />
        <polygon fill="none" points="170.1,0 172.5,0 172.5,0 " />
        <rect fill="none" x="191.3" y="0" width="2.4" height="21.3" />
        <polygon fill="none" points="191.3,0 193.7,0 193.7,0 " />
        <rect fill="none" x="170.1" y="0" width="2.4" height="21.3" />
        <polygon fill="none" points="170.1,0 172.5,0 172.5,0 " />
        <rect id="connector34pin" fill="none" x="170.1" y="0" width="2.4" height="21.3" gorn="0.2.56" />
        <polygon id="connector34terminal" fill="none" points="170.1,0 172.5,0 172.5,0 " gorn="0.2.57" />
        <rect id="connector35pin" fill="none" x="170.1" y="0" width="2.4" height="21.3" gorn="0.2.58" />
        <polygon id="connector35terminal" fill="none" points="170.1,0 172.5,0 172.5,0 " gorn="0.2.59" />
        <rect id="connector9pin" fill="none" x="191.3" y="0" width="2.4" height="21.3" gorn="0.2.60" />
        <rect id="connector9terminal" fill="none" stroke-width="0" stroke="none" x="192.4976" y="-0.0213" width="0.0048" height="0.0426" gorn="0.2.61" />
        <polygon id="connector41terminal" fill="none" points="191.3,0 193.7,0 193.7,0 " gorn="0.2.62" />
        <rect id="connector8pin" fill="none" x="170.1" y="0" width="2.4" height="21.3" gorn="0.2.63" />
        <rect id="connector8terminal" fill="none" stroke-width="0" stroke="none" x="171.2976" y="-0.0213" width="0.0048" height="0.0426" gorn="0.2.64" />
        <polygon id="connector45terminal" fill="none" points="170.1,0 172.5,0 172.5,0 " gorn="0.2.65" />
        <rect fill="none" x="180.7" y="228" width="2.4" height="21.3" />
        <polygon fill="none" points="180.7,249.3 183.1,249.3 183.1,249.3 " />
        <rect fill="none" x="180.7" y="228" width="2.4" height="21.3" />
        <polygon fill="none" points="180.7,249.3 183.1,249.3 183.1,249.3 " />
        <rect id="connector15pin" fill="none" x="180.7" y="228" width="2.4" height="21.3" gorn="0.2.70" />
        <polygon fill="none" points="180.7,249.3 183.1,249.3 183.1,249.3 " />
        <rect fill="none" x="180.7" y="228" width="2.4" height="21.3" />
        <polygon fill="none" points="180.7,249.3 183.1,249.3 183.1,249.3 " />
        <rect id="connector21pin" fill="none" x="180.7" y="228" width="2.4" height="21.3" gorn="0.2.74" />
        <polygon id="connector21terminal" fill="none" points="180.7,249.3 183.1,249.3 183.1,249.3 " gorn="0.2.75" />
        <rect id="connector24pin" fill="none" x="180.7" y="228" width="2.4" height="21.3" gorn="0.2.76" />
        <polygon id="connector24terminal" fill="none" points="180.7,249.3 183.1,249.3 183.1,249.3 " gorn="0.2.77" />
        <rect id="connector25pin" fill="none" x="180.7" y="228" width="2.4" height="21.3" gorn="0.2.78" />
        <polygon id="connector25terminal" fill="none" points="180.7,249.3 183.1,249.3 183.1,249.3 " gorn="0.2.79" />
        <rect id="connector30pin" fill="none" x="180.7" y="228" width="2.4" height="21.3" gorn="0.2.80" />
        <polygon id="connector30terminal" fill="none" points="180.7,249.3 183.1,249.3 183.1,249.3 " gorn="0.2.81" />
        <rect id="connector10pin" fill="none" x="180.7" y="228" width="2.4" height="21.3" gorn="0.2.82" />
        <rect id="connector10terminal" fill="none" stroke-width="0" stroke="none" x="181.8976" y="249.2787" width="0.0048" height="0.0426" gorn="0.2.83" />
        <polygon id="connector31terminal" fill="none" points="180.7,249.3 183.1,249.3 183.1,249.3 " gorn="0.2.84" />
        <rect id="connector7pin" fill="none" x="180.7" y="228" width="2.4" height="21.3" gorn="0.2.85" />
        <rect id="connector7terminal" fill="none" stroke-width="0" stroke="none" x="181.8976" y="249.2787" width="0.0048" height="0.0426" gorn="0.2.86" />
        <polygon id="connector39terminal" fill="none" points="180.7,249.3 183.1,249.3 183.1,249.3 " gorn="0.2.87" />
        <rect id="connector23pin" fill="none" x="0" y="63.8" width="21.3" height="2.4" gorn="0.2.88" />
        <rect id="connector23terminal" fill="none" x="0" y="63.8" width="2.4" height="2.4" gorn="0.2.89" />
        <rect id="connector0pin" fill="none" x="0" y="63.8" width="21.3" height="2.4" gorn="0.2.90" />
        <rect id="connector0terminal" fill="none" stroke-width="0" stroke="none" x="-0.0213" y="64.99760000000001" width="0.0426" height="0.0048" gorn="0.2.91" />
        <rect id="connector22terminal" fill="none" x="0" y="63.8" width="2.4" height="2.4" gorn="0.2.92" />
        <rect id="connector27pin" fill="none" x="0" y="85" width="21.3" height="2.4" gorn="0.2.93" />
        <rect id="connector27terminal" fill="none" x="0" y="85" width="2.4" height="2.4" gorn="0.2.94" />
        <rect id="connector1pin" fill="none" x="0" y="85" width="21.3" height="2.4" gorn="0.2.95" />
        <rect id="connector1terminal" fill="none" stroke-width="0" stroke="none" x="-0.0213" y="86.19760000000001" width="0.0426" height="0.0048" gorn="0.2.96" />
        <rect id="connector26terminal" fill="none" x="0" y="85" width="2.4" height="2.4" gorn="0.2.97" />
        <rect id="connector2pin" fill="none" x="0" y="106.3" width="21.3" height="2.4" gorn="0.2.98" />
        <rect id="connector2terminal" fill="none" stroke-width="0" stroke="none" x="-0.0213" y="107.4976" width="0.0426" height="0.0048" gorn="0.2.99" />
        <rect id="connector42terminal" fill="none" x="0" y="106.3" width="2.4" height="2.4" gorn="0.2.100" />
        <rect id="connector3pin" fill="none" x="0" y="127.6" width="21.3" height="2.4" gorn="0.2.101" />
        <rect id="connector3terminal" fill="none" stroke-width="0" stroke="none" x="-0.0213" y="128.7976" width="0.0426" height="0.0048" gorn="0.2.102" />
        <rect id="connector43terminal" fill="none" x="0" y="127.6" width="2.4" height="2.4" gorn="0.2.103" />
        <rect id="connector33pin" fill="none" x="0" y="148.8" width="21.3" height="2.4" gorn="0.2.104" />
        <rect id="connector33terminal" fill="none" x="0" y="148.8" width="2.4" height="2.4" gorn="0.2.105" />
        <rect id="connector4pin" fill="none" x="0" y="148.8" width="21.3" height="2.4" gorn="0.2.106" />
        <rect id="connector4terminal" fill="none" stroke-width="0" stroke="none" x="-0.0213" y="149.9976" width="0.0426" height="0.0048" gorn="0.2.107" />
        <rect id="connector32terminal" fill="none" x="0" y="148.8" width="2.4" height="2.4" gorn="0.2.108" />
        <line fill="none" stroke-width="2.4" y1="171.5" y2="171.5" stroke="#000000" stroke-linecap="round" x1="1.2" x2="21.3" stroke-linejoin="round" />
        <rect id="connector7pin_1_" fill="none" x="0" y="170.3" width="21.3" height="2.4" gorn="0.2.110" />
        <rect id="connector7terminal_1_" fill="none" x="0" y="170.3" width="2.4" height="2.4" gorn="0.2.111" />
        <g transform="matrix(1 0 0 1 27.7402 173.8781)" >
            <g >
                <g >
                    <g >
                        <text id="label7_1_" font-size="9.936" font-family="DroidSans" gorn="0.2.112.0.0.0.0" >BIN2</text>
                    </g>
                </g>
            </g>
        </g>
        <rect id="connector33pin_1_" fill="none" x="0" y="170.3" width="21.3" height="2.4" gorn="0.2.113" />
        <rect id="connector33terminal_1_" fill="none" x="0" y="170.3" width="2.4" height="2.4" gorn="0.2.114" />
        <rect id="connector5pin" fill="none" x="0" y="170.3" width="21.3" height="2.4" gorn="0.2.115" />
        <rect id="connector5terminal" fill="none" stroke-width="0" stroke="none" x="-0.0213" y="171.4976" width="0.0426" height="0.0048" gorn="0.2.116" />
        <rect id="connector32terminal_1_" fill="none" x="0" y="170.3" width="2.4" height="2.4" gorn="0.2.117" />
        <line fill="none" stroke-width="2.4" y1="193" y2="193" stroke="#000000" stroke-linecap="round" x1="1.2" x2="21.3" stroke-linejoin="round" />
        <rect id="connector7pin_2_" fill="none" x="0" y="191.8" width="21.3" height="2.4" gorn="0.2.119" />
        <rect id="connector7terminal_2_" fill="none" x="0" y="191.8" width="2.4" height="2.4" gorn="0.2.120" />
        <g transform="matrix(1 0 0 1 27.7402 195.3781)" >
            <g >
                <g >
                    <g >
                        <text id="label7_2_" font-size="9.936" font-family="DroidSans" gorn="0.2.121.0.0.0.0" >PWMB</text>
                    </g>
                </g>
            </g>
        </g>
        <rect id="connector33pin_2_" fill="none" x="0" y="191.8" width="21.3" height="2.4" gorn="0.2.122" />
        <rect id="connector33terminal_2_" fill="none" x="0" y="191.8" width="2.4" height="2.4" gorn="0.2.123" />
        <rect id="connector6pin" fill="none" x="0" y="191.8" width="21.3" height="2.4" gorn="0.2.124" />
        <rect id="connector6terminal" fill="none" stroke-width="0" stroke="none" x="-0.0213" y="192.9976" width="0.0426" height="0.0048" gorn="0.2.125" />
        <rect id="connector32terminal_2_" fill="none" x="0" y="191.8" width="2.4" height="2.4" gorn="0.2.126" />
        <rect id="connector11pin" fill="none" x="342.6" y="63.8" width="21.3" height="2.4" gorn="0.2.127" />
        <rect id="connector11terminal" fill="none" stroke-width="0" stroke="none" x="363.8787" y="64.99760000000001" width="0.0426" height="0.0048" gorn="0.2.128" />
        <rect id="connector40terminal" fill="none" x="361.4" y="63.8" width="2.4" height="2.4" gorn="0.2.129" />
        <rect id="connector12pin" fill="none" x="342.6" y="85" width="21.3" height="2.4" gorn="0.2.130" />
        <rect id="connector12terminal" fill="none" stroke-width="0" stroke="none" x="363.8787" y="86.19760000000001" width="0.0426" height="0.0048" gorn="0.2.131" />
        <rect id="connector36terminal" fill="none" x="361.4" y="85" width="2.4" height="2.4" gorn="0.2.132" />
        <rect id="connector13pin" fill="none" x="342.6" y="106.3" width="21.3" height="2.4" gorn="0.2.133" />
        <rect id="connector13terminal" fill="none" stroke-width="0" stroke="none" x="363.8787" y="107.4976" width="0.0426" height="0.0048" gorn="0.2.134" />
        <rect id="connector44terminal" fill="none" x="361.4" y="106.3" width="2.4" height="2.4" gorn="0.2.135" />
        <rect id="connector14pin" fill="none" x="342.6" y="127.6" width="21.3" height="2.4" gorn="0.2.136" />
        <rect id="connector14terminal" fill="none" stroke-width="0" stroke="none" x="363.8787" y="128.7976" width="0.0426" height="0.0048" gorn="0.2.137" />
        <rect id="connector37terminal" fill="none" x="361.4" y="127.6" width="2.4" height="2.4" gorn="0.2.138" />
    </g>
</svg>
