<?xml version='1.0' encoding='utf-8'?>
<svg xmlns="http://www.w3.org/2000/svg" width="0.3in" baseProfile="tiny" xml:space="preserve" height="0.33in" gorn="0" id="svg2" version="1.2" viewBox="0 0 30.0 33.0"  xmlns:xml="http://www.w3.org/XML/1998/namespace">
    <desc >
        <referenceFile >dip_icon.svg</referenceFile>
    </desc>
    <g gorn="0.1" id="icon" >
        <rect width="30.0" x="0" height="27.0" gorn="0.1.0" id="middle" y="3" fill="#303030" />
        <rect width="30.0" x="0" height="2.46" gorn="0.1.1" id="top" y="3.0" fill="#3D3D3D" />
        <rect width="30.0" x="0" height="2.46" gorn="0.1.2" id="bottom" y="27.54" fill="#000000" />
        <polygon gorn="0.1.3" id="right" fill="#141414"  points="30.0,3 29.25,5.46 29.25,27.54 30.0,30.0"/>
        <polygon gorn="0.1.4" id="left" fill="#1F1F1F"  points="0,3 0.75,5.46 0.75,27.54 0,30.0"/>
        <polygon gorn="0.1.5" id="left-upper-rect" fill="#1C1C1C"  points="5,11.5 0.75,11.46 0.56,13.58 0.56,16.5 5,16.5"/>
        <polygon gorn="0.1.6" id="left-lower-rect" fill="#383838"  points="0.75,21.55 5,21.55 5,16.5 0.56,16.5 0.56,19.42"/>
        <path d="M0.56,13.58v5.83c1.47-0.17,2.62-1.4,2.62-2.92C3.18,14.97,2.04,13.75,0.56,13.58z" gorn="0.1.7" id="slot" fill="#262626" />
        <path d="M0.75,5.46V11.45c2.38,0.45,4.19,2.53,4.19,5.04c0,2.51-1.8,4.6-4.19,5.05V21.55h5.0V5.46H0.75z" gorn="0.1.8" id="cover" fill="#303030" />
        <circle cy="23.47" r="2.06" cx="6.5" fill="#212121" />
        <text x="6.5" gorn="0.1.10" id="label" y="16.5" fill="#dddddd" font-size="8"  stroke="none" font-family="OCRA" text-anchor="start">IC</text>
        <rect width="3" x="3.5" height="4.34" gorn="0.1.11" id="connector0pin" y="28.66" fill="#8C8C8C" />
        <rect width="3" x="3.5" height="3" gorn="0.1.12" id="connector0terminal" y="30.0" fill="#8C8C8C" />
        <polygon fill="#8C8C8C"  points="3.5,28.66 3.5,30.66 6.5,30.66 8.5,29.74 8.5,28.66 &#x9;"/>
        <rect width="3" x="3.5" height="4.34" gorn="0.1.14" id="connector5pin" fill="#8C8C8C" />
        <rect width="3" x="3.5" height="3" gorn="0.1.15" id="connector5terminal" fill="#8C8C8C" />
        <polygon fill="#8C8C8C"  points="8.5,4.34 8.5,3.26 6.5,2.34 3.5,2.34 3.5,4.34"/>
        <rect width="3" x="23.5" height="4.34" gorn="0.1.17" id="connector2pin" y="28.66" fill="#8C8C8C" />
        <rect width="3" x="23.5" height="3" gorn="0.1.18" id="connector2terminal" y="30.0" fill="#8C8C8C" />
        <polygon fill="#8C8C8C"  points="21.5,28.66 21.5,29.74 23.5,30.66 26.5,30.66 26.5,28.66"/>
        <rect width="3" x="23.5" height="4.34" gorn="0.1.20" id="connector3pin" y="0" fill="#8C8C8C" />
        <rect width="3" x="23.5" height="3" gorn="0.1.21" id="connector3terminal" y="0" fill="#8C8C8C" />
        <polygon fill="#8C8C8C"  points="26.5,4.34 26.5,2.34 23.5,2.34 21.5,3.26 21.5,4.34 &#x9;"/>
        <rect width="3" x="13.5" height="4.34" gorn="0.1.23" id="connector1pin" y="28.66" fill="#8C8C8C" />
        <rect width="3" x="13.5" height="3" gorn="0.1.24" id="connector1terminal" y="30.0" fill="#8C8C8C" />
        <polygon fill="#8C8C8C"  points="11.5,28.66 11.5,29.74 13.5,30.66 16.5,30.66 18.5,29.74 18.5,28.66"/>
        <rect width="3" x="13.5" height="4.34" gorn="0.1.26" id="connector4pin" y="0" fill="#8C8C8C" />
        <rect width="3" x="13.5" height="3" gorn="0.1.27" id="connector4terminal" fill="#8C8C8C" />
        <polygon fill="#8C8C8C"  points="18.5,4.34 18.5,3.26 16.5,2.34 13.5,2.34 11.5,3.26 11.5,4.34"/>
    </g>
</svg>
