<?xml version='1.0' encoding='utf-8'?>
<!DOCTYPE svg>
<!-- Generator: Adobe Illustrator 17.0.0, SVG Export Plug-In . SVG Version: 6.00 Build 0)  -->
<svg xmlns="http://www.w3.org/2000/svg" width="1.892in" x="0px" version="1.1" y="0px" gorn="0"  height="3.092in" viewBox="0 0 136.224 222.624" xmlns:xml="http://www.w3.org/XML/1998/namespace" id="Layer_1" enable-background="new -13.712 -92.712 136.224 222.624" xml:space="preserve">
    <desc >
        <referenceFile >MPR121-Cap-Touch-Keypad-v11_breadboard.svg</referenceFile>
    </desc>
    <g  transform="translate(13.712,92.712)">
        <g >
            <g >
                <desc >Fritzing breadboard generated by brd2svg</desc>
                <g gorn="0.1.0.0.1"  id="breadboard">
                    <g gorn="0.1.0.0.1.0"  id="icon">
                        <path fill="#E72D2F"  d="M122.512,129.912H-13.712V-92.712h136.224V129.912z M116.172,119.418c0-2.304-1.868-4.172-4.172-4.172l0,0c-2.304,0-4.172,1.868-4.172,4.172l0,0c0,2.304,1.868,4.172,4.172,4.172l0,0C114.304,123.59,116.172,121.723,116.172,119.418L116.172,119.418z M116.172-85.832c0-2.304-1.868-4.172-4.172-4.172l0,0c-2.304,0-4.172,1.868-4.172,4.172l0,0c0,2.304,1.868,4.172,4.172,4.172l0,0C114.304-81.66,116.172-83.527,116.172-85.832L116.172-85.832z M1-85.832c0-2.304-1.868-4.172-4.172-4.172l0,0c-2.304,0-4.172,1.868-4.172,4.172l0,0c0,2.304,1.868,4.172,4.172,4.172l0,0C-0.868-81.66,1-83.527,1-85.832L1-85.832z M1,119.418c0-2.304-1.868-4.172-4.172-4.172l0,0c-2.304,0-4.172,1.868-4.172,4.172l0,0c0,2.304,1.868,4.172,4.172,4.172l0,0C-0.868,123.59,1,121.723,1,119.418L1,119.418z M41.466,126.6c0-0.81-0.656-1.466-1.466-1.466l0,0c-0.81,0-1.466,0.656-1.466,1.466l0,0c0,0.81,0.656,1.466,1.466,1.466l0,0C40.81,128.066,41.466,127.41,41.466,126.6L41.466,126.6z M48.666,126.6c0-0.81-0.656-1.466-1.466-1.466l0,0c-0.81,0-1.466,0.656-1.466,1.466l0,0c0,0.81,0.656,1.466,1.466,1.466l0,0C48.01,128.066,48.666,127.41,48.666,126.6L48.666,126.6z M55.866,126.6c0-0.81-0.656-1.466-1.466-1.466l0,0c-0.81,0-1.466,0.656-1.466,1.466l0,0c0,0.81,0.656,1.466,1.466,1.466l0,0C55.21,128.066,55.866,127.41,55.866,126.6L55.866,126.6z M63.066,126.6c0-0.81-0.656-1.466-1.466-1.466l0,0c-0.81,0-1.466,0.656-1.466,1.466l0,0c0,0.81,0.656,1.466,1.466,1.466l0,0C62.41,128.066,63.066,127.41,63.066,126.6L63.066,126.6z M70.266,126.6c0-0.81-0.656-1.466-1.466-1.466l0,0c-0.81,0-1.466,0.656-1.466,1.466l0,0c0,0.81,0.656,1.466,1.466,1.466l0,0C69.61,128.066,70.266,127.41,70.266,126.6L70.266,126.6z"/>
                        <g gorn="0.1.0.0.1.0.1"  id="silkscreen">
                            <g >
                                <title >element:JP1</title>
                                <g >
                                    <title >package:SFE-NEW-WEBLOGO</title>
                                </g>
                            </g>
                            <g >
                                <title >element:JP9</title>
                                <g >
                                    <title >package:1X05</title>
                                </g>
                            </g>
                            <g >
                                <title >element:U$1</title>
                                <g >
                                    <title >package:CREATIVE_COMMONS</title>
                                </g>
                            </g>
                            <path fill="#EE402F"  d="M122.512,129.912H-13.712v-24.806h136.224V129.912z M116.158,119.418c0-2.304-1.868-4.172-4.172-4.172l0,0c-2.304,0-4.172,1.868-4.172,4.172l0,0c0,2.304,1.868,4.172,4.172,4.172l0,0C114.29,123.59,116.158,121.723,116.158,119.418L116.158,119.418z M0.986,119.418c0-2.304-1.868-4.172-4.172-4.172l0,0c-2.304,0-4.172,1.868-4.172,4.172l0,0c0,2.304,1.868,4.172,4.172,4.172l0,0C-0.882,123.59,0.986,121.723,0.986,119.418L0.986,119.418z M41.452,126.6c0-0.81-0.656-1.466-1.466-1.466l0,0c-0.81,0-1.466,0.656-1.466,1.466l0,0c0,0.81,0.656,1.466,1.466,1.466l0,0C40.795,128.066,41.452,127.41,41.452,126.6L41.452,126.6z M48.652,126.6c0-0.81-0.656-1.466-1.466-1.466l0,0c-0.81,0-1.466,0.656-1.466,1.466l0,0c0,0.81,0.656,1.466,1.466,1.466l0,0C47.995,128.066,48.652,127.41,48.652,126.6L48.652,126.6z M55.852,126.6c0-0.81-0.656-1.466-1.466-1.466l0,0c-0.81,0-1.466,0.656-1.466,1.466l0,0c0,0.81,0.656,1.466,1.466,1.466l0,0C55.195,128.066,55.852,127.41,55.852,126.6L55.852,126.6z M63.052,126.6c0-0.81-0.656-1.466-1.466-1.466l0,0c-0.81,0-1.466,0.656-1.466,1.466l0,0c0,0.81,0.656,1.466,1.466,1.466l0,0C62.395,128.066,63.052,127.41,63.052,126.6L63.052,126.6z M70.252,126.6c0-0.81-0.656-1.466-1.466-1.466l0,0c-0.81,0-1.466,0.656-1.466,1.466l0,0c0,0.81,0.656,1.466,1.466,1.466l0,0C69.595,128.066,70.252,127.41,70.252,126.6L70.252,126.6z"/>
                            <path fill="#EE402F" gorn="0.1.0.0.1.0.1.4"  id="_x3C_Path_x3E__11_" d="M29.2-43.789c0,2.589-2.099,4.688-4.688,4.688H-2.112c-2.589,0-4.688-2.099-4.688-4.688v-26.625c0-2.589,2.099-4.688,4.688-4.688h26.625c2.589,0,4.688,2.099,4.688,4.688V-43.789z"/>
                            <path fill="#EE402F" gorn="0.1.0.0.1.0.1.5"  id="_x3C_Path_x3E__10_" d="M72.4-43.789c0,2.589-2.099,4.688-4.688,4.688H41.087c-2.589,0-4.688-2.099-4.688-4.688v-26.625c0-2.589,2.099-4.688,4.688-4.688h26.625c2.589,0,4.688,2.099,4.688,4.688V-43.789z"/>
                            <path fill="#EE402F" gorn="0.1.0.0.1.0.1.6"  id="_x3C_Path_x3E__9_" d="M115.6-43.789c0,2.589-2.099,4.688-4.688,4.688H84.288c-2.589,0-4.688-2.099-4.688-4.688v-26.625c0-2.589,2.099-4.688,4.688-4.688h26.625c2.589,0,4.688,2.099,4.688,4.688V-43.789z"/>
                            <path fill="#EE402F" gorn="0.1.0.0.1.0.1.7"  id="_x3C_Path_x3E__8_" d="M29.2-0.589c0,2.589-2.099,4.688-4.688,4.688H-2.112C-4.701,4.099-6.8,2-6.8-0.589v-26.625c0-2.589,2.099-4.688,4.688-4.688h26.625c2.589,0,4.688,2.099,4.688,4.688V-0.589z"/>
                            <path fill="#EE402F" gorn="0.1.0.0.1.0.1.8"  id="_x3C_Path_x3E__7_" d="M72.4-0.589c0,2.589-2.099,4.688-4.688,4.688H41.087C38.499,4.099,36.4,2,36.4-0.589v-26.625c0-2.589,2.099-4.688,4.688-4.688h26.625c2.589,0,4.688,2.099,4.688,4.688V-0.589z"/>
                            <path fill="#EE402F" gorn="0.1.0.0.1.0.1.9"  id="_x3C_Path_x3E__6_" d="M115.6-0.589c0,2.589-2.099,4.688-4.688,4.688H84.288C81.699,4.099,79.6,2,79.6-0.589v-26.625c0-2.589,2.099-4.688,4.688-4.688h26.625c2.589,0,4.688,2.099,4.688,4.688V-0.589z"/>
                            <path fill="#EE402F" gorn="0.1.0.0.1.0.1.10"  id="_x3C_Path_x3E__5_" d="M29.2,42.438c0,2.589-2.099,4.688-4.688,4.688H-2.112c-2.589,0-4.688-2.099-4.688-4.688V15.813c0-2.589,2.099-4.688,4.688-4.688h26.625c2.589,0,4.688,2.099,4.688,4.688V42.438z"/>
                            <path fill="#EE402F" gorn="0.1.0.0.1.0.1.11"  id="_x3C_Path_x3E__4_" d="M72.4,42.438c0,2.589-2.099,4.688-4.688,4.688H41.087c-2.589,0-4.688-2.099-4.688-4.688V15.813c0-2.589,2.099-4.688,4.688-4.688h26.625c2.589,0,4.688,2.099,4.688,4.688V42.438z"/>
                            <path fill="#EE402F" gorn="0.1.0.0.1.0.1.12"  id="_x3C_Path_x3E__3_" d="M115.6,42.438c0,2.589-2.099,4.688-4.688,4.688H84.288c-2.589,0-4.688-2.099-4.688-4.688V15.813c0-2.589,2.099-4.688,4.688-4.688h26.625c2.589,0,4.688,2.099,4.688,4.688V42.438z"/>
                            <path fill="#EE402F" gorn="0.1.0.0.1.0.1.13"  id="_x3C_Path_x3E__2_" d="M29.2,85.703c0,2.589-2.099,4.688-4.688,4.688H-2.112c-2.589,0-4.688-2.099-4.688-4.688V59.078c0-2.589,2.099-4.688,4.688-4.688h26.625c2.589,0,4.688,2.099,4.688,4.688V85.703z"/>
                            <path fill="#EE402F" gorn="0.1.0.0.1.0.1.14"  id="_x3C_Path_x3E_" d="M72.4,85.703c0,2.589-2.099,4.688-4.688,4.688H41.087c-2.589,0-4.688-2.099-4.688-4.688V59.078c0-2.589,2.099-4.688,4.688-4.688h26.625c2.589,0,4.688,2.099,4.688,4.688V85.703z"/>
                            <path fill="#EE402F" gorn="0.1.0.0.1.0.1.15"  id="_x3C_Path_x3E__1_" d="M115.6,85.703c0,2.589-2.099,4.688-4.688,4.688H84.288c-2.589,0-4.688-2.099-4.688-4.688V59.078c0-2.589,2.099-4.688,4.688-4.688h26.625c2.589,0,4.688,2.099,4.688,4.688V85.703z"/>
                            <path fill="#E72D2F"  d="M26.487-42.707c0,0.49-0.397,0.887-0.887,0.887l0,0c-0.49,0-0.887-0.397-0.887-0.887l0,0c0-0.49,0.397-0.887,0.887-0.887l0,0C26.09-43.594,26.487-43.197,26.487-42.707L26.487-42.707z"/>
                            <path fill="#E72D2F"  d="M69.687-42.707c0,0.49-0.397,0.887-0.887,0.887l0,0c-0.49,0-0.887-0.397-0.887-0.887l0,0c0-0.49,0.397-0.887,0.887-0.887l0,0C69.29-43.594,69.687-43.197,69.687-42.707L69.687-42.707z"/>
                            <path fill="#E72D2F"  d="M112.887-42.707c0,0.49-0.397,0.887-0.887,0.887l0,0c-0.49,0-0.887-0.397-0.887-0.887l0,0c0-0.49,0.397-0.887,0.887-0.887l0,0C112.49-43.594,112.887-43.197,112.887-42.707L112.887-42.707z"/>
                            <path fill="#E72D2F"  d="M26.487,0.493c0,0.49-0.397,0.887-0.887,0.887l0,0c-0.49,0-0.887-0.397-0.887-0.887l0,0c0-0.49,0.397-0.887,0.887-0.887l0,0C26.09-0.394,26.487,0.003,26.487,0.493L26.487,0.493z"/>
                            <path fill="#E72D2F"  d="M69.687,0.493c0,0.49-0.397,0.887-0.887,0.887l0,0c-0.49,0-0.887-0.397-0.887-0.887l0,0c0-0.49,0.397-0.887,0.887-0.887l0,0C69.29-0.394,69.687,0.003,69.687,0.493L69.687,0.493z"/>
                            <path fill="#E72D2F"  d="M112.887,0.493c0,0.49-0.397,0.887-0.887,0.887l0,0c-0.49,0-0.887-0.397-0.887-0.887l0,0c0-0.49,0.397-0.887,0.887-0.887l0,0C112.49-0.394,112.887,0.003,112.887,0.493L112.887,0.493z"/>
                            <path fill="#E72D2F"  d="M26.487,43.693c0,0.49-0.397,0.887-0.887,0.887l0,0c-0.49,0-0.887-0.397-0.887-0.887l0,0c0-0.49,0.397-0.887,0.887-0.887l0,0C26.09,42.806,26.487,43.203,26.487,43.693L26.487,43.693z"/>
                            <path fill="#E72D2F"  d="M69.687,43.693c0,0.49-0.397,0.887-0.887,0.887l0,0c-0.49,0-0.887-0.397-0.887-0.887l0,0c0-0.49,0.397-0.887,0.887-0.887l0,0C69.29,42.806,69.687,43.203,69.687,43.693L69.687,43.693z"/>
                            <path fill="#E72D2F"  d="M112.887,43.693c0,0.49-0.397,0.887-0.887,0.887l0,0c-0.49,0-0.887-0.397-0.887-0.887l0,0c0-0.49,0.397-0.887,0.887-0.887l0,0C112.49,42.806,112.887,43.203,112.887,43.693L112.887,43.693z"/>
                            <path fill="#E72D2F"  d="M98.487,86.893c0,0.49-0.397,0.887-0.887,0.887l0,0c-0.49,0-0.887-0.397-0.887-0.887l0,0c0-0.49,0.397-0.887,0.887-0.887l0,0C98.09,86.006,98.487,86.403,98.487,86.893L98.487,86.893z"/>
                            <path fill="#E72D2F"  d="M55.287,86.893c0,0.49-0.397,0.887-0.887,0.887l0,0c-0.49,0-0.887-0.397-0.887-0.887l0,0c0-0.49,0.397-0.887,0.887-0.887l0,0C54.89,86.006,55.287,86.403,55.287,86.893L55.287,86.893z"/>
                            <path fill="#E72D2F"  d="M12.087,86.893c0,0.49-0.397,0.887-0.887,0.887l0,0c-0.49,0-0.887-0.397-0.887-0.887l0,0c0-0.49,0.397-0.887,0.887-0.887l0,0C11.69,86.006,12.087,86.403,12.087,86.893L12.087,86.893z"/>
                            <path fill="#FFFFFF"  d="M91.141,116.166c0,0,0.114,0.485-0.252,0.552c-0.255,0.045-0.666-0.208-0.873-0.459c-0.255-0.311-0.223-0.556-0.025-0.773c0.299-0.33,0.809-0.202,0.809-0.202s-0.935-0.821-1.91-0.149c-0.868,0.597-0.618,1.411,0.164,2.122c0.706,0.642,0.143,1.347-0.569,1.254c-0.487-0.062-0.686-0.453-0.569-0.693c0.102-0.205,0.451-0.331,0.451-0.331s-0.402-0.163-0.875,0.015c-0.424,0.16-0.775,0.511-0.747,1.391v4.078c0,0,0.439-0.542,0.954-1.092c0.578-0.62,0.842-1.041,1.436-0.992c1.123,0.069,1.936-0.43,2.487-1.23C92.683,118.116,91.853,116.396,91.141,116.166z"/>
                            <path fill="#FFFFFF"  d="M20.941,116.166c0,0,0.114,0.485-0.252,0.552c-0.255,0.045-0.666-0.208-0.873-0.459c-0.255-0.311-0.223-0.556-0.025-0.773c0.299-0.33,0.809-0.202,0.809-0.202s-0.935-0.821-1.91-0.149c-0.868,0.597-0.618,1.411,0.164,2.122c0.706,0.642,0.143,1.347-0.569,1.254c-0.487-0.062-0.686-0.453-0.569-0.693c0.102-0.205,0.451-0.331,0.451-0.331s-0.402-0.163-0.875,0.015c-0.424,0.16-0.775,0.511-0.747,1.391v4.078c0,0,0.439-0.542,0.954-1.092c0.578-0.62,0.842-1.041,1.436-0.992c1.123,0.069,1.936-0.43,2.487-1.23C22.483,118.116,21.653,116.396,20.941,116.166z"/>
                            <g  transform="matrix(1 0 0 1 9.4497 95.4301)">
                                <g >
                                    <text fill="#FFFFFF" font-family="OCRA" gorn="0.1.0.0.1.0.1.30.0.0"  id="number_11_" font-size="4.5">0</text>
                                </g>
                            </g>
                            <g  transform="matrix(-3.267949e-07 -1 1 3.814223e-06 70.4677 123.2453)">
                                <g >
                                    <text fill="#FFFFFF" font-family="OCRA" gorn="0.1.0.0.1.0.1.31.0.0"  id="number_12_" font-size="4.5">VCC</text>
                                </g>
                            </g>
                            <g  transform="matrix(-3.267949e-07 -1 1 3.814223e-06 63.6529 123.2453)">
                                <g >
                                    <text fill="#FFFFFF" font-family="OCRA" gorn="0.1.0.0.1.0.1.32.0.0"  id="number_13_" font-size="4.5">IRQ</text>
                                </g>
                            </g>
                            <g  transform="matrix(-3.267949e-07 -1 1 3.814223e-06 56.4525 123.2453)">
                                <g >
                                    <text fill="#FFFFFF" font-family="OCRA" gorn="0.1.0.0.1.0.1.33.0.0"  id="number_14_" font-size="4.5">SCL</text>
                                </g>
                            </g>
                            <g  transform="matrix(-3.267949e-07 -1 1 3.814223e-06 49.2524 123.2453)">
                                <g >
                                    <text fill="#FFFFFF" font-family="OCRA" gorn="0.1.0.0.1.0.1.34.0.0"  id="number_15_" font-size="4.5">SDA</text>
                                </g>
                            </g>
                            <g  transform="matrix(-3.267949e-07 -1 1 3.814223e-06 41.6899 123.2453)">
                                <g >
                                    <text fill="#FFFFFF" font-family="OCRA" gorn="0.1.0.0.1.0.1.35.0.0"  id="number_16_" font-size="4.5">GND</text>
                                </g>
                            </g>
                            <g  transform="matrix(1 0 0 1 52.6803 95.4301)">
                                <g >
                                    <text fill="#FFFFFF" font-family="OCRA" gorn="0.1.0.0.1.0.1.36.0.0"  id="number_10_" font-size="4.5">7</text>
                                </g>
                            </g>
                            <g  transform="matrix(1 0 0 1 97.597 95.4301)">
                                <g >
                                    <text fill="#FFFFFF" font-family="OCRA" gorn="0.1.0.0.1.0.1.37.0.0"  id="number_9_" font-size="4.5">8</text>
                                </g>
                            </g>
                            <g  transform="matrix(1 0 0 1 9.4497 52.1653)">
                                <g >
                                    <text fill="#FFFFFF" font-family="OCRA" gorn="0.1.0.0.1.0.1.38.0.0"  id="number_8_" font-size="4.5">1</text>
                                </g>
                            </g>
                            <g  transform="matrix(1 0 0 1 52.6803 52.1653)">
                                <g >
                                    <text fill="#FFFFFF" font-family="OCRA" gorn="0.1.0.0.1.0.1.39.0.0"  id="number_7_" font-size="4.5">5</text>
                                </g>
                            </g>
                            <g  transform="matrix(1 0 0 1 97.597 52.1653)">
                                <g >
                                    <text fill="#FFFFFF" font-family="OCRA" gorn="0.1.0.0.1.0.1.40.0.0"  id="number_6_" font-size="4.5">9</text>
                                </g>
                            </g>
                            <g  transform="matrix(1 0 0 1 9.4497 9.1381)">
                                <g >
                                    <text fill="#FFFFFF" font-family="OCRA" gorn="0.1.0.0.1.0.1.41.0.0"  id="number_5_" font-size="4.5">2</text>
                                </g>
                            </g>
                            <g  transform="matrix(1 0 0 1 52.6803 9.1381)">
                                <g >
                                    <text fill="#FFFFFF" font-family="OCRA" gorn="0.1.0.0.1.0.1.42.0.0"  id="number_4_" font-size="4.5">6</text>
                                </g>
                            </g>
                            <g  transform="matrix(1 0 0 1 94.3792 9.1381)">
                                <g >
                                    <text fill="#FFFFFF" font-family="OCRA" gorn="0.1.0.0.1.0.1.43.0.0"  id="number_2_" font-size="4.5">10</text>
                                </g>
                            </g>
                            <g  transform="matrix(1 0 0 1 9.4497 -34.0619)">
                                <g >
                                    <text fill="#FFFFFF" font-family="OCRA" gorn="0.1.0.0.1.0.1.44.0.0"  id="number_1_" font-size="4.5">3</text>
                                </g>
                            </g>
                            <g  transform="matrix(1 0 0 1 52.6803 -34.0619)">
                                <g >
                                    <text fill="#FFFFFF" font-family="OCRA" gorn="0.1.0.0.1.0.1.45.0.0"  id="number" font-size="4.5">7</text>
                                </g>
                            </g>
                            <g  transform="matrix(1 0 0 1 94.3792 -34.0619)">
                                <g >
                                    <text fill="#FFFFFF" font-family="OCRA"  font-size="4.5">11</text>
                                </g>
                            </g>
                        </g>
                        <g gorn="0.1.0.0.1.0.2"  id="copper1">
                            <g gorn="0.1.0.0.1.0.2.0"  id="copper0">
                                <circle fill="none" cx="61.6" gorn="0.1.0.0.1.0.2.0.0"  cy="126.6" stroke="#998F6C" id="connector4pad_1_" r="2.052" stroke-width="1.224"/>
                                <circle fill="none" cx="40" gorn="0.1.0.0.1.0.2.0.1"  cy="126.6" stroke="#998F6C" id="connector3pad_1_" r="2.052" stroke-width="1.224"/>
                                <circle fill="none" cx="54.4" gorn="0.1.0.0.1.0.2.0.2"  cy="126.6" stroke="#998F6C" id="connector2pad_1_" r="2.052" stroke-width="1.224"/>
                                <circle fill="none" cx="68.8" gorn="0.1.0.0.1.0.2.0.3"  cy="126.6" stroke="#998F6C" id="connector1pad_1_" r="2.052" stroke-width="1.224"/>
                                <circle fill="none" cx="47.2" gorn="0.1.0.0.1.0.2.0.4"  cy="126.6" stroke="#998F6C" id="connector5pad_1_" r="2.052" stroke-width="1.224"/>
                            </g>
                        </g>
                    </g>
                </g>
            </g>
        </g>
    </g>
</svg>
