<?xml version='1.0' encoding='utf-8'?>
<!DOCTYPE svg>
<!-- Generator: Adobe Illustrator 17.1.0, SVG Export Plug-In . SVG Version: 6.00 Build 0)  -->
<svg xmlns="http://www.w3.org/2000/svg" height="0.4in" gorn="0" xmlns:xml="http://www.w3.org/XML/1998/namespace" width="0.5in" version="1.1"  x="0px" xml:space="preserve" y="0px" enable-background="new 0 0 36 28.8" viewBox="0 0 36 28.8" id="Layer_1">
    <desc>
        <referenceFile>ADXL362 BOB v01_breadboard.svg</referenceFile>
    </desc>
    <desc >Fritzing breadboard generated by brd2svg</desc>
    <g gorn="0.1"  id="breadboard">
        <g gorn="0.1.0"  id="icon">
            <path fill="#C62717"  d="M0,28.8h36V0H0V28.8 M2.2,25.2c0-0.8,0.6-1.4,1.4-1.4c0.8,0,1.4,0.6,1.4,1.4c0,0,0,0,0,0c0,0.8-0.6,1.4-1.4,1.4S2.2,26,2.2,25.2C2.2,25.2,2.2,25.2,2.2,25.2z M2.2,18c0-0.8,0.6-1.4,1.4-1.4C4.4,16.6,5,17.2,5,18c0,0,0,0,0,0c0,0.8-0.6,1.4-1.4,1.4S2.2,18.8,2.2,18z M2.2,10.8c0-0.8,0.6-1.4,1.4-1.4S5,10,5,10.8c0,0,0,0,0,0c0,0.8-0.6,1.4-1.4,1.4S2.2,11.6,2.2,10.8z M2.2,3.6c0-0.8,0.6-1.4,1.4-1.4C4.4,2.2,5,2.8,5,3.6c0,0,0,0,0,0C5,4.4,4.4,5,3.6,5S2.2,4.4,2.2,3.6z M31,3.6c0-0.8,0.6-1.4,1.4-1.4c0.8,0,1.4,0.6,1.4,1.4S33.2,5,32.4,5C31.6,5,31,4.4,31,3.6z M31,10.8c0-0.8,0.6-1.4,1.4-1.4c0.8,0,1.4,0.6,1.4,1.4s-0.6,1.4-1.4,1.4C31.6,12.2,31,11.6,31,10.8z M31,18c0-0.8,0.6-1.4,1.4-1.4c0.8,0,1.4,0.6,1.4,1.4c0,0.8-0.6,1.4-1.4,1.4C31.6,19.4,31,18.8,31,18z M31,25.2c0-0.8,0.6-1.4,1.4-1.4c0.8,0,1.4,0.6,1.4,1.4c0,0.8-0.6,1.4-1.4,1.4C31.6,26.6,31,26,31,25.2z"/>
            <g >
                <title >layer 21</title>
                <g >
                    <title >element:C1</title>
                    <g >
                        <title >package:0402-CAP</title>
                        <line y1="7.1" y2="7.3" stroke-width="1.152" x1="18" x2="18" fill="none"  stroke-linecap="round" stroke="#FFFFFF"/>
                    </g>
                </g>
                <g >
                    <title >element:JP1</title>
                    <g >
                        <title >package:1X04</title>
                        <line y1="5.4" y2="1.8" stroke-width="0.576" x1="0" x2="0" fill="none"  stroke-linecap="round" stroke="#FFFFFF"/>
                        <line y1="1.8" y2="0" stroke-width="0.576" x1="0" x2="1.8" fill="none"  stroke-linecap="round" stroke="#FFFFFF"/>
                        <line y1="0" y2="1.8" stroke-width="0.576" x1="5.4" x2="7.2" fill="none"  stroke-linecap="round" stroke="#FFFFFF"/>
                        <line y1="14.4" y2="12.6" stroke-width="0.576" x1="1.8" x2="0" fill="none"  stroke-linecap="round" stroke="#FFFFFF"/>
                        <line y1="12.6" y2="9" stroke-width="0.576" x1="0" x2="0" fill="none"  stroke-linecap="round" stroke="#FFFFFF"/>
                        <line y1="9" y2="7.2" stroke-width="0.576" x1="0" x2="1.8" fill="none"  stroke-linecap="round" stroke="#FFFFFF"/>
                        <line y1="7.2" y2="9" stroke-width="0.576" x1="5.4" x2="7.2" fill="none"  stroke-linecap="round" stroke="#FFFFFF"/>
                        <line y1="9" y2="12.6" stroke-width="0.576" x1="7.2" x2="7.2" fill="none"  stroke-linecap="round" stroke="#FFFFFF"/>
                        <line y1="12.6" y2="14.4" stroke-width="0.576" x1="7.2" x2="5.4" fill="none"  stroke-linecap="round" stroke="#FFFFFF"/>
                        <line y1="5.4" y2="7.2" stroke-width="0.576" x1="0" x2="1.8" fill="none"  stroke-linecap="round" stroke="#FFFFFF"/>
                        <line y1="7.2" y2="5.4" stroke-width="0.576" x1="5.4" x2="7.2" fill="none"  stroke-linecap="round" stroke="#FFFFFF"/>
                        <line y1="1.8" y2="5.4" stroke-width="0.576" x1="7.2" x2="7.2" fill="none"  stroke-linecap="round" stroke="#FFFFFF"/>
                        <line y1="27" y2="23.4" stroke-width="0.576" x1="0" x2="0" fill="none"  stroke-linecap="round" stroke="#FFFFFF"/>
                        <line y1="23.4" y2="21.6" stroke-width="0.576" x1="0" x2="1.8" fill="none"  stroke-linecap="round" stroke="#FFFFFF"/>
                        <line y1="21.6" y2="23.4" stroke-width="0.576" x1="5.4" x2="7.2" fill="none"  stroke-linecap="round" stroke="#FFFFFF"/>
                        <line y1="21.6" y2="19.8" stroke-width="0.576" x1="1.8" x2="0" fill="none"  stroke-linecap="round" stroke="#FFFFFF"/>
                        <line y1="19.8" y2="16.2" stroke-width="0.576" x1="0" x2="0" fill="none"  stroke-linecap="round" stroke="#FFFFFF"/>
                        <line y1="16.2" y2="14.4" stroke-width="0.576" x1="0" x2="1.8" fill="none"  stroke-linecap="round" stroke="#FFFFFF"/>
                        <line y1="14.4" y2="16.2" stroke-width="0.576" x1="5.4" x2="7.2" fill="none"  stroke-linecap="round" stroke="#FFFFFF"/>
                        <line y1="16.2" y2="19.8" stroke-width="0.576" x1="7.2" x2="7.2" fill="none"  stroke-linecap="round" stroke="#FFFFFF"/>
                        <line y1="19.8" y2="21.6" stroke-width="0.576" x1="7.2" x2="5.4" fill="none"  stroke-linecap="round" stroke="#FFFFFF"/>
                        <line y1="28.8" y2="28.8" stroke-width="0.576" x1="1.8" x2="5.4" fill="none"  stroke-linecap="round" stroke="#FFFFFF"/>
                        <line y1="27" y2="28.8" stroke-width="0.576" x1="0" x2="1.8" fill="none"  stroke-linecap="round" stroke="#FFFFFF"/>
                        <line y1="28.8" y2="27" stroke-width="0.576" x1="5.4" x2="7.2" fill="none"  stroke-linecap="round" stroke="#FFFFFF"/>
                        <line y1="23.4" y2="27" stroke-width="0.576" x1="7.2" x2="7.2" fill="none"  stroke-linecap="round" stroke="#FFFFFF"/>
                        <line y1="0" y2="0" stroke-width="0.576" x1="1.8" x2="5.4" fill="none"  stroke-linecap="round" stroke="#FFFFFF"/>
                    </g>
                </g>
                <g >
                    <title >element:JP2</title>
                    <g >
                        <title >package:1X04</title>
                        <line y1="23.4" y2="27" stroke-width="0.576" x1="36" x2="36" fill="none"  stroke-linecap="round" stroke="#FFFFFF"/>
                        <line y1="27" y2="28.8" stroke-width="0.576" x1="36" x2="34.2" fill="none"  stroke-linecap="round" stroke="#FFFFFF"/>
                        <line y1="28.8" y2="27" stroke-width="0.576" x1="30.6" x2="28.8" fill="none"  stroke-linecap="round" stroke="#FFFFFF"/>
                        <line y1="14.4" y2="16.2" stroke-width="0.576" x1="34.2" x2="36" fill="none"  stroke-linecap="round" stroke="#FFFFFF"/>
                        <line y1="16.2" y2="19.8" stroke-width="0.576" x1="36" x2="36" fill="none"  stroke-linecap="round" stroke="#FFFFFF"/>
                        <line y1="19.8" y2="21.6" stroke-width="0.576" x1="36" x2="34.2" fill="none"  stroke-linecap="round" stroke="#FFFFFF"/>
                        <line y1="21.6" y2="19.8" stroke-width="0.576" x1="30.6" x2="28.8" fill="none"  stroke-linecap="round" stroke="#FFFFFF"/>
                        <line y1="19.8" y2="16.2" stroke-width="0.576" x1="28.8" x2="28.8" fill="none"  stroke-linecap="round" stroke="#FFFFFF"/>
                        <line y1="16.2" y2="14.4" stroke-width="0.576" x1="28.8" x2="30.6" fill="none"  stroke-linecap="round" stroke="#FFFFFF"/>
                        <line y1="23.4" y2="21.6" stroke-width="0.576" x1="36" x2="34.2" fill="none"  stroke-linecap="round" stroke="#FFFFFF"/>
                        <line y1="21.6" y2="23.4" stroke-width="0.576" x1="30.6" x2="28.8" fill="none"  stroke-linecap="round" stroke="#FFFFFF"/>
                        <line y1="27" y2="23.4" stroke-width="0.576" x1="28.8" x2="28.8" fill="none"  stroke-linecap="round" stroke="#FFFFFF"/>
                        <line y1="1.8" y2="5.4" stroke-width="0.576" x1="36" x2="36" fill="none"  stroke-linecap="round" stroke="#FFFFFF"/>
                        <line y1="5.4" y2="7.2" stroke-width="0.576" x1="36" x2="34.2" fill="none"  stroke-linecap="round" stroke="#FFFFFF"/>
                        <line y1="7.2" y2="5.4" stroke-width="0.576" x1="30.6" x2="28.8" fill="none"  stroke-linecap="round" stroke="#FFFFFF"/>
                        <line y1="7.2" y2="9" stroke-width="0.576" x1="34.2" x2="36" fill="none"  stroke-linecap="round" stroke="#FFFFFF"/>
                        <line y1="9" y2="12.6" stroke-width="0.576" x1="36" x2="36" fill="none"  stroke-linecap="round" stroke="#FFFFFF"/>
                        <line y1="12.6" y2="14.4" stroke-width="0.576" x1="36" x2="34.2" fill="none"  stroke-linecap="round" stroke="#FFFFFF"/>
                        <line y1="14.4" y2="12.6" stroke-width="0.576" x1="30.6" x2="28.8" fill="none"  stroke-linecap="round" stroke="#FFFFFF"/>
                        <line y1="12.6" y2="9" stroke-width="0.576" x1="28.8" x2="28.8" fill="none"  stroke-linecap="round" stroke="#FFFFFF"/>
                        <line y1="9" y2="7.2" stroke-width="0.576" x1="28.8" x2="30.6" fill="none"  stroke-linecap="round" stroke="#FFFFFF"/>
                        <line y1="0" y2="0" stroke-width="0.576" x1="34.2" x2="30.6" fill="none"  stroke-linecap="round" stroke="#FFFFFF"/>
                        <line y1="1.8" y2="0" stroke-width="0.576" x1="36" x2="34.2" fill="none"  stroke-linecap="round" stroke="#FFFFFF"/>
                        <line y1="0" y2="1.8" stroke-width="0.576" x1="30.6" x2="28.8" fill="none"  stroke-linecap="round" stroke="#FFFFFF"/>
                        <line y1="5.4" y2="1.8" stroke-width="0.576" x1="28.8" x2="28.8" fill="none"  stroke-linecap="round" stroke="#FFFFFF"/>
                        <line y1="28.8" y2="28.8" stroke-width="0.576" x1="34.2" x2="30.6" fill="none"  stroke-linecap="round" stroke="#FFFFFF"/>
                    </g>
                </g>
                <path fill="#FFFFFF"  d="M15.2,21.2c0,0,0.1,0.5-0.3,0.6c-0.3,0-0.7-0.2-0.9-0.5c-0.3-0.3-0.2-0.6,0-0.8c0.3-0.3,0.8-0.2,0.8-0.2s-0.9-0.8-1.9-0.1c-0.9,0.6-0.6,1.4,0.2,2.1c0.7,0.6,0.1,1.3-0.6,1.3c-0.5-0.1-0.7-0.5-0.6-0.7c0.1-0.2,0.5-0.3,0.5-0.3s-0.4-0.2-0.9,0c-0.4,0.2-0.8,0.5-0.7,1.4v4.1c0,0,0.4-0.5,1-1.1s0.8-1,1.4-1c1.1,0.1,1.9-0.4,2.5-1.2C16.8,23.1,15.9,21.4,15.2,21.2z"/>
                <g >
                    <title >element:JP4</title>
                    <g >
                        <title >package:MICRO-FIDUCIAL</title>
                    </g>
                </g>
                <g >
                    <title >element:JP5</title>
                    <g >
                        <title >package:MICRO-FIDUCIAL</title>
                    </g>
                </g>
                <g >
                    <title >element:U1</title>
                    <g >
                        <title >package:ADXL362</title>
                        <line y1="18.7" y2="18.7" stroke-width="0.36" x1="15.9" x2="13.5" fill="none"  stroke-linecap="round" stroke="#FFFFFF"/>
                        <line y1="18.7" y2="17.9" stroke-width="0.36" x1="13.5" x2="13.5" fill="none"  stroke-linecap="round" stroke="#FFFFFF"/>
                        <line y1="18.7" y2="18.7" stroke-width="0.36" x1="20.1" x2="22.5" fill="none"  stroke-linecap="round" stroke="#FFFFFF"/>
                        <line y1="18.7" y2="17.9" stroke-width="0.36" x1="22.5" x2="22.5" fill="none"  stroke-linecap="round" stroke="#FFFFFF"/>
                        <line y1="10.1" y2="10.1" stroke-width="0.36" x1="20.1" x2="22.5" fill="none"  stroke-linecap="round" stroke="#FFFFFF"/>
                        <line y1="10.1" y2="10.9" stroke-width="0.36" x1="22.5" x2="22.5" fill="none"  stroke-linecap="round" stroke="#FFFFFF"/>
                        <line y1="10.1" y2="10.1" stroke-width="0.36" x1="15.9" x2="13.5" fill="none"  stroke-linecap="round" stroke="#FFFFFF"/>
                        <line y1="10.1" y2="10.9" stroke-width="0.36" x1="13.5" x2="13.5" fill="none"  stroke-linecap="round" stroke="#FFFFFF"/>
                        <line y1="10.9" y2="9.4" stroke-width="0.36" x1="12.8" x2="12.8" fill="none"  stroke-linecap="round" stroke="#FFFFFF"/>
                        <line y1="9.4" y2="9.4" stroke-width="0.36" x1="12.8" x2="14" fill="none"  stroke-linecap="round" stroke="#FFFFFF"/>
                    </g>
                </g>
                <path fill="#FFFFFF"  d="M23.6,27l-0.1,0.1c-0.1,0-0.2,0.1-0.2,0.1l-0.5-1.4c0.4-0.3,0.7-0.7,0.7-1.2c0-0.8-0.6-1.4-1.4-1.4c-0.8,0-1.4,0.6-1.4,1.4c0,0.5,0.3,1,0.7,1.2l-0.5,1.4c-0.1,0-0.2-0.1-0.2-0.1L20.3,27l-1,0.7l-0.5-0.5l0.7-1L19.4,26c-0.2-0.3-0.3-0.5-0.3-0.8l0-0.2l-1.2-0.2v-0.7l1.2-0.2l0-0.2c0.1-0.3,0.2-0.6,0.3-0.8l0.1-0.1l-0.7-1l0.5-0.5l1,0.7l0.1-0.1c0.2-0.2,0.5-0.3,0.8-0.3l0.2,0l0.2-1.2h0.7l0.2,1.2l0.2,0c0.3,0.1,0.6,0.2,0.8,0.3l0.1,0.1l1-0.7l0.5,0.5l-0.7,1l0.1,0.1c0.2,0.2,0.3,0.5,0.3,0.8l0,0.2l1.2,0.2v0.7l-1.2,0.2l0,0.2c-0.1,0.3-0.2,0.6-0.3,0.8l-0.1,0.1l0.7,1l-0.5,0.5L23.6,27z"/>
            </g>
            <rect height="9.2" width="9.8" fill="#FFFFFF" fill-opacity="0.15"  x="12.8" y="9.4"/>
            <circle gorn="0.1.0.3" cx="3.6" cy="25.2" stroke-width="1.224" r="2.1" fill="none"  stroke="#9A916C" id="connector2pin"/>
            <rect height="4.1" width="4.1" stroke-width="1.224" fill="none"  x="1.5" y="23.1" stroke="#9A916C"/>
            <circle gorn="0.1.0.5" cx="3.6" cy="18" stroke-width="1.224" r="2.1" fill="none"  stroke="#9A916C" id="connector3pin"/>
            <circle gorn="0.1.0.6" cx="3.6" cy="10.8" stroke-width="1.224" r="2.1" fill="none"  stroke="#9A916C" id="connector4pin"/>
            <circle gorn="0.1.0.7" cx="3.6" cy="3.6" stroke-width="1.224" r="2.1" fill="none"  stroke="#9A916C" id="connector5pin"/>
            <circle gorn="0.1.0.8" cx="32.4" cy="3.6" stroke-width="1.224" r="2.1" fill="none"  stroke="#9A916C" id="connector6pin"/>
            <rect height="4.1" width="4.1" stroke-width="1.224" fill="none"  x="30.3" y="1.5" stroke="#9A916C"/>
            <circle gorn="0.1.0.10" cx="32.4" cy="10.8" stroke-width="1.224" r="2.1" fill="none"  stroke="#9A916C" id="connector7pin"/>
            <circle gorn="0.1.0.11" cx="32.4" cy="18" stroke-width="1.224" r="2.1" fill="none"  stroke="#9A916C" id="connector8pin"/>
            <circle gorn="0.1.0.12" cx="32.4" cy="25.2" stroke-width="1.224" r="2.1" fill="none"  stroke="#9A916C" id="connector9pin"/>
        </g>
        <rect height="9.2" width="9.5" fill="#333333"  x="13" y="9.4"/>
        <g  transform="matrix(1, 0, 0, 1, 16.5942, 4.947)">
            <g gorn="0.1.2.0"  id="_x30_402-cap_1_">
                <g  transform="matrix(1, 0, 0, 1, 10.275, 76.1789)">
                    <g gorn="0.1.2.0.0.0"  id="_x30_402-cap">
                        <g  transform="matrix(0, 1, -1, 0, 4.1105, -1.5595)">
                            <g >
                                <g >
                                    <g >
                                        <g  transform="matrix(2.578893e-06 1 -1 2.578893e-06 -58.6741 84.8826)">
                                            <rect height="2.6" width="5.7" fill="#534741"  x="-74.6" y="11.8"/>
                                        </g>
                                        <g  transform="matrix(2.578893e-06 1 -1 2.578893e-06 -57.4058 83.616)">
                                            <rect height="0" width="5.7" opacity="0.2"  x="-73.3" y="13.1" enable-background="new    "/>
                                        </g>
                                        <g  transform="matrix(2.578893e-06 1 -1 2.578893e-06 -59.9378 86.1477)">
                                            <rect height="0" width="5.7" opacity="0.2" fill="#FFFFFF"  x="-75.9" y="13.1" enable-background="new    "/>
                                        </g>
                                    </g>
                                    <g >
                                        <path fill="#DCDCDC"  d="M-73.1,11.1L-73.1,11.1L-73.1,11.1L-73.1,11.1L-73.1,11.1c0.2,0.1,0.8,0.2,1,0.2c0.2,0,1.4,0,1.6-0.1v-0.9h-2.6V11.1z"/>
                                        <path fill="#DCDCDC"  d="M-73,15.1L-73,15.1l-0.1,0.9h2.6v-0.9c-0.2-0.1-1.4-0.1-1.6-0.1C-72.3,14.9-72.8,15-73,15.1z"/>
                                        <g  transform="matrix(2.578893e-06 1 -1 2.578893e-06 -55.0195 86.0118)">
                                            <rect height="0" width="0.9" opacity="0.15"  x="-71" y="15.5" enable-background="new    "/>
                                        </g>
                                        <g  transform="matrix(2.578893e-06 1 -1 2.578893e-06 -57.5463 88.5383)">
                                            <rect height="0" width="0.9" opacity="0.5" fill="#FFFFFF"  x="-73.5" y="15.5" enable-background="new    "/>
                                        </g>
                                        <path fill="#D1C690"  d="M-70.5,10.3v0.9"/>
                                        <g  transform="matrix(2.578893e-06 1 -1 2.578893e-06 -59.8027 81.2286)">
                                            <rect height="0" width="0.9" opacity="0.15"  x="-71" y="10.7" enable-background="new    "/>
                                        </g>
                                        <g  transform="matrix(2.578893e-06 1 -1 2.578893e-06 -62.3305 83.7562)">
                                            <rect height="0" width="0.9" opacity="0.5" fill="#FFFFFF"  x="-73.5" y="10.7" enable-background="new    "/>
                                        </g>
                                        <line y1="15.4" y2="15.4" x1="-70.5" x2="-70.5" fill="none" />
                                    </g>
                                </g>
                            </g>
                        </g>
                    </g>
                </g>
                <rect height="2.5" width="0.1" opacity="0.1"  x="4" y="1.6" enable-background="new    "/>
                <rect height="2.5" width="0.1" opacity="0.2" fill="#FFFFFF"  x="-1.6" y="1.6" enable-background="new    "/>
            </g>
        </g>
    </g>
</svg>
