<?xml version='1.0' encoding='utf-8'?>
<!DOCTYPE svg>
<!-- Generator: Adobe Illustrator 15.1.0, SVG Export Plug-In . SVG Version: 6.00 Build 0)  -->
<svg xmlns="http://www.w3.org/2000/svg"  xml:space="preserve" version="1.1" xmlns:xml="http://www.w3.org/XML/1998/namespace" id="Layer_2" baseProfile="basic" x="0px" gorn="0" y="0px" viewBox="0 0 68.03 119.06" width="0.944861in" height="1.65361in">
    <desc >
        <referenceFile >PG6SD_PCB_v1.svg</referenceFile>
    </desc>
    <g  id="silkscreen" gorn="0.1">
        <rect  stroke-width="0.5" x="11.75" y="7.688" stroke-miterlimit="10" stroke="#FFFFFF" width="43.5" fill="none" height="7.188"/>
        <rect  stroke-width="0.75" stroke-miterlimit="10" stroke="#FFFFFF" width="68.03" fill="none" height="119.06"/>
    </g>
    <g  id="copper1_1_" gorn="0.2">
        <g  id="copper0" gorn="0.2.0">
            <path  d="M15.502,8.888c-1.321,0-2.394,1.072-2.394,2.394c0,1.322,1.072,2.394,2.394,2.394s2.394-1.071,2.394-2.394C17.896,9.96,16.823,8.888,15.502,8.888z M15.502,12.479c-0.661,0-1.197-0.536-1.197-1.196c0-0.662,0.536-1.197,1.197-1.197s1.197,0.535,1.197,1.197C16.699,11.942,16.163,12.479,15.502,12.479z" id="connector13pad" gorn="0.2.0.0" fill="#F5BD18"/>
            <path  d="M22.702,8.888c-1.321,0-2.393,1.072-2.393,2.394c0,1.322,1.071,2.394,2.393,2.394c1.322,0,2.394-1.071,2.394-2.394C25.096,9.96,24.024,8.888,22.702,8.888z M22.703,12.479c-0.661,0-1.197-0.536-1.197-1.196c0-0.662,0.536-1.197,1.197-1.197s1.196,0.535,1.196,1.197C23.899,11.942,23.364,12.479,22.703,12.479z" id="connector12pad" gorn="0.2.0.1" fill="#F5BD18"/>
            <path  d="M29.902,8.888c-1.321,0-2.393,1.072-2.393,2.394c0,1.322,1.071,2.394,2.393,2.394c1.322,0,2.394-1.071,2.394-2.394C32.296,9.96,31.225,8.888,29.902,8.888z M29.904,12.479c-0.661,0-1.197-0.536-1.197-1.196c0-0.662,0.536-1.197,1.197-1.197s1.196,0.535,1.196,1.197C31.101,11.942,30.565,12.479,29.904,12.479z" id="connector11pad" gorn="0.2.0.2" fill="#F5BD18"/>
            <path  d="M37.103,8.888c-1.321,0-2.393,1.072-2.393,2.394c0,1.322,1.072,2.394,2.393,2.394c1.322,0,2.394-1.071,2.394-2.394C39.496,9.96,38.425,8.888,37.103,8.888z M37.103,12.479c-0.661,0-1.196-0.536-1.196-1.196c0-0.662,0.535-1.197,1.196-1.197S38.3,10.62,38.3,11.282C38.3,11.942,37.764,12.479,37.103,12.479z" id="connector10pad" gorn="0.2.0.3" fill="#F5BD18"/>
            <path  d="M44.302,8.888c-1.321,0-2.393,1.072-2.393,2.394c0,1.322,1.071,2.394,2.393,2.394c1.322,0,2.394-1.071,2.394-2.394C46.695,9.96,45.624,8.888,44.302,8.888z M44.302,12.479c-0.661,0-1.196-0.536-1.196-1.196c0-0.662,0.535-1.197,1.196-1.197s1.197,0.535,1.197,1.197C45.499,11.942,44.963,12.479,44.302,12.479z" id="connector9pad" gorn="0.2.0.4" fill="#F5BD18"/>
            <path  d="M51.502,8.888c-1.321,0-2.393,1.072-2.393,2.394c0,1.322,1.071,2.394,2.393,2.394c1.322,0,2.394-1.071,2.394-2.394C53.896,9.96,52.824,8.888,51.502,8.888z M51.502,12.479c-0.661,0-1.196-0.536-1.196-1.196c0-0.662,0.535-1.197,1.196-1.197s1.197,0.535,1.197,1.197C52.699,11.942,52.163,12.479,51.502,12.479z" id="connector8pad" gorn="0.2.0.5" fill="#F5BD18"/>
        </g>
    </g>
</svg>
