<?xml version="1.0" encoding="utf-8"?>
<svg version="1.1" xmlns="http://www.w3.org/2000/svg" xmlns:xlink="http://www.w3.org/1999/xlink" x="0px" y="0px"
	 viewBox="0 0 72.567 96.945" width="2.56cm" height="3.42cm" xml:space="preserve">
<g id="silkscreen">

	<g id="centered" transform="translate(0.2835 0)">
		<g id="esp-placeholder">
			<rect fill="none" stroke="#000000" stroke-width="0.2" stroke-dasharray="2,2" x="13.323" y="0" width="45.354" height="68.031"/>
		</g>
		<g id="ESP8266" transform="translate(13.323,0)">
			<g id="antenna" fill="#000000">
				<polygon points="43.301,15.289 42.081,15.289 42.081,3.269 36.961,3.269 36.961,10.969 28.617,10.969 28.617,3.269 23.357,3.269 23.357,10.969 15.077,10.969 15.077,3.269 9.961,3.269 9.961,15.286 8.741,15.286 8.741,3.269 3.697,3.269 3.697,15.289 2.049,15.289 2.049,2.049 16.297,2.049 16.297,9.749 22.137,9.749 22.137,2.049 29.837,2.049 29.837,9.749 35.741,9.749 35.741,2.049 43.301,2.049"/>
			</g>
			<g id="cover" fill="#000000">
				<rect id="main" x="5.575" y="21.26" fill="none" stroke="#000000" stroke-width="0.2" stroke-dasharray="2,2" width="34.2" height="43.2"/>
			</g>
			<text id="label" fill="#000000" font-family="'Droid Sans'" font-size="4" x="22.5" y="44" text-anchor="middle">ESP-8266</text>
		</g>
	</g>

	<g id="PCB">
		<path id="board-outline" fill="#000000" d="M59.79,0.576c6.728,0,12.201,5.481,12.201,12.217v82.153c0,0.785-0.637,1.423-1.42,1.423l-23.033,0.003c-0.015-0.006-0.039-0.028-0.046-0.028c-0.001,0-0.002,0-0.002,0.001v-2.299c0-0.746-0.675-1.376-1.474-1.376H22.759c-0.676,0-1.375,0.515-1.375,1.376l0.003,2.274c-0.006,0.017-0.035,0.045-0.026,0.049H7.786c-0.757,0-1.446-0.632-1.622-1.477V77.757c0-0.436-0.237-0.825-0.634-1.023l-4.955-2.276V12.793c0-6.736,5.473-12.217,12.201-12.217H59.79 M59.79,0H12.776C5.789,0-0.001,5.697-0.001,12.793v61.665c0,0.2,0.1,0.4,0.299,0.5l4.991,2.299c0.2,0.1,0.299,0.3,0.299,0.5v17.19c0.201,1.099,1.1,1.998,2.198,1.998h13.575c0.299,0,0.599-0.3,0.599-0.6v-2.299c0-0.5,0.399-0.8,0.799-0.8h23.257c0.499,0,0.898,0.4,0.898,0.8v2.299c0,0.3,0.299,0.6,0.599,0.6h23.058c1.098,0,1.996-0.899,1.996-1.999V12.793C72.567,5.697,66.877,0,59.79,0L59.79,0z"/>
	</g>

	<g id="centered" transform="translate(0.2835 0)">
		<g id="labels1" fill="none" stroke="#000000" stroke-width="0.4" stroke-linecap="round">
			<g id="left-labels" transform="translate(0 17) rotate(-90 28.8 28.8) translate(0 6.7)">
				<g>
					<path id="RST" d="M50.997,4.73V2.47 M50.997,2.47h1.098 M52.095,2.47l0.387,0.387 M52.482,2.857v0.775 M52.482,3.632l-0.387,0.323 M52.095,3.955h-1.098 M51.707,3.955l0.775,0.775 M54.743,2.857L54.355,2.47 M54.355,2.47h-0.71 M53.645,2.47l-0.388,0.387 M53.257,2.857v0.388 M53.257,3.245l0.388,0.387 M53.645,3.632h0.71 M54.355,3.632l0.388,0.323 M54.743,3.955v0.388 M54.743,4.343L54.355,4.73 M54.355,4.73h-0.71 M53.645,4.73l-0.388-0.387 M56.293,4.73V2.47 M55.518,2.47h1.485"/>
					<path id="A0" d="M44.927,4.698V3.212 M44.927,3.212l0.71-0.71 M45.637,2.502l0.775,0.71 M46.412,3.212v1.486 M44.927,3.6h1.485 M47.188,4.375v-1.55 M47.188,2.825l0.387-0.323 M47.575,2.502h0.71 M48.285,2.502l0.388,0.323 M48.673,2.825v1.55 M48.673,4.375l-0.388,0.323 M48.285,4.698h-0.71 M47.575,4.698l-0.387-0.323 M47.188,4.375l1.485-1.55"/>
					<path id="D0" d="M37.727,2.47v2.26 M37.727,4.73h1.098 M38.825,4.73l0.387-0.387 M39.212,4.343V2.857 M39.212,2.857L38.825,2.47 M38.825,2.47h-1.098 M39.987,4.343V2.857 M39.987,2.857l0.388-0.387 M40.375,2.47h0.71 M41.085,2.47l0.388,0.387 M41.473,2.857v1.486 M41.473,4.343L41.085,4.73 M41.085,4.73h-0.71 M40.375,4.73l-0.388-0.387 M39.987,4.343l1.486-1.486"/>
					<path id="D5" d="M30.527,2.47v2.26 M30.527,4.73h1.098 M31.625,4.73l0.388-0.387 M32.013,4.343V2.857 M32.013,2.857L31.625,2.47 M31.625,2.47h-1.098 M34.273,2.47h-1.485 M32.788,2.47v1.098 M32.788,3.568l0.775-0.388 M33.563,3.18h0.322 M33.885,3.18l0.388,0.388 M34.273,3.568v0.775 M34.273,4.343L33.885,4.73 M33.885,4.73h-0.71 M33.175,4.73l-0.387-0.387"/>
					<path id="D6" d="M23.327,2.47v2.26 M23.327,4.73h1.098 M24.425,4.73l0.387-0.387 M24.812,4.343V2.857 M24.812,2.857L24.425,2.47 M24.425,2.47h-1.098 M27.073,2.47l-0.71,0.387 M26.363,2.857l-0.775,0.775 M25.588,3.632v0.711 M25.588,4.343l0.387,0.387 M25.975,4.73h0.71 M26.685,4.73l0.388-0.387 M27.073,4.343V3.955 M27.073,3.955l-0.388-0.323 M26.685,3.632h-1.097"/>
					<path id="D7" d="M16.127,2.47v2.26 M16.127,4.73h1.098 M17.225,4.73l0.387-0.387 M17.612,4.343V2.857 M17.612,2.857L17.225,2.47 M17.225,2.47h-1.098 M18.388,2.47h1.485 M19.873,2.47v0.387 M19.873,2.857l-1.485,1.486 M18.388,4.343V4.73"/>
					<path id="D8" d="M8.927,2.47v2.26 M8.927,4.73h1.098 M10.025,4.73l0.387-0.387 M10.412,4.343V2.857 M10.412,2.857L10.025,2.47 M10.025,2.47H8.927 M11.188,2.857l0.387-0.387 M11.575,2.47h0.71 M12.285,2.47l0.388,0.387 M12.673,2.857v0.388 M12.673,3.245l-0.388,0.387 M12.285,3.632l0.388,0.388 M12.673,4.02v0.323 M12.673,4.343L12.285,4.73 M12.285,4.73h-0.71 M11.575,4.73l-0.387-0.387 M11.188,4.343V4.02 M11.188,4.02l0.387-0.388 M11.575,3.632l-0.387-0.387 M11.188,3.245V2.857 M11.575,3.632h0.71"/>
					<path id="3V3" d="M0.597,2.857L0.984,2.47 M0.984,2.47h0.711 M1.695,2.47l0.387,0.387 M2.082,2.857V3.18 M2.082,3.18L1.695,3.568 M1.695,3.568H1.307 M1.695,3.568l0.387,0.387 M2.082,3.955v0.388 M2.082,4.343L1.695,4.73 M1.695,4.73H0.984 M0.984,4.73L0.597,4.343 M2.857,2.47v1.485 M2.857,3.955L3.632,4.73 M3.632,4.73l0.711-0.775 M4.343,3.955V2.47 M5.118,2.857L5.505,2.47 M5.505,2.47H6.28 M6.28,2.47l0.323,0.387 M6.603,2.857V3.18 M6.603,3.18L6.28,3.568 M6.28,3.568H5.893 M6.28,3.568l0.323,0.387 M6.603,3.955v0.388 M6.603,4.343L6.28,4.73 M6.28,4.73H5.505 M5.505,4.73L5.118,4.343"/>
				</g>
			</g>
			<g id="right-labels" transform="translate(50.4 17) rotate(-90 28.8 28.8) translate(0 7.7)">
				<g>
					<path id="5V" d="M3.212,2.47H1.727 M1.727,2.47v1.098 M1.727,3.568l0.71-0.388 M2.437,3.18h0.388 M2.825,3.18l0.387,0.388 M3.212,3.568v0.775 M3.212,4.343L2.825,4.73 M2.825,4.73h-0.71 M2.115,4.73L1.727,4.343 M3.988,2.47v1.485 M3.988,3.955L4.763,4.73 M4.763,4.73l0.71-0.775 M5.473,3.955V2.47"/>
					<path id="G" d="M11.543,2.857L11.155,2.47 M11.155,2.47h-0.71 M10.445,2.47l-0.388,0.387 M10.057,2.857v1.486 M10.057,4.343l0.388,0.387 M10.445,4.73h0.71 M11.155,4.73l0.388-0.387 M11.543,4.343V3.568 M11.543,3.568h-0.775"/>
					<path id="D4" d="M16.127,2.47v2.26 M16.127,4.73h1.098 M17.225,4.73l0.387-0.387 M17.612,4.343V2.857 M17.612,2.857L17.225,2.47 M17.225,2.47h-1.098 M19.485,4.73V2.47 M19.485,2.47l-1.097,1.162 M18.388,3.632h1.485"/>
					<path id="D3" d="M23.327,2.47v2.26 M23.327,4.73h1.098 M24.425,4.73l0.387-0.387 M24.812,4.343V2.857 M24.812,2.857L24.425,2.47 M24.425,2.47h-1.098 M25.588,2.857l0.387-0.387 M25.975,2.47h0.71 M26.685,2.47l0.388,0.387 M27.073,2.857V3.18 M27.073,3.18l-0.388,0.388 M26.685,3.568h-0.322 M26.685,3.568l0.388,0.387 M27.073,3.955v0.388 M27.073,4.343L26.685,4.73 M26.685,4.73h-0.71 M25.975,4.73l-0.387-0.387"/>
					<path id="D2" d="M30.527,2.47v2.26 M30.527,4.73h1.098 M31.625,4.73l0.388-0.387 M32.013,4.343V2.857 M32.013,2.857L31.625,2.47 M31.625,2.47h-1.098 M34.273,4.73h-1.485 M32.788,4.73l1.485-1.485 M34.273,3.245V2.857 M34.273,2.857L33.885,2.47 M33.885,2.47h-0.71 M33.175,2.47l-0.387,0.387"/>
					<path id="D1" d="M37.727,2.502v2.196 M37.727,4.698h1.098 M38.825,4.698l0.387-0.323 M39.212,4.375v-1.55 M39.212,2.825l-0.387-0.323 M38.825,2.502h-1.098 M39.987,3.212l0.776-0.71 M40.763,2.502v2.196 M39.987,4.698h1.486"/>
					<path id="RX" d="M44.927,4.73V2.47 M44.927,2.47h1.098 M46.025,2.47l0.387,0.387 M46.412,2.857v0.775 M46.412,3.632l-0.387,0.323 M46.025,3.955h-1.098 M45.637,3.955l0.775,0.775 M47.188,2.47l1.485,2.26 M48.673,2.47l-1.485,2.26"/>
					<path id="TX" d="M52.837,4.698V2.502 M52.127,2.502h1.485 M54.388,2.502l1.485,2.196 M55.873,2.502l-1.485,2.196"/>
				</g>
			</g>
		</g>
	</g>

	<g id="labels2" fill="none" stroke="#000000" stroke-linecap="round">
		<g id="label-reset" stroke-width="0.4" transform="translate(11 83)">
			<path d="M0,2.26V0 M0,0h1.098 M1.098,0l0.387,0.388 M1.485,0.388v0.775 M1.485,1.163L1.098,1.55 M1.098,1.55H0 M0.71,1.55l0.775,0.71 M3.746,0H2.26 M2.26,0v2.26 M2.26,2.26h1.486 M2.26,1.163h0.775 M6.071,0.388L5.683,0 M5.683,0H4.908 M4.908,0L4.521,0.388 M4.521,0.388v0.387 M4.521,0.775l0.387,0.388 M4.908,1.163h0.775 M5.683,1.163L6.071,1.55 M6.071,1.55v0.323 M6.071,1.873L5.683,2.26 M5.683,2.26H4.908 M4.908,2.26L4.521,1.873 M8.331,0H6.846 M6.846,0v2.26 M6.846,2.26h1.485 M6.846,1.163h0.71 M9.881,2.26V0 M9.106,0h1.486"/>
		</g>
		<g id="label-logo" stroke-width="0.5" transform="translate(47, 80)">
			<path id="label-logo-d1" d="M4.5,1v4.224 M4.5,5.224h2.052 M6.552,5.224L7.276,4.5 M7.276,4.5V1.724 M7.276,1.724L6.552,1 M6.552,1H4.5 M8.724,2.448L10.172,1 M10.172,1v4.224 M8.724,5.224H11.5"/>
			<path id="label-logo-mini" d="M12.8,4.6V2.53 M12.8,2.53h0.54 M13.34,2.53l0.45,0.54 M13.79,3.07V4.6 M13.79,3.07l0.54-0.54 M14.33,2.53l0.54,0.54 M14.87,3.07V4.6 M15.95,2.53h0.54 M16.49,2.53V4.6 M15.95,4.6h1.08 M16.49,1v0.54 M18.11,4.6V2.53 M18.11,2.53h1.53 M19.64,2.53l0.54,0.54 M20.18,3.07V4.6 M21.26,2.53h0.54 M21.8,2.53V4.6 M21.26,4.6h0.99 M21.8,1v0.54"/>
			<path id="label-logo-wemos_cc" d="M7.175,10.619h-0.76 M6.415,10.619L6,10.205 M6,10.205v-0.83 M6,9.375l0.415-0.346 M6.415,9.029h0.76 M7.175,9.029L7.59,9.375 M7.59,9.375V9.79 M7.59,9.79H6 M8.519,10.619V8.2 M8.519,8.2l0.829,0.829 M9.348,9.029L10.109,8.2 M10.109,8.2v2.419 M11.453,10.619h0.829 M12.282,10.619l0.346-0.414 M12.628,10.205v-0.83 M12.628,9.375l-0.346-0.346 M12.282,9.029h-0.829 M11.453,9.029l-0.415,0.346 M11.038,9.375v0.83 M11.038,10.205l0.415,0.414 M13.626,10.619h1.175 M14.801,10.619l0.415-0.414 M15.216,10.205L14.801,9.79 M14.801,9.79h-0.829 M13.972,9.79l-0.346-0.415 M13.626,9.375l0.346-0.346 M13.972,9.029h1.244 M16.145,10.619v-0.414 M16.145,10.205h0.415 M16.56,10.205v0.414 M16.56,10.619h-0.415 M19.079,9.029h-1.244 M17.835,9.029L17.42,9.375 M17.42,9.375v0.83 M17.42,10.205l0.415,0.414 M17.835,10.619h1.244 M21.598,9.029h-1.244 M20.354,9.029l-0.346,0.346 M20.008,9.375v0.83 M20.008,10.205l0.346,0.414 M20.354,10.619h1.244 M4.15,7c2.5,3.5-0.5,5.2-1.2,3.2c-0.6,2-3.8,0.6-1.8-3.2"/>
		</g>
	</g>
</g>


<g id="copper1">
	<g id="copper0">
		<g id="centered" transform="translate(0.2835 0)">
			<g id="pads" fill="none" stroke="#F7BD13" stroke-width="1.5">
				<g id="pads-left" transform="translate(0 17) rotate(90 3.6 3.6)">
					<circle id="connector0pad" class="pad-rst" cx="3.6" cy="3.6" r="2.05"/>
					<circle id="connector1pad" class="pad-a0" cx="10.8" cy="3.6" r="2.05"/>
					<circle id="connector2pad" class="pad-d0" cx="18" cy="3.6" r="2.05"/>
					<circle id="connector3pad" class="pad-d5" cx="25.2" cy="3.6" r="2.05"/>
					<circle id="connector4pad" class="pad-d6" cx="32.4" cy="3.6" r="2.05"/>
					<circle id="connector5pad" class="pad-d7" cx="39.6" cy="3.6" r="2.05"/>
					<circle id="connector6pad" class="pad-d8" cx="46.8" cy="3.6" r="2.05"/>
					<circle id="connector7pad" class="pad-3v3" cx="54" cy="3.6" r="2.05"/>
				</g>
				<g id="pads-right" transform="translate(64.8 17) rotate(90 3.6 3.6)">
					<circle id="connector8pad" class="pad-5v" cx="54" cy="3.6" r="2.05"/>
					<circle id="connector9pad" class="pad-g" cx="46.8" cy="3.6" r="2.05"/>
					<circle id="connector10pad" class="pad-d4" cx="39.6" cy="3.6" r="2.05"/>
					<circle id="connector11pad" class="pad-d3" cx="32.4" cy="3.6" r="2.05"/>
					<circle id="connector12pad" class="pad-d2" cx="25.2" cy="3.6" r="2.05"/>
					<circle id="connector13pad" class="pad-d1" cx="18" cy="3.6" r="2.05"/>
					<circle id="connector14pad" class="pad-rx" cx="10.8" cy="3.6" r="2.05"/>
					<circle id="connector15pad" class="pad-tx" cx="3.6" cy="3.6" r="2.05"/>
				</g>
			</g>
		</g>
	</g>
</g>
</svg>
