<?xml version="1.0" encoding="UTF-8"?>
<svg
  xmlns="http://www.w3.org/2000/svg"
  xmlns:xlink="http://www.w3.org/1999/xlink"
  version="1.2"
  baseProfile="tiny"
  x="0"
  y="0"
  width="1.51in"
  height="1.51in"
  viewBox="0 0 151 151"
  xml:space="preserve">
  <desc>38mm (1.5 inch) 8x8 LED matrix footprint with narrow connection pads</desc>
  <g
    id="silkscreen"
    style="stroke:black;stroke-width:2;fill:none;stroke-dasharray:none">
    <path
      d="M2,1
v 72h-1v 4h 1v 72
h 72v 1h 4v-1h 72
v-70h-1v-8h 1v-70
h-70v 1h-8v-1
z"
      stroke-miterlimit="10" />
  </g>
  <!-- offset origin to the center of the top, left pin (16) -->
  <!-- (150-70)/2 + 1 = 41 , (150-180)/2 = 20 -->
  <g
    transform="translate(41,20)"
    id="copper1">
    <g
      id="copper0">
      <!-- shrunken through hole connection pads -->
      <g
        style="fill:none;stroke:#f7bd13;stroke-width:1">
        <circle id="connector15pad" r="2.1" cx="0" cy="0"/>
        <circle id="connector14pad" r="2.1" cx="10" cy="0"/>
        <circle id="connector13pad" r="2.1" cx="20" cy="0"/>
        <circle id="connector12pad" r="2.1" cx="30" cy="0"/>
        <circle id="connector11pad" r="2.1" cx="40" cy="0"/>
        <circle id="connector10pad" r="2.1" cx="50" cy="0"/>
        <circle id="connector9pad" r="2.1" cx="60" cy="0"/>
        <circle id="connector8pad" r="2.1" cx="70" cy="0"/>
        <!-- 1100 mils -->
        <g
          transform="translate(0,110)">
          <circle id="connector7pad" r="2.1" cx="70" cy="0"/>
          <circle id="connector6pad" r="2.1" cx="60" cy="0"/>
          <circle id="connector5pad" r="2.1" cx="50" cy="0"/>
          <circle id="connector4pad" r="2.1" cx="40" cy="0"/>
          <circle id="connector3pad" r="2.1" cx="30" cy="0"/>
          <circle id="connector2pad" r="2.1" cx="20" cy="0"/>
          <circle id="connector1pad" r="2.1" cx="10" cy="0"/>
          <circle id="connector0pad" r="2.1" cx="0"  cy="0"/>
        </g>
      </g>
      <!-- expanded oblong connection pads -->
      <g
        style="fill:#f7bd13;stroke:none;stroke-width:0"
        transform="translate(-2.6,-2.6)">
        <path
          d="m0,0
a 2.6,2.6 0 0 1 5.2,0v5.2
a 2.6,2.6 0 0 1-5.2,0z
m 0.5,3
a 1,  1   0 0 0 4.2,0v-0.8
a 1,  1   0 0 0-4.2,0z"/>
        <path
          d="m10,0
a 2.6,2.6 0 0 1 5.2,0v5.2
a 2.6,2.6 0 0 1-5.2,0z
m 0.5,3
a 1,  1   0 0 0 4.2,0v-0.8
a 1,  1   0 0 0-4.2,0z"/>
        <path
          d="m20,0
a 2.6,2.6 0 0 1 5.2,0v5.2
a 2.6,2.6 0 0 1-5.2,0z
m 0.5,3
a 1,  1   0 0 0 4.2,0v-0.8
a 1,  1   0 0 0-4.2,0z"/>
        <path
          d="m30,0
a 2.6,2.6 0 0 1 5.2,0v5.2
a 2.6,2.6 0 0 1-5.2,0z
m 0.5,3
a 1,  1   0 0 0 4.2,0v-0.8
a 1,  1   0 0 0-4.2,0z"/>
        <path
          d="m40,0
a 2.6,2.6 0 0 1 5.2,0v5.2
a 2.6,2.6 0 0 1-5.2,0z
m 0.5,3
a 1,  1   0 0 0 4.2,0v-0.8
a 1,  1   0 0 0-4.2,0z"/>
        <path
          d="m50,0
a 2.6,2.6 0 0 1 5.2,0v5.2
a 2.6,2.6 0 0 1-5.2,0z
m 0.5,3
a 1,  1   0 0 0 4.2,0v-0.8
a 1,  1   0 0 0-4.2,0z"/>
        <path
          d="m60,0
a 2.6,2.6 0 0 1 5.2,0v5.2
a 2.6,2.6 0 0 1-5.2,0z
m 0.5,3
a 1,  1   0 0 0 4.2,0v-0.8
a 1,  1   0 0 0-4.2,0z"/>
        <path
          d="m70,0
a 2.6,2.6 0 0 1 5.2,0v5.2
a 2.6,2.6 0 0 1-5.2,0z
m 0.5,3
a 1,  1   0 0 0 4.2,0v-0.8
a 1,  1   0 0 0-4.2,0z"/>
        <!-- 1100 mils -->
        <g
          transform="translate(0,110)">
          <!-- pin 1 special marker pad -->
          <path
            d="m2.6,-2.6
a 2.6,2.6 0 0 1 2.6,2.6v5.2
a 2.6,2.6 0 0 1-2.6,2.6h-5
v-10.4z
m-2.1,5.6
a 1,  1   0 0 0 4.2,0v-0.8
a 1,  1   0 0 0-4.2,0z"/>
          <path
            d="m10,0
a 2.6,2.6 0 0 1 5.2,0v5.2
a 2.6,2.6 0 0 1-5.2,0z
m 0.5,3
a 1,  1   0 0 0 4.2,0v-0.8
a 1,  1   0 0 0-4.2,0z"/>
          <path
            d="m20,0
a 2.6,2.6 0 0 1 5.2,0v5.2
a 2.6,2.6 0 0 1-5.2,0z
m 0.5,3
a 1,  1   0 0 0 4.2,0v-0.8
a 1,  1   0 0 0-4.2,0z"/>
          <path
            d="m30,0
a 2.6,2.6 0 0 1 5.2,0v5.2
a 2.6,2.6 0 0 1-5.2,0z
m 0.5,3
a 1,  1   0 0 0 4.2,0v-0.8
a 1,  1   0 0 0-4.2,0z"/>
          <path
            d="m40,0
a 2.6,2.6 0 0 1 5.2,0v5.2
a 2.6,2.6 0 0 1-5.2,0z
m 0.5,3
a 1,  1   0 0 0 4.2,0v-0.8
a 1,  1   0 0 0-4.2,0z"/>
          <path
            d="m50,0
a 2.6,2.6 0 0 1 5.2,0v5.2
a 2.6,2.6 0 0 1-5.2,0z
m 0.5,3
a 1,  1   0 0 0 4.2,0v-0.8
a 1,  1   0 0 0-4.2,0z"/>
          <path
            d="m60,0
a 2.6,2.6 0 0 1 5.2,0v5.2
a 2.6,2.6 0 0 1-5.2,0z
m 0.5,3
a 1,  1   0 0 0 4.2,0v-0.8
a 1,  1   0 0 0-4.2,0z"/>
          <path
            d="m70,0
a 2.6,2.6 0 0 1 5.2,0v5.2
a 2.6,2.6 0 0 1-5.2,0z
m 0.5,3
a 1,  1   0 0 0 4.2,0v-0.8
a 1,  1   0 0 0-4.2,0z"/>
        </g>
      </g>
    </g>
  </g>

  <g id="keepout"/>
  <g id="soldermask"/>
  <g id="outline"/>
</svg>
