<?xml version="1.0" encoding="UTF-8"?>
<svg
  xmlns="http://www.w3.org/2000/svg"
  xmlns:xlink="http://www.w3.org/1999/xlink"
  version="1.2"
  baseProfile="tiny"
  x="0"
  y="0"
  width="2.39in"
  height="2.39in"
  viewBox="0 0 239 239"
  xml:space="preserve">
  <desc>60.2mm (2.4 inch) 8x8 LED matrix footprint with narrow connection pads</desc>
  <g
    id="silkscreen"
    style="stroke:black;stroke-width:2;fill:none;stroke-dasharray:none">
    <path
      d="M1,3
v 46h 2v 49h-2v 45h 2v 49h-2v 46
h 46v-2h 49v 2h 45v-2h 49v 2h 46
v-48h 2v-45h-2v-49h 2v-45h-2v-48
h-48v-2h-45v 2h-49v-2h-45v 2
z"
      stroke-miterlimit="10" />
  </g>
  <!-- offset origin to the center of the top, left pin (16) -->
  <!-- (237-70)/2 = 83.5 , (237-180)/2 + 2 = 30.5 -->
  <g
    transform="translate(83.5,30.5)"
    id="copper1">
    <g
      id="copper0">
      <!-- shrunken through hole connection pads -->
      <g
        style="fill:none;stroke:#f7bd13;stroke-width:1">
        <circle id="connector15pad" r="2.1" cx="0" cy="0"/>
        <circle id="connector14pad" r="2.1" cx="10" cy="0"/>
        <circle id="connector13pad" r="2.1" cx="20" cy="0"/>
        <circle id="connector12pad" r="2.1" cx="30" cy="0"/>
        <circle id="connector11pad" r="2.1" cx="40" cy="0"/>
        <circle id="connector10pad" r="2.1" cx="50" cy="0"/>
        <circle id="connector9pad" r="2.1" cx="60" cy="0"/>
        <circle id="connector8pad" r="2.1" cx="70" cy="0"/>
        <!-- 1800 mils -->
        <g
          transform="translate(0,180)">
          <circle id="connector7pad" r="2.1" cx="70" cy="0"/>
          <circle id="connector6pad" r="2.1" cx="60" cy="0"/>
          <circle id="connector5pad" r="2.1" cx="50" cy="0"/>
          <circle id="connector4pad" r="2.1" cx="40" cy="0"/>
          <circle id="connector3pad" r="2.1" cx="30" cy="0"/>
          <circle id="connector2pad" r="2.1" cx="20" cy="0"/>
          <circle id="connector1pad" r="2.1" cx="10" cy="0"/>
          <circle id="connector0pad" r="2.1" cx="0"  cy="0"/>
        </g>
      </g>
      <!-- expanded oblong connection pads -->
      <g
        style="fill:#f7bd13;stroke:none;stroke-width:0"
        transform="translate(-2.6,-2.6)">
        <path
          d="m0,0
a 2.6,2.6 0 0 1 5.2,0v5.2
a 2.6,2.6 0 0 1-5.2,0z
m 0.5,3
a 1,  1   0 0 0 4.2,0v-0.8
a 1,  1   0 0 0-4.2,0z"/>
        <path
          d="m10,0
a 2.6,2.6 0 0 1 5.2,0v5.2
a 2.6,2.6 0 0 1-5.2,0z
m 0.5,3
a 1,  1   0 0 0 4.2,0v-0.8
a 1,  1   0 0 0-4.2,0z"/>
        <path
          d="m20,0
a 2.6,2.6 0 0 1 5.2,0v5.2
a 2.6,2.6 0 0 1-5.2,0z
m 0.5,3
a 1,  1   0 0 0 4.2,0v-0.8
a 1,  1   0 0 0-4.2,0z"/>
        <path
          d="m30,0
a 2.6,2.6 0 0 1 5.2,0v5.2
a 2.6,2.6 0 0 1-5.2,0z
m 0.5,3
a 1,  1   0 0 0 4.2,0v-0.8
a 1,  1   0 0 0-4.2,0z"/>
        <path
          d="m40,0
a 2.6,2.6 0 0 1 5.2,0v5.2
a 2.6,2.6 0 0 1-5.2,0z
m 0.5,3
a 1,  1   0 0 0 4.2,0v-0.8
a 1,  1   0 0 0-4.2,0z"/>
        <path
          d="m50,0
a 2.6,2.6 0 0 1 5.2,0v5.2
a 2.6,2.6 0 0 1-5.2,0z
m 0.5,3
a 1,  1   0 0 0 4.2,0v-0.8
a 1,  1   0 0 0-4.2,0z"/>
        <path
          d="m60,0
a 2.6,2.6 0 0 1 5.2,0v5.2
a 2.6,2.6 0 0 1-5.2,0z
m 0.5,3
a 1,  1   0 0 0 4.2,0v-0.8
a 1,  1   0 0 0-4.2,0z"/>
        <path
          d="m70,0
a 2.6,2.6 0 0 1 5.2,0v5.2
a 2.6,2.6 0 0 1-5.2,0z
m 0.5,3
a 1,  1   0 0 0 4.2,0v-0.8
a 1,  1   0 0 0-4.2,0z"/>
        <!-- 1800 mils -->
        <g
          transform="translate(0,180)">
          <!-- pin 1 special marker pad -->
          <path
            d="m2.6,-2.6
a 2.6,2.6 0 0 1 2.6,2.6v5.2
a 2.6,2.6 0 0 1-2.6,2.6h-5
v-10.4z
m-2.1,5.6
a 1,  1   0 0 0 4.2,0v-0.8
a 1,  1   0 0 0-4.2,0z"/>
          <path
            d="m10,0
a 2.6,2.6 0 0 1 5.2,0v5.2
a 2.6,2.6 0 0 1-5.2,0z
m 0.5,3
a 1,  1   0 0 0 4.2,0v-0.8
a 1,  1   0 0 0-4.2,0z"/>
          <path
            d="m20,0
a 2.6,2.6 0 0 1 5.2,0v5.2
a 2.6,2.6 0 0 1-5.2,0z
m 0.5,3
a 1,  1   0 0 0 4.2,0v-0.8
a 1,  1   0 0 0-4.2,0z"/>
          <path
            d="m30,0
a 2.6,2.6 0 0 1 5.2,0v5.2
a 2.6,2.6 0 0 1-5.2,0z
m 0.5,3
a 1,  1   0 0 0 4.2,0v-0.8
a 1,  1   0 0 0-4.2,0z"/>
          <path
            d="m40,0
a 2.6,2.6 0 0 1 5.2,0v5.2
a 2.6,2.6 0 0 1-5.2,0z
m 0.5,3
a 1,  1   0 0 0 4.2,0v-0.8
a 1,  1   0 0 0-4.2,0z"/>
          <path
            d="m50,0
a 2.6,2.6 0 0 1 5.2,0v5.2
a 2.6,2.6 0 0 1-5.2,0z
m 0.5,3
a 1,  1   0 0 0 4.2,0v-0.8
a 1,  1   0 0 0-4.2,0z"/>
          <path
            d="m60,0
a 2.6,2.6 0 0 1 5.2,0v5.2
a 2.6,2.6 0 0 1-5.2,0z
m 0.5,3
a 1,  1   0 0 0 4.2,0v-0.8
a 1,  1   0 0 0-4.2,0z"/>
          <path
            d="m70,0
a 2.6,2.6 0 0 1 5.2,0v5.2
a 2.6,2.6 0 0 1-5.2,0z
m 0.5,3
a 1,  1   0 0 0 4.2,0v-0.8
a 1,  1   0 0 0-4.2,0z"/>
        </g>
      </g>
    </g>
  </g>

  <g id="keepout"/>
  <g id="soldermask"/>
  <g id="outline"/>
</svg>
