<?xml version="1.0" encoding="utf-8"?>
<!-- Generator: Adobe Illustrator 16.0.0, SVG Export Plug-In . SVG Version: 6.00 Build 0)  -->
<!DOCTYPE svg PUBLIC "-//W3C//DTD SVG 1.1//EN" "http://www.w3.org/Graphics/SVG/1.1/DTD/svg11.dtd">
<svg version="1.1" id="Ebene_1" xmlns:svg="http://www.w3.org/2000/svg"
	 xmlns="http://www.w3.org/2000/svg" xmlns:xlink="http://www.w3.org/1999/xlink" x="0px" y="0px" width="240.945px"
	 height="153.07px" viewBox="0 0 240.945 153.07" enable-background="new 0 0 240.945 153.07" xml:space="preserve">
<g id="copper0">
	<g id="copper1">
		<circle id="connector1pin" fill="none" stroke="#FFBF00" stroke-width="1.2" cx="30.935" cy="14.419" r="2.088"/>
		<circle id="connector3pin" fill="none" stroke="#FFBF00" stroke-width="1.2" cx="38.134" cy="14.419" r="2.088"/>
		<circle id="connector5pin" fill="none" stroke="#FFBF00" stroke-width="1.2" cx="45.335" cy="14.419" r="2.088"/>
		<circle id="connector7pin" fill="none" stroke="#FFBF00" stroke-width="1.2" cx="52.534" cy="14.419" r="2.088"/>
		<circle id="connector9pin" fill="none" stroke="#FFBF00" stroke-width="1.2" cx="59.735" cy="14.419" r="2.089"/>
		<circle id="connector11pin" fill="none" stroke="#FFBF00" stroke-width="1.2" cx="66.935" cy="14.419" r="2.088"/>
		<circle id="connector13pin" fill="none" stroke="#FFBF00" stroke-width="1.2" cx="74.134" cy="14.419" r="2.088"/>
		<circle id="connector15pin" fill="none" stroke="#FFBF00" stroke-width="1.2" cx="81.335" cy="14.419" r="2.088"/>
		<circle id="connector17pin" fill="none" stroke="#FFBF00" stroke-width="1.2" cx="88.534" cy="14.419" r="2.088"/>
		<circle id="connector19pin" fill="none" stroke="#FFBF00" stroke-width="1.2" cx="95.735" cy="14.419" r="2.089"/>
		<circle id="connector21pin" fill="none" stroke="#FFBF00" stroke-width="1.2" cx="102.935" cy="14.419" r="2.088"/>
		<circle id="connector23pin" fill="none" stroke="#FFBF00" stroke-width="1.2" cx="110.135" cy="14.419" r="2.089"/>
		<circle id="connector25pin" fill="none" stroke="#FFBF00" stroke-width="1.2" cx="117.335" cy="14.419" r="2.088"/>
		<circle id="connector27pin" fill="none" stroke="#FFBF00" stroke-width="1.2" cx="124.533" cy="14.419" r="2.088"/>
		<circle id="connector29pin" fill="none" stroke="#FFBF00" stroke-width="1.2" cx="131.736" cy="14.419" r="2.088"/>
		<circle id="connector31pin" fill="none" stroke="#FFBF00" stroke-width="1.2" cx="138.936" cy="14.419" r="2.088"/>
		<circle id="connector33pin" fill="none" stroke="#FFBF00" stroke-width="1.2" cx="146.135" cy="14.419" r="2.089"/>
		<circle id="connector35pin" fill="none" stroke="#FFBF00" stroke-width="1.2" cx="153.335" cy="14.419" r="2.088"/>
		<circle id="connector37pin" fill="none" stroke="#FFBF00" stroke-width="1.2" cx="160.533" cy="14.419" r="2.088"/>
		<circle id="connector39pin" fill="none" stroke="#FFBF00" stroke-width="1.2" cx="167.736" cy="14.419" r="2.088"/>
		<circle id="connector40pin" fill="none" stroke="#FFBF00" stroke-width="1.2" cx="167.736" cy="7.22" r="2.088"/>
		<circle id="connector38pin" fill="none" stroke="#FFBF00" stroke-width="1.2" cx="160.533" cy="7.22" r="2.088"/>
		<circle id="connector36pin" fill="none" stroke="#FFBF00" stroke-width="1.2" cx="153.335" cy="7.22" r="2.088"/>
		<circle id="connector34pin" fill="none" stroke="#FFBF00" stroke-width="1.2" cx="146.135" cy="7.22" r="2.089"/>
		<circle id="connector32pin" fill="none" stroke="#FFBF00" stroke-width="1.2" cx="138.936" cy="7.22" r="2.088"/>
		<circle id="connector30pin" fill="none" stroke="#FFBF00" stroke-width="1.2" cx="131.736" cy="7.22" r="2.088"/>
		<circle id="connector28pin" fill="none" stroke="#FFBF00" stroke-width="1.2" cx="124.533" cy="7.22" r="2.088"/>
		<circle id="connector26pin" fill="none" stroke="#FFBF00" stroke-width="1.2" cx="117.335" cy="7.22" r="2.088"/>
		<circle id="connector24pin" fill="none" stroke="#FFBF00" stroke-width="1.2" cx="110.135" cy="7.22" r="2.089"/>
		<circle id="connector22pin" fill="none" stroke="#FFBF00" stroke-width="1.2" cx="102.935" cy="7.22" r="2.088"/>
		<circle id="connector20pin" fill="none" stroke="#FFBF00" stroke-width="1.2" cx="95.735" cy="7.22" r="2.089"/>
		<circle id="connector18pin" fill="none" stroke="#FFBF00" stroke-width="1.2" cx="88.534" cy="7.22" r="2.088"/>
		<circle id="connector16pin" fill="none" stroke="#FFBF00" stroke-width="1.2" cx="81.335" cy="7.22" r="2.088"/>
		<circle id="connector14pin" fill="none" stroke="#FFBF00" stroke-width="1.2" cx="74.134" cy="7.22" r="2.088"/>
		<circle id="connector12pin" fill="none" stroke="#FFBF00" stroke-width="1.2" cx="66.935" cy="7.22" r="2.088"/>
		<circle id="connector10pin" fill="none" stroke="#FFBF00" stroke-width="1.2" cx="59.735" cy="7.22" r="2.089"/>
		<circle id="connector8pin" fill="none" stroke="#FFBF00" stroke-width="1.2" cx="52.534" cy="7.22" r="2.088"/>
		<circle id="connector6pin" fill="none" stroke="#FFBF00" stroke-width="1.2" cx="45.335" cy="7.22" r="2.088"/>
		<circle id="connector4pin" fill="none" stroke="#FFBF00" stroke-width="1.2" cx="38.134" cy="7.22" r="2.088"/>
		<circle id="connector2pin" fill="none" stroke="#FFBF00" stroke-width="1.2" cx="30.935" cy="7.22" r="2.088"/>
	</g>
</g>
<g id="silkscreen">
	<path fill="none" stroke="#FFFFFF" stroke-width="0.75" stroke-miterlimit="10" d="M0.38,0.375L0.391,152.7l240.179-0.007
		L240.569,0.377L0.38,0.375z M11.338,104.527c-2.152,0-3.897-1.744-3.897-3.897c0-2.152,1.745-3.896,3.897-3.896
		c2.152,0,3.898,1.744,3.898,3.896C15.236,102.782,13.491,104.527,11.338,104.527z M11.338,15.236c-2.152,0-3.897-1.745-3.897-3.897
		s1.745-3.897,3.897-3.897c2.152,0,3.898,1.745,3.898,3.897S13.491,15.236,11.338,15.236z M229.607,104.527
		c-2.152,0-3.898-1.744-3.898-3.897c0-2.152,1.746-3.896,3.898-3.896s3.896,1.744,3.896,3.896
		C233.504,102.782,231.76,104.527,229.607,104.527z M229.607,15.236c-2.152,0-3.898-1.745-3.898-3.897s1.746-3.897,3.898-3.897
		s3.896,1.745,3.896,3.897S231.76,15.236,229.607,15.236z"/>
</g>
</svg>
