<?xml version="1.0" encoding="utf-8"?>
<!-- Generator: Adobe Illustrator 16.0.0, SVG Export Plug-In . SVG Version: 6.00 Build 0)  -->
<!DOCTYPE svg PUBLIC "-//W3C//DTD SVG 1.1//EN" "http://www.w3.org/Graphics/SVG/1.1/DTD/svg11.dtd">
<svg version="1.1" id="Layer_1" xmlns="http://www.w3.org/2000/svg" xmlns:xlink="http://www.w3.org/1999/xlink" x="0px" y="0px"
	 width="127.559px" height="74.638px" viewBox="0 0 127.559 74.638" enable-background="new 0 0 127.559 74.638"
	 xml:space="preserve">
<g id="board">
	<path id="boardoutline" fill="#FFFFFF" fill-opacity="0.5" d="M96.09,74.172H23.975c-12.873,0-23.406-9.649-23.406-21.554
		C0.865,42.412,8.153,33.752,18.161,31.72C20.077,19.08,31.813,9.493,45.969,9.493c1.866-0.001,3.728,0.167,5.563,0.506l0,0
		c6.421-6.206,15.024-9.642,23.953-9.565c18.098,0,32.782,13.505,32.782,30.19v0.863c10.683,2.002,18.751,10.704,18.751,21.068
		c-0.012,4.547-1.985,9.435-4.36,12.534c-0.821,1.07-2.069,2.487-3.289,3.436c-1.217,0.948,0,0,0,0l0,0
		c-4.435,3.687-10.031,5.687-15.801,5.646h-0.841H96.09z"/>
</g>
<g id="silkscreen">
	<path fill="none" stroke="#444444" d="M96.09,74.172H23.975c-12.873,0-23.406-9.649-23.406-21.554
		C0.865,42.412,8.153,33.752,18.161,31.72C20.077,19.08,31.813,9.493,45.969,9.493c1.866-0.001,3.728,0.167,5.563,0.506l0,0
		c6.421-6.206,15.024-9.642,23.953-9.565c18.098,0,32.782,13.505,32.782,30.19v0.863c10.683,2.002,18.751,10.704,18.751,21.068
		c-0.012,4.547-1.985,9.435-4.36,12.534c-0.821,1.07-2.069,2.487-3.289,3.436c-1.217,0.948,0,0,0,0l0,0
		c-4.435,3.687-10.031,5.687-15.801,5.646h-0.841H96.09z"/>
	<path fill="none" stroke="#444444" d="M122.658,65.09l-17.234-17.168l0,0v-6.783l0,0c1.485-1.111,2.069-3.06,1.442-4.804
		c-0.627-1.745-2.32-2.873-4.172-2.781c-1.851,0.091-3.426,1.382-3.879,3.179c-0.453,1.797,0.321,3.68,1.911,4.636v1.897l-6.32-6.32
		v-6.847c1.456-1.085,2.052-2.981,1.479-4.705c-0.57-1.723-2.182-2.888-3.998-2.888c-1.814,0-3.428,1.165-4,2.888
		c-0.572,1.724,0.025,3.62,1.481,4.705l0,0v1.833l0,0l-8.405-8.322l0,0c0.459-1.747-0.245-3.592-1.75-4.589
		c-1.506-0.996-3.481-0.921-4.907,0.186c-1.426,1.107-1.99,3.001-1.397,4.708c0.588,1.707,2.204,2.848,4.01,2.834h0.504
		l41.946,41.778"/>
	<path fill="none" stroke="#444444" d="M102.727,74.172l-8.596-8.616v-13.42l0,0c1.544-1.031,2.232-2.951,1.693-4.726
		c-0.539-1.777-2.178-2.992-4.033-2.992c-1.856,0-3.492,1.214-4.031,2.992c-0.539,1.775,0.148,3.695,1.695,4.726v8.721l0,0
		l-6.195-6.193V41.412c1.544-1.031,2.232-2.951,1.693-4.727c-0.539-1.778-2.178-2.992-4.033-2.992s-3.493,1.214-4.032,2.992
		c-0.54,1.776,0.15,3.696,1.695,4.727l0,0v2.106l-4.024-4.108l0,0v-6.658l0,0l-9.46-9.48l0,0c0.319-1.827-0.597-3.647-2.251-4.483
		c-1.655-0.836-3.663-0.493-4.945,0.848c-1.282,1.341-1.537,3.362-0.627,4.978c0.908,1.617,2.768,2.448,4.579,2.05l7.984,8.005
		v6.637l0,0l0,0l0,0l8.68,8.765v6.32l0,0v0.23l17.57,17.55"/>
	<g>
		<path d="M91.856,50.997c1.417-0.013,2.558-1.169,2.55-2.584c-0.01-1.416-1.162-2.56-2.577-2.555
			c-1.419,0.004-2.563,1.152-2.563,2.567c0,0.688,0.272,1.344,0.759,1.827C90.511,50.734,91.171,51.001,91.856,50.997L91.856,50.997
			L91.856,50.997z"/>
		<path d="M60.97,25.084c1.419,0,2.57-1.151,2.57-2.571c0-1.42-1.15-2.569-2.57-2.569c-1.419,0-2.569,1.149-2.569,2.569
			C58.401,23.933,59.551,25.084,60.97,25.084L60.97,25.084L60.97,25.084z"/>
		<path d="M80.901,40.463c1.049,0.008,2.001-0.617,2.408-1.584c0.408-0.969,0.192-2.086-0.549-2.832
			c-0.738-0.746-1.855-0.971-2.825-0.571c-0.971,0.4-1.605,1.346-1.605,2.397c-0.006,0.686,0.262,1.343,0.745,1.83
			C79.559,40.19,80.216,40.463,80.901,40.463L80.901,40.463L80.901,40.463z"/>
		<path d="M102.917,40.254c1.413-0.013,2.552-1.165,2.548-2.578c-0.004-1.415-1.146-2.56-2.563-2.563
			c-1.413-0.004-2.565,1.136-2.575,2.549c-0.008,0.689,0.263,1.352,0.753,1.839C101.565,39.986,102.227,40.258,102.917,40.254
			L102.917,40.254L102.917,40.254z"/>
		<path d="M91.856,29.298c1.417-0.012,2.558-1.167,2.55-2.585c-0.01-1.417-1.162-2.559-2.577-2.555
			c-1.419,0.003-2.563,1.153-2.563,2.57c0,0.685,0.272,1.342,0.759,1.825C90.511,29.034,91.171,29.302,91.856,29.298L91.856,29.298
			L91.856,29.298z"/>
		<path d="M77.108,25.084c1.383-0.125,2.416-1.326,2.335-2.712c-0.083-1.385-1.251-2.456-2.638-2.417
			c-1.387,0.038-2.494,1.17-2.5,2.558c0,0.685,0.273,1.343,0.759,1.825c0.488,0.482,1.148,0.75,1.832,0.746l0,0H77.108z"/>
	</g>
</g>
<g id="silkscreen0">
	<path fill="none" stroke="#111111" d="M96.09,74.172H23.975c-12.873,0-23.406-9.649-23.406-21.554
		C0.865,42.412,8.153,33.752,18.161,31.72C20.077,19.08,31.813,9.493,45.969,9.493c1.866-0.001,3.728,0.167,5.563,0.506l0,0
		c6.421-6.206,15.024-9.642,23.953-9.565c18.098,0,32.782,13.505,32.782,30.19v0.863c10.683,2.002,18.751,10.704,18.751,21.068
		c-0.012,4.547-1.985,9.435-4.36,12.534c-0.821,1.07-2.069,2.487-3.289,3.436c-1.217,0.948,0,0,0,0l0,0
		c-4.435,3.687-10.031,5.687-15.801,5.646h-0.841H96.09z"/>
	<path fill="none" stroke="#111111" d="M122.658,65.09l-17.234-17.168l0,0v-6.783l0,0c1.485-1.111,2.069-3.06,1.442-4.804
		c-0.627-1.745-2.32-2.873-4.172-2.781c-1.851,0.091-3.426,1.382-3.879,3.179c-0.453,1.797,0.321,3.68,1.911,4.636v1.897l-6.32-6.32
		v-6.847c1.456-1.085,2.052-2.981,1.479-4.705c-0.57-1.723-2.182-2.888-3.998-2.888c-1.814,0-3.428,1.165-4,2.888
		c-0.572,1.724,0.025,3.62,1.481,4.705l0,0v1.833l0,0l-8.405-8.322l0,0c0.459-1.747-0.245-3.592-1.75-4.589
		c-1.506-0.996-3.481-0.921-4.907,0.186c-1.426,1.107-1.99,3.001-1.397,4.708c0.588,1.707,2.204,2.848,4.01,2.834h0.504
		l41.946,41.778"/>
	<path fill="none" stroke="#111111" d="M102.727,74.172l-8.596-8.616v-13.42l0,0c1.544-1.031,2.232-2.951,1.693-4.726
		c-0.539-1.777-2.178-2.992-4.033-2.992c-1.856,0-3.492,1.214-4.031,2.992c-0.539,1.775,0.148,3.695,1.695,4.726v8.721l0,0
		l-6.195-6.193V41.412c1.544-1.031,2.232-2.951,1.693-4.727c-0.539-1.778-2.178-2.992-4.033-2.992s-3.493,1.214-4.032,2.992
		c-0.54,1.776,0.15,3.696,1.695,4.727l0,0v2.106l-4.024-4.108l0,0v-6.658l0,0l-9.46-9.48l0,0c0.319-1.827-0.597-3.647-2.251-4.483
		c-1.655-0.836-3.663-0.493-4.945,0.848c-1.282,1.341-1.537,3.362-0.627,4.978c0.908,1.617,2.768,2.448,4.579,2.05l7.984,8.005
		v6.637l0,0l0,0l0,0l8.68,8.765v6.32l0,0v0.23l17.57,17.55"/>
	<g>
		<path d="M91.856,50.997c1.417-0.013,2.558-1.169,2.55-2.584c-0.01-1.416-1.162-2.56-2.577-2.555
			c-1.419,0.004-2.563,1.152-2.563,2.567c0,0.688,0.272,1.344,0.759,1.827C90.511,50.734,91.171,51.001,91.856,50.997L91.856,50.997
			L91.856,50.997z"/>
		<path d="M60.97,25.084c1.419,0,2.57-1.151,2.57-2.571c0-1.42-1.15-2.569-2.57-2.569c-1.419,0-2.569,1.149-2.569,2.569
			C58.401,23.933,59.551,25.084,60.97,25.084L60.97,25.084L60.97,25.084z"/>
		<path d="M80.901,40.463c1.049,0.008,2.001-0.617,2.408-1.584c0.408-0.969,0.192-2.086-0.549-2.832
			c-0.738-0.746-1.855-0.971-2.825-0.571c-0.971,0.4-1.605,1.346-1.605,2.397c-0.006,0.686,0.262,1.343,0.745,1.83
			C79.559,40.19,80.216,40.463,80.901,40.463L80.901,40.463L80.901,40.463z"/>
		<path d="M102.917,40.254c1.413-0.013,2.552-1.165,2.548-2.578c-0.004-1.415-1.146-2.56-2.563-2.563
			c-1.413-0.004-2.565,1.136-2.575,2.549c-0.008,0.689,0.263,1.352,0.753,1.839C101.565,39.986,102.227,40.258,102.917,40.254
			L102.917,40.254L102.917,40.254z"/>
		<path d="M91.856,29.298c1.417-0.012,2.558-1.167,2.55-2.585c-0.01-1.417-1.162-2.559-2.577-2.555
			c-1.419,0.003-2.563,1.153-2.563,2.57c0,0.685,0.272,1.342,0.759,1.825C90.511,29.034,91.171,29.302,91.856,29.298L91.856,29.298
			L91.856,29.298z"/>
		<path d="M77.108,25.084c1.383-0.125,2.416-1.326,2.335-2.712c-0.083-1.385-1.251-2.456-2.638-2.417
			c-1.387,0.038-2.494,1.17-2.5,2.558c0,0.685,0.273,1.343,0.759,1.825c0.488,0.482,1.148,0.75,1.832,0.746l0,0H77.108z"/>
	</g>
</g>
</svg>
