<?xml version="1.0" encoding="UTF-8"?>
<!-- Generator: Adobe Illustrator 13.0.1, SVG Export Plug-In . SVG Version: 6.00 Build 14948)  -->
<svg id="PCB" width=".97639in" height="1.8661in" baseProfile="tiny" gorn="0" version="1.2" viewBox="0 0 70.3 134.36" xmlns="http://www.w3.org/2000/svg">
	<desc>
		<referenceFile>Amica_NodeMCU_DEVKIT_1.0_pcb.svg</referenceFile>
	</desc>

	<g id="silkscreen" gorn="0.2">
		<g fill="none" stroke="#000" stroke-width=".25">
			<path d="M70.3,128.693c0,3.131-2.539,5.669-5.67,5.669H5.669c-3.131,0-5.669-2.538-5.669-5.669V5.669C0,2.539,2.538,0,5.669,0H64.63c3.131,0,5.67,2.539,5.67,5.669V128.693z"/>
			<circle cx="64.357" cy="128.41" r="4.536"/>
			<circle cx="5.952" cy="128.41" r="4.535"/>
			<circle cx="64.357" cy="5.954" r="4.536"/>
			<circle cx="5.952" cy="5.954" r="4.535"/>
			<rect x="19.756" y="20.867" width="32.599" height="41.102"/>
		</g>
		<g id="Right" gorn="0.2.6">
			<g transform="matrix(0 1 -1 0 61.434 114.69)">
				<text font-family="OCRA" font-size="3">3</text>
			</g>
			<g transform="matrix(0 1 -1 0 61.434 116.53)">
				<text font-family="OCRA" font-size="3">V</text>
			</g>
			<g transform="matrix(0 1 -1 0 61.434 118.38)">
				<text font-family="OCRA" font-size="3">3</text>
			</g>
			<g transform="matrix(0 1 -1 0 61.434 107.53)">
				<text font-family="OCRA" font-size="3">G</text>
			</g>
			<g transform="matrix(0 1 -1 0 61.434 109.37)">
				<text font-family="OCRA" font-size="3">N</text>
			</g>
			<g transform="matrix(0 1 -1 0 61.434 111.22)">
				<text font-family="OCRA" font-size="3">D</text>
			</g>
			<g transform="matrix(0 1 -1 0 61.434 101.29)">
				<text font-family="OCRA" font-size="3">T</text>
			</g>
			<g transform="matrix(0 1 -1 0 61.434 103.13)">
				<text font-family="OCRA" font-size="3">X</text>
			</g>
			<g transform="matrix(0 1 -1 0 61.434 94.126)">
				<text font-family="OCRA" font-size="3">R</text>
			</g>
			<g transform="matrix(0 1 -1 0 61.434 95.972)">
				<text font-family="OCRA" font-size="3">X</text>
			</g>
			<g transform="matrix(0 1 -1 0 61.434 86.964)">
				<text font-family="OCRA" font-size="3">D</text>
			</g>
			<g transform="matrix(0 1 -1 0 61.434 88.81)">
				<text font-family="OCRA" font-size="3">8</text>
			</g>
			<g transform="matrix(0 1 -1 0 61.434 79.802)">
				<text font-family="OCRA" font-size="3">D</text>
			</g>
			<g transform="matrix(0 1 -1 0 61.434 81.648)">
				<text font-family="OCRA" font-size="3">7</text>
			</g>
			<g transform="matrix(0 1 -1 0 61.434 72.642)">
				<text font-family="OCRA" font-size="3">D</text>
			</g>
			<g transform="matrix(0 1 -1 0 61.434 74.488)">
				<text font-family="OCRA" font-size="3">6</text>
			</g>
			<g transform="matrix(0 1 -1 0 61.434 65.48)">
				<text font-family="OCRA" font-size="3">D</text>
			</g>
			<g transform="matrix(0 1 -1 0 61.434 67.326)">
				<text font-family="OCRA" font-size="3">5</text>
			</g>
			<g transform="matrix(0 1 -1 0 61.434 57.396)">
				<text font-family="OCRA" font-size="3">G</text>
			</g>
			<g transform="matrix(0 1 -1 0 61.434 59.24)">
				<text font-family="OCRA" font-size="3">N</text>
			</g>
			<g transform="matrix(0 1 -1 0 61.434 61.085)">
				<text font-family="OCRA" font-size="3">D</text>
			</g>
			<g transform="matrix(0 1 -1 0 61.434 50.234)">
				<text font-family="OCRA" font-size="3">3</text>
			</g>
			<g transform="matrix(0 1 -1 0 61.434 52.078)">
				<text font-family="OCRA" font-size="3">V</text>
			</g>
			<g transform="matrix(0 1 -1 0 61.434 53.923)">
				<text font-family="OCRA" font-size="3">3</text>
			</g>
			<g transform="matrix(0 1 -1 0 61.434 43.994)">
				<text font-family="OCRA" font-size="3">D</text>
			</g>
			<g transform="matrix(0 1 -1 0 61.434 45.839)">
				<text font-family="OCRA" font-size="3">4</text>
			</g>
			<g transform="matrix(0 1 -1 0 61.434 36.832)">
				<text font-family="OCRA" font-size="3">D</text>
			</g>
			<g transform="matrix(0 1 -1 0 61.434 38.677)">
				<text font-family="OCRA" font-size="3">3</text>
			</g>
			<g transform="matrix(0 1 -1 0 61.434 29.671)">
				<text font-family="OCRA" font-size="3">D</text>
			</g>
			<g transform="matrix(0 1 -1 0 61.434 31.517)">
				<text font-family="OCRA" font-size="3">2</text>
			</g>
			<g transform="matrix(0 1 -1 0 61.434 22.509)">
				<text font-family="OCRA" font-size="3">D</text>
			</g>
			<g transform="matrix(0 1 -1 0 61.434 24.355)">
				<text font-family="OCRA" font-size="3">1</text>
			</g>
			<g transform="matrix(0 1 -1 0 61.434 15.347)">
				<text font-family="OCRA" font-size="3">D</text>
			</g>
			<g transform="matrix(0 1 -1 0 61.434 17.193)">
				<text font-family="OCRA" font-size="3">0</text>
			</g>
		</g>
		<g id="Left" gorn="0.2.7">
			<g transform="matrix(0 -1 1 0 9.0654 120.22)">
				<text font-family="OCRA" font-size="3">V</text>
			</g>
			<g transform="matrix(0 -1 1 0 9.0654 118.67)">
				<text font-family="OCRA" font-size="3">i</text>
			</g>
			<g transform="matrix(0 -1 1 0 9.0654 117.13)">
				<text font-family="OCRA" font-size="3">n</text>
			</g>
			<g transform="matrix(0 -1 1 0 9.0654 113.36)">
				<text font-family="OCRA" font-size="3">G</text>
			</g>
			<g transform="matrix(0 -1 1 0 9.0654 111.51)">
				<text font-family="OCRA" font-size="3">N</text>
			</g>
			<g transform="matrix(0 -1 1 0 9.0654 109.67)">
				<text font-family="OCRA" font-size="3">D</text>
			</g>
			<g transform="matrix(0 -1 1 0 9.0654 106.2)">
				<text font-family="OCRA" font-size="3">R</text>
			</g>
			<g transform="matrix(0 -1 1 0 9.0654 104.35)">
				<text font-family="OCRA" font-size="3">S</text>
			</g>
			<g transform="matrix(0 -1 1 0 9.0654 102.51)">
				<text font-family="OCRA" font-size="3">T</text>
			</g>
			<g transform="matrix(0 -1 1 0 9.0654 98.112)">
				<text font-family="OCRA" font-size="3">E</text>
			</g>
			<g transform="matrix(0 -1 1 0 9.0654 96.266)">
				<text font-family="OCRA" font-size="3">N</text>
			</g>
			<g transform="matrix(0 -1 1 0 9.0654 91.874)">
				<text font-family="OCRA" font-size="3">3</text>
			</g>
			<g transform="matrix(0 -1 1 0 9.0654 90.028)">
				<text font-family="OCRA" font-size="3">V</text>
			</g>
			<g transform="matrix(0 -1 1 0 9.0654 88.184)">
				<text font-family="OCRA" font-size="3">3</text>
			</g>
			<g transform="matrix(0 -1 1 0 9.0654 84.717)">
				<text font-family="OCRA" font-size="3">G</text>
			</g>
			<g transform="matrix(0 -1 1 0 9.0654 82.872)">
				<text font-family="OCRA" font-size="3">N</text>
			</g>
			<g transform="matrix(0 -1 1 0 9.0654 81.028)">
				<text font-family="OCRA" font-size="3">D</text>
			</g>
			<g transform="matrix(0 -1 1 0 9.0654 77.561)">
				<text font-family="OCRA" font-size="3">C</text>
			</g>
			<g transform="matrix(0 -1 1 0 9.0654 75.715)">
				<text font-family="OCRA" font-size="3">L</text>
			</g>
			<g transform="matrix(0 -1 1 0 9.0654 73.872)">
				<text font-family="OCRA" font-size="3">K</text>
			</g>
			<g transform="matrix(0 -1 1 0 9.0654 70.399)">
				<text font-family="OCRA" font-size="3">S</text>
			</g>
			<g transform="matrix(0 -1 1 0 9.0654 68.553)">
				<text font-family="OCRA" font-size="3">D</text>
			</g>
			<g transform="matrix(0 -1 1 0 9.0654 66.71)">
				<text font-family="OCRA" font-size="3">0</text>
			</g>
			<g transform="matrix(0 -1 1 0 9.0654 63.237)">
				<text font-family="OCRA" font-size="3">C</text>
			</g>
			<g transform="matrix(0 -1 1 0 9.0654 61.393)">
				<text font-family="OCRA" font-size="3">M</text>
			</g>
			<g transform="matrix(0 -1 1 0 9.0654 59.547)">
				<text font-family="OCRA" font-size="3">D</text>
			</g>
			<g transform="matrix(0 -1 1 0 9.0654 56.075)">
				<text font-family="OCRA" font-size="3">S</text>
			</g>
			<g transform="matrix(0 -1 1 0 9.0654 54.231)">
				<text font-family="OCRA" font-size="3">D</text>
			</g>
			<g transform="matrix(0 -1 1 0 9.0654 52.385)">
				<text font-family="OCRA" font-size="3">1</text>
			</g>
			<g transform="matrix(0 -1 1 0 9.0654 48.913)">
				<text font-family="OCRA" font-size="3">S</text>
			</g>
			<g transform="matrix(0 -1 1 0 9.0654 47.069)">
				<text font-family="OCRA" font-size="3">D</text>
			</g>
			<g transform="matrix(0 -1 1 0 9.0654 45.223)">
				<text font-family="OCRA" font-size="3">2</text>
			</g>
			<g transform="matrix(0 -1 1 0 9.0654 41.75)">
				<text font-family="OCRA" font-size="3">S</text>
			</g>
			<g transform="matrix(0 -1 1 0 9.0654 39.907)">
				<text font-family="OCRA" font-size="3">D</text>
			</g>
			<g transform="matrix(0 -1 1 0 9.0654 38.061)">
				<text font-family="OCRA" font-size="3">3</text>
			</g>
			<g transform="matrix(0 -1 1 0 9.0654 34.588)">
				<text font-family="OCRA" font-size="3">R</text>
			</g>
			<g transform="matrix(0 -1 1 0 9.0654 32.744)">
				<text font-family="OCRA" font-size="3">S</text>
			</g>
			<g transform="matrix(0 -1 1 0 9.0654 30.899)">
				<text font-family="OCRA" font-size="3">V</text>
			</g>
			<g transform="matrix(0 -1 1 0 9.0654 27.426)">
				<text font-family="OCRA" font-size="3">R</text>
			</g>
			<g transform="matrix(0 -1 1 0 9.0654 25.582)">
				<text font-family="OCRA" font-size="3">S</text>
			</g>
			<g transform="matrix(0 -1 1 0 9.0654 23.737)">
				<text font-family="OCRA" font-size="3">V</text>
			</g>
			<g transform="matrix(0 -1 1 0 9.0654 19.343)">
				<text font-family="OCRA" font-size="3">A</text>
			</g>
			<g transform="matrix(0 -1 1 0 9.0654 17.498)">
				<text font-family="OCRA" font-size="3">0</text>
			</g>
		</g>
	</g>
	<g id="copper1" gorn="0.3">
		<g id="copper0" fill="none" stroke="#EEBD2C" stroke-width="1.152" gorn="0.3.0">
			<circle id="connector29pin" cx="3.106" cy="117.63" r="1.584" gorn="0.3.0.0"/>
			<rect id="_x32_9square" x="1.521" y="108.88" width="3.169" height="3.17" gorn="0.3.0.1"/>
			<circle id="connector28pin" cx="3.106" cy="110.46" r="1.584" gorn="0.3.0.2"/>
			<circle id="connector27pin" cx="3.106" cy="103.29" r="1.584" gorn="0.3.0.3"/>
			<circle id="connector26pin" cx="3.106" cy="96.123" r="1.584" gorn="0.3.0.4"/>
			<circle id="connector25pin" cx="3.106" cy="88.953" r="1.584" gorn="0.3.0.5"/>
			<rect id="_x32_5square" x="1.521" y="80.199" width="3.169" height="3.17" gorn="0.3.0.6"/>
			<circle id="connector24pin" cx="3.106" cy="81.785" r="1.584" gorn="0.3.0.7"/>
			<circle id="connector23pin" cx="3.106" cy="74.615" r="1.584" gorn="0.3.0.8"/>
			<circle id="connector22pin" cx="3.106" cy="67.445" r="1.584" gorn="0.3.0.9"/>
			<circle id="connector21pin" cx="3.106" cy="60.276" r="1.584" gorn="0.3.0.10"/>
			<circle id="connector20pin" cx="3.106" cy="53.106" r="1.584" gorn="0.3.0.11"/>
			<circle id="connector19pin" cx="3.106" cy="45.938" r="1.584" gorn="0.3.0.12"/>
			<circle id="connector18pin" cx="3.106" cy="38.769" r="1.584" gorn="0.3.0.13"/>
			<circle id="connector17pin" cx="3.106" cy="31.599" r="1.584" gorn="0.3.0.14"/>
			<circle id="connector16pin" cx="3.106" cy="24.429" r="1.584" gorn="0.3.0.15"/>
			<circle id="connector15pin" cx="3.106" cy="17.261" r="1.584" gorn="0.3.0.16"/>
			<circle id="connector14pin" cx="67.46" cy="17.261" r="1.584" gorn="0.3.0.17"/>
			<circle id="connector13pin" cx="67.46" cy="24.429" r="1.584" gorn="0.3.0.18"/>
			<circle id="connector12pin" cx="67.46" cy="31.599" r="1.584" gorn="0.3.0.19"/>
			<circle id="connector11pin" cx="67.46" cy="38.769" r="1.584" gorn="0.3.0.20"/>
			<circle id="connector10pin" cx="67.46" cy="45.938" r="1.584" gorn="0.3.0.21"/>
			<circle id="connector9pin" cx="67.46" cy="53.106" r="1.584" gorn="0.3.0.22"/>
			<rect id="_x39_square" x="65.876" y="58.691" width="3.168" height="3.17" gorn="0.3.0.23"/>
			<circle id="connector8pin" cx="67.46" cy="60.276" r="1.584" gorn="0.3.0.24"/>
			<circle id="connector7pin" cx="67.46" cy="67.445" r="1.584" gorn="0.3.0.25"/>
			<circle id="connector6pin" cx="67.46" cy="74.615" r="1.584" gorn="0.3.0.26"/>
			<circle id="connector5pin" cx="67.46" cy="81.785" r="1.584" gorn="0.3.0.27"/>
			<circle id="connector4pin" cx="67.46" cy="88.953" r="1.584" gorn="0.3.0.28"/>
			<circle id="connector3pin" cx="67.46" cy="96.123" r="1.584" gorn="0.3.0.29"/>
			<circle id="connector2pin" cx="67.46" cy="103.29" r="1.584" gorn="0.3.0.30"/>
			<rect id="_x32_square" x="65.876" y="108.88" width="3.168" height="3.17" gorn="0.3.0.31"/>
			<circle id="connector1pin" cx="67.46" cy="110.46" r="1.584" gorn="0.3.0.32"/>
			<circle id="connector0pin" cx="67.46" cy="117.63" r="1.584" gorn="0.3.0.33"/>
		</g>
	</g>
</svg>
