<?xml version="1.0" encoding="utf-8"?>
<!-- Generator: Adobe Illustrator 16.0.0, SVG Export Plug-In . SVG Version: 6.00 Build 0)  -->
<!DOCTYPE svg PUBLIC "-//W3C//DTD SVG 1.1//EN" "http://www.w3.org/Graphics/SVG/1.1/DTD/svg11.dtd">
<svg version="1.1" id="Layer_1" xmlns="http://www.w3.org/2000/svg" xmlns:xlink="http://www.w3.org/1999/xlink" x="0px" y="0px"
	 width="81.07px" height="96.97px" viewBox="0 0 81.07 96.97" enable-background="new 0 0 81.07 96.97" xml:space="preserve">
<g id="copper1">
	<g id="copper0">
		<circle id="connector0pin" fill="none" stroke="#FEBF10" stroke-width="1.2" cx="24.324" cy="84.996" r="2.088"/>
		<circle id="connector1pin" fill="none" stroke="#FEBF10" stroke-width="1.2" cx="31.522" cy="84.996" r="2.088"/>
		<circle id="connector2pin" fill="none" stroke="#FEBF10" stroke-width="1.2" cx="38.724" cy="84.996" r="2.088"/>
		<circle id="connector3pin" fill="none" stroke="#FEBF10" stroke-width="1.2" cx="45.923" cy="84.996" r="2.088"/>
		<circle id="connector4pin" fill="none" stroke="#FEBF10" stroke-width="1.2" cx="53.124" cy="84.995" r="2.089"/>
	</g>
</g>
<g id="silkscreen">
	<path fill="none" stroke="#000000" stroke-miterlimit="10" d="M80.934,30.557c0-16.483-17.927-30.276-40.242-30.276
		c-22.319,0-40.649,13.793-40.649,30.276l0.071,45.874l13.469,13.402h53.28l14.064-13.336L80.934,30.557z"/>
	
		<ellipse fill-rule="evenodd" clip-rule="evenodd" fill="none" stroke="#000000" stroke-miterlimit="10" cx="39.927" cy="42.743" rx="11.843" ry="12.105"/>
	
		<ellipse fill-rule="evenodd" clip-rule="evenodd" fill="none" stroke="#000000" stroke-miterlimit="10" cx="40.186" cy="42.573" rx="18.468" ry="18.875"/>
	<text transform="matrix(0 -1.022 1 0 26.8638 80.8594)" font-family="'MyriadPro-Regular'" font-size="5.3938">B</text>
	<text transform="matrix(0 -1.022 1 0 33.7114 80.8594)" font-family="'MyriadPro-Regular'" font-size="5.3938">5V</text>
	<text transform="matrix(0 -1.022 1 0 40.5806 80.8594)" font-family="'MyriadPro-Regular'" font-size="5.3938">A</text>
	<text transform="matrix(0 -1.022 1 0 47.1113 80.7344)" font-family="'MyriadPro-Regular'" font-size="5.3938">X</text>
	<text transform="matrix(0 -1.022 1 0 54.0508 80.8594)" font-family="'MyriadPro-Regular'" font-size="5.3938">G</text>
</g>
<g id="guides" display="none">
</g>
</svg>
