<?xml version="1.0" encoding="utf-8"?>
<!-- Generator: Adobe Illustrator 16.0.0, SVG Export Plug-In . SVG Version: 6.00 Build 0)  -->
<svg version="1.2" baseProfile="tiny" id="Layer_1" xmlns="http://www.w3.org/2000/svg" xmlns:xlink="http://www.w3.org/1999/xlink"
	 x="0px" y="0px" width="50.4px" height="115.2px" viewBox="0 0 50.4 115.2" xml:space="preserve">
<desc>Fritzing footprint generated by brd2svg</desc>
<g id="silkscreen">
	<path fill="none" stroke="#FFFFFF" stroke-width="0.576" d="M0.288,114.913h49.824V0.288H0.288V114.913"/>
	<g>
		<title>element:JP1</title>
		<g>
			<title>package:1X16</title>
		</g>
	</g>
	<g>
		<title>element:JP3</title>
		<g>
			<title>package:1X08</title>
		</g>
	</g>
	<g>
		<title>element:LOGO1</title>
		<g>
			<title>package:OSHW-LOGO-L</title>
		</g>
	</g>
	<g>
		<title>element:U$1</title>
		<g>
			<title>package:SFE-NEW-WEBLOGO</title>
		</g>
	</g>
	<g>
		<title>layer 21</title>
		<g>
			<g>
				<title>text:C15</title>
				<text transform="matrix(1 0 0 1 7.2 4.7271)" fill="#FFFFFF" font-family="'OCRA'" font-size="2.5">C15</text>
			</g>
			<g>
				<title>text:C14</title>
				<text transform="matrix(1 0 0 1 7.2 11.9272)" fill="#FFFFFF" font-family="'OCRA'" font-size="2.5">C14</text>
			</g>
			<g>
				<title>text:C13</title>
				<text transform="matrix(1 0 0 1 7.2 19.1274)" fill="#FFFFFF" font-family="'OCRA'" font-size="2.5">C13</text>
			</g>
			<g>
				<title>text:C12</title>
				<text transform="matrix(1 0 0 1 7.2 26.3276)" fill="#FFFFFF" font-family="'OCRA'" font-size="2.5">C12</text>
			</g>
			<g>
				<title>text:C11</title>
				<text transform="matrix(1 0 0 1 7.2 33.5278)" fill="#FFFFFF" font-family="'OCRA'" font-size="2.5">C11</text>
			</g>
			<g>
				<title>text:C10</title>
				<text transform="matrix(1 0 0 1 7.2 40.7271)" fill="#FFFFFF" font-family="'OCRA'" font-size="2.5">C10</text>
			</g>
			<g>
				<title>text:C9</title>
				<text transform="matrix(1 0 0 1 7.2 47.9272)" fill="#FFFFFF" font-family="'OCRA'" font-size="2.5">C9</text>
			</g>
			<g>
				<title>text:C8</title>
				<text transform="matrix(1 0 0 1 7.2 55.1274)" fill="#FFFFFF" font-family="'OCRA'" font-size="2.5">C8</text>
			</g>
			<g>
				<title>text:C7</title>
				<text transform="matrix(1 0 0 1 7.2 62.3276)" fill="#FFFFFF" font-family="'OCRA'" font-size="2.5">C7</text>
			</g>
			<g>
				<title>text:C6</title>
				<text transform="matrix(1 0 0 1 7.2 69.5278)" fill="#FFFFFF" font-family="'OCRA'" font-size="2.5">C6</text>
			</g>
			<g>
				<title>text:C5</title>
				<text transform="matrix(1 0 0 1 7.2 76.7271)" fill="#FFFFFF" font-family="'OCRA'" font-size="2.5">C5</text>
			</g>
			<g>
				<title>text:C4</title>
				<text transform="matrix(1 0 0 1 7.2 83.9272)" fill="#FFFFFF" font-family="'OCRA'" font-size="2.5">C4</text>
			</g>
			<g>
				<title>text:C3</title>
				<text transform="matrix(1 0 0 1 7.2 91.1274)" fill="#FFFFFF" font-family="'OCRA'" font-size="2.5">C3</text>
			</g>
			<g>
				<title>text:C2</title>
				<text transform="matrix(1 0 0 1 7.2 98.3276)" fill="#FFFFFF" font-family="'OCRA'" font-size="2.5">C2</text>
			</g>
			<g>
				<title>text:C1</title>
				<text transform="matrix(1 0 0 1 7.2 105.5278)" fill="#FFFFFF" font-family="'OCRA'" font-size="2.5">C1</text>
			</g>
			<g>
				<title>text:C0</title>
				<text transform="matrix(1 0 0 1 7.2 112.7271)" fill="#FFFFFF" font-family="'OCRA'" font-size="2.5">C0</text>
			</g>
		</g>
		<g>
			<title>text:SIG</title>
			<text transform="matrix(1 0 0 1 36.7761 33.4458)" fill="#FFFFFF" font-family="'OCRA'" font-size="2.5">SIG</text>
		</g>
		<g>
			<title>text:S3</title>
			<text transform="matrix(1 0 0 1 38.5837 40.645)" fill="#FFFFFF" font-family="'OCRA'" font-size="2.5">S3</text>
		</g>
		<g>
			<title>text:S2</title>
			<text transform="matrix(1 0 0 1 38.5837 47.8452)" fill="#FFFFFF" font-family="'OCRA'" font-size="2.5">S2</text>
		</g>
		<g>
			<title>text:S1</title>
			<text transform="matrix(1 0 0 1 38.5837 55.0454)" fill="#FFFFFF" font-family="'OCRA'" font-size="2.5">S1</text>
		</g>
		<g>
			<title>text:S0</title>
			<text transform="matrix(1 0 0 1 38.5837 62.2456)" fill="#FFFFFF" font-family="'OCRA'" font-size="2.5">S0</text>
		</g>
		<g>
			<title>text:EN</title>
			<text transform="matrix(1 0 0 1 38.5837 69.4458)" fill="#FFFFFF" font-family="'OCRA'" font-size="2.5">EN</text>
		</g>
		<g>
			<title>text:VCC</title>
			<text transform="matrix(1 0 0 1 36.7761 76.645)" fill="#FFFFFF" font-family="'OCRA'" font-size="2.5">VCC</text>
		</g>
		<g>
			<title>text:GND</title>
			<text transform="matrix(1 0 0 1 36.7761 83.8452)" fill="#FFFFFF" font-family="'OCRA'" font-size="2.5">GND</text>
		</g>
		<g>
			<title>element:C1</title>
			<g>
				<title>package:0603</title>
			</g>
		</g>
		<g>
			<title>element:JP1</title>
			<g>
				<title>package:1X16</title>
			</g>
		</g>
		<g>
			<title>element:JP3</title>
			<g>
				<title>package:1X08</title>
			</g>
		</g>
		<g>
			<title>element:LOGO1</title>
			<g>
				<title>package:OSHW-LOGO-L</title>
			</g>
		</g>
		<g>
			<title>element:R1</title>
			<g>
				<title>package:0603</title>
			</g>
		</g>
		<g>
			<title>element:STANDOFF1</title>
			<g>
				<title>package:STAND-OFF</title>
			</g>
		</g>
		<g>
			<title>element:STANDOFF2</title>
			<g>
				<title>package:STAND-OFF</title>
			</g>
		</g>
		<g>
			<title>element:U$1</title>
			<g>
				<title>package:SFE-NEW-WEBLOGO</title>
			</g>
		</g>
		<g>
			<title>element:U1</title>
		</g>
	</g>
</g>
<g id="copper1">
	<g id="copper0">
		<circle id="connector2pad" fill="none" stroke="#F7BD13" stroke-width="1.224" cx="3.6" cy="111.6" r="2.052"/>
		<circle id="connector3pad" fill="none" stroke="#F7BD13" stroke-width="1.224" cx="3.6" cy="104.4" r="2.052"/>
		<circle id="connector4pad" fill="none" stroke="#F7BD13" stroke-width="1.224" cx="3.6" cy="97.2" r="2.052"/>
		<circle id="connector5pad" fill="none" stroke="#F7BD13" stroke-width="1.224" cx="3.6" cy="90" r="2.052"/>
		<circle id="connector6pad" fill="none" stroke="#F7BD13" stroke-width="1.224" cx="3.6" cy="82.8" r="2.052"/>
		<circle id="connector7pad" fill="none" stroke="#F7BD13" stroke-width="1.224" cx="3.6" cy="75.6" r="2.052"/>
		<circle id="connector8pad" fill="none" stroke="#F7BD13" stroke-width="1.224" cx="3.6" cy="68.4" r="2.052"/>
		<circle id="connector9pad" fill="none" stroke="#F7BD13" stroke-width="1.224" cx="3.6" cy="61.2" r="2.052"/>
		<circle id="connector10pad" fill="none" stroke="#F7BD13" stroke-width="1.224" cx="3.6" cy="54" r="2.052"/>
		<circle id="connector11pad" fill="none" stroke="#F7BD13" stroke-width="1.224" cx="3.6" cy="46.8" r="2.052"/>
		<circle id="connector12pad" fill="none" stroke="#F7BD13" stroke-width="1.224" cx="3.6" cy="39.6" r="2.052"/>
		<circle id="connector13pad" fill="none" stroke="#F7BD13" stroke-width="1.224" cx="3.6" cy="32.4" r="2.052"/>
		<circle id="connector14pad" fill="none" stroke="#F7BD13" stroke-width="1.224" cx="3.6" cy="25.2" r="2.052"/>
		<circle id="connector15pad" fill="none" stroke="#F7BD13" stroke-width="1.224" cx="3.6" cy="18" r="2.052"/>
		<circle id="connector16pad" fill="none" stroke="#F7BD13" stroke-width="1.224" cx="3.6" cy="10.8" r="2.052"/>
		<circle id="connector17pad" fill="none" stroke="#F7BD13" stroke-width="1.224" cx="3.6" cy="3.6" r="2.052"/>
		<circle id="connector18pad" fill="none" stroke="#F7BD13" stroke-width="1.224" cx="46.8" cy="82.8" r="2.052"/>
		<circle id="connector19pad" fill="none" stroke="#F7BD13" stroke-width="1.224" cx="46.8" cy="75.6" r="2.052"/>
		<circle id="connector20pad" fill="none" stroke="#F7BD13" stroke-width="1.224" cx="46.8" cy="68.4" r="2.052"/>
		<circle id="connector21pad" fill="none" stroke="#F7BD13" stroke-width="1.224" cx="46.8" cy="61.2" r="2.052"/>
		<circle id="connector22pad" fill="none" stroke="#F7BD13" stroke-width="1.224" cx="46.8" cy="54" r="2.052"/>
		<circle id="connector23pad" fill="none" stroke="#F7BD13" stroke-width="1.224" cx="46.8" cy="46.8" r="2.052"/>
		<circle id="connector24pad" fill="none" stroke="#F7BD13" stroke-width="1.224" cx="46.8" cy="39.6" r="2.052"/>
		<circle id="connector25pad" fill="none" stroke="#F7BD13" stroke-width="1.224" cx="46.8" cy="32.4" r="2.052"/>
	</g>
</g>
</svg>
