<?xml version="1.0" encoding="utf-8"?>
<!-- Generator: Adobe Illustrator 16.0.0, SVG Export Plug-In . SVG Version: 6.00 Build 0)  -->
<!DOCTYPE svg PUBLIC "-//W3C//DTD SVG 1.1//EN" "http://www.w3.org/Graphics/SVG/1.1/DTD/svg11.dtd">
<svg version="1.1" id="Atlas_Scientific_PWR-SNS_1_" xmlns:xml="http://www.w3.org/XML/1998/namespace"
	 xmlns="http://www.w3.org/2000/svg" xmlns:xlink="http://www.w3.org/1999/xlink" x="0px" y="0px" width="64.458px"
	 height="64.833px" viewBox="0 0 64.458 64.833" enable-background="new 0 0 64.458 64.833" xml:space="preserve">
<desc>
	<referenceFile>port connector pcb.svg</referenceFile>
</desc>
<g id="silkscreen">
	<g id="white">
		<g>
			<path fill="#FFFFFF" d="M64.458,64.833H0V0h64.458V64.833z M1.125,63.852h62.209V0.982H1.125V63.852z"/>
		</g>
	</g>
</g>
<g id="copper0">
	<g id="copper1">
		<rect x="5.242" y="56.362" fill="none" stroke="#FDBF16" stroke-width="1.152" width="3.168" height="3.168"/>
		<circle id="connector7pin" fill="none" stroke="#FDBF16" stroke-width="1.25" cx="6.826" cy="57.946" r="2"/>
		<circle id="connector6pin" fill="none" stroke="#FDBF16" stroke-width="1.25" cx="6.826" cy="50.848" r="2"/>
		<circle id="connector5pin" fill="none" stroke="#FDBF16" stroke-width="1.25" cx="6.826" cy="43.874" r="2"/>
		<circle id="connector4pin" fill="none" stroke="#FDBF16" stroke-width="1.25" cx="6.826" cy="36.822" r="2"/>
		<circle id="connector3pin" fill="none" stroke="#FDBF16" stroke-width="1.25" cx="6.826" cy="29.096" r="2"/>
		<circle id="connector2pin" fill="none" stroke="#FDBF16" stroke-width="1.25" cx="6.826" cy="21.625" r="2"/>
		<circle id="connector1pin" fill="none" stroke="#FDBF16" stroke-width="1.25" cx="6.826" cy="14.14" r="2"/>
		<g id="connector0pin">
			<circle fill="none" stroke="#FDBF16" stroke-width="1.25" cx="6.826" cy="6.622" r="2"/>
			<rect x="4.826" y="4.622" fill="none" stroke="#FDBF16" stroke-width="1.25" width="4" height="4"/>
		</g>
		<circle id="connector8pin" fill="none" stroke="#FDBF16" stroke-width="1.25" cx="58.047" cy="6.622" r="2"/>
		<circle id="connector9pin" fill="none" stroke="#FDBF16" stroke-width="1.25" cx="58.047" cy="13.721" r="2"/>
		<circle id="connector10pin" fill="none" stroke="#FDBF16" stroke-width="1.25" cx="58.047" cy="20.694" r="2"/>
		<circle id="connector11pin" fill="none" stroke="#FDBF16" stroke-width="1.25" cx="58.047" cy="27.746" r="2"/>
		<circle id="connector12pin" fill="none" stroke="#FDBF16" stroke-width="1.25" cx="58.047" cy="35.473" r="2"/>
		<circle id="connector13pin" fill="none" stroke="#FDBF16" stroke-width="1.25" cx="58.047" cy="42.942" r="2"/>
		<circle id="connector14pin" fill="none" stroke="#FDBF16" stroke-width="1.25" cx="58.047" cy="50.429" r="2"/>
		<circle id="connector15pin" fill="none" stroke="#FDBF16" stroke-width="1.25" cx="58.047" cy="57.946" r="2"/>
	</g>
</g>
</svg>
