<?xml version="1.0" encoding="utf-8"?>
<!-- Generator: Adobe Illustrator 16.0.0, SVG Export Plug-In . SVG Version: 6.00 Build 0)  -->
<!DOCTYPE svg PUBLIC "-//W3C//DTD SVG 1.1//EN" "http://www.w3.org/Graphics/SVG/1.1/DTD/svg11.dtd">
<svg version="1.1" id="Layer_1" xmlns="http://www.w3.org/2000/svg" xmlns:xlink="http://www.w3.org/1999/xlink" x="0px" y="0px"
	 width="128.88px" height="57.6px" viewBox="0 0 128.88 57.6" enable-background="new 0 0 128.88 57.6" xml:space="preserve">
<desc>Fritzing footprint generated by brd2svg</desc>
<g id="silkscreen">
	<path fill="none" stroke="#FFFFFF" stroke-width="0.576" d="M0.319,22.385v12.83c-0.035,12.168,9.8,22.062,21.968,22.098
		c0.086,0,0.172,0,0.259-0.001h83.813c12.166,0.106,22.117-9.67,22.224-21.838c0.002-0.086,0.002-0.173,0.002-0.259v-12.83
		c0.035-12.168-9.799-22.063-21.968-22.098c-0.086,0-0.172,0-0.258,0.001H22.545C10.377,0.181,0.427,9.958,0.32,22.126
		C0.319,22.212,0.319,22.298,0.319,22.385"/>
	<g>
		<title>element:CN_BATT</title>
		<g>
			<title>package:BK-912-ALT</title>
		</g>
	</g>
	<g>
		<title>element:U1</title>
		<g>
			<title>package:PTD0313001E</title>
			
				<rect x="3.398" y="11.962" fill="none" stroke="#FFFFFF" stroke-width="0.125" stroke-linecap="round" width="45.354" height="34.016"/>
		</g>
		<g>
			<g>
				
					<text transform="matrix(-4.371139e-008 -1 1 -4.371139e-008 84.5051 56.1711)" fill="#FFFFFF" font-family="'OCRAStd'" font-size="2.5">A0</text>
			</g>
			<g>
				
					<text transform="matrix(-4.371139e-008 -1 1 -4.371139e-008 84.5051 48.6145)" fill="#FFFFFF" font-family="'OCRAStd'" font-size="2.5">A1</text>
			</g>
			<g>
				
					<text transform="matrix(-4.371139e-008 -1 1 -4.371139e-008 84.5032 40.6477)" fill="#FFFFFF" font-family="'OCRAStd'" font-size="2.5">0</text>
			</g>
			<g>
				
					<text transform="matrix(-4.371139e-008 -1 1 -4.371139e-008 84.5032 33.4485)" fill="#FFFFFF" font-family="'OCRAStd'" font-size="2.5">1</text>
			</g>
			<g>
				
					<text transform="matrix(-4.371139e-008 -1 1 -4.371139e-008 84.5032 26.2488)" fill="#FFFFFF" font-family="'OCRAStd'" font-size="2.5">2</text>
			</g>
			<g>
				
					<text transform="matrix(-4.371139e-008 -1 1 -4.371139e-008 84.5032 19.0496)" fill="#FFFFFF" font-family="'OCRAStd'" font-size="2.5">3</text>
			</g>
			<g>
				
					<text transform="matrix(-4.371139e-008 -1 1 -4.371139e-008 84.5032 11.8474)" fill="#FFFFFF" font-family="'OCRAStd'" font-size="2.5">4</text>
			</g>
			<g>
				
					<text transform="matrix(-4.371139e-008 -1 1 -4.371139e-008 84.5032 4.6775)" fill="#FFFFFF" font-family="'OCRAStd'" font-size="2.5">5</text>
			</g>
			<g>
				
					<text transform="matrix(-4.371139e-008 -1 1 -4.371139e-008 74.4602 6.5183)" fill="#FFFFFF" font-family="'OCRAStd'" font-size="2.5">GND</text>
			</g>
			<g>
				
					<text transform="matrix(-0.2588 -0.9659 0.9659 -0.2588 78.5051 36.2024)" fill="#FFFFFF" font-family="'OCRAStd'" font-size="2.5">VCC</text>
			</g>
			<g>
				
					<text transform="matrix(-0.7071 -0.7071 0.7071 -0.7071 76.4543 43.3088)" fill="#FFFFFF" font-family="'OCRAStd'" font-size="2.5">R</text>
			</g>
			<g>
				
					<text transform="matrix(-0.7071 -0.7071 0.7071 -0.7071 76.4543 50.3987)" fill="#FFFFFF" font-family="'OCRAStd'" font-size="2.5">GND</text>
			</g>
			<g>
				
					<text transform="matrix(-5.960464e-008 -1 1 -5.960464e-008 67.7366 56.052)" fill="#FFFFFF" font-family="'OCRAStd'" font-size="2.5">BAT</text>
			</g>
		</g>
	</g>
</g>
<g id="copper1">
	<g id="copper0">
		<circle id="connector115pad" fill="none" stroke="#F7BD13" stroke-width="1.224" cx="78.109" cy="46.8" r="2.052"/>
		<circle id="connector119pad" fill="none" stroke="#F7BD13" stroke-width="1.224" cx="70.907" cy="54" r="2.052"/>
		<circle id="connector114pad" fill="none" stroke="#F7BD13" stroke-width="1.224" cx="78.109" cy="3.6" r="2.052"/>
		<circle id="connector120pad" fill="none" stroke="#F7BD13" stroke-width="1.224" cx="78.109" cy="54" r="2.052"/>
		<circle id="connector71pad" fill="none" stroke="#F7BD13" stroke-width="1.224" cx="78.109" cy="39.6" r="2.052"/>
		<circle id="connector72pad" fill="none" stroke="#F7BD13" stroke-width="1.224" cx="88.189" cy="3.6" r="2.052"/>
		<circle id="connector73pad" fill="none" stroke="#F7BD13" stroke-width="1.224" cx="88.189" cy="10.8" r="2.052"/>
		<circle id="connector74pad" fill="none" stroke="#F7BD13" stroke-width="1.224" cx="88.189" cy="18" r="2.052"/>
		<circle id="connector75pad" fill="none" stroke="#F7BD13" stroke-width="1.224" cx="88.189" cy="25.2" r="2.052"/>
		<circle id="connector76pad" fill="none" stroke="#F7BD13" stroke-width="1.224" cx="88.189" cy="32.4" r="2.052"/>
		<circle id="connector77pad" fill="none" stroke="#F7BD13" stroke-width="1.224" cx="88.189" cy="39.6" r="2.052"/>
		<circle id="connector78pad" fill="none" stroke="#F7BD13" stroke-width="1.224" cx="88.189" cy="46.8" r="2.052"/>
		<circle id="connector79pad" fill="none" stroke="#F7BD13" stroke-width="1.224" cx="88.189" cy="54" r="2.052"/>
		<g id="unknown">
			<circle id="connector80pad" fill="none" cx="95.388" cy="3.6" r="0"/>
			<circle id="connector81pad" fill="none" cx="102.587" cy="3.6" r="0"/>
			<circle id="connector82pad" fill="none" cx="95.388" cy="25.2" r="0"/>
			<circle id="connector83pad" fill="none" cx="95.388" cy="10.8" r="0"/>
			<circle id="connector84pad" fill="none" cx="102.587" cy="10.8" r="0"/>
			<circle id="connector85pad" fill="none" cx="102.587" cy="25.2" r="0"/>
			<circle id="connector86pad" fill="none" cx="95.388" cy="18" r="0"/>
			<circle id="connector87pad" fill="none" cx="102.587" cy="18" r="0"/>
			<circle id="connector88pad" fill="none" cx="95.388" cy="54" r="0"/>
			<circle id="connector89pad" fill="none" cx="95.388" cy="46.8" r="0"/>
			<circle id="connector90pad" fill="none" cx="95.388" cy="39.6" r="0"/>
			<circle id="connector91pad" fill="none" cx="95.388" cy="32.4" r="0"/>
			<circle id="connector92pad" fill="none" cx="109.788" cy="18" r="0"/>
			<circle id="connector93pad" fill="none" cx="102.587" cy="54" r="0"/>
			<circle id="connector94pad" fill="none" cx="102.587" cy="46.8" r="0"/>
			<circle id="connector95pad" fill="none" cx="102.587" cy="39.6" r="0"/>
			<circle id="connector96pad" fill="none" cx="102.587" cy="32.4" r="0"/>
			<circle id="connector97pad" fill="none" cx="109.788" cy="10.8" r="0"/>
			<circle id="connector98pad" fill="none" cx="109.788" cy="25.2" r="0"/>
			<circle id="connector99pad" fill="none" cx="109.788" cy="46.8" r="0"/>
			<circle id="connector100pad" fill="none" cx="109.788" cy="39.6" r="0"/>
			<circle id="connector101pad" fill="none" cx="109.788" cy="32.4" r="0"/>
			<circle id="connector102pad" fill="none" cx="116.988" cy="10.8" r="0"/>
			<circle id="connector103pad" fill="none" cx="116.988" cy="18" r="0"/>
			<circle id="connector104pad" fill="none" cx="116.988" cy="39.6" r="0"/>
			<circle id="connector105pad" fill="none" cx="116.988" cy="25.2" r="0"/>
			<circle id="connector106pad" fill="none" cx="116.988" cy="46.8" r="0"/>
			<circle id="connector107pad" fill="none" cx="116.988" cy="32.4" r="0"/>
			<circle id="connector108pad" fill="none" cx="109.788" cy="3.6" r="0"/>
			<circle id="connector109pad" fill="none" cx="124.189" cy="18" r="0"/>
			<circle id="connector110pad" fill="none" cx="109.788" cy="54" r="0"/>
			<circle id="connector111pad" fill="none" cx="124.189" cy="25.2" r="0"/>
			<circle id="connector112pad" fill="none" cx="124.189" cy="32.4" r="0"/>
			<circle id="connector113pad" fill="none" cx="124.189" cy="39.6" r="0"/>
		</g>
	</g>
</g>
</svg>
