<?xml version="1.0" encoding="utf-8"?>
<!-- Generator: Adobe Illustrator 16.0.0, SVG Export Plug-In . SVG Version: 6.00 Build 0)  -->
<!DOCTYPE svg PUBLIC "-//W3C//DTD SVG 1.1//EN" "http://www.w3.org/Graphics/SVG/1.1/DTD/svg11.dtd">
<svg version="1.1" id="Layer_1" xmlns="http://www.w3.org/2000/svg" xmlns:xlink="http://www.w3.org/1999/xlink" x="0px" y="0px"
	 width="135.805px" height="57.6px" viewBox="0 0 135.805 57.6" enable-background="new 0 0 135.805 57.6" xml:space="preserve">
<desc>Fritzing footprint generated by brd2svg</desc>
<g id="silkscreen">
	<path fill="none" stroke="#FFFFFF" stroke-width="0.576" d="M8.259,22.385v12.83c-0.036,12.168,9.799,22.062,21.967,22.098
		c0.086,0,0.172,0,0.259-0.001h82.81c12.167,0.106,22.117-9.67,22.224-21.838c0.001-0.086,0.001-0.173,0.001-0.259v-12.83
		c0.036-12.168-9.798-22.063-21.966-22.098c-0.087,0-0.173,0-0.259,0.001h-82.81C18.317,0.181,8.366,9.958,8.26,22.126
		C8.259,22.212,8.259,22.298,8.259,22.385"/>
	<g>
		<title>element:CN_BATT</title>
		<g>
			<title>package:BK-912-ALT</title>
		</g>
	</g>
	<g>
		<title>element:U1</title>
		<g>
			<title>package:PTD0313001E</title>
			
				<line fill="none" stroke="#FFFFFF" stroke-width="0.125" stroke-linecap="round" x1="56.693" y1="45.978" x2="11.338" y2="45.978"/>
			
				<line fill="none" stroke="#FFFFFF" stroke-width="0.125" stroke-linecap="round" x1="11.338" y1="45.978" x2="11.338" y2="26.844"/>
			
				<line fill="none" stroke="#FFFFFF" stroke-width="0.125" stroke-linecap="round" x1="11.338" y1="26.844" x2="23.386" y2="26.844"/>
			
				<line fill="none" stroke="#FFFFFF" stroke-width="0.125" stroke-linecap="round" x1="56.693" y1="45.978" x2="56.693" y2="11.962"/>
			
				<line fill="none" stroke="#FFFFFF" stroke-width="0.125" stroke-linecap="round" x1="56.693" y1="11.962" x2="11.338" y2="11.962"/>
			
				<line fill="none" stroke="#FFFFFF" stroke-width="0.125" stroke-linecap="round" x1="11.338" y1="11.962" x2="11.338" y2="15.505"/>
			
				<line fill="none" stroke="#FFFFFF" stroke-width="0.125" stroke-linecap="round" x1="23.386" y1="15.505" x2="23.386" y2="26.844"/>
			
				<line fill="none" stroke="#FFFFFF" stroke-width="0.125" stroke-linecap="round" x1="11.338" y1="15.505" x2="23.386" y2="15.505"/>
		</g>
		<g>
			<g>
				
					<text transform="matrix(-4.371139e-008 -1 1 -4.371139e-008 91.9417 56.1711)" fill="#FFFFFF" font-family="'OCRAStd'" font-size="2.25">A0</text>
			</g>
			<g>
				
					<text transform="matrix(-4.371139e-008 -1 1 -4.371139e-008 91.9417 48.6145)" fill="#FFFFFF" font-family="'OCRAStd'" font-size="2.25">A1</text>
			</g>
			<g>
				
					<text transform="matrix(-4.371139e-008 -1 1 -4.371139e-008 91.9397 40.6477)" fill="#FFFFFF" font-family="'OCRAStd'" font-size="2.25">0</text>
			</g>
			<g>
				
					<text transform="matrix(-4.371139e-008 -1 1 -4.371139e-008 91.9397 33.4485)" fill="#FFFFFF" font-family="'OCRAStd'" font-size="2.25">1</text>
			</g>
			<g>
				
					<text transform="matrix(-4.371139e-008 -1 1 -4.371139e-008 91.9397 26.2493)" fill="#FFFFFF" font-family="'OCRAStd'" font-size="2.25">2</text>
			</g>
			<g>
				
					<text transform="matrix(-4.371139e-008 -1 1 -4.371139e-008 91.9397 19.05)" fill="#FFFFFF" font-family="'OCRAStd'" font-size="2.25">3</text>
			</g>
			<g>
				
					<text transform="matrix(-4.371139e-008 -1 1 -4.371139e-008 91.9397 11.8479)" fill="#FFFFFF" font-family="'OCRAStd'" font-size="2.25">4</text>
			</g>
			<g>
				
					<text transform="matrix(-4.371139e-008 -1 1 -4.371139e-008 91.9397 4.678)" fill="#FFFFFF" font-family="'OCRAStd'" font-size="2.25">5</text>
			</g>
			<g>
				
					<text transform="matrix(-4.371139e-008 -1 1 -4.371139e-008 80.8967 6.5188)" fill="#FFFFFF" font-family="'OCRAStd'" font-size="2.25">GND</text>
			</g>
			<g>
				
					<text transform="matrix(-0.2588 -0.9659 0.9659 -0.2588 85.4417 35.6174)" fill="#FFFFFF" font-family="'OCRAStd'" font-size="2.25">VCC</text>
			</g>
			<g>
				
					<text transform="matrix(-0.7071 -0.7071 0.7071 -0.7071 83.3909 43.3098)" fill="#FFFFFF" font-family="'OCRAStd'" font-size="2.25">R</text>
			</g>
			<g>
				
					<text transform="matrix(-0.7071 -0.7071 0.7071 -0.7071 83.3909 50.3997)" fill="#FFFFFF" font-family="'OCRAStd'" font-size="2.25">GND</text>
			</g>
			<g>
				
					<text transform="matrix(-5.960464e-008 -1 1 -5.960464e-008 74.6741 56.052)" fill="#FFFFFF" font-family="'OCRAStd'" font-size="2.25">BAT</text>
			</g>
		</g>
	</g>
	<g>
		<circle fill="none" stroke="#FFFFFF" stroke-width="0.25" cx="131.125" cy="39.6" r="2.052"/>
		<circle fill="none" stroke="#FFFFFF" stroke-width="0.25" cx="131.125" cy="18" r="2.052"/>
		<circle fill="none" stroke="#FFFFFF" stroke-width="0.25" cx="123.925" cy="32.4" r="2.052"/>
		<circle fill="none" stroke="#FFFFFF" stroke-width="0.25" cx="131.125" cy="25.2" r="2.052"/>
		<circle fill="none" stroke="#FFFFFF" stroke-width="0.25" cx="116.725" cy="3.6" r="2.052"/>
		<circle fill="none" stroke="#FFFFFF" stroke-width="0.25" cx="116.725" cy="54" r="2.052"/>
		<circle fill="none" stroke="#FFFFFF" stroke-width="0.25" cx="131.125" cy="32.4" r="2.052"/>
		<circle fill="none" stroke="#FFFFFF" stroke-width="0.25" cx="102.325" cy="3.6" r="2.052"/>
		<circle fill="none" stroke="#FFFFFF" stroke-width="0.25" cx="109.525" cy="3.6" r="2.052"/>
		<circle fill="none" stroke="#FFFFFF" stroke-width="0.25" cx="102.325" cy="25.2" r="2.052"/>
		<circle fill="none" stroke="#FFFFFF" stroke-width="0.25" cx="102.325" cy="10.8" r="2.052"/>
		<circle fill="none" stroke="#FFFFFF" stroke-width="0.25" cx="109.525" cy="10.8" r="2.052"/>
		<circle fill="none" stroke="#FFFFFF" stroke-width="0.25" cx="109.525" cy="25.2" r="2.052"/>
		<circle fill="none" stroke="#FFFFFF" stroke-width="0.25" cx="102.325" cy="18" r="2.052"/>
		<circle fill="none" stroke="#FFFFFF" stroke-width="0.25" cx="109.525" cy="18" r="2.052"/>
		<circle fill="none" stroke="#FFFFFF" stroke-width="0.25" cx="102.325" cy="54" r="2.052"/>
		<circle fill="none" stroke="#FFFFFF" stroke-width="0.25" cx="102.325" cy="46.8" r="2.052"/>
		<circle fill="none" stroke="#FFFFFF" stroke-width="0.25" cx="102.325" cy="39.6" r="2.052"/>
		<circle fill="none" stroke="#FFFFFF" stroke-width="0.25" cx="102.325" cy="32.4" r="2.052"/>
		<circle fill="none" stroke="#FFFFFF" stroke-width="0.25" cx="116.725" cy="18" r="2.052"/>
		<circle fill="none" stroke="#FFFFFF" stroke-width="0.25" cx="109.525" cy="54" r="2.052"/>
		<circle fill="none" stroke="#FFFFFF" stroke-width="0.25" cx="109.525" cy="46.8" r="2.052"/>
		<circle fill="none" stroke="#FFFFFF" stroke-width="0.25" cx="109.525" cy="39.6" r="2.052"/>
		<circle fill="none" stroke="#FFFFFF" stroke-width="0.25" cx="109.525" cy="32.4" r="2.052"/>
		<circle fill="none" stroke="#FFFFFF" stroke-width="0.25" cx="116.725" cy="10.8" r="2.052"/>
		<circle fill="none" stroke="#FFFFFF" stroke-width="0.25" cx="116.725" cy="25.2" r="2.052"/>
		<circle fill="none" stroke="#FFFFFF" stroke-width="0.25" cx="116.725" cy="46.8" r="2.052"/>
		<circle fill="none" stroke="#FFFFFF" stroke-width="0.25" cx="116.725" cy="39.6" r="2.052"/>
		<circle fill="none" stroke="#FFFFFF" stroke-width="0.25" cx="116.725" cy="32.4" r="2.052"/>
		<circle fill="none" stroke="#FFFFFF" stroke-width="0.25" cx="123.925" cy="10.8" r="2.052"/>
		<circle fill="none" stroke="#FFFFFF" stroke-width="0.25" cx="123.925" cy="18" r="2.052"/>
		<circle fill="none" stroke="#FFFFFF" stroke-width="0.25" cx="123.925" cy="39.6" r="2.052"/>
		<circle fill="none" stroke="#FFFFFF" stroke-width="0.25" cx="123.925" cy="25.2" r="2.052"/>
		<circle fill="none" stroke="#FFFFFF" stroke-width="0.25" cx="123.925" cy="46.8" r="2.052"/>
	</g>
</g>
<g id="copper1">
	<g id="copper0">
		<circle id="connector115pad" fill="none" stroke="#F7BD13" stroke-width="1.224" cx="85.045" cy="46.8" r="2.052"/>
		<circle id="connector119pad" fill="none" stroke="#F7BD13" stroke-width="1.224" cx="77.845" cy="54" r="2.052"/>
		<circle id="connector114pad" fill="none" stroke="#F7BD13" stroke-width="1.224" cx="85.045" cy="3.6" r="2.052"/>
		<circle id="connector120pad" fill="none" stroke="#F7BD13" stroke-width="1.224" cx="85.045" cy="54" r="2.052"/>
		<circle id="connector71pad" fill="none" stroke="#F7BD13" stroke-width="1.224" cx="85.045" cy="39.6" r="2.052"/>
		<circle id="connector72pad" fill="none" stroke="#F7BD13" stroke-width="1.224" cx="95.125" cy="3.6" r="2.052"/>
		<circle id="connector73pad" fill="none" stroke="#F7BD13" stroke-width="1.224" cx="95.125" cy="10.8" r="2.052"/>
		<circle id="connector74pad" fill="none" stroke="#F7BD13" stroke-width="1.224" cx="95.125" cy="18" r="2.052"/>
		<circle id="connector75pad" fill="none" stroke="#F7BD13" stroke-width="1.224" cx="95.125" cy="25.2" r="2.052"/>
		<circle id="connector76pad" fill="none" stroke="#F7BD13" stroke-width="1.224" cx="95.125" cy="32.4" r="2.052"/>
		<circle id="connector77pad" fill="none" stroke="#F7BD13" stroke-width="1.224" cx="95.125" cy="39.6" r="2.052"/>
		<circle id="connector78pad" fill="none" stroke="#F7BD13" stroke-width="1.224" cx="95.125" cy="46.8" r="2.052"/>
		<circle id="connector79pad" fill="none" stroke="#F7BD13" stroke-width="1.224" cx="95.125" cy="54" r="2.052"/>
		<g id="unknown">
			<circle id="connector80pad" fill="none" cx="102.325" cy="3.6" r="0"/>
			<circle id="connector81pad" fill="none" cx="109.525" cy="3.6" r="0"/>
			<circle id="connector82pad" fill="none" cx="102.325" cy="25.2" r="0"/>
			<circle id="connector83pad" fill="none" cx="102.325" cy="10.8" r="0"/>
			<circle id="connector84pad" fill="none" cx="109.525" cy="10.8" r="0"/>
			<circle id="connector85pad" fill="none" cx="109.525" cy="25.2" r="0"/>
			<circle id="connector86pad" fill="none" cx="102.325" cy="18" r="0"/>
			<circle id="connector87pad" fill="none" cx="109.525" cy="18" r="0"/>
			<circle id="connector88pad" fill="none" cx="102.325" cy="54" r="0"/>
			<circle id="connector89pad" fill="none" cx="102.325" cy="46.8" r="0"/>
			<circle id="connector90pad" fill="none" cx="102.325" cy="39.6" r="0"/>
			<circle id="connector91pad" fill="none" cx="102.325" cy="32.4" r="0"/>
			<circle id="connector92pad" fill="none" cx="116.725" cy="18" r="0"/>
			<circle id="connector93pad" fill="none" cx="109.525" cy="54" r="0"/>
			<circle id="connector94pad" fill="none" cx="109.525" cy="46.8" r="0"/>
			<circle id="connector95pad" fill="none" cx="109.525" cy="39.6" r="0"/>
			<circle id="connector96pad" fill="none" cx="109.525" cy="32.4" r="0"/>
			<circle id="connector97pad" fill="none" cx="116.725" cy="10.8" r="0"/>
			<circle id="connector98pad" fill="none" cx="116.725" cy="25.2" r="0"/>
			<circle id="connector99pad" fill="none" cx="116.725" cy="46.8" r="0"/>
			<circle id="connector100pad" fill="none" cx="116.725" cy="39.6" r="0"/>
			<circle id="connector101pad" fill="none" cx="116.725" cy="32.4" r="0"/>
			<circle id="connector102pad" fill="none" cx="123.925" cy="10.8" r="0"/>
			<circle id="connector103pad" fill="none" cx="123.925" cy="18" r="0"/>
			<circle id="connector104pad" fill="none" cx="123.925" cy="39.6" r="0"/>
			<circle id="connector105pad" fill="none" cx="123.925" cy="25.2" r="0"/>
			<circle id="connector106pad" fill="none" cx="123.925" cy="46.8" r="0"/>
			<circle id="connector107pad" fill="none" cx="123.925" cy="32.4" r="0"/>
			<circle id="connector108pad" fill="none" cx="116.725" cy="3.6" r="0"/>
			<circle id="connector109pad" fill="none" cx="131.125" cy="18" r="0"/>
			<circle id="connector110pad" fill="none" cx="116.725" cy="54" r="0"/>
			<circle id="connector111pad" fill="none" cx="131.125" cy="25.2" r="0"/>
			<circle id="connector112pad" fill="none" cx="131.125" cy="32.4" r="0"/>
			<circle id="connector113pad" fill="none" cx="131.125" cy="39.6" r="0"/>
		</g>
	</g>
</g>
</svg>
