<?xml version="1.0" encoding="UTF-8" standalone="no"?>
<svg
   xmlns:dc="http://purl.org/dc/elements/1.1/"
   xmlns:cc="http://creativecommons.org/ns#"
   xmlns:rdf="http://www.w3.org/1999/02/22-rdf-syntax-ns#"
   xmlns:svg="http://www.w3.org/2000/svg"
   xmlns="http://www.w3.org/2000/svg"
   xmlns:sodipodi="http://sodipodi.sourceforge.net/DTD/sodipodi-0.dtd"
   xmlns:inkscape="http://www.inkscape.org/namespaces/inkscape"
   y="0in"
   height="2.1in"
   width="2.75in"
   viewBox="0 0 198 151.2"
   version="1.2"
   x="0in"
   id="svg299"
   sodipodi:docname="BLDCIFX007T_pcb.svg"
   inkscape:version="1.0.2 (e86c870879, 2021-01-15)">
  <metadata
     id="metadata305">
    <rdf:RDF>
      <cc:Work
         rdf:about="">
        <dc:format>image/svg+xml</dc:format>
        <dc:type
           rdf:resource="http://purl.org/dc/dcmitype/StillImage" />
        <dc:title></dc:title>
      </cc:Work>
    </rdf:RDF>
  </metadata>
  <defs
     id="defs303" />
  <sodipodi:namedview
     pagecolor="#00000f"
     bordercolor="#666666"
     borderopacity="1"
     objecttolerance="10"
     gridtolerance="10"
     guidetolerance="10"
     inkscape:pageopacity="0"
     inkscape:pageshadow="2"
     inkscape:window-width="1920"
     inkscape:window-height="986"
     id="namedview301"
     showgrid="false"
     showguides="true"
     inkscape:guide-bbox="true"
     inkscape:zoom="2.3412699"
     inkscape:cx="152.60653"
     inkscape:cy="50.3732"
     inkscape:window-x="-11"
     inkscape:window-y="-11"
     inkscape:window-maximized="1"
     inkscape:current-layer="svg299"
     inkscape:document-rotation="0" />
  <desc
     id="desc2">Fritzing footprint generated by brd2svg</desc>
  <g
     id="silkscreen"
     style="fill:none">
    <path
       style="fill:none;fill-opacity:1;stroke:#fffff9;stroke-width:0.76799995;stroke-opacity:1"
       d="M 4.4121094,0.38476562 0.38476562,4.4121094 V 197.18359 L 4.4179688,201.2168 H 254.39844 v -9.21875 l 9.21679,-9.21485 V 57.212891 l -9.21679,-9.214844 V 4.7988281 L 249.98633,0.38476562 Z M 62.232422,3.5449219 a 6.0472399,6.0472399 0 0 1 6.214844,6.0527343 6.0472399,6.0472399 0 1 1 -12.09375,0 6.0472399,6.0472399 0 0 1 5.878906,-6.0527343 z m 13.550781,4.1347656 a 1.92,1.92 0 0 1 1.976563,1.9179687 1.92,1.92 0 1 1 -3.839844,0 1.92,1.92 0 0 1 1.863281,-1.9179687 z m 9.601563,0 a 1.92,1.92 0 0 1 1.974609,1.9179687 1.92,1.92 0 1 1 -3.839844,0 1.92,1.92 0 0 1 1.865235,-1.9179687 z m 9.599609,0 a 1.92,1.92 0 0 1 1.976563,1.9179687 1.9208986,1.9208986 0 0 1 -3.841797,0 1.92,1.92 0 0 1 1.865234,-1.9179687 z m 9.599605,0 a 1.92,1.92 0 0 1 1.97657,1.9179687 1.92,1.92 0 1 1 -3.83985,0 1.92,1.92 0 0 1 1.86328,-1.9179687 z m 9.59961,0 a 1.92,1.92 0 0 1 1.97657,1.9179687 1.92,1.92 0 1 1 -3.83985,0 1.92,1.92 0 0 1 1.86328,-1.9179687 z m 9.59961,0 a 1.92,1.92 0 0 1 1.97657,1.9179687 1.92,1.92 0 1 1 -3.83985,0 1.92,1.92 0 0 1 1.86328,-1.9179687 z m 9.60157,0 a 1.92,1.92 0 0 1 1.97461,1.9179687 1.92,1.92 0 1 1 -3.83985,0 1.92,1.92 0 0 1 1.86524,-1.9179687 z m 9.59961,0 a 1.92,1.92 0 0 1 1.97656,1.9179687 1.9209,1.9209 0 1 1 -3.8418,0 1.92,1.92 0 0 1 1.86524,-1.9179687 z m 9.5996,0 a 1.92,1.92 0 0 1 1.97657,1.9179687 1.92,1.92 0 1 1 -3.83985,0 1.92,1.92 0 0 1 1.86328,-1.9179687 z m 9.59961,0 a 1.92,1.92 0 0 1 1.97657,1.9179687 1.92,1.92 0 1 1 -3.83985,0 1.92,1.92 0 0 1 1.86328,-1.9179687 z m 15.35938,0 a 1.92,1.92 0 0 1 1.97656,1.9179687 1.92,1.92 0 1 1 -3.83984,0 1.92,1.92 0 0 1 1.86328,-1.9179687 z m 9.60156,0 a 1.92,1.92 0 0 1 1.97461,1.9179687 1.92,1.92 0 1 1 -3.83984,0 1.92,1.92 0 0 1 1.86523,-1.9179687 z m 9.59961,0 a 1.92,1.92 0 0 1 1.97656,1.9179687 1.92,1.92 0 1 1 -3.83984,0 1.92,1.92 0 0 1 1.86328,-1.9179687 z m 9.59961,0 a 1.92,1.92 0 0 1 1.97656,1.9179687 1.92,1.92 0 1 1 -3.83984,0 1.92,1.92 0 0 1 1.86328,-1.9179687 z m 9.59961,0 a 1.92,1.92 0 0 1 1.97656,1.9179687 1.92,1.92 0 1 1 -3.83984,0 1.92,1.92 0 0 1 1.86328,-1.9179687 z m 9.59961,0 a 1.92,1.92 0 0 1 1.97656,1.9179687 1.92,1.92 0 1 1 -3.83984,0 1.92,1.92 0 0 1 1.86328,-1.9179687 z m 9.60156,0 a 1.92,1.92 0 0 1 1.97461,1.9179687 1.92,1.92 0 1 1 -3.83984,0 1.92,1.92 0 0 1 1.86523,-1.9179687 z m 9.59961,0 a 1.92,1.92 0 0 1 1.97656,1.9179687 1.92,1.92 0 1 1 -3.83984,0 1.92,1.92 0 0 1 1.86328,-1.9179687 z m 9.48828,53.4648435 h 0.002 a 6.0472399,6.0472399 0 0 1 0.61718,0.01563 c 0.0619,0.0047 0.12226,0.01507 0.1836,0.02148 a 6.0472399,6.0472399 0 0 1 0.42773,0.05469 c 0.19156,0.03395 0.37949,0.07731 0.56445,0.128906 0.1954,0.05449 0.3853,0.118267 0.57227,0.191407 0.15287,0.0598 0.30071,0.12956 0.44727,0.201171 a 6.0472399,6.0472399 0 0 1 0.10546,0.04688 c 0.004,0.002 0.01,0.0039 0.0137,0.0059 0.11933,0.06147 0.23312,0.132173 0.34765,0.201172 a 6.0472399,6.0472399 0 0 1 0.16406,0.09375 c 0.003,0.0019 0.005,0.0041 0.008,0.0059 0.0687,0.04451 0.13252,0.09539 0.19922,0.142578 a 6.0472399,6.0472399 0 0 1 0.29296,0.212891 c 0.15383,0.12316 0.30232,0.25326 0.44336,0.390625 a 6.0472399,6.0472399 0 0 1 0.25977,0.279297 c 0.0467,0.05163 0.0976,0.09912 0.14258,0.152343 a 6.0472399,6.0472399 0 0 1 0.008,0.01172 c 0.1236,0.146964 0.24026,0.300549 0.34961,0.458985 a 6.0472399,6.0472399 0 0 1 0.004,0.0059 6.0472399,6.0472399 0 0 1 0.14843,0.238281 c 0.0581,0.09339 0.1188,0.184537 0.17188,0.28125 a 6.0472399,6.0472399 0 0 1 0.008,0.01172 c 0.0321,0.05879 0.0578,0.121679 0.0879,0.181641 0.0571,0.113413 0.11602,0.226364 0.16602,0.34375 a 6.0472399,6.0472399 0 0 1 0.0723,0.193359 c 0.05,0.12964 0.10134,0.258774 0.14258,0.392578 a 6.0472399,6.0472399 0 0 1 0,0.002 c 0.003,0.0077 0.003,0.01576 0.006,0.02344 0.0545,0.179761 0.10093,0.362348 0.13867,0.548828 a 6.0472399,6.0472399 0 0 1 0.0371,0.236328 c 0.0197,0.122707 0.0442,0.244051 0.0566,0.369141 a 6.0472399,6.0472399 0 0 1 0,0.0059 c 0.0193,0.198537 0.0296,0.399726 0.0293,0.603516 a 6.0472399,6.0472399 0 0 1 -0.0156,0.371093 c -0.008,0.168087 -0.023,0.333817 -0.0449,0.498047 a 6.0472399,6.0472399 0 0 1 0,0.002 c -0.39398,2.954808 -2.91702,5.242188 -5.98633,5.242188 -3.36582,0 -6.08392,-2.747653 -6.04687,-6.113281 a 6.0472399,6.0472399 0 0 1 0.0195,-0.425782 c 0.008,-0.112266 0.0195,-0.223459 0.0332,-0.333984 a 6.0472399,6.0472399 0 0 1 0.0352,-0.244141 c 0.0197,-0.119066 0.0417,-0.236879 0.0684,-0.353515 a 6.0472399,6.0472399 0 0 1 0.0566,-0.222656 c 0.0311,-0.115387 0.0659,-0.229225 0.10352,-0.341797 a 6.0472399,6.0472399 0 0 1 0.0879,-0.248047 c 0.0397,-0.103654 0.0817,-0.205806 0.12695,-0.306641 A 6.0472399,6.0472399 0 0 1 248.99023,64.5 c 0.0529,-0.106227 0.10908,-0.209921 0.16797,-0.3125 a 6.0472399,6.0472399 0 0 1 0.125,-0.208984 c 0.0568,-0.09041 0.1164,-0.1785 0.17774,-0.265625 a 6.0472399,6.0472399 0 0 1 0.17773,-0.242188 c 0.0537,-0.06867 0.10948,-0.134917 0.16602,-0.201172 a 6.0472399,6.0472399 0 0 1 0.20703,-0.234375 c 0.0764,-0.08069 0.1576,-0.156019 0.23828,-0.232422 a 6.0472399,6.0472399 0 0 1 0.17383,-0.162109 c 0.0927,-0.08108 0.1896,-0.157023 0.28711,-0.232422 a 6.0472399,6.0472399 0 0 1 0.17968,-0.138672 c 0.11987,-0.08573 0.24485,-0.165199 0.3711,-0.242187 a 6.0472399,6.0472399 0 0 1 0.10742,-0.06836 c 0.16617,-0.09657 0.33786,-0.18489 0.51367,-0.265625 a 6.0472399,6.0472399 0 0 1 0.0117,-0.0059 c 0,0 0.002,0 0.002,0 0.12947,-0.05905 0.26229,-0.110147 0.39649,-0.160156 a 6.0472399,6.0472399 0 0 1 0.17773,-0.06836 c 0.18479,-0.06223 0.37402,-0.115745 0.56641,-0.160156 0.19375,-0.04472 0.3913,-0.08176 0.5918,-0.107422 0.19841,-0.02538 0.39944,-0.04114 0.60351,-0.04687 z m -6.00195,19.09375 a 2.2677199,2.2677199 0 0 1 2.33398,2.267578 2.2677199,2.2677199 0 0 1 -4.53515,0 2.2677199,2.2677199 0 0 1 2.20117,-2.267578 z M 15.619141,90.216797 a 2.2677199,2.2677199 0 0 1 2.333984,2.265625 2.2677199,2.2677199 0 0 1 -4.535156,0 2.2677199,2.2677199 0 0 1 2.201172,-2.265625 z m 232.611329,3.25 a 2.2677199,2.2677199 0 0 1 2.33398,2.267578 2.2677199,2.2677199 0 0 1 -4.53515,0 2.2677199,2.2677199 0 0 1 2.20117,-2.267578 z M 15.619141,103.44531 a 2.2677199,2.2677199 0 0 1 2.333984,2.26563 2.2677199,2.2677199 0 0 1 -4.535156,0 2.2677199,2.2677199 0 0 1 2.201172,-2.26563 z m 232.611329,3.25 a 2.2677199,2.2677199 0 0 1 2.33398,2.26563 2.2677199,2.2677199 0 0 1 -4.53515,0 2.2677199,2.2677199 0 0 1 2.20117,-2.26563 z m 3.20508,12.72657 a 1.92,1.92 0 0 1 1.97461,1.91796 1.92,1.92 0 1 1 -3.83985,0 1.92,1.92 0 0 1 1.86524,-1.91796 z m 0,9.5996 a 1.92,1.92 0 0 1 1.97461,1.91797 1.92,1.92 0 1 1 -3.83985,0 1.92,1.92 0 0 1 1.86524,-1.91797 z m 0,9.59961 a 1.92,1.92 0 0 1 1.97461,1.91993 1.92,1.92 0 1 1 -3.83985,0 1.92,1.92 0 0 1 1.86524,-1.91993 z m 0,9.59961 a 1.92,1.92 0 0 1 1.97461,1.91992 1.92,1.92 0 1 1 -3.83985,0 1.92,1.92 0 0 1 1.86524,-1.91992 z m 0,9.60157 a 1.92,1.92 0 0 1 1.97461,1.91796 1.92,1.92 0 1 1 -3.83985,0 1.92,1.92 0 0 1 1.86524,-1.91796 z m 2.79687,8.92187 a 6.0472399,6.0472399 0 0 1 0.61914,0.0156 c 0.12934,0.0107 0.2559,0.0293 0.38282,0.0469 a 6.0472399,6.0472399 0 0 1 0.20312,0.0254 c 0.003,3.5e-4 0.005,0 0.008,0 0.14832,0.0259 0.29305,0.0611 0.4375,0.0977 a 6.0472399,6.0472399 0 0 1 0.15821,0.0371 c 0.19092,0.0537 0.37769,0.116 0.56054,0.1875 0.1788,0.0699 0.35331,0.14836 0.52344,0.23437 a 6.0472399,6.0472399 0 0 1 0.0293,0.0137 c 10e-4,6.7e-4 0.003,0.002 0.004,0.004 0.13723,0.0704 0.26751,0.15011 0.39844,0.23047 a 6.0472399,6.0472399 0 0 1 0.12109,0.0684 c 0.003,0.003 0.005,0.003 0.008,0.006 0.16632,0.10786 0.32785,0.22445 0.48242,0.34765 0.0945,0.0753 0.18174,0.15757 0.27148,0.23829 0.0603,0.0541 0.12374,0.10374 0.18164,0.16015 a 6.0472399,6.0472399 0 0 1 0.24805,0.26758 c 0.0511,0.056 0.10733,0.10814 0.15625,0.16601 a 6.0472399,6.0472399 0 0 1 0.008,0.01 c 0.009,0.0107 0.0166,0.0225 0.0254,0.0332 0.12,0.14471 0.2335,0.29357 0.33985,0.44922 0.11333,0.1658 0.2178,0.33848 0.31445,0.51563 0.0941,0.17253 0.17854,0.34899 0.25586,0.53125 a 6.0472399,6.0472399 0 0 1 0.0625,0.16601 c 0.0527,0.13484 0.10548,0.27077 0.14844,0.41016 a 6.0472399,6.0472399 0 0 1 0.002,0.004 c 0.007,0.0192 0.0107,0.0394 0.0156,0.0586 0.0513,0.17299 0.0969,0.3482 0.13281,0.52734 0.0388,0.19372 0.0682,0.38983 0.0879,0.58985 a 6.0472399,6.0472399 0 0 1 0,0.008 c 0.0195,0.19921 0.0296,0.40097 0.0293,0.60547 a 6.0472399,6.0472399 0 0 1 -0.0156,0.37109 c -0.008,0.16808 -0.0231,0.33381 -0.0449,0.49805 a 6.0472399,6.0472399 0 0 1 0,0.002 c -0.394,2.9548 -2.91704,5.24219 -5.98633,5.24219 -3.36583,0 -6.08394,-2.74766 -6.04687,-6.11328 a 6.0472399,6.0472399 0 0 1 0.0195,-0.42578 c 0.008,-0.11227 0.0195,-0.22344 0.0332,-0.33399 a 6.0472399,6.0472399 0 0 1 0.0352,-0.24609 c 0.0195,-0.11653 0.0424,-0.23148 0.0684,-0.3457 a 6.0472399,6.0472399 0 0 1 0.0605,-0.24024 c 0.0301,-0.1112 0.0613,-0.22149 0.0977,-0.33008 a 6.0472399,6.0472399 0 0 1 0.084,-0.23437 c 0.0441,-0.11587 0.0917,-0.22945 0.14258,-0.3418 a 6.0472399,6.0472399 0 0 1 0.0918,-0.19336 c 0.0513,-0.10333 0.1052,-0.20477 0.16211,-0.30469 a 6.0472399,6.0472399 0 0 1 0.14258,-0.23828 c 0.0528,-0.0835 0.10732,-0.16541 0.16406,-0.24609 a 6.0472399,6.0472399 0 0 1 0.16992,-0.23438 c 0.0636,-0.0819 0.13161,-0.15985 0.19922,-0.23828 a 6.0472399,6.0472399 0 0 1 0.18359,-0.20898 c 0.0769,-0.0815 0.15892,-0.15735 0.24024,-0.23438 a 6.0472399,6.0472399 0 0 1 0.17383,-0.16211 c 0.0927,-0.0811 0.18958,-0.15699 0.2871,-0.23242 a 6.0472399,6.0472399 0 0 1 0.17969,-0.13867 c 0.098,-0.0701 0.2005,-0.13308 0.30274,-0.19726 a 6.0472399,6.0472399 0 0 1 0.1914,-0.1211 c 0.15423,-0.0889 0.31407,-0.17067 0.47657,-0.24609 a 6.0472399,6.0472399 0 0 1 0.0352,-0.0176 c 0.18176,-0.0829 0.36764,-0.1558 0.55859,-0.2207 0.18988,-0.0645 0.38408,-0.12026 0.58204,-0.16602 0.19378,-0.0447 0.39125,-0.0836 0.59179,-0.10937 0.1991,-0.0255 0.40067,-0.0412 0.60547,-0.0469 z M 62.232422,185.94336 a 6.0472399,6.0472399 0 0 1 6.214844,6.05469 6.0472399,6.0472399 0 1 1 -12.09375,0 6.0472399,6.0472399 0 0 1 5.878906,-6.05469 z m 48.111328,4.13476 a 1.92,1.92 0 0 1 1.97656,1.91993 1.92,1.92 0 1 1 -3.83984,0 1.92,1.92 0 0 1 1.86328,-1.91993 z m 9.59961,0 a 1.92,1.92 0 0 1 1.97656,1.91993 1.92,1.92 0 1 1 -3.83984,0 1.92,1.92 0 0 1 1.86328,-1.91993 z m 9.59961,0 a 1.92,1.92 0 0 1 1.97656,1.91993 1.92,1.92 0 1 1 -3.83984,0 1.92,1.92 0 0 1 1.86328,-1.91993 z m 9.60156,0 a 1.92,1.92 0 0 1 1.97461,1.91993 1.92,1.92 0 1 1 -3.83984,0 1.92,1.92 0 0 1 1.86523,-1.91993 z m 9.59961,0 a 1.92,1.92 0 0 1 1.97656,1.91993 1.92,1.92 0 1 1 -3.83984,0 1.92,1.92 0 0 1 1.86328,-1.91993 z m 9.59961,0 a 1.92,1.92 0 0 1 1.97656,1.91993 1.92,1.92 0 1 1 -3.83984,0 1.92,1.92 0 0 1 1.86328,-1.91993 z m 9.59961,0 a 1.92,1.92 0 0 1 1.97656,1.91993 1.92,1.92 0 1 1 -3.83984,0 1.92,1.92 0 0 1 1.86328,-1.91993 z m 9.59961,0 a 1.92,1.92 0 0 1 1.97656,1.91993 1.92,1.92 0 1 1 -3.83984,0 1.92,1.92 0 0 1 1.86328,-1.91993 z m 19.20117,0 a 1.92,1.92 0 0 1 1.97656,1.91993 1.92,1.92 0 1 1 -3.83984,0 1.92,1.92 0 0 1 1.86328,-1.91993 z m 9.59961,0 a 1.92,1.92 0 0 1 1.97656,1.91993 1.92,1.92 0 1 1 -3.83984,0 1.92,1.92 0 0 1 1.86328,-1.91993 z m 9.59961,0 a 1.92,1.92 0 0 1 1.97656,1.91993 1.92,1.92 0 1 1 -3.83984,0 1.92,1.92 0 0 1 1.86328,-1.91993 z m 9.59961,0 a 1.92,1.92 0 0 1 1.97656,1.91993 1.92,1.92 0 1 1 -3.83984,0 1.92,1.92 0 0 1 1.86328,-1.91993 z m 9.60156,0 a 1.92,1.92 0 0 1 1.97461,1.91993 1.92,1.92 0 1 1 -3.83984,0 1.92,1.92 0 0 1 1.86523,-1.91993 z m 9.59961,0 a 1.92,1.92 0 0 1 1.97656,1.91993 1.92,1.92 0 1 1 -3.83984,0 1.92,1.92 0 0 1 1.86328,-1.91993 z"
       transform="scale(0.75000002)"
       id="path4"
       inkscape:connector-curvature="0" />
    <g
       id="g34"
       style="fill:none">
      <title
         id="title6">element:C4</title>
      <g
         id="g32"
         style="fill:none">
        <title
           id="title8">package:CAPAE1030X1050N</title>
      </g>
    </g>
    <g
       id="g50"
       style="fill:none">
      <title
         id="title36">element:IC0</title>
      <g
         id="g48"
         style="fill:none">
        <title
           id="title38">package:HW-INFINEON_TO-252-3-313-L</title>
      </g>
    </g>
    <g
       id="g58"
       style="fill:none">
      <title
         id="title52">element:IC1</title>
      <g
         id="g56"
         style="fill:none">
        <title
           id="title54">package:HW-INFINEON_TO263-7-1</title>
      </g>
    </g>
    <g
       id="g66"
       style="fill:none">
      <title
         id="title60">element:IC2</title>
      <g
         id="g64"
         style="fill:none">
        <title
           id="title62">package:HW-INFINEON_TO263-7-1</title>
      </g>
    </g>
    <g
       id="g74"
       style="fill:none">
      <title
         id="title68">element:IC3</title>
      <g
         id="g72"
         style="fill:none">
        <title
           id="title70">package:HW-INFINEON_TO263-7-1</title>
      </g>
    </g>
    <g
       id="g116"
       style="fill:none">
      <title
         id="title76">element:J1</title>
      <g
         id="g114"
         style="fill:none">
        <title
           id="title78">package:10X05MTA</title>
        <line
           y2="87.406601"
           x1="185.01801"
           y1="87.406601"
           x2="192.218"
           id="line80"
           style="stroke:#ffffff;stroke-width:0.43200001;stroke-linecap:round;fill:none" />
        <line
           y2="87.406601"
           x1="192.218"
           y1="123.407"
           x2="192.218"
           id="line82"
           style="stroke:#ffffff;stroke-width:0.43200001;stroke-linecap:round;fill:none" />
        <line
           y2="123.407"
           x1="192.218"
           y1="123.407"
           x2="185.01801"
           id="line84"
           style="stroke:#ffffff;stroke-width:0.43200001;stroke-linecap:round;fill:none" />
        <line
           y2="123.407"
           x1="185.01801"
           y1="87.406601"
           x2="185.01801"
           id="line86"
           style="stroke:#ffffff;stroke-width:0.43200001;stroke-linecap:round;fill:none" />
        <line
           y2="87.406601"
           x1="192.218"
           y1="87.406601"
           x2="194.01801"
           id="line88"
           style="stroke:#ffffff;stroke-width:0.43200001;stroke-linecap:round;fill:none" />
        <line
           y2="87.406601"
           x1="194.01801"
           y1="123.407"
           x2="194.01801"
           id="line90"
           style="stroke:#ffffff;stroke-width:0.43200001;stroke-linecap:round;fill:none" />
        <line
           y2="123.407"
           x1="194.01801"
           y1="123.407"
           x2="192.218"
           id="line92"
           style="stroke:#ffffff;stroke-width:0.43200001;stroke-linecap:round;fill:none" />
        <g
           transform="rotate(90,41.6055,147.0125)"
           id="g96"
           style="fill:none">
          <rect
             y="-0.72000003"
             height="1.4400001"
             width="1.4400001"
             x="-0.72000003"
             id="rect94"
             style="fill:none;stroke:none;stroke-width:0" />
        </g>
        <g
           transform="rotate(90,45.2057,143.4123)"
           id="g100"
           style="fill:none">
          <rect
             y="-0.72000003"
             height="1.4400001"
             width="1.4400001"
             x="-0.72000003"
             id="rect98"
             style="fill:none;stroke:none;stroke-width:0" />
        </g>
        <g
           transform="rotate(90,48.8057,139.8123)"
           id="g104"
           style="fill:none">
          <rect
             y="-0.72000003"
             height="1.4400001"
             width="1.4400001"
             x="-0.72000003"
             id="rect102"
             style="fill:none;stroke:none;stroke-width:0" />
        </g>
        <g
           transform="rotate(90,38.0055,150.6125)"
           id="g108"
           style="fill:none">
          <rect
             y="-0.72000003"
             height="1.4400001"
             width="1.4400001"
             x="-0.72000003"
             id="rect106"
             style="fill:none;stroke:none;stroke-width:0" />
        </g>
        <g
           transform="rotate(90,34.4055,154.2125)"
           id="g112"
           style="fill:none">
          <rect
             y="-0.72000003"
             height="1.4400001"
             width="1.4400001"
             x="-0.72000003"
             id="rect110"
             style="fill:none;stroke:none;stroke-width:0" />
        </g>
      </g>
    </g>
    <g
       id="g132"
       style="fill:none">
      <title
         id="title118">element:J2</title>
      <g
         id="g130"
         style="fill:none">
        <title
           id="title120">package:METZ-3.5MM-1X3</title>
        <line
           y2="56.919701"
           x1="178.285"
           y1="56.919701"
           x2="196.71001"
           id="line122"
           style="stroke:#ffffff;stroke-width:0.36000001;stroke-linecap:round;fill:none" />
        <line
           y2="86.683701"
           x1="196.71001"
           y1="56.919701"
           x2="196.71001"
           id="line124"
           style="stroke:#ffffff;stroke-width:0.36000001;stroke-linecap:round;fill:none" />
        <line
           y2="86.683701"
           x1="196.71001"
           y1="86.683701"
           x2="178.285"
           id="line126"
           style="stroke:#ffffff;stroke-width:0.36000001;stroke-linecap:round;fill:none" />
        <line
           y2="56.919701"
           x1="178.285"
           y1="86.683701"
           x2="178.285"
           id="line128"
           style="stroke:#ffffff;stroke-width:0.36000001;stroke-linecap:round;fill:none" />
      </g>
    </g>
    <g
       id="g148"
       style="fill:none">
      <title
         id="title134">element:J3</title>
      <g
         id="g146"
         style="fill:none">
        <title
           id="title136">package:METZ-3.5MM-1X2</title>
        <line
           y2="84.245796"
           x1="19.7008"
           y1="84.245796"
           x2="1.2755899"
           id="line138"
           style="stroke:#ffffff;stroke-width:0.36000001;stroke-linecap:round;fill:none" />
        <line
           y2="64.403099"
           x1="1.2755899"
           y1="84.245796"
           x2="1.2755899"
           id="line140"
           style="stroke:#ffffff;stroke-width:0.36000001;stroke-linecap:round;fill:none" />
        <line
           y2="64.403099"
           x1="1.2755899"
           y1="64.403099"
           x2="19.7008"
           id="line142"
           style="stroke:#ffffff;stroke-width:0.36000001;stroke-linecap:round;fill:none" />
        <line
           y2="84.245796"
           x1="19.7008"
           y1="64.403099"
           x2="19.7008"
           id="line144"
           style="stroke:#ffffff;stroke-width:0.36000001;stroke-linecap:round;fill:none" />
      </g>
    </g>
    <g
       id="g156"
       style="fill:none">
      <title
         id="title150">element:SHAPE1</title>
      <g
         id="g154"
         style="fill:none">
        <title
           id="title152">package:XMC1100_FOR_ARDUINO</title>
      </g>
    </g>
    <g
       id="g232"
       style="fill:none">
      <title
         id="title158">element:U$1</title>
      <g
         id="g230"
         style="fill:none">
        <title
           id="title160">package:INFINEON3</title>
        <circle
           cx="8.64569"
           cy="135.022"
           r="0.89489502"
           id="circle162"
           style="fill:none;stroke:#ffffff;stroke-width:0" />
        <circle
           cx="16.440901"
           cy="136.21201"
           r="0.56692898"
           id="circle164"
           style="fill:none;stroke:#ffffff;stroke-width:0" />
        <g
           id="g170"
           style="fill:none">
          <title
             id="title166">polygon</title>
        </g>
        <g
           id="g176"
           style="fill:none">
          <title
             id="title172">polygon</title>
        </g>
        <g
           id="g182"
           style="fill:none">
          <title
             id="title178">polygon</title>
        </g>
        <g
           id="g188"
           style="fill:none">
          <title
             id="title184">polygon</title>
        </g>
        <g
           id="g194"
           style="fill:none">
          <title
             id="title190">polygon</title>
        </g>
        <g
           id="g200"
           style="fill:none">
          <title
             id="title196">polygon</title>
        </g>
        <g
           id="g206"
           style="fill:none">
          <title
             id="title202">polygon</title>
        </g>
        <g
           id="g212"
           style="fill:none">
          <title
             id="title208">polygon</title>
        </g>
        <g
           id="g218"
           style="fill:none">
          <title
             id="title214">polygon</title>
        </g>
        <g
           id="g224"
           style="fill:none">
          <title
             id="title220">polygon</title>
        </g>
        <rect
           y="136.595"
           height="0.028346401"
           width="0.028346499"
           x="7.10078"
           id="rect226"
           style="fill:none;stroke:none;stroke-width:0" />
        <rect
           y="136.595"
           height="0.028346401"
           width="0.028346499"
           x="7.10078"
           id="rect228"
           style="fill:none;stroke:none;stroke-width:0" />
      </g>
    </g>
    <g
       id="g7131"
       transform="matrix(-0.69868467,0,0,-0.71335575,330.62032,161.25682)"
       style="fill:none;fill-opacity:1;stroke:#fffffe;stroke-width:0.53117496;stroke-miterlimit:4;stroke-dasharray:none;stroke-opacity:1">
      <path
         style="fill:none;fill-opacity:1;stroke:#fffffe;stroke-width:0.54819274;stroke-miterlimit:4;stroke-dasharray:none;stroke-opacity:1"
         d="M 214.82112,83.235313 V 61.782772 m -20.14252,0 v 21.452541"
         id="path5585-0"
         gorn="0.303.0.0.0.0.0.0.0.0.0.0.0.0.0.0.0.0.0.0.0.0.0.0.0.0"
         inkscape:connector-curvature="0"
         sodipodi:nodetypes="cccc" />
      <circle
         style="fill:none;fill-opacity:1;stroke:#fffffe;stroke-width:0.53117496;stroke-miterlimit:4;stroke-dasharray:none;stroke-opacity:1"
         cy="203.22658"
         id="circle5587-0"
         gorn="0.303.0.0.0.0.0.0.0.0.0.0.0.0.0.0.0.0.0.0.0.0.0.0.0.1"
         r="3.7406235"
         cx="-78.262497"
         transform="rotate(-90)" />
      <circle
         style="fill:none;fill-opacity:1;stroke:#fffffe;stroke-width:0.53117496;stroke-miterlimit:4;stroke-dasharray:none;stroke-opacity:1"
         cy="203.22668"
         id="circle5589-0"
         gorn="0.303.0.0.0.0.0.0.0.0.0.0.0.0.0.0.0.0.0.0.0.0.0.0.0.2"
         r="3.7406235"
         cx="-68.191368"
         transform="rotate(-90)" />
      <path
         style="fill:none;fill-opacity:1;stroke:#fffffe;stroke-width:0.56118375;stroke-miterlimit:4;stroke-dasharray:none;stroke-opacity:1"
         d="m 214.82138,84.264122 v -4.014943 m 0,-3.211621 v -8.028223 m 0,-3.213281 v -4.013283 m -5.75465,0 v 22.481351"
         id="path5593-17"
         gorn="0.303.0.0.0.0.0.0.0.0.0.0.0.0.0.0.0.0.0.0.0.0.0.0.0.4.0.0.0.0.0"
         inkscape:connector-curvature="0"
         sodipodi:nodetypes="cccccccc" />
      <path
         style="fill:none;fill-opacity:1;stroke:#fffffe;stroke-width:0.55691737;stroke-miterlimit:4;stroke-dasharray:none;stroke-opacity:1"
         d="m 194.6786,81.300215 v 22.140825 h 14.87389 2.47898 2.78965 V 81.300215"
         id="path5605"
         gorn="0.303.0.0.0.0.0.0.0.0.0.0.0.0.0.0.0.0.0.1.0.0.0.0.0.0"
         inkscape:connector-curvature="0"
         sodipodi:nodetypes="cccccc" />
      <circle
         style="fill:none;fill-opacity:1;stroke:#fffffe;stroke-width:0.53117496;stroke-miterlimit:4;stroke-dasharray:none;stroke-opacity:1"
         cy="203.22658"
         id="circle5607"
         gorn="0.303.0.0.0.0.0.0.0.0.0.0.0.0.0.0.0.0.0.1.0.0.0.0.0.1"
         r="3.7406235"
         cx="-98.405334"
         transform="rotate(-90)" />
      <circle
         style="fill:none;fill-opacity:1;stroke:#fffffe;stroke-width:0.53117496;stroke-miterlimit:4;stroke-dasharray:none;stroke-opacity:1"
         cy="203.22668"
         id="circle5609"
         gorn="0.303.0.0.0.0.0.0.0.0.0.0.0.0.0.0.0.0.0.1.0.0.0.0.0.2"
         r="3.7406235"
         cx="-88.334206"
         transform="rotate(-90)" />
      <path
         inkscape:connector-curvature="0"
         style="fill:none;fill-opacity:1;stroke:#fffffe;stroke-width:0.53117496;stroke-miterlimit:4;stroke-dasharray:none;stroke-opacity:1"
         d="m 209.06673,83.29974 v 20.1413 h 5.75465 v -3.597036 m 0,-2.877329 V 89.7741 m 0,-2.878815 V 83.29974"
         id="path5613"
         gorn="0.303.0.0.0.0.0.0.0.0.0.0.0.0.0.0.0.0.0.1.0.0.0.0.0.4.0.0.0.0.0"
         sodipodi:nodetypes="cccccccc" />
      <path
         style="fill:none;fill-opacity:1;stroke:#fffffe;stroke-width:0.53117496;stroke-miterlimit:4;stroke-dasharray:none;stroke-opacity:1"
         d="M 214.82141,63.155358 V 53.083954 H 194.6786 v 10.071404"
         id="rect3-4-0"
         gorn="0.303.0.0.0.0.0.1.0.0.0.0.0.0.0.0.0.0.0"
         inkscape:connector-curvature="0"
         sodipodi:nodetypes="cccc" />
      <circle
         style="fill:none;fill-opacity:1;stroke:#fffffe;stroke-width:0.53117496;stroke-miterlimit:4;stroke-dasharray:none;stroke-opacity:1"
         cy="203.22658"
         id="circle11-4-8-8"
         gorn="0.303.0.0.0.0.0.1.0.0.0.0.0.1"
         r="3.740628"
         cx="-58.119656"
         transform="rotate(-90)" />
      <path
         style="fill:none;fill-opacity:1;stroke:#fffffe;stroke-width:0.53117496;stroke-miterlimit:4;stroke-dasharray:none;stroke-opacity:1"
         d="M 209.06675,53.083954 V 63.155358"
         id="polygon17-5-7"
         gorn="0.303.0.0.0.0.0.1.0.0.0.0.0.3.0.0.0.0.0"
         inkscape:connector-curvature="0"
         sodipodi:nodetypes="cc" />
    </g>
    <g
       id="g6901"
       transform="rotate(180,-4.3205112,73.456214)"
       style="fill:none;fill-opacity:1;stroke:#fdfffe;stroke-width:0.375;stroke-miterlimit:4;stroke-dasharray:none;stroke-opacity:1">
      <path
         gorn="0.303.0.0.0.0.0.0.0.0.0.0.0.0.0.0.0.0.0.0.0.0.0.0.0.0"
         id="path5585-2"
         d="m -12.531044,62.657182 h -13.605421 -2.267573 -2.551748 v 19.841156 h 1.133784 v 0.0016 h 5.102035 v -0.0016 h 12.188923 z"
         style="fill:none;fill-opacity:1;stroke:#fdfffe;stroke-width:0.375;stroke-miterlimit:4;stroke-dasharray:none;stroke-opacity:1"
         inkscape:connector-curvature="0" />
      <ellipse
         transform="rotate(90)"
         cx="67.617836"
         gorn="0.303.0.0.0.0.0.0.0.0.0.0.0.0.0.0.0.0.0.0.0.0.0.0.0.1"
         id="circle5587-9"
         cy="20.350029"
         style="fill:none;fill-opacity:1;stroke:#fdfffe;stroke-width:0.375;stroke-miterlimit:4;stroke-dasharray:none;stroke-opacity:1"
         rx="3.6848814"
         ry="3.4216182" />
      <ellipse
         transform="rotate(90)"
         cx="77.538895"
         gorn="0.303.0.0.0.0.0.0.0.0.0.0.0.0.0.0.0.0.0.0.0.0.0.0.0.2"
         id="circle5589-8"
         cy="20.350126"
         style="fill:none;fill-opacity:1;stroke:#fdfffe;stroke-width:0.375;stroke-miterlimit:4;stroke-dasharray:none;stroke-opacity:1"
         rx="3.6848814"
         ry="3.4216182" />
      <rect
         transform="rotate(90)"
         width="19.842361"
         y="13.92387"
         height="1.316053"
         gorn="0.303.0.0.0.0.0.0.0.0.0.0.0.0.0.0.0.0.0.0.0.0.0.0.0.3"
         x="62.657322"
         id="rect5591-7"
         style="fill:none;fill-opacity:1;stroke:#fdfffe;stroke-width:0.375;stroke-miterlimit:4;stroke-dasharray:none;stroke-opacity:1" />
      <path
         gorn="0.303.0.0.0.0.0.0.0.0.0.0.0.0.0.0.0.0.0.0.0.0.0.0.0.4.0.0.0.0.0"
         id="path5593-1"
         d="m -30.956024,78.956374 v 3.541965 h 5.263891 V 62.657182 h -5.263891 v 3.543432 m 0,2.834451 v 7.085394"
         style="fill:none;fill-opacity:1;stroke:#fdfffe;stroke-width:0.375;stroke-miterlimit:4;stroke-dasharray:none;stroke-opacity:1"
         inkscape:connector-curvature="0"
         sodipodi:nodetypes="cccccccc" />
    </g>
    <g
       id="g6851"
       transform="matrix(-0.9147187,0,0,-0.98509817,130.29548,158.19209)"
       style="fill:none;fill-opacity:1;stroke:#fffffe;stroke-width:0.39504606;stroke-miterlimit:4;stroke-dasharray:none;stroke-opacity:1">
      <path
         inkscape:connector-curvature="0"
         style="fill:none;fill-opacity:1;stroke:#fffffe;stroke-width:0.40226805;stroke-miterlimit:4;stroke-dasharray:none;stroke-opacity:1"
         d="m -69.696405,82.047667 v 20.884453 h 14.873886 2.478984 2.789653 V 82.047667"
         id="path5585"
         gorn="0.303.0.0.0.0.0.0.0.0.0.0.0.0.0.0.0.0.0.0.0.0.0.0.0.0"
         sodipodi:nodetypes="cccccc" />
      <circle
         style="fill:none;fill-opacity:1;stroke:#fffffe;stroke-width:0.39504606;stroke-miterlimit:4;stroke-dasharray:none;stroke-opacity:1"
         cy="-61.148438"
         id="circle5587"
         gorn="0.303.0.0.0.0.0.0.0.0.0.0.0.0.0.0.0.0.0.0.0.0.0.0.0.1"
         r="3.7406235"
         cx="-97.896423"
         transform="rotate(-90)" />
      <circle
         style="fill:none;fill-opacity:1;stroke:#fffffe;stroke-width:0.39504606;stroke-miterlimit:4;stroke-dasharray:none;stroke-opacity:1"
         cy="-61.148331"
         id="circle5589"
         gorn="0.303.0.0.0.0.0.0.0.0.0.0.0.0.0.0.0.0.0.0.0.0.0.0.0.2"
         r="3.7406235"
         cx="-87.825287"
         transform="rotate(-90)" />
      <rect
         style="fill:none;fill-opacity:1;stroke:#fffffe;stroke-width:0.47030231;stroke-miterlimit:4;stroke-dasharray:none;stroke-opacity:1"
         id="rect5591"
         x="-102.89213"
         gorn="0.303.0.0.0.0.0.0.0.0.0.0.0.0.0.0.0.0.0.0.0.0.0.0.0.3"
         height="1.3598357"
         y="-68.134262"
         width="30.204527"
         transform="rotate(-90)" />
      <path
         inkscape:connector-curvature="0"
         style="fill:none;fill-opacity:1;stroke:#fffffe;stroke-width:0.40185156;stroke-miterlimit:4;stroke-dasharray:none;stroke-opacity:1"
         d="m -55.308277,82.090891 v 20.841229 h 5.754655 v -3.722036 m 0,-2.977318 v -7.442525 m 0,-2.978856 v -3.720494"
         id="path5593"
         gorn="0.303.0.0.0.0.0.0.0.0.0.0.0.0.0.0.0.0.0.0.0.0.0.0.0.4.0.0.0.0.0"
         sodipodi:nodetypes="cccccccc" />
      <path
         inkscape:connector-curvature="0"
         style="fill:none;fill-opacity:1;stroke:#fffffe;stroke-width:0.39504606;stroke-miterlimit:4;stroke-dasharray:none;stroke-opacity:1"
         d="M -49.553598,82.789278 V 72.717874 h -20.142807 v 10.071404"
         id="rect3-4-4"
         gorn="0.303.0.0.0.0.0.1.0.0.0.0.0.0.0.0.0.0.0"
         sodipodi:nodetypes="cccc" />
      <circle
         style="fill:none;fill-opacity:1;stroke:#fffffe;stroke-width:0.39504606;stroke-miterlimit:4;stroke-dasharray:none;stroke-opacity:1"
         cy="-61.148426"
         id="circle11-4-8"
         gorn="0.303.0.0.0.0.0.1.0.0.0.0.0.1"
         r="3.740628"
         cx="-77.753578"
         transform="rotate(-90)" />
      <path
         inkscape:connector-curvature="0"
         style="fill:none;fill-opacity:1;stroke:#fffffe;stroke-width:0.39504606;stroke-miterlimit:4;stroke-dasharray:none;stroke-opacity:1"
         d="m -49.553598,82.789278 v -3.597037 m 0,-2.877331 v -3.597036 h -5.754663 v 10.071404"
         id="polygon17-5"
         gorn="0.303.0.0.0.0.0.1.0.0.0.0.0.3.0.0.0.0.0"
         sodipodi:nodetypes="cccccc" />
    </g>
  </g>
  <g
     id="copper1">
    <g
       id="copper0">
      <circle
         cx="126"
         id="connector166pad"
         connectorname="GND"
         cy="144"
         r="2.052"
         style="fill:none;stroke:#f7bd13;stroke-width:1.22399998" />
      <circle
         cx="176.39999"
         id="connector150pad"
         connectorname="IS"
         cy="144"
         r="2.052"
         style="fill:none;stroke:#f7bd13;stroke-width:1.22399998" />
      <circle
         cx="104.4"
         id="connector142pad"
         connectorname="VDD_3V3"
         cy="144"
         r="2.052"
         style="fill:none;stroke:#f7bd13;stroke-width:1.22399998" />
      <circle
         cx="133.2"
         id="connector158pad"
         connectorname="D7"
         cy="7.1999998"
         r="2.052"
         style="fill:none;stroke:#f7bd13;stroke-width:1.22399998" />
      <circle
         cx="147.60001"
         id="connector146pad"
         connectorname="ADC_VDD_2"
         cy="144"
         r="2.052"
         style="fill:none;stroke:#f7bd13;stroke-width:1.22399998" />
      <circle
         cx="162"
         id="connector154pad"
         connectorname="INHW"
         cy="7.1999998"
         r="2.052"
         style="fill:none;stroke:#f7bd13;stroke-width:1.22399998" />
      <circle
         cx="100.08"
         id="connector162pad"
         connectorname="INU"
         cy="7.1999998"
         r="2.052"
         style="fill:none;stroke:#f7bd13;stroke-width:1.22399998" />
      <circle
         cx="183.60001"
         id="connector170pad"
         connectorname="RX"
         cy="7.1999998"
         r="2.052"
         style="fill:none;stroke:#f7bd13;stroke-width:1.22399998" />
      <circle
         cx="64.080002"
         id="connector144pad"
         connectorname="14"
         cy="7.1999998"
         r="2.052"
         style="fill:none;stroke:#f7bd13;stroke-width:1.22399998" />
      <circle
         cx="162"
         id="connector148pad"
         connectorname="ADC_V"
         cy="144"
         r="2.052"
         style="fill:none;stroke:#f7bd13;stroke-width:1.22399998" />
      <circle
         cx="71.279999"
         id="connector152pad"
         connectorname="AREF"
         cy="7.1999998"
         r="2.052"
         style="fill:none;stroke:#f7bd13;stroke-width:1.22399998" />
      <circle
         cx="147.60001"
         id="connector156pad"
         connectorname="INHV"
         cy="7.1999998"
         r="2.052"
         style="fill:none;stroke:#f7bd13;stroke-width:1.22399998" />
      <circle
         cx="114.48"
         id="connector160pad"
         connectorname="INW"
         cy="7.1999998"
         r="2.052"
         style="fill:none;stroke:#f7bd13;stroke-width:1.22399998" />
      <circle
         cx="85.68"
         id="connector164pad"
         connectorname="D13"
         cy="7.1999998"
         r="2.052"
         style="fill:none;stroke:#f7bd13;stroke-width:1.22399998" />
      <circle
         cx="90"
         id="connector168pad"
         connectorname="IOREF"
         cy="144"
         r="2.052"
         style="fill:none;stroke:#f7bd13;stroke-width:1.22399998" />
      <circle
         cx="176.39999"
         id="connector172pad"
         connectorname="TX"
         cy="7.1999998"
         r="2.052"
         style="fill:none;stroke:#f7bd13;stroke-width:1.22399998" />
      <circle
         cx="111.6"
         id="connector143pad"
         connectorname="VDD_5V"
         cy="144"
         r="2.052"
         style="fill:none;stroke:#f7bd13;stroke-width:1.22399998" />
      <circle
         cx="56.880001"
         id="connector145pad"
         connectorname="15"
         cy="7.1999998"
         r="2.052"
         style="fill:none;stroke:#f7bd13;stroke-width:1.22399998" />
      <circle
         cx="154.8"
         id="connector147pad"
         connectorname="ADC_W"
         cy="144"
         r="2.052"
         style="fill:none;stroke:#f7bd13;stroke-width:1.22399998" />
      <circle
         cx="169.2"
         id="connector149pad"
         connectorname="ADC_U"
         cy="144"
         r="2.052"
         style="fill:none;stroke:#f7bd13;stroke-width:1.22399998" />
      <circle
         cx="183.60001"
         id="connector151pad"
         connectorname="V_IS_RC"
         cy="144"
         r="2.052"
         style="fill:none;stroke:#f7bd13;stroke-width:1.22399998" />
      <circle
         cx="169.2"
         id="connector153pad"
         connectorname="D2"
         cy="7.1999998"
         r="2.052"
         style="fill:none;stroke:#f7bd13;stroke-width:1.22399998" />
      <circle
         cx="154.8"
         id="connector155pad"
         connectorname="D4"
         cy="7.1999998"
         r="2.052"
         style="fill:none;stroke:#f7bd13;stroke-width:1.22399998" />
      <circle
         cx="188.618"
         id="connector80pad"
         connectorname="VDD_5V"
         cy="119.807"
         r="1.72346"
         style="fill:none;stroke:#f7bd13;stroke-width:0.56692898" />
      <circle
         cx="140.39999"
         id="connector157pad"
         connectorname="INHU"
         cy="7.1999998"
         r="2.052"
         style="fill:none;stroke:#f7bd13;stroke-width:1.22399998" />
      <circle
         cx="188.618"
         id="connector81pad"
         connectorname="2"
         cy="112.607"
         r="1.72346"
         style="fill:none;stroke:#f7bd13;stroke-width:0.56692898" />
      <circle
         cx="121.68"
         id="connector159pad"
         connectorname="D8"
         cy="7.1999998"
         r="2.052"
         style="fill:none;stroke:#f7bd13;stroke-width:1.22399998" />
      <circle
         cx="188.618"
         id="connector82pad"
         connectorname="N$13"
         cy="105.407"
         r="1.72346"
         style="fill:none;stroke:#f7bd13;stroke-width:0.56692898" />
      <circle
         cx="107.28"
         id="connector161pad"
         connectorname="INV"
         cy="7.1999998"
         r="2.052"
         style="fill:none;stroke:#f7bd13;stroke-width:1.22399998" />
      <circle
         cx="92.879997"
         id="connector163pad"
         connectorname="D12"
         cy="7.1999998"
         r="2.052"
         style="fill:none;stroke:#f7bd13;stroke-width:1.22399998" />
      <circle
         cx="118.8"
         id="connector165pad"
         connectorname="GND"
         cy="144"
         r="2.052"
         style="fill:none;stroke:#f7bd13;stroke-width:1.22399998" />
      <circle
         cx="186.222"
         id="connector85pad"
         connectorname="U"
         cy="61.880299"
         r="1.98426"
         style="fill:none;stroke:#f7bd13;stroke-width:0.56692898" />
      <circle
         cx="78.480003"
         id="connector167pad"
         connectorname="GND"
         cy="7.1999998"
         r="2.052"
         style="fill:none;stroke:#f7bd13;stroke-width:1.22399998" />
      <circle
         cx="186.222"
         id="connector86pad"
         connectorname="V"
         cy="71.801598"
         r="1.98426"
         style="fill:none;stroke:#f7bd13;stroke-width:0.56692898" />
      <circle
         cx="97.199997"
         id="connector169pad"
         connectorname="RES"
         cy="144"
         r="2.052"
         style="fill:none;stroke:#f7bd13;stroke-width:1.22399998" />
      <circle
         cx="186.222"
         id="connector87pad"
         connectorname="W"
         cy="81.7229"
         r="1.98426"
         style="fill:none;stroke:#f7bd13;stroke-width:0.56692898" />
      <circle
         cx="82.800003"
         id="connector171pad"
         connectorname="SPARE"
         cy="144"
         r="2.052"
         style="fill:none;stroke:#f7bd13;stroke-width:1.22399998" />
      <circle
         cx="11.7638"
         id="connector88pad"
         connectorname="GND"
         cy="79.285004"
         r="1.98426"
         style="fill:none;stroke:#f7bd13;stroke-width:0.56692898" />
      <circle
         cx="133.2"
         id="connector173pad"
         connectorname="VIN"
         cy="144"
         r="2.052"
         style="fill:none;stroke:#f7bd13;stroke-width:1.22399998" />
      <circle
         cx="11.7638"
         id="connector89pad"
         connectorname="VBAT"
         cy="69.3638"
         r="1.98426"
         style="fill:none;stroke:#f7bd13;stroke-width:0.56692898" />
      <circle
         cx="188.618"
         id="connector83pad"
         connectorname="4"
         cy="98.206596"
         r="1.72346"
         style="fill:none;stroke:#f7bd13;stroke-width:0.56692898" />
      <circle
         cx="188.618"
         id="connector84pad"
         connectorname="GND"
         cy="91.006599"
         r="1.72346"
         style="fill:none;stroke:#f7bd13;stroke-width:0.56692898" />
    </g>
  </g>
</svg>
