<?xml version='1.0' encoding='UTF-8' standalone='no'?>
<!-- Created with Fritzing (http://www.fritzing.org/) -->
<svg xmlns="http://www.w3.org/2000/svg"  width="0.85in" x="0in" version="1.2" y="0in" height="0.925in" viewBox="0 0 61.2 66.6" baseProfile="tiny">
 <desc >Fritzing footprint generated by brd2svg</desc>
 <g  id="silkscreen">
  <path  fill="none" stroke="white" stroke-width="0.576" d="M0.288,66.312L60.912,66.312L60.912,0.288L0.288,0.288L0.288,66.312"/>
  <g >
   <title >element:BLE112</title>
   <g >
    <title >package:BLE112-A</title>
    <line  stroke="white" stroke-linecap="round" y1="52.6535" x1="13.4504" y2="1.34646" stroke-width="0.36" x2="13.4504"/>
    <line  stroke="white" stroke-linecap="round" y1="1.34646" x1="13.4504" y2="1.34646" stroke-width="0.36" x2="47.6078"/>
    <line  stroke="white" stroke-linecap="round" y1="1.34646" x1="47.6078" y2="52.6535" stroke-width="0.36" x2="47.6078"/>
    <line  stroke="white" stroke-linecap="round" y1="52.6535" x1="47.6078" y2="52.6535" stroke-width="0.36" x2="13.4504"/>
   </g>
  </g>
  <g >
   <title >element:IC1</title>
   <g >
    <title >package:SO-8</title>
   </g>
  </g>
  <g >
   <title >element:JP1</title>
   <g >
    <title >package:1X09</title>
    <line  stroke="white" stroke-linecap="round" y1="20.7" x1="1.8" y2="17.1" stroke-width="0.576" x2="1.8"/>
    <line  stroke="white" stroke-linecap="round" y1="17.1" x1="1.8" y2="15.3" stroke-width="0.576" x2="3.6"/>
    <line  stroke="white" stroke-linecap="round" y1="15.3" x1="7.2" y2="17.1" stroke-width="0.576" x2="9"/>
    <line  stroke="white" stroke-linecap="round" y1="29.7" x1="3.6" y2="27.9" stroke-width="0.576" x2="1.8"/>
    <line  stroke="white" stroke-linecap="round" y1="27.9" x1="1.8" y2="24.3" stroke-width="0.576" x2="1.8"/>
    <line  stroke="white" stroke-linecap="round" y1="24.3" x1="1.8" y2="22.5" stroke-width="0.576" x2="3.6"/>
    <line  stroke="white" stroke-linecap="round" y1="22.5" x1="7.2" y2="24.3" stroke-width="0.576" x2="9"/>
    <line  stroke="white" stroke-linecap="round" y1="24.3" x1="9" y2="27.9" stroke-width="0.576" x2="9"/>
    <line  stroke="white" stroke-linecap="round" y1="27.9" x1="9" y2="29.7" stroke-width="0.576" x2="7.2"/>
    <line  stroke="white" stroke-linecap="round" y1="20.7" x1="1.8" y2="22.5" stroke-width="0.576" x2="3.6"/>
    <line  stroke="white" stroke-linecap="round" y1="22.5" x1="7.2" y2="20.7" stroke-width="0.576" x2="9"/>
    <line  stroke="white" stroke-linecap="round" y1="17.1" x1="9" y2="20.7" stroke-width="0.576" x2="9"/>
    <line  stroke="white" stroke-linecap="round" y1="42.3" x1="1.8" y2="38.7" stroke-width="0.576" x2="1.8"/>
    <line  stroke="white" stroke-linecap="round" y1="38.7" x1="1.8" y2="36.9" stroke-width="0.576" x2="3.6"/>
    <line  stroke="white" stroke-linecap="round" y1="36.9" x1="7.2" y2="38.7" stroke-width="0.576" x2="9"/>
    <line  stroke="white" stroke-linecap="round" y1="36.9" x1="3.6" y2="35.1" stroke-width="0.576" x2="1.8"/>
    <line  stroke="white" stroke-linecap="round" y1="35.1" x1="1.8" y2="31.5" stroke-width="0.576" x2="1.8"/>
    <line  stroke="white" stroke-linecap="round" y1="31.5" x1="1.8" y2="29.7" stroke-width="0.576" x2="3.6"/>
    <line  stroke="white" stroke-linecap="round" y1="29.7" x1="7.2" y2="31.5" stroke-width="0.576" x2="9"/>
    <line  stroke="white" stroke-linecap="round" y1="31.5" x1="9" y2="35.1" stroke-width="0.576" x2="9"/>
    <line  stroke="white" stroke-linecap="round" y1="35.1" x1="9" y2="36.9" stroke-width="0.576" x2="7.2"/>
    <line  stroke="white" stroke-linecap="round" y1="51.3" x1="3.6" y2="49.5" stroke-width="0.576" x2="1.8"/>
    <line  stroke="white" stroke-linecap="round" y1="49.5" x1="1.8" y2="45.9" stroke-width="0.576" x2="1.8"/>
    <line  stroke="white" stroke-linecap="round" y1="45.9" x1="1.8" y2="44.1" stroke-width="0.576" x2="3.6"/>
    <line  stroke="white" stroke-linecap="round" y1="44.1" x1="7.2" y2="45.9" stroke-width="0.576" x2="9"/>
    <line  stroke="white" stroke-linecap="round" y1="45.9" x1="9" y2="49.5" stroke-width="0.576" x2="9"/>
    <line  stroke="white" stroke-linecap="round" y1="49.5" x1="9" y2="51.3" stroke-width="0.576" x2="7.2"/>
    <line  stroke="white" stroke-linecap="round" y1="42.3" x1="1.8" y2="44.1" stroke-width="0.576" x2="3.6"/>
    <line  stroke="white" stroke-linecap="round" y1="44.1" x1="7.2" y2="42.3" stroke-width="0.576" x2="9"/>
    <line  stroke="white" stroke-linecap="round" y1="38.7" x1="9" y2="42.3" stroke-width="0.576" x2="9"/>
    <line  stroke="white" stroke-linecap="round" y1="63.9" x1="1.8" y2="60.3" stroke-width="0.576" x2="1.8"/>
    <line  stroke="white" stroke-linecap="round" y1="60.3" x1="1.8" y2="58.5" stroke-width="0.576" x2="3.6"/>
    <line  stroke="white" stroke-linecap="round" y1="58.5" x1="7.2" y2="60.3" stroke-width="0.576" x2="9"/>
    <line  stroke="white" stroke-linecap="round" y1="58.5" x1="3.6" y2="56.7" stroke-width="0.576" x2="1.8"/>
    <line  stroke="white" stroke-linecap="round" y1="56.7" x1="1.8" y2="53.1" stroke-width="0.576" x2="1.8"/>
    <line  stroke="white" stroke-linecap="round" y1="53.1" x1="1.8" y2="51.3" stroke-width="0.576" x2="3.6"/>
    <line  stroke="white" stroke-linecap="round" y1="51.3" x1="7.2" y2="53.1" stroke-width="0.576" x2="9"/>
    <line  stroke="white" stroke-linecap="round" y1="53.1" x1="9" y2="56.7" stroke-width="0.576" x2="9"/>
    <line  stroke="white" stroke-linecap="round" y1="56.7" x1="9" y2="58.5" stroke-width="0.576" x2="7.2"/>
    <line  stroke="white" stroke-linecap="round" y1="65.7" x1="3.6" y2="65.7" stroke-width="0.576" x2="7.2"/>
    <line  stroke="white" stroke-linecap="round" y1="63.9" x1="1.8" y2="65.7" stroke-width="0.576" x2="3.6"/>
    <line  stroke="white" stroke-linecap="round" y1="65.7" x1="7.2" y2="63.9" stroke-width="0.576" x2="9"/>
    <line  stroke="white" stroke-linecap="round" y1="60.3" x1="9" y2="63.9" stroke-width="0.576" x2="9"/>
    <line  stroke="white" stroke-linecap="round" y1="13.5" x1="1.8" y2="9.9" stroke-width="0.576" x2="1.8"/>
    <line  stroke="white" stroke-linecap="round" y1="9.9" x1="1.8" y2="8.1" stroke-width="0.576" x2="3.6"/>
    <line  stroke="white" stroke-linecap="round" y1="8.1" x1="7.2" y2="9.9" stroke-width="0.576" x2="9"/>
    <line  stroke="white" stroke-linecap="round" y1="13.5" x1="1.8" y2="15.3" stroke-width="0.576" x2="3.6"/>
    <line  stroke="white" stroke-linecap="round" y1="15.3" x1="7.2" y2="13.5" stroke-width="0.576" x2="9"/>
    <line  stroke="white" stroke-linecap="round" y1="9.9" x1="9" y2="13.5" stroke-width="0.576" x2="9"/>
    <line  stroke="white" stroke-linecap="round" y1="6.3" x1="1.8" y2="2.7" stroke-width="0.576" x2="1.8"/>
    <line  stroke="white" stroke-linecap="round" y1="2.7" x1="1.8" y2="0.9" stroke-width="0.576" x2="3.6"/>
    <line  stroke="white" stroke-linecap="round" y1="0.9" x1="7.2" y2="2.7" stroke-width="0.576" x2="9"/>
    <line  stroke="white" stroke-linecap="round" y1="6.3" x1="1.8" y2="8.1" stroke-width="0.576" x2="3.6"/>
    <line  stroke="white" stroke-linecap="round" y1="8.1" x1="7.2" y2="6.3" stroke-width="0.576" x2="9"/>
    <line  stroke="white" stroke-linecap="round" y1="2.7" x1="9" y2="6.3" stroke-width="0.576" x2="9"/>
    <line  stroke="white" stroke-linecap="round" y1="0.9" x1="3.6" y2="0.9" stroke-width="0.576" x2="7.2"/>
   </g>
  </g>
  <g >
   <title >element:JP2</title>
   <g >
    <title >package:1X09</title>
    <line  stroke="white" stroke-linecap="round" y1="20.7" x1="52.2" y2="17.1" stroke-width="0.576" x2="52.2"/>
    <line  stroke="white" stroke-linecap="round" y1="17.1" x1="52.2" y2="15.3" stroke-width="0.576" x2="54"/>
    <line  stroke="white" stroke-linecap="round" y1="15.3" x1="57.6" y2="17.1" stroke-width="0.576" x2="59.4"/>
    <line  stroke="white" stroke-linecap="round" y1="29.7" x1="54" y2="27.9" stroke-width="0.576" x2="52.2"/>
    <line  stroke="white" stroke-linecap="round" y1="27.9" x1="52.2" y2="24.3" stroke-width="0.576" x2="52.2"/>
    <line  stroke="white" stroke-linecap="round" y1="24.3" x1="52.2" y2="22.5" stroke-width="0.576" x2="54"/>
    <line  stroke="white" stroke-linecap="round" y1="22.5" x1="57.6" y2="24.3" stroke-width="0.576" x2="59.4"/>
    <line  stroke="white" stroke-linecap="round" y1="24.3" x1="59.4" y2="27.9" stroke-width="0.576" x2="59.4"/>
    <line  stroke="white" stroke-linecap="round" y1="27.9" x1="59.4" y2="29.7" stroke-width="0.576" x2="57.6"/>
    <line  stroke="white" stroke-linecap="round" y1="20.7" x1="52.2" y2="22.5" stroke-width="0.576" x2="54"/>
    <line  stroke="white" stroke-linecap="round" y1="22.5" x1="57.6" y2="20.7" stroke-width="0.576" x2="59.4"/>
    <line  stroke="white" stroke-linecap="round" y1="17.1" x1="59.4" y2="20.7" stroke-width="0.576" x2="59.4"/>
    <line  stroke="white" stroke-linecap="round" y1="42.3" x1="52.2" y2="38.7" stroke-width="0.576" x2="52.2"/>
    <line  stroke="white" stroke-linecap="round" y1="38.7" x1="52.2" y2="36.9" stroke-width="0.576" x2="54"/>
    <line  stroke="white" stroke-linecap="round" y1="36.9" x1="57.6" y2="38.7" stroke-width="0.576" x2="59.4"/>
    <line  stroke="white" stroke-linecap="round" y1="36.9" x1="54" y2="35.1" stroke-width="0.576" x2="52.2"/>
    <line  stroke="white" stroke-linecap="round" y1="35.1" x1="52.2" y2="31.5" stroke-width="0.576" x2="52.2"/>
    <line  stroke="white" stroke-linecap="round" y1="31.5" x1="52.2" y2="29.7" stroke-width="0.576" x2="54"/>
    <line  stroke="white" stroke-linecap="round" y1="29.7" x1="57.6" y2="31.5" stroke-width="0.576" x2="59.4"/>
    <line  stroke="white" stroke-linecap="round" y1="31.5" x1="59.4" y2="35.1" stroke-width="0.576" x2="59.4"/>
    <line  stroke="white" stroke-linecap="round" y1="35.1" x1="59.4" y2="36.9" stroke-width="0.576" x2="57.6"/>
    <line  stroke="white" stroke-linecap="round" y1="51.3" x1="54" y2="49.5" stroke-width="0.576" x2="52.2"/>
    <line  stroke="white" stroke-linecap="round" y1="49.5" x1="52.2" y2="45.9" stroke-width="0.576" x2="52.2"/>
    <line  stroke="white" stroke-linecap="round" y1="45.9" x1="52.2" y2="44.1" stroke-width="0.576" x2="54"/>
    <line  stroke="white" stroke-linecap="round" y1="44.1" x1="57.6" y2="45.9" stroke-width="0.576" x2="59.4"/>
    <line  stroke="white" stroke-linecap="round" y1="45.9" x1="59.4" y2="49.5" stroke-width="0.576" x2="59.4"/>
    <line  stroke="white" stroke-linecap="round" y1="49.5" x1="59.4" y2="51.3" stroke-width="0.576" x2="57.6"/>
    <line  stroke="white" stroke-linecap="round" y1="42.3" x1="52.2" y2="44.1" stroke-width="0.576" x2="54"/>
    <line  stroke="white" stroke-linecap="round" y1="44.1" x1="57.6" y2="42.3" stroke-width="0.576" x2="59.4"/>
    <line  stroke="white" stroke-linecap="round" y1="38.7" x1="59.4" y2="42.3" stroke-width="0.576" x2="59.4"/>
    <line  stroke="white" stroke-linecap="round" y1="63.9" x1="52.2" y2="60.3" stroke-width="0.576" x2="52.2"/>
    <line  stroke="white" stroke-linecap="round" y1="60.3" x1="52.2" y2="58.5" stroke-width="0.576" x2="54"/>
    <line  stroke="white" stroke-linecap="round" y1="58.5" x1="57.6" y2="60.3" stroke-width="0.576" x2="59.4"/>
    <line  stroke="white" stroke-linecap="round" y1="58.5" x1="54" y2="56.7" stroke-width="0.576" x2="52.2"/>
    <line  stroke="white" stroke-linecap="round" y1="56.7" x1="52.2" y2="53.1" stroke-width="0.576" x2="52.2"/>
    <line  stroke="white" stroke-linecap="round" y1="53.1" x1="52.2" y2="51.3" stroke-width="0.576" x2="54"/>
    <line  stroke="white" stroke-linecap="round" y1="51.3" x1="57.6" y2="53.1" stroke-width="0.576" x2="59.4"/>
    <line  stroke="white" stroke-linecap="round" y1="53.1" x1="59.4" y2="56.7" stroke-width="0.576" x2="59.4"/>
    <line  stroke="white" stroke-linecap="round" y1="56.7" x1="59.4" y2="58.5" stroke-width="0.576" x2="57.6"/>
    <line  stroke="white" stroke-linecap="round" y1="65.7" x1="54" y2="65.7" stroke-width="0.576" x2="57.6"/>
    <line  stroke="white" stroke-linecap="round" y1="63.9" x1="52.2" y2="65.7" stroke-width="0.576" x2="54"/>
    <line  stroke="white" stroke-linecap="round" y1="65.7" x1="57.6" y2="63.9" stroke-width="0.576" x2="59.4"/>
    <line  stroke="white" stroke-linecap="round" y1="60.3" x1="59.4" y2="63.9" stroke-width="0.576" x2="59.4"/>
    <line  stroke="white" stroke-linecap="round" y1="13.5" x1="52.2" y2="9.9" stroke-width="0.576" x2="52.2"/>
    <line  stroke="white" stroke-linecap="round" y1="9.9" x1="52.2" y2="8.1" stroke-width="0.576" x2="54"/>
    <line  stroke="white" stroke-linecap="round" y1="8.1" x1="57.6" y2="9.9" stroke-width="0.576" x2="59.4"/>
    <line  stroke="white" stroke-linecap="round" y1="13.5" x1="52.2" y2="15.3" stroke-width="0.576" x2="54"/>
    <line  stroke="white" stroke-linecap="round" y1="15.3" x1="57.6" y2="13.5" stroke-width="0.576" x2="59.4"/>
    <line  stroke="white" stroke-linecap="round" y1="9.9" x1="59.4" y2="13.5" stroke-width="0.576" x2="59.4"/>
    <line  stroke="white" stroke-linecap="round" y1="6.3" x1="52.2" y2="2.7" stroke-width="0.576" x2="52.2"/>
    <line  stroke="white" stroke-linecap="round" y1="2.7" x1="52.2" y2="0.9" stroke-width="0.576" x2="54"/>
    <line  stroke="white" stroke-linecap="round" y1="0.9" x1="57.6" y2="2.7" stroke-width="0.576" x2="59.4"/>
    <line  stroke="white" stroke-linecap="round" y1="6.3" x1="52.2" y2="8.1" stroke-width="0.576" x2="54"/>
    <line  stroke="white" stroke-linecap="round" y1="8.1" x1="57.6" y2="6.3" stroke-width="0.576" x2="59.4"/>
    <line  stroke="white" stroke-linecap="round" y1="2.7" x1="59.4" y2="6.3" stroke-width="0.576" x2="59.4"/>
    <line  stroke="white" stroke-linecap="round" y1="0.9" x1="54" y2="0.9" stroke-width="0.576" x2="57.6"/>
   </g>
  </g>
  <g >
   <title >element:JP3</title>
   <g >
    <title >package:1X01</title>
    <line  stroke="white" stroke-linecap="round" y1="60.3" x1="52.2" y2="58.5" stroke-width="0.576" x2="50.4"/>
    <line  stroke="white" stroke-linecap="round" y1="58.5" x1="50.4" y2="58.5" stroke-width="0.576" x2="46.8"/>
    <line  stroke="white" stroke-linecap="round" y1="58.5" x1="46.8" y2="60.3" stroke-width="0.576" x2="45"/>
    <line  stroke="white" stroke-linecap="round" y1="60.3" x1="45" y2="63.9" stroke-width="0.576" x2="45"/>
    <line  stroke="white" stroke-linecap="round" y1="63.9" x1="45" y2="65.7" stroke-width="0.576" x2="46.8"/>
    <line  stroke="white" stroke-linecap="round" y1="65.7" x1="46.8" y2="65.7" stroke-width="0.576" x2="50.4"/>
    <line  stroke="white" stroke-linecap="round" y1="65.7" x1="50.4" y2="63.9" stroke-width="0.576" x2="52.2"/>
    <line  stroke="white" stroke-linecap="round" y1="63.9" x1="52.2" y2="60.3" stroke-width="0.576" x2="52.2"/>
   </g>
  </g>
  <g >
   <title >element:Q1</title>
   <g >
    <title >package:RESONATOR-SMD</title>
   </g>
  </g>
  <g >
   <title >element:U1</title>
   <g >
    <title >package:TQFP32-08</title>
   </g>
  </g>
 </g>
 <g  id="copper1">
  <g  id="copper0">
   <circle  fill="none" cx="55.8" cy="62.1" connectorname="D5" stroke="#F7BD13" r="2.052" id="connector65pad" stroke-width="1.224"/>
   <circle  fill="none" cx="55.8" cy="4.5" connectorname="DTR" stroke="#F7BD13" r="2.052" id="connector73pad" stroke-width="1.224"/>
   <circle  fill="none" cx="5.4" cy="26.1" connectorname="VCC" stroke="#F7BD13" r="2.052" id="connector61pad" stroke-width="1.224"/>
   <circle  fill="none" cx="55.8" cy="33.3" connectorname="RXD" stroke="#F7BD13" r="2.052" id="connector69pad" stroke-width="1.224"/>
   <circle  fill="none" cx="5.4" cy="11.7" connectorname="P2_1" stroke="#F7BD13" r="2.052" id="connector63pad" stroke-width="1.224"/>
   <circle  fill="none" cx="55.8" cy="47.7" connectorname="D2" stroke="#F7BD13" r="2.052" id="connector67pad" stroke-width="1.224"/>
   <circle  fill="none" cx="55.8" cy="18.9" connectorname="A4" stroke="#F7BD13" r="2.052" id="connector71pad" stroke-width="1.224"/>
   <circle  fill="none" cx="5.4" cy="18.9" connectorname="RESET" stroke="#F7BD13" r="2.052" id="connector62pad" stroke-width="1.224"/>
   <circle  fill="none" cx="5.4" cy="4.5" connectorname="P2_2" stroke="#F7BD13" r="2.052" id="connector64pad" stroke-width="1.224"/>
   <circle  fill="none" cx="55.8" cy="54.9" connectorname="TXD" stroke="#F7BD13" r="2.052" id="connector66pad" stroke-width="1.224"/>
   <circle  fill="none" cx="55.8" cy="40.5" connectorname="GND" stroke="#F7BD13" r="2.052" id="connector68pad" stroke-width="1.224"/>
   <circle  fill="none" cx="55.8" cy="26.1" connectorname="A5" stroke="#F7BD13" r="2.052" id="connector70pad" stroke-width="1.224"/>
   <circle  fill="none" cx="55.8" cy="11.7" connectorname="A0" stroke="#F7BD13" r="2.052" id="connector72pad" stroke-width="1.224"/>
   <circle  fill="none" cx="48.6" cy="62.1" connectorname="GND" stroke="#F7BD13" r="2.052" id="connector74pad" stroke-width="1.224"/>
   <circle  fill="none" cx="5.4" cy="62.1" connectorname="D8" stroke="#F7BD13" r="2.052" id="connector56pad" stroke-width="1.224"/>
   <circle  fill="none" cx="5.4" cy="54.9" connectorname="D10" stroke="#F7BD13" r="2.052" id="connector57pad" stroke-width="1.224"/>
   <circle  fill="none" cx="5.4" cy="47.7" connectorname="MOSI" stroke="#F7BD13" r="2.052" id="connector58pad" stroke-width="1.224"/>
   <circle  fill="none" cx="5.4" cy="40.5" connectorname="SCK" stroke="#F7BD13" r="2.052" id="connector59pad" stroke-width="1.224"/>
   <circle  fill="none" cx="5.4" cy="33.3" connectorname="MISO" stroke="#F7BD13" r="2.052" id="connector60pad" stroke-width="1.224"/>
  </g>
 </g>
</svg>
