<?xml version="1.0" encoding="utf-8"?>
<!DOCTYPE svg PUBLIC "-//W3C//DTD SVG 1.1//EN" "http://www.w3.org/Graphics/SVG/1.1/DTD/svg11.dtd">
<svg version="1.1" id="Ebene_1" xmlns="http://www.w3.org/2000/svg" x="0px" y="0px"
	 width="242.482px" height="213.656px" viewBox="0 0 242.482 213.656">
<g id="none">
			<rect id="connector0pad" stroke="none" stroke-width="0" x="169.811" y="147.996" fill="#F7BD13" width="0" height="0"/>
		<rect id="connector1pad" stroke="none" stroke-width="0" x="172.206" y="142.856" fill="#F7BD13" width="0" height="0"/>
		<rect id="connector433pad" stroke="none" stroke-width="0" x="171.238" y="55.999" fill="#F7BD13" width="0" height="0"/>
		<rect id="connector435pad" stroke="none" stroke-width="0" x="176.031" y="66.274" fill="#F7BD13" width="0" height="0"/>
		<rect id="connector434pad" stroke="none" stroke-width="0" x="173.633" y="61.137" fill="#F7BD13" width="0" height="0"/>
		<rect id="connector436pad" stroke="none" stroke-width="0" x="178.425" y="71.413" fill="#F7BD13" width="0" height="0"/>
		<rect id="connector126pad" stroke="none" stroke-width="0" x="58.387" y="71.412" fill="#F7BD13" width="0" height="0"/>
		<rect id="connector127pad" stroke="none" stroke-width="0" x="60.785" y="66.274" fill="#F7BD13" width="0" height="0"/>
		<rect id="connector128pad" stroke="none" stroke-width="0" x="63.18" y="61.137" fill="#F7BD13" width="0" height="0"/>
		<rect id="connector129pad" stroke="none" stroke-width="0" x="65.577" y="55.998" fill="#F7BD13" width="0" height="0"/>
				<circle id="connector316pin" fill="none" stroke="none" stroke-width="0" cx="0" cy="0" r="0"/>
		<circle id="connector318pin" fill="none" stroke="none" stroke-width="0" cx="0" cy="0" r="0"/>
		<circle id="connector320pin" fill="none" stroke="none" stroke-width="0" cx="0" cy="0" r="0"/>
				<circle id="connector317pin" fill="none" stroke="none" stroke-width="0" cx="0" cy="0" r="0"/>
		<circle id="connector315pin" fill="none" stroke="none" stroke-width="0" cx="0" cy="0" r="0"/>
		<circle id="connector319pin" fill="none" stroke="none" stroke-width="0" cx="0" cy="0" r="0"/>
</g>
<g id="copper1">
	<g id="copper0">

		<circle id="connector98pin" fill="none" stroke="#F7BD13" stroke-width="0.8504" cx="164.443" cy="174.803" r="1.62"/>
		<circle id="connector99pin" fill="none" stroke="#F7BD13" stroke-width="0.8504" cx="164.443" cy="182.003" r="1.62"/>
		<circle id="connector100pin" fill="none" stroke="#F7BD13" stroke-width="0.8504" cx="157.243" cy="174.803" r="1.62"/>
		<circle id="connector101pin" fill="none" stroke="#F7BD13" stroke-width="0.8504" cx="157.243" cy="182.003" r="1.62"/>
		<circle id="connector102pin" fill="none" stroke="#F7BD13" stroke-width="0.8504" cx="150.042" cy="174.803" r="1.62"/>
		<circle id="connector103pin" fill="none" stroke="#F7BD13" stroke-width="0.8504" cx="150.042" cy="182.003" r="1.62"/>
		<circle id="connector104pin" fill="none" stroke="#F7BD13" stroke-width="0.8504" cx="142.842" cy="174.803" r="1.62"/>
		<circle id="connector105pin" fill="none" stroke="#F7BD13" stroke-width="0.8504" cx="142.842" cy="182.003" r="1.62"/>
		<circle id="connector106pin" fill="none" stroke="#F7BD13" stroke-width="0.8504" cx="135.642" cy="174.803" r="1.62"/>
		<circle id="connector107pin" fill="none" stroke="#F7BD13" stroke-width="0.8504" cx="135.642" cy="182.003" r="1.62"/>
		<circle id="connector108pin" fill="none" stroke="#F7BD13" stroke-width="0.8504" cx="128.443" cy="174.803" r="1.62"/>
		<circle id="connector109pin" fill="none" stroke="#F7BD13" stroke-width="0.8504" cx="128.443" cy="182.003" r="1.62"/>
		<circle id="connector110pin" fill="none" stroke="#F7BD13" stroke-width="0.8504" cx="121.243" cy="174.803" r="1.62"/>
		<circle id="connector111pin" fill="none" stroke="#F7BD13" stroke-width="0.8504" cx="121.243" cy="182.003" r="1.62"/>
		<circle id="connector112pin" fill="none" stroke="#F7BD13" stroke-width="0.8504" cx="114.042" cy="174.803" r="1.62"/>
		<circle id="connector113pin" fill="none" stroke="#F7BD13" stroke-width="0.8504" cx="114.042" cy="182.003" r="1.62"/>
		<circle id="connector114pin" fill="none" stroke="#F7BD13" stroke-width="0.8504" cx="106.842" cy="174.803" r="1.62"/>
		<circle id="connector115pin" fill="none" stroke="#F7BD13" stroke-width="0.8504" cx="106.842" cy="182.003" r="1.62"/>
		<circle id="connector116pin" fill="none" stroke="#F7BD13" stroke-width="0.8504" cx="99.642" cy="174.803" r="1.62"/>
		<circle id="connector117pin" fill="none" stroke="#F7BD13" stroke-width="0.8504" cx="99.642" cy="182.003" r="1.62"/>
		<circle id="connector118pin" fill="none" stroke="#F7BD13" stroke-width="0.8504" cx="92.442" cy="174.803" r="1.62"/>
		<circle id="connector119pin" fill="none" stroke="#F7BD13" stroke-width="0.8504" cx="92.442" cy="182.003" r="1.62"/>
		<circle id="connector120pin" fill="none" stroke="#F7BD13" stroke-width="0.8504" cx="85.242" cy="174.803" r="1.62"/>
		<circle id="connector121pin" fill="none" stroke="#F7BD13" stroke-width="0.8504" cx="85.242" cy="182.003" r="1.62"/>
		<circle id="connector122pin" fill="none" stroke="#F7BD13" stroke-width="0.8504" cx="78.041" cy="174.803" r="1.62"/>
		<circle id="connector123pin" fill="none" stroke="#F7BD13" stroke-width="0.8504" cx="78.041" cy="182.003" r="1.62"/>

		<circle id="connector237pin" fill="none" stroke="#F7BD13" stroke-width="0.8504" cx="103.243" cy="161.508" r="1.8"/>
		<circle id="connector238pin" fill="none" stroke="#F7BD13" stroke-width="0.8504" cx="110.443" cy="160.715" r="1.8"/>
		<circle id="connector239pin" fill="none" stroke="#F7BD13" stroke-width="0.8504" cx="117.642" cy="161.508" r="1.8"/>
		<circle id="connector240pin" fill="none" stroke="#F7BD13" stroke-width="0.8504" cx="124.843" cy="160.715" r="1.8"/>
		<circle id="connector241pin" fill="none" stroke="#F7BD13" stroke-width="0.8504" cx="132.043" cy="161.508" r="1.8"/>
		<circle id="connector242pin" fill="none" stroke="#F7BD13" stroke-width="0.8504" cx="139.243" cy="160.715" r="1.8"/>
	</g>
</g>
<g id="silkscreen">
	<path fill="none" stroke="#FFFFFF" stroke-width="0.36" stroke-linecap="round" d="M242.462,103.673
		c-2.107-9.041-10.816-8.53-17.596-12.839c-9.185-5.838-18.5-14.048-24.728-22.826c-5.891-8.301-9.334-17.579-11.89-29.483
		c-2.726-12.693,4.148-25.566-2.141-33.764c-3.227-4.204-11.89-6.47-17.833-3.092c-2.062,1.664-4.121,3.329-6.183,4.993
		c-10.766,6.902-21.935,12.366-39.471,12.364c-3.645,0-7.292,0-10.938,0c-9.349-1.962-18.463-5.52-25.68-9.986
		C78.85,4.61,75.728-0.164,63.654,0.004c-5.55,3.198-12.274,8.41-9.035,18.546c0.996,3.116,2.391,8.973,1.426,13.791
		c-1.952,9.754-2.682,19.396-7.133,26.631C41.591,70.879,33.02,80.288,21.334,87.742c-7.638,4.871-18.6,6.181-20.924,16.406
		c-3.139,13.811,12.579,15.22,19.498,19.498c13.328,8.238,24.246,20.756,31.148,35.428c1.506,5.627,3.012,11.256,4.518,16.881
		c3.213,16.1-7.334,27.768,4.756,35.903c9.095,6.122,17.309-2.2,22.113-5.706c5.638-4.114,13.479-8.063,20.686-10.225
		c3.17-0.475,6.342-0.95,9.512-1.427c5.753-2.166,6.51-7.607,11.889-7.607s3.98,6.763,6.657,7.607
		c8.704,2.751,16.346,2.762,23.303,7.132c4.835,3.04,11.494,9.816,16.167,11.652c6.779,2.661,14.324-2.146,16.407-5.47
		c5.176-8.253-2.072-14.342,0.237-25.68c3.237-15.891,5.84-29.15,14.505-39.708c6.195-7.549,14.085-13.535,22.588-18.782
		c4.578-2.825,11.467-3.471,14.979-7.371C241.421,113.998,243.676,108.88,242.462,103.673z"/>
</g>
</svg>
