<svg fill="none" height="50.4mm" stroke-linecap="round" stroke-linejoin="round" viewBox="0 0 20.6 50.4" width="20.6mm" xmlns="http://www.w3.org/2000/svg"><g transform="matrix(1 0 0 -1 0 50.2)"><g id="silkscreen"><path d="m0 49a1 1 0 0 0 1 1h18.6a1 1 0 0 0 1-1v-48a1 1 0 0 0 -1-1h-18.6a1 1 0 0 0 -1 1zm3-1a1 1 0 0 1 -2 0 1 1 0 0 1 2 0zm16.6 0a1 1 0 0 1 -2 0 1 1 0 0 1 2 0zm-16.6-46a1 1 0 0 1 -2 0 1 1 0 0 1 2 0zm16.6 0a1 1 0 0 1 -2 0 1 1 0 0 1 2 0z" fill="none" stroke="#fff" stroke-width="0.25"/><g fill="#fff" stroke="none" stroke-width="0"><path d="m17.015 44.026a.075.075 0 1 0 -.064-.135l-.187.087a.075.075 0 0 0 .064.136z"/><path d="m16.796 43.971a.075.075 0 0 0 0 .15h.654a.075.075 0 0 0 0-.15z"/><path d="m16.517 43.599a.05.05 0 0 0 .072.045l.839-.419a.05.05 0 0 0 0-.09l-.839-.419a.05.05 0 0 0 -.072.045z"/><path d="m3.365 44.126a.075.075 0 0 0 .064-.135l-.187.087a.075.075 0 1 0 .064.136zm-.219-.055a.075.075 0 0 0 0 .15h.654a.075.075 0 0 0 0-.15z"/><path d="m3.883 42.761a.05.05 0 0 0 -.072-.045l-.839.419a.05.05 0 0 0 0 .09l.839.419a.05.05 0 0 0 .072-.045z"/><path d="m.45 11.28a.15.15 0 0 0 0 .3h2.08v32.72h-2.08a.15.15 0 0 0 0 .3h2.23a.15.15 0 0 0 .15-.15v-33.02a.15.15 0 0 0 -.15-.15z"/><path d="m3.246 14.406a.075.075 0 0 0 0 .15h.501a.075.075 0 0 0 .032-.007l.05-.024a.075.075 0 0 0 .015-.008l.076-.059a.075.075 0 0 0 .018-.02l.026-.041a.075.075 0 0 0 .011-.039v-.041a.075.075 0 0 0 -.013-.042l-.051-.076a.075.075 0 0 0 -.026-.024l-.077-.041a.075.075 0 1 0 -.071.132l.06.032.028.042v-.004l-.007.011-.059.046-.028.013z"/><path d="m3.9 14.925a.075.075 0 0 0 0-.15h-.654a.075.075 0 0 0 -.075.075v.246a.075.075 0 0 0 .012.039l.025.041a.075.075 0 0 0 .013.016l.051.046a.075.075 0 0 0 .026.016l.051.018a.075.075 0 0 0 .025.004h.076a.075.075 0 0 0 .028-.006l.102-.041a.075.075 0 0 0 .042-.044l.017-.046a.075.075 0 0 0 .005-.026v-.263a.075.075 0 0 0 -.15 0v.25l-.001.003-.057.023h-.05l-.024-.009-.032-.029-.009-.014v-.149z"/><path d="m3.465 15.626a.075.075 0 0 0 -.064-.135l-.187.087a.075.075 0 0 0 .064.136z"/><path d="m3.246 15.571a.075.075 0 0 0 0 .15h.654a.075.075 0 0 0 0-.15z"/><path d="m17.77 44.45a.15.15 0 0 0 .3 0v-32.87h2.08a.15.15 0 0 0 0-.3h-2.23a.15.15 0 0 0 -.15.15zm2.38.15a.15.15 0 0 0 0-.3h-2.23a.15.15 0 0 0 0 .3z"/><path d="m16.846 24.056a.075.075 0 0 0 0 .15h.501a.075.075 0 0 0 .032-.007l.05-.024a.075.075 0 0 0 .015-.008l.076-.059a.075.075 0 0 0 .018-.02l.026-.041a.075.075 0 0 0 .011-.039v-.041a.075.075 0 0 0 -.013-.042l-.051-.076a.075.075 0 0 0 -.026-.024l-.077-.041a.075.075 0 0 0 -.071.132l.06.032.028.042v-.004l-.007.011-.059.046-.028.013z"/><path d="m17.5 24.575a.075.075 0 0 0 0-.15h-.654a.075.075 0 0 0 -.075.075v.246a.075.075 0 0 0 .012.039l.025.041a.075.075 0 0 0 .013.016l.051.046a.075.075 0 0 0 .026.016l.051.018a.075.075 0 0 0 .025.004h.076a.075.075 0 0 0 .028-.006l.102-.041a.075.075 0 0 0 .042-.044l.017-.046a.075.075 0 0 0 .005-.026v-.263a.075.075 0 0 0 -.15 0v.25l-.001.003-.057.023h-.05l-.024-.009-.032-.029-.009-.014v-.149z"/><path d="m17.005 25.218a.075.075 0 0 0 -.063-.136l-.051.023a.075.075 0 0 0 -.019.013l-.051.047a.075.075 0 0 0 -.015.019l-.026.047a.075.075 0 0 0 -.009.036v.14a.075.075 0 0 0 .009.036l.026.047a.075.075 0 0 0 .015.019l.051.047a.075.075 0 0 0 .019.013l.051.023a.075.075 0 0 0 .032.007h.102a.075.075 0 0 0 .031-.007l.051-.023a.075.075 0 0 0 .02-.014l.247-.232v.201a.075.075 0 0 0 .15 0v-.374a.075.075 0 0 0 -.126-.055l-.365.343-.025.011h-.069l-.025-.012-.033-.03-.011-.019v-.102l.011-.019.033-.03z"/></g></g><g id="copper1"><g id="copper0" fill="none" stroke="#ffbf00" stroke-width="20"><g transform="matrix(.0254 0 0 -.0254 -.378 44.958)"><circle stroke-width="20" id="connector0pin" cx="70" cy="70" r="29"/><circle id="connector1pin" cx="70" cy="170" r="29"/><circle id="connector2pin" cx="70" cy="270" r="29"/><circle id="connector3pin" cx="70" cy="370" r="29"/><circle id="connector4pin" cx="70" cy="470" r="29"/><circle id="connector5pin" cx="70" cy="570" r="29"/><circle id="connector6pin" cx="70" cy="670" r="29"/><circle id="connector7pin" cx="70" cy="770" r="29"/><circle id="connector8pin" cx="70" cy="870" r="29"/><circle id="connector9pin" cx="70" cy="970" r="29"/><circle id="connector10pin" cx="70" cy="1070" r="29"/><circle id="connector11pin" cx="70" cy="1170" r="29"/><circle id="connector12pin" cx="70" cy="1270" r="29"/></g><g transform="matrix(.0254 0 0 -.0254 17.382 44.958)"><circle id="connector25pin" cx="70" cy="70" r="29"/><circle id="connector24pin" cx="70" cy="170" r="29"/><circle id="connector23pin" cx="70" cy="270" r="29"/><circle id="connector22pin" cx="70" cy="370" r="29"/><circle id="connector21pin" cx="70" cy="470" r="29"/><circle id="connector20pin" cx="70" cy="570" r="29"/><circle id="connector19pin" cx="70" cy="670" r="29"/><circle id="connector18pin" cx="70" cy="770" r="29"/><circle id="connector17pin" cx="70" cy="870" r="29"/><circle id="connector16pin" cx="70" cy="970" r="29"/><circle id="connector15pin" cx="70" cy="1070" r="29"/><circle id="connector14pin" cx="70" cy="1170" r="29"/><circle id="connector13pin" cx="70" cy="1270" r="29"/></g></g></g></g></svg>