<svg fill="none" height="50.15mm" stroke-linecap="round" stroke-linejoin="round" viewBox="0 0 48.8 50.15" width="48.8mm" xmlns="http://www.w3.org/2000/svg">
	<g transform="matrix(1 0 0 -1 1.3 50.15)">
		<g id="silkscreen">
			<path d="m0 49a.999999.999999 0 0 0 1 1h43a.999999.999999 0 0 0 1-1v-.717a.5.5 0 0 1 -.25-.433v-5a.5.5 0 0 1 .25-.433v-41.417a.999999.999999 0 0 0 -1-1h-43a.999999.999999 0 0 0 -1 1zm44-11a1 1 0 0 1 -2 0 1 1 0 0 1 2 0zm-41 10a1 1 0 0 1 -2 0 1 1 0 0 1 2 0zm0-46a1 1 0 0 1 -2 0 1 1 0 0 1 2 0zm41 0a1 1 0 0 1 -2 0 1 1 0 0 1 2 0zm-13.8 37.94a.55.55 0 0 1 -1.1 0 .55.55 0 0 1 1.1 0zm2.55 0a.55.55 0 0 1 -1.1 0 .55.55 0 0 1 1.1 0zm-2.55-2.54a.55.55 0 0 1 -1.1 0 .55.55 0 0 1 1.1 0zm2.55 0a.55.55 0 0 1 -1.1 0 .55.55 0 0 1 1.1 0z" fill="none" stroke="#fff" stroke-width=".25"/>
			<g transform="matrix(.0254 0 0 -.0254 .29 31.28)">
				<g stroke="#fff" stroke-width="10" transform="translate(-9.5 -9.5)">
					<path d="m10 10v800"/>
					<path d="m10 810h200"/>
					<path d="m210 810v-800"/>
					<path d="m10 10h50"/>
					<path d="m160 10h50"/>
				</g>
			</g>
			<g stroke="#fff" transform="matrix(.0254 0 0 -.0254 27.8847 50.2653)">
				<g stroke-width="10">
					<path d="m20 20v300"/>
					<path d="m20 320h100"/>
					<path d="m120 320v-300"/>
					<path d="m120 20h-100"/>
				</g>
				<path d="m20 55 35-35" stroke-width="5"/>
			</g>
			<g transform="matrix(.0254 0 0 -.0254 28.35 31.15)">
				<g stroke="#fff" stroke-width="10" transform="translate(-9.5 -9.5)">
					<path d="m10 10v400"/>
					<path d="m10 410h200"/>
					<path d="m210 410v-400"/>
					<path d="m10 10h50"/>
					<path d="m160 10h50"/>
				</g>
			</g>
			<g transform="translate(6.5)">
				<path d="m0 49a.999999.999999 0 0 0 1 1h18.6a.999999.999999 0 0 0 1-1v-48a.999999.999999 0 0 0 -1-1h-18.6a.999999.999999 0 0 0 -1 1z" fill="none" stroke="#fff" stroke-width=".25"/>
				<g fill="#fff" stroke-width="0">
					<path d="m17.0149 44.0263a.0750031.0750031 0 1 0 -.0637-.1358l-.1868.0877a.0750031.0750031 0 0 0 .0637.1358z"/>
					<path d="m16.7962 43.9711a.075.075 0 0 0 0 .15h.6538a.075.075 0 0 0 0-.15z"/>
					<path d="m16.517 43.5991a.05.05 0 0 0 .0724.0447l.8382-.4191a.05.05 0 0 0 0-.0894l-.8382-.4191a.05.05 0 0 0 -.0724.0447z"/>
					<path d="m3.3649 44.1263a.0750031.0750031 0 0 0 -.0637-.1358l-.1868.0877a.0750031.0750031 0 1 0 .0637.1358zm-.2187-.0552a.075.075 0 0 0 0 .15h.6538a.075.075 0 0 0 0-.15z"/>
					<path d="m3.883 42.7609a.05.05 0 0 0 -.0724-.0447l-.8382.4191a.05.05 0 0 0 0 .0894l.8382.4191a.05.05 0 0 0 .0724-.0447z"/>
					<path d="m.45 11.28a.15.15 0 0 0 0 .3h2.08v32.72h-2.08a.15.15 0 0 0 0 .3h2.23a.15.15 0 0 0 .15-.15v-33.02a.15.15 0 0 0 -.15-.15z"/>
					<path d="m3.2462 14.4055a.075.075 0 0 0 0 .15h.501a.0750003.0750003 0 0 0 .0313-.0068l.0509-.0234a.0749996.0749996 0 0 0 .0143-.0086l.0764-.0584a.0750001.0750001 0 0 0 .0181-.02l.0255-.0409a.075.075 0 0 0 .0113-.0396v-.0409a.075.075 0 0 0 -.0127-.0418l-.0509-.076a.075.075 0 0 0 -.0269-.0243l-.0765-.0409a.0750001.0750001 0 1 0 -.0708.1322l.06.0321.0278.0415v-.0033l-.0069.011-.0589.0451-.0284.013z"/>
					<path d="m3.9 14.925a.075.075 0 0 0 0-.15h-.6538a.0749999.0749999 0 0 0 -.075.075v.2455a.075.075 0 0 0 .0114.0396l.0254.0409a.0749998.0749998 0 0 0 .013.0156l.0509.0468a.0749999.0749999 0 0 0 .0263.0156l.051.0176a.0749997.0749997 0 0 0 .0244.0041h.0764a.075.075 0 0 0 .0279-.0054l.1019-.041a.0749999.0749999 0 0 0 .0426-.044l.017-.0467a.0749999.0749999 0 0 0 .0045-.0256v-.263a.075.075 0 0 0 -.15 0v.2498l-.0011.0028-.0573.0231h-.0494l-.0243-.0084-.0318-.0293-.0088-.014v-.149z"/>
					<path d="m3.4649 15.6263a.0750031.0750031 0 0 0 -.0637-.1358l-.1868.0877a.0750031.0750031 0 0 0 .0637.1358z"/>
					<path d="m3.2462 15.5711a.075.075 0 0 0 0 .15h.6538a.075.075 0 0 0 0-.15z"/>
					<path d="m17.77 44.45a.15.15 0 0 0 .3 0v-32.87h2.08a.15.15 0 0 0 0-.3h-2.23a.15.15 0 0 0 -.15.15zm2.38.15a.15.15 0 0 0 0-.3h-2.23a.15.15 0 0 0 0 .3z"/>
					<path d="m16.8462 24.0555a.075.075 0 0 0 0 .15h.501a.0750003.0750003 0 0 0 .0313-.0068l.0509-.0234a.0749996.0749996 0 0 0 .0143-.0086l.0764-.0584a.0750001.0750001 0 0 0 .0181-.02l.0255-.0409a.075.075 0 0 0 .0113-.0396v-.0409a.075.075 0 0 0 -.0127-.0418l-.0509-.076a.075.075 0 0 0 -.0269-.0243l-.0765-.0409a.0750001.0750001 0 0 0 -.0708.1322l.06.0321.0278.0415v-.0033l-.0069.011-.0589.0451-.0284.013z"/>
					<path d="m17.5 24.575a.075.075 0 0 0 0-.15h-.6538a.0749999.0749999 0 0 0 -.075.075v.2455a.075.075 0 0 0 .0114.0396l.0254.0409a.0749998.0749998 0 0 0 .013.0156l.0509.0468a.0749999.0749999 0 0 0 .0263.0156l.051.0176a.0749997.0749997 0 0 0 .0244.0041h.0764a.075.075 0 0 0 .0279-.0054l.1019-.041a.0749999.0749999 0 0 0 .0426-.044l.017-.0467a.0749999.0749999 0 0 0 .0045-.0256v-.263a.075.075 0 0 0 -.15 0v.2498l-.0011.0028-.0573.0231h-.0494l-.0243-.0084-.0318-.0293-.0088-.014v-.149z"/>
					<path d="m17.0049 25.2182a.074999.074999 0 0 0 -.0626-.1364l-.0509.0234a.0749997.0749997 0 0 0 -.0195.0129l-.0509.0468a.0750002.0750002 0 0 0 -.0152.0194l-.0254.0467a.075.075 0 0 0 -.0092.0359v.1402a.075.075 0 0 0 .0092.0359l.0254.0468a.0750002.0750002 0 0 0 .0152.0194l.0509.0467a.0749997.0749997 0 0 0 .0195.0129l.0509.0234a.0750003.0750003 0 0 0 .0313.0068h.1019a.0750002.0750002 0 0 0 .0313-.0068l.0509-.0234a.075.075 0 0 0 .0201-.0135l.2472-.232v.2007a.075.075 0 0 0 .15 0v-.374a.075.075 0 0 0 -.1263-.0547l-.3647.3423-.0249.0114h-.0691l-.0253-.0116-.0331-.0303-.0104-.0191v-.102l.0104-.019.0331-.0304z"/>
				</g>
			</g>
		</g>
		<g id="copper0">
			<g id="copper1">
				<g fill="none" stroke="#ffbf00" stroke-width="20" transform="translate(6.5)">
					<g transform="matrix(.0254 0 0 -.0254 -.378 44.958)">
						<circle id="connector0pin" cx="70" cy="70" r="29"/>
						<circle id="connector1pin" cx="70" cy="170" r="29"/>
						<circle id="connector2pin" cx="70" cy="270" r="29"/>
						<circle id="connector3pin" cx="70" cy="370" r="29"/>
						<circle id="connector4pin" cx="70" cy="470" r="29"/>
						<circle id="connector5pin" cx="70" cy="570" r="29"/>
						<circle id="connector6pin" cx="70" cy="670" r="29"/>
						<circle id="connector7pin" cx="70" cy="770" r="29"/>
						<circle id="connector8pin" cx="70" cy="870" r="29"/>
						<circle id="connector9pin" cx="70" cy="970" r="29"/>
						<circle id="connector10pin" cx="70" cy="1070" r="29"/>
						<circle id="connector11pin" cx="70" cy="1170" r="29"/>
						<circle id="connector12pin" cx="70" cy="1270" r="29"/>
					</g>
					<g transform="matrix(.0254 0 0 -.0254 17.382 44.958)">
						<circle id="connector25pin" cx="70" cy="70" r="29"/>
						<circle id="connector24pin" cx="70" cy="170" r="29"/>
						<circle id="connector23pin" cx="70" cy="270" r="29"/>
						<circle id="connector22pin" cx="70" cy="370" r="29"/>
						<circle id="connector21pin" cx="70" cy="470" r="29"/>
						<circle id="connector20pin" cx="70" cy="570" r="29"/>
						<circle id="connector19pin" cx="70" cy="670" r="29"/>
						<circle id="connector18pin" cx="70" cy="770" r="29"/>
						<circle id="connector17pin" cx="70" cy="870" r="29"/>
						<circle id="connector16pin" cx="70" cy="970" r="29"/>
						<circle id="connector15pin" cx="70" cy="1070" r="29"/>
						<circle id="connector14pin" cx="70" cy="1170" r="29"/>
						<circle id="connector13pin" cx="70" cy="1270" r="29"/>
					</g>
				</g>
				<g transform="matrix(.0254 0 0 -.0254 28.38 49.77)">
					<g fill="none" stroke="#ffbf00" stroke-width="20" transform="translate(-19.5 -19.5)">
						<circle id="connector26pin" cx="70" cy="70" r="29"/>
						<circle id="connector27pin" cx="70" cy="170" r="29"/>
						<circle id="connector28pin" cx="70" cy="270" r="29"/>
					</g>
				</g>
				<g transform="matrix(.0254 0 0 -.0254 28.35 31.15)">
					<g fill="none" stroke="#ffbf00" stroke-width="20" transform="translate(-19.5 -19.5)">
						<circle id="connector51pin" cx="170" cy="70" r="29"/>
						<circle id="connector52pin" cx="70" cy="70" r="29"/>
						<circle id="connector53pin" cx="170" cy="170" r="29"/>
						<circle id="connector54pin" cx="70" cy="170" r="29"/>
						<circle id="connector55pin" cx="170" cy="270" r="29"/>
						<circle id="connector56pin" cx="70" cy="270" r="29"/>
						<circle id="connector57pin" cx="170" cy="370" r="29"/>
						<circle id="connector58pin" cx="70" cy="370" r="29"/>
					</g>
				</g>
				<g transform="matrix(.0254 0 0 -.0254 .29 31.28)">
					<g fill="none" stroke="#ffbf00" stroke-width="20" transform="translate(-19.5 -19.5)">
						<circle id="connector29pin" cx="170" cy="70" r="29"/>
						<circle id="connector30pin" cx="70" cy="70" r="29"/>
						<circle id="connector31pin" cx="170" cy="170" r="29"/>
						<circle id="connector32pin" cx="70" cy="170" r="29"/>
						<circle id="connector33pin" cx="170" cy="270" r="29"/>
						<circle id="connector34pin" cx="70" cy="270" r="29"/>
						<circle id="connector35pin" cx="170" cy="370" r="29"/>
						<circle id="connector36pin" cx="70" cy="370" r="29"/>
						<circle id="connector37pin" cx="170" cy="470" r="29"/>
						<circle id="connector38pin" cx="70" cy="470" r="29"/>
						<circle id="connector39pin" cx="170" cy="570" r="29"/>
						<circle id="connector40pin" cx="70" cy="570" r="29"/>
						<circle id="connector41pin" cx="170" cy="670" r="29"/>
						<circle id="connector42pin" cx="70" cy="670" r="29"/>
						<circle id="connector43pin" cx="170" cy="770" r="29"/>
						<circle id="connector44pin" cx="70" cy="770" r="29"/>
					</g>
				</g>
			</g>
		</g>
	</g>
</svg>

