<?xml version='1.0' encoding='UTF-8' standalone='no'?>
<svg xmlns="http://www.w3.org/2000/svg"  height="12.982223mm" viewBox="0 0 118 46.000001" version="1.1" width="33.302223mm" gorn="0" id="svg20980">
    <desc >
        <referenceFile >PLAIN-dagu-servo-through-pcb.svg</referenceFile>
    </desc>
    <defs  id="defs20982"/>
    <metadata  id="metadata20985">
        <rdf:RDF xmlns:rdf="http://www.w3.org/1999/02/22-rdf-syntax-ns#">
            <cc:Work rdf:about="" xmlns:cc="http://creativecommons.org/ns#" xmlns:rdf="http://www.w3.org/1999/02/22-rdf-syntax-ns#">
                <dc:format xmlns:dc="http://purl.org/dc/elements/1.1/">image/svg+xml</dc:format>
                <dc:type xmlns:dc="http://purl.org/dc/elements/1.1/" rdf:resource="http://purl.org/dc/dcmitype/StillImage" xmlns:rdf="http://www.w3.org/1999/02/22-rdf-syntax-ns#"/>
                <dc:title xmlns:dc="http://purl.org/dc/elements/1.1/"/>
            </cc:Work>
        </rdf:RDF>
    </metadata>
    <g  transform="translate(0.5,0.5)">
        <g >
            <g  gorn="0.3.0.0" id="silkscreen">
                <path d="m 0,0 0,20.25 5.10742,0 A 4.5,4.5 0 0 1 9,18 4.5,4.5 0 0 1 13.5,22.5 4.5,4.5 0 0 1 9,27 4.5,4.5 0 0 1 5.10937,24.75 L 0,24.75 0,45 l 117,0 0,-20.25 -5.10743,0 A 4.5,4.5 0 0 1 108,27 4.5,4.5 0 0 1 103.5,22.5 4.5,4.5 0 0 1 108,18 a 4.5,4.5 0 0 1 3.89062,2.25 L 117,20.25 117,0 0,0 Z"  fill="none" stroke-width="1" style="display:inline;opacity:1;stroke-miterlimit:4;stroke-dasharray:none;stroke-dashoffset:0;enable-background:new" fill-opacity="1" stroke-opacity="1" gorn="0.3.0.0.0" id="mountingplate" stroke="#ffffff"/>
            </g>
        </g>
    </g>
    <g  transform="translate(0.5,0.5)">
        <g >
            <g  gorn="0.4.0.0" id="copper1">
                <g  transform="translate(0.5,0.5)">
                    <g >
                        <g  gorn="0.4.0.0.0.0.0" id="copper0">
                            <circle  cx="8.5000019" fill="#000000" cy="21.999983" stroke-width="0" style="stroke-miterlimit:4;stroke-dasharray:none;" fill-opacity="1" stroke-opacity="1" gorn="0.4.0.0.0.0.0.0" r="3.5433071" id="nonconn0" stroke="#000000"/>
                            <circle  cx="107.5" fill="#000000" cy="21.999983" stroke-width="0" style="stroke-miterlimit:4;stroke-dasharray:none;" fill-opacity="1" stroke-opacity="1" gorn="0.4.0.0.0.0.0.1" id="nonconn1" r="3.5433071" stroke="#000000"/>
                            <rect  height="45" fill="#000000" x="17.500002" y="-0.50001639" stroke-width="0" style="stroke-miterlimit:4;stroke-dasharray:none;" fill-opacity="1" width="81" stroke-opacity="1" gorn="0.4.0.0.0.0.0.2" id="nonconn2" stroke="#000000"/>
                        </g>
                    </g>
                </g>
            </g>
        </g>
    </g>
</svg>
