<?xml version="1.0" encoding="UTF-8"?>
<svg version="1.1" xmlns="http://www.w3.org/2000/svg" xmlns:xlink="http://www.w3.org/1999/xlink" x="0px" y="0px"
	 viewBox="0 0 57.6 60.12" width="2.03cm" height="2.12cm" xml:space="preserve">
<g id="silkscreen">
	<g stroke="none" fill="#000000">
		<g class="DFPlayerMini" transform="translate(13.7345, 10)">
			<path class="d" d="M2.629,1.98c0,0.301-0.039,0.564-0.117,0.792C2.434,2.999,2.321,3.188,2.173,3.341s-0.33,0.267-0.545,0.343c-0.216,0.077-0.46,0.115-0.734,0.115H0V0.229h0.994c0.249,0,0.475,0.037,0.676,0.112s0.374,0.186,0.515,0.333s0.251,0.33,0.328,0.548C2.591,1.441,2.629,1.693,2.629,1.98z M2.148,1.994c0-0.237-0.027-0.442-0.081-0.616C2.014,1.205,1.936,1.062,1.833,0.949c-0.103-0.111-0.229-0.195-0.378-0.25s-0.32-0.082-0.51-0.082H0.454v2.791H0.85c0.43,0,0.753-0.119,0.972-0.356S2.148,2.462,2.148,1.994z"/>
			<path class="f" d="M3.875,3.799H3.42V0.229h1.853v0.4H3.875v1.26h1.306v0.4H3.875V3.799z"/>
			<path class="p" d="M8.015,1.274c0,0.148-0.022,0.29-0.067,0.427C7.903,1.838,7.83,1.959,7.727,2.064C7.625,2.169,7.489,2.253,7.32,2.315C7.152,2.378,6.944,2.41,6.697,2.41H6.331v1.389H5.876V0.229H6.76c0.218,0,0.406,0.023,0.564,0.069c0.158,0.047,0.288,0.114,0.391,0.203S7.893,0.7,7.942,0.83S8.015,1.108,8.015,1.274z M6.331,2.023h0.315c0.151,0,0.284-0.013,0.396-0.039c0.113-0.025,0.207-0.067,0.281-0.125C7.397,1.802,7.453,1.727,7.49,1.635s0.056-0.204,0.056-0.336c0-0.231-0.067-0.402-0.2-0.514S7.004,0.617,6.721,0.617H6.331V2.023z"/>
			<path class="l" d="M9.141,3.799H8.696V0h0.444V3.799z"/>
			<path class="a" d="M11.501,3.799l-0.09-0.371h-0.02c-0.054,0.073-0.107,0.137-0.161,0.189s-0.112,0.096-0.176,0.131c-0.063,0.033-0.134,0.059-0.212,0.075s-0.168,0.024-0.271,0.024c-0.112,0-0.216-0.016-0.31-0.048c-0.094-0.031-0.176-0.08-0.246-0.146C9.947,3.588,9.893,3.505,9.854,3.404c-0.039-0.1-0.059-0.219-0.059-0.355c0-0.267,0.094-0.472,0.282-0.615c0.188-0.143,0.474-0.221,0.858-0.234l0.449-0.017V2.014c0-0.108-0.012-0.199-0.036-0.273c-0.023-0.072-0.058-0.132-0.103-0.177c-0.044-0.045-0.1-0.077-0.166-0.097c-0.065-0.02-0.141-0.029-0.226-0.029c-0.135,0-0.261,0.02-0.377,0.059c-0.117,0.039-0.229,0.087-0.336,0.143L9.985,1.304c0.121-0.065,0.255-0.12,0.403-0.166s0.304-0.068,0.466-0.068c0.166,0,0.31,0.017,0.431,0.05c0.122,0.033,0.222,0.087,0.301,0.159c0.079,0.072,0.138,0.165,0.177,0.276c0.039,0.113,0.059,0.249,0.059,0.408v1.836H11.501z M10.686,3.488c0.099,0,0.191-0.015,0.276-0.046s0.158-0.078,0.22-0.141s0.11-0.142,0.146-0.236c0.035-0.096,0.052-0.207,0.052-0.336V2.488L11.03,2.505c-0.146,0.007-0.27,0.022-0.369,0.049s-0.179,0.062-0.238,0.108c-0.06,0.047-0.103,0.103-0.128,0.169c-0.026,0.065-0.039,0.14-0.039,0.224c0,0.149,0.04,0.259,0.119,0.329C10.454,3.454,10.558,3.488,10.686,3.488z"/>
			<path class="y" d="M12.244,1.118h0.461l0.525,1.497c0.023,0.064,0.046,0.133,0.069,0.205c0.024,0.071,0.046,0.143,0.066,0.215c0.02,0.071,0.038,0.141,0.052,0.207s0.025,0.129,0.032,0.186h0.015c0.008-0.041,0.021-0.096,0.039-0.166s0.038-0.145,0.06-0.224c0.022-0.079,0.045-0.156,0.068-0.233c0.024-0.076,0.044-0.141,0.062-0.195l0.486-1.491h0.459l-1.06,3.03c-0.045,0.131-0.095,0.25-0.148,0.354c-0.053,0.105-0.114,0.194-0.184,0.268S13.095,4.9,13,4.94S12.794,5,12.664,5c-0.084,0-0.158-0.005-0.22-0.014s-0.115-0.018-0.159-0.027V4.604c0.034,0.008,0.077,0.015,0.129,0.021s0.106,0.009,0.164,0.009c0.078,0,0.146-0.01,0.203-0.028s0.106-0.046,0.149-0.082c0.042-0.035,0.079-0.079,0.109-0.131c0.03-0.053,0.057-0.112,0.082-0.179l0.139-0.391L12.244,1.118z"/>
			<path class="e" d="M16.147,3.848c-0.179,0-0.342-0.03-0.49-0.09c-0.148-0.061-0.275-0.148-0.382-0.264c-0.106-0.116-0.189-0.26-0.248-0.43c-0.059-0.172-0.088-0.367-0.088-0.586c0-0.222,0.027-0.42,0.081-0.594s0.129-0.322,0.227-0.443s0.214-0.213,0.35-0.277c0.137-0.062,0.287-0.095,0.451-0.095c0.161,0,0.307,0.029,0.435,0.087s0.237,0.139,0.327,0.244c0.09,0.104,0.158,0.23,0.207,0.378c0.047,0.147,0.071,0.311,0.071,0.489v0.276h-1.689c0.008,0.314,0.075,0.545,0.198,0.693c0.125,0.148,0.311,0.222,0.557,0.222c0.082,0,0.16-0.004,0.23-0.012s0.139-0.02,0.205-0.035s0.129-0.035,0.191-0.059s0.125-0.051,0.188-0.08V3.67c-0.064,0.03-0.129,0.058-0.191,0.08s-0.127,0.041-0.193,0.057c-0.064,0.014-0.133,0.024-0.205,0.031C16.307,3.845,16.231,3.848,16.147,3.848z M16.038,1.438c-0.186,0-0.332,0.064-0.441,0.191c-0.107,0.127-0.17,0.312-0.188,0.554h1.201c0-0.11-0.011-0.212-0.032-0.304c-0.023-0.092-0.057-0.171-0.104-0.236c-0.047-0.064-0.105-0.115-0.177-0.15C16.225,1.456,16.139,1.438,16.038,1.438z"/>
			<path class="r" d="M18.923,1.069c0.048,0,0.101,0.002,0.159,0.006s0.108,0.011,0.15,0.019l-0.059,0.41c-0.045-0.008-0.092-0.015-0.141-0.021c-0.047-0.006-0.092-0.009-0.135-0.009c-0.103,0-0.196,0.021-0.281,0.062c-0.084,0.041-0.156,0.101-0.219,0.178c-0.061,0.077-0.107,0.17-0.141,0.278s-0.051,0.229-0.051,0.36v1.445h-0.443V1.118h0.361l0.053,0.491h0.02c0.041-0.07,0.084-0.138,0.131-0.203s0.099-0.122,0.156-0.172c0.059-0.05,0.123-0.09,0.194-0.12S18.833,1.069,18.923,1.069z"/>
			<path class="m" d="M22.592,3.799l-1.081-3.125h-0.02c0.01,0.12,0.019,0.24,0.024,0.359c0.006,0.102,0.012,0.21,0.016,0.323s0.006,0.216,0.006,0.309v2.134h-0.42V0.229h0.674l1.006,2.91h0.016l1.01-2.91h0.674v3.569h-0.453V1.633c0-0.084,0.001-0.181,0.004-0.29c0.004-0.109,0.008-0.213,0.013-0.312c0.007-0.115,0.013-0.232,0.017-0.352h-0.02l-1.091,3.12H22.592z"/>
			<path class="i" d="M25.374,0.393c0-0.098,0.025-0.168,0.074-0.212c0.05-0.044,0.111-0.065,0.185-0.065c0.036,0,0.069,0.005,0.102,0.016c0.031,0.011,0.06,0.027,0.083,0.05s0.042,0.052,0.056,0.087c0.015,0.035,0.021,0.076,0.021,0.125c0,0.095-0.025,0.165-0.076,0.212c-0.052,0.046-0.113,0.069-0.185,0.069c-0.073,0-0.135-0.022-0.185-0.068C25.399,0.56,25.374,0.489,25.374,0.393z M25.852,3.799h-0.444V1.118h0.444V3.799z"/>
			<path class="n" d="M28.376,3.799V2.072c0-0.211-0.043-0.37-0.128-0.476c-0.086-0.105-0.22-0.159-0.402-0.159c-0.131,0-0.242,0.021-0.332,0.064c-0.089,0.042-0.161,0.104-0.216,0.188c-0.054,0.083-0.093,0.185-0.117,0.305c-0.023,0.121-0.035,0.26-0.035,0.416v1.389h-0.444V1.118h0.361l0.063,0.361h0.024c0.041-0.07,0.089-0.131,0.146-0.182c0.056-0.052,0.117-0.095,0.185-0.128c0.066-0.035,0.137-0.06,0.212-0.076s0.151-0.024,0.229-0.024c0.298,0,0.521,0.078,0.673,0.233c0.15,0.155,0.226,0.404,0.226,0.746v1.75H28.376z"/>
			<path class="i" d="M29.612,0.393c0-0.098,0.024-0.168,0.074-0.212s0.111-0.065,0.185-0.065c0.036,0,0.069,0.005,0.102,0.016c0.031,0.011,0.06,0.027,0.083,0.05s0.042,0.052,0.056,0.087s0.021,0.076,0.021,0.125c0,0.095-0.025,0.165-0.076,0.212c-0.052,0.046-0.113,0.069-0.185,0.069c-0.073,0-0.135-0.022-0.185-0.068S29.612,0.489,29.612,0.393z M30.09,3.799h-0.444V1.118h0.444V3.799z"/>
		</g>
		<path class="board-outside" d="M56.544,0.5c0.275,0,0.499,0.224,0.499,0.499v55.545c0,0.275-0.224,0.499-0.499,0.499h-7.792h-0.5v0.5v2.034h-5.911c-0.645,0-1.271-0.136-1.86-0.403l-3.918-1.781c-0.458-0.208-0.945-0.313-1.447-0.313H9.292v-0.037h-0.5H0.999c-0.275,0-0.499-0.224-0.499-0.499V0.999C0.5,0.724,0.724,0.5,0.999,0.5h23.807c0.247,1.969,1.931,3.497,3.965,3.497c2.034,0,3.719-1.528,3.965-3.497H56.544 M56.544,0H32.268c0,1.931-1.565,3.497-3.497,3.497S25.275,1.931,25.275,0H0.999C0.448,0,0,0.448,0,0.999v55.545c0,0.551,0.448,0.999,0.999,0.999h7.793c0,0.012,0,0.024,0,0.037h26.324c0.429,0,0.851,0.092,1.241,0.269l3.918,1.781c0.649,0.295,1.354,0.448,2.067,0.448h6.411c0-0.845,0-1.69,0-2.534h7.792c0.551,0,0.999-0.448,0.999-0.999V0.999C57.543,0.448,57.096,0,56.544,0L56.544,0z"/>
		<path class="micro-sd-outline" d="M8.792,17.118c0,0.667,0,1.333,0,2h0.5v-2C9.125,17.118,8.958,17.118,8.792,17.118L8.792,17.118z M9.292,21.118h-0.5c0,0.667,0,1.333,0,2h0.5V21.118L9.292,21.118z M9.292,25.118h-0.5c0,0.667,0,1.333,0,2h0.5V25.118L9.292,25.118z M9.292,29.118h-0.5c0,0.667,0,1.333,0,2h0.5V29.118L9.292,29.118z M9.292,33.118h-0.5c0,0.667,0,1.333,0,2h0.5V33.118L9.292,33.118z M9.292,37.118h-0.5c0,0.667,0,1.333,0,2h0.5V37.118L9.292,37.118z M9.292,41.118h-0.5c0,0.667,0,1.333,0,2h0.5V41.118L9.292,41.118z M9.292,45.118h-0.5c0,0.667,0,1.333,0,2h0.5V45.118L9.292,45.118z M9.292,49.118h-0.5c0,0.667,0,1.333,0,2h0.5V49.118L9.292,49.118z M9.292,53.118h-0.5c0,0.667,0,1.333,0,2h0.5V53.118L9.292,53.118z M10.33,57.08H8.792v0.038l0,0V57.08v0.038l0,0c0,0.154,0,0.308,0,0.462h0.5l0,0l0,0l0,0l0,0c0.449,0,1.038,0,1.038,0V57.08L10.33,57.08z M14.33,57.08h-2v0.5h2V57.08L14.33,57.08z M18.33,57.08h-2v0.5h2V57.08L18.33,57.08z M22.33,57.08h-2v0.5h2V57.08L22.33,57.08z M26.33,57.08h-2v0.5h2V57.08L26.33,57.08z M30.33,57.08h-2v0.5h2V57.08L30.33,57.08z M34.33,57.08h-2v0.5h2V57.08L34.33,57.08z M36.493,57.363l-0.197,0.46c0.003,0.001,0.007,0.003,0.01,0.004c0.017,0.007,0.033,0.014,0.049,0.022c0,0,0,0,0,0h0c0.004,0.002,1.761,0.801,1.761,0.801l0.207-0.455l-1.761-0.801L36.493,57.363L36.493,57.363z M40.145,59.022l-0.207,0.455l0.334,0.152c0,0,0,0,0,0l0.001,0c0,0,0.001,0,0.001,0l0,0c0,0,0.001,0,0.001,0l0,0c0,0,0,0,0,0l0,0l0,0c0.002,0.001,0.003,0.002,0.005,0.002c0,0,0.001,0,0.001,0.001c0.002,0.001,0.003,0.002,0.005,0.002c0,0,0,0,0,0c0.002,0.001,0.003,0.002,0.005,0.002c0,0,0.001,0,0.001,0c0.002,0.001,0.004,0.002,0.005,0.002c0,0,0,0,0,0c0.002,0.001,0.003,0.002,0.005,0.002c0,0,0,0,0.001,0c0.002,0.001,0.004,0.002,0.005,0.002c0,0,0,0,0,0c0.002,0.001,0.003,0.002,0.005,0.002c0,0,0,0,0.001,0c0.002,0.001,0.004,0.002,0.005,0.002c0,0,0,0,0.001,0c0.002,0.001,0.003,0.002,0.005,0.002c0,0,0,0,0,0c0.002,0.001,0.004,0.002,0.006,0.002c0,0,0,0,0,0c0.004,0.002,0.007,0.003,0.011,0.005c0,0,0,0,0.001,0c0.004,0.002,0.007,0.003,0.011,0.005c0,0,0,0,0,0c0.004,0.002,0.007,0.003,0.011,0.005c0,0,0,0,0.001,0c0.004,0.002,0.007,0.003,0.011,0.005c0,0,0,0,0,0c0.004,0.002,0.008,0.003,0.011,0.005c0,0,0,0,0,0c0.302,0.128,0.615,0.226,0.935,0.292c0,0,0,0,0,0c0.004,0.001,0.008,0.002,0.012,0.003c0,0,0,0,0,0c0.004,0.001,0.008,0.002,0.012,0.002c0,0,0,0,0,0c0.004,0.001,0.008,0.002,0.012,0.002c0,0,0,0,0,0c0.004,0.001,0.008,0.002,0.012,0.002c0,0,0,0,0,0c0.002,0,0.004,0.001,0.006,0.001c0,0,0,0,0,0c0.002,0,0.004,0.001,0.006,0.001c0,0,0,0,0,0c0.002,0,0.004,0.001,0.006,0.001c0,0,0,0,0.001,0c0.002,0,0.004,0.001,0.006,0.001c0,0,0,0,0,0c0.002,0,0.004,0.001,0.006,0.001c0,0,0.001,0,0.001,0c0.002,0,0.004,0.001,0.006,0.001c0,0,0,0,0,0c0.002,0,0.004,0.001,0.006,0.001c0,0,0.001,0,0.001,0c0.002,0,0.004,0.001,0.006,0.001c0,0,0,0,0,0c0.002,0,0.004,0.001,0.006,0.001c0,0,0.001,0,0.001,0c0.002,0,0.004,0.001,0.005,0.001c0,0,0,0,0,0c0.002,0,0.004,0.001,0.005,0.001c0,0,0.001,0,0.001,0c0.002,0,0.004,0.001,0.005,0.001c0,0,0,0,0.001,0c0.002,0,0.003,0.001,0.005,0.001c0,0,0.001,0,0.001,0c0.002,0,0.004,0.001,0.005,0.001c0,0,0.001,0,0.001,0c0.002,0,0.003,0.001,0.005,0.001c0,0,0.001,0,0.001,0c0.002,0,0.004,0.001,0.005,0.001c0,0,0.001,0,0.001,0c0.002,0,0.003,0.001,0.005,0.001c0,0,0.001,0,0.001,0c0.002,0,0.003,0.001,0.005,0.001c0.001,0,0.001,0,0.002,0c0.001,0,0.003,0,0.004,0.001c0,0,0.001,0,0.001,0c0.002,0,0.003,0.001,0.005,0.001c0.001,0,0.001,0,0.002,0c0.001,0,0.003,0,0.004,0.001c0.001,0,0.001,0,0.002,0c0.002,0,0.003,0.001,0.005,0.001c0.001,0,0.001,0,0.002,0c0.001,0,0.003,0,0.004,0.001c0,0,0.001,0,0.001,0c0.002,0,0.003,0.001,0.005,0.001c0.001,0,0.001,0,0.002,0c0.001,0,0.003,0,0.004,0.001c0.001,0,0.002,0,0.002,0c0.001,0,0.003,0,0.004,0.001c0.001,0,0.002,0,0.002,0c0.001,0,0.003,0,0.004,0.001c0.001,0,0.002,0,0.002,0c0.001,0,0.002,0,0.004,0.001c0.001,0,0.002,0,0.002,0c0.001,0,0.003,0,0.004,0.001c0.001,0,0.002,0,0.003,0c0.001,0,0.002,0,0.003,0c0.001,0,0.002,0,0.003,0c0.001,0,0.003,0,0.004,0.001c0.001,0,0.002,0,0.003,0c0.001,0,0.002,0,0.003,0c0.001,0,0.002,0,0.003,0c0.001,0,0.002,0,0.004,0.001c0.001,0,0.002,0,0.004,0.001c0.001,0,0.001,0,0.002,0c0.001,0,0.002,0,0.003,0c0.001,0,0.003,0,0.004,0.001c0.001,0,0.002,0,0.003,0c0.001,0,0.001,0,0.002,0c0.002,0,0.004,0.001,0.005,0.001c0.001,0,0.001,0,0.002,0c0.001,0,0.002,0,0.003,0c0.001,0,0.001,0,0.002,0c0.002,0,0.004,0.001,0.006,0.001c0,0,0.001,0,0.001,0c0.001,0,0.002,0,0.004,0.001c0,0,0.001,0,0.001,0c0.002,0,0.004,0.001,0.007,0.001c0,0,0.001,0,0.001,0c0.001,0,0.002,0,0.004,0.001c0,0,0,0,0.001,0c0.002,0,0.005,0.001,0.007,0.001c0,0,0,0,0.001,0c0.001,0,0.003,0,0.004,0.001c0,0,0,0,0,0c0.007,0.001,0.014,0.002,0.02,0.003c0,0,0,0,0,0c0.058,0.008,0.115,0.015,0.173,0.02l0.05-0.497c-0.488-0.049-0.963-0.177-1.411-0.38L40.145,59.022L40.145,59.022z M45.841,59.578h-2v0.5h2V59.578L45.841,59.578z M48.752,58.989h-0.5v0.589h-0.411v0.5h0.911C48.752,59.715,48.752,59.351,48.752,58.989L48.752,58.989z M48.752,54.989h-0.5v2h0.5C48.752,56.322,48.752,55.656,48.752,54.989L48.752,54.989z M48.752,50.989h-0.5v2h0.5C48.752,52.323,48.752,51.655,48.752,50.989L48.752,50.989z M48.752,46.989h-0.5v2h0.5C48.752,48.322,48.752,47.656,48.752,46.989L48.752,46.989z M48.752,42.989h-0.5v2h0.5C48.752,44.323,48.752,43.655,48.752,42.989L48.752,42.989z M48.752,38.989h-0.5v2h0.5C48.752,40.322,48.752,39.656,48.752,38.989L48.752,38.989z M48.752,34.989h-0.5v2h0.5C48.752,36.323,48.752,35.655,48.752,34.989L48.752,34.989z M48.752,30.989h-0.5v2h0.5C48.752,32.322,48.752,31.656,48.752,30.989L48.752,30.989z M48.752,26.989h-0.5v2h0.5C48.752,28.322,48.752,27.656,48.752,26.989L48.752,26.989z M48.752,22.989h-0.5v2h0.5C48.752,24.322,48.752,23.656,48.752,22.989L48.752,22.989z M48.752,18.989h-0.5v2h0.5C48.752,20.322,48.752,19.656,48.752,18.989L48.752,18.989z M48.623,17.118c-0.667,0-1.333,0-2,0v0.5h2V17.118L48.623,17.118z M42.777,17.118c-0.051,0-0.103,0-0.154,0v0.5h2v-0.5C44.008,17.118,43.392,17.118,42.777,17.118L42.777,17.118z M38.623,17.118v0.5l2,0v-0.5c-0.351,0-0.702,0-1.053,0C39.254,17.118,38.938,17.118,38.623,17.118L38.623,17.118z M36.623,17.118c-0.667,0-1.333,0-2,0v0.5h2V17.118L36.623,17.118z M31.969,17.118c-0.449,0-0.897,0-1.346,0v0.5h2v-0.5C32.405,17.118,32.187,17.118,31.969,17.118L31.969,17.118z M27.022,17.118c-0.133,0-0.266,0-0.399,0v0.5h2v-0.5C28.089,17.118,27.556,17.118,27.022,17.118L27.022,17.118z M22.623,17.118v0.5l2,0v-0.5c-0.204,0-0.409,0-0.613,0C23.548,17.118,23.085,17.118,22.623,17.118L22.623,17.118z M18.623,17.118v0.5l2,0v-0.5c-0.131,0-0.263,0-0.394,0C19.694,17.118,19.158,17.118,18.623,17.118L18.623,17.118z M14.623,17.118v0.5l2,0v-0.5c-0.313,0-0.627,0-0.94,0C15.33,17.118,14.976,17.118,14.623,17.118L14.623,17.118z M10.623,17.118v0.5l2,0v-0.5c-0.52,0-1.041,0-1.561,0C10.916,17.118,10.769,17.118,10.623,17.118L10.623,17.118z"/>
	</g>
</g>
<g id="copper1">
	<g id="copper0">
		<g class="pads" fill="none" >
			<g class="pads-left">
				<circle stroke="#F7BD13" stroke-width="1.5" id="connector0pad" class="pad-vcc"   cx="3.6" cy="3.6" r="2.05"/>
				<circle stroke="#F7BD13" stroke-width="1.5" id="connector1pad" class="pad-rx"    cx="3.6" cy="3.6" r="2.05" transform="translate(0, 7.2)"/>
				<circle stroke="#F7BD13" stroke-width="1.5" id="connector2pad" class="pad-tx"    cx="3.6" cy="3.6" r="2.05" transform="translate(0, 14.4)"/>
				<circle stroke="#F7BD13" stroke-width="1.5" id="connector3pad" class="pad-dac-r" cx="3.6" cy="3.6" r="2.05" transform="translate(0, 21.6)"/>
				<circle stroke="#F7BD13" stroke-width="1.5" id="connector4pad" class="pad-dac-l" cx="3.6" cy="3.6" r="2.05" transform="translate(0, 28.8)"/>
				<circle stroke="#F7BD13" stroke-width="1.5" id="connector5pad" class="pad-spk-1" cx="3.6" cy="3.6" r="2.05" transform="translate(0, 36.0)"/>
				<circle stroke="#F7BD13" stroke-width="1.5" id="connector6pad" class="pad-gnd-1" cx="3.6" cy="3.6" r="2.05" transform="translate(0, 43.2)"/>
				<circle stroke="#F7BD13" stroke-width="1.5" id="connector7pad" class="pad-spk-2" cx="3.6" cy="3.6" r="2.05" transform="translate(0, 50.4)"/>
			</g>
			<g class="pads-right">
				<circle stroke="#F7BD13" stroke-width="1.5" id="connector15pad" class="pad-busy"    cx="3.6" cy="3.6" r="2.05" transform="translate(50.4, 0)"/>
				<circle stroke="#F7BD13" stroke-width="1.5" id="connector14pad" class="pad-usb-m"   cx="3.6" cy="3.6" r="2.05" transform="translate(50.4, 7.2)"/>
				<circle stroke="#F7BD13" stroke-width="1.5" id="connector13pad" class="pad-usb-p"   cx="3.6" cy="3.6" r="2.05" transform="translate(50.4, 14.4)"/>
				<circle stroke="#F7BD13" stroke-width="1.5" id="connector12pad" class="pad-adkey-2" cx="3.6" cy="3.6" r="2.05" transform="translate(50.4, 21.6)"/>
				<circle stroke="#F7BD13" stroke-width="1.5" id="connector11pad" class="pad-adkey-1" cx="3.6" cy="3.6" r="2.05" transform="translate(50.4, 28.8)"/>
				<circle stroke="#F7BD13" stroke-width="1.5" id="connector10pad" class="pad-io-2"    cx="3.6" cy="3.6" r="2.05" transform="translate(50.4, 36.0)"/>
				<circle stroke="#F7BD13" stroke-width="1.5" id="connector9pad"  class="pad-gnd-2"   cx="3.6" cy="3.6" r="2.05" transform="translate(50.4, 43.2)"/>
				<circle stroke="#F7BD13" stroke-width="1.5" id="connector8pad"  class="pad-io-1"    cx="3.6" cy="3.6" r="2.05" transform="translate(50.4, 50.4)"/>
			</g>
		</g>
	</g>
</g>
</svg>
