<?xml version="1.0" encoding="utf-8"?>
<!-- Generator: Adobe Illustrator 16.0.0, SVG Export Plug-In . SVG Version: 6.00 Build 0)  -->
<svg version="1.2" baseProfile="tiny" id="Layer_1" xmlns="http://www.w3.org/2000/svg" xmlns:xlink="http://www.w3.org/1999/xlink"
	 x="0px" y="0px" width="143.12px" height="143.47px" viewBox="0 0 143.12 143.47" xml:space="preserve">
<g id="silkscreen">
	<rect x="0.668" y="0.917" fill="none" stroke="#FFFFFF" width="141.66" height="141.659"/>
	<circle fill="none" stroke="#FFFFFF" cx="23.348" cy="94.397" r="3.96"/>
	<circle fill="none" stroke="#FFFFFF" cx="71.468" cy="29.296" r="3.96"/>
	<circle fill="none" stroke="#FFFFFF" cx="119.648" cy="94.397" r="3.96"/>
	<circle fill="none" stroke="#FFFFFF" cx="123.608" cy="124.936" r="1.44"/>
	<circle fill="none" stroke="#FFFFFF" cx="123.608" cy="107.656" r="1.44"/>
	<circle fill="none" stroke="#FFFFFF" cx="137.168" cy="116.476" r="1.44"/>
	<line fill="none" stroke="#FFFFFF" x1="1.388" y1="1.637" x2="12.188" y2="1.637"/>
	<line fill="none" stroke="#FFFFFF" x1="19.388" y1="1.637" x2="30.188" y2="1.637"/>
</g>
<g id="copper1">
	<g id="copper0">
		<circle id="connector0pin" fill="none" stroke="#FFBF00" stroke-width="1.5" cx="39.098" cy="113.47" r="1.979"/>
		<circle id="connector39pin" fill="none" stroke="#FFBF00" stroke-width="1.5" cx="139.848" cy="89.021" r="1.98"/>
		<circle id="connector1pin" fill="none" stroke="#FFBF00" stroke-width="1.5" cx="46.297" cy="113.471" r="1.98"/>
		<circle id="connector38pin" fill="none" stroke="#FFBF00" stroke-width="1.5" cx="139.848" cy="81.821" r="1.979"/>
		<circle id="connector2pin" fill="none" stroke="#FFBF00" stroke-width="1.5" cx="53.497" cy="113.471" r="1.98"/>
		<circle id="connector37pin" fill="none" stroke="#FFBF00" stroke-width="1.5" cx="139.848" cy="74.62" r="1.98"/>
		<circle id="connector3pin" fill="none" stroke="#FFBF00" stroke-width="1.5" cx="60.697" cy="113.47" r="1.98"/>
		<circle id="connector36pin" fill="none" stroke="#FFBF00" stroke-width="1.5" cx="139.848" cy="67.421" r="1.98"/>
		<circle id="connector4pin" fill="none" stroke="#FFBF00" stroke-width="1.5" cx="67.897" cy="113.47" r="1.98"/>
		<circle id="connector35pin" fill="none" stroke="#FFBF00" stroke-width="1.5" cx="139.848" cy="60.22" r="1.98"/>
		<circle id="connector5pin" fill="none" stroke="#FFBF00" stroke-width="1.5" cx="75.097" cy="113.47" r="1.98"/>
		<circle id="connector34pin" fill="none" stroke="#FFBF00" stroke-width="1.5" cx="139.848" cy="53.02" r="1.98"/>
		<circle id="connector6pin" fill="none" stroke="#FFBF00" stroke-width="1.5" cx="82.297" cy="113.47" r="1.98"/>
		<circle id="connector33pin" fill="none" stroke="#FFBF00" stroke-width="1.5" cx="139.848" cy="45.82" r="1.98"/>
		<circle id="connector7pin" fill="none" stroke="#FFBF00" stroke-width="1.5" cx="89.497" cy="113.47" r="1.98"/>
		<circle id="connector32pin" fill="none" stroke="#FFBF00" stroke-width="1.5" cx="139.848" cy="38.62" r="1.98"/>
		<circle id="connector8pin" fill="none" stroke="#FFBF00" stroke-width="1.5" cx="96.697" cy="113.471" r="1.98"/>
		<circle id="connector31pin" fill="none" stroke="#FFBF00" stroke-width="1.5" cx="139.848" cy="31.421" r="1.98"/>
		<circle id="connector9pin" fill="none" stroke="#FFBF00" stroke-width="1.5" cx="103.897" cy="113.47" r="1.98"/>
		<circle id="connector30pin" fill="none" stroke="#FFBF00" stroke-width="1.5" cx="139.848" cy="24.22" r="1.98"/>
		<circle id="connector10pin" fill="none" stroke="#FFBF00" stroke-width="1.5" cx="39.133" cy="120.657" r="1.98"/>
		<circle id="connector29pin" fill="none" stroke="#FFBF00" stroke-width="1.5" cx="3.086" cy="89.016" r="1.98"/>
		<circle id="connector11pin" fill="none" stroke="#FFBF00" stroke-width="1.5" cx="46.334" cy="120.657" r="1.98"/>
		<circle id="connector28pin" fill="none" stroke="#FFBF00" stroke-width="1.5" cx="3.086" cy="81.816" r="1.98"/>
		<circle id="connector12pin" fill="none" stroke="#FFBF00" stroke-width="1.5" cx="53.533" cy="120.657" r="1.98"/>
		<circle id="connector27pin" fill="none" stroke="#FFBF00" stroke-width="1.5" cx="3.086" cy="74.616" r="1.98"/>
		<circle id="connector13pin" fill="none" stroke="#FFBF00" stroke-width="1.5" cx="60.733" cy="120.657" r="1.979"/>
		<circle id="connector26pin" fill="none" stroke="#FFBF00" stroke-width="1.5" cx="3.086" cy="67.417" r="1.98"/>
		<circle id="connector14pin" fill="none" stroke="#FFBF00" stroke-width="1.5" cx="67.933" cy="120.657" r="1.98"/>
		<circle id="connector25pin" fill="none" stroke="#FFBF00" stroke-width="1.5" cx="3.086" cy="60.217" r="1.98"/>
		<circle id="connector15pin" fill="none" stroke="#FFBF00" stroke-width="1.5" cx="75.134" cy="120.657" r="1.979"/>
		<circle id="connector24pin" fill="none" stroke="#FFBF00" stroke-width="1.5" cx="3.086" cy="53.016" r="1.98"/>
		<circle id="connector16pin" fill="none" stroke="#FFBF00" stroke-width="1.5" cx="82.333" cy="120.657" r="1.98"/>
		<circle id="connector23pin" fill="none" stroke="#FFBF00" stroke-width="1.5" cx="3.086" cy="45.816" r="1.98"/>
		<circle id="connector17pin" fill="none" stroke="#FFBF00" stroke-width="1.5" cx="89.533" cy="120.657" r="1.98"/>
		<circle id="connector22pin" fill="none" stroke="#FFBF00" stroke-width="1.5" cx="3.086" cy="38.616" r="1.98"/>
		<circle id="connector18pin" fill="none" stroke="#FFBF00" stroke-width="1.5" cx="96.733" cy="120.657" r="1.98"/>
		<circle id="connector21pin" fill="none" stroke="#FFBF00" stroke-width="1.5" cx="3.086" cy="31.417" r="1.98"/>
		<circle id="connector19pin" fill="none" stroke="#FFBF00" stroke-width="1.5" cx="103.934" cy="120.657" r="1.98"/>
		<circle id="connector20pin" fill="none" stroke="#FFBF00" stroke-width="1.5" cx="3.086" cy="24.217" r="1.98"/>
	</g>
</g>
</svg>
