<?xml version="1.0" encoding="utf-8"?>
<!-- Generator: Adobe Illustrator 16.0.0, SVG Export Plug-In . SVG Version: 6.00 Build 0)  -->
<!DOCTYPE svg PUBLIC "-//W3C//DTD SVG 1.1//EN" "http://www.w3.org/Graphics/SVG/1.1/DTD/svg11.dtd">
<svg version="1.1" id="Layer_1" xmlns:xml="http://www.w3.org/XML/1998/namespace"
	 xmlns="http://www.w3.org/2000/svg" xmlns:xlink="http://www.w3.org/1999/xlink" x="0px" y="0px" width="50.982px"
	 height="65.486px" viewBox="0 0 50.982 65.486" enable-background="new 0 0 50.982 65.486" xml:space="preserve">
<g id="copper0">
	<g id="copper1">
		<circle id="connector147" fill="none" stroke="#F7BD13" cx="43.227" cy="56.694" r="1.597"/>
		<circle id="connector130" fill="none" stroke="#F7BD13" cx="7.375" cy="6.752" r="1.596"/>
		<circle id="connector131" fill="none" stroke="#F7BD13" cx="7.375" cy="13.888" r="1.596"/>
		<circle id="connector132" fill="none" stroke="#F7BD13" cx="7.375" cy="21.021" r="1.597"/>
		<circle id="connector133" fill="none" stroke="#F7BD13" cx="7.375" cy="28.156" r="1.597"/>
		<circle id="connector134" fill="none" stroke="#F7BD13" cx="7.375" cy="35.29" r="1.596"/>
		<circle id="connector135" fill="none" stroke="#F7BD13" cx="7.375" cy="42.424" r="1.595"/>
		<circle id="connector136" fill="none" stroke="#F7BD13" cx="7.375" cy="49.561" r="1.596"/>
		<circle id="connector137" fill="none" stroke="#F7BD13" cx="7.375" cy="56.694" r="1.597"/>
		<circle id="connector140" fill="none" stroke="#F7BD13" cx="43.227" cy="6.752" r="1.596"/>
		<circle id="connector141" fill="none" stroke="#F7BD13" cx="43.227" cy="13.888" r="1.596"/>
		<circle id="connector142" fill="none" stroke="#F7BD13" cx="43.227" cy="21.021" r="1.597"/>
		<circle id="connector143" fill="none" stroke="#F7BD13" cx="43.227" cy="28.156" r="1.597"/>
		<circle id="connector144" fill="none" stroke="#F7BD13" cx="43.227" cy="35.29" r="1.596"/>
		<circle id="connector145" fill="none" stroke="#F7BD13" cx="43.227" cy="42.424" r="1.595"/>
		<circle id="connector146" fill="none" stroke="#F7BD13" cx="43.227" cy="49.561" r="1.596"/>
	</g>
</g>
<g id="silkscreen1">
	<polyline fill="none" stroke="#000000" stroke-width="0.5" stroke-miterlimit="10" points="8.077,0.268 0.295,0.268 0.295,65.192 
		8.077,65.192 	"/>
	<polyline fill="none" stroke="#000000" stroke-width="0.5" stroke-miterlimit="10" points="42.981,65.228 50.763,65.228 
		50.763,0.303 42.981,0.303 	"/>
</g>
</svg>
