<?xml version="1.0" encoding="utf-8"?>
<!-- Generator: Adobe Illustrator 16.0.0, SVG Export Plug-In . SVG Version: 6.00 Build 0)  -->
<!DOCTYPE svg PUBLIC "-//W3C//DTD SVG 1.1//EN" "http://www.w3.org/Graphics/SVG/1.1/DTD/svg11.dtd">
<svg version="1.1" id="Ebene_1" xmlns:svg="http://www.w3.org/2000/svg"
	 xmlns="http://www.w3.org/2000/svg" xmlns:xlink="http://www.w3.org/1999/xlink" x="0px" y="0px" width="150.75px"
	 height="58.172px" viewBox="0 0 150.75 58.172" enable-background="new 0 0 150.75 58.172" xml:space="preserve">
<g id="silkscreen">
	<path id="board_outline" fill="none" stroke="#000000" stroke-miterlimit="10" d="M145.779,0H8.542L0,4.489v49.27L8.832,58.1
		l136.947,0.072V38.876h4.896l-0.001-19.652h-4.896V0L145.779,0z"/>
	<g>
		<g>
			<text transform="matrix(1 0 0 1 131.4395 10.7104)" font-family="'DroidSans'" font-size="3.5">VIN</text>
		</g>
		<g>
			<text transform="matrix(1 0 0 1 122.7734 10.7104)" font-family="'DroidSans'" font-size="3.5">BND</text>
		</g>
		<g>
			<text transform="matrix(1 0 0 1 117.5723 10.7104)" font-family="'DroidSans'" font-size="3.5">TX</text>
		</g>
		<g>
			<text transform="matrix(1 0 0 1 110.373 10.7104)" font-family="'DroidSans'" font-size="3.5">RX</text>
		</g>
		<g>
			<text transform="matrix(1 0 0 1 102.1719 10.7104)" font-family="'DroidSans'" font-size="3.5">WKP</text>
		</g>
		<g>
			<text transform="matrix(1 0 0 1 94.9727 10.7104)" font-family="'DroidSans'" font-size="3.5">DAC</text>
		</g>
		<g>
			<text transform="matrix(1 0 0 1 88.7715 10.7104)" font-family="'DroidSans'" font-size="3.5">A5</text>
		</g>
		<g>
			<text transform="matrix(1 0 0 1 81.5723 10.7104)" font-family="'DroidSans'" font-size="3.5">A4</text>
		</g>
		<g>
			<text transform="matrix(1 0 0 1 74.3716 10.7104)" font-family="'DroidSans'" font-size="3.5">A3</text>
		</g>
		<g>
			<text transform="matrix(1 0 0 1 67.1714 10.7104)" font-family="'DroidSans'" font-size="3.5">A2</text>
		</g>
		<g>
			<text transform="matrix(1 0 0 1 59.9712 10.7104)" font-family="'DroidSans'" font-size="3.5">A1</text>
		</g>
		<g>
			<text transform="matrix(1 0 0 1 52.771 10.7104)" font-family="'DroidSans'" font-size="3.5">A0</text>
		</g>
		<g>
			<text transform="matrix(1 0 0 1 45.5708 10.7104)" font-family="'DroidSans'" font-size="3.5">B5</text>
		</g>
		<g>
			<text transform="matrix(1 0 0 1 38.3706 10.7104)" font-family="'DroidSans'" font-size="3.5">B4</text>
		</g>
		<g>
			<text transform="matrix(1 0 0 1 31.1704 10.7104)" font-family="'DroidSans'" font-size="3.5">B3</text>
		</g>
		<g>
			<text transform="matrix(1 0 0 1 23.9702 10.7104)" font-family="'DroidSans'" font-size="3.5">B2</text>
		</g>
		<g>
			<text transform="matrix(1 0 0 1 16.77 10.7104)" font-family="'DroidSans'" font-size="3.5">B1</text>
		</g>
		<g>
			<text transform="matrix(1 0 0 1 9.5698 10.7104)" font-family="'DroidSans'" font-size="3.5">B0</text>
		</g>
	</g>
	<g>
		<g>
			<text transform="matrix(1 0 0 1 130.9727 49.335)" font-family="'DroidSans'" font-size="3.5">3V3</text>
		</g>
		<g>
			<text transform="matrix(1 0 0 1 124.7734 49.335)" font-family="'DroidSans'" font-size="3.5">RST</text>
		</g>
		<g>
			<text transform="matrix(1 0 0 1 116.5723 49.335)" font-family="'DroidSans'" font-size="3.5">VBAT</text>
		</g>
		<g>
			<text transform="matrix(1 0 0 1 108.373 49.335)" font-family="'DroidSans'" font-size="3.5">GND</text>
		</g>
		<g>
			<text transform="matrix(1 0 0 1 103.1719 49.335)" font-family="'DroidSans'" font-size="3.5">D7</text>
		</g>
		<g>
			<text transform="matrix(1 0 0 1 95.9727 49.335)" font-family="'DroidSans'" font-size="3.5">D6</text>
		</g>
		<g>
			<text transform="matrix(1 0 0 1 88.7715 49.335)" font-family="'DroidSans'" font-size="3.5">D5</text>
		</g>
		<g>
			<text transform="matrix(1 0 0 1 81.5723 49.335)" font-family="'DroidSans'" font-size="3.5">D4</text>
		</g>
		<g>
			<text transform="matrix(1 0 0 1 74.3716 49.335)" font-family="'DroidSans'" font-size="3.5">D3</text>
		</g>
		<g>
			<text transform="matrix(1 0 0 1 67.1714 49.335)" font-family="'DroidSans'" font-size="3.5">D2</text>
		</g>
		<g>
			<text transform="matrix(1 0 0 1 59.9712 49.335)" font-family="'DroidSans'" font-size="3.5">D1</text>
		</g>
		<g>
			<text transform="matrix(1 0 0 1 52.771 49.335)" font-family="'DroidSans'" font-size="3.5">D0</text>
		</g>
		<g>
			<text transform="matrix(1 0 0 1 45.5708 49.335)" font-family="'DroidSans'" font-size="3.5">C5</text>
		</g>
		<g>
			<text transform="matrix(1 0 0 1 38.3706 49.335)" font-family="'DroidSans'" font-size="3.5">C4</text>
		</g>
		<g>
			<text transform="matrix(1 0 0 1 31.1704 49.335)" font-family="'DroidSans'" font-size="3.5">C3</text>
		</g>
		<g>
			<text transform="matrix(1 0 0 1 23.9702 49.335)" font-family="'DroidSans'" font-size="3.5">C2</text>
		</g>
		<g>
			<text transform="matrix(1 0 0 1 16.77 49.335)" font-family="'DroidSans'" font-size="3.5">C1</text>
		</g>
		<g>
			<text transform="matrix(1 0 0 1 9.5698 49.335)" font-family="'DroidSans'" font-size="3.5">C0</text>
		</g>
	</g>
</g>
<g id="copper0">
	<g id="copper1">
		
			<circle id="connector64pad" fill="none" stroke="#FFBF00" stroke-width="1.25" stroke-miterlimit="10" cx="133.902" cy="54.25" r="1.875"/>
		
			<circle id="connector63pad" fill="none" stroke="#FFBF00" stroke-width="1.25" stroke-miterlimit="10" cx="126.703" cy="54.25" r="1.875"/>
		
			<circle id="connector62pad" fill="none" stroke="#FFBF00" stroke-width="1.25" stroke-miterlimit="10" cx="119.502" cy="54.25" r="1.875"/>
		
			<circle id="connector61pad" fill="none" stroke="#FFBF00" stroke-width="1.25" stroke-miterlimit="10" cx="112.302" cy="54.25" r="1.875"/>
		
			<circle id="connector60pad" fill="none" stroke="#FFBF00" stroke-width="1.25" stroke-miterlimit="10" cx="105.102" cy="54.25" r="1.875"/>
		
			<circle id="connector59pad" fill="none" stroke="#FFBF00" stroke-width="1.25" stroke-miterlimit="10" cx="97.902" cy="54.25" r="1.875"/>
		
			<circle id="connector58pad" fill="none" stroke="#FFBF00" stroke-width="1.25" stroke-miterlimit="10" cx="90.701" cy="54.25" r="1.875"/>
		
			<circle id="connector57pad" fill="none" stroke="#FFBF00" stroke-width="1.25" stroke-miterlimit="10" cx="83.502" cy="54.25" r="1.875"/>
		
			<circle id="connector56pad" fill="none" stroke="#FFBF00" stroke-width="1.25" stroke-miterlimit="10" cx="76.301" cy="54.25" r="1.875"/>
		
			<circle id="connector55pad" fill="none" stroke="#FFBF00" stroke-width="1.25" stroke-miterlimit="10" cx="69.102" cy="54.25" r="1.875"/>
		
			<circle id="connector54pad" fill="none" stroke="#FFBF00" stroke-width="1.25" stroke-miterlimit="10" cx="61.901" cy="54.25" r="1.875"/>
		
			<circle id="connector53pad" fill="none" stroke="#FFBF00" stroke-width="1.25" stroke-miterlimit="10" cx="54.701" cy="54.25" r="1.875"/>
		
			<circle id="connector76pin" fill="none" stroke="#FFBF00" stroke-width="1.25" stroke-miterlimit="10" cx="47.5" cy="54.25" r="1.875"/>
		
			<circle id="connector75pin" fill="none" stroke="#FFBF00" stroke-width="1.25" stroke-miterlimit="10" cx="40.301" cy="54.25" r="1.875"/>
		
			<circle id="connector74pin" fill="none" stroke="#FFBF00" stroke-width="1.25" stroke-miterlimit="10" cx="33.1" cy="54.25" r="1.875"/>
		
			<circle id="connector73pin" fill="none" stroke="#FFBF00" stroke-width="1.25" stroke-miterlimit="10" cx="25.9" cy="54.25" r="1.875"/>
		
			<circle id="connector72pin" fill="none" stroke="#FFBF00" stroke-width="1.25" stroke-miterlimit="10" cx="18.7" cy="54.25" r="1.875"/>
		
			<circle id="connector71pin" fill="none" stroke="#FFBF00" stroke-width="1.25" stroke-miterlimit="10" cx="11.5" cy="54.25" r="1.875"/>
		
			<circle id="connector52pad" fill="none" stroke="#FFBF00" stroke-width="1.25" stroke-miterlimit="10" cx="133.941" cy="3.851" r="1.875"/>
		
			<circle id="connector51pad" fill="none" stroke="#FFBF00" stroke-width="1.25" stroke-miterlimit="10" cx="126.741" cy="3.851" r="1.875"/>
		
			<circle id="connector50pad" fill="none" stroke="#FFBF00" stroke-width="1.25" stroke-miterlimit="10" cx="119.541" cy="3.851" r="1.875"/>
		
			<circle id="connector49pad" fill="none" stroke="#FFBF00" stroke-width="1.25" stroke-miterlimit="10" cx="112.341" cy="3.851" r="1.875"/>
		
			<circle id="connector48pad" fill="none" stroke="#FFBF00" stroke-width="1.25" stroke-miterlimit="10" cx="105.141" cy="3.851" r="1.875"/>
		
			<circle id="connector47pad" fill="none" stroke="#FFBF00" stroke-width="1.25" stroke-miterlimit="10" cx="97.939" cy="3.851" r="1.875"/>
		
			<circle id="connector46pad" fill="none" stroke="#FFBF00" stroke-width="1.25" stroke-miterlimit="10" cx="90.74" cy="3.851" r="1.875"/>
		
			<circle id="connector45pad" fill="none" stroke="#FFBF00" stroke-width="1.25" stroke-miterlimit="10" cx="83.54" cy="3.851" r="1.875"/>
		
			<circle id="connector44pad" fill="none" stroke="#FFBF00" stroke-width="1.25" stroke-miterlimit="10" cx="76.34" cy="3.851" r="1.875"/>
		
			<circle id="connector43pad" fill="none" stroke="#FFBF00" stroke-width="1.25" stroke-miterlimit="10" cx="69.14" cy="3.851" r="1.875"/>
		
			<circle id="connector42pad" fill="none" stroke="#FFBF00" stroke-width="1.25" stroke-miterlimit="10" cx="61.94" cy="3.851" r="1.875"/>
		
			<circle id="connector41pad" fill="none" stroke="#FFBF00" stroke-width="1.25" stroke-miterlimit="10" cx="54.74" cy="3.851" r="1.875"/>
		
			<circle id="connector70pin" fill="none" stroke="#FFBF00" stroke-width="1.25" stroke-miterlimit="10" cx="47.539" cy="3.851" r="1.875"/>
		
			<circle id="connector69pin" fill="none" stroke="#FFBF00" stroke-width="1.25" stroke-miterlimit="10" cx="40.339" cy="3.851" r="1.875"/>
		
			<circle id="connector68pin" fill="none" stroke="#FFBF00" stroke-width="1.25" stroke-miterlimit="10" cx="33.139" cy="3.851" r="1.875"/>
		
			<circle id="connector67pin" fill="none" stroke="#FFBF00" stroke-width="1.25" stroke-miterlimit="10" cx="25.939" cy="3.851" r="1.875"/>
		
			<circle id="connector66pin" fill="none" stroke="#FFBF00" stroke-width="1.25" stroke-miterlimit="10" cx="18.739" cy="3.851" r="1.875"/>
		
			<circle id="connector65pin" fill="none" stroke="#FFBF00" stroke-width="1.25" stroke-miterlimit="10" cx="11.538" cy="3.851" r="1.875"/>
	</g>
</g>
<g id="unknown">
	<circle id="noncon02" fill="none" cx="1.475" cy="41.802" r="0.142"/>
	<circle id="noncon01" fill="none" cx="3.542" cy="52.375" r="0.143"/>
</g>
</svg>
