<?xml version="1.0" encoding="utf-8"?>
<!-- Generator: Adobe Illustrator 16.0.0, SVG Export Plug-In . SVG Version: 6.00 Build 0)  -->
<svg version="1.2" baseProfile="tiny" id="Ebene_1" xmlns:xml="http://www.w3.org/XML/1998/namespace"
	 xmlns="http://www.w3.org/2000/svg" xmlns:xlink="http://www.w3.org/1999/xlink" x="0px" y="0px" width="97px" height="56.221px"
	 viewBox="0 0 97 56.221" xml:space="preserve">
<g id="silkscreen">
	
		<text id="text4930" transform="matrix(0.9944 0 0 1 26.0742 56.2383)" fill="#FFFFFF" font-family="'DroidSans'" font-size="2.683">GND</text>
	<text id="text4938" transform="matrix(0.9944 0 0 1 27.5454 2.2759)" fill="#FFFFFF" font-family="'DroidSans'" font-size="2.683">Vin</text>
	<text id="text4946" transform="matrix(0.9944 0 0 1 34.0332 2.2212)" fill="#FFFFFF" font-family="'DroidSans'" font-size="2.683">B15</text>
	<text id="text4954" transform="matrix(0.9944 0 0 1 41.1743 2.2437)" fill="#FFFFFF" font-family="'DroidSans'" font-size="2.683">B14</text>
	<text id="text4962" transform="matrix(0.9944 0 0 1 48.4409 2.2388)" fill="#FFFFFF" font-family="'DroidSans'" font-size="2.683">B13</text>
	<text id="text4970" transform="matrix(0.9944 0 0 1 55.6196 2.2397)" fill="#FFFFFF" font-family="'DroidSans'" font-size="2.683">B10</text>
	<text id="text4978" transform="matrix(0.9944 0 0 1 63.999 2.2368)" fill="#FFFFFF" font-family="'DroidSans'" font-size="2.683">B1</text>
	<text id="text4986" transform="matrix(0.9944 0 0 1 71.124 2.2427)" fill="#FFFFFF" font-family="'DroidSans'" font-size="2.683">A7</text>
	<text id="text4994" transform="matrix(0.9944 0 0 1 78.3213 2.2388)" fill="#FFFFFF" font-family="'DroidSans'" font-size="2.683">A6</text>
	<text id="text5002" transform="matrix(0.9944 0 0 1 85.5371 2.2261)" fill="#FFFFFF" font-family="'DroidSans'" font-size="2.683">A5</text>
	<text transform="matrix(0.9944 0 0 1 34.6367 56.084)" fill="#FFFFFF" font-family="'DroidSans'" font-size="2.683">V</text>
	<text transform="matrix(0.9944 0 0 1 36.0723 56.084)" fill="#FFFFFF" font-family="'DroidSans'" font-size="2.683">o</text>
	<text transform="matrix(0.9944 0 0 1 37.6118 56.084)" fill="#FFFFFF" font-family="'DroidSans'" font-size="2.683">u</text>
	<text transform="matrix(0.9944 0 0 1 39.1831 56.084)" fill="#FFFFFF" font-family="'DroidSans'" font-size="2.683">t</text>
	<text id="text5082" transform="matrix(0.9944 0 0 1 42.6187 56.084)" fill="#FFFFFF" font-family="'DroidSans'" font-size="2.683">3.3</text>
	
		<text id="text5090" transform="matrix(0.9944 0 0 1 49.7051 56.2383)" fill="#FFFFFF" font-family="'DroidSans'" font-size="2.683">B3</text>
	
		<text id="text5098" transform="matrix(0.9944 0 0 1 56.4922 56.2441)" fill="#FFFFFF" font-family="'DroidSans'" font-size="2.683">B4</text>
	
		<text id="text5106" transform="matrix(0.9944 0 0 1 63.4048 56.2207)" fill="#FFFFFF" font-family="'DroidSans'" font-size="2.683">B5</text>
	
		<text id="text5194" transform="matrix(0.9944 0 0 1 70.7393 56.2383)" fill="#FFFFFF" font-family="'DroidSans'" font-size="2.683">B6</text>
	
		<text id="text5202" transform="matrix(0.9944 0 0 1 77.9434 56.2363)" fill="#FFFFFF" font-family="'DroidSans'" font-size="2.683">B7</text>
	<text id="text5210" transform="matrix(0.9944 0 0 1 85.332 56.2402)" fill="#FFFFFF" font-family="'DroidSans'" font-size="2.683">A8</text>
	<path id="path3520" fill="none" stroke="#FFFFFF" stroke-width="0.2345" d="M26.173,6.441h64.251v43.199H26.173v-3.6H0.973v-36
		h25.201C26.113,7.933,26.223,7.864,26.173,6.441z"/>
	<text id="text3893" transform="matrix(0.9944 0 0 1 92.623 20.2422)" fill="#FFFFFF" font-family="'DroidSans'" font-size="2.683">A3</text>
	<text id="text3895" transform="matrix(0.9944 0 0 1 92.623 23.8428)" fill="#FFFFFF" font-family="'DroidSans'" font-size="2.683">A2</text>
	<text id="text3897" transform="matrix(0.9944 0 0 1 92.623 31.0435)" fill="#FFFFFF" font-family="'DroidSans'" font-size="2.683">A0</text>
	<text id="text3899" transform="matrix(0.9944 0 0 1 92.623 27.4424)" fill="#FFFFFF" font-family="'DroidSans'" font-size="2.683">A1</text>
	<text id="text3901" transform="matrix(0.9944 0 0 1 92.623 34.6431)" fill="#FFFFFF" font-family="'DroidSans'" font-size="2.683">A10</text>
	<text id="text3903" transform="matrix(0.9944 0 0 1 92.623 38.2427)" fill="#FFFFFF" font-family="'DroidSans'" font-size="2.683">B9</text>
	<text id="text3905" transform="matrix(0.9944 0 0 1 92.623 41.8438)" fill="#FFFFFF" font-family="'DroidSans'" font-size="2.683">B8</text>
	
		<text id="text3907" transform="matrix(0.9944 0 0 1 92.6309 16.6548)" fill="#FFFFFF" font-family="'DroidSans'" font-size="2.683">A4</text>
</g>
<g id="copper1">
	<g id="copper0">
		<g id="connector29pin">
			<path stroke-width="0" stroke="none" id="path3883" fill="#F7BD13" d="M39.494,46.039c0-1.385-1.137-2.521-2.523-2.521c-1.385,0-2.51,1.137-2.514,2.521
				c-0.003,1.443-0.003,2.164-0.003,3.602c0,1.441,1.08,2.521,2.52,2.521c1.44,0,2.521-1.08,2.521-2.521
				C39.493,48.203,39.494,46.039,39.494,46.039L39.494,46.039z"/>
			<circle cx="36.973" cy="46.041" stroke-width="0.75" r="2"/>
		</g>
		<g id="connector28pin">
			<path stroke-width="0" stroke="none" id="path3881" fill="#F7BD13" d="M46.694,46.039c0-1.385-1.137-2.521-2.522-2.521c-1.386,0-2.511,1.137-2.515,2.521
				c-0.003,1.443-0.003,2.164-0.003,3.602c0,1.441,1.08,2.521,2.521,2.521c1.439,0,2.52-1.08,2.52-2.521
				C46.693,48.203,46.694,46.039,46.694,46.039L46.694,46.039z"/>
			<circle cx="44.173" cy="46.041" stroke-width="0.75" r="2"/>
		</g>
		<g id="connector27pin">
			<path stroke-width="0" stroke="none" id="path3879" fill="#F7BD13" d="M53.894,46.039c0-1.385-1.137-2.521-2.522-2.521s-2.51,1.137-2.514,2.521
				c-0.004,1.443-0.004,2.164-0.004,3.602c0,1.441,1.08,2.521,2.521,2.521c1.439,0,2.52-1.08,2.52-2.521
				C53.893,48.203,53.894,46.039,53.894,46.039L53.894,46.039z"/>
			<circle cx="51.373" cy="46.041" stroke-width="0.75" r="2"/>
		</g>
		<g id="connector26pin">
			<path stroke-width="0" stroke="none" id="path3877" fill="#F7BD13" d="M61.094,46.039c0-1.385-1.137-2.521-2.523-2.521c-1.385,0-2.51,1.137-2.515,2.521
				c-0.003,1.443-0.003,2.164-0.003,3.602c0,1.441,1.08,2.521,2.52,2.521c1.439,0,2.52-1.08,2.52-2.521
				C61.093,48.203,61.094,46.039,61.094,46.039L61.094,46.039z"/>
			<circle cx="58.574" cy="46.041" stroke-width="0.75" r="2"/>
		</g>
		<g id="connector25pin">
			<path stroke-width="0" stroke="none" id="path3875" fill="#F7BD13" d="M68.293,46.039c0-1.385-1.136-2.521-2.521-2.521c-1.385,0-2.511,1.137-2.515,2.521
				c-0.003,1.443-0.003,2.164-0.003,3.602c0,1.441,1.079,2.521,2.521,2.521c1.438,0,2.52-1.08,2.52-2.521
				C68.293,48.203,68.293,46.039,68.293,46.039L68.293,46.039z"/>
			<circle cx="65.774" cy="46.041" stroke-width="0.75" r="2"/>
		</g>
		<g id="connector24pin">
			<path stroke-width="0" stroke="none" id="path3873" fill="#F7BD13" d="M75.494,46.039c0-1.385-1.138-2.521-2.523-2.521c-1.384,0-2.51,1.137-2.515,2.521
				c-0.003,1.443-0.003,2.164-0.003,3.602c0,1.441,1.08,2.521,2.521,2.521c1.439,0,2.52-1.08,2.52-2.521
				C75.493,48.203,75.494,46.039,75.494,46.039L75.494,46.039z"/>
			<circle cx="72.974" cy="46.041" stroke-width="0.75" r="2"/>
		</g>
		<g id="connector23pin">
			<path stroke-width="0" stroke="none" id="path3871" fill="#F7BD13" d="M82.694,46.039c0-1.385-1.137-2.521-2.522-2.521s-2.511,1.137-2.516,2.521
				c-0.003,1.443-0.003,2.164-0.003,3.602c0,1.441,1.08,2.521,2.521,2.521c1.438,0,2.52-1.08,2.52-2.521
				C82.693,48.203,82.694,46.039,82.694,46.039L82.694,46.039z"/>
			<circle cx="80.173" cy="46.041" stroke-width="0.75" r="2"/>
		</g>
		<g id="connector22pin">
			<path stroke-width="0" stroke="none" id="path3869" fill="#F7BD13" d="M89.894,46.039c0-1.385-1.136-2.521-2.522-2.521c-1.385,0-2.51,1.137-2.514,2.521
				c-0.004,1.443-0.004,2.164-0.004,3.602c0,1.441,1.079,2.521,2.52,2.521s2.521-1.08,2.521-2.521
				C89.894,48.203,89.894,46.039,89.894,46.039L89.894,46.039z"/>
			<circle cx="87.375" cy="46.041" stroke-width="0.75" r="2"/>
		</g>
		<g id="connector14pin">
			<path stroke-width="0" stroke="none" id="path3865" fill="#F7BD13" d="M77.653,10.043c0,1.385,1.137,2.522,2.522,2.522s2.511-1.137,2.515-2.522
				c0.004-1.442,0.004-2.162,0.004-3.602c0-1.44-1.08-2.521-2.521-2.521c-1.438,0-2.521,1.081-2.521,2.521
				C77.653,7.881,77.653,10.043,77.653,10.043L77.653,10.043z"/>
			<circle cx="80.173" cy="10.042" stroke-width="0.75" r="2"/>
		</g>
		<g id="connector13pin">
			<path stroke-width="0" stroke="none" id="path3863" fill="#F7BD13" d="M70.453,10.043c0,1.385,1.138,2.522,2.523,2.522c1.384,0,2.51-1.137,2.515-2.522
				c0.003-1.442,0.003-2.162,0.003-3.602c0-1.44-1.08-2.521-2.521-2.521c-1.439,0-2.52,1.081-2.52,2.521
				C70.454,7.881,70.453,10.043,70.453,10.043L70.453,10.043z"/>
			<circle cx="72.974" cy="10.042" stroke-width="0.75" r="2"/>
		</g>
		<g id="connector12pin">
			<path stroke-width="0" stroke="none" id="path3861" fill="#F7BD13" d="M63.253,10.043c0,1.385,1.138,2.522,2.522,2.522c1.386,0,2.51-1.137,2.516-2.522
				c0.002-1.442,0.002-2.162,0.002-3.602c0-1.44-1.079-2.521-2.52-2.521c-1.439,0-2.52,1.081-2.52,2.521
				C63.254,7.881,63.253,10.043,63.253,10.043L63.253,10.043z"/>
			<circle cx="65.774" cy="10.042" stroke-width="0.75" r="2"/>
		</g>
		<g id="connector11pin">
			<path stroke-width="0" stroke="none" id="path3859" fill="#F7BD13" d="M56.053,10.043c0,1.385,1.137,2.522,2.522,2.522c1.385,0,2.511-1.137,2.515-2.522
				c0.003-1.442,0.003-2.162,0.003-3.602c0-1.44-1.08-2.521-2.521-2.521c-1.439,0-2.519,1.081-2.519,2.521
				C56.054,7.881,56.053,10.043,56.053,10.043L56.053,10.043z"/>
			<circle cx="58.574" cy="10.042" stroke-width="0.75" r="2"/>
		</g>
		<g id="connector9pin">
			<path stroke-width="0" stroke="none" id="path3857" fill="#F7BD13" d="M48.853,10.043c0,1.385,1.137,2.522,2.523,2.522c1.385,0,2.51-1.137,2.515-2.522
				c0.003-1.442,0.003-2.162,0.003-3.602c0-1.44-1.08-2.521-2.52-2.521c-1.44,0-2.52,1.081-2.52,2.521
				C48.854,7.881,48.853,10.043,48.853,10.043L48.853,10.043z"/>
			<circle cx="51.373" cy="10.042" stroke-width="0.75" r="2"/>
		</g>
		<g id="connector8pin">
			<path stroke-width="0" stroke="none" id="path3855" fill="#F7BD13" d="M41.653,10.043c0,1.385,1.137,2.522,2.523,2.522c1.385,0,2.511-1.137,2.515-2.522
				c0.003-1.442,0.003-2.162,0.003-3.602c0-1.44-1.08-2.521-2.52-2.521s-2.52,1.081-2.52,2.521
				C41.654,7.881,41.653,10.043,41.653,10.043L41.653,10.043z"/>
			<circle cx="44.173" cy="10.042" stroke-width="0.75" r="2"/>
		</g>
		<g id="connector7pin">
			<path stroke-width="0" stroke="none" id="path3853" fill="#F7BD13" d="M34.453,10.043c0,1.385,1.137,2.522,2.522,2.522s2.511-1.137,2.515-2.522
				c0.003-1.442,0.003-2.162,0.003-3.602c0-1.44-1.08-2.521-2.52-2.521c-1.44,0-2.52,1.081-2.52,2.521
				C34.454,7.881,34.453,10.043,34.453,10.043L34.453,10.043z"/>
			<circle cx="36.973" cy="10.042" stroke-width="0.75" r="2"/>
		</g>
		<g id="connector6pin">
			<path stroke-width="0" stroke="none"  id="circle4556" fill="#F7BD13" d="M27.252,10.043c0,1.385,1.137,2.522,2.523,2.522c1.385,0,2.51-1.137,2.514-2.522
				c0.004-1.442,0.004-2.162,0.004-3.602c0-1.44-1.08-2.521-2.52-2.521c-1.44,0-2.52,1.081-2.52,2.521
				C27.253,7.881,27.252,10.043,27.252,10.043L27.252,10.043z"/>
			<circle cx="29.773" cy="10.042" stroke-width="0.75" r="2"/>
		</g>
		<g id="connector16pin">
			<path stroke-width="0" stroke="none" id="path3909" fill="#F7BD13" d="M85.954,15.442c0.001,0.863,0.576,1.435,1.441,1.437c0.862,0.002,2.734,0.002,3.599,0.002
				s1.44-0.576,1.44-1.44c0-0.864-0.576-1.44-1.44-1.44s-2.736,0-3.6,0C86.53,14.001,85.952,14.577,85.954,15.442z"/>
			<circle cx="87.374" cy="15.441" r="1" stroke-width="0.5"/>
		</g>
		<g id="connector17pin">
			<path stroke-width="0" stroke="none" id="path3843" fill="#F7BD13" d="M85.931,19.042c0,0.863,0.576,1.435,1.44,1.437c0.863,0.002,2.735,0.002,3.6,0.002
				s1.439-0.576,1.439-1.44c0-0.864-0.575-1.439-1.439-1.439s-2.736,0-3.6,0C86.507,17.602,85.929,18.177,85.931,19.042z"/>
			<circle cx="87.374" cy="19.041" r="1" stroke-width="0.5"/>
		</g>
		<g id="connector18pin">
			<path stroke-width="0" stroke="none" id="path3841" fill="#F7BD13" d="M85.933,22.643c0.002,0.863,0.577,1.434,1.442,1.437c0.863,0.002,2.735,0.002,3.599,0.002
				c0.864,0,1.44-0.576,1.44-1.44s-0.576-1.44-1.44-1.44c-0.863,0-2.735,0-3.601,0C86.51,21.202,85.933,21.777,85.933,22.643z"/>
			<circle cx="87.374" cy="22.642" r="1" stroke-width="0.5"/>
		</g>
		<g id="connector19pin">
			<path stroke-width="0" stroke="none" id="path3839" fill="#F7BD13" d="M85.933,26.242c0.002,0.863,0.577,1.435,1.442,1.437c0.863,0.002,2.735,0.002,3.599,0.002
				c0.864,0,1.44-0.576,1.44-1.439c0-0.864-0.576-1.44-1.44-1.44c-0.863,0-2.735,0-3.601,0
				C86.51,24.802,85.933,25.377,85.933,26.242z"/>
			<circle cx="87.374" cy="26.242" r="1" stroke-width="0.5"/>
		</g>
		<g id="connector20pin">
			<path stroke-width="0" stroke="none" id="path3837" fill="#F7BD13" d="M85.933,29.842c0.002,0.863,0.578,1.434,1.442,1.437c0.863,0.002,2.735,0.002,3.599,0.002
				c0.864,0,1.441-0.576,1.441-1.439c0-0.864-0.577-1.44-1.441-1.44c-0.863,0-2.735,0-3.601,0
				C86.51,28.401,85.933,28.978,85.933,29.842z"/>
			<circle cx="87.374" cy="29.842" r="1" stroke-width="0.5"/>
		</g>
		<g id="connector21pin">
			<path stroke-width="0" stroke="none" id="path3835" fill="#F7BD13" d="M85.933,33.443c0.002,0.862,0.577,1.434,1.442,1.436c0.863,0.003,2.735,0.003,3.599,0.003
				c0.864,0,1.44-0.576,1.44-1.44s-0.576-1.439-1.44-1.439c-0.863,0-2.735,0-3.601,0C86.51,32.002,85.933,32.578,85.933,33.443z"/>
			<circle cx="87.374" cy="33.441" r="1" stroke-width="0.5"/>
		</g>
		<g id="connector41pin">
			<path stroke-width="0" stroke="none" id="path3833" fill="#F7BD13" d="M85.933,37.042c0.002,0.863,0.577,1.435,1.442,1.437c0.863,0.003,2.735,0.003,3.599,0.003
				c0.864,0,1.44-0.577,1.44-1.441c0-0.864-0.576-1.439-1.44-1.439c-0.863,0-2.735,0-3.601,0
				C86.51,35.602,85.933,36.177,85.933,37.042z"/>
			<circle cx="87.374" cy="37.041" r="1" stroke-width="0.5"/>
		</g>
		<g id="connector42pin">
			<path stroke-width="0" stroke="none" id="circle3024" fill="#F7BD13" d="M85.933,40.643c0.002,0.862,0.577,1.435,1.442,1.437
				c0.863,0.003,2.735,0.003,3.599,0.003c0.864,0,1.44-0.577,1.44-1.441c0-0.864-0.576-1.439-1.44-1.439c-0.863,0-2.735,0-3.601,0
				C86.51,39.202,85.932,39.777,85.933,40.643z"/>
			<circle cx="87.374" cy="40.641" r="1" stroke-width="0.5"/>
		</g>
		<g id="connector40pin">
			<path stroke-width="0" stroke="none" id="path3885" fill="#F7BD13" d="M32.293,46.039c0-1.385-1.137-2.521-2.522-2.521s-2.511,1.137-2.515,2.521
				c-0.003,1.443-0.003,2.164-0.003,3.602c0,1.441,1.08,2.521,2.52,2.521c1.439,0,2.52-1.08,2.52-2.521
				C32.292,48.203,32.293,46.039,32.293,46.039L32.293,46.039z"/>
			<circle cx="29.773" cy="46.041" stroke-width="0.75" r="2"/>
		</g>
		<g id="connector15pin">
			<path stroke-width="0" stroke="none" id="path3867" fill="#F7BD13" d="M84.854,10.043c0,1.385,1.137,2.522,2.522,2.522s2.51-1.137,2.516-2.522
				c0.002-1.442,0.002-2.162,0.002-3.602c0-1.44-1.079-2.521-2.521-2.521c-1.438,0-2.519,1.081-2.519,2.521
				C84.854,7.881,84.854,10.043,84.854,10.043L84.854,10.043z"/>
			<circle cx="87.375" cy="10.042" stroke-width="0.75" r="2"/>
		</g>
	</g>
</g>
</svg>
