<?xml version="1.0" encoding="utf-8"?>
<!-- Generator: Adobe Illustrator 16.0.0, SVG Export Plug-In . SVG Version: 6.00 Build 0)  -->
<!DOCTYPE svg PUBLIC "-//W3C//DTD SVG 1.1//EN" "http://www.w3.org/Graphics/SVG/1.1/DTD/svg11.dtd">
<svg version="1.1" id="Layer_1" xmlns="http://www.w3.org/2000/svg" xmlns:xlink="http://www.w3.org/1999/xlink" x="0px" y="0px"
	 width="29.675px" height="13.986px" viewBox="0 0 29.675 13.986" enable-background="new 0 0 29.675 13.986" xml:space="preserve">
<g id="silkscreen">
	<path id="Shape" stroke="#FFFFFF" stroke-width="0.5" d="M0.421,0.483h28.745"/>
	<path id="Shape_1_" stroke="#FFFFFF" stroke-width="0.5" d="M29.166,0.483v12.935"/>
	<path id="Shape_2_" stroke="#FFFFFF" stroke-width="0.5" d="M29.166,13.418H0.421"/>
	<path id="Shape_3_" stroke="#FFFFFF" stroke-width="0.5" d="M0.421,13.418V0.483"/>
	<path id="Shape_4_" stroke="#FFFFFF" stroke-width="0.5" d="M0.421,0.483h28.745"/>
	<path id="Shape_5_" stroke="#FFFFFF" stroke-width="0.5" d="M29.166,0.483v4.312"/>
	<path id="Shape_6_" stroke="#FFFFFF" stroke-width="0.5" d="M29.166,4.795H0.421"/>
	<path id="Shape_7_" stroke="#FFFFFF" stroke-width="0.5" d="M0.421,4.795V0.483"/>
	<path id="Shape_8_" stroke="#FFFFFF" stroke-width="0.5" d="M9.763,0.483v4.312"/>
	<path id="Shape_9_" stroke="#FFFFFF" stroke-width="0.5" d="M19.824,0.483v4.312"/>
	
		<g transform="translate(17.883333, 10.933333) rotate(-272.000000) translate(-17.883333, -10.933333) translate(16.033333, 4.933333)">
		<g>
			<g id="schematic">
				<path id="Shape_10_" stroke="#FFFFFF" stroke-width="0.5" d="M1.082,10.988l0.356,0.012l0.019-0.534l-1.604-0.056"/>
				<path id="Shape_11_" stroke="#FFFFFF" stroke-width="0.5" d="M-0.129,9.876L-1.734,9.82l0.019-0.535l0.356,0.013"/>
				<path id="Shape_12_" stroke="#FFFFFF" stroke-width="0.5" d="M-0.148,10.411L-1.392,7.69l1.336,0.047l1.338,0.047L-0.148,10.411
					z"/>
				<path id="Shape_13_" stroke="#FFFFFF" stroke-width="0.5" d="M-0.056,7.736l-0.093,2.674"/>
				<path id="connector0pin" stroke="#FFFFFF" stroke-width="0.5" d="M-0.241,13.084l0.092-2.673"/>
				
					<rect id="connector0terminal" x="-0.214" y="12.022" transform="matrix(-0.0349 0.9994 -0.9994 -0.0349 12.338 12.6662)" stroke="#FFFFFF" stroke-width="0.5" width="0.535" height="0.536"/>
				
					<rect id="connector1terminal" x="0.028" y="5.071" transform="matrix(-0.0349 0.9994 -0.9994 -0.0349 5.6409 5.2304)" stroke="#FFFFFF" stroke-width="0.5" width="0.533" height="0.535"/>
				<path id="connector1pin" stroke="#FFFFFF" stroke-width="0.5" d="M0.037,5.063l-0.092,2.673"/>
			</g>
		</g>
	</g>
</g>
<g id="copper1">
	<g id="copper0">
		<rect id="Rectangle" x="5.371" y="6.711" fill="none" stroke="#FFBF00" stroke-width="1.776" width="4.456" height="4.457"/>
		<circle id="connector0pad" fill="none" stroke="#FFBF00" stroke-width="1.776" cx="7.599" cy="8.94" r="2.228"/>
		<circle id="connector1pad" fill="none" stroke="#FFBF00" stroke-width="1.776" cx="21.988" cy="8.94" r="2.228"/>
	</g>
</g>
</svg>
