<?xml version="1.0" encoding="utf-8"?>
<!-- Generator: Adobe Illustrator 16.0.0, SVG Export Plug-In . SVG Version: 6.00 Build 0)  -->
<!DOCTYPE svg PUBLIC "-//W3C//DTD SVG 1.1//EN" "http://www.w3.org/Graphics/SVG/1.1/DTD/svg11.dtd">
<svg version="1.1" id="Layer_1" xmlns="http://www.w3.org/2000/svg" xmlns:xlink="http://www.w3.org/1999/xlink" x="0px" y="0px"
	 width="28.8px" height="106.172px" viewBox="0 0 28.8 106.172" enable-background="new 0 0 28.8 106.172" xml:space="preserve">
<desc>Fritzing footprint generated by brd2svg</desc>
<g id="silkscreen">
	<path fill="none" stroke="#FFFFFF" stroke-width="0.576" d="M0.288,0.288h28.224v105.597H0.288V0.288z"/>
	<g>
		<title>element:JP1</title>
		<g>
			<title>package:1X04</title>
			<line fill="none" stroke="#FFFFFF" stroke-width="0.576" stroke-linecap="round" x1="23.4" y1="16.171" x2="27" y2="16.171"/>
			<line fill="none" stroke="#FFFFFF" stroke-width="0.576" stroke-linecap="round" x1="27" y1="16.171" x2="28.8" y2="17.972"/>
			<line fill="none" stroke="#FFFFFF" stroke-width="0.576" stroke-linecap="round" x1="28.8" y1="21.572" x2="27" y2="23.372"/>
			
				<line fill="none" stroke="#FFFFFF" stroke-width="0.576" stroke-linecap="round" x1="14.4" y1="17.972" x2="16.201" y2="16.171"/>
			
				<line fill="none" stroke="#FFFFFF" stroke-width="0.576" stroke-linecap="round" x1="16.201" y1="16.171" x2="19.8" y2="16.171"/>
			<line fill="none" stroke="#FFFFFF" stroke-width="0.576" stroke-linecap="round" x1="19.8" y1="16.171" x2="21.6" y2="17.972"/>
			<line fill="none" stroke="#FFFFFF" stroke-width="0.576" stroke-linecap="round" x1="21.6" y1="21.572" x2="19.8" y2="23.372"/>
			
				<line fill="none" stroke="#FFFFFF" stroke-width="0.576" stroke-linecap="round" x1="19.8" y1="23.372" x2="16.201" y2="23.372"/>
			
				<line fill="none" stroke="#FFFFFF" stroke-width="0.576" stroke-linecap="round" x1="16.201" y1="23.372" x2="14.4" y2="21.572"/>
			<line fill="none" stroke="#FFFFFF" stroke-width="0.576" stroke-linecap="round" x1="23.4" y1="16.171" x2="21.6" y2="17.972"/>
			<line fill="none" stroke="#FFFFFF" stroke-width="0.576" stroke-linecap="round" x1="21.6" y1="21.572" x2="23.4" y2="23.372"/>
			<line fill="none" stroke="#FFFFFF" stroke-width="0.576" stroke-linecap="round" x1="27" y1="23.372" x2="23.4" y2="23.372"/>
			<line fill="none" stroke="#FFFFFF" stroke-width="0.576" stroke-linecap="round" x1="1.8" y1="16.171" x2="5.4" y2="16.171"/>
			<line fill="none" stroke="#FFFFFF" stroke-width="0.576" stroke-linecap="round" x1="5.4" y1="16.171" x2="7.2" y2="17.972"/>
			<line fill="none" stroke="#FFFFFF" stroke-width="0.576" stroke-linecap="round" x1="7.2" y1="21.572" x2="5.4" y2="23.372"/>
			<line fill="none" stroke="#FFFFFF" stroke-width="0.576" stroke-linecap="round" x1="7.2" y1="17.972" x2="9" y2="16.171"/>
			<line fill="none" stroke="#FFFFFF" stroke-width="0.576" stroke-linecap="round" x1="9" y1="16.171" x2="12.6" y2="16.171"/>
			<line fill="none" stroke="#FFFFFF" stroke-width="0.576" stroke-linecap="round" x1="12.6" y1="16.171" x2="14.4" y2="17.972"/>
			<line fill="none" stroke="#FFFFFF" stroke-width="0.576" stroke-linecap="round" x1="14.4" y1="21.572" x2="12.6" y2="23.372"/>
			<line fill="none" stroke="#FFFFFF" stroke-width="0.576" stroke-linecap="round" x1="12.6" y1="23.372" x2="9" y2="23.372"/>
			<line fill="none" stroke="#FFFFFF" stroke-width="0.576" stroke-linecap="round" x1="9" y1="23.372" x2="7.2" y2="21.572"/>
			<line fill="none" stroke="#FFFFFF" stroke-width="0.576" stroke-linecap="round" x1="0" y1="17.972" x2="0" y2="21.572"/>
			<line fill="none" stroke="#FFFFFF" stroke-width="0.576" stroke-linecap="round" x1="1.8" y1="16.171" x2="0" y2="17.972"/>
			<line fill="none" stroke="#FFFFFF" stroke-width="0.576" stroke-linecap="round" x1="0" y1="21.572" x2="1.8" y2="23.372"/>
			<line fill="none" stroke="#FFFFFF" stroke-width="0.576" stroke-linecap="round" x1="5.4" y1="23.372" x2="1.8" y2="23.372"/>
			<line fill="none" stroke="#FFFFFF" stroke-width="0.576" stroke-linecap="round" x1="28.8" y1="17.972" x2="28.8" y2="21.572"/>
		</g>
	</g>
	<g>
		<title>element:JP2</title>
		<g>
			<title>package:1X02</title>
			
				<line fill="none" stroke="#FFFFFF" stroke-width="0.576" stroke-linecap="round" x1="19.8" y1="95.372" x2="16.201" y2="95.372"/>
			
				<line fill="none" stroke="#FFFFFF" stroke-width="0.576" stroke-linecap="round" x1="16.201" y1="95.372" x2="14.4" y2="93.572"/>
			
				<line fill="none" stroke="#FFFFFF" stroke-width="0.576" stroke-linecap="round" x1="14.4" y1="89.973" x2="16.201" y2="88.172"/>
			<line fill="none" stroke="#FFFFFF" stroke-width="0.576" stroke-linecap="round" x1="14.4" y1="93.572" x2="12.6" y2="95.372"/>
			<line fill="none" stroke="#FFFFFF" stroke-width="0.576" stroke-linecap="round" x1="12.6" y1="95.372" x2="9" y2="95.372"/>
			<line fill="none" stroke="#FFFFFF" stroke-width="0.576" stroke-linecap="round" x1="9" y1="95.372" x2="7.2" y2="93.572"/>
			<line fill="none" stroke="#FFFFFF" stroke-width="0.576" stroke-linecap="round" x1="7.2" y1="89.973" x2="9" y2="88.172"/>
			<line fill="none" stroke="#FFFFFF" stroke-width="0.576" stroke-linecap="round" x1="9" y1="88.172" x2="12.6" y2="88.172"/>
			<line fill="none" stroke="#FFFFFF" stroke-width="0.576" stroke-linecap="round" x1="12.6" y1="88.172" x2="14.4" y2="89.973"/>
			<line fill="none" stroke="#FFFFFF" stroke-width="0.576" stroke-linecap="round" x1="21.6" y1="93.572" x2="21.6" y2="89.973"/>
			<line fill="none" stroke="#FFFFFF" stroke-width="0.576" stroke-linecap="round" x1="19.8" y1="95.372" x2="21.6" y2="93.572"/>
			<line fill="none" stroke="#FFFFFF" stroke-width="0.576" stroke-linecap="round" x1="21.6" y1="89.973" x2="19.8" y2="88.172"/>
			
				<line fill="none" stroke="#FFFFFF" stroke-width="0.576" stroke-linecap="round" x1="16.201" y1="88.172" x2="19.8" y2="88.172"/>
			<line fill="none" stroke="#FFFFFF" stroke-width="0.576" stroke-linecap="round" x1="7.2" y1="93.572" x2="7.2" y2="89.973"/>
		</g>
	</g>
	<g>
		<title>element:LOGO2</title>
		<g>
			<title>package:SFE_LOGO_NAME_FLAME_.1</title>
		</g>
	</g>
</g>
<g id="copper1">
	<g id="copper0">
		<circle id="connector15pad" fill="none" stroke="#F7BD13" stroke-width="1.224" cx="10.8" cy="91.772" r="2.052"/>
		<circle id="connector10pad" fill="none" stroke="#F7BD13" stroke-width="1.224" cx="3.6" cy="19.772" r="2.052"/>
		<rect x="1.548" y="17.72" fill="none" stroke="#F7BD13" stroke-width="1.224" width="4.104" height="4.104"/>
		<circle id="connector11pad" fill="none" stroke="#F7BD13" stroke-width="1.224" cx="10.8" cy="19.772" r="2.052"/>
		<circle id="connector12pad" fill="none" stroke="#F7BD13" stroke-width="1.224" cx="18" cy="19.772" r="2.052"/>
		<circle id="connector13pad" fill="none" stroke="#F7BD13" stroke-width="1.224" cx="25.201" cy="19.772" r="2.052"/>
		<circle id="connector14pad" fill="none" stroke="#F7BD13" stroke-width="1.224" cx="18" cy="91.772" r="2.052"/>
	</g>
</g>
</svg>
