<?xml version='1.0' encoding='UTF-8' standalone='no'?>
<!-- Generator: Adobe Illustrator 13.0.1, SVG Export Plug-In . SVG Version: 6.00 Build 14948)  -->
  <svg
  xmlns="http://www.w3.org/2000/svg"
  height="0.962542in"
  gorn="0"
  id="PCB"
  x="0px"
  version="1.2"
  y="0px"
  baseProfile="tiny"
  xml:space="preserve"
  width="2.31585in"
  viewBox="0 0 166.741 69.303">
  <desc>
    <referenceFile>Heltec_Wireless_Stick_Lite_pcb.svg</referenceFile>
  </desc>
  <g
    gorn="0.1"
    id="silkscreen">
    <polyline
      fill="none"
      stroke-width="0.25"
      stroke="#000000"
      points="3.464,24.597 3.464,0 166.741,0 166.741,69.303 3.464,69.303 3.464,45.43 "
    />
    <path
      d="M164.737,55.111h-14.74V40.427c0,0,11.054,0,11.621,0s0.567,0.002,0.567-0.567s0-17.901,0-18.537c0-0.738-0.013-0.741-0.577-0.738c-0.564,0.003-7.169,0.003-7.641,0.003c-0.567,0-0.567,0-0.568,0.566c0,0.174-0.002,1.731-0.002,1.731c0,0.533-0.006,0.533,0.57,0.533s4.248,0,4.815,0s0.567,0,0.567,0.567c0,0.474,0,12.472,0,13.039c0,0.567,0.016,0.567-0.567,0.567s-8.786,0-8.786,0v-21.6h14.74V55.111z"
      fill="none"
      stroke-width="0.25"
      stroke="#000000"
    />
    <rect
      height="2.875"
      x="9.146"
      y="66.428"
      fill="none"
      width="5.25"
      stroke-width="0.25"
      stroke="#000000"
    />
    <polygon
      fill="none"
      stroke-width="0.25"
      stroke="#000000"
      points="18.148,61.609 15.172,61.608 15.172,60.192 8.369,60.192 8.369,61.608 5.393,61.609 5.393,66.428 18.148,66.428 "
    />
    <path
      d="M0.283,24.597C0.127,24.597,0,24.724,0,24.88v20.267c0,0.156,0.127,0.283,0.283,0.283h14.934c0.156,0,0.283-0.127,0.283-0.283V24.88c0-0.156-0.127-0.283-0.283-0.283H0.283z"
      fill="none"
      stroke-width="0.25"
      stroke="#000000"
    />
    <polygon
      fill="none"
      stroke-width="0.25"
      stroke="#000000"
      points="18.148,7.694 15.172,7.695 15.172,9.112 8.369,9.112 8.369,7.695 5.393,7.694 5.393,2.876 18.148,2.876 "
    />
    <rect
      height="2.875"
      x="9.146"
      y="0.001"
      fill="none"
      width="5.25"
      stroke-width="0.25"
      stroke="#000000"
    />
    <g
      gorn="0.1.7"
      id="Pin_Labels_1_">
      <g
        transform="matrix(1 0 0 1 158.708 2.5474)">
        <g>
          <g>
            <text
              font-size="2"
              font-family="OCRA">11</text>
          </g>
        </g>
      </g>
      <g
        transform="matrix(1 0 0 1 151.5098 2.5474)">
        <g>
          <g>
            <text
              font-size="2"
              font-family="OCRA">10</text>
          </g>
        </g>
      </g>
      <g
        transform="matrix(1 0 0 1 145.0264 2.5474)">
        <g>
          <g>
            <text
              font-size="2"
              font-family="OCRA">9</text>
          </g>
        </g>
      </g>
      <g
        transform="matrix(1 0 0 1 137.1113 2.5474)">
        <g>
          <g>
            <text
              font-size="2"
              font-family="OCRA">25</text>
          </g>
        </g>
      </g>
      <g
        transform="matrix(1 0 0 1 129.9131 2.5474)">
        <g>
          <g>
            <text
              font-size="2"
              font-family="OCRA">26</text>
          </g>
        </g>
      </g>
      <g
        transform="matrix(1 0 0 1 122.7139 2.5474)">
        <g>
          <g>
            <text
              font-size="2"
              font-family="OCRA">14</text>
          </g>
        </g>
      </g>
      <g
        transform="matrix(1 0 0 1 114.7998 2.5474)">
        <g>
          <g>
            <text
              font-size="2"
              font-family="OCRA">RST</text>
          </g>
        </g>
      </g>
      <g
        transform="matrix(1 0 0 1 108.3154 2.5474)">
        <g>
          <g>
            <text
              font-size="2"
              font-family="OCRA">12</text>
          </g>
        </g>
      </g>
      <g
        transform="matrix(1 0 0 1 101.1172 2.5474)">
        <g>
          <g>
            <text
              font-size="2"
              font-family="OCRA">13</text>
          </g>
        </g>
      </g>
      <g
        transform="matrix(1 0 0 1 93.918 2.5474)">
        <g>
          <g>
            <text
              font-size="2"
              font-family="OCRA">33</text>
          </g>
        </g>
      </g>
      <g
        transform="matrix(1 0 0 1 86.7192 2.5474)">
        <g>
          <g>
            <text
              font-size="2"
              font-family="OCRA">32</text>
          </g>
        </g>
      </g>
      <g
        transform="matrix(1 0 0 1 79.5205 2.5474)">
        <g>
          <g>
            <text
              font-size="2"
              font-family="OCRA">27</text>
          </g>
        </g>
      </g>
      <g
        transform="matrix(1 0 0 1 72.3213 2.5474)">
        <g>
          <g>
            <text
              font-size="2"
              font-family="OCRA">15</text>
          </g>
        </g>
      </g>
      <g
        transform="matrix(1 0 0 1 65.8374 2.5474)">
        <g>
          <g>
            <text
              font-size="2"
              font-family="OCRA">2</text>
          </g>
        </g>
      </g>
      <g
        transform="matrix(1 0 0 1 58.6382 2.5474)">
        <g>
          <g>
            <text
              font-size="2"
              font-family="OCRA">0</text>
          </g>
        </g>
      </g>
      <g
        transform="matrix(1 0 0 1 51.4395 2.5474)">
        <g>
          <g>
            <text
              font-size="2"
              font-family="OCRA">4</text>
          </g>
        </g>
      </g>
      <g
        transform="matrix(1 0 0 1 43.5254 2.5474)">
        <g>
          <g>
            <text
              font-size="2"
              font-family="OCRA">16</text>
          </g>
        </g>
      </g>
      <g
        transform="matrix(1 0 0 1 35.6113 2.5474)">
        <g>
          <g>
            <text
              font-size="2"
              font-family="OCRA">GND</text>
          </g>
        </g>
      </g>
      <g
        transform="matrix(1 0 0 1 28.4126 2.5474)">
        <g>
          <g>
            <text
              font-size="2"
              font-family="OCRA">3V3</text>
          </g>
        </g>
      </g>
      <g
        transform="matrix(1 0 0 1 21.9287 2.5474)">
        <g>
          <g>
            <text
              font-size="2"
              font-family="OCRA">5V</text>
          </g>
        </g>
      </g>
      <g
        transform="matrix(-1 0 0 -1 160.8545 66.7549)">
        <g>
          <g>
            <text
              font-size="2"
              font-family="OCRA">6</text>
          </g>
        </g>
      </g>
      <g
        transform="matrix(-1 0 0 -1 153.6553 66.7549)">
        <g>
          <g>
            <text
              font-size="2"
              font-family="OCRA">7</text>
          </g>
        </g>
      </g>
      <g
        transform="matrix(-1 0 0 -1 146.4561 66.7549)">
        <g>
          <g>
            <text
              font-size="2"
              font-family="OCRA">8</text>
          </g>
        </g>
      </g>
      <g
        transform="matrix(-1 0 0 -1 139.9727 66.7549)">
        <g>
          <g>
            <text
              font-size="2"
              font-family="OCRA">29</text>
          </g>
        </g>
      </g>
      <g
        transform="matrix(-1 0 0 -1 132.7734 66.7549)">
        <g>
          <g>
            <text
              font-size="2"
              font-family="OCRA">38</text>
          </g>
        </g>
      </g>
      <g
        transform="matrix(-1 0 0 -1 125.5742 66.7549)">
        <g>
          <g>
            <text
              font-size="2"
              font-family="OCRA">37</text>
          </g>
        </g>
      </g>
      <g
        transform="matrix(-1 0 0 -1 118.376 66.7549)">
        <g>
          <g>
            <text
              font-size="2"
              font-family="OCRA">36</text>
          </g>
        </g>
      </g>
      <g
        transform="matrix(-1 0 0 -1 111.1768 66.7549)">
        <g>
          <g>
            <text
              font-size="2"
              font-family="OCRA">17</text>
          </g>
        </g>
      </g>
      <g
        transform="matrix(-1 0 0 -1 103.9775 66.7549)">
        <g>
          <g>
            <text
              font-size="2"
              font-family="OCRA">19</text>
          </g>
        </g>
      </g>
      <g
        transform="matrix(-1 0 0 -1 96.0635 66.7549)">
        <g>
          <g>
            <text
              font-size="2"
              font-family="OCRA">5</text>
          </g>
        </g>
      </g>
      <g
        transform="matrix(-1 0 0 -1 89.5801 66.7549)">
        <g>
          <g>
            <text
              font-size="2"
              font-family="OCRA">34</text>
          </g>
        </g>
      </g>
      <g
        transform="matrix(-1 0 0 -1 82.3809 66.7549)">
        <g>
          <g>
            <text
              font-size="2"
              font-family="OCRA">35</text>
          </g>
        </g>
      </g>
      <g
        transform="matrix(-1 0 0 -1 75.1816 66.7549)">
        <g>
          <g>
            <text
              font-size="2"
              font-family="OCRA">23</text>
          </g>
        </g>
      </g>
      <g
        transform="matrix(-1 0 0 -1 67.9824 66.7549)">
        <g>
          <g>
            <text
              font-size="2"
              font-family="OCRA">18</text>
          </g>
        </g>
      </g>
      <g
        transform="matrix(-1 0 0 -1 60.7832 66.7549)">
        <g>
          <g>
            <text
              font-size="2"
              font-family="OCRA">21</text>
          </g>
        </g>
      </g>
      <g
        transform="matrix(-1 0 0 -1 53.585 66.7549)">
        <g>
          <g>
            <text
              font-size="2"
              font-family="OCRA">TX</text>
          </g>
        </g>
      </g>
      <g
        transform="matrix(-1 0 0 -1 46.3857 66.7549)">
        <g>
          <g>
            <text
              font-size="2"
              font-family="OCRA">RX</text>
          </g>
        </g>
      </g>
      <g
        transform="matrix(-1 0 0 -1 39.1865 66.7549)">
        <g>
          <g>
            <text
              font-size="2"
              font-family="OCRA">22</text>
          </g>
        </g>
      </g>
      <g
        transform="matrix(-1 0 0 -1 32.7031 66.7549)">
        <g>
          <g>
            <text
              font-size="2"
              font-family="OCRA">GND</text>
          </g>
        </g>
      </g>
      <g
        transform="matrix(-1 0 0 -1 26.2188 66.7549)">
        <g>
          <g>
            <text
              font-size="2"
              font-family="OCRA">Vext</text>
          </g>
        </g>
      </g>
    </g>
  </g>
  <g
    gorn="0.2"
    id="copper1">
    <g>
      <circle
        gorn="0.2.0.0"
        id="connector39pin"
        cx="160.139"
        cy="63.446"
        fill="none"
        stroke-width="1.152"
        stroke="#F7BD13"
        r="1.584"
      />
      <circle
        gorn="0.2.0.1"
        id="connector38pin"
        cx="152.94"
        cy="63.446"
        fill="none"
        stroke-width="1.152"
        stroke="#F7BD13"
        r="1.583"
      />
      <circle
        gorn="0.2.0.2"
        id="connector37pin"
        cx="145.741"
        cy="63.446"
        fill="none"
        stroke-width="1.152"
        stroke="#F7BD13"
        r="1.584"
      />
      <circle
        gorn="0.2.0.3"
        id="connector36pin"
        cx="138.542"
        cy="63.446"
        fill="none"
        stroke-width="1.152"
        stroke="#F7BD13"
        r="1.584"
      />
      <circle
        gorn="0.2.0.4"
        id="connector35pin"
        cx="131.343"
        cy="63.446"
        fill="none"
        stroke-width="1.152"
        stroke="#F7BD13"
        r="1.584"
      />
      <circle
        gorn="0.2.0.5"
        id="connector34pin"
        cx="124.144"
        cy="63.446"
        fill="none"
        stroke-width="1.152"
        stroke="#F7BD13"
        r="1.583"
      />
      <circle
        gorn="0.2.0.6"
        id="connector33pin"
        cx="116.944"
        cy="63.446"
        fill="none"
        stroke-width="1.152"
        stroke="#F7BD13"
        r="1.584"
      />
      <circle
        gorn="0.2.0.7"
        id="connector32pin"
        cx="109.746"
        cy="63.446"
        fill="none"
        stroke-width="1.152"
        stroke="#F7BD13"
        r="1.584"
      />
      <circle
        gorn="0.2.0.8"
        id="connector31pin"
        cx="102.547"
        cy="63.446"
        fill="none"
        stroke-width="1.152"
        stroke="#F7BD13"
        r="1.584"
      />
      <circle
        gorn="0.2.0.9"
        id="connector30pin"
        cx="95.348"
        cy="63.446"
        fill="none"
        stroke-width="1.152"
        stroke="#F7BD13"
        r="1.584"
      />
      <circle
        gorn="0.2.0.10"
        id="connector29pin"
        cx="88.149"
        cy="63.446"
        fill="none"
        stroke-width="1.152"
        stroke="#F7BD13"
        r="1.584"
      />
      <circle
        gorn="0.2.0.11"
        id="connector28pin"
        cx="80.95"
        cy="63.446"
        fill="none"
        stroke-width="1.152"
        stroke="#F7BD13"
        r="1.584"
      />
      <circle
        gorn="0.2.0.12"
        id="connector27pin"
        cx="73.751"
        cy="63.446"
        fill="none"
        stroke-width="1.152"
        stroke="#F7BD13"
        r="1.584"
      />
      <circle
        gorn="0.2.0.13"
        id="connector26pin"
        cx="66.552"
        cy="63.446"
        fill="none"
        stroke-width="1.152"
        stroke="#F7BD13"
        r="1.584"
      />
      <circle
        gorn="0.2.0.14"
        id="connector25pin"
        cx="59.354"
        cy="63.446"
        fill="none"
        stroke-width="1.152"
        stroke="#F7BD13"
        r="1.584"
      />
      <circle
        gorn="0.2.0.15"
        id="connector24pin"
        cx="52.154"
        cy="63.446"
        fill="none"
        stroke-width="1.152"
        stroke="#F7BD13"
        r="1.584"
      />
      <circle
        gorn="0.2.0.16"
        id="connector23pin"
        cx="44.955"
        cy="63.446"
        fill="none"
        stroke-width="1.152"
        stroke="#F7BD13"
        r="1.584"
      />
      <circle
        gorn="0.2.0.17"
        id="connector22pin"
        cx="37.756"
        cy="63.446"
        fill="none"
        stroke-width="1.152"
        stroke="#F7BD13"
        r="1.584"
      />
      <circle
        gorn="0.2.0.18"
        id="connector21pin"
        cx="30.558"
        cy="63.446"
        fill="none"
        stroke-width="1.152"
        stroke="#F7BD13"
        r="1.584"
      />
      <circle
        gorn="0.2.0.19"
        id="connector20pin"
        cx="23.358"
        cy="63.446"
        fill="none"
        stroke-width="1.152"
        stroke="#F7BD13"
        r="1.584"
      />
      <circle
        gorn="0.2.0.20"
        id="connector19pin"
        cx="23.358"
        cy="5.857"
        fill="none"
        stroke-width="1.152"
        stroke="#F7BD13"
        r="1.584"
      />
      <circle
        gorn="0.2.0.21"
        id="connector18pin"
        cx="30.558"
        cy="5.857"
        fill="none"
        stroke-width="1.152"
        stroke="#F7BD13"
        r="1.584"
      />
      <circle
        gorn="0.2.0.22"
        id="connector17pin"
        cx="37.756"
        cy="5.857"
        fill="none"
        stroke-width="1.152"
        stroke="#F7BD13"
        r="1.584"
      />
      <circle
        gorn="0.2.0.23"
        id="connector16pin"
        cx="44.955"
        cy="5.857"
        fill="none"
        stroke-width="1.152"
        stroke="#F7BD13"
        r="1.584"
      />
      <circle
        gorn="0.2.0.24"
        id="connector15pin"
        cx="52.154"
        cy="5.857"
        fill="none"
        stroke-width="1.152"
        stroke="#F7BD13"
        r="1.584"
      />
      <circle
        gorn="0.2.0.25"
        id="connector14pin"
        cx="59.354"
        cy="5.857"
        fill="none"
        stroke-width="1.152"
        stroke="#F7BD13"
        r="1.584"
      />
      <circle
        gorn="0.2.0.26"
        id="connector13pin"
        cx="66.552"
        cy="5.857"
        fill="none"
        stroke-width="1.152"
        stroke="#F7BD13"
        r="1.584"
      />
      <circle
        gorn="0.2.0.27"
        id="connector12pin"
        cx="73.751"
        cy="5.857"
        fill="none"
        stroke-width="1.152"
        stroke="#F7BD13"
        r="1.584"
      />
      <circle
        gorn="0.2.0.28"
        id="connector11pin"
        cx="80.95"
        cy="5.857"
        fill="none"
        stroke-width="1.152"
        stroke="#F7BD13"
        r="1.584"
      />
      <circle
        gorn="0.2.0.29"
        id="connector10pin"
        cx="88.149"
        cy="5.857"
        fill="none"
        stroke-width="1.152"
        stroke="#F7BD13"
        r="1.584"
      />
      <circle
        gorn="0.2.0.30"
        id="connector9pin"
        cx="95.348"
        cy="5.857"
        fill="none"
        stroke-width="1.152"
        stroke="#F7BD13"
        r="1.584"
      />
      <circle
        gorn="0.2.0.31"
        id="connector8pin"
        cx="102.547"
        cy="5.857"
        fill="none"
        stroke-width="1.152"
        stroke="#F7BD13"
        r="1.584"
      />
      <circle
        gorn="0.2.0.32"
        id="connector7pin"
        cx="109.746"
        cy="5.857"
        fill="none"
        stroke-width="1.152"
        stroke="#F7BD13"
        r="1.584"
      />
      <circle
        gorn="0.2.0.33"
        id="connector6pin"
        cx="116.944"
        cy="5.857"
        fill="none"
        stroke-width="1.152"
        stroke="#F7BD13"
        r="1.584"
      />
      <circle
        gorn="0.2.0.34"
        id="connector5pin"
        cx="124.144"
        cy="5.857"
        fill="none"
        stroke-width="1.152"
        stroke="#F7BD13"
        r="1.584"
      />
      <circle
        gorn="0.2.0.35"
        id="connector4pin"
        cx="131.343"
        cy="5.857"
        fill="none"
        stroke-width="1.152"
        stroke="#F7BD13"
        r="1.584"
      />
      <circle
        gorn="0.2.0.36"
        id="connector3pin"
        cx="138.542"
        cy="5.857"
        fill="none"
        stroke-width="1.152"
        stroke="#F7BD13"
        r="1.584"
      />
      <circle
        gorn="0.2.0.37"
        id="connector2pin"
        cx="145.741"
        cy="5.857"
        fill="none"
        stroke-width="1.152"
        stroke="#F7BD13"
        r="1.584"
      />
      <circle
        gorn="0.2.0.38"
        id="connector1pin"
        cx="152.94"
        cy="5.857"
        fill="none"
        stroke-width="1.152"
        stroke="#F7BD13"
        r="1.583"
      />
      <circle
        gorn="0.2.0.39"
        id="connector0pin"
        cx="160.139"
        cy="5.857"
        fill="none"
        stroke-width="1.152"
        stroke="#F7BD13"
        r="1.584"
      />
    </g>
  </g>
</svg>
