<?xml version="1.0" encoding="UTF-8"?>
<!-- Created with Fritzing (http://www.fritzing.org/) -->
<svg id="svg323" width="1.1764in" height="1.5171in" version="1.2" viewBox="0 0 1176.4 1517.1" xmlns="http://www.w3.org/2000/svg">
 <desc id="desc2972">
  <referenceFile>H-Bridge_Kit_2Go_pcb.svg</referenceFile>
 </desc>
 <desc id="desc2">Fritzing footprint generated by brd2svg</desc>
 <g id="silkscreen">
  <path id="path4" d="m1172.4 1465.7c-4.7995 34.131-32.329 48.52-71.75 47.014h-1049.5c-27.89-0.2264-49.384-20.132-46.923-47.014v-1414.5c-2.465-26.884 20.034-49.43 46.923-47.02h1049.5c34.341-1.0687 66.954 12.887 71.75 47.02v1414.5" fill="none" stroke="#fff" stroke-width="8"/>
  <g transform="matrix(13.889 0 0 13.889 .18829 -1.1118)">
   <g id="g12">
    <g id="g10">
     <g id="g34">
      <title id="title28">element:IC2</title>
      <g id="g32">
       <title id="title30">package:BS_INFINEON_P-DSO-12-2</title>
      </g>
     </g>
    </g>
   </g>
   <g id="g20">
    <g id="g18">
     <g id="g80">
      <title id="title74">element:U$2</title>
      <g id="g78">
       <title id="title76">package:INFINEON_LOGO_INFINEON_LOGO_5_SILK</title>
      </g>
     </g>
    </g>
   </g>
   <g id="g33">
    <g id="g31">
     <g id="g98">
      <title id="title82">element:X3</title>
      <g id="g96">
       <title id="title84">package:7POL254</title>
       <line id="line86" x1="73.374" x2="73.374" y1="56.659" y2="107.8" stroke="#fff" stroke-linecap="round" stroke-width=".72"/>
       <line id="line88" x1="73.374" x2="81.595" y1="107.8" y2="107.8" stroke="#fff" stroke-linecap="round" stroke-width=".72"/>
       <line id="line90" x1="81.595" x2="81.595" y1="107.8" y2="56.659" stroke="#fff" stroke-linecap="round" stroke-width=".72"/>
       <line id="line92" x1="81.595" x2="73.374" y1="56.659" y2="56.659" stroke="#fff" stroke-linecap="round" stroke-width=".72"/>
       <line id="line94" x1="80.603" x2="80.603" y1="56.97" y2="107.48" stroke="#fff" stroke-linecap="round" stroke-width=".432"/>
      </g>
     </g>
    </g>
   </g>
   <g id="g46">
    <g id="g44">
     <g id="g116">
      <title id="title100">element:X5</title>
      <g id="g114">
       <title id="title102">package:4POL254</title>
       <line id="line104" x1="73.374" x2="73.374" y1="6.2585" y2="35.796" stroke="#fff" stroke-linecap="round" stroke-width=".72"/>
       <line id="line106" x1="73.374" x2="81.595" y1="35.796" y2="35.796" stroke="#fff" stroke-linecap="round" stroke-width=".72"/>
       <line id="line108" x1="81.595" x2="81.595" y1="35.796" y2="6.2585" stroke="#fff" stroke-linecap="round" stroke-width=".72"/>
       <line id="line110" x1="81.595" x2="73.374" y1="6.2585" y2="6.2585" stroke="#fff" stroke-linecap="round" stroke-width=".72"/>
       <line id="line112" x1="80.603" x2="80.603" y1="6.5703" y2="35.484" stroke="#fff" stroke-linecap="round" stroke-width=".432"/>
      </g>
     </g>
    </g>
   </g>
   <g id="g92">
    <g id="g90">
     <g id="g246">
      <title id="title118">element:X101</title>
      <g id="g244">
       <title id="title120">package:ZX62-AB-5PA_MICRO-USB</title>
       <line id="line136" x1="11.558" x2="20.062" y1="94.997" y2="94.997" stroke="#fff" stroke-linecap="round" stroke-width=".28346"/>
       <line id="line138" x1="20.062" x2="20.062" y1="94.997" y2="96.414" stroke="#fff" stroke-linecap="round" stroke-width=".28346"/>
       <line id="line140" x1="20.062" x2="21.196" y1="96.414" y2="96.414" stroke="#fff" stroke-linecap="round" stroke-width=".28346"/>
       <line id="line142" x1="21.196" x2="21.196" y1="96.414" y2="94.997" stroke="#fff" stroke-linecap="round" stroke-width=".28346"/>
       <line id="line144" x1="21.196" x2="25.306" y1="94.997" y2="94.997" stroke="#fff" stroke-linecap="round" stroke-width=".28346"/>
       <line id="line146" x1="25.306" x2="25.306" y1="94.997" y2="99.533" stroke="#fff" stroke-linecap="round" stroke-width=".28346"/>
       <line id="line148" x1="11.558" x2="11.558" y1="94.997" y2="96.414" stroke="#fff" stroke-linecap="round" stroke-width=".28346"/>
       <line id="line150" x1="11.558" x2="10.424" y1="96.414" y2="96.414" stroke="#fff" stroke-linecap="round" stroke-width=".28346"/>
       <line id="line152" x1="10.424" x2="10.424" y1="96.414" y2="94.997" stroke="#fff" stroke-linecap="round" stroke-width=".28346"/>
       <line id="line154" x1="10.424" x2="6.3142" y1="94.997" y2="94.997" stroke="#fff" stroke-linecap="round" stroke-width=".28346"/>
       <line id="line156" x1="6.3142" x2="6.3142" y1="94.997" y2="109.17" stroke="#fff" stroke-linecap="round" stroke-width=".28346"/>
       <line id="line158" x1="25.306" x2="25.306" y1="94.997" y2="109.17" stroke="#fff" stroke-linecap="round" stroke-width=".28346"/>
       <line id="line192" x1="19.779" x2="21.48" y1="105.48" y2="105.48" stroke="#fff" stroke-linecap="round" stroke-width=".28346"/>
       <path id="path194" d="m21.48 105.48a0.28346 0.28346 0 0 0 0.2835-0.283" fill="none" stroke="#fff" stroke-width=".28346"/>
       <line id="line196" x1="21.763" x2="21.763" y1="105.2" y2="104.64" stroke="#fff" stroke-linecap="round" stroke-width=".28346"/>
       <path id="path198" d="m21.196 104.07a0.56693 0.56693 0 0 0 0.5669 0.567" fill="none" stroke="#fff" stroke-width=".28346"/>
       <line id="line200" x1="21.196" x2="21.196" y1="104.07" y2="101.52" stroke="#fff" stroke-linecap="round" stroke-width=".28346"/>
       <path id="path202" d="m21.196 101.52a0.28346 0.28346 0 0 0-0.2835-0.284" fill="none" stroke="#fff" stroke-width=".28346"/>
       <path id="path204" d="m19.495 105.2a0.28346 0.28346 0 0 0 0.2835 0.283" fill="none" stroke="#fff" stroke-width=".28346"/>
       <line id="line206" x1="19.495" x2="19.495" y1="105.2" y2="104.64" stroke="#fff" stroke-linecap="round" stroke-width=".28346"/>
       <path id="path208" d="m19.495 104.64a0.56693 0.56693 0 0 0 0.5669-0.567" fill="none" stroke="#fff" stroke-width=".28346"/>
       <line id="line210" x1="20.062" x2="20.062" y1="104.07" y2="101.52" stroke="#fff" stroke-linecap="round" stroke-width=".28346"/>
       <line id="line212" x1="20.913" x2="20.346" y1="101.23" y2="101.23" stroke="#fff" stroke-linecap="round" stroke-width=".28346"/>
       <path id="path214" d="m20.346 101.23a0.28346 0.28346 0 0 0-0.2835 0.284" fill="none" stroke="#fff" stroke-width=".28346"/>
       <line id="line216" x1="10.141" x2="11.842" y1="105.48" y2="105.48" stroke="#fff" stroke-linecap="round" stroke-width=".28346"/>
       <path id="path218" d="m11.842 105.48a0.28346 0.28346 0 0 0 0.2834-0.283" fill="none" stroke="#fff" stroke-width=".28346"/>
       <line id="line220" x1="12.125" x2="12.125" y1="105.2" y2="104.64" stroke="#fff" stroke-linecap="round" stroke-width=".28346"/>
       <path id="path222" d="m11.558 104.07a0.56693 0.56693 0 0 0 0.567 0.567" fill="none" stroke="#fff" stroke-width=".28346"/>
       <line id="line224" x1="11.558" x2="11.558" y1="104.07" y2="101.52" stroke="#fff" stroke-linecap="round" stroke-width=".28346"/>
       <path id="path226" d="m11.558 101.52a0.28346 0.28346 0 0 0-0.2834-0.284" fill="none" stroke="#fff" stroke-width=".28346"/>
       <path id="path228" d="m9.8574 105.2a0.28346 0.28346 0 0 0 0.28345 0.283" fill="none" stroke="#fff" stroke-width=".28346"/>
       <line id="line230" x1="9.8574" x2="9.8574" y1="105.2" y2="104.64" stroke="#fff" stroke-linecap="round" stroke-width=".28346"/>
       <path id="path232" d="m9.8574 104.64a0.56693 0.56693 0 0 0 0.56695-0.567" fill="none" stroke="#fff" stroke-width=".28346"/>
       <line id="line234" x1="10.424" x2="10.424" y1="104.07" y2="101.52" stroke="#fff" stroke-linecap="round" stroke-width=".28346"/>
       <line id="line236" x1="11.275" x2="10.708" y1="101.23" y2="101.23" stroke="#fff" stroke-linecap="round" stroke-width=".28346"/>
       <path id="path238" d="m10.708 101.23a0.28346 0.28346 0 0 0-0.2834 0.284" fill="none" stroke="#fff" stroke-width=".28346"/>
       <rect id="rect240" x="4.3299" y="104.07" width="1.8425" height="1.8425" fill="#fff" stroke-width="0"/>
       <rect id="rect242" x="25.448" y="104.07" width="1.8425" height="1.8425" fill="#fff" stroke-width="0"/>
      </g>
     </g>
    </g>
   </g>
  </g>
 </g>
 <g id="copper0">
  <g id="copper1">
   <circle id="connector1pad" cx="74.204" cy="145.85" r="22.146" fill="none" stroke="#FFBF00" stroke-width="9" connectorname="P0.7/SI"/>
   <circle id="connector27pin" cx="551.37" cy="906.49" r="13.5" fill="none" stroke="#FFBF00" stroke-width="7" connectorname="GND"/>
   <path id="path257" d="m520.32 892.99h62.1v27h-62.1v-27m17.55 13.5a13.5 13.5 0 1 0 27 0 13.5 13.5 0 1 0-27 0z" fill="#FFBF00" stroke-width="0"/>
   <circle id="connector8pad" cx="477.36" cy="45.851" r="22.146" fill="none" stroke="#FFBF00" stroke-width="9" connectorname="P0.5"/>
   <circle id="connector26pin" cx="1076.4" cy="1440.9" r="29.528" fill="none" stroke="#FFBF00" stroke-width="11.811" connectorname="V5V"/>
   <path id="path261" d="m1008.5 1411.4h135.83v59.055h-135.83v-59.055m38.381 29.528a29.528 29.528 0 1 0 59.055 0 29.528 29.528 0 1 0-59.055 0z" fill="#FFBF00" stroke-width="0"/>
   <circle id="connector31pin" cx="551.37" cy="1106.5" r="13.5" fill="none" stroke="#FFBF00" stroke-width="7" connectorname="+3V3"/>
   <rect id="rect16535" x="537.87" y="1093" width="27" height="27" fill="none" stroke="#FFBF00" stroke-width="7"/>
   <circle id="connector12pad" cx="477.36" cy="445.85" r="22.146" fill="none" stroke="#FFBF00" stroke-width="9" connectorname="P2.11/DIS"/>
   <circle id="connector5pad" cx="74.204" cy="545.85" r="22.146" fill="none" stroke="#FFBF00" stroke-width="9" connectorname="P0.15"/>
   <circle id="connector22pin" cx="1076.4" cy="1040.9" r="29.528" fill="none" stroke="#FFBF00" stroke-width="11.811" connectorname="VBAT"/>
   <path id="path269" d="m1008.5 1011.4h135.83v59.056h-135.83v-59.056m38.381 29.531a29.528 29.528 0 1 0 59.055 0 29.528 29.528 0 1 0-59.055 0z" fill="#FFBF00" stroke-width="0"/>
   <circle id="connector19pin" cx="1076.4" cy="440.93" r="29.528" fill="none" stroke="#FFBF00" stroke-width="11.811" connectorname="OUT1"/>
   <path id="path272" d="m1008.5 411.4h135.83v59.055h-135.83v-59.055m38.381 29.528a29.528 29.528 0 1 0 59.055 0 29.528 29.528 0 1 0-59.055 0z" fill="#FFBF00" stroke-width="0"/>
   <circle id="connector29pin" cx="551.37" cy="1006.5" r="13.5" fill="none" stroke="#FFBF00" stroke-width="7" connectorname="DBG_TMS"/>
   <path id="path16544" d="m520.32 992.99h62.1v27h-62.1v-27m17.55 13.497a13.5 13.5 0 1 0 27 0 13.5 13.5 0 1 0-27 0z" fill="#FFBF00" stroke-width="0"/>
   <circle id="connector14pad" cx="477.36" cy="645.85" r="22.146" fill="none" stroke="#FFBF00" stroke-width="9" connectorname="P2.9"/>
   <circle id="connector10pad" cx="477.36" cy="245.85" r="22.146" fill="none" stroke="#FFBF00" stroke-width="9" connectorname="+3V3"/>
   <circle id="connector7pad" cx="74.204" cy="745.85" r="22.146" fill="none" stroke="#FFBF00" stroke-width="9" connectorname="P2.6"/>
   <circle id="connector3pad" cx="74.204" cy="345.85" r="22.146" fill="none" stroke="#FFBF00" stroke-width="9" connectorname="P0.9/CSN"/>
   <circle id="connector20pin" cx="1076.4" cy="840.93" r="29.528" fill="none" stroke="#FFBF00" stroke-width="11.811" connectorname="VS"/>
   <path id="path282" d="m1008.5 811.41h135.83v59.055h-135.83v-59.055m38.381 29.528a29.528 29.528 0 1 0 59.055 0 29.528 29.528 0 1 0-59.055 0z" fill="#FFBF00" stroke-width="0"/>
   <circle id="connector24pin" cx="1076.4" cy="1240.9" r="29.528" fill="none" stroke="#FFBF00" stroke-width="11.811" connectorname="GND"/>
   <path id="path285" d="m1008.5 1211.4h135.83v59.055h-135.83v-59.055m38.381 29.531a29.528 29.528 0 1 0 59.055 0 29.528 29.528 0 1 0-59.055 0z" fill="#FFBF00" stroke-width="0"/>
   <circle id="connector17pin" cx="1076.4" cy="240.93" r="29.528" fill="none" stroke="#FFBF00" stroke-width="11.811" connectorname="OUT2"/>
   <path id="path288" d="m1008.5 211.4h135.83v59.055h-135.83v-59.055m38.381 29.528a29.528 29.528 0 1 0 59.055 0 29.528 29.528 0 1 0-59.055 0z" fill="#FFBF00" stroke-width="0"/>
   <circle id="connector30pin" cx="551.37" cy="1056.5" r="13.5" fill="none" stroke="#FFBF00" stroke-width="7" connectorname="DBG_TCK"/>
   <path id="path16557" d="m520.32 1043h62.1v27h-62.1v-27m17.55 13.5a13.5 13.5 0 1 0 27 0 13.5 13.5 0 1 0-27 0z" fill="#FFBF00" stroke-width="0"/>
   <circle id="connector28pin" cx="551.37" cy="956.49" r="13.5" fill="none" stroke="#FFBF00" stroke-width="7" connectorname="DBG_RESET"/>
   <path id="path16560" d="m520.32 942.99h62.1v27h-62.1v-27m17.55 13.5a13.5 13.5 0 1 0 27 0 13.5 13.5 0 1 0-27 0z" fill="#FFBF00" stroke-width="0"/>
   <circle id="connector13pad" cx="477.36" cy="545.85" r="22.146" fill="none" stroke="#FFBF00" stroke-width="9" connectorname="P2.10/PWM"/>
   <circle id="connector11pad" cx="477.36" cy="345.85" r="22.146" fill="none" stroke="#FFBF00" stroke-width="9" connectorname="GND"/>
   <circle id="connector9pad" cx="477.36" cy="145.85" r="22.146" fill="none" stroke="#FFBF00" stroke-width="9" connectorname="P0.0"/>
   <circle id="connector15pin" cx="477.36" cy="745.85" r="22.146" fill="none" stroke="#FFBF00" stroke-width="9" connectorname="P2.7/P2.8"/>
   <rect id="connector15pad" x="455.21" y="723.71" width="44.291" height="44.291" fill="none" stroke="#FFBF00" stroke-width="9"/>
   <circle id="connector4pad" cx="74.204" cy="445.85" r="22.146" fill="none" stroke="#FFBF00" stroke-width="9" connectorname="P0.14"/>
   <circle id="connector2pad" cx="74.204" cy="245.85" r="22.146" fill="none" stroke="#FFBF00" stroke-width="9" connectorname="P0.8/SCK"/>
   <circle id="connector0pad" cx="74.204" cy="45.851" r="22.146" fill="none" stroke="#FFBF00" stroke-width="9" connectorname="P0.6/SO"/>
   <circle id="connector21pin" cx="1076.4" cy="940.93" r="29.528" fill="none" stroke="#FFBF00" stroke-width="11.811" connectorname="VS"/>
   <path id="path307" d="m1008.5 911.41h135.83v59.055h-135.83v-59.055m38.381 29.528a29.528 29.528 0 1 0 59.055 0 29.528 29.528 0 1 0-59.055 0z" fill="#FFBF00" stroke-width="0"/>
   <circle id="connector23pin" cx="1076.4" cy="1140.9" r="29.528" fill="none" stroke="#FFBF00" stroke-width="11.811" connectorname="VBAT"/>
   <path id="path310" d="m1008.5 1111.4h135.83v59.056h-135.83v-59.056m38.381 29.531a29.528 29.528 0 1 0 59.055 0 29.528 29.528 0 1 0-59.055 0z" fill="#FFBF00" stroke-width="0"/>
   <circle id="connector25pin" cx="1076.4" cy="1340.9" r="29.528" fill="none" stroke="#FFBF00" stroke-width="11.811" connectorname="GND"/>
   <path id="path313" d="m1008.5 1311.4h135.83v59.055h-135.83v-59.055m38.381 29.531a29.528 29.528 0 1 0 59.055 0 29.528 29.528 0 1 0-59.055 0z" fill="#FFBF00" stroke-width="0"/>
   <circle id="connector16pin" cx="1076.4" cy="140.93" r="29.528" fill="none" stroke="#FFBF00" stroke-width="11.811" connectorname="OUT2"/>
   <path id="path316" d="m1008.5 111.4h135.83v59.055h-135.83v-59.055m38.381 29.528a29.528 29.528 0 1 0 59.055 0 29.528 29.528 0 1 0-59.055 0z" fill="#FFBF00" stroke-width="0"/>
   <circle id="connector18pin" cx="1076.4" cy="340.93" r="29.528" fill="none" stroke="#FFBF00" stroke-width="11.811" connectorname="OUT1"/>
   <path id="path319" d="m1008.5 311.4h135.83v59.055h-135.83v-59.055m38.381 29.528a29.528 29.528 0 1 0 59.055 0 29.528 29.528 0 1 0-59.055 0z" fill="#FFBF00" stroke-width="0"/>
   <circle id="connector6pad" cx="74.204" cy="645.65" r="22.146" fill="none" stroke="#ffbf00" stroke-width="9" connectorname="P0.15"/>
  </g>
 </g>
</svg>
