<?xml version='1.0' encoding='UTF-8' standalone='no'?>
<!-- Created with Fritzing (http://www.fritzing.org/) -->
<svg xmlns="http://www.w3.org/2000/svg"  y="0in" x="0in" version="1.2" viewBox="0 0 84.685 121.445" height="1.68673in" gorn="0" width="1.17618in" id="svg323">
    <desc >
        <referenceFile >H-Bridge_Kit_2Go_pcb.svg</referenceFile>
    </desc>
    <defs  id="defs327"/>
    <desc  id="desc2">Fritzing footprint generated by brd2svg</desc>
    <g  gorn="0.3" id="silkscreen">
        <path fill="none"  stroke="#ffffff" d="m 84.397,105.612 a 4.10672,4.10672 0 0 1 -5.166,3.385 H 3.66644 A 3.11358,3.11358 0 0 1 0.288,105.612 V 3.76615 A 3.11358,3.11358 0 0 1 3.66644,0.380703 H 79.231 A 4.10672,4.10672 0 0 1 84.397,3.76615 V 105.612" stroke-width="0.576" gorn="0.3.0" id="path4"/>
        <g  gorn="0.3.1" id="g34">
            <title  id="title28">element:IC2</title>
            <g  gorn="0.3.1.1" id="g32">
                <title  id="title30">package:BS_INFINEON_P-DSO-12-2</title>
            </g>
        </g>
        <g  gorn="0.3.2" id="g80">
            <title  id="title74">element:U$2</title>
            <g  gorn="0.3.2.1" id="g78">
                <title  id="title76">package:INFINEON_LOGO_INFINEON_LOGO_5_SILK</title>
            </g>
        </g>
        <g  gorn="0.3.3" id="g98">
            <title  id="title82">element:X3</title>
            <g  gorn="0.3.3.1" id="g96">
                <title  id="title84">package:7POL254</title>
                <line  x1="73.374496" y2="107.796" stroke="#ffffff" stroke-linecap="round" x2="73.374496" y1="56.658501" stroke-width="0.72" gorn="0.3.3.1.1" id="line86"/>
                <line  x1="73.374496" y2="107.796" stroke="#ffffff" stroke-linecap="round" x2="81.595398" y1="107.796" stroke-width="0.72" gorn="0.3.3.1.2" id="line88"/>
                <line  x1="81.595398" y2="56.658501" stroke="#ffffff" stroke-linecap="round" x2="81.595398" y1="107.796" stroke-width="0.72" gorn="0.3.3.1.3" id="line90"/>
                <line  x1="81.595398" y2="56.658501" stroke="#ffffff" stroke-linecap="round" x2="73.374496" y1="56.658501" stroke-width="0.72" gorn="0.3.3.1.4" id="line92"/>
                <line  x1="80.603302" y2="107.484" stroke="#ffffff" stroke-linecap="round" x2="80.603302" y1="56.970299" stroke-width="0.432" gorn="0.3.3.1.5" id="line94"/>
            </g>
        </g>
        <g  gorn="0.3.4" id="g116">
            <title  id="title100">element:X5</title>
            <g  gorn="0.3.4.1" id="g114">
                <title  id="title102">package:4POL254</title>
                <line  x1="73.374496" y2="35.795502" stroke="#ffffff" stroke-linecap="round" x2="73.374496" y1="6.2585001" stroke-width="0.72" gorn="0.3.4.1.1" id="line104"/>
                <line  x1="73.374496" y2="35.795502" stroke="#ffffff" stroke-linecap="round" x2="81.595398" y1="35.795502" stroke-width="0.72" gorn="0.3.4.1.2" id="line106"/>
                <line  x1="81.595398" y2="6.2585001" stroke="#ffffff" stroke-linecap="round" x2="81.595398" y1="35.795502" stroke-width="0.72" gorn="0.3.4.1.3" id="line108"/>
                <line  x1="81.595398" y2="6.2585001" stroke="#ffffff" stroke-linecap="round" x2="73.374496" y1="6.2585001" stroke-width="0.72" gorn="0.3.4.1.4" id="line110"/>
                <line  x1="80.603302" y2="35.4837" stroke="#ffffff" stroke-linecap="round" x2="80.603302" y1="6.5703101" stroke-width="0.432" gorn="0.3.4.1.5" id="line112"/>
            </g>
        </g>
        <g  gorn="0.3.5" id="g246">
            <title  id="title118">element:X101</title>
            <g  gorn="0.3.5.1" id="g244">
                <title  id="title120">package:ZX62-AB-5PA_MICRO-USB</title>
                <line  x1="15.8386" y2="117.192" stroke="#ffffff" stroke-linecap="round" x2="14.4212" y1="112.941" stroke-width="0.36" gorn="0.3.5.1.1" id="line122"/>
                <line  x1="14.4212" y2="117.192" stroke="#ffffff" stroke-linecap="round" x2="15.2716" y1="117.192" stroke-width="0.36" gorn="0.3.5.1.2" id="line124"/>
                <line  x1="15.2716" y2="121.445" stroke="#ffffff" stroke-linecap="round" x2="15.2716" y1="117.192" stroke-width="0.36" gorn="0.3.5.1.3" id="line126"/>
                <line  x1="15.2716" y2="121.445" stroke="#ffffff" stroke-linecap="round" x2="16.4055" y1="121.445" stroke-width="0.36" gorn="0.3.5.1.4" id="line128"/>
                <line  x1="16.4055" y2="117.192" stroke="#ffffff" stroke-linecap="round" x2="16.4055" y1="121.445" stroke-width="0.36" gorn="0.3.5.1.5" id="line130"/>
                <line  x1="16.4055" y2="117.192" stroke="#ffffff" stroke-linecap="round" x2="17.255899" y1="117.192" stroke-width="0.36" gorn="0.3.5.1.6" id="line132"/>
                <line  x1="17.255899" y2="112.941" stroke="#ffffff" stroke-linecap="round" x2="15.8386" y1="117.192" stroke-width="0.36" gorn="0.3.5.1.7" id="line134"/>
                <line  x1="11.5582" y2="94.996803" stroke="#ffffff" stroke-linecap="round" x2="20.062201" y1="94.996803" stroke-width="0.283465" gorn="0.3.5.1.8" id="line136"/>
                <line  x1="20.062201" y2="96.414497" stroke="#ffffff" stroke-linecap="round" x2="20.062201" y1="94.996803" stroke-width="0.283465" gorn="0.3.5.1.9" id="line138"/>
                <line  x1="20.062201" y2="96.414497" stroke="#ffffff" stroke-linecap="round" x2="21.1961" y1="96.414497" stroke-width="0.283465" gorn="0.3.5.1.10" id="line140"/>
                <line  x1="21.1961" y2="94.996803" stroke="#ffffff" stroke-linecap="round" x2="21.1961" y1="96.414497" stroke-width="0.283465" gorn="0.3.5.1.11" id="line142"/>
                <line  x1="21.1961" y2="94.996803" stroke="#ffffff" stroke-linecap="round" x2="25.306299" y1="94.996803" stroke-width="0.283465" gorn="0.3.5.1.12" id="line144"/>
                <line  x1="25.306299" y2="99.532799" stroke="#ffffff" stroke-linecap="round" x2="25.306299" y1="94.996803" stroke-width="0.283465" gorn="0.3.5.1.13" id="line146"/>
                <line  x1="11.5582" y2="96.414497" stroke="#ffffff" stroke-linecap="round" x2="11.5582" y1="94.996803" stroke-width="0.283465" gorn="0.3.5.1.14" id="line148"/>
                <line  x1="11.5582" y2="96.414497" stroke="#ffffff" stroke-linecap="round" x2="10.4244" y1="96.414497" stroke-width="0.283465" gorn="0.3.5.1.15" id="line150"/>
                <line  x1="10.4244" y2="94.996803" stroke="#ffffff" stroke-linecap="round" x2="10.4244" y1="96.414497" stroke-width="0.283465" gorn="0.3.5.1.16" id="line152"/>
                <line  x1="10.4244" y2="94.996803" stroke="#ffffff" stroke-linecap="round" x2="6.3141699" y1="94.996803" stroke-width="0.283465" gorn="0.3.5.1.17" id="line154"/>
                <line  x1="6.3141699" y2="109.17" stroke="#ffffff" stroke-linecap="round" x2="6.3141699" y1="94.996803" stroke-width="0.283465" gorn="0.3.5.1.18" id="line156"/>
                <line  x1="25.306299" y2="109.17" stroke="#ffffff" stroke-linecap="round" x2="25.306299" y1="94.996803" stroke-width="0.283465" gorn="0.3.5.1.19" id="line158"/>
                <line  x1="7.5897398" y2="109.17" stroke="#ffffff" stroke-linecap="round" x2="7.02284" y1="109.17" stroke-width="0.283465" gorn="0.3.5.1.20" id="line160"/>
                <line  x1="7.02284" y2="109.17" stroke="#ffffff" stroke-linecap="round" x2="6.3141699" y1="109.17" stroke-width="0.283465" gorn="0.3.5.1.21" id="line162"/>
                <path fill="none"  stroke="#ffffff" d="M 8.15666,109.737 A 0.566929,0.566929 0 0 0 7.58974,109.17" stroke-width="0.283465" gorn="0.3.5.1.22" id="path164"/>
                <path fill="none"  stroke="#ffffff" d="m 8.15666,109.737 a 1.13386,1.13386 0 0 0 1.13386,1.134" stroke-width="0.283465" gorn="0.3.5.1.23" id="path166"/>
                <line  x1="25.306299" y2="109.17" stroke="#ffffff" stroke-linecap="round" x2="24.030701" y1="109.17" stroke-width="0.283465" gorn="0.3.5.1.24" id="line168"/>
                <line  x1="9.2905197" y2="110.871" stroke="#ffffff" stroke-linecap="round" x2="22.329901" y1="110.871" stroke-width="0.283465" gorn="0.3.5.1.25" id="line170"/>
                <path fill="none"  stroke="#ffffff" d="m 24.0307,109.17 a 0.566929,0.566929 0 0 0 -0.5669,0.567" stroke-width="0.283465" gorn="0.3.5.1.26" id="path172"/>
                <path fill="none"  stroke="#ffffff" d="m 22.3299,110.871 a 1.13386,1.13386 0 0 0 1.1339,-1.134" stroke-width="0.283465" gorn="0.3.5.1.27" id="path174"/>
                <line  x1="9.5739803" y2="109.17" stroke="#ffffff" stroke-linecap="round" x2="22.046499" y1="109.17" stroke-width="0.283465" gorn="0.3.5.1.28" id="line176"/>
                <line  x1="7.02284" y2="110.871" stroke="#ffffff" stroke-linecap="round" x2="6.1724401" y1="109.17" stroke-width="0.283465" gorn="0.3.5.1.29" id="line178"/>
                <line  x1="5.6055102" y2="110.871" stroke="#ffffff" stroke-linecap="round" x2="6.1724401" y1="110.588" stroke-width="0.283465" gorn="0.3.5.1.30" id="line180"/>
                <line  x1="6.3141699" y2="110.588" stroke="#ffffff" stroke-linecap="round" x2="5.6055102" y1="109.17" stroke-width="0.283465" gorn="0.3.5.1.31" id="line182"/>
                <line  x1="24.597601" y2="109.17" stroke="#ffffff" stroke-linecap="round" x2="25.306299" y1="109.17" stroke-width="0.283465" gorn="0.3.5.1.32" id="line184"/>
                <line  x1="24.597601" y2="110.871" stroke="#ffffff" stroke-linecap="round" x2="25.448" y1="109.17" stroke-width="0.283465" gorn="0.3.5.1.33" id="line186"/>
                <line  x1="26.014999" y2="110.871" stroke="#ffffff" stroke-linecap="round" x2="25.448" y1="110.588" stroke-width="0.283465" gorn="0.3.5.1.34" id="line188"/>
                <line  x1="25.306299" y2="110.588" stroke="#ffffff" stroke-linecap="round" x2="26.014999" y1="109.17" stroke-width="0.283465" gorn="0.3.5.1.35" id="line190"/>
                <line  x1="19.778799" y2="105.485" stroke="#ffffff" stroke-linecap="round" x2="21.4795" y1="105.485" stroke-width="0.283465" gorn="0.3.5.1.36" id="line192"/>
                <path fill="none"  stroke="#ffffff" d="m 21.4795,105.485 a 0.283465,0.283465 0 0 0 0.2835,-0.283" stroke-width="0.283465" gorn="0.3.5.1.37" id="path194"/>
                <line  x1="21.763" y2="104.635" stroke="#ffffff" stroke-linecap="round" x2="21.763" y1="105.202" stroke-width="0.283465" gorn="0.3.5.1.38" id="line196"/>
                <path fill="none"  stroke="#ffffff" d="m 21.1961,104.068 a 0.566929,0.566929 0 0 0 0.5669,0.567" stroke-width="0.283465" gorn="0.3.5.1.39" id="path198"/>
                <line  x1="21.1961" y2="101.517" stroke="#ffffff" stroke-linecap="round" x2="21.1961" y1="104.068" stroke-width="0.283465" gorn="0.3.5.1.40" id="line200"/>
                <path fill="none"  stroke="#ffffff" d="m 21.1961,101.517 a 0.283465,0.283465 0 0 0 -0.2835,-0.284" stroke-width="0.283465" gorn="0.3.5.1.41" id="path202"/>
                <path fill="none"  stroke="#ffffff" d="m 19.4953,105.202 a 0.283465,0.283465 0 0 0 0.2835,0.283" stroke-width="0.283465" gorn="0.3.5.1.42" id="path204"/>
                <line  x1="19.4953" y2="104.635" stroke="#ffffff" stroke-linecap="round" x2="19.4953" y1="105.202" stroke-width="0.283465" gorn="0.3.5.1.43" id="line206"/>
                <path fill="none"  stroke="#ffffff" d="m 19.4953,104.635 a 0.566929,0.566929 0 0 0 0.5669,-0.567" stroke-width="0.283465" gorn="0.3.5.1.44" id="path208"/>
                <line  x1="20.062201" y2="101.517" stroke="#ffffff" stroke-linecap="round" x2="20.062201" y1="104.068" stroke-width="0.283465" gorn="0.3.5.1.45" id="line210"/>
                <line  x1="20.9126" y2="101.233" stroke="#ffffff" stroke-linecap="round" x2="20.345699" y1="101.233" stroke-width="0.283465" gorn="0.3.5.1.46" id="line212"/>
                <path fill="none"  stroke="#ffffff" d="m 20.3457,101.233 a 0.283465,0.283465 0 0 0 -0.2835,0.284" stroke-width="0.283465" gorn="0.3.5.1.47" id="path214"/>
                <line  x1="10.1409" y2="105.485" stroke="#ffffff" stroke-linecap="round" x2="11.8418" y1="105.485" stroke-width="0.283465" gorn="0.3.5.1.48" id="line216"/>
                <path fill="none"  stroke="#ffffff" d="m 11.8418,105.485 a 0.283465,0.283465 0 0 0 0.2834,-0.283" stroke-width="0.283465" gorn="0.3.5.1.49" id="path218"/>
                <line  x1="12.1252" y2="104.635" stroke="#ffffff" stroke-linecap="round" x2="12.1252" y1="105.202" stroke-width="0.283465" gorn="0.3.5.1.50" id="line220"/>
                <path fill="none"  stroke="#ffffff" d="m 11.5582,104.068 a 0.566929,0.566929 0 0 0 0.567,0.567" stroke-width="0.283465" gorn="0.3.5.1.51" id="path222"/>
                <line  x1="11.5582" y2="101.517" stroke="#ffffff" stroke-linecap="round" x2="11.5582" y1="104.068" stroke-width="0.283465" gorn="0.3.5.1.52" id="line224"/>
                <path fill="none"  stroke="#ffffff" d="m 11.5582,101.517 a 0.283465,0.283465 0 0 0 -0.2834,-0.284" stroke-width="0.283465" gorn="0.3.5.1.53" id="path226"/>
                <path fill="none"  stroke="#ffffff" d="m 9.85745,105.202 a 0.283465,0.283465 0 0 0 0.28345,0.283" stroke-width="0.283465" gorn="0.3.5.1.54" id="path228"/>
                <line  x1="9.8574495" y2="104.635" stroke="#ffffff" stroke-linecap="round" x2="9.8574495" y1="105.202" stroke-width="0.283465" gorn="0.3.5.1.55" id="line230"/>
                <path fill="none"  stroke="#ffffff" d="m 9.85745,104.635 a 0.566929,0.566929 0 0 0 0.56695,-0.567" stroke-width="0.283465" gorn="0.3.5.1.56" id="path232"/>
                <line  x1="10.4244" y2="101.517" stroke="#ffffff" stroke-linecap="round" x2="10.4244" y1="104.068" stroke-width="0.283465" gorn="0.3.5.1.57" id="line234"/>
                <line  x1="11.2748" y2="101.233" stroke="#ffffff" stroke-linecap="round" x2="10.7078" y1="101.233" stroke-width="0.283465" gorn="0.3.5.1.58" id="line236"/>
                <path fill="none"  stroke="#ffffff" d="m 10.7078,101.233 a 0.283465,0.283465 0 0 0 -0.2834,0.284" stroke-width="0.283465" gorn="0.3.5.1.59" id="path238"/>
                <rect fill="#ffffff"  y="104.068" x="4.3299198" stroke="none" stroke-width="0" height="1.84252" gorn="0.3.5.1.60" width="1.84252" id="rect240"/>
                <rect fill="#ffffff"  y="104.068" x="25.448" stroke="none" stroke-width="0" height="1.84252" gorn="0.3.5.1.61" width="1.84252" id="rect242"/>
            </g>
        </g>
        <line fill="none"  x1="1.77874" y2="121.157" stroke="#ffffff" fill-opacity="1" x2="29.841801" y1="121.157" stroke-width="0.576" gorn="0.3.6" id="line248"/>
        <line fill="none"  x1="1.77874" y2="109.32" stroke="#ffffff" fill-opacity="1" x2="1.77874" y1="121.157" stroke-width="0.576" gorn="0.3.7" id="line250"/>
        <line fill="none"  x1="29.841801" y2="109.32" stroke="#ffffff" fill-opacity="1" x2="29.841801" y1="121.157" stroke-width="0.576" gorn="0.3.8" id="line252"/>
    </g>
    <g  gorn="0.4" id="copper1">
        <g  gorn="0.4.0" id="copper0">
            <circle fill="none"  cx="5.3291302" stroke="#f7bd13" cy="10.5813" connectorname="P0.7/SI" r="1.5944901" stroke-width="0.637795" gorn="0.4.0.0" id="connector14pad"/>
            <circle fill="none"  cx="39.685001" stroke="#f7bd13" cy="65.346703" connectorname="GND" r="0.972" stroke-width="0.504" gorn="0.4.0.1" id="connector11pad"/>
            <path fill="#f7bd13"  stroke="none" d="m 37.4494,64.3747 h 4.4712 v 1.944 h -4.4712 v -1.944 m 1.2636,0.972 a 0.972,0.972 0 1 0 1.944,0 0.972,0.972 0 1 0 -1.944,0 z" stroke-width="0" gorn="0.4.0.2" id="path257"/>
            <circle fill="none"  cx="34.3559" stroke="#f7bd13" cy="3.38134" connectorname="P0.5" r="1.5944901" stroke-width="0.637795" gorn="0.4.0.3" id="connector21pin"/>
            <circle fill="none"  cx="77.485001" stroke="#f7bd13" cy="103.827" connectorname="V5V" r="2.1259899" stroke-width="0.850392" gorn="0.4.0.4" id="connector12pad"/>
            <path fill="#f7bd13"  stroke="none" d="m 72.5954,101.701 h 9.77954 v 4.25197 H 72.5954 V 101.701 m 2.7634,2.126 a 2.12599,2.12599 0 1 0 4.25197,0 2.12599,2.12599 0 1 0 -4.25197,0 z" stroke-width="0" gorn="0.4.0.5" id="path261"/>
            <circle fill="none"  cx="39.685001" stroke="#f7bd13" cy="79.746498" connectorname="+3V3" r="0.972" stroke-width="0.504" gorn="0.4.0.6" id="connector24pad"/>
            <rect fill="none"  y="78.774498" x="38.713001" stroke="#f7bd13" stroke-width="0.504" height="1.944" gorn="0.4.0.7" width="1.944" id="connector24pin"/>
            <circle fill="none"  cx="34.3559" stroke="#f7bd13" cy="32.181301" connectorname="P2.11/DIS" r="1.5944901" stroke-width="0.637795" gorn="0.4.0.8" id="connector25pin"/>
            <circle fill="none"  cx="5.3291302" stroke="#f7bd13" cy="39.381302" connectorname="P0.15" r="1.5944901" stroke-width="0.637795" gorn="0.4.0.9" id="connector18pin"/>
            <circle fill="none"  cx="77.485001" stroke="#f7bd13" cy="75.026901" connectorname="VBAT" r="2.1259899" stroke-width="0.850392" gorn="0.4.0.10" id="connector6pad"/>
            <path fill="#f7bd13"  stroke="none" d="m 72.5954,72.9007 h 9.77954 v 4.25197 H 72.5954 V 72.9007 m 2.7634,2.1262 a 2.12599,2.12599 0 1 0 4.25197,0 2.12599,2.12599 0 1 0 -4.25197,0 z" stroke-width="0" gorn="0.4.0.11" id="path269"/>
            <circle fill="none"  cx="77.485001" stroke="#f7bd13" cy="31.827" connectorname="OUT1" r="2.1259899" stroke-width="0.850392" gorn="0.4.0.12" id="connector0pad"/>
            <path fill="#f7bd13"  stroke="none" d="m 72.5954,29.701 h 9.77954 v 4.25197 H 72.5954 V 29.701 m 2.7634,2.126 a 2.12599,2.12599 0 1 0 4.25197,0 2.12599,2.12599 0 1 0 -4.25197,0 z" stroke-width="0" gorn="0.4.0.13" id="path272"/>
            <circle fill="none"  cx="39.685001" stroke="#f7bd13" cy="72.546501" connectorname="DBG_TMS" r="0.972" stroke-width="0.504" gorn="0.4.0.14" id="connector30pad"/>
            <path fill="#f7bd13"  stroke="none" d="m 37.4494,71.5747 h 4.4712 v 1.944 h -4.4712 v -1.944 m 1.2636,0.9718 a 0.972,0.972 0 1 0 1.944,0 0.972,0.972 0 1 0 -1.944,0 z" stroke-width="0" gorn="0.4.0.15" id="connector30pin"/>
            <circle fill="none"  cx="34.3559" stroke="#f7bd13" cy="46.581299" connectorname="P2.9" r="1.5944901" stroke-width="0.637795" gorn="0.4.0.16" id="connector27pin"/>
            <circle fill="none"  cx="34.3559" stroke="#f7bd13" cy="17.7813" connectorname="+3V3" r="1.5944901" stroke-width="0.637795" gorn="0.4.0.17" id="connector23pin"/>
            <circle fill="none"  cx="5.3291302" stroke="#f7bd13" cy="53.7813" connectorname="P2.6" r="1.5944901" stroke-width="0.637795" gorn="0.4.0.18" id="connector20pin"/>
            <circle fill="none"  cx="5.3291302" stroke="#f7bd13" cy="24.9813" connectorname="P0.9/CSN" r="1.5944901" stroke-width="0.637795" gorn="0.4.0.19" id="connector16pin"/>
            <circle fill="none"  cx="77.485001" stroke="#f7bd13" cy="60.626999" connectorname="VS" r="2.1259899" stroke-width="0.850392" gorn="0.4.0.20" id="connector4pad"/>
            <path fill="#f7bd13"  stroke="none" d="m 72.5954,58.501 h 9.77954 v 4.25197 H 72.5954 V 58.501 m 2.7634,2.126 a 2.12599,2.12599 0 1 0 4.25197,0 2.12599,2.12599 0 1 0 -4.25197,0 z" stroke-width="0" gorn="0.4.0.21" id="path282"/>
            <circle fill="none"  cx="77.485001" stroke="#f7bd13" cy="89.426903" connectorname="GND" r="2.1259899" stroke-width="0.850392" gorn="0.4.0.22" id="connector8pad"/>
            <path fill="#f7bd13"  stroke="none" d="m 72.5954,87.3007 h 9.77954 v 4.25197 H 72.5954 V 87.3007 m 2.7634,2.1262 a 2.12599,2.12599 0 1 0 4.25197,0 2.12599,2.12599 0 1 0 -4.25197,0 z" stroke-width="0" gorn="0.4.0.23" id="path285"/>
            <circle fill="none"  cx="77.485001" stroke="#f7bd13" cy="17.427" connectorname="OUT2" r="2.1259899" stroke-width="0.850392" gorn="0.4.0.24" id="connector2pad"/>
            <path fill="#f7bd13"  stroke="none" d="m 72.5954,15.301 h 9.77954 v 4.25197 H 72.5954 V 15.301 m 2.7634,2.126 a 2.12599,2.12599 0 1 0 4.25197,0 2.12599,2.12599 0 1 0 -4.25197,0 z" stroke-width="0" gorn="0.4.0.25" id="path288"/>
            <circle fill="none"  cx="39.685001" stroke="#f7bd13" cy="76.1465" connectorname="DBG_TCK" r="0.972" stroke-width="0.504" gorn="0.4.0.26" id="connector31pad"/>
            <path fill="#f7bd13"  stroke="none" d="m 37.4494,75.1745 h 4.4712 v 1.944 h -4.4712 v -1.944 m 1.2636,0.972 a 0.972,0.972 0 1 0 1.944,0 0.972,0.972 0 1 0 -1.944,0 z" stroke-width="0" gorn="0.4.0.27" id="connector31pin"/>
            <circle fill="none"  cx="39.685001" stroke="#f7bd13" cy="68.946701" connectorname="DBG_RESET" r="0.972" stroke-width="0.504" gorn="0.4.0.28" id="connector29pad"/>
            <path fill="#f7bd13"  stroke="none" d="m 37.4494,67.9747 h 4.4712 v 1.944 h -4.4712 v -1.944 m 1.2636,0.972 a 0.972,0.972 0 1 0 1.944,0 0.972,0.972 0 1 0 -1.944,0 z" stroke-width="0" gorn="0.4.0.29" id="connector29pin"/>
            <circle fill="none"  cx="34.3559" stroke="#f7bd13" cy="39.381302" connectorname="P2.10/PWM" r="1.5944901" stroke-width="0.637795" gorn="0.4.0.30" id="connector26pin"/>
            <circle fill="none"  cx="34.3559" stroke="#f7bd13" cy="24.9813" connectorname="GND" r="1.5944901" stroke-width="0.637795" gorn="0.4.0.31" id="connector10pad"/>
            <circle fill="none"  cx="34.3559" stroke="#f7bd13" cy="10.5813" connectorname="P0.0" r="1.5944901" stroke-width="0.637795" gorn="0.4.0.32" id="connector22pin"/>
            <circle fill="none"  cx="34.3559" stroke="#f7bd13" cy="53.7813" connectorname="P2.7/P2.8" r="1.5944901" stroke-width="0.637795" gorn="0.4.0.33" id="connector28pad"/>
            <rect fill="none"  y="52.186798" x="32.761398" stroke="#f7bd13" stroke-width="0.637795" height="3.1889701" gorn="0.4.0.34" width="3.1889701" id="connector28pin"/>
            <g  transform="scale(1,-1)">
                <g >
                    <g >
                        <ellipse fill="none"  ry="1.5895581" cx="5.3291302" stroke="#f7bd13" cy="-46.575916" rx="1.5949389" connectorname="P2.0/DIR" stroke-width="0.636897" gorn="0.4.0.35.0.0.0" id="connector19pin"/>
                    </g>
                </g>
            </g>
            <circle fill="none"  cx="5.3291302" stroke="#f7bd13" cy="32.181301" connectorname="P0.14" r="1.5944901" stroke-width="0.637795" gorn="0.4.0.36" id="connector17pin"/>
            <circle fill="none"  cx="5.3291302" stroke="#f7bd13" cy="17.7813" connectorname="P0.8/SCK" r="1.5944901" stroke-width="0.637795" gorn="0.4.0.37" id="connector15pad"/>
            <circle fill="none"  cx="5.3291302" stroke="#f7bd13" cy="3.38134" connectorname="P0.6/SO" r="1.5944901" stroke-width="0.637795" gorn="0.4.0.38" id="connector13pad"/>
            <circle fill="none"  cx="77.485001" stroke="#f7bd13" cy="67.827003" connectorname="VS" r="2.1259899" stroke-width="0.850392" gorn="0.4.0.39" id="connector5pad"/>
            <path fill="#f7bd13"  stroke="none" d="m 72.5954,65.701 h 9.77954 v 4.25197 H 72.5954 V 65.701 m 2.7634,2.126 a 2.12599,2.12599 0 1 0 4.25197,0 2.12599,2.12599 0 1 0 -4.25197,0 z" stroke-width="0" gorn="0.4.0.40" id="path307"/>
            <circle fill="none"  cx="77.485001" stroke="#f7bd13" cy="82.226898" connectorname="VBAT" r="2.1259899" stroke-width="0.850392" gorn="0.4.0.41" id="connector7pad"/>
            <path fill="#f7bd13"  stroke="none" d="m 72.5954,80.1007 h 9.77954 v 4.25197 H 72.5954 V 80.1007 m 2.7634,2.1262 a 2.12599,2.12599 0 1 0 4.25197,0 2.12599,2.12599 0 1 0 -4.25197,0 z" stroke-width="0" gorn="0.4.0.42" id="path310"/>
            <circle fill="none"  cx="77.485001" stroke="#f7bd13" cy="96.6269" connectorname="GND" r="2.1259899" stroke-width="0.850392" gorn="0.4.0.43" id="connector9pad"/>
            <path fill="#f7bd13"  stroke="none" d="m 72.5954,94.5007 h 9.77954 v 4.25197 H 72.5954 V 94.5007 m 2.7634,2.1262 a 2.12599,2.12599 0 1 0 4.25197,0 2.12599,2.12599 0 1 0 -4.25197,0 z" stroke-width="0" gorn="0.4.0.44" id="path313"/>
            <circle fill="none"  cx="77.485001" stroke="#f7bd13" cy="10.227" connectorname="OUT2" r="2.1259899" stroke-width="0.850392" gorn="0.4.0.45" id="connector3pad"/>
            <path fill="#f7bd13"  stroke="none" d="m 72.5954,8.10101 h 9.77954 v 4.25197 H 72.5954 V 8.10101 m 2.7634,2.12599 a 2.12599,2.12599 0 1 0 4.25197,0 2.12599,2.12599 0 1 0 -4.25197,0 z" stroke-width="0" gorn="0.4.0.46" id="path316"/>
            <circle fill="none"  cx="77.485001" stroke="#f7bd13" cy="24.627001" connectorname="OUT1" r="2.1259899" stroke-width="0.850392" gorn="0.4.0.47" id="connector1pad"/>
            <path fill="#f7bd13"  stroke="none" d="m 72.5954,22.501 h 9.77954 v 4.25197 H 72.5954 V 22.501 m 2.7634,2.126 a 2.12599,2.12599 0 1 0 4.25197,0 2.12599,2.12599 0 1 0 -4.25197,0 z" stroke-width="0" gorn="0.4.0.48" id="path319"/>
        </g>
    </g>
</svg>
