<?xml version='1.0' encoding='UTF-8' standalone='no'?>
<!-- Created with Fritzing (http://www.fritzing.org/) -->
<svg xmlns="http://www.w3.org/2000/svg" width="2.69685in" height="2.10358in"  version="1.2" gorn="0" y="0in" viewBox="0 0 194.173 151.458" id="svg392" x="0in">
    <desc  id="desc2">
        <referenceFile >M1_Distribution_Shield_for_Arduino_pcbupdated.svg</referenceFile>
    </desc>
    <defs  id="defs396"/>
    <desc  id="desc5">Fritzing footprint generated by brd2svg</desc>
    <g  gorn="0.3" id="silkscreen">
        <path  stroke="white" gorn="0.3.0" d="M0.288,148.089L0.288,3.11187A2.54665,2.54665,0,0,1,3.11424,0.288L182.58,0.288L186.82,4.5238L186.82,36.829L193.885,43.8887L193.885,136.794L186.82,143.853L186.82,148.089A2.54665,2.54665,0,0,1,183.994,150.913L3.11424,150.913A2.54665,2.54665,0,0,1,0.288,148.089" id="path4" fill="none" stroke-width="0.576"/>
        <line y1="26.7301"  stroke="white" y2="13.7216" x2="169.886" gorn="0.3.1" id="line6" stroke-linecap="round" x1="169.886" stroke-width="0.72"/>
        <line y1="26.7301"  stroke="white" y2="26.7301" x2="169.886" gorn="0.3.2" id="line8" stroke-linecap="round" x1="131.539" stroke-width="0.72"/>
        <line y1="26.7301"  stroke="white" y2="13.7216" x2="131.539" gorn="0.3.3" id="line10" stroke-linecap="round" x1="131.539" stroke-width="0.72"/>
        <line y1="151.206"  stroke="white" y2="140.126" x2="74.6309" gorn="0.3.4" id="line12" stroke-linecap="round" x1="74.6309" stroke-width="0.72"/>
        <line y1="140.126"  stroke="white" y2="140.126" x2="74.6309" gorn="0.3.5" id="line14" stroke-linecap="round" x1="-0.00346356" stroke-width="0.72"/>
        <line y1="13.7216"  stroke="white" y2="13.7216" x2="169.886" gorn="0.3.6" id="line16" stroke-linecap="round" x1="131.539" stroke-width="0.72"/>
        <g  gorn="0.3.7" id="g24">
            <title  id="title18">element:DUMMY6</title>
            <g  gorn="0.3.7.1" id="g22">
                <title  id="title20">package:EF189X374TOP1</title>
            </g>
        </g>
        <g  gorn="0.3.8" id="g32">
            <title  id="title26">element:G1</title>
            <g  gorn="0.3.8.1" id="g30">
                <title  id="title28">package:INF-PG-TO252-3-11_N_1PRIMARY</title>
            </g>
        </g>
        <g  gorn="0.3.9" id="g50">
            <title  id="title34">element:S1</title>
            <g  gorn="0.3.9.1" id="g48">
                <title  id="title36">package:MODULAR_S2G1_P_1PRIMARY</title>
                <line y1="138.073"  stroke="white" y2="28.0884" x2="11.3869" gorn="0.3.9.1.1" id="line38" stroke-linecap="round" x1="11.3869" stroke-width="0.72"/>
                <line y1="28.0884"  stroke="white" y2="28.0884" x2="65.3727" gorn="0.3.9.1.2" id="line40" stroke-linecap="round" x1="11.3869" stroke-width="0.72"/>
                <line y1="138.073"  stroke="white" y2="28.0884" x2="65.3727" gorn="0.3.9.1.3" id="line42" stroke-linecap="round" x1="65.3727" stroke-width="0.72"/>
                <line y1="138.073"  stroke="white" y2="138.073" x2="65.3727" gorn="0.3.9.1.4" id="line44" stroke-linecap="round" x1="11.3869" stroke-width="0.72"/>
                <circle r="0.354331"  cy="80.4866" stroke="white" gorn="0.3.9.1.5" cx="49.1443" id="circle46" fill="none" stroke-width="0.708661"/>
            </g>
        </g>
        <g  gorn="0.3.10" id="g66">
            <title  id="title52">element:S2</title>
            <g  gorn="0.3.10.1" id="g64">
                <title  id="title54">package:MODULAR_S2G1_P_2PRIMARY</title>
                <line y1="138.073"  stroke="white" y2="28.0884" x2="68.9869" gorn="0.3.10.1.1" id="line56" stroke-linecap="round" x1="68.9869" stroke-width="0.72"/>
                <line y1="28.0884"  stroke="white" y2="28.0884" x2="122.972" gorn="0.3.10.1.2" id="line58" stroke-linecap="round" x1="68.9869" stroke-width="0.72"/>
                <line y1="138.073"  stroke="white" y2="138.073" x2="122.972" gorn="0.3.10.1.3" id="line60" stroke-linecap="round" x1="68.9869" stroke-width="0.72"/>
                <circle r="0.354331"  cy="80.4866" stroke="white" gorn="0.3.10.1.4" cx="106.744" id="circle62" fill="none" stroke-width="0.708661"/>
            </g>
        </g>
        <g  gorn="0.3.11" id="g82">
            <title  id="title68">element:S3</title>
            <g  gorn="0.3.11.1" id="g80">
                <title  id="title70">package:MODULAR_S2G1_P_3PRIMARY</title>
                <line y1="28.0884"  stroke="white" y2="28.0884" x2="180.572" gorn="0.3.11.1.1" id="line72" stroke-linecap="round" x1="122.972" stroke-width="0.72"/>
                <line y1="138.073"  stroke="white" y2="28.0884" x2="180.572" gorn="0.3.11.1.2" id="line74" stroke-linecap="round" x1="180.572" stroke-width="0.72"/>
                <line y1="138.073"  stroke="white" y2="138.073" x2="180.572" gorn="0.3.11.1.3" id="line76" stroke-linecap="round" x1="122.972" stroke-width="0.72"/>
                <circle r="0.354331"  cy="80.4866" stroke="white" gorn="0.3.11.1.4" cx="164.344" id="circle78" fill="none" stroke-width="0.708661"/>
            </g>
        </g>
        <g  gorn="0.3.12" id="g90">
            <title  id="title84">element:X3</title>
            <g  gorn="0.3.12.1" id="g88">
                <title  id="title86">package:CON-M-THT-TSW-108-07-L-S_1PRIMARY</title>
            </g>
        </g>
        <g  gorn="0.3.13" id="g98">
            <title  id="title92">element:X4</title>
            <g  gorn="0.3.13.1" id="g96">
                <title  id="title94">package:CON-M-THT-TSW-110-07-L-S_1PRIMARY</title>
            </g>
        </g>
        <g  gorn="0.3.14" id="g106">
            <title  id="title100">element:X5</title>
            <g  gorn="0.3.14.1" id="g104">
                <title  id="title102">package:CON-M-THT-TSW-108-07-L-S_1PRIMARY</title>
            </g>
        </g>
        <g  gorn="0.3.15" id="g114">
            <title  id="title108">element:X6</title>
            <g  gorn="0.3.15.1" id="g112">
                <title  id="title110">package:CON-M-THT-TSW-106-07-L-S_1PRIMARY</title>
            </g>
        </g>
        <line y1="151.17" fill-opacity="1"  stroke="white" y2="151.17" x2="25.7996" gorn="0.3.16" id="line116" fill="none" x1="0.854755" stroke-width="0.576"/>
        <line y1="151.17" fill-opacity="1"  stroke="white" y2="151.2" x2="0.854755" gorn="0.3.17" id="line118" fill="none" x1="0.854755" stroke-width="0.576"/>
        <line y1="151.17" fill-opacity="1"  stroke="white" y2="151.2" x2="25.7996" gorn="0.3.18" id="line120" fill="none" x1="25.7996" stroke-width="0.576"/>
    </g>
    <g  gorn="0.4" id="copper1">
        <g  gorn="0.4.0" id="copper0">
            <circle r="1.91339"  cy="91.329102" stroke="#f7bd13" connectorname="22" gorn="0.4.0.0" cx="167.987" id="connector50pin" fill="none" stroke-width="0.992124"/>
            <circle r="1.98426"  cy="7.1942201" stroke="#f7bd13" connectorname="7" gorn="0.4.0.1" cx="74.879997" id="connector56pin" fill="none" stroke-width="0.850392"/>
            <circle r="1.84252"  cy="21.8619" stroke="#f7bd13" connectorname="AREF" gorn="0.4.0.2" cx="143.664" id="connector72pin" fill="none" stroke-width="0.850392"/>
            <circle r="1.98426"  cy="144" stroke="#f7bd13" connectorname="XMCAC_P2_11" gorn="0.4.0.3" cx="172.8" id="connector90pin" fill="none" stroke-width="0.850392"/>
            <circle r="1.91339"  cy="120.129" stroke="#f7bd13" connectorname="30" gorn="0.4.0.4" cx="167.987" id="connector46pin" fill="none" stroke-width="0.992124"/>
            <circle r="1.98426"  cy="144" stroke="#f7bd13" connectorname="7" gorn="0.4.0.5" cx="122.4" id="connector84pin" fill="none" stroke-width="0.850392"/>
            <circle r="1.98426"  cy="7.19561" stroke="#f7bd13" connectorname="M1P2_M1P3_RST_GPIO2_BS" gorn="0.4.0.6" cx="151.2" id="connector66pin" fill="none" stroke-width="0.850392"/>
            <circle r="1.91339"  cy="76.9291" stroke="#f7bd13" connectorname="2" gorn="0.4.0.7" cx="23.9869" id="connector1pad" fill="none" stroke-width="0.992124"/>
            <rect width="3.8267701" height="3.8267701"  stroke="#f7bd13" gorn="0.4.0.8" y="75.016098" id="rect137" fill="none" stroke-width="0.992124" x="22.0735"/>
            <circle r="1.91339"  cy="84.129097" stroke="#f7bd13" connectorname="4" gorn="0.4.0.9" cx="23.9869" id="connector2pad" fill="none" stroke-width="0.992124"/>
            <circle r="1.91339"  cy="105.729" stroke="#f7bd13" connectorname="26" gorn="0.4.0.10" cx="167.987" id="connector48pin" fill="none" stroke-width="0.992124"/>
            <circle r="1.91339"  cy="91.329102" stroke="#f7bd13" connectorname="6" gorn="0.4.0.11" cx="23.9869" id="connector3pad" fill="none" stroke-width="0.992124"/>
            <circle r="1.91339"  cy="134.52901" stroke="#f7bd13" connectorname="34" gorn="0.4.0.12" cx="167.987" id="connector44pin" fill="none" stroke-width="0.992124"/>
            <circle r="1.98426"  cy="144" stroke="#f7bd13" connectorname="XMCAC_P2_4" gorn="0.4.0.13" cx="93.599998" id="connector80pin" fill="none" stroke-width="0.850392"/>
            <circle r="1.91339"  cy="98.529099" stroke="#f7bd13" connectorname="8" gorn="0.4.0.14" cx="23.9869" id="connector4pad" fill="none" stroke-width="0.992124"/>
            <circle r="1.98426"  cy="7.1942201" stroke="#f7bd13" connectorname="M1P1_SPI_CS_BS" gorn="0.4.0.15" cx="103.68" id="connector60pin" fill="none" stroke-width="0.850392"/>
            <circle r="1.98426"  cy="7.19561" stroke="#f7bd13" connectorname="UART.TX" gorn="0.4.0.16" cx="180" id="connector70pad" fill="none" stroke-width="0.850392"/>
            <rect width="3.9684999" height="3.9684999"  stroke="#f7bd13" gorn="0.4.0.17" y="5.21135" id="connector70pin" fill="none" stroke-width="0.850392" x="178.01601"/>
            <circle r="1.91339"  cy="105.729" stroke="#f7bd13" connectorname="10" gorn="0.4.0.18" cx="23.9869" id="connector5pad" fill="none" stroke-width="0.992124"/>
            <circle r="1.98426"  cy="144" stroke="#f7bd13" connectorname="1" gorn="0.4.0.19" cx="144" id="connector86pad" fill="none" stroke-width="0.850392"/>
            <rect width="3.9684999" height="3.9684999"  stroke="#f7bd13" gorn="0.4.0.20" y="142.01601" id="connector86pin" fill="none" stroke-width="0.850392" x="142.01601"/>
            <circle r="1.84252"  cy="146.071" stroke="#f7bd13" connectorname="IOREF_LS" gorn="0.4.0.21" cx="13.3272" id="connector76pin" fill="none" stroke-width="0.850392"/>
            <circle r="1.91339"  cy="112.929" stroke="#f7bd13" connectorname="12" gorn="0.4.0.22" cx="23.9869" id="connector6pad" fill="none" stroke-width="0.992124"/>
            <circle r="1.91339"  cy="120.129" stroke="#f7bd13" connectorname="14" gorn="0.4.0.23" cx="23.9869" id="connector7pad" fill="none" stroke-width="0.992124"/>
            <circle r="1.91339"  cy="127.329" stroke="#f7bd13" connectorname="16" gorn="0.4.0.24" cx="23.9869" id="connector8pad" fill="none" stroke-width="0.992124"/>
            <circle r="1.91339"  cy="84.129097" stroke="#f7bd13" connectorname="20" gorn="0.4.0.25" cx="167.987" id="connector51pin" fill="none" stroke-width="0.992124"/>
            <circle r="1.91339"  cy="98.529099" stroke="#f7bd13" connectorname="24" gorn="0.4.0.26" cx="167.987" id="connector49pin" fill="none" stroke-width="0.992124"/>
            <circle r="1.91339"  cy="134.52901" stroke="#f7bd13" connectorname="18" gorn="0.4.0.27" cx="23.9869" id="connector9pad" fill="none" stroke-width="0.992124"/>
            <circle r="1.91339"  cy="112.929" stroke="#f7bd13" connectorname="28" gorn="0.4.0.28" cx="167.987" id="connector47pin" fill="none" stroke-width="0.992124"/>
            <circle r="1.91339"  cy="127.329" stroke="#f7bd13" connectorname="32" gorn="0.4.0.29" cx="167.987" id="connector45pin" fill="none" stroke-width="0.992124"/>
            <circle r="1.91339"  cy="84.129097" stroke="#f7bd13" connectorname="20" gorn="0.4.0.30" cx="52.7868" id="connector17pin" fill="none" stroke-width="0.992124"/>
            <circle r="1.98426"  cy="144" stroke="#f7bd13" connectorname="1" gorn="0.4.0.31" cx="79.199997" id="connector78pad" fill="none" stroke-width="0.850392"/>
            <rect width="3.9684999" height="3.9684999"  stroke="#f7bd13" gorn="0.4.0.32" y="142.01601" id="connector78pin" fill="none" stroke-width="0.850392" x="77.215698"/>
            <circle r="1.91339"  cy="91.329102" stroke="#f7bd13" connectorname="22" gorn="0.4.0.33" cx="52.7868" id="connector16pin" fill="none" stroke-width="0.992124"/>
            <circle r="1.98426"  cy="144" stroke="#f7bd13" connectorname="5" gorn="0.4.0.34" cx="108" id="connector82pin" fill="none" stroke-width="0.850392"/>
            <circle r="1.98426"  cy="7.1942201" stroke="#f7bd13" connectorname="M1P2_M1P3_SPI_CS_BS" gorn="0.4.0.35" cx="118.08" id="connector62pad" fill="none" stroke-width="0.850392"/>
            <rect width="3.9684999" height="3.9684999"  stroke="#f7bd13" gorn="0.4.0.36" y="5.20996" id="connector62pin" fill="none" stroke-width="0.850392" x="116.096"/>
            <circle r="1.91339"  cy="98.529099" stroke="#f7bd13" connectorname="24" gorn="0.4.0.37" cx="52.7868" id="connector15pad" fill="none" stroke-width="0.992124"/>
            <circle r="1.98426"  cy="7.1942201" stroke="#f7bd13" connectorname="SPI_MISO_BS" gorn="0.4.0.38" cx="89.279999" id="connector58pin" fill="none" stroke-width="0.850392"/>
            <circle r="1.98426"  cy="7.1942201" stroke="#f7bd13" connectorname="I2C.SDA" gorn="0.4.0.39" cx="60.48" id="connector54pin" fill="none" stroke-width="0.850392"/>
            <circle r="1.91339"  cy="105.729" stroke="#f7bd13" connectorname="26" gorn="0.4.0.40" cx="52.7868" id="connector14pad" fill="none" stroke-width="0.992124"/>
            <circle r="1.98426"  cy="7.19561" stroke="#f7bd13" connectorname="M1P1_IN_GPIO3_BS" gorn="0.4.0.41" cx="165.60001" id="connector68pin" fill="none" stroke-width="0.850392"/>
            <circle r="1.98426"  cy="7.19561" stroke="#f7bd13" connectorname="M1P2_M1P3_PWM_BS" gorn="0.4.0.42" cx="136.8" id="connector64pin" fill="none" stroke-width="0.850392"/>
            <circle r="1.91339"  cy="112.929" stroke="#f7bd13" connectorname="28" gorn="0.4.0.43" cx="52.7868" id="connector13pad" fill="none" stroke-width="0.992124"/>
            <circle r="1.98426"  cy="144" stroke="#f7bd13" connectorname="3" gorn="0.4.0.44" cx="158.39999" id="connector88pin" fill="none" stroke-width="0.850392"/>
            <circle r="2.0409501"  cy="48.717701" stroke="#f7bd13" connectorname="VREF_B" gorn="0.4.0.45" cx="6.4871101" id="connector74pin" fill="none" stroke-width="0.850392"/>
            <circle r="1.91339"  cy="120.129" stroke="#f7bd13" connectorname="30" gorn="0.4.0.46" cx="52.7868" id="connector12pad" fill="none" stroke-width="0.992124"/>
            <circle r="2.0409501"  cy="6.6447201" stroke="#f7bd13" connectorname="VREF_A" gorn="0.4.0.47" cx="4.9602799" id="connector52pin" fill="none" stroke-width="0.850392"/>
            <circle r="1.91339"  cy="127.329" stroke="#f7bd13" connectorname="32" gorn="0.4.0.48" cx="52.7868" id="connector11pad" fill="none" stroke-width="0.992124"/>
            <circle r="1.91339"  cy="134.52901" stroke="#f7bd13" connectorname="34" gorn="0.4.0.49" cx="52.7868" id="connector10pad" fill="none" stroke-width="0.992124"/>
            <circle r="1.91339"  cy="76.9291" stroke="#f7bd13" connectorname="2" gorn="0.4.0.50" cx="81.5868" id="connector18pad" fill="none" stroke-width="0.992124"/>
            <rect width="3.8267701" height="3.8267701"  stroke="#f7bd13" gorn="0.4.0.51" y="75.016098" id="connector18pin" fill="none" stroke-width="0.992124" x="79.673798"/>
            <circle r="1.91339"  cy="84.129097" stroke="#f7bd13" connectorname="4" gorn="0.4.0.52" cx="81.5868" id="connector19pin" fill="none" stroke-width="0.992124"/>
            <circle r="1.91339"  cy="91.329102" stroke="#f7bd13" connectorname="6" gorn="0.4.0.53" cx="81.5868" id="connector20pin" fill="none" stroke-width="0.992124"/>
            <circle r="1.91339"  cy="98.529099" stroke="#f7bd13" connectorname="8" gorn="0.4.0.54" cx="81.5868" id="connector21pin" fill="none" stroke-width="0.992124"/>
            <circle r="1.91339"  cy="105.729" stroke="#f7bd13" connectorname="10" gorn="0.4.0.55" cx="81.5868" id="connector22pin" fill="none" stroke-width="0.992124"/>
            <circle r="1.91339"  cy="112.929" stroke="#f7bd13" connectorname="12" gorn="0.4.0.56" cx="81.5868" id="connector23pin" fill="none" stroke-width="0.992124"/>
            <circle r="1.91339"  cy="120.129" stroke="#f7bd13" connectorname="14" gorn="0.4.0.57" cx="81.5868" id="connector24pin" fill="none" stroke-width="0.992124"/>
            <circle r="1.84252"  cy="21.8619" stroke="#f7bd13" connectorname="1" gorn="0.4.0.58" cx="150.864" id="connector73pad" fill="none" stroke-width="0.850392"/>
            <rect width="3.68504" height="3.68504"  stroke="#f7bd13" gorn="0.4.0.59" y="20.0194" id="connector73pin" fill="none" stroke-width="0.850392" x="149.021"/>
            <circle r="1.84252"  cy="21.8619" stroke="#f7bd13" connectorname="3" gorn="0.4.0.60" cx="136.464" id="connector71pin" fill="none" stroke-width="0.850392"/>
            <circle r="1.91339"  cy="127.329" stroke="#f7bd13" connectorname="16" gorn="0.4.0.61" cx="81.5868" id="connector25pin" fill="none" stroke-width="0.992124"/>
            <circle r="1.98426"  cy="144" stroke="#f7bd13" connectorname="IOREF" gorn="0.4.0.62" cx="86.400002" id="connector79pin" fill="none" stroke-width="0.850392"/>
            <circle r="1.98426"  cy="144" stroke="#f7bd13" connectorname="PWR_3V3_XMCAC" gorn="0.4.0.63" cx="100.8" id="connector81pin" fill="none" stroke-width="0.850392"/>
            <circle r="1.91339"  cy="134.52901" stroke="#f7bd13" connectorname="18" gorn="0.4.0.64" cx="81.5868" id="connector26pin" fill="none" stroke-width="0.992124"/>
            <circle r="1.98426"  cy="144" stroke="#f7bd13" connectorname="6" gorn="0.4.0.65" cx="115.2" id="connector83pin" fill="none" stroke-width="0.850392"/>
            <circle r="1.98426"  cy="144" stroke="#f7bd13" connectorname="PWR_VIN_VRIN" gorn="0.4.0.66" cx="129.60001" id="connector85pin" fill="none" stroke-width="0.850392"/>
            <circle r="1.91339"  cy="84.129097" stroke="#f7bd13" connectorname="20" gorn="0.4.0.67" cx="110.387" id="connector34pin" fill="none" stroke-width="0.992124"/>
            <circle r="1.98426"  cy="7.1942201" stroke="#f7bd13" connectorname="M1P1_RST_GPIO2_BS" gorn="0.4.0.68" cx="110.88" id="connector61pin" fill="none" stroke-width="0.850392"/>
            <circle r="1.98426"  cy="7.1942201" stroke="#f7bd13" connectorname="SPI_MOSI_BS" gorn="0.4.0.69" cx="96.480003" id="connector59pin" fill="none" stroke-width="0.850392"/>
            <circle r="1.91339"  cy="91.329102" stroke="#f7bd13" connectorname="22" gorn="0.4.0.70" cx="110.387" id="connector33pin" fill="none" stroke-width="0.992124"/>
            <circle r="1.98426"  cy="7.1942201" stroke="#f7bd13" connectorname="SPI_SCK_BS" gorn="0.4.0.71" cx="82.080002" id="connector57pin" fill="none" stroke-width="0.850392"/>
            <circle r="1.98426"  cy="7.1942201" stroke="#f7bd13" connectorname="AREF" gorn="0.4.0.72" cx="67.68" id="connector55pin" fill="none" stroke-width="0.850392"/>
            <circle r="1.91339"  cy="98.529099" stroke="#f7bd13" connectorname="24" gorn="0.4.0.73" cx="110.387" id="connector32pin" fill="none" stroke-width="0.992124"/>
            <circle r="1.98426"  cy="7.1942201" stroke="#f7bd13" connectorname="I2C.SCL" gorn="0.4.0.74" cx="53.279999" id="connector53pin" fill="none" stroke-width="0.850392"/>
            <circle r="1.98426"  cy="7.19561" stroke="#f7bd13" connectorname="UART.RX" gorn="0.4.0.75" cx="172.8" id="connector69pin" fill="none" stroke-width="0.850392"/>
            <circle r="1.91339"  cy="105.729" stroke="#f7bd13" connectorname="26" gorn="0.4.0.76" cx="110.387" id="connector31pin" fill="none" stroke-width="0.992124"/>
            <circle r="1.98426"  cy="7.19561" stroke="#f7bd13" connectorname="M1P2_M1P3_IN_GPIO3_BS" gorn="0.4.0.77" cx="158.39999" id="connector67pin" fill="none" stroke-width="0.850392"/>
            <circle r="1.98426"  cy="7.19561" stroke="#f7bd13" connectorname="M1P1_PWM_BS" gorn="0.4.0.78" cx="144" id="connector65pin" fill="none" stroke-width="0.850392"/>
            <circle r="1.91339"  cy="112.929" stroke="#f7bd13" connectorname="28" gorn="0.4.0.79" cx="110.387" id="connector30pin" fill="none" stroke-width="0.992124"/>
            <circle r="1.98426"  cy="7.19561" stroke="#f7bd13" connectorname="M1P2_M1P3_GPIO1_BS" gorn="0.4.0.80" cx="129.60001" id="connector63pin" fill="none" stroke-width="0.850392"/>
            <circle r="1.98426"  cy="144" stroke="#f7bd13" connectorname="2" gorn="0.4.0.81" cx="151.2" id="connector87pin" fill="none" stroke-width="0.850392"/>
            <circle r="1.91339"  cy="120.129" stroke="#f7bd13" connectorname="30" gorn="0.4.0.82" cx="110.387" id="connector29pin" fill="none" stroke-width="0.992124"/>
            <circle r="1.98426"  cy="144" stroke="#f7bd13" connectorname="ANALOG.AN1" gorn="0.4.0.83" cx="165.60001" id="connector89pin" fill="none" stroke-width="0.850392"/>
            <circle r="1.98426"  cy="144" stroke="#f7bd13" connectorname="XMCAC_P2_2" gorn="0.4.0.84" cx="180" id="connector91pin" fill="none" stroke-width="0.850392"/>
            <circle r="1.91339"  cy="127.329" stroke="#f7bd13" connectorname="32" gorn="0.4.0.85" cx="110.387" id="connector28pin" fill="none" stroke-width="0.992124"/>
            <circle r="1.84252"  cy="146.071" stroke="#f7bd13" connectorname="1" gorn="0.4.0.86" cx="20.527201" id="connector77pad" fill="none" stroke-width="0.850392"/>
            <rect width="3.68504" height="3.68504"  stroke="#f7bd13" gorn="0.4.0.87" y="144.229" id="connector77pin" fill="none" stroke-width="0.850392" x="18.684601"/>
            <circle r="1.84252"  cy="146.071" stroke="#f7bd13" connectorname="3" gorn="0.4.0.88" cx="6.1271901" id="connector75pin" fill="none" stroke-width="0.850392"/>
            <circle r="1.91339"  cy="134.52901" stroke="#f7bd13" connectorname="34" gorn="0.4.0.89" cx="110.387" id="connector27pin" fill="none" stroke-width="0.992124"/>
            <circle r="1.91339"  cy="76.9291" stroke="#f7bd13" connectorname="2" gorn="0.4.0.90" cx="139.187" id="connector35pad" fill="none" stroke-width="0.992124"/>
            <rect width="3.8267701" height="3.8267701"  stroke="#f7bd13" gorn="0.4.0.91" y="75.016098" id="connector35pin" fill="none" stroke-width="0.992124" x="137.27299"/>
            <circle r="1.91339"  cy="84.129097" stroke="#f7bd13" connectorname="4" gorn="0.4.0.92" cx="139.187" id="connector36pin" fill="none" stroke-width="0.992124"/>
            <circle r="1.91339"  cy="91.329102" stroke="#f7bd13" connectorname="6" gorn="0.4.0.93" cx="139.187" id="connector37pin" fill="none" stroke-width="0.992124"/>
            <circle r="1.91339"  cy="98.529099" stroke="#f7bd13" connectorname="8" gorn="0.4.0.94" cx="139.187" id="connector38pin" fill="none" stroke-width="0.992124"/>
            <circle r="1.91339"  cy="105.729" stroke="#f7bd13" connectorname="10" gorn="0.4.0.95" cx="139.187" id="connector39pin" fill="none" stroke-width="0.992124"/>
            <circle r="1.91339"  cy="112.929" stroke="#f7bd13" connectorname="12" gorn="0.4.0.96" cx="139.187" id="connector40pin" fill="none" stroke-width="0.992124"/>
            <circle r="1.91339"  cy="120.129" stroke="#f7bd13" connectorname="14" gorn="0.4.0.97" cx="139.187" id="connector41pin" fill="none" stroke-width="0.992124"/>
            <circle r="1.91339"  cy="127.329" stroke="#f7bd13" connectorname="16" gorn="0.4.0.98" cx="139.187" id="connector42pin" fill="none" stroke-width="0.992124"/>
            <circle r="2.0409501"  cy="62.524799" stroke="#f7bd13" connectorname="1" gorn="0.4.0.99" cx="187.548" id="connector0pad" fill="none" stroke-width="0.850392"/>
            <circle r="1.91339"  cy="134.52901" stroke="#f7bd13" connectorname="18" gorn="0.4.0.100" cx="139.187" id="connector43pin" fill="none" stroke-width="0.992124"/>
        </g>
    </g>
    <path fill-opacity="1" stroke-opacity="1"  stroke="none" gorn="0.5" d="m 12.988531,81.720105 v 4.819342 h 10.998065 v -0.0015 a 2.4094527,2.4094527 0 0 1 -2.409673,-2.409671 2.4094527,2.4094527 0 0 1 2.409673,-2.408209 z" id="rect1973-2" fill="#f7bd09" stroke-width="0.715756"/>
    <path  stroke="none" gorn="0.6" d="m 12.988835,88.919449 v 4.819342 H 23.9869 v -0.0015 A 2.4094527,2.4094527 0 0 1 21.577228,91.32762 2.4094527,2.4094527 0 0 1 23.9869,88.919411 Z" id="rect1973-2-6" fill="#f7bd09" stroke-width="0.715756"/>
    <path  stroke="none" gorn="0.7" d="m 12.988835,96.119422 v 4.819358 H 23.9869 v -10e-4 A 2.4094527,2.4094527 0 0 1 21.577228,98.528095 2.4094527,2.4094527 0 0 1 23.9869,96.119884 Z" id="rect1973-2-6-1" fill="#f7bd09" stroke-width="0.715756"/>
    <path fill-opacity="1"  gorn="0.8" d="m 12.989055,74.519427 v 4.819346 h 8.588393 v -4.819346 z" id="rect1973" fill="#f7bd09" stroke-width="0.632492"/>
    <path  stroke="none" gorn="0.9" d="m 12.988836,103.31934 v 4.81935 H 23.9869 v -10e-4 a 2.4094527,2.4094527 0 0 1 -2.409672,-2.41017 2.4094527,2.4094527 0 0 1 2.409672,-2.40821 z" id="rect1973-2-1" fill="#f7bd09" stroke-width="0.715756"/>
    <path  stroke="none" gorn="0.10" d="m 12.98914,110.51987 v 4.81934 h 10.998065 v -0.002 a 2.4094527,2.4094527 0 0 1 -2.409672,-2.40967 2.4094527,2.4094527 0 0 1 2.409672,-2.40821 z" id="rect1973-2-6-3" fill="#f7bd09" stroke-width="0.715756"/>
    <path  gorn="0.11" d="m 12.98914,117.71934 v 4.81934 h 10.998065 v -0.001 a 2.4094527,2.4094527 0 0 1 -2.409672,-2.40967 2.4094527,2.4094527 0 0 1 2.409672,-2.40821 z" id="rect1973-2-6-1-3" fill="#f7bd09" stroke-width="0.715756"/>
    <path  stroke="none" gorn="0.12" d="m 12.98914,124.91989 v 4.81934 h 10.998065 v -0.002 a 2.4094527,2.4094527 0 0 1 -2.409672,-2.40967 2.4094527,2.4094527 0 0 1 2.409672,-2.40821 z" id="rect1973-2-6-3-3" fill="#f7bd09" stroke-width="0.715756"/>
    <path  stroke="none" gorn="0.13" d="m 12.98914,132.11936 v 4.81934 h 10.998065 v -0.001 a 2.4094527,2.4094527 0 0 1 -2.409672,-2.40967 2.4094527,2.4094527 0 0 1 2.409672,-2.40821 z" id="rect1973-2-6-1-3-0" fill="#f7bd09" stroke-width="0.715756"/>
    <path  stroke="none" gorn="0.14" d="m 63.784865,88.919472 v 4.819342 H 52.7868 v -0.0015 A 2.4094527,2.4094527 0 0 0 55.196472,91.327643 2.4094527,2.4094527 0 0 0 52.7868,88.919434 Z" id="rect1973-2-6-5" fill="#f7bd09" stroke-width="0.715756"/>
    <path  stroke="none" gorn="0.15" d="m 63.784865,96.119445 v 4.819345 H 52.7868 v -10e-4 A 2.4094527,2.4094527 0 0 0 55.196472,98.528118 2.4094527,2.4094527 0 0 0 52.7868,96.119907 Z" id="rect1973-2-6-1-4" fill="#f7bd09" stroke-width="0.715756"/>
    <path  stroke="none" gorn="0.16" d="m 63.785169,103.31948 v 4.81935 H 52.787105 v -0.001 a 2.4094527,2.4094527 0 0 0 2.409672,-2.41017 2.4094527,2.4094527 0 0 0 -2.409672,-2.40821 z" id="rect1973-2-1-5" fill="#f7bd09" stroke-width="0.715756"/>
    <path  stroke="none" gorn="0.17" d="m 63.784865,110.52001 v 4.81934 H 52.7868 v -0.002 a 2.4094527,2.4094527 0 0 0 2.409672,-2.40967 2.4094527,2.4094527 0 0 0 -2.409672,-2.40821 z" id="rect1973-2-6-3-6" fill="#f7bd09" stroke-width="0.715756"/>
    <path  stroke="none" gorn="0.18" d="m 63.784865,117.71948 v 4.81934 H 52.7868 v -0.001 a 2.4094527,2.4094527 0 0 0 2.409672,-2.40967 2.4094527,2.4094527 0 0 0 -2.409672,-2.40821 z" id="rect1973-2-6-1-3-2" fill="#f7bd09" stroke-width="0.715756"/>
    <path  stroke="none" gorn="0.19" d="m 63.784865,124.92003 v 4.81934 H 52.7868 v -0.002 a 2.4094527,2.4094527 0 0 0 2.409672,-2.40967 2.4094527,2.4094527 0 0 0 -2.409672,-2.40821 z" id="rect1973-2-6-3-3-8" fill="#f7bd09" stroke-width="0.715756"/>
    <path  stroke="none" gorn="0.20" d="m 63.784865,132.1195 v 4.81934 H 52.7868 v -0.001 a 2.4094527,2.4094527 0 0 0 2.409672,-2.40967 2.4094527,2.4094527 0 0 0 -2.409672,-2.40821 z" id="rect1973-2-6-1-3-0-0" fill="#f7bd09" stroke-width="0.715756"/>
    <path  stroke="none" gorn="0.21" d="m 63.784865,81.719423 v 4.819348 H 52.7868 v -10e-4 A 2.4094527,2.4094527 0 0 0 55.196472,84.128096 2.4094527,2.4094527 0 0 0 52.7868,81.719885 Z" id="rect1973-2-6-1-6" fill="#f7bd09" stroke-width="0.715756"/>
    <path  stroke="none" gorn="0.22" d="m 121.38507,88.919472 v 4.819342 H 110.387 v -0.0015 a 2.4094527,2.4094527 0 0 0 2.40967,-2.409671 2.4094527,2.4094527 0 0 0 -2.40967,-2.408209 z" id="rect1973-2-6-5-2" fill="#f7bd09" stroke-width="0.715756"/>
    <path  stroke="none" gorn="0.23" d="m 121.38507,96.119445 v 4.819345 H 110.387 v -10e-4 a 2.4094527,2.4094527 0 0 0 2.40967,-2.409672 2.4094527,2.4094527 0 0 0 -2.40967,-2.408211 z" id="rect1973-2-6-1-4-5" fill="#f7bd09" stroke-width="0.715756"/>
    <path  stroke="none" gorn="0.24" d="m 121.38537,103.31948 v 4.81935 h -10.99806 v -0.001 a 2.4094527,2.4094527 0 0 0 2.40967,-2.41017 2.4094527,2.4094527 0 0 0 -2.40967,-2.40821 z" id="rect1973-2-1-5-6" fill="#f7bd09" stroke-width="0.715756"/>
    <path  stroke="none" gorn="0.25" d="m 121.38507,110.52001 v 4.81934 H 110.387 v -0.002 a 2.4094527,2.4094527 0 0 0 2.40967,-2.40967 2.4094527,2.4094527 0 0 0 -2.40967,-2.40821 z" id="rect1973-2-6-3-6-2" fill="#f7bd09" stroke-width="0.715756"/>
    <path  stroke="none" gorn="0.26" d="m 121.38507,117.71948 v 4.81934 H 110.387 v -0.001 a 2.4094527,2.4094527 0 0 0 2.40967,-2.40967 2.4094527,2.4094527 0 0 0 -2.40967,-2.40821 z" id="rect1973-2-6-1-3-2-4" fill="#f7bd09" stroke-width="0.715756"/>
    <path  stroke="none" gorn="0.27" d="m 121.38507,124.92003 v 4.81934 H 110.387 v -0.002 a 2.4094527,2.4094527 0 0 0 2.40967,-2.40967 2.4094527,2.4094527 0 0 0 -2.40967,-2.40821 z" id="rect1973-2-6-3-3-8-3" fill="#f7bd09" stroke-width="0.715756"/>
    <path  stroke="none" gorn="0.28" d="m 121.38507,132.1195 v 4.81934 H 110.387 v -0.001 a 2.4094527,2.4094527 0 0 0 2.40967,-2.40967 2.4094527,2.4094527 0 0 0 -2.40967,-2.40821 z" id="rect1973-2-6-1-3-0-0-8" fill="#f7bd09" stroke-width="0.715756"/>
    <path  stroke="none" gorn="0.29" d="m 121.38507,81.719423 v 4.819348 H 110.387 v -10e-4 a 2.4094527,2.4094527 0 0 0 2.40967,-2.409675 2.4094527,2.4094527 0 0 0 -2.40967,-2.408211 z" id="rect1973-2-6-1-6-2" fill="#f7bd09" stroke-width="0.715756"/>
    <path  stroke="none" gorn="0.30" d="m 70.588435,74.520118 v 4.819347 h 8.588392 v -4.819347 z" id="rect1973-6" fill="#f7bd09" stroke-width="0.632492"/>
    <path  stroke="none" gorn="0.31" d="m 70.588739,81.719445 v 4.819342 h 10.998065 v -0.0015 a 2.4094527,2.4094527 0 0 1 -2.409673,-2.409671 2.4094527,2.4094527 0 0 1 2.409673,-2.408209 z" id="rect1973-2-3" fill="#f7bd09" stroke-width="0.715756"/>
    <path  stroke="none" gorn="0.32" d="m 70.588739,88.91945 v 4.819342 h 10.998065 v -0.0015 a 2.4094527,2.4094527 0 0 1 -2.409672,-2.409671 2.4094527,2.4094527 0 0 1 2.409672,-2.408209 z" id="rect1973-2-6-2" fill="#f7bd09" stroke-width="0.715756"/>
    <path  stroke="none" gorn="0.33" d="m 70.588739,96.119427 v 4.819343 h 10.998065 v -0.001 a 2.4094527,2.4094527 0 0 1 -2.409672,-2.40967 2.4094527,2.4094527 0 0 1 2.409672,-2.408211 z" id="rect1973-2-6-1-62" fill="#f7bd09" stroke-width="0.715756"/>
    <path  stroke="none" gorn="0.34" d="m 70.588435,103.32019 v 4.81935 h 10.998064 v -10e-4 a 2.4094527,2.4094527 0 0 1 -2.409672,-2.41017 2.4094527,2.4094527 0 0 1 2.409672,-2.40821 z" id="rect1973-2-1-0" fill="#f7bd09" stroke-width="0.715756"/>
    <path  stroke="none" gorn="0.35" d="m 70.588739,110.52072 v 4.81934 h 10.998065 v -0.002 a 2.4094527,2.4094527 0 0 1 -2.409672,-2.40967 2.4094527,2.4094527 0 0 1 2.409672,-2.40821 z" id="rect1973-2-6-3-8" fill="#f7bd09" stroke-width="0.715756"/>
    <path  stroke="none" gorn="0.36" d="m 70.588739,117.72019 v 4.81934 h 10.998065 v -0.001 a 2.4094527,2.4094527 0 0 1 -2.409672,-2.40967 2.4094527,2.4094527 0 0 1 2.409672,-2.40821 z" id="rect1973-2-6-1-3-21" fill="#f7bd09" stroke-width="0.715756"/>
    <path  stroke="none" gorn="0.37" d="m 70.588739,124.92074 v 4.81934 h 10.998065 v -0.002 a 2.4094527,2.4094527 0 0 1 -2.409672,-2.40967 2.4094527,2.4094527 0 0 1 2.409672,-2.40821 z" id="rect1973-2-6-3-3-0" fill="#f7bd09" stroke-width="0.715756"/>
    <path  stroke="none" gorn="0.38" d="m 70.588739,132.12021 v 4.81934 h 10.998065 v -0.001 a 2.4094527,2.4094527 0 0 1 -2.409672,-2.40967 2.4094527,2.4094527 0 0 1 2.409672,-2.40821 z" id="rect1973-2-6-1-3-0-2" fill="#f7bd09" stroke-width="0.715756"/>
    <path  stroke="none" gorn="0.39" d="m 178.98527,88.919472 v 4.819342 H 167.9872 v -0.0015 a 2.4094527,2.4094527 0 0 0 2.40967,-2.409671 2.4094527,2.4094527 0 0 0 -2.40967,-2.408209 z" id="rect1973-2-6-5-2-2" fill="#f7bd09" stroke-width="0.715756"/>
    <path  stroke="none" gorn="0.40" d="m 178.98527,96.119445 v 4.819345 H 167.9872 v -10e-4 a 2.4094527,2.4094527 0 0 0 2.40967,-2.409677 2.4094527,2.4094527 0 0 0 -2.40967,-2.408206 z" id="rect1973-2-6-1-4-5-6" fill="#f7bd09" stroke-width="0.715756"/>
    <path  stroke="none" gorn="0.41" d="m 178.98557,103.31948 v 4.81935 h -10.99806 v -0.001 a 2.4094527,2.4094527 0 0 0 2.40967,-2.41017 2.4094527,2.4094527 0 0 0 -2.40967,-2.40821 z" id="rect1973-2-1-5-6-0" fill="#f7bd09" stroke-width="0.715756"/>
    <path  stroke="none" gorn="0.42" d="m 178.98527,110.52001 v 4.81934 H 167.9872 v -0.002 a 2.4094527,2.4094527 0 0 0 2.40967,-2.40967 2.4094527,2.4094527 0 0 0 -2.40967,-2.40821 z" id="rect1973-2-6-3-6-2-3" fill="#f7bd09" stroke-width="0.715756"/>
    <path  stroke="none" gorn="0.43" d="m 178.98527,117.71948 v 4.81934 H 167.9872 v -0.001 a 2.4094527,2.4094527 0 0 0 2.40967,-2.40967 2.4094527,2.4094527 0 0 0 -2.40967,-2.40821 z" id="rect1973-2-6-1-3-2-4-8" fill="#f7bd09" stroke-width="0.715756"/>
    <path  stroke="none" gorn="0.44" d="m 178.98527,124.92003 v 4.81934 H 167.9872 v -0.002 a 2.4094527,2.4094527 0 0 0 2.40967,-2.40967 2.4094527,2.4094527 0 0 0 -2.40967,-2.40821 z" id="path213" fill="#f7bd09" stroke-width="0.715756"/>
    <path  stroke="none" gorn="0.45" d="m 178.98527,132.1195 v 4.81934 H 167.9872 v -0.001 a 2.4094527,2.4094527 0 0 0 2.40967,-2.40967 2.4094527,2.4094527 0 0 0 -2.40967,-2.40821 z" id="rect1973-2-6-1-3-0-0-8-2" fill="#f7bd09" stroke-width="0.715756"/>
    <path  stroke="none" gorn="0.46" d="m 178.98527,81.719423 v 4.819348 H 167.9872 v -10e-4 a 2.4094527,2.4094527 0 0 0 2.40967,-2.409675 2.4094527,2.4094527 0 0 0 -2.40967,-2.408211 z" id="rect1973-2-6-1-6-2-5" fill="#f7bd09" stroke-width="0.715756"/>
    <path  stroke="none" gorn="0.47" d="m 128.18863,74.520118 v 4.819347 h 8.58839 v -4.819347 z" id="rect1973-6-4" fill="#f7bd09" stroke-width="0.632492"/>
    <path  stroke="none" gorn="0.48" d="m 128.18893,81.719445 v 4.819342 H 139.187 v -0.0015 a 2.4094527,2.4094527 0 0 1 -2.40968,-2.409671 2.4094527,2.4094527 0 0 1 2.40968,-2.408209 z" id="path218" fill="#f7bd09" stroke-width="0.715756"/>
    <path  stroke="none" gorn="0.49" d="m 128.18893,88.91945 v 4.819342 H 139.187 v -0.0015 a 2.4094527,2.4094527 0 0 1 -2.40968,-2.409671 2.4094527,2.4094527 0 0 1 2.40968,-2.408209 z" id="path220" fill="#f7bd09" stroke-width="0.715756"/>
    <path  stroke="none" gorn="0.50" d="m 128.18893,96.119427 v 4.819343 H 139.187 v -0.001 a 2.4094527,2.4094527 0 0 1 -2.40968,-2.409667 2.4094527,2.4094527 0 0 1 2.40968,-2.408214 z" id="rect1973-2-6-1-62-3" fill="#f7bd09" stroke-width="0.715756"/>
    <path  stroke="none" gorn="0.51" d="m 128.18863,103.32019 v 4.81935 h 10.99806 v -10e-4 a 2.4094527,2.4094527 0 0 1 -2.40967,-2.41017 2.4094527,2.4094527 0 0 1 2.40967,-2.40821 z" id="rect1973-2-1-0-8" fill="#f7bd09" stroke-width="0.715756"/>
    <path  stroke="none" gorn="0.52" d="m 128.18893,110.52072 v 4.81934 H 139.187 v -0.002 a 2.4094527,2.4094527 0 0 1 -2.40968,-2.40967 2.4094527,2.4094527 0 0 1 2.40968,-2.40821 z" id="rect1973-2-6-3-8-9" fill="#f7bd09" stroke-width="0.715756"/>
    <path  stroke="none" gorn="0.53" d="m 128.18893,117.72019 v 4.81934 H 139.187 v -0.001 a 2.4094527,2.4094527 0 0 1 -2.40968,-2.40967 2.4094527,2.4094527 0 0 1 2.40968,-2.40821 z" id="rect1973-2-6-1-3-21-8" fill="#f7bd09" stroke-width="0.715756"/>
    <path  stroke="none" gorn="0.54" d="m 128.18893,124.92074 v 4.81934 H 139.187 v -0.002 a 2.4094527,2.4094527 0 0 1 -2.40968,-2.40967 2.4094527,2.4094527 0 0 1 2.40968,-2.40821 z" id="rect1973-2-6-3-3-0-0" fill="#f7bd09" stroke-width="0.715756"/>
    <path  stroke="none" gorn="0.55" d="m 128.18893,132.12021 v 4.81934 H 139.187 v -0.001 a 2.4094527,2.4094527 0 0 1 -2.40968,-2.40967 2.4094527,2.4094527 0 0 1 2.40968,-2.40821 z" id="rect1973-2-6-1-3-0-2-8" fill="#f7bd09" stroke-width="0.715756"/>
</svg>
