<?xml version="1.0" encoding="UTF-8"?>
<!-- Created with Fritzing (http://www.fritzing.org/) -->
<svg width="2.6968in" height="2.1036in" version="1.2" viewBox="0 0 194.17 151.46" xmlns="http://www.w3.org/2000/svg">
	<g id="silkscreen">
		<g stroke="#fff">
			<path d="m0.288 148.09v-144.98a2.5466 2.5466 0 0 1 2.8262-2.8239h179.47l4.24 4.2358v32.305l7.065 7.0597v92.905l-7.065 7.059v4.236a2.5466 2.5466 0 0 1-2.826 2.824h-180.88a2.5466 2.5466 0 0 1-2.8262-2.824" fill="none" stroke-width=".576"/>
			<g stroke-linecap="round" stroke-width=".72">
				<line x1="169.89" x2="169.89" y1="26.73" y2="13.722"/>
				<line x1="131.54" x2="169.89" y1="26.73" y2="26.73"/>
				<line x1="131.54" x2="131.54" y1="26.73" y2="13.722"/>
				<line x1="74.631" x2="74.631" y1="151.21" y2="140.13"/>
				<line x1="-.0034636" x2="74.631" y1="140.13" y2="140.13"/>
				<line x1="131.54" x2="169.89" y1="13.722" y2="13.722"/>
			</g>
		</g>
		<g stroke="#fff">
			<g stroke-linecap="round" stroke-width=".72">
				<line x1="11.387" x2="11.387" y1="138.07" y2="28.088"/>
				<line x1="11.387" x2="65.373" y1="28.088" y2="28.088"/>
				<line x1="65.373" x2="65.373" y1="138.07" y2="28.088"/>
				<line x1="11.387" x2="65.373" y1="138.07" y2="138.07"/>
			</g>
			<circle cx="49.144" cy="80.487" r=".35433" fill="none" stroke-width=".70866"/>
		</g>
		<g stroke="#fff">
			<g stroke-linecap="round" stroke-width=".72">
				<line x1="68.987" x2="68.987" y1="138.07" y2="28.088"/>
				<line x1="68.987" x2="122.97" y1="28.088" y2="28.088"/>
				<line x1="68.987" x2="122.97" y1="138.07" y2="138.07"/>
			</g>
			<circle cx="106.74" cy="80.487" r=".35433" fill="none" stroke-width=".70866"/>
		</g>
		<g stroke="#fff">
			<g stroke-linecap="round" stroke-width=".72">
				<line x1="122.97" x2="180.57" y1="28.088" y2="28.088"/>
				<line x1="180.57" x2="180.57" y1="138.07" y2="28.088"/>
				<line x1="122.97" x2="180.57" y1="138.07" y2="138.07"/>
			</g>
			<circle cx="164.34" cy="80.487" r=".35433" fill="none" stroke-width=".70866"/>
		</g>
		<g fill="none" stroke="#fff" stroke-width=".576">
			<line x1=".85476" x2="25.8" y1="151.17" y2="151.17"/>
			<line x1=".85476" x2=".85476" y1="151.17" y2="151.2"/>
			<line x1="25.8" x2="25.8" y1="151.17" y2="151.2"/>
		</g>
	</g>
	<g id="copper1">
		<g id="copper0" fill="none" stroke="#f7bd13">
			<circle id="connector50pin" cx="167.99" cy="91.329" r="1.9134" stroke-width=".99212" connectorname="22"/>
			<g stroke-width=".85039">
				<circle id="connector56pin" cx="74.88" cy="7.1942" r="1.9843" connectorname="7"/>
				<circle id="connector72pin" cx="143.66" cy="21.862" r="1.8425" connectorname="AREF"/>
				<circle id="connector90pin" cx="172.8" cy="144" r="1.9843" connectorname="XMCAC_P2_11"/>
			</g>
			<circle id="connector46pin" cx="167.99" cy="120.13" r="1.9134" stroke-width=".99212" connectorname="30"/>
			<circle id="connector84pin" cx="122.4" cy="144" r="1.9843" stroke-width=".85039" connectorname="7"/>
			<circle id="connector66pin" cx="151.2" cy="7.1956" r="1.9843" stroke-width=".85039" connectorname="M1P2_M1P3_RST_GPIO2_BS"/>
			<g stroke-width=".99212">
				<circle id="connector1pad" cx="23.987" cy="76.929" r="1.9134" connectorname="2"/>
				<rect x="22.074" y="75.016" width="3.8268" height="3.8268"/>
				<circle id="connector2pad" cx="23.987" cy="84.129" r="1.9134" connectorname="4"/>
				<circle id="connector48pin" cx="167.99" cy="105.73" r="1.9134" connectorname="26"/>
				<circle id="connector3pad" cx="23.987" cy="91.329" r="1.9134" connectorname="6"/>
				<circle id="connector44pin" cx="167.99" cy="134.53" r="1.9134" connectorname="34"/>
			</g>
			<circle id="connector80pin" cx="93.6" cy="144" r="1.9843" stroke-width=".85039" connectorname="XMCAC_P2_4"/>
			<circle id="connector4pad" cx="23.987" cy="98.529" r="1.9134" stroke-width=".99212" connectorname="8"/>
			<g stroke-width=".85039">
				<circle id="connector60pin" cx="103.68" cy="7.1942" r="1.9843" connectorname="M1P1_SPI_CS_BS"/>
				<circle id="connector70pad" cx="180" cy="7.1956" r="1.9843" connectorname="UART.TX"/>
				<rect id="connector70pin" x="178.02" y="5.2114" width="3.9685" height="3.9685"/>
			</g>
			<circle id="connector5pad" cx="23.987" cy="105.73" r="1.9134" stroke-width=".99212" connectorname="10"/>
			<g stroke-width=".85039">
				<circle id="connector86pad" cx="144" cy="144" r="1.9843" connectorname="1"/>
				<rect id="connector86pin" x="142.02" y="142.02" width="3.9685" height="3.9685"/>
				<circle id="connector76pin" cx="13.327" cy="146.07" r="1.8425" connectorname="IOREF_LS"/>
			</g>
			<g stroke-width=".99212">
				<circle id="connector6pad" cx="23.987" cy="112.93" r="1.9134" connectorname="12"/>
				<circle id="connector7pad" cx="23.987" cy="120.13" r="1.9134" connectorname="14"/>
				<circle id="connector8pad" cx="23.987" cy="127.33" r="1.9134" connectorname="16"/>
				<circle id="connector51pin" cx="167.99" cy="84.129" r="1.9134" connectorname="20"/>
				<circle id="connector49pin" cx="167.99" cy="98.529" r="1.9134" connectorname="24"/>
				<circle id="connector9pad" cx="23.987" cy="134.53" r="1.9134" connectorname="18"/>
				<circle id="connector47pin" cx="167.99" cy="112.93" r="1.9134" connectorname="28"/>
				<circle id="connector45pin" cx="167.99" cy="127.33" r="1.9134" connectorname="32"/>
				<circle id="connector17pin" cx="52.787" cy="84.129" r="1.9134" connectorname="20"/>
			</g>
			<circle id="connector78pad" cx="79.2" cy="144" r="1.9843" stroke-width=".85039" connectorname="1"/>
			<rect id="connector78pin" x="77.216" y="142.02" width="3.9685" height="3.9685" stroke-width=".85039"/>
			<circle id="connector16pin" cx="52.787" cy="91.329" r="1.9134" stroke-width=".99212" connectorname="22"/>
			<g stroke-width=".85039">
				<circle id="connector82pin" cx="108" cy="144" r="1.9843" connectorname="5"/>
				<circle id="connector62pad" cx="118.08" cy="7.1942" r="1.9843" connectorname="M1P2_M1P3_SPI_CS_BS"/>
				<rect id="connector62pin" x="116.1" y="5.21" width="3.9685" height="3.9685"/>
			</g>
			<circle id="connector15pad" cx="52.787" cy="98.529" r="1.9134" stroke-width=".99212" connectorname="24"/>
			<circle id="connector58pin" cx="89.28" cy="7.1942" r="1.9843" stroke-width=".85039" connectorname="SPI_MISO_BS"/>
			<circle id="connector54pin" cx="60.48" cy="7.1942" r="1.9843" stroke-width=".85039" connectorname="I2C.SDA"/>
			<circle id="connector14pad" cx="52.787" cy="105.73" r="1.9134" stroke-width=".99212" connectorname="26"/>
			<circle id="connector68pin" cx="165.6" cy="7.1956" r="1.9843" stroke-width=".85039" connectorname="M1P1_IN_GPIO3_BS"/>
			<circle id="connector64pin" cx="136.8" cy="7.1956" r="1.9843" stroke-width=".85039" connectorname="M1P2_M1P3_PWM_BS"/>
			<circle id="connector13pad" cx="52.787" cy="112.93" r="1.9134" stroke-width=".99212" connectorname="28"/>
			<circle id="connector88pin" cx="158.4" cy="144" r="1.9843" stroke-width=".85039" connectorname="3"/>
			<circle id="connector74pin" cx="6.4871" cy="48.718" r="2.041" stroke-width=".85039" connectorname="VREF_B"/>
			<circle id="connector12pad" cx="52.787" cy="120.13" r="1.9134" stroke-width=".99212" connectorname="30"/>
			<circle id="connector52pin" cx="4.9603" cy="6.6447" r="2.041" stroke-width=".85039" connectorname="VREF_A"/>
			<g stroke-width=".99212">
				<circle id="connector11pad" cx="52.787" cy="127.33" r="1.9134" connectorname="32"/>
				<circle id="connector10pad" cx="52.787" cy="134.53" r="1.9134" connectorname="34"/>
				<circle id="connector18pad" cx="81.587" cy="76.929" r="1.9134" connectorname="2"/>
				<rect id="connector18pin" x="79.674" y="75.016" width="3.8268" height="3.8268"/>
				<circle id="connector19pin" cx="81.587" cy="84.129" r="1.9134" connectorname="4"/>
				<circle id="connector20pin" cx="81.587" cy="91.329" r="1.9134" connectorname="6"/>
				<circle id="connector21pin" cx="81.587" cy="98.529" r="1.9134" connectorname="8"/>
				<circle id="connector22pin" cx="81.587" cy="105.73" r="1.9134" connectorname="10"/>
				<circle id="connector23pin" cx="81.587" cy="112.93" r="1.9134" connectorname="12"/>
				<circle id="connector24pin" cx="81.587" cy="120.13" r="1.9134" connectorname="14"/>
			</g>
			<g stroke-width=".85039">
				<circle id="connector73pad" cx="150.86" cy="21.862" r="1.8425" connectorname="1"/>
				<rect id="connector73pin" x="149.02" y="20.019" width="3.685" height="3.685"/>
				<circle id="connector71pin" cx="136.46" cy="21.862" r="1.8425" connectorname="3"/>
			</g>
			<circle id="connector25pin" cx="81.587" cy="127.33" r="1.9134" stroke-width=".99212" connectorname="16"/>
			<circle id="connector79pin" cx="86.4" cy="144" r="1.9843" stroke-width=".85039" connectorname="IOREF"/>
			<circle id="connector81pin" cx="100.8" cy="144" r="1.9843" stroke-width=".85039" connectorname="PWR_3V3_XMCAC"/>
			<circle id="connector26pin" cx="81.587" cy="134.53" r="1.9134" stroke-width=".99212" connectorname="18"/>
			<circle id="connector83pin" cx="115.2" cy="144" r="1.9843" stroke-width=".85039" connectorname="6"/>
			<circle id="connector85pin" cx="129.6" cy="144" r="1.9843" stroke-width=".85039" connectorname="PWR_VIN_VRIN"/>
			<circle id="connector34pin" cx="110.39" cy="84.129" r="1.9134" stroke-width=".99212" connectorname="20"/>
			<circle id="connector61pin" cx="110.88" cy="7.1942" r="1.9843" stroke-width=".85039" connectorname="M1P1_RST_GPIO2_BS"/>
			<circle id="connector59pin" cx="96.48" cy="7.1942" r="1.9843" stroke-width=".85039" connectorname="SPI_MOSI_BS"/>
			<circle id="connector33pin" cx="110.39" cy="91.329" r="1.9134" stroke-width=".99212" connectorname="22"/>
			<circle id="connector57pin" cx="82.08" cy="7.1942" r="1.9843" stroke-width=".85039" connectorname="SPI_SCK_BS"/>
			<circle id="connector55pin" cx="67.68" cy="7.1942" r="1.9843" stroke-width=".85039" connectorname="AREF"/>
			<circle id="connector32pin" cx="110.39" cy="98.529" r="1.9134" stroke-width=".99212" connectorname="24"/>
			<circle id="connector53pin" cx="53.28" cy="7.1942" r="1.9843" stroke-width=".85039" connectorname="I2C.SCL"/>
			<circle id="connector69pin" cx="172.8" cy="7.1956" r="1.9843" stroke-width=".85039" connectorname="UART.RX"/>
			<circle id="connector31pin" cx="110.39" cy="105.73" r="1.9134" stroke-width=".99212" connectorname="26"/>
			<circle id="connector67pin" cx="158.4" cy="7.1956" r="1.9843" stroke-width=".85039" connectorname="M1P2_M1P3_IN_GPIO3_BS"/>
			<circle id="connector65pin" cx="144" cy="7.1956" r="1.9843" stroke-width=".85039" connectorname="M1P1_PWM_BS"/>
			<circle id="connector30pin" cx="110.39" cy="112.93" r="1.9134" stroke-width=".99212" connectorname="28"/>
			<circle id="connector63pin" cx="129.6" cy="7.1956" r="1.9843" stroke-width=".85039" connectorname="M1P2_M1P3_GPIO1_BS"/>
			<circle id="connector87pin" cx="151.2" cy="144" r="1.9843" stroke-width=".85039" connectorname="2"/>
			<circle id="connector29pin" cx="110.39" cy="120.13" r="1.9134" stroke-width=".99212" connectorname="30"/>
			<circle id="connector89pin" cx="165.6" cy="144" r="1.9843" stroke-width=".85039" connectorname="ANALOG.AN1"/>
			<circle id="connector91pin" cx="180" cy="144" r="1.9843" stroke-width=".85039" connectorname="XMCAC_P2_2"/>
			<circle id="connector28pin" cx="110.39" cy="127.33" r="1.9134" stroke-width=".99212" connectorname="32"/>
			<g stroke-width=".85039">
				<circle id="connector77pad" cx="20.527" cy="146.07" r="1.8425" connectorname="1"/>
				<rect id="connector77pin" x="18.685" y="144.23" width="3.685" height="3.685"/>
				<circle id="connector75pin" cx="6.1272" cy="146.07" r="1.8425" connectorname="3"/>
			</g>
			<g stroke-width=".99212">
				<circle id="connector27pin" cx="110.39" cy="134.53" r="1.9134" connectorname="34"/>
				<circle id="connector35pad" cx="139.19" cy="76.929" r="1.9134" connectorname="2"/>
				<rect id="connector35pin" x="137.27" y="75.016" width="3.8268" height="3.8268"/>
				<circle id="connector36pin" cx="139.19" cy="84.129" r="1.9134" connectorname="4"/>
				<circle id="connector37pin" cx="139.19" cy="91.329" r="1.9134" connectorname="6"/>
				<circle id="connector38pin" cx="139.19" cy="98.529" r="1.9134" connectorname="8"/>
				<circle id="connector39pin" cx="139.19" cy="105.73" r="1.9134" connectorname="10"/>
				<circle id="connector40pin" cx="139.19" cy="112.93" r="1.9134" connectorname="12"/>
				<circle id="connector41pin" cx="139.19" cy="120.13" r="1.9134" connectorname="14"/>
				<circle id="connector42pin" cx="139.19" cy="127.33" r="1.9134" connectorname="16"/>
			</g>
			<circle id="connector0pad" cx="187.55" cy="62.525" r="2.041" stroke-width=".85039" connectorname="1"/>
			<circle id="connector43pin" cx="139.19" cy="134.53" r="1.9134" stroke-width=".99212" connectorname="18"/>
		</g>
	</g>
</svg>
