<?xml version="1.0" encoding="utf-8"?>
<!-- Generator: Adobe Illustrator 16.0.0, SVG Export Plug-In . SVG Version: 6.00 Build 0)  -->
<svg version="1.2" baseProfile="tiny" id="Layer_1" xmlns:svg="http://www.w3.org/2000/svg"
	 xmlns="http://www.w3.org/2000/svg" xmlns:xlink="http://www.w3.org/1999/xlink" x="0px" y="0px" width="171.15px"
	 height="82.541px" viewBox="0 0 171.15 82.541" xml:space="preserve">
<g id="copper1">
	<g id="copper0">
		<g id="j20">
			
				<circle id="connector56pin" fill="none" stroke="#F7BD13" stroke-width="1.2" stroke-miterlimit="10" cx="51.857" cy="44.976" r="1.6"/>
			
				<circle id="connector55pin" fill="none" stroke="#F7BD13" stroke-width="1.2" stroke-miterlimit="10" cx="59.057" cy="44.976" r="1.6"/>
			
				<circle id="connector54pin" fill="none" stroke="#F7BD13" stroke-width="1.2" stroke-miterlimit="10" cx="66.257" cy="44.976" r="1.6"/>
			
				<circle id="connector53pin" fill="none" stroke="#F7BD13" stroke-width="1.2" stroke-miterlimit="10" cx="73.457" cy="44.976" r="1.6"/>
			
				<circle id="connector52pin" fill="none" stroke="#F7BD13" stroke-width="1.2" stroke-miterlimit="10" cx="80.656" cy="44.976" r="1.6"/>
			
				<circle id="connector51pin" fill="none" stroke="#F7BD13" stroke-width="1.2" stroke-miterlimit="10" cx="87.857" cy="44.976" r="1.6"/>
			
				<circle id="connector50pin" fill="none" stroke="#F7BD13" stroke-width="1.2" stroke-miterlimit="10" cx="95.058" cy="44.976" r="1.6"/>
			
				<circle id="connector49pin" fill="none" stroke="#F7BD13" stroke-width="1.2" stroke-miterlimit="10" cx="102.258" cy="44.976" r="1.6"/>
			
				<circle id="connector48pin" fill="none" stroke="#F7BD13" stroke-width="1.2" stroke-miterlimit="10" cx="109.457" cy="44.976" r="1.6"/>
			
				<circle id="connector47pin" fill="none" stroke="#F7BD13" stroke-width="1.2" stroke-miterlimit="10" cx="116.658" cy="44.976" r="1.6"/>
			
				<circle id="connector46pin" fill="none" stroke="#F7BD13" stroke-width="1.2" stroke-miterlimit="10" cx="123.859" cy="44.976" r="1.6"/>
			
				<circle id="connector45pin" fill="none" stroke="#F7BD13" stroke-width="1.2" stroke-miterlimit="10" cx="131.059" cy="44.976" r="1.6"/>
			
				<circle id="connector44pin" fill="none" stroke="#F7BD13" stroke-width="1.2" stroke-miterlimit="10" cx="138.259" cy="44.976" r="1.6"/>
			
				<circle id="connector43pin" fill="none" stroke="#F7BD13" stroke-width="1.2" stroke-miterlimit="10" cx="145.459" cy="44.976" r="1.6"/>
		</g>
		<g id="j19">
			
				<circle id="connector42pin" fill="none" stroke="#F7BD13" stroke-width="1.2" stroke-miterlimit="10" cx="51.857" cy="37.775" r="1.6"/>
			
				<circle id="connector41pin" fill="none" stroke="#F7BD13" stroke-width="1.2" stroke-miterlimit="10" cx="59.057" cy="37.775" r="1.6"/>
			
				<circle id="connector40pin" fill="none" stroke="#F7BD13" stroke-width="1.2" stroke-miterlimit="10" cx="66.257" cy="37.775" r="1.6"/>
			
				<circle id="connector39pin" fill="none" stroke="#F7BD13" stroke-width="1.2" stroke-miterlimit="10" cx="73.457" cy="37.775" r="1.6"/>
			
				<circle id="connector38pin" fill="none" stroke="#F7BD13" stroke-width="1.2" stroke-miterlimit="10" cx="80.656" cy="37.775" r="1.6"/>
			
				<circle id="connector37pin" fill="none" stroke="#F7BD13" stroke-width="1.2" stroke-miterlimit="10" cx="87.857" cy="37.775" r="1.6"/>
			
				<circle id="connector36pin" fill="none" stroke="#F7BD13" stroke-width="1.2" stroke-miterlimit="10" cx="95.058" cy="37.775" r="1.6"/>
			
				<circle id="connector35pin" fill="none" stroke="#F7BD13" stroke-width="1.2" stroke-miterlimit="10" cx="102.258" cy="37.775" r="1.6"/>
			
				<circle id="connector34pin" fill="none" stroke="#F7BD13" stroke-width="1.2" stroke-miterlimit="10" cx="109.457" cy="37.775" r="1.6"/>
			
				<circle id="connector33pin" fill="none" stroke="#F7BD13" stroke-width="1.2" stroke-miterlimit="10" cx="116.658" cy="37.775" r="1.6"/>
			
				<circle id="connector32pin" fill="none" stroke="#F7BD13" stroke-width="1.2" stroke-miterlimit="10" cx="123.859" cy="37.775" r="1.6"/>
			
				<circle id="connector31pin" fill="none" stroke="#F7BD13" stroke-width="1.2" stroke-miterlimit="10" cx="131.059" cy="37.775" r="1.6"/>
			
				<circle id="connector30pin" fill="none" stroke="#F7BD13" stroke-width="1.2" stroke-miterlimit="10" cx="138.259" cy="37.775" r="1.6"/>
			
				<circle id="connector29pin" fill="none" stroke="#F7BD13" stroke-width="1.2" stroke-miterlimit="10" cx="145.459" cy="37.775" r="1.6"/>
		</g>
		<g id="j18">
			
				<circle id="connector28pin" fill="none" stroke="#F7BD13" stroke-width="1.2" stroke-miterlimit="10" cx="51.857" cy="30.574" r="1.6"/>
			
				<circle id="connector27pin" fill="none" stroke="#F7BD13" stroke-width="1.2" stroke-miterlimit="10" cx="59.057" cy="30.574" r="1.6"/>
			
				<circle id="connector26pin" fill="none" stroke="#F7BD13" stroke-width="1.2" stroke-miterlimit="10" cx="66.257" cy="30.574" r="1.6"/>
			
				<circle id="connector25pin" fill="none" stroke="#F7BD13" stroke-width="1.2" stroke-miterlimit="10" cx="73.457" cy="30.574" r="1.6"/>
			
				<circle id="connector24pin" fill="none" stroke="#F7BD13" stroke-width="1.2" stroke-miterlimit="10" cx="80.656" cy="30.574" r="1.6"/>
			
				<circle id="connector23pin" fill="none" stroke="#F7BD13" stroke-width="1.2" stroke-miterlimit="10" cx="87.857" cy="30.574" r="1.6"/>
			
				<circle id="connector22pin" fill="none" stroke="#F7BD13" stroke-width="1.2" stroke-miterlimit="10" cx="95.058" cy="30.574" r="1.6"/>
			
				<circle id="connector21pin" fill="none" stroke="#F7BD13" stroke-width="1.2" stroke-miterlimit="10" cx="102.258" cy="30.574" r="1.6"/>
			
				<circle id="connector20pin" fill="none" stroke="#F7BD13" stroke-width="1.2" stroke-miterlimit="10" cx="109.457" cy="30.574" r="1.6"/>
			
				<circle id="connector19pin" fill="none" stroke="#F7BD13" stroke-width="1.2" stroke-miterlimit="10" cx="116.658" cy="30.574" r="1.6"/>
			
				<circle id="connector18pin" fill="none" stroke="#F7BD13" stroke-width="1.2" stroke-miterlimit="10" cx="123.859" cy="30.574" r="1.6"/>
			
				<circle id="connector17pin" fill="none" stroke="#F7BD13" stroke-width="1.2" stroke-miterlimit="10" cx="131.059" cy="30.574" r="1.6"/>
			
				<circle id="connector16pin" fill="none" stroke="#F7BD13" stroke-width="1.2" stroke-miterlimit="10" cx="138.259" cy="30.574" r="1.6"/>
			
				<circle id="connector15pin" fill="none" stroke="#F7BD13" stroke-width="1.2" stroke-miterlimit="10" cx="145.459" cy="30.574" r="1.6"/>
		</g>
		<g id="j17">
			
				<circle id="connector14pin" fill="none" stroke="#F7BD13" stroke-width="1.2" stroke-miterlimit="10" cx="51.857" cy="23.374" r="1.6"/>
			
				<circle id="connector13pin" fill="none" stroke="#F7BD13" stroke-width="1.2" stroke-miterlimit="10" cx="59.057" cy="23.374" r="1.6"/>
			
				<circle id="connector12pin" fill="none" stroke="#F7BD13" stroke-width="1.2" stroke-miterlimit="10" cx="66.257" cy="23.374" r="1.6"/>
			
				<circle id="connector11pin" fill="none" stroke="#F7BD13" stroke-width="1.2" stroke-miterlimit="10" cx="73.457" cy="23.374" r="1.6"/>
			
				<circle id="connector10pin" fill="none" stroke="#F7BD13" stroke-width="1.2" stroke-miterlimit="10" cx="80.656" cy="23.374" r="1.6"/>
			
				<circle id="connector9pin" fill="none" stroke="#F7BD13" stroke-width="1.2" stroke-miterlimit="10" cx="87.857" cy="23.374" r="1.6"/>
			
				<circle id="connector8pin" fill="none" stroke="#F7BD13" stroke-width="1.2" stroke-miterlimit="10" cx="95.058" cy="23.374" r="1.6"/>
			
				<circle id="connector7pin" fill="none" stroke="#F7BD13" stroke-width="1.2" stroke-miterlimit="10" cx="102.258" cy="23.374" r="1.6"/>
			
				<circle id="connector6pin" fill="none" stroke="#F7BD13" stroke-width="1.2" stroke-miterlimit="10" cx="109.457" cy="23.374" r="1.6"/>
			
				<circle id="connector5pin" fill="none" stroke="#F7BD13" stroke-width="1.2" stroke-miterlimit="10" cx="116.658" cy="23.374" r="1.6"/>
			
				<circle id="connector4pin" fill="none" stroke="#F7BD13" stroke-width="1.2" stroke-miterlimit="10" cx="123.859" cy="23.374" r="1.6"/>
			
				<circle id="connector3pin" fill="none" stroke="#F7BD13" stroke-width="1.2" stroke-miterlimit="10" cx="131.059" cy="23.374" r="1.6"/>
			
				<circle id="connector2pin" fill="none" stroke="#F7BD13" stroke-width="1.2" stroke-miterlimit="10" cx="138.259" cy="23.374" r="1.6"/>
			
				<circle id="connector1pin" fill="none" stroke="#F7BD13" stroke-width="1.2" stroke-miterlimit="10" cx="145.459" cy="23.374" r="1.6"/>
		</g>
		<path fill="#F7BD13" d="M157.209,9.387c0,2.518,2.042,4.557,4.558,4.557c2.519,0,4.557-2.039,4.557-4.557
			c0-2.52-2.038-4.555-4.557-4.555C159.251,4.832,157.211,6.868,157.209,9.387z M158.61,9.387c0-1.742,1.415-3.157,3.156-3.157
			c1.743,0,3.156,1.414,3.156,3.157c0,1.743-1.412,3.157-3.156,3.157C160.025,12.544,158.61,11.131,158.61,9.387z"/>
		<path fill="#F7BD13" d="M157.209,72.812c0,2.518,2.042,4.557,4.558,4.557c2.519,0,4.557-2.039,4.557-4.557
			c0-2.521-2.038-4.556-4.557-4.556C159.251,68.256,157.211,70.292,157.209,72.812z M158.61,72.813c0-1.742,1.415-3.158,3.156-3.158
			c1.743,0,3.156,1.414,3.156,3.158c0,1.742-1.412,3.156-3.156,3.156C160.025,75.97,158.61,74.556,158.61,72.813z"/>
		<path fill="#F7BD13" d="M37.615,9.945c0,2.518,2.041,4.557,4.557,4.557c2.521,0,4.558-2.039,4.558-4.557
			c0-2.52-2.037-4.555-4.558-4.555C39.656,5.39,37.617,7.425,37.615,9.945z M39.016,9.946c0-1.742,1.415-3.157,3.155-3.157
			c1.744,0,3.156,1.414,3.156,3.157c0,1.743-1.412,3.157-3.156,3.157C40.431,13.103,39.016,11.688,39.016,9.946z"/>
		<path fill="#F7BD13" d="M37.978,72.021c0,2.518,2.04,4.557,4.557,4.557c2.521,0,4.558-2.039,4.558-4.557
			c0-2.522-2.036-4.558-4.558-4.558C40.022,67.463,37.982,69.499,37.978,72.021z M39.38,72.021c0-1.742,1.415-3.156,3.155-3.156
			c1.744,0,3.158,1.414,3.158,3.156c0,1.744-1.414,3.158-3.158,3.158C40.795,75.179,39.38,73.765,39.38,72.021z"/>
	</g>
</g>
<g id="silkscreen0">
	<rect x="1.002" y="0.554" fill="none" stroke="#FFFFFF" stroke-miterlimit="10" width="169.229" height="81.07"/>
</g>
<g id="silkscreen">
	<rect x="1.002" y="0.554" fill="none" stroke="#FFFFFF" stroke-miterlimit="10" width="169.229" height="81.07"/>
	<g>
		<g>
			<circle fill="none" stroke="#FFFFFF" stroke-width="0.1" stroke-miterlimit="10" cx="157.204" cy="23.374" r="1.6"/>
		</g>
		<g>
			<circle fill="none" stroke="#FFFFFF" stroke-width="0.1" stroke-miterlimit="10" cx="164.404" cy="23.374" r="1.6"/>
		</g>
	</g>
	<g>
		<g>
			<circle fill="none" stroke="#FFFFFF" stroke-width="0.1" stroke-miterlimit="10" cx="156.847" cy="34.171" r="1.6"/>
		</g>
		<g>
			<circle fill="none" stroke="#FFFFFF" stroke-width="0.1" stroke-miterlimit="10" cx="164.047" cy="34.171" r="1.6"/>
		</g>
	</g>
</g>
<g id="unknown" opacity="0.5">
	<rect x="48.492" y="19.854" fill="000000"width="100.5" height="6.75"/>
	<rect fill="000000"  x="142.325" y="19.854" width="6.667" height="27.917"/>
	<rect fill="000000"  x="48.492" y="34.4" width="100.5" height="6.75"/>
	<text transform="matrix(1 0 0 1 149.491 24.437)" font-family="'OCRA'" font-size="2.15">J17</text>
	<text transform="matrix(1 0 0 1 149.491 31.437)" font-family="'OCRA'" font-size="2.15">J18</text>
	<text transform="matrix(1 0 0 1 149.491 38.7705)" font-family="'OCRA'" font-size="2.15">J19</text>
	<text transform="matrix(1 0 0 1 149.491 45.9365)" font-family="'OCRA'" font-size="2.15">J20</text>
</g>
</svg>
