<?xml version="1.0" encoding="utf-8"?>
<!-- Generator: Adobe Illustrator 16.0.0, SVG Export Plug-In . SVG Version: 6.00 Build 0)  -->
<!DOCTYPE svg PUBLIC "-//W3C//DTD SVG 1.1//EN" "http://www.w3.org/Graphics/SVG/1.1/DTD/svg11.dtd">
<svg version="1.1" id="Layer_1" xmlns:svg="http://www.w3.org/2000/svg"
	 xmlns="http://www.w3.org/2000/svg" xmlns:xlink="http://www.w3.org/1999/xlink" x="0px" y="0px" width="171.15px"
	 height="82.541px" viewBox="0 0 171.15 82.541" enable-background="new 0 0 171.15 82.541" xml:space="preserve">
<g id="copper1">
	<g id="copper0">
		<g id="j20">
			
				<circle id="connector56pin" fill="none" stroke="#F7BD13" stroke-width="1.2" stroke-miterlimit="10" cx="51.857" cy="44.976" r="1.6"/>
			
				<circle id="connector55pin" fill="none" stroke="#F7BD13" stroke-width="1.2" stroke-miterlimit="10" cx="59.057" cy="44.976" r="1.6"/>
			
				<circle id="connector54pin" fill="none" stroke="#F7BD13" stroke-width="1.2" stroke-miterlimit="10" cx="66.257" cy="44.976" r="1.6"/>
			
				<circle id="connector53pin" fill="none" stroke="#F7BD13" stroke-width="1.2" stroke-miterlimit="10" cx="73.457" cy="44.976" r="1.6"/>
			
				<circle id="connector52pin" fill="none" stroke="#F7BD13" stroke-width="1.2" stroke-miterlimit="10" cx="80.656" cy="44.976" r="1.6"/>
			
				<circle id="connector51pin" fill="none" stroke="#F7BD13" stroke-width="1.2" stroke-miterlimit="10" cx="87.857" cy="44.976" r="1.6"/>
			
				<circle id="connector50pin" fill="none" stroke="#F7BD13" stroke-width="1.2" stroke-miterlimit="10" cx="95.058" cy="44.976" r="1.6"/>
			
				<circle id="connector49pin" fill="none" stroke="#F7BD13" stroke-width="1.2" stroke-miterlimit="10" cx="102.258" cy="44.976" r="1.6"/>
			
				<circle id="connector48pin" fill="none" stroke="#F7BD13" stroke-width="1.2" stroke-miterlimit="10" cx="109.457" cy="44.976" r="1.6"/>
			
				<circle id="connector47pin" fill="none" stroke="#F7BD13" stroke-width="1.2" stroke-miterlimit="10" cx="116.658" cy="44.976" r="1.6"/>
			
				<circle id="connector46pin" fill="none" stroke="#F7BD13" stroke-width="1.2" stroke-miterlimit="10" cx="123.859" cy="44.976" r="1.6"/>
			
				<circle id="connector45pin" fill="none" stroke="#F7BD13" stroke-width="1.2" stroke-miterlimit="10" cx="131.059" cy="44.976" r="1.6"/>
			
				<circle id="connector44pin" fill="none" stroke="#F7BD13" stroke-width="1.2" stroke-miterlimit="10" cx="138.259" cy="44.976" r="1.6"/>
			
				<circle id="connector43pin" fill="none" stroke="#F7BD13" stroke-width="1.2" stroke-miterlimit="10" cx="145.459" cy="44.976" r="1.6"/>
		</g>
		<g id="j19">
			
				<circle id="connector42pin" fill="none" stroke="#F7BD13" stroke-width="1.2" stroke-miterlimit="10" cx="51.857" cy="37.775" r="1.6"/>
			
				<circle id="connector41pin" fill="none" stroke="#F7BD13" stroke-width="1.2" stroke-miterlimit="10" cx="59.057" cy="37.775" r="1.6"/>
			
				<circle id="connector40pin" fill="none" stroke="#F7BD13" stroke-width="1.2" stroke-miterlimit="10" cx="66.257" cy="37.775" r="1.6"/>
			
				<circle id="connector39pin" fill="none" stroke="#F7BD13" stroke-width="1.2" stroke-miterlimit="10" cx="73.457" cy="37.775" r="1.6"/>
			
				<circle id="connector38pin" fill="none" stroke="#F7BD13" stroke-width="1.2" stroke-miterlimit="10" cx="80.656" cy="37.775" r="1.6"/>
			
				<circle id="connector37pin" fill="none" stroke="#F7BD13" stroke-width="1.2" stroke-miterlimit="10" cx="87.857" cy="37.775" r="1.6"/>
			
				<circle id="connector36pin" fill="none" stroke="#F7BD13" stroke-width="1.2" stroke-miterlimit="10" cx="95.058" cy="37.775" r="1.6"/>
			
				<circle id="connector35pin" fill="none" stroke="#F7BD13" stroke-width="1.2" stroke-miterlimit="10" cx="102.258" cy="37.775" r="1.6"/>
			
				<circle id="connector34pin" fill="none" stroke="#F7BD13" stroke-width="1.2" stroke-miterlimit="10" cx="109.457" cy="37.775" r="1.6"/>
			
				<circle id="connector33pin" fill="none" stroke="#F7BD13" stroke-width="1.2" stroke-miterlimit="10" cx="116.658" cy="37.775" r="1.6"/>
			
				<circle id="connector32pin" fill="none" stroke="#F7BD13" stroke-width="1.2" stroke-miterlimit="10" cx="123.859" cy="37.775" r="1.6"/>
			
				<circle id="connector31pin" fill="none" stroke="#F7BD13" stroke-width="1.2" stroke-miterlimit="10" cx="131.059" cy="37.775" r="1.6"/>
			
				<circle id="connector30pin" fill="none" stroke="#F7BD13" stroke-width="1.2" stroke-miterlimit="10" cx="138.259" cy="37.775" r="1.6"/>
			
				<circle id="connector29pin" fill="none" stroke="#F7BD13" stroke-width="1.2" stroke-miterlimit="10" cx="145.459" cy="37.775" r="1.6"/>
		</g>
		<g id="j18">
			
				<circle id="connector28pin" fill="none" stroke="#F7BD13" stroke-width="1.2" stroke-miterlimit="10" cx="51.857" cy="30.574" r="1.6"/>
			
				<circle id="connector27pin" fill="none" stroke="#F7BD13" stroke-width="1.2" stroke-miterlimit="10" cx="59.057" cy="30.574" r="1.6"/>
			
				<circle id="connector26pin" fill="none" stroke="#F7BD13" stroke-width="1.2" stroke-miterlimit="10" cx="66.257" cy="30.574" r="1.6"/>
			
				<circle id="connector25pin" fill="none" stroke="#F7BD13" stroke-width="1.2" stroke-miterlimit="10" cx="73.457" cy="30.574" r="1.6"/>
			
				<circle id="connector24pin" fill="none" stroke="#F7BD13" stroke-width="1.2" stroke-miterlimit="10" cx="80.656" cy="30.574" r="1.6"/>
			
				<circle id="connector23pin" fill="none" stroke="#F7BD13" stroke-width="1.2" stroke-miterlimit="10" cx="87.857" cy="30.574" r="1.6"/>
			
				<circle id="connector22pin" fill="none" stroke="#F7BD13" stroke-width="1.2" stroke-miterlimit="10" cx="95.058" cy="30.574" r="1.6"/>
			
				<circle id="connector21pin" fill="none" stroke="#F7BD13" stroke-width="1.2" stroke-miterlimit="10" cx="102.258" cy="30.574" r="1.6"/>
			
				<circle id="connector20pin" fill="none" stroke="#F7BD13" stroke-width="1.2" stroke-miterlimit="10" cx="109.457" cy="30.574" r="1.6"/>
			
				<circle id="connector19pin" fill="none" stroke="#F7BD13" stroke-width="1.2" stroke-miterlimit="10" cx="116.658" cy="30.574" r="1.6"/>
			
				<circle id="connector18pin" fill="none" stroke="#F7BD13" stroke-width="1.2" stroke-miterlimit="10" cx="123.859" cy="30.574" r="1.6"/>
			
				<circle id="connector17pin" fill="none" stroke="#F7BD13" stroke-width="1.2" stroke-miterlimit="10" cx="131.059" cy="30.574" r="1.6"/>
			
				<circle id="connector16pin" fill="none" stroke="#F7BD13" stroke-width="1.2" stroke-miterlimit="10" cx="138.259" cy="30.574" r="1.6"/>
			
				<circle id="connector15pin" fill="none" stroke="#F7BD13" stroke-width="1.2" stroke-miterlimit="10" cx="145.459" cy="30.574" r="1.6"/>
		</g>
		<g id="j17">
			
				<circle id="connector14pin" fill="none" stroke="#F7BD13" stroke-width="1.2" stroke-miterlimit="10" cx="51.857" cy="23.374" r="1.6"/>
			
				<circle id="connector13pin" fill="none" stroke="#F7BD13" stroke-width="1.2" stroke-miterlimit="10" cx="59.057" cy="23.374" r="1.6"/>
			
				<circle id="connector12pin" fill="none" stroke="#F7BD13" stroke-width="1.2" stroke-miterlimit="10" cx="66.257" cy="23.374" r="1.6"/>
			
				<circle id="connector11pin" fill="none" stroke="#F7BD13" stroke-width="1.2" stroke-miterlimit="10" cx="73.457" cy="23.374" r="1.6"/>
			
				<circle id="connector10pin" fill="none" stroke="#F7BD13" stroke-width="1.2" stroke-miterlimit="10" cx="80.656" cy="23.374" r="1.6"/>
			
				<circle id="connector9pin" fill="none" stroke="#F7BD13" stroke-width="1.2" stroke-miterlimit="10" cx="87.857" cy="23.374" r="1.6"/>
			
				<circle id="connector8pin" fill="none" stroke="#F7BD13" stroke-width="1.2" stroke-miterlimit="10" cx="95.058" cy="23.374" r="1.6"/>
			
				<circle id="connector7pin" fill="none" stroke="#F7BD13" stroke-width="1.2" stroke-miterlimit="10" cx="102.258" cy="23.374" r="1.6"/>
			
				<circle id="connector6pin" fill="none" stroke="#F7BD13" stroke-width="1.2" stroke-miterlimit="10" cx="109.457" cy="23.374" r="1.6"/>
			
				<circle id="connector5pin" fill="none" stroke="#F7BD13" stroke-width="1.2" stroke-miterlimit="10" cx="116.658" cy="23.374" r="1.6"/>
			
				<circle id="connector4pin" fill="none" stroke="#F7BD13" stroke-width="1.2" stroke-miterlimit="10" cx="123.859" cy="23.374" r="1.6"/>
			
				<circle id="connector3pin" fill="none" stroke="#F7BD13" stroke-width="1.2" stroke-miterlimit="10" cx="131.059" cy="23.374" r="1.6"/>
			
				<circle id="connector2pin" fill="none" stroke="#F7BD13" stroke-width="1.2" stroke-miterlimit="10" cx="138.259" cy="23.374" r="1.6"/>
			
				<circle id="connector1pin" fill="none" stroke="#F7BD13" stroke-width="1.2" stroke-miterlimit="10" cx="145.459" cy="23.374" r="1.6"/>
		</g>
		<path fill="none" stroke="#F7BD13" stroke-width="1.4" stroke-miterlimit="10" d="M38.322,9.935c0-2.125,1.727-3.852,3.85-3.852
			c2.129,0,3.853,1.726,3.853,3.852c0,2.128-1.724,3.853-3.853,3.853C40.048,13.788,38.322,12.06,38.322,9.935z"/>
		<path fill="none" stroke="#F7BD13" stroke-width="1.4" stroke-miterlimit="10" d="M38.648,72.028c0-2.125,1.727-3.854,3.85-3.854
			c2.129,0,3.852,1.727,3.852,3.854s-1.723,3.854-3.852,3.854C40.375,75.882,38.648,74.155,38.648,72.028z"/>
		<path fill="none" stroke="#F7BD13" stroke-width="1.4" stroke-miterlimit="10" d="M157.915,72.812
			c0-2.125,1.728-3.852,3.851-3.852c2.129,0,3.852,1.727,3.852,3.852c0,2.129-1.723,3.854-3.852,3.854
			C159.642,76.665,157.915,74.938,157.915,72.812z"/>
		<path fill="none" stroke="#F7BD13" stroke-width="1.4" stroke-miterlimit="10" d="M157.916,9.376c0-2.125,1.728-3.852,3.851-3.852
			c2.129,0,3.852,1.726,3.852,3.852c0,2.128-1.723,3.854-3.852,3.854C159.643,13.229,157.916,11.503,157.916,9.376z"/>
	</g>
</g>
<g id="silkscreen0">
	<rect x="1.002" y="0.554" fill="none" stroke="#FFFFFF" stroke-miterlimit="10" width="169.229" height="81.07"/>
</g>
<g id="silkscreen">
	<rect x="1.002" y="0.554" fill="none" stroke="#FFFFFF" stroke-miterlimit="10" width="169.229" height="81.07"/>
	<g>
		<g>
			<circle fill="none" stroke="#FFFFFF" stroke-width="0.1" stroke-miterlimit="10" cx="157.204" cy="23.374" r="1.6"/>
		</g>
		<g>
			<circle fill="none" stroke="#FFFFFF" stroke-width="0.1" stroke-miterlimit="10" cx="164.404" cy="23.374" r="1.6"/>
		</g>
	</g>
	<g>
		<g>
			<circle fill="none" stroke="#FFFFFF" stroke-width="0.1" stroke-miterlimit="10" cx="156.847" cy="34.171" r="1.6"/>
		</g>
		<g>
			<circle fill="none" stroke="#FFFFFF" stroke-width="0.1" stroke-miterlimit="10" cx="164.047" cy="34.171" r="1.6"/>
		</g>
	</g>
</g>
<g id="unknown" opacity="0.5">
	<rect x="48.492" y="19.854" width="100.5" height="6.75"/>
	<rect x="142.325" y="19.854" width="6.667" height="27.917"/>
	<rect x="48.492" y="34.4" width="100.5" height="6.75"/>
	<text transform="matrix(1 0 0 1 149.491 24.4375)" font-family="'OCRA'" font-size="2.15">J17</text>
	<text transform="matrix(1 0 0 1 149.491 31.4375)" font-family="'OCRA'" font-size="2.15">J18</text>
	<text transform="matrix(1 0 0 1 149.491 38.7705)" font-family="'OCRA'" font-size="2.15">J19</text>
	<text transform="matrix(1 0 0 1 149.491 45.9365)" font-family="'OCRA'" font-size="2.15">J20</text>
</g>
</svg>
