<?xml version="1.0" encoding="utf-8"?>
<!-- Generator: Adobe Illustrator 16.0.0, SVG Export Plug-In . SVG Version: 6.00 Build 0)  -->
<!DOCTYPE svg PUBLIC "-//W3C//DTD SVG 1.1//EN" "http://www.w3.org/Graphics/SVG/1.1/DTD/svg11.dtd">
<svg version="1.1" id="Layer_1" xmlns:svg="http://www.w3.org/2000/svg"
	 xmlns="http://www.w3.org/2000/svg" xmlns:xlink="http://www.w3.org/1999/xlink" x="0px" y="0px" width="71.482px"
	 height="101.357px" viewBox="0 0 71.482 101.357" enable-background="new 0 0 71.482 101.357" xml:space="preserve">
<g id="copper1">
	<rect stroke-width="0" id="connector1pad" x="56.306" y="54.331" fill="#F7BD13" width="1.983" height="0.567"/>
	<rect stroke-width="0" id="connector3pad" x="56.306" y="53.197" fill="#F7BD13" width="1.983" height="0.567"/>
	<rect stroke-width="0" id="connector5pad" x="56.306" y="52.063" fill="#F7BD13" width="1.983" height="0.566"/>
	<rect stroke-width="0" id="connector7pad" x="56.306" y="50.929" fill="#F7BD13" width="1.983" height="0.566"/>
	<rect stroke-width="0" id="connector9pad" x="56.306" y="49.796" fill="#F7BD13" width="1.983" height="0.567"/>
	<rect stroke-width="0" id="connector11pad" x="56.306" y="48.662" fill="#F7BD13" width="1.983" height="0.566"/>
	<rect stroke-width="0" id="connector13pad" x="56.306" y="47.528" fill="#F7BD13" width="1.983" height="0.566"/>
	<rect stroke-width="0" id="connector15pad" x="56.306" y="46.394" fill="#F7BD13" width="1.983" height="0.565"/>
	<rect stroke-width="0" id="connector17pad" x="56.306" y="45.26" fill="#F7BD13" width="1.983" height="0.565"/>
	<rect stroke-width="0" id="connector19pad" x="56.306" y="44.127" fill="#F7BD13" width="1.983" height="0.566"/>
	<rect stroke-width="0" id="connector21pad" x="56.306" y="42.993" fill="#F7BD13" width="1.983" height="0.566"/>
	<rect stroke-width="0" id="connector23pad" x="56.306" y="41.859" fill="#F7BD13" width="1.983" height="0.565"/>
	<rect stroke-width="0" id="connector25pad" x="56.306" y="40.724" fill="#F7BD13" width="1.983" height="0.566"/>
	<rect stroke-width="0" id="connector27pad" x="56.306" y="39.591" fill="#F7BD13" width="1.983" height="0.567"/>
	<rect stroke-width="0" id="connector29pad" x="56.306" y="38.457" fill="#F7BD13" width="1.983" height="0.567"/>
	<rect stroke-width="0" id="connector31pad" x="56.306" y="37.323" fill="#F7BD13" width="1.983" height="0.567"/>
	<rect stroke-width="0" id="connector33pad" x="56.306" y="36.189" fill="#F7BD13" width="1.983" height="0.566"/>
	<rect stroke-width="0" id="connector35pad" x="56.306" y="35.055" fill="#F7BD13" width="1.983" height="0.566"/>
	<rect stroke-width="0" id="connector37pad" x="56.306" y="33.922" fill="#F7BD13" width="1.983" height="0.567"/>
	<rect stroke-width="0" id="connector39pad" x="56.306" y="32.788" fill="#F7BD13" width="1.983" height="0.567"/>
	<rect stroke-width="0" id="connector41pad" x="56.306" y="31.654" fill="#F7BD13" width="1.983" height="0.566"/>
	<rect stroke-width="0" id="connector43pad" x="56.306" y="30.52" fill="#F7BD13" width="1.983" height="0.565"/>
	<rect stroke-width="0" id="connector45pad" x="56.306" y="29.386" fill="#F7BD13" width="1.983" height="0.565"/>
	<rect stroke-width="0" id="connector47pad" x="56.306" y="28.253" fill="#F7BD13" width="1.983" height="0.566"/>
	<rect stroke-width="0" id="connector49pad" x="56.306" y="27.119" fill="#F7BD13" width="1.983" height="0.566"/>
	<rect stroke-width="0" id="connector51pad" x="56.306" y="25.985" fill="#F7BD13" width="1.983" height="0.566"/>
	<rect stroke-width="0" id="connector53pad" x="56.306" y="24.851" fill="#F7BD13" width="1.983" height="0.565"/>
	<rect stroke-width="0" id="connector55pad" x="56.306" y="23.717" fill="#F7BD13" width="1.983" height="0.567"/>
	<rect stroke-width="0" id="connector57pad" x="56.306" y="22.583" fill="#F7BD13" width="1.983" height="0.567"/>
	<rect stroke-width="0" id="connector59pad" x="56.306" y="21.449" fill="#F7BD13" width="1.983" height="0.567"/>
	<rect stroke-width="0" id="connector61pad" x="56.306" y="20.315" fill="#F7BD13" width="1.983" height="0.566"/>
	<rect stroke-width="0" id="connector63pad" x="56.306" y="19.181" fill="#F7BD13" width="1.983" height="0.566"/>
	<rect stroke-width="0" id="connector65pad" x="56.306" y="18.048" fill="#F7BD13" width="1.983" height="0.567"/>
	<rect stroke-width="0" id="connector67pad" x="56.306" y="16.914" fill="#F7BD13" width="1.983" height="0.567"/>
	<rect stroke-width="0" id="connector69pad" x="56.306" y="15.78" fill="#F7BD13" width="1.983" height="0.566"/>
	<rect stroke-width="0" id="connector0pad" x="65.094" y="54.331" fill="#F7BD13" width="1.984" height="0.567"/>
	<rect stroke-width="0" id="connector2pad" x="65.094" y="53.197" fill="#F7BD13" width="1.984" height="0.567"/>
	<rect stroke-width="0" id="connector4pad" x="65.094" y="52.063" fill="#F7BD13" width="1.984" height="0.566"/>
	<rect stroke-width="0" id="connector6pad" x="65.094" y="50.929" fill="#F7BD13" width="1.984" height="0.566"/>
	<rect stroke-width="0" id="connector8pad" x="65.094" y="49.796" fill="#F7BD13" width="1.984" height="0.567"/>
	<rect stroke-width="0" id="connector10pad" x="65.094" y="48.662" fill="#F7BD13" width="1.984" height="0.566"/>
	<rect stroke-width="0" id="connector12pad" x="65.094" y="47.528" fill="#F7BD13" width="1.984" height="0.566"/>
	<rect stroke-width="0" id="connector14pad" x="65.094" y="46.394" fill="#F7BD13" width="1.984" height="0.565"/>
	<rect stroke-width="0" id="connector16pad" x="65.094" y="45.26" fill="#F7BD13" width="1.984" height="0.565"/>
	<rect stroke-width="0" id="connector18pad" x="65.094" y="44.127" fill="#F7BD13" width="1.984" height="0.566"/>
	<rect stroke-width="0" id="connector20pad" x="65.094" y="42.993" fill="#F7BD13" width="1.984" height="0.566"/>
	<rect stroke-width="0" id="connector22pad" x="65.094" y="41.859" fill="#F7BD13" width="1.984" height="0.565"/>
	<rect stroke-width="0" id="connector24pad" x="65.094" y="40.724" fill="#F7BD13" width="1.984" height="0.566"/>
	<rect stroke-width="0" id="connector26pad" x="65.094" y="39.591" fill="#F7BD13" width="1.984" height="0.567"/>
	<rect stroke-width="0" id="connector28pad" x="65.094" y="38.457" fill="#F7BD13" width="1.984" height="0.567"/>
	<rect stroke-width="0" id="connector30pad" x="65.094" y="37.323" fill="#F7BD13" width="1.984" height="0.567"/>
	<rect stroke-width="0" id="connector32pad" x="65.094" y="36.189" fill="#F7BD13" width="1.984" height="0.566"/>
	<rect stroke-width="0" id="connector34pad" x="65.094" y="35.055" fill="#F7BD13" width="1.984" height="0.566"/>
	<rect stroke-width="0" id="connector36pad" x="65.094" y="33.922" fill="#F7BD13" width="1.984" height="0.567"/>
	<rect stroke-width="0" id="connector38pad" x="65.094" y="32.788" fill="#F7BD13" width="1.984" height="0.567"/>
	<rect stroke-width="0" id="connector40pad" x="65.094" y="31.654" fill="#F7BD13" width="1.984" height="0.566"/>
	<rect stroke-width="0" id="connector42pad" x="65.094" y="30.52" fill="#F7BD13" width="1.984" height="0.565"/>
	<rect stroke-width="0" id="connector44pad" x="65.094" y="29.386" fill="#F7BD13" width="1.984" height="0.565"/>
	<rect stroke-width="0" id="connector46pad" x="65.094" y="28.253" fill="#F7BD13" width="1.984" height="0.566"/>
	<rect stroke-width="0" id="connector48pad" x="65.094" y="27.119" fill="#F7BD13" width="1.984" height="0.566"/>
	<rect stroke-width="0" id="connector50pad" x="65.094" y="25.985" fill="#F7BD13" width="1.984" height="0.566"/>
	<rect stroke-width="0" id="connector52pad" x="65.094" y="24.851" fill="#F7BD13" width="1.984" height="0.565"/>
	<rect stroke-width="0" id="connector54pad" x="65.094" y="23.717" fill="#F7BD13" width="1.984" height="0.567"/>
	<rect stroke-width="0" id="connector56pad" x="65.094" y="22.583" fill="#F7BD13" width="1.984" height="0.567"/>
	<rect stroke-width="0" id="connector58pad" x="65.094" y="21.449" fill="#F7BD13" width="1.984" height="0.567"/>
	<rect stroke-width="0" id="connector60pad" x="65.094" y="20.315" fill="#F7BD13" width="1.984" height="0.566"/>
	<rect stroke-width="0" id="connector62pad" x="65.094" y="19.181" fill="#F7BD13" width="1.984" height="0.566"/>
	<rect stroke-width="0" id="connector64pad" x="65.094" y="18.048" fill="#F7BD13" width="1.984" height="0.567"/>
	<rect stroke-width="0" id="connector66pad" x="65.094" y="16.914" fill="#F7BD13" width="1.984" height="0.567"/>
	<rect stroke-width="0" id="connector68pad" x="65.094" y="15.78" fill="#F7BD13" width="1.984" height="0.566"/>
	<circle id="nonconn0" cx="62.741" cy="5.887" r="2.834"/>
	<circle id="nonconn1" cx="4.347" cy="87.213" r="2.834"/>
	<g id="copper0">
		<circle id="nonconn2" cx="62.741" cy="5.887" r="2.834"/>
		<circle id="nonconn3" cx="4.347" cy="87.213" r="2.834"/>
	</g>
</g>
<g id="silkscreen">
	<line fill="none" stroke="#F0F0F0" stroke-width="0.127" stroke-linecap="round" x1="57.44" y1="58.867" x2="57.44" y2="11.811"/>
	<line fill="none" stroke="#F0F0F0" stroke-width="0.127" stroke-linecap="round" x1="57.44" y1="11.811" x2="65.944" y2="11.811"/>
	
		<line fill="none" stroke="#F0F0F0" stroke-width="0.127" stroke-linecap="round" x1="65.944" y1="11.811" x2="65.944" y2="58.867"/>
	<line fill="none" stroke="#F0F0F0" stroke-width="0.127" stroke-linecap="round" x1="65.944" y1="58.867" x2="57.44" y2="58.867"/>
	<line fill="none" stroke="#F0F0F0" stroke-width="0.127" stroke-linecap="round" x1="71.046" y1="0.274" x2="0.18" y2="0.274"/>
	<line fill="none" stroke="#F0F0F0" stroke-width="0.127" stroke-linecap="round" x1="0.18" y1="0.274" x2="0.18" y2="100.905"/>
	
		<line fill="none" stroke="#F0F0F0" stroke-width="0.127" stroke-linecap="round" x1="0.18" y1="100.905" x2="71.046" y2="100.905"/>
	
		<line fill="none" stroke="#F0F0F0" stroke-width="0.127" stroke-linecap="round" x1="71.046" y1="100.905" x2="71.046" y2="0.274"/>
	<text transform="matrix(1 0 0 1 6.2976 10.9587)" fill="#F0F0F0" font-family="'OCRA'" font-size="4.68">Intel Edison</text>
	<g transform="translate(24.586,23.0575)">
		<g transform="rotate(270)">
			<text transform="matrix(1 0 0 1 -33.4218 45.1061)" fill="#F0F0F0" font-family="'OCRA'" font-size="2.9952">1</text>
		</g>
	</g>
	<g transform="translate(24.5385,8.55)">
		<g transform="rotate(270)">
			<text transform="matrix(1 0 0 1 -6.8033 45.0189)" fill="#F0F0F0" font-family="'OCRA'" font-size="2.9952">69</text>
		</g>
	</g>
	<g transform="translate(19.741,8.65)">
		<g transform="rotate(270)">
			<text transform="matrix(1 0 0 1 -6.9875 36.2167)" fill="#F0F0F0" font-family="'OCRA'" font-size="2.9952">70</text>
		</g>
	</g>
	<g transform="translate(19.741,23.2025)">
		<g transform="rotate(270)">
			<text transform="matrix(1 0 0 1 -33.6869 36.2167)" fill="#F0F0F0" font-family="'OCRA'" font-size="2.9952">2</text>
		</g>
	</g>
	<g transform="translate(19.1835,20.38)">
		<g transform="rotate(270)">
			<text transform="matrix(1 0 0 1 -28.5084 35.1942)" fill="#F0F0F0" font-family="'OCRA'" font-size="2.2464">DF40C-70DS-0.4V(51)</text>
		</g>
	</g>
</g>
</svg>
