<?xml version='1.0' encoding='UTF-8' standalone='no'?>
<svg
  xmlns:dc="http://purl.org/dc/elements/1.1/"
  xmlns:cc="http://creativecommons.org/ns#"
  xmlns:rdf="http://www.w3.org/1999/02/22-rdf-syntax-ns#"
  xmlns:svg="http://www.w3.org/2000/svg"
  xmlns="http://www.w3.org/2000/svg"
  viewBox="0 0 1702.9069 1829.8961"
  height="46.479351mm"
  version="1.1"
  id="svg8"
  width="43.253822mm"
  gorn="0">
  <metadata
    id="metadata5767">
    <rdf:RDF>
      <cc:Work
        rdf:about="">
        <dc:title/>
        <dc:format>image/svg+xml</dc:format>
        <dc:type
          rdf:resource="http://purl.org/dc/dcmitype/StillImage"
        />
      </cc:Work>
    </rdf:RDF>
  </metadata>
  <defs
    id="defs5765">
    <defs
      id="defs2"
    />
  </defs>
  <desc
    id="desc2">
    <referenceFile>L298N-motor-driver_1_pcb.svg</referenceFile>
  </desc>
  <g
    id="silkscreen">
    <path
      d="M 5,5 V 1697.9068 H 1697.9068 V 5 Z m 118.10267,59.058962 c 32.62081,-0.0036 59.06589,26.442084 59.0615,59.062898 -0.009,32.61159 -26.44991,59.0429 -59.0615,59.03928 -32.611584,0.004 -59.052839,-26.42769 -59.06149,-59.03928 -0.0044,-32.62081 26.440684,-59.066516 59.06149,-59.062898 z m 1456.70143,0 c 32.6129,0.0076 59.0456,26.450012 59.0412,59.062898 -0.01,32.60366 -26.4375,59.0317 -59.0412,59.03928 -32.6116,0.004 -59.0528,-26.42769 -59.0615,-59.03928 0,-32.620814 26.4407,-59.066522 59.0615,-59.062898 z m 0,1456.682738 c 32.6129,0.01 59.0456,26.4501 59.0412,59.063 0,32.6113 -26.4299,59.0513 -59.0412,59.0589 -32.6192,0 -59.0637,-26.4396 -59.0615,-59.0589 0,-32.6209 26.4407,-59.0666 59.0615,-59.063 z"
      id="rect817"
      gorn="0.1.2"
      fill="none"
      stroke="#000000"
      stroke-width="10"
    />
    <circle
      r="54"
      cx="123.10418"
      id="circle994"
      cy="1579.8129"
      gorn="0.1.1057"
      fill="#000000"
      stroke="none"
      stroke-width="0"
    />
    <circle
      gorn="0.1.1057"
      cy="123.56246"
      id="circle1000"
      cx="123.10418"
      r="54"
      fill="#000000"
      stroke="none"
      stroke-width="0"
    />
    <circle
      r="54"
      cx="1580.3962"
      id="circle1002"
      cy="123.56246"
      gorn="0.1.1057"
      fill="#000000"
      stroke="none"
      stroke-width="0"
    />
    <circle
      gorn="0.1.1057"
      cy="1579.8129"
      id="circle1004"
      cx="1579.3545"
      r="54"
      fill="#000000"
      stroke="none"
      stroke-width="0"
    />
  </g>
  <g
    id="copper1">
    <g
      id="copper0">
      <circle
        transform="rotate(-90)"
        cx="-1790.8962"
        cy="940.87518"
        r="29"
        gorn="0.2.0.0"
        id="connector11pin"
        fill="none"
        stroke="#ffbf00"
        stroke-width="20"
      />
      <circle
        transform="rotate(-90)"
        cx="-1790.8962"
        cy="1040.8752"
        r="29"
        gorn="0.2.0.1"
        id="connector12pin"
        fill="none"
        stroke="#ffbf00"
        stroke-width="20"
      />
      <circle
        transform="rotate(-90)"
        cx="-1790.8962"
        cy="1140.8752"
        r="29"
        gorn="0.2.0.2"
        id="connector13pin"
        fill="none"
        stroke="#ffbf00"
        stroke-width="20"
      />
      <circle
        transform="rotate(-90)"
        cx="-1790.8962"
        cy="1240.8752"
        r="29"
        gorn="0.2.0.3"
        id="connector14pin"
        fill="none"
        stroke="#ffbf00"
        stroke-width="20"
      />
      <circle
        transform="rotate(-90)"
        cx="-1790.8962"
        cy="1340.8752"
        r="29"
        gorn="0.2.0.4"
        id="connector15pin"
        fill="none"
        stroke="#ffbf00"
        stroke-width="20"
      />
      <circle
        transform="rotate(-90)"
        cx="-1790.8962"
        cy="1440.8752"
        r="29"
        gorn="0.2.0.5"
        id="connector16pin"
        fill="none"
        stroke="#ffbf00"
        stroke-width="20"
      />
    </g>
  </g>
</svg>
