<svg id="0" width=".42in" height=".72in" version="1.2" viewBox="0 0 420 720" xmlns="http://www.w3.org/2000/svg">
 <desc id="0.0">
  <referenceFile id="0.0.0">svg.pcb.LM124-324_Quad_Opamp.svg</referenceFile>
 </desc>
 <desc id="0.1" oldid="desc3859">Fritzing footprint SVG</desc>
 <metadata id="0.2" oldid="metadata3948">
  <rdf:RDF id="0.2.0" xmlns:rdf="http://www.w3.org/1999/02/22-rdf-syntax-ns#">
   <cc:Work id="0.2.0.0" rdf:about="" xmlns:cc="http://creativecommons.org/ns#" xmlns:rdf="http://www.w3.org/1999/02/22-rdf-syntax-ns#">
    <dc:format id="0.2.0.0.0" xmlns:dc="http://purl.org/dc/elements/1.1/">image/svg+xml</dc:format>
    <dc:type id="0.2.0.0.1" rdf:resource="http://purl.org/dc/dcmitype/StillImage" xmlns:dc="http://purl.org/dc/elements/1.1/" xmlns:rdf="http://www.w3.org/1999/02/22-rdf-syntax-ns#"/>
    <dc:title id="0.2.0.0.2" xmlns:dc="http://purl.org/dc/elements/1.1/"/>
   </cc:Work>
  </rdf:RDF>
 </metadata>
 <g id="silkscreen" stroke="#fff" stroke-width="10">
  <line id="line1638" x1="10" x2="10" y1="10" y2="710"/>
  <line id="line1639" x1="10" x2="410" y1="710" y2="710"/>
  <line id="line1640" x1="410" x2="410" y1="710" y2="10"/>
  <line id="line1641" x1="10" x2="160" y1="10" y2="10"/>
  <line id="line1642" x1="260" x2="410" y1="10" y2="10"/>
 </g>
 <g id="copper0">
  <g id="copper1">
   <g fill="none" stroke="#ffbf00" stroke-width="20">
    <circle id="connector0pin" cx="60" cy="60" r="27.5"/>
    <rect id="rect-pin0" x="32.5" y="32.5" width="55" height="55"/>
    <circle id="connector1pin" cx="60" cy="160" r="27.5"/>
    <circle id="connector2pin" cx="60" cy="260" r="27.5"/>
    <circle id="connector3pin" cx="60" cy="360" r="27.5"/>
    <circle id="connector4pin" cx="60" cy="460" r="27.5"/>
    <circle id="connector5pin" cx="60" cy="560" r="27.5"/>
    <circle id="connector6pin" cx="60" cy="660" r="27.5"/>
    <circle id="connector7pin" cx="360" cy="660" r="27.5"/>
   </g>
   <g id="0.5.0.9" transform="translate(0,100)">
    <circle id="connector8pin" cx="360" cy="460" r="27.5" fill="none" stroke="#ffbf00" stroke-width="20"/>
   </g>
   <g fill="none" stroke="#ffbf00" stroke-width="20">
    <circle id="connector9pin" cx="360" cy="460" r="27.5"/>
    <circle id="connector10pin" cx="360" cy="360" r="27.5"/>
    <circle id="connector11pin" cx="360" cy="260" r="27.5"/>
    <circle id="connector12pin" cx="360" cy="160" r="27.5"/>
    <circle id="connector13pin" cx="360" cy="60" r="27.5"/>
   </g>
  </g>
 </g>
</svg>
