<?xml version='1.0' encoding='UTF-8' standalone='no'?>
<!-- Created with Inkscape (http://www.inkscape.org/) -->
<svg xmlns="http://www.w3.org/2000/svg" width="117" version="1.1" gorn="0"  height="54" id="svg3987">
    <desc >
        <referenceFile >lsm9ds0-breakout-pcb.svg</referenceFile>
    </desc>
    <defs  id="defs3989"/>
    <metadata  id="metadata3992">
        <rdf:RDF xmlns:rdf="http://www.w3.org/1999/02/22-rdf-syntax-ns#">
            <cc:Work xmlns:rdf="http://www.w3.org/1999/02/22-rdf-syntax-ns#" xmlns:cc="http://creativecommons.org/ns#" rdf:about="">
                <dc:format xmlns:dc="http://purl.org/dc/elements/1.1/">image/svg+xml</dc:format>
                <dc:type xmlns:rdf="http://www.w3.org/1999/02/22-rdf-syntax-ns#" rdf:resource="http://purl.org/dc/dcmitype/StillImage" xmlns:dc="http://purl.org/dc/elements/1.1/"/>
                <dc:title xmlns:dc="http://purl.org/dc/elements/1.1/"/>
            </cc:Work>
        </rdf:RDF>
    </metadata>
    <g gorn="0.3"  id="layer4">
        <g  transform="translate(0,-998.35975)">
            <g >
                <g gorn="0.3.0.0.0"  id="g34344">
                    <g gorn="0.3.0.0.0.0"  id="g35256">
                        <g gorn="0.3.0.0.0.0.0"  id="copper0">
                            <g gorn="0.3.0.0.0.0.0.0"  id="g35286">
                                <g  transform="matrix(1.25,0,0,1.25,-9.0000002,998.35975)">
                                    <g >
                                        <circle fill="none" cx="10.8" gorn="0.3.0.0.0.0.0.0.0.0.0"  cy="39.599998" connectorname="VCC" stroke="#f7bd13" r="2.052" id="connector6pad" stroke-width="1.22399998" d="m 12.852,39.599998 c 0,1.133289 -0.918711,2.052001 -2.052,2.052001 -1.1332881,0 -2.0519999,-0.918712 -2.0519999,-2.052001 0,-1.133288 0.9187118,-2.052 2.0519999,-2.052 1.133289,0 2.052,0.918712 2.052,2.052 z"/>
                                    </g>
                                </g>
                                <g  transform="matrix(1.25,0,0,1.25,-9.0000002,998.35975)">
                                    <g >
                                        <circle fill="none" cx="18" gorn="0.3.0.0.0.0.0.0.1.0.0"  cy="39.599998" connectorname="CS" stroke="#f7bd13" r="2.052" id="connector7pad" stroke-width="1.22399998" d="m 20.052,39.599998 c 0,1.133289 -0.918712,2.052001 -2.052,2.052001 -1.133288,0 -2.052,-0.918712 -2.052,-2.052001 0,-1.133288 0.918712,-2.052 2.052,-2.052 1.133288,0 2.052,0.918712 2.052,2.052 z"/>
                                    </g>
                                </g>
                                <g  transform="matrix(1.25,0,0,1.25,-9.0000002,998.35975)">
                                    <g >
                                        <circle fill="none" cx="25.200001" gorn="0.3.0.0.0.0.0.0.2.0.0"  cy="39.599998" connectorname="INT1" stroke="#f7bd13" r="2.052" id="connector8pad" stroke-width="1.22399998" d="m 27.252001,39.599998 c 0,1.133289 -0.918712,2.052001 -2.052,2.052001 -1.133289,0 -2.052,-0.918712 -2.052,-2.052001 0,-1.133288 0.918711,-2.052 2.052,-2.052 1.133288,0 2.052,0.918712 2.052,2.052 z"/>
                                    </g>
                                </g>
                                <g  transform="matrix(1.25,0,0,1.25,-9.0000002,998.35975)">
                                    <g >
                                        <circle fill="none" cx="32.400002" gorn="0.3.0.0.0.0.0.0.3.0.0"  cy="39.599998" connectorname="INT2" stroke="#f7bd13" r="2.052" id="connector9pad" stroke-width="1.22399998" d="m 34.452002,39.599998 c 0,1.133289 -0.918712,2.052001 -2.052,2.052001 -1.133289,0 -2.052001,-0.918712 -2.052001,-2.052001 0,-1.133288 0.918712,-2.052 2.052001,-2.052 1.133288,0 2.052,0.918712 2.052,2.052 z"/>
                                    </g>
                                </g>
                                <g  transform="matrix(1.25,0,0,1.25,-9.0000002,998.35975)">
                                    <g >
                                        <circle fill="none" cx="39.599998" gorn="0.3.0.0.0.0.0.0.4.0.0"  cy="39.599998" connectorname="SDO" stroke="#f7bd13" r="2.052" id="connector10pad" stroke-width="1.22399998" d="m 41.651999,39.599998 c 0,1.133289 -0.918712,2.052001 -2.052001,2.052001 -1.133288,0 -2.052,-0.918712 -2.052,-2.052001 0,-1.133288 0.918712,-2.052 2.052,-2.052 1.133289,0 2.052001,0.918712 2.052001,2.052 z"/>
                                    </g>
                                </g>
                                <g  transform="matrix(1.25,0,0,1.25,-9.0000002,998.35975)">
                                    <g >
                                        <circle fill="none" cx="46.799999" gorn="0.3.0.0.0.0.0.0.5.0.0"  cy="39.599998" connectorname="SDA" stroke="#f7bd13" r="2.052" id="connector11pad" stroke-width="1.22399998" d="m 48.851999,39.599998 c 0,1.133289 -0.918711,2.052001 -2.052,2.052001 -1.133288,0 -2.052,-0.918712 -2.052,-2.052001 0,-1.133288 0.918712,-2.052 2.052,-2.052 1.133289,0 2.052,0.918712 2.052,2.052 z"/>
                                    </g>
                                </g>
                                <g  transform="matrix(1.25,0,0,1.25,-9.0000002,998.35975)">
                                    <g >
                                        <circle fill="none" cx="54" gorn="0.3.0.0.0.0.0.0.6.0.0"  cy="39.599998" connectorname="SCL" stroke="#f7bd13" r="2.052" id="connector12pad" stroke-width="1.22399998" d="m 56.052,39.599998 c 0,1.133289 -0.918712,2.052001 -2.052,2.052001 -1.133288,0 -2.052,-0.918712 -2.052,-2.052001 0,-1.133288 0.918712,-2.052 2.052,-2.052 1.133288,0 2.052,0.918712 2.052,2.052 z"/>
                                    </g>
                                </g>
                                <g  transform="matrix(1.25,0,0,1.25,54,998.35975)">
                                    <g >
                                        <circle fill="none" cx="10.8" gorn="0.3.0.0.0.0.0.0.7.0.0"  cy="39.599998" connectorname="VCC" stroke="#f7bd13" r="2.052" id="connector13pad" stroke-width="1.22399998" d="m 12.852,39.599998 c 0,1.133289 -0.918711,2.052001 -2.052,2.052001 -1.1332881,0 -2.0519999,-0.918712 -2.0519999,-2.052001 0,-1.133288 0.9187118,-2.052 2.0519999,-2.052 1.133289,0 2.052,0.918712 2.052,2.052 z"/>
                                    </g>
                                </g>
                                <g  transform="matrix(1.25,0,0,1.25,54,998.35975)">
                                    <g >
                                        <circle fill="none" cx="18" gorn="0.3.0.0.0.0.0.0.8.0.0"  cy="39.599998" connectorname="CS" stroke="#f7bd13" r="2.052" id="connector14pin" stroke-width="1.22399998" d="m 20.052,39.599998 c 0,1.133289 -0.918712,2.052001 -2.052,2.052001 -1.133288,0 -2.052,-0.918712 -2.052,-2.052001 0,-1.133288 0.918712,-2.052 2.052,-2.052 1.133288,0 2.052,0.918712 2.052,2.052 z"/>
                                    </g>
                                </g>
                                <g  transform="matrix(1.25,0,0,1.25,53.999999,998.35975)">
                                    <g >
                                        <circle fill="none" cx="25.200001" gorn="0.3.0.0.0.0.0.0.9.0.0"  cy="39.599998" connectorname="INT1" stroke="#f7bd13" r="2.052" id="connector15pin" stroke-width="1.22399998" d="m 27.252001,39.599998 c 0,1.133289 -0.918712,2.052001 -2.052,2.052001 -1.133289,0 -2.052,-0.918712 -2.052,-2.052001 0,-1.133288 0.918711,-2.052 2.052,-2.052 1.133288,0 2.052,0.918712 2.052,2.052 z"/>
                                    </g>
                                </g>
                                <g  transform="matrix(1.25,0,0,1.25,53.999998,998.35975)">
                                    <g >
                                        <circle fill="none" cx="32.400002" gorn="0.3.0.0.0.0.0.0.10.0.0"  cy="39.599998" connectorname="INT2" stroke="#f7bd13" r="2.052" id="connector16pin" stroke-width="1.22399998" d="m 34.452002,39.599998 c 0,1.133289 -0.918712,2.052001 -2.052,2.052001 -1.133289,0 -2.052001,-0.918712 -2.052001,-2.052001 0,-1.133288 0.918712,-2.052 2.052001,-2.052 1.133288,0 2.052,0.918712 2.052,2.052 z"/>
                                    </g>
                                </g>
                                <g  transform="matrix(1.25,0,0,1.25,54.000002,998.35975)">
                                    <g >
                                        <circle fill="none" cx="39.599998" gorn="0.3.0.0.0.0.0.0.11.0.0"  cy="39.599998" connectorname="SDO" stroke="#f7bd13" r="2.052" id="connector17pin" stroke-width="1.22399998" d="m 41.651999,39.599998 c 0,1.133289 -0.918712,2.052001 -2.052001,2.052001 -1.133288,0 -2.052,-0.918712 -2.052,-2.052001 0,-1.133288 0.918712,-2.052 2.052,-2.052 1.133289,0 2.052001,0.918712 2.052001,2.052 z"/>
                                    </g>
                                </g>
                                <g  transform="matrix(1.25,0,0,1.25,54.000001,998.35975)">
                                    <g >
                                        <circle fill="none" cx="46.799999" gorn="0.3.0.0.0.0.0.0.12.0.0"  cy="39.599998" connectorname="SDA" stroke="#f7bd13" r="2.052" id="connector18pin" stroke-width="1.22399998" d="m 48.851999,39.599998 c 0,1.133289 -0.918711,2.052001 -2.052,2.052001 -1.133288,0 -2.052,-0.918712 -2.052,-2.052001 0,-1.133288 0.918712,-2.052 2.052,-2.052 1.133289,0 2.052,0.918712 2.052,2.052 z"/>
                                    </g>
                                </g>
                            </g>
                        </g>
                    </g>
                </g>
            </g>
        </g>
    </g>
    <g gorn="0.4"  id="layer3"/>
    <g  transform="translate(0,-998.35975)">
        <g >
            <g gorn="0.5.0.0"  id="layer1">
                <path class="l21" fill="none" gorn="0.5.0.0.0"  stroke="#ffffff" style="stroke-linecap:round" id="path13" stroke-width="0.54000002" d="m 114.12015,1043.359 0,-1.0209 m 0,0.5104 -3.06261,0 m 0,0.5105 0,-1.0209 m 3.06261,-1.189 -3.06261,0 m 0,0 3.06261,-2.0418 m 0,0 -3.06261,0 m 3.06261,-2.2939 -3.06261,0 m 0,1.0209 0,-2.0418 m 3.06261,-3.3148 0,2.0417 m 0,0 -2.04174,-2.0417 m 0,0 -0.51043,0 m 0,0 -0.51044,0.5104 m 0,0 0,1.0209 m 0,0 0.51044,0.5104 m -0.51044,-3.3148 3.06261,-2.0417 m -3.06261,0 3.06261,2.0417 m 0,-3.3148 -3.06261,0 m 0,0 1.02087,-1.0209 m 0,0 -1.02087,-1.0209 m 0,0 3.06261,0"/>
                <path class="l21" fill="none" gorn="0.5.0.0.1"  stroke="#ffffff" style="stroke-linecap:round" id="path15" stroke-width="0.54000002" d="m 105.12015,1043.359 0,-1.0209 m 0,0.5104 -3.06261,0 m 0,0.5105 0,-1.0209 m 3.06261,-1.189 -3.06261,0 m 0,0 3.06261,-2.0418 m 0,0 -3.06261,0 m 3.06261,-2.2939 -3.06261,0 m 0,1.0209 0,-2.0418 m 1.02087,-1.2731 -1.02087,-1.0208 m 0,0 3.06261,0 m 0,1.0208 0,-2.0417 m -3.06261,-1.2731 3.06261,-2.0417 m -3.06261,0 3.06261,2.0417 m 0,-3.3148 -3.06261,0 m 0,0 1.02087,-1.0209 m 0,0 -1.02087,-1.0209 m 0,0 3.06261,0"/>
                <path class="l21" fill="none" gorn="0.5.0.0.2"  stroke="#ffffff" style="stroke-linecap:round" id="path17" stroke-width="0.54000002" d="m 93.057544,1043.359 3.062612,0 m 0,0 0,-1.5313 m 0,0 -0.510435,-0.5105 m 0,0 -2.041742,0 m 0,0 -0.510435,0.5105 m 0,0 0,1.5313 m 3.062612,-3.3149 -3.062612,0 m 0,0 0,-1.5313 m 0,0 0.510435,-0.5104 m 0,0 1.020869,0 m 0,0 0.510438,0.5104 m 0,0 0,1.5313 m 0,-1.0208 1.02087,-1.0209 m -3.062612,-1.2731 3.062612,0 m 0,0 0,-1.5313 m 0,0 -0.510435,-0.5104 m 0,0 -2.041742,0 m 0,0 -0.510435,0.5104 m 0,0 0,1.5313 m 0,-3.3148 0.510435,0 m 0,0 1.020869,-1.0209 m 0,0 -1.020869,-1.0209 m 0,0 -0.510435,0 m 1.531304,1.0209 1.531308,0 m -2.552177,-4.3357 -0.510435,0.5104 m 0,0 0,1.0209 m 0,0 0.510435,0.5104 m 0,0 2.041742,0 m 0,0 0.510435,-0.5104 m 0,0 0,-1.0209 m 0,0 -0.510435,-0.5104 m 0,0 -1.020873,0 m 0,0 0,1.0209"/>
                <path class="l21" fill="none" gorn="0.5.0.0.3"  stroke="#ffffff" style="stroke-linecap:round" id="path19" stroke-width="0.54000002" d="m 87.120156,1043.359 0,-1.0209 m 0,0.5104 -3.062611,0 m 0,0.5105 0,-1.0209 m 3.062611,-1.189 -3.062611,0 m 0,0 3.062611,-2.0418 m 0,0 -3.062611,0 m 3.062611,-2.2939 -3.062611,0 m 0,1.0209 0,-2.0418 m 0.510434,-3.3148 -0.510434,0.5104 m 0,0 0,1.0209 m 0,0 0.510434,0.5104 m 0,0 2.041742,0 m 0,0 0.510435,-0.5104 m 0,0 0,-1.0209 m 0,0 -0.510435,-0.5104 m 0,0 -1.020873,0 m 0,0 0,1.0209"/>
                <path class="l21" fill="none" gorn="0.5.0.0.4"  stroke="#ffffff" style="stroke-linecap:round" id="path21" stroke-width="0.54000002" d="m 75.057545,1043.359 3.062611,0 m 0,0 0,-1.5313 m 0,0 -0.510435,-0.5105 m 0,0 -2.041742,0 m 0,0 -0.510434,0.5105 m 0,0 0,1.5313 m 0,-5.3566 0,2.0417 m 0,0 3.062611,0 m 0,0 0,-2.0417 m -1.531307,2.0417 0,-1.0208 m 1.531307,-2.294 -3.062611,0 m 0,0 3.062611,-2.0417 m 0,0 -3.062611,0 m 0.510434,-3.3149 -0.510434,0.5105 m 0,0 0,1.0208 m 0,0 0.510434,0.5105 m 0,0 2.041742,0 m 0,0 0.510435,-0.5105 m 0,0 0,-1.0208 m 0,0 -0.510435,-0.5105 m 0,0 -1.020872,0 m 0,0 0,1.0209"/>
                <path class="l21" fill="none" gorn="0.5.0.0.5"  stroke="#ffffff" style="stroke-linecap:round" id="path23" stroke-width="0.54000002" d="m 57.057542,1043.359 2.041745,0 m 0,0 1.02087,-1.0209 m 0,0 -1.02087,-1.0209 m 0,0 -2.041745,0 m 0,-1.2731 3.062615,0 m 0,0 0,-1.5313 m 0,0 -0.510435,-0.5104 m 0,0 -2.041742,0 m 0,0 -0.510438,0.5104 m 0,0 0,1.5313 m 0,-3.3148 3.062615,0 m 0,0 0,-1.5313 m 0,0 -0.510435,-0.5104 m 0,0 -2.041742,0 m 0,0 -0.510438,0.5104 m 0,0 0,1.5313"/>
                <path class="l21" fill="none" gorn="0.5.0.0.6"  stroke="#ffffff" style="stroke-linecap:round" id="path25" stroke-width="0.54000002" d="m 66.56798,1041.3172 -0.510435,0.5105 m 0,0 0,1.0208 m 0,0 0.510435,0.5105 m 0,0 2.041742,0 m 0,0 0.510434,-0.5105 m 0,0 0,-1.0208 m 0,0 -0.510434,-0.5105 m 0,0 -1.020873,0 m 0,0 0,1.0209 m 1.531307,-2.294 -3.062611,0 m 0,0 3.062611,-2.0417 m 0,0 -3.062611,0 m 0,-1.2731 3.062611,0 m 0,0 0,-1.5313 m 0,0 -0.510434,-0.5104 m 0,0 -2.041742,0 m 0,0 -0.510435,0.5104 m 0,0 0,1.5313"/>
                <path class="l21" fill="none" gorn="0.5.0.0.7"  stroke="#ffffff" style="stroke-linecap:round" id="path27" stroke-width="0.54000002" d="m 48.56798,1041.3172 -0.510435,0.5105 m 0,0 0,1.0208 m 0,0 0.510435,0.5105 m 0,0 0.510435,0 m 0,0 0.510434,-0.5105 m 0,0 0,-1.0208 m 0,0 0.510439,-0.5105 m 0,0 0.510434,0 m 0,0 0.510435,0.5105 m 0,0 0,1.0208 m 0,0 -0.510435,0.5105 m -2.552177,-3.3149 3.062612,0 m 0,0 0,-1.5313 m 0,0 -0.510435,-0.5104 m 0,0 -2.041742,0 m 0,0 -0.510435,0.5104 m 0,0 0,1.5313 m 3.062612,-3.3148 -2.041742,0 m 0,0 -1.02087,-1.0209 m 0,0 1.02087,-1.0208 m 0,0 2.041742,0 m -1.531308,2.0417 0,-2.0417"/>
                <path class="l21" fill="none" gorn="0.5.0.0.8"  stroke="#ffffff" style="stroke-linecap:round" id="path29" stroke-width="0.54000002" d="m 39.56798,1041.3172 -0.510434,0.5105 m 0,0 0,1.0208 m 0,0 0.510434,0.5105 m 0,0 0.510435,0 m 0,0 0.510435,-0.5105 m 0,0 0,-1.0208 m 0,0 0.510438,-0.5105 m 0,0 0.510434,0 m 0,0 0.510435,0.5105 m 0,0 0,1.0208 m 0,0 -0.510435,0.5105 m -2.041742,-5.3566 -0.510434,0.5104 m 0,0 0,1.0209 m 0,0 0.510434,0.5104 m 0,0 2.041742,0 m 0,0 0.510435,-0.5104 m 0,0 0,-1.0209 m 0,0 -0.510435,-0.5104 m -2.552176,-1.2731 3.062611,0 m 0,0 0,-2.0417"/>
                <path class="l21" fill="none" gorn="0.5.0.0.9"  stroke="#ffffff" style="stroke-linecap:round" id="path31" stroke-width="0.54000002" d="m 30.567981,1041.3172 -0.510435,0.5105 m 0,0 0,1.0208 m 0,0 0.510435,0.5105 m 0,0 0.510434,0 m 0,0 0.510435,-0.5105 m 0,0 0,-1.0208 m 0,0 0.510438,-0.5105 m 0,0 0.510435,0 m 0,0 0.510434,0.5105 m 0,0 0,1.0208 m 0,0 -0.510434,0.5105 m -2.552177,-3.3149 3.062611,0 m 0,0 0,-1.5313 m 0,0 -0.510434,-0.5104 m 0,0 -2.041742,0 m 0,0 -0.510435,0.5104 m 0,0 0,1.5313 m 0,-4.8461 0,1.0209 m 0,0 0.510435,0.5104 m 0,0 2.041742,0 m 0,0 0.510434,-0.5104 m 0,0 0,-1.0209 m 0,0 -0.510434,-0.5104 m 0,0 -2.041742,0 m 0,0 -0.510435,0.5104 m 0,-1.7835 3.062611,-2.0418 m -3.062611,0 3.062611,2.0418 m 0,-3.3149 -3.062611,0 m 0,0 1.020869,-1.0208 m 0,0 -1.020869,-1.0209 m 0,0 3.062611,0"/>
                <path class="l21" fill="none" gorn="0.5.0.0.10"  stroke="#ffffff" style="stroke-linecap:round" id="path33" stroke-width="0.54000002" d="m 21.567981,1041.3172 -0.510435,0.5105 m 0,0 0,1.0208 m 0,0 0.510435,0.5105 m 0,0 0.510434,0 m 0,0 0.510435,-0.5105 m 0,0 0,-1.0208 m 0,0 0.510438,-0.5105 m 0,0 0.510435,0 m 0,0 0.510434,0.5105 m 0,0 0,1.0208 m 0,0 -0.510434,0.5105 m -2.552177,-3.3149 3.062611,0 m 0,0 0,-1.5313 m 0,0 -0.510434,-0.5104 m 0,0 -2.041742,0 m 0,0 -0.510435,0.5104 m 0,0 0,1.5313 m 0,-4.8461 0,1.0209 m 0,0 0.510435,0.5104 m 0,0 2.041742,0 m 0,0 0.510434,-0.5104 m 0,0 0,-1.0209 m 0,0 -0.510434,-0.5104 m 0,0 -2.041742,0 m 0,0 -0.510435,0.5104 m 0.510435,-3.8253 -0.510435,0.5105 m 0,0 0,1.0208 m 0,0 0.510435,0.5105 m 0,0 2.041742,0 m 0,0 0.510434,-0.5105 m 0,0 0,-1.0208 m 0,0 -0.510434,-0.5105 m 0,0 -1.020873,0 m 0,0 0,1.0209"/>
                <path class="l21" fill="none" gorn="0.5.0.0.11"  stroke="#ffffff" style="stroke-linecap:round" id="path35" stroke-width="0.54000002" d="m 12.567981,1041.3172 -0.510435,0.5105 m 0,0 0,1.0208 m 0,0 0.510435,0.5105 m 0,0 2.041742,0 m 0,0 0.510435,-0.5105 m 0,0 0,-1.0208 m 0,0 -0.510435,-0.5105 m -2.041742,-3.3148 -0.510435,0.5104 m 0,0 0,1.0209 m 0,0 0.510435,0.5104 m 0,0 0.510435,0 m 0,0 0.510434,-0.5104 m 0,0 0,-1.0209 m 0,0 0.510438,-0.5104 m 0,0 0.510435,0 m 0,0 0.510435,0.5104 m 0,0 0,1.0209 m 0,0 -0.510435,0.5104 m -2.552177,-3.3148 3.062612,-2.0417 m -3.062612,0 3.062612,2.0417 m 0,-3.3148 -3.062612,0 m 0,0 1.02087,-1.0209 m 0,0 -1.02087,-1.0209 m 0,0 3.062612,0"/>
                <path class="l21" fill="none" gorn="0.5.0.0.12"  stroke="#ffffff" style="stroke-linecap:round" id="path37" stroke-width="0.54000002" d="m 3.567981,1041.3172 -0.510438,0.5105 m 0,0 0,1.0208 m 0,0 0.510438,0.5105 m 0,0 2.041742,0 m 0,0 0.510435,-0.5105 m 0,0 0,-1.0208 m 0,0 -0.510435,-0.5105 m -2.041742,-3.3148 -0.510438,0.5104 m 0,0 0,1.0209 m 0,0 0.510438,0.5104 m 0,0 0.510435,0 m 0,0 0.510434,-0.5104 m 0,0 0,-1.0209 m 0,0 0.510435,-0.5104 m 0,0 0.510438,0 m 0,0 0.510435,0.5104 m 0,0 0,1.0209 m 0,0 -0.510435,0.5104 m -2.041742,-5.3565 -0.510438,0.5104 m 0,0 0,1.0209 m 0,0 0.510438,0.5104 m 0,0 2.041742,0 m 0,0 0.510435,-0.5104 m 0,0 0,-1.0209 m 0,0 -0.510435,-0.5104 m 0,0 -1.020873,0 m 0,0 0,1.0208"/>
                <path class="l21" fill="none" gorn="0.5.0.0.13"  stroke="#ffffff" style="stroke-linecap:round" id="path39" stroke-width="0.54000002" d="m 84.960156,1010.1464 2.041742,3.0626 m 0,-3.0626 -2.041742,3.0626"/>
                <path class="l21" fill="none" gorn="0.5.0.0.14"  stroke="#ffffff" style="stroke-linecap:round" id="path41" stroke-width="0.54000002" d="m 98.010156,1023.1963 0,0.5105 m 0,0 1.020872,1.0209 m 0,0 1.020872,-1.0209 m 0,0 0,-0.5105 m -1.020872,1.5314 0,1.5313"/>
                <path class="l21" fill="none" gorn="0.5.0.0.15"  stroke="#ffffff" style="stroke-linecap:round" id="path43" stroke-width="0.54000002" d="m 85.245325,1019.1464 2.041742,0 m 0,0 0,0.5104 m 0,0 -2.041742,2.0417 m 0,0 0,0.5105 m 0,0 2.041742,0"/>
                <path class="l21" fill="none" gorn="0.5.0.0.16"  stroke="#ffffff" style="stroke-linecap:round" id="path45" stroke-width="0.54000002" d="m 25.159353,1000.2463 0,3.0627 m 0,0 2.041742,0 m 3.314831,-2.5522 -0.510435,-0.5105 m 0,0 -1.020873,0 m 0,0 -0.510434,0.5105 m 0,0 0,0.5104 m 0,0 0.510434,0.5105 m 0,0 1.020873,0 m 0,0 0.510435,0.5104 m 0,0 0,0.5104 m 0,0 -0.510435,0.5105 m 0,0 -1.020873,0 m 0,0 -0.510434,-0.5105 m 3.314831,0.5105 0,-3.0627 m 0,0 1.020869,1.0209 m 0,0 1.020873,-1.0209 m 0,0 0,3.0627 m 1.273089,-0.5105 0.510434,0.5105 m 0,0 1.02087,0 m 0,0 0.510438,-0.5105 m 0,0 0,-2.0417 m 0,0 -0.510438,-0.5105 m 0,0 -1.02087,0 m 0,0 -0.510434,0.5105 m 0,0 0,0.5104 m 0,0 0.510434,0.5105 m 0,0 1.531308,0 m 1.273085,-1.5314 0,3.0627 m 0,0 1.531308,0 m 0,0 0.510434,-0.5105 m 0,0 0,-2.0417 m 0,0 -0.510434,-0.5105 m 0,0 -1.531308,0 m 5.356573,0.5105 -0.510434,-0.5105 m 0,0 -1.020873,0 m 0,0 -0.510435,0.5105 m 0,0 0,0.5104 m 0,0 0.510435,0.5105 m 0,0 1.020873,0 m 0,0 0.510434,0.5104 m 0,0 0,0.5104 m 0,0 -0.510434,0.5105 m 0,0 -1.020873,0 m 0,0 -0.510435,-0.5105 m 3.314831,0 0,-2.0417 m 0,0 0.510435,-0.5105 m 0,0 1.020873,0 m 0,0 0.510434,0.5105 m 0,0 0,2.0417 m 0,0 -0.510434,0.5105 m 0,0 -1.020873,0 m 0,0 -0.510435,-0.5105 m 0,0 2.041742,-2.0417 m 4.587917,2.0417 0.510438,0.5105 m 0,0 1.020869,0 m 0,0 0.510435,-0.5105 m 0,0 0,-2.0417 m 0,0 -0.510435,-0.5105 m 0,0 -1.020869,0 m 0,0 -0.510438,0.5105 m 0,0 0,0.5104 m 0,0 0.510438,0.5105 m 0,0 1.531304,0 m 1.273089,-1.5314 0,3.0627 m 0,0 1.531307,0 m 0,0 0.510435,-0.5105 m 0,0 0,-2.0417 m 0,0 -0.510435,-0.5105 m 0,0 -1.531307,0 m 4.846138,0 -1.020873,0 m 0,0 -0.510434,0.5105 m 0,0 0,2.0417 m 0,0 0.510434,0.5105 m 0,0 1.020873,0 m 0,0 0.510435,-0.5105 m 0,0 0,-2.0417 m 0,0 -0.510435,-0.5105 m 1.783524,3.0627 0,-3.0627 m 0,0 2.041742,0 m -2.041742,1.5314 1.020869,0 m 5.608789,1.5313 0,-3.0627 m 0,0 1.531308,0 m 0,0 0.510434,0.5105 m 0,0 0,0.5104 m 0,0 -0.510434,0.5105 m 0,0 0.510434,0.5104 m 0,0 0,0.5104 m 0,0 -0.510434,0.5105 m 0,0 -1.531308,0 m 0,-1.5313 1.531308,0 m 1.783523,1.5313 0,-2.0418 m 0,1.0209 1.02087,-1.0209 m 0,0 0.510438,0 m 2.762351,2.0418 -1.020872,0 m 0,0 -0.510435,-0.5105 m 0,0 0,-1.0208 m 0,0 0.510435,-0.5105 m 0,0 1.020872,0 m 0,0 0.510435,0.5105 m 0,0 0,0.5104 m 0,0 -2.041742,0 m 3.825266,-1.0209 1.020869,0 m 0,0 0.510438,0.5105 m 0,0 0,1.5313 m 0,0 -1.531307,0 m 0,0 -0.510435,-0.5105 m 0,0 0.510435,-0.5104 m 0,0 1.531307,0 m 1.273085,1.0209 0,-3.0627 m 1.531308,3.0627 -1.531308,-1.0209 m 0,0 1.531308,-1.0209 m 1.741479,2.0418 1.020872,0 m 0,0 0.510435,-0.5105 m 0,0 0,-1.0208 m 0,0 -0.510435,-0.5105 m 0,0 -1.020872,0 m 0,0 -0.510435,0.5105 m 0,0 0,1.0208 m 0,0 0.510435,0.5105 m 2.804396,-2.0418 0,1.5313 m 0,0 0.510435,0.5105 m 0,0 1.531307,0 m 0,0 0,-2.0418 m 1.783524,-0.5104 0,2.0417 m 0,0 0.510434,0.5105 m -1.020869,-2.0418 1.020869,0"/>
                <g  transform="matrix(3.543307,0,0,3.543307,0.09015796,1052.179)">
                    <g >
                        <circle class="l21" fill="none" cx="25.781" gorn="0.5.0.0.17.0.0"  cy="-8.8900003" stroke="#ffffff" r="0.063500002" id="circle47" stroke-width="0.1778" d="m 25.8445,-8.8900003 c 0,0.03507 -0.02843,0.0635 -0.0635,0.0635 -0.03507,0 -0.0635,-0.02843 -0.0635,-0.0635 0,-0.03507 0.02843,-0.0635 0.0635,-0.0635 0.03507,0 0.0635,0.02843 0.0635,0.0635 z"/>
                    </g>
                </g>
                <path class="l21" fill="none" gorn="0.5.0.0.18"  stroke="#ffffff" style="stroke-linecap:round" id="path49" stroke-width="0.90000004" d="m 91.440156,1017.979 a 2.6999999,2.6999999 0 1 0 2.7,2.7"/>
                <line class="l21" fill="none" gorn="0.5.0.0.19"  stroke="#ffffff" style="stroke-linecap:round" id="line51" y1="1020.679" x1="94.140144" y2="1021.489" stroke-width="0.90000004" x2="92.970146"/>
                <line class="l21" fill="none" gorn="0.5.0.0.20"  stroke="#ffffff" style="stroke-linecap:round" id="line53" y1="1021.489" x1="92.970146" y2="1022.2089" stroke-width="0.90000004" x2="94.590149"/>
                <line class="l21" fill="none" gorn="0.5.0.0.21"  stroke="#ffffff" style="stroke-linecap:round" id="line55" y1="1022.2089" x1="94.590149" y2="1020.679" stroke-width="0.90000004" x2="94.140144"/>
                <line class="l21" fill="none" gorn="0.5.0.0.22"  stroke="#ffffff" style="stroke-linecap:round" id="line57" y1="1021.129" x1="93.690147" y2="1021.129" stroke-width="0.45000002" x2="94.140144"/>
                <line class="l21" fill="none" gorn="0.5.0.0.23"  stroke="#ffffff" style="stroke-linecap:round" id="line59" y1="1021.489" x1="93.780151" y2="1021.8491" stroke-width="0.90000004" x2="94.050148"/>
                <path class="l21" fill="none" gorn="0.5.0.0.24"  stroke="#ffffff" style="stroke-linecap:round" id="path61" stroke-width="0.90000004" d="m 91.845312,1013.6504 a 2.6999999,2.6999999 0 1 0 -0.126603,-3.8163"/>
                <line class="l21" fill="none" gorn="0.5.0.0.25"  stroke="#ffffff" style="stroke-linecap:round" id="line63" y1="1009.8341" x1="91.718704" y2="1010.0421" stroke-width="0.90000004" x2="93.126442"/>
                <line class="l21" fill="none" gorn="0.5.0.0.26"  stroke="#ffffff" style="stroke-linecap:round" id="line65" y1="1010.0421" x1="93.126442" y2="1008.4095" stroke-width="0.90000004" x2="92.435539"/>
                <line class="l21" fill="none" gorn="0.5.0.0.27"  stroke="#ffffff" style="stroke-linecap:round" id="line67" y1="1008.4095" x1="92.435539" y2="1009.8341" stroke-width="0.90000004" x2="91.718704"/>
                <line class="l21" fill="none" gorn="0.5.0.0.28"  stroke="#ffffff" style="stroke-linecap:round" id="line69" y1="1009.813" x1="92.354752" y2="1009.5056" stroke-width="0.45000002" x2="92.026176"/>
                <line class="l21" fill="none" gorn="0.5.0.0.29"  stroke="#ffffff" style="stroke-linecap:round" id="line71" y1="1009.4886" x1="92.535019" y2="1009.0413" stroke-width="0.90000004" x2="92.583855"/>
                <path class="l21" fill="none" gorn="0.5.0.0.30"  stroke="#ffffff" style="stroke-linecap:round" id="path73" stroke-width="0.90000004" d="m 97.245322,1014.6575 a 2.6999999,2.6999999 0 1 0 3.816268,0.1266"/>
                <line class="l21" fill="none" gorn="0.5.0.0.31"  stroke="#ffffff" style="stroke-linecap:round" id="line75" y1="1014.6577" x1="97.245316" y2="1016.0653" stroke-width="0.90000004" x2="97.453316"/>
                <line class="l21" fill="none" gorn="0.5.0.0.32"  stroke="#ffffff" style="stroke-linecap:round" id="line77" y1="1016.0653" x1="97.453316" y2="1015.3745" stroke-width="0.90000004" x2="95.820702"/>
                <line class="l21" fill="none" gorn="0.5.0.0.33"  stroke="#ffffff" style="stroke-linecap:round" id="line79" y1="1015.3745" x1="95.820702" y2="1014.6577" stroke-width="0.90000004" x2="97.245316"/>
                <line class="l21" fill="none" gorn="0.5.0.0.34"  stroke="#ffffff" style="stroke-linecap:round" id="line81" y1="1015.7437" x1="97.224213" y2="1015.415" stroke-width="0.45000002" x2="96.91674"/>
                <line class="l21" fill="none" gorn="0.5.0.0.35"  stroke="#ffffff" style="stroke-linecap:round" id="line83" y1="1015.924" x1="96.899864" y2="1015.9727" stroke-width="0.90000004" x2="96.452522"/>
                <line class="l21" fill="none" gorn="0.5.0.0.36"  stroke="#ffffff" style="stroke-linecap:round" id="line85" y1="1011.679" x1="99.090149" y2="1011.679" stroke-width="0.90000004" x2="88.290154"/>
                <line class="l21" fill="none" gorn="0.5.0.0.37"  stroke="#ffffff" style="stroke-linecap:round" id="line87" y1="1011.679" x1="99.090149" y2="1022.479" stroke-width="0.90000004" x2="99.090149"/>
                <line class="l21" fill="none" gorn="0.5.0.0.38"  stroke="#ffffff" style="stroke-linecap:round" id="line89" y1="1011.679" x1="88.290154" y2="1010.3289" stroke-width="0.90000004" x2="89.640152"/>
                <line class="l21" fill="none" gorn="0.5.0.0.39"  stroke="#ffffff" style="stroke-linecap:round" id="line91" y1="1010.3289" x1="89.640152" y2="1013.0291" stroke-width="0.90000004" x2="89.640152"/>
                <line class="l21" fill="none" gorn="0.5.0.0.40"  stroke="#ffffff" style="stroke-linecap:round" id="line93" y1="1013.0291" x1="89.640152" y2="1011.679" stroke-width="0.90000004" x2="88.290154"/>
                <line class="l21" fill="none" gorn="0.5.0.0.41"  stroke="#ffffff" style="stroke-linecap:round" id="line95" y1="1021.129" x1="100.44015" y2="1022.479" stroke-width="0.90000004" x2="99.090149"/>
                <line class="l21" fill="none" gorn="0.5.0.0.42"  stroke="#ffffff" style="stroke-linecap:round" id="line97" y1="1021.129" x1="97.74015" y2="1021.129" stroke-width="0.90000004" x2="100.44015"/>
                <line class="l21" fill="none" gorn="0.5.0.0.43"  stroke="#ffffff" style="stroke-linecap:round" id="line99" y1="1022.479" x1="99.090149" y2="1021.129" stroke-width="0.90000004" x2="97.74015"/>
                <g  transform="matrix(3.543307,0,0,3.543307,0.09015796,1052.179)">
                    <g >
                        <g gorn="0.5.0.0.44.0.0"  id="g243">
                            <title  id="title245">PART LOGO1</title>
                            <polygon class="l21" points="30.248,-9.8314 29.9335,-9.7011 29.5565,-10.0085 29.298,-9.75 29.6054,-9.373 29.4751,-9.0585 28.9912,-9.0093 28.9912,-8.6437 29.4751,-8.5945 29.6054,-8.28 29.298,-7.903 29.5565,-7.6445 29.9335,-7.9519 30.0853,-7.8737 30.3006,-8.3934 30.0112,-8.8265 30.6594,-8.3934 30.8747,-7.8737 31.0265,-7.9519 31.4035,-7.6445 31.662,-7.903 31.3546,-8.28 31.4849,-8.5945 31.9688,-8.6437 31.9688,-9.0093 31.4849,-9.0585 31.3546,-9.373 31.662,-9.75 31.4035,-10.0085 31.0265,-9.7011 30.712,-9.8314 30.6628,-10.3153 30.2972,-10.3153 " gorn="0.5.0.0.44.0.0.1"  style="fill:#ffffff" id="polygon247"/>
                        </g>
                    </g>
                </g>
                <g  transform="matrix(3.543307,0,0,3.543307,0.09015796,1052.179)">
                    <g >
                        <g gorn="0.5.0.0.45.0.0"  id="g253">
                            <title  id="title255">PART LOGO3</title>
                            <polygon class="l21" points="8.432,-12.904 8.412,-12.934 8.402,-12.974 8.402,-13.004 8.402,-13.034 8.412,-13.064 8.422,-13.084 8.442,-13.114 8.482,-13.144 8.522,-13.164 8.572,-13.174 8.612,-13.184 8.642,-13.184 8.672,-13.184 8.692,-13.174 8.702,-13.174 8.692,-13.184 8.652,-13.214 8.592,-13.244 8.512,-13.284 8.422,-13.304 8.322,-13.304 8.212,-13.284 8.102,-13.224 8.012,-13.154 7.962,-13.074 7.932,-12.984 7.932,-12.904 7.952,-12.814 8.002,-12.724 8.072,-12.644 8.152,-12.554 8.222,-12.484 8.252,-12.404 8.252,-12.334 8.232,-12.274 8.192,-12.224 8.132,-12.184 8.052,-12.164 7.972,-12.164 7.922,-12.174 7.872,-12.194 7.842,-12.224 7.812,-12.254 7.792,-12.284 7.782,-12.314 7.782,-12.354 7.792,-12.384 7.812,-12.404 7.832,-12.424 7.852,-12.444 7.882,-12.454 7.902,-12.464 7.922,-12.474 7.932,-12.484 7.912,-12.494 7.892,-12.504 7.852,-12.504 7.812,-12.504 7.772,-12.504 7.712,-12.494 7.662,-12.484 7.612,-12.464 7.572,-12.434 7.522,-12.394 7.492,-12.344 7.462,-12.294 7.442,-12.224 7.432,-12.144 7.432,-12.044 7.432,-11.884 7.432,-11.724 7.432,-11.564 7.432,-11.404 7.432,-11.244 7.432,-11.084 7.432,-10.924 7.432,-10.764 7.432,-10.774 7.452,-10.794 7.482,-10.824 7.512,-10.874 7.562,-10.924 7.612,-10.984 7.672,-11.044 7.732,-11.104 7.792,-11.174 7.852,-11.244 7.902,-11.294 7.952,-11.344 8.002,-11.374 8.052,-11.404 8.112,-11.414 8.182,-11.414 8.302,-11.414 8.422,-11.434 8.532,-11.464 8.632,-11.504 8.732,-11.564 8.812,-11.634 8.892,-11.714 8.962,-11.804 9.062,-11.984 9.112,-12.174 9.122,-12.344 9.092,-12.504 9.042,-12.654 8.972,-12.764 8.892,-12.854 8.812,-12.904 8.812,-12.894 8.812,-12.874 8.812,-12.844 8.812,-12.814 8.802,-12.784 8.792,-12.764 8.762,-12.734 8.732,-12.724 8.702,-12.724 8.662,-12.734 8.622,-12.744 8.582,-12.764 8.552,-12.784 8.512,-12.814 8.482,-12.844 8.452,-12.874 " gorn="0.5.0.0.45.0.0.1"  style="fill:#ffffff" id="polygon257"/>
                        </g>
                    </g>
                </g>
            </g>
        </g>
    </g>
</svg>
