<?xml version='1.0' encoding='UTF-8' standalone='no'?>
<!-- Created with Fritzing (http://www.fritzing.org/) -->
<svg xmlns="http://www.w3.org/2000/svg" y="0in" height="0.404in" width="0.812in" version="1.2" baseProfile="tiny"  viewBox="0 0 20.6248 10.2616" x="0in">
    <desc >
        <referenceFile >sparkfun-analogic_dil16_pcb.svg</referenceFile>
    </desc>
    <g gorn="0.1"  id="copper1">
        <circle cy="8.9408" stroke="#F7BD13" r="0.5334" gorn="0.1.0" fill="none" connectorname="1" cx="1.4224"  id="connector0pad" stroke-width="0.254"/>
        <path stroke="none" fill="#F7BD13"  d="m1.4224,7.62a0.6604,0.6604 0 0 1 0.6604,0.6604l0,1.3208a0.6604,0.6604 0 0 1 -0.6604,0.6604l-0,0a0.6604,0.6604 0 0 1 -0.6604,-0.6604l0,-1.3208a0.6604,0.6604 0 0 1 0.6604,-0.6604l0,0zM1.016,8.9408a0.4064,0.4064 0 1 0 0.8128,0 0.4064,0.4064 0 1 0 -0.8128,0z&#xa;" stroke-width="0"/>
        <circle cy="8.9408" stroke="#F7BD13" r="0.5334" gorn="0.1.2" fill="none" connectorname="2" cx="3.9624"  id="connector1pad" stroke-width="0.254"/>
        <path stroke="none" fill="#F7BD13"  d="m3.9624,7.62a0.6604,0.6604 0 0 1 0.6604,0.6604l0,1.3208a0.6604,0.6604 0 0 1 -0.6604,0.6604l-0,0a0.6604,0.6604 0 0 1 -0.6604,-0.6604l0,-1.3208a0.6604,0.6604 0 0 1 0.6604,-0.6604l0,0zM3.556,8.9408a0.4064,0.4064 0 1 0 0.8128,0 0.4064,0.4064 0 1 0 -0.8128,0z&#xa;" stroke-width="0"/>
        <circle cy="8.9408" stroke="#F7BD13" r="0.5334" gorn="0.1.4" fill="none" connectorname="3" cx="6.5024"  id="connector2pad" stroke-width="0.254"/>
        <path stroke="none" fill="#F7BD13"  d="m6.5024,7.62a0.6604,0.6604 0 0 1 0.6604,0.6604l0,1.3208a0.6604,0.6604 0 0 1 -0.6604,0.6604l-0,0a0.6604,0.6604 0 0 1 -0.6604,-0.6604l0,-1.3208a0.6604,0.6604 0 0 1 0.6604,-0.6604l0,0zM6.096,8.9408a0.4064,0.4064 0 1 0 0.8128,0 0.4064,0.4064 0 1 0 -0.8128,0z&#xa;" stroke-width="0"/>
        <circle cy="8.9408" stroke="#F7BD13" r="0.5334" gorn="0.1.6" fill="none" connectorname="4" cx="9.0424"  id="connector3pad" stroke-width="0.254"/>
        <path stroke="none" fill="#F7BD13"  d="m9.0424,7.62a0.6604,0.6604 0 0 1 0.6604,0.6604l0,1.3208a0.6604,0.6604 0 0 1 -0.6604,0.6604l-0,0a0.6604,0.6604 0 0 1 -0.6604,-0.6604l0,-1.3208a0.6604,0.6604 0 0 1 0.6604,-0.6604l0,0zM8.636,8.9408a0.4064,0.4064 0 1 0 0.8128,0 0.4064,0.4064 0 1 0 -0.8128,0z&#xa;" stroke-width="0"/>
        <circle cy="8.9408" stroke="#F7BD13" r="0.5334" gorn="0.1.8" fill="none" connectorname="5" cx="11.5824"  id="connector4pad" stroke-width="0.254"/>
        <path stroke="none" fill="#F7BD13"  d="m11.5824,7.62a0.6604,0.6604 0 0 1 0.6604,0.6604l0,1.3208a0.6604,0.6604 0 0 1 -0.6604,0.6604l-0,0a0.6604,0.6604 0 0 1 -0.6604,-0.6604l0,-1.3208a0.6604,0.6604 0 0 1 0.6604,-0.6604l0,0zM11.176,8.9408a0.4064,0.4064 0 1 0 0.8128,0 0.4064,0.4064 0 1 0 -0.8128,0z&#xa;" stroke-width="0"/>
        <circle cy="8.9408" stroke="#F7BD13" r="0.5334" gorn="0.1.10" fill="none" connectorname="6" cx="14.1224"  id="connector5pad" stroke-width="0.254"/>
        <path stroke="none" fill="#F7BD13"  d="m14.1224,7.62a0.6604,0.6604 0 0 1 0.6604,0.6604l0,1.3208a0.6604,0.6604 0 0 1 -0.6604,0.6604l-0,0a0.6604,0.6604 0 0 1 -0.6604,-0.6604l0,-1.3208a0.6604,0.6604 0 0 1 0.6604,-0.6604l0,0zM13.716,8.9408a0.4064,0.4064 0 1 0 0.8128,0 0.4064,0.4064 0 1 0 -0.8128,0z&#xa;" stroke-width="0"/>
        <circle cy="8.9408" stroke="#F7BD13" r="0.5334" gorn="0.1.12" fill="none" connectorname="7" cx="16.6624"  id="connector6pad" stroke-width="0.254"/>
        <path stroke="none" fill="#F7BD13"  d="m16.6624,7.62a0.6604,0.6604 0 0 1 0.6604,0.6604l0,1.3208a0.6604,0.6604 0 0 1 -0.6604,0.6604l-0,0a0.6604,0.6604 0 0 1 -0.6604,-0.6604l0,-1.3208a0.6604,0.6604 0 0 1 0.6604,-0.6604l0,0zM16.256,8.9408a0.4064,0.4064 0 1 0 0.8128,0 0.4064,0.4064 0 1 0 -0.8128,0z&#xa;" stroke-width="0"/>
        <circle cy="8.9408" stroke="#F7BD13" r="0.5334" gorn="0.1.14" fill="none" connectorname="8" cx="19.2024"  id="connector7pad" stroke-width="0.254"/>
        <path stroke="none" fill="#F7BD13"  d="m19.2024,7.62a0.6604,0.6604 0 0 1 0.6604,0.6604l0,1.3208a0.6604,0.6604 0 0 1 -0.6604,0.6604l-0,0a0.6604,0.6604 0 0 1 -0.6604,-0.6604l0,-1.3208a0.6604,0.6604 0 0 1 0.6604,-0.6604l0,0zM18.796,8.9408a0.4064,0.4064 0 1 0 0.8128,0 0.4064,0.4064 0 1 0 -0.8128,0z&#xa;" stroke-width="0"/>
        <circle cy="1.3208" stroke="#F7BD13" r="0.5334" gorn="0.1.16" fill="none" connectorname="9" cx="19.2024"  id="connector8pad" stroke-width="0.254"/>
        <path stroke="none" fill="#F7BD13"  d="m19.2024,0a0.6604,0.6604 0 0 1 0.6604,0.6604l0,1.3208a0.6604,0.6604 0 0 1 -0.6604,0.6604l-0,0a0.6604,0.6604 0 0 1 -0.6604,-0.6604l0,-1.3208a0.6604,0.6604 0 0 1 0.6604,-0.6604l0,0zM18.796,1.3208a0.4064,0.4064 0 1 0 0.8128,0 0.4064,0.4064 0 1 0 -0.8128,0z&#xa;" stroke-width="0"/>
        <circle cy="1.3208" stroke="#F7BD13" r="0.5334" gorn="0.1.18" fill="none" connectorname="10" cx="16.6624"  id="connector9pad" stroke-width="0.254"/>
        <path stroke="none" fill="#F7BD13"  d="m16.6624,0a0.6604,0.6604 0 0 1 0.6604,0.6604l0,1.3208a0.6604,0.6604 0 0 1 -0.6604,0.6604l-0,0a0.6604,0.6604 0 0 1 -0.6604,-0.6604l0,-1.3208a0.6604,0.6604 0 0 1 0.6604,-0.6604l0,0zM16.256,1.3208a0.4064,0.4064 0 1 0 0.8128,0 0.4064,0.4064 0 1 0 -0.8128,0z&#xa;" stroke-width="0"/>
        <circle cy="1.3208" stroke="#F7BD13" r="0.5334" gorn="0.1.20" fill="none" connectorname="11" cx="14.1224"  id="connector10pad" stroke-width="0.254"/>
        <path stroke="none" fill="#F7BD13"  d="m14.1224,0a0.6604,0.6604 0 0 1 0.6604,0.6604l0,1.3208a0.6604,0.6604 0 0 1 -0.6604,0.6604l-0,0a0.6604,0.6604 0 0 1 -0.6604,-0.6604l0,-1.3208a0.6604,0.6604 0 0 1 0.6604,-0.6604l0,0zM13.716,1.3208a0.4064,0.4064 0 1 0 0.8128,0 0.4064,0.4064 0 1 0 -0.8128,0z&#xa;" stroke-width="0"/>
        <circle cy="1.3208" stroke="#F7BD13" r="0.5334" gorn="0.1.22" fill="none" connectorname="12" cx="11.5824"  id="connector11pad" stroke-width="0.254"/>
        <path stroke="none" fill="#F7BD13"  d="m11.5824,0a0.6604,0.6604 0 0 1 0.6604,0.6604l0,1.3208a0.6604,0.6604 0 0 1 -0.6604,0.6604l-0,0a0.6604,0.6604 0 0 1 -0.6604,-0.6604l0,-1.3208a0.6604,0.6604 0 0 1 0.6604,-0.6604l0,0zM11.176,1.3208a0.4064,0.4064 0 1 0 0.8128,0 0.4064,0.4064 0 1 0 -0.8128,0z&#xa;" stroke-width="0"/>
        <circle cy="1.3208" stroke="#F7BD13" r="0.5334" gorn="0.1.24" fill="none" connectorname="13" cx="9.0424"  id="connector12pad" stroke-width="0.254"/>
        <path stroke="none" fill="#F7BD13"  d="m9.0424,0a0.6604,0.6604 0 0 1 0.6604,0.6604l0,1.3208a0.6604,0.6604 0 0 1 -0.6604,0.6604l-0,0a0.6604,0.6604 0 0 1 -0.6604,-0.6604l0,-1.3208a0.6604,0.6604 0 0 1 0.6604,-0.6604l0,0zM8.636,1.3208a0.4064,0.4064 0 1 0 0.8128,0 0.4064,0.4064 0 1 0 -0.8128,0z&#xa;" stroke-width="0"/>
        <circle cy="1.3208" stroke="#F7BD13" r="0.5334" gorn="0.1.26" fill="none" connectorname="14" cx="6.5024"  id="connector13pad" stroke-width="0.254"/>
        <path stroke="none" fill="#F7BD13"  d="m6.5024,0a0.6604,0.6604 0 0 1 0.6604,0.6604l0,1.3208a0.6604,0.6604 0 0 1 -0.6604,0.6604l-0,0a0.6604,0.6604 0 0 1 -0.6604,-0.6604l0,-1.3208a0.6604,0.6604 0 0 1 0.6604,-0.6604l0,0zM6.096,1.3208a0.4064,0.4064 0 1 0 0.8128,0 0.4064,0.4064 0 1 0 -0.8128,0z&#xa;" stroke-width="0"/>
        <circle cy="1.3208" stroke="#F7BD13" r="0.5334" gorn="0.1.28" fill="none" connectorname="15" cx="3.9624"  id="connector14pad" stroke-width="0.254"/>
        <path stroke="none" fill="#F7BD13"  d="m3.9624,0a0.6604,0.6604 0 0 1 0.6604,0.6604l0,1.3208a0.6604,0.6604 0 0 1 -0.6604,0.6604l-0,0a0.6604,0.6604 0 0 1 -0.6604,-0.6604l0,-1.3208a0.6604,0.6604 0 0 1 0.6604,-0.6604l0,0zM3.556,1.3208a0.4064,0.4064 0 1 0 0.8128,0 0.4064,0.4064 0 1 0 -0.8128,0z&#xa;" stroke-width="0"/>
        <circle cy="1.3208" stroke="#F7BD13" r="0.5334" gorn="0.1.30" fill="none" connectorname="16" cx="1.4224"  id="connector15pad" stroke-width="0.254"/>
        <path stroke="none" fill="#F7BD13"  d="m1.4224,0a0.6604,0.6604 0 0 1 0.6604,0.6604l0,1.3208a0.6604,0.6604 0 0 1 -0.6604,0.6604l-0,0a0.6604,0.6604 0 0 1 -0.6604,-0.6604l0,-1.3208a0.6604,0.6604 0 0 1 0.6604,-0.6604l0,0zM1.016,1.3208a0.4064,0.4064 0 1 0 0.8128,0 0.4064,0.4064 0 1 0 -0.8128,0z&#xa;" stroke-width="0"/>
        <g gorn="0.1.32"  id="copper0">
            <circle cy="8.9408" stroke="#F7BD13" r="0.5334" gorn="0.1.32.0" fill="none" connectorname="1" cx="1.4224"  id="connector0pad" stroke-width="0.254"/>
            <path stroke="none" fill="#F7BD13"  d="m1.4224,7.62a0.6604,0.6604 0 0 1 0.6604,0.6604l0,1.3208a0.6604,0.6604 0 0 1 -0.6604,0.6604l-0,0a0.6604,0.6604 0 0 1 -0.6604,-0.6604l0,-1.3208a0.6604,0.6604 0 0 1 0.6604,-0.6604l0,0zM1.016,8.9408a0.4064,0.4064 0 1 0 0.8128,0 0.4064,0.4064 0 1 0 -0.8128,0z&#xa;" stroke-width="0"/>
            <circle cy="8.9408" stroke="#F7BD13" r="0.5334" gorn="0.1.32.2" fill="none" connectorname="2" cx="3.9624"  id="connector1pad" stroke-width="0.254"/>
            <path stroke="none" fill="#F7BD13"  d="m3.9624,7.62a0.6604,0.6604 0 0 1 0.6604,0.6604l0,1.3208a0.6604,0.6604 0 0 1 -0.6604,0.6604l-0,0a0.6604,0.6604 0 0 1 -0.6604,-0.6604l0,-1.3208a0.6604,0.6604 0 0 1 0.6604,-0.6604l0,0zM3.556,8.9408a0.4064,0.4064 0 1 0 0.8128,0 0.4064,0.4064 0 1 0 -0.8128,0z&#xa;" stroke-width="0"/>
            <circle cy="8.9408" stroke="#F7BD13" r="0.5334" gorn="0.1.32.4" fill="none" connectorname="3" cx="6.5024"  id="connector2pad" stroke-width="0.254"/>
            <path stroke="none" fill="#F7BD13"  d="m6.5024,7.62a0.6604,0.6604 0 0 1 0.6604,0.6604l0,1.3208a0.6604,0.6604 0 0 1 -0.6604,0.6604l-0,0a0.6604,0.6604 0 0 1 -0.6604,-0.6604l0,-1.3208a0.6604,0.6604 0 0 1 0.6604,-0.6604l0,0zM6.096,8.9408a0.4064,0.4064 0 1 0 0.8128,0 0.4064,0.4064 0 1 0 -0.8128,0z&#xa;" stroke-width="0"/>
            <circle cy="8.9408" stroke="#F7BD13" r="0.5334" gorn="0.1.32.6" fill="none" connectorname="4" cx="9.0424"  id="connector3pad" stroke-width="0.254"/>
            <path stroke="none" fill="#F7BD13"  d="m9.0424,7.62a0.6604,0.6604 0 0 1 0.6604,0.6604l0,1.3208a0.6604,0.6604 0 0 1 -0.6604,0.6604l-0,0a0.6604,0.6604 0 0 1 -0.6604,-0.6604l0,-1.3208a0.6604,0.6604 0 0 1 0.6604,-0.6604l0,0zM8.636,8.9408a0.4064,0.4064 0 1 0 0.8128,0 0.4064,0.4064 0 1 0 -0.8128,0z&#xa;" stroke-width="0"/>
            <circle cy="8.9408" stroke="#F7BD13" r="0.5334" gorn="0.1.32.8" fill="none" connectorname="5" cx="11.5824"  id="connector4pad" stroke-width="0.254"/>
            <path stroke="none" fill="#F7BD13"  d="m11.5824,7.62a0.6604,0.6604 0 0 1 0.6604,0.6604l0,1.3208a0.6604,0.6604 0 0 1 -0.6604,0.6604l-0,0a0.6604,0.6604 0 0 1 -0.6604,-0.6604l0,-1.3208a0.6604,0.6604 0 0 1 0.6604,-0.6604l0,0zM11.176,8.9408a0.4064,0.4064 0 1 0 0.8128,0 0.4064,0.4064 0 1 0 -0.8128,0z&#xa;" stroke-width="0"/>
            <circle cy="8.9408" stroke="#F7BD13" r="0.5334" gorn="0.1.32.10" fill="none" connectorname="6" cx="14.1224"  id="connector5pad" stroke-width="0.254"/>
            <path stroke="none" fill="#F7BD13"  d="m14.1224,7.62a0.6604,0.6604 0 0 1 0.6604,0.6604l0,1.3208a0.6604,0.6604 0 0 1 -0.6604,0.6604l-0,0a0.6604,0.6604 0 0 1 -0.6604,-0.6604l0,-1.3208a0.6604,0.6604 0 0 1 0.6604,-0.6604l0,0zM13.716,8.9408a0.4064,0.4064 0 1 0 0.8128,0 0.4064,0.4064 0 1 0 -0.8128,0z&#xa;" stroke-width="0"/>
            <circle cy="8.9408" stroke="#F7BD13" r="0.5334" gorn="0.1.32.12" fill="none" connectorname="7" cx="16.6624"  id="connector6pad" stroke-width="0.254"/>
            <path stroke="none" fill="#F7BD13"  d="m16.6624,7.62a0.6604,0.6604 0 0 1 0.6604,0.6604l0,1.3208a0.6604,0.6604 0 0 1 -0.6604,0.6604l-0,0a0.6604,0.6604 0 0 1 -0.6604,-0.6604l0,-1.3208a0.6604,0.6604 0 0 1 0.6604,-0.6604l0,0zM16.256,8.9408a0.4064,0.4064 0 1 0 0.8128,0 0.4064,0.4064 0 1 0 -0.8128,0z&#xa;" stroke-width="0"/>
            <circle cy="8.9408" stroke="#F7BD13" r="0.5334" gorn="0.1.32.14" fill="none" connectorname="8" cx="19.2024"  id="connector7pad" stroke-width="0.254"/>
            <path stroke="none" fill="#F7BD13"  d="m19.2024,7.62a0.6604,0.6604 0 0 1 0.6604,0.6604l0,1.3208a0.6604,0.6604 0 0 1 -0.6604,0.6604l-0,0a0.6604,0.6604 0 0 1 -0.6604,-0.6604l0,-1.3208a0.6604,0.6604 0 0 1 0.6604,-0.6604l0,0zM18.796,8.9408a0.4064,0.4064 0 1 0 0.8128,0 0.4064,0.4064 0 1 0 -0.8128,0z&#xa;" stroke-width="0"/>
            <circle cy="1.3208" stroke="#F7BD13" r="0.5334" gorn="0.1.32.16" fill="none" connectorname="9" cx="19.2024"  id="connector8pad" stroke-width="0.254"/>
            <path stroke="none" fill="#F7BD13"  d="m19.2024,0a0.6604,0.6604 0 0 1 0.6604,0.6604l0,1.3208a0.6604,0.6604 0 0 1 -0.6604,0.6604l-0,0a0.6604,0.6604 0 0 1 -0.6604,-0.6604l0,-1.3208a0.6604,0.6604 0 0 1 0.6604,-0.6604l0,0zM18.796,1.3208a0.4064,0.4064 0 1 0 0.8128,0 0.4064,0.4064 0 1 0 -0.8128,0z&#xa;" stroke-width="0"/>
            <circle cy="1.3208" stroke="#F7BD13" r="0.5334" gorn="0.1.32.18" fill="none" connectorname="10" cx="16.6624"  id="connector9pad" stroke-width="0.254"/>
            <path stroke="none" fill="#F7BD13"  d="m16.6624,0a0.6604,0.6604 0 0 1 0.6604,0.6604l0,1.3208a0.6604,0.6604 0 0 1 -0.6604,0.6604l-0,0a0.6604,0.6604 0 0 1 -0.6604,-0.6604l0,-1.3208a0.6604,0.6604 0 0 1 0.6604,-0.6604l0,0zM16.256,1.3208a0.4064,0.4064 0 1 0 0.8128,0 0.4064,0.4064 0 1 0 -0.8128,0z&#xa;" stroke-width="0"/>
            <circle cy="1.3208" stroke="#F7BD13" r="0.5334" gorn="0.1.32.20" fill="none" connectorname="11" cx="14.1224"  id="connector10pad" stroke-width="0.254"/>
            <path stroke="none" fill="#F7BD13"  d="m14.1224,0a0.6604,0.6604 0 0 1 0.6604,0.6604l0,1.3208a0.6604,0.6604 0 0 1 -0.6604,0.6604l-0,0a0.6604,0.6604 0 0 1 -0.6604,-0.6604l0,-1.3208a0.6604,0.6604 0 0 1 0.6604,-0.6604l0,0zM13.716,1.3208a0.4064,0.4064 0 1 0 0.8128,0 0.4064,0.4064 0 1 0 -0.8128,0z&#xa;" stroke-width="0"/>
            <circle cy="1.3208" stroke="#F7BD13" r="0.5334" gorn="0.1.32.22" fill="none" connectorname="12" cx="11.5824"  id="connector11pad" stroke-width="0.254"/>
            <path stroke="none" fill="#F7BD13"  d="m11.5824,0a0.6604,0.6604 0 0 1 0.6604,0.6604l0,1.3208a0.6604,0.6604 0 0 1 -0.6604,0.6604l-0,0a0.6604,0.6604 0 0 1 -0.6604,-0.6604l0,-1.3208a0.6604,0.6604 0 0 1 0.6604,-0.6604l0,0zM11.176,1.3208a0.4064,0.4064 0 1 0 0.8128,0 0.4064,0.4064 0 1 0 -0.8128,0z&#xa;" stroke-width="0"/>
            <circle cy="1.3208" stroke="#F7BD13" r="0.5334" gorn="0.1.32.24" fill="none" connectorname="13" cx="9.0424"  id="connector12pad" stroke-width="0.254"/>
            <path stroke="none" fill="#F7BD13"  d="m9.0424,0a0.6604,0.6604 0 0 1 0.6604,0.6604l0,1.3208a0.6604,0.6604 0 0 1 -0.6604,0.6604l-0,0a0.6604,0.6604 0 0 1 -0.6604,-0.6604l0,-1.3208a0.6604,0.6604 0 0 1 0.6604,-0.6604l0,0zM8.636,1.3208a0.4064,0.4064 0 1 0 0.8128,0 0.4064,0.4064 0 1 0 -0.8128,0z&#xa;" stroke-width="0"/>
            <circle cy="1.3208" stroke="#F7BD13" r="0.5334" gorn="0.1.32.26" fill="none" connectorname="14" cx="6.5024"  id="connector13pad" stroke-width="0.254"/>
            <path stroke="none" fill="#F7BD13"  d="m6.5024,0a0.6604,0.6604 0 0 1 0.6604,0.6604l0,1.3208a0.6604,0.6604 0 0 1 -0.6604,0.6604l-0,0a0.6604,0.6604 0 0 1 -0.6604,-0.6604l0,-1.3208a0.6604,0.6604 0 0 1 0.6604,-0.6604l0,0zM6.096,1.3208a0.4064,0.4064 0 1 0 0.8128,0 0.4064,0.4064 0 1 0 -0.8128,0z&#xa;" stroke-width="0"/>
            <circle cy="1.3208" stroke="#F7BD13" r="0.5334" gorn="0.1.32.28" fill="none" connectorname="15" cx="3.9624"  id="connector14pad" stroke-width="0.254"/>
            <path stroke="none" fill="#F7BD13"  d="m3.9624,0a0.6604,0.6604 0 0 1 0.6604,0.6604l0,1.3208a0.6604,0.6604 0 0 1 -0.6604,0.6604l-0,0a0.6604,0.6604 0 0 1 -0.6604,-0.6604l0,-1.3208a0.6604,0.6604 0 0 1 0.6604,-0.6604l0,0zM3.556,1.3208a0.4064,0.4064 0 1 0 0.8128,0 0.4064,0.4064 0 1 0 -0.8128,0z&#xa;" stroke-width="0"/>
            <circle cy="1.3208" stroke="#F7BD13" r="0.5334" gorn="0.1.32.30" fill="none" connectorname="16" cx="1.4224"  id="connector15pad" stroke-width="0.254"/>
            <path stroke="none" fill="#F7BD13"  d="m1.4224,0a0.6604,0.6604 0 0 1 0.6604,0.6604l0,1.3208a0.6604,0.6604 0 0 1 -0.6604,0.6604l-0,0a0.6604,0.6604 0 0 1 -0.6604,-0.6604l0,-1.3208a0.6604,0.6604 0 0 1 0.6604,-0.6604l0,0zM1.016,1.3208a0.4064,0.4064 0 1 0 0.8128,0 0.4064,0.4064 0 1 0 -0.8128,0z&#xa;" stroke-width="0"/>
        </g>
    </g>
    <g gorn="0.2"  id="silkscreen">
        <line y1="2.2098" class="other" stroke="#f0f0f0" x2="0.1524"  stroke-linecap="round" x1="20.4724" stroke-width="0.3048" y2="2.2098"/>
        <line y1="8.0518" class="other" stroke="#f0f0f0" x2="20.4724"  stroke-linecap="round" x1="0.1524" stroke-width="0.3048" y2="8.0518"/>
        <line y1="2.2098" class="other" stroke="#f0f0f0" x2="20.4724"  stroke-linecap="round" x1="20.4724" stroke-width="0.3048" y2="8.0518"/>
        <line y1="2.2098" class="other" stroke="#f0f0f0" x2="0.1524"  stroke-linecap="round" x1="0.1524" stroke-width="0.3048" y2="4.1148"/>
        <line y1="8.0518" class="other" stroke="#f0f0f0" x2="0.1524"  stroke-linecap="round" x1="0.1524" stroke-width="0.3048" y2="6.1468"/>
        <path class="other" stroke="#f0f0f0" fill="none"  d="M0.1524,6.1468 A1.016,1.016 0 1 0 0.1524,4.1148" stroke-width="0.3048"/>
    </g>
</svg>
