<?xml version="1.0" encoding="utf-8"?>
<!-- Generator: Adobe Illustrator 16.0.0, SVG Export Plug-In . SVG Version: 6.00 Build 0)  -->
<!DOCTYPE svg PUBLIC "-//W3C//DTD SVG 1.1//EN" "http://www.w3.org/Graphics/SVG/1.1/DTD/svg11.dtd">
<svg version="1.1" id="Ebene_1" xmlns:svg="http://www.w3.org/2000/svg"
	 xmlns="http://www.w3.org/2000/svg" xmlns:xlink="http://www.w3.org/1999/xlink" x="0px" y="0px" width="20.672px"
	 height="25.675px" viewBox="0 0 20.672 25.675" enable-background="new 0 0 20.672 25.675" xml:space="preserve">
<g id="copper1">
	<rect id="connector4pad" stroke-width="0" stroke="none" x="15.984" y="12.217" fill="#F7BD13" width="3.916" height="1.275"/>
	<rect id="connector5pad" stroke-width="0" stroke="none" x="15.984" y="10.372" fill="#F7BD13" width="3.916" height="1.276"/>
	<rect id="connector6pad" stroke-width="0" stroke="none" x="15.984" y="15.904" fill="#F7BD13" width="3.916" height="1.277"/>
	<rect id="connector7pad" stroke-width="0" stroke="none" x="15.984" y="14.06" fill="#F7BD13" width="3.916" height="1.275"/>
	<rect id="connector8pad" stroke-width="0" stroke="none" x="15.984" y="8.529" fill="#F7BD13" width="3.916" height="1.275"/>
	<g id="copper0">
		<circle id="nonconn2" stroke-width="0" stroke="none" cx="14.85" cy="5.723" r="1.134"/>
		<circle id="nonconn3" stroke-width="0" stroke="none" cx="14.85" cy="20.003" r="1.134"/>
		<g id="connector3pad">
			<circle fill="none" stroke="#F7BD13" stroke-miterlimit="10" cx="18.473" cy="23.515" r="1.58"/>
			<circle fill="none" stroke="#F7BD13" stroke-miterlimit="10" cx="17.036" cy="23.515" r="1.58"/>
			<g >
				<path fill="#F7BD13" stroke-width="0" stroke="none" d="M18.473,25.595c-1.146,0-2.08-0.934-2.08-2.08s0.934-2.08,2.08-2.08s2.08,0.934,2.08,2.08
					S19.619,25.595,18.473,25.595z M18.473,22.435c-0.596,0-1.08,0.484-1.08,1.08s0.484,1.08,1.08,1.08s1.08-0.484,1.08-1.08
					S19.068,22.435,18.473,22.435z"/>
			</g>
			<g>
				<path fill="#F7BD13" stroke-width="0" stroke="none" d="M17.036,25.595c-1.146,0-2.08-0.934-2.08-2.08s0.934-2.08,2.08-2.08s2.08,0.934,2.08,2.08
					S18.183,25.595,17.036,25.595z M17.036,22.435c-0.596,0-1.08,0.484-1.08,1.08s0.484,1.08,1.08,1.08s1.08-0.484,1.08-1.08
					S17.632,22.435,17.036,22.435z"/>
			</g>
		</g>
		<g id="connector1pad">
			<circle fill="none" stroke="#F7BD13" stroke-miterlimit="10" cx="18.473" cy="2.141" r="1.58"/>
			<circle fill="none" stroke="#F7BD13" stroke-miterlimit="10" cx="17.036" cy="2.141" r="1.58"/>
			<g>
				<path fill="#F7BD13" stroke-width="0" stroke="none" d="M18.473,4.221c-1.146,0-2.08-0.933-2.08-2.08s0.934-2.08,2.08-2.08s2.08,0.933,2.08,2.08
					S19.619,4.221,18.473,4.221z M18.473,1.061c-0.596,0-1.08,0.484-1.08,1.08s0.484,1.08,1.08,1.08s1.08-0.484,1.08-1.08
					S19.068,1.061,18.473,1.061z"/>
			</g>
			<g>
				<path fill="#F7BD13" stroke-width="0" stroke="none" d="M17.036,4.221c-1.146,0-2.08-0.933-2.08-2.08s0.934-2.08,2.08-2.08s2.08,0.933,2.08,2.08
					S18.183,4.221,17.036,4.221z M17.036,1.061c-0.596,0-1.08,0.484-1.08,1.08s0.484,1.08,1.08,1.08s1.08-0.484,1.08-1.08
					S17.632,1.061,17.036,1.061z"/>
			</g>
		</g>
		<g id="connector2pad">
			<circle fill="none" stroke="#F7BD13" stroke-miterlimit="10" cx="6.108" cy="23.943" r="1.235"/>
			<circle fill="none" stroke="#F7BD13" stroke-miterlimit="10" cx="7.813" cy="23.943" r="1.235"/>
			<g>
				<path fill="#F7BD13" stroke-width="0" stroke="none" d="M6.108,25.678c-0.957,0-1.735-0.778-1.735-1.735c0-0.956,0.778-1.734,1.735-1.734
					s1.735,0.778,1.735,1.734C7.843,24.9,7.064,25.678,6.108,25.678z M6.108,23.208c-0.405,0-0.735,0.329-0.735,0.734
					s0.33,0.735,0.735,0.735s0.735-0.33,0.735-0.735S6.513,23.208,6.108,23.208z"/>
			</g>
			<g>
				<path fill="#F7BD13" stroke-width="0" stroke="none" d="M7.813,25.678c-0.957,0-1.735-0.778-1.735-1.735c0-0.956,0.778-1.734,1.735-1.734
					s1.735,0.778,1.735,1.734C9.548,24.9,8.77,25.678,7.813,25.678z M7.813,23.208c-0.405,0-0.735,0.329-0.735,0.734
					s0.33,0.735,0.735,0.735s0.735-0.33,0.735-0.735S8.218,23.208,7.813,23.208z"/>
			</g>
		</g>
		<g id="connector0pad">
			<circle fill="none" stroke="#F7BD13" stroke-miterlimit="10" cx="6.108" cy="1.974" r="1.235"/>
			<circle fill="none" stroke="#F7BD13" stroke-miterlimit="10" cx="7.813" cy="1.974" r="1.235"/>
			<g>
				<path fill="#F7BD13" stroke-width="0" stroke="none" d="M6.108,3.709c-0.957,0-1.735-0.778-1.735-1.735c0-0.957,0.778-1.735,1.735-1.735
					s1.735,0.778,1.735,1.735C7.843,2.931,7.064,3.709,6.108,3.709z M6.108,1.239c-0.405,0-0.735,0.33-0.735,0.735
					s0.33,0.735,0.735,0.735s0.735-0.33,0.735-0.735S6.513,1.239,6.108,1.239z"/>
			</g>
			<g>
				<path fill="#F7BD13" stroke-width="0" stroke="none" d="M7.813,3.709c-0.957,0-1.735-0.778-1.735-1.735c0-0.957,0.778-1.735,1.735-1.735
					s1.735,0.778,1.735,1.735C9.548,2.931,8.77,3.709,7.813,3.709z M7.813,1.239c-0.405,0-0.735,0.33-0.735,0.735
					s0.33,0.735,0.735,0.735s0.735-0.33,0.735-0.735S8.218,1.239,7.813,1.239z"/>
			</g>
		</g>
	</g>
</g>
<g id="silkscreen">
	<line fill="none" stroke="#F0F0F0" stroke-width="0.2032" stroke-linecap="round" x1="9.941" y1="2.244" x2="14.128" y2="2.244"/>
	<line fill="none" stroke="#F0F0F0" stroke-width="0.2032" stroke-linecap="round" x1="18.9" y1="4.895" x2="18.9" y2="7.252"/>
	<line fill="none" stroke="#F0F0F0" stroke-width="0.2032" stroke-linecap="round" x1="18.9" y1="18.779" x2="18.9" y2="21.136"/>
	
		<line fill="none" stroke="#F0F0F0" stroke-width="0.2032" stroke-linecap="round" x1="14.128" y1="23.787" x2="9.941" y2="23.787"/>
	<polyline fill="none" stroke="#F0F0F0" stroke-width="0.2032" stroke-linecap="round" points="4.068,23.308 0.151,23.308 
		0.151,2.474 4.068,2.474 	"/>
</g>
</svg>
