<?xml version="1.0" encoding="utf-8"?>
<!-- Generator: Adobe Illustrator 16.0.0, SVG Export Plug-In . SVG Version: 6.00 Build 0)  -->
<!DOCTYPE svg PUBLIC "-//W3C//DTD SVG 1.1//EN" "http://www.w3.org/Graphics/SVG/1.1/DTD/svg11.dtd">
<svg version="1.1" id="Ebene_1" xmlns:svg="http://www.w3.org/2000/svg" xmlns:rdf="http://www.w3.org/1999/02/22-rdf-syntax-ns#"
	 xmlns="http://www.w3.org/2000/svg" xmlns:xlink="http://www.w3.org/1999/xlink" x="0px" y="0px" width="86.219px"
	 height="60.637px" viewBox="0 0 86.219 60.637" enable-background="new 0 0 86.219 60.637" xml:space="preserve">
<g id="silkscreen">
	<polyline fill="none" stroke="#000000" stroke-miterlimit="10" points="79.979,46.472 79.979,60.007 6.278,60.007 6.278,46.472 	
		"/>
	<polyline fill="none" stroke="#000000" stroke-miterlimit="10" points="6.278,14.054 6.278,0.479 79.979,0.479 79.979,14.054 	"/>
	<g>
		<path fill="none" stroke="#000000" stroke-miterlimit="10" d="M20.453,9.246"/>
		<polyline fill="none" stroke="#000000" stroke-miterlimit="10" points="43.129,48.109 43.129,44.473 31.79,44.473 31.79,48.109 		
			"/>
		<polyline fill="none" stroke="#000000" stroke-miterlimit="10" points="65.803,48.109 65.803,44.473 54.465,44.473 54.465,48.109 
					"/>
		<polyline fill="none" stroke="#000000" stroke-miterlimit="10" points="54.467,12.882 54.465,16.518 65.803,16.518 65.803,44.473 
					"/>
		<polyline fill="none" stroke="#000000" stroke-miterlimit="10" points="31.789,16.518 43.128,16.518 43.128,12.882 		"/>
		<polyline fill="none" stroke="#000000" stroke-miterlimit="10" points="20.453,12.882 20.453,16.518 31.792,16.518 31.792,12.882 
					"/>
	</g>
	<text transform="matrix(1 0 0 1 56.3545 43.1125)" font-family="'OCRAStd'" font-size="2.5092">75Ω</text>
	<text transform="matrix(1 0 0 1 35.1875 43.1125)" font-family="'OCRAStd'" font-size="2.5092">60Ω</text>
	<text transform="matrix(1 0 0 1 29.1489 19.9661)" font-family="'OCRAStd'" font-size="2.5092">90Ω</text>
</g>
<g id="copper0">
	<g id="copper1">
		<circle id="connector13pin" fill="none" stroke="#FFBF00" stroke-width="1.224" cx="20.454" cy="9.246" r="2.475"/>
		<circle id="connector131pin" fill="none" stroke="#FFBF00" stroke-width="2" cx="6.278" cy="30.243" r="5.218"/>
		<circle id="connector130pin" fill="none" stroke="#FFBF00" stroke-width="2" cx="79.979" cy="30.243" r="5.217"/>
		<circle id="connector1pin" fill="none" stroke="#FFBF00" stroke-width="1.224" cx="43.129" cy="51.74" r="2.476"/>
		<circle id="connector12pin" fill="none" stroke="#FFBF00" stroke-width="1.224" cx="31.792" cy="9.248" r="2.475"/>
		<circle id="connector5pin" fill="none" stroke="#FFBF00" stroke-width="1.224" cx="54.465" cy="51.739" r="2.475"/>
		<circle id="connector8pin" fill="none" stroke="#FFBF00" stroke-width="1.224" cx="43.129" cy="9.246" r="2.475"/>
		<circle id="connector6pin" fill="none" stroke="#FFBF00" stroke-width="1.224" cx="65.803" cy="51.739" r="2.475"/>
		<circle id="connector0pin" fill="none" stroke="#FFBF00" stroke-width="1.224" cx="31.79" cy="51.74" r="2.474"/>
		<g id="connector7pin">
			<circle fill="none" stroke="#FFBF00" stroke-width="1.224" cx="54.468" cy="9.246" r="2.475"/>
			<rect x="51.993" y="6.772" fill="none" stroke="#FFBF00" stroke-width="1.224" width="4.948" height="4.949"/>
		</g>
	</g>
</g>
</svg>
