<?xml version='1.0' encoding='UTF-8' standalone='no'?>
<!-- Created with Inkscape (http://www.inkscape.org/) -->
<svg xmlns="http://www.w3.org/2000/svg"  width="122.88976" version="1.1" height="121.60837" id="0">
 <desc   id="0.0" oldid="0.0">
  <referenceFile   id="0.0.0" oldid="0.0.0">MPX2010 - pcb.svg</referenceFile>
 </desc>
 <defs   id="0.1" oldid="0.1"/>
 <metadata   id="0.2" oldid="0.2">
  <rdf:RDF xmlns:rdf="http://www.w3.org/1999/02/22-rdf-syntax-ns#"  id="0.2.0" oldid="0.2.0">
   <cc:Work xmlns:cc="http://creativecommons.org/ns#"  rdf:about="" xmlns:rdf="http://www.w3.org/1999/02/22-rdf-syntax-ns#" id="0.2.0.0" oldid="0.2.0.0">
    <dc:format xmlns:dc="http://purl.org/dc/elements/1.1/"  id="0.2.0.0.0" oldid="0.2.0.0.0">image/svg+xml</dc:format>
    <dc:type xmlns:dc="http://purl.org/dc/elements/1.1/"  id="0.2.0.0.1" oldid="0.2.0.0.1" rdf:resource="http://purl.org/dc/dcmitype/StillImage" xmlns:rdf="http://www.w3.org/1999/02/22-rdf-syntax-ns#"/>
    <dc:title xmlns:dc="http://purl.org/dc/elements/1.1/"  id="0.2.0.0.2" oldid="0.2.0.0.2"/>
   </cc:Work>
  </rdf:RDF>
 </metadata>
 <g   id="layer1" transform="translate(62.862205,-918.49543)">
  <g   stroke="#ffffff" id="silkscreen" stroke-width="0" transform="matrix(1.25,0,0,1.25,-31.5,972.59995)">
   <title   id="0.3.0.0" oldid="0.3.0.0">element:JP1</title>
   <g   stroke="#ffffff" id="g6793" stroke-width="0">
    <title   id="0.3.0.1.0" oldid="0.3.0.1.0">package:1X04</title>
    <line   stroke="#ffffff" style="stroke-linecap:round" id="line6797" y1="50.400002" x1="16.200001" y2="50.400002" stroke-width="0.57599998" x2="12.6"/>
    <line   stroke="#ffffff" style="stroke-linecap:round" id="line6799" y1="50.400002" x1="12.6" y2="48.599998" stroke-width="0.57599998" x2="10.8"/>
    <line   stroke="#ffffff" style="stroke-linecap:round" id="line6801" y1="45" x1="10.8" y2="43.200001" stroke-width="0.57599998" x2="12.6"/>
    <line   stroke="#ffffff" style="stroke-linecap:round" id="line6803" y1="48.599998" x1="25.200001" y2="50.400002" stroke-width="0.57599998" x2="23.4"/>
    <line   stroke="#ffffff" style="stroke-linecap:round" id="line6805" y1="50.400002" x1="23.4" y2="50.400002" stroke-width="0.57599998" x2="19.799999"/>
    <line   stroke="#ffffff" style="stroke-linecap:round" id="line6807" y1="50.400002" x1="19.799999" y2="48.599998" stroke-width="0.57599998" x2="18"/>
    <line   stroke="#ffffff" style="stroke-linecap:round" id="line6809" y1="45" x1="18" y2="43.200001" stroke-width="0.57599998" x2="19.799999"/>
    <line   stroke="#ffffff" style="stroke-linecap:round" id="line6811" y1="43.200001" x1="19.799999" y2="43.200001" stroke-width="0.57599998" x2="23.4"/>
    <line   stroke="#ffffff" style="stroke-linecap:round" id="line6813" y1="43.200001" x1="23.4" y2="45" stroke-width="0.57599998" x2="25.200001"/>
    <line   stroke="#ffffff" style="stroke-linecap:round" id="line6815" y1="50.400002" x1="16.200001" y2="48.599998" stroke-width="0.57599998" x2="18"/>
    <line   stroke="#ffffff" style="stroke-linecap:round" id="line6817" y1="45" x1="18" y2="43.200001" stroke-width="0.57599998" x2="16.200001"/>
    <line   stroke="#ffffff" style="stroke-linecap:round" id="line6819" y1="43.200001" x1="12.6" y2="43.200001" stroke-width="0.57599998" x2="16.200001"/>
    <line   stroke="#ffffff" style="stroke-linecap:round" id="line6821" y1="50.400002" x1="37.799999" y2="50.400002" stroke-width="0.57599998" x2="34.200001"/>
    <line   stroke="#ffffff" style="stroke-linecap:round" id="line6823" y1="50.400002" x1="34.200001" y2="48.599998" stroke-width="0.57599998" x2="32.400002"/>
    <line   stroke="#ffffff" style="stroke-linecap:round" id="line6825" y1="45" x1="32.400002" y2="43.200001" stroke-width="0.57599998" x2="34.200001"/>
    <line   stroke="#ffffff" style="stroke-linecap:round" id="line6827" y1="48.599998" x1="32.400002" y2="50.400002" stroke-width="0.57599998" x2="30.6"/>
    <line   stroke="#ffffff" style="stroke-linecap:round" id="line6829" y1="50.400002" x1="30.6" y2="50.400002" stroke-width="0.57599998" x2="27"/>
    <line   stroke="#ffffff" style="stroke-linecap:round" id="line6831" y1="50.400002" x1="27" y2="48.599998" stroke-width="0.57599998" x2="25.200001"/>
    <line   stroke="#ffffff" style="stroke-linecap:round" id="line6833" y1="45" x1="25.200001" y2="43.200001" stroke-width="0.57599998" x2="27"/>
    <line   stroke="#ffffff" style="stroke-linecap:round" id="line6835" y1="43.200001" x1="27" y2="43.200001" stroke-width="0.57599998" x2="30.6"/>
    <line   stroke="#ffffff" style="stroke-linecap:round" id="line6837" y1="43.200001" x1="30.6" y2="45" stroke-width="0.57599998" x2="32.400002"/>
    <line   stroke="#ffffff" style="stroke-linecap:round" id="line6839" y1="48.599998" x1="39.599998" y2="45" stroke-width="0.57599998" x2="39.599998"/>
    <line   stroke="#ffffff" style="stroke-linecap:round" id="line6841" y1="50.400002" x1="37.799999" y2="48.599998" stroke-width="0.57599998" x2="39.599998"/>
    <line   stroke="#ffffff" style="stroke-linecap:round" id="line6843" y1="45" x1="39.599998" y2="43.200001" stroke-width="0.57599998" x2="37.799999"/>
    <line   stroke="#ffffff" style="stroke-linecap:round" id="line6845" y1="43.200001" x1="34.200001" y2="43.200001" stroke-width="0.57599998" x2="37.799999"/>
    <line   stroke="#ffffff" style="stroke-linecap:round" id="line6847" y1="48.599998" x1="10.8" y2="45" stroke-width="0.57599998" x2="10.8"/>
   </g>
   <g   id="0.3.0.2" transform="matrix(2.6280132,0,0,2.7266319,94.666584,-1847.9809)">
    <path  fill="none"  stroke="#ffffff" style="stroke-linecap:round;stroke-miterlimit:4;stroke-dasharray:none" id="path7014" stroke-width="0.2109928" d="m -36.850393,682.44092 a 2.0462596,2.1259842 0 1 1 -4.092519,0 2.0462596,2.1259842 0 1 1 4.092519,0 z"/>
   </g>
   <g   id="0.3.0.3" transform="matrix(2.5434533,0,0,2.5338342,156.88615,-1716.4079)">
    <path  fill="none"  stroke="#ffffff" style="stroke-linecap:round;stroke-miterlimit:4;stroke-dasharray:none" id="path7014-0" stroke-width="0.22248138" d="m -36.850393,682.44092 a 2.0462596,2.1259842 0 1 1 -4.092519,0 2.0462596,2.1259842 0 1 1 4.092519,0 z"/>
   </g>
   <g   id="0.3.0.4" transform="matrix(0.8,0,0,0.8,25.2,-531.46774)">
    <path  stroke-opacity="1" fill="none"  stroke="#ffffff" style="stroke-linecap:butt;stroke-linejoin:miter;" id="path7309" stroke-width="1" d="m -22.943414,649.00371 0,0 0,0"/>
   </g>
   <path  stroke-opacity="1" fill="none"  stroke="#ffffff" style="stroke-linecap:butt;stroke-linejoin:miter;" id="path7309-9" stroke-width="0.8" d="m 29.927198,-42.883612 0,0 0,0"/>
   <path  stroke-opacity="1" fill="none"  stroke="#ffffff" style="stroke-linecap:butt;stroke-linejoin:miter;" id="path7319-4" stroke-width="0.8" d="m 42.918522,-12.254955 -2.422537,-2.939847 0,-9.33387 2.69881,0 -2.69881,-13.16736 0,-5.18758 -8.264822,0 0,5.18758 -2.230987,13.16736 2.230987,0 0,9.33387 -1.86124,2.59809 m -11.102925,4e-6 -1.852942,-2.598088 0,-9.333872 2.69881,0 -2.69881,-13.16736 0,-5.187584 -8.2648224,0 0,5.187584 -2.2309872,13.16736 2.2309872,0 0,9.333872 -2.4308347,3.053764 m 13.8376311,-0.344884 -13.7107612,0.221144 0,0 0.3697152,6.941352 0,0 0,0 M -13.03889,19.931092 11.918762,34.276128 M 42.891302,-6.315148 63.005583,5.324356 M 20.556032,-12.485916 -12.557154,5.291772 m 5.0028204,16.500656 c -4.9752534,0 -9.0085004,-4.033088 -9.0085004,-9.008152 0,-3.124056 1.590364,-5.876696 4.00568,-7.492504 M 57.954328,3.776076 c -2.589752,0 -4.577177,1.500776 -6.567575,2.84232 C 49.817286,7.4977 49.77202,0.072188 42.891302,-6.315156 l 0.05802,-5.86324 -22.393288,-0.30752 M -7.5543336,21.792428 c 2.6737096,0 4.2482696,-2.923 6.7252088,-3.01452 1.1990528,-0.04432 3.2424912,5.285688 4.7158504,7.053712 5.528536,6.634176 7.6877714,11.041544 21.3132744,11.33684 13.625503,0.295296 21.616292,-7.855664 32.75433,-14.049224 4.248346,-2.384328 9.008505,-5.359944 9.008505,-10.335 0,-4.975064 -4.033245,-9.00816 -9.008504,-9.00816"/>
   <g  xml:space="preserve" xmlns:xml="http://www.w3.org/XML/1998/namespace" fill="#ffffff"  stroke="#ffffff" style="font-style:normal;font-variant:normal;font-weight:normal;font-stretch:normal;line-height:125%;letter-spacing:0px;word-spacing:0px;font-family:Droid Sans;-inkscape-font-specification:Droid Sans" fill-opacity="1" id="text7444" stroke-width="1" transform="matrix(0,-1,1,0,0,0)" font-size="6.4">
    <text  x="14.813923" y="15.221541"  id="tspan7446">Vacuum</text>
   </g>
   <g  xml:space="preserve" xmlns:xml="http://www.w3.org/XML/1998/namespace" fill="#ffffff"  stroke="#ffffff" style="font-style:normal;font-variant:normal;font-weight:normal;font-stretch:normal;line-height:125%;letter-spacing:0px;word-spacing:0px;font-family:Droid Sans;-inkscape-font-specification:Droid Sans" fill-opacity="1" id="text7448" stroke-width="1" transform="matrix(0,-1,1,0,0,0)" font-size="6.4">
    <text  x="14.192049" y="38.317684"  id="tspan7450">Pressure</text>
   </g>
  </g>
  <g   id="copper1" stroke-width="0" transform="matrix(-1.25,0,0,1.25,31.500001,972.5999)">
   <g   id="copper0" stroke-width="0">
    <circle  fill="none" cx="36"  cy="46.799999" stroke="#f7bd13" r="2.052" id="connector6pad" stroke-width="1.22399998"/>
    <rect  width="4.1040001" x="33.948002" y="44.748001" fill="none"  height="4.1040001" stroke="#f7bd13" id="connector1pad" stroke-width="1.22399998"/>
    <circle  fill="none" cx="28.799999"  cy="46.799999" stroke="#f7bd13" r="2.052" id="connector2pad" stroke-width="1.22399998"/>
    <circle  fill="none" cx="21.6"  cy="46.799999" stroke="#f7bd13" r="2.052" id="connector3pad" stroke-width="1.22399998"/>
    <circle  fill="none" cx="14.4"  cy="46.799999" stroke="#f7bd13" r="2.052" id="connector4pad" stroke-width="1.22399998"/>
   </g>
  </g>
 </g>
</svg>
