<?xml version="1.0" encoding="utf-8"?>
<!-- Generator: Adobe Illustrator 16.0.0, SVG Export Plug-In . SVG Version: 6.00 Build 0)  -->
<svg version="1.2" baseProfile="tiny" id="Layer_2" xmlns:xml="http://www.w3.org/XML/1998/namespace"
	 xmlns="http://www.w3.org/2000/svg" xmlns:xlink="http://www.w3.org/1999/xlink" x="0px" y="0px" width="42.52px"
	 height="79.371px" viewBox="0 0 42.52 79.371" xml:space="preserve">
<g id="silkscreen">
	<path id="connector_box" fill="none" stroke="#FFFFFF" stroke-width="0.6" stroke-miterlimit="10" d="M2,63.958h27.833v14.334
		H8.583H2V64.126V63.958z M2,71.156h6.667v7.166"/>
	<g>
		<polyline fill="none" stroke="#FFFFFF" stroke-width="0.4" stroke-miterlimit="10" points="12.771,52.792 11.25,52.792 
			11.25,51.188 		"/>
		<polyline fill="none" stroke="#FFFFFF" stroke-width="0.4" stroke-miterlimit="10" points="20.792,41.115 22.313,41.115 
			22.313,42.718 		"/>
		<polyline fill="none" stroke="#FFFFFF" stroke-width="0.4" stroke-miterlimit="10" points="22.303,51.271 22.303,52.792 
			20.698,52.792 		"/>
		<polyline fill="none" stroke="#FFFFFF" stroke-width="0.4" stroke-miterlimit="10" points="11.25,42.634 11.25,41.115 
			12.855,41.115 		"/>
	</g>
	<path fill="#FFFFFF" d="M0,0v79.371h42.52V0H0z M41.906,78.737H0.615V0.633h41.292V78.737z"/>
</g>
<g id="copper1">
	<g id="copper0">
		
			<circle id="connector9pad" fill="none" stroke="#F5BD18" stroke-width="1.2" stroke-miterlimit="10" cx="5.118" cy="67.539" r="1.822"/>
		
			<circle id="connector11pad" fill="none" stroke="#F5BD18" stroke-width="1.2" stroke-miterlimit="10" cx="12.317" cy="67.539" r="1.822"/>
		
			<circle id="connector13pad" fill="none" stroke="#F5BD18" stroke-width="1.2" stroke-miterlimit="10" cx="19.517" cy="67.539" r="1.822"/>
		
			<circle id="connector15pin" fill="none" stroke="#F5BD18" stroke-width="1.2" stroke-miterlimit="10" cx="26.718" cy="67.539" r="1.822"/>
		
			<circle id="connector8pad" fill="none" stroke="#F5BD18" stroke-width="1.2" stroke-miterlimit="10" cx="5.118" cy="74.739" r="1.822"/>
		
			<circle id="connector10pad" fill="none" stroke="#F5BD18" stroke-width="1.2" stroke-miterlimit="10" cx="12.317" cy="74.739" r="1.822"/>
		
			<circle id="connector12pad" fill="none" stroke="#F5BD18" stroke-width="1.2" stroke-miterlimit="10" cx="19.517" cy="74.739" r="1.822"/>
		
			<circle id="connector14pin" fill="none" stroke="#F5BD18" stroke-width="1.2" stroke-miterlimit="10" cx="26.718" cy="74.739" r="1.822"/>
	</g>
</g>
</svg>
