<?xml version="1.0" encoding="utf-8"?>
<!-- Generator: Adobe Illustrator 16.0.0, SVG Export Plug-In . SVG Version: 6.00 Build 0)  -->
<!DOCTYPE svg PUBLIC "-//W3C//DTD SVG 1.1//EN" "http://www.w3.org/Graphics/SVG/1.1/DTD/svg11.dtd">
<svg version="1.1" xmlns="http://www.w3.org/2000/svg" xmlns:xlink="http://www.w3.org/1999/xlink" x="0px" y="0px"
	 width="74.891px" height="62.359px" viewBox="0 0 74.891 62.359" enable-background="new 0 0 74.891 62.359" xml:space="preserve">
<g id="silkscreen">
	<path id="slikscreen" fill="none" stroke="#FFFFFF" d="M74.391,61.842V0.5H0.508v61.342C25.135,61.842,49.763,61.842,74.391,61.842
		z"/>
</g>
<g id="copper0">
	<g id="copper1">
		<g id="connector1pin">
			<path fill="#F7BD13" stroke-width="0" stroke="none" d="M32.15,1.622
				c-1.565,0-2.823,1.283-2.823,2.85v5.664c0,1.564,1.258,2.824,2.823,2.824l24.098-0.01c1.564,0,2.834-1.268,2.834-2.832v-5.67
				c0-1.564-1.27-2.834-2.834-2.834L32.15,1.622z M34.984,5.86l18.432-0.01c0.781-0.002,1.424,0.643,1.424,1.426
				c0,0.781-0.643,1.4-1.424,1.4V8.7l-18.432,0.01c-0.782,0-1.4-0.645-1.4-1.424C33.584,6.502,34.202,5.86,34.984,5.86L34.984,5.86z
				"/>
			<circle fill="none" stroke="#000000" stroke-miterlimit="10" cx="35.006" cy="7.287" r="1.672"/>
			<circle fill="none" stroke="#000000" stroke-miterlimit="10" cx="36.683" cy="7.287" r="1.672"/>
			<circle fill="none" stroke="#000000" stroke-miterlimit="10" cx="38.36" cy="7.287" r="1.671"/>
			<circle fill="none" stroke="#000000" stroke-miterlimit="10" cx="40.037" cy="7.287" r="1.671"/>
			<circle fill="none" stroke="#000000" stroke-miterlimit="10" cx="41.714" cy="7.287" r="1.672"/>
			<circle fill="none" stroke="#000000" stroke-miterlimit="10" cx="43.391" cy="7.287" r="1.671"/>
			<circle fill="none" stroke="#000000" stroke-miterlimit="10" cx="45.069" cy="7.287" r="1.671"/>
			<circle fill="none" stroke="#000000" stroke-miterlimit="10" cx="46.746" cy="7.287" r="1.672"/>
			<circle fill="none" stroke="#000000" stroke-miterlimit="10" cx="48.422" cy="7.287" r="1.671"/>
			<circle fill="none" stroke="#000000" stroke-miterlimit="10" cx="50.099" cy="7.287" r="1.671"/>
			<circle fill="none" stroke="#000000" stroke-miterlimit="10" cx="51.777" cy="7.287" r="1.671"/>
			<circle fill="none" stroke="#000000" stroke-miterlimit="10" cx="53.454" cy="7.287" r="1.671"/>
		</g>
		<g id="connector0pin">
			<path fill="#F7BD13" stroke-width="0" stroke="none" d="M49.869,19.003
				c0-1.566-1.283-2.824-2.849-2.824h-5.664c-1.565,0-2.824,1.258-2.824,2.824l0.008,24.1c0.001,1.564,1.27,2.83,2.835,2.83h5.667
				c1.566,0,2.834-1.266,2.834-2.83L49.869,19.003z M45.63,21.837l0.011,18.431c0,0.781-0.642,1.425-1.425,1.425
				c-0.781,0-1.398-0.645-1.398-1.425h-0.026L42.78,21.837c0-0.782,0.644-1.399,1.425-1.399
				C44.988,20.438,45.63,21.055,45.63,21.837L45.63,21.837z"/>
			<circle fill="none" stroke="#000000" stroke-miterlimit="10" cx="44.204" cy="21.835" r="1.672"/>
			<circle fill="none" stroke="#000000" stroke-miterlimit="10" cx="44.204" cy="23.512" r="1.672"/>
			<circle fill="none" stroke="#000000" stroke-miterlimit="10" cx="44.204" cy="25.189" r="1.671"/>
			<circle fill="none" stroke="#000000" stroke-miterlimit="10" cx="44.204" cy="26.866" r="1.671"/>
			<circle fill="none" stroke="#000000" stroke-miterlimit="10" cx="44.204" cy="28.543" r="1.672"/>
			<circle fill="none" stroke="#000000" stroke-miterlimit="10" cx="44.204" cy="30.22" r="1.671"/>
			<circle fill="none" stroke="#000000" stroke-miterlimit="10" cx="44.204" cy="31.898" r="1.671"/>
			<circle fill="none" stroke="#000000" stroke-miterlimit="10" cx="44.204" cy="33.576" r="1.673"/>
			<circle fill="none" stroke="#000000" stroke-miterlimit="10" cx="44.204" cy="35.252" r="1.672"/>
			<circle fill="none" stroke="#000000" stroke-miterlimit="10" cx="44.204" cy="36.929" r="1.671"/>
			<circle fill="none" stroke="#000000" stroke-miterlimit="10" cx="44.204" cy="38.607" r="1.671"/>
			<circle fill="none" stroke="#000000" stroke-miterlimit="10" cx="44.204" cy="40.278" r="1.671"/>
		</g>
		<g id="connector5pin">
			<path fill="#F7BD13" stroke-width="0" stroke="none" d="M72.541,19.003
				c-0.001-1.566-1.285-2.824-2.849-2.824h-5.665c-1.563,0-2.825,1.258-2.824,2.824l0.008,24.1c0,1.564,1.269,2.83,2.835,2.83h5.668
				c1.563,0,2.834-1.266,2.832-2.83L72.541,19.003z M68.302,21.837l0.011,18.431c0,0.781-0.644,1.425-1.426,1.425
				s-1.4-0.645-1.4-1.425h-0.024l-0.009-18.431c0-0.782,0.642-1.399,1.425-1.399C67.659,20.438,68.303,21.055,68.302,21.837
				L68.302,21.837z"/>
			<circle fill="none" stroke="#000000" stroke-miterlimit="10" cx="66.874" cy="21.835" r="1.672"/>
			<circle fill="none" stroke="#000000" stroke-miterlimit="10" cx="66.874" cy="23.512" r="1.672"/>
			<circle fill="none" stroke="#000000" stroke-miterlimit="10" cx="66.874" cy="25.189" r="1.671"/>
			<circle fill="none" stroke="#000000" stroke-miterlimit="10" cx="66.874" cy="26.866" r="1.671"/>
			<circle fill="none" stroke="#000000" stroke-miterlimit="10" cx="66.874" cy="28.543" r="1.672"/>
			<circle fill="none" stroke="#000000" stroke-miterlimit="10" cx="66.874" cy="30.22" r="1.671"/>
			<circle fill="none" stroke="#000000" stroke-miterlimit="10" cx="66.874" cy="31.898" r="1.671"/>
			<circle fill="none" stroke="#000000" stroke-miterlimit="10" cx="66.874" cy="33.576" r="1.673"/>
			<circle fill="none" stroke="#000000" stroke-miterlimit="10" cx="66.874" cy="35.252" r="1.672"/>
			<circle fill="none" stroke="#000000" stroke-miterlimit="10" cx="66.874" cy="36.929" r="1.671"/>
			<circle fill="none" stroke="#000000" stroke-miterlimit="10" cx="66.874" cy="38.607" r="1.671"/>
			<circle fill="none" stroke="#000000" stroke-miterlimit="10" cx="66.874" cy="40.278" r="1.671"/>
		</g>
		<g id="connector2pin">
			<path fill="#F7BD13" stroke-width="0" stroke="none" d="M4.095,25.102
				c-1.565,0-2.823,1.284-2.823,2.85v5.663c0,1.565,1.258,2.825,2.823,2.825l24.099-0.008c1.565-0.001,2.833-1.269,2.833-2.833
				V27.93c0-1.565-1.268-2.835-2.833-2.834L4.095,25.102z M6.928,29.342l18.43-0.011c0.783,0,1.425,0.642,1.425,1.425
				c0,0.783-0.642,1.399-1.425,1.399v0.024l-18.43,0.012c-0.782,0-1.4-0.642-1.4-1.425C5.528,29.984,6.146,29.341,6.928,29.342
				L6.928,29.342z"/>
			<circle fill="none" stroke="#000000" stroke-miterlimit="10" cx="7.006" cy="30.768" r="1.672"/>
			<circle fill="none" stroke="#000000" stroke-miterlimit="10" cx="8.683" cy="30.768" r="1.672"/>
			<circle fill="none" stroke="#000000" stroke-miterlimit="10" cx="10.36" cy="30.768" r="1.671"/>
			<circle fill="none" stroke="#000000" stroke-miterlimit="10" cx="12.037" cy="30.768" r="1.671"/>
			<circle fill="none" stroke="#000000" stroke-miterlimit="10" cx="13.714" cy="30.768" r="1.672"/>
			<circle fill="none" stroke="#000000" stroke-miterlimit="10" cx="15.391" cy="30.768" r="1.671"/>
			<circle fill="none" stroke="#000000" stroke-miterlimit="10" cx="17.069" cy="30.768" r="1.671"/>
			<circle fill="none" stroke="#000000" stroke-miterlimit="10" cx="18.746" cy="30.768" r="1.672"/>
			<circle fill="none" stroke="#000000" stroke-miterlimit="10" cx="20.422" cy="30.768" r="1.671"/>
			<circle fill="none" stroke="#000000" stroke-miterlimit="10" cx="22.099" cy="30.768" r="1.671"/>
			<circle fill="none" stroke="#000000" stroke-miterlimit="10" cx="23.777" cy="30.768" r="1.671"/>
			<circle fill="none" stroke="#000000" stroke-miterlimit="10" cx="25.448" cy="30.768" r="1.671"/>
		</g>
		<g id="connector4pin">
			<path fill="#F7BD13" stroke-width="0" stroke="none" d="M32.15,49.232
				c-1.565,0-2.823,1.283-2.823,2.85v5.664c0,1.564,1.258,2.824,2.823,2.824l24.098-0.01c1.564,0,2.834-1.268,2.834-2.832v-5.67
				c0-1.564-1.27-2.834-2.834-2.834L32.15,49.232z M34.984,53.471l18.432-0.01c0.781-0.002,1.424,0.643,1.424,1.426
				c0,0.781-0.643,1.4-1.424,1.4v0.023l-18.432,0.01c-0.782,0-1.4-0.645-1.4-1.424C33.584,54.113,34.202,53.471,34.984,53.471
				L34.984,53.471z"/>
			<circle fill="none" stroke="#000000" stroke-miterlimit="10" cx="35.006" cy="54.898" r="1.672"/>
			<circle fill="none" stroke="#000000" stroke-miterlimit="10" cx="36.683" cy="54.898" r="1.672"/>
			<circle fill="none" stroke="#000000" stroke-miterlimit="10" cx="38.36" cy="54.898" r="1.671"/>
			<circle fill="none" stroke="#000000" stroke-miterlimit="10" cx="40.037" cy="54.898" r="1.671"/>
			<circle fill="none" stroke="#000000" stroke-miterlimit="10" cx="41.714" cy="54.898" r="1.672"/>
			<circle fill="none" stroke="#000000" stroke-miterlimit="10" cx="43.391" cy="54.898" r="1.671"/>
			<circle fill="none" stroke="#000000" stroke-miterlimit="10" cx="45.069" cy="54.898" r="1.671"/>
			<circle fill="none" stroke="#000000" stroke-miterlimit="10" cx="46.746" cy="54.898" r="1.672"/>
			<circle fill="none" stroke="#000000" stroke-miterlimit="10" cx="48.422" cy="54.898" r="1.671"/>
			<circle fill="none" stroke="#000000" stroke-miterlimit="10" cx="50.099" cy="54.898" r="1.671"/>
			<circle fill="none" stroke="#000000" stroke-miterlimit="10" cx="51.777" cy="54.898" r="1.671"/>
			<circle fill="none" stroke="#000000" stroke-miterlimit="10" cx="53.454" cy="54.898" r="1.671"/>
		</g>
	</g>
</g>
</svg>
