<?xml version='1.0' encoding='UTF-8' standalone='no'?>
<!-- Created with Fritzing (http://www.fritzing.org/) -->
<svg xmlns="http://www.w3.org/2000/svg" height="74.409447"  version="1.2" y="0in" width="37.799999" x="0in" id="svg2" viewBox="0 0 420 826.77161" gorn="0">
    <desc >
        <referenceFile >PC847_pcb.svg</referenceFile>
    </desc>
    <metadata  id="metadata51">
        <rdf:RDF xmlns:rdf="http://www.w3.org/1999/02/22-rdf-syntax-ns#">
            <cc:Work xmlns:cc="http://creativecommons.org/ns#" xmlns:rdf="http://www.w3.org/1999/02/22-rdf-syntax-ns#" rdf:about="">
                <dc:format xmlns:dc="http://purl.org/dc/elements/1.1/">image/svg+xml</dc:format>
                <dc:type rdf:resource="http://purl.org/dc/dcmitype/StillImage" xmlns:rdf="http://www.w3.org/1999/02/22-rdf-syntax-ns#" xmlns:dc="http://purl.org/dc/elements/1.1/"/>
            </cc:Work>
        </rdf:RDF>
    </metadata>
    <defs  id="defs49"/>
    <g  transform="translate(0.44058323,3.2655843)">
        <g >
            <g >
                <g  stroke-width="0" id="copper0" gorn="0.3.0.0.0">
                    <rect height="55"  stroke-width="20" fill="none" y="32.5" width="55" x="32.5" id="rect6" gorn="0.3.0.0.0.0" stroke="#ffbf00"/>
                    <circle  stroke-width="20" fill="none" cy="60" r="27.5" d="M 87.5,60 C 87.5,75.187831 75.187831,87.5 60,87.5 44.812169,87.5 32.5,75.187831 32.5,60 32.5,44.812169 44.812169,32.5 60,32.5 75.187831,32.5 87.5,44.812169 87.5,60 z" id="connector0pin" gorn="0.3.0.0.0.1" cx="60" stroke="#ffbf00"/>
                    <circle  stroke-width="20" fill="none" cy="60" r="27.5" d="m 387.5,60 c 0,15.187831 -12.31217,27.5 -27.5,27.5 -15.18783,0 -27.5,-12.312169 -27.5,-27.5 0,-15.187831 12.31217,-27.5 27.5,-27.5 15.18783,0 27.5,12.312169 27.5,27.5 z" id="connector16pin" gorn="0.3.0.0.0.2" cx="360" stroke="#ffbf00"/>
                    <circle  stroke-width="20" fill="none" cy="160" r="27.5" d="m 87.5,160 c 0,15.18783 -12.312169,27.5 -27.5,27.5 -15.187831,0 -27.5,-12.31217 -27.5,-27.5 0,-15.18783 12.312169,-27.5 27.5,-27.5 15.187831,0 27.5,12.31217 27.5,27.5 z" id="connector1pin" gorn="0.3.0.0.0.3" cx="60" stroke="#ffbf00"/>
                    <circle  stroke-width="20" fill="none" cy="160" r="27.5" d="m 387.5,160 c 0,15.18783 -12.31217,27.5 -27.5,27.5 -15.18783,0 -27.5,-12.31217 -27.5,-27.5 0,-15.18783 12.31217,-27.5 27.5,-27.5 15.18783,0 27.5,12.31217 27.5,27.5 z" id="connector15pin" gorn="0.3.0.0.0.4" cx="360" stroke="#ffbf00"/>
                    <circle  stroke-width="20" fill="none" cy="260" r="27.5" d="m 87.5,260 c 0,15.18783 -12.312169,27.5 -27.5,27.5 -15.187831,0 -27.5,-12.31217 -27.5,-27.5 0,-15.18783 12.312169,-27.5 27.5,-27.5 15.187831,0 27.5,12.31217 27.5,27.5 z" id="connector2pin" gorn="0.3.0.0.0.5" cx="60" stroke="#ffbf00"/>
                    <circle  stroke-width="20" fill="none" cy="260" r="27.5" d="m 387.5,260 c 0,15.18783 -12.31217,27.5 -27.5,27.5 -15.18783,0 -27.5,-12.31217 -27.5,-27.5 0,-15.18783 12.31217,-27.5 27.5,-27.5 15.18783,0 27.5,12.31217 27.5,27.5 z" id="connector14pin" gorn="0.3.0.0.0.6" cx="360" stroke="#ffbf00"/>
                    <circle  stroke-width="20" fill="none" cy="360" r="27.5" d="m 87.5,360 c 0,15.18783 -12.312169,27.5 -27.5,27.5 -15.187831,0 -27.5,-12.31217 -27.5,-27.5 0,-15.18783 12.312169,-27.5 27.5,-27.5 15.187831,0 27.5,12.31217 27.5,27.5 z" id="connector3pin" gorn="0.3.0.0.0.7" cx="60" stroke="#ffbf00"/>
                    <circle  stroke-width="20" fill="none" cy="360" r="27.5" d="m 387.5,360 c 0,15.18783 -12.31217,27.5 -27.5,27.5 -15.18783,0 -27.5,-12.31217 -27.5,-27.5 0,-15.18783 12.31217,-27.5 27.5,-27.5 15.18783,0 27.5,12.31217 27.5,27.5 z" id="connector13pin" gorn="0.3.0.0.0.8" cx="360" stroke="#ffbf00"/>
                    <circle  stroke-width="20" fill="none" cy="460" r="27.5" d="m 87.5,460 c 0,15.18783 -12.312169,27.5 -27.5,27.5 -15.187831,0 -27.5,-12.31217 -27.5,-27.5 0,-15.18783 12.312169,-27.5 27.5,-27.5 15.187831,0 27.5,12.31217 27.5,27.5 z" id="connector4pin" gorn="0.3.0.0.0.9" cx="60" stroke="#ffbf00"/>
                    <circle  stroke-width="20" fill="none" cy="460" r="27.5" d="m 387.5,460 c 0,15.18783 -12.31217,27.5 -27.5,27.5 -15.18783,0 -27.5,-12.31217 -27.5,-27.5 0,-15.18783 12.31217,-27.5 27.5,-27.5 15.18783,0 27.5,12.31217 27.5,27.5 z" id="connector12pin" gorn="0.3.0.0.0.10" cx="360" stroke="#ffbf00"/>
                    <circle  stroke-width="20" fill="none" cy="560" r="27.5" d="m 87.5,560 c 0,15.18783 -12.312169,27.5 -27.5,27.5 -15.187831,0 -27.5,-12.31217 -27.5,-27.5 0,-15.18783 12.312169,-27.5 27.5,-27.5 15.187831,0 27.5,12.31217 27.5,27.5 z" id="connector5pin" gorn="0.3.0.0.0.11" cx="60" stroke="#ffbf00"/>
                    <circle  stroke-width="20" fill="none" cy="560" r="27.5" d="m 387.5,560 c 0,15.18783 -12.31217,27.5 -27.5,27.5 -15.18783,0 -27.5,-12.31217 -27.5,-27.5 0,-15.18783 12.31217,-27.5 27.5,-27.5 15.18783,0 27.5,12.31217 27.5,27.5 z" id="connector11pin" gorn="0.3.0.0.0.12" cx="360" stroke="#ffbf00"/>
                    <circle  stroke-width="20" fill="none" cy="660" r="27.5" d="m 87.5,660 c 0,15.18783 -12.312169,27.5 -27.5,27.5 -15.187831,0 -27.5,-12.31217 -27.5,-27.5 0,-15.18783 12.312169,-27.5 27.5,-27.5 15.187831,0 27.5,12.31217 27.5,27.5 z" id="connector7pin" gorn="0.3.0.0.0.13" cx="60" stroke="#ffbf00"/>
                    <circle  stroke-width="20" fill="none" cy="660" r="27.5" d="m 387.5,660 c 0,15.18783 -12.31217,27.5 -27.5,27.5 -15.18783,0 -27.5,-12.31217 -27.5,-27.5 0,-15.18783 12.31217,-27.5 27.5,-27.5 15.18783,0 27.5,12.31217 27.5,27.5 z" id="connector10pin" gorn="0.3.0.0.0.14" cx="360" stroke="#ffbf00"/>
                    <circle  stroke-width="20" fill="none" cy="760" r="27.5" d="m 87.5,760 c 0,15.18783 -12.312169,27.5 -27.5,27.5 -15.187831,0 -27.5,-12.31217 -27.5,-27.5 0,-15.18783 12.312169,-27.5 27.5,-27.5 15.187831,0 27.5,12.31217 27.5,27.5 z" id="connector8pin" gorn="0.3.0.0.0.15" cx="60" stroke="#ffbf00"/>
                    <circle  stroke-width="20" fill="none" cy="760" r="27.5" d="m 387.5,760 c 0,15.18783 -12.31217,27.5 -27.5,27.5 -15.18783,0 -27.5,-12.31217 -27.5,-27.5 0,-15.18783 12.31217,-27.5 27.5,-27.5 15.18783,0 27.5,12.31217 27.5,27.5 z" id="connector9pin" gorn="0.3.0.0.0.16" cx="360" stroke="#ffbf00"/>
                </g>
            </g>
        </g>
    </g>
    <g  transform="matrix(1,0,0,0.58505237,0.44058323,-2.0261067)">
        <g >
            <g >
                <g  stroke-width="0" id="silkscreen" gorn="0.4.0.0.0">
                    <line  stroke-width="10" y2="1410" x1="10" y1="10" id="line37" gorn="0.4.0.0.0.0" stroke="#ffffff" x2="10"/>
                    <line  stroke-width="10" y2="1410" x1="10" y1="1410" id="line39" gorn="0.4.0.0.0.1" stroke="#ffffff" x2="410"/>
                    <line  stroke-width="10" y2="10" x1="410" y1="1410" id="line41" gorn="0.4.0.0.0.2" stroke="#ffffff" x2="410"/>
                    <line  stroke-width="10" y2="10" x1="10" y1="10" id="line43" gorn="0.4.0.0.0.3" stroke="#ffffff" x2="160"/>
                    <line  stroke-width="10" y2="10" x1="260" y1="10" id="line45" gorn="0.4.0.0.0.4" stroke="#ffffff" x2="410"/>
                </g>
            </g>
        </g>
    </g>
</svg>
