<?xml version="1.0" encoding="UTF-8"?>
<!DOCTYPE svg  PUBLIC '-//W3C//DTD SVG 1.1//EN'  'http://www.w3.org/Graphics/SVG/1.1/DTD/svg11.dtd'>
<svg width="2.71in" height="2.11in" version="1.1" viewBox="0 0 195.2 152" xml:space="preserve" xmlns="http://www.w3.org/2000/svg">
<g id="board">
	<path id="boardoutline" d="m183.2 0.818 4.308 4.304v32.28l7.182 7.172v92.53l-7.182 7.172v4.35c0.164 1.396-0.839 2.66-2.234 2.824-0.191 0.021-0.395 0.021-0.592 0h-181c-1.397 0.164-2.663-0.836-2.827-2.229-0.023-0.196-0.023-0.396 0-0.596v-145c-0.163-1.397 0.838-2.662 2.235-2.824 0.196-0.023 0.396-0.023 0.592 0h179.6zm-86.21 69.6a5 5 0 0 0 -5 5v43.5a5 5 0 0 0 5 5h67a5 5 0 0 0 5 -5v-43.5a5 5 0 0 0 -5 -5z" fill="#fff" fill-opacity=".5"/>
<g fill="none" stroke="#666" stroke-opacity=".5" stroke-linecap="round" stroke-linejoin="round">
<circle  cx="187.497" cy="50.887" r="4.252" />
		<circle cx="187.497" cy="129.836" r="4.252" />
		<circle cx="43.35" cy="7.2" r="4.252" />
		<circle cx="38.673" cy="143.844" r="4.252" />

	<rect id="usbcconnector" x="-2" y="31.5" width="22" height="25"/>	
<path id="powerconnector" d="M -4.8 114.5 h 9 v 1 h 29 v 25 h -29  v 1 h -9 z"/>
<g id="pinguide">
<path d="m 140.58 142.2 l 1.8 -1.8 h 3.6 l 1.81 1.8 l 1.79 -1.8 h 3.6 l 1.8 1.8 l 1.81 -1.8 h 3.59 l 1.8 1.8 l 1.8 -1.8 h 3.6 l 1.8 1.8 l 1.8 -1.8 h 3.61 l 1.79 1.8 l 1.8 -1.8 h 3.6 l 1.81 1.8 v 3.6 l -1.81 1.8 h -3.6 l -1.8 -1.8 l -1.79 1.8 h -3.61 l -1.8 -1.8 l -1.8 1.8 h -3.6 l -1.8 -1.8 l -1.8 1.8 h -3.59 l -1.81 -1.8 l -1.8 1.8 h -3.6 l -1.79 -1.8 l -1.81 1.8 h -3.6 l -1.8 -1.8 z"/>

<path d="m 75.784 142.2 l 1.8 -1.8 h 3.6 l 1.81 1.8 l 1.79 -1.8 h 3.6 l 1.8 1.8 l 1.81 -1.8 h 3.59 l 1.8 1.8 l 1.8 -1.8 h 3.6 l 1.8 1.8 l 1.8 -1.8 h 3.61 l 1.79 1.8 l 1.8 -1.8 h 3.6 l 1.81 1.8 1.8 -1.8 h 3.6 l 1.81 1.8 1.8 -1.8 h 3.6 l 1.81 1.8
v 3.6 l -1.81 1.8 h -3.6 l -1.8 -1.8 l -1.81 1.8 h -3.6 l -1.8 -1.8 l -1.81 1.8 h -3.6 l -1.8 -1.8 l -1.79 1.8 h -3.61 l -1.8 -1.8 l -1.8 1.8 h -3.6 l -1.8 -1.8 l -1.8 1.8 h -3.59 l -1.81 -1.8 l -1.8 1.8 h -3.6 l -1.79 -1.8 l -1.81 1.8 h -3.6 l -1.8 -1.8 z"/>

<path d="m 47 142.2 l 1.8 -1.8 h 3.6 l 1.81 1.8 l 1.79 -1.8 h 3.6 l 1.8 1.8 l 1.81 -1.8 h 3.59 l 1.8 1.8 
v 3.6 l -1.81 1.8 h -3.6 l -1.8 -1.8 l -1.81 1.8 h -3.6 l -1.8 -1.8 l -1.81 1.8 h -3.6 l -1.8 -1.8 z"/>

<path d="m 126.15 5.4 l 1.8 -1.8 h 3.6 l 1.81 1.8 l 1.79 -1.8 h 3.6 l 1.8 1.8 l 1.81 -1.8 h 3.59 l 1.8 1.8 l 1.8 -1.8 h 3.6 l 1.8 1.8 l 1.8 -1.8 h 3.61 l 1.79 1.8 l 1.8 -1.8 h 3.6 l 1.81 1.8 1.8 -1.8 h 3.6 l 1.81 1.8 1.8 -1.8 h 3.6 l 1.81 1.8
v 3.6 l -1.81 1.8 h -3.6 l -1.8 -1.8 l -1.81 1.8 h -3.6 l -1.8 -1.8 l -1.81 1.8 h -3.6 l -1.8 -1.8 l -1.79 1.8 h -3.61 l -1.8 -1.8 l -1.8 1.8 h -3.6 l -1.8 -1.8 l -1.8 1.8 h -3.59 l -1.81 -1.8 l -1.8 1.8 h -3.6 l -1.79 -1.8 l -1.81 1.8 h -3.6 l -1.8 -1.8 z"/>

<path d="m 49.8 5.4 l 1.8 -1.8 h 3.6 l 1.81 1.8 l 1.79 -1.8 h 3.6 l 1.8 1.8 l 1.81 -1.8 h 3.59 l 1.8 1.8 l 1.8 -1.8 h 3.6 l 1.8 1.8 l 1.8 -1.8 h 3.61 l 1.79 1.8 l 1.8 -1.8 h 3.6 l 1.81 1.8 l 1.8 -1.8 h 3.6 l 1.81 1.8 1.8 -1.8 h 3.6 l 1.81 1.8 l 1.8 -1.8 h 3.6 l 1.81 1.8 1.8 -1.8 h 3.6 l 1.81 1.8
v 3.6 l -1.81 1.8 h -3.6 l -1.8 -1.8 l -1.81 1.8 h -3.6 l -1.8 -1.8 l -1.81 1.8 h -3.6 l -1.8 -1.8 l -1.79 1.8 h -3.61 l -1.8 -1.8 l -1.8 1.8 h -3.6 l -1.8 -1.8 l -1.8 1.8 h -3.59 l -1.81 -1.8 l -1.8 1.8 h -3.6 l -1.79 -1.8 l -1.81 1.8 h -3.6 l -1.8 -1.8  l -1.8 1.8 h -3.6 l -1.79 -1.8 l -1.81 1.8 h -3.6 l -1.8 -1.8z"/>

</g>
		<title>element:ICSP</title>
		<g>
			<title>package:2X03</title>
<path d="m 179.1 61.2 l 10.8 0 l 0 0 l 1.8 1.8 v 3.6 l -1.8 1.8 l 0 0 l 1.8 1.8 v 3.6 l -1.8 1.8 l 0 0 l 1.8 1.8 v 3.6 l -1.8 1.8 l 0 0 l -10.8 0 l 0 0 l -1.8 -1.8 v -3.6 l 1.8 -1.8 l 0 0 l -1.8 -1.8 v -3.6 l 1.8 -1.8 l 0 0 l -1.8 -1.8 v -3.6 l 1.8 -1.8"/>
			
		</g>
	</g>
</g>
<g id="silkscreen">
	<path id="outline" d="m183.2 0.818 4.308 4.304v32.28l7.182 7.172v92.53l-7.182 7.172v4.35c0.164 1.396-0.839 2.66-2.234 2.824-0.191 0.021-0.395 0.021-0.592 0h-181c-1.397 0.164-2.663-0.836-2.827-2.229-0.023-0.196-0.023-0.396 0-0.596v-145c-0.163-1.397 0.838-2.662 2.235-2.824 0.196-0.023 0.396-0.023 0.592 0h179.6" fill="none" stroke="#fff" stroke-linecap="round" stroke-linejoin="round" stroke-miterlimit="10"/>
</g>
<g id="silkscreen0">
	<path id="outline_1_" d="m183.2 0.818 4.308 4.304v32.28l7.182 7.172v92.53l-7.182 7.172v4.35c0.164 1.396-0.839 2.66-2.234 2.824-0.191 0.021-0.395 0.021-0.592 0h-181c-1.397 0.164-2.663-0.836-2.827-2.229-0.023-0.196-0.023-0.396 0-0.596v-145c-0.163-1.397 0.838-2.662 2.235-2.824 0.196-0.023 0.396-0.023 0.592 0h179.6" fill="none" stroke="#111" stroke-linecap="round" stroke-linejoin="round" stroke-miterlimit="10"/>
<path id="displaywindow" d="M91.21 69.68v55h78.5v-55z" fill="none" stroke="#fff" stroke-linecap="round" stroke-linejoin="round" stroke-miterlimit="20"/>
</g>
</svg>
