<?xml version='1.0' encoding='UTF-8' standalone='no'?>
<!-- Created with Fritzing (http://www.fritzing.org/) -->
<svg xmlns="http://www.w3.org/2000/svg"  width="2.55906in" x="0in" version="1.2" y="0in" height="3.58701in" viewBox="0 0 184.252 258.265" baseProfile="tiny">
 <desc >Fritzing footprint generated by brd2svg</desc>
 <g  id="silkscreen">
  <path  fill="none" stroke="white" stroke-width="0.576" d="M0.288,252.009L0.288,157.731A5.38129,5.38129,0,0,1,1.41831,154.337L7.63502,146.041A5.38129,5.38129,0,0,0,8.76535,142.647L8.76535,5.94464A5.38129,5.38129,0,0,1,14.4169,0.288L175.486,0.288A5.38129,5.38129,0,0,1,181.138,5.94464L181.138,248.417A8.60688,8.60688,0,0,1,172.661,257.666L5.93957,257.666A5.38129,5.38129,0,0,1,0.288,252.009M13.6108,9.07085a3.96397,3.96397,0,1,0,7.92792,0,3.96397,3.96397,0,1,0,-7.92792,0zM13.6108,102.047a3.96397,3.96397,0,1,0,7.92792,0,3.96397,3.96397,0,1,0,-7.92792,0zM13.6108,248.882a3.96397,3.96397,0,1,0,7.92792,0,3.96397,3.96397,0,1,0,-7.92792,0zM168.383,248.882a3.96397,3.96397,0,1,0,7.92792,0,3.96397,3.96397,0,1,0,-7.92792,0zM168.383,102.047a3.96397,3.96397,0,1,0,7.92792,0,3.96397,3.96397,0,1,0,-7.92792,0zM168.383,9.07085a3.96397,3.96397,0,1,0,7.92792,0,3.96397,3.96397,0,1,0,-7.92792,0z"/>
  <line  stroke="white" stroke-linecap="round" y1="161.574" x1="57.5433" y2="161.574" stroke-width="0.36" x2="108"/>
  <line  stroke="white" stroke-linecap="round" y1="161.574" x1="108" y2="255.118" stroke-width="0.36" x2="108"/>
  <line  stroke="white" stroke-linecap="round" y1="255.118" x1="108" y2="255.118" stroke-width="0.36" x2="57.5433"/>
  <line  stroke="white" stroke-linecap="round" y1="255.118" x1="57.5433" y2="161.574" stroke-width="0.36" x2="57.5433"/>
  <g >
   <title >element:A1</title>
   <g >
    <title >package:ARDUINO_MINI</title>
   </g>
  </g>
  <g >
   <title >element:C1</title>
   <g >
    <title >package:RADIAL_330UF</title>
    <circle  fill="none" cx="39.685" cy="170.078" stroke="white" r="11.3386" stroke-width="0.36"/>
   </g>
  </g>
  <g >
   <title >element:C2</title>
   <g >
    <title >package:RADIAL_330UF</title>
    <circle  fill="none" cx="39.685" cy="195.591" stroke="white" r="11.3386" stroke-width="0.36"/>
   </g>
  </g>
  <g >
   <title >element:C3</title>
   <g >
    <title >package:RADIAL_330UF</title>
    <circle  fill="none" cx="39.685" cy="221.103" stroke="white" r="11.3386" stroke-width="0.36"/>
   </g>
  </g>
  <g >
   <title >element:DC_IN</title>
   <g >
    <title >package:JST-PH-2-PTH</title>
    <line  stroke="white" stroke-linecap="round" y1="257.103" x1="32.1732" y2="236.268" stroke-width="0.36" x2="32.1732"/>
    <line  stroke="white" stroke-linecap="round" y1="236.268" x1="48.8976" y2="257.103" stroke-width="0.36" x2="48.8976"/>
    <line  stroke="white" stroke-linecap="round" y1="236.268" x1="48.8976" y2="236.268" stroke-width="0.36" x2="32.315"/>
   </g>
  </g>
  <g >
   <title >element:H1</title>
   <g >
    <title >package:PTH_2X8_90DEG_FEMALE</title>
    <line  stroke="white" stroke-linecap="round" y1="181.276" x1="180.071" y2="181.276" stroke-width="0.36" x2="157.607"/>
    <line  stroke="white" stroke-linecap="round" y1="238.876" x1="157.607" y2="238.876" stroke-width="0.36" x2="180.071"/>
    <line  stroke="white" stroke-linecap="round" y1="238.876" x1="157.607" y2="181.276" stroke-width="0.36" x2="157.607"/>
   </g>
  </g>
  <g >
   <title >element:P1</title>
   <g >
    <title >package:16MM_THUMBWHEEL</title>
    <line  stroke="white" stroke-linecap="round" y1="144.426" x1="161.574" y2="144.426" stroke-width="0.36" x2="140.315"/>
    <line  stroke="white" stroke-linecap="round" y1="144.426" x1="140.315" y2="146.551" stroke-width="0.36" x2="140.315"/>
    <line  stroke="white" stroke-linecap="round" y1="166.393" x1="140.315" y2="168.52" stroke-width="0.36" x2="140.315"/>
    <line  stroke="white" stroke-linecap="round" y1="168.52" x1="140.315" y2="168.52" stroke-width="0.36" x2="161.574"/>
    <path  fill="none" stroke="white" stroke-width="0.36" d="M161.574,168.52A12.0473,12.0473,0,1,0,161.574,144.426"/>
    <circle  fill="none" cx="161.574" cy="156.473" stroke="white" r="2.24099" stroke-width="0.36"/>
   </g>
  </g>
  <g >
   <title >element:S1</title>
   <g >
    <title >package:RIGHT_ANGLE_TACTSWITCH</title>
    <line  stroke="white" stroke-linecap="round" y1="131.896" x1="176.06" y2="131.896" stroke-width="0.36" x2="180.312"/>
    <line  stroke="white" stroke-linecap="round" y1="131.896" x1="180.312" y2="112.054" stroke-width="0.36" x2="180.312"/>
    <line  stroke="white" stroke-linecap="round" y1="112.054" x1="180.312" y2="112.054" stroke-width="0.36" x2="176.06"/>
    <line  stroke="white" stroke-linecap="round" y1="126.227" x1="170.391" y2="117.723" stroke-width="0.36" x2="170.391"/>
   </g>
  </g>
  <g >
   <title >element:S2</title>
   <g >
    <title >package:RIGHT_ANGLE_TACTSWITCH</title>
    <line  stroke="white" stroke-linecap="round" y1="250.186" x1="114.208" y2="254.438" stroke-width="0.36" x2="114.208"/>
    <line  stroke="white" stroke-linecap="round" y1="254.438" x1="114.208" y2="254.438" stroke-width="0.36" x2="134.05"/>
    <line  stroke="white" stroke-linecap="round" y1="254.438" x1="134.05" y2="250.186" stroke-width="0.36" x2="134.05"/>
    <line  stroke="white" stroke-linecap="round" y1="244.516" x1="119.877" y2="244.516" stroke-width="0.36" x2="128.381"/>
   </g>
  </g>
  <g >
   <title >element:X</title>
   <g >
    <title >package:1X03</title>
    <line  stroke="white" stroke-linecap="round" y1="223.115" x1="2.25354" y2="221.315" stroke-width="0.576" x2="0.453543"/>
    <line  stroke="white" stroke-linecap="round" y1="221.315" x1="0.453543" y2="217.715" stroke-width="0.576" x2="0.453543"/>
    <line  stroke="white" stroke-linecap="round" y1="217.715" x1="0.453543" y2="215.915" stroke-width="0.576" x2="2.25354"/>
    <line  stroke="white" stroke-linecap="round" y1="215.915" x1="5.85354" y2="217.715" stroke-width="0.576" x2="7.65353"/>
    <line  stroke="white" stroke-linecap="round" y1="217.715" x1="7.65353" y2="221.315" stroke-width="0.576" x2="7.65353"/>
    <line  stroke="white" stroke-linecap="round" y1="221.315" x1="7.65353" y2="223.115" stroke-width="0.576" x2="5.85354"/>
    <line  stroke="white" stroke-linecap="round" y1="235.715" x1="0.453543" y2="232.115" stroke-width="0.576" x2="0.453543"/>
    <line  stroke="white" stroke-linecap="round" y1="232.115" x1="0.453543" y2="230.315" stroke-width="0.576" x2="2.25354"/>
    <line  stroke="white" stroke-linecap="round" y1="230.315" x1="5.85354" y2="232.115" stroke-width="0.576" x2="7.65353"/>
    <line  stroke="white" stroke-linecap="round" y1="230.315" x1="2.25354" y2="228.515" stroke-width="0.576" x2="0.453543"/>
    <line  stroke="white" stroke-linecap="round" y1="228.515" x1="0.453543" y2="224.915" stroke-width="0.576" x2="0.453543"/>
    <line  stroke="white" stroke-linecap="round" y1="224.915" x1="0.453543" y2="223.115" stroke-width="0.576" x2="2.25354"/>
    <line  stroke="white" stroke-linecap="round" y1="223.115" x1="5.85354" y2="224.915" stroke-width="0.576" x2="7.65353"/>
    <line  stroke="white" stroke-linecap="round" y1="224.915" x1="7.65353" y2="228.515" stroke-width="0.576" x2="7.65353"/>
    <line  stroke="white" stroke-linecap="round" y1="228.515" x1="7.65353" y2="230.315" stroke-width="0.576" x2="5.85354"/>
    <line  stroke="white" stroke-linecap="round" y1="237.515" x1="2.25354" y2="237.515" stroke-width="0.576" x2="5.85354"/>
    <line  stroke="white" stroke-linecap="round" y1="235.715" x1="0.453543" y2="237.515" stroke-width="0.576" x2="2.25354"/>
    <line  stroke="white" stroke-linecap="round" y1="237.515" x1="5.85354" y2="235.715" stroke-width="0.576" x2="7.65353"/>
    <line  stroke="white" stroke-linecap="round" y1="232.115" x1="7.65353" y2="235.715" stroke-width="0.576" x2="7.65353"/>
    <line  stroke="white" stroke-linecap="round" y1="215.915" x1="2.25354" y2="215.915" stroke-width="0.576" x2="5.85354"/>
   </g>
  </g>
  <g >
   <title >element:Y</title>
   <g >
    <title >package:1X03</title>
    <line  stroke="white" stroke-linecap="round" y1="198.708" x1="2.25354" y2="196.908" stroke-width="0.576" x2="0.453543"/>
    <line  stroke="white" stroke-linecap="round" y1="196.908" x1="0.453543" y2="193.308" stroke-width="0.576" x2="0.453543"/>
    <line  stroke="white" stroke-linecap="round" y1="193.308" x1="0.453543" y2="191.508" stroke-width="0.576" x2="2.25354"/>
    <line  stroke="white" stroke-linecap="round" y1="191.508" x1="5.85354" y2="193.308" stroke-width="0.576" x2="7.65353"/>
    <line  stroke="white" stroke-linecap="round" y1="193.308" x1="7.65353" y2="196.908" stroke-width="0.576" x2="7.65353"/>
    <line  stroke="white" stroke-linecap="round" y1="196.908" x1="7.65353" y2="198.708" stroke-width="0.576" x2="5.85354"/>
    <line  stroke="white" stroke-linecap="round" y1="211.308" x1="0.453543" y2="207.708" stroke-width="0.576" x2="0.453543"/>
    <line  stroke="white" stroke-linecap="round" y1="207.708" x1="0.453543" y2="205.908" stroke-width="0.576" x2="2.25354"/>
    <line  stroke="white" stroke-linecap="round" y1="205.908" x1="5.85354" y2="207.708" stroke-width="0.576" x2="7.65353"/>
    <line  stroke="white" stroke-linecap="round" y1="205.908" x1="2.25354" y2="204.108" stroke-width="0.576" x2="0.453543"/>
    <line  stroke="white" stroke-linecap="round" y1="204.108" x1="0.453543" y2="200.508" stroke-width="0.576" x2="0.453543"/>
    <line  stroke="white" stroke-linecap="round" y1="200.508" x1="0.453543" y2="198.708" stroke-width="0.576" x2="2.25354"/>
    <line  stroke="white" stroke-linecap="round" y1="198.708" x1="5.85354" y2="200.508" stroke-width="0.576" x2="7.65353"/>
    <line  stroke="white" stroke-linecap="round" y1="200.508" x1="7.65353" y2="204.108" stroke-width="0.576" x2="7.65353"/>
    <line  stroke="white" stroke-linecap="round" y1="204.108" x1="7.65353" y2="205.908" stroke-width="0.576" x2="5.85354"/>
    <line  stroke="white" stroke-linecap="round" y1="213.108" x1="2.25354" y2="213.108" stroke-width="0.576" x2="5.85354"/>
    <line  stroke="white" stroke-linecap="round" y1="211.308" x1="0.453543" y2="213.108" stroke-width="0.576" x2="2.25354"/>
    <line  stroke="white" stroke-linecap="round" y1="213.108" x1="5.85354" y2="211.308" stroke-width="0.576" x2="7.65353"/>
    <line  stroke="white" stroke-linecap="round" y1="207.708" x1="7.65353" y2="211.308" stroke-width="0.576" x2="7.65353"/>
    <line  stroke="white" stroke-linecap="round" y1="191.508" x1="2.25354" y2="191.508" stroke-width="0.576" x2="5.85354"/>
   </g>
  </g>
  <g >
   <title >element:Z</title>
   <g >
    <title >package:1X03</title>
    <line  stroke="white" stroke-linecap="round" y1="174.586" x1="2.25354" y2="172.786" stroke-width="0.576" x2="0.453543"/>
    <line  stroke="white" stroke-linecap="round" y1="172.786" x1="0.453543" y2="169.186" stroke-width="0.576" x2="0.453543"/>
    <line  stroke="white" stroke-linecap="round" y1="169.186" x1="0.453543" y2="167.386" stroke-width="0.576" x2="2.25354"/>
    <line  stroke="white" stroke-linecap="round" y1="167.386" x1="5.85354" y2="169.186" stroke-width="0.576" x2="7.65353"/>
    <line  stroke="white" stroke-linecap="round" y1="169.186" x1="7.65353" y2="172.786" stroke-width="0.576" x2="7.65353"/>
    <line  stroke="white" stroke-linecap="round" y1="172.786" x1="7.65353" y2="174.586" stroke-width="0.576" x2="5.85354"/>
    <line  stroke="white" stroke-linecap="round" y1="187.186" x1="0.453543" y2="183.586" stroke-width="0.576" x2="0.453543"/>
    <line  stroke="white" stroke-linecap="round" y1="183.586" x1="0.453543" y2="181.786" stroke-width="0.576" x2="2.25354"/>
    <line  stroke="white" stroke-linecap="round" y1="181.786" x1="5.85354" y2="183.586" stroke-width="0.576" x2="7.65353"/>
    <line  stroke="white" stroke-linecap="round" y1="181.786" x1="2.25354" y2="179.986" stroke-width="0.576" x2="0.453543"/>
    <line  stroke="white" stroke-linecap="round" y1="179.986" x1="0.453543" y2="176.386" stroke-width="0.576" x2="0.453543"/>
    <line  stroke="white" stroke-linecap="round" y1="176.386" x1="0.453543" y2="174.586" stroke-width="0.576" x2="2.25354"/>
    <line  stroke="white" stroke-linecap="round" y1="174.586" x1="5.85354" y2="176.386" stroke-width="0.576" x2="7.65353"/>
    <line  stroke="white" stroke-linecap="round" y1="176.386" x1="7.65353" y2="179.986" stroke-width="0.576" x2="7.65353"/>
    <line  stroke="white" stroke-linecap="round" y1="179.986" x1="7.65353" y2="181.786" stroke-width="0.576" x2="5.85354"/>
    <line  stroke="white" stroke-linecap="round" y1="188.986" x1="2.25354" y2="188.986" stroke-width="0.576" x2="5.85354"/>
    <line  stroke="white" stroke-linecap="round" y1="187.186" x1="0.453543" y2="188.986" stroke-width="0.576" x2="2.25354"/>
    <line  stroke="white" stroke-linecap="round" y1="188.986" x1="5.85354" y2="187.186" stroke-width="0.576" x2="7.65353"/>
    <line  stroke="white" stroke-linecap="round" y1="183.586" x1="7.65353" y2="187.186" stroke-width="0.576" x2="7.65353"/>
    <line  stroke="white" stroke-linecap="round" y1="167.386" x1="2.25354" y2="167.386" stroke-width="0.576" x2="5.85354"/>
   </g>
  </g>
  <line  fill="none" stroke="white" fill-opacity="1" y1="238.876" x1="181.426" y2="238.876" stroke-width="0.576" x2="181.701"/>
  <line  fill="none" stroke="white" fill-opacity="1" y1="181.276" x1="181.426" y2="181.276" stroke-width="0.576" x2="181.701"/>
  <line  fill="none" stroke="white" fill-opacity="1" y1="238.876" x1="181.701" y2="181.276" stroke-width="0.576" x2="181.701"/>
  <line  fill="none" stroke="white" fill-opacity="1" y1="179.15" x1="181.426" y2="179.15" stroke-width="0.576" x2="183.964"/>
  <line  fill="none" stroke="white" fill-opacity="1" y1="133.795" x1="181.426" y2="133.795" stroke-width="0.576" x2="183.964"/>
  <line  fill="none" stroke="white" fill-opacity="1" y1="179.15" x1="183.964" y2="133.795" stroke-width="0.576" x2="183.964"/>
  <line  fill="none" stroke="white" fill-opacity="1" y1="131.896" x1="181.426" y2="131.896" stroke-width="0.576" x2="183.964"/>
  <line  fill="none" stroke="white" fill-opacity="1" y1="112.054" x1="181.426" y2="112.054" stroke-width="0.576" x2="183.964"/>
  <line  fill="none" stroke="white" fill-opacity="1" y1="131.896" x1="183.964" y2="112.054" stroke-width="0.576" x2="183.964"/>
  <line  fill="none" stroke="white" fill-opacity="1" y1="257.977" x1="114.208" y2="257.977" stroke-width="0.576" x2="134.05"/>
  <line  fill="none" stroke="white" fill-opacity="1" y1="257.977" x1="114.208" y2="257.953" stroke-width="0.576" x2="114.208"/>
  <line  fill="none" stroke="white" fill-opacity="1" y1="257.977" x1="134.05" y2="257.953" stroke-width="0.576" x2="134.05"/>
 </g>
 <g  id="copper1">
  <g  id="copper0">
   <circle  fill="none" cx="104.4" cy="237.118" connectorname="RX" stroke="#F7BD13" r="2.052" id="connector1pad" stroke-width="1.224"/>
   <circle  fill="none" cx="140.599" cy="156.473" connectorname="A3" stroke="#F7BD13" r="1.77732" id="connector49pad" stroke-width="0.72"/>
   <circle  fill="none" cx="4.05354" cy="195.108" connectorname="Y_PWM_PIN5" stroke="#F7BD13" r="2.052" id="connector65pad" stroke-width="1.224"/>
   <circle  fill="none" cx="104.4" cy="229.918" connectorname="GND" stroke="#F7BD13" r="2.052" id="connector2pad" stroke-width="1.224"/>
   <circle  fill="none" cx="153.071" cy="206.476" connectorname="TX" stroke="#F7BD13" r="1.80708" id="connector41pad" stroke-width="0.722837"/>
   <circle  fill="none" cx="104.4" cy="222.718" connectorname="GND" stroke="#F7BD13" r="2.052" id="connector3pad" stroke-width="1.224"/>
   <circle  fill="none" cx="131.216" cy="247.351" connectorname="GND" stroke="#F7BD13" r="1.77732" id="connector57pad" stroke-width="0.72"/>
   <circle  fill="none" cx="104.4" cy="215.518" connectorname="PIN2" stroke="#F7BD13" r="2.052" id="connector4pad" stroke-width="1.224"/>
   <circle  fill="none" cx="153.071" cy="220.876" connectorname="VCC" stroke="#F7BD13" r="1.80708" id="connector37pad" stroke-width="0.722837"/>
   <circle  fill="none" cx="104.4" cy="208.318" connectorname="X_PWM_PIN3" stroke="#F7BD13" r="2.052" id="connector5pad" stroke-width="1.224"/>
   <circle  fill="none" cx="153.071" cy="192.076" connectorname="PIN16" stroke="#F7BD13" r="1.80708" id="connector45pad" stroke-width="0.722837"/>
   <circle  fill="none" cx="104.4" cy="201.118" connectorname="PIN4" stroke="#F7BD13" r="2.052" id="connector6pad" stroke-width="1.224"/>
   <circle  fill="none" cx="173.226" cy="114.888" connectorname="2" stroke="#F7BD13" r="1.77732" id="connector53pad" stroke-width="0.72"/>
   <circle  fill="none" cx="104.4" cy="193.918" connectorname="Y_PWM_PIN5" stroke="#F7BD13" r="2.052" id="connector7pad" stroke-width="1.224"/>
   <circle  fill="none" cx="4.05354" cy="226.715" connectorname="PWR_RAW" stroke="#F7BD13" r="2.052" id="connector61pad" stroke-width="1.224"/>
   <circle  fill="none" cx="104.4" cy="186.718" connectorname="Z_PWM_PIN6" stroke="#F7BD13" r="2.052" id="connector8pad" stroke-width="1.224"/>
   <circle  fill="none" cx="153.071" cy="228.076" connectorname="GND" stroke="#F7BD13" r="1.80708" id="connector35pad" stroke-width="0.722837"/>
   <circle  fill="none" cx="104.4" cy="179.518" connectorname="PIN7" stroke="#F7BD13" r="2.052" id="connector9pad" stroke-width="1.224"/>
   <circle  fill="none" cx="153.071" cy="213.676" connectorname="RX" stroke="#F7BD13" r="1.80708" id="connector39pad" stroke-width="0.722837"/>
   <circle  fill="none" cx="104.4" cy="172.318" connectorname="11" stroke="#F7BD13" r="2.052" id="connector10pad" stroke-width="1.224"/>
   <circle  fill="none" cx="153.071" cy="199.276" connectorname="RESET" stroke="#F7BD13" r="1.80708" id="connector43pad" stroke-width="0.722837"/>
   <circle  fill="none" cx="104.4" cy="165.118" connectorname="PIN9" stroke="#F7BD13" r="2.052" id="connector11pad" stroke-width="1.224"/>
   <circle  fill="none" cx="153.071" cy="184.876" connectorname="PIN10" stroke="#F7BD13" r="1.80708" id="connector47pad" stroke-width="0.722837"/>
   <circle  fill="none" cx="61.2" cy="165.118" connectorname="PIN10" stroke="#F7BD13" r="2.052" id="connector12pad" stroke-width="1.224"/>
   <circle  fill="none" cx="168.661" cy="156.473" connectorname="P$4" stroke="#F7BD13" r="1.77732" id="connector51pad" stroke-width="0.72"/>
   <circle  fill="none" cx="61.2" cy="172.318" connectorname="PIN16" stroke="#F7BD13" r="2.052" id="connector13pad" stroke-width="1.224"/>
   <circle  fill="none" cx="166.139" cy="112.054" connectorname="PE2" stroke="#F7BD13" r="2.30315" id="connector55pad" stroke-width="0.921262"/>
   <circle  fill="none" cx="61.2" cy="179.518" connectorname="15" stroke="#F7BD13" r="2.052" id="connector14pad" stroke-width="1.224"/>
   <circle  fill="none" cx="134.05" cy="240.265" connectorname="PE2" stroke="#F7BD13" r="2.30315" id="connector59pad" stroke-width="0.921262"/>
   <circle  fill="none" cx="61.2" cy="186.718" connectorname="16" stroke="#F7BD13" r="2.052" id="connector15pad" stroke-width="1.224"/>
   <circle  fill="none" cx="4.05354" cy="209.508" connectorname="GND" stroke="#F7BD13" r="2.052" id="connector63pad" stroke-width="1.224"/>
   <circle  fill="none" cx="61.2" cy="193.918" connectorname="PIN_A0" stroke="#F7BD13" r="2.052" id="connector16pad" stroke-width="1.224"/>
   <circle  fill="none" cx="4.05354" cy="178.186" connectorname="PWR_RAW" stroke="#F7BD13" r="2.052" id="connector67pad" stroke-width="1.224"/>
   <circle  fill="none" cx="61.2" cy="201.118" connectorname="PIN_A1" stroke="#F7BD13" r="2.052" id="connector17pad" stroke-width="1.224"/>
   <circle  fill="none" cx="145.871" cy="220.876" connectorname="PIN_A2" stroke="#F7BD13" r="1.80708" id="connector36pad" stroke-width="0.722837"/>
   <circle  fill="none" cx="61.2" cy="208.318" connectorname="PIN_A2" stroke="#F7BD13" r="2.052" id="connector18pad" stroke-width="1.224"/>
   <circle  fill="none" cx="145.871" cy="213.676" connectorname="PIN2" stroke="#F7BD13" r="1.80708" id="connector38pad" stroke-width="0.722837"/>
   <circle  fill="none" cx="61.2" cy="215.518" connectorname="A3" stroke="#F7BD13" r="2.052" id="connector19pad" stroke-width="1.224"/>
   <circle  fill="none" cx="145.871" cy="206.476" connectorname="PIN4" stroke="#F7BD13" r="1.80708" id="connector40pad" stroke-width="0.722837"/>
   <circle  fill="none" cx="61.2" cy="222.718" connectorname="VCC" stroke="#F7BD13" r="2.052" id="connector20pad" stroke-width="1.224"/>
   <circle  fill="none" cx="145.871" cy="199.276" connectorname="PIN7" stroke="#F7BD13" r="1.80708" id="connector42pad" stroke-width="0.722837"/>
   <circle  fill="none" cx="61.2" cy="229.918" connectorname="RESET" stroke="#F7BD13" r="2.052" id="connector21pad" stroke-width="1.224"/>
   <circle  fill="none" cx="145.871" cy="192.076" connectorname="PIN9" stroke="#F7BD13" r="1.80708" id="connector44pad" stroke-width="0.722837"/>
   <circle  fill="none" cx="61.2" cy="237.118" connectorname="GND" stroke="#F7BD13" r="2.052" id="connector22pad" stroke-width="1.224"/>
   <circle  fill="none" cx="145.871" cy="184.876" connectorname="PWR_RAW" stroke="#F7BD13" r="1.80708" id="connector46pad" stroke-width="0.722837"/>
   <circle  fill="none" cx="61.2" cy="244.318" connectorname="PWR_RAW" stroke="#F7BD13" r="2.052" id="connector23pad" stroke-width="1.224"/>
   <circle  fill="none" cx="140.599" cy="149.386" connectorname="GND" stroke="#F7BD13" r="1.77732" id="connector48pad" stroke-width="0.72"/>
   <circle  fill="none" cx="36.1418" cy="170.078" connectorname="PWR_RAW" stroke="#F7BD13" r="1.21039" id="connector24pad" stroke-width="0.72"/>
   <circle  fill="none" cx="140.599" cy="163.559" connectorname="VCC" stroke="#F7BD13" r="1.77732" id="connector50pad" stroke-width="0.72"/>
   <circle  fill="none" cx="43.2284" cy="170.078" connectorname="GND" stroke="#F7BD13" r="1.21039" id="connector25pad" stroke-width="0.72"/>
   <circle  fill="none" cx="173.226" cy="129.061" connectorname="GND" stroke="#F7BD13" r="1.77732" id="connector52pad" stroke-width="0.72"/>
   <circle  fill="none" cx="36.1418" cy="195.591" connectorname="PWR_RAW" stroke="#F7BD13" r="1.21039" id="connector26pad" stroke-width="0.72"/>
   <circle  fill="none" cx="166.139" cy="131.896" connectorname="PE1" stroke="#F7BD13" r="2.30315" id="connector54pad" stroke-width="0.921262"/>
   <circle  fill="none" cx="43.2284" cy="195.591" connectorname="GND" stroke="#F7BD13" r="1.21039" id="connector27pad" stroke-width="0.72"/>
   <circle  fill="none" cx="117.042" cy="247.351" connectorname="1" stroke="#F7BD13" r="1.77732" id="connector56pad" stroke-width="0.72"/>
   <circle  fill="none" cx="36.1418" cy="221.103" connectorname="PWR_RAW" stroke="#F7BD13" r="1.21039" id="connector28pad" stroke-width="0.72"/>
   <circle  fill="none" cx="114.208" cy="240.265" connectorname="PE1" stroke="#F7BD13" r="2.30315" id="connector58pad" stroke-width="0.921262"/>
   <circle  fill="none" cx="43.2284" cy="221.103" connectorname="GND" stroke="#F7BD13" r="1.21039" id="connector29pad" stroke-width="0.72"/>
   <circle  fill="none" cx="4.05354" cy="233.915" connectorname="GND" stroke="#F7BD13" r="2.052" id="connector60pad" stroke-width="1.224"/>
   <circle  fill="none" cx="37.7008" cy="240.095" connectorname="PWR_RAW" stroke="#F7BD13" r="1.52207" id="connector30pad" stroke-width="1.05988"/>
   <circle  fill="none" cx="4.05354" cy="219.515" connectorname="X_PWM_PIN3" stroke="#F7BD13" r="2.052" id="connector62pad" stroke-width="1.224"/>
   <circle  fill="none" cx="43.3701" cy="240.095" connectorname="GND" stroke="#F7BD13" r="1.52207" id="connector31pad" stroke-width="1.05988"/>
   <circle  fill="none" cx="4.05354" cy="202.308" connectorname="PWR_RAW" stroke="#F7BD13" r="2.052" id="connector64pad" stroke-width="1.224"/>
   <circle  fill="none" cx="145.871" cy="235.276" connectorname="PIN_A0" stroke="#F7BD13" r="1.80708" id="connector32pad" stroke-width="0.722837"/>
   <circle  fill="none" cx="4.05354" cy="185.386" connectorname="GND" stroke="#F7BD13" r="2.052" id="connector66pad" stroke-width="1.224"/>
   <circle  fill="none" cx="153.071" cy="235.276" connectorname="GND" stroke="#F7BD13" r="1.80708" id="connector33pad" stroke-width="0.722837"/>
   <circle  fill="none" cx="4.05354" cy="170.986" connectorname="Z_PWM_PIN6" stroke="#F7BD13" r="2.052" id="connector68pad" stroke-width="1.224"/>
   <circle  fill="none" cx="145.871" cy="228.076" connectorname="PIN_A1" stroke="#F7BD13" r="1.80708" id="connector34pad" stroke-width="0.722837"/>
   <circle  fill="none" cx="104.4" cy="244.318" connectorname="TX" stroke="#F7BD13" r="2.052" id="connector0pad" stroke-width="1.224"/>
  </g>
 </g>
</svg>
