<?xml version="1.0" encoding="utf-8"?>
<!-- Generator: Adobe Illustrator 16.0.0, SVG Export Plug-In . SVG Version: 6.00 Build 0)  -->
<!DOCTYPE svg PUBLIC "-//W3C//DTD SVG 1.1//EN" "http://www.w3.org/Graphics/SVG/1.1/DTD/svg11.dtd">
<svg version="1.1" id="Layer_1" xmlns="http://www.w3.org/2000/svg" xmlns:xlink="http://www.w3.org/1999/xlink" x="0px" y="0px"
	 width="72px" height="122.4px" viewBox="0 0 72 122.4" enable-background="new 0 0 72 122.4" xml:space="preserve">
<desc>Fritzing footprint generated by brd2svg</desc>
<g id="silkscreen">
	<path fill="none" stroke="#FFFFFF" stroke-width="0.576" d="M0.288,0.288h71.424v121.824H0.288V0.288z"/>
	<g>
		<title>element:JP-L</title>
		<g>
			<title>package:1X16_2MM</title>
		</g>
	</g>
	<g>
		<title>element:JP-R</title>
		<g>
			<title>package:1X16_2MM</title>
		</g>
	</g>
	<g>
		<title>element:PROTOPINS</title>
		<g>
			<title>package:1X1PROTO</title>
		</g>
	</g>
	<g>
		<title>layer 21</title>
		<g>
			<title>text:SCK</title>
			<text transform="matrix(1 0 0 1 8.2798 50.4592)" font-family="'OCRA'" font-size="2.5">SCK</text>
		</g>
		<g>
			<title>text:MISO</title>
			<text transform="matrix(1 0 0 1 8.2798 56.22)" font-family="'OCRA'" font-size="2.5">MISO</text>
		</g>
		<g>
			<title>text:RX0</title>
			<text transform="matrix(1 0 0 1 8.2798 73.1394)" font-family="'OCRA'" font-size="2.5">RX0</text>
		</g>
		<g>
			<title>text:TX0</title>
			<text transform="matrix(1 0 0 1 8.2798 78.8269)" font-family="'OCRA'" font-size="2.5">TX0</text>
		</g>
		<g>
			<title>text:D2</title>
			<text transform="matrix(1 0 0 1 8.2798 84.2996)" font-family="'OCRA'" font-size="2.5">D2</text>
		</g>
		<g>
			<title>text:D3</title>
			<text transform="matrix(1 0 0 1 8.2798 90.2039)" font-family="'OCRA'" font-size="2.5">D3</text>
		</g>
		<g>
			<title>text:D4</title>
			<text transform="matrix(1 0 0 1 8.2798 95.8191)" font-family="'OCRA'" font-size="2.5">D4</text>
		</g>
		<g>
			<title>text:D5</title>
			<text transform="matrix(1 0 0 1 8.2798 101.4363)" font-family="'OCRA'" font-size="2.5">D5</text>
		</g>
		<g>
			<title>text:D6</title>
			<text transform="matrix(1 0 0 1 8.2798 107.0515)" font-family="'OCRA'" font-size="2.5">D6</text>
		</g>
		<g>
			<title>text:D7</title>
			<text transform="matrix(1 0 0 1 8.2798 112.739)" font-family="'OCRA'" font-size="2.5">D7</text>
		</g>
		<g>
			<title>text:A7</title>
			<text transform="matrix(1 0 0 1 60.459 118.3367)" font-family="'OCRA'" font-size="2.5">A7</text>
		</g>
		<g>
			<title>text:A6</title>
			<text transform="matrix(1 0 0 1 60.459 112.9363)" font-family="'OCRA'" font-size="2.5">A6</text>
		</g>
		<g>
			<title>text:A5</title>
			<text transform="matrix(1 0 0 1 60.459 107.3914)" font-family="'OCRA'" font-size="2.5">A5</text>
		</g>
		<g>
			<title>text:A4</title>
			<text transform="matrix(1 0 0 1 60.459 101.5593)" font-family="'OCRA'" font-size="2.5">A4</text>
		</g>
		<g>
			<title>text:A3</title>
			<text transform="matrix(1 0 0 1 60.459 95.8718)" font-family="'OCRA'" font-size="2.5">A3</text>
		</g>
		<g>
			<title>text:A2</title>
			<text transform="matrix(1 0 0 1 60.459 90.1843)" font-family="'OCRA'" font-size="2.5">A2</text>
		</g>
		<g>
			<title>text:A1</title>
			<text transform="matrix(1 0 0 1 60.459 84.6394)" font-family="'OCRA'" font-size="2.5">A1</text>
		</g>
		<g>
			<title>text:A0</title>
			<text transform="matrix(1 0 0 1 60.459 78.9519)" font-family="'OCRA'" font-size="2.5">A0</text>
		</g>
		<g>
			<title>text:D8</title>
			<text transform="matrix(1 0 0 1 8.2798 118.3562)" font-family="'OCRA'" font-size="2.5">D8</text>
		</g>
		<g>
			<title>text:BKPK</title>
			<text transform="matrix(1 0 0 1 8.2798 39.0842)" font-family="'OCRA'" font-size="2.5">BKPK</text>
		</g>
		<g>
			<title>text:VUSB</title>
			<text transform="matrix(1 0 0 1 8.2798 33.467)" font-family="'OCRA'" font-size="2.5">VUSB</text>
		</g>
		<g>
			<title>text:3V3</title>
			<text transform="matrix(1 0 0 1 58.6523 33.2307)" font-family="'OCRA'" font-size="2.5">3V3</text>
		</g>
		<g>
			<title>text:GND</title>
			<text transform="matrix(1 0 0 1 58.6523 38.8489)" font-family="'OCRA'" font-size="2.5">GND</text>
		</g>
		<g>
			<title>text:RX1</title>
			<text transform="matrix(1 0 0 1 58.6523 50.2239)" font-family="'OCRA'" font-size="2.5">RX1</text>
		</g>
		<g>
			<title>text:VBAT</title>
			<text transform="matrix(1 0 0 1 56.8438 44.7532)" font-family="'OCRA'" font-size="2.5">VBAT</text>
		</g>
		<g>
			<title>text:TX1</title>
			<text transform="matrix(1 0 0 1 58.6523 56.0549)" font-family="'OCRA'" font-size="2.5">TX1</text>
		</g>
		<g>
			<title>text:SCL</title>
			<text transform="matrix(1 0 0 1 58.6523 61.8152)" font-family="'OCRA'" font-size="2.5">SCL</text>
		</g>
		<g>
			<title>text:MOSI</title>
			<text transform="matrix(1 0 0 1 8.2798 61.6194)" font-family="'OCRA'" font-size="2.5">MOSI</text>
		</g>
		<g>
			<title>text:SS</title>
			<text transform="matrix(1 0 0 1 8.2798 67.2371)" font-family="'OCRA'" font-size="2.5">SS</text>
		</g>
		<g>
			<title>text:RST</title>
			<text transform="matrix(1 0 0 1 8.2798 44.9153)" font-family="'OCRA'" font-size="2.5">RST</text>
		</g>
		<g>
			<title>text:SDA</title>
			<text transform="matrix(1 0 0 1 58.6523 67.4324)" font-family="'OCRA'" font-size="2.5">SDA</text>
		</g>
		<g>
			<title>text:AREF</title>
			<text transform="matrix(1 0 0 1 56.8438 73.0476)" font-family="'OCRA'" font-size="2.5">AREF</text>
		</g>
		<g>
			<title>element:J1</title>
			<g>
				<title>package:2X3-PAD</title>
			</g>
		</g>
		<g>
			<title>element:J2</title>
			<g>
				<title>package:2X3-PAD</title>
			</g>
		</g>
		<g>
			<title>element:J3</title>
			<g>
				<title>package:1X02</title>
			</g>
		</g>
		<g>
			<title>element:J4</title>
			<g>
				<title>package:1X02</title>
			</g>
		</g>
		<g>
			<title>element:JP-L</title>
			<g>
				<title>package:1X16_2MM</title>
			</g>
		</g>
		<g>
			<title>element:JP-R</title>
			<g>
				<title>package:1X16_2MM</title>
			</g>
		</g>
		<g>
			<title>element:L1</title>
			<g>
				<title>package:0603</title>
			</g>
		</g>
		<g>
			<title>element:R2</title>
			<g>
				<title>package:0402</title>
			</g>
		</g>
		<g>
			<title>element:R13</title>
			<g>
				<title>package:0402</title>
			</g>
		</g>
		<g>
			<title>element:S1</title>
			<g>
				<title>package:SWITCH-SPDT-SMD</title>
			</g>
		</g>
	</g>
</g>
<g id="copper1">
	<g id="copper0">
		<circle id="connector1pad" fill="none" stroke="#F7BD13" stroke-width="0.8331" cx="4.68" cy="38.07" r="1.5"/>
		<circle id="connector2pad" fill="none" stroke="#F7BD13" stroke-width="0.8331" cx="4.68" cy="43.739" r="1.5"/>
		<circle id="connector3pad" fill="none" stroke="#F7BD13" stroke-width="0.8331" cx="4.68" cy="49.407" r="1.5"/>
		<circle id="connector4pad" fill="none" stroke="#F7BD13" stroke-width="0.8334" cx="4.68" cy="55.077" r="1.5"/>
		<circle id="connector5pad" fill="none" stroke="#F7BD13" stroke-width="0.8" cx="4.68" cy="60.746" r="1.44"/>
		<circle id="connector6pad" fill="none" stroke="#F7BD13" stroke-width="0.8334" cx="4.68" cy="66.417" r="1.5"/>
		<circle id="connector7pad" fill="none" stroke="#F7BD13" stroke-width="0.8334" cx="4.68" cy="72.085" r="1.5"/>
		<circle id="connector8pad" fill="none" stroke="#F7BD13" stroke-width="0.8334" cx="4.68" cy="77.755" r="1.5"/>
		<circle id="connector9pad" fill="none" stroke="#F7BD13" stroke-width="0.8334" cx="4.68" cy="83.425" r="1.5"/>
		<circle id="connector10pad" fill="none" stroke="#F7BD13" stroke-width="0.8334" cx="4.68" cy="89.093" r="1.5"/>
		<circle id="connector11pad" fill="none" stroke="#F7BD13" stroke-width="0.8334" cx="4.68" cy="94.762" r="1.5"/>
		<circle id="connector12pad" fill="none" stroke="#F7BD13" stroke-width="0.8334" cx="4.68" cy="100.43" r="1.5"/>
		<circle id="connector13pad" fill="none" stroke="#F7BD13" stroke-width="0.8334" cx="4.68" cy="106.1" r="1.5"/>
		<circle id="connector14pad" fill="none" stroke="#F7BD13" stroke-width="0.8334" cx="4.68" cy="111.77" r="1.5"/>
		<circle id="connector15pad" fill="none" stroke="#F7BD13" stroke-width="0.8334" cx="4.68" cy="117.438" r="1.5"/>
		<circle id="connector16pad" fill="none" stroke="#F7BD13" stroke-width="0.8334" cx="67.32" cy="32.4" r="1.5"/>
		<circle id="connector17pad" fill="none" stroke="#F7BD13" stroke-width="0.8331" cx="67.32" cy="38.07" r="1.5"/>
		<circle id="connector18pad" fill="none" stroke="#F7BD13" stroke-width="0.8331" cx="67.32" cy="43.739" r="1.5"/>
		<circle id="connector19pad" fill="none" stroke="#F7BD13" stroke-width="0.8331" cx="67.32" cy="49.407" r="1.5"/>
		<circle id="connector20pad" fill="none" stroke="#F7BD13" stroke-width="0.8334" cx="67.32" cy="55.077" r="1.5"/>
		<circle id="connector21pad" fill="none" stroke="#F7BD13" stroke-width="0.8334" cx="67.32" cy="60.747" r="1.5"/>
		<circle id="connector22pad" fill="none" stroke="#F7BD13" stroke-width="0.8334" cx="67.32" cy="66.417" r="1.5"/>
		<circle id="connector23pad" fill="none" stroke="#F7BD13" stroke-width="0.8334" cx="67.32" cy="72.085" r="1.5"/>
		<circle id="connector24pad" fill="none" stroke="#F7BD13" stroke-width="0.8334" cx="67.32" cy="77.755" r="1.5"/>
		<circle id="connector25pad" fill="none" stroke="#F7BD13" stroke-width="0.8334" cx="67.32" cy="83.425" r="1.5"/>
		<circle id="connector26pad" fill="none" stroke="#F7BD13" stroke-width="0.8334" cx="67.32" cy="89.093" r="1.5"/>
		<circle id="connector27pad" fill="none" stroke="#F7BD13" stroke-width="0.8334" cx="67.32" cy="94.762" r="1.5"/>
		<circle id="connector28pad" fill="none" stroke="#F7BD13" stroke-width="0.8334" cx="67.32" cy="100.43" r="1.5"/>
		<circle id="connector29pad" fill="none" stroke="#F7BD13" stroke-width="0.8334" cx="67.32" cy="106.1" r="1.5"/>
		<circle id="connector30pad" fill="none" stroke="#F7BD13" stroke-width="0.8334" cx="67.32" cy="111.77" r="1.5"/>
		<circle id="connector31pad" fill="none" stroke="#F7BD13" stroke-width="0.8334" cx="67.32" cy="117.438" r="1.5"/>
		<circle id="connector0pad" fill="none" stroke="#F7BD13" stroke-width="0.8334" cx="4.68" cy="32.4" r="1.5"/>
		<g id="unknown">
			<circle id="connector97pad" fill="none" cx="50.4" cy="33.336" r="0" stroke-width="0"/>
			<circle id="connector81pad" fill="none" cx="43.2" cy="54.936" r="0" stroke-width="0"/>
			<circle id="connector113pad" fill="none" cx="28.8" cy="11.736" r="0" stroke-width="0"/>
			<circle id="connector89pad" fill="none" cx="28.8" cy="40.536" r="0" stroke-width="0"/>
			<circle id="connector105pad" fill="none" cx="21.6" cy="18.936" r="0" stroke-width="0"/>
			<circle id="connector121pad" fill="none" cx="36" cy="4.536" r="0" stroke-width="0"/>
			<circle id="connector85pad" fill="none" cx="36" cy="47.736" r="0" stroke-width="0"/>
			<circle id="connector93pad" fill="none" cx="21.6" cy="33.336" r="0" stroke-width="0"/>
			<circle id="connector101pad" fill="none" cx="43.2" cy="26.136" r="0" stroke-width="0"/>
			<circle id="connector109pad" fill="none" cx="50.4" cy="18.936" r="0" stroke-width="0"/>
			<circle id="connector117pad" fill="none" cx="57.6" cy="11.736" r="0" stroke-width="0"/>
			<circle id="connector125pad" fill="none" cx="64.8" cy="4.536" r="0" stroke-width="0"/>
			<circle id="connector83pad" fill="none" cx="21.6" cy="47.736" r="0" stroke-width="0"/>
			<circle id="connector87pad" fill="none" cx="50.4" cy="47.736" r="0" stroke-width="0"/>
			<circle id="connector91pad" fill="none" cx="43.2" cy="40.536" r="0" stroke-width="0"/>
			<circle id="connector95pad" fill="none" cx="36" cy="33.336" r="0" stroke-width="0"/>
			<circle id="connector99pad" fill="none" cx="28.8" cy="26.136" r="0" stroke-width="0"/>
			<circle id="connector103pad" fill="none" cx="57.6" cy="26.136" r="0" stroke-width="0"/>
			<circle id="connector107pad" fill="none" cx="36" cy="18.936" r="0" stroke-width="0"/>
			<circle id="connector111pad" fill="none" cx="14.4" cy="18.936" r="0" stroke-width="0"/>
			<circle id="connector115pad" fill="none" cx="43.2" cy="11.736" r="0" stroke-width="0"/>
			<circle id="connector119pad" fill="none" cx="21.6" cy="4.536" r="0" stroke-width="0"/>
			<circle id="connector123pad" fill="none" cx="50.4" cy="4.536" r="0" stroke-width="0"/>
			<circle id="connector127pad" fill="none" cx="14.4" cy="4.536" r="0" stroke-width="0"/>
			<circle id="connector32pad" fill="none" cx="7.2" cy="11.736" r="0" stroke-width="0"/>
			<circle id="connector33pad" fill="none" cx="7.2" cy="18.936" r="0" stroke-width="0"/>
			<circle id="connector34pad" fill="none" cx="7.2" cy="26.136" r="0" stroke-width="0"/>
			<circle id="connector35pad" fill="none" cx="64.8" cy="11.736" r="0" stroke-width="0"/>
			<circle id="connector36pad" fill="none" cx="64.8" cy="18.936" r="0" stroke-width="0"/>
			<circle id="connector37pad" fill="none" cx="64.8" cy="26.136" r="0" stroke-width="0"/>
			<circle id="connector38pad" fill="none" cx="21.6" cy="112.536" r="0" stroke-width="0"/>
			<circle id="connector39pad" fill="none" cx="28.8" cy="112.536" r="0" stroke-width="0"/>
			<circle id="connector40pad" fill="none" cx="28.8" cy="112.536" r="0" stroke-width="0"/>
			<circle id="connector82pad" fill="none" cx="50.4" cy="54.936" r="0" stroke-width="0"/>
			<circle id="connector41pad" fill="none" cx="43.2" cy="112.536" r="0" stroke-width="0"/>
			<circle id="connector84pad" fill="none" cx="28.8" cy="47.736" r="0" stroke-width="0"/>
			<circle id="connector42pad" fill="none" cx="50.4" cy="112.536" r="0" stroke-width="0"/>
			<circle id="connector86pad" fill="none" cx="43.2" cy="47.736" r="0" stroke-width="0"/>
			<circle id="connector43pad" fill="none" cx="21.6" cy="105.336" r="0" stroke-width="0"/>
			<circle id="connector88pad" fill="none" cx="21.6" cy="40.536" r="0" stroke-width="0"/>
			<circle id="connector44pad" fill="none" cx="28.8" cy="105.336" r="0" stroke-width="0"/>
			<circle id="connector90pad" fill="none" cx="36" cy="40.536" r="0" stroke-width="0"/>
			<circle id="connector45pad" fill="none" cx="36" cy="105.336" r="0" stroke-width="0"/>
			<circle id="connector92pad" fill="none" cx="50.4" cy="40.536" r="0" stroke-width="0"/>
			<circle id="connector46pad" fill="none" cx="43.2" cy="105.336" r="0" stroke-width="0"/>
			<circle id="connector94pad" fill="none" cx="28.8" cy="33.336" r="0" stroke-width="0"/>
			<circle id="connector47pad" fill="none" cx="50.4" cy="105.336" r="0" stroke-width="0"/>
			<circle id="connector96pad" fill="none" cx="43.2" cy="33.336" r="0" stroke-width="0"/>
			<circle id="connector48pad" fill="none" cx="21.6" cy="98.136" r="0" stroke-width="0"/>
			<circle id="connector98pad" fill="none" cx="21.6" cy="26.136" r="0" stroke-width="0"/>
			<circle id="connector49pad" fill="none" cx="28.8" cy="98.136" r="0" stroke-width="0"/>
			<circle id="connector100pad" fill="none" cx="36" cy="26.136" r="0" stroke-width="0"/>
			<circle id="connector50pad" fill="none" cx="36" cy="98.136" r="0" stroke-width="0"/>
			<circle id="connector102pad" fill="none" cx="50.4" cy="26.136" r="0" stroke-width="0"/>
			<circle id="connector51pad" fill="none" cx="43.2" cy="98.136" r="0" stroke-width="0"/>
			<circle id="connector104pad" fill="none" cx="14.4" cy="26.136" r="0" stroke-width="0"/>
			<circle id="connector52pad" fill="none" cx="50.4" cy="98.136" r="0" stroke-width="0"/>
			<circle id="connector106pad" fill="none" cx="28.8" cy="18.936" r="0" stroke-width="0"/>
			<circle id="connector53pad" fill="none" cx="21.6" cy="90.936" r="0" stroke-width="0"/>
			<circle id="connector108pad" fill="none" cx="43.2" cy="18.936" r="0" stroke-width="0"/>
			<circle id="connector54pad" fill="none" cx="28.8" cy="90.936" r="0" stroke-width="0"/>
			<circle id="connector110pad" fill="none" cx="57.6" cy="18.936" r="0" stroke-width="0"/>
			<circle id="connector55pad" fill="none" cx="36" cy="90.936" r="0" stroke-width="0"/>
			<circle id="connector112pad" fill="none" cx="21.6" cy="11.736" r="0" stroke-width="0"/>
			<circle id="connector56pad" fill="none" cx="43.2" cy="90.936" r="0" stroke-width="0"/>
			<circle id="connector114pad" fill="none" cx="36" cy="11.736" r="0" stroke-width="0"/>
			<circle id="connector57pad" fill="none" cx="50.4" cy="90.936" r="0" stroke-width="0"/>
			<circle id="connector116pad" fill="none" cx="50.4" cy="11.736" r="0" stroke-width="0"/>
			<circle id="connector58pad" fill="none" cx="21.6" cy="83.736" r="0" stroke-width="0"/>
			<circle id="connector118pad" fill="none" cx="14.4" cy="11.736" r="0" stroke-width="0"/>
			<circle id="connector59pad" fill="none" cx="28.8" cy="83.736" r="0" stroke-width="0"/>
			<circle id="connector120pad" fill="none" cx="28.8" cy="4.536" r="0" stroke-width="0"/>
			<circle id="connector60pad" fill="none" cx="36" cy="83.736" r="0" stroke-width="0"/>
			<circle id="connector122pad" fill="none" cx="43.2" cy="4.536" r="0" stroke-width="0"/>
			<circle id="connector61pad" fill="none" cx="43.2" cy="83.736" r="0" stroke-width="0"/>
			<circle id="connector124pad" fill="none" cx="57.6" cy="4.536" r="0" stroke-width="0"/>
			<circle id="connector62pad" fill="none" cx="50.4" cy="83.736" r="0" stroke-width="0"/>
			<circle id="connector126pad" fill="none" cx="7.2" cy="4.536" r="0" stroke-width="0"/>
			<circle id="connector63pad" fill="none" cx="21.6" cy="76.536" r="0" stroke-width="0"/>
			<circle id="connector64pad" fill="none" cx="28.8" cy="76.536" r="0" stroke-width="0"/>
			<circle id="connector65pad" fill="none" cx="36" cy="76.536" r="0" stroke-width="0"/>
			<circle id="connector66pad" fill="none" cx="43.2" cy="76.536" r="0" stroke-width="0"/>
			<circle id="connector67pad" fill="none" cx="50.4" cy="76.536" r="0" stroke-width="0"/>
			<circle id="connector68pad" fill="none" cx="21.6" cy="69.336" r="0" stroke-width="0"/>
			<circle id="connector69pad" fill="none" cx="28.8" cy="69.336" r="0" stroke-width="0"/>
			<circle id="connector70pad" fill="none" cx="36" cy="69.336" r="0" stroke-width="0"/>
			<circle id="connector71pad" fill="none" cx="43.2" cy="69.336" r="0" stroke-width="0"/>
			<circle id="connector72pad" fill="none" cx="50.4" cy="69.336" r="0" stroke-width="0"/>
			<circle id="connector73pad" fill="none" cx="21.6" cy="62.136" r="0" stroke-width="0"/>
			<circle id="connector74pad" fill="none" cx="28.8" cy="62.136" r="0" stroke-width="0"/>
			<circle id="connector75pad" fill="none" cx="36" cy="62.136" r="0" stroke-width="0"/>
			<circle id="connector76pad" fill="none" cx="43.2" cy="62.136" r="0" stroke-width="0"/>
			<circle id="connector77pad" fill="none" cx="50.4" cy="62.136" r="0" stroke-width="0"/>
			<circle id="connector78pad" fill="none" cx="21.6" cy="54.936" r="0" stroke-width="0"/>
			<circle id="connector79pad" fill="none" cx="28.8" cy="54.936" r="0" stroke-width="0"/>
			<circle id="connector80pad" fill="none" cx="36" cy="54.936" r="0" stroke-width="0"/>
		</g>
	</g>
</g>
</svg>
