<?xml version="1.0" encoding="utf-8"?>
<!-- Generator: Adobe Illustrator 16.0.0, SVG Export Plug-In . SVG Version: 6.00 Build 0)  -->
<!DOCTYPE svg PUBLIC "-//W3C//DTD SVG 1.1//EN" "http://www.w3.org/Graphics/SVG/1.1/DTD/svg11.dtd">
<svg version="1.1" id="Layer_1" xmlns="http://www.w3.org/2000/svg" xmlns:xlink="http://www.w3.org/1999/xlink" x="0px" y="0px"
	 width="72.426px" height="147.834px" viewBox="0 0 72.426 147.834" enable-background="new 0 0 72.426 147.834"
	 xml:space="preserve">
<desc>Fritzing footprint generated by brd2svg</desc>
<g id="silkscreen">
	<path fill="none" stroke="#FFFFFF" stroke-width="0.576" d="M50.288,147.546H21.716L0.288,126.03V4.107h71.427V126.03
		L50.288,147.546 M64.352,11.609c0,0.545,0.442,0.987,0.988,0.987c0.545,0,0.987-0.442,0.987-0.987c0-0.546-0.442-0.988-0.987-0.988
		C64.794,10.621,64.352,11.063,64.352,11.609z M64.352,20.113c0,0.545,0.442,0.987,0.988,0.987c0.545,0,0.987-0.442,0.987-0.987
		s-0.442-0.988-0.987-0.988C64.794,19.125,64.352,19.567,64.352,20.113z"/>
	<g>
		<title>element:J3</title>
		<g>
			<title>package:1X02</title>
		</g>
	</g>
	<g>
		<title>element:J4</title>
		<g>
			<title>package:1X02</title>
		</g>
	</g>
	<g>
		<title>element:JP-L</title>
		<g>
			<title>package:1X16_2MM</title>
		</g>
	</g>
	<g>
		<title>element:JP-R</title>
		<g>
			<title>package:1X16_2MM</title>
		</g>
	</g>
	<g>
		<title>element:JST</title>
		<g>
			<title>package:JST-SFH</title>
			
				<line fill="none" stroke="#FFFFFF" stroke-width="0.576" stroke-linecap="round" x1="16.252" y1="16.204" x2="16.252" y2="23.007"/>
			<line fill="none" stroke="#FFFFFF" stroke-width="0.576" stroke-linecap="round" x1="12.851" y1="28.11" x2="4.914" y2="28.11"/>
			
				<line fill="none" stroke="#FFFFFF" stroke-width="0.576" stroke-linecap="round" x1="1.512" y1="23.007" x2="1.512" y2="16.204"/>
			
				<line fill="none" stroke="#FFFFFF" stroke-width="0.576" stroke-linecap="round" x1="4.347" y1="10.818" x2="13.417" y2="10.818"/>
		</g>
	</g>
	<g>
		<title>element:S1</title>
		<g>
			<title>package:SWITCH-SPDT-SMD</title>
		</g>
	</g>
	<g>
		<title>element:USB-JACK</title>
		<g>
			<title>package:USB-MICROB</title>
			
				<line fill="none" stroke="#FFFFFF" stroke-width="0.576" stroke-linecap="round" x1="42.094" y1="16.017" x2="41.102" y2="16.017"/>
			
				<line fill="none" stroke="#FFFFFF" stroke-width="0.576" stroke-linecap="round" x1="30.047" y1="16.017" x2="30.897" y2="16.017"/>
			
				<line fill="none" stroke="#FFFFFF" stroke-width="0.576" stroke-linecap="round" x1="46.772" y1="11.198" x2="46.772" y2="12.19"/>
			
				<line fill="none" stroke="#FFFFFF" stroke-width="0.576" stroke-linecap="round" x1="25.229" y1="11.198" x2="25.229" y2="12.19"/>
		</g>
	</g>
	<line fill="none" stroke="#FFFFFF" stroke-width="0.576" x1="72" y1="26.207" x2="72.139" y2="26.207"/>
	<line fill="none" stroke="#FFFFFF" stroke-width="0.576" x1="72" y1="5.798" x2="72.139" y2="5.798"/>
	<line fill="none" stroke="#FFFFFF" stroke-width="0.576" x1="72.139" y1="26.207" x2="72.139" y2="5.798"/>
	<line fill="none" stroke="#FFFFFF" stroke-width="0.576" x1="24.52" y1="0.288" x2="47.622" y2="0.288"/>
	<line fill="none" stroke="#FFFFFF" stroke-width="0.576" x1="24.52" y1="3.834" x2="24.52" y2="0.288"/>
	<line fill="none" stroke="#FFFFFF" stroke-width="0.576" x1="47.622" y1="3.834" x2="47.622" y2="0.288"/>
	<g>
		<title>layer 21</title>
		<g>
			<title>text:SCK</title>
			<text transform="matrix(1 0 0 1 8.2798 54.3193)" font-family="'OCRA'" font-size="2.5">SCK</text>
		</g>
		<g>
			<title>text:MISO</title>
			<text transform="matrix(1 0 0 1 8.2798 60.0801)" font-family="'OCRA'" font-size="2.5">MISO</text>
		</g>
		<g>
			<title>text:RX0</title>
			<text transform="matrix(1 0 0 1 8.2798 76.999)" font-family="'OCRA'" font-size="2.5">RX0</text>
		</g>
		<g>
			<title>text:TX0</title>
			<text transform="matrix(1 0 0 1 8.2798 82.6865)" font-family="'OCRA'" font-size="2.5">TX0</text>
		</g>
		<g>
			<title>text:D2</title>
			<text transform="matrix(1 0 0 1 8.2798 88.1592)" font-family="'OCRA'" font-size="2.5">D2</text>
		</g>
		<g>
			<title>text:D3</title>
			<text transform="matrix(1 0 0 1 8.2798 94.0635)" font-family="'OCRA'" font-size="2.5">D3</text>
		</g>
		<g>
			<title>text:D4</title>
			<text transform="matrix(1 0 0 1 8.2798 99.6787)" font-family="'OCRA'" font-size="2.5">D4</text>
		</g>
		<g>
			<title>text:D5</title>
			<text transform="matrix(1 0 0 1 8.2798 105.2959)" font-family="'OCRA'" font-size="2.5">D5</text>
		</g>
		<g>
			<title>text:D6</title>
			<text transform="matrix(1 0 0 1 8.2798 110.9111)" font-family="'OCRA'" font-size="2.5">D6</text>
		</g>
		<g>
			<title>text:D7</title>
			<text transform="matrix(1 0 0 1 8.2798 116.5986)" font-family="'OCRA'" font-size="2.5">D7</text>
		</g>
		<g>
			<title>text:A7</title>
			<text transform="matrix(1 0 0 1 60.4595 122.1963)" font-family="'OCRA'" font-size="2.5">A7</text>
		</g>
		<g>
			<title>text:A6</title>
			<text transform="matrix(1 0 0 1 60.4595 116.7959)" font-family="'OCRA'" font-size="2.5">A6</text>
		</g>
		<g>
			<title>text:A5</title>
			<text transform="matrix(1 0 0 1 60.4595 111.251)" font-family="'OCRA'" font-size="2.5">A5</text>
		</g>
		<g>
			<title>text:A4</title>
			<text transform="matrix(1 0 0 1 60.4595 105.4189)" font-family="'OCRA'" font-size="2.5">A4</text>
		</g>
		<g>
			<title>text:A3</title>
			<text transform="matrix(1 0 0 1 60.4595 99.7314)" font-family="'OCRA'" font-size="2.5">A3</text>
		</g>
		<g>
			<title>text:A2</title>
			<text transform="matrix(1 0 0 1 60.4595 94.0439)" font-family="'OCRA'" font-size="2.5">A2</text>
		</g>
		<g>
			<title>text:A1</title>
			<text transform="matrix(1 0 0 1 60.4595 88.499)" font-family="'OCRA'" font-size="2.5">A1</text>
		</g>
		<g>
			<title>text:A0</title>
			<text transform="matrix(1 0 0 1 60.4595 82.8115)" font-family="'OCRA'" font-size="2.5">A0</text>
		</g>
		<g>
			<title>text:D8</title>
			<text transform="matrix(1 0 0 1 8.2798 122.2158)" font-family="'OCRA'" font-size="2.5">D8</text>
		</g>
		<g>
			<title>text:BKPK</title>
			<text transform="matrix(1 0 0 1 8.2798 42.9443)" font-family="'OCRA'" font-size="2.5">BKPK</text>
		</g>
		<g>
			<title>text:VUSB</title>
			<text transform="matrix(1 0 0 1 8.2798 37.3271)" font-family="'OCRA'" font-size="2.5">VUSB</text>
		</g>
		<g>
			<title>text:3V3</title>
			<text transform="matrix(1 0 0 1 58.6528 37.0908)" font-family="'OCRA'" font-size="2.5">3V3</text>
		</g>
		<g>
			<title>text:GND</title>
			<text transform="matrix(1 0 0 1 58.6528 42.709)" font-family="'OCRA'" font-size="2.5">GND</text>
		</g>
		<g>
			<title>text:RX1</title>
			<text transform="matrix(1 0 0 1 58.6528 54.084)" font-family="'OCRA'" font-size="2.5">RX1</text>
		</g>
		<g>
			<title>text:VBAT</title>
			<text transform="matrix(1 0 0 1 56.8442 48.6133)" font-family="'OCRA'" font-size="2.5">VBAT</text>
		</g>
		<g>
			<title>text:TX1</title>
			<text transform="matrix(1 0 0 1 58.6528 59.915)" font-family="'OCRA'" font-size="2.5">TX1</text>
		</g>
		<g>
			<title>text:SCL</title>
			<text transform="matrix(1 0 0 1 58.6528 65.6748)" font-family="'OCRA'" font-size="2.5">SCL</text>
		</g>
		<g>
			<title>text:MOSI</title>
			<text transform="matrix(1 0 0 1 8.2798 65.4795)" font-family="'OCRA'" font-size="2.5">MOSI</text>
		</g>
		<g>
			<title>text:SS</title>
			<text transform="matrix(1 0 0 1 8.2798 71.0967)" font-family="'OCRA'" font-size="2.5">SS</text>
		</g>
		<g>
			<title>text:RST</title>
			<text transform="matrix(1 0 0 1 8.2798 48.7754)" font-family="'OCRA'" font-size="2.5">RST</text>
		</g>
		<g>
			<title>text:SDA</title>
			<text transform="matrix(1 0 0 1 58.6528 71.292)" font-family="'OCRA'" font-size="2.5">SDA</text>
		</g>
		<g>
			<title>text:AREF</title>
			<text transform="matrix(1 0 0 1 56.8442 76.9072)" font-family="'OCRA'" font-size="2.5">AREF</text>
		</g>
		<g>
			<title>element:J1</title>
			<g>
				<title>package:2X3-PAD</title>
			</g>
		</g>
		<g>
			<title>element:J2</title>
			<g>
				<title>package:2X3-PAD</title>
			</g>
		</g>
		<g>
			<title>element:J3</title>
			<g>
				<title>package:1X02</title>
			</g>
		</g>
		<g>
			<title>element:J4</title>
			<g>
				<title>package:1X02</title>
			</g>
		</g>
		<g>
			<title>element:JP-L</title>
			<g>
				<title>package:1X16_2MM</title>
			</g>
		</g>
		<g>
			<title>element:JP-R</title>
			<g>
				<title>package:1X16_2MM</title>
			</g>
		</g>
		<g>
			<title>element:L1</title>
			<g>
				<title>package:0603</title>
			</g>
		</g>
		<g>
			<title>element:R2</title>
			<g>
				<title>package:0402</title>
			</g>
		</g>
		<g>
			<title>element:R13</title>
			<g>
				<title>package:0402</title>
			</g>
		</g>
		<g>
			<title>element:S1</title>
			<g>
				<title>package:SWITCH-SPDT-SMD</title>
			</g>
		</g>
	</g>
</g>
<g id="copper1">
	<g id="copper0">
		<circle id="connector62pad" fill="none" stroke="#F7BD13" stroke-width="1.2" cx="59.077" cy="29.755" r="2.052"/>
		<circle id="connector63pad" fill="none" stroke="#F7BD13" stroke-width="1.2" cx="66.276" cy="29.755" r="2.052"/>
		<circle id="connector64pad" fill="none" stroke="#F7BD13" stroke-width="1.2" cx="8.928" cy="16.074" r="2.052"/>
		<circle id="connector65pad" fill="none" stroke="#F7BD13" stroke-width="1.2" cx="8.928" cy="23.275" r="2.052"/>
		<circle id="connector66pad" fill="none" stroke="#F7BD13" stroke-width="0.96" cx="4.68" cy="36.234" r="1.728"/>
		<circle id="connector67pad" fill="none" stroke="#F7BD13" stroke-width="0.96" cx="4.68" cy="41.904" r="1.728"/>
		<circle id="connector68pad" fill="none" stroke="#F7BD13" stroke-width="0.96" cx="4.68" cy="47.573" r="1.728"/>
		<circle id="connector69pad" fill="none" stroke="#F7BD13" stroke-width="0.96" cx="4.68" cy="53.242" r="1.728"/>
		<circle id="connector70pad" fill="none" stroke="#F7BD13" stroke-width="0.96" cx="4.68" cy="58.912" r="1.728"/>
		<circle id="connector71pad" fill="none" stroke="#F7BD13" stroke-width="0.96" cx="4.68" cy="64.581" r="1.728"/>
		<circle id="connector72pad" fill="none" stroke="#F7BD13" stroke-width="0.96" cx="4.68" cy="70.25" r="1.728"/>
		<circle id="connector73pad" fill="none" stroke="#F7BD13" stroke-width="0.96" cx="4.68" cy="75.92" r="1.729"/>
		<circle id="connector74pad" fill="none" stroke="#F7BD13" stroke-width="0.96" cx="4.68" cy="81.589" r="1.728"/>
		<circle id="connector75pad" fill="none" stroke="#F7BD13" stroke-width="0.96" cx="4.68" cy="87.258" r="1.728"/>
		<circle id="connector76pad" fill="none" stroke="#F7BD13" stroke-width="0.96" cx="4.68" cy="92.928" r="1.729"/>
		<circle id="connector77pad" fill="none" stroke="#F7BD13" stroke-width="0.96" cx="4.68" cy="98.597" r="1.728"/>
		<circle id="connector78pad" fill="none" stroke="#F7BD13" stroke-width="0.96" cx="4.68" cy="104.266" r="1.728"/>
		<circle id="connector79pad" fill="none" stroke="#F7BD13" stroke-width="0.96" cx="4.68" cy="109.935" r="1.728"/>
		<circle id="connector80pad" fill="none" stroke="#F7BD13" stroke-width="0.96" cx="4.68" cy="115.605" r="1.728"/>
		<circle id="connector81pad" fill="none" stroke="#F7BD13" stroke-width="0.96" cx="4.68" cy="121.274" r="1.728"/>
		<circle id="connector82pad" fill="none" stroke="#F7BD13" stroke-width="0.96" cx="67.32" cy="36.234" r="1.728"/>
		<circle id="connector83pad" fill="none" stroke="#F7BD13" stroke-width="0.96" cx="67.32" cy="41.904" r="1.728"/>
		<circle id="connector84pad" fill="none" stroke="#F7BD13" stroke-width="0.96" cx="67.32" cy="47.573" r="1.728"/>
		<circle id="connector85pad" fill="none" stroke="#F7BD13" stroke-width="0.96" cx="67.32" cy="53.242" r="1.728"/>
		<circle id="connector86pad" fill="none" stroke="#F7BD13" stroke-width="0.96" cx="67.32" cy="58.912" r="1.728"/>
		<circle id="connector87pad" fill="none" stroke="#F7BD13" stroke-width="0.96" cx="67.32" cy="64.581" r="1.728"/>
		<circle id="connector88pad" fill="none" stroke="#F7BD13" stroke-width="0.96" cx="67.32" cy="70.25" r="1.728"/>
		<circle id="connector89pad" fill="none" stroke="#F7BD13" stroke-width="0.96" cx="67.32" cy="75.92" r="1.729"/>
		<circle id="connector90pad" fill="none" stroke="#F7BD13" stroke-width="0.96" cx="67.32" cy="81.589" r="1.728"/>
		<circle id="connector91pad" fill="none" stroke="#F7BD13" stroke-width="0.96" cx="67.32" cy="87.258" r="1.728"/>
		<circle id="connector92pad" fill="none" stroke="#F7BD13" stroke-width="0.96" cx="67.32" cy="92.928" r="1.729"/>
		<circle id="connector93pad" fill="none" stroke="#F7BD13" stroke-width="0.96" cx="67.32" cy="98.597" r="1.728"/>
		<circle id="connector94pad" fill="none" stroke="#F7BD13" stroke-width="0.96" cx="67.32" cy="104.266" r="1.728"/>
		<circle id="connector95pad" fill="none" stroke="#F7BD13" stroke-width="0.96" cx="67.32" cy="109.935" r="1.728"/>
		<circle id="connector96pad" fill="none" stroke="#F7BD13" stroke-width="0.96" cx="67.32" cy="115.605" r="1.728"/>
		<circle id="connector97pad" fill="none" stroke="#F7BD13" stroke-width="0.96" cx="67.32" cy="121.274" r="1.728"/>
	</g>
</g>
</svg>
