<?xml version='1.0' encoding='UTF-8' standalone='no'?>
<!-- Created with Inkscape (http://www.inkscape.org/) -->
<svg xmlns="http://www.w3.org/2000/svg"  width="68.696419" xml:space="preserve" xmlns:xml="http://www.w3.org/XML/1998/namespace" version="1.2" height="72.681747" viewBox="0 0 68.696416 72.681746" id="0">
 <desc   id="0.0" oldid="0.0">
  <referenceFile   id="0.0.0" oldid="0.0.0">Powercell_PCB.svg</referenceFile>
 </desc>
 <metadata   id="0.1" oldid="0.1">
  <rdf:RDF xmlns:rdf="http://www.w3.org/1999/02/22-rdf-syntax-ns#"  id="0.1.0" oldid="0.1.0">
   <cc:Work xmlns:cc="http://creativecommons.org/ns#"  rdf:about="" xmlns:rdf="http://www.w3.org/1999/02/22-rdf-syntax-ns#" id="0.1.0.0" oldid="0.1.0.0">
    <dc:format xmlns:dc="http://purl.org/dc/elements/1.1/"  id="0.1.0.0.0" oldid="0.1.0.0.0">image/svg+xml</dc:format>
    <dc:type xmlns:dc="http://purl.org/dc/elements/1.1/"  id="0.1.0.0.1" oldid="0.1.0.0.1" rdf:resource="http://purl.org/dc/dcmitype/StillImage" xmlns:rdf="http://www.w3.org/1999/02/22-rdf-syntax-ns#"/>
    <dc:title xmlns:dc="http://purl.org/dc/elements/1.1/"  id="0.1.0.0.2" oldid="0.1.0.0.2"/>
   </cc:Work>
  </rdf:RDF>
 </metadata>
 <defs   id="0.2" oldid="0.2"/>
 <g   style="display:inline" id="layer4">
  <g   id="silkscreen" transform="translate(-0.21777019,0.2177698)">
   <path  stroke-opacity="1" fill="none"  stroke="#ffffff" style="stroke-miterlimit:4;stroke-dasharray:none" id="rect8880" stroke-width="0.89999998" d="m 4.5431917,0.34631757 0,72.15624943 63.9687483,0 0,-72.15624943 -63.9687483,0 z M 11.949441,2.6588175 c 2.59706,0 4.71875,2.12169 4.71875,4.7187501 0,2.5970506 -2.12169,4.6875004 -4.71875,4.6875004 -2.5970598,0 -4.6874998,-2.0904498 -4.6874998,-4.6875004 0,-2.5970601 2.09044,-4.7187501 4.6874998,-4.7187501 z m 50.781249,0.15625 c 2.59706,0 4.6875,2.12169 4.6875,4.71875 0,2.5970505 -2.09044,4.6875005 -4.6875,4.6875005 -2.59706,0 -4.71875,-2.09045 -4.71875,-4.6875005 0,-2.59706 2.12169,-4.71875 4.71875,-4.71875 z M 11.886941,60.158817 c 2.59706,0 4.6875,2.09044 4.6875,4.6875 0,2.59705 -2.09044,4.71875 -4.6875,4.71875 -2.5970598,0 -4.7187498,-2.1217 -4.7187498,-4.71875 0,-2.59706 2.12169,-4.6875 4.7187498,-4.6875 z m 50.749999,0.15625 c 2.59706,0 4.6875,2.09044 4.6875,4.6875 0,2.59705 -2.09044,4.71875 -4.6875,4.71875 -2.59706,0 -4.71875,-2.1217 -4.71875,-4.71875 0,-2.59706 2.12169,-4.6875 4.71875,-4.6875 z"/>
   <path  stroke-opacity="1" fill="none"  stroke="#ffffff" style="stroke-miterlimit:4;stroke-dashoffset:0" id="path10348" stroke-width="0.89999998" d="m 35.368378,72.046217 -2.93262,0.0149 -2.0842,-2.06316 -0.0149,-2.93262 2.06317,-2.0842 2.93261,-0.0149 2.12125,2.08112 2.10022,-2.06625 2.93262,-0.0149 2.084199,2.06316 0.0149,2.93262 -2.063159,2.0842 -2.93262,0.0149 -2.12126,-2.08112 z"/>
   <path  stroke-opacity="1" fill="none"  stroke="#ffffff" style="stroke-miterlimit:4;stroke-dashoffset:0" id="path10348-8-7" stroke-width="0.89999998" d="m 23.344698,2.3604975 2.16357,-2.06622988 2.93262,-0.0149 2.09862,2.08112988 2.07758,-2.06622988 2.93262,-0.0149 2.21328,2.08112988 2.19224,-2.06622988 2.93262,-0.0149 2.155939,2.08112988 2.13491,-2.06622988 2.93262,-0.0149 2.0842,2.06315998 0.0149,2.9326199 -2.06316,2.0842001 -2.93262,0.0149 -2.15595,-2.0811401 -2.134899,2.0662401 -2.93262,0.0149 -2.21328,-2.0811401 -2.19224,2.0662401 -2.93262,0.0149 -2.09862,-2.0811401 -2.07758,2.0662401 -2.93262,0.0149 -2.18461,-2.0811401 z"/>
   <g  xml:space="preserve" xmlns:xml="http://www.w3.org/XML/1998/namespace" fill="#000000"  stroke="none" style="font-style:normal;font-weight:normal;line-height:125%;letter-spacing:0px;word-spacing:0px;font-family:Droid Sans" fill-opacity="1" id="text7758" font-size="8">
    <text  x="28.956619" y="63.290493"  style="font-size:4px;font-style:normal;font-variant:normal;font-weight:normal;font-stretch:normal;fill:#ffffff;font-family:OCRA;-inkscape-font-specification:OCRA" id="tspan7760">charge</text>
   </g>
   <g  xml:space="preserve" xmlns:xml="http://www.w3.org/XML/1998/namespace" fill="#000000"  stroke="none" style="font-style:normal;font-weight:normal;line-height:125%;letter-spacing:0px;word-spacing:0px;font-family:Droid Sans" fill-opacity="1" id="text7758-9" font-size="8">
    <text  x="20.838181" y="70.557144"  style="font-size:6px;font-style:normal;font-variant:normal;font-weight:normal;font-stretch:normal;fill:#ffffff;font-family:OCRA;-inkscape-font-specification:OCRA" id="tspan7760-2">5V</text>
   </g>
   <g  xml:space="preserve" xmlns:xml="http://www.w3.org/XML/1998/namespace" fill="#000000"  stroke="none" style="font-style:normal;font-weight:normal;line-height:125%;letter-spacing:0px;word-spacing:0px;font-family:Droid Sans" fill-opacity="1" id="text7758-9-7" font-size="8">
    <text  x="45.165367" y="70.555923"  style="font-size:6px;font-style:normal;font-variant:normal;font-weight:normal;font-stretch:normal;fill:#ffffff;font-family:OCRA;-inkscape-font-specification:OCRA" id="tspan7760-2-9">GND</text>
   </g>
   <g  xml:space="preserve" xmlns:xml="http://www.w3.org/XML/1998/namespace" fill="#000000"  stroke="none" style="font-style:normal;font-weight:normal;line-height:125%;letter-spacing:0px;word-spacing:0px;font-family:Droid Sans" fill-opacity="1" id="text7758-9-7-5" font-size="5.9792">
    <text  x="38.200706" y="12.270544"  style="font-size:4.48439932px;font-style:normal;font-variant:normal;font-weight:normal;font-stretch:normal;fill:#ffffff;font-family:OCRA;-inkscape-font-specification:OCRA" id="tspan7760-2-9-4">GND</text>
   </g>
   <g  xml:space="preserve" xmlns:xml="http://www.w3.org/XML/1998/namespace" fill="#000000"  stroke="none" style="font-style:normal;font-weight:normal;line-height:125%;letter-spacing:0px;word-spacing:0px;font-family:Droid Sans" fill-opacity="1" id="text7758-9-7-5-3" font-size="5.9792">
    <text  x="27.360245" y="12.313419"  style="font-size:4.48439932px;font-style:normal;font-variant:normal;font-weight:normal;font-stretch:normal;fill:#ffffff;font-family:OCRA;-inkscape-font-specification:OCRA" id="tspan7760-2-9-4-1">VCC</text>
   </g>
   <g  xml:space="preserve" xmlns:xml="http://www.w3.org/XML/1998/namespace" fill="#000000"  stroke="none" style="font-style:normal;font-weight:normal;line-height:125%;letter-spacing:0px;word-spacing:0px;font-family:Droid Sans" fill-opacity="1" id="text7758-9-7-5-3-2" font-size="5.9792">
    <text  x="16.302446" y="4.4709516"  style="font-size:4.48439932px;font-style:normal;font-variant:normal;font-weight:normal;font-stretch:normal;fill:#ffffff;font-family:OCRA;-inkscape-font-specification:OCRA" id="tspan7760-2-9-4-1-3">PS</text>
   </g>
   <g  xml:space="preserve" xmlns:xml="http://www.w3.org/XML/1998/namespace" fill="#000000"  stroke="none" style="font-style:normal;font-weight:normal;line-height:125%;letter-spacing:0px;word-spacing:0px;font-family:Droid Sans" fill-opacity="1" id="text7758-9-7-5-3-2-3" font-size="5.9792">
    <text  x="52.839684" y="4.4794965"  style="font-size:4.48439932px;font-style:normal;font-variant:normal;font-weight:normal;font-stretch:normal;fill:#ffffff;font-family:OCRA;-inkscape-font-specification:OCRA" id="tspan7760-2-9-4-1-3-4">EN</text>
   </g>
  </g>
 </g>
 <g   style="display:inline" id="layer3">
  <g   id="copper0">
   <g   id="0.4.0.0" transform="matrix(1.25,0,0,1.25,16.136599,-1.4025702)">
    <circle  fill="none" cx="25.92"  cy="4.3200002" stroke="#ffbf00" id="connector26pin" r="1.584" stroke-width="1.15199995" d="m 27.504,4.3200002 c 0,0.874819 -0.709181,1.584 -1.584,1.584 -0.874819,0 -1.584,-0.709181 -1.584,-1.584 0,-0.8748191 0.709181,-1.584 1.584,-1.584 0.874819,0 1.584,0.7091809 1.584,1.584 z"/>
   </g>
   <g   id="0.4.0.1" transform="matrix(1.25,0,0,1.25,8.9131289,-1.4025702)">
    <circle  fill="none" cx="25.92"  cy="4.3200002" stroke="#ffbf00" id="connector24pin" r="1.584" stroke-width="1.15199995" d="m 27.504,4.3200002 c 0,0.874819 -0.709181,1.584 -1.584,1.584 -0.874819,0 -1.584,-0.709181 -1.584,-1.584 0,-0.8748191 0.709181,-1.584 1.584,-1.584 0.874819,0 1.584,0.7091809 1.584,1.584 z"/>
   </g>
   <g   id="0.4.0.2" transform="matrix(1.25,0,0,1.25,1.5749939,-1.4025702)">
    <circle  fill="none" cx="25.92"  cy="4.3200002" stroke="#ffbf00" id="connector23pin" r="1.584" stroke-width="1.15199995" d="m 27.504,4.3200002 c 0,0.874819 -0.709181,1.584 -1.584,1.584 -0.874819,0 -1.584,-0.709181 -1.584,-1.584 0,-0.8748191 0.709181,-1.584 1.584,-1.584 0.874819,0 1.584,0.7091809 1.584,1.584 z"/>
   </g>
   <g   id="0.4.0.3" transform="matrix(1.25,0,0,1.25,-5.5338211,-1.4025702)">
    <circle  fill="none" cx="25.92"  cy="4.3200002" stroke="#ffbf00" id="connector25pin" r="1.584" stroke-width="1.15199995" d="m 27.504,4.3200002 c 0,0.874819 -0.709181,1.584 -1.584,1.584 -0.874819,0 -1.584,-0.709181 -1.584,-1.584 0,-0.8748191 0.709181,-1.584 1.584,-1.584 0.874819,0 1.584,0.7091809 1.584,1.584 z"/>
   </g>
   <g   id="0.4.0.4" transform="matrix(1.25,0,0,1.25,8.5118089,63.28427)">
    <circle  fill="none" cx="25.92"  cy="4.3200002" stroke="#ffbf00" id="connector22pin" r="1.584" stroke-width="1.15199995" d="m 27.504,4.3200002 c 0,0.874819 -0.709181,1.584 -1.584,1.584 -0.874819,0 -1.584,-0.709181 -1.584,-1.584 0,-0.8748191 0.709181,-1.584 1.584,-1.584 0.874819,0 1.584,0.7091809 1.584,1.584 z"/>
   </g>
   <g   id="0.4.0.5" transform="matrix(1.25,0,0,1.25,1.3577189,63.28427)">
    <circle  fill="none" cx="25.92"  cy="4.3200002" stroke="#ffbf00" id="connector21pin" r="1.584" stroke-width="1.15199995" d="m 27.504,4.3200002 c 0,0.874819 -0.709181,1.584 -1.584,1.584 -0.874819,0 -1.584,-0.709181 -1.584,-1.584 0,-0.8748191 0.709181,-1.584 1.584,-1.584 0.874819,0 1.584,0.7091809 1.584,1.584 z"/>
   </g>
  </g>
 </g>
</svg>
