<?xml version='1.0' encoding='utf-8'?>
<!DOCTYPE svg>
<!-- Generator: Adobe Illustrator 17.0.0, SVG Export Plug-In . SVG Version: 6.00 Build 0)  -->
<svg xmlns="http://www.w3.org/2000/svg" width="0.597083in" x="0px" version="1.1" y="0px" gorn="0"  height="0.601083in" viewBox="0 0 42.99 43.278" xmlns:xml="http://www.w3.org/XML/1998/namespace" id="Layer_1" enable-background="new 0 0 42.99 43.278" xml:space="preserve">
    <desc >
        <referenceFile >ML8511_Breakout_pcb.svg</referenceFile>
    </desc>
    <desc >Fritzing footprint generated by brd2svg</desc>
    <g gorn="0.2"  id="silkscreen">
        <path fill="none"  stroke="#FFFFFF" stroke-width="0.576" d="M42.99,42.99 M36.078,31.686c2.426-0.002,4.393,1.964,4.395,4.389s-1.964,4.393-4.389,4.395c-0.002,0-0.004,0-0.006,0c-2.426,0-4.392-1.966-4.392-4.392C31.686,33.652,33.652,31.686,36.078,31.686z M36.078,2.886c2.426,0,4.392,1.966,4.392,4.392s-1.966,4.392-4.392,4.392s-4.392-1.966-4.392-4.392S33.653,2.886,36.078,2.886z"/>
        <g >
            <title >element:JP2</title>
            <g >
                <title >package:STAND-OFF</title>
            </g>
        </g>
        <g >
            <title >element:JP3</title>
            <g >
                <title >package:STAND-OFF</title>
            </g>
        </g>
        <g >
            <title >element:JP4</title>
            <g >
                <title >package:1X06</title>
                <path fill="none"  stroke="#FFFFFF" stroke-linecap="round" stroke-width="0.576" d="M5.444,36.078"/>
                <line fill="none"  stroke="#FFFFFF" stroke-linecap="round" y1="23.478" stroke-width="0.576" x1="7.244" y2="27.078" x2="7.244"/>
                <line fill="none"  stroke="#FFFFFF" stroke-linecap="round" y1="27.078" stroke-width="0.576" x1="7.244" y2="28.878" x2="5.444"/>
                <line fill="none"  stroke="#FFFFFF" stroke-linecap="round" y1="28.878" stroke-width="0.576" x1="1.844" y2="27.078" x2="0.044"/>
                <line fill="none"  stroke="#FFFFFF" stroke-linecap="round" y1="28.878" stroke-width="0.576" x1="5.444" y2="30.678" x2="7.244"/>
                <line fill="none"  stroke="#FFFFFF" stroke-linecap="round" y1="30.678" stroke-width="0.576" x1="7.244" y2="34.278" x2="7.244"/>
                <polyline fill="none" points="7.244,34.278 5.444,36.078 1.844,36.078 "  stroke="#FFFFFF" stroke-linecap="round" stroke-width="0.576"/>
                <line fill="none"  stroke="#FFFFFF" stroke-linecap="round" y1="36.078" stroke-width="0.576" x1="1.844" y2="34.278" x2="0.044"/>
                <line fill="none"  stroke="#FFFFFF" stroke-linecap="round" y1="34.278" stroke-width="0.576" x1="0.044" y2="30.678" x2="0.044"/>
                <line fill="none"  stroke="#FFFFFF" stroke-linecap="round" y1="30.678" stroke-width="0.576" x1="0.044" y2="28.878" x2="1.844"/>
                <line fill="none"  stroke="#FFFFFF" stroke-linecap="round" y1="14.478" stroke-width="0.576" x1="5.444" y2="16.278" x2="7.244"/>
                <line fill="none"  stroke="#FFFFFF" stroke-linecap="round" y1="16.278" stroke-width="0.576" x1="7.244" y2="19.878" x2="7.244"/>
                <line fill="none"  stroke="#FFFFFF" stroke-linecap="round" y1="19.878" stroke-width="0.576" x1="7.244" y2="21.678" x2="5.444"/>
                <line fill="none"  stroke="#FFFFFF" stroke-linecap="round" y1="21.678" stroke-width="0.576" x1="1.844" y2="19.878" x2="0.044"/>
                <line fill="none"  stroke="#FFFFFF" stroke-linecap="round" y1="19.878" stroke-width="0.576" x1="0.044" y2="16.278" x2="0.044"/>
                <line fill="none"  stroke="#FFFFFF" stroke-linecap="round" y1="16.278" stroke-width="0.576" x1="0.044" y2="14.478" x2="1.844"/>
                <line fill="none"  stroke="#FFFFFF" stroke-linecap="round" y1="23.478" stroke-width="0.576" x1="7.244" y2="21.678" x2="5.444"/>
                <line fill="none"  stroke="#FFFFFF" stroke-linecap="round" y1="21.678" stroke-width="0.576" x1="1.844" y2="23.478" x2="0.044"/>
                <line fill="none"  stroke="#FFFFFF" stroke-linecap="round" y1="27.078" stroke-width="0.576" x1="0.044" y2="23.478" x2="0.044"/>
                <path fill="none"  stroke="#FFFFFF" stroke-linecap="round" stroke-width="0.576" d="M5.444,7.278"/>
                <polyline fill="none" points="7.244,9.078 5.444,7.278 1.844,7.278 "  stroke="#FFFFFF" stroke-linecap="round" stroke-width="0.576"/>
                <line fill="none"  stroke="#FFFFFF" stroke-linecap="round" y1="9.078" stroke-width="0.576" x1="7.244" y2="12.678" x2="7.244"/>
                <line fill="none"  stroke="#FFFFFF" stroke-linecap="round" y1="12.678" stroke-width="0.576" x1="7.244" y2="14.478" x2="5.444"/>
                <line fill="none"  stroke="#FFFFFF" stroke-linecap="round" y1="14.478" stroke-width="0.576" x1="1.844" y2="12.678" x2="0.044"/>
                <line fill="none"  stroke="#FFFFFF" stroke-linecap="round" y1="12.678" stroke-width="0.576" x1="0.044" y2="9.078" x2="0.044"/>
                <line fill="none"  stroke="#FFFFFF" stroke-linecap="round" y1="9.078" stroke-width="0.576" x1="0.044" y2="7.278" x2="1.844"/>
            </g>
        </g>
        <rect width="42.99" x="0" y="0" fill="none"  height="42.99" stroke="#FFFFFF" stroke-linecap="round" stroke-width="0.576"/>
        <path fill="none"  stroke="#FFFFFF" stroke-width="0.576" d="M33.737,24.852c0,0.552-0.448,1-1,1h-7.918c-0.552,0-1-0.448-1-1v-7.426c0-0.552,0.448-1,1-1h7.918c0.552,0,1,0.448,1,1V24.852z" stroke-miterlimit="10"/>
    </g>
    <g gorn="0.3"  id="copper1">
        <circle fill="none" cx="3.644" gorn="0.3.0"  cy="10.878" stroke="#F7BD13" id="connector0pin" r="2.052" stroke-width="1.224"/>
        <circle fill="none" cx="3.644" gorn="0.3.1"  cy="18.078" stroke="#F7BD13" id="connector1pin" r="2.052" stroke-width="1.224"/>
        <circle fill="none" cx="3.644" gorn="0.3.2"  cy="25.278" stroke="#F7BD13" id="connector2pin" r="2.052" stroke-width="1.224"/>
        <circle fill="none" cx="3.644" gorn="0.3.3"  cy="32.478" stroke="#F7BD13" id="connector3pin" r="2.052" stroke-width="1.224"/>
    </g>
</svg>
