<?xml version='1.0' encoding='UTF-8' standalone='no'?>
<!-- Created with Fritzing (http://www.fritzing.org/) -->
<svg xmlns="http://www.w3.org/2000/svg" width="0.8in" x="0in" version="1.2" y="0in"  height="1.2in" viewBox="0 0 57.6 86.4" baseProfile="tiny">
    <desc >
        <referenceFile >MPR121-Breakout-v13_pcb.svg</referenceFile>
    </desc>
    <desc >Fritzing footprint generated by brd2svg</desc>
    <g gorn="0.2"  id="silkscreen">
        <path fill="none"  stroke="white" stroke-width="0.576" d="M0.288,86.112L0.288,0.288L57.312,0.288L57.312,86.112L0.288,86.112"/>
        <g >
            <title >element:JP1</title>
            <g >
                <title >package:1X01</title>
                <line  stroke="white" stroke-linecap="round" y1="52.2" x1="7.2" y2="50.4" stroke-width="0.576" x2="5.4"/>
                <line  stroke="white" stroke-linecap="round" y1="50.4" x1="5.4" y2="50.4" stroke-width="0.576" x2="1.8"/>
                <line  stroke="white" stroke-linecap="round" y1="50.4" x1="1.8" y2="52.2" stroke-width="0.576" x2="0"/>
                <line  stroke="white" stroke-linecap="round" y1="52.2" x1="0" y2="55.8" stroke-width="0.576" x2="0"/>
                <line  stroke="white" stroke-linecap="round" y1="55.8" x1="0" y2="57.6" stroke-width="0.576" x2="1.8"/>
                <line  stroke="white" stroke-linecap="round" y1="57.6" x1="1.8" y2="57.6" stroke-width="0.576" x2="5.4"/>
                <line  stroke="white" stroke-linecap="round" y1="57.6" x1="5.4" y2="55.8" stroke-width="0.576" x2="7.2"/>
                <line  stroke="white" stroke-linecap="round" y1="55.8" x1="7.2" y2="52.2" stroke-width="0.576" x2="7.2"/>
            </g>
        </g>
        <g >
            <title >element:JP2</title>
            <g >
                <title >package:1X03</title>
                <line  stroke="white" stroke-linecap="round" y1="43.2" x1="5.4" y2="45" stroke-width="0.576" x2="7.2"/>
                <line  stroke="white" stroke-linecap="round" y1="45" x1="7.2" y2="48.6" stroke-width="0.576" x2="7.2"/>
                <line  stroke="white" stroke-linecap="round" y1="48.6" x1="7.2" y2="50.4" stroke-width="0.576" x2="5.4"/>
                <line  stroke="white" stroke-linecap="round" y1="50.4" x1="1.8" y2="48.6" stroke-width="0.576" x2="0"/>
                <line  stroke="white" stroke-linecap="round" y1="48.6" x1="0" y2="45" stroke-width="0.576" x2="0"/>
                <line  stroke="white" stroke-linecap="round" y1="45" x1="0" y2="43.2" stroke-width="0.576" x2="1.8"/>
                <line  stroke="white" stroke-linecap="round" y1="30.6" x1="7.2" y2="34.2" stroke-width="0.576" x2="7.2"/>
                <line  stroke="white" stroke-linecap="round" y1="34.2" x1="7.2" y2="36" stroke-width="0.576" x2="5.4"/>
                <line  stroke="white" stroke-linecap="round" y1="36" x1="1.8" y2="34.2" stroke-width="0.576" x2="0"/>
                <line  stroke="white" stroke-linecap="round" y1="36" x1="5.4" y2="37.8" stroke-width="0.576" x2="7.2"/>
                <line  stroke="white" stroke-linecap="round" y1="37.8" x1="7.2" y2="41.4" stroke-width="0.576" x2="7.2"/>
                <line  stroke="white" stroke-linecap="round" y1="41.4" x1="7.2" y2="43.2" stroke-width="0.576" x2="5.4"/>
                <line  stroke="white" stroke-linecap="round" y1="43.2" x1="1.8" y2="41.4" stroke-width="0.576" x2="0"/>
                <line  stroke="white" stroke-linecap="round" y1="41.4" x1="0" y2="37.8" stroke-width="0.576" x2="0"/>
                <line  stroke="white" stroke-linecap="round" y1="37.8" x1="0" y2="36" stroke-width="0.576" x2="1.8"/>
                <line  stroke="white" stroke-linecap="round" y1="28.8" x1="5.4" y2="28.8" stroke-width="0.576" x2="1.8"/>
                <line  stroke="white" stroke-linecap="round" y1="30.6" x1="7.2" y2="28.8" stroke-width="0.576" x2="5.4"/>
                <line  stroke="white" stroke-linecap="round" y1="28.8" x1="1.8" y2="30.6" stroke-width="0.576" x2="0"/>
                <line  stroke="white" stroke-linecap="round" y1="34.2" x1="0" y2="30.6" stroke-width="0.576" x2="0"/>
                <line  stroke="white" stroke-linecap="round" y1="50.4" x1="5.4" y2="50.4" stroke-width="0.576" x2="1.8"/>
            </g>
        </g>
        <g >
            <title >element:JP3</title>
            <g >
                <title >package:1X12</title>
                <line  stroke="white" stroke-linecap="round" y1="45" x1="57.6" y2="48.6" stroke-width="0.576" x2="57.6"/>
                <line  stroke="white" stroke-linecap="round" y1="48.6" x1="57.6" y2="50.4" stroke-width="0.576" x2="55.8"/>
                <line  stroke="white" stroke-linecap="round" y1="50.4" x1="52.2" y2="48.6" stroke-width="0.576" x2="50.4"/>
                <line  stroke="white" stroke-linecap="round" y1="36" x1="55.8" y2="37.8" stroke-width="0.576" x2="57.6"/>
                <line  stroke="white" stroke-linecap="round" y1="37.8" x1="57.6" y2="41.4" stroke-width="0.576" x2="57.6"/>
                <line  stroke="white" stroke-linecap="round" y1="41.4" x1="57.6" y2="43.2" stroke-width="0.576" x2="55.8"/>
                <line  stroke="white" stroke-linecap="round" y1="43.2" x1="52.2" y2="41.4" stroke-width="0.576" x2="50.4"/>
                <line  stroke="white" stroke-linecap="round" y1="41.4" x1="50.4" y2="37.8" stroke-width="0.576" x2="50.4"/>
                <line  stroke="white" stroke-linecap="round" y1="37.8" x1="50.4" y2="36" stroke-width="0.576" x2="52.2"/>
                <line  stroke="white" stroke-linecap="round" y1="45" x1="57.6" y2="43.2" stroke-width="0.576" x2="55.8"/>
                <line  stroke="white" stroke-linecap="round" y1="43.2" x1="52.2" y2="45" stroke-width="0.576" x2="50.4"/>
                <line  stroke="white" stroke-linecap="round" y1="48.6" x1="50.4" y2="45" stroke-width="0.576" x2="50.4"/>
                <line  stroke="white" stroke-linecap="round" y1="23.4" x1="57.6" y2="27" stroke-width="0.576" x2="57.6"/>
                <line  stroke="white" stroke-linecap="round" y1="27" x1="57.6" y2="28.8" stroke-width="0.576" x2="55.8"/>
                <line  stroke="white" stroke-linecap="round" y1="28.8" x1="52.2" y2="27" stroke-width="0.576" x2="50.4"/>
                <line  stroke="white" stroke-linecap="round" y1="28.8" x1="55.8" y2="30.6" stroke-width="0.576" x2="57.6"/>
                <line  stroke="white" stroke-linecap="round" y1="30.6" x1="57.6" y2="34.2" stroke-width="0.576" x2="57.6"/>
                <line  stroke="white" stroke-linecap="round" y1="34.2" x1="57.6" y2="36" stroke-width="0.576" x2="55.8"/>
                <line  stroke="white" stroke-linecap="round" y1="36" x1="52.2" y2="34.2" stroke-width="0.576" x2="50.4"/>
                <line  stroke="white" stroke-linecap="round" y1="34.2" x1="50.4" y2="30.6" stroke-width="0.576" x2="50.4"/>
                <line  stroke="white" stroke-linecap="round" y1="30.6" x1="50.4" y2="28.8" stroke-width="0.576" x2="52.2"/>
                <line  stroke="white" stroke-linecap="round" y1="14.4" x1="55.8" y2="16.2" stroke-width="0.576" x2="57.6"/>
                <line  stroke="white" stroke-linecap="round" y1="16.2" x1="57.6" y2="19.8" stroke-width="0.576" x2="57.6"/>
                <line  stroke="white" stroke-linecap="round" y1="19.8" x1="57.6" y2="21.6" stroke-width="0.576" x2="55.8"/>
                <line  stroke="white" stroke-linecap="round" y1="21.6" x1="52.2" y2="19.8" stroke-width="0.576" x2="50.4"/>
                <line  stroke="white" stroke-linecap="round" y1="19.8" x1="50.4" y2="16.2" stroke-width="0.576" x2="50.4"/>
                <line  stroke="white" stroke-linecap="round" y1="16.2" x1="50.4" y2="14.4" stroke-width="0.576" x2="52.2"/>
                <line  stroke="white" stroke-linecap="round" y1="23.4" x1="57.6" y2="21.6" stroke-width="0.576" x2="55.8"/>
                <line  stroke="white" stroke-linecap="round" y1="21.6" x1="52.2" y2="23.4" stroke-width="0.576" x2="50.4"/>
                <line  stroke="white" stroke-linecap="round" y1="27" x1="50.4" y2="23.4" stroke-width="0.576" x2="50.4"/>
                <line  stroke="white" stroke-linecap="round" y1="1.8" x1="57.6" y2="5.4" stroke-width="0.576" x2="57.6"/>
                <line  stroke="white" stroke-linecap="round" y1="5.4" x1="57.6" y2="7.2" stroke-width="0.576" x2="55.8"/>
                <line  stroke="white" stroke-linecap="round" y1="7.2" x1="52.2" y2="5.4" stroke-width="0.576" x2="50.4"/>
                <line  stroke="white" stroke-linecap="round" y1="7.2" x1="55.8" y2="9" stroke-width="0.576" x2="57.6"/>
                <line  stroke="white" stroke-linecap="round" y1="9" x1="57.6" y2="12.6" stroke-width="0.576" x2="57.6"/>
                <line  stroke="white" stroke-linecap="round" y1="12.6" x1="57.6" y2="14.4" stroke-width="0.576" x2="55.8"/>
                <line  stroke="white" stroke-linecap="round" y1="14.4" x1="52.2" y2="12.6" stroke-width="0.576" x2="50.4"/>
                <line  stroke="white" stroke-linecap="round" y1="12.6" x1="50.4" y2="9" stroke-width="0.576" x2="50.4"/>
                <line  stroke="white" stroke-linecap="round" y1="9" x1="50.4" y2="7.2" stroke-width="0.576" x2="52.2"/>
                <line  stroke="white" stroke-linecap="round" y1="0" x1="55.8" y2="0" stroke-width="0.576" x2="52.2"/>
                <line  stroke="white" stroke-linecap="round" y1="1.8" x1="57.6" y2="0" stroke-width="0.576" x2="55.8"/>
                <line  stroke="white" stroke-linecap="round" y1="0" x1="52.2" y2="1.8" stroke-width="0.576" x2="50.4"/>
                <line  stroke="white" stroke-linecap="round" y1="5.4" x1="50.4" y2="1.8" stroke-width="0.576" x2="50.4"/>
                <line  stroke="white" stroke-linecap="round" y1="52.2" x1="57.6" y2="55.8" stroke-width="0.576" x2="57.6"/>
                <line  stroke="white" stroke-linecap="round" y1="55.8" x1="57.6" y2="57.6" stroke-width="0.576" x2="55.8"/>
                <line  stroke="white" stroke-linecap="round" y1="57.6" x1="52.2" y2="55.8" stroke-width="0.576" x2="50.4"/>
                <line  stroke="white" stroke-linecap="round" y1="52.2" x1="57.6" y2="50.4" stroke-width="0.576" x2="55.8"/>
                <line  stroke="white" stroke-linecap="round" y1="50.4" x1="52.2" y2="52.2" stroke-width="0.576" x2="50.4"/>
                <line  stroke="white" stroke-linecap="round" y1="55.8" x1="50.4" y2="52.2" stroke-width="0.576" x2="50.4"/>
                <line  stroke="white" stroke-linecap="round" y1="59.4" x1="57.6" y2="63" stroke-width="0.576" x2="57.6"/>
                <line  stroke="white" stroke-linecap="round" y1="63" x1="57.6" y2="64.8" stroke-width="0.576" x2="55.8"/>
                <line  stroke="white" stroke-linecap="round" y1="64.8" x1="52.2" y2="63" stroke-width="0.576" x2="50.4"/>
                <line  stroke="white" stroke-linecap="round" y1="59.4" x1="57.6" y2="57.6" stroke-width="0.576" x2="55.8"/>
                <line  stroke="white" stroke-linecap="round" y1="57.6" x1="52.2" y2="59.4" stroke-width="0.576" x2="50.4"/>
                <line  stroke="white" stroke-linecap="round" y1="63" x1="50.4" y2="59.4" stroke-width="0.576" x2="50.4"/>
                <line  stroke="white" stroke-linecap="round" y1="66.6" x1="57.6" y2="70.2" stroke-width="0.576" x2="57.6"/>
                <line  stroke="white" stroke-linecap="round" y1="70.2" x1="57.6" y2="72" stroke-width="0.576" x2="55.8"/>
                <line  stroke="white" stroke-linecap="round" y1="72" x1="52.2" y2="70.2" stroke-width="0.576" x2="50.4"/>
                <line  stroke="white" stroke-linecap="round" y1="66.6" x1="57.6" y2="64.8" stroke-width="0.576" x2="55.8"/>
                <line  stroke="white" stroke-linecap="round" y1="64.8" x1="52.2" y2="66.6" stroke-width="0.576" x2="50.4"/>
                <line  stroke="white" stroke-linecap="round" y1="70.2" x1="50.4" y2="66.6" stroke-width="0.576" x2="50.4"/>
                <line  stroke="white" stroke-linecap="round" y1="73.8" x1="57.6" y2="77.4" stroke-width="0.576" x2="57.6"/>
                <line  stroke="white" stroke-linecap="round" y1="77.4" x1="57.6" y2="79.2" stroke-width="0.576" x2="55.8"/>
                <line  stroke="white" stroke-linecap="round" y1="79.2" x1="52.2" y2="77.4" stroke-width="0.576" x2="50.4"/>
                <line  stroke="white" stroke-linecap="round" y1="73.8" x1="57.6" y2="72" stroke-width="0.576" x2="55.8"/>
                <line  stroke="white" stroke-linecap="round" y1="72" x1="52.2" y2="73.8" stroke-width="0.576" x2="50.4"/>
                <line  stroke="white" stroke-linecap="round" y1="77.4" x1="50.4" y2="73.8" stroke-width="0.576" x2="50.4"/>
                <line  stroke="white" stroke-linecap="round" y1="81" x1="57.6" y2="84.6" stroke-width="0.576" x2="57.6"/>
                <line  stroke="white" stroke-linecap="round" y1="84.6" x1="57.6" y2="86.4" stroke-width="0.576" x2="55.8"/>
                <line  stroke="white" stroke-linecap="round" y1="86.4" x1="55.8" y2="86.4" stroke-width="0.576" x2="52.2"/>
                <line  stroke="white" stroke-linecap="round" y1="86.4" x1="52.2" y2="84.6" stroke-width="0.576" x2="50.4"/>
                <line  stroke="white" stroke-linecap="round" y1="81" x1="57.6" y2="79.2" stroke-width="0.576" x2="55.8"/>
                <line  stroke="white" stroke-linecap="round" y1="79.2" x1="52.2" y2="81" stroke-width="0.576" x2="50.4"/>
                <line  stroke="white" stroke-linecap="round" y1="84.6" x1="50.4" y2="81" stroke-width="0.576" x2="50.4"/>
            </g>
        </g>
        <g >
            <title >element:JP4</title>
            <g >
                <title >package:1X01</title>
                <line  stroke="white" stroke-linecap="round" y1="23.4" x1="7.2" y2="21.6" stroke-width="0.576" x2="5.4"/>
                <line  stroke="white" stroke-linecap="round" y1="21.6" x1="5.4" y2="21.6" stroke-width="0.576" x2="1.8"/>
                <line  stroke="white" stroke-linecap="round" y1="21.6" x1="1.8" y2="23.4" stroke-width="0.576" x2="0"/>
                <line  stroke="white" stroke-linecap="round" y1="23.4" x1="0" y2="27" stroke-width="0.576" x2="0"/>
                <line  stroke="white" stroke-linecap="round" y1="27" x1="0" y2="28.8" stroke-width="0.576" x2="1.8"/>
                <line  stroke="white" stroke-linecap="round" y1="28.8" x1="1.8" y2="28.8" stroke-width="0.576" x2="5.4"/>
                <line  stroke="white" stroke-linecap="round" y1="28.8" x1="5.4" y2="27" stroke-width="0.576" x2="7.2"/>
                <line  stroke="white" stroke-linecap="round" y1="27" x1="7.2" y2="23.4" stroke-width="0.576" x2="7.2"/>
            </g>
        </g>
        <g >
            <title >element:JP5</title>
            <g >
                <title >package:1X01</title>
                <line  stroke="white" stroke-linecap="round" y1="59.4" x1="7.2" y2="57.6" stroke-width="0.576" x2="5.4"/>
                <line  stroke="white" stroke-linecap="round" y1="57.6" x1="5.4" y2="57.6" stroke-width="0.576" x2="1.8"/>
                <line  stroke="white" stroke-linecap="round" y1="57.6" x1="1.8" y2="59.4" stroke-width="0.576" x2="0"/>
                <line  stroke="white" stroke-linecap="round" y1="59.4" x1="0" y2="63" stroke-width="0.576" x2="0"/>
                <line  stroke="white" stroke-linecap="round" y1="63" x1="0" y2="64.8" stroke-width="0.576" x2="1.8"/>
                <line  stroke="white" stroke-linecap="round" y1="64.8" x1="1.8" y2="64.8" stroke-width="0.576" x2="5.4"/>
                <line  stroke="white" stroke-linecap="round" y1="64.8" x1="5.4" y2="63" stroke-width="0.576" x2="7.2"/>
                <line  stroke="white" stroke-linecap="round" y1="63" x1="7.2" y2="59.4" stroke-width="0.576" x2="7.2"/>
            </g>
        </g>
        <g >
            <title >element:JP7</title>
            <g >
                <title >package:SFE-NEW-WEBLOGO</title>
            </g>
        </g>
    </g>
    <g gorn="0.3"  id="copper1">
        <g  transform="matrix(0, -1, 1, 0, -27.6095, 85.2091)">
            <g >
                <g >
                    <g >
                        <g >
                            <g >
                                <rect width="3.11811" x="27.2409" y="54.9922" fill="#F7BD13" gorn="0.3.0.0.0.0.0.0.0"  height="2.83465" stroke="none" id="connector1pad" stroke-width="0"/>
                            </g>
                        </g>
                    </g>
                </g>
            </g>
        </g>
        <g  transform="matrix(0, -1, 1, 0, 8.39052, 42.0095)">
            <g >
                <g >
                    <g >
                        <g >
                            <g >
                                <rect width="3.11811" x="23.6409" y="15.3922" fill="#F7BD13" gorn="0.3.1.0.0.0.0.0.0"  height="2.83465" stroke="none" id="connector49pad" stroke-width="0"/>
                            </g>
                        </g>
                    </g>
                </g>
            </g>
        </g>
        <circle fill="none" cx="54" gorn="0.3.2"  cy="39.6" connectorname="ELE6" stroke="#F7BD13" r="2.052" id="connector12pin" stroke-width="1.224"/>
        <g  transform="matrix(0, 1, -1, 0, 63.6095, 6.00945)">
            <g >
                <g >
                    <g >
                        <g >
                            <g >
                                <rect width="3.11811" x="27.2409" y="33.3922" fill="#F7BD13" gorn="0.3.3.0.0.0.0.0.0"  height="2.83465" stroke="none" id="connector2pad" stroke-width="0"/>
                            </g>
                        </g>
                    </g>
                </g>
            </g>
        </g>
        <circle fill="none" cx="3.6" gorn="0.3.4"  cy="61.2" connectorname="GND" stroke="#F7BD13" r="2.052" id="connector5pin" stroke-width="1.224"/>
        <g  transform="matrix(0, 1, -1, 0, 58.7905, 1.19055)">
            <g >
                <g >
                    <g >
                        <g >
                            <g >
                                <rect width="3.11811" x="27.2409" y="28.5732" fill="#F7BD13" gorn="0.3.5.0.0.0.0.0.0"  height="2.83465" stroke="none" id="connector3pad" stroke-width="0"/>
                            </g>
                        </g>
                    </g>
                </g>
            </g>
        </g>
        <circle fill="none" cx="54" gorn="0.3.6"  cy="10.8" connectorname="ELE10" stroke="#F7BD13" r="2.052" id="connector16pin" stroke-width="1.224"/>
        <g  transform="matrix(0, 1, -1, 0, 73.0577, 8.80718)">
            <g >
                <g >
                    <g >
                        <g >
                            <g >
                                <rect width="0.552756" x="31.8487" y="39.8693" fill="#F7BD13" gorn="0.3.7.0.0.0.0.0.0"  rx="0.276378" height="2.12599" ry="0.276378" stroke="none" id="connector4pad" stroke-width="0"/>
                            </g>
                        </g>
                    </g>
                </g>
            </g>
        </g>
        <circle fill="none" cx="54" gorn="0.3.8"  cy="68.4" connectorname="ELE2" stroke="#F7BD13" r="2.052" id="connector8pin" stroke-width="1.224"/>
        <g  transform="matrix(0, 1, -1, 0, 74.191, 9.94104)">
            <g >
                <g >
                    <g >
                        <g >
                            <g >
                                <rect width="0.552756" x="31.8487" y="41.0031" fill="#F7BD13" gorn="0.3.9.0.0.0.0.0.0"  rx="0.276378" height="2.12599" ry="0.276378" stroke="none" id="connector5pad" stroke-width="0"/>
                            </g>
                        </g>
                    </g>
                </g>
            </g>
        </g>
        <g  transform="matrix(0, -1, 1, 0, 15.5905, 49.2095)">
            <g >
                <g >
                    <g >
                        <g >
                            <g >
                                <rect width="3.11811" x="30.8409" y="15.3922" fill="#F7BD13" gorn="0.3.10.0.0.0.0.0.0"  height="2.83465" stroke="none" id="connector45pad" stroke-width="0"/>
                            </g>
                        </g>
                    </g>
                </g>
            </g>
        </g>
        <g  transform="matrix(0, 1, -1, 0, 75.325, 11.0749)">
            <g >
                <g >
                    <g >
                        <g >
                            <g >
                                <rect width="0.552756" x="31.8487" y="42.137" fill="#F7BD13" gorn="0.3.11.0.0.0.0.0.0"  rx="0.276378" height="2.12599" ry="0.276378" stroke="none" id="connector6pad" stroke-width="0"/>
                            </g>
                        </g>
                    </g>
                </g>
            </g>
        </g>
        <circle fill="none" cx="3.6" gorn="0.3.12"  cy="46.8" connectorname="SDA" stroke="#F7BD13" r="2.052" id="connector3pin" stroke-width="1.224"/>
        <g  transform="matrix(0, 1, -1, 0, 76.459, 12.2088)">
            <g >
                <g >
                    <g >
                        <g >
                            <g >
                                <rect width="0.552756" x="31.8487" y="43.2708" fill="#F7BD13" gorn="0.3.13.0.0.0.0.0.0"  rx="0.276378" height="2.12599" ry="0.276378" stroke="none" id="connector7pad" stroke-width="0"/>
                            </g>
                        </g>
                    </g>
                </g>
            </g>
        </g>
        <circle fill="none" cx="54" gorn="0.3.14"  cy="25.2" connectorname="ELE8" stroke="#F7BD13" r="2.052" id="connector14pin" stroke-width="1.224"/>
        <g  transform="matrix(0, 1, -1, 0, 77.593, 13.3426)">
            <g >
                <g >
                    <g >
                        <g >
                            <g >
                                <rect width="0.552756" x="31.8487" y="44.4047" fill="#F7BD13" gorn="0.3.15.0.0.0.0.0.0"  rx="0.276378" height="2.12599" ry="0.276378" stroke="none" id="connector8pad" stroke-width="0"/>
                            </g>
                        </g>
                    </g>
                </g>
            </g>
        </g>
        <circle fill="none" cx="54" gorn="0.3.16"  cy="54" connectorname="ELE4" stroke="#F7BD13" r="2.052" id="connector10pin" stroke-width="1.224"/>
        <g  transform="matrix(-1, 0, 0, -1, 67.4934, 94.1789)">
            <g >
                <g >
                    <g >
                        <g >
                            <g >
                                <rect width="0.552756" x="33.4703" y="46.0263" fill="#F7BD13" gorn="0.3.17.0.0.0.0.0.0"  rx="0.276378" height="2.12599" ry="0.276378" stroke="none" id="connector9pad" stroke-width="0"/>
                            </g>
                        </g>
                    </g>
                </g>
            </g>
        </g>
        <circle fill="none" cx="54" gorn="0.3.18"  cy="82.8" connectorname="ELE0" stroke="#F7BD13" r="2.052" id="connector6pin" stroke-width="1.224"/>
        <g  transform="matrix(-1, 0, 0, -1, 69.7611, 94.1789)">
            <g >
                <g >
                    <g >
                        <g >
                            <g >
                                <rect width="0.552756" x="34.6041" y="46.0263" fill="#F7BD13" gorn="0.3.19.0.0.0.0.0.0"  rx="0.276378" height="2.12599" ry="0.276378" stroke="none" id="connector10pad" stroke-width="0"/>
                            </g>
                        </g>
                    </g>
                </g>
            </g>
        </g>
        <g  transform="matrix(0, 1, -1, 0, 98.3909, 33.5905)">
            <g >
                <g >
                    <g >
                        <g >
                            <g >
                                <rect width="3.11811" x="30.8409" y="64.5732" fill="#F7BD13" gorn="0.3.20.0.0.0.0.0.0"  height="2.83465" stroke="none" id="connector43pad" stroke-width="0"/>
                            </g>
                        </g>
                    </g>
                </g>
            </g>
        </g>
        <g  transform="matrix(-1, 0, 0, -1, 72.0288, 94.1789)">
            <g >
                <g >
                    <g >
                        <g >
                            <g >
                                <rect width="0.552756" x="35.738" y="46.0263" fill="#F7BD13" gorn="0.3.21.0.0.0.0.0.0"  rx="0.276378" height="2.12599" ry="0.276378" stroke="none" id="connector11pad" stroke-width="0"/>
                            </g>
                        </g>
                    </g>
                </g>
            </g>
        </g>
        <g  transform="matrix(0, -1, 1, 0, 11.9905, 45.6095)">
            <g >
                <g >
                    <g >
                        <g >
                            <g >
                                <rect width="3.11811" x="27.2409" y="15.3922" fill="#F7BD13" gorn="0.3.22.0.0.0.0.0.0"  height="2.83465" stroke="none" id="connector47pad" stroke-width="0"/>
                            </g>
                        </g>
                    </g>
                </g>
            </g>
        </g>
        <g  transform="matrix(-1, 0, 0, -1, 74.2968, 94.1789)">
            <g >
                <g >
                    <g >
                        <g >
                            <g >
                                <rect width="0.552756" x="36.8718" y="46.0263" fill="#F7BD13" gorn="0.3.23.0.0.0.0.0.0"  rx="0.276378" height="2.12599" ry="0.276378" stroke="none" id="connector12pad" stroke-width="0"/>
                            </g>
                        </g>
                    </g>
                </g>
            </g>
        </g>
        <circle fill="none" cx="3.6" gorn="0.3.24"  cy="39.6" connectorname="SCL" stroke="#F7BD13" r="2.052" id="connector2pin" stroke-width="1.224"/>
        <g  transform="matrix(-1, 0, 0, -1, 76.5641, 94.1789)">
            <g >
                <g >
                    <g >
                        <g >
                            <g >
                                <rect width="0.552756" x="38.0058" y="46.0263" fill="#F7BD13" gorn="0.3.25.0.0.0.0.0.0"  rx="0.276378" height="2.12599" ry="0.276378" stroke="none" id="connector13pad" stroke-width="0"/>
                            </g>
                        </g>
                    </g>
                </g>
            </g>
        </g>
        <circle fill="none" cx="54" gorn="0.3.26"  cy="3.6" connectorname="ELE11" stroke="#F7BD13" r="2.052" id="connector17pin" stroke-width="1.224"/>
        <g  transform="matrix(0, -1, 1, 0, -5.57122, 85.3639)">
            <g >
                <g >
                    <g >
                        <g >
                            <g >
                                <rect width="0.552756" x="39.6202" y="44.4047" fill="#F7BD13" gorn="0.3.27.0.0.0.0.0.0"  rx="0.276378" height="2.12599" ry="0.276378" stroke="none" id="connector14pad" stroke-width="0"/>
                            </g>
                        </g>
                    </g>
                </g>
            </g>
        </g>
        <circle fill="none" cx="54" gorn="0.3.28"  cy="18" connectorname="ELE9" stroke="#F7BD13" r="2.052" id="connector15pin" stroke-width="1.224"/>
        <g  transform="matrix(0, -1, 1, 0, -4.43735, 84.2306)">
            <g >
                <g >
                    <g >
                        <g >
                            <g >
                                <rect width="0.552756" x="39.6202" y="43.2708" fill="#F7BD13" gorn="0.3.29.0.0.0.0.0.0"  rx="0.276378" height="2.12599" ry="0.276378" stroke="none" id="connector15pad" stroke-width="0"/>
                            </g>
                        </g>
                    </g>
                </g>
            </g>
        </g>
        <circle fill="none" cx="54" gorn="0.3.30"  cy="32.4" connectorname="ELE7" stroke="#F7BD13" r="2.052" id="connector13pin" stroke-width="1.224"/>
        <g  transform="matrix(0, -1, 1, 0, -3.3035, 83.0966)">
            <g >
                <g >
                    <g >
                        <g >
                            <g >
                                <rect width="0.552756" x="39.6202" y="42.137" fill="#F7BD13" gorn="0.3.31.0.0.0.0.0.0"  rx="0.276378" height="2.12599" ry="0.276378" stroke="none" id="connector16pad" stroke-width="0"/>
                            </g>
                        </g>
                    </g>
                </g>
            </g>
        </g>
        <circle fill="none" cx="54" gorn="0.3.32"  cy="46.8" connectorname="ELE5" stroke="#F7BD13" r="2.052" id="connector11pin" stroke-width="1.224"/>
        <g  transform="matrix(0, -1, 1, 0, -2.16964, 81.9626)">
            <g >
                <g >
                    <g >
                        <g >
                            <g >
                                <rect width="0.552756" x="39.6202" y="41.0031" fill="#F7BD13" gorn="0.3.33.0.0.0.0.0.0"  rx="0.276378" height="2.12599" ry="0.276378" stroke="none" id="connector17pad" stroke-width="0"/>
                            </g>
                        </g>
                    </g>
                </g>
            </g>
        </g>
        <circle fill="none" cx="54" gorn="0.3.34"  cy="61.2" connectorname="ELE3" stroke="#F7BD13" r="2.052" id="connector9pin" stroke-width="1.224"/>
        <g  transform="matrix(0, -1, 1, 0, -1.03578, 80.8286)">
            <g >
                <g >
                    <g >
                        <g >
                            <g >
                                <rect width="0.552756" x="39.6202" y="39.8693" fill="#F7BD13" gorn="0.3.35.0.0.0.0.0.0"  rx="0.276378" height="2.12599" ry="0.276378" stroke="none" id="connector18pad" stroke-width="0"/>
                            </g>
                        </g>
                    </g>
                </g>
            </g>
        </g>
        <circle fill="none" cx="54" gorn="0.3.36"  cy="75.6" connectorname="ELE1" stroke="#F7BD13" r="2.052" id="connector7pin" stroke-width="1.224"/>
        <rect width="0.552756" x="38.0201" y="38.2477" fill="#F7BD13" gorn="0.3.37"  rx="0.276378" height="2.12599" ry="0.276378" stroke="none" id="connector19pad" stroke-width="0"/>
        <circle fill="none" cx="3.6" gorn="0.3.38"  cy="25.2" connectorname="3.3V" stroke="#F7BD13" r="2.052" id="connector0pin" stroke-width="1.224"/>
        <rect width="0.552756" x="36.8862" y="38.2477" fill="#F7BD13" gorn="0.3.39"  rx="0.276378" height="2.12599" ry="0.276378" stroke="none" id="connector20pad" stroke-width="0"/>
        <g  transform="matrix(0, 1, -1, 0, 103.209, 38.4095)">
            <g >
                <g >
                    <g >
                        <g >
                            <g >
                                <rect width="3.11811" x="30.8409" y="69.3922" fill="#F7BD13" gorn="0.3.40.0.0.0.0.0.0"  height="2.83465" stroke="none" id="connector42pad" stroke-width="0"/>
                            </g>
                        </g>
                    </g>
                </g>
            </g>
        </g>
        <rect width="0.552756" x="35.7524" y="38.2477" fill="#F7BD13" gorn="0.3.41"  rx="0.276378" height="2.12599" ry="0.276378" stroke="none" id="connector21pad" stroke-width="0"/>
        <g  transform="matrix(0, -1, 1, 0, 20.4095, 44.3905)">
            <g >
                <g >
                    <g >
                        <g >
                            <g >
                                <rect width="3.11811" x="30.8409" y="10.5732" fill="#F7BD13" gorn="0.3.42.0.0.0.0.0.0"  height="2.83465" stroke="none" id="connector44pad" stroke-width="0"/>
                            </g>
                        </g>
                    </g>
                </g>
            </g>
        </g>
        <rect width="0.552756" x="34.6185" y="38.2477" fill="#F7BD13" gorn="0.3.43"  rx="0.276378" height="2.12599" ry="0.276378" stroke="none" id="connector22pad" stroke-width="0"/>
        <g  transform="matrix(0, -1, 1, 0, 16.8095, 40.7905)">
            <g >
                <g >
                    <g >
                        <g >
                            <g >
                                <rect width="3.11811" x="27.2409" y="10.5732" fill="#F7BD13" gorn="0.3.44.0.0.0.0.0.0"  height="2.83465" stroke="none" id="connector46pad" stroke-width="0"/>
                            </g>
                        </g>
                    </g>
                </g>
            </g>
        </g>
        <rect width="0.552756" x="33.4847" y="38.2477" fill="#F7BD13" gorn="0.3.45"  rx="0.276378" height="2.12599" ry="0.276378" stroke="none" id="connector23pad" stroke-width="0"/>
        <g  transform="matrix(0, -1, 1, 0, 13.2095, 37.1905)">
            <g >
                <g >
                    <g >
                        <g >
                            <g >
                                <rect width="3.11811" x="23.6409" y="10.5732" fill="#F7BD13" gorn="0.3.46.0.0.0.0.0.0"  height="2.83465" stroke="none" id="connector48pad" stroke-width="0"/>
                            </g>
                        </g>
                    </g>
                </g>
            </g>
        </g>
        <circle fill="none" cx="3.6" gorn="0.3.47"  cy="54" connectorname="ADDR" stroke="#F7BD13" r="2.052" id="connector4pin" stroke-width="1.224"/>
        <circle fill="none" cx="3.6" gorn="0.3.48"  cy="32.4" connectorname="~IRQ" stroke="#F7BD13" r="2.052" id="connector1pin" stroke-width="1.224"/>
        <g  transform="matrix(0, -1, 1, 0, -22.7905, 80.3909)">
            <g >
                <g >
                    <g >
                        <g >
                            <g >
                                <rect width="3.11811" x="27.2409" y="50.1732" fill="#F7BD13" gorn="0.3.49.0.0.0.0.0.0"  height="2.83465" stroke="none" id="connector0pad" stroke-width="0"/>
                            </g>
                        </g>
                    </g>
                </g>
            </g>
        </g>
    </g>
</svg>
