<?xml version='1.0' encoding='UTF-8' standalone='no'?>
<!-- Created with Fritzing (http://www.fritzing.org/) -->
<svg xmlns="http://www.w3.org/2000/svg" y="0in"  version="1.2" baseProfile="tiny" height="0.8in" width="0.6in" x="0in" viewBox="0 0 43.2 57.6">
    <desc>
        <referenceFile>Button-LED-Breakout-v10_pcb.svg</referenceFile>
    </desc>
    <desc >Fritzing footprint generated by brd2svg</desc>
    <g id="silkscreen"  gorn="0.1">
        <path fill="none" stroke-width="0.576"  stroke="white" d="M0.288,57.312L42.912,57.312L42.912,0.288L0.288,0.288L0.288,57.312M32.3762,21.6a1.97972,1.97972,0,1,1,3.95943,0,1.97972,1.97972,0,1,1,-3.95943,0zM6.86438,21.6a1.97972,1.97972,0,1,1,3.95943,0,1.97972,1.97972,0,1,1,-3.95943,0z"/>
        <g >
            <title >element:JP1</title>
            <g >
                <title >package:1X04</title>
                <line stroke-width="0.576"  y1="50.4" y2="50.4" stroke="white" x1="30.6" x2="34.2" stroke-linecap="round"/>
                <line stroke-width="0.576"  y1="50.4" y2="52.2" stroke="white" x1="34.2" x2="36" stroke-linecap="round"/>
                <line stroke-width="0.576"  y1="55.8" y2="57.6" stroke="white" x1="36" x2="34.2" stroke-linecap="round"/>
                <line stroke-width="0.576"  y1="52.2" y2="50.4" stroke="white" x1="21.6" x2="23.4" stroke-linecap="round"/>
                <line stroke-width="0.576"  y1="50.4" y2="50.4" stroke="white" x1="23.4" x2="27" stroke-linecap="round"/>
                <line stroke-width="0.576"  y1="50.4" y2="52.2" stroke="white" x1="27" x2="28.8" stroke-linecap="round"/>
                <line stroke-width="0.576"  y1="55.8" y2="57.6" stroke="white" x1="28.8" x2="27" stroke-linecap="round"/>
                <line stroke-width="0.576"  y1="57.6" y2="57.6" stroke="white" x1="27" x2="23.4" stroke-linecap="round"/>
                <line stroke-width="0.576"  y1="57.6" y2="55.8" stroke="white" x1="23.4" x2="21.6" stroke-linecap="round"/>
                <line stroke-width="0.576"  y1="50.4" y2="52.2" stroke="white" x1="30.6" x2="28.8" stroke-linecap="round"/>
                <line stroke-width="0.576"  y1="55.8" y2="57.6" stroke="white" x1="28.8" x2="30.6" stroke-linecap="round"/>
                <line stroke-width="0.576"  y1="57.6" y2="57.6" stroke="white" x1="34.2" x2="30.6" stroke-linecap="round"/>
                <line stroke-width="0.576"  y1="50.4" y2="50.4" stroke="white" x1="9" x2="12.6" stroke-linecap="round"/>
                <line stroke-width="0.576"  y1="50.4" y2="52.2" stroke="white" x1="12.6" x2="14.4" stroke-linecap="round"/>
                <line stroke-width="0.576"  y1="55.8" y2="57.6" stroke="white" x1="14.4" x2="12.6" stroke-linecap="round"/>
                <line stroke-width="0.576"  y1="52.2" y2="50.4" stroke="white" x1="14.4" x2="16.2" stroke-linecap="round"/>
                <line stroke-width="0.576"  y1="50.4" y2="50.4" stroke="white" x1="16.2" x2="19.8" stroke-linecap="round"/>
                <line stroke-width="0.576"  y1="50.4" y2="52.2" stroke="white" x1="19.8" x2="21.6" stroke-linecap="round"/>
                <line stroke-width="0.576"  y1="55.8" y2="57.6" stroke="white" x1="21.6" x2="19.8" stroke-linecap="round"/>
                <line stroke-width="0.576"  y1="57.6" y2="57.6" stroke="white" x1="19.8" x2="16.2" stroke-linecap="round"/>
                <line stroke-width="0.576"  y1="57.6" y2="55.8" stroke="white" x1="16.2" x2="14.4" stroke-linecap="round"/>
                <line stroke-width="0.576"  y1="52.2" y2="55.8" stroke="white" x1="7.2" x2="7.2" stroke-linecap="round"/>
                <line stroke-width="0.576"  y1="50.4" y2="52.2" stroke="white" x1="9" x2="7.2" stroke-linecap="round"/>
                <line stroke-width="0.576"  y1="55.8" y2="57.6" stroke="white" x1="7.2" x2="9" stroke-linecap="round"/>
                <line stroke-width="0.576"  y1="57.6" y2="57.6" stroke="white" x1="12.6" x2="9" stroke-linecap="round"/>
                <line stroke-width="0.576"  y1="52.2" y2="55.8" stroke="white" x1="36" x2="36" stroke-linecap="round"/>
            </g>
        </g>
        <g >
            <title >element:S1</title>
            <g >
                <title >package:TACTILE-PTH-LED-12MM</title>
                <line stroke-width="0.576"  y1="4.59212" y2="4.59212" stroke="white" x1="32.9386" x2="35.348" stroke-linecap="round"/>
                <line stroke-width="0.576"  y1="7.85196" y2="35.348" stroke="white" x1="38.6078" x2="38.6078" stroke-linecap="round"/>
                <line stroke-width="0.576"  y1="38.6078" y2="38.6078" stroke="white" x1="35.348" x2="32.9386" stroke-linecap="round"/>
                <line stroke-width="0.576"  y1="38.6078" y2="38.6078" stroke="white" x1="24.4346" x2="18.7654" stroke-linecap="round"/>
                <line stroke-width="0.576"  y1="38.6078" y2="38.6078" stroke="white" x1="10.2614" x2="7.85196" stroke-linecap="round"/>
                <line stroke-width="0.576"  y1="35.348" y2="7.85196" stroke="white" x1="4.59212" x2="4.59212" stroke-linecap="round"/>
                <line stroke-width="0.576"  y1="4.59212" y2="4.59212" stroke="white" x1="7.85196" x2="10.2614" stroke-linecap="round"/>
                <line stroke-width="0.576"  y1="4.59212" y2="4.59212" stroke="white" x1="18.7654" x2="24.4346" stroke-linecap="round"/>
                <line stroke-width="0.576"  y1="35.348" y2="38.6078" stroke="white" x1="38.6078" x2="35.348" stroke-linecap="round"/>
                <line stroke-width="0.576"  y1="4.59212" y2="7.85196" stroke="white" x1="35.348" x2="38.6078" stroke-linecap="round"/>
                <line stroke-width="0.576"  y1="7.85196" y2="4.59212" stroke="white" x1="4.59212" x2="7.85196" stroke-linecap="round"/>
                <line stroke-width="0.576"  y1="38.6078" y2="35.348" stroke="white" x1="7.85196" x2="4.59212" stroke-linecap="round"/>
                <line stroke-width="0.576"  y1="38.6078" y2="35.7732" stroke="white" x1="24.4346" x2="24.4346" stroke-linecap="round"/>
                <line stroke-width="0.576"  y1="35.7732" y2="35.7732" stroke="white" x1="24.4346" x2="32.9386" stroke-linecap="round"/>
                <line stroke-width="0.576"  y1="35.7732" y2="38.6078" stroke="white" x1="32.9386" x2="32.9386" stroke-linecap="round"/>
                <line stroke-width="0.576"  y1="38.6078" y2="35.7732" stroke="white" x1="18.7654" x2="18.7654" stroke-linecap="round"/>
                <line stroke-width="0.576"  y1="35.7732" y2="35.7732" stroke="white" x1="18.7654" x2="10.2614" stroke-linecap="round"/>
                <line stroke-width="0.576"  y1="35.7732" y2="38.6078" stroke="white" x1="10.2614" x2="10.2614" stroke-linecap="round"/>
                <line stroke-width="0.36"  y1="23.4" y2="21.6" stroke="white" x1="23.4" x2="23.4" stroke-linecap="round"/>
                <line stroke-width="0.36"  y1="21.6" y2="19.8" stroke="white" x1="23.4" x2="23.4" stroke-linecap="round"/>
                <line stroke-width="0.36"  y1="19.8" y2="21.6" stroke="white" x1="23.4" x2="19.8" stroke-linecap="round"/>
                <line stroke-width="0.36"  y1="21.6" y2="23.4" stroke="white" x1="19.8" x2="23.4" stroke-linecap="round"/>
                <line stroke-width="0.36"  y1="23.4" y2="21.6" stroke="white" x1="19.8" x2="19.8" stroke-linecap="round"/>
                <line stroke-width="0.36"  y1="21.6" y2="19.8" stroke="white" x1="19.8" x2="19.8" stroke-linecap="round"/>
                <line stroke-width="0.36"  y1="21.6" y2="21.6" stroke="white" x1="23.4" x2="25.2" stroke-linecap="round"/>
                <line stroke-width="0.36"  y1="21.6" y2="21.6" stroke="white" x1="19.8" x2="18" stroke-linecap="round"/>
                <circle fill="none" stroke-width="0.576"  cx="21.6" cy="21.6" stroke="white" r="9.92124"/>
                <circle fill="none" stroke-width="2.55118"  cx="32.9386" cy="10.2614" stroke="white" r="1.13386"/>
                <circle fill="none" stroke-width="2.55118"  cx="32.9386" cy="32.9386" stroke="white" r="1.13386"/>
                <circle fill="none" stroke-width="2.55118"  cx="10.2614" cy="32.9386" stroke="white" r="1.13386"/>
                <circle fill="none" stroke-width="2.55118"  cx="10.2614" cy="10.2614" stroke="white" r="1.13386"/>
            </g>
        </g>
    </g>
    <g id="copper1"  gorn="0.2">
        <g id="copper0"  gorn="0.2.0">
            <circle fill="none" stroke-width="1.224" id="connector1pad"  cx="18" cy="54" stroke="#F7BD13" r="2.052" gorn="0.2.0.0" connectorname="2"/>
            <circle fill="none" stroke-width="1.224" id="connector2pad"  cx="25.2" cy="54" stroke="#F7BD13" r="2.052" gorn="0.2.0.1" connectorname="3"/>
            <circle fill="none" stroke-width="1.224" id="connector3pad"  cx="32.4" cy="54" stroke="#F7BD13" r="2.052" gorn="0.2.0.2" connectorname="4"/>
            <circle fill="none" stroke-width="1.224" id="connector0pad"  cx="10.8" cy="54" stroke="#F7BD13" r="2.052" gorn="0.2.0.3" connectorname="1"/>
            <rect y="51.948" fill="none" stroke-width="1.224"  stroke="#F7BD13" height="4.104" width="4.104" x="8.748"/>
        </g>
    </g>
</svg>
