<?xml version='1.0' encoding='utf-8'?>
<!DOCTYPE svg>
<!-- Generator: Adobe Illustrator 17.0.0, SVG Export Plug-In . SVG Version: 6.00 Build 0)  -->
<svg xmlns="http://www.w3.org/2000/svg" width="0.658861in" x="0px" version="1.1" y="0px" gorn="0"  height="0.555556in" viewBox="0 0 47.438 40" xmlns:xml="http://www.w3.org/XML/1998/namespace" id="Layer_1" enable-background="new -0.563 0 47.438 40" xml:space="preserve">
    <desc >
        <referenceFile >CC3000_2_pcb.svg</referenceFile>
    </desc>
    <g  transform="translate(0.563,0)">
        <g >
            <g >
                <g >
                    <g gorn="0.1.0.0.0.0"  id="_x3C_desc_x3E_"/>
                    <rect width="46.395" x="0.025" y="0.681" fill="none"  height="38.793" stroke="#FFFFFF" stroke-width="1" stroke-miterlimit="10"/>
                    <g display="none" gorn="0.1.0.0.0.2"  id="breadboard_1_">
                        <g display="inline" gorn="0.1.0.0.0.2.0"  id="icon_1_">
                            <rect width="46.42" x="0" y="0.662" fill="#325E3B"  height="38.813"/>
                            <g gorn="0.1.0.0.0.2.0.1"  id="_x3C_Group_x3E_">
                                <g >
                                    <rect width="45.616" x="0.485" y="1.064" fill="#2C4933"  height="38.115"/>
                                    <path fill="#888E8A"  d="M31.394,2.353c0-0.592,0.508-0.994,0.994-0.994l12.5,0c0.592,0,0.994,0.402,0.994,0.994l0,35.422c0,0.592-0.508,0.994-0.994,0.994l-12.492,0c-0.592,0-0.994-0.402-0.994-0.994L31.394,2.353L31.394,2.353z"/>
                                    <path fill="#888E8A"  d="M0.698,2.353c0-0.592,0.508-0.994,0.994-0.994l12.5,0c0.592,0,0.994,0.402,0.994,0.994l0,35.422c0,0.592-0.508,0.994-0.994,0.994l-12.5,0c-0.592,0-0.994-0.402-0.994-0.994L0.698,2.353L0.698,2.353z"/>
                                    <rect width="25.212" x="11.4" y="1.359" fill="#888E8A"  height="29.111"/>
                                    <path fill="#99988C"  d="M0.994,2.656c0-0.592,0.508-0.994,0.994-0.994l42.415,0c0.592,0,0.994,0.402,0.994,0.994l0,34.914c0,0.592-0.508,0.994-0.994,0.994l-42.415,0c-0.592,0-0.994-0.402-0.994-0.994C0.994,37.57,0.994,2.656,0.994,2.656z"/>
                                    <g  transform="matrix(1 0 0 1 10.4698 8.6124)">
                                        <g >
                                            <g >
                                                <text fill="#C1B8AF" font-family="OCRA"  font-size="6.0035">CC3000</text>
                                            </g>
                                        </g>
                                    </g>
                                </g>
                            </g>
                            <g gorn="0.1.0.0.0.2.0.2"  id="copper1_2_">
                                <g gorn="0.1.0.0.0.2.0.2.0"  id="copper0_1_">
                                    <rect width="3.413" x="0.994" y="24.183" fill="none" gorn="0.1.0.0.0.2.0.2.0.0"  height="1.995" id="connector34pin_1_"/>
                                    <rect width="3.413" x="0.994" y="27.565" fill="none" gorn="0.1.0.0.0.2.0.2.0.1"  height="1.995" id="connector35pin_1_"/>
                                    <rect width="3.413" x="0.994" y="30.979" fill="none" gorn="0.1.0.0.0.2.0.2.0.2"  height="1.995" id="connector36pin_1_"/>
                                    <rect width="5.4" x="10.399" y="22.757" fill="none" gorn="0.1.0.0.0.2.0.2.0.3"  height="6.804" id="connector37pin_1_"/>
                                    <rect width="5.4" x="20.593" y="22.757" fill="none" gorn="0.1.0.0.0.2.0.2.0.4"  height="6.804" id="connector38pin_1_"/>
                                    <rect width="5.4" x="30.803" y="22.757" fill="none" gorn="0.1.0.0.0.2.0.2.0.5"  height="6.804" id="connector39pin_2_"/>
                                    <rect width="5.4" x="10.399" y="10.552" fill="none" gorn="0.1.0.0.0.2.0.2.0.6"  height="6.804" id="connector40pin_1_"/>
                                    <rect width="5.4" x="20.593" y="10.552" fill="none" gorn="0.1.0.0.0.2.0.2.0.7"  height="6.804" id="connector41pin_1_"/>
                                    <rect width="5.4" x="30.803" y="10.552" fill="none" gorn="0.1.0.0.0.2.0.2.0.8"  height="6.804" id="connector42pin_1_"/>
                                    <rect width="3.413" x="0.994" y="34.984" fill="none" gorn="0.1.0.0.0.2.0.2.0.9"  height="3.413" id="connector43pin_1_"/>
                                    <rect width="3.413" x="42.119" y="34.984" fill="none" gorn="0.1.0.0.0.2.0.2.0.10"  height="3.413" id="connector44pin_1_"/>
                                    <rect width="3.413" x="42.119" y="1.761" fill="none" gorn="0.1.0.0.0.2.0.2.0.11"  height="3.413" id="connector45pin_1_"/>
                                    <rect width="3.413" x="0.994" y="1.761" fill="none" gorn="0.1.0.0.0.2.0.2.0.12"  height="3.413" id="connector46pin_1_"/>
                                    <rect width="1.995" x="6.887" y="34.984" fill="none" gorn="0.1.0.0.0.2.0.2.0.13"  height="3.413" id="connector01pin_2_"/>
                                    <rect width="1.995" x="10.399" y="34.984" fill="none" gorn="0.1.0.0.0.2.0.2.0.14"  height="3.413" id="connector02pin_2_"/>
                                    <rect width="1.995" x="13.789" y="34.984" fill="none" gorn="0.1.0.0.0.2.0.2.0.15"  height="3.413" id="connector03pin_2_"/>
                                    <rect width="1.995" x="17.203" y="34.984" fill="none" gorn="0.1.0.0.0.2.0.2.0.16"  height="3.413" id="connector04pin_2_"/>
                                    <rect width="1.995" x="20.593" y="34.984" fill="none" gorn="0.1.0.0.0.2.0.2.0.17"  height="3.413" id="connector05pin_2_"/>
                                    <rect width="1.995" x="24.006" y="34.984" fill="none" gorn="0.1.0.0.0.2.0.2.0.18"  height="3.413" id="connector08pin_4_"/>
                                    <rect width="1.995" x="27.389" y="34.984" fill="none" gorn="0.1.0.0.0.2.0.2.0.19"  height="3.413" id="connector07pin_2_"/>
                                    <rect width="1.995" x="30.803" y="34.984" fill="none" gorn="0.1.0.0.0.2.0.2.0.20"  height="3.413" id="connector08pin_3_"/>
                                    <rect width="1.995" x="34.216" y="34.984" fill="none" gorn="0.1.0.0.0.2.0.2.0.21"  height="3.413" id="connector09pin_2_"/>
                                    <rect width="1.995" x="37.606" y="34.984" fill="none" gorn="0.1.0.0.0.2.0.2.0.22"  height="3.413" id="connector10pin_2_"/>
                                    <rect width="3.413" x="42.119" y="30.979" fill="none" gorn="0.1.0.0.0.2.0.2.0.23"  height="1.995" id="connector11pin_2_"/>
                                    <rect width="3.413" x="42.119" y="27.566" fill="none" gorn="0.1.0.0.0.2.0.2.0.24"  height="1.995" id="connector12pin_2_"/>
                                    <rect width="3.413" x="42.119" y="24.183" fill="none" gorn="0.1.0.0.0.2.0.2.0.25"  height="1.995" id="connector13pin_1_"/>
                                    <rect width="3.413" x="42.119" y="20.769" fill="none" gorn="0.1.0.0.0.2.0.2.0.26"  height="1.995" id="connector14pin_1_"/>
                                    <rect width="3.413" x="42.119" y="17.356" fill="none" gorn="0.1.0.0.0.2.0.2.0.27"  height="1.995" id="connector15pin_1_"/>
                                    <rect width="3.413" x="42.119" y="13.966" fill="none" gorn="0.1.0.0.0.2.0.2.0.28"  height="1.995" id="connector16pin_1_"/>
                                    <rect width="3.413" x="42.119" y="10.552" fill="none" gorn="0.1.0.0.0.2.0.2.0.29"  height="1.995" id="connector17pin_1_"/>
                                    <rect width="3.413" x="42.119" y="7.17" fill="none" gorn="0.1.0.0.0.2.0.2.0.30"  height="1.995" id="connector18pin_1_"/>
                                    <rect width="1.995" x="37.606" y="1.761" fill="none" gorn="0.1.0.0.0.2.0.2.0.31"  height="3.413" id="connector19pin_1_"/>
                                    <rect width="1.995" x="34.216" y="1.761" fill="none" gorn="0.1.0.0.0.2.0.2.0.32"  height="3.413" id="connector20pin_1_"/>
                                    <rect width="1.995" x="30.803" y="1.761" fill="none" gorn="0.1.0.0.0.2.0.2.0.33"  height="3.413" id="connector21pin_1_"/>
                                    <rect width="1.995" x="27.389" y="1.761" fill="none" gorn="0.1.0.0.0.2.0.2.0.34"  height="3.413" id="connector22pin_1_"/>
                                    <rect width="1.995" x="24.007" y="1.761" fill="none" gorn="0.1.0.0.0.2.0.2.0.35"  height="3.413" id="connector23pin_1_"/>
                                    <rect width="1.995" x="20.593" y="1.761" fill="none" gorn="0.1.0.0.0.2.0.2.0.36"  height="3.413" id="connector24pin_1_"/>
                                    <rect width="1.995" x="17.203" y="1.761" fill="none" gorn="0.1.0.0.0.2.0.2.0.37"  height="3.413" id="connector25pin_1_"/>
                                    <rect width="1.995" x="13.79" y="1.761" fill="none" gorn="0.1.0.0.0.2.0.2.0.38"  height="3.413" id="connector26pin_1_"/>
                                    <rect width="1.995" x="10.399" y="1.761" fill="none" gorn="0.1.0.0.0.2.0.2.0.39"  height="3.413" id="connector27pin_1_"/>
                                    <rect width="1.995" x="6.887" y="1.761" fill="none" gorn="0.1.0.0.0.2.0.2.0.40"  height="3.413" id="connector28pin_1_"/>
                                    <rect width="3.413" x="0.994" y="7.169" fill="none" gorn="0.1.0.0.0.2.0.2.0.41"  height="1.995" id="connector29pin_1_"/>
                                    <rect width="3.413" x="0.994" y="10.552" fill="none" gorn="0.1.0.0.0.2.0.2.0.42"  height="1.995" id="connector30pin_1_"/>
                                    <rect width="3.413" x="0.994" y="13.966" fill="none" gorn="0.1.0.0.0.2.0.2.0.43"  height="1.995" id="connector31pin_1_"/>
                                    <rect width="3.413" x="0.994" y="17.356" fill="none" gorn="0.1.0.0.0.2.0.2.0.44"  height="1.995" id="connector32pin_1_"/>
                                    <rect width="3.413" x="0.994" y="20.769" fill="none" gorn="0.1.0.0.0.2.0.2.0.45"  height="1.995" id="connector33pin_1_"/>
                                    <circle fill="none" cx="7.904"  cy="31.972" stroke="#87867E" r="1.396" stroke-width="0.5" stroke-miterlimit="10"/>
                                </g>
                            </g>
                        </g>
                    </g>
                    <g gorn="0.1.0.0.0.3"  id="copper1_1_">
                        <g gorn="0.1.0.0.0.3.0"  id="copper0">
                            <rect width="3.409" x="1.02" y="24.185" fill="#F7BD13" gorn="0.1.0.0.0.3.0.0"  height="1.99" id="connector34pin"/>
                            <rect width="3.409" x="1.02" y="27.574" fill="#F7BD13" gorn="0.1.0.0.0.3.0.1"  height="1.99" id="connector35pin"/>
                            <rect width="3.409" x="1.02" y="30.983" fill="#F7BD13" gorn="0.1.0.0.0.3.0.2"  height="1.99" id="connector36pin"/>
                            <rect width="5.4" x="10.422" y="22.767" fill="#F7BD13" gorn="0.1.0.0.0.3.0.3"  height="6.797" id="connector37pin"/>
                            <rect width="5.4" x="20.607" y="22.767" fill="#F7BD13" gorn="0.1.0.0.0.3.0.4"  height="6.797" id="connector38pin"/>
                            <rect width="5.4" x="30.814" y="22.767" fill="#F7BD13" gorn="0.1.0.0.0.3.0.5"  height="6.797" id="connector39pin"/>
                            <rect width="5.4" x="10.422" y="10.57" fill="#F7BD13" gorn="0.1.0.0.0.3.0.6"  height="6.797" id="connector40pin"/>
                            <rect width="5.4" x="20.607" y="10.57" fill="#F7BD13" gorn="0.1.0.0.0.3.0.7"  height="6.797" id="connector41pin"/>
                            <rect width="5.4" x="30.814" y="10.57" fill="#F7BD13" gorn="0.1.0.0.0.3.0.8"  height="6.797" id="connector42pin"/>
                            <rect width="3.409" x="1.02" y="34.985" fill="#F7BD13" gorn="0.1.0.0.0.3.0.9"  height="3.409" id="connector43pin"/>
                            <rect width="3.409" x="42.121" y="34.985" fill="#F7BD13" gorn="0.1.0.0.0.3.0.10"  height="3.409" id="connector44pin"/>
                            <rect width="3.409" x="42.121" y="1.782" fill="#F7BD13" gorn="0.1.0.0.0.3.0.11"  height="3.409" id="connector45pin"/>
                            <rect width="3.409" x="1.02" y="1.782" fill="#F7BD13" gorn="0.1.0.0.0.3.0.12"  height="3.409" id="connector46pin"/>
                            <rect width="1.99" x="6.907" y="34.985" fill="#F7BD13" gorn="0.1.0.0.0.3.0.13"  height="3.409" id="connector0pin"/>
                            <rect width="1.99" x="10.422" y="34.985" fill="#F7BD13" gorn="0.1.0.0.0.3.0.14"  height="3.409" id="connector1pin"/>
                            <rect width="1.99" x="13.81" y="34.985" fill="#F7BD13" gorn="0.1.0.0.0.3.0.15"  height="3.409" id="connector2pin"/>
                            <rect width="1.99" x="17.219" y="34.985" fill="#F7BD13" gorn="0.1.0.0.0.3.0.16"  height="3.409" id="connector3pin"/>
                            <rect width="1.99" x="20.607" y="34.985" fill="#F7BD13" gorn="0.1.0.0.0.3.0.17"  height="3.409" id="connector4pin"/>
                            <rect width="1.99" x="24.016" y="34.985" fill="#F7BD13" gorn="0.1.0.0.0.3.0.18"  height="3.409" id="connector5pin"/>
                            <rect width="1.99" x="27.405" y="34.985" fill="#F7BD13" gorn="0.1.0.0.0.3.0.19"  height="3.409" id="connector6pin"/>
                            <rect width="1.99" x="30.814" y="34.985" fill="#F7BD13" gorn="0.1.0.0.0.3.0.20"  height="3.409" id="connector7pin"/>
                            <rect width="1.99" x="34.223" y="34.985" fill="#F7BD13" gorn="0.1.0.0.0.3.0.21"  height="3.409" id="connector9pin"/>
                            <rect width="1.99" x="37.611" y="34.985" fill="#F7BD13" gorn="0.1.0.0.0.3.0.22"  height="3.409" id="connector10pin"/>
                            <rect width="3.409" x="42.121" y="30.983" fill="#F7BD13" gorn="0.1.0.0.0.3.0.23"  height="1.99" id="connector11pin"/>
                            <rect width="3.409" x="42.121" y="27.574" fill="#F7BD13" gorn="0.1.0.0.0.3.0.24"  height="1.99" id="connector12pin"/>
                            <rect width="3.409" x="42.121" y="24.185" fill="#F7BD13" gorn="0.1.0.0.0.3.0.25"  height="1.99" id="connector13pin"/>
                            <rect width="3.409" x="42.121" y="20.776" fill="#F7BD13" gorn="0.1.0.0.0.3.0.26"  height="1.99" id="connector14pin"/>
                            <rect width="3.409" x="42.121" y="17.367" fill="#F7BD13" gorn="0.1.0.0.0.3.0.27"  height="1.99" id="connector15pin"/>
                            <rect width="3.409" x="42.121" y="13.979" fill="#F7BD13" gorn="0.1.0.0.0.3.0.28"  height="1.99" id="connector16pin"/>
                            <rect width="3.409" x="42.121" y="10.57" fill="#F7BD13" gorn="0.1.0.0.0.3.0.29"  height="1.99" id="connector17pin"/>
                            <rect width="3.409" x="42.121" y="7.182" fill="#F7BD13" gorn="0.1.0.0.0.3.0.30"  height="1.99" id="connector18pin"/>
                            <rect width="1.99" x="37.611" y="1.782" fill="#F7BD13" gorn="0.1.0.0.0.3.0.31"  height="3.409" id="connector19pin"/>
                            <rect width="1.99" x="34.223" y="1.782" fill="#F7BD13" gorn="0.1.0.0.0.3.0.32"  height="3.409" id="connector20pin"/>
                            <rect width="1.99" x="30.814" y="1.782" fill="#F7BD13" gorn="0.1.0.0.0.3.0.33"  height="3.409" id="connector21pin"/>
                            <rect width="1.99" x="27.405" y="1.782" fill="#F7BD13" gorn="0.1.0.0.0.3.0.34"  height="3.409" id="connector22pin"/>
                            <rect width="1.99" x="24.016" y="1.782" fill="#F7BD13" gorn="0.1.0.0.0.3.0.35"  height="3.409" id="connector23pin"/>
                            <rect width="1.99" x="20.607" y="1.782" fill="#F7BD13" gorn="0.1.0.0.0.3.0.36"  height="3.409" id="connector24pin"/>
                            <rect width="1.99" x="17.219" y="1.782" fill="#F7BD13" gorn="0.1.0.0.0.3.0.37"  height="3.409" id="connector25pin"/>
                            <rect width="1.99" x="13.81" y="1.782" fill="#F7BD13" gorn="0.1.0.0.0.3.0.38"  height="3.409" id="connector26pin"/>
                            <rect width="1.99" x="10.422" y="1.782" fill="#F7BD13" gorn="0.1.0.0.0.3.0.39"  height="3.409" id="connector27pin"/>
                            <rect width="1.99" x="6.907" y="1.782" fill="#F7BD13" gorn="0.1.0.0.0.3.0.40"  height="3.409" id="connector28pin"/>
                            <rect width="3.409" x="1.02" y="7.182" fill="#F7BD13" gorn="0.1.0.0.0.3.0.41"  height="1.99" id="connector29pin"/>
                            <rect width="3.409" x="1.02" y="10.57" fill="#F7BD13" gorn="0.1.0.0.0.3.0.42"  height="1.99" id="connector30pin"/>
                            <rect width="3.409" x="1.02" y="13.979" fill="#F7BD13" gorn="0.1.0.0.0.3.0.43"  height="1.99" id="connector31pin"/>
                            <rect width="3.409" x="1.02" y="17.367" fill="#F7BD13" gorn="0.1.0.0.0.3.0.44"  height="1.99" id="connector32pin"/>
                            <rect width="3.409" x="1.02" y="20.776" fill="#F7BD13" gorn="0.1.0.0.0.3.0.45"  height="1.99" id="connector33pin"/>
                            <circle fill="#F7BD13" cx="7.923"  cy="31.978" r="1.398"/>
                        </g>
                    </g>
                </g>
            </g>
        </g>
    </g>
</svg>
