<?xml version='1.0' encoding='utf-8'?>
<!-- Generator: Adobe Illustrator 16.0.0, SVG Export Plug-In . SVG Version: 6.00 Build 0)  -->
<svg xmlns="http://www.w3.org/2000/svg" gorn="0" viewBox="0 0 241.818 159.696" width="3.35858in" height="2.218in" version="1.2"  xml:space="preserve" x="0px" y="0px" id="Layer_1" xmlns:xml="http://www.w3.org/XML/1998/namespace" baseProfile="tiny">
    <desc >
        <referenceFile >Raspberry_pi2_v1.1_pcb.svg</referenceFile>
    </desc>
    <path gorn="0.1" stroke="#FFFFFF" fill="none" stroke-miterlimit="10" d="M232.911,0.564H8.973c-4.677,0-8.504,3.827-8.504,8.504v141.731c0,4.678,3.827,8.504,8.504,8.504h223.938c4.678,0,8.504-3.826,8.504-8.504V9.068C241.415,4.391,237.589,0.564,232.911,0.564z M10.39,153.28c-2.152,0-3.897-1.744-3.897-3.898c0-2.152,1.745-3.896,3.897-3.896c2.152,0,3.898,1.744,3.898,3.896C14.288,151.536,12.542,153.28,10.39,153.28z M10.39,14.383c-2.152,0-3.897-1.745-3.897-3.898c0-2.152,1.745-3.897,3.897-3.897c2.152,0,3.898,1.745,3.898,3.897C14.288,12.638,12.542,14.383,10.39,14.383z M174.802,153.28c-2.152,0-3.898-1.744-3.898-3.898c0-2.152,1.746-3.896,3.898-3.896s3.896,1.744,3.896,3.896C178.698,151.536,176.954,153.28,174.802,153.28z M174.802,14.383c-2.152,0-3.898-1.745-3.898-3.898c0-2.152,1.746-3.897,3.898-3.897s3.896,1.745,3.896,3.897C178.698,12.638,176.954,14.383,174.802,14.383z"  stroke-width="0.75" id="silkscreen"/>
    <g gorn="0.2"  id="copper1">
        <g gorn="0.2.0"  id="copper0">
            <circle cy="12.919" gorn="0.2.0.0" stroke="#FFBF00" r="2.088" fill="none"  id="connector0pin" cx="24.185"/>
            <circle cy="12.919" gorn="0.2.0.1" stroke="#FFBF00" r="2.088" fill="none"  id="connector1pin" cx="31.384"/>
            <circle cy="12.919" gorn="0.2.0.2" stroke="#FFBF00" r="2.088" fill="none"  id="connector2pin" cx="38.585"/>
            <circle cy="12.919" gorn="0.2.0.3" stroke="#FFBF00" r="2.088" fill="none"  id="connector3pin" cx="45.784"/>
            <circle cy="12.919" gorn="0.2.0.4" stroke="#FFBF00" r="2.089" fill="none"  id="connector4pin" cx="52.985"/>
            <circle cy="12.919" gorn="0.2.0.5" stroke="#FFBF00" r="2.088" fill="none"  id="connector5pin" cx="60.185"/>
            <circle cy="12.919" gorn="0.2.0.6" stroke="#FFBF00" r="2.088" fill="none"  id="connector6pin" cx="67.384"/>
            <circle cy="12.919" gorn="0.2.0.7" stroke="#FFBF00" r="2.088" fill="none"  id="connector7pin" cx="74.585"/>
            <circle cy="12.919" gorn="0.2.0.8" stroke="#FFBF00" r="2.088" fill="none"  id="connector8pin" cx="81.784"/>
            <circle cy="12.919" gorn="0.2.0.9" stroke="#FFBF00" r="2.089" fill="none"  id="connector9pin" cx="88.985"/>
            <circle cy="12.919" gorn="0.2.0.10" stroke="#FFBF00" r="2.088" fill="none"  id="connector10pin" cx="96.185"/>
            <circle cy="12.919" gorn="0.2.0.11" stroke="#FFBF00" r="2.089" fill="none"  id="connector11pin" cx="103.385"/>
            <circle cy="12.919" gorn="0.2.0.12" stroke="#FFBF00" r="2.088" fill="none"  id="connector12pin" cx="110.585"/>
            <circle cy="12.919" gorn="0.2.0.13" stroke="#FFBF00" r="2.088" fill="none"  id="connector13pin" cx="117.784"/>
            <circle cy="12.919" gorn="0.2.0.14" stroke="#FFBF00" r="2.088" fill="none"  id="connector14pin" cx="124.986"/>
            <circle cy="12.919" gorn="0.2.0.15" stroke="#FFBF00" r="2.088" fill="none"  id="connector15pin" cx="132.185"/>
            <circle cy="12.919" gorn="0.2.0.16" stroke="#FFBF00" r="2.089" fill="none"  id="connector16pin" cx="139.385"/>
            <circle cy="12.919" gorn="0.2.0.17" stroke="#FFBF00" r="2.088" fill="none"  id="connector17pin" cx="146.585"/>
            <circle cy="12.919" gorn="0.2.0.18" stroke="#FFBF00" r="2.088" fill="none"  id="connector18pin" cx="153.784"/>
            <circle cy="12.919" gorn="0.2.0.19" stroke="#FFBF00" r="2.088" fill="none"  id="connector19pin" cx="160.986"/>
            <circle cy="5.72" gorn="0.2.0.20" stroke="#FFBF00" r="2.088" fill="none"  id="connector20pin" cx="160.986"/>
            <circle cy="5.72" gorn="0.2.0.21" stroke="#FFBF00" r="2.088" fill="none"  id="connector21pin" cx="153.784"/>
            <circle cy="5.72" gorn="0.2.0.22" stroke="#FFBF00" r="2.088" fill="none"  id="connector22pin" cx="146.585"/>
            <circle cy="5.72" gorn="0.2.0.23" stroke="#FFBF00" r="2.089" fill="none"  id="connector23pin" cx="139.385"/>
            <circle cy="5.72" gorn="0.2.0.24" stroke="#FFBF00" r="2.088" fill="none"  id="connector24pin" cx="132.185"/>
            <circle cy="5.72" gorn="0.2.0.25" stroke="#FFBF00" r="2.088" fill="none"  id="connector25pin" cx="124.986"/>
            <circle cy="5.72" gorn="0.2.0.26" stroke="#FFBF00" r="2.088" fill="none"  id="connector26pin" cx="117.784"/>
            <circle cy="5.72" gorn="0.2.0.27" stroke="#FFBF00" r="2.088" fill="none"  id="connector27pin" cx="110.585"/>
            <circle cy="5.72" gorn="0.2.0.28" stroke="#FFBF00" r="2.089" fill="none"  id="connector28pin" cx="103.385"/>
            <circle cy="5.72" gorn="0.2.0.29" stroke="#FFBF00" r="2.088" fill="none"  id="connector29pin" cx="96.185"/>
            <circle cy="5.72" gorn="0.2.0.30" stroke="#FFBF00" r="2.089" fill="none"  id="connector30pin" cx="88.985"/>
            <circle cy="5.72" gorn="0.2.0.31" stroke="#FFBF00" r="2.088" fill="none"  id="connector31pin" cx="81.784"/>
            <circle cy="5.72" gorn="0.2.0.32" stroke="#FFBF00" r="2.088" fill="none"  id="connector32pin" cx="74.585"/>
            <circle cy="5.72" gorn="0.2.0.33" stroke="#FFBF00" r="2.088" fill="none"  id="connector33pin" cx="67.384"/>
            <circle cy="5.72" gorn="0.2.0.34" stroke="#FFBF00" r="2.088" fill="none"  id="connector34pin" cx="60.185"/>
            <circle cy="5.72" gorn="0.2.0.35" stroke="#FFBF00" r="2.089" fill="none"  id="connector35pin" cx="52.985"/>
            <circle cy="5.72" gorn="0.2.0.36" stroke="#FFBF00" r="2.088" fill="none"  id="connector36pin" cx="45.784"/>
            <circle cy="5.72" gorn="0.2.0.37" stroke="#FFBF00" r="2.088" fill="none"  id="connector37pin" cx="38.585"/>
            <circle cy="5.72" gorn="0.2.0.38" stroke="#FFBF00" r="2.088" fill="none"  id="connector38pin" cx="31.384"/>
            <circle cy="5.72" gorn="0.2.0.39" stroke="#FFBF00" r="2.088" fill="none"  id="connector39pin" cx="24.185"/>
        </g>
    </g>
</svg>
