<?xml version='1.0' encoding='utf-8'?>
<!-- Generator: Adobe Illustrator 16.0.0, SVG Export Plug-In . SVG Version: 6.00 Build 0)  -->
<svg xmlns="http://www.w3.org/2000/svg" height="2.39568in" id="0" width="2.39068in" gorn="0" viewBox="0 0 172.129 172.489" x="0px"  y="0px" xml:space="preserve" version="1.2" baseProfile="tiny" xmlns:xml="http://www.w3.org/XML/1998/namespace">
    <desc id="0.0" >
        <referenceFile id="0.0.0" >LED_Matrix_LBT2088AH_pcb.svg</referenceFile>
    </desc>
    <g id="silkscreen" gorn="0.1" >
        <path id="0.1.0" gorn="0.1.0" d="M0,144.567v26.93h28.347v-1.418h28.346&#xa;&#x9;&#x9;v1.418h58.11v-1.418h28.347v1.418h26.93v-26.93h1.417l0.001-28.347h-1.185l-0.233-58.11h1.418V29.764h-1.418V1.417h-26.93V0&#xa;&#x9;&#x9;h-28.347v1.417h-58.11V0H28.347v1.417H0v28.346h1.417V58.11H0v58.11h1.417v28.347H0z"  fill="none" stroke-miterlimit="10" stroke="#FFFFFF" stroke-width="0.2835"/>
    </g>
    <g id="copper0" gorn="0.2" >
        <g id="copper1" gorn="0.2.0" >
            <circle id="connector9pin" r="2.052" gorn="0.2.0.0" cx="110.923" cy="22.691"  fill="none" stroke="#F7BD13" stroke-width="1.224"/>
            <circle id="connector10pin" r="2.052" gorn="0.2.0.1" cx="103.804" cy="22.693"  fill="none" stroke="#F7BD13" stroke-width="1.224"/>
            <circle id="connector11pin" r="2.052" gorn="0.2.0.2" cx="96.604" cy="22.693"  fill="none" stroke="#F7BD13" stroke-width="1.224"/>
            <circle id="connector12pin" r="2.052" gorn="0.2.0.3" cx="89.321" cy="22.691"  fill="none" stroke="#F7BD13" stroke-width="1.224"/>
            <circle id="connector13pin" r="2.052" gorn="0.2.0.4" cx="82.202" cy="22.693"  fill="none" stroke="#F7BD13" stroke-width="1.224"/>
            <circle id="connector14pin" r="2.052" gorn="0.2.0.5" cx="75.003" cy="22.693"  fill="none" stroke="#F7BD13" stroke-width="1.224"/>
            <circle id="connector15pin" r="2.052" gorn="0.2.0.6" cx="67.802" cy="22.693"  fill="none" stroke="#F7BD13" stroke-width="1.224"/>
            <circle id="connector16pin" r="2.052" gorn="0.2.0.7" cx="60.577" cy="22.663"  fill="none" stroke="#F7BD13" stroke-width="1.224"/>
            <circle id="connector8pin" r="2.052" gorn="0.2.0.8" cx="110.923" cy="153.084"  fill="none" stroke="#F7BD13" stroke-width="1.224"/>
            <circle id="connector7pin" r="2.052" gorn="0.2.0.9" cx="103.804" cy="153.086"  fill="none" stroke="#F7BD13" stroke-width="1.224"/>
            <circle id="connector6pin" r="2.052" gorn="0.2.0.10" cx="96.604" cy="153.086"  fill="none" stroke="#F7BD13" stroke-width="1.224"/>
            <circle id="connector4pin" r="2.052" gorn="0.2.0.11" cx="89.321" cy="153.084"  fill="none" stroke="#F7BD13" stroke-width="1.224"/>
            <circle id="connector3pin" r="2.052" gorn="0.2.0.12" cx="82.202" cy="153.086"  fill="none" stroke="#F7BD13" stroke-width="1.224"/>
            <circle id="connector2pin" r="2.052" gorn="0.2.0.13" cx="75.002" cy="153.086"  fill="none" stroke="#F7BD13" stroke-width="1.224"/>
            <circle id="connector1pin" r="2.052" gorn="0.2.0.14" cx="67.801" cy="153.086"  fill="none" stroke="#F7BD13" stroke-width="1.224"/>
            <circle id="connector0pin" r="2.052" gorn="0.2.0.15" cx="60.576" cy="153.056"  fill="none" stroke="#F7BD13" stroke-width="1.224"/>
        </g>
    </g>
</svg>
