<?xml version="1.0" encoding="UTF-8" standalone="no"?>
<!-- Generator: Adobe Illustrator 16.0.0, SVG Export Plug-In . SVG Version: 6.00 Build 0)  -->

<svg
   xmlns:dc="http://purl.org/dc/elements/1.1/"
   xmlns:cc="http://creativecommons.org/ns#"
   xmlns:rdf="http://www.w3.org/1999/02/22-rdf-syntax-ns#"
   xmlns:svg="http://www.w3.org/2000/svg"
   xmlns="http://www.w3.org/2000/svg"
   xmlns:sodipodi="http://sodipodi.sourceforge.net/DTD/sodipodi-0.dtd"
   xmlns:inkscape="http://www.inkscape.org/namespaces/inkscape"
   version="1.1"
   id="Layer_1"
   x="0px"
   y="0px"
   width="29.5625"
   height="14.766243"
   viewBox="0 0 29.5625 14.766243"
   enable-background="new 0 0 30.24 30.24"
   xml:space="preserve"
   inkscape:version="0.48.4 r9939"
   sodipodi:docname="RioRand_LM2596_pcb.svg"><metadata
   id="metadata31"><rdf:RDF><cc:Work
       rdf:about=""><dc:format>image/svg+xml</dc:format><dc:type
         rdf:resource="http://purl.org/dc/dcmitype/StillImage" /></cc:Work></rdf:RDF></metadata><defs
   id="defs29" /><sodipodi:namedview
   pagecolor="#ffffff"
   bordercolor="#666666"
   borderopacity="1"
   objecttolerance="10"
   gridtolerance="10"
   guidetolerance="10"
   inkscape:pageopacity="0"
   inkscape:pageshadow="2"
   inkscape:window-width="1034"
   inkscape:window-height="704"
   id="namedview27"
   showgrid="false"
   inkscape:zoom="7.8"
   inkscape:cx="14.432499"
   inkscape:cy="-14.840813"
   inkscape:window-x="2632"
   inkscape:window-y="0"
   inkscape:window-maximized="0"
   inkscape:current-layer="Layer_1"
   fit-margin-top="0"
   fit-margin-left="0"
   fit-margin-right="0"
   fit-margin-bottom="0" />
<g
   id="silkscreen"
   transform="matrix(1,0,0,0.49949238,-0.34375,-0.17170051)">
	<line
   x1="0.72000003"
   y1="0.72000003"
   x2="0.72000003"
   y2="29.52"
   id="line4"
   style="fill:none;stroke:#ffffff;stroke-width:0.75" />
	<line
   x1="0.72000003"
   y1="29.52"
   x2="29.521"
   y2="29.52"
   id="line6"
   style="fill:none;stroke:#ffffff;stroke-width:0.75" />
	<line
   x1="29.521"
   y1="29.52"
   x2="29.521"
   y2="0.72000003"
   id="line8"
   style="fill:none;stroke:#ffffff;stroke-width:0.75" />
	<line
   x1="0.72000003"
   y1="0.72000003"
   x2="11.52"
   y2="0.72000003"
   id="line10"
   style="fill:none;stroke:#ffffff;stroke-width:0.75" />
	<line
   x1="18.719999"
   y1="0.72000003"
   x2="29.521"
   y2="0.72000003"
   id="line12"
   style="fill:none;stroke:#ffffff;stroke-width:0.75" />
</g>
<g
   id="copper0"
   transform="translate(-0.34375,-0.49334988)">
	<g
   id="copper1">
		
		<circle
   id="connector0pin"
   cx="4.3200002"
   cy="4.3200002"
   r="1.584"
   sodipodi:cx="4.3200002"
   sodipodi:cy="4.3200002"
   sodipodi:rx="1.584"
   sodipodi:ry="1.584"
   style="fill:none;stroke:#ffbf00;stroke-width:1.15199995"
   d="m 5.9040002,4.3200002 c 0,0.874819 -0.709181,1.584 -1.584,1.584 -0.8748191,0 -1.584,-0.709181 -1.584,-1.584 0,-0.8748191 0.7091809,-1.584 1.584,-1.584 0.874819,0 1.584,0.7091809 1.584,1.584 z" />
		<circle
   id="connector1pin"
   cx="4.3200002"
   cy="11.52"
   r="1.584"
   sodipodi:cx="4.3200002"
   sodipodi:cy="11.52"
   sodipodi:rx="1.584"
   sodipodi:ry="1.584"
   style="fill:none;stroke:#ffbf00;stroke-width:1.15199995"
   d="m 5.9040002,11.52 c 0,0.874819 -0.709181,1.584 -1.584,1.584 -0.8748191,0 -1.584,-0.709181 -1.584,-1.584 0,-0.874819 0.7091809,-1.5839995 1.584,-1.5839995 0.874819,0 1.584,0.7091805 1.584,1.5839995 z" />
		
		
		
		<circle
   id="connector6pin"
   cx="25.92"
   cy="11.52"
   r="1.584"
   sodipodi:cx="25.92"
   sodipodi:cy="11.52"
   sodipodi:rx="1.584"
   sodipodi:ry="1.584"
   style="fill:none;stroke:#ffbf00;stroke-width:1.15199995"
   d="m 27.504,11.52 c 0,0.874819 -0.709181,1.584 -1.584,1.584 -0.874819,0 -1.584,-0.709181 -1.584,-1.584 0,-0.874819 0.709181,-1.5839995 1.584,-1.5839995 0.874819,0 1.584,0.7091805 1.584,1.5839995 z" />
		<circle
   id="connector7pin"
   cx="25.92"
   cy="4.3200002"
   r="1.584"
   sodipodi:cx="25.92"
   sodipodi:cy="4.3200002"
   sodipodi:rx="1.584"
   sodipodi:ry="1.584"
   style="fill:none;stroke:#ffbf00;stroke-width:1.15199995"
   d="m 27.504,4.3200002 c 0,0.874819 -0.709181,1.584 -1.584,1.584 -0.874819,0 -1.584,-0.709181 -1.584,-1.584 0,-0.8748191 0.709181,-1.584 1.584,-1.584 0.874819,0 1.584,0.7091809 1.584,1.584 z" />
	</g>
</g>
<g
   id="keepout"
   transform="translate(-0.34375,-0.49334988)">
</g>
<g
   id="soldermask"
   transform="translate(-0.34375,-0.49334988)">
</g>
<g
   id="outline"
   transform="translate(-0.34375,-0.49334988)">
</g>
</svg>