<?xml version='1.0' encoding='UTF-8' standalone='no'?>
<!-- Generator: Adobe Illustrator 16.0.0, SVG Export Plug-In . SVG Version: 6.00 Build 0)  -->
<svg xmlns="http://www.w3.org/2000/svg" enable-background="new 0 0 30.24 30.24" viewBox="0 0 29.5625 14.766243" y="0px" x="0px" xmlns:xml="http://www.w3.org/XML/1998/namespace" version="1.1" id="Layer_1" height="14.766243" width="29.5625" xml:space="preserve" gorn="0" >
    <desc >
        <referenceFile >RioRand_LM2596_pcb.svg</referenceFile>
    </desc>
    <metadata id="metadata31" >
        <rdf:RDF xmlns:rdf="http://www.w3.org/1999/02/22-rdf-syntax-ns#">
            <cc:Work xmlns:rdf="http://www.w3.org/1999/02/22-rdf-syntax-ns#" rdf:about="" xmlns:cc="http://creativecommons.org/ns#">
                <dc:format xmlns:dc="http://purl.org/dc/elements/1.1/">image/svg+xml</dc:format>
                <dc:type xmlns:dc="http://purl.org/dc/elements/1.1/" rdf:resource="http://purl.org/dc/dcmitype/StillImage" xmlns:rdf="http://www.w3.org/1999/02/22-rdf-syntax-ns#"/>
            </cc:Work>
        </rdf:RDF>
    </metadata>
    <defs id="defs29" />
    <g transform="matrix(1,0,0,0.49949238,-0.34375,-0.17170051)" >
        <g >
            <g id="silkscreen" gorn="0.3.0.0" >
                <line stroke="#ffffff" y1="0.72000003" stroke-width="0.75" y2="29.52" x2="0.72000003" id="line4" fill="none" x1="0.72000003" gorn="0.3.0.0.0" />
                <line stroke="#ffffff" y1="29.52" stroke-width="0.75" y2="29.52" x2="29.521" id="line6" fill="none" x1="0.72000003" gorn="0.3.0.0.1" />
                <line stroke="#ffffff" y1="29.52" stroke-width="0.75" y2="0.72000003" x2="29.521" id="line8" fill="none" x1="29.521" gorn="0.3.0.0.2" />
                <line stroke="#ffffff" y1="0.72000003" stroke-width="0.75" y2="0.72000003" x2="11.52" id="line10" fill="none" x1="0.72000003" gorn="0.3.0.0.3" />
                <line stroke="#ffffff" y1="0.72000003" stroke-width="0.75" y2="0.72000003" x2="29.521" id="line12" fill="none" x1="18.719999" gorn="0.3.0.0.4" />
            </g>
        </g>
    </g>
    <g transform="translate(-0.34375,-0.49334988)" >
        <g >
            <g id="copper0" gorn="0.4.0.0" >
                <g id="copper1" gorn="0.4.0.0.0" >
                    <circle stroke="#ffbf00" cx="4.3200002" r="1.584" stroke-width="1.15199995" cy="4.3200002" id="connector0pin" fill="none" d="m 5.9040002,4.3200002 c 0,0.874819 -0.709181,1.584 -1.584,1.584 -0.8748191,0 -1.584,-0.709181 -1.584,-1.584 0,-0.8748191 0.7091809,-1.584 1.584,-1.584 0.874819,0 1.584,0.7091809 1.584,1.584 z" gorn="0.4.0.0.0.0" />
                    <circle stroke="#ffbf00" cx="4.3200002" r="1.584" stroke-width="1.15199995" cy="11.52" id="connector1pin" fill="none" d="m 5.9040002,11.52 c 0,0.874819 -0.709181,1.584 -1.584,1.584 -0.8748191,0 -1.584,-0.709181 -1.584,-1.584 0,-0.874819 0.7091809,-1.5839995 1.584,-1.5839995 0.874819,0 1.584,0.7091805 1.584,1.5839995 z" gorn="0.4.0.0.0.1" />
                    <circle stroke="#ffbf00" cx="25.92" r="1.584" stroke-width="1.15199995" cy="11.52" id="connector3pin" fill="none" d="m 27.504,11.52 c 0,0.874819 -0.709181,1.584 -1.584,1.584 -0.874819,0 -1.584,-0.709181 -1.584,-1.584 0,-0.874819 0.709181,-1.5839995 1.584,-1.5839995 0.874819,0 1.584,0.7091805 1.584,1.5839995 z" gorn="0.4.0.0.0.2" />
                    <circle stroke="#ffbf00" cx="25.92" r="1.584" stroke-width="1.15199995" cy="4.3200002" id="connector2pin" fill="none" d="m 27.504,4.3200002 c 0,0.874819 -0.709181,1.584 -1.584,1.584 -0.874819,0 -1.584,-0.709181 -1.584,-1.584 0,-0.8748191 0.709181,-1.584 1.584,-1.584 0.874819,0 1.584,0.7091809 1.584,1.584 z" gorn="0.4.0.0.0.3" />
                </g>
            </g>
        </g>
    </g>
    <g transform="translate(-0.34375,-0.49334988)" >
        <g >
            <g id="keepout" gorn="0.5.0.0" />
        </g>
    </g>
    <g transform="translate(-0.34375,-0.49334988)" >
        <g >
            <g id="soldermask" gorn="0.6.0.0" />
        </g>
    </g>
    <g transform="translate(-0.34375,-0.49334988)" >
        <g >
            <g id="outline" gorn="0.7.0.0" />
        </g>
    </g>
</svg>
