<?xml version="1.0" encoding="utf-8"?>
<!-- Generator: Adobe Illustrator 16.0.0, SVG Export Plug-In . SVG Version: 6.00 Build 0)  -->
<!DOCTYPE svg PUBLIC "-//W3C//DTD SVG 1.1//EN" "http://www.w3.org/Graphics/SVG/1.1/DTD/svg11.dtd">
<svg version="1.1" id="Ebene_1" xmlns="http://www.w3.org/2000/svg" xmlns:xlink="http://www.w3.org/1999/xlink" x="0px" y="0px"
	 width="24.613px" height="266.195px" viewBox="0 0 24.613 266.195" enable-background="new 0 0 24.613 266.195"
	 xml:space="preserve">
<g id="silkscreen">
	<line fill="none" stroke="#000000" stroke-width="0.5" stroke-miterlimit="10" x1="0.27" y1="0.227" x2="0.27" y2="265.995"/>
	<line fill="none" stroke="#000000" stroke-width="0.5" stroke-miterlimit="10" x1="0.27" y1="265.995" x2="24.365" y2="265.995"/>
	<line fill="none" stroke="#000000" stroke-width="0.5" stroke-miterlimit="10" x1="24.365" y1="265.995" x2="24.365" y2="0.227"/>
	<line fill="none" stroke="#000000" stroke-width="0.5" stroke-miterlimit="10" x1="24.365" y1="0.227" x2="0.27" y2="0.227"/>
	<line fill="none" stroke="#000000" stroke-width="0.5" stroke-miterlimit="10" x1="0.27" y1="3.134" x2="3.844" y2="0.227"/>
	
		<rect x="9.255" y="0.227" fill="none" stroke="#000000" stroke-width="0.5" stroke-miterlimit="10" width="15.108" height="265.769"/>
	<line fill="none" stroke="#000000" stroke-width="0.5" stroke-miterlimit="10" x1="24.365" y1="0.227" x2="9.295" y2="14.4"/>
	<line fill="none" stroke="#000000" stroke-width="0.5" stroke-miterlimit="10" x1="24.365" y1="265.884" x2="9.295" y2="251.711"/>
	<line fill="none" stroke="#000000" stroke-width="0.5" stroke-miterlimit="10" x1="24.365" y1="216.384" x2="9.295" y2="202.212"/>
	<line fill="none" stroke="#000000" stroke-width="0.5" stroke-miterlimit="10" x1="24.365" y1="163.008" x2="9.295" y2="148.835"/>
	<line fill="none" stroke="#000000" stroke-width="0.5" stroke-miterlimit="10" x1="24.365" y1="46.29" x2="9.295" y2="60.462"/>
	<line fill="none" stroke="#000000" stroke-width="0.5" stroke-miterlimit="10" x1="24.365" y1="96.11" x2="9.295" y2="110.283"/>
</g>
<g id="copper1">
	<g id="copper0">
		<circle id="connector0pin" fill="none" stroke="#FFBF00" cx="4.294" cy="21.508" r="2.088"/>
		<circle id="connector1pin" fill="none" stroke="#FFBF00" cx="4.294" cy="28.706" r="2.088"/>
		<circle id="connector2pin" fill="none" stroke="#FFBF00" cx="4.294" cy="35.906" r="2.088"/>
		<circle id="connector3pin" fill="none" stroke="#FFBF00" cx="4.294" cy="43.107" r="2.088"/>
		<circle id="connector4pin" fill="none" stroke="#FFBF00" cx="4.294" cy="50.307" r="2.088"/>
		<circle id="connector5pin" fill="none" stroke="#FFBF00" cx="4.294" cy="57.508" r="2.088"/>
		<circle id="connector6pin" fill="none" stroke="#FFBF00" cx="4.294" cy="64.706" r="2.088"/>
		<circle id="connector7pin" fill="none" stroke="#FFBF00" cx="4.294" cy="71.906" r="2.088"/>
		<circle id="connector8pin" fill="none" stroke="#FFBF00" cx="4.294" cy="79.107" r="2.088"/>
		<circle id="connector9pin" fill="none" stroke="#FFBF00" cx="4.294" cy="86.307" r="2.088"/>
		<circle id="connector10pin" fill="none" stroke="#FFBF00" cx="4.294" cy="93.508" r="2.088"/>
		<circle id="connector11pin" fill="none" stroke="#FFBF00" cx="4.294" cy="100.706" r="2.088"/>
		<circle id="connector12pin" fill="none" stroke="#FFBF00" cx="4.294" cy="107.906" r="2.088"/>
		<circle id="connector13pin" fill="none" stroke="#FFBF00" cx="4.294" cy="115.108" r="2.088"/>
		<circle id="connector14pin" fill="none" stroke="#FFBF00" cx="4.294" cy="122.307" r="2.088"/>
		<circle id="connector15pin" fill="none" stroke="#FFBF00" cx="4.294" cy="129.509" r="2.088"/>
		<circle id="connector16pin" fill="none" stroke="#FFBF00" cx="4.294" cy="136.707" r="2.088"/>
		<circle id="connector17pin" fill="none" stroke="#FFBF00" cx="4.294" cy="143.906" r="2.088"/>
		<circle id="connector18pin" fill="none" stroke="#FFBF00" cx="4.294" cy="151.108" r="2.088"/>
		<circle id="connector19pin" fill="none" stroke="#FFBF00" cx="4.294" cy="158.307" r="2.088"/>
		<circle id="connector20pin" fill="none" stroke="#FFBF00" cx="4.294" cy="165.509" r="2.088"/>
		<circle id="connector21pin" fill="none" stroke="#FFBF00" cx="4.294" cy="172.707" r="2.088"/>
		<circle id="connector22pin" fill="none" stroke="#FFBF00" cx="4.294" cy="179.906" r="2.088"/>
		<circle id="connector23pin" fill="none" stroke="#FFBF00" cx="4.294" cy="187.108" r="2.088"/>
		<circle id="connector24pin" fill="none" stroke="#FFBF00" cx="4.294" cy="194.307" r="2.088"/>
		<circle id="connector25pin" fill="none" stroke="#FFBF00" cx="4.294" cy="201.509" r="2.088"/>
		<circle id="connector26pin" fill="none" stroke="#FFBF00" cx="4.294" cy="208.707" r="2.088"/>
		<circle id="connector27pin" fill="none" stroke="#FFBF00" cx="4.294" cy="215.906" r="2.088"/>
		<circle id="connector28pin" fill="none" stroke="#FFBF00" cx="4.294" cy="223.108" r="2.088"/>
		<circle id="connector29pin" fill="none" stroke="#FFBF00" cx="4.294" cy="230.307" r="2.088"/>
		<circle id="connector30pin" fill="none" stroke="#FFBF00" cx="4.294" cy="237.509" r="2.088"/>
		<circle id="connector31pin" fill="none" stroke="#FFBF00" cx="4.294" cy="244.707" r="2.088"/>
	</g>
</g>
</svg>
