<?xml version="1.0" encoding="utf-8"?>
<!-- Generator: Adobe Illustrator 16.0.0, SVG Export Plug-In . SVG Version: 6.00 Build 0)  -->
<!DOCTYPE svg PUBLIC "-//W3C//DTD SVG 1.1//EN" "http://www.w3.org/Graphics/SVG/1.1/DTD/svg11.dtd">
<svg version="1.1" xmlns:xml="http://www.w3.org/XML/1998/namespace"
	 xmlns="http://www.w3.org/2000/svg" xmlns:xlink="http://www.w3.org/1999/xlink" x="0px" y="0px" width="107.719px"
	 height="62.359px" viewBox="0 0 107.719 62.359" enable-background="new 0 0 107.719 62.359" xml:space="preserve">
<g id="silkscreen">
	<text transform="matrix(1 0 0 1 8.667 16.5002)" fill="#FFFFFF" font-family="'DroidSans'" font-size="6">32K</text>
	<text transform="matrix(1 0 0 1 8.667 23.6995)" fill="#FFFFFF" font-family="'DroidSans'" font-size="6">SQW</text>
	<text transform="matrix(1 0 0 1 8.667 30.8997)" fill="#FFFFFF" font-family="'DroidSans'" font-size="6">SCL</text>
	<text transform="matrix(1 0 0 1 8.667 38.0999)" fill="#FFFFFF" font-family="'DroidSans'" font-size="6">SDA</text>
	<text transform="matrix(1 0 0 1 8.667 45.3)" fill="#FFFFFF" font-family="'DroidSans'" font-size="6">VCC</text>
	<text transform="matrix(1 0 0 1 8.667 52.5002)" fill="#FFFFFF" font-family="'DroidSans'" font-size="6">GND</text>
	<text transform="matrix(1 0 0 1 86.8755 22.6252)" fill="#FFFFFF" font-family="'DroidSans'" font-size="6">SCL</text>
	<text transform="matrix(1 0 0 1 86.8755 29.8254)" fill="#FFFFFF" font-family="'DroidSans'" font-size="6">SDA</text>
	<text transform="matrix(1 0 0 1 86.8755 37.0256)" fill="#FFFFFF" font-family="'DroidSans'" font-size="6">VCC</text>
	<text transform="matrix(1 0 0 1 86.8755 44.2249)" fill="#FFFFFF" font-family="'DroidSans'" font-size="6">GND</text>
	
		<rect x="0.813" y="10.751" fill="none" stroke="#FFFFFF" stroke-width="0.45" stroke-miterlimit="10" width="6.938" height="43.605"/>
	<path fill="none" stroke="#FFFFFF" stroke-width="0.45" stroke-miterlimit="10" d="M107.375,45.875h-6.584v-29h6.584
		 M100.792,24.042h6.584"/>
</g>
<g id="copper0">
	<g id="copper1">
		<circle id="connector0pad" fill="none" stroke="#F5BD18" stroke-miterlimit="10" cx="4.281" cy="50.507" r="2.339"/>
		<circle id="connector1pad" fill="none" stroke="#F5BD18" stroke-miterlimit="10" cx="4.281" cy="43.307" r="2.339"/>
		<circle id="connector2pad" fill="none" stroke="#F5BD18" stroke-miterlimit="10" cx="4.281" cy="36.107" r="2.339"/>
		<circle id="connector3pad" fill="none" stroke="#F5BD18" stroke-miterlimit="10" cx="4.281" cy="28.908" r="2.339"/>
		<circle id="connector4pin" fill="none" stroke="#F5BD18" stroke-miterlimit="10" cx="4.281" cy="21.708" r="2.339"/>
		<circle id="connector5pin" fill="none" stroke="#F5BD18" stroke-miterlimit="10" cx="4.281" cy="14.509" r="2.339"/>
		<circle id="connector6pin" fill="none" stroke="#F5BD18" stroke-miterlimit="10" cx="104.351" cy="42.174" r="2.338"/>
		<circle id="connector7pin" fill="none" stroke="#F5BD18" stroke-miterlimit="10" cx="104.351" cy="34.975" r="2.338"/>
		<circle id="connector8pin" fill="none" stroke="#F5BD18" stroke-miterlimit="10" cx="104.351" cy="27.773" r="2.338"/>
		<circle id="connector9pin" fill="none" stroke="#F5BD18" stroke-miterlimit="10" cx="104.351" cy="20.575" r="2.338"/>
	</g>
</g>
</svg>
