<?xml version="1.0" encoding="utf-8"?>
<!-- Generator: Adobe Illustrator 16.0.0, SVG Export Plug-In . SVG Version: 6.00 Build 0)  -->
<!DOCTYPE svg PUBLIC "-//W3C//DTD SVG 1.1//EN" "http://www.w3.org/Graphics/SVG/1.1/DTD/svg11.dtd">
<svg version="1.1" id="Ebene_1" xmlns:svg="http://www.w3.org/2000/svg"
	 xmlns="http://www.w3.org/2000/svg" xmlns:xlink="http://www.w3.org/1999/xlink" x="0px" y="0px" width="188.037px"
	 height="48.986px" viewBox="0 0 188.037 48.986" enable-background="new 0 0 188.037 48.986" xml:space="preserve">
<g id="copper1">
	<g id="copper0">
		<g>
			<circle id="connector20pin" fill="none" stroke="#FFBF00" cx="142.612" cy="30.062" r="2.48"/>
			<circle id="connector19pin" fill="none" stroke="#FFBF00" cx="131.812" cy="30.062" r="2.48"/>
			<circle id="connector18pin" fill="none" stroke="#FFBF00" cx="121.013" cy="30.062" r="2.48"/>
			<circle id="connector17pin" fill="none" stroke="#FFBF00" cx="110.211" cy="30.062" r="2.48"/>
			<circle id="connector16pin" fill="none" stroke="#FFBF00" cx="99.412" cy="30.062" r="2.48"/>
			<circle id="connector15pin" fill="none" stroke="#FFBF00" cx="88.612" cy="30.062" r="2.48"/>
			<circle id="connector14pin" fill="none" stroke="#FFBF00" cx="77.812" cy="30.062" r="2.48"/>
			<circle id="connector13pin" fill="none" stroke="#FFBF00" cx="67.012" cy="30.062" r="2.48"/>
			<circle id="connector12pin" fill="none" stroke="#FFBF00" cx="56.211" cy="30.062" r="2.48"/>
			<circle id="connector11pin" fill="none" stroke="#FFBF00" cx="45.412" cy="30.062" r="2.48"/>
		</g>
		<g>
			<circle id="connector10pin" fill="none" stroke="#FFBF00" cx="148.086" cy="44.462" r="2.48"/>
			<circle id="connector9pin" fill="none" stroke="#FFBF00" cx="137.287" cy="44.462" r="2.48"/>
			<circle id="connector8pin" fill="none" stroke="#FFBF00" cx="126.485" cy="44.462" r="2.48"/>
			<circle id="connector7pin" fill="none" stroke="#FFBF00" cx="115.687" cy="44.462" r="2.48"/>
			<circle id="connector6pin" fill="none" stroke="#FFBF00" cx="104.886" cy="44.462" r="2.48"/>
			<circle id="connector5pin" fill="none" stroke="#FFBF00" cx="94.086" cy="44.462" r="2.48"/>
			<circle id="connector4pin" fill="none" stroke="#FFBF00" cx="83.287" cy="44.462" r="2.48"/>
			<circle id="connector3pin" fill="none" stroke="#FFBF00" cx="72.486" cy="44.462" r="2.48"/>
			<circle id="connector2pin" fill="none" stroke="#FFBF00" cx="61.687" cy="44.462" r="2.48"/>
			<circle id="connector1pin" fill="none" stroke="#FFBF00" cx="50.886" cy="44.462" r="2.48"/>
			<circle id="connector0pin" fill="none" stroke="#FFBF00" stroke-width="0.8504" cx="40.086" cy="44.462" r="2.48"/>
		</g>
		<circle fill="none" stroke="none" stroke-width="0" id="noncon1" cx="18.924" cy="25.752" r="4.252"/>
		<circle fill="none" stroke="none" stroke-width="0" id="noncon2" cx="169.161" cy="25.752" r="4.252"/>
		<circle fill="none" stroke="none" stroke-width="0" id="noncon1_2_" cx="18.924" cy="24.335" r="4.252"/>
		<circle fill="none" stroke="none" stroke-width="0" id="noncon2_2_" cx="169.161" cy="24.335" r="4.252"/>
		<circle fill="none" stroke="none" stroke-width="0" id="noncon1_1_" cx="18.924" cy="22.918" r="4.252"/>
		<circle fill="none" stroke="none" stroke-width="0" id="noncon2_1_" cx="169.161" cy="22.918" r="4.252"/>
	</g>
</g>
<g id="silkscreen">
	<rect x="27.145" y="0.51" fill="none" stroke="#000000" stroke-miterlimit="10" width="133.795" height="18.143"/>
	<polyline fill="none" stroke="#000000" stroke-miterlimit="10" points="164.909,18.653 160.94,18.653 160.94,43.894 
		154.519,43.894 	"/>
	<polyline fill="none" stroke="#000000" stroke-miterlimit="10" points="32.853,43.894 27.145,43.894 27.145,18.653 23.176,18.653 	
		"/>
	<polyline fill="none" stroke="#000000" stroke-miterlimit="10" points="175.769,18.653 187.586,18.653 187.586,30.004 
		176.769,30.004 	"/>
	<polyline fill="none" stroke="#000000" stroke-miterlimit="10" points="11.269,30.004 0.5,30.004 0.5,18.653 12.268,18.653 	"/>
</g>
</svg>
