<?xml version="1.0" encoding="utf-8"?>
<!-- Generator: Adobe Illustrator 16.0.0, SVG Export Plug-In . SVG Version: 6.00 Build 0)  -->
<!DOCTYPE svg PUBLIC "-//W3C//DTD SVG 1.1//EN" "http://www.w3.org/Graphics/SVG/1.1/DTD/svg11.dtd">
<svg version="1.1" id="Layer_1" xmlns="http://www.w3.org/2000/svg" xmlns:xlink="http://www.w3.org/1999/xlink" x="0px" y="0px"
	 width="57.6px" height="50.4px" viewBox="0 0 57.6 50.4" enable-background="new 0 0 57.6 50.4" xml:space="preserve">
<desc>Fritzing footprint generated by brd2svg</desc>
<g id="silkscreen">
	<path fill="none" stroke="#FFFFFF" stroke-width="0.576" d="M0.288,0.288h57.023v49.824H0.288V0.288 M8.208,5.4
		c0,2.426,1.966,4.392,4.392,4.392s4.393-1.966,4.393-4.392S15.026,1.008,12.6,1.008S8.208,2.974,8.208,5.4z M8.208,45
		c0,2.426,1.966,4.393,4.392,4.393s4.393-1.967,4.393-4.393s-1.967-4.392-4.393-4.392S8.208,42.574,8.208,45L8.208,45z"/>
	<g>
		<title>element:JP1</title>
		<g>
			<title>package:1X04</title>
			<line fill="none" stroke="#FFFFFF" stroke-width="0.576" stroke-linecap="round" x1="0" y1="16.2" x2="0" y2="12.6"/>
			<line fill="none" stroke="#FFFFFF" stroke-width="0.576" stroke-linecap="round" x1="0" y1="12.6" x2="1.8" y2="10.8"/>
			<line fill="none" stroke="#FFFFFF" stroke-width="0.576" stroke-linecap="round" x1="5.4" y1="10.8" x2="7.2" y2="12.6"/>
			<line fill="none" stroke="#FFFFFF" stroke-width="0.576" stroke-linecap="round" x1="1.8" y1="25.2" x2="0" y2="23.4"/>
			<line fill="none" stroke="#FFFFFF" stroke-width="0.576" stroke-linecap="round" x1="0" y1="23.4" x2="0" y2="19.8"/>
			<line fill="none" stroke="#FFFFFF" stroke-width="0.576" stroke-linecap="round" x1="0" y1="19.8" x2="1.8" y2="18"/>
			<line fill="none" stroke="#FFFFFF" stroke-width="0.576" stroke-linecap="round" x1="5.4" y1="18" x2="7.2" y2="19.8"/>
			<line fill="none" stroke="#FFFFFF" stroke-width="0.576" stroke-linecap="round" x1="7.2" y1="19.8" x2="7.2" y2="23.4"/>
			<line fill="none" stroke="#FFFFFF" stroke-width="0.576" stroke-linecap="round" x1="7.2" y1="23.4" x2="5.4" y2="25.2"/>
			<line fill="none" stroke="#FFFFFF" stroke-width="0.576" stroke-linecap="round" x1="0" y1="16.2" x2="1.8" y2="18"/>
			<line fill="none" stroke="#FFFFFF" stroke-width="0.576" stroke-linecap="round" x1="5.4" y1="18" x2="7.2" y2="16.2"/>
			<line fill="none" stroke="#FFFFFF" stroke-width="0.576" stroke-linecap="round" x1="7.2" y1="12.6" x2="7.2" y2="16.2"/>
			<line fill="none" stroke="#FFFFFF" stroke-width="0.576" stroke-linecap="round" x1="0" y1="37.8" x2="0" y2="34.2"/>
			<line fill="none" stroke="#FFFFFF" stroke-width="0.576" stroke-linecap="round" x1="0" y1="34.2" x2="1.8" y2="32.4"/>
			<line fill="none" stroke="#FFFFFF" stroke-width="0.576" stroke-linecap="round" x1="5.4" y1="32.4" x2="7.2" y2="34.2"/>
			<line fill="none" stroke="#FFFFFF" stroke-width="0.576" stroke-linecap="round" x1="1.8" y1="32.4" x2="0" y2="30.6"/>
			<line fill="none" stroke="#FFFFFF" stroke-width="0.576" stroke-linecap="round" x1="0" y1="30.6" x2="0" y2="27"/>
			<line fill="none" stroke="#FFFFFF" stroke-width="0.576" stroke-linecap="round" x1="0" y1="27" x2="1.8" y2="25.2"/>
			<line fill="none" stroke="#FFFFFF" stroke-width="0.576" stroke-linecap="round" x1="5.4" y1="25.2" x2="7.2" y2="27"/>
			<line fill="none" stroke="#FFFFFF" stroke-width="0.576" stroke-linecap="round" x1="7.2" y1="27" x2="7.2" y2="30.6"/>
			<line fill="none" stroke="#FFFFFF" stroke-width="0.576" stroke-linecap="round" x1="7.2" y1="30.6" x2="5.4" y2="32.4"/>
			<line fill="none" stroke="#FFFFFF" stroke-width="0.576" stroke-linecap="round" x1="1.8" y1="39.6" x2="5.4" y2="39.6"/>
			<line fill="none" stroke="#FFFFFF" stroke-width="0.576" stroke-linecap="round" x1="0" y1="37.8" x2="1.8" y2="39.6"/>
			<line fill="none" stroke="#FFFFFF" stroke-width="0.576" stroke-linecap="round" x1="5.4" y1="39.6" x2="7.2" y2="37.8"/>
			<line fill="none" stroke="#FFFFFF" stroke-width="0.576" stroke-linecap="round" x1="7.2" y1="34.2" x2="7.2" y2="37.8"/>
			<line fill="none" stroke="#FFFFFF" stroke-width="0.576" stroke-linecap="round" x1="1.8" y1="10.8" x2="5.4" y2="10.8"/>
		</g>
	</g>
	<g>
		<title>element:LOGO5</title>
		<g>
			<title>package:SFE_LOGO_NAME_FLAME_.1</title>
		</g>
	</g>
	<g>
		<title>element:STANDOFF1</title>
		<g>
			<title>package:STAND-OFF</title>
		</g>
	</g>
	<g>
		<title>element:STANDOFF2</title>
		<g>
			<title>package:STAND-OFF</title>
		</g>
	</g>
</g>
<g id="copper1">
	<g id="copper0">
		<circle id="connector4pad" fill="none" stroke="#F7BD13" stroke-width="1.224" cx="3.6" cy="36" r="2.052"/>
		<rect x="1.548" y="33.948" fill="none" stroke="#F7BD13" stroke-width="1.224" width="4.104" height="4.104"/>
		<circle id="connector5pad" fill="none" stroke="#F7BD13" stroke-width="1.224" cx="3.6" cy="28.8" r="2.052"/>
		<circle id="connector6pad" fill="none" stroke="#F7BD13" stroke-width="1.224" cx="3.6" cy="21.6" r="2.052"/>
		<circle id="connector7pad" fill="none" stroke="#F7BD13" stroke-width="1.224" cx="3.6" cy="14.4" r="2.052"/>
	</g>
</g>
</svg>
