<?xml version="1.0" encoding="utf-8"?>
<!-- Generator: Adobe Illustrator 16.0.0, SVG Export Plug-In . SVG Version: 6.00 Build 0)  -->
<!DOCTYPE svg PUBLIC "-//W3C//DTD SVG 1.1//EN" "http://www.w3.org/Graphics/SVG/1.1/DTD/svg11.dtd">
<svg version="1.1" id="Layer_1" xmlns:svg="http://www.w3.org/2000/svg"
	 xmlns="http://www.w3.org/2000/svg" xmlns:xlink="http://www.w3.org/1999/xlink" x="0px" y="0px" width="90.709px"
	 height="90.709px" viewBox="0 0 90.709 90.709" enable-background="new 0 0 90.709 90.709" xml:space="preserve">
<g id="copper1">
	<rect id="connector72pad" stroke-width="0px"  x="0" y="71.433" fill="#F7BD13" width="5.67" height="1.7"/>
	<rect id="connector31pad" stroke-width="0px" x="85.039" y="71.433" fill="#F7BD13" width="5.67" height="1.7"/>
	<rect id="connector39pad" stroke-width="0px" x="85.039" y="17.575" fill="#F7BD13" width="5.67" height="1.7"/>
	<rect id="connector54pad" stroke-width="0px" x="0" y="17.575" fill="#F7BD13" width="5.67" height="1.7"/>
	<rect id="connector69pad" stroke-width="0px" x="0" y="68.598" fill="#F7BD13" width="5.67" height="1.701"/>
	<rect id="connector71pad" stroke-width="0px" x="0" y="65.763" fill="#F7BD13" width="5.67" height="1.701"/>
	<rect id="connector70pad" stroke-width="0px" x="0" y="62.929" fill="#F7BD13" width="5.67" height="1.7"/>
	<rect id="connector56pad" stroke-width="0px" x="0" y="60.094" fill="#F7BD13" width="5.67" height="1.701"/>
	<rect id="connector57pad" stroke-width="0px" x="0" y="57.26" fill="#F7BD13" width="5.67" height="1.701"/>
	<rect id="connector23pad" stroke-width="0px" x="0" y="54.426" fill="#F7BD13" width="5.67" height="1.7"/>
	<rect id="connector20pad" stroke-width="0px" x="0" y="51.591" fill="#F7BD13" width="5.67" height="1.7"/>
	<rect id="connector18pad" stroke-width="0px" x="0" y="48.756" fill="#F7BD13" width="5.67" height="1.701"/>
	<rect id="connector6pad" stroke-width="0px" x="0" y="45.922" fill="#F7BD13" width="5.67" height="1.7"/>
	<rect id="connector19pad" stroke-width="0px" x="0" y="43.087" fill="#F7BD13" width="5.67" height="1.7"/>
	<rect id="connector50pad" stroke-width="0px" x="0" y="40.252" fill="#F7BD13" width="5.67" height="1.701"/>
	<rect id="connector52pad" stroke-width="0px" x="0" y="37.418" fill="#F7BD13" width="5.67" height="1.7"/>
	<rect id="connector51pad" stroke-width="0px" x="0" y="34.583" fill="#F7BD13" width="5.67" height="1.7"/>
	<rect id="connector49pad" stroke-width="0px" x="0" y="31.748" fill="#F7BD13" width="5.67" height="1.701"/>
	<rect id="connector15pad" stroke-width="0px" x="0" y="28.914" fill="#F7BD13" width="5.67" height="1.7"/>
	<rect id="connector61pad" stroke-width="0px" x="0" y="26.079" fill="#F7BD13" width="5.67" height="1.7"/>
	<rect id="connector63pad" stroke-width="0px" x="0" y="23.244" fill="#F7BD13" width="5.67" height="1.701"/>
	<rect id="connector7pad" stroke-width="0px" x="0" y="20.41" fill="#F7BD13" width="5.67" height="1.7"/>
	<rect id="connector79pad" stroke-width="0px" x="85.039" y="68.598" fill="#F7BD13" width="5.67" height="1.701"/>
	<rect id="connector33pad" stroke-width="0px" x="85.039" y="65.763" fill="#F7BD13" width="5.67" height="1.701"/>
	<rect id="connector78pad" stroke-width="0px" x="85.039" y="62.929" fill="#F7BD13" width="5.67" height="1.7"/>
	<rect id="connector32pad" stroke-width="0px" x="85.039" y="60.094" fill="#F7BD13" width="5.67" height="1.701"/>
	<rect id="connector35pad" stroke-width="0px" x="85.039" y="57.26" fill="#F7BD13" width="5.67" height="1.701"/>
	<rect id="connector46pad" stroke-width="0px" x="85.039" y="54.426" fill="#F7BD13" width="5.67" height="1.7"/>
	<rect id="connector1pad" stroke-width="0px" x="85.039" y="51.591" fill="#F7BD13" width="5.67" height="1.7"/>
	<rect id="connector12pad" stroke-width="0px" x="85.039" y="48.756" fill="#F7BD13" width="5.67" height="1.701"/>
	<rect id="connector16pad" stroke-width="0px" x="85.039" y="45.922" fill="#F7BD13" width="5.67" height="1.7"/>
	<rect id="connector62pad" stroke-width="0px" x="85.039" y="43.087" fill="#F7BD13" width="5.67" height="1.7"/>
	<rect id="connector73pad" stroke-width="0px" x="85.039" y="40.252" fill="#F7BD13" width="5.67" height="1.701"/>
	<rect id="connector36pad" stroke-width="0px" x="85.039" y="37.418" fill="#F7BD13" width="5.67" height="1.7"/>
	<rect id="connector38pad" stroke-width="0px" x="85.039" y="34.583" fill="#F7BD13" width="5.67" height="1.7"/>
	<rect id="connector67pad" stroke-width="0px" x="85.039" y="31.748" fill="#F7BD13" width="5.67" height="1.701"/>
	<rect id="connector68pad" stroke-width="0px" x="85.039" y="28.914" fill="#F7BD13" width="5.67" height="1.7"/>
	<rect id="connector34pad" stroke-width="0px" x="85.039" y="26.079" fill="#F7BD13" width="5.67" height="1.7"/>
	<rect id="connector37pad" stroke-width="0px" x="85.039" y="23.244" fill="#F7BD13" width="5.67" height="1.701"/>
	<rect id="connector60pad" stroke-width="0px" x="85.039" y="20.41" fill="#F7BD13" width="5.67" height="1.7"/>
	<rect id="connector5pad" stroke-width="0px" x="17.575" y="85.039" fill="#F7BD13" width="1.7" height="5.67"/>
	<rect id="connector4pad" stroke-width="0px" x="20.409" y="85.039" fill="#F7BD13" width="1.701" height="5.67"/>
	<rect id="connector2pad" stroke-width="0px" x="23.244" y="85.039" fill="#F7BD13" width="1.701" height="5.67"/>
	<rect id="connector3pad" stroke-width="0px" x="26.079" y="85.039" fill="#F7BD13" width="1.7" height="5.67"/>
	<rect id="connector10pad" stroke-width="0px" x="28.913" y="85.039" fill="#F7BD13" width="1.701" height="5.67"/>
	<rect id="connector11pad" stroke-width="0px" x="31.748" y="85.039" fill="#F7BD13" width="1.701" height="5.67"/>
	<rect id="connector13pad" stroke-width="0px" x="34.583" y="85.039" fill="#F7BD13" width="1.7" height="5.67"/>
	<rect id="connector14pad" stroke-width="0px" x="37.418" y="85.039" fill="#F7BD13" width="1.7" height="5.67"/>
	<rect id="connector22pad" stroke-width="0px" x="40.252" y="85.039" fill="#F7BD13" width="1.701" height="5.67"/>
	<rect id="connector25pad" stroke-width="0px" x="43.087" y="85.039" fill="#F7BD13" width="1.7" height="5.67"/>
	<rect id="connector0pad" stroke-width="0px" x="45.922" y="85.039" fill="#F7BD13" width="1.7" height="5.67"/>
	<rect id="connector9pad" stroke-width="0px" x="48.756" y="85.039" fill="#F7BD13" width="1.701" height="5.67"/>
	<rect id="connector17pad" stroke-width="0px" x="51.591" y="85.039" fill="#F7BD13" width="1.7" height="5.67"/>
	<rect id="connector21pad" stroke-width="0px" x="54.426" y="85.039" fill="#F7BD13" width="1.7" height="5.67"/>
	<rect id="connector24pad" stroke-width="0px" x="57.26" y="85.039" fill="#F7BD13" width="1.701" height="5.67"/>
	<rect id="connector27pad" stroke-width="0px" x="60.094" y="85.039" fill="#F7BD13" width="1.7" height="5.67"/>
	<rect id="connector26pad" stroke-width="0px" x="62.929" y="85.039" fill="#F7BD13" width="1.7" height="5.67"/>
	<rect id="connector29pad" stroke-width="0px" x="65.763" y="85.039" fill="#F7BD13" width="1.701" height="5.67"/>
	<rect id="connector30pad" stroke-width="0px" x="68.598" y="85.039" fill="#F7BD13" width="1.7" height="5.67"/>
	<rect id="connector28pad" stroke-width="0px" x="71.433" y="85.039" fill="#F7BD13" width="1.7" height="5.67"/>
	<rect id="connector45pad" stroke-width="0px" x="71.433" y="0" fill="#F7BD13" width="1.7" height="5.67"/>
	<rect id="connector76pad" stroke-width="0px" x="68.598" y="0" fill="#F7BD13" width="1.7" height="5.67"/>
	<rect id="connector8pad" stroke-width="0px" x="65.763" y="0" fill="#F7BD13" width="1.701" height="5.67"/>
	<rect id="connector44pad" stroke-width="0px" x="62.929" y="0" fill="#F7BD13" width="1.7" height="5.67"/>
	<rect id="connector43pad" stroke-width="0px" x="60.094" y="0" fill="#F7BD13" width="1.7" height="5.67"/>
	<rect id="connector65pad" stroke-width="0px" x="57.26" y="0" fill="#F7BD13" width="1.701" height="5.67"/>
	<rect id="connector47pad" stroke-width="0px" x="54.426" y="0" fill="#F7BD13" width="1.7" height="5.67"/>
	<rect id="connector66pad" stroke-width="0px" x="51.591" y="0" fill="#F7BD13" width="1.7" height="5.67"/>
	<rect id="connector64pad" stroke-width="0px" x="48.756" y="0" fill="#F7BD13" width="1.701" height="5.67"/>
	<rect id="connector48pad" stroke-width="0px" x="45.922" y="0" fill="#F7BD13" width="1.7" height="5.67"/>
	<rect id="connector75pad" stroke-width="0px" x="43.087" y="0" fill="#F7BD13" width="1.7" height="5.67"/>
	<rect id="connector53pad" stroke-width="0px" x="40.252" y="0" fill="#F7BD13" width="1.701" height="5.67"/>
	<rect id="connector74pad" stroke-width="0px" x="37.418" y="0" fill="#F7BD13" width="1.7" height="5.67"/>
	<rect id="connector77pad" stroke-width="0px" x="34.583" y="0" fill="#F7BD13" width="1.7" height="5.67"/>
	<rect id="connector59pad" stroke-width="0px" x="31.748" y="0" fill="#F7BD13" width="1.701" height="5.67"/>
	<rect id="connector58pad" stroke-width="0px" x="28.913" y="0" fill="#F7BD13" width="1.701" height="5.67"/>
	<rect id="connector42pad" stroke-width="0px" x="26.079" y="0" fill="#F7BD13" width="1.7" height="5.67"/>
	<rect id="connector41pad" stroke-width="0px" x="23.244" y="0" fill="#F7BD13" width="1.701" height="5.67"/>
	<rect id="connector55pad" stroke-width="0px" x="20.409" y="0" fill="#F7BD13" width="1.701" height="5.67"/>
	<rect id="connector40pad" stroke-width="0px" x="17.575" y="0" fill="#F7BD13" width="1.7" height="5.67"/>
	<g id="copper0">
	</g>
</g>
<g id="silkscreen">
	<line fill="none" stroke="#F0F0F0" stroke-width="0.127" stroke-linecap="round" x1="2.835" y1="2.835" x2="87.874" y2="2.835"/>
	<line fill="none" stroke="#F0F0F0" stroke-width="0.127" stroke-linecap="round" x1="87.874" y1="2.835" x2="87.874" y2="87.874"/>
	<line fill="none" stroke="#F0F0F0" stroke-width="0.127" stroke-linecap="round" x1="87.874" y1="87.874" x2="2.835" y2="87.874"/>
	<line fill="none" stroke="#F0F0F0" stroke-width="0.127" stroke-linecap="round" x1="2.835" y1="87.874" x2="2.835" y2="2.835"/>
	<circle fill="none" stroke="#F0F0F0" stroke-width="0.4064" cx="12.274" cy="17.235" r="3.6"/>
</g>
</svg>
