<?xml version="1.0" encoding="utf-8"?>
<!-- Generator: Adobe Illustrator 16.0.0, SVG Export Plug-In . SVG Version: 6.00 Build 0)  -->
<!DOCTYPE svg PUBLIC "-//W3C//DTD SVG 1.1//EN" "http://www.w3.org/Graphics/SVG/1.1/DTD/svg11.dtd">
<svg version="1.1" id="Layer_1" xmlns:svg="http://www.w3.org/2000/svg"
	 xmlns="http://www.w3.org/2000/svg" xmlns:xlink="http://www.w3.org/1999/xlink" x="0px" y="0px" width="30px" height="56.736px"
	 viewBox="0 0 30 56.736" enable-background="new 0 0 30 56.736" xml:space="preserve">
<g id="copper1">
	<g id="copper0">
		<g id="connector1pad">
		<circle  fill="none" stroke="#F7BD13" stroke-width="0.254" cx="7.776" cy="52.416" r="1.8"/>
		<path stroke="none" stroke-width="0" fill="#F7BD13" d="M7.776,48.096c1.192,0,2.16,0.967,2.16,2.158v4.32c0,1.193-0.968,2.16-2.16,2.16l0,0
			c-1.193,0-2.16-0.967-2.16-2.16v-4.32C5.616,49.063,6.583,48.096,7.776,48.096L7.776,48.096z M6.336,52.416
			c0,0.796,0.645,1.44,1.44,1.44s1.439-0.646,1.439-1.44s-0.645-1.438-1.439-1.438C6.98,50.976,6.336,51.621,6.336,52.416z"/>
		</g>
		<g id="connector0pad">
		<circle fill="none" stroke="#F7BD13" stroke-width="0.254" cx="14.976" cy="52.416" r="1.8"/>
		<path stroke="none" stroke-width="0" fill="#F7BD13" d="M14.976,48.096c1.191,0,2.158,0.967,2.158,2.158v4.32c0,1.193-0.967,2.16-2.158,2.16l0,0
			c-1.193,0-2.16-0.967-2.16-2.16v-4.32C12.816,49.063,13.783,48.096,14.976,48.096L14.976,48.096z M13.536,52.416
			c0,0.796,0.644,1.44,1.439,1.441c0.795,0,1.44-0.645,1.44-1.439c0,0,0-0.001,0-0.002c0-0.795-0.645-1.439-1.438-1.439
			c-0.796-0.001-1.44,0.644-1.441,1.438C13.536,52.415,13.536,52.416,13.536,52.416z"/>
		</g>
		<g id="connector2pad">
		<circle  fill="none" stroke="#F7BD13" stroke-width="0.254" cx="22.175" cy="52.416" r="1.8"/>
		<path stroke="none" stroke-width="0" fill="#F7BD13" d="M22.175,48.096c1.193,0,2.16,0.967,2.16,2.158v4.32c0,1.193-0.967,2.16-2.16,2.16l0,0
			c-1.191,0-2.158-0.967-2.158-2.16v-4.32C20.016,49.063,20.983,48.096,22.175,48.096L22.175,48.096z M20.736,52.416
			c-0.001,0.796,0.645,1.44,1.439,1.441c0.795,0,1.438-0.645,1.439-1.439c0,0,0-0.001,0-0.002c0.002-0.795-0.644-1.439-1.439-1.439
			c-0.795-0.001-1.439,0.644-1.439,1.438C20.736,52.415,20.736,52.416,20.736,52.416z"/>
		</g>
		<circle id="nonconn1" cx="14.976" cy="9.936" r="4.68" stroke-width="0"/>
	</g>
</g>
<g id="silkscreen">
	
		<line fill="none" stroke="#F0F0F0" stroke-width="0.1524" stroke-linecap="round" x1="0.216" y1="45.216" x2="29.736" y2="45.216"/>
	<line fill="none" stroke="#F0F0F0" stroke-width="0.1524" stroke-linecap="round" x1="29.736" y1="0.216" x2="0.216" y2="0.216"/>
	
		<line fill="none" stroke="#F0F0F0" stroke-width="0.1524" stroke-linecap="round" x1="29.736" y1="45.216" x2="29.736" y2="9.936"/>
	<line fill="none" stroke="#F0F0F0" stroke-width="0.1524" stroke-linecap="round" x1="29.736" y1="9.936" x2="27.216" y2="9.936"/>
	<line fill="none" stroke="#F0F0F0" stroke-width="0.1524" stroke-linecap="round" x1="27.216" y1="9.936" x2="27.216" y2="5.616"/>
	<line fill="none" stroke="#F0F0F0" stroke-width="0.1524" stroke-linecap="round" x1="27.216" y1="5.616" x2="29.736" y2="5.616"/>
	<line fill="none" stroke="#F0F0F0" stroke-width="0.1524" stroke-linecap="round" x1="29.736" y1="5.616" x2="29.736" y2="0.216"/>
	<line fill="none" stroke="#F0F0F0" stroke-width="0.1524" stroke-linecap="round" x1="0.216" y1="45.216" x2="0.216" y2="9.936"/>
	<line fill="none" stroke="#F0F0F0" stroke-width="0.1524" stroke-linecap="round" x1="0.216" y1="9.936" x2="2.736" y2="9.936"/>
	<line fill="none" stroke="#F0F0F0" stroke-width="0.1524" stroke-linecap="round" x1="2.736" y1="9.936" x2="2.736" y2="5.616"/>
	<line fill="none" stroke="#F0F0F0" stroke-width="0.1524" stroke-linecap="round" x1="2.736" y1="5.616" x2="0.216" y2="5.616"/>
	<line fill="none" stroke="#F0F0F0" stroke-width="0.1524" stroke-linecap="round" x1="0.216" y1="5.616" x2="0.216" y2="0.216"/>
	
		<line fill="none" stroke="#F0F0F0" stroke-width="0.0508" stroke-linecap="round" x1="2.016" y1="43.416" x2="27.936" y2="43.416"/>
	
		<line fill="none" stroke="#F0F0F0" stroke-width="0.0508" stroke-linecap="round" x1="27.936" y1="20.016" x2="27.936" y2="43.416"/>
	
		<line fill="none" stroke="#F0F0F0" stroke-width="0.0508" stroke-linecap="round" x1="27.936" y1="20.016" x2="2.016" y2="20.016"/>
	<line fill="none" stroke="#F0F0F0" stroke-width="0.0508" stroke-linecap="round" x1="2.016" y1="43.416" x2="2.016" y2="20.016"/>
	<circle fill="none" stroke="#F0F0F0" stroke-width="0.1524" cx="14.976" cy="9.936" r="5.112"/>
	<text transform="matrix(1 0 0 1 2.3755 19.2957)" fill="#F0F0F0" font-family="'OCRA'" font-size="3.6504">A15,2mm</text>
	<rect x="20.376" y="45.216" fill="#F0F0F0" width="3.601" height="2.521"/>
	<rect x="13.176" y="45.216" fill="#F0F0F0" width="3.601" height="2.521"/>
	<rect x="5.976" y="45.216" fill="#F0F0F0" width="3.6" height="2.521"/>
</g>
</svg>
