<?xml version="1.0" encoding="utf-8"?>
<!-- Generator: Adobe Illustrator 16.0.0, SVG Export Plug-In . SVG Version: 6.00 Build 0)  -->
<!DOCTYPE svg PUBLIC "-//W3C//DTD SVG 1.1//EN" "http://www.w3.org/Graphics/SVG/1.1/DTD/svg11.dtd">
<svg version="1.1" id="Layer_1" xmlns="http://www.w3.org/2000/svg" xmlns:xlink="http://www.w3.org/1999/xlink" x="0px" y="0px"
	 width="79.2px" height="87.032px" viewBox="0 0 79.2 87.032" enable-background="new 0 0 79.2 87.032" xml:space="preserve">
<desc>Fritzing footprint generated by brd2svg</desc>
<g id="silkscreen">
	<path fill="none" stroke="#FFFFFF" stroke-width="0.576" d="M78.913,86.438H0.288V0.491h78.625V86.438 M51.553,7.525
		c-0.004,2.346,1.895,4.25,4.24,4.254s4.25-1.895,4.254-4.241c0-0.004,0-0.009,0-0.013c0.004-2.346-1.895-4.25-4.24-4.254
		c-2.347-0.003-4.251,1.896-4.254,4.241C51.553,7.517,51.553,7.521,51.553,7.525z M19.153,7.525
		c-0.004,2.346,1.895,4.25,4.241,4.254s4.25-1.895,4.254-4.241c0-0.004,0-0.009,0-0.013c0.003-2.346-1.895-4.25-4.241-4.254
		c-2.346-0.003-4.25,1.896-4.253,4.241C19.153,7.517,19.153,7.521,19.153,7.525z M67.608,7.525
		c-0.002,2.426,1.963,4.394,4.389,4.396c2.425,0.002,4.393-1.962,4.396-4.388c0-0.003,0-0.005,0-0.008
		c0.002-2.425-1.962-4.394-4.388-4.396c-2.426-0.002-4.395,1.962-4.396,4.388C67.608,7.52,67.608,7.523,67.608,7.525z M2.808,7.525
		c0,2.426,1.966,4.392,4.392,4.392c2.425,0,4.392-1.966,4.392-4.392c0-2.425-1.966-4.392-4.392-4.392
		C4.774,3.133,2.808,5.1,2.808,7.525L2.808,7.525z M67.608,79.525c-0.002,2.426,1.963,4.394,4.389,4.396
		c2.425,0.002,4.393-1.963,4.396-4.389c0-0.002,0-0.006,0-0.008c0.002-2.426-1.962-4.395-4.388-4.396s-4.395,1.963-4.396,4.389
		C67.608,79.52,67.608,79.522,67.608,79.525z M2.808,79.525c0,2.426,1.966,4.393,4.392,4.393c2.425,0,4.392-1.967,4.392-4.393
		S9.625,75.133,7.2,75.133C4.774,75.133,2.808,77.1,2.808,79.525L2.808,79.525z"/>
	<g>
		<title>element:JP1</title>
		<g>
			<title>package:1X03</title>
			<line fill="none" stroke="#FFFFFF" stroke-width="0.576" stroke-linecap="round" x1="63" y1="57.926" x2="64.799" y2="59.726"/>
			
				<line fill="none" stroke="#FFFFFF" stroke-width="0.576" stroke-linecap="round" x1="64.799" y1="59.726" x2="64.799" y2="63.326"/>
			<line fill="none" stroke="#FFFFFF" stroke-width="0.576" stroke-linecap="round" x1="64.799" y1="63.326" x2="63" y2="65.125"/>
			<line fill="none" stroke="#FFFFFF" stroke-width="0.576" stroke-linecap="round" x1="59.4" y1="65.125" x2="57.6" y2="63.326"/>
			<line fill="none" stroke="#FFFFFF" stroke-width="0.576" stroke-linecap="round" x1="57.6" y1="63.326" x2="57.6" y2="59.726"/>
			<line fill="none" stroke="#FFFFFF" stroke-width="0.576" stroke-linecap="round" x1="57.6" y1="59.726" x2="59.4" y2="57.926"/>
			
				<line fill="none" stroke="#FFFFFF" stroke-width="0.576" stroke-linecap="round" x1="64.799" y1="45.326" x2="64.799" y2="48.926"/>
			<line fill="none" stroke="#FFFFFF" stroke-width="0.576" stroke-linecap="round" x1="64.799" y1="48.926" x2="63" y2="50.726"/>
			<line fill="none" stroke="#FFFFFF" stroke-width="0.576" stroke-linecap="round" x1="59.4" y1="50.726" x2="57.6" y2="48.926"/>
			<line fill="none" stroke="#FFFFFF" stroke-width="0.576" stroke-linecap="round" x1="63" y1="50.726" x2="64.799" y2="52.525"/>
			
				<line fill="none" stroke="#FFFFFF" stroke-width="0.576" stroke-linecap="round" x1="64.799" y1="52.525" x2="64.799" y2="56.125"/>
			<line fill="none" stroke="#FFFFFF" stroke-width="0.576" stroke-linecap="round" x1="64.799" y1="56.125" x2="63" y2="57.926"/>
			<line fill="none" stroke="#FFFFFF" stroke-width="0.576" stroke-linecap="round" x1="59.4" y1="57.926" x2="57.6" y2="56.125"/>
			<line fill="none" stroke="#FFFFFF" stroke-width="0.576" stroke-linecap="round" x1="57.6" y1="56.125" x2="57.6" y2="52.525"/>
			<line fill="none" stroke="#FFFFFF" stroke-width="0.576" stroke-linecap="round" x1="57.6" y1="52.525" x2="59.4" y2="50.726"/>
			<line fill="none" stroke="#FFFFFF" stroke-width="0.576" stroke-linecap="round" x1="63" y1="43.525" x2="59.4" y2="43.525"/>
			<line fill="none" stroke="#FFFFFF" stroke-width="0.576" stroke-linecap="round" x1="64.799" y1="45.326" x2="63" y2="43.525"/>
			<line fill="none" stroke="#FFFFFF" stroke-width="0.576" stroke-linecap="round" x1="59.4" y1="43.525" x2="57.6" y2="45.326"/>
			<line fill="none" stroke="#FFFFFF" stroke-width="0.576" stroke-linecap="round" x1="57.6" y1="48.926" x2="57.6" y2="45.326"/>
			<line fill="none" stroke="#FFFFFF" stroke-width="0.576" stroke-linecap="round" x1="63" y1="65.125" x2="59.4" y2="65.125"/>
		</g>
	</g>
	<g>
		<title>element:JP2</title>
		<g>
			<title>package:1X03</title>
			<line fill="none" stroke="#FFFFFF" stroke-width="0.576" stroke-linecap="round" x1="48.6" y1="57.926" x2="50.4" y2="59.726"/>
			<line fill="none" stroke="#FFFFFF" stroke-width="0.576" stroke-linecap="round" x1="50.4" y1="59.726" x2="50.4" y2="63.326"/>
			<line fill="none" stroke="#FFFFFF" stroke-width="0.576" stroke-linecap="round" x1="50.4" y1="63.326" x2="48.6" y2="65.125"/>
			<line fill="none" stroke="#FFFFFF" stroke-width="0.576" stroke-linecap="round" x1="45" y1="65.125" x2="43.2" y2="63.326"/>
			<line fill="none" stroke="#FFFFFF" stroke-width="0.576" stroke-linecap="round" x1="43.2" y1="63.326" x2="43.2" y2="59.726"/>
			<line fill="none" stroke="#FFFFFF" stroke-width="0.576" stroke-linecap="round" x1="43.2" y1="59.726" x2="45" y2="57.926"/>
			<line fill="none" stroke="#FFFFFF" stroke-width="0.576" stroke-linecap="round" x1="50.4" y1="45.326" x2="50.4" y2="48.926"/>
			<line fill="none" stroke="#FFFFFF" stroke-width="0.576" stroke-linecap="round" x1="50.4" y1="48.926" x2="48.6" y2="50.726"/>
			<line fill="none" stroke="#FFFFFF" stroke-width="0.576" stroke-linecap="round" x1="45" y1="50.726" x2="43.2" y2="48.926"/>
			<line fill="none" stroke="#FFFFFF" stroke-width="0.576" stroke-linecap="round" x1="48.6" y1="50.726" x2="50.4" y2="52.525"/>
			<line fill="none" stroke="#FFFFFF" stroke-width="0.576" stroke-linecap="round" x1="50.4" y1="52.525" x2="50.4" y2="56.125"/>
			<line fill="none" stroke="#FFFFFF" stroke-width="0.576" stroke-linecap="round" x1="50.4" y1="56.125" x2="48.6" y2="57.926"/>
			<line fill="none" stroke="#FFFFFF" stroke-width="0.576" stroke-linecap="round" x1="45" y1="57.926" x2="43.2" y2="56.125"/>
			<line fill="none" stroke="#FFFFFF" stroke-width="0.576" stroke-linecap="round" x1="43.2" y1="56.125" x2="43.2" y2="52.525"/>
			<line fill="none" stroke="#FFFFFF" stroke-width="0.576" stroke-linecap="round" x1="43.2" y1="52.525" x2="45" y2="50.726"/>
			<line fill="none" stroke="#FFFFFF" stroke-width="0.576" stroke-linecap="round" x1="48.6" y1="43.525" x2="45" y2="43.525"/>
			<line fill="none" stroke="#FFFFFF" stroke-width="0.576" stroke-linecap="round" x1="50.4" y1="45.326" x2="48.6" y2="43.525"/>
			<line fill="none" stroke="#FFFFFF" stroke-width="0.576" stroke-linecap="round" x1="45" y1="43.525" x2="43.2" y2="45.326"/>
			<line fill="none" stroke="#FFFFFF" stroke-width="0.576" stroke-linecap="round" x1="43.2" y1="48.926" x2="43.2" y2="45.326"/>
			<line fill="none" stroke="#FFFFFF" stroke-width="0.576" stroke-linecap="round" x1="48.6" y1="65.125" x2="45" y2="65.125"/>
		</g>
	</g>
	<g>
		<title>element:JP3</title>
		<g>
			<title>package:1X03</title>
			<line fill="none" stroke="#FFFFFF" stroke-width="0.576" stroke-linecap="round" x1="34.2" y1="57.926" x2="36" y2="59.726"/>
			<line fill="none" stroke="#FFFFFF" stroke-width="0.576" stroke-linecap="round" x1="36" y1="59.726" x2="36" y2="63.326"/>
			<line fill="none" stroke="#FFFFFF" stroke-width="0.576" stroke-linecap="round" x1="36" y1="63.326" x2="34.2" y2="65.125"/>
			<line fill="none" stroke="#FFFFFF" stroke-width="0.576" stroke-linecap="round" x1="30.6" y1="65.125" x2="28.8" y2="63.326"/>
			<line fill="none" stroke="#FFFFFF" stroke-width="0.576" stroke-linecap="round" x1="28.8" y1="63.326" x2="28.8" y2="59.726"/>
			<line fill="none" stroke="#FFFFFF" stroke-width="0.576" stroke-linecap="round" x1="28.8" y1="59.726" x2="30.6" y2="57.926"/>
			<line fill="none" stroke="#FFFFFF" stroke-width="0.576" stroke-linecap="round" x1="36" y1="45.326" x2="36" y2="48.926"/>
			<line fill="none" stroke="#FFFFFF" stroke-width="0.576" stroke-linecap="round" x1="36" y1="48.926" x2="34.2" y2="50.726"/>
			<line fill="none" stroke="#FFFFFF" stroke-width="0.576" stroke-linecap="round" x1="30.6" y1="50.726" x2="28.8" y2="48.926"/>
			<line fill="none" stroke="#FFFFFF" stroke-width="0.576" stroke-linecap="round" x1="34.2" y1="50.726" x2="36" y2="52.525"/>
			<line fill="none" stroke="#FFFFFF" stroke-width="0.576" stroke-linecap="round" x1="36" y1="52.525" x2="36" y2="56.125"/>
			<line fill="none" stroke="#FFFFFF" stroke-width="0.576" stroke-linecap="round" x1="36" y1="56.125" x2="34.2" y2="57.926"/>
			<line fill="none" stroke="#FFFFFF" stroke-width="0.576" stroke-linecap="round" x1="30.6" y1="57.926" x2="28.8" y2="56.125"/>
			<line fill="none" stroke="#FFFFFF" stroke-width="0.576" stroke-linecap="round" x1="28.8" y1="56.125" x2="28.8" y2="52.525"/>
			<line fill="none" stroke="#FFFFFF" stroke-width="0.576" stroke-linecap="round" x1="28.8" y1="52.525" x2="30.6" y2="50.726"/>
			<line fill="none" stroke="#FFFFFF" stroke-width="0.576" stroke-linecap="round" x1="34.2" y1="43.525" x2="30.6" y2="43.525"/>
			<line fill="none" stroke="#FFFFFF" stroke-width="0.576" stroke-linecap="round" x1="36" y1="45.326" x2="34.2" y2="43.525"/>
			<line fill="none" stroke="#FFFFFF" stroke-width="0.576" stroke-linecap="round" x1="30.6" y1="43.525" x2="28.8" y2="45.326"/>
			<line fill="none" stroke="#FFFFFF" stroke-width="0.576" stroke-linecap="round" x1="28.8" y1="48.926" x2="28.8" y2="45.326"/>
			<line fill="none" stroke="#FFFFFF" stroke-width="0.576" stroke-linecap="round" x1="34.2" y1="65.125" x2="30.6" y2="65.125"/>
		</g>
	</g>
	<g>
		<title>element:JP4</title>
		<g>
			<title>package:1X03</title>
			<line fill="none" stroke="#FFFFFF" stroke-width="0.576" stroke-linecap="round" x1="19.8" y1="57.926" x2="21.6" y2="59.726"/>
			<line fill="none" stroke="#FFFFFF" stroke-width="0.576" stroke-linecap="round" x1="21.6" y1="59.726" x2="21.6" y2="63.326"/>
			<line fill="none" stroke="#FFFFFF" stroke-width="0.576" stroke-linecap="round" x1="21.6" y1="63.326" x2="19.8" y2="65.125"/>
			<line fill="none" stroke="#FFFFFF" stroke-width="0.576" stroke-linecap="round" x1="16.2" y1="65.125" x2="14.4" y2="63.326"/>
			<line fill="none" stroke="#FFFFFF" stroke-width="0.576" stroke-linecap="round" x1="14.4" y1="63.326" x2="14.4" y2="59.726"/>
			<line fill="none" stroke="#FFFFFF" stroke-width="0.576" stroke-linecap="round" x1="14.4" y1="59.726" x2="16.2" y2="57.926"/>
			<line fill="none" stroke="#FFFFFF" stroke-width="0.576" stroke-linecap="round" x1="21.6" y1="45.326" x2="21.6" y2="48.926"/>
			<line fill="none" stroke="#FFFFFF" stroke-width="0.576" stroke-linecap="round" x1="21.6" y1="48.926" x2="19.8" y2="50.726"/>
			<line fill="none" stroke="#FFFFFF" stroke-width="0.576" stroke-linecap="round" x1="16.2" y1="50.726" x2="14.4" y2="48.926"/>
			<line fill="none" stroke="#FFFFFF" stroke-width="0.576" stroke-linecap="round" x1="19.8" y1="50.726" x2="21.6" y2="52.525"/>
			<line fill="none" stroke="#FFFFFF" stroke-width="0.576" stroke-linecap="round" x1="21.6" y1="52.525" x2="21.6" y2="56.125"/>
			<line fill="none" stroke="#FFFFFF" stroke-width="0.576" stroke-linecap="round" x1="21.6" y1="56.125" x2="19.8" y2="57.926"/>
			<line fill="none" stroke="#FFFFFF" stroke-width="0.576" stroke-linecap="round" x1="16.2" y1="57.926" x2="14.4" y2="56.125"/>
			<line fill="none" stroke="#FFFFFF" stroke-width="0.576" stroke-linecap="round" x1="14.4" y1="56.125" x2="14.4" y2="52.525"/>
			<line fill="none" stroke="#FFFFFF" stroke-width="0.576" stroke-linecap="round" x1="14.4" y1="52.525" x2="16.2" y2="50.726"/>
			<line fill="none" stroke="#FFFFFF" stroke-width="0.576" stroke-linecap="round" x1="19.8" y1="43.525" x2="16.2" y2="43.525"/>
			<line fill="none" stroke="#FFFFFF" stroke-width="0.576" stroke-linecap="round" x1="21.6" y1="45.326" x2="19.8" y2="43.525"/>
			<line fill="none" stroke="#FFFFFF" stroke-width="0.576" stroke-linecap="round" x1="16.2" y1="43.525" x2="14.4" y2="45.326"/>
			<line fill="none" stroke="#FFFFFF" stroke-width="0.576" stroke-linecap="round" x1="14.4" y1="48.926" x2="14.4" y2="45.326"/>
			<line fill="none" stroke="#FFFFFF" stroke-width="0.576" stroke-linecap="round" x1="19.8" y1="65.125" x2="16.2" y2="65.125"/>
		</g>
	</g>
	<g>
		<title>element:JP5</title>
		<g>
			<title>package:1X05</title>
			<line fill="none" stroke="#FFFFFF" stroke-width="0.576" stroke-linecap="round" x1="34.2" y1="86.725" x2="30.6" y2="86.725"/>
			<line fill="none" stroke="#FFFFFF" stroke-width="0.576" stroke-linecap="round" x1="30.6" y1="86.725" x2="28.8" y2="84.926"/>
			<line fill="none" stroke="#FFFFFF" stroke-width="0.576" stroke-linecap="round" x1="28.8" y1="81.325" x2="30.6" y2="79.525"/>
			<line fill="none" stroke="#FFFFFF" stroke-width="0.576" stroke-linecap="round" x1="28.8" y1="84.926" x2="27" y2="86.725"/>
			<line fill="none" stroke="#FFFFFF" stroke-width="0.576" stroke-linecap="round" x1="27" y1="86.725" x2="23.4" y2="86.725"/>
			<line fill="none" stroke="#FFFFFF" stroke-width="0.576" stroke-linecap="round" x1="23.4" y1="86.725" x2="21.6" y2="84.926"/>
			<line fill="none" stroke="#FFFFFF" stroke-width="0.576" stroke-linecap="round" x1="21.6" y1="81.325" x2="23.4" y2="79.525"/>
			<line fill="none" stroke="#FFFFFF" stroke-width="0.576" stroke-linecap="round" x1="23.4" y1="79.525" x2="27" y2="79.525"/>
			<line fill="none" stroke="#FFFFFF" stroke-width="0.576" stroke-linecap="round" x1="27" y1="79.525" x2="28.8" y2="81.325"/>
			<line fill="none" stroke="#FFFFFF" stroke-width="0.576" stroke-linecap="round" x1="43.2" y1="84.926" x2="41.4" y2="86.725"/>
			<line fill="none" stroke="#FFFFFF" stroke-width="0.576" stroke-linecap="round" x1="41.4" y1="86.725" x2="37.8" y2="86.725"/>
			<line fill="none" stroke="#FFFFFF" stroke-width="0.576" stroke-linecap="round" x1="37.8" y1="86.725" x2="36" y2="84.926"/>
			<line fill="none" stroke="#FFFFFF" stroke-width="0.576" stroke-linecap="round" x1="36" y1="81.325" x2="37.8" y2="79.525"/>
			<line fill="none" stroke="#FFFFFF" stroke-width="0.576" stroke-linecap="round" x1="37.8" y1="79.525" x2="41.4" y2="79.525"/>
			<line fill="none" stroke="#FFFFFF" stroke-width="0.576" stroke-linecap="round" x1="41.4" y1="79.525" x2="43.2" y2="81.325"/>
			<line fill="none" stroke="#FFFFFF" stroke-width="0.576" stroke-linecap="round" x1="34.2" y1="86.725" x2="36" y2="84.926"/>
			<line fill="none" stroke="#FFFFFF" stroke-width="0.576" stroke-linecap="round" x1="36" y1="81.325" x2="34.2" y2="79.525"/>
			<line fill="none" stroke="#FFFFFF" stroke-width="0.576" stroke-linecap="round" x1="30.6" y1="79.525" x2="34.2" y2="79.525"/>
			
				<line fill="none" stroke="#FFFFFF" stroke-width="0.576" stroke-linecap="round" x1="55.799" y1="86.725" x2="52.2" y2="86.725"/>
			<line fill="none" stroke="#FFFFFF" stroke-width="0.576" stroke-linecap="round" x1="52.2" y1="86.725" x2="50.4" y2="84.926"/>
			<line fill="none" stroke="#FFFFFF" stroke-width="0.576" stroke-linecap="round" x1="50.4" y1="81.325" x2="52.2" y2="79.525"/>
			<line fill="none" stroke="#FFFFFF" stroke-width="0.576" stroke-linecap="round" x1="50.4" y1="84.926" x2="48.6" y2="86.725"/>
			<line fill="none" stroke="#FFFFFF" stroke-width="0.576" stroke-linecap="round" x1="48.6" y1="86.725" x2="45" y2="86.725"/>
			<line fill="none" stroke="#FFFFFF" stroke-width="0.576" stroke-linecap="round" x1="45" y1="86.725" x2="43.2" y2="84.926"/>
			<line fill="none" stroke="#FFFFFF" stroke-width="0.576" stroke-linecap="round" x1="43.2" y1="81.325" x2="45" y2="79.525"/>
			<line fill="none" stroke="#FFFFFF" stroke-width="0.576" stroke-linecap="round" x1="45" y1="79.525" x2="48.6" y2="79.525"/>
			<line fill="none" stroke="#FFFFFF" stroke-width="0.576" stroke-linecap="round" x1="48.6" y1="79.525" x2="50.4" y2="81.325"/>
			<line fill="none" stroke="#FFFFFF" stroke-width="0.576" stroke-linecap="round" x1="57.6" y1="84.926" x2="57.6" y2="81.325"/>
			
				<line fill="none" stroke="#FFFFFF" stroke-width="0.576" stroke-linecap="round" x1="55.799" y1="86.725" x2="57.6" y2="84.926"/>
			
				<line fill="none" stroke="#FFFFFF" stroke-width="0.576" stroke-linecap="round" x1="57.6" y1="81.325" x2="55.799" y2="79.525"/>
			
				<line fill="none" stroke="#FFFFFF" stroke-width="0.576" stroke-linecap="round" x1="52.2" y1="79.525" x2="55.799" y2="79.525"/>
			<line fill="none" stroke="#FFFFFF" stroke-width="0.576" stroke-linecap="round" x1="21.6" y1="84.926" x2="21.6" y2="81.325"/>
		</g>
	</g>
	<g>
		<title>element:JP7</title>
		<g>
			<title>package:1X03</title>
			<line fill="none" stroke="#FFFFFF" stroke-width="0.576" stroke-linecap="round" x1="77.4" y1="29.125" x2="79.2" y2="30.925"/>
			<line fill="none" stroke="#FFFFFF" stroke-width="0.576" stroke-linecap="round" x1="79.2" y1="30.925" x2="79.2" y2="34.525"/>
			<line fill="none" stroke="#FFFFFF" stroke-width="0.576" stroke-linecap="round" x1="79.2" y1="34.525" x2="77.4" y2="36.326"/>
			<line fill="none" stroke="#FFFFFF" stroke-width="0.576" stroke-linecap="round" x1="73.799" y1="36.326" x2="72" y2="34.525"/>
			<line fill="none" stroke="#FFFFFF" stroke-width="0.576" stroke-linecap="round" x1="72" y1="34.525" x2="72" y2="30.925"/>
			<line fill="none" stroke="#FFFFFF" stroke-width="0.576" stroke-linecap="round" x1="72" y1="30.925" x2="73.799" y2="29.125"/>
			<line fill="none" stroke="#FFFFFF" stroke-width="0.576" stroke-linecap="round" x1="79.2" y1="16.525" x2="79.2" y2="20.125"/>
			<line fill="none" stroke="#FFFFFF" stroke-width="0.576" stroke-linecap="round" x1="79.2" y1="20.125" x2="77.4" y2="21.925"/>
			<line fill="none" stroke="#FFFFFF" stroke-width="0.576" stroke-linecap="round" x1="73.799" y1="21.925" x2="72" y2="20.125"/>
			<line fill="none" stroke="#FFFFFF" stroke-width="0.576" stroke-linecap="round" x1="77.4" y1="21.925" x2="79.2" y2="23.726"/>
			<line fill="none" stroke="#FFFFFF" stroke-width="0.576" stroke-linecap="round" x1="79.2" y1="23.726" x2="79.2" y2="27.326"/>
			<line fill="none" stroke="#FFFFFF" stroke-width="0.576" stroke-linecap="round" x1="79.2" y1="27.326" x2="77.4" y2="29.125"/>
			<line fill="none" stroke="#FFFFFF" stroke-width="0.576" stroke-linecap="round" x1="73.799" y1="29.125" x2="72" y2="27.326"/>
			<line fill="none" stroke="#FFFFFF" stroke-width="0.576" stroke-linecap="round" x1="72" y1="27.326" x2="72" y2="23.726"/>
			<line fill="none" stroke="#FFFFFF" stroke-width="0.576" stroke-linecap="round" x1="72" y1="23.726" x2="73.799" y2="21.925"/>
			
				<line fill="none" stroke="#FFFFFF" stroke-width="0.576" stroke-linecap="round" x1="77.4" y1="14.726" x2="73.799" y2="14.726"/>
			<line fill="none" stroke="#FFFFFF" stroke-width="0.576" stroke-linecap="round" x1="79.2" y1="16.525" x2="77.4" y2="14.726"/>
			<line fill="none" stroke="#FFFFFF" stroke-width="0.576" stroke-linecap="round" x1="73.799" y1="14.726" x2="72" y2="16.525"/>
			<line fill="none" stroke="#FFFFFF" stroke-width="0.576" stroke-linecap="round" x1="72" y1="20.125" x2="72" y2="16.525"/>
			
				<line fill="none" stroke="#FFFFFF" stroke-width="0.576" stroke-linecap="round" x1="77.4" y1="36.326" x2="73.799" y2="36.326"/>
		</g>
	</g>
</g>
<g id="copper1">
	<g id="copper0">
		<circle id="connector1pad" fill="none" stroke="#F7BD13" stroke-width="1.224" cx="61.2" cy="54.325" r="2.052"/>
		<circle id="connector25pad" fill="none" stroke="#F7BD13" stroke-width="1.224" cx="75.6" cy="18.325" r="2.052"/>
		<circle id="connector2pad" fill="none" stroke="#F7BD13" stroke-width="1.224" cx="61.2" cy="61.526" r="2.052"/>
		<circle id="connector3pad" fill="none" stroke="#F7BD13" stroke-width="1.224" cx="46.799" cy="47.126" r="2.052"/>
		<circle id="connector15pad" fill="none" stroke="#F7BD13" stroke-width="1.224" cx="32.4" cy="83.125" r="2.052"/>
		<circle id="connector4pad" fill="none" stroke="#F7BD13" stroke-width="1.224" cx="46.799" cy="54.325" r="2.052"/>
		<circle id="connector5pad" fill="none" stroke="#F7BD13" stroke-width="1.224" cx="46.799" cy="61.526" r="2.052"/>
		<circle id="connector6pad" fill="none" stroke="#F7BD13" stroke-width="1.224" cx="32.4" cy="47.126" r="2.052"/>
		<circle id="connector27pad" fill="none" stroke="#F7BD13" stroke-width="1.224" cx="75.6" cy="32.725" r="2.052"/>
		<circle id="connector7pad" fill="none" stroke="#F7BD13" stroke-width="1.224" cx="32.4" cy="54.325" r="2.052"/>
		<circle id="connector16pad" fill="none" stroke="#F7BD13" stroke-width="1.224" cx="25.2" cy="83.125" r="2.052"/>
		<circle id="connector8pad" fill="none" stroke="#F7BD13" stroke-width="1.224" cx="32.4" cy="61.526" r="2.052"/>
		<circle id="connector9pad" fill="none" stroke="#F7BD13" stroke-width="1.224" cx="18" cy="47.126" r="2.052"/>
		<circle id="connector10pad" fill="none" stroke="#F7BD13" stroke-width="1.224" cx="18" cy="54.325" r="2.052"/>
		<circle id="connector11pad" fill="none" stroke="#F7BD13" stroke-width="1.224" cx="18" cy="61.526" r="2.052"/>
		<circle id="connector12pad" fill="none" stroke="#F7BD13" stroke-width="1.224" cx="54" cy="83.125" r="2.052"/>
		<circle id="connector26pad" fill="none" stroke="#F7BD13" stroke-width="1.224" cx="75.6" cy="25.526" r="2.052"/>
		<circle id="connector13pad" fill="none" stroke="#F7BD13" stroke-width="1.224" cx="46.799" cy="83.125" r="2.052"/>
		<circle id="connector14pad" fill="none" stroke="#F7BD13" stroke-width="1.224" cx="39.6" cy="83.125" r="2.052"/>
		<circle id="connector0pad" fill="none" stroke="#F7BD13" stroke-width="1.224" cx="61.2" cy="47.126" r="2.052"/>
	</g>
</g>
</svg>
