<?xml version="1.0" encoding="utf-8"?>
<!-- Generator: Adobe Illustrator 16.0.0, SVG Export Plug-In . SVG Version: 6.00 Build 0)  -->
<!DOCTYPE svg PUBLIC "-//W3C//DTD SVG 1.1//EN" "http://www.w3.org/Graphics/SVG/1.1/DTD/svg11.dtd">
<svg version="1.1" id="Layer_1" xmlns="http://www.w3.org/2000/svg" xmlns:xlink="http://www.w3.org/1999/xlink" x="0px" y="0px"
	 width="151.2px" height="170.032px" viewBox="0 0 151.2 170.032" enable-background="new 0 0 151.2 170.032" xml:space="preserve">
<desc>Fritzing footprint generated by brd2svg</desc>
<g id="silkscreen">
	<path fill="none" stroke="#FFFFFF" stroke-width="0.576" d="M0.288,162.851V12.024l3.586-3.591h32.276l7.172-7.182h93.244
		l7.172,7.182h7.174v154.418l-7.174,7.182H7.46L0.288,162.851"/>
	<g>
		<title>element:JP5</title>
		<g>
			<title>package:1X04</title>
			
				<line fill="none" stroke="#FFFFFF" stroke-width="0.576" stroke-linecap="round" x1="120.6" y1="51.411" x2="124.2" y2="51.411"/>
			<line fill="none" stroke="#FFFFFF" stroke-width="0.576" stroke-linecap="round" x1="124.2" y1="51.411" x2="126" y2="53.211"/>
			<line fill="none" stroke="#FFFFFF" stroke-width="0.576" stroke-linecap="round" x1="126" y1="56.811" x2="124.2" y2="58.611"/>
			
				<line fill="none" stroke="#FFFFFF" stroke-width="0.576" stroke-linecap="round" x1="111.6" y1="53.211" x2="113.4" y2="51.411"/>
			<line fill="none" stroke="#FFFFFF" stroke-width="0.576" stroke-linecap="round" x1="113.4" y1="51.411" x2="117" y2="51.411"/>
			
				<line fill="none" stroke="#FFFFFF" stroke-width="0.576" stroke-linecap="round" x1="117" y1="51.411" x2="118.799" y2="53.211"/>
			
				<line fill="none" stroke="#FFFFFF" stroke-width="0.576" stroke-linecap="round" x1="118.799" y1="56.811" x2="117" y2="58.611"/>
			<line fill="none" stroke="#FFFFFF" stroke-width="0.576" stroke-linecap="round" x1="117" y1="58.611" x2="113.4" y2="58.611"/>
			
				<line fill="none" stroke="#FFFFFF" stroke-width="0.576" stroke-linecap="round" x1="113.4" y1="58.611" x2="111.6" y2="56.811"/>
			
				<line fill="none" stroke="#FFFFFF" stroke-width="0.576" stroke-linecap="round" x1="120.6" y1="51.411" x2="118.799" y2="53.211"/>
			
				<line fill="none" stroke="#FFFFFF" stroke-width="0.576" stroke-linecap="round" x1="118.799" y1="56.811" x2="120.6" y2="58.611"/>
			
				<line fill="none" stroke="#FFFFFF" stroke-width="0.576" stroke-linecap="round" x1="124.2" y1="58.611" x2="120.6" y2="58.611"/>
			<line fill="none" stroke="#FFFFFF" stroke-width="0.576" stroke-linecap="round" x1="99" y1="51.411" x2="102.6" y2="51.411"/>
			
				<line fill="none" stroke="#FFFFFF" stroke-width="0.576" stroke-linecap="round" x1="102.6" y1="51.411" x2="104.4" y2="53.211"/>
			
				<line fill="none" stroke="#FFFFFF" stroke-width="0.576" stroke-linecap="round" x1="104.4" y1="56.811" x2="102.6" y2="58.611"/>
			
				<line fill="none" stroke="#FFFFFF" stroke-width="0.576" stroke-linecap="round" x1="104.4" y1="53.211" x2="106.2" y2="51.411"/>
			
				<line fill="none" stroke="#FFFFFF" stroke-width="0.576" stroke-linecap="round" x1="106.2" y1="51.411" x2="109.799" y2="51.411"/>
			
				<line fill="none" stroke="#FFFFFF" stroke-width="0.576" stroke-linecap="round" x1="109.799" y1="51.411" x2="111.6" y2="53.211"/>
			
				<line fill="none" stroke="#FFFFFF" stroke-width="0.576" stroke-linecap="round" x1="111.6" y1="56.811" x2="109.799" y2="58.611"/>
			
				<line fill="none" stroke="#FFFFFF" stroke-width="0.576" stroke-linecap="round" x1="109.799" y1="58.611" x2="106.2" y2="58.611"/>
			
				<line fill="none" stroke="#FFFFFF" stroke-width="0.576" stroke-linecap="round" x1="106.2" y1="58.611" x2="104.4" y2="56.811"/>
			<line fill="none" stroke="#FFFFFF" stroke-width="0.576" stroke-linecap="round" x1="97.2" y1="53.211" x2="97.2" y2="56.811"/>
			<line fill="none" stroke="#FFFFFF" stroke-width="0.576" stroke-linecap="round" x1="99" y1="51.411" x2="97.2" y2="53.211"/>
			<line fill="none" stroke="#FFFFFF" stroke-width="0.576" stroke-linecap="round" x1="97.2" y1="56.811" x2="99" y2="58.611"/>
			<line fill="none" stroke="#FFFFFF" stroke-width="0.576" stroke-linecap="round" x1="102.6" y1="58.611" x2="99" y2="58.611"/>
			<line fill="none" stroke="#FFFFFF" stroke-width="0.576" stroke-linecap="round" x1="126" y1="53.211" x2="126" y2="56.811"/>
		</g>
	</g>
	<g>
		<title>element:U2</title>
		<g>
			<title>package:UNO_R3_SHIELD</title>
		</g>
	</g>
</g>
<g id="copper1">
	<g id="copper0">
		<circle id="connector97pad" fill="none" stroke="#F7BD13" stroke-width="1.224" cx="144" cy="22.611" r="2.052"/>
		<circle id="connector113pad" fill="none" stroke="#F7BD13" stroke-width="1.224" cx="144" cy="73.011" r="2.052"/>
		<circle id="connector105pad" fill="none" stroke="#F7BD13" stroke-width="1.224" cx="7.2" cy="65.811" r="2.052"/>
		<circle id="connector121pad" fill="none" stroke="#F7BD13" stroke-width="1.224" cx="7.2" cy="22.611" r="2.052"/>
		<circle id="connector101pad" fill="none" stroke="#F7BD13" stroke-width="1.224" cx="7.2" cy="37.011" r="2.052"/>
		<circle id="connector109pad" fill="none" stroke="#F7BD13" stroke-width="1.224" cx="7.2" cy="98.211" r="2.052"/>
		<circle id="connector117pad" fill="none" stroke="#F7BD13" stroke-width="1.224" cx="144" cy="101.811" r="2.052"/>
		<circle id="connector99pad" fill="none" stroke="#F7BD13" stroke-width="1.224" cx="7.2" cy="127.012" r="2.052"/>
		<circle id="connector103pad" fill="none" stroke="#F7BD13" stroke-width="1.224" cx="7.2" cy="51.411" r="2.052"/>
		<circle id="connector107pad" fill="none" stroke="#F7BD13" stroke-width="1.224" cx="7.2" cy="83.811" r="2.052"/>
		<circle id="connector111pad" fill="none" stroke="#F7BD13" stroke-width="1.224" cx="7.2" cy="112.611" r="2.052"/>
		<circle id="connector115pad" fill="none" stroke="#F7BD13" stroke-width="1.224" cx="144" cy="109.011" r="2.052"/>
		<circle id="connector119pad" fill="none" stroke="#F7BD13" stroke-width="1.224" cx="7.2" cy="141.411" r="2.053"/>
		<circle id="connector36pad" fill="none" stroke="#F7BD13" stroke-width="1.224" cx="100.799" cy="55.011" r="2.052"/>
		<rect x="98.749" y="52.959" fill="none" stroke="#F7BD13" stroke-width="1.224" width="4.104" height="4.104"/>
		<circle id="connector37pad" fill="none" stroke="#F7BD13" stroke-width="1.224" cx="108" cy="55.011" r="2.052"/>
		<circle id="connector38pad" fill="none" stroke="#F7BD13" stroke-width="1.224" cx="115.2" cy="55.011" r="2.052"/>
		<circle id="connector39pad" fill="none" stroke="#F7BD13" stroke-width="1.224" cx="122.4" cy="55.011" r="2.052"/>
		<circle id="connector98pad" fill="none" stroke="#F7BD13" stroke-width="1.224" cx="144" cy="15.411" r="2.052"/>
		<circle id="connector100pad" fill="none" stroke="#F7BD13" stroke-width="1.224" cx="7.2" cy="29.811" r="2.052"/>
		<circle id="connector102pad" fill="none" stroke="#F7BD13" stroke-width="1.224" cx="7.2" cy="44.211" r="2.052"/>
		<circle id="connector104pad" fill="none" stroke="#F7BD13" stroke-width="1.224" cx="7.2" cy="58.611" r="2.052"/>
		<circle id="connector106pad" fill="none" stroke="#F7BD13" stroke-width="1.224" cx="7.2" cy="76.611" r="2.052"/>
		<circle id="connector108pad" fill="none" stroke="#F7BD13" stroke-width="1.224" cx="7.2" cy="91.011" r="2.052"/>
		<circle id="connector110pad" fill="none" stroke="#F7BD13" stroke-width="1.224" cx="7.2" cy="105.411" r="2.052"/>
		<circle id="connector112pad" fill="none" stroke="#F7BD13" stroke-width="1.224" cx="144" cy="80.211" r="2.052"/>
		<circle id="connector114pad" fill="none" stroke="#F7BD13" stroke-width="1.224" cx="7.2" cy="119.811" r="2.052"/>
		<circle id="connector116pad" fill="none" stroke="#F7BD13" stroke-width="1.224" cx="144" cy="116.211" r="2.052"/>
		<circle id="connector118pad" fill="none" stroke="#F7BD13" stroke-width="1.224" cx="7.2" cy="15.411" r="2.052"/>
		<circle id="connector120pad" fill="none" stroke="#F7BD13" stroke-width="1.224" cx="7.2" cy="134.211" r="2.052"/>
		<circle id="connector122pad" fill="none" stroke="#F7BD13" stroke-width="1.224" cx="144" cy="65.811" r="2.052"/>
		<circle id="connector91pad" fill="none" stroke="#F7BD13" stroke-width="1.224" cx="144" cy="94.611" r="2.052"/>
		<circle id="connector92pad" fill="none" stroke="#F7BD13" stroke-width="1.224" cx="144" cy="87.411" r="2.052"/>
		<circle id="connector93pad" fill="none" stroke="#F7BD13" stroke-width="1.224" cx="144" cy="51.411" r="2.052"/>
		<circle id="connector94pad" fill="none" stroke="#F7BD13" stroke-width="1.224" cx="144" cy="44.211" r="2.052"/>
		<circle id="connector95pad" fill="none" stroke="#F7BD13" stroke-width="1.224" cx="144" cy="37.011" r="2.052"/>
		<circle id="connector96pad" fill="none" stroke="#F7BD13" stroke-width="1.224" cx="144" cy="29.811" r="2.052"/>
	</g>
</g>
</svg>
