<?xml version='1.0' encoding='UTF-8' standalone='no'?>
<!-- Created with Fritzing (http://www.fritzing.org/) -->
<svg xmlns="http://www.w3.org/2000/svg" version="1.2" baseProfile="tiny" x="0in" viewBox="0 0 48.24 50.4" height="0.7in" y="0in" width="0.67in" >
    <desc>
        <referenceFile>SparkFun_MPU9250_Breakout_pcb.svg</referenceFile>
    </desc>
    <desc >Fritzing footprint generated by brd2svg</desc>
    <g gorn="0.1" id="silkscreen" >
        <path d="M0.288,50.112L30.8784,50.112L30.8784,0.288L0.288,0.288L0.288,50.112M35.928,42.48a4.392,4.392,0,1,1,8.784,0,4.392,4.392,0,1,1,-8.784,0zM35.928,7.92a4.392,4.392,0,1,1,8.784,0,4.392,4.392,0,1,1,-8.784,0z" stroke="white" stroke-width="0.576"  fill="none"/>
        <line x1="40.608" y1="26.208" y2="26.208" stroke="white" stroke-width="0.72"  stroke-linecap="round" x2="35.928"/>
        <path d="M36.648,28.008A1.62,1.62,0,1,0,36.648,24.768" stroke="white" stroke-width="0.72"  fill="none"/>
        <line x1="36.648" y1="28.008" y2="28.368" stroke="white" stroke-width="0.72"  stroke-linecap="round" x2="37.368"/>
        <line x1="36.648" y1="28.008" y2="27.288" stroke="white" stroke-width="0.72"  stroke-linecap="round" x2="37.008"/>
        <line x1="40.608" y1="26.208" y2="25.488" stroke="white" stroke-width="0.72"  stroke-linecap="round" x2="39.888"/>
        <line x1="40.608" y1="26.208" y2="26.928" stroke="white" stroke-width="0.72"  stroke-linecap="round" x2="39.888"/>
        <line x1="45.36" y1="22.176" y2="27.216" stroke="white" stroke-width="0.72"  stroke-linecap="round" x2="45.36"/>
        <path d="M47.16,26.136A1.8,1.8,0,1,0,43.56,26.136" stroke="white" stroke-width="0.72"  fill="none"/>
        <line x1="47.16" y1="26.136" y2="25.416" stroke="white" stroke-width="0.72"  stroke-linecap="round" x2="47.52"/>
        <line x1="47.16" y1="26.136" y2="25.776" stroke="white" stroke-width="0.72"  stroke-linecap="round" x2="46.512"/>
        <line x1="45.36" y1="22.176" y2="22.896" stroke="white" stroke-width="0.72"  stroke-linecap="round" x2="44.64"/>
        <line x1="45.36" y1="22.176" y2="22.896" stroke="white" stroke-width="0.72"  stroke-linecap="round" x2="46.08"/>
        <line x1="44.568" y1="22.968" y2="22.968" stroke="white" stroke-width="0.72"  stroke-linecap="round" x2="46.152"/>
        <line x1="46.512" y1="25.776" y2="25.416" stroke="white" stroke-width="0.72"  stroke-linecap="round" x2="47.52"/>
        <line x1="37.368" y1="28.368" y2="27.288" stroke="white" stroke-width="0.72"  stroke-linecap="round" x2="37.008"/>
        <line x1="39.888" y1="26.928" y2="25.488" stroke="white" stroke-width="0.72"  stroke-linecap="round" x2="39.888"/>
        <line x1="41.4144" y1="31.5072" y2="32.2272" stroke="white" stroke-width="0.72"  stroke-linecap="round" x2="41.7744"/>
        <line x1="41.4144" y1="31.5072" y2="31.8672" stroke="white" stroke-width="0.72"  stroke-linecap="round" x2="40.7664"/>
        <line x1="40.7664" y1="31.8672" y2="32.2272" stroke="white" stroke-width="0.72"  stroke-linecap="round" x2="41.7744"/>
        <path d="M35.9424,31.0032A2.83121,2.83121,0,0,0,41.4144,31.6512" stroke="white" stroke-width="0.72"  fill="none"/>
        <line x1="23.904" y1="36.36" y2="36.36" stroke="white" stroke-width="0.72"  stroke-linecap="round" x2="19.224"/>
        <line x1="23.904" y1="36.36" y2="35.64" stroke="white" stroke-width="0.72"  stroke-linecap="round" x2="23.184"/>
        <line x1="23.904" y1="36.36" y2="37.08" stroke="white" stroke-width="0.72"  stroke-linecap="round" x2="23.184"/>
        <line x1="21.456" y1="37.728" y2="42.264" stroke="white" stroke-width="0.72"  stroke-linecap="round" x2="21.456"/>
        <line x1="21.456" y1="37.728" y2="38.52" stroke="white" stroke-width="0.72"  stroke-linecap="round" x2="20.664"/>
        <line x1="21.456" y1="37.728" y2="38.52" stroke="white" stroke-width="0.72"  stroke-linecap="round" x2="22.248"/>
        <line x1="20.664" y1="38.52" y2="38.52" stroke="white" stroke-width="0.72"  stroke-linecap="round" x2="22.248"/>
        <line x1="23.184" y1="37.08" y2="35.64" stroke="white" stroke-width="0.72"  stroke-linecap="round" x2="23.184"/>
        <line x1="25.128" y1="37.656" y2="39.456" stroke="white" stroke-width="0.72"  stroke-linecap="round" x2="26.928"/>
        <line x1="25.128" y1="39.456" y2="37.656" stroke="white" stroke-width="0.72"  stroke-linecap="round" x2="26.928"/>
        <circle cy="30.7152" stroke="white" r="1.6098" cx="38.6064" stroke-width="0.576"  fill="none"/>
        <circle cy="30.708" stroke="white" r="0.072" cx="38.5992" stroke-width="1.152"  fill="none"/>
        <circle cy="38.6352" stroke="white" r="1.6098" cx="26.1504" stroke-width="0.576"  fill="none"/>
        <g >
            <title >element:J1</title>
            <g >
                <title >package:1X04</title>
                <line x1="25.488" y1="0" y2="0" stroke="white" stroke-width="0.576"  stroke-linecap="round" x2="29.088"/>
                <line x1="29.088" y1="0" y2="1.8" stroke="white" stroke-width="0.576"  stroke-linecap="round" x2="30.888"/>
                <line x1="30.888" y1="5.4" y2="7.2" stroke="white" stroke-width="0.576"  stroke-linecap="round" x2="29.088"/>
                <line x1="16.488" y1="1.8" y2="0" stroke="white" stroke-width="0.576"  stroke-linecap="round" x2="18.288"/>
                <line x1="18.288" y1="0" y2="0" stroke="white" stroke-width="0.576"  stroke-linecap="round" x2="21.888"/>
                <line x1="21.888" y1="0" y2="1.8" stroke="white" stroke-width="0.576"  stroke-linecap="round" x2="23.688"/>
                <line x1="23.688" y1="5.4" y2="7.2" stroke="white" stroke-width="0.576"  stroke-linecap="round" x2="21.888"/>
                <line x1="21.888" y1="7.2" y2="7.2" stroke="white" stroke-width="0.576"  stroke-linecap="round" x2="18.288"/>
                <line x1="18.288" y1="7.2" y2="5.4" stroke="white" stroke-width="0.576"  stroke-linecap="round" x2="16.488"/>
                <line x1="25.488" y1="0" y2="1.8" stroke="white" stroke-width="0.576"  stroke-linecap="round" x2="23.688"/>
                <line x1="23.688" y1="5.4" y2="7.2" stroke="white" stroke-width="0.576"  stroke-linecap="round" x2="25.488"/>
                <line x1="29.088" y1="7.2" y2="7.2" stroke="white" stroke-width="0.576"  stroke-linecap="round" x2="25.488"/>
                <line x1="3.888" y1="0" y2="0" stroke="white" stroke-width="0.576"  stroke-linecap="round" x2="7.488"/>
                <line x1="7.488" y1="0" y2="1.8" stroke="white" stroke-width="0.576"  stroke-linecap="round" x2="9.288"/>
                <line x1="9.288" y1="5.4" y2="7.2" stroke="white" stroke-width="0.576"  stroke-linecap="round" x2="7.488"/>
                <line x1="9.288" y1="1.8" y2="0" stroke="white" stroke-width="0.576"  stroke-linecap="round" x2="11.088"/>
                <line x1="11.088" y1="0" y2="0" stroke="white" stroke-width="0.576"  stroke-linecap="round" x2="14.688"/>
                <line x1="14.688" y1="0" y2="1.8" stroke="white" stroke-width="0.576"  stroke-linecap="round" x2="16.488"/>
                <line x1="16.488" y1="5.4" y2="7.2" stroke="white" stroke-width="0.576"  stroke-linecap="round" x2="14.688"/>
                <line x1="14.688" y1="7.2" y2="7.2" stroke="white" stroke-width="0.576"  stroke-linecap="round" x2="11.088"/>
                <line x1="11.088" y1="7.2" y2="5.4" stroke="white" stroke-width="0.576"  stroke-linecap="round" x2="9.288"/>
                <line x1="2.088" y1="1.8" y2="5.4" stroke="white" stroke-width="0.576"  stroke-linecap="round" x2="2.088"/>
                <line x1="3.888" y1="0" y2="1.8" stroke="white" stroke-width="0.576"  stroke-linecap="round" x2="2.088"/>
                <line x1="2.088" y1="5.4" y2="7.2" stroke="white" stroke-width="0.576"  stroke-linecap="round" x2="3.888"/>
                <line x1="7.488" y1="7.2" y2="7.2" stroke="white" stroke-width="0.576"  stroke-linecap="round" x2="3.888"/>
                <line x1="30.888" y1="1.8" y2="5.4" stroke="white" stroke-width="0.576"  stroke-linecap="round" x2="30.888"/>
            </g>
        </g>
        <g >
            <title >element:J2</title>
            <g >
                <title >package:1X03</title>
                <line x1="25.488" y1="21.6" y2="19.8" stroke="white" stroke-width="0.576"  stroke-linecap="round" x2="23.688"/>
                <line x1="23.688" y1="19.8" y2="16.2" stroke="white" stroke-width="0.576"  stroke-linecap="round" x2="23.688"/>
                <line x1="23.688" y1="16.2" y2="14.4" stroke="white" stroke-width="0.576"  stroke-linecap="round" x2="25.488"/>
                <line x1="29.088" y1="14.4" y2="16.2" stroke="white" stroke-width="0.576"  stroke-linecap="round" x2="30.888"/>
                <line x1="30.888" y1="16.2" y2="19.8" stroke="white" stroke-width="0.576"  stroke-linecap="round" x2="30.888"/>
                <line x1="30.888" y1="19.8" y2="21.6" stroke="white" stroke-width="0.576"  stroke-linecap="round" x2="29.088"/>
                <line x1="23.688" y1="34.2" y2="30.6" stroke="white" stroke-width="0.576"  stroke-linecap="round" x2="23.688"/>
                <line x1="23.688" y1="30.6" y2="28.8" stroke="white" stroke-width="0.576"  stroke-linecap="round" x2="25.488"/>
                <line x1="29.088" y1="28.8" y2="30.6" stroke="white" stroke-width="0.576"  stroke-linecap="round" x2="30.888"/>
                <line x1="25.488" y1="28.8" y2="27" stroke="white" stroke-width="0.576"  stroke-linecap="round" x2="23.688"/>
                <line x1="23.688" y1="27" y2="23.4" stroke="white" stroke-width="0.576"  stroke-linecap="round" x2="23.688"/>
                <line x1="23.688" y1="23.4" y2="21.6" stroke="white" stroke-width="0.576"  stroke-linecap="round" x2="25.488"/>
                <line x1="29.088" y1="21.6" y2="23.4" stroke="white" stroke-width="0.576"  stroke-linecap="round" x2="30.888"/>
                <line x1="30.888" y1="23.4" y2="27" stroke="white" stroke-width="0.576"  stroke-linecap="round" x2="30.888"/>
                <line x1="30.888" y1="27" y2="28.8" stroke="white" stroke-width="0.576"  stroke-linecap="round" x2="29.088"/>
                <line x1="25.488" y1="36" y2="36" stroke="white" stroke-width="0.576"  stroke-linecap="round" x2="29.088"/>
                <line x1="23.688" y1="34.2" y2="36" stroke="white" stroke-width="0.576"  stroke-linecap="round" x2="25.488"/>
                <line x1="29.088" y1="36" y2="34.2" stroke="white" stroke-width="0.576"  stroke-linecap="round" x2="30.888"/>
                <line x1="30.888" y1="30.6" y2="34.2" stroke="white" stroke-width="0.576"  stroke-linecap="round" x2="30.888"/>
                <line x1="25.488" y1="14.4" y2="14.4" stroke="white" stroke-width="0.576"  stroke-linecap="round" x2="29.088"/>
            </g>
        </g>
        <g >
            <title >element:J3</title>
            <g >
                <title >package:1X04</title>
                <line x1="25.488" y1="43.2" y2="43.2" stroke="white" stroke-width="0.576"  stroke-linecap="round" x2="29.088"/>
                <line x1="29.088" y1="43.2" y2="45" stroke="white" stroke-width="0.576"  stroke-linecap="round" x2="30.888"/>
                <line x1="30.888" y1="48.6" y2="50.4" stroke="white" stroke-width="0.576"  stroke-linecap="round" x2="29.088"/>
                <line x1="16.488" y1="45" y2="43.2" stroke="white" stroke-width="0.576"  stroke-linecap="round" x2="18.288"/>
                <line x1="18.288" y1="43.2" y2="43.2" stroke="white" stroke-width="0.576"  stroke-linecap="round" x2="21.888"/>
                <line x1="21.888" y1="43.2" y2="45" stroke="white" stroke-width="0.576"  stroke-linecap="round" x2="23.688"/>
                <line x1="23.688" y1="48.6" y2="50.4" stroke="white" stroke-width="0.576"  stroke-linecap="round" x2="21.888"/>
                <line x1="21.888" y1="50.4" y2="50.4" stroke="white" stroke-width="0.576"  stroke-linecap="round" x2="18.288"/>
                <line x1="18.288" y1="50.4" y2="48.6" stroke="white" stroke-width="0.576"  stroke-linecap="round" x2="16.488"/>
                <line x1="25.488" y1="43.2" y2="45" stroke="white" stroke-width="0.576"  stroke-linecap="round" x2="23.688"/>
                <line x1="23.688" y1="48.6" y2="50.4" stroke="white" stroke-width="0.576"  stroke-linecap="round" x2="25.488"/>
                <line x1="29.088" y1="50.4" y2="50.4" stroke="white" stroke-width="0.576"  stroke-linecap="round" x2="25.488"/>
                <line x1="3.888" y1="43.2" y2="43.2" stroke="white" stroke-width="0.576"  stroke-linecap="round" x2="7.488"/>
                <line x1="7.488" y1="43.2" y2="45" stroke="white" stroke-width="0.576"  stroke-linecap="round" x2="9.288"/>
                <line x1="9.288" y1="48.6" y2="50.4" stroke="white" stroke-width="0.576"  stroke-linecap="round" x2="7.488"/>
                <line x1="9.288" y1="45" y2="43.2" stroke="white" stroke-width="0.576"  stroke-linecap="round" x2="11.088"/>
                <line x1="11.088" y1="43.2" y2="43.2" stroke="white" stroke-width="0.576"  stroke-linecap="round" x2="14.688"/>
                <line x1="14.688" y1="43.2" y2="45" stroke="white" stroke-width="0.576"  stroke-linecap="round" x2="16.488"/>
                <line x1="16.488" y1="48.6" y2="50.4" stroke="white" stroke-width="0.576"  stroke-linecap="round" x2="14.688"/>
                <line x1="14.688" y1="50.4" y2="50.4" stroke="white" stroke-width="0.576"  stroke-linecap="round" x2="11.088"/>
                <line x1="11.088" y1="50.4" y2="48.6" stroke="white" stroke-width="0.576"  stroke-linecap="round" x2="9.288"/>
                <line x1="2.088" y1="45" y2="48.6" stroke="white" stroke-width="0.576"  stroke-linecap="round" x2="2.088"/>
                <line x1="3.888" y1="43.2" y2="45" stroke="white" stroke-width="0.576"  stroke-linecap="round" x2="2.088"/>
                <line x1="2.088" y1="48.6" y2="50.4" stroke="white" stroke-width="0.576"  stroke-linecap="round" x2="3.888"/>
                <line x1="7.488" y1="50.4" y2="50.4" stroke="white" stroke-width="0.576"  stroke-linecap="round" x2="3.888"/>
                <line x1="30.888" y1="45" y2="48.6" stroke="white" stroke-width="0.576"  stroke-linecap="round" x2="30.888"/>
            </g>
        </g>
        <g >
            <title >element:STANDOFF1</title>
            <g >
                <title >package:STAND-OFF</title>
            </g>
        </g>
        <g >
            <title >element:STANDOFF2</title>
            <g >
                <title >package:STAND-OFF</title>
            </g>
        </g>
        <g >
            <title >element:U1</title>
            <g >
                <title >package:QFN24_PAD</title>
            </g>
        </g>
    </g>
    <g gorn="0.2" id="copper1" >
        <g gorn="0.2.0" id="copper0" >
            <circle cy="3.6" gorn="0.2.0.0" stroke="#F7BD13" r="2.052" connectorname="SCL/SCLK" id="connector6pad" cx="5.688" stroke-width="1.224"  fill="none"/>
            <rect x="3.636" stroke="#F7BD13" height="4.104" y="1.548" width="4.104" stroke-width="1.224"  fill="none"/>
            <circle cy="3.6" gorn="0.2.0.2" stroke="#F7BD13" r="2.052" connectorname="SDA/SDI" id="connector7pad" cx="12.888" stroke-width="1.224"  fill="none"/>
            <circle cy="3.6" gorn="0.2.0.3" stroke="#F7BD13" r="2.052" connectorname="VDD" id="connector8pad" cx="20.088" stroke-width="1.224"  fill="none"/>
            <circle cy="3.6" gorn="0.2.0.4" stroke="#F7BD13" r="2.052" connectorname="GND" id="connector9pad" cx="27.288" stroke-width="1.224"  fill="none"/>
            <circle cy="32.4" gorn="0.2.0.5" stroke="#F7BD13" r="2.052" connectorname="AUX_CL" id="connector10pad" cx="27.288" stroke-width="1.224"  fill="none"/>
            <circle cy="25.2" gorn="0.2.0.6" stroke="#F7BD13" r="2.052" connectorname="FSYNC" id="connector11pad" cx="27.288" stroke-width="1.224"  fill="none"/>
            <circle cy="18" gorn="0.2.0.7" stroke="#F7BD13" r="2.052" connectorname="AUX_DA" id="connector12pad" cx="27.288" stroke-width="1.224"  fill="none"/>
            <circle cy="46.8" gorn="0.2.0.8" stroke="#F7BD13" r="2.052" connectorname="VDDIO" id="connector13pad" cx="5.688" stroke-width="1.224"  fill="none"/>
            <rect x="3.636" stroke="#F7BD13" height="4.104" y="44.748" width="4.104" stroke-width="1.224"  fill="none"/>
            <circle cy="46.8" gorn="0.2.0.10" stroke="#F7BD13" r="2.052" connectorname="AD0/SDO" id="connector14pad" cx="12.888" stroke-width="1.224"  fill="none"/>
            <circle cy="46.8" gorn="0.2.0.11" stroke="#F7BD13" r="2.052" connectorname="!CS" id="connector15pad" cx="20.088" stroke-width="1.224"  fill="none"/>
            <circle cy="46.8" gorn="0.2.0.12" stroke="#F7BD13" r="2.052" connectorname="INT" id="connector16pad" cx="27.288" stroke-width="1.224"  fill="none"/>
        </g>
    </g>
</svg>
