<?xml version="1.0" encoding="utf-8"?>
<!-- Generator: Adobe Illustrator 16.0.0, SVG Export Plug-In . SVG Version: 6.00 Build 0)  -->
<!DOCTYPE svg PUBLIC "-//W3C//DTD SVG 1.1//EN" "http://www.w3.org/Graphics/SVG/1.1/DTD/svg11.dtd">
<svg version="1.1" id="Layer_1" xmlns:svg="http://www.w3.org/2000/svg"
	 xmlns="http://www.w3.org/2000/svg" xmlns:xlink="http://www.w3.org/1999/xlink" x="0px" y="0px" width="150.803px"
	 height="52.137px" viewBox="0 0 150.803 52.137" enable-background="new 0 0 150.803 52.137" xml:space="preserve">
<g id="copper1">
	<rect id="connector0pad" stroke-width="0" x="27.495" y="42.215" fill="#F7BD13" width="2.5" height="9.921"/>
	<rect id="connector1pad" stroke-width="0" x="35.272" y="42.215" fill="#F7BD13" width="2.5" height="9.921"/>
	<rect id="connector2pad" stroke-width="0" x="43.048" y="42.215" fill="#F7BD13" width="2.5" height="9.921"/>
	<rect id="connector3pad" stroke-width="0" x="50.823" y="42.215" fill="#F7BD13" width="2.5" height="9.921"/>
	<rect id="connector4pad" stroke-width="0" x="58.6" y="42.214" fill="#F7BD13" width="2.5" height="9.921"/>
	<rect id="connector5pad" stroke-width="0" x="66.375" y="42.215" fill="#F7BD13" width="2.5" height="9.921"/>
	<rect id="connector6pad" stroke-width="0" x="74.152" y="42.215" fill="#F7BD13" width="2.5" height="9.921"/>
	<rect id="connector7pad" stroke-width="0" x="81.929" y="42.215" fill="#F7BD13" width="2.5" height="9.921"/>
	<rect id="connector13pad" stroke-width="0" x="31.384" y="42.216" fill="#F7BD13" width="2.5" height="9.921"/>
	<rect id="connector8pad" stroke-width="0" x="89.702" y="42.215" fill="#F7BD13" width="2.5" height="9.921"/>
	<rect id="connector9pad" stroke-width="0" x="97.48" y="42.214" fill="#F7BD13" width="2.5" height="9.921"/>
	<rect id="connector10pad" stroke-width="0" x="105.255" y="42.215" fill="#F7BD13" width="2.5" height="9.921"/>
	<rect id="connector11pad" stroke-width="0" x="113.031" y="42.215" fill="#F7BD13" width="2.5" height="9.921"/>
	<rect id="connector12pad" stroke-width="0" x="120.808" y="42.215" fill="#F7BD13" width="2.5" height="9.921"/>
	<rect id="connector14pad" stroke-width="0" x="39.16" y="42.216" fill="#F7BD13" width="2.5" height="9.921"/>
	<rect id="connector15pad" stroke-width="0" x="46.936" y="42.216" fill="#F7BD13" width="2.5" height="9.921"/>
	<rect id="connector16pad" stroke-width="0" x="54.712" y="42.216" fill="#F7BD13" width="2.5" height="9.921"/>
	<rect id="connector17pad" stroke-width="0" x="62.488" y="42.216" fill="#F7BD13" width="2.5" height="9.921"/>
	<rect id="connector18pad" stroke-width="0" x="70.263" y="42.216" fill="#F7BD13" width="2.5" height="9.921"/>
	<rect id="connector19pad" stroke-width="0" x="78.04" y="42.216" fill="#F7BD13" width="2.5" height="9.921"/>
	<rect id="connector20pad" stroke-width="0" x="85.816" y="42.216" fill="#F7BD13" width="2.5" height="9.921"/>
	<rect id="connector21pad" stroke-width="0" x="93.591" y="42.216" fill="#F7BD13" width="2.5" height="9.921"/>
	<rect id="connector22pad" stroke-width="0" x="101.368" y="42.216" fill="#F7BD13" width="2.5" height="9.921"/>
	<rect id="connector23pad" stroke-width="0" x="109.144" y="42.216" fill="#F7BD13" width="2.5" height="9.921"/>
	<rect id="connector24pad" stroke-width="0" x="116.919" y="42.216" fill="#F7BD13" width="2.5" height="9.921"/>
	<g id="copper0">
	</g>
</g>
<g id="silkscreen">
	<path fill="none" stroke="#F0F0F0" stroke-width="0.1524" d="M21.041,10.384c0-0.795,0.646-1.439,1.44-1.439l0,0"/>
	<path fill="none" stroke="#F0F0F0" stroke-width="0.1524" d="M127.961,8.944c0.796,0,1.44,0.645,1.44,1.439l0,0"/>
	
		<line fill="none" stroke="#F0F0F0" stroke-width="0.1524" stroke-linecap="round" x1="21.041" y1="24.784" x2="21.041" y2="10.384"/>
	<path fill="none" stroke="#F0F0F0" stroke-width="0.1524" d="M19.241,26.584c0.994,0,1.8-0.806,1.8-1.8"/>
	
		<line fill="none" stroke="#F0F0F0" stroke-width="0.1524" stroke-linecap="round" x1="129.402" y1="24.784" x2="129.402" y2="10.384"/>
	<path fill="none" stroke="#F0F0F0" stroke-width="0.1524" d="M129.402,24.784c0,0.994,0.806,1.8,1.8,1.8"/>
	
		<line fill="none" stroke="#F0F0F0" stroke-width="0.1524" stroke-linecap="round" x1="22.482" y1="8.944" x2="127.961" y2="8.944"/>
	<line fill="none" stroke="#F0F0F0" stroke-width="0.1524" stroke-linecap="round" x1="22.554" y1="28.6" x2="22.554" y2="27.16"/>
	<line fill="none" stroke="#F0F0F0" stroke-width="0.1524" stroke-linecap="round" x1="22.554" y1="28.6" x2="22.913" y2="28.6"/>
	<path fill="none" stroke="#F0F0F0" stroke-width="0.1524" d="M22.913,35.44c0,0.994,0.807,1.8,1.801,1.8"/>
	<line fill="none" stroke="#F0F0F0" stroke-width="0.1524" stroke-linecap="round" x1="22.913" y1="35.44" x2="22.913" y2="28.6"/>
	
		<line fill="none" stroke="#F0F0F0" stroke-width="0.1524" stroke-linecap="round" x1="24.658" y1="37.24" x2="126.145" y2="37.24"/>
	
		<line fill="none" stroke="#F0F0F0" stroke-width="0.1524" stroke-linecap="round" x1="128.249" y1="28.6" x2="128.249" y2="27.16"/>
	<line fill="none" stroke="#F0F0F0" stroke-width="0.1524" stroke-linecap="round" x1="127.89" y1="35.44" x2="127.89" y2="28.6"/>
	<line fill="none" stroke="#F0F0F0" stroke-width="0.1524" stroke-linecap="round" x1="127.89" y1="28.6" x2="128.249" y2="28.6"/>
	<path fill="none" stroke="#F0F0F0" stroke-width="0.1524" d="M126.09,37.24c0.994,0,1.8-0.806,1.8-1.8"/>
	<text transform="matrix(1 0 0 1 27.5159 36.2156)" fill="#F0F0F0" font-family="'OCRA'" font-size="4.68">1</text>
	<text transform="matrix(1 0 0 1 26.5862 17.0085)" fill="#F0F0F0" font-family="'OCRA'" font-size="4.68">F25D</text>
	<text transform="matrix(1 0 0 1 119.5022 35.9324)" fill="#F0F0F0" font-family="'OCRA'" font-size="4.68">13</text>
	<rect x="27.045" y="41.549" fill="#F0F0F0" width="3.401" height="7.087"/>
	<rect x="34.821" y="41.549" fill="#F0F0F0" width="3.402" height="7.087"/>
	<rect x="42.597" y="41.549" fill="#F0F0F0" width="3.401" height="7.087"/>
	<rect x="50.373" y="41.549" fill="#F0F0F0" width="3.401" height="7.087"/>
	<rect x="58.149" y="41.549" fill="#F0F0F0" width="3.401" height="7.087"/>
	<rect x="65.925" y="41.549" fill="#F0F0F0" width="3.401" height="7.087"/>
	<rect x="73.7" y="41.549" fill="#F0F0F0" width="3.402" height="7.087"/>
	<rect x="81.477" y="41.549" fill="#F0F0F0" width="3.401" height="7.087"/>
	<rect x="0" y="26.355" fill="#F0F0F0" width="150.803" height="1.7"/>
	<rect x="26.078" y="37.127" fill="#F0F0F0" width="98.646" height="4.535"/>
	<rect x="89.253" y="41.549" fill="#F0F0F0" width="3.401" height="7.087"/>
	<rect x="97.029" y="41.549" fill="#F0F0F0" width="3.402" height="7.087"/>
	<rect x="104.805" y="41.549" fill="#F0F0F0" width="3.401" height="7.087"/>
	<rect x="112.581" y="41.549" fill="#F0F0F0" width="3.401" height="7.087"/>
	<rect x="120.357" y="41.549" fill="#F0F0F0" width="3.401" height="7.087"/>
</g>
</svg>
