<?xml version="1.0" encoding="utf-8"?>
<!-- Generator: Adobe Illustrator 16.0.0, SVG Export Plug-In . SVG Version: 6.00 Build 0)  -->
<!DOCTYPE svg PUBLIC "-//W3C//DTD SVG 1.1//EN" "http://www.w3.org/Graphics/SVG/1.1/DTD/svg11.dtd">
<svg version="1.1" id="Layer_1" xmlns:svg="http://www.w3.org/2000/svg"
	 xmlns="http://www.w3.org/2000/svg" xmlns:xlink="http://www.w3.org/1999/xlink" x="0px" y="0px" width="150.236px"
	 height="52.137px" viewBox="0 0 150.236 52.137" enable-background="new 0 0 150.236 52.137" xml:space="preserve">
<g id="copper1">
	<rect id="connector0pad" stroke-width="0" x="120.524" y="42.215" fill="#F7BD13" width="2.5" height="9.921"/>
	<rect id="connector1pad" stroke-width="0" x="112.748" y="42.215" fill="#F7BD13" width="2.5" height="9.921"/>
	<rect id="connector2pad" stroke-width="0" x="104.971" y="42.215" fill="#F7BD13" width="2.5" height="9.921"/>
	<rect id="connector3pad" stroke-width="0" x="97.196" y="42.215" fill="#F7BD13" width="2.5" height="9.921"/>
	<rect id="connector4pad" stroke-width="0" x="89.419" y="42.214" fill="#F7BD13" width="2.5" height="9.921"/>
	<rect id="connector5pad" stroke-width="0" x="81.644" y="42.215" fill="#F7BD13" width="2.5" height="9.921"/>
	<rect id="connector6pad" stroke-width="0" x="73.868" y="42.215" fill="#F7BD13" width="2.5" height="9.921"/>
	<rect id="connector7pad" stroke-width="0" x="66.092" y="42.215" fill="#F7BD13" width="2.5" height="9.921"/>
	<rect id="connector8pad" stroke-width="0" x="58.317" y="42.215" fill="#F7BD13" width="2.5" height="9.921"/>
	<rect id="connector9pad" stroke-width="0" x="50.539" y="42.214" fill="#F7BD13" width="2.5" height="9.921"/>
	<rect id="connector10pad" stroke-width="0" x="42.764" y="42.215" fill="#F7BD13" width="2.5" height="9.921"/>
	<rect id="connector11pad" stroke-width="0" x="34.988" y="42.215" fill="#F7BD13" width="2.5" height="9.921"/>
	<rect id="connector12pad" stroke-width="0" x="27.212" y="42.215" fill="#F7BD13" width="2.5" height="9.921"/>
	<rect id="connector13pad" stroke-width="0" x="116.635" y="42.216" fill="#F7BD13" width="2.5" height="9.921"/>
	<rect id="connector14pad" stroke-width="0" x="108.86" y="42.216" fill="#F7BD13" width="2.5" height="9.921"/>
	<rect id="connector15pad" stroke-width="0" x="101.084" y="42.216" fill="#F7BD13" width="2.5" height="9.921"/>
	<rect id="connector16pad" stroke-width="0" x="93.307" y="42.216" fill="#F7BD13" width="2.5" height="9.921"/>
	<rect id="connector17pad" stroke-width="0" x="85.532" y="42.216" fill="#F7BD13" width="2.5" height="9.921"/>
	<rect id="connector18pad" stroke-width="0" x="77.757" y="42.216" fill="#F7BD13" width="2.5" height="9.921"/>
	<rect id="connector19pad" stroke-width="0" x="69.98" y="42.216" fill="#F7BD13" width="2.5" height="9.921"/>
	<rect id="connector20pad" stroke-width="0" x="62.204" y="42.216" fill="#F7BD13" width="2.5" height="9.921"/>
	<rect id="connector21pad" stroke-width="0" x="54.428" y="42.216" fill="#F7BD13" width="2.5" height="9.921"/>
	<rect id="connector22pad" stroke-width="0" x="46.652" y="42.216" fill="#F7BD13" width="2.5" height="9.921"/>
	<rect id="connector23pad" stroke-width="0" x="38.876" y="42.216" fill="#F7BD13" width="2.5" height="9.921"/>
	<rect id="connector24pad" stroke-width="0" x="31.1" y="42.216" fill="#F7BD13" width="2.5" height="9.921"/>
	<g id="copper0">
	</g>
</g>
<g id="silkscreen">
	<path fill="none" stroke="#F0F0F0" stroke-width="0.1524" d="M20.398,9.48c-0.796,0-1.44,0.645-1.44,1.44l0,0"/>
	<path fill="none" stroke="#F0F0F0" stroke-width="0.1524" d="M131.278,10.921c0-0.796-0.645-1.44-1.44-1.44"/>
	
		<line fill="none" stroke="#F0F0F0" stroke-width="0.1524" stroke-linecap="round" x1="131.278" y1="24.24" x2="131.278" y2="10.921"/>
	<path fill="none" stroke="#F0F0F0" stroke-width="0.1524" d="M131.278,24.24c0,0.994,0.806,1.8,1.8,1.8"/>
	
		<line fill="none" stroke="#F0F0F0" stroke-width="0.1524" stroke-linecap="round" x1="18.958" y1="24.24" x2="18.958" y2="10.921"/>
	<path fill="none" stroke="#F0F0F0" stroke-width="0.1524" d="M17.158,26.04c0.994,0,1.8-0.806,1.8-1.8l0,0"/>
	<line fill="none" stroke="#F0F0F0" stroke-width="0.1524" stroke-linecap="round" x1="20.398" y1="9.48" x2="129.838" y2="9.48"/>
	
		<line fill="none" stroke="#F0F0F0" stroke-width="0.1524" stroke-linecap="round" x1="89.518" y1="19.639" x2="83.038" y2="19.639"/>
	
		<line fill="none" stroke="#F0F0F0" stroke-width="0.1524" stroke-linecap="round" x1="83.038" y1="19.639" x2="83.038" y2="13.16"/>
	
		<line fill="none" stroke="#F0F0F0" stroke-width="0.1524" stroke-linecap="round" x1="89.518" y1="13.16" x2="89.518" y2="19.639"/>
	
		<line fill="none" stroke="#F0F0F0" stroke-width="0.1524" stroke-linecap="round" x1="78.358" y1="19.639" x2="71.878" y2="19.639"/>
	
		<line fill="none" stroke="#F0F0F0" stroke-width="0.1524" stroke-linecap="round" x1="71.878" y1="19.639" x2="71.878" y2="13.16"/>
	
		<line fill="none" stroke="#F0F0F0" stroke-width="0.1524" stroke-linecap="round" x1="78.358" y1="13.16" x2="78.358" y2="19.639"/>
	
		<line fill="none" stroke="#F0F0F0" stroke-width="0.1524" stroke-linecap="round" x1="67.198" y1="19.639" x2="60.718" y2="19.639"/>
	
		<line fill="none" stroke="#F0F0F0" stroke-width="0.1524" stroke-linecap="round" x1="60.718" y1="19.639" x2="60.718" y2="13.16"/>
	
		<line fill="none" stroke="#F0F0F0" stroke-width="0.1524" stroke-linecap="round" x1="67.198" y1="13.16" x2="67.198" y2="19.639"/>
	<line fill="none" stroke="#F0F0F0" stroke-width="0.1524" stroke-linecap="round" x1="22.27" y1="28.6" x2="22.27" y2="27.16"/>
	<line fill="none" stroke="#F0F0F0" stroke-width="0.1524" stroke-linecap="round" x1="22.27" y1="28.6" x2="22.63" y2="28.6"/>
	<path fill="none" stroke="#F0F0F0" stroke-width="0.1524" d="M22.63,35.44c0,0.994,0.807,1.8,1.801,1.8"/>
	<line fill="none" stroke="#F0F0F0" stroke-width="0.1524" stroke-linecap="round" x1="22.63" y1="35.44" x2="22.63" y2="28.6"/>
	
		<line fill="none" stroke="#F0F0F0" stroke-width="0.1524" stroke-linecap="round" x1="24.375" y1="37.24" x2="125.805" y2="37.24"/>
	
		<line fill="none" stroke="#F0F0F0" stroke-width="0.1524" stroke-linecap="round" x1="125.805" y1="37.24" x2="125.861" y2="37.24"/>
	
		<line fill="none" stroke="#F0F0F0" stroke-width="0.1524" stroke-linecap="round" x1="127.966" y1="28.6" x2="127.966" y2="27.16"/>
	
		<line fill="none" stroke="#F0F0F0" stroke-width="0.1524" stroke-linecap="round" x1="127.606" y1="35.44" x2="127.606" y2="28.6"/>
	<line fill="none" stroke="#F0F0F0" stroke-width="0.1524" stroke-linecap="round" x1="127.606" y1="28.6" x2="127.966" y2="28.6"/>
	<path fill="none" stroke="#F0F0F0" stroke-width="0.1524" d="M125.805,37.24c0.994,0,1.801-0.806,1.801-1.8l0,0"/>
	<text transform="matrix(1 0 0 1 120.5447 36.2156)" fill="#F0F0F0" font-family="'OCRA'" font-size="4.68">1</text>
	<text transform="matrix(1 0 0 1 27.324 36.2156)" fill="#F0F0F0" font-family="'OCRA'" font-size="4.68">13</text>
	<text transform="matrix(1 0 0 1 26.3025 17.0085)" fill="#F0F0F0" font-family="'OCRA'" font-size="4.68">M25D</text>
	<rect x="0" y="26.071" fill="#F0F0F0" width="150.236" height="1.418"/>
	<rect x="25.511" y="37.127" fill="#F0F0F0" width="99.213" height="4.535"/>
</g>
</svg>
