<?xml version='1.0' encoding='UTF-8' standalone='no'?>
<!-- Created with Fritzing (http://www.fritzing.org/) -->
<svg xmlns="http://www.w3.org/2000/svg"  width="0.94in" x="0in" version="1.2" y="0in" height="1in" viewBox="0 0 67.68 72" baseProfile="tiny">
 <desc >Fritzing footprint generated by brd2svg</desc>
 <g  id="silkscreen">
  <path  fill="none" stroke="white" stroke-width="0.576" d="M0.288,71.712L0.288,0.288L67.392,0.288L67.392,71.712L0.288,71.712M2.808,7.2a4.392,4.392,0,1,0,8.784,0,4.392,4.392,0,1,0,-8.784,0zM2.808,64.8a4.392,4.392,0,1,0,8.784,0,4.392,4.392,0,1,0,-8.784,0z"/>
  <line  stroke="white" stroke-linecap="round" y1="29.016" x1="19.152" y2="22.32" stroke-width="0.36" x2="19.152"/>
  <line  stroke="white" stroke-linecap="round" y1="22.32" x1="19.152" y2="22.32" stroke-width="0.36" x2="25.704"/>
  <line  stroke="white" stroke-linecap="round" y1="21.6" x1="24.984" y2="22.32" stroke-width="0.36" x2="25.704"/>
  <line  stroke="white" stroke-linecap="round" y1="22.32" x1="25.704" y2="23.04" stroke-width="0.36" x2="24.984"/>
  <line  stroke="white" stroke-linecap="round" y1="29.016" x1="19.152" y2="28.296" stroke-width="0.36" x2="18.432"/>
  <line  stroke="white" stroke-linecap="round" y1="29.016" x1="19.152" y2="28.296" stroke-width="0.36" x2="19.872"/>
  <line  stroke="white" stroke-linecap="round" y1="52.272" x1="53.856" y2="52.56" stroke-width="0.504" x2="53.568"/>
  <line  stroke="white" stroke-linecap="round" y1="52.56" x1="53.568" y2="53.424" stroke-width="0.504" x2="52.704"/>
  <line  stroke="white" stroke-linecap="round" y1="53.424" x1="52.704" y2="52.344" stroke-width="0.504" x2="52.344"/>
  <line  stroke="white" stroke-linecap="round" y1="52.344" x1="52.344" y2="52.272" stroke-width="0.504" x2="53.856"/>
  <path  fill="none" stroke="white" stroke-width="0.504" d="M53.568,52.56A4.9387,4.9387,0,0,0,50.112,56.088"/>
  <circle  fill="none" cx="21.96" cy="24.912" stroke="white" r="0.576" stroke-width="0"/>
  <circle  fill="none" cx="21.96" cy="24.912" stroke="white" r="1.44" stroke-width="0.36"/>
  <g >
   <title >element:JP1</title>
   <g >
    <title >package:1X04</title>
    <line  stroke="white" stroke-linecap="round" y1="23.4" x1="67.68" y2="27" stroke-width="0.576" x2="67.68"/>
    <line  stroke="white" stroke-linecap="round" y1="27" x1="67.68" y2="28.8" stroke-width="0.576" x2="65.88"/>
    <line  stroke="white" stroke-linecap="round" y1="28.8" x1="62.28" y2="27" stroke-width="0.576" x2="60.48"/>
    <line  stroke="white" stroke-linecap="round" y1="14.4" x1="65.88" y2="16.2" stroke-width="0.576" x2="67.68"/>
    <line  stroke="white" stroke-linecap="round" y1="16.2" x1="67.68" y2="19.8" stroke-width="0.576" x2="67.68"/>
    <line  stroke="white" stroke-linecap="round" y1="19.8" x1="67.68" y2="21.6" stroke-width="0.576" x2="65.88"/>
    <line  stroke="white" stroke-linecap="round" y1="21.6" x1="62.28" y2="19.8" stroke-width="0.576" x2="60.48"/>
    <line  stroke="white" stroke-linecap="round" y1="19.8" x1="60.48" y2="16.2" stroke-width="0.576" x2="60.48"/>
    <line  stroke="white" stroke-linecap="round" y1="16.2" x1="60.48" y2="14.4" stroke-width="0.576" x2="62.28"/>
    <line  stroke="white" stroke-linecap="round" y1="23.4" x1="67.68" y2="21.6" stroke-width="0.576" x2="65.88"/>
    <line  stroke="white" stroke-linecap="round" y1="21.6" x1="62.28" y2="23.4" stroke-width="0.576" x2="60.48"/>
    <line  stroke="white" stroke-linecap="round" y1="27" x1="60.48" y2="23.4" stroke-width="0.576" x2="60.48"/>
    <line  stroke="white" stroke-linecap="round" y1="1.8" x1="67.68" y2="5.4" stroke-width="0.576" x2="67.68"/>
    <line  stroke="white" stroke-linecap="round" y1="5.4" x1="67.68" y2="7.2" stroke-width="0.576" x2="65.88"/>
    <line  stroke="white" stroke-linecap="round" y1="7.2" x1="62.28" y2="5.4" stroke-width="0.576" x2="60.48"/>
    <line  stroke="white" stroke-linecap="round" y1="7.2" x1="65.88" y2="9" stroke-width="0.576" x2="67.68"/>
    <line  stroke="white" stroke-linecap="round" y1="9" x1="67.68" y2="12.6" stroke-width="0.576" x2="67.68"/>
    <line  stroke="white" stroke-linecap="round" y1="12.6" x1="67.68" y2="14.4" stroke-width="0.576" x2="65.88"/>
    <line  stroke="white" stroke-linecap="round" y1="14.4" x1="62.28" y2="12.6" stroke-width="0.576" x2="60.48"/>
    <line  stroke="white" stroke-linecap="round" y1="12.6" x1="60.48" y2="9" stroke-width="0.576" x2="60.48"/>
    <line  stroke="white" stroke-linecap="round" y1="9" x1="60.48" y2="7.2" stroke-width="0.576" x2="62.28"/>
    <line  stroke="white" stroke-linecap="round" y1="0" x1="65.88" y2="0" stroke-width="0.576" x2="62.28"/>
    <line  stroke="white" stroke-linecap="round" y1="1.8" x1="67.68" y2="0" stroke-width="0.576" x2="65.88"/>
    <line  stroke="white" stroke-linecap="round" y1="0" x1="62.28" y2="1.8" stroke-width="0.576" x2="60.48"/>
    <line  stroke="white" stroke-linecap="round" y1="5.4" x1="60.48" y2="1.8" stroke-width="0.576" x2="60.48"/>
    <line  stroke="white" stroke-linecap="round" y1="28.8" x1="65.88" y2="28.8" stroke-width="0.576" x2="62.28"/>
   </g>
  </g>
  <g >
   <title >element:JP2</title>
   <g >
    <title >package:1X06</title>
    <line  stroke="white" stroke-linecap="round" y1="64.8" x1="65.88" y2="66.6" stroke-width="0.576" x2="67.68"/>
    <line  stroke="white" stroke-linecap="round" y1="66.6" x1="67.68" y2="70.2" stroke-width="0.576" x2="67.68"/>
    <line  stroke="white" stroke-linecap="round" y1="70.2" x1="67.68" y2="72" stroke-width="0.576" x2="65.88"/>
    <line  stroke="white" stroke-linecap="round" y1="72" x1="62.28" y2="70.2" stroke-width="0.576" x2="60.48"/>
    <line  stroke="white" stroke-linecap="round" y1="70.2" x1="60.48" y2="66.6" stroke-width="0.576" x2="60.48"/>
    <line  stroke="white" stroke-linecap="round" y1="66.6" x1="60.48" y2="64.8" stroke-width="0.576" x2="62.28"/>
    <line  stroke="white" stroke-linecap="round" y1="52.2" x1="67.68" y2="55.8" stroke-width="0.576" x2="67.68"/>
    <line  stroke="white" stroke-linecap="round" y1="55.8" x1="67.68" y2="57.6" stroke-width="0.576" x2="65.88"/>
    <line  stroke="white" stroke-linecap="round" y1="57.6" x1="62.28" y2="55.8" stroke-width="0.576" x2="60.48"/>
    <line  stroke="white" stroke-linecap="round" y1="57.6" x1="65.88" y2="59.4" stroke-width="0.576" x2="67.68"/>
    <line  stroke="white" stroke-linecap="round" y1="59.4" x1="67.68" y2="63" stroke-width="0.576" x2="67.68"/>
    <line  stroke="white" stroke-linecap="round" y1="63" x1="67.68" y2="64.8" stroke-width="0.576" x2="65.88"/>
    <line  stroke="white" stroke-linecap="round" y1="64.8" x1="62.28" y2="63" stroke-width="0.576" x2="60.48"/>
    <line  stroke="white" stroke-linecap="round" y1="63" x1="60.48" y2="59.4" stroke-width="0.576" x2="60.48"/>
    <line  stroke="white" stroke-linecap="round" y1="59.4" x1="60.48" y2="57.6" stroke-width="0.576" x2="62.28"/>
    <line  stroke="white" stroke-linecap="round" y1="43.2" x1="65.88" y2="45" stroke-width="0.576" x2="67.68"/>
    <line  stroke="white" stroke-linecap="round" y1="45" x1="67.68" y2="48.6" stroke-width="0.576" x2="67.68"/>
    <line  stroke="white" stroke-linecap="round" y1="48.6" x1="67.68" y2="50.4" stroke-width="0.576" x2="65.88"/>
    <line  stroke="white" stroke-linecap="round" y1="50.4" x1="62.28" y2="48.6" stroke-width="0.576" x2="60.48"/>
    <line  stroke="white" stroke-linecap="round" y1="48.6" x1="60.48" y2="45" stroke-width="0.576" x2="60.48"/>
    <line  stroke="white" stroke-linecap="round" y1="45" x1="60.48" y2="43.2" stroke-width="0.576" x2="62.28"/>
    <line  stroke="white" stroke-linecap="round" y1="52.2" x1="67.68" y2="50.4" stroke-width="0.576" x2="65.88"/>
    <line  stroke="white" stroke-linecap="round" y1="50.4" x1="62.28" y2="52.2" stroke-width="0.576" x2="60.48"/>
    <line  stroke="white" stroke-linecap="round" y1="55.8" x1="60.48" y2="52.2" stroke-width="0.576" x2="60.48"/>
    <line  stroke="white" stroke-linecap="round" y1="30.6" x1="67.68" y2="34.2" stroke-width="0.576" x2="67.68"/>
    <line  stroke="white" stroke-linecap="round" y1="34.2" x1="67.68" y2="36" stroke-width="0.576" x2="65.88"/>
    <line  stroke="white" stroke-linecap="round" y1="36" x1="62.28" y2="34.2" stroke-width="0.576" x2="60.48"/>
    <line  stroke="white" stroke-linecap="round" y1="36" x1="65.88" y2="37.8" stroke-width="0.576" x2="67.68"/>
    <line  stroke="white" stroke-linecap="round" y1="37.8" x1="67.68" y2="41.4" stroke-width="0.576" x2="67.68"/>
    <line  stroke="white" stroke-linecap="round" y1="41.4" x1="67.68" y2="43.2" stroke-width="0.576" x2="65.88"/>
    <line  stroke="white" stroke-linecap="round" y1="43.2" x1="62.28" y2="41.4" stroke-width="0.576" x2="60.48"/>
    <line  stroke="white" stroke-linecap="round" y1="41.4" x1="60.48" y2="37.8" stroke-width="0.576" x2="60.48"/>
    <line  stroke="white" stroke-linecap="round" y1="37.8" x1="60.48" y2="36" stroke-width="0.576" x2="62.28"/>
    <line  stroke="white" stroke-linecap="round" y1="28.8" x1="65.88" y2="28.8" stroke-width="0.576" x2="62.28"/>
    <line  stroke="white" stroke-linecap="round" y1="30.6" x1="67.68" y2="28.8" stroke-width="0.576" x2="65.88"/>
    <line  stroke="white" stroke-linecap="round" y1="28.8" x1="62.28" y2="30.6" stroke-width="0.576" x2="60.48"/>
    <line  stroke="white" stroke-linecap="round" y1="34.2" x1="60.48" y2="30.6" stroke-width="0.576" x2="60.48"/>
    <line  stroke="white" stroke-linecap="round" y1="72" x1="65.88" y2="72" stroke-width="0.576" x2="62.28"/>
   </g>
  </g>
  <g >
   <title >element:SJ2</title>
   <g >
    <title >package:PAD-JUMPER-2-NC_BY_TRACE_YES_SILK</title>
    <line  stroke="white" stroke-linecap="round" y1="51.66" x1="55.008" y2="46.98" stroke-width="0.576" x2="55.008"/>
    <path  fill="none" stroke="white" stroke-width="0.576" d="M60.048,52.38A0.72,0.72,0,0,0,60.768,51.66"/>
    <path  fill="none" stroke="white" stroke-width="0.576" d="M60.768,46.98A0.72,0.72,0,0,0,60.048,46.26"/>
    <path  fill="none" stroke="white" stroke-width="0.576" d="M55.728,46.26A0.72,0.72,0,0,0,55.008,46.98"/>
    <path  fill="none" stroke="white" stroke-width="0.576" d="M55.008,51.66A0.72,0.72,0,0,0,55.728,52.38"/>
    <line  stroke="white" stroke-linecap="round" y1="46.98" x1="60.768" y2="51.66" stroke-width="0.576" x2="60.768"/>
   </g>
  </g>
 </g>
 <g  id="copper1">
  <g  id="copper0">
   <circle  fill="none" cx="64.08" cy="3.6" connectorname="GND" stroke="#F7BD13" r="2.052" id="connector10pad" stroke-width="1.224"/>
   <rect  width="4.104" x="62.028" y="1.548" fill="none" height="4.104" stroke="#F7BD13" stroke-width="1.224"/>
   <circle  fill="none" cx="64.08" cy="10.8" connectorname="VDD_IO" stroke="#F7BD13" r="2.052" id="connector11pad" stroke-width="1.224"/>
   <circle  fill="none" cx="64.08" cy="18" connectorname="SDA/SDI/SDO" stroke="#F7BD13" r="2.052" id="connector12pad" stroke-width="1.224"/>
   <circle  fill="none" cx="64.08" cy="25.2" connectorname="SCL/SCLK" stroke="#F7BD13" r="2.052" id="connector13pad" stroke-width="1.224"/>
   <circle  fill="none" cx="64.08" cy="32.4" connectorname="INT_XL" stroke="#F7BD13" r="2.052" id="connector14pad" stroke-width="1.224"/>
   <circle  fill="none" cx="64.08" cy="39.6" connectorname="DRDY_MAG" stroke="#F7BD13" r="2.052" id="connector15pad" stroke-width="1.224"/>
   <circle  fill="none" cx="64.08" cy="46.8" connectorname="!CS_XL" stroke="#F7BD13" r="2.052" id="connector16pad" stroke-width="1.224"/>
   <circle  fill="none" cx="64.08" cy="54" connectorname="VCC" stroke="#F7BD13" r="2.052" id="connector17pad" stroke-width="1.224"/>
   <circle  fill="none" cx="64.08" cy="61.2" connectorname="!CS_MAG" stroke="#F7BD13" r="2.052" id="connector18pad" stroke-width="1.224"/>
   <circle  fill="none" cx="64.08" cy="68.4" connectorname="INT_MAG" stroke="#F7BD13" r="2.052" id="connector19pad" stroke-width="1.224"/>
  </g>
 </g>
</svg>
