<?xml version='1.0' encoding='UTF-8' standalone='no'?>
<!-- Created with Fritzing (http://www.fritzing.org/) -->
<svg xmlns="http://www.w3.org/2000/svg" baseProfile="tiny" height="0.379799in" x="0in" viewBox="0 0 379.598 379.799" width="0.379598in" y="0in"  version="1.2">
    <desc >
        <referenceFile >STM32F103_pcb.svg</referenceFile>
    </desc>
    <g gorn="0.1" stroke-width="0"  id="copper1">
        <rect gorn="0.1.0" height="45" stroke-width="0" x="76.5314" width="9.99998" y="334.824"  stroke="none" fill="#F7BD13" id="connector0pad"/>
        <rect gorn="0.1.1" height="45" stroke-width="0" x="96.2164" width="9.99998" y="334.824"  stroke="none" fill="#F7BD13" id="connector1pad"/>
        <rect gorn="0.1.2" height="45" stroke-width="0" x="115.902" width="9.99998" y="334.824"  stroke="none" fill="#F7BD13" id="connector2pad"/>
        <rect gorn="0.1.3" height="45" stroke-width="0" x="135.587" width="9.99998" y="334.824"  stroke="none" fill="#F7BD13" id="connector3pad"/>
        <rect gorn="0.1.4" height="45" stroke-width="0" x="155.272" width="9.99998" y="334.824"  stroke="none" fill="#F7BD13" id="connector4pad"/>
        <rect gorn="0.1.5" height="45" stroke-width="0" x="174.957" width="9.99998" y="334.824"  stroke="none" fill="#F7BD13" id="connector5pad"/>
        <rect gorn="0.1.6" height="45" stroke-width="0" x="194.641" width="9.99998" y="334.824"  stroke="none" fill="#F7BD13" id="connector6pad"/>
        <rect gorn="0.1.7" height="45" stroke-width="0" x="214.326" width="9.99998" y="334.824"  stroke="none" fill="#F7BD13" id="connector7pad"/>
        <rect gorn="0.1.8" height="45" stroke-width="0" x="234.012" width="9.99998" y="334.824"  stroke="none" fill="#F7BD13" id="connector8pad"/>
        <rect gorn="0.1.9" height="45" stroke-width="0" x="253.697" width="9.99998" y="334.824"  stroke="none" fill="#F7BD13" id="connector9pad"/>
        <rect gorn="0.1.10" height="45" stroke-width="0" x="273.382" width="9.99998" y="334.824"  stroke="none" fill="#F7BD13" id="connector10pad"/>
        <rect gorn="0.1.11" height="45" stroke-width="0" x="293.066" width="9.99998" y="334.824"  stroke="none" fill="#F7BD13" id="connector11pad"/>
        <rect gorn="0.1.12" height="10" stroke-width="0" x="334.622" width="44.9999" y="293.268"  stroke="none" fill="#F7BD13" id="connector12pad"/>
        <rect gorn="0.1.13" height="10" stroke-width="0" x="334.622" width="44.9999" y="273.584"  stroke="none" fill="#F7BD13" id="connector13pad"/>
        <rect gorn="0.1.14" height="10" stroke-width="0" x="334.622" width="44.9999" y="253.899"  stroke="none" fill="#F7BD13" id="connector14pad"/>
        <rect gorn="0.1.15" height="10" stroke-width="0" x="334.622" width="44.9999" y="234.213"  stroke="none" fill="#F7BD13" id="connector15pad"/>
        <rect gorn="0.1.16" height="10" stroke-width="0" x="334.622" width="44.9999" y="214.528"  stroke="none" fill="#F7BD13" id="connector16pad"/>
        <rect gorn="0.1.17" height="10" stroke-width="0" x="334.622" width="44.9999" y="194.843"  stroke="none" fill="#F7BD13" id="connector17pad"/>
        <rect gorn="0.1.18" height="10" stroke-width="0" x="334.622" width="44.9999" y="175.157"  stroke="none" fill="#F7BD13" id="connector18pad"/>
        <rect gorn="0.1.19" height="10" stroke-width="0" x="334.622" width="44.9999" y="155.472"  stroke="none" fill="#F7BD13" id="connector19pad"/>
        <rect gorn="0.1.20" height="10" stroke-width="0" x="334.622" width="44.9999" y="135.787"  stroke="none" fill="#F7BD13" id="connector20pad"/>
        <rect gorn="0.1.21" height="10" stroke-width="0" x="334.622" width="44.9999" y="116.102"  stroke="none" fill="#F7BD13" id="connector21pad"/>
        <rect gorn="0.1.22" height="10" stroke-width="0" x="334.622" width="44.9999" y="96.4175"  stroke="none" fill="#F7BD13" id="connector22pad"/>
        <rect gorn="0.1.23" height="10" stroke-width="0" x="334.622" width="44.9999" y="76.7324"  stroke="none" fill="#F7BD13" id="connector23pad"/>
        <rect gorn="0.1.24" height="45" stroke-width="0" x="293.066" width="9.99998" y="0.177165"  stroke="none" fill="#F7BD13" id="connector24pad"/>
        <rect gorn="0.1.25" height="45" stroke-width="0" x="273.382" width="9.99998" y="0.177165"  stroke="none" fill="#F7BD13" id="connector25pad"/>
        <rect gorn="0.1.26" height="45" stroke-width="0" x="253.697" width="9.99998" y="0.177165"  stroke="none" fill="#F7BD13" id="connector26pad"/>
        <rect gorn="0.1.27" height="45" stroke-width="0" x="234.012" width="9.99998" y="0.177165"  stroke="none" fill="#F7BD13" id="connector27pad"/>
        <rect gorn="0.1.28" height="45" stroke-width="0" x="214.326" width="9.99998" y="0.177165"  stroke="none" fill="#F7BD13" id="connector28pad"/>
        <rect gorn="0.1.29" height="45" stroke-width="0" x="194.641" width="9.99998" y="0.177165"  stroke="none" fill="#F7BD13" id="connector29pad"/>
        <rect gorn="0.1.30" height="45" stroke-width="0" x="174.957" width="9.99998" y="0.177165"  stroke="none" fill="#F7BD13" id="connector30pad"/>
        <rect gorn="0.1.31" height="45" stroke-width="0" x="155.272" width="9.99998" y="0.177165"  stroke="none" fill="#F7BD13" id="connector31pad"/>
        <rect gorn="0.1.32" height="45" stroke-width="0" x="135.587" width="9.99998" y="0.177165"  stroke="none" fill="#F7BD13" id="connector32pad"/>
        <rect gorn="0.1.33" height="45" stroke-width="0" x="115.902" width="9.99998" y="0.177165"  stroke="none" fill="#F7BD13" id="connector33pad"/>
        <rect gorn="0.1.34" height="45" stroke-width="0" x="96.2164" width="9.99998" y="0.177165"  stroke="none" fill="#F7BD13" id="connector34pad"/>
        <rect gorn="0.1.35" height="45" stroke-width="0" x="76.5314" width="9.99998" y="0.177165"  stroke="none" fill="#F7BD13" id="connector35pad"/>
        <rect gorn="0.1.36" height="10" stroke-width="0" x="-0.0236219" width="44.9999" y="76.7324"  stroke="none" fill="#F7BD13" id="connector36pad"/>
        <rect gorn="0.1.37" height="10" stroke-width="0" x="-0.0236219" width="44.9999" y="96.4175"  stroke="none" fill="#F7BD13" id="connector37pad"/>
        <rect gorn="0.1.38" height="10" stroke-width="0" x="-0.0236219" width="44.9999" y="116.102"  stroke="none" fill="#F7BD13" id="connector38pad"/>
        <rect gorn="0.1.39" height="10" stroke-width="0" x="-0.0236219" width="44.9999" y="135.787"  stroke="none" fill="#F7BD13" id="connector39pad"/>
        <rect gorn="0.1.40" height="10" stroke-width="0" x="-0.0236219" width="44.9999" y="155.472"  stroke="none" fill="#F7BD13" id="connector40pad"/>
        <rect gorn="0.1.41" height="10" stroke-width="0" x="-0.0236219" width="44.9999" y="175.157"  stroke="none" fill="#F7BD13" id="connector41pad"/>
        <rect gorn="0.1.42" height="10" stroke-width="0" x="-0.0236219" width="44.9999" y="194.843"  stroke="none" fill="#F7BD13" id="connector42pad"/>
        <rect gorn="0.1.43" height="10" stroke-width="0" x="-0.0236219" width="44.9999" y="214.528"  stroke="none" fill="#F7BD13" id="connector43pad"/>
        <rect gorn="0.1.44" height="10" stroke-width="0" x="-0.0236219" width="44.9999" y="234.213"  stroke="none" fill="#F7BD13" id="connector44pad"/>
        <rect gorn="0.1.45" height="10" stroke-width="0" x="-0.0236219" width="44.9999" y="253.899"  stroke="none" fill="#F7BD13" id="connector45pad"/>
        <rect gorn="0.1.46" height="10" stroke-width="0" x="-0.0236219" width="44.9999" y="273.584"  stroke="none" fill="#F7BD13" id="connector46pad"/>
        <rect gorn="0.1.47" height="10" stroke-width="0" x="-0.0236219" width="44.9999" y="293.268"  stroke="none" fill="#F7BD13" id="connector47pad"/>
    </g>
       <g gorn="0.1" stroke-width="0"  id="noconnector">
                <circle cy="0" gorn="0.2.0.1.9" stroke-width="0"  stroke="none" cx="0" fill="none" id="connector48pin" r="0"/>
            </g>
    <g gorn="0.2" stroke-width="0"  id="silkscreen">
        <g stroke-width="0" >
            <title >element:E$1</title>
            <g stroke-width="0" >
                <title >package:LQFP-48</title>
                <line x1="56.925" x2="67.7518" stroke-width="9.99998" stroke-linecap="round"  y2="57.126" stroke="white" y1="67.9528"/>
                <line x1="67.7518" x2="311.845" stroke-width="9.99998" stroke-linecap="round"  y2="57.126" stroke="white" y1="57.126"/>
                <line x1="311.845" x2="322.673" stroke-width="9.99998" stroke-linecap="round"  y2="67.9528" stroke="white" y1="57.126"/>
                <line x1="322.673" x2="322.673" stroke-width="9.99998" stroke-linecap="round"  y2="312.048" stroke="white" y1="67.9528"/>
                <line x1="322.673" x2="311.845" stroke-width="9.99998" stroke-linecap="round"  y2="322.874" stroke="white" y1="312.048"/>
                <line x1="311.845" x2="67.7518" stroke-width="9.99998" stroke-linecap="round"  y2="322.874" stroke="white" y1="322.874"/>
                <line x1="67.7518" x2="56.925" stroke-width="9.99998" stroke-linecap="round"  y2="312.048" stroke="white" y1="322.874"/>
                <line x1="56.925" x2="56.925" stroke-width="9.99998" stroke-linecap="round"  y2="67.9528" stroke="white" y1="312.048"/>
                <circle cy="268.741" gorn="0.2.0.1.9" stroke-width="9.99998"  stroke="white" cx="111.059" fill="none" r="23.6219"/>
            </g>
        </g>
    </g>
</svg>
