<?xml version="1.0" encoding="UTF-8"?>
<svg version="1.1" xmlns="http://www.w3.org/2000/svg" xmlns:xlink="http://www.w3.org/1999/xlink" x="0px" y="0px"
	 viewBox="0 0 72.567 80.267" width="2.56cm" height="2.83cm" xml:space="preserve">
<g id="silkscreen">

	<g class="PCB" stroke="none" stroke-width="0" fill="#000000">
		<path class="board-outline" d="M71.559,0.5c0.322,0,0.499,0.177,0.499,0.499v77.21c0,0.826-0.672,1.498-1.498,1.498H7.634c-0.826,0-1.498-0.672-1.498-1.498v-17.18c0-0.406-0.221-0.769-0.591-0.953l-4.979-2.291c-0.021-0.011-0.023-0.04-0.023-0.053V0.998C0.542,0.677,0.719,0.5,1.04,0.5H71.559 M71.559,0H1.04c-0.6,0-0.998,0.4-0.998,0.998v56.734c0,0.2,0.1,0.4,0.3,0.5l4.994,2.298c0.2,0.1,0.3,0.3,0.3,0.5v17.18c0,1.098,0.898,1.998,1.998,1.998H70.56c1.098,0,1.998-0.898,1.998-1.998V0.998C72.558,0.4,72.158,0,71.559,0L71.559,0z"/>
	</g>

	<g font-family="'Droid Sans'" font-size="4" text-anchor="middle" fill="#000000" stroke="none" stroke-width="0" stroke-linecap="round">
		<text x="36.2835" y="27">WeMos D1 mini</text>
		<text x="36.2835" y="34">Motor Shield</text>
	</g>

	<g transform="translate(0.2835 0)">
		<g class="labels" fill="none" stroke="#000000" stroke-width="0.4" stroke-linecap="round" stroke-linejoin="round" stroke-miterlimit="10">
			<g class="left-labels" transform="translate(8.5 0.3)">
				<g class="RST">
					<path class="left" d="M0,4.6V2.4 M0,2.4h1.165 M1.165,2.4l0.324,0.324 M1.488,2.724V3.5 M1.488,3.5L1.165,3.888 M1.165,3.888H0 M0.776,3.888L1.488,4.6 M3.818,2.724L3.429,2.4 M3.429,2.4H2.653 M2.653,2.4L2.265,2.724 M2.265,2.724v0.388 M2.265,3.112L2.653,3.5 M2.653,3.5h0.776 M3.429,3.5l0.388,0.388 M3.818,3.888v0.324 M3.818,4.212L3.429,4.6 M3.429,4.6H2.653 M2.653,4.6L2.265,4.212 M5.306,4.6V2.4 M4.594,2.4h1.488"/>
				</g>
				<g class="A0" transform="translate(0 7.2)">
					<path class="left" d="M0,4.6V3.112 M0,3.112L0.776,2.4 M0.776,2.4l0.776,0.712 M1.553,3.112V4.6 M0,3.5h1.553 M2.329,4.212V2.724 M2.329,2.724L2.718,2.4 M2.718,2.4h0.712 M3.429,2.4l0.388,0.324 M3.818,2.724v1.488 M3.818,4.212L3.429,4.6 M3.429,4.6H2.718 M2.718,4.6L2.329,4.212 M2.329,4.212l1.488-1.488"/>
				</g>
				<g class="D0" transform="translate(0 14.4)">
					<path class="left" d="M0,2.4v2.2 M0,4.6h1.165 M1.165,4.6l0.388-0.388 M1.553,4.212V2.724 M1.553,2.724L1.165,2.4 M1.165,2.4H0 M2.329,4.212V2.724 M2.329,2.724L2.718,2.4 M2.718,2.4h0.712 M3.429,2.4l0.388,0.324 M3.818,2.724v1.488 M3.818,4.212L3.429,4.6 M3.429,4.6H2.718 M2.718,4.6L2.329,4.212 M2.329,4.212l1.488-1.488"/>
				</g>
				<g class="D5" transform="translate(0 21.6)">
					<path class="left" d="M0,2.4v2.2 M0,4.6h1.165 M1.165,4.6l0.388-0.388 M1.553,4.212V2.724 M1.553,2.724L1.165,2.4 M1.165,2.4H0 M3.818,2.4H2.329 M2.329,2.4v1.1 M2.329,3.5l0.712-0.388 M3.041,3.112h0.388 M3.429,3.112L3.818,3.5 M3.818,3.5v0.712 M3.818,4.212L3.429,4.6 M3.429,4.6H2.653 M2.653,4.6L2.329,4.212"/>
				</g>
				<g class="D6" transform="translate(0 28.8)">
					<path class="left" d="M0,2.4v2.2 M0,4.6h1.165 M1.165,4.6l0.388-0.388 M1.553,4.212V2.724 M1.553,2.724L1.165,2.4 M1.165,2.4H0 M3.818,2.4L3.041,2.724 M3.041,2.724L2.329,3.5 M2.329,3.5v0.712 M2.653,4.6L2.329,4.212 M2.653,4.6h0.776 M3.429,4.6l0.388-0.388 M3.818,4.212V3.888 M3.818,3.888L3.429,3.5 M3.429,3.5h-1.1"/>
				</g>
				<g class="D7" transform="translate(0 36)">
					<path class="left" d="M0,2.4v2.2 M0,4.6h1.165 M1.165,4.6l0.388-0.388 M1.553,4.212V2.724 M1.553,2.724L1.165,2.4 M1.165,2.4H0 M2.329,2.4h1.488 M3.818,2.4v0.324 M3.818,2.724L2.329,4.212 M2.329,4.212V4.6"/>
				</g>
				<g class="D8" transform="translate(0 43.2)">
					<path class="left" d="M0,2.4v2.2 M0,4.6h1.165 M1.165,4.6l0.324-0.388 M1.488,4.212V2.724 M1.488,2.724L1.165,2.4 M1.165,2.4H0 M2.329,2.724L2.653,2.4 M2.653,2.4h0.776 M3.429,2.4l0.388,0.324 M3.818,2.724v0.388 M3.818,3.112L3.429,3.5 M3.429,3.5l0.388,0.388 M3.818,3.888v0.324 M3.818,4.212L3.429,4.6 M3.429,4.6H2.653 M2.653,4.6L2.329,4.212 M2.329,4.212V3.888 M2.329,3.888L2.653,3.5 M2.653,3.5L2.329,3.112 M2.329,3.112V2.724 M2.653,3.5h0.776"/>
				</g>
				<g class="3V3" transform="translate(0 50.4)">
					<path class="left" d="M0,2.724L0.388,2.4 M0.388,2.4h0.776 M1.165,2.4l0.324,0.324 M1.488,2.724v0.388 M1.488,3.112L1.165,3.5 M1.165,3.5H0.776 M1.165,3.5l0.324,0.388 M1.488,3.888v0.324 M1.488,4.212L1.165,4.6 M1.165,4.6H0.388 M0.388,4.6L0,4.212 M2.329,2.4v1.488 M2.329,3.888L3.041,4.6 M3.041,4.6l0.776-0.712 M3.818,3.888V2.4 M4.594,2.724L4.982,2.4 M4.982,2.4h0.712 M5.694,2.4l0.388,0.324 M6.082,2.724v0.388 M6.082,3.112L5.694,3.5 M5.694,3.5H5.371 M5.694,3.5l0.388,0.388 M6.082,3.888v0.324 M6.082,4.212L5.694,4.6 M5.694,4.6H4.982 M4.594,4.212L4.982,4.6"/>
				</g>
			</g>
			<g class="right-labels" transform="translate(56.7 0.3)">
				<g class="TX">
					<path class="right" d="M3.959,4.6V2.4 M3.247,2.4h1.488 M7,4.6L5.512,2.4 M7,2.4L5.512,4.6"/>
				</g>
				<g class="RX" transform="translate(0 7.2)">
					<path class="right" d="M3.247,4.6V2.4 M3.247,2.4h1.1 M4.347,2.4l0.388,0.324 M4.735,2.724V3.5 M4.735,3.5L4.347,3.888 M4.347,3.888h-1.1 M3.959,3.888L4.735,4.6 M7,4.6L5.512,2.4 M7,2.4L5.512,4.6"/>
				</g>
				<g class="D1" transform="translate(0 14.4)">
					<path class="right" d="M3.247,2.4v2.2 M3.247,4.6h1.1 M4.347,4.6l0.388-0.388 M4.735,4.212V2.724 M4.735,2.724L4.347,2.4 M4.347,2.4h-1.1 M5.512,3.112L6.224,2.4 M6.224,2.4v2.2 M5.512,4.6H7"/>
				</g>
				<g class="D2" transform="translate(0 21.6)">
					<path class="right" d="M3.247,2.4v2.2 M3.247,4.6h1.1 M4.347,4.6l0.388-0.388 M4.735,4.212V2.724 M4.735,2.724L4.347,2.4 M4.347,2.4h-1.1 M7,4.6H5.512 M5.512,4.6L7,3.112 M7,3.112V2.724 M7,2.724L6.612,2.4 M6.612,2.4H5.9 M5.9,2.4L5.512,2.724"/>
				</g>
				<g class="D3" transform="translate(0 28.8)">
					<path class="right" d="M3.182,2.4v2.2 M3.182,4.6h1.165 M4.347,4.6l0.388-0.388 M4.735,4.212V2.724 M4.735,2.724L4.347,2.4 M4.347,2.4H3.182 M5.512,2.724L5.9,2.4 M5.9,2.4h0.712 M6.612,2.4L7,2.724 M7,2.724v0.388 M7,3.112L6.612,3.5 M6.612,3.5H6.224 M6.612,3.5L7,3.888 M7,3.888v0.324 M7,4.212L6.612,4.6 M6.612,4.6H5.9 M5.9,4.6L5.512,4.212"/>
				</g>
				<g class="D4" transform="translate(0 36)">
					<path class="right" d="M3.182,2.4v2.2 M3.182,4.6h1.165 M4.347,4.6l0.388-0.388 M4.735,4.212V2.724 M4.735,2.724L4.347,2.4 M4.347,2.4H3.182 M6.612,4.6V2.4 M6.612,2.4l-1.1,1.1 M5.512,3.5H7"/>
				</g>
				<g class="GND" transform="translate(0 43.2)">
					<path class="right" d="M2.018,2.4l0.388,0.324 M2.018,2.4H1.306 M0.918,2.724L1.306,2.4 M0.918,2.724v1.488 M1.306,4.6L0.918,4.212 M1.306,4.6h0.712 M2.018,4.6l0.388-0.388 M2.406,4.212V3.5 M2.406,3.5H1.694 M3.182,4.6V2.4 M3.182,2.4l1.553,2.2 M4.735,4.6V2.4 M5.512,2.4v2.2 M5.512,4.6h1.1 M6.612,4.6L7,4.212 M7,4.212V2.724 M7,2.724L6.612,2.4 M6.612,2.4h-1.1"/>
				</g>
				<g class="5V" transform="translate(0 50.4)">
					<path class="right" d="M4.735,2.4H3.182 M3.182,2.4v1.1 M3.182,3.5l0.776-0.388 M3.959,3.112h0.388 M4.347,3.112L4.735,3.5 M4.735,3.5v0.712 M4.735,4.212L4.347,4.6 M4.347,4.6H3.571 M3.571,4.6L3.182,4.212 M5.512,2.4v1.488 M5.512,3.888L6.224,4.6 M6.224,4.6L7,3.888 M7,3.888V2.4"/>
				</g>
			</g>
			<g class="top-labels" transform="translate(14.5 8.8)">
				<g class="GND">
					<path class="T" d="M1.56,0.002l0.388,0.324 M1.56,0.002H0.849 M0.461,0.326l0.388-0.324 M0.461,0.326v1.487 M0.849,2.201L0.461,1.813 M0.849,2.201H1.56 M1.56,2.201l0.388-0.388 M1.948,1.813V1.101 M1.948,1.101H1.236 M2.723,2.201V0.002 M2.723,0.002l1.552,2.199 M4.276,2.201V0.002 M5.052,0.002v2.199 M5.052,2.201h1.099 M6.151,2.201l0.388-0.388 M6.539,1.813V0.326 M6.539,0.326L6.151,0.002 M6.151,0.002H5.052"/>
				</g>
				<g class="RTS" transform="translate(7.2 0)">
					<path class="T" d="M0.547,2.201V0.002 M0.547,0.002h1.068 M1.615,0.002l0.377,0.377 M1.992,0.379v0.754 M1.992,1.133L1.615,1.447 M1.615,1.447H0.547 M1.238,1.447l0.754,0.754 M3.5,2.201V0.002 M2.746,0.002h1.445 M6.453,0.379L6.076,0.002 M6.076,0.002H5.322 M5.322,0.002L4.945,0.379 M4.945,0.379v0.377 M4.945,0.756l0.377,0.377 M5.322,1.133h0.754 M6.076,1.133l0.377,0.314 M6.453,1.447v0.377 M6.076,2.201l0.377-0.377 M6.076,2.201H5.322 M5.322,2.201L4.945,1.824"/>
				</g>
				<g class="3V" transform="translate(14.4 0)">
					<path class="T" d="M1.678,0.379l0.377-0.377 M2.055,0.002h0.691 M2.746,0.002l0.377,0.377 M3.123,0.379v0.314 M3.123,0.693L2.746,1.07 M2.746,1.07H2.369 M2.746,1.07l0.377,0.377 M3.123,1.447v0.377 M3.123,1.824L2.746,2.201 M2.746,2.201H2.055 M2.055,2.201L1.678,1.824 M3.877,0.002v1.445 M3.877,1.447l0.754,0.754 M4.631,2.201l0.691-0.754 M5.322,1.447V0.002"/>
				</g>
				<g class="R" transform="translate(21.6 0)">
					<path class="T" d="M2.777,2.201V0.002 M2.777,0.002h1.068 M3.846,0.002l0.377,0.377 M4.223,0.379v0.754 M4.223,1.133L3.846,1.51 M3.846,1.51H2.777 M3.469,1.51l0.754,0.691"/>
				</g>
				<g class="T" transform="translate(28.8 0)">
					<path class="T" d="M3.469,2.201V0.002 M2.777,0.002h1.445"/>
				</g>
				<g class="DTR" transform="translate(36 0)">
					<path class="T" d="M0.547,0.002v2.199 M0.547,2.201h1.068 M1.615,2.201l0.377-0.377 M1.992,1.824V0.379 M1.992,0.379L1.615,0.002 M1.615,0.002H0.547 M3.5,2.201V0.002 M2.746,0.002h1.445 M4.945,2.201V0.002 M4.945,0.002h1.131 M6.076,0.002l0.377,0.377 M6.453,0.379v0.754 M6.453,1.133L6.076,1.51 M6.076,1.51H4.945 M5.699,1.51l0.754,0.691"/>
				</g>
			</g>
			<g class="bottom-labels" transform="translate(6.5 62)">
				<g class="VM" transform="translate(3.5 0)">
					<path class="B" d="M1.678,4.799v1.445 M2.369,6.998L1.678,6.244 M2.369,6.998l0.754-0.754 M3.123,6.244V4.799 M3.877,6.998V4.799 M3.877,4.799l0.754,0.754 M4.631,5.553l0.691-0.754 M5.322,4.799v2.199"/>
				</g>
				<g class="GND" transform="translate(17.9 0)">
					<path class="B" d="M1.56,4.799l0.388,0.324 M1.56,4.799H0.849 M0.461,5.123l0.388-0.324 M0.461,5.123V6.61 M0.849,6.998L0.461,6.61 M0.849,6.998H1.56 M1.56,6.998L1.948,6.61 M1.948,6.61V5.899 M1.948,5.899H1.236 M2.723,6.998V4.799 M2.723,4.799l1.552,2.199 M4.276,6.998V4.799 M5.052,4.799v2.199 M5.052,6.998h1.099 M6.151,6.998L6.539,6.61 M6.539,6.61V5.123 M6.539,5.123L6.151,4.799 M6.151,4.799H5.052"/>
				</g>
				<g class="A1" transform="translate(28.8 0)">
					<path class="B" d="M1.678,6.998V5.553 M1.678,5.553l0.691-0.754 M2.369,4.799l0.754,0.754 M3.123,5.553v1.445 M1.678,5.93h1.445 M3.877,5.553l0.754-0.754 M4.631,4.799v2.199 M3.877,6.998h1.445"/>
				</g>
				<g class="A2" transform="translate(36 0)">
					<path class="B" d="M1.678,6.998V5.553 M1.678,5.553l0.691-0.754 M2.369,4.799l0.754,0.754 M3.123,5.553v1.445 M1.678,5.867h1.445 M5.322,6.998H3.877 M3.877,6.998l1.445-1.445 M5.322,5.553V5.176 M5.322,5.176L4.945,4.799 M4.945,4.799H4.254 M4.254,4.799L3.877,5.176"/>
				</g>
				<g class="B2" transform="translate(43.2 0)">
					<path class="B" d="M1.678,6.998V4.862 M1.678,4.862h1.068 M3.123,5.176L2.746,4.862 M3.123,5.176v0.377 M3.123,5.553L2.746,5.93 M3.123,6.307L2.746,5.93 M3.123,6.307v0.377 M3.123,6.684L2.746,6.998 M2.746,6.998H1.678 M1.678,5.93h1.068 M5.322,6.998H3.877 M3.877,6.998l1.445-1.445 M5.322,5.553V5.176 M5.322,5.176L4.945,4.862 M4.945,4.862H4.254 M4.254,4.862L3.877,5.176"/>
				</g>
				<g class="B1" transform="translate(50.4 0)">
					<path class="B" d="M1.678,6.998V4.799 M1.678,4.799h1.068 M2.746,4.799l0.377,0.377 M3.123,5.176v0.377 M3.123,5.553L2.746,5.867 M2.746,5.867l0.377,0.377 M3.123,6.244v0.377 M3.123,6.621L2.746,6.998 M2.746,6.998H1.678 M1.678,5.867h1.068 M3.877,5.553l0.754-0.754 M4.631,4.799v2.199 M3.877,6.998h1.445"/>
				</g>
				<g class="S" transform="translate(57.6 0)">
					<path class="B" d="M4.223,5.176L3.846,4.862 M3.846,4.862H3.154 M3.154,4.862L2.777,5.176 M2.777,5.176v0.377 M2.777,5.553L3.154,5.93 M3.154,5.93h0.691 M4.223,6.307L3.846,5.93 M4.223,6.307v0.377 M4.223,6.684L3.846,6.998 M3.846,6.998H3.154 M3.154,6.998L2.777,6.684"/>
				</g>
			</g>
		</g>
	</g>
</g>

<g id="copper1">
	<g id="copper0">
		<g transform="translate(0.2835 0)">
			<g class="pads">
				<g class="pads-left" transform="translate(0 0.322)">
					<circle id="connector0pad" class="pad-rst" cx="3.6" cy="3.6"  r="2.05" fill="none" stroke="#F7BD13" stroke-width="1.5"/>
					<circle id="connector1pad" class="pad-a0"  cx="3.6" cy="10.8" r="2.05" fill="none" stroke="#F7BD13" stroke-width="1.5"/>
					<circle id="connector2pad" class="pad-d0"  cx="3.6" cy="18"   r="2.05" fill="none" stroke="#F7BD13" stroke-width="1.5"/>
					<circle id="connector3pad" class="pad-d5"  cx="3.6" cy="25.2" r="2.05" fill="none" stroke="#F7BD13" stroke-width="1.5"/>
					<circle id="connector4pad" class="pad-d6"  cx="3.6" cy="32.4" r="2.05" fill="none" stroke="#F7BD13" stroke-width="1.5"/>
					<circle id="connector5pad" class="pad-d7"  cx="3.6" cy="39.6" r="2.05" fill="none" stroke="#F7BD13" stroke-width="1.5"/>
					<circle id="connector6pad" class="pad-d8"  cx="3.6" cy="46.8" r="2.05" fill="none" stroke="#F7BD13" stroke-width="1.5"/>
					<circle id="connector7pad" class="pad-3v3" cx="3.6" cy="54"   r="2.05" fill="none" stroke="#F7BD13" stroke-width="1.5"/>
				</g>
				<g class="pads-right" transform="translate(64.8 0.322)">
					<circle id="connector8pad"  class="pad-5v" cx="3.6" cy="54"   r="2.05" fill="none" stroke="#F7BD13" stroke-width="1.5"/>
					<circle id="connector9pad"  class="pad-g"  cx="3.6" cy="46.8" r="2.05" fill="none" stroke="#F7BD13" stroke-width="1.5"/>
					<circle id="connector10pad" class="pad-d4" cx="3.6" cy="39.6" r="2.05" fill="none" stroke="#F7BD13" stroke-width="1.5"/>
					<circle id="connector11pad" class="pad-d3" cx="3.6" cy="32.4" r="2.05" fill="none" stroke="#F7BD13" stroke-width="1.5"/>
					<circle id="connector12pad" class="pad-d2" cx="3.6" cy="25.2" r="2.05" fill="none" stroke="#F7BD13" stroke-width="1.5"/>
					<circle id="connector13pad" class="pad-d1" cx="3.6" cy="18"   r="2.05" fill="none" stroke="#F7BD13" stroke-width="1.5"/>
					<circle id="connector14pad" class="pad-rx" cx="3.6" cy="10.8" r="2.05" fill="none" stroke="#F7BD13" stroke-width="1.5"/>
					<circle id="connector15pad" class="pad-tx" cx="3.6" cy="3.6"  r="2.05" fill="none" stroke="#F7BD13" stroke-width="1.5"/>
				</g>
				<g class="pads-top" transform="translate(0 0.322)">
					<circle id="connector16pad" class="pad-gnd" cx="18"   cy="3.6" r="2.05" fill="none" stroke="#F7BD13" stroke-width="1.5"/>
					<circle id="connector17pad" class="pad-rts" cx="25.2" cy="3.6" r="2.05" fill="none" stroke="#F7BD13" stroke-width="1.5"/>
					<circle id="connector18pad" class="pad-3v"  cx="32.4" cy="3.6" r="2.05" fill="none" stroke="#F7BD13" stroke-width="1.5"/>
					<circle id="connector19pad" class="pad-r"   cx="39.6" cy="3.6" r="2.05" fill="none" stroke="#F7BD13" stroke-width="1.5"/>
					<circle id="connector20pad" class="pad-t"   cx="46.8" cy="3.6" r="2.05" fill="none" stroke="#F7BD13" stroke-width="1.5"/>
					<circle id="connector21pad" class="pad-dtr" cx="54"   cy="3.6" r="2.05" fill="none" stroke="#F7BD13" stroke-width="1.5"/>
				</g>
				<g class="pads-bottom" transform="translate(6.5 72.322)">
					<path id="connector22pad" class="pad-vm1"  fill="#F7BD13" stroke="none" d="M3.6-0.65c-1.243,0-2.25,1.007-2.25,2.25v4c0,1.243,1.007,2.25,2.25,2.25c1.243,0,2.25-1.007,2.25-2.25v-4C5.85,0.357,4.842-0.65,3.6-0.65z M3.6,4.9c-0.717,0-1.3-0.583-1.3-1.3s0.583-1.3,1.3-1.3s1.3,0.583,1.3,1.3S4.317,4.9,3.6,4.9z"/>
					<path id="connector23pad" class="pad-vm2"  fill="#F7BD13" stroke="none" d="M10.8-0.65c-1.243,0-2.25,1.007-2.25,2.25v4c0,1.243,1.007,2.25,2.25,2.25c1.243,0,2.25-1.007,2.25-2.25v-4C13.05,0.357,12.043-0.65,10.8-0.65z M10.801,4.9c-0.717,0-1.3-0.583-1.3-1.3s0.583-1.3,1.3-1.3s1.3,0.583,1.3,1.3S11.518,4.9,10.801,4.9z"/>
					<path id="connector24pad" class="pad-gnd1" fill="#F7BD13" stroke="none" d="M18-0.65c-1.243,0-2.25,1.007-2.25,2.25v4c0,1.243,1.007,2.25,2.25,2.25c1.243,0,2.25-1.007,2.25-2.25v-4C20.25,0.357,19.242-0.65,18-0.65z M18,4.9c-0.717,0-1.3-0.583-1.3-1.3s0.583-1.3,1.3-1.3s1.3,0.583,1.3,1.3S18.717,4.9,18,4.9z"/>
					<path id="connector25pad" class="pad-gnd1" fill="#F7BD13" stroke="none" d="M25.2-0.65c-1.243,0-2.25,1.007-2.25,2.25v4c0,1.243,1.007,2.25,2.25,2.25c1.243,0,2.25-1.007,2.25-2.25v-4C27.451,0.357,26.443-0.65,25.2-0.65z M25.2,4.9c-0.717,0-1.3-0.583-1.3-1.3s0.583-1.3,1.3-1.3s1.3,0.583,1.3,1.3S25.918,4.9,25.2,4.9z"/>
					<path id="connector26pad" class="pad-a1"   fill="#F7BD13" stroke="none" d="M32.4-0.65c-1.243,0-2.25,1.007-2.25,2.25v4c0,1.243,1.007,2.25,2.25,2.25c1.243,0,2.25-1.007,2.25-2.25v-4C34.651,0.357,33.643-0.65,32.4-0.65z M32.4,4.9c-0.717,0-1.3-0.583-1.3-1.3s0.583-1.3,1.3-1.3c0.717,0,1.3,0.583,1.3,1.3S33.118,4.9,32.4,4.9z"/>
					<path id="connector27pad" class="pad-a2"   fill="#F7BD13" stroke="none" d="M39.6-0.65c-1.243,0-2.25,1.007-2.25,2.25v4c0,1.243,1.007,2.25,2.25,2.25c1.243,0,2.25-1.007,2.25-2.25v-4C41.849,0.357,40.842-0.65,39.6-0.65z M39.6,4.9c-0.717,0-1.3-0.583-1.3-1.3s0.583-1.3,1.3-1.3s1.3,0.583,1.3,1.3S40.317,4.9,39.6,4.9z"/>
					<path id="connector28pad" class="pad-b2"   fill="#F7BD13" stroke="none" d="M46.8-0.65c-1.243,0-2.25,1.007-2.25,2.25v4c0,1.243,1.007,2.25,2.25,2.25c1.243,0,2.25-1.007,2.25-2.25v-4C49.049,0.357,48.042-0.65,46.8-0.65z M46.8,4.9c-0.717,0-1.3-0.583-1.3-1.3s0.583-1.3,1.3-1.3s1.3,0.583,1.3,1.3S47.517,4.9,46.8,4.9z"/>
					<path id="connector29pad" class="pad-b1"   fill="#F7BD13" stroke="none" d="M54-0.65c-1.243,0-2.25,1.007-2.25,2.25v4c0,1.243,1.007,2.25,2.25,2.25c1.243,0,2.25-1.007,2.25-2.25v-4C56.25,0.357,55.242-0.65,54-0.65z M54,4.9c-0.717,0-1.3-0.583-1.3-1.3s0.583-1.3,1.3-1.3s1.3,0.583,1.3,1.3S54.717,4.9,54,4.9z"/>
					<path id="connector30pad" class="pad-s"    fill="#F7BD13" stroke="none" d="M61.2-0.65c-1.243,0-2.25,1.007-2.25,2.25v4c0,1.243,1.007,2.25,2.25,2.25c1.243,0,2.25-1.007,2.25-2.25v-4C63.451,0.357,62.443-0.65,61.2-0.65z M61.2,4.9c-0.717,0-1.3-0.583-1.3-1.3s0.583-1.3,1.3-1.3s1.3,0.583,1.3,1.3S61.918,4.9,61.2,4.9z"/>
				</g>
			</g>
		</g>
	</g>
</g>
</svg>
