<?xml version="1.0" encoding="UTF-8"?>
<svg version="1.1" xmlns="http://www.w3.org/2000/svg" xmlns:xlink="http://www.w3.org/1999/xlink" x="0px" y="0px"
	 viewBox="0 0 72.567 80.267" width="2.56cm" height="2.83cm" xml:space="preserve">
<g id="silkscreen">

	<g class="PCB" stroke="none" stroke-width="0" fill="#000000">
		<path class="board-outline" d="M71.559,0.5c0.322,0,0.499,0.177,0.499,0.499v77.21c0,0.826-0.672,1.498-1.498,1.498H7.634c-0.826,0-1.498-0.672-1.498-1.498v-17.18c0-0.406-0.221-0.769-0.591-0.953l-4.979-2.291c-0.021-0.011-0.023-0.04-0.023-0.053V0.998C0.542,0.677,0.719,0.5,1.04,0.5H71.559 M71.559,0H1.04c-0.6,0-0.998,0.4-0.998,0.998v56.734c0,0.2,0.1,0.4,0.3,0.5l4.994,2.298c0.2,0.1,0.3,0.3,0.3,0.5v17.18c0,1.098,0.898,1.998,1.998,1.998H70.56c1.098,0,1.998-0.898,1.998-1.998V0.998C72.558,0.4,72.158,0,71.559,0L71.559,0z"/>
	</g>

	<g font-family="'Droid Sans'" font-size="4" text-anchor="middle" fill="#000000" stroke="none" stroke-width="0" stroke-linecap="round">
		<text x="36.2835" y="27">WeMos D1 mini</text>
		<text x="36.2835" y="34">Protoboard Shield</text>
	</g>

	<g transform="translate(0.2835 0)">
		<g class="labels" fill="none" stroke="#000000" stroke-width="0.4" stroke-linecap="round" stroke-linejoin="round" stroke-miterlimit="10">
			<g class="left-labels" transform="translate(8.5 0.3)">
				<g class="RST">
					<path class="left" d="M0,4.6V2.4 M0,2.4h1.165 M1.165,2.4l0.324,0.324 M1.488,2.724V3.5 M1.488,3.5L1.165,3.888 M1.165,3.888H0 M0.776,3.888L1.488,4.6 M3.818,2.724L3.429,2.4 M3.429,2.4H2.653 M2.653,2.4L2.265,2.724 M2.265,2.724v0.388 M2.265,3.112L2.653,3.5 M2.653,3.5h0.776 M3.429,3.5l0.388,0.388 M3.818,3.888v0.324 M3.818,4.212L3.429,4.6 M3.429,4.6H2.653 M2.653,4.6L2.265,4.212 M5.306,4.6V2.4 M4.594,2.4h1.488"/>
				</g>
				<g class="A0" transform="translate(0 7.2)">
					<path class="left" d="M0,4.6V3.112 M0,3.112L0.776,2.4 M0.776,2.4l0.776,0.712 M1.553,3.112V4.6 M0,3.5h1.553 M2.329,4.212V2.724 M2.329,2.724L2.718,2.4 M2.718,2.4h0.712 M3.429,2.4l0.388,0.324 M3.818,2.724v1.488 M3.818,4.212L3.429,4.6 M3.429,4.6H2.718 M2.718,4.6L2.329,4.212 M2.329,4.212l1.488-1.488"/>
				</g>
				<g class="D0" transform="translate(0 14.4)">
					<path class="left" d="M0,2.4v2.2 M0,4.6h1.165 M1.165,4.6l0.388-0.388 M1.553,4.212V2.724 M1.553,2.724L1.165,2.4 M1.165,2.4H0 M2.329,4.212V2.724 M2.329,2.724L2.718,2.4 M2.718,2.4h0.712 M3.429,2.4l0.388,0.324 M3.818,2.724v1.488 M3.818,4.212L3.429,4.6 M3.429,4.6H2.718 M2.718,4.6L2.329,4.212 M2.329,4.212l1.488-1.488"/>
				</g>
				<g class="D5" transform="translate(0 21.6)">
					<path class="left" d="M0,2.4v2.2 M0,4.6h1.165 M1.165,4.6l0.388-0.388 M1.553,4.212V2.724 M1.553,2.724L1.165,2.4 M1.165,2.4H0 M3.818,2.4H2.329 M2.329,2.4v1.1 M2.329,3.5l0.712-0.388 M3.041,3.112h0.388 M3.429,3.112L3.818,3.5 M3.818,3.5v0.712 M3.818,4.212L3.429,4.6 M3.429,4.6H2.653 M2.653,4.6L2.329,4.212"/>
				</g>
				<g class="D6" transform="translate(0 28.8)">
					<path class="left" d="M0,2.4v2.2 M0,4.6h1.165 M1.165,4.6l0.388-0.388 M1.553,4.212V2.724 M1.553,2.724L1.165,2.4 M1.165,2.4H0 M3.818,2.4L3.041,2.724 M3.041,2.724L2.329,3.5 M2.329,3.5v0.712 M2.653,4.6L2.329,4.212 M2.653,4.6h0.776 M3.429,4.6l0.388-0.388 M3.818,4.212V3.888 M3.818,3.888L3.429,3.5 M3.429,3.5h-1.1"/>
				</g>
				<g class="D7" transform="translate(0 36)">
					<path class="left" d="M0,2.4v2.2 M0,4.6h1.165 M1.165,4.6l0.388-0.388 M1.553,4.212V2.724 M1.553,2.724L1.165,2.4 M1.165,2.4H0 M2.329,2.4h1.488 M3.818,2.4v0.324 M3.818,2.724L2.329,4.212 M2.329,4.212V4.6"/>
				</g>
				<g class="D8" transform="translate(0 43.2)">
					<path class="left" d="M0,2.4v2.2 M0,4.6h1.165 M1.165,4.6l0.324-0.388 M1.488,4.212V2.724 M1.488,2.724L1.165,2.4 M1.165,2.4H0 M2.329,2.724L2.653,2.4 M2.653,2.4h0.776 M3.429,2.4l0.388,0.324 M3.818,2.724v0.388 M3.818,3.112L3.429,3.5 M3.429,3.5l0.388,0.388 M3.818,3.888v0.324 M3.818,4.212L3.429,4.6 M3.429,4.6H2.653 M2.653,4.6L2.329,4.212 M2.329,4.212V3.888 M2.329,3.888L2.653,3.5 M2.653,3.5L2.329,3.112 M2.329,3.112V2.724 M2.653,3.5h0.776"/>
				</g>
				<g class="3V3" transform="translate(0 50.4)">
					<path class="left" d="M0,2.724L0.388,2.4 M0.388,2.4h0.776 M1.165,2.4l0.324,0.324 M1.488,2.724v0.388 M1.488,3.112L1.165,3.5 M1.165,3.5H0.776 M1.165,3.5l0.324,0.388 M1.488,3.888v0.324 M1.488,4.212L1.165,4.6 M1.165,4.6H0.388 M0.388,4.6L0,4.212 M2.329,2.4v1.488 M2.329,3.888L3.041,4.6 M3.041,4.6l0.776-0.712 M3.818,3.888V2.4 M4.594,2.724L4.982,2.4 M4.982,2.4h0.712 M5.694,2.4l0.388,0.324 M6.082,2.724v0.388 M6.082,3.112L5.694,3.5 M5.694,3.5H5.371 M5.694,3.5l0.388,0.388 M6.082,3.888v0.324 M6.082,4.212L5.694,4.6 M5.694,4.6H4.982 M4.594,4.212L4.982,4.6"/>
				</g>
			</g>
			<g class="right-labels" transform="translate(56.7 0.3)">
				<g class="TX">
					<path class="right" d="M3.959,4.6V2.4 M3.247,2.4h1.488 M7,4.6L5.512,2.4 M7,2.4L5.512,4.6"/>
				</g>
				<g class="RX" transform="translate(0 7.2)">
					<path class="right" d="M3.247,4.6V2.4 M3.247,2.4h1.1 M4.347,2.4l0.388,0.324 M4.735,2.724V3.5 M4.735,3.5L4.347,3.888 M4.347,3.888h-1.1 M3.959,3.888L4.735,4.6 M7,4.6L5.512,2.4 M7,2.4L5.512,4.6"/>
				</g>
				<g class="D1" transform="translate(0 14.4)">
					<path class="right" d="M3.247,2.4v2.2 M3.247,4.6h1.1 M4.347,4.6l0.388-0.388 M4.735,4.212V2.724 M4.735,2.724L4.347,2.4 M4.347,2.4h-1.1 M5.512,3.112L6.224,2.4 M6.224,2.4v2.2 M5.512,4.6H7"/>
				</g>
				<g class="D2" transform="translate(0 21.6)">
					<path class="right" d="M3.247,2.4v2.2 M3.247,4.6h1.1 M4.347,4.6l0.388-0.388 M4.735,4.212V2.724 M4.735,2.724L4.347,2.4 M4.347,2.4h-1.1 M7,4.6H5.512 M5.512,4.6L7,3.112 M7,3.112V2.724 M7,2.724L6.612,2.4 M6.612,2.4H5.9 M5.9,2.4L5.512,2.724"/>
				</g>
				<g class="D3" transform="translate(0 28.8)">
					<path class="right" d="M3.182,2.4v2.2 M3.182,4.6h1.165 M4.347,4.6l0.388-0.388 M4.735,4.212V2.724 M4.735,2.724L4.347,2.4 M4.347,2.4H3.182 M5.512,2.724L5.9,2.4 M5.9,2.4h0.712 M6.612,2.4L7,2.724 M7,2.724v0.388 M7,3.112L6.612,3.5 M6.612,3.5H6.224 M6.612,3.5L7,3.888 M7,3.888v0.324 M7,4.212L6.612,4.6 M6.612,4.6H5.9 M5.9,4.6L5.512,4.212"/>
				</g>
				<g class="D4" transform="translate(0 36)">
					<path class="right" d="M3.182,2.4v2.2 M3.182,4.6h1.165 M4.347,4.6l0.388-0.388 M4.735,4.212V2.724 M4.735,2.724L4.347,2.4 M4.347,2.4H3.182 M6.612,4.6V2.4 M6.612,2.4l-1.1,1.1 M5.512,3.5H7"/>
				</g>
				<g class="GND" transform="translate(0 43.2)">
					<path class="right" d="M2.018,2.4l0.388,0.324 M2.018,2.4H1.306 M0.918,2.724L1.306,2.4 M0.918,2.724v1.488 M1.306,4.6L0.918,4.212 M1.306,4.6h0.712 M2.018,4.6l0.388-0.388 M2.406,4.212V3.5 M2.406,3.5H1.694 M3.182,4.6V2.4 M3.182,2.4l1.553,2.2 M4.735,4.6V2.4 M5.512,2.4v2.2 M5.512,4.6h1.1 M6.612,4.6L7,4.212 M7,4.212V2.724 M7,2.724L6.612,2.4 M6.612,2.4h-1.1"/>
				</g>
				<g class="5V" transform="translate(0 50.4)">
					<path class="right" d="M4.735,2.4H3.182 M3.182,2.4v1.1 M3.182,3.5l0.776-0.388 M3.959,3.112h0.388 M4.347,3.112L4.735,3.5 M4.735,3.5v0.712 M4.735,4.212L4.347,4.6 M4.347,4.6H3.571 M3.571,4.6L3.182,4.212 M5.512,2.4v1.488 M5.512,3.888L6.224,4.6 M6.224,4.6L7,3.888 M7,3.888V2.4"/>
				</g>
			</g>
		</g>

		<g class="bottom-right-dot" stroke-width="0" transform="translate(67.8 60.7)">
			<circle cx="0.8" cy="0.8" r="1.6" fill="#000000"/>
		</g>
	</g>
</g>

<g id="copper1">
	<g id="copper0">
		<g transform="translate(0.2835 0)">
			<g class="pads">
				<g class="pads-left" transform="translate(0 0.322)">
					<circle id="connector0pad" class="pad-rst" cx="3.6" cy="3.6"  r="2.05" fill="none" stroke="#F7BD13" stroke-width="1.5"/>
					<circle id="connector1pad" class="pad-a0"  cx="3.6" cy="10.8" r="2.05" fill="none" stroke="#F7BD13" stroke-width="1.5"/>
					<circle id="connector2pad" class="pad-d0"  cx="3.6" cy="18"   r="2.05" fill="none" stroke="#F7BD13" stroke-width="1.5"/>
					<circle id="connector3pad" class="pad-d5"  cx="3.6" cy="25.2" r="2.05" fill="none" stroke="#F7BD13" stroke-width="1.5"/>
					<circle id="connector4pad" class="pad-d6"  cx="3.6" cy="32.4" r="2.05" fill="none" stroke="#F7BD13" stroke-width="1.5"/>
					<circle id="connector5pad" class="pad-d7"  cx="3.6" cy="39.6" r="2.05" fill="none" stroke="#F7BD13" stroke-width="1.5"/>
					<circle id="connector6pad" class="pad-d8"  cx="3.6" cy="46.8" r="2.05" fill="none" stroke="#F7BD13" stroke-width="1.5"/>
					<circle id="connector7pad" class="pad-3v3" cx="3.6" cy="54"   r="2.05" fill="none" stroke="#F7BD13" stroke-width="1.5"/>
				</g>
				<g class="pads-right" transform="translate(64.8 0.322)">
					<circle id="connector8pad"  class="pad-5v" cx="3.6" cy="54"   r="2.05" fill="none" stroke="#F7BD13" stroke-width="1.5"/>
					<circle id="connector9pad"  class="pad-g"  cx="3.6" cy="46.8" r="2.05" fill="none" stroke="#F7BD13" stroke-width="1.5"/>
					<circle id="connector10pad" class="pad-d4" cx="3.6" cy="39.6" r="2.05" fill="none" stroke="#F7BD13" stroke-width="1.5"/>
					<circle id="connector11pad" class="pad-d3" cx="3.6" cy="32.4" r="2.05" fill="none" stroke="#F7BD13" stroke-width="1.5"/>
					<circle id="connector12pad" class="pad-d2" cx="3.6" cy="25.2" r="2.05" fill="none" stroke="#F7BD13" stroke-width="1.5"/>
					<circle id="connector13pad" class="pad-d1" cx="3.6" cy="18"   r="2.05" fill="none" stroke="#F7BD13" stroke-width="1.5"/>
					<circle id="connector14pad" class="pad-rx" cx="3.6" cy="10.8" r="2.05" fill="none" stroke="#F7BD13" stroke-width="1.5"/>
					<circle id="connector15pad" class="pad-tx" cx="3.6" cy="3.6"  r="2.05" fill="none" stroke="#F7BD13" stroke-width="1.5"/>
				</g>
			</g>
			<g class="pads-proto">
				<g class="pads-x1" transform="translate(7.2 0.322)">
					<circle id="connector16pad" class="pad-x1-y10" cx="3.6" cy="68.4" r="0.00000000001" fill="none" stroke="#9A916C" stroke-width="0"/>
					<circle id="connector17pad" class="pad-x1-y11" cx="3.6" cy="75.6" r="0.00000000001" fill="none" stroke="#9A916C" stroke-width="0"/>
				</g>
				<g class="pads-x2" transform="translate(14.4 0.322)">
					<circle id="connector18pad" class="pad-x2-y1"  cx="3.6" cy="3.6"  r="0.00000000001" fill="none" stroke="#9A916C" stroke-width="0"/>
					<circle id="connector19pad" class="pad-x2-y2"  cx="3.6" cy="10.8" r="0.00000000001" fill="none" stroke="#9A916C" stroke-width="0"/>
					<circle id="connector20pad" class="pad-x2-y3"  cx="3.6" cy="18"   r="0.00000000001" fill="none" stroke="#9A916C" stroke-width="0"/>
					<circle id="connector21pad" class="pad-x2-y4"  cx="3.6" cy="25.2" r="0.00000000001" fill="none" stroke="#9A916C" stroke-width="0"/>
					<circle id="connector22pad" class="pad-x2-y5"  cx="3.6" cy="32.4" r="0.00000000001" fill="none" stroke="#9A916C" stroke-width="0"/>
					<circle id="connector23pad" class="pad-x2-y6"  cx="3.6" cy="39.6" r="0.00000000001" fill="none" stroke="#9A916C" stroke-width="0"/>
					<circle id="connector24pad" class="pad-x2-y7"  cx="3.6" cy="46.8" r="0.00000000001" fill="none" stroke="#9A916C" stroke-width="0"/>
					<circle id="connector25pad" class="pad-x2-y8"  cx="3.6" cy="54"   r="0.00000000001" fill="none" stroke="#9A916C" stroke-width="0"/>
					<circle id="connector26pad" class="pad-x2-y9"  cx="3.6" cy="61.2" r="0.00000000001" fill="none" stroke="#9A916C" stroke-width="0"/>
					<circle id="connector27pad" class="pad-x2-y10" cx="3.6" cy="68.4" r="0.00000000001" fill="none" stroke="#9A916C" stroke-width="0"/>
					<circle id="connector28pad" class="pad-x2-y11" cx="3.6" cy="75.6" r="0.00000000001" fill="none" stroke="#9A916C" stroke-width="0"/>
				</g>
				<g class="pads-x3" transform="translate(21.6 0.322)">
					<circle id="connector29pad" class="pad-x3-y1"  cx="3.6" cy="3.6"  r="0.00000000001" fill="none" stroke="#9A916C" stroke-width="0"/>
					<circle id="connector30pad" class="pad-x3-y2"  cx="3.6" cy="10.8" r="0.00000000001" fill="none" stroke="#9A916C" stroke-width="0"/>
					<circle id="connector31pad" class="pad-x3-y3"  cx="3.6" cy="18"   r="0.00000000001" fill="none" stroke="#9A916C" stroke-width="0"/>
					<circle id="connector32pad" class="pad-x3-y4"  cx="3.6" cy="25.2" r="0.00000000001" fill="none" stroke="#9A916C" stroke-width="0"/>
					<circle id="connector33pad" class="pad-x3-y5"  cx="3.6" cy="32.4" r="0.00000000001" fill="none" stroke="#9A916C" stroke-width="0"/>
					<circle id="connector34pad" class="pad-x3-y6"  cx="3.6" cy="39.6" r="0.00000000001" fill="none" stroke="#9A916C" stroke-width="0"/>
					<circle id="connector35pad" class="pad-x3-y7"  cx="3.6" cy="46.8" r="0.00000000001" fill="none" stroke="#9A916C" stroke-width="0"/>
					<circle id="connector36pad" class="pad-x3-y8"  cx="3.6" cy="54"   r="0.00000000001" fill="none" stroke="#9A916C" stroke-width="0"/>
					<circle id="connector37pad" class="pad-x3-y9"  cx="3.6" cy="61.2" r="0.00000000001" fill="none" stroke="#9A916C" stroke-width="0"/>
					<circle id="connector38pad" class="pad-x3-y10" cx="3.6" cy="68.4" r="0.00000000001" fill="none" stroke="#9A916C" stroke-width="0"/>
					<circle id="connector39pad" class="pad-x3-y11" cx="3.6" cy="75.6" r="0.00000000001" fill="none" stroke="#9A916C" stroke-width="0"/>
				</g>
				<g class="pads-x4" transform="translate(28.8 0.322)">
					<circle id="connector40pad" class="pad-x4-y1"  cx="3.6" cy="3.6"  r="0.00000000001" fill="none" stroke="#9A916C" stroke-width="0"/>
					<circle id="connector41pad" class="pad-x4-y2"  cx="3.6" cy="10.8" r="0.00000000001" fill="none" stroke="#9A916C" stroke-width="0"/>
					<circle id="connector42pad" class="pad-x4-y3"  cx="3.6" cy="18"   r="0.00000000001" fill="none" stroke="#9A916C" stroke-width="0"/>
					<circle id="connector43pad" class="pad-x4-y4"  cx="3.6" cy="25.2" r="0.00000000001" fill="none" stroke="#9A916C" stroke-width="0"/>
					<circle id="connector44pad" class="pad-x4-y5"  cx="3.6" cy="32.4" r="0.00000000001" fill="none" stroke="#9A916C" stroke-width="0"/>
					<circle id="connector45pad" class="pad-x4-y6"  cx="3.6" cy="39.6" r="0.00000000001" fill="none" stroke="#9A916C" stroke-width="0"/>
					<circle id="connector46pad" class="pad-x4-y7"  cx="3.6" cy="46.8" r="0.00000000001" fill="none" stroke="#9A916C" stroke-width="0"/>
					<circle id="connector47pad" class="pad-x4-y8"  cx="3.6" cy="54"   r="0.00000000001" fill="none" stroke="#9A916C" stroke-width="0"/>
					<circle id="connector48pad" class="pad-x4-y9"  cx="3.6" cy="61.2" r="0.00000000001" fill="none" stroke="#9A916C" stroke-width="0"/>
					<circle id="connector49pad" class="pad-x4-y10" cx="3.6" cy="68.4" r="0.00000000001" fill="none" stroke="#9A916C" stroke-width="0"/>
					<circle id="connector50pad" class="pad-x4-y11" cx="3.6" cy="75.6" r="0.00000000001" fill="none" stroke="#9A916C" stroke-width="0"/>
				</g>
				<g class="pads-x5" transform="translate(36 0.322)">
					<circle id="connector51pad" class="pad-x5-y1"  cx="3.6" cy="3.6"  r="0.00000000001" fill="none" stroke="#9A916C" stroke-width="0"/>
					<circle id="connector52pad" class="pad-x5-y2"  cx="3.6" cy="10.8" r="0.00000000001" fill="none" stroke="#9A916C" stroke-width="0"/>
					<circle id="connector53pad" class="pad-x5-y3"  cx="3.6" cy="18"   r="0.00000000001" fill="none" stroke="#9A916C" stroke-width="0"/>
					<circle id="connector54pad" class="pad-x5-y4"  cx="3.6" cy="25.2" r="0.00000000001" fill="none" stroke="#9A916C" stroke-width="0"/>
					<circle id="connector55pad" class="pad-x5-y5"  cx="3.6" cy="32.4" r="0.00000000001" fill="none" stroke="#9A916C" stroke-width="0"/>
					<circle id="connector56pad" class="pad-x5-y6"  cx="3.6" cy="39.6" r="0.00000000001" fill="none" stroke="#9A916C" stroke-width="0"/>
					<circle id="connector57pad" class="pad-x5-y7"  cx="3.6" cy="46.8" r="0.00000000001" fill="none" stroke="#9A916C" stroke-width="0"/>
					<circle id="connector58pad" class="pad-x5-y8"  cx="3.6" cy="54"   r="0.00000000001" fill="none" stroke="#9A916C" stroke-width="0"/>
					<circle id="connector59pad" class="pad-x5-y9"  cx="3.6" cy="61.2" r="0.00000000001" fill="none" stroke="#9A916C" stroke-width="0"/>
					<circle id="connector60pad" class="pad-x5-y10" cx="3.6" cy="68.4" r="0.00000000001" fill="none" stroke="#9A916C" stroke-width="0"/>
					<circle id="connector61pad" class="pad-x5-y11" cx="3.6" cy="75.6" r="0.00000000001" fill="none" stroke="#9A916C" stroke-width="0"/>
				</g>
				<g class="pads-x6" transform="translate(43.2 0.322)">
					<circle id="connector62pad" class="pad-x6-y1"  cx="3.6" cy="3.6"  r="0.00000000001" fill="none" stroke="#9A916C" stroke-width="0"/>
					<circle id="connector63pad" class="pad-x6-y2"  cx="3.6" cy="10.8" r="0.00000000001" fill="none" stroke="#9A916C" stroke-width="0"/>
					<circle id="connector64pad" class="pad-x6-y3"  cx="3.6" cy="18"   r="0.00000000001" fill="none" stroke="#9A916C" stroke-width="0"/>
					<circle id="connector65pad" class="pad-x6-y4"  cx="3.6" cy="25.2" r="0.00000000001" fill="none" stroke="#9A916C" stroke-width="0"/>
					<circle id="connector66pad" class="pad-x6-y5"  cx="3.6" cy="32.4" r="0.00000000001" fill="none" stroke="#9A916C" stroke-width="0"/>
					<circle id="connector67pad" class="pad-x6-y6"  cx="3.6" cy="39.6" r="0.00000000001" fill="none" stroke="#9A916C" stroke-width="0"/>
					<circle id="connector68pad" class="pad-x6-y7"  cx="3.6" cy="46.8" r="0.00000000001" fill="none" stroke="#9A916C" stroke-width="0"/>
					<circle id="connector69pad" class="pad-x6-y8"  cx="3.6" cy="54"   r="0.00000000001" fill="none" stroke="#9A916C" stroke-width="0"/>
					<circle id="connector70pad" class="pad-x6-y9"  cx="3.6" cy="61.2" r="0.00000000001" fill="none" stroke="#9A916C" stroke-width="0"/>
					<circle id="connector71pad" class="pad-x6-y10" cx="3.6" cy="68.4" r="0.00000000001" fill="none" stroke="#9A916C" stroke-width="0"/>
					<circle id="connector72pad" class="pad-x6-y11" cx="3.6" cy="75.6" r="0.00000000001" fill="none" stroke="#9A916C" stroke-width="0"/>
				</g>
				<g class="pads-x7" transform="translate(50.4 0.322)">
					<circle id="connector73pad" class="pad-x7-y1"  cx="3.6" cy="3.6"  r="0.00000000001" fill="none" stroke="#9A916C" stroke-width="0"/>
					<circle id="connector74pad" class="pad-x7-y2"  cx="3.6" cy="10.8" r="0.00000000001" fill="none" stroke="#9A916C" stroke-width="0"/>
					<circle id="connector75pad" class="pad-x7-y3"  cx="3.6" cy="18"   r="0.00000000001" fill="none" stroke="#9A916C" stroke-width="0"/>
					<circle id="connector76pad" class="pad-x7-y4"  cx="3.6" cy="25.2" r="0.00000000001" fill="none" stroke="#9A916C" stroke-width="0"/>
					<circle id="connector77pad" class="pad-x7-y5"  cx="3.6" cy="32.4" r="0.00000000001" fill="none" stroke="#9A916C" stroke-width="0"/>
					<circle id="connector78pad" class="pad-x7-y6"  cx="3.6" cy="39.6" r="0.00000000001" fill="none" stroke="#9A916C" stroke-width="0"/>
					<circle id="connector79pad" class="pad-x7-y7"  cx="3.6" cy="46.8" r="0.00000000001" fill="none" stroke="#9A916C" stroke-width="0"/>
					<circle id="connector80pad" class="pad-x7-y8"  cx="3.6" cy="54"   r="0.00000000001" fill="none" stroke="#9A916C" stroke-width="0"/>
					<circle id="connector81pad" class="pad-x7-y9"  cx="3.6" cy="61.2" r="0.00000000001" fill="none" stroke="#9A916C" stroke-width="0"/>
					<circle id="connector82pad" class="pad-x7-y10" cx="3.6" cy="68.4" r="0.00000000001" fill="none" stroke="#9A916C" stroke-width="0"/>
					<circle id="connector83pad" class="pad-x7-y11" cx="3.6" cy="75.6" r="0.00000000001" fill="none" stroke="#9A916C" stroke-width="0"/>
				</g>
				<g class="pads-x8" transform="translate(57.6 0.322)">
					<circle id="connector84pad" class="pad-x8-y9"  cx="3.6" cy="61.2" r="0.00000000001" fill="none" stroke="#9A916C" stroke-width="0"/>
					<circle id="connector85pad" class="pad-x8-y10" cx="3.6" cy="68.4" r="0.00000000001" fill="none" stroke="#9A916C" stroke-width="0"/>
					<circle id="connector86pad" class="pad-x8-y11" cx="3.6" cy="75.6" r="0.00000000001" fill="none" stroke="#9A916C" stroke-width="0"/>
				</g>
				<g class="pads-x9" transform="translate(64.8 0.322)">
					<circle id="connector87pad" class="pad-x9-y10" cx="3.6" cy="68.4" r="0.00000000001" fill="none" stroke="#9A916C" stroke-width="0"/>
					<circle id="connector88pad" class="pad-x9-y11" cx="3.6" cy="75.6" r="0.00000000001" fill="none" stroke="#9A916C" stroke-width="0"/>
				</g>
			</g>
		</g>
	</g>
</g>
</svg>
