<?xml version='1.0' encoding='UTF-8' standalone='no'?>
<!-- Created with Inkscape (http://www.inkscape.org/) -->
<svg xmlns="http://www.w3.org/2000/svg"  width="123.41624" xml:space="preserve" xmlns:xml="http://www.w3.org/XML/1998/namespace" version="1.2" height="69.024323" viewBox="0 0 123.41623 69.024321" id="0">
 <desc   id="0.0" oldid="0.0">
  <referenceFile   id="0.0.0" oldid="0.0.0">WOS_PCB.svg</referenceFile>
 </desc>
 <metadata   id="0.1" oldid="0.1">
  <rdf:RDF xmlns:rdf="http://www.w3.org/1999/02/22-rdf-syntax-ns#"  id="0.1.0" oldid="0.1.0">
   <cc:Work xmlns:cc="http://creativecommons.org/ns#"  rdf:about="" xmlns:rdf="http://www.w3.org/1999/02/22-rdf-syntax-ns#" id="0.1.0.0" oldid="0.1.0.0">
    <dc:format xmlns:dc="http://purl.org/dc/elements/1.1/"  id="0.1.0.0.0" oldid="0.1.0.0.0">image/svg+xml</dc:format>
    <dc:type xmlns:dc="http://purl.org/dc/elements/1.1/"  id="0.1.0.0.1" oldid="0.1.0.0.1" rdf:resource="http://purl.org/dc/dcmitype/StillImage" xmlns:rdf="http://www.w3.org/1999/02/22-rdf-syntax-ns#"/>
    <dc:title xmlns:dc="http://purl.org/dc/elements/1.1/"  id="0.1.0.0.2" oldid="0.1.0.0.2"/>
   </cc:Work>
  </rdf:RDF>
 </metadata>
 <defs   id="0.2" oldid="0.2"/>
 <g   style="display:inline" id="layer2">
  <g   id="silkscreen">
   <rect  width="123.14307" x="-5.7687239e-006" y="-2.1026193e-005" stroke-opacity="1" fill="none"  height="69.024323" stroke="#ffffff" style="stroke-miterlimit:4;stroke-dasharray:none" id="rect8880" stroke-width="0.89999998"/>
   <g  xml:space="preserve" xmlns:xml="http://www.w3.org/XML/1998/namespace" fill="#000000"  stroke="none" style="font-style:normal;font-weight:normal;line-height:125%;letter-spacing:0px;word-spacing:0px;font-family:Droid Sans" fill-opacity="1" id="text10344" font-size="5.05812">
    <text  x="31.40383" y="6.2258697"  style="font-style:normal;font-variant:normal;font-weight:normal;font-stretch:normal;fill:#ffffff;fill-opacity:1;font-family:Droid Sans;-inkscape-font-specification:Droid Sans" id="tspan10346">Wake-on-Shake</text>
   </g>
   <path  stroke-opacity="1" fill="none"  stroke="#ffffff" style="stroke-miterlimit:4;stroke-dashoffset:0" id="path10348" stroke-width="0.89999998" d="m 12.560853,15.075259 -2.9326196,0.0149 -2.0842001,-2.06316 -0.0149,-2.93262 2.0631701,-2.0842001 2.9326096,-0.0149 2.12125,2.0811201 2.10022,-2.0662501 2.932619,-0.0149 2.0842,2.0631601 0.0149,2.93262 -2.06316,2.0842 -2.932619,0.0149 -2.12126,-2.08112 z"/>
   <path  stroke-opacity="1" fill="none"  stroke="#ffffff" style="stroke-miterlimit:4;stroke-dashoffset:0" id="path10348-8-8" stroke-width="0.7329815" d="m 8.9943891,25.890921 -2.9326183,0.0149 -2.0842004,-2.063164 -0.014904,-2.932617 2.0631639,-2.0842 2.9326183,-0.0149 2.0842004,2.063164 0.0149,2.932617 z"/>
   <path  stroke-opacity="1" fill="none"  stroke="#ffffff" style="stroke-miterlimit:4;stroke-dashoffset:0" id="path10348-8-2" stroke-width="0.7329815" d="m 16.389859,25.890921 -2.932618,0.0149 -2.084201,-2.063164 -0.0149,-2.932617 2.063164,-2.0842 2.932618,-0.0149 2.0842,2.063164 0.0149,2.932617 z"/>
   <path  stroke-opacity="1" fill="none"  stroke="#ffffff" style="stroke-miterlimit:4;stroke-dashoffset:0" id="path10348-8-9" stroke-width="0.7329815" d="m 23.670658,25.890921 -2.932618,0.0149 -2.084201,-2.063164 -0.0149,-2.932617 2.063164,-2.0842 2.932618,-0.0149 2.084201,2.063164 0.0149,2.932617 z"/>
   <path  stroke-opacity="1" fill="none"  stroke="#ffffff" style="stroke-miterlimit:4;stroke-dashoffset:0" id="path10348-8-1" stroke-width="0.7329815" d="m 23.498668,33.114401 -2.932618,0.0149 -2.084201,-2.063164 -0.0149,-2.932618 2.063164,-2.0842 2.932618,-0.0149 2.084201,2.063164 0.0149,2.932618 z"/>
   <path  stroke-opacity="1" fill="none"  stroke="#ffffff" style="stroke-miterlimit:4;stroke-dashoffset:0" id="path10348-8-3" stroke-width="0.7329815" d="m 16.217859,33.114401 -2.932618,0.0149 -2.084201,-2.063164 -0.0149,-2.932618 2.063164,-2.0842 2.932618,-0.0149 2.084201,2.063164 0.0149,2.932618 z"/>
   <path  stroke-opacity="1" fill="none"  stroke="#ffffff" style="stroke-miterlimit:4;stroke-dashoffset:0" id="path10348-8-5" stroke-width="0.7329815" d="m 8.8223991,33.114401 -2.9326183,0.0149 -2.0842004,-2.063164 -0.014904,-2.932618 2.0631639,-2.0842 2.9326183,-0.0149 2.0842004,2.063164 0.0149,2.932618 z"/>
   <path  stroke-opacity="1" fill="none"  stroke="#ffffff" style="stroke-miterlimit:4;stroke-dashoffset:0" id="path10348-8-7" stroke-width="0.89999998" d="m 113.56281,7.7748889 -2.93262,0.0149 -2.21328,-2.0811399 -2.19224,2.0662399 -2.93262,0.0149 -2.09862,-2.0811399 -2.077589,2.0662399 -2.93262,0.0149 -2.18461,-2.0811399 -2.16357,2.0662399 -2.93262,0.0149 -2.0842,-2.0631699 -0.0149,-2.93262 2.06316,-2.08419993 2.93262,-0.0149 2.18461,2.08113993 2.16357,-2.06622993 2.93262,-0.0149 2.098629,2.08112993 2.07758,-2.06622993 2.93262,-0.0149 2.21328,2.08112993 2.19224,-2.06622993 2.93262,-0.0149 2.15594,2.08112993 2.13491,-2.06622993 2.93262,-0.0149 2.0842,2.06315993 0.0149,2.93262 -2.06316,2.0841999 -2.93262,0.0149 -2.15595,-2.0811399 z"/>
   <path  stroke-opacity="1" fill="none"  stroke="#ffffff" style="stroke-miterlimit:4;stroke-dashoffset:0" id="path10348-8-6-1" stroke-width="0.89999998" d="m 115.88412,30.894138 -0.0149,-2.93262 2.06316,-2.0842 2.93262,-0.0149 2.0842,2.06316 0.0149,2.93262 -2.08113,2.09862 2.06623,2.07758 0.0149,2.93262 -2.08113,2.15595 2.06623,2.13491 0.0149,2.93261 -2.06316,2.08421 -2.93262,0.0149 -2.0842,-2.06316 -0.0149,-2.93262 2.08113,-2.15595 -2.06623,-2.13491 -0.0149,-2.93262 2.08113,-2.09862 z"/>
   <path  stroke-opacity="1" fill="none"  stroke="#ffffff" style="stroke-linecap:butt;stroke-linejoin:miter;" id="path10594" stroke-width="1" d="m 99.294131,68.400207 0,-7.950759 -46.551289,0 0,7.950759"/>
   <g  xml:space="preserve" xmlns:xml="http://www.w3.org/XML/1998/namespace" fill="#000000"  stroke="none" style="font-style:normal;font-weight:normal;line-height:125%;letter-spacing:0px;word-spacing:0px;font-family:Droid Sans" fill-opacity="1" id="text10596" transform="matrix(0,-1,1,0,0,0)" font-size="8">
    <text  x="-17.335278" y="6.255146"  style="font-size:6px;font-style:normal;font-variant:normal;font-weight:normal;font-stretch:normal;fill:#ffffff;font-family:Droid Sans;-inkscape-font-specification:Droid Sans" id="tspan10598">GND</text>
   </g>
   <g  xml:space="preserve" xmlns:xml="http://www.w3.org/XML/1998/namespace" fill="#000000"  stroke="none" style="font-style:normal;font-weight:normal;line-height:125%;letter-spacing:0px;word-spacing:0px;font-family:Droid Sans" fill-opacity="1" id="text10596-2" transform="matrix(0,-1,1,0,0,0)" font-size="8">
    <text  x="-17.603588" y="27.672064"  style="font-size:6px;font-style:normal;font-variant:normal;font-weight:normal;font-stretch:normal;fill:#ffffff;font-family:Droid Sans;-inkscape-font-specification:Droid Sans" id="tspan10598-0">VIN</text>
   </g>
   <g  xml:space="preserve" xmlns:xml="http://www.w3.org/XML/1998/namespace" fill="#000000"  stroke="none" style="font-style:normal;font-weight:normal;line-height:125%;letter-spacing:0px;word-spacing:0px;font-family:Droid Sans" fill-opacity="1" id="text10596-2-9" font-size="8">
    <text  x="97.961121" y="31.591227"  style="font-size:6px;font-style:normal;font-variant:normal;font-weight:normal;font-stretch:normal;fill:#ffffff;font-family:Droid Sans;-inkscape-font-specification:Droid Sans" id="tspan10598-0-7">WAKE</text>
   </g>
   <g  xml:space="preserve" xmlns:xml="http://www.w3.org/XML/1998/namespace" fill="#000000"  stroke="none" style="font-style:normal;font-weight:normal;line-height:125%;letter-spacing:0px;word-spacing:0px;font-family:Droid Sans" fill-opacity="1" id="text10596-2-9-3" font-size="8">
    <text  x="97.749023" y="38.888741"  style="font-size:6px;font-style:normal;font-variant:normal;font-weight:normal;font-stretch:normal;fill:#ffffff;font-family:Droid Sans;-inkscape-font-specification:Droid Sans" id="tspan10598-0-7-7">VOUT</text>
   </g>
   <g  xml:space="preserve" xmlns:xml="http://www.w3.org/XML/1998/namespace" fill="#000000"  stroke="none" style="font-style:normal;font-weight:normal;line-height:125%;letter-spacing:0px;word-spacing:0px;font-family:Droid Sans" fill-opacity="1" id="text10596-2-9-3-2" font-size="8">
    <text  x="97.911163" y="46.185555"  style="font-size:6px;font-style:normal;font-variant:normal;font-weight:normal;font-stretch:normal;fill:#ffffff;font-family:Droid Sans;-inkscape-font-specification:Droid Sans" id="tspan10598-0-7-7-6"> GND</text>
   </g>
   <g  xml:space="preserve" xmlns:xml="http://www.w3.org/XML/1998/namespace" fill="#000000"  stroke="none" style="font-style:normal;font-weight:normal;line-height:125%;letter-spacing:0px;word-spacing:0px;font-family:Droid Sans" fill-opacity="1" id="text10596-2-0" transform="matrix(0,-1,1,0,0,0)" font-size="8">
    <text  x="-17.261211" y="91.700134"  style="font-size:4px;font-style:normal;font-variant:normal;font-weight:normal;font-stretch:normal;fill:#ffffff;font-family:Droid Sans;-inkscape-font-specification:Droid Sans" id="tspan10598-0-1">PB3</text>
   </g>
   <g  xml:space="preserve" xmlns:xml="http://www.w3.org/XML/1998/namespace" fill="#000000"  stroke="none" style="font-style:normal;font-weight:normal;line-height:125%;letter-spacing:0px;word-spacing:0px;font-family:Droid Sans" fill-opacity="1" id="text10596-2-0-6" transform="matrix(0,-1,1,0,0,0)" font-size="8">
    <text  x="-17.261211" y="98.889191"  style="font-size:4px;font-style:normal;font-variant:normal;font-weight:normal;font-stretch:normal;fill:#ffffff;font-family:Droid Sans;-inkscape-font-specification:Droid Sans" id="tspan10598-0-1-5">PB2</text>
   </g>
   <g  xml:space="preserve" xmlns:xml="http://www.w3.org/XML/1998/namespace" fill="#000000"  stroke="none" style="font-style:normal;font-weight:normal;line-height:125%;letter-spacing:0px;word-spacing:0px;font-family:Droid Sans" fill-opacity="1" id="text10596-2-0-6-7" transform="matrix(0,-1,1,0,0,0)" font-size="8">
    <text  x="-17.261211" y="106.07822"  style="font-size:4px;font-style:normal;font-variant:normal;font-weight:normal;font-stretch:normal;fill:#ffffff;font-family:Droid Sans;-inkscape-font-specification:Droid Sans" id="tspan10598-0-1-5-5">PB1</text>
   </g>
   <g  xml:space="preserve" xmlns:xml="http://www.w3.org/XML/1998/namespace" fill="#000000"  stroke="none" style="font-style:normal;font-weight:normal;line-height:125%;letter-spacing:0px;word-spacing:0px;font-family:Droid Sans" fill-opacity="1" id="text10596-2-0-6-7-4" transform="matrix(0,-1,1,0,0,0)" font-size="8">
    <text  x="-17.261211" y="113.26723"  style="font-size:4px;font-style:normal;font-variant:normal;font-weight:normal;font-stretch:normal;fill:#ffffff;font-family:Droid Sans;-inkscape-font-specification:Droid Sans" id="tspan10598-0-1-5-5-1">PB0</text>
   </g>
   <g  xml:space="preserve" xmlns:xml="http://www.w3.org/XML/1998/namespace" fill="#000000"  stroke="none" style="font-style:normal;font-weight:normal;line-height:125%;letter-spacing:0px;word-spacing:0px;font-family:Droid Sans" fill-opacity="1" id="text10596-2-0-6-7-4-2" transform="matrix(0,-1,1,0,0,0)" font-size="8">
    <text  x="-17.261211" y="120.4563"  style="font-size:4px;font-style:normal;font-variant:normal;font-weight:normal;font-stretch:normal;fill:#ffffff;font-family:Droid Sans;-inkscape-font-specification:Droid Sans" id="tspan10598-0-1-5-5-1-0">PD6</text>
   </g>
   <g  xml:space="preserve" xmlns:xml="http://www.w3.org/XML/1998/namespace" fill="#000000"  stroke="none" style="font-style:normal;font-weight:normal;line-height:125%;letter-spacing:0px;word-spacing:0px;font-family:Droid Sans" fill-opacity="1" id="text10596-2-01" transform="matrix(0,-1,1,0,0,0)" font-size="8">
    <text  x="-68.400215" y="50.742828"  style="font-size:6px;font-style:normal;font-variant:normal;font-weight:normal;font-stretch:normal;fill:#ffffff;font-family:Droid Sans;-inkscape-font-specification:Droid Sans" id="tspan10598-0-4">GRN</text>
   </g>
   <g  xml:space="preserve" xmlns:xml="http://www.w3.org/XML/1998/namespace" fill="#000000"  stroke="none" style="font-style:normal;font-weight:normal;line-height:125%;letter-spacing:0px;word-spacing:0px;font-family:Droid Sans" fill-opacity="1" id="text10596-2-6" transform="matrix(0,-1,1,0,0,0)" font-size="8">
    <text  x="-68.176765" y="105.96944"  style="font-size:6px;font-style:normal;font-variant:normal;font-weight:normal;font-stretch:normal;fill:#ffffff;font-family:Droid Sans;-inkscape-font-specification:Droid Sans" id="tspan10598-0-0">BLK</text>
   </g>
  </g>
 </g>
 <g   style="display:inline" id="layer1">
  <g   id="copper0">
   <g   id="0.4.0.0" transform="matrix(1.25,0,0,1.25,5.6765811,-2.8572997)">
    <circle  fill="none" cx="4.3200002"  cy="11.52" stroke="#ffbf00" id="connector22pin" r="1.584" stroke-width="1.15199995" d="m 5.9040002,11.52 c 0,0.874819 -0.709181,1.584 -1.584,1.584 -0.8748191,0 -1.584,-0.709181 -1.584,-1.584 0,-0.874819 0.7091809,-1.5839995 1.584,-1.5839995 0.874819,0 1.584,0.7091805 1.584,1.5839995 z"/>
   </g>
   <g   id="0.4.0.1" transform="matrix(1.25,0,0,1.25,12.830673,-2.8572997)">
    <circle  fill="none" cx="4.3200002"  cy="11.52" stroke="#ffbf00" id="connector21pin" r="1.584" stroke-width="1.15199995" d="m 5.9040002,11.52 c 0,0.874819 -0.709181,1.584 -1.584,1.584 -0.8748191,0 -1.584,-0.709181 -1.584,-1.584 0,-0.874819 0.7091809,-1.5839995 1.584,-1.5839995 0.874819,0 1.584,0.7091805 1.584,1.5839995 z"/>
   </g>
   <g   id="0.4.0.2" transform="matrix(1.25,0,0,1.25,2.1101064,7.9583922)">
    <circle  fill="none" cx="4.3200002"  cy="11.52" stroke="#ffbf00" id="connector37pin" r="1.584" stroke-width="1.15199995" d="m 5.9040002,11.52 c 0,0.874819 -0.709181,1.584 -1.584,1.584 -0.8748191,0 -1.584,-0.709181 -1.584,-1.584 0,-0.874819 0.7091809,-1.5839995 1.584,-1.5839995 0.874819,0 1.584,0.7091805 1.584,1.5839995 z"/>
   </g>
   <g   id="0.4.0.3" transform="matrix(1.25,0,0,1.25,9.5055812,7.9583804)">
    <circle  fill="none" cx="4.3200002"  cy="11.52" stroke="#ffbf00" id="connector38pin" r="1.584" stroke-width="1.15199995" d="m 5.9040002,11.52 c 0,0.874819 -0.709181,1.584 -1.584,1.584 -0.8748191,0 -1.584,-0.709181 -1.584,-1.584 0,-0.874819 0.7091809,-1.5839995 1.584,-1.5839995 0.874819,0 1.584,0.7091805 1.584,1.5839995 z"/>
   </g>
   <g   id="0.4.0.4" transform="matrix(1.25,0,0,1.25,16.786386,7.9583804)">
    <circle  fill="none" cx="4.3200002"  cy="11.52" stroke="#ffbf00" id="connector39pin" r="1.584" stroke-width="1.15199995" d="m 5.9040002,11.52 c 0,0.874819 -0.709181,1.584 -1.584,1.584 -0.8748191,0 -1.584,-0.709181 -1.584,-1.584 0,-0.874819 0.7091809,-1.5839995 1.584,-1.5839995 0.874819,0 1.584,0.7091805 1.584,1.5839995 z"/>
   </g>
   <g   id="0.4.0.5" transform="matrix(1.25,0,0,1.25,16.614399,15.181856)">
    <circle  fill="none" cx="4.3200002"  cy="11.52" stroke="#ffbf00" id="connector42pin" r="1.584" stroke-width="1.15199995" d="m 5.9040002,11.52 c 0,0.874819 -0.709181,1.584 -1.584,1.584 -0.8748191,0 -1.584,-0.709181 -1.584,-1.584 0,-0.874819 0.7091809,-1.5839995 1.584,-1.5839995 0.874819,0 1.584,0.7091805 1.584,1.5839995 z"/>
   </g>
   <g   id="0.4.0.6" transform="matrix(1.25,0,0,1.25,9.3335891,15.181856)">
    <circle  fill="none" cx="4.3200002"  cy="11.52" stroke="#ffbf00" id="connector41pin" r="1.584" stroke-width="1.15199995" d="m 5.9040002,11.52 c 0,0.874819 -0.709181,1.584 -1.584,1.584 -0.8748191,0 -1.584,-0.709181 -1.584,-1.584 0,-0.874819 0.7091809,-1.5839995 1.584,-1.5839995 0.874819,0 1.584,0.7091805 1.584,1.5839995 z"/>
   </g>
   <g   id="0.4.0.7" transform="matrix(1.25,0,0,1.25,1.9381174,15.181868)">
    <circle  fill="none" cx="4.3200002"  cy="11.52" stroke="#ffbf00" id="connector40pin" r="1.584" stroke-width="1.15199995" d="m 5.9040002,11.52 c 0,0.874819 -0.709181,1.584 -1.584,1.584 -0.8748191,0 -1.584,-0.709181 -1.584,-1.584 0,-0.874819 0.7091809,-1.5839995 1.584,-1.5839995 0.874819,0 1.584,0.7091805 1.584,1.5839995 z"/>
   </g>
   <g   id="0.4.0.8" transform="matrix(1.25,0,0,1.25,84.950773,-10.157638)">
    <circle  fill="none" cx="4.3200002"  cy="11.52" stroke="#ffbf00" id="connector23pin" r="1.584" stroke-width="1.15199995" d="m 5.9040002,11.52 c 0,0.874819 -0.709181,1.584 -1.584,1.584 -0.8748191,0 -1.584,-0.709181 -1.584,-1.584 0,-0.874819 0.7091809,-1.5839995 1.584,-1.5839995 0.874819,0 1.584,0.7091805 1.584,1.5839995 z"/>
   </g>
   <g   id="0.4.0.9" transform="matrix(1.25,0,0,1.25,92.231577,-10.157638)">
    <circle  fill="none" cx="4.3200002"  cy="11.52" stroke="#ffbf00" id="connector24pin" r="1.584" stroke-width="1.15199995" d="m 5.9040002,11.52 c 0,0.874819 -0.709181,1.584 -1.584,1.584 -0.8748191,0 -1.584,-0.709181 -1.584,-1.584 0,-0.874819 0.7091809,-1.5839995 1.584,-1.5839995 0.874819,0 1.584,0.7091805 1.584,1.5839995 z"/>
   </g>
   <g   id="0.4.0.10" transform="matrix(1.25,0,0,1.25,99.340395,-10.157638)">
    <circle  fill="none" cx="4.3200002"  cy="11.52" stroke="#ffbf00" id="connector25pin" r="1.584" stroke-width="1.15199995" d="m 5.9040002,11.52 c 0,0.874819 -0.709181,1.584 -1.584,1.584 -0.8748191,0 -1.584,-0.709181 -1.584,-1.584 0,-0.874819 0.7091809,-1.5839995 1.584,-1.5839995 0.874819,0 1.584,0.7091805 1.584,1.5839995 z"/>
   </g>
   <g   id="0.4.0.11" transform="matrix(1.25,0,0,1.25,106.67853,-10.157638)">
    <circle  fill="none" cx="4.3200002"  cy="11.52" stroke="#ffbf00" id="connector26pin" r="1.584" stroke-width="1.15199995" d="m 5.9040002,11.52 c 0,0.874819 -0.709181,1.584 -1.584,1.584 -0.8748191,0 -1.584,-0.709181 -1.584,-1.584 0,-0.874819 0.7091809,-1.5839995 1.584,-1.5839995 0.874819,0 1.584,0.7091805 1.584,1.5839995 z"/>
   </g>
   <g   id="0.4.0.12" transform="matrix(1.25,0,0,1.25,113.902,-10.157638)">
    <circle  fill="none" cx="4.3200002"  cy="11.52" stroke="#ffbf00" id="connector27pin" r="1.584" stroke-width="1.15199995" d="m 5.9040002,11.52 c 0,0.874819 -0.709181,1.584 -1.584,1.584 -0.8748191,0 -1.584,-0.709181 -1.584,-1.584 0,-0.874819 0.7091809,-1.5839995 1.584,-1.5839995 0.874819,0 1.584,0.7091805 1.584,1.5839995 z"/>
   </g>
   <g   id="0.4.0.13" transform="matrix(1.25,0,0,1.25,114.01666,15.009868)">
    <circle  fill="none" cx="4.3200002"  cy="11.52" stroke="#ffbf00" id="connector28pin" r="1.584" stroke-width="1.15199995" d="m 5.9040002,11.52 c 0,0.874819 -0.709181,1.584 -1.584,1.584 -0.8748191,0 -1.584,-0.709181 -1.584,-1.584 0,-0.874819 0.7091809,-1.5839995 1.584,-1.5839995 0.874819,0 1.584,0.7091805 1.584,1.5839995 z"/>
   </g>
   <g   id="0.4.0.14" transform="matrix(1.25,0,0,1.25,114.01666,22.118686)">
    <circle  fill="none" cx="4.3200002"  cy="11.52" stroke="#ffbf00" id="connector29pin" r="1.584" stroke-width="1.15199995" d="m 5.9040002,11.52 c 0,0.874819 -0.709181,1.584 -1.584,1.584 -0.8748191,0 -1.584,-0.709181 -1.584,-1.584 0,-0.874819 0.7091809,-1.5839995 1.584,-1.5839995 0.874819,0 1.584,0.7091805 1.584,1.5839995 z"/>
   </g>
   <g   id="0.4.0.15" transform="matrix(1.25,0,0,1.25,114.01666,29.342162)">
    <circle  fill="none" cx="4.3200002"  cy="11.52" stroke="#ffbf00" id="connector30pin" r="1.584" stroke-width="1.15199995" d="m 5.9040002,11.52 c 0,0.874819 -0.709181,1.584 -1.584,1.584 -0.8748191,0 -1.584,-0.709181 -1.584,-1.584 0,-0.874819 0.7091809,-1.5839995 1.584,-1.5839995 0.874819,0 1.584,0.7091805 1.584,1.5839995 z"/>
   </g>
   <g   id="0.4.0.16" transform="matrix(1.25,0,0,1.25,88.734498,51.012589)">
    <circle  fill="none" cx="4.3200002"  cy="11.52" stroke="#ffbf00" id="connector31pin" r="1.584" stroke-width="1.15199995" d="m 5.9040002,11.52 c 0,0.874819 -0.709181,1.584 -1.584,1.584 -0.8748191,0 -1.584,-0.709181 -1.584,-1.584 0,-0.874819 0.7091809,-1.5839995 1.584,-1.5839995 0.874819,0 1.584,0.7091805 1.584,1.5839995 z"/>
   </g>
   <g   id="0.4.0.17" transform="matrix(1.25,0,0,1.25,81.453693,51.012589)">
    <circle  fill="none" cx="4.3200002"  cy="11.52" stroke="#ffbf00" id="connector32pin" r="1.584" stroke-width="1.15199995" d="m 5.9040002,11.52 c 0,0.874819 -0.709181,1.584 -1.584,1.584 -0.8748191,0 -1.584,-0.709181 -1.584,-1.584 0,-0.874819 0.7091809,-1.5839995 1.584,-1.5839995 0.874819,0 1.584,0.7091805 1.584,1.5839995 z"/>
   </g>
   <g   id="0.4.0.18" transform="matrix(1.25,0,0,1.25,74.344876,51.012589)">
    <circle  fill="none" cx="4.3200002"  cy="11.52" stroke="#ffbf00" id="connector33pin" r="1.584" stroke-width="1.15199995" d="m 5.9040002,11.52 c 0,0.874819 -0.709181,1.584 -1.584,1.584 -0.8748191,0 -1.584,-0.709181 -1.584,-1.584 0,-0.874819 0.7091809,-1.5839995 1.584,-1.5839995 0.874819,0 1.584,0.7091805 1.584,1.5839995 z"/>
   </g>
   <g   id="0.4.0.19" transform="matrix(1.25,0,0,1.25,67.006742,51.012589)">
    <circle  fill="none" cx="4.3200002"  cy="11.52" stroke="#ffbf00" id="connector34pin" r="1.584" stroke-width="1.15199995" d="m 5.9040002,11.52 c 0,0.874819 -0.709181,1.584 -1.584,1.584 -0.8748191,0 -1.584,-0.709181 -1.584,-1.584 0,-0.874819 0.7091809,-1.5839995 1.584,-1.5839995 0.874819,0 1.584,0.7091805 1.584,1.5839995 z"/>
   </g>
   <g   id="0.4.0.20" transform="matrix(1.25,0,0,1.25,59.840595,51.012589)">
    <circle  fill="none" cx="4.3200002"  cy="11.52" stroke="#ffbf00" id="connector35pin" r="1.584" stroke-width="1.15199995" d="m 5.9040002,11.52 c 0,0.874819 -0.709181,1.584 -1.584,1.584 -0.8748191,0 -1.584,-0.709181 -1.584,-1.584 0,-0.874819 0.7091809,-1.5839995 1.584,-1.5839995 0.874819,0 1.584,0.7091805 1.584,1.5839995 z"/>
   </g>
   <g   id="0.4.0.21" transform="matrix(1.25,0,0,1.25,52.674465,60.012599)">
    <circle  fill="none" cx="4.3200002"  cy="4.3200002" stroke="#ffbf00" id="connector0pad" r="1.584" stroke-width="1.15199995" d="m 5.9040002,4.3200002 c 0,0.874819 -0.709181,1.584 -1.584,1.584 -0.8748191,0 -1.584,-0.709181 -1.584,-1.584 0,-0.8748191 0.7091809,-1.584 1.584,-1.584 0.874819,0 1.584,0.7091809 1.584,1.584 z"/>
   </g>
   <rect  width="3.96" x="56.094456" y="63.43259" fill="none"  height="3.96" stroke="#ffbf00" id="connector36pin" stroke-width="1.43999994"/>
  </g>
 </g>
</svg>
