<svg width=".42in" height=".845in" baseProfile="tiny" version="1.2" viewBox="0 0 42000 84500" xmlns="http://www.w3.org/2000/svg">
 <desc>
  <referenceFile>TO220-5.svg</referenceFile>
 </desc>
 <title>TO220.fp</title>
 <desc>Geda footprint file 'TO220.fp' converted by Fritzing</desc>
 <g id="silkscreen" fill="none" stroke="#000" stroke-width="2e3" >
  <line x1="1e3" x2="41000" y1="6e4" y2="6e4"/>
  <line x1="41000" x2="41000" y1="6e4" y2="24500"/>
  <line x1="41000" x2="1e3" y1="24500" y2="24500"/>
  <line x1="1e3" x2="1e3" y1="24500" y2="6e4"/>
  <line x1="1e3" x2="41000" y1="24500" y2="24500"/>
  <line x1="41000" x2="41000" y1="24500" y2="12000"/>
  <line x1="41000" x2="39500" y1="12000" y2="12000"/>
  <line x1="39500" x2="39500" y1="12000" y2="5e3"/>
  <line x1="39500" x2="41000" y1="5e3" y2="5e3"/>
  <line x1="41000" x2="41000" y1="5e3" y2="1e3"/>
  <line x1="41000" x2="1e3" y1="1e3" y2="1e3"/>
  <line x1="1e3" x2="1e3" y1="1e3" y2="5e3"/>
  <line x1="1e3" x2="2500" y1="5e3" y2="5e3"/>
  <line x1="2500" x2="2500" y1="5e3" y2="12000"/>
  <line x1="2500" x2="1e3" y1="12000" y2="12000"/>
  <line x1="1e3" x2="1e3" y1="12000" y2="24500"/>
 </g>
 <g id="copper1" >
  <path id="connector6pin" d="m2e3 2e3h38000v57000h-38000m12000-46000a7e3 7e3 0 1 0 14000 0 7e3 7e3 0 1 0-14000 0" fill="#F7BD13" fill-rule="evenodd" />
  <circle id="nonconn0" cx="21000" cy="13000" r="7e3" />
  <g id="copper0" >
   <path d="m5417 7e4a2250 4500 0 1 0 4500 0 2250 4500 0 1 0-4500 0zm0 0a2250 2250 0 1 0 4500 0 2250 2250 0 1 0-4500 0z" fill="#F7BD13" fill-rule="evenodd"/>
   <circle id="connector0pad" cx="7667" cy="7e4" r="2250" fill="none" stroke="#F7BD13" stroke-width="1e3" connectorname="1" />
   <path d="m12083 7e4a2250 4500 0 1 0 4500 0 2250 4500 0 1 0-4500 0zm0 0a2250 2250 0 1 0 4500 0 2250 2250 0 1 0-4500 0z" fill="#F7BD13" fill-rule="evenodd"/>
   <circle id="connector1pad" cx="14333" cy="7e4" r="2250" fill="none" stroke="#F7BD13" stroke-width="1e3" connectorname="2" />
   <path d="m18750 7e4a2250 4500 0 1 0 4500 0 2250 4500 0 1 0-4500 0zm0 0a2250 2250 0 1 0 4500 0 2250 2250 0 1 0-4500 0z" fill="#F7BD13" fill-rule="evenodd"/>
   <circle id="connector2pad" cx="21000" cy="7e4" r="2250" fill="none" stroke="#F7BD13" stroke-width="1e3" connectorname="3" />
   <path d="m25417 7e4a2250 4500 0 1 0 4500 0 2250 4500 0 1 0-4500 0zm0 0a2250 2250 0 1 0 4500 0 2250 2250 0 1 0-4500 0z" fill="#F7BD13" fill-rule="evenodd"/>
   <circle id="connector3pad" cx="27667" cy="7e4" r="2250" fill="none" stroke="#F7BD13" stroke-width="1e3" connectorname="4" />
   <path d="m32083 7e4a2250 4500 0 1 0 4500 0 2250 4500 0 1 0-4500 0zm0 0a2250 2250 0 1 0 4500 0 2250 2250 0 1 0-4500 0z" fill="#F7BD13" fill-rule="evenodd"/>
   <circle id="connector4pad" cx="34333" cy="7e4" r="2250" fill="none" stroke="#F7BD13" stroke-width="1e3" connectorname="5" />
  </g>
 </g>
</svg>
