<?xml version="1.0" encoding="utf-8"?>
<!-- Generator: Adobe Illustrator 16.0.0, SVG Export Plug-In . SVG Version: 6.00 Build 0)  -->
<!DOCTYPE svg PUBLIC "-//W3C//DTD SVG 1.1//EN" "http://www.w3.org/Graphics/SVG/1.1/DTD/svg11.dtd">
<svg version="1.1" id="Ebene_1" xmlns:svg="http://www.w3.org/2000/svg"
	 xmlns="http://www.w3.org/2000/svg" xmlns:xlink="http://www.w3.org/1999/xlink" x="0px" y="0px" width="90.968px"
	 height="70.775px" viewBox="0 0 90.968 70.775" enable-background="new 0 0 90.968 70.775" xml:space="preserve">
<g id="copper1">
	<g id="copper0">
		<circle id="connector1pad" fill="none" stroke="#F7BD13" cx="33.473" cy="57.4" r="2.768"/>
		<circle id="connector2pad" fill="none" stroke="#F7BD13" cx="44.272" cy="57.401" r="2.202"/>
		<circle id="connector0pad" fill="none" stroke="#F7BD13" cx="55.071" cy="57.401" r="2.768"/>
		<circle id="connector3pad" fill="none" stroke="#F7BD13" cx="44.27" cy="43" r="2.184"/>
		<circle id="nonconn0" stroke-width="0" stroke="none" cx="33.471" cy="17.8" r="2.268"/>
		<circle id="nonconn1" stroke-width="0" stroke="none" cx="55.071" cy="32.2" r="2.268"/>
	</g>
</g>
<g id="silkscreen">
	<path fill="none" stroke="#FFFFFF" stroke-miterlimit="10" d="M0.489,4.111c0,1.718,1.393,3.11,3.11,3.11h83.78
		c1.717,0,3.109-1.393,3.109-3.11l0,0c0-1.718-1.393-3.11-3.109-3.11H3.599C1.882,1,0.489,2.393,0.489,4.111L0.489,4.111z"/>
	<rect x="10.739" y="7.221" fill="none" stroke="#FFFFFF" stroke-miterlimit="10" width="67.75" height="55.167"/>
	<text transform="matrix(1 0 0 1 32.7395 67.6379)" font-family="'OCRAStd'" font-size="3.2">2</text>
	<text transform="matrix(1 0 0 1 43.2395 67.6379)" font-family="'OCRAStd'" font-size="3.2">3</text>
	<text transform="matrix(1 0 0 1 54.1692 67.6379)" font-family="'OCRAStd'" font-size="3.2">1</text>
	<text transform="matrix(1 0 0 1 39.6692 41.3)" font-family="'OCRAStd'" font-size="3.2">G</text>
</g>
</svg>
