<?xml version='1.0' encoding='UTF-8' standalone='no'?>
<svg xmlns="http://www.w3.org/2000/svg" version="1.1" width="147.60001" height="81">
 <metadata id="metadata13579"/>
 <g transform="translate(0,-971.3597)" id="layer1" >
  <g id="g4758"  transform="matrix(0,1,-1,0,1054.566,976.43782)">
   <path id="rect2992" d="M 2.8125,-64.25 C 1.2421101,-64.25 0,-63.00789 0,-61.4375 l 0,27 c -3.0996601,0 -5.625,2.4941 -5.625,5.59375 0,3.09966 2.5253399,5.625 5.625,5.625 L 0,-11.125 0,3.78125 0,9.40625 0,20.75 0,36.40625 c 3.0996591,0 5.59375,2.5254 5.59375,5.625 0,3.0997 -2.4940909,5.59375 -5.59375,5.59375 l 0,27 c 0,1.5704 1.2421062,2.8125 2.8125,2.8125 l 27,0 c 0,3.0996 2.525341,5.625 5.625,5.625 3.099659,0 5.59375,-2.5254 5.59375,-5.625 l 27,0 c 1.570394,0 2.8125,-1.2421 2.8125,-2.8125 l 0,-27 c -3.099659,0 -5.59375,-2.49405 -5.59375,-5.59375 0,-3.0996 2.494091,-5.625 5.59375,-5.625 l 0,-12.09375 0,-14.90625 0,-5.625 0,-18.4375 0,-8.5625 c 3.0996,0 5.625,-2.52534 5.625,-5.625 0,-3.09965 -2.5254,-5.59375 -5.625,-5.59375 l 0,-27 c 0,-1.57039 -1.2421,-2.8125 -2.8125,-2.8125 l -27,0 c 0,3.09966 -2.49405,5.59375 -5.59375,5.59375 -3.0996,0 -5.625,-2.49409 -5.625,-5.59375 l -27,0 z M 0,-32.09375 c 1.7945401,0 3.25,1.45547 3.25,3.25 0,1.79454 -1.4554599,3.25 -3.25,3.25 -1.79454,0 -3.25,-1.45546 -3.25,-3.25 0,-1.79453 1.45546,-3.25 3.25,-3.25 z m 70.84375,0 c 1.7945,0 3.25,1.45547 3.25,3.25 0,1.79454 -1.4555,3.25 -3.25,3.25 -1.7946,0 -3.21875,-1.45546 -3.21875,-3.25 0,-1.79453 1.42415,-3.25 3.21875,-3.25 z M 35.4375,74.21875 c 1.794539,0 3.25,1.42415 3.25,3.21875 0,1.7945 -1.455461,3.25 -3.25,3.25 -1.794539,0 -3.25,-1.4555 -3.25,-3.25 0,-1.7946 1.455461,-3.21875 3.25,-3.21875 z"  fill="#274a88" transform="translate(0,971.3597)"/>
   <g id="g102"  transform="matrix(0,-1.2499976,1.2499976,0,-1259.9704,1062.5138)">
    <path id="connector3pin" d="m 15.662983,1029.8187 0,-2.2677 2.267515,0 0,2.2677 -2.267515,0 z"  fill="#ffe500"/>
    <path id="connector2pin" d="m 17.930539,1033.1832 0,2.2677 -2.267556,0 0,-2.2677 2.267556,0 z"  fill="#ffe500"/>
    <path id="connector1pin" d="m 15.662983,1038.9076 2.267515,0 0,2.2677 -2.267515,0 0,-2.2677 z"  fill="#ffe500"/>
    <path id="connector0pin" d="m 15.662983,1044.5859 2.267515,0 0,2.2677 -2.267515,0 0,-2.2677 z"  fill="#ffe500"/>
   </g>
   <text id="tspan11445" x="33.579144"  y="-29.868372" fill="#ffffff" font-family="OCRA" font-size="3.2" transform="matrix(0,-1.25,1.25,0,86.101169,1081.3743)">GND</text>
   <text id="tspan11445-6" x="33.579144"  y="-35.621315" fill="#ffffff" font-family="OCRA" font-size="3.2" transform="matrix(0,-1.25,1.25,0,86.101169,1081.3743)">VCC</text>
   <text id="tspan11445-1" x="33.579144"  y="-41.37426" fill="#ffffff" font-family="OCRA" font-size="3.2" transform="matrix(0,-1.25,1.25,0,86.101169,1081.3743)">DIO</text>
   <text id="tspan11445-7" x="33.579144"  y="-47.12721" fill="#ffffff" font-family="OCRA" font-size="3.2" transform="matrix(0,-1.25,1.25,0,86.101169,1081.3743)">CLK</text>
   <text id="tspan11445-74" x="33.579144"  y="-29.868372" fill="#ffffff" font-family="OCRA" font-size="3.2" transform="matrix(0,-1.25,1.25,0,100.2744,1042.3979)">Grove - 4 Digit Display</text>
  </g>
  <g id="g4901"  transform="matrix(1 0 0 1 26.560003 993.42819)">
   <circle stroke="#9a916c" r="1.827" id="connector0pin-8" cx="31.927999" cy="32.722" stroke-width="0.489" fill="none"/>
   <circle stroke="#9a916c" r="1.827" id="connector1pin-7" cx="39.128" cy="32.722" stroke-width="0.489" fill="none"/>
   <circle stroke="#9a916c" r="1.827" id="connector2pin-1" cx="46.328" cy="32.722" stroke-width="0.489" fill="none"/>
   <circle stroke="#9a916c" r="1.827" id="connector3pin-2" cx="53.528" cy="32.722" stroke-width="0.489" fill="none"/>
   <circle stroke="#9a916c" r="1.827" id="connector4pin" cx="60.728001" cy="32.722" stroke-width="0.489" fill="none"/>
   <circle stroke="#9a916c" r="1.827" id="connector5pin" cx="67.929001" cy="32.722" stroke-width="0.489" fill="none"/>
   <circle stroke="#9a916c" r="1.827" id="connector7pin" cx="82.328" cy="32.722" stroke-width="0.489" fill="none"/>
   <circle stroke="#9a916c" r="1.827" id="connector6pin" cx="75.128" cy="32.722" stroke-width="0.489" fill="none"/>
   <circle stroke="#9a916c" r="1.827" id="connector8pin" cx="82.328" cy="3.922" stroke-width="0.489" fill="none"/>
   <circle stroke="#9a916c" r="1.827" id="connector13pin" cx="46.328" cy="3.922" stroke-width="0.489" fill="none"/>
   <circle stroke="#9a916c" r="1.827" id="connector12pin" cx="53.528" cy="3.922" stroke-width="0.489" fill="none"/>
   <circle stroke="#9a916c" r="1.827" id="connector11pin" cx="60.728001" cy="3.922" stroke-width="0.489" fill="none"/>
   <circle stroke="#9a916c" r="1.827" id="connector9pin" cx="75.128" cy="3.922" stroke-width="0.489" fill="none"/>
   <circle stroke="#9a916c" r="1.827" id="connector10pin" cx="67.929001" cy="3.922" stroke-width="0.489" fill="none"/>
   <circle stroke="#9a916c" r="1.827" id="connector14pin" cx="39.128" cy="3.922" stroke-width="0.489" fill="none"/>
   <circle stroke="#9a916c" r="1.827" id="connector15pin" cx="31.927999" cy="3.922" stroke-width="0.489" fill="none"/>
   <polygon points="114.48,36.863 1,36.863 0,35.556 0,0 113.365,0 114.48,1 " id="polygon20"  fill="#323232"/>
   <polygon points="21.329,6.808 10.545,6.808 8.89,4.318 9.718,3.491 22.16,3.491 22.989,4.318 " id="polygon22"  fill="#ef1818"/>
   <polygon points="21.329,17.591 19.672,15.934 21.329,7.636 23.819,5.147 24.648,6.808 22.989,15.934 " id="polygon24"  fill="#c7c7c7"/>
   <polygon points="18.842,30.863 17.184,29.205 18.842,20.912 21.329,18.42 22.16,20.078 20.501,29.205 " id="polygon26"  fill="#c7c7c7"/>
   <polygon points="5.569,29.205 16.354,29.205 18.013,31.691 17.184,32.521 4.74,32.521 3.91,31.689 " id="polygon28"  fill="#ef1818"/>
   <polygon points="5.569,18.42 7.228,20.078 5.569,28.373 3.08,30.863 2.252,29.205 3.91,20.078 " id="polygon30"  fill="#ef1818"/>
   <polygon points="8.058,5.147 9.718,6.808 8.058,15.104 5.569,17.591 4.74,15.934 6.4,6.808 " id="polygon32"  fill="#ef1818"/>
   <polyline points="6.4,17.591 8.058,15.934 18.842,15.934 20.501,17.591 18.842,19.25 8.058,19.25  " id="polyline34"  fill="#c7c7c7"/>
   <polygon points="50.117,6.808 39.333,6.808 37.677,4.318 38.506,3.491 50.948,3.491 51.777,4.318 " id="polygon38"  fill="#ef1818"/>
   <polygon points="50.117,17.591 48.46,15.934 50.117,7.636 52.607,5.147 53.437,6.808 51.777,15.934 " id="polygon40"  fill="#ef1818"/>
   <polygon points="47.63,30.863 45.972,29.205 47.63,20.912 50.117,18.42 50.948,20.078 49.289,29.205 " id="polygon42"  fill="#ef1818"/>
   <polygon points="34.357,29.205 45.143,29.205 46.8,31.691 45.972,32.521 33.528,32.521 32.698,31.689 " id="polygon44"  fill="#ef1818"/>
   <polygon points="34.357,18.42 36.016,20.078 34.357,28.373 31.868,30.863 31.04,29.205 32.698,20.078 " id="polygon46"  fill="#ef1818"/>
   <polygon points="36.846,5.147 38.506,6.808 36.846,15.104 34.357,17.591 33.528,15.934 35.188,6.808 " id="polygon48"  fill="#ef1818"/>
   <polyline points="35.188,17.591 36.846,15.934 47.63,15.934 49.289,17.591 47.63,19.25 36.846,19.25  " id="polyline50"  fill="#c7c7c7"/>
   <circle r="1.748" id="circle54" cx="55.620998" cy="24.308001" fill="#c7c7c7"/>
   <circle r="1.748" id="circle56" cx="57.58" cy="11.369" fill="#c7c7c7"/>
   <polygon points="78.917,6.808 68.133,6.808 66.477,4.318 67.306,3.491 79.748,3.491 80.577,4.318 " id="polygon60"  fill="#ef1818"/>
   <polygon points="78.917,17.591 77.26,15.934 78.917,7.636 81.406,5.147 82.236,6.808 80.577,15.934 " id="polygon62"  fill="#c7c7c7"/>
   <polygon points="76.43,30.863 74.771,29.205 76.43,20.912 78.917,18.42 79.748,20.078 78.089,29.205 " id="polygon64"  fill="#c7c7c7"/>
   <polygon points="63.157,29.205 73.941,29.205 75.6,31.691 74.771,32.521 62.328,32.521 61.498,31.689 " id="polygon66"  fill="#ef1818"/>
   <polygon points="63.157,18.42 64.815,20.078 63.157,28.373 60.668,30.863 59.84,29.205 61.498,20.078 " id="polygon68"  fill="#ef1818"/>
   <polygon points="65.646,5.147 67.306,6.808 65.646,15.104 63.157,17.591 62.328,15.934 63.988,6.808 " id="polygon70"  fill="#ef1818"/>
   <polyline points="63.988,17.591 65.646,15.934 76.43,15.934 78.089,17.591 76.43,19.25 65.646,19.25  " id="polyline72"  fill="#c7c7c7"/>
   <polygon points="107.792,6.808 97.008,6.808 95.352,4.318 96.181,3.491 108.623,3.491 109.452,4.318 " id="polygon76"  fill="#ef1818"/>
   <polygon points="107.792,17.591 106.135,15.934 107.792,7.636 110.281,5.147 111.111,6.808 109.452,15.934 " id="polygon78"  fill="#ef1818"/>
   <polygon points="105.305,30.863 103.646,29.205 105.305,20.912 107.792,18.42 108.623,20.078 106.964,29.205 " id="polygon80"  fill="#ef1818"/>
   <polygon points="92.032,29.205 102.816,29.205 104.475,31.691 103.646,32.521 91.203,32.521 90.373,31.689 " id="polygon82"  fill="#ef1818"/>
   <polygon points="92.032,18.42 93.69,20.078 92.032,28.373 89.543,30.863 88.715,29.205 90.373,20.078 " id="polygon84"  fill="#ef1818"/>
   <polygon points="94.521,5.147 96.181,6.808 94.521,15.104 92.032,17.591 91.203,15.934 92.863,6.808 " id="polygon86"  fill="#ef1818"/>
   <polyline points="92.863,17.591 94.521,15.934 105.305,15.934 106.964,17.591 105.305,19.25 94.521,19.25  " id="polyline88"  fill="#c7c7c7"/>
   <polygon points="0,35.556 1,36.863 114.48,36.863 113.48,35.556 " id="polygon92"  fill="#c7c7c7"/>
   <polygon points="114.48,36.863 114.48,1 113.365,0 113.365,35.556 " id="polygon94"  fill="#aaaaaa"/>
  </g>
 </g>
</svg>
