<?xml version='1.0' encoding='utf-8'?>
<!DOCTYPE svg>
<!-- Generator: Adobe Illustrator 17.0.0, SVG Export Plug-In . SVG Version: 6.00 Build 0)  -->
<svg xmlns="http://www.w3.org/2000/svg"  width="0.6025in" xml:space="preserve" xmlns:xml="http://www.w3.org/XML/1998/namespace" x="0px" version="1.1" y="0px" height="0.598in" viewBox="0 0 43.38 43.056" id="0" enable-background="new 0 0 43.38 43.056">
 <desc   id="0.0" oldid="0.0">
  <referenceFile   id="0.0.0" oldid="0.0.0">HTU21D Breakout_breadboard.svg</referenceFile>
 </desc>
 <g   id="Layer_1_1_">
  <desc   id="0.1.0" oldid="0.1.0">Fritzing breadboard generated by brd2svg</desc>
  <g   id="breadboard">
   <g   id="icon">
    <path  fill="#E72D2F"  id="0.1.1.0.0" d="M0,0.113v43.056h43.425V0.113H0z M38.896,35.955c0,1.55-1.256,2.806-2.806,2.806c-1.55,0-2.806-1.256-2.806-2.806c0-1.55,1.256-2.807,2.806-2.806C37.64,33.149,38.896,34.405,38.896,35.955z M10.056,35.955c0,1.55-1.256,2.806-2.806,2.806s-2.806-1.256-2.806-2.806c0-1.55,1.257-2.807,2.806-2.806C8.8,33.149,10.056,34.405,10.056,35.955z M26.753,3.713c0,0.795-0.645,1.44-1.44,1.44s-1.44-0.645-1.44-1.44s0.645-1.44,1.44-1.44S26.753,2.918,26.753,3.713z M19.553,3.713c0,0.795-0.645,1.44-1.44,1.44s-1.44-0.645-1.44-1.44s0.645-1.44,1.44-1.44S19.553,2.918,19.553,3.713z M12.353,3.713c0,0.795-0.645,1.44-1.44,1.44s-1.44-0.645-1.44-1.44s0.645-1.44,1.44-1.44S12.353,2.918,12.353,3.713z M32.513,5.153c-0.795,0-1.44-0.645-1.44-1.44s0.645-1.44,1.44-1.44s1.44,0.645,1.44,1.44S33.308,5.153,32.513,5.153z"/>
    <g   id="0.1.1.0.1" transform="matrix(1, 0, 0, 1, 14.4, 3.27401)">
     <g   id="0.1.1.0.1.0" transform="matrix(0.5, 0, 0, 0.5, 7.2, 9.16301)">
      <g   id="silkscreen">
       <path  fill="#FFFFFF"  id="0.1.1.0.1.0.0.0" d="M36.761,12.236c0,0,0.229,0.97-0.503,1.105c-0.51,0.091-1.332-0.415-1.747-0.919c-0.51-0.622-0.446-1.111-0.049-1.546c0.597-0.659,1.617-0.405,1.617-0.405s-1.869-1.642-3.819-0.297c-1.735,1.195-1.237,2.823,0.328,4.243c1.413,1.285,0.286,2.693-1.137,2.509c-0.974-0.123-1.372-0.906-1.139-1.386c0.203-0.411,0.901-0.663,0.901-0.663s-0.804-0.327-1.749,0.03c-0.849,0.32-1.55,1.023-1.494,2.781v8.156c0,0,0.878-1.083,1.909-2.185c1.157-1.241,1.685-2.082,2.872-1.983c2.246,0.139,3.871-0.859,4.974-2.46C39.846,16.137,38.185,12.696,36.761,12.236z"/>
       <path  fill="#FFFFFF"  id="0.1.1.0.1.0.0.1" d="M-28.905,23.496l-0.269,0.163c-0.163,0.097-0.33,0.188-0.499,0.268l-1.064-2.877c0.852-0.514,1.381-1.433,1.381-2.453c0-1.579-1.285-2.864-2.864-2.864c-1.579,0-2.864,1.285-2.864,2.864c0,1.02,0.529,1.939,1.381,2.453l-1.064,2.877c-0.169-0.08-0.336-0.171-0.499-0.268l-0.268-0.163l-1.965,1.38l-1.006-1.006l1.379-1.966l-0.161-0.268c-0.302-0.503-0.526-1.046-0.668-1.615l-0.075-0.304l-2.368-0.415v-1.423l2.371-0.416l0.076-0.302c0.142-0.568,0.367-1.109,0.668-1.609l0.163-0.268l-1.386-1.972l1.006-1.006l1.975,1.387l0.267-0.162c0.5-0.3,1.039-0.523,1.605-0.665l0.303-0.075l0.416-2.378h1.423l0.416,2.378l0.303,0.075c0.566,0.142,1.106,0.365,1.605,0.665l0.267,0.162l1.981-1.388l1.005,1.005l-1.386,1.973l0.163,0.268c0.301,0.5,0.526,1.041,0.668,1.609l0.076,0.302l2.371,0.416v1.423l-2.368,0.415l-0.075,0.304c-0.142,0.569-0.366,1.112-0.668,1.615l-0.161,0.268l1.379,1.966l-1.006,1.006L-28.905,23.496z"/>
       <g   id="0.1.1.0.1.0.0.2">
        <title   id="0.1.1.0.1.0.0.2.0" oldid="0.1.1.0.1.0.0.2.0">element:JP1</title>
        <g   id="0.1.1.0.1.0.0.2.1">
         <title   id="0.1.1.0.1.0.0.2.1.0" oldid="0.1.1.0.1.0.0.2.1.0">package:1X04</title>
         <line  fill="none"  stroke="#FFFFFF" stroke-linecap="round" id="0.1.1.0.1.0.0.2.1.1" y1="-10.186" x1="-17.82" y2="-10.186" stroke-width="1" x2="-25.02"/>
         <line  fill="none"  stroke="#FFFFFF" stroke-linecap="round" id="0.1.1.0.1.0.0.2.1.2" y1="-10.186" x1="-25.02" y2="-13.786" stroke-width="1" x2="-28.62"/>
         <line  fill="none"  stroke="#FFFFFF" stroke-linecap="round" id="0.1.1.0.1.0.0.2.1.3" y1="-20.986" x1="-28.62" y2="-24.586" stroke-width="1" x2="-25.02"/>
         <line  fill="none"  stroke="#FFFFFF" stroke-linecap="round" id="0.1.1.0.1.0.0.2.1.4" y1="-13.786" x1="0.18" y2="-10.186" stroke-width="1" x2="-3.42"/>
         <line  fill="none"  stroke="#FFFFFF" stroke-linecap="round" id="0.1.1.0.1.0.0.2.1.5" y1="-10.186" x1="-3.42" y2="-10.186" stroke-width="1" x2="-10.62"/>
         <line  fill="none"  stroke="#FFFFFF" stroke-linecap="round" id="0.1.1.0.1.0.0.2.1.6" y1="-10.186" x1="-10.62" y2="-13.786" stroke-width="1" x2="-14.22"/>
         <line  fill="none"  stroke="#FFFFFF" stroke-linecap="round" id="0.1.1.0.1.0.0.2.1.7" y1="-20.986" x1="-14.22" y2="-24.586" stroke-width="1" x2="-10.62"/>
         <line  fill="none"  stroke="#FFFFFF" stroke-linecap="round" id="0.1.1.0.1.0.0.2.1.8" y1="-24.586" x1="-10.62" y2="-24.586" stroke-width="1" x2="-3.42"/>
         <line  fill="none"  stroke="#FFFFFF" stroke-linecap="round" id="0.1.1.0.1.0.0.2.1.9" y1="-24.586" x1="-3.42" y2="-20.986" stroke-width="1" x2="0.18"/>
         <line  fill="none"  stroke="#FFFFFF" stroke-linecap="round" id="0.1.1.0.1.0.0.2.1.10" y1="-10.186" x1="-17.82" y2="-13.786" stroke-width="1" x2="-14.22"/>
         <line  fill="none"  stroke="#FFFFFF" stroke-linecap="round" id="0.1.1.0.1.0.0.2.1.11" y1="-20.986" x1="-14.22" y2="-24.586" stroke-width="1" x2="-17.82"/>
         <line  fill="none"  stroke="#FFFFFF" stroke-linecap="round" id="0.1.1.0.1.0.0.2.1.12" y1="-24.586" x1="-25.02" y2="-24.586" stroke-width="1" x2="-17.82"/>
         <line  fill="none"  stroke="#FFFFFF" stroke-linecap="round" id="0.1.1.0.1.0.0.2.1.13" y1="-10.186" x1="25.38" y2="-10.186" stroke-width="1" x2="18.18"/>
         <line  fill="none"  stroke="#FFFFFF" stroke-linecap="round" id="0.1.1.0.1.0.0.2.1.14" y1="-10.186" x1="18.18" y2="-13.786" stroke-width="1" x2="14.58"/>
         <line  fill="none"  stroke="#FFFFFF" stroke-linecap="round" id="0.1.1.0.1.0.0.2.1.15" y1="-20.986" x1="14.58" y2="-24.586" stroke-width="1" x2="18.18"/>
         <line  fill="none"  stroke="#FFFFFF" stroke-linecap="round" id="0.1.1.0.1.0.0.2.1.16" y1="-13.786" x1="14.58" y2="-10.186" stroke-width="1" x2="10.98"/>
         <line  fill="none"  stroke="#FFFFFF" stroke-linecap="round" id="0.1.1.0.1.0.0.2.1.17" y1="-10.186" x1="10.98" y2="-10.186" stroke-width="1" x2="3.78"/>
         <line  fill="none"  stroke="#FFFFFF" stroke-linecap="round" id="0.1.1.0.1.0.0.2.1.18" y1="-10.186" x1="3.78" y2="-13.786" stroke-width="1" x2="0.18"/>
         <line  fill="none"  stroke="#FFFFFF" stroke-linecap="round" id="0.1.1.0.1.0.0.2.1.19" y1="-20.986" x1="0.18" y2="-24.586" stroke-width="1" x2="3.78"/>
         <line  fill="none"  stroke="#FFFFFF" stroke-linecap="round" id="0.1.1.0.1.0.0.2.1.20" y1="-24.586" x1="3.78" y2="-24.586" stroke-width="1" x2="10.98"/>
         <line  fill="none"  stroke="#FFFFFF" stroke-linecap="round" id="0.1.1.0.1.0.0.2.1.21" y1="-24.586" x1="10.98" y2="-20.986" stroke-width="1" x2="14.58"/>
         <line  fill="none"  stroke="#FFFFFF" stroke-linecap="round" id="0.1.1.0.1.0.0.2.1.22" y1="-13.786" x1="28.98" y2="-20.986" stroke-width="1" x2="28.98"/>
         <line  fill="none"  stroke="#FFFFFF" stroke-linecap="round" id="0.1.1.0.1.0.0.2.1.23" y1="-10.186" x1="25.38" y2="-13.786" stroke-width="1" x2="28.98"/>
         <line  fill="none"  stroke="#FFFFFF" stroke-linecap="round" id="0.1.1.0.1.0.0.2.1.24" y1="-20.986" x1="28.98" y2="-24.586" stroke-width="1" x2="25.38"/>
         <line  fill="none"  stroke="#FFFFFF" stroke-linecap="round" id="0.1.1.0.1.0.0.2.1.25" y1="-24.586" x1="18.18" y2="-24.586" stroke-width="1" x2="25.38"/>
         <line  fill="none"  stroke="#FFFFFF" stroke-linecap="round" id="0.1.1.0.1.0.0.2.1.26" y1="-13.786" x1="-28.62" y2="-20.986" stroke-width="1" x2="-28.62"/>
        </g>
       </g>
       <g   id="0.1.1.0.1.0.0.3">
        <title   id="0.1.1.0.1.0.0.3.0" oldid="0.1.1.0.1.0.0.3.0">element:JP2</title>
        <g   id="0.1.1.0.1.0.0.3.1">
         <title   id="0.1.1.0.1.0.0.3.1.0" oldid="0.1.1.0.1.0.0.3.1.0">package:SFE-NEW-WEB</title>
        </g>
       </g>
       <g   id="0.1.1.0.1.0.0.4">
        <title   id="0.1.1.0.1.0.0.4.0" oldid="0.1.1.0.1.0.0.4.0">element:STANDOFF1</title>
        <g   id="0.1.1.0.1.0.0.4.1">
         <title   id="0.1.1.0.1.0.0.4.1.0" oldid="0.1.1.0.1.0.0.4.1.0">package:STAND-OFF</title>
        </g>
       </g>
       <g   id="0.1.1.0.1.0.0.5">
        <title   id="0.1.1.0.1.0.0.5.0" oldid="0.1.1.0.1.0.0.5.0">element:STANDOFF2</title>
        <g   id="0.1.1.0.1.0.0.5.1">
         <title   id="0.1.1.0.1.0.0.5.1.0" oldid="0.1.1.0.1.0.0.5.1.0">package:STAND-OFF</title>
        </g>
       </g>
       <g   id="0.1.1.0.1.0.0.6">
        <title   id="0.1.1.0.1.0.0.6.0" oldid="0.1.1.0.1.0.0.6.0">element:U1</title>
        <g   id="0.1.1.0.1.0.0.6.1">
         <title   id="0.1.1.0.1.0.0.6.1.0" oldid="0.1.1.0.1.0.0.6.1.0">package:HTU21D</title>
         <line  fill="none"  stroke="#FFFFFF" stroke-linecap="round" id="0.1.1.0.1.0.0.6.1.1" y1="31.71" stroke-width="0.576" x1="-8.324" y2="31.71" x2="8.684"/>
         <line  fill="none"  stroke="#FFFFFF" stroke-linecap="round" id="0.1.1.0.1.0.0.6.1.2" y1="48.718" stroke-width="0.576" x1="-3.788" y2="48.718" x2="4.148"/>
        </g>
       </g>
       <text  fill="#FFFFFF" font-family="OCRA"  id="label_1_" transform="matrix(2 0 0 2 -23.0198 58.711)" font-size="4.68">Humidity</text>
       <text  fill="#FFFFFF" font-family="OCRA"  id="label_2_" transform="matrix(2 0 0 2 -28.8206 -1.4132)" font-size="4.68">CL</text>
       <text  fill="#FFFFFF" font-family="OCRA"  id="label_3_" transform="matrix(2 0 0 2 -12.42 -1.4132)" font-size="4.68">DA</text>
       <text  fill="#FFFFFF" font-family="OCRA"  id="label_4_" transform="matrix(2 0 0 2 4.788 -1.4132)" font-size="4.68">-</text>
       <text  fill="#FFFFFF" font-family="OCRA"  id="label_5_" transform="matrix(2 0 0 2 19.026 -1.4132)" font-size="4.68">+</text>
      </g>
      <circle  fill="none" display="none" cx="21.78"  cy="-17.386" stroke="#8C8C8C" r="2.668" id="0.1.1.0.1.0.1" stroke-width="1.224"/>
      <rect  width="4.104" x="19.728" y="-19.438" fill="none" display="none"  height="4.104" stroke="#8C8C8C" id="0.1.1.0.1.0.2" stroke-width="1.224"/>
      <circle  fill="none" display="none" cx="7.38"  cy="-17.386" stroke="#8C8C8C" r="2.462" id="0.1.1.0.1.0.3" stroke-width="1.224"/>
      <circle  fill="none" display="none" cx="-7.02"  cy="-17.386" stroke="#8C8C8C" r="3.201" id="0.1.1.0.1.0.4" stroke-width="1.224"/>
      <circle  fill="none" display="none" cx="-21.42"  cy="-17.386" stroke="#8C8C8C" r="2.052" id="0.1.1.0.1.0.5" stroke-width="1.224"/>
      <rect  width="15.874" x="-7.757" y="15.779" fill="#EE402F"  height="5.669" id="connector1pad"/>
      <g   id="0.1.1.0.1.0.7" transform="matrix(0, -1, 1, 0, -12.2173, 46.9134)">
       <g   id="0.1.1.0.1.0.7.0" transform="matrix(-2.547107e-006 -1 1 -2.547107e-006 8.475 16.2622)">
        <rect  width="4.535" x="10.101" y="2.476" fill="#8C8B8B"  height="2.835" id="connector13pad"/>
       </g>
      </g>
      <rect  width="15.874" x="-29.357" y="1.379" fill="#EE402F"  height="5.669" id="connector9pad"/>
      <rect  width="3.6" x="-6.228" y="0.614" fill="#8C8B8B" display="none"  height="7.2" id="0.1.1.0.1.0.9"/>
      <rect  width="3.6" x="-1.62" y="0.614" fill="#8C8B8B"  height="7.2" id="0.1.1.0.1.0.10"/>
      <rect  width="12.816" x="-6.228" y="0.614" fill="#8C8B8B"  height="7.2" id="0.1.1.0.1.0.11"/>
      <polygon  fill="#F7BD13" points="-4.214,32.691 -4.214,47.573 2.306,47.573 4.857,45.021 4.857,32.691 "  id="0.1.1.0.1.0.12"/>
      <path  fill="#998F6C"  id="0.1.1.0.1.0.13" d="M26.013-13.151H17.68v-7.942h8.333V-13.151z M21.78-20.071c-1.483,0-2.685,1.202-2.685,2.685c0,1.483,1.202,2.685,2.685,2.685s2.685-1.202,2.685-2.685C24.465-18.869,23.263-20.071,21.78-20.071z"/>
      <rect  width="7.415" x="18.072" y="-21.094" fill="none"  height="7.415" stroke="#998F6C" id="0.1.1.0.1.0.14" stroke-width="1.5"/>
      <circle  fill="none" cx="21.78"  cy="-17.386" stroke="#998F6C" id="connector3pin" r="3.697" stroke-width="1.5"/>
      <g   id="0.1.1.0.1.0.16" transform="matrix(0, -1, 1, 0, -9.38268, 61.0866)">
       <g   id="0.1.1.0.1.0.16.0" transform="matrix(-2.547107e-006 -1 1 -2.547107e-006 -2.863 33.2694)">
        <rect  width="4.535" x="12.936" y="16.649" fill="#8C8B8B"  height="2.835" id="connector11pad"/>
       </g>
      </g>
      <circle  fill="none" cx="7.38"  cy="-17.386" stroke="#998F6C" id="connector2pin" r="3.704" stroke-width="1.5"/>
      <g   id="0.1.1.0.1.0.18" transform="matrix(0, -1, 1, 0, -17.8866, 52.5827)">
       <g   id="0.1.1.0.1.0.18.0" transform="matrix(-2.547107e-006 -1 1 -2.547107e-006 -2.865 16.263)">
        <rect  width="4.535" x="4.432" y="8.146" fill="#8C8B8B"  height="2.835" id="connector15pad"/>
       </g>
      </g>
      <circle  fill="none" cx="-7.02"  cy="-17.386" stroke="#998F6C" id="connector1pin" r="3.704" stroke-width="1.5"/>
      <rect  width="1.134" x="-0.387" y="39.647" fill="#F7BD13"  height="1.134" id="connector10pad"/>
      <circle  fill="none" cx="-21.42"  cy="-17.386" stroke="#998F6C" id="connector0pin" r="3.704" stroke-width="1.5"/>
      <g   id="0.1.1.0.1.0.22" transform="matrix(0, -1, 1, 0, -6.54803, 58.252)">
       <g   id="0.1.1.0.1.0.22.0" transform="matrix(-2.547107e-006 -1 1 -2.547107e-006 2.8062 33.2712)">
        <rect  width="4.535" x="15.771" y="13.815" fill="#8C8B8B"  height="2.835" id="connector12pad"/>
       </g>
      </g>
      <g   id="0.1.1.0.1.0.23" transform="matrix(-1, 0, 0, -1, 69.6189, 28.8)">
       <rect  width="15.874" x="39.902" y="21.751" fill="#EE402F"  height="5.669" id="connector6pad_1_"/>
      </g>
      <g   id="0.1.1.0.1.0.24" transform="matrix(0, -1, 1, 0, -3.71339, 55.4173)">
       <g   id="0.1.1.0.1.0.24.0" transform="matrix(-2.547107e-006 -1 1 -2.547107e-006 8.475 33.2706)">
        <rect  width="4.535" x="18.605" y="10.98" fill="#8C8B8B"  height="2.835" id="connector14pad"/>
       </g>
      </g>
      <g   id="0.1.1.0.1.0.25" transform="matrix(-1, 0, 0, -1, 59.9811, 28.8)">
       <rect  width="6.236" x="39.902" y="21.751" fill="#EE402F"  height="5.669" id="connector7pad"/>
      </g>
      <g   id="0.1.1.0.1.0.26" transform="matrix(0, -1, 1, 0, -15.052, 49.748)">
       <g   id="0.1.1.0.1.0.26.0" transform="matrix(-2.547107e-006 -1 1 -2.547107e-006 2.8062 16.263)">
        <rect  width="4.535" x="7.267" y="5.311" fill="#8C8B8B"  height="2.835" id="connector16pad"/>
       </g>
      </g>
      <rect  width="6.236" x="-29.357" y="1.379" fill="#EE402F"  height="5.669" id="connector8pad"/>
      <rect  width="6.236" x="-7.757" y="15.779" fill="#EE402F"  height="5.669" id="connector0pad"/>
      <g   id="0.1.1.0.1.0.29" transform="matrix(1, 0, 0, 1, 35.442, 9.25553)">
       <g   id="0.1.1.0.1.0.29.0">
        <g   id="0.1.1.0.1.0.29.0.0" transform="matrix(0.5, 0, 0, 0.5, 7.479, 6.17223)">
         <g   id="0.1.1.0.1.0.29.0.0.0">
          <polygon  fill="#1F1F1F" points="-103.551,68.057 -103.551,32.852 -100.598,35.805 -100.598,65.104 "  id="0.1.1.0.1.0.29.0.0.0.0"/>
          <polygon  fill="#1F1F1F" points="-66.997,68.057 -66.997,32.852 -69.951,35.805 -69.951,65.104 "  id="0.1.1.0.1.0.29.0.0.0.1"/>
          <polygon  points="-103.551,68.057 -66.997,68.057 -69.951,65.104 -100.598,65.104 "  id="0.1.1.0.1.0.29.0.0.0.2"/>
          <polygon  fill="#3D3D3D" points="-103.551,32.852 -66.997,32.852 -69.951,35.805 -100.598,35.805 "  id="0.1.1.0.1.0.29.0.0.0.3"/>
          <rect  width="35.734" x="-103.141" y="33.581" fill="#30302F"  height="33.747" id="0.1.1.0.1.0.29.0.0.0.4"/>
         </g>
        </g>
       </g>
       <polygon  fill="#1F1F1F" points="-32.542,28.07 -32.542,28.07 -37.978,28.07 -37.978,28.07 -37.979,24.32 -37.979,24.32 -32.543,24.32 -32.543,24.32 "  stroke="#191919" stroke-linejoin="round" id="0.1.1.0.1.0.29.1" stroke-width="0.25" stroke-miterlimit="10"/>
       <g   id="0.1.1.0.1.0.29.2" transform="matrix(1, 0, 0, 1, 7.2, 10.7664)">
        <g   id="0.1.1.0.1.0.29.2.0">
         <g   id="0.1.1.0.1.0.29.2.0.0">
          <g   id="0.1.1.0.1.0.29.2.0.0.0">
           <path  fill="#DFBA6C"  id="0.1.1.0.1.0.29.2.0.0.0.0" d="M-44.584,14.257c0-0.065,0.079-0.118,0.174-0.118h3.997c0.095,0,0.174,0.053,0.174,0.118v2.429c0,0.064-0.079,0.118-0.174,0.118h-3.997c-0.095,0-0.174-0.054-0.174-0.118V14.257z"/>
          </g>
          <g   id="0.1.1.0.1.0.29.2.0.0.1">
           <rect  width="0.938" x="-43.496" y="15.113" fill="#DFBA6C"  height="0.843" id="0.1.1.0.1.0.29.2.0.0.1.0"/>
          </g>
          <g   id="0.1.1.0.1.0.29.2.0.0.2">
           <rect  width="0.539" x="-42.558" y="15.424" fill="#DFBA6C"  height="0.22" id="0.1.1.0.1.0.29.2.0.0.2.0"/>
          </g>
          <g   id="0.1.1.0.1.0.29.2.0.0.3">
           <circle  fill="#F9CA41" cx="-43.247"  cy="15.673" r="0.017" id="0.1.1.0.1.0.29.2.0.0.3.0"/>
          </g>
         </g>
         <g   id="0.1.1.0.1.0.29.2.0.1">
          <g   id="0.1.1.0.1.0.29.2.0.1.0">
           <g   id="0.1.1.0.1.0.29.2.0.1.0.0">
            <g  opacity="0.5" display="none"  id="0.1.1.0.1.0.29.2.0.1.0.0.0">
             <path  fill="#B3B2B3" display="inline"  id="0.1.1.0.1.0.29.2.0.1.0.0.0.0" d="M-40.053,16.775h-4.731v-0.279c0-0.043,0.049-0.079,0.106-0.079h4.519c0.06,0,0.106,0.035,0.106,0.079V16.775z"/>
            </g>
            <g  opacity="0.5" display="none"  id="0.1.1.0.1.0.29.2.0.1.0.0.1">
             <path  fill="#676767" display="inline"  id="0.1.1.0.1.0.29.2.0.1.0.0.1.0" d="M-40.053,14.265h-4.731v-0.297c0-0.043,0.049-0.079,0.106-0.079h4.519c0.06,0,0.106,0.035,0.106,0.079V14.265z"/>
            </g>
            <g  opacity="0.5"  id="0.1.1.0.1.0.29.2.0.1.0.0.2">
             <path  fill="#676767"  id="0.1.1.0.1.0.29.2.0.1.0.0.2.0" d="M-44.755,16.587h4.731v0.297c0,0.043-0.049,0.079-0.106,0.079h-4.519c-0.06,0-0.106-0.035-0.106-0.079V16.587z"/>
            </g>
            <path  opacity="0.5" fill="#F2F2F2"  enable-background="new    " id="0.1.1.0.1.0.29.2.0.1.0.0.3" d="M-40.159,13.89h-4.518c-0.058,0-0.105,0.041-0.105,0.092v0.13v0.131v1.988v0.732h4.731V16.23v-1.989v-0.13v-0.129C-40.053,13.931-40.099,13.89-40.159,13.89z"/>
            <path  opacity="0.55" fill="#FFFFFF"  enable-background="new    " id="0.1.1.0.1.0.29.2.0.1.0.0.4" d="M-44.728,14.835v-0.654c0.018-0.135-0.013-0.239,0.102-0.239c0.643,0,4.14,0,4.3,0c0.176,0,0.184,0.058-0.012,0.058c-0.137,0-3.29,0.002-3.765,0.002c-0.479,0-0.543,0.092-0.543,0.173l0.002,0.659C-44.645,14.989-44.728,14.988-44.728,14.835z"/>
           </g>
          </g>
         </g>
        </g>
       </g>
       <polygon  fill="#1F1F1F" points="-38.224,24.05 -32.259,24.05 -32.427,24.219 -38.055,24.219 "  id="0.1.1.0.1.0.29.3"/>
       <polygon  fill="#1F1F1F" points="-38.224,28.283 -32.259,28.283 -32.427,28.115 -38.055,28.115 "  id="0.1.1.0.1.0.29.4"/>
       <polygon  fill="#1F1F1F" points="-38.224,28.283 -32.259,28.283 -32.427,28.115 -38.055,28.115 "  id="0.1.1.0.1.0.29.5"/>
       <polygon  fill="#1F1F1F" points="-38.224,24.05 -38.224,28.283 -38.055,28.115 -38.055,24.219 "  id="0.1.1.0.1.0.29.6"/>
       <polygon  fill="#3D3D3D" points="-32.259,24.05 -32.259,28.283 -32.427,28.115 -32.427,24.219 "  id="0.1.1.0.1.0.29.7"/>
       <polygon  fill="#303030" points="-33.59,27.025 -33.59,27.025 -36.79,27.025 -36.79,27.025 -36.79,25.572 -36.79,25.572 -33.59,25.572 -33.59,25.572 "  stroke="#303030" stroke-linejoin="round" id="0.1.1.0.1.0.29.8" stroke-width="0.25" stroke-miterlimit="10"/>
      </g>
     </g>
    </g>
    <g   id="label" enable-background="new    " transform="matrix(1 0 0 1 12.6902 27.48)">
     <text  x="0" y="0" fill="#FFFFFF" font-family="OCRA"  id="0.1.1.0.2.0" font-size="4.68">HTU21D</text>
    </g>
   </g>
  </g>
 </g>
 <g   id="Layer_2"/>
</svg>
