<?xml version='1.0' encoding='UTF-8' standalone='no'?>
<!-- Created with Inkscape (http://www.inkscape.org/) -->
<svg xmlns="http://www.w3.org/2000/svg"  width="143.625" xml:space="preserve" xmlns:xml="http://www.w3.org/XML/1998/namespace" version="1.2" height="195.625" viewBox="0 0 143.62499 195.625" id="0">
 <desc   id="0.0">
  <referenceFile   id="0.0.0">KeyPad.svg</referenceFile>
 </desc>
 <metadata   id="0.1" oldid="metadata5925">
  <rdf:RDF xmlns:rdf="http://www.w3.org/1999/02/22-rdf-syntax-ns#"  id="0.1.0">
   <cc:Work xmlns:cc="http://creativecommons.org/ns#"  rdf:about="" xmlns:rdf="http://www.w3.org/1999/02/22-rdf-syntax-ns#" id="0.1.0.0">
    <dc:format xmlns:dc="http://purl.org/dc/elements/1.1/"  id="0.1.0.0.0">image/svg+xml</dc:format>
    <dc:type xmlns:dc="http://purl.org/dc/elements/1.1/"  id="0.1.0.0.1" rdf:resource="http://purl.org/dc/dcmitype/StillImage" xmlns:rdf="http://www.w3.org/1999/02/22-rdf-syntax-ns#"/>
    <dc:title xmlns:dc="http://purl.org/dc/elements/1.1/"  id="0.1.0.0.2"/>
   </cc:Work>
  </rdf:RDF>
 </metadata>
 <defs   id="0.2" oldid="defs5923"/>
 <path  stroke-opacity="1" fill="#000000"  stroke="#000000" style="stroke-miterlimit:4;stroke-dasharray:none;stroke-dashoffset:0" fill-opacity="1" id="rect4017" stroke-width="0.08953376" d="m 6.656249,0.0625 c -3.665264,0 -6.59375002,2.959736 -6.59375002,6.625 l 0,166.8125 c 0,3.66526 2.92848602,6.625 6.59375002,6.625 l 130.312501,0 c 3.66526,0 6.59375,-2.95974 6.59375,-6.625 l 0,-166.8125 c 0,-3.665264 -2.92849,-6.625 -6.59375,-6.625 l -55.843751,0 0,7.8125 -18.71875,0 0,-7.8125 -55.75,0 z m -0.5625,3.78125 c 1.855717,0 3.34375,1.519283 3.34375,3.375 0,1.855717 -1.488033,3.34375 -3.34375,3.34375 -1.855717,0 -3.375,-1.488033 -3.375,-3.34375 0,-1.855717 1.519283,-3.375 3.375,-3.375 z m 129.687501,0 c 1.85572,0 3.375,1.519283 3.375,3.375 0,1.855717 -1.51928,3.34375 -3.375,3.34375 -1.85572,0 -3.34375,-1.488033 -3.34375,-3.34375 0,-1.855717 1.48803,-3.375 3.34375,-3.375 z M 6.093749,170.25 c 1.855717,0 3.34375,1.51928 3.34375,3.375 0,1.85572 -1.488033,3.34375 -3.34375,3.34375 -1.855717,0 -3.375,-1.48803 -3.375,-3.34375 0,-1.85572 1.519283,-3.375 3.375,-3.375 z m 129.687501,0 c 1.85572,0 3.375,1.51928 3.375,3.375 0,1.85572 -1.51928,3.34375 -3.375,3.34375 -1.85572,0 -3.34375,-1.48803 -3.34375,-3.34375 0,-1.85572 1.48803,-3.375 3.34375,-3.375 z"/>
 <rect  width="128.17615" x="7.7224503" y="9.6948624" stroke-opacity="1" fill="#323333"  height="160.79176" ry="5.9085493" stroke="#000000" style="stroke-miterlimit:4;stroke-dasharray:none;stroke-dashoffset:0" fill-opacity="1" id="rect4017-1" stroke-width="0.07995989"/>
 <rect  width="25.456396" x="18.81933" y="23.463551" stroke-opacity="1" fill="#ffffff"  height="22.401628" ry="4.5" stroke="#ffffff" style="stroke-miterlimit:4;stroke-dasharray:none;stroke-dashoffset:0" fill-opacity="1" id="rect4083" stroke-width="0.09"/>
 <rect  width="25.456396" x="59.200729" y="23.463551" stroke-opacity="1" fill="#ffffff"  height="22.401628" ry="4.5" stroke="#ffffff" style="stroke-miterlimit:4;stroke-dasharray:none;stroke-dashoffset:0" fill-opacity="1" id="rect4083-9" stroke-width="0.09"/>
 <rect  width="25.456396" x="99.582123" y="23.463551" stroke-opacity="1" fill="#ffffff"  height="22.401628" ry="4.5" stroke="#ffffff" style="stroke-miterlimit:4;stroke-dasharray:none;stroke-dashoffset:0" fill-opacity="1" id="rect4083-4" stroke-width="0.09"/>
 <rect  width="25.456396" x="99.582123" y="60.79018" stroke-opacity="1" fill="#ffffff"  height="22.401628" ry="4.5" stroke="#ffffff" style="stroke-miterlimit:4;stroke-dasharray:none;stroke-dashoffset:0" fill-opacity="1" id="rect4083-8" stroke-width="0.09"/>
 <rect  width="25.456396" x="59.200729" y="60.79018" stroke-opacity="1" fill="#ffffff"  height="22.401628" ry="4.5" stroke="#ffffff" style="stroke-miterlimit:4;stroke-dasharray:none;stroke-dashoffset:0" fill-opacity="1" id="rect4083-82" stroke-width="0.09"/>
 <rect  width="25.456396" x="18.81933" y="60.79018" stroke-opacity="1" fill="#ffffff"  height="22.401628" ry="4.5" stroke="#ffffff" style="stroke-miterlimit:4;stroke-dasharray:none;stroke-dashoffset:0" fill-opacity="1" id="rect4083-45" stroke-width="0.09"/>
 <rect  width="25.456396" x="18.81933" y="98.116806" stroke-opacity="1" fill="#ffffff"  height="22.401628" ry="4.5" stroke="#ffffff" style="stroke-miterlimit:4;stroke-dasharray:none;stroke-dashoffset:0" fill-opacity="1" id="rect4083-5" stroke-width="0.09"/>
 <rect  width="25.456396" x="59.200729" y="98.116806" stroke-opacity="1" fill="#ffffff"  height="22.401628" ry="4.5" stroke="#ffffff" style="stroke-miterlimit:4;stroke-dasharray:none;stroke-dashoffset:0" fill-opacity="1" id="rect4083-1" stroke-width="0.09"/>
 <rect  width="25.456396" x="99.582123" y="98.116806" stroke-opacity="1" fill="#ffffff"  height="22.401628" ry="4.5" stroke="#ffffff" style="stroke-miterlimit:4;stroke-dasharray:none;stroke-dashoffset:0" fill-opacity="1" id="rect4083-7" stroke-width="0.09"/>
 <rect  width="25.456396" x="99.582123" y="135.44344" stroke-opacity="1" fill="#ffffff"  height="22.401628" ry="4.5" stroke="#ffffff" style="stroke-miterlimit:4;stroke-dasharray:none;stroke-dashoffset:0" fill-opacity="1" id="rect4083-11" stroke-width="0.09"/>
 <rect  width="25.456396" x="59.200729" y="135.44344" stroke-opacity="1" fill="#ffffff"  height="22.401628" ry="4.5" stroke="#ffffff" style="stroke-miterlimit:4;stroke-dasharray:none;stroke-dashoffset:0" fill-opacity="1" id="rect4083-52" stroke-width="0.09"/>
 <rect  width="25.456396" x="18.81933" y="135.44344" stroke-opacity="1" fill="#ffffff"  height="22.401628" ry="4.5" stroke="#ffffff" style="stroke-miterlimit:4;stroke-dasharray:none;stroke-dashoffset:0" fill-opacity="1" id="rect4083-76" stroke-width="0.09"/>
 <path  stroke-opacity="1" fill="#007b00"  stroke="#ffffff" style="stroke-miterlimit:4;stroke-dasharray:none;stroke-dashoffset:0" fill-opacity="1" id="rect4173" stroke-width="0.09" d="m 21.874999,180.125 0,15.4375 99.437501,0 0,-15.4375 -99.437501,0 z m 21.875,5.84375 a 2.10913,2.10913 0 0 1 2.28125,2.125 2.109375,2.109375 0 0 1 -4.21875,0 2.10913,2.10913 0 0 1 1.9375,-2.125 z m 7.15625,0 a 2.10913,2.10913 0 0 1 2.28125,2.125 2.109375,2.109375 0 0 1 -4.21875,0 2.10913,2.10913 0 0 1 1.9375,-2.125 z m 7.125,0 a 2.10913,2.10913 0 0 1 0.03125,0 2.10913,2.10913 0 0 1 2.25,2.125 2.109375,2.109375 0 0 1 -4.21875,0 2.10913,2.10913 0 0 1 1.9375,-2.125 z m 7.15625,0 a 2.1091301,2.1091301 0 0 1 0.03125,0 2.1091301,2.1091301 0 0 1 2.25,2.125 2.109375,2.109375 0 0 1 -4.21875,0 2.1091301,2.1091301 0 0 1 1.9375,-2.125 z m 7.15625,0 a 2.1091301,2.1091301 0 0 1 0.03125,0 2.1091301,2.1091301 0 0 1 2.25,2.125 2.109375,2.109375 0 0 1 -4.21875,0 2.1091301,2.1091301 0 0 1 1.9375,-2.125 z m 7.15625,0 a 2.1091301,2.1091301 0 0 1 0.03125,0 2.1091301,2.1091301 0 0 1 2.25,2.125 2.109375,2.109375 0 0 1 -4.21875,0 2.1091301,2.1091301 0 0 1 1.9375,-2.125 z m 7.15625,0 a 2.1091325,2.1091325 0 0 1 0.03125,0 2.1091325,2.1091325 0 0 1 2.25,2.125 2.109375,2.109375 0 0 1 -4.21875,0 2.1091325,2.1091325 0 0 1 1.9375,-2.125 z m 7.15625,0 a 2.109135,2.109135 0 0 1 0.0312,0 2.109135,2.109135 0 0 1 2.25,2.125 2.109375,2.109375 0 0 1 -4.21875,0 2.109135,2.109135 0 0 1 1.9375,-2.125 z m 7.187501,0 a 2.1091301,2.1091301 0 0 1 2.25,2.125 2.1093755,2.1093755 0 0 1 -4.218751,0 2.1091301,2.1091301 0 0 1 1.968751,-2.125 z"/>
 <path  stroke-opacity="1" fill="none"  stroke="#00ff00" style="stroke-linecap:butt;stroke-linejoin:miter;" id="path4394" stroke-width="1" d="m 43.981115,191.17471 0,4.38779"/>
 <path  stroke-opacity="1" fill="none"  stroke="#00ff00" style="stroke-linecap:butt;stroke-linejoin:miter;" id="path4394-1" stroke-width="1" d="m 50.930069,180.125 0,4.9878"/>
 <path  stroke-opacity="1" fill="none"  stroke="#00ff00" style="stroke-linecap:butt;stroke-linejoin:miter;" id="path4394-2" stroke-width="1" d="m 58.130226,180.125 0,4.9878"/>
 <path  stroke-opacity="1" fill="none"  stroke="#00ff00" style="stroke-linecap:butt;stroke-linejoin:miter;" id="path4394-3" stroke-width="1" d="m 65.450384,180.125 0,4.9878"/>
 <path  stroke-opacity="1" fill="none"  stroke="#00ff00" style="stroke-linecap:butt;stroke-linejoin:miter;" id="path4394-34" stroke-width="1" d="m 72.410535,180.125 0,4.9878"/>
 <path  stroke-opacity="1" fill="none"  stroke="#00ff00" style="stroke-linecap:butt;stroke-linejoin:miter;" id="path4394-11" stroke-width="1" d="m 79.610691,180.125 0,4.9878"/>
 <path  stroke-opacity="1" fill="none"  stroke="#00ff00" style="stroke-linecap:butt;stroke-linejoin:miter;" id="path4394-38" stroke-width="1" d="m 86.810847,180.125 0,4.9878"/>
 <path  stroke-opacity="1" fill="none"  stroke="#00ff00" style="stroke-linecap:butt;stroke-linejoin:miter;" id="path4394-7" stroke-width="1" d="m 93.891,180.125 0,4.9878"/>
 <path  stroke-opacity="1" fill="none"  stroke="#00ff00" style="stroke-linecap:butt;stroke-linejoin:miter;" id="path4394-4" stroke-width="1" d="m 101.21116,191.17471 0,4.38779"/>
 <g  fill="#000000"  stroke="none" style="font-style:normal;font-weight:normal;line-height:125%;letter-spacing:0px;word-spacing:0px;font-family:Droid Sans" fill-opacity="1" id="text4474" transform="translate(-10.03125,55.75)" font-size="56">
  <path   style="font-variant:normal;font-stretch:normal;font-family:OCRA;-inkscape-font-specification:OCRA" id="path4487" d="m 38.046019,-28.896594 c -0.169773,0.0301 -0.321699,0.0963 -0.455778,0.19853 -0.134085,0.10225 -0.236633,0.23009 -0.307645,0.38353 -0.05915,0.13275 -0.08874,0.272 -0.08876,0.41776 -3.2e-5,0.1458 0.0295,0.28505 0.08859,0.41776 0.06119,0.1337 0.147965,0.2486 0.260328,0.34473 0.112359,0.0961 0.243608,0.16777 0.393748,0.21487 l 0.09296,0.0288 1.569744,0.004 1.569745,0.004 0,5.79375 0,5.79372 -1.569745,0.004 -1.569744,0.004 -0.09296,0.0287 c -0.229443,0.0733 -0.409718,0.1964 -0.540823,0.36929 -0.131111,0.17289 -0.197925,0.37562 -0.200444,0.60821 0.0027,0.23474 0.07052,0.43893 0.203337,0.61256 0.132817,0.17363 0.314241,0.29522 0.544273,0.36477 l 0.09937,0.0288 4.145625,0 c 1.297707,1.2e-4 2.244081,-2.4e-4 2.839125,-0.001 0.595024,-7.5e-4 0.974396,-0.003 1.138119,-0.006 0.1637,-0.003 0.247432,-0.008 0.251195,-0.0157 0.02436,-0.007 0.05506,-0.0178 0.09208,-0.0326 0.03701,-0.0148 0.07212,-0.0302 0.105342,-0.0463 0.206018,-0.0997 0.358728,-0.25258 0.45813,-0.4586 0.03623,-0.0526 0.06146,-0.11753 0.0757,-0.19482 0.01422,-0.0773 0.02254,-0.30886 0.02497,-0.69471 0.0024,-0.38585 0.004,-1.06791 0.0048,-2.04618 0.0017,-0.98107 0.0017,-1.68147 1.86e-4,-2.10121 -0.0016,-0.41973 -0.0051,-0.64058 -0.0105,-0.66256 -0.0098,-0.0616 -0.02624,-0.1253 -0.04926,-0.19117 -0.02304,-0.0659 -0.04909,-0.12355 -0.07812,-0.17309 -0.03401,-0.0552 -0.08267,-0.11538 -0.145979,-0.1806 -0.06333,-0.0652 -0.123541,-0.1171 -0.180626,-0.15571 -0.09645,-0.0624 -0.202987,-0.10736 -0.319603,-0.13499 -0.11664,-0.0276 -0.229597,-0.0346 -0.33887,-0.0209 -0.06771,0.009 -0.138066,0.0262 -0.211061,0.0503 -0.07302,0.0241 -0.135964,0.0514 -0.188844,0.0819 -0.0527,0.0332 -0.117197,0.0879 -0.193504,0.16415 -0.07633,0.0763 -0.131103,0.14073 -0.164327,0.1934 -0.01238,0.0213 -0.02564,0.0472 -0.0398,0.0776 -0.01417,0.0304 -0.0258,0.0581 -0.03488,0.0828 -0.03304,0.0412 -0.05281,0.17683 -0.05931,0.40686 -0.0065,0.23004 -0.009,0.8811 -0.0075,1.95318 l 0,2.08749 -0.980681,0 -0.980701,0 0,-6.80755 0,-6.80753 -2.544083,10e-4 c -0.71881,3.8e-4 -1.32364,0.002 -1.814492,0.004 -0.490859,0.002 -0.754,0.005 -0.789422,0.008 z"/>
  <path   style="font-variant:normal;font-stretch:normal;font-family:OCRA;-inkscape-font-specification:OCRA" id="path4489" d="m 77.597718,-28.896594 c -0.169773,0.0301 -0.321699,0.0963 -0.455779,0.19853 -0.134084,0.10225 -0.236632,0.23009 -0.307644,0.38353 -0.05915,0.13275 -0.08874,0.272 -0.08876,0.41776 -3.2e-5,0.1458 0.0295,0.28505 0.08859,0.41776 0.06119,0.1337 0.147965,0.2486 0.260328,0.34473 0.112358,0.0961 0.243607,0.16777 0.393748,0.21487 l 0.09296,0.0288 3.562967,0.003 3.562967,0.003 0,2.38808 0,2.38803 -2.964368,0 c -0.968949,2e-5 -1.717539,0.001 -2.245775,0.003 -0.528245,0.002 -0.818722,0.006 -0.871431,0.01 -0.483962,0.0439 -0.899166,0.23041 -1.245613,0.55967 -0.300299,0.2867 -0.499092,0.64549 -0.596379,1.0764 l -0.02896,0.12736 -0.0038,3.53113 -0.0038,3.53114 4.526481,0 c 1.868078,2.1e-4 3.108273,-7.5e-4 3.72059,-0.003 0.612295,-0.002 0.911912,-0.007 0.898852,-0.0146 0.246872,-0.0516 0.445728,-0.16793 0.596569,-0.34888 0.150817,-0.18094 0.228338,-0.3962 0.232565,-0.64579 -0.0042,-0.24959 -0.08175,-0.46486 -0.232565,-0.64581 -0.150841,-0.18094 -0.349697,-0.29724 -0.596569,-0.34889 9.44e-4,-0.007 -0.238765,-0.0122 -0.719144,-0.0146 -0.480401,-0.002 -1.442993,-0.003 -2.887778,-0.003 l -3.513938,0 0,-2.38805 c 1.9e-5,-0.67401 3.31e-4,-1.23647 9.44e-4,-1.68738 6.04e-4,-0.4509 0.0014,-0.68552 0.0023,-0.70386 0.02358,-7.6e-4 0.329208,-0.002 0.916876,-0.004 0.587658,-0.002 1.3211,-0.004 2.20033,-0.005 l 3.114012,-0.006 0.133724,-0.0334 c 0.376652,-0.0933 0.696758,-0.26699 0.960321,-0.52105 0.339719,-0.32829 0.543981,-0.72849 0.612786,-1.2006 0.0092,-0.12319 0.01536,-0.59594 0.01842,-1.41824 0.003,-0.82228 0.003,-1.64457 -9.6e-5,-2.46687 -0.0031,-0.82227 -0.0093,-1.29502 -0.01852,-1.41824 -0.06441,-0.42175 -0.230383,-0.78305 -0.497931,-1.08387 -0.267571,-0.3008 -0.605095,-0.5056 -1.012573,-0.6144 -0.05835,-0.0215 -0.152252,-0.0367 -0.281711,-0.0456 -0.129481,-0.009 -0.45905,-0.014 -0.988711,-0.0155 -0.52968,-0.002 -1.423984,-0.002 -2.682915,-7.6e-4 -1.014322,3.8e-4 -1.86571,0.002 -2.554167,0.004 -0.688465,0.002 -1.054239,0.005 -1.097322,0.008 z"/>
  <path   style="font-variant:normal;font-stretch:normal;font-family:OCRA;-inkscape-font-specification:OCRA" id="path4491" d="m 117.82825,-28.896594 c -0.16977,0.0301 -0.32169,0.0963 -0.45577,0.19853 -0.13409,0.10225 -0.23664,0.23009 -0.30765,0.38353 -0.0592,0.13275 -0.0887,0.272 -0.0888,0.41776 -3e-5,0.1458 0.0295,0.28505 0.0886,0.41776 0.0612,0.1337 0.14797,0.2486 0.26033,0.34473 0.11236,0.0961 0.24361,0.16777 0.39375,0.21487 l 0.093,0.0288 3.56296,0.003 3.56297,0.003 -0.004,1.97094 c -10e-4,0.89434 -0.004,1.459 -0.007,1.69396 -0.003,0.23499 -0.01,0.35279 -0.0202,0.35341 -0.11015,0.35604 -0.34193,0.59449 -0.69534,0.71535 l -0.10825,0.0361 -2.15245,0.007 c -1.14534,0.001 -1.82276,0.006 -2.03225,0.0155 -0.20949,0.009 -0.33871,0.0399 -0.38764,0.0919 -0.26064,0.12844 -0.43753,0.33871 -0.53067,0.6308 -0.0123,0.0375 -0.0204,0.0743 -0.0243,0.11051 -0.004,0.0362 -0.006,0.0907 -0.005,0.16332 -3.4e-4,0.0726 0.001,0.12707 0.005,0.16329 0.004,0.0362 0.012,0.0731 0.0243,0.11052 0.0931,0.29211 0.27003,0.50237 0.53067,0.63078 0.0489,0.052 0.17815,0.0826 0.38764,0.092 0.20949,0.009 0.88691,0.0147 2.03225,0.016 1.14114,0.002 1.81687,0.007 2.02717,0.0155 0.21029,0.009 0.33738,0.0377 0.38127,0.0864 0.21292,0.10456 0.37167,0.26331 0.47625,0.47625 0.0487,0.0486 0.0774,0.1707 0.086,0.36632 0.009,0.19564 0.0127,0.81775 0.0122,1.86633 l 0.004,1.97796 -3.56297,0.003 -3.56297,0.003 -0.093,0.0288 c -0.22977,0.0737 -0.41014,0.19689 -0.54111,0.36956 -0.13096,0.17268 -0.19768,0.37527 -0.20015,0.60779 0.003,0.23251 0.0692,0.4351 0.20015,0.60778 0.13097,0.17267 0.31134,0.29585 0.54111,0.36955 l 0.093,0.0288 3.61073,0.004 c 1.28953,0.002 2.22614,0.001 2.80985,-3.4e-4 0.58369,-0.002 0.89098,-0.005 0.92187,-0.0101 0.27062,-0.0326 0.52028,-0.11084 0.74899,-0.23489 0.22867,-0.12405 0.42886,-0.28976 0.60054,-0.49714 0.20581,-0.24963 0.34693,-0.54893 0.42337,-0.8979 l 0.0293,-0.13375 0,-2.1588 0,-2.15879 -0.029,-0.16557 c -0.0379,-0.21417 -0.0876,-0.40564 -0.14892,-0.57441 -0.0564,-0.15178 -0.12986,-0.30688 -0.22031,-0.46531 -0.0905,-0.1584 -0.18625,-0.29963 -0.28734,-0.42368 -0.0527,-0.065 -0.0772,-0.10338 -0.0735,-0.11526 l 0.097,-0.12163 c 0.17747,-0.22231 0.32152,-0.46649 0.43216,-0.73254 0.11061,-0.26603 0.18301,-0.54233 0.21718,-0.82892 0.009,-0.1259 0.0157,-0.52346 0.0189,-1.19265 0.003,-0.66918 0.003,-1.33598 1.6e-4,-2.00041 -0.003,-0.6644 -0.009,-1.0524 -0.0187,-1.16401 -0.0645,-0.42176 -0.23054,-0.78305 -0.49815,-1.08388 -0.26763,-0.30079 -0.60519,-0.50559 -1.01267,-0.61439 -0.0584,-0.0215 -0.15225,-0.0367 -0.28171,-0.0456 -0.12948,-0.009 -0.45905,-0.014 -0.98871,-0.0155 -0.52968,-0.002 -1.42399,-0.002 -2.68292,-7.6e-4 -1.01432,3.8e-4 -1.86571,0.002 -2.55416,0.004 -0.68847,0.002 -1.05424,0.005 -1.09733,0.008 z"/>
  <path   style="font-variant:normal;font-stretch:normal;font-family:OCRA;-inkscape-font-specification:OCRA" id="path4493" d="m 37.699522,8.4446533 c -0.107805,0.0222 -0.201662,0.0553 -0.281573,0.0994 -0.07992,0.044 -0.160116,0.10685 -0.240597,0.1884 -0.06361,0.063 -0.113297,0.12102 -0.149058,0.17414 -0.03577,0.0531 -0.06553,0.1131 -0.08928,0.17991 -0.02338,0.0282 -0.03981,0.11059 -0.04929,0.24717 -0.0095,0.1366 -0.01499,0.55111 -0.01651,1.2435197 -0.0015,0.69244 -0.002,1.8865 -0.0015,3.58219 l 0,4.80031 2.980289,0 2.980288,0 0,2.08745 c -0.0015,1.07209 9.44e-4,1.72315 0.0075,1.95319 0.0066,0.23003 0.02649,0.36565 0.0598,0.40685 0.02375,0.0668 0.05351,0.12678 0.08928,0.17992 0.03576,0.0531 0.08545,0.11117 0.149077,0.17415 0.06426,0.065 0.12369,0.11556 0.178307,0.15167 0.0546,0.0361 0.117428,0.0664 0.188489,0.0909 0.267509,0.0957 0.529447,0.0806 0.785813,-0.0453 0.206027,-0.0995 0.358744,-0.25234 0.458151,-0.45836 0.05248,-0.0493 0.08325,-0.17769 0.09231,-0.38504 0.009,-0.20734 0.01322,-0.87968 0.01253,-2.01702 l 0.0038,-2.13586 0.08406,-0.009 c 0.181655,-0.0211 0.34507,-0.0836 0.490243,-0.18751 0.14515,-0.10391 0.255682,-0.23752 0.331597,-0.40083 0.05958,-0.13339 0.08932,-0.27275 0.08923,-0.4181 -1.12e-4,-0.14534 -0.03005,-0.28489 -0.08982,-0.41867 -0.07558,-0.16243 -0.186058,-0.29561 -0.331436,-0.39956 -0.145401,-0.10393 -0.308672,-0.16644 -0.489812,-0.18754 l -0.08406,-0.009 -0.0032,-2.98217 -0.0032,-2.98222 -0.02966,-0.0955 c -0.04457,-0.14138 -0.112486,-0.26696 -0.203746,-0.37674 -0.09128,-0.10976 -0.199424,-0.19594 -0.324429,-0.25854 -0.06907,-0.0349 -0.133172,-0.0595 -0.192295,-0.0739 -0.05914,-0.0144 -0.131749,-0.023 -0.217821,-0.0259 -0.0609,-0.003 -0.109464,-0.003 -0.145676,8e-5 -0.03623,0.003 -0.07683,0.01 -0.121795,0.0209 -0.179271,0.0439 -0.334159,0.12822 -0.464664,0.2529 -0.130522,0.12472 -0.224752,0.27844 -0.282691,0.46117 l -0.02956,0.0956 -0.0032,2.98348 -0.0032,2.98346 -1.967747,0 -1.967767,0 -0.0032,-3.8368 c -8.68e-4,-1.1953 -0.002,-2.06849 -0.0033,-2.61958 -0.0013,-0.5510697 -0.0037,-0.9035397 -0.0071,-1.0574097 -0.0034,-0.15384 -0.0087,-0.23259 -0.01588,-0.23625 -0.03187,-0.10391 -0.07782,-0.20206 -0.137853,-0.29445 -0.06004,-0.0924 -0.128664,-0.17051 -0.205877,-0.23442 -0.0485,-0.0387 -0.109738,-0.077 -0.183718,-0.11489 -0.07399,-0.0379 -0.140962,-0.0652 -0.200922,-0.0821 -0.0587,-0.0145 -0.13246,-0.0231 -0.221295,-0.0259 -0.08884,-0.003 -0.161552,0.001 -0.218125,0.0119 z"/>
  <path   style="font-variant:normal;font-stretch:normal;font-family:OCRA;-inkscape-font-specification:OCRA" id="path4495" d="m 78.59238,13.518721 0,4.4131 2.986652,0 2.986654,0 0,2.39441 0,2.39444 -2.365771,-0.003 c -1.078495,-10e-4 -1.756793,-0.003 -2.034897,-0.006 -0.278115,-0.003 -0.413657,-0.01 -0.406625,-0.0206 -0.02748,-0.009 -0.127,-0.0497 -0.29856,-0.1215 -0.171569,-0.0717 -0.375594,-0.15818 -0.612077,-0.25931 -0.23659,-0.10119 -0.44193,-0.1883 -0.616017,-0.26133 -0.174096,-0.073 -0.276763,-0.11511 -0.308002,-0.12627 -0.240235,-0.0758 -0.473257,-0.0664 -0.699067,0.0282 -0.225816,0.0947 -0.397715,0.25499 -0.5157,0.48098 -0.06717,0.13823 -0.102055,0.28381 -0.104646,0.43676 -0.0026,0.15295 0.02736,0.29774 0.08987,0.43439 0.04195,0.0881 0.09875,0.17236 0.1704,0.25292 0.07164,0.0806 0.147037,0.14491 0.226185,0.19304 0.112289,0.0557 0.433047,0.19649 0.962274,0.42252 0.529219,0.22604 0.866082,0.36608 1.010588,0.42012 0.18135,0.0601 0.37578,0.10322 0.583292,0.12939 0.04497,0.0116 0.212234,0.0188 0.501789,0.0216 0.289543,0.003 0.996841,0.004 2.121894,0.003 1.238907,0.002 1.997877,-0.001 2.276912,-0.007 0.279013,-0.006 0.45064,-0.025 0.514872,-0.0559 0.211024,-0.0544 0.406936,-0.13922 0.587742,-0.25454 0.180779,-0.11532 0.341167,-0.25773 0.481164,-0.42725 0.202851,-0.24611 0.343799,-0.54329 0.422846,-0.89155 l 0.02896,-0.12736 0.0045,-2.57272 c 0.0015,-0.91531 0.0015,-1.5844 1.28e-4,-2.00727 -0.0015,-0.42287 -0.0049,-0.65168 -0.01,-0.68644 -0.05582,-0.43181 -0.218364,-0.80279 -0.487628,-1.11294 -0.269287,-0.31014 -0.611863,-0.52093 -1.02772,-0.63237 -0.07316,-0.0306 -0.232246,-0.0492 -0.477257,-0.0556 -0.245034,-0.006 -0.887063,-0.009 -1.926083,-0.008 l -2.041616,0 0,-2.38803 0,-2.38808 2.520531,0 c 1.029521,2.1e-4 1.719777,-7.5e-4 2.070765,-0.003 0.350965,-0.002 0.531865,-0.007 0.542708,-0.0145 0.246868,-0.0516 0.445725,-0.16793 0.596569,-0.34888 0.150813,-0.18092 0.228338,-0.39619 0.232563,-0.6458 -0.0042,-0.2495805 -0.08175,-0.4648505 -0.232563,-0.6458105 -0.150844,-0.18093 -0.349701,-0.29723 -0.596569,-0.34888 0.0011,-0.007 -0.23965,-0.0122 -0.722491,-0.0146 -0.482864,-0.002 -1.450702,-0.003 -2.903524,-0.003 l -3.533051,0 z"/>
  <path   style="font-variant:normal;font-stretch:normal;font-family:OCRA;-inkscape-font-specification:OCRA" id="path4497" d="m 118.34274,8.4459033 c -0.1061,0.0207 -0.19942,0.0532 -0.27998,0.0974 -0.0806,0.0442 -0.16129,0.10726 -0.24219,0.18912 -0.0835,0.0824 -0.1472,0.16426 -0.19122,0.2457 -0.044,0.0815 -0.0762,0.17703 -0.0964,0.28668 -0.005,0.0641 -0.01,0.56168 -0.013,1.4925997 -0.003,0.93095 -0.005,2.07859 -0.006,3.44291 -10e-4,1.36434 -10e-4,2.72868 6e-5,4.09301 0.001,1.36434 0.003,2.51198 0.007,3.44291 0.003,0.93094 0.008,1.42848 0.013,1.49261 0.0253,0.12578 0.0665,0.23871 0.12375,0.33877 0.0333,0.053 0.088,0.1176 0.1643,0.19381 0.0763,0.0762 0.14102,0.13106 0.19429,0.16456 0.0505,0.0292 0.10868,0.0553 0.17453,0.0783 0.0658,0.023 0.1295,0.0393 0.191,0.0491 0.0139,0.005 0.33726,0.009 0.96998,0.0107 0.63271,0.002 1.70613,0.002 3.22025,2.4e-4 1.27627,-0.001 2.20835,-0.002 2.79625,-0.004 0.58788,-0.002 0.96344,-0.004 1.12667,-0.007 0.16321,-0.003 0.24594,-0.009 0.24821,-0.0159 0.063,-0.0197 0.13116,-0.0485 0.20462,-0.0865 0.0734,-0.038 0.13344,-0.0755 0.18002,-0.11245 0.11121,-0.0905 0.19963,-0.20331 0.26527,-0.33832 0.0363,-0.0525 0.0617,-0.11854 0.0759,-0.19812 0.0142,-0.0796 0.0222,-0.31677 0.0241,-0.7116 0.002,-0.39483 0.002,-1.09138 0.002,-2.08966 7.6e-4,-0.99828 3e-4,-1.69483 -0.002,-2.08967 -0.002,-0.39483 -0.01,-0.63203 -0.0241,-0.71162 -0.0142,-0.0796 -0.0395,-0.1456 -0.0759,-0.19811 -0.0656,-0.13501 -0.15406,-0.24778 -0.26527,-0.33832 -0.0466,-0.037 -0.10658,-0.0745 -0.18002,-0.11245 -0.0735,-0.038 -0.14167,-0.0668 -0.20462,-0.0865 0.028,-0.0105 -0.16476,-0.0172 -0.57836,-0.0202 -0.41363,-0.003 -1.43397,-0.005 -3.06102,-0.006 l -3.56299,-0.003 0,-3.23883 0,-3.23882 0.11208,-0.0161 c 0.2553,-0.0418 0.46347,-0.15493 0.62449,-0.33952 0.16101,-0.1845597 0.24409,-0.4052397 0.24923,-0.6620297 7.6e-4,-0.26433 -0.0917,-0.49444 -0.27745,-0.69032 -0.15232,-0.16096 -0.33664,-0.26238 -0.55295,-0.30426 -0.10544,-0.0124 -0.3316,-0.0185 -0.67847,-0.0181 -0.34687,3.2e-4 -0.57159,0.007 -0.67415,0.0194 z m 7.13232,12.0548297 0,1.5411 -2.96756,0 -2.96754,0 0,-1.5411 0,-1.54107 2.96754,0 2.96756,0 z"/>
  <path   style="font-variant:normal;font-stretch:normal;font-family:OCRA;-inkscape-font-specification:OCRA" id="path4499" d="m 36.382577,45.78206 c -0.106097,0.0207 -0.199423,0.0532 -0.279979,0.0973 -0.08056,0.0442 -0.161294,0.10723 -0.242191,0.18909 -0.06362,0.063 -0.113308,0.12102 -0.149066,0.17414 -0.03575,0.0531 -0.06552,0.1131 -0.08927,0.17991 -0.02975,0.0724 -0.04868,0.15543 -0.05677,0.24913 -0.0081,0.0937 -0.01163,0.27051 -0.01057,0.53033 -0.0011,0.25987 0.0026,0.43666 0.01057,0.53036 0.0081,0.0937 0.02696,0.17676 0.05665,0.24912 0.02254,0.063 0.05059,0.12049 0.08418,0.1726 0.0336,0.0521 0.07806,0.1071 0.13339,0.16491 0.169038,0.17884 0.375112,0.28295 0.618221,0.31233 0.107411,0.0127 0.217061,0.006 0.328954,-0.0196 0.111885,-0.0256 0.215777,-0.0681 0.311674,-0.12736 0.06033,-0.0389 0.123702,-0.0924 0.190112,-0.16046 0.0664,-0.068 0.117729,-0.1321 0.153977,-0.1922 0.02231,-0.0391 0.04455,-0.0879 0.0667,-0.14631 0.02216,-0.0584 0.03884,-0.1124 0.05009,-0.1619 l 0.0078,-0.0357 2.973922,0 2.973903,0 0,1.8143 0,1.81425 -1.813004,1.54749 c -0.512478,0.43755 -0.947832,0.81097 -1.306068,1.12023 -0.358252,0.30928 -0.556278,0.48268 -0.594089,0.52019 -0.09637,0.10059 -0.164979,0.20927 -0.205818,0.32603 -0.02303,0.044 -0.03933,0.11292 -0.04885,0.20681 -0.0095,0.0939 -0.01514,0.3352 -0.0168,0.72391 -0.0015,0.38871 -0.0023,1.04729 -0.0019,1.97572 -3.77e-4,0.92845 1.21e-4,1.58702 0.0019,1.97573 0.0015,0.38871 0.0072,0.63001 0.01676,0.7239 0.0095,0.0939 0.02575,0.16281 0.04876,0.20679 0.02375,0.0668 0.05351,0.12678 0.08928,0.17991 0.03575,0.0531 0.08545,0.11118 0.149058,0.17416 0.06426,0.065 0.123691,0.11556 0.178303,0.15167 0.0546,0.0361 0.117427,0.0664 0.188492,0.0909 0.267509,0.0957 0.529457,0.0806 0.785836,-0.0453 0.20601,-0.0995 0.358727,-0.25234 0.458153,-0.45836 0.03613,-0.0546 0.06133,-0.11874 0.07555,-0.19236 0.0142,-0.0736 0.0225,-0.28533 0.02488,-0.63517 0.0023,-0.34983 0.0038,-0.96638 0.0044,-1.84965 l 0.0038,-2.40968 1.813004,-1.54748 c 0.512467,-0.43754 0.947828,-0.81094 1.306087,-1.12021 0.358233,-0.30926 0.556262,-0.48266 0.594089,-0.5202 0.09633,-0.10057 0.164941,-0.20926 0.205821,-0.32605 0.02314,-0.0407 0.03949,-0.1126 0.04901,-0.21575 0.0095,-0.10312 0.01506,-0.38171 0.01673,-0.83575 0.0015,-0.45401 0.0023,-1.22771 0.0019,-2.32108 l 0,-3.1 -4.537282,10e-4 c -1.80366,3.8e-4 -3.026782,0.002 -3.669377,0.004 -0.642599,0.003 -0.959506,0.007 -0.95072,0.0137 z"/>
  <path   style="font-variant:normal;font-stretch:normal;font-family:OCRA;-inkscape-font-specification:OCRA" id="path4501" d="m 79.27883,45.78206 c -0.106105,0.0207 -0.199437,0.0532 -0.279998,0.0973 -0.08056,0.0442 -0.161298,0.10723 -0.242191,0.18909 -0.06362,0.063 -0.113304,0.12102 -0.149069,0.17414 -0.03579,0.0531 -0.06554,0.1131 -0.08929,0.17991 -0.02307,0.0419 -0.03937,0.11274 -0.04887,0.21254 -0.0095,0.0998 -0.01506,0.36505 -0.01673,0.79567 -0.0015,0.43065 -0.0023,1.16316 -0.0019,2.19751 l 0,2.9319 -0.112074,0.009 c -0.44153,0.0409 -0.825035,0.19812 -1.150516,0.4718 -0.325492,0.27369 -0.545883,0.62419 -0.661182,1.05152 -0.03092,0.0619 -0.0495,0.23679 -0.05578,0.52462 -0.0063,0.28785 -0.0087,1.07669 -0.0073,2.36651 -0.0015,1.28983 0.0011,2.07867 0.0073,2.36651 0.0063,0.28784 0.02496,0.46272 0.05593,0.52462 0.07649,0.29211 0.208521,0.55321 0.3961,0.78329 0.297561,0.36269 0.689981,0.59885 1.177258,0.70847 l 0.127361,0.029 3.145855,0.004 c 1.123058,0.002 1.940172,0.002 2.451341,1.6e-4 0.511149,-0.002 0.782984,-0.005 0.815506,-0.01 0.27062,-0.0325 0.520229,-0.11083 0.748836,-0.23488 0.22858,-0.12405 0.42863,-0.28977 0.600144,-0.49714 0.202934,-0.24612 0.343924,-0.5433 0.42297,-0.89155 l 0.02896,-0.12737 0.0043,-2.57272 c 0.0034,-1.28273 0.0023,-2.0768 -0.003,-2.3822 -0.0053,-0.3054 -0.0211,-0.48778 -0.04754,-0.54715 -0.08919,-0.37379 -0.264134,-0.69408 -0.52482,-0.96087 -0.260706,-0.26677 -0.577314,-0.44951 -0.949826,-0.5482 -0.06305,-0.0155 -0.137022,-0.0298 -0.221924,-0.0427 -0.08492,-0.0129 -0.150198,-0.0199 -0.195824,-0.0209 l -0.05349,-3e-4 -0.003,-2.98282 c -3.44e-4,-1.09399 -0.0015,-1.85584 -0.0038,-2.28556 -0.0023,-0.42969 -0.0105,-0.68549 -0.02481,-0.76739 -0.01435,-0.0819 -0.03982,-0.14808 -0.07646,-0.19864 -0.09967,-0.206 -0.252513,-0.35871 -0.458531,-0.45813 -0.04958,-0.0525 -0.177763,-0.0832 -0.384551,-0.0922 -0.206807,-0.009 -0.876767,-0.0127 -2.009886,-0.0114 -0.841232,-10e-4 -1.416383,-7.6e-4 -1.725452,0.001 -0.309076,0.002 -0.470499,0.006 -0.484268,0.0129 z m 3.145852,4.39387 0,2.38803 -0.974317,0 -0.974335,0 0,-2.38803 0,-2.38807 0.974335,0 0.974317,0 z m 1.999586,6.80751 0,2.39444 -2.96756,0 -2.967538,0 0,-2.39444 0,-2.39441 2.967538,0 2.96756,0 z"/>
  <path   style="font-variant:normal;font-stretch:normal;font-family:OCRA;-inkscape-font-specification:OCRA" id="path4503" d="m 117.52249,45.78206 c -0.1061,0.0207 -0.19942,0.0532 -0.27998,0.0973 -0.0806,0.0442 -0.1613,0.10723 -0.24219,0.18909 -0.0835,0.0824 -0.14721,0.16426 -0.19123,0.2457 -0.044,0.0815 -0.0762,0.17703 -0.0965,0.28668 -0.009,0.10888 -0.015,0.59078 -0.018,1.4457 -0.003,0.85494 -0.003,1.70987 0,2.5648 0.003,0.85494 0.009,1.33684 0.018,1.44571 0.0203,0.10967 0.0525,0.20523 0.0965,0.28667 0.044,0.0815 0.10776,0.16337 0.19123,0.24571 0.063,0.0636 0.12101,0.11329 0.17414,0.14905 0.0531,0.0358 0.11311,0.0655 0.17993,0.0893 0.0377,0.0232 0.1122,0.0396 0.22348,0.0491 0.11127,0.01 0.42292,0.015 0.93497,0.0166 0.51203,0.002 1.38805,0.002 2.62805,0.002 l 3.51391,0 0,3.23881 0,3.23885 -0.11461,0.0155 c -0.17102,0.0241 -0.32407,0.0844 -0.45914,0.18108 -0.13509,0.0967 -0.24243,0.22258 -0.32202,0.37782 -0.0536,0.10806 -0.0864,0.22491 -0.0982,0.35057 -0.0119,0.12566 -0.002,0.24485 0.0314,0.35755 0.0288,0.097 0.0659,0.18291 0.11121,0.25772 0.0453,0.0748 0.10282,0.14494 0.17248,0.21038 0.10217,0.0984 0.2168,0.17003 0.3439,0.21487 0.0709,0.0302 0.15966,0.0489 0.26625,0.0561 0.10658,0.007 0.32053,0.009 0.64185,0.005 0.32694,-3.7e-4 0.53496,-0.006 0.62406,-0.0167 0.0891,-0.0106 0.17612,-0.0402 0.2611,-0.0886 0.20602,-0.0994 0.35889,-0.25209 0.45862,-0.45811 0.0161,-0.0332 0.0315,-0.0683 0.0463,-0.10534 0.0148,-0.037 0.0256,-0.0677 0.0325,-0.0921 0.007,0.0118 0.0124,-0.11418 0.0157,-0.37786 0.003,-0.26369 0.005,-0.89465 0.006,-1.89289 7.5e-4,-0.99822 10e-4,-2.59327 10e-4,-4.78513 1.1e-4,-2.19186 -2.4e-4,-3.7869 -10e-4,-4.78515 -7.6e-4,-0.99822 -0.003,-1.62918 -0.006,-1.89288 -0.003,-0.26367 -0.009,-0.38963 -0.0158,-0.37786 -0.0293,-0.10352 -0.0743,-0.20237 -0.13469,-0.29654 -0.0605,-0.0941 -0.13017,-0.1738 -0.2091,-0.23895 -0.0466,-0.037 -0.10658,-0.0746 -0.18002,-0.11262 -0.0735,-0.038 -0.14167,-0.0669 -0.20463,-0.0866 -0.002,-0.007 -0.0849,-0.0125 -0.24861,-0.0159 -0.16369,-0.003 -0.54125,-0.006 -1.1327,-0.007 -0.59146,-10e-4 -1.52989,-0.002 -2.81528,-0.002 -1.64417,-7.6e-4 -2.75714,-3.5e-4 -3.33892,0.002 -0.58178,0.002 -0.86981,0.006 -0.86407,0.0131 z m 7.13231,3.54689 0,1.5411 -2.96756,0 -2.96753,0 0,-1.5411 0,-1.54109 2.96753,0 2.96756,0 z"/>
  <path   style="font-variant:normal;font-stretch:normal;font-family:OCRA;-inkscape-font-specification:OCRA" id="path4505" d="m 78.60548,83.113137 c -0.422034,0.0586 -0.786609,0.22302 -1.09373,0.49338 -0.307128,0.27039 -0.515831,0.61062 -0.626104,1.02067 -0.02182,0.0416 -0.03719,0.15098 -0.0461,0.3281 -0.0089,0.17715 -0.01412,0.69457 -0.01559,1.55224 -0.0015,0.85769 -0.0019,2.32816 -0.0015,4.41139 -3.78e-4,2.08324 5.6e-5,3.5537 0.0015,4.41138 0.0015,0.85768 0.0067,1.37509 0.01559,1.55223 0.0089,0.17713 0.02428,0.2865 0.0461,0.32809 0.07649,0.29211 0.208522,0.55321 0.396101,0.7833 0.297561,0.36269 0.68998,0.59884 1.177261,0.70847 l 0.127357,0.029 3.145856,0.004 c 1.123057,0.002 1.940172,0.002 2.45134,1.5e-4 0.51115,-0.002 0.782985,-0.005 0.815507,-0.01 0.27062,-0.0325 0.520289,-0.11084 0.749009,-0.23489 0.228701,-0.12405 0.428909,-0.28976 0.600624,-0.49714 0.202571,-0.2452 0.343701,-0.54238 0.423397,-0.89155 l 0.02915,-0.12736 0.0038,-5.97332 c 0.0015,-2.14851 0.0015,-3.69611 -2.68e-4,-4.64281 -0.0015,-0.94667 -0.005,-1.4305 -0.01008,-1.45149 -0.05548,-0.43125 -0.218104,-0.80211 -0.48787,-1.11258 -0.269793,-0.31044 -0.612743,-0.52138 -1.028853,-0.63281 -0.06155,-0.0214 -0.152177,-0.0365 -0.271873,-0.0454 -0.119719,-0.009 -0.410949,-0.014 -0.873698,-0.0154 -0.462763,-0.002 -1.239484,-0.002 -2.330164,-3.8e-4 -0.879798,7.6e-4 -1.62103,0.002 -2.2237,0.004 -0.602674,0.002 -0.927037,0.005 -0.973082,0.008 z m 6.177074,7.80578 0,5.79501 -2.967564,0 -2.967538,0 0,-5.79501 0,-5.79501 2.967538,0 2.967564,0 z"/>
  <path   style="font-variant:normal;font-stretch:normal;font-family:OCRA;-inkscape-font-specification:OCRA" id="path4507" d="m 41.015542,84.831277 c -0.175399,0.0459 -0.327432,0.13122 -0.456103,0.25608 -0.128682,0.12489 -0.221524,0.27717 -0.278525,0.45683 l -0.02952,0.0955 -0.0063,1.53854 -0.0064,1.53854 -1.183204,-1.01188 c -0.33453,-0.28597 -0.619689,-0.52819 -0.855477,-0.72666 -0.235799,-0.19844 -0.367535,-0.30711 -0.395209,-0.32599 -0.08277,-0.0502 -0.167173,-0.087 -0.253204,-0.11029 -0.08604,-0.0232 -0.179522,-0.0346 -0.280447,-0.0341 -0.06089,-1.6e-4 -0.109443,0.002 -0.145664,0.007 -0.03624,0.005 -0.07682,0.0142 -0.121785,0.0282 -0.218813,0.0664 -0.394186,0.18606 -0.526122,0.35895 -0.071,0.0929 -0.123204,0.18872 -0.156606,0.28752 -0.03341,0.0988 -0.04994,0.20635 -0.04962,0.32256 -0.0015,0.28675 0.103299,0.53167 0.314596,0.73478 0.03545,0.0332 0.203568,0.17921 0.504387,0.43814 0.300812,0.25896 0.664629,0.57081 1.091446,0.93555 0.426191,0.36423 0.781539,0.66872 1.066037,0.91347 0.284491,0.24477 0.432232,0.37311 0.443222,0.385 -0.01099,0.0119 -0.158731,0.14025 -0.443222,0.385 -0.284498,0.24477 -0.639846,0.54925 -1.066037,0.91345 -0.426817,0.36477 -0.790634,0.67662 -1.091446,0.93556 -0.300819,0.25894 -0.468947,0.40499 -0.504387,0.43813 -0.211297,0.20312 -0.316163,0.44806 -0.314596,0.73482 -3.25e-4,0.11622 0.01623,0.22373 0.04962,0.32254 0.03341,0.0988 0.0856,0.19465 0.156606,0.28752 0.131933,0.17289 0.307309,0.29255 0.526122,0.35897 0.04496,0.0141 0.08556,0.0235 0.121777,0.0282 0.03621,0.005 0.08477,0.007 0.145672,0.007 0.100925,3.8e-4 0.194405,-0.0108 0.280447,-0.0341 0.08603,-0.0233 0.170435,-0.06 0.253204,-0.11029 0.02767,-0.0189 0.15941,-0.12754 0.395205,-0.32599 0.235792,-0.19844 0.520951,-0.44066 0.855481,-0.72664 l 1.183204,-1.0119 0.0064,1.53856 0.0063,1.53851 0.02937,0.0955 c 0.05759,0.18276 0.151666,0.33649 0.282214,0.4612 0.130536,0.12471 0.285638,0.20903 0.465311,0.25295 0.04498,0.0111 0.08558,0.0181 0.1218,0.0209 0.03621,0.003 0.08476,0.003 0.145649,9e-5 0.08609,-0.003 0.158704,-0.0114 0.21785,-0.0258 0.05913,-0.0144 0.123227,-0.039 0.192287,-0.0738 0.124952,-0.0625 0.233224,-0.14881 0.324816,-0.25896 0.09157,-0.11015 0.159441,-0.23566 0.203591,-0.37653 l 0.02945,-0.0955 0.0064,-1.53852 0.0063,-1.53855 1.171742,1.00171 c 0.331136,0.28304 0.611968,0.52229 0.842504,0.71777 0.230514,0.19547 0.35724,0.30182 0.380172,0.31903 0.09887,0.0669 0.209673,0.11526 0.33239,0.14494 0.122698,0.0297 0.242006,0.037 0.357923,0.0221 0.17196,-0.0248 0.325888,-0.0854 0.461782,-0.1818 0.13587,-0.0964 0.242028,-0.22034 0.318469,-0.37179 0.03711,-0.0741 0.06396,-0.14646 0.08054,-0.21704 0.01657,-0.0706 0.02469,-0.14724 0.02439,-0.22999 3.78e-4,-0.084 -0.0079,-0.16167 -0.02507,-0.23292 -0.01718,-0.0712 -0.046,-0.14771 -0.08641,-0.22942 -0.02205,-0.0462 -0.04518,-0.0858 -0.06934,-0.11869 -0.0242,-0.0329 -0.05944,-0.0727 -0.105754,-0.11947 -0.04408,-0.0432 -0.219409,-0.19754 -0.525987,-0.46307 -0.306599,-0.26552 -0.67341,-0.58071 -1.100438,-0.94555 -0.426187,-0.36404 -0.781524,-0.66838 -1.066015,-0.91303 -0.284506,-0.24463 -0.432246,-0.3729 -0.443222,-0.38481 0.01099,-0.0119 0.158716,-0.14016 0.443226,-0.38482 0.284487,-0.24463 0.639824,-0.54897 1.066011,-0.91301 0.427028,-0.36483 0.793843,-0.68001 1.100438,-0.94555 0.306578,-0.26552 0.481905,-0.41988 0.525987,-0.46309 0.04631,-0.0468 0.08157,-0.0866 0.105754,-0.11947 0.02416,-0.0329 0.04728,-0.0724 0.06934,-0.11868 0.04042,-0.0817 0.0692,-0.15817 0.08635,-0.22942 0.01714,-0.0712 0.02541,-0.14887 0.02484,-0.2329 -0.0051,-0.25999 -0.08869,-0.48158 -0.250667,-0.66476 -0.162,-0.18315 -0.373413,-0.2951 -0.63424,-0.33586 -0.115917,-0.015 -0.235225,-0.008 -0.357923,0.022 -0.122717,0.0297 -0.233515,0.078 -0.33239,0.14493 -0.02292,0.0172 -0.149658,0.12356 -0.380171,0.31902 -0.230536,0.19549 -0.511369,0.43475 -0.842505,0.71778 l -1.171742,1.00169 -0.0063,-1.53853 -0.0064,-1.53855 -0.02945,-0.0955 c -0.04415,-0.14085 -0.112018,-0.26636 -0.203591,-0.37652 -0.09159,-0.11013 -0.199864,-0.19645 -0.324816,-0.25895 -0.0713,-0.0361 -0.136645,-0.0611 -0.196025,-0.075 -0.0594,-0.0138 -0.135002,-0.0217 -0.226821,-0.0235 -0.06504,-0.002 -0.11611,-0.002 -0.153222,0.001 -0.03711,0.003 -0.07522,0.01 -0.114268,0.0199 z"/>
  <path   style="font-variant:normal;font-stretch:normal;font-family:OCRA;-inkscape-font-specification:OCRA" id="path4509" d="m 120.04679,84.474421 c -0.1078,0.0222 -0.20167,0.0553 -0.28158,0.0994 -0.0799,0.044 -0.16013,0.10685 -0.24061,0.1884 -0.0636,0.063 -0.1133,0.12103 -0.14907,0.17414 -0.0358,0.0531 -0.0655,0.11312 -0.0893,0.17993 -0.0324,0.061 -0.0521,0.16922 -0.059,0.32479 -0.007,0.1556 -0.01,0.54957 -0.008,1.18191 l 0,1.23286 -0.57632,0.004 c -0.26359,0.002 -0.43295,0.004 -0.50807,0.008 -0.0751,0.004 -0.12886,0.0119 -0.1612,0.0248 -0.22899,0.0719 -0.40914,0.1943 -0.54044,0.36731 -0.1313,0.17304 -0.19825,0.37621 -0.20083,0.60951 0.003,0.23276 0.0698,0.43581 0.20131,0.60913 0.13154,0.17334 0.31152,0.29589 0.53996,0.36763 0.0324,0.0129 0.0861,0.0211 0.1612,0.0248 0.0751,0.004 0.24448,0.006 0.50807,0.008 l 0.57632,0.004 0,1.11314 0,1.11316 -0.57632,0.004 c -0.26359,0.002 -0.43295,0.004 -0.50807,0.008 -0.0751,0.004 -0.12886,0.0119 -0.1612,0.0248 -0.22899,0.0719 -0.40914,0.19429 -0.54044,0.36731 -0.1313,0.17302 -0.19825,0.37619 -0.20083,0.60948 0.003,0.2333 0.0695,0.43646 0.20083,0.60948 0.1313,0.17303 0.31145,0.29547 0.54044,0.36731 0.0324,0.0129 0.0861,0.0211 0.1612,0.0248 0.0751,0.004 0.24448,0.006 0.50807,0.008 l 0.57632,0.004 0,1.23986 c -1.7e-4,0.49433 0.001,0.8337 0.003,1.0181 0.003,0.18441 0.007,0.28932 0.0144,0.31474 0.0516,0.2469 0.16793,0.44576 0.34888,0.59658 0.18094,0.15083 0.39621,0.22835 0.6458,0.23256 0.24959,-0.004 0.46486,-0.0817 0.64581,-0.23256 0.18095,-0.15082 0.29724,-0.34968 0.34889,-0.59658 0.007,-0.0254 0.0119,-0.13044 0.0144,-0.31504 0.003,-0.1846 0.004,-0.52407 0.003,-1.01843 l 0,-1.24052 0.97433,0 0.97432,0 0,1.24052 c -1.8e-4,0.49436 0.001,0.83383 0.003,1.01843 0.003,0.1846 0.007,0.28962 0.0144,0.31504 0.0516,0.2469 0.16793,0.44576 0.34888,0.59658 0.18092,0.15083 0.39619,0.22835 0.64579,0.23256 0.24959,-0.004 0.46486,-0.0817 0.64582,-0.23256 0.18093,-0.15082 0.29723,-0.34968 0.34888,-0.59658 0.007,-0.0254 0.0119,-0.13044 0.0144,-0.31504 0.003,-0.1846 0.004,-0.52408 0.003,-1.01843 l 0,-1.24052 0.53365,0 c 0.19943,1.1e-4 0.3458,-0.001 0.43913,-0.004 0.0933,-0.003 0.1558,-0.007 0.18751,-0.014 0.24687,-0.0517 0.44572,-0.16795 0.59656,-0.3489 0.15082,-0.18094 0.22834,-0.39621 0.23257,-0.6458 -0.004,-0.24958 -0.0817,-0.46484 -0.23257,-0.6458 -0.15084,-0.18093 -0.34969,-0.29723 -0.59656,-0.34888 -0.0317,-0.007 -0.0942,-0.0114 -0.18751,-0.014 -0.0933,-0.003 -0.2397,-0.004 -0.43913,-0.004 l -0.53365,0 0,-1.11443 0,-1.1144 0.53365,0 c 0.19943,1.1e-4 0.3458,-0.001 0.43913,-0.004 0.0933,-0.003 0.1558,-0.007 0.18751,-0.014 0.24687,-0.0516 0.44572,-0.16792 0.59656,-0.34888 0.15082,-0.18093 0.22834,-0.39619 0.23257,-0.64577 -0.004,-0.24959 -0.0817,-0.46486 -0.23257,-0.64582 -0.15084,-0.18093 -0.34969,-0.29723 -0.59656,-0.34888 -0.0317,-0.007 -0.0941,-0.0114 -0.18723,-0.014 -0.0931,-0.003 -0.23938,-0.004 -0.43877,-0.004 l -0.53302,0 -0.004,-1.28253 c 2.2e-4,-0.68146 -0.004,-1.09239 -0.014,-1.23276 -0.01,-0.14036 -0.0401,-0.24653 -0.0916,-0.31853 -0.0994,-0.206 -0.25211,-0.35879 -0.45813,-0.45836 -0.25638,-0.12593 -0.51833,-0.14104 -0.78584,-0.0453 -0.0711,0.0245 -0.13389,0.0548 -0.18848,0.0909 -0.0546,0.0361 -0.11405,0.0867 -0.17831,0.15168 -0.0636,0.063 -0.11331,0.12103 -0.14907,0.17414 -0.0358,0.0531 -0.0655,0.11312 -0.0893,0.17993 -0.0324,0.061 -0.0521,0.16922 -0.059,0.32479 -0.007,0.1556 -0.01,0.54957 -0.008,1.18191 l 0,1.23413 -0.97369,0 -0.9737,0 -0.004,-1.28253 c 2.3e-4,-0.68146 -0.004,-1.09239 -0.014,-1.23276 -0.01,-0.14036 -0.0401,-0.24653 -0.0916,-0.31853 -0.0994,-0.206 -0.25211,-0.35888 -0.45812,-0.45861 -0.0332,-0.0161 -0.0677,-0.0312 -0.1035,-0.0456 -0.0358,-0.0143 -0.065,-0.0245 -0.0876,-0.0308 -0.0587,-0.0144 -0.13247,-0.023 -0.2213,-0.0259 -0.0888,-0.003 -0.16154,0.001 -0.21809,0.012 z m 3.14585,6.52216 0,1.11442 -0.97431,0 -0.97434,0 0,-1.11442 0,-1.11441 0.97434,0 0.97431,0 z"/>
 </g>
 <path  stroke-opacity="1" fill="none"  stroke="#d7cfbd" style="stroke-miterlimit:4;stroke-dasharray:none;stroke-dashoffset:0" id="connector21pin" stroke-width="1.5" d="m 53.173289,188.08158 a 2.10913,2.10913 0 0 1 -4.21826,0 2.10913,2.10913 0 1 1 4.21826,0 z"/>
 <path  stroke-opacity="1" fill="none"  stroke="#d7cfbd" style="stroke-miterlimit:4;stroke-dasharray:none;stroke-dashoffset:0" id="connector22pin" stroke-width="1.5" d="m 60.327379,188.08223 a 2.1091301,2.1091301 0 0 1 -4.21826,0 2.1091301,2.1091301 0 1 1 4.21826,0 z"/>
 <path  stroke-opacity="1" fill="none"  stroke="#d7cfbd" style="stroke-miterlimit:4;stroke-dasharray:none;stroke-dashoffset:0" id="connector29pin" stroke-width="1.5" d="m 46.019199,188.08158 a 2.10913,2.10913 0 0 1 -4.21826,0 2.10913,2.10913 0 1 1 4.21826,0 z"/>
 <path  stroke-opacity="1" fill="none"  stroke="#d7cfbd" style="stroke-miterlimit:4;stroke-dasharray:none;stroke-dashoffset:0" id="connector23pin" stroke-width="1.5" d="m 67.481469,188.08223 a 2.1091301,2.1091301 0 0 1 -4.21826,0 2.1091301,2.1091301 0 1 1 4.21826,0 z"/>
 <path  stroke-opacity="1" fill="none"  stroke="#d7cfbd" style="stroke-miterlimit:4;stroke-dasharray:none;stroke-dashoffset:0" id="connector24pin" stroke-width="1.5" d="m 74.635559,188.08288 a 2.1091301,2.1091301 0 0 1 -4.21826,0 2.1091301,2.1091301 0 1 1 4.21826,0 z"/>
 <path  stroke-opacity="1" fill="none"  stroke="#d7cfbd" style="stroke-miterlimit:4;stroke-dasharray:none;stroke-dashoffset:0" id="connector25pin" stroke-width="1.5" d="m 81.789649,188.08288 a 2.1091301,2.1091301 0 0 1 -4.21826,0 2.1091301,2.1091301 0 1 1 4.21826,0 z"/>
 <path  stroke-opacity="1" fill="none"  stroke="#d7cfbd" style="stroke-miterlimit:4;stroke-dasharray:none;stroke-dashoffset:0" id="connector26pin" stroke-width="1.5" d="m 88.943744,188.08353 a 2.1091325,2.1091325 0 0 1 -4.218265,0 2.1091325,2.1091325 0 1 1 4.218265,0 z"/>
 <path  stroke-opacity="1" fill="none"  stroke="#d7cfbd" style="stroke-miterlimit:4;stroke-dasharray:none;stroke-dashoffset:0" id="connector27pin" stroke-width="1.5" d="m 96.09784,188.08353 a 2.109135,2.109135 0 0 1 -4.21827,0 2.109135,2.109135 0 1 1 4.21827,0 z"/>
 <path  stroke-opacity="1" fill="none"  stroke="#d7cfbd" style="stroke-miterlimit:4;stroke-dasharray:none;stroke-dashoffset:0" id="connector28pin" stroke-width="1.5" d="m 103.25192,188.08418 a 2.1091301,2.1091301 0 0 1 -4.21826,0 2.1091301,2.1091301 0 1 1 4.21826,0 z"/>
</svg>
