<?xml version="1.0" encoding="utf-8"?>
<!-- Generator: Adobe Illustrator 17.1.0, SVG Export Plug-In . SVG Version: 6.00 Build 0)  -->
<!DOCTYPE svg PUBLIC "-//W3C//DTD SVG 1.1//EN" "http://www.w3.org/Graphics/SVG/1.1/DTD/svg11.dtd">
<svg version="1.1" id="Layer_1" xmlns="http://www.w3.org/2000/svg" xmlns:xlink="http://www.w3.org/1999/xlink" x="0px" y="0px"
	 width="64.8px" height="39.6px" viewBox="0 0 64.8 39.6" enable-background="new 0 0 64.8 39.6" xml:space="preserve">
<desc>Fritzing breadboard generated by brd2svg</desc>
<g id="breadboard">
	<g id="icon">
		<path fill="#C62717" d="M0,39.6h64.8V0H0V39.6 M2.5,7.2c0-2.6,2.1-4.7,4.7-4.7s4.7,2.1,4.7,4.7c0,0,0,0,0,0c0,2.6-2.1,4.7-4.7,4.7
			S2.5,9.8,2.5,7.2C2.5,7.2,2.5,7.2,2.5,7.2z M52.9,7.2c0-2.6,2.1-4.7,4.7-4.7s4.7,2.1,4.7,4.7s-2.1,4.7-4.7,4.7S52.9,9.8,52.9,7.2z
			 M2.2,36c0-0.8,0.6-1.4,1.4-1.4C4.4,34.6,5,35.2,5,36c0,0,0,0,0,0c0,0.8-0.6,1.4-1.4,1.4S2.2,36.8,2.2,36z M9.4,36
			c0-0.8,0.6-1.4,1.4-1.4c0.8,0,1.4,0.6,1.4,1.4s-0.6,1.4-1.4,1.4C10,37.4,9.4,36.8,9.4,36z M16.6,36c0-0.8,0.6-1.4,1.4-1.4
			c0.8,0,1.4,0.6,1.4,1.4c0,0,0,0,0,0c0,0.8-0.6,1.4-1.4,1.4S16.6,36.8,16.6,36z M23.8,36c0-0.8,0.6-1.4,1.4-1.4
			c0.8,0,1.4,0.6,1.4,1.4c0,0,0,0,0,0c0,0.8-0.6,1.4-1.4,1.4S23.8,36.8,23.8,36z M31,36c0-0.8,0.6-1.4,1.4-1.4
			c0.8,0,1.4,0.6,1.4,1.4s-0.6,1.4-1.4,1.4C31.6,37.4,31,36.8,31,36z M38.2,36c0-0.8,0.6-1.4,1.4-1.4c0.8,0,1.4,0.6,1.4,1.4
			s-0.6,1.4-1.4,1.4C38.8,37.4,38.2,36.8,38.2,36z M45.4,36c0-0.8,0.6-1.4,1.4-1.4c0.8,0,1.4,0.6,1.4,1.4s-0.6,1.4-1.4,1.4
			C46,37.4,45.4,36.8,45.4,36z M52.6,36c0-0.8,0.6-1.4,1.4-1.4c0.8,0,1.4,0.6,1.4,1.4s-0.6,1.4-1.4,1.4C53.2,37.4,52.6,36.8,52.6,36
			z M59.8,36c0-0.8,0.6-1.4,1.4-1.4c0.8,0,1.4,0.6,1.4,1.4s-0.6,1.4-1.4,1.4C60.4,37.4,59.8,36.8,59.8,36z"/>
		<g>
			<title>layer 21</title>
			<line fill="none" stroke="#FFFFFF" stroke-width="0.72" stroke-linecap="round" x1="35.6" y1="18.7" x2="37.1" y2="17.3"/>
			<line fill="none" stroke="#FFFFFF" stroke-width="0.72" stroke-linecap="round" x1="35.6" y1="18.7" x2="34.2" y2="17.3"/>
			<line fill="none" stroke="#FFFFFF" stroke-width="0.72" stroke-linecap="round" x1="42.8" y1="3.2" x2="51.8" y2="3.2"/>
			<line fill="none" stroke="#FFFFFF" stroke-width="0.72" stroke-linecap="round" x1="51.8" y1="3.2" x2="50.8" y2="2.2"/>
			<line fill="none" stroke="#FFFFFF" stroke-width="0.72" stroke-linecap="round" x1="51.8" y1="3.2" x2="50.8" y2="4.3"/>
			<line fill="none" stroke="#FFFFFF" stroke-width="0.72" stroke-linecap="round" x1="35.6" y1="18.7" x2="35.6" y2="9.7"/>
			<circle fill="none" stroke="#FFFFFF" stroke-width="0.72" cx="39.2" cy="7.6" r="0.5"/>
			<circle fill="none" stroke="#FFFFFF" stroke-width="0.72" cx="39.2" cy="7.6" r="2.2"/>
			<g>
				<title>text:GND</title>
				<g transform="matrix(1, 0, 0, 1, 55.08, 31.68)">
					<g transform="rotate(270)">
						<text transform="matrix(1 0 0 1 3.125000e-04 1.508984e-05)" fill="#FFFFFF" font-family="'OCRA'" font-size="2.6726">GND</text>
					</g>
				</g>
			</g>
			<g>
				<title>text:VCC</title>
				<g transform="matrix(1, 0, 0, 1, 62.28, 31.68)">
					<g transform="rotate(270)">
						<text transform="matrix(1 0 0 1 3.125000e-04 3.029687e-05)" fill="#FFFFFF" font-family="'OCRA'" font-size="2.6726">VCC</text>
					</g>
				</g>
			</g>
			<g>
				<title>text:ZOUT</title>
				<g transform="matrix(1, 0, 0, 1, 47.88, 31.68)">
					<g transform="rotate(270)">
						<text transform="matrix(1 0 0 1 3.125000e-04 0)" fill="#FFFFFF" font-family="'OCRA'" font-size="2.6726">ZOUT</text>
					</g>
				</g>
			</g>
			<g>
				<title>text:YOUT</title>
				<g transform="matrix(1, 0, 0, 1, 40.68, 31.68)">
					<g transform="rotate(270)">
						<text transform="matrix(1 0 0 1 3.125000e-04 -7.324220e-06)" fill="#FFFFFF" font-family="'OCRA'" font-size="2.6726">YOUT</text>
					</g>
				</g>
			</g>
			<g>
				<title>text:XOUT</title>
				<g transform="matrix(1, 0, 0, 1, 33.48, 31.68)">
					<g transform="rotate(270)">
						<text transform="matrix(1 0 0 1 3.125000e-04 -1.953125e-05)" fill="#FFFFFF" font-family="'OCRA'" font-size="2.6726">XOUT</text>
					</g>
				</g>
			</g>
			<g>
				<title>text:SLP</title>
				<g transform="matrix(1, 0, 0, 1, 26.28, 31.68)">
					<g transform="rotate(270)">
						<text transform="matrix(1 0 0 1 3.125000e-04 2.829687e-05)" fill="#FFFFFF" font-family="'OCRA'" font-size="2.6726">SLP</text>
					</g>
				</g>
			</g>
			<g>
				<title>text:0GD</title>
				<g transform="matrix(1, 0, 0, 1, 19.08, 31.68)">
					<g transform="rotate(270)">
						<text transform="matrix(1 0 0 1 3.125000e-04 1.708984e-05)" fill="#FFFFFF" font-family="'OCRA'" font-size="2.6726">0GD</text>
					</g>
				</g>
			</g>
			<g>
				<title>text:GSEL</title>
				<g transform="matrix(1, 0, 0, 1, 11.88, 31.68)">
					<g transform="rotate(270)">
						<text transform="matrix(1 0 0 1 3.125000e-04 0)" fill="#FFFFFF" font-family="'OCRA'" font-size="2.6726">GSEL</text>
					</g>
				</g>
			</g>
			<g>
				<title>text:ST</title>
				<g transform="matrix(1, 0, 0, 1, 4.68, 31.68)">
					<g transform="rotate(270)">
						<text transform="matrix(1 0 0 1 3.125000e-04 -7.324220e-06)" fill="#FFFFFF" font-family="'OCRA'" font-size="2.6726">ST</text>
					</g>
				</g>
			</g>
			<g>
				<title>text:X</title>
				<text transform="matrix(1 0 0 1 36.72 15.12)" fill="#FFFFFF" font-family="'OCRA'" font-size="4.176">X</text>
			</g>
			<g>
				<title>text:Y</title>
				<text transform="matrix(1 0 0 1 45.72 7.92)" fill="#FFFFFF" font-family="'OCRA'" font-size="4.176">Y</text>
			</g>
			<g>
				<title>text:Z</title>
				<text transform="matrix(1 0 0 1 34.92 5.04)" fill="#FFFFFF" font-family="'OCRA'" font-size="4.176">Z</text>
			</g>
			<g>
				<title>element:C1</title>
				<g>
					<title>package:0603-CAP</title>
					<line fill="none" stroke="#FFFFFF" stroke-width="1.584" stroke-linecap="round" x1="32.4" y1="21.7" x2="32.4" y2="21.5"/>
				</g>
			</g>
			<g>
				<title>element:C2</title>
				<g>
					<title>package:0603-CAP</title>
					<line fill="none" stroke="#FFFFFF" stroke-width="1.584" stroke-linecap="round" x1="54" y1="21.5" x2="54" y2="21.7"/>
				</g>
			</g>
			<g>
				<title>element:C3</title>
				<g>
					<title>package:0603-CAP</title>
					<line fill="none" stroke="#FFFFFF" stroke-width="1.584" stroke-linecap="round" x1="43.2" y1="21.7" x2="43.2" y2="21.5"/>
				</g>
			</g>
			<g>
				<title>element:C4</title>
				<g>
					<title>package:0603-CAP</title>
					<line fill="none" stroke="#FFFFFF" stroke-width="1.584" stroke-linecap="round" x1="32.5" y1="7.2" x2="32.3" y2="7.2"/>
				</g>
			</g>
			<g>
				<title>element:JP1</title>
				<g>
					<title>package:1X09</title>
					<line fill="none" stroke="#FFFFFF" stroke-width="0.576" stroke-linecap="round" x1="45" y1="32.4" x2="48.6" y2="32.4"/>
					<line fill="none" stroke="#FFFFFF" stroke-width="0.576" stroke-linecap="round" x1="48.6" y1="32.4" x2="50.4" y2="34.2"/>
					<line fill="none" stroke="#FFFFFF" stroke-width="0.576" stroke-linecap="round" x1="50.4" y1="37.8" x2="48.6" y2="39.6"/>
					<line fill="none" stroke="#FFFFFF" stroke-width="0.576" stroke-linecap="round" x1="36" y1="34.2" x2="37.8" y2="32.4"/>
					<line fill="none" stroke="#FFFFFF" stroke-width="0.576" stroke-linecap="round" x1="37.8" y1="32.4" x2="41.4" y2="32.4"/>
					<line fill="none" stroke="#FFFFFF" stroke-width="0.576" stroke-linecap="round" x1="41.4" y1="32.4" x2="43.2" y2="34.2"/>
					<line fill="none" stroke="#FFFFFF" stroke-width="0.576" stroke-linecap="round" x1="43.2" y1="37.8" x2="41.4" y2="39.6"/>
					<line fill="none" stroke="#FFFFFF" stroke-width="0.576" stroke-linecap="round" x1="41.4" y1="39.6" x2="37.8" y2="39.6"/>
					<line fill="none" stroke="#FFFFFF" stroke-width="0.576" stroke-linecap="round" x1="37.8" y1="39.6" x2="36" y2="37.8"/>
					<line fill="none" stroke="#FFFFFF" stroke-width="0.576" stroke-linecap="round" x1="45" y1="32.4" x2="43.2" y2="34.2"/>
					<line fill="none" stroke="#FFFFFF" stroke-width="0.576" stroke-linecap="round" x1="43.2" y1="37.8" x2="45" y2="39.6"/>
					<line fill="none" stroke="#FFFFFF" stroke-width="0.576" stroke-linecap="round" x1="48.6" y1="39.6" x2="45" y2="39.6"/>
					<line fill="none" stroke="#FFFFFF" stroke-width="0.576" stroke-linecap="round" x1="23.4" y1="32.4" x2="27" y2="32.4"/>
					<line fill="none" stroke="#FFFFFF" stroke-width="0.576" stroke-linecap="round" x1="27" y1="32.4" x2="28.8" y2="34.2"/>
					<line fill="none" stroke="#FFFFFF" stroke-width="0.576" stroke-linecap="round" x1="28.8" y1="37.8" x2="27" y2="39.6"/>
					<line fill="none" stroke="#FFFFFF" stroke-width="0.576" stroke-linecap="round" x1="28.8" y1="34.2" x2="30.6" y2="32.4"/>
					<line fill="none" stroke="#FFFFFF" stroke-width="0.576" stroke-linecap="round" x1="30.6" y1="32.4" x2="34.2" y2="32.4"/>
					<line fill="none" stroke="#FFFFFF" stroke-width="0.576" stroke-linecap="round" x1="34.2" y1="32.4" x2="36" y2="34.2"/>
					<line fill="none" stroke="#FFFFFF" stroke-width="0.576" stroke-linecap="round" x1="36" y1="37.8" x2="34.2" y2="39.6"/>
					<line fill="none" stroke="#FFFFFF" stroke-width="0.576" stroke-linecap="round" x1="34.2" y1="39.6" x2="30.6" y2="39.6"/>
					<line fill="none" stroke="#FFFFFF" stroke-width="0.576" stroke-linecap="round" x1="30.6" y1="39.6" x2="28.8" y2="37.8"/>
					<line fill="none" stroke="#FFFFFF" stroke-width="0.576" stroke-linecap="round" x1="14.4" y1="34.2" x2="16.2" y2="32.4"/>
					<line fill="none" stroke="#FFFFFF" stroke-width="0.576" stroke-linecap="round" x1="16.2" y1="32.4" x2="19.8" y2="32.4"/>
					<line fill="none" stroke="#FFFFFF" stroke-width="0.576" stroke-linecap="round" x1="19.8" y1="32.4" x2="21.6" y2="34.2"/>
					<line fill="none" stroke="#FFFFFF" stroke-width="0.576" stroke-linecap="round" x1="21.6" y1="37.8" x2="19.8" y2="39.6"/>
					<line fill="none" stroke="#FFFFFF" stroke-width="0.576" stroke-linecap="round" x1="19.8" y1="39.6" x2="16.2" y2="39.6"/>
					<line fill="none" stroke="#FFFFFF" stroke-width="0.576" stroke-linecap="round" x1="16.2" y1="39.6" x2="14.4" y2="37.8"/>
					<line fill="none" stroke="#FFFFFF" stroke-width="0.576" stroke-linecap="round" x1="23.4" y1="32.4" x2="21.6" y2="34.2"/>
					<line fill="none" stroke="#FFFFFF" stroke-width="0.576" stroke-linecap="round" x1="21.6" y1="37.8" x2="23.4" y2="39.6"/>
					<line fill="none" stroke="#FFFFFF" stroke-width="0.576" stroke-linecap="round" x1="27" y1="39.6" x2="23.4" y2="39.6"/>
					<line fill="none" stroke="#FFFFFF" stroke-width="0.576" stroke-linecap="round" x1="1.8" y1="32.4" x2="5.4" y2="32.4"/>
					<line fill="none" stroke="#FFFFFF" stroke-width="0.576" stroke-linecap="round" x1="5.4" y1="32.4" x2="7.2" y2="34.2"/>
					<line fill="none" stroke="#FFFFFF" stroke-width="0.576" stroke-linecap="round" x1="7.2" y1="37.8" x2="5.4" y2="39.6"/>
					<line fill="none" stroke="#FFFFFF" stroke-width="0.576" stroke-linecap="round" x1="7.2" y1="34.2" x2="9" y2="32.4"/>
					<line fill="none" stroke="#FFFFFF" stroke-width="0.576" stroke-linecap="round" x1="9" y1="32.4" x2="12.6" y2="32.4"/>
					<line fill="none" stroke="#FFFFFF" stroke-width="0.576" stroke-linecap="round" x1="12.6" y1="32.4" x2="14.4" y2="34.2"/>
					<line fill="none" stroke="#FFFFFF" stroke-width="0.576" stroke-linecap="round" x1="14.4" y1="37.8" x2="12.6" y2="39.6"/>
					<line fill="none" stroke="#FFFFFF" stroke-width="0.576" stroke-linecap="round" x1="12.6" y1="39.6" x2="9" y2="39.6"/>
					<line fill="none" stroke="#FFFFFF" stroke-width="0.576" stroke-linecap="round" x1="9" y1="39.6" x2="7.2" y2="37.8"/>
					<line fill="none" stroke="#FFFFFF" stroke-width="0.576" stroke-linecap="round" x1="0" y1="34.2" x2="0" y2="37.8"/>
					<line fill="none" stroke="#FFFFFF" stroke-width="0.576" stroke-linecap="round" x1="1.8" y1="32.4" x2="0" y2="34.2"/>
					<line fill="none" stroke="#FFFFFF" stroke-width="0.576" stroke-linecap="round" x1="0" y1="37.8" x2="1.8" y2="39.6"/>
					<line fill="none" stroke="#FFFFFF" stroke-width="0.576" stroke-linecap="round" x1="5.4" y1="39.6" x2="1.8" y2="39.6"/>
					<line fill="none" stroke="#FFFFFF" stroke-width="0.576" stroke-linecap="round" x1="52.2" y1="32.4" x2="55.8" y2="32.4"/>
					<line fill="none" stroke="#FFFFFF" stroke-width="0.576" stroke-linecap="round" x1="55.8" y1="32.4" x2="57.6" y2="34.2"/>
					<line fill="none" stroke="#FFFFFF" stroke-width="0.576" stroke-linecap="round" x1="57.6" y1="37.8" x2="55.8" y2="39.6"/>
					<line fill="none" stroke="#FFFFFF" stroke-width="0.576" stroke-linecap="round" x1="52.2" y1="32.4" x2="50.4" y2="34.2"/>
					<line fill="none" stroke="#FFFFFF" stroke-width="0.576" stroke-linecap="round" x1="50.4" y1="37.8" x2="52.2" y2="39.6"/>
					<line fill="none" stroke="#FFFFFF" stroke-width="0.576" stroke-linecap="round" x1="55.8" y1="39.6" x2="52.2" y2="39.6"/>
					<line fill="none" stroke="#FFFFFF" stroke-width="0.576" stroke-linecap="round" x1="59.4" y1="32.4" x2="63" y2="32.4"/>
					<line fill="none" stroke="#FFFFFF" stroke-width="0.576" stroke-linecap="round" x1="63" y1="32.4" x2="64.8" y2="34.2"/>
					<line fill="none" stroke="#FFFFFF" stroke-width="0.576" stroke-linecap="round" x1="64.8" y1="37.8" x2="63" y2="39.6"/>
					<line fill="none" stroke="#FFFFFF" stroke-width="0.576" stroke-linecap="round" x1="59.4" y1="32.4" x2="57.6" y2="34.2"/>
					<line fill="none" stroke="#FFFFFF" stroke-width="0.576" stroke-linecap="round" x1="57.6" y1="37.8" x2="59.4" y2="39.6"/>
					<line fill="none" stroke="#FFFFFF" stroke-width="0.576" stroke-linecap="round" x1="63" y1="39.6" x2="59.4" y2="39.6"/>
					<line fill="none" stroke="#FFFFFF" stroke-width="0.576" stroke-linecap="round" x1="64.8" y1="34.2" x2="64.8" y2="37.8"/>
				</g>
			</g>
			<g>
				<title>element:JP2</title>
				<g>
					<title>package:STAND-OFF</title>
				</g>
			</g>
			<g>
				<title>element:JP3</title>
				<g>
					<title>package:STAND-OFF</title>
				</g>
			</g>
			<g>
				<title>element:JP4</title>
				<g>
					<title>package:SFE-LOGO-FLAME</title>
				</g>
			</g>
			<g>
				<title>element:U$1</title>
				<g>
					<title>package:LGA14</title>
					<line fill="none" stroke="#FFFFFF" stroke-width="0.576" stroke-linecap="round" x1="25.9" y1="25.1" x2="23.6" y2="25.1"/>
					<line fill="none" stroke="#FFFFFF" stroke-width="0.576" stroke-linecap="round" x1="19.6" y1="25.1" x2="17.3" y2="25.1"/>
					<line fill="none" stroke="#FFFFFF" stroke-width="0.576" stroke-linecap="round" x1="17.3" y1="10.9" x2="19.6" y2="10.9"/>
					<line fill="none" stroke="#FFFFFF" stroke-width="0.576" stroke-linecap="round" x1="23.6" y1="10.9" x2="25.9" y2="10.9"/>
					<circle fill="none" stroke="#FFFFFF" stroke-width="0.576" cx="21.6" cy="20.8" r="0.3"/>
				</g>
			</g>
			<path fill="#FFFFFF" d="M6.7,16.3c0,0,0.5-0.1,0.6,0.3c0,0.3-0.2,0.7-0.5,0.9c-0.3,0.3-0.6,0.2-0.8,0c-0.3-0.3-0.2-0.8-0.2-0.8
				S5,17.6,5.7,18.6c0.6,0.9,1.4,0.6,2.1-0.2c0.6-0.7,1.3-0.1,1.3,0.6c-0.1,0.5-0.5,0.7-0.7,0.6s-0.3-0.5-0.3-0.5s-0.2,0.4,0,0.9
				c0.2,0.4,0.5,0.8,1.4,0.7h4.1c0,0-0.5-0.4-1.1-1s-1-0.8-1-1.4c0.1-1.1-0.4-1.9-1.2-2.5C8.6,14.7,6.9,15.6,6.7,16.3z"/>
		</g>
		<rect x="17.3" y="10.9" fill="#333333" width="8.5" height="14.2"/>
		<circle id="connector8pin" fill="none" stroke="#9A916C" stroke-width="1.224" cx="3.6" cy="36" r="2.1"/>
		<circle id="connector9pin" fill="none" stroke="#9A916C" stroke-width="1.224" cx="10.8" cy="36" r="2.1"/>
		<circle id="connector10pin" fill="none" stroke="#9A916C" stroke-width="1.224" cx="18" cy="36" r="2.1"/>
		<circle id="connector11pin" fill="none" stroke="#9A916C" stroke-width="1.224" cx="25.2" cy="36" r="2.1"/>
		<circle id="connector12pin" fill="none" stroke="#9A916C" stroke-width="1.224" cx="32.4" cy="36" r="2.1"/>
		<circle id="connector13pin" fill="none" stroke="#9A916C" stroke-width="1.224" cx="39.6" cy="36" r="2.1"/>
		<circle id="connector14pin" fill="none" stroke="#9A916C" stroke-width="1.224" cx="46.8" cy="36" r="2.1"/>
		<circle id="connector15pin" fill="none" stroke="#9A916C" stroke-width="1.224" cx="54" cy="36" r="2.1"/>
		<circle id="connector16pin" fill="none" stroke="#9A916C" stroke-width="1.224" cx="61.2" cy="36" r="2.1"/>
	</g>
	<g id="_x30_603-cap" transform="matrix(1, 0, 0, 1, 28.4628, 19.691)">
		<g transform="matrix(-1, 0, 0, -1, 7.938, 2.834)">
			<rect x="0" y="0" fill="#AF6C41" width="8" height="2.8"/>
			<g>
				<g>
					<path fill="#DCDCDC" d="M6.8,0L6.8,0L6.8,0L6.8,0L6.8,0C6.6,0.3,6.6,0.8,6.6,1.1c0,0.3,0,1.5,0.1,1.7l0,0l0,0h1.2V0H6.8z"/>
					<path fill="#DCDCDC" d="M1.2,0.1V0H0v2.9h1.2c0.1-0.3,0.2-1.4,0.2-1.7C1.4,0.8,1.3,0.4,1.2,0.1z"/>
				</g>
			</g>
			<rect x="0" y="0" opacity="0.2" fill="#FFFFFF" enable-background="new    " width="8" height="0.1"/>
			<rect x="0" y="2.7" opacity="0.2" enable-background="new    " width="8" height="0.1"/>
		</g>
	</g>
	<g id="_x30_603-cap_1_" transform="matrix(1, 0, 0, 1, 49.9992, 20.675)">
		<rect x="0" y="-1" fill="#AF6C41" width="8" height="2.8"/>
		<g>
			<g>
				<path fill="#DCDCDC" d="M6.8-1L6.8-1L6.8-1L6.8-1L6.8-1C6.6-0.7,6.6-0.2,6.6,0.1c0,0.3,0,1.5,0.1,1.7l0,0l0,0h1.2V-1H6.8z"/>
				<path fill="#DCDCDC" d="M1.2-0.9V-1H0v2.9h1.2c0.1-0.3,0.2-1.4,0.2-1.7C1.4-0.2,1.3-0.6,1.2-0.9z"/>
			</g>
		</g>
		<rect x="0" y="-1" opacity="0.2" fill="#FFFFFF" enable-background="new    " width="8" height="0.1"/>
		<rect x="0" y="1.7" opacity="0.2" enable-background="new    " width="8" height="0.1"/>
	</g>
	<g id="_x30_603-cap_2_" transform="matrix(1, 0, 0, 1, 39.2628, 19.691)">
		<g transform="matrix(-1, 0, 0, -1, 7.938, 2.834)">
			<rect x="0" y="0" fill="#AF6C41" width="8" height="2.8"/>
			<g>
				<g>
					<path fill="#DCDCDC" d="M6.8,0L6.8,0L6.8,0L6.8,0L6.8,0C6.6,0.3,6.6,0.8,6.6,1.1c0,0.3,0,1.5,0.1,1.7l0,0l0,0h1.2V0H6.8z"/>
					<path fill="#DCDCDC" d="M1.2,0.1V0H0v2.9h1.2c0.1-0.3,0.2-1.4,0.2-1.7C1.4,0.8,1.3,0.4,1.2,0.1z"/>
				</g>
			</g>
			<rect x="0" y="0" opacity="0.2" fill="#FFFFFF" enable-background="new    " width="8" height="0.1"/>
			<rect x="0" y="2.7" opacity="0.2" enable-background="new    " width="8" height="0.1"/>
		</g>
	</g>
	<g id="_x30_603-cap_3_" transform="matrix(1, 0, 0, 1, 27.939, 5.75125)">
		<g transform="matrix(0, -1, 1, 0, 2.552, 5.386)">
			
				<rect x="2.6" y="-2.6" transform="matrix(-2.547107e-06 -1 1 -2.547107e-06 2.5655 5.3995)" fill="#AF6C41" width="2.8" height="8"/>
			<g>
				<g>
					<path fill="#DCDCDC" d="M6.8,0L6.8,0L6.8,0L6.8,0L6.8,0C6.6,0.3,6.6,0.8,6.6,1.1c0,0.3,0,1.5,0.1,1.7l0,0l0,0h1.2V0H6.8z"/>
					<path fill="#DCDCDC" d="M1.2,0.1V0H0v2.9h1.2c0.1-0.3,0.2-1.4,0.2-1.7C1.4,0.8,1.3,0.4,1.2,0.1z"/>
				</g>
			</g>
			
				<rect x="3.9" y="-3.9" transform="matrix(-2.547107e-06 -1 1 -2.547107e-06 3.9115 4.0535)" opacity="0.2" fill="#FFFFFF" enable-background="new    " width="0.1" height="8"/>
			
				<rect x="3.9" y="-1.2" transform="matrix(-2.547107e-06 -1 1 -2.547107e-06 1.2195 6.7455)" opacity="0.2" enable-background="new    " width="0.1" height="8"/>
		</g>
	</g>
</g>
</svg>
