<?xml version='1.0' encoding='utf-8'?>
<!DOCTYPE svg>
<!-- Generator: Adobe Illustrator 17.0.0, SVG Export Plug-In . SVG Version: 6.00 Build 0)  -->
<svg xmlns="http://www.w3.org/2000/svg" width="0.909333in" x="0px" version="1.1" y="0px" gorn="0"  height="0.992in" viewBox="0 0 65.472 71.424" xmlns:xml="http://www.w3.org/XML/1998/namespace" id="Layer_1" enable-background="new -14.16 -5.212 65.472 71.424" xml:space="preserve">
    <desc >
        <referenceFile >USB_Type_A_Female_Breakout_breadboard.svg</referenceFile>
    </desc>
    <g  transform="translate(14.16,5.212)">
        <g >
            <g >
                <desc >Fritzing breadboard generated by brd2svg</desc>
                <g gorn="0.1.0.0.1"  id="breadboard">
                    <g gorn="0.1.0.0.1.0"  id="icon">
                        <path fill="#E72D2F"  d="M-5.712-5.212v71.424h57.024V-5.212H-5.712z M1.2,63.692c-2.426,0-4.392-1.966-4.392-4.392c0-2.426,1.966-4.392,4.392-4.392c2.426,0,4.392,1.966,4.392,4.392C5.592,61.726,3.626,63.692,1.2,63.692z M1.2,6.092c-2.426,0-4.392-1.966-4.392-4.392c0-2.426,1.966-4.392,4.392-4.392c2.426,0,4.392,1.966,4.392,4.392C5.592,4.126,3.626,6.092,1.2,6.092z M44.4,63.692c-2.426,0-4.392-1.966-4.392-4.392c0-2.426,1.966-4.392,4.392-4.392c2.426,0,4.392,1.966,4.392,4.392C48.792,61.726,46.826,63.692,44.4,63.692z M44.4,6.092c-2.426,0-4.392-1.966-4.392-4.392c0-2.426,1.966-4.392,4.392-4.392c2.426,0,4.392,1.966,4.392,4.392C48.792,4.126,46.826,6.092,44.4,6.092z M48,32.639c0.807,0,1.461,0.654,1.461,1.461S48.807,35.561,48,35.561c-0.807,0-1.461-0.654-1.461-1.461S47.193,32.639,48,32.639z M48,25.439c0.807,0,1.461,0.654,1.461,1.461c0,0.807-0.654,1.461-1.461,1.461c-0.807,0-1.461-0.654-1.461-1.461C46.539,26.093,47.193,25.439,48,25.439z M48,18.239c0.807,0,1.461,0.654,1.461,1.461S48.807,21.161,48,21.161c-0.807,0-1.461-0.654-1.461-1.461S47.193,18.239,48,18.239z M48,39.809c0.807,0,1.461,0.654,1.461,1.461S48.807,42.731,48,42.731c-0.807,0-1.461-0.654-1.461-1.461S47.193,39.809,48,39.809z"/>
                        <g gorn="0.1.0.0.1.0.1"  id="silkscreen">
                            <line fill="none"  stroke="#FFFFFF" stroke-linecap="round" y1="11.78" stroke-width="0.72" x1="21.36" y2="11.78" x2="26.4"/>
                            <line fill="none"  stroke="#FFFFFF" stroke-linecap="round" y1="11.78" stroke-width="0.72" x1="26.4" y2="18.26" x2="26.4"/>
                            <line fill="none"  stroke="#FFFFFF" stroke-linecap="round" y1="22.58" stroke-width="0.72" x1="26.4" y2="25.46" x2="26.4"/>
                            <line fill="none"  stroke="#FFFFFF" stroke-linecap="round" y1="29.78" stroke-width="0.72" x1="26.4" y2="31.22" x2="26.4"/>
                            <line fill="none"  stroke="#FFFFFF" stroke-linecap="round" y1="35.54" stroke-width="0.72" x1="26.4" y2="38.42" x2="26.4"/>
                            <line fill="none"  stroke="#FFFFFF" stroke-linecap="round" y1="42.74" stroke-width="0.72" x1="26.4" y2="49.22" x2="26.4"/>
                            <line fill="none"  stroke="#FFFFFF" stroke-linecap="round" y1="49.22" stroke-width="0.72" x1="26.4" y2="49.22" x2="21.36"/>
                            <g >
                                <title >element:JP1</title>
                                <g >
                                    <title >package:USB-A-S-NOSILK-FEMALE</title>
                                </g>
                            </g>
                            <g >
                                <title >element:JP2</title>
                                <g >
                                    <title >package:1X04</title>
                                    <line fill="none"  stroke="#FFFFFF" stroke-linecap="round" y1="39.5" stroke-width="0.576" x1="51.038" y2="43.1" x2="51.038"/>
                                    <line fill="none"  stroke="#FFFFFF" stroke-linecap="round" y1="43.1" stroke-width="0.576" x1="51.038" y2="44.9" x2="49.8"/>
                                    <line fill="none"  stroke="#FFFFFF" stroke-linecap="round" y1="44.9" stroke-width="0.576" x1="46.2" y2="43.1" x2="44.4"/>
                                    <line fill="none"  stroke="#FFFFFF" stroke-linecap="round" y1="30.5" stroke-width="0.576" x1="49.8" y2="32.3" x2="51.038"/>
                                    <line fill="none"  stroke="#FFFFFF" stroke-linecap="round" y1="32.3" stroke-width="0.576" x1="51.038" y2="35.9" x2="51.038"/>
                                    <line fill="none"  stroke="#FFFFFF" stroke-linecap="round" y1="35.9" stroke-width="0.576" x1="51.038" y2="37.7" x2="49.8"/>
                                    <line fill="none"  stroke="#FFFFFF" stroke-linecap="round" y1="37.7" stroke-width="0.576" x1="46.2" y2="35.9" x2="44.4"/>
                                    <line fill="none"  stroke="#FFFFFF" stroke-linecap="round" y1="35.9" stroke-width="0.576" x1="44.4" y2="32.3" x2="44.4"/>
                                    <line fill="none"  stroke="#FFFFFF" stroke-linecap="round" y1="32.3" stroke-width="0.576" x1="44.4" y2="30.5" x2="46.2"/>
                                    <line fill="none"  stroke="#FFFFFF" stroke-linecap="round" y1="39.5" stroke-width="0.576" x1="51.038" y2="37.7" x2="49.8"/>
                                    <line fill="none"  stroke="#FFFFFF" stroke-linecap="round" y1="37.7" stroke-width="0.576" x1="46.2" y2="39.5" x2="44.4"/>
                                    <line fill="none"  stroke="#FFFFFF" stroke-linecap="round" y1="43.1" stroke-width="0.576" x1="44.4" y2="39.5" x2="44.4"/>
                                    <line fill="none"  stroke="#FFFFFF" stroke-linecap="round" y1="17.9" stroke-width="0.576" x1="51.038" y2="21.5" x2="51.038"/>
                                    <line fill="none"  stroke="#FFFFFF" stroke-linecap="round" y1="21.5" stroke-width="0.576" x1="51.038" y2="23.3" x2="49.8"/>
                                    <line fill="none"  stroke="#FFFFFF" stroke-linecap="round" y1="23.3" stroke-width="0.576" x1="46.2" y2="21.5" x2="44.4"/>
                                    <line fill="none"  stroke="#FFFFFF" stroke-linecap="round" y1="23.3" stroke-width="0.576" x1="49.8" y2="25.1" x2="51.038"/>
                                    <line fill="none"  stroke="#FFFFFF" stroke-linecap="round" y1="25.1" stroke-width="0.576" x1="51.038" y2="28.7" x2="51.038"/>
                                    <line fill="none"  stroke="#FFFFFF" stroke-linecap="round" y1="28.7" stroke-width="0.576" x1="51.038" y2="30.5" x2="49.8"/>
                                    <line fill="none"  stroke="#FFFFFF" stroke-linecap="round" y1="30.5" stroke-width="0.576" x1="46.2" y2="28.7" x2="44.4"/>
                                    <line fill="none"  stroke="#FFFFFF" stroke-linecap="round" y1="28.7" stroke-width="0.576" x1="44.4" y2="25.1" x2="44.4"/>
                                    <line fill="none"  stroke="#FFFFFF" stroke-linecap="round" y1="25.1" stroke-width="0.576" x1="44.4" y2="23.3" x2="46.2"/>
                                    <line fill="none"  stroke="#FFFFFF" stroke-linecap="round" y1="16.1" stroke-width="0.576" x1="49.8" y2="16.1" x2="46.2"/>
                                    <line fill="none"  stroke="#FFFFFF" stroke-linecap="round" y1="17.9" stroke-width="0.576" x1="51.038" y2="16.1" x2="49.8"/>
                                    <line fill="none"  stroke="#FFFFFF" stroke-linecap="round" y1="16.1" stroke-width="0.576" x1="46.2" y2="17.9" x2="44.4"/>
                                    <line fill="none"  stroke="#FFFFFF" stroke-linecap="round" y1="21.5" stroke-width="0.576" x1="44.4" y2="17.9" x2="44.4"/>
                                    <line fill="none"  stroke="#FFFFFF" stroke-linecap="round" y1="44.9" stroke-width="0.576" x1="49.8" y2="44.9" x2="46.2"/>
                                </g>
                            </g>
                            <g >
                                <title >element:LOGO1</title>
                                <g >
                                    <title >package:SFE-NEW-WEBLOGO</title>
                                </g>
                            </g>
                            <g >
                                <title >element:STANDOFF1</title>
                                <g >
                                    <title >package:STAND-OFF</title>
                                </g>
                            </g>
                            <g >
                                <title >element:STANDOFF2</title>
                                <g >
                                    <title >package:STAND-OFF</title>
                                </g>
                            </g>
                            <g >
                                <title >element:STANDOFF3</title>
                                <g >
                                    <title >package:STAND-OFF</title>
                                </g>
                            </g>
                            <g >
                                <title >element:STANDOFF4</title>
                                <g >
                                    <title >package:STAND-OFF</title>
                                </g>
                            </g>
                            <line fill="none"  stroke="#FFFFFF" y1="49.112" stroke-width="0.576" x1="-5.712" y2="49.112" x2="-6"/>
                            <line fill="none"  stroke="#FFFFFF" y1="11.888" stroke-width="0.576" x1="-5.712" y2="11.888" x2="-6"/>
                            <g  transform="matrix(1 0 0 1 33.2496 43.3515)">
                                <g >
                                    <text fill="#FFFFFF" font-family="OCRA"  font-size="5">GND</text>
                                </g>
                            </g>
                            <g  transform="matrix(1 0 0 1 36.9142 35.8993)">
                                <g >
                                    <text fill="#FFFFFF" font-family="OCRA"  font-size="5">D+</text>
                                </g>
                            </g>
                            <g  transform="matrix(1 0 0 1 36.9142 28.7005)">
                                <g >
                                    <text fill="#FFFFFF" font-family="OCRA"  font-size="5">D-</text>
                                </g>
                            </g>
                            <g  transform="matrix(1 0 0 1 33.3391 21.2899)">
                                <g >
                                    <text fill="#FFFFFF" font-family="OCRA"  font-size="5">VCC</text>
                                </g>
                            </g>
                            <path fill="#FFFFFF"  d="M13.138,55.263h-1.116l-0.216,1.231c-0.311,0.077-0.604,0.201-0.87,0.362l-1.023-0.719l-0.789,0.789l0.719,1.025c-0.16,0.267-0.282,0.559-0.359,0.869L8.25,59.035l0,1.115l1.234,0.216c0.076,0.31,0.198,0.602,0.359,0.869l-0.719,1.025l0.788,0.789l1.024-0.719c0.267,0.161,0.559,0.284,0.87,0.362l0.215,1.231h1.116l0.215-1.228c0.312-0.077,0.605-0.201,0.874-0.361l1.02,0.716l0.789-0.789l-0.715-1.019c0.099-0.162,0.182-0.333,0.251-0.512l-1.878-0.695c-0.176,0.44-0.606,0.751-1.108,0.751c-0.658,0-1.192-0.534-1.192-1.192c0-0.659,0.534-1.192,1.192-1.192c0.502,0,0.932,0.311,1.108,0.751l1.878-0.695c-0.068-0.179-0.152-0.35-0.251-0.512l0.716-1.019l-0.788-0.789l-1.02,0.716c-0.269-0.161-0.562-0.285-0.874-0.361L13.138,55.263z"/>
                            <path fill="#FFFFFF"  d="M9.388-0.305c0,0,0.485-0.114,0.552,0.251C9.986,0.202,9.733,0.613,9.481,0.82C9.17,1.075,8.926,1.043,8.708,0.845c-0.33-0.299-0.202-0.808-0.202-0.808s-0.821,0.935-0.149,1.91c0.597,0.868,1.411,0.618,2.122-0.164c0.642-0.707,1.347-0.143,1.254,0.569C11.672,2.837,11.28,3.036,11.04,2.92c-0.205-0.102-0.331-0.451-0.331-0.451s-0.163,0.402,0.015,0.875c0.16,0.424,0.511,0.775,1.391,0.747h4.078c0,0-0.542-0.439-1.092-0.954c-0.62-0.578-1.041-0.842-0.992-1.436c0.069-1.123-0.43-1.936-1.23-2.487C11.339-1.847,9.618-1.017,9.388-0.305z"/>
                        </g>
                        <g  transform="matrix(1, 0, 0, 1, 10.476, 1.26)">
                            <g >
                                <g >
                                    <g >
                                        <rect width="8.504" x="12.812" y="25.13" fill="#8C8C8C" gorn="0.1.0.0.1.0.2.0.0.0.0"  height="2.551" id="connector1pad"/>
                                        <rect width="8.504" x="12.812" y="37.886" fill="#8C8C8C" gorn="0.1.0.0.1.0.2.0.0.0.1"  height="2.551" id="connector2pad"/>
                                        <rect width="8.504" x="12.812" y="18.043" fill="#8C8C8C" gorn="0.1.0.0.1.0.2.0.0.0.2"  height="2.551" id="connector5pad"/>
                                        <rect width="8.504" x="12.812" y="30.799" fill="#8C8C8C" gorn="0.1.0.0.1.0.2.0.0.0.3"  height="2.551" id="connector0pad"/>
                                        <circle fill="#8C8C8C" cx="5.124" gorn="0.1.0.0.1.0.2.0.0.0.4"  cy="47.852" stroke="#8C8C8C" id="connector3pad" r="3.996" stroke-width="1" stroke-miterlimit="10"/>
                                        <circle fill="#8C8C8C" cx="5.124" gorn="0.1.0.0.1.0.2.0.0.0.5"  cy="10.628" stroke="#8C8C8C" id="connector4pad" r="3.996" stroke-width="1" stroke-miterlimit="10"/>
                                    </g>
                                    <g  transform="matrix(1, 0, 0, 1, 7.2, 13.36)">
                                        <g >
                                            <g >
                                                <g >
                                                    <g >
                                                        <path fill="#4D4D4D"  d="M4.705-2.848l-34.835,0l0,1.599l-0.707,0l0,16.733l0.096,0.116l0,0.526l-0.096,0.116l0,16.754l0.707,0l0,1.598l34.835,0L4.705-2.848z M-30.392,9.58c-0.307-0.056-0.555-0.396-0.555-0.795l0-4.451c0-0.397,0.254-0.76,0.555-0.799l19.685-2.806c0.305-0.051,0.557,0.256,0.557,0.646l0,0.655c0,0.396-0.254,0.757-0.557,0.8l-17.384,2.114c-0.31,0.033-0.558,0.373-0.558,0.793l0,1.652c0,0.383,0.252,0.76,0.558,0.797l17.385,2.104c0.303,0.047,0.555,0.373,0.555,0.797l0.002,0.646c0,0.394-0.254,0.693-0.555,0.654L-30.392,9.58z M-30.392,28.213c-0.307-0.055-0.555-0.396-0.555-0.797l0-4.449c0-0.396,0.254-0.76,0.555-0.801l19.685-2.807c0.305-0.049,0.557,0.258,0.557,0.646l0,0.654c0,0.396-0.254,0.756-0.557,0.797l-17.384,2.118c-0.31,0.031-0.558,0.371-0.558,0.793l0,1.65c0,0.383,0.252,0.76,0.558,0.797l17.385,2.105c0.303,0.049,0.555,0.373,0.555,0.795l0.002,0.646c0,0.395-0.254,0.693-0.555,0.654L-30.392,28.213z"/>
                                                        <rect width="32.663" x="-31.31" y="-0.213" fill="#808080"  height="32.188"/>
                                                        <path fill="#B0B0B0"  d="M-29.606,33.174l-0.011,0.02c0.174-0.018,0.321-0.02,0.412-0.02v1c-0.535,0-0.885,0.1-0.998,0.27c-0.031,0.066-0.107,0.627-0.107,1.016l-0.674,0h-0.326l0.473,0h-0.154l-0.846,0c0-0.605,0.111-1.316,0.271-1.563"/>
                                                        <path fill="#8F8F8F"  d="M-31.291,33.606c-0.145,0.125-0.313,0.189-0.449,0.813c0.176-0.103,1.677-0.093,1.677-0.093c0.172-0.1,0.465-0.15,0.861-0.15v-1"/>
                                                        <path fill="#B0B0B0"  d="M-29.606-1.416l-0.011-0.02c0.174,0.018,0.321,0.019,0.412,0.019l0-1c-0.535,0-0.885-0.101-0.998-0.271C-30.234-2.753-30.31-3.315-30.31-3.7l-0.674,0l-0.326,0l0.473,0l-0.154,0l-0.846,0c0,0.604,0.111,1.318,0.271,1.56"/>
                                                        <path fill="#8F8F8F"  d="M-29.202-1.413l0-1c-0.396,0-0.688-0.058-0.857-0.149c-0.005-0.005-1.506,0.001-1.678-0.094c0.135,0.619,0.309,0.688,0.451,0.812"/>
                                                        <path fill="#B3B3B3"  d="M9.01-2.848l-38.613,0l0,1.599l-1.707,0l0,34.25l1.707,0l0,1.596l38.613,0L9.01-2.848z M-27.087,9.58c-0.306-0.056-0.554-0.396-0.554-0.795l0-4.451c0-0.397,0.252-0.76,0.554-0.799l20.686-2.806c0.304-0.051,0.556,0.256,0.556,0.646l0,0.655c0,0.396-0.253,0.757-0.556,0.8l-17.386,2.114c-0.313,0.033-0.561,0.373-0.561,0.793l0,1.652c0,0.383,0.256,0.76,0.561,0.797l17.385,2.104c0.304,0.047,0.555,0.373,0.555,0.797l0.002,0.646c0,0.394-0.253,0.693-0.555,0.654L-27.087,9.58z M-27.087,28.213c-0.306-0.055-0.554-0.396-0.554-0.797l0-4.449c0-0.396,0.252-0.76,0.554-0.801l20.686-2.807c0.304-0.049,0.556,0.258,0.556,0.646l0,0.654c0,0.396-0.253,0.756-0.556,0.797l-17.386,2.117c-0.313,0.031-0.561,0.371-0.561,0.793l0,1.65c0,0.383,0.256,0.76,0.561,0.797l17.385,2.105c0.304,0.049,0.555,0.373,0.555,0.795l0.002,0.646c0,0.395-0.253,0.693-0.555,0.654L-27.087,28.213z"/>
                                                        <polygon fill="none" points="-24.33,5 -24.33,8.11 -22.699,8.295 -22.699,4.838 " />
                                                        <polygon fill="#939393" points="-22.699,8.295 -24.33,8.11 -24.33,5 -22.699,4.838 " />
                                                        <polygon fill="#666666" points="-22.699,8.295 -22.015,8.379 -22.015,4.742 -22.699,4.838 " />
                                                        <polygon fill="none" points="-24.33,23.632 -24.33,26.743 -22.699,26.925 -22.699,23.47 " />
                                                        <polygon fill="#939393" points="-22.699,26.925 -24.33,26.743 -24.33,23.632 -22.699,23.47 " />
                                                        <polygon fill="#666666" points="-22.699,26.925 -22.015,27.009 -22.015,23.374 -22.699,23.47 " />
                                                        <line stroke-opacity="0.24" fill="none"  stroke="#FFFFFF" stroke-linecap="round" y1="-2.28" stroke-width="0.8064" x1="7.945" y2="-2.28" x2="-28.896"/>
                                                        <line stroke-opacity="0.24" fill="none"  stroke="#FFFFFF" stroke-linecap="round" y1="34.026" stroke-width="0.8064" x1="7.945" y2="34.025" x2="-29.046"/>
                                                        <line stroke-opacity="0.15" fill="none"  stroke="#000000" stroke-linecap="round" y1="32.777" stroke-width="0.4032" x1="-30.179" y2="-1.032" x2="-30.179"/>
                                                        <rect width="0.65" x="-31.31" y="-1.251" fill="#B0B0B0"  height="34.25"/>
                                                    </g>
                                                </g>
                                            </g>
                                        </g>
                                    </g>
                                </g>
                            </g>
                        </g>
                        <g gorn="0.1.0.0.1.0.3"  id="copper1">
                            <g  transform="matrix(-1, 0, 0, -1, 67.1811, 122.4)">
                                <g >
                                    <g >
                                        <rect width="8.118" x="33.031" y="65.283" fill="#EF4130" gorn="0.1.0.0.1.0.3.0.0.0.0"  height="2.835" id="connector11pad"/>
                                    </g>
                                </g>
                            </g>
                            <g  transform="matrix(-1, 0, 0, -1, 76.819, 122.4)">
                                <g >
                                    <g >
                                        <rect width="3.118" x="42.85" y="65.283" fill="#EF4130" gorn="0.1.0.0.1.0.3.1.0.0.0"  height="2.835" id="connector10pad"/>
                                    </g>
                                </g>
                            </g>
                            <rect width="4.104" x="45.948" y="17.648" fill="none" gorn="0.1.0.0.1.0.3.2"  height="4.104" stroke="#9A916C" id="connector0pin" stroke-width="1.224"/>
                            <circle fill="none" cx="48" gorn="0.1.0.0.1.0.3.3"  cy="19.7" stroke="#9A916C" id="connector30pin_1_" r="2.052" stroke-width="1.224"/>
                            <circle fill="none" cx="48" gorn="0.1.0.0.1.0.3.4"  cy="26.9" stroke="#9A916C" id="connector1pin" r="2.052" stroke-width="1.224"/>
                            <circle fill="none" cx="48" gorn="0.1.0.0.1.0.3.5"  cy="34.1" stroke="#9A916C" id="connector2pin" r="2.052" stroke-width="1.224"/>
                            <circle fill="none" cx="48" gorn="0.1.0.0.1.0.3.6"  cy="41.3" stroke="#9A916C" id="connector3pin" r="2.052" stroke-width="1.224"/>
                        </g>
                    </g>
                </g>
            </g>
        </g>
    </g>
</svg>
