<?xml version="1.0" encoding="utf-8"?>
<!-- Generator: Adobe Illustrator 17.1.0, SVG Export Plug-In . SVG Version: 6.00 Build 0)  -->
<!DOCTYPE svg PUBLIC "-//W3C//DTD SVG 1.1//EN" "http://www.w3.org/Graphics/SVG/1.1/DTD/svg11.dtd">
<svg version="1.1" id="Layer_1" xmlns="http://www.w3.org/2000/svg" xmlns:xlink="http://www.w3.org/1999/xlink" x="0px" y="0px"
	 width="41.7px" height="50.4px" viewBox="0 0 41.7 50.4" enable-background="new 0 0 41.7 50.4" xml:space="preserve">
<desc>Fritzing breadboard generated by brd2svg</desc>
<g id="breadboard">
	<g id="icon">
		<path fill="#C62717" d="M5.7,50.4h35.9L41.7,0h-36V50.4 M8.5,14.4c0-0.9,0.8-1.7,1.7-1.7c0.9,0,1.7,0.8,1.7,1.7s-0.8,1.7-1.7,1.7
			C9.3,16.1,8.5,15.3,8.5,14.4L8.5,14.4z M28.3,14.4c0-0.9,0.8-1.7,1.7-1.7s1.7,0.8,1.7,1.7S31,16.1,30,16.1S28.3,15.3,28.3,14.4
			L28.3,14.4z M11.4,46.8c0-0.8,0.6-1.4,1.4-1.4c0.8,0,1.4,0.6,1.4,1.4c0,0.8-0.6,1.4-1.4,1.4C12.1,48.2,11.4,47.6,11.4,46.8z
			 M18.6,46.8c0-0.8,0.6-1.4,1.4-1.4s1.4,0.6,1.4,1.4c0,0.8-0.6,1.4-1.4,1.4S18.6,47.6,18.6,46.8z M25.8,46.8c0-0.8,0.6-1.4,1.4-1.4
			s1.4,0.6,1.4,1.4c0,0.8-0.6,1.4-1.4,1.4S25.8,47.6,25.8,46.8z M33,46.8c0-0.8,0.6-1.4,1.4-1.4c0.8,0,1.4,0.6,1.4,1.4
			c0,0.8-0.6,1.4-1.4,1.4C33.7,48.2,33,47.6,33,46.8z"/>
		<g>
			<title>layer 21</title>
			<g>
				<title>text:RING2</title>
				<g transform="matrix(1, 0, 0, 1, 21.5093, 42.12)">
					<g transform="rotate(270)">
						<text transform="matrix(1 0 0 1 -1.181875e-04 -2.265625e-05)" fill="#FFFFFF" font-family="'OCRA'" font-size="3.7584">RING2</text>
					</g>
				</g>
			</g>
			<g>
				<title>text:TIP</title>
				<g transform="matrix(1, 0, 0, 1, 36.2693, 42.12)">
					<g transform="rotate(270)">
						<text transform="matrix(1 0 0 1 -1.181875e-04 -1.189063e-05)" fill="#FFFFFF" font-family="'OCRA'" font-size="3.7584">TIP</text>
					</g>
				</g>
			</g>
			<g>
				<title>text:SLEEVE</title>
				<g transform="matrix(1, 0, 0, 1, 14.3093, 42.12)">
					<g transform="rotate(270)">
						<text transform="matrix(1 0 0 1 -1.181875e-04 2.617187e-05)" fill="#FFFFFF" font-family="'OCRA'" font-size="3.7584">SLEEVE</text>
					</g>
				</g>
			</g>
			<g>
				<title>text:RING1</title>
				<g transform="matrix(1, 0, 0, 1, 29.0693, 42.12)">
					<g transform="rotate(270)">
						<text transform="matrix(1 0 0 1 -1.181875e-04 -2.509766e-05)" fill="#FFFFFF" font-family="'OCRA'" font-size="3.7584">RING1</text>
					</g>
				</g>
			</g>
			<g>
				<title>element:JP1</title>
				<g>
					<title>package:1X04</title>
					<line fill="none" stroke="#FFFFFF" stroke-width="0.576" stroke-linecap="round" x1="32.7" y1="43.2" x2="36.3" y2="43.2"/>
					<line fill="none" stroke="#FFFFFF" stroke-width="0.576" stroke-linecap="round" x1="36.3" y1="43.2" x2="38.1" y2="45"/>
					<line fill="none" stroke="#FFFFFF" stroke-width="0.576" stroke-linecap="round" x1="38.1" y1="48.6" x2="36.3" y2="50.4"/>
					<line fill="none" stroke="#FFFFFF" stroke-width="0.576" stroke-linecap="round" x1="23.7" y1="45" x2="25.5" y2="43.2"/>
					<line fill="none" stroke="#FFFFFF" stroke-width="0.576" stroke-linecap="round" x1="25.5" y1="43.2" x2="29.1" y2="43.2"/>
					<line fill="none" stroke="#FFFFFF" stroke-width="0.576" stroke-linecap="round" x1="29.1" y1="43.2" x2="30.9" y2="45"/>
					<line fill="none" stroke="#FFFFFF" stroke-width="0.576" stroke-linecap="round" x1="30.9" y1="48.6" x2="29.1" y2="50.4"/>
					<line fill="none" stroke="#FFFFFF" stroke-width="0.576" stroke-linecap="round" x1="29.1" y1="50.4" x2="25.5" y2="50.4"/>
					<line fill="none" stroke="#FFFFFF" stroke-width="0.576" stroke-linecap="round" x1="25.5" y1="50.4" x2="23.7" y2="48.6"/>
					<line fill="none" stroke="#FFFFFF" stroke-width="0.576" stroke-linecap="round" x1="32.7" y1="43.2" x2="30.9" y2="45"/>
					<line fill="none" stroke="#FFFFFF" stroke-width="0.576" stroke-linecap="round" x1="30.9" y1="48.6" x2="32.7" y2="50.4"/>
					<line fill="none" stroke="#FFFFFF" stroke-width="0.576" stroke-linecap="round" x1="36.3" y1="50.4" x2="32.7" y2="50.4"/>
					<line fill="none" stroke="#FFFFFF" stroke-width="0.576" stroke-linecap="round" x1="11.1" y1="43.2" x2="14.7" y2="43.2"/>
					<line fill="none" stroke="#FFFFFF" stroke-width="0.576" stroke-linecap="round" x1="14.7" y1="43.2" x2="16.5" y2="45"/>
					<line fill="none" stroke="#FFFFFF" stroke-width="0.576" stroke-linecap="round" x1="16.5" y1="48.6" x2="14.7" y2="50.4"/>
					<line fill="none" stroke="#FFFFFF" stroke-width="0.576" stroke-linecap="round" x1="16.5" y1="45" x2="18.3" y2="43.2"/>
					<line fill="none" stroke="#FFFFFF" stroke-width="0.576" stroke-linecap="round" x1="18.3" y1="43.2" x2="21.9" y2="43.2"/>
					<line fill="none" stroke="#FFFFFF" stroke-width="0.576" stroke-linecap="round" x1="21.9" y1="43.2" x2="23.7" y2="45"/>
					<line fill="none" stroke="#FFFFFF" stroke-width="0.576" stroke-linecap="round" x1="23.7" y1="48.6" x2="21.9" y2="50.4"/>
					<line fill="none" stroke="#FFFFFF" stroke-width="0.576" stroke-linecap="round" x1="21.9" y1="50.4" x2="18.3" y2="50.4"/>
					<line fill="none" stroke="#FFFFFF" stroke-width="0.576" stroke-linecap="round" x1="18.3" y1="50.4" x2="16.5" y2="48.6"/>
					<line fill="none" stroke="#FFFFFF" stroke-width="0.576" stroke-linecap="round" x1="9.3" y1="45" x2="9.3" y2="48.6"/>
					<line fill="none" stroke="#FFFFFF" stroke-width="0.576" stroke-linecap="round" x1="11.1" y1="43.2" x2="9.3" y2="45"/>
					<line fill="none" stroke="#FFFFFF" stroke-width="0.576" stroke-linecap="round" x1="9.3" y1="48.6" x2="11.1" y2="50.4"/>
					<line fill="none" stroke="#FFFFFF" stroke-width="0.576" stroke-linecap="round" x1="14.7" y1="50.4" x2="11.1" y2="50.4"/>
					<line fill="none" stroke="#FFFFFF" stroke-width="0.576" stroke-linecap="round" x1="38.1" y1="45" x2="38.1" y2="48.6"/>
				</g>
			</g>
			<g>
				<title>element:JP2</title>
				<g>
					<title>package:AUDIO-JACK-TRRS-SMD</title>
					<line fill="none" stroke="#FFFFFF" stroke-width="0.72" stroke-linecap="round" x1="7.1" y1="23.8" x2="35.4" y2="23.8"/>
					<line fill="none" stroke="#FFFFFF" stroke-width="0.72" stroke-linecap="round" x1="40.3" y1="5" x2="40.3" y2="23.8"/>
					<line fill="none" stroke="#FFFFFF" stroke-width="0.72" stroke-linecap="round" x1="40.3" y1="5" x2="36.9" y2="5"/>
					<line fill="none" stroke="#FFFFFF" stroke-width="0.72" stroke-linecap="round" x1="25.5" y1="5" x2="32.3" y2="5"/>
					<line fill="none" stroke="#FFFFFF" stroke-width="0.72" stroke-linecap="round" x1="17" y1="5" x2="21" y2="5"/>
					<line fill="none" stroke="#FFFFFF" stroke-width="0.72" stroke-linecap="round" x1="7.1" y1="5" x2="12.5" y2="5"/>
				</g>
			</g>
			<g>
				<title>element:JP3</title>
				<g>
					<title>package:SFE-LOGO-FLAME</title>
					<g>
						<title>polygon</title>
						<path fill="none" stroke="#FFFFFF" stroke-width="7.200000e-02" stroke-linecap="round" d="M33.4,31.2l0,0.1 M33.4,31.3l0,0.3
							 M33.4,31.6l0,0.3 M33.4,31.9l0.1,0.2 M33.4,32.1l0.1,0.2 M33.5,32.3l0.1,0.2 M33.7,32.4l0.2,0.1 M33.8,32.6l0.2,0.1 M34,32.7
							l0.2,0.1 M34.2,32.7l0.2,0 M34.5,32.8h4.3 M38.8,32.8l-1.6-1.4 M37.2,31.4L37,31.1 M37,31.1l-0.2-0.3 M36.8,30.8l0-0.1
							 M36.8,30.7l0-0.1 M36.8,30.6V30 M36.8,30l0-0.4 M36.7,29.6l-0.1-0.4 M36.6,29.2l-0.2-0.3 M36.5,28.9l-0.2-0.3 M36.2,28.5
							L36,28.3 M36,28.3L35.6,28 M35.6,28l-0.5-0.3 M35.2,27.7l-0.5-0.2 M34.6,27.6l-0.5-0.1 M34.1,27.5l-0.5,0 M33.6,27.5l-0.3,0.1
							 M33.3,27.5L33,27.6 M33,27.6l-0.3,0.1 M32.7,27.8L32.4,28 M32.4,28l-0.3,0.3 M32.1,28.4h0.3 M32.4,28.4L32.4,28.4 M32.4,28.4
							L32.4,28.4 M32.5,28.4l0.1,0.1 M32.6,28.5l0.1,0.1 M32.6,28.6L32.6,28.6 M32.7,28.6l0,0.2 M32.7,28.8l0,0.2 M32.7,29l-0.1,0.1
							 M32.6,29.1l-0.2,0.3 M32.4,29.4l-0.1,0.1 M32.3,29.5l-0.1,0.1 M32.2,29.6L32,29.7 M32,29.7l-0.1,0.1 M31.9,29.7L31.9,29.7
							 M31.8,29.8L31.8,29.8 M31.7,29.8l-0.2,0 M31.5,29.7l-0.1-0.1 M31.4,29.6l-0.1-0.1 M31.3,29.5l-0.1-0.1 M31.2,29.4l0-0.1
							 M31.2,29.2l0-0.1 M31.2,29.1v-0.2 M31.2,28.9L31.2,28.9 M31.2,28.9L31.2,28.9 M31.2,28.9L31.1,29 M31.1,29L31,29.2 M31,29.2
							l0,0.1 M31,29.3L31,29.3 M30.9,29.3l-0.1,0.2 M30.9,29.6l0,0.3 M30.8,29.8l0,0.2 M30.9,30.1l0.1,0.2 M30.9,30.3l0.1,0.2
							 M31,30.5l0.2,0.2 M31.2,30.8l0.2,0.2 M31.4,31l0.2,0.1 M31.6,31.1l0.2,0.1 M31.7,31.2l0.2,0 M32,31.2l0.2,0 M32.2,31.1
							l0.2-0.1 M32.4,31.1l0.5-0.3 M32.9,30.7l0.4-0.4 M33.3,30.3l0.1-0.1 M33.4,30.2l0.2-0.1 M33.6,30.1l0.2,0 M33.7,30.1l0.2,0
							 M33.9,30.1l0.2,0.1 M34.1,30.2l0.1,0.1 M34.2,30.3l0.1,0.1 M34.3,30.4l0.1,0.2 M34.4,30.6l0.1,0.2 M34.5,30.7l0,0.2
							 M34.5,30.9l0,0.2 M34.5,31.1l-0.1,0.2 M34.4,31.3l-0.1,0.2 M34.3,31.5l-0.1,0.1 M34.2,31.6l-0.1,0.1 M34.1,31.7l-0.1,0
							 M34,31.7h-0.1 M33.8,31.7l-0.1,0 M33.7,31.7L33.7,31.7 M33.7,31.6L33.7,31.6 M33.6,31.6l-0.2-0.2 M33.4,31.4L33.4,31.4
							 M33.4,31.3L33.4,31.3 M33.4,31.3L33.4,31.3 M38.7,32.8L38.7,32.8 M38.6,32.8v-0.1 M38.6,32.8v-0.2 M38.5,32.8v-0.2
							 M38.4,32.8v-0.3 M38.4,32.8v-0.4 M38.3,32.8v-0.4 M38.2,32.8v-0.5 M38.1,32.8v-0.6 M38.1,32.8v-0.6 M38,32.8v-0.7 M37.9,32.8
							V32 M37.9,32.8v-0.8 M37.8,32.8v-0.9 M37.7,32.8v-1 M37.6,32.8v-1 M37.6,32.8v-1.1 M37.5,32.8v-1.1 M37.4,32.8v-1.2
							 M37.3,32.8v-1.3 M37.3,32.8v-1.3 M37.2,32.8v-1.4 M37.1,32.8v-1.5 M37.1,32.8v-1.6 M37,32.8v-1.6 M36.9,32.8V31 M36.8,32.8
							v-1.9 M36.8,32.8V30 M36.7,32.8v-3.3 M36.6,32.8v-3.5 M36.6,32.8v-3.7 M36.5,32.8v-3.8 M36.4,32.8v-4 M36.3,32.8v-4.1
							 M36.3,32.8v-4.2 M36.2,32.8v-4.3 M36.1,32.8v-4.3 M36.1,32.8v-4.4 M36,32.8v-4.5 M35.9,32.8v-4.5 M35.8,32.8v-4.6 M35.8,32.8
							v-4.7 M35.7,32.8V28 M35.6,32.8V28 M35.5,32.8v-4.8 M35.5,32.8v-4.9 M35.4,32.8v-4.9 M35.3,32.8v-4.9 M35.3,32.8v-5
							 M35.2,32.8v-5 M35.1,32.8v-5 M35,32.8v-5.1 M35,32.8v-5.1 M34.9,32.8v-5.1 M34.8,32.8v-5.1 M34.8,32.8v-5.2 M34.7,32.8v-5.2
							 M34.6,32.8v-5.2 M34.5,32.8v-5.2 M34.5,32.8v-1.6 M34.5,30.8v-3.3 M34.4,32.8v-1.4 M34.4,30.6v-3 M34.3,32.7v-1.3 M34.3,30.4
							v-2.9 M34.3,32.7v-1.2 M34.3,30.3v-2.8 M34.2,32.7v-1.1 M34.2,30.3v-2.8 M34.1,32.7v-1.1 M34.1,30.2v-2.7 M34,32.7v-1
							 M34,30.2v-2.7 M34,32.6v-1 M34,30.1v-2.7 M33.9,32.6v-0.9 M33.9,30.1v-2.6 M33.8,32.6v-0.9 M33.8,30.1v-2.6 M33.7,32.5v-0.8
							 M33.7,30.1v-2.6 M33.7,32.4v-0.8 M33.7,30.1v-2.6 M33.6,32.4v-0.8 M33.6,30.1v-2.6 M33.5,32.3v-0.8 M33.5,30.2v-2.7
							 M33.5,32.1v-0.7 M33.5,30.2v-2.7 M33.4,31.9v-0.5 M33.4,30.2v-2.7 M33.3,30.3v-2.8 M33.2,30.4v-2.8 M33.2,30.4v-2.9
							 M33.1,30.5v-2.9 M33,30.6v-2.9 M33,30.6v-3 M32.9,30.7v-3 M32.8,30.8v-3 M32.7,30.8v-3 M32.7,30.9v-2 M32.7,28.6v-0.8
							 M32.6,30.9v-1.8 M32.6,28.5v-0.6 M32.5,31v-1.8 M32.5,28.4v-0.5 M32.5,31v-1.7 M32.5,28.4V28 M32.4,31.1v-1.7 M32.4,28.4
							v-0.3 M32.3,31.1v-1.6 M32.3,28.4v-0.2 M32.2,31.1v-1.6 M32.2,28.4v-0.1 M32.2,31.1v-1.6 M32.2,28.4L32.2,28.4 M32.1,31.2
							v-1.5 M32,31.2v-1.5 M31.9,31.2v-1.5 M31.9,31.2v-1.4 M31.8,31.2v-1.4 M31.7,31.1v-1.4 M31.7,31.1v-1.4 M31.6,31.1v-1.4
							 M31.5,31.1v-1.4 M31.4,31v-1.4 M31.4,30.9v-1.4 M31.3,30.9v-1.4 M31.2,30.8v-1.4 M31.2,30.7v-1.8 M31.1,30.6V29 M31,30.5
							v-1.4 M30.9,30.3v-1.1 M30.9,30.1v-0.6"/>
					</g>
				</g>
			</g>
			<g>
				<title>element:JP4</title>
				<g>
					<title>package:SFE-LOGO-FLAME</title>
				</g>
			</g>
			<g>
				<title>element:U$1</title>
				<g>
					<title>package:OSHW-LOGO-S</title>
				</g>
			</g>
		</g>
		<rect x="0" y="5" fill="#FFFFFF" fill-opacity="0.15" width="40.3" height="18.7"/>
		<circle id="connector0pin" fill="none" stroke="#9A916C" stroke-width="1.224" cx="12.9" cy="46.8" r="2.1"/>
		<rect x="10.8" y="44.7" fill="none" stroke="#9A916C" stroke-width="1.224" width="4.1" height="4.1"/>
		<circle id="connector1pin" fill="none" stroke="#9A916C" stroke-width="1.224" cx="20.1" cy="46.8" r="2.1"/>
		<circle id="connector2pin" fill="none" stroke="#9A916C" stroke-width="1.224" cx="27.3" cy="46.8" r="2.1"/>
		<circle id="connector3pin" fill="none" stroke="#9A916C" stroke-width="1.224" cx="34.5" cy="46.8" r="2.1"/>
	</g>
</g>
<g id="extra_pads">
	<g transform="matrix(0, 1, -1, 0, 94.392, -83.592)">
		
			<rect id="connector107pad" x="87.2" y="56.4" transform="matrix(2.578893e-06 1 -1 2.578893e-06 148.4836 -29.0167)" fill="#8C8C8C" width="3.2" height="6.6"/>
	</g>
</g>
<g id="extra_pads_1_">
	<g transform="matrix(0, 1, -1, 0, 94.392, -83.592)">
		
			<rect id="connector107pad_1_" x="87.2" y="67" transform="matrix(2.578893e-06 1 -1 2.578893e-06 159.0233 -18.4882)" fill="#8C8C8C" width="3.2" height="6.6"/>
	</g>
</g>
<g id="extra_pads_2_">
	<g transform="matrix(0, 1, -1, 0, 94.392, -83.592)">
		
			<rect id="connector107pad_2_" x="87.1" y="74.9" transform="matrix(2.578893e-06 1 -1 2.578893e-06 166.9179 -10.4753)" fill="#8C8C8C" width="3.2" height="6.6"/>
	</g>
</g>
<g id="extra_pads_3_">
	<g transform="matrix(0, 1, -1, 0, 94.392, -83.592)">
		
			<rect id="connector107pad_3_" x="104.3" y="53.5" transform="matrix(2.578893e-06 1 -1 2.578893e-06 162.7053 -49.0957)" fill="#8C8C8C" width="3.2" height="6.6"/>
	</g>
</g>
<g id="Layer_5">
	<g>
		<g id="breadboard_1_">
			<g id="icon_1_">
				<polygon fill="#2B2B2B" points="3.9,17.8 3.9,17.8 3.9,10.1 3.9,10.1 3.9,8.3 -0.1,8.3 -0.1,19.6 3.9,19.6 				"/>
				<polygon fill="#292929" points="3.9,10.3 3.9,10.1 3.9,10.1 3.9,8.8 -0.1,8.8 -0.1,10.3 				"/>
				<polygon fill="#292929" points="3.9,17.2 3.9,17.8 3.9,17.8 3.9,19.2 -0.1,19.2 -0.1,17.2 				"/>
				<rect x="0" y="13" fill="#333333" width="3.9" height="3"/>
				<rect x="0" y="13.4" fill="#383838" width="3.9" height="1.7"/>
				<rect x="-0.1" y="8.4" fill="#212121" width="4" height="0.4"/>
				<rect x="-0.1" y="19.2" fill="#212121" width="4" height="0.4"/>
				<g>
					<g>
						<rect x="3.5" y="3.7" fill="#333333" width="37.5" height="20.1"/>
					</g>
				</g>
				<rect x="21.7" y="3.8" width="4.8" height="2.3"/>
				<rect id="connector1pad" x="21.7" y="3.8" fill="#C7C7C7" width="4.8" height="0.7"/>
				<rect x="13.5" y="3.8" width="4.8" height="2.3"/>
				<rect id="connector1pad_1_" x="13.5" y="3.8" fill="#C7C7C7" width="4.8" height="0.7"/>
				<rect x="32.2" y="3.8" width="4.8" height="2.3"/>
				<rect id="connector0pad" x="32.2" y="3.8" fill="#C7C7C7" width="4.8" height="0.7"/>
			</g>
		</g>
	</g>
</g>
</svg>
