<?xml version='1.0' encoding='UTF-8' standalone='no'?>
<!-- Created with Inkscape (http://www.inkscape.org/) -->
<svg xmlns="http://www.w3.org/2000/svg"  width="123.41624" xml:space="preserve" xmlns:xml="http://www.w3.org/XML/1998/namespace" version="1.2" height="69.024323" viewBox="0 0 123.41623 69.024321" id="0">
 <desc   id="0.0" oldid="0.0">
  <referenceFile   id="0.0.0" oldid="0.0.0">Wos.svg</referenceFile>
 </desc>
 <metadata   id="0.1" oldid="0.1">
  <rdf:RDF xmlns:rdf="http://www.w3.org/1999/02/22-rdf-syntax-ns#"  id="0.1.0" oldid="0.1.0">
   <cc:Work xmlns:cc="http://creativecommons.org/ns#"  rdf:about="" xmlns:rdf="http://www.w3.org/1999/02/22-rdf-syntax-ns#" id="0.1.0.0" oldid="0.1.0.0">
    <dc:format xmlns:dc="http://purl.org/dc/elements/1.1/"  id="0.1.0.0.0" oldid="0.1.0.0.0">image/svg+xml</dc:format>
    <dc:type xmlns:dc="http://purl.org/dc/elements/1.1/"  id="0.1.0.0.1" oldid="0.1.0.0.1" rdf:resource="http://purl.org/dc/dcmitype/StillImage" xmlns:rdf="http://www.w3.org/1999/02/22-rdf-syntax-ns#"/>
    <dc:title xmlns:dc="http://purl.org/dc/elements/1.1/"  id="0.1.0.0.2" oldid="0.1.0.0.2"/>
   </cc:Work>
  </rdf:RDF>
 </metadata>
 <defs   id="0.2" oldid="0.2"/>
 <flowRoot  xml:space="preserve" xmlns:xml="http://www.w3.org/XML/1998/namespace" fill="#000000"  stroke="none" style="font-style:normal;font-weight:normal;line-height:125%;letter-spacing:0px;word-spacing:0px;font-family:Droid Sans" fill-opacity="1" id="0.3" oldid="0.3" transform="translate(-218.08018,-281.66932)" font-size="8">
  <flowRegion   id="0.3.0" oldid="0.3.0">
   <rect  width="2.5944223" x="320.41113" y="400.51395"  height="10.701992" id="rect10821"/>
  </flowRegion>
  <flowPara   id="0.3.1" oldid="0.3.1"/>
 </flowRoot>
 <rect  width="123.14307" x="-9.2480468e-006" y="-1.4648435e-007" fill="#f31f0f"  height="69.024323" stroke="none" fill-opacity="1" id="rect8880"/>
 <rect  width="36.00272" x="58.017113" y="25.683472" fill="#000000"  height="20.638502" stroke="none" fill-opacity="1" id="rect9650"/>
 <rect  width="7.7967668" x="39.786438" y="14.44693" fill="#000000"  height="8.0260839" stroke="none" fill-opacity="1" id="rect9650-1"/>
 <rect  width="4.81565" x="41.047699" y="32.677643" fill="#000000"  height="8.0260839" stroke="none" fill-opacity="1" id="rect9650-1-7"/>
 <rect  width="9.4019833" x="38.754517" y="46.665955" fill="#000000"  height="8.7140341" stroke="none" fill-opacity="1" id="rect9650-1-4"/>
 <path  fill="#000000"  stroke="none" fill-opacity="1" id="rect9650-1-0" d="m 0.45863,36.11737 4.1277,0 13.30037,0 0,23.16099 -13.30037,0 -4.1277,0 0,-4.70098 0,-13.98832 z"/>
 <rect  width="1.864741" x="91.332489" y="19.221436" fill="#c8c8c8"  height="6.4049797" stroke="none" fill-opacity="1" id="rect9702"/>
 <rect  width="1.864741" x="87.726257" y="19.221436" fill="#c8c8c8"  height="6.4049797" stroke="none" fill-opacity="1" id="rect9702-9"/>
 <rect  width="1.864741" x="84.119995" y="19.221436" fill="#c8c8c8"  height="6.4049797" stroke="none" fill-opacity="1" id="rect9702-4"/>
 <rect  width="1.864741" x="80.513763" y="19.221436" fill="#c8c8c8"  height="6.4049797" stroke="none" fill-opacity="1" id="rect9702-8"/>
 <rect  width="1.864741" x="76.907532" y="19.221436" fill="#c8c8c8"  height="6.4049797" stroke="none" fill-opacity="1" id="rect9702-82"/>
 <rect  width="1.864741" x="73.30127" y="19.221436" fill="#c8c8c8"  height="6.4049797" stroke="none" fill-opacity="1" id="rect9702-45"/>
 <rect  width="1.864741" x="69.695038" y="19.221436" fill="#c8c8c8"  height="6.4049797" stroke="none" fill-opacity="1" id="rect9702-5"/>
 <rect  width="1.864741" x="66.088806" y="19.221436" fill="#c8c8c8"  height="6.4049797" stroke="none" fill-opacity="1" id="rect9702-1"/>
 <rect  width="1.864741" x="62.482544" y="19.221436" fill="#c8c8c8"  height="6.4049797" stroke="none" fill-opacity="1" id="rect9702-7"/>
 <rect  width="1.864741" x="58.876312" y="19.221436" fill="#c8c8c8"  height="6.4049797" stroke="none" fill-opacity="1" id="rect9702-11"/>
 <rect  width="1.864741" x="91.464508" y="46.32196" fill="#c8c8c8"  height="6.4049797" stroke="none" fill-opacity="1" id="rect9702-52"/>
 <rect  width="1.864741" x="87.858276" y="46.32196" fill="#c8c8c8"  height="6.4049797" stroke="none" fill-opacity="1" id="rect9702-9-7"/>
 <rect  width="1.864741" x="84.252014" y="46.32196" fill="#c8c8c8"  height="6.4049797" stroke="none" fill-opacity="1" id="rect9702-4-6"/>
 <rect  width="1.864741" x="80.645782" y="46.32196" fill="#c8c8c8"  height="6.4049797" stroke="none" fill-opacity="1" id="rect9702-8-1"/>
 <rect  width="1.864741" x="77.039551" y="46.32196" fill="#c8c8c8"  height="6.4049797" stroke="none" fill-opacity="1" id="rect9702-82-4"/>
 <rect  width="1.864741" x="73.433289" y="46.32196" fill="#c8c8c8"  height="6.4049797" stroke="none" fill-opacity="1" id="rect9702-45-2"/>
 <rect  width="1.864741" x="69.827057" y="46.32196" fill="#c8c8c8"  height="6.4049797" stroke="none" fill-opacity="1" id="rect9702-5-3"/>
 <rect  width="1.864741" x="66.220825" y="46.32196" fill="#c8c8c8"  height="6.4049797" stroke="none" fill-opacity="1" id="rect9702-1-2"/>
 <rect  width="1.864741" x="62.614563" y="46.32196" fill="#c8c8c8"  height="6.4049797" stroke="none" fill-opacity="1" id="rect9702-7-2"/>
 <rect  width="1.864741" x="59.008331" y="46.32196" fill="#c8c8c8"  height="6.4049797" stroke="none" fill-opacity="1" id="rect9702-11-1"/>
 <rect  width="4.1005788" x="47.583191" y="15.264893" fill="#c8c8c8"  height="0.95870829" stroke="none" fill-opacity="1" id="rect9702-11-6"/>
 <rect  width="4.1005788" x="47.605225" y="17.229401" fill="#c8c8c8"  height="0.95870829" stroke="none" fill-opacity="1" id="rect9702-11-6-8"/>
 <rect  width="4.1005788" x="47.60556" y="18.905487" fill="#c8c8c8"  height="0.95870829" stroke="none" fill-opacity="1" id="rect9702-11-6-5"/>
 <rect  width="4.1005788" x="47.583191" y="20.761108" fill="#c8c8c8"  height="0.95870829" stroke="none" fill-opacity="1" id="rect9702-11-6-7"/>
 <rect  width="4.1005788" x="35.685852" y="15.314819" fill="#c8c8c8"  height="0.95870829" stroke="none" fill-opacity="1" id="rect9702-11-6-6"/>
 <rect  width="4.1005788" x="35.685852" y="17.17804" fill="#c8c8c8"  height="0.95870829" stroke="none" fill-opacity="1" id="rect9702-11-6-1"/>
 <rect  width="4.1005788" x="35.685852" y="19.041229" fill="#c8c8c8"  height="0.95870829" stroke="none" fill-opacity="1" id="rect9702-11-6-89"/>
 <rect  width="4.1005788" x="35.685852" y="20.703766" fill="#c8c8c8"  height="0.95870829" stroke="none" fill-opacity="1" id="rect9702-11-6-2"/>
 <rect  width="2.8106723" x="45.863342" y="33.144196" fill="#c8c8c8"  height="1.4173417" stroke="none" fill-opacity="1" id="rect9702-11-6-79"/>
 <rect  width="2.8106723" x="38.23703" y="33.171967" fill="#c8c8c8"  height="1.4173417" stroke="none" fill-opacity="1" id="rect9702-11-6-79-1"/>
 <rect  width="2.8106723" x="38.23703" y="35.827179" fill="#c8c8c8"  height="1.4173417" stroke="none" fill-opacity="1" id="rect9702-11-6-79-3"/>
 <rect  width="2.8106723" x="38.23703" y="38.482422" fill="#c8c8c8"  height="1.4173417" stroke="none" fill-opacity="1" id="rect9702-11-6-79-8"/>
 <rect  width="2.8106723" x="45.863342" y="38.4216" fill="#c8c8c8"  height="1.4173417" stroke="none" fill-opacity="1" id="rect9702-11-6-79-7"/>
 <rect  width="5.3904853" x="17.886703" y="36.38327" fill="#c8c8c8"  height="2.3919377" stroke="none" fill-opacity="1" id="rect9702-11-6-79-4"/>
 <rect  width="5.3904853" x="17.886703" y="56.133209" fill="#c8c8c8"  height="2.3919377" stroke="none" fill-opacity="1" id="rect9702-11-6-79-4-2"/>
 <rect  width="9.1912775" x="17.886703" y="44.033325" fill="#c8c8c8"  height="1.4780899" stroke="none" fill-opacity="1" id="rect9702-11-6-79-4-7"/>
 <rect  width="9.1912775" x="17.886703" y="49.89386" fill="#c8c8c8"  height="1.4780899" stroke="none" fill-opacity="1" id="rect9702-11-6-79-4-7-3"/>
 <rect  width="5.0449672" x="31.187063" y="32.792297" fill="#ff6261"  height="2.4078252" stroke="none" fill-opacity="1" id="rect10068"/>
 <rect  width="5.0449672" x="33.938873" y="10.147278" fill="#ff6261"  height="2.4078252" stroke="none" fill-opacity="1" id="rect10068-1"/>
 <rect  width="5.0449672" x="40.933044" y="10.261902" fill="#ff6261"  height="2.4078252" stroke="none" fill-opacity="1" id="rect10068-1-9"/>
 <g   id="0.50" transform="matrix(0,1,-1,0,0,0)">
  <rect  width="5.0449672" x="26.944702" y="-55.208008" fill="#ff6261"  height="2.4078252" stroke="none" fill-opacity="1" id="rect10068-1-8"/>
 </g>
 <g   id="0.51" transform="matrix(0,1,-1,0,0,0)">
  <rect  width="5.0449672" x="33.639435" y="-55.437317" fill="#ff6261"  height="2.4078252" stroke="none" fill-opacity="1" id="rect10068-1-8-5"/>
 </g>
 <g   id="0.52" transform="matrix(0,1,-1,0,0,0)">
  <rect  width="5.0449672" x="33.868744" y="-52.176056" fill="#ff6261"  height="2.4078252" stroke="none" fill-opacity="1" id="rect10068-1-8-0"/>
 </g>
 <g   id="0.53" transform="matrix(0,1,-1,0,0,0)">
  <rect  width="5.0449672" x="40.984436" y="-99.199219" fill="#ff6261"  height="2.4078252" stroke="none" fill-opacity="1" id="rect10068-1-8-2"/>
 </g>
 <g   id="0.54" transform="matrix(0,1,-1,0,0,0)">
  <rect  width="5.0449672" x="19.385437" y="-120.79922" fill="#ff6261"  height="2.4078252" stroke="none" fill-opacity="1" id="rect10068-1-8-8"/>
 </g>
 <rect  width="5.0449672" x="37.753265" y="64.025574" fill="#ff6261"  height="2.4078252" stroke="none" fill-opacity="1" id="rect10068-6"/>
 <g  xml:space="preserve" xmlns:xml="http://www.w3.org/XML/1998/namespace" fill="#000000"  stroke="none" style="font-style:normal;font-weight:normal;line-height:125%;letter-spacing:0px;word-spacing:0px;font-family:Droid Sans" fill-opacity="1" id="text10344" font-size="5.05812">
  <text  x="31.403824" y="6.2258911"  style="font-style:normal;font-variant:normal;font-weight:normal;font-stretch:normal;fill:#ffffff;fill-opacity:1;font-family:OCRA;-inkscape-font-specification:OCRA" id="tspan10346">Wake-on-Shake</text>
 </g>
 <rect  width="4.3840361" x="55.882446" y="63.220581" stroke-opacity="1" fill="none"  height="4.3840361" stroke="#d7cfbd" style="stroke-miterlimit:4;stroke-dasharray:none;stroke-dashoffset:0" id="rect10456" stroke-width="1.69999993"/>
 <g   id="g3217">
  <path  stroke-opacity="1" fill="none"  stroke="#ffffff" style="stroke-miterlimit:4;stroke-dashoffset:0" id="path10348" stroke-width="0.89999998" d="m 12.56085,15.07528 -2.93262,0.0149 -2.0842,-2.06316 -0.0149,-2.93262 2.06317,-2.0842 2.93261,-0.0149 2.12125,2.08112 2.10022,-2.06625 2.93262,-0.0149 2.0842,2.06316 0.0149,2.93262 -2.06316,2.0842 -2.93262,0.0149 -2.12126,-2.08112 z"/>
  <path  stroke-opacity="1" fill="none"  stroke="#ffffff" style="stroke-miterlimit:4;stroke-dashoffset:0" id="path10348-8-8" stroke-width="0.7329815" d="m 8.9943911,25.890935 -2.9326184,0.0149 -2.0842004,-2.063164 -0.014904,-2.932618 2.0631638,-2.084201 2.9326183,-0.0149 2.0842006,2.063163 0.0149,2.932619 z"/>
  <path  stroke-opacity="1" fill="none"  stroke="#ffffff" style="stroke-miterlimit:4;stroke-dashoffset:0" id="path10348-8-2" stroke-width="0.7329815" d="m 16.389851,25.890935 -2.932618,0.0149 -2.084201,-2.063164 -0.0149,-2.932618 2.063164,-2.084201 2.932619,-0.0149 2.0842,2.063163 0.0149,2.932619 z"/>
  <path  stroke-opacity="1" fill="none"  stroke="#ffffff" style="stroke-miterlimit:4;stroke-dashoffset:0" id="path10348-8-9" stroke-width="0.7329815" d="m 23.670651,25.890935 -2.932618,0.0149 -2.084201,-2.063164 -0.0149,-2.932618 2.063164,-2.084201 2.932619,-0.0149 2.0842,2.063163 0.0149,2.932619 z"/>
  <path  stroke-opacity="1" fill="none"  stroke="#ffffff" style="stroke-miterlimit:4;stroke-dashoffset:0" id="path10348-8-1" stroke-width="0.7329815" d="m 23.498671,33.114405 -2.932618,0.0149 -2.084201,-2.063164 -0.0149,-2.932618 2.063164,-2.084201 2.932619,-0.0149 2.0842,2.063163 0.0149,2.932619 z"/>
  <path  stroke-opacity="1" fill="none"  stroke="#ffffff" style="stroke-miterlimit:4;stroke-dashoffset:0" id="path10348-8-3" stroke-width="0.7329815" d="m 16.217861,33.114405 -2.932618,0.0149 -2.084201,-2.063164 -0.0149,-2.932618 2.063164,-2.084201 2.932619,-0.0149 2.0842,2.063163 0.0149,2.932619 z"/>
  <path  stroke-opacity="1" fill="none"  stroke="#ffffff" style="stroke-miterlimit:4;stroke-dashoffset:0" id="path10348-8-5" stroke-width="0.7329815" d="m 8.8224011,33.114405 -2.9326184,0.0149 -2.0842004,-2.063164 -0.014904,-2.932618 2.0631638,-2.084201 2.9326183,-0.0149 2.0842006,2.063163 0.0149,2.932619 z"/>
  <path  stroke-opacity="1" fill="none"  stroke="#ffffff" style="stroke-miterlimit:4;stroke-dashoffset:0" id="path10348-8-7" stroke-width="0.89999998" d="m 113.5628,7.77491 -2.93262,0.0149 -2.21328,-2.08114 -2.19224,2.06624 -2.93262,0.0149 -2.09862,-2.08114 -2.07758,2.06624 -2.93262,0.0149 -2.18461,-2.08114 -2.16357,2.06624 -2.93262,0.0149 -2.0842,-2.06317 -0.0149,-2.93262 2.06316,-2.0842 2.93262,-0.0149 2.18461,2.08114 2.16357,-2.06623 2.93262,-0.0149 2.09862,2.08113 2.07758,-2.06623 2.93262,-0.0149 2.21328,2.08113 2.19224,-2.06623 2.93262,-0.0149 2.15594,2.08113 2.13491,-2.06623 2.93262,-0.0149 2.0842,2.06316 0.0149,2.93262 -2.06316,2.0842 -2.93262,0.0149 -2.15595,-2.08114 z"/>
  <path  stroke-opacity="1" fill="none"  stroke="#ffffff" style="stroke-miterlimit:4;stroke-dashoffset:0" id="path10348-8-6-1" stroke-width="0.89999998" d="m 115.88411,30.89416 -0.0149,-2.93262 2.06316,-2.0842 2.93262,-0.0149 2.0842,2.06316 0.0149,2.93262 -2.08113,2.09862 2.06623,2.07758 0.0149,2.93262 -2.08113,2.15595 2.06623,2.13491 0.0149,2.93261 -2.06316,2.08421 -2.93262,0.0149 -2.0842,-2.06316 -0.0149,-2.93262 2.08113,-2.15595 -2.06623,-2.13491 -0.0149,-2.93262 2.08113,-2.09862 z"/>
  <path  stroke-opacity="1" fill="none"  stroke="#ffffff" style="stroke-linecap:butt;stroke-linejoin:miter;" id="path10594" stroke-width="1" d="m 99.29413,68.40023 0,-7.95076 -46.55129,0 0,7.95076"/>
 </g>
 <g  xml:space="preserve" xmlns:xml="http://www.w3.org/XML/1998/namespace" fill="#000000"  stroke="none" style="font-style:normal;font-weight:normal;line-height:125%;letter-spacing:0px;word-spacing:0px;font-family:Droid Sans" fill-opacity="1" id="text10596" transform="matrix(0,-1,1,0,0,0)" font-size="8">
  <text  x="-17.335297" y="6.2551432"  style="font-size:6px;font-style:normal;font-variant:normal;font-weight:normal;font-stretch:normal;fill:#ffffff;font-family:OCRA;-inkscape-font-specification:OCRA" id="tspan10598">GND</text>
 </g>
 <g  xml:space="preserve" xmlns:xml="http://www.w3.org/XML/1998/namespace" fill="#000000"  stroke="none" style="font-style:normal;font-weight:normal;line-height:125%;letter-spacing:0px;word-spacing:0px;font-family:Droid Sans" fill-opacity="1" id="text10596-2" transform="matrix(0,-1,1,0,0,0)" font-size="8">
  <text  x="-17.603607" y="27.672058"  style="font-size:6px;font-style:normal;font-variant:normal;font-weight:normal;font-stretch:normal;fill:#ffffff;font-family:OCRA;-inkscape-font-specification:OCRA" id="tspan10598-0">VIN</text>
 </g>
 <g  xml:space="preserve" xmlns:xml="http://www.w3.org/XML/1998/namespace" fill="#000000"  stroke="none" style="font-style:normal;font-weight:normal;line-height:125%;letter-spacing:0px;word-spacing:0px;font-family:Droid Sans" fill-opacity="1" id="text10596-2-9" font-size="8">
  <text  x="97.961121" y="31.591248"  style="font-size:6px;font-style:normal;font-variant:normal;font-weight:normal;font-stretch:normal;fill:#ffffff;font-family:OCRA;-inkscape-font-specification:OCRA" id="tspan10598-0-7">WAKE</text>
 </g>
 <g  xml:space="preserve" xmlns:xml="http://www.w3.org/XML/1998/namespace" fill="#000000"  stroke="none" style="font-style:normal;font-weight:normal;line-height:125%;letter-spacing:0px;word-spacing:0px;font-family:Droid Sans" fill-opacity="1" id="text10596-2-9-3" font-size="8">
  <text  x="97.749023" y="38.888763"  style="font-size:6px;font-style:normal;font-variant:normal;font-weight:normal;font-stretch:normal;fill:#ffffff;font-family:OCRA;-inkscape-font-specification:OCRA" id="tspan10598-0-7-7">VOUT</text>
 </g>
 <g  xml:space="preserve" xmlns:xml="http://www.w3.org/XML/1998/namespace" fill="#000000"  stroke="none" style="font-style:normal;font-weight:normal;line-height:125%;letter-spacing:0px;word-spacing:0px;font-family:Droid Sans" fill-opacity="1" id="text10596-2-9-3-2" font-size="8">
  <text  x="97.911163" y="46.185577"  style="font-size:6px;font-style:normal;font-variant:normal;font-weight:normal;font-stretch:normal;fill:#ffffff;font-family:OCRA;-inkscape-font-specification:OCRA" id="tspan10598-0-7-7-6"> GND</text>
 </g>
 <g  xml:space="preserve" xmlns:xml="http://www.w3.org/XML/1998/namespace" fill="#000000"  stroke="none" style="font-style:normal;font-variant:normal;font-weight:normal;font-stretch:normal;line-height:125%;letter-spacing:0px;word-spacing:0px;font-family:OCRA;-inkscape-font-specification:OCRA" fill-opacity="1" id="text10596-2-0" transform="matrix(0,-1,1,0,0,0)" font-size="8">
  <text  x="-17.26123" y="91.700134"  style="font-size:4px;font-style:normal;font-variant:normal;font-weight:normal;font-stretch:normal;fill:#ffffff;font-family:OCRA;-inkscape-font-specification:OCRA" id="tspan10598-0-1">PB3</text>
 </g>
 <g  xml:space="preserve" xmlns:xml="http://www.w3.org/XML/1998/namespace" fill="#000000"  stroke="none" style="font-style:normal;font-variant:normal;font-weight:normal;font-stretch:normal;line-height:125%;letter-spacing:0px;word-spacing:0px;font-family:OCRA;-inkscape-font-specification:OCRA" fill-opacity="1" id="text10596-2-0-6" transform="matrix(0,-1,1,0,0,0)" font-size="8">
  <text  x="-17.26123" y="98.889191"  style="font-size:4px;font-style:normal;font-variant:normal;font-weight:normal;font-stretch:normal;fill:#ffffff;font-family:OCRA;-inkscape-font-specification:OCRA" id="tspan10598-0-1-5">PB2</text>
 </g>
 <g  xml:space="preserve" xmlns:xml="http://www.w3.org/XML/1998/namespace" fill="#000000"  stroke="none" style="font-style:normal;font-variant:normal;font-weight:normal;font-stretch:normal;line-height:125%;letter-spacing:0px;word-spacing:0px;font-family:OCRA;-inkscape-font-specification:OCRA" fill-opacity="1" id="text10596-2-0-6-7" transform="matrix(0,-1,1,0,0,0)" font-size="8">
  <text  x="-17.26123" y="106.07822"  style="font-size:4px;font-style:normal;font-variant:normal;font-weight:normal;font-stretch:normal;fill:#ffffff;font-family:OCRA;-inkscape-font-specification:OCRA" id="tspan10598-0-1-5-5">PB1</text>
 </g>
 <g  xml:space="preserve" xmlns:xml="http://www.w3.org/XML/1998/namespace" fill="#000000"  stroke="none" style="font-style:normal;font-variant:normal;font-weight:normal;font-stretch:normal;line-height:125%;letter-spacing:0px;word-spacing:0px;font-family:OCRA;-inkscape-font-specification:OCRA" fill-opacity="1" id="text10596-2-0-6-7-4" transform="matrix(0,-1,1,0,0,0)" font-size="8">
  <text  x="-17.26123" y="113.26724"  style="font-size:4px;font-style:normal;font-variant:normal;font-weight:normal;font-stretch:normal;fill:#ffffff;font-family:OCRA;-inkscape-font-specification:OCRA" id="tspan10598-0-1-5-5-1">PB0</text>
 </g>
 <g  xml:space="preserve" xmlns:xml="http://www.w3.org/XML/1998/namespace" fill="#000000"  stroke="none" style="font-style:normal;font-variant:normal;font-weight:normal;font-stretch:normal;line-height:125%;letter-spacing:0px;word-spacing:0px;font-family:OCRA;-inkscape-font-specification:OCRA" fill-opacity="1" id="text10596-2-0-6-7-4-2" transform="matrix(0,-1,1,0,0,0)" font-size="8">
  <text  x="-17.26123" y="120.4563"  style="font-size:4px;font-style:normal;font-variant:normal;font-weight:normal;font-stretch:normal;fill:#ffffff;font-family:OCRA;-inkscape-font-specification:OCRA" id="tspan10598-0-1-5-5-1-0">PD6</text>
 </g>
 <g  xml:space="preserve" xmlns:xml="http://www.w3.org/XML/1998/namespace" fill="#000000"  stroke="none" style="font-style:normal;font-weight:normal;line-height:125%;letter-spacing:0px;word-spacing:0px;font-family:Droid Sans" fill-opacity="1" id="text10596-2-01" transform="matrix(0,-1,1,0,0,0)" font-size="8">
  <text  x="-68.400238" y="50.742828"  style="font-size:6px;font-style:normal;font-variant:normal;font-weight:normal;font-stretch:normal;fill:#ffffff;font-family:OCRA;-inkscape-font-specification:OCRA" id="tspan10598-0-4">GRN</text>
 </g>
 <g  xml:space="preserve" xmlns:xml="http://www.w3.org/XML/1998/namespace" fill="#000000"  stroke="none" style="font-style:normal;font-weight:normal;line-height:125%;letter-spacing:0px;word-spacing:0px;font-family:Droid Sans" fill-opacity="1" id="text10596-2-6" transform="matrix(0,-1,1,0,0,0)" font-size="8">
  <text  x="-68.176788" y="105.96945"  style="font-size:6px;font-style:normal;font-variant:normal;font-weight:normal;font-stretch:normal;fill:#ffffff;font-family:OCRA;-inkscape-font-specification:OCRA" id="tspan10598-0-0">BLK</text>
 </g>
 <path  stroke-opacity="1" fill="none"  stroke="#d7cfbd" style="stroke-miterlimit:4;stroke-dasharray:none;stroke-dashoffset:0" id="connector22pin" stroke-width="1.5" d="m 13.18571,11.5427 a 2.10913,2.10913 0 1 1 -4.21826,0 2.10913,2.10913 0 1 1 4.21826,0 z"/>
 <path  stroke-opacity="1" fill="none"  stroke="#d7cfbd" style="stroke-miterlimit:4;stroke-dasharray:none;stroke-dashoffset:0" id="connector21pin" stroke-width="1.5" d="m 20.3398,11.5427 a 2.10913,2.10913 0 1 1 -4.21826,0 2.10913,2.10913 0 1 1 4.21826,0 z"/>
 <path  stroke-opacity="1" fill="none"  stroke="#d7cfbd" style="stroke-miterlimit:4;stroke-dasharray:none;stroke-dashoffset:0" id="connector23pin" stroke-width="1.5" d="m 92.4599,4.24236 a 2.10913,2.10913 0 1 1 -4.21826,0 2.10913,2.10913 0 1 1 4.21826,0 z"/>
 <path  stroke-opacity="1" fill="none"  stroke="#d7cfbd" style="stroke-miterlimit:4;stroke-dasharray:none;stroke-dashoffset:0" id="connector24pin" stroke-width="1.5" d="m 99.74071,4.24236 a 2.10913,2.10913 0 1 1 -4.21826,0 2.10913,2.10913 0 1 1 4.21826,0 z"/>
 <path  stroke-opacity="1" fill="none"  stroke="#d7cfbd" style="stroke-miterlimit:4;stroke-dasharray:none;stroke-dashoffset:0" id="connector25pin" stroke-width="1.5" d="m 106.84953,4.24236 a 2.10913,2.10913 0 1 1 -4.21826,0 2.10913,2.10913 0 1 1 4.21826,0 z"/>
 <path  stroke-opacity="1" fill="none"  stroke="#d7cfbd" style="stroke-miterlimit:4;stroke-dasharray:none;stroke-dashoffset:0" id="connector26pin" stroke-width="1.5" d="m 114.18766,4.24236 a 2.10913,2.10913 0 1 1 -4.21826,0 2.10913,2.10913 0 1 1 4.21826,0 z"/>
 <path  stroke-opacity="1" fill="none"  stroke="#d7cfbd" style="stroke-miterlimit:4;stroke-dasharray:none;stroke-dashoffset:0" id="connector27pin" stroke-width="1.5" d="m 121.41113,4.24236 a 2.10913,2.10913 0 1 1 -4.21826,0 2.10913,2.10913 0 1 1 4.21826,0 z"/>
 <path  stroke-opacity="1" fill="none"  stroke="#d7cfbd" style="stroke-miterlimit:4;stroke-dasharray:none;stroke-dashoffset:0" id="connector28pin" stroke-width="1.5" d="m 121.52579,29.40987 a 2.10913,2.10913 0 1 1 -4.21826,0 2.10913,2.10913 0 1 1 4.21826,0 z"/>
 <path  stroke-opacity="1" fill="none"  stroke="#d7cfbd" style="stroke-miterlimit:4;stroke-dasharray:none;stroke-dashoffset:0" id="connector29pin" stroke-width="1.5" d="m 121.52579,36.51869 a 2.10913,2.10913 0 1 1 -4.21826,0 2.10913,2.10913 0 1 1 4.21826,0 z"/>
 <path  stroke-opacity="1" fill="none"  stroke="#d7cfbd" style="stroke-miterlimit:4;stroke-dasharray:none;stroke-dashoffset:0" id="connector30pin" stroke-width="1.5" d="m 121.52579,43.74216 a 2.10913,2.10913 0 1 1 -4.21826,0 2.10913,2.10913 0 1 1 4.21826,0 z"/>
 <path  stroke-opacity="1" fill="none"  stroke="#d7cfbd" style="stroke-miterlimit:4;stroke-dasharray:none;stroke-dashoffset:0" id="connector31pin" stroke-width="1.5" d="m 96.24363,65.41259 a 2.10913,2.10913 0 1 1 -4.21826,0 2.10913,2.10913 0 1 1 4.21826,0 z"/>
 <path  stroke-opacity="1" fill="none"  stroke="#d7cfbd" style="stroke-miterlimit:4;stroke-dasharray:none;stroke-dashoffset:0" id="connector32pin" stroke-width="1.5" d="m 88.96282,65.41259 a 2.10913,2.10913 0 1 1 -4.21826,0 2.10913,2.10913 0 1 1 4.21826,0 z"/>
 <path  stroke-opacity="1" fill="none"  stroke="#d7cfbd" style="stroke-miterlimit:4;stroke-dasharray:none;stroke-dashoffset:0" id="connector33pin" stroke-width="1.5" d="m 81.85401,65.41259 a 2.10913,2.10913 0 1 1 -4.21826,0 2.10913,2.10913 0 1 1 4.21826,0 z"/>
 <path  stroke-opacity="1" fill="none"  stroke="#d7cfbd" style="stroke-miterlimit:4;stroke-dasharray:none;stroke-dashoffset:0" id="connector34pin" stroke-width="1.5" d="m 74.51587,65.41259 a 2.10913,2.10913 0 1 1 -4.21826,0 2.10913,2.10913 0 1 1 4.21826,0 z"/>
 <path  stroke-opacity="1" fill="none"  stroke="#d7cfbd" style="stroke-miterlimit:4;stroke-dasharray:none;stroke-dashoffset:0" id="connector35pin" stroke-width="1.5" d="m 67.34973,65.41259 a 2.10913,2.10913 0 1 1 -4.21826,0 2.10913,2.10913 0 1 1 4.21826,0 z"/>
 <path  stroke-opacity="1" fill="none"  stroke="#d7cfbd" style="stroke-miterlimit:4;stroke-dasharray:none;stroke-dashoffset:0" id="connector37pin" stroke-width="1.5" d="m 9.61925,22.35838 a 2.10913,2.10913 0 1 1 -4.21826,0 2.10913,2.10913 0 1 1 4.21826,0 z"/>
 <path  stroke-opacity="1" fill="none"  stroke="#d7cfbd" style="stroke-miterlimit:4;stroke-dasharray:none;stroke-dashoffset:0" id="connector38pin" stroke-width="1.5" d="m 17.01471,22.35838 a 2.10913,2.10913 0 1 1 -4.21826,0 2.10913,2.10913 0 1 1 4.21826,0 z"/>
 <path  stroke-opacity="1" fill="none"  stroke="#d7cfbd" style="stroke-miterlimit:4;stroke-dasharray:none;stroke-dashoffset:0" id="connector39pin" stroke-width="1.5" d="m 24.29552,22.35838 a 2.10913,2.10913 0 1 1 -4.21826,0 2.10913,2.10913 0 1 1 4.21826,0 z"/>
 <path  stroke-opacity="1" fill="none"  stroke="#d7cfbd" style="stroke-miterlimit:4;stroke-dasharray:none;stroke-dashoffset:0" id="connector40pin" stroke-width="1.5" d="m 9.44726,29.58186 a 2.10913,2.10913 0 1 1 -4.21826,0 2.10913,2.10913 0 1 1 4.21826,0 z"/>
 <path  stroke-opacity="1" fill="none"  stroke="#d7cfbd" style="stroke-miterlimit:4;stroke-dasharray:none;stroke-dashoffset:0" id="connector41pin" stroke-width="1.5" d="m 16.84272,29.58186 a 2.10913,2.10913 0 1 1 -4.21826,0 2.10913,2.10913 0 1 1 4.21826,0 z"/>
 <path  stroke-opacity="1" fill="none"  stroke="#d7cfbd" style="stroke-miterlimit:4;stroke-dasharray:none;stroke-dashoffset:0" id="connector42pin" stroke-width="1.5" d="m 24.12353,29.58186 a 2.10913,2.10913 0 1 1 -4.21826,0 2.10913,2.10913 0 1 1 4.21826,0 z"/>
 <path  stroke-opacity="1" fill="none"  stroke="#d7cfbd" style="stroke-miterlimit:4;stroke-dasharray:none;stroke-dashoffset:0" id="connector36pin" stroke-width="1.5" d="m 60.18359,65.41259 a 2.10913,2.10913 0 1 1 -4.21826,0 2.10913,2.10913 0 1 1 4.21826,0 z"/>
</svg>
