<?xml version='1.0' encoding='utf-8'?>
<!DOCTYPE svg>
<!-- Generator: Adobe Illustrator 17.0.0, SVG Export Plug-In . SVG Version: 6.00 Build 0)  -->
<svg xmlns="http://www.w3.org/2000/svg" width="1.8in" x="0px" version="1.1" y="0px" gorn="0"  height="1in" viewBox="0 0 129.6 72" xmlns:xml="http://www.w3.org/XML/1998/namespace" id="Layer_1" enable-background="new -0.146 -0.244 129.6 72" xml:space="preserve">
    <desc >
        <referenceFile >CC3000_breadboard.svg</referenceFile>
    </desc>
    <g  transform="translate(0.146,0.244)">
        <g >
            <g >
                <g >
                    <g gorn="0.1.0.0.0.0"  id="_x3C_desc_x3E_"/>
                    <g gorn="0.1.0.0.0.1"  id="breadboard_1_">
                        <g gorn="0.1.0.0.0.1.0"  id="icon_1_">
                            <path fill="#E72D2F"  d="M-0.146,71.727l0-72l129.6,0l0,72L-0.146,71.727z M3.782,5.533c-0.827,0-1.498,0.671-1.498,1.498s0.671,1.498,1.498,1.498S5.28,7.858,5.28,7.031S4.609,5.533,3.782,5.533z M3.782,12.733c-0.827,0-1.498,0.671-1.498,1.498c0,0.827,0.671,1.498,1.498,1.498s1.498-0.671,1.498-1.498C5.28,13.404,4.609,12.733,3.782,12.733z M21.525,1.905c-2.692,0-4.875,2.183-4.875,4.875s2.183,4.875,4.875,4.875S26.4,9.473,26.4,6.78S24.218,1.905,21.525,1.905z M21.525,59.697c-2.692,0-4.875,2.183-4.875,4.875c0,2.692,2.183,4.875,4.875,4.875s4.875-2.183,4.875-4.875C26.4,61.88,24.218,59.697,21.525,59.697z M3.782,19.933c-0.827,0-1.498,0.671-1.498,1.498c0,0.827,0.671,1.498,1.498,1.498s1.498-0.671,1.498-1.498C5.28,20.604,4.609,19.933,3.782,19.933z M3.782,27.133c-0.827,0-1.498,0.671-1.498,1.498c0,0.827,0.671,1.498,1.498,1.498s1.498-0.671,1.498-1.498C5.28,27.804,4.609,27.133,3.782,27.133z M3.782,34.37c-0.827,0-1.498,0.671-1.498,1.498s0.671,1.498,1.498,1.498s1.498-0.671,1.498-1.498S4.609,34.37,3.782,34.37z M3.782,41.57c-0.827,0-1.498,0.671-1.498,1.498c0,0.827,0.671,1.498,1.498,1.498s1.498-0.671,1.498-1.498C5.28,42.241,4.609,41.57,3.782,41.57z M3.782,48.662c-0.827,0-1.498,0.671-1.498,1.498s0.671,1.498,1.498,1.498S5.28,50.987,5.28,50.16S4.609,48.662,3.782,48.662z M3.782,55.862c-0.827,0-1.498,0.671-1.498,1.498c0,0.827,0.671,1.498,1.498,1.498S5.28,58.187,5.28,57.36C5.28,56.532,4.609,55.862,3.782,55.862z M3.782,63.075c-0.827,0-1.498,0.671-1.498,1.498c0,0.827,0.671,1.498,1.498,1.498s1.498-0.671,1.498-1.498C5.28,63.745,4.609,63.075,3.782,63.075z M68.385,5.488c-0.827,0-1.498,0.671-1.498,1.498s0.671,1.498,1.498,1.498s1.498-0.671,1.498-1.498S69.212,5.488,68.385,5.488z M75.585,5.488c-0.827,0-1.498,0.671-1.498,1.498s0.671,1.498,1.498,1.498s1.498-0.671,1.498-1.498S76.412,5.488,75.585,5.488z M82.785,5.488c-0.827,0-1.498,0.671-1.498,1.498s0.671,1.498,1.498,1.498s1.498-0.671,1.498-1.498S83.612,5.488,82.785,5.488z"/>
                            <g gorn="0.1.0.0.0.1.0.1"  id="silkscreen">
                                <g >
                                    <title >element:JP1</title>
                                    <g >
                                        <title >package:1X06</title>
                                    </g>
                                </g>
                                <g >
                                    <title >element:JP3</title>
                                    <g >
                                        <title >package:1X06</title>
                                    </g>
                                </g>
                                <g >
                                    <title >element:JP6</title>
                                    <g >
                                        <title >package:1X12</title>
                                    </g>
                                </g>
                                <g >
                                    <title >element:JP7</title>
                                    <g >
                                        <title >package:1X12</title>
                                    </g>
                                </g>
                                <g >
                                    <title >element:JP8</title>
                                    <g >
                                        <title >package:1X04</title>
                                    </g>
                                </g>
                                <g >
                                    <title >element:JP10</title>
                                    <g >
                                        <title >package:1X03</title>
                                    </g>
                                </g>
                                <g >
                                    <title >element:JP18</title>
                                    <g >
                                        <title >package:SFE-NEW-WEBLOGO</title>
                                    </g>
                                </g>
                                <g >
                                    <title >element:JP21</title>
                                    <g >
                                        <title >package:1X03</title>
                                    </g>
                                </g>
                                <g >
                                    <title >element:U$11</title>
                                    <g >
                                        <title >package:SFE-NEW-WEBLOGO</title>
                                    </g>
                                </g>
                                <g  transform="matrix(1 0 0 1 35.5719 4.0699)">
                                    <g >
                                        <g >
                                            <text fill="#FFFFFF" font-family="OCRA"  font-size="4">802.11b/g</text>
                                        </g>
                                    </g>
                                </g>
                                <g  transform="matrix(1 0 0 1 91.7174 3.2768)">
                                    <g >
                                        <g >
                                            <text fill="#FFFFFF" font-family="OCRA"  font-size="4">Mode</text>
                                        </g>
                                    </g>
                                </g>
                                <g  transform="matrix(1 0 0 1 109.4834 3.2767)">
                                    <g >
                                        <g >
                                            <text fill="#FFFFFF" font-family="OCRA"  font-size="4">U.FL</text>
                                        </g>
                                    </g>
                                </g>
                                <g  transform="matrix(1 0 0 1 96.2519 61.8795)">
                                    <g >
                                        <g >
                                            <text fill="#FFFFFF" font-family="OCRA"  font-size="4">PWR</text>
                                        </g>
                                    </g>
                                </g>
                                <g  transform="matrix(1 0 0 1 8.0852 8.2178)">
                                    <g >
                                        <g >
                                            <text fill="#FFFFFF" font-family="OCRA"  font-size="4">GND</text>
                                        </g>
                                    </g>
                                </g>
                                <g  transform="matrix(1 0 0 1 8.0852 15.8796)">
                                    <g >
                                        <g >
                                            <text fill="#FFFFFF" font-family="OCRA"  font-size="4">VCC</text>
                                        </g>
                                    </g>
                                </g>
                                <g  transform="matrix(1 0 0 1 8.0852 22.9629)">
                                    <g >
                                        <g >
                                            <text fill="#FFFFFF" font-family="OCRA"  font-size="4">3.3V</text>
                                        </g>
                                    </g>
                                </g>
                                <g  transform="matrix(1 0 0 1 8.0852 29.6847)">
                                    <g >
                                        <g >
                                            <text fill="#FFFFFF" font-family="OCRA"  font-size="4">MOSI</text>
                                        </g>
                                    </g>
                                </g>
                                <g  transform="matrix(1 0 0 1 8.0852 37.3464)">
                                    <g >
                                        <g >
                                            <text fill="#FFFFFF" font-family="OCRA"  font-size="4">MISO</text>
                                        </g>
                                    </g>
                                </g>
                                <g  transform="matrix(1 0 0 1 8.0852 44.4298)">
                                    <g >
                                        <g >
                                            <text fill="#FFFFFF" font-family="OCRA"  font-size="4">CS</text>
                                        </g>
                                    </g>
                                </g>
                                <g  transform="matrix(1 0 0 1 8.0852 51.3126)">
                                    <g >
                                        <g >
                                            <text fill="#FFFFFF" font-family="OCRA"  font-size="4">INT</text>
                                        </g>
                                    </g>
                                </g>
                                <g  transform="matrix(1 0 0 1 8.0852 58.9743)">
                                    <g >
                                        <g >
                                            <text fill="#FFFFFF" font-family="OCRA"  font-size="4">SCK</text>
                                        </g>
                                    </g>
                                </g>
                                <g  transform="matrix(1 0 0 1 8.0852 66.0576)">
                                    <g >
                                        <g >
                                            <text fill="#FFFFFF" font-family="OCRA"  font-size="4">EN</text>
                                        </g>
                                    </g>
                                </g>
                                <g  transform="matrix(1 0 0 1 33.6503 70.8216)">
                                    <g >
                                        <g >
                                            <text fill="#FFFFFF" font-family="OCRA"  font-size="5">CC3000 WiFi Breakout</text>
                                        </g>
                                    </g>
                                </g>
                                <path fill="none"  stroke="#FFFFFF" stroke-width="0.5" d="M101.54,8.902c0,0.552-0.448,1-1,1h-6.774c-0.552,0-1-0.448-1-1V5.07c0-0.552,0.448-1,1-1h6.773c0.552,0,1,0.448,1,1L101.54,8.902L101.54,8.902z" stroke-miterlimit="10"/>
                                <path fill="#FFFFFF"  d="M109.408,65.116l1.125,0l0.217-1.242c0.313-0.078,0.609-0.202,0.878-0.365l1.032,0.725l0.796-0.796l-0.726-1.033c0.161-0.269,0.285-0.564,0.362-0.876l1.245-0.218v-1.125l-1.245-0.218c-0.077-0.312-0.2-0.607-0.362-0.876l0.726-1.033l-0.796-0.796l-1.032,0.726c-0.269-0.162-0.565-0.287-0.878-0.365l-0.217-1.241l-1.125,0l-0.216,1.239c-0.315,0.078-0.611,0.202-0.882,0.365l-1.029-0.722l-0.796,0.796l0.722,1.026c-0.099,0.163-0.184,0.336-0.253,0.517l1.895,0.7c0.177-0.444,0.611-0.758,1.118-0.758c0.664,0,1.202,0.538,1.202,1.202c0,0.664-0.539,1.202-1.202,1.202c-0.506,0-0.941-0.313-1.118-0.758l-1.895,0.7c0.069,0.18,0.153,0.353,0.253,0.517l-0.722,1.028l0.796,0.796l1.029-0.722c0.271,0.162,0.567,0.287,0.882,0.364L109.408,65.116z"/>
                                <g >
                                    <path fill="#FFFFFF"  d="M24.615,51.226c0,0-0.475,0.113-0.544-0.247c-0.045-0.251,0.205-0.655,0.452-0.858c0.308-0.251,0.547-0.219,0.759-0.023c0.324,0.293,0.198,0.795,0.198,0.795s0.806-0.918,0.145-1.878c-0.587-0.853-1.387-0.608-2.085,0.162c-0.632,0.694-1.323,0.141-1.234-0.559c0.063-0.478,0.448-0.674,0.683-0.56c0.202,0.1,0.327,0.443,0.327,0.443s0.161-0.395-0.015-0.859c-0.158-0.418-0.504-0.762-1.367-0.735l-4.008,0c0,0,0.535,0.432,1.074,0.938c0.611,0.569,1.023,0.828,0.975,1.411c-0.068,1.104,0.422,1.903,1.209,2.445C22.699,52.743,24.39,51.926,24.615,51.226z"/>
                                </g>
                                <g >
                                    <title >element:JP5</title>
                                    <g >
                                        <title >package:1X03</title>
                                        <line fill="none"  stroke="#FFFFFF" stroke-linecap="round" y1="5.271" stroke-width="0.576" x1="79.16" y2="3.473" x2="80.958"/>
                                        <line fill="none"  stroke="#FFFFFF" stroke-linecap="round" y1="3.473" stroke-width="0.576" x1="80.958" y2="3.473" x2="84.556"/>
                                        <line fill="none"  stroke="#FFFFFF" stroke-linecap="round" y1="3.473" stroke-width="0.576" x1="84.556" y2="5.271" x2="86.354"/>
                                        <line fill="none"  stroke="#FFFFFF" stroke-linecap="round" y1="8.869" stroke-width="0.576" x1="86.354" y2="10.668" x2="84.556"/>
                                        <line fill="none"  stroke="#FFFFFF" stroke-linecap="round" y1="10.668" stroke-width="0.576" x1="84.556" y2="10.668" x2="80.958"/>
                                        <line fill="none"  stroke="#FFFFFF" stroke-linecap="round" y1="10.668" stroke-width="0.576" x1="80.958" y2="8.869" x2="79.16"/>
                                        <line fill="none"  stroke="#FFFFFF" stroke-linecap="round" y1="3.473" stroke-width="0.576" x1="66.569" y2="3.473" x2="70.166"/>
                                        <line fill="none"  stroke="#FFFFFF" stroke-linecap="round" y1="3.473" stroke-width="0.576" x1="70.166" y2="5.271" x2="71.965"/>
                                        <line fill="none"  stroke="#FFFFFF" stroke-linecap="round" y1="8.869" stroke-width="0.576" x1="71.965" y2="10.667" x2="70.166"/>
                                        <line fill="none"  stroke="#FFFFFF" stroke-linecap="round" y1="5.271" stroke-width="0.576" x1="71.965" y2="3.473" x2="73.764"/>
                                        <line fill="none"  stroke="#FFFFFF" stroke-linecap="round" y1="3.473" stroke-width="0.576" x1="73.764" y2="3.473" x2="77.361"/>
                                        <line fill="none"  stroke="#FFFFFF" stroke-linecap="round" y1="3.473" stroke-width="0.576" x1="77.361" y2="5.271" x2="79.16"/>
                                        <line fill="none"  stroke="#FFFFFF" stroke-linecap="round" y1="8.869" stroke-width="0.576" x1="79.16" y2="10.668" x2="77.361"/>
                                        <line fill="none"  stroke="#FFFFFF" stroke-linecap="round" y1="10.668" stroke-width="0.576" x1="77.361" y2="10.668" x2="73.764"/>
                                        <line fill="none"  stroke="#FFFFFF" stroke-linecap="round" y1="10.668" stroke-width="0.576" x1="73.764" y2="8.869" x2="71.965"/>
                                        <line fill="none"  stroke="#FFFFFF" stroke-linecap="round" y1="5.271" stroke-width="0.576" x1="64.77" y2="8.869" x2="64.77"/>
                                        <line fill="none"  stroke="#FFFFFF" stroke-linecap="round" y1="3.473" stroke-width="0.576" x1="66.569" y2="5.271" x2="64.77"/>
                                        <line fill="none"  stroke="#FFFFFF" stroke-linecap="round" y1="8.869" stroke-width="0.576" x1="64.77" y2="10.667" x2="66.569"/>
                                        <line fill="none"  stroke="#FFFFFF" stroke-linecap="round" y1="10.667" stroke-width="0.576" x1="70.166" y2="10.667" x2="66.569"/>
                                        <line fill="none"  stroke="#FFFFFF" stroke-linecap="round" y1="5.271" stroke-width="0.576" x1="86.354" y2="8.869" x2="86.354"/>
                                    </g>
                                </g>
                                <g >
                                    <title >element:JP5</title>
                                    <g >
                                        <title >package:1X03</title>
                                        <line fill="none"  stroke="#FFFFFF" stroke-linecap="round" y1="10.471" stroke-width="0.576" x1="1.896" y2="8.673" x2="0.098"/>
                                        <line fill="none"  stroke="#FFFFFF" stroke-linecap="round" y1="8.673" stroke-width="0.576" x1="0.098" y2="5.075" x2="0.098"/>
                                        <line fill="none"  stroke="#FFFFFF" stroke-linecap="round" y1="5.075" stroke-width="0.576" x1="0.098" y2="3.277" x2="1.896"/>
                                        <line fill="none"  stroke="#FFFFFF" stroke-linecap="round" y1="3.277" stroke-width="0.576" x1="5.494" y2="5.075" x2="7.293"/>
                                        <line fill="none"  stroke="#FFFFFF" stroke-linecap="round" y1="5.075" stroke-width="0.576" x1="7.293" y2="8.673" x2="7.293"/>
                                        <line fill="none"  stroke="#FFFFFF" stroke-linecap="round" y1="8.673" stroke-width="0.576" x1="7.293" y2="10.471" x2="5.494"/>
                                        <line fill="none"  stroke="#FFFFFF" stroke-linecap="round" y1="23.062" stroke-width="0.576" x1="0.098" y2="19.465" x2="0.098"/>
                                        <line fill="none"  stroke="#FFFFFF" stroke-linecap="round" y1="19.465" stroke-width="0.576" x1="0.098" y2="17.666" x2="1.896"/>
                                        <line fill="none"  stroke="#FFFFFF" stroke-linecap="round" y1="17.666" stroke-width="0.576" x1="5.494" y2="19.465" x2="7.292"/>
                                        <line fill="none"  stroke="#FFFFFF" stroke-linecap="round" y1="17.666" stroke-width="0.576" x1="1.896" y2="15.867" x2="0.098"/>
                                        <line fill="none"  stroke="#FFFFFF" stroke-linecap="round" y1="15.867" stroke-width="0.576" x1="0.098" y2="12.27" x2="0.098"/>
                                        <line fill="none"  stroke="#FFFFFF" stroke-linecap="round" y1="12.27" stroke-width="0.576" x1="0.098" y2="10.471" x2="1.896"/>
                                        <line fill="none"  stroke="#FFFFFF" stroke-linecap="round" y1="10.471" stroke-width="0.576" x1="5.494" y2="12.27" x2="7.293"/>
                                        <line fill="none"  stroke="#FFFFFF" stroke-linecap="round" y1="12.27" stroke-width="0.576" x1="7.293" y2="15.867" x2="7.293"/>
                                        <line fill="none"  stroke="#FFFFFF" stroke-linecap="round" y1="15.867" stroke-width="0.576" x1="7.293" y2="17.666" x2="5.494"/>
                                        <path fill="none"  stroke="#FFFFFF" stroke-linecap="round" stroke-width="0.576" d="M5.494,24.861"/>
                                        <path fill="none"  stroke="#FFFFFF" stroke-linecap="round" stroke-width="0.576" d="M1.896,24.861"/>
                                        <line fill="none"  stroke="#FFFFFF" stroke-linecap="round" y1="23.062" stroke-width="0.576" x1="0.098" y2="24.861" x2="1.896"/>
                                        <line fill="none"  stroke="#FFFFFF" stroke-linecap="round" y1="24.861" stroke-width="0.576" x1="5.494" y2="23.062" x2="7.292"/>
                                        <line fill="none"  stroke="#FFFFFF" stroke-linecap="round" y1="19.465" stroke-width="0.576" x1="7.292" y2="23.062" x2="7.292"/>
                                        <line fill="none"  stroke="#FFFFFF" stroke-linecap="round" y1="3.277" stroke-width="0.576" x1="1.896" y2="3.277" x2="5.494"/>
                                    </g>
                                </g>
                                <g >
                                    <title >element:JP5</title>
                                    <g >
                                        <title >package:1X03</title>
                                        <line fill="none"  stroke="#FFFFFF" stroke-linecap="round" y1="60.97" stroke-width="0.576" x1="5.495" y2="62.768" x2="7.293"/>
                                        <line fill="none"  stroke="#FFFFFF" stroke-linecap="round" y1="62.768" stroke-width="0.576" x1="7.293" y2="66.366" x2="7.293"/>
                                        <line fill="none"  stroke="#FFFFFF" stroke-linecap="round" y1="66.366" stroke-width="0.576" x1="7.293" y2="68.164" x2="5.495"/>
                                        <line fill="none"  stroke="#FFFFFF" stroke-linecap="round" y1="68.164" stroke-width="0.576" x1="1.897" y2="66.366" x2="0.098"/>
                                        <line fill="none"  stroke="#FFFFFF" stroke-linecap="round" y1="66.366" stroke-width="0.576" x1="0.098" y2="62.768" x2="0.098"/>
                                        <line fill="none"  stroke="#FFFFFF" stroke-linecap="round" y1="62.768" stroke-width="0.576" x1="0.098" y2="60.97" x2="1.897"/>
                                        <line fill="none"  stroke="#FFFFFF" stroke-linecap="round" y1="48.379" stroke-width="0.576" x1="7.293" y2="51.976" x2="7.293"/>
                                        <line fill="none"  stroke="#FFFFFF" stroke-linecap="round" y1="51.976" stroke-width="0.576" x1="7.293" y2="53.775" x2="5.495"/>
                                        <line fill="none"  stroke="#FFFFFF" stroke-linecap="round" y1="53.775" stroke-width="0.576" x1="1.897" y2="51.976" x2="0.099"/>
                                        <line fill="none"  stroke="#FFFFFF" stroke-linecap="round" y1="53.775" stroke-width="0.576" x1="5.495" y2="55.574" x2="7.293"/>
                                        <line fill="none"  stroke="#FFFFFF" stroke-linecap="round" y1="55.574" stroke-width="0.576" x1="7.293" y2="59.171" x2="7.293"/>
                                        <line fill="none"  stroke="#FFFFFF" stroke-linecap="round" y1="59.171" stroke-width="0.576" x1="7.293" y2="60.97" x2="5.495"/>
                                        <line fill="none"  stroke="#FFFFFF" stroke-linecap="round" y1="60.97" stroke-width="0.576" x1="1.897" y2="59.171" x2="0.098"/>
                                        <line fill="none"  stroke="#FFFFFF" stroke-linecap="round" y1="59.171" stroke-width="0.576" x1="0.098" y2="55.574" x2="0.098"/>
                                        <line fill="none"  stroke="#FFFFFF" stroke-linecap="round" y1="55.574" stroke-width="0.576" x1="0.098" y2="53.775" x2="1.897"/>
                                        <path fill="none"  stroke="#FFFFFF" stroke-linecap="round" stroke-width="0.576" d="M1.897,46.58"/>
                                        <path fill="none"  stroke="#FFFFFF" stroke-linecap="round" stroke-width="0.576" d="M5.495,46.58"/>
                                        <line fill="none"  stroke="#FFFFFF" stroke-linecap="round" y1="48.379" stroke-width="0.576" x1="7.293" y2="46.58" x2="5.495"/>
                                        <line fill="none"  stroke="#FFFFFF" stroke-linecap="round" y1="46.58" stroke-width="0.576" x1="1.897" y2="48.379" x2="0.099"/>
                                        <line fill="none"  stroke="#FFFFFF" stroke-linecap="round" y1="51.976" stroke-width="0.576" x1="0.099" y2="48.379" x2="0.099"/>
                                        <line fill="none"  stroke="#FFFFFF" stroke-linecap="round" y1="68.164" stroke-width="0.576" x1="5.495" y2="68.164" x2="1.897"/>
                                    </g>
                                </g>
                                <g >
                                    <title >element:JP5</title>
                                    <g >
                                        <title >package:1X03</title>
                                        <line fill="none"  stroke="#FFFFFF" stroke-linecap="round" y1="32.139" stroke-width="0.576" x1="1.896" y2="30.341" x2="0.098"/>
                                        <line fill="none"  stroke="#FFFFFF" stroke-linecap="round" y1="30.341" stroke-width="0.576" x1="0.098" y2="26.743" x2="0.098"/>
                                        <line fill="none"  stroke="#FFFFFF" stroke-linecap="round" y1="26.743" stroke-width="0.576" x1="0.098" y2="24.945" x2="1.896"/>
                                        <line fill="none"  stroke="#FFFFFF" stroke-linecap="round" y1="24.945" stroke-width="0.576" x1="5.494" y2="26.743" x2="7.293"/>
                                        <line fill="none"  stroke="#FFFFFF" stroke-linecap="round" y1="26.743" stroke-width="0.576" x1="7.293" y2="30.341" x2="7.293"/>
                                        <line fill="none"  stroke="#FFFFFF" stroke-linecap="round" y1="30.341" stroke-width="0.576" x1="7.293" y2="32.139" x2="5.494"/>
                                        <line fill="none"  stroke="#FFFFFF" stroke-linecap="round" y1="44.73" stroke-width="0.576" x1="0.098" y2="41.133" x2="0.098"/>
                                        <line fill="none"  stroke="#FFFFFF" stroke-linecap="round" y1="41.133" stroke-width="0.576" x1="0.098" y2="39.334" x2="1.896"/>
                                        <line fill="none"  stroke="#FFFFFF" stroke-linecap="round" y1="39.334" stroke-width="0.576" x1="5.494" y2="41.133" x2="7.292"/>
                                        <line fill="none"  stroke="#FFFFFF" stroke-linecap="round" y1="39.334" stroke-width="0.576" x1="1.896" y2="37.535" x2="0.098"/>
                                        <line fill="none"  stroke="#FFFFFF" stroke-linecap="round" y1="37.535" stroke-width="0.576" x1="0.098" y2="33.938" x2="0.098"/>
                                        <line fill="none"  stroke="#FFFFFF" stroke-linecap="round" y1="33.938" stroke-width="0.576" x1="0.098" y2="32.139" x2="1.896"/>
                                        <line fill="none"  stroke="#FFFFFF" stroke-linecap="round" y1="32.139" stroke-width="0.576" x1="5.494" y2="33.938" x2="7.293"/>
                                        <line fill="none"  stroke="#FFFFFF" stroke-linecap="round" y1="33.938" stroke-width="0.576" x1="7.293" y2="37.535" x2="7.293"/>
                                        <line fill="none"  stroke="#FFFFFF" stroke-linecap="round" y1="37.535" stroke-width="0.576" x1="7.293" y2="39.334" x2="5.494"/>
                                        <path fill="none"  stroke="#FFFFFF" stroke-linecap="round" stroke-width="0.576" d="M5.494,46.529"/>
                                        <path fill="none"  stroke="#FFFFFF" stroke-linecap="round" stroke-width="0.576" d="M1.896,46.529"/>
                                        <line fill="none"  stroke="#FFFFFF" stroke-linecap="round" y1="44.73" stroke-width="0.576" x1="0.098" y2="46.529" x2="1.896"/>
                                        <line fill="none"  stroke="#FFFFFF" stroke-linecap="round" y1="46.529" stroke-width="0.576" x1="5.494" y2="44.73" x2="7.292"/>
                                        <line fill="none"  stroke="#FFFFFF" stroke-linecap="round" y1="41.133" stroke-width="0.576" x1="7.292" y2="44.73" x2="7.292"/>
                                        <path fill="none"  stroke="#FFFFFF" stroke-linecap="round" stroke-width="0.576" d="M5.494,24.945"/>
                                        <path fill="none"  stroke="#FFFFFF" stroke-linecap="round" stroke-width="0.576" d="M1.896,24.945"/>
                                    </g>
                                </g>
                            </g>
                            <g gorn="0.1.0.0.0.1.0.2"  id="_x3C_Group_x3E_">
                                <g gorn="0.1.0.0.0.1.0.2.0"  id="Layer_4"/>
                                <g  transform="matrix(1, 0, 0, 1, 35.442, 9.25553)">
                                    <g >
                                        <g >
                                            <g >
                                                <g >
                                                    <rect width="4.146" x="-1.792" y="-1.184" fill="#888E8A"  height="1.667"/>
                                                    <rect width="4.146" x="13.166" y="-1.184" fill="#888E8A"  height="1.667"/>
                                                    <rect width="4.146" x="-1.792" y="2.4" fill="#888E8A"  height="1.667"/>
                                                    <rect width="4.146" x="13.166" y="2.4" fill="#888E8A"  height="1.667"/>
                                                    <rect width="4.146" x="-1.792" y="5.858" fill="#888E8A"  height="1.667"/>
                                                    <rect width="4.146" x="13.166" y="5.858" fill="#888E8A"  height="1.667"/>
                                                    <rect width="4.146" x="-1.792" y="9.441" fill="#888E8A"  height="1.667"/>
                                                    <rect width="4.146" x="13.166" y="9.441" fill="#888E8A"  height="1.667"/>
                                                    <rect width="4.146" x="-1.792" y="13.233" fill="#888E8A"  height="1.667"/>
                                                    <rect width="4.146" x="13.166" y="13.233" fill="#888E8A"  height="1.667"/>
                                                    <rect width="4.146" x="-1.792" y="16.816" fill="#888E8A"  height="1.667"/>
                                                    <rect width="4.146" x="13.166" y="16.816" fill="#888E8A"  height="1.667"/>
                                                    <rect width="4.146" x="-1.792" y="20.275" fill="#888E8A"  height="1.667"/>
                                                    <rect width="4.146" x="13.166" y="20.275" fill="#888E8A"  height="1.667"/>
                                                    <rect width="4.146" x="-1.792" y="23.858" fill="#888E8A"  height="1.667"/>
                                                    <rect width="4.146" x="13.166" y="23.858" fill="#888E8A"  height="1.667"/>
                                                </g>
                                                <g >
                                                    <g  transform="matrix(0.5, 0, 0, 0.5, 7.479, 6.17223)">
                                                        <g >
                                                            <g >
                                                                <g >
                                                                    <g >
                                                                        <rect width="23.445" x="-10.987" y="-18.361" fill="#303030"  height="60.456"/>
                                                                        <polygon fill="#1F2020" points="12.458,-18.361 12.458,42.095 10.982,40.618 10.982,-16.884 " />
                                                                        <polygon fill="#1F2020" points="-10.987,-18.361 -10.987,42.095 -9.511,40.618 -9.511,-16.884 " />
                                                                        <polygon fill="#010101" points="12.458,-18.361 -10.987,-18.361 -9.511,-16.884 10.982,-16.884 " />
                                                                        <polygon fill="#3E3E3E" points="12.458,42.095 -10.987,42.095 -9.511,40.618 10.982,40.618 " />
                                                                    </g>
                                                                </g>
                                                            </g>
                                                        </g>
                                                    </g>
                                                </g>
                                            </g>
                                        </g>
                                    </g>
                                </g>
                                <g  transform="matrix(1, 0, 0, 1, 35.442, 9.25553)">
                                    <g >
                                        <g >
                                            <g >
                                                <rect width="5.926" x="-2.834" y="36.108" fill="#888E8A"  height="9.5"/>
                                                <rect width="5.649" x="12.601" y="32.858" fill="#888E8A"  height="2.75"/>
                                                <rect width="5.649" x="12.601" y="39.483" fill="#888E8A"  height="2.75"/>
                                                <rect width="5.649" x="12.601" y="45.941" fill="#888E8A"  height="2.75"/>
                                                <g >
                                                    <g  transform="matrix(0.5, 0, 0, 0.5, 7.479, 6.17223)">
                                                        <g >
                                                            <g >
                                                                <g >
                                                                    <g >
                                                                        <rect width="20.493" x="-9.511" y="49.557" fill="#303030"  height="38.434"/>
                                                                        <polygon fill="#1F2020" points="10.982,49.557 10.982,87.991 9.506,86.514 9.506,51.034 " />
                                                                        <polygon fill="#1F2020" points="-9.511,49.557 -9.511,87.992 -8.035,86.515 -8.035,51.034 " />
                                                                        <polygon fill="#010101" points="10.982,49.557 -9.511,49.557 -8.035,51.034 9.506,51.034 " />
                                                                        <polygon fill="#3E3E3E" points="10.982,87.991 -9.511,87.992 -8.035,86.515 9.506,86.514 " />
                                                                    </g>
                                                                </g>
                                                            </g>
                                                        </g>
                                                    </g>
                                                </g>
                                            </g>
                                        </g>
                                    </g>
                                </g>
                                <g >
                                    <rect width="4.625" x="119.983" y="44.322" fill="#888E8A"  height="3.292"/>
                                    <rect width="4.625" x="119.983" y="66.947" fill="#888E8A"  height="3.292"/>
                                    <rect width="3.667" x="120.483" y="45.822" fill="#9A9B9A"  height="23.25"/>
                                    <rect width="3.667" x="120.483" y="46.45" fill="#E3E5E3"  height="21.967"/>
                                    <rect width="3.667" x="120.483" y="46.45" fill="#96805C"  height="2.018"/>
                                </g>
                                <g >
                                    <rect width="6.594" x="118.952" y="5.235" fill="#8C8B8B"  height="2.775"/>
                                    <rect width="6.594" x="118.952" y="13.105" fill="#8C8B8B"  height="2.775"/>
                                    <rect width="3.156" x="124.796" y="9.042" fill="#8C8B8B"  height="3.124"/>
                                    <rect width="3.156" x="116.296" y="9.042" fill="#8C8B8B"  height="3.124"/>
                                    <path fill="#BCB59B"  d="M125.917,13.898c0,0.576-0.467,1.043-1.043,1.043h-5.217c-0.576,0-1.043-0.467-1.043-1.043V7.246c0-0.576,0.467-1.043,1.043-1.043h5.217c0.576,0,1.043,0.467,1.043,1.043V13.898z"/>
                                    <path fill="#E0D8B6"  d="M125.765,13.759c0,0.552-0.448,1-1,1h-5c-0.552,0-1-0.448-1-1V7.384c0-0.552,0.448-1,1-1h5c0.552,0,1,0.448,1,1V13.759z"/>
                                    <circle fill="none" cx="122.291"  cy="10.604" stroke="#6D5A0A" r="2.386" stroke-width="0.5" stroke-miterlimit="10"/>
                                    <circle fill="none" cx="122.291"  cy="10.604" stroke="#91770C" r="2.516" stroke-width="0.5" stroke-miterlimit="10"/>
                                    <circle fill="#91770C" cx="122.265"  cy="10.651" r="0.281"/>
                                </g>
                                <g >
                                    <rect width="46.417" x="59.483" y="12.655" fill="#325E3B"  height="38.75"/>
                                    <rect width="45.616" x="59.884" y="12.989" fill="#2C4933"  height="38.082"/>
                                    <path fill="#888E8A"  d="M74.584,49.738c0,0.552-0.456,1-1.018,1H61.102c-0.562,0-1.018-0.448-1.018-1V14.322c0-0.552,0.456-1,1.018-1h12.465c0.562,0,1.018,0.448,1.018,1V49.738z"/>
                                    <path fill="#888E8A"  d="M105.221,49.738c0,0.552-0.456,1-1.018,1H91.739c-0.562,0-1.018-0.448-1.018-1V14.322c0-0.552,0.456-1,1.018-1h12.465c0.562,0,1.018,0.448,1.018,1V49.738z"/>
                                    <rect width="25.183" x="69.327" y="21.656" fill="#888E8A"  height="29.083"/>
                                    <path fill="#99988C"  d="M104.957,49.405c0,0.552-0.456,1-1.018,1H61.505c-0.562,0-1.018-0.448-1.018-1V14.53c0-0.552,0.456-1,1.018-1h42.434c0.562,0,1.018,0.448,1.018,1V49.405z"/>
                                </g>
                                <rect width="8.25" x="21.067" y="23.483" fill="#EF4130"  height="3.096"/>
                                <rect width="8.25" x="21.067" y="30.683" fill="#EF4130"  height="3.096"/>
                                <rect width="3.096" x="63.135" y="56.948" fill="#EF4130"  height="8.25"/>
                                <rect width="3.096" x="70.437" y="56.948" fill="#EF4130"  height="8.25"/>
                                <rect width="3.096" x="84.47" y="56.948" fill="#EF4130"  height="8.25"/>
                                <rect width="3.833" x="77.233" y="56.948" fill="#EF4130"  height="7.624"/>
                                <rect width="7.624" x="46.645" y="62.551" fill="#EF4130"  height="3.833"/>
                                <rect width="7.624" x="35.665" y="62.551" fill="#EF4130"  height="3.833"/>
                                <rect width="7.624" x="21.38" y="37.551" fill="#EF4130"  height="3.833"/>
                                <rect width="3.333" x="120.483" y="31.572" fill="#EF4130"  height="8.25"/>
                                <rect width="8.083" x="115.733" y="28.214" fill="#EF4130"  height="2.941"/>
                                <rect width="8.083" x="109.483" y="22.464" fill="#EF4130"  height="2.941"/>
                                <g  transform="matrix(0, 1, -1, 0, 312.806, -125.606)">
                                    <g >
                                        <g >
                                            <g >
                                                <g  transform="matrix(2.578893e-06 1 -1 2.578893e-06 403.6559 34.92)">
                                                    <g >
                                                        <g >
                                                            <rect width="2.268" x="183.234" y="218.154" fill="#A7A9AC" gorn="0.1.0.0.0.1.0.2.18.0.0.0.0.0.0.0"  height="2.268" id="connector24pad"/>
                                                        </g>
                                                    </g>
                                                </g>
                                            </g>
                                        </g>
                                    </g>
                                </g>
                                <g  transform="matrix(0, 1, -1, 0, 308.554, -121.354)">
                                    <g >
                                        <g >
                                            <g >
                                                <g  transform="matrix(2.578893e-06 1 -1 2.578893e-06 399.4032 30.6685)">
                                                    <g >
                                                        <g >
                                                            <rect width="2.268" x="183.233" y="213.902" fill="#A7A9AC" gorn="0.1.0.0.0.1.0.2.19.0.0.0.0.0.0.0"  height="2.268" id="connector25pad"/>
                                                        </g>
                                                    </g>
                                                </g>
                                            </g>
                                        </g>
                                    </g>
                                </g>
                                <rect width="1.802" x="93.947" y="5.235" fill="#8C8B8B"  height="3.593"/>
                                <rect width="1.802" x="96.252" y="5.235" fill="#8C8B8B"  height="3.593"/>
                                <rect width="1.802" x="98.556" y="5.235" fill="#8C8B8B"  height="3.593"/>
                                <rect width="3.755" x="94.13" y="5.485" fill="#7F7F7F"  height="3.031"/>
                                <g >
                                    <line fill="none" gorn="0.1.0.0.0.1.0.2.24.0"  id="_x30_.1.5.0.0.0.0.0.0_3_" y1="63.483" x1="94.646" y2="58.217" x2="94.646"/>
                                    <g  transform="matrix(-2.54711e-06, -1, 1, -2.54711e-06, 12.2098, -56.1861)">
                                        <g >
                                            <g >
                                                <g >
                                                    <g  transform="matrix(4.331258e-07 -1 1 4.331258e-07 -198.3098 -35.6817)">
                                                        <g >
                                                            <g >
                                                                <rect width="2.246" x="-118.119" y="78.641" fill="#F2F2F2" gorn="0.1.0.0.0.1.0.2.24.1.0.0.0.0.0.0.0"  height="5.347" id="_x30_.1.5.0.0.0.0.0.1.0_3_"/>
                                                            </g>
                                                        </g>
                                                    </g>
                                                </g>
                                            </g>
                                        </g>
                                    </g>
                                    <g  transform="matrix(-2.54711e-06, -1, 1, -2.54711e-06, 14.1869, -54.3814)">
                                        <g >
                                            <g >
                                                <g >
                                                    <g  transform="matrix(4.331258e-07 -1 1 4.331258e-07 -193.4889 -37.0196)">
                                                        <g >
                                                            <g >
                                                                <rect width="0.037" x="-115.273" opacity="0.5" y="76.698" fill="#FFFFFF" gorn="0.1.0.0.0.1.0.2.24.2.0.0.0.0.0.0.0"  height="3.073" id="_x30_.1.5.0.0.0.0.0.5.0_3_" enable-background="new    "/>
                                                            </g>
                                                        </g>
                                                    </g>
                                                </g>
                                            </g>
                                        </g>
                                    </g>
                                    <path opacity="0.55" fill="#FFFFFF" gorn="0.1.0.0.0.1.0.2.24.3"  id="_x30_.1.5.0.0.0.0.0.7_3_" enable-background="new    " d="M92.874,62.75h-0.197c-0.11-0.013-0.197,0.009-0.197-0.071c0-0.445,0-3.422,0-3.532c0-0.122,0.047-0.128,0.047,0.009c0,0.095,0,2.833,0,3.163c0,0.333,0.076,0.377,0.143,0.377l0.198-0.001C93,62.694,93,62.75,92.874,62.75z"/>
                                    <path opacity="0.03" gorn="0.1.0.0.0.1.0.2.24.4"  id="_x30_.1.5.0.0.0.0.0.8_3_" enable-background="new    " d="M94.483,59.02c0.049,0,0.1-0.009,0.1,0.071c0,0.445,0,3.396,0,3.505c0,0.122-0.047,0.128-0.047-0.006c0-0.098-0.001-2.284-0.001-2.612C94.536,59.546,94.483,59.02,94.483,59.02z"/>
                                    <path fill="#D0C58E" gorn="0.1.0.0.0.1.0.2.24.5"  id="_x30_.1.5.0.0.0.0.0.9_3_" d="M94.646,63.484l0-0.561c0,0,0.01-0.058-0.03-0.137l-2.217,0l0,0.735l2.21,0h0.036"/>
                                    <g  transform="matrix(-2.54711e-06, -1, 1, -2.54711e-06, 17.3219, -57.5155)">
                                        <g >
                                            <g >
                                                <g >
                                                    <g  transform="matrix(4.331258e-07 -1 1 4.331258e-07 -195.7687 -45.5696)">
                                                        <g >
                                                            <g >
                                                                <rect width="0.038" x="-120.688" opacity="0.5" y="74.734" fill="#FFFFFF" gorn="0.1.0.0.0.1.0.2.24.6.0.0.0.0.0.0.0"  height="0.732" id="_x30_.1.5.0.0.0.0.0.10.0_3_" enable-background="new    "/>
                                                            </g>
                                                        </g>
                                                    </g>
                                                </g>
                                            </g>
                                        </g>
                                    </g>
                                    <path fill="#D0C58E" gorn="0.1.0.0.0.1.0.2.24.7"  id="_x30_.1.5.0.0.0.0.0.11_3_" d="M94.646,58.139H94.61l-2.21,0l0,0.779l2.247-0.004l0-0.739"/>
                                    <g  transform="matrix(-2.54711e-06, -1, 1, -2.54711e-06, 10.966, -51.159)">
                                        <g >
                                            <g >
                                                <g >
                                                    <g  transform="matrix(4.331258e-07 -1 1 4.331258e-07 -191.1409 -28.235)">
                                                        <g >
                                                            <g >
                                                                <rect width="0.038" x="-109.707" opacity="0.5" y="81.063" fill="#FFFFFF" gorn="0.1.0.0.0.1.0.2.24.8.0.0.0.0.0.0.0"  height="0.78" id="_x30_.1.5.0.0.0.0.0.12.0_3_" enable-background="new    "/>
                                                            </g>
                                                        </g>
                                                    </g>
                                                </g>
                                            </g>
                                        </g>
                                    </g>
                                </g>
                            </g>
                            <g gorn="0.1.0.0.0.1.0.3"  id="copper1_1_">
                                <circle fill="none" cx="3.782" gorn="0.1.0.0.0.1.0.3.0"  cy="7.031" stroke="#9A916C" id="connector0pin" r="2.052" stroke-width="1.224"/>
                                <circle fill="none" cx="3.782" gorn="0.1.0.0.0.1.0.3.1"  cy="14.231" stroke="#9A916C" id="connector1pin" r="2.052" stroke-width="1.224"/>
                                <circle fill="none" cx="3.782" gorn="0.1.0.0.0.1.0.3.2"  cy="21.431" stroke="#9A916C" id="connector2pin" r="2.052" stroke-width="1.224"/>
                                <circle fill="none" cx="3.782" gorn="0.1.0.0.0.1.0.3.3"  cy="28.631" stroke="#9A916C" id="connector3pin" r="2.052" stroke-width="1.224"/>
                                <circle fill="none" cx="3.782" gorn="0.1.0.0.0.1.0.3.4"  cy="35.831" stroke="#9A916C" id="connector4pin" r="2.052" stroke-width="1.224"/>
                                <circle fill="none" cx="3.782" gorn="0.1.0.0.0.1.0.3.5"  cy="43.031" stroke="#9A916C" id="connector5pin" r="2.052" stroke-width="1.224"/>
                                <circle fill="none" cx="3.782" gorn="0.1.0.0.0.1.0.3.6"  cy="50.172" stroke="#9A916C" id="connector6pin" r="2.052" stroke-width="1.224"/>
                                <circle fill="none" cx="3.782" gorn="0.1.0.0.0.1.0.3.7"  cy="57.372" stroke="#9A916C" id="connector7pin" r="2.052" stroke-width="1.224"/>
                                <circle fill="none" cx="3.782" gorn="0.1.0.0.0.1.0.3.8"  cy="64.572" stroke="#9A916C" id="connector8pin" r="2.052" stroke-width="1.224"/>
                                <circle fill="none" cx="68.385" gorn="0.1.0.0.0.1.0.3.9"  cy="6.99" stroke="#9A916C" id="connector9pin" r="2.052" stroke-width="1.224"/>
                                <circle fill="none" cx="75.585" gorn="0.1.0.0.0.1.0.3.10"  cy="6.99" stroke="#9A916C" id="connector10pin" r="2.052" stroke-width="1.224"/>
                                <circle fill="none" cx="82.785" gorn="0.1.0.0.0.1.0.3.11"  cy="6.99" stroke="#9A916C" id="connector11pin" r="2.052" stroke-width="1.224"/>
                            </g>
                        </g>
                    </g>
                </g>
            </g>
        </g>
    </g>
</svg>
