<svg xmlns="http://www.w3.org/2000/svg" xmlns:xlink="http://www.w3.org/1999/xlink" width="69" height="266"><style><![CDATA[.B{stroke-opacity:.973}]]></style><g fill="none" stroke="#44383d" class="B"><g stroke-width="1.955"><path d="M35.14 264.774C-12.66 168.55 15.256 90.362 13.304 3.653l.6.202.218.26.225.328.18.368.1.517-.065.323-.293.45-.208.337-.354.317-.25.412-.113.328.1.94.286.463.62.43.838.196.494.125 1.432-.146m38.66 247.657c-9.293-12.414-14.86-29.988-18.626-50.538-.515-2.808-2.77-7.88-3.222-10.795-1.273-8.2-2.736-13.234-3.664-22.1-1.157-11.043-.806-23.816-.946-35.505-.56-46.68 7.817-92.018 6.417-133.426v-.02l-.04-3.422-.52-.374-.24.025-.332.052-.404.06-.47.118-.4.215-.403.322-.164.298-.157.367-.106.397.003.527.126.303.374.384.27.3.4.24.324.353.174.3.092.94-.2.5-.525.545-.784.36-.46.223-1.432.146"/><path d="M28.527 9.433l-.19.02-.24.025-.332.05-.404.06-.47.118-.39.215-.403.322-.164.298-.157.367-.106.397.003.527.126.303.375.383.27.29.41.24.324.353.174.3.092.94-.19.51-.525.545-.784.36-.46.223-1.432.145"/><path d="M16.47 17.413l1.432-.146.46-.223.784-.36.525-.545.2-.5-.092-.94-.174-.3-.324-.353-.4-.24-.27-.3-.375-.383-.126-.303-.003-.527.106-.397.157-.367.164-.298.403-.322.4-.215.374-.217.305-.107.237-.042.26-.044.453-.046.484.02.423.133.457.235.218.26.225.328.18.368.1.517-.065.323-.293.45-.208.337-.355.317-.25.412-.113.328.092.94.286.463.62.43.838.196.494.125 1.432-.145m-12.25-5.218l.484.02.423.133.457.235.218.26.225.328.18.368.1.517-.065.323-.293.45-.208.337-.355.317-.55.283-.3.4-.04.682.306.544.386.477.75.328.853.24.58.097.93-.087.587-.116"/><use xlink:href="#B"/><path d="M19.057 2.803l.215-.022.237-.042.26-.044.453-.046.484.02.423.133.457.235.218.26.224.33.18.368.1.517-.065.323-.293.45-.208.337-.355.317-.25.412-.113.328.092.94.286.463.62.43.838.196.494.125 1.432-.146"/><use xlink:href="#C"/><use xlink:href="#B" x="0.321" y="3.786"/><path d="M19.378 6.588l.215-.022.237-.04.26-.044.453-.046.484.02.423.133.457.235.218.26.224.33.18.368.1.517-.065.323-.293.45-.208.337-.355.317-.25.412-.113.328.092.94.286.463.62.43.838.196.494.125 1.432-.145"/><use xlink:href="#C" x="0.322" y="3.785"/><path d="M13.4 7.082l.9.716.366.584.112.535-.06.332-.294.46-.208.344-.36.32-.25.42-.1.336.113.97.304.483.648.455.87.22.512.14 1.474-.12M35.72 8.67l-.333-.02-.147.014-.18.02-.16.018-.47.118-.4.215-.403.322-.164.298-.157.367-.106.397.003.527.126.303.374.384.27.3.4.24.324.353.174.3.092.94-.2.5-.525.545-.784.36-.46.223-1.432.146"/><path d="M27.314 9.5l.215-.022.237-.042.26-.044.453-.045.484.02.423.133.457.235.218.26.225.328.18.368.1.517-.065.323-.293.45-.208.337-.355.317-.25.412-.113.328.1.94.286.463.62.43.838.196.494.125 1.432-.146M26.594 1.92l.215-.022.237-.042.26-.044.453-.046.484.02.423.133.457.235.218.26.225.328.18.368.1.517-.065.323-.293.45-.208.337-.355.317-.25.412-.113.328.092.94.286.463.62.43.838.196.494.125 1.432-.145m3.32-3.02l-.17-.02-.24.025-.332.05-.404.06-.47.118-.4.215-.403.322-.164.298-.157.367-.106.397.003.527.126.303.375.383.27.3.4.24.324.353.174.3.1.94-.2.5-.525.545-.784.36-.46.223-1.432.145"/><path d="M26.915 5.704l.215-.022.497-.084.453-.046.484.02.423.133.457.235.218.26.225.328.18.368.1.517-.065.323-.293.45-.208.337-.355.317-.25.412-.113.328.092.94.286.463.62.43.838.196.494.125 1.432-.146M29.264 21l-.192.005-.24.007-.335.027-.407.03-.478.083-.404.186-.425.3-.185.285-.184.355-.135.388-.036.526.103.312.346.4.247.308.4.27.297.376.15.3.023.943-.228.496-.564.505-.8.302-.475.188-1.438.04m-7.637.452l1.438-.04.475-.188.808-.302.564-.505.228-.496-.023-.943-.15-.3-.297-.376-.4-.27-.247-.308-.346-.4-.103-.312.036-.526.135-.388.184-.355.185-.285.425-.3.404-.186.4-.2.312-.084.24-.024.263-.025.456-.012.48.056.412.163.438.267.198.274.2.344.153.38.06.523-.088.317-.326.43-.232.32-.377.3-.28.392-.136.32.01.454.012.5.25.483.587.473.822.257.484.16 1.438-.04M13.3 21.43l1.1.136.412.163.438.267.198.274.2.344.153.38.06.523-.088.317-.326.43-.232.32-.377.3-.57.242-.328.377-.1.677.265.565.35.504.723.382.833.3.572.14.934-.02.594-.072m10.99-14.583l-.192.006-.24.007-.335.027-.407.03-.478.083-.404.186-.425.3-.185.285-.184.355-.135.388-.035.526.103.312.346.4.247.308.4.27.297.376.15.3.01.454.012.5-.228.496-.564.505-.8.302-.475.188-1.438.04m-3.826-6.307l.216-.006.24-.024.263-.025.456-.013.48.056.412.163.438.267.198.274.2.344.153.38.06.523-.088.317-.326.43-.232.32-.377.3-.28.392-.136.32.01.454.012.5.25.483.587.473.822.257.484.16 1.438-.04"/><path d="M21.37 13.638l-.192.006-.24.007-.335.027-.407.03-.478.083-.404.186-.425.3-.185.285-.184.355-.135.388-.035.526.103.312.346.4.247.308.4.27.297.376.15.3.023.944-.228.496-.564.505-.8.302-1.064.2-1.454-.052-.476-.08-.457-.303-.3-.504-.18-.497.186-.584.522-.988.244-.575-.224-.688-.466-.68-.423-.267-.786-.182m15.7 2.35l-.192.006-.24.007-.335.027-.407.03-.478.083-.404.186-.425.3-.185.285-.184.355-.135.388-.035.526.103.312.346.4.247.308.4.27.297.376.15.3.023.944-.228.496-.564.505-.8.302-.475.188-1.438.04"/><path d="M20.35 17.502l.216-.006.24-.024.263-.025.456-.013.48.056.412.163.438.267.198.274.2.344.153.38.06.523-.088.317-.326.43-.232.32-.377.3-.28.392-.136.32.023.943.25.483.587.473.822.257.484.16 1.438-.04m-4.218-6.35l-.192.005-.24.007-.335.027-.407.03-.478.083-.404.186-.425.3-.185.285-.184.355-.135.388-.035.526.103.312.346.4.247.308.4.27.297.376.15.3.023.943-.228.496-.564.505-.8.303-.475.188-1.44.04"/><path d="M13.3 17.427l1.07.457.55.383.435.65.236.57-.084.326-.326.437-.232.328-.382.293-.28.4-.134.327.042.976.268.504.613.5.85.282.5.176 1.035-.01.444-.003m17.28-3.193l-.404.186-.425.3-.185.285-.184.355-.135.388-.035.526.103.312.345.4.247.308.4.27.297.376.15.3.023.943-.228.496-.564.505-.8.302-.475.188-1.44.04m-3.825-6.314l.216-.006.24-.024.263-.025.456-.012.48.056.412.163.438.267.198.274.2.344.153.38.06.523-.088.317-.326.43-.232.32-.377.3-.28.392-.136.32.023.943.25.483.587.473.822.257.484.16 1.438-.04m-5.444-13.908l.216-.006.24-.024.263-.025.455-.013.48.056.412.163.438.267.198.274.2.344.153.38.06.523-.088.317-.326.43-.232.32-.377.3-.28.392-.136.32.023.943.25.483.587.473.822.257.484.16 1.007-.028.745-.215.656-.306.345-.235.42-.47.08-.72-.246-.644-.4-.377-.463-.34-.318-.595-.108-.7.074-.592.237-.57.3-.408.52-.3.6-.105.485-.001"/><path d="M35.553 16.923l-.478.083-.404.186-.425.3-.185.285-.184.355-.135.388-.036.525.103.312.346.4.247.308.4.27.297.376.15.3.023.943-.228.496-.564.505-.8.302-.475.188-1.44.04m-3.826-6.303l.216-.006.24-.024.263-.025.455-.013.48.056.412.163.438.267.198.274.2.344.153.38.06.523-.088.317-.326.43-.232.32-.377.3-.28.392-.136.32.023.944.25.483.587.473.822.257.484.16 1.438-.04m-4.144 1.337l-.192.005-.24.007-.335.027-.407.03-.478.083-.404.186-.425.3-.185.285-.184.355-.135.388-.035.526.103.312.346.4.247.308.4.27.297.376.15.3.023.943-.228.496-.564.505-.8.302-.475.188-1.44.04m-7.638.454l1.438-.04.475-.188.808-.302.564-.505.228-.496-.023-.943-.15-.3-.297-.376-.4-.27-.247-.308-.346-.4-.103-.312.035-.526.135-.388.184-.355.185-.285.425-.3.404-.186.4-.2.312-.084.24-.024.263-.025.456-.013.48.056.412.163.438.267.198.274.2.344.153.38.06.523-.088.317-.326.43-.232.32-.377.3-.28.392-.136.32.023.943.25.483.587.473.822.257.484.16 1.438-.04M12.963 25.47l1.228-.117.412.163.438.267.198.274.2.344.153.38.06.523-.088.317-.326.43-.232.32-.377.3-.57.242-.328.377-.1.677.265.565.35.504.723.382.833.3.572.14.934-.02.594-.072m9.938-6.976l.216-.006.24-.024.263-.025.455-.012.48.056.412.163.438.267.198.274.2.344.153.38.06.523-.088.317-.326.43-.232.32-.377.3-.28.392-.136.32.01.454.012.5.25.483.587.473.822.257.484.16 1.007-.028.672-.057.804-.55.228-.496-.023-.944-.15-.3-.297-.376-.4-.27-.247-.308-.346-.4-.103-.312.035-.526.135-.388.184-.355.185-.285.425-.3.404-.186.478-.083.407-.03.335-.027m-6.47 11.498l-.192-.01-.24-.01-.336.002-.408-.001-.483.048-.416.156-.445.26-.206.27-.2.34-.163.378-.074.522.08.32.315.434.224.325.37.297.27.397.128.32-.047.943-.264.478-.6.463-.83.242-.488.153-1.438-.065m-7.64-.13l1.436.066.488-.153.828-.242.6-.463.264-.478.047-.943-.128-.32-.27-.397-.37-.297-.223-.325-.315-.434-.08-.32.074-.522.163-.377.2-.34.206-.27.445-.26.416-.156.402-.16.318-.06.24-.007.264-.006.455.02.476.1.4.193.417.3.178.288.174.358.125.4.022.526-.1.3-.356.404-.255.303-.397.262-.307.37-.16.308-.047.943.215.5.55.515.8.316.47.196 1.438.065"/><path d="M12.54 35.645l1.537.215.4.193.417.3.178.288.174.358.125.4.022.526-.1.3-.356.404-.255.303-.397.262-.586.2-.354.352-.14.67.223.583.313.528.693.434.8.36.56.18.933.05.598-.03M29.35 28.78l-.192-.01-.24-.01h-.744l-.483.048-.416.156-.445.26-.206.27-.2.34-.163.378-.074.522.08.32.315.434.223.325.37.297.27.397.128.32-.047.943-.264.478-.6.463-.828.242-.488.153-1.438-.065"/><use xlink:href="#D"/><path d="M21.62 28.464l-.192-.01-.24-.01-.336.002-.408-.001-.483.048-.416.156-.445.26-.206.27-.2.34-.163.378-.074.522.08.32.315.434.224.325.37.297.27.397.128.32-.047.943-.264.478-.6.463-.83.242-1.077.13-1.446-.16-.47-.115-.434-.335-.252-.524-.144-.5.23-.57.593-.948.286-.555-.173-.702-.415-.712-.403-.297-1.46-.008m16.187 3.238l-.192-.01-.24-.01-.336.002-.408-.001-.483.048-.416.156-.445.26-.206.27-.2.34-.163.377-.074.522.08.32.315.434.224.325.37.297.27.397.128.32-.047.943-.264.478-.6.463-.828.242-.488.153-1.438-.065"/><use xlink:href="#D" x="-0.234" y="3.793"/><path d="M21.384 32.256l-.192-.01-.24-.01-.336.002-.408-.001-.483.048-.416.156-.445.26-.206.27-.2.34-.163.378-.074.522.08.32.315.434.224.325.37.297.27.397.128.32-.047.943-.264.478-.6.463-.828.242-.488.153-1.438-.065m-3.26-6.578l1.18-.005.485.25.52.422.386.68.193.586-.108.32-.358.412-.256.3-.402.264-.307.38-.158.316-.03.977.23.522.575.545.827.343.486.213 1.475.096m17.47-1.91l-.416.156-.445.26-.206.27-.2.34-.163.378-.074.522.08.32.314.434.223.325.37.297.27.397-.055.3-.001.474-.024.53-.1.437-.6.463-.83.242-.488.153-1.437-.065"/><use xlink:href="#D" x="7.188" y="7.84"/><path d="M28.14 28.677l.216.01.24-.007.264-.006.455.02.476.09.4.193.417.3.178.288.174.358.125.39.022.526-.11.3-.356.404-.255.303-.397.262-.307.37-.16.308-.047.943.215.5.55.515.8.316.47.196 1.006.046.76-.16.677-.257.36-.21.452-.438.132-.712-.198-.66-.37-.405-.437-.372-.274-.616-.057-.696.117-.585.278-.553.34-.384.765-.282"/><path d="M35.042 32.827l-.416.156-.445.26-.206.27-.2.34-.163.378-.074.52.08.32.315.434.224.325.37.297.27.397.128.32-.047.943-.264.478-.6.463-.828.242-.488.153-1.438-.065m-3.346-6.588l.216.01.24-.007.264-.006.455.02.476.1.4.193.417.3.178.288.174.358.125.4.022.526-.1.3-.356.404-.255.303-.397.262-.307.37-.16.308-.047.943.215.5.55.515.8.316.47.196 1.438.065m-4.018.566h-.432l-.336.016-.408.016-.48.068-.4.173-.434.278-.194.28-.195.35-.147.384-.052.524.093.315.333.42.237.316.382.28.285.385.14.315-.006.944-.244.5-.58.487-.818.277-.48.173-1.44-.004"/><use xlink:href="#E"/><path d="M12.41 39.814l1.398-.045.406.176.43.28.19.28.19.35.14.385.044.524-.098.314-.34.418-.242.314-.386.28-.578.224-.34.366-.113.674.248.573.334.515.71.405.823.327.567.157.934.01.596-.054"/><use xlink:href="#F"/><use xlink:href="#G"/><use xlink:href="#H"/><path d="M11.606 50.135l1.76.134.392.205.408.312.168.294.163.363.112.394.006.526-.12.306-.37.392-.265.295-.405.25-.592.18-.366.34-.162.664.205.6.296.538.68.456.797.386.554.198.93.08.6-.01"/><use xlink:href="#G" x="0.636" y="-7.6"/><use xlink:href="#I"/><path d="M21.136 43.114l-.43-.033-.336-.008-.408-.014-.484.033-.42.143-.453.245-.214.264-.22.334-.175.372-.1.52.07.32.3.444.213.332.36.308.256.405.118.325-.037.453-.04.488-.28.47-.614.444-.836.216-1.08.097-1.44-.204-.465-.13-.423-.35-.236-.532-.128-.513.246-.56.622-.928.303-.546-.15-.707-.393-.725-.393-.31-1.796-.032"/><use xlink:href="#J"/><path d="M19.717 46.85l.215.016.24.001.264.003.454.035.473.106.392.205.408.312.168.293.163.363.112.394.006.526-.12.306-.37.392-.265.295-.405.25-.318.36-.17.303-.076.94.2.506.534.532.8.34.464.21 1.435.1"/><use xlink:href="#J" x="-7.718" y="-0.558"/><path d="M12.036 46.27l1.228.07.477.266.506.438.364.693.175.592-.118.316-.37.4-.265.302-.4.25-.32.37-.167.3-.03.47-.03.506.214.53.557.562.816.37.48.228 1.472.142M34.133 51.7l-.42.143-.453.245-.214.264-.22.334-.175.372-.1.52.07.32.3.444.213.332.36.308.256.405.118.325-.076.94-.28.47-.614.444-.836.216-.492.138-1.435-.1"/><use xlink:href="#I" x="6.93" y="8.063"/><path d="M27.645 43.53l.215.016.24.001.264.003.454.035.473.106.392.205.408.312.168.294.163.363.112.394.006.526-.12.306-.37.392-.265.295-.405.25-.318.36-.17.303-.076.94.2.506.534.532.8.34.464.21 1.004.077.763-.136.685-.235.368-.197.465-.424.154-.707-.177-.666-.357-.416-.425-.386-.254-.625-.036-.698.135-.58.296-.544.352-.373.55-.244"/><path d="M33.994 48.04l-.453.245-.214.264-.22.334-.175.372-.1.52.07.32.3.444.213.332.36.308.256.405.118.325-.036.453-.04.488-.28.47-.614.444-.836.216-.492.138-1.435-.1M27.3 47.314l.215.016h.24l.264.003.454.035.473.106.392.205.408.312.168.294.163.363.112.394.006.526-.12.306-.37.392-.265.295-.405.25-.318.36-.17.303-.076.94.2.506.534.532.8.34.464.2 1.435.1m-4.486.268h-.432l-.336.016-.408.016-.48.068-.4.173-.434.278-.194.28-.195.35-.147.384-.052.524.093.315.333.42.237.316.38.28.285.385.14.315-.006.944-.244.5-.58.487-.818.277-.48.173-1.44-.004"/><use xlink:href="#E" x="-1.285" y="14.693"/><path d="M11.516 54.432l1.007.03.406.176.43.28.19.28.19.35.14.385.044.524-.098.314-.34.418-.242.314-.386.28-.578.224-.34.366-.113.674.248.573.334.515.71.405.823.327.567.157.934.01.596-.054"/><use xlink:href="#F" x="-1.286" y="14.692"/><use xlink:href="#K"/><use xlink:href="#H" x="-1.286" y="14.692"/><path d="M10.644 64.752l1.436.208.392.205.408.312.168.294.163.363.112.394.006.526-.12.306-.37.392-.265.295-.405.25-.592.18-.365.34-.162.664.205.6.296.538.68.456.797.386.554.198.93.08.6-.01m12.455-13.366l-.43-.033-.336-.008-.408-.014-.484.033-.42.143-.453.245-.214.264-.22.334-.175.372-.1.52.07.32.3.444.213.332.36.308.256.405.118.325-.036.453-.04.488-.28.47-.614.444-.836.216-.492.138-1.435-.1"/><use xlink:href="#I" x="-1.284" y="14.693"/><path d="M19.85 57.806l-.43-.033-.336-.008-.408-.014-.484.033-.42.143-.453.245-.214.264-.22.334-.175.372-.1.52.07.32.3.444.213.332.36.308.256.405.118.325-.076.94-.28.47-.614.444-.836.216-1.08.097-1.44-.204-.465-.13-.423-.35-.236-.532-.128-.513.246-.56.623-.928.303-.546-.15-.707-.393-.725-.393-.31-1.494-.343"/><use xlink:href="#K" x="0.281" y="-3.814"/><path d="M18.432 61.54l.215.016.24.001.264.003.454.035.473.106.392.205.408.312.168.293.163.363.112.394.006.526-.12.306-.37.392-.265.295-.405.25-.318.36-.17.303-.037.453-.04.488.2.506.534.532.8.34.464.21 1.435.1"/><use xlink:href="#K" x="-7.436" y="-4.372"/><path d="M10.993 60.6l.986.422.477.266.506.438.364.693.175.592-.118.316-.37.4-.265.3-.4.25-.32.37-.167.3-.06.975.214.53.557.562.816.37.48.228 1.472.142m17.507-1.36l-.42.143-.453.245-.214.264-.22.334-.175.372-.1.52.07.32.3.444.213.332.36.308.256.405.118.325-.036.453-.04.488-.28.47-.614.444-.836.216-.492.138-1.435-.1m-3.125-6.705l.215.016.24.001.265.003.454.035.473.106.392.205.408.312.168.294.163.363.112.394.006.526-.12.306-.37.392-.265.295-.405.25-.318.36-.17.303-.076.94.2.506.534.532.8.34.464.2 1.435.1m-3.97-14.385l.215.016h.24l.264.003.454.035.473.106.392.205.408.312.168.294.163.363.112.394.006.526-.12.306-.37.392-.265.295-.405.25-.318.36-.17.303-.076.94.2.506.534.532.8.34.464.2 1.004.077.763-.136.685-.235.368-.197.465-.424.154-.707-.177-.666-.357-.416-.425-.386-.254-.625-.036-.698.135-.58.296-.544.35-.373.75-.244"/><path d="M33.13 62.588l-.42.143-.453.245-.214.264-.22.334-.175.372-.09.52.07.32.3.444.213.332.36.308.256.405.118.325-.076.94-.28.47-.614.444-.836.216-.492.138-1.435-.1"/><use xlink:href="#I" x="5.936" y="18.939"/><path d="M26.587 69.187l-.192.001-.24.001-.336.02-.408.02-.48.073-.407.178-.43.282-.19.28-.19.35-.143.386-.046.525.097.314.337.417.24.313.384.277.29.382.145.314.002.944-.24.49-.574.493-.815.285-.48.178-1.44.01"/><path d="M13.834 75.998l1.44-.01.48-.178.815-.285.574-.493.24-.5-.002-.944-.145-.314-.3-.382-.384-.277-.24-.313-.337-.417-.097-.314.046-.525.143-.385.2-.35.2-.28.43-.283.407-.178.393-.18.314-.078.24-.02.264-.02.456-.003.48.066.408.172.432.277.192.278.193.348.145.383.05.524-.095.315-.335.422-.24.316-.383.283-.287.387-.143.316.002.944.24.488.577.485.816.274.48.17 1.44-.01m-11.71-6.35l.48.066.408.172.432.277.192.278.193.348.145.383.05.524-.095.315-.335.422-.24.316-.383.283-.575.23-.336.37-.106.675.254.57.34.5.715.397.826.318.57.15h.934l.596-.06m10.083-6.76h.216l.24-.02.264-.02.456-.003.48.066.408.172.432.277.192.278.193.348.145.383.05.524-.095.315-.335.422-.24.316-.383.283-.287.387-.143.316.002.944.24.488.577.485.816.274.48.17 1.007-.007.673-.043.815-.534.238-.5-.002-.944-.145-.314-.3-.382-.384-.277-.24-.313-.337-.417-.097-.314.046-.525.143-.385.2-.35.2-.28.43-.282.407-.178.48-.073.408-.02m-6.38 11.354l-.2-.013-.24-.016-.336-.005-.408-.01-.484.038-.42.147-.45.25-.2.266-.216.336-.17.374-.085.52.073.32.306.44.217.33.363.304.26.402.12.323-.066.94-.274.472-.6.45-.833.225-.5.143-1.436-.095m-7.638-.28l.43.03 1.005.067.5-.143.833-.225.6-.45.274-.472.066-.94-.12-.323-.26-.402-.363-.304-.217-.33-.306-.44-.073-.32.085-.52.17-.374.216-.336.2-.266.45-.25.42-.147.405-.15.32-.054.24-.001h.264l.455.03.474.1.394.2.4.308.17.292.167.36.117.393.01.526-.118.308-.365.396-.262.298-.402.254-.314.365-.166.304-.066.94.205.504.54.526.794.333.466.206 1.436.095m-11.81-7.33l1.073.24.394.2.4.307.17.292.167.36.116.393.01.526-.118.308-.365.396-.262.298-.402.254-.6.187-.362.344-.155.666.2.587.3.535.684.448.8.378.556.192.932.07.598-.016"/><use xlink:href="#L"/><path d="M18 72.665l.215.014.24-.001h.264l.455.03.474.1.394.2.4.307.17.292.167.36.116.393.01.526-.118.308-.365.396-.262.298-.402.254-.314.365-.166.304-.066.94.205.504.54.526.794.333.466.206 1.436.095M19.066 72.7l-.2-.013-.24-.016-.336-.005-.408-.01-.484.038-.42.147-.45.25-.2.266-.216.336-.17.374-.085.52.073.32.306.44.217.33.363.304.26.402.12.323-.066.94-.274.472-.6.45-.833.225-1.08.108-1.443-.2-.466-.125-.427-.344-.24-.53-.134-.512.24-.564.613-.935.297-.55-.158-.706-.4-.72-.396-.305-.765-.255"/><use xlink:href="#L" x="-0.314" y="3.786"/><path d="M17.686 76.45l.215.014.24-.001h.264l.455.03.474.1.395.2.41.308.172.292.167.36.116.393.01.526-.118.308-.365.396-.26.298-.403.254-.314.364-.166.304-.066.94.205.504.54.526.794.333.466.206 1.436.095"/><path d="M18.75 76.487l-.43-.028-.336-.005-.408-.01-.484.038-.42.147-.45.25-.21.266-.216.336-.17.374-.085.52.073.32.306.44.217.33.363.304.26.402.12.323-.066.94-.274.472-.61.45-.833.225-.49.143-1.436-.095"/><path d="M10.686 75.714l1.022.556.5.433.372.7.18.6-.115.317-.366.404-.262.304-.408.256-.315.372-.164.313-.05.976.22.527.563.557.82.36.482.223 1.473.126M31.733 81.3l-.45.25-.2.266-.216.336-.17.374-.085.52.073.32.305.44.217.33.363.304c.518.67.45 1.435.04 2.14l-.6.45-.833.225-.5.143-1.436-.095"/><path d="M25.023 80.654l.215.014.24-.001h.265l.455.03.474.1.394.2.4.308.172.292.167.36.116.393.01.526-.118.308-.365.396-.262.298-.403.254-.314.365-.166.304-.066.94.205.504.54.526.794.333.466.206 1.436.095M25.58 73.05l.215.014.24-.001h.264l.455.03.474.1.394.2.4.307.17.292.167.36.116.393.01.526-.118.308-.365.396-.262.298-.402.254-.314.364-.166.304-.066.94.205.504.54.526.794.333.466.206 1.005.067.762-.144.682-.242.366-.2c.58-.55.585-1.214.423-1.8l-.36-.413-.43-.38-.26-.622-.043-.698.13-.583.3-.547.348-.377.547-.25"/><path d="M31.974 77.49l-.45.25-.21.266-.216.336-.17.374-.085.52.073.32.306.44.217.33.363.304c-.014 1.305.334 1.924-.567 2.59l-.833.225-.49.143-1.436-.095"/><path d="M25.265 76.836l.215.014h.24.264l.455.03.474.1.394.2.41.307.17.292.167.36.116.393.01.526-.118.308-.365.396-.262.298-.402.254-.314.365-.166.304-.066.94.205.504.54.526.794.333.466.206 1.436.095"/><use xlink:href="#M"/><path d="M12.733 91.4h.432 1.007l.48-.176.816-.28.577-.5.24-.5.002-.944-.143-.314-.287-.384-.383-.28-.24-.314-.335-.42-.095-.314.05-.524.145-.385.193-.35.193-.28.433-.28.408-.175.394-.18.314-.076.24-.018.264-.018h.456l.48.07.407.174.43.28.2.28.2.35.143.384.047.524-.097.315-.337.42-.24.315-.384.28-.3.385-.145.315-.002.944.238.5.574.488.815.278.48.174 1.44-.002M9.24 84.877l1.398-.052.407.174.43.28.2.28.2.35.143.384.047.524-.096.315-.337.42-.24.315-.384.28-.576.227-.338.368-.1.675.25.572.337.513.713.4.825.322.568.154.934.005.596-.057m10.12-6.714h.216l.24-.018.264-.018h.456l.48.07.407.174.43.28.2.28.2.35.143.384.047.524-.096.315-.337.42-.24.315-.384.28-.3.385-.145.315-.002.944.238.5.574.488.815.278.48.174 1.007-.001.673-.04.818-.53.24-.5.002-.944-.143-.314-.287-.384-.383-.28-.24-.314-.335-.42L29.24 87l.05-.524.145-.385.193-.35.193-.28.433-.28.408-.175.48-.07.408-.018"/><use xlink:href="#N"/><use xlink:href="#O"/><path d="M8.49 95.202l1.76.124.393.203.41.3.17.293.165.362.114.394.008.526-.12.307-.367.394-.263.297-.404.252-.59.184-.364.342-.158.665.208.59.3.536.68.452.8.382.555.195.932.074.6-.013"/><use xlink:href="#N" x="0.595" y="-7.601"/><path d="M16.917 88.1l.215.015h.24l.264.001.455.033.473.104.393.203.4.3.17.293.165.362.114.394.008.526-.12.307-.367.394-.263.297-.404.252-.316.363-.167.303-.07.94.202.505.537.53.792.337.465.208 1.435.103m-3.566-6.73l-.43-.03-.336-.006-.408-.012-.484.036-.42.145-.452.248-.213.265-.218.335-.173.373-.087.52.072.32.303.442.215.33.362.306.258.404.12.324-.07.94-.276.47-.6.447-.835.22-1.08.103-1.442-.196-.466-.127-.425-.347-.238-.53-.13-.512.243-.562.618-.932.3-.548-.154-.706-.397-.723-.395-.307-1.796-.022m16.43 3.634l-.43-.03-.336-.006-.408-.012-.484.035-.42.145-.452.248-.213.265-.218.335-.173.373-.088.52.072.32.303.442.215.33.36.306.258.404.12.324-.07.94-.276.47-.6.447-.835.22-.492.14-1.435-.103"/><use xlink:href="#P"/><path d="M17.647 91.914l-.43-.03-.336-.006-.408-.012-.484.035-.42.145-.452.248-.213.265-.218.335-.173.373-.087.52.072.32.303.442.215.33.36.306.258.404.12.324-.034.453-.037.488-.276.47-.61.447-.835.22-.492.14-1.435-.103"/><path d="M8.9 91.334l1.228.063.478.264.51.435.368.69.178.59-.116.316-.368.402-.264.303-.41.254-.317.37-.166.312-.055.976.217.528.56.56.818.365.48.225 1.472.134"/><use xlink:href="#Q"/><path d="M23.897 96.115l.215.015h.504l.454.033.473.104.393.203.4.3.17.293.165.362.114.394.008.526-.12.307-.367.394-.263.297-.404.252-.316.363-.167.303-.07.94.202.505.537.53.792.337.465.2 1.435.103m-4.034-14.372l.215.015h.504l.455.033.473.104.393.203.4.3.17.293.165.362.114.394.008.526-.12.307-.367.394-.263.297-.404.252-.316.363-.167.303-.07.94.202.505.537.53.792.337.465.208 1.005.072.762-.14.683-.24.367-.2.463-.426.15-.708-.18-.665-.36-.415-.427-.384-.258-.623-.04-.698.132-.582.293-.545.35-.375.548-.247"/><path d="M30.865 92.988l-.452.248-.213.265-.218.335-.173.373-.088.52.072.32.303.442.215.33.362.306.258.404.12.324-.07.94-.276.47-.61.447-.835.22-.492.14-1.435-.103"/><use xlink:href="#P" x="7.578" y="0.425"/><use xlink:href="#M" x="-1.207" y="14.699"/><path d="M11.524 106.098l.432-.001 1.007-.001.48-.176.816-.28.577-.5.24-.5.002-.944-.143-.314-.287-.384-.383-.28-.24-.314-.335-.42-.095-.314.05-.524.145-.385.193-.35.193-.28.433-.28.408-.175.394-.18.314-.076.24-.018.264-.018h.456l.48.07.407.174.43.28.2.28.2.35.143.384.047.524-.096.315-.337.42-.24.315-.384.28-.3.385-.145.315-.002.944.238.5.574.488.815.278.48.174 1.44-.002M8.42 99.498l1.007.025.407.174.43.28.2.28.2.35.143.384.047.524-.096.315-.337.42-.24.315-.384.28-.576.227-.338.368-.1.675.25.572.337.513.713.4.825.322.568.154.934.005.596-.057M23.098 99.3h.216l.24-.018.264-.018h.456l.48.07.407.174.43.28.2.28.2.35.143.384.047.524-.096.315-.337.42-.24.315-.384.28-.3.385-.145.315v.944l.238.5.574.488.815.278.48.174h1.007l.673-.04.818-.53.24-.5.002-.944-.143-.314-.287-.384-.383-.28-.24-.314-.335-.42-.095-.314.05-.524.145-.385.193-.35.193-.28.433-.28.408-.175.48-.07.408-.018m-6.446 11.34l-.43-.03-.336-.006h-.408l-.484.035-.42.145-.452.248-.213.265-.218.335-.173.373-.087.52.072.32.303.442.215.33.36.306.258.404.12.324-.07.94-.276.47-.6.447-.835.22-.492.14-1.435-.103"/><use xlink:href="#O" x="-1.208" y="14.699"/><path d="M7.603 109.824l1.437.2.393.203.4.3.17.293.165.362.114.394.008.526-.12.307-.367.394-.263.297-.404.252-.6.184-.364.342-.158.665.208.6.3.536.682.452.8.382.555.195.932.074.6-.013m12.382-13.413l-.43-.03-.336-.006-.408-.012-.484.035-.42.145-.452.248-.213.265-.218.335-.173.373-.087.52.072.32.303.442.215.33.362.306.258.404.12.324-.07.94-.276.47-.6.447-.835.22-.492.14-1.435-.103"/><path d="M15.708 102.788l.215.015h.24l.264.001.455.033.473.104.393.203.41.3.17.293.165.362.114.394.008.526-.12.307-.367.394-.263.297-.404.252-.316.363-.167.303-.07.94.202.505.537.53.792.337.465.21 1.435.103"/><path d="M16.773 102.83l-.43-.03-.336-.006-.408-.012-.484.035-.42.145-.452.248-.213.265-.218.335-.173.373-.087.52.072.32.303.442.215.33.362.306.258.404.12.324-.07.94-.276.47-.6.447-.835.22-1.08.103-1.442-.196-.466-.127-.425-.347-.238-.53-.13-.512.243-.562.618-.932.3-.548-.154-.706-.397-.723-.395-.307-1.495-.335m16.13 3.946l-.43-.03-.336-.006-.408-.012-.484.035-.42.145-.452.248-.213.265-.218.335-.173.373-.088.52.072.32.303.442.215.33.362.306.258.404.12.324-.07.94-.276.47-.6.447-.835.22-.492.14-1.435-.103"/><path d="M15.374 106.572l.215.015h.24l.264.001.454.032.473.104.393.203.41.3.17.293.165.362.114.394.008.526-.12.307-.367.394-.263.297-.404.252-.316.363-.167.303-.07.94.202.505.537.53.792.337.465.21 1.005.072.43.03"/><path d="M16.44 106.613l-.19-.014-.24-.017-.336-.006-.408-.012-.484.035-.42.145-.452.248-.213.265-.218.335-.173.373-.087.52.072.32.303.442.215.33.362.306.258.404.12.324-.07.94-.276.47-.61.447-.835.22-.492.14-1.435-.103"/><path d="M7.93 105.68l.988.417.478.264.5.435.368.7.178.6-.116.316-.368.402-.264.303-.4.254-.317.37-.166.312-.055.976.217.528.56.56.818.365.48.225 1.472.134m17.512-1.46l-.42.145-.452.248-.213.265-.218.335-.173.373-.087.52.072.32.303.442.215.33.362.306.258.404.12.324-.07.94-.276.47-.6.447-.835.22-.492.14-1.435-.103m-3.174-6.672l.215.015h.504l.454.033.473.104.393.203.4.3.17.293.165.362.114.394.008.526-.12.307-.367.394-.263.297-.404.252-.316.363-.167.303-.07.94.202.505.537.53.792.337.465.208 1.435.103m-4.036-14.37l.215.015h.24l.264.001.455.032.473.104.393.203.4.3.17.293.165.362.114.394.008.526-.12.307-.367.394-.263.297-.404.252-.316.363-.167.303-.07.94.202.505.537.53.792.337.465.208 1.005.072.762-.14.683-.24.367-.2.463-.426.15-.708-.18-.665-.36-.415-.427-.384-.258-.623-.04-.698.132-.582.293-.545.35-.375.75-.248"/><use xlink:href="#Q" x="-0.947" y="10.882"/><path d="M22.95 106.997l.215.015h.24l.264.001.455.033.473.104.393.203.4.3.17.293.165.362.114.394.008.526-.12.307-.367.394-.263.297-.404.252-.316.363-.167.303-.07.94.202.505.537.53.792.337.465.2 1.005.072.43.03m-4.01.407l-.192.002-.24.003-.336.022-.408.023-.48.076-.406.18-.43.285-.2.282-.2.352-.14.386-.044.525.098.313.34.415.242.312.386.275.3.38.146.313.003.454.004.5-.236.492-.572.496-.813.3-.478.18-1.44.017"/><path d="M10.852 121.052l1.44-.018.478-.18.813-.3.572-.496.236-.492-.004-.5-.003-.454-.146-.313-.3-.38-.386-.275-.242-.312-.34-.415-.098-.313.044-.525.14-.386.2-.352.2-.282.43-.285.406-.18.392-.183.314-.08.24-.02.264-.02.456-.005.48.064.4.17.434.274.194.277.195.347.147.383.052.524-.093.316-.332.424-.237.318-.38.285-.285.388-.14.316.003.454.004.5.244.486.58.482.818.27.48.17 1.44-.017m-11.765-6.282l.48.064.4.17.434.274.194.277.195.347.147.383.052.524-.093.316-.332.424-.237.318-.38.285-.574.233-.334.372-.102.676.257.57.342.5.717.393.828.314.57.148.934-.005.595-.063m10.044-6.812l.216-.003.24-.02.264-.02.456-.005.48.064.4.17.434.274.194.277.195.347.147.383.052.524-.093.316-.332.424-.237.318-.38.285-.285.388-.14.316.003.454.004.5.244.486.58.482.818.27.48.17 1.007-.013.673-.047.813-.538.236-.492-.004-.5-.003-.454-.146-.313-.3-.38-.386-.275-.242-.312-.34-.415-.098-.313.044-.525.14-.386.2-.352.2-.282.43-.285.406-.18.48-.076.408-.023m-6.347 11.388l-.43-.026-.336-.003-.408-.007-.483.04-.418.15-.45.252-.2.267-.214.337-.17.375-.082.52.075.32.308.44.218.33.365.302.262.4.123.323-.06.942-.27.474-.607.453-.832.23-.5.145-1.436-.088"/><path d="M10.088 131.698l1.436.088.5-.145.832-.23.607-.453.27-.474.062-.94-.123-.323-.262-.4-.365-.302-.218-.33-.308-.44-.075-.32.082-.52.17-.375.214-.337.2-.267.45-.252.418-.15.404-.154.32-.056.24-.003.264-.001.455.028.474.1.396.2.413.305.173.3.17.36.12.392.014.526-.116.308-.363.398-.26.3-.4.256-.312.366-.164.305-.06.942.207.503.543.523.796.33.467.204 1.436.088m-11.86-7.267l1.074.233.396.2.413.305.173.3.17.36.12.392.014.526-.116.308-.363.398-.26.3-.4.256-.6.2-.36.346-.15.667.214.586.304.533.686.445.803.374.557.2.932.064.598-.02m12.24-13.56l-.43-.026-.336-.003-.408-.008-.483.04-.418.15-.45.252-.2.267-.214.337-.17.375-.082.52.075.32.308.44.218.33.365.302.262.4.123.323-.06.942-.27.474-.607.453-.832.23-.5.145-1.436-.088"/><use xlink:href="#R"/><path d="M16.066 117.728l-.43-.026-.336-.003-.408-.007-.483.04-.418.15-.45.253-.2.267-.214.337-.17.375-.082.52.075.32.308.44.218.33.365.302.262.4.123.323-.06.942-.27.474-.607.453-.832.23-1.08.114-1.444-.18-.467-.122-.428-.342-.244-.528-.136-.5.238-.565.608-.938.295-.55-.162-.705-.404-.72-.398-.303-.766-.25m15.428 3.703l-.43-.026-.336-.003-.408-.008-.483.04-.418.15-.45.252-.2.267-.214.337-.17.375-.082.52.075.32.308.44.22.33.365.302.262.4.123.323-.06.942-.27.474-.607.453-.832.23-.5.145-1.436-.088"/><use xlink:href="#R" x="-0.294" y="3.787"/><path d="M15.772 121.515l-.43-.026-.336-.003-.408-.007-.483.04-.418.15-.45.253-.2.267-.214.337-.17.375-.082.52.075.32.308.44.22.33.365.302.262.4.123.323-.06.942-.27.474-.607.453-.832.23-.5.145-1.436-.088"/><path d="M7.703 120.785l1.025.55.513.43.375.687.184.6-.113.318-.364.406-.26.306-.406.258-.313.374-.162.313-.045.976.222.526.566.554.822.356.483.22 1.474.12m17.074-1.5l-.45.252-.2.267-.214.337-.17.375-.082.52.075.32.308.44.218.33.365.302c.522.67.457 1.433.053 2.14l-.607.453-.832.23-.5.145-1.435-.086"/><path d="M22.065 125.65l.215.013.24-.003h.264l.455.028.474.1.396.2.413.305.173.3.17.36.12.392.014.526-.116.308-.363.398-.26.3-.4.256-.312.366-.164.305-.06.942.207.503.543.523.796.33.467.204 1.436.088m-4.193-14.34l.215.013.24-.003.264-.001.455.028.474.1.396.2.413.305.173.3.17.36.12.392.014.526-.116.308-.363.398-.26.3-.4.256-.312.366-.164.305-.06.942.207.503.543.523.796.33.467.204 1.005.06.76-.148.68-.246.365-.203c.578-.553.58-1.217.414-1.804l-.364-.4-.43-.38-.264-.62-.047-.697.126-.583.287-.548.346-.38.545-.253"/><path d="M29 122.45l-.45.253-.2.267-.214.337-.17.375-.082.52.075.32.308.44.218.33.365.302c-.007 1.305.344 1.922-.554 2.592l-.832.23-.5.145-1.436-.088"/><path d="M22.287 121.83l.215.013.24-.003h.264l.455.028.474.1.396.2.413.305.173.29.17.36.12.392.014.526-.116.308-.363.398-.26.3-.4.256-.312.366-.164.305-.062.942.207.503.543.523.796.33.467.204 1.436.088"/><use xlink:href="#S"/><path d="M10.7 135.55l1.433-.135.462-.22.787-.355.53-.542.195-.5-.085-.94-.172-.3-.32-.356-.407-.242-.267-.3-.372-.386-.124-.304v-.527l.1-.396.16-.366.166-.297.405-.32.4-.212.376-.214.306-.105.237-.04.26-.042.454-.043.484.024.422.136.455.238.216.26.223.33.178.37.095.518-.067.322-.297.45-.2.336-.357.315-.252.4-.115.327.085.94.283.465.617.433.837.202.493.13 1.433-.135m-13.15-5.1l1.387-.18.422.136.455.238.216.26.223.33.178.37.095.518-.067.322-.297.45-.2.336-.357.315-.553.28-.302.398-.046.682.302.546.383.48.747.333.85.245.58.1.93-.08.588-.112m9.455-7.623l.215-.02.237-.04.26-.042.454-.042.484.024.422.136.455.238.216.26.223.33.178.37.095.518-.067.322-.297.45-.2.336-.357.315-.252.4-.115.327.085.94.283.465.617.433.837.202.493.13 1.003-.095.666-.102.766-.603.195-.5-.085-.94-.17-.3-.32-.356-.407-.242-.267-.3-.372-.386-.124-.304v-.527l.1-.397.16-.366.166-.297.405-.32.4-.212.47-.115.404-.056"/><use xlink:href="#T"/><path d="M10.8 146.223l1.44-.03.477-.185.8-.297.567-.5.232-.494-.008-.5-.008-.454-.15-.312-.294-.378-.388-.272-.244-.3-.343-.412-.1-.313.04-.525.138-.387.186-.354.187-.284.427-.288.405-.183.4-.186.313-.082.24-.022.263-.023.456-.01.48.06.4.166.436.27.196.276.198.345.15.38.057.523-.1.317-.33.426-.235.32-.38.288-.28.4-.14.318.008.454.008.5.248.484.584.477.82.262.482.165 1.44-.03m-13.083-6.095l1.764-.04.4.166.436.27.196.276.198.345.15.38.057.523-.1.317-.33.426-.235.32-.38.288-.572.238-.33.374-.096.677.262.567.347.506.72.387.83.306.57.143.934-.013.595-.068"/><use xlink:href="#T" x="-0.109" y="-7.623"/><use xlink:href="#U"/><path d="M15.614 131.8l-.432.01-.335.025-.407.026-.478.08-.405.183-.427.288-.187.284-.186.354-.138.387-.04.525.1.313.343.412.244.3.388.272.294.378.15.31.008.454.008.49-.232.494-.567.5-.81.297-1.066.202-1.454-.062-.475-.084-.455-.306-.286-.506-.178-.498.2-.582.53-.985.248-.573-.22-.69-.462-.683-.42-.27-1.8.144"/><use xlink:href="#V"/><path d="M14.566 135.666l.216-.005.24-.022.263-.023.456-.01.48.06.41.166.436.27.196.276.197.346.15.38.057.523-.1.317-.33.426-.235.32-.38.288-.28.4-.14.318.008.454.008.49.248.484.584.477.82.262.482.165 1.44-.03"/><path d="M15.63 135.61l-.432.01-.335.025-.407.026-.478.08-.405.183-.427.288-.187.284-.186.354-.137.387-.04.525.1.313.343.412.245.3.388.272.294.378.15.312.008.454.008.49-.232.494-.567.5-.81.297-.477.185-1.007.02-.432.01"/><path d="M6.866 135.84l1.23-.05.5.218.547.386.43.654.232.572-.087.326-.33.435-.235.326-.384.3-.28.398-.136.326.035.976.264.506.61.505.848.288.5.18 1.48-.002"/><use xlink:href="#W"/><path d="M22.242 139.214l.216-.005.24-.022.263-.023.456-.01.48.06.4.166.436.27.196.276.198.345.15.38.057.523-.1.317-.33.426-.235.32-.38.288-.28.4-.14.318.008.454.008.5.248.484.584.477.82.262.482.165 1.44-.03M22.133 131.6l.216-.005.24-.022.263-.023.456-.01.48.06.4.166.436.27.196.276.198.345.15.38.057.523-.1.317-.33.426-.235.32-.38.288-.28.4-.14.318.008.454.008.5.248.484.584.477.82.262.482.165 1.007-.02.746-.2.658-.3.347-.232.422-.467.084-.72-.242-.645-.396-.38-.46-.342-.314-.597-.103-.7.078-.592.24-.57.313-.406.523-.296"/><path d="M28.89 135.457l-.427.29-.187.284-.186.354-.138.387-.04.525.1.313.343.412.244.3.388.272.294.378.15.312.008.454.008.49-.232.494-.567.5-.81.297-.477.185-1.007.02-.432.01"/><use xlink:href="#X"/><use xlink:href="#S" x="0.155" y="14.747"/><path d="M10.844 150.298l1.433-.135.462-.22.787-.355.53-.542.195-.5-.085-.94-.17-.3-.32-.356-.407-.242-.267-.3-.372-.386-.124-.304v-.527l.1-.397.16-.366.166-.297.405-.32.4-.212.376-.214.306-.105.237-.04.26-.042.454-.043.484.024.422.136.455.238.216.26.223.33.178.37.095.518-.067.322-.297.45-.2.336-.357.315-.252.4-.115.327.085.94.283.465.617.433.837.202.493.13 1.433-.135m-12.76-5.213l1.005-.07.422.136.455.238.216.26.223.33.178.37.095.518-.067.322-.297.45-.2.336-.357.315-.553.28-.302.398-.046.682.302.546.383.48.747.333.85.245.58.1.93-.08.588-.112m9.454-7.62l.215-.02.237-.04.26-.042.454-.043.484.024.422.136.455.238.216.26.223.33.178.37.095.518-.067.322-.297.45-.2.336-.357.315-.252.4-.115.327.04.453.044.487.283.465.617.433.837.202.493.13 1.003-.095.666-.102.766-.603.195-.5-.085-.94-.17-.3-.32-.356-.407-.242-.267-.3-.372-.386-.124-.304v-.527l.1-.396.16-.366.166-.297.405-.32.4-.212.47-.115.404-.056"/><use xlink:href="#T" x="0.155" y="14.748"/><path d="M10.955 160.97l1.44-.03.477-.185.8-.297.567-.5.232-.494-.008-.5-.008-.454-.15-.312-.294-.378-.388-.272-.244-.3-.343-.412-.1-.313.04-.525.138-.387.186-.354.187-.284.427-.288.405-.183.4-.186.313-.082.24-.022.263-.023.456-.01.48.06.4.166.436.27.196.276.198.345.15.38.057.523-.1.317-.33.426-.235.32-.38.288-.28.4-.14.318.008.454.008.5.248.484.584.477.82.262.482.165 1.44-.03m-12.76-6.2l1.45.067.4.166.436.27.196.276.198.345.15.38.057.523-.1.317-.33.426-.235.32-.38.288-.572.238-.33.375-.096.677.262.567.347.506.72.387.83.306.57.143.934-.013.595-.068"/><use xlink:href="#T" x="0.046" y="7.125"/><use xlink:href="#U" x="0.154" y="14.747"/><path d="M15.768 146.558l-.432.01-.335.025-.407.026-.478.08-.405.183-.427.288-.187.284-.186.354-.138.387-.04.525.1.313.343.412.244.3.388.272.294.378.15.3.008.454.008.5-.232.494-.567.5-.8.297-1.066.202-1.454-.062-.475-.084-.455-.306-.286-.506-.178-.498.2-.582.53-.985.248-.573-.22-.7-.462-.683-.42-.27-1.52-.196m16.42 2.45l-.432.01-.335.025-.407.026-.478.08-.405.183-.427.288-.187.284-.186.354-.138.387-.04.525.1.313.343.412.245.3.388.272.294.378.15.3.008.454.008.5-.232.494-.567.5-.8.297-.477.185-1.007.02-.432.01m-3.776-6.34l.216-.005.24-.022.263-.023.456-.01.48.06.4.166.436.27.196.276.197.346.15.38.057.523-.1.317-.33.426-.235.32-.38.288-.28.4-.14.318.008.454.008.5.248.484.584.477.82.262.482.165 1.44-.03"/><use xlink:href="#V" x="-7.58" y="14.946"/><path d="M7.226 150.213l1.022.323.5.218.547.386.43.654.232.572-.087.326-.33.435-.235.326-.384.3-.28.398-.136.326.017.47.018.506.264.506.61.505.848.288.5.18 1.48-.002"/><use xlink:href="#W" x="0.154" y="14.746"/><path d="M22.396 153.962l.216-.005.24-.022.263-.023.456-.01.48.06.4.166.436.27.196.276.198.345.15.38.057.523-.1.317-.33.426-.235.32-.38.288-.28.4-.14.318.008.454.008.5.248.484.584.477.82.262.482.165 1.44-.03m-5.336-13.955l.216-.005.24-.022.263-.023.456-.01.48.06.4.166.436.27.196.276.198.345.15.38.057.523-.1.317-.33.426-.235.32-.38.288-.28.4-.14.318.008.454.008.5.248.484.584.477.82.262.482.165 1.007-.02.746-.2.658-.3.347-.232.422-.467.084-.72-.242-.645-.396-.38-.46-.342-.314-.597-.103-.7.078-.592.24-.57.313-.406.723-.316"/><path d="M29.45 150.022l-.405.183-.427.29-.187.284-.186.354-.138.387-.04.525.1.313.343.412.244.3.388.272.294.378.15.312.008.454.008.49-.232.494-.567.5-.81.297-.477.185-1.007.02-.432.01"/><use xlink:href="#X" x="0.154" y="14.737"/><path d="M23.583 157.227l-.19.02-.238.025-.332.053-.404.06-.47.12-.388.216-.402.323-.163.298-.156.368-.105.398.005.527.127.303.376.382.27.288.4.238.325.352.175.298.095.94-.19.512-.523.547-.783.363-.46.224-1.43.15"/><path d="M11.556 165.25l1.432-.15.46-.224.783-.363.523-.547.2-.512-.095-.94-.175-.298-.325-.352-.4-.238-.27-.288-.376-.382-.127-.303-.005-.527.105-.398.156-.368.163-.298.4-.323.388-.216.373-.218.305-.108.237-.042.26-.045.453-.047.484.02.423.13.457.233.22.258.226.328.182.367.1.517-.064.323-.292.453-.207.338-.353.32-.248.413-.112.328.095.94.287.462.62.427.84.193.495.124 1.43-.15M8.3 158.905l.484.02.423.13.457.233.22.258.226.328.182.367.1.517-.064.323-.292.452-.207.338-.353.32-.55.285-.298.4-.04.682.308.543.388.476.75.325.854.236.58.095.93-.1.587-.118m9.375-7.717l.215-.023.237-.042.26-.045.453-.047.484.02.423.13.457.233.22.258.226.328.182.367.1.517-.064.323-.292.453-.207.338-.353.32-.248.413-.112.328.095.94.287.462.62.427.84.193.495.124 1.002-.106.665-.1.76-.6.2-.512-.096-.94-.175-.298-.325-.352-.4-.238-.27-.288-.376-.382-.127-.303-.005-.527.105-.398.156-.368.163-.298.4-.323.388-.216.47-.12.404-.06M24.36 168.8l-.192.006-.24.008-.335.028-.407.03-.478.085-.403.188-.424.293-.184.286-.182.355-.133.4-.034.526.104.3.347.4.248.307.4.267.298.375.152.3.026.943-.226.497-.562.507-.807.305-.475.2-1.438.045"/><path d="M11.78 175.92l1.438-.045.475-.2.807-.305.562-.507.226-.497-.026-.943-.152-.3-.298-.375-.4-.267-.248-.307-.347-.408-.104-.3.034-.526.133-.4.182-.355.184-.286.424-.293.403-.188.388-.2.312-.085.24-.025.263-.026.455-.014.48.055.412.162.44.266.2.274.2.343.154.38.062.523-.087.318-.324.43-.23.322-.376.292-.277.393-.135.32.026.943.253.482.6.47.823.254.484.16 1.438-.045m-12.476-6.132l1.1.133.412.162.44.266.2.274.2.343.154.38.062.523-.087.318-.324.43-.23.322-.376.292-.57.244-.327.378-.1.678.267.564.352.503.724.38.834.298.572.137.934-.022.594-.074"/><use xlink:href="#Y"/><use xlink:href="#Z"/><path d="M16.44 161.458l-.192.006-.24.008-.335.028-.407.03-.478.085-.403.188-.424.293-.184.286-.182.355-.133.39-.034.526.104.31.347.408.248.307.39.267.298.375.152.3.026.943-.226.497-.562.507-.807.305-1.064.213-1.454-.047-.476-.08-.458-.3-.292-.503-.183-.496.184-.584.52-1 .242-.575-.226-.687-.47-.678-.424-.265-.786-.18"/><use xlink:href="#Y" x="0.057" y="3.797"/><use xlink:href="#Z" x="0.057" y="3.798"/><use xlink:href="#Y" x="-7.676" y="4.077"/><path d="M8.395 165.275l1.07.454.55.38.437.65.238.57-.083.327-.325.438-.23.328-.38.294-.277.4-.133.327.046.976.27.503.615.5.85.28.5.175 1.478-.018m16.866-3.07l-.424.293-.184.286-.182.355-.133.4-.034.526.104.3.347.4.248.307.4.267c.58.618.588 1.384.25 2.125l-.562.507-.807.305-.475.2-1.438.045"/><use xlink:href="#Z" x="7.769" y="7.265"/><path d="M22.957 161.17l.216-.007.24-.025.263-.026.455-.014.48.055.412.162.44.266.2.274.2.343.154.38.062.523-.087.318-.324.43-.23.322-.376.292-.277.393-.135.32.026.943.253.482.59.47.823.254.484.16 1.007-.032.744-.217.655-.308.344-.236c.525-.604.464-1.265.245-1.834l-.4-.375-.464-.338-.32-.594-.11-.7.072-.592.235-.572.31-.41.52-.302"/><path d="M29.755 164.966l-.424.293-.184.286-.182.355-.133.39-.034.526.104.312.347.408.248.307.39.267c.114 1.3.52 1.882-.312 2.632l-.807.305-.475.2-1.438.045"/><use xlink:href="#Z" x="7.637" y="3.443"/><use xlink:href="#a"/><path d="M12.865 181.42l1.4-.373.42-.293.716-.482.43-.622.107-.535-.24-.913-.22-.267-.376-.297-.442-.17-.3-.243-.43-.318-.173-.28-.087-.52.04-.4.096-.388.114-.32.346-.382.35-.274.335-.274.284-.154.227-.08.25-.085.44-.118.48-.057.438.063.488.16.256.22.275.288.237.335.18.495-.012.33-.218.493-.152.366-.3.37-.18.446-.06.342.24.913.356.4.68.324.86.06.508.045 1.4-.373M7.8 176.015l1.337-.4.438.063.488.16.256.22.274.288.237.335.18.495-.012.33-.218.493-.152.366-.3.37-.5.368-.232.442.068.68.4.488.458.4.792.204.88.1.588.003.904-.235.56-.208m8.058-9.103l.208-.056.227-.08.25-.085.44-.118.48-.057.438.063.488.16.256.22.274.288.237.335.18.495-.012.33-.218.493-.152.366-.3.37-.18.446-.06.34.24.913.356.4.68.324.86.06.508.045.973-.26.64-.2.654-.722.107-.535-.24-.913-.22-.267-.376-.297-.442-.17-.312-.242-.43-.318-.173-.28-.087-.52.04-.4.096-.388.114-.32.346-.382.35-.274.446-.192.4-.122"/><use xlink:href="#b"/><use xlink:href="#c"/><path d="M9.74 186.185l1.733-.332.432.095.475.194.24.24.253.308.212.35.143.506-.036.327-.253.475-.178.354-.325.347-.524.33-.264.424.018.683.352.515.427.44.775.26.87.164.587.046.92-.168.575-.166m8.518-16.15l-.424.08-.327.08-.397.094-.458.158-.37.248-.373.356-.137.3-.125.38-.07.405.05.524.152.3.407.35.293.265.428.203.353.324.2.282.173.928-.146.526-.476.6-.75.428-.44.262-1.413.27"/><use xlink:href="#d"/><path d="M17.096 176.91l-.188.036-.236.045-.327.08-.397.094-.458.158-.37.248-.373.356-.137.31-.124.38-.07.405.05.524.152.29.407.35.293.265.428.203.353.324.2.282.173.928-.146.526-.476.59-.75.428-1.017.377-1.444.18-.483-.003-.5-.226-.367-.45-.258-.46.09-.606.357-1.06.15-.606-.33-.643-.57-.597-.46-.196-1.74.44"/><use xlink:href="#e"/><use xlink:href="#d" x="0.65" y="3.743"/><use xlink:href="#f"/><path d="M9.142 182.343l1.203-.255.53.132.603.3.533.573.324.526-.03.336-.252.483-.177.36-.33.35-.21.44-.08.344.198.957.345.455.685.397.884.142.522.094 1.457-.25"/><use xlink:href="#g"/><use xlink:href="#h"/><path d="M23.487 175.607l.212-.04.232-.062.256-.067.448-.086.484-.02.432.095.475.194.24.24.253.308.212.35.143.506-.036.327-.253.475-.178.354-.325.347-.212.432-.084.336.173.928.325.436.655.373.852.122.503.082.99-.19.7-.33.6-.407.303-.287.338-.53-.037-.723-.346-.596-.454-.308-.51-.26-.41-.536-.217-.664-.022-.596.143-.602.24-.452.466-.38"/><path d="M30.795 178.293l-.373.356-.137.31-.124.38-.07.405.05.524.152.29.407.35.293.265.428.203.353.324.2.282.173.928-.146.526-.476.59-.75.428-.44.262-1.414.27"/><path d="M24.137 179.35l.212-.04.232-.062.256-.067.448-.085.484-.02.432.095.475.194.24.24.253.307.212.35.143.506-.036.327-.253.475-.178.354-.325.347-.212.432-.084.336.173.928.325.436.655.373.852.122.503.082 1.413-.27"/><use xlink:href="#a" x="2.61" y="14.515"/><path d="M15.476 195.935l1.4-.373.42-.293.716-.482.43-.622.107-.535-.24-.913-.22-.267-.376-.297-.442-.17-.3-.243-.43-.318-.173-.28-.087-.52.04-.4.096-.388.114-.32.346-.382.35-.274.335-.274.284-.154.227-.08.25-.085.44-.118.48-.057.438.064.488.16.256.22.275.288.237.335.18.495-.012.33-.218.493-.152.366-.3.37-.18.446-.06.34.24.913.356.4.68.324.86.06.508.045 1.4-.373m-13.45-3.01l.98-.235.438.063.488.16.256.22.274.288.237.335.18.495-.012.33-.218.493-.152.366-.3.37-.5.368-.232.442.068.68.4.488.458.4.792.204.88.1.588.003.904-.235.56-.208m8.056-9.092l.208-.056.227-.08.25-.085.44-.118.48-.057.438.063.488.16.256.22.274.288.237.335.18.495-.012.33-.218.493-.152.366-.3.37-.18.446-.06.34.24.913.356.4.68.324.86.06.508.045.973-.26.64-.2.655-.722.107-.535-.24-.913-.22-.267-.376-.297-.442-.17-.312-.242-.43-.318-.173-.28-.087-.52.04-.4.096-.388.114-.32.346-.382.35-.274.446-.192.4-.122"/><use xlink:href="#b" x="2.612" y="14.516"/><use xlink:href="#c" x="2.611" y="14.515"/><path d="M12.645 200.543l1.44-.175.433.095.475.194.24.24.253.308.212.35.143.506-.036.327-.253.475-.178.354-.325.347-.524.33-.263.424.018.683.352.515.427.44.775.26.87.164.586.046.92-.168.575-.166M27.3 189.94l-.424.08-.327.08-.397.094-.458.158-.37.248-.373.356-.137.3-.124.38-.07.405.05.524.152.3.407.35.293.265.428.203.353.324.2.282.173.928-.146.526-.476.6-.75.428-.44.262-1.413.27"/><path d="M18.668 191.66l.212-.04.232-.062.256-.067.448-.085.484-.02.432.095.475.194.24.24.252.308.212.35.143.506-.036.327-.253.475-.178.354-.325.347-.212.432-.084.336.173.928.325.436.655.373.852.122.503.082 1.414-.27m-5.18-5.595l-.424.08-.327.08-.397.094-.458.158-.37.248-.373.356-.137.3-.124.38-.07.405.05.524.152.3.407.35.293.265.428.203.353.324.2.282.173.928-.146.526-.476.6-.75.428-1.017.377-1.444.18-.483-.003-.5-.226-.367-.45-.258-.46.1-.606.357-1.06.15-.606-.33-.643-.57-.596-.46-.196-1.53.06"/><use xlink:href="#e" x="2.61" y="14.514"/><path d="M19.318 195.403l.212-.04.232-.062.256-.067.448-.086.484-.02.433.095.475.194.24.24.252.308.212.35.143.506-.036.327-.253.475-.178.354-.325.347-.212.432-.084.336.173.928.325.436.655.373.852.122.503.082 1.413-.27"/><use xlink:href="#f" x="2.612" y="14.516"/><path d="M11.895 196.455l1.062.148.53.132.603.3.533.573.324.526-.03.336-.252.484-.177.36-.33.35-.21.44-.08.344.198.957.345.455.685.397.884.142.522.094 1.457-.25"/><use xlink:href="#g" x="2.611" y="14.515"/><use xlink:href="#h" x="2.611" y="14.514"/><path d="M26.1 190.123l.212-.04.232-.062.256-.067.448-.086.484-.02.432.095.475.194.24.24.253.308.212.35.143.506-.036.327-.253.475-.178.354-.325.347-.212.432-.084.336.173.928.325.436.655.373.852.122.503.082.99-.19.7-.33.6-.407.303-.287.338-.53-.037-.723-.346-.596-.454-.308-.51-.26-.41-.536-.217-.664-.022-.596.143-.602.24-.452.66-.433"/><path d="M33.776 192.56l-.37.248-.373.356-.137.31-.124.38-.07.405.05.524.152.29.407.35.293.265.428.203.353.324.2.282.173.928-.146.526-.476.59-.75.428-.44.262-1.414.27"/><path d="M26.75 193.865l.212-.04.232-.062.256-.067.448-.085.484-.02.433.095.475.194.24.24.253.308.212.35.143.506-.036.327-.253.475-.178.354-.325.347-.212.432-.084.336.173.928.325.436.655.373.852.122.503.082 1.414-.27m-3.78 1.417l-.185.052-.23.065-.32.107-.388.127-.444.196-.347.278-.342.386-.1.32-.092.4-.037.4.093.518.176.278.435.314.314.24.444.166.38.293.222.265.25.9-.1.536-.425.627-.7.5-.416.298-1.386.387"/><path d="M18.672 210.56l1.386-.387.416-.298.7-.5.425-.627.1-.536-.25-.9-.222-.265-.38-.293-.444-.166-.314-.24-.435-.314-.176-.278-.093-.52.037-.4.092-.4.1-.32.342-.386.347-.278.332-.277.283-.157.226-.08.25-.088.44-.122.48-.062.44.06.5.154.26.218.278.285.24.332.185.493-.01.33-.212.495-.148.368-.295.373-.175.448-.055.342.25.9.36.407.684.317.86.05.508.04 1.386-.387m-12.976-3.056l.48-.062.44.06.5.154.26.218.277.285.24.332.185.493-.01.33-.212.495-.148.368-.295.373-.495.373-.227.445.075.68.394.484.462.404.794.196.88.1.588-.003.902-.245.56-.214M28 200.925l.208-.058.226-.08.25-.088.44-.122.48-.062.44.06.5.153.26.218.278.285.24.332.185.493-.01.33-.212.495-.148.368-.295.373-.175.448-.055.342.25.9.36.407.684.317.86.05.508.04.97-.27.638-.218.647-.73.1-.536-.25-.9-.222-.265-.38-.293-.444-.166-.314-.24-.435-.314-.176-.278-.093-.52.037-.4.092-.4.1-.32.342-.386.347-.278.444-.196.388-.126M31.9 211.925l-.188.038-.235.048-.326.084-.396.098-.457.163-.366.252-.37.36-.134.312-.12.38-.067.406.055.524.155.3.4.345.296.262.43.198.357.32.202.28.183.926-.14.528-.47.594-.745.436-.436.266-1.4.284"/><path d="M20.67 221.043l1.4-.284.436-.266.745-.436.47-.594.14-.528-.183-.926-.202-.28-.357-.32-.43-.198-.296-.262-.4-.345-.155-.3-.055-.524.067-.406.12-.38.134-.312.37-.36.366-.252.35-.252.293-.136.487-.134.447-.1.484-.027.433.1.477.2.242.237.256.305.215.35.15.505-.033.328-.248.478-.174.356-.322.35-.208.434-.08.337.183.926.33.433.66.366.853.113.504.077 1.4-.284m-13.33-3.955l1.098-.05.433.1.477.2.242.237.256.305.215.35.15.505-.033.328-.248.478-.174.356-.322.35-.52.335-.26.427.025.683.358.512.43.437.777.253.872.155.587.04.917-.178.573-.172m8.35-16.248l-.423.086-.326.084-.396.098-.457.163-.366.252-.37.36-.134.312-.12.38-.067.406.055.524.155.3.4.345.296.262.43.198.357.32.202.28.183.926-.14.528-.47.594-.745.436-.436.266-1.4.285m-4.833-5.595l.212-.043.232-.065.255-.07.447-.1.484-.027.433.1.477.2.242.237.255.305.215.35.15.505-.033.328-.248.478-.174.356-.322.35-.208.434-.08.337.183.926.33.433.66.366.853.113.504.077 1.4-.285"/><path d="M22.856 206.006l-.188.038-.235.048-.326.084-.396.098-.457.163-.366.252-.37.36-.134.312-.12.38-.067.406.055.524.155.3.4.345.296.262.43.198.357.32.202.28.183.926-.14.528-.47.594-.745.436-1.013.388-1.442.196-.483.001-.502-.22-.372-.448-.263-.46.084-.607.346-1.063.143-.608-.338-.64-.575-.6-.462-.19-.805-.046"/><use xlink:href="#i"/><path d="M22.508 209.987l.21-.043.232-.064.255-.07.447-.1.484-.027.433.09.477.19.242.237.255.305.215.35.15.505-.033.328-.248.478-.174.356-.322.35-.208.434-.08.337.183.926.33.433.66.366.853.113.504.077 1.41-.284"/><use xlink:href="#i" x="-7.577" y="1.565"/><path d="M15.56 211.1l1.132.27.606.284.54.568.33.522-.028.336-.247.486-.173.362-.326.354-.206.442-.076.345.207.955.35.45.7.4.886.133.523.1 1.455-.264m16.114-5.85l-.37.36-.134.312-.12.38-.067.406.055.524.155.3.4.345.296.262.43.198c.676.512.8 1.267.6 2.054l-.47.594-.745.436-.436.266-1.4.285"/><path d="M30.7 212.12l.2-.043.232-.065.255-.07.447-.1.484-.027.433.1.477.2.242.237.256.305.215.35.15.505-.033.328-.248.478-.174.356-.322.35-.208.434-.08.337.183.926.33.433.66.366.853.113.504.077 1.4-.285m-7.743-12.77l.212-.043.487-.134.447-.1.484-.027.433.1.477.2.242.237.256.305.215.35.15.505-.033.328-.248.478-.174.356-.322.35-.208.434-.08.337.183.926.33.433.66.366.853.113.504.077.987-.2.697-.338.595-.413.3-.3c.417-.683.247-1.325-.064-1.85l-.457-.303-.514-.255-.415-.532-.224-.662-.028-.596.136-.604.237-.455.462-.384"/><path d="M36.57 207.244l-.37.36-.134.312-.12.38-.067.406.054.524.155.3.4.345.296.262.43.198c.33 1.263.826 1.77.13 2.648l-.745.436-.436.266-1.4.285m-4.83-5.596l.212-.043.232-.065.255-.07.447-.1.484-.027.433.1.477.2.242.237.256.305.215.35.15.505-.033.328-.248.478-.174.356-.322.35-.208.434-.08.337.183.926.33.433.66.366.853.113.504.077 1.4-.285m-4.313.75l-.397.123-.303.112-.37.133-.416.204-.312.286-.297.396-.076.328-.05.396.007.417.146.526.202.28.46.314.334.24.455.164.404.294.246.267.342.922-.044.546-.353.64-.65.505-.378.307-1.325.408"/><use xlink:href="#j"/><path d="M16.96 219.2l1.27-.445.44.055.5.15.278.22.303.287.272.335.234.5.026.335-.157.505-.107.375-.252.382-.45.384-.177.455.145.7.44.488.498.406.803.2.878.082.58-.01.863-.258.53-.223m6.873-9.418l.2-.06.215-.085.237-.092.42-.13.467-.068.44.055.5.15.278.22.303.287.272.335.234.5.026.335-.157.505-.107.375-.252.382-.126.457-.02.348.342.922.398.4.707.315.852.042.505.035.928-.286.606-.228.56-.747.044-.546-.342-.922-.246-.267-.404-.294-.455-.164-.335-.24-.46-.314-.202-.28-.146-.526-.007-.417.05-.396.076-.328.297-.395.312-.286.416-.204.37-.133"/><use xlink:href="#k"/><path d="M25.625 235.227l1.36-.304.402-.275.7-.45.4-.6.083-.538-.277-.94-.228-.283-.385-.32-.445-.197-.32-.263-.44-.346-.183-.293-.1-.532.023-.413.08-.388.1-.32.326-.37.334-.26.32-.26.275-.14.222-.068.244-.073.43-.096.474-.032.437.088.5.187.263.238.284.307.25.352.2.5.001.333-.194.488-.134.364-.28.36-.16.443-.044.343.277.94.37.436.688.365.853.106.505.072 1.36-.304m-14.146-3.58l1.668-.375.437.088.5.187.263.238.284.307.25.352.2.5v.333l-.194.488-.134.364-.28.36-.478.346-.2.437.096.694.406.516.47.44.793.25.875.148.583.034.885-.2.547-.18"/><use xlink:href="#l"/><use xlink:href="#m"/><path d="M26.203 219.923l-.18.04-.227.05-.312.088-.38.104-.433.17-.334.26-.326.37-.1.32-.08.388-.023.413.11.532.183.293.44.346.32.263.445.197.385.32.228.282.277.94-.083.538-.4.61-.69.45-.958.405-1.4.215-.476.007-.518-.22-.413-.45-.307-.463.02-.618.23-1.084.077-.62-.4-.646-.63-.594-.476-.19-1.663.485"/><use xlink:href="#l" x="1.071" y="3.788"/><use xlink:href="#m" x="1.07" y="3.789"/><use xlink:href="#k" x="-9.326" y="-1.685"/><path d="M19 225.612l1.155-.285.537.123.627.282.6.57.38.527.008.342-.193.497-.133.37-.284.363-.157.45-.04.35.305.968.392.455.72.388.887.126.525.085 1.406-.284m15.605-6.364l-.334.26-.326.37-.1.32-.08.388-.023.413.1.532.183.293.44.346.32.263.445.197.385.32.228.283.277.94-.083.538-.4.6-.7.45-.402.275-.952.213-.408.1"/><use xlink:href="#n"/><path d="M32.344 218.463l.204-.046.222-.068.244-.073.43-.096.474-.032.437.088.5.187.263.238.284.307.25.352.2.51.001.333-.194.488-.134.364-.28.36-.16.443-.044.343.277.94.37.436.688.365.853.106.505.072.952-.213.652-.35.543-.426.265-.298.272-.547-.12-.734-.41-.598-.482-.303-.533-.254-.465-.536-.3-.67-.1-.605.07-.615.186-.465.415-.395"/><path d="M39.846 221.035l-.326.37-.1.32-.08.388-.023.413.108.532.183.293.44.346.32.263.445.197.385.32.228.283.277.94-.083.538-.4.61-.69.45-.402.275-1.36.304"/><use xlink:href="#n" x="-2.033" y="-3.358"/><use xlink:href="#j" x="5.123" y="14.247"/><path d="M21.533 233.717l.937-.26.44.055.5.15.278.22.303.287.272.335.234.5.026.335-.157.505-.107.375-.252.382-.448.384-.177.454.145.7.44.488.498.406.803.2.878.082.58-.01.863-.258.53-.223m6.87-9.427l.2-.06.215-.085.237-.092.42-.13.467-.068.44.055.5.15.278.22.303.287.272.335.234.5.026.335-.157.505-.107.375-.252.382-.126.457-.02.348.342.922.398.4.707.315.852.042.505.035.928-.286.606-.228.56-.747.044-.546-.342-.922-.246-.267-.404-.294-.455-.164-.335-.24-.46-.314-.202-.28-.146-.526-.007-.417.05-.396.075-.328.297-.395.312-.286.416-.204.37-.133"/><path d="M31.328 234.17l-.408.092-.312.088-.38.104-.433.17-.334.26-.326.37-.1.32-.08.388-.023.413.1.532.183.293.44.346.32.263.445.197.385.32.228.283.277.94-.083.538-.4.6-.7.45-.958.405-1.4.215-.476.007-.518-.22-.413-.45-.307-.463.02-.618.23-1.084.077-.62-.4-.646-.63-.594-.476-.2-1.5.094m12.45-8.15l-.173.065-.216.08-.296.13-.36.154-.404.23-.295.304-.273.412-.056.332-.027.398.03.415.177.516.218.268.48.286.348.22.463.137.42.27.262.25.396.9-.01.548-.314.66-.62.542-.36.33-.9.34-.4.146m-3.096 13.223l1.34-.384.385-.3.66-.5.364-.63.05-.542-.332-.92-.245-.27-.403-.298-.456-.17-.334-.243-.46-.32-.2-.28-.14-.524v-.414l.056-.392.08-.324.304-.388.318-.28.304-.28.266-.157.217-.08.24-.087.424-.12.47-.06.44.062.5.158.277.222.3.3.27.337.23.5.022.333-.165.5-.113.37-.26.376-.133.452-.023.345.332.92.395.414.708.324.858.055.508.042 1.34-.384m-14.058-2.937l1.383-.3.44.062.5.158.277.222.302.3.27.337.23.5.022.333-.165.5-.113.37-.26.376-.457.374-.184.45.137.687.436.5.496.4.806.202.883.096h.583l.873-.243.535-.214"/><path d="M37.69 232.575l-.402.116-.306.107-.373.126-.422.196-.318.28-.304.388-.08.324-.056.392v.414l.14.524.2.28.46.32.334.243.456.17.403.298.245.27.332.92-.05.542-.364.63-.66.49-.385.3-1.34.384"/><use xlink:href="#o"/><use xlink:href="#p"/><use xlink:href="#o" x="1.294" y="3.719"/><use xlink:href="#p" x="-7.191" y="2.101"/><path d="M23.714 240.365l1.068.065.543.1.643.244.624.535.4.504.028.34-.163.507-.1.377-.262.38-.13.46-.018.353.362.948.418.43.742.345.893.073.53.053 1.387-.367m5.874-12.858l.2-.058.217-.08.24-.087.424-.122.47-.06.44.062.5.158.277.222.302.3.27.337.23.5.022.333-.165.5-.113.37-.26.376-.133.452-.023.345.332.92.395.414.708.324.858.055.508.042.938-.27.63-.4.517-.457.247-.313.24-.562-.163-.725-.444-.573-.5-.274-.547-.222-.496-.507-.33-.652-.126-.6.035-.618.158-.475.572-.488"/><use xlink:href="#o" x="8.316" y="1.578"/><path d="M27.655 248.616l.46-.1.44.024.507.116.292.2.322.265.294.315.268.482.05.332-.122.515-.08.382-.224.4-.42.415-.145.466.193.678.472.456.524.37.813.134.88.02.577-.05.842-.318.51-.26"/><use xlink:href="#p" x="1.373" y="3.726"/><path d="M45.884 238.23l-.298.3-.276.408-.058.33-.028.395.03.413.176.513.22.267.48.287.35.22.466.138.423.27.263.25.395.894-.013.544-.32.655-.625.536-.363.325-1.3.477m-7.08-4.7l.2-.058.217-.08.24-.087.424-.12.47-.06.44.062.5.157.277.222.3.3.27.337.23.5.022.333-.165.5-.113.37-.26.376-.133.452-.023.345.332.92.395.414.708.324.858.055.508.042 1.34-.384"/><path d="M44.503 234.698l-.318.28-.304.388-.08.324-.056.392.001.414.14.524.2.28.46.32.334.243.456.17.403.298.245.27.332.92-.05.542-.364.63-.66.5-.385.3-1.34.384m-1.742 1.446l-.167.08-.2.098-.284.154-.347.183-.384.26-.27.327-.238.433-.03.335.005.4.065.412.217.5.24.25.5.247.364.2.472.1.44.235.28.23.466.866.033.548-.26.685-.573.6-.33.357-1.254.6m-8.56 3.094l1.292-.5.356-.333.612-.55.307-.665.006-.548-.405-.897-.264-.25-.423-.265-.464-.132-.35-.216-.48-.282-.22-.266-.182-.515-.036-.415.023-.4.052-.332.268-.416.3-.308.277-.306.25-.18.208-.1.23-.108.4-.158.46-.1.44.024.508.116.292.2.322.265.294.315.268.482.05.332-.122.515-.08.382-.224.4-.094.465.006.35.405.897.425.382.727.265.852-.018h.506l1.292-.5m.66-7.34l.188-.1.2-.114.22-.124.397-.186.452-.132.442-.006.514.08.305.178.34.242.316.294.3.462.072.328-.085.523-.054.387-.196.414-.06.47.03.348.466.866.45.35.743.214.85-.077.504-.036.878-.413.567-.3.45-.82-.033-.547-.242-.45-.225-.417-.28-.23-.44-.235-.473-.1-.364-.2-.5-.247-.24-.25-.217-.5-.065-.412-.005-.4.03-.335.238-.433.27-.327.384-.26.347-.183m-.004 13.014l-.174.066-.217.082-.297.13-.362.156-.405.23-.295.304-.27.412-.054.33-.024.396.034.413.18.512.222.265.484.282.352.216.467.133.426.265.265.248.405.892-.008.545-.312.66-.62.543-.36.33-1.303.5"/><path d="M38.477 264.825l1.303-.5.36-.33.62-.543.312-.66.008-.545-.405-.892-.265-.248-.426-.265-.467-.133-.352-.216-.484-.282-.222-.265-.18-.512-.034-.413.024-.396.054-.33.27-.412.295-.304.28-.302.252-.18.2-.098.23-.106.413-.155.464-.098.444.026.5.117.293.2.324.265.295.314.268.48.048.33-.124.5-.082.38-.227.395-.096.462.005.347.405.892.427.38.73.266.858-.014h.5l1.303-.5m-13.93-1.97l1.056-.213.444.026.5.117.293.2.324.265.295.314.268.48.048.33-.124.5-.082.38-.227.396-.425.4-.148.462.192.674.474.455.527.37.82.137.887.024.58-.048.85-.312.516-.256m4.147-17.35l-.4.148-.297.13-.362.156-.405.23-.294.304-.27.412-.054.33-.024.396.034.413.18.512.222.265.484.282.352.216.467.133.426.265.265.248.405.892-.008.545-.312.66-.62.543-.36.33-1.303.5"/><path d="M35.97 249.97l.195-.074.2-.098.232-.106.413-.156.464-.098.444.026.51.117.294.2.323.265.295.314.268.48.048.33-.124.51-.082.38-.227.396-.096.462.005.347.405.892.427.38.73.266.858-.014.51.001 1.303-.49"/><path d="M36.92 249.574l-.174.066-.217.082-.297.13-.362.156-.405.23-.295.304-.27.412-.054.33-.024.396.034.413.18.512.222.265.484.282.352.216.467.133.426.265.265.248.405.892-.008.544-.312.66-.62.543-.9.535-1.355.408-.47.073-.542-.144-.47-.4-.368-.416-.066-.615.077-1.106-.01-.625-.485-.585-.705-.5-.497-.12-.795.074m15.357-2.736l-.174.066-.217.082-.297.13-.362.156-.405.23-.294.304-.27.412-.054.33-.024.396.034.413.18.512.222.265.484.282.352.216.467.133.426.265.265.248.405.892-.008.544-.312.66-.62.543-.36.33-1.303.5"/><path d="M37.556 253.577l.195-.074.2-.098.232-.106.413-.156.464-.098.444.026.51.117.293.2.323.265.295.314.268.48.048.33-.124.51-.082.38-.227.396-.096.462.005.347.405.892.427.38.73.266.858-.014.51.001 1.303-.49"/><path d="M38.506 253.18l-.174.066-.217.082-.297.13-.362.156-.405.23-.295.304-.27.412-.054.33-.024.396.034.413.18.512.222.265.484.282.352.216.467.133.426.265.265.248.405.892-.008.544-.312.66-.62.543-.36.33-1.303.49"/><path d="M31.07 255.72l1.167.1.66.192.664.484.448.47.055.338-.122.52-.08.385-.23.4-.093.47.01.353.436.917.45.396.766.285h.895l.53.01 1.35-.477m14.26-8.184l-.27.412-.054.33-.024.396.034.413.18.512.222.265.484.282.352.216.467.133c.784.408 1.1 1.138 1.088 1.95l-.312.66-.62.543-.36.33-1.303.5"/><path d="M46.043 254.484l.195-.074.2-.098.232-.106.413-.155.464-.098.444.026.5.117.294.2.324.265.295.314.268.48.048.33-.124.5-.082.38-.227.396-.096.462.005.347.405.892.427.38.73.266.858-.014.5.001 1.303-.5M42.792 247.27l.195-.074.2-.098.232-.106.413-.156.464-.098.444.026.5.117.294.2.324.265.295.314.268.48.048.33-.124.5-.082.38-.227.395-.096.462.005.347.405.892.427.38.73.266.858-.014.5.001.912-.344.596-.44.478-.498.22-.332c.238-.74-.084-1.352-.515-1.826l-.52-.234-.563-.178-.534-.466-.38-.624-.173-.588-.015-.62.12-.486.356-.45"/><path d="M50.57 248.775l-.27.412-.054.33-.024.396.034.413.18.512.222.265.484.282.352.216.467.133c.63 1.205 1.237 1.634.776 2.61l-.62.543-.36.33-1.303.49"/><path d="M44.377 250.877l.195-.074.2-.098.232-.106.413-.156.464-.098.444.026.5.117.293.2.324.265.295.314.268.48.048.33-.124.5-.082.38-.227.395-.096.462.005.347.405.892.427.38.73.266.858-.014.5.001 1.303-.5M13.245 3.467a21.38 21.38 0 0 0-5.97 1.559c-2.32.98-4.462 2.378-6.297 4.104m54.57 247.907a21.38 21.38 0 0 0 5.97-1.559c2.32-.982 4.462-2.378 6.297-4.103"/></g><path d="M19.82 21.146L20 8.276l10.486.146-.18 12.87zm14.064 227.778l8.23-4.194L47 254.317l-8.23 4.194z"/></g><defs ><path id="B" d="M27.807 1.842l-.19.02-.24.025-.332.05-.404.06-.47.118-.39.215-.403.322-.164.298-.157.367-.106.397.003.527.126.303.375.383.27.29.41.24.324.353.174.3.09.94-.19.51-.525.545-.784.36-.46.223-1.432.145"/><path id="C" d="M20.113 2.66l-.19.02-.24.025-.332.05-.404.06-.47.118-.39.215-.403.322-.164.298-.157.367-.106.397.003.527.126.303.375.383.27.29.41.24.324.353.174.3.092.94-.19.51-.525.545-.784.36-.46.223-1.432.146"/><path id="D" d="M20.554 28.45l.216.01.24-.006.264-.006.455.02.476.09.4.193.417.3.178.288.174.358.125.39.022.526-.11.3-.356.404-.255.303-.397.262-.307.37-.16.308-.047.943.215.5.55.515.8.316.47.196 1.438.065"/><path id="E" d="M15.87 46.355l.432.001 1.007.003.48-.173.818-.277.58-.487.244-.49.003-.49.003-.454-.14-.315-.285-.385-.382-.28-.237-.316-.333-.42-.093-.315.052-.524.147-.384.195-.35.194-.28.434-.278.41-.173.395-.177.315-.075.24-.017.264-.017.456.001.48.07.406.176.43.28.19.28.19.35.14.385.044.524-.098.314-.34.418-.242.314-.386.28-.29.384-.146.314-.006.944.236.5.572.49.813.282.478.176 1.44.004"/><path id="F" d="M27.48 39.628h.216l.24-.017.264-.017.456.001.48.07.406.176.43.28.19.28.19.35.14.385.044.524-.098.314-.34.418-.242.314-.386.28-.29.384-.146.314-.006.944.236.5.572.49.813.282.478.176 1.007.003.673-.036.82-.525.244-.49.003-.49.003-.454-.14-.315-.285-.385-.382-.28-.237-.316-.333-.42-.093-.315.052-.524.147-.384.195-.35.194-.28.434-.278.41-.173.48-.068.408-.016"/><path id="G" d="M28.217 51.27l-.43-.033-.336-.008-.408-.014-.484.033-.42.143-.453.245-.214.264-.22.334-.175.372-.1.52.07.32.3.444.213.332.36.308.256.405.118.325-.037.453-.04.488-.28.47-.614.444-.836.216-.492.138-1.435-.1"/><path id="H" d="M14.94 56.988l1.435.1.492-.138.836-.216.614-.444.28-.47.076-.94-.118-.325-.256-.405-.36-.308-.213-.332-.3-.444-.07-.32.1-.52.175-.372.22-.334.214-.264.453-.245.42-.143.407-.147.32-.05.24.001.264.003.454.035.473.106.392.205.408.312.168.294.163.363.112.394.006.526-.12.306-.37.392-.265.295-.405.25-.318.36-.17.303-.076.94.2.506.534.532.8.34.464.21 1.435.1"/><path id="I" d="M20.07 43.067l.215.016.24.001.264.003.454.035.473.106.392.205.408.312.168.294.163.363.112.394.006.526-.12.306-.37.392-.265.295-.405.25-.318.36-.17.303-.076.94.2.506.534.532.8.34.464.21 1.435.1"/><path id="J" d="M28.5 47.454l-.19-.015-.24-.018-.336-.008-.408-.014-.484.033-.42.143-.453.245-.214.264-.22.334-.175.372-.1.52.07.32.3.444.213.332.36.308.256.405.118.325-.076.94-.28.47-.614.444-.836.216-.492.138-1.435-.1"/><path id="K" d="M26.932 65.96l-.43-.033-.336-.008-.408-.014-.484.033-.42.143-.453.245-.214.264-.22.334-.175.372-.1.52.07.32.3.444.213.332.36.308.256.405.118.325-.076.94-.28.47-.614.444-.836.216-.492.138-1.435-.1"/><path id="L" d="M26.788 73.177l-.19-.013-.24-.016-.336-.005-.408-.01-.484.038-.42.147-.45.25-.21.266-.216.336-.17.374-.085.52.073.32.306.44.217.33.363.304.26.402.12.323-.066.94-.274.472-.61.45-.833.225-.49.143-1.436-.096"/><path id="M" d="M25.52 84.656h-.192l-.24.001-.336.018-.408.018-.48.07-.408.175-.433.28-.193.28-.193.35-.145.385-.05.524.095.314.335.42.24.314.383.28.287.384.143.314-.002.944-.24.5-.577.5-.816.28-.48.176-1.007.001-.432.001"/><path id="N" d="M25.105 96.248l-.43-.03-.336-.006-.408-.012-.484.035-.42.145-.452.248-.213.265-.218.335-.173.373-.087.52.072.32.303.442.215.33.36.306.258.404.12.324-.07.94-.276.47-.61.447-.835.22-.492.14-1.435-.103"/><path id="O" d="M11.858 102.037l1.435.103.492-.14.835-.22.61-.447.276-.47.07-.94-.12-.324-.258-.404-.362-.306-.215-.33-.303-.442-.072-.32.087-.52.173-.373.218-.335.213-.265.452-.248.42-.145.406-.15.32-.053h.24l.264.001.454.033.473.104.393.203.41.3.17.293.165.362.114.394.008.526-.12.307-.367.394-.263.297-.404.252-.316.363-.167.303-.07.94.202.505.537.53.792.337.465.21 1.435.103"/><path id="P" d="M16.582 91.873l.215.015h.24l.264.001.455.032.473.104.393.203.41.3.17.293.165.362.114.394.008.526-.12.307-.367.394-.263.297-.404.252-.316.363-.167.303-.07.94.202.505.537.53.792.337.465.21 1.435.103"/><path id="Q" d="M31.023 96.66l-.42.145-.452.248-.213.265-.218.335-.173.373-.088.52.072.32.303.442.215.33.362.306.258.404.12.324-.07.94-.276.47-.61.447-.835.22-.492.14-1.435-.103"/><path id="R" d="M15 117.698l.215.013.24-.003.264-.001.455.028.474.1.396.2.413.305.173.29.17.36.12.392.014.526-.116.308-.363.398-.26.3-.4.256-.312.366-.164.305-.06.942.207.503.543.523.796.33.467.204 1.436.088"/><path id="S" d="M22.8 127.655l-.43.04-.333.05-.404.056-.47.115-.4.212-.405.32-.166.297-.16.366-.11.397v.527l.124.304.372.386.267.29.407.242.32.356.17.3.085.94-.195.5-.53.542-.787.355-.462.22-1.433.135"/><path id="T" d="M23.457 139.235l-.432.01-.335.025-.407.026-.478.08-.405.183-.427.288-.187.284-.186.354-.137.387-.04.525.1.313.343.412.244.3.388.272.294.378.15.312.008.454.008.49-.232.494-.567.5-.81.297-.477.185-1.007.02-.432.01"/><path id="U" d="M14.55 131.868l.216-.005.24-.022.263-.023.456-.01.48.06.41.166.436.27.196.276.197.346.15.38.057.523-.1.317-.33.426-.235.32-.38.288-.28.39-.14.318.008.454.008.49.248.484.584.477.82.262.482.165 1.44-.03"/><path id="V" d="M23.365 135.41l-.432.01-.335.025-.407.026-.478.08-.405.183-.427.288-.187.284-.186.354-.138.387-.04.525.1.313.343.412.245.3.388.272.294.378.15.312.008.454.008.49-.232.494-.567.5-.81.297-.477.185-1.007.02-.432.01"/><path id="W" d="M29.388 139.1l-.405.183-.427.288-.187.284-.186.354-.138.387-.04.525.1.313.343.412.244.3.388.272.294.378.15.312.008.454.008.49-.232.494-.567.5-.81.297-.477.185-1.007.02-.432.01"/><path id="X" d="M22.15 135.4l.216-.005.24-.022.263-.023.456-.01.48.06.41.166.436.27.196.276.198.345.15.38.057.523-.1.317-.33.426-.235.32-.38.288-.28.39-.14.318.008.454.008.49.248.484.584.477.82.262.482.165 1.44-.03"/><path id="Y" d="M24.173 161.18l-.192.006-.24.008-.335.028-.407.03-.478.085-.403.188-.424.293-.184.286-.182.355-.133.39-.034.526.104.312.347.408.248.307.39.267.298.375.152.3.026.943-.226.497-.562.507-.807.305-.475.2-1.438.045"/><path id="Z" d="M15.377 161.527l.216-.007.24-.025.263-.026.455-.014.48.055.412.162.44.266.2.274.2.343.154.38.062.523-.087.318-.324.43-.23.322-.376.292-.277.393-.135.32.026.943.253.482.59.47.823.254.484.16 1.438-.045"/><path id="a" d="M23.49 171.615l-.185.05-.232.062-.32.104-.39.122-.446.192-.35.274-.346.382-.114.32-.096.388-.04.41.087.52.173.28.43.318.31.243.442.17.376.297.22.267.24.913-.107.535-.43.622-.716.482-.42.293-1.4.373"/><path id="b" d="M26.068 182.924l-.188.036-.236.045-.327.08-.397.094-.458.158-.37.248-.373.356-.137.31-.124.38-.07.405.05.524.152.29.407.35.293.265.428.203.353.324.2.282.173.928-.146.526-.476.59-.75.428-.44.262-1.413.27"/><path id="c" d="M14.754 191.925l1.413-.27.44-.262.75-.428.476-.59.146-.526-.173-.928-.2-.282-.353-.324-.428-.203-.293-.265-.407-.35-.152-.29-.05-.524.07-.405.124-.38.137-.31.373-.356.37-.248.354-.25.295-.133.232-.062.256-.067.448-.085.484-.02.432.095.475.194.24.24.253.308.212.35.143.506-.036.327-.253.475-.178.354-.325.347-.212.432-.084.336.173.928.325.436.655.373.852.122.503.082 1.414-.27"/><path id="d" d="M16.056 177.145l.212-.04.232-.062.256-.067.448-.086.484-.02.432.095.475.194.24.24.252.308.212.35.143.506-.036.327-.253.475-.178.354-.325.347-.212.432-.084.336.173.928.325.436.655.373.852.122.503.082 1.414-.27"/><path id="e" d="M25.34 179.17l-.188.036-.236.045-.327.08-.397.094-.458.158-.37.248-.373.356-.137.31-.124.38-.07.405.05.524.152.29.407.35.293.265.428.203.353.324.2.282.173.928-.146.526-.476.59-.75.428-.44.262-1.414.27"/><path id="f" d="M17.746 180.654l-.188.036-.236.045-.327.08-.397.094-.458.158-.37.248-.373.356-.137.31-.125.38-.07.405.05.524.152.29.407.35.293.264.428.203.353.324.2.282.173.928-.146.526-.476.59-.75.428-.44.262-1.414.27"/><path id="g" d="M31.893 181.8l-.37.248-.373.356-.137.31-.125.38-.07.405.05.524.152.29.407.35.293.265.428.203.353.324.2.282.173.928-.146.526-.476.59-.75.428-.44.262-1.413.27"/><path id="h" d="M24.866 183.106l.212-.04.232-.062.256-.067.448-.085.484-.02.432.095.475.194.24.24.253.308.212.35.143.506-.036.327-.253.475-.178.354-.325.347-.212.432-.084.336.173.928.325.436.655.373.852.122.503.082 1.413-.27"/><path id="i" d="M31.122 208.177l-.188.038-.235.048-.326.084-.396.098-.457.163-.366.252-.37.36-.134.312-.12.38-.067.406.055.524.155.3.4.345.296.26.43.198.357.32.202.28.183.926-.14.528-.47.594-.745.436-.436.266-1.41.285"/><path id="j" d="M22.557 224.595l1.325-.408.378-.307.65-.505.353-.64.044-.546-.342-.922-.246-.267-.404-.294-.455-.164-.334-.24-.46-.314-.202-.28-.146-.526-.007-.416.05-.396.076-.328.297-.396.312-.286.298-.286.262-.163.215-.085.237-.092.42-.13.467-.068.44.055.5.15.278.22.303.287.272.335.234.5.026.335-.157.505-.107.375-.252.382-.126.457-.02.348.342.922.398.4.707.315.852.042.505.035 1.325-.408"/><path id="k" d="M36.6 225.397l-.18.04-.227.05-.312.088-.38.104-.433.17-.334.26-.326.37-.1.32-.08.388-.023.413.11.532.183.293.44.346.32.263.445.197.385.32.228.283.277.94-.083.538-.4.61-.69.45-.402.275-1.36.304"/><path id="l" d="M33.506 218.252l-.18.04-.227.05-.312.088-.38.103-.433.17-.334.26-.326.37-.1.32-.08.388-.023.413.11.532.183.293.44.346.32.263.445.197.385.32.228.283.277.94-.083.538-.4.61-.69.45-.402.275-1.36.304"/><path id="m" d="M25.207 220.183l.204-.046.222-.068.244-.073.43-.096.474-.032.437.088.5.187.263.238.284.307.25.352.2.51.001.333-.194.488-.134.364-.28.36-.16.443-.044.343.134.452.144.487.37.436.688.365.853.106.505.072 1.36-.304"/><path id="n" d="M35.448 225.608l.204-.046.222-.068.244-.073.43-.096.474-.032.437.088.5.187.263.238.284.307.25.352.2.51.001.333-.194.488-.134.364-.28.36-.16.443-.044.343.277.94.37.436.688.365.853.106.505.072 1.36-.304"/><path id="o" d="M29.52 234.995l.2-.058.217-.08.24-.087.424-.122.47-.06.44.062.5.158.277.222.3.3.27.337.23.5.022.333-.165.5-.113.37-.26.376-.133.452-.023.345.332.92.395.414.708.324.858.055.508.042 1.34-.384"/><path id="p" d="M38.984 236.294l-.18.05-.223.064-.306.107-.373.126-.422.196-.318.28-.304.388-.08.324-.056.392.001.414.14.524.2.28.46.32.334.243.456.17.403.298.245.27.332.92-.05.542-.364.63-.66.49-.385.3-1.34.384"/></defs></svg>