<?xml version='1.0' encoding='UTF-8' standalone='no'?>
<!-- Created with Inkscape (http://www.inkscape.org/) -->
<svg xmlns="http://www.w3.org/2000/svg"  height="59.400002" gorn="0" id="svg2" width="158.40001" version="1.1">
    <desc >
        <referenceFile >bluetooth_mate_pcb.svg</referenceFile>
    </desc>
    <defs  id="defs4">
        <style  id="style2991" type="text/css">
path.l1 {stroke:#c83232; fill:#c83232; fill-opacity:1; }
line.l1 {stroke:#c83232; fill:none; }
circle.l1 {stroke:#c83232; fill:none; }
circle.j1 {fill:#c83232; }
rect.l1 {fill:#c83232; }
text.l1 {font-family:Droid Sans; fill:#c83232; }
polygon.l1 {fill:#c83232; }
path.l18 {stroke:#32c832; fill:#32c832; fill-opacity:1; }
line.l18 {stroke:#32c832; fill:none; }
circle.l18 {stroke:#32c832; fill:none; }
circle.j18 {fill:#32c832; }
rect.l18 {fill:#32c832; }
text.l18 {font-family:Droid Sans; fill:#32c832; }
polygon.l18 {fill:#32c832; }
path.l20 {stroke:#c8c832; fill:#c8c832; fill-opacity:1; }
line.l20 {stroke:#c8c832; fill:none; }
circle.l20 {stroke:#c8c832; fill:none; }
circle.j20 {fill:#c8c832; }
rect.l20 {fill:#c8c832; }
text.l20 {font-family:Droid Sans; fill:#c8c832; }
polygon.l20 {fill:#c8c832; }
circle.j0 {fill:#ffffff; }
</style>
        <style  id="style3935" type="text/css">
path.l20 {stroke:#c8c832; fill:#c8c832; fill-opacity:1; }
line.l20 {stroke:#c8c832; fill:none; }
circle.l20 {stroke:#c8c832; fill:none; }
circle.j20 {fill:#c8c832; }
rect.l20 {fill:#c8c832; }
text.l20 {font-family:Droid Sans; fill:#c8c832; }
polygon.l20 {fill:#c8c832; }
path.l21 {stroke:#ffffff; fill:#ffffff; fill-opacity:1; }
line.l21 {stroke:#ffffff; fill:none; }
circle.l21 {stroke:#ffffff; fill:none; }
circle.j21 {fill:#ffffff; }
rect.l21 {fill:#ffffff; }
text.l21 {font-family:Droid Sans; fill:#ffffff; }
polygon.l21 {fill:#ffffff; }
circle.j0 {fill:#ffffff; }
</style>
        <style  id="style14048" type="text/css">
path.l17 {stroke:#32c832; fill:#32c832; fill-opacity:1; }
line.l17 {stroke:#32c832; fill:none; }
circle.l17 {stroke:#32c832; fill:none; }
circle.j17 {fill:#32c832; }
rect.l17 {fill:#32c832; }
text.l17 {font-family:Droid Sans; fill:#32c832; }
polygon.l17 {fill:#32c832; }
path.l20 {stroke:#c8c832; fill:#c8c832; fill-opacity:1; }
line.l20 {stroke:#c8c832; fill:none; }
circle.l20 {stroke:#c8c832; fill:none; }
circle.j20 {fill:#c8c832; }
rect.l20 {fill:#c8c832; }
text.l20 {font-family:Droid Sans; fill:#c8c832; }
polygon.l20 {fill:#c8c832; }
circle.j0 {fill:#ffffff; }
</style>
    </defs>
    <metadata  id="metadata7">
        <rdf:RDF xmlns:rdf="http://www.w3.org/1999/02/22-rdf-syntax-ns#">
            <cc:Work rdf:about="" xmlns:rdf="http://www.w3.org/1999/02/22-rdf-syntax-ns#" xmlns:cc="http://creativecommons.org/ns#">
                <dc:format xmlns:dc="http://purl.org/dc/elements/1.1/">image/svg+xml</dc:format>
                <dc:type rdf:resource="http://purl.org/dc/dcmitype/StillImage" xmlns:rdf="http://www.w3.org/1999/02/22-rdf-syntax-ns#" xmlns:dc="http://purl.org/dc/elements/1.1/"/>
                <dc:title xmlns:dc="http://purl.org/dc/elements/1.1/"/>
            </cc:Work>
        </rdf:RDF>
    </metadata>
    <g  transform="translate(-584.55,-1295.55)">
        <g >
            <g  gorn="0.3.0.0" id="layer3" style="display:inline">
                <g  gorn="0.3.0.0.0" id="silkscreen">
                    <g  gorn="0.3.0.0.0.0" id="g5531">
                        <g  transform="matrix(3.5433071,0,0,3.5433071,585,1354.5)">
                            <g >
                                <g  gorn="0.3.0.0.0.0.0.0.0" id="surface0">
                                    <path d="m 34.176091,-1.143487 -0.1144,-0.114397 m 0,0 -0.228794,0 m 0,0 -0.114397,0.114397 m 0,0 0,0.114396 m 0,0 0.114397,0.1144 m 0,0 0.228794,0 m 0,0 0.1144,0.114397 m 0,0 0,0.114397 m 0,0 -0.1144,0.114397 m 0,0 -0.228794,0 m 0,0 -0.114397,-0.114397 m 0.862813,-0.45759 0,0.45759 m 0,0 0.114396,0.114397 m -0.228793,-0.457591 0.228793,0 m 0.384547,0 0.228794,0 m 0,0 0.1144,0.1144 m 0,0 0,0.343191 m 0,0 -0.343194,0 m 0,0 -0.114397,-0.114397 m 0,0 0.114397,-0.114397 m 0,0 0.343194,0 m 0.405222,-0.343193 0,0.45759 m 0,0 0.114397,0.114397 m -0.228794,-0.457591 0.228794,0"  stroke-width="0.127" gorn="0.3.0.0.0.0.0.0.0.0" fill-opacity="1" fill="#ffffff" id="path3938" style="stroke-linecap:round" stroke="#ffffff" class="l21"/>
                                    <path d="m 33.541091,-15.875488 -0.1144,-0.114396 m 0,0 -0.228794,0 m 0,0 -0.114397,0.114396 m 0,0 0,0.457591 m 0,0 0.114397,0.114397 m 0,0 0.228794,0 m 0,0 0.1144,-0.114397 m 0.405222,0.114397 0.228793,0 m 0,0 0.1144,-0.114397 m 0,0 0,-0.228794 m 0,0 -0.1144,-0.1144 m 0,0 -0.228793,0 m 0,0 -0.114397,0.1144 m 0,0 0,0.228794 m 0,0 0.114397,0.114397 m 0.634018,0 0,-0.457591 m 0,0 0.343191,0 m 0,0 0.1144,0.1144 m 0,0 0,0.343191 m 0.290825,0 0,-0.457591 m 0,0 0.34319,0 m 0,0 0.114401,0.1144 m 0,0 0,0.343191 m 0.634015,0 -0.228794,0 m 0,0 -0.114396,-0.114397 m 0,0 0,-0.228794 m 0,0 0.114396,-0.1144 m 0,0 0.228794,0 m 0,0 0.1144,0.1144 m 0,0 0,0.114397 m 0,0 -0.45759,0 m 1.206006,-0.228797 -0.343194,0 m 0,0 -0.114397,0.1144 m 0,0 0,0.228794 m 0,0 0.114397,0.114397 m 0,0 0.343194,0 m 0.405222,-0.571988 0,0.457591 m 0,0 0.114397,0.114397 m -0.228794,-0.457591 0.228794,0"  stroke-width="0.127" gorn="0.3.0.0.0.0.0.0.0.1" fill-opacity="1" fill="#ffffff" id="path3940" style="stroke-linecap:round" stroke="#ffffff" class="l21"/>
                                    <line  stroke-width="0.25400001" gorn="0.3.0.0.0.0.0.0.0.2" fill="none" id="line3942" stroke-opacity="1" style="stroke-linecap:round;" y1="0" y2="-16.51" x1="0" stroke="#ffffff" x2="0" class="l20"/>
                                    <line  stroke-width="0.25400001" gorn="0.3.0.0.0.0.0.0.0.3" fill="none" id="line3944" stroke-opacity="1" style="stroke-linecap:round;" y1="-16.51" y2="-16.51" x1="0" stroke="#ffffff" x2="44.450001" class="l20"/>
                                    <line  stroke-width="0.25400001" gorn="0.3.0.0.0.0.0.0.0.4" fill="none" id="line3946" stroke-opacity="1" style="stroke-linecap:round;" y1="-16.51" y2="0" x1="44.450001" stroke="#ffffff" x2="44.450001" class="l20"/>
                                    <line  stroke-width="0.25400001" gorn="0.3.0.0.0.0.0.0.0.5" fill="none" id="line3948" stroke-opacity="1" style="stroke-linecap:round;" y1="0" y2="0" x1="44.450001" stroke="#ffffff" x2="0" class="l20"/>
                                    <g  gorn="0.3.0.0.0.0.0.0.0.6" id="g3950">
                                        <title  id="title3952">PART C1</title>
                                        <line  stroke-width="0.2032" gorn="0.3.0.0.0.0.0.0.0.6.1" fill="none" id="line3954" style="stroke-linecap:round" y1="-10.23" y2="-10.23" x1="29.48" stroke="#ffffff" x2="27.98" class="l21"/>
                                        <line  stroke-width="0.2032" gorn="0.3.0.0.0.0.0.0.0.6.2" fill="none" id="line3956" style="stroke-linecap:round" y1="-10.23" y2="-12.63" x1="27.98" stroke="#ffffff" x2="27.98" class="l21"/>
                                        <line  stroke-width="0.2032" gorn="0.3.0.0.0.0.0.0.0.6.3" fill="none" id="line3958" style="stroke-linecap:round" y1="-12.63" y2="-12.63" x1="27.98" stroke="#ffffff" x2="29.48" class="l21"/>
                                        <line  stroke-width="0.2032" gorn="0.3.0.0.0.0.0.0.0.6.4" fill="none" id="line3960" style="stroke-linecap:round" y1="-10.23" y2="-10.23" x1="31.48" stroke="#ffffff" x2="32.580002" class="l21"/>
                                        <line  stroke-width="0.2032" gorn="0.3.0.0.0.0.0.0.0.6.5" fill="none" id="line3962" style="stroke-linecap:round" y1="-10.23" y2="-10.63" x1="32.580002" stroke="#ffffff" x2="32.98" class="l21"/>
                                        <line  stroke-width="0.2032" gorn="0.3.0.0.0.0.0.0.0.6.6" fill="none" id="line3964" style="stroke-linecap:round" y1="-10.63" y2="-12.23" x1="32.98" stroke="#ffffff" x2="32.98" class="l21"/>
                                        <line  stroke-width="0.2032" gorn="0.3.0.0.0.0.0.0.0.6.7" fill="none" id="line3966" style="stroke-linecap:round" y1="-12.23" y2="-12.63" x1="32.98" stroke="#ffffff" x2="32.580002" class="l21"/>
                                        <line  stroke-width="0.2032" gorn="0.3.0.0.0.0.0.0.0.6.8" fill="none" id="line3968" style="stroke-linecap:round" y1="-12.63" y2="-12.63" x1="32.580002" stroke="#ffffff" x2="31.48" class="l21"/>
                                    </g>
                                    <g  gorn="0.3.0.0.0.0.0.0.0.7" id="g3970">
                                        <title  id="title3972">PART C3</title>
                                        <line  stroke-width="0.2032" gorn="0.3.0.0.0.0.0.0.0.7.1" fill="none" id="line3974" style="stroke-linecap:round" y1="-0.70499998" y2="-0.70499998" x1="29.48" stroke="#ffffff" x2="27.98" class="l21"/>
                                        <line  stroke-width="0.2032" gorn="0.3.0.0.0.0.0.0.0.7.2" fill="none" id="line3976" style="stroke-linecap:round" y1="-0.70499998" y2="-3.105" x1="27.98" stroke="#ffffff" x2="27.98" class="l21"/>
                                        <line  stroke-width="0.2032" gorn="0.3.0.0.0.0.0.0.0.7.3" fill="none" id="line3978" style="stroke-linecap:round" y1="-3.105" y2="-3.105" x1="27.98" stroke="#ffffff" x2="29.48" class="l21"/>
                                        <line  stroke-width="0.2032" gorn="0.3.0.0.0.0.0.0.0.7.4" fill="none" id="line3980" style="stroke-linecap:round" y1="-0.70499998" y2="-0.70499998" x1="31.48" stroke="#ffffff" x2="32.580002" class="l21"/>
                                        <line  stroke-width="0.2032" gorn="0.3.0.0.0.0.0.0.0.7.5" fill="none" id="line3982" style="stroke-linecap:round" y1="-0.70499998" y2="-1.105" x1="32.580002" stroke="#ffffff" x2="32.98" class="l21"/>
                                        <line  stroke-width="0.2032" gorn="0.3.0.0.0.0.0.0.0.7.6" fill="none" id="line3984" style="stroke-linecap:round" y1="-1.105" y2="-2.7049999" x1="32.98" stroke="#ffffff" x2="32.98" class="l21"/>
                                        <line  stroke-width="0.2032" gorn="0.3.0.0.0.0.0.0.0.7.7" fill="none" id="line3986" style="stroke-linecap:round" y1="-2.7049999" y2="-3.105" x1="32.98" stroke="#ffffff" x2="32.580002" class="l21"/>
                                        <line  stroke-width="0.2032" gorn="0.3.0.0.0.0.0.0.0.7.8" fill="none" id="line3988" style="stroke-linecap:round" y1="-3.105" y2="-3.105" x1="32.580002" stroke="#ffffff" x2="31.48" class="l21"/>
                                    </g>
                                    <g  gorn="0.3.0.0.0.0.0.0.0.8" id="g3990">
                                        <title  id="title3992">PART C4</title>
                                        <line  stroke-width="0.55879998" gorn="0.3.0.0.0.0.0.0.0.8.1" fill="none" id="line3994" style="stroke-linecap:round" y1="-4.2874999" y2="-4.3484998" x1="30.48" stroke="#ffffff" x2="30.48" class="l21"/>
                                    </g>
                                    <g  gorn="0.3.0.0.0.0.0.0.0.9" id="g3996">
                                        <title  id="title3998">PART D1</title>
                                        <line  stroke-width="0.2032" gorn="0.3.0.0.0.0.0.0.0.9.1" fill="none" id="line4000" style="stroke-linecap:round" y1="-1.4450001" y2="-1.905" x1="34.967999" stroke="#ffffff" x2="34.967999" class="l21"/>
                                        <line  stroke-width="0.2032" gorn="0.3.0.0.0.0.0.0.0.9.2" fill="none" id="line4002" style="stroke-linecap:round" y1="-2.365" y2="-1.905" x1="34.967999" stroke="#ffffff" x2="34.967999" class="l21"/>
                                        <line  stroke-width="0.2032" gorn="0.3.0.0.0.0.0.0.0.9.3" fill="none" id="line4004" style="stroke-linecap:round" y1="-1.905" y2="-1.6712" x1="34.967999" stroke="#ffffff" x2="34.658001" class="l21"/>
                                        <line  stroke-width="0.2032" gorn="0.3.0.0.0.0.0.0.0.9.4" fill="none" id="line4006" style="stroke-linecap:round" y1="-1.9304" y2="-2.1234" x1="34.952599" stroke="#ffffff" x2="34.658001" class="l21"/>
                                    </g>
                                    <g  gorn="0.3.0.0.0.0.0.0.0.10" id="g4008">
                                        <title  id="title4010">PART D2</title>
                                        <line  stroke-width="0.2032" gorn="0.3.0.0.0.0.0.0.0.10.1" fill="none" id="line4012" style="stroke-linecap:round" y1="-14.145" y2="-14.605" x1="35.095001" stroke="#ffffff" x2="35.095001" class="l21"/>
                                        <line  stroke-width="0.2032" gorn="0.3.0.0.0.0.0.0.0.10.2" fill="none" id="line4014" style="stroke-linecap:round" y1="-15.065" y2="-14.605" x1="35.095001" stroke="#ffffff" x2="35.095001" class="l21"/>
                                        <line  stroke-width="0.2032" gorn="0.3.0.0.0.0.0.0.0.10.3" fill="none" id="line4016" style="stroke-linecap:round" y1="-14.605" y2="-14.3712" x1="35.095001" stroke="#ffffff" x2="34.785" class="l21"/>
                                        <line  stroke-width="0.2032" gorn="0.3.0.0.0.0.0.0.0.10.4" fill="none" id="line4018" style="stroke-linecap:round" y1="-14.6304" y2="-14.8234" x1="35.079601" stroke="#ffffff" x2="34.785" class="l21"/>
                                    </g>
                                    <g  gorn="0.3.0.0.0.0.0.0.0.11" id="g4020">
                                        <title  id="title4022">PART FRAME1</title>
                                    </g>
                                    <g  gorn="0.3.0.0.0.0.0.0.0.12" id="g4024">
                                        <title  id="title4026">PART JP1</title>
                                    </g>
                                    <g  gorn="0.3.0.0.0.0.0.0.0.13" id="g4028">
                                        <title  id="title4030">PART JP2</title>
                                    </g>
                                    <g  gorn="0.3.0.0.0.0.0.0.0.14" id="g4032">
                                        <title  id="title4034">PART JP3</title>
                                    </g>
                                    <g  gorn="0.3.0.0.0.0.0.0.0.15" id="g4036">
                                        <title  id="title4038">PART JP4</title>
                                    </g>
                                    <g  gorn="0.3.0.0.0.0.0.0.0.16" id="g4040">
                                        <title  id="title4042">PART LOGO1</title>
                                    </g>
                                    <g  gorn="0.3.0.0.0.0.0.0.0.17" id="g4044">
                                        <title  id="title4046">PART Q1</title>
                                        <line  stroke-width="0.2032" gorn="0.3.0.0.0.0.0.0.0.17.1" fill="none" id="line4048" style="stroke-linecap:round" y1="-6.9200001" y2="-6.9200001" x1="35.724998" stroke="#ffffff" x2="36.325001" class="l21"/>
                                        <line  stroke-width="0.2032" gorn="0.3.0.0.0.0.0.0.0.17.2" fill="none" id="line4050" style="stroke-linecap:round" y1="-6.9200001" y2="-7.7199998" x1="36.325001" stroke="#ffffff" x2="36.325001" class="l21"/>
                                        <line  stroke-width="0.2032" gorn="0.3.0.0.0.0.0.0.0.17.3" fill="none" id="line4052" style="stroke-linecap:round" y1="-6.9200001" y2="-6.9200001" x1="34.125" stroke="#ffffff" x2="33.525002" class="l21"/>
                                        <line  stroke-width="0.2032" gorn="0.3.0.0.0.0.0.0.0.17.4" fill="none" id="line4054" style="stroke-linecap:round" y1="-6.9200001" y2="-7.7199998" x1="33.525002" stroke="#ffffff" x2="33.525002" class="l21"/>
                                    </g>
                                    <g  gorn="0.3.0.0.0.0.0.0.0.18" id="g4056">
                                        <title  id="title4058">PART Q2</title>
                                        <line  stroke-width="0.2032" gorn="0.3.0.0.0.0.0.0.0.18.1" fill="none" id="line4060" style="stroke-linecap:round" y1="-6.9200001" y2="-6.9200001" x1="40.169998" stroke="#ffffff" x2="40.77" class="l21"/>
                                        <line  stroke-width="0.2032" gorn="0.3.0.0.0.0.0.0.0.18.2" fill="none" id="line4062" style="stroke-linecap:round" y1="-6.9200001" y2="-7.7199998" x1="40.77" stroke="#ffffff" x2="40.77" class="l21"/>
                                        <line  stroke-width="0.2032" gorn="0.3.0.0.0.0.0.0.0.18.3" fill="none" id="line4064" style="stroke-linecap:round" y1="-6.9200001" y2="-6.9200001" x1="38.57" stroke="#ffffff" x2="37.970001" class="l21"/>
                                        <line  stroke-width="0.2032" gorn="0.3.0.0.0.0.0.0.0.18.4" fill="none" id="line4066" style="stroke-linecap:round" y1="-6.9200001" y2="-7.7199998" x1="37.970001" stroke="#ffffff" x2="37.970001" class="l21"/>
                                    </g>
                                    <g  gorn="0.3.0.0.0.0.0.0.0.19" id="g4068">
                                        <title  id="title4070">PART R1</title>
                                        <rect  height="0.76200002" gorn="0.3.0.0.0.0.0.0.0.19.1" x="39.141399" y="-2.286" id="rect4072" style="fill:#ffffff" width="0.45719999" class="l21"/>
                                    </g>
                                    <g  gorn="0.3.0.0.0.0.0.0.0.20" id="g4074">
                                        <title  id="title4076">PART R2</title>
                                        <rect  height="0.76200002" gorn="0.3.0.0.0.0.0.0.0.20.1" x="39.141399" y="-12.446" id="rect4078" style="fill:#ffffff" width="0.45719999" class="l21"/>
                                    </g>
                                    <g  gorn="0.3.0.0.0.0.0.0.0.21" id="g4080">
                                        <title  id="title4082">PART R3</title>
                                        <g  transform="matrix(-1,0,0,-1,69.85,-20.32)">
                                            <g >
                                                <rect  height="0.76200002" gorn="0.3.0.0.0.0.0.0.0.21.1.0.0" x="34.6964" y="-10.541" id="rect4084" style="fill:#ffffff" width="0.45719999" class="l21"/>
                                            </g>
                                        </g>
                                    </g>
                                    <g  gorn="0.3.0.0.0.0.0.0.0.22" id="g4086">
                                        <title  id="title4088">PART R4</title>
                                        <g  transform="matrix(-1,0,0,-1,70.104,-8.636)">
                                            <g >
                                                <rect  height="0.76200002" gorn="0.3.0.0.0.0.0.0.0.22.1.0.0" x="34.823399" y="-4.6989999" id="rect4090" style="fill:#ffffff" width="0.45719999" class="l21"/>
                                            </g>
                                        </g>
                                    </g>
                                    <g  gorn="0.3.0.0.0.0.0.0.0.23" id="g4092">
                                        <title  id="title4094">PART R5</title>
                                        <rect  height="0.76200002" gorn="0.3.0.0.0.0.0.0.0.23.1" x="39.141399" y="-14.986" id="rect4096" style="fill:#ffffff" width="0.45719999" class="l21"/>
                                    </g>
                                    <g  gorn="0.3.0.0.0.0.0.0.0.24" id="g4098">
                                        <title  id="title4100">PART R6</title>
                                        <g  transform="matrix(-1,0,0,-1,69.85,-24.13)">
                                            <g >
                                                <rect  height="0.76200002" gorn="0.3.0.0.0.0.0.0.0.24.1.0.0" x="34.6964" y="-12.446" id="rect4102" style="fill:#ffffff" width="0.45719999" class="l21"/>
                                            </g>
                                        </g>
                                    </g>
                                    <g  gorn="0.3.0.0.0.0.0.0.0.25" id="g4104">
                                        <title  id="title4106">PART R7</title>
                                        <g  transform="matrix(-1,0,0,-1,78.74,-20.32)">
                                            <g >
                                                <rect  height="0.76200002" gorn="0.3.0.0.0.0.0.0.0.25.1.0.0" x="39.141399" y="-10.541" id="rect4108" style="fill:#ffffff" width="0.45719999" class="l21"/>
                                            </g>
                                        </g>
                                    </g>
                                    <g  gorn="0.3.0.0.0.0.0.0.0.26" id="g4110">
                                        <title  id="title4112">PART R8</title>
                                        <rect  height="0.76200002" gorn="0.3.0.0.0.0.0.0.0.26.1" x="39.141399" y="-4.6989999" id="rect4114" style="fill:#ffffff" width="0.45719999" class="l21"/>
                                    </g>
                                    <g  gorn="0.3.0.0.0.0.0.0.0.27" id="g4116">
                                        <title  id="title4118">PART R9</title>
                                        <g  transform="matrix(-1,0,0,-1,60.96,-29.21)">
                                            <g >
                                                <rect  height="0.76200002" gorn="0.3.0.0.0.0.0.0.0.27.1.0.0" x="30.2514" y="-14.986" id="rect4120" style="fill:#ffffff" width="0.45719999" class="l21"/>
                                            </g>
                                        </g>
                                    </g>
                                    <g  gorn="0.3.0.0.0.0.0.0.0.28" id="g4122">
                                        <title  id="title4124">PART SJ1</title>
                                    </g>
                                    <g  gorn="0.3.0.0.0.0.0.0.0.29" id="g4126">
                                        <title  id="title4128">PART TP1</title>
                                    </g>
                                    <g  gorn="0.3.0.0.0.0.0.0.0.30" id="g4130">
                                        <title  id="title4132">PART U$1</title>
                                    </g>
                                    <g  gorn="0.3.0.0.0.0.0.0.0.31" id="g4134">
                                        <title  id="title4136">PART U$2</title>
                                    </g>
                                    <g  gorn="0.3.0.0.0.0.0.0.0.32" id="g4138">
                                        <title  id="title4140">PART U1</title>
                                        <line  stroke-width="0.2032" gorn="0.3.0.0.0.0.0.0.0.32.1" fill="none" id="line4142" style="stroke-linecap:round" y1="-14.614" y2="-14.614" x1="8.026" stroke="#ffffff" x2="6.3260002" class="l21"/>
                                        <line  stroke-width="0.2032" gorn="0.3.0.0.0.0.0.0.0.32.2" fill="none" id="line4144" style="stroke-linecap:round" y1="-1.414" y2="-1.414" x1="8.026" stroke="#ffffff" x2="6.3260002" class="l21"/>
                                        <line  stroke-width="0.2032" gorn="0.3.0.0.0.0.0.0.0.32.3" fill="none" id="line4146" style="stroke-linecap:round" y1="-14.614" y2="-13.614" x1="25.926001" stroke="#ffffff" x2="25.926001" class="l21"/>
                                        <line  stroke-width="0.2032" gorn="0.3.0.0.0.0.0.0.0.32.4" fill="none" id="line4148" style="stroke-linecap:round" y1="-14.614" y2="-14.614" x1="25.926001" stroke="#ffffff" x2="24.926001" class="l21"/>
                                        <line  stroke-width="0.2032" gorn="0.3.0.0.0.0.0.0.0.32.5" fill="none" id="line4150" style="stroke-linecap:round" y1="-1.414" y2="-2.414" x1="25.926001" stroke="#ffffff" x2="25.926001" class="l21"/>
                                        <line  stroke-width="0.2032" gorn="0.3.0.0.0.0.0.0.0.32.6" fill="none" id="line4152" style="stroke-linecap:round" y1="-1.414" y2="-1.414" x1="25.926001" stroke="#ffffff" x2="24.926001" class="l21"/>
                                        <line  stroke-width="0.2032" gorn="0.3.0.0.0.0.0.0.0.32.7" fill="none" id="line4154" style="stroke-linecap:round" y1="-1.414" y2="-2.414" x1="0.126" stroke="#ffffff" x2="0.126" class="l21"/>
                                        <line  stroke-width="0.2032" gorn="0.3.0.0.0.0.0.0.0.32.8" fill="none" id="line4156" style="stroke-linecap:round" y1="-1.414" y2="-1.414" x1="0.126" stroke="#ffffff" x2="1.126" class="l21"/>
                                        <line  stroke-width="0.2032" gorn="0.3.0.0.0.0.0.0.0.32.9" fill="none" id="line4158" style="stroke-linecap:round" y1="-14.614" y2="-13.614" x1="0.126" stroke="#ffffff" x2="0.126" class="l21"/>
                                        <line  stroke-width="0.2032" gorn="0.3.0.0.0.0.0.0.0.32.10" fill="none" id="line4160" style="stroke-linecap:round" y1="-14.614" y2="-14.614" x1="0.126" stroke="#ffffff" x2="1.126" class="l21"/>
                                    </g>
                                    <g  gorn="0.3.0.0.0.0.0.0.0.33" id="g4162">
                                        <title  id="title4164">PART U3</title>
                                        <line  stroke-width="0.2032" gorn="0.3.0.0.0.0.0.0.0.33.1" fill="none" id="line4166" style="stroke-linecap:round" y1="-7.1905999" y2="-8.0494003" x1="29.0576" stroke="#ffffff" x2="29.0576" class="l21"/>
                                        <line  stroke-width="0.2032" gorn="0.3.0.0.0.0.0.0.0.33.2" fill="none" id="line4168" style="stroke-linecap:round" y1="-8.0494003" y2="-7.1905999" x1="31.902399" stroke="#ffffff" x2="31.902399" class="l21"/>
                                        <line  stroke-width="0.2032" gorn="0.3.0.0.0.0.0.0.0.33.3" fill="none" id="line4170" style="stroke-linecap:round" y1="-6.8095999" y2="-6.8095999" x1="30.7484" stroke="#ffffff" x2="30.211599" class="l21"/>
                                    </g>
                                </g>
                            </g>
                        </g>
                    </g>
                </g>
            </g>
        </g>
    </g>
    <g  transform="translate(-584.55,-1295.55)">
        <g >
            <g  gorn="0.4.0.0" id="layer2" style="display:inline">
                <g  transform="matrix(3.5433071,0,0,3.5433071,665.77957,1354.95)">
                    <g >
                        <g  gorn="0.4.0.0.0.0.0" id="g4316">
                            <g  gorn="0.4.0.0.0.0.0.0" id="copper1" style="fill:#f7bd13;fill-opacity:1">
                                <g  gorn="0.4.0.0.0.0.0.0.0" id="copper0" style="fill:#f7bd13;fill-opacity:1">
                                    <g  transform="matrix(0.28222222,0,0,0.28222222,-22.924788,-16.764)">
                                        <g >
                                            <path d="m 96.3125,6.125 c -1.839108,0 -3.34375,1.4733917 -3.34375,3.3125 0,1.839108 1.504642,3.34375 3.34375,3.34375 1.839108,0 3.3125,-1.504642 3.3125,-3.34375 0,-1.8391083 -1.473392,-3.3125 -3.3125,-3.3125 z m 0,1.53125 c 0.994113,0 1.78125,0.7871374 1.78125,1.78125 0,0.994113 -0.787137,1.8125 -1.78125,1.8125 -0.994113,0 -1.8125,-0.818387 -1.8125,-1.8125 0,-0.9941126 0.818387,-1.78125 1.8125,-1.78125 z"  gorn="0.4.0.0.0.0.0.0.0.0.0.0" id="connector6pad" style="fill:#f7bd13;fill-opacity:1"/>
                                        </g>
                                    </g>
                                    <g  transform="matrix(0.28222222,0,0,0.28222222,-22.924788,-16.764)">
                                        <g >
                                            <path d="m 153.4375,3.875 c -1.83911,0 -3.3125,1.4733917 -3.3125,3.3125 0,1.8391083 1.47339,3.34375 3.3125,3.34375 1.83911,0 3.34375,-1.5046417 3.34375,-3.34375 0,-1.8391083 -1.50464,-3.3125 -3.34375,-3.3125 z m 0,1.53125 c 0.99411,0 1.8125,0.7871374 1.8125,1.78125 0,0.9941126 -0.81839,1.8125 -1.8125,1.8125 -0.99411,0 -1.78125,-0.8183874 -1.78125,-1.8125 0,-0.9941126 0.78714,-1.78125 1.78125,-1.78125 z"  gorn="0.4.0.0.0.0.0.0.0.1.0.0" id="connector5pad" style="fill:#f7bd13;fill-opacity:1"/>
                                        </g>
                                    </g>
                                    <g  transform="matrix(0.28222222,0,0,0.28222222,-22.924788,-16.764)">
                                        <g >
                                            <path d="m 153.4375,12.875 c -1.83911,0 -3.3125,1.473392 -3.3125,3.3125 0,1.839108 1.47339,3.34375 3.3125,3.34375 1.83911,0 3.34375,-1.504642 3.34375,-3.34375 0,-1.839108 -1.50464,-3.3125 -3.34375,-3.3125 z m 0,1.53125 c 0.99411,0 1.8125,0.787137 1.8125,1.78125 0,0.994113 -0.81839,1.8125 -1.8125,1.8125 -0.99411,0 -1.78125,-0.818387 -1.78125,-1.8125 0,-0.994113 0.78714,-1.78125 1.78125,-1.78125 z"  gorn="0.4.0.0.0.0.0.0.0.2.0.0" id="connector4pad" style="fill:#f7bd13;fill-opacity:1"/>
                                        </g>
                                    </g>
                                    <g  transform="matrix(0.28222222,0,0,0.28222222,-22.924788,-16.764)">
                                        <g >
                                            <path d="m 153.4375,21.875 c -1.83911,0 -3.3125,1.473392 -3.3125,3.3125 0,1.839108 1.47339,3.34375 3.3125,3.34375 1.83911,0 3.34375,-1.504642 3.34375,-3.34375 0,-1.839108 -1.50464,-3.3125 -3.34375,-3.3125 z m 0,1.53125 c 0.99411,0 1.8125,0.787137 1.8125,1.78125 0,0.994113 -0.81839,1.8125 -1.8125,1.8125 -0.99411,0 -1.78125,-0.818387 -1.78125,-1.8125 0,-0.994113 0.78714,-1.78125 1.78125,-1.78125 z"  gorn="0.4.0.0.0.0.0.0.0.3.0.0" id="connector3pad" style="fill:#f7bd13;fill-opacity:1"/>
                                        </g>
                                    </g>
                                    <g  transform="matrix(0.28222222,0,0,0.28222222,-22.924788,-16.764)">
                                        <g >
                                            <path d="m 153.4375,30.875 c -1.83911,0 -3.3125,1.473392 -3.3125,3.3125 0,1.839108 1.47339,3.34375 3.3125,3.34375 1.83911,0 3.34375,-1.504642 3.34375,-3.34375 0,-1.839108 -1.50464,-3.3125 -3.34375,-3.3125 z m 0,1.53125 c 0.99411,0 1.8125,0.787137 1.8125,1.78125 0,0.994113 -0.81839,1.8125 -1.8125,1.8125 -0.99411,0 -1.78125,-0.818387 -1.78125,-1.8125 0,-0.994113 0.78714,-1.78125 1.78125,-1.78125 z"  gorn="0.4.0.0.0.0.0.0.0.4.0.0" id="connector2pad" style="fill:#f7bd13;fill-opacity:1"/>
                                        </g>
                                    </g>
                                    <g  transform="matrix(0.28222222,0,0,0.28222222,-22.924788,-16.764)">
                                        <g >
                                            <path d="m 153.4375,39.875 c -1.83911,0 -3.3125,1.473392 -3.3125,3.3125 0,1.839108 1.47339,3.34375 3.3125,3.34375 1.83911,0 3.34375,-1.504642 3.34375,-3.34375 0,-1.839108 -1.50464,-3.3125 -3.34375,-3.3125 z m 0,1.53125 c 0.99411,0 1.8125,0.787137 1.8125,1.78125 0,0.994113 -0.81839,1.8125 -1.8125,1.8125 -0.99411,0 -1.78125,-0.818387 -1.78125,-1.8125 0,-0.994113 0.78714,-1.78125 1.78125,-1.78125 z"  gorn="0.4.0.0.0.0.0.0.0.5.0.0" id="connector1pad" style="fill:#f7bd13;fill-opacity:1"/>
                                        </g>
                                    </g>
                                    <g  transform="matrix(0.28222222,0,0,0.28222222,-22.924788,-16.764)">
                                        <g >
                                            <path d="m 153.4375,48.875 c -1.83911,0 -3.3125,1.473392 -3.3125,3.3125 0,1.839108 1.47339,3.34375 3.3125,3.34375 1.83911,0 3.34375,-1.504642 3.34375,-3.34375 0,-1.839108 -1.50464,-3.3125 -3.34375,-3.3125 z m 0,1.53125 c 0.99411,0 1.8125,0.787137 1.8125,1.78125 0,0.994113 -0.81839,1.8125 -1.8125,1.8125 -0.99411,0 -1.78125,-0.818387 -1.78125,-1.8125 0,-0.994113 0.78714,-1.78125 1.78125,-1.78125 z"  gorn="0.4.0.0.0.0.0.0.0.6.0.0" id="connector0pad" style="fill:#f7bd13;fill-opacity:1"/>
                                        </g>
                                    </g>
                                </g>
                            </g>
                        </g>
                    </g>
                </g>
            </g>
        </g>
    </g>
</svg>
