<?xml version='1.0' encoding='UTF-8' standalone='no'?>
<!-- Created with Inkscape (http://www.inkscape.org/) -->
<svg xmlns="http://www.w3.org/2000/svg"  width="89.59375" xml:space="preserve" xmlns:xml="http://www.w3.org/XML/1998/namespace" version="1.2" height="108.625" viewBox="0 0 89.593747 108.625" id="0">
 <desc   id="0.0" oldid="0.0">
  <referenceFile   id="0.0.0" oldid="0.0.0">emic2_PCB.svg</referenceFile>
 </desc>
 <metadata   id="0.1" oldid="0.1">
  <rdf:RDF xmlns:rdf="http://www.w3.org/1999/02/22-rdf-syntax-ns#"  id="0.1.0" oldid="0.1.0">
   <cc:Work xmlns:cc="http://creativecommons.org/ns#"  rdf:about="" xmlns:rdf="http://www.w3.org/1999/02/22-rdf-syntax-ns#" id="0.1.0.0" oldid="0.1.0.0">
    <dc:format xmlns:dc="http://purl.org/dc/elements/1.1/"  id="0.1.0.0.0" oldid="0.1.0.0.0">image/svg+xml</dc:format>
    <dc:type xmlns:dc="http://purl.org/dc/elements/1.1/"  id="0.1.0.0.1" oldid="0.1.0.0.1" rdf:resource="http://purl.org/dc/dcmitype/StillImage" xmlns:rdf="http://www.w3.org/1999/02/22-rdf-syntax-ns#"/>
    <dc:title xmlns:dc="http://purl.org/dc/elements/1.1/"  id="0.1.0.0.2" oldid="0.1.0.0.2"/>
   </cc:Work>
  </rdf:RDF>
 </metadata>
 <defs   id="0.2" oldid="0.2"/>
 <g   style="display:inline" id="layer2">
  <g   style="display:inline" id="silkscreen" transform="translate(3e-6,0)">
   <rect  width="88.711868" x="0.44703826" y="0.44288999" stroke-opacity="1" fill="none"  height="107.74516" stroke="#ffffff" style="stroke-miterlimit:4;stroke-dasharray:none" id="rect8880" stroke-width="0.89999998"/>
   <g  xml:space="preserve" xmlns:xml="http://www.w3.org/XML/1998/namespace" fill="#000000"  stroke="none" style="font-style:normal;font-weight:normal;line-height:125%;letter-spacing:0px;word-spacing:0px;font-family:Droid Sans" fill-opacity="1" id="text11744" transform="matrix(0,-1,1,0,0,0)" font-size="8">
    <text  x="-100.04505" y="27.87056"  style="font-size:4px;font-style:normal;font-variant:normal;font-weight:normal;font-stretch:normal;fill:#ffffff;fill-opacity:1;font-family:OCRA;-inkscape-font-specification:OCRA" id="tspan11746">GND</text>
   </g>
   <g  xml:space="preserve" xmlns:xml="http://www.w3.org/XML/1998/namespace" fill="#000000"  stroke="none" style="font-style:normal;font-weight:normal;line-height:125%;letter-spacing:0px;word-spacing:0px;font-family:Droid Sans" fill-opacity="1" id="text11744-8" transform="matrix(0,-1,1,0,0,0)" font-size="8">
    <text  x="-100.04511" y="35.109821"  style="font-size:4px;font-style:normal;font-variant:normal;font-weight:normal;font-stretch:normal;fill:#ffffff;fill-opacity:1;font-family:OCRA;-inkscape-font-specification:OCRA" id="tspan11746-7">5V</text>
   </g>
   <g  xml:space="preserve" xmlns:xml="http://www.w3.org/XML/1998/namespace" fill="#000000"  stroke="none" style="font-style:normal;font-weight:normal;line-height:125%;letter-spacing:0px;word-spacing:0px;font-family:Droid Sans" fill-opacity="1" id="text11744-8-4" transform="matrix(0,-1,1,0,0,0)" font-size="8">
    <text  x="-100.04189" y="42.345325"  style="font-size:4px;font-style:normal;font-variant:normal;font-weight:normal;font-stretch:normal;fill:#ffffff;fill-opacity:1;font-family:OCRA;-inkscape-font-specification:OCRA" id="tspan11746-7-2">SOUT</text>
   </g>
   <g  xml:space="preserve" xmlns:xml="http://www.w3.org/XML/1998/namespace" fill="#000000"  stroke="none" style="font-style:normal;font-weight:normal;line-height:125%;letter-spacing:0px;word-spacing:0px;font-family:Droid Sans" fill-opacity="1" id="text11744-8-7" transform="matrix(0,-1,1,0,0,0)" font-size="8">
    <text  x="-100.04189" y="49.585987"  style="font-size:4px;font-style:normal;font-variant:normal;font-weight:normal;font-stretch:normal;fill:#ffffff;fill-opacity:1;font-family:OCRA;-inkscape-font-specification:OCRA" id="tspan11746-7-7">SIN</text>
   </g>
   <g  xml:space="preserve" xmlns:xml="http://www.w3.org/XML/1998/namespace" fill="#000000"  stroke="none" style="font-style:normal;font-weight:normal;line-height:125%;letter-spacing:0px;word-spacing:0px;font-family:Droid Sans" fill-opacity="1" id="text11744-8-9" transform="matrix(0,-1,1,0,0,0)" font-size="8">
    <text  x="-100.04189" y="56.816849"  style="font-size:4px;font-style:normal;font-variant:normal;font-weight:normal;font-stretch:normal;fill:#ffffff;fill-opacity:1;font-family:OCRA;-inkscape-font-specification:OCRA" id="tspan11746-7-3">SP-</text>
   </g>
   <g  xml:space="preserve" xmlns:xml="http://www.w3.org/XML/1998/namespace" fill="#000000"  stroke="none" style="font-style:normal;font-weight:normal;line-height:125%;letter-spacing:0px;word-spacing:0px;font-family:Droid Sans" fill-opacity="1" id="text11744-8-1" transform="matrix(0,-1,1,0,0,0)" font-size="8">
    <text  x="-100.04189" y="64.055313"  style="font-size:4px;font-style:normal;font-variant:normal;font-weight:normal;font-stretch:normal;fill:#ffffff;fill-opacity:1;font-family:OCRA;-inkscape-font-specification:OCRA" id="tspan11746-7-9">SP+</text>
   </g>
  </g>
 </g>
 <g   style="display:inline" id="layer1">
  <g   style="display:inline" id="copper0" transform="translate(1.5e-6,0)">
   <g   id="0.4.0.0" transform="matrix(1.25,0,0,1.25,-6.0386626,97.81626)">
    <circle  fill="none" cx="25.92"  cy="4.3200002" stroke="#ffbf00" id="connector21pin" r="1.584" stroke-width="1.15199995" d="m 27.504,4.3200002 c 0,0.874819 -0.709181,1.584 -1.584,1.584 -0.874819,0 -1.584,-0.709181 -1.584,-1.584 0,-0.8748191 0.709181,-1.584 1.584,-1.584 0.874819,0 1.584,0.7091809 1.584,1.584 z"/>
   </g>
   <g   id="0.4.0.1" transform="matrix(1.25,0,0,1.25,1.2421474,97.81561)">
    <circle  fill="none" cx="25.92"  cy="4.3200002" stroke="#ffbf00" id="connector22pin" r="1.584" stroke-width="1.15199995" d="m 27.504,4.3200002 c 0,0.874819 -0.709181,1.584 -1.584,1.584 -0.874819,0 -1.584,-0.709181 -1.584,-1.584 0,-0.8748191 0.709181,-1.584 1.584,-1.584 0.874819,0 1.584,0.7091809 1.584,1.584 z"/>
   </g>
   <g   id="0.4.0.2" transform="matrix(1.25,0,0,1.25,8.3509574,97.81626)">
    <circle  fill="none" cx="25.92"  cy="4.3200002" stroke="#ffbf00" id="connector23pin" r="1.584" stroke-width="1.15199995" d="m 27.504,4.3200002 c 0,0.874819 -0.709181,1.584 -1.584,1.584 -0.874819,0 -1.584,-0.709181 -1.584,-1.584 0,-0.8748191 0.709181,-1.584 1.584,-1.584 0.874819,0 1.584,0.7091809 1.584,1.584 z"/>
   </g>
   <g   id="0.4.0.3" transform="matrix(1.25,0,0,1.25,15.689097,97.81626)">
    <circle  fill="none" cx="25.92"  cy="4.3200002" stroke="#ffbf00" id="connector24pin" r="1.584" stroke-width="1.15199995" d="m 27.504,4.3200002 c 0,0.874819 -0.709181,1.584 -1.584,1.584 -0.874819,0 -1.584,-0.709181 -1.584,-1.584 0,-0.8748191 0.709181,-1.584 1.584,-1.584 0.874819,0 1.584,0.7091809 1.584,1.584 z"/>
   </g>
   <g   id="0.4.0.4" transform="matrix(1.25,0,0,1.25,22.912567,97.81626)">
    <circle  fill="none" cx="25.92"  cy="4.3200002" stroke="#ffbf00" id="connector25pin" r="1.584" stroke-width="1.15199995" d="m 27.504,4.3200002 c 0,0.874819 -0.709181,1.584 -1.584,1.584 -0.874819,0 -1.584,-0.709181 -1.584,-1.584 0,-0.8748191 0.709181,-1.584 1.584,-1.584 0.874819,0 1.584,0.7091809 1.584,1.584 z"/>
   </g>
   <g   id="0.4.0.5" transform="matrix(1.25,0,0,1.25,30.136037,97.81561)">
    <circle  fill="none" cx="25.92"  cy="4.3200002" stroke="#ffbf00" id="connector26pin" r="1.584" stroke-width="1.15199995" d="m 27.504,4.3200002 c 0,0.874819 -0.709181,1.584 -1.584,1.584 -0.874819,0 -1.584,-0.709181 -1.584,-1.584 0,-0.8748191 0.709181,-1.584 1.584,-1.584 0.874819,0 1.584,0.7091809 1.584,1.584 z"/>
   </g>
  </g>
 </g>
</svg>
