<?xml version='1.0' encoding='UTF-8' standalone='no'?>
<!-- Created with Inkscape (http://www.inkscape.org/) -->
<svg xmlns="http://www.w3.org/2000/svg"  width="143.625" xml:space="preserve" xmlns:xml="http://www.w3.org/XML/1998/namespace" version="1.2" height="195.625" viewBox="0 0 143.62499 195.625" id="0">
 <desc   id="0.0">
  <referenceFile   id="0.0.0">KeyPad_PCB.svg</referenceFile>
 </desc>
 <metadata   id="0.1" oldid="metadata5925">
  <rdf:RDF xmlns:rdf="http://www.w3.org/1999/02/22-rdf-syntax-ns#"  id="0.1.0">
   <cc:Work xmlns:cc="http://creativecommons.org/ns#"  rdf:about="" xmlns:rdf="http://www.w3.org/1999/02/22-rdf-syntax-ns#" id="0.1.0.0">
    <dc:format xmlns:dc="http://purl.org/dc/elements/1.1/"  id="0.1.0.0.0">image/svg+xml</dc:format>
    <dc:type xmlns:dc="http://purl.org/dc/elements/1.1/"  id="0.1.0.0.1" rdf:resource="http://purl.org/dc/dcmitype/StillImage" xmlns:rdf="http://www.w3.org/1999/02/22-rdf-syntax-ns#"/>
    <dc:title xmlns:dc="http://purl.org/dc/elements/1.1/"  id="0.1.0.0.2"/>
   </cc:Work>
  </rdf:RDF>
 </metadata>
 <defs   id="0.2" oldid="defs5923"/>
 <g   id="layer1">
  <g   id="copper0">
   <path  stroke-opacity="1" fill="none"  stroke="#ffbf00" style="stroke-miterlimit:4;stroke-dasharray:none;stroke-dashoffset:0" id="connector21pin" stroke-width="1.5" d="m 53.173289,188.08158 a 2.10913,2.10913 0 0 1 -4.21826,0 2.10913,2.10913 0 1 1 4.21826,0 z"/>
   <path  stroke-opacity="1" fill="none"  stroke="#ffbf00" style="stroke-miterlimit:4;stroke-dasharray:none;stroke-dashoffset:0" id="connector22pin" stroke-width="1.5" d="m 60.327379,188.08223 a 2.1091301,2.1091301 0 0 1 -4.21826,0 2.1091301,2.1091301 0 1 1 4.21826,0 z"/>
   <path  stroke-opacity="1" fill="none"  stroke="#ffbf00" style="stroke-miterlimit:4;stroke-dasharray:none;stroke-dashoffset:0" id="connector29pin" stroke-width="1.5" d="m 46.019199,188.08158 a 2.10913,2.10913 0 0 1 -4.21826,0 2.10913,2.10913 0 1 1 4.21826,0 z"/>
   <path  stroke-opacity="1" fill="none"  stroke="#ffbf00" style="stroke-miterlimit:4;stroke-dasharray:none;stroke-dashoffset:0" id="connector23pin" stroke-width="1.5" d="m 67.481469,188.08223 a 2.1091301,2.1091301 0 0 1 -4.21826,0 2.1091301,2.1091301 0 1 1 4.21826,0 z"/>
   <path  stroke-opacity="1" fill="none"  stroke="#ffbf00" style="stroke-miterlimit:4;stroke-dasharray:none;stroke-dashoffset:0" id="connector24pin" stroke-width="1.5" d="m 74.635559,188.08288 a 2.1091301,2.1091301 0 0 1 -4.21826,0 2.1091301,2.1091301 0 1 1 4.21826,0 z"/>
   <path  stroke-opacity="1" fill="none"  stroke="#ffbf00" style="stroke-miterlimit:4;stroke-dasharray:none;stroke-dashoffset:0" id="connector25pin" stroke-width="1.5" d="m 81.789649,188.08288 a 2.1091301,2.1091301 0 0 1 -4.21826,0 2.1091301,2.1091301 0 1 1 4.21826,0 z"/>
   <path  stroke-opacity="1" fill="none"  stroke="#ffbf00" style="stroke-miterlimit:4;stroke-dasharray:none;stroke-dashoffset:0" id="connector26pin" stroke-width="1.5" d="m 88.943744,188.08353 a 2.1091325,2.1091325 0 0 1 -4.218265,0 2.1091325,2.1091325 0 1 1 4.218265,0 z"/>
   <path  stroke-opacity="1" fill="none"  stroke="#ffbf00" style="stroke-miterlimit:4;stroke-dasharray:none;stroke-dashoffset:0" id="connector27pin" stroke-width="1.5" d="m 96.09784,188.08353 a 2.109135,2.109135 0 0 1 -4.21827,0 2.109135,2.109135 0 1 1 4.21827,0 z"/>
   <path  stroke-opacity="1" fill="none"  stroke="#ffbf00" style="stroke-miterlimit:4;stroke-dasharray:none;stroke-dashoffset:0" id="connector28pin" stroke-width="1.5" d="m 103.25192,188.08418 a 2.1091301,2.1091301 0 0 1 -4.21826,0 2.1091301,2.1091301 0 1 1 4.21826,0 z"/>
  </g>
 </g>
 <g   id="layer2">
  <path  stroke-opacity="1" fill="none"  stroke="#ffffff" style="stroke-miterlimit:4;stroke-dasharray:none;stroke-dashoffset:0" id="silkscreen" stroke-width="1.78999996" d="m 6.656249,0.06249998 c -3.665264,0 -6.59375002,2.95973602 -6.59375002,6.62500002 l 0,166.8125 c 0,3.66526 2.92848602,6.625 6.59375002,6.625 l 130.312491,0 c 3.66526,0 6.59375,-2.95974 6.59375,-6.625 l 0,-166.8125 c 0,-3.665264 -2.92849,-6.62500002 -6.59375,-6.62500002 l -55.843741,0 0,7.81250002 -18.71875,0 0,-7.81250002 -55.75,0 z M 6.093749,3.84375 c 1.855717,0 3.34375,1.519283 3.34375,3.375 0,1.855717 -1.488033,3.34375 -3.34375,3.34375 -1.855717,0 -3.375,-1.488033 -3.375,-3.34375 0,-1.855717 1.519283,-3.375 3.375,-3.375 z m 129.687491,0 c 1.85573,0 3.375,1.519283 3.375,3.375 0,1.855717 -1.51927,3.34375 -3.375,3.34375 -1.85571,0 -3.34375,-1.488033 -3.34375,-3.34375 0,-1.855717 1.48804,-3.375 3.34375,-3.375 z M 6.093749,170.25 c 1.855717,0 3.34375,1.51928 3.34375,3.375 0,1.85572 -1.488033,3.34375 -3.34375,3.34375 -1.855717,0 -3.375,-1.48803 -3.375,-3.34375 0,-1.85572 1.519283,-3.375 3.375,-3.375 z m 129.687491,0 c 1.85573,0 3.375,1.51928 3.375,3.375 0,1.85572 -1.51927,3.34375 -3.375,3.34375 -1.85571,0 -3.34375,-1.48803 -3.34375,-3.34375 0,-1.85572 1.48804,-3.375 3.34375,-3.375 z"/>
 </g>
</svg>
