<?xml version='1.0' encoding='UTF-8' standalone='no'?>
<!-- Created with Inkscape (http://www.inkscape.org/) -->
<svg xmlns="http://www.w3.org/2000/svg"  width="58.475754" xml:space="preserve" xmlns:xml="http://www.w3.org/XML/1998/namespace" version="1.2" height="56.641228" viewBox="0 0 58.475751 56.641227" id="0">
 <desc   id="0.0" oldid="0.0">
  <referenceFile   id="0.0.0" oldid="0.0.0">MonoAmp_PCB.svg</referenceFile>
 </desc>
 <metadata   id="0.1" oldid="0.1">
  <rdf:RDF xmlns:rdf="http://www.w3.org/1999/02/22-rdf-syntax-ns#"  id="0.1.0" oldid="0.1.0">
   <cc:Work xmlns:cc="http://creativecommons.org/ns#"  rdf:about="" xmlns:rdf="http://www.w3.org/1999/02/22-rdf-syntax-ns#" id="0.1.0.0" oldid="0.1.0.0">
    <dc:format xmlns:dc="http://purl.org/dc/elements/1.1/"  id="0.1.0.0.0" oldid="0.1.0.0.0">image/svg+xml</dc:format>
    <dc:type xmlns:dc="http://purl.org/dc/elements/1.1/"  id="0.1.0.0.1" oldid="0.1.0.0.1" rdf:resource="http://purl.org/dc/dcmitype/StillImage" xmlns:rdf="http://www.w3.org/1999/02/22-rdf-syntax-ns#"/>
    <dc:title xmlns:dc="http://purl.org/dc/elements/1.1/"  id="0.1.0.0.2" oldid="0.1.0.0.2"/>
   </cc:Work>
  </rdf:RDF>
 </metadata>
 <defs   id="0.2" oldid="0.2"/>
 <g   style="display:inline" id="layer6">
  <g   id="silkscreen">
   <g   id="0.3.0.0" transform="matrix(0,-1,1,0,0,0)">
    <rect  width="56.641228" x="-57.060024" y="0.034543719" stroke-opacity="1" fill="none"  height="58.475754" stroke="#ffffff" style="stroke-miterlimit:4;stroke-dasharray:none" id="rect8880" stroke-width="0.89999998"/>
   </g>
   <g  xml:space="preserve" xmlns:xml="http://www.w3.org/XML/1998/namespace" fill="#000000"  stroke="none" style="font-style:normal;font-weight:normal;line-height:125%;letter-spacing:0px;word-spacing:0px;font-family:Droid Sans" fill-opacity="1" id="text7623" font-size="8">
    <text  x="0.1799905" y="25.818142"  style="font-size:6px;font-style:normal;font-variant:normal;font-weight:normal;font-stretch:normal;fill:#ffffff;fill-opacity:1;font-family:OCRA;-inkscape-font-specification:OCRA" id="tspan7625">OUT</text>
   </g>
   <g  xml:space="preserve" xmlns:xml="http://www.w3.org/XML/1998/namespace" fill="#000000"  stroke="none" style="font-style:normal;font-weight:normal;line-height:125%;letter-spacing:0px;word-spacing:0px;font-family:Droid Sans" fill-opacity="1" id="text7623-3" font-size="8">
    <text  x="49.32782" y="25.821438"  style="font-size:6px;font-style:normal;font-variant:normal;font-weight:normal;font-stretch:normal;fill:#ffffff;fill-opacity:1;font-family:OCRA;-inkscape-font-specification:OCRA" id="tspan7625-4">IN</text>
   </g>
   <g  xml:space="preserve" xmlns:xml="http://www.w3.org/XML/1998/namespace" fill="#000000"  stroke="none" style="font-style:normal;font-weight:normal;line-height:125%;letter-spacing:0px;word-spacing:0px;font-family:Droid Sans" fill-opacity="1" id="text7623-1" font-size="8">
    <text  x="0.034543719" y="35.665371"  style="font-size:6px;font-style:normal;font-variant:normal;font-weight:normal;font-stretch:normal;fill:#ffffff;fill-opacity:1;font-family:OCRA;-inkscape-font-specification:OCRA" id="tspan7625-1">PWR</text>
   </g>
   <g  xml:space="preserve" xmlns:xml="http://www.w3.org/XML/1998/namespace" fill="#000000"  stroke="none" style="font-style:normal;font-weight:normal;line-height:125%;letter-spacing:0px;word-spacing:0px;font-family:Droid Sans" fill-opacity="1" id="text7623-1-3" font-size="8">
    <text  x="45.757446" y="35.662075"  style="font-size:6px;font-style:normal;font-variant:normal;font-weight:normal;font-stretch:normal;fill:#ffffff;fill-opacity:1;font-family:OCRA;-inkscape-font-specification:OCRA" id="tspan7625-1-8">VOL</text>
   </g>
   <g  xml:space="preserve" xmlns:xml="http://www.w3.org/XML/1998/namespace" fill="#000000"  stroke="none" style="font-style:normal;font-weight:normal;line-height:125%;letter-spacing:0px;word-spacing:0px;font-family:Droid Sans" fill-opacity="1" id="text7623-19" font-size="8">
    <text  x="4.1509686" y="8.4364262"  style="font-size:6px;font-style:normal;font-variant:normal;font-weight:normal;font-stretch:normal;fill:#ffffff;fill-opacity:1;font-family:OCRA;-inkscape-font-specification:OCRA" id="tspan7625-8">+</text>
   </g>
   <g  xml:space="preserve" xmlns:xml="http://www.w3.org/XML/1998/namespace" fill="#000000"  stroke="none" style="font-style:normal;font-weight:normal;line-height:125%;letter-spacing:0px;word-spacing:0px;font-family:Droid Sans" fill-opacity="1" id="text7623-19-6" font-size="8">
    <text  x="50.740173" y="8.3849125"  style="font-size:6px;font-style:normal;font-variant:normal;font-weight:normal;font-stretch:normal;fill:#ffffff;fill-opacity:1;font-family:OCRA;-inkscape-font-specification:OCRA" id="tspan7625-8-5">+</text>
   </g>
   <g  xml:space="preserve" xmlns:xml="http://www.w3.org/XML/1998/namespace" fill="#000000"  stroke="none" style="font-style:normal;font-weight:normal;line-height:125%;letter-spacing:0px;word-spacing:0px;font-family:Droid Sans" fill-opacity="1" id="text7623-19-0" font-size="8">
    <text  x="7.9863868" y="48.274136"  style="font-size:6px;font-style:normal;font-variant:normal;font-weight:normal;font-stretch:normal;fill:#ffffff;fill-opacity:1;font-family:OCRA;-inkscape-font-specification:OCRA" id="tspan7625-8-2">+</text>
   </g>
   <g  xml:space="preserve" xmlns:xml="http://www.w3.org/XML/1998/namespace" fill="#000000"  stroke="none" style="font-style:normal;font-weight:normal;line-height:125%;letter-spacing:0px;word-spacing:0px;font-family:Droid Sans" fill-opacity="1" id="text7623-19-0-8" transform="matrix(0,-1,1,0,0,0)" font-size="8">
    <text  x="-20.871548" y="10.141873"  style="font-size:6px;font-style:normal;font-variant:normal;font-weight:normal;font-stretch:normal;fill:#ffffff;fill-opacity:1;font-family:OCRA;-inkscape-font-specification:OCRA" id="tspan7625-8-2-6">-</text>
   </g>
   <g  xml:space="preserve" xmlns:xml="http://www.w3.org/XML/1998/namespace" fill="#000000"  stroke="none" style="font-style:normal;font-weight:normal;line-height:125%;letter-spacing:0px;word-spacing:0px;font-family:Droid Sans" fill-opacity="1" id="text7623-19-0-8-0" transform="matrix(0,-1,1,0,0,0)" font-size="8">
    <text  x="-21.205379" y="52.949097"  style="font-size:6px;font-style:normal;font-variant:normal;font-weight:normal;font-stretch:normal;fill:#ffffff;fill-opacity:1;font-family:OCRA;-inkscape-font-specification:OCRA" id="tspan7625-8-2-6-2">-</text>
   </g>
   <g  xml:space="preserve" xmlns:xml="http://www.w3.org/XML/1998/namespace" fill="#000000"  stroke="none" style="font-style:normal;font-weight:normal;line-height:125%;letter-spacing:0px;word-spacing:0px;font-family:Droid Sans" fill-opacity="1" id="text7623-19-0-8-4" font-size="8">
    <text  x="7.9314246" y="41.03149"  style="font-size:6px;font-style:normal;font-variant:normal;font-weight:normal;font-stretch:normal;fill:#ffffff;fill-opacity:1;font-family:OCRA;-inkscape-font-specification:OCRA" id="tspan7625-8-2-6-8">-</text>
   </g>
   <g  xml:space="preserve" xmlns:xml="http://www.w3.org/XML/1998/namespace" fill="#000000"  stroke="none" style="font-style:normal;font-weight:normal;line-height:125%;letter-spacing:0px;word-spacing:0px;font-family:Droid Sans" fill-opacity="1" id="text7623-19-0-6" font-size="8">
    <text  x="7.9321876" y="55.40881"  style="font-size:6px;font-style:normal;font-variant:normal;font-weight:normal;font-stretch:normal;fill:#ffffff;fill-opacity:1;font-family:OCRA;-inkscape-font-specification:OCRA" id="tspan7625-8-2-5">S</text>
   </g>
  </g>
 </g>
 <g   style="display:inline" id="layer5">
  <g   id="copper0">
   <g   id="0.4.0.0" transform="matrix(1.25,0,0,1.25,7.8755164,-2.0834502)">
    <circle  fill="none" cx="25.92"  cy="4.3200002" stroke="#ffbf00" id="connector27pin" r="1.584" stroke-width="1.15199995" d="m 27.504,4.3200002 c 0,0.874819 -0.709181,1.584 -1.584,1.584 -0.874819,0 -1.584,-0.709181 -1.584,-1.584 0,-0.8748191 0.709181,-1.584 1.584,-1.584 0.874819,0 1.584,0.7091809 1.584,1.584 z"/>
   </g>
   <g   id="0.4.0.1" transform="matrix(1.25,0,0,1.25,22.469136,5.0512098)">
    <circle  fill="none" cx="25.92"  cy="4.3200002" stroke="#ffbf00" id="connector21pin" r="1.584" stroke-width="1.15199995" d="m 27.504,4.3200002 c 0,0.874819 -0.709181,1.584 -1.584,1.584 -0.874819,0 -1.584,-0.709181 -1.584,-1.584 0,-0.8748191 0.709181,-1.584 1.584,-1.584 0.874819,0 1.584,0.7091809 1.584,1.584 z"/>
   </g>
   <g   id="0.4.0.2" transform="matrix(1.25,0,0,1.25,22.469136,12.2053)">
    <circle  fill="none" cx="25.92"  cy="4.3200002" stroke="#ffbf00" id="connector22pin" r="1.584" stroke-width="1.15199995" d="m 27.504,4.3200002 c 0,0.874819 -0.709181,1.584 -1.584,1.584 -0.874819,0 -1.584,-0.709181 -1.584,-1.584 0,-0.8748191 0.709181,-1.584 1.584,-1.584 0.874819,0 1.584,0.7091809 1.584,1.584 z"/>
   </g>
   <g   id="0.4.0.3" transform="matrix(1.25,0,0,1.25,7.8755164,19.15837)">
    <circle  fill="none" cx="25.92"  cy="4.3200002" stroke="#ffbf00" id="connector28pin" r="1.584" stroke-width="1.15199995" d="m 27.504,4.3200002 c 0,0.874819 -0.709181,1.584 -1.584,1.584 -0.874819,0 -1.584,-0.709181 -1.584,-1.584 0,-0.8748191 0.709181,-1.584 1.584,-1.584 0.874819,0 1.584,0.7091809 1.584,1.584 z"/>
   </g>
   <g   id="0.4.0.4" transform="matrix(1.25,0,0,1.25,7.8755159,26.31246)">
    <circle  fill="none" cx="25.92"  cy="4.3200002" stroke="#ffbf00" id="connector29pin" r="1.584" stroke-width="1.15199995" d="m 27.504,4.3200002 c 0,0.874819 -0.709181,1.584 -1.584,1.584 -0.874819,0 -1.584,-0.709181 -1.584,-1.584 0,-0.8748191 0.709181,-1.584 1.584,-1.584 0.874819,0 1.584,0.7091809 1.584,1.584 z"/>
   </g>
   <g   id="0.4.0.5" transform="matrix(1.25,0,0,1.25,22.469136,33.4277)">
    <circle  fill="none" cx="25.92"  cy="4.3200002" stroke="#ffbf00" id="connector31pin" r="1.584" stroke-width="1.15199995" d="m 27.504,4.3200002 c 0,0.874819 -0.709181,1.584 -1.584,1.584 -0.874819,0 -1.584,-0.709181 -1.584,-1.584 0,-0.8748191 0.709181,-1.584 1.584,-1.584 0.874819,0 1.584,0.7091809 1.584,1.584 z"/>
   </g>
   <g   id="0.4.0.6" transform="matrix(1.25,0,0,1.25,22.469136,40.58179)">
    <circle  fill="none" cx="25.92"  cy="4.3200002" stroke="#ffbf00" id="connector33pin" r="1.584" stroke-width="1.15199995" d="m 27.504,4.3200002 c 0,0.874819 -0.709181,1.584 -1.584,1.584 -0.874819,0 -1.584,-0.709181 -1.584,-1.584 0,-0.8748191 0.709181,-1.584 1.584,-1.584 0.874819,0 1.584,0.7091809 1.584,1.584 z"/>
   </g>
   <g   id="0.4.0.7" transform="matrix(1.25,0,0,1.25,22.469136,47.73588)">
    <circle  fill="none" cx="25.92"  cy="4.3200002" stroke="#ffbf00" id="connector32pin" r="1.584" stroke-width="1.15199995" d="m 27.504,4.3200002 c 0,0.874819 -0.709181,1.584 -1.584,1.584 -0.874819,0 -1.584,-0.709181 -1.584,-1.584 0,-0.8748191 0.709181,-1.584 1.584,-1.584 0.874819,0 1.584,0.7091809 1.584,1.584 z"/>
   </g>
   <g   id="0.4.0.8" transform="matrix(1.25,0,0,1.25,7.8755159,47.8786)">
    <circle  fill="none" cx="25.92"  cy="4.3200002" stroke="#ffbf00" id="connector30pin" r="1.584" stroke-width="1.15199995" d="m 27.504,4.3200002 c 0,0.874819 -0.709181,1.584 -1.584,1.584 -0.874819,0 -1.584,-0.709181 -1.584,-1.584 0,-0.8748191 0.709181,-1.584 1.584,-1.584 0.874819,0 1.584,0.7091809 1.584,1.584 z"/>
   </g>
   <g   id="0.4.0.9" transform="matrix(1.25,0,0,1.25,-28.284245,47.57372)">
    <circle  fill="none" cx="25.92"  cy="4.3200002" stroke="#ffbf00" id="connector34pin" r="1.584" stroke-width="1.15199995" d="m 27.504,4.3200002 c 0,0.874819 -0.709181,1.584 -1.584,1.584 -0.874819,0 -1.584,-0.709181 -1.584,-1.584 0,-0.8748191 0.709181,-1.584 1.584,-1.584 0.874819,0 1.584,0.7091809 1.584,1.584 z"/>
   </g>
   <g   id="0.4.0.10" transform="matrix(1.25,0,0,1.25,-28.284245,40.41963)">
    <circle  fill="none" cx="25.92"  cy="4.3200002" stroke="#ffbf00" id="connector25pin" r="1.584" stroke-width="1.15199995" d="m 27.504,4.3200002 c 0,0.874819 -0.709181,1.584 -1.584,1.584 -0.874819,0 -1.584,-0.709181 -1.584,-1.584 0,-0.8748191 0.709181,-1.584 1.584,-1.584 0.874819,0 1.584,0.7091809 1.584,1.584 z"/>
   </g>
   <g   id="0.4.0.11" transform="matrix(1.25,0,0,1.25,-28.284245,33.26554)">
    <circle  fill="none" cx="25.92"  cy="4.3200002" stroke="#ffbf00" id="connector26pin" r="1.584" stroke-width="1.15199995" d="m 27.504,4.3200002 c 0,0.874819 -0.709181,1.584 -1.584,1.584 -0.874819,0 -1.584,-0.709181 -1.584,-1.584 0,-0.8748191 0.709181,-1.584 1.584,-1.584 0.874819,0 1.584,0.7091809 1.584,1.584 z"/>
   </g>
   <g   id="0.4.0.12" transform="matrix(1.25,0,0,1.25,-28.284245,4.7267598)">
    <circle  fill="none" cx="25.92"  cy="4.3200002" stroke="#ffbf00" id="connector23pin" r="1.584" stroke-width="1.15199995" d="m 27.504,4.3200002 c 0,0.874819 -0.709181,1.584 -1.584,1.584 -0.874819,0 -1.584,-0.709181 -1.584,-1.584 0,-0.8748191 0.709181,-1.584 1.584,-1.584 0.874819,0 1.584,0.7091809 1.584,1.584 z"/>
   </g>
   <g   id="0.4.0.13" transform="matrix(1.25,0,0,1.25,-28.284244,11.88085)">
    <circle  fill="none" cx="25.92"  cy="4.3200002" stroke="#ffbf00" id="connector24pin" r="1.584" stroke-width="1.15199995" d="m 27.504,4.3200002 c 0,0.874819 -0.709181,1.584 -1.584,1.584 -0.874819,0 -1.584,-0.709181 -1.584,-1.584 0,-0.8748191 0.709181,-1.584 1.584,-1.584 0.874819,0 1.584,0.7091809 1.584,1.584 z"/>
   </g>
  </g>
 </g>
</svg>
