<?xml version='1.0' encoding='UTF-8' standalone='no'?>
<!-- Created with Fritzing (http://www.fritzing.org/) -->
<svg xmlns="http://www.w3.org/2000/svg"  width="0.960255in" x="0in" version="1.2" y="0in" height="1in" viewBox="0 0 69.1384 72" baseProfile="tiny">
 <desc >Fritzing footprint generated by brd2svg</desc>
 <g  id="silkscreen">
  <path  fill="none" stroke="white" stroke-width="0.576" d="M4.5902,71.712L68.8504,71.712L68.8504,0.288L4.5902,0.288L4.5902,71.712M7.14635,64.8a4.392,4.392,0,1,1,8.784,0,4.392,4.392,0,1,1,-8.784,0zM57.5464,64.8a4.392,4.392,0,1,1,8.784,0,4.392,4.392,0,1,1,-8.784,0zM7.14635,7.2a4.392,4.392,0,1,1,8.784,0,4.392,4.392,0,1,1,-8.784,0zM57.5464,7.2a4.392,4.392,0,1,1,8.784,0,4.392,4.392,0,1,1,-8.784,0z"/>
  <line  stroke="white" stroke-linecap="round" y1="62.352" x1="28.8184" y2="62.352" stroke-width="0.72" x2="27.5224"/>
  <line  stroke="white" stroke-linecap="round" y1="62.352" x1="27.5224" y2="64.872" stroke-width="0.72" x2="27.5224"/>
  <line  stroke="white" stroke-linecap="round" y1="62.28" x1="45.0904" y2="62.28" stroke-width="0.72" x2="46.3864"/>
  <line  stroke="white" stroke-linecap="round" y1="62.28" x1="46.3864" y2="64.8" stroke-width="0.72" x2="46.3864"/>
  <g >
   <title >element:JP1</title>
   <g >
    <title >package:JST-2-SMD</title>
    <line  stroke="white" stroke-linecap="round" y1="24.6614" x1="55.5037" y2="24.6614" stroke-width="0.576" x2="45.5824"/>
    <line  stroke="white" stroke-linecap="round" y1="24.6614" x1="45.5824" y2="26.9292" stroke-width="0.576" x2="45.5824"/>
    <line  stroke="white" stroke-linecap="round" y1="26.9292" x1="45.5824" y2="26.9292" stroke-width="0.576" x2="52.6691"/>
    <line  stroke="white" stroke-linecap="round" y1="26.9292" x1="52.6691" y2="30.3307" stroke-width="0.576" x2="52.6691"/>
    <line  stroke="white" stroke-linecap="round" y1="41.6693" x1="52.6691" y2="45.0708" stroke-width="0.576" x2="52.6691"/>
    <line  stroke="white" stroke-linecap="round" y1="45.0708" x1="52.6691" y2="45.0708" stroke-width="0.576" x2="45.5824"/>
    <line  stroke="white" stroke-linecap="round" y1="45.0708" x1="45.5824" y2="47.3386" stroke-width="0.576" x2="45.5824"/>
    <line  stroke="white" stroke-linecap="round" y1="47.3386" x1="45.5824" y2="47.3386" stroke-width="0.576" x2="55.5037"/>
    <line  stroke="white" stroke-linecap="round" y1="41.6693" x1="66.8423" y2="30.3307" stroke-width="0.576" x2="66.8423"/>
   </g>
  </g>
  <g >
   <title >element:JP2</title>
   <g >
    <title >package:1X02</title>
    <line  stroke="white" stroke-linecap="round" y1="0" x1="31.3384" y2="0" stroke-width="0.576" x2="34.9384"/>
    <line  stroke="white" stroke-linecap="round" y1="0" x1="34.9384" y2="1.8" stroke-width="0.576" x2="36.7384"/>
    <line  stroke="white" stroke-linecap="round" y1="5.4" x1="36.7384" y2="7.2" stroke-width="0.576" x2="34.9384"/>
    <line  stroke="white" stroke-linecap="round" y1="1.8" x1="36.7384" y2="0" stroke-width="0.576" x2="38.5384"/>
    <line  stroke="white" stroke-linecap="round" y1="0" x1="38.5384" y2="0" stroke-width="0.576" x2="42.1384"/>
    <line  stroke="white" stroke-linecap="round" y1="0" x1="42.1384" y2="1.8" stroke-width="0.576" x2="43.9384"/>
    <line  stroke="white" stroke-linecap="round" y1="5.4" x1="43.9384" y2="7.2" stroke-width="0.576" x2="42.1384"/>
    <line  stroke="white" stroke-linecap="round" y1="7.2" x1="42.1384" y2="7.2" stroke-width="0.576" x2="38.5384"/>
    <line  stroke="white" stroke-linecap="round" y1="7.2" x1="38.5384" y2="5.4" stroke-width="0.576" x2="36.7384"/>
    <line  stroke="white" stroke-linecap="round" y1="1.8" x1="29.5384" y2="5.4" stroke-width="0.576" x2="29.5384"/>
    <line  stroke="white" stroke-linecap="round" y1="0" x1="31.3384" y2="1.8" stroke-width="0.576" x2="29.5384"/>
    <line  stroke="white" stroke-linecap="round" y1="5.4" x1="29.5384" y2="7.2" stroke-width="0.576" x2="31.3384"/>
    <line  stroke="white" stroke-linecap="round" y1="7.2" x1="34.9384" y2="7.2" stroke-width="0.576" x2="31.3384"/>
    <line  stroke="white" stroke-linecap="round" y1="1.8" x1="43.9384" y2="5.4" stroke-width="0.576" x2="43.9384"/>
   </g>
  </g>
  <g >
   <title >element:JP3</title>
   <g >
    <title >package:SFE-NEW-WEBLOGO</title>
   </g>
  </g>
  <g >
   <title >element:JP9</title>
   <g >
    <title >package:1X02</title>
    <line  stroke="white" stroke-linecap="round" y1="64.8" x1="31.3384" y2="64.8" stroke-width="0.576" x2="34.9384"/>
    <line  stroke="white" stroke-linecap="round" y1="64.8" x1="34.9384" y2="66.6" stroke-width="0.576" x2="36.7384"/>
    <line  stroke="white" stroke-linecap="round" y1="70.2" x1="36.7384" y2="72" stroke-width="0.576" x2="34.9384"/>
    <line  stroke="white" stroke-linecap="round" y1="66.6" x1="36.7384" y2="64.8" stroke-width="0.576" x2="38.5384"/>
    <line  stroke="white" stroke-linecap="round" y1="64.8" x1="38.5384" y2="64.8" stroke-width="0.576" x2="42.1384"/>
    <line  stroke="white" stroke-linecap="round" y1="64.8" x1="42.1384" y2="66.6" stroke-width="0.576" x2="43.9384"/>
    <line  stroke="white" stroke-linecap="round" y1="70.2" x1="43.9384" y2="72" stroke-width="0.576" x2="42.1384"/>
    <line  stroke="white" stroke-linecap="round" y1="72" x1="42.1384" y2="72" stroke-width="0.576" x2="38.5384"/>
    <line  stroke="white" stroke-linecap="round" y1="72" x1="38.5384" y2="70.2" stroke-width="0.576" x2="36.7384"/>
    <line  stroke="white" stroke-linecap="round" y1="66.6" x1="29.5384" y2="70.2" stroke-width="0.576" x2="29.5384"/>
    <line  stroke="white" stroke-linecap="round" y1="64.8" x1="31.3384" y2="66.6" stroke-width="0.576" x2="29.5384"/>
    <line  stroke="white" stroke-linecap="round" y1="70.2" x1="29.5384" y2="72" stroke-width="0.576" x2="31.3384"/>
    <line  stroke="white" stroke-linecap="round" y1="72" x1="34.9384" y2="72" stroke-width="0.576" x2="31.3384"/>
    <line  stroke="white" stroke-linecap="round" y1="66.6" x1="43.9384" y2="70.2" stroke-width="0.576" x2="43.9384"/>
   </g>
  </g>
  <g >
   <title >element:JP12</title>
   <g >
    <title >package:1X02</title>
   </g>
  </g>
  <g >
   <title >element:JP13</title>
   <g >
    <title >package:1X01</title>
    <line  stroke="white" stroke-linecap="round" y1="1.8" x1="29.5384" y2="0" stroke-width="0.576" x2="27.7384"/>
    <line  stroke="white" stroke-linecap="round" y1="0" x1="27.7384" y2="0" stroke-width="0.576" x2="24.1384"/>
    <line  stroke="white" stroke-linecap="round" y1="0" x1="24.1384" y2="1.8" stroke-width="0.576" x2="22.3384"/>
    <line  stroke="white" stroke-linecap="round" y1="1.8" x1="22.3384" y2="5.4" stroke-width="0.576" x2="22.3384"/>
    <line  stroke="white" stroke-linecap="round" y1="5.4" x1="22.3384" y2="7.2" stroke-width="0.576" x2="24.1384"/>
    <line  stroke="white" stroke-linecap="round" y1="7.2" x1="24.1384" y2="7.2" stroke-width="0.576" x2="27.7384"/>
    <line  stroke="white" stroke-linecap="round" y1="7.2" x1="27.7384" y2="5.4" stroke-width="0.576" x2="29.5384"/>
    <line  stroke="white" stroke-linecap="round" y1="5.4" x1="29.5384" y2="1.8" stroke-width="0.576" x2="29.5384"/>
   </g>
  </g>
  <g >
   <title >element:JP14</title>
   <g >
    <title >package:1X01</title>
    <line  stroke="white" stroke-linecap="round" y1="1.8" x1="51.1384" y2="0" stroke-width="0.576" x2="49.3384"/>
    <line  stroke="white" stroke-linecap="round" y1="0" x1="49.3384" y2="0" stroke-width="0.576" x2="45.7384"/>
    <line  stroke="white" stroke-linecap="round" y1="0" x1="45.7384" y2="1.8" stroke-width="0.576" x2="43.9384"/>
    <line  stroke="white" stroke-linecap="round" y1="1.8" x1="43.9384" y2="5.4" stroke-width="0.576" x2="43.9384"/>
    <line  stroke="white" stroke-linecap="round" y1="5.4" x1="43.9384" y2="7.2" stroke-width="0.576" x2="45.7384"/>
    <line  stroke="white" stroke-linecap="round" y1="7.2" x1="45.7384" y2="7.2" stroke-width="0.576" x2="49.3384"/>
    <line  stroke="white" stroke-linecap="round" y1="7.2" x1="49.3384" y2="5.4" stroke-width="0.576" x2="51.1384"/>
    <line  stroke="white" stroke-linecap="round" y1="5.4" x1="51.1384" y2="1.8" stroke-width="0.576" x2="51.1384"/>
   </g>
  </g>
  <g >
   <title >element:X1</title>
   <g >
    <title >package:USB-MICROB</title>
    <line  stroke="white" stroke-linecap="round" y1="26.3622" x1="11.4816" y2="26.3622" stroke-width="0.576" x2="16.0171"/>
    <line  stroke="white" stroke-linecap="round" y1="26.3622" x1="16.0171" y2="29.7638" stroke-width="0.576" x2="16.0171"/>
    <line  stroke="white" stroke-linecap="round" y1="45.6378" x1="16.0171" y2="42.2362" stroke-width="0.576" x2="16.0171"/>
    <line  stroke="white" stroke-linecap="round" y1="45.6378" x1="11.4816" y2="45.6378" stroke-width="0.576" x2="16.0171"/>
    <line  stroke="white" stroke-linecap="round" y1="26.3622" x1="3.82811" y2="45.6378" stroke-width="0.576" x2="3.82811"/>
    <line  stroke="white" stroke-linecap="round" y1="29.7638" x1="16.0171" y2="29.7638" stroke-width="0.576" x2="12.0486"/>
    <line  stroke="white" stroke-linecap="round" y1="29.7638" x1="12.0486" y2="42.2362" stroke-width="0.576" x2="12.0486"/>
    <line  stroke="white" stroke-linecap="round" y1="42.2362" x1="12.0486" y2="42.2362" stroke-width="0.576" x2="16.0171"/>
   </g>
  </g>
  <line  fill="none" stroke="white" fill-opacity="1" y1="47.3386" x1="0.288" y2="47.3386" stroke-width="0.576" x2="4.33835"/>
  <line  fill="none" stroke="white" fill-opacity="1" y1="24.6614" x1="0.288" y2="24.6614" stroke-width="0.576" x2="4.33835"/>
  <line  fill="none" stroke="white" fill-opacity="1" y1="47.3386" x1="0.288" y2="24.6614" stroke-width="0.576" x2="0.288"/>
 </g>
 <g  id="copper1">
  <g  id="copper0">
   <circle  fill="none" cx="33.1384" cy="3.6" connectorname="VCC" stroke="#F7BD13" r="2.052" id="connector18pad" stroke-width="1.224"/>
   <circle  fill="none" cx="40.3384" cy="3.6" connectorname="GND" stroke="#F7BD13" r="2.052" id="connector19pad" stroke-width="1.224"/>
   <circle  fill="none" cx="33.1384" cy="68.4" connectorname="5VIN" stroke="#F7BD13" r="2.052" id="connector20pad" stroke-width="1.224"/>
   <circle  fill="none" cx="40.3384" cy="68.4" connectorname="GND" stroke="#F7BD13" r="2.052" id="connector21pad" stroke-width="1.224"/>
   <circle  fill="none" cx="47.5384" cy="39.6" connectorname="VBATT" stroke="#F7BD13" r="2.052" id="connector22pad" stroke-width="1.224"/>
   <circle  fill="none" cx="47.5384" cy="32.4" connectorname="GND" stroke="#F7BD13" r="2.052" id="connector23pad" stroke-width="1.224"/>
   <circle  fill="none" cx="25.9384" cy="3.6" connectorname="PS" stroke="#F7BD13" r="2.052" id="connector24pad" stroke-width="1.224"/>
   <circle  fill="none" cx="47.5384" cy="3.6" connectorname="EN" stroke="#F7BD13" r="2.052" id="connector25pad" stroke-width="1.224"/>
  </g>
 </g>
</svg>
