<?xml version='1.0' encoding='utf-8'?>
<!DOCTYPE svg>
<!-- Generator: Adobe Illustrator 17.1.0, SVG Export Plug-In . SVG Version: 6.00 Build 0)  -->
<svg xmlns="http://www.w3.org/2000/svg" viewBox="0 0 57.6 57.6" id="Layer_1" enable-background="new 0 0 57.6 57.6" x="0px" y="0px" width="0.8in" version="1.1" height="0.8in" xml:space="preserve" gorn="0"  xmlns:xml="http://www.w3.org/XML/1998/namespace">
    <desc >
        <referenceFile >TB6612FNG Breakout v11_pcb.svg</referenceFile>
    </desc>
    <desc >Fritzing footprint generated by brd2svg</desc>
    <g id="silkscreen" gorn="0.2" >
        <path fill="none" stroke-width="0.576" d="M0.3,57.3h57v-57h-57V57.3" stroke="#FFFFFF" />
        <g >
            <title >element:C3</title>
            <g >
                <title >package:EIA3528</title>
                <line fill="none" stroke-width="0.576" y1="6.3" y2="6.3" stroke="#FFFFFF" stroke-linecap="round" x1="31.4" x2="36.2" />
                <line fill="none" stroke-width="0.576" y1="6.3" y2="15.2" stroke="#FFFFFF" stroke-linecap="round" x1="36.2" x2="36.2" />
                <line fill="none" stroke-width="0.576" y1="15.2" y2="15.2" stroke="#FFFFFF" stroke-linecap="round" x1="36.2" x2="31.4" />
                <line fill="none" stroke-width="0.576" y1="6.4" y2="6.4" stroke="#FFFFFF" stroke-linecap="round" x1="26" x2="22.6" />
                <line fill="none" stroke-width="0.576" y1="6.4" y2="7.4" stroke="#FFFFFF" stroke-linecap="round" x1="22.6" x2="21.4" />
                <line fill="none" stroke-width="0.576" y1="7.4" y2="14.3" stroke="#FFFFFF" stroke-linecap="round" x1="21.4" x2="21.4" />
                <line fill="none" stroke-width="0.576" y1="14.3" y2="15.2" stroke="#FFFFFF" stroke-linecap="round" x1="21.4" x2="22.6" />
                <line fill="none" stroke-width="0.576" y1="15.2" y2="15.2" stroke="#FFFFFF" stroke-linecap="round" x1="22.6" x2="26" />
                <line fill="none" stroke-width="0.576" y1="15.2" y2="15.2" stroke="#FFFFFF" stroke-linecap="round" x1="22.6" x2="26" />
                <line fill="none" stroke-width="0.576" y1="14.5" y2="7.2" stroke="#FFFFFF" stroke-linecap="round" x1="27.1" x2="27.1" />
            </g>
        </g>
        <g >
            <title >element:JP1</title>
            <g >
                <title >package:1X08_LONGPADS</title>
                <line fill="none" stroke-width="0.576" y1="57.6" y2="57.6" stroke="#FFFFFF" stroke-linecap="round" x1="5.4" x2="9" />
                <line fill="none" stroke-width="0.576" y1="0" y2="0" stroke="#FFFFFF" stroke-linecap="round" x1="5.4" x2="9" />
            </g>
        </g>
        <g >
            <title >element:JP2</title>
            <g >
                <title >package:1X08_LONGPADS</title>
                <line fill="none" stroke-width="0.576" y1="0" y2="0" stroke="#FFFFFF" stroke-linecap="round" x1="52.2" x2="48.6" />
                <line fill="none" stroke-width="0.576" y1="57.6" y2="57.6" stroke="#FFFFFF" stroke-linecap="round" x1="52.2" x2="48.6" />
            </g>
        </g>
        <g >
            <title >element:U1</title>
            <g >
                <title >package:SSOP24</title>
                <line fill="none" stroke-width="0.576" y1="20.4" y2="44.4" stroke="#FFFFFF" stroke-linecap="round" x1="35.9" x2="35.9" />
                <line fill="none" stroke-width="0.576" y1="44.4" y2="44.4" stroke="#FFFFFF" stroke-linecap="round" x1="35.9" x2="21.7" />
                <line fill="none" stroke-width="0.576" y1="44.4" y2="20.4" stroke="#FFFFFF" stroke-linecap="round" x1="21.7" x2="21.7" />
                <line fill="none" stroke-width="0.576" y1="20.4" y2="20.4" stroke="#FFFFFF" stroke-linecap="round" x1="21.7" x2="35.9" />
                <circle r="0.6" fill="none" stroke-width="0.576" cx="23.8" stroke="#FFFFFF" cy="22.3" />
            </g>
        </g>
    </g>
    <g id="copper1" gorn="0.3" >
        <g id="copper0" gorn="0.3.0" >
            <circle id="connector7pin" r="2.1" fill="none" stroke-width="1.224" cx="50.4" stroke="#F7BD13" cy="54" gorn="0.3.0.0" />
            <path fill="#F7BD13" d="M45.7,51.9h9.4v4.1h-9.4V51.9 M48.3,54c0,1.1,0.9,2.1,2.1,2.1s2.1-0.9,2.1-2.1c0,0,0,0,0,0c0-1.1-0.9-2.1-2.1-2.1S48.3,52.9,48.3,54C48.3,54,48.3,54,48.3,54z" />
            <circle id="connector6pin" r="2.1" fill="none" stroke-width="1.224" cx="50.4" stroke="#F7BD13" cy="46.8" gorn="0.3.0.2" />
            <circle r="2.1" id="connector15pin" fill="none" stroke-width="1.224" cx="7.2" stroke="#F7BD13" cy="54" gorn="0.3.0.3" />
            <path fill="#F7BD13" d="M2.5,51.9h9.4v4.1H2.5V51.9 M5.1,54c0,1.1,0.9,2.1,2.1,2.1s2.1-0.9,2.1-2.1c0,0,0,0,0,0c0-1.1-0.9-2.1-2.1-2.1S5.1,52.9,5.1,54C5.1,54,5.1,54,5.1,54z" />
            <circle r="2.1" id="connector14pin" fill="none" stroke-width="1.224" cx="7.2" stroke="#F7BD13" cy="46.8" gorn="0.3.0.5" />
            <path fill="#F7BD13" d="M2.5,44.7h9.4v4.1H2.5V44.7 M5.1,46.8c0,1.1,0.9,2.1,2.1,2.1s2.1-0.9,2.1-2.1c0,0,0,0,0,0c0-1.1-0.9-2.1-2.1-2.1S5.1,45.7,5.1,46.8C5.1,46.8,5.1,46.8,5.1,46.8z" />
            <circle r="2.1" id="connector13pin" fill="none" stroke-width="1.224" cx="7.2" stroke="#F7BD13" cy="39.6" gorn="0.3.0.7" />
            <path fill="#F7BD13" d="M2.5,37.5h9.4v4.1H2.5V37.5 M5.1,39.6c0,1.1,0.9,2.1,2.1,2.1s2.1-0.9,2.1-2.1c0,0,0,0,0,0c0-1.1-0.9-2.1-2.1-2.1S5.1,38.5,5.1,39.6C5.1,39.6,5.1,39.6,5.1,39.6z" />
            <circle r="2.1" id="connector12pin" fill="none" stroke-width="1.224" cx="7.2" stroke="#F7BD13" cy="32.4" gorn="0.3.0.9" />
            <path fill="#F7BD13" d="M2.5,30.3h9.4v4.1H2.5V30.3 M5.1,32.4c0,1.1,0.9,2.1,2.1,2.1s2.1-0.9,2.1-2.1c0,0,0,0,0,0c0-1.1-0.9-2.1-2.1-2.1S5.1,31.3,5.1,32.4C5.1,32.4,5.1,32.4,5.1,32.4z" />
            <circle r="2.1" id="connector11pin" fill="none" stroke-width="1.224" cx="7.2" stroke="#F7BD13" cy="25.2" gorn="0.3.0.11" />
            <path fill="#F7BD13" d="M2.5,23.1h9.4v4.1H2.5V23.1 M5.1,25.2c0,1.1,0.9,2.1,2.1,2.1s2.1-0.9,2.1-2.1c0,0,0,0,0,0c0-1.1-0.9-2.1-2.1-2.1S5.1,24.1,5.1,25.2C5.1,25.2,5.1,25.2,5.1,25.2z" />
            <circle r="2.1" id="connector10pin" fill="none" stroke-width="1.224" cx="7.2" stroke="#F7BD13" cy="18" gorn="0.3.0.13" />
            <path fill="#F7BD13" d="M2.5,15.9h9.4v4.1H2.5V15.9 M5.1,18c0,1.1,0.9,2.1,2.1,2.1s2.1-0.9,2.1-2.1c0,0,0,0,0,0c0-1.1-0.9-2.1-2.1-2.1C6.1,15.9,5.1,16.9,5.1,18C5.1,18,5.1,18,5.1,18z" />
            <circle r="2.1" id="connector9pin" fill="none" stroke-width="1.224" cx="7.2" stroke="#F7BD13" cy="10.8" gorn="0.3.0.15" />
            <path fill="#F7BD13" d="M2.5,8.7h9.4v4.1H2.5V8.7 M5.1,10.8c0,1.1,0.9,2.1,2.1,2.1c1.1,0,2.1-0.9,2.1-2.1c0,0,0,0,0,0c0-1.1-0.9-2.1-2.1-2.1C6.1,8.7,5.1,9.7,5.1,10.8C5.1,10.8,5.1,10.8,5.1,10.8z" />
            <circle r="2.1" id="connector8pin" fill="none" stroke-width="1.224" cx="7.2" stroke="#F7BD13" cy="3.6" gorn="0.3.0.17" />
            <path fill="#F7BD13" d="M2.5,1.5h9.4v4.1H2.5V1.5 M5.1,3.6c0,1.1,0.9,2.1,2.1,2.1c1.1,0,2.1-0.9,2.1-2.1c0,0,0,0,0,0c0-1.1-0.9-2.1-2.1-2.1C6.1,1.5,5.1,2.5,5.1,3.6C5.1,3.6,5.1,3.6,5.1,3.6z" />
            <circle id="connector0pin" r="2.1" fill="none" stroke-width="1.224" cx="50.4" stroke="#F7BD13" cy="3.6" gorn="0.3.0.19" />
            <path fill="#F7BD13" d="M45.7,1.5h9.4v4.1h-9.4V1.5 M48.3,3.6c0,1.1,0.9,2.1,2.1,2.1c1.1,0,2.1-0.9,2.1-2.1c0,0,0,0,0,0c0-1.1-0.9-2.1-2.1-2.1C49.3,1.5,48.3,2.5,48.3,3.6C48.3,3.6,48.3,3.6,48.3,3.6z" />
            <circle id="connector1pin" r="2.1" fill="none" stroke-width="1.224" cx="50.4" stroke="#F7BD13" cy="10.8" gorn="0.3.0.21" />
            <path fill="#F7BD13" d="M45.7,8.7h9.4v4.1h-9.4V8.7 M48.3,10.8c0,1.1,0.9,2.1,2.1,2.1c1.1,0,2.1-0.9,2.1-2.1c0,0,0,0,0,0c0-1.1-0.9-2.1-2.1-2.1C49.3,8.7,48.3,9.7,48.3,10.8C48.3,10.8,48.3,10.8,48.3,10.8z" />
            <circle id="connector2pin" r="2.1" fill="none" stroke-width="1.224" cx="50.4" stroke="#F7BD13" cy="18" gorn="0.3.0.23" />
            <path fill="#F7BD13" d="M45.7,15.9h9.4v4.1h-9.4V15.9 M48.3,18c0,1.1,0.9,2.1,2.1,2.1s2.1-0.9,2.1-2.1c0,0,0,0,0,0c0-1.1-0.9-2.1-2.1-2.1C49.3,15.9,48.3,16.9,48.3,18C48.3,18,48.3,18,48.3,18z" />
            <circle id="connector3pin" r="2.1" fill="none" stroke-width="1.224" cx="50.4" stroke="#F7BD13" cy="25.2" gorn="0.3.0.25" />
            <path fill="#F7BD13" d="M45.7,23.1h9.4v4.1h-9.4V23.1 M48.3,25.2c0,1.1,0.9,2.1,2.1,2.1s2.1-0.9,2.1-2.1c0,0,0,0,0,0c0-1.1-0.9-2.1-2.1-2.1S48.3,24.1,48.3,25.2C48.3,25.2,48.3,25.2,48.3,25.2z" />
            <circle id="connector4pin" r="2.1" fill="none" stroke-width="1.224" cx="50.4" stroke="#F7BD13" cy="32.4" gorn="0.3.0.27" />
            <path fill="#F7BD13" d="M45.7,30.3h9.4v4.1h-9.4V30.3 M48.3,32.4c0,1.1,0.9,2.1,2.1,2.1s2.1-0.9,2.1-2.1c0,0,0,0,0,0c0-1.1-0.9-2.1-2.1-2.1S48.3,31.3,48.3,32.4C48.3,32.4,48.3,32.4,48.3,32.4z" />
            <circle id="connector5pin" r="2.1" fill="none" stroke-width="1.224" cx="50.4" stroke="#F7BD13" cy="39.6" gorn="0.3.0.29" />
            <path fill="#F7BD13" d="M45.7,37.5h9.4v4.1h-9.4V37.5 M48.3,39.6c0,1.1,0.9,2.1,2.1,2.1s2.1-0.9,2.1-2.1c0,0,0,0,0,0c0-1.1-0.9-2.1-2.1-2.1S48.3,38.5,48.3,39.6C48.3,39.6,48.3,39.6,48.3,39.6z" />
            <path fill="#F7BD13" d="M45.7,44.7h9.4v4.1h-9.4V44.7 M48.3,46.8c0,1.1,0.9,2.1,2.1,2.1s2.1-0.9,2.1-2.1c0,0,0,0,0,0c0-1.1-0.9-2.1-2.1-2.1S48.3,45.7,48.3,46.8C48.3,46.8,48.3,46.8,48.3,46.8z" />
        </g>
    </g>
</svg>
