<?xml version='1.0' encoding='utf-8'?>
<!DOCTYPE svg>
<!-- Generator: Adobe Illustrator 17.0.0, SVG Export Plug-In . SVG Version: 6.00 Build 0)  -->
<svg xmlns="http://www.w3.org/2000/svg" width="1.7in" x="0px" version="1.1" y="0px" gorn="0"  height="0.9in" viewBox="0 0 122.4 64.8" xmlns:xml="http://www.w3.org/XML/1998/namespace" id="Layer_1" enable-background="new 0 0 122.4 64.8" xml:space="preserve">
    <desc >
        <referenceFile >sound-detector_pcb.svg</referenceFile>
    </desc>
    <desc >Fritzing footprint generated by brd2svg</desc>
    <g gorn="0.2"  id="silkscreen">
        <path fill="none"  stroke="#FFFFFF" stroke-width="0.576" d="M0.288,64.512h121.824V0.288H0.288V64.512 M2.808,7.2c0-2.426,1.966-4.392,4.392-4.392s4.392,1.966,4.392,4.392S9.626,11.592,7.2,11.592S2.808,9.626,2.808,7.2z M110.808,7.2c-0.002-2.426,1.962-4.394,4.388-4.396c2.426-0.002,4.394,1.962,4.396,4.388c0,0.003,0,0.005,0,0.008c0.002,2.426-1.962,4.394-4.388,4.396s-4.394-1.962-4.396-4.388C110.808,7.205,110.808,7.203,110.808,7.2z"/>
        <g >
            <title >element:IC1</title>
            <g >
                <title >package:SO014</title>
                <line fill="none"  stroke="#FFFFFF" stroke-linecap="round" y1="26.316" stroke-width="0.432" x1="67.824" y2="26.316" x2="43.776"/>
                <path fill="none"  stroke="#FFFFFF" stroke-width="0.432" d="M67.824,38.484c0.596,0,1.08-0.484,1.08-1.08v0"/>
                <path fill="none"  stroke="#FFFFFF" stroke-width="0.432" d="M43.776,26.316c-0.596,0-1.08,0.484-1.08,1.08v0"/>
                <path fill="none"  stroke="#FFFFFF" stroke-width="0.432" d="M68.904,27.396c0-0.596-0.484-1.08-1.08-1.08l0,0"/>
                <path fill="none"  stroke="#FFFFFF" stroke-width="0.432" d="M42.696,37.404c0,0.596,0.484,1.08,1.08,1.08h0"/>
                <line fill="none"  stroke="#FFFFFF" stroke-linecap="round" y1="38.484" stroke-width="0.432" x1="43.776" y2="38.484" x2="67.824"/>
                <line fill="none"  stroke="#FFFFFF" stroke-linecap="round" y1="37.404" stroke-width="0.432" x1="68.904" y2="27.396" x2="68.904"/>
                <line fill="none"  stroke="#FFFFFF" stroke-linecap="round" y1="27.396" stroke-width="0.432" x1="42.696" y2="28.8" x2="42.696"/>
                <line fill="none"  stroke="#FFFFFF" stroke-linecap="round" y1="28.8" stroke-width="0.432" x1="42.696" y2="36" x2="42.696"/>
                <line fill="none"  stroke="#FFFFFF" stroke-linecap="round" y1="36" stroke-width="0.432" x1="42.696" y2="37.404" x2="42.696"/>
                <path fill="none"  stroke="#FFFFFF" stroke-width="0.432" d="M42.696,36c1.988,0,3.6-1.612,3.6-3.6c0-1.988-1.612-3.6-3.6-3.6"/>
                <rect width="1.44" x="44.28" y="38.844" fill="#FFFFFF"  height="0.36"/>
                <rect width="1.44" x="44.28" y="38.844" fill="#FFFFFF"  height="0.36"/>
                <rect width="1.44" x="47.88" y="38.844" fill="#FFFFFF"  height="0.36"/>
                <rect width="1.44" x="51.48" y="38.844" fill="#FFFFFF"  height="0.36"/>
                <rect width="1.44" x="55.08" y="38.844" fill="#FFFFFF"  height="0.36"/>
                <rect width="1.44" x="58.68" y="38.844" fill="#FFFFFF"  height="0.36"/>
                <rect width="1.44" x="62.28" y="38.844" fill="#FFFFFF"  height="0.36"/>
                <rect width="1.44" x="65.88" y="38.844" fill="#FFFFFF"  height="0.36"/>
                <rect width="1.44" x="44.28" y="26.316" fill="#FFFFFF"  height="0.36"/>
                <rect width="1.44" x="44.28" y="26.316" fill="#FFFFFF"  height="0.36"/>
                <rect width="1.44" x="47.88" y="26.316" fill="#FFFFFF"  height="0.36"/>
                <rect width="1.44" x="51.48" y="26.316" fill="#FFFFFF"  height="0.36"/>
                <rect width="1.44" x="55.08" y="26.316" fill="#FFFFFF"  height="0.36"/>
                <rect width="1.44" x="58.68" y="26.316" fill="#FFFFFF"  height="0.36"/>
                <rect width="1.44" x="62.28" y="26.316" fill="#FFFFFF"  height="0.36"/>
                <rect width="1.44" x="65.88" y="26.316" fill="#FFFFFF"  height="0.36"/>
            </g>
        </g>
        <g >
            <title >element:JP1</title>
            <g >
                <title >package:1X05</title>
                <line fill="none"  stroke="#FFFFFF" stroke-linecap="round" y1="30.6" stroke-width="0.576" x1="115.2" y2="27" x2="115.2"/>
                <line fill="none"  stroke="#FFFFFF" stroke-linecap="round" y1="27" stroke-width="0.576" x1="115.2" y2="25.2" x2="117"/>
                <line fill="none"  stroke="#FFFFFF" stroke-linecap="round" y1="25.2" stroke-width="0.576" x1="120.6" y2="27" x2="122.4"/>
                <line fill="none"  stroke="#FFFFFF" stroke-linecap="round" y1="25.2" stroke-width="0.576" x1="117" y2="23.4" x2="115.2"/>
                <line fill="none"  stroke="#FFFFFF" stroke-linecap="round" y1="23.4" stroke-width="0.576" x1="115.2" y2="19.8" x2="115.2"/>
                <line fill="none"  stroke="#FFFFFF" stroke-linecap="round" y1="19.8" stroke-width="0.576" x1="115.2" y2="18" x2="117"/>
                <line fill="none"  stroke="#FFFFFF" stroke-linecap="round" y1="18" stroke-width="0.576" x1="120.6" y2="19.8" x2="122.4"/>
                <line fill="none"  stroke="#FFFFFF" stroke-linecap="round" y1="19.8" stroke-width="0.576" x1="122.4" y2="23.4" x2="122.4"/>
                <line fill="none"  stroke="#FFFFFF" stroke-linecap="round" y1="23.4" stroke-width="0.576" x1="122.4" y2="25.2" x2="120.6"/>
                <line fill="none"  stroke="#FFFFFF" stroke-linecap="round" y1="39.6" stroke-width="0.576" x1="117" y2="37.8" x2="115.2"/>
                <line fill="none"  stroke="#FFFFFF" stroke-linecap="round" y1="37.8" stroke-width="0.576" x1="115.2" y2="34.2" x2="115.2"/>
                <line fill="none"  stroke="#FFFFFF" stroke-linecap="round" y1="34.2" stroke-width="0.576" x1="115.2" y2="32.4" x2="117"/>
                <line fill="none"  stroke="#FFFFFF" stroke-linecap="round" y1="32.4" stroke-width="0.576" x1="120.6" y2="34.2" x2="122.4"/>
                <line fill="none"  stroke="#FFFFFF" stroke-linecap="round" y1="34.2" stroke-width="0.576" x1="122.4" y2="37.8" x2="122.4"/>
                <line fill="none"  stroke="#FFFFFF" stroke-linecap="round" y1="37.8" stroke-width="0.576" x1="122.4" y2="39.6" x2="120.6"/>
                <line fill="none"  stroke="#FFFFFF" stroke-linecap="round" y1="30.6" stroke-width="0.576" x1="115.2" y2="32.4" x2="117"/>
                <line fill="none"  stroke="#FFFFFF" stroke-linecap="round" y1="32.4" stroke-width="0.576" x1="120.6" y2="30.6" x2="122.4"/>
                <line fill="none"  stroke="#FFFFFF" stroke-linecap="round" y1="27" stroke-width="0.576" x1="122.4" y2="30.6" x2="122.4"/>
                <line fill="none"  stroke="#FFFFFF" stroke-linecap="round" y1="52.2" stroke-width="0.576" x1="115.2" y2="48.6" x2="115.2"/>
                <line fill="none"  stroke="#FFFFFF" stroke-linecap="round" y1="48.6" stroke-width="0.576" x1="115.2" y2="46.8" x2="117"/>
                <line fill="none"  stroke="#FFFFFF" stroke-linecap="round" y1="46.8" stroke-width="0.576" x1="120.6" y2="48.6" x2="122.4"/>
                <line fill="none"  stroke="#FFFFFF" stroke-linecap="round" y1="46.8" stroke-width="0.576" x1="117" y2="45" x2="115.2"/>
                <line fill="none"  stroke="#FFFFFF" stroke-linecap="round" y1="45" stroke-width="0.576" x1="115.2" y2="41.4" x2="115.2"/>
                <line fill="none"  stroke="#FFFFFF" stroke-linecap="round" y1="41.4" stroke-width="0.576" x1="115.2" y2="39.6" x2="117"/>
                <line fill="none"  stroke="#FFFFFF" stroke-linecap="round" y1="39.6" stroke-width="0.576" x1="120.6" y2="41.4" x2="122.4"/>
                <line fill="none"  stroke="#FFFFFF" stroke-linecap="round" y1="41.4" stroke-width="0.576" x1="122.4" y2="45" x2="122.4"/>
                <line fill="none"  stroke="#FFFFFF" stroke-linecap="round" y1="45" stroke-width="0.576" x1="122.4" y2="46.8" x2="120.6"/>
                <line fill="none"  stroke="#FFFFFF" stroke-linecap="round" y1="54" stroke-width="0.576" x1="117" y2="54" x2="120.6"/>
                <line fill="none"  stroke="#FFFFFF" stroke-linecap="round" y1="52.2" stroke-width="0.576" x1="115.2" y2="54" x2="117"/>
                <line fill="none"  stroke="#FFFFFF" stroke-linecap="round" y1="54" stroke-width="0.576" x1="120.6" y2="52.2" x2="122.4"/>
                <line fill="none"  stroke="#FFFFFF" stroke-linecap="round" y1="48.6" stroke-width="0.576" x1="122.4" y2="52.2" x2="122.4"/>
                <line fill="none"  stroke="#FFFFFF" stroke-linecap="round" y1="18" stroke-width="0.576" x1="117" y2="18" x2="120.6"/>
            </g>
        </g>
        <g >
            <title >element:MIC1</title>
            <g >
                <title >package:MIC-9.7MM</title>
                <circle fill="none" cx="14.4"  cy="32.4" stroke="#FFFFFF" r="13.748" stroke-width="0.576"/>
            </g>
        </g>
    </g>
    <g gorn="0.3"  id="copper1">
        <circle fill="none" cx="118.8" gorn="0.3.0"  cy="50.4" stroke="#F7BD13" id="connector4pin" r="2.052" stroke-width="1.224"/>
        <circle fill="none" cx="118.8" gorn="0.3.1"  cy="43.2" stroke="#F7BD13" id="connector3pin" r="2.052" stroke-width="1.224"/>
        <circle fill="none" cx="54" gorn="0.3.2"  cy="57.6" stroke="#F7BD13" id="connector6pin" r="2.052" stroke-width="1.224"/>
        <circle fill="none" cx="54" gorn="0.3.3"  cy="50.4" stroke="#F7BD13" id="connector5pin" r="2.052" stroke-width="1.224"/>
        <circle fill="none" cx="118.8" gorn="0.3.4"  cy="36" stroke="#F7BD13" id="connector2pin" r="2.052" stroke-width="1.224"/>
        <circle fill="none" cx="118.8" gorn="0.3.5"  cy="28.8" stroke="#F7BD13" id="connector1pin" r="2.052" stroke-width="1.224"/>
        <circle fill="none" cx="118.8" gorn="0.3.6"  cy="21.6" stroke="#F7BD13" id="connector0pin" r="2.052" stroke-width="1.224"/>
    </g>
</svg>
