<?xml version='1.0' encoding='UTF-8' standalone='no'?>
<!-- Created with Fritzing (http://www.fritzing.org/) -->
<svg xmlns="http://www.w3.org/2000/svg" height="0.4in" width="0.5in" version="1.2"  baseProfile="tiny" x="0in" y="0in" viewBox="0 0 36 28.8">
    <desc>
        <referenceFile>ADXL362 BOB v01_pcb.svg</referenceFile>
    </desc>
    <desc >Fritzing footprint generated by brd2svg</desc>
    <g gorn="0.1"  id="silkscreen">
        <path stroke-width="0.576" fill="none"  d="M0.288,28.512L35.712,28.512L35.712,0.288L0.288,0.288L0.288,28.512" stroke="white"/>
        <g >
            <title >element:C1</title>
            <g >
                <title >package:0402-CAP</title>
                <line y1="7.11354" y2="7.28647" x1="18" stroke-width="1.152" x2="18"  stroke-linecap="round" stroke="white"/>
            </g>
        </g>
        <g >
            <title >element:JP1</title>
            <g >
                <title >package:1X04</title>
                <line y1="5.4" y2="1.8" x1="0" stroke-width="0.576" x2="0"  stroke-linecap="round" stroke="white"/>
                <line y1="1.8" y2="0" x1="0" stroke-width="0.576" x2="1.8"  stroke-linecap="round" stroke="white"/>
                <line y1="0" y2="1.8" x1="5.4" stroke-width="0.576" x2="7.2"  stroke-linecap="round" stroke="white"/>
                <line y1="14.4" y2="12.6" x1="1.8" stroke-width="0.576" x2="0"  stroke-linecap="round" stroke="white"/>
                <line y1="12.6" y2="9" x1="0" stroke-width="0.576" x2="0"  stroke-linecap="round" stroke="white"/>
                <line y1="9" y2="7.2" x1="0" stroke-width="0.576" x2="1.8"  stroke-linecap="round" stroke="white"/>
                <line y1="7.2" y2="9" x1="5.4" stroke-width="0.576" x2="7.2"  stroke-linecap="round" stroke="white"/>
                <line y1="9" y2="12.6" x1="7.2" stroke-width="0.576" x2="7.2"  stroke-linecap="round" stroke="white"/>
                <line y1="12.6" y2="14.4" x1="7.2" stroke-width="0.576" x2="5.4"  stroke-linecap="round" stroke="white"/>
                <line y1="5.4" y2="7.2" x1="0" stroke-width="0.576" x2="1.8"  stroke-linecap="round" stroke="white"/>
                <line y1="7.2" y2="5.4" x1="5.4" stroke-width="0.576" x2="7.2"  stroke-linecap="round" stroke="white"/>
                <line y1="1.8" y2="5.4" x1="7.2" stroke-width="0.576" x2="7.2"  stroke-linecap="round" stroke="white"/>
                <line y1="27" y2="23.4" x1="0" stroke-width="0.576" x2="0"  stroke-linecap="round" stroke="white"/>
                <line y1="23.4" y2="21.6" x1="0" stroke-width="0.576" x2="1.8"  stroke-linecap="round" stroke="white"/>
                <line y1="21.6" y2="23.4" x1="5.4" stroke-width="0.576" x2="7.2"  stroke-linecap="round" stroke="white"/>
                <line y1="21.6" y2="19.8" x1="1.8" stroke-width="0.576" x2="0"  stroke-linecap="round" stroke="white"/>
                <line y1="19.8" y2="16.2" x1="0" stroke-width="0.576" x2="0"  stroke-linecap="round" stroke="white"/>
                <line y1="16.2" y2="14.4" x1="0" stroke-width="0.576" x2="1.8"  stroke-linecap="round" stroke="white"/>
                <line y1="14.4" y2="16.2" x1="5.4" stroke-width="0.576" x2="7.2"  stroke-linecap="round" stroke="white"/>
                <line y1="16.2" y2="19.8" x1="7.2" stroke-width="0.576" x2="7.2"  stroke-linecap="round" stroke="white"/>
                <line y1="19.8" y2="21.6" x1="7.2" stroke-width="0.576" x2="5.4"  stroke-linecap="round" stroke="white"/>
                <line y1="28.8" y2="28.8" x1="1.8" stroke-width="0.576" x2="5.4"  stroke-linecap="round" stroke="white"/>
                <line y1="27" y2="28.8" x1="0" stroke-width="0.576" x2="1.8"  stroke-linecap="round" stroke="white"/>
                <line y1="28.8" y2="27" x1="5.4" stroke-width="0.576" x2="7.2"  stroke-linecap="round" stroke="white"/>
                <line y1="23.4" y2="27" x1="7.2" stroke-width="0.576" x2="7.2"  stroke-linecap="round" stroke="white"/>
                <line y1="0" y2="0" x1="1.8" stroke-width="0.576" x2="5.4"  stroke-linecap="round" stroke="white"/>
            </g>
        </g>
        <g >
            <title >element:JP2</title>
            <g >
                <title >package:1X04</title>
                <line y1="23.4" y2="27" x1="36" stroke-width="0.576" x2="36"  stroke-linecap="round" stroke="white"/>
                <line y1="27" y2="28.8" x1="36" stroke-width="0.576" x2="34.2"  stroke-linecap="round" stroke="white"/>
                <line y1="28.8" y2="27" x1="30.6" stroke-width="0.576" x2="28.8"  stroke-linecap="round" stroke="white"/>
                <line y1="14.4" y2="16.2" x1="34.2" stroke-width="0.576" x2="36"  stroke-linecap="round" stroke="white"/>
                <line y1="16.2" y2="19.8" x1="36" stroke-width="0.576" x2="36"  stroke-linecap="round" stroke="white"/>
                <line y1="19.8" y2="21.6" x1="36" stroke-width="0.576" x2="34.2"  stroke-linecap="round" stroke="white"/>
                <line y1="21.6" y2="19.8" x1="30.6" stroke-width="0.576" x2="28.8"  stroke-linecap="round" stroke="white"/>
                <line y1="19.8" y2="16.2" x1="28.8" stroke-width="0.576" x2="28.8"  stroke-linecap="round" stroke="white"/>
                <line y1="16.2" y2="14.4" x1="28.8" stroke-width="0.576" x2="30.6"  stroke-linecap="round" stroke="white"/>
                <line y1="23.4" y2="21.6" x1="36" stroke-width="0.576" x2="34.2"  stroke-linecap="round" stroke="white"/>
                <line y1="21.6" y2="23.4" x1="30.6" stroke-width="0.576" x2="28.8"  stroke-linecap="round" stroke="white"/>
                <line y1="27" y2="23.4" x1="28.8" stroke-width="0.576" x2="28.8"  stroke-linecap="round" stroke="white"/>
                <line y1="1.8" y2="5.4" x1="36" stroke-width="0.576" x2="36"  stroke-linecap="round" stroke="white"/>
                <line y1="5.4" y2="7.2" x1="36" stroke-width="0.576" x2="34.2"  stroke-linecap="round" stroke="white"/>
                <line y1="7.2" y2="5.4" x1="30.6" stroke-width="0.576" x2="28.8"  stroke-linecap="round" stroke="white"/>
                <line y1="7.2" y2="9" x1="34.2" stroke-width="0.576" x2="36"  stroke-linecap="round" stroke="white"/>
                <line y1="9" y2="12.6" x1="36" stroke-width="0.576" x2="36"  stroke-linecap="round" stroke="white"/>
                <line y1="12.6" y2="14.4" x1="36" stroke-width="0.576" x2="34.2"  stroke-linecap="round" stroke="white"/>
                <line y1="14.4" y2="12.6" x1="30.6" stroke-width="0.576" x2="28.8"  stroke-linecap="round" stroke="white"/>
                <line y1="12.6" y2="9" x1="28.8" stroke-width="0.576" x2="28.8"  stroke-linecap="round" stroke="white"/>
                <line y1="9" y2="7.2" x1="28.8" stroke-width="0.576" x2="30.6"  stroke-linecap="round" stroke="white"/>
                <line y1="0" y2="0" x1="34.2" stroke-width="0.576" x2="30.6"  stroke-linecap="round" stroke="white"/>
                <line y1="1.8" y2="0" x1="36" stroke-width="0.576" x2="34.2"  stroke-linecap="round" stroke="white"/>
                <line y1="0" y2="1.8" x1="30.6" stroke-width="0.576" x2="28.8"  stroke-linecap="round" stroke="white"/>
                <line y1="5.4" y2="1.8" x1="28.8" stroke-width="0.576" x2="28.8"  stroke-linecap="round" stroke="white"/>
                <line y1="28.8" y2="28.8" x1="34.2" stroke-width="0.576" x2="30.6"  stroke-linecap="round" stroke="white"/>
            </g>
        </g>
        <g >
            <title >element:JP3</title>
            <g >
                <title >package:SFE-LOGO-FLAME</title>
                <g >
                    <title >polygon</title>
                    <path stroke-width="0.072" fill="none"  stroke-linecap="round" d="M12.3483,22.3415L12.2113,22.32M12.2113,22.32L11.9449,22.2992M11.9449,22.2992L11.6785,22.32M11.6785,22.32L11.4803,22.3722M11.4803,22.3722L11.2966,22.4631M11.2966,22.4631L11.1349,22.5891M11.1349,22.5891L11.0018,22.7449M11.0018,22.7449L10.8881,22.9523M10.8881,22.9523L10.82,23.1787M10.82,23.1787L10.8003,23.4145M10.8003,23.4145L10.8003,27.7129M10.8003,27.7129L12.1825,26.1575M12.1825,26.1575L12.4285,25.9321M12.4285,25.9321L12.7153,25.7615M12.7153,25.7615L12.8209,25.7234M12.8209,25.7234L12.9313,25.704M12.9313,25.704L13.5793,25.704M13.5793,25.704L13.9658,25.6689M13.9658,25.6689L14.3395,25.5645M14.3395,25.5645L14.6883,25.3945M14.6883,25.3945L15.0164,25.1628M15.0164,25.1628L15.3086,24.8873M15.3086,24.8873L15.5593,24.5735M15.5593,24.5735L15.8278,24.0971M15.8278,24.0971L16.0057,23.5801M16.0057,23.5801L16.0875,23.0394M16.0875,23.0394L16.0705,22.4929M16.0705,22.4929L16.0119,22.1982M16.0119,22.1982L15.9104,21.9153M15.9104,21.9153L15.7683,21.6505M15.7683,21.6505L15.5114,21.3281M15.5114,21.3281L15.1923,21.0671M15.1923,21.0671L15.1923,21.3191M15.1923,21.3191L15.1867,21.3602M15.1867,21.3602L15.1705,21.3985M15.1705,21.3985L15.0864,21.5026M15.0864,21.5026L14.9763,21.5785M14.9763,21.5785L14.9185,21.6M14.9185,21.6L14.7562,21.6174M14.7562,21.6174L14.5958,21.5878M14.5958,21.5878L14.4505,21.5135M14.4505,21.5135L14.1913,21.3265M14.1913,21.3265L14.0713,21.2233M14.0713,21.2233L13.9683,21.1031M13.9683,21.1031L13.8851,20.9685M13.8851,20.9685L13.8243,20.8225M13.8243,20.8225L13.8058,20.7297M13.8058,20.7297L13.8098,20.6351M13.8098,20.6351L13.8568,20.479M13.8568,20.479L13.9429,20.3406M13.9429,20.3406L14.0619,20.2294M14.0619,20.2294L14.2058,20.1529M14.2058,20.1529L14.351,20.1118M14.351,20.1118L14.5009,20.0951M14.5009,20.0951L14.6738,20.0951M14.6738,20.0951L14.6735,20.0951M14.6735,20.0951L14.6665,20.088M14.6665,20.088L14.5433,19.9922M14.5433,19.9922L14.4003,19.9295M14.4003,19.9295L14.2993,19.8865M14.2993,19.8865L14.2345,19.8575M14.2345,19.8575L13.9857,19.7953M13.9857,19.7953L13.7305,19.7711M13.7305,19.7711L13.4842,19.7898M13.4842,19.7898L13.2461,19.8555M13.2461,19.8555L13.0249,19.9655M13.0249,19.9655L12.8046,20.1244M12.8046,20.1244L12.6073,20.3111M12.6073,20.3111L12.4851,20.4822M12.4851,20.4822L12.4093,20.6784M12.4093,20.6784L12.3848,20.8873M12.3848,20.8873L12.413,21.0956M12.413,21.0956L12.4923,21.2905M12.4923,21.2905L12.8285,21.7889M12.8285,21.7889L13.2409,22.2265M13.2409,22.2265L13.3496,22.3538M13.3496,22.3538L13.4217,22.505M13.4217,22.505L13.4522,22.6696M13.4522,22.6696L13.4392,22.8365M13.4392,22.8365L13.3835,22.9944M13.3835,22.9944L13.2889,23.1325M13.2889,23.1325L13.1618,23.2415M13.1618,23.2415L13.0019,23.3277M13.0019,23.3277L12.8298,23.3859M12.8298,23.3859L12.6505,23.4145M12.6505,23.4145L12.4408,23.404M12.4408,23.404L12.2401,23.3428M12.2401,23.3428L12.0603,23.2345M12.0603,23.2345L11.9649,23.1342M11.9649,23.1342L11.9018,23.0111M11.9018,23.0111L11.8737,22.8849M11.8737,22.8849L11.8737,22.7557M11.8737,22.7557L11.9018,22.6295M11.9018,22.6295L11.9273,22.5812M11.9273,22.5812L11.9665,22.5431M11.9665,22.5431L12.2043,22.3705M12.2043,22.3705L12.2487,22.3466M12.2487,22.3466L12.2981,22.3367M12.2981,22.3367L12.3483,22.3415M10.8003,27.648L10.858,27.648M10.8003,27.576L10.922,27.576M10.8003,27.504L10.9859,27.504M10.8003,27.432L11.0499,27.432M10.8003,27.36L11.1139,27.36M10.8003,27.288L11.1779,27.288M10.8003,27.216L11.2419,27.216M10.8003,27.144L11.3059,27.144M10.8003,27.072L11.3698,27.072M10.8003,27L11.4338,27M10.8003,26.928L11.4978,26.928M10.8003,26.856L11.5618,26.856M10.8003,26.784L11.6258,26.784M10.8003,26.712L11.6897,26.712M10.8003,26.64L11.7537,26.64M10.8003,26.568L11.8177,26.568M10.8003,26.496L11.8817,26.496M10.8003,26.424L11.9457,26.424M10.8003,26.352L12.0097,26.352M10.8003,26.28L12.0736,26.28M10.8003,26.208L12.1376,26.208M10.8003,26.136L12.2059,26.136M10.8003,26.064L12.2846,26.064M10.8003,25.992L12.3631,25.992M10.8003,25.92L12.4489,25.92M10.8003,25.848L12.57,25.848M10.8003,25.776L12.6911,25.776M10.8003,25.704L13.5793,25.704M10.8003,25.632L14.0977,25.632M10.8003,25.56L14.3488,25.56M10.8003,25.488L14.4964,25.488M10.8003,25.416L14.6441,25.416M10.8003,25.344L14.7597,25.344M10.8003,25.272L14.8617,25.272M10.8003,25.2L14.9637,25.2M10.8003,25.128L15.0533,25.128M10.8003,25.056L15.1296,25.056M10.8003,24.984L15.2061,24.984M10.8003,24.912L15.2825,24.912M10.8003,24.84L15.3465,24.84M10.8003,24.768L15.404,24.768M10.8003,24.696L15.4615,24.696M10.8003,24.624L15.519,24.624M10.8003,24.552L15.5715,24.552M10.8003,24.48L15.612,24.48M10.8003,24.408L15.6527,24.408M10.8003,24.336L15.6932,24.336M10.8003,24.264L15.7337,24.264M10.8003,24.192L15.7743,24.192M10.8003,24.12L15.8149,24.12M10.8003,24.048L15.8447,24.048M10.8003,23.976L15.8694,23.976M10.8003,23.904L15.8942,23.904M10.8003,23.832L15.9191,23.832M10.8003,23.76L15.9438,23.76M10.8003,23.688L15.9686,23.688M10.8003,23.616L15.9934,23.616M10.8003,23.544L16.0112,23.544M10.8003,23.472L16.0221,23.472M10.8015,23.4L12.4276,23.4M12.7413,23.4L16.033,23.4M10.8075,23.328L12.2155,23.328M13.0011,23.328L16.0439,23.328M10.8135,23.256L12.096,23.256M13.135,23.256L16.0548,23.256M10.8196,23.184L12.0123,23.184M13.2289,23.184L16.0656,23.184M10.8401,23.112L11.9535,23.112M13.3029,23.112L16.0766,23.112M10.8618,23.04L11.9166,23.04M13.3523,23.04L16.0875,23.04M10.8834,22.968L11.8922,22.968M13.3928,22.968L16.0853,22.968M10.919,22.896L11.8762,22.896M13.4182,22.896L16.0831,22.896M10.9585,22.824L11.8737,22.824M13.4402,22.824L16.0808,22.824M10.9979,22.752L11.8745,22.752M13.4458,22.752L16.0785,22.752M11.0573,22.68L11.8906,22.68M13.4514,22.68L16.0763,22.68M11.1187,22.608L11.9132,22.608M13.4407,22.608L16.0741,22.608M11.2031,22.536L11.9762,22.536M13.4274,22.536L16.0718,22.536M11.2955,22.464L12.0754,22.464M13.4021,22.464L16.0647,22.464M11.4403,22.392L12.1746,22.392M13.3677,22.392L16.0504,22.392M11.6785,22.32L12.2113,22.32M13.3207,22.32L16.0361,22.32M13.2593,22.248L16.0218,22.248M13.1934,22.176L16.0039,22.176M13.1255,22.104L15.9781,22.104M13.0576,22.032L15.9523,22.032M12.9898,21.96L15.9265,21.96M12.9219,21.888L15.8958,21.888M12.8541,21.816L15.8571,21.816M12.7982,21.744L15.8185,21.744M12.7497,21.672L15.7799,21.672M12.7011,21.6L14.662,21.6M14.9185,21.6L15.728,21.6M12.6526,21.528L14.4788,21.528M15.0495,21.528L15.6707,21.528M12.604,21.456L14.3708,21.456M15.124,21.456L15.6133,21.456M12.5554,21.384L14.271,21.384M15.1766,21.384L15.556,21.384M12.5068,21.312L14.1746,21.312M15.1923,21.312L15.4917,21.312M12.4718,21.24L14.0908,21.24M15.1923,21.24L15.4037,21.24M12.4425,21.168L14.0239,21.168M15.1923,21.168L15.3156,21.168M12.4132,21.096L13.9639,21.096M15.1923,21.096L15.2276,21.096M12.4033,21.024L13.9195,21.024M12.3936,20.952L13.8783,20.952M12.3857,20.88L13.8483,20.88M12.3941,20.808L13.8214,20.808M12.4026,20.736L13.8071,20.736M12.4149,20.664L13.8086,20.664M12.4427,20.592L13.8228,20.592M12.4705,20.52L13.8445,20.52M12.5096,20.448L13.8761,20.448M12.561,20.376L13.9209,20.376M12.6148,20.304L13.982,20.304M12.6909,20.232L14.0591,20.232M12.767,20.16L14.1925,20.16M12.8551,20.088L14.6665,20.088M12.955,20.016L14.5739,20.016M13.0682,19.944L14.4333,19.944M13.2129,19.872L14.2669,19.872M13.4474,19.8L14.0044,19.8" stroke="white"/>
                </g>
            </g>
        </g>
        <g >
            <title >element:U$1</title>
            <g >
                <title >package:OSHW-LOGO-S</title>
                <g >
                    <title >polygon</title>
                    <path stroke-width="0.425197" fill="none"  stroke-linecap="round" d="M23.4388,27.1809L23.8692,26.9592M23.8692,26.9592L24.9378,27.8305M24.9378,27.8305L25.6705,27.0978M25.6705,27.0978L24.7992,26.0292M24.7992,26.0292L25.0209,25.5987M25.0209,25.5987L25.1685,25.1376M25.1685,25.1376L26.5402,24.9982M26.5402,24.9982L26.5402,23.9618M26.5402,23.9618L25.1685,23.8224M25.1685,23.8224L25.0209,23.3613M25.0209,23.3613L24.7992,22.9308M24.7992,22.9308L25.6705,21.8622M25.6705,21.8622L24.9378,21.1295M24.9378,21.1295L23.8692,22.0008M23.8692,22.0008L23.4387,21.7791M23.4387,21.7791L22.9776,21.6315M22.9776,21.6315L22.8382,20.2598M22.8382,20.2598L21.8018,20.2598M21.8018,20.2598L21.6624,21.6315M21.6624,21.6315L21.2013,21.7791M21.2013,21.7791L20.7708,22.0008M20.7708,22.0008L19.7022,21.1295M19.7022,21.1295L18.9695,21.8622M18.9695,21.8622L19.8408,22.9308M19.8408,22.9308L19.6191,23.3613M19.6191,23.3613L19.4715,23.8224M19.4715,23.8224L18.0998,23.9618M18.0998,23.9618L18.0998,24.9982M18.0998,24.9982L19.4715,25.1376M19.4715,25.1376L19.6191,25.5987M19.6191,25.5987L19.8408,26.0292M19.8408,26.0292L18.9695,27.0978M18.9695,27.0978L19.7022,27.8305M19.7022,27.8305L20.7708,26.9592M20.7708,26.9592L21.2012,27.1809M21.2012,27.1809L21.8115,25.7077M21.8115,25.7077L21.5389,25.5551M21.5389,25.5551L21.3095,25.3431M21.3095,25.3431L21.136,25.0833M21.136,25.0833L21.0278,24.7902M21.0278,24.7902L20.9911,24.48M20.9911,24.48L21.0293,24.1642M21.0293,24.1642L21.1414,23.8666M21.1414,23.8666L21.3209,23.6041M21.3209,23.6041L21.5578,23.3918M21.5578,23.3918L21.8383,23.2419M21.8383,23.2419L22.1464,23.163M22.1464,23.163L22.4645,23.1595M22.4645,23.1595L22.7742,23.2317M22.7742,23.2317L23.0579,23.3755M23.0579,23.3755L23.2993,23.5826M23.2993,23.5826L23.4846,23.8411M23.4846,23.8411L23.6031,24.1363M23.6031,24.1363L23.6481,24.4511M23.6481,24.4511L23.617,24.7676M23.617,24.7676L23.5115,25.0677M23.5115,25.0677L23.3378,25.3341M23.3378,25.3341L23.1057,25.5516M23.1057,25.5516L22.8285,25.7077M22.8285,25.7077L23.4388,27.1809M19.328,27.4564L20.1611,27.4564M24.4789,27.4564L25.312,27.4564M19.0238,27.0312L20.6826,27.0312M20.9106,27.0312L21.2632,27.0312M23.3768,27.0312L23.7294,27.0312M23.9574,27.0312L25.6162,27.0312M19.3704,26.606L21.4393,26.606M23.2007,26.606L25.2696,26.606M19.7172,26.1808L21.6155,26.1808M23.0245,26.1808L24.9229,26.1808M19.6999,25.7556L21.7916,25.7556M22.8484,25.7556L24.9401,25.7556M19.5332,25.3304L21.3011,25.3304M23.3402,25.3304L25.1068,25.3304M18.0998,24.9052L21.0702,24.9052M23.5686,24.9052L26.5402,24.9052M18.0998,24.48L20.9911,24.48M23.6453,24.48L26.5402,24.48M18.0998,24.0548L21.0704,24.0548M23.5704,24.0548L26.5402,24.0548M19.5332,23.6296L21.3035,23.6296M23.333,23.6296L25.1068,23.6296M19.6999,23.2044L21.9847,23.2044M22.657,23.2044L24.9401,23.2044M19.7171,22.7792L24.9228,22.7792M19.3704,22.354L25.2696,22.354M19.0238,21.9288L20.6826,21.9288M20.9107,21.9288L23.7294,21.9288M23.9574,21.9288L25.6162,21.9288M19.328,21.5036L20.1611,21.5036M21.6754,21.5036L22.9646,21.5036M24.4789,21.5036L25.312,21.5036M21.7186,21.0784L22.9214,21.0784M21.7619,20.6532L22.8781,20.6532" stroke="white"/>
                </g>
            </g>
        </g>
        <g >
            <title >element:U1</title>
            <g >
                <title >package:ADXL362</title>
                <line y1="18.652" y2="18.652" x1="15.874" stroke-width="0.36" x2="13.4646"  stroke-linecap="round" stroke="white"/>
                <line y1="18.652" y2="17.9433" x1="13.4646" stroke-width="0.36" x2="13.4646"  stroke-linecap="round" stroke="white"/>
                <line y1="18.652" y2="18.652" x1="20.126" stroke-width="0.36" x2="22.5354"  stroke-linecap="round" stroke="white"/>
                <line y1="18.652" y2="17.9433" x1="22.5354" stroke-width="0.36" x2="22.5354"  stroke-linecap="round" stroke="white"/>
                <line y1="10.148" y2="10.148" x1="20.126" stroke-width="0.36" x2="22.5354"  stroke-linecap="round" stroke="white"/>
                <line y1="10.148" y2="10.8567" x1="22.5354" stroke-width="0.36" x2="22.5354"  stroke-linecap="round" stroke="white"/>
                <line y1="10.148" y2="10.148" x1="15.874" stroke-width="0.36" x2="13.4646"  stroke-linecap="round" stroke="white"/>
                <line y1="10.148" y2="10.8567" x1="13.4646" stroke-width="0.36" x2="13.4646"  stroke-linecap="round" stroke="white"/>
                <line y1="10.8567" y2="9.43934" x1="12.7559" stroke-width="0.36" x2="12.7559"  stroke-linecap="round" stroke="white"/>
                <line y1="9.43934" y2="9.43934" x1="12.7559" stroke-width="0.36" x2="14.0315"  stroke-linecap="round" stroke="white"/>
            </g>
        </g>
    </g>
    <g gorn="0.2"  id="copper1">
        <g gorn="0.2.0"  id="copper0">
            <circle gorn="0.2.0.0" cx="3.6" cy="25.2" stroke-width="1.224" r="2.052" fill="none"  stroke="#F7BD13" connectorname="1"/>
            <rect height="4.104" gorn="0.2.0.1" width="4.104" stroke-width="1.224" fill="none"  x="1.548" y="23.148" stroke="#F7BD13" id="connector9pad"/>
            <circle gorn="0.2.0.2" cx="3.6" cy="18" stroke-width="1.224" r="2.052" fill="none"  stroke="#F7BD13" id="connector8pad" connectorname="2"/>
            <circle gorn="0.2.0.3" cx="3.6" cy="10.8" stroke-width="1.224" r="2.052" fill="none"  stroke="#F7BD13" id="connector7pad" connectorname="3"/>
            <circle gorn="0.2.0.4" cx="3.6" cy="3.6" stroke-width="1.224" r="2.052" fill="none"  stroke="#F7BD13" id="connector6pad" connectorname="4"/>
            <circle gorn="0.2.0.5" cx="32.4" cy="3.6" stroke-width="1.224" r="2.052" fill="none"  stroke="#F7BD13" connectorname="3.3V"/>
            <rect height="4.104" gorn="0.2.0.6" width="4.104" stroke-width="1.224" fill="none"  x="30.348" y="1.548" stroke="#F7BD13" id="connector2pad"/>
            <circle gorn="0.2.0.7" cx="32.4" cy="10.8" stroke-width="1.224" r="2.052" fill="none"  stroke="#F7BD13" id="connector3pad" connectorname="GND"/>
            <circle gorn="0.2.0.8" cx="32.4" cy="18" stroke-width="1.224" r="2.052" fill="none"  stroke="#F7BD13" id="connector4pad" connectorname="3"/>
            <circle gorn="0.2.0.9" cx="32.4" cy="25.2" stroke-width="1.224" r="2.052" fill="none"  stroke="#F7BD13" id="connector5pad" connectorname="4"/>
        </g>
    </g>
</svg>
