<?xml version='1.0' encoding='utf-8'?>
<!DOCTYPE svg>
<!-- Generator: Adobe Illustrator 17.0.0, SVG Export Plug-In . SVG Version: 6.00 Build 0)  -->
<svg xmlns="http://www.w3.org/2000/svg" width="1.4in" x="0px" version="1.1" y="0px" gorn="0"  height="1.5in" viewBox="0 0 100.8 108" xmlns:xml="http://www.w3.org/XML/1998/namespace" id="Layer_1" enable-background="new 0 0 100.8 108" xml:space="preserve">
    <desc >
        <referenceFile >OpenSegment_pcb.svg</referenceFile>
    </desc>
    <desc >Fritzing footprint generated by brd2svg</desc>
    <g gorn="0.2"  id="silkscreen">
        <path fill="none"  stroke="#FFFFFF" stroke-width="0.576" d="M100.512,0.288v107.424H0.288V0.288H100.512 M89.208,7.2c0,2.426,1.966,4.392,4.392,4.392c2.426,0,4.392-1.966,4.392-4.392c0.002-2.426-1.962-4.394-4.388-4.396c-2.426-0.002-4.394,1.962-4.396,4.388C89.208,7.195,89.208,7.197,89.208,7.2z M2.808,7.2c0,2.426,1.966,4.392,4.392,4.392s4.392-1.966,4.392-4.392S9.626,2.808,7.2,2.808S2.808,4.774,2.808,7.2z M89.208,100.8c0,2.426,1.966,4.392,4.392,4.392c2.426,0,4.392-1.966,4.392-4.392c0.002-2.426-1.962-4.394-4.388-4.396s-4.394,1.962-4.396,4.388C89.208,100.795,89.208,100.797,89.208,100.8z M2.808,100.8c0,2.426,1.966,4.392,4.392,4.392s4.392-1.966,4.392-4.392c0-2.426-1.966-4.392-4.392-4.392S2.808,98.374,2.808,100.8z"/>
        <line fill="none"  stroke="#FFFFFF" stroke-linecap="round" y1="104.4" stroke-width="1.08" x1="43.2" y2="100.08" x2="43.2"/>
        <line fill="none"  stroke="#FFFFFF" stroke-linecap="round" y1="100.08" stroke-width="1.08" x1="43.2" y2="98.28" x2="45"/>
        <line fill="none"  stroke="#FFFFFF" stroke-linecap="round" y1="100.08" stroke-width="1.08" x1="43.2" y2="98.28" x2="41.4"/>
        <line fill="none"  stroke="#FFFFFF" stroke-linecap="round" y1="104.4" stroke-width="1.08" x1="57.6" y2="100.08" x2="57.6"/>
        <line fill="none"  stroke="#FFFFFF" stroke-linecap="round" y1="104.4" stroke-width="1.08" x1="28.8" y2="100.08" x2="28.8"/>
        <line fill="none"  stroke="#FFFFFF" stroke-linecap="round" y1="100.08" stroke-width="1.08" x1="57.6" y2="98.28" x2="59.4"/>
        <line fill="none"  stroke="#FFFFFF" stroke-linecap="round" y1="100.08" stroke-width="1.08" x1="28.8" y2="98.28" x2="27"/>
        <line fill="none"  stroke="#FFFFFF" stroke-linecap="round" y1="100.08" stroke-width="1.08" x1="28.8" y2="98.28" x2="30.6"/>
        <line fill="none"  stroke="#FFFFFF" stroke-linecap="round" y1="100.08" stroke-width="1.08" x1="57.6" y2="98.28" x2="55.8"/>
        <line fill="none"  stroke="#FFFFFF" stroke-linecap="round" y1="100.08" stroke-width="1.08" x1="86.4" y2="98.28" x2="84.6"/>
        <line fill="none"  stroke="#FFFFFF" stroke-linecap="round" y1="104.4" stroke-width="1.08" x1="86.4" y2="100.08" x2="86.4"/>
        <line fill="none"  stroke="#FFFFFF" stroke-linecap="round" y1="104.4" stroke-width="1.08" x1="14.4" y2="100.08" x2="14.4"/>
        <line fill="none"  stroke="#FFFFFF" stroke-linecap="round" y1="100.08" stroke-width="1.08" x1="14.4" y2="98.28" x2="16.2"/>
        <line fill="none"  stroke="#FFFFFF" stroke-linecap="round" y1="3.6" stroke-width="1.08" x1="28.8" y2="7.92" x2="28.8"/>
        <line fill="none"  stroke="#FFFFFF" stroke-linecap="round" y1="3.6" stroke-width="1.08" x1="72" y2="7.92" x2="72"/>
        <line fill="none"  stroke="#FFFFFF" stroke-linecap="round" y1="7.92" stroke-width="1.08" x1="72" y2="9.72" x2="70.2"/>
        <line fill="none"  stroke="#FFFFFF" stroke-linecap="round" y1="9.72" stroke-width="1.08" x1="30.6" y2="7.92" x2="28.8"/>
        <line fill="none"  stroke="#FFFFFF" stroke-linecap="round" y1="7.92" stroke-width="1.08" x1="28.8" y2="9.72" x2="27"/>
        <line fill="none"  stroke="#FFFFFF" stroke-linecap="round" y1="3.6" stroke-width="1.08" x1="86.4" y2="7.92" x2="86.4"/>
        <line fill="none"  stroke="#FFFFFF" stroke-linecap="round" y1="7.92" stroke-width="1.08" x1="86.4" y2="9.72" x2="84.6"/>
        <line fill="none"  stroke="#FFFFFF" stroke-linecap="round" y1="9.72" stroke-width="1.08" x1="73.8" y2="7.92" x2="72"/>
        <line fill="none"  stroke="#FFFFFF" stroke-linecap="round" y1="3.6" stroke-width="1.08" x1="14.4" y2="7.92" x2="14.4"/>
        <line fill="none"  stroke="#FFFFFF" stroke-linecap="round" y1="9.72" stroke-width="1.08" x1="16.2" y2="7.92" x2="14.4"/>
        <rect width="3.6" x="1.8" y="21.6" fill="#FFFFFF"  height="3.24"/>
        <rect width="3.6" x="1.8" y="25.2" fill="#FFFFFF"  height="3.24"/>
        <rect width="3.6" x="1.8" y="28.8" fill="#FFFFFF"  height="3.24"/>
        <rect width="3.6" x="1.8" y="32.4" fill="#FFFFFF"  height="3.24"/>
        <rect width="3.6" x="1.8" y="36" fill="#FFFFFF"  height="3.24"/>
        <g >
            <title >element:JP1</title>
            <g >
                <title >package:FTDI_BASIC</title>
            </g>
        </g>
        <g >
            <title >element:JP2</title>
            <g >
                <title >package:1X10</title>
            </g>
        </g>
        <g >
            <title >element:JP8</title>
            <g >
                <title >package:1X01</title>
                <line fill="none"  stroke="#FFFFFF" stroke-linecap="round" y1="41.4" stroke-width="0.576" x1="36" y2="39.6" x2="34.2"/>
                <line fill="none"  stroke="#FFFFFF" stroke-linecap="round" y1="39.6" stroke-width="0.576" x1="34.2" y2="39.6" x2="30.6"/>
                <line fill="none"  stroke="#FFFFFF" stroke-linecap="round" y1="39.6" stroke-width="0.576" x1="30.6" y2="41.4" x2="28.8"/>
                <line fill="none"  stroke="#FFFFFF" stroke-linecap="round" y1="41.4" stroke-width="0.576" x1="28.8" y2="45" x2="28.8"/>
                <line fill="none"  stroke="#FFFFFF" stroke-linecap="round" y1="45" stroke-width="0.576" x1="28.8" y2="46.8" x2="30.6"/>
                <line fill="none"  stroke="#FFFFFF" stroke-linecap="round" y1="46.8" stroke-width="0.576" x1="30.6" y2="46.8" x2="34.2"/>
                <line fill="none"  stroke="#FFFFFF" stroke-linecap="round" y1="46.8" stroke-width="0.576" x1="34.2" y2="45" x2="36"/>
                <line fill="none"  stroke="#FFFFFF" stroke-linecap="round" y1="45" stroke-width="0.576" x1="36" y2="41.4" x2="36"/>
            </g>
        </g>
        <g >
            <title >element:JP11</title>
            <g >
                <title >package:JST-3-PTH</title>
                <line fill="none"  stroke="#FFFFFF" stroke-linecap="round" y1="42.661" stroke-width="0.576" x1="77.542" y2="42.661" x2="99.652"/>
                <line fill="none"  stroke="#FFFFFF" stroke-linecap="round" y1="42.661" stroke-width="0.576" x1="99.652" y2="65.339" x2="99.652"/>
                <line fill="none"  stroke="#FFFFFF" stroke-linecap="round" y1="65.339" stroke-width="0.576" x1="99.652" y2="65.339" x2="77.542"/>
                <line fill="none"  stroke="#FFFFFF" stroke-linecap="round" y1="42.661" stroke-width="0.576" x1="77.542" y2="44.646" x2="77.542"/>
                <line fill="none"  stroke="#FFFFFF" stroke-linecap="round" y1="65.339" stroke-width="0.576" x1="77.542" y2="63.354" x2="77.542"/>
                <line fill="none"  stroke="#FFFFFF" stroke-linecap="round" y1="44.646" stroke-width="0.576" x1="77.542" y2="44.646" x2="81.227"/>
                <line fill="none"  stroke="#FFFFFF" stroke-linecap="round" y1="63.354" stroke-width="0.576" x1="77.542" y2="63.354" x2="81.227"/>
            </g>
        </g>
        <g >
            <title >element:U2</title>
            <g >
                <title >package:TQFP32-08</title>
                <line fill="none"  stroke="#FFFFFF" stroke-linecap="round" y1="39.949" stroke-width="0.432" x1="50.4" y2="54" x2="64.451"/>
                <line fill="none"  stroke="#FFFFFF" stroke-linecap="round" y1="54" stroke-width="0.432" x1="64.451" y2="68.051" x2="50.4"/>
                <line fill="none"  stroke="#FFFFFF" stroke-linecap="round" y1="68.051" stroke-width="0.432" x1="50.4" y2="54.712" x2="37.061"/>
                <line fill="none"  stroke="#FFFFFF" stroke-linecap="round" y1="53.288" stroke-width="0.432" x1="37.061" y2="39.949" x2="50.4"/>
                <line fill="none"  stroke="#FFFFFF" stroke-linecap="round" y1="53.288" stroke-width="0.432" x1="37.061" y2="54.712" x2="37.061"/>
                <circle fill="none" cx="39.403"  cy="54" stroke="#FFFFFF" r="1.018" stroke-width="0.432"/>
            </g>
        </g>
        <g >
            <title >element:U3</title>
            <g >
                <title >package:7-SEGMENT-4DIGIT-COUNTER</title>
            </g>
        </g>
        <line fill="none"  stroke="#FFFFFF" y1="90.85" stroke-width="0.576" x1="0.288" y2="90.85" x2="0"/>
        <line fill="none"  stroke="#FFFFFF" y1="17.15" stroke-width="0.576" x1="0.288" y2="17.15" x2="0"/>
        <line fill="none"  stroke="#FFFFFF" y1="90.85" stroke-width="0.576" x1="0.288" y2="17.15" x2="0.288"/>
    </g>
    <g gorn="0.3"  id="copper1">
        <circle fill="none" cx="39.6" gorn="0.3.0"  cy="3.6" stroke="#F7BD13" id="connector3pin" r="2.052" stroke-width="1.224"/>
        <circle fill="none" cx="68.4" gorn="0.3.1"  cy="3.6" stroke="#F7BD13" id="connector7pin" r="2.052" stroke-width="1.224"/>
        <circle fill="none" cx="32.4" gorn="0.3.2"  cy="3.6" stroke="#F7BD13" id="connector2pin" r="2.052" stroke-width="1.224"/>
        <circle fill="none" cx="61.2" gorn="0.3.3"  cy="3.6" stroke="#F7BD13" id="connector6pin" r="2.052" stroke-width="1.224"/>
        <circle fill="none" cx="54" gorn="0.3.4"  cy="3.6" stroke="#F7BD13" id="connector5pin" r="2.052" stroke-width="1.224"/>
        <circle fill="none" cx="46.8" gorn="0.3.5"  cy="3.6" stroke="#F7BD13" id="connector4pin" r="2.052" stroke-width="1.224"/>
        <circle fill="none" cx="82.8" gorn="0.3.6"  cy="104.4" stroke="#F7BD13" id="connector19pin" r="2.052" stroke-width="1.224"/>
        <circle fill="none" cx="75.6" gorn="0.3.7"  cy="104.4" stroke="#F7BD13" id="connector18pin" r="2.052" stroke-width="1.224"/>
        <circle fill="none" cx="68.4" gorn="0.3.8"  cy="104.4" stroke="#F7BD13" id="connector17pin" r="2.052" stroke-width="1.224"/>
        <circle fill="none" cx="61.2" gorn="0.3.9"  cy="104.4" stroke="#F7BD13" id="connector16pin" r="2.052" stroke-width="1.224"/>
        <circle fill="none" cx="54" gorn="0.3.10"  cy="104.4" stroke="#F7BD13" id="connector15pin" r="2.052" stroke-width="1.224"/>
        <circle fill="none" cx="46.8" gorn="0.3.11"  cy="104.4" stroke="#F7BD13" id="connector14pin" r="2.052" stroke-width="1.224"/>
        <circle fill="none" cx="39.6" gorn="0.3.12"  cy="104.4" stroke="#F7BD13" id="connector13pin" r="2.052" stroke-width="1.224"/>
        <circle fill="none" cx="32.4" gorn="0.3.13"  cy="104.4" stroke="#F7BD13" id="connector12pin" r="2.052" stroke-width="1.224"/>
        <circle fill="none" cx="25.2" gorn="0.3.14"  cy="104.4" stroke="#F7BD13" id="connector11pin" r="2.052" stroke-width="1.224"/>
        <circle fill="none" cx="18" gorn="0.3.15"  cy="104.4" stroke="#F7BD13" id="connector10pin" r="2.052" stroke-width="1.224"/>
        <circle fill="none" cx="32.4" gorn="0.3.16"  cy="43.2" stroke="#F7BD13" id="connector28pad" r="2.052" stroke-width="1.224"/>
        <circle fill="none" cx="82.8" gorn="0.3.17"  cy="3.6" stroke="#F7BD13" id="connector9pin" r="2.052" stroke-width="1.224"/>
        <circle fill="none" cx="75.6" gorn="0.3.18"  cy="3.6" stroke="#F7BD13" id="connector8pin" r="2.052" stroke-width="1.224"/>
        <circle fill="none" cx="25.2" gorn="0.3.19"  cy="3.6" stroke="#F7BD13" id="connector1pin" r="2.052" stroke-width="1.224"/>
        <circle fill="none" cx="18" gorn="0.3.20"  cy="3.6" stroke="#F7BD13" id="connector0pin" r="2.052" stroke-width="1.224"/>
        <circle fill="none" cx="81.227" gorn="0.3.21"  cy="48.331" stroke="#F7BD13" id="connector33pad" r="1.648" stroke-width="1.3119"/>
        <circle fill="none" cx="81.227" gorn="0.3.22"  cy="54" stroke="#F7BD13" id="connector34pad" r="1.648" stroke-width="1.3119"/>
        <circle fill="none" cx="81.227" gorn="0.3.23"  cy="59.669" stroke="#F7BD13" id="connector35pad" r="1.648" stroke-width="1.3119"/>
        <circle fill="none" cx="97.2" gorn="0.3.24"  cy="36" stroke="#F7BD13" id="connector36pad" r="2.052" stroke-width="1.224"/>
        <circle fill="none" cx="97.2" gorn="0.3.25"  cy="28.8" stroke="#F7BD13" id="connector37pad" r="2.052" stroke-width="1.224"/>
        <circle fill="none" cx="97.2" gorn="0.3.26"  cy="72" stroke="#F7BD13" id="connector38pad" r="2.052" stroke-width="1.224"/>
        <circle fill="none" cx="97.2" gorn="0.3.27"  cy="79.2" stroke="#F7BD13" id="connector39pad" r="2.052" stroke-width="1.224"/>
    </g>
</svg>
