<?xml version='1.0' encoding='utf-8'?>
<!DOCTYPE svg>
<!-- Generator: Adobe Illustrator 17.1.0, SVG Export Plug-In . SVG Version: 6.00 Build 0)  -->
<svg xmlns="http://www.w3.org/2000/svg" version="1.1" id="Layer_1" height="2.52083in" xml:space="preserve" xmlns:xml="http://www.w3.org/XML/1998/namespace" viewBox="0 0 208.8 181.5" width="2.9in" x="0px" y="0px" enable-background="new -184.3 -96 208.8 181.5"  gorn="0">
    <desc >
        <referenceFile >TLC5940-Breakout-v12_pcb.svg</referenceFile>
    </desc>
    <g transform="translate(184.3,96)" >
        <g >
            <g >
                <g >
                    <desc >Fritzing footprint generated by brd2svg</desc>
                    <g id="silkscreen"  gorn="0.1.0.0.0.1">
                        <path stroke-width="0.576" fill="none" d="M-50.9-41.2c-2,0-3.6,1.6-3.6,3.6l0,0V81.9c0,0,0,0,0,0c0,2-1.6,3.6-3.6,3.6h-44.2c-2,0-3.6-1.6-3.6-3.6V-37.6c0-2-1.6-3.6-3.6-3.6c0,0,0,0,0,0h-71.3c-2.1-0.1-3.7-1.9-3.6-4v-46.1c0,0,0,0,0,0c0.1-1.9,1.7-3.3,3.6-3.2H20.9c0,0,0,0,0,0c2,0,3.6,1.6,3.6,3.6v46.1v0c0,2-1.6,3.6-3.6,3.6H-50.9z"  stroke="#FFFFFF"/>
                        <g >
                            <g transform="matrix(1 0 0 1 -66.0795 -32.7046)" >
                                <g >
                                    <g >
                                        <text fill="#FFFFFF" font-family="OCRA"  font-size="4">G18</text>
                                    </g>
                                </g>
                            </g>
                            <g transform="matrix(1 0 0 1 -66.0795 -25.3713)" >
                                <g >
                                    <g >
                                        <text fill="#FFFFFF" font-family="OCRA"  font-size="4">G19</text>
                                    </g>
                                </g>
                            </g>
                            <g transform="matrix(1 0 0 1 -66.0795 -18.0376)" >
                                <g >
                                    <g >
                                        <text fill="#FFFFFF" font-family="OCRA"  font-size="4">G20</text>
                                    </g>
                                </g>
                            </g>
                            <g transform="matrix(1 0 0 1 -66.0795 -10.7038)" >
                                <g >
                                    <g >
                                        <text fill="#FFFFFF" font-family="OCRA"  font-size="4">G21</text>
                                    </g>
                                </g>
                            </g>
                            <g transform="matrix(1 0 0 1 -66.0795 -3.8273)" >
                                <g >
                                    <g >
                                        <text fill="#FFFFFF" font-family="OCRA"  font-size="4">G22</text>
                                    </g>
                                </g>
                            </g>
                            <g transform="matrix(1 0 0 1 -66.0795 3.506)" >
                                <g >
                                    <g >
                                        <text fill="#FFFFFF" font-family="OCRA"  font-size="4">G23</text>
                                    </g>
                                </g>
                            </g>
                            <g transform="matrix(1 0 0 1 -66.0795 10.8397)" >
                                <g >
                                    <g >
                                        <text fill="#FFFFFF" font-family="OCRA"  font-size="4">G24</text>
                                    </g>
                                </g>
                            </g>
                            <g transform="matrix(1 0 0 1 -66.0795 18.1735)" >
                                <g >
                                    <g >
                                        <text fill="#FFFFFF" font-family="OCRA"  font-size="4">G25</text>
                                    </g>
                                </g>
                            </g>
                            <g transform="matrix(1 0 0 1 -66.0795 24.9342)" >
                                <g >
                                    <g >
                                        <text fill="#FFFFFF" font-family="OCRA"  font-size="4">G26</text>
                                    </g>
                                </g>
                            </g>
                            <g transform="matrix(1 0 0 1 -66.0795 32.2675)" >
                                <g >
                                    <g >
                                        <text fill="#FFFFFF" font-family="OCRA"  font-size="4">G27</text>
                                    </g>
                                </g>
                            </g>
                            <g transform="matrix(1 0 0 1 -66.0795 39.6013)" >
                                <g >
                                    <g >
                                        <text fill="#FFFFFF" font-family="OCRA"  font-size="4">SCL</text>
                                    </g>
                                </g>
                            </g>
                            <g transform="matrix(1 0 0 1 -66.0795 46.9351)" >
                                <g >
                                    <g >
                                        <text fill="#FFFFFF" font-family="OCRA"  font-size="4">SDA</text>
                                    </g>
                                </g>
                            </g>
                            <g transform="matrix(1 0 0 1 -66.0795 53.8115)" >
                                <g >
                                    <g >
                                        <text fill="#FFFFFF" font-family="OCRA"  font-size="4">IDSC</text>
                                    </g>
                                </g>
                            </g>
                            <g transform="matrix(1 0 0 1 -66.0795 61.1448)" >
                                <g >
                                    <g >
                                        <text fill="#FFFFFF" font-family="OCRA"  font-size="4">IDSD</text>
                                    </g>
                                </g>
                            </g>
                            <g transform="matrix(1 0 0 1 -66.0795 68.4785)" >
                                <g >
                                    <g >
                                        <text fill="#FFFFFF" font-family="OCRA"  font-size="4">5V</text>
                                    </g>
                                </g>
                            </g>
                            <g transform="matrix(1 0 0 1 -66.0795 75.8123)" >
                                <g >
                                    <g >
                                        <text fill="#FFFFFF" font-family="OCRA"  font-size="4">3.3V</text>
                                    </g>
                                </g>
                            </g>
                            <g transform="matrix(1 0 0 1 -66.0795 82.7419)" >
                                <g >
                                    <g >
                                        <text fill="#FFFFFF" font-family="OCRA"  font-size="4">GND</text>
                                    </g>
                                </g>
                            </g>
                            <g transform="matrix(4.489659e-11 1 -1 4.489659e-11 -182.6602 -81.003)" >
                                <g >
                                    <g >
                                        <text fill="#FFFFFF" font-family="OCRA"  font-size="4">C3V</text>
                                    </g>
                                </g>
                            </g>
                            <g transform="matrix(1 0 0 1 -102.7901 -32.7046)" >
                                <g >
                                    <g >
                                        <text fill="#FFFFFF" font-family="OCRA"  font-size="4">G17</text>
                                    </g>
                                </g>
                            </g>
                            <g transform="matrix(4.489659e-11 -1 1 4.489659e-11 16.3683 -46.5776)" >
                                <g >
                                    <g >
                                        <text fill="#FFFFFF" font-family="OCRA"  font-size="3">DTR</text>
                                    </g>
                                </g>
                            </g>
                            <g transform="matrix(4.489659e-11 -1 1 4.489659e-11 16.3683 -53.8188)" >
                                <g >
                                    <g >
                                        <text fill="#FFFFFF" font-family="OCRA"  font-size="3">TXO</text>
                                    </g>
                                </g>
                            </g>
                            <g transform="matrix(4.489659e-11 -1 1 4.489659e-11 16.3683 -60.7563)" >
                                <g >
                                    <g >
                                        <text fill="#FFFFFF" font-family="OCRA"  font-size="3">RXI</text>
                                    </g>
                                </g>
                            </g>
                            <g transform="matrix(4.489659e-11 -1 1 4.489659e-11 16.3683 -68.4097)" >
                                <g >
                                    <g >
                                        <text fill="#FFFFFF" font-family="OCRA"  font-size="3">VCC</text>
                                    </g>
                                </g>
                            </g>
                            <g transform="matrix(4.489659e-11 -1 1 4.489659e-11 16.3683 -75.7788)" >
                                <g >
                                    <g >
                                        <text fill="#FFFFFF" font-family="OCRA"  font-size="3">CTS</text>
                                    </g>
                                </g>
                            </g>
                            <g transform="matrix(4.489659e-11 -1 1 4.489659e-11 16.3683 -82.979)" >
                                <g >
                                    <g >
                                        <text fill="#FFFFFF" font-family="OCRA"  font-size="3">GND</text>
                                    </g>
                                </g>
                            </g>
                            <g transform="matrix(4.489659e-11 -1 1 4.489659e-11 6.5661 -50.375)" >
                                <g >
                                    <g >
                                        <text fill="#FFFFFF" font-family="OCRA"  font-size="4">Use with 3.3V</text>
                                    </g>
                                </g>
                            </g>
                            <g transform="matrix(4.489659e-11 -1 1 4.489659e-11 -78.2152 41.2354)" >
                                <g >
                                    <g >
                                        <text fill="#FFFFFF" font-family="OCRA"  font-size="7">Pi Wedge B+</text>
                                    </g>
                                </g>
                            </g>
                            <g transform="matrix(4.489659e-11 -1 1 4.489659e-11 11.27 -51.3257)" >
                                <g >
                                    <g >
                                        <text fill="#FFFFFF" font-family="OCRA"  font-size="4">FTDI adapter</text>
                                    </g>
                                </g>
                            </g>
                            <g transform="matrix(1 0 0 1 13.6837 -42.1819)" >
                                <g >
                                    <g >
                                        <text fill="#FFFFFF" font-family="OCRA"  font-size="4">GRN</text>
                                    </g>
                                </g>
                            </g>
                            <g transform="matrix(1 0 0 1 13.6837 -90.0146)" >
                                <g >
                                    <g >
                                        <text fill="#FFFFFF" font-family="OCRA"  font-size="4">BLK</text>
                                    </g>
                                </g>
                            </g>
                            <g transform="matrix(4.489659e-11 1 -1 4.489659e-11 -182.6602 -58.7112)" >
                                <g >
                                    <g >
                                        <text fill="#FFFFFF" font-family="OCRA"  font-size="4">C5V</text>
                                    </g>
                                </g>
                            </g>
                            <g transform="matrix(1 0 0 1 -102.7788 -25.3713)" >
                                <g >
                                    <g >
                                        <text fill="#FFFFFF" font-family="OCRA"  font-size="4">G16</text>
                                    </g>
                                </g>
                            </g>
                            <g transform="matrix(1 0 0 1 -102.7788 -18.0376)" >
                                <g >
                                    <g >
                                        <text fill="#FFFFFF" font-family="OCRA"  font-size="4">G13</text>
                                    </g>
                                </g>
                            </g>
                            <g transform="matrix(1 0 0 1 -102.7788 -10.7038)" >
                                <g >
                                    <g >
                                        <text fill="#FFFFFF" font-family="OCRA"  font-size="4">G12</text>
                                    </g>
                                </g>
                            </g>
                            <g transform="matrix(1 0 0 1 -99.9185 -3.8273)" >
                                <g >
                                    <g >
                                        <text fill="#FFFFFF" font-family="OCRA"  font-size="4">G6</text>
                                    </g>
                                </g>
                            </g>
                            <g transform="matrix(1 0 0 1 -99.9185 3.506)" >
                                <g >
                                    <g >
                                        <text fill="#FFFFFF" font-family="OCRA"  font-size="4">G5</text>
                                    </g>
                                </g>
                            </g>
                            <g transform="matrix(1 0 0 1 -99.9185 10.8397)" >
                                <g >
                                    <g >
                                        <text fill="#FFFFFF" font-family="OCRA"  font-size="4">G4</text>
                                    </g>
                                </g>
                            </g>
                            <g transform="matrix(1 0 0 1 -102.7788 18.1735)" >
                                <g >
                                    <g >
                                        <text fill="#FFFFFF" font-family="OCRA"  font-size="4">CE1</text>
                                    </g>
                                </g>
                            </g>
                            <g transform="matrix(1 0 0 1 -102.7788 24.9342)" >
                                <g >
                                    <g >
                                        <text fill="#FFFFFF" font-family="OCRA"  font-size="4">CE0</text>
                                    </g>
                                </g>
                            </g>
                            <g transform="matrix(1 0 0 1 -105.6387 32.2675)" >
                                <g >
                                    <g >
                                        <text fill="#FFFFFF" font-family="OCRA"  font-size="4">MOSI</text>
                                    </g>
                                </g>
                            </g>
                            <g transform="matrix(1 0 0 1 -105.6387 39.6013)" >
                                <g >
                                    <g >
                                        <text fill="#FFFFFF" font-family="OCRA"  font-size="4">MISO</text>
                                    </g>
                                </g>
                            </g>
                            <g transform="matrix(1 0 0 1 -102.7788 46.9351)" >
                                <g >
                                    <g >
                                        <text fill="#FFFFFF" font-family="OCRA"  font-size="4">SCK</text>
                                    </g>
                                </g>
                            </g>
                            <g transform="matrix(1 0 0 1 -102.7788 53.8115)" >
                                <g >
                                    <g >
                                        <text fill="#FFFFFF" font-family="OCRA"  font-size="4">RXI</text>
                                    </g>
                                </g>
                            </g>
                            <g transform="matrix(1 0 0 1 -102.7788 61.1448)" >
                                <g >
                                    <g >
                                        <text fill="#FFFFFF" font-family="OCRA"  font-size="4">TXO</text>
                                    </g>
                                </g>
                            </g>
                            <g transform="matrix(1 0 0 1 -99.9185 68.4785)" >
                                <g >
                                    <g >
                                        <text fill="#FFFFFF" font-family="OCRA"  font-size="4">5V</text>
                                    </g>
                                </g>
                            </g>
                            <g transform="matrix(1 0 0 1 -105.6387 75.8123)" >
                                <g >
                                    <g >
                                        <text fill="#FFFFFF" font-family="OCRA"  font-size="4">3.3V</text>
                                    </g>
                                </g>
                            </g>
                            <g transform="matrix(1 0 0 1 -102.7788 82.7419)" >
                                <g >
                                    <g >
                                        <text fill="#FFFFFF" font-family="OCRA"  font-size="4">GND</text>
                                    </g>
                                </g>
                            </g>
                            <path fill="#FFFFFF" d="M-83.7,77.6c0,0,0.7-0.2,0.8,0.3c0.1,0.4-0.3,0.9-0.6,1.2c-0.4,0.4-0.8,0.3-1.1,0c-0.5-0.4-0.3-1.1-0.3-1.1s-1.1,1.3-0.2,2.6c0.8,1.2,1.9,0.9,2.9-0.2c0.9-1,1.9-0.2,1.7,0.8c-0.1,0.7-0.6,0.9-1,0.8c-0.3-0.1-0.5-0.6-0.5-0.6s-0.2,0.6,0,1.2c0.2,0.6,0.7,1.1,1.9,1h5.6c0,0-0.7-0.6-1.5-1.3c-0.9-0.8-1.4-1.2-1.4-2c0.1-1.5-0.6-2.7-1.7-3.4C-81,75.5-83.4,76.6-83.7,77.6z" />
                            <path fill="#FFFFFF" d="M-78.5-37.9h-1.5l-0.3,1.7c-0.4,0.1-0.8,0.3-1.3,0.6l-1.4-1l-1.1,1.1l1,1.4c-0.3,0.4-0.4,0.8-0.6,1.3l-1.7,0.3v1.5l1.7,0.3c0.1,0.4,0.3,0.8,0.6,1.3l-1,1.4l1.1,1.1l1.4-1c0.4,0.3,0.8,0.4,1.3,0.6l0.3,1.5h1.5l0.3-1.7c0.4-0.1,0.8-0.3,1.3-0.6l1.4,1l1.1-1.1l-1-1.4c0.1-0.3,0.3-0.4,0.4-0.7l-2.7-1c-0.3,0.6-0.8,1.1-1.5,1.1c-1,0-1.7-0.7-1.7-1.7c0-1,0.7-1.7,1.7-1.7c0.7,0,1.3,0.4,1.5,1.1l2.7-1c-0.1-0.3-0.3-0.6-0.4-0.7l1-1.4l-1.1-1.1l-1.4,1c-0.4-0.3-0.8-0.4-1.3-0.6L-78.5-37.9z" />
                            <g >
                                <path fill="#FFFFFF" d="M-69.4-63.9c0,0,0.2,0.8-0.4,0.9c-0.4,0.1-1.1-0.3-1.4-0.7c-0.4-0.5-0.4-0.9,0-1.2c0.5-0.5,1.3-0.3,1.3-0.3s-1.5-1.3-3-0.2c-1.4,1-1,2.3,0.3,3.4c1.1,1,0.2,2.1-0.9,2c-0.8-0.1-1.1-0.7-0.9-1.1c0.2-0.3,0.7-0.5,0.7-0.5s-0.6-0.3-1.4,0c-0.7,0.3-1.2,0.8-1.2,2.2v6.5c0,0,0.7-0.9,1.5-1.7c0.9-1,1.3-1.7,2.3-1.6c1.8,0.1,3.1-0.7,4-2C-66.9-60.8-68.2-63.5-69.4-63.9z" />
                                <path fill="#FFFFFF" d="M-107.1-46.7c0,0.8,0.7,1.2,1.5,1.2c0.6,0,1.3-0.2,1.3-0.9c0-0.6-0.8-0.8-2.2-1.1c-1.2-0.3-2.3-0.6-2.3-1.9c0-1.8,1.6-2.3,3.1-2.3c1.6,0,3,0.5,3.2,2.3h-1.9c-0.1-0.8-0.6-1-1.3-1c-0.4,0-1.1,0.1-1.1,0.7c0,0.7,1.1,0.8,2.2,1.1c1.2,0.3,2.3,0.7,2.3,2c0,1.9-1.7,2.5-3.3,2.5c-1.7,0-3.3-0.6-3.4-2.5L-107.1-46.7L-107.1-46.7z" />
                                <path fill="#FFFFFF" d="M-101.6-51.2l1.9-0.3v0.9h0c0.5-0.8,1.2-1.1,2.1-1.1c2.2,0,3.3,1.8,3.3,3.9c0,1.9-1,3.7-3.2,3.7c-0.9,0-1.7-0.4-2.2-1.1h0v5.2l-2-1.8V-51.2L-101.6-51.2z M-96.2-47.9c0-1.2-0.5-2.3-1.7-2.3c-1.3,0-1.7,1.2-1.7,2.3s0.4,2.3,1.7,2.3C-96.7-45.7-96.2-46.8-96.2-47.9z" />
                                <path fill="#FFFFFF" d="M-93.5-49.3c0.1-1.8,1.8-2.4,3.4-2.4c1.4,0,3.2,0.3,3.2,2v3.7c0,0.7,0.1,1.3,0.2,1.6h-2c-0.1-0.2-0.1-0.5-0.1-0.7c-0.6,0.7-1.5,0.9-2.4,0.9c-1.4,0-2.4-0.7-2.4-2.2c0-3.3,4.9-1.5,4.8-3.1c0-0.8-0.6-1-1.3-1c-0.8,0-1.2,0.3-1.3,1.1L-93.5-49.3L-93.5-49.3z M-88.9-47.9c-0.3,0.3-1,0.3-1.6,0.4c-0.6,0.1-1.2,0.3-1.2,1.1s0.6,0.9,1.2,0.9c1.5,0,1.6-1.2,1.6-1.7V-47.9z" />
                                <path fill="#FFFFFF" d="M-85.8-51.2l1.9-0.3v1.3h0c0.4-0.9,1.3-1.5,2.3-1.5c0.2,0,0.3,0,0.4,0.1v1.8c-0.2,0-0.5-0.1-0.7-0.1c-1.5,0-1.9,1-1.9,2.3v3.2h-2L-85.8-51.2L-85.8-51.2z" />
                                <path fill="#FFFFFF" d="M-80.5-53.2l2-1.1v5.3l2.5-2.6h2.3l-2.7,2.6l3,4.5h-2.4l-2-3.2l-0.8,0.7v2.5h-2V-53.2z" />
                                <path fill="#FFFFFF" d="M-72.2-50.2h-1.9l1.3-1.3h0.6v-0.6c0-1.3,0.8-2.2,2.4-2.2c0.3,0,0.7,0,1,0.1v1.5c-0.2,0-0.5,0-0.7,0c-0.5,0-0.8,0.2-0.8,0.8v0.4h1.4v1.3h-1.4v5.9h-2L-72.2-50.2L-72.2-50.2z" />
                                <path fill="#FFFFFF" d="M-61.5-44.4h-1.9v-1h0c-0.5,0.8-1.4,1.2-2.2,1.2c-2.1,0-2.6-1.2-2.6-3v-4.4h2v4.1c0,1.2,0.3,1.8,1.3,1.8c1.1,0,1.5-0.6,1.5-2.1v-3.8h2L-61.5-44.4L-61.5-44.4z" />
                                <path fill="#FFFFFF" d="M-60.5-51.5h1.9v1h0c0.5-0.8,1.4-1.2,2.2-1.2c2.1,0,2.6,1.2,2.6,3v4.4h-2v-4.1c0-1.2-0.3-1.8-1.3-1.8c-1.1,0-1.5,0.6-1.5,2.1v3.8h-2L-60.5-51.5L-60.5-51.5z" />
                            </g>
                        </g>
                    </g>
                    <g id="copper1"  gorn="0.1.0.0.0.2">
                        <g id="copper0"  gorn="0.1.0.0.0.2.0">
                            <circle stroke-width="1.224" id="connector38pin" fill="none" cx="-18.7" r="2.1" cy="-75.7"  stroke="#F7BD13" gorn="0.1.0.0.0.2.0.0"/>
                            <circle stroke-width="1.224" id="connector19pin" fill="none" cx="-11.5" r="2.1" cy="-82.9"  stroke="#F7BD13" gorn="0.1.0.0.0.2.0.1"/>
                            <circle stroke-width="1.224" id="connector39pin" fill="none" cx="-11.5" r="2.1" cy="-75.7"  stroke="#F7BD13" gorn="0.1.0.0.0.2.0.2"/>
                            <circle stroke-width="1.224" id="connector20pin" fill="none" cx="-148.3" r="2.1" cy="-75.7"  stroke="#F7BD13" gorn="0.1.0.0.0.2.0.3"/>
                            <circle stroke-width="1.224" id="connector0pin" fill="none" cx="-148.3" r="2.1" cy="-82.9"  stroke="#F7BD13" gorn="0.1.0.0.0.2.0.4"/>
                            <circle stroke-width="1.224" id="connector24pin" fill="none" cx="-119.5" r="2.1" cy="-75.7"  stroke="#F7BD13" gorn="0.1.0.0.0.2.0.5"/>
                            <circle stroke-width="1.224" id="connector4pin" fill="none" cx="-119.5" r="2.1" cy="-82.9"  stroke="#F7BD13" gorn="0.1.0.0.0.2.0.6"/>
                            <circle stroke-width="1.224" id="connector28pin" fill="none" cx="-90.7" r="2.1" cy="-75.7"  stroke="#F7BD13" gorn="0.1.0.0.0.2.0.7"/>
                            <circle stroke-width="1.224" id="connector8pin" fill="none" cx="-90.7" r="2.1" cy="-82.9"  stroke="#F7BD13" gorn="0.1.0.0.0.2.0.8"/>
                            <circle stroke-width="1.224" id="connector32pin" fill="none" cx="-61.9" r="2.1" cy="-75.7"  stroke="#F7BD13" gorn="0.1.0.0.0.2.0.9"/>
                            <circle stroke-width="1.224" id="connector12pin" fill="none" cx="-61.9" r="2.1" cy="-82.9"  stroke="#F7BD13" gorn="0.1.0.0.0.2.0.10"/>
                            <circle stroke-width="1.224" id="connector21pin" fill="none" cx="-141.1" r="2.1" cy="-75.7"  stroke="#F7BD13" gorn="0.1.0.0.0.2.0.11"/>
                            <circle stroke-width="1.224" id="connector1pin" fill="none" cx="-141.1" r="2.1" cy="-82.9"  stroke="#F7BD13" gorn="0.1.0.0.0.2.0.12"/>
                            <circle stroke-width="1.224" id="connector25pin" fill="none" cx="-112.3" r="2.1" cy="-75.7"  stroke="#F7BD13" gorn="0.1.0.0.0.2.0.13"/>
                            <circle stroke-width="1.224" id="connector5pin" fill="none" cx="-112.3" r="2.1" cy="-82.9"  stroke="#F7BD13" gorn="0.1.0.0.0.2.0.14"/>
                            <circle stroke-width="1.224" id="connector29pin" fill="none" cx="-83.5" r="2.1" cy="-75.7"  stroke="#F7BD13" gorn="0.1.0.0.0.2.0.15"/>
                            <circle stroke-width="1.224" id="connector9pin" fill="none" cx="-83.5" r="2.1" cy="-82.9"  stroke="#F7BD13" gorn="0.1.0.0.0.2.0.16"/>
                            <circle stroke-width="1.224" id="connector33pin" fill="none" cx="-54.7" r="2.1" cy="-75.7"  stroke="#F7BD13" gorn="0.1.0.0.0.2.0.17"/>
                            <circle stroke-width="1.224" id="connector13pin" fill="none" cx="-54.7" r="2.1" cy="-82.9"  stroke="#F7BD13" gorn="0.1.0.0.0.2.0.18"/>
                            <circle stroke-width="1.224" id="connector22pin" fill="none" cx="-133.9" r="2.1" cy="-75.7"  stroke="#F7BD13" gorn="0.1.0.0.0.2.0.19"/>
                            <circle stroke-width="1.224" id="connector2pin" fill="none" cx="-133.9" r="2.1" cy="-82.9"  stroke="#F7BD13" gorn="0.1.0.0.0.2.0.20"/>
                            <circle stroke-width="1.224" id="connector26pin" fill="none" cx="-105.1" r="2.1" cy="-75.7"  stroke="#F7BD13" gorn="0.1.0.0.0.2.0.21"/>
                            <circle stroke-width="1.224" id="connector6pin" fill="none" cx="-105.1" r="2.1" cy="-82.9"  stroke="#F7BD13" gorn="0.1.0.0.0.2.0.22"/>
                            <circle stroke-width="1.224" id="connector30pin" fill="none" cx="-76.3" r="2.1" cy="-75.7"  stroke="#F7BD13" gorn="0.1.0.0.0.2.0.23"/>
                            <circle stroke-width="1.224" id="connector10pin" fill="none" cx="-76.3" r="2.1" cy="-82.9"  stroke="#F7BD13" gorn="0.1.0.0.0.2.0.24"/>
                            <circle stroke-width="1.224" id="connector34pin" fill="none" cx="-47.5" r="2.1" cy="-75.7"  stroke="#F7BD13" gorn="0.1.0.0.0.2.0.25"/>
                            <circle stroke-width="1.224" id="connector14pin" fill="none" cx="-47.5" r="2.1" cy="-82.9"  stroke="#F7BD13" gorn="0.1.0.0.0.2.0.26"/>
                            <circle stroke-width="1.224" id="connector23pin" fill="none" cx="-126.7" r="2.1" cy="-75.7"  stroke="#F7BD13" gorn="0.1.0.0.0.2.0.27"/>
                            <circle stroke-width="1.224" id="connector3pin" fill="none" cx="-126.7" r="2.1" cy="-82.9"  stroke="#F7BD13" gorn="0.1.0.0.0.2.0.28"/>
                            <circle stroke-width="1.224" id="connector27pin" fill="none" cx="-97.9" r="2.1" cy="-75.7"  stroke="#F7BD13" gorn="0.1.0.0.0.2.0.29"/>
                            <circle stroke-width="1.224" id="connector7pin" fill="none" cx="-97.9" r="2.1" cy="-82.9"  stroke="#F7BD13" gorn="0.1.0.0.0.2.0.30"/>
                            <circle stroke-width="1.224" id="connector31pin" fill="none" cx="-69.1" r="2.1" cy="-75.7"  stroke="#F7BD13" gorn="0.1.0.0.0.2.0.31"/>
                            <circle stroke-width="1.224" id="connector11pin" fill="none" cx="-69.1" r="2.1" cy="-82.9"  stroke="#F7BD13" gorn="0.1.0.0.0.2.0.32"/>
                            <circle stroke-width="1.224" id="connector35pin" fill="none" cx="-40.3" r="2.1" cy="-75.7"  stroke="#F7BD13" gorn="0.1.0.0.0.2.0.33"/>
                            <circle stroke-width="1.224" id="connector15pin" fill="none" cx="-40.3" r="2.1" cy="-82.9"  stroke="#F7BD13" gorn="0.1.0.0.0.2.0.34"/>
                            <circle stroke-width="1.224" id="connector74pin" fill="none" cx="20.9" r="2.1" cy="-85.8"  stroke="#F7BD13" gorn="0.1.0.0.0.2.0.35"/>
                            <circle stroke-width="1.224" id="connector75pin" fill="none" cx="20.9" r="2.1" cy="-78.6"  stroke="#F7BD13" gorn="0.1.0.0.0.2.0.36"/>
                            <circle stroke-width="1.224" id="connector16pin" fill="none" cx="-33.3" r="2.1" cy="-82.9"  stroke="#F7BD13" gorn="0.1.0.0.0.2.0.37"/>
                            <circle stroke-width="1.224" id="connector36pin" fill="none" cx="-33.3" r="2.1" cy="-75.7"  stroke="#F7BD13" gorn="0.1.0.0.0.2.0.38"/>
                            <circle stroke-width="1.224" id="connector76pin" fill="none" cx="20.9" r="2.1" cy="-71.4"  stroke="#F7BD13" gorn="0.1.0.0.0.2.0.39"/>
                            <circle stroke-width="1.224" id="connector77pin" fill="none" cx="20.9" r="2.1" cy="-64.2"  stroke="#F7BD13" gorn="0.1.0.0.0.2.0.40"/>
                            <circle stroke-width="1.224" id="connector78pin" fill="none" cx="20.9" r="2.1" cy="-57"  stroke="#F7BD13" gorn="0.1.0.0.0.2.0.41"/>
                            <circle stroke-width="1.224" id="connector79pin" fill="none" cx="20.9" r="2.1" cy="-49.8"  stroke="#F7BD13" gorn="0.1.0.0.0.2.0.42"/>
                            <circle stroke-width="1.224" id="connector40pin" fill="none" cx="-90.9" r="2.1" cy="-33.9"  stroke="#F7BD13" gorn="0.1.0.0.0.2.0.43"/>
                            <circle stroke-width="1.224" id="connector44pin" fill="none" cx="-90.9" r="2.1" cy="-5.2"  stroke="#F7BD13" gorn="0.1.0.0.0.2.0.44"/>
                            <circle stroke-width="1.224" id="connector48pin" fill="none" cx="-90.9" r="2.1" cy="23.6"  stroke="#F7BD13" gorn="0.1.0.0.0.2.0.45"/>
                            <circle stroke-width="1.224" id="connector52pin" fill="none" cx="-90.9" r="2.1" cy="52.4"  stroke="#F7BD13" gorn="0.1.0.0.0.2.0.46"/>
                            <circle stroke-width="1.224" id="connector41pin" fill="none" cx="-90.9" r="2.1" cy="-26.8"  stroke="#F7BD13" gorn="0.1.0.0.0.2.0.47"/>
                            <circle stroke-width="1.224" id="connector45pin" fill="none" cx="-90.9" r="2.1" cy="2"  stroke="#F7BD13" gorn="0.1.0.0.0.2.0.48"/>
                            <circle stroke-width="1.224" id="connector49pin" fill="none" cx="-90.9" r="2.1" cy="30.8"  stroke="#F7BD13" gorn="0.1.0.0.0.2.0.49"/>
                            <circle stroke-width="1.224" id="connector53pin" fill="none" cx="-90.9" r="2.1" cy="59.6"  stroke="#F7BD13" gorn="0.1.0.0.0.2.0.50"/>
                            <circle stroke-width="1.224" id="connector42pin" fill="none" cx="-90.9" r="2.1" cy="-19.6"  stroke="#F7BD13" gorn="0.1.0.0.0.2.0.51"/>
                            <circle stroke-width="1.224" id="connector46pin" fill="none" cx="-90.9" r="2.1" cy="9.2"  stroke="#F7BD13" gorn="0.1.0.0.0.2.0.52"/>
                            <circle stroke-width="1.224" id="connector50pin" fill="none" cx="-90.9" r="2.1" cy="38"  stroke="#F7BD13" gorn="0.1.0.0.0.2.0.53"/>
                            <circle stroke-width="1.224" id="connector54pin" fill="none" cx="-90.9" r="2.1" cy="66.8"  stroke="#F7BD13" gorn="0.1.0.0.0.2.0.54"/>
                            <circle stroke-width="1.224" id="connector43pin" fill="none" cx="-90.9" r="2.1" cy="-12.4"  stroke="#F7BD13" gorn="0.1.0.0.0.2.0.55"/>
                            <circle stroke-width="1.224" id="connector47pin" fill="none" cx="-90.9" r="2.1" cy="16.4"  stroke="#F7BD13" gorn="0.1.0.0.0.2.0.56"/>
                            <circle stroke-width="1.224" id="connector51pin" fill="none" cx="-90.9" r="2.1" cy="45.2"  stroke="#F7BD13" gorn="0.1.0.0.0.2.0.57"/>
                            <circle stroke-width="1.224" id="connector55pin" fill="none" cx="-90.9" r="2.1" cy="74"  stroke="#F7BD13" gorn="0.1.0.0.0.2.0.58"/>
                            <circle stroke-width="1.224" id="connector56pin" fill="none" cx="-90.9" r="2.1" cy="81.2"  stroke="#F7BD13" gorn="0.1.0.0.0.2.0.59"/>
                            <circle stroke-width="1.224" id="connector57pin" fill="none" cx="-69.1" r="2.1" cy="-33.9"  stroke="#F7BD13" gorn="0.1.0.0.0.2.0.60"/>
                            <circle stroke-width="1.224" id="connector61pin" fill="none" cx="-69.1" r="2.1" cy="-5.2"  stroke="#F7BD13" gorn="0.1.0.0.0.2.0.61"/>
                            <circle stroke-width="1.224" id="connector65pin" fill="none" cx="-69.1" r="2.1" cy="23.6"  stroke="#F7BD13" gorn="0.1.0.0.0.2.0.62"/>
                            <circle stroke-width="1.224" id="connector69pin" fill="none" cx="-69.1" r="2.1" cy="52.4"  stroke="#F7BD13" gorn="0.1.0.0.0.2.0.63"/>
                            <circle stroke-width="1.224" id="connector58pin" fill="none" cx="-69.1" r="2.1" cy="-26.8"  stroke="#F7BD13" gorn="0.1.0.0.0.2.0.64"/>
                            <circle stroke-width="1.224" id="connector62pin" fill="none" cx="-69.1" r="2.1" cy="2"  stroke="#F7BD13" gorn="0.1.0.0.0.2.0.65"/>
                            <circle stroke-width="1.224" id="connector66pin" fill="none" cx="-69.1" r="2.1" cy="30.8"  stroke="#F7BD13" gorn="0.1.0.0.0.2.0.66"/>
                            <circle stroke-width="1.224" id="connector70pin" fill="none" cx="-69.1" r="2.1" cy="59.6"  stroke="#F7BD13" gorn="0.1.0.0.0.2.0.67"/>
                            <circle stroke-width="1.224" id="connector59pin" fill="none" cx="-69.1" r="2.1" cy="-19.6"  stroke="#F7BD13" gorn="0.1.0.0.0.2.0.68"/>
                            <circle stroke-width="1.224" id="connector63pin" fill="none" cx="-69.1" r="2.1" cy="9.2"  stroke="#F7BD13" gorn="0.1.0.0.0.2.0.69"/>
                            <circle stroke-width="1.224" id="connector67pin" fill="none" cx="-69.1" r="2.1" cy="38"  stroke="#F7BD13" gorn="0.1.0.0.0.2.0.70"/>
                            <circle stroke-width="1.224" id="connector71pin" fill="none" cx="-69.1" r="2.1" cy="66.8"  stroke="#F7BD13" gorn="0.1.0.0.0.2.0.71"/>
                            <circle stroke-width="1.224" id="connector60pin" fill="none" cx="-69.1" r="2.1" cy="-12.4"  stroke="#F7BD13" gorn="0.1.0.0.0.2.0.72"/>
                            <circle stroke-width="1.224" id="connector64pin" fill="none" cx="-69.1" r="2.1" cy="16.4"  stroke="#F7BD13" gorn="0.1.0.0.0.2.0.73"/>
                            <circle stroke-width="1.224" id="connector68pin" fill="none" cx="-69.1" r="2.1" cy="45.2"  stroke="#F7BD13" gorn="0.1.0.0.0.2.0.74"/>
                            <circle stroke-width="1.224" id="connector72pin" fill="none" cx="-69.1" r="2.1" cy="74"  stroke="#F7BD13" gorn="0.1.0.0.0.2.0.75"/>
                            <circle stroke-width="1.224" id="connector73pin" fill="none" cx="-69.1" r="2.1" cy="81.2"  stroke="#F7BD13" gorn="0.1.0.0.0.2.0.76"/>
                            <circle stroke-width="1.224" id="connector17pin" fill="none" cx="-25.9" r="2.1" cy="-82.9"  stroke="#F7BD13" gorn="0.1.0.0.0.2.0.77"/>
                            <circle stroke-width="1.224" id="connector37pin" fill="none" cx="-25.9" r="2.1" cy="-75.7"  stroke="#F7BD13" gorn="0.1.0.0.0.2.0.78"/>
                            <circle stroke-width="1.224" id="connector18pin" fill="none" cx="-18.7" r="2.1" cy="-82.9"  stroke="#F7BD13" gorn="0.1.0.0.0.2.0.79"/>
                        </g>
                    </g>
                </g>
            </g>
        </g>
    </g>
</svg>
