<?xml version='1.0' encoding='utf-8'?>
<!DOCTYPE svg>
<!-- Generator: Adobe Illustrator 17.0.0, SVG Export Plug-In . SVG Version: 6.00 Build 0)  -->
<svg xmlns="http://www.w3.org/2000/svg" width="1.25in" x="0px" version="1.1" y="0px" gorn="0"  height="1.02126in" viewBox="0 0 90 73.531" xmlns:xml="http://www.w3.org/XML/1998/namespace" id="Layer_1" enable-background="new 0 0 90 73.531" xml:space="preserve">
    <desc >
        <referenceFile >Copernicus-DIP-Breakout_pcb.svg</referenceFile>
    </desc>
    <desc >Fritzing footprint generated by brd2svg</desc>
    <g gorn="0.2"  id="silkscreen">
        <path fill="none"  stroke="#FFFFFF" stroke-width="0.576" d="M0.288,73.243h89.424V0.288H0.288V73.243"/>
        <g >
            <title >element:JP1</title>
            <g >
                <title >package:1X10</title>
                <line fill="none"  stroke="#FFFFFF" stroke-linecap="round" y1="7.965" stroke-width="0.576" x1="30.6" y2="7.965" x2="27"/>
                <line fill="none"  stroke="#FFFFFF" stroke-linecap="round" y1="7.965" stroke-width="0.576" x1="27" y2="6.165" x2="25.2"/>
                <line fill="none"  stroke="#FFFFFF" stroke-linecap="round" y1="2.565" stroke-width="0.576" x1="25.2" y2="0.765" x2="27"/>
                <line fill="none"  stroke="#FFFFFF" stroke-linecap="round" y1="6.165" stroke-width="0.576" x1="39.6" y2="7.965" x2="37.8"/>
                <line fill="none"  stroke="#FFFFFF" stroke-linecap="round" y1="7.965" stroke-width="0.576" x1="37.8" y2="7.965" x2="34.2"/>
                <line fill="none"  stroke="#FFFFFF" stroke-linecap="round" y1="7.965" stroke-width="0.576" x1="34.2" y2="6.165" x2="32.4"/>
                <line fill="none"  stroke="#FFFFFF" stroke-linecap="round" y1="2.565" stroke-width="0.576" x1="32.4" y2="0.765" x2="34.2"/>
                <line fill="none"  stroke="#FFFFFF" stroke-linecap="round" y1="0.765" stroke-width="0.576" x1="34.2" y2="0.765" x2="37.8"/>
                <line fill="none"  stroke="#FFFFFF" stroke-linecap="round" y1="0.765" stroke-width="0.576" x1="37.8" y2="2.565" x2="39.6"/>
                <line fill="none"  stroke="#FFFFFF" stroke-linecap="round" y1="7.965" stroke-width="0.576" x1="30.6" y2="6.165" x2="32.4"/>
                <line fill="none"  stroke="#FFFFFF" stroke-linecap="round" y1="2.565" stroke-width="0.576" x1="32.4" y2="0.765" x2="30.6"/>
                <line fill="none"  stroke="#FFFFFF" stroke-linecap="round" y1="0.765" stroke-width="0.576" x1="27" y2="0.765" x2="30.6"/>
                <line fill="none"  stroke="#FFFFFF" stroke-linecap="round" y1="7.965" stroke-width="0.576" x1="52.2" y2="7.965" x2="48.6"/>
                <line fill="none"  stroke="#FFFFFF" stroke-linecap="round" y1="7.965" stroke-width="0.576" x1="48.6" y2="6.165" x2="46.8"/>
                <line fill="none"  stroke="#FFFFFF" stroke-linecap="round" y1="2.565" stroke-width="0.576" x1="46.8" y2="0.765" x2="48.6"/>
                <line fill="none"  stroke="#FFFFFF" stroke-linecap="round" y1="6.165" stroke-width="0.576" x1="46.8" y2="7.965" x2="45"/>
                <line fill="none"  stroke="#FFFFFF" stroke-linecap="round" y1="7.965" stroke-width="0.576" x1="45" y2="7.965" x2="41.4"/>
                <line fill="none"  stroke="#FFFFFF" stroke-linecap="round" y1="7.965" stroke-width="0.576" x1="41.4" y2="6.165" x2="39.6"/>
                <line fill="none"  stroke="#FFFFFF" stroke-linecap="round" y1="2.565" stroke-width="0.576" x1="39.6" y2="0.765" x2="41.4"/>
                <line fill="none"  stroke="#FFFFFF" stroke-linecap="round" y1="0.765" stroke-width="0.576" x1="41.4" y2="0.765" x2="45"/>
                <line fill="none"  stroke="#FFFFFF" stroke-linecap="round" y1="0.765" stroke-width="0.576" x1="45" y2="2.565" x2="46.8"/>
                <line fill="none"  stroke="#FFFFFF" stroke-linecap="round" y1="6.165" stroke-width="0.576" x1="61.2" y2="7.965" x2="59.4"/>
                <line fill="none"  stroke="#FFFFFF" stroke-linecap="round" y1="7.965" stroke-width="0.576" x1="59.4" y2="7.965" x2="55.8"/>
                <line fill="none"  stroke="#FFFFFF" stroke-linecap="round" y1="7.965" stroke-width="0.576" x1="55.8" y2="6.165" x2="54"/>
                <line fill="none"  stroke="#FFFFFF" stroke-linecap="round" y1="2.565" stroke-width="0.576" x1="54" y2="0.765" x2="55.8"/>
                <line fill="none"  stroke="#FFFFFF" stroke-linecap="round" y1="0.765" stroke-width="0.576" x1="55.8" y2="0.765" x2="59.4"/>
                <line fill="none"  stroke="#FFFFFF" stroke-linecap="round" y1="0.765" stroke-width="0.576" x1="59.4" y2="2.565" x2="61.2"/>
                <line fill="none"  stroke="#FFFFFF" stroke-linecap="round" y1="7.965" stroke-width="0.576" x1="52.2" y2="6.165" x2="54"/>
                <line fill="none"  stroke="#FFFFFF" stroke-linecap="round" y1="2.565" stroke-width="0.576" x1="54" y2="0.765" x2="52.2"/>
                <line fill="none"  stroke="#FFFFFF" stroke-linecap="round" y1="0.765" stroke-width="0.576" x1="48.6" y2="0.765" x2="52.2"/>
                <line fill="none"  stroke="#FFFFFF" stroke-linecap="round" y1="7.965" stroke-width="0.576" x1="73.8" y2="7.965" x2="70.2"/>
                <line fill="none"  stroke="#FFFFFF" stroke-linecap="round" y1="7.965" stroke-width="0.576" x1="70.2" y2="6.165" x2="68.4"/>
                <line fill="none"  stroke="#FFFFFF" stroke-linecap="round" y1="2.565" stroke-width="0.576" x1="68.4" y2="0.765" x2="70.2"/>
                <line fill="none"  stroke="#FFFFFF" stroke-linecap="round" y1="6.165" stroke-width="0.576" x1="68.4" y2="7.965" x2="66.6"/>
                <line fill="none"  stroke="#FFFFFF" stroke-linecap="round" y1="7.965" stroke-width="0.576" x1="66.6" y2="7.965" x2="63"/>
                <line fill="none"  stroke="#FFFFFF" stroke-linecap="round" y1="7.965" stroke-width="0.576" x1="63" y2="6.165" x2="61.2"/>
                <line fill="none"  stroke="#FFFFFF" stroke-linecap="round" y1="2.565" stroke-width="0.576" x1="61.2" y2="0.765" x2="63"/>
                <line fill="none"  stroke="#FFFFFF" stroke-linecap="round" y1="0.765" stroke-width="0.576" x1="63" y2="0.765" x2="66.6"/>
                <line fill="none"  stroke="#FFFFFF" stroke-linecap="round" y1="0.765" stroke-width="0.576" x1="66.6" y2="2.565" x2="68.4"/>
                <line fill="none"  stroke="#FFFFFF" stroke-linecap="round" y1="6.165" stroke-width="0.576" x1="75.6" y2="2.565" x2="75.6"/>
                <line fill="none"  stroke="#FFFFFF" stroke-linecap="round" y1="7.965" stroke-width="0.576" x1="73.8" y2="6.165" x2="75.6"/>
                <line fill="none"  stroke="#FFFFFF" stroke-linecap="round" y1="2.565" stroke-width="0.576" x1="75.6" y2="0.765" x2="73.8"/>
                <line fill="none"  stroke="#FFFFFF" stroke-linecap="round" y1="0.765" stroke-width="0.576" x1="70.2" y2="0.765" x2="73.8"/>
                <line fill="none"  stroke="#FFFFFF" stroke-linecap="round" y1="7.965" stroke-width="0.576" x1="23.4" y2="7.965" x2="19.8"/>
                <line fill="none"  stroke="#FFFFFF" stroke-linecap="round" y1="7.965" stroke-width="0.576" x1="19.8" y2="6.165" x2="18"/>
                <line fill="none"  stroke="#FFFFFF" stroke-linecap="round" y1="2.565" stroke-width="0.576" x1="18" y2="0.765" x2="19.8"/>
                <line fill="none"  stroke="#FFFFFF" stroke-linecap="round" y1="7.965" stroke-width="0.576" x1="23.4" y2="6.165" x2="25.2"/>
                <line fill="none"  stroke="#FFFFFF" stroke-linecap="round" y1="2.565" stroke-width="0.576" x1="25.2" y2="0.765" x2="23.4"/>
                <line fill="none"  stroke="#FFFFFF" stroke-linecap="round" y1="0.765" stroke-width="0.576" x1="19.8" y2="0.765" x2="23.4"/>
                <line fill="none"  stroke="#FFFFFF" stroke-linecap="round" y1="7.965" stroke-width="0.576" x1="16.2" y2="7.965" x2="12.6"/>
                <line fill="none"  stroke="#FFFFFF" stroke-linecap="round" y1="7.965" stroke-width="0.576" x1="12.6" y2="6.165" x2="10.8"/>
                <line fill="none"  stroke="#FFFFFF" stroke-linecap="round" y1="2.565" stroke-width="0.576" x1="10.8" y2="0.765" x2="12.6"/>
                <line fill="none"  stroke="#FFFFFF" stroke-linecap="round" y1="7.965" stroke-width="0.576" x1="16.2" y2="6.165" x2="18"/>
                <line fill="none"  stroke="#FFFFFF" stroke-linecap="round" y1="2.565" stroke-width="0.576" x1="18" y2="0.765" x2="16.2"/>
                <line fill="none"  stroke="#FFFFFF" stroke-linecap="round" y1="0.765" stroke-width="0.576" x1="12.6" y2="0.765" x2="16.2"/>
                <line fill="none"  stroke="#FFFFFF" stroke-linecap="round" y1="7.965" stroke-width="0.576" x1="9" y2="7.965" x2="5.4"/>
                <line fill="none"  stroke="#FFFFFF" stroke-linecap="round" y1="7.965" stroke-width="0.576" x1="5.4" y2="6.165" x2="3.6"/>
                <line fill="none"  stroke="#FFFFFF" stroke-linecap="round" y1="6.165" stroke-width="0.576" x1="3.6" y2="2.565" x2="3.6"/>
                <line fill="none"  stroke="#FFFFFF" stroke-linecap="round" y1="2.565" stroke-width="0.576" x1="3.6" y2="0.765" x2="5.4"/>
                <line fill="none"  stroke="#FFFFFF" stroke-linecap="round" y1="7.965" stroke-width="0.576" x1="9" y2="6.165" x2="10.8"/>
                <line fill="none"  stroke="#FFFFFF" stroke-linecap="round" y1="2.565" stroke-width="0.576" x1="10.8" y2="0.765" x2="9"/>
                <line fill="none"  stroke="#FFFFFF" stroke-linecap="round" y1="0.765" stroke-width="0.576" x1="5.4" y2="0.765" x2="9"/>
            </g>
        </g>
        <g >
            <title >element:JP2</title>
            <g >
                <title >package:1X10</title>
                <line fill="none"  stroke="#FFFFFF" stroke-linecap="round" y1="65.565" stroke-width="0.576" x1="48.6" y2="65.565" x2="52.2"/>
                <line fill="none"  stroke="#FFFFFF" stroke-linecap="round" y1="65.565" stroke-width="0.576" x1="52.2" y2="67.365" x2="54"/>
                <line fill="none"  stroke="#FFFFFF" stroke-linecap="round" y1="70.965" stroke-width="0.576" x1="54" y2="72.765" x2="52.2"/>
                <line fill="none"  stroke="#FFFFFF" stroke-linecap="round" y1="67.365" stroke-width="0.576" x1="39.6" y2="65.565" x2="41.4"/>
                <line fill="none"  stroke="#FFFFFF" stroke-linecap="round" y1="65.565" stroke-width="0.576" x1="41.4" y2="65.565" x2="45"/>
                <line fill="none"  stroke="#FFFFFF" stroke-linecap="round" y1="65.565" stroke-width="0.576" x1="45" y2="67.365" x2="46.8"/>
                <line fill="none"  stroke="#FFFFFF" stroke-linecap="round" y1="70.965" stroke-width="0.576" x1="46.8" y2="72.765" x2="45"/>
                <line fill="none"  stroke="#FFFFFF" stroke-linecap="round" y1="72.765" stroke-width="0.576" x1="45" y2="72.765" x2="41.4"/>
                <line fill="none"  stroke="#FFFFFF" stroke-linecap="round" y1="72.765" stroke-width="0.576" x1="41.4" y2="70.965" x2="39.6"/>
                <line fill="none"  stroke="#FFFFFF" stroke-linecap="round" y1="65.565" stroke-width="0.576" x1="48.6" y2="67.365" x2="46.8"/>
                <line fill="none"  stroke="#FFFFFF" stroke-linecap="round" y1="70.965" stroke-width="0.576" x1="46.8" y2="72.765" x2="48.6"/>
                <line fill="none"  stroke="#FFFFFF" stroke-linecap="round" y1="72.765" stroke-width="0.576" x1="52.2" y2="72.765" x2="48.6"/>
                <line fill="none"  stroke="#FFFFFF" stroke-linecap="round" y1="65.565" stroke-width="0.576" x1="27" y2="65.565" x2="30.6"/>
                <line fill="none"  stroke="#FFFFFF" stroke-linecap="round" y1="65.565" stroke-width="0.576" x1="30.6" y2="67.365" x2="32.4"/>
                <line fill="none"  stroke="#FFFFFF" stroke-linecap="round" y1="70.965" stroke-width="0.576" x1="32.4" y2="72.765" x2="30.6"/>
                <line fill="none"  stroke="#FFFFFF" stroke-linecap="round" y1="67.365" stroke-width="0.576" x1="32.4" y2="65.565" x2="34.2"/>
                <line fill="none"  stroke="#FFFFFF" stroke-linecap="round" y1="65.565" stroke-width="0.576" x1="34.2" y2="65.565" x2="37.8"/>
                <line fill="none"  stroke="#FFFFFF" stroke-linecap="round" y1="65.565" stroke-width="0.576" x1="37.8" y2="67.365" x2="39.6"/>
                <line fill="none"  stroke="#FFFFFF" stroke-linecap="round" y1="70.965" stroke-width="0.576" x1="39.6" y2="72.765" x2="37.8"/>
                <line fill="none"  stroke="#FFFFFF" stroke-linecap="round" y1="72.765" stroke-width="0.576" x1="37.8" y2="72.765" x2="34.2"/>
                <line fill="none"  stroke="#FFFFFF" stroke-linecap="round" y1="72.765" stroke-width="0.576" x1="34.2" y2="70.965" x2="32.4"/>
                <line fill="none"  stroke="#FFFFFF" stroke-linecap="round" y1="67.365" stroke-width="0.576" x1="18" y2="65.565" x2="19.8"/>
                <line fill="none"  stroke="#FFFFFF" stroke-linecap="round" y1="65.565" stroke-width="0.576" x1="19.8" y2="65.565" x2="23.4"/>
                <line fill="none"  stroke="#FFFFFF" stroke-linecap="round" y1="65.565" stroke-width="0.576" x1="23.4" y2="67.365" x2="25.2"/>
                <line fill="none"  stroke="#FFFFFF" stroke-linecap="round" y1="70.965" stroke-width="0.576" x1="25.2" y2="72.765" x2="23.4"/>
                <line fill="none"  stroke="#FFFFFF" stroke-linecap="round" y1="72.765" stroke-width="0.576" x1="23.4" y2="72.765" x2="19.8"/>
                <line fill="none"  stroke="#FFFFFF" stroke-linecap="round" y1="72.765" stroke-width="0.576" x1="19.8" y2="70.965" x2="18"/>
                <line fill="none"  stroke="#FFFFFF" stroke-linecap="round" y1="65.565" stroke-width="0.576" x1="27" y2="67.365" x2="25.2"/>
                <line fill="none"  stroke="#FFFFFF" stroke-linecap="round" y1="70.965" stroke-width="0.576" x1="25.2" y2="72.765" x2="27"/>
                <line fill="none"  stroke="#FFFFFF" stroke-linecap="round" y1="72.765" stroke-width="0.576" x1="30.6" y2="72.765" x2="27"/>
                <line fill="none"  stroke="#FFFFFF" stroke-linecap="round" y1="65.565" stroke-width="0.576" x1="5.4" y2="65.565" x2="9"/>
                <line fill="none"  stroke="#FFFFFF" stroke-linecap="round" y1="65.565" stroke-width="0.576" x1="9" y2="67.365" x2="10.8"/>
                <line fill="none"  stroke="#FFFFFF" stroke-linecap="round" y1="70.965" stroke-width="0.576" x1="10.8" y2="72.765" x2="9"/>
                <line fill="none"  stroke="#FFFFFF" stroke-linecap="round" y1="67.365" stroke-width="0.576" x1="10.8" y2="65.565" x2="12.6"/>
                <line fill="none"  stroke="#FFFFFF" stroke-linecap="round" y1="65.565" stroke-width="0.576" x1="12.6" y2="65.565" x2="16.2"/>
                <line fill="none"  stroke="#FFFFFF" stroke-linecap="round" y1="65.565" stroke-width="0.576" x1="16.2" y2="67.365" x2="18"/>
                <line fill="none"  stroke="#FFFFFF" stroke-linecap="round" y1="70.965" stroke-width="0.576" x1="18" y2="72.765" x2="16.2"/>
                <line fill="none"  stroke="#FFFFFF" stroke-linecap="round" y1="72.765" stroke-width="0.576" x1="16.2" y2="72.765" x2="12.6"/>
                <line fill="none"  stroke="#FFFFFF" stroke-linecap="round" y1="72.765" stroke-width="0.576" x1="12.6" y2="70.965" x2="10.8"/>
                <line fill="none"  stroke="#FFFFFF" stroke-linecap="round" y1="67.365" stroke-width="0.576" x1="3.6" y2="70.965" x2="3.6"/>
                <line fill="none"  stroke="#FFFFFF" stroke-linecap="round" y1="65.565" stroke-width="0.576" x1="5.4" y2="67.365" x2="3.6"/>
                <line fill="none"  stroke="#FFFFFF" stroke-linecap="round" y1="70.965" stroke-width="0.576" x1="3.6" y2="72.765" x2="5.4"/>
                <line fill="none"  stroke="#FFFFFF" stroke-linecap="round" y1="72.765" stroke-width="0.576" x1="9" y2="72.765" x2="5.4"/>
                <line fill="none"  stroke="#FFFFFF" stroke-linecap="round" y1="65.565" stroke-width="0.576" x1="55.8" y2="65.565" x2="59.4"/>
                <line fill="none"  stroke="#FFFFFF" stroke-linecap="round" y1="65.565" stroke-width="0.576" x1="59.4" y2="67.365" x2="61.2"/>
                <line fill="none"  stroke="#FFFFFF" stroke-linecap="round" y1="70.965" stroke-width="0.576" x1="61.2" y2="72.765" x2="59.4"/>
                <line fill="none"  stroke="#FFFFFF" stroke-linecap="round" y1="65.565" stroke-width="0.576" x1="55.8" y2="67.365" x2="54"/>
                <line fill="none"  stroke="#FFFFFF" stroke-linecap="round" y1="70.965" stroke-width="0.576" x1="54" y2="72.765" x2="55.8"/>
                <line fill="none"  stroke="#FFFFFF" stroke-linecap="round" y1="72.765" stroke-width="0.576" x1="59.4" y2="72.765" x2="55.8"/>
                <line fill="none"  stroke="#FFFFFF" stroke-linecap="round" y1="65.565" stroke-width="0.576" x1="63" y2="65.565" x2="66.6"/>
                <line fill="none"  stroke="#FFFFFF" stroke-linecap="round" y1="65.565" stroke-width="0.576" x1="66.6" y2="67.365" x2="68.4"/>
                <line fill="none"  stroke="#FFFFFF" stroke-linecap="round" y1="70.965" stroke-width="0.576" x1="68.4" y2="72.765" x2="66.6"/>
                <line fill="none"  stroke="#FFFFFF" stroke-linecap="round" y1="65.565" stroke-width="0.576" x1="63" y2="67.365" x2="61.2"/>
                <line fill="none"  stroke="#FFFFFF" stroke-linecap="round" y1="70.965" stroke-width="0.576" x1="61.2" y2="72.765" x2="63"/>
                <line fill="none"  stroke="#FFFFFF" stroke-linecap="round" y1="72.765" stroke-width="0.576" x1="66.6" y2="72.765" x2="63"/>
                <line fill="none"  stroke="#FFFFFF" stroke-linecap="round" y1="65.565" stroke-width="0.576" x1="70.2" y2="65.565" x2="73.8"/>
                <line fill="none"  stroke="#FFFFFF" stroke-linecap="round" y1="65.565" stroke-width="0.576" x1="73.8" y2="67.365" x2="75.6"/>
                <line fill="none"  stroke="#FFFFFF" stroke-linecap="round" y1="67.365" stroke-width="0.576" x1="75.6" y2="70.965" x2="75.6"/>
                <line fill="none"  stroke="#FFFFFF" stroke-linecap="round" y1="70.965" stroke-width="0.576" x1="75.6" y2="72.765" x2="73.8"/>
                <line fill="none"  stroke="#FFFFFF" stroke-linecap="round" y1="65.565" stroke-width="0.576" x1="70.2" y2="67.365" x2="68.4"/>
                <line fill="none"  stroke="#FFFFFF" stroke-linecap="round" y1="70.965" stroke-width="0.576" x1="68.4" y2="72.765" x2="70.2"/>
                <line fill="none"  stroke="#FFFFFF" stroke-linecap="round" y1="72.765" stroke-width="0.576" x1="73.8" y2="72.765" x2="70.2"/>
            </g>
        </g>
        <g >
            <title >element:U1</title>
            <g >
                <title >package:COPERNICUS</title>
                <line fill="none"  stroke="#FFFFFF" stroke-linecap="round" y1="62.433" stroke-width="0.576" x1="12.47" y2="63.85" x2="12.47"/>
                <line fill="none"  stroke="#FFFFFF" stroke-linecap="round" y1="63.85" stroke-width="0.576" x1="12.47" y2="63.85" x2="16.155"/>
                <line fill="none"  stroke="#FFFFFF" stroke-linecap="round" y1="11.126" stroke-width="0.576" x1="66.328" y2="9.992" x2="66.328"/>
                <line fill="none"  stroke="#FFFFFF" stroke-linecap="round" y1="9.992" stroke-width="0.576" x1="66.328" y2="9.992" x2="61.509"/>
                <line fill="none"  stroke="#FFFFFF" stroke-linecap="round" y1="9.992" stroke-width="0.576" x1="16.155" y2="9.992" x2="12.47"/>
                <line fill="none"  stroke="#FFFFFF" stroke-linecap="round" y1="9.992" stroke-width="0.576" x1="12.47" y2="11.126" x2="12.47"/>
                <line fill="none"  stroke="#FFFFFF" stroke-linecap="round" y1="63.85" stroke-width="0.576" x1="61.509" y2="63.85" x2="66.328"/>
                <line fill="none"  stroke="#FFFFFF" stroke-linecap="round" y1="63.85" stroke-width="0.576" x1="66.328" y2="62.15" x2="66.328"/>
                <circle fill="none" cx="58.674"  cy="60.165" stroke="#FFFFFF" r="1.295" stroke-width="0.576"/>
            </g>
        </g>
    </g>
    <g gorn="0.3"  id="copper1">
        <circle fill="none" cx="28.8" gorn="0.3.0"  cy="69.165" stroke="#F7BD13" r="2.052" id="connector13pad" stroke-width="1.224"/>
        <circle fill="none" cx="57.6" gorn="0.3.1"  cy="69.165" stroke="#F7BD13" id="connector17pad" r="2.052" stroke-width="1.224"/>
        <circle fill="none" cx="14.4" gorn="0.3.2"  cy="69.165" stroke="#F7BD13" r="2.052" id="connector11pad" stroke-width="1.224"/>
        <circle fill="none" cx="72" gorn="0.3.3"  cy="4.365" stroke="#F7BD13" id="connector0pad" r="2.052" stroke-width="1.224"/>
        <circle fill="none" cx="43.2" gorn="0.3.4"  cy="69.165" stroke="#F7BD13" r="2.052" id="connector15pad" stroke-width="1.224"/>
        <circle fill="none" cx="64.8" gorn="0.3.5"  cy="4.365" stroke="#F7BD13" id="connector5pad" r="2.052" stroke-width="1.224"/>
        <circle fill="none" cx="72" gorn="0.3.6"  cy="69.165" stroke="#F7BD13" id="connector19pad" r="2.052" stroke-width="1.224"/>
        <circle fill="none" cx="57.6" gorn="0.3.7"  cy="4.365" stroke="#F7BD13" id="connector2pad" r="2.052" stroke-width="1.224"/>
        <circle fill="none" cx="50.4" gorn="0.3.8"  cy="4.365" stroke="#F7BD13" id="connector3pad" r="2.052" stroke-width="1.224"/>
        <circle fill="none" cx="21.6" gorn="0.3.9"  cy="69.165" stroke="#F7BD13" r="2.052" id="connector12pad" stroke-width="1.224"/>
        <circle fill="none" cx="43.2" gorn="0.3.10"  cy="4.365" stroke="#F7BD13" id="connector1pad" r="2.052" stroke-width="1.224"/>
        <circle fill="none" cx="36" gorn="0.3.11"  cy="69.165" stroke="#F7BD13" r="2.052" id="connector14pad" stroke-width="1.224"/>
        <circle fill="none" cx="36" gorn="0.3.12"  cy="4.365" stroke="#F7BD13" id="connector4pad" r="2.052" stroke-width="1.224"/>
        <circle fill="none" cx="50.4" gorn="0.3.13"  cy="69.165" stroke="#F7BD13" id="connector16pad" r="2.052" stroke-width="1.224"/>
        <circle fill="none" cx="28.8" gorn="0.3.14"  cy="4.365" stroke="#F7BD13" r="2.052" id="connector6pad" stroke-width="1.224"/>
        <circle fill="none" cx="64.8" gorn="0.3.15"  cy="69.165" stroke="#F7BD13" id="connector18pad" r="2.052" stroke-width="1.224"/>
        <circle fill="none" cx="21.6" gorn="0.3.16"  cy="4.365" stroke="#F7BD13" r="2.052" id="connector7pad" stroke-width="1.224"/>
        <circle fill="none" cx="14.4" gorn="0.3.17"  cy="4.365" stroke="#F7BD13" r="2.052" id="connector8pad" stroke-width="1.224"/>
        <circle fill="none" cx="7.2" gorn="0.3.18"  cy="4.365" stroke="#F7BD13" r="2.052" id="connector9pad" stroke-width="1.224"/>
        <circle fill="none" cx="7.2" gorn="0.3.19"  cy="69.165" stroke="#F7BD13" r="2.052" id="connector10pad" stroke-width="1.224"/>
    </g>
</svg>
