<?xml version='1.0' encoding='utf-8'?>
<!DOCTYPE svg>
<!-- Generator: Adobe Illustrator 17.0.0, SVG Export Plug-In . SVG Version: 6.00 Build 0)  -->
<svg xmlns="http://www.w3.org/2000/svg" width="1.81482in" x="0px" version="1.1" y="0px" gorn="0"  height="1.01908in" viewBox="0 0 130.667 73.374" xmlns:xml="http://www.w3.org/XML/1998/namespace" id="Layer_1" enable-background="new 0 0 130.667 73.374" xml:space="preserve">
    <desc >
        <referenceFile >CC3000_pcb.svg</referenceFile>
    </desc>
    <desc >Fritzing footprint generated by brd2svg</desc>
    <g gorn="0.2"  id="silkscreen">
        <path fill="none" gorn="0.2.0"  stroke="#FFFFFF" id="silkscreen_1_" stroke-width="1" d="M0.616,72.624v-72h129.6v72H0.616z M22.287,2.803c-2.692,0-4.875,2.183-4.875,4.875s2.183,4.875,4.875,4.875s4.875-2.183,4.875-4.875S24.98,2.803,22.287,2.803z M22.287,60.594c-2.692,0-4.875,2.183-4.875,4.875s2.183,4.875,4.875,4.875s4.875-2.183,4.875-4.875S24.98,60.594,22.287,60.594z" stroke-miterlimit="10"/>
        <path fill="none" gorn="0.2.1"  stroke="#FFFFFF" id="silkscreen_2_" stroke-width="1" d="M0.616,72.624v-72h129.6v72H0.616z M22.287,2.803c-2.692,0-4.875,2.183-4.875,4.875s2.183,4.875,4.875,4.875s4.875-2.183,4.875-4.875S24.98,2.803,22.287,2.803z M22.287,60.594c-2.692,0-4.875,2.183-4.875,4.875s2.183,4.875,4.875,4.875s4.875-2.183,4.875-4.875S24.98,60.594,22.287,60.594z" stroke-miterlimit="10"/>
    </g>
    <g gorn="0.3"  id="copper0">
        <g gorn="0.3.0"  id="copper1">
            <circle fill="none" cx="4.544" gorn="0.3.0.0"  cy="7.928" stroke="#F7BD13" id="connector0pin" r="2.052" stroke-width="1.224"/>
            <circle fill="none" cx="4.544" gorn="0.3.0.1"  cy="15.128" stroke="#F7BD13" id="connector1pin" r="2.052" stroke-width="1.224"/>
            <circle fill="none" cx="4.544" gorn="0.3.0.2"  cy="22.328" stroke="#F7BD13" id="connector2pin" r="2.052" stroke-width="1.224"/>
            <circle fill="none" cx="4.544" gorn="0.3.0.3"  cy="29.528" stroke="#F7BD13" id="connector3pin" r="2.052" stroke-width="1.224"/>
            <circle fill="none" cx="4.544" gorn="0.3.0.4"  cy="36.728" stroke="#F7BD13" id="connector4pin" r="2.052" stroke-width="1.224"/>
            <circle fill="none" cx="4.544" gorn="0.3.0.5"  cy="43.928" stroke="#F7BD13" id="connector5pin" r="2.052" stroke-width="1.224"/>
            <circle fill="none" cx="4.544" gorn="0.3.0.6"  cy="51.069" stroke="#F7BD13" id="connector6pin" r="2.052" stroke-width="1.224"/>
            <circle fill="none" cx="4.544" gorn="0.3.0.7"  cy="58.269" stroke="#F7BD13" id="connector7pin" r="2.052" stroke-width="1.224"/>
            <circle fill="none" cx="4.544" gorn="0.3.0.8"  cy="65.469" stroke="#F7BD13" id="connector8pin" r="2.052" stroke-width="1.224"/>
            <circle fill="none" cx="69.147" gorn="0.3.0.9"  cy="7.887" stroke="#F7BD13" id="connector9pin" r="2.052" stroke-width="1.224"/>
            <circle fill="none" cx="76.347" gorn="0.3.0.10"  cy="7.887" stroke="#F7BD13" id="connector10pin" r="2.052" stroke-width="1.224"/>
            <circle fill="none" cx="83.547" gorn="0.3.0.11"  cy="7.887" stroke="#F7BD13" id="connector11pin" r="2.052" stroke-width="1.224"/>
        </g>
    </g>
</svg>
