<?xml version='1.0' encoding='utf-8'?>
<!DOCTYPE svg>
<!-- Generator: Adobe Illustrator 18.0.0, SVG Export Plug-In . SVG Version: 6.00 Build 0)  -->
<svg xmlns="http://www.w3.org/2000/svg" id="Layer_1" version="1.1"  gorn="0" xmlns:xml="http://www.w3.org/XML/1998/namespace" width="18.35mm" viewBox="0 0 52 122.6" baseProfile="basic" height="43.25mm" xml:space="preserve">
    <desc >
        <referenceFile >BlendMicro-breadboard.svg</referenceFile>
    </desc>
    <g  transform="translate(-921.3,-359.2)">
        <g >
            <g >
                <g >
                    <g >
                        <g >
                            <g id="pcb"  gorn="0.1.0.0.0.0.0.0">
                                <path id="Shape" fill="#E63725"  d="M970.4,478.5h-46.3c-1.6,0-2.8-1.3-2.8-2.8V362c-0.1-1.5,1.2-2.8,2.8-2.8h46.4c1.6,0,2.8,1.3,2.8,2.8v113.7C973.3,477.2,972,478.5,970.4,478.5L970.4,478.5L970.4,478.5z" gorn="0.1.0.0.0.0.0.0.0" type="MSShapeGroup"/>
                                <circle id="connector35pin" cy="473.2" fill="#E6E6E6"  gorn="0.1.0.0.0.0.0.0.1" cx="968.6" type="MSShapeGroup" r="1.9"/>
                                <rect id="Rectangle-path" x="967.8" y="472.4" fill="#CCCCCC"  gorn="0.1.0.0.0.0.0.0.2" width="1.6" height="1.6" type="MSShapeGroup"/>
                                <circle id="connector27pin" cy="466" fill="#E6E6E6"  gorn="0.1.0.0.0.0.0.0.3" cx="968.6" type="MSShapeGroup" r="1.9"/>
                                <rect id="Rectangle-path_1_" x="967.8" y="465.2" fill="#CCCCCC"  gorn="0.1.0.0.0.0.0.0.4" width="1.6" height="1.6" type="MSShapeGroup"/>
                                <circle id="connector26pin" cy="458.8" fill="#E6E6E6"  gorn="0.1.0.0.0.0.0.0.5" cx="968.6" type="MSShapeGroup" r="1.9"/>
                                <rect id="Rectangle-path_2_" x="967.8" y="458" fill="#CCCCCC"  gorn="0.1.0.0.0.0.0.0.6" width="1.6" height="1.6" type="MSShapeGroup"/>
                                <circle id="connector25pin" cy="451.6" fill="#E6E6E6"  gorn="0.1.0.0.0.0.0.0.7" cx="968.6" type="MSShapeGroup" r="1.9"/>
                                <rect id="Rectangle-path_3_" x="967.8" y="450.8" fill="#CCCCCC"  gorn="0.1.0.0.0.0.0.0.8" width="1.6" height="1.6" type="MSShapeGroup"/>
                                <circle id="connector24pin" cy="444.4" fill="#E6E6E6"  gorn="0.1.0.0.0.0.0.0.9" cx="968.6" type="MSShapeGroup" r="1.9"/>
                                <rect id="Rectangle-path_4_" x="967.8" y="443.6" fill="#CCCCCC"  gorn="0.1.0.0.0.0.0.0.10" width="1.6" height="1.6" type="MSShapeGroup"/>
                                <circle id="connector23pin" cy="437.2" fill="#E6E6E6"  gorn="0.1.0.0.0.0.0.0.11" cx="968.6" type="MSShapeGroup" r="1.9"/>
                                <rect id="Rectangle-path_5_" x="967.8" y="436.4" fill="#CCCCCC"  gorn="0.1.0.0.0.0.0.0.12" width="1.6" height="1.6" type="MSShapeGroup"/>
                                <circle id="connector22pin" cy="430" fill="#E6E6E6"  gorn="0.1.0.0.0.0.0.0.13" cx="968.6" type="MSShapeGroup" r="1.9"/>
                                <rect id="Rectangle-path_6_" x="967.8" y="429.2" fill="#CCCCCC"  gorn="0.1.0.0.0.0.0.0.14" width="1.6" height="1.6" type="MSShapeGroup"/>
                                <circle id="connector21pin" cy="422.8" fill="#E6E6E6"  gorn="0.1.0.0.0.0.0.0.15" cx="968.6" type="MSShapeGroup" r="1.9"/>
                                <rect id="Rectangle-path_7_" x="967.8" y="422" fill="#CCCCCC"  gorn="0.1.0.0.0.0.0.0.16" width="1.6" height="1.6" type="MSShapeGroup"/>
                                <circle id="connector20pin" cy="415.6" fill="#E6E6E6"  gorn="0.1.0.0.0.0.0.0.17" cx="968.6" type="MSShapeGroup" r="1.9"/>
                                <rect x="967.8" y="414.8" fill="#CCCCCC"  width="1.6" height="1.6" type="MSShapeGroup"/>
                                <circle id="connector19pin" cy="408.4" fill="#E6E6E6"  gorn="0.1.0.0.0.0.0.0.19" cx="968.6" type="MSShapeGroup" r="1.9"/>
                                <rect id="Rectangle-path_9_" x="967.8" y="407.6" fill="#CCCCCC"  gorn="0.1.0.0.0.0.0.0.20" width="1.6" height="1.6" type="MSShapeGroup"/>
                                <circle id="connector18pin" cy="401.2" fill="#E6E6E6"  gorn="0.1.0.0.0.0.0.0.21" cx="968.6" type="MSShapeGroup" r="1.9"/>
                                <rect id="Rectangle-path_10_" x="967.8" y="400.4" fill="#CCCCCC"  gorn="0.1.0.0.0.0.0.0.22" width="1.6" height="1.6" type="MSShapeGroup"/>
                                <circle id="connector17pin" cy="394" fill="#E6E6E6"  gorn="0.1.0.0.0.0.0.0.23" cx="968.6" type="MSShapeGroup" r="1.9"/>
                                <rect id="Rectangle-path_11_" x="967.8" y="393.2" fill="#CCCCCC"  gorn="0.1.0.0.0.0.0.0.24" width="1.6" height="1.6" type="MSShapeGroup"/>
                                <circle id="connector16pin" cy="386.8" fill="#E6E6E6"  gorn="0.1.0.0.0.0.0.0.25" cx="968.6" type="MSShapeGroup" r="1.9"/>
                                <rect id="Rectangle-path_12_" x="967.8" y="386" fill="#CCCCCC"  gorn="0.1.0.0.0.0.0.0.26" width="1.6" height="1.6" type="MSShapeGroup"/>
                                <circle id="connector15pin" cy="379.6" fill="#E6E6E6"  gorn="0.1.0.0.0.0.0.0.27" cx="968.6" type="MSShapeGroup" r="1.9"/>
                                <rect id="Rectangle-path_13_" x="967.8" y="378.8" fill="#CCCCCC"  gorn="0.1.0.0.0.0.0.0.28" width="1.6" height="1.6" type="MSShapeGroup"/>
                                <circle id="connector34pin" cy="473.2" fill="#E6E6E6"  gorn="0.1.0.0.0.0.0.0.29" cx="925.1" type="MSShapeGroup" r="1.9"/>
                                <rect x="924.4" y="472.4" fill="#CCCCCC"  width="1.6" height="1.6" type="MSShapeGroup"/>
                                <circle id="connector13pin" cy="466" fill="#E6E6E6"  gorn="0.1.0.0.0.0.0.0.31" cx="925.1" type="MSShapeGroup" r="1.9"/>
                                <rect id="Rectangle-path_15_" x="924.4" y="465.2" fill="#CCCCCC"  gorn="0.1.0.0.0.0.0.0.32" width="1.6" height="1.6" type="MSShapeGroup"/>
                                <circle id="connector12pin" cy="458.8" fill="#E6E6E6"  gorn="0.1.0.0.0.0.0.0.33" cx="925.1" type="MSShapeGroup" r="1.9"/>
                                <rect id="Rectangle-path_16_" x="924.4" y="458" fill="#CCCCCC"  gorn="0.1.0.0.0.0.0.0.34" width="1.6" height="1.6" type="MSShapeGroup"/>
                                <circle id="connector11pin" cy="451.6" fill="#E6E6E6"  gorn="0.1.0.0.0.0.0.0.35" cx="925.1" type="MSShapeGroup" r="1.9"/>
                                <rect id="Rectangle-path_17_" x="924.4" y="450.8" fill="#CCCCCC"  gorn="0.1.0.0.0.0.0.0.36" width="1.6" height="1.6" type="MSShapeGroup"/>
                                <circle id="connector10pin" cy="444.4" fill="#E6E6E6"  gorn="0.1.0.0.0.0.0.0.37" cx="925.1" type="MSShapeGroup" r="1.9"/>
                                <rect id="Rectangle-path_18_" x="924.4" y="443.6" fill="#CCCCCC"  gorn="0.1.0.0.0.0.0.0.38" width="1.6" height="1.6" type="MSShapeGroup"/>
                                <circle id="connector9pin" cy="437.2" fill="#E6E6E6"  gorn="0.1.0.0.0.0.0.0.39" cx="925.1" type="MSShapeGroup" r="1.9"/>
                                <rect id="Rectangle-path_19_" x="924.4" y="436.4" fill="#CCCCCC"  gorn="0.1.0.0.0.0.0.0.40" width="1.6" height="1.6" type="MSShapeGroup"/>
                                <circle id="connector8pin" cy="430" fill="#E6E6E6"  gorn="0.1.0.0.0.0.0.0.41" cx="925.1" type="MSShapeGroup" r="1.9"/>
                                <rect id="Rectangle-path_20_" x="924.4" y="429.2" fill="#CCCCCC"  gorn="0.1.0.0.0.0.0.0.42" width="1.6" height="1.6" type="MSShapeGroup"/>
                                <circle id="connector7pin" cy="422.8" fill="#E6E6E6"  gorn="0.1.0.0.0.0.0.0.43" cx="925.1" type="MSShapeGroup" r="1.9"/>
                                <rect id="Rectangle-path_21_" x="924.4" y="422" fill="#CCCCCC"  gorn="0.1.0.0.0.0.0.0.44" width="1.6" height="1.6" type="MSShapeGroup"/>
                                <circle id="connector6pin" cy="415.6" fill="#E6E6E6"  gorn="0.1.0.0.0.0.0.0.45" cx="925.1" type="MSShapeGroup" r="1.9"/>
                                <rect id="Rectangle-path_22_" x="924.4" y="414.8" fill="#CCCCCC"  gorn="0.1.0.0.0.0.0.0.46" width="1.6" height="1.6" type="MSShapeGroup"/>
                                <circle id="connector5pin" cy="408.4" fill="#E6E6E6"  gorn="0.1.0.0.0.0.0.0.47" cx="925.1" type="MSShapeGroup" r="1.9"/>
                                <rect id="Rectangle-path_23_" x="924.4" y="407.6" fill="#CCCCCC"  gorn="0.1.0.0.0.0.0.0.48" width="1.6" height="1.6" type="MSShapeGroup"/>
                                <circle id="connector4pin" cy="401.2" fill="#E6E6E6"  gorn="0.1.0.0.0.0.0.0.49" cx="925.1" type="MSShapeGroup" r="1.9"/>
                                <rect id="Rectangle-path_24_" x="924.4" y="400.4" fill="#CCCCCC"  gorn="0.1.0.0.0.0.0.0.50" width="1.6" height="1.6" type="MSShapeGroup"/>
                                <circle id="connector3pin" cy="394" fill="#E6E6E6"  gorn="0.1.0.0.0.0.0.0.51" cx="925.1" type="MSShapeGroup" r="1.9"/>
                                <rect id="Rectangle-path_25_" x="924.4" y="393.2" fill="#CCCCCC"  gorn="0.1.0.0.0.0.0.0.52" width="1.6" height="1.6" type="MSShapeGroup"/>
                                <circle id="connector2pin" cy="386.8" fill="#E6E6E6"  gorn="0.1.0.0.0.0.0.0.53" cx="925.1" type="MSShapeGroup" r="1.9"/>
                                <rect id="Rectangle-path_26_" x="924.4" y="386" fill="#CCCCCC"  gorn="0.1.0.0.0.0.0.0.54" width="1.6" height="1.6" type="MSShapeGroup"/>
                                <circle id="connector1pin" cy="379.7" fill="#E6E6E6"  gorn="0.1.0.0.0.0.0.0.55" cx="925.1" type="MSShapeGroup" r="1.9"/>
                                <rect id="Rectangle-path_27_" x="924.4" y="378.9" fill="#CCCCCC"  gorn="0.1.0.0.0.0.0.0.56" width="1.6" height="1.6" type="MSShapeGroup"/>
                                <rect id="Rectangle-path_28_" x="942.6" y="463.7" fill="#666666"  gorn="0.1.0.0.0.0.0.0.57" width="1.3" height="3"/>
                                <rect id="Rectangle-path_29_" x="942.6" y="463.7" fill="#999999"  gorn="0.1.0.0.0.0.0.0.58" width="0.1" height="2.8"/>
                                <rect id="Rectangle-path_30_" x="945" y="463.7" fill="#666666"  gorn="0.1.0.0.0.0.0.0.59" width="1.3" height="3"/>
                                <rect id="Rectangle-path_31_" x="945" y="463.7" fill="#999999"  gorn="0.1.0.0.0.0.0.0.60" width="0.1" height="2.8"/>
                                <rect id="Rectangle-path_32_" x="947.3" y="463.7" fill="#666666"  gorn="0.1.0.0.0.0.0.0.61" width="1.3" height="3"/>
                                <rect id="Rectangle-path_33_" x="947.3" y="463.7" fill="#999999"  gorn="0.1.0.0.0.0.0.0.62" width="0.1" height="2.8"/>
                                <rect id="Rectangle-path_34_" x="949.6" y="463.7" fill="#666666"  gorn="0.1.0.0.0.0.0.0.63" width="1.3" height="3"/>
                                <rect id="Rectangle-path_35_" x="949.6" y="463.7" fill="#999999"  gorn="0.1.0.0.0.0.0.0.64" width="0.1" height="2.8"/>
                                <path id="Shape_1_" fill="#CCCCCC"  d="M951.4,447.2v0.1H947v-0.1h-3.3v6.3h11v-6.3H951.4L951.4,447.2z" gorn="0.1.0.0.0.0.0.0.65" type="MSShapeGroup"/>
                                <path id="Shape_2_" fill="#CCCCCC"  d="M947,454.5v-0.1h4.4v0.1h3.3v-6.2h-11v6.2H947L947,454.5z" gorn="0.1.0.0.0.0.0.0.66" type="MSShapeGroup"/>
                                <circle id="Oval_28_" cy="450.9"  gorn="0.1.0.0.0.0.0.0.67" cx="949.2" type="MSShapeGroup" r="2.3"/>
                                <circle id="Oval_29_" cy="450.9" fill="#1A1A1A"  gorn="0.1.0.0.0.0.0.0.68" cx="949.2" type="MSShapeGroup" r="2.2"/>
                                <circle id="Oval_30_" cy="450.8" fill="#333333"  gorn="0.1.0.0.0.0.0.0.69" cx="949.2" type="MSShapeGroup" r="2.2"/>
                                <path id="Shape_3_" fill="none"  d="M954,460.8h7.2" gorn="0.1.0.0.0.0.0.0.70" type="MSShapeGroup"/>
                                <rect id="Rectangle-path_36_" x="938.8" y="394.4" fill="#1A1A1A"  gorn="0.1.0.0.0.0.0.0.71" width="14.3" height="14.4" type="MSShapeGroup"/>
                                <rect id="Rectangle-path_37_" x="937.1" y="428.7" fill="#CCCCCC"  gorn="0.1.0.0.0.0.0.0.72" width="6.1" height="8.2" type="MSShapeGroup"/>
                                <rect id="Rectangle-path_38_" x="943" y="376.8" fill="#CCCCCC"  gorn="0.1.0.0.0.0.0.0.73" width="6.3" height="5.3" type="MSShapeGroup"/>
                                <rect id="Rectangle-path_39_" x="946.9" y="424.5"  gorn="0.1.0.0.0.0.0.0.74" width="1.6" height="3.3"/>
                                <rect id="Rectangle-path_40_" x="946.9" y="424" fill="#CCCCCC"  gorn="0.1.0.0.0.0.0.0.75" width="1.6" height="1.6"/>
                                <rect id="Rectangle-path_41_" x="946.9" y="427.2" fill="#CCCCCC"  gorn="0.1.0.0.0.0.0.0.76" width="1.6" height="1.5"/>
                                <rect id="Rectangle-path_42_" x="952.5" y="424.5"  gorn="0.1.0.0.0.0.0.0.77" width="1.6" height="3.3"/>
                                <rect id="Rectangle-path_43_" x="952.5" y="424" fill="#CCCCCC"  gorn="0.1.0.0.0.0.0.0.78" width="1.6" height="1.6"/>
                                <rect id="Rectangle-path_44_" x="952.5" y="427.2" fill="#CCCCCC"  gorn="0.1.0.0.0.0.0.0.79" width="1.6" height="1.5"/>
                                <rect id="Rectangle-path_45_" x="956.1" y="424.5"  gorn="0.1.0.0.0.0.0.0.80" width="1.6" height="3.3"/>
                                <rect id="Rectangle-path_46_" x="956.1" y="424" fill="#CCCCCC"  gorn="0.1.0.0.0.0.0.0.81" width="1.6" height="1.6"/>
                                <rect id="Rectangle-path_47_" x="956.1" y="427.2" fill="#CCCCCC"  gorn="0.1.0.0.0.0.0.0.82" width="1.6" height="1.5"/>
                                <rect id="Rectangle-path_48_" x="930.7" y="446.9"  gorn="0.1.0.0.0.0.0.0.83" width="1.6" height="3.3"/>
                                <rect id="Rectangle-path_49_" x="930.7" y="446.4" fill="#CCCCCC"  gorn="0.1.0.0.0.0.0.0.84" width="1.6" height="1.6"/>
                                <rect id="Rectangle-path_50_" x="930.7" y="449.6" fill="#CCCCCC"  gorn="0.1.0.0.0.0.0.0.85" width="1.6" height="1.5"/>
                                <rect id="Rectangle-path_51_" x="933.5" y="446.9"  gorn="0.1.0.0.0.0.0.0.86" width="1.6" height="3.3"/>
                                <rect id="Rectangle-path_52_" x="933.5" y="446.4" fill="#CCCCCC"  gorn="0.1.0.0.0.0.0.0.87" width="1.6" height="1.6"/>
                                <rect id="Rectangle-path_53_" x="933.5" y="449.7" fill="#CCCCCC"  gorn="0.1.0.0.0.0.0.0.88" width="1.6" height="1.5"/>
                                <rect id="Rectangle-path_54_" x="951.2" y="385.2"  gorn="0.1.0.0.0.0.0.0.89" width="1.6" height="3.3"/>
                                <rect id="Rectangle-path_55_" x="951.2" y="384.7" fill="#CCCCCC"  gorn="0.1.0.0.0.0.0.0.90" width="1.6" height="1.6"/>
                                <rect id="Rectangle-path_56_" x="951.2" y="388" fill="#CCCCCC"  gorn="0.1.0.0.0.0.0.0.91" width="1.6" height="1.5"/>
                                <rect id="Rectangle-path_57_" x="935.9" y="466.3" fill="#333333"  gorn="0.1.0.0.0.0.0.0.92" width="20.8" height="15.3" type="MSShapeGroup"/>
                                <rect id="Rectangle-path_58_" x="934.6" y="387.5"  gorn="0.1.0.0.0.0.0.0.93" width="3.3" height="1.6"/>
                                <rect id="Rectangle-path_59_" x="934.1" y="387.5" fill="#CCCCCC"  gorn="0.1.0.0.0.0.0.0.94" width="1.6" height="1.6"/>
                                <rect id="Rectangle-path_60_" x="937.3" y="387.5" fill="#CCCCCC"  gorn="0.1.0.0.0.0.0.0.95" width="1.5" height="1.6"/>
                                <path id="Shape_4_" fill="#E6E6E6"  d="M951.8,466.2v0.2v1.5h2.1c0.5,0,0.9,0.4,0.9,0.9s-0.4,0.9-0.9,0.9h-2.8c-0.4,0-0.8-0.3-0.8-0.8v-2.4v-0.2h-8v0.2v2.4c0,0.4-0.3,0.8-0.8,0.8l0,0h-2.7c-0.5,0-0.9-0.4-0.9-0.9s0.4-0.9,0.9-0.9h2.1v-1.5v-0.2h-5.3v15.6h21.5v-15.6H951.8L951.8,466.2z M940.2,477.8h-1.6c-0.4,0-0.8-0.4-0.8-0.8s0.3-0.7,0.6-0.7v-2.5c0-0.2,0.1-0.3,0.3-0.3h1.4c0.2,0,0.3,0.1,0.3,0.3v2.5c0.3,0.1,0.6,0.4,0.6,0.7C941,477.5,940.7,477.8,940.2,477.8L940.2,477.8L940.2,477.8z M953.9,477.8h-1.6c-0.4,0-0.8-0.4-0.8-0.8s0.3-0.7,0.6-0.7v-2.5c0-0.2,0.1-0.3,0.3-0.3h1.4c0.2,0,0.3,0.1,0.3,0.3v2.5c0.3,0.1,0.6,0.4,0.6,0.7C954.7,477.5,954.4,477.8,953.9,477.8L953.9,477.8L953.9,477.8z" gorn="0.1.0.0.0.0.0.0.96" type="MSShapeGroup"/>
                                <path id="Shape_5_" fill="#F2F2F2"  d="M936.2,481.6h-0.5v-15.3h1.7L936.2,481.6L936.2,481.6z" gorn="0.1.0.0.0.0.0.0.97" type="MSShapeGroup"/>
                                <path id="Shape_6_" fill="#F2F2F2"  d="M956.8,481.6l-0.6-11.2l-0.7-4.1h1.3V481.6L956.8,481.6z" gorn="0.1.0.0.0.0.0.0.98" type="MSShapeGroup"/>
                                <path id="Shape_7_" fill="#F2F2F2"  d="M956.7,481.2v0.4h-21v-0.4" gorn="0.1.0.0.0.0.0.0.99" type="MSShapeGroup"/>
                                <rect id="Rectangle-path_61_" x="959.6" y="435.4" fill="#917639"  gorn="0.1.0.0.0.0.0.0.100" width="1.3" height="2.6"/>
                                <rect id="Rectangle-path_62_" x="959.6" y="435" fill="#CCCCCC"  gorn="0.1.0.0.0.0.0.0.101" width="1.3" height="1.3"/>
                                <rect id="Rectangle-path_63_" x="959.6" y="437.6" fill="#CCCCCC"  gorn="0.1.0.0.0.0.0.0.102" width="1.3" height="1.2"/>
                                <rect id="Rectangle-path_64_" x="959.6" y="442.1" fill="#917639"  gorn="0.1.0.0.0.0.0.0.103" width="1.3" height="2.6"/>
                                <rect id="Rectangle-path_65_" x="959.6" y="441.7" fill="#CCCCCC"  gorn="0.1.0.0.0.0.0.0.104" width="1.3" height="1.3"/>
                                <rect id="Rectangle-path_66_" x="959.6" y="444.3" fill="#CCCCCC"  gorn="0.1.0.0.0.0.0.0.105" width="1.3" height="1.2"/>
                                <rect id="Rectangle-path_67_" x="957.7" y="405" fill="#917639"  gorn="0.1.0.0.0.0.0.0.106" width="1.3" height="2.6"/>
                                <rect id="Rectangle-path_68_" x="957.7" y="404.6" fill="#CCCCCC"  gorn="0.1.0.0.0.0.0.0.107" width="1.3" height="1.3"/>
                                <rect id="Rectangle-path_69_" x="957.7" y="407.2" fill="#CCCCCC"  gorn="0.1.0.0.0.0.0.0.108" width="1.3" height="1.2"/>
                                <rect id="Rectangle-path_70_" x="957.7" y="398.9" fill="#917639"  gorn="0.1.0.0.0.0.0.0.109" width="1.3" height="2.6"/>
                                <rect id="Rectangle-path_71_" x="957.7" y="398.5" fill="#CCCCCC"  gorn="0.1.0.0.0.0.0.0.110" width="1.3" height="1.3"/>
                                <rect id="Rectangle-path_72_" x="957.7" y="401.1" fill="#CCCCCC"  gorn="0.1.0.0.0.0.0.0.111" width="1.3" height="1.2"/>
                                <rect id="Rectangle-path_73_" x="957.7" y="392.2" fill="#917639"  gorn="0.1.0.0.0.0.0.0.112" width="1.3" height="2.6"/>
                                <rect id="Rectangle-path_74_" x="957.7" y="391.8" fill="#CCCCCC"  gorn="0.1.0.0.0.0.0.0.113" width="1.3" height="1.3"/>
                                <rect id="Rectangle-path_75_" x="957.7" y="394.3" fill="#CCCCCC"  gorn="0.1.0.0.0.0.0.0.114" width="1.3" height="1.2"/>
                                <rect id="Rectangle-path_76_" x="957.7" y="386.8" fill="#917639"  gorn="0.1.0.0.0.0.0.0.115" width="1.3" height="2.6"/>
                                <rect id="Rectangle-path_77_" x="957.7" y="386.4" fill="#CCCCCC"  gorn="0.1.0.0.0.0.0.0.116" width="1.3" height="1.3"/>
                                <rect id="Rectangle-path_78_" x="957.7" y="389" fill="#CCCCCC"  gorn="0.1.0.0.0.0.0.0.117" width="1.3" height="1.2"/>
                                <rect id="Rectangle-path_79_" x="957.7" y="380.8" fill="#917639"  gorn="0.1.0.0.0.0.0.0.118" width="1.3" height="2.6"/>
                                <rect id="Rectangle-path_80_" x="957.7" y="380.4" fill="#CCCCCC"  gorn="0.1.0.0.0.0.0.0.119" width="1.3" height="1.3"/>
                                <rect id="Rectangle-path_81_" x="957.7" y="383" fill="#CCCCCC"  gorn="0.1.0.0.0.0.0.0.120" width="1.3" height="1.2"/>
                                <g  transform="matrix(0.7316 0.6817 -0.6817 0.7316 532.0406 -527.3417)">
                                    <g >
                                        <g >
                                            <g >
                                                <g >
                                                    <rect id="Rectangle-path_82_" x="935.1" y="410.7" fill="#917639"  gorn="0.1.0.0.0.0.0.0.121.0.0.0.0.0" width="1.3" height="2.6"/>
                                                </g>
                                            </g>
                                        </g>
                                    </g>
                                </g>
                                <g  transform="matrix(0.7316 0.6817 -0.6817 0.7316 531.6653 -528.0355)">
                                    <g >
                                        <g >
                                            <g >
                                                <g >
                                                    <rect id="Rectangle-path_83_" x="935.8" y="410.6" fill="#CCCCCC"  gorn="0.1.0.0.0.0.0.0.122.0.0.0.0.0" width="1.3" height="1.3"/>
                                                </g>
                                            </g>
                                        </g>
                                    </g>
                                </g>
                                <g  transform="matrix(0.7316 0.6817 -0.6817 0.7316 532.5259 -526.4213)">
                                    <g >
                                        <g >
                                            <g >
                                                <g >
                                                    <rect id="Rectangle-path_84_" x="934.2" y="412.5" fill="#CCCCCC"  gorn="0.1.0.0.0.0.0.0.123.0.0.0.0.0" width="1.3" height="1.2"/>
                                                </g>
                                            </g>
                                        </g>
                                    </g>
                                </g>
                                <rect id="Rectangle-path_85_" x="932.6" y="398.2" fill="#917639"  gorn="0.1.0.0.0.0.0.0.124" width="2.6" height="1.3"/>
                                <rect id="Rectangle-path_86_" x="932.2" y="398.2" fill="#CCCCCC"  gorn="0.1.0.0.0.0.0.0.125" width="1.3" height="1.3"/>
                                <rect id="Rectangle-path_87_" x="934.8" y="398.2" fill="#CCCCCC"  gorn="0.1.0.0.0.0.0.0.126" width="1.2" height="1.3"/>
                                <rect id="Rectangle-path_88_" x="932.6" y="395.2" fill="#917639"  gorn="0.1.0.0.0.0.0.0.127" width="2.6" height="1.3"/>
                                <rect id="Rectangle-path_89_" x="932.2" y="395.2" fill="#CCCCCC"  gorn="0.1.0.0.0.0.0.0.128" width="1.3" height="1.3"/>
                                <rect id="Rectangle-path_90_" x="934.8" y="395.2" fill="#CCCCCC"  gorn="0.1.0.0.0.0.0.0.129" width="1.2" height="1.3"/>
                                <rect id="Rectangle-path_91_" x="932.6" y="392.4" fill="#917639"  gorn="0.1.0.0.0.0.0.0.130" width="2.6" height="1.3"/>
                                <rect id="Rectangle-path_92_" x="932.2" y="392.4" fill="#CCCCCC"  gorn="0.1.0.0.0.0.0.0.131" width="1.3" height="1.3"/>
                                <rect id="Rectangle-path_93_" x="934.8" y="392.4" fill="#CCCCCC"  gorn="0.1.0.0.0.0.0.0.132" width="1.2" height="1.3"/>
                                <rect id="Rectangle-path_94_" x="947.9" y="385" fill="#917639"  gorn="0.1.0.0.0.0.0.0.133" width="1.3" height="2.6"/>
                                <rect id="Rectangle-path_95_" x="947.9" y="386.7" fill="#CCCCCC"  gorn="0.1.0.0.0.0.0.0.134" width="1.3" height="1.3"/>
                                <rect id="Rectangle-path_96_" x="947.9" y="384.2" fill="#CCCCCC"  gorn="0.1.0.0.0.0.0.0.135" width="1.3" height="1.2"/>
                                <rect id="Rectangle-path_97_" x="941.4" y="385" fill="#917639"  gorn="0.1.0.0.0.0.0.0.136" width="1.3" height="2.6"/>
                                <rect id="Rectangle-path_98_" x="941.4" y="386.7" fill="#CCCCCC"  gorn="0.1.0.0.0.0.0.0.137" width="1.3" height="1.3"/>
                                <rect id="Rectangle-path_99_" x="941.4" y="384.2" fill="#CCCCCC"  gorn="0.1.0.0.0.0.0.0.138" width="1.3" height="1.2"/>
                                <rect id="Rectangle-path_100_" x="946.9" y="431.1" fill="#C9CC36"  gorn="0.1.0.0.0.0.0.0.139" width="2.1" height="4.2"/>
                                <rect id="Rectangle-path_101_" x="946.9" y="430.4" fill="#CCCCCC"  gorn="0.1.0.0.0.0.0.0.140" width="2.1" height="1.6"/>
                                <rect id="Rectangle-path_102_" x="946.9" y="434.9" fill="#CCCCCC"  gorn="0.1.0.0.0.0.0.0.141" width="2.1" height="1.6"/>
                                <rect id="Rectangle-path_103_" x="950.8" y="431.1" fill="#C9CC36"  gorn="0.1.0.0.0.0.0.0.142" width="2.1" height="4.2"/>
                                <rect id="Rectangle-path_104_" x="950.8" y="430.4" fill="#CCCCCC"  gorn="0.1.0.0.0.0.0.0.143" width="2.1" height="1.6"/>
                                <rect id="Rectangle-path_105_" x="950.8" y="434.9" fill="#CCCCCC"  gorn="0.1.0.0.0.0.0.0.144" width="2.1" height="1.6"/>
                                <rect id="Rectangle-path_106_" x="954.8" y="431.1" fill="#C9CC36"  gorn="0.1.0.0.0.0.0.0.145" width="2.1" height="4.2"/>
                                <rect id="Rectangle-path_107_" x="954.8" y="430.4" fill="#CCCCCC"  gorn="0.1.0.0.0.0.0.0.146" width="2.1" height="1.6"/>
                                <rect id="Rectangle-path_108_" x="954.8" y="434.9" fill="#CCCCCC"  gorn="0.1.0.0.0.0.0.0.147" width="2.1" height="1.6"/>
                                <path id="Shape_8_" fill="#FFFFFF"  d="M941.4,362.1c0-1.3-1.1-2.4-2.4-2.4c-0.7,0-1.3,0.3-1.7,0.8c-0.9-0.5-1.9-0.8-3-0.8c-1,0-2,0.3-2.9,0.7c-0.4-0.4-1-0.7-1.7-0.7c-1.3,0-2.4,1.1-2.4,2.4c0,0.8,0.4,1.5,1,1.9c-0.2,0.6-0.3,1.3-0.3,2c0,3.5,2.8,6.3,6.3,6.3s6.3-2.8,6.3-6.3c0-0.7-0.1-1.3-0.3-1.9C941,363.7,941.4,362.9,941.4,362.1L941.4,362.1L941.4,362.1z M934.3,368.8c-0.2,0-1.4-0.4-1.8-1.7c0,0,1.4-1.1,3.5,0C936.2,367.2,935.1,368.8,934.3,368.8L934.3,368.8L934.3,368.8z" gorn="0.1.0.0.0.0.0.0.148" type="MSShapeGroup"/>
                                <path id="Shape_9_" fill="#FFFFFF"  d="M944.2,361.5v-1.6h0.8h0.8c0.2,0,0.3,0.2,0.4,0.4v0.1v0.1v0.2v0.3c0,0.2-0.2,0.3-0.3,0.4h-0.1h-0.3h-0.2l0.5,0.8c0.3,0.5,0.4,0.8,0.4,0.8v0.2c0,0,0,0.1-0.1,0.1c0-0.1,0,0-0.1-0.1c0,0-0.1,0-0.1-0.1l0,0l-0.5-0.9l-0.5-0.8h-0.1h-0.1v0.8v0.8v0.1c0,0,0,0-0.1,0.1h-0.1h-0.1v-0.1v-0.8C944.2,362.3,944.2,362,944.2,361.5L944.2,361.5L944.2,361.5z M945.7,360.4h-0.6h-0.5v0.3v0.3h0.5h0.6l0.1-0.1v-0.2v-0.2C945.8,360.4,945.7,360.4,945.7,360.4L945.7,360.4L945.7,360.4z" gorn="0.1.0.0.0.0.0.0.149"/>
                                <path id="Shape_10_" fill="#FFFFFF"  d="M947.4,360.8h0.3h0.4c0.1,0,0.2,0.1,0.3,0.1c0.1,0.1,0.2,0.2,0.2,0.2c0.1,0.1,0.1,0.2,0.2,0.3v0.4v0.4c0,0,0,0.1-0.1,0.1c0,0,0,0-0.1,0h-0.8h-0.7v0.1v0.1l0.1,0.1c0.1,0.1,0.1,0.1,0.2,0.1l0,0h0.6h0.6c0.1,0,0.1,0.1,0.1,0.2s0,0.2-0.1,0.2l0,0h-1.2c-0.1,0.1-0.2,0.1-0.3,0c-0.1-0.1-0.2-0.1-0.2-0.2c-0.1-0.1-0.2-0.2-0.2-0.4V362v-0.5c0-0.1,0.1-0.3,0.2-0.4c0,0,0.1-0.1,0.2-0.2C947.2,360.9,947.3,360.9,947.4,360.8L947.4,360.8L947.4,360.8z M948.1,361.3L948.1,361.3h-0.3h-0.3c0,0-0.1,0-0.1,0.1l-0.1,0.1c0,0,0,0,0,0.1l0,0v0.2v0.2h0.6h0.6v-0.3v-0.2c0,0,0,0-0.1-0.1L948.1,361.3L948.1,361.3z" gorn="0.1.0.0.0.0.0.0.150"/>
                                <path id="Shape_11_" fill="#FFFFFF"  d="M951.1,359.9L951.1,359.9h0.2l0.1,0.1v1.5v1.5l-0.1,0.1h-0.1h-0.1c0,0-0.1-0.1-0.1-0.2l0,0l-0.1,0.1c-0.1,0-0.1,0.1-0.1,0.1c-0.2,0.1-0.3,0.1-0.4,0.1h-0.5c-0.1,0-0.2-0.1-0.3-0.1c-0.1-0.1-0.2-0.1-0.2-0.2c-0.1-0.1-0.2-0.2-0.2-0.4v-1c0-0.1,0.1-0.3,0.2-0.4c0.1-0.1,0.1-0.1,0.2-0.2c0.1-0.1,0.2-0.1,0.3-0.1h0.3h0.2c0.1,0,0.2,0.1,0.3,0.1c0,0,0,0,0.1,0.1l0.1,0.1v-0.5v-0.5C950.9,360.1,950.9,360,951.1,359.9C951,360,951,359.9,951.1,359.9L951.1,359.9L951.1,359.9z M950.4,361.3H950c0,0-0.1,0-0.2,0.1l-0.1,0.1v0.2v0.3v0.5l0.1,0.1c0.1,0.1,0.1,0.1,0.2,0.1l0,0h0.2h0.3c0,0,0.1-0.1,0.2-0.1l0.2-0.2c0.1,0,0.1-0.1,0.1-0.1l0,0V362v-0.3v-0.1L950.4,361.3L950.4,361.3z" gorn="0.1.0.0.0.0.0.0.151"/>
                                <path id="Shape_12_" fill="#FFFFFF"  d="M951.7,361.6v-1.7h0.7h0.7c0.2,0,0.4,0.1,0.5,0.2l0.1,0.1c0.1,0.1,0.1,0.2,0.1,0.4v0.3c0,0.2-0.1,0.4-0.2,0.5l0,0l0.1,0.1c0.1,0.1,0.1,0.2,0.1,0.4v0.2v0.2c0,0.2-0.1,0.3-0.2,0.4c0,0.1-0.1,0.1-0.1,0.1c-0.1,0.4-0.2,0.4-0.4,0.4h-0.8h-0.6V361.6L951.7,361.6z M953.1,360.4L953.1,360.4h-0.5h-0.4v0.5v0.5h0.4h0.4c0.2,0,0.3-0.1,0.3-0.3l0,0v-0.2v-0.1C953.3,360.7,953.2,360.6,953.1,360.4C953.2,360.4,953.1,360.4,953.1,360.4L953.1,360.4L953.1,360.4z M953.1,361.8L953.1,361.8h-0.5h-0.4v0.5v0.5h0.4h0.4c0.1,0,0.2-0.1,0.3-0.2v-0.1v-0.2v-0.2C953.3,362,953.2,361.9,953.1,361.8L953.1,361.8L953.1,361.8z" gorn="0.1.0.0.0.0.0.0.152"/>
                                <path id="Shape_13_" fill="#FFFFFF"  d="M955,360.8h0.3h0.4c0.1,0,0.2,0.1,0.3,0.1c0.1,0.2,0.2,0.2,0.2,0.3c0.1,0.1,0.1,0.2,0.2,0.3v0.4v0.4c0,0,0,0.1-0.1,0.1c0,0,0,0-0.1,0h-0.8h-0.8v0.1v0.1l0.1,0.1c0.1,0.1,0.1,0.1,0.2,0.1l0,0h0.6h0.6c0.1,0,0.1,0.1,0.1,0.2s0,0.2-0.1,0.2l0,0h-1.2c-0.1,0-0.2-0.1-0.3-0.1c-0.1-0.1-0.2-0.1-0.2-0.2c-0.1-0.1-0.2-0.2-0.2-0.4V362v-0.5c0-0.1,0.1-0.3,0.2-0.4l0.2-0.2C954.7,360.9,954.9,360.9,955,360.8L955,360.8L955,360.8z M955.6,361.3L955.6,361.3h-0.3H955c0,0-0.1,0-0.1,0.1l-0.1,0.1c0,0,0,0,0,0.1l0,0v0.2v0.2h0.6h0.6v-0.3v-0.2c0,0,0,0-0.1-0.1C955.7,361.3,955.7,361.3,955.6,361.3L955.6,361.3L955.6,361.3z" gorn="0.1.0.0.0.0.0.0.153"/>
                                <path id="Shape_14_" fill="#FFFFFF"  d="M957.4,360.8h0.4h0.5c0.2,0,0.3,0.2,0.4,0.3c0,0.1,0,0.1,0.1,0.2v0.6v0.8v0.3c0,0.1,0,0.1-0.1,0.1c-0.1,0.1-0.2,0.1-0.2,0c-0.1,0-0.1-0.1-0.1-0.1l0,0l-0.2,0.1c0,0.1-0.1,0.1-0.1,0.1h-0.4h-0.5c-0.1,0-0.2-0.1-0.3-0.2s-0.2-0.2-0.2-0.4v-0.2v-0.2c0-0.1,0.1-0.3,0.2-0.4c0.1-0.1,0.2-0.2,0.4-0.2l0,0h0.5h0.5h0.1v-0.2v-0.2c0-0.1-0.1-0.1-0.1-0.2l0,0h-0.4h-0.5C957.3,361,957.3,360.9,957.4,360.8C957.3,360.9,957.3,360.9,957.4,360.8c-0.1,0-0.1,0-0.1-0.1v-0.1C957.3,360.9,957.3,360.8,957.4,360.8L957.4,360.8L957.4,360.8z M958.3,362.2L958.3,362.2h-0.5h-0.5c-0.1,0-0.1,0.1-0.1,0.1l0,0v0.2v0.2c0,0.1,0.1,0.1,0.1,0.1h0.3h0.3l0.2-0.1l0.2-0.1v-0.1v-0.1C958.4,362.3,958.4,362.2,958.3,362.2L958.3,362.2L958.3,362.2z" gorn="0.1.0.0.0.0.0.0.154"/>
                                <path id="Shape_15_" fill="#FFFFFF"  d="M959.5,360.8L959.5,360.8h0.1c0,0,0.1,0,0.1,0.1l0,0v0.2v0.1l0.2-0.2c0.2-0.1,0.2-0.2,0.3-0.2h0.1h0.3h0.3c0.2,0,0.3,0.2,0.4,0.3c0,0.1,0,0.1,0.1,0.2v0.2c0,0.1-0.1,0.1-0.2,0.2h-0.1c-0.1,0-0.2,0-0.2-0.1l0,0v-0.1v-0.1c0,0,0,0,0-0.1c0,0,0,0-0.1-0.1h-0.2h-0.2l-0.3,0.4l-0.4,0.3v0.6v0.7l-0.1,0.1h-0.1h-0.1l-0.1-0.1V361C959.3,361,959.3,360.9,959.5,360.8C959.5,360.9,959.5,360.8,959.5,360.8L959.5,360.8L959.5,360.8z" gorn="0.1.0.0.0.0.0.0.155"/>
                                <path id="Shape_16_" fill="#FFFFFF"  d="M962,359.9L962,359.9h0.2l0.1,0.1v1.4v1.4h0.7h0.8c0.1,0,0.1,0.1,0.2,0.2l0,0c0,0.1,0,0.2-0.1,0.2l0,0h-1h-1v-1.5v-1.6C961.9,360.1,961.9,360.1,962,359.9L962,359.9L962,359.9L962,359.9z" gorn="0.1.0.0.0.0.0.0.156"/>
                                <path id="Shape_17_" fill="#FFFFFF"  d="M965,360.8h0.4h0.5c0.2,0,0.3,0.2,0.4,0.3c0,0.1,0,0.1,0.1,0.2v0.6v0.8v0.3c0,0.1,0,0.1-0.1,0.1c-0.1,0.1-0.2,0.1-0.2,0c0,0.1,0,0,0,0l0,0l-0.2,0.1h-0.2h-0.4h-0.5c-0.1,0-0.2-0.1-0.3-0.2s-0.2-0.2-0.2-0.4v-0.2v-0.2c0-0.1,0.1-0.3,0.2-0.4c0.1-0.1,0.2-0.2,0.4-0.2l0,0h0.5h0.5h0.1v-0.2v-0.2c0-0.1-0.1-0.1-0.1-0.2l0,0h-0.4H965C964.9,361,964.9,360.9,965,360.8C964.9,360.9,964.9,360.9,965,360.8c-0.1,0-0.1,0-0.1-0.1v-0.1C964.9,360.9,964.9,360.8,965,360.8L965,360.8L965,360.8z M965.9,362.2L965.9,362.2h-0.5h-0.5c-0.1,0-0.1,0.1-0.1,0.1l0,0v0.2v0.2c0,0.1,0.1,0.1,0.1,0.1h0.3h0.3l0.2-0.1l0.2-0.1v-0.1v-0.1C966,362.3,966,362.2,965.9,362.2L965.9,362.2L965.9,362.2z" gorn="0.1.0.0.0.0.0.0.157"/>
                                <path id="Shape_18_" fill="#FFFFFF"  d="M967.1,359.9L967.1,359.9h0.1l0.1,0.1v0.2v0.4v0.5l0.1-0.1c0.1-0.1,0.1-0.1,0.2-0.1c0.1,0,0.1-0.1,0.2-0.1h0.3h0.3c0.1,0,0.2,0.1,0.3,0.1c0.1,0.1,0.2,0.1,0.2,0.2c0.1,0.1,0.1,0.2,0.2,0.3v0.4v0.2v0.5c0,0.1-0.1,0.3-0.2,0.4c0,0-0.1,0.1-0.2,0.2c-0.2,0.1-0.3,0.1-0.4,0.1h-0.5c-0.1,0-0.1,0-0.2-0.1c-0.1,0-0.1-0.1-0.2-0.2h-0.1v0.1v0.1l-0.1,0.1h-0.1H967l-0.1-0.1v-3C966.9,360.1,966.9,360,967.1,359.9C967,360,967,359.9,967.1,359.9L967.1,359.9L967.1,359.9z M968.3,361.3h-0.2h-0.2h-0.1c0,0-0.1,0.1-0.2,0.2c-0.1,0.1-0.2,0.2-0.2,0.2s0,0,0,0.1l0,0v0.3v0.3v0.1c0,0,0.1,0.1,0.2,0.2c0.1,0.1,0.2,0.2,0.2,0.2h0.1h0.2h0.2c0,0,0.1,0,0.2-0.1c0.1-0.1,0.1-0.1,0.1-0.2l0,0V362v-0.5v-0.1c0,0,0,0-0.1-0.1C968.4,361.2,968.3,361.3,968.3,361.3L968.3,361.3L968.3,361.3z" gorn="0.1.0.0.0.0.0.0.158"/>
                                <path id="Shape_19_" fill="#FFFFFF"  d="M944.1,366.5V365h0.6h0.6c0.2,0,0.3,0.1,0.4,0.2l0.1,0.1c0.1,0.1,0.1,0.2,0.1,0.3v0.3c0,0.2-0.1,0.3-0.2,0.5l0,0l0.1,0.1c0.1,0.1,0.1,0.2,0.1,0.3v0.2v0.2c0,0.1-0.1,0.3-0.2,0.4l-0.1,0.1c-0.1,0.1-0.2,0.1-0.3,0.2h-0.7h-0.5V366.5L944.1,366.5z M945.3,365.4L945.3,365.4h-0.4h-0.4v0.5v0.5h0.4h0.4c0.1,0,0.2-0.1,0.3-0.2l0,0V366v-0.1C945.6,365.5,945.5,365.5,945.3,365.4L945.3,365.4L945.3,365.4z M945.3,366.7L945.3,366.7h-0.4h-0.4v0.5v0.5h0.4h0.4c0.1,0,0.2-0.1,0.3-0.2v-0.1v-0.1v-0.1C945.6,366.8,945.5,366.7,945.3,366.7L945.3,366.7L945.3,366.7z" gorn="0.1.0.0.0.0.0.0.159"/>
                                <path id="Shape_20_" fill="#FFFFFF"  d="M946.7,365h0.3h0.4c0.1,0,0.1,0.1,0.1,0.1v1.2v1.2h0.2h0.2c0.1,0,0.1,0,0.1,0.1v0.1v0.1c0,0.1-0.1,0.1-0.1,0.1l0,0h-0.6h-0.6c-0.1,0-0.1-0.1-0.1-0.2s0-0.1,0.1-0.2l0,0h0.2h0.2v-1v-1.1h-0.2h-0.2c-0.1,0-0.1-0.1-0.1-0.2C946.6,365.2,946.6,365.2,946.7,365C946.6,365,946.6,365,946.7,365L946.7,365L946.7,365z" gorn="0.1.0.0.0.0.0.0.160"/>
                                <path id="Shape_21_" fill="#FFFFFF"  d="M949.3,365.8h0.3h0.3c0.1,0,0.2,0.1,0.2,0.1c0.1,0.1,0.2,0.1,0.2,0.2c0.1,0.1,0.2,0.1,0.2,0.3v0.3v0.3c0,0,0,0-0.1,0.1c0,0,0,0-0.1,0h-0.7h-0.7v0.1v0.1l0.1,0.1l0.1,0.1h0.5h0.6c0.1,0,0.1,0.1,0.1,0.2s0,0.1-0.1,0.2l0,0h-1.1c-0.1,0-0.2-0.1-0.3-0.1c-0.1-0.1-0.2-0.1-0.2-0.2c-0.1-0.1-0.1-0.2-0.2-0.3v-0.5v-0.5c0-0.1,0.1-0.2,0.2-0.3l0.2-0.2H949.3L949.3,365.8L949.3,365.8z M949.9,366.2L949.9,366.2h-0.3h-0.3c0,0-0.1,0-0.1,0.1c-0.1,0-0.1,0.1-0.1,0.1s0,0,0,0.1l0,0v0.2v0.2h0.6h0.4v-0.3v-0.2C950.1,366.4,950.1,366.4,949.9,366.2L949.9,366.2L949.9,366.2z" gorn="0.1.0.0.0.0.0.0.161"/>
                                <path id="Shape_22_" fill="#FFFFFF"  d="M951,365.8L951,365.8L951,365.8l0.2,0.1v0.1v0.1l0.2-0.1c0.1-0.1,0.2-0.1,0.2-0.1c0.1,0,0.1,0,0.2-0.1h0.4c0.1,0,0.2,0.1,0.3,0.2c0.1,0.1,0.1,0.2,0.2,0.3v1.4v0.1c0,0.1-0.1,0.1-0.1,0.1s0,0-0.1,0c-0.1,0-0.1,0-0.2-0.1v-0.3v-0.4v-0.7c0-0.2,0-0.2-0.1-0.2l0,0h-0.1h-0.2c0,0-0.1,0.1-0.3,0.2l-0.3,0.2v0.6v0.7c0,0,0,0.1-0.1,0.1h-0.1c0,0,0,0-0.1,0c0,0,0-0.1-0.1-0.1L951,365.8C950.9,365.9,950.9,365.9,951,365.8L951,365.8L951,365.8z" gorn="0.1.0.0.0.0.0.0.162"/>
                                <path id="Shape_23_" fill="#FFFFFF"  d="M954.8,365L954.8,365h0.2l0.1,0.1v1.3v1.3c0,0,0,0.1-0.1,0.1h-0.1c0,0,0,0-0.1,0c0,0-0.1-0.1-0.1-0.2l0,0l-0.1,0.1c-0.1,0-0.1,0.1-0.1,0.1c-0.1,0.1-0.2,0.1-0.3,0.1h-0.4c-0.1,0-0.2-0.1-0.3-0.1c-0.1-0.1-0.2-0.1-0.2-0.2c-0.1-0.1-0.1-0.2-0.2-0.3v-0.9c0-0.1,0.1-0.2,0.2-0.3c0,0,0.1-0.1,0.2-0.2c0.1-0.1,0.1-0.1,0.2-0.1h0.3h0.2c0.1,0,0.2,0,0.3,0.1c0,0,0,0,0.1,0.1l0.1,0.1v-0.5L954.8,365C954.7,365.1,954.7,365.1,954.8,365C954.7,365,954.8,365,954.8,365L954.8,365L954.8,365z M954.2,366.2h-0.4c0,0-0.1,0-0.2,0.1l-0.1,0.1v0.2v0.3v0.5l0.1,0.1l0.1,0.1h0.2h0.2c0,0,0.1,0,0.2-0.1l0.2-0.1l0.1-0.1v-0.4v-0.3v-0.1L954.2,366.2L954.2,366.2z" gorn="0.1.0.0.0.0.0.0.163"/>
                                <path id="Shape_24_" fill="#FFFFFF"  d="M957.6,366.4V365h0.2h0.3l0.2,0.3l0.2,0.3l0.2-0.3l0.4-0.3h0.2h0.2v1.4v1.4c0,0.1-0.1,0.1-0.1,0.1h-0.1c0,0,0,0-0.1,0c0,0,0-0.1-0.1-0.1v-1.1v-1.2l-0.2,0.3l-0.2,0.3v0.1v0.1c0,0,0,0-0.1,0.1h-0.1h-0.1l-0.1-0.1v-0.1v-0.1l-0.2-0.3l-0.2-0.3v1.1v1.1c0,0.1,0,0.1-0.1,0.1h-0.1c0,0,0,0-0.1,0c0,0,0,0,0-0.1V367C957.6,367.1,957.6,366.8,957.6,366.4L957.6,366.4L957.6,366.4z" gorn="0.1.0.0.0.0.0.0.164"/>
                                <path id="Shape_25_" fill="#FFFFFF"  d="M960.3,365.8h0.3h0.4h0.1c0,0,0,0,0,0.1v0.8v0.8h0.2h0.2c0.1,0,0.1,0,0.1,0.1v0.1v0.1c0,0.1-0.1,0.1-0.1,0.1l0,0h-0.6h-0.6c-0.1,0-0.1-0.1-0.1-0.2s0-0.1,0.1-0.2l0,0h0.2h0.2v-0.6v-0.7h-0.2h-0.2c-0.2-0.1-0.2-0.1-0.2-0.2c0,0,0,0,0-0.1S960.2,365.8,960.3,365.8L960.3,365.8L960.3,365.8z M960.6,364.8L960.6,364.8h0.3c0,0,0.1,0,0.1,0.1v0.2v0.2c0,0,0,0.1-0.1,0.1h-0.2h-0.2c0,0,0,0-0.1,0c0,0,0,0,0-0.1v-0.1v-0.1c0,0,0,0,0-0.1L960.6,364.8L960.6,364.8z" gorn="0.1.0.0.0.0.0.0.165"/>
                                <path id="Shape_26_" fill="#FFFFFF"  d="M963,365.8h0.9c0.1,0,0.1,0.1,0.2,0.1l0,0c0,0.1,0,0.1-0.1,0.2h-0.3h-0.2h-0.4c0,0,0,0-0.1,0c0,0-0.1,0.1-0.2,0.2c-0.1,0.1-0.2,0.1-0.2,0.2c0,0,0,0,0,0.1l0,0v0.3v0.3v0.1c0,0,0.1,0.1,0.2,0.2l0.2,0.2h0.1h0.4h0.5c0.1,0,0.1,0.1,0.1,0.2c0,0.1,0,0.1-0.1,0.2l0,0h-0.9c-0.1,0-0.2,0-0.3-0.1l-0.4-0.3c-0.1-0.1-0.1-0.2-0.2-0.3V367v-0.3c0-0.1,0.1-0.2,0.2-0.3l0.4-0.3C962.8,365.8,962.9,365.8,963,365.8L963,365.8L963,365.8z" gorn="0.1.0.0.0.0.0.0.166"/>
                                <path id="Shape_27_" fill="#FFFFFF"  d="M964.6,365.8L964.6,365.8h0.1c0,0,0,0,0.1,0.1l0,0v0.2v0.1l0.2-0.2l0.2-0.2h0.1h0.2h0.3c0.2,0,0.3,0.1,0.4,0.3c0,0.1,0,0.1,0.1,0.2v0.2c0,0.1-0.1,0.1-0.1,0.1l0,0c-0.1,0-0.1,0-0.2-0.1l0,0c0,0,0,0,0-0.1v-0.1c0,0,0,0,0-0.1c0,0,0,0-0.1,0h-0.2h-0.2l-0.4,0.2l-0.3,0.3v0.5v0.6c0,0,0,0.1-0.1,0.1h-0.1c0,0,0,0-0.1,0c0,0,0-0.1-0.1-0.1v-1.9C964.4,365.9,964.4,365.9,964.6,365.8C964.5,365.8,964.5,365.8,964.6,365.8L964.6,365.8L964.6,365.8z" gorn="0.1.0.0.0.0.0.0.167"/>
                                <path id="Shape_28_" fill="#FFFFFF"  d="M967.3,365.8h0.3h0.3h0.1c0.1,0,0.1,0.1,0.2,0.1c0.1,0.1,0.2,0.1,0.2,0.2c0.1,0.1,0.2,0.2,0.2,0.3v0.5v0.5c0,0.1-0.1,0.2-0.2,0.3l-0.2,0.2c-0.1,0.1-0.1,0.1-0.2,0.1h-0.4h-0.4c-0.1,0-0.2-0.1-0.2-0.1c-0.1-0.1-0.2-0.1-0.2-0.2c-0.1-0.1-0.1-0.2-0.2-0.3v-0.5v-0.5c0-0.1,0.1-0.2,0.2-0.3c0.1-0.1,0.1-0.1,0.2-0.2C967.1,365.8,967.2,365.8,967.3,365.8L967.3,365.8L967.3,365.8z M967.9,366.2h-0.3h-0.3c0,0,0,0-0.1,0l-0.1,0.1v0.1v0.4v0.5l0.1,0.1c0.1,0,0.1,0.1,0.1,0.1h0.2h0.1h0.3c0,0,0.1,0,0.1-0.1l0.1-0.1v-0.4v-0.4v-0.1L967.9,366.2L967.9,366.2z" gorn="0.1.0.0.0.0.0.0.168"/>
                                <path id="Shape_29_" fill="#FFFFFF"  d="M944.3,369.7L944.3,369.7h0.1c0,0,0.1,0,0.1,0.1v0.2v0.2v0.3l0.3,0.7l0.3,0.7c0,0,0.1-0.2,0.3-0.7l0.3-0.7v-0.3v-0.4c0,0,0,0,0-0.1h0.1h0.1h0.1c0,0,0.1,0,0.1,0.1v0.2v0.2v0.4l-0.4,1c-0.3,0.7-0.4,1-0.4,1s0,0,0,0.1c-0.1,0.1-0.1,0.1-0.2,0H945c0,0,0,0,0-0.1c0,0-0.1-0.3-0.4-1l-0.4-1v-0.4v-0.4C944.2,369.8,944.2,369.8,944.3,369.7L944.3,369.7L944.3,369.7L944.3,369.7z" gorn="0.1.0.0.0.0.0.0.169"/>
                                <path id="Shape_30_" fill="#FFFFFF"  d="M946.5,369.7h0.5h0.5v1.3v1.2h0.2h0.2v-0.4v-0.4c0,0,0,0,0.1-0.1h0.1h0.1c0,0,0,0,0.1,0.1c0,0,0,0,0,0.1v0.5v0.6c0,0,0,0.1-0.1,0.1l0,0h-0.8h-0.8c-0.1,0-0.1-0.1-0.1-0.2s0-0.1,0.1-0.2l0,0h0.3h0.2v-1.1v-1.1h-0.3h-0.3c-0.1,0-0.1-0.1-0.1-0.1v-0.1c0,0,0,0,0-0.1C946.4,369.7,946.5,369.7,946.5,369.7L946.5,369.7L946.5,369.7z" gorn="0.1.0.0.0.0.0.0.170"/>
                                <path id="Shape_31_" fill="#FFFFFF"  d="M949.3,371.4h0.2h0.3c0,0,0.1,0,0.1,0.1v0.2c0,0,0,0,0,0.1v0.2c0,0,0,0.1-0.1,0.1h-0.2h-0.1h-0.3c0,0,0,0-0.1,0c0,0,0-0.1-0.1-0.1v-0.4c0,0,0-0.1,0.1-0.1C949.3,371.5,949.3,371.4,949.3,371.4L949.3,371.4L949.3,371.4z" gorn="0.1.0.0.0.0.0.0.171"/>
                                <path id="Shape_32_" fill="#FFFFFF"  d="M951.2,369.7h0.6h0.7c0.1,0,0.2,0.1,0.3,0.2v0.1v1.2v1.1c0,0.1,0,0.1-0.1,0.2c-0.1,0.1-0.2,0.1-0.3,0.1h-0.6h-0.6c-0.1,0-0.2-0.1-0.2-0.1l-0.1-0.1v-0.9v-0.3V370C950.9,369.8,951,369.7,951.2,369.7L951.2,369.7L951.2,369.7z M952.4,371.1V370h-0.6h-0.6v1.1v1.1h0.6h0.6V371.1L952.4,371.1z" gorn="0.1.0.0.0.0.0.0.172"/>
                                <rect id="Rectangle-path_109_" stroke="#FFFFFF" x="930.9" y="374.5" fill="none"  stroke-width="0.5" gorn="0.1.0.0.0.0.0.0.173" width="32.7" height="40.7" type="MSShapeGroup"/>
                                <path id="Shape_33_" fill="#FFFFFF"  d="M944.4,444.4v-1.1h0.5h0.6c0.1,0,0.2,0.1,0.3,0.2v0.1v0.1v0.2c0,0.1-0.1,0.2-0.2,0.3h-0.1h-0.2h-0.1l0.3,0.5c0.2,0.3,0.3,0.5,0.3,0.5v0.1h-0.1h-0.1l-0.3-0.6l-0.3-0.6h-0.1h-0.1v0.6v0.6c0,0,0,0,0,0.1l0,0h-0.1c0,0,0,0-0.1,0c0,0,0,0,0-0.1v-0.5C944.4,445,944.4,444.8,944.4,444.4L944.4,444.4L944.4,444.4z M945.5,443.6h-0.4h-0.4v0.2v0.2h0.4h0.4c0,0,0.1,0,0.1-0.1v-0.1C945.6,443.8,945.6,443.7,945.5,443.6C945.6,443.7,945.5,443.7,945.5,443.6L945.5,443.6L945.5,443.6z" gorn="0.1.0.0.0.0.0.0.174"/>
                                <path id="Shape_34_" fill="#FFFFFF"  d="M946.7,444.5v-1.1h0.7h0.7c0.1,0,0.1,0,0.1,0.1l0,0c0,0.1,0,0.1-0.1,0.1l0,0h-0.5h-0.5v0.3v0.3h0.2h0.3c0,0,0.1,0,0.1,0.1c0,0,0,0,0,0.1c0,0,0,0,0,0.1c0,0,0,0.1-0.1,0.1h-0.1h-0.1h-0.2v0.3v0.3h0.5h0.5c0.1,0,0.1,0,0.1,0.1l0,0c0,0.1,0,0.1-0.1,0.1l0,0h-0.7h-0.7L946.7,444.5L946.7,444.5L946.7,444.5z" gorn="0.1.0.0.0.0.0.0.175"/>
                                <path id="Shape_35_" fill="#FFFFFF"  d="M949.3,443.3h0.4h0.4c0.1,0,0.2,0.1,0.2,0.1c0.1,0.1,0.1,0.1,0.1,0.2v0.1h-0.1c0,0,0,0-0.1,0v-0.1c0,0,0,0-0.1-0.1l0,0h-0.4h-0.4c0,0,0.2,0.2,0.5,0.7c0.4,0.5,0.5,0.7,0.6,0.7c0,0,0,0.1,0.1,0.1c0,0.1,0,0.2-0.1,0.3l-0.1,0.1h-0.4h-0.1h-0.4c-0.1,0-0.2-0.1-0.2-0.1s-0.1-0.1-0.1-0.2V445h0.1h0.1v0.1c0,0,0,0,0.1,0.1l0,0h0.4h0.4c0,0-0.2-0.2-0.5-0.7c-0.4-0.5-0.5-0.7-0.6-0.7c0-0.1-0.1-0.2,0-0.2c0,0,0-0.1,0.1-0.1C949.1,443.4,949.2,443.4,949.3,443.3L949.3,443.3L949.3,443.3z" gorn="0.1.0.0.0.0.0.0.176"/>
                                <path id="Shape_36_" fill="#FFFFFF"  d="M951.3,444.5v-1.1h0.7h0.7c0.1,0,0.1,0,0.1,0.1l0,0c0,0.1,0,0.1-0.1,0.1l0,0h-0.5h-0.5v0.3v0.3h0.2h0.3c0,0,0.1,0,0.1,0.1c0,0,0,0,0,0.1c0,0,0,0,0,0.1c0,0,0,0.1-0.1,0.1h-0.1H952h-0.2v0.3v0.3h0.3h0.5c0.1,0,0.1,0,0.1,0.1l0,0c0,0.1,0,0.1-0.1,0.1l0,0h-0.7h-0.7L951.3,444.5L951.3,444.5L951.3,444.5z" gorn="0.1.0.0.0.0.0.0.177"/>
                                <path id="Shape_37_" fill="#FFFFFF"  d="M953.6,443.5v-0.2h0.7h0.8v0.2v0.2c0,0,0,0.1-0.1,0.1c0,0,0,0-0.1,0c0,0,0,0-0.1,0c0,0-0.1,0-0.1-0.1v-0.1v-0.1h-0.1h-0.1v0.9v0.9c0,0,0,0.1-0.1,0.1h-0.1c0,0,0,0-0.1,0c0,0,0,0,0-0.1v-0.5v-0.5v-0.9h-0.1H954v0.1v0.1c0,0,0,0.1-0.1,0.1c0,0,0,0-0.1,0c0,0,0,0-0.1,0C953.7,443.7,953.6,443.7,953.6,443.5C953.6,443.8,953.6,443.7,953.6,443.5L953.6,443.5L953.6,443.5z" gorn="0.1.0.0.0.0.0.0.178"/>
                                <path id="Shape_38_" fill="#FFFFFF"  d="M959.4,463h0.3h0.3c0.1,0,0.1,0,0.1,0.1l0,0c0,0.1,0,0.1-0.1,0.1h-0.2h-0.1h-0.3c0,0-0.1,0-0.1,0.1c0,0,0,0.1-0.1,0.2c-0.1,0.3-0.2,0.4-0.2,0.5c0,0,0,0,0,0.1v0.1v0.1c0,0,0.1,0.2,0.2,0.5c0.1,0.1,0.1,0.2,0.1,0.2s0,0,0.1,0.1h0.3h0.3c0.1,0,0.1,0.1,0.1,0.1c0,0.1,0,0.1-0.1,0.1l0,0h-0.6c-0.1,0-0.3-0.1-0.3-0.2l-0.3-0.7v-0.2v-0.1v-0.2l0.3-0.7C959.1,463.1,959.3,463.1,959.4,463L959.4,463L959.4,463z" gorn="0.1.0.0.0.0.0.0.179"/>
                                <path id="Shape_39_" fill="#FFFFFF"  d="M961.1,463h0.4h0.4v1v1h0.1h0.1v-0.3v-0.3c0,0,0,0,0.1-0.1h0.1h0.1c0,0,0,0,0,0.1v0.4v0.4c0,0,0,0.1-0.1,0.1l0,0h-0.6h-0.6c-0.1,0-0.1-0.1-0.1-0.1c0-0.1,0-0.1,0.1-0.1l0,0h0.2h0.2v-0.9v-0.8h-0.2h-0.2c0,0-0.1,0-0.1-0.1v-0.1C961,463.1,961.1,463.1,961.1,463L961.1,463L961.1,463z" gorn="0.1.0.0.0.0.0.0.180"/>
                                <path id="Shape_40_" fill="#FFFFFF"  d="M932,466.2L932,466.2L932,466.2c0.1,0,0.1,0,0.1,0.1v0.9v0.9v0.1c0,0.1-0.1,0.2-0.3,0.3h-0.1h-0.3c-0.1,0-0.3-0.1-0.3-0.2s-0.1-0.1-0.1-0.2v-0.5c0,0,0,0,0.1-0.1h0.1h0.1c0,0,0,0,0.1,0.1v0.2v0.3l0.1,0.1h0.2h0.2c0,0,0.1,0,0.1-0.1v-0.9v-0.9C931.9,466.3,931.9,466.3,932,466.2C932,466.3,932,466.3,932,466.2L932,466.2L932,466.2z" gorn="0.1.0.0.0.0.0.0.181"/>
                                <path id="Shape_41_" fill="#FFFFFF"  d="M933.3,466.2h0.5h0.6c0.1,0,0.2,0.1,0.2,0.2c0,0,0,0,0,0.1v0.6c0,0.1,0,0.2-0.1,0.2l0,0l0.1,0.1v0.1v0.3v0.3c0,0.1,0,0.1-0.1,0.1c-0.1,0.1-0.1,0.1-0.2,0.1h-0.5h-0.5c-0.1,0-0.1-0.1-0.1-0.1c0-0.1,0-0.1,0.1-0.1l0,0h0.5h0.5v-0.3v-0.3c0,0,0-0.1-0.1-0.1H934h-0.2h-0.4c0,0-0.1,0-0.1-0.1l0,0c0,0,0-0.1,0.1-0.1h0.1h0.2h0.3c0.1,0,0.1-0.1,0.1-0.1v-0.3v-0.3h-0.5h-0.5c0,0-0.1,0-0.1-0.1v-0.1C933.2,466.3,933.3,466.3,933.3,466.2L933.3,466.2L933.3,466.2z" gorn="0.1.0.0.0.0.0.0.182"/>
                                <path id="Shape_42_" fill="#FFFFFF"  d="M932,427.4L932,427.4c0.1,0,0.1,0,0.2,0.1v0.1v0.1l0.2,0.3l0.2,0.3c0,0,0.1-0.1,0.2-0.3l0.2-0.3v-0.1v-0.1h0.1h0.1c0,0,0.1,0,0.1,0.1v0.1c0,0,0,0,0,0.1v0.2l-0.1,0.1l-0.3,0.4l-0.2,0.3v0.5v0.5c0,0,0,0.1-0.1,0.1h-0.1c0,0,0,0-0.1,0c0,0,0,0,0-0.1v-0.4v-0.1v-0.5l-0.2-0.6l-0.3-0.4v-0.1v-0.2C931.9,427.4,931.9,427.4,932,427.4L932,427.4L932,427.4z" gorn="0.1.0.0.0.0.0.0.183"/>
                                <path id="Shape_43_" fill="#FFFFFF"  d="M934.3,427.4h0.4h0.4v1v1h0.1h0.1v-0.3v-0.3c0,0,0,0,0.1-0.1h0.1h0.1c0,0,0,0,0,0.1v0.4v0.4c0,0,0,0.1-0.1,0.1l0,0h-0.6h-0.6c-0.1,0-0.1-0.1-0.1-0.1c0-0.1,0-0.1,0.1-0.1l0,0h0.2h0.2v-0.8v-0.8h-0.2h-0.2c0,0-0.1,0-0.1-0.1v-0.1C934.2,427.4,934.3,427.4,934.3,427.4L934.3,427.4L934.3,427.4z" gorn="0.1.0.0.0.0.0.0.184"/>
                                <path id="Shape_44_" fill="#FFFFFF"  d="M960.2,418.4L960.2,418.4L960.2,418.4c0.1,0,0.1,0,0.1,0.1v0.9v0.9c0,0,0,0.1,0.1,0.1h0.1h0.2h0.3c0,0,0.1,0,0.1-0.1v-0.9v-0.9v-0.1h0.1l0.1,0.1v0.9v0.9v0.1c-0.1,0.1-0.2,0.2-0.3,0.2l0,0h-0.3h-0.3c-0.1,0-0.2-0.1-0.3-0.2c0,0,0-0.1-0.1-0.1v-0.6c0,0.1,0-0.1,0-0.3v-0.9C960.1,418.5,960.1,418.5,960.2,418.4C960.2,418.5,960.2,418.4,960.2,418.4L960.2,418.4L960.2,418.4z" gorn="0.1.0.0.0.0.0.0.185"/>
                                <path id="Shape_45_" fill="#FFFFFF"  d="M962.5,418.4h0.5h0.6c0.1,0,0.2,0.1,0.2,0.2c0,0,0,0,0,0.1v0.6c0,0.1,0,0.2-0.1,0.2l0,0l0.1,0.1v0.1v0.3v0.3c0,0.1,0,0.1-0.1,0.1c-0.1,0.1-0.1,0.1-0.2,0.1H963h-0.5c-0.1,0-0.1-0.1-0.1-0.1c0-0.1,0-0.1,0.1-0.1l0,0h0.5h0.5V420v-0.3c0,0,0-0.1-0.1-0.1h-0.2h-0.1h-0.4c0,0-0.1,0-0.1-0.1l0,0c0,0,0-0.1,0.1-0.1h0.1h0.2h0.3c0.1,0,0.1-0.1,0.1-0.1V419v-0.3h-0.3h-0.5c0,0-0.1,0-0.1-0.1v-0.1V418.4L962.5,418.4z" gorn="0.1.0.0.0.0.0.0.186"/>
                                <rect id="Rectangle-path_110_" x="932.5" y="457.2" fill="#F2F2F2"  gorn="0.1.0.0.0.0.0.0.187" width="7.3" height="3.8"/>
                                <rect id="Rectangle-path_111_" x="938.8" y="457.2" fill="#D1C690"  gorn="0.1.0.0.0.0.0.0.188" width="1" height="3.8"/>
                                <rect id="Rectangle-path_112_" x="932.5" y="457.2" fill="#D1C690"  gorn="0.1.0.0.0.0.0.0.189" width="1" height="3.8"/>
                                <rect id="Rectangle-path_113_" x="952.6" y="457.2" fill="#F2F2F2"  gorn="0.1.0.0.0.0.0.0.190" width="7.3" height="3.8"/>
                                <rect id="Rectangle-path_114_" x="958.9" y="457.2" fill="#D1C690"  gorn="0.1.0.0.0.0.0.0.191" width="1" height="3.8"/>
                                <rect id="Rectangle-path_115_" x="952.6" y="457.2" fill="#D1C690"  gorn="0.1.0.0.0.0.0.0.192" width="1" height="3.8"/>
                                <rect id="Rectangle-path_116_" x="939.3" y="394.9" fill="#262626"  gorn="0.1.0.0.0.0.0.0.193" width="13.4" height="13.5" type="MSShapeGroup"/>
                            </g>
                        </g>
                    </g>
                </g>
            </g>
        </g>
    </g>
</svg>
