<?xml version='1.0' encoding='utf-8'?>
<!DOCTYPE svg>
<!-- Generator: Adobe Illustrator 15.1.0, SVG Export Plug-In . SVG Version: 6.00 Build 0)  -->
<svg xmlns="http://www.w3.org/2000/svg"  xml:space="preserve" version="1.1" xmlns:xml="http://www.w3.org/XML/1998/namespace" id="Layer_2" baseProfile="basic" x="0px" gorn="0" y="0px" viewBox="0 0 68.03 119.06" width="0.944861in" height="1.65361in">
    <desc >
        <referenceFile >PG6SD_BREADBOARD_v4.svg</referenceFile>
    </desc>
    <path  d="M4.53,0.002L0,3.311v112.443l4.529,3.309h12.658l3.875-3.811H42.5l3.563,3.811H63.5l4.53-3.309V3.311l-4.529-3.309H4.53z M5.406,116.846c-1.95,0-3.531-1.58-3.531-3.531c0-1.949,1.581-3.531,3.531-3.531s3.531,1.582,3.531,3.531C8.938,115.266,7.356,116.846,5.406,116.846z M5.406,10.19c-1.95,0-3.531-1.581-3.531-3.531s1.581-3.531,3.531-3.531s3.531,1.581,3.531,3.531S7.356,10.19,5.406,10.19z M15.502,12.479c-0.661,0-1.197-0.536-1.197-1.197s0.536-1.197,1.197-1.197S16.7,10.62,16.7,11.281S16.164,12.479,15.502,12.479z M22.703,12.479c-0.662,0-1.198-0.536-1.198-1.198s0.536-1.198,1.198-1.198S23.9,10.62,23.9,11.281S23.364,12.479,22.703,12.479z M29.903,12.479c-0.662,0-1.198-0.536-1.198-1.198s0.536-1.198,1.198-1.198s1.198,0.536,1.198,1.198S30.564,12.479,29.903,12.479z M37.104,12.479c-0.661,0-1.198-0.536-1.198-1.198s0.537-1.198,1.198-1.198c0.66,0,1.197,0.536,1.197,1.198S37.764,12.479,37.104,12.479z M44.303,12.479c-0.662,0-1.198-0.536-1.198-1.198s0.536-1.198,1.198-1.198c0.661,0,1.197,0.536,1.197,1.198S44.964,12.479,44.303,12.479z M51.503,12.479c-0.661,0-1.198-0.536-1.198-1.198s0.537-1.198,1.198-1.198c0.66,0,1.197,0.536,1.197,1.198S52.163,12.479,51.503,12.479z M61.938,116.846c-1.95,0-3.531-1.58-3.531-3.531c0-1.949,1.581-3.531,3.531-3.531s3.531,1.582,3.531,3.531C65.469,115.266,63.888,116.846,61.938,116.846z M65.469,6.659c0,1.95-1.581,3.531-3.531,3.531s-3.531-1.581-3.531-3.531s1.581-3.531,3.531-3.531S65.469,4.708,65.469,6.659z" fill="#172149"/>
    <g  id="silkscreen" gorn="0.2">
        <rect  stroke-width="0.5" x="45.583" y="53.542" stroke-miterlimit="10" stroke="#FFFFFF" width="4.459" fill="none" height="9.25"/>
        <rect  stroke-width="0.5" x="51.792" y="53.542" stroke-miterlimit="10" stroke="#FFFFFF" width="5.833" fill="none" height="10.208"/>
        <rect  stroke-width="0.5" x="58.813" y="19.344" stroke-miterlimit="10" stroke="#FFFFFF" width="4.375" fill="none" height="9.25"/>
        <path  stroke-width="0.5" d="M10.188,18.344h4.656H19.5v9.406h-4.656h-4.656V18.344z M14.844,27.75v-9.406 M10.188,19.125H5.563v9.281h4.625V27.75" stroke-miterlimit="10" stroke="#FFFFFF" fill="none"/>
        <rect  stroke-width="0.5" x="12.854" y="51.438" stroke-miterlimit="10" stroke="#FFFFFF" width="4.333" fill="none" height="9.188"/>
        <rect  stroke-width="0.5" x="7.438" y="51.438" stroke-miterlimit="10" stroke="#FFFFFF" width="4.333" fill="none" height="9.188"/>
        <rect  stroke-width="0.5" x="11.75" y="7.688" stroke-miterlimit="10" stroke="#FFFFFF" width="43.5" fill="none" height="7.188"/>
        <g >
            <line  stroke-width="0.25" stroke-miterlimit="10" y1="114.126" stroke="#FFFFFF" y2="73.667" x1="54.709" fill="none" x2="54.709"/>
            <line  stroke-width="0.25" stroke-miterlimit="10" y1="74.781" stroke="#FFFFFF" y2="96.126" x1="11.771" fill="none" x2="11.771"/>
            <line  stroke-width="0.25" stroke-miterlimit="10" y1="71.657" stroke="#FFFFFF" y2="71.657" x1="41.563" fill="none" x2="50.042"/>
        </g>
        <g >
            <g >
                <path  d="M11.255,115.181c0.621-0.505,1.242-1.01,1.862-1.515c-0.236,0-0.471,0-0.707,0c0.653,0.505,1.307,1.01,1.96,1.515c0.503,0.389,1.217-0.313,0.707-0.707c-0.653-0.505-1.307-1.01-1.96-1.515c-0.233-0.181-0.474-0.189-0.707,0c-0.621,0.505-1.242,1.01-1.862,1.515C10.047,114.881,10.759,115.584,11.255,115.181L11.255,115.181z" fill="#FFFFFF"/>
                <path  d="M12.264,113.313c0.016,1.623,0.033,3.246,0.049,4.869c0.006,0.645,1.006,0.646,1,0c-0.016-1.623-0.033-3.246-0.049-4.869C13.257,112.668,12.257,112.667,12.264,113.313L12.264,113.313z" fill="#FFFFFF"/>
            </g>
        </g>
    </g>
    <g >
        <g >
            <rect  x="44.308" y="31.358" width="8.15" fill="#303030" height="17.395"/>
            <polygon  points="53.074,49.465 53.074,49.492 52.439,48.752 52.439,31.358 53.074,30.619 " fill="#3D3E3D"/>
            <polygon  points="44.324,48.752 43.69,49.494 43.69,48.752 43.69,31.358 43.69,30.619 44.324,31.358 44.324,31.358 "/>
            <polygon  points="43.69,49.494 43.69,49.494 44.324,48.752 52.439,48.752 53.074,49.494 " fill="#1E1F1F"/>
            <polygon  points="44.324,31.358 43.69,30.619 53.074,30.619 52.439,31.358 44.324,31.358 " fill="#1E1F1F"/>
        </g>
        <g >
            <rect  x="53.074" y="32.708" width="4.051" fill="#999999" height="2.188"/>
            <rect  x="54.688" y="32.708" width="1.208" fill="#666766" height="2.188"/>
        </g>
        <g >
            <rect  x="38.688" y="36.063" width="5.003" fill="#999999" height="8.688"/>
            <rect  x="40.094" y="36.063" width="1.219" fill="#666766" height="8.688"/>
        </g>
        <g >
            <rect  x="53.074" y="39.083" width="4.051" fill="#999999" height="2.188"/>
            <rect  x="54.688" y="39.083" width="1.208" fill="#666766" height="2.188"/>
        </g>
        <g >
            <rect  x="53.074" y="45.771" width="4.051" fill="#999999" height="2.188"/>
            <rect  x="54.688" y="45.771" width="1.208" fill="#666766" height="2.188"/>
        </g>
    </g>
    <g >
        <rect  x="59.938" y="22.398" width="2.125" fill="#95825D" height="3.977"/>
        <rect  x="59.938" y="22.398" width="2.125" fill="#999999" height="0.896"/>
        <rect  x="59.938" y="25.479" width="2.126" fill="#999999" height="0.896"/>
    </g>
    <g >
        <rect  x="46.751" y="56.451" width="2.125" fill="#95825D" height="3.977"/>
        <rect  x="46.751" y="56.451" width="2.125" fill="#999999" height="0.896"/>
        <rect  x="46.75" y="59.532" width="2.126" fill="#999999" height="0.896"/>
    </g>
    <g >
        <rect  x="6.595" y="22.023" width="2.125" fill="#95825D" height="3.977"/>
        <rect  x="6.595" y="22.023" width="2.125" fill="#999999" height="0.896"/>
        <rect  x="6.594" y="25.104" width="2.126" fill="#999999" height="0.896"/>
    </g>
    <g >
        <rect  x="11.438" y="21.271" width="2.165" fill="#020202" height="4.281"/>
        <rect  x="11.438" y="24.87" width="2.165" fill="#999999" height="0.682"/>
        <rect  x="11.438" y="21.271" width="2.165" fill="#999999" height="0.685"/>
    </g>
    <g >
        <rect  x="16.021" y="21.271" width="2.165" fill="#020202" height="4.281"/>
        <rect  x="16.021" y="24.87" width="2.165" fill="#999999" height="0.682"/>
        <rect  x="16.021" y="21.271" width="2.165" fill="#999999" height="0.685"/>
    </g>
    <g >
        <rect  x="13.848" y="53.703" width="2.347" fill="#020202" height="4.642"/>
        <rect  x="13.848" y="57.604" width="2.347" fill="#999999" height="0.739"/>
        <rect  x="13.848" y="53.703" width="2.347" fill="#999999" height="0.742"/>
    </g>
    <g >
        <rect  x="8.431" y="53.703" width="2.347" fill="#020202" height="4.642"/>
        <rect  x="8.431" y="57.604" width="2.347" fill="#999999" height="0.739"/>
        <rect  x="8.431" y="53.703" width="2.347" fill="#999999" height="0.742"/>
    </g>
    <g >
        <rect  x="53.075" y="56.326" width="3.092" fill="#AD9977" height="5.284"/>
        <rect  x="53.075" y="56.326" width="3.092" fill="#999999" height="1.484"/>
        <rect  x="53.074" y="60.004" width="3.093" fill="#999999" height="1.605"/>
    </g>
    <g >
        <rect  x="6.594" y="33.938" width="13.219" height="11.75"/>
        <g >
            <g >
                <rect  x="18.354" y="32.788" width="0.428" fill="#666766" height="0.499"/>
                <rect  x="18.354" y="33.287" width="0.428" fill="#999999" height="0.635"/>
            </g>
            <g >
                <rect  x="16.593" y="32.788" width="0.428" fill="#666766" height="0.499"/>
                <rect  x="16.593" y="33.287" width="0.428" fill="#999999" height="0.635"/>
            </g>
            <g >
                <rect  x="14.707" y="32.788" width="0.428" fill="#666766" height="0.499"/>
                <rect  x="14.707" y="33.287" width="0.428" fill="#999999" height="0.635"/>
            </g>
            <g >
                <rect  x="12.879" y="32.788" width="0.428" fill="#666766" height="0.499"/>
                <rect  x="12.879" y="33.287" width="0.428" fill="#999999" height="0.635"/>
            </g>
            <g >
                <rect  x="11.004" y="32.788" width="0.428" fill="#666766" height="0.499"/>
                <rect  x="11.004" y="33.287" width="0.428" fill="#999999" height="0.635"/>
            </g>
            <g >
                <rect  x="9.238" y="32.788" width="0.428" fill="#666766" height="0.499"/>
                <rect  x="9.238" y="33.287" width="0.428" fill="#999999" height="0.635"/>
            </g>
            <g >
                <rect  x="7.379" y="32.788" width="0.428" fill="#666766" height="0.499"/>
                <rect  x="7.379" y="33.287" width="0.428" fill="#999999" height="0.635"/>
            </g>
        </g>
        <g >
            <g >
                <rect  x="7.392" y="46.323" width="0.428" fill="#666766" height="0.499"/>
                <rect  x="7.392" y="45.688" width="0.428" fill="#999999" height="0.635"/>
            </g>
            <g >
                <rect  x="9.152" y="46.323" width="0.428" fill="#666766" height="0.499"/>
                <rect  x="9.152" y="45.688" width="0.428" fill="#999999" height="0.635"/>
            </g>
            <g >
                <rect  x="11.038" y="46.323" width="0.428" fill="#666766" height="0.499"/>
                <rect  x="11.038" y="45.688" width="0.428" fill="#999999" height="0.635"/>
            </g>
            <g >
                <rect  x="12.866" y="46.323" width="0.428" fill="#666766" height="0.499"/>
                <rect  x="12.866" y="45.688" width="0.428" fill="#999999" height="0.635"/>
            </g>
            <g >
                <rect  x="14.741" y="46.323" width="0.428" fill="#666766" height="0.499"/>
                <rect  x="14.741" y="45.688" width="0.428" fill="#999999" height="0.635"/>
            </g>
            <g >
                <rect  x="16.507" y="46.323" width="0.428" fill="#666766" height="0.499"/>
                <rect  x="16.507" y="45.688" width="0.428" fill="#999999" height="0.635"/>
            </g>
            <g >
                <rect  x="18.366" y="46.323" width="0.428" fill="#666766" height="0.499"/>
                <rect  x="18.366" y="45.688" width="0.428" fill="#999999" height="0.635"/>
            </g>
        </g>
    </g>
    <g >
        <g >
            <g >
                <polygon  stroke-width="0.15" stroke-miterlimit="10" stroke="#848484" points="12.438,72.75 50.875,72.75 50.875,75.875 49.813,75.875 49.813,77.172 53.641,77.172 53.641,96.126 46.397,96.126 46.396,100.542 47.792,101.917 47.834,108.584 47.984,108.828 48.25,108.959 48.667,108.959 49.042,108.751 49.102,108.471 49.167,108.167 49.125,104.876 49.5,101.751 47.542,100.126 47.5,98.209 47.792,97.834 50.459,97.834 51.084,98.042 51.417,98.459 51.5,98.751 51.542,99.251 51.334,107.626 51.375,108.042 51.5,108.438 51.75,108.667 53.501,108.708 53.501,114.126 45.292,114.126 43.25,113.084 40.641,112.266 37.917,111.626 35.042,111.334 26.667,111.251 12.438,111.25 " fill="#565656"/>
                <polygon  stroke-width="0.15" stroke-miterlimit="10" stroke="#666766" points="50.875,72.75 50.875,75.875 49.813,75.875 49.813,77.172 53.641,77.172 53.641,96.126 46.397,96.126 46.396,100.542 47.792,101.917 47.834,108.584 47.984,108.828 48.25,108.959 48.667,108.959 49.042,108.751 49.102,108.471 49.167,108.167 49.125,104.876 49.5,101.751 47.542,100.126 47.5,98.209 47.792,97.834 50.459,97.834 51.084,98.042 51.417,98.459 51.5,98.751 51.542,99.251 51.334,107.626 51.375,108.042 51.5,108.438 51.75,108.667 53.501,108.708 53.501,114.126 54.25,114.126 54.25,72.75 " fill="#191919"/>
                <path  stroke-width="0.15" d="M50.875,72.875c0-2.297,3.375-2.373,3.375,0" stroke-miterlimit="10" stroke="#666766" fill="#191919"/>
                <rect  stroke-width="0.15" x="52.588" y="96.126" stroke-miterlimit="10" stroke="#666766" width="0.636" height="12.573"/>
                <path  d="M51.578,72.75v2.734h2.359V72.75H51.578z M53.297,74.828h-0.922v-1.5h0.922V74.828z" fill="#666766"/>
            </g>
            <polygon  stroke-width="0.15" stroke-miterlimit="10" stroke="#666766" points="12.438,74.781 14.781,75.719 14.781,87.969 14.438,88.344 12.438,88.344 " fill="#191919"/>
        </g>
        <g >
            <rect  x="22.708" y="69.042" width="2.458" fill="#999999" height="3.708"/>
            <rect  x="25.875" y="69.042" width="2.458" fill="#999999" height="3.708"/>
            <rect  x="28.958" y="69.042" width="2.458" fill="#999999" height="3.708"/>
            <rect  x="32.167" y="69.042" width="2.458" fill="#999999" height="3.708"/>
            <rect  x="35.25" y="69.042" width="2.458" fill="#999999" height="3.708"/>
            <rect  x="38.375" y="69.042" width="2.458" fill="#999999" height="3.708"/>
            <rect  x="13.333" y="69.042" width="2.458" fill="#999999" height="3.708"/>
            <rect  x="16.417" y="69.042" width="2.458" fill="#999999" height="3.708"/>
            <rect  x="19.458" y="69.042" width="2.458" fill="#999999" height="3.708"/>
        </g>
    </g>
    <g  id="copper1" gorn="0.14">
        <path  d="M15.502,8.888c-1.321,0-2.394,1.072-2.394,2.394c0,1.322,1.072,2.394,2.394,2.394s2.394-1.071,2.394-2.394C17.896,9.96,16.823,8.888,15.502,8.888z M15.502,12.479c-0.661,0-1.197-0.536-1.197-1.196c0-0.662,0.536-1.197,1.197-1.197s1.197,0.535,1.197,1.197C16.699,11.942,16.163,12.479,15.502,12.479z" id="connector13pin" gorn="0.14.0" fill="#9A916C"/>
        <path  d="M22.702,8.888c-1.321,0-2.393,1.072-2.393,2.394c0,1.322,1.071,2.394,2.393,2.394c1.322,0,2.394-1.071,2.394-2.394C25.096,9.96,24.024,8.888,22.702,8.888z M22.703,12.479c-0.661,0-1.197-0.536-1.197-1.196c0-0.662,0.536-1.197,1.197-1.197s1.196,0.535,1.196,1.197C23.899,11.942,23.364,12.479,22.703,12.479z" id="connector12pin" gorn="0.14.1" fill="#9A916C"/>
        <path  d="M29.902,8.888c-1.321,0-2.393,1.072-2.393,2.394c0,1.322,1.071,2.394,2.393,2.394c1.322,0,2.394-1.071,2.394-2.394C32.296,9.96,31.225,8.888,29.902,8.888z M29.904,12.479c-0.661,0-1.197-0.536-1.197-1.196c0-0.662,0.536-1.197,1.197-1.197s1.196,0.535,1.196,1.197C31.101,11.942,30.565,12.479,29.904,12.479z" id="connector11pin" gorn="0.14.2" fill="#9A916C"/>
        <path  d="M37.103,8.888c-1.321,0-2.393,1.072-2.393,2.394c0,1.322,1.072,2.394,2.393,2.394c1.322,0,2.394-1.071,2.394-2.394C39.496,9.96,38.425,8.888,37.103,8.888z M37.103,12.479c-0.661,0-1.196-0.536-1.196-1.196c0-0.662,0.535-1.197,1.196-1.197S38.3,10.62,38.3,11.282C38.3,11.942,37.764,12.479,37.103,12.479z" id="connector10pin" gorn="0.14.3" fill="#9A916C"/>
        <path  d="M44.302,8.888c-1.321,0-2.393,1.072-2.393,2.394c0,1.322,1.071,2.394,2.393,2.394c1.322,0,2.394-1.071,2.394-2.394C46.695,9.96,45.624,8.888,44.302,8.888z M44.302,12.479c-0.661,0-1.196-0.536-1.196-1.196c0-0.662,0.535-1.197,1.196-1.197s1.197,0.535,1.197,1.197C45.499,11.942,44.963,12.479,44.302,12.479z" id="connector9pin" gorn="0.14.4" fill="#9A916C"/>
        <path  d="M51.502,8.888c-1.321,0-2.393,1.072-2.393,2.394c0,1.322,1.071,2.394,2.393,2.394c1.322,0,2.394-1.071,2.394-2.394C53.896,9.96,52.824,8.888,51.502,8.888z M51.502,12.479c-0.661,0-1.196-0.536-1.196-1.196c0-0.662,0.535-1.197,1.196-1.197s1.197,0.535,1.197,1.197C52.699,11.942,52.163,12.479,51.502,12.479z" id="connector8pin" gorn="0.14.5" fill="#9A916C"/>
    </g>
</svg>
