<?xml version='1.0' encoding='UTF-8'?>
<!DOCTYPE svg>
<!-- Creator: CorelDRAW X6 -->
<svg xmlns="http://www.w3.org/2000/svg" shape-rendering="geometricPrecision" fill-rule="evenodd" xml:space="preserve" height="0.801in" image-rendering="optimizeQuality" viewBox="0 0 1484 801" width="1.484in" xmlns:xml="http://www.w3.org/XML/1998/namespace" clip-rule="evenodd" text-rendering="geometricPrecision"  version="1.1">
    <desc >
        <referenceFile >sparkcore_DIP_24_700mil_breadboard.svg</referenceFile>
    </desc>
    <g gorn="0.1" id="SPARKCORE" >
        <metadata id="CorelCorpID_0Corel-Layer" />
        <g gorn="0.1.1" id="PCB" >
            <polygon points="1401,0 1401,794 1399,800 101,800 0,700 0,99 101,0 " fill="whitesmoke" />
            <polygon points="1401,794 1399,800 101,800 0,700 0,693 101,794 " fill="#CCCCCC" />
            <polygon points="101,800 0,700 0,693 101,794 " fill="#B2B2B2" />
        </g>
        <g gorn="0.1.2" id="RGB_x0020_LED" >
            <g >
                <g transform="matrix(-4.5902E-014 1 -1 -1.40049E-013 1042.91 412.665)" >
                    <g >
                        <g >
                            <g >
                                <g >
                                    <rect height="35" fill="#CCCCCC" width="39.3583" />
                                </g>
                            </g>
                        </g>
                    </g>
                </g>
                <g transform="matrix(-4.5902E-014 1 -1 -1.40049E-013 1042.91 448.056)" >
                    <g >
                        <g >
                            <g >
                                <g >
                                    <rect height="35" fill="#E5E5E5" width="3.9685" />
                                </g>
                            </g>
                        </g>
                    </g>
                </g>
            </g>
            <g >
                <g transform="matrix(-4.5902E-014 1 -1 -1.40049E-013 1042.91 346.787)" >
                    <g >
                        <g >
                            <g >
                                <g >
                                    <rect height="35" fill="#CCCCCC" width="39.3583" />
                                </g>
                            </g>
                        </g>
                    </g>
                </g>
                <g transform="matrix(-4.5902E-014 1 -1 -1.40049E-013 1042.91 382.178)" >
                    <g >
                        <g >
                            <g >
                                <g >
                                    <rect height="35" fill="#E5E5E5" width="3.9685" />
                                </g>
                            </g>
                        </g>
                    </g>
                </g>
            </g>
            <g >
                <g transform="matrix(-4.5902E-014 1 -1 -1.40049E-013 1153.72 412.531)" >
                    <g >
                        <g >
                            <g >
                                <g >
                                    <rect height="35" fill="#CCCCCC" width="39.3583" />
                                </g>
                            </g>
                        </g>
                    </g>
                </g>
                <g transform="matrix(-4.5902E-014 1 -1 -1.40049E-013 1153.72 447.922)" >
                    <g >
                        <g >
                            <g >
                                <g >
                                    <rect height="35" fill="#E5E5E5" width="3.9685" />
                                </g>
                            </g>
                        </g>
                    </g>
                </g>
            </g>
            <g >
                <g transform="matrix(-4.5902E-014 1 -1 -1.40049E-013 1153.72 346.15)" >
                    <g >
                        <g >
                            <g >
                                <g >
                                    <rect height="35" fill="#CCCCCC" width="39.3583" />
                                </g>
                            </g>
                        </g>
                    </g>
                </g>
                <g transform="matrix(-4.5902E-014 1 -1 -1.40049E-013 1153.72 381.54)" >
                    <g >
                        <g >
                            <g >
                                <g >
                                    <rect height="35" fill="#E5E5E5" width="3.9685" />
                                </g>
                            </g>
                        </g>
                    </g>
                </g>
            </g>
            <polygon stroke="#999999" points="1144,345 1144,453 1018,453 1018,345 " fill="#E5E5E5" stroke-width="3" />
            <polygon stroke="#999999" points="1144,345 1144,430 1121,453 1018,453 1018,345 " fill="white" stroke-width="3" />
            <path stroke="#666666" fill="#999999" stroke-width="3"  d="M1125 399c0,24 -20,44 -44,44 -24,0 -44,-20 -44,-44 0,-24 20,-44 44,-44 24,0 44,20 44,44z"/>
            <path fill="#CCCCCC"  d="M1103 400c-1,11 -10,20 -21,21l0 -21 21 0z"/>
            <path fill="#1B5BB3"  d="M1103 398c-1,-11 -10,-20 -21,-21l0 21 21 0z"/>
            <path fill="#00A63D"  d="M1059 398c1,-11 10,-20 21,-21l0 21 -21 0z"/>
            <path fill="#CC1414"  d="M1059 400c1,11 10,20 21,21l0 -21 -21 0z"/>
            <path stroke="#999999" fill="none" stroke-width="3"  d="M1103 399c0,12 -10,22 -22,22 -12,0 -22,-10 -22,-22 0,-12 10,-22 22,-22 12,0 22,10 22,22z"/>
        </g>
        <g gorn="0.1.3" id="MISC_x0020_COMPS" >
            <polygon points="218,172 218,235 183,235 183,172 " fill="#CCCCCC" />
            <polygon points="218,458 218,522 183,522 183,458 " fill="#CCCCCC" />
            <polygon points="974,532 974,595 939,595 939,532 " fill="#CCCCCC" />
            <polygon points="974,203 974,266 939,266 939,203 " fill="#CCCCCC" />
            <polygon points="974,367 974,431 939,431 939,367 " fill="#CCCCCC" />
            <polygon points="1266,152 1266,216 1231,216 1231,152 " fill="#CCCCCC" />
            <polygon points="1384,74 1384,216 1298,216 1298,74 " fill="#CCCCCC" />
            <polygon points="1129,486 1192,486 1192,521 1129,521 " fill="#CCCCCC" />
            <polygon points="1129,278 1192,278 1192,313 1129,313 " fill="#CCCCCC" />
        </g>
        <g gorn="0.1.4" id="UFL" >
            <path stroke="#8C8C8C" fill="white" stroke-width="3"  d="M248 545l0 79c0,4 -3,8 -8,8l-78 0c-4,0 -7,-4 -7,-8l0 -79c0,-4 3,-8 7,-8l78 0c5,0 8,4 8,8z"/>
            <path stroke="#8C8C8C" fill="white" stroke-width="3"  d="M228 585c0,15 -12,27 -27,27 -15,0 -27,-12 -27,-27 0,-15 12,-28 27,-28 15,0 27,13 27,28z"/>
            <path fill="#CC9933"  d="M208 585c0,4 -3,7 -7,7 -4,0 -7,-3 -7,-7 0,-4 3,-7 7,-7 4,0 7,3 7,7z"/>
        </g>
        <g gorn="0.1.5" id="ANT" >
            <polygon points="60,276 60,521 22,521 22,276 " fill="#CCCCCC" />
            <polygon points="60,241 60,276 22,276 22,241 " fill="#999999" />
            <polygon points="60,521 60,556 22,556 22,521 " fill="#999999" />
            <polygon points="60,291 60,305 22,305 22,291 " fill="#CC9933" />
        </g>
        <g gorn="0.1.6" id="PINS" >
            <g >
                <path gorn="0.1.6.0.0" id="connector62pin" fill="#B2B2B2"  d="M1086 750c0,19 -15,34 -35,34 -19,0 -34,-15 -34,-34 0,-20 15,-35 34,-35 20,0 35,15 35,35z"/>
                <path fill="#8C8C8C"  d="M1076 725c-9,4 -16,12 -25,25 -10,-13 -18,-24 -24,-25 7,-7 15,-10 24,-10 10,0 18,3 25,10z"/>
                <path fill="white"  d="M1058 750c0,3 -3,6 -7,6 -3,0 -6,-3 -6,-6 0,-4 3,-7 6,-7 4,0 7,3 7,7z"/>
            </g>
            <g >
                <path gorn="0.1.6.1.0" id="connector60pin" fill="#B2B2B2"  d="M886 750c0,19 -15,34 -35,34 -19,0 -34,-15 -34,-34 0,-20 15,-35 34,-35 20,0 35,15 35,35z"/>
                <path fill="#8C8C8C"  d="M876 725c-9,4 -16,12 -25,25 -10,-13 -18,-24 -24,-25 7,-7 15,-10 24,-10 10,0 18,3 25,10z"/>
                <path fill="white"  d="M858 750c0,3 -3,6 -7,6 -3,0 -6,-3 -6,-6 0,-4 3,-7 6,-7 4,0 7,3 7,7z"/>
            </g>
            <g >
                <path gorn="0.1.6.2.0" id="connector59pin" fill="#B2B2B2"  d="M786 750c0,19 -15,34 -35,34 -19,0 -34,-15 -34,-34 0,-20 15,-35 34,-35 20,0 35,15 35,35z"/>
                <path fill="#8C8C8C"  d="M776 725c-9,4 -16,12 -25,25 -10,-13 -18,-24 -24,-25 7,-7 15,-10 24,-10 10,0 18,3 25,10z"/>
                <path fill="white"  d="M758 750c0,3 -3,6 -7,6 -3,0 -6,-3 -6,-6 0,-4 3,-7 6,-7 4,0 7,3 7,7z"/>
            </g>
            <g >
                <path gorn="0.1.6.3.0" id="connector58pin" fill="#B2B2B2"  d="M686 750c0,19 -15,34 -35,34 -19,0 -34,-15 -34,-34 0,-20 15,-35 34,-35 20,0 35,15 35,35z"/>
                <path fill="#8C8C8C"  d="M676 725c-9,4 -16,12 -25,25 -10,-13 -18,-24 -24,-25 7,-7 15,-10 24,-10 10,0 18,3 25,10z"/>
                <path fill="white"  d="M658 750c0,3 -3,6 -7,6 -3,0 -6,-3 -6,-6 0,-4 3,-7 6,-7 4,0 7,3 7,7z"/>
            </g>
            <g >
                <path gorn="0.1.6.4.0" id="connector57pin" fill="#B2B2B2"  d="M586 750c0,19 -15,34 -35,34 -19,0 -34,-15 -34,-34 0,-20 15,-35 34,-35 20,0 35,15 35,35z"/>
                <path fill="#8C8C8C"  d="M576 725c-9,4 -16,12 -25,25 -10,-13 -18,-24 -24,-25 7,-7 15,-10 24,-10 10,0 18,3 25,10z"/>
                <path fill="white"  d="M558 750c0,3 -3,6 -7,6 -3,0 -6,-3 -6,-6 0,-4 3,-7 6,-7 4,0 7,3 7,7z"/>
            </g>
            <g >
                <path gorn="0.1.6.5.0" id="connector56pin" fill="#B2B2B2"  d="M486 750c0,19 -15,34 -35,34 -19,0 -34,-15 -34,-34 0,-20 15,-35 34,-35 20,0 35,15 35,35z"/>
                <path fill="#8C8C8C"  d="M476 725c-9,4 -16,12 -25,25 -10,-13 -18,-24 -24,-25 7,-7 15,-10 24,-10 10,0 18,3 25,10z"/>
                <path fill="white"  d="M458 750c0,3 -3,6 -7,6 -3,0 -6,-3 -6,-6 0,-4 3,-7 6,-7 4,0 7,3 7,7z"/>
            </g>
            <g >
                <path gorn="0.1.6.6.0" id="connector55pin" fill="#B2B2B2"  d="M386 750c0,19 -15,34 -35,34 -19,0 -34,-15 -34,-34 0,-20 15,-35 34,-35 20,0 35,15 35,35z"/>
                <path fill="#8C8C8C"  d="M376 725c-9,4 -16,12 -25,25 -10,-13 -18,-24 -24,-25 7,-7 15,-10 24,-10 10,0 18,3 25,10z"/>
                <path fill="white"  d="M358 750c0,3 -3,6 -7,6 -3,0 -6,-3 -6,-6 0,-4 3,-7 6,-7 4,0 7,3 7,7z"/>
            </g>
            <g >
                <path gorn="0.1.6.7.0" id="connector53pin" fill="#B2B2B2"  d="M186 750c0,19 -15,34 -35,34 -19,0 -34,-15 -34,-34 0,-20 15,-35 34,-35 20,0 35,15 35,35z"/>
                <path fill="#8C8C8C"  d="M176 725c-9,4 -16,12 -25,25 -10,-13 -18,-24 -24,-25 7,-7 15,-10 24,-10 10,0 18,3 25,10z"/>
                <path fill="white"  d="M158 750c0,3 -3,6 -7,6 -3,0 -6,-3 -6,-6 0,-4 3,-7 6,-7 4,0 7,3 7,7z"/>
            </g>
            <g >
                <path gorn="0.1.6.8.0" id="connector54pin" fill="#B2B2B2"  d="M286 750c0,19 -15,34 -35,34 -19,0 -34,-15 -34,-34 0,-20 15,-35 34,-35 20,0 35,15 35,35z"/>
                <path fill="#8C8C8C"  d="M276 725c-9,4 -16,12 -25,25 -10,-13 -18,-24 -24,-25 7,-7 15,-10 24,-10 10,0 18,3 25,10z"/>
                <path fill="white"  d="M258 750c0,3 -3,6 -7,6 -3,0 -6,-3 -6,-6 0,-4 3,-7 6,-7 4,0 7,3 7,7z"/>
            </g>
            <g >
                <path gorn="0.1.6.9.0" id="connector61pin" fill="#B2B2B2"  d="M986 750c0,19 -15,34 -35,34 -19,0 -34,-15 -34,-34 0,-20 15,-35 34,-35 20,0 35,15 35,35z"/>
                <path fill="#8C8C8C"  d="M976 725c-9,4 -16,12 -25,25 -10,-13 -18,-24 -24,-25 7,-7 15,-10 24,-10 10,0 18,3 25,10z"/>
                <path fill="white"  d="M958 750c0,3 -3,6 -7,6 -3,0 -6,-3 -6,-6 0,-4 3,-7 6,-7 4,0 7,3 7,7z"/>
            </g>
            <g >
                <path gorn="0.1.6.10.0" id="connector63pin" fill="#B2B2B2"  d="M1186 750c0,19 -15,34 -35,34 -19,0 -34,-15 -34,-34 0,-20 15,-35 34,-35 20,0 35,15 35,35z"/>
                <path fill="#8C8C8C"  d="M1176 725c-9,4 -16,12 -25,25 -10,-13 -18,-24 -24,-25 7,-7 15,-10 24,-10 10,0 18,3 25,10z"/>
                <path fill="white"  d="M1158 750c0,3 -3,6 -7,6 -3,0 -6,-3 -6,-6 0,-4 3,-7 6,-7 4,0 7,3 7,7z"/>
            </g>
            <g >
                <path gorn="0.1.6.11.0" id="connector64pin" fill="#B2B2B2"  d="M1286 750c0,19 -15,34 -35,34 -19,0 -34,-15 -34,-34 0,-20 15,-35 34,-35 20,0 35,15 35,35z"/>
                <path fill="#8C8C8C"  d="M1276 725c-9,4 -16,12 -25,25 -10,-13 -18,-24 -24,-25 7,-7 15,-10 24,-10 10,0 18,3 25,10z"/>
                <path fill="white"  d="M1258 750c0,3 -3,6 -7,6 -3,0 -6,-3 -6,-6 0,-4 3,-7 6,-7 4,0 7,3 7,7z"/>
            </g>
            <g >
                <path gorn="0.1.6.12.0" id="connector49pin" fill="#B2B2B2"  d="M1086 50c0,19 -15,34 -35,34 -19,0 -34,-15 -34,-34 0,-20 15,-35 34,-35 20,0 35,15 35,35z"/>
                <path fill="#8C8C8C"  d="M1076 25c-9,4 -16,12 -25,25 -10,-13 -18,-24 -24,-25 7,-7 15,-10 24,-10 10,0 18,3 25,10z"/>
                <path fill="white"  d="M1058 50c0,3 -3,6 -7,6 -3,0 -6,-3 -6,-6 0,-4 3,-7 6,-7 4,0 7,3 7,7z"/>
            </g>
            <g >
                <path gorn="0.1.6.13.0" id="connector48pin" fill="#B2B2B2"  d="M886 50c0,19 -15,34 -35,34 -19,0 -34,-15 -34,-34 0,-20 15,-35 34,-35 20,0 35,15 35,35z"/>
                <path fill="#8C8C8C"  d="M876 25c-9,4 -16,12 -25,25 -10,-13 -18,-24 -24,-25 7,-7 15,-10 24,-10 10,0 18,3 25,10z"/>
                <path fill="white"  d="M858 50c0,3 -3,6 -7,6 -3,0 -6,-3 -6,-6 0,-4 3,-7 6,-7 4,0 7,3 7,7z"/>
            </g>
            <g >
                <path gorn="0.1.6.14.0" id="connector47pin" fill="#B2B2B2"  d="M786 50c0,19 -15,34 -35,34 -19,0 -34,-15 -34,-34 0,-20 15,-35 34,-35 20,0 35,15 35,35z"/>
                <path fill="#8C8C8C"  d="M776 25c-9,4 -16,12 -25,25 -10,-13 -18,-24 -24,-25 7,-7 15,-10 24,-10 10,0 18,3 25,10z"/>
                <path fill="white"  d="M758 50c0,3 -3,6 -7,6 -3,0 -6,-3 -6,-6 0,-4 3,-7 6,-7 4,0 7,3 7,7z"/>
            </g>
            <g >
                <path gorn="0.1.6.15.0" id="connector46pin" fill="#B2B2B2"  d="M686 50c0,19 -15,34 -35,34 -19,0 -34,-15 -34,-34 0,-20 15,-35 34,-35 20,0 35,15 35,35z"/>
                <path fill="#8C8C8C"  d="M676 25c-9,4 -16,12 -25,25 -10,-13 -18,-24 -24,-25 7,-7 15,-10 24,-10 10,0 18,3 25,10z"/>
                <path fill="white"  d="M658 50c0,3 -3,6 -7,6 -3,0 -6,-3 -6,-6 0,-4 3,-7 6,-7 4,0 7,3 7,7z"/>
            </g>
            <g >
                <path gorn="0.1.6.16.0" id="connector45pin" fill="#B2B2B2"  d="M586 50c0,19 -15,34 -35,34 -19,0 -34,-15 -34,-34 0,-20 15,-35 34,-35 20,0 35,15 35,35z"/>
                <path fill="#8C8C8C"  d="M576 25c-9,4 -16,12 -25,25 -10,-13 -18,-24 -24,-25 7,-7 15,-10 24,-10 10,0 18,3 25,10z"/>
                <path fill="white"  d="M558 50c0,3 -3,6 -7,6 -3,0 -6,-3 -6,-6 0,-4 3,-7 6,-7 4,0 7,3 7,7z"/>
            </g>
            <g >
                <path gorn="0.1.6.17.0" id="connector44pin" fill="#B2B2B2"  d="M486 50c0,19 -15,34 -35,34 -19,0 -34,-15 -34,-34 0,-20 15,-35 34,-35 20,0 35,15 35,35z"/>
                <path fill="#8C8C8C"  d="M476 25c-9,4 -16,12 -25,25 -10,-13 -18,-24 -24,-25 7,-7 15,-10 24,-10 10,0 18,3 25,10z"/>
                <path fill="white"  d="M458 50c0,3 -3,6 -7,6 -3,0 -6,-3 -6,-6 0,-4 3,-7 6,-7 4,0 7,3 7,7z"/>
            </g>
            <g >
                <path gorn="0.1.6.18.0" id="connector43pin" fill="#B2B2B2"  d="M386 50c0,19 -15,34 -35,34 -19,0 -34,-15 -34,-34 0,-20 15,-35 34,-35 20,0 35,15 35,35z"/>
                <path fill="#8C8C8C"  d="M376 25c-9,4 -16,12 -25,25 -10,-13 -18,-24 -24,-25 7,-7 15,-10 24,-10 10,0 18,3 25,10z"/>
                <path fill="white"  d="M358 50c0,3 -3,6 -7,6 -3,0 -6,-3 -6,-6 0,-4 3,-7 6,-7 4,0 7,3 7,7z"/>
            </g>
            <g >
                <path gorn="0.1.6.19.0" id="connector41pin" fill="#B2B2B2"  d="M186 50c0,19 -15,34 -35,34 -19,0 -34,-15 -34,-34 0,-20 15,-35 34,-35 20,0 35,15 35,35z"/>
                <path fill="#8C8C8C"  d="M176 25c-9,4 -16,12 -25,25 -10,-13 -18,-24 -24,-25 7,-7 15,-10 24,-10 10,0 18,3 25,10z"/>
                <path fill="white"  d="M158 50c0,3 -3,6 -7,6 -3,0 -6,-3 -6,-6 0,-4 3,-7 6,-7 4,0 7,3 7,7z"/>
            </g>
            <g >
                <path gorn="0.1.6.20.0" id="connector42pin" fill="#B2B2B2"  d="M286 50c0,19 -15,34 -35,34 -19,0 -34,-15 -34,-34 0,-20 15,-35 34,-35 20,0 35,15 35,35z"/>
                <path fill="#8C8C8C"  d="M276 25c-9,4 -16,12 -25,25 -10,-13 -18,-24 -24,-25 7,-7 15,-10 24,-10 10,0 18,3 25,10z"/>
                <path fill="white"  d="M258 50c0,3 -3,6 -7,6 -3,0 -6,-3 -6,-6 0,-4 3,-7 6,-7 4,0 7,3 7,7z"/>
            </g>
            <g >
                <path gorn="0.1.6.21.0" id="connector50pin" fill="#B2B2B2"  d="M986 50c0,19 -15,34 -35,34 -19,0 -34,-15 -34,-34 0,-20 15,-35 34,-35 20,0 35,15 35,35z"/>
                <path fill="#8C8C8C"  d="M976 25c-9,4 -16,12 -25,25 -10,-13 -18,-24 -24,-25 7,-7 15,-10 24,-10 10,0 18,3 25,10z"/>
                <path fill="white"  d="M958 50c0,3 -3,6 -7,6 -3,0 -6,-3 -6,-6 0,-4 3,-7 6,-7 4,0 7,3 7,7z"/>
            </g>
            <g >
                <path gorn="0.1.6.22.0" id="connector51pin" fill="#B2B2B2"  d="M1186 50c0,19 -15,34 -35,34 -19,0 -34,-15 -34,-34 0,-20 15,-35 34,-35 20,0 35,15 35,35z"/>
                <path fill="#8C8C8C"  d="M1176 25c-9,4 -16,12 -25,25 -10,-13 -18,-24 -24,-25 7,-7 15,-10 24,-10 10,0 18,3 25,10z"/>
                <path fill="white"  d="M1158 50c0,3 -3,6 -7,6 -3,0 -6,-3 -6,-6 0,-4 3,-7 6,-7 4,0 7,3 7,7z"/>
            </g>
            <g >
                <path gorn="0.1.6.23.0" id="connector52pin" fill="#B2B2B2"  d="M1286 50c0,19 -15,34 -35,34 -19,0 -34,-15 -34,-34 0,-20 15,-35 34,-35 20,0 35,15 35,35z"/>
                <path fill="#8C8C8C"  d="M1276 25c-9,4 -16,12 -25,25 -10,-13 -18,-24 -24,-25 7,-7 15,-10 24,-10 10,0 18,3 25,10z"/>
                <path fill="white"  d="M1258 50c0,3 -3,6 -7,6 -3,0 -6,-3 -6,-6 0,-4 3,-7 6,-7 4,0 7,3 7,7z"/>
            </g>
        </g>
        <g gorn="0.1.7" id="CC3000" >
            <polygon points="921,134 921,666 279,666 279,134 " fill="#00A63D" />
            <polygon points="913,142 913,658 652,658 652,650 451,650 451,658 286,658 286,142 " fill="#CC9933" />
            <polygon points="903,150 903,650 296,650 296,150 " fill="#B2B2B2" />
            <path fill="#CCCCCC"  d="M903 525l0 125 -607 0 0 -379c115,221 455,29 607,254z"/>
            <path stroke="#E5E5E5" fill="none" stroke-width="3"  d="M422 535c0,15 -12,27 -27,27 -15,0 -27,-12 -27,-27 0,-15 12,-27 27,-27 15,0 27,12 27,27z"/>
            <path fill-rule="nonzero" fill="#E5E5E5"  d="M487 416c-2,0 -4,0 -6,1 -2,1 -3,2 -4,3 -1,2 -2,4 -3,6 -1,2 -1,4 -1,7 0,3 0,5 1,7 0,2 1,4 2,6 2,1 3,2 5,3 1,1 3,1 6,1 1,0 3,0 5,-1 1,0 3,0 4,-1l0 5c-1,0 -1,1 -2,1 -1,0 -2,0 -2,0 -1,0 -2,1 -3,1 -1,0 -2,0 -3,0 -3,0 -6,-1 -8,-2 -3,-1 -5,-2 -6,-4 -2,-2 -3,-4 -4,-7 0,-3 -1,-6 -1,-9 0,-3 1,-6 2,-9 0,-3 2,-5 3,-7 2,-2 4,-3 6,-4 3,-1 6,-2 9,-2 2,0 4,0 6,1 2,0 3,1 5,2l-3 4c-1,0 -2,-1 -3,-1 -2,-1 -4,-1 -5,-1zm34 0c-2,0 -4,0 -5,1 -2,1 -3,2 -5,3 -1,2 -2,4 -2,6 -1,2 -1,4 -1,7 0,3 0,5 0,7 1,2 2,4 3,6 1,1 3,2 4,3 2,1 4,1 6,1 2,0 4,0 5,-1 2,0 3,0 5,-1l0 5c-1,0 -2,1 -3,1 0,0 -1,0 -2,0 -1,0 -2,1 -3,1 0,0 -2,0 -3,0 -3,0 -6,-1 -8,-2 -2,-1 -4,-2 -6,-4 -1,-2 -2,-4 -3,-7 -1,-3 -1,-6 -1,-9 0,-3 0,-6 1,-9 1,-3 2,-5 4,-7 1,-2 4,-3 6,-4 2,-1 5,-2 8,-2 2,0 4,0 6,1 2,0 4,1 5,2l-2 4c-1,0 -2,-1 -4,-1 -1,-1 -3,-1 -5,-1zm41 6c0,1 0,2 -1,4 0,1 -1,2 -2,3 0,0 -1,1 -3,2 -1,0 -2,1 -3,1l0 0c3,0 6,2 8,3 1,2 2,4 2,7 0,2 0,4 -1,5 0,2 -1,3 -3,4 -1,1 -2,2 -4,3 -2,0 -5,1 -7,1 -2,0 -4,0 -6,-1 -2,0 -4,-1 -6,-2l0 -4c2,0 4,1 6,2 2,0 4,0 6,0 1,0 3,0 4,0 1,-1 3,-1 3,-2 1,-1 2,-2 2,-3 1,-1 1,-2 1,-3 0,-1 0,-2 -1,-3 0,-1 -1,-2 -2,-3 -1,0 -2,-1 -4,-1 -1,0 -3,0 -4,0l-4 0 0 -5 4 0c1,0 3,0 4,-1 1,0 2,0 3,-1 1,-1 1,-2 2,-3 0,-1 1,-2 1,-3 0,-1 -1,-2 -1,-3 0,0 -1,-1 -1,-2 -1,0 -2,-1 -3,-1 -1,0 -2,0 -3,0 -2,0 -4,0 -5,1 -2,0 -3,1 -5,2l-2 -4c0,0 1,-1 2,-1 1,-1 2,-1 3,-2 1,0 2,0 3,0 2,-1 3,-1 4,-1 2,0 4,0 6,1 1,0 3,1 4,2 1,1 2,2 2,3 1,2 1,3 1,5zm35 11c0,3 -1,6 -1,9 -1,3 -1,5 -2,7 -2,2 -3,3 -5,4 -1,1 -3,2 -6,2 -2,0 -4,-1 -6,-2 -2,-1 -3,-2 -4,-4 -1,-2 -2,-4 -3,-7 0,-3 0,-6 0,-9 0,-4 0,-7 0,-9 1,-3 2,-5 3,-7 1,-2 2,-3 4,-4 2,-1 4,-2 6,-2 2,0 4,1 6,2 2,1 3,2 4,4 1,2 2,4 3,7 0,2 1,5 1,9zm-22 0c0,3 0,5 0,7 1,3 1,4 2,6 0,1 1,2 2,3 1,1 3,1 4,1 2,0 3,0 4,-1 1,-1 2,-2 2,-3 1,-2 2,-3 2,-5 0,-3 0,-5 0,-8 0,-3 0,-6 0,-8 0,-2 -1,-4 -2,-5 0,-2 -1,-3 -2,-3 -1,-1 -2,-1 -4,-1 -1,0 -3,0 -4,1 -1,0 -2,1 -2,3 -1,1 -1,3 -2,5 0,2 0,5 0,8zm54 0c0,3 0,6 0,9 -1,3 -2,5 -3,7 -1,2 -2,3 -4,4 -2,1 -4,2 -6,2 -3,0 -5,-1 -6,-2 -2,-1 -3,-2 -4,-4 -2,-2 -2,-4 -3,-7 0,-3 -1,-6 -1,-9 0,-4 1,-7 1,-9 1,-3 1,-5 2,-7 1,-2 3,-3 5,-4 1,-1 3,-2 6,-2 2,0 4,1 6,2 1,1 3,2 4,4 1,2 2,4 3,7 0,2 0,5 0,9zm-21 0c0,3 0,5 0,7 0,3 1,4 1,6 1,1 2,2 3,3 1,1 2,1 4,1 1,0 2,0 4,-1 1,-1 1,-2 2,-3 1,-2 1,-3 2,-5 0,-3 0,-5 0,-8 0,-3 0,-6 0,-8 -1,-2 -1,-4 -2,-5 -1,-2 -1,-3 -2,-3 -2,-1 -3,-1 -4,-1 -2,0 -3,0 -4,1 -1,0 -2,1 -3,3 0,1 -1,3 -1,5 0,2 0,5 0,8zm54 0c0,3 0,6 -1,9 0,3 -1,5 -2,7 -1,2 -3,3 -4,4 -2,1 -4,2 -7,2 -2,0 -4,-1 -6,-2 -1,-1 -3,-2 -4,-4 -1,-2 -2,-4 -2,-7 -1,-3 -1,-6 -1,-9 0,-4 0,-7 1,-9 0,-3 1,-5 2,-7 1,-2 3,-3 4,-4 2,-1 4,-2 6,-2 3,0 5,1 6,2 2,1 4,2 5,4 1,2 2,4 2,7 1,2 1,5 1,9zm-22 0c0,3 0,5 1,7 0,3 1,4 1,6 1,1 2,2 3,3 1,1 2,1 3,1 2,0 3,0 4,-1 1,-1 2,-2 3,-3 0,-2 1,-3 1,-5 1,-3 1,-5 1,-8 0,-3 0,-6 -1,-8 0,-2 -1,-4 -1,-5 -1,-2 -2,-3 -3,-3 -1,-1 -2,-1 -4,-1 -1,0 -2,0 -3,1 -1,0 -2,1 -3,3 0,1 -1,3 -1,5 -1,2 -1,5 -1,8zm48 21l-12 -37 -1 0c1,1 1,3 1,4 0,2 0,3 0,4 0,1 0,3 0,4l0 25 -5 0 0 -42 8 0 12 34 0 0 12 -34 8 0 0 42 -6 0 0 -26c0,-1 0,-2 0,-3 0,-1 0,-3 1,-4 0,-1 0,-3 0,-4l-1 0 -12 37 -5 0zm69 -21c0,3 -1,6 -1,9 -1,3 -2,5 -4,7 -1,2 -3,3 -6,4 -2,1 -5,2 -8,2 -3,0 -5,-1 -8,-2 -2,-1 -4,-2 -5,-4 -2,-2 -3,-5 -4,-7 -1,-3 -1,-6 -1,-9 0,-3 0,-6 1,-9 1,-3 2,-5 4,-7 1,-2 3,-3 5,-4 3,-1 5,-2 9,-2 3,0 5,1 7,2 3,1 5,2 6,4 2,2 3,4 4,7 0,3 1,6 1,9zm-31 0c0,3 0,5 1,7 0,2 1,4 2,5 1,2 2,3 4,4 1,1 3,1 5,1 3,0 5,0 6,-1 2,-1 3,-2 4,-4 1,-1 2,-3 2,-5 1,-2 1,-4 1,-7 0,-3 0,-5 -1,-7 0,-2 -1,-4 -2,-6 -1,-1 -2,-2 -4,-3 -1,-1 -3,-1 -5,-1 -3,0 -5,0 -6,1 -2,1 -3,2 -4,3 -1,2 -2,4 -2,6 -1,2 -1,4 -1,7zm71 0c0,3 0,6 -1,9 -1,3 -2,5 -4,7 -2,1 -4,3 -6,4 -3,1 -6,1 -9,1l-11 0 0 -42 12 0c3,0 6,0 8,1 2,1 5,2 6,4 2,2 3,4 4,7 1,2 1,5 1,9zm-5 0c0,-3 -1,-6 -1,-8 -1,-2 -2,-3 -3,-5 -1,-1 -3,-2 -4,-3 -2,0 -4,-1 -7,-1l-5 0 0 34 4 0c5,0 9,-2 12,-5 2,-3 4,-7 4,-12z"/>
            <path fill-rule="nonzero" fill="#E5E5E5"  d="M486 515l-5 0 0 -26c0,-1 0,-2 0,-3 0,-1 0,-2 0,-3 0,-1 0,-1 0,-2 0,-1 1,-2 1,-3 -1,1 -1,1 -1,1 -1,1 -1,1 -1,1 0,0 -1,1 -1,1 0,0 -1,0 -1,1l-4 3 -3 -3 11 -9 4 0 0 42zm42 0l-27 0 0 -4 10 -11c2,-2 3,-3 4,-4 1,-2 2,-3 3,-4 1,-1 2,-3 2,-4 0,-1 1,-3 1,-4 0,-1 -1,-2 -1,-3 0,-1 -1,-2 -1,-2 -1,-1 -2,-1 -2,-2 -1,0 -2,0 -3,0 -2,0 -4,0 -5,1 -2,1 -3,2 -4,3l-3 -4c0,0 1,-1 2,-2 1,0 2,-1 3,-1 1,-1 2,-1 3,-1 1,0 3,-1 4,-1 2,0 3,1 5,1 1,1 3,1 4,2 1,1 2,3 2,4 1,1 1,3 1,5 0,1 0,3 -1,4 0,2 -1,3 -2,5 -1,1 -2,3 -3,4 -1,2 -3,3 -4,5l-8 8 0 1 20 0 0 4zm35 -9l-6 0 0 9 -6 0 0 -9 -19 0 0 -5 19 -28 6 0 0 28 6 0 0 5zm-12 -5l0 -10c0,-1 0,-2 0,-4 0,-1 1,-2 1,-3 0,-1 0,-2 0,-3 0,-1 0,-2 0,-3l0 0c-1,1 -1,1 -1,2 0,0 0,0 -1,1 0,0 0,1 0,1 -1,1 -1,1 -1,1l-12 18 14 0zm29 -29c2,0 3,1 5,1 1,0 3,1 4,2 1,1 2,2 2,3 1,1 1,3 1,5 0,1 0,2 0,3 -1,1 -1,2 -2,3 -1,1 -1,1 -2,2 -1,1 -2,1 -3,2 1,1 2,1 3,2 1,1 2,1 3,2 1,1 1,2 2,3 0,2 1,3 1,4 0,2 -1,4 -1,5 -1,2 -2,3 -3,4 -1,1 -3,2 -4,2 -2,1 -4,1 -6,1 -2,0 -4,0 -5,-1 -2,0 -3,-1 -5,-2 -1,-1 -2,-2 -2,-4 -1,-1 -1,-3 -1,-4 0,-2 0,-3 1,-4 0,-2 1,-3 1,-4 1,0 2,-1 3,-2 1,-1 2,-1 3,-2 -1,0 -2,-1 -3,-2 0,-1 -1,-1 -2,-2 0,-1 -1,-2 -1,-3 -1,-1 -1,-2 -1,-4 0,-1 1,-3 1,-4 1,-1 2,-2 3,-3 1,-1 2,-2 4,-2 1,0 3,-1 4,-1zm-8 33c0,1 0,2 1,2 0,1 0,2 1,3 1,0 1,1 2,1 2,0 3,0 4,0 1,0 3,0 4,0 1,0 2,-1 2,-1 1,-1 2,-2 2,-3 0,-1 0,-2 0,-3 0,-1 0,-2 0,-2 -1,-1 -1,-2 -2,-3 0,0 -1,-1 -2,-2 -1,0 -2,-1 -4,-1l-1 -1c-2,1 -4,3 -5,4 -1,2 -2,3 -2,6zm8 -28c-2,0 -4,0 -5,1 -1,1 -2,3 -2,5 0,1 1,2 1,3 0,0 1,1 1,2 1,0 2,1 3,1 0,1 1,1 2,2 1,-1 2,-1 3,-2 1,0 1,-1 2,-1 1,-1 1,-2 2,-2 0,-1 0,-2 0,-3 0,-2 -1,-4 -2,-5 -1,-1 -3,-1 -5,-1zm46 17c0,4 0,7 0,9 -1,3 -2,5 -3,7 -1,2 -2,4 -4,4 -2,1 -4,2 -6,2 -2,0 -4,-1 -6,-2 -2,0 -3,-2 -4,-4 -1,-2 -2,-4 -3,-7 0,-2 -1,-5 -1,-9 0,-3 1,-6 1,-9 1,-3 1,-5 2,-7 2,-2 3,-3 5,-4 1,-1 3,-2 6,-2 2,0 4,1 6,2 2,1 3,2 4,4 1,2 2,4 3,7 0,3 0,6 0,9zm-21 0c0,3 0,6 0,8 0,2 1,4 2,5 0,2 1,3 2,3 1,1 2,1 4,1 1,0 3,0 4,-1 1,0 2,-1 2,-3 1,-1 1,-3 2,-5 0,-2 0,-5 0,-8 0,-3 0,-5 0,-7 -1,-3 -1,-4 -2,-6 0,-1 -1,-2 -2,-3 -1,-1 -3,-1 -4,-1 -2,0 -3,0 -4,1 -1,1 -2,2 -2,3 -1,2 -2,3 -2,6 0,2 0,4 0,7zm71 12l-6 0 0 9 -5 0 0 -9 -20 0 0 -5 20 -28 5 0 0 28 6 0 0 5zm-11 -5l0 -10c0,-1 0,-2 0,-4 0,-1 0,-2 0,-3 0,-1 0,-2 0,-3 0,-1 0,-2 0,-3l0 0c0,1 0,1 0,2 -1,0 -1,0 -1,1 0,0 -1,1 -1,1 0,1 0,1 -1,1l-12 18 15 0zm28 -12c2,0 4,1 5,1 2,1 4,2 5,3 1,1 2,2 3,3 0,2 1,4 1,6 0,2 -1,4 -1,6 -1,1 -2,3 -3,4 -1,1 -3,2 -5,3 -2,1 -4,1 -7,1 -1,0 -1,0 -2,0 -1,0 -2,0 -3,-1 -1,0 -2,0 -3,0 0,-1 -1,-1 -2,-1l0 -5c1,0 2,1 2,1 1,0 2,1 3,1 1,0 2,0 3,0 1,0 2,0 3,0 1,0 3,0 4,0 1,0 2,-1 3,-2 1,0 1,-1 2,-3 0,-1 0,-2 0,-4 0,-2 0,-4 -2,-6 -2,-1 -4,-2 -8,-2 0,0 -1,0 -1,0 -1,0 -2,0 -2,0 -1,0 -1,0 -2,0 0,0 -1,1 -1,1l-3 -2 2 -20 20 0 0 5 -16 0 -1 12c1,0 2,0 3,0 1,-1 2,-1 3,-1z"/>
            <path gorn="0.1.7.7" id="TI_x0020_LOGO" fill="#E5E5E5"  d="M528 363c-2,-1 -4,-1 -6,-2 -1,1 -2,1 -3,1 0,-3 -1,-5 -2,-8 1,-1 1,-1 1,-1 1,1 1,1 1,2 5,3 16,9 17,-1 -3,-4 -8,-4 -12,-5 -5,-3 -6,-4 -6,-11 3,-7 11,-6 17,-4 1,-1 2,-1 3,-1 0,2 1,5 2,8 -1,-1 -5,-3 -7,-4 -3,-1 -13,-1 -8,5 8,4 20,3 16,15 -3,5 -7,6 -13,6zm-119 -89c0,-2 0,-7 1,-8 3,0 6,0 9,0 0,2 -1,5 -1,8 0,0 0,0 0,0 -3,0 -6,0 -9,0zm12 4c0,-1 0,-1 18,0l0 0 0 0 0 0 0 0 0 0 0 0 0 0 0 0 0 0 0 0 0 0 0 0 0 0 0 0 0 0 0 0 0 0 0 0 0 0 0 0 0 0 0 0 0 1 0 0 0 0 0 0 0 0 0 0 0 0 0 0 0 0 0 0 0 1 0 0 0 0 0 0 0 0 0 0 0 0 0 0 0 0 0 0 0 1 0 0 0 0 0 0 0 0 0 0 0 0 0 1 0 0 0 0 0 0 0 0 0 0 0 0 0 0 0 1 0 0 0 0 0 0 0 0 0 0 0 0 0 1 0 0 0 0 0 0 0 0 0 0 0 0 0 1 0 0 0 0 0 0 0 0 0 0 0 0 0 0 0 0 0 0 0 1 0 0 0 0 0 0 0 0 0 0 0 0 0 0 0 0 0 1 0 0 0 0 0 0 0 0 0 0 0 0 0 0 0 0 0 0 0 1 0 0 0 0 0 0 0 0 0 0 0 0 0 0 0 0 0 0 0 1 0 0 0 0 0 0 0 0 0 0 0 0 0 0 0 0 0 0 0 1 0 0 0 0 0 0 0 0 0 0 0 0 0 0 0 0 0 0 0 1 0 0 0 0c1,3 2,6 5,8 0,7 0,13 0,19 -13,3 -26,11 -27,25 0,3 1,6 1,8 -17,6 -25,-16 -32,-28 -9,-10 -11,9 -20,0 -2,-4 -2,-4 -6,-12 -4,-5 -9,-8 -11,-15 9,0 18,0 27,0 0,-12 0,-24 0,-36 7,0 14,0 22,0 0,6 0,12 0,18 2,0 4,0 6,0 -1,3 -2,7 -2,11 -2,0 -5,0 -7,1 -1,3 -1,6 -2,10 2,0 4,0 6,0 -1,8 -3,16 -3,24 1,2 2,3 5,4 5,0 11,0 16,0 0,-1 0,-1 2,-11 -2,0 -4,0 -6,-2 1,-5 2,-10 3,-15 2,0 4,0 7,0 0,-4 1,-7 2,-10 -2,0 -4,-1 -7,-1 1,-4 2,-7 3,-11zm39 0c0,-1 0,-1 32,-1 0,1 0,1 0,1 1,2 2,5 2,7 -1,0 -1,0 -3,-2 -2,-1 -10,-2 -11,0 0,10 0,20 0,30 0,2 1,2 3,3 0,0 0,1 0,1 -5,0 -9,0 -13,0 0,-2 2,-3 3,-4 0,-10 0,-20 0,-30 -4,-3 -10,-1 -14,2 0,0 -1,0 -1,0 1,-3 2,-5 2,-7zm28 9c23,0 23,0 23,0 1,2 1,4 2,6 0,1 0,1 0,1 -2,-1 -4,-3 -7,-3 -3,0 -5,0 -8,0 0,0 0,0 -1,0 0,3 0,6 0,8 3,0 10,2 11,-2 1,0 1,0 1,0 1,0 1,0 1,0 0,3 0,6 0,8 0,0 0,0 -1,0 -1,0 -1,-1 -3,-2 -3,0 -6,0 -9,0 0,3 -1,10 1,10 3,0 6,0 8,0 2,0 3,0 5,-1 1,-1 2,-2 4,-2 -1,2 -2,4 -3,6 -8,1 -16,1 -24,1 0,0 0,-1 0,-1 0,-1 1,-1 2,-1 1,-7 0,-17 0,-24 0,-2 -1,-2 -2,-3 0,0 0,-1 0,-1zm-67 -9c6,0 12,0 18,0 0,0 0,0 0,0m-39 39c3,-13 5,-26 8,-39 3,0 6,0 9,0 -3,13 -5,26 -8,38 0,1 0,1 0,1 -9,0 -9,0 -9,0zm114 -30c5,0 10,0 15,0 0,0 0,1 0,1 -2,1 -2,1 -3,1 1,3 3,6 5,9 2,-2 7,-8 3,-10 0,0 0,-1 1,-1 3,0 6,0 10,0 0,0 0,1 0,1 -5,1 -9,9 -11,13 2,5 6,9 10,14 3,0 11,-24 12,-28 2,0 5,0 7,0 0,0 0,0 10,27 1,1 1,1 3,2 0,0 0,1 0,1 -4,0 -8,0 -12,0 0,0 0,-1 0,-1 3,-1 1,-5 0,-7 -4,0 -8,0 -12,0 -1,2 -2,3 -1,6 0,0 1,0 1,1 0,0 0,1 1,1 -7,0 -14,0 -21,0 0,-1 1,-2 2,-2 0,-2 -4,-9 -6,-10 -2,3 -8,9 -3,11 0,0 0,1 0,1 -4,0 -7,0 -11,0 0,0 0,-1 0,-1 5,-2 9,-9 12,-13 0,-4 -7,-14 -12,-15 0,0 0,-1 0,-1zm40 18c-1,-1 3,-10 4,-12 1,0 4,10 5,12 -3,0 -6,0 -9,0zm32 13c-2,-1 -6,-3 -7,-1 -1,0 -1,0 -1,0 -1,-3 -2,-6 -3,-9 2,0 5,3 7,4 3,1 5,2 9,1 9,-6 -3,-9 -9,-10 -10,-5 -7,-14 3,-16 4,0 7,1 11,0 0,3 1,5 2,8 -2,0 -5,-3 -7,-4 -4,-1 -12,-1 -9,5 7,3 16,2 18,10 0,10 -6,11 -14,12zm-117 5c0,0 0,0 14,0 0,1 0,1 0,1 -2,1 -2,2 -3,3 0,11 0,21 0,32 0,1 1,2 3,2 0,1 0,1 0,2 -5,-1 -9,-1 -14,-1 0,0 0,0 0,-1 2,0 3,-1 4,-2 0,-11 0,-21 0,-32 -1,-2 -2,-2 -4,-3 0,0 0,0 0,-1zm267 10c0,-1 24,-1 24,0 1,5 2,6 2,7 0,0 -1,0 -1,1 -3,-4 -5,-5 -10,-4 0,22 0,22 0,23 2,1 2,1 3,1 0,1 0,1 0,2 -4,0 -8,0 -13,0 0,-1 0,-1 0,-2 2,0 2,0 3,-1 0,-8 0,-16 0,-24 -5,0 -6,0 -9,5 -1,0 -1,0 -1,0 2,-8 2,-8 2,-8zm-12 0c0,-1 0,-1 9,0 0,0 0,0 0,1 -2,0 -2,1 -2,3 -1,9 -1,17 -1,26 0,0 0,0 -1,-1 -6,-7 -13,-14 -19,-21 0,17 0,17 0,19 1,0 2,1 2,2 0,0 0,0 0,1 -3,0 -6,0 -9,0 -1,-1 -1,-1 -1,-1 2,-1 3,-2 3,-4 0,-7 0,-14 0,-21 0,-2 -1,-3 -3,-3 0,-1 0,-1 1,-1 0,-1 8,-1 8,0 5,5 10,11 15,16 0,-4 1,-10 0,-15 -1,0 -1,0 -2,0 0,-1 0,-1 0,-1zm-90 0c11,-1 11,-1 11,0 8,18 8,18 8,18 3,-6 6,-12 8,-18 0,0 0,-1 0,-1 11,1 11,1 11,1 -1,1 -2,1 -3,3 0,8 0,15 0,23 1,1 2,2 3,2 0,1 0,1 0,2 -4,-1 -8,-1 -12,-1 0,0 0,0 0,-1 1,0 1,0 2,-1 0,-1 0,-1 1,-2 -1,-6 -1,-12 -1,-18 -3,8 -6,15 -10,23 0,0 0,0 -1,0 -3,-8 -6,-15 -10,-23 0,6 0,12 0,18 0,2 1,3 2,3 0,1 0,1 0,2 -3,0 -6,0 -9,0 0,-1 0,-1 0,-2 1,0 2,-1 3,-2 0,-8 0,-15 0,-23 -1,-2 -2,-2 -3,-3zm-12 0c0,-1 10,-1 10,0 0,1 -1,1 -2,1 -2,7 -1,15 -1,22 -4,9 -20,9 -25,1 0,-1 0,-2 -1,-3 0,-6 0,-12 0,-18 0,-1 -1,-2 -2,-2 0,-1 0,-1 0,-1 0,-1 12,-1 12,0 -1,1 -2,2 -3,3 0,6 0,12 0,17 2,8 13,8 15,0 0,-5 0,-11 0,-16 -1,-2 -1,-2 -3,-3 0,-1 0,-1 0,-1zm-52 0c0,-1 18,-1 18,0 6,0 12,4 9,11 -2,3 -2,3 -4,4 -2,0 -2,0 -2,1 1,1 2,2 3,2 3,5 4,8 9,10 0,1 0,1 0,1 -10,3 -12,-3 -16,-11 -3,-1 -4,-1 -7,-1 0,3 0,5 0,8 0,2 1,3 3,3 0,1 0,1 0,2 -5,0 -9,0 -13,0 0,-1 0,-1 0,-2 0,0 1,0 1,0 1,0 1,-1 2,-2 0,-8 0,-15 0,-23 0,-1 -1,-1 -2,-2 -1,-1 -1,-1 -1,-1zm-63 0c0,-1 0,-1 9,0 0,0 0,0 0,1 -2,0 -2,1 -3,3 0,8 0,17 0,26 0,0 -1,0 -1,-1 -7,-7 -13,-14 -19,-21 -1,17 -1,17 0,19 1,0 1,1 2,2 0,0 0,0 0,1 -3,0 -6,0 -10,0 0,-1 0,-1 0,-1 2,-1 2,-2 3,-3 0,-8 0,-15 0,-23 -1,-1 -1,-2 -3,-2 0,-1 0,-1 0,-1 0,-1 9,-1 9,0 5,5 10,11 15,16 0,-4 0,-8 0,-13 0,0 0,-1 0,-2 -1,0 -2,0 -2,0 0,-1 0,-1 0,-1zm168 0c-1,0 -1,0 23,0 2,6 2,6 2,7 -1,-1 -2,-2 -6,-4 -3,0 -6,0 -10,1 0,0 0,0 0,8 3,0 5,0 8,0 1,0 2,0 3,-1 0,-1 0,-1 1,-1 1,0 1,8 0,8 -1,0 -1,-1 -2,-2 -1,0 -1,0 -10,0 0,3 0,6 0,9 4,2 9,1 13,0 2,-1 3,-2 4,-3 0,0 1,0 1,0 -1,3 -2,5 -3,7 -8,0 -16,0 -24,1 0,-1 0,-1 0,-2 1,0 1,0 2,-1 0,-8 2,-18 0,-26 -1,0 -2,0 -2,-1zm-123 26c0,-8 0,-15 0,-22 0,0 0,0 0,0 -6,0 -6,-1 -10,3 0,0 0,1 -1,1 1,-3 2,-6 3,-8 8,0 15,0 23,0 2,6 3,7 3,7 0,1 -1,1 -1,1 -3,-4 -5,-5 -10,-5 0,8 0,15 0,23 0,2 1,2 3,2 0,1 0,1 0,2 -5,0 -9,0 -13,0 0,-1 0,-1 0,-1 2,-1 2,-2 3,-3zm222 4c-6,-2 -6,-2 -7,-1 0,0 0,0 0,1 -1,0 -1,0 -2,0 -2,-9 -2,-9 -2,-10 0,0 1,0 1,0 4,4 14,10 18,3 0,-11 -23,-3 -17,-19 4,-6 10,-6 16,-3 1,-1 1,-1 1,-2 0,1 1,1 2,1 0,2 1,5 1,7 0,0 0,1 0,1 -4,-3 -13,-8 -16,-2 0,1 1,2 1,2 9,6 17,2 17,15 -2,6 -7,6 -13,7zm-194 -16c0,-3 0,-6 0,-9 0,-5 17,0 9,7 -3,1 -6,1 -9,2z"/>
        </g>
        <g gorn="0.1.8" id="USB_x0020_MICRO" >
            <rect y="402" height="78.1568" fill="#999999" width="35.1729"  x="1346"/>
            <path fill="#CBA580"  d="M1375 419l0 46c0,1 -1,2 -2,2l-20 0c0,0 -1,-1 -1,-2l0 -49c0,-1 1,-2 1,-2l5 0c0,0 1,-1 1,-1l0 -3c0,0 0,0 0,0 0,0 1,0 1,0l0 3c0,1 -1,2 -2,2l-5 0c0,0 0,0 0,1l0 49c0,1 0,1 0,1l20 0c1,0 1,0 1,-1l0 -46c0,-1 0,-1 -1,-1l-18 0c0,0 -1,0 -1,1l0 43c0,1 1,1 1,1l16 0c1,0 1,0 1,-1l0 -40c0,-1 0,-1 0,-1l-15 0c-1,0 -1,0 -1,1l0 37c0,0 0,1 1,1l13 0c0,0 1,-1 1,-1l0 -34c0,-1 -1,-1 -1,-1l-12 0c0,0 0,0 0,1l0 31c0,1 0,1 0,1l11 0c1,0 1,0 1,1 0,0 0,0 -1,0l-11 0c0,0 -1,-1 -1,-2l0 -31c0,-1 1,-2 1,-2l12 0c1,0 1,1 1,2l0 34c0,1 0,2 -1,2l-13 0c-1,0 -2,-1 -2,-2l0 -37c0,-1 1,-2 2,-2l15 0c1,0 1,1 1,2l0 40c0,1 -1,2 -2,2l-16 0c-1,0 -2,-1 -2,-2l0 -43c0,-1 1,-2 2,-2l18 0c1,0 2,1 2,2z"/>
            <polygon points="1346,402 1346,402 1346,480 1346,480 " fill="white"  fill-opacity="0.200000"/>
            <path fill="gainsboro"  d="M1347 472l-1 0 0 8 35 0 0 -8c-3,-1 -7,-2 -10,-2 -4,0 -21,1 -24,2z"/>
            <path fill="gainsboro"  d="M1371 412c3,0 7,-1 10,-2l0 -8 -35 0 0 8 1 0c3,1 20,2 24,2z"/>
            <polygon points="1346,472 1346,472 1346,480 1346,480 " fill="white"  fill-opacity="0.501961"/>
            <polygon points="1346,402 1346,402 1346,410 1346,410 " fill="white"  fill-opacity="0.501961"/>
            <line fill="none" y1="473" y2="473"  x1="1381" x2="1381"/>
            <rect y="443" height="13.6471" fill="#666666" width="17.0393"  x="1220"/>
            <rect y="455" height="1.24017" fill="#999999" width="15.1217"  x="1220"/>
            <rect y="418" height="13.6471" fill="#666666" width="17.0393"  x="1220"/>
            <rect y="430" height="1.24017" fill="#999999" width="15.1217"  x="1220"/>
            <rect y="392" height="13.6471" fill="#666666" width="17.0393"  x="1220"/>
            <rect y="405" height="1.22454" fill="#999999" width="15.1217"  x="1220"/>
            <rect y="367" height="13.6471" fill="#666666" width="17.0393"  x="1220"/>
            <rect y="379" height="1.21412" fill="#999999" width="15.1217"  x="1220"/>
            <rect y="341" height="13.6367" fill="#666666" width="17.0393"  x="1220"/>
            <rect y="354" height="1.21412" fill="#999999" width="15.1217"  x="1220"/>
            <polygon points="1467,269 1467,529 1233,529 1233,269 " fill="#B3B3B3" />
            <rect y="269" height="259.826" fill="#CCCCCC" width="1.79251"  x="1233"/>
            <rect y="328" height="142" fill="#333333" width="215"  x="1233"/>
            <polygon points="1462,532 1469,532 1484,541 1484,546 " fill="#B3B3B3" />
            <polygon points="1469,532 1469,532 1476,532 1484,541 " fill="#CCCCCC" />
            <polygon points="1484,252 1484,257 1469,266 1462,266 " fill="#B3B3B3" />
            <polygon points="1484,257 1476,266 1469,266 1469,266 " fill="#CCCCCC" />
            <rect y="338" height="6.59166" fill="#F2F2F2" width="8.93652"  x="1453"/>
            <rect y="367" height="6.60208" fill="#F2F2F2" width="8.93652"  x="1453"/>
            <rect y="396" height="6.57603" fill="#F2F2F2" width="8.93652"  x="1453"/>
            <rect y="424" height="6.57603" fill="#F2F2F2" width="8.93652"  x="1453"/>
            <rect y="453" height="6.57603" fill="#F2F2F2" width="8.93652"  x="1453"/>
            <rect y="458" height="1.32354" fill="gray" width="8.93652"  x="1453"/>
            <rect y="430" height="1.33918" fill="gray" width="8.93652"  x="1453"/>
            <rect y="401" height="1.3496" fill="gray" width="8.93652"  x="1453"/>
            <rect y="372" height="1.3496" fill="gray" width="8.93652"  x="1453"/>
            <rect y="343" height="1.3496" fill="gray" width="8.93652"  x="1453"/>
            <path fill="#4D4D4D"  d="M1465 467l0 -7 -6 0 0 -7 6 0 0 -22 -6 0 0 -7 6 0 0 -22 -6 0 0 -6 6 0 0 -22 -6 0 0 -7 6 0 0 -22 -6 0 0 -7 6 0 0 -4 0 -4c0,-1 -1,-2 -2,-2l-15 0c-1,0 -2,1 -2,2l0 138c0,1 1,2 2,2l15 0c1,0 2,-1 2,-2l0 -1z"/>
            <path fill="#CCCCCC"  d="M1241 532l-8 -3 0 -35c0,0 1,32 4,33 2,1 4,-2 4,-2l0 7z"/>
            <path fill="#CCCCCC"  d="M1241 266l-8 3 0 35c0,0 1,-32 4,-33 2,-1 4,2 4,2l0 -7z"/>
            <path fill="#E6E6E6"  d="M1233 313l22 0 0 22 -22 0 0 6 8 0 0 116 -8 0 0 7 22 0 0 22 -22 0 0 46 234 0 0 -266 -234 0 0 47zm191 151l11 0 0 22 -12 0c-4,6 -10,10 -18,10 -8,0 -15,-3 -19,-10l0 0 -62 0 0 -22 62 0c4,-7 11,-11 19,-11 8,0 15,4 19,11zm0 -150l11 0 0 22 -12 0c-4,6 -10,9 -18,9 -8,0 -15,-2 -19,-9l0 0 -62 0 0 -22 62 0c4,-7 11,-12 19,-12 8,0 15,5 19,12z"/>
            <polygon points="1467,526 1467,532 1241,532 1241,511 " fill="#F2F2F2" />
            <polygon points="1467,266 1316,274 1241,282 1241,266 " fill="#999999" />
            <rect y="464" height="21.9635" fill="#CCCCCC" width="1.80815"  x="1324"/>
            <rect y="314" height="21.9375" fill="#CCCCCC" width="1.80815"  x="1324"/>
            <rect y="279" height="239.712" fill="#B3B3B3" width="9.09805"  x="1456"/>
            <rect y="279" height="239.712" fill="#CCCCCC" width="4.31454"  x="1463"/>
        </g>
        <g gorn="0.1.9" id="SPARK_x0020_LOGO" >
            <polygon points="1321,779 1351,760 1379,778 1361,750 1379,721 1351,739 1323,722 1341,750 " fill="#CC9933" />
            <polygon points="1332,754 1335,750 1332,745 1311,750 " fill="#CC9933" />
            <polygon points="1351,734 1347,731 1351,710 1356,731 1351,734 " fill="#CC9933" />
            <polygon points="1346,769 1351,766 1356,769 1351,790 " fill="#CC9933" />
            <polygon points="1370,755 1391,750 1370,745 1367,750 " fill="#CC9933" />
            <polygon points="1321,779 1351,760 1379,778 1379,778 1351,759 " fill="#E6AB00" />
            <polygon points="1332,754 1335,750 1332,753 1311,750 " fill="#E6AB00" />
            <polygon points="1347,731 1351,733 1356,731 1351,734 " fill="#E6AB00" />
            <polygon points="1346,769 1351,787 1356,769 1351,790 " fill="#E6AB00" />
            <polygon points="1370,755 1391,750 1370,754 1367,750 " fill="#E6AB00" />
            <polygon points="1361,750 1379,721 1360,750 " fill="#E6AB00" />
            <polygon points="1342,750 1323,722 1341,750 " fill="#E6AB00" />
        </g>
        <g gorn="0.1.10" id="BLUE_x0020_LED" >
            <g transform="matrix(-8.33407E-014 1.0402 -1.0402 -8.33407E-014 1381.25 606.374)" >
                <g >
                    <g >
                        <g >
                            <g >
                                <rect height="33.6496" fill="#CCCCCC" width="60.815" />
                            </g>
                        </g>
                    </g>
                </g>
            </g>
            <g transform="matrix(-8.00969E-014 1 -1 -8.00969E-014 1378.1 618.48)" >
                <g >
                    <g >
                        <g >
                            <g >
                                <rect height="28.7008" fill="#E5E5E5" width="39.0433" />
                            </g>
                        </g>
                    </g>
                </g>
            </g>
            <g transform="matrix(-8.00969E-014 1 -1 -8.00969E-014 1369.27 630.491)" >
                <g >
                    <g >
                        <g >
                            <g >
                                <rect height="11.0433" fill="#1B5BB3" width="15.0236" />
                            </g>
                        </g>
                    </g>
                </g>
            </g>
        </g>
        <g gorn="0.1.11" id="BUTTON" >
            <g transform="matrix(-8.00969E-014 1 -1 -8.00969E-014 1069.79 557.626)" >
                <g >
                    <g >
                        <g >
                            <g >
                                <rect height="35" fill="#CCCCCC" width="22.5157" />
                            </g>
                        </g>
                    </g>
                </g>
            </g>
            <g transform="matrix(-8.00969E-014 1 -1 -8.00969E-014 1069.79 577.87)" >
                <g >
                    <g >
                        <g >
                            <g >
                                <rect height="35" fill="#E5E5E5" width="2.26772" />
                            </g>
                        </g>
                    </g>
                </g>
            </g>
            <g transform="matrix(-8.00969E-014 1 -1 -8.00969E-014 1069.79 618.685)" >
                <g >
                    <g >
                        <g >
                            <g >
                                <rect height="35" fill="#CCCCCC" width="22.5157" />
                            </g>
                        </g>
                    </g>
                </g>
            </g>
            <g transform="matrix(-8.00969E-014 1 -1 -8.00969E-014 1069.79 638.929)" >
                <g >
                    <g >
                        <g >
                            <g >
                                <rect height="35" fill="#E5E5E5" width="2.26772" />
                            </g>
                        </g>
                    </g>
                </g>
            </g>
            <g transform="matrix(-8.00969E-014 1 -1 -8.00969E-014 1196.02 618.882)" >
                <g >
                    <g >
                        <g >
                            <g >
                                <rect height="35" fill="#CCCCCC" width="22.5157" />
                            </g>
                        </g>
                    </g>
                </g>
            </g>
            <g transform="matrix(-8.00969E-014 1 -1 -8.00969E-014 1196.02 639.126)" >
                <g >
                    <g >
                        <g >
                            <g >
                                <rect height="35" fill="#E5E5E5" width="2.26772" />
                            </g>
                        </g>
                    </g>
                </g>
            </g>
            <g transform="matrix(-8.00969E-014 1 -1 -8.00969E-014 1196.02 557.626)" >
                <g >
                    <g >
                        <g >
                            <g >
                                <rect height="35" fill="#CCCCCC" width="22.5157" />
                            </g>
                        </g>
                    </g>
                </g>
            </g>
            <g transform="matrix(-8.00969E-014 1 -1 -8.00969E-014 1196.02 577.87)" >
                <g >
                    <g >
                        <g >
                            <g >
                                <rect height="35" fill="#E5E5E5" width="2.26772" />
                            </g>
                        </g>
                    </g>
                </g>
            </g>
            <polygon points="1186,541 1186,659 1045,659 1045,541 " fill="#999999" />
            <polygon points="1186,656 1186,659 1045,659 1045,656 " fill="#B2B2B2" />
            <polygon points="1186,541 1186,544 1045,544 1045,541 " fill="#8C8C8C" />
            <path fill="black"  d="M1150 600c0,19 -15,35 -34,35 -19,0 -35,-16 -35,-35 0,-19 16,-35 35,-35 19,0 34,16 34,35z"/>
            <g >
                <path fill="#404040"  d="M1147 598c0,18 -14,32 -31,32 -18,0 -32,-14 -32,-32 0,-17 14,-31 32,-31 17,0 31,14 31,31z"/>
                <path fill="#999999"  d="M1147 598c0,18 -14,32 -31,32 -18,0 -32,-14 -32,-32 6,41 58,41 63,0z"/>
            </g>
        </g>
        <g gorn="0.1.12" id="BUTTON_0" >
            <g transform="matrix(-8.00969E-014 1 -1 -8.00969E-014 1069.79 157.626)" >
                <g >
                    <g >
                        <g >
                            <g >
                                <rect height="35" fill="#CCCCCC" width="22.5157" />
                            </g>
                        </g>
                    </g>
                </g>
            </g>
            <g transform="matrix(-8.00969E-014 1 -1 -8.00969E-014 1069.79 177.87)" >
                <g >
                    <g >
                        <g >
                            <g >
                                <rect height="35" fill="#E5E5E5" width="2.26772" />
                            </g>
                        </g>
                    </g>
                </g>
            </g>
            <g transform="matrix(-8.00969E-014 1 -1 -8.00969E-014 1069.79 218.685)" >
                <g >
                    <g >
                        <g >
                            <g >
                                <rect height="35" fill="#CCCCCC" width="22.5157" />
                            </g>
                        </g>
                    </g>
                </g>
            </g>
            <g transform="matrix(-8.00969E-014 1 -1 -8.00969E-014 1069.79 238.929)" >
                <g >
                    <g >
                        <g >
                            <g >
                                <rect height="35" fill="#E5E5E5" width="2.26772" />
                            </g>
                        </g>
                    </g>
                </g>
            </g>
            <g transform="matrix(-8.00969E-014 1 -1 -8.00969E-014 1196.02 218.882)" >
                <g >
                    <g >
                        <g >
                            <g >
                                <rect height="35" fill="#CCCCCC" width="22.5157" />
                            </g>
                        </g>
                    </g>
                </g>
            </g>
            <g transform="matrix(-8.00969E-014 1 -1 -8.00969E-014 1196.02 239.126)" >
                <g >
                    <g >
                        <g >
                            <g >
                                <rect height="35" fill="#E5E5E5" width="2.26772" />
                            </g>
                        </g>
                    </g>
                </g>
            </g>
            <g transform="matrix(-8.00969E-014 1 -1 -8.00969E-014 1196.02 157.626)" >
                <g >
                    <g >
                        <g >
                            <g >
                                <rect height="35" fill="#CCCCCC" width="22.5157" />
                            </g>
                        </g>
                    </g>
                </g>
            </g>
            <g transform="matrix(-8.00969E-014 1 -1 -8.00969E-014 1196.02 177.87)" >
                <g >
                    <g >
                        <g >
                            <g >
                                <rect height="35" fill="#E5E5E5" width="2.26772" />
                            </g>
                        </g>
                    </g>
                </g>
            </g>
            <polygon points="1186,141 1186,259 1045,259 1045,141 " fill="#999999" />
            <polygon points="1186,256 1186,259 1045,259 1045,256 " fill="#B2B2B2" />
            <polygon points="1186,141 1186,144 1045,144 1045,141 " fill="#8C8C8C" />
            <path fill="black"  d="M1150 200c0,19 -15,35 -34,35 -19,0 -35,-16 -35,-35 0,-19 16,-35 35,-35 19,0 34,16 34,35z"/>
            <g >
                <path fill="#404040"  d="M1147 198c0,18 -14,32 -31,32 -18,0 -32,-14 -32,-32 0,-17 14,-31 32,-31 17,0 31,14 31,31z"/>
                <path fill="#999999"  d="M1147 198c0,18 -14,32 -31,32 -18,0 -32,-14 -32,-32 6,41 58,41 63,0z"/>
            </g>
        </g>
        <g gorn="0.1.13" id="TEXT" >
            <path fill-rule="nonzero" fill="black"  d="M98 232c-2,0 -4,-1 -5,-1 -1,-1 -3,-2 -4,-3 -1,-1 -1,-2 -2,-4 0,-2 -1,-4 -1,-6 0,-2 1,-4 1,-5 0,-2 1,-4 1,-5l5 0c0,1 0,2 -1,2 0,1 0,2 0,3 -1,1 -1,2 -1,3 0,0 0,1 0,2 0,3 0,5 1,7 2,1 3,2 5,2 1,0 2,0 3,-1 0,0 1,0 2,-1 0,-1 1,-2 1,-3 1,-1 2,-2 2,-4 1,-1 2,-3 2,-4 1,-1 2,-2 3,-3 1,-1 2,-1 3,-2 1,0 3,0 4,0 2,0 3,0 4,1 2,0 3,1 4,2 0,1 1,2 2,4 0,1 0,3 0,5 0,2 0,4 0,5 -1,2 -1,4 -2,5l-4 -2c0,-1 1,-2 1,-4 1,-1 1,-3 1,-4 0,-2 -1,-4 -2,-5 -1,-2 -2,-2 -4,-2 -1,0 -2,0 -3,0 0,1 -1,1 -2,2 0,0 -1,1 -1,2 -1,1 -1,2 -2,4 -1,2 -1,3 -2,4 -1,1 -1,2 -2,3 -1,1 -2,2 -3,2 -1,1 -3,1 -4,1zm-12 20c0,-1 1,-2 1,-2 0,-1 0,-2 1,-3 0,0 1,-1 1,-2 1,0 1,-1 2,-1l0 0c-1,0 -1,0 -2,0 0,0 -1,0 -1,0 -1,0 -1,0 -2,0l-12 0 0 -5 43 0 0 4 -4 1 0 0c0,0 1,1 2,1 0,1 1,2 1,2 0,1 1,2 1,3 0,0 0,1 0,2 0,2 0,4 -1,5 0,2 -1,3 -3,4 -1,1 -2,1 -4,2 -2,1 -5,1 -7,1 -3,0 -5,0 -7,-1 -2,-1 -3,-1 -5,-2 -1,-1 -2,-2 -3,-4 0,-1 -1,-3 -1,-5zm27 0c0,-2 0,-3 0,-4 -1,-1 -1,-2 -2,-2 -1,-1 -2,-1 -3,-2 -2,0 -3,0 -5,0l-1 0c-2,0 -3,0 -5,0 -1,1 -3,1 -3,2 -1,0 -2,1 -3,2 0,1 0,2 0,4 0,2 1,4 3,5 1,1 4,2 8,2 4,0 7,-1 8,-2 2,-1 3,-3 3,-5zm-26 36l4 -1 0 0c-1,0 -1,-1 -2,-2 -1,0 -1,-1 -1,-2 -1,0 -1,-1 -1,-2 0,-1 -1,-2 -1,-3 0,-1 1,-2 1,-3 0,-1 1,-2 2,-3 0,-1 1,-2 2,-2 2,0 3,-1 4,-1 3,0 6,1 7,4 2,2 3,5 3,9l0 5 2 0c1,0 2,0 3,0 1,-1 1,-1 2,-2 0,0 1,-1 1,-1 0,-1 0,-2 0,-3 0,-1 0,-3 0,-4 -1,-1 -1,-3 -2,-4l4 -1c0,1 1,2 2,4 0,2 0,3 0,5 0,2 0,4 0,5 -1,1 -1,2 -2,3 -1,1 -2,2 -3,2 -1,1 -3,1 -5,1l-20 0 0 -4zm4 -9c0,1 0,2 0,3 0,1 1,2 2,3 0,0 1,1 2,1 1,1 3,1 4,1l3 0 -1 -4c0,-2 0,-3 0,-4 0,-1 -1,-2 -1,-3 -1,0 -1,-1 -2,-1 -1,0 -2,0 -3,0 -1,0 -3,0 -3,1 -1,1 -1,2 -1,3zm26 35c0,0 0,1 0,2 0,0 0,1 0,1l-4 0c0,-1 0,-1 0,-2 0,0 0,-1 0,-1 0,-1 0,-2 -1,-3 0,-1 -1,-2 -2,-3 -1,-1 -2,-1 -3,-1 -1,-1 -2,-1 -4,-1l-16 0 0 -5 30 0 0 4 -6 1 0 0c1,0 2,1 3,1 0,1 1,1 2,2 0,1 1,1 1,2 0,1 0,2 0,3zm-15 14l5 3 10 8 0 6 -13 -11 -17 12 0 -6 14 -9 -3 -3 -11 0 0 -5 42 0 0 5 -19 0 -8 0 0 0zm21 54c0,-2 -1,-4 -1,-5 -1,-2 -2,-3 -3,-4 -2,-1 -4,-2 -5,-3 -2,0 -5,-1 -7,-1 -3,0 -5,1 -7,1 -2,1 -4,1 -5,2 -1,2 -2,3 -3,4 -1,2 -1,4 -1,6 0,2 0,3 0,5 1,1 1,2 1,4l-4 0c0,-1 0,-2 -1,-2 0,-1 0,-2 0,-2 0,-1 0,-2 0,-3 -1,-1 -1,-2 -1,-3 0,-3 1,-5 2,-8 1,-2 2,-3 4,-5 2,-1 4,-2 7,-3 2,-1 5,-1 8,-1 3,0 6,0 8,1 3,1 5,2 7,4 1,1 3,3 4,5 1,2 1,5 1,8 0,2 0,4 0,6 -1,1 -1,3 -2,4l-4 -2c0,-1 1,-2 1,-3 1,-2 1,-3 1,-5zm-21 41c-3,0 -5,0 -7,-1 -2,-1 -3,-1 -5,-3 -1,-1 -2,-2 -3,-4 0,-1 -1,-3 -1,-5 0,-2 1,-4 1,-5 1,-2 2,-3 3,-4 2,-1 3,-2 5,-3 2,-1 4,-1 7,-1 2,0 5,0 7,1 1,1 3,1 4,3 2,1 3,2 3,4 1,1 1,3 1,5 0,2 0,4 -1,5 0,2 -1,3 -3,4 -1,2 -3,2 -4,3 -2,1 -5,1 -7,1zm0 -21c-4,0 -7,1 -9,2 -1,1 -2,3 -2,6 0,3 1,5 2,6 2,1 5,2 9,2 4,0 7,-1 8,-2 2,-1 3,-3 3,-6 0,-3 -1,-5 -3,-6 -1,-1 -4,-2 -8,-2zm15 42c0,0 0,1 0,1 0,1 0,2 0,2l-4 -1c0,0 0,-1 0,-1 0,-1 0,-1 0,-2 0,-1 0,-2 -1,-3 0,-1 -1,-1 -2,-2 -1,-1 -2,-1 -3,-2 -1,0 -2,0 -4,0l-16 0 0 -5 30 0 0 4 -6 0 0 1c1,0 2,1 3,1 0,1 1,1 2,2 0,0 1,1 1,2 0,1 0,2 0,3zm-31 21c0,-2 1,-4 1,-6 1,-1 2,-3 3,-4 2,-1 3,-2 5,-3 2,0 4,-1 7,-1 2,0 4,1 6,1 2,1 4,2 5,3 2,1 3,2 3,4 1,1 1,3 1,5 0,1 0,3 -1,4 0,2 -1,3 -2,4 -2,1 -3,2 -5,2 -1,1 -3,1 -5,1l-3 0 0 -19c-4,0 -6,1 -8,3 -1,1 -2,3 -2,6 0,1 0,2 0,2 0,1 0,2 0,3 0,0 1,1 1,2 0,0 1,1 1,2l-5 0c0,-1 0,-2 0,-2 -1,-1 -1,-2 -1,-2 0,-1 0,-2 0,-3 0,0 -1,-1 -1,-2zm27 -1c0,-2 0,-4 -2,-5 -1,-2 -3,-2 -6,-2l0 13c1,0 2,0 3,0 1,-1 2,-1 3,-1 1,-1 1,-2 2,-2 0,-1 0,-2 0,-3zm-26 39l30 -11 0 5 -17 6c0,0 -1,0 -2,1 -1,0 -2,0 -3,0 -1,1 -2,1 -3,1 -1,0 -1,1 -2,1l0 0c1,0 1,0 2,0 1,0 2,1 3,1 1,0 2,1 3,1 1,0 2,0 2,1l17 5 0 5 -30 -10 0 -6zm0 35l0 -4 25 0c1,0 1,0 2,0 1,0 2,0 3,0 1,0 2,0 2,0 1,0 2,0 3,0 -1,-1 -1,-1 -1,-1 0,0 -1,-1 -1,-1 0,0 0,0 -1,-1 0,0 0,0 0,-1l-4 -4 4 -2 8 10 0 4 -40 0zm3 16c1,0 1,0 2,0 0,0 1,0 1,1 0,0 0,0 1,1 0,0 0,1 0,1 0,1 0,1 0,1 -1,1 -1,1 -1,2 0,0 -1,0 -1,0 -1,0 -1,1 -2,1 -1,0 -1,-1 -2,-1 0,0 -1,0 -1,0 0,-1 0,-1 -1,-2 0,0 0,0 0,-1 0,0 0,-1 0,-1 1,-1 1,-1 1,-1 0,-1 1,-1 1,-1 1,0 1,0 2,0zm17 39c-3,0 -6,-1 -9,-1 -2,-1 -4,-1 -6,-2 -2,-1 -3,-3 -4,-4 -1,-2 -2,-4 -2,-6 0,-2 1,-4 2,-6 1,-1 2,-3 4,-4 2,-1 4,-2 6,-2 3,-1 6,-1 9,-1 3,0 6,0 8,1 3,0 5,1 7,2 2,1 3,2 4,4 1,2 1,4 1,6 0,2 0,4 -1,5 -1,2 -2,3 -4,4 -2,1 -4,2 -6,3 -3,0 -6,1 -9,1zm0 -21c-3,0 -5,0 -7,1 -2,0 -4,0 -5,1 -2,1 -3,1 -3,2 -1,1 -1,2 -1,4 0,1 0,2 1,3 0,1 1,2 3,3 1,0 3,1 5,1 2,0 4,0 7,0 3,0 5,0 7,0 2,0 4,-1 5,-1 1,-1 2,-2 3,-3 1,-1 1,-2 1,-3 0,-2 0,-3 -1,-4 -1,-1 -2,-1 -3,-2 -1,-1 -3,-1 -5,-1 -2,-1 -4,-1 -7,-1z"/>
            <path fill-rule="nonzero" fill="black"  d="M991 155l28 -10 0 0c-1,0 -2,0 -3,1 -1,0 -2,0 -3,0 -1,0 -2,0 -3,0l-19 0 0 -4 32 0 0 6 -26 9 0 0 26 9 0 5 -32 0 0 -4 20 0c0,0 1,1 2,1 1,0 2,0 3,0 1,0 2,0 3,0l0 0 -28 -10 0 -3zm16 51c-2,0 -4,-1 -6,-1 -2,-1 -4,-2 -6,-3 -1,-1 -2,-2 -3,-4 -1,-2 -1,-4 -1,-6 0,-2 0,-4 1,-6 1,-2 2,-3 3,-4 2,-1 4,-2 6,-3 2,0 4,-1 6,-1 3,0 5,1 7,1 2,1 4,2 5,3 1,1 3,2 3,4 1,2 1,4 1,6 0,2 0,4 -1,6 0,2 -2,3 -3,4 -1,1 -3,2 -5,3 -2,0 -4,1 -7,1zm0 -23c-2,0 -3,0 -5,0 -2,1 -3,1 -4,2 -1,1 -2,2 -3,3 0,1 0,2 0,4 0,2 0,3 0,4 1,2 2,3 3,3 1,1 2,2 4,2 2,0 3,1 5,1 2,0 4,-1 6,-1 1,0 2,-1 4,-2 1,0 1,-1 2,-3 1,-1 1,-2 1,-4 0,-1 0,-3 -1,-4 -1,-1 -1,-2 -2,-3 -2,-1 -3,-1 -4,-2 -2,0 -4,0 -6,0zm1 53c-3,0 -5,0 -7,-1 -2,-1 -4,-2 -5,-3 -2,-1 -3,-3 -4,-5 0,-2 -1,-4 -1,-6l0 -8 32 0 0 9c0,2 0,4 -1,5 -1,2 -2,4 -3,5 -1,1 -3,2 -5,3 -2,1 -4,1 -6,1zm-1 -4c2,0 4,-1 6,-1 1,0 3,-1 4,-2 1,-1 1,-2 2,-3 0,-2 1,-3 1,-5l0 -4 -25 0 0 3c0,4 1,7 3,9 2,2 5,3 9,3zm-16 27l0 -16 32 0 0 16 -4 0 0 -12 -9 0 0 11 -4 0 0 -11 -11 0 0 12 -4 0z"/>
            <path fill-rule="nonzero" fill="black"  d="M1003 571l-13 0 0 -4 32 0 0 8c0,4 -1,6 -3,8 -1,2 -3,3 -6,3 -2,0 -3,0 -4,-1 0,0 -1,0 -2,-1 -1,-1 -1,-1 -2,-2 0,-1 0,-1 -1,-2l-14 8 0 -4 13 -8 0 -5zm4 0l0 4c0,1 0,2 0,3 0,1 1,2 1,2 1,1 1,1 2,1 1,1 2,1 3,1 1,0 1,0 2,-1 1,0 1,0 2,-1 0,-1 1,-1 1,-2 0,-1 0,-2 0,-3l0 -4 -11 0zm-8 39c-2,0 -3,-1 -4,-1 -1,-1 -2,-1 -3,-2 -1,-1 -1,-2 -2,-4 0,-1 0,-2 0,-4 0,-2 0,-3 0,-4 0,-2 1,-3 1,-4l4 0c0,1 0,1 -1,2 0,0 0,1 0,2 0,0 -1,1 -1,2 0,1 0,1 0,2 0,2 1,4 1,5 1,1 3,2 4,2 1,0 2,0 2,-1 1,0 1,0 2,-1 0,0 1,-1 1,-2 1,-1 1,-2 2,-3 0,-1 1,-2 1,-3 1,-1 2,-2 2,-3 1,0 2,-1 3,-1 1,0 2,-1 3,-1 1,0 3,1 4,1 0,1 1,1 2,2 1,1 1,2 2,3 0,1 0,3 0,4 0,2 0,3 0,5 -1,1 -1,2 -2,3l-3 -1c0,-1 1,-2 1,-3 0,-2 1,-3 1,-4 0,-2 -1,-3 -2,-4 0,-1 -2,-2 -3,-2 -1,0 -1,1 -2,1 -1,0 -1,0 -2,1 0,0 -1,1 -1,2 0,1 -1,2 -1,3 -1,1 -1,2 -2,3 0,1 -1,2 -2,3 0,0 -1,1 -2,1 -1,1 -2,1 -3,1zm-9 15l0 -4 28 0 0 -9 4 0 0 22 -4 0 0 -9 -28 0z"/>
            <path fill-rule="nonzero" fill="black"  d="M1235 681c0,2 0,3 0,4 -1,1 -1,1 -2,2 0,1 -1,1 -2,2 -1,0 -2,1 -3,1l0 0c3,0 5,1 6,3 2,1 2,3 2,5 0,2 0,3 0,4 -1,2 -2,3 -3,4 -1,1 -2,1 -4,2 -1,0 -3,1 -5,1 -2,0 -4,-1 -5,-1 -2,0 -3,-1 -4,-1l0 -4c1,0 2,1 4,1 2,1 3,1 5,1 1,0 2,0 3,-1 2,0 2,0 3,-1 1,-1 1,-1 2,-2 0,-1 0,-2 0,-3 0,-1 0,-2 -1,-3 0,0 -1,-1 -1,-2 -1,0 -2,0 -3,-1 -1,0 -3,0 -4,0l-3 0 0 -4 3 0c1,0 2,0 3,0 1,0 2,-1 3,-1 1,-1 1,-2 1,-3 1,0 1,-1 1,-2 0,-1 0,-2 0,-2 -1,-1 -1,-2 -2,-2 0,-1 -1,-1 -2,-1 0,0 -1,0 -2,0 -2,0 -3,0 -4,0 -2,1 -3,2 -4,2l-2 -3c0,0 1,-1 2,-1 0,0 1,-1 2,-1 1,0 2,-1 3,-1 1,0 2,0 3,0 2,0 3,0 5,1 1,0 2,1 3,1 1,1 1,2 2,3 0,1 0,2 0,3zm27 -8l5 0 -12 35 -4 0 -12 -35 5 0 7 22c1,2 1,3 1,5 1,1 1,2 1,3 0,-1 1,-2 1,-3 0,-2 1,-3 1,-5l7 -22zm28 8c0,2 0,3 -1,4 0,1 -1,1 -1,2 -1,1 -2,1 -3,2 -1,0 -2,1 -3,1l0 0c3,0 5,1 7,3 1,1 2,3 2,5 0,2 0,3 -1,4 0,2 -1,3 -2,4 -1,1 -3,1 -4,2 -2,0 -4,1 -6,1 -2,0 -3,-1 -5,-1 -1,0 -3,-1 -4,-1l0 -4c1,0 3,1 4,1 2,1 4,1 5,1 1,0 3,0 4,-1 1,0 2,0 2,-1 1,-1 2,-1 2,-2 0,-1 0,-2 0,-3 0,-1 0,-2 0,-3 -1,0 -1,-1 -2,-2 -1,0 -2,0 -3,-1 -1,0 -2,0 -4,0l-3 0 0 -4 3 0c2,0 3,0 4,0 1,0 2,-1 2,-1 1,-1 2,-2 2,-3 0,0 0,-1 0,-2 0,-1 0,-2 0,-2 0,-1 -1,-2 -1,-2 -1,-1 -1,-1 -2,-1 -1,0 -2,0 -3,0 -1,0 -3,0 -4,0 -1,1 -3,2 -4,2l-2 -3c1,0 1,-1 2,-1 1,0 2,-1 2,-1 1,0 2,-1 3,-1 1,0 2,0 3,0 2,0 4,0 5,1 1,0 2,1 3,1 1,1 2,2 2,3 1,1 1,2 1,3z"/>
            <path fill-rule="nonzero" fill="black"  d="M1121 694l0 14 -4 0 0 -35 8 0c5,0 8,1 10,3 2,1 3,4 3,7 0,2 0,3 -1,4 0,1 -1,2 -1,2 -1,1 -2,2 -3,2 0,1 -1,1 -2,2l9 15 -5 0 -8 -14 -6 0zm0 -4l4 0c2,0 3,0 4,0 1,-1 2,-1 2,-2 1,0 1,-1 2,-2 0,-1 0,-2 0,-3 0,-1 0,-2 0,-2 -1,-1 -1,-2 -2,-2 -1,-1 -1,-1 -2,-2 -1,0 -3,0 -4,0l-4 0 0 13zm43 9c0,1 0,3 -1,4 -1,1 -1,2 -2,3 -1,1 -3,1 -4,2 -1,0 -3,1 -5,1 -2,0 -3,-1 -5,-1 -1,0 -3,-1 -4,-1l0 -4c1,0 1,0 2,0 1,1 2,1 2,1 1,0 2,0 3,1 0,0 1,0 2,0 3,0 4,-1 6,-2 1,-1 1,-2 1,-4 0,-1 0,-1 0,-2 0,-1 -1,-1 -1,-2 -1,0 -1,-1 -2,-1 -1,-1 -3,-1 -4,-2 -1,0 -3,-1 -4,-2 -1,0 -2,-1 -2,-2 -1,-1 -1,-2 -2,-3 0,-1 0,-2 0,-3 0,-2 0,-3 1,-4 0,-1 1,-2 2,-3 1,-1 2,-1 3,-2 1,0 3,0 4,0 2,0 4,0 5,0 2,1 3,1 4,2l-1 3c-1,0 -2,0 -4,-1 -1,0 -2,0 -4,0 -2,0 -3,0 -4,1 -1,1 -2,2 -2,4 0,1 0,1 1,2 0,1 0,1 1,2 0,0 1,1 2,1 1,1 2,1 3,2 2,0 3,1 4,2 1,0 2,1 3,2 0,0 1,1 1,2 1,1 1,2 1,4zm17 9l-5 0 0 -31 -9 0 0 -4 24 0 0 4 -10 0 0 31z"/>
            <path fill-rule="nonzero" fill="black"  d="M1029 681c0,1 0,2 -1,2 0,1 -1,2 -1,3 -1,0 -1,1 -2,1 -1,0 -2,1 -3,1l0 0c3,0 4,1 6,2 1,2 2,3 2,5 0,1 -1,3 -1,4 0,1 -1,2 -2,3 -1,0 -2,1 -3,1 -2,1 -3,1 -5,1 -2,0 -3,0 -5,0 -1,-1 -2,-1 -3,-2l0 -3c1,1 2,1 4,1 1,1 2,1 4,1 1,0 2,0 3,-1 1,0 2,0 2,-1 1,0 1,-1 1,-2 1,0 1,-1 1,-2 0,-1 0,-2 -1,-2 0,-1 -1,-2 -1,-2 -1,0 -2,-1 -3,-1 -1,0 -2,0 -3,0l-3 0 0 -3 3 0c1,0 2,-1 3,-1 1,0 2,0 2,-1 1,-1 1,-1 1,-2 1,0 1,-1 1,-2 0,-1 0,-1 0,-2 -1,-1 -1,-1 -2,-1 0,-1 0,-1 -1,-1 -1,0 -1,-1 -2,-1 -2,0 -3,1 -4,1 -1,1 -2,1 -3,2l-2 -3c0,0 1,-1 2,-1 0,0 1,-1 2,-1 0,0 1,0 2,-1 1,0 2,0 3,0 1,0 3,0 4,1 1,0 2,1 2,1 1,1 2,2 2,3 1,1 1,2 1,3zm23 -7l4 0 -10 30 -4 0 -10 -30 4 0 6 19c1,1 1,2 1,3 1,1 1,2 1,4 0,-2 1,-3 1,-4 0,-1 1,-2 1,-3l6 -19zm24 7c0,1 0,2 -1,2 0,1 -1,2 -1,3 -1,0 -1,1 -2,1 -1,0 -2,1 -3,1l0 0c3,0 4,1 6,2 1,2 2,3 2,5 0,1 -1,3 -1,4 -1,1 -1,2 -2,3 -1,0 -2,1 -4,1 -1,1 -3,1 -4,1 -2,0 -3,0 -5,0 -1,-1 -2,-1 -3,-2l0 -3c1,1 2,1 4,1 1,1 2,1 4,1 1,0 2,0 3,-1 1,0 1,0 2,-1 1,0 1,-1 1,-2 1,0 1,-1 1,-2 0,-1 0,-2 -1,-2 0,-1 -1,-2 -1,-2 -1,0 -2,-1 -3,-1 -1,0 -2,0 -3,0l-3 0 0 -3 3 0c1,0 2,-1 3,-1 1,0 2,0 2,-1 1,-1 1,-1 1,-2 1,0 1,-1 1,-2 0,-1 0,-1 0,-2 -1,-1 -1,-1 -2,-1 0,-1 -1,-1 -1,-1 -1,0 -1,-1 -2,-1 -2,0 -3,1 -4,1 -1,1 -2,1 -3,2l-2 -3c0,0 1,-1 2,-1 0,0 1,-1 2,-1 0,0 1,0 2,-1 1,0 2,0 3,0 1,0 2,0 4,1 1,0 2,1 2,1 1,1 2,2 2,3 0,1 1,2 1,3zm17 -9l-1 8 8 -3 1 4 -8 1 5 7 -4 2 -3 -8 -4 8 -3 -2 4 -7 -7 -1 0 -4 8 3 0 -8 4 0z"/>
            <path fill-rule="nonzero" fill="black"  d="M914 690l11 0 0 17c-1,0 -2,0 -3,1 0,0 -1,0 -2,0 -1,0 -2,0 -3,0 -1,1 -2,1 -4,1 -2,0 -4,-1 -6,-2 -2,-1 -4,-2 -5,-3 -1,-2 -2,-4 -3,-6 -1,-2 -1,-5 -1,-7 0,-3 0,-6 1,-8 1,-2 2,-4 3,-5 2,-2 4,-3 6,-4 2,-1 4,-1 7,-1 2,0 3,0 5,0 2,1 3,1 5,2l-2 4c-1,-1 -1,-1 -2,-1 -1,0 -1,0 -2,-1 -1,0 -1,0 -2,0 -1,0 -2,0 -2,0 -2,0 -4,0 -6,1 -1,0 -2,1 -3,2 -1,2 -2,3 -3,5 0,2 0,4 0,6 0,2 0,4 0,5 1,2 1,4 2,5 1,1 3,2 4,3 2,0 3,1 5,1 1,0 2,0 2,0 1,0 1,0 2,-1 0,0 1,0 1,0 1,0 1,0 2,0l0 -10 -7 0 0 -4zm45 18l-5 0 -17 -29 0 0c0,2 0,3 0,4 1,1 1,2 1,3 0,1 0,2 0,3l0 19 -5 0 0 -35 6 0 16 29 0 0c0,-1 0,-2 0,-4 0,0 0,-1 0,-1 0,-1 0,-1 0,-2 0,0 0,-1 0,-1 0,-1 0,-1 0,-2l0 -19 4 0 0 35zm35 -18c0,3 0,6 -1,8 -1,2 -2,4 -3,6 -2,1 -3,2 -5,3 -3,1 -5,1 -8,1l-8 0 0 -35 9 0c3,0 5,1 7,1 2,1 4,2 5,4 1,1 2,3 3,5 1,2 1,5 1,7zm-4 1c0,-3 -1,-5 -1,-6 -1,-2 -1,-4 -2,-5 -1,-1 -3,-2 -4,-2 -2,-1 -3,-1 -5,-1l-5 0 0 27 4 0c4,0 7,-1 9,-3 3,-2 4,-6 4,-10z"/>
            <path fill-rule="nonzero" fill="black"  d="M852 690c0,3 0,6 -1,8 -1,2 -2,4 -3,6 -2,1 -4,2 -6,3 -2,1 -4,1 -7,1l-9 0 0 -35 10 0c3,0 5,1 7,1 2,1 3,2 5,4 1,1 2,3 3,5 1,2 1,5 1,7zm-5 1c0,-3 0,-5 0,-6 -1,-2 -2,-4 -3,-5 -1,-1 -2,-2 -3,-2 -2,-1 -4,-1 -5,-1l-5 0 0 27 4 0c4,0 7,-1 9,-3 2,-3 3,-6 3,-10zm15 17l13 -31 -18 0 0 -4 22 0 0 4 -13 31 -4 0z"/>
            <path fill-rule="nonzero" fill="black"  d="M752 690c0,3 0,6 -1,8 -1,2 -2,4 -4,6 -1,1 -3,2 -5,3 -2,1 -4,1 -7,1l-9 0 0 -35 10 0c2,0 5,1 7,1 2,1 3,2 5,4 1,1 2,3 3,5 1,2 1,5 1,7zm-5 1c0,-3 0,-5 -1,-6 0,-2 -1,-4 -2,-5 -1,-1 -2,-2 -3,-2 -2,-1 -4,-1 -5,-1l-5 0 0 27 4 0c4,0 7,-1 9,-3 2,-2 3,-6 3,-10zm11 2c0,-1 0,-3 0,-5 0,-1 0,-3 1,-4 0,-2 1,-3 1,-5 1,-1 2,-2 3,-3 1,-1 3,-2 4,-2 2,-1 4,-1 6,-1 0,0 0,0 1,0 0,0 0,0 1,0 0,0 1,0 1,0 0,0 1,0 1,0l0 4c-1,0 -1,0 -2,0 -1,0 -1,0 -2,0 -2,0 -3,0 -4,0 -1,0 -2,1 -3,1 0,1 -1,2 -2,3 0,0 -1,1 -1,2 0,1 0,3 -1,4 0,1 0,2 0,3l0 0c1,0 1,-1 1,-1 1,-1 1,-1 2,-2 1,0 1,0 2,0 1,-1 2,-1 3,-1 1,0 2,1 4,1 1,1 2,1 3,2 1,1 1,2 2,3 0,2 0,3 0,5 0,2 0,3 0,5 -1,1 -1,2 -2,3 -1,1 -2,2 -4,3 -1,0 -2,1 -4,1 -2,0 -3,-1 -5,-1 -1,-1 -2,-2 -3,-3 -1,-1 -2,-3 -3,-5 0,-2 0,-4 0,-7zm11 12c1,0 2,0 2,-1 1,0 2,0 2,-1 1,-1 1,-2 2,-3 0,-1 0,-2 0,-3 0,-1 0,-2 0,-3 0,-1 -1,-2 -1,-2 -1,-1 -1,-1 -2,-2 -1,0 -2,0 -3,0 -1,0 -2,0 -3,0 -1,1 -1,1 -2,2 -1,0 -1,1 -2,2 0,1 0,1 0,2 0,1 0,2 0,3 1,1 1,2 2,3 0,1 1,2 2,2 1,1 2,1 3,1z"/>
            <path fill-rule="nonzero" fill="black"  d="M652 690c0,3 0,5 -1,8 -1,2 -2,4 -3,5 -1,2 -3,3 -5,3 -2,1 -5,2 -7,2l-9 0 0 -35 9 0c3,0 5,0 7,1 2,1 4,2 5,3 1,2 3,3 3,6 1,2 1,4 1,7zm-4 0c0,-2 -1,-4 -1,-6 -1,-2 -1,-3 -2,-4 -1,-1 -3,-2 -4,-3 -1,0 -3,0 -5,0l-5 0 0 27 4 0c4,0 7,-1 10,-4 2,-2 3,-5 3,-10zm20 -4c2,0 3,0 5,1 1,0 2,1 3,2 1,1 2,2 3,3 0,1 0,3 0,4 0,2 0,4 0,5 -1,2 -2,3 -3,4 -1,1 -2,2 -4,2 -1,1 -3,1 -5,1 -1,0 -2,0 -2,0 -1,0 -2,0 -3,0 0,-1 -1,-1 -2,-1 0,0 -1,-1 -2,-1l0 -4c1,0 2,1 2,1 1,0 2,1 3,1 0,0 1,0 2,0 1,0 1,0 2,0 1,0 2,0 3,0 1,0 2,-1 3,-1 1,-1 1,-2 1,-3 1,-1 1,-2 1,-3 0,-2 -1,-4 -2,-5 -1,-1 -4,-2 -6,-2 -1,0 -1,0 -2,0 0,0 -1,0 -1,0 -1,0 -1,0 -1,0 -1,0 -1,1 -2,1l-2 -2 1 -16 17 0 0 4 -13 0 -1 10c1,0 1,0 2,-1 1,0 2,0 3,0z"/>
            <path fill-rule="nonzero" fill="black"  d="M551 691c0,2 -1,5 -1,7 -1,2 -2,4 -4,6 -1,1 -3,2 -5,3 -2,1 -5,1 -7,1l-9 0 0 -34 10 0c2,0 4,0 6,1 2,0 4,1 5,3 2,1 3,3 4,5 0,2 1,5 1,8zm-5 0c0,-3 0,-5 -1,-6 0,-2 -1,-3 -2,-4 -1,-2 -2,-2 -4,-3 -1,0 -3,-1 -5,-1l-4 0 0 27 3 0c5,0 8,-1 10,-3 2,-2 3,-6 3,-10zm33 9l-5 0 0 8 -4 0 0 -8 -16 0 0 -3 16 -24 4 0 0 24 5 0 0 3zm-9 -3l0 -9c0,-1 0,-2 0,-3 0,-1 0,-2 0,-3 0,-1 0,-1 0,-2 0,-1 0,-2 1,-2l-1 0c0,0 0,0 0,1 0,0 0,1 -1,1 0,0 0,1 0,1 0,1 -1,1 -1,1l-10 15 12 0z"/>
            <path fill-rule="nonzero" fill="black"  d="M453 690c0,3 -1,6 -2,8 0,2 -1,4 -3,6 -1,1 -3,2 -5,3 -2,1 -5,1 -7,1l-9 0 0 -35 10 0c2,0 4,1 6,1 2,1 4,2 5,4 2,1 3,3 3,5 1,2 2,5 2,7zm-5 1c0,-3 0,-5 -1,-6 0,-2 -1,-4 -2,-5 -1,-1 -2,-2 -4,-2 -1,-1 -3,-1 -5,-1l-5 0 0 27 4 0c4,0 8,-1 10,-3 2,-2 3,-6 3,-10zm30 -9c0,1 0,2 0,3 -1,1 -1,1 -2,2 0,1 -1,1 -2,2 -1,0 -2,1 -3,1l0 0c3,0 5,1 6,3 2,1 2,3 2,5 0,2 0,3 0,4 -1,2 -2,3 -3,4 -1,1 -2,1 -4,2 -1,0 -3,1 -5,1 -2,0 -4,-1 -5,-1 -2,0 -3,-1 -5,-1l0 -4c2,0 3,1 5,1 2,1 3,1 5,1 1,0 2,0 3,-1 1,0 2,0 3,-1 1,-1 1,-1 2,-2 0,-1 0,-2 0,-3 0,-1 0,-2 -1,-3 0,0 -1,-1 -1,-2 -1,0 -2,0 -3,-1 -1,0 -3,0 -4,0l-3 0 0 -4 3 0c1,0 2,0 3,0 1,0 2,-1 3,-1 1,-1 1,-2 1,-3 1,0 1,-1 1,-2 0,-1 0,-2 0,-2 -1,-1 -1,-2 -2,-2 0,-1 -1,-1 -2,-1 0,0 -1,0 -2,0 -2,0 -3,0 -4,0 -2,1 -3,2 -4,2l-2 -3c0,0 1,-1 2,-1 0,0 1,-1 2,-1 1,0 2,-1 3,-1 1,0 2,0 3,0 2,0 3,0 4,1 2,0 3,1 4,1 1,1 1,2 2,3 0,1 0,2 0,4z"/>
            <path fill-rule="nonzero" fill="black"  d="M353 691c0,3 -1,5 -2,8 0,2 -1,4 -3,5 -1,2 -3,3 -5,3 -2,1 -5,2 -7,2l-9 0 0 -35 10 0c2,0 4,0 6,1 2,1 4,2 5,3 2,2 3,3 3,6 1,2 2,4 2,7zm-5 0c0,-2 0,-4 -1,-6 0,-2 -1,-3 -2,-4 -1,-1 -2,-2 -4,-3 -1,0 -3,0 -5,0l-5 0 0 27 4 0c4,0 8,-1 10,-4 2,-2 3,-5 3,-10zm31 18l-21 0 0 -4 8 -9c1,-1 2,-3 3,-4 1,-1 2,-2 3,-3 0,-1 1,-2 1,-3 0,-1 1,-2 1,-3 0,-1 0,-2 -1,-3 0,0 0,-1 -1,-1 0,-1 -1,-1 -2,-2 0,0 -1,0 -2,0 -1,0 -3,0 -4,1 -1,1 -2,1 -3,2l-3 -3c1,0 1,-1 2,-1 1,-1 2,-1 3,-1 0,-1 1,-1 2,-1 1,-1 2,-1 3,-1 2,0 3,1 4,1 1,0 3,1 3,2 1,1 2,2 2,3 1,1 1,2 1,4 0,1 0,2 -1,3 0,2 -1,3 -1,4 -1,1 -2,2 -3,4 -1,1 -2,2 -3,3l-7 7 0 1 16 0 0 4z"/>
            <path fill-rule="nonzero" fill="black"  d="M260 690c0,3 -1,6 -2,8 0,2 -1,4 -3,6 -1,1 -3,2 -5,3 -2,1 -5,1 -7,1l-9 0 0 -35 10 0c2,0 4,1 6,1 2,1 4,2 5,4 2,1 3,3 3,5 1,2 2,5 2,7zm-5 1c0,-3 0,-5 -1,-6 0,-2 -1,-4 -2,-5 -1,-1 -2,-2 -4,-2 -1,-1 -3,-1 -5,-1l-5 0 0 27 4 0c4,0 8,-1 10,-3 2,-3 3,-6 3,-10zm24 17l-4 0 0 -22c0,0 0,-1 0,-2 0,-1 0,-1 0,-2 0,-1 0,-2 0,-2 0,-1 0,-2 0,-2 0,0 0,0 0,1 0,0 -1,0 -1,0 0,0 0,1 -1,1 0,0 0,0 0,0l-4 3 -2 -3 9 -7 3 0 0 35z"/>
            <path fill-rule="nonzero" fill="black"  d="M152 690c0,3 0,6 -1,8 -1,2 -2,4 -3,6 -2,1 -4,2 -6,3 -2,1 -4,1 -7,1l-9 0 0 -35 10 0c2,0 5,1 7,2 2,0 3,1 5,3 1,1 2,3 3,5 1,2 1,5 1,7zm-5 1c0,-3 0,-5 0,-6 -1,-2 -2,-3 -3,-5 -1,-1 -2,-1 -3,-2 -2,-1 -4,-1 -5,-1l-5 0 0 27 4 0c4,0 7,-1 9,-3 2,-2 3,-6 3,-10zm32 0c0,3 0,5 0,7 -1,2 -1,4 -2,6 -1,1 -2,3 -4,3 -1,1 -3,2 -5,2 -2,0 -3,-1 -5,-2 -1,0 -2,-2 -3,-3 -1,-2 -2,-4 -2,-6 -1,-2 -1,-4 -1,-7 0,-3 0,-6 1,-8 0,-2 1,-4 2,-5 1,-2 2,-3 3,-4 2,-1 3,-1 5,-1 2,0 4,0 5,1 2,1 3,2 4,4 1,1 1,3 2,5 0,2 0,5 0,8zm-17 0c0,2 0,4 0,6 0,2 1,3 1,4 1,2 1,2 2,3 1,1 2,1 3,1 2,0 3,0 3,-1 1,-1 2,-1 2,-3 1,-1 1,-2 2,-4 0,-2 0,-4 0,-6 0,-3 0,-5 0,-7 -1,-1 -1,-3 -2,-4 0,-1 -1,-2 -2,-3 0,0 -1,0 -3,0 -1,0 -2,0 -3,0 -1,1 -1,2 -2,3 0,1 -1,3 -1,4 0,2 0,4 0,7z"/>
            <path fill-rule="nonzero" fill="black"  d="M147 128l-3 -11 -13 0 -4 11 -5 0 13 -35 4 0 13 35 -5 0zm-5 -15l-3 -10c0,0 -1,0 -1,-1 0,0 0,-1 0,-1 0,-1 0,-1 -1,-2 0,0 0,-1 0,-1 0,0 0,1 0,1 0,1 -1,1 -1,2 0,0 0,1 0,1 0,1 0,1 -1,1l-3 10 10 0zm34 -2c0,2 0,5 0,7 -1,2 -1,4 -2,6 -1,1 -2,3 -4,3 -1,1 -3,2 -5,2 -2,0 -3,-1 -5,-2 -1,0 -2,-2 -3,-3 -1,-2 -2,-4 -2,-6 -1,-2 -1,-5 -1,-7 0,-3 0,-6 1,-8 0,-2 1,-4 2,-5 1,-2 2,-3 3,-4 2,-1 3,-1 5,-1 2,0 4,0 5,1 1,1 3,2 4,3 0,2 1,4 2,6 0,2 0,5 0,8zm-17 0c0,2 0,4 0,6 0,2 1,3 1,4 1,1 1,2 2,3 1,1 2,1 3,1 1,0 2,0 3,-1 1,-1 2,-2 2,-3 1,-1 1,-2 2,-4 0,-2 0,-4 0,-6 0,-3 0,-5 0,-7 -1,-1 -1,-3 -2,-4 0,-1 -1,-2 -2,-3 -1,0 -2,-1 -3,-1 -1,0 -2,1 -3,1 -1,1 -1,2 -2,3 0,1 -1,3 -1,4 0,2 0,4 0,7z"/>
            <path fill-rule="nonzero" fill="black"  d="M247 128l-3 -11 -13 0 -4 11 -5 0 13 -35 4 0 13 35 -5 0zm-5 -15l-3 -10c0,0 -1,0 -1,-1 0,0 0,-1 0,-1 0,-1 0,-1 -1,-2 0,0 0,-1 0,-1 0,0 0,1 0,1 0,1 -1,1 -1,2 0,0 0,1 0,1 0,1 0,1 -1,1l-3 10 10 0zm27 15l-4 0 0 -22c0,0 0,-1 0,-2 0,-1 0,-1 0,-2 0,-1 0,-2 0,-2 0,-1 0,-2 0,-2 -1,0 -1,0 -1,1 0,0 0,0 -1,0 0,0 0,1 0,1 -1,0 -1,0 -1,0l-4 3 -2 -3 9 -7 4 0 0 35z"/>
            <path fill-rule="nonzero" fill="black"  d="M347 128l-3 -11 -13 0 -4 11 -5 0 13 -35 4 0 13 35 -5 0zm-5 -15l-3 -10c0,0 -1,0 -1,-1 0,0 0,-1 0,-1 0,-1 0,-1 -1,-2 0,0 0,-1 0,-1 0,0 0,1 0,1 0,1 -1,1 -1,2 0,0 0,1 0,1 0,1 0,1 -1,1l-3 10 10 0zm34 15l-22 0 0 -4 8 -9c2,-1 3,-2 4,-3 1,-1 1,-2 2,-3 1,-1 1,-2 1,-3 1,-1 1,-3 1,-4 0,-1 0,-1 0,-2 -1,-1 -1,-1 -2,-2 0,0 -1,-1 -1,-1 -1,0 -2,0 -3,0 -1,0 -2,0 -4,0 -1,1 -2,2 -3,3l-3 -3c1,-1 2,-1 2,-2 1,0 2,-1 3,-1 1,0 2,-1 3,-1 0,0 1,0 2,0 2,0 3,0 5,0 1,1 2,2 3,2 1,1 1,2 2,3 0,1 0,3 0,4 0,1 0,3 0,4 -1,1 -1,2 -2,4 -1,1 -2,2 -3,3 -1,1 -2,3 -3,4l-7 7 0 0 17 0 0 4z"/>
            <path fill-rule="nonzero" fill="black"  d="M447 128l-3 -11 -13 0 -4 11 -5 0 13 -35 4 0 13 35 -5 0zm-5 -15l-3 -10c0,0 -1,0 -1,-1 0,0 0,-1 0,-1 0,-1 0,-1 -1,-2 0,0 0,-1 0,-1 0,0 0,1 0,1 0,1 -1,1 -1,2 0,0 0,1 0,1 0,1 0,1 -1,1l-3 10 10 0zm33 -12c0,2 -1,3 -1,4 0,1 -1,1 -1,2 -1,1 -2,1 -3,2 -1,0 -2,1 -3,1l0 0c3,0 5,1 7,3 1,1 2,3 2,5 0,2 -1,3 -1,4 -1,2 -1,3 -2,4 -1,1 -3,1 -4,2 -2,0 -4,1 -6,1 -2,0 -3,-1 -5,-1 -1,0 -3,-1 -4,-1l0 -4c1,0 3,1 4,1 2,1 3,1 5,1 1,0 3,0 4,-1 1,0 2,0 2,-1 1,-1 1,-1 2,-2 0,-1 0,-2 0,-3 0,-1 0,-2 0,-3 -1,0 -1,-1 -2,-2 -1,0 -2,0 -3,-1 -1,0 -2,0 -4,0l-3 0 0 -4 3 0c2,0 3,0 4,0 1,0 2,-1 2,-2 1,0 1,-1 2,-2 0,0 0,-1 0,-2 0,-1 0,-2 0,-2 0,-1 -1,-2 -1,-2 -1,-1 -2,-1 -2,-1 -1,0 -2,0 -3,0 -1,0 -3,0 -4,0 -1,1 -3,2 -4,2l-2 -3c1,0 1,-1 2,-1 1,0 1,-1 2,-1 1,0 2,-1 3,-1 1,0 2,0 3,0 2,0 3,0 5,0 1,1 2,2 3,2 1,1 2,2 2,3 0,1 1,2 1,3z"/>
            <path fill-rule="nonzero" fill="black"  d="M547 128l-3 -11 -13 0 -4 11 -5 0 13 -35 4 0 13 35 -5 0zm-5 -15l-3 -10c0,0 -1,0 -1,-1 0,0 0,-1 0,-1 0,-1 0,-1 -1,-2 0,0 0,-1 0,-1 0,0 0,1 0,1 0,1 -1,1 -1,2 0,0 0,1 0,1 0,1 0,1 -1,1l-3 10 10 0zm36 7l-5 0 0 8 -5 0 0 -8 -16 0 0 -4 16 -23 5 0 0 23 5 0 0 4zm-10 -4l0 -8c0,-1 0,-2 0,-3 0,-1 0,-2 1,-3 0,-1 0,-2 0,-2 0,-1 0,-2 0,-2l0 0c-1,0 -1,0 -1,1 0,0 0,0 0,1 -1,0 -1,1 -1,1 0,0 0,1 -1,1l-9 14 11 0z"/>
            <path fill-rule="nonzero" fill="black"  d="M647 128l-3 -11 -13 0 -4 11 -5 0 13 -35 4 0 13 35 -5 0zm-5 -15l-3 -10c0,0 -1,0 -1,-1 0,0 0,-1 0,-1 0,-1 0,-1 -1,-2 0,0 0,-1 0,-1 0,0 0,1 0,1 0,1 -1,1 -1,2 0,0 0,1 0,1 0,1 0,1 -1,1l-3 10 10 0zm23 -6c1,0 3,0 4,0 1,1 3,1 4,2 1,1 1,2 2,4 1,1 1,2 1,4 0,2 0,3 -1,5 0,1 -1,2 -2,3 -1,1 -3,2 -4,3 -2,0 -4,1 -6,1 0,0 -1,-1 -2,-1 -1,0 -2,0 -2,0 -1,0 -2,0 -2,-1 -1,0 -2,0 -2,0l0 -4c0,0 1,0 2,1 0,0 1,0 2,0 1,0 2,1 2,1 1,0 2,0 3,0 1,0 2,0 3,-1 1,0 2,0 2,-1 1,-1 2,-1 2,-2 0,-1 0,-2 0,-4 0,-2 0,-4 -2,-5 -1,-1 -3,-2 -6,-2 0,0 -1,0 -1,0 -1,1 -1,1 -2,1 0,0 -1,0 -1,0 0,0 -1,0 -1,0l-2 -1 1 -17 16 0 0 4 -12 0 -1 10c0,0 1,0 2,0 1,0 2,0 3,0z"/>
            <path fill-rule="nonzero" fill="black"  d="M747 128l-3 -11 -13 0 -4 11 -5 0 13 -35 4 0 13 35 -5 0zm-5 -15l-3 -10c0,0 -1,0 -1,-1 0,0 0,-1 0,-1 0,-1 0,-1 -1,-2 0,0 0,-1 0,-1 0,0 0,1 0,1 0,1 -1,1 -1,2 0,0 0,1 0,1 0,1 0,1 -1,1l-3 10 10 0zm13 0c0,-1 0,-3 0,-5 0,-1 0,-3 1,-4 0,-2 1,-3 1,-5 1,-1 2,-2 3,-3 1,-1 3,-2 4,-2 2,-1 4,-1 6,-1 0,0 0,0 1,0 0,0 0,0 1,0 0,0 1,0 1,0 0,0 0,0 1,0l0 4c-1,0 -1,0 -2,0 -1,0 -1,0 -2,0 -2,0 -3,0 -4,0 -1,0 -2,1 -3,1 0,1 -1,2 -2,3 0,0 -1,1 -1,2 0,1 -1,3 -1,4 0,1 0,2 0,3l0 0c1,0 1,-1 1,-1 1,-1 1,-1 2,-2 1,0 1,0 2,0 1,-1 2,-1 3,-1 1,0 2,1 4,1 1,0 2,1 3,2 1,1 1,2 2,3 0,2 0,3 0,5 0,2 0,3 0,5 -1,1 -2,2 -2,3 -1,1 -3,2 -4,3 -1,0 -3,1 -4,1 -2,0 -3,-1 -5,-1 -1,-1 -2,-2 -3,-3 -1,-1 -2,-3 -3,-5 0,-2 0,-4 0,-7zm11 12c1,0 2,0 2,-1 1,0 2,0 2,-1 1,-1 1,-2 2,-3 0,-1 0,-2 0,-3 0,-1 0,-2 0,-3 0,-1 -1,-2 -1,-2 -1,-1 -2,-1 -2,-2 -1,0 -2,0 -3,0 -1,0 -2,0 -3,0 -1,1 -2,1 -2,2 -1,0 -1,1 -2,2 0,0 0,1 0,2 0,1 0,2 0,3 1,1 1,2 2,3 0,1 1,2 2,2 1,1 2,1 3,1z"/>
            <path fill-rule="nonzero" fill="black"  d="M847 128l-3 -11 -13 0 -4 11 -5 0 13 -35 4 0 13 35 -5 0zm-5 -15l-3 -10c0,0 -1,0 -1,-1 0,0 0,-1 0,-1 0,-1 0,-1 -1,-2 0,0 0,-1 0,-1 0,0 0,1 0,1 0,1 -1,1 -1,2 0,0 0,1 0,1 0,1 0,1 -1,1l-3 10 10 0zm16 15l14 -31 -18 0 0 -4 22 0 0 4 -13 31 -5 0z"/>
            <path fill-rule="nonzero" fill="black"  d="M1117 110l12 0 0 17c-1,0 -2,0 -3,1 -1,0 -1,0 -2,0 -1,0 -2,0 -3,0 -1,1 -2,1 -4,1 -2,0 -4,-1 -6,-2 -2,0 -4,-2 -5,-3 -1,-2 -2,-4 -3,-6 -1,-2 -1,-5 -1,-7 0,-3 0,-5 1,-8 1,-2 2,-4 3,-5 2,-2 4,-3 6,-4 2,-1 4,-1 7,-1 2,0 3,0 5,0 2,1 3,1 4,2l-1 4c-1,0 -1,-1 -2,-1 -1,0 -1,0 -2,-1 -1,0 -2,0 -2,0 -1,0 -2,0 -3,0 -1,0 -3,0 -5,1 -1,0 -2,1 -3,3 -1,1 -2,2 -3,4 0,2 0,4 0,6 0,2 0,4 0,5 1,2 1,4 2,5 1,1 2,2 4,3 1,0 3,1 5,1 1,0 2,0 2,0 1,0 1,0 2,-1 0,0 1,0 1,0 1,0 1,0 2,0l0 -10 -8 0 0 -4zm46 18l-5 0 -17 -29 0 0c0,2 0,3 0,4 0,1 0,2 1,3 0,1 0,2 0,3l0 19 -5 0 0 -35 6 0 16 29 0 0c0,-1 0,-2 0,-4 0,0 0,-1 0,-1 0,-1 0,-1 0,-2 0,0 0,-1 0,-1 0,-1 0,-1 0,-2l0 -19 4 0 0 35zm35 -18c0,3 0,6 -1,8 -1,2 -2,4 -3,6 -2,1 -3,2 -6,3 -2,1 -4,1 -7,1l-8 0 0 -35 9 0c3,0 5,1 7,1 2,1 3,2 5,4 1,1 2,3 3,5 1,2 1,5 1,7zm-4 1c0,-3 -1,-5 -1,-6 -1,-2 -2,-3 -3,-5 -1,-1 -2,-1 -3,-2 -2,-1 -3,-1 -5,-1l-5 0 0 27 4 0c4,0 7,-1 9,-3 2,-2 4,-6 4,-10z"/>
            <path fill-rule="nonzero" fill="black"  d="M1239 93l5 0 -12 35 -4 0 -12 -35 5 0 7 22c1,2 1,3 1,4 1,2 1,3 1,4 0,-1 1,-2 1,-4 1,-1 1,-2 1,-4l7 -22zm20 35l-13 0 0 -3 4 -1 0 -27 -4 -1 0 -3 13 0 0 3 -4 1 0 27 4 1 0 3zm32 0l-5 0 -17 -29 0 0c0,1 0,3 0,4 1,1 1,2 1,3 0,1 0,2 0,3l0 19 -5 0 0 -35 6 0 16 29 0 0c0,-1 0,-3 0,-4 0,0 0,-1 0,-1 0,-1 0,-1 0,-2 0,0 0,-1 0,-1 0,-1 0,-1 0,-2l0 -19 4 0 0 35z"/>
            <path fill-rule="nonzero" fill="black"  d="M931 114l0 14 -5 0 0 -35 9 0c4,0 7,1 9,3 2,1 3,4 3,7 0,2 0,3 -1,4 0,1 0,2 -1,2 -1,1 -1,2 -2,2 -1,1 -2,1 -3,1l10 16 -6 0 -8 -14 -5 0zm0 -4l3 0c2,0 3,0 4,0 1,-1 2,-1 3,-2 0,0 1,-1 1,-2 0,-1 0,-2 0,-3 0,-1 0,-2 0,-3 0,0 -1,-1 -2,-1 0,-1 -1,-1 -2,-2 -1,0 -2,0 -4,0l-3 0 0 13zm46 18l-5 0 -9 -15 -8 15 -5 0 11 -18 -10 -17 5 0 7 14 8 -14 5 0 -10 17 11 18z"/>
            <path fill-rule="nonzero" fill="black"  d="M1040 128l-4 0 0 -31 -10 0 0 -4 24 0 0 4 -10 0 0 31zm37 0l-5 0 -8 -15 -9 15 -4 0 10 -18 -10 -17 5 0 8 14 8 -14 4 0 -10 17 11 18z"/>
        </g>
    </g>
</svg>
