<?xml version="1.0" encoding="UTF-8" standalone="no"?>
<!-- Generator: Adobe Illustrator 17.0.0, SVG Export Plug-In . SVG Version: 6.00 Build 0)  -->

<svg
   xmlns:dc="http://purl.org/dc/elements/1.1/"
   xmlns:cc="http://creativecommons.org/ns#"
   xmlns:rdf="http://www.w3.org/1999/02/22-rdf-syntax-ns#"
   xmlns:svg="http://www.w3.org/2000/svg"
   xmlns="http://www.w3.org/2000/svg"
   xmlns:sodipodi="http://sodipodi.sourceforge.net/DTD/sodipodi-0.dtd"
   xmlns:inkscape="http://www.inkscape.org/namespaces/inkscape"
   height="18"
   x="0px"
   enable-background="new 0 0 72 46.8"
   y="0px"
   width="36"
   viewBox="0 0 36 18.000001"
   xml:space="preserve"
   id="Layer_1"
   version="1.1"
   inkscape:version="0.48.4 r9939"
   sodipodi:docname="svg.pcb.grove_generic_pcb.svg"><sodipodi:namedview
     pagecolor="#ffffff"
     bordercolor="#666666"
     borderopacity="1"
     objecttolerance="10"
     gridtolerance="10"
     guidetolerance="10"
     inkscape:pageopacity="0"
     inkscape:pageshadow="2"
     inkscape:window-width="1366"
     inkscape:window-height="744"
     id="namedview39"
     showgrid="false"
     inkscape:snap-bbox="true"
     inkscape:object-nodes="true"
     units="in"
     inkscape:zoom="15.294458"
     inkscape:cx="18.733608"
     inkscape:cy="5.682436"
     inkscape:window-x="0"
     inkscape:window-y="24"
     inkscape:window-maximized="1"
     inkscape:current-layer="Layer_1" /><desc
     id="desc3"><referenceFile
       id="referenceFile5">grove_generic_pcb.svg</referenceFile></desc><metadata
     id="metadata48"><rdf:RDF><cc:Work
         rdf:about=""><dc:format>image/svg+xml</dc:format><dc:type
           rdf:resource="http://purl.org/dc/dcmitype/StillImage" /><dc:title /></cc:Work></rdf:RDF></metadata><defs
     id="defs46" /><g
     id="copper1"
     transform="matrix(-1,0,0,-1,35.716536,32.25984)"><g
       id="copper0"
       transform="translate(-3.5433065,-21.996953)"><g
         id="g47"
         transform="translate(-0.16907948,0.05579348)"><circle
           d="m 12.851,43.201 c 0,1.133289 -0.918712,2.052 -2.052,2.052 -1.1332885,0 -2.0520003,-0.918711 -2.0520003,-2.052 0,-1.133288 0.9187118,-2.052 2.0520003,-2.052 1.133288,0 2.052,0.918712 2.052,2.052 z"
           id="connector1pad"
           cx="10.799"
           r="2.052"
           cy="43.201"
           sodipodi:cx="10.799"
           sodipodi:cy="43.201"
           sodipodi:rx="2.052"
           sodipodi:ry="2.052"
           style="fill:none;stroke:#f5bd18;stroke-width:1.22399998" /><rect
           height="4.1040001"
           x="8.7469997"
           y="41.148998"
           width="4.1040001"
           id="connector3pin"
           style="fill:none;stroke:#f5bd18;stroke-width:1.22399998" /></g><circle
         d="m 34.452002,43.201 c 0,1.133289 -0.918712,2.052 -2.052,2.052 -1.133289,0 -2.052001,-0.918711 -2.052001,-2.052 0,-1.133288 0.918712,-2.052 2.052001,-2.052 1.133288,0 2.052,0.918712 2.052,2.052 z"
         id="connector0pin"
         cx="32.400002"
         r="2.052"
         cy="43.201"
         sodipodi:cx="32.400002"
         sodipodi:cy="43.201"
         sodipodi:rx="2.052"
         sodipodi:ry="2.052"
         style="fill:none;stroke:#f5bd18;stroke-width:1.22399998"
         transform="translate(-0.5102379,0.05579253)" /><circle
         d="m 27.252001,43.201 c 0,1.133289 -0.918712,2.052 -2.052,2.052 -1.133289,0 -2.052,-0.918711 -2.052,-2.052 0,-1.133288 0.918711,-2.052 2.052,-2.052 1.133288,0 2.052,0.918712 2.052,2.052 z"
         id="connector1pin"
         cx="25.200001"
         r="2.052"
         cy="43.201"
         sodipodi:cx="25.200001"
         sodipodi:cy="43.201"
         sodipodi:rx="2.052"
         sodipodi:ry="2.052"
         style="fill:none;stroke:#f5bd18;stroke-width:1.22399998"
         transform="translate(-0.39685158,0.05579253)" /><circle
         d="m 20.051001,43.201 c 0,1.133289 -0.918712,2.052 -2.052,2.052 -1.133289,0 -2.052,-0.918711 -2.052,-2.052 0,-1.133288 0.918711,-2.052 2.052,-2.052 1.133288,0 2.052,0.918712 2.052,2.052 z"
         id="connector2pin"
         cx="17.999001"
         r="2.052"
         cy="43.201"
         sodipodi:cx="17.999001"
         sodipodi:cy="43.201"
         sodipodi:rx="2.052"
         sodipodi:ry="2.052"
         style="fill:none;stroke:#f5bd18;stroke-width:1.22399998"
         transform="translate(-0.2824658,0.05579253)" /></g></g><g
     id="silkscreen"
     transform="matrix(0,1.2499991,-1.2499991,0,151.90942,-164.56147)"
     style="fill:none;stroke:#ffffff;stroke-width:0.4000003;stroke-miterlimit:4;stroke-opacity:1;stroke-dasharray:none"><path
       style="opacity:0.62962964;fill:none;stroke:#ffffff;stroke-width:0.4000003;stroke-miterlimit:4;stroke-opacity:1;stroke-dasharray:none"
       d="m 131.62427,121.40262 14.45001,0 0,-28.550021 -14.45001,0 0,4.825004 2.275,0 0,18.925017 -2.275,0 0,4.8 z"
       id="rect3085"
       inkscape:connector-curvature="0" /></g></svg>