<?xml version="1.0" encoding="utf-8"?>
<!-- Generator: Adobe Illustrator 16.0.0, SVG Export Plug-In . SVG Version: 6.00 Build 0)  -->
<!DOCTYPE svg PUBLIC "-//W3C//DTD SVG 1.1//EN" "http://www.w3.org/Graphics/SVG/1.1/DTD/svg11.dtd">
<svg version="1.1" id="Ebene_1" xmlns="http://www.w3.org/2000/svg" xmlns:xlink="http://www.w3.org/1999/xlink" x="0px" y="0px"
	 width="19.296px" height="21.795px" viewBox="0 0 19.296 21.795" enable-background="new 0 0 19.296 21.795" xml:space="preserve">
<g id="breadboard">
	<g>
		<circle id="connector2pin" fill="none" cx="13.248" cy="6.003" r="1.512"/>
		<circle id="connector3pin" fill="none" cx="6.048" cy="6.003" r="1.512"/>
	</g>
	<g id="Ebene_1_1_" xmlns:svg="http://www.w3.org/2000/svg">
		<g>
			<rect y="0" fill="#1E1E1E" width="19.296" height="21.795"/>
			<rect x="11.087" y="5.497" fill="#141414" width="4.32" height="10.802"/>
			<rect x="3.888" y="5.497" fill="#141414" width="4.32" height="10.802"/>
			<g>
				<rect x="12.169" y="6.794" fill="#0F0F0F" width="2.16" height="8.751"/>
				<rect x="4.968" y="6.794" fill="#0F0F0F" width="2.16" height="8.751"/>
			</g>
			<g>
				<rect x="11.996" y="6.794" opacity="0.2" fill="#FFFFFF" enable-background="new    " width="0.174" height="8.751"/>
				<rect x="4.799" y="6.794" opacity="0.2" fill="#FFFFFF" enable-background="new    " width="0.169" height="8.751"/>
			</g>
			<g>
				<rect x="12.169" y="6.794" fill="#B3B3B3" width="2.16" height="0.222"/>
				<rect x="4.968" y="6.794" fill="#B3B3B3" width="2.16" height="0.222"/>
			</g>
			<rect x="11.808" y="10.849" fill="#B3B3B3" width="2.88" height="4.729"/>
			<rect x="11.808" y="10.849" fill="#F2F2F2" width="2.88" height="1.128"/>
			<rect x="11.808" y="12.253" fill="#F2F2F2" width="2.88" height="1.524"/>
			<rect x="3.888" y="5.497" fill="#0F0F0F" width="4.32" height="0.714"/>
			<rect x="11.089" y="5.497" fill="#0F0F0F" width="4.32" height="0.357"/>
			<g>
				<rect x="4.608" y="10.857" fill="#B3B3B3" width="2.88" height="4.729"/>
				<rect x="4.608" y="10.857" fill="#F2F2F2" width="2.88" height="1.128"/>
				<rect x="4.608" y="12.259" fill="#F2F2F2" width="2.88" height="1.524"/>
				<rect x="7.294" y="13.99" opacity="0.2" enable-background="new    " width="0.194" height="1.596"/>
				<rect x="5.699" y="15.388" opacity="0.2" enable-background="new    " width="1.595" height="0.193"/>
				<g>
					<g>
						<rect x="7.298" y="12.453" opacity="0.11" enable-background="new    " width="0.194" height="1.331"/>
						<rect x="5.704" y="13.588" opacity="0.11" enable-background="new    " width="1.594" height="0.194"/>
					</g>
					<rect x="4.604" y="12.259" fill="#FFFFFF" width="0.194" height="1.33"/>
					<rect x="4.799" y="12.258" fill="#FFFFFF" width="1.594" height="0.194"/>
				</g>
				<g>
					<g>
						<rect x="7.298" y="10.842" opacity="0.11" enable-background="new    " width="0.194" height="1.144"/>
						<rect x="5.704" y="11.789" opacity="0.11" enable-background="new    " width="1.594" height="0.193"/>
					</g>
					<rect x="4.604" y="10.857" fill="#FFFFFF" width="0.194" height="1.104"/>
					<rect x="4.799" y="10.906" fill="#FFFFFF" width="1.594" height="0.191"/>
				</g>
			</g>
			<g>
				<rect x="3.69" y="5.497" opacity="0.2" fill="#FFFFFF" enable-background="new    " width="0.198" height="10.802"/>
				<rect x="10.889" y="5.497" opacity="0.2" fill="#FFFFFF" enable-background="new    " width="0.198" height="10.802"/>
				<g>
					<rect x="14.494" y="13.982" opacity="0.2" enable-background="new    " width="0.194" height="1.596"/>
					<rect x="12.9" y="15.383" opacity="0.2" enable-background="new    " width="1.594" height="0.193"/>
				</g>
				<g>
					<g>
						<rect x="14.494" y="12.446" opacity="0.11" enable-background="new    " width="0.194" height="1.331"/>
						<rect x="12.9" y="13.582" opacity="0.11" enable-background="new    " width="1.594" height="0.194"/>
					</g>
					<rect x="11.8" y="12.253" fill="#FFFFFF" width="0.193" height="1.33"/>
					<rect x="11.996" y="12.252" fill="#FFFFFF" width="1.594" height="0.194"/>
				</g>
				<g>
					<g>
						<rect x="14.494" y="10.836" opacity="0.11" enable-background="new    " width="0.194" height="1.144"/>
						<rect x="12.9" y="11.782" opacity="0.11" enable-background="new    " width="1.594" height="0.193"/>
					</g>
					<rect x="11.8" y="10.849" fill="#FFFFFF" width="0.193" height="1.104"/>
					<rect x="11.996" y="10.898" fill="#FFFFFF" width="1.594" height="0.191"/>
				</g>
				<text transform="matrix(1 0 0 1 5.2183 4.741)" fill="#FFFFFF" font-family="'OCRA'" font-size="5.2111">ON</text>
				<text transform="matrix(1 0 0 1 4.5356 20.615)" fill="#FFFFFF" font-family="'OCRA'" font-size="5.2111">1</text>
				<text transform="matrix(1 0 0 1 7.9546 20.615)" fill="#FFFFFF" font-family="'OCRA'" font-size="5.2111"> </text>
				<text transform="matrix(1 0 0 1 11.5562 20.615)" fill="#FFFFFF" font-family="'OCRA'" font-size="5.2111">2</text>
				<g>
					<rect y="5.064" opacity="0.2" fill="#FFFFFF" enable-background="new    " width="0.288" height="16.729"/>
					<rect x="19.007" y="0" opacity="0.2" enable-background="new    " width="0.289" height="16.732"/>
					<rect x="19.007" y="16.732" opacity="0.2" enable-background="new    " width="0.289" height="5.063"/>
					<rect x="10.179" y="21.506" opacity="0.2" enable-background="new    " width="8.828" height="0.289"/>
					<rect y="0.001" opacity="0.2" fill="#FFFFFF" enable-background="new    " width="0.288" height="5.063"/>
				</g>
			</g>
		</g>
	</g>
</g>
</svg>
