<?xml version="1.0" encoding="utf-8"?>
<!-- Generator: Adobe Illustrator 16.0.0, SVG Export Plug-In . SVG Version: 6.00 Build 0)  -->
<!DOCTYPE svg PUBLIC "-//W3C//DTD SVG 1.1//EN" "http://www.w3.org/Graphics/SVG/1.1/DTD/svg11.dtd">
<svg version="1.1" id="Ebene_1" xmlns:svg="http://www.w3.org/2000/svg"
	 xmlns="http://www.w3.org/2000/svg" xmlns:xlink="http://www.w3.org/1999/xlink" x="0px" y="0px" width="19.729px"
	 height="16.725px" viewBox="0 0 19.729 16.725" enable-background="new 0 0 19.729 16.725" xml:space="preserve">
<g id="s2b-ph" transform="matrix(1, 0, 0, 1, 10.788, 32.4744)">
	<g transform="matrix(0, 1, -1, 0, 23.0625, -1.61147)">
		<circle fill="#D5D5D5" cx="-26.217" cy="16.322" r="2.2"/>
		<circle fill="#D5D5D5" cx="-19.017" cy="16.322" r="2.201"/>
		<circle fill="#B7B7B7" cx="-26.217" cy="16.322" r="1.492"/>
		<circle fill="#B7B7B7" cx="-19.017" cy="16.322" r="1.492"/>
		<g>
			<g>
				<g>
					<polygon fill="#CCCCCC" points="-18.156,16.366 -19.881,16.366 -19.881,20.331 -18.156,20.331 					"/>
					<polygon fill="#CCCCCC" points="-25.354,16.366 -27.079,16.366 -27.079,20.331 -25.354,20.331 					"/>
				</g>
			</g>
			
				<rect x="-30.344" y="17.614" transform="matrix(2.578893e-006 1 -1 2.578893e-006 3.4754 48.4765)" fill="#DFD9BD" width="15.688" height="16.724"/>
			
				<rect x="-25.189" y="23.647" transform="matrix(2.578893e-006 1 -1 2.578893e-006 6.0265 51.1647)" fill="#CFCAB0" enable-background="new    " width="5.239" height="9.896"/>
			
				<rect x="-25.19" y="25.76" transform="matrix(2.578893e-006 1 -1 2.578893e-006 8.1395 53.2792)" fill="#DFD9BD" enable-background="new    " width="5.24" height="9.898"/>
			<g>
				<g>
					<path fill="#F1F3E6" d="M-14.139,18.133v-2.86h-2.061v2.86H-14.139z"/>
				</g>
			</g>
			<g>
				<g>
					<path fill="#F1F3E6" d="M-28.799,18.133v-2.86h-2.063v2.86H-28.799z"/>
				</g>
			</g>
			
				<rect x="-29.991" y="16.943" transform="matrix(2.578893e-006 1 -1 2.578893e-006 -11.8573 47.8044)" opacity="0.4" fill="#C2B990" enable-background="new    " width="0.319" height="2.062"/>
			
				<rect x="-15.33" y="16.945" transform="matrix(2.578893e-006 1 -1 2.578893e-006 2.8062 33.1438)" opacity="0.4" fill="#C2B990" enable-background="new    " width="0.322" height="2.061"/>
		</g>
		<circle fill="#CCCCCC" cx="-26.217" cy="16.135" r="0.862"/>
		<circle fill="#CCCCCC" cx="-19.017" cy="16.135" r="0.862"/>
	</g>
	<path fill="#FFF8D8" d="M4.929-29.128v-3.345h-15.686v16.723H4.929v-3.482h-0.04v-2.061h0.04v-5.772h-0.04v-2.063H4.929z
		 M-1.337-19.232h-6.308v-2.061h6.308V-19.232z M-1.337-27.065h-6.308v-2.063h6.308V-27.065z"/>
	<rect x="-10.788" y="-24.73" fill="#DFD9BD" width="9.169" height="1.236"/>
</g>
</svg>
