<?xml version="1.0" encoding="utf-8"?>
<!-- Generator: Adobe Illustrator 16.0.0, SVG Export Plug-In . SVG Version: 6.00 Build 0)  -->
<!DOCTYPE svg PUBLIC "-//W3C//DTD SVG 1.1//EN" "http://www.w3.org/Graphics/SVG/1.1/DTD/svg11.dtd">
<svg version="1.1" id="Ebene_1" xmlns:svg="http://www.w3.org/2000/svg"
	 xmlns="http://www.w3.org/2000/svg" xmlns:xlink="http://www.w3.org/1999/xlink" x="0px" y="0px" width="34.582px"
	 height="46.26px" viewBox="0 0 34.582 46.26" enable-background="new 0 0 34.582 46.26" xml:space="preserve">
<g id="Ebene_1_1_" xmlns:svg="http://www.w3.org/2000/svg">
	<polygon fill="#E6E6E6" points="27.207,46.26 34.582,43.891 34.582,39.725 0,39.725 0,43.891 7.375,46.26 	"/>
	<rect x="0" y="4.937" fill="#1A1A1A" width="34.582" height="36.12"/>
	<g id="silkscreen_1_">
		<rect x="15.802" y="3.416" fill="#CCCCCC" width="2.976" height="1.5"/>
		<rect x="23.002" y="3.416" fill="#CCCCCC" width="2.978" height="1.5"/>
		<rect x="8.601" y="3.416" fill="#CCCCCC" width="2.978" height="1.5"/>
	</g>
	<g id="silkscreen_2_">
		<rect x="15.802" fill="#E6E6E6" width="2.976" height="3.416"/>
		<rect x="23.002" fill="#E6E6E6" width="2.978" height="3.416"/>
		<rect x="8.601" fill="#E6E6E6" width="2.978" height="3.416"/>
	</g>
	<path d="M34.582,21.563c-2.002,0-3.625-1.623-3.625-3.625s1.623-3.625,3.625-3.625V21.563z"/>
	<path d="M0,14.312c2.002,0,3.625,1.624,3.625,3.625S2.002,21.563,0,21.563V14.312z"/>
	<g opacity="0.2">
		<polygon fill="#FFFFFF" points="34.582,43.521 27.207,45.891 7.375,45.891 0,43.521 0,43.891 7.375,46.26 27.207,46.26 
			34.582,43.891 		"/>
		<rect x="0" y="40.688" fill="#FFFFFF" width="34.582" height="0.369"/>
	</g>
	<rect x="0" y="4.917" opacity="0.2" fill="#FFFFFF" enable-background="new    " width="34.582" height="0.156"/>
	<rect x="15.802" y="3.26" opacity="0.2" enable-background="new    " width="2.976" height="0.156"/>
	<rect x="23.002" y="3.26" opacity="0.2" enable-background="new    " width="2.978" height="0.156"/>
	<rect x="8.601" y="3.26" opacity="0.2" enable-background="new    " width="2.978" height="0.156"/>
</g>
</svg>
