<?xml version="1.0" encoding="utf-8"?>
<!-- Generator: Adobe Illustrator 16.0.0, SVG Export Plug-In . SVG Version: 6.00 Build 0)  -->
<!DOCTYPE svg PUBLIC "-//W3C//DTD SVG 1.1//EN" "http://www.w3.org/Graphics/SVG/1.1/DTD/svg11.dtd">
<svg version="1.1" id="Ebene_1" xmlns:svg="http://www.w3.org/2000/svg"
	 xmlns="http://www.w3.org/2000/svg" xmlns:xlink="http://www.w3.org/1999/xlink" x="0px" y="0px" width="23.855px"
	 height="15.262px" viewBox="0 0 23.855 15.262" enable-background="new 0 0 23.855 15.262" xml:space="preserve">
<g>
	<rect x="19.29" y="10.318" fill="#DBD7D6" width="4.565" height="1.676"/>
	<rect y="10.318" fill="#DBD7D6" width="4.565" height="1.676"/>
	<rect x="2.667" y="10.648" fill="#9C9593" width="1.899" height="1.677"/>
	<rect x="19.29" y="10.648" fill="#9C9593" width="1.899" height="1.677"/>
	<rect x="19.29" y="4.32" fill="#DBD7D6" width="4.565" height="1.676"/>
	<rect y="4.32" fill="#DBD7D6" width="4.565" height="1.676"/>
	<rect x="4.911" y="10.648" fill="#DBD7D6" width="1.248" height="4.613"/>
	<rect x="8.98" y="10.648" fill="#DBD7D6" width="1.25" height="4.613"/>
	<rect x="17.525" y="10.648" fill="#DBD7D6" width="1.25" height="4.613"/>
	<rect x="2.667" y="3.96" fill="#9C9593" width="1.899" height="1.676"/>
	<rect x="19.29" y="3.96" fill="#9C9593" width="1.899" height="1.676"/>
	<rect x="2.667" y="3.96" fill="#A79F9E" width="1.899" height="0.145"/>
	<rect x="19.29" y="3.96" fill="#A79F9E" width="1.899" height="0.145"/>
	<rect x="2.667" y="12.179" fill="#A79F9E" width="1.899" height="0.146"/>
	<rect x="19.29" y="12.179" fill="#A79F9E" width="1.899" height="0.146"/>
	<path fill="#2D2B2A" d="M11.689,4.32H7.772V0.708C7.772,0.319,8.091,0,8.48,0h2.5c0.39,0,0.709,0.319,0.709,0.708V4.32z"/>
	<rect x="7.772" y="3.657" fill="#212020" width="3.917" height="0.663"/>
	<polygon fill="#C4BEBC" points="19.29,3.96 4.565,3.96 4.565,5.636 2.667,5.636 2.667,10.648 4.565,10.648 4.565,12.325 
		19.29,12.325 19.29,10.648 21.189,10.648 21.189,5.636 19.29,5.636 	"/>
	<g>
		<polygon fill="#CDC8C7" points="21.189,10.318 19.29,10.318 19.29,11.994 4.565,11.994 4.565,10.318 2.667,10.318 2.667,10.648 
			4.565,10.648 4.565,12.325 19.29,12.325 19.29,10.648 21.189,10.648 		"/>
	</g>
	<path fill="#4E4A4A" d="M11.689,0.928c0-0.39-0.319-0.708-0.709-0.708h-2.5c-0.389,0-0.708,0.319-0.708,0.708v-0.22
		C7.772,0.319,8.091,0,8.48,0h2.5c0.39,0,0.709,0.319,0.709,0.708V0.928z"/>
	<g>
		<polygon fill="#CDC8C7" points="2.667,5.958 4.565,5.958 4.565,4.282 19.29,4.282 19.29,5.958 21.189,5.958 21.189,5.627 
			19.29,5.627 19.29,3.951 4.565,3.951 4.565,5.627 2.667,5.627 		"/>
	</g>
</g>
</svg>
