<?xml version='1.0' encoding='utf-8'?>
<!DOCTYPE svg>
<!-- Generator: Adobe Illustrator 12.0.0, SVG Export Plug-In . SVG Version: 6.00 Build 51448)  -->
<svg xmlns="http://www.w3.org/2000/svg" version="1.1" xml:space="preserve" enable-background="new -0.26 -8.34 70.865 85.039"  xmlns:xml="http://www.w3.org/XML/1998/namespace" viewBox="0 0 70.865 85.039" gorn="0" id="Layer_1" overflow="visible" height="85.039" width="70.865">
    <desc >
        <referenceFile >DRV8825_schem.svg</referenceFile>
    </desc>
    <g transform="translate(0.26,8.34)" >
        <g >
            <g >
                <g >
                    <g >
                        <g transform="translate(0,-79.004003)" >
                            <g >
                                <g >
                                    <g >
                                        <g >
                                            <g >
                                                <g >
                                                    <g  gorn="0.1.0.0.0.0.0.0.0.0.0.0.0.0" id="layer1">
                                                        <rect fill="#FFFFFF" stroke-width="1"  gorn="0.1.0.0.0.0.0.0.0.0.0.0.0.0.0" x="10.848" stroke="#000000" id="rect3134" y="76.726" height="72" width="48.142"/>
                                                    </g>
                                                </g>
                                            </g>
                                        </g>
                                    </g>
                                </g>
                            </g>
                        </g>
                        <g transform="translate(0,-79.004003)" >
                            <g >
                                <g >
                                    <g >
                                        <g >
                                            <g >
                                                <g >
                                                    <g >
                                                        <g >
                                                            <g >
                                                                <g transform="translate(0.6904297,1.863209)" >
                                                                    <g >
                                                                        <g >
                                                                            <g >
                                                                                <g >
                                                                                    <g >
                                                                                        <g >
                                                                                            <g >
                                                                                                <path fill="#8C8C8C"  d="M15.441,81.038c0,0.115-0.085,0.172-0.253,0.172h-1.622v-2.668h1.622c0.168,0,0.253,0.056,0.253,0.168c0,0.115-0.085,0.172-0.253,0.172H13.94v0.828h0.506c0.166,0,0.252,0.056,0.252,0.168c0,0.115-0.086,0.172-0.252,0.172H13.94v0.82h1.248C15.356,80.87,15.441,80.926,15.441,81.038"/>
                                                                                                <path fill="#8C8C8C"  d="M18.026,81.21h-0.5l-1-2.056v1.828c0,0.148-0.061,0.228-0.187,0.228s-0.189-0.076-0.189-0.228v-2.44h0.499l1,2.08v-1.854c0-0.15,0.063-0.229,0.187-0.229c0.127,0,0.188,0.076,0.188,0.229L18.026,81.21"/>
                                                                                                <path fill="#8C8C8C"  d="M20.699,81.014c0,0.045-0.019,0.085-0.058,0.12c-0.034,0.032-0.078,0.048-0.128,0.048c-0.092,0-0.156-0.06-0.196-0.18l-0.132-0.4h-0.842l-0.128,0.4c-0.039,0.12-0.104,0.18-0.198,0.18c-0.051,0-0.095-0.016-0.133-0.048c-0.036-0.035-0.053-0.075-0.053-0.12c0-0.023,0.008-0.063,0.021-0.105l0.734-2.263c0.029-0.088,0.089-0.132,0.182-0.132s0.151,0.044,0.183,0.132l0.727,2.263C20.691,80.952,20.699,80.986,20.699,81.014 M20.08,80.262l-0.314-0.964l-0.31,0.964H20.08"/>
                                                                                                <path fill="#8C8C8C"  d="M23.323,80.477c0,0.209-0.07,0.379-0.218,0.515c-0.145,0.137-0.329,0.198-0.553,0.198h-1.105v-2.668h1.123c0.229,0,0.409,0.068,0.547,0.207c0.139,0.145,0.209,0.322,0.209,0.551c0,0.257-0.087,0.445-0.256,0.584c0.099,0.089,0.164,0.174,0.2,0.259C23.306,80.204,23.323,80.322,23.323,80.477 M22.947,79.266c0-0.27-0.137-0.402-0.411-0.402h-0.712v0.826h0.716C22.812,79.688,22.947,79.549,22.947,79.266 M22.947,80.436c0-0.271-0.14-0.406-0.417-0.406h-0.706v0.818h0.716C22.812,80.85,22.947,80.713,22.947,80.436"/>
                                                                                                <path fill="#8C8C8C"  d="M26.073,81.036c0,0.115-0.084,0.172-0.251,0.172h-1.617v-2.436c0-0.152,0.062-0.229,0.188-0.229c0.125,0,0.19,0.074,0.19,0.229v2.096h1.239C25.988,80.868,26.073,80.924,26.073,81.036"/>
                                                                                                <path fill="#8C8C8C"  d="M28.444,81.031c0,0.115-0.085,0.172-0.252,0.172h-1.625v-2.668h1.625c0.167,0,0.252,0.057,0.252,0.168c0,0.115-0.085,0.172-0.252,0.172h-1.247v0.828h0.505c0.166,0,0.252,0.059,0.252,0.168c0,0.115-0.086,0.172-0.252,0.172h-0.505v0.82h1.247C28.359,80.863,28.444,80.919,28.444,81.031"/>
                                                                                            </g>
                                                                                        </g>
                                                                                    </g>
                                                                                </g>
                                                                            </g>
                                                                        </g>
                                                                    </g>
                                                                </g>
                                                                <g transform="translate(0.71972661,1.6112559)" >
                                                                    <g >
                                                                        <g >
                                                                            <g >
                                                                                <g >
                                                                                    <g >
                                                                                        <g >
                                                                                            <g >
                                                                                                <path fill="#8C8C8C"  d="M15.445,90.482c0,0.148-0.063,0.228-0.191,0.228c-0.124,0-0.187-0.076-0.187-0.228V88.51l-0.375,0.484v0.032c0,0.148-0.063,0.228-0.188,0.228c-0.126,0-0.19-0.076-0.19-0.228v-0.032l-0.371-0.484v1.972c0,0.148-0.063,0.228-0.188,0.228c-0.126,0-0.189-0.076-0.189-0.228v-2.44h0.479l0.46,0.604l0.46-0.604h0.479L15.445,90.482"/>
                                                                                                <path fill="#8C8C8C"  d="M18.186,90.326c0,0.104-0.045,0.197-0.129,0.271c-0.083,0.075-0.187,0.112-0.307,0.112h-0.93c-0.135,0-0.254-0.042-0.357-0.128c-0.101-0.085-0.149-0.184-0.149-0.296c0-0.131,0.065-0.196,0.195-0.196c0.104,0,0.162,0.064,0.182,0.192c0.009,0.059,0.048,0.088,0.12,0.088h0.917c0.052,0,0.079-0.013,0.079-0.04c0-0.013-0.014-0.036-0.039-0.068l-1.358-1.584c-0.065-0.073-0.099-0.154-0.099-0.248c0-0.111,0.043-0.208,0.129-0.276c0.088-0.072,0.201-0.108,0.339-0.108h0.897c0.134,0,0.25,0.045,0.351,0.136c0.104,0.09,0.155,0.189,0.155,0.308c0,0.13-0.062,0.192-0.187,0.192c-0.113,0-0.177-0.063-0.19-0.188c-0.009-0.069-0.055-0.104-0.138-0.104H16.77c-0.056,0-0.08,0.02-0.08,0.049c0,0.019,0.01,0.035,0.031,0.063l1.358,1.584C18.149,90.156,18.186,90.24,18.186,90.326"/>
                                                                                                <path fill="#8C8C8C"  d="M20.931,90.526c0,0.123-0.061,0.184-0.178,0.184h-1.447c-0.169,0-0.251-0.057-0.251-0.172c0-0.112,0.083-0.168,0.251-0.168h0.495v-1.988h-0.495c-0.169,0-0.251-0.058-0.251-0.172c0-0.112,0.083-0.168,0.251-0.168h0.872v2.328h0.377v-0.646c0-0.146,0.063-0.224,0.189-0.224c0.125,0,0.188,0.075,0.188,0.224L20.931,90.526"/>
                                                                                            </g>
                                                                                        </g>
                                                                                    </g>
                                                                                </g>
                                                                            </g>
                                                                        </g>
                                                                    </g>
                                                                </g>
                                                                <g transform="translate(0.4697266,10.361256)" >
                                                                    <g >
                                                                        <g >
                                                                            <g >
                                                                                <g >
                                                                                    <g >
                                                                                        <g >
                                                                                            <g >
                                                                                                <path fill="#8C8C8C"  d="M15.417,90.482c0,0.148-0.063,0.228-0.189,0.228c-0.125,0-0.188-0.076-0.188-0.228V88.51l-0.375,0.484v0.032c0,0.148-0.063,0.228-0.187,0.228c-0.127,0-0.19-0.076-0.19-0.228v-0.032l-0.371-0.484v1.972c0,0.148-0.063,0.228-0.187,0.228c-0.128,0-0.191-0.076-0.191-0.228v-2.44h0.479l0.46,0.604l0.461-0.604h0.478V90.482"/>
                                                                                                <path fill="#8C8C8C"  d="M18.158,90.326c0,0.104-0.042,0.197-0.129,0.271c-0.083,0.075-0.185,0.112-0.304,0.112h-0.931c-0.136,0-0.256-0.042-0.358-0.128c-0.102-0.085-0.149-0.184-0.149-0.296c0-0.131,0.064-0.196,0.194-0.196c0.104,0,0.162,0.064,0.183,0.192c0.009,0.059,0.048,0.088,0.119,0.088H17.7c0.053,0,0.078-0.013,0.078-0.04c0-0.013-0.013-0.036-0.04-0.068l-1.358-1.584c-0.064-0.073-0.097-0.154-0.097-0.248c0-0.111,0.042-0.208,0.128-0.276c0.088-0.072,0.2-0.108,0.339-0.108h0.898c0.132,0,0.251,0.045,0.35,0.136c0.104,0.09,0.155,0.189,0.155,0.308c0,0.13-0.063,0.192-0.188,0.192c-0.112,0-0.176-0.063-0.19-0.188c-0.008-0.069-0.053-0.104-0.137-0.104h-0.897c-0.053,0-0.079,0.02-0.079,0.049c0,0.019,0.01,0.035,0.03,0.063l1.357,1.584C18.123,90.156,18.158,90.24,18.158,90.326"/>
                                                                                                <path fill="#8C8C8C"  d="M20.898,90.538c0,0.115-0.085,0.172-0.252,0.172h-1.625v-1.16c0-0.099,0.036-0.18,0.106-0.244c0.074-0.063,0.165-0.1,0.274-0.1h1.115v-0.824h-1.244c-0.169,0-0.252-0.058-0.252-0.172c0-0.112,0.084-0.168,0.252-0.168h1.244c0.108,0,0.199,0.035,0.271,0.104c0.072,0.064,0.109,0.148,0.109,0.253v0.808c0,0.099-0.037,0.182-0.109,0.248c-0.071,0.063-0.162,0.096-0.271,0.096h-1.115v0.82h1.243C20.814,90.37,20.898,90.426,20.898,90.538"/>
                                                                                            </g>
                                                                                        </g>
                                                                                    </g>
                                                                                </g>
                                                                            </g>
                                                                        </g>
                                                                    </g>
                                                                </g>
                                                                <g transform="translate(0.2197266,19.361256)" >
                                                                    <g >
                                                                        <g >
                                                                            <g >
                                                                                <g >
                                                                                    <g >
                                                                                        <g >
                                                                                            <g >
                                                                                                <path fill="#8C8C8C"  d="M15.391,90.482c0,0.148-0.063,0.228-0.188,0.228s-0.188-0.076-0.188-0.228V88.51l-0.377,0.484v0.032c0,0.148-0.063,0.228-0.187,0.228c-0.127,0-0.189-0.076-0.189-0.228v-0.032l-0.373-0.484v1.972c0,0.148-0.063,0.228-0.187,0.228c-0.127,0-0.188-0.076-0.188-0.228v-2.44h0.478l0.46,0.604l0.461-0.604h0.479V90.482"/>
                                                                                                <path fill="#8C8C8C"  d="M18.132,90.326c0,0.104-0.043,0.197-0.127,0.271c-0.084,0.075-0.187,0.112-0.304,0.112h-0.931c-0.138,0-0.255-0.042-0.358-0.128c-0.101-0.085-0.148-0.184-0.148-0.296c0-0.131,0.063-0.196,0.194-0.196c0.104,0,0.164,0.064,0.182,0.192c0.008,0.059,0.049,0.088,0.121,0.088h0.915c0.056,0,0.081-0.013,0.081-0.04c0-0.013-0.014-0.036-0.04-0.068l-1.358-1.584c-0.065-0.073-0.097-0.154-0.097-0.248c0-0.111,0.043-0.208,0.128-0.276c0.089-0.072,0.201-0.108,0.341-0.108h0.897c0.134,0,0.25,0.045,0.351,0.136c0.103,0.09,0.153,0.189,0.153,0.308c0,0.13-0.063,0.192-0.187,0.192c-0.112,0-0.176-0.063-0.191-0.188c-0.008-0.069-0.054-0.104-0.136-0.104h-0.899c-0.054,0-0.08,0.02-0.08,0.049c0,0.019,0.009,0.035,0.03,0.063l1.358,1.584C18.097,90.156,18.132,90.24,18.132,90.326"/>
                                                                                                <path fill="#8C8C8C"  d="M20.868,90.37c0,0.096-0.037,0.177-0.11,0.244c-0.072,0.063-0.163,0.096-0.271,0.096h-1.244c-0.166,0-0.252-0.057-0.252-0.172c0-0.112,0.086-0.168,0.252-0.168h1.244v-0.616c0-0.136-0.068-0.204-0.203-0.204h-0.663c-0.168,0-0.252-0.056-0.252-0.168c0-0.113,0.084-0.172,0.252-0.172h0.668c0.126,0,0.189-0.07,0.189-0.212v-0.616h-1.235c-0.167,0-0.252-0.058-0.252-0.172c0-0.112,0.086-0.168,0.252-0.168h1.244c0.1,0,0.187,0.029,0.262,0.088c0.075,0.063,0.11,0.128,0.11,0.208v0.744c0,0.115-0.048,0.213-0.142,0.296c0.099,0.101,0.15,0.215,0.15,0.35v0.646"/>
                                                                                            </g>
                                                                                        </g>
                                                                                    </g>
                                                                                </g>
                                                                            </g>
                                                                        </g>
                                                                    </g>
                                                                </g>
                                                                <g transform="translate(0.2197266,28.611256)" >
                                                                    <g >
                                                                        <g >
                                                                            <g >
                                                                                <g >
                                                                                    <g >
                                                                                        <g >
                                                                                            <g >
                                                                                                <path fill="#8C8C8C"  d="M15.396,90.546c0,0.043-0.019,0.082-0.057,0.116c-0.039,0.032-0.085,0.048-0.133,0.048c-0.067,0-0.132-0.039-0.189-0.115l-1.031-1.332h-0.09v1.226c0,0.146-0.063,0.229-0.187,0.229c-0.127,0-0.189-0.063-0.189-0.188V88.05h1.318c0.157,0,0.288,0.055,0.395,0.155c0.109,0.104,0.162,0.229,0.162,0.38v0.15c0,0.154-0.054,0.285-0.167,0.386c-0.109,0.099-0.25,0.146-0.425,0.146h-0.358l0.88,1.145C15.373,90.464,15.396,90.51,15.396,90.546 M15.02,88.727v-0.133c0-0.146-0.079-0.217-0.234-0.217h-0.891v0.539h0.891C14.94,88.923,15.02,88.858,15.02,88.727"/>
                                                                                                <path fill="#8C8C8C"  d="M18.132,90.538c0,0.115-0.084,0.172-0.252,0.172h-1.625v-2.668h1.625c0.168,0,0.252,0.057,0.252,0.168c0,0.115-0.084,0.172-0.252,0.172h-1.248v0.828h0.505c0.169,0,0.252,0.059,0.252,0.168c0,0.115-0.084,0.172-0.252,0.172h-0.505v0.82h1.248C18.048,90.37,18.132,90.426,18.132,90.538"/>
                                                                                                <path fill="#8C8C8C"  d="M20.872,90.326c0,0.104-0.042,0.197-0.128,0.271c-0.082,0.074-0.186,0.111-0.305,0.111h-0.931c-0.136,0-0.254-0.043-0.357-0.129C19.051,90.494,19,90.393,19,90.283c0-0.131,0.064-0.194,0.195-0.194c0.104,0,0.163,0.063,0.183,0.19c0.009,0.06,0.048,0.088,0.119,0.088h0.917c0.054,0,0.079-0.016,0.079-0.04c0-0.013-0.014-0.035-0.039-0.066l-1.358-1.584c-0.066-0.074-0.099-0.156-0.099-0.248c0-0.11,0.043-0.209,0.129-0.275c0.088-0.072,0.203-0.107,0.339-0.107h0.9c0.131,0,0.25,0.045,0.348,0.137c0.104,0.09,0.157,0.188,0.157,0.309c0,0.13-0.063,0.191-0.187,0.191c-0.114,0-0.177-0.063-0.191-0.188c-0.009-0.068-0.054-0.104-0.139-0.104h-0.897c-0.054,0-0.08,0.021-0.08,0.051c0,0.018,0.009,0.033,0.031,0.062l1.358,1.584C20.836,90.157,20.872,90.241,20.872,90.326"/>
                                                                                                <path fill="#8C8C8C"  d="M23.613,90.538c0,0.115-0.086,0.172-0.251,0.172h-1.625v-2.668h1.625c0.167,0,0.251,0.057,0.251,0.168c0,0.115-0.086,0.172-0.251,0.172h-1.247v0.828h0.504c0.168,0,0.251,0.059,0.251,0.168c0,0.115-0.083,0.172-0.251,0.172h-0.504v0.82h1.247C23.528,90.37,23.613,90.426,23.613,90.538"/>
                                                                                                <path fill="#8C8C8C"  d="M26.353,88.486c0,0.125-0.063,0.188-0.188,0.188s-0.189-0.076-0.189-0.229v-0.063H25.6v2.139c0,0.125-0.063,0.188-0.188,0.188c-0.126,0-0.188-0.076-0.188-0.229v-2.099h-0.372v0.067c0,0.146-0.063,0.226-0.188,0.226s-0.189-0.076-0.189-0.226v-0.407h1.877L26.353,88.486"/>
                                                                                            </g>
                                                                                        </g>
                                                                                    </g>
                                                                                </g>
                                                                            </g>
                                                                        </g>
                                                                    </g>
                                                                </g>
                                                                <g transform="translate(0.21972658,37.611256)" >
                                                                    <g >
                                                                        <g >
                                                                            <g >
                                                                                <g >
                                                                                    <g >
                                                                                        <g >
                                                                                            <g >
                                                                                                <path fill="#8C8C8C"  d="M15.391,90.326c0,0.104-0.043,0.197-0.127,0.271c-0.084,0.074-0.188,0.111-0.307,0.111h-0.929c-0.137,0-0.255-0.043-0.358-0.13c-0.101-0.085-0.148-0.188-0.148-0.296c0-0.131,0.065-0.193,0.193-0.193c0.104,0,0.164,0.063,0.183,0.189c0.012,0.061,0.051,0.088,0.121,0.088h0.915c0.055,0,0.081-0.016,0.081-0.04c0-0.013-0.016-0.034-0.04-0.065l-1.359-1.584c-0.065-0.074-0.097-0.156-0.097-0.248c0-0.111,0.042-0.209,0.127-0.276c0.089-0.072,0.202-0.108,0.341-0.108h0.897c0.134,0,0.25,0.045,0.351,0.137c0.104,0.09,0.155,0.189,0.155,0.31c0,0.13-0.063,0.19-0.187,0.19c-0.113,0-0.177-0.063-0.189-0.188c-0.011-0.067-0.056-0.104-0.138-0.104h-0.897c-0.055,0-0.081,0.021-0.081,0.051c0,0.019,0.013,0.033,0.031,0.063l1.358,1.584C15.355,90.157,15.391,90.241,15.391,90.326"/>
                                                                                                <path fill="#8C8C8C"  d="M18.127,90.538c0,0.115-0.084,0.172-0.251,0.172h-1.617v-2.436c0-0.152,0.062-0.229,0.188-0.229c0.125,0,0.19,0.074,0.19,0.229v2.096h1.239C18.042,90.37,18.127,90.426,18.127,90.538"/>
                                                                                                <path fill="#8C8C8C"  d="M20.872,90.538c0,0.115-0.084,0.172-0.251,0.172h-1.625v-2.668h1.625c0.168,0,0.251,0.057,0.251,0.168c0,0.115-0.084,0.172-0.251,0.172h-1.248v0.828h0.504c0.168,0,0.252,0.059,0.252,0.168c0,0.115-0.084,0.172-0.252,0.172h-0.504v0.82h1.248C20.788,90.37,20.872,90.426,20.872,90.538"/>
                                                                                                <path fill="#8C8C8C"  d="M23.613,90.538c0,0.115-0.086,0.172-0.251,0.172h-1.625v-2.668h1.625c0.167,0,0.251,0.057,0.251,0.168c0,0.115-0.086,0.172-0.251,0.172h-1.247v0.828h0.504c0.168,0,0.251,0.059,0.251,0.168c0,0.115-0.083,0.172-0.251,0.172h-0.504v0.82h1.247C23.528,90.37,23.613,90.426,23.613,90.538"/>
                                                                                                <path fill="#8C8C8C"  d="M26.357,89.135c0,0.18-0.056,0.313-0.164,0.412c-0.108,0.103-0.261,0.146-0.456,0.146h-0.885v0.783c0,0.146-0.062,0.225-0.188,0.225c-0.055,0-0.103-0.018-0.138-0.048c-0.034-0.032-0.053-0.079-0.053-0.132V88.04h1.311c0.169,0,0.307,0.049,0.409,0.146c0.105,0.1,0.161,0.229,0.161,0.396L26.357,89.135 M25.98,89.135v-0.553c0-0.137-0.076-0.203-0.229-0.203h-0.898v0.979h0.912C25.908,89.358,25.98,89.284,25.98,89.135"/>
                                                                                            </g>
                                                                                        </g>
                                                                                    </g>
                                                                                </g>
                                                                            </g>
                                                                        </g>
                                                                    </g>
                                                                </g>
                                                                <g transform="translate(0.31640627,46.611256)" >
                                                                    <g >
                                                                        <g >
                                                                            <g >
                                                                                <g >
                                                                                    <g >
                                                                                        <g >
                                                                                            <g >
                                                                                                <path fill="#8C8C8C"  d="M15.401,90.326c0,0.104-0.042,0.197-0.128,0.271c-0.083,0.075-0.186,0.112-0.304,0.112h-0.931c-0.137,0-0.254-0.043-0.357-0.13c-0.102-0.085-0.152-0.187-0.152-0.296c0-0.131,0.066-0.193,0.197-0.193c0.104,0,0.162,0.063,0.182,0.189c0.009,0.061,0.048,0.088,0.119,0.088h0.916c0.054,0,0.079-0.016,0.079-0.04c0-0.013-0.014-0.034-0.04-0.065l-1.357-1.584c-0.065-0.074-0.099-0.155-0.099-0.248c0-0.111,0.044-0.209,0.129-0.276c0.089-0.072,0.202-0.108,0.34-0.108h0.899c0.131,0,0.25,0.045,0.349,0.137c0.104,0.09,0.156,0.189,0.156,0.31c0,0.13-0.063,0.19-0.187,0.19c-0.114,0-0.177-0.063-0.191-0.188c-0.009-0.067-0.055-0.104-0.139-0.104h-0.896c-0.053,0-0.079,0.021-0.079,0.051c0,0.019,0.01,0.033,0.03,0.063l1.358,1.584C15.366,90.157,15.401,90.241,15.401,90.326"/>
                                                                                                <path fill="#8C8C8C"  d="M18.143,88.486c0,0.125-0.063,0.188-0.187,0.188c-0.128,0-0.191-0.076-0.191-0.229v-0.063H17.39v2.139c0,0.125-0.063,0.188-0.188,0.188c-0.125,0-0.189-0.076-0.189-0.229v-2.099H16.64v0.067c0,0.146-0.063,0.226-0.188,0.226c-0.126,0-0.189-0.076-0.189-0.226v-0.407h1.876v0.444"/>
                                                                                                <path fill="#8C8C8C"  d="M20.882,90.538c0,0.115-0.085,0.172-0.252,0.172h-1.625v-2.668h1.625c0.167,0,0.252,0.057,0.252,0.168c0,0.115-0.085,0.172-0.252,0.172h-1.247v0.828h0.505c0.166,0,0.252,0.059,0.252,0.168c0,0.115-0.086,0.172-0.252,0.172h-0.505v0.82h1.247C20.797,90.37,20.882,90.426,20.882,90.538"/>
                                                                                                <path fill="#8C8C8C"  d="M23.627,89.135c0,0.18-0.054,0.313-0.164,0.412c-0.109,0.104-0.262,0.146-0.457,0.146h-0.885v0.783c0,0.146-0.062,0.225-0.187,0.225c-0.056,0-0.103-0.018-0.138-0.048c-0.035-0.032-0.054-0.079-0.054-0.132V88.04h1.312c0.169,0,0.306,0.049,0.409,0.146c0.105,0.1,0.161,0.229,0.161,0.396L23.627,89.135 M23.251,89.135v-0.553c0-0.137-0.077-0.203-0.229-0.203h-0.898v0.979h0.912C23.178,89.358,23.251,89.284,23.251,89.135"/>
                                                                                            </g>
                                                                                        </g>
                                                                                    </g>
                                                                                </g>
                                                                            </g>
                                                                        </g>
                                                                    </g>
                                                                </g>
                                                                <g transform="translate(0.3164063,55.111256)" >
                                                                    <g >
                                                                        <g >
                                                                            <g >
                                                                                <g >
                                                                                    <g >
                                                                                        <g >
                                                                                            <g >
                                                                                                <path fill="#8C8C8C"  d="M15.397,89.366c0,0.133-0.029,0.254-0.089,0.355l-0.387,0.701c-0.102,0.188-0.278,0.283-0.534,0.283h-0.615c-0.167,0-0.252-0.059-0.252-0.174c0-0.109,0.085-0.168,0.252-0.168h0.125V88.38h-0.125c-0.167,0-0.252-0.059-0.252-0.172c0-0.111,0.085-0.168,0.252-0.168h0.651c0.23,0,0.4,0.1,0.511,0.301l0.371,0.688C15.366,89.137,15.397,89.255,15.397,89.366 M15.021,89.378c0-0.063-0.024-0.141-0.075-0.229l-0.357-0.652c-0.039-0.071-0.104-0.106-0.194-0.106h-0.12v1.986h0.128c0.091,0,0.156-0.035,0.195-0.104l0.374-0.688C15.003,89.507,15.021,89.442,15.021,89.378"/>
                                                                                                <path fill="#8C8C8C"  d="M17.768,90.538c0,0.115-0.085,0.172-0.252,0.172h-1.365c-0.167,0-0.252-0.057-0.252-0.172c0-0.111,0.085-0.168,0.252-0.168h0.492v-1.988h-0.501c-0.167,0-0.251-0.057-0.251-0.172c0-0.111,0.084-0.168,0.251-0.168h1.374c0.166,0,0.251,0.057,0.251,0.168c0,0.115-0.085,0.172-0.251,0.172h-0.497v1.988h0.497C17.683,90.37,17.768,90.426,17.768,90.538"/>
                                                                                                <path fill="#8C8C8C"  d="M20.387,90.546c0,0.043-0.021,0.082-0.059,0.116c-0.038,0.032-0.083,0.048-0.133,0.048c-0.066,0-0.13-0.039-0.189-0.115l-1.03-1.332h-0.089v1.226c0,0.146-0.063,0.229-0.188,0.229c-0.126,0-0.19-0.063-0.19-0.188V88.05h1.319c0.156,0,0.288,0.055,0.395,0.155c0.108,0.104,0.164,0.229,0.164,0.38v0.15c0,0.154-0.056,0.285-0.168,0.386c-0.109,0.099-0.25,0.146-0.426,0.146h-0.356l0.881,1.145C20.363,90.464,20.387,90.51,20.387,90.546 M20.011,88.727v-0.133c0-0.146-0.079-0.217-0.233-0.217h-0.89v0.539h0.89C19.931,88.923,20.011,88.858,20.011,88.727"/>
                                                                                                <path fill="#8C8C8C"  d="M22.898,90.538c0,0.115-0.085,0.172-0.252,0.172h-1.625v-2.668h1.625c0.167,0,0.252,0.057,0.252,0.168c0,0.115-0.085,0.172-0.252,0.172h-1.247v0.828h0.505c0.166,0,0.252,0.059,0.252,0.168c0,0.115-0.086,0.172-0.252,0.172h-0.505v0.82h1.247C22.813,90.37,22.898,90.426,22.898,90.538"/>
                                                                                                <path fill="#8C8C8C"  d="M23.176,89.38c0-0.133,0.029-0.254,0.089-0.355l0.387-0.701c0.102-0.188,0.278-0.283,0.534-0.283h0.615c0.167,0,0.252,0.059,0.252,0.174c0,0.109-0.085,0.168-0.252,0.168l-0.606,0.007l0.008,1.986l0.599-0.009c0.167,0,0.252,0.059,0.252,0.172c0,0.111-0.085,0.168-0.252,0.168H24.15c-0.23,0-0.4-0.1-0.511-0.301l-0.371-0.688C23.208,89.608,23.176,89.491,23.176,89.38"/>
                                                                                                <path fill="#FFFFFF"  d="M23.576,89.386c0,0.063,0.024,0.141,0.075,0.229l0.357,0.652c0.039,0.071,0.104,0.106,0.194,0.106l0.474-0.009v-1.984l-0.481,0.007c-0.091,0-0.156,0.035-0.195,0.104l-0.374,0.688C23.593,89.258,23.576,89.322,23.576,89.386"/>
                                                                                                <path fill="#8C8C8C"  d="M27.456,88.486c0,0.125-0.063,0.188-0.187,0.188c-0.128,0-0.191-0.076-0.191-0.229v-0.063h-0.375v2.139c0,0.125-0.063,0.188-0.188,0.188c-0.125,0-0.189-0.076-0.189-0.229v-2.099h-0.372v0.067c0,0.146-0.063,0.226-0.188,0.226c-0.126,0-0.189-0.076-0.189-0.226v-0.407h1.876v0.444"/>
                                                                                                <path fill="#8C8C8C"  d="M29.799,90.538c0,0.115-0.085,0.172-0.252,0.172h-1.365c-0.167,0-0.252-0.057-0.252-0.172c0-0.111,0.085-0.168,0.252-0.168h0.492v-1.988h-0.501c-0.167,0-0.251-0.057-0.251-0.172c0-0.111,0.084-0.168,0.251-0.168h1.374c0.166,0,0.251,0.057,0.251,0.168c0,0.115-0.085,0.172-0.251,0.172H29.05v1.988h0.497C29.714,90.37,29.799,90.426,29.799,90.538"/>
                                                                                                <path fill="#8C8C8C"  d="M32.019,89.417c0,0.123-0.033,0.248-0.104,0.376l-0.391,0.708c-0.039,0.07-0.102,0.132-0.186,0.18c-0.082,0.045-0.163,0.068-0.255,0.068c-0.204,0-0.354-0.087-0.449-0.262l-0.395-0.708c-0.064-0.115-0.099-0.238-0.099-0.366c0-0.12,0.028-0.231,0.083-0.332l0.41-0.744c0.094-0.171,0.245-0.256,0.453-0.256c0.087,0,0.169,0.021,0.249,0.064c0.084,0.045,0.145,0.104,0.184,0.172l0.419,0.764C31.994,89.177,32.019,89.289,32.019,89.417 M31.643,89.413c0-0.069-0.023-0.147-0.071-0.232l-0.385-0.696c-0.021-0.038-0.056-0.06-0.104-0.06c-0.055,0-0.091,0.021-0.112,0.06l-0.378,0.688c-0.049,0.091-0.071,0.173-0.071,0.248c0,0.063,0.022,0.146,0.071,0.239l0.37,0.669c0.025,0.054,0.069,0.078,0.122,0.078c0.047,0,0.08-0.021,0.107-0.066l0.401-0.726C31.628,89.553,31.643,89.487,31.643,89.413"/>
                                                                                                <path fill="#8C8C8C"  d="M34.494,90.774h-0.5l-1-2.056v1.828c0,0.148-0.061,0.228-0.187,0.228s-0.189-0.076-0.189-0.228v-2.44h0.499l1,2.08v-1.854c0-0.15,0.063-0.229,0.187-0.229c0.127,0,0.188,0.076,0.188,0.229L34.494,90.774"/>
                                                                                            </g>
                                                                                        </g>
                                                                                    </g>
                                                                                </g>
                                                                            </g>
                                                                        </g>
                                                                    </g>
                                                                </g>
                                                                <g >
                                                                    <path fill="#8C8C8C"  d="M47.075,80.886c0,0.063-0.016,0.116-0.034,0.175l-0.724,1.688c-0.029,0.075-0.091,0.112-0.175,0.112c-0.089,0-0.152-0.038-0.182-0.112l-0.729-1.688c-0.009-0.019-0.015-0.027-0.015-0.035c-0.018-0.032-0.022-0.078-0.022-0.14V80.42c0-0.149,0.063-0.228,0.191-0.228c0.122,0,0.187,0.074,0.187,0.228v0.492l0.562,1.308l0.563-1.308v-0.496c0-0.147,0.063-0.224,0.191-0.224c0.123,0,0.188,0.073,0.188,0.224L47.075,80.886"/>
                                                                    <path fill="#8C8C8C"  d="M49.814,82.632c0,0.152-0.063,0.229-0.19,0.229c-0.124,0-0.188-0.076-0.188-0.229v-1.968l-0.375,0.484v0.028c0,0.152-0.063,0.229-0.188,0.229s-0.188-0.076-0.188-0.229v-0.028l-0.374-0.484v1.968c0,0.152-0.063,0.229-0.187,0.229c-0.127,0-0.19-0.076-0.19-0.229v-2.438h0.479l0.46,0.604l0.46-0.604h0.479L49.814,82.632"/>
                                                                    <path fill="#8C8C8C"  d="M52.554,81.528c0,0.123-0.033,0.248-0.104,0.376l-0.391,0.708c-0.039,0.07-0.102,0.132-0.186,0.18c-0.082,0.045-0.163,0.068-0.255,0.068c-0.204,0-0.354-0.087-0.449-0.262l-0.395-0.708c-0.064-0.115-0.099-0.238-0.099-0.366c0-0.12,0.028-0.231,0.083-0.332l0.41-0.744c0.094-0.171,0.245-0.256,0.453-0.256c0.087,0,0.169,0.021,0.249,0.064c0.084,0.045,0.145,0.104,0.184,0.172l0.419,0.764C52.529,81.288,52.554,81.4,52.554,81.528 M52.178,81.524c0-0.069-0.023-0.147-0.071-0.232l-0.385-0.696c-0.021-0.038-0.056-0.06-0.104-0.06c-0.055,0-0.091,0.021-0.112,0.06l-0.378,0.688c-0.049,0.091-0.071,0.173-0.071,0.248c0,0.063,0.022,0.146,0.071,0.239l0.37,0.669c0.025,0.054,0.069,0.078,0.122,0.078c0.047,0,0.08-0.021,0.107-0.066l0.401-0.726C52.164,81.665,52.178,81.598,52.178,81.524"/>
                                                                    <path fill="#8C8C8C"  d="M55.294,80.634c0,0.125-0.061,0.188-0.187,0.188s-0.189-0.076-0.189-0.229v-0.063h-0.376v2.136c0,0.125-0.063,0.188-0.187,0.188c-0.127,0-0.188-0.076-0.188-0.229V80.53h-0.374v0.065c0,0.148-0.063,0.227-0.187,0.227c-0.128,0-0.19-0.075-0.19-0.227V80.19h1.875v0.44"/>
                                                                </g>
                                                                <g >
                                                                    <path fill="#8C8C8C"  d="M46.916,91.32c0,0.133-0.054,0.25-0.165,0.348c-0.11,0.1-0.244,0.148-0.394,0.148H45.61c-0.16,0-0.301-0.051-0.409-0.148c-0.106-0.099-0.16-0.222-0.16-0.368V90.36c0-0.152,0.063-0.295,0.173-0.432l0.501-0.584c0.115-0.133,0.269-0.196,0.46-0.196h0.486c0.168,0,0.251,0.056,0.251,0.168c0,0.111-0.083,0.172-0.251,0.172h-0.438c-0.073,0-0.12,0.005-0.146,0.016c-0.021,0.008-0.056,0.039-0.099,0.092l-0.472,0.552c-0.061,0.068-0.093,0.154-0.093,0.26v0.868c0,0.136,0.074,0.203,0.227,0.203h0.692c0.14,0,0.207-0.067,0.207-0.203V90.95h-0.313c-0.168,0-0.252-0.057-0.252-0.168c0-0.115,0.083-0.172,0.252-0.172h0.69V91.32"/>
                                                                    <path fill="#8C8C8C"  d="M49.651,91.816h-0.5l-1.001-2.059v1.828c0,0.152-0.063,0.229-0.187,0.229c-0.125,0-0.189-0.076-0.189-0.229v-2.438h0.502l0.998,2.08v-1.854c0-0.152,0.063-0.228,0.188-0.228s0.189,0.072,0.189,0.228V91.816"/>
                                                                    <path fill="#8C8C8C"  d="M52.388,90.47c0,0.137-0.029,0.255-0.091,0.36l-0.385,0.7c-0.104,0.188-0.28,0.284-0.534,0.284h-0.616c-0.166,0-0.255-0.062-0.255-0.172c0-0.112,0.088-0.17,0.255-0.17h0.125v-1.986h-0.125c-0.166,0-0.255-0.061-0.255-0.172c0-0.112,0.088-0.168,0.255-0.168h0.65c0.231,0,0.399,0.1,0.511,0.3l0.371,0.684C52.356,90.247,52.388,90.36,52.388,90.47 M52.011,90.484c0-0.064-0.022-0.146-0.074-0.232l-0.357-0.656c-0.039-0.068-0.104-0.104-0.195-0.104h-0.12v1.987h0.129c0.089,0,0.155-0.035,0.193-0.107l0.374-0.688C51.994,90.613,52.011,90.548,52.011,90.484"/>
                                                                    <path fill="#8C8C8C"  d="M55.578,91.63c0,0.122-0.061,0.184-0.18,0.184h-1.444c-0.168,0-0.254-0.057-0.254-0.172c0-0.106,0.086-0.168,0.254-0.168h0.494v-1.986h-0.494c-0.168,0-0.254-0.059-0.254-0.174c0-0.106,0.086-0.168,0.254-0.168h0.872v2.328h0.375v-0.645c0-0.148,0.064-0.229,0.189-0.229s0.188,0.076,0.188,0.229V91.63"/>
                                                                </g>
                                                                <g >
                                                                    <path fill="#8C8C8C"  d="M52.535,100.644c0,0.11-0.084,0.172-0.252,0.172h-1.625v-1.16c0-0.103,0.032-0.182,0.105-0.244c0.072-0.066,0.166-0.1,0.272-0.1h1.116v-0.824H50.91c-0.166,0-0.252-0.061-0.252-0.172c0-0.112,0.084-0.168,0.252-0.168h1.244c0.109,0,0.198,0.031,0.27,0.104c0.073,0.066,0.111,0.15,0.111,0.252v0.812c0,0.099-0.035,0.181-0.111,0.247c-0.069,0.063-0.161,0.097-0.27,0.097h-1.116v0.819h1.245C52.452,100.474,52.535,100.532,52.535,100.644"/>
                                                                    <path fill="#8C8C8C"  d="M55.277,100.104c0,0.208-0.07,0.378-0.216,0.512c-0.145,0.134-0.328,0.2-0.554,0.2h-1.105v-2.668h1.126c0.228,0,0.407,0.065,0.542,0.208c0.141,0.139,0.207,0.317,0.207,0.548c0,0.253-0.079,0.447-0.252,0.584c0.1,0.085,0.162,0.171,0.199,0.256S55.277,99.949,55.277,100.104 M54.902,98.89c0-0.271-0.135-0.402-0.409-0.402h-0.715v0.828h0.719C54.769,99.316,54.902,99.174,54.902,98.89 M54.902,100.064c0-0.272-0.139-0.408-0.412-0.408h-0.712v0.818h0.719C54.769,100.474,54.902,100.339,54.902,100.064"/>
                                                                </g>
                                                                <g >
                                                                    <path fill="#8C8C8C"  d="M52.271,109.923c0,0.114-0.086,0.172-0.255,0.172h-1.623v-1.157c0-0.102,0.035-0.183,0.105-0.243c0.072-0.066,0.163-0.104,0.274-0.104h1.114v-0.822h-1.243c-0.168,0-0.253-0.059-0.253-0.174c0-0.108,0.083-0.168,0.253-0.168h1.243c0.109,0,0.196,0.035,0.27,0.104c0.074,0.063,0.11,0.146,0.11,0.252v0.808c0,0.103-0.036,0.185-0.11,0.248c-0.071,0.063-0.16,0.099-0.27,0.099h-1.114v0.817h1.241C52.186,109.754,52.271,109.809,52.271,109.923"/>
                                                                    <path fill="#8C8C8C"  d="M55.006,109.928c0,0.047-0.02,0.087-0.057,0.12c-0.035,0.032-0.08,0.05-0.129,0.05c-0.089,0-0.155-0.062-0.194-0.182l-0.134-0.397h-0.842l-0.125,0.397c-0.039,0.12-0.105,0.182-0.197,0.182c-0.055,0-0.1-0.018-0.136-0.05c-0.034-0.033-0.053-0.073-0.053-0.12c0-0.023,0.008-0.063,0.021-0.104l0.731-2.26c0.026-0.09,0.09-0.136,0.184-0.136c0.091,0,0.151,0.046,0.182,0.136l0.729,2.26C54.998,109.868,55.006,109.903,55.006,109.928 M54.386,109.176l-0.313-0.964l-0.309,0.964H54.386"/>
                                                                </g>
                                                                <g >
                                                                    <path fill="#8C8C8C"  d="M52.55,119.411c0,0.122-0.056,0.184-0.176,0.184H50.93c-0.168,0-0.252-0.057-0.252-0.172c0-0.106,0.084-0.168,0.252-0.168h0.494v-1.985H50.93c-0.168,0-0.252-0.06-0.252-0.175c0-0.106,0.084-0.168,0.252-0.168h0.87v2.328h0.376v-0.645c0-0.148,0.066-0.229,0.19-0.229c0.125,0,0.187,0.076,0.187,0.229L52.55,119.411"/>
                                                                    <path fill="#8C8C8C"  d="M55.283,119.428c0,0.047-0.02,0.088-0.059,0.119c-0.035,0.033-0.079,0.051-0.127,0.051c-0.092,0-0.156-0.063-0.195-0.182l-0.133-0.397h-0.842l-0.128,0.397c-0.04,0.119-0.104,0.182-0.196,0.182c-0.056,0-0.099-0.018-0.134-0.051c-0.035-0.031-0.055-0.072-0.055-0.119c0-0.023,0.009-0.063,0.021-0.104l0.733-2.261c0.027-0.091,0.089-0.136,0.183-0.136c0.09,0,0.15,0.045,0.183,0.136l0.727,2.261C55.273,119.368,55.283,119.403,55.283,119.428 M54.664,118.676l-0.313-0.965l-0.309,0.965H54.664"/>
                                                                </g>
                                                                <g >
                                                                    <path fill="#8C8C8C"  d="M52.275,128.661c0,0.122-0.061,0.184-0.179,0.184h-1.445c-0.168,0-0.253-0.057-0.253-0.172c0-0.106,0.085-0.168,0.253-0.168h0.495v-1.986h-0.495c-0.168,0-0.253-0.059-0.253-0.174c0-0.106,0.085-0.168,0.253-0.168h0.872v2.328h0.375v-0.645c0-0.148,0.064-0.229,0.189-0.229s0.188,0.076,0.188,0.229L52.275,128.661"/>
                                                                    <path fill="#8C8C8C"  d="M55.014,128.132c0,0.209-0.07,0.379-0.218,0.515c-0.145,0.137-0.329,0.198-0.553,0.198h-1.105v-2.668h1.123c0.229,0,0.409,0.068,0.547,0.207c0.139,0.145,0.209,0.322,0.209,0.551c0,0.257-0.087,0.445-0.256,0.584c0.099,0.089,0.164,0.174,0.2,0.259C54.998,127.858,55.014,127.976,55.014,128.132 M54.638,126.921c0-0.27-0.137-0.402-0.411-0.402h-0.712v0.826h0.716C54.503,127.342,54.638,127.203,54.638,126.921 M54.638,128.091c0-0.271-0.14-0.406-0.417-0.406h-0.706v0.818h0.716C54.503,128.505,54.638,128.367,54.638,128.091"/>
                                                                </g>
                                                                <g >
                                                                    <path fill="#8C8C8C"  d="M50.503,135.372c0,0.061-0.011,0.117-0.033,0.172l-0.721,1.688c-0.03,0.071-0.092,0.108-0.179,0.108c-0.088,0-0.148-0.037-0.182-0.108l-0.727-1.688c-0.009-0.016-0.016-0.025-0.016-0.035c-0.017-0.026-0.023-0.078-0.023-0.137v-0.467c0-0.152,0.064-0.229,0.193-0.229c0.121,0,0.187,0.076,0.187,0.229v0.491l0.563,1.308l0.563-1.308V134.9c0-0.149,0.063-0.228,0.189-0.228c0.123,0,0.188,0.074,0.188,0.228v0.472"/>
                                                                    <path fill="#8C8C8C"  d="M53.24,136.001c0,0.133-0.029,0.254-0.091,0.359l-0.385,0.697c-0.104,0.188-0.282,0.283-0.536,0.283h-0.615c-0.168,0-0.254-0.06-0.254-0.172c0-0.111,0.084-0.168,0.254-0.168h0.125v-1.986h-0.125c-0.168,0-0.254-0.059-0.254-0.174c0-0.108,0.084-0.168,0.254-0.168h0.649c0.231,0,0.401,0.104,0.513,0.301l0.372,0.688C53.209,135.775,53.24,135.885,53.24,136.001 M52.865,136.01c0-0.063-0.027-0.144-0.076-0.229l-0.358-0.656c-0.036-0.07-0.104-0.104-0.195-0.104h-0.119v1.985h0.128c0.09,0,0.157-0.035,0.193-0.104l0.374-0.688C52.847,136.139,52.865,136.077,52.865,136.01"/>
                                                                    <path fill="#8C8C8C"  d="M55.979,136.001c0,0.133-0.027,0.254-0.088,0.359l-0.387,0.697c-0.104,0.188-0.28,0.283-0.534,0.283h-0.615c-0.168,0-0.251-0.06-0.251-0.172c0-0.111,0.082-0.168,0.251-0.168h0.124v-1.986h-0.124c-0.168,0-0.251-0.059-0.251-0.174c0-0.108,0.082-0.168,0.251-0.168h0.648c0.231,0,0.399,0.104,0.512,0.301l0.373,0.688C55.951,135.775,55.979,135.885,55.979,136.001 M55.604,136.01c0-0.063-0.024-0.144-0.075-0.229l-0.358-0.656c-0.034-0.07-0.103-0.104-0.194-0.104h-0.117v1.985h0.125c0.093,0,0.159-0.035,0.196-0.104l0.37-0.688C55.586,136.139,55.604,136.077,55.604,136.01"/>
                                                                </g>
                                                                <g >
                                                                    <path fill="#8C8C8C"  d="M46.984,145.114c0,0.133-0.056,0.249-0.169,0.348c-0.11,0.104-0.24,0.148-0.392,0.148h-0.751c-0.159,0-0.298-0.049-0.403-0.148c-0.108-0.099-0.161-0.221-0.161-0.367v-0.938c0-0.149,0.059-0.295,0.173-0.433l0.501-0.584c0.112-0.135,0.269-0.195,0.46-0.195h0.484c0.165,0,0.253,0.057,0.253,0.168s-0.085,0.172-0.253,0.172h-0.438c-0.074,0-0.121,0.006-0.146,0.018c-0.021,0.012-0.055,0.039-0.101,0.096l-0.469,0.549c-0.063,0.07-0.092,0.157-0.092,0.26v0.868c0,0.136,0.072,0.204,0.221,0.204h0.694c0.14,0,0.209-0.068,0.209-0.204v-0.323h-0.313c-0.164,0-0.254-0.057-0.254-0.169c0-0.114,0.086-0.172,0.254-0.172h0.69L46.984,145.114"/>
                                                                    <path fill="#8C8C8C"  d="M49.719,145.61h-0.498l-0.998-2.061v1.828c0,0.15-0.063,0.229-0.188,0.229c-0.126,0-0.188-0.076-0.188-0.229v-2.438h0.495l1,2.08v-1.854c0-0.149,0.063-0.229,0.188-0.229c0.128,0,0.189,0.071,0.189,0.229V145.61"/>
                                                                    <path fill="#8C8C8C"  d="M52.456,144.264c0,0.135-0.028,0.255-0.088,0.357l-0.387,0.698c-0.104,0.188-0.281,0.284-0.535,0.284h-0.614c-0.168,0-0.255-0.063-0.255-0.175c0-0.109,0.084-0.171,0.255-0.171h0.122v-1.982h-0.122c-0.168,0-0.255-0.063-0.255-0.172c0-0.111,0.084-0.168,0.255-0.168h0.649c0.229,0,0.398,0.102,0.511,0.3l0.373,0.687C52.425,144.042,52.456,144.154,52.456,144.264 M52.081,144.278c0-0.064-0.024-0.146-0.077-0.232l-0.357-0.654c-0.036-0.067-0.103-0.104-0.193-0.104h-0.119v1.988h0.126c0.093,0,0.159-0.036,0.195-0.107l0.372-0.688C52.062,144.407,52.081,144.341,52.081,144.278"/>
                                                                    <path fill="#8C8C8C"  d="M55.687,145.506c0,0.114-0.086,0.172-0.255,0.172h-1.623v-1.157c0-0.102,0.035-0.183,0.105-0.243c0.072-0.066,0.163-0.104,0.274-0.104h1.114v-0.822H54.06c-0.168,0-0.253-0.059-0.253-0.174c0-0.108,0.083-0.168,0.253-0.168h1.243c0.109,0,0.196,0.035,0.27,0.104c0.074,0.063,0.11,0.146,0.11,0.252v0.808c0,0.103-0.036,0.185-0.11,0.248c-0.071,0.063-0.16,0.099-0.27,0.099h-1.114v0.817h1.241C55.602,145.337,55.687,145.392,55.687,145.506"/>
                                                                </g>
                                                            </g>
                                                        </g>
                                                    </g>
                                                </g>
                                            </g>
                                        </g>
                                    </g>
                                </g>
                            </g>
                        </g>
                        <g  gorn="0.1.0.0.0.0.2" id="schematic">
                            <line fill="none" y2="2.382" stroke-width="0.7" x1="59.189" x2="66.187" stroke-linejoin="round"  gorn="0.1.0.0.0.0.2.0" stroke="#000000" id="connector0pin" stroke-linecap="round" y1="2.382"/>
                            <line fill="none" y2="2.382" stroke-width="0.7" x1="68.95" x2="63.646" stroke-linejoin="round"  gorn="0.1.0.0.0.0.2.1" stroke="#FF0000" id="connector140" stroke-linecap="round" y1="2.382"/>
                            <g transform="matrix(0.7927 0 0 1 66.1938 0.8482)" >
                                <g >
                                    <g >
                                        <g >
                                            <text fill="#8C8C8C"  font-family="Droid Sans" font-size="3.1539">8</text>
                                        </g>
                                    </g>
                                </g>
                            </g>
                            <line fill="none" y2="11.468" stroke-width="0.7" x1="59.189" x2="66.187" stroke-linejoin="round"  gorn="0.1.0.0.0.0.2.3" stroke="#000000" id="connector1pin" stroke-linecap="round" y1="11.468"/>
                            <line fill="none" y2="11.468" stroke-width="0.7" x1="68.95" x2="63.646" stroke-linejoin="round"  gorn="0.1.0.0.0.0.2.4" stroke="#FF0000" id="connector141" stroke-linecap="round" y1="11.468"/>
                            <g transform="matrix(0.7927 0 0 1 66.1938 9.9322)" >
                                <g >
                                    <g >
                                        <g >
                                            <text fill="#8C8C8C"  font-family="Droid Sans" font-size="3.1539">7</text>
                                        </g>
                                    </g>
                                </g>
                            </g>
                            <line fill="none" y2="20.551" stroke-width="0.7" x1="59.189" x2="66.187" stroke-linejoin="round"  gorn="0.1.0.0.0.0.2.6" stroke="#000000" id="connector2pin" stroke-linecap="round" y1="20.551"/>
                            <line fill="none" y2="20.551" stroke-width="0.7" x1="68.95" x2="63.646" stroke-linejoin="round"  gorn="0.1.0.0.0.0.2.7" stroke="#FF0000" id="connector142" stroke-linecap="round" y1="20.551"/>
                            <g transform="matrix(0.7927 0 0 1 66.1938 19.0143)" >
                                <g >
                                    <g >
                                        <g >
                                            <text fill="#8C8C8C"  font-family="Droid Sans" font-size="3.1539">6</text>
                                        </g>
                                    </g>
                                </g>
                            </g>
                            <line fill="none" y2="29.635" stroke-width="0.7" x1="59.189" x2="66.187" stroke-linejoin="round"  gorn="0.1.0.0.0.0.2.9" stroke="#000000" id="connector3pin" stroke-linecap="round" y1="29.635"/>
                            <line fill="none" y2="29.635" stroke-width="0.7" x1="68.95" x2="63.646" stroke-linejoin="round"  gorn="0.1.0.0.0.0.2.10" stroke="#FF0000" id="connector143" stroke-linecap="round" y1="29.635"/>
                            <g transform="matrix(0.7927 0 0 1 66.1938 28.0963)" >
                                <g >
                                    <g >
                                        <g >
                                            <text fill="#8C8C8C"  font-family="Droid Sans" font-size="3.1539">5</text>
                                        </g>
                                    </g>
                                </g>
                            </g>
                            <line fill="none" y2="38.715" stroke-width="0.7" x1="59.189" x2="66.187" stroke-linejoin="round"  gorn="0.1.0.0.0.0.2.12" stroke="#000000" id="connector4pin" stroke-linecap="round" y1="38.715"/>
                            <line fill="none" y2="38.715" stroke-width="0.7" x1="68.95" x2="63.646" stroke-linejoin="round"  gorn="0.1.0.0.0.0.2.13" stroke="#FF0000" id="connector144" stroke-linecap="round" y1="38.715"/>
                            <g transform="matrix(0.7927 0 0 1 66.1938 37.1803)" >
                                <g >
                                    <g >
                                        <g >
                                            <text fill="#8C8C8C"  font-family="Droid Sans" font-size="3.1539">4</text>
                                        </g>
                                    </g>
                                </g>
                            </g>
                            <line fill="none" y2="47.801" stroke-width="0.7" x1="59.189" x2="66.187" stroke-linejoin="round"  gorn="0.1.0.0.0.0.2.15" stroke="#000000" id="connector5pin" stroke-linecap="round" y1="47.801"/>
                            <line fill="none" y2="47.801" stroke-width="0.7" x1="68.95" x2="63.646" stroke-linejoin="round"  gorn="0.1.0.0.0.0.2.16" stroke="#FF0000" id="connector145" stroke-linecap="round" y1="47.801"/>
                            <g transform="matrix(0.7927 0 0 1 66.1938 46.2643)" >
                                <g >
                                    <g >
                                        <g >
                                            <text fill="#8C8C8C"  font-family="Droid Sans" font-size="3.1539">3</text>
                                        </g>
                                    </g>
                                </g>
                            </g>
                            <line fill="none" y2="56.881" stroke-width="0.7" x1="59.189" x2="66.187" stroke-linejoin="round"  gorn="0.1.0.0.0.0.2.18" stroke="#000000" id="connector6pin" stroke-linecap="round" y1="56.881"/>
                            <line fill="none" y2="56.881" stroke-width="0.7" x1="68.95" x2="63.646" stroke-linejoin="round"  gorn="0.1.0.0.0.0.2.19" stroke="#FF0000" id="connector146" stroke-linecap="round" y1="56.881"/>
                            <g transform="matrix(0.7927 0 0 1 66.1938 55.3492)" >
                                <g >
                                    <g >
                                        <g >
                                            <text fill="#8C8C8C"  font-family="Droid Sans" font-size="3.1539">2</text>
                                        </g>
                                    </g>
                                </g>
                            </g>
                            <line fill="none" y2="65.965" stroke-width="0.7" x1="59.189" x2="66.187" stroke-linejoin="round"  gorn="0.1.0.0.0.0.2.21" stroke="#000000" id="connector7pin" stroke-linecap="round" y1="65.965"/>
                            <line fill="none" y2="65.965" stroke-width="0.7" x1="68.95" x2="63.646" stroke-linejoin="round"  gorn="0.1.0.0.0.0.2.22" stroke="#FF0000" id="connector147" stroke-linecap="round" y1="65.965"/>
                            <g transform="matrix(0.7927 0 0 1 66.1938 64.4322)" >
                                <g >
                                    <g >
                                        <g >
                                            <text fill="#8C8C8C"  font-family="Droid Sans" font-size="3.1539">1</text>
                                        </g>
                                    </g>
                                </g>
                            </g>
                        </g>
                        <g  gorn="0.1.0.0.0.0.3" id="schematic_1_">
                            <line fill="none" y2="66.169" stroke-width="0.7" x1="10.549" x2="3.553" stroke-linejoin="round"  gorn="0.1.0.0.0.0.3.0" stroke="#000000" id="connector0pin_1_" stroke-linecap="round" y1="66.169"/>
                            <line fill="none" y2="66.169" stroke-width="0.7" x1="0.79" x2="6.095" stroke-linejoin="round"  gorn="0.1.0.0.0.0.3.1" stroke="#FF0000" id="connector137" stroke-linecap="round" y1="66.169"/>
                            <g transform="matrix(0.7926 -0.007 0.0089 1 2.4116 64.3932)" >
                                <g >
                                    <g >
                                        <g >
                                            <text fill="#8C8C8C"  font-family="Droid Sans" font-size="3.1544">8</text>
                                        </g>
                                    </g>
                                </g>
                            </g>
                            <line fill="none" y2="57.085" stroke-width="0.7" x1="10.549" x2="3.553" stroke-linejoin="round"  gorn="0.1.0.0.0.0.3.3" stroke="#000000" id="connector1pin_1_" stroke-linecap="round" y1="57.085"/>
                            <line fill="none" y2="57.085" stroke-width="0.7" x1="0.79" x2="6.095" stroke-linejoin="round"  gorn="0.1.0.0.0.0.3.4" stroke="#FF0000" id="connector136" stroke-linecap="round" y1="57.085"/>
                            <g transform="matrix(0.7927 0.0043 -0.0055 1 2.4004 55.3004)" >
                                <g >
                                    <g >
                                        <g >
                                            <text fill="#8C8C8C"  font-family="Droid Sans" font-size="3.1539">7</text>
                                        </g>
                                    </g>
                                </g>
                            </g>
                            <line fill="none" y2="48.003" stroke-width="0.7" x1="10.549" x2="3.553" stroke-linejoin="round"  gorn="0.1.0.0.0.0.3.6" stroke="#000000" id="connector2pin_1_" stroke-linecap="round" y1="48.003"/>
                            <line fill="none" y2="48.003" stroke-width="0.7" x1="0.79" x2="6.095" stroke-linejoin="round"  gorn="0.1.0.0.0.0.3.7" stroke="#FF0000" id="connector135" stroke-linecap="round" y1="48.003"/>
                            <g transform="matrix(0.7927 0.0022 -0.0028 1 2.5859 46.2506)" >
                                <g >
                                    <g >
                                        <g >
                                            <text fill="#8C8C8C"  font-family="Droid Sans" font-size="3.1539">6</text>
                                        </g>
                                    </g>
                                </g>
                            </g>
                            <line fill="none" y2="38.919" stroke-width="0.7" x1="10.549" x2="3.553" stroke-linejoin="round"  gorn="0.1.0.0.0.0.3.9" stroke="#000000" id="connector3pin_1_" stroke-linecap="round" y1="38.919"/>
                            <line fill="none" y2="38.919" stroke-width="0.7" x1="0.79" x2="6.095" stroke-linejoin="round"  gorn="0.1.0.0.0.0.3.10" stroke="#FF0000" id="connector134" stroke-linecap="round" y1="38.919"/>
                            <g transform="matrix(0.7927 -0.0033 0.0042 1 2.4072 37.1422)" >
                                <g >
                                    <g >
                                        <g >
                                            <text fill="#8C8C8C"  font-family="Droid Sans" font-size="3.1539">5</text>
                                        </g>
                                    </g>
                                </g>
                            </g>
                            <line fill="none" y2="29.836" stroke-width="0.7" x1="10.549" x2="3.553" stroke-linejoin="round"  gorn="0.1.0.0.0.0.3.12" stroke="#000000" id="connector4pin_1_" stroke-linecap="round" y1="29.836"/>
                            <line fill="none" y2="29.836" stroke-width="0.7" x1="0.79" x2="6.095" stroke-linejoin="round"  gorn="0.1.0.0.0.0.3.13" stroke="#FF0000" id="connector133" stroke-linecap="round" y1="29.836"/>
                            <g transform="matrix(0.7926 -0.0062 0.0079 1 2.4116 28.0597)" >
                                <g >
                                    <g >
                                        <g >
                                            <text fill="#8C8C8C"  font-family="Droid Sans" font-size="3.1544">4</text>
                                        </g>
                                    </g>
                                </g>
                            </g>
                            <line fill="none" y2="20.752" stroke-width="0.7" x1="10.549" x2="3.553" stroke-linejoin="round"  gorn="0.1.0.0.0.0.3.15" stroke="#000000" id="connector5pin_1_" stroke-linecap="round" y1="20.752"/>
                            <line fill="none" y2="20.752" stroke-width="0.7" x1="0.79" x2="6.095" stroke-linejoin="round"  gorn="0.1.0.0.0.0.3.16" stroke="#FF0000" id="connector132" stroke-linecap="round" y1="20.752"/>
                            <g transform="matrix(0.7927 -0.0013 0.0016 1 2.4751 18.984)" >
                                <g >
                                    <g >
                                        <g >
                                            <text fill="#8C8C8C"  font-family="Droid Sans" font-size="3.1539">3</text>
                                        </g>
                                    </g>
                                </g>
                            </g>
                            <line fill="none" y2="11.669" stroke-width="0.7" x1="10.549" x2="3.553" stroke-linejoin="round"  gorn="0.1.0.0.0.0.3.18" stroke="#000000" id="connector6pin_1_" stroke-linecap="round" y1="11.669"/>
                            <line fill="none" y2="11.669" stroke-width="0.7" x1="0.79" x2="6.095" stroke-linejoin="round"  gorn="0.1.0.0.0.0.3.19" stroke="#FF0000" id="connector131" stroke-linecap="round" y1="11.669"/>
                            <g transform="matrix(0.7926 0.0068 -0.0085 1 2.3994 9.881)" >
                                <g >
                                    <g >
                                        <g >
                                            <text fill="#8C8C8C"  font-family="Droid Sans" font-size="3.1544">2</text>
                                        </g>
                                    </g>
                                </g>
                            </g>
                            <line fill="none" y2="2.586" stroke-width="0.7" x1="10.549" x2="3.553" stroke-linejoin="round"  gorn="0.1.0.0.0.0.3.21" stroke="#000000" id="connector7pin_1_" stroke-linecap="round" y1="2.586"/>
                            <line fill="none" y2="2.586" stroke-width="0.7" x1="0.79" x2="6.095" stroke-linejoin="round"  gorn="0.1.0.0.0.0.3.22" stroke="#FF0000" id="connector130" stroke-linecap="round" y1="2.586"/>
                            <g transform="matrix(0.7927 7.956983e-004 -0.001 1 2.6797 0.3082)" >
                                <g >
                                    <g >
                                        <g >
                                            <text fill="#8C8C8C"  font-family="Droid Sans" font-size="3.1539">1</text>
                                        </g>
                                    </g>
                                </g>
                            </g>
                        </g>
                    </g>
                </g>
            </g>
        </g>
    </g>
</svg>
