<?xml version="1.0" encoding="utf-8"?>
<!-- Generator: Adobe Illustrator 16.0.0, SVG Export Plug-In . SVG Version: 6.00 Build 0)  -->
<!DOCTYPE svg PUBLIC "-//W3C//DTD SVG 1.1//EN" "http://www.w3.org/Graphics/SVG/1.1/DTD/svg11.dtd">
<svg version="1.1" id="Layer_1" xmlns:svg="http://www.w3.org/2000/svg"
	 xmlns="http://www.w3.org/2000/svg" xmlns:xlink="http://www.w3.org/1999/xlink" x="0px" y="0px" width="57.6px" height="187.2px"
	 viewBox="0 0 57.6 187.2" enable-background="new 0 0 57.6 187.2" xml:space="preserve">
<g id="schematic">
	
		<rect x="0.45" y="0.45" fill="#FFFFFF" stroke="#000000" stroke-width="0.3175" stroke-linecap="round" width="42.3" height="186.3"/>
	
		<line id="connector0pin" fill="none" stroke="#787878" stroke-width="0.2469" stroke-linecap="round" x1="42.85" y1="7.2" x2="57.25" y2="7.2"/>
	<text transform="matrix(1 0 0 1 49.3616 6.1504)" fill="#8C8C8C" font-family="'DroidSans'" font-size="2.5">1</text>
	<text transform="matrix(1 0 0 1 34.5042 7.9004)" fill="#8C8C8C" font-family="'DroidSans'" font-size="3.5">pin1</text>
	<rect id="connector0terminal" x="57.25" y="6.85" fill="none" width="0.7" height="0.7"/>
	
		<line id="connector1pin" fill="none" stroke="#787878" stroke-width="0.2469" stroke-linecap="round" x1="42.85" y1="14.4" x2="57.25" y2="14.4"/>
	<text transform="matrix(1 0 0 1 49.3616 13.3496)" fill="#8C8C8C" font-family="'DroidSans'" font-size="2.5">2</text>
	<text transform="matrix(1 0 0 1 34.5042 15.0996)" fill="#8C8C8C" font-family="'DroidSans'" font-size="3.5">pin2</text>
	<rect id="connector1terminal" x="57.25" y="14.05" fill="none" width="0.7" height="0.7"/>
	
		<line id="connector2pin" fill="none" stroke="#787878" stroke-width="0.2469" stroke-linecap="round" x1="42.85" y1="21.6" x2="57.25" y2="21.6"/>
	<text transform="matrix(1 0 0 1 49.3616 20.5488)" fill="#8C8C8C" font-family="'DroidSans'" font-size="2.5">3</text>
	<text transform="matrix(1 0 0 1 34.5042 22.2988)" fill="#8C8C8C" font-family="'DroidSans'" font-size="3.5">pin3</text>
	<rect id="connector2terminal" x="57.25" y="21.25" fill="none" width="0.7" height="0.7"/>
	
		<line id="connector3pin" fill="none" stroke="#787878" stroke-width="0.2469" stroke-linecap="round" x1="42.85" y1="28.8" x2="57.25" y2="28.8"/>
	<text transform="matrix(1 0 0 1 49.3616 27.75)" fill="#8C8C8C" font-family="'DroidSans'" font-size="2.5">4</text>
	<text transform="matrix(1 0 0 1 34.5042 29.5)" fill="#8C8C8C" font-family="'DroidSans'" font-size="3.5">pin4</text>
	<rect id="connector3terminal" x="57.25" y="28.45" fill="none" width="0.7" height="0.7"/>
	
		<line id="connector4pin" fill="none" stroke="#787878" stroke-width="0.2469" stroke-linecap="round" x1="42.85" y1="36" x2="57.25" y2="36"/>
	<text transform="matrix(1 0 0 1 49.3616 34.9492)" fill="#8C8C8C" font-family="'DroidSans'" font-size="2.5">5</text>
	<text transform="matrix(1 0 0 1 34.5042 36.6992)" fill="#8C8C8C" font-family="'DroidSans'" font-size="3.5">pin5</text>
	<rect id="connector4terminal" x="57.25" y="35.65" fill="none" width="0.7" height="0.7"/>
	
		<line id="connector5pin" fill="none" stroke="#787878" stroke-width="0.2469" stroke-linecap="round" x1="42.85" y1="43.2" x2="57.25" y2="43.2"/>
	<text transform="matrix(1 0 0 1 49.3616 42.1504)" fill="#8C8C8C" font-family="'DroidSans'" font-size="2.5">6</text>
	<text transform="matrix(1 0 0 1 34.5042 43.8984)" fill="#8C8C8C" font-family="'DroidSans'" font-size="3.5">pin6</text>
	<rect id="connector5terminal" x="57.25" y="42.85" fill="none" width="0.7" height="0.7"/>
	
		<line id="connector6pin" fill="none" stroke="#787878" stroke-width="0.2469" stroke-linecap="round" x1="42.85" y1="50.4" x2="57.25" y2="50.4"/>
	<text transform="matrix(1 0 0 1 49.3616 49.3496)" fill="#8C8C8C" font-family="'DroidSans'" font-size="2.5">7</text>
	<text transform="matrix(1 0 0 1 34.5042 51.0996)" fill="#8C8C8C" font-family="'DroidSans'" font-size="3.5">pin7</text>
	<rect id="connector6terminal" x="57.25" y="50.05" fill="none" width="0.7" height="0.7"/>
	
		<line id="connector7pin" fill="none" stroke="#787878" stroke-width="0.2469" stroke-linecap="round" x1="42.85" y1="57.6" x2="57.25" y2="57.6"/>
	<text transform="matrix(1 0 0 1 49.3616 56.5488)" fill="#8C8C8C" font-family="'DroidSans'" font-size="2.5">8</text>
	<text transform="matrix(1 0 0 1 34.5042 58.2988)" fill="#8C8C8C" font-family="'DroidSans'" font-size="3.5">pin8</text>
	<rect id="connector7terminal" x="57.25" y="57.25" fill="none" width="0.7" height="0.7"/>
	
		<line id="connector8pin" fill="none" stroke="#787878" stroke-width="0.2469" stroke-linecap="round" x1="42.85" y1="64.8" x2="57.25" y2="64.8"/>
	<text transform="matrix(1 0 0 1 49.3616 63.75)" fill="#8C8C8C" font-family="'DroidSans'" font-size="2.5">9</text>
	<text transform="matrix(1 0 0 1 34.5042 65.5)" fill="#8C8C8C" font-family="'DroidSans'" font-size="3.5">pin9</text>
	<rect id="connector8terminal" x="57.25" y="64.45" fill="none" width="0.7" height="0.7"/>
	
		<line id="connector9pin" fill="none" stroke="#787878" stroke-width="0.2469" stroke-linecap="round" x1="42.85" y1="72" x2="57.25" y2="72"/>
	<text transform="matrix(1 0 0 1 48.6741 70.9492)" fill="#8C8C8C" font-family="'DroidSans'" font-size="2.5">10</text>
	<text transform="matrix(1 0 0 1 32.5764 72.6992)" fill="#8C8C8C" font-family="'DroidSans'" font-size="3.5">pin10</text>
	<rect id="connector9terminal" x="57.25" y="71.65" fill="none" width="0.7" height="0.7"/>
	
		<line id="connector10pin" fill="none" stroke="#787878" stroke-width="0.2469" stroke-linecap="round" x1="42.85" y1="79.2" x2="57.25" y2="79.2"/>
	<text transform="matrix(1 0 0 1 48.6741 78.1504)" fill="#8C8C8C" font-family="'DroidSans'" font-size="2.5">11</text>
	<text transform="matrix(1 0 0 1 32.5764 79.8984)" fill="#8C8C8C" font-family="'DroidSans'" font-size="3.5">pin11</text>
	<rect id="connector10terminal" x="57.25" y="78.85" fill="none" width="0.7" height="0.7"/>
	
		<line id="connector11pin" fill="none" stroke="#787878" stroke-width="0.2469" stroke-linecap="round" x1="42.85" y1="86.4" x2="57.25" y2="86.4"/>
	<text transform="matrix(1 0 0 1 48.6741 85.3496)" fill="#8C8C8C" font-family="'DroidSans'" font-size="2.5">12</text>
	<text transform="matrix(1 0 0 1 32.5764 87.0996)" fill="#8C8C8C" font-family="'DroidSans'" font-size="3.5">pin12</text>
	<rect id="connector11terminal" x="57.25" y="86.05" fill="none" width="0.7" height="0.7"/>
	
		<line id="connector12pin" fill="none" stroke="#787878" stroke-width="0.2469" stroke-linecap="round" x1="42.85" y1="93.6" x2="57.25" y2="93.6"/>
	<text transform="matrix(1 0 0 1 48.6741 92.5488)" fill="#8C8C8C" font-family="'DroidSans'" font-size="2.5">13</text>
	<text transform="matrix(1 0 0 1 32.5764 94.2988)" fill="#8C8C8C" font-family="'DroidSans'" font-size="3.5">pin13</text>
	<rect id="connector12terminal" x="57.25" y="93.25" fill="none" width="0.7" height="0.699"/>
	
		<line id="connector13pin" fill="none" stroke="#787878" stroke-width="0.2469" stroke-linecap="round" x1="42.85" y1="108" x2="57.25" y2="108"/>
	<text transform="matrix(1 0 0 1 48.6741 99.75)" fill="#8C8C8C" font-family="'DroidSans'" font-size="2.5">14</text>
	<text transform="matrix(1 0 0 1 32.5764 101.5)" fill="#8C8C8C" font-family="'DroidSans'" font-size="3.5">pin14</text>
	<rect id="connector13terminal" x="57.25" y="107.649" fill="none" width="0.7" height="0.701"/>
	
		<line id="connector14pin" fill="none" stroke="#787878" stroke-width="0.2469" stroke-linecap="round" x1="42.85" y1="100.8" x2="57.25" y2="100.8"/>
	<text transform="matrix(1 0 0 1 48.6741 106.9492)" fill="#8C8C8C" font-family="'DroidSans'" font-size="2.5">15</text>
	<text transform="matrix(1 0 0 1 32.5764 108.6992)" fill="#8C8C8C" font-family="'DroidSans'" font-size="3.5">pin15</text>
	<rect id="connector14terminal" x="57.25" y="100.449" fill="none" width="0.7" height="0.701"/>
	
		<line id="connector15pin" fill="none" stroke="#787878" stroke-width="0.2469" stroke-linecap="round" x1="42.85" y1="115.2" x2="57.25" y2="115.2"/>
	<text transform="matrix(1 0 0 1 48.6741 114.1484)" fill="#8C8C8C" font-family="'DroidSans'" font-size="2.5">16</text>
	<text transform="matrix(1 0 0 1 32.5764 115.8984)" fill="#8C8C8C" font-family="'DroidSans'" font-size="3.5">pin16</text>
	<rect id="connector15terminal" x="57.25" y="114.851" fill="none" width="0.7" height="0.699"/>
	
		<line id="connector16pin" fill="none" stroke="#787878" stroke-width="0.2469" stroke-linecap="round" x1="42.85" y1="122.4" x2="57.25" y2="122.4"/>
	<text transform="matrix(1 0 0 1 48.6741 121.3496)" fill="#8C8C8C" font-family="'DroidSans'" font-size="2.5">17</text>
	<text transform="matrix(1 0 0 1 32.5764 123.0977)" fill="#8C8C8C" font-family="'DroidSans'" font-size="3.5">pin17</text>
	<rect id="connector16terminal" x="57.25" y="122.05" fill="none" width="0.7" height="0.7"/>
	
		<line id="connector17pin" fill="none" stroke="#787878" stroke-width="0.2469" stroke-linecap="round" x1="42.85" y1="129.601" x2="57.25" y2="129.601"/>
	<text transform="matrix(1 0 0 1 48.6741 128.5488)" fill="#8C8C8C" font-family="'DroidSans'" font-size="2.5">18</text>
	<text transform="matrix(1 0 0 1 32.5764 130.2988)" fill="#8C8C8C" font-family="'DroidSans'" font-size="3.5">pin18</text>
	<rect id="connector17terminal" x="57.25" y="129.25" fill="none" width="0.7" height="0.7"/>
	
		<line id="connector18pin" fill="none" stroke="#787878" stroke-width="0.2469" stroke-linecap="round" x1="42.85" y1="136.8" x2="57.25" y2="136.8"/>
	<text transform="matrix(1 0 0 1 48.6741 135.748)" fill="#8C8C8C" font-family="'DroidSans'" font-size="2.5">19</text>
	<text transform="matrix(1 0 0 1 32.5764 137.498)" fill="#8C8C8C" font-family="'DroidSans'" font-size="3.5">pin19</text>
	<rect id="connector18terminal" x="57.25" y="136.45" fill="none" width="0.7" height="0.699"/>
	
		<line id="connector19pin" fill="none" stroke="#787878" stroke-width="0.2469" stroke-linecap="round" x1="42.85" y1="144" x2="57.25" y2="144"/>
	<text transform="matrix(1 0 0 1 48.6741 142.9492)" fill="#8C8C8C" font-family="'DroidSans'" font-size="2.5">20</text>
	<text transform="matrix(1 0 0 1 32.5764 144.6992)" fill="#8C8C8C" font-family="'DroidSans'" font-size="3.5">pin20</text>
	<rect id="connector19terminal" x="57.25" y="143.649" fill="none" width="0.7" height="0.701"/>
	
		<line id="connector20pin" fill="none" stroke="#787878" stroke-width="0.2469" stroke-linecap="round" x1="42.85" y1="151.2" x2="57.25" y2="151.2"/>
	<text transform="matrix(1 0 0 1 48.6741 150.1484)" fill="#8C8C8C" font-family="'DroidSans'" font-size="2.5">21</text>
	<text transform="matrix(1 0 0 1 32.5764 151.8984)" fill="#8C8C8C" font-family="'DroidSans'" font-size="3.5">pin21</text>
	<rect id="connector20terminal" x="57.25" y="150.851" fill="none" width="0.7" height="0.699"/>
	
		<line id="connector21pin" fill="none" stroke="#787878" stroke-width="0.2469" stroke-linecap="round" x1="42.85" y1="158.4" x2="57.25" y2="158.4"/>
	<text transform="matrix(1 0 0 1 48.6741 157.3496)" fill="#8C8C8C" font-family="'DroidSans'" font-size="2.5">22</text>
	<text transform="matrix(1 0 0 1 32.5764 159.0977)" fill="#8C8C8C" font-family="'DroidSans'" font-size="3.5">pin22</text>
	<rect id="connector21terminal" x="57.25" y="158.05" fill="none" width="0.7" height="0.7"/>
	
		<line id="connector22pin" fill="none" stroke="#787878" stroke-width="0.2469" stroke-linecap="round" x1="42.85" y1="165.601" x2="57.25" y2="165.601"/>
	<text transform="matrix(1 0 0 1 48.6741 164.5488)" fill="#8C8C8C" font-family="'DroidSans'" font-size="2.5">23</text>
	<text transform="matrix(1 0 0 1 32.5764 166.2988)" fill="#8C8C8C" font-family="'DroidSans'" font-size="3.5">pin23</text>
	<rect id="connector22terminal" x="57.25" y="165.25" fill="none" width="0.7" height="0.7"/>
	
		<line id="connector23pin" fill="none" stroke="#787878" stroke-width="0.2469" stroke-linecap="round" x1="42.85" y1="172.8" x2="57.25" y2="172.8"/>
	<text transform="matrix(1 0 0 1 48.6741 171.748)" fill="#8C8C8C" font-family="'DroidSans'" font-size="2.5">24</text>
	<text transform="matrix(1 0 0 1 32.5764 173.498)" fill="#8C8C8C" font-family="'DroidSans'" font-size="3.5">pin24</text>
	<rect id="connector23terminal" x="57.25" y="172.45" fill="none" width="0.7" height="0.699"/>
	
		<line id="connector24pin" fill="none" stroke="#787878" stroke-width="0.2469" stroke-linecap="round" x1="42.85" y1="180" x2="57.25" y2="180"/>
	<text transform="matrix(1 0 0 1 48.6741 178.9492)" fill="#8C8C8C" font-family="'DroidSans'" font-size="2.5">25</text>
	<text transform="matrix(1 0 0 1 32.5764 180.6992)" fill="#8C8C8C" font-family="'DroidSans'" font-size="3.5">pin25</text>
	<rect id="connector24terminal" x="57.25" y="179.649" fill="none" width="0.7" height="0.701"/>
	<text id="label" transform="matrix(1 0 0 1 15.0862 88.1836)" font-family="'DroidSans'" font-size="4.25">DB25M</text>
</g>
</svg>
