<?xml version='1.0' encoding='UTF-8' standalone='no'?>
<svg
  xmlns="http://www.w3.org/2000/svg"
  xmlns:xlink="http://www.w3.org/1999/xlink"
  version="1.2"
  baseProfile="tiny"
  x="0"
  y="0"
  width="0.8in"
  height="0.8in"
  viewBox="0 0 72 72"
  xml:space="preserve">
  <desc>20mm (0.8 inch) 8x8 LED matrix 600mil pin row spacing</desc>
  <g
    id="breadboard"
    stroke="none"
    stroke-width="0.6"
    stroke-linecap="butt"
    stroke-linejoin="miter">
    <g
      fill="#111111" stroke="none">
      <!-- plastic body, full matrix -->
      <rect x="0" y="0" width="72" height="72" />
    </g>
    <!-- offset origin to the center of the top, left led -->
    <!-- 90*(0.8)/(8*2) = 4.5 -->
    <g
      transform="translate(4.5,4.5)"
      fill="white" stroke="none">
      <!-- (80*8) * [0…7] , r = (90*1.9/25.4)/2 = 3.366 -->
      <!-- circles for the matrix of LEDs -->
      <!-- top row -->
      <circle cx="00" cy="00" r="3.37" />
      <circle cx="09" cy="00" r="3.37" />
      <circle cx="18" cy="00" r="3.37" />
      <circle cx="27" cy="00" r="3.37" />
      <circle cx="36" cy="00" r="3.37" />
      <circle cx="45" cy="00" r="3.37" />
      <circle cx="54" cy="00" r="3.37" />
      <circle cx="63" cy="00" r="3.37" />

      <circle cx="00" cy="09" r="3.37" />
      <circle cx="09" cy="09" r="3.37" />
      <circle cx="18" cy="09" r="3.37" />
      <circle cx="27" cy="09" r="3.37" />
      <circle cx="36" cy="09" r="3.37" />
      <circle cx="45" cy="09" r="3.37" />
      <circle cx="54" cy="09" r="3.37" />
      <circle cx="63" cy="09" r="3.37" />

      <circle cx="00" cy="18" r="3.37" />
      <circle cx="09" cy="18" r="3.37" />
      <circle cx="18" cy="18" r="3.37" />
      <circle cx="27" cy="18" r="3.37" />
      <circle cx="36" cy="18" r="3.37" />
      <circle cx="45" cy="18" r="3.37" />
      <circle cx="54" cy="18" r="3.37" />
      <circle cx="63" cy="18" r="3.37" />

      <circle cx="00" cy="27" r="3.37" />
      <circle cx="09" cy="27" r="3.37" />
      <circle cx="18" cy="27" r="3.37" />
      <circle cx="27" cy="27" r="3.37" />
      <circle cx="36" cy="27" r="3.37" />
      <circle cx="45" cy="27" r="3.37" />
      <circle cx="54" cy="27" r="3.37" />
      <circle cx="63" cy="27" r="3.37" />

      <circle cx="00" cy="36" r="3.37" />
      <circle cx="09" cy="36" r="3.37" />
      <circle cx="18" cy="36" r="3.37" />
      <circle cx="27" cy="36" r="3.37" />
      <circle cx="36" cy="36" r="3.37" />
      <circle cx="45" cy="36" r="3.37" />
      <circle cx="54" cy="36" r="3.37" />
      <circle cx="63" cy="36" r="3.37" />

      <circle cx="00" cy="45" r="3.37" />
      <circle cx="09" cy="45" r="3.37" />
      <circle cx="18" cy="45" r="3.37" />
      <circle cx="27" cy="45" r="3.37" />
      <circle cx="36" cy="45" r="3.37" />
      <circle cx="45" cy="45" r="3.37" />
      <circle cx="54" cy="45" r="3.37" />
      <circle cx="63" cy="45" r="3.37" />

      <circle cx="00" cy="54" r="3.37" />
      <circle cx="09" cy="54" r="3.37" />
      <circle cx="18" cy="54" r="3.37" />
      <circle cx="27" cy="54" r="3.37" />
      <circle cx="36" cy="54" r="3.37" />
      <circle cx="45" cy="54" r="3.37" />
      <circle cx="54" cy="54" r="3.37" />
      <circle cx="63" cy="54" r="3.37" />

      <circle cx="00" cy="63" r="3.37" />
      <circle cx="09" cy="63" r="3.37" />
      <circle cx="18" cy="63" r="3.37" />
      <circle cx="27" cy="63" r="3.37" />
      <circle cx="36" cy="63" r="3.37" />
      <circle cx="45" cy="63" r="3.37" />
      <circle cx="54" cy="63" r="3.37" />
      <circle cx="63" cy="63" r="3.37" />
    </g>
    <!-- offset origin to the top left of the top, left connection pin (16) -->
    <g transform="translate(3,7.5)"
      fill="#A0A0A0" stoke="none">
      <rect id="connector15pin" x="00" y="0" width="3" height="3" />
      <rect id="connector14pin" x="09" y="0" width="3" height="3" />
      <rect id="connector13pin" x="18" y="0" width="3" height="3" />
      <rect id="connector12pin" x="27" y="0" width="3" height="3" />
      <rect id="connector11pin" x="36" y="0" width="3" height="3" />
      <rect id="connector10pin" x="45" y="0" width="3" height="3" />
      <rect id="connector9pin"  x="54" y="0" width="3" height="3" />
      <rect id="connector8pin"  x="63" y="0" width="3" height="3" />
      <!-- 600mils -->
      <g transform="translate(0,54)">
        <rect id="connector0pin" x="00" y="0" width="3" height="3" />
        <rect id="connector1pin" x="09" y="0" width="3" height="3" />
        <rect id="connector2pin" x="18" y="0" width="3" height="3" />
        <rect id="connector3pin" x="27" y="0" width="3" height="3" />
        <rect id="connector4pin" x="36" y="0" width="3" height="3" />
        <rect id="connector5pin" x="45" y="0" width="3" height="3" />
        <rect id="connector6pin" x="54" y="0" width="3" height="3" />
        <rect id="connector7pin" x="63" y="0" width="3" height="3" />
      </g>
    </g>
  </g>
</svg>