<?xml version='1.0' encoding='UTF-8' standalone='no'?>
<svg
  xmlns:dc="http://purl.org/dc/elements/1.1/"
  xmlns:cc="http://creativecommons.org/ns#"
  xmlns:rdf="http://www.w3.org/1999/02/22-rdf-syntax-ns#"
  xmlns:svg="http://www.w3.org/2000/svg"
  xmlns="http://www.w3.org/2000/svg"
  version="1.2"
  id="svg2"
  width="0.7in"
  height="0.33in"
  viewBox="0 0 700 330">
  <metadata
    id="metadata76">
    <rdf:RDF>
      <cc:Work
        rdf:about="">
        <dc:format>image/svg+xml</dc:format>
        <dc:type
          rdf:resource="http://purl.org/dc/dcmitype/StillImage"
        />
        <dc:title/>
      </cc:Work>
    </rdf:RDF>
  </metadata>
  <defs
    id="defs74"
  />
  <g
    id="breadboard">
    <rect
      stroke-width="10"
      fill="#303030"
      id="middle"
      x="0"
      y="30"
      width="700"
      height="270"
    />
    <rect
      stroke-width="10"
      fill="#3d3d3d"
      id="top"
      x="0"
      y="30"
      width="700"
      height="24.6"
    />
    <rect
      stroke-width="10"
      fill="#000000"
      id="bottom"
      x="0"
      y="275"
      width="700"
      height="24.6"
    />
    <polygon
      fill="#141414"
      id="right"
      points="692.5,275.4 700,300 700,30 692.5,54.6 "
    />
    <polygon
      fill="#1f1f1f"
      id="left"
      points="7.5,275 0,300 0,30 7.5,54 "
    />
    <polygon
      fill="#1c1c1c"
      id="left-upper-rect"
      points="50,115 7.5,114 5.6,135 5.6,165 50,165 "
    />
    <polygon
      fill="#383838"
      id="left-lower-rect"
      points="7.5,215 50,215 50,165 5.6,165 5.6,190 "
    />
    <path
      stroke-width="10"
      fill="#262626"
      id="slot"
      d="m 5.6,135 v 58.3 c 14.7,-1.7 26,-14 26,-29 0,-15 -11,-27 -26,-29 z"
    />
    <path
      stroke-width="10"
      fill="#303030"
      id="cover"
      d="m 7.5,54 v 60 c 24,4.5 42,25 42,50 0,25 -18,46 -42,50 v 0.1 H 58 V 55 Z"
    />
    <circle
      stroke-width="10"
      fill="#212121"
      cx="65"
      cy="234"
      r="20.6"
      id="circle13"
    />
    <text
      id="label"
      x="341.05634"
      y="184.71831"
      font-size="60"
      font-family="OCRA"
      text-anchor="middle"
      fill="#e6e6e6">IC</text>
    <rect
      stroke-width="10"
      fill="#8c8c8c"
      id="connector0pin"
      x="35"
      y="286"
      width="30"
      height="43"
    />
    <rect
      stroke-width="10"
      fill="#8c8c8c"
      id="connector0terminal"
      x="35"
      y="300"
      width="30"
      height="30"
    />
    <polygon
      fill="#8c8c8c"
      points="35,286 35,306 65,306 85,297 85,286 "
      id="polygon18"
    />
    <rect
      stroke-width="10"
      fill="#8c8c8c"
      y="0"
      id="connector13pin"
      x="35"
      width="30"
      height="43"
    />
    <rect
      stroke-width="10"
      fill="#8c8c8c"
      y="0"
      id="connector13terminal"
      x="35"
      width="30"
      height="30"
    />
    <polygon
      fill="#8c8c8c"
      points="85,43 85,32 65,23 35,23 35,43 "
      id="polygon22"
    />
    <rect
      stroke-width="10"
      fill="#8c8c8c"
      id="connector6pin"
      x="635"
      y="286"
      width="30"
      height="43"
    />
    <rect
      stroke-width="10"
      fill="#8c8c8c"
      id="connector6terminal"
      x="635"
      y="300"
      width="30"
      height="30"
    />
    <polygon
      fill="#8c8c8c"
      points="615,286 615,297 635,306 665,306 665,286 "
      id="polygon26"
    />
    <rect
      stroke-width="10"
      fill="#8c8c8c"
      id="connector7pin"
      x="635"
      y="0"
      width="30"
      height="43"
    />
    <rect
      stroke-width="10"
      fill="#8c8c8c"
      id="connector7terminal"
      x="635"
      y="0"
      width="30"
      height="30"
    />
    <polygon
      fill="#8c8c8c"
      points="665,43 665,23 635,23 615,32 615,43 "
      id="polygon30"
    />
    <rect
      stroke-width="10"
      fill="#8c8c8c"
      id="connector12pin"
      x="135"
      y="0"
      width="30"
      height="43"
    />
    <rect
      stroke-width="10"
      fill="#8c8c8c"
      y="0"
      id="connector12terminal"
      x="135"
      width="30"
      height="30"
    />
    <polygon
      fill="#8c8c8c"
      points="115,32 115,43 185,43 185,32 165,23 135,23 "
      id="polygon34"
    />
    <rect
      stroke-width="10"
      fill="#8c8c8c"
      id="connector11pin"
      x="235"
      y="0"
      width="30"
      height="43"
    />
    <rect
      stroke-width="10"
      fill="#8c8c8c"
      y="0"
      id="connector11terminal"
      x="235"
      width="30"
      height="30"
    />
    <polygon
      fill="#8c8c8c"
      points="215,32 215,43 285,43 285,32 265,23 235,23 "
      id="polygon38"
    />
    <rect
      stroke-width="10"
      fill="#8c8c8c"
      id="connector10pin"
      x="335"
      y="0"
      width="30"
      height="43"
    />
    <rect
      stroke-width="10"
      fill="#8c8c8c"
      y="0"
      id="connector10terminal"
      x="335"
      width="30"
      height="30"
    />
    <polygon
      fill="#8c8c8c"
      points="315,32 315,43 385,43 385,32 365,23 335,23 "
      id="polygon42"
    />
    <rect
      stroke-width="10"
      fill="#8c8c8c"
      id="connector9pin"
      x="435"
      y="0"
      width="30"
      height="43"
    />
    <rect
      stroke-width="10"
      fill="#8c8c8c"
      y="0"
      id="connector9terminal"
      x="435"
      width="30"
      height="30"
    />
    <polygon
      fill="#8c8c8c"
      points="415,32 415,43 485,43 485,32 465,23 435,23 "
      id="polygon46"
    />
    <rect
      stroke-width="10"
      fill="#8c8c8c"
      id="connector8pin"
      x="535"
      y="0"
      width="30"
      height="43"
    />
    <rect
      stroke-width="10"
      fill="#8c8c8c"
      y="0"
      id="connector8terminal"
      x="535"
      width="30"
      height="30"
    />
    <polygon
      fill="#8c8c8c"
      points="515,32 515,43 585,43 585,32 565,23 535,23 "
      id="polygon50"
    />
    <rect
      stroke-width="10"
      fill="#8c8c8c"
      id="connector1pin"
      x="135"
      y="286"
      width="30"
      height="43"
    />
    <rect
      stroke-width="10"
      fill="#8c8c8c"
      id="connector1terminal"
      x="135"
      y="300"
      width="30"
      height="30"
    />
    <polygon
      fill="#8c8c8c"
      points="185,297 185,286 115,286 115,297 135,306 165,306 "
      id="polygon54"
    />
    <rect
      stroke-width="10"
      fill="#8c8c8c"
      id="connector2pin"
      x="235"
      y="286"
      width="30"
      height="43"
    />
    <rect
      stroke-width="10"
      fill="#8c8c8c"
      id="connector2terminal"
      x="235"
      y="300"
      width="30"
      height="30"
    />
    <polygon
      fill="#8c8c8c"
      points="285,297 285,286 215,286 215,297 235,306 265,306 "
      id="polygon58"
    />
    <rect
      stroke-width="10"
      fill="#8c8c8c"
      id="connector3pin"
      x="335"
      y="286"
      width="30"
      height="43"
    />
    <rect
      stroke-width="10"
      fill="#8c8c8c"
      id="connector3terminal"
      x="335"
      y="300"
      width="30"
      height="30"
    />
    <polygon
      fill="#8c8c8c"
      points="385,297 385,286 315,286 315,297 335,306 365,306 "
      id="polygon62"
    />
    <rect
      stroke-width="10"
      fill="#8c8c8c"
      id="connector4pin"
      x="435"
      y="286"
      width="30"
      height="43"
    />
    <rect
      stroke-width="10"
      fill="#8c8c8c"
      id="connector4terminal"
      x="435"
      y="300"
      width="30"
      height="30"
    />
    <polygon
      fill="#8c8c8c"
      points="485,297 485,286 415,286 415,297 435,306 465,306 "
      id="polygon66"
    />
    <rect
      stroke-width="10"
      fill="#8c8c8c"
      id="connector5pin"
      x="535"
      y="286"
      width="30"
      height="43"
    />
    <rect
      stroke-width="10"
      fill="#8c8c8c"
      id="connector5terminal"
      x="535"
      y="300"
      width="30"
      height="30"
    />
    <polygon
      fill="#8c8c8c"
      points="585,297 585,286 515,286 515,297 535,306 565,306 "
      id="polygon70"
    />
  </g>
</svg>
