<?xml version="1.0" encoding="utf-8"?>
<!-- Generator: Adobe Illustrator 16.0.0, SVG Export Plug-In . SVG Version: 6.00 Build 0)  -->
<svg version="1.2" baseProfile="tiny" id="Ebene_1" xmlns="http://www.w3.org/2000/svg" xmlns:xlink="http://www.w3.org/1999/xlink"
	 x="0px" y="0px" width="186.504px" height="79.297px" viewBox="0 0 186.504 79.297" xml:space="preserve">
<desc>Fritzing breadboard generated by brd2svg</desc>
<g>
	<g id="breadboardbreadboard">
		<g id="s2b-ph_1_" transform="matrix(1, 0, 0, 1, 43.1025, 21.7416)">
			<g id="s2b-ph" transform="matrix(1, 0, 0, 1, 10.788, 32.4744)">
				<g transform="matrix(0, 1, -1, 0, 23.0625, -1.61147)">
					<g>
						<g>
							<g>
								<polygon fill="#B7B7B7" points="-24.402,-92.807 -26.128,-92.807 -26.128,-81.134 -24.402,-81.134 								"/>
								<polygon fill="#B7B7B7" points="-31.601,-92.807 -33.325,-92.807 -33.325,-81.134 -31.601,-81.134 								"/>
							</g>
						</g>
						
							<rect x="-36.591" y="-110.788" transform="matrix(2.578893e-006 1 -1 2.578893e-006 -127.1969 -69.7025)" fill="#AD9E73" width="15.688" height="24.676"/>
						<g>
							<polygon fill="#C2B990" points="-36.147,-90.609 -21.548,-90.609 -21.548,-93.992 -23.372,-93.992 -23.372,-95.006 
								-34.187,-95.006 -34.187,-93.992 -36.147,-93.992 							"/>
						</g>
						
							<rect x="-30.198" y="-117.04" transform="matrix(2.578893e-006 1 -1 2.578893e-006 -136.4923 -78.9979)" fill="#F1F3E6" width="2.902" height="18.59"/>
						
						<g>
							<g>
								<path fill="#F1F3E6" d="M-19.452-90.609v2.861h3.041v-2.861H-19.452z"/>
							</g>
						</g>
						<g>
							<g>
								<path fill="#F1F3E6" d="M-41.085-90.609v2.861h3.043v-2.861H-41.085z"/>
							</g>
						</g>
						<g>
							<g>
								<polygon fill="#F1F3E6" points="-41.085,-106.294 -41.085,-90.609 -36.147,-90.609 -36.147,-103.183 -33.105,-103.183 
									-33.105,-90.609 -24.589,-90.609 -24.589,-103.183 -21.548,-103.183 -21.548,-90.609 -16.411,-90.609 -16.411,-106.294 
																	"/>
							</g>
						</g>
					
					</g>
				</g>
			</g>
		</g>
		<g id="con2_usb_micro_b_at_2_" transform="matrix(1, 0, 0, 1, 14.5557, 123.449)">
			<g id="con2_usb_micro_b_at_3_" transform="matrix(1, 0, 0, 1, 18.6038, 120.082)">
				<rect x="140.653" y="-181.38" fill="#CCCCCC" width="7.15" height="5.375"/>
				<rect x="125.021" y="-181.38" fill="#CCCCCC" width="7.151" height="5.375"/>
				<rect x="140.653" y="-206.615" fill="#CCCCCC" width="7.15" height="5.375"/>
				<rect x="147.653" y="-181.38" fill="#F2F2F2" width="0.15" height="5.375"/>
				<rect x="147.653" y="-206.615" fill="#F2F2F2" width="0.15" height="5.375"/>
	
				<rect x="125.021" y="-206.615" fill="#CCCCCC" width="7.151" height="5.375"/>
				<rect x="131.979" y="-181.38" fill="#F2F2F2" width="0.193" height="5.375"/>
				<rect x="131.979" y="-206.615" fill="#F2F2F2" width="0.193" height="5.375"/>
				<g>
					<rect x="125.296" y="-196.613" fill="#666666" width="2.981" height="1.252"/>
					<rect x="125.292" y="-196.613" fill="#999999" width="2.811" height="0.113"/>
				</g>
				<g>
					<rect x="125.296" y="-194.281" fill="#666666" width="2.981" height="1.254"/>
					<rect x="125.292" y="-194.281" fill="#999999" width="2.811" height="0.115"/>
				</g>
				<g>
					<rect x="125.296" y="-191.953" fill="#666666" width="2.981" height="1.254"/>
					<rect x="125.292" y="-191.951" fill="#999999" width="2.811" height="0.112"/>
				</g>
				<g>
					<rect x="125.296" y="-189.621" fill="#666666" width="2.981" height="1.254"/>
					<rect x="125.292" y="-189.619" fill="#999999" width="2.811" height="0.11"/>
				</g>
				<g>
					<rect x="125.296" y="-187.291" fill="#666666" width="2.981" height="1.252"/>
					<rect x="125.292" y="-187.289" fill="#999999" width="2.811" height="0.112"/>
				</g>
				<g>
					<polygon fill="#B3B3B3" points="127.958,-180.695 127.958,-201.918 153.344,-201.918 153.344,-180.695 					"/>
					<rect x="127.96" y="-201.918" fill="#CCCCCC" width="0.146" height="21.223"/>
					<rect x="127.958" y="-200.293" fill="#333333" width="23.815" height="17.938"/>
					<path fill="#CCCCCC" d="M128.596-202.177l-0.002,0.548c0,0-0.129-0.215-0.321-0.123c-0.19,0.092-0.315,2.686-0.315,2.686
						v-2.852L128.596-202.177L128.596-202.177z"/>
					<path fill="#CCCCCC" d="M128.596-180.469l-0.004-0.549c0,0-0.127,0.215-0.318,0.12c-0.189-0.092-0.314-2.684-0.314-2.684v2.854
						L128.596-180.469L128.596-180.469z"/>
					<path fill="#E6E6E6" d="M153.342-202.174H127.96v6.143h0.635v9.418h-0.635v6.144h25.383V-202.174z M147.553-184.101
						c0.138,0,0.25,0.111,0.25,0.25v0.729c0,0.139-0.112,0.25-0.25,0.25h-6.65c-0.139,0-0.25-0.111-0.25-0.25v-0.729
						c0-0.139,0.111-0.25,0.25-0.25H147.553z M150.539-188.012l-12.542-0.716c-0.139-0.008-0.25-0.127-0.25-0.266v-4.717
						c0-0.139,0.113-0.258,0.25-0.266l12.542-0.717c0.14-0.008,0.25,0.098,0.25,0.236v0.174c0,0.139-0.112,0.258-0.25,0.266
						l-9.917,0.566c-0.139,0.008-0.25,0.127-0.25,0.265v3.667c0,0.138,0.113,0.257,0.25,0.265l9.917,0.565
						c0.14,0.009,0.25,0.128,0.25,0.266v0.176C150.789-188.109,150.676-188.004,150.539-188.012z M149.393-184.484l-0.863-0.863
						c-0.098-0.098-0.289-0.178-0.428-0.178h-7.201c-0.139,0-0.25-0.111-0.25-0.25v-0.6c0-0.139,0.111-0.25,0.25-0.25h9.638
						c0.14,0,0.25,0.111,0.25,0.25v0.6c0,0.139-0.079,0.33-0.177,0.428l-0.863,0.863
						C149.652-184.385,149.492-184.385,149.393-184.484z M132.456-198.418c0.139,0,0.25,0.112,0.25,0.25v13.17
						c0,0.139-0.111,0.25-0.25,0.25h-0.832c-0.139,0-0.25-0.111-0.25-0.25v-13.17c0-0.138,0.111-0.25,0.25-0.25H132.456z
						 M149.751-198.439l0.863,0.865c0.098,0.097,0.178,0.289,0.178,0.426v0.602c0,0.139-0.111,0.25-0.25,0.25h-9.639
						c-0.139,0-0.25-0.111-0.25-0.25v-0.602c0-0.137,0.111-0.25,0.25-0.25h7.201c0.139,0,0.33-0.079,0.428-0.176l0.863-0.865
						C149.492-198.537,149.652-198.537,149.751-198.439z M140.903-200.05l6.65-0.001c0.138,0,0.25,0.111,0.25,0.25v0.729
						c0,0.139-0.112,0.25-0.25,0.25h-6.65c-0.139,0-0.25-0.111-0.25-0.25v-0.728C140.653-199.937,140.764-200.05,140.903-200.05
						L140.903-200.05z"/>
					<polygon fill="#F2F2F2" points="127.945,-200.453 127.945,-202.177 153.344,-202.177 153.344,-201.719 					"/>
					<polygon fill="#F2F2F2" points="127.945,-180.469 127.945,-181.75 134.749,-181.111 153.344,-180.469 					"/>
					<polyline fill="#F2F2F2" points="152.993,-202.173 153.344,-202.173 153.344,-180.471 152.993,-180.471 					"/>
				</g>
			</g>
		</g>
		<g id="icon">
			<path fill="#0F7391" d="M122.4,3.697l3.598-3.6h57.6v79.199h-57.599l-3.601-3.6H0v-72H122.4 M115.859,15.701
				c0.664-0.002,1.203-0.543,1.199-1.207c-0.002-0.666-0.541-1.203-1.207-1.201c-0.004,0-0.006,0-0.009,0
				c-0.666,0.002-1.202,0.543-1.2,1.209c0.002,0.664,0.541,1.203,1.207,1.199C115.854,15.701,115.855,15.701,115.859,15.701z
				 M107.355,15.701c0.664-0.002,1.201-0.543,1.199-1.207c0-0.666-0.541-1.203-1.207-1.201c-0.004,0-0.007,0-0.009,0
				c-0.666,0.002-1.202,0.543-1.2,1.209c0,0.664,0.541,1.203,1.207,1.199C107.35,15.701,107.352,15.701,107.355,15.701z
				 M97.2,73.537c0.796,0,1.438-0.646,1.438-1.44c0-0.796-0.643-1.44-1.438-1.44c-0.793,0-1.439,0.645-1.439,1.44
				C95.761,72.892,96.404,73.537,97.2,73.537L97.2,73.537z M90,73.537c0.794,0,1.44-0.646,1.439-1.44c0-0.796-0.647-1.44-1.439-1.44
				s-1.438,0.645-1.438,1.44C88.562,72.892,89.205,73.537,90,73.537L90,73.537z M82.799,73.537c0.795,0,1.441-0.646,1.438-1.44
				c0-0.796-0.645-1.44-1.438-1.44s-1.439,0.645-1.439,1.44C81.36,72.892,82.003,73.537,82.799,73.537L82.799,73.537z
				 M75.598,73.537c0.797,0,1.443-0.646,1.441-1.44c0-0.796-0.644-1.44-1.441-1.44c-0.792,0-1.438,0.645-1.438,1.44
				C74.16,72.892,74.803,73.537,75.598,73.537L75.598,73.537z M69.838,72.097c0-0.796-0.646-1.44-1.438-1.44
				s-1.438,0.645-1.438,1.44c0,0.795,0.643,1.44,1.438,1.44S69.839,72.892,69.838,72.097z M62.639,72.097
				c0-0.796-0.643-1.44-1.439-1.44c-0.793,0-1.439,0.645-1.439,1.44c0,0.795,0.643,1.44,1.439,1.44
				C61.996,73.537,62.639,72.892,62.639,72.097z M55.439,72.097c0-0.796-0.647-1.44-1.439-1.44s-1.438,0.645-1.438,1.44
				c0,0.795,0.643,1.44,1.438,1.44C54.794,73.537,55.44,72.892,55.439,72.097z M46.799,73.537c0.795,0,1.441-0.646,1.438-1.44
				c0-0.796-0.645-1.44-1.438-1.44s-1.439,0.645-1.439,1.44C45.36,72.892,46.003,73.537,46.799,73.537L46.799,73.537z
				 M41.039,72.097c0-0.796-0.644-1.44-1.441-1.44c-0.792,0-1.438,0.645-1.438,1.44c0,0.795,0.643,1.44,1.438,1.44
				C40.395,73.537,41.041,72.892,41.039,72.097z M32.4,73.537c0.795,0,1.439-0.646,1.438-1.44c0-0.796-0.646-1.44-1.438-1.44
				s-1.438,0.645-1.438,1.44C30.962,72.892,31.605,73.537,32.4,73.537L32.4,73.537z M26.639,72.097c0-0.796-0.643-1.44-1.439-1.44
				c-0.793,0-1.439,0.645-1.439,1.44c0,0.795,0.643,1.44,1.439,1.44C25.996,73.537,26.639,72.892,26.639,72.097z M18,73.537
				c0.794,0,1.44-0.645,1.439-1.44c0-0.794-0.647-1.438-1.439-1.438s-1.438,0.643-1.438,1.438
				C16.562,72.892,17.205,73.537,18,73.537L18,73.537z M10.799,73.537c0.795,0,1.441-0.645,1.438-1.44
				c0-0.794-0.645-1.438-1.438-1.438S9.36,71.301,9.36,72.097C9.36,72.892,10.003,73.537,10.799,73.537L10.799,73.537z
				 M5.039,72.097c0-0.794-0.644-1.438-1.441-1.438c-0.792,0-1.438,0.643-1.438,1.438c0,0.795,0.643,1.44,1.438,1.44
				C4.395,73.537,5.041,72.893,5.039,72.097z M152.639,28.899c0-0.793-0.645-1.438-1.439-1.438l0,0
				c-0.793,0-1.439,0.646-1.439,1.438s0.645,1.438,1.439,1.438C151.996,30.338,152.639,29.692,152.639,28.899z M152.639,21.697
				c0-0.793-0.645-1.439-1.439-1.439l0,0c-0.793,0-1.439,0.646-1.439,1.439s0.645,1.439,1.439,1.439
				C151.996,23.137,152.639,22.49,152.639,21.697z M30.237,46.896c0-0.795-0.645-1.439-1.438-1.439s-1.439,0.645-1.439,1.439
				s0.643,1.439,1.439,1.439C29.594,48.336,30.237,47.691,30.237,46.896z M36,48.336c0.794,0,1.439-0.645,1.439-1.439
				S36.792,45.457,36,45.457s-1.438,0.645-1.438,1.439S35.205,48.336,36,48.336L36,48.336z M30.237,39.697
				c0-0.792-0.645-1.439-1.438-1.439s-1.439,0.645-1.439,1.439c0,0.795,0.643,1.44,1.439,1.44
				C29.594,41.137,30.24,40.492,30.237,39.697z M36,41.137c0.794,0,1.44-0.645,1.439-1.44c0-0.792-0.647-1.439-1.439-1.439
				s-1.438,0.645-1.438,1.439C34.562,40.492,35.205,41.137,36,41.137L36,41.137z M30.237,32.498c0-0.795-0.645-1.44-1.438-1.44
				s-1.439,0.646-1.439,1.44s0.643,1.439,1.439,1.439C29.594,33.938,30.24,33.293,30.237,32.498z M36,33.938
				c0.794,0,1.439-0.645,1.439-1.439s-0.647-1.44-1.439-1.44s-1.438,0.646-1.438,1.44S35.205,33.938,36,33.938L36,33.938z
				 M97.204,8.74c0.795-0.002,1.44-0.646,1.438-1.441c-0.002-0.793-0.645-1.439-1.441-1.438c-0.001,0-0.003,0-0.004,0
				c-0.795,0.001-1.438,0.644-1.438,1.438c0.002,0.795,0.646,1.439,1.441,1.439C97.201,8.738,97.204,8.738,97.204,8.74z
				 M90.004,8.74c0.793-0.002,1.439-0.646,1.438-1.441c-0.001-0.793-0.646-1.439-1.441-1.438c-0.001,0-0.002,0-0.004,0
				c-0.794,0.001-1.44,0.644-1.438,1.438C88.56,8.094,89.205,8.738,90,8.738C90.001,8.738,90.002,8.738,90.004,8.74z M82.802,8.74
				c0.794-0.002,1.44-0.646,1.438-1.441c-0.001-0.793-0.645-1.439-1.44-1.438c-0.002,0-0.004,0-0.004,0
				c-0.794,0.001-1.439,0.646-1.438,1.438c0.001,0.795,0.645,1.439,1.441,1.439C82.8,8.738,82.801,8.738,82.802,8.74z M75.605,8.74
				c0.793-0.002,1.438-0.646,1.438-1.441C77.041,6.506,76.397,5.859,75.6,5.86c0,0-0.002,0-0.004,0
				c-0.794,0.001-1.439,0.646-1.438,1.438c0.001,0.795,0.645,1.439,1.44,1.439C75.6,8.738,75.603,8.738,75.605,8.74z M68.404,8.74
				c0.794-0.002,1.44-0.646,1.438-1.441c0-0.793-0.645-1.439-1.44-1.438c-0.002,0-0.003,0-0.004,0
				c-0.794,0.001-1.44,0.644-1.438,1.438c0,0.795,0.645,1.439,1.44,1.439C68.402,8.738,68.402,8.738,68.404,8.74z M61.204,8.74
				c0.795-0.002,1.44-0.646,1.438-1.441c-0.002-0.793-0.644-1.439-1.441-1.438c-0.001,0-0.003,0-0.004,0
				c-0.794,0.001-1.438,0.644-1.438,1.438c0.002,0.795,0.645,1.439,1.441,1.439C61.201,8.738,61.204,8.738,61.204,8.74z
				 M54.004,8.74c0.793-0.002,1.439-0.646,1.438-1.441c-0.001-0.793-0.646-1.439-1.441-1.438c-0.001,0-0.002,0-0.004,0
				c-0.794,0.001-1.44,0.644-1.438,1.438C52.56,8.094,53.205,8.738,54,8.738C54.001,8.738,54.002,8.738,54.004,8.74z M46.802,8.74
				c0.794-0.002,1.44-0.646,1.438-1.441c-0.001-0.793-0.645-1.439-1.44-1.438c-0.002,0-0.004,0-0.004,0
				c-0.794,0.001-1.439,0.646-1.438,1.438c0.001,0.795,0.645,1.439,1.441,1.439C46.8,8.738,46.801,8.738,46.802,8.74z M39.605,8.74
				c0.793-0.002,1.438-0.646,1.438-1.441C41.041,6.506,40.397,5.859,39.6,5.86c0,0-0.002,0-0.004,0
				c-0.794,0.001-1.439,0.646-1.438,1.438c0.001,0.795,0.645,1.439,1.44,1.439C39.6,8.738,39.603,8.738,39.605,8.74z M32.404,8.74
				c0.794-0.002,1.44-0.646,1.438-1.441c0-0.793-0.645-1.439-1.44-1.438c-0.002,0-0.003,0-0.004,0
				c-0.794,0.001-1.44,0.644-1.438,1.438c0,0.795,0.645,1.439,1.44,1.439C32.402,8.738,32.402,8.738,32.404,8.74z M25.204,8.74
				c0.795-0.002,1.44-0.646,1.438-1.441c-0.002-0.793-0.644-1.439-1.441-1.438c-0.001,0-0.003,0-0.004,0
				c-0.794,0.001-1.438,0.644-1.438,1.438c0.002,0.795,0.645,1.439,1.441,1.439C25.201,8.738,25.204,8.738,25.204,8.74z
				 M18.004,8.74c0.793-0.002,1.439-0.646,1.438-1.441c-0.001-0.793-0.646-1.439-1.441-1.438c-0.001,0-0.002,0-0.004,0
				c-0.794,0.001-1.44,0.644-1.438,1.438C16.56,8.094,17.205,8.738,18,8.738C18.001,8.738,18.002,8.738,18.004,8.74z M10.802,8.74
				c0.794-0.002,1.44-0.646,1.438-1.441c-0.001-0.793-0.645-1.439-1.44-1.438c-0.002,0-0.004,0-0.004,0
				c-0.794,0.001-1.439,0.646-1.438,1.438c0.001,0.795,0.645,1.439,1.441,1.439C10.8,8.738,10.801,8.738,10.802,8.74z M3.605,8.74
				c0.793-0.002,1.438-0.646,1.438-1.441C5.041,6.506,4.397,5.859,3.6,5.86c0,0-0.002,0-0.004,0
				C2.802,5.861,2.157,6.506,2.158,7.299c0.001,0.795,0.645,1.439,1.44,1.439C3.6,8.738,3.603,8.738,3.605,8.74z M152.639,54.097
				c0-0.796-0.645-1.44-1.439-1.44c-0.001,0-0.002,0-0.002,0c-0.793,0-1.439,0.646-1.438,1.441s0.646,1.439,1.44,1.439
				C151.996,55.537,152.639,54.892,152.639,54.097z M152.639,46.896c0-0.795-0.645-1.439-1.439-1.439l0,0
				c-0.793,0-1.439,0.645-1.439,1.439s0.645,1.439,1.439,1.439C151.996,48.336,152.639,47.691,152.639,46.896z M113.039,30.697
				c0-0.793-0.645-1.439-1.439-1.439c-0.793,0-1.439,0.646-1.439,1.439s0.645,1.439,1.439,1.439S113.039,31.49,113.039,30.697z
				 M120.238,30.697c0-0.793-0.647-1.439-1.44-1.439s-1.438,0.646-1.438,1.439s0.644,1.439,1.438,1.439
				C119.594,32.137,120.238,31.49,120.238,30.697z M120.236,50.496c0-0.795-0.646-1.439-1.438-1.439s-1.438,0.645-1.438,1.439
				s0.644,1.44,1.438,1.44C119.594,51.937,120.238,51.291,120.236,50.496z M113.039,50.496c0-0.795-0.645-1.439-1.439-1.439
				c-0.793,0-1.439,0.645-1.439,1.439s0.645,1.44,1.439,1.44S113.04,51.291,113.039,50.496z"/>
			<circle id="connector22pin" fill="none" stroke="#9A916C" stroke-width="1.224" cx="97.2" cy="72.097" r="2.052"/>
			<circle id="connector23pin" fill="none" stroke="#9A916C" stroke-width="1.224" cx="90" cy="72.097" r="2.052"/>
			<circle id="connector24pin" fill="none" stroke="#9A916C" stroke-width="1.224" cx="82.798" cy="72.097" r="2.052"/>
			<circle id="connector25pin" fill="none" stroke="#9A916C" stroke-width="1.224" cx="75.6" cy="72.097" r="2.052"/>
			<circle id="connector26pin" fill="none" stroke="#9A916C" stroke-width="1.224" cx="68.399" cy="72.097" r="2.052"/>
			<circle id="connector27pin" fill="none" stroke="#9A916C" stroke-width="1.224" cx="61.2" cy="72.097" r="2.052"/>
			<circle id="connector28pin" fill="none" stroke="#9A916C" stroke-width="1.224" cx="54" cy="72.097" r="2.052"/>
			<circle id="connector29pin" fill="none" stroke="#9A916C" stroke-width="1.224" cx="46.798" cy="72.097" r="2.052"/>
			<circle id="connector30pin" fill="none" stroke="#9A916C" stroke-width="1.224" cx="39.6" cy="72.097" r="2.052"/>
			<circle id="connector31pin" fill="none" stroke="#9A916C" stroke-width="1.224" cx="32.399" cy="72.097" r="2.052"/>
			<circle id="connector32pin" fill="none" stroke="#9A916C" stroke-width="1.224" cx="25.2" cy="72.097" r="2.052"/>
			<circle id="connector33pin" fill="none" stroke="#9A916C" stroke-width="1.224" cx="18" cy="72.097" r="2.052"/>
			<circle id="connector34pin" fill="none" stroke="#9A916C" stroke-width="1.224" cx="10.798" cy="72.097" r="2.052"/>
			<circle id="connector35pin" fill="none" stroke="#9A916C" stroke-width="1.224" cx="3.6" cy="72.097" r="2.052"/>
			<circle id="connector36pin" fill="none" stroke="#9A916C" stroke-width="1.224" cx="151.2" cy="28.897" r="2.052"/>
			<circle id="connector37pin" fill="none" stroke="#9A916C" stroke-width="1.224" cx="151.2" cy="21.697" r="2.052"/>
			<circle id="connector42pin" fill="none" stroke="#9A916C" stroke-width="1.224" cx="28.798" cy="46.896" r="2.052"/>
			<circle id="connector43pin" fill="none" stroke="#9A916C" stroke-width="1.224" cx="36" cy="46.896" r="2.052"/>
			<circle id="connector44pin" fill="none" stroke="#9A916C" stroke-width="1.224" cx="28.798" cy="39.697" r="2.052"/>
			<circle id="connector45pin" fill="none" stroke="#9A916C" stroke-width="1.224" cx="36" cy="39.697" r="2.052"/>
			<circle id="connector46pin" fill="none" stroke="#9A916C" stroke-width="1.224" cx="28.798" cy="32.498" r="2.052"/>
			<circle id="connector47pin" fill="none" stroke="#9A916C" stroke-width="1.224" cx="36" cy="32.498" r="2.052"/>
			<circle id="connector48pin" fill="none" stroke="#9A916C" stroke-width="1.224" cx="97.2" cy="7.297" r="2.052"/>
			<circle id="connector49pin" fill="none" stroke="#9A916C" stroke-width="1.224" cx="90" cy="7.297" r="2.052"/>
			<circle id="connector50pin" fill="none" stroke="#9A916C" stroke-width="1.224" cx="82.798" cy="7.297" r="2.052"/>
			<circle id="connector51pin" fill="none" stroke="#9A916C" stroke-width="1.224" cx="75.6" cy="7.297" r="2.052"/>
			<circle id="connector52pin" fill="none" stroke="#9A916C" stroke-width="1.224" cx="68.399" cy="7.297" r="2.052"/>
			<circle id="connector53pin" fill="none" stroke="#9A916C" stroke-width="1.224" cx="61.2" cy="7.297" r="2.052"/>
			<circle id="connector54pin" fill="none" stroke="#9A916C" stroke-width="1.224" cx="54" cy="7.297" r="2.052"/>
			<circle id="connector55pin" fill="none" stroke="#9A916C" stroke-width="1.224" cx="46.798" cy="7.297" r="2.052"/>
			<circle id="connector56pin" fill="none" stroke="#9A916C" stroke-width="1.224" cx="39.6" cy="7.297" r="2.052"/>
			<circle id="connector57pin" fill="none" stroke="#9A916C" stroke-width="1.224" cx="32.399" cy="7.297" r="2.052"/>
			<circle id="connector58pin" fill="none" stroke="#9A916C" stroke-width="1.224" cx="25.2" cy="7.297" r="2.052"/>
			<circle id="connector59pin" fill="none" stroke="#9A916C" stroke-width="1.224" cx="18" cy="7.297" r="2.052"/>
			<circle id="connector60pin" fill="none" stroke="#9A916C" stroke-width="1.224" cx="10.798" cy="7.297" r="2.052"/>
			<circle id="connector61pin" fill="none" stroke="#9A916C" stroke-width="1.224" cx="3.6" cy="7.297" r="2.052"/>
			<circle id="connector62pin" fill="none" stroke="#9A916C" stroke-width="1.224" cx="151.2" cy="54.097" r="2.052"/>
			<circle id="connector63pin" fill="none" stroke="#9A916C" stroke-width="1.224" cx="151.2" cy="46.896" r="2.052"/>
			<circle id="connector64pin" fill="none" stroke="#9A916C" stroke-width="1.224" cx="111.6" cy="30.697" r="2.052"/>
			<circle id="connector65pin" fill="none" stroke="#9A916C" stroke-width="1.224" cx="118.8" cy="30.697" r="2.052"/>
			<circle id="connector66pin" fill="none" stroke="#9A916C" stroke-width="1.224" cx="118.8" cy="50.496" r="2.052"/>
			<circle id="connector67pin" fill="none" stroke="#9A916C" stroke-width="1.224" cx="111.6" cy="50.496" r="2.052"/>
			<g>
				<title>layer 21</title>
				<g>
					<title>text:D2</title>
					
						<text transform="matrix(-4.371139e-008 1 -1 -4.371139e-008 80.998 60.626)" fill="#FFFFFF" font-family="'OCRA'" font-size="4.176">D2</text>
				</g>
				<g>
					<title>text:D3*</title>
					
						<text transform="matrix(-4.371139e-008 1 -1 -4.371139e-008 73.7988 57.6074)" fill="#FFFFFF" font-family="'OCRA'" font-size="4.176">D3*</text>
				</g>
				<g>
					<title>text:D4</title>
					
						<text transform="matrix(-4.371139e-008 1 -1 -4.371139e-008 66.5996 60.626)" fill="#FFFFFF" font-family="'OCRA'" font-size="4.176">D4</text>
				</g>
				<g>
					<title>text:D5*</title>
					
						<text transform="matrix(-4.371139e-008 1 -1 -4.371139e-008 59.4004 57.6074)" fill="#FFFFFF" font-family="'OCRA'" font-size="4.176">D5*</text>
				</g>
				<g>
					<title>text:D6*</title>
					
						<text transform="matrix(-4.371139e-008 1 -1 -4.371139e-008 52.2012 57.6074)" fill="#FFFFFF" font-family="'OCRA'" font-size="4.176">D6*</text>
				</g>
				<g>
					<title>text:D7</title>
					
						<text transform="matrix(-4.371139e-008 1 -1 -4.371139e-008 44.998 60.626)" fill="#FFFFFF" font-family="'OCRA'" font-size="4.176">D7</text>
				</g>
				<g>
					<title>text:D8</title>
					
						<text transform="matrix(-4.371139e-008 1 -1 -4.371139e-008 37.7988 60.626)" fill="#FFFFFF" font-family="'OCRA'" font-size="4.176">D8</text>
				</g>
				<g>
					<title>text:D9*</title>
					
						<text transform="matrix(-4.371139e-008 1 -1 -4.371139e-008 30.5996 57.6074)" fill="#FFFFFF" font-family="'OCRA'" font-size="4.176">D9*</text>
				</g>
				<g>
					<title>text:D10*</title>
					
						<text transform="matrix(-4.371139e-008 1 -1 -4.371139e-008 23.4004 54.5879)" fill="#FFFFFF" font-family="'OCRA'" font-size="4.176">D10*</text>
				</g>
				<g>
					<title>text:D11*</title>
					
						<text transform="matrix(-4.371139e-008 1 -1 -4.371139e-008 16.1992 54.5879)" fill="#FFFFFF" font-family="'OCRA'" font-size="4.176">D11*</text>
				</g>
				<g>
					<title>text:A0</title>
					
						<text transform="matrix(-4.371139e-008 1 -1 -4.371139e-008 51.623 12.041)" fill="#FFFFFF" font-family="'OCRA'" font-size="4.176">A0</text>
				</g>
				<g>
					<title>text:A1</title>
					
						<text transform="matrix(-4.371139e-008 1 -1 -4.371139e-008 44.4238 12.041)" fill="#FFFFFF" font-family="'OCRA'" font-size="4.176">A1</text>
				</g>
				<g>
					<title>text:A2</title>
					
						<text transform="matrix(-4.371139e-008 1 -1 -4.371139e-008 37.2246 12.041)" fill="#FFFFFF" font-family="'OCRA'" font-size="4.176">A2</text>
				</g>
				<g>
					<title>text:A3</title>
					
						<text transform="matrix(-4.371139e-008 1 -1 -4.371139e-008 30.0215 12.041)" fill="#FFFFFF" font-family="'OCRA'" font-size="4.176">A3</text>
				</g>
				<g>
					<title>text:A4</title>
					
						<text transform="matrix(-4.371139e-008 1 -1 -4.371139e-008 22.8242 12.041)" fill="#FFFFFF" font-family="'OCRA'" font-size="4.176">A4</text>
				</g>
				<g>
					<title>text:A5</title>
					
						<text transform="matrix(-4.371139e-008 1 -1 -4.371139e-008 15.623 12.041)" fill="#FFFFFF" font-family="'OCRA'" font-size="4.176">A5</text>
				</g>
				<g>
					<title>text:A6</title>
					
						<text transform="matrix(-4.371139e-008 1 -1 -4.371139e-008 8.4238 12.041)" fill="#FFFFFF" font-family="'OCRA'" font-size="4.176">A6</text>
				</g>
				<g>
					<title>text:A7</title>
					
						<text transform="matrix(-4.371139e-008 1 -1 -4.371139e-008 1.2246 12.041)" fill="#FFFFFF" font-family="'OCRA'" font-size="4.176">A7</text>
				</g>
				<g>
					<title>text:D12</title>
					
						<text transform="matrix(-4.371139e-008 1 -1 -4.371139e-008 8.998 57.6074)" fill="#FFFFFF" font-family="'OCRA'" font-size="4.176">D12</text>
				</g>
				<g>
					<title>text:D13</title>
					
						<text transform="matrix(-4.371139e-008 1 -1 -4.371139e-008 1.7988 57.6074)" fill="#FFFFFF" font-family="'OCRA'" font-size="4.176">D13</text>
				</g>
				<g>
					<title>text:GND</title>
					
						<text transform="matrix(-4.371139e-008 1 -1 -4.371139e-008 88.1992 57.6074)" fill="#FFFFFF" font-family="'OCRA'" font-size="4.176">GND</text>
				</g>
				<g>
					<title>text:3V3</title>
					
						<text transform="matrix(-4.371139e-008 1 -1 -4.371139e-008 95.4004 57.6074)" fill="#FFFFFF" font-family="'OCRA'" font-size="4.176">3V3</text>
				</g>
				<g>
					<title>text:GND</title>
					
						<text transform="matrix(-4.371139e-008 1 -1 -4.371139e-008 94.8242 12.041)" fill="#FFFFFF" font-family="'OCRA'" font-size="4.176">GND</text>
				</g>
				<g>
					<title>text:AREF</title>
					
						<text transform="matrix(-4.371139e-008 1 -1 -4.371139e-008 87.623 12.041)" fill="#FFFFFF" font-family="'OCRA'" font-size="4.176">AREF</text>
				</g>
				<g>
					<title>text:3V3</title>
					
						<text transform="matrix(-4.371139e-008 1 -1 -4.371139e-008 80.4238 12.041)" fill="#FFFFFF" font-family="'OCRA'" font-size="4.176">3V3</text>
				</g>
				<g>
					<title>text:RXI</title>
					
						<text transform="matrix(-4.371139e-008 1 -1 -4.371139e-008 73.2246 12.041)" fill="#FFFFFF" font-family="'OCRA'" font-size="4.176">RXI</text>
				</g>
				<g>
					<title>text:TXO</title>
					
						<text transform="matrix(-4.371139e-008 1 -1 -4.371139e-008 66.0215 12.041)" fill="#FFFFFF" font-family="'OCRA'" font-size="4.176">TXO</text>
				</g>
				<g>
					<title>text:DTR</title>
					
						<text transform="matrix(-4.371139e-008 1 -1 -4.371139e-008 58.8242 12.041)" fill="#FFFFFF" font-family="'OCRA'" font-size="4.176">DTR</text>
				</g>
				<g>
					<title>text:S. Kobayashi and N. Seidle</title>
				</g>
				<g>
					<title>text:Arduino Fio Reference Design</title>
				</g>
				<g>
					<title>element:JP2</title>
					<g>
						<title>package:1X02</title>
					</g>
				</g>
				<g>
					<title>element:JP3</title>
					<g>
						<title>package:S2B-PH</title>
					</g>
				</g>
				<g>
					<title>element:JP6</title>
					<g>
						<title>package:1X02</title>
					</g>
				</g>
				<g>
					<title>element:JP7</title>
					<g>
						<title>package:1X02</title>
					</g>
				</g>
				<g>
					<title>element:TP1</title>
					<g>
						<title>package:PAD.03X.05</title>
					</g>
				</g>
				<g>
					<title>element:TP2</title>
					<g>
						<title>package:PAD.03X.05</title>
					</g>
				</g>
				<g>
					<title>element:U$1</title>
					<g>
						<title>package:SFE-NEW-WEBLOGO</title>
					</g>
				</g>
				<g>
					<title>element:U$4</title>
					<g>
						<title>package:FIDUCIAL-1X2</title>
					</g>
				</g>
				<g>
					<title>element:U$5</title>
					<g>
						<title>package:FIDUCIAL-1X2</title>
					</g>
				</g>
				<g>
					<title>element:U$6</title>
					<g>
						<title>package:FUNNEL_LOGO_BOTTOM_V2</title>
					</g>
				</g>
				<g>
					<title>element:U4</title>
					<g>
						<title>package:XBEE-SMD</title>
					</g>
				</g>
			</g>
		</g>
	</g>
</g>
</svg>
