<?xml version="1.0" encoding="UTF-8"?>
<!-- Created with Inkscape (http://www.inkscape.org/) -->
<svg width="51.783" height="42.753" version="1.2" viewBox="0 0 41.426 34.203" xmlns="http://www.w3.org/2000/svg">
 <desc oldid="0.0">
  <referenceFile oldid="0.0.0">relay_reloaded.svg</referenceFile>
 </desc>
  <g id="breadboard">
  <g transform="scale(-1,1)" fill="none">
   <rect id="connector5pin" x="-41.365" y=".0014839" width="1.6114" height="2.2373"/>
   <rect id="connector5terminal" x="-41.365" y=".0014839" width="1.6114" height=".40382"/>
   <rect x="-41.365" y="31.967" width="1.6125" height="2.2358"/>
   <rect id="connector0terminal" x="-41.365" y="33.799" width="1.6125" height=".40233"/>
  </g>
  <rect x="39.775" y="31.967" width="1.6125" height="2.2358" fill="none"/>
  <rect id="connector2terminal" x="39.775" y="33.799" width="1.6125" height=".40233" fill="none"/>
  <rect x="-2.8483e-5" y="1.0467" width="41.426" height="32.108" fill="#2d2d2d"/>
  <path d="m40.558 4.3024v5.6445c0 0.95016-0.58042 1.7281-1.2918 1.7281h-3.6124" fill="none" stroke="#606060" stroke-width=".9627"/>
  <g transform="matrix(-1.1098 0 0 1.4846 41.396 1.0497e-6)" fill="#b23820">
   <polygon points="2.01 8.17 2.365 8.945 4.616 8.945 4.969 8.17"/>
   <polygon points="2.248 13.163 2.749 13.852 4.956 13.408 5.15 12.579"/>
   <polygon points="5.025 11.966 4.524 11.278 2.318 11.721 2.123 12.55"/>
  </g>
  <path d="m40.558 33.083v-9.2596c0-0.95164-0.58042-1.7266-1.2918-1.7266h-3.6124" fill="none" stroke="#606060" stroke-width=".9627"/>
  <g transform="matrix(-1.1098 0 0 1.4846 41.396 1.0497e-6)">
   <polygon points="2.01 14.577 2.365 13.802 4.616 13.802 4.969 14.577" fill="#b23820"/>
  </g>
  <g transform="scale(-1,1)">
   <rect id="connector0pin" x="-41.396" y="31.961" width="1.6758" height="2.2418" fill="#8c8c8c"/>
  </g>
  <line x1="26.577" x2="1.4" y1="16.745" y2="16.745" fill="none" stroke="#494949" stroke-width=".9627"/>
  <line id="0.18" x1="1.5" x2="1.5" y1="16.745" y2="1.7391" fill="none" stroke="#606060" stroke-width=".95"/>
  <g id="0.17" transform="scale(-1,1)">
   <rect id="connector3pin" x="-2.3343" width="1.6319" height="2.2418" fill="#8c8c8c"/>
  </g>
  <line x1="1.5" x2="1.5" y1="16.745" y2="32.739" fill="none" stroke="#606060" stroke-width=".95"/>
  <g transform="scale(-1,1)">
   <rect id="connector2pin" x="-2.3343" y="32.037" width="1.6319" height="2.2418" fill="#8c8c8c"/>
  </g>
  <line x1="40.557" x2="40.558" y1="1.7355" y2="4.3024" fill="none" stroke="#606060" stroke-linecap="round" stroke-width=".9627"/>
  <line x1="39.088" x2="29.426" y1="19.132" y2="16.739" fill="none" stroke="#7c7c7c" stroke-width=".9627"/>
  <path d="m28.443 18.487c0.72026 0 1.3073-0.78536 1.3073-1.7489 0-0.96352-0.58597-1.7474-1.3073-1.7474-0.72137 0-1.3073 0.78388-1.3073 1.7474-1e-3 0.96352 0.58597 1.7489 1.3073 1.7489z" fill="#333"/>
  <path d="m28.443 15.424c-0.54269 0-0.98439 0.58791-0.98439 1.3154 0 0.7245 0.4417 1.3154 0.98439 1.3154 0.54269 0 0.98439-0.58791 0.98439-1.3154 0-0.72746-0.44281-1.3154-0.98439-1.3154m0-0.86405c0.90004 0 1.6303 0.9754 1.6303 2.1794 0 1.204-0.72914 2.1794-1.6303 2.1794-0.90115 0-1.6303-0.9754-1.6303-2.1794-1e-3 -1.204 0.72914-2.1794 1.6303-2.1794z" fill="#606060"/>
  <g transform="scale(-1,1)">
   <rect x="-41.396" y="-3.5527e-15" width="1.6758" height="2.2418" fill="#8c8c8c"/>
  </g>
  <g transform="matrix(-1.1098 0 0 1.4846 38.315 -1.2471)">
   <rect id="connector4pin" x="7.314" y=".841" width="1.454" height="1.507" fill="none"/>
   <rect id="connector4terminal" x="7.314" y=".841" width="1.453" height=".272" fill="none"/>
   <rect x="7.314" y="22.372" width="1.452" height="1.506" fill="none"/>
   <rect id="connector1terminal" x="7.314" y="23.606" width="1.452" height=".271" fill="none"/>
   <path d="m22.797 15.132c0.921 0.607-6.856 0.787-7.891 0.683" fill="none" stroke="#752119" stroke-linecap="round" stroke-width=".75"/>
   <path d="m22.797 15.975c0.933 0.611-6.871 0.78-7.891 0.682" fill="none" stroke="#752119" stroke-linecap="round" stroke-width=".75"/>
   <path d="m22.797 16.819c0.922 0.602-6.86 0.782-7.891 0.678" fill="none" stroke="#752119" stroke-linecap="round" stroke-width=".75"/>
   <path d="m22.797 17.661c0.521 0.34-2.353 0.962-7.891 0.962" fill="none" stroke="#752119" stroke-linecap="round" stroke-width=".75"/>
   <path d="m22.797 11.763c0.921 0.606-6.854 0.785-7.891 0.682" fill="none" stroke="#752119" stroke-linecap="round" stroke-width=".75"/>
   <path d="m22.797 12.606c0.93 0.608-6.868 0.778-7.891 0.68" fill="none" stroke="#752119" stroke-linecap="round" stroke-width=".75"/>
   <path d="m22.797 13.448c0.925 0.603-6.86 0.785-7.891 0.681" fill="none" stroke="#752119" stroke-linecap="round" stroke-width=".75"/>
   <path d="m22.797 14.29c0.916 0.601-6.845 0.789-7.891 0.681" fill="none" stroke="#752119" stroke-linecap="round" stroke-width=".75"/>
   <path d="m22.797 8.393c0.911 0.603-6.845 0.789-7.891 0.682" fill="none" stroke="#752119" stroke-linecap="round" stroke-width=".75"/>
   <path d="m22.797 9.236c0.921 0.604-6.854 0.786-7.891 0.683" fill="none" stroke="#752119" stroke-linecap="round" stroke-width=".75"/>
   <path d="m22.797 10.079c0.929 0.606-6.867 0.782-7.891 0.679" fill="none" stroke="#752119" stroke-linecap="round" stroke-width=".75"/>
   <path d="m22.797 10.921c0.931 0.611-6.877 0.782-7.891 0.682" fill="none" stroke="#752119" stroke-linecap="round" stroke-width=".75"/>
   <path d="m22.655 6.71c0.924 0.604-6.72 0.781-7.75 0.679" fill="none" stroke="#752119" stroke-linecap="round" stroke-width=".75"/>
   <path d="m22.797 7.551c0.933 0.61-6.871 0.778-7.891 0.679" fill="none" stroke="#752119" stroke-linecap="round" stroke-width=".75"/>
   <path d="m14.906 7.412c2.514-0.527 5.224-0.594 7.967 0.25" fill="none" stroke="#b23820" stroke-linecap="round" stroke-width=".75"/>
   <path d="m14.906 8.251c2.514-0.527 5.224-0.594 7.967 0.25" fill="none" stroke="#b23820" stroke-linecap="round" stroke-width=".75"/>
   <path d="m14.906 9.09c2.514-0.528 5.224-0.594 7.967 0.25" fill="none" stroke="#b23820" stroke-linecap="round" stroke-width=".75"/>
   <path d="m14.906 9.928c2.514-0.528 5.224-0.595 7.967 0.25" fill="none" stroke="#b23820" stroke-linecap="round" stroke-width=".75"/>
   <path d="m14.906 10.768c2.514-0.528 5.224-0.595 7.967 0.249" fill="none" stroke="#b23820" stroke-linecap="round" stroke-width=".75"/>
   <path d="m14.906 11.608c2.514-0.528 5.224-0.595 7.967 0.249" fill="none" stroke="#b23820" stroke-linecap="round" stroke-width=".75"/>
   <path d="m14.906 12.447c2.514-0.528 5.224-0.595 7.967 0.249" fill="none" stroke="#b23820" stroke-linecap="round" stroke-width=".75"/>
   <path d="m14.906 13.287c2.514-0.528 5.224-0.595 7.967 0.249" fill="none" stroke="#b23820" stroke-linecap="round" stroke-width=".75"/>
   <path d="m14.906 14.125c2.514-0.528 5.224-0.595 7.967 0.249" fill="none" stroke="#b23820" stroke-linecap="round" stroke-width=".75"/>
   <path d="m14.906 14.964c2.514-0.527 5.224-0.594 7.967 0.25" fill="none" stroke="#b23820" stroke-linecap="round" stroke-width=".75"/>
   <path d="m14.906 15.803c2.514-0.527 5.224-0.595 7.967 0.249" fill="none" stroke="#b23820" stroke-linecap="round" stroke-width=".75"/>
   <path d="m14.906 16.643c2.514-0.527 5.224-0.595 7.967 0.249" fill="none" stroke="#b23820" stroke-linecap="round" stroke-width=".75"/>
   <path d="m14.906 17.495c2.514-0.527 5.224-0.595 7.967 0.249" fill="none" stroke="#b23820" stroke-linecap="round" stroke-width=".75"/>
   <path d="m14.906 6.155c3.955 0 5.637-0.087 7.923 0.622" fill="none" stroke="#b23820" stroke-linecap="round" stroke-width=".75"/>
   <path d="m8.088 23.124v-3.312c0-0.641 0.523-1.164 1.164-1.164h5.653" fill="none" stroke="#752119" stroke-linecap="round" stroke-width=".7311"/>
   <path d="m8.088 2.009v2.982c0 0.64 0.523 1.164 1.164 1.164h5.653" fill="none" stroke="#b23820" stroke-linecap="round" stroke-width=".75"/>
   <rect id="connector1pin" x="7.275" y="22.368" width="1.51" height="1.51" fill="#8c8c8c"/>
   <rect x="7.275" y=".84" width="1.51" height="1.51" fill="#8c8c8c"/>
  </g>
 </g>
</svg>
