<?xml version="1.0" encoding="utf-8"?>
<!-- Generator: Adobe Illustrator 16.0.0, SVG Export Plug-In . SVG Version: 6.00 Build 0)  -->
<!DOCTYPE svg PUBLIC "-//W3C//DTD SVG 1.1//EN" "http://www.w3.org/Graphics/SVG/1.1/DTD/svg11.dtd">
<svg version="1.1" id="Layer_1" xmlns="http://www.w3.org/2000/svg" xmlns:xlink="http://www.w3.org/1999/xlink" x="0px" y="0px"
	 width="128.88px" height="57.6px" viewBox="-0.021 0 128.88 57.6" enable-background="new -0.021 0 128.88 57.6"
	 xml:space="preserve">
<desc>Fritzing breadboard generated by brd2svg</desc>
<g id="breadboard">
	<g id="icon">
		<path fill="#2DB6B8" d="M0,22.32v12.96C0,47.607,9.993,57.6,22.321,57.6h84.196c12.327,0,22.32-9.993,22.32-22.32V22.32
			C128.837,9.993,118.844,0,106.517,0H22.321C9.993,0,0,9.993,0,22.32 M76.637,39.6c-0.001-0.795,0.644-1.438,1.438-1.438
			c0.795-0.005,1.438,0.643,1.438,1.438c0,0.001,0,0.003,0,0.004c0.002,0.795-0.646,1.441-1.438,1.442
			c-0.795,0.001-1.439-0.646-1.44-1.438C76.637,39.603,76.637,39.601,76.637,39.6z M86.717,3.6
			c-0.001-0.795,0.643-1.438,1.438-1.438c0.795-0.005,1.438,0.643,1.438,1.438c0,0.001,0,0.003,0,0.004
			c0.001,0.795-0.646,1.441-1.438,1.442c-0.795,0-1.438-0.646-1.439-1.439C86.717,3.603,86.717,3.601,86.717,3.6z M86.717,10.8
			c-0.001-0.795,0.643-1.441,1.438-1.442c0.795-0.001,1.438,0.646,1.438,1.438c0,0.001,0,0.003,0,0.004
			c0.001,0.795-0.646,1.438-1.438,1.442c-0.795,0.001-1.439-0.646-1.44-1.438C86.717,10.803,86.717,10.801,86.717,10.8z M86.717,18
			c-0.001-0.796,0.643-1.441,1.438-1.442c0.795-0.001,1.438,0.646,1.438,1.438c0,0.001,0,0.002,0,0.004
			c0.001,0.795-0.646,1.438-1.438,1.438c-0.795,0.001-1.439-0.643-1.44-1.438C86.717,18.002,86.717,18.001,86.717,18z M86.717,25.2
			c-0.001-0.799,0.643-1.441,1.438-1.442c0.795-0.001,1.438,0.643,1.438,1.438c0,0.002,0,0.003,0,0.008
			c0.001,0.795-0.646,1.438-1.438,1.438c-0.795,0.001-1.439-0.643-1.44-1.438C86.717,25.202,86.717,25.201,86.717,25.2z
			 M86.717,32.4c-0.001-0.795,0.643-1.438,1.438-1.438c0.795-0.001,1.438,0.643,1.438,1.438c0,0.002,0,0.003,0,0.004
			c0.001,0.796-0.646,1.441-1.438,1.442c-0.795,0.001-1.439-0.643-1.44-1.438C86.717,32.403,86.717,32.402,86.717,32.4z
			 M86.717,39.6c-0.001-0.795,0.643-1.438,1.438-1.438c0.795-0.005,1.438,0.643,1.438,1.438c0,0.001,0,0.003,0,0.004
			c0.001,0.795-0.646,1.441-1.438,1.442c-0.795,0.001-1.439-0.646-1.44-1.438C86.717,39.603,86.717,39.601,86.717,39.6z
			 M86.717,46.8c-0.001-0.795,0.643-1.441,1.438-1.442c0.795-0.001,1.438,0.646,1.438,1.438c0,0.001,0,0.003,0,0.004
			c0.001,0.795-0.646,1.438-1.438,1.442c-0.795,0.001-1.439-0.646-1.44-1.438C86.717,46.803,86.717,46.801,86.717,46.8z M86.717,54
			c-0.001-0.796,0.643-1.441,1.438-1.442c0.795-0.001,1.438,0.646,1.438,1.438c0,0.001,0,0.002,0,0.004
			c0.001,0.795-0.646,1.438-1.438,1.438c-0.795,0.001-1.439-0.643-1.44-1.438C86.717,54.002,86.717,54.001,86.717,54z M93.917,3.6
			c-0.002-0.795,0.643-1.438,1.438-1.438c0.796-0.005,1.441,0.643,1.442,1.438c0,0.001,0,0.003,0,0.004
			c0.001,0.795-0.644,1.441-1.438,1.442c-0.795,0-1.441-0.646-1.441-1.439C93.917,3.603,93.917,3.601,93.917,3.6z M101.117,3.6
			c0-0.795,0.646-1.438,1.438-1.438c0.796-0.005,1.44,0.643,1.442,1.438c0,0.001,0,0.003,0,0.004c0,0.795-0.646,1.441-1.438,1.442
			s-1.44-0.646-1.44-1.438C101.117,3.603,101.117,3.601,101.117,3.6z M93.917,25.2c-0.002-0.799,0.643-1.441,1.438-1.442
			c0.796-0.001,1.441,0.643,1.442,1.438c0,0.002,0,0.003,0,0.008c0.001,0.795-0.644,1.438-1.438,1.438
			c-0.796,0.001-1.441-0.643-1.441-1.438C93.917,25.202,93.917,25.201,93.917,25.2z M93.917,10.8
			c-0.002-0.795,0.643-1.441,1.438-1.442c0.796-0.001,1.441,0.646,1.442,1.438c0,0.001,0,0.003,0,0.004
			c0.001,0.795-0.644,1.438-1.438,1.442c-0.796,0.001-1.441-0.646-1.441-1.438C93.917,10.803,93.917,10.801,93.917,10.8z
			 M101.117,10.8c0-0.795,0.646-1.441,1.438-1.442c0.796-0.001,1.44,0.646,1.442,1.438c0,0.001,0,0.003,0,0.004
			c0,0.795-0.646,1.438-1.438,1.442c-0.795,0.001-1.44-0.646-1.44-1.438C101.117,10.803,101.117,10.801,101.117,10.8z M101.117,25.2
			c0-0.799,0.646-1.441,1.438-1.442c0.796-0.001,1.44,0.643,1.442,1.438c0,0.002,0,0.003,0,0.008c0,0.795-0.646,1.438-1.438,1.438
			s-1.44-0.643-1.44-1.438C101.117,25.202,101.117,25.201,101.117,25.2z M93.917,18c-0.002-0.796,0.643-1.441,1.438-1.442
			c0.796-0.001,1.441,0.646,1.442,1.438c0,0.001,0,0.002,0,0.004c0.001,0.795-0.644,1.438-1.438,1.438
			C94.563,19.44,93.917,18.796,93.917,18C93.917,18.002,93.917,18.001,93.917,18z M101.117,18c0-0.796,0.646-1.441,1.438-1.442
			c0.796-0.001,1.44,0.646,1.442,1.438c0,0.001,0,0.002,0,0.004c0,0.795-0.646,1.438-1.438,1.438s-1.44-0.643-1.44-1.438
			C101.117,18.002,101.117,18.001,101.117,18z M93.917,54c-0.002-0.796,0.643-1.441,1.438-1.442
			c0.796-0.001,1.441,0.646,1.442,1.438c0,0.001,0,0.002,0,0.004c0.001,0.795-0.644,1.438-1.438,1.438
			C94.563,55.44,93.917,54.796,93.917,54C93.917,54.002,93.917,54.001,93.917,54z M93.917,46.8
			c-0.002-0.795,0.643-1.441,1.438-1.442c0.796-0.001,1.441,0.646,1.442,1.438c0,0.001,0,0.003,0,0.004
			c0.001,0.795-0.644,1.438-1.438,1.442c-0.796,0.001-1.441-0.646-1.441-1.438C93.917,46.803,93.917,46.801,93.917,46.8z
			 M93.917,39.6c-0.002-0.795,0.643-1.438,1.438-1.438c0.796-0.005,1.441,0.643,1.442,1.438c0,0.001,0,0.003,0,0.004
			c0.001,0.795-0.644,1.441-1.438,1.442c-0.796,0.001-1.441-0.646-1.441-1.438C93.917,39.603,93.917,39.601,93.917,39.6z
			 M93.917,32.4c-0.002-0.795,0.643-1.438,1.438-1.438c0.796-0.001,1.441,0.643,1.442,1.438c0,0.002,0,0.003,0,0.004
			c0.001,0.796-0.644,1.441-1.438,1.442c-0.796,0.001-1.441-0.643-1.441-1.438C93.917,32.403,93.917,32.402,93.917,32.4z
			 M108.318,18c-0.002-0.796,0.643-1.441,1.438-1.442c0.795-0.001,1.44,0.646,1.442,1.438c0,0.001,0,0.002,0,0.004
			c0,0.795-0.646,1.438-1.438,1.438s-1.44-0.643-1.44-1.438C108.318,18.002,108.318,18.001,108.318,18z M101.117,54
			c0-0.796,0.646-1.441,1.438-1.442c0.796-0.001,1.44,0.646,1.442,1.438c0,0.001,0,0.002,0,0.004c0,0.795-0.646,1.438-1.438,1.438
			s-1.44-0.643-1.44-1.438C101.117,54.002,101.117,54.001,101.117,54z M101.117,46.8c0-0.795,0.646-1.441,1.438-1.442
			c0.796-0.001,1.44,0.646,1.442,1.438c0,0.001,0,0.003,0,0.004c0,0.795-0.646,1.438-1.438,1.442
			c-0.795,0.001-1.44-0.646-1.44-1.438C101.117,46.803,101.117,46.801,101.117,46.8z M101.117,39.6c0-0.795,0.646-1.438,1.438-1.438
			c0.796-0.005,1.44,0.643,1.442,1.438c0,0.001,0,0.003,0,0.004c0,0.795-0.646,1.441-1.438,1.442s-1.44-0.646-1.44-1.438
			C101.117,39.603,101.117,39.601,101.117,39.6z M101.117,32.4c0-0.795,0.646-1.438,1.438-1.438c0.796-0.001,1.44,0.643,1.442,1.438
			c0,0.002,0,0.003,0,0.004c0,0.796-0.646,1.441-1.438,1.442s-1.44-0.643-1.44-1.438C101.117,32.403,101.117,32.402,101.117,32.4z
			 M108.318,10.8c-0.002-0.795,0.643-1.441,1.438-1.442c0.795-0.001,1.44,0.646,1.442,1.438c0,0.001,0,0.003,0,0.004
			c0,0.795-0.646,1.438-1.438,1.442c-0.795,0.001-1.44-0.646-1.44-1.438C108.318,10.803,108.318,10.801,108.318,10.8z M108.318,25.2
			c-0.002-0.799,0.643-1.441,1.438-1.442c0.795-0.001,1.44,0.643,1.442,1.438c0,0.002,0,0.003,0,0.008
			c0,0.795-0.646,1.438-1.438,1.438s-1.44-0.643-1.44-1.438C108.318,25.202,108.318,25.201,108.318,25.2z M108.318,46.8
			c-0.002-0.795,0.643-1.441,1.438-1.442c0.795-0.001,1.44,0.646,1.442,1.438c0,0.001,0,0.003,0,0.004
			c0,0.795-0.646,1.438-1.438,1.442c-0.795,0.001-1.44-0.646-1.44-1.438C108.318,46.803,108.318,46.801,108.318,46.8z M108.318,39.6
			c-0.002-0.795,0.643-1.438,1.438-1.438c0.795-0.005,1.44,0.643,1.442,1.438c0,0.001,0,0.003,0,0.004
			c0,0.795-0.646,1.441-1.438,1.442s-1.44-0.646-1.44-1.438C108.318,39.603,108.318,39.601,108.318,39.6z M108.318,32.4
			c-0.002-0.795,0.643-1.438,1.438-1.438c0.795-0.001,1.44,0.643,1.442,1.438c0,0.002,0,0.003,0,0.004
			c0,0.796-0.646,1.441-1.438,1.442s-1.44-0.643-1.44-1.438C108.318,32.403,108.318,32.402,108.318,32.4z M115.517,10.8
			c-0.001-0.795,0.645-1.441,1.438-1.442c0.795-0.001,1.44,0.646,1.441,1.438c0,0.001,0,0.003,0,0.004
			c0.002,0.795-0.643,1.438-1.438,1.442c-0.795,0.001-1.44-0.646-1.442-1.438C115.517,10.803,115.517,10.801,115.517,10.8z
			 M115.517,18c-0.001-0.796,0.645-1.441,1.438-1.442c0.795-0.001,1.44,0.646,1.441,1.438c0,0.001,0,0.002,0,0.004
			c0.002,0.795-0.643,1.438-1.438,1.438S115.518,18.796,115.517,18C115.517,18.002,115.517,18.001,115.517,18z M115.517,39.6
			c-0.001-0.795,0.645-1.438,1.438-1.438c0.795-0.005,1.44,0.643,1.441,1.438c0,0.001,0,0.003,0,0.004
			c0.002,0.795-0.643,1.441-1.438,1.442s-1.44-0.646-1.442-1.438C115.517,39.603,115.517,39.601,115.517,39.6z M115.517,25.2
			c-0.001-0.799,0.645-1.441,1.438-1.442c0.795-0.001,1.44,0.643,1.441,1.438c0,0.002,0,0.003,0,0.008
			c0.002,0.795-0.643,1.438-1.438,1.438s-1.44-0.643-1.442-1.438C115.517,25.202,115.517,25.201,115.517,25.2z M115.517,46.8
			c-0.001-0.795,0.645-1.441,1.438-1.442c0.795-0.001,1.44,0.646,1.441,1.438c0,0.001,0,0.003,0,0.004
			c0.002,0.795-0.643,1.438-1.438,1.442c-0.795,0.001-1.44-0.646-1.442-1.438C115.517,46.803,115.517,46.801,115.517,46.8z
			 M115.517,32.4c-0.001-0.795,0.645-1.438,1.438-1.438c0.795-0.001,1.44,0.643,1.441,1.438c0,0.002,0,0.003,0,0.004
			c0.002,0.796-0.643,1.441-1.438,1.442s-1.44-0.643-1.442-1.438C115.517,32.403,115.517,32.402,115.517,32.4z M108.318,3.6
			c-0.002-0.795,0.643-1.438,1.438-1.438c0.795-0.005,1.44,0.643,1.442,1.438c0,0.001,0,0.003,0,0.004
			c0,0.795-0.646,1.441-1.438,1.442s-1.44-0.646-1.44-1.438C108.318,3.603,108.318,3.601,108.318,3.6z M122.717,18
			c0-0.796,0.646-1.44,1.44-1.44c0.793,0,1.438,0.646,1.438,1.44s-0.646,1.438-1.438,1.438C123.361,19.44,122.717,18.795,122.717,18
			z M108.318,54c-0.002-0.796,0.643-1.441,1.438-1.442c0.795-0.001,1.44,0.646,1.442,1.438c0,0.001,0,0.002,0,0.004
			c0,0.795-0.646,1.438-1.438,1.438s-1.44-0.643-1.44-1.438C108.318,54.002,108.318,54.001,108.318,54z M122.717,25.2
			c0-0.799,0.646-1.44,1.44-1.44c0.793,0,1.438,0.645,1.438,1.44l0,0c0,0.795-0.646,1.438-1.438,1.438
			C123.361,26.64,122.717,25.995,122.717,25.2z M122.717,32.4c0-0.795,0.646-1.438,1.44-1.438c0.793,0,1.438,0.645,1.438,1.438l0,0
			c0,0.796-0.646,1.44-1.438,1.44C123.361,33.84,122.717,33.196,122.717,32.4z M122.717,39.6c0-0.795,0.646-1.438,1.44-1.438
			c0.793,0,1.438,0.645,1.438,1.438s-0.646,1.44-1.438,1.44C123.361,41.04,122.717,40.395,122.717,39.6z M76.637,3.6
			c-0.001-0.795,0.644-1.438,1.438-1.438c0.795-0.005,1.438,0.643,1.438,1.438c0,0.001,0,0.003,0,0.004
			c0.002,0.795-0.646,1.441-1.438,1.442c-0.795,0-1.438-0.646-1.439-1.439C76.637,3.603,76.637,3.601,76.637,3.6z M76.637,46.8
			c-0.001-0.795,0.644-1.441,1.438-1.442c0.793-0.001,1.438,0.646,1.438,1.438c0,0.001,0,0.003,0,0.004
			c0.002,0.795-0.646,1.438-1.438,1.442c-0.795,0.001-1.439-0.646-1.44-1.438C76.637,46.803,76.637,46.801,76.637,46.8z M69.437,54
			c-0.001-0.796,0.645-1.441,1.438-1.442c0.795-0.001,1.44,0.646,1.442,1.438c0,0.001,0,0.002,0,0.004
			c0.001,0.795-0.644,1.438-1.438,1.438c-0.793,0.001-1.438-0.643-1.439-1.438C69.437,54.002,69.437,54.001,69.437,54z M76.637,54
			c-0.001-0.796,0.644-1.441,1.438-1.442c0.793-0.001,1.438,0.646,1.438,1.438c0,0.001,0,0.002,0,0.004
			c0.002,0.795-0.646,1.438-1.438,1.438c-0.795,0.001-1.439-0.643-1.44-1.438C76.637,54.002,76.637,54.001,76.637,54z"/>
		<g>
			<title>layer 17</title>
			<g>
				<title>element:C1</title>
				<g>
					<title>package:0402</title>
				</g>
			</g>
			<g>
				<title>element:C2</title>
				<g>
					<title>package:0805</title>
				</g>
			</g>
			<g>
				<title>element:C3</title>
				<g>
					<title>package:0402</title>
				</g>
			</g>
			<g>
				<title>element:C4</title>
				<g>
					<title>package:0402</title>
				</g>
			</g>
			<g>
				<title>element:C5</title>
				<g>
					<title>package:0402</title>
				</g>
			</g>
			<g>
				<title>element:C6</title>
				<g>
					<title>package:0402</title>
				</g>
			</g>
			<g>
				<title>element:C7</title>
				<g>
					<title>package:0402</title>
				</g>
			</g>
			<g>
				<title>element:C8</title>
				<g>
					<title>package:0805</title>
				</g>
			</g>
			<g>
				<title>element:C9</title>
				<g>
					<title>package:0402</title>
				</g>
			</g>
			<g>
				<title>element:C10</title>
				<g>
					<title>package:0603-CAP</title>
				</g>
			</g>
			<g>
				<title>element:C11</title>
				<g>
					<title>package:0402</title>
				</g>
			</g>
			<g>
				<title>element:C12</title>
				<g>
					<title>package:0402</title>
				</g>
			</g>
			<g>
				<title>element:C13</title>
				<g>
					<title>package:0402</title>
				</g>
			</g>
			<g>
				<title>element:CN_BATT</title>
				<g>
					<title>package:BK-912-ALT</title>
				</g>
			</g>
			<g>
				<title>element:LED1</title>
				<g>
					<title>package:SML-LX0404SIUPGUSB</title>
				</g>
			</g>
			<g>
				<title>element:Q1</title>
				<g>
					<title>package:SOT523</title>
				</g>
			</g>
			<g>
				<title>element:Q2</title>
				<g>
					<title>package:SOT523</title>
				</g>
			</g>
			<g>
				<title>element:R1</title>
				<g>
					<title>package:0402</title>
				</g>
			</g>
			<g>
				<title>element:R2</title>
				<g>
					<title>package:0402</title>
				</g>
			</g>
			<g>
				<title>element:R3</title>
				<g>
					<title>package:0402</title>
				</g>
			</g>
			<g>
				<title>element:R4</title>
				<g>
					<title>package:0402</title>
				</g>
			</g>
			<g>
				<title>element:R5</title>
				<g>
					<title>package:0402</title>
				</g>
			</g>
			<g>
				<title>element:R6</title>
				<g>
					<title>package:0402</title>
				</g>
			</g>
			<g>
				<title>element:TP1</title>
				<g>
					<title>package:TP06R</title>
				</g>
			</g>
			<g>
				<title>element:TP2</title>
				<g>
					<title>package:TP06R</title>
				</g>
			</g>
			<g>
				<title>element:TP3</title>
				<g>
					<title>package:TP06R</title>
				</g>
			</g>
			<g>
				<title>element:TP4</title>
				<g>
					<title>package:TP06R</title>
				</g>
			</g>
			<g>
				<title>element:TP5</title>
				<g>
					<title>package:TP06R</title>
				</g>
			</g>
			<g>
				<title>element:TP6</title>
				<g>
					<title>package:TP06R</title>
				</g>
			</g>
			<g>
				<title>element:TP7</title>
				<g>
					<title>package:TP06R</title>
				</g>
			</g>
			<g>
				<title>element:TP8</title>
				<g>
					<title>package:TP06R</title>
				</g>
			</g>
			<g>
				<title>element:TP9</title>
				<g>
					<title>package:TP06R</title>
				</g>
			</g>
			<g>
				<title>element:TP10</title>
				<g>
					<title>package:TP06R</title>
				</g>
			</g>
			<g>
				<title>element:TP11</title>
				<g>
					<title>package:TP06R</title>
				</g>
			</g>
			<g>
				<title>element:TP12</title>
				<g>
					<title>package:TP06R</title>
				</g>
			</g>
			<g>
				<title>element:TP14</title>
				<g>
					<title>package:TP06R</title>
				</g>
			</g>
			<g>
				<title>element:TP15</title>
				<g>
					<title>package:TP06R</title>
				</g>
			</g>
			<g>
				<title>element:TP16</title>
				<g>
					<title>package:TP06R</title>
				</g>
			</g>
			<g>
				<title>element:TP17</title>
				<g>
					<title>package:TP06R</title>
				</g>
			</g>
			<g>
				<title>element:TP19</title>
				<g>
					<title>package:TP14R</title>
				</g>
			</g>
			<g>
				<title>element:U$1</title>
				<g>
					<title>package:1X01</title>
				</g>
			</g>
			<g>
				<title>element:U$3</title>
				<g>
					<title>package:1X01</title>
				</g>
			</g>
			<g>
				<title>element:U$4</title>
				<g>
					<title>package:1X01</title>
				</g>
			</g>
			<g>
				<title>element:U$5</title>
				<g>
					<title>package:1X01</title>
				</g>
			</g>
			<g>
				<title>element:U$6</title>
				<g>
					<title>package:1X01</title>
				</g>
			</g>
			<g>
				<title>element:U$7</title>
				<g>
					<title>package:1X01</title>
				</g>
			</g>
			<g>
				<title>element:U$8</title>
				<g>
					<title>package:1X01</title>
				</g>
			</g>
			<g>
				<title>element:U$9</title>
				<g>
					<title>package:1X01</title>
				</g>
			</g>
			<g>
				<title>element:U$10</title>
				<g>
					<title>package:1X01</title>
				</g>
			</g>
			<g>
				<title>element:U$11</title>
				<g>
					<title>package:1X01</title>
				</g>
			</g>
			<g>
				<title>element:U$12</title>
				<g>
					<title>package:1X01</title>
				</g>
			</g>
			<g>
				<title>element:U$13</title>
				<g>
					<title>package:1X01</title>
				</g>
			</g>
			<g>
				<title>element:U$14</title>
				<g>
					<title>package:1X01</title>
				</g>
			</g>
			<g>
				<title>element:U$15</title>
				<g>
					<title>package:1X01</title>
				</g>
			</g>
			<g>
				<title>element:U$16</title>
				<g>
					<title>package:1X01</title>
				</g>
			</g>
			<g>
				<title>element:U$17</title>
				<g>
					<title>package:1X01</title>
				</g>
			</g>
			<g>
				<title>element:U$18</title>
				<g>
					<title>package:1X01</title>
				</g>
			</g>
			<g>
				<title>element:U$19</title>
				<g>
					<title>package:1X01</title>
				</g>
			</g>
			<g>
				<title>element:U$20</title>
				<g>
					<title>package:1X01</title>
				</g>
			</g>
			<g>
				<title>element:U$21</title>
				<g>
					<title>package:1X01</title>
				</g>
			</g>
			<g>
				<title>element:U$22</title>
				<g>
					<title>package:1X01</title>
				</g>
			</g>
			<g>
				<title>element:U$23</title>
				<g>
					<title>package:1X01</title>
				</g>
			</g>
			<g>
				<title>element:U$24</title>
				<g>
					<title>package:1X01</title>
				</g>
			</g>
			<g>
				<title>element:U$25</title>
				<g>
					<title>package:1X01</title>
				</g>
			</g>
			<g>
				<title>element:U$26</title>
				<g>
					<title>package:1X01</title>
				</g>
			</g>
			<g>
				<title>element:U$27</title>
				<g>
					<title>package:1X01</title>
				</g>
			</g>
			<g>
				<title>element:U$28</title>
				<g>
					<title>package:1X01</title>
				</g>
			</g>
			<g>
				<title>element:U$29</title>
				<g>
					<title>package:1X01</title>
				</g>
			</g>
			<g>
				<title>element:U$30</title>
				<g>
					<title>package:1X01</title>
				</g>
			</g>
			<g>
				<title>element:U$31</title>
				<g>
					<title>package:1X01</title>
				</g>
			</g>
			<g>
				<title>element:U$32</title>
				<g>
					<title>package:1X01</title>
				</g>
			</g>
			<g>
				<title>element:U$33</title>
				<g>
					<title>package:1X01</title>
				</g>
			</g>
			<g>
				<title>element:U$34</title>
				<g>
					<title>package:1X01</title>
				</g>
			</g>
			<g>
				<title>element:U$35</title>
				<g>
					<title>package:1X01</title>
				</g>
			</g>
			<g>
				<title>element:U$36</title>
				<g>
					<title>package:1X01</title>
				</g>
			</g>
			<g>
				<title>element:U$37</title>
				<g>
					<title>package:1X01</title>
				</g>
			</g>
			<g>
				<title>element:U$38</title>
				<g>
					<title>package:1X01</title>
				</g>
			</g>
			<g>
				<title>element:U$39</title>
				<g>
					<title>package:1X01</title>
				</g>
			</g>
			<g>
				<title>element:U$40</title>
				<g>
					<title>package:1X01</title>
				</g>
			</g>
			<g>
				<title>element:U$41</title>
				<g>
					<title>package:1X01</title>
				</g>
			</g>
			<g>
				<title>element:U$42</title>
				<g>
					<title>package:1X01</title>
				</g>
			</g>
			<g>
				<title>element:U$43</title>
				<g>
					<title>package:1X01</title>
				</g>
			</g>
			<g>
				<title>element:U$44</title>
				<g>
					<title>package:1X01</title>
				</g>
			</g>
			<g>
				<title>element:U$45</title>
				<g>
					<title>package:1X01</title>
				</g>
			</g>
			<g>
				<title>element:U$46</title>
				<g>
					<title>package:1X01</title>
				</g>
			</g>
			<g>
				<title>element:U$49</title>
				<g>
					<title>package:BEAN_PROGAM_PIN</title>
				</g>
			</g>
			<g>
				<title>element:U$50</title>
				<g>
					<title>package:BEAN_PROGAM_PIN</title>
				</g>
			</g>
			<g>
				<title>element:U$51</title>
				<g>
					<title>package:BEAN_PROGAM_PIN</title>
				</g>
			</g>
			<g>
				<title>element:U$52</title>
				<g>
					<title>package:1X01</title>
				</g>
			</g>
			<g>
				<title>element:U$53</title>
				<g>
					<title>package:1X01</title>
				</g>
			</g>
			<g>
				<title>element:U1</title>
				<g>
					<title>package:PTD0313001E</title>
				</g>
			</g>
			<g>
				<title>element:U2</title>
				<g>
					<title>package:QFN-28-4X4</title>
				</g>
			</g>
			<g>
				<title>element:U3</title>
				<g>
					<title>package:BMA250</title>
				</g>
			</g>
			<g>
				<title>element:U4</title>
				<g>
					<title>package:CSTCE_G_3PIN_XTAL</title>
				</g>
			</g>
			<g>
				<title>element:Y1</title>
				<g>
					<title>package:9HT10</title>
				</g>
			</g>
		</g>
		<polygon fill="#1A1A1A" points="54.768,22.41 66.107,22.41 66.107,33.749 55.902,33.749 54.768,32.615 		"/>
		<circle id="connector71pin" fill="none" stroke="#9A916C" stroke-width="1.224" cx="78.078" cy="39.6" r="2.052"/>
		<circle id="connector72pin" fill="none" stroke="#9A916C" stroke-width="1.224" cx="88.158" cy="3.6" r="2.052"/>
		<circle id="connector73pin" fill="none" stroke="#9A916C" stroke-width="1.224" cx="88.158" cy="10.8" r="2.052"/>
		<circle id="connector74pin" fill="none" stroke="#9A916C" stroke-width="1.224" cx="88.158" cy="18" r="2.052"/>
		<circle id="connector75pin" fill="none" stroke="#9A916C" stroke-width="1.224" cx="88.158" cy="25.2" r="2.052"/>
		<circle id="connector76pin" fill="none" stroke="#9A916C" stroke-width="1.224" cx="88.158" cy="32.4" r="2.052"/>
		<circle id="connector77pin" fill="none" stroke="#9A916C" stroke-width="1.224" cx="88.158" cy="39.6" r="2.052"/>
		<circle id="connector78pin" fill="none" stroke="#9A916C" stroke-width="1.224" cx="88.158" cy="46.8" r="2.052"/>
		<circle id="connector79pin" fill="none" stroke="#9A916C" stroke-width="1.224" cx="88.158" cy="54" r="2.052"/>
		<circle id="connector80pin" fill="none" stroke="#9A916C" stroke-width="1.224" cx="95.358" cy="3.6" r="2.052"/>
		<circle id="connector81pin" fill="none" stroke="#9A916C" stroke-width="1.224" cx="102.557" cy="3.6" r="2.052"/>
		<circle id="connector82pin" fill="none" stroke="#9A916C" stroke-width="1.224" cx="95.358" cy="25.2" r="2.052"/>
		<circle id="connector83pin" fill="none" stroke="#9A916C" stroke-width="1.224" cx="95.358" cy="10.8" r="2.052"/>
		<circle id="connector84pin" fill="none" stroke="#9A916C" stroke-width="1.224" cx="102.557" cy="10.8" r="2.052"/>
		<circle id="connector85pin" fill="none" stroke="#9A916C" stroke-width="1.224" cx="102.557" cy="25.2" r="2.052"/>
		<circle id="connector86pin" fill="none" stroke="#9A916C" stroke-width="1.224" cx="95.358" cy="18" r="2.052"/>
		<circle id="connector87pin" fill="none" stroke="#9A916C" stroke-width="1.224" cx="102.557" cy="18" r="2.052"/>
		<circle id="connector88pin" fill="none" stroke="#9A916C" stroke-width="1.224" cx="95.358" cy="54" r="2.052"/>
		<circle id="connector89pin" fill="none" stroke="#9A916C" stroke-width="1.224" cx="95.358" cy="46.8" r="2.052"/>
		<circle id="connector90pin" fill="none" stroke="#9A916C" stroke-width="1.224" cx="95.358" cy="39.6" r="2.052"/>
		<circle id="connector91pin" fill="none" stroke="#9A916C" stroke-width="1.224" cx="95.358" cy="32.4" r="2.052"/>
		<circle id="connector92pin" fill="none" stroke="#9A916C" stroke-width="1.224" cx="109.757" cy="18" r="2.052"/>
		<circle id="connector93pin" fill="none" stroke="#9A916C" stroke-width="1.224" cx="102.557" cy="54" r="2.052"/>
		<circle id="connector94pin" fill="none" stroke="#9A916C" stroke-width="1.224" cx="102.557" cy="46.8" r="2.052"/>
		<circle id="connector95pin" fill="none" stroke="#9A916C" stroke-width="1.224" cx="102.557" cy="39.6" r="2.052"/>
		<circle id="connector96pin" fill="none" stroke="#9A916C" stroke-width="1.224" cx="102.557" cy="32.4" r="2.052"/>
		<circle id="connector97pin" fill="none" stroke="#9A916C" stroke-width="1.224" cx="109.757" cy="10.8" r="2.052"/>
		<circle id="connector98pin" fill="none" stroke="#9A916C" stroke-width="1.224" cx="109.757" cy="25.2" r="2.052"/>
		<circle id="connector99pin" fill="none" stroke="#9A916C" stroke-width="1.224" cx="109.757" cy="46.8" r="2.052"/>
		<circle id="connector100pin" fill="none" stroke="#9A916C" stroke-width="1.224" cx="109.757" cy="39.6" r="2.052"/>
		<circle id="connector101pin" fill="none" stroke="#9A916C" stroke-width="1.224" cx="109.757" cy="32.4" r="2.052"/>
		<circle id="connector102pin" fill="none" stroke="#9A916C" stroke-width="1.224" cx="116.957" cy="10.8" r="2.052"/>
		<circle id="connector103pin" fill="none" stroke="#9A916C" stroke-width="1.224" cx="116.957" cy="18" r="2.052"/>
		<circle id="connector104pin" fill="none" stroke="#9A916C" stroke-width="1.224" cx="116.957" cy="39.6" r="2.052"/>
		<circle id="connector105pin" fill="none" stroke="#9A916C" stroke-width="1.224" cx="116.957" cy="25.2" r="2.052"/>
		<circle id="connector106pin" fill="none" stroke="#9A916C" stroke-width="1.224" cx="116.957" cy="46.8" r="2.052"/>
		<circle id="connector107pin" fill="none" stroke="#9A916C" stroke-width="1.224" cx="116.957" cy="32.4" r="2.052"/>
		<circle id="connector108pin" fill="none" stroke="#9A916C" stroke-width="1.224" cx="109.757" cy="3.6" r="2.052"/>
		<circle id="connector109pin" fill="none" stroke="#9A916C" stroke-width="1.224" cx="124.158" cy="18" r="2.052"/>
		<circle id="connector110pin" fill="none" stroke="#9A916C" stroke-width="1.224" cx="109.757" cy="54" r="2.052"/>
		<circle id="connector111pin" fill="none" stroke="#9A916C" stroke-width="1.224" cx="124.158" cy="25.2" r="2.052"/>
		<circle id="connector112pin" fill="none" stroke="#9A916C" stroke-width="1.224" cx="124.158" cy="32.4" r="2.052"/>
		<circle id="connector113pin" fill="none" stroke="#9A916C" stroke-width="1.224" cx="124.158" cy="39.6" r="2.052"/>
		<circle id="connector114pin" fill="none" stroke="#9A916C" stroke-width="1.224" cx="78.078" cy="3.6" r="2.052"/>
		<circle id="connector115pin" fill="none" stroke="#9A916C" stroke-width="1.224" cx="78.078" cy="46.8" r="2.052"/>
		<circle id="connector119pin" fill="none" stroke="#9A916C" stroke-width="1.224" cx="70.876" cy="54" r="2.052"/>
		<circle id="connector120pin" fill="none" stroke="#9A916C" stroke-width="1.224" cx="78.078" cy="54" r="2.052"/>
		<g>
			<rect x="4.062" y="12.165" fill="#164281" width="44.357" height="33.813"/>
			<rect x="5.08" y="15.312" fill="#243264" width="9.946" height="11.801"/>
			<rect x="5.079" y="15.312" fill="#4D4D4D" width="3.793" height="10.499"/>
			<polygon fill="#DDE6DD" points="8.872,20.815 6.745,20.815 6.745,18.549 5.079,18.549 5.079,25.811 6.745,25.811 8.872,25.811 
				8.872,24.423 			"/>
			<polygon fill="#DDE6DD" points="7.67,15.312 7.207,15.312 5.079,15.312 5.079,18.087 7.207,18.087 7.207,20.354 8.872,20.354 
				8.872,15.312 			"/>
			<g>
				<g>
					<path fill="#CCCCCC" d="M31.399,14.248c4.903,0,9.759,0,14.663,0c0.092,0,0.139,0,0.139,0.138c0,9.759,0,19.52,0,29.279
						c0,0.14-0.047,0.14-0.139,0.14c-9.759,0-19.52,0-29.325,0c-0.093,0-0.139,0-0.139-0.14c0-9.763,0-19.521,0-29.279
						c0-0.093,0.046-0.138,0.139-0.138C21.593,14.248,26.496,14.248,31.399,14.248z"/>
					<g>
						<path fill="#F2F2F2" d="M17.899,42.027c0,0.553,0.45,1,1,1h25c0.55,0,1-0.447,1-1v-26c0-0.55-0.45-1-1-1h-25
							c-0.55,0-1,0.45-1,1V42.027z"/>
					</g>
					<g>
						<path d="M41.848,27.373c-0.026,0.153,0.052,0.286,0.129,0.389c0.104,0.131,0.156,0.261,0.234,0.417
							c0.026,0.051,0.052,0.051,0.104,0.051c0.285-0.051,0.493,0.052,0.623,0.313c0.287,0.568,0.572,1.144,0.729,1.767
							c0.053,0.185,0.025,0.363-0.157,0.494c-0.259,0.207-0.572,0.389-0.883,0.52c-0.156,0.056-0.26,0.134-0.364,0.263
							c-0.156,0.18-0.364,0.287-0.572,0.338c-0.65,0.182-1.325,0.363-2.001,0.467c-0.182,0.025-0.337,0.053-0.52,0.053
							c-0.287,0.027-0.442-0.077-0.546-0.338c-0.078-0.182-0.104-0.34-0.13-0.52c-0.026-0.183-0.078-0.313-0.26-0.394
							c-0.286-0.104-0.416-0.338-0.467-0.646c-0.052-0.234,0.026-0.441,0.104-0.625c0.077-0.207,0.129-0.416,0.051-0.65
							c-0.051-0.207-0.026-0.389,0.053-0.568c0.078-0.185,0.156-0.364,0.234-0.571c0.051-0.157,0.051-0.285,0.025-0.441
							c-0.052-0.338,0.079-0.855,0.469-1.063c0.208-0.106,0.389-0.234,0.597-0.338c0.104-0.056,0.208-0.056,0.338,0
							c0.13,0.052,0.234,0.129,0.337,0.206c0.079,0.053,0.156,0.053,0.208,0.023c0.442-0.077,0.857,0,1.274,0.185
							c0.286,0.131,0.416,0.339,0.416,0.624C41.848,27.321,41.848,27.348,41.848,27.373z M39.95,30.986
							c0.078-0.131,0.182-0.209,0.312-0.26c0.495-0.182,1.014-0.391,1.508-0.598c0.26-0.104,0.415-0.363,0.363-0.65
							c-0.025-0.104-0.051-0.18-0.077-0.286c-0.026-0.104-0.079-0.13-0.208-0.13c-0.104,0-0.208,0.026-0.312,0.051
							c-0.65,0.187-1.326,0.342-2.002,0.495c-0.025,0-0.051,0.025-0.051,0c0-0.024,0.026-0.024,0.026-0.053
							c0.157-0.078,0.312-0.156,0.494-0.207c0.26-0.08,0.547-0.157,0.806-0.208c0.312-0.079,0.624-0.183,0.936-0.313
							c0.156-0.055,0.208-0.157,0.208-0.286c0-0.13-0.025-0.286-0.077-0.416c-0.052-0.208-0.208-0.313-0.416-0.313
							c-0.234,0.028-0.468,0.053-0.702,0.079c-0.286,0.025-0.572,0.077-0.857,0.104c-0.027,0-0.052,0.024-0.052-0.026
							s0.025-0.025,0.052-0.052c0.233-0.051,0.467-0.104,0.701-0.129c0.26-0.027,0.495-0.078,0.755-0.104
							c0.155-0.027,0.233-0.104,0.233-0.26c0.026-0.208-0.078-0.442-0.287-0.545c-0.077-0.026-0.129-0.053-0.207-0.079
							c-0.234-0.077-0.495-0.077-0.728-0.104c-0.079,0-0.156,0-0.234,0.055c-0.104,0.052-0.207,0.104-0.312,0.153
							c-0.026,0.026-0.079,0.026-0.13,0.026c0.051-0.051,0.13-0.104,0.182-0.156c0.027-0.023,0.053-0.023,0.053-0.052
							s-0.053-0.026-0.078-0.026c-0.13,0-0.234,0.026-0.364,0c0.051-0.022,0.104-0.052,0.13-0.074
							c-0.052-0.056-0.13-0.056-0.182-0.079c0.025,0,0.052-0.027,0.078-0.027c0.025,0,0.025,0,0.025-0.025
							c0-0.023-0.025-0.023-0.025,0c-0.104,0.025-0.208,0.025-0.286,0.078c-0.13,0.078-0.26,0.156-0.416,0.233
							c-0.156,0.079-0.233,0.208-0.286,0.364c-0.026,0.104-0.077,0.232-0.104,0.338c0,0.024,0,0.052,0,0.078
							c0.052,0.182,0.104,0.39,0.312,0.491C38.706,28.1,38.679,28.1,38.653,28.1c-0.13,0.025-0.234,0.078-0.285,0.182
							c-0.078,0.184-0.156,0.363-0.234,0.548c-0.13,0.313,0.026,0.624,0.364,0.728c0.078,0.025,0.156,0.025,0.234,0.053
							c-0.234,0.078-0.468,0.054-0.623,0.285c-0.13,0.209-0.209,0.416-0.157,0.65c0.026,0.207,0.157,0.36,0.338,0.438
							s0.363,0.131,0.571,0.104c-0.078,0.104-0.13,0.182-0.155,0.287c-0.053,0.26,0,0.494,0.103,0.727
							c0.052,0.105,0.13,0.129,0.234,0.129c0.131,0,0.286,0,0.416-0.021c0.728-0.133,1.456-0.263,2.131-0.521
							c0.156-0.051,0.312-0.076,0.416-0.182c0.261-0.234,0.338-0.547,0.234-0.885c-0.078-0.261-0.234-0.361-0.494-0.285
							c-0.052,0-0.078,0.024-0.13,0.024c-0.338,0.132-0.676,0.261-1.014,0.392C40.444,30.829,40.21,30.906,39.95,30.986z
							 M42.783,29.4c-0.026,0.078-0.078,0.104-0.129,0.104c-0.078,0.022-0.13,0.022-0.208,0c-0.052,0-0.078,0-0.078,0.053
							c-0.026,0.156-0.052,0.287-0.052,0.443c0,0.311,0.104,0.598,0.182,0.854c0.052,0.131,0.156,0.156,0.285,0.104
							c0.208-0.076,0.39-0.207,0.599-0.313c0.104-0.051,0.129-0.153,0.129-0.26s-0.053-0.182-0.079-0.285
							c-0.104-0.338-0.234-0.678-0.416-0.989c-0.025,0.027-0.025,0.079-0.051,0.105c-0.052-0.182-0.13-0.364-0.183-0.547
							c-0.026-0.051-0.026-0.104-0.078-0.104c-0.104-0.051-0.233-0.051-0.337,0.026s-0.13,0.182-0.104,0.312
							c0.025,0.134,0.052,0.263,0.078,0.395c0.026,0.102,0.078,0.155,0.182,0.127C42.601,29.425,42.705,29.425,42.783,29.4z"/>
						<g>
							<path d="M42.656,16.55c0.146,1.006-0.527,1.948-1.487,2.171V17.06H40.33v1.667c-0.977-0.208-1.668-1.159-1.521-2.177H37.97
								c-0.163,1.616,1.124,3.054,2.762,3.054c1.638,0,2.923-1.438,2.762-3.054H42.656z"/>
							<path d="M38.815,21.251c-0.168,1.16,0.747,2.231,1.935,2.231s2.103-1.071,1.935-2.231h0.844
								c0.164,1.625-1.132,3.069-2.779,3.069c-1.649,0-2.941-1.444-2.779-3.069H38.815L38.815,21.251z"/>
						</g>
						<g>
							<path d="M41.995,35.087c1.025,0.715,1.278,2.131,0.563,3.156c-0.715,1.022-2.13,1.274-3.154,0.563
								c-0.497-0.344-0.83-0.865-0.936-1.461c-0.105-0.596,0.026-1.197,0.373-1.691c0.145-0.211,0.322-0.391,0.527-0.539
								l-0.338-0.467c-0.257,0.188-0.481,0.412-0.662,0.674c-0.434,0.623-0.6,1.377-0.466,2.125c0.134,0.748,0.55,1.398,1.173,1.832
								c0.401,0.279,0.857,0.449,1.332,0.496v1.152h-1.911v-1.406l-0.576-0.432v2.414h5.514l-0.385-0.576h-2.066v-1.15
								c0.072-0.008,0.145-0.018,0.217-0.028c0.748-0.136,1.397-0.552,1.832-1.175c0.345-0.493,0.51-1.061,0.51-1.62
								c0-0.898-0.425-1.783-1.216-2.339L41.995,35.087z"/>
							<path d="M39.67,37.13c-0.049-0.273,0.013-0.551,0.171-0.779c0.067-0.098,0.15-0.18,0.244-0.248l-0.339-0.469
								c-0.146,0.104-0.274,0.236-0.377,0.385c-0.511,0.736-0.331,1.748,0.402,2.26c0.356,0.246,0.785,0.345,1.212,0.269
								c0.427-0.076,0.798-0.314,1.045-0.67c0.197-0.281,0.291-0.605,0.291-0.929c0-0.512-0.242-1.018-0.693-1.329l-0.33,0.475
								c0.473,0.328,0.589,0.979,0.26,1.453c-0.16,0.229-0.4,0.383-0.675,0.432c-0.274,0.049-0.551-0.012-0.781-0.172
								C39.872,37.644,39.719,37.406,39.67,37.13z"/>
						</g>
					</g>
					<g>
						<text transform="matrix(-4.371139e-008 -1 1 -4.371139e-008 34.7856 41.5032)" font-family="'DroidSans'" font-size="2.9671">(rev E) </text>
					</g>
					<g>
						<g>
							<g>
								<g>
									<g>
										<path d="M28.151,34.92c0.333,0,0.633,0.066,0.911,0.188c0.277,0.122,0.521,0.312,0.721,0.544
											c0.2,0.245,0.355,0.533,0.477,0.889c0.111,0.354,0.167,0.756,0.167,1.198v2.932v0.811h-0.632
											c-0.19,0-0.3-0.089-0.334-0.267c0-0.011,0-0.045-0.01-0.065c-0.012-0.021-0.012-0.078-0.034-0.155
											c-0.011-0.077-0.033-0.188-0.055-0.322h-5.628c-0.022,0.134-0.045,0.245-0.056,0.322
											c-0.011,0.077-0.022,0.134-0.033,0.155c0,0.032-0.011,0.056-0.011,0.065c-0.034,0.178-0.156,0.267-0.333,0.267h-0.633
											V40.67v-2.675c0-0.512,0.045-0.943,0.145-1.301c0.1-0.354,0.233-0.653,0.411-0.887c0.177-0.232,0.399-0.398,0.655-0.511
											c0.255-0.112,0.544-0.155,0.854-0.155c0.178,0,0.355,0.022,0.522,0.077c0.167,0.056,0.321,0.134,0.466,0.244
											c0.144,0.11,0.277,0.256,0.399,0.434c0.122,0.166,0.222,0.377,0.299,0.621C26.664,35.453,27.241,34.92,28.151,34.92
											 M26.031,39.228v-1.154c0-0.487-0.089-0.866-0.267-1.12c-0.177-0.258-0.466-0.39-0.854-0.39
											c-0.399,0-0.688,0.11-0.866,0.343c-0.177,0.234-0.255,0.59-0.255,1.077v1.244H26.031z M28.118,36.341
											c-0.167,0-0.322,0.021-0.455,0.078c-0.133,0.065-0.244,0.145-0.344,0.266c-0.1,0.111-0.167,0.269-0.222,0.444
											c-0.055,0.178-0.078,0.398-0.078,0.655v1.442h2.288v-1.466c0-0.267-0.034-0.488-0.101-0.677
											c-0.065-0.18-0.155-0.321-0.255-0.435c-0.11-0.11-0.232-0.188-0.377-0.231S28.285,36.341,28.118,36.341"/>
										<path d="M25.01,30.658c0.111-0.289,0.277-0.546,0.488-0.757s0.477-0.377,0.788-0.487c0.311-0.122,0.666-0.178,1.065-0.178
											c0.1,0,0.178,0.012,0.244,0.012c0.067,0.011,0.122,0.021,0.155,0.044c0.034,0.021,0.067,0.057,0.078,0.088
											c0.011,0.046,0.023,0.09,0.023,0.157v3.407c0.566-0.046,0.976-0.189,1.243-0.456c0.267-0.266,0.399-0.62,0.399-1.055
											c0-0.211-0.022-0.398-0.078-0.556c-0.055-0.155-0.1-0.288-0.167-0.41c-0.055-0.111-0.11-0.211-0.166-0.3
											c-0.055-0.088-0.078-0.179-0.078-0.255c0-0.058,0.011-0.102,0.033-0.135c0.023-0.044,0.045-0.076,0.089-0.1l0.477-0.389
											c0.178,0.144,0.322,0.312,0.434,0.487c0.122,0.189,0.211,0.378,0.278,0.577c0.067,0.2,0.122,0.399,0.144,0.61
											c0.034,0.199,0.044,0.399,0.044,0.601c0,0.377-0.067,0.732-0.188,1.064c-0.122,0.334-0.311,0.611-0.567,0.854
											c-0.244,0.244-0.555,0.433-0.921,0.577c-0.366,0.146-0.788,0.211-1.276,0.211c-0.378,0-0.732-0.056-1.066-0.177
											c-0.333-0.123-0.622-0.301-0.866-0.522c-0.244-0.232-0.444-0.511-0.577-0.832c-0.145-0.333-0.211-0.699-0.211-1.109
											C24.843,31.269,24.899,30.958,25.01,30.658 M26.12,32.501c0.222,0.222,0.533,0.354,0.932,0.421v-2.487
											c-0.167,0-0.333,0.022-0.488,0.068c-0.155,0.043-0.289,0.121-0.399,0.211c-0.111,0.1-0.199,0.221-0.266,0.366
											c-0.067,0.144-0.101,0.319-0.101,0.509C25.787,31.979,25.898,32.279,26.12,32.501"/>
										<path d="M29.795,23.398h0.632v0.667v0.144v0.456c0,0.122-0.023,0.222-0.056,0.299c-0.033,0.067-0.111,0.123-0.233,0.156
											l-0.388,0.12c0.123,0.146,0.234,0.279,0.334,0.412c0.099,0.135,0.177,0.277,0.244,0.411
											c0.066,0.146,0.111,0.299,0.145,0.454c0.033,0.168,0.043,0.345,0.043,0.535c0,0.231-0.033,0.442-0.088,0.644
											c-0.067,0.199-0.156,0.367-0.277,0.511c-0.123,0.145-0.289,0.254-0.466,0.333c-0.189,0.077-0.399,0.121-0.655,0.121
											c-0.211,0-0.412-0.056-0.622-0.166c-0.199-0.111-0.388-0.288-0.554-0.544c-0.167-0.255-0.3-0.588-0.412-1.012
											c-0.111-0.422-0.166-0.942-0.166-1.574h-0.322c-0.377,0-0.644,0.076-0.821,0.234c-0.178,0.154-0.267,0.376-0.267,0.676
											c0,0.211,0.022,0.391,0.078,0.533c0.055,0.146,0.111,0.266,0.167,0.379c0.055,0.099,0.122,0.197,0.166,0.288
											c0.056,0.088,0.078,0.188,0.078,0.297c0,0.09-0.022,0.167-0.067,0.233c-0.044,0.067-0.1,0.113-0.167,0.156l-0.422,0.244
											c-0.577-0.634-0.866-1.398-0.866-2.297c0-0.321,0.055-0.609,0.155-0.867c0.111-0.255,0.255-0.466,0.444-0.643
											s0.411-0.311,0.678-0.398c0.266-0.091,0.543-0.134,0.854-0.134h2.442c0.022-0.123,0.033-0.223,0.055-0.288
											c0.012-0.067,0.022-0.1,0.022-0.112C29.495,23.488,29.605,23.398,29.795,23.398 M28.084,25.364
											c0,0.389,0.022,0.71,0.078,0.967c0.045,0.254,0.112,0.465,0.189,0.621c0.078,0.154,0.167,0.266,0.266,0.332
											c0.101,0.065,0.211,0.1,0.333,0.1c0.233,0,0.4-0.066,0.5-0.209c0.099-0.133,0.154-0.322,0.154-0.544
											c0-0.134-0.01-0.269-0.032-0.378c-0.023-0.111-0.056-0.223-0.112-0.322c-0.055-0.1-0.11-0.199-0.188-0.299
											c-0.067-0.088-0.155-0.19-0.255-0.29h-0.933V25.364z"/>
										<path d="M29.806,16.573h0.632v0.819v1.323H26.93c-0.333,0-0.599,0.075-0.777,0.232c-0.188,0.154-0.278,0.389-0.278,0.698
											c0,0.232,0.056,0.443,0.156,0.644c0.1,0.2,0.244,0.39,0.421,0.565h2.919c0.022-0.132,0.044-0.245,0.056-0.311
											c0.011-0.077,0.022-0.134,0.033-0.154c0-0.034,0.012-0.057,0.012-0.068c0.033-0.177,0.156-0.268,0.333-0.268h0.632v0.813
											v1.321v0.811h-0.632c-0.189,0-0.3-0.09-0.333-0.267c0-0.013-0.012-0.034-0.012-0.067c-0.01-0.034-0.022-0.079-0.033-0.154
											c-0.012-0.079-0.034-0.19-0.056-0.322h-3.385c-0.021,0.131-0.044,0.243-0.055,0.322c-0.011,0.075-0.022,0.134-0.033,0.154
											c-0.011,0.033-0.011,0.055-0.011,0.067c-0.034,0.175-0.156,0.267-0.333,0.267h-0.633v-0.811v-0.81
											c0-0.167,0.078-0.292,0.245-0.333l0.433-0.089c-0.112-0.113-0.222-0.233-0.311-0.355c-0.089-0.125-0.178-0.256-0.244-0.39
											c-0.067-0.132-0.123-0.288-0.156-0.444c-0.034-0.154-0.055-0.333-0.055-0.51c0-0.299,0.055-0.567,0.155-0.798
											c0.1-0.233,0.245-0.422,0.433-0.578s0.399-0.277,0.655-0.356c0.255-0.074,0.533-0.121,0.844-0.121h2.442
											c0.022-0.133,0.044-0.244,0.055-0.321c0.012-0.079,0.022-0.135,0.034-0.156c0-0.032,0.01-0.055,0.01-0.066
											C29.506,16.661,29.617,16.573,29.806,16.573"/>
										<path d="M23.7,32.411v0.077v0.034v1.477v0.266h-0.167c-0.034,0-0.066-0.021-0.066-0.055
											c-0.011-0.033-0.044-0.211-0.044-0.211h-2.109c0,0-0.033,0.178-0.044,0.211c0,0.033-0.034,0.055-0.067,0.055h-0.155
											v-0.266v-0.355l0,0v-0.267h0.155c0.033,0,0.067,0.021,0.067,0.056c0.011,0.034,0.044,0.199,0.044,0.211h2.076v-0.955
											c-0.11-0.011-0.2-0.021-0.211-0.021c-0.033-0.012-0.067-0.033-0.067-0.077v-0.178L23.7,32.411L23.7,32.411z"/>
										<path d="M23.534,31.301h0.155v0.854h-0.155c-0.034,0-0.066-0.021-0.066-0.056c-0.011-0.033-0.044-0.211-0.044-0.211H22.09
											c0,0-0.033,0.178-0.044,0.211c0,0.033-0.034,0.056-0.066,0.056h-0.156v-0.6h1.599c0,0,0.033-0.177,0.044-0.21
											C23.478,31.323,23.5,31.301,23.534,31.301 M21.325,31.946c-0.033,0.012-0.055,0.022-0.089,0.022
											c-0.033,0-0.066-0.012-0.089-0.022c-0.033-0.012-0.055-0.033-0.078-0.056c-0.021-0.021-0.033-0.045-0.055-0.078
											c-0.011-0.021-0.022-0.055-0.022-0.089c0-0.033,0.011-0.064,0.022-0.088c0.011-0.034,0.034-0.056,0.055-0.078
											c0.023-0.021,0.045-0.033,0.078-0.055c0.022,0,0.056-0.014,0.089-0.014c0.034,0,0.066,0.014,0.089,0.022
											c0.022,0.012,0.055,0.034,0.078,0.057c0.022,0.021,0.044,0.043,0.055,0.077c0.012,0.033,0.023,0.056,0.023,0.089
											s-0.011,0.065-0.023,0.088c-0.011,0.034-0.033,0.058-0.055,0.078C21.38,31.911,21.347,31.934,21.325,31.946"/>
										<path d="M21.813,30.125c0.022-0.066,0.044-0.134,0.078-0.2v-0.511h0.122c0.044,0,0.067,0.021,0.078,0.078l0.034,0.211
											c0.078-0.044,0.167-0.066,0.266-0.066c0.089,0,0.178,0.022,0.244,0.055c0.078,0.033,0.134,0.089,0.189,0.146
											c0.055,0.065,0.089,0.134,0.122,0.223c0.034,0.088,0.044,0.178,0.044,0.277c0,0.089-0.011,0.167-0.034,0.244
											c0.023,0.044,0.056,0.064,0.078,0.088c0.022,0.021,0.066,0.046,0.1,0.046c0.044,0,0.078-0.023,0.1-0.056
											c0.022-0.034,0.045-0.078,0.045-0.146c0.011-0.056,0.011-0.121,0.022-0.199c0-0.077,0.011-0.154,0.011-0.231
											c0-0.078,0.011-0.156,0.034-0.233c0.011-0.077,0.033-0.145,0.066-0.201c0.033-0.056,0.078-0.108,0.122-0.144
											c0.055-0.033,0.122-0.056,0.211-0.056c0.078,0,0.155,0.021,0.233,0.056c0.078,0.045,0.145,0.101,0.2,0.178
											c0.056,0.078,0.111,0.167,0.145,0.277c0.034,0.109,0.056,0.233,0.056,0.364c0,0.135-0.011,0.258-0.044,0.356
											c-0.033,0.1-0.067,0.189-0.111,0.255c-0.044,0.067-0.1,0.123-0.155,0.155c-0.056,0.034-0.122,0.046-0.189,0.046
											c-0.089,0-0.167-0.034-0.233-0.09c-0.067-0.057-0.111-0.146-0.155-0.244c-0.022,0.055-0.056,0.1-0.101,0.123
											c-0.044,0.033-0.1,0.043-0.166,0.043c-0.022,0-0.056-0.01-0.089-0.01c-0.034-0.013-0.056-0.023-0.089-0.045
											c-0.033-0.022-0.056-0.044-0.078-0.078c-0.022-0.033-0.044-0.066-0.067-0.101c-0.055,0.089-0.122,0.166-0.21,0.224
											c-0.089,0.055-0.188,0.077-0.3,0.077c-0.089,0-0.178-0.022-0.244-0.057c-0.078-0.033-0.133-0.089-0.188-0.145
											c-0.055-0.066-0.089-0.134-0.122-0.223c-0.034-0.089-0.044-0.179-0.044-0.29C21.791,30.27,21.802,30.193,21.813,30.125
											 M23.689,29.802c-0.033,0.023-0.055,0.056-0.067,0.101c-0.011,0.045-0.022,0.102-0.033,0.156
											c-0.011,0.055-0.011,0.122-0.011,0.188s-0.011,0.134-0.011,0.2c0,0.065-0.011,0.134-0.022,0.188
											c0.034,0.065,0.078,0.121,0.123,0.166c0.044,0.045,0.1,0.067,0.177,0.067c0.045,0,0.078-0.014,0.123-0.034
											c0.033-0.021,0.066-0.057,0.1-0.101c0.022-0.045,0.044-0.1,0.066-0.167c0.012-0.064,0.023-0.144,0.023-0.231
											c0-0.09-0.011-0.167-0.023-0.245c-0.011-0.065-0.033-0.133-0.066-0.177c-0.034-0.044-0.067-0.089-0.1-0.112
											c-0.044-0.021-0.089-0.043-0.134-0.043C23.756,29.771,23.711,29.781,23.689,29.802 M22.756,30.169
											c-0.022-0.057-0.044-0.102-0.078-0.133c-0.033-0.033-0.078-0.056-0.122-0.078c-0.045-0.022-0.1-0.022-0.155-0.022
											c-0.111,0-0.211,0.034-0.278,0.102c-0.067,0.066-0.1,0.166-0.1,0.3c0,0.133,0.033,0.231,0.1,0.3
											c0.067,0.065,0.155,0.1,0.278,0.1c0.055,0,0.11-0.012,0.155-0.021c0.044-0.023,0.089-0.046,0.122-0.078
											c0.034-0.033,0.056-0.078,0.078-0.133c0.022-0.057,0.022-0.111,0.022-0.18C22.779,30.28,22.768,30.224,22.756,30.169"/>
										<path d="M21.791,27.994c0-0.2,0.066-0.356,0.2-0.468c0.123-0.11,0.3-0.153,0.511-0.153h0.921
											c0.022-0.123,0.033-0.188,0.044-0.213c0.011-0.032,0.033-0.055,0.066-0.055h0.155v0.6H22.5c-0.3,0-0.444,0.134-0.444,0.4
											c0,0.178,0.089,0.354,0.267,0.511h1.11l0.011-0.045c0.022-0.1,0.033-0.153,0.033-0.166
											c0.012-0.033,0.034-0.054,0.066-0.054H23.7v0.865h-0.167c-0.044,0-0.056-0.023-0.066-0.056l-0.044-0.211h-2.187
											c-0.022,0.145-0.033,0.222-0.044,0.243c-0.011,0.033-0.034,0.057-0.067,0.057H20.97v-0.633h1.099
											C21.891,28.426,21.791,28.226,21.791,27.994"/>
										<path d="M23.6,26.539c-0.078,0.079-0.2,0.124-0.355,0.124h-1.144v0.22c0,0.022-0.011,0.034-0.022,0.043
											c-0.011,0.011-0.033,0.024-0.056,0.024H21.89l-0.045-0.313l-0.577-0.077c-0.022,0-0.034-0.011-0.045-0.021
											c-0.011-0.01-0.022-0.034-0.022-0.056v-0.167h0.644v-0.53h0.244v0.53h1.122c0.078,0,0.133-0.021,0.177-0.055
											c0.034-0.045,0.056-0.088,0.056-0.145c0-0.034,0-0.066-0.011-0.089c-0.011-0.021-0.022-0.043-0.034-0.065
											c-0.011-0.023-0.022-0.034-0.033-0.043c-0.011-0.014-0.011-0.024-0.011-0.034c0-0.011,0.011-0.034,0.033-0.045
											l0.155-0.101c0.056,0.056,0.101,0.12,0.123,0.199c0.033,0.079,0.044,0.168,0.044,0.243
											C23.723,26.35,23.689,26.462,23.6,26.539"/>
										<path d="M22.945,23.398c0.233,0,0.411,0.079,0.544,0.245c0.144,0.167,0.21,0.399,0.21,0.689v1.209h-0.167
											c-0.034,0-0.056-0.022-0.066-0.058l-0.044-0.211h-2.109c-0.022,0.125-0.033,0.19-0.044,0.211
											c-0.011,0.034-0.034,0.058-0.067,0.058h-0.155V24.43c0-0.477,0.133-0.767,0.399-0.876
											c0.089-0.034,0.178-0.056,0.255-0.056c0.089,0,0.155,0.011,0.222,0.033c0.056,0.022,0.11,0.056,0.166,0.089
											c0.111,0.089,0.189,0.211,0.245,0.379C22.413,23.597,22.612,23.398,22.945,23.398 M22.235,24.908V24.43
											c0-0.3-0.089-0.477-0.266-0.554c-0.056-0.022-0.123-0.034-0.188-0.034c-0.156,0-0.267,0.043-0.345,0.144
											c-0.077,0.088-0.111,0.247-0.111,0.436v0.488L22.235,24.908L22.235,24.908z M23.123,23.786
											c-0.055-0.021-0.122-0.034-0.188-0.034c-0.133,0-0.244,0.045-0.322,0.146c-0.078,0.101-0.122,0.243-0.122,0.442v0.576
											h0.921v-0.576C23.412,24.042,23.312,23.854,23.123,23.786"/>
										<path d="M23.534,22.344h0.155v0.866h-0.155c-0.044,0-0.056-0.023-0.066-0.056l-0.044-0.213h-2.187
											c-0.022,0.111-0.033,0.18-0.033,0.2c-0.011,0.034-0.033,0.057-0.067,0.057H20.97V22.6h2.453
											c0.022-0.122,0.033-0.188,0.044-0.212C23.478,22.353,23.5,22.344,23.534,22.344"/>
										<path d="M23.201,20.698h-1.11c0,0.024-0.022,0.091-0.044,0.214c-0.012,0.031-0.034,0.055-0.066,0.055h-0.156v-0.269v-0.33
											h1.599c0.022-0.123,0.033-0.188,0.044-0.214c0.011-0.031,0.033-0.055,0.066-0.055h0.155v0.467
											c0,0.043-0.022,0.077-0.067,0.089l-0.199,0.022c0.199,0.177,0.3,0.388,0.3,0.621c0,0.2-0.067,0.355-0.2,0.467
											c-0.122,0.101-0.299,0.154-0.51,0.154H22.09c-0.022,0.123-0.033,0.188-0.044,0.211c-0.012,0.032-0.034,0.057-0.066,0.057
											h-0.156v-0.601h1.199c0.144,0,0.256-0.034,0.333-0.101c0.078-0.065,0.111-0.167,0.111-0.299
											C23.467,21.024,23.378,20.856,23.201,20.698"/>
										<path d="M21.846,18.736c0.033-0.1,0.089-0.177,0.167-0.242c0.067-0.068,0.156-0.125,0.267-0.168
											c0.1-0.032,0.222-0.057,0.355-0.057c0.056,0,0.089,0.011,0.1,0.011c0.022,0.014,0.022,0.034,0.022,0.068v1.243
											c0.122,0,0.223-0.023,0.312-0.045c0.088-0.032,0.166-0.066,0.222-0.121c0.056-0.054,0.1-0.113,0.133-0.188
											c0.033-0.067,0.044-0.157,0.044-0.244c0-0.077-0.011-0.156-0.033-0.211c-0.022-0.057-0.045-0.11-0.067-0.156
											c-0.022-0.043-0.044-0.077-0.056-0.111c-0.022-0.032-0.033-0.055-0.033-0.077c0-0.021,0.011-0.043,0.033-0.067
											l0.123-0.089c0.044,0.046,0.088,0.089,0.133,0.146c0.033,0.056,0.067,0.111,0.089,0.177
											c0.022,0.068,0.044,0.134,0.056,0.2c0.011,0.068,0.022,0.134,0.022,0.211c0,0.134-0.022,0.245-0.067,0.358
											c-0.045,0.108-0.111,0.196-0.189,0.288c-0.089,0.074-0.188,0.143-0.311,0.188c-0.122,0.043-0.267,0.066-0.433,0.066
											c-0.133,0-0.255-0.022-0.366-0.057c-0.111-0.043-0.211-0.098-0.3-0.177c-0.078-0.077-0.144-0.166-0.2-0.277
											c-0.044-0.11-0.067-0.232-0.067-0.364C21.791,18.935,21.813,18.823,21.846,18.736 M22.168,19.413
											c0.089,0.087,0.222,0.145,0.377,0.166v-1.021c-0.078,0-0.144,0.011-0.211,0.032c-0.067,0.023-0.123,0.045-0.167,0.09
											c-0.044,0.043-0.078,0.088-0.111,0.143c-0.022,0.058-0.033,0.125-0.033,0.2C22.035,19.191,22.08,19.325,22.168,19.413"/>
										<path d="M21.114,17.559l0.532-0.298c0.022-0.013,0.022-0.024,0.022-0.045v-0.013c0-0.021-0.011-0.032-0.022-0.043
											l-0.532-0.288c0.021,0,0.033,0,0.055,0h0.544c0.011,0.043,0.011,0.065,0.011,0.076c0,0.012,0.011,0.021,0.022,0.021h0.055
											v-0.288h-0.055c-0.011,0-0.022,0.011-0.022,0.024c0,0.009-0.011,0.031-0.011,0.065h-0.688c0,0,0-0.022-0.011-0.065
											c0-0.014-0.011-0.024-0.022-0.024h-0.056v0.167c0,0.011,0,0.022,0,0.022l0.011,0.009l0.522,0.29
											c0.022,0.011,0.044,0.022,0.066,0.022c-0.033,0.01-0.044,0.022-0.066,0.022l-0.522,0.299l-0.011,0.009
											c0,0,0,0.014,0,0.024v0.166h0.056c0.011,0,0.022-0.011,0.022-0.022c0-0.01,0.011-0.034,0.011-0.067h0.677l0.011,0.067
											c0,0.012,0.011,0.022,0.022,0.022h0.056v-0.29h-0.056c-0.011,0-0.022,0-0.022,0.011c0,0.013-0.011,0.034-0.011,0.079
											h-0.533C21.147,17.559,21.125,17.559,21.114,17.559z M20.936,17.813v0.045v0.645h0.188v-0.056c0-0.011,0-0.021-0.01-0.021
											c-0.011,0-0.034,0-0.078-0.011v-0.2h0.666c0.011,0.034,0.011,0.055,0.011,0.065c0,0.014,0.011,0.022,0.022,0.022h0.056
											v-0.288h-0.056c-0.011,0-0.022,0-0.022,0.011c0,0.012-0.011,0.034-0.011,0.055v0.011h-0.666v-0.199
											c0.044,0,0.067-0.011,0.078-0.011c0.01,0,0.01-0.009,0.01-0.022v-0.055h-0.188V17.813z"/>
									</g>
								</g>
							</g>
						</g>
					</g>
				</g>
			</g>
			<rect x="5.079" y="25.811" fill="#B3B3B3" width="1.666" height="1.302"/>
			<rect x="46.061" y="14.248" fill="#CCCCCC" width="0.904" height="3.302"/>
			<rect x="46.061" y="40.503" fill="#CCCCCC" width="0.904" height="3.302"/>
			<rect x="7.206" y="25.811" fill="#B3B3B3" width="1.666" height="1.302"/>
		</g>
	</g>
	<g id="_x30_603-cap" transform="matrix(1, 0, 0, 1, 21.6397, 50.555)">
		<rect x="-9.536" y="-2.557" fill="#915A3C" width="1.417" height="3.979"/>
		<g>
			<g>
				<path fill="#DCDCDC" d="M-8.119,0.847L-8.119,0.847L-8.119,0.847V0.8l0,0c-0.13-0.039-0.413-0.064-0.558-0.064
					c-0.15,0-0.731,0.021-0.867,0.064l0,0l0,0v0.612h1.425V0.847z"/>
				<path fill="#DCDCDC" d="M-8.174-1.945h0.054v-0.608h-1.426v0.608c0.136,0.044,0.714,0.1,0.867,0.1
					C-8.498-1.849-8.329-1.886-8.174-1.945z"/>
			</g>
		</g>
		<rect x="-8.19" y="-2.557" opacity="0.2" fill="#FFFFFF" enable-background="new    " width="0.071" height="3.979"/>
		<rect x="-9.536" y="-2.557" opacity="0.2" enable-background="new    " width="0.071" height="3.979"/>
	</g>
	<g id="_x30_603-cap_1_" transform="matrix(1, 0, 0, 1, 21.6397, 50.555)">
		<rect x="50.099" y="-46.395" fill="#603C29" width="3.167" height="5.827"/>
		<g>
			<g>
				<path fill="#DCDCDC" d="M53.266-41.413L53.266-41.413L53.266-41.413v-0.068l0,0c-0.292-0.057-0.926-0.099-1.249-0.099
					c-0.335,0-1.632,0.036-1.937,0.099l0,0l0,0v0.896h3.186V-41.413z"/>
				<path fill="#DCDCDC" d="M53.144-45.5h0.122v-0.895h-3.186v0.895c0.301,0.064,1.596,0.141,1.937,0.141
					C52.42-45.358,52.793-45.413,53.144-45.5z"/>
			</g>
		</g>
		<rect x="53.107" y="-46.395" opacity="0.2" fill="#FFFFFF" enable-background="new    " width="0.159" height="5.827"/>
		<rect x="50.099" y="-46.395" opacity="0.2" enable-background="new    " width="0.159" height="5.827"/>
	</g>
	<g id="_x30_603-cap_2_" transform="matrix(1, 0, 0, 1, 21.6397, 50.555)">
		<rect x="46.595" y="-46.395" fill="#603C29" width="3.167" height="5.827"/>
		<g>
			<g>
				<path fill="#DCDCDC" d="M49.762-41.413L49.762-41.413L49.762-41.413v-0.068l0,0c-0.292-0.057-0.926-0.099-1.249-0.099
					c-0.335,0-1.632,0.036-1.937,0.099l0,0l0,0v0.896h3.186V-41.413z"/>
				<path fill="#DCDCDC" d="M49.64-45.5h0.122v-0.895h-3.186v0.895c0.301,0.064,1.596,0.141,1.937,0.141
					C48.916-45.358,49.289-45.413,49.64-45.5z"/>
			</g>
		</g>
		<rect x="49.603" y="-46.395" opacity="0.2" fill="#FFFFFF" enable-background="new    " width="0.159" height="5.827"/>
		<rect x="46.595" y="-46.395" opacity="0.2" enable-background="new    " width="0.159" height="5.827"/>
	</g>
	<g>
		<circle fill="#9A916C" cx="15.508" cy="6.235" r="2.75"/>
		<circle fill="#333333" cx="15.508" cy="6.235" r="0.5"/>
	</g>
	<g>
		<circle fill="#9A916C" cx="23.508" cy="6.235" r="2.75"/>
		<circle fill="#333333" cx="23.508" cy="6.235" r="0.5"/>
	</g>
	<g>
		<circle fill="#9A916C" cx="31.508" cy="6.235" r="2.75"/>
		<circle fill="#333333" cx="31.508" cy="6.235" r="0.5"/>
	</g>
	<rect x="43.509" y="4.678" fill="#1A1A1A" width="5.884" height="5.884"/>
	<g>
		<g>
			<text transform="matrix(-4.371139e-008 -1 1 -4.371139e-008 84.5767 56.1711)" font-family="'OCRAStd'" font-size="3">A0</text>
		</g>
		<g>
			<text transform="matrix(-4.371139e-008 -1 1 -4.371139e-008 84.5767 48.6145)" font-family="'OCRAStd'" font-size="3">A1</text>
		</g>
		<g>
			<text transform="matrix(-4.371139e-008 -1 1 -4.371139e-008 84.5767 40.6477)" font-family="'OCRAStd'" font-size="3">0</text>
		</g>
		<g>
			<text transform="matrix(-4.371139e-008 -1 1 -4.371139e-008 84.5767 33.4485)" font-family="'OCRAStd'" font-size="3">1</text>
		</g>
		<g>
			
				<text transform="matrix(-4.371139e-008 -1 1 -4.371139e-008 58.9067 32.0383)" fill="#333333" font-family="'OCRAStd'" font-size="2.1996">M328P</text>
		</g>
		<g>
			<text transform="matrix(-4.371139e-008 -1 1 -4.371139e-008 84.5767 26.2498)" font-family="'OCRAStd'" font-size="3">2</text>
		</g>
		<g>
			<text transform="matrix(-4.371139e-008 -1 1 -4.371139e-008 84.5767 19.0496)" font-family="'OCRAStd'" font-size="3">3</text>
		</g>
		<g>
			<text transform="matrix(-4.371139e-008 -1 1 -4.371139e-008 84.5767 11.8484)" font-family="'OCRAStd'" font-size="3">4</text>
		</g>
		<g>
			<text transform="matrix(-4.371139e-008 -1 1 -4.371139e-008 84.5767 4.6785)" font-family="'OCRAStd'" font-size="3">5</text>
		</g>
		<g>
			<text transform="matrix(-4.371139e-008 -1 1 -4.371139e-008 67.9976 3.5994)" font-family="'OCRAStd'" font-size="3">G</text>
			<text transform="matrix(-4.371139e-008 -1 1 -4.371139e-008 70.9976 3.5994)" font-family="'OCRAStd'" font-size="3">N</text>
			<text transform="matrix(-4.371139e-008 -1 1 -4.371139e-008 73.9976 3.5994)" font-family="'OCRAStd'" font-size="3">D</text>
		</g>
		<g>
			<text transform="matrix(-0.2588 -0.9659 0.9659 -0.2588 78.0757 35.6184)" font-family="'OCRAStd'" font-size="3">VCC</text>
		</g>
		<g>
			<text transform="matrix(-0.7071 -0.7071 0.7071 -0.7071 76.0249 43.8088)" font-family="'OCRAStd'" font-size="3">R</text>
		</g>
		<g>
			<text transform="matrix(-0.7071 -0.7071 0.7071 -0.7071 76.0249 50.4026)" font-family="'OCRAStd'" font-size="3">GND</text>
		</g>
		<g>
			<text transform="matrix(-5.960464e-008 -1 1 -5.960464e-008 67.3091 56.8274)" font-family="'OCRAStd'" font-size="3">BAT</text>
		</g>
	</g>
	<g>
		<g id="led-0603_3_" transform="matrix(1, 0, 0, 1, 21.5539, 31.3385)">
			<line fill="none" x1="35.062" y1="18.657" x2="35.062" y2="22.526"/>
			<rect x="35.061" y="18.657" fill="#F2F2F2" width="3.654" height="3.93"/>
			<path fill="#22B573" fill-opacity="0.7" d="M35.061,21.196c0,0,0.25,0.345,0.228,0.464c-0.022,0.117,0.08,0.289,0,0.361
				l-0.227-0.01L35.061,21.196z"/>
			<g>
				<rect x="36.637" y="20.356" fill="#FFFFFF" width="0.514" height="0.456"/>
				<rect x="36.624" y="20.356" fill="#B3B3B3" width="0.026" height="0.456"/>
			</g>
			<g>
				<polygon fill="#D1C690" points="36.116,21.506 36.059,22.021 36.451,22.021 36.395,21.506 				"/>
				<g>
					<path fill="#D1C690" d="M36.222,21.539c0-0.001,0-0.002,0-0.004c0.019-0.143,0.055-0.238,0.087-0.32
						c0.042-0.111,0.418-0.299,0.371-0.442c-0.006-0.014,0.007-0.032,0.024-0.035c0.019-0.005,0.036,0.005,0.041,0.021
						c0.052,0.162-0.329,0.359-0.374,0.477c-0.032,0.08-0.066,0.171-0.083,0.306c-0.002,0.016-0.018,0.03-0.037,0.026
						C36.236,21.565,36.222,21.553,36.222,21.539z"/>
				</g>
				<polygon fill="#D1C690" points="37.659,19.677 37.715,19.161 37.325,19.161 37.38,19.677 				"/>
				<g>
					<path fill="#D1C690" d="M36.846,20.562c0-0.015,0.011-0.026,0.025-0.03c0.157-0.034,0.617-0.582,0.617-1.008
						c0-0.018,0.012-0.031,0.033-0.031c0.019,0.002,0.034,0.015,0.034,0.031v0.001c0,0.4-0.413,1.012-0.666,1.065
						c-0.019,0.005-0.037-0.006-0.042-0.021C36.846,20.566,36.846,20.564,36.846,20.562z"/>
				</g>
				<path fill="#D1C690" d="M36.838,20.812c0,0,0.001-0.19-0.167-0.205c0,0.038,0,0.205,0,0.205H36.838z"/>
				<path fill="#D1C690" d="M37.009,20.581c0,0-0.164,0.084-0.188,0.027c-0.026-0.057-0.028-0.095,0.014-0.128
					C36.881,20.448,37.009,20.581,37.009,20.581z"/>
				<path fill="#9D956C" d="M36.652,20.772c0.044,0.145-0.331,0.331-0.374,0.442c-0.032,0.078-0.068,0.177-0.086,0.32h0.032
					c0.018-0.143,0.055-0.238,0.086-0.32c0.043-0.111,0.417-0.299,0.372-0.442H36.652z"/>
				<polygon fill="#9D956C" points="37.35,19.677 37.295,19.161 37.325,19.161 37.38,19.677 				"/>
				<path fill="#9D956C" d="M36.842,20.531c0.155-0.033,0.648-0.571,0.613-1.008h0.034c0.032,0.469-0.46,0.976-0.617,1.009
					L36.842,20.531z"/>
				<path fill="#9D956C" d="M36.642,20.607c0,0.038,0,0.204,0,0.204h0.03c0,0,0-0.166,0-0.204H36.642z"/>
				<path fill="#9D956C" d="M36.808,20.479c-0.043,0.034-0.041,0.07-0.016,0.128h0.033c-0.026-0.057-0.027-0.095,0.015-0.128H36.808
					z"/>
			</g>
			<rect x="38.688" y="19.447" opacity="0.5" fill="#FFFFFF" enable-background="new    " width="0.027" height="2.259"/>
			<path opacity="0.5" fill="#F2F2F2" enable-background="new    " d="M38.715,19.17h-3.653v2.844l3.653,0.002V19.17z"/>
			<path opacity="0.55" fill="#FFFFFF" enable-background="new    " d="M38.366,19.198h0.145c0.08,0.009,0.145-0.007,0.145,0.052
				c0,0.327,0,2.516,0,2.596c0,0.09-0.033,0.094-0.033-0.006c0-0.07,0-2.082,0-2.324c0-0.245-0.056-0.277-0.105-0.277l-0.146,0.001
				C38.273,19.239,38.273,19.198,38.366,19.198z"/>
			<path opacity="0.03" enable-background="new    " d="M35.18,21.939c-0.035,0-0.073,0.006-0.073-0.053c0-0.326,0-2.496,0-2.576
				c0-0.09,0.034-0.094,0.034,0.004c0,0.072,0.001,1.679,0.001,1.92C35.142,21.552,35.18,21.939,35.18,21.939z"/>
			<path fill="#D1C690" d="M35.061,18.658v0.412h0.279c0.067,0,0.115,0.043,0.145,0.101h3.233v-0.54h-3.629h-0.027"/>
			<rect x="38.688" y="18.631" opacity="0.5" fill="#FFFFFF" enable-background="new    " width="0.028" height="0.537"/>
			<path fill="#D1C690" d="M35.061,22.587h0.026h3.627v-0.573h-3.457c-0.03,0.056-0.078,0.103-0.145,0.103H35.06v0.443"/>
			<rect x="38.688" y="22.012" opacity="0.5" fill="#FFFFFF" enable-background="new    " width="0.028" height="0.573"/>
		</g>
	</g>
</g>
</svg>
