<?xml version="1.0" encoding="utf-8"?>
<!-- Generator: Adobe Illustrator 16.0.0, SVG Export Plug-In . SVG Version: 6.00 Build 0)  -->
<!DOCTYPE svg PUBLIC "-//W3C//DTD SVG 1.1//EN" "http://www.w3.org/Graphics/SVG/1.1/DTD/svg11.dtd">
<svg version="1.1" id="Layer_1" xmlns="http://www.w3.org/2000/svg" xmlns:xlink="http://www.w3.org/1999/xlink" x="0px" y="0px"
	 width="127.8px" height="57.6px" viewBox="0 0 127.8 57.6" enable-background="new 0 0 127.8 57.6" xml:space="preserve">
<desc>Fritzing breadboard generated by brd2svg</desc>
<g id="breadboard">
	<g id="icon">
		<path fill="#2DB6B8" d="M0,22.32v12.96C0,47.607,9.993,57.6,22.321,57.6h83.159c12.327,0,22.32-9.993,22.32-22.32V22.32
			C127.8,9.993,117.807,0,105.48,0H22.321C9.993,0,0,9.993,0,22.32 M75.6,39.6c-0.001-0.795,0.644-1.439,1.438-1.44
			c0.795-0.003,1.439,0.643,1.44,1.438c0,0.001,0,0.003,0,0.004c0.002,0.795-0.644,1.441-1.438,1.442s-1.44-0.644-1.441-1.438
			C75.6,39.603,75.6,39.601,75.6,39.6z M85.68,3.6c-0.001-0.795,0.643-1.439,1.438-1.44c0.795-0.003,1.439,0.643,1.44,1.438
			c0,0.001,0,0.003,0,0.004c0.001,0.795-0.644,1.441-1.438,1.442c-0.795,0-1.439-0.644-1.44-1.439
			C85.68,3.603,85.68,3.601,85.68,3.6z M85.68,10.8c-0.001-0.795,0.643-1.441,1.438-1.442c0.795-0.001,1.439,0.644,1.44,1.438
			c0,0.001,0,0.003,0,0.004c0.001,0.795-0.644,1.439-1.438,1.442c-0.795,0.001-1.44-0.645-1.441-1.438
			C85.68,10.803,85.68,10.801,85.68,10.8z M85.68,18c-0.001-0.796,0.643-1.441,1.438-1.442c0.795-0.001,1.439,0.644,1.44,1.438
			c0,0.001,0,0.002,0,0.004c0.001,0.795-0.644,1.439-1.438,1.44s-1.44-0.643-1.441-1.438C85.68,18.002,85.68,18.001,85.68,18z
			 M85.68,25.2c-0.001-0.797,0.643-1.441,1.438-1.442c0.795-0.001,1.439,0.643,1.44,1.438c0,0.002,0,0.003,0,0.006
			c0.001,0.795-0.644,1.439-1.438,1.44s-1.44-0.643-1.441-1.438C85.68,25.202,85.68,25.201,85.68,25.2z M85.68,32.4
			c-0.001-0.795,0.643-1.439,1.438-1.44c0.795-0.001,1.439,0.643,1.44,1.438c0,0.002,0,0.003,0,0.004
			c0.001,0.796-0.644,1.441-1.438,1.442s-1.44-0.643-1.441-1.438C85.68,32.403,85.68,32.402,85.68,32.4z M85.68,39.6
			c-0.001-0.795,0.643-1.439,1.438-1.44c0.795-0.003,1.439,0.643,1.44,1.438c0,0.001,0,0.003,0,0.004
			c0.001,0.795-0.644,1.441-1.438,1.442s-1.44-0.644-1.441-1.438C85.68,39.603,85.68,39.601,85.68,39.6z M85.68,46.8
			c-0.001-0.795,0.643-1.441,1.438-1.442c0.795-0.001,1.439,0.644,1.44,1.438c0,0.001,0,0.003,0,0.004
			c0.001,0.795-0.644,1.439-1.438,1.442c-0.795,0.001-1.44-0.645-1.441-1.438C85.68,46.803,85.68,46.801,85.68,46.8z M85.68,54
			c-0.001-0.796,0.643-1.441,1.438-1.442c0.795-0.001,1.439,0.644,1.44,1.438c0,0.001,0,0.002,0,0.004
			c0.001,0.795-0.644,1.439-1.438,1.44s-1.44-0.643-1.441-1.438C85.68,54.002,85.68,54.001,85.68,54z M92.88,3.6
			c-0.002-0.795,0.643-1.439,1.438-1.44c0.796-0.003,1.441,0.643,1.442,1.438c0,0.001,0,0.003,0,0.004
			c0.001,0.795-0.644,1.441-1.438,1.442c-0.795,0-1.441-0.644-1.441-1.439C92.88,3.603,92.88,3.601,92.88,3.6z M100.08,3.6
			c0-0.795,0.644-1.439,1.438-1.44c0.796-0.003,1.44,0.643,1.442,1.438c0,0.001,0,0.003,0,0.004c0,0.795-0.644,1.441-1.438,1.442
			s-1.44-0.644-1.44-1.438C100.08,3.603,100.08,3.601,100.08,3.6z M92.88,25.2c-0.002-0.797,0.643-1.441,1.438-1.442
			c0.796-0.001,1.441,0.643,1.442,1.438c0,0.002,0,0.003,0,0.006c0.001,0.795-0.644,1.439-1.438,1.44
			c-0.796,0.001-1.441-0.643-1.441-1.438C92.88,25.202,92.88,25.201,92.88,25.2z M92.88,10.8c-0.002-0.795,0.643-1.441,1.438-1.442
			c0.796-0.001,1.441,0.644,1.442,1.438c0,0.001,0,0.003,0,0.004c0.001,0.795-0.644,1.439-1.438,1.442
			c-0.796,0.001-1.441-0.645-1.441-1.438C92.88,10.803,92.88,10.801,92.88,10.8z M100.08,10.8c0-0.795,0.644-1.441,1.438-1.442
			c0.796-0.001,1.44,0.644,1.442,1.438c0,0.001,0,0.003,0,0.004c0,0.795-0.644,1.439-1.438,1.442
			c-0.795,0.001-1.44-0.645-1.44-1.438C100.08,10.803,100.08,10.801,100.08,10.8z M100.08,25.2c0-0.797,0.644-1.441,1.438-1.442
			c0.796-0.001,1.44,0.643,1.442,1.438c0,0.002,0,0.003,0,0.006c0,0.795-0.644,1.439-1.438,1.44s-1.44-0.643-1.44-1.438
			C100.08,25.202,100.08,25.201,100.08,25.2z M92.88,18c-0.002-0.796,0.643-1.441,1.438-1.442c0.796-0.001,1.441,0.644,1.442,1.438
			c0,0.001,0,0.002,0,0.004c0.001,0.795-0.644,1.439-1.438,1.44c-0.796,0.001-1.441-0.643-1.441-1.438
			C92.88,18.002,92.88,18.001,92.88,18z M100.08,18c0-0.796,0.644-1.441,1.438-1.442c0.796-0.001,1.44,0.644,1.442,1.438
			c0,0.001,0,0.002,0,0.004c0,0.795-0.644,1.439-1.438,1.44s-1.44-0.643-1.44-1.438C100.08,18.002,100.08,18.001,100.08,18z
			 M92.88,54c-0.002-0.796,0.643-1.441,1.438-1.442c0.796-0.001,1.441,0.644,1.442,1.438c0,0.001,0,0.002,0,0.004
			c0.001,0.795-0.644,1.439-1.438,1.44c-0.796,0.001-1.441-0.643-1.441-1.438C92.88,54.002,92.88,54.001,92.88,54z M92.88,46.8
			c-0.002-0.795,0.643-1.441,1.438-1.442c0.796-0.001,1.441,0.644,1.442,1.438c0,0.001,0,0.003,0,0.004
			c0.001,0.795-0.644,1.439-1.438,1.442c-0.796,0.001-1.441-0.645-1.441-1.438C92.88,46.803,92.88,46.801,92.88,46.8z M92.88,39.6
			c-0.002-0.795,0.643-1.439,1.438-1.44c0.796-0.003,1.441,0.643,1.442,1.438c0,0.001,0,0.003,0,0.004
			c0.001,0.795-0.644,1.441-1.438,1.442c-0.796,0.001-1.441-0.644-1.441-1.438C92.88,39.603,92.88,39.601,92.88,39.6z M92.88,32.4
			c-0.002-0.795,0.643-1.439,1.438-1.44c0.796-0.001,1.441,0.643,1.442,1.438c0,0.002,0,0.003,0,0.004
			c0.001,0.796-0.644,1.441-1.438,1.442c-0.796,0.001-1.441-0.643-1.441-1.438C92.88,32.403,92.88,32.402,92.88,32.4z M107.281,18
			c-0.002-0.796,0.643-1.441,1.438-1.442c0.795-0.001,1.44,0.644,1.442,1.438c0,0.001,0,0.002,0,0.004
			c0,0.795-0.644,1.439-1.438,1.44s-1.44-0.643-1.441-1.438C107.281,18.002,107.281,18.001,107.281,18z M100.08,54
			c0-0.796,0.644-1.441,1.438-1.442c0.796-0.001,1.44,0.644,1.442,1.438c0,0.001,0,0.002,0,0.004c0,0.795-0.644,1.439-1.438,1.44
			s-1.44-0.643-1.44-1.438C100.08,54.002,100.08,54.001,100.08,54z M100.08,46.8c0-0.795,0.644-1.441,1.438-1.442
			c0.796-0.001,1.44,0.644,1.442,1.438c0,0.001,0,0.003,0,0.004c0,0.795-0.644,1.439-1.438,1.442
			c-0.795,0.001-1.44-0.645-1.44-1.438C100.08,46.803,100.08,46.801,100.08,46.8z M100.08,39.6c0-0.795,0.644-1.439,1.438-1.44
			c0.796-0.003,1.44,0.643,1.442,1.438c0,0.001,0,0.003,0,0.004c0,0.795-0.644,1.441-1.438,1.442s-1.44-0.644-1.44-1.438
			C100.08,39.603,100.08,39.601,100.08,39.6z M100.08,32.4c0-0.795,0.644-1.439,1.438-1.44c0.796-0.001,1.44,0.643,1.442,1.438
			c0,0.002,0,0.003,0,0.004c0,0.796-0.644,1.441-1.438,1.442s-1.44-0.643-1.44-1.438C100.08,32.403,100.08,32.402,100.08,32.4z
			 M107.281,10.8c-0.002-0.795,0.643-1.441,1.438-1.442c0.795-0.001,1.44,0.644,1.442,1.438c0,0.001,0,0.003,0,0.004
			c0,0.795-0.644,1.439-1.438,1.442c-0.795,0.001-1.44-0.645-1.441-1.438C107.281,10.803,107.281,10.801,107.281,10.8z
			 M107.281,25.2c-0.002-0.797,0.643-1.441,1.438-1.442c0.795-0.001,1.44,0.643,1.442,1.438c0,0.002,0,0.003,0,0.006
			c0,0.795-0.644,1.439-1.438,1.44s-1.44-0.643-1.441-1.438C107.281,25.202,107.281,25.201,107.281,25.2z M107.281,46.8
			c-0.002-0.795,0.643-1.441,1.438-1.442c0.795-0.001,1.44,0.644,1.442,1.438c0,0.001,0,0.003,0,0.004
			c0,0.795-0.644,1.439-1.438,1.442c-0.795,0.001-1.44-0.645-1.441-1.438C107.281,46.803,107.281,46.801,107.281,46.8z
			 M107.281,39.6c-0.002-0.795,0.643-1.439,1.438-1.44c0.795-0.003,1.44,0.643,1.442,1.438c0,0.001,0,0.003,0,0.004
			c0,0.795-0.644,1.441-1.438,1.442s-1.44-0.644-1.441-1.438C107.281,39.603,107.281,39.601,107.281,39.6z M107.281,32.4
			c-0.002-0.795,0.643-1.439,1.438-1.44c0.795-0.001,1.44,0.643,1.442,1.438c0,0.002,0,0.003,0,0.004
			c0,0.796-0.644,1.441-1.438,1.442s-1.44-0.643-1.441-1.438C107.281,32.403,107.281,32.402,107.281,32.4z M114.48,10.8
			c-0.001-0.795,0.645-1.441,1.438-1.442c0.795-0.001,1.44,0.644,1.441,1.438c0,0.001,0,0.003,0,0.004
			c0.002,0.795-0.643,1.439-1.438,1.442c-0.795,0.001-1.44-0.645-1.442-1.438C114.48,10.803,114.48,10.801,114.48,10.8z M114.48,18
			c-0.001-0.796,0.645-1.441,1.438-1.442c0.795-0.001,1.44,0.644,1.441,1.438c0,0.001,0,0.002,0,0.004
			c0.002,0.795-0.643,1.439-1.438,1.44s-1.44-0.643-1.442-1.438C114.48,18.002,114.48,18.001,114.48,18z M114.48,39.6
			c-0.001-0.795,0.645-1.439,1.438-1.44c0.795-0.003,1.44,0.643,1.441,1.438c0,0.001,0,0.003,0,0.004
			c0.002,0.795-0.643,1.441-1.438,1.442s-1.44-0.644-1.442-1.438C114.48,39.603,114.48,39.601,114.48,39.6z M114.48,25.2
			c-0.001-0.797,0.645-1.441,1.438-1.442c0.795-0.001,1.44,0.643,1.441,1.438c0,0.002,0,0.003,0,0.006
			c0.002,0.795-0.643,1.439-1.438,1.44s-1.44-0.643-1.442-1.438C114.48,25.202,114.48,25.201,114.48,25.2z M114.48,46.8
			c-0.001-0.795,0.645-1.441,1.438-1.442c0.795-0.001,1.44,0.644,1.441,1.438c0,0.001,0,0.003,0,0.004
			c0.002,0.795-0.643,1.439-1.438,1.442c-0.795,0.001-1.44-0.645-1.442-1.438C114.48,46.803,114.48,46.801,114.48,46.8z
			 M114.48,32.4c-0.001-0.795,0.645-1.439,1.438-1.44c0.795-0.001,1.44,0.643,1.441,1.438c0,0.002,0,0.003,0,0.004
			c0.002,0.796-0.643,1.441-1.438,1.442s-1.44-0.643-1.442-1.438C114.48,32.403,114.48,32.402,114.48,32.4z M107.281,3.6
			c-0.002-0.795,0.643-1.439,1.438-1.44c0.795-0.003,1.44,0.643,1.442,1.438c0,0.001,0,0.003,0,0.004
			c0,0.795-0.644,1.441-1.438,1.442s-1.44-0.644-1.441-1.438C107.281,3.603,107.281,3.601,107.281,3.6z M121.68,18
			c0-0.796,0.646-1.44,1.44-1.44s1.438,0.646,1.438,1.44s-0.646,1.438-1.438,1.438C122.324,19.44,121.68,18.795,121.68,18z
			 M107.281,54c-0.002-0.796,0.643-1.441,1.438-1.442c0.795-0.001,1.44,0.644,1.442,1.438c0,0.001,0,0.002,0,0.004
			c0,0.795-0.644,1.439-1.438,1.44s-1.44-0.643-1.441-1.438C107.281,54.002,107.281,54.001,107.281,54z M121.68,25.2
			c0-0.797,0.646-1.44,1.44-1.44s1.438,0.645,1.438,1.44l0,0c0,0.795-0.646,1.438-1.438,1.438
			C122.324,26.64,121.68,25.995,121.68,25.2z M121.68,32.4c0-0.795,0.646-1.438,1.44-1.438s1.438,0.645,1.438,1.438l0,0
			c0,0.796-0.646,1.44-1.438,1.44C122.324,33.84,121.68,33.196,121.68,32.4z M121.68,39.6c0-0.795,0.646-1.438,1.44-1.438
			s1.438,0.645,1.438,1.438s-0.646,1.44-1.438,1.44C122.324,41.04,121.68,40.395,121.68,39.6z M75.6,3.6
			c-0.001-0.795,0.644-1.439,1.438-1.44c0.795-0.003,1.439,0.643,1.44,1.438c0,0.001,0,0.003,0,0.004
			c0.002,0.795-0.644,1.441-1.438,1.442c-0.795,0-1.439-0.644-1.44-1.439C75.6,3.603,75.6,3.601,75.6,3.6z M75.6,46.8
			c-0.001-0.795,0.644-1.441,1.438-1.442s1.439,0.644,1.44,1.438c0,0.001,0,0.003,0,0.004c0.002,0.795-0.644,1.439-1.438,1.442
			c-0.795,0.001-1.44-0.645-1.441-1.438C75.6,46.803,75.6,46.801,75.6,46.8z M68.4,54c-0.001-0.796,0.645-1.441,1.438-1.442
			c0.795-0.001,1.44,0.644,1.442,1.438c0,0.001,0,0.002,0,0.004c0.001,0.795-0.644,1.439-1.438,1.44
			c-0.793,0.001-1.439-0.643-1.441-1.438C68.4,54.002,68.4,54.001,68.4,54z M75.6,54c-0.001-0.796,0.644-1.441,1.438-1.442
			s1.439,0.644,1.44,1.438c0,0.001,0,0.002,0,0.004c0.002,0.795-0.644,1.439-1.438,1.44s-1.44-0.643-1.441-1.438
			C75.6,54.002,75.6,54.001,75.6,54z"/>
		<g>
			<title>layer 17</title>
			<g>
				<title>element:C1</title>
				<g>
					<title>package:0402</title>
				</g>
			</g>
			<g>
				<title>element:C2</title>
				<g>
					<title>package:0805</title>
				</g>
			</g>
			<g>
				<title>element:C3</title>
				<g>
					<title>package:0402</title>
				</g>
			</g>
			<g>
				<title>element:C4</title>
				<g>
					<title>package:0402</title>
				</g>
			</g>
			<g>
				<title>element:C5</title>
				<g>
					<title>package:0402</title>
				</g>
			</g>
			<g>
				<title>element:C6</title>
				<g>
					<title>package:0402</title>
				</g>
			</g>
			<g>
				<title>element:C7</title>
				<g>
					<title>package:0402</title>
				</g>
			</g>
			<g>
				<title>element:C8</title>
				<g>
					<title>package:0805</title>
				</g>
			</g>
			<g>
				<title>element:C9</title>
				<g>
					<title>package:0402</title>
				</g>
			</g>
			<g>
				<title>element:C10</title>
				<g>
					<title>package:0603-CAP</title>
				</g>
			</g>
			<g>
				<title>element:C11</title>
				<g>
					<title>package:0402</title>
				</g>
			</g>
			<g>
				<title>element:C12</title>
				<g>
					<title>package:0402</title>
				</g>
			</g>
			<g>
				<title>element:C13</title>
				<g>
					<title>package:0402</title>
				</g>
			</g>
			<g>
				<title>element:CN_BATT</title>
				<g>
					<title>package:BK-912-ALT</title>
				</g>
			</g>
			<g>
				<title>element:LED1</title>
				<g>
					<title>package:SML-LX0404SIUPGUSB</title>
				</g>
			</g>
			<g>
				<title>element:Q1</title>
				<g>
					<title>package:SOT523</title>
				</g>
			</g>
			<g>
				<title>element:Q2</title>
				<g>
					<title>package:SOT523</title>
				</g>
			</g>
			<g>
				<title>element:R1</title>
				<g>
					<title>package:0402</title>
				</g>
			</g>
			<g>
				<title>element:R2</title>
				<g>
					<title>package:0402</title>
				</g>
			</g>
			<g>
				<title>element:R3</title>
				<g>
					<title>package:0402</title>
				</g>
			</g>
			<g>
				<title>element:R4</title>
				<g>
					<title>package:0402</title>
				</g>
			</g>
			<g>
				<title>element:R5</title>
				<g>
					<title>package:0402</title>
				</g>
			</g>
			<g>
				<title>element:R6</title>
				<g>
					<title>package:0402</title>
				</g>
			</g>
			<g>
				<title>element:TP1</title>
				<g>
					<title>package:TP06R</title>
				</g>
			</g>
			<g>
				<title>element:TP2</title>
				<g>
					<title>package:TP06R</title>
				</g>
			</g>
			<g>
				<title>element:TP3</title>
				<g>
					<title>package:TP06R</title>
				</g>
			</g>
			<g>
				<title>element:TP4</title>
				<g>
					<title>package:TP06R</title>
				</g>
			</g>
			<g>
				<title>element:TP5</title>
				<g>
					<title>package:TP06R</title>
				</g>
			</g>
			<g>
				<title>element:TP6</title>
				<g>
					<title>package:TP06R</title>
				</g>
			</g>
			<g>
				<title>element:TP7</title>
				<g>
					<title>package:TP06R</title>
				</g>
			</g>
			<g>
				<title>element:TP8</title>
				<g>
					<title>package:TP06R</title>
				</g>
			</g>
			<g>
				<title>element:TP9</title>
				<g>
					<title>package:TP06R</title>
				</g>
			</g>
			<g>
				<title>element:TP10</title>
				<g>
					<title>package:TP06R</title>
				</g>
			</g>
			<g>
				<title>element:TP11</title>
				<g>
					<title>package:TP06R</title>
				</g>
			</g>
			<g>
				<title>element:TP12</title>
				<g>
					<title>package:TP06R</title>
				</g>
			</g>
			<g>
				<title>element:TP14</title>
				<g>
					<title>package:TP06R</title>
				</g>
			</g>
			<g>
				<title>element:TP15</title>
				<g>
					<title>package:TP06R</title>
				</g>
			</g>
			<g>
				<title>element:TP16</title>
				<g>
					<title>package:TP06R</title>
				</g>
			</g>
			<g>
				<title>element:TP17</title>
				<g>
					<title>package:TP06R</title>
				</g>
			</g>
			<g>
				<title>element:TP19</title>
				<g>
					<title>package:TP14R</title>
				</g>
			</g>
			<g>
				<title>element:U$1</title>
				<g>
					<title>package:1X01</title>
				</g>
			</g>
			<g>
				<title>element:U$3</title>
				<g>
					<title>package:1X01</title>
				</g>
			</g>
			<g>
				<title>element:U$4</title>
				<g>
					<title>package:1X01</title>
				</g>
			</g>
			<g>
				<title>element:U$5</title>
				<g>
					<title>package:1X01</title>
				</g>
			</g>
			<g>
				<title>element:U$6</title>
				<g>
					<title>package:1X01</title>
				</g>
			</g>
			<g>
				<title>element:U$7</title>
				<g>
					<title>package:1X01</title>
				</g>
			</g>
			<g>
				<title>element:U$8</title>
				<g>
					<title>package:1X01</title>
				</g>
			</g>
			<g>
				<title>element:U$9</title>
				<g>
					<title>package:1X01</title>
				</g>
			</g>
			<g>
				<title>element:U$10</title>
				<g>
					<title>package:1X01</title>
				</g>
			</g>
			<g>
				<title>element:U$11</title>
				<g>
					<title>package:1X01</title>
				</g>
			</g>
			<g>
				<title>element:U$12</title>
				<g>
					<title>package:1X01</title>
				</g>
			</g>
			<g>
				<title>element:U$13</title>
				<g>
					<title>package:1X01</title>
				</g>
			</g>
			<g>
				<title>element:U$14</title>
				<g>
					<title>package:1X01</title>
				</g>
			</g>
			<g>
				<title>element:U$15</title>
				<g>
					<title>package:1X01</title>
				</g>
			</g>
			<g>
				<title>element:U$16</title>
				<g>
					<title>package:1X01</title>
				</g>
			</g>
			<g>
				<title>element:U$17</title>
				<g>
					<title>package:1X01</title>
				</g>
			</g>
			<g>
				<title>element:U$18</title>
				<g>
					<title>package:1X01</title>
				</g>
			</g>
			<g>
				<title>element:U$19</title>
				<g>
					<title>package:1X01</title>
				</g>
			</g>
			<g>
				<title>element:U$20</title>
				<g>
					<title>package:1X01</title>
				</g>
			</g>
			<g>
				<title>element:U$21</title>
				<g>
					<title>package:1X01</title>
				</g>
			</g>
			<g>
				<title>element:U$22</title>
				<g>
					<title>package:1X01</title>
				</g>
			</g>
			<g>
				<title>element:U$23</title>
				<g>
					<title>package:1X01</title>
				</g>
			</g>
			<g>
				<title>element:U$24</title>
				<g>
					<title>package:1X01</title>
				</g>
			</g>
			<g>
				<title>element:U$25</title>
				<g>
					<title>package:1X01</title>
				</g>
			</g>
			<g>
				<title>element:U$26</title>
				<g>
					<title>package:1X01</title>
				</g>
			</g>
			<g>
				<title>element:U$27</title>
				<g>
					<title>package:1X01</title>
				</g>
			</g>
			<g>
				<title>element:U$28</title>
				<g>
					<title>package:1X01</title>
				</g>
			</g>
			<g>
				<title>element:U$29</title>
				<g>
					<title>package:1X01</title>
				</g>
			</g>
			<g>
				<title>element:U$30</title>
				<g>
					<title>package:1X01</title>
				</g>
			</g>
			<g>
				<title>element:U$31</title>
				<g>
					<title>package:1X01</title>
				</g>
			</g>
			<g>
				<title>element:U$32</title>
				<g>
					<title>package:1X01</title>
				</g>
			</g>
			<g>
				<title>element:U$33</title>
				<g>
					<title>package:1X01</title>
				</g>
			</g>
			<g>
				<title>element:U$34</title>
				<g>
					<title>package:1X01</title>
				</g>
			</g>
			<g>
				<title>element:U$35</title>
				<g>
					<title>package:1X01</title>
				</g>
			</g>
			<g>
				<title>element:U$36</title>
				<g>
					<title>package:1X01</title>
				</g>
			</g>
			<g>
				<title>element:U$37</title>
				<g>
					<title>package:1X01</title>
				</g>
			</g>
			<g>
				<title>element:U$38</title>
				<g>
					<title>package:1X01</title>
				</g>
			</g>
			<g>
				<title>element:U$39</title>
				<g>
					<title>package:1X01</title>
				</g>
			</g>
			<g>
				<title>element:U$40</title>
				<g>
					<title>package:1X01</title>
				</g>
			</g>
			<g>
				<title>element:U$41</title>
				<g>
					<title>package:1X01</title>
				</g>
			</g>
			<g>
				<title>element:U$42</title>
				<g>
					<title>package:1X01</title>
				</g>
			</g>
			<g>
				<title>element:U$43</title>
				<g>
					<title>package:1X01</title>
				</g>
			</g>
			<g>
				<title>element:U$44</title>
				<g>
					<title>package:1X01</title>
				</g>
			</g>
			<g>
				<title>element:U$45</title>
				<g>
					<title>package:1X01</title>
				</g>
			</g>
			<g>
				<title>element:U$46</title>
				<g>
					<title>package:1X01</title>
				</g>
			</g>
			<g>
				<title>element:U$49</title>
				<g>
					<title>package:BEAN_PROGAM_PIN</title>
				</g>
			</g>
			<g>
				<title>element:U$50</title>
				<g>
					<title>package:BEAN_PROGAM_PIN</title>
				</g>
			</g>
			<g>
				<title>element:U$51</title>
				<g>
					<title>package:BEAN_PROGAM_PIN</title>
				</g>
			</g>
			<g>
				<title>element:U$52</title>
				<g>
					<title>package:1X01</title>
				</g>
			</g>
			<g>
				<title>element:U$53</title>
				<g>
					<title>package:1X01</title>
				</g>
			</g>
			<g>
				<title>element:U1</title>
				<g>
					<title>package:PTD0313001E</title>
				</g>
			</g>
			<g>
				<title>element:U2</title>
				<g>
					<title>package:QFN-28-4X4</title>
				</g>
			</g>
			<g>
				<title>element:U3</title>
				<g>
					<title>package:BMA250</title>
				</g>
			</g>
			<g>
				<title>element:U4</title>
				<g>
					<title>package:CSTCE_G_3PIN_XTAL</title>
				</g>
			</g>
			<g>
				<title>element:Y1</title>
				<g>
					<title>package:9HT10</title>
				</g>
			</g>
		</g>
		<polygon fill="#1A1A1A" points="53.731,22.41 65.07,22.41 65.07,33.749 54.865,33.749 53.731,32.615 		"/>
		<circle id="connector71pin" fill="none" stroke="#9A916C" stroke-width="1.224" cx="77.041" cy="39.6" r="2.052"/>
		<circle id="connector72pin" fill="none" stroke="#9A916C" stroke-width="1.224" cx="87.121" cy="3.6" r="2.052"/>
		<circle id="connector73pin" fill="none" stroke="#9A916C" stroke-width="1.224" cx="87.121" cy="10.8" r="2.052"/>
		<circle id="connector74pin" fill="none" stroke="#9A916C" stroke-width="1.224" cx="87.121" cy="18" r="2.052"/>
		<circle id="connector75pin" fill="none" stroke="#9A916C" stroke-width="1.224" cx="87.121" cy="25.2" r="2.052"/>
		<circle id="connector76pin" fill="none" stroke="#9A916C" stroke-width="1.224" cx="87.121" cy="32.4" r="2.052"/>
		<circle id="connector77pin" fill="none" stroke="#9A916C" stroke-width="1.224" cx="87.121" cy="39.6" r="2.052"/>
		<circle id="connector78pin" fill="none" stroke="#9A916C" stroke-width="1.224" cx="87.121" cy="46.8" r="2.052"/>
		<circle id="connector79pin" fill="none" stroke="#9A916C" stroke-width="1.224" cx="87.121" cy="54" r="2.052"/>
		<circle id="connector80pin" fill="none" stroke="#9A916C" stroke-width="1.224" cx="94.321" cy="3.6" r="2.052"/>
		<circle id="connector81pin" fill="none" stroke="#9A916C" stroke-width="1.224" cx="101.52" cy="3.6" r="2.052"/>
		<circle id="connector82pin" fill="none" stroke="#9A916C" stroke-width="1.224" cx="94.321" cy="25.2" r="2.052"/>
		<circle id="connector83pin" fill="none" stroke="#9A916C" stroke-width="1.224" cx="94.321" cy="10.8" r="2.052"/>
		<circle id="connector84pin" fill="none" stroke="#9A916C" stroke-width="1.224" cx="101.52" cy="10.8" r="2.052"/>
		<circle id="connector85pin" fill="none" stroke="#9A916C" stroke-width="1.224" cx="101.52" cy="25.2" r="2.052"/>
		<circle id="connector86pin" fill="none" stroke="#9A916C" stroke-width="1.224" cx="94.321" cy="18" r="2.052"/>
		<circle id="connector87pin" fill="none" stroke="#9A916C" stroke-width="1.224" cx="101.52" cy="18" r="2.052"/>
		<circle id="connector88pin" fill="none" stroke="#9A916C" stroke-width="1.224" cx="94.321" cy="54" r="2.052"/>
		<circle id="connector89pin" fill="none" stroke="#9A916C" stroke-width="1.224" cx="94.321" cy="46.8" r="2.052"/>
		<circle id="connector90pin" fill="none" stroke="#9A916C" stroke-width="1.224" cx="94.321" cy="39.6" r="2.052"/>
		<circle id="connector91pin" fill="none" stroke="#9A916C" stroke-width="1.224" cx="94.321" cy="32.4" r="2.052"/>
		<circle id="connector92pin" fill="none" stroke="#9A916C" stroke-width="1.224" cx="108.72" cy="18" r="2.052"/>
		<circle id="connector93pin" fill="none" stroke="#9A916C" stroke-width="1.224" cx="101.52" cy="54" r="2.052"/>
		<circle id="connector94pin" fill="none" stroke="#9A916C" stroke-width="1.224" cx="101.52" cy="46.8" r="2.052"/>
		<circle id="connector95pin" fill="none" stroke="#9A916C" stroke-width="1.224" cx="101.52" cy="39.6" r="2.052"/>
		<circle id="connector96pin" fill="none" stroke="#9A916C" stroke-width="1.224" cx="101.52" cy="32.4" r="2.052"/>
		<circle id="connector97pin" fill="none" stroke="#9A916C" stroke-width="1.224" cx="108.72" cy="10.8" r="2.052"/>
		<circle id="connector98pin" fill="none" stroke="#9A916C" stroke-width="1.224" cx="108.72" cy="25.2" r="2.052"/>
		<circle id="connector99pin" fill="none" stroke="#9A916C" stroke-width="1.224" cx="108.72" cy="46.8" r="2.052"/>
		<circle id="connector100pin" fill="none" stroke="#9A916C" stroke-width="1.224" cx="108.72" cy="39.6" r="2.052"/>
		<circle id="connector101pin" fill="none" stroke="#9A916C" stroke-width="1.224" cx="108.72" cy="32.4" r="2.052"/>
		<circle id="connector102pin" fill="none" stroke="#9A916C" stroke-width="1.224" cx="115.919" cy="10.8" r="2.052"/>
		<circle id="connector103pin" fill="none" stroke="#9A916C" stroke-width="1.224" cx="115.919" cy="18" r="2.052"/>
		<circle id="connector104pin" fill="none" stroke="#9A916C" stroke-width="1.224" cx="115.919" cy="39.6" r="2.052"/>
		<circle id="connector105pin" fill="none" stroke="#9A916C" stroke-width="1.224" cx="115.919" cy="25.2" r="2.052"/>
		<circle id="connector106pin" fill="none" stroke="#9A916C" stroke-width="1.224" cx="115.919" cy="46.8" r="2.052"/>
		<circle id="connector107pin" fill="none" stroke="#9A916C" stroke-width="1.224" cx="115.919" cy="32.4" r="2.052"/>
		<circle id="connector108pin" fill="none" stroke="#9A916C" stroke-width="1.224" cx="108.72" cy="3.6" r="2.052"/>
		<circle id="connector109pin" fill="none" stroke="#9A916C" stroke-width="1.224" cx="123.121" cy="18" r="2.052"/>
		<circle id="connector110pin" fill="none" stroke="#9A916C" stroke-width="1.224" cx="108.72" cy="54" r="2.052"/>
		<circle id="connector111pin" fill="none" stroke="#9A916C" stroke-width="1.224" cx="123.121" cy="25.2" r="2.052"/>
		<circle id="connector112pin" fill="none" stroke="#9A916C" stroke-width="1.224" cx="123.121" cy="32.4" r="2.052"/>
		<circle id="connector113pin" fill="none" stroke="#9A916C" stroke-width="1.224" cx="123.121" cy="39.6" r="2.052"/>
		<circle id="connector114pin" fill="none" stroke="#9A916C" stroke-width="1.224" cx="77.041" cy="3.6" r="2.052"/>
		<circle id="connector115pin" fill="none" stroke="#9A916C" stroke-width="1.224" cx="77.041" cy="46.8" r="2.052"/>
		<circle id="connector119pin" fill="none" stroke="#9A916C" stroke-width="1.224" cx="69.839" cy="54" r="2.052"/>
		<circle id="connector120pin" fill="none" stroke="#9A916C" stroke-width="1.224" cx="77.041" cy="54" r="2.052"/>
		<g>
			<rect x="4.062" y="12.165" fill="#164281" width="44.357" height="33.813"/>
			<rect x="5.08" y="15.312" fill="#243264" width="9.946" height="11.801"/>
			<rect x="5.079" y="15.312" fill="#4D4D4D" width="3.793" height="10.499"/>
			<polygon fill="#DDE6DD" points="8.872,20.815 6.745,20.815 6.745,18.549 5.079,18.549 5.079,25.811 6.745,25.811 8.872,25.811 
				8.872,24.423 			"/>
			<polygon fill="#DDE6DD" points="7.67,15.312 7.207,15.312 5.079,15.312 5.079,18.087 7.207,18.087 7.207,20.354 8.872,20.354 
				8.872,15.312 			"/>
			<g>
				<g>
					<path fill="#CCCCCC" d="M31.399,14.248c4.903,0,9.759,0,14.663,0c0.092,0,0.139,0,0.139,0.138c0,9.759,0,19.52,0,29.279
						c0,0.14-0.047,0.14-0.139,0.14c-9.759,0-19.52,0-29.325,0c-0.093,0-0.139,0-0.139-0.14c0-9.761,0-19.521,0-29.279
						c0-0.093,0.046-0.138,0.139-0.138C21.593,14.248,26.496,14.248,31.399,14.248z"/>
					<g>
						<path fill="#F2F2F2" d="M17.899,42.027c0,0.551,0.45,1,1,1h25c0.55,0,1-0.449,1-1v-26c0-0.55-0.45-1-1-1h-25
							c-0.55,0-1,0.45-1,1V42.027z"/>
					</g>
					<g>
						<path d="M41.848,27.373c-0.026,0.155,0.052,0.286,0.129,0.389c0.104,0.131,0.156,0.261,0.234,0.417
							c0.026,0.051,0.052,0.051,0.104,0.051c0.285-0.051,0.493,0.052,0.623,0.313c0.287,0.57,0.572,1.144,0.729,1.767
							c0.053,0.183,0.025,0.363-0.157,0.494c-0.259,0.207-0.572,0.389-0.883,0.52c-0.156,0.054-0.26,0.132-0.364,0.261
							c-0.156,0.18-0.364,0.287-0.572,0.338c-0.65,0.182-1.325,0.363-2.001,0.467c-0.182,0.025-0.337,0.053-0.52,0.053
							c-0.287,0.027-0.442-0.078-0.546-0.338c-0.078-0.182-0.104-0.34-0.13-0.52c-0.026-0.181-0.078-0.313-0.26-0.392
							c-0.286-0.104-0.416-0.338-0.467-0.647c-0.052-0.234,0.026-0.441,0.104-0.625c0.077-0.207,0.129-0.416,0.051-0.65
							c-0.051-0.207-0.026-0.389,0.053-0.57c0.078-0.183,0.156-0.364,0.234-0.571c0.051-0.157,0.051-0.285,0.025-0.441
							c-0.052-0.338,0.079-0.857,0.469-1.064c0.208-0.106,0.389-0.234,0.597-0.338c0.104-0.054,0.208-0.054,0.338,0
							c0.13,0.052,0.234,0.129,0.337,0.206c0.079,0.053,0.156,0.053,0.208,0.025c0.442-0.077,0.857,0,1.274,0.183
							c0.286,0.131,0.416,0.339,0.416,0.624C41.848,27.321,41.848,27.348,41.848,27.373z M39.95,30.986
							c0.078-0.131,0.182-0.209,0.312-0.26c0.495-0.182,1.014-0.391,1.508-0.598c0.26-0.104,0.415-0.363,0.363-0.65
							c-0.025-0.104-0.051-0.18-0.077-0.286c-0.026-0.104-0.079-0.13-0.208-0.13c-0.104,0-0.208,0.026-0.312,0.051
							c-0.65,0.185-1.326,0.34-2.002,0.495c-0.025,0-0.051,0.025-0.051,0c0-0.026,0.026-0.026,0.026-0.053
							c0.157-0.078,0.312-0.156,0.494-0.207c0.26-0.08,0.547-0.157,0.806-0.208c0.312-0.079,0.624-0.183,0.936-0.313
							c0.156-0.053,0.208-0.157,0.208-0.286c0-0.13-0.025-0.286-0.077-0.416c-0.052-0.208-0.208-0.313-0.416-0.313
							c-0.234,0.028-0.468,0.053-0.702,0.079c-0.286,0.025-0.572,0.077-0.857,0.104c-0.027,0-0.052,0.026-0.052-0.026
							c0-0.052,0.025-0.025,0.052-0.052c0.233-0.051,0.467-0.104,0.701-0.129c0.26-0.027,0.495-0.078,0.755-0.104
							c0.155-0.027,0.233-0.104,0.233-0.26c0.026-0.208-0.078-0.442-0.287-0.545c-0.077-0.026-0.129-0.053-0.207-0.079
							c-0.234-0.077-0.495-0.077-0.728-0.104c-0.079,0-0.156,0-0.234,0.053c-0.104,0.052-0.207,0.104-0.312,0.155
							c-0.026,0.026-0.079,0.026-0.13,0.026c0.051-0.051,0.13-0.104,0.182-0.156c0.027-0.025,0.053-0.025,0.053-0.052
							s-0.053-0.026-0.078-0.026c-0.13,0-0.234,0.026-0.364,0c0.051-0.024,0.104-0.052,0.13-0.076
							c-0.052-0.054-0.13-0.054-0.182-0.079c0.025,0,0.052-0.027,0.078-0.027c0.025,0,0.025,0,0.025-0.025s-0.025-0.025-0.025,0
							c-0.104,0.025-0.208,0.025-0.286,0.078c-0.13,0.078-0.26,0.156-0.416,0.233c-0.156,0.079-0.233,0.208-0.286,0.364
							c-0.026,0.104-0.077,0.234-0.104,0.338c0,0.026,0,0.052,0,0.078c0.052,0.182,0.104,0.39,0.312,0.493
							C38.706,28.1,38.679,28.1,38.653,28.1c-0.13,0.025-0.234,0.078-0.285,0.182c-0.078,0.182-0.156,0.363-0.234,0.546
							c-0.13,0.313,0.026,0.624,0.364,0.728c0.078,0.025,0.156,0.025,0.234,0.053c-0.234,0.078-0.468,0.052-0.623,0.285
							c-0.13,0.209-0.209,0.416-0.157,0.65c0.026,0.207,0.157,0.362,0.338,0.44s0.363,0.131,0.571,0.104
							c-0.078,0.104-0.13,0.182-0.155,0.287c-0.053,0.26,0,0.494,0.103,0.727c0.052,0.105,0.13,0.129,0.234,0.129
							c0.131,0,0.286,0,0.416-0.022c0.728-0.133,1.456-0.261,2.131-0.521c0.156-0.051,0.312-0.076,0.416-0.182
							c0.261-0.234,0.338-0.547,0.234-0.885c-0.078-0.259-0.234-0.361-0.494-0.285c-0.052,0-0.078,0.026-0.13,0.026
							c-0.338,0.13-0.676,0.259-1.014,0.39C40.444,30.829,40.21,30.906,39.95,30.986z M42.783,29.4
							c-0.026,0.078-0.078,0.104-0.129,0.104c-0.078,0.024-0.13,0.024-0.208,0c-0.052,0-0.078,0-0.078,0.053
							c-0.026,0.156-0.052,0.287-0.052,0.443c0,0.311,0.104,0.598,0.182,0.854c0.052,0.131,0.156,0.156,0.285,0.104
							c0.208-0.076,0.39-0.207,0.599-0.312c0.104-0.051,0.129-0.155,0.129-0.26s-0.053-0.182-0.079-0.285
							c-0.104-0.338-0.234-0.678-0.416-0.989c-0.025,0.027-0.025,0.079-0.051,0.105c-0.052-0.182-0.13-0.364-0.183-0.547
							c-0.026-0.051-0.026-0.104-0.078-0.104c-0.104-0.051-0.233-0.051-0.337,0.026s-0.13,0.182-0.104,0.312
							c0.025,0.132,0.052,0.261,0.078,0.393c0.026,0.102,0.078,0.155,0.182,0.127C42.601,29.425,42.705,29.425,42.783,29.4z"/>
						<g>
							<path d="M42.656,16.55c0.146,1.006-0.527,1.948-1.487,2.171V17.06H40.33v1.667c-0.977-0.208-1.668-1.159-1.521-2.177H37.97
								c-0.163,1.616,1.124,3.054,2.762,3.054c1.638,0,2.923-1.438,2.762-3.054H42.656z"/>
							<path d="M38.815,21.251c-0.168,1.16,0.747,2.233,1.935,2.233s2.103-1.073,1.935-2.233h0.844
								c0.164,1.625-1.132,3.071-2.779,3.071c-1.649,0-2.941-1.446-2.779-3.071H38.815L38.815,21.251z"/>
						</g>
						<g>
							<path d="M41.995,35.087c1.025,0.715,1.278,2.131,0.563,3.156c-0.715,1.024-2.13,1.276-3.154,0.563
								c-0.497-0.344-0.83-0.865-0.936-1.461c-0.105-0.596,0.026-1.197,0.373-1.691c0.145-0.211,0.322-0.391,0.527-0.539
								l-0.338-0.467c-0.257,0.188-0.481,0.412-0.662,0.674c-0.434,0.623-0.6,1.377-0.466,2.125c0.134,0.748,0.55,1.398,1.173,1.832
								c0.401,0.279,0.857,0.449,1.332,0.496v1.152h-1.911v-1.406l-0.576-0.432v2.414h5.514l-0.385-0.576h-2.066v-1.15
								c0.072-0.008,0.145-0.018,0.217-0.03c0.748-0.134,1.397-0.55,1.832-1.173c0.345-0.495,0.51-1.061,0.51-1.622
								c0-0.898-0.425-1.783-1.216-2.337L41.995,35.087z"/>
							<path d="M39.67,37.13c-0.049-0.273,0.013-0.551,0.171-0.779c0.067-0.098,0.15-0.18,0.244-0.248l-0.339-0.469
								c-0.146,0.106-0.274,0.236-0.377,0.385c-0.511,0.736-0.331,1.748,0.402,2.26c0.356,0.246,0.785,0.343,1.212,0.267
								c0.427-0.076,0.798-0.314,1.045-0.67c0.197-0.281,0.291-0.605,0.291-0.927c0-0.512-0.242-1.018-0.693-1.331l-0.33,0.475
								c0.473,0.328,0.589,0.981,0.26,1.453c-0.16,0.229-0.4,0.383-0.675,0.432c-0.274,0.049-0.551-0.012-0.781-0.172
								C39.872,37.644,39.719,37.406,39.67,37.13z"/>
						</g>
					</g>
					<g>
						<text transform="matrix(-4.371139e-008 -1 1 -4.371139e-008 31.0977 40.9983)" font-family="'DroidSans'" font-size="10.52">Bean</text>
						<text transform="matrix(-4.371139e-008 -1 1 -4.371139e-008 34.5361 39.9524)" font-family="'DroidSans'" font-size="2.9671">(rev E) </text>
						<text transform="matrix(-4.371139e-008 -1 1 -4.371139e-008 23.3569 34.0647)" font-family="'DroidSans'" font-size="3.9138">LightBlue</text>
					</g>
				</g>
			</g>
			<rect x="5.079" y="25.811" fill="#B3B3B3" width="1.666" height="1.302"/>
			<rect x="46.061" y="14.248" fill="#CCCCCC" width="0.904" height="3.302"/>
			<rect x="46.061" y="40.503" fill="#CCCCCC" width="0.904" height="3.302"/>
			<rect x="7.206" y="25.811" fill="#B3B3B3" width="1.666" height="1.302"/>
		</g>
	</g>
	<g id="_x30_603-cap" transform="matrix(1, 0, 0, 1, 21.6397, 50.555)">
		<rect x="-9.536" y="-2.557" fill="#915A3C" width="1.417" height="3.981"/>
		<g>
			<g>
				<path fill="#DCDCDC" d="M-8.119,0.847L-8.119,0.847L-8.119,0.847V0.8l0,0c-0.13-0.039-0.413-0.066-0.558-0.066
					c-0.15,0-0.731,0.023-0.867,0.066l0,0l0,0v0.612h1.425V0.847z"/>
				<path fill="#DCDCDC" d="M-8.174-1.945h0.054v-0.61h-1.426v0.61c0.136,0.044,0.714,0.098,0.867,0.098
					C-8.498-1.849-8.329-1.886-8.174-1.945z"/>
			</g>
		</g>
		<rect x="-8.19" y="-2.557" opacity="0.2" fill="#FFFFFF" enable-background="new    " width="0.071" height="3.981"/>
		<rect x="-9.536" y="-2.557" opacity="0.2" enable-background="new    " width="0.071" height="3.981"/>
	</g>
	<g id="_x30_603-cap_1_" transform="matrix(1, 0, 0, 1, 21.6397, 50.555)">
		<rect x="49.062" y="-46.395" fill="#603C29" width="3.167" height="5.829"/>
		<g>
			<g>
				<path fill="#DCDCDC" d="M52.229-41.413L52.229-41.413L52.229-41.413v-0.068l0,0c-0.292-0.057-0.926-0.099-1.249-0.099
					c-0.335,0-1.632,0.036-1.937,0.099l0,0l0,0v0.896h3.186V-41.413z"/>
				<path fill="#DCDCDC" d="M52.107-45.5h0.122v-0.895h-3.186v0.895c0.301,0.064,1.596,0.141,1.937,0.141
					C51.383-45.358,51.756-45.413,52.107-45.5z"/>
			</g>
		</g>
		<rect x="52.07" y="-46.395" opacity="0.2" fill="#FFFFFF" enable-background="new    " width="0.159" height="5.829"/>
		<rect x="49.062" y="-46.395" opacity="0.2" enable-background="new    " width="0.159" height="5.829"/>
	</g>
	<g id="_x30_603-cap_2_" transform="matrix(1, 0, 0, 1, 21.6397, 50.555)">
		<rect x="45.558" y="-46.395" fill="#603C29" width="3.167" height="5.829"/>
		<g>
			<g>
				<path fill="#DCDCDC" d="M48.725-41.413L48.725-41.413L48.725-41.413v-0.068l0,0c-0.292-0.057-0.926-0.099-1.249-0.099
					c-0.335,0-1.632,0.036-1.937,0.099l0,0l0,0v0.896h3.186V-41.413z"/>
				<path fill="#DCDCDC" d="M48.603-45.5h0.122v-0.895h-3.186v0.895c0.301,0.064,1.596,0.141,1.937,0.141
					C47.879-45.358,48.252-45.413,48.603-45.5z"/>
			</g>
		</g>
		<rect x="48.566" y="-46.395" opacity="0.2" fill="#FFFFFF" enable-background="new    " width="0.159" height="5.829"/>
		<rect x="45.558" y="-46.395" opacity="0.2" enable-background="new    " width="0.159" height="5.829"/>
	</g>
	<g>
		<circle fill="#9A916C" cx="15.508" cy="6.235" r="2.75"/>
		<circle fill="#333333" cx="15.508" cy="6.235" r="0.5"/>
	</g>
	<g>
		<circle fill="#9A916C" cx="23.508" cy="6.235" r="2.75"/>
		<circle fill="#333333" cx="23.508" cy="6.235" r="0.5"/>
	</g>
	<g>
		<circle fill="#9A916C" cx="31.508" cy="6.235" r="2.75"/>
		<circle fill="#333333" cx="31.508" cy="6.235" r="0.5"/>
	</g>
	<rect x="43.509" y="4.678" fill="#1A1A1A" width="5.884" height="5.884"/>
	<g>
		<g>
			<text transform="matrix(-4.371139e-008 -1 1 -4.371139e-008 83.5396 56.1711)" font-family="'OCRAStd'" font-size="3">A0</text>
		</g>
		<g>
			<text transform="matrix(-4.371139e-008 -1 1 -4.371139e-008 83.5396 48.6145)" font-family="'OCRAStd'" font-size="3">A1</text>
		</g>
		<g>
			<text transform="matrix(-4.371139e-008 -1 1 -4.371139e-008 83.5396 40.6477)" font-family="'OCRAStd'" font-size="3">0</text>
		</g>
		<g>
			<text transform="matrix(-4.371139e-008 -1 1 -4.371139e-008 83.5396 33.4485)" font-family="'OCRAStd'" font-size="3">1</text>
		</g>
		<g>
			
				<text transform="matrix(-4.371139e-008 -1 1 -4.371139e-008 57.8696 32.0383)" fill="#333333" font-family="'OCRAStd'" font-size="2.1996">M328P</text>
		</g>
		<g>
			<text transform="matrix(-4.371139e-008 -1 1 -4.371139e-008 83.5396 26.2498)" font-family="'OCRAStd'" font-size="3">2</text>
		</g>
		<g>
			<text transform="matrix(-4.371139e-008 -1 1 -4.371139e-008 83.5396 19.0496)" font-family="'OCRAStd'" font-size="3">3</text>
		</g>
		<g>
			<text transform="matrix(-4.371139e-008 -1 1 -4.371139e-008 83.5396 11.8484)" font-family="'OCRAStd'" font-size="3">4</text>
		</g>
		<g>
			<text transform="matrix(-4.371139e-008 -1 1 -4.371139e-008 83.5396 4.6794)" font-family="'OCRAStd'" font-size="3">5</text>
		</g>
		<g>
			<text transform="matrix(-4.371139e-008 -1 1 -4.371139e-008 66.9604 3.5994)" font-family="'OCRAStd'" font-size="3">G</text>
			<text transform="matrix(-4.371139e-008 -1 1 -4.371139e-008 69.9604 3.5994)" font-family="'OCRAStd'" font-size="3">N</text>
			<text transform="matrix(-4.371139e-008 -1 1 -4.371139e-008 72.9604 3.5994)" font-family="'OCRAStd'" font-size="3">D</text>
		</g>
		<g>
			<text transform="matrix(-0.2588 -0.9659 0.9659 -0.2588 77.0386 35.6194)" font-family="'OCRAStd'" font-size="3">VCC</text>
		</g>
		<g>
			<text transform="matrix(-0.7071 -0.7071 0.7071 -0.7071 74.9878 43.8079)" font-family="'OCRAStd'" font-size="3">R</text>
		</g>
		<g>
			<text transform="matrix(-0.7071 -0.7071 0.7071 -0.7071 74.9878 50.4016)" font-family="'OCRAStd'" font-size="3">GND</text>
		</g>
		<g>
			<text transform="matrix(-5.960464e-008 -1 1 -5.960464e-008 66.272 56.8274)" font-family="'OCRAStd'" font-size="3">BAT</text>
		</g>
	</g>
</g>
</svg>
