<?xml version="1.0" encoding="utf-8"?>
<!-- Generator: Adobe Illustrator 16.0.0, SVG Export Plug-In . SVG Version: 6.00 Build 0)  -->
<!DOCTYPE svg PUBLIC "-//W3C//DTD SVG 1.1//EN" "http://www.w3.org/Graphics/SVG/1.1/DTD/svg11.dtd">
<svg version="1.1" id="Ebene_1" xmlns:svg="http://www.w3.org/2000/svg"
	 xmlns="http://www.w3.org/2000/svg" xmlns:xlink="http://www.w3.org/1999/xlink" x="0px" y="0px" width="88.352px"
	 height="47.251px" viewBox="0 0 88.352 47.251" enable-background="new 0 0 88.352 47.251" xml:space="preserve">
<g id="breadboard">
	<rect id="connector0pin" x="4.292" y="46.323" fill="none" width="2.083" height="1"/>
	<rect id="connector1pin" x="82.133" y="46.323" fill="none" width="2.275" height="1"/>
	
		<line id="connector0leg" fill="none" stroke="#8C8C8C" stroke-width="2.146" stroke-linecap="round" x1="5.332" y1="47.323" x2="5.332" y2="55.58"/>
	
		<line id="connector1leg" fill="none" stroke="#8C8C8C" stroke-width="2.346" stroke-linecap="round" x1="83.27" y1="47.323" x2="83.27" y2="55.58"/>
	<g>
		<rect x="4.259" y="33.331" fill="#8C8C8C" width="2.146" height="13.92"/>
		<path fill="#8C8C8C" d="M84.448,46.732c0-1.467-0.038-4.937-0.038-5.442v-6.838h-2.367v7.228c0,1.321,0.052,4.922,0.052,5.568
			c0,0.263,0.004,0,0.004,0h2.354"/>
		<path opacity="0.9904" fill="#CD414A" fill-opacity="0.9961" enable-background="new    " d="M88.305,2.442
			c-0.009,7.082,0.047,41.813,0.047,41.813s-1.93,0.076-3.438,0.127c0,0,0,0-0.463,0.36h-2.41c0,0-0.314-0.288-0.502-0.288
			c-0.669,0-72.932-0.063-74.507-0.111c-0.134-0.004-0.657,0.399-0.657,0.399H4.259c0,0-0.315-0.448-0.54-0.446
			c-1.717,0.02-3.693-0.088-3.693-0.088s0.2-34.7,0.02-41.706C0.041,1.008,1.166,0.06,7.162,0.165c0,0,69.34,0,72.711,0
			C84.584,0.165,88.309-0.683,88.305,2.442z"/>
		<path opacity="0.5" fill="#FFFFFF" enable-background="new    " d="M87.26,2.413l0.555-0.917
			c-0.963-0.883-0.662-1.034-3.143-1.034l0.264,1.123C86.245,1.438,86.798,1.735,87.26,2.413z"/>
		<path opacity="0.5" fill="#FFFFFF" enable-background="new    " d="M1.75,3.073H0.56c0-2.37,2.386-2.63,4.772-2.387l0.001,1.081
			C3.774,1.767,2.165,1.514,1.75,3.073z"/>
		<path opacity="0.1632" fill="#550000" enable-background="new    " d="M5.835,44.454c-0.373,0.078,0.697-1.938,0.592-2.631
			c-0.108-0.691-0.483-0.535,0.326-0.729c0.813-0.195,73.935-0.144,74.534,0c0.597,0.146,0.642-0.065,0.539,0.729
			c-0.106,0.795,0.801,2.596,0.489,2.526C80.184,43.857,7.384,44.064,5.835,44.454z"/>
	</g>
</g>
<path opacity="0.1632" fill="#550000" enable-background="new    " d="M0.025,43.676c0,0,1.976,0.106,3.693,0.089
	c0.225-0.003,0.54,0.445,0.54,0.445h2.116c0,0,0.523-0.402,0.657-0.398c1.576,0.047,73.838,0.11,74.507,0.11
	c0.188,0,0.502,0.288,0.502,0.288h2.41c0.463-0.359,0.463-0.359,0.463-0.359c1.508-0.052,3.438-0.127,3.438-0.127v0.533
	c0,0-1.931,0.076-3.438,0.127c0,0,0,0-0.463,0.36h-2.41c0,0-0.313-0.288-0.502-0.288c-0.669,0-72.932-0.063-74.507-0.111
	c-0.134-0.004-0.657,0.399-0.657,0.399H4.259c0,0-0.315-0.448-0.54-0.446c-1.717,0.02-3.693-0.088-3.693-0.088L0.025,43.676
	L0.025,43.676z"/>
</svg>
