<?xml version="1.0" encoding="utf-8"?>
<!-- Generator: Adobe Illustrator 16.0.0, SVG Export Plug-In . SVG Version: 6.00 Build 0)  -->
<!DOCTYPE svg PUBLIC "-//W3C//DTD SVG 1.1//EN" "http://www.w3.org/Graphics/SVG/1.1/DTD/svg11.dtd">
<svg version="1.1" id="Ebene_1" xmlns:svg="http://www.w3.org/2000/svg"
	 xmlns="http://www.w3.org/2000/svg" xmlns:xlink="http://www.w3.org/1999/xlink" x="0px" y="0px" width="24.665px"
	 height="28.82px" viewBox="0 0 24.665 28.82" enable-background="new 0 0 24.665 28.82" xml:space="preserve">
<g id="breadboard">
	<rect id="connector0pin" x="4.292" y="27.82" fill="none" width="2.083" height="1"/>
	<rect id="connector1pin" x="18.446" y="27.82" fill="none" width="2.275" height="1"/>
	
		<line id="connector0leg" fill="none" stroke="#8C8C8C" stroke-width="2.146" stroke-linecap="round" x1="5.332" y1="28.82" x2="5.332" y2="37.077"/>
	
		<line id="connector1leg" fill="none" stroke="#8C8C8C" stroke-width="2.346" stroke-linecap="round" x1="19.583" y1="28.82" x2="19.583" y2="37.077"/>
	<g>
		<rect x="4.259" y="14.828" fill="#8C8C8C" width="2.146" height="13.92"/>
		<path fill="#8C8C8C" d="M20.761,28.229c0-1.467-0.039-4.936-0.039-5.442v-6.838h-2.367v7.227c0,1.322,0.052,4.922,0.052,5.569
			c0,0.263,0.004,0,0.004,0h2.354"/>
		<path opacity="0.9904" fill="#CD414A" fill-opacity="0.9961" enable-background="new    " d="M24.618,2.472
			c-0.009,7.082,0.047,23.281,0.047,23.281s-1.93,0.076-3.438,0.127c0,0,0,0-0.463,0.36h-2.41c0,0-0.314-0.288-0.502-0.288
			c-0.669,0-9.244-0.064-10.82-0.111c-0.134-0.004-0.657,0.399-0.657,0.399H4.259c0,0-0.315-0.448-0.54-0.446
			c-1.717,0.019-3.693-0.088-3.693-0.088S0.226,9.539,0.046,2.533c-0.079-3.061,11.429-2.338,16.14-2.338
			C20.897,0.195,24.622-0.653,24.618,2.472z"/>
		<path opacity="0.5" fill="#FFFFFF" enable-background="new    " d="M23.573,2.443l0.555-0.917
			c-0.963-0.883-0.662-1.034-3.143-1.034l0.264,1.123C22.557,1.468,23.111,1.765,23.573,2.443z"/>
		<path opacity="0.5" fill="#FFFFFF" enable-background="new    " d="M1.75,3.103H0.56c0-2.37,2.386-2.63,4.772-2.386l0.001,1.081
			C3.774,1.798,2.165,1.545,1.75,3.103z"/>
		<path opacity="0.1632" fill="#550000" enable-background="new    " d="M5.835,25.951c-0.373,0.078,0.697-1.938,0.592-2.631
			c-0.108-0.691-0.483-0.535,0.326-0.729c0.813-0.196,10.248-0.144,10.846,0c0.597,0.145,0.642-0.066,0.539,0.729
			c-0.106,0.795,0.801,2.596,0.489,2.526C16.497,25.354,7.384,25.561,5.835,25.951z"/>
	</g>
</g>
<path opacity="0.1632" fill="#550000" enable-background="new    " d="M0.025,25.173c0,0,1.976,0.106,3.693,0.088
	c0.225-0.002,0.54,0.446,0.54,0.446h2.116c0,0,0.523-0.403,0.657-0.399c1.576,0.047,10.151,0.111,10.82,0.111
	c0.188,0,0.502,0.288,0.502,0.288h2.41c0.463-0.36,0.463-0.36,0.463-0.36c1.508-0.051,3.438-0.127,3.438-0.127v0.534
	c0,0-1.93,0.076-3.438,0.127c0,0,0,0-0.463,0.36h-2.41c0,0-0.314-0.288-0.502-0.288c-0.669,0-9.244-0.064-10.82-0.111
	c-0.134-0.004-0.657,0.399-0.657,0.399H4.259c0,0-0.315-0.448-0.54-0.446c-1.717,0.019-3.693-0.088-3.693-0.088V25.173z"/>
</svg>
