<?xml version="1.0" encoding="utf-8"?>
<!-- Generator: Adobe Illustrator 16.0.0, SVG Export Plug-In . SVG Version: 6.00 Build 0)  -->
<svg version="1.2" baseProfile="tiny" id="Layer_1" xmlns="http://www.w3.org/2000/svg" xmlns:xlink="http://www.w3.org/1999/xlink"
	 x="0px" y="0px" width="141.66px" height="144.447px" viewBox="0 0 141.66 144.447" xml:space="preserve">
<desc>
	<referenceFile>generic_ic_dip_40_300mil_bread.svg</referenceFile>
</desc>
<g id="breadboard">
	<g>
		<rect id="connector0pin" x="37.251" y="131.378" fill="none" width="2.16" height="3.125"/>
		<rect id="connector0terminal" x="37.251" y="132.344" fill="none" width="2.16" height="2.156"/>
	</g>
	<g>
		<rect id="connector39pin" x="137.639" y="89.081" fill="none" width="3.125" height="2.16"/>
		<rect id="connector39terminal" x="137.639" y="89.081" fill="none" width="2.159" height="2.16"/>
	</g>
	<g>
		<rect id="connector19pin" x="102.057" y="138.599" fill="none" width="2.16" height="3.125"/>
		<rect id="connector19terminal" x="102.057" y="139.564" fill="none" width="2.16" height="2.16"/>
	</g>
	<g>
		<rect id="connector20pin" x="1.063" y="24.196" fill="none" width="3.125" height="2.16"/>
		<rect id="connector20terminal" x="1.063" y="24.196" fill="none" width="2.16" height="2.16"/>
	</g>
	<g>
		<rect id="connector38pin" x="137.639" y="81.88" fill="none" width="3.125" height="2.16"/>
		<rect id="connector38terminal" x="137.639" y="81.88" fill="none" width="2.159" height="2.16"/>
	</g>
	<g>
		<rect id="connector37pin" x="137.639" y="74.681" fill="none" width="3.125" height="2.156"/>
		<rect id="connector37terminal" x="137.639" y="74.681" fill="none" width="2.159" height="2.156"/>
	</g>
	<g>
		<rect id="connector36pin" x="137.639" y="67.48" fill="none" width="3.125" height="2.16"/>
		<rect id="connector36terminal" x="137.639" y="67.48" fill="none" width="2.159" height="2.16"/>
	</g>
	<g>
		<rect id="connector35pin" x="137.639" y="60.28" fill="none" width="3.125" height="2.16"/>
		<rect id="connector35terminal" x="137.639" y="60.28" fill="none" width="2.159" height="2.16"/>
	</g>
	<g>
		<rect id="connector34pin" x="137.639" y="53.081" fill="none" width="3.125" height="2.16"/>
		<rect id="connector34terminal" x="137.639" y="53.081" fill="none" width="2.159" height="2.16"/>
	</g>
	<g>
		<rect id="connector33pin" x="137.639" y="45.881" fill="none" width="3.125" height="2.159"/>
		<rect id="connector33terminal" x="137.639" y="45.881" fill="none" width="2.159" height="2.159"/>
	</g>
	<g>
		<rect id="connector32pin" x="137.639" y="38.68" fill="none" width="3.125" height="2.156"/>
		<rect id="connector32terminal" x="137.639" y="38.68" fill="none" width="2.159" height="2.156"/>
	</g>
	<g>
		<rect id="connector31pin" x="137.639" y="31.48" fill="none" width="3.125" height="2.16"/>
		<rect id="connector31terminal" x="137.639" y="31.48" fill="none" width="2.159" height="2.16"/>
	</g>
	<g>
		<rect id="connector30pin" x="137.639" y="24.28" fill="none" width="3.125" height="2.16"/>
		<rect id="connector30terminal" x="137.639" y="24.28" fill="none" width="2.159" height="2.16"/>
	</g>
	<g>
		<rect id="connector29pin" x="1.063" y="88.997" fill="none" width="3.125" height="2.16"/>
		<rect id="connector29terminal" x="1.063" y="88.997" fill="none" width="2.16" height="2.16"/>
	</g>
	<g>
		<rect id="connector28pin" x="1.063" y="81.796" fill="none" width="3.125" height="2.16"/>
		<rect id="connector28terminal" x="1.063" y="81.796" fill="none" width="2.16" height="2.16"/>
	</g>
	<g>
		<rect id="connector27pin" x="1.063" y="74.597" fill="none" width="3.125" height="2.156"/>
		<rect id="connector27terminal" x="1.063" y="74.597" fill="none" width="2.16" height="2.156"/>
	</g>
	<g>
		<rect id="connector26pin" x="1.063" y="67.396" fill="none" width="3.125" height="2.16"/>
		<rect id="connector26terminal" x="1.063" y="67.396" fill="none" width="2.16" height="2.16"/>
	</g>
	<g>
		<rect id="connector25pin" x="1.063" y="60.196" fill="none" width="3.125" height="2.16"/>
		<rect id="connector25terminal" x="1.063" y="60.196" fill="none" width="2.16" height="2.16"/>
	</g>
	<g>
		<rect id="connector24pin" x="1.063" y="52.997" fill="none" width="3.125" height="2.16"/>
		<rect id="connector24terminal" x="1.063" y="52.997" fill="none" width="2.16" height="2.16"/>
	</g>
	<g>
		<rect id="connector23pin" x="1.063" y="45.797" fill="none" width="3.125" height="2.159"/>
		<rect id="connector23terminal" x="1.063" y="45.797" fill="none" width="2.16" height="2.159"/>
	</g>
	<g>
		<rect id="connector22pin" x="1.063" y="38.596" fill="none" width="3.125" height="2.156"/>
		<rect id="connector22terminal" x="1.063" y="38.596" fill="none" width="2.16" height="2.156"/>
	</g>
	<g>
		<rect id="connector21pin" x="1.063" y="31.396" fill="none" width="3.125" height="2.16"/>
		<rect id="connector21terminal" x="1.063" y="31.396" fill="none" width="2.16" height="2.16"/>
	</g>
	<g>
		<rect id="connector1pin" x="44.452" y="131.378" fill="none" width="2.16" height="3.125"/>
		<rect id="connector1terminal" x="44.452" y="132.344" fill="none" width="2.16" height="2.156"/>
	</g>
	<g>
		<rect id="connector2pin" x="51.652" y="131.378" fill="none" width="2.16" height="3.125"/>
		<rect id="connector2terminal" x="51.652" y="132.344" fill="none" width="2.16" height="2.156"/>
	</g>
	<g>
		<rect id="connector3pin" x="58.852" y="131.378" fill="none" width="2.16" height="3.125"/>
		<rect id="connector3terminal" x="58.852" y="132.344" fill="none" width="2.16" height="2.156"/>
	</g>
	<g>
		<rect id="connector4pin" x="66.052" y="131.378" fill="none" width="2.16" height="3.125"/>
		<rect id="connector4terminal" x="66.052" y="132.344" fill="none" width="2.16" height="2.156"/>
	</g>
	<g>
		<rect id="connector5pin" x="73.252" y="131.378" fill="none" width="2.16" height="3.125"/>
		<rect id="connector5terminal" x="73.252" y="132.344" fill="none" width="2.16" height="2.156"/>
	</g>
	<g>
		<rect id="connector6pin" x="80.451" y="131.378" fill="none" width="2.16" height="3.125"/>
		<rect id="connector6terminal" x="80.451" y="132.344" fill="none" width="2.16" height="2.156"/>
	</g>
	<g>
		<rect id="connector7pin" x="87.652" y="131.378" fill="none" width="2.16" height="3.125"/>
		<rect id="connector7terminal" x="87.652" y="132.344" fill="none" width="2.16" height="2.156"/>
	</g>
	<g>
		<rect id="connector8pin" x="94.852" y="131.378" fill="none" width="2.16" height="3.125"/>
		<rect id="connector8terminal" x="94.852" y="132.344" fill="none" width="2.16" height="2.156"/>
	</g>
	<g>
		<rect id="connector9pin" x="102.053" y="131.378" fill="none" width="2.16" height="3.125"/>
		<rect id="connector9terminal" x="102.053" y="132.344" fill="none" width="2.16" height="2.156"/>
	</g>
	<g>
		<rect id="connector10pin" x="37.256" y="138.599" fill="none" width="2.16" height="3.125"/>
		<rect id="connector10terminal" x="37.256" y="139.564" fill="none" width="2.16" height="2.16"/>
	</g>
	<g>
		<rect id="connector11pin" x="44.455" y="138.599" fill="none" width="2.16" height="3.125"/>
		<rect id="connector11terminal" x="44.455" y="139.564" fill="none" width="2.16" height="2.16"/>
	</g>
	<g>
		<rect id="connector12pin" x="51.656" y="138.599" fill="none" width="2.16" height="3.125"/>
		<rect id="connector12terminal" x="51.656" y="139.564" fill="none" width="2.16" height="2.16"/>
	</g>
	<g>
		<rect id="connector13pin" x="58.855" y="138.599" fill="none" width="2.16" height="3.125"/>
		<rect id="connector13terminal" x="58.855" y="139.564" fill="none" width="2.16" height="2.16"/>
	</g>
	<g>
		<rect id="connector14pin" x="66.057" y="138.599" fill="none" width="2.16" height="3.125"/>
		<rect id="connector14terminal" x="66.057" y="139.564" fill="none" width="2.16" height="2.16"/>
	</g>
	<g>
		<rect id="connector15pin" x="73.256" y="138.599" fill="none" width="2.16" height="3.125"/>
		<rect id="connector15terminal" x="73.256" y="139.564" fill="none" width="2.16" height="2.16"/>
	</g>
	<g>
		<rect id="connector16pin" x="80.455" y="138.599" fill="none" width="2.16" height="3.125"/>
		<rect id="connector16terminal" x="80.455" y="139.564" fill="none" width="2.16" height="2.16"/>
	</g>
	<g>
		<rect id="connector17pin" x="87.656" y="138.599" fill="none" width="2.16" height="3.125"/>
		<rect id="connector17terminal" x="87.656" y="139.564" fill="none" width="2.16" height="2.16"/>
	</g>
	<g>
		<rect id="connector18pin" x="94.855" y="138.599" fill="none" width="2.16" height="3.125"/>
		<rect id="connector18terminal" x="94.855" y="139.564" fill="none" width="2.16" height="2.16"/>
	</g>
	<g>
		<path fill="#868686" d="M125.76,124.043h-5.64c-1.574,0-2.851,1.275-2.851,2.854s1.272,2.85,2.851,2.85h5.64
			c1.574,0,2.85-1.271,2.85-2.85S127.334,124.043,125.76,124.043z M122.939,128.332c-0.795,0-1.439-0.645-1.439-1.438
			s0.645-1.439,1.439-1.439c0.793,0,1.438,0.646,1.438,1.439C124.38,127.688,123.734,128.332,122.939,128.332z"/>
		<path fill="#868686" d="M125.76,106.762h-5.64c-1.574,0-2.851,1.271-2.851,2.85s1.272,2.85,2.851,2.85h5.64
			c1.574,0,2.85-1.271,2.85-2.85S127.334,106.762,125.76,106.762z M122.939,111.053c-0.795,0-1.439-0.646-1.439-1.441
			c0-0.793,0.645-1.439,1.439-1.439c0.793,0,1.438,0.646,1.438,1.439C124.379,110.407,123.734,111.053,122.939,111.053z"/>
		<path fill="#868686" d="M136.5,112.703c-1.574,0-2.85,1.275-2.85,2.854v5.695c0,1.574,1.271,2.854,2.85,2.854
			s2.85-1.275,2.85-2.854v-5.695C139.35,113.979,138.074,112.703,136.5,112.703z M136.5,119.871c-0.795,0-1.439-0.645-1.439-1.438
			c0-0.797,0.646-1.441,1.439-1.441c0.796,0,1.439,0.646,1.439,1.441C137.939,119.227,137.296,119.871,136.5,119.871z"/>
		<circle fill="none" stroke="#868686" stroke-miterlimit="10" cx="2.46" cy="90.756" r="1.319"/>
		<circle fill="none" stroke="#868686" stroke-miterlimit="10" cx="2.46" cy="83.556" r="1.319"/>
		<circle fill="none" stroke="#868686" stroke-miterlimit="10" cx="2.46" cy="76.355" r="1.319"/>
		<circle fill="none" stroke="#868686" stroke-miterlimit="10" cx="2.46" cy="69.155" r="1.32"/>
		<circle fill="none" stroke="#868686" stroke-miterlimit="10" cx="2.46" cy="61.955" r="1.32"/>
		<circle fill="none" stroke="#868686" stroke-miterlimit="10" cx="2.46" cy="54.756" r="1.319"/>
		<circle fill="none" stroke="#868686" stroke-miterlimit="10" cx="2.46" cy="47.555" r="1.32"/>
		<circle fill="none" stroke="#868686" stroke-miterlimit="10" cx="2.46" cy="40.356" r="1.32"/>
		<circle fill="none" stroke="#868686" stroke-miterlimit="10" cx="2.46" cy="33.155" r="1.32"/>
		<circle fill="none" stroke="#868686" stroke-miterlimit="10" cx="2.46" cy="25.955" r="1.32"/>
		<circle fill="none" stroke="#868686" stroke-miterlimit="10" cx="139.2" cy="90.756" r="1.319"/>
		<circle fill="none" stroke="#868686" stroke-miterlimit="10" cx="139.2" cy="83.556" r="1.319"/>
		<circle fill="none" stroke="#868686" stroke-miterlimit="10" cx="139.2" cy="76.355" r="1.319"/>
		<circle fill="none" stroke="#868686" stroke-miterlimit="10" cx="139.2" cy="69.155" r="1.32"/>
		<circle fill="none" stroke="#868686" stroke-miterlimit="10" cx="139.2" cy="61.955" r="1.32"/>
		<circle fill="none" stroke="#868686" stroke-miterlimit="10" cx="139.2" cy="54.756" r="1.319"/>
		<circle fill="none" stroke="#868686" stroke-miterlimit="10" cx="139.2" cy="47.555" r="1.32"/>
		<circle fill="none" stroke="#868686" stroke-miterlimit="10" cx="139.2" cy="40.356" r="1.32"/>
		<circle fill="none" stroke="#868686" stroke-miterlimit="10" cx="139.2" cy="33.155" r="1.32"/>
		<circle fill="none" stroke="#868686" stroke-miterlimit="10" cx="139.2" cy="25.955" r="1.32"/>
		<rect y="143.052" fill="#006000" width="141.66" height="1.396"/>
		<path fill="#007900" d="M0,2.081v140.975h141.66V2.081H0z M2.46,91.48c-0.729,0-1.319-0.59-1.319-1.32
			c0-0.729,0.59-1.318,1.319-1.318s1.32,0.596,1.32,1.318C3.78,90.89,3.189,91.48,2.46,91.48z M2.46,84.281
			c-0.729,0-1.319-0.592-1.319-1.32c0-0.728,0.59-1.314,1.319-1.314s1.32,0.59,1.32,1.314C3.78,83.689,3.189,84.281,2.46,84.281z
			 M2.46,77.079c-0.729,0-1.319-0.59-1.319-1.314c0-0.729,0.59-1.32,1.319-1.32s1.32,0.592,1.32,1.32
			C3.78,76.489,3.189,77.079,2.46,77.079z M2.46,69.88c-0.729,0-1.319-0.592-1.319-1.315c0-0.729,0.59-1.32,1.319-1.32
			s1.32,0.591,1.32,1.32C3.78,69.289,3.189,69.88,2.46,69.88z M2.46,62.68c-0.729,0-1.319-0.596-1.319-1.32
			c0-0.729,0.59-1.32,1.319-1.32s1.32,0.593,1.32,1.32C3.78,62.089,3.189,62.68,2.46,62.68z M2.46,55.48
			c-0.729,0-1.319-0.591-1.319-1.32c0-0.729,0.59-1.318,1.319-1.318s1.32,0.594,1.32,1.318C3.78,54.889,3.189,55.48,2.46,55.48z
			 M2.46,48.28c-0.729,0-1.319-0.591-1.319-1.32c0-0.729,0.59-1.315,1.319-1.315s1.32,0.592,1.32,1.315
			C3.78,47.689,3.189,48.28,2.46,48.28z M2.46,41.081c-0.729,0-1.319-0.592-1.319-1.315c0-0.729,0.59-1.32,1.319-1.32
			s1.32,0.591,1.32,1.32C3.78,40.489,3.189,41.081,2.46,41.081z M2.46,33.88c-0.729,0-1.319-0.591-1.319-1.315
			c0-0.729,0.59-1.32,1.319-1.32s1.32,0.591,1.32,1.32C3.78,33.289,3.189,33.88,2.46,33.88z M2.46,26.68
			c-0.729,0-1.319-0.596-1.319-1.32c0-0.729,0.59-1.32,1.319-1.32s1.32,0.593,1.32,1.32C3.78,26.089,3.189,26.68,2.46,26.68z
			 M22.68,99.521c-2.187,0-3.959-1.773-3.959-3.961c0-2.188,1.772-3.959,3.959-3.959c2.188,0,3.961,1.771,3.961,3.959
			C26.641,97.748,24.867,99.521,22.68,99.521z M38.46,123.281c-0.795,0-1.44-0.645-1.44-1.439c0-0.794,0.646-1.438,1.44-1.438
			c0.796,0,1.44,0.645,1.44,1.438C39.9,122.636,39.256,123.281,38.46,123.281z M38.46,116.079c-0.795,0-1.44-0.645-1.44-1.438
			c0-0.797,0.646-1.441,1.44-1.441c0.796,0,1.44,0.646,1.44,1.441C39.9,115.435,39.256,116.079,38.46,116.079z M45.66,123.281
			c-0.795,0-1.439-0.645-1.439-1.439c0-0.794,0.645-1.438,1.439-1.438s1.439,0.645,1.439,1.438
			C47.1,122.636,46.455,123.281,45.66,123.281z M45.66,116.079c-0.795,0-1.439-0.645-1.439-1.438c0-0.797,0.645-1.441,1.439-1.441
			s1.439,0.646,1.439,1.441C47.1,115.435,46.455,116.079,45.66,116.079z M52.86,123.281c-0.796,0-1.44-0.645-1.44-1.439
			c0-0.794,0.645-1.438,1.44-1.438s1.439,0.645,1.439,1.438C54.3,122.636,53.655,123.281,52.86,123.281z M52.86,116.079
			c-0.796,0-1.44-0.645-1.44-1.438c0-0.797,0.645-1.441,1.44-1.441s1.439,0.646,1.439,1.441
			C54.3,115.435,53.655,116.079,52.86,116.079z M60.061,123.281c-0.796,0-1.44-0.645-1.44-1.439c0-0.794,0.645-1.438,1.44-1.438
			s1.439,0.645,1.439,1.438C61.5,122.636,60.855,123.281,60.061,123.281z M60.061,116.079c-0.796,0-1.44-0.645-1.44-1.438
			c0-0.797,0.645-1.441,1.44-1.441s1.439,0.646,1.439,1.441C61.5,115.435,60.855,116.079,60.061,116.079z M67.26,123.281
			c-0.795,0-1.439-0.645-1.439-1.439c0-0.794,0.645-1.438,1.439-1.438c0.796,0,1.44,0.645,1.44,1.438
			C68.7,122.636,68.056,123.281,67.26,123.281z M67.26,116.079c-0.795,0-1.439-0.645-1.439-1.438c0-0.797,0.645-1.441,1.439-1.441
			c0.796,0,1.44,0.646,1.44,1.441C68.7,115.435,68.056,116.079,67.26,116.079z M66.84,30.46c0-2.187,1.773-3.959,3.96-3.959
			c2.188,0,3.96,1.772,3.96,3.959c0,2.188-1.771,3.962-3.96,3.962C68.613,34.421,66.84,32.647,66.84,30.46z M74.4,123.281
			c-0.797,0-1.44-0.645-1.44-1.439c0-0.794,0.646-1.438,1.44-1.438c0.793,0,1.438,0.645,1.438,1.438
			C75.84,122.636,75.195,123.281,74.4,123.281z M74.4,116.079c-0.797,0-1.44-0.645-1.44-1.438c0-0.797,0.646-1.441,1.44-1.441
			c0.793,0,1.438,0.646,1.438,1.441C75.84,115.435,75.195,116.079,74.4,116.079z M81.602,123.281c-0.797,0-1.438-0.645-1.438-1.439
			c0-0.794,0.646-1.438,1.438-1.438c0.795,0,1.438,0.645,1.438,1.438C83.04,122.636,82.396,123.281,81.602,123.281z M81.602,116.079
			c-0.797,0-1.438-0.645-1.438-1.438c0-0.797,0.646-1.441,1.438-1.441c0.795,0,1.438,0.646,1.438,1.441
			C83.04,115.435,82.396,116.079,81.602,116.079z M88.8,123.281c-0.795,0-1.438-0.645-1.438-1.439c0-0.794,0.646-1.438,1.438-1.438
			c0.796,0,1.44,0.645,1.44,1.438C90.24,122.636,89.596,123.281,88.8,123.281z M88.8,116.079c-0.795,0-1.438-0.645-1.438-1.438
			c0-0.797,0.646-1.441,1.438-1.441c0.796,0,1.44,0.646,1.44,1.441C90.24,115.435,89.596,116.079,88.8,116.079z M96,123.281
			c-0.795,0-1.439-0.645-1.439-1.439c0-0.794,0.646-1.438,1.439-1.438c0.796,0,1.439,0.645,1.439,1.438
			C97.439,122.636,96.796,123.281,96,123.281z M96,116.079c-0.795,0-1.439-0.645-1.439-1.438c0-0.797,0.646-1.441,1.439-1.441
			c0.796,0,1.439,0.646,1.439,1.441C97.439,115.435,96.796,116.079,96,116.079z M103.2,123.281c-0.796,0-1.44-0.645-1.44-1.439
			c0-0.794,0.646-1.438,1.44-1.438s1.44,0.645,1.44,1.438C104.641,122.636,103.995,123.281,103.2,123.281z M103.2,116.079
			c-0.796,0-1.44-0.645-1.44-1.438c0-0.797,0.646-1.441,1.44-1.441s1.44,0.646,1.44,1.441
			C104.641,115.435,103.995,116.079,103.2,116.079z M115.021,95.56c0-2.188,1.771-3.959,3.959-3.959
			c2.188,0,3.961,1.771,3.961,3.959c0,2.188-1.773,3.961-3.961,3.961C116.792,99.521,115.021,97.747,115.021,95.56z M122.939,127.54
			c-0.795,0-1.439-0.645-1.439-1.438s0.645-1.439,1.439-1.439c0.793,0,1.438,0.646,1.438,1.439
			C124.38,126.896,123.734,127.54,122.939,127.54z M122.939,110.261c-0.795,0-1.439-0.646-1.439-1.441
			c0-0.793,0.645-1.439,1.439-1.439c0.793,0,1.438,0.646,1.438,1.439C124.379,109.615,123.734,110.261,122.939,110.261z
			 M136.5,119.079c-0.795,0-1.439-0.645-1.439-1.438c0-0.797,0.646-1.441,1.439-1.441c0.796,0,1.439,0.646,1.439,1.441
			C137.939,118.435,137.296,119.079,136.5,119.079z M139.2,91.48c-0.729,0-1.32-0.59-1.32-1.32c0-0.729,0.591-1.318,1.32-1.318
			s1.319,0.596,1.319,1.318C140.521,90.89,139.93,91.48,139.2,91.48z M139.2,84.281c-0.729,0-1.32-0.592-1.32-1.32
			c0-0.728,0.591-1.314,1.32-1.314s1.319,0.59,1.319,1.314C140.521,83.689,139.93,84.281,139.2,84.281z M139.2,77.079
			c-0.729,0-1.32-0.59-1.32-1.314c0-0.729,0.591-1.32,1.32-1.32s1.319,0.592,1.319,1.32C140.521,76.49,139.93,77.079,139.2,77.079z
			 M139.2,69.88c-0.729,0-1.32-0.592-1.32-1.315c0-0.729,0.591-1.32,1.32-1.32s1.319,0.591,1.319,1.32
			C140.521,69.289,139.93,69.88,139.2,69.88z M139.2,62.68c-0.729,0-1.32-0.596-1.32-1.32c0-0.729,0.591-1.32,1.32-1.32
			s1.319,0.593,1.319,1.32C140.52,62.089,139.93,62.68,139.2,62.68z M139.2,55.48c-0.729,0-1.32-0.591-1.32-1.32
			c0-0.729,0.591-1.318,1.32-1.318s1.319,0.594,1.319,1.318C140.52,54.889,139.93,55.48,139.2,55.48z M139.2,48.28
			c-0.729,0-1.32-0.591-1.32-1.32c0-0.729,0.591-1.315,1.32-1.315s1.319,0.592,1.319,1.315C140.521,47.689,139.93,48.28,139.2,48.28
			z M139.2,41.081c-0.729,0-1.32-0.592-1.32-1.315c0-0.729,0.591-1.32,1.32-1.32s1.319,0.591,1.319,1.32
			C140.521,40.489,139.93,41.081,139.2,41.081z M139.2,33.88c-0.729,0-1.32-0.591-1.32-1.315c0-0.729,0.591-1.32,1.32-1.32
			s1.319,0.591,1.319,1.32C140.52,33.289,139.93,33.88,139.2,33.88z M139.2,26.68c-0.729,0-1.32-0.596-1.32-1.32
			c0-0.729,0.591-1.32,1.32-1.32s1.319,0.593,1.319,1.32C140.52,26.089,139.93,26.68,139.2,26.68z"/>
		<path fill="#B3B3B3" d="M125.76,123.251h-5.64c-1.574,0-2.851,1.275-2.851,2.854s1.272,2.85,2.851,2.85h5.64
			c1.574,0,2.85-1.271,2.85-2.85S127.334,123.251,125.76,123.251z M122.939,127.54c-0.795,0-1.439-0.645-1.439-1.438
			s0.645-1.439,1.439-1.439c0.793,0,1.438,0.646,1.438,1.439C124.38,126.896,123.734,127.54,122.939,127.54z"/>
		<path fill="#B3B3B3" d="M125.76,105.97h-5.64c-1.574,0-2.851,1.271-2.851,2.85s1.272,2.85,2.851,2.85h5.64
			c1.574,0,2.85-1.271,2.85-2.85S127.334,105.97,125.76,105.97z M122.939,110.261c-0.795,0-1.439-0.646-1.439-1.441
			c0-0.793,0.645-1.439,1.439-1.439c0.793,0,1.438,0.646,1.438,1.439C124.379,109.615,123.734,110.261,122.939,110.261z"/>
		<path fill="#B3B3B3" d="M136.5,111.911c-1.574,0-2.85,1.275-2.85,2.854v5.695c0,1.574,1.271,2.854,2.85,2.854
			s2.85-1.275,2.85-2.854v-5.695C139.35,113.187,138.074,111.911,136.5,111.911z M136.5,119.079c-0.795,0-1.439-0.645-1.439-1.438
			c0-0.797,0.646-1.441,1.439-1.441c0.796,0,1.439,0.646,1.439,1.441C137.939,118.435,137.296,119.079,136.5,119.079z"/>
		<rect x="74.662" y="74.219" fill="#1E1D22" width="19.843" height="19.843"/>
		<rect x="74.662" y="94.062" fill="#0A0A0A" width="19.843" height="0.731"/>
		<rect x="4.196" y="107.39" fill="#1E1D22" width="10.755" height="4.854"/>
		<rect x="4.196" y="112.245" fill="#0A0A0A" width="10.755" height="0.731"/>
		<g id="con2_usb_micro_b_at" transform="matrix(1, 0, 0, 1, 18.6038, 120.082)">
			<g>
				<rect x="56.818" y="-102.247" fill="#666666" width="0.99" height="1.235"/>
				<rect x="57.718" y="-102.108" fill="#999999" width="0.09" height="1.096"/>
			</g>
			<g>
				<rect x="54.972" y="-102.247" fill="#666666" width="0.99" height="1.235"/>
				<rect x="55.875" y="-102.108" fill="#999999" width="0.088" height="1.096"/>
			</g>
			<g>
				<rect x="53.133" y="-102.247" fill="#666666" width="0.99" height="1.235"/>
				<rect x="54.033" y="-102.108" fill="#999999" width="0.09" height="1.096"/>
			</g>
			<g>
				<rect x="51.288" y="-102.247" fill="#666666" width="0.99" height="1.235"/>
				<rect x="52.191" y="-102.108" fill="#999999" width="0.088" height="1.096"/>
			</g>
			<g>
				<rect x="49.446" y="-102.247" fill="#666666" width="0.988" height="1.235"/>
				<rect x="50.347" y="-102.108" fill="#999999" width="0.088" height="1.096"/>
			</g>
			<g>
				<polygon fill="#B3B3B3" points="44.206,-118.973 63.05,-118.973 63.05,-101.964 44.204,-101.964 				"/>
				<rect x="43.008" y="-111.618" fill="#666666" width="0.994" height="3.041"/>
				<rect x="63.283" y="-111.618" fill="#666666" width="1.002" height="3.041"/>
				<rect x="44.204" y="-102.094" fill="#CCCCCC" width="18.847" height="0.13"/>
				<rect x="48.497" y="-117.579" fill="#333333" width="10.292" height="15.614"/>
				<polygon fill="#B3B3B3" points="63.283,-118.603 63.283,-119.08 63.922,-120.163 64.285,-120.163 				"/>
				<polygon fill="#CCCCCC" points="63.283,-119.08 63.281,-119.08 63.283,-119.619 63.922,-120.163 				"/>
				<polygon fill="#B3B3B3" points="43.004,-120.163 43.366,-120.163 44.006,-119.08 44.006,-118.603 				"/>
				<polygon fill="#CCCCCC" points="43.366,-120.163 44.006,-119.619 44.008,-119.08 44.006,-119.08 				"/>
				<g>
					<g>
						<rect x="49.234" y="-118.601" fill="#F2F2F2" width="0.478" height="0.646"/>
					</g>
					<g>
						<rect x="51.318" y="-118.601" fill="#F2F2F2" width="0.479" height="0.646"/>
					</g>
					<g>
						<rect x="53.406" y="-118.601" fill="#F2F2F2" width="0.477" height="0.646"/>
					</g>
					<g>
						<rect x="55.49" y="-118.601" fill="#F2F2F2" width="0.479" height="0.646"/>
					</g>
					<g>
						<rect x="57.576" y="-118.601" fill="#F2F2F2" width="0.477" height="0.646"/>
					</g>
					<g>
						<rect x="57.957" y="-118.601" fill="#808080" width="0.096" height="0.646"/>
					</g>
					<g>
						<rect x="55.871" y="-118.601" fill="#808080" width="0.096" height="0.646"/>
					</g>
					<g>
						<rect x="53.783" y="-118.601" fill="#808080" width="0.1" height="0.646"/>
					</g>
					<g>
						<rect x="51.699" y="-118.601" fill="#808080" width="0.099" height="0.646"/>
					</g>
					<g>
						<rect x="49.612" y="-118.601" fill="#808080" width="0.097" height="0.646"/>
					</g>
				</g>
				<path fill="#4D4D4D" d="M58.566-118.787H58.05v0.396h-0.479v-0.396h-1.604v0.396H55.49v-0.396h-1.609v0.396h-0.477v-0.396
					h-1.607v0.396h-0.479v-0.396h-1.607v0.396h-0.478v-0.396H48.91h-0.27c-0.079,0-0.145,0.063-0.145,0.146v1.063
					c0,0.079,0.063,0.146,0.145,0.146h10.002c0.08,0,0.146-0.063,0.146-0.146v-1.063c0-0.078-0.064-0.146-0.146-0.146H58.566z"/>
				<path fill="#CCCCCC" d="M63.283-102.53l-0.229,0.563H60.52c0,0,2.304-0.11,2.386-0.281c0.082-0.17-0.109-0.28-0.109-0.28
					L63.283-102.53L63.283-102.53z"/>
				<path fill="#CCCCCC" d="M44.006-102.53l0.229,0.563h2.534c0,0-2.301-0.111-2.383-0.282c-0.082-0.17,0.108-0.278,0.108-0.278
					L44.006-102.53L44.006-102.53z"/>
				<path fill="#E6E6E6" d="M47.395-101.964v-1.634h1.604v1.634h0.461v-0.563h8.363v0.563h0.524v-1.635h1.604v1.635h3.326v-17.007
					H44.008v17.007H47.395z M58.349-115.821v-0.814h1.594v0.881c0.428,0.277,0.709,0.762,0.709,1.313
					c0,0.598-0.221,1.104-0.709,1.365l0,0v4.479h-1.592v-4.481c-0.486-0.265-0.824-0.771-0.824-1.366
					C57.527-115.046,57.863-115.557,58.349-115.821z M47.463-115.821v-0.814h1.592v0.881c0.426,0.277,0.707,0.762,0.707,1.313
					c0,0.598-0.217,1.104-0.707,1.365l0,0v4.479h-1.592v-4.481c-0.49-0.265-0.826-0.771-0.826-1.366
					C46.636-115.046,46.97-115.557,47.463-115.821z"/>
				<polygon fill="#F2F2F2" points="62.875,-118.973 63.283,-118.973 63.283,-102.53 61.75,-102.53 				"/>
				<polygon fill="#999999" points="44.006,-118.973 44.575,-107.993 45.142,-102.53 44.006,-102.53 				"/>
				<rect x="58.351" y="-108.729" fill="#CCCCCC" width="1.592" height="0.131"/>
				<rect x="47.461" y="-108.729" fill="#CCCCCC" width="1.592" height="0.131"/>
				<rect x="44.949" y="-118.77" fill="#B3B3B3" width="17.387" height="0.66"/>
				<rect x="44.949" y="-118.973" fill="#CCCCCC" width="17.387" height="0.313"/>
			</g>
		</g>
		<g>
			<rect x="34.731" y="136.54" fill="#404040" width="72.01" height="7.199"/>
			<rect x="34.731" y="129.341" fill="#404040" width="72.01" height="7.197"/>
			<g>
				<g>
					<rect x="94.548" y="131.55" width="2.781" height="2.781"/>
					<polygon fill="#2A2A29" points="93.521,130.525 94.546,131.55 97.329,131.55 98.354,130.525 					"/>
					<polygon fill="#474747" points="98.354,130.525 97.329,131.552 97.329,134.333 98.354,135.357 					"/>
					<polygon fill="#595959" points="98.354,135.357 97.329,134.333 94.546,134.333 93.521,135.357 					"/>
					<polygon fill="#373737" points="93.521,135.357 94.546,134.331 94.546,131.55 93.521,130.525 					"/>
					<rect x="101.749" y="131.55" width="2.778" height="2.781"/>
					<polygon fill="#2A2A29" points="100.723,130.525 101.747,131.55 104.529,131.55 105.557,130.525 					"/>
					<polygon fill="#474747" points="105.557,130.525 104.529,131.552 104.529,134.333 105.557,135.357 					"/>
					<polygon fill="#595959" points="105.555,135.357 104.527,134.333 101.747,134.333 100.723,135.357 					"/>
					<polygon fill="#373737" points="100.721,135.357 101.747,134.331 101.747,131.55 100.721,130.525 					"/>
					<rect x="94.548" y="138.749" width="2.781" height="2.783"/>
					<polygon fill="#2A2A29" points="93.521,137.726 94.546,138.749 97.329,138.749 98.354,137.726 					"/>
					<polygon fill="#474747" points="98.354,137.726 97.329,138.751 97.329,141.534 98.354,142.556 					"/>
					<polygon fill="#595959" points="98.354,142.556 97.329,141.534 94.546,141.534 93.521,142.556 					"/>
					<polygon fill="#373737" points="93.521,142.556 94.546,141.532 94.546,138.749 93.521,137.726 					"/>
					<rect x="101.749" y="138.749" width="2.778" height="2.783"/>
					<polygon fill="#2A2A29" points="100.723,137.726 101.747,138.749 104.529,138.749 105.557,137.726 					"/>
					<polygon fill="#474747" points="105.557,137.726 104.529,138.751 104.529,141.534 105.557,142.556 					"/>
					<polygon fill="#595959" points="105.555,142.556 104.527,141.534 101.747,141.534 100.723,142.556 					"/>
					<polygon fill="#373737" points="100.721,142.556 101.747,141.532 101.747,138.749 100.721,137.726 					"/>
				</g>
				<rect x="36.942" y="131.55" width="2.781" height="2.781"/>
				<polygon fill="#2A2A29" points="35.917,130.525 36.94,131.55 39.724,131.55 40.749,130.525 				"/>
				<polygon fill="#474747" points="40.749,130.525 39.724,131.552 39.724,134.333 40.749,135.357 				"/>
				<polygon fill="#595959" points="40.747,135.357 39.722,134.333 36.94,134.333 35.917,135.357 				"/>
				<polygon fill="#373737" points="35.915,135.357 36.94,134.331 36.94,131.55 35.915,130.525 				"/>
				<rect x="44.142" y="131.55" width="2.781" height="2.781"/>
				<polygon fill="#2A2A29" points="43.116,130.525 44.14,131.55 46.923,131.55 47.948,130.525 				"/>
				<polygon fill="#474747" points="47.948,130.525 46.923,131.552 46.923,134.333 47.948,135.357 				"/>
				<polygon fill="#595959" points="47.946,135.357 46.923,134.333 44.14,134.333 43.116,135.357 				"/>
				<polygon fill="#373737" points="43.114,135.357 44.14,134.331 44.14,131.55 43.114,130.525 				"/>
				<rect x="51.343" y="131.55" width="2.781" height="2.781"/>
				<polygon fill="#2A2A29" points="50.315,130.525 51.341,131.55 54.124,131.55 55.147,130.525 				"/>
				<polygon fill="#474747" points="55.147,130.525 54.124,131.552 54.124,134.333 55.147,135.357 				"/>
				<polygon fill="#595959" points="55.147,135.357 54.122,134.333 51.341,134.333 50.315,135.357 				"/>
				<polygon fill="#373737" points="50.313,135.357 51.341,134.331 51.341,131.55 50.313,130.525 				"/>
				<rect x="58.542" y="131.55" width="2.781" height="2.781"/>
				<polygon fill="#2A2A29" points="57.517,130.525 58.54,131.55 61.323,131.55 62.349,130.525 				"/>
				<polygon fill="#474747" points="62.349,130.525 61.323,131.552 61.323,134.333 62.349,135.357 				"/>
				<polygon fill="#595959" points="62.347,135.357 61.321,134.333 58.54,134.333 57.517,135.357 				"/>
				<polygon fill="#373737" points="57.515,135.357 58.54,134.331 58.54,131.55 57.515,130.525 				"/>
				<rect x="65.741" y="131.55" width="2.781" height="2.781"/>
				<polygon fill="#2A2A29" points="64.716,130.525 65.739,131.55 68.522,131.55 69.548,130.525 				"/>
				<polygon fill="#474747" points="69.548,130.525 68.522,131.552 68.522,134.333 69.548,135.357 				"/>
				<polygon fill="#595959" points="69.548,135.357 68.522,134.333 65.739,134.333 64.716,135.357 				"/>
				<polygon fill="#373737" points="64.714,135.357 65.739,134.331 65.739,131.55 64.714,130.525 				"/>
				<rect x="72.941" y="131.55" width="2.781" height="2.781"/>
				<polygon fill="#2A2A29" points="71.917,130.525 72.939,131.55 75.725,131.55 76.749,130.525 				"/>
				<polygon fill="#474747" points="76.749,130.525 75.725,131.552 75.725,134.333 76.749,135.357 				"/>
				<polygon fill="#595959" points="76.747,135.357 75.723,134.333 72.939,134.333 71.917,135.357 				"/>
				<polygon fill="#373737" points="71.915,135.357 72.939,134.331 72.939,131.55 71.915,130.525 				"/>
				<rect x="80.143" y="131.55" width="2.78" height="2.781"/>
				<polygon fill="#2A2A29" points="79.116,130.525 80.141,131.55 82.923,131.55 83.948,130.525 				"/>
				<polygon fill="#474747" points="83.948,130.525 82.923,131.552 82.923,134.333 83.948,135.357 				"/>
				<polygon fill="#595959" points="83.945,135.357 82.923,134.333 80.141,134.333 79.116,135.357 				"/>
				<polygon fill="#373737" points="79.113,135.357 80.141,134.331 80.141,131.55 79.113,130.525 				"/>
				<rect x="87.343" y="131.55" width="2.781" height="2.781"/>
				<polygon fill="#2A2A29" points="86.314,130.525 87.341,131.55 90.124,131.55 91.146,130.525 				"/>
				<polygon fill="#474747" points="91.146,130.525 90.124,131.552 90.124,134.333 91.146,135.357 				"/>
				<polygon fill="#595959" points="91.146,135.357 90.122,134.333 87.341,134.333 86.314,135.357 				"/>
				<polygon fill="#373737" points="86.313,135.357 87.341,134.331 87.341,131.55 86.313,130.525 				"/>
				<rect x="36.942" y="138.749" width="2.781" height="2.783"/>
				<polygon fill="#2A2A29" points="35.917,137.726 36.94,138.749 39.724,138.749 40.749,137.726 				"/>
				<polygon fill="#474747" points="40.749,137.726 39.724,138.751 39.724,141.534 40.749,142.556 				"/>
				<polygon fill="#595959" points="40.747,142.556 39.722,141.534 36.94,141.534 35.917,142.556 				"/>
				<polygon fill="#373737" points="35.915,142.556 36.94,141.532 36.94,138.749 35.915,137.726 				"/>
				<rect x="44.142" y="138.749" width="2.781" height="2.783"/>
				<polygon fill="#2A2A29" points="43.116,137.726 44.14,138.749 46.923,138.749 47.948,137.726 				"/>
				<polygon fill="#474747" points="47.948,137.726 46.923,138.751 46.923,141.534 47.948,142.556 				"/>
				<polygon fill="#595959" points="47.946,142.556 46.923,141.534 44.14,141.534 43.116,142.556 				"/>
				<polygon fill="#373737" points="43.114,142.556 44.14,141.532 44.14,138.749 43.114,137.726 				"/>
				<rect x="51.343" y="138.749" width="2.781" height="2.783"/>
				<polygon fill="#2A2A29" points="50.315,137.726 51.341,138.749 54.124,138.749 55.147,137.726 				"/>
				<polygon fill="#474747" points="55.147,137.726 54.124,138.751 54.124,141.534 55.147,142.556 				"/>
				<polygon fill="#595959" points="55.147,142.556 54.122,141.534 51.341,141.534 50.315,142.556 				"/>
				<polygon fill="#373737" points="50.313,142.556 51.341,141.532 51.341,138.749 50.313,137.726 				"/>
				<rect x="58.542" y="138.749" width="2.781" height="2.783"/>
				<polygon fill="#2A2A29" points="57.517,137.726 58.54,138.749 61.323,138.749 62.349,137.726 				"/>
				<polygon fill="#474747" points="62.349,137.726 61.323,138.751 61.323,141.534 62.349,142.556 				"/>
				<polygon fill="#595959" points="62.347,142.556 61.321,141.534 58.54,141.534 57.517,142.556 				"/>
				<polygon fill="#373737" points="57.515,142.556 58.54,141.532 58.54,138.749 57.515,137.726 				"/>
				<rect x="65.741" y="138.749" width="2.781" height="2.783"/>
				<polygon fill="#2A2A29" points="64.716,137.726 65.739,138.749 68.522,138.749 69.548,137.726 				"/>
				<polygon fill="#474747" points="69.548,137.726 68.522,138.751 68.522,141.534 69.548,142.556 				"/>
				<polygon fill="#595959" points="69.548,142.556 68.522,141.534 65.739,141.534 64.716,142.556 				"/>
				<polygon fill="#373737" points="64.714,142.556 65.739,141.532 65.739,138.749 64.714,137.726 				"/>
				<rect x="72.941" y="138.749" width="2.781" height="2.783"/>
				<polygon fill="#2A2A29" points="71.917,137.726 72.939,138.749 75.725,138.749 76.749,137.726 				"/>
				<polygon fill="#474747" points="76.749,137.726 75.725,138.751 75.725,141.534 76.749,142.556 				"/>
				<polygon fill="#595959" points="76.747,142.556 75.723,141.534 72.939,141.534 71.917,142.556 				"/>
				<polygon fill="#373737" points="71.915,142.556 72.939,141.532 72.939,138.749 71.915,137.726 				"/>
				<rect x="80.143" y="138.749" width="2.78" height="2.783"/>
				<polygon fill="#2A2A29" points="79.116,137.726 80.141,138.749 82.923,138.749 83.948,137.726 				"/>
				<polygon fill="#474747" points="83.948,137.726 82.923,138.751 82.923,141.534 83.948,142.556 				"/>
				<polygon fill="#595959" points="83.945,142.556 82.923,141.534 80.141,141.534 79.116,142.556 				"/>
				<polygon fill="#373737" points="79.113,142.556 80.141,141.532 80.141,138.749 79.113,137.726 				"/>
				<rect x="87.343" y="138.749" width="2.781" height="2.783"/>
				<polygon fill="#2A2A29" points="86.314,137.726 87.341,138.749 90.124,138.749 91.146,137.726 				"/>
				<polygon fill="#474747" points="91.146,137.726 90.124,138.751 90.124,141.534 91.146,142.556 				"/>
				<polygon fill="#595959" points="91.146,142.556 90.122,141.534 87.341,141.534 86.314,142.556 				"/>
				<polygon fill="#373737" points="86.313,142.556 87.341,141.532 87.341,138.749 86.313,137.726 				"/>
			</g>
		</g>
		<g>
			<g>
				<circle fill="#B3B3B3" cx="38.337" cy="114.64" r="1.713"/>
			</g>
			<g>
				<circle fill="#B3B3B3" cx="45.538" cy="114.64" r="1.713"/>
			</g>
			<g>
				<circle fill="#B3B3B3" cx="52.738" cy="114.64" r="1.713"/>
			</g>
			<g>
				<circle fill="#B3B3B3" cx="59.938" cy="114.64" r="1.713"/>
			</g>
			<g>
				<circle fill="#B3B3B3" cx="67.138" cy="114.64" r="1.713"/>
			</g>
			<g>
				<circle fill="#B3B3B3" cx="74.338" cy="114.64" r="1.713"/>
			</g>
			<g>
				<circle fill="#B3B3B3" cx="81.539" cy="114.64" r="1.713"/>
			</g>
			<g>
				<circle fill="#B3B3B3" cx="88.738" cy="114.64" r="1.713"/>
			</g>
			<g>
				<circle fill="#B3B3B3" cx="95.939" cy="114.64" r="1.713"/>
			</g>
			<g>
				<circle fill="#B3B3B3" cx="103.139" cy="114.64" r="1.713"/>
			</g>
		</g>
		<g>
			<g>
				<circle fill="#B3B3B3" cx="38.337" cy="121.84" r="1.714"/>
			</g>
			<g>
				<circle fill="#B3B3B3" cx="45.538" cy="121.84" r="1.714"/>
			</g>
			<g>
				<circle fill="#B3B3B3" cx="52.738" cy="121.84" r="1.714"/>
			</g>
			<g>
				<circle fill="#B3B3B3" cx="59.938" cy="121.84" r="1.714"/>
			</g>
			<g>
				<circle fill="#B3B3B3" cx="67.138" cy="121.84" r="1.714"/>
			</g>
			<g>
				<circle fill="#B3B3B3" cx="74.338" cy="121.84" r="1.714"/>
			</g>
			<g>
				<circle fill="#B3B3B3" cx="81.539" cy="121.84" r="1.714"/>
			</g>
			<g>
				<circle fill="#B3B3B3" cx="88.738" cy="121.84" r="1.714"/>
			</g>
			<g>
				<circle fill="#B3B3B3" cx="95.939" cy="121.84" r="1.714"/>
			</g>
			<g>
				<circle fill="#B3B3B3" cx="103.139" cy="121.84" r="1.714"/>
			</g>
		</g>
		<g>
			<polyline points="106.741,123.406 63.538,123.404 63.538,129.359 106.74,129.359 			"/>
			<g>
				<g>
					<polygon fill="#B8AF82" points="37.188,113.868 37.75,113.656 38.929,113.656 39.487,113.868 39.487,124.837 37.188,124.837 
											"/>
				</g>
				<g>
					<polygon fill="#B8AF82" points="44.389,113.868 44.95,113.656 46.129,113.656 46.688,113.868 46.688,124.837 44.389,124.837 
											"/>
				</g>
				<g>
					<polygon fill="#B8AF82" points="51.589,113.868 52.15,113.656 53.329,113.656 53.888,113.868 53.888,124.837 51.589,124.837 
											"/>
				</g>
				<g>
					<polygon fill="#B8AF82" points="58.789,113.868 59.351,113.656 60.529,113.656 61.088,113.868 61.088,124.837 58.789,124.837 
											"/>
				</g>
				<g>
					<polygon fill="#B8AF82" points="65.989,113.868 66.551,113.656 67.729,113.656 68.288,113.868 68.288,124.837 65.989,124.837 
											"/>
				</g>
				<g>
					<polygon fill="#B8AF82" points="73.189,113.868 73.751,113.656 74.93,113.656 75.488,113.868 75.488,124.837 73.189,124.837 
											"/>
				</g>
				<g>
					<polygon fill="#B8AF82" points="80.391,113.868 80.951,113.656 82.13,113.656 82.688,113.868 82.688,124.837 80.391,124.837 
											"/>
				</g>
				<g>
					<polygon fill="#B8AF82" points="87.59,113.868 88.15,113.656 89.33,113.656 89.889,113.868 89.889,124.837 87.59,124.837 					
						"/>
				</g>
				<g>
					<polygon fill="#B8AF82" points="94.79,113.868 95.352,113.656 96.529,113.656 97.089,113.868 97.089,124.837 94.79,124.837 
											"/>
				</g>
				<g>
					<polygon fill="#B8AF82" points="101.99,113.868 102.552,113.656 103.73,113.656 104.289,113.868 104.289,124.837 
						101.99,124.837 					"/>
				</g>
			</g>
			<g>
				<g>
					<polygon fill="#E2D6A1" points="37.75,113.656 37.591,114.312 39.085,114.312 38.929,113.656 					"/>
				</g>
				<g>
					<polygon fill="#E2D6A1" points="44.95,113.656 44.791,114.312 46.285,114.312 46.129,113.656 					"/>
				</g>
				<g>
					<polygon fill="#E2D6A1" points="52.15,113.656 51.991,114.312 53.485,114.312 53.329,113.656 					"/>
				</g>
				<g>
					<polygon fill="#E2D6A1" points="59.351,113.656 59.191,114.312 60.686,114.312 60.529,113.656 					"/>
				</g>
				<g>
					<polygon fill="#E2D6A1" points="66.551,113.656 66.392,114.312 67.886,114.312 67.729,113.656 					"/>
				</g>
				<g>
					<polygon fill="#E2D6A1" points="73.751,113.656 73.592,114.312 75.086,114.312 74.93,113.656 					"/>
				</g>
				<g>
					<polygon fill="#E2D6A1" points="80.951,113.656 80.792,114.312 82.286,114.312 82.13,113.656 					"/>
				</g>
				<g>
					<polygon fill="#E2D6A1" points="88.15,113.656 87.992,114.312 89.486,114.312 89.33,113.656 					"/>
				</g>
				<g>
					<polygon fill="#E2D6A1" points="95.352,113.656 95.191,114.312 96.688,114.312 96.529,113.656 					"/>
				</g>
				<g>
					<polygon fill="#E2D6A1" points="102.552,113.656 102.393,114.312 103.887,114.312 103.73,113.656 					"/>
				</g>
			</g>
			<polygon points="106.74,129.359 106.741,123.406 70.736,123.406 70.737,129.359 			"/>
			<rect x="93.357" y="123.404" fill="#404040" width="5.15" height="5.955"/>
			<polygon fill="#474747" points="93.357,123.404 92.335,123.406 92.336,129.359 93.357,129.359 			"/>
			<polygon fill="#373737" points="98.512,129.359 99.535,129.359 99.536,123.406 98.514,123.406 			"/>
			<rect x="71.76" y="123.406" fill="#404040" width="5.152" height="5.953"/>
			<polygon fill="#474747" points="71.76,123.406 70.736,123.406 70.737,129.359 71.762,129.359 			"/>
			<polygon fill="#373737" points="76.915,129.359 77.936,129.357 77.936,123.406 76.914,123.406 			"/>
			<rect x="64.559" y="123.406" fill="#404040" width="5.154" height="5.951"/>
			<polygon fill="#474747" points="64.559,123.406 63.538,123.404 63.538,129.359 64.559,129.357 			"/>
			<polygon fill="#373737" points="69.713,129.357 70.737,129.359 70.736,123.406 69.713,123.406 			"/>
			<rect x="78.958" y="123.406" fill="#404040" width="5.153" height="5.953"/>
			<polygon fill="#474747" points="78.958,123.406 77.936,123.406 77.936,129.357 78.959,129.359 			"/>
			<polygon fill="#373737" points="84.113,129.359 85.139,129.359 85.137,123.406 84.113,123.406 			"/>
			<rect x="86.159" y="123.406" fill="#404040" width="5.153" height="5.953"/>
			<polygon fill="#474747" points="86.159,123.406 85.137,123.406 85.139,129.359 86.158,129.359 			"/>
			<polygon fill="#373737" points="91.313,129.359 92.336,129.359 92.335,123.406 91.313,123.406 			"/>
			<rect x="100.563" y="123.406" fill="#404040" width="5.153" height="5.953"/>
			<polygon fill="#474747" points="100.563,123.406 99.54,123.406 99.541,129.359 100.563,129.359 			"/>
			<polygon fill="#373737" points="105.717,129.359 106.74,129.359 106.741,123.406 105.718,123.406 			"/>
			<path d="M63.538,129.359"/>
			<path d="M63.538,123.404"/>
			<line fill="none" x1="63.538" y1="129.359" x2="63.538" y2="123.404"/>
			<rect x="50.155" y="123.406" fill="#404040" width="5.153" height="5.953"/>
			<polygon fill="#474747" points="50.154,123.406 49.132,123.406 49.132,129.359 50.155,129.359 			"/>
			<polygon fill="#373737" points="55.309,129.359 56.333,129.359 56.332,123.406 55.309,123.406 			"/>
			<line fill="none" x1="33.71" y1="123.406" x2="33.71" y2="129.359"/>
			<rect x="35.755" y="123.406" fill="#404040" width="5.154" height="5.953"/>
			<polygon fill="#474747" points="35.755,123.406 34.733,123.406 34.732,129.359 35.755,129.359 			"/>
			<polygon fill="#373737" points="40.91,129.359 41.934,129.359 41.934,123.406 40.911,123.406 			"/>
			<rect x="42.955" y="123.406" fill="#404040" width="5.153" height="5.953"/>
			<polygon fill="#474747" points="42.954,123.406 41.934,123.406 41.934,129.359 42.956,129.359 			"/>
			<polygon fill="#373737" points="48.109,129.359 49.132,129.359 49.132,123.406 48.11,123.406 			"/>
			<rect x="57.36" y="123.406" fill="#404040" width="5.154" height="5.953"/>
			<polygon fill="#474747" points="57.359,123.406 56.337,123.406 56.337,129.359 57.36,129.359 			"/>
			<polygon fill="#373737" points="62.515,129.359 63.538,129.359 63.538,123.404 62.514,123.406 			"/>
		</g>
		<g>
			<g>
				<path fill="#1A1A1A" d="M4.049,129.394h1.026c0.6,0,1.088,0.484,1.088,1.09c0,0.598-0.488,1.084-1.087,1.084H4.049
					c0.435,4.32,3.429,7.896,7.479,9.27h7.305c4.041-1.365,7.033-4.936,7.478-9.246h-1.024c-0.599,0-1.087-0.482-1.087-1.086
					c0-0.6,0.488-1.088,1.087-1.088h1.028c-0.427-4.326-3.423-7.914-7.481-9.291H11.53C7.478,121.497,4.486,125.073,4.049,129.394z"
					/>
				<path fill="#1E1D22" d="M4.049,128.755h1.028c0.599,0,1.086,0.488,1.086,1.094c0,0.598-0.486,1.086-1.086,1.086H4.049
					c0.436,4.316,3.431,7.896,7.479,9.27h7.307c4.038-1.369,7.032-4.938,7.475-9.246h-1.026c-0.599,0-1.086-0.485-1.086-1.088
					c0-0.598,0.486-1.086,1.086-1.086h1.03c-0.425-4.328-3.423-7.916-7.479-9.291h-7.308C7.48,120.859,4.485,124.435,4.049,128.755z
					"/>
				<path fill="#141414" d="M26.315,128.781h-1.03c-0.6,0-1.086,0.488-1.086,1.086v0.639c0-0.6,0.488-1.088,1.087-1.088h1.028"/>
				<path fill="#141414" d="M26.311,130.954c-0.443,4.313-3.437,7.877-7.475,9.246h-7.307c-4.049-1.373-7.043-4.949-7.479-9.27
					v0.637c0.435,4.32,3.429,7.896,7.479,9.27h7.305c4.041-1.365,7.033-4.936,7.478-9.246"/>
				<path fill="#141414" d="M6.164,129.845c0-0.604-0.487-1.094-1.086-1.094H4.049v0.643h1.026c0.6,0,1.088,0.484,1.088,1.09"/>
				<path fill="#1A1A1A" d="M14.854,135.482c0.008,0,0.016,0,0.021,0h-0.044C14.838,135.482,14.846,135.482,14.854,135.482z"/>
				<g>
					<path fill="none" stroke="#BA542E" stroke-width="0.7" stroke-miterlimit="10" d="M6.175,127.003
						c-0.176,2.803,8.426-0.092,8.147,4.811c-0.031,0.547,0.597,5.205,0.628,5.727c0.03,0.521-0.773,0.605-1.207,0.609"/>
				</g>
				<g>
					<g>
						<g>
							<g>
								<g>
									<path fill="#986A46" d="M7.04,132.646c-0.088,1.143,0.815,2.748,2.239,3.996c1.505,1.309,3.312,2.021,5.129,2.021
										l0.168-0.006c7.146-0.182,7.977-3.908,8.065-5.043l-0.149-0.008c-0.178,0.619-0.543,1.398-1.303,2.123
										c-0.917,1.168-2.794,2.338-6.632,2.434c-0.056,0.002-0.108,0.002-0.166,0.002c-2.226,0-3.874-1.162-4.686-1.869
										c-0.354-0.307-0.674-0.641-0.95-0.98c-0.827-0.857-1.414-1.818-1.628-2.664L7.04,132.646"/>
									<path fill="#986A46" d="M7.04,131.818c-0.021,0.258,0.011,0.537,0.085,0.832c0.215,0.846,0.799,1.807,1.628,2.664
										c0.167,0.172,0.341,0.34,0.524,0.5c1.505,1.305,3.312,2.021,5.129,2.021l0.168-0.006c3.503-0.088,5.488-1.025,6.614-2.098
										c0.758-0.726,1.127-1.504,1.303-2.123c0.095-0.332,0.135-0.619,0.149-0.82l-0.149-0.01
										c-0.18,0.621-0.549,1.408-1.313,2.133c-0.922,1.164-2.8,2.322-6.622,2.426c-0.062,0.002-0.123,0.002-0.184,0.002
										c-2.218,0-3.859-1.174-4.668-1.867c-0.354-0.311-0.675-0.643-0.951-0.984c-0.829-0.855-1.414-1.816-1.628-2.662
										L7.04,131.818"/>
									<path fill="#986A46" d="M7.04,130.988c-0.021,0.258,0.011,0.537,0.085,0.834c0.215,0.844,0.799,1.807,1.628,2.662
										c0.167,0.172,0.341,0.34,0.524,0.5c1.505,1.307,3.312,2.025,5.129,2.025l0.168-0.012c3.493-0.09,5.475-1.021,6.604-2.088
										c0.764-0.725,1.133-1.512,1.313-2.133c0.095-0.336,0.135-0.625,0.149-0.828l-0.148-0.008
										c-0.179,0.625-0.552,1.416-1.326,2.149c-0.922,1.157-2.802,2.313-6.61,2.409c-0.048,0.006-0.097,0.006-0.144,0.006
										c-2.238,0-3.893-1.172-4.707-1.867c-0.354-0.313-0.675-0.645-0.951-0.986c-0.829-0.854-1.414-1.816-1.628-2.66
										L7.04,130.988"/>
									<path fill="#986A46" d="M7.04,130.159c-0.021,0.258,0.011,0.537,0.085,0.834c0.215,0.844,0.799,1.807,1.628,2.66
										c0.167,0.174,0.341,0.342,0.524,0.502c1.505,1.307,3.312,2.016,5.129,2.016h0.168c3.482-0.086,5.464-1.016,6.591-2.072
										c0.774-0.73,1.147-1.523,1.326-2.15c0.094-0.332,0.134-0.617,0.148-0.82l-0.148-0.01c-0.179,0.625-0.552,1.418-1.326,2.15
										c-0.922,1.162-2.802,2.313-6.61,2.412c-0.055,0.002-0.108,0.004-0.164,0.004c-2.228,0-3.875-1.168-4.687-1.867
										c-0.354-0.313-0.675-0.646-0.951-0.986c-0.829-0.854-1.414-1.814-1.628-2.662L7.04,130.159"/>
									<path fill="#986A46" d="M7.04,129.331c-0.021,0.258,0.011,0.537,0.085,0.834c0.215,0.844,0.799,1.809,1.628,2.662
										c0.167,0.172,0.341,0.34,0.524,0.5c1.505,1.311,3.312,2.02,5.129,2.02h0.168c3.482-0.09,5.464-1.02,6.591-2.078
										c0.774-0.729,1.147-1.523,1.326-2.148c0.094-0.332,0.134-0.617,0.148-0.82l-0.148-0.008
										c-0.18,0.625-0.552,1.418-1.328,2.15c-0.923,1.16-2.802,2.311-6.608,2.404c-0.066,0.002-0.136,0.002-0.203,0.002
										c-2.208,0-3.84-1.168-4.649-1.863c-0.351-0.305-0.668-0.637-0.944-0.979c-0.831-0.854-1.419-1.818-1.635-2.668
										L7.04,129.331"/>
									<path fill="#986A46" d="M7.04,128.501c-0.021,0.256,0.011,0.539,0.085,0.834c0.216,0.852,0.804,1.813,1.635,2.668
										c0.165,0.17,0.337,0.334,0.517,0.492c1.505,1.311,3.312,2.021,5.129,2.021h0.168c3.48-0.088,5.462-1.018,6.589-2.076
										c0.776-0.73,1.148-1.525,1.328-2.15c0.094-0.334,0.134-0.617,0.148-0.816l-0.149-0.014
										c-0.179,0.623-0.549,1.414-1.316,2.145c-0.923,1.164-2.8,2.316-6.619,2.416c-0.056,0.002-0.108,0.004-0.165,0.004
										c-2.227,0-3.875-1.164-4.686-1.869c-0.346-0.299-0.656-0.623-0.929-0.955c-0.84-0.863-1.434-1.832-1.651-2.687
										L7.04,128.501"/>
									<path fill="#986A46" d="M7.04,127.673c-0.021,0.26,0.011,0.537,0.085,0.832c0.217,0.854,0.811,1.824,1.651,2.688
										c0.159,0.164,0.328,0.322,0.503,0.475c1.505,1.313,3.312,2.021,5.129,2.021h0.168c3.49-0.09,5.473-1.021,6.6-2.088
										c0.768-0.729,1.138-1.521,1.316-2.145c0.095-0.334,0.134-0.619,0.149-0.816l-0.594-0.029
										c-0.079,1.029-0.85,4.412-7.492,4.574c-0.062,0.002-0.123,0.004-0.185,0.004c-2.217,0-3.858-1.164-4.667-1.867
										c-1.302-1.129-2.153-2.623-2.082-3.615L7.04,127.673"/>
								</g>
							</g>
						</g>
						<g>
							<g>
								<g>
									<path fill="#BA6A46" d="M7.111,132.314c-0.091,1.156,0.823,2.768,2.258,4.021c1.514,1.314,3.338,2.039,5.163,2.039
										l0.168-0.01c5.604-0.143,7.801-2.836,7.987-5.313l-0.138-0.01c-0.252,0.975-0.834,1.938-1.828,2.721
										c-1.013,1.031-2.819,1.943-6.041,2.027c-0.036,0-0.068,0-0.103,0c-2.214,0-3.901-1.15-4.713-1.857
										c-0.067-0.063-0.135-0.117-0.199-0.182c-0.102-0.079-0.199-0.158-0.297-0.248c-1.117-0.975-1.914-2.166-2.172-3.188
										L7.111,132.314"/>
									<path fill="#BA6A46" d="M7.111,131.484c-0.021,0.258,0.01,0.539,0.084,0.834c0.259,1.025,1.057,2.217,2.172,3.188
										c0.098,0.09,0.195,0.172,0.297,0.248c1.453,1.156,3.159,1.783,4.866,1.783h0.17c2.8-0.068,4.749-0.775,6.021-1.775
										c0.996-0.783,1.578-1.744,1.828-2.721c0.071-0.271,0.116-0.551,0.138-0.82l-0.138-0.01
										c-0.252,0.979-0.835,1.938-1.833,2.725c-1.012,1.027-2.817,1.939-6.035,2.021c-0.048,0.002-0.096,0.004-0.143,0.004
										c-2.196,0-3.869-1.15-4.673-1.854c-0.065-0.059-0.128-0.113-0.191-0.172c-0.102-0.082-0.205-0.166-0.305-0.252
										c-1.117-0.979-1.914-2.166-2.172-3.191L7.111,131.484"/>
									<path fill="#BA6A46" d="M7.111,130.657c-0.021,0.256,0.01,0.539,0.084,0.834c0.259,1.025,1.057,2.217,2.172,3.191
										c0.1,0.086,0.202,0.17,0.305,0.252c1.451,1.15,3.154,1.777,4.859,1.777H14.7c2.797-0.068,4.743-0.775,6.016-1.773
										c1-0.783,1.581-1.744,1.833-2.727c0.071-0.271,0.116-0.551,0.138-0.816l-0.138-0.008c-0.252,0.975-0.835,1.938-1.833,2.723
										c-1.012,1.029-2.817,1.941-6.035,2.021c-0.036,0-0.068,0-0.104,0c-2.214,0-3.9-1.146-4.712-1.854
										c-0.065-0.057-0.128-0.115-0.191-0.172c-0.102-0.084-0.205-0.166-0.305-0.254c-1.116-0.979-1.912-2.17-2.172-3.191
										L7.111,130.657"/>
									<path fill="#BA6A46" d="M7.111,129.825c-0.021,0.258,0.01,0.539,0.085,0.836c0.26,1.023,1.057,2.219,2.172,3.191
										c0.1,0.088,0.202,0.17,0.305,0.254c1.451,1.148,3.154,1.779,4.859,1.779H14.7c2.797-0.072,4.743-0.779,6.016-1.775
										c1-0.785,1.581-1.746,1.833-2.723c0.071-0.273,0.116-0.555,0.138-0.822l-0.14-0.008c-0.252,0.973-0.834,1.932-1.826,2.717
										c-1.013,1.029-2.819,1.945-6.041,2.029c-0.036,0-0.068,0-0.104,0c-2.214,0-3.9-1.148-4.712-1.855
										c-0.065-0.057-0.128-0.113-0.191-0.17c-0.102-0.084-0.205-0.168-0.305-0.256c-1.113-0.977-1.912-2.166-2.172-3.193
										L7.111,129.825"/>
									<path fill="#BA6A46" d="M7.111,128.997c-0.021,0.256,0.01,0.537,0.085,0.832c0.26,1.027,1.057,2.219,2.172,3.193
										c0.1,0.088,0.202,0.172,0.305,0.256c1.451,1.152,3.154,1.777,4.859,1.777H14.7c2.799-0.072,4.749-0.781,6.021-1.781
										c0.994-0.785,1.575-1.744,1.826-2.717c0.072-0.275,0.118-0.557,0.14-0.828l-0.138-0.01
										c-0.252,0.979-0.835,1.938-1.833,2.727c-1.012,1.031-2.817,1.945-6.035,2.027c-0.042,0.002-0.083,0.002-0.125,0.002
										c-2.205,0-3.884-1.15-4.692-1.855c-0.065-0.057-0.128-0.113-0.191-0.174c-0.102-0.082-0.205-0.166-0.305-0.252
										c-1.114-0.975-1.912-2.17-2.172-3.193L7.111,128.997"/>
									<path fill="#BA6A46" d="M7.111,128.167c-0.021,0.258,0.01,0.539,0.085,0.834c0.26,1.023,1.057,2.223,2.172,3.193
										c0.1,0.086,0.202,0.17,0.305,0.252c1.451,1.154,3.154,1.781,4.859,1.781H14.7c2.797-0.072,4.743-0.781,6.016-1.781
										c1-0.785,1.581-1.748,1.833-2.727c0.071-0.273,0.116-0.553,0.138-0.82l-0.138-0.008c-0.252,0.977-0.835,1.938-1.833,2.725
										c-1.012,1.031-2.817,1.945-6.035,2.029c-0.027,0-0.057,0-0.085,0c-2.225,0-3.917-1.146-4.731-1.855
										c-0.065-0.057-0.127-0.109-0.191-0.172c-0.102-0.084-0.205-0.168-0.305-0.254c-1.114-0.973-1.91-2.166-2.171-3.193
										L7.111,128.167"/>
									<path fill="#BA6A46" d="M7.111,127.331c-0.021,0.266,0.01,0.545,0.086,0.84c0.261,1.027,1.059,2.225,2.171,3.193
										c0.1,0.086,0.202,0.17,0.305,0.254c1.451,1.152,3.154,1.779,4.859,1.779H14.7c2.797-0.072,4.743-0.779,6.016-1.781
										c1-0.785,1.581-1.748,1.833-2.725c0.071-0.273,0.116-0.555,0.138-0.822l-0.69-0.035c-0.08,1.082-0.841,4.613-7.316,4.779
										c-0.036,0-0.068,0-0.104,0c-2.214,0-3.9-1.148-4.712-1.854c-1.293-1.129-2.146-2.604-2.065-3.592L7.111,127.331"/>
								</g>
							</g>
						</g>
					</g>
				</g>
				<path fill="#1A1A1A" d="M4.049,125.273h1.026c0.601,0,1.087,0.486,1.087,1.088c0,0.6-0.488,1.086-1.087,1.086H4.049
					c0.434,4.318,3.428,7.896,7.478,9.27h7.304c4.041-1.367,7.033-4.938,7.478-9.244h-1.024c-0.599,0-1.086-0.486-1.086-1.09
					c0-0.6,0.486-1.088,1.086-1.088h1.028c-0.427-4.322-3.423-7.914-7.481-9.291h-7.304C7.478,117.374,4.484,120.95,4.049,125.273z"
					/>
				<path fill="#262626" d="M4.049,124.865h1.027c0.601,0,1.088,0.488,1.088,1.088c0,0.604-0.488,1.086-1.087,1.086H4.049
					c0.436,4.32,3.43,7.898,7.479,9.271h7.305c4.041-1.369,7.033-4.938,7.476-9.246h-1.022c-0.531,0-1.087,0.221-1.087-1.086
					c0-0.604,0.486-1.088,1.087-1.088h1.027c-0.427-4.326-3.423-7.914-7.481-9.291h-7.305C7.48,116.969,4.486,120.544,4.049,124.865
					z"/>
				<path fill="#1E1D22" d="M4.049,124.865h1.027c0.601,0,1.088,0.488,1.088,1.088l-0.002,0.408c0-0.604-0.486-1.088-1.087-1.088
					H4.049"/>
				<path fill="#1E1D22" d="M26.314,125.273h-1.027c-0.601,0-1.087,0.488-1.087,1.088v-0.385c0-0.604,0.486-1.088,1.087-1.088h1.027
					V125.273z"/>
			</g>
		</g>
		<g>
			<polygon fill="#345A92" points="79.785,57.575 68.797,61.573 70.033,56.429 79.785,52.881 			"/>
			<polygon fill="#1E3658" points="75.377,54.486 75.377,59.177 73.643,59.803 			"/>
			<polygon fill="#D9DF6D" points="79.785,68.296 68.797,61.534 68.797,55.716 79.785,62.478 			"/>
			<polygon fill="#E2BD00" points="64.388,44.17 68.797,41.252 68.797,61.534 64.388,58.614 			"/>
			<polygon fill="#71CAF3" points="79.785,49.939 68.797,45.922 68.797,41.252 79.785,45.25 			"/>
			<polygon fill="#D0107C" points="79.785,45.25 75.377,43.65 75.377,59.177 79.785,57.575 			"/>
			<polygon fill="#0B8299" points="68.797,41.252 70.039,46.376 68.797,45.922 			"/>
		</g>
		<g id="connectors">
			<circle fill="none" cx="38.337" cy="132.941" r="1.713"/>
			<circle fill="none" cx="45.538" cy="132.941" r="1.713"/>
			<circle fill="none" cx="52.738" cy="132.941" r="1.713"/>
			<circle fill="none" cx="59.938" cy="132.941" r="1.713"/>
			<circle fill="none" cx="67.138" cy="132.941" r="1.713"/>
			<circle fill="none" cx="74.338" cy="132.941" r="1.713"/>
			<circle fill="none" cx="81.539" cy="132.941" r="1.713"/>
			<circle fill="none" cx="88.738" cy="132.941" r="1.713"/>
			<circle fill="none" cx="95.939" cy="132.941" r="1.713"/>
			<circle fill="none" cx="103.139" cy="132.941" r="1.713"/>
			<circle fill="none" cx="38.337" cy="140.142" r="1.713"/>
			<circle fill="none" cx="45.538" cy="140.142" r="1.713"/>
			<circle fill="none" cx="52.738" cy="140.142" r="1.713"/>
			<circle fill="none" cx="59.938" cy="140.142" r="1.713"/>
			<circle fill="none" cx="67.138" cy="140.142" r="1.713"/>
			<circle fill="none" cx="74.338" cy="140.142" r="1.713"/>
			<circle fill="none" cx="81.539" cy="140.142" r="1.713"/>
			<circle fill="none" cx="88.738" cy="140.142" r="1.713"/>
			<circle fill="none" cx="95.939" cy="140.142" r="1.713"/>
			<circle id="pin01" fill="none" cx="103.139" cy="140.142" r="1.713"/>
		</g>
		<g>
			<rect x="91.475" y="3.783" fill="#284697" width="34.019" height="51.023"/>
			<rect x="91.475" y="54.74" fill="#1E3571" width="34.019" height="1.996"/>
			<path fill="#CCCCCC" d="M91.695,20.633c0-0.974,0.953-1.769,2.115-1.769h29.342c1.162,0,2.115,0.796,2.115,1.769V51.11
				c0,0.973-0.953,1.77-2.115,1.77H93.811c-1.162,0-2.111-0.796-2.111-1.77V20.633H91.695z"/>
			<path fill="#999999" d="M125.27,51.595c0,1.164-0.951,2.112-2.112,2.112H93.811c-1.162,0-2.111-0.952-2.111-2.112v-0.832
				c0,1.163,0.949,2.112,2.111,2.112h29.346c1.16,0,2.113-0.949,2.113-2.112V51.595L125.27,51.595z"/>
			<rect x="115.209" y="8.464" fill="#CCCCCC" width="8.575" height="0.858"/>
			<rect x="94.734" y="58.853" fill="#DBDBDB" width="1.373" height="0.146"/>
			<g>
				<g>
					<rect x="121.402" y="54.74" fill="#D1D1D1" width="1.371" height="4.188"/>
					<rect x="121.402" y="55.825" fill="#CCCCCC" width="1.371" height="2.016"/>
					<rect x="121.402" y="55.946" fill="#C2C2C2" width="1.371" height="1.775"/>
					<rect x="121.402" y="56.132" fill="#ADADAD" width="1.371" height="1.401"/>
					<rect x="121.402" y="56.492" fill="#B8B8B8" width="1.371" height="0.683"/>
					<rect x="121.402" y="56.7" fill="#DDDDDD" width="1.371" height="0.133"/>
					<rect x="121.402" y="54.907" fill="#D6D6D6" width="1.371" height="0.25"/>
				</g>
				<g>
					<rect x="117.593" y="54.74" fill="#D1D1D1" width="1.372" height="4.188"/>
					<rect x="117.593" y="55.825" fill="#CCCCCC" width="1.372" height="2.016"/>
					<rect x="117.593" y="55.946" fill="#C2C2C2" width="1.372" height="1.775"/>
					<rect x="117.593" y="56.132" fill="#ADADAD" width="1.372" height="1.401"/>
					<rect x="117.593" y="56.492" fill="#B8B8B8" width="1.372" height="0.683"/>
					<rect x="117.593" y="56.7" fill="#DDDDDD" width="1.372" height="0.133"/>
					<rect x="117.593" y="54.907" fill="#D6D6D6" width="1.372" height="0.25"/>
				</g>
				<g>
					<rect x="113.783" y="54.74" fill="#D1D1D1" width="1.371" height="4.188"/>
					<rect x="113.783" y="55.825" fill="#CCCCCC" width="1.371" height="2.016"/>
					<rect x="113.783" y="55.946" fill="#C2C2C2" width="1.371" height="1.775"/>
					<rect x="113.783" y="56.132" fill="#ADADAD" width="1.371" height="1.401"/>
					<rect x="113.783" y="56.492" fill="#B8B8B8" width="1.371" height="0.683"/>
					<rect x="113.783" y="56.7" fill="#DDDDDD" width="1.371" height="0.133"/>
					<rect x="113.783" y="54.907" fill="#D6D6D6" width="1.371" height="0.25"/>
				</g>
				<g>
					<rect x="109.973" y="54.74" fill="#D1D1D1" width="1.373" height="4.188"/>
					<rect x="109.973" y="55.825" fill="#CCCCCC" width="1.373" height="2.016"/>
					<rect x="109.973" y="55.946" fill="#C2C2C2" width="1.373" height="1.775"/>
					<rect x="109.973" y="56.132" fill="#ADADAD" width="1.373" height="1.401"/>
					<rect x="109.973" y="56.492" fill="#B8B8B8" width="1.373" height="0.683"/>
					<rect x="109.973" y="56.7" fill="#DDDDDD" width="1.373" height="0.133"/>
					<rect x="109.973" y="54.907" fill="#D6D6D6" width="1.373" height="0.25"/>
				</g>
				<g>
					<rect x="106.164" y="54.74" fill="#D1D1D1" width="1.373" height="4.188"/>
					<rect x="106.164" y="55.825" fill="#CCCCCC" width="1.373" height="2.016"/>
					<rect x="106.164" y="55.946" fill="#C2C2C2" width="1.373" height="1.775"/>
					<rect x="106.164" y="56.132" fill="#ADADAD" width="1.373" height="1.401"/>
					<rect x="106.164" y="56.492" fill="#B8B8B8" width="1.373" height="0.683"/>
					<rect x="106.164" y="56.7" fill="#DDDDDD" width="1.373" height="0.133"/>
					<rect x="106.164" y="54.907" fill="#D6D6D6" width="1.373" height="0.25"/>
				</g>
				<g>
					<rect x="102.354" y="54.74" fill="#D1D1D1" width="1.373" height="4.188"/>
					<rect x="102.354" y="55.825" fill="#CCCCCC" width="1.373" height="2.016"/>
					<rect x="102.354" y="55.946" fill="#C2C2C2" width="1.373" height="1.775"/>
					<rect x="102.354" y="56.132" fill="#ADADAD" width="1.373" height="1.401"/>
					<rect x="102.354" y="56.492" fill="#B8B8B8" width="1.373" height="0.683"/>
					<rect x="102.354" y="56.7" fill="#DDDDDD" width="1.373" height="0.133"/>
					<rect x="102.354" y="54.907" fill="#D6D6D6" width="1.373" height="0.25"/>
				</g>
				<g>
					<rect x="98.545" y="54.74" fill="#D1D1D1" width="1.372" height="4.188"/>
					<rect x="98.545" y="55.825" fill="#CCCCCC" width="1.372" height="2.016"/>
					<rect x="98.545" y="55.946" fill="#C2C2C2" width="1.372" height="1.775"/>
					<rect x="98.545" y="56.132" fill="#ADADAD" width="1.372" height="1.401"/>
					<rect x="98.545" y="56.492" fill="#B8B8B8" width="1.372" height="0.683"/>
					<rect x="98.545" y="56.7" fill="#DDDDDD" width="1.372" height="0.133"/>
					<rect x="98.545" y="54.907" fill="#D6D6D6" width="1.372" height="0.25"/>
				</g>
				<g>
					<rect x="94.734" y="54.74" fill="#D1D1D1" width="1.373" height="4.188"/>
					<rect x="94.734" y="55.825" fill="#CCCCCC" width="1.373" height="2.016"/>
					<rect x="94.734" y="55.946" fill="#C2C2C2" width="1.373" height="1.775"/>
					<rect x="94.734" y="56.132" fill="#ADADAD" width="1.373" height="1.401"/>
					<rect x="94.734" y="56.492" fill="#B8B8B8" width="1.373" height="0.683"/>
					<rect x="94.734" y="56.7" fill="#DDDDDD" width="1.373" height="0.133"/>
					<rect x="94.734" y="54.907" fill="#D6D6D6" width="1.373" height="0.25"/>
				</g>
			</g>
			<g>
				<g>
					<rect x="125.49" y="20.337" fill="#D1D1D1" width="2.24" height="1.372"/>
					<rect x="126.07" y="20.337" fill="#CCCCCC" width="1.078" height="1.372"/>
					<rect x="126.135" y="20.337" fill="#C2C2C2" width="0.951" height="1.372"/>
					<rect x="126.234" y="20.337" fill="#ADADAD" width="0.75" height="1.372"/>
					<rect x="126.428" y="20.337" fill="#B8B8B8" width="0.365" height="1.372"/>
					<rect x="126.539" y="20.337" fill="#DDDDDD" width="0.07" height="1.372"/>
					<rect x="125.58" y="20.337" fill="#D6D6D6" width="0.135" height="1.372"/>
				</g>
				<g>
					<rect x="125.49" y="24.077" fill="#D1D1D1" width="2.24" height="1.372"/>
					<rect x="126.07" y="24.077" fill="#CCCCCC" width="1.078" height="1.372"/>
					<rect x="126.135" y="24.077" fill="#C2C2C2" width="0.951" height="1.372"/>
					<rect x="126.234" y="24.077" fill="#ADADAD" width="0.75" height="1.372"/>
					<rect x="126.428" y="24.077" fill="#B8B8B8" width="0.365" height="1.372"/>
					<rect x="126.539" y="24.077" fill="#DDDDDD" width="0.07" height="1.372"/>
					<rect x="125.58" y="24.077" fill="#D6D6D6" width="0.135" height="1.372"/>
				</g>
				<g>
					<rect x="125.49" y="27.817" fill="#D1D1D1" width="2.24" height="1.372"/>
					<rect x="126.07" y="27.817" fill="#CCCCCC" width="1.078" height="1.372"/>
					<rect x="126.135" y="27.817" fill="#C2C2C2" width="0.951" height="1.372"/>
					<rect x="126.234" y="27.817" fill="#ADADAD" width="0.75" height="1.372"/>
					<rect x="126.428" y="27.817" fill="#B8B8B8" width="0.365" height="1.372"/>
					<rect x="126.539" y="27.817" fill="#DDDDDD" width="0.07" height="1.372"/>
					<rect x="125.58" y="27.817" fill="#D6D6D6" width="0.135" height="1.372"/>
				</g>
				<g>
					<rect x="125.49" y="31.557" fill="#D1D1D1" width="2.24" height="1.372"/>
					<rect x="126.07" y="31.557" fill="#CCCCCC" width="1.078" height="1.372"/>
					<rect x="126.135" y="31.557" fill="#C2C2C2" width="0.951" height="1.372"/>
					<rect x="126.234" y="31.557" fill="#ADADAD" width="0.75" height="1.372"/>
					<rect x="126.428" y="31.557" fill="#B8B8B8" width="0.365" height="1.372"/>
					<rect x="126.539" y="31.557" fill="#DDDDDD" width="0.07" height="1.372"/>
					<rect x="125.58" y="31.557" fill="#D6D6D6" width="0.135" height="1.372"/>
				</g>
				<g>
					<rect x="125.49" y="35.297" fill="#D1D1D1" width="2.24" height="1.372"/>
					<rect x="126.07" y="35.297" fill="#CCCCCC" width="1.078" height="1.372"/>
					<rect x="126.135" y="35.297" fill="#C2C2C2" width="0.951" height="1.372"/>
					<rect x="126.234" y="35.297" fill="#ADADAD" width="0.75" height="1.372"/>
					<rect x="126.428" y="35.297" fill="#B8B8B8" width="0.365" height="1.372"/>
					<rect x="126.539" y="35.297" fill="#DDDDDD" width="0.07" height="1.372"/>
					<rect x="125.58" y="35.297" fill="#D6D6D6" width="0.135" height="1.372"/>
				</g>
				<g>
					<rect x="125.49" y="39.037" fill="#D1D1D1" width="2.24" height="1.372"/>
					<rect x="126.07" y="39.037" fill="#CCCCCC" width="1.078" height="1.372"/>
					<rect x="126.135" y="39.037" fill="#C2C2C2" width="0.951" height="1.372"/>
					<rect x="126.234" y="39.037" fill="#ADADAD" width="0.75" height="1.372"/>
					<rect x="126.428" y="39.037" fill="#B8B8B8" width="0.365" height="1.372"/>
					<rect x="126.539" y="39.037" fill="#DDDDDD" width="0.07" height="1.372"/>
					<rect x="125.58" y="39.037" fill="#D6D6D6" width="0.135" height="1.372"/>
				</g>
				<g>
					<rect x="125.49" y="42.777" fill="#D1D1D1" width="2.24" height="1.372"/>
					<rect x="126.07" y="42.777" fill="#CCCCCC" width="1.078" height="1.372"/>
					<rect x="126.135" y="42.777" fill="#C2C2C2" width="0.951" height="1.372"/>
					<rect x="126.234" y="42.777" fill="#ADADAD" width="0.75" height="1.372"/>
					<rect x="126.428" y="42.777" fill="#B8B8B8" width="0.365" height="1.372"/>
					<rect x="126.539" y="42.777" fill="#DDDDDD" width="0.07" height="1.372"/>
					<rect x="125.58" y="42.777" fill="#D6D6D6" width="0.135" height="1.372"/>
				</g>
				<g>
					<rect x="125.49" y="46.517" fill="#D1D1D1" width="2.24" height="1.372"/>
					<rect x="126.07" y="46.517" fill="#CCCCCC" width="1.078" height="1.372"/>
					<rect x="126.135" y="46.517" fill="#C2C2C2" width="0.951" height="1.372"/>
					<rect x="126.234" y="46.517" fill="#ADADAD" width="0.75" height="1.372"/>
					<rect x="126.428" y="46.517" fill="#B8B8B8" width="0.365" height="1.372"/>
					<rect x="126.539" y="46.517" fill="#DDDDDD" width="0.07" height="1.372"/>
					<rect x="125.58" y="46.517" fill="#D6D6D6" width="0.135" height="1.372"/>
				</g>
				<g>
					<rect x="125.49" y="50.257" fill="#D1D1D1" width="2.24" height="1.372"/>
					<rect x="126.07" y="50.257" fill="#CCCCCC" width="1.078" height="1.372"/>
					<rect x="126.135" y="50.257" fill="#C2C2C2" width="0.951" height="1.372"/>
					<rect x="126.234" y="50.257" fill="#ADADAD" width="0.75" height="1.372"/>
					<rect x="126.428" y="50.257" fill="#B8B8B8" width="0.365" height="1.372"/>
					<rect x="126.539" y="50.257" fill="#DDDDDD" width="0.07" height="1.372"/>
					<rect x="125.58" y="50.257" fill="#D6D6D6" width="0.135" height="1.372"/>
				</g>
				<g>
					<rect x="125.49" y="53.997" fill="#D1D1D1" width="2.24" height="1.372"/>
					<rect x="126.07" y="53.997" fill="#CCCCCC" width="1.078" height="1.372"/>
					<rect x="126.135" y="53.997" fill="#C2C2C2" width="0.951" height="1.372"/>
					<rect x="126.234" y="53.997" fill="#ADADAD" width="0.75" height="1.372"/>
					<rect x="126.428" y="53.997" fill="#B8B8B8" width="0.365" height="1.372"/>
					<rect x="126.539" y="53.997" fill="#DDDDDD" width="0.07" height="1.372"/>
					<rect x="125.58" y="53.997" fill="#D6D6D6" width="0.135" height="1.372"/>
				</g>
			</g>
			<g>
				<g>
					<rect x="89.271" y="5.362" fill="#D1D1D1" width="2.203" height="1.372"/>
					<rect x="89.844" y="5.362" fill="#CCCCCC" width="1.063" height="1.372"/>
					<rect x="89.904" y="5.362" fill="#C2C2C2" width="0.938" height="1.372"/>
					<rect x="90.004" y="5.362" fill="#ADADAD" width="0.738" height="1.372"/>
					<rect x="90.193" y="5.362" fill="#B8B8B8" width="0.356" height="1.372"/>
					<rect x="90.373" y="5.362" fill="#DDDDDD" width="0.07" height="1.372"/>
					<rect x="91.256" y="5.362" fill="#D6D6D6" width="0.133" height="1.372"/>
				</g>
				<g>
					<rect x="89.271" y="9.105" fill="#D1D1D1" width="2.203" height="1.372"/>
					<rect x="89.844" y="9.105" fill="#CCCCCC" width="1.063" height="1.372"/>
					<rect x="89.904" y="9.105" fill="#C2C2C2" width="0.938" height="1.372"/>
					<rect x="90.004" y="9.105" fill="#ADADAD" width="0.738" height="1.372"/>
					<rect x="90.193" y="9.105" fill="#B8B8B8" width="0.356" height="1.372"/>
					<rect x="90.373" y="9.105" fill="#DDDDDD" width="0.07" height="1.372"/>
					<rect x="91.256" y="9.105" fill="#D6D6D6" width="0.133" height="1.372"/>
				</g>
				<g>
					<rect x="89.271" y="12.849" fill="#D1D1D1" width="2.203" height="1.372"/>
					<rect x="89.844" y="12.849" fill="#CCCCCC" width="1.063" height="1.372"/>
					<rect x="89.904" y="12.849" fill="#C2C2C2" width="0.938" height="1.372"/>
					<rect x="90.004" y="12.849" fill="#ADADAD" width="0.738" height="1.372"/>
					<rect x="90.193" y="12.849" fill="#B8B8B8" width="0.356" height="1.372"/>
					<rect x="90.373" y="12.849" fill="#DDDDDD" width="0.07" height="1.372"/>
					<rect x="91.256" y="12.849" fill="#D6D6D6" width="0.133" height="1.372"/>
				</g>
				<g>
					<rect x="89.271" y="16.594" fill="#D1D1D1" width="2.203" height="1.369"/>
					<rect x="89.844" y="16.594" fill="#CCCCCC" width="1.063" height="1.369"/>
					<rect x="89.904" y="16.594" fill="#C2C2C2" width="0.938" height="1.369"/>
					<rect x="90.004" y="16.594" fill="#ADADAD" width="0.738" height="1.369"/>
					<rect x="90.193" y="16.594" fill="#B8B8B8" width="0.356" height="1.369"/>
					<rect x="90.373" y="16.594" fill="#DDDDDD" width="0.07" height="1.369"/>
					<rect x="91.256" y="16.594" fill="#D6D6D6" width="0.133" height="1.369"/>
				</g>
				<g>
					<rect x="89.271" y="20.337" fill="#D1D1D1" width="2.203" height="1.372"/>
					<rect x="89.844" y="20.337" fill="#CCCCCC" width="1.063" height="1.372"/>
					<rect x="89.904" y="20.337" fill="#C2C2C2" width="0.938" height="1.372"/>
					<rect x="90.004" y="20.337" fill="#ADADAD" width="0.738" height="1.372"/>
					<rect x="90.193" y="20.337" fill="#B8B8B8" width="0.356" height="1.372"/>
					<rect x="90.373" y="20.337" fill="#DDDDDD" width="0.07" height="1.372"/>
					<rect x="91.256" y="20.337" fill="#D6D6D6" width="0.133" height="1.372"/>
				</g>
				<g>
					<rect x="89.271" y="24.08" fill="#D1D1D1" width="2.203" height="1.372"/>
					<rect x="89.844" y="24.08" fill="#CCCCCC" width="1.063" height="1.372"/>
					<rect x="89.904" y="24.08" fill="#C2C2C2" width="0.938" height="1.372"/>
					<rect x="90.004" y="24.08" fill="#ADADAD" width="0.738" height="1.372"/>
					<rect x="90.193" y="24.08" fill="#B8B8B8" width="0.356" height="1.372"/>
					<rect x="90.373" y="24.08" fill="#DDDDDD" width="0.07" height="1.372"/>
					<rect x="91.256" y="24.08" fill="#D6D6D6" width="0.133" height="1.372"/>
				</g>
				<g>
					<rect x="89.271" y="27.824" fill="#D1D1D1" width="2.203" height="1.372"/>
					<rect x="89.844" y="27.824" fill="#CCCCCC" width="1.063" height="1.372"/>
					<rect x="89.904" y="27.824" fill="#C2C2C2" width="0.938" height="1.372"/>
					<rect x="90.004" y="27.824" fill="#ADADAD" width="0.738" height="1.372"/>
					<rect x="90.193" y="27.824" fill="#B8B8B8" width="0.356" height="1.372"/>
					<rect x="90.373" y="27.824" fill="#DDDDDD" width="0.07" height="1.372"/>
					<rect x="91.256" y="27.824" fill="#D6D6D6" width="0.133" height="1.372"/>
				</g>
				<g>
					<rect x="89.271" y="31.568" fill="#D1D1D1" width="2.203" height="1.372"/>
					<rect x="89.844" y="31.568" fill="#CCCCCC" width="1.063" height="1.372"/>
					<rect x="89.904" y="31.568" fill="#C2C2C2" width="0.938" height="1.372"/>
					<rect x="90.004" y="31.568" fill="#ADADAD" width="0.738" height="1.372"/>
					<rect x="90.193" y="31.568" fill="#B8B8B8" width="0.356" height="1.372"/>
					<rect x="90.373" y="31.568" fill="#DDDDDD" width="0.07" height="1.372"/>
					<rect x="91.256" y="31.568" fill="#D6D6D6" width="0.133" height="1.372"/>
				</g>
				<g>
					<rect x="89.271" y="35.311" fill="#D1D1D1" width="2.203" height="1.372"/>
					<rect x="89.844" y="35.311" fill="#CCCCCC" width="1.063" height="1.372"/>
					<rect x="89.904" y="35.311" fill="#C2C2C2" width="0.938" height="1.372"/>
					<rect x="90.004" y="35.311" fill="#ADADAD" width="0.738" height="1.372"/>
					<rect x="90.193" y="35.311" fill="#B8B8B8" width="0.356" height="1.372"/>
					<rect x="90.373" y="35.311" fill="#DDDDDD" width="0.07" height="1.372"/>
					<rect x="91.256" y="35.311" fill="#D6D6D6" width="0.133" height="1.372"/>
				</g>
				<g>
					<rect x="89.271" y="39.055" fill="#D1D1D1" width="2.203" height="1.372"/>
					<rect x="89.844" y="39.055" fill="#CCCCCC" width="1.063" height="1.372"/>
					<rect x="89.904" y="39.055" fill="#C2C2C2" width="0.938" height="1.372"/>
					<rect x="90.004" y="39.055" fill="#ADADAD" width="0.738" height="1.372"/>
					<rect x="90.193" y="39.055" fill="#B8B8B8" width="0.356" height="1.372"/>
					<rect x="90.373" y="39.055" fill="#DDDDDD" width="0.07" height="1.372"/>
					<rect x="91.256" y="39.055" fill="#D6D6D6" width="0.133" height="1.372"/>
				</g>
				<g>
					<rect x="89.271" y="42.799" fill="#D1D1D1" width="2.203" height="1.372"/>
					<rect x="89.844" y="42.799" fill="#CCCCCC" width="1.063" height="1.372"/>
					<rect x="89.904" y="42.799" fill="#C2C2C2" width="0.938" height="1.372"/>
					<rect x="90.004" y="42.799" fill="#ADADAD" width="0.738" height="1.372"/>
					<rect x="90.193" y="42.799" fill="#B8B8B8" width="0.356" height="1.372"/>
					<rect x="90.373" y="42.799" fill="#DDDDDD" width="0.07" height="1.372"/>
					<rect x="91.256" y="42.799" fill="#D6D6D6" width="0.133" height="1.372"/>
				</g>
				<g>
					<rect x="89.271" y="46.543" fill="#D1D1D1" width="2.203" height="1.372"/>
					<rect x="89.844" y="46.543" fill="#CCCCCC" width="1.063" height="1.372"/>
					<rect x="89.904" y="46.543" fill="#C2C2C2" width="0.938" height="1.372"/>
					<rect x="90.004" y="46.543" fill="#ADADAD" width="0.738" height="1.372"/>
					<rect x="90.193" y="46.543" fill="#B8B8B8" width="0.356" height="1.372"/>
					<rect x="90.373" y="46.543" fill="#DDDDDD" width="0.07" height="1.372"/>
					<rect x="91.256" y="46.543" fill="#D6D6D6" width="0.133" height="1.372"/>
				</g>
				<g>
					<rect x="89.271" y="50.286" fill="#D1D1D1" width="2.203" height="1.372"/>
					<rect x="89.844" y="50.286" fill="#CCCCCC" width="1.063" height="1.372"/>
					<rect x="89.904" y="50.286" fill="#C2C2C2" width="0.938" height="1.372"/>
					<rect x="90.004" y="50.286" fill="#ADADAD" width="0.738" height="1.372"/>
					<rect x="90.193" y="50.286" fill="#B8B8B8" width="0.356" height="1.372"/>
					<rect x="90.373" y="50.286" fill="#DDDDDD" width="0.07" height="1.372"/>
					<rect x="91.256" y="50.286" fill="#D6D6D6" width="0.133" height="1.372"/>
				</g>
				<g>
					<rect x="89.271" y="54.03" fill="#D1D1D1" width="2.203" height="1.372"/>
					<rect x="89.844" y="54.03" fill="#CCCCCC" width="1.063" height="1.372"/>
					<rect x="89.904" y="54.03" fill="#C2C2C2" width="0.938" height="1.372"/>
					<rect x="90.004" y="54.03" fill="#ADADAD" width="0.738" height="1.372"/>
					<rect x="90.193" y="54.03" fill="#B8B8B8" width="0.356" height="1.372"/>
					<rect x="90.373" y="54.03" fill="#DDDDDD" width="0.07" height="1.372"/>
					<rect x="91.256" y="54.03" fill="#D6D6D6" width="0.133" height="1.372"/>
				</g>
			</g>
			<rect x="115.209" y="4.41" fill="#E6E6E6" width="8.575" height="4.055"/>
			<rect x="115.209" y="6.037" fill="#B02900" width="2.895" height="0.801"/>
			<g>
				<polygon fill="none" stroke="#B3B3B3" stroke-width="0.5" stroke-miterlimit="10" points="118.279,50.797 118.279,20.546 
					122.965,20.546 122.965,48.898 121.601,50.797 				"/>
				<rect x="118.279" y="20.546" fill="#B3B3B3" width="4.686" height="15.125"/>
				<g>
					<g>
						
							<text transform="matrix(-4.371138e-008 1 -1 -4.371138e-008 119.79 47.1282)" fill="#B3B3B3" font-family="'OCRA'" font-size="2.3725">a</text>
					</g>
					<g>
						
							<text transform="matrix(-4.371138e-008 1 -1 -4.371138e-008 119.79 43.594)" fill="#B3B3B3" font-family="'OCRA'" font-size="2.3725">g</text>
					</g>
					<g>
						
							<text transform="matrix(-4.371138e-008 1 -1 -4.371138e-008 119.79 40.2366)" fill="#B3B3B3" font-family="'OCRA'" font-size="2.3725">i</text>
					</g>
					<g>
						
							<text transform="matrix(-4.371138e-008 1 -1 -4.371138e-008 119.79 37.1174)" fill="#B3B3B3" font-family="'OCRA'" font-size="2.3725">g</text>
					</g>
					<g>
						
							<text transform="matrix(-4.371138e-008 1 -1 -4.371138e-008 119.79 32.7224)" fill="#F2F2F2" font-family="'OCRA'" font-size="2.3725">e</text>
					</g>
					<g>
						
							<text transform="matrix(-4.371138e-008 1 -1 -4.371138e-008 119.79 29.1584)" fill="#F2F2F2" font-family="'OCRA'" font-size="2.3725">u</text>
					</g>
					<g>
						
							<text transform="matrix(-4.371138e-008 1 -1 -4.371138e-008 119.79 25.594)" fill="#F2F2F2" font-family="'OCRA'" font-size="2.3725">l</text>
					</g>
					<g>
						
							<text transform="matrix(-4.371138e-008 1 -1 -4.371138e-008 119.79 22.03)" fill="#F2F2F2" font-family="'OCRA'" font-size="2.3725">b</text>
					</g>
					<g>
						
							<text transform="matrix(-4.371138e-008 1 -1 -4.371138e-008 113.7832 39.7615)" fill="#B3B3B3" font-family="'OCRA'" font-size="2.5003">BLE112</text>
					</g>
				</g>
			</g>
		</g>
		<circle fill="none" stroke="#B3B3B3" stroke-width="0.5" stroke-miterlimit="10" cx="2.46" cy="90.16" r="1.319"/>
		<circle fill="none" stroke="#B3B3B3" stroke-width="0.5" stroke-miterlimit="10" cx="2.46" cy="82.961" r="1.319"/>
		<circle fill="none" stroke="#B3B3B3" stroke-width="0.5" stroke-miterlimit="10" cx="2.46" cy="75.76" r="1.319"/>
		<circle fill="none" stroke="#B3B3B3" stroke-width="0.5" stroke-miterlimit="10" cx="2.46" cy="68.56" r="1.32"/>
		<circle fill="none" stroke="#B3B3B3" stroke-width="0.5" stroke-miterlimit="10" cx="2.46" cy="61.36" r="1.32"/>
		<circle fill="none" stroke="#B3B3B3" stroke-width="0.5" stroke-miterlimit="10" cx="2.46" cy="54.161" r="1.319"/>
		<circle fill="none" stroke="#B3B3B3" stroke-width="0.5" stroke-miterlimit="10" cx="2.46" cy="46.96" r="1.32"/>
		<circle fill="none" stroke="#B3B3B3" stroke-width="0.5" stroke-miterlimit="10" cx="2.46" cy="39.761" r="1.32"/>
		<circle fill="none" stroke="#B3B3B3" stroke-width="0.5" stroke-miterlimit="10" cx="2.46" cy="32.56" r="1.32"/>
		<circle fill="none" stroke="#B3B3B3" stroke-width="0.5" stroke-miterlimit="10" cx="2.46" cy="25.36" r="1.32"/>
		<circle fill="none" stroke="#B3B3B3" stroke-width="0.5" stroke-miterlimit="10" cx="139.2" cy="90.16" r="1.319"/>
		<circle fill="none" stroke="#B3B3B3" stroke-width="0.5" stroke-miterlimit="10" cx="139.2" cy="82.961" r="1.319"/>
		<circle fill="none" stroke="#B3B3B3" stroke-width="0.5" stroke-miterlimit="10" cx="139.2" cy="75.76" r="1.319"/>
		<circle fill="none" stroke="#B3B3B3" stroke-width="0.5" stroke-miterlimit="10" cx="139.2" cy="68.56" r="1.32"/>
		<circle fill="none" stroke="#B3B3B3" stroke-width="0.5" stroke-miterlimit="10" cx="139.2" cy="61.36" r="1.32"/>
		<circle fill="none" stroke="#B3B3B3" stroke-width="0.5" stroke-miterlimit="10" cx="139.2" cy="54.161" r="1.319"/>
		<circle fill="none" stroke="#B3B3B3" stroke-width="0.5" stroke-miterlimit="10" cx="139.2" cy="46.96" r="1.32"/>
		<circle fill="none" stroke="#B3B3B3" stroke-width="0.5" stroke-miterlimit="10" cx="139.2" cy="39.761" r="1.32"/>
		<circle fill="none" stroke="#B3B3B3" stroke-width="0.5" stroke-miterlimit="10" cx="139.2" cy="32.56" r="1.32"/>
		<circle fill="none" stroke="#B3B3B3" stroke-width="0.5" stroke-miterlimit="10" cx="139.2" cy="25.36" r="1.32"/>
		<g>
			<rect x="12.783" y="3.575" fill="#006000" width="39.685" height="73.701"/>
			<rect x="12.783" y="77.223" fill="#004800" width="39.685" height="1.026"/>
			<path fill="#CCCCCC" d="M13.433,21.384c0-1.035,0.932-1.889,2.071-1.889h34.242c1.139,0,2.071,0.854,2.071,1.889v52.92
				c0,1.035-0.932,1.887-2.071,1.887H15.504c-1.139,0-2.071-0.853-2.071-1.887V21.384z"/>
			<path fill="#999999" d="M13.434,75.154c0,1.139,0.932,2.069,2.071,2.069h34.242c1.139,0,2.071-0.935,2.071-2.069v-1.035
				c0,1.139-0.932,2.069-2.071,2.069H15.505c-1.139,0-2.071-0.935-2.071-2.069V75.154z"/>
			<rect x="14.117" y="4.41" fill="#E6E6E6" width="8.576" height="4.055"/>
			<rect x="19.893" y="6.037" fill="#B02900" width="2.8" height="0.789"/>
			<rect x="14.117" y="8.465" fill="#CCCCCC" width="8.576" height="0.857"/>
			<g>
				<g>
					<rect x="52.45" y="16.485" fill="#D1D1D1" width="2.204" height="1.37"/>
					<rect x="53.021" y="16.485" fill="#CCCCCC" width="1.062" height="1.37"/>
					<rect x="53.083" y="16.485" fill="#C2C2C2" width="0.936" height="1.37"/>
					<rect x="53.182" y="16.485" fill="#ADADAD" width="0.738" height="1.37"/>
					<rect x="53.372" y="16.485" fill="#B8B8B8" width="0.359" height="1.37"/>
					<rect x="53.552" y="16.485" fill="#DDDDDD" width="0.07" height="1.37"/>
					<rect x="54.434" y="16.485" fill="#D6D6D6" width="0.132" height="1.37"/>
				</g>
				<g>
					<rect x="52.45" y="20.985" fill="#D1D1D1" width="2.204" height="1.37"/>
					<rect x="53.021" y="20.985" fill="#CCCCCC" width="1.062" height="1.37"/>
					<rect x="53.083" y="20.985" fill="#C2C2C2" width="0.936" height="1.37"/>
					<rect x="53.182" y="20.985" fill="#ADADAD" width="0.738" height="1.37"/>
					<rect x="53.372" y="20.985" fill="#B8B8B8" width="0.359" height="1.37"/>
					<rect x="53.552" y="20.985" fill="#DDDDDD" width="0.07" height="1.37"/>
					<rect x="54.434" y="20.985" fill="#D6D6D6" width="0.132" height="1.37"/>
				</g>
				<g>
					<rect x="52.45" y="25.485" fill="#D1D1D1" width="2.204" height="1.37"/>
					<rect x="53.021" y="25.485" fill="#CCCCCC" width="1.062" height="1.37"/>
					<rect x="53.083" y="25.485" fill="#C2C2C2" width="0.936" height="1.37"/>
					<rect x="53.182" y="25.485" fill="#ADADAD" width="0.738" height="1.37"/>
					<rect x="53.372" y="25.485" fill="#B8B8B8" width="0.359" height="1.37"/>
					<rect x="53.552" y="25.485" fill="#DDDDDD" width="0.07" height="1.37"/>
					<rect x="54.434" y="25.485" fill="#D6D6D6" width="0.132" height="1.37"/>
				</g>
				<g>
					<rect x="52.45" y="29.985" fill="#D1D1D1" width="2.204" height="1.37"/>
					<rect x="53.021" y="29.985" fill="#CCCCCC" width="1.062" height="1.37"/>
					<rect x="53.083" y="29.985" fill="#C2C2C2" width="0.936" height="1.37"/>
					<rect x="53.182" y="29.985" fill="#ADADAD" width="0.738" height="1.37"/>
					<rect x="53.372" y="29.985" fill="#B8B8B8" width="0.359" height="1.37"/>
					<rect x="53.552" y="29.985" fill="#DDDDDD" width="0.07" height="1.37"/>
					<rect x="54.434" y="29.985" fill="#D6D6D6" width="0.132" height="1.37"/>
				</g>
				<g>
					<rect x="52.45" y="34.485" fill="#D1D1D1" width="2.204" height="1.37"/>
					<rect x="53.021" y="34.485" fill="#CCCCCC" width="1.062" height="1.37"/>
					<rect x="53.083" y="34.485" fill="#C2C2C2" width="0.936" height="1.37"/>
					<rect x="53.182" y="34.485" fill="#ADADAD" width="0.738" height="1.37"/>
					<rect x="53.372" y="34.485" fill="#B8B8B8" width="0.359" height="1.37"/>
					<rect x="53.552" y="34.485" fill="#DDDDDD" width="0.07" height="1.37"/>
					<rect x="54.434" y="34.485" fill="#D6D6D6" width="0.132" height="1.37"/>
				</g>
				<g>
					<rect x="52.45" y="38.985" fill="#D1D1D1" width="2.204" height="1.37"/>
					<rect x="53.021" y="38.985" fill="#CCCCCC" width="1.062" height="1.37"/>
					<rect x="53.083" y="38.985" fill="#C2C2C2" width="0.936" height="1.37"/>
					<rect x="53.182" y="38.985" fill="#ADADAD" width="0.738" height="1.37"/>
					<rect x="53.372" y="38.985" fill="#B8B8B8" width="0.359" height="1.37"/>
					<rect x="53.552" y="38.985" fill="#DDDDDD" width="0.07" height="1.37"/>
					<rect x="54.434" y="38.985" fill="#D6D6D6" width="0.132" height="1.37"/>
				</g>
				<g>
					<rect x="52.45" y="43.485" fill="#D1D1D1" width="2.204" height="1.37"/>
					<rect x="53.021" y="43.485" fill="#CCCCCC" width="1.062" height="1.37"/>
					<rect x="53.083" y="43.485" fill="#C2C2C2" width="0.936" height="1.37"/>
					<rect x="53.182" y="43.485" fill="#ADADAD" width="0.738" height="1.37"/>
					<rect x="53.372" y="43.485" fill="#B8B8B8" width="0.359" height="1.37"/>
					<rect x="53.552" y="43.485" fill="#DDDDDD" width="0.07" height="1.37"/>
					<rect x="54.434" y="43.485" fill="#D6D6D6" width="0.132" height="1.37"/>
				</g>
				<g>
					<rect x="52.45" y="47.985" fill="#D1D1D1" width="2.204" height="1.37"/>
					<rect x="53.021" y="47.985" fill="#CCCCCC" width="1.062" height="1.37"/>
					<rect x="53.083" y="47.985" fill="#C2C2C2" width="0.936" height="1.37"/>
					<rect x="53.182" y="47.985" fill="#ADADAD" width="0.738" height="1.37"/>
					<rect x="53.372" y="47.985" fill="#B8B8B8" width="0.359" height="1.37"/>
					<rect x="53.552" y="47.985" fill="#DDDDDD" width="0.07" height="1.37"/>
					<rect x="54.434" y="47.985" fill="#D6D6D6" width="0.132" height="1.37"/>
				</g>
				<g>
					<rect x="52.45" y="52.485" fill="#D1D1D1" width="2.204" height="1.37"/>
					<rect x="53.021" y="52.485" fill="#CCCCCC" width="1.062" height="1.37"/>
					<rect x="53.083" y="52.485" fill="#C2C2C2" width="0.936" height="1.37"/>
					<rect x="53.182" y="52.485" fill="#ADADAD" width="0.738" height="1.37"/>
					<rect x="53.372" y="52.485" fill="#B8B8B8" width="0.359" height="1.37"/>
					<rect x="53.552" y="52.485" fill="#DDDDDD" width="0.07" height="1.37"/>
					<rect x="54.434" y="52.485" fill="#D6D6D6" width="0.132" height="1.37"/>
				</g>
				<g>
					<rect x="52.45" y="56.985" fill="#D1D1D1" width="2.204" height="1.37"/>
					<rect x="53.021" y="56.985" fill="#CCCCCC" width="1.062" height="1.37"/>
					<rect x="53.083" y="56.985" fill="#C2C2C2" width="0.936" height="1.37"/>
					<rect x="53.182" y="56.985" fill="#ADADAD" width="0.738" height="1.37"/>
					<rect x="53.372" y="56.985" fill="#B8B8B8" width="0.359" height="1.37"/>
					<rect x="53.552" y="56.985" fill="#DDDDDD" width="0.07" height="1.37"/>
					<rect x="54.434" y="56.985" fill="#D6D6D6" width="0.132" height="1.37"/>
				</g>
				<g>
					<rect x="52.45" y="61.485" fill="#D1D1D1" width="2.204" height="1.37"/>
					<rect x="53.021" y="61.485" fill="#CCCCCC" width="1.062" height="1.37"/>
					<rect x="53.083" y="61.485" fill="#C2C2C2" width="0.936" height="1.37"/>
					<rect x="53.182" y="61.485" fill="#ADADAD" width="0.738" height="1.37"/>
					<rect x="53.372" y="61.485" fill="#B8B8B8" width="0.359" height="1.37"/>
					<rect x="53.552" y="61.485" fill="#DDDDDD" width="0.07" height="1.37"/>
					<rect x="54.434" y="61.485" fill="#D6D6D6" width="0.132" height="1.37"/>
				</g>
				<g>
					<rect x="52.45" y="65.985" fill="#D1D1D1" width="2.204" height="1.371"/>
					<rect x="53.021" y="65.985" fill="#CCCCCC" width="1.062" height="1.371"/>
					<rect x="53.083" y="65.985" fill="#C2C2C2" width="0.936" height="1.371"/>
					<rect x="53.182" y="65.985" fill="#ADADAD" width="0.738" height="1.371"/>
					<rect x="53.372" y="65.985" fill="#B8B8B8" width="0.359" height="1.371"/>
					<rect x="53.552" y="65.985" fill="#DDDDDD" width="0.07" height="1.371"/>
					<rect x="54.434" y="65.985" fill="#D6D6D6" width="0.132" height="1.371"/>
				</g>
				<g>
					<rect x="52.45" y="70.486" fill="#D1D1D1" width="2.204" height="1.37"/>
					<rect x="53.021" y="70.486" fill="#CCCCCC" width="1.062" height="1.37"/>
					<rect x="53.083" y="70.486" fill="#C2C2C2" width="0.936" height="1.37"/>
					<rect x="53.182" y="70.486" fill="#ADADAD" width="0.738" height="1.37"/>
					<rect x="53.372" y="70.486" fill="#B8B8B8" width="0.359" height="1.37"/>
					<rect x="53.552" y="70.486" fill="#DDDDDD" width="0.07" height="1.37"/>
					<rect x="54.434" y="70.486" fill="#D6D6D6" width="0.132" height="1.37"/>
				</g>
				<g>
					<rect x="52.45" y="74.986" fill="#D1D1D1" width="2.204" height="1.37"/>
					<rect x="53.021" y="74.986" fill="#CCCCCC" width="1.062" height="1.37"/>
					<rect x="53.083" y="74.986" fill="#C2C2C2" width="0.936" height="1.37"/>
					<rect x="53.182" y="74.986" fill="#ADADAD" width="0.738" height="1.37"/>
					<rect x="53.372" y="74.986" fill="#B8B8B8" width="0.359" height="1.37"/>
					<rect x="53.552" y="74.986" fill="#DDDDDD" width="0.07" height="1.37"/>
					<rect x="54.434" y="74.986" fill="#D6D6D6" width="0.132" height="1.37"/>
				</g>
			</g>
			<g>
				<g>
					<rect x="10.579" y="16.485" fill="#D1D1D1" width="2.204" height="1.37"/>
					<rect x="11.15" y="16.485" fill="#CCCCCC" width="1.062" height="1.37"/>
					<rect x="11.213" y="16.485" fill="#C2C2C2" width="0.936" height="1.37"/>
					<rect x="11.312" y="16.485" fill="#ADADAD" width="0.738" height="1.37"/>
					<rect x="11.501" y="16.485" fill="#B8B8B8" width="0.359" height="1.37"/>
					<rect x="11.681" y="16.485" fill="#DDDDDD" width="0.07" height="1.37"/>
					<rect x="12.564" y="16.485" fill="#D6D6D6" width="0.132" height="1.37"/>
				</g>
				<g>
					<rect x="10.579" y="20.985" fill="#D1D1D1" width="2.204" height="1.37"/>
					<rect x="11.15" y="20.985" fill="#CCCCCC" width="1.062" height="1.37"/>
					<rect x="11.213" y="20.985" fill="#C2C2C2" width="0.936" height="1.37"/>
					<rect x="11.312" y="20.985" fill="#ADADAD" width="0.738" height="1.37"/>
					<rect x="11.501" y="20.985" fill="#B8B8B8" width="0.359" height="1.37"/>
					<rect x="11.681" y="20.985" fill="#DDDDDD" width="0.07" height="1.37"/>
					<rect x="12.564" y="20.985" fill="#D6D6D6" width="0.132" height="1.37"/>
				</g>
				<g>
					<rect x="10.579" y="25.485" fill="#D1D1D1" width="2.204" height="1.37"/>
					<rect x="11.15" y="25.485" fill="#CCCCCC" width="1.062" height="1.37"/>
					<rect x="11.213" y="25.485" fill="#C2C2C2" width="0.936" height="1.37"/>
					<rect x="11.312" y="25.485" fill="#ADADAD" width="0.738" height="1.37"/>
					<rect x="11.501" y="25.485" fill="#B8B8B8" width="0.359" height="1.37"/>
					<rect x="11.681" y="25.485" fill="#DDDDDD" width="0.07" height="1.37"/>
					<rect x="12.564" y="25.485" fill="#D6D6D6" width="0.132" height="1.37"/>
				</g>
				<g>
					<rect x="10.579" y="29.985" fill="#D1D1D1" width="2.204" height="1.37"/>
					<rect x="11.15" y="29.985" fill="#CCCCCC" width="1.062" height="1.37"/>
					<rect x="11.213" y="29.985" fill="#C2C2C2" width="0.936" height="1.37"/>
					<rect x="11.312" y="29.985" fill="#ADADAD" width="0.738" height="1.37"/>
					<rect x="11.501" y="29.985" fill="#B8B8B8" width="0.359" height="1.37"/>
					<rect x="11.681" y="29.985" fill="#DDDDDD" width="0.07" height="1.37"/>
					<rect x="12.564" y="29.985" fill="#D6D6D6" width="0.132" height="1.37"/>
				</g>
				<g>
					<rect x="10.579" y="34.485" fill="#D1D1D1" width="2.204" height="1.37"/>
					<rect x="11.15" y="34.485" fill="#CCCCCC" width="1.062" height="1.37"/>
					<rect x="11.213" y="34.485" fill="#C2C2C2" width="0.936" height="1.37"/>
					<rect x="11.312" y="34.485" fill="#ADADAD" width="0.738" height="1.37"/>
					<rect x="11.501" y="34.485" fill="#B8B8B8" width="0.359" height="1.37"/>
					<rect x="11.681" y="34.485" fill="#DDDDDD" width="0.07" height="1.37"/>
					<rect x="12.564" y="34.485" fill="#D6D6D6" width="0.132" height="1.37"/>
				</g>
				<g>
					<rect x="10.579" y="38.985" fill="#D1D1D1" width="2.204" height="1.37"/>
					<rect x="11.15" y="38.985" fill="#CCCCCC" width="1.062" height="1.37"/>
					<rect x="11.213" y="38.985" fill="#C2C2C2" width="0.936" height="1.37"/>
					<rect x="11.312" y="38.985" fill="#ADADAD" width="0.738" height="1.37"/>
					<rect x="11.501" y="38.985" fill="#B8B8B8" width="0.359" height="1.37"/>
					<rect x="11.681" y="38.985" fill="#DDDDDD" width="0.07" height="1.37"/>
					<rect x="12.564" y="38.985" fill="#D6D6D6" width="0.132" height="1.37"/>
				</g>
				<g>
					<rect x="10.579" y="43.485" fill="#D1D1D1" width="2.204" height="1.37"/>
					<rect x="11.15" y="43.485" fill="#CCCCCC" width="1.062" height="1.37"/>
					<rect x="11.213" y="43.485" fill="#C2C2C2" width="0.936" height="1.37"/>
					<rect x="11.312" y="43.485" fill="#ADADAD" width="0.738" height="1.37"/>
					<rect x="11.501" y="43.485" fill="#B8B8B8" width="0.359" height="1.37"/>
					<rect x="11.681" y="43.485" fill="#DDDDDD" width="0.07" height="1.37"/>
					<rect x="12.564" y="43.485" fill="#D6D6D6" width="0.132" height="1.37"/>
				</g>
				<g>
					<rect x="10.579" y="47.985" fill="#D1D1D1" width="2.204" height="1.37"/>
					<rect x="11.15" y="47.985" fill="#CCCCCC" width="1.062" height="1.37"/>
					<rect x="11.213" y="47.985" fill="#C2C2C2" width="0.936" height="1.37"/>
					<rect x="11.312" y="47.985" fill="#ADADAD" width="0.738" height="1.37"/>
					<rect x="11.501" y="47.985" fill="#B8B8B8" width="0.359" height="1.37"/>
					<rect x="11.681" y="47.985" fill="#DDDDDD" width="0.07" height="1.37"/>
					<rect x="12.564" y="47.985" fill="#D6D6D6" width="0.132" height="1.37"/>
				</g>
				<g>
					<rect x="10.579" y="52.485" fill="#D1D1D1" width="2.204" height="1.37"/>
					<rect x="11.15" y="52.485" fill="#CCCCCC" width="1.062" height="1.37"/>
					<rect x="11.213" y="52.485" fill="#C2C2C2" width="0.936" height="1.37"/>
					<rect x="11.312" y="52.485" fill="#ADADAD" width="0.738" height="1.37"/>
					<rect x="11.501" y="52.485" fill="#B8B8B8" width="0.359" height="1.37"/>
					<rect x="11.681" y="52.485" fill="#DDDDDD" width="0.07" height="1.37"/>
					<rect x="12.564" y="52.485" fill="#D6D6D6" width="0.132" height="1.37"/>
				</g>
				<g>
					<rect x="10.579" y="56.985" fill="#D1D1D1" width="2.204" height="1.37"/>
					<rect x="11.15" y="56.985" fill="#CCCCCC" width="1.062" height="1.37"/>
					<rect x="11.213" y="56.985" fill="#C2C2C2" width="0.936" height="1.37"/>
					<rect x="11.312" y="56.985" fill="#ADADAD" width="0.738" height="1.37"/>
					<rect x="11.501" y="56.985" fill="#B8B8B8" width="0.359" height="1.37"/>
					<rect x="11.681" y="56.985" fill="#DDDDDD" width="0.07" height="1.37"/>
					<rect x="12.564" y="56.985" fill="#D6D6D6" width="0.132" height="1.37"/>
				</g>
				<g>
					<rect x="10.579" y="61.485" fill="#D1D1D1" width="2.204" height="1.37"/>
					<rect x="11.15" y="61.485" fill="#CCCCCC" width="1.062" height="1.37"/>
					<rect x="11.213" y="61.485" fill="#C2C2C2" width="0.936" height="1.37"/>
					<rect x="11.312" y="61.485" fill="#ADADAD" width="0.738" height="1.37"/>
					<rect x="11.501" y="61.485" fill="#B8B8B8" width="0.359" height="1.37"/>
					<rect x="11.681" y="61.485" fill="#DDDDDD" width="0.07" height="1.37"/>
					<rect x="12.564" y="61.485" fill="#D6D6D6" width="0.132" height="1.37"/>
				</g>
				<g>
					<rect x="10.579" y="65.985" fill="#D1D1D1" width="2.204" height="1.371"/>
					<rect x="11.15" y="65.985" fill="#CCCCCC" width="1.062" height="1.371"/>
					<rect x="11.213" y="65.985" fill="#C2C2C2" width="0.936" height="1.371"/>
					<rect x="11.312" y="65.985" fill="#ADADAD" width="0.738" height="1.371"/>
					<rect x="11.501" y="65.985" fill="#B8B8B8" width="0.359" height="1.371"/>
					<rect x="11.681" y="65.985" fill="#DDDDDD" width="0.07" height="1.371"/>
					<rect x="12.564" y="65.985" fill="#D6D6D6" width="0.132" height="1.371"/>
				</g>
				<g>
					<rect x="10.579" y="70.486" fill="#D1D1D1" width="2.204" height="1.37"/>
					<rect x="11.15" y="70.486" fill="#CCCCCC" width="1.062" height="1.37"/>
					<rect x="11.213" y="70.486" fill="#C2C2C2" width="0.936" height="1.37"/>
					<rect x="11.312" y="70.486" fill="#ADADAD" width="0.738" height="1.37"/>
					<rect x="11.501" y="70.486" fill="#B8B8B8" width="0.359" height="1.37"/>
					<rect x="11.681" y="70.486" fill="#DDDDDD" width="0.07" height="1.37"/>
					<rect x="12.564" y="70.486" fill="#D6D6D6" width="0.132" height="1.37"/>
				</g>
				<g>
					<rect x="10.579" y="74.986" fill="#D1D1D1" width="2.204" height="1.37"/>
					<rect x="11.15" y="74.986" fill="#CCCCCC" width="1.062" height="1.37"/>
					<rect x="11.213" y="74.986" fill="#C2C2C2" width="0.936" height="1.37"/>
					<rect x="11.312" y="74.986" fill="#ADADAD" width="0.738" height="1.37"/>
					<rect x="11.501" y="74.986" fill="#B8B8B8" width="0.359" height="1.37"/>
					<rect x="11.681" y="74.986" fill="#DDDDDD" width="0.07" height="1.37"/>
					<rect x="12.564" y="74.986" fill="#D6D6D6" width="0.132" height="1.37"/>
				</g>
			</g>
			<g>
				<polygon fill="none" stroke="#B3B3B3" stroke-miterlimit="10" points="40.674,74.005 40.674,21.219 48.851,21.219 
					48.851,70.692 46.471,74.005 				"/>
				<rect x="40.674" y="21.219" fill="#B3B3B3" width="8.177" height="26.392"/>
				<g>
					<g>
						
							<text transform="matrix(-4.371139e-008 1 -1 -4.371139e-008 43.311 67.6047)" fill="#B3B3B3" font-family="'OCRA'" font-size="4.1399">a</text>
					</g>
					<g>
						
							<text transform="matrix(-4.371139e-008 1 -1 -4.371139e-008 43.311 61.4368)" fill="#B3B3B3" font-family="'OCRA'" font-size="4.1399">g</text>
					</g>
					<g>
						
							<text transform="matrix(-4.371139e-008 1 -1 -4.371139e-008 43.311 55.5798)" fill="#B3B3B3" font-family="'OCRA'" font-size="4.1399">i</text>
					</g>
					<g>
						
							<text transform="matrix(-4.371139e-008 1 -1 -4.371139e-008 43.311 50.136)" fill="#B3B3B3" font-family="'OCRA'" font-size="4.1399">g</text>
					</g>
					<g>
						
							<text transform="matrix(-4.371139e-008 1 -1 -4.371139e-008 43.311 42.4675)" fill="#F2F2F2" font-family="'OCRA'" font-size="4.1399">e</text>
					</g>
					<g>
						
							<text transform="matrix(-4.371139e-008 1 -1 -4.371139e-008 43.311 36.2483)" fill="#F2F2F2" font-family="'OCRA'" font-size="4.1399">u</text>
					</g>
					<g>
						
							<text transform="matrix(-4.371139e-008 1 -1 -4.371139e-008 43.311 30.0281)" fill="#F2F2F2" font-family="'OCRA'" font-size="4.1399">l</text>
					</g>
					<g>
						
							<text transform="matrix(-4.371139e-008 1 -1 -4.371139e-008 43.311 23.8088)" fill="#F2F2F2" font-family="'OCRA'" font-size="4.1399">b</text>
					</g>
					<g>
						
							<text transform="matrix(-4.371139e-008 1 -1 -4.371139e-008 32.9634 44.1707)" fill="#B3B3B3" font-family="'OCRA'" font-size="4.1399">MODEL-WT12</text>
					</g>
				</g>
			</g>
		</g>
		<text transform="matrix(1 0 0 1 49.4336 107.2449)" fill="#FFFFFF" font-family="'OCRA'" font-size="4.8131">www.dquid.io</text>
		<text transform="matrix(1 0 0 1 9.7832 127.6726)" fill="#FFFFFF" font-family="'OCRA'" font-size="4.8131">NFC</text>
		<text transform="matrix(1 0 0 1 108.4814 134.8269)" fill="#FFFFFF" font-family="'OCRA'" font-size="3">10</text>
		<text transform="matrix(1 0 0 1 108.4814 142.0457)" fill="#FFFFFF" font-family="'OCRA'" font-size="3">20</text>
		<text transform="matrix(1 0 0 1 30.7939 134.8269)" fill="#FFFFFF" font-family="'OCRA'" font-size="3">1</text>
		<text transform="matrix(1 0 0 1 28.625 142.0457)" fill="#FFFFFF" font-family="'OCRA'" font-size="3">11</text>
		<text transform="matrix(1 0 0 1 1.1406 16.4856)" fill="#FFFFFF" font-family="'OCRA'" font-size="3">10</text>
		<text transform="matrix(1 0 0 1 80.3906 91.6013)" fill="#999998" font-family="'OCRA'" font-size="4">MO+</text>
		<text transform="matrix(1 0 0 1 135.8301 16.4856)" fill="#FFFFFF" font-family="'OCRA'" font-size="3">10</text>
		<text transform="matrix(1 0 0 1 2.1426 101.7351)" fill="#FFFFFF" font-family="'OCRA'" font-size="3">1</text>
		<text transform="matrix(1 0 0 1 137.6387 101.8191)" fill="#FFFFFF" font-family="'OCRA'" font-size="3">1</text>
	</g>
	<polyline fill="none" stroke="#FFFFFF" stroke-width="0.5" stroke-miterlimit="10" points="0,19.232 7.049,19.232 7.049,95.834 
		0,95.834 	"/>
	<polyline fill="none" stroke="#FFFFFF" stroke-width="0.5" stroke-miterlimit="10" points="141.66,95.834 134.611,95.834 
		134.611,19.232 141.66,19.232 	"/>
</g>
<path fill="#006000" d="M26.641,97.148c0-2.188-1.773-3.959-3.961-3.959c-2.187,0-3.959,1.771-3.959,3.959V95.56
	c0-2.188,1.772-3.959,3.959-3.959c2.188,0,3.961,1.771,3.961,3.959V97.148z"/>
<path fill="#006000" d="M74.76,32.048c0-2.187-1.771-3.959-3.96-3.959c-2.187,0-3.96,1.772-3.96,3.959V30.46
	c0-2.187,1.773-3.959,3.96-3.959c2.188,0,3.96,1.772,3.96,3.959V32.048z"/>
<path fill="#006000" d="M122.941,97.148c0-2.188-1.773-3.959-3.961-3.959c-2.188,0-3.959,1.771-3.959,3.959V95.56
	c0-2.188,1.771-3.959,3.959-3.959c2.188,0,3.961,1.771,3.961,3.959V97.148z"/>
<polygon fill="none" points="255.448,87.358 256.624,85.754 255.188,83.354 254.013,84.959 "/>
</svg>
