<?xml version='1.0' encoding='UTF-8' standalone='no'?>
<svg xmlns="http://www.w3.org/2000/svg" viewBox="0 0 400 330" y="0in" width="0.4in"  height="0.33in" baseProfile="tiny" version="1.2" x="0in">
    <g id="breadboard" gorn="0.1" >
        <rect y="30" width="400" id="middle" gorn="0.1.0"  height="270" x="0" fill="#303030"/>
        <rect y="30" width="400" id="top" gorn="0.1.1"  height="24.6" x="0" fill="#3D3D3D"/>
        <rect y="275.4" width="400" id="bottom" gorn="0.1.2"  height="24.6" x="0" fill="#000000"/>
        <polygon points="400,30,392.5,54.6,392.5,275.4,400,300" id="right" gorn="0.1.3"  fill="#141414"/>
        <polygon points="0,30,7.5,54.6,7.5,275.4,0,300" id="left" gorn="0.1.4"  fill="#1F1F1F"/>
        <polygon points="50,115,7.5,114.6,5.6,135.8,5.6,165,50,165" id="left-upper-rect" gorn="0.1.5"  fill="#1C1C1C"/>
        <polygon points="7.5,215.5,50,215.5,50,165,5.6,165,5.6,194.2" id="left-lower-rect" gorn="0.1.6"  fill="#383838"/>
        <path id="slot" gorn="0.1.7"  d="M5.6,135.8l0,58.3c14.7,-1.7,26.2,-14,26.2,-29.2C31.8,149.7,20.4,137.5,5.6,135.8z" fill="#262626"/>
        <path id="cover" gorn="0.1.8"  d="M7.5,54.6L7.5,114.5c23.8,4.5,41.9,25.3,41.9,50.4c0,25.1,-18,46,-41.9,50.5L7.5,215.5l50,0L57.5,54.6L7.5,54.6z" fill="#303030"/>
        <circle cy="234.7"  cx="65" fill="#212121" r="20.6"/>
        <text y="165" id="label" gorn="0.1.10" font-family="OCRA"  stroke="none" x="63" text-anchor="start" fill="#e6e6e6" font-size="70">DS1809</text>
        <rect y="286.6" width="30" id="connector0pin" gorn="0.1.11"  height="43.4" x="35" fill="#8C8C8C"/>
        <rect y="300" width="30" id="connector0terminal" gorn="0.1.12"  height="30" x="35" fill="#8C8C8C"/>
        <polygon points="35,286.6,35,306.6,65,306.6,85,297.4,85,286.6"  fill="#8C8C8C"/>
        <rect width="30" id="connector7pin" gorn="0.1.14"  height="43.4" x="35" fill="#8C8C8C"/>
        <rect width="30" id="connector7terminal" gorn="0.1.15"  height="30" x="35" fill="#8C8C8C"/>
        <polygon points="85,43.4,85,32.6,65,23.4,35,23.4,35,43.4"  fill="#8C8C8C"/>
        <rect y="286.6" width="30" id="connector3pin" gorn="0.1.17"  height="43.4" x="335" fill="#8C8C8C"/>
        <rect y="300" width="30" id="connector3terminal" gorn="0.1.18"  height="30" x="335" fill="#8C8C8C"/>
        <polygon points="315,286.6,315,297.4,335,306.6,365,306.6,365,286.6"  fill="#8C8C8C"/>
        <rect y="0" width="30" id="connector4pin" gorn="0.1.20"  height="43.4" x="335" fill="#8C8C8C"/>
        <rect y="0" width="30" id="connector4terminal" gorn="0.1.21"  height="30" x="335" fill="#8C8C8C"/>
        <polygon points="365,43.4,365,23.4,335,23.4,315,32.6,315,43.4"  fill="#8C8C8C"/>
        <rect y="0" width="30" id="connector6pin" gorn="0.1.23"  height="43.4" x="135" fill="#8C8C8C"/>
        <rect width="30" id="connector6terminal" gorn="0.1.24"  height="30" x="135" fill="#8C8C8C"/>
        <polygon points="185,43.4,185,32.6,165,23.4,135,23.4,115,32.6,115,43.4"  fill="#8C8C8C"/>
        <rect y="0" width="30" id="connector5pin" gorn="0.1.26"  height="43.4" x="235" fill="#8C8C8C"/>
        <rect width="30" id="connector5terminal" gorn="0.1.27"  height="30" x="235" fill="#8C8C8C"/>
        <polygon points="285,43.4,285,32.6,265,23.4,235,23.4,215,32.6,215,43.4"  fill="#8C8C8C"/>
        <rect y="286.6" width="30" id="connector1pin" gorn="0.1.29"  height="43.4" x="135" fill="#8C8C8C"/>
        <rect y="300" width="30" id="connector1terminal" gorn="0.1.30"  height="30" x="135" fill="#8C8C8C"/>
        <polygon points="115,286.6,115,297.4,135,306.6,165,306.6,185,297.4,185,286.6"  fill="#8C8C8C"/>
        <rect y="286.6" width="30" id="connector2pin" gorn="0.1.32"  height="43.4" x="235" fill="#8C8C8C"/>
        <rect y="300" width="30" id="connector2terminal" gorn="0.1.33"  height="30" x="235" fill="#8C8C8C"/>
        <polygon points="215,286.6,215,297.4,235,306.6,265,306.6,285,297.4,285,286.6"  fill="#8C8C8C"/>
    </g>
</svg>
