<?xml version="1.0" encoding="UTF-8"?>
<svg width="2.9496in" height="2.1in" enable-background="new 0 0 212.372 151.2" version="1.1" viewBox="0 0 212.37 151.2" xmlns="http://www.w3.org/2000/svg" xmlns:xml="http://www.w3.org/XML/1998/namespace">
 <g transform="translate(-9.572 .22119)">
  <g id="breadboardbreadboard">
   <g id="icon">
    <path d="m20.915-0.18298c-1.565 0-2.8345 1.2695-2.8345 2.8345v145.53c0 1.563 1.2695 2.8348 2.8345 2.8345h181.53c1.563 0 2.8345-1.2724 2.8345-2.8374v-4.3594l7.1982-7.2012v-92.879l-7.1982-7.1997v-32.401l-4.3208-4.3198zm40.373 2.6587c2.505 3e-3 4.5318 2.036 4.5278 4.541v0.016113c-4e-3 2.505-2.0385 4.5318-4.5425 4.5278-2.505-4e-3 -4.5318-2.0399-4.5278-4.5439v-0.013183c3e-3 -2.505 2.0375-4.5308 4.5425-4.5278zm10.078 3.3311c0.665 2e-3 1.2017 0.54396 1.1997 1.21v0.00733c-2e-3 0.666-0.5425 1.2032-1.2085 1.2012-0.66628-9.75e-4 -1.2032-0.5435-1.2012-1.2085v-0.00879c2e-3 -0.665 0.54396-1.2032 1.21-1.2012zm7.1997 0c0.665 2e-3 1.2032 0.54396 1.2012 1.21v0.00733c-2e-3 0.666-0.54397 1.2032-1.21 1.2012-0.665-9.75e-4 -1.2032-0.5435-1.2012-1.2085 0-3e-3 -7.5e-4 -0.00479 1e-3 -0.00879 2e-3 -0.665 0.54349-1.2032 1.2085-1.2012zm7.1982 0c0.666 2e-3 1.2032 0.54396 1.2012 1.21v0.00733c-7.5e-4 0.666-0.54204 1.2032-1.207 1.2012-0.666-9.75e-4 -1.2032-0.5435-1.2012-1.2085v-0.00879c7.5e-4 -0.665 0.54203-1.2032 1.207-1.2012zm7.2012 0c0.665 2e-3 1.2017 0.54396 1.1997 1.21v0.00733c-2e-3 0.666-0.54249 1.2032-1.2085 1.2012-0.665-9.75e-4 -1.2032-0.5435-1.2012-1.2085v-0.00879c2e-3 -0.665 0.54396-1.2032 1.21-1.2012zm7.1997 0c0.66601 2e-3 1.2032 0.54396 1.2012 1.21v0.00733c-7.5e-4 0.666-0.54249 1.2032-1.2085 1.2012-0.666-9.75e-4 -1.2032-0.5435-1.2012-1.2085v-0.00879c7.5e-4 -0.665 0.54349-1.2032 1.2085-1.2012zm7.2012 0c0.664 2e-3 1.2032 0.54396 1.2012 1.21v0.00733c-4e-3 0.666-0.5445 1.2032-1.2085 1.2012-0.666-9.75e-4 -1.2046-0.5435-1.2026-1.2085 0-3e-3 -7.5e-4 -0.00479 3e-3 -0.00879 7.5e-4 -0.665 0.54102-1.2032 1.207-1.2012zm7.1997 0c0.666 2e-3 1.2032 0.54396 1.2012 1.21v0.00733c-2e-3 0.666-0.54396 1.2032-1.21 1.2012-0.666-9.75e-4 -1.2032-0.5435-1.2012-1.2085v-0.00879c2e-3 -0.665 0.54596-1.2032 1.21-1.2012zm7.2012 0c0.664 2e-3 1.2002 0.54396 1.1982 1.21v0.00733c-2e-3 0.666-0.5425 1.2032-1.2085 1.2012-0.66399-9.75e-4 -1.2027-0.5435-1.1997-1.2085v-0.00879c2e-3 -0.665 0.54396-1.2032 1.21-1.2012zm7.1982 0.00146c0.665 2e-3 1.2032 0.5425 1.2012 1.2085v0.00586c-2e-3 0.665-0.5435 1.2022-1.2085 1.2012-0.66501-9.75e-4 -1.2032-0.54203-1.2012-1.207v-0.00733c2e-3 -0.665 0.5425-1.2032 1.2085-1.2012zm7.1982 0.00146c0.665 2e-3 1.2046 0.54103 1.2026 1.207v0.00586c-2e-3 0.665-0.54303 1.2022-1.207 1.2012-0.666-9.75e-4 -1.2036-0.54203-1.2026-1.207v-0.00586c7.5e-4 -0.665 0.54203-1.2032 1.207-1.2012zm11.521 0c0.666 2e-3 1.2032 0.54103 1.2012 1.207v0.00586c-7.5e-4 0.665-0.54103 1.2022-1.207 1.2012-0.665-9.75e-4 -1.2032-0.54203-1.2012-1.207v-0.00586c2e-3 -0.665 0.54103-1.2022 1.207-1.2012zm7.1997 0c0.666 2e-3 1.2036 0.54103 1.2026 1.207v0.00586c-2e-3 0.665-0.54349 1.2022-1.2085 1.2012-0.665-9.75e-4 -1.2032-0.54203-1.2012-1.207v-0.00586c2e-3 -0.665 0.54203-1.2022 1.207-1.2012zm7.1997 0c0.6641 2e-3 1.2032 0.54103 1.2012 1.207v0.00586c-2e-3 0.665-0.54297 1.2022-1.207 1.2012-0.666-9.75e-4 -1.2022-0.54203-1.2012-1.207v-0.00586c7.5e-4 -0.665 0.54103-1.2022 1.207-1.2012zm7.1997 0c0.666 2e-3 1.2032 0.54103 1.2012 1.207v0.00586c0 0.665-0.54103 1.2022-1.207 1.2012-0.664-9.75e-4 -1.2032-0.54203-1.2012-1.207v-0.00586c0-0.665 0.54104-1.2032 1.207-1.2012zm7.2026 0c0.664 2e-3 1.2017 0.54103 1.1997 1.207v0.00586c-2e-3 0.665-0.54103 1.2022-1.207 1.2012-0.666-9.75e-4 -1.2026-0.54203-1.2026-1.207v-0.00586c2e-3 -0.665 0.54396-1.2032 1.21-1.2012zm7.1982 0c0.666 2e-3 1.2032 0.54103 1.2012 1.207v0.00586c-9.7e-4 0.665-0.54103 1.2022-1.207 1.2012-0.665-9.75e-4 -1.2032-0.54203-1.2012-1.207v-0.00586c2e-3 -0.665 0.54103-1.2022 1.207-1.2012zm7.1997 0c0.666 2e-3 1.2036 0.54103 1.2026 1.207v0.00586c-2e-3 0.665-0.54349 1.2022-1.2085 1.2012-0.665-9.75e-4 -1.2032-0.54203-1.2012-1.207v-0.00586c2e-3 -0.665 0.54203-1.2022 1.207-1.2012zm7.1997 0c0.664 2e-3 1.2032 0.54103 1.2012 1.207v0.00586c-2e-3 0.665-0.54302 1.2022-1.207 1.2012-0.666-9.75e-4 -1.2022-0.54203-1.2012-1.207v-0.00586c9.8e-4 -0.665 0.54104-1.2022 1.207-1.2012zm7.2041 39.863c2.505 4e-3 4.5318 2.0389 4.5278 4.5439v0.01611c-6e-3 2.505-2.0379 4.5318-4.544 4.5278-2.504-4e-3 -4.5318-2.0389-4.5278-4.5439v-0.01611c5e-3 -2.505 2.039-4.5318 4.544-4.5278zm0.35742 44.597c0.742 7.5e-4 1.3447 0.60365 1.3447 1.3477v0.0045c-2e-3 0.743-0.60659 1.3457-1.3506 1.3447-0.742-7.5e-4 -1.3457-0.60512-1.3447-1.3491v-3e-3c9.8e-4 -0.743 0.60659-1.3457 1.3506-1.3447zm0 7.1982c0.742 0.0023 1.3447 0.60512 1.3447 1.3491v0.0045c-2e-3 0.744-0.60659 1.3457-1.3506 1.3447-0.742-2e-3 -1.3457-0.60512-1.3447-1.3491v-0.0045c9.8e-4 -0.744 0.60659-1.3457 1.3506-1.3447zm0 7.2012c0.742 0 1.3447 0.60566 1.3447 1.3476v5e-3c-2e-3 0.74401-0.60659 1.3462-1.3506 1.3462-0.742-2e-3 -1.3457-0.60659-1.3447-1.3506v-5e-3c9.8e-4 -0.744 0.60659-1.3453 1.3506-1.3433zm-0.35742 20.205c2.505 4e-3 4.5318 2.039 4.5278 4.5439v0.0161c-6e-3 2.506-2.0379 4.5304-4.544 4.5264-2.504-4e-3 -4.5318-2.0375-4.5278-4.5425v-0.0161c5e-3 -2.506 2.039-4.5338 4.544-4.5278zm-147.6 14.401c2.505 4e-3 4.5333 2.0365 4.5293 4.5425v0.0132c-3e-3 2.505-2.0375 4.5318-4.5425 4.5278s-4.5323-2.037-4.5293-4.541v-0.0175c4e-3 -2.504 2.0375-4.5289 4.5425-4.5249zm39.599 3.334c0.665 2e-3 1.2017 0.54249 1.1997 1.2085v7e-3c-7.5e-4 0.66399-0.54103 1.2037-1.207 1.1997-0.66601-2e-3 -1.2032-0.54303-1.2012-1.207v-7e-3c2e-3 -0.666 0.5425-1.2032 1.2085-1.2012zm7.1997 0c0.665 2e-3 1.2017 0.54249 1.1997 1.2085v7e-3c-7.5e-4 0.66399-0.54249 1.2037-1.2085 1.1997-0.666-2e-3 -1.2032-0.54303-1.2012-1.207v-7e-3c2e-3 -0.666 0.54396-1.2032 1.21-1.2012zm7.1997 0c0.664 2e-3 1.2027 0.54249 1.1997 1.2085v7e-3c-2e-3 0.66399-0.54349 1.2037-1.2085 1.1997-0.665-2e-3 -1.2017-0.54303-1.1997-1.207v-7e-3c2e-3 -0.666 0.54249-1.2032 1.2085-1.2012zm7.1997 0c0.66501 2e-3 1.2032 0.54249 1.2012 1.2085v7e-3c-3e-3 0.66399-0.54495 1.2037-1.21 1.1997-0.666-2e-3 -1.2017-0.54303-1.1997-1.207v-7e-3c2e-3 -0.666 0.54249-1.2032 1.2085-1.2012zm7.1982 0c0.66604 2e-3 1.2032 0.54249 1.2012 1.2085v7e-3c-2e-3 0.66399-0.54249 1.2037-1.2085 1.1997-0.666-2e-3 -1.2027-0.54303-1.1997-1.207v-7e-3c2e-3 -0.666 0.54304-1.2032 1.207-1.2012zm7.1997 0c0.666 2e-3 1.2032 0.54249 1.2012 1.2085v5e-3c0 0.66601-0.54103 1.2046-1.207 1.2026-0.664-2e-3 -1.2032-0.54303-1.2012-1.207v-6e-3c0-0.666 0.54102-1.2026 1.207-1.2026zm7.2026 0c0.66399 2e-3 1.2017 0.54249 1.1997 1.2085v5e-3c-2e-3 0.66601-0.54103 1.2046-1.207 1.2026-0.666-2e-3 -1.2026-0.54303-1.2026-1.207v-6e-3c2e-3 -0.666 0.54396-1.2026 1.21-1.2026zm7.1982 0c0.666 2e-3 1.2032 0.54249 1.2012 1.2085v5e-3c-7.5e-4 0.66601-0.54103 1.2046-1.207 1.2026-0.665-2e-3 -1.2032-0.54303-1.2012-1.207v-6e-3c2e-3 -0.666 0.54103-1.2026 1.207-1.2026zm14.399 0c0.66404 2e-3 1.2032 0.54249 1.2012 1.2085v5e-3c-2e-3 0.66601-0.54301 1.2046-1.207 1.2026-0.666-2e-3 -1.2022-0.54303-1.2012-1.207v-6e-3c7.5e-4 -0.666 0.54103-1.2026 1.207-1.2026zm7.1997 0c0.666 2e-3 1.2032 0.54249 1.2012 1.2085v5e-3c0 0.66601-0.54103 1.2046-1.207 1.2026-0.664-2e-3 -1.2032-0.54303-1.2012-1.207v-6e-3c0-0.666 0.54104-1.2026 1.207-1.2026zm7.2026 0c0.664 2e-3 1.2017 0.54249 1.1997 1.2085v5e-3c-2e-3 0.66601-0.54103 1.2046-1.207 1.2026-0.666-2e-3 -1.2026-0.54303-1.2026-1.207v-6e-3c2e-3 -0.666 0.54396-1.2026 1.21-1.2026zm7.1982 0c0.666 2e-3 1.2032 0.54249 1.2012 1.2085v5e-3c-9.7e-4 0.66601-0.54103 1.2046-1.207 1.2026-0.665-2e-3 -1.2032-0.54303-1.2012-1.207v-6e-3c2e-3 -0.666 0.54103-1.2026 1.207-1.2026zm7.1997 0c0.666 2e-3 1.2036 0.54249 1.2026 1.2085v5e-3c-2e-3 0.66601-0.54349 1.2046-1.2085 1.2026-0.665-2e-3 -1.2032-0.54303-1.2012-1.207v-6e-3c2e-3 -0.666 0.54203-1.2026 1.207-1.2026zm7.1997 0c0.664 2e-3 1.2032 0.54249 1.2012 1.2085v5e-3c-2e-3 0.66601-0.54302 1.2046-1.207 1.2026-0.666-2e-3 -1.2022-0.54303-1.2012-1.207v-6e-3c9.8e-4 -0.666 0.54104-1.2026 1.207-1.2026z" fill="#008000"/>
    <g transform="translate(102.57 12.24)">
     <g transform="rotate(-90)">
      <g transform="translate(-5.1472 -.9391)">
       <g transform="translate(-3.0518e-5 -3.0518e-5)">
        <text fill="#ffffff" font-family="OCRA" font-size="3.75px">13</text>
       </g>
      </g>
     </g>
    </g>
    <g transform="translate(109.77 12.24)">
     <g transform="rotate(-90)">
      <g transform="translate(-5.1472 -.9384)">
       <g transform="translate(-3.0518e-5)">
        <text fill="#ffffff" font-family="OCRA" font-size="3.75px">12</text>
       </g>
      </g>
     </g>
    </g>
    <g transform="translate(116.97 12.24)">
     <g transform="rotate(-90)">
      <g transform="translate(-5.1472 -.9392)">
       <g transform="translate(-3.0518e-5)">
        <text fill="#ffffff" font-family="OCRA" font-size="3.75px">11</text>
       </g>
      </g>
     </g>
    </g>
    <g transform="translate(124.17 12.24)">
     <g transform="rotate(-90)">
      <g transform="translate(-5.1472 -.94)">
       <g transform="translate(-3.0518e-5)">
        <text fill="#ffffff" font-family="OCRA" font-size="3.75px">10</text>
       </g>
      </g>
     </g>
    </g>
    <g transform="translate(131.37 12.24)">
     <g transform="rotate(-90)">
      <g transform="translate(-2.4402 -.9388)">
       <g transform="translate(0 -6.1035e-5)">
        <text fill="#ffffff" font-family="OCRA" font-size="3.75px">9</text>
       </g>
      </g>
     </g>
    </g>
    <g transform="translate(138.57 12.24)">
     <g transform="rotate(-90)">
      <g transform="translate(-2.4402 -.9396)">
       <text fill="#ffffff" font-family="OCRA" font-size="3.75px">8</text>
      </g>
     </g>
    </g>
    <g transform="translate(150.09 12.24)">
     <g transform="rotate(-90)">
      <g transform="translate(-2.4402 -.9401)">
       <g transform="translate(0 6.1035e-5)">
        <text fill="#ffffff" font-family="OCRA" font-size="3.75px">7</text>
       </g>
      </g>
     </g>
    </g>
    <g transform="translate(157.29 12.24)">
     <g transform="rotate(-90)">
      <g transform="translate(-2.4402 -.9389)">
       <text fill="#ffffff" font-family="OCRA" font-size="3.75px">6</text>
      </g>
     </g>
    </g>
    <g transform="translate(164.49 12.24)">
     <g transform="rotate(-90)">
      <g transform="translate(-2.4402 -.9397)">
       <text fill="#ffffff" font-family="OCRA" font-size="3.75px">5</text>
      </g>
     </g>
    </g>
    <g transform="translate(171.69 12.24)">
     <g transform="rotate(-90)">
      <g transform="translate(-2.4402 -.9405)">
       <g transform="translate(0 6.1035e-5)">
        <text fill="#ffffff" font-family="OCRA" font-size="3.75px">4</text>
       </g>
      </g>
     </g>
    </g>
    <g transform="translate(178.89 12.24)">
     <g transform="rotate(-90)">
      <g transform="translate(-2.4402 -.9393)">
       <text fill="#ffffff" font-family="OCRA" font-size="3.75px">3</text>
      </g>
     </g>
    </g>
    <g transform="translate(186.09 12.24)">
     <g transform="rotate(-90)">
      <g transform="translate(-2.4402 -.9401)">
       <g transform="translate(0 6.1035e-5)">
        <text fill="#ffffff" font-family="OCRA" font-size="3.75px">2</text>
       </g>
      </g>
     </g>
    </g>
    <g transform="translate(88.352 36.196)"></g>
    <g transform="rotate(-90 133.18 5.8164)">
     <text fill="#ffffff" font-family="OCRA" font-size="3.3408px">5.0V</text>
    </g>
    <g transform="rotate(270 151.11 -12.111)">
     <g transform="translate(0 6.1035e-5)">
      <text fill="#ffffff" font-family="OCRA" font-size="3.3408px">14</text>
     </g>
    </g>
    <g transform="matrix(-1 0 0 1 372.16 0)">
     <g transform="matrix(-1 0 0 1 372.16 0)">
      <g transform="translate(175.67 130.81)"></g>
     </g>
    </g>
    <g transform="translate(87.893 11.843)">
     <g transform="rotate(-90)">
      <g transform="translate(-11.006 -.9392)">
       <g transform="translate(6.1035e-5 3.0518e-5)">
        <text fill="#ffffff" font-family="OCRA" font-size="3.75px">AREF</text>
       </g>
      </g>
     </g>
    </g>
    <g transform="translate(191.13 64.604)"></g>
    <g transform="translate(95.422 11.915)">
     <g transform="rotate(-90)">
      <g transform="translate(-8.246 -.9399)">
       <g transform="translate(-3.0518e-5 3.0518e-5)">
        <text fill="#ffffff" font-family="OCRA" font-size="3.75px">GND</text>
       </g>
      </g>
     </g>
    </g>
    <g transform="translate(84.573 49.317)"></g>
    <g transform="translate(84.649 56.157)"></g>
    <g transform="translate(112.29 138.6)">
     <g transform="rotate(-90)">
      <g transform="translate(-9.1553e-5 -.00048828)">
       <text fill="#ffffff" font-family="OCRA" font-size="3.3408px">RESET</text>
      </g>
     </g>
    </g>
    <g transform="translate(120.21 138.96)">
     <g transform="rotate(-90)">
      <g transform="translate(.00053406 -.00057983)">
       <g transform="translate(3.0518e-5 6.1035e-5)">
        <text fill="#ffffff" font-family="OCRA" font-size="3.3408px">3.3V</text>
       </g>
      </g>
     </g>
    </g>
    <g transform="rotate(270 154.71 -15.711)">
     <text fill="#ffffff" font-family="OCRA" font-size="3.3408px">15</text>
    </g>
    <g transform="rotate(270 158.31 -19.312)">
     <g transform="translate(0 6.1035e-5)">
      <text fill="#ffffff" font-family="OCRA" font-size="3.3408px">16</text>
     </g>
    </g>
    <g transform="rotate(270 161.91 -22.911)">
     <g transform="translate(0 .00012207)">
      <text fill="#ffffff" font-family="OCRA" font-size="3.3408px">17</text>
     </g>
    </g>
    <g transform="rotate(270 165.51 -26.512)">
     <g transform="translate(0 6.1035e-5)">
      <text fill="#ffffff" font-family="OCRA" font-size="3.3408px">18</text>
     </g>
    </g>
    <g transform="rotate(270 169.11 -30.111)">
     <g transform="translate(0 .00012207)">
      <text fill="#ffffff" font-family="OCRA" font-size="3.3408px">19</text>
     </g>
    </g>
    <g transform="rotate(270 143.98 -4.9843)">
     <g transform="translate(0 .00012207)">
      <text fill="#ffffff" font-family="OCRA" font-size="3.3408px">VIN</text>
     </g>
    </g>
    <g transform="rotate(270 136.78 2.2178)">
     <g transform="translate(0 .00012207)">
      <text fill="#ffffff" font-family="OCRA" font-size="3.3408px">GND</text>
     </g>
    </g>
    <g transform="rotate(270 140.26 -1.2988)">
     <g transform="translate(3.0518e-5 .00012207)">
      <text fill="#ffffff" font-family="OCRA" font-size="3.3408px">GND</text>
     </g>
    </g>
    <g transform="translate(145.16 27.276)">
     <g transform="translate(.00012207 -3.0518e-5)">
      <text fill="#ffffff" font-family="OCRA" font-size="3.6749px">DIGITAL (PWM=</text>
     </g>
    </g>
    <g transform="translate(182.03 27.276)">
     <g transform="translate(.00012207 -3.0518e-5)">
      <text fill="#ffffff" font-family="OCRA" font-size="3.6749px">)</text>
     </g>
    </g>
    <g transform="translate(123.45 22.68)">
     <g transform="rotate(-90)">
      <g enable-background="new    " fill="#fff">
       <path d="m1.565-1.051c-0.021-0.5 0.25-0.756 0.596-0.756 0.21 0 0.37 0.064 0.706 0.225 0.255 0.121 0.44 0.211 0.625 0.211 0.181 0 0.266-0.145 0.271-0.42h0.3c0.025 0.561-0.265 0.756-0.576 0.756-0.2 0-0.38-0.061-0.726-0.221-0.235-0.115-0.42-0.221-0.601-0.221s-0.29 0.125-0.3 0.426z"/>
       <path d="m1.565-8.473c-0.021-0.5 0.25-0.756 0.596-0.756 0.21 0 0.37 0.064 0.706 0.225 0.255 0.121 0.44 0.211 0.625 0.211 0.181 0 0.266-0.145 0.271-0.42h0.3c0.025 0.561-0.265 0.756-0.576 0.756-0.2 0-0.38-0.061-0.726-0.221-0.235-0.115-0.42-0.221-0.601-0.221s-0.29 0.125-0.3 0.426z"/>
      </g>
     </g>
    </g>
    <g transform="translate(163.41 19.08)">
     <g transform="rotate(-90)">
      <g enable-background="new    ">
       <path d="m0.994-1.05c-0.02-0.502 0.25-0.756 0.596-0.756 0.21 0 0.37 0.064 0.706 0.225 0.254 0.121 0.439 0.211 0.624 0.211 0.181 0 0.266-0.146 0.271-0.422h0.3c0.025 0.562-0.265 0.756-0.576 0.756-0.2 0-0.38-0.059-0.726-0.219-0.234-0.115-0.42-0.221-0.6-0.221s-0.29 0.125-0.3 0.426z" fill="#fff"/>
      </g>
     </g>
    </g>
    <g transform="translate(177.81 19.08)">
     <g transform="rotate(-90)">
      <g enable-background="new    ">
       <path d="m0.994-1.051c-0.02-0.501 0.25-0.757 0.596-0.757 0.21 0 0.37 0.063 0.706 0.226 0.254 0.121 0.439 0.211 0.624 0.211 0.181 0 0.266-0.146 0.271-0.421h0.3c0.025 0.561-0.265 0.756-0.576 0.756-0.2 0-0.38-0.061-0.726-0.22-0.235-0.115-0.42-0.222-0.601-0.222s-0.29 0.125-0.3 0.427z" fill="#fff"/>
      </g>
     </g>
    </g>
    <g transform="translate(156.57 19.08)">
     <g transform="rotate(-90)">
      <g enable-background="new    ">
       <path d="m0.994-1.05c-0.02-0.502 0.25-0.756 0.596-0.756 0.21 0 0.37 0.064 0.706 0.225 0.254 0.121 0.439 0.211 0.624 0.211 0.181 0 0.266-0.146 0.271-0.422h0.3c0.025 0.561-0.265 0.756-0.576 0.756-0.2 0-0.38-0.059-0.726-0.219-0.234-0.115-0.42-0.221-0.6-0.221s-0.29 0.125-0.3 0.426z" fill="#fff"/>
      </g>
     </g>
    </g>
    <g transform="translate(130.29 19.08)">
     <g transform="rotate(-90)">
      <g enable-background="new    ">
       <path d="m0.994-1.051c-0.02-0.5 0.25-0.756 0.596-0.756 0.21 0 0.37 0.064 0.706 0.225 0.254 0.121 0.439 0.21 0.624 0.21 0.181 0 0.266-0.146 0.271-0.42h0.3c0.025 0.561-0.265 0.756-0.576 0.756-0.2 0-0.38-0.063-0.726-0.221-0.235-0.115-0.42-0.223-0.601-0.223s-0.29 0.125-0.3 0.429z" fill="#fff"/>
      </g>
     </g>
    </g>
    <g transform="translate(109.02 55.179)"></g>
    <g transform="translate(139 51.582)"></g>
    <g transform="translate(106.17 138.6)">
     <g transform="rotate(-90)">
      <g transform="translate(-9.1553e-5 -.00012207)">
       <g transform="translate(0 6.1035e-5)">
        <g fill="#fff" font-family="OCRA" font-size="3.3408px">
         <text>IOREF</text>
         <text>IOREF</text>
        </g>
       </g>
      </g>
     </g>
    </g>
    <g transform="translate(194.55 82.335)">
     <g transform="rotate(-90)">
      <g transform="translate(-.7808 -.783)">
       <g transform="translate(-3.0518e-5 .00012207)">
        <text x="-24.000002" y="7.5000019" fill="#ffffff" font-family="OCRA" font-size="4.176px">IOREF</text>
       </g>
      </g>
     </g>
    </g>
    <g transform="translate(194.55 82.335)">
     <g transform="rotate(-90)">
      <g transform="rotate(90 92.727 -42.455)"></g>
     </g>
    </g>
    <g transform="translate(-8.3359 .78744)">
     <g transform="translate(.14012 .5605)">
      <g transform="translate(106.17 138.6)">
       <g transform="rotate(-90)">
        <g transform="translate(-9.1553e-5 -.00012207)">
         <g transform="translate(0 6.1035e-5)">
          <g fill="#fff" font-family="OCRA" font-size="3.3408px">
           <text x="1.5000002">WAKE</text>
           <text/>
          </g>
         </g>
        </g>
       </g>
      </g>
     </g>
    </g>
    <rect x="60.678" y="50.478" width="21.541" height="20.58" fill="#333" stroke-width="1.4856"/>
    <rect x="159.76" y="79.221" width="20.169" height="18.783" fill="#333" stroke-width=".47698"/>
    <circle id="connector0pin" cx="161.97" cy="144" r="1.61" fill="none" stroke="#9a916c" stroke-width=".8113"/>
    <path d="m160.36 140.3h3.222v7.408h-3.222v-7.408m0 3.705c0 0.889 0.722 1.605 1.61 1.605 0.89 0 1.609-0.721 1.609-1.605 0-0.894-0.724-1.611-1.609-1.611-0.888 0-1.61 0.722-1.61 1.611z" fill="#9a916c"/>
    <circle id="connector1pin" cx="169.17" cy="144" r="1.61" fill="none" stroke="#9a916c" stroke-width=".8113"/>
    <path d="m167.56 140.3h3.221v7.408h-3.221v-7.408m0 3.705c0 0.889 0.721 1.605 1.609 1.605 0.89 0 1.608-0.721 1.608-1.605 0-0.894-0.722-1.611-1.608-1.611-0.888 0-1.609 0.722-1.609 1.611z" fill="#9a916c"/>
    <circle id="connector2pin" cx="176.37" cy="144" r="1.61" fill="none" stroke="#9a916c" stroke-width=".8113"/>
    <path d="m174.76 140.3h3.222v7.408h-3.222v-7.408m0 3.705c0 0.889 0.722 1.605 1.611 1.605s1.606-0.721 1.606-1.605c0-0.894-0.726-1.611-1.606-1.611-0.889 0-1.611 0.722-1.611 1.611z" fill="#9a916c"/>
    <circle id="connector3pin" cx="183.57" cy="144" r="1.61" fill="none" stroke="#9a916c" stroke-width=".8113"/>
    <path d="m181.96 140.3h3.221v7.408h-3.221v-7.408m0 3.705c0 0.889 0.721 1.605 1.605 1.605 0.895 0 1.611-0.721 1.611-1.605 0-0.894-0.725-1.611-1.611-1.611-0.884 0-1.605 0.722-1.605 1.611z" fill="#9a916c"/>
    <circle id="connector4pin" cx="190.77" cy="144" r="1.61" fill="none" stroke="#9a916c" stroke-width=".8113"/>
    <path d="m189.16 140.3h3.221v7.408h-3.221v-7.408m0 3.705c0 0.889 0.721 1.605 1.611 1.605 0.889 0 1.609-0.721 1.609-1.605 0-0.894-0.721-1.611-1.609-1.611-0.891 0-1.611 0.722-1.611 1.611z" fill="#9a916c"/>
    <circle id="connector5pin" cx="197.97" cy="144" r="1.61" fill="none" stroke="#9a916c" stroke-width=".8113"/>
    <path d="m196.36 140.3h3.222v7.408h-3.222v-7.408m0 3.705c0 0.889 0.722 1.605 1.61 1.605 0.89 0 1.609-0.721 1.609-1.605 0-0.894-0.724-1.611-1.609-1.611-0.888 0-1.61 0.722-1.61 1.611z" fill="#9a916c"/>
    <g fill="none" stroke="#9a916c">
     <g stroke-width=".8504">
      <circle id="connector92pin" cx="205.65" cy="91.617" r="1.772"/>
      <circle id="connector93pin" cx="205.66" cy="98.802" r="1.771"/>
      <circle id="connector94pin" cx="205.65" cy="106.03" r="1.771"/>
     </g>
     <circle id="connector51pin" cx="136.05" cy="7.2" r="1.61" stroke-width=".8113"/>
    </g>
    <path d="m134.44 3.496h3.222v7.408h-3.222v-7.408m0 3.704c0 0.889 0.722 1.61 1.61 1.61 0.89 0 1.609-0.721 1.609-1.61 0-0.89-0.724-1.61-1.609-1.61-0.888 0-1.61 0.721-1.61 1.61z" fill="#9a916c"/>
    <circle id="connector52pin" cx="128.85" cy="7.2" r="1.61" fill="none" stroke="#9a916c" stroke-width=".8113"/>
    <path d="m127.24 3.496h3.221v7.408h-3.221v-7.408m0 3.704c0 0.889 0.721 1.61 1.611 1.61 0.889 0 1.609-0.721 1.609-1.61 0-0.89-0.721-1.61-1.609-1.61-0.891 0-1.611 0.721-1.611 1.61z" fill="#9a916c"/>
    <circle id="connector53pin" cx="121.65" cy="7.2" r="1.61" fill="none" stroke="#9a916c" stroke-width=".8113"/>
    <path d="m120.04 3.496h3.225v7.408h-3.225v-7.408m0 3.704c0 0.889 0.725 1.61 1.609 1.61 0.891 0 1.611-0.721 1.611-1.61 0-0.89-0.721-1.61-1.611-1.61-0.889 0-1.609 0.721-1.609 1.61z" fill="#9a916c"/>
    <circle id="connector54pin" cx="114.45" cy="7.2" r="1.61" fill="none" stroke="#9a916c" stroke-width=".8113"/>
    <path d="m112.84 3.496h3.221v7.408h-3.221v-7.408m0 3.704c0 0.889 0.722 1.61 1.611 1.61s1.605-0.721 1.605-1.61c0-0.89-0.725-1.61-1.605-1.61-0.889 0-1.611 0.721-1.611 1.61z" fill="#9a916c"/>
    <circle id="connector55pin" cx="107.25" cy="7.2" r="1.61" fill="none" stroke="#9a916c" stroke-width=".8113"/>
    <path d="m105.64 3.496h3.221v7.408h-3.221v-7.408m0 3.704c0 0.889 0.721 1.61 1.609 1.61 0.89 0 1.607-0.721 1.607-1.61 0-0.89-0.721-1.61-1.607-1.61-0.888 0-1.609 0.721-1.609 1.61z" fill="#9a916c"/>
    <circle id="connector56pin" cx="100.05" cy="7.2" r="1.61" fill="none" stroke="#9a916c" stroke-width=".8113"/>
    <path d="m98.441 3.496h3.221v7.408h-3.221v-7.408m0 3.704c0 0.889 0.721 1.61 1.61 1.61s1.61-0.721 1.61-1.61c0-0.89-0.721-1.61-1.61-1.61s-1.61 0.721-1.61 1.61z" fill="#9a916c"/>
    <circle id="connector57pin" cx="92.852" cy="7.2" r="1.61" fill="none" stroke="#9a916c" stroke-width=".8113"/>
    <path d="m91.241 3.496h3.221v7.408h-3.221v-7.408m0 3.704c0 0.889 0.721 1.61 1.61 1.61 0.89 0 1.61-0.721 1.61-1.61 0-0.89-0.721-1.61-1.61-1.61s-1.61 0.721-1.61 1.61z" fill="#9a916c"/>
    <circle id="connector58pin" cx="85.652" cy="7.2" r="1.61" fill="none" stroke="#9a916c" stroke-width=".8113"/>
    <path d="m84.042 3.496h3.221v7.408h-3.221v-7.408m0 3.704c0 0.889 0.721 1.61 1.61 1.61s1.61-0.721 1.61-1.61c0-0.89-0.721-1.61-1.61-1.61-0.89 0-1.61 0.721-1.61 1.61z" fill="#9a916c"/>
    <circle id="connector59pin" cx="78.452" cy="7.2" r="1.61" fill="none" stroke="#9a916c" stroke-width=".8113"/>
    <path d="m76.841 3.496h3.221v7.408h-3.221v-7.408m0 3.704c0 0.889 0.721 1.61 1.61 1.61s1.61-0.721 1.61-1.61c0-0.89-0.721-1.61-1.61-1.61s-1.61 0.721-1.61 1.61z" fill="#9a916c"/>
    <circle id="connector60pin" cx="71.251" cy="7.2" r="1.61" fill="none" stroke="#9a916c" stroke-width=".8113"/>
    <path d="m69.641 3.496h3.221v7.408h-3.221v-7.408m0 3.704c0 0.889 0.721 1.61 1.61 1.61 0.89 0 1.611-0.721 1.611-1.61 0-0.89-0.721-1.61-1.611-1.61-0.889 0-1.61 0.721-1.61 1.61z" fill="#9a916c"/>
    <circle id="connector61pin" cx="197.97" cy="7.2" r="1.61" fill="none" stroke="#9a916c" stroke-width=".8113"/>
    <path d="m196.36 3.496h3.222v7.408h-3.222v-7.408m0 3.704c0 0.889 0.722 1.61 1.61 1.61 0.89 0 1.609-0.721 1.609-1.61 0-0.89-0.724-1.61-1.609-1.61-0.888 0-1.61 0.721-1.61 1.61z" fill="#9a916c"/>
    <circle id="connector62pin" cx="190.77" cy="7.2" r="1.61" fill="none" stroke="#9a916c" stroke-width=".8113"/>
    <path d="m189.16 3.496h3.221v7.408h-3.221v-7.408m0 3.704c0 0.889 0.721 1.61 1.611 1.61 0.889 0 1.609-0.721 1.609-1.61 0-0.89-0.721-1.61-1.609-1.61-0.891 0-1.611 0.721-1.611 1.61z" fill="#9a916c"/>
    <circle id="connector63pin" cx="183.57" cy="7.2" r="1.61" fill="none" stroke="#9a916c" stroke-width=".8113"/>
    <path d="m181.96 3.496h3.221v7.408h-3.221v-7.408m0 3.704c0 0.889 0.721 1.61 1.605 1.61 0.895 0 1.611-0.721 1.611-1.61 0-0.89-0.725-1.61-1.611-1.61-0.884 0-1.605 0.721-1.605 1.61z" fill="#9a916c"/>
    <circle id="connector64pin" cx="176.37" cy="7.2" r="1.61" fill="none" stroke="#9a916c" stroke-width=".8113"/>
    <path d="m174.76 3.496h3.222v7.408h-3.222v-7.408m0 3.704c0 0.889 0.722 1.61 1.611 1.61s1.606-0.721 1.606-1.61c0-0.89-0.726-1.61-1.606-1.61-0.889 0-1.611 0.721-1.611 1.61z" fill="#9a916c"/>
    <circle id="connector65pin" cx="169.17" cy="7.2" r="1.61" fill="none" stroke="#9a916c" stroke-width=".8113"/>
    <path d="m167.56 3.496h3.221v7.408h-3.221v-7.408m0 3.704c0 0.889 0.721 1.61 1.609 1.61 0.89 0 1.608-0.721 1.608-1.61 0-0.89-0.722-1.61-1.608-1.61-0.888 0-1.609 0.721-1.609 1.61z" fill="#9a916c"/>
    <circle id="connector66pin" cx="161.97" cy="7.2" r="1.61" fill="none" stroke="#9a916c" stroke-width=".8113"/>
    <path d="m160.36 3.496h3.222v7.408h-3.222v-7.408m0 3.704c0 0.889 0.722 1.61 1.61 1.61 0.89 0 1.609-0.721 1.609-1.61 0-0.89-0.724-1.61-1.609-1.61-0.888 0-1.61 0.721-1.61 1.61z" fill="#9a916c"/>
    <circle id="connector67pin" cx="154.77" cy="7.2" r="1.61" fill="none" stroke="#9a916c" stroke-width=".8113"/>
    <path d="m153.16 3.496h3.221v7.408h-3.221v-7.408m0 3.704c0 0.889 0.721 1.61 1.611 1.61 0.889 0 1.609-0.721 1.609-1.61 0-0.89-0.721-1.61-1.609-1.61-0.891 0-1.611 0.721-1.611 1.61z" fill="#9a916c"/>
    <circle id="connector68pin" cx="147.57" cy="7.2" r="1.61" fill="none" stroke="#9a916c" stroke-width=".8113"/>
    <path d="m145.96 3.496h3.221v7.408h-3.221v-7.408m0 3.704c0 0.889 0.721 1.61 1.605 1.61 0.895 0 1.611-0.721 1.611-1.61 0-0.89-0.725-1.61-1.611-1.61-0.884 0-1.605 0.721-1.605 1.61z" fill="#9a916c"/>
    <circle id="connector84pin" cx="104.37" cy="144" r="1.61" fill="none" stroke="#9a916c" stroke-width=".8113"/>
    <circle id="connector91pin" cx="97.172" cy="144" r="1.61" fill="none" stroke="#9a916c" stroke-width=".8113"/>
    <path d="m102.76 140.3h3.221v7.408h-3.221v-7.408m0 3.705c0 0.889 0.721 1.605 1.61 1.605 0.89 0 1.611-0.721 1.611-1.605 0-0.894-0.721-1.611-1.611-1.611-0.889 0-1.61 0.722-1.61 1.611z" fill="#9a916c"/>
    <path d="m95.562 140.3h3.221v7.408h-3.221v-7.408m0 3.705c0 0.889 0.721 1.605 1.61 1.605 0.89 0 1.611-0.721 1.611-1.605 0-0.894-0.721-1.611-1.611-1.611s-1.61 0.722-1.61 1.611z" fill="#9a916c"/>
    <circle id="connector85pin" cx="111.57" cy="144" r="1.61" fill="none" stroke="#9a916c" stroke-width=".8113"/>
    <path d="m109.96 140.3h3.221v7.408h-3.221v-7.408m0 3.705c0 0.889 0.721 1.605 1.605 1.605 0.895 0 1.611-0.721 1.611-1.605 0-0.894-0.725-1.611-1.611-1.611-0.884 0-1.605 0.722-1.605 1.611z" fill="#9a916c"/>
    <circle id="connector86pin" cx="118.77" cy="144" r="1.61" fill="none" stroke="#9a916c" stroke-width=".8113"/>
    <path d="m117.16 140.3h3.221v7.408h-3.221v-7.408m0 3.705c0 0.889 0.721 1.605 1.611 1.605 0.889 0 1.609-0.721 1.609-1.605 0-0.894-0.721-1.611-1.609-1.611-0.891 0-1.611 0.722-1.611 1.611z" fill="#9a916c"/>
    <circle id="connector87pin" cx="125.97" cy="144" r="1.61" fill="none" stroke="#9a916c" stroke-width=".8113"/>
    <path d="m124.36 140.3h3.222v7.408h-3.222v-7.408m0 3.705c0 0.889 0.722 1.605 1.61 1.605 0.89 0 1.609-0.721 1.609-1.605 0-0.894-0.724-1.611-1.609-1.611-0.888 0-1.61 0.722-1.61 1.611z" fill="#9a916c"/>
    <circle id="connector88pin" cx="133.17" cy="144" r="1.61" fill="none" stroke="#9a916c" stroke-width=".8113"/>
    <path d="m131.56 140.3h3.221v7.408h-3.221v-7.408m0 3.705c0 0.889 0.721 1.605 1.609 1.605 0.89 0 1.608-0.721 1.608-1.605 0-0.894-0.722-1.611-1.608-1.611-0.888 0-1.609 0.722-1.609 1.611z" fill="#9a916c"/>
    <circle id="connector89pin" cx="140.37" cy="144" r="1.61" fill="none" stroke="#9a916c" stroke-width=".8113"/>
    <path d="m138.76 140.3h3.222v7.408h-3.222v-7.408m0 3.705c0 0.889 0.722 1.605 1.611 1.605s1.606-0.721 1.606-1.605c0-0.894-0.726-1.611-1.606-1.611-0.889 0-1.611 0.722-1.611 1.611z" fill="#9a916c"/>
    <circle id="connector90pin" cx="147.57" cy="144" r="1.61" fill="none" stroke="#9a916c" stroke-width=".8113"/>
    <path d="m145.96 140.3h3.221v7.408h-3.221v-7.408m0 3.705c0 0.889 0.721 1.605 1.605 1.605 0.895 0 1.611-0.721 1.611-1.605 0-0.894-0.725-1.611-1.611-1.611-0.884 0-1.605 0.722-1.605 1.611z" fill="#9a916c"/>
    <g transform="translate(-18 -1.5)">
     <g transform="translate(137.96 130.81)">
      <g transform="translate(0 3.0518e-5)">
       <text y="-1.5000002" fill="#ffffff" font-family="OCRA" font-size="3.6749px">POWER</text>
      </g>
     </g>
    </g>
    <g transform="translate(199.77 16.2)">
     <g transform="rotate(-90)">
      <g transform="translate(1.5198 -.0449)">
       <g transform="translate(3.0518e-5)">
        <text fill="#ffffff" font-family="OCRA" font-size="3.75px">0</text>
       </g>
      </g>
     </g>
    </g>
    <g transform="translate(192.57 16.2)">
     <g transform="rotate(-90)">
      <g transform="translate(1.5198 -.0441)">
       <g transform="translate(3.0518e-5)">
        <text fill="#ffffff" font-family="OCRA" font-size="3.75px">1</text>
       </g>
      </g>
     </g>
    </g>
    <g transform="translate(192.57 30.96)">
     <g transform="rotate(-90)">
      <g transform="translate(3.524 -.0441)">
       <g transform="translate(-3.0518e-5)">
        <text fill="#ffffff" font-family="OCRA" font-size="3.75px">TX0</text>
       </g>
      </g>
     </g>
    </g>
    <g transform="translate(199.77 30.96)">
     <g transform="rotate(-90)">
      <g transform="translate(3.524 -.0449)">
       <g transform="translate(-3.0518e-5)">
        <text fill="#ffffff" font-family="OCRA" font-size="3.75px">RX0</text>
       </g>
      </g>
     </g>
    </g>
    <g fill="#fff">
     <path d="m192.11 18.007h-1.959c-0.125 0-0.236-0.068-0.297-0.179-0.061-0.11-0.053-0.243 0.018-0.347l0.978-1.459c0.125-0.188 0.438-0.188 0.563 0l0.93 1.394c0.066 0.062 0.113 0.152 0.113 0.253-8e-3 0.187-0.159 0.338-0.346 0.338z"/>
     <path d="m197.41 15.88h1.955c0.125 0 0.238 0.068 0.301 0.178 0.063 0.111 0.053 0.244-0.02 0.348l-0.973 1.459c-0.125 0.188-0.438 0.188-0.563 0l-0.93-1.396c-0.07-0.063-0.113-0.151-0.113-0.252 4e-3 -0.185 0.156-0.337 0.343-0.337z"/>
     <path d="m179.9 26.121c-0.021-0.549 0.273-0.829 0.653-0.829 0.229 0 0.405 0.071 0.774 0.247 0.276 0.132 0.479 0.23 0.687 0.23 0.198 0 0.291-0.159 0.297-0.461h0.329c0.027 0.615-0.291 0.829-0.631 0.829-0.221 0-0.418-0.066-0.797-0.242-0.258-0.126-0.461-0.242-0.659-0.242s-0.318 0.138-0.329 0.467z"/>
     <g font-family="OCRA">
      <text x="161.43512" y="127.74376" font-size="2.9399">DIGITAL </text>
      <text x="200.61412" y="114.45917" font-size="2.6726">3.3V</text>
      <text x="200.44293" y="86.613655" font-size="2.6726">5.0V</text>
     </g>
    </g>
   </g>
   <g transform="translate(157.65 140.63)">
    <rect x=".722" y="-.228" width="43.199" height="7.199" fill="#404040"/>
    <rect x="2.931" y="1.981" width="2.781" height="2.783"/>
    <polygon points="2.929 1.981 5.714 1.981 6.737 0.956 1.905 0.956" fill="#2a2a29"/>
    <polygon points="5.714 1.985 5.714 4.766 6.737 5.789 6.737 0.956" fill="#474747"/>
    <polygon points="5.712 4.766 2.929 4.766 1.905 5.789 6.737 5.789" fill="#595959"/>
    <polygon points="2.929 4.764 2.929 1.981 1.903 0.956 1.903 5.789" fill="#373737"/>
    <rect x="10.132" y="1.981" width="2.781" height="2.783"/>
    <polygon points="10.13 1.981 12.911 1.981 13.936 0.956 9.104 0.956" fill="#2a2a29"/>
    <polygon points="12.911 1.985 12.911 4.766 13.936 5.789 13.936 0.956" fill="#474747"/>
    <polygon points="12.911 4.766 10.13 4.766 9.104 5.789 13.936 5.789" fill="#595959"/>
    <polygon points="10.13 4.764 10.13 1.981 9.102 0.956 9.102 5.789" fill="#373737"/>
    <rect x="17.331" y="1.981" width="2.781" height="2.783"/>
    <polygon points="17.329 1.981 20.112 1.981 21.138 0.956 16.306 0.956" fill="#2a2a29"/>
    <polygon points="20.112 1.985 20.112 4.766 21.138 5.789 21.138 0.956" fill="#474747"/>
    <polygon points="20.112 4.766 17.329 4.766 16.306 5.789 21.138 5.789" fill="#595959"/>
    <polygon points="17.329 4.764 17.329 1.981 16.304 0.956 16.304 5.789" fill="#373737"/>
    <rect x="24.532" y="1.981" width="2.781" height="2.783"/>
    <polygon points="24.53 1.981 27.313 1.981 28.339 0.956 23.507 0.956" fill="#2a2a29"/>
    <polygon points="27.313 1.985 27.313 4.766 28.339 5.789 28.339 0.956" fill="#474747"/>
    <polygon points="27.311 4.766 24.53 4.766 23.507 5.789 28.337 5.789" fill="#595959"/>
    <polygon points="24.53 4.764 24.53 1.981 23.503 0.956 23.503 5.789" fill="#373737"/>
    <rect x="31.731" y="1.981" width="2.779" height="2.783"/>
    <polygon points="31.729 1.981 34.513 1.981 35.538 0.956 30.706 0.956" fill="#2a2a29"/>
    <polygon points="34.513 1.985 34.513 4.766 35.538 5.789 35.538 0.956" fill="#474747"/>
    <polygon points="34.513 4.766 31.729 4.766 30.706 5.789 35.536 5.789" fill="#595959"/>
    <polygon points="31.729 4.764 31.729 1.981 30.704 0.956 30.704 5.789" fill="#373737"/>
    <rect x="38.931" y="1.981" width="2.781" height="2.783"/>
    <polygon points="38.929 1.981 41.714 1.981 42.737 0.956 37.905 0.956" fill="#2a2a29"/>
    <polygon points="41.714 1.985 41.714 4.766 42.737 5.789 42.737 0.956" fill="#474747"/>
    <polygon points="41.712 4.766 38.929 4.766 37.905 5.789 42.737 5.789" fill="#595959"/>
    <polygon points="38.929 4.764 38.929 1.981 37.903 0.956 37.903 5.789" fill="#373737"/>
   </g>
   <g transform="translate(144.69 3.372)">
    <g transform="rotate(180,28.8,3.6)">
     <rect x=".72" y="-.228" width="57.6" height="7.199" fill="#404040"/>
     <rect x="53.331" y="1.98" width="2.78" height="2.782"/>
     <polygon points="53.331 4.762 52.303 5.787 57.135 5.787 56.113 4.762" fill="#2a2a29"/>
     <polygon points="53.331 1.978 52.303 0.955 52.303 5.787 53.331 4.759" fill="#474747"/>
     <polygon points="56.113 1.978 57.135 0.955 52.304 0.955 53.331 1.978" fill="#595959"/>
     <polygon points="56.113 4.762 57.137 5.787 57.137 0.955 56.113 1.98" fill="#373737"/>
     <rect x="46.13" y="1.98" width="2.779" height="2.782"/>
     <polygon points="46.128 4.762 45.103 5.787 49.937 5.787 48.913 4.762" fill="#2a2a29"/>
     <polygon points="46.128 1.978 45.103 0.955 45.103 5.787 46.128 4.759" fill="#474747"/>
     <polygon points="48.913 1.978 49.937 0.955 45.105 0.955 46.13 1.978" fill="#595959"/>
     <polygon points="48.913 4.762 49.939 5.787 49.939 0.955 48.913 1.98" fill="#373737"/>
     <rect x="38.928" y="1.98" width="2.781" height="2.782"/>
     <polygon points="38.928 4.762 37.904 5.787 42.736 5.787 41.712 4.762" fill="#2a2a29"/>
     <polygon points="38.928 1.978 37.904 0.955 37.904 5.787 38.928 4.759" fill="#474747"/>
     <polygon points="41.712 1.978 42.736 0.955 37.907 0.955 38.929 1.978" fill="#595959"/>
     <polygon points="41.712 4.762 42.738 5.787 42.738 0.955 41.712 1.98" fill="#373737"/>
     <rect x="31.728" y="1.98" width="2.78" height="2.782"/>
     <polygon points="31.728 4.762 30.706 5.787 35.538 5.787 34.51 4.762" fill="#2a2a29"/>
     <polygon points="31.728 1.978 30.706 0.955 30.706 5.787 31.728 4.759" fill="#474747"/>
     <polygon points="34.51 1.978 35.538 0.955 30.706 0.955 31.73 1.978" fill="#595959"/>
     <polygon points="34.51 4.762 35.54 5.787 35.54 0.955 34.51 1.98" fill="#373737"/>
     <rect x="24.529" y="1.98" width="2.781" height="2.782"/>
     <polygon points="24.529 4.762 23.503 5.787 28.335 5.787 27.312 4.762" fill="#2a2a29"/>
     <polygon points="24.529 1.978 23.503 0.955 23.503 5.787 24.529 4.759" fill="#474747"/>
     <polygon points="27.312 1.978 28.335 0.955 23.505 0.955 24.532 1.978" fill="#595959"/>
     <polygon points="27.312 4.762 28.337 5.787 28.337 0.955 27.312 1.98" fill="#373737"/>
     <rect x="17.331" y="1.98" width="2.78" height="2.782"/>
     <polygon points="17.331 4.762 16.303 5.787 21.135 5.787 20.113 4.762" fill="#2a2a29"/>
     <polygon points="17.331 1.978 16.303 0.955 16.303 5.787 17.331 4.759" fill="#474747"/>
     <polygon points="20.113 1.978 21.135 0.955 16.304 0.955 17.331 1.978" fill="#595959"/>
     <polygon points="20.113 4.762 21.137 5.787 21.137 0.955 20.113 1.98" fill="#373737"/>
     <rect x="10.13" y="1.98" width="2.779" height="2.782"/>
     <polygon points="10.128 4.762 9.103 5.787 13.937 5.787 12.913 4.762" fill="#2a2a29"/>
     <polygon points="10.128 1.978 9.103 0.955 9.103 5.787 10.128 4.759" fill="#474747"/>
     <polygon points="12.913 1.978 13.937 0.955 9.105 0.955 10.13 1.978" fill="#595959"/>
     <polygon points="12.913 4.762 13.939 5.787 13.939 0.955 12.913 1.98" fill="#373737"/>
     <rect x="2.928" y="1.98" width="2.781" height="2.782"/>
     <polygon points="2.928 4.762 1.904 5.787 6.736 5.787 5.712 4.762" fill="#2a2a29"/>
     <polygon points="2.928 1.978 1.904 0.955 1.904 5.787 2.928 4.759" fill="#474747"/>
     <polygon points="5.712 1.978 6.736 0.955 1.907 0.955 2.929 1.978" fill="#595959"/>
     <polygon points="5.712 4.762 6.738 5.787 6.738 0.955 5.712 1.98" fill="#373737"/>
    </g>
   </g>
   <g transform="translate(35.471 46.096)">
    <g transform="rotate(-90 1.925 3.7045)">
     <g transform="translate(21.554 31.338)">
      <line x1="-23.902" x2="-23.902" y1="-37.873" y2="-30.637" fill="none"/>
      <g transform="rotate(270 -21.988 -34.198)">
       <rect x="-25.658" y="-36.111" width="7.348" height="3.833" fill="#f2f2f2"/>
      </g>
      <path d="m-23.902-33.129s0.467 0.645 0.426 0.867c-0.041 0.219 0.148 0.541 0 0.676l-0.424-0.018z" fill="#22b573" fill-opacity=".7"/>
      <g transform="rotate(270 -21.959 -34.27)">
       <rect x="-22.382" y="-34.748" width=".854" height=".961" fill="#fff"/>
      </g>
      <g transform="rotate(270 -22.44 -34.269)">
       <rect x="-22.863" y="-34.29" width=".854" height=".049" fill="#b3b3b3"/>
      </g>
      <g fill="#d1c690">
       <polygon points="-23.582 -31.585 -22.849 -31.585 -22.954 -32.549 -23.476 -32.549"/>
       <path d="m-23.279-32.488v-8e-3c0.035-0.266 0.104-0.447 0.162-0.598 0.08-0.209 0.782-0.559 0.696-0.828-0.012-0.027 0.011-0.06 0.043-0.066 0.035-8e-3 0.068 0.01 0.078 0.039 0.095 0.305-0.617 0.674-0.701 0.893-0.06 0.148-0.123 0.318-0.155 0.572-4e-3 0.029-0.033 0.055-0.068 0.049-0.03-1e-3 -0.055-0.025-0.055-0.053z"/>
       <polygon points="-20.487 -36.933 -21.217 -36.933 -21.114 -35.969 -20.59 -35.969"/>
       <path d="m-22.111-34.316c0-0.025 0.02-0.049 0.047-0.055 0.292-0.063 1.152-1.088 1.152-1.885 0-0.033 0.026-0.057 0.063-0.057 0.034 2e-3 0.063 0.025 0.063 0.057v2e-3c0 0.749-0.77 1.891-1.245 1.993-0.035 8e-3 -0.068-0.012-0.078-0.041-2e-3 -2e-3 -2e-3 -7e-3 -2e-3 -0.014z"/>
       <path d="m-22.127-33.845s2e-3 -0.356-0.311-0.383v0.383z"/>
       <path d="m-21.806-34.281s-0.306 0.158-0.351 0.053c-0.048-0.107-0.052-0.178 0.028-0.24 0.082-0.061 0.323 0.187 0.323 0.187z"/>
      </g>
      <g fill="#9d956c">
       <path d="m-22.474-33.922c0.084 0.27-0.618 0.619-0.698 0.828-0.06 0.145-0.127 0.33-0.162 0.598h0.059c0.035-0.266 0.104-0.447 0.162-0.598 0.08-0.209 0.782-0.559 0.696-0.828z"/>
       <polygon points="-21.272 -36.933 -21.217 -36.933 -21.114 -35.969 -21.169 -35.969"/>
       <path d="m-22.119-34.371c0.291-0.062 1.212-1.07 1.149-1.885h0.06c0.06 0.877-0.86 1.826-1.152 1.887z"/>
       <path d="m-22.492-34.227v0.381h0.057v-0.381z"/>
       <path d="m-22.181-34.469c-0.08 0.063-0.076 0.131-0.031 0.238l0.06 2e-3c-0.049-0.107-0.052-0.179 0.028-0.24z"/>
      </g>
      <g transform="rotate(270 -20.097 -34.284)">
       <rect x="-22.205" y="-34.308" width="4.223" height=".051" enable-background="new    " fill="#fff" opacity=".5"/>
      </g>
      <path d="m-20.069-36.916h-3.831v5.317l3.831 4e-3z" enable-background="new    " fill="#f2f2f2" opacity=".5"/>
      <path d="m-20.719-36.866h0.271c0.151 0.018 0.271-0.012 0.271 0.098v4.854c0 0.168-0.065 0.176-0.065-0.012v-4.346c0-0.457-0.105-0.518-0.197-0.518l-0.272 2e-3c-0.182 0-0.182-0.078-8e-3 -0.078z" enable-background="new    " fill="#fff" opacity=".55"/>
      <path d="m-23.678-31.74c-0.068 0-0.138 0.012-0.138-0.098v-4.817c0-0.168 0.065-0.176 0.065 8e-3 0 0.135 2e-3 3.138 2e-3 3.589-1e-3 0.595 0.071 1.318 0.071 1.318z" enable-background="new    " opacity=".03"/>
      <path d="m-23.902-37.874v0.771h0.521c0.125 0 0.213 0.08 0.268 0.188h3.047v-1.01h-3.834" fill="#d1c690"/>
      <g transform="rotate(270 -20.097 -37.419)">
       <rect x="-20.596" y="-37.443" width="1.006" height=".052" enable-background="new    " fill="#fff" opacity=".5"/>
      </g>
      <path d="m-23.902-30.529h3.833v-1.071h-3.464c-0.056 0.104-0.146 0.191-0.271 0.191h-0.1v0.829" fill="#d1c690"/>
      <g transform="rotate(270 -20.096 -31.062)">
       <rect x="-20.628" y="-31.084" width="1.072" height=".052" enable-background="new    " fill="#fff" opacity=".5"/>
      </g>
     </g>
    </g>
   </g>
   <g transform="translate(80.117 116.1)">
    <g transform="rotate(90 10.214 9.1755)"></g>
   </g>
   <g transform="translate(59.957 116.1)">
    <g transform="rotate(90 10.214 9.1755)"></g>
   </g>
   <g transform="translate(92.852 140.63)">
    <rect x=".72" y="-.228" width="57.601" height="7.199" fill="#404040"/>
    <rect x="2.93" y="1.981" width="2.781" height="2.783"/>
    <polygon points="6.737 0.956 1.905 0.956 2.928 1.981 5.711 1.981" fill="#2a2a29"/>
    <polygon points="6.737 5.789 6.737 0.956 5.711 1.985 5.711 4.766" fill="#474747"/>
    <polygon points="1.905 5.789 6.736 5.789 5.71 4.766 2.928 4.766" fill="#595959"/>
    <polygon points="1.903 0.956 1.903 5.789 2.928 4.764 2.928 1.981" fill="#373737"/>
    <rect x="10.13" y="1.981" width="2.781" height="2.783"/>
    <polygon points="13.938 0.956 9.104 0.956 10.128 1.981 12.912 1.981" fill="#2a2a29"/>
    <polygon points="13.938 5.789 13.938 0.956 12.912 1.985 12.912 4.766" fill="#474747"/>
    <polygon points="9.104 5.789 13.936 5.789 12.911 4.766 10.128 4.766" fill="#595959"/>
    <polygon points="9.102 0.956 9.102 5.789 10.128 4.764 10.128 1.981" fill="#373737"/>
    <rect x="17.331" y="1.981" width="2.78" height="2.783"/>
    <polygon points="21.136 0.956 16.304 0.956 17.328 1.981 20.112 1.981" fill="#2a2a29"/>
    <polygon points="21.136 5.789 21.136 0.956 20.112 1.985 20.112 4.766" fill="#474747"/>
    <polygon points="16.304 5.789 21.135 5.789 20.11 4.766 17.328 4.766" fill="#595959"/>
    <polygon points="16.302 0.956 16.302 5.789 17.328 4.764 17.328 1.981" fill="#373737"/>
    <rect x="24.53" y="1.981" width="2.781" height="2.783"/>
    <polygon points="28.335 0.956 23.503 0.956 24.528 1.981 27.313 1.981" fill="#2a2a29"/>
    <polygon points="28.335 5.789 28.335 0.956 27.313 1.985 27.313 4.766" fill="#474747"/>
    <polygon points="23.503 5.789 28.335 5.789 27.311 4.766 24.528 4.766" fill="#595959"/>
    <polygon points="23.501 0.956 23.501 5.789 24.528 4.764 24.528 1.981" fill="#373737"/>
    <rect x="31.731" y="1.981" width="2.78" height="2.783"/>
    <polygon points="35.535 0.956 30.703 0.956 31.729 1.981 34.511 1.981" fill="#2a2a29"/>
    <polygon points="35.535 5.789 35.535 0.956 34.511 1.985 34.511 4.766" fill="#474747"/>
    <polygon points="30.703 5.789 35.535 5.789 34.51 4.766 31.729 4.766" fill="#595959"/>
    <polygon points="30.701 0.956 30.701 5.789 31.729 4.764 31.729 1.981" fill="#373737"/>
    <rect x="38.93" y="1.981" width="2.78" height="2.783"/>
    <polygon points="42.737 0.956 37.905 0.956 38.928 1.981 41.71 1.981" fill="#2a2a29"/>
    <polygon points="42.737 5.789 42.737 0.956 41.71 1.985 41.71 4.766" fill="#474747"/>
    <polygon points="37.905 5.789 42.735 5.789 41.71 4.766 38.928 4.766" fill="#595959"/>
    <polygon points="37.903 0.956 37.903 5.789 38.928 4.764 38.928 1.981" fill="#373737"/>
    <rect x="46.13" y="1.981" width="2.78" height="2.783"/>
    <polygon points="49.938 0.956 45.104 0.956 46.128 1.981 48.91 1.981" fill="#2a2a29"/>
    <polygon points="49.938 5.789 49.938 0.956 48.91 1.985 48.91 4.766" fill="#474747"/>
    <polygon points="45.104 5.789 49.936 5.789 48.91 4.766 46.128 4.766" fill="#595959"/>
    <polygon points="45.102 0.956 45.102 5.789 46.128 4.764 46.128 1.981" fill="#373737"/>
    <rect x="53.331" y="1.981" width="2.78" height="2.783"/>
    <polygon points="57.136 0.956 52.304 0.956 53.328 1.981 56.112 1.981" fill="#2a2a29"/>
    <polygon points="57.136 5.789 57.136 0.956 56.112 1.985 56.112 4.766" fill="#474747"/>
    <polygon points="52.304 5.789 57.135 5.789 56.11 4.766 53.328 4.766" fill="#595959"/>
    <polygon points="52.302 0.956 52.302 5.789 53.328 4.764 53.328 1.981" fill="#373737"/>
   </g>
   <g transform="translate(89.022 50.176)">
    <g transform="rotate(90 1.925 3.7045)">
     <g transform="translate(21.554 31.338)">
      <line x1="-21.535" x2="-21.535" y1="-37.083" y2="-29.847" fill="none"/>
     </g>
    </g>
   </g>
   <g transform="translate(89.022 43.696)">
    <g transform="rotate(90 1.925 3.7045)">
     <g transform="translate(21.554 31.338)">
      <line x1="-21.535" x2="-21.535" y1="-37.083" y2="-29.847" fill="none"/>
     </g>
    </g>
   </g>
   <g transform="translate(31.186 77.227)">
    <g transform="rotate(90 9.576 10.063)"></g>
   </g>
   <g transform="translate(-3.6585 104.54)">
    <g transform="rotate(90 12.729 19.571)">
     <g transform="translate(16.998 98.872)">
      <g transform="rotate(90 12.756 25.928)">
       <rect x="-134" y="26.131" width="32.972" height="23.732" fill="#232323"/>
       <rect x="-133.57" y="47.644" width="31.937" height="1.646" fill="#494949"/>
       <rect x="-133.57" y="42.273" width="31.936" height="5.369" fill="#3d3d3d" fill-opacity=".3"/>
       <rect x="-133.57" y="26.648" width="32.973" height="1.619"/>
       <rect x="-133.57" y="28.221" width="32.973" height="5.826" fill="#0f0f0f" fill-opacity=".4"/>
       <rect x="-134" y="26.133" width=".592" height="23.73" enable-background="new    " opacity=".2"/>
       <line x1="-131.19" x2="-131.19" y1="26.131" y2="49.863" enable-background="new    " fill="none" opacity=".5" stroke="#000" stroke-miterlimit="10" stroke-width=".25"/>
       <rect x="-104.53" y="26.109" width="1.287" height="23.729" enable-background="new    " opacity=".25"/>
       <path d="m-103.52 45.54v-15.08h-13.296c-4.166 0-7.541 3.375-7.541 7.541 0 4.164 3.375 7.541 7.541 7.541z" enable-background="new    " opacity=".25" stroke="#565656" stroke-miterlimit="10" stroke-width=".25"/>
       <g fill="#232323">
        <path d="m-103.52 45.54v-15.08h-13.296c-4.166 0-7.541 3.375-7.541 7.541 0 4.164 3.375 7.541 7.541 7.541z"/>
        <rect x="-104.25" y="25.242" width="7.688" height="25.514"/>
       </g>
       <rect x="-135.7" y="35.142" width="1.701" height="5.713" fill="#6d6d6d"/>
       <rect x="-134.98" y="32.387" width=".976" height="11.226" fill="#494949"/>
       <rect x="-103.52" y="49.291" width="6.266" height="1.051" fill="#494949"/>
       <rect x="-103.52" y="25.603" width="6.267" height="1.051"/>
      </g>
     </g>
    </g>
   </g>
   <g transform="translate(3.4818,23.55)">
    <g transform="rotate(-90,22.124,20.315)">
     <g transform="rotate(270 22.79 20.814)">
      <rect x="16.624" y="-35.953" width="17.462" height="23.51" fill="#b3b3b3" stroke-width=".587"/>
     </g>
     <g transform="rotate(270 7.574 17.032)">
      <g transform="matrix(1 -4.0153e-6 -1.0649e-6 1 0 0)">
       <rect x="-2.0895" y="-24.519" width="17.178" height="2.046" enable-background="new    " fill="#ccc" opacity=".5" stroke-width=".62309"/>
      </g>
     </g>
     <g transform="rotate(270 38.006 17.032)">
      <g transform="matrix(1 -3.8951e-6 -1.0454e-6 1 0 0)">
       <rect x="28.058" y="-33.489" width="17.499" height="2.047" enable-background="new    " opacity=".2" stroke-width=".62887"/>
      </g>
     </g>
    </g>
   </g>
   <g transform="translate(8.7817 8.9562)">
    <g transform="rotate(-90 7.299 6.521)">
     <polygon points="3.597 21.262 3.597 29.526 3.229 29.526 3.229 35.772 19.208 35.772 19.208 15.015 3.229 15.015 3.229 21.262" fill="#ccc"/>
     <polygon points="21.399 29.526 21.399 21.262 21.768 21.262 21.768 15.015 5.908 15.015 5.908 35.772 21.768 35.772 21.768 29.526" fill="#ccc"/>
     <circle cx="12.496" cy="25.395" r="5.117" fill="#641d1c"/>
     <path d="m12.746 30.51c2.827 0 5.118-2.289 5.118-5.114 0-2.826-2.289-5.12-5.118-5.12h-0.249c2.827 0 5.118 2.292 5.118 5.12 0 2.825-2.291 5.114-5.118 5.114z" enable-background="new    " opacity=".2"/>
     <circle cx="12.497" cy="25.395" r="4.93" fill="#852725"/>
     <circle cx="12.381" cy="25.395" r="4.929" fill="#f55"/>
     <path d="m7.568 25.512c0 2.724 2.206 4.931 4.931 4.931 2.724 0 4.929-2.207 4.929-4.931v-0.233c0 2.724-2.208 4.931-4.929 4.931-2.725 0-4.931-2.207-4.931-4.931z" enable-background="new    " opacity=".1"/>
     <path d="m17.427 25.512c0-2.725-2.208-4.93-4.929-4.93-2.725 0-4.931 2.205-4.931 4.93v-0.233c0-2.724 2.206-4.931 4.931-4.931 2.724 0 4.929 2.207 4.929 4.931z" enable-background="new    " fill="#fff" opacity=".2"/>
     <g transform="rotate(270 3.4129 18.138)">
      <rect x=".291" y="17.954" width="6.248" height=".371" enable-background="new    " fill="#fff" opacity=".2"/>
     </g>
     <g transform="rotate(270 3.4134 32.649)">
      <rect x=".293" y="32.465" width="6.244" height=".371" enable-background="new    " fill="#fff" opacity=".2"/>
     </g>
     <g transform="rotate(270 3.7789 25.393)">
      <rect x="-.352" y="25.212" width="8.266" height=".368" enable-background="new    " fill="#fff" opacity=".2"/>
     </g>
     <g transform="rotate(270 21.568 18.138)">
      <rect x="18.446" y="17.957" width="6.248" height=".368" enable-background="new    " opacity=".2"/>
     </g>
     <g transform="rotate(270 21.566 32.648)">
      <rect x="18.446" y="32.465" width="6.244" height=".369" enable-background="new    " opacity=".2"/>
     </g>
     <g transform="rotate(270 21.198 25.394)">
      <rect x="17.066" y="25.212" width="8.267" height=".369" enable-background="new    " opacity=".2"/>
     </g>
    </g>
    <g fill="#e6e6e6">
     <rect x="36.573" y="6.322" width="2.75" height="2.251"/>
     <rect x="36.573" y="-5.929" width="2.75" height="2.252"/>
     <rect x="13.198" y="-.47" width="2.75" height="3.417"/>
     <rect x="13.198" y="6.322" width="2.75" height="2.251"/>
     <rect x="13.198" y="-5.929" width="2.75" height="2.252"/>
    </g>
    <g fill="#fff">
     <rect x="13.198" y="-.47" width=".334" height="3.417" enable-background="new    " opacity=".2"/>
     <rect x="13.198" y="6.322" width=".334" height="2.251" enable-background="new    " opacity=".2"/>
     <rect x="13.198" y="-5.929" width=".334" height="2.252" enable-background="new    " opacity=".2"/>
    </g>
    <rect x="39.263" y="6.303" width=".104" height="2.251" enable-background="new    " opacity=".2"/>
    <rect x="39.263" y="-5.948" width=".104" height="2.252" enable-background="new    " opacity=".2"/>
    <rect x="36.589" y="6.335" width=".334" height="2.251" enable-background="new    " opacity=".1"/>
    <rect x="36.589" y="-5.916" width=".334" height="2.252" enable-background="new    " opacity=".1"/>
   </g>
   <g transform="translate(27.468 23.401)"></g>
   <g transform="translate(67.64 3.6012)">
    <rect x="-.049" y="-.001" width="72" height="7.199" fill="#404040"/>
    <rect x="2.162" y="2.208" width="2.779" height="2.782"/>
    <polygon points="5.969 1.183 1.137 1.183 2.16 2.208 4.943 2.208" fill="#2a2a29"/>
    <polygon points="5.969 6.015 5.969 1.183 4.943 2.211 4.943 4.992" fill="#474747"/>
    <polygon points="1.137 6.015 5.969 6.015 4.943 4.992 2.16 4.992" fill="#595959"/>
    <polygon points="1.135 1.183 1.135 6.015 2.16 4.99 2.16 2.208" fill="#373737"/>
    <rect x="9.363" y="2.208" width="2.781" height="2.782"/>
    <polygon points="13.168 1.183 8.336 1.183 9.359 2.208 12.142 2.208" fill="#2a2a29"/>
    <polygon points="13.168 6.015 13.168 1.183 12.142 2.211 12.142 4.992" fill="#474747"/>
    <polygon points="8.336 6.015 13.168 6.015 12.14 4.992 9.359 4.992" fill="#595959"/>
    <polygon points="8.334 1.183 8.334 6.015 9.359 4.99 9.359 2.208" fill="#373737"/>
    <rect x="16.562" y="2.208" width="2.779" height="2.782"/>
    <polygon points="20.369 1.183 15.535 1.183 16.558 2.208 19.344 2.208" fill="#2a2a29"/>
    <polygon points="20.369 6.015 20.369 1.183 19.344 2.211 19.344 4.992" fill="#474747"/>
    <polygon points="15.535 6.015 20.367 6.015 19.344 4.992 16.558 4.992" fill="#595959"/>
    <polygon points="15.535 1.183 15.535 6.015 16.558 4.99 16.558 2.208" fill="#373737"/>
    <rect x="23.763" y="2.208" width="2.781" height="2.782"/>
    <polygon points="27.568 1.183 22.736 1.183 23.762 2.208 26.545 2.208" fill="#2a2a29"/>
    <polygon points="27.568 6.015 27.568 1.183 26.545 2.211 26.545 4.992" fill="#474747"/>
    <polygon points="22.736 6.015 27.568 6.015 26.543 4.992 23.762 4.992" fill="#595959"/>
    <polygon points="22.734 1.183 22.734 6.015 23.762 4.99 23.762 2.208" fill="#373737"/>
    <rect x="30.963" y="2.208" width="2.779" height="2.782"/>
    <polygon points="34.767 1.183 29.935 1.183 30.961 2.208 33.744 2.208" fill="#2a2a29"/>
    <polygon points="34.767 6.015 34.767 1.183 33.744 2.211 33.744 4.992" fill="#474747"/>
    <polygon points="29.935 6.015 34.765 6.015 33.742 4.992 30.961 4.992" fill="#595959"/>
    <polygon points="29.933 1.183 29.933 6.015 30.961 4.99 30.961 2.208" fill="#373737"/>
    <rect x="38.164" y="2.208" width="2.779" height="2.782"/>
    <polygon points="41.97 1.183 37.137 1.183 38.16 2.208 40.943 2.208" fill="#2a2a29"/>
    <polygon points="41.97 6.015 41.97 1.183 40.943 2.211 40.943 4.992" fill="#474747"/>
    <polygon points="37.137 6.015 41.97 6.015 40.94 4.992 38.16 4.992" fill="#595959"/>
    <polygon points="37.135 1.183 37.135 6.015 38.16 4.99 38.16 2.208" fill="#373737"/>
    <rect x="45.361" y="2.208" width="2.78" height="2.782"/>
    <polygon points="49.17 1.183 44.339 1.183 45.359 2.208 48.141 2.208" fill="#2a2a29"/>
    <polygon points="49.17 6.015 49.17 1.183 48.141 2.211 48.141 4.992" fill="#474747"/>
    <polygon points="44.339 6.015 49.168 6.015 48.139 4.992 45.359 4.992" fill="#595959"/>
    <polygon points="44.336 1.183 44.336 6.015 45.359 4.99 45.359 2.208" fill="#373737"/>
    <rect x="52.561" y="2.208" width="2.779" height="2.782"/>
    <polygon points="56.367 1.183 51.535 1.183 52.557 2.208 55.345 2.208" fill="#2a2a29"/>
    <polygon points="56.367 6.015 56.367 1.183 55.345 2.211 55.345 4.992" fill="#474747"/>
    <polygon points="51.535 6.015 56.367 6.015 55.345 4.992 52.557 4.992" fill="#595959"/>
    <polygon points="51.533 1.183 51.533 6.015 52.557 4.99 52.557 2.208" fill="#373737"/>
    <rect x="59.762" y="2.208" width="2.78" height="2.782"/>
    <polygon points="63.568 1.183 58.736 1.183 59.762 2.208 62.546 2.208" fill="#2a2a29"/>
    <polygon points="63.568 6.015 63.568 1.183 62.546 2.211 62.546 4.992" fill="#474747"/>
    <polygon points="58.736 6.015 63.565 6.015 62.543 4.992 59.762 4.992" fill="#595959"/>
    <polygon points="58.734 1.183 58.734 6.015 59.762 4.99 59.762 2.208" fill="#373737"/>
    <rect x="66.964" y="2.208" width="2.778" height="2.782"/>
    <polygon points="70.766 1.183 65.934 1.183 66.961 2.208 69.742 2.208" fill="#2a2a29"/>
    <polygon points="70.766 6.015 70.766 1.183 69.742 2.211 69.742 4.992" fill="#474747"/>
    <polygon points="65.934 6.015 70.764 6.015 69.742 4.992 66.961 4.992" fill="#595959"/>
    <polygon points="65.932 1.183 65.932 6.015 66.961 4.99 66.961 2.208" fill="#373737"/>
   </g>
   <g transform="matrix(1 0 0 1.5293 202.76 87.712)">
    <polygon points="-0.565 5.587 -0.565 8.927 -0.565 12.861 0.942 14.372 4.877 14.372 6.389 12.861 6.389 8.927 6.389 5.587 6.389 1.654 4.877 0.143 0.942 0.143 -0.565 1.654" fill="#404040"/>
   </g>
   <g transform="rotate(270)">
    <rect x="-106.62" y="205.03" width="1.184" height="1.185" fill="#8c8663"/>
   </g>
   <g transform="translate(202.57 95.126)">
    <polygon points="4.196 12.046 4.196 9.748 3.639 10.306 3.639 11.486" fill="#b8af82"/>
    <polygon points="3.639 11.486 4.196 12.046 1.899 12.046 2.454 11.486" fill="#80795b"/>
    <polygon points="1.899 9.748 2.454 10.306 2.454 11.486 1.899 12.046" fill="#5e5b43"/>
    <polygon points="3.639 10.306 2.454 10.306 1.899 9.748 4.196 9.748" fill="#9a916c"/>
   </g>
   <g transform="rotate(270)">
    <rect x="-99.415" y="205.06" width="1.184" height="1.187" fill="#8c8663"/>
   </g>
   <g transform="translate(202.6 95.126)">
    <polygon points="4.196 2.55 3.639 3.107 3.639 4.287 4.196 4.846" fill="#b8af82"/>
    <polygon points="1.899 4.846 2.454 4.287 3.639 4.287 4.196 4.846" fill="#80795b"/>
    <polygon points="1.899 4.846 1.899 2.55 2.454 3.107 2.454 4.287" fill="#5e5b43"/>
    <polygon points="3.639 3.107 2.454 3.107 1.899 2.55 4.196 2.55" fill="#9a916c"/>
   </g>
   <g transform="rotate(270)">
    <rect x="-92.212" y="205.06" width="1.184" height="1.187" fill="#8c8663"/>
   </g>
   <g transform="translate(202.61 87.923)">
    <polygon points="3.639 4.287 4.196 4.846 4.196 2.55 3.639 3.107" fill="#b8af82"/>
    <polygon points="3.639 4.287 4.196 4.846 1.899 4.846 2.454 4.287" fill="#80795b"/>
    <polygon points="2.454 3.107 2.454 4.287 1.899 4.846 1.899 2.55" fill="#5e5b43"/>
    <polygon points="1.899 2.55 4.196 2.55 3.639 3.107 2.454 3.107" fill="#9a916c"/>
   </g>
   <g transform="matrix(.13526 0 0 .12474 147.98 77.341)">
    <g transform="scale(-1)">
     <path d="m-192.23-40.249-11.227-33.029-9.3602-28.635 27.943-20.884 24.341-17.751 28.497 20.122 24.403 17.664-10.331 33.321-9.2584 28.668-34.882 0.47109z" fill="#999" stroke-width=".75"/>
    </g>
    <path d="m186.61 47.481-55.179 0.26787-16.071 49.554 64.554-0.53572-19.018 15-12.321-8.0357-27.857 0.26788 39.375 26.25 42.857-31.071 1.0714-0.80358-7.7679-19.554-59.464 0.53571 4.2857-12.857h51.429z" fill="#333" stroke="#000" stroke-width=".6"/>
   </g>
   <g transform="rotate(90 71.038 136.77)">
    <g transform="rotate(-90 1.925 3.7045)">
     <g transform="translate(21.554 31.338)">
      <line x1="-21.535" x2="-21.535" y1="-33.306" y2="-26.07" fill="none"/>
      <g transform="rotate(270 -19.62 -29.632)">
       <rect x="-23.291" y="-31.546" width="7.349" height="3.833" fill="#f2f2f2"/>
      </g>
      <path d="m-21.533-28.561s0.467 0.646 0.426 0.865 0.148 0.541 0 0.678l-0.424-0.021z" fill="#22b573" fill-opacity=".7"/>
      <g transform="rotate(270 -19.592 -29.703)">
       <rect x="-20.017" y="-30.18" width=".854" height=".961" fill="#fff"/>
      </g>
      <g transform="rotate(270 -20.073 -29.703)">
       <rect x="-20.497" y="-29.724" width=".854" height=".049" fill="#b3b3b3"/>
      </g>
      <g fill="#d1c690">
       <polygon points="-20.482 -27.018 -20.586 -27.981 -21.109 -27.981 -21.213 -27.018"/>
       <path d="m-20.91-27.919v-8e-3c0.035-0.269 0.104-0.447 0.162-0.601 0.08-0.209 0.782-0.561 0.696-0.826-0.012-0.026 0.011-0.063 0.043-0.065 0.035-8e-3 0.068 0.011 0.078 0.039 0.095 0.306-0.617 0.674-0.701 0.894-0.06 0.147-0.123 0.317-0.155 0.571-4e-3 0.029-0.033 0.056-0.068 0.05-0.03-6e-3 -0.055-0.028-0.055-0.054z"/>
       <polygon points="-18.848 -32.368 -18.745 -31.401 -18.221 -31.401 -18.118 -32.368"/>
       <path d="m-19.742-29.749c0-0.025 0.021-0.049 0.047-0.055 0.292-0.063 1.152-1.088 1.152-1.885 0-0.033 0.026-0.062 0.063-0.062 0.034 2e-3 0.063 0.022 0.063 0.062v2e-3c0 0.748-0.77 1.891-1.245 1.992-0.035 8e-3 -0.068-0.016-0.078-0.041-2e-3 -3e-3 -2e-3 -7e-3 -2e-3 -0.013z"/>
       <path d="m-19.758-29.278s2e-3 -0.354-0.311-0.383v0.383z"/>
       <path d="m-19.439-29.712s-0.306 0.157-0.351 0.054c-0.048-0.107-0.052-0.179 0.028-0.24 0.084-0.062 0.323 0.186 0.323 0.186z"/>
      </g>
      <g fill="#9d956c">
       <path d="m-20.107-29.354c0.084 0.271-0.618 0.617-0.698 0.826-0.06 0.146-0.127 0.33-0.162 0.601h0.059c0.035-0.269 0.104-0.447 0.162-0.601 0.08-0.209 0.782-0.561 0.696-0.826z"/>
       <polygon points="-18.848 -32.368 -18.745 -31.401 -18.8 -31.401 -18.903 -32.368"/>
       <path d="m-19.752-29.805c0.291-0.063 1.212-1.069 1.149-1.885h0.06c0.06 0.877-0.86 1.824-1.152 1.888z"/>
       <path d="m-20.125-29.661v0.381h0.057v-0.381z"/>
       <path d="m-19.814-29.901c-0.08 0.063-0.076 0.131-0.031 0.237l0.06 3e-3c-0.049-0.107-0.052-0.18 0.028-0.24z"/>
      </g>
      <g transform="rotate(270 -17.73 -29.717)">
       <rect x="-19.839" y="-29.738" width="4.225" height=".051" enable-background="new    " fill="#fff" opacity=".5"/>
      </g>
      <path d="m-17.701-32.35h-3.831v5.316l3.831 4e-3z" enable-background="new    " fill="#f2f2f2" opacity=".5"/>
      <path d="m-18.352-32.298h0.271c0.151 0.019 0.271-0.013 0.271 0.099v4.854c0 0.168-0.065 0.176-0.065-0.014v-4.348c0-0.457-0.105-0.52-0.197-0.52l-0.272 4e-3c-0.182 0-0.182-0.075-8e-3 -0.075z" enable-background="new    " fill="#fff" opacity=".55"/>
      <path d="m-21.311-27.171c-0.068 0-0.138 0.013-0.138-0.099v-4.817c0-0.168 0.065-0.177 0.065 9e-3 0 0.137 2e-3 3.139 2e-3 3.59 1e-3 0.593 0.071 1.317 0.071 1.317z" enable-background="new    " opacity=".03"/>
      <path d="m-21.533-33.309v0.771h0.521c0.125 0 0.213 0.08 0.268 0.188h3.047v-1.01h-3.834" fill="#d1c690"/>
      <g transform="rotate(270 -17.728 -32.852)">
       <rect x="-18.229" y="-32.873" width="1.007" height=".052" enable-background="new    " fill="#fff" opacity=".5"/>
      </g>
      <path d="m-21.533-25.96h3.833v-1.071h-3.464c-0.056 0.104-0.146 0.19-0.271 0.19h-0.1v0.83" fill="#d1c690"/>
      <g transform="rotate(270 -17.729 -26.495)">
       <rect x="-18.26" y="-26.517" width="1.07" height=".052" enable-background="new    " fill="#fff" opacity=".5"/>
      </g>
     </g>
    </g>
   </g>
   <g transform="rotate(90 -41.369 71.49)">
    <g transform="rotate(-90 1.925 3.7045)">
     <g transform="translate(21.554 31.338)">
      <line x1="-23.902" x2="-23.902" y1="-37.873" y2="-30.637" fill="none"/>
      <g transform="rotate(270 -21.988 -34.198)">
       <rect x="-25.658" y="-36.111" width="7.348" height="3.833" fill="#f2f2f2"/>
      </g>
      <path d="m-23.902-33.129s0.467 0.645 0.426 0.867c-0.041 0.219 0.148 0.541 0 0.676l-0.424-0.018z" fill="#22b573" fill-opacity=".7"/>
      <g transform="rotate(270 -21.959 -34.27)">
       <rect x="-22.382" y="-34.748" width=".854" height=".961" fill="#fff"/>
      </g>
      <g transform="rotate(270 -22.44 -34.269)">
       <rect x="-22.863" y="-34.29" width=".854" height=".049" fill="#b3b3b3"/>
      </g>
      <g fill="#d1c690">
       <polygon points="-22.954 -32.549 -23.476 -32.549 -23.582 -31.585 -22.849 -31.585"/>
       <path d="m-23.279-32.488v-8e-3c0.035-0.266 0.104-0.447 0.162-0.598 0.08-0.209 0.782-0.559 0.696-0.828-0.012-0.027 0.011-0.06 0.043-0.066 0.035-8e-3 0.068 0.01 0.078 0.039 0.095 0.305-0.617 0.674-0.701 0.893-0.06 0.148-0.123 0.318-0.155 0.572-4e-3 0.029-0.033 0.055-0.068 0.049-0.03-1e-3 -0.055-0.025-0.055-0.053z"/>
       <polygon points="-21.114 -35.969 -20.59 -35.969 -20.487 -36.933 -21.217 -36.933"/>
       <path d="m-22.111-34.316c0-0.025 0.02-0.049 0.047-0.055 0.292-0.063 1.152-1.088 1.152-1.885 0-0.033 0.026-0.057 0.063-0.057 0.034 2e-3 0.063 0.025 0.063 0.057v2e-3c0 0.749-0.77 1.891-1.245 1.993-0.035 8e-3 -0.068-0.012-0.078-0.041-2e-3 -2e-3 -2e-3 -7e-3 -2e-3 -0.014z"/>
       <path d="m-22.127-33.845s2e-3 -0.356-0.311-0.383v0.383z"/>
       <path d="m-21.806-34.281s-0.306 0.158-0.351 0.053c-0.048-0.107-0.052-0.178 0.028-0.24 0.082-0.061 0.323 0.187 0.323 0.187z"/>
      </g>
      <g fill="#9d956c">
       <path d="m-22.474-33.922c0.084 0.27-0.618 0.619-0.698 0.828-0.06 0.145-0.127 0.33-0.162 0.598h0.059c0.035-0.266 0.104-0.447 0.162-0.598 0.08-0.209 0.782-0.559 0.696-0.828z"/>
       <polygon points="-21.114 -35.969 -21.169 -35.969 -21.272 -36.933 -21.217 -36.933"/>
       <path d="m-22.119-34.371c0.291-0.062 1.212-1.07 1.149-1.885h0.06c0.06 0.877-0.86 1.826-1.152 1.887z"/>
       <path d="m-22.492-34.227v0.381h0.057v-0.381z"/>
       <path d="m-22.181-34.469c-0.08 0.063-0.076 0.131-0.031 0.238l0.06 2e-3c-0.049-0.107-0.052-0.179 0.028-0.24z"/>
      </g>
      <g transform="rotate(270 -20.097 -34.284)">
       <rect x="-22.205" y="-34.308" width="4.223" height=".051" enable-background="new    " fill="#fff" opacity=".5"/>
      </g>
      <path d="m-20.069-36.916h-3.831v5.317l3.831 4e-3z" enable-background="new    " fill="#f2f2f2" opacity=".5"/>
      <path d="m-20.719-36.866h0.271c0.151 0.018 0.271-0.012 0.271 0.098v4.854c0 0.168-0.065 0.176-0.065-0.012v-4.346c0-0.457-0.105-0.518-0.197-0.518l-0.272 2e-3c-0.182 0-0.182-0.078-8e-3 -0.078z" enable-background="new    " fill="#fff" opacity=".55"/>
      <path d="m-23.678-31.74c-0.068 0-0.138 0.012-0.138-0.098v-4.817c0-0.168 0.065-0.176 0.065 8e-3 0 0.135 2e-3 3.138 2e-3 3.589-1e-3 0.595 0.071 1.318 0.071 1.318z" enable-background="new    " opacity=".03"/>
      <path d="m-23.902-37.874v0.771h0.521c0.125 0 0.213 0.08 0.268 0.188h3.047v-1.01h-3.834" fill="#d1c690"/>
      <g transform="rotate(270 -20.097 -37.419)">
       <rect x="-20.596" y="-37.443" width="1.006" height=".052" enable-background="new    " fill="#fff" opacity=".5"/>
      </g>
      <path d="m-23.902-30.529h3.833v-1.071h-3.464c-0.056 0.104-0.146 0.191-0.271 0.191h-0.1v0.829" fill="#d1c690"/>
      <g transform="rotate(270 -20.096 -31.062)">
       <rect x="-20.628" y="-31.084" width="1.072" height=".052" enable-background="new    " fill="#fff" opacity=".5"/>
      </g>
     </g>
    </g>
   </g>
   <g transform="translate(60.932 -4.1905)">
    <g transform="translate(-52.151 36.591)">
     <g transform="rotate(-90 7.299 6.521)">
      <polygon points="3.229 29.526 3.229 35.772 19.208 35.772 19.208 15.015 3.229 15.015 3.229 21.262 3.597 21.262 3.597 29.526" fill="#ccc"/>
      <polygon points="21.768 21.262 21.768 15.015 5.908 15.015 5.908 35.772 21.768 35.772 21.768 29.526 21.399 29.526 21.399 21.262" fill="#ccc"/>
      <circle cx="12.496" cy="25.395" r="5.117" fill="#641d1c"/>
      <path d="m12.746 30.51c2.827 0 5.118-2.289 5.118-5.114 0-2.826-2.289-5.12-5.118-5.12h-0.249c2.827 0 5.118 2.292 5.118 5.12 0 2.825-2.291 5.114-5.118 5.114z" enable-background="new    " opacity=".2"/>
      <circle cx="12.497" cy="25.395" r="4.93" fill="#852725"/>
      <circle cx="12.381" cy="25.395" r="4.929" fill="#f55"/>
      <path d="m7.568 25.512c0 2.724 2.206 4.931 4.931 4.931 2.724 0 4.929-2.207 4.929-4.931v-0.233c0 2.724-2.208 4.931-4.929 4.931-2.725 0-4.931-2.207-4.931-4.931z" enable-background="new    " opacity=".1"/>
      <path d="m17.427 25.512c0-2.725-2.208-4.93-4.929-4.93-2.725 0-4.931 2.205-4.931 4.93v-0.233c0-2.724 2.206-4.931 4.931-4.931 2.724 0 4.929 2.207 4.929 4.931z" enable-background="new    " fill="#fff" opacity=".2"/>
      <g transform="rotate(270 3.4129 18.138)">
       <rect x=".291" y="17.954" width="6.248" height=".371" enable-background="new    " fill="#fff" opacity=".2"/>
      </g>
      <g transform="rotate(270 3.4134 32.649)">
       <rect x=".293" y="32.465" width="6.244" height=".371" enable-background="new    " fill="#fff" opacity=".2"/>
      </g>
      <g transform="rotate(270 3.7789 25.393)">
       <rect x="-.352" y="25.212" width="8.266" height=".368" enable-background="new    " fill="#fff" opacity=".2"/>
      </g>
      <g transform="rotate(270 21.568 18.138)">
       <rect x="18.446" y="17.957" width="6.248" height=".368" enable-background="new    " opacity=".2"/>
      </g>
      <g transform="rotate(270 21.566 32.648)">
       <rect x="18.446" y="32.465" width="6.244" height=".369" enable-background="new    " opacity=".2"/>
      </g>
      <g transform="rotate(270 21.198 25.394)">
       <rect x="17.066" y="25.212" width="8.267" height=".369" enable-background="new    " opacity=".2"/>
      </g>
     </g>
     <g fill="#e6e6e6">
      <rect x="36.573" y="6.322" width="2.75" height="2.251"/>
      <rect x="36.573" y="-5.929" width="2.75" height="2.252"/>
      <rect x="13.198" y="-.47" width="2.75" height="3.417"/>
      <rect x="13.198" y="6.322" width="2.75" height="2.251"/>
      <rect x="13.198" y="-5.929" width="2.75" height="2.252"/>
     </g>
     <g fill="#fff">
      <rect x="13.198" y="-.47" width=".334" height="3.417" enable-background="new    " opacity=".2"/>
      <rect x="13.198" y="6.322" width=".334" height="2.251" enable-background="new    " opacity=".2"/>
      <rect x="13.198" y="-5.929" width=".334" height="2.252" enable-background="new    " opacity=".2"/>
     </g>
     <rect x="39.263" y="6.303" width=".104" height="2.251" enable-background="new    " opacity=".2"/>
     <rect x="39.263" y="-5.948" width=".104" height="2.252" enable-background="new    " opacity=".2"/>
     <rect x="36.589" y="6.335" width=".334" height="2.251" enable-background="new    " opacity=".1"/>
     <rect x="36.589" y="-5.916" width=".334" height="2.252" enable-background="new    " opacity=".1"/>
    </g>
    <g transform="matrix(.75 0 0 .75 9.572 -.22119)">
     <path d="m-49.265 57.227c-2.3291-0.88408-4.5321-3.8547-4.5286-6.1065 0.0068-4.3122 3.7332-7.3464 7.8186-6.3663 6.0179 1.4437 6.616 9.8242 0.87243 12.223-1.1009 0.45988-3.2662 0.58961-4.1625 0.2494z" fill="#008080" stroke-width=".30202"/>
     <path d="m-48.259 57.605c-1.7113-0.2195-3.2949-1.0961-4.3969-2.4338-0.81094-0.9844-1.3338-2.1995-1.5078-3.5039-0.04903-0.36763-0.04098-1.3824 0.01382-1.7433 0.29977-1.9739 1.3199-3.6092 2.9411-4.7149 2.2399-1.5276 5.2294-1.5602 7.4982-0.08181 0.44783 0.29181 0.7173 0.51202 1.1256 0.91982 1.1281 1.1267 1.8006 2.5444 1.9621 4.1361 0.04046 0.39872 0.0185 1.3162-0.04032 1.6843-0.11114 0.69558-0.31592 1.3411-0.62672 1.9754-1.0279 2.0979-3.0517 3.5185-5.3808 3.7769-0.33346 0.037-1.251 0.02841-1.5883-0.01486zm1.3081-0.03858c1.3055-0.09786 2.4882-0.53934 3.5175-1.313 0.3341-0.25112 0.86584-0.76725 1.1353-1.102 0.75662-0.93987 1.2292-2.0132 1.4107-3.2039 0.07492-0.4916 0.08093-1.3621 0.01278-1.8523-0.09143-0.65768-0.22042-1.1622-0.43185-1.689-0.87705-2.1853-2.8851-3.7509-5.2173-4.0679-0.48867-0.06641-1.3317-0.08012-1.7717-0.02883-1.3806 0.16096-2.6961 0.75976-3.6942 1.6816-0.6372 0.58849-1.0937 1.1978-1.4627 1.9522-0.31802 0.65019-0.50976 1.2512-0.61324 1.922-0.0608 0.39414-0.08147 1.2042-0.04096 1.6048 0.12904 1.276 0.59662 2.4404 1.3867 3.4532 0.24128 0.30931 0.78005 0.86081 1.1019 1.1279 0.89264 0.74086 1.9871 1.2468 3.1055 1.4356 0.57736 0.09746 1.0213 0.12009 1.5617 0.07959z" fill="#666" stroke-width=".026695"/>
     <path d="m-41.79 53.971c0.0072-0.02202 0.07302-0.17866 0.14627-0.34807 0.26143-0.60469 0.44569-1.3261 0.51449-2.0143 0.05898-0.58997 0.0059-1.4592-0.12539-2.0534-0.45061-2.0395-1.7939-3.6815-3.6469-4.4578-1.3494-0.56533-2.7908-0.68686-4.1336-0.3485-0.79728 0.20091-1.5995 0.58892-2.2443 1.0855-0.32001 0.24645-0.80135 0.71524-1.0498 1.0225-0.85719 1.0598-1.377 2.4204-1.4633 3.8307-0.0084 0.13697-0.0093 0.13428-0.01393-0.04021-6e-3 -0.22813 0.05663-0.7815 0.12829-1.1332 0.18873-0.92611 0.59026-1.8147 1.1827-2.6173 0.23203-0.31434 0.77722-0.85779 1.1164-1.1129 0.99314-0.74682 2.1583-1.2003 3.3871-1.3182 0.4042-0.03878 1.1519-0.01833 1.5483 0.04235 1.3006 0.19906 2.4839 0.75924 3.4478 1.6322 1.0426 0.94424 1.744 2.3073 1.962 3.813 0.05738 0.39631 0.06452 1.3231 0.01306 1.6951-0.0939 0.67882-0.27803 1.3244-0.54938 1.9263-0.13065 0.28978-0.26302 0.52839-0.21976 0.39614z" fill="#666" stroke-width=".026695"/>
     <g fill="#999" stroke-width=".026695">
      <path d="m-41.47 48.159c-0.49826-1.0439-1.3624-2.032-2.3313-2.6657-2.0336-1.3301-4.6381-1.4295-6.7626-0.25817-0.29044 0.16014-0.37529 0.17423-0.13281 0.02206 1.0183-0.63906 2.4235-1.0222 3.5319-0.96299 0.98925 0.05283 1.7964 0.25736 2.6294 0.6663 1.0743 0.52737 1.9341 1.2805 2.6068 2.2833 0.19466 0.2902 0.62353 1.1205 0.60597 1.1732-0.0055 0.01646-0.07181-0.09962-0.14738-0.25795z"/>
      <path d="m-50.143 56.885c-1.0355-0.44801-1.8517-1.0815-2.4976-1.9386-0.94023-1.2476-1.4095-2.8117-1.3062-4.3542 0.05584-0.8345 0.244-1.5792 0.59821-2.3678 0.12777-0.28444 0.46461-0.85974 0.48906-0.83529 7e-3 7e-3 -0.03126 0.08532-0.0851 0.17395-0.36098 0.59424-0.67821 1.4923-0.80282 2.2728-0.06733 0.42171-0.08178 1.2889-0.02905 1.7434 0.2003 1.7268 1.0543 3.2867 2.3937 4.3723 0.28154 0.22819 1.0391 0.7392 1.3867 0.93543 0.28701 0.16202 0.23052 0.16124-0.14682-2e-3z"/>
      <path d="m-47.033 57.399c0.05139-0.0064 0.24359-0.03023 0.42712-0.05288 0.44156-0.05449 0.91016-0.15506 1.2547-0.26926 0.57523-0.19069 1.3643-0.63532 1.9115-1.0771 0.42853-0.34599 0.95087-0.92536 1.3127-1.4561 0.05139-0.07536 0.08792-0.1357 0.10418-0.17206 0.0098-0.02202 0.02606-0.04605 0.03603-0.05339 0.01-0.0073 0.07243-0.10344 0.13879-0.21356 0.51355-0.8521 0.82786-1.9286 0.8652-2.9631 0.04291-1.189-0.17054-2.1948-0.68784-3.241-0.08646-0.17487-0.15242-0.32273-0.14658-0.32857 0.01883-0.01883 0.27949 0.45738 0.40376 0.73768 0.24697 0.55703 0.41548 1.138 0.51167 1.7641 0.05859 0.38139 0.06604 1.38 0.01315 1.7619-0.16064 1.1595-0.57696 2.1746-1.2811 3.1233-0.23816 0.32091-1.04 1.1479-1.113 1.1479-0.02186 0-0.03974 0.01231-0.03974 0.02736s-0.03003 0.03877-0.06674 0.05273c-0.03671 0.01395-0.06674 0.03969-0.06674 0.05718s-7e-3 0.02485-0.01545 0.01635c-0.0085-0.0085-0.12562 0.05615-0.26028 0.14367-0.8834 0.57418-2.074 0.95796-3.0878 0.99534-0.16885 0.0062-0.26495 0.0061-0.21356-3.73e-4z"/>
     </g>
     <path d="m-47.793 57.545c-0.97088-0.05008-2.0369-0.36498-2.8508-0.84212-0.11452-0.06714-0.20337-0.12693-0.19744-0.13286 0.0059-0.0059 0.13801 0.05444 0.2935 0.13417 0.15549 0.07972 0.41246 0.19469 0.57103 0.25548 0.15858 0.06079 0.40845 0.15706 0.55527 0.21394 0.51736 0.20041 0.83355 0.24544 1.6818 0.2395 0.33769-0.0024 0.6813-0.0024 0.76357 2.3e-5 0.75167 0.02174 2.1419-0.35177 2.8481-0.76519 0.06306-0.03692 0.12103-0.06075 0.12882-0.05297 0.04664 0.04664-0.857 0.47179-1.344 0.63232-0.80402 0.26504-1.5629 0.36346-2.4499 0.31771z" fill="#e6e6e6" stroke-width=".026695"/>
     <path d="m-51.344 55.968c-0.54395-0.43311-1.127-1.0965-1.4967-1.7028-0.21415-0.35122-0.4674-0.88771-0.59682-1.2643-0.14981-0.43594-0.13593-0.47306 0.02634-0.07044 0.4192 1.0401 1.1199 2.0491 2.0217 2.9111 0.18356 0.17546 0.32294 0.31873 0.30973 0.31838-0.01321-3.53e-4 -0.13213-0.08673-0.26427-0.19194z" fill="#e6e6e6" stroke-width=".026695"/>
     <g fill="#808080">
      <g stroke-width=".026695">
       <path d="m-53.09 54.384c-0.0747-0.1133-0.13583-0.2155-0.13583-0.2271s-0.01502-0.03696-0.03337-0.05636c-0.07181-0.07592-0.48371-0.98901-0.54577-1.2099-0.15058-0.5359-0.18833-0.68901-0.21056-0.85424-0.0079-0.05873-0.02029-0.12445-0.02753-0.14605-0.0072-0.0216-0.01907-0.11169-0.02629-0.20021-0.0072-0.08852-0.0246-0.25673-0.03862-0.3738-0.06317-0.52753 9e-3 -1.3485 0.18085-2.0562 0.03921-0.1615 0.07339-0.30265 0.07596-0.31366 0.0026-0.01101 0.0071-0.02303 0.01-0.0267 0.0029-0.0037 0.0103-0.0333 0.01638-0.06584 0.02169-0.11604 0.26045-0.68091 0.42821-1.0131 0.14969-0.2964 0.4683-0.81146 0.56373-0.91133 0.01833-0.01918 0.09056-0.10928 0.16053-0.20021 0.14417-0.18739 0.34641-0.40764 0.58102-0.63274 0.1393-0.13365 0.23101-0.2145 0.48109-0.42409 0.02968-0.02488 0.11377-0.08624 0.18686-0.13636s0.14491-0.10063 0.15959-0.11224c0.1108-0.08762 0.43567-0.2825 0.73411-0.44036 0.41656-0.22036 1.149-0.47641 1.6684-0.58326 0.16937-0.03484 0.36038-0.04477 0.36038-0.01874 0 0.01457-0.03551 0.02236-0.07892 0.01731-0.0434-0.0051-0.08546 0.0014-0.09346 0.01434s-0.03856 0.01725-0.06791 0.0096c-0.02935-0.0077-0.05336-0.0017-0.05336 0.01335 0 0.01502-0.02403 0.02103-0.05339 0.01335-0.02936-0.0077-0.05339-0.0017-0.05339 0.01335 0 0.01502-0.02403 0.02103-0.05339 0.01335-0.02936-0.0077-0.05339-9.25e-4 -0.05339 0.01501 0 0.01593-0.0163 0.02272-0.03623 0.01507-0.04748-0.01822-0.56255 0.14909-0.91996 0.29883-1.8511 0.77553-3.2675 2.4133-3.7835 4.3746-0.2695 1.0244-0.29834 2.2403-0.07686 3.2404 0.14342 0.64757 0.44965 1.4164 0.78182 1.9627 0.06152 0.1012 0.10662 0.18923 0.10022 0.19564-0.0064 0.0064-0.07277-0.08106-0.14747-0.19436z"/>
       <path d="m-51.479 55.84c-0.64716-0.55668-1.2197-1.2856-1.5915-2.0261-0.18764-0.37374-0.39145-0.86486-0.37696-0.90832 0.0051-0.01519 0.03103 0.03135 0.0577 0.10344 0.07072 0.19116 0.40834 0.83937 0.58701 1.127 0.32593 0.52476 0.7154 1.0079 1.236 1.5334 0.20002 0.20188 0.35264 0.36677 0.33915 0.36642-0.01349-3.47e-4 -0.12664-0.08846-0.25144-0.19581z"/>
       <path d="m-50.224 56.84c-1.3621-0.61664-2.3621-1.5772-3.0302-2.9107-0.83134-1.6592-0.91839-3.6078-0.23813-5.3309 0.13081-0.33135 0.35405-0.79732 0.37294-0.77843 6e-3 6e-3 -0.04823 0.14372-0.12062 0.30594-0.255 0.57146-0.46407 1.2988-0.5359 1.8643-0.04796 0.3776-0.04055 1.4123 0.01262 1.7619 0.25975 1.7075 1.1495 3.2535 2.4522 4.2607 0.26875 0.20781 0.90701 0.6403 1.2139 0.82257 0.18179 0.10796 0.22119 0.13829 0.17352 0.13356-0.01101-0.0011-0.14615-0.05909-0.30032-0.12888z"/>
       <path d="m-47.808 57.527c-0.33254-0.01656-0.92612-0.10151-1.0945-0.15664-0.06915-0.02264-0.06368-0.02415 0.04004-0.01105 0.41672 0.05263 0.65907 0.06389 1.3748 0.06388 1.0677-2e-5 1.5121-0.06526 2.3737-0.34843 0.21907-0.072 0.40302-0.12619 0.40878-0.12043 0.02703 0.02703-0.72997 0.29596-1.0935 0.38848-0.64897 0.16515-1.2624 0.22138-2.0093 0.18419z"/>
       <path d="m-53.321 48.056c0-0.02025 0.07404-0.17008 0.16453-0.33295 0.8324-1.4982 2.0745-2.5415 3.6779-3.0889 0.37192-0.12699 0.33536-0.08488-0.04905 0.05651-0.67469 0.24815-1.3136 0.61104-1.858 1.0552-0.3181 0.25958-0.9554 0.88643-1.1392 1.1205-0.2229 0.2839-0.48248 0.66978-0.61057 0.90763-0.14333 0.26614-0.18566 0.33045-0.18566 0.28205z"/>
      </g>
      <g stroke-width=".013347">
       <path d="m-41.037 49.348c-0.05916-0.23476-0.15759-0.53736-0.25072-0.7708-0.03592-0.09005-0.06532-0.16607-0.06532-0.16893 0-0.0029 0.01115-0.0023 0.02478 0.0013s0.03126 0.02553 0.03918 0.0488c0.0079 0.02328 0.04521 0.12942 0.08286 0.23586 0.07691 0.21747 0.14174 0.44071 0.19334 0.66583 0.0524 0.22857 0.03422 0.21951-0.02413-0.01203z"/>
       <path d="m-41.931 47.43c-0.05662-0.09401-0.15398-0.24231-0.21636-0.32957-0.06238-0.08725-0.11063-0.16143-0.10722-0.16484 0.0084-0.0084 0.25042 0.3181 0.36075 0.48672 0.06551 0.10012 0.08619 0.14215 0.07756 0.15758-0.0091 0.0162-0.03547-0.01831-0.11472-0.14988z"/>
       <path d="m-51.036 56.467c-0.17145-0.11437-0.47996-0.34304-0.49446-0.36649-0.01548-0.02505 0.01178-0.01034 0.08519 0.04596 0.10463 0.08025 0.34192 0.23801 0.5091 0.33846 0.07685 0.04618 0.1329 0.08396 0.12456 0.08396-0.0083 0-0.02324 0.0031-0.0331 0.0069-0.0099 0.0038-0.09594-0.04516-0.19129-0.10877z"/>
       <path d="m-50.958 56.257c-0.09419-0.06746-0.13253-0.10244-0.12523-0.11425 0.0076-0.01224 0.04851 0.01384 0.14576 0.09282 0.07438 0.06041 0.13524 0.11203 0.13524 0.11472 0 0.01445-0.0327-0.0051-0.15577-0.09329z"/>
       <path d="m-44.006 56.598c-0.01162-0.0074 0.02916-0.03873 0.1268-0.09751 0.07916-0.04765 0.19056-0.11567 0.24755-0.15114 0.05699-0.03548 0.10688-0.06125 0.11086-0.05727 0.0065 0.0065-0.4467 0.31749-0.46187 0.31699-0.0034-1.12e-4 -0.01392-0.0051-0.02334-0.01107z"/>
      </g>
      <g stroke-width=".0094381">
       <path d="m-51.492 45.843c0-0.0084 0.17405-0.14956 0.30649-0.24855 0.21367-0.15969 0.32218-0.2292 0.36436-0.23339 0.02035-2e-3 0.03701-2e-3 0.03701 2.9e-5 0 2e-3 -0.02655 0.01969-0.05899 0.03921-0.11723 0.07056-0.36795 0.24157-0.50331 0.3433-0.13508 0.10152-0.14556 0.10868-0.14556 0.0994z"/>
       <path d="m-48.392 44.376c-0.0032-0.0052 1e-3 -0.0094 0.0094-0.0094s0.01265 0.0042 0.0094 0.0094c-0.0032 0.0052-0.0075 0.0094-0.0094 0.0094-2e-3 0-0.0062-0.0042-0.0094-0.0094z"/>
       <path d="m-47.573 44.444c0.04516-0.0017 0.12161-0.0017 0.16988-1.9e-5 0.04828 0.0017 0.01133 0.0031-0.08211 0.0031-0.09344 1e-5 -0.13294-0.0014-0.08778-0.0031z"/>
       <path d="m-52.86 47.406c-1.34e-4 -0.01883-0.0024-0.02052-0.01432-0.01064-0.03323 0.02758-0.0078-0.01616 0.09089-0.15621 0.184-0.26115 0.48011-0.62865 0.48011-0.59586 0 0.0029-0.04359 0.05971-0.09687 0.12621-0.14125 0.17632-0.30144 0.40463-0.4391 0.62586-0.0187 0.03004-0.02057 0.03101-0.02072 0.01064z"/>
      </g>
     </g>
     <g fill="#4d4d4d">
      <path d="m-53.875 49.807c0.0079-0.09125 0.08455-0.45705 0.13654-0.65123 0.08728-0.32602 0.20586-0.65977 0.35183-0.99022 0.04545-0.10289 0.05916-0.12655 0.06325-0.1092 0.0051 0.02144 0.0062 0.02097 0.03563-0.01473 0.01672-0.02029 0.0304-0.03442 0.0304-0.0314 0 3e-3 -0.03363 0.07513-0.07474 0.16024-0.21216 0.4393-0.38794 0.95114-0.4907 1.4289-0.01563 0.07267-0.03487 0.16186-0.04276 0.1982l-0.01434 0.06607z" stroke-width=".0094381"/>
      <path d="m-48.18 57.604c-0.5015-0.0531-1.1968-0.22813-1.6951-0.42672-2.1058-0.83921-3.6361-2.615-4.1505-4.8164-0.13103-0.56073-0.15406-0.78821-0.15285-1.5103 0.0013-0.77899 0.03122-1.0393 0.19202-1.6702 0.30962-1.2147 0.8949-2.2447 1.7741-3.1221 1.1179-1.1156 2.3997-1.7423 4.0189-1.965 0.36968-0.05084 1.2982-0.04327 1.6951 0.01381 1.1847 0.17037 2.2197 0.59463 3.1783 1.3027 0.33489 0.24738 1.0065 0.90787 1.2706 1.2496 0.77032 0.99669 1.246 2.1423 1.3963 3.3628 0.07803 0.63366 0.04254 1.5817-0.08113 2.1674-0.272 1.2883-0.87039 2.429-1.7598 3.3548-1.0842 1.1285-2.4882 1.8395-4.0443 2.0481-0.29865 0.04003-1.3059 0.04713-1.6417 0.01158zm1.4816-0.05632c0.50441-0.05314 1.0714-0.18586 1.6017-0.37492 0.54241-0.19338 1.3891-0.67411 1.8137-1.0297 0.23811-0.19943 0.76605-0.72371 0.95112-0.94452 0.78601-0.93778 1.3572-2.2861 1.4785-3.49 0.03577-0.35497 0.03578-1.1207 2.6e-5 -1.4759-0.03022-0.30028-0.16472-1.0082-0.21528-1.1332-0.01727-0.04267-0.03359-0.0956-0.03628-0.11762-0.01052-0.08625-0.1306-0.41486-0.15837-0.43338-0.01617-0.01079-0.01969-0.0198-0.0078-0.02002 0.01188-2.14e-4 0.01222-0.01543 7.51e-4 -0.03378-0.01147-0.01835-0.02294-0.04711-0.02549-0.0639-0.01349-0.08867-0.25384-0.5847-0.42792-0.88314-1.0487-1.798-2.9259-3.0179-4.9803-3.2365-0.37833-0.04026-1.4566-0.03261-1.7162 0.01217-0.32768 0.05654-0.47016 0.08528-0.66475 0.13408-0.0983 0.02465-0.19916 0.04876-0.22414 0.05357-0.02499 0.0048-0.04543 0.01057-0.04543 0.01278 0 0.0022-0.03003 0.0094-0.06674 0.01595-0.10584 0.0189-0.3834 0.11908-0.42455 0.15323-0.02061 0.0171-0.04463 0.02962-0.05339 0.02782-0.04129-0.0085-0.29128 0.09992-0.65328 0.28331-0.36607 0.18545-0.42724 0.21826-0.44378 0.23796-0.01804 0.02149-0.10137 0.0717-0.20934 0.12615-0.04907 0.02474-0.0954 0.06111-0.10296 0.08082-0.0076 0.01971-0.02873 0.03584-0.04704 0.03584s-0.06569 0.03003-0.1053 0.06674c-0.03961 0.0367-0.07939 0.06674-0.08842 0.06674-0.01706 0-0.04141 0.02026-0.18978 0.15788-0.04885 0.04531-0.09716 0.08238-0.10735 0.08238-0.0102 0-0.17267 0.15917-0.36104 0.35371-0.44917 0.46387-0.47055 0.48732-0.47055 0.51635 0 0.0136-0.02402 0.03973-0.05339 0.05806-0.02936 0.01834-0.05339 0.05126-0.05339 0.07316s-0.01087 0.03982-0.02416 0.03982-0.05534 0.05321-0.09345 0.11824-0.08432 0.1341-0.10269 0.1535c-0.07179 0.07579-0.19261 0.28378-0.39433 0.67884-0.11574 0.22667-0.20988 0.41485-0.2092 0.41817 6.75e-4 0.0033-0.01113 0.03607-0.02623 0.07278-0.04357 0.10591-0.19669 0.51782-0.20342 0.54725-0.0034 0.01468-0.02046 0.0618-0.038 0.10471s-0.02577 0.09396-0.01829 0.11345c0.0075 0.01949 5.63e-4 0.03544-0.01537 0.03544-0.01593 0-0.02284 0.02345-0.01534 0.05211s0.0037 0.05569-0.0085 0.06006c-0.0278 0.01-0.12111 0.46764-0.15673 0.76876-0.03464 0.29283-0.03494 1.4071-4.23e-4 1.615 0.01462 0.08809 0.02637 0.1866 0.02611 0.21891-2.58e-4 0.03231 0.01023 0.06536 0.02331 0.07344 0.01308 0.0081 0.01748 0.03877 0.0098 0.0682-0.0077 0.02943-6.65e-4 0.06956 0.01562 0.08919 0.01629 0.01962 0.02223 0.04307 0.0132 0.0521-9e-3 9e-3 -0.0073 0.03795 0.0037 0.06428 0.01109 0.02633 0.02469 0.0828 0.03023 0.1255 0.0055 0.0427 0.02188 0.09186 0.0363 0.10924s0.01861 0.03921 0.0093 0.04852c-0.0093 0.0093-0.0033 0.03333 0.01335 0.05339s0.02403 0.04271 0.0164 0.05033c-0.0076 0.0076 3.6e-4 0.04856 0.01774 0.09098 0.01738 0.04241 0.03339 0.08913 0.03557 0.10381 0.0022 0.01468 0.0184 0.0607 0.03604 0.10226s0.04544 0.12865 0.06177 0.19354c0.01634 0.06489 0.041 0.11798 0.05481 0.11798s0.01849 0.0107 0.01041 0.02377c-0.01885 0.0305 0.14501 0.40335 0.17726 0.40335 0.01336 0 0.0167 0.01229 0.0074 0.02731-0.01766 0.02858 0.16135 0.37206 0.21164 0.40608 0.01595 0.01079 0.0193 0.0198 0.0075 0.02002-0.02762 5.25e-4 0.0661 0.16058 0.09402 0.16058 0.01152 0 0.02094 0.01802 0.02094 0.04004s0.01272 0.04004 0.02827 0.04004 0.02178 0.0105 0.01385 0.02334c-0.0079 0.01284 0.01412 0.05414 0.04901 0.09178 0.03489 0.03765 0.05902 0.07286 0.05362 0.07826-0.02754 0.02754 0.47182 0.63773 0.78855 0.96357 0.60632 0.62377 1.1197 1.014 1.7939 1.3635 1.1707 0.60689 2.4247 0.84417 3.7329 0.70636z" stroke-width=".026695"/>
      <path d="m-41.84 47.482c-0.2889-0.47199-0.88449-1.1503-1.3584-1.5471-0.71209-0.59615-1.6436-1.0766-2.5308-1.3054-0.52644-0.13574-0.90696-0.18782-1.4895-0.20386-1.0471-0.02883-1.9662 0.15648-2.9242 0.58962-0.18092 0.08179-0.33402 0.14363-0.34022 0.13743-0.01919-0.01919 0.49865-0.26846 0.82186-0.39562 0.83916-0.33015 1.5982-0.4649 2.4693-0.43838 1.0102 0.03075 1.8023 0.23118 2.7079 0.68512 0.95495 0.4787 1.7025 1.1048 2.3435 1.9629 0.21675 0.29014 0.42306 0.62088 0.40105 0.6429-0.0076 0.0076-0.05277-0.04987-0.1004-0.12768z" stroke-width=".026695"/>
      <path d="m-49.318 44.589c0.01363-0.0055 0.02991-0.0048 0.03618 0.0015 0.0063 0.0063-0.0049 0.01073-0.02477 0.0099-0.02199-9.06e-4 -0.02646-0.0054-0.0114-0.0114z" stroke-width=".018876"/>
      <path d="m-53.298 48.018c0-0.03377 0.16686-0.34183 0.31701-0.58528 0.66595-1.0797 1.5536-1.8937 2.656-2.4356 0.32784-0.16116 0.85145-0.3769 0.91475-0.3769 0.01404 0 0.01299 0.0087-0.0031 0.02595-0.01333 0.01427-0.0349 0.02186-0.04794 0.01686-0.01303-5e-3 -0.02369 8.12e-4 -0.02369 0.01292 0 0.0121-0.0085 0.01676-0.01888 0.01034-0.01038-0.0064-0.01888-0.0029-0.01888 0.0077 0 0.01067-0.01274 0.01451-0.02831 0.0085-0.01557-6e-3 -0.02831-9.61e-4 -0.02831 0.01114 0 0.01211-0.0079 0.01712-0.01757 0.01115-0.0097-6e-3 -0.02299-0.0021-0.02962 0.0086-0.0066 0.01072-0.01995 0.01461-0.02962 0.0086-0.0097-6e-3 -0.01757-0.0014-0.01757 0.01024 0 0.01161-0.0079 0.01622-0.01757 0.01024-0.0097-6e-3 -0.02299-0.0021-0.02962 0.0086-0.0066 0.01072-0.01995 0.0146-0.02962 0.0086-0.0097-6e-3 -0.01757-0.0014-0.01757 0.01024 0 0.01161-0.0078 0.0163-0.01726 0.01044-0.0095-0.0059-0.02024-0.0017-0.02388 0.0092-0.0036 0.01091-0.0256 0.02126-0.0488 0.02301-0.0232 0.0017-0.04219 0.01128-0.04219 0.02118s-0.0053 0.01275-0.01168 0.0063c-0.0064-0.0064-0.02451 0.0011-0.04019 0.01682-0.01568 0.01567-0.0396 0.02424-0.05316 0.01904s-0.02733-0.0029-0.0306 0.0051c-0.0033 8e-3 -0.12911 0.07838-0.27964 0.15644-0.36196 0.18768-0.4047 0.21133-0.41213 0.22804-0.0035 0.0078-0.01833 0.01416-0.03303 0.01416-0.01471 0-0.02674 0.01324-0.02674 0.02943s-9e-3 0.02384-0.02009 0.01701c-0.02256-0.01394-0.23507 0.11996-0.2178 0.13724 0.01395 0.01395-0.02465 0.06171-0.04988 0.06171-0.01038 0-0.0072-0.01485 7e-3 -0.033 0.07917-0.10086-0.42058 0.30838-0.70085 0.57392-0.67022 0.63497-0.9995 1.0409-1.368 1.6865-0.1596 0.27958-0.16093 0.28162-0.16093 0.24551z" stroke-width=".018876"/>
      <path d="m-53.046 54.443c-0.03733-0.05532-0.06788-0.10687-0.06788-0.11454 0-0.0077-0.0056-0.01395-0.01245-0.01395-0.0068 0-0.01668-0.01351-0.02186-0.03003-0.0052-0.01652-0.02022-0.04388-0.03344-0.06081-0.01321-0.01693-0.0376-0.05897-0.0542-0.09343-0.01659-0.03446-0.03909-0.07166-0.04999-0.08268-0.02794-0.02822-0.23195-0.4552-0.33602-0.70329-0.03021-0.07201-0.0665-0.15655-0.08064-0.18786-0.06997-0.15492-0.23616-0.73-0.28441-0.98416-0.1038-0.54682-0.12154-0.745-0.12073-1.3481 7.04e-4 -0.52085 0.0096-0.6317 0.08748-1.0905 0.04326-0.25489 0.15147-0.7255 0.20652-0.89822 0.11317-0.35504 0.43806-1.0557 0.65608-1.4148 0.1049-0.17281 0.30561-0.46974 0.35187-0.52054 0.01337-0.01469 0.08597-0.10478 0.16132-0.20022 0.16742-0.21202 0.68453-0.73378 0.92154-0.92982 0.22246-0.184 0.54716-0.41242 0.7979-0.56132 0.24237-0.14392 0.9385-0.47761 0.99638-0.47761 0.0104 0 0.04724-0.01432 0.08187-0.03182 0.14575-0.07366 0.65548-0.22097 1.019-0.29448 0.17284-0.03495 0.32711-0.04521 0.31199-0.02073-0.0045 0.0073-0.04057 0.01335-0.08008 0.01335s-0.07596 0.0067-0.08099 0.01482c-0.0054 0.0087-0.02781 0.01179-0.05408 0.0075-0.03054-5e-3 -0.05149-7.22e-4 -0.06543 0.01322-0.01291 0.01291-0.03238 0.01754-0.05252 0.01248-0.02048-0.0051-0.03971-3.31e-4 -0.05339 0.01335-0.01351 0.01351-0.03296 0.01848-0.05283 0.01349-0.01885-0.0047-0.03745-6.56e-4 -0.04644 0.01018-0.0082 0.0099-0.04759 0.0219-0.08742 0.02658-0.15023 0.01766-0.73291 0.22444-1.0752 0.38157-1.7086 0.78432-3.0238 2.3245-3.549 4.156-0.26997 0.94147-0.33405 2.06-0.17468 3.0489 0.11766 0.73007 0.41408 1.5461 0.81464 2.2428 0.06029 0.10486 0.10634 0.19394 0.10232 0.19796-4e-3 4e-3 -0.03785-0.03796-0.07518-0.09328z" stroke-width=".013347"/>
     </g>
    </g>
   </g>
  </g>
 </g>
 <g transform="rotate(-90)">
  <text x="-40.117706" y="43.877487" fill="#ffffff" font-family="OCRA" font-size="3.3408">WAKE</text>
 </g>
 <text x="149.76952" y="44.319454" fill="#ffffff" font-family="Droid Sans" font-size="4.8" font-weight="bold" writing-mode="lr" style="font-feature-settings:normal;font-variant-caps:normal;font-variant-ligatures:normal;font-variant-numeric:normal">Freedom </text>
 <text x="149.25275" y="50.291294" fill="#ffffff" font-family="Droid Sans" font-size="4.8" style="font-feature-settings:normal;font-variant-caps:normal;font-variant-ligatures:normal;font-variant-numeric:normal">Everywhere</text>
 <g transform="rotate(-90)" fill="#ffffff" font-family="OCRA">
  <text x="-28.85535" y="70.027649" font-size="3">SDA 18</text>
  <text x="-28.85535" y="62.299206" font-size="3">SCL 19</text>
  <text x="-19.458616" y="43.590111" font-size="3.3408">RESET</text>
 </g>
 <g transform="matrix(.48432 0 0 .44772 95.248 17.074)">
  <g transform="scale(-1)">
   <path d="m-99.03-43.756-3.9607-11.652-3.302-10.102 9.8578-7.3675 8.5868-6.262 10.053 7.0986 8.609 6.2315-3.6446 11.755-3.2662 10.113-12.306 0.16619z" fill="#f2f2f2" stroke-width=".26458"/>
  </g>
  <path d="m97.045 46.307-19.466 0.0945-5.6696 17.481 22.773-0.18899-6.7091 5.2917-4.3467-2.8348-9.8274 0.0945 13.891 9.2604 15.119-10.961 0.37798-0.28348-2.7403-6.8981-20.978 0.18899 1.5119-4.5357h18.143z" fill="#008000" stroke="#000" stroke-width=".21167"/>
  <g fill="#f2f2f2" font-family="Droid Sans" font-size="13.547" letter-spacing="0px" stroke-width=".26458" word-spacing="0px" style="font-feature-settings:normal;font-variant-caps:normal;font-variant-ligatures:normal;font-variant-numeric:normal;line-height:1.25" xml:space="preserve" xmlns:xml="http://www.w3.org/XML/1998/namespace">
                            <text x="25.11673" y="67.507423" fill="#f2f2f2" font-family="Droid Sans" font-size="13.547" stroke-width=".26458" style="font-feature-settings:normal;font-variant-caps:normal;font-variant-ligatures:normal;font-variant-numeric:normal">Five </text>
                        </g>
  <g fill="#f2f2f2" font-family="Droid Sans" font-size="13.547" font-weight="bold" letter-spacing="0px" stroke-width=".26458" word-spacing="0px" style="font-feature-settings:normal;font-variant-caps:normal;font-variant-ligatures:normal;font-variant-numeric:normal;line-height:1.25" xml:space="preserve" xmlns:xml="http://www.w3.org/XML/1998/namespace">
                            <text x="7.9671388" y="67.628983" style="font-feature-settings:normal;font-variant-caps:normal;font-variant-ligatures:normal;font-variant-numeric:normal">Hi</text>
                        
                        
                            <text x="55.824879" y="67.672363" style="font-feature-settings:normal;font-variant-caps:normal;font-variant-ligatures:normal;font-variant-numeric:normal">1</text>
                        </g>
 </g>
</svg>
