<?xml version='1.0' encoding='UTF-8'?>
<!DOCTYPE svg>
<!-- Creator: CorelDRAW X6 -->
<svg xmlns="http://www.w3.org/2000/svg" shape-rendering="geometricPrecision" viewBox="0 0 18493 13209" image-rendering="optimizeQuality" fill-rule="evenodd" xml:space="preserve" width="0.7in" xmlns:xml="http://www.w3.org/XML/1998/namespace" text-rendering="geometricPrecision" version="1.1" clip-rule="evenodd"  height="0.5in">
    <desc >
        <referenceFile >Hirose_DF13-7p-smd-h_bb.svg</referenceFile>
    </desc>
    <g id="DF13-7p-smd-h" gorn="0.1" >
        <metadata id="CorelCorpID_0Corel-Layer" />
        <g id="breadboard" gorn="0.1.1" >
            <g id="icon" gorn="0.1.1.0" >
                <rect fill="#1F7A34" width="18493"  height="13209"/>
                <g >
                    <rect fill="#D2D3D5" x="2278" y="4483" width="13937"  height="1443"/>
                    <g >
                        <rect fill="#E6E7E8" x="3178" y="2959" width="12138"  height="2646"/>
                        <rect fill="#96989A" x="3178" y="5208" width="12138"  height="1200"/>
                    </g>
                    <rect fill="#727376" x="3838" y="2526" width="10817"  height="5123"/>
                    <rect fill="#A9ABAE" x="4098" y="7492" width="10297"  height="156"/>
                    <g >
                        <rect fill="#1F7A34" x="4615" y="6836" width="9250"  height="858"/>
                        <rect fill="#A9ABAE" x="4615" y="6758" width="9250"  height="156"/>
                    </g>
                    <g >
                        <rect fill="#C8C5E2" x="10365" y="1527" width="364"  height="4962"/>
                        <rect fill="#FEFEFE" x="10365" y="6376" width="364"  height="183"/>
                    </g>
                    <g >
                        <rect fill="#C8C5E2" x="11665" y="1527" width="364"  height="4962"/>
                        <rect fill="#FEFEFE" x="11665" y="6376" width="364"  height="183"/>
                    </g>
                    <g >
                        <rect fill="#C8C5E2" x="12965" y="1527" width="364"  height="4962"/>
                        <rect fill="#FEFEFE" x="12965" y="6376" width="364"  height="183"/>
                    </g>
                    <g >
                        <rect fill="#C8C5E2" x="5164" y="1527" width="364"  height="4962"/>
                        <rect fill="#FEFEFE" x="5164" y="6376" width="364"  height="183"/>
                    </g>
                    <g >
                        <rect fill="#C8C5E2" x="6464" y="1527" width="364"  height="4962"/>
                        <rect fill="#FEFEFE" x="6464" y="6376" width="364"  height="183"/>
                    </g>
                    <g >
                        <rect fill="#C8C5E2" x="7764" y="1527" width="364"  height="4962"/>
                        <rect fill="#FEFEFE" x="7764" y="6376" width="364"  height="183"/>
                    </g>
                    <g >
                        <rect fill="#C8C5E2" x="9065" y="1527" width="364"  height="4962"/>
                        <rect fill="#FEFEFE" x="9065" y="6376" width="364"  height="183"/>
                    </g>
                    <rect fill="#FEFEFE" x="3838" y="2163" width="10817"  height="3763"/>
                    <rect fill="#A9ABAE" x="4098" y="5894" width="10297"  height="188"/>
                    <g >
                        <rect fill="#FEFEFE" x="2278" y="4483" width="195"  height="1444"/>
                        <rect fill="#1F7A34" x="2473" y="4975" width="321"  height="436"/>
                        <rect fill="#96989A" x="2278" y="5755" width="195"  height="171"/>
                    </g>
                    <g >
                        <rect fill="#FEFEFE" x="16021" y="4483" width="195"  height="1444"/>
                        <rect fill="#1F7A34" x="15699" y="4975" width="321"  height="436"/>
                        <rect fill="#96989A" x="16021" y="5755" width="195"  height="171"/>
                    </g>
                    <g >
                        <rect fill="#A9ABAE" x="3838" y="5894" width="260"  height="1754"/>
                        <rect fill="#606062" x="4282" y="3614" width="660"  height="1002"/>
                        <rect fill="#D2D3D5" x="4282" y="3614" width="660"  height="156"/>
                        <rect fill="#606062" x="3838" y="6531" width="260"  height="481"/>
                    </g>
                    <g >
                        <rect fill="#A9ABAE" x="14395" y="5894" width="260"  height="1754"/>
                        <rect fill="#606062" x="13568" y="3614" width="660"  height="1002"/>
                        <rect fill="#D2D3D5" x="13568" y="3614" width="660"  height="156"/>
                        <rect fill="#606062" x="14395" y="6531" width="260"  height="481"/>
                    </g>
                </g>
                <text font-family="OCRA" fill="white" x="3662" y="9327" font-size="1100.64" font-weight="500" >HIROSE DF13-7P</text>
                <g transform="matrix(2.64845E-014 -1 1 2.64845E-014 -4756.08 -23744.4)" >
                    <g >
                        <g >
                            <g >
                                <text font-family="OCRA" fill="white" x="-35000" y="6434" font-size="1188.73" font-weight="500" >1</text>
                            </g>
                        </g>
                    </g>
                </g>
                <g transform="matrix(2.64845E-014 -1 1 2.64845E-014 -2114.22 -23744.4)" >
                    <g >
                        <g >
                            <g >
                                <text font-family="OCRA" fill="white" x="-35000" y="6434" font-size="1188.73" font-weight="500" >2</text>
                            </g>
                        </g>
                    </g>
                </g>
                <g transform="matrix(2.64845E-014 -1 1 2.64845E-014 527.54 -23744.4)" >
                    <g >
                        <g >
                            <g >
                                <text font-family="OCRA" fill="white" x="-35000" y="6434" font-size="1188.73" font-weight="500" >3</text>
                            </g>
                        </g>
                    </g>
                </g>
                <g transform="matrix(2.64845E-014 -1 1 2.64845E-014 3169.4 -23744.4)" >
                    <g >
                        <g >
                            <g >
                                <text font-family="OCRA" fill="white" x="-35000" y="6434" font-size="1188.73" font-weight="500" >4</text>
                            </g>
                        </g>
                    </g>
                </g>
                <g transform="matrix(2.64845E-014 -1 1 2.64845E-014 5812.1 -24595.9)" >
                    <g >
                        <g >
                            <g >
                                <text font-family="OCRA" fill="white" x="-35850" y="6434" font-size="1188.73" font-weight="500" >5</text>
                            </g>
                        </g>
                    </g>
                </g>
                <g transform="matrix(2.64845E-014 -1 1 2.64845E-014 8454.17 -24595.1)" >
                    <g >
                        <g >
                            <g >
                                <text font-family="OCRA" fill="white" x="-35850" y="6434" font-size="1188.73" font-weight="500" >6</text>
                            </g>
                        </g>
                    </g>
                </g>
                <g transform="matrix(2.64845E-014 -1 1 2.64845E-014 11094.9 -24595)" >
                    <g >
                        <g >
                            <g >
                                <text font-family="OCRA" fill="white" x="-35850" y="6434" font-size="1188.73" font-weight="500" >7</text>
                            </g>
                        </g>
                    </g>
                </g>
            </g>
            <g id="connector0pin" gorn="0.1.1.1" >
                <rect fill="#8D8C8C" x="899" y="11467" width="844"  height="843"/>
                <rect fill="#8C8663" x="1105" y="11671" width="434"  height="434"/>
                <polygon fill="#B8AF82" points="899,12310 1105,12105 1105,11651 899,11467 " />
                <polygon fill="#80795B" points="1539,11672 1108,11672 899,11467 1743,11467 " />
                <polygon fill="#5E5B43" points="1539,12105 1539,11672 1743,11467 1743,12310 " />
                <polygon fill="#9A916C" points="899,12310 1107,12105 1539,12105 1743,12310 " />
            </g>
            <g id="connector1pin" gorn="0.1.1.2" >
                <rect fill="#8D8C8C" x="3541" y="11467" width="844"  height="843"/>
                <rect fill="#8C8663" x="3747" y="11671" width="434"  height="434"/>
                <polygon fill="#B8AF82" points="3541,12310 3747,12105 3747,11651 3541,11467 " />
                <polygon fill="#80795B" points="4181,11672 3750,11672 3541,11467 4385,11467 " />
                <polygon fill="#5E5B43" points="4181,12105 4181,11672 4385,11467 4385,12310 " />
                <polygon fill="#9A916C" points="3541,12310 3749,12105 4181,12105 4385,12310 " />
            </g>
            <g id="connector2pin" gorn="0.1.1.3" >
                <rect fill="#8D8C8C" x="6183" y="11467" width="844"  height="843"/>
                <rect fill="#8C8663" x="6389" y="11671" width="434"  height="434"/>
                <polygon fill="#B8AF82" points="6183,12310 6389,12105 6389,11651 6183,11467 " />
                <polygon fill="#80795B" points="6822,11672 6392,11672 6183,11467 7026,11467 " />
                <polygon fill="#5E5B43" points="6822,12105 6822,11672 7026,11467 7026,12310 " />
                <polygon fill="#9A916C" points="6183,12310 6391,12105 6822,12105 7026,12310 " />
            </g>
            <g id="connector3pin" gorn="0.1.1.4" >
                <rect fill="#8D8C8C" x="8825" y="11467" width="844"  height="843"/>
                <rect fill="#8C8663" x="9031" y="11671" width="434"  height="434"/>
                <polygon fill="#B8AF82" points="8825,12310 9031,12105 9031,11651 8825,11467 " />
                <polygon fill="#80795B" points="9464,11672 9034,11672 8825,11467 9668,11467 " />
                <polygon fill="#5E5B43" points="9464,12105 9464,11672 9668,11467 9668,12310 " />
                <polygon fill="#9A916C" points="8825,12310 9033,12105 9464,12105 9668,12310 " />
            </g>
            <g id="connector4pin" gorn="0.1.1.5" >
                <rect fill="#8D8C8C" x="11467" y="11467" width="844"  height="843"/>
                <rect fill="#8C8663" x="11672" y="11671" width="434"  height="434"/>
                <polygon fill="#B8AF82" points="11467,12310 11672,12105 11672,11651 11467,11467 " />
                <polygon fill="#80795B" points="12106,11672 11675,11672 11467,11467 12310,11467 " />
                <polygon fill="#5E5B43" points="12106,12105 12106,11672 12310,11467 12310,12310 " />
                <polygon fill="#9A916C" points="11467,12310 11675,12105 12106,12105 12310,12310 " />
            </g>
            <g id="connector5pin" gorn="0.1.1.6" >
                <rect fill="#8D8C8C" x="14108" y="11467" width="844"  height="843"/>
                <rect fill="#8C8663" x="14314" y="11671" width="434"  height="434"/>
                <polygon fill="#B8AF82" points="14108,12310 14314,12104 14314,11651 14108,11467 " />
                <polygon fill="#80795B" points="14748,11672 14317,11672 14108,11467 14952,11467 " />
                <polygon fill="#5E5B43" points="14748,12104 14748,11672 14952,11467 14952,12310 " />
                <polygon fill="#9A916C" points="14108,12310 14317,12104 14748,12104 14952,12310 " />
            </g>
            <g id="connector6pin" gorn="0.1.1.7" >
                <rect fill="#8D8C8C" x="16750" y="11467" width="844"  height="843"/>
                <rect fill="#8C8663" x="16956" y="11671" width="434"  height="434"/>
                <polygon fill="#B8AF82" points="16750,12309 16956,12104 16956,11651 16750,11467 " />
                <polygon fill="#80795B" points="17390,11672 16959,11672 16750,11467 17594,11467 " />
                <polygon fill="#5E5B43" points="17390,12104 17390,11672 17594,11467 17594,12309 " />
                <polygon fill="#9A916C" points="16750,12309 16958,12104 17390,12104 17594,12309 " />
            </g>
        </g>
    </g>
</svg>
