<?xml version="1.0" encoding="UTF-8"?>
<!-- Created with Fritzing (http://www.fritzing.org/) -->
<svg width="2.697in" height="2.104in" version="1.2" viewBox="0 0 194.2 151.5" xmlns="http://www.w3.org/2000/svg">
	<g id="breadboard">
		<path d="m0 148.4v-145.5a2.835 2.835 0 0 1 2.835-2.835h180l4.252 4.252v32.43l7.086 7.087v93.26l-7.086 7.087v4.251a2.835 2.835 0 0 1-2.835 2.835h-181.4a2.835 2.835 0 0 1-2.835-2.835m38.66-141.2a4.536 4.536 0 1 0 9.072 0 4.536 4.536 0 1 0-9.072 0zm-3.6 136.8a4.536 4.536 0 1 0 9.072 0 4.536 4.536 0 1 0-9.072 0zm147.6-14.4a4.536 4.536 0 1 0 9.072 0 4.536 4.536 0 1 0-9.072 0zm0-79.2a4.536 4.536 0 1 0 9.072 0 4.536 4.536 0 1 0-9.072 0zm-165.7 26.53a1.559 1.559 0 1 0 3.118 0 1.559 1.559 0 1 0-3.118 0zm5.641 0a1.417 1.417 0 1 0 2.835 0 1.417 1.417 0 1 0-2.835 0zm-5.641 7.2a1.559 1.559 0 1 0 3.118 0 1.559 1.559 0 1 0-3.118 0zm5.641 0a1.417 1.417 0 1 0 2.835 0 1.417 1.417 0 1 0-2.835 0zm-5.641 7.2a1.559 1.559 0 1 0 3.118 0 1.559 1.559 0 1 0-3.118 0zm5.641 0a1.417 1.417 0 1 0 2.835 0 1.417 1.417 0 1 0-2.835 0zm-5.641 7.2a1.559 1.559 0 1 0 3.118 0 1.559 1.559 0 1 0-3.118 0zm5.641 0a1.417 1.417 0 1 0 2.835 0 1.417 1.417 0 1 0-2.835 0zm-5.641 7.2a1.559 1.559 0 1 0 3.118 0 1.559 1.559 0 1 0-3.118 0zm5.641 0a1.417 1.417 0 1 0 2.835 0 1.417 1.417 0 1 0-2.835 0zm-5.641 7.2a1.559 1.559 0 1 0 3.118 0 1.559 1.559 0 1 0-3.118 0zm5.641 0a1.417 1.417 0 1 0 2.835 0 1.417 1.417 0 1 0-2.835 0zm-5.641 7.2a1.559 1.559 0 1 0 3.118 0 1.559 1.559 0 1 0-3.118 0zm5.641 0a1.417 1.417 0 1 0 2.835 0 1.417 1.417 0 1 0-2.835 0zm-5.641 7.2a1.559 1.559 0 1 0 3.118 0 1.559 1.559 0 1 0-3.118 0zm5.641 0a1.417 1.417 0 1 0 2.835 0 1.417 1.417 0 1 0-2.835 0zm-5.641 7.2a1.559 1.559 0 1 0 3.118 0 1.559 1.559 0 1 0-3.118 0zm5.641 0a1.417 1.417 0 1 0 2.835 0 1.417 1.417 0 1 0-2.835 0zm34.16-50.4a1.559 1.559 0 1 0 3.118 0 1.559 1.559 0 1 0-3.118 0zm-5.358 0a1.417 1.417 0 1 0 2.835 0 1.417 1.417 0 1 0-2.835 0zm5.358 7.2a1.559 1.559 0 1 0 3.118 0 1.559 1.559 0 1 0-3.118 0zm-5.358 0a1.417 1.417 0 1 0 2.835 0 1.417 1.417 0 1 0-2.835 0zm5.358 7.2a1.559 1.559 0 1 0 3.118 0 1.559 1.559 0 1 0-3.118 0zm-5.358 0a1.417 1.417 0 1 0 2.835 0 1.417 1.417 0 1 0-2.835 0zm5.358 7.2a1.559 1.559 0 1 0 3.118 0 1.559 1.559 0 1 0-3.118 0zm-5.358 0a1.417 1.417 0 1 0 2.835 0 1.417 1.417 0 1 0-2.835 0zm5.358 7.2a1.559 1.559 0 1 0 3.118 0 1.559 1.559 0 1 0-3.118 0zm-5.358 0a1.417 1.417 0 1 0 2.835 0 1.417 1.417 0 1 0-2.835 0zm5.358 7.2a1.559 1.559 0 1 0 3.118 0 1.559 1.559 0 1 0-3.118 0zm-5.358 0a1.417 1.417 0 1 0 2.835 0 1.417 1.417 0 1 0-2.835 0zm5.358 7.2a1.559 1.559 0 1 0 3.118 0 1.559 1.559 0 1 0-3.118 0zm-5.358 0a1.417 1.417 0 1 0 2.835 0 1.417 1.417 0 1 0-2.835 0zm5.358 7.2a1.559 1.559 0 1 0 3.118 0 1.559 1.559 0 1 0-3.118 0zm-5.358 0a1.417 1.417 0 1 0 2.835 0 1.417 1.417 0 1 0-2.835 0zm23.16-57.6a1.559 1.559 0 1 0 3.118 0 1.559 1.559 0 1 0-3.118 0zm5.641 0a1.417 1.417 0 1 0 2.835 0 1.417 1.417 0 1 0-2.835 0zm-5.641 7.2a1.559 1.559 0 1 0 3.118 0 1.559 1.559 0 1 0-3.118 0zm5.641 0a1.417 1.417 0 1 0 2.835 0 1.417 1.417 0 1 0-2.835 0zm-5.641 7.2a1.559 1.559 0 1 0 3.118 0 1.559 1.559 0 1 0-3.118 0zm5.641 0a1.417 1.417 0 1 0 2.835 0 1.417 1.417 0 1 0-2.835 0zm-5.641 7.2a1.559 1.559 0 1 0 3.118 0 1.559 1.559 0 1 0-3.118 0zm5.641 0a1.417 1.417 0 1 0 2.835 0 1.417 1.417 0 1 0-2.835 0zm-5.641 7.2a1.559 1.559 0 1 0 3.118 0 1.559 1.559 0 1 0-3.118 0zm5.641 0a1.417 1.417 0 1 0 2.835 0 1.417 1.417 0 1 0-2.835 0zm-5.641 7.2a1.559 1.559 0 1 0 3.118 0 1.559 1.559 0 1 0-3.118 0zm5.641 0a1.417 1.417 0 1 0 2.835 0 1.417 1.417 0 1 0-2.835 0zm-5.641 7.2a1.559 1.559 0 1 0 3.118 0 1.559 1.559 0 1 0-3.118 0zm5.641 0a1.417 1.417 0 1 0 2.835 0 1.417 1.417 0 1 0-2.835 0zm-5.641 7.2a1.559 1.559 0 1 0 3.118 0 1.559 1.559 0 1 0-3.118 0zm5.641 0a1.417 1.417 0 1 0 2.835 0 1.417 1.417 0 1 0-2.835 0zm-5.641 7.2a1.559 1.559 0 1 0 3.118 0 1.559 1.559 0 1 0-3.118 0zm5.641 0a1.417 1.417 0 1 0 2.835 0 1.417 1.417 0 1 0-2.835 0zm34.16-50.4a1.559 1.559 0 1 0 3.118 0 1.559 1.559 0 1 0-3.118 0zm-5.357 0a1.417 1.417 0 1 0 2.835 0 1.417 1.417 0 1 0-2.835 0zm5.357 7.2a1.559 1.559 0 1 0 3.118 0 1.559 1.559 0 1 0-3.118 0zm-5.357 0a1.417 1.417 0 1 0 2.835 0 1.417 1.417 0 1 0-2.835 0zm5.357 7.2a1.559 1.559 0 1 0 3.118 0 1.559 1.559 0 1 0-3.118 0zm-5.357 0a1.417 1.417 0 1 0 2.835 0 1.417 1.417 0 1 0-2.835 0zm5.357 7.2a1.559 1.559 0 1 0 3.118 0 1.559 1.559 0 1 0-3.118 0zm-5.357 0a1.417 1.417 0 1 0 2.835 0 1.417 1.417 0 1 0-2.835 0zm5.357 7.2a1.559 1.559 0 1 0 3.118 0 1.559 1.559 0 1 0-3.118 0zm-5.357 0a1.417 1.417 0 1 0 2.835 0 1.417 1.417 0 1 0-2.835 0zm5.357 7.2a1.559 1.559 0 1 0 3.118 0 1.559 1.559 0 1 0-3.118 0zm-5.357 0a1.417 1.417 0 1 0 2.835 0 1.417 1.417 0 1 0-2.835 0zm5.357 7.2a1.559 1.559 0 1 0 3.118 0 1.559 1.559 0 1 0-3.118 0zm-5.357 0a1.417 1.417 0 1 0 2.835 0 1.417 1.417 0 1 0-2.835 0zm5.357 7.2a1.559 1.559 0 1 0 3.118 0 1.559 1.559 0 1 0-3.118 0zm-5.357 0a1.417 1.417 0 1 0 2.835 0 1.417 1.417 0 1 0-2.835 0zm23.16-57.6a1.559 1.559 0 1 0 3.118 0 1.559 1.559 0 1 0-3.118 0zm5.64 0a1.417 1.417 0 1 0 2.835 0 1.417 1.417 0 1 0-2.835 0zm-5.64 7.2a1.559 1.559 0 1 0 3.118 0 1.559 1.559 0 1 0-3.118 0zm5.64 0a1.417 1.417 0 1 0 2.835 0 1.417 1.417 0 1 0-2.835 0zm-5.64 7.2a1.559 1.559 0 1 0 3.118 0 1.559 1.559 0 1 0-3.118 0zm5.64 0a1.417 1.417 0 1 0 2.835 0 1.417 1.417 0 1 0-2.835 0zm-5.64 7.2a1.559 1.559 0 1 0 3.118 0 1.559 1.559 0 1 0-3.118 0zm5.64 0a1.417 1.417 0 1 0 2.835 0 1.417 1.417 0 1 0-2.835 0zm-5.64 7.2a1.559 1.559 0 1 0 3.118 0 1.559 1.559 0 1 0-3.118 0zm5.64 0a1.417 1.417 0 1 0 2.835 0 1.417 1.417 0 1 0-2.835 0zm-5.64 7.2a1.559 1.559 0 1 0 3.118 0 1.559 1.559 0 1 0-3.118 0zm5.64 0a1.417 1.417 0 1 0 2.835 0 1.417 1.417 0 1 0-2.835 0zm-5.64 7.2a1.559 1.559 0 1 0 3.118 0 1.559 1.559 0 1 0-3.118 0zm5.64 0a1.417 1.417 0 1 0 2.835 0 1.417 1.417 0 1 0-2.835 0zm-5.64 7.2a1.559 1.559 0 1 0 3.118 0 1.559 1.559 0 1 0-3.118 0zm5.64 0a1.417 1.417 0 1 0 2.835 0 1.417 1.417 0 1 0-2.835 0zm-5.64 7.2a1.559 1.559 0 1 0 3.118 0 1.559 1.559 0 1 0-3.118 0zm5.64 0a1.417 1.417 0 1 0 2.835 0 1.417 1.417 0 1 0-2.835 0zm34.16-50.4a1.559 1.559 0 1 0 3.118 0 1.559 1.559 0 1 0-3.118 0zm-5.358 0a1.417 1.417 0 1 0 2.835 0 1.417 1.417 0 1 0-2.835 0zm5.358 7.2a1.559 1.559 0 1 0 3.118 0 1.559 1.559 0 1 0-3.118 0zm-5.358 0a1.417 1.417 0 1 0 2.835 0 1.417 1.417 0 1 0-2.835 0zm5.358 7.2a1.559 1.559 0 1 0 3.118 0 1.559 1.559 0 1 0-3.118 0zm-5.358 0a1.417 1.417 0 1 0 2.835 0 1.417 1.417 0 1 0-2.835 0zm5.358 7.2a1.559 1.559 0 1 0 3.118 0 1.559 1.559 0 1 0-3.118 0zm-5.358 0a1.417 1.417 0 1 0 2.835 0 1.417 1.417 0 1 0-2.835 0zm5.358 7.2a1.559 1.559 0 1 0 3.118 0 1.559 1.559 0 1 0-3.118 0zm-5.358 0a1.417 1.417 0 1 0 2.835 0 1.417 1.417 0 1 0-2.835 0zm5.358 7.2a1.559 1.559 0 1 0 3.118 0 1.559 1.559 0 1 0-3.118 0zm-5.358 0a1.417 1.417 0 1 0 2.835 0 1.417 1.417 0 1 0-2.835 0zm5.358 7.2a1.559 1.559 0 1 0 3.118 0 1.559 1.559 0 1 0-3.118 0zm-5.358 0a1.417 1.417 0 1 0 2.835 0 1.417 1.417 0 1 0-2.835 0zm5.358 7.2a1.559 1.559 0 1 0 3.118 0 1.559 1.559 0 1 0-3.118 0zm-5.358 0a1.417 1.417 0 1 0 2.835 0 1.417 1.417 0 1 0-2.835 0zm-17.12-112.7a1.417 1.417 0 1 0 2.835 0 1.417 1.417 0 1 0-2.835 0zm-7.2 0a1.417 1.417 0 1 0 2.835 0 1.417 1.417 0 1 0-2.835 0zm-7.2 0a1.417 1.417 0 1 0 2.835 0 1.417 1.417 0 1 0-2.835 0zm-57.4 122.1a1.559 1.559 0 1 0 3.118 0 1.559 1.559 0 1 0-3.118 0zm7.2 0a1.559 1.559 0 1 0 3.118 0 1.559 1.559 0 1 0-3.118 0zm7.2 0a1.559 1.559 0 1 0 3.118 0 1.559 1.559 0 1 0-3.118 0zm7.2 0a1.559 1.559 0 1 0 3.118 0 1.559 1.559 0 1 0-3.118 0zm7.2 0a1.559 1.559 0 1 0 3.118 0 1.559 1.559 0 1 0-3.118 0zm7.2 0a1.559 1.559 0 1 0 3.118 0 1.559 1.559 0 1 0-3.118 0zm7.2 0a1.559 1.559 0 1 0 3.118 0 1.559 1.559 0 1 0-3.118 0zm7.2 0a1.559 1.559 0 1 0 3.118 0 1.559 1.559 0 1 0-3.118 0zm-11.52-136.8a1.559 1.559 0 1 0 3.118 0 1.559 1.559 0 1 0-3.118 0zm-7.2 0a1.559 1.559 0 1 0 3.118 0 1.559 1.559 0 1 0-3.118 0zm-7.2 0a1.559 1.559 0 1 0 3.118 0 1.559 1.559 0 1 0-3.118 0zm-7.2 0a1.559 1.559 0 1 0 3.118 0 1.559 1.559 0 1 0-3.118 0zm-7.2 0a1.559 1.559 0 1 0 3.118 0 1.559 1.559 0 1 0-3.118 0zm-7.2 0a1.559 1.559 0 1 0 3.118 0 1.559 1.559 0 1 0-3.118 0zm-7.2 0a1.559 1.559 0 1 0 3.118 0 1.559 1.559 0 1 0-3.118 0zm-7.2 0a1.559 1.559 0 1 0 3.118 0 1.559 1.559 0 1 0-3.118 0zm-7.2 0a1.559 1.559 0 1 0 3.118 0 1.559 1.559 0 1 0-3.118 0zm-7.2 0a1.559 1.559 0 1 0 3.118 0 1.559 1.559 0 1 0-3.118 0zm126.7 1e-3a1.559 1.559 0 1 0 3.118 0 1.559 1.559 0 1 0-3.118 0zm-7.2 0a1.559 1.559 0 1 0 3.118 0 1.559 1.559 0 1 0-3.118 0zm-7.2 0a1.559 1.559 0 1 0 3.118 0 1.559 1.559 0 1 0-3.118 0zm-7.2 0a1.559 1.559 0 1 0 3.118 0 1.559 1.559 0 1 0-3.118 0zm-7.2 0a1.559 1.559 0 1 0 3.118 0 1.559 1.559 0 1 0-3.118 0zm-7.2 0a1.559 1.559 0 1 0 3.118 0 1.559 1.559 0 1 0-3.118 0zm-7.2 0a1.559 1.559 0 1 0 3.118 0 1.559 1.559 0 1 0-3.118 0zm-7.2 0a1.559 1.559 0 1 0 3.118 0 1.559 1.559 0 1 0-3.118 0zm14.4 136.8a1.559 1.559 0 1 0 3.118 0 1.559 1.559 0 1 0-3.118 0zm7.2 0a1.559 1.559 0 1 0 3.118 0 1.559 1.559 0 1 0-3.118 0zm7.2 0a1.559 1.559 0 1 0 3.118 0 1.559 1.559 0 1 0-3.118 0zm7.2 0a1.559 1.559 0 1 0 3.118 0 1.559 1.559 0 1 0-3.118 0zm7.2 0a1.559 1.559 0 1 0 3.118 0 1.559 1.559 0 1 0-3.118 0zm7.2 0a1.559 1.559 0 1 0 3.118 0 1.559 1.559 0 1 0-3.118 0zm-173.6-95.28a1.616 1.616 0 1 0 3.232 0 1.616 1.616 0 1 0-3.232 0zm14.24 97.35a1.417 1.417 0 1 0 2.835 0 1.417 1.417 0 1 0-2.835 0zm-7.2 0a1.417 1.417 0 1 0 2.835 0 1.417 1.417 0 1 0-2.835 0zm-7.2 0a1.417 1.417 0 1 0 2.835 0 1.417 1.417 0 1 0-2.835 0zm-1.365-139.4a1.616 1.616 0 1 0 3.232 0 1.616 1.616 0 1 0-3.232 0zm182.6 55.88a1.616 1.616 0 1 0 3.232 0 1.616 1.616 0 1 0-3.232 0z" fill="#16502d" stroke="#16502d" stroke-width=".452"/>
	</g>
	<g id="icon">
		<g stroke="#fff" stroke-linecap="round" stroke-width=".72">
			<line x1="169.9" x2="169.9" y1="26.73" y2="13.72"/>
			<line x1="131.5" x2="169.9" y1="26.73" y2="26.73"/>
			<line x1="131.5" x2="131.5" y1="26.73" y2="13.72"/>
			<line x1="74.63" x2="74.63" y1="151.2" y2="140.1"/>
			<line x1="-.003464" x2="74.63" y1="140.1" y2="140.1"/>
			<line x1="131.5" x2="169.9" y1="13.72" y2="13.72"/>
		</g>
		<g fill="#fff" font-family="OCRA" stroke-width="0">
			<g font-size="3.5px">
				<text x="0.2605013" y="56.886124">Vref</text>
				<text x="0.2605013" y="61.261124">B</text>
			</g>
			<text x="121.69236" y="19.905491" font-size="3.5">9</text>
			<text x="133.36084" y="17.068768" font-size="3.5">5V</text>
		</g>
		<g transform="translate(-1.396 .4652)">
			<text x="45.476631" y="144.3116" fill="#fff" font-family="OCRA" font-size="3.5" stroke-width="0">IOREF Select</text>
		</g>
		<g fill="#fff" font-family="OCRA" stroke-width="0">
			<g font-size="3.5px">
				<text x="-0.16720042" y="15.288768">Vref</text>
				<text x="-0.16720042" y="19.663767">A</text>
			</g>
			<text x="139.02563" y="17.065351" font-size="3.5">AREF</text>
			<text x="0.67750931" y="33.052719" font-size="3.5">DIS</text>
		</g>
		<g transform="translate(182.7 38.31)">
			<text x="0.67750931" y="33.052719" fill="#fff" font-family="OCRA" font-size="4" stroke-width="0">GND</text>
		</g>
		<g transform="translate(192.5 123.4)">
			<g transform="rotate(-90)">
				<text x="1.7333535" y="-2.5605955" fill="#fff" font-family="OCRA" font-size="7.087" stroke-width="0">V 1.0.1</text>
			</g>
		</g>
		<g fill="#fff" font-family="OCRA" stroke-width="0">
			<g font-size="3.5">
				<text x="45.1469" y="148.83">5V</text>
				<text x="52.007198" y="148.856">IOREF</text>
				<text x="148.63242" y="17.179245">3V3</text>
			</g>
			<text x="155.98181" y="21.559214" font-size="4.5">AREF</text>
			<text x="155.47554" y="24.779272" font-size="3.3">Select</text>
			<g font-size="3.5">
				<text x="65.800797" y="148.836">3V3</text>
				<text x="45.160198" y="26.5987">17</text>
				<text x="39.2449" y="26.571301">16</text>
				<text x="33.329601" y="26.571301">15</text>
				<text x="33.342201" y="21.433201">13</text>
				<text x="45.166599" y="21.460899">14</text>
				<text x="45.1772" y="16.3228">12</text>
				<text x="39.261902" y="16.3228">11</text>
			</g>
			<text x="33.3465" y="16.295401" font-size="3.5">10</text>
			<g transform="rotate(-90)">
				<text x="-19.183372" y="20.444998" font-size="3.5">Lvl</text>
				<text x="-19.643587" y="23.94883" font-size="3">Shift</text>
				<text x="-25.647575" y="54.745461" font-size="3.5">Lvl</text>
				<text x="-25.791315" y="58.062771" font-size="3.5">Shift</text>
			</g>
			<g font-size="3.5">
				<text x="93.879913" y="25.581446">8</text>
				<text x="83.806412" y="25.581446">7</text>
				<text x="73.68541" y="25.581446">6</text>
				<text x="63.395206" y="25.549246">5</text>
				<text x="88.793907" y="19.155046">4</text>
				<text x="78.796707" y="19.137747">3</text>
				<text x="68.578613" y="19.165146">2</text>
				<text x="59.018307" y="19.165146">1</text>
				<text x="76.841301" y="149.65199">NC</text>
			</g>
			<text x="81.827209" y="141.11511" font-size="3">IOREF</text>
			<text x="139.38699" y="149.658" font-size="3.5">AN1.2</text>
			<text x="91.240601" y="149.65199" font-size="3.5">NC</text>
			<text x="98.402412" y="141.12111" font-size="3">3V3</text>
			<text x="105.916" y="149.631" font-size="3.5">5V</text>
			<text x="112.05021" y="141.13611" font-size="3">GND</text>
			<text x="118.644" y="149.65199" font-size="3.5">GND</text>
			<text x="127.40021" y="141.13611" font-size="3">VIN</text>
			<text x="147.1922" y="141.14211" font-size="3">AN1.1</text>
			<text x="153.554" y="149.658" font-size="3.5">AN2/3</text>
			<text x="161.20421" y="141.14211" font-size="3">GPIO1</text>
			<text x="169.23199" y="149.63699" font-size="3.5">SDA</text>
			<g font-size="3">
				<text x="177.2982" y="141.12111">SCL</text>
				<text x="121.38181" y="12.748713">GPIO2/3</text>
				<text x="139.79848" y="12.637721">PWM1</text>
				<text x="152.2019" y="12.764714">INT2/3</text>
				<text x="170.48399" y="12.5">TX</text>
			</g>
			<g font-size="3.5">
				<text x="106.805" y="13.0285">RST1</text>
				<text x="92.230598" y="13.0285">MOSI</text>
				<text x="78.512398" y="13.0285">SCK</text>
				<text x="63.0219" y="13.0285">AREF</text>
				<text x="49.972" y="13.0285">SCL</text>
			</g>
			<g font-size="8.504">
				<text x="14.1341" y="36.178101">Socket 1</text>
				<text x="71.7341" y="36.178799">Socket 2</text>
				<text x="129.334" y="36.178101">Socket 3</text>
			</g>
		</g>
		<g stroke="#fff">
			<g stroke-linecap="round" stroke-width=".72">
				<line x1="11.39" x2="11.39" y1="138.1" y2="28.09"/>
				<line x1="11.39" x2="65.37" y1="28.09" y2="28.09"/>
				<line x1="65.37" x2="65.37" y1="138.1" y2="28.09"/>
				<line x1="11.39" x2="65.37" y1="138.1" y2="138.1"/>
			</g>
			<circle cx="49.14" cy="80.49" r=".3543" fill="none" stroke-width=".7087"/>
		</g>
		<g fill="#fff" font-family="OCRA" font-size="3.5" stroke-width="0">
			<text x="39.999599" y="128.78">MOSI</text>
			<text x="27.0919" y="114.38">GND</text>
			<text x="39.294102" y="121.58">SCLK</text>
			<text x="27.0919" y="107.18">SCL</text>
			<text x="44.470402" y="114.38">CS</text>
			<text x="38.070061" y="107.44379">GPIO1</text>
			<text x="40.111526" y="98.019394">RST/</text>
			<text x="37.741409" y="101.83775">GPIO2</text>
			<text x="98.083244" y="98.009361">RST/</text>
			<text x="95.383392" y="101.62989">GPIO2</text>
			<text x="156.07083" y="98.39373">RST/</text>
			<text x="153.37097" y="102.01427">GPIO2</text>
			<text x="44.636299" y="92.7799">TX</text>
			<text x="44.4062" y="85.579903">RX</text>
			<text x="26.696222" y="126.97147">INT/</text>
			<text x="26.872789" y="130.50269">GPIO3</text>
			<text x="26.345219" y="137.22922">GPIO4</text>
			<text x="26.509697" y="133.92381">PWM/</text>
			<text x="84.585861" y="126.59362">INT/</text>
			<text x="84.762428" y="130.12483">GPIO3</text>
			<text x="84.234856" y="136.85136">GPIO4</text>
			<text x="84.399338" y="133.54596">PWM/</text>
			<text x="39.818501" y="135.98">MISO</text>
			<text x="27.0919" y="121.561">3V3</text>
		</g>
		<g stroke="#fff">
			<g stroke-linecap="round" stroke-width=".72">
				<line x1="68.99" x2="68.99" y1="138.1" y2="28.09"/>
				<line x1="68.99" x2="123" y1="28.09" y2="28.09"/>
				<line x1="68.99" x2="123" y1="138.1" y2="138.1"/>
			</g>
			<circle cx="106.7" cy="80.49" r=".3543" fill="none" stroke-width=".7087"/>
		</g>
		<g fill="#fff" font-family="OCRA" font-size="3.5" stroke-width="0">
			<text x="97.599602" y="128.78">MOSI</text>
			<text x="84.6922" y="114.38">GND</text>
			<text x="96.893997" y="121.58">SCLK</text>
			<text x="84.6922" y="107.18">SCL</text>
			<text x="84.6922" y="99.979897">SDA</text>
			<text x="102.07" y="114.38">CS</text>
			<text x="95.472321" y="107.37784">GPIO1</text>
			<text x="84.687798" y="92.785698">AN2</text>
			<text x="84.687798" y="85.585701">AN1</text>
			<text x="84.6922" y="78.3554">5V</text>
			<text x="102.236" y="92.7799">TX</text>
			<text x="102.006" y="85.579903">RX</text>
			<text x="97.418198" y="135.98">MISO</text>
			<text x="84.6922" y="121.561">3V3</text>
		</g>
		<g stroke="#fff">
			<g stroke-linecap="round" stroke-width=".72">
				<line x1="123" x2="180.6" y1="28.09" y2="28.09"/>
				<line x1="180.6" x2="180.6" y1="138.1" y2="28.09"/>
				<line x1="123" x2="180.6" y1="138.1" y2="138.1"/>
			</g>
			<circle cx="164.3" cy="80.49" r=".3543" fill="none" stroke-width=".7087"/>
		</g>
		<g fill="#fff" font-family="OCRA" font-size="3.5" stroke-width="0">
			<text x="155.2" y="128.78">MOSI</text>
			<text x="142.29201" y="114.38">GND</text>
			<text x="154.494" y="121.58">SCLK</text>
			<text x="142.29201" y="107.18">SCL</text>
			<text x="142.29201" y="99.979897">SDA</text>
			<text x="159.67" y="114.38">CS</text>
			<text x="153.18822" y="107.45979">GPIO1</text>
			<text x="142.28799" y="92.785698">AN2</text>
			<text x="142.28799" y="85.585701">AN1</text>
			<text x="142.29201" y="78.3554">5V</text>
			<text x="159.836" y="92.7799">TX</text>
			<text x="159.606" y="85.579903">RX</text>
			<text x="155.01801" y="135.98">MISO</text>
			<text x="142.29201" y="121.561">3V3</text>
		</g>
		<g stroke="#fff" stroke-linecap="round" stroke-width=".5669">
			<line x1="124.8" x2="130.5" y1="15.04" y2="15.04"/>
			<line x1="124.8" x2="130.5" y1="21.84" y2="21.84"/>
			<line x1="130.5" x2="130.5" y1="15.04" y2="21.84"/>
			<line x1="124.8" x2="124.8" y1="15.04" y2="21.84"/>
			<line x1="154.7" x2="154.7" y1="17.89" y2="25.83"/>
			<line x1="154.7" x2="132.6" y1="17.89" y2="17.89"/>
			<line x1="154.7" x2="132.6" y1="25.83" y2="25.83"/>
			<line x1="132.6" x2="132.6" y1="17.89" y2="25.83"/>
			<line x1="10.46" x2="2.519" y1="44.75" y2="44.75"/>
			<line x1="2.519" x2="2.519" y1="52.69" y2="44.75"/>
			<line x1=".9926" x2=".9926" y1="10.63" y2="2.689"/>
			<line x1="10.46" x2="2.519" y1="52.69" y2="52.69"/>
			<line x1="24.38" x2="24.38" y1="142.1" y2="150"/>
			<line x1="24.38" x2="2.272" y1="142.1" y2="142.1"/>
			<line x1="24.38" x2="2.272" y1="150" y2="150"/>
			<line x1="2.272" x2="2.272" y1="142.1" y2="150"/>
			<line x1="8.929" x2="8.929" y1="10.61" y2="2.676"/>
			<line x1=".9918" x2="8.929" y1="2.676" y2="2.676"/>
			<line x1=".9918" x2="8.929" y1="10.61" y2="10.61"/>
			<line x1="31.9" x2="26.24" y1="8.288" y2="8.288"/>
			<line x1="31.9" x2="26.24" y1="1.485" y2="1.485"/>
			<line x1="26.24" x2="26.24" y1="8.288" y2="1.485"/>
			<line x1="31.9" x2="31.9" y1="8.288" y2="1.485"/>
			<line x1="83.33" x2="83.33" y1="21.54" y2="27.21"/>
			<line x1="76.53" x2="76.53" y1="21.54" y2="27.21"/>
			<line x1="83.33" x2="76.53" y1="27.21" y2="27.21"/>
			<line x1="83.33" x2="76.53" y1="21.54" y2="21.54"/>
			<line x1="31.9" x2="26.24" y1="17.75" y2="17.75"/>
			<line x1="31.9" x2="26.24" y1="10.95" y2="10.95"/>
			<line x1="26.24" x2="26.24" y1="17.75" y2="10.95"/>
			<line x1="31.9" x2="31.9" y1="17.75" y2="10.95"/>
			<line x1="93.44" x2="93.44" y1="21.54" y2="27.21"/>
			<line x1="86.64" x2="86.64" y1="21.54" y2="27.21"/>
			<line x1="93.44" x2="86.64" y1="27.21" y2="27.21"/>
			<line x1="93.44" x2="86.64" y1="21.54" y2="21.54"/>
			<line x1="31.9" x2="26.24" y1="27.26" y2="27.26"/>
			<line x1="31.9" x2="26.24" y1="20.46" y2="20.46"/>
			<line x1="26.24" x2="26.24" y1="27.26" y2="20.46"/>
			<line x1="31.9" x2="31.9" y1="27.26" y2="20.46"/>
			<line x1="103.6" x2="103.6" y1="21.54" y2="27.21"/>
			<line x1="96.75" x2="96.75" y1="21.54" y2="27.21"/>
			<line x1="103.6" x2="96.75" y1="27.21" y2="27.21"/>
			<line x1="103.6" x2="96.75" y1="21.54" y2="21.54"/>
			<line x1="23.86" x2="18.19" y1="8.288" y2="8.288"/>
			<line x1="23.86" x2="18.19" y1="1.485" y2="1.485"/>
			<line x1="18.19" x2="18.19" y1="8.288" y2="1.485"/>
			<line x1="23.86" x2="23.86" y1="8.288" y2="1.485"/>
			<line x1="98.57" x2="98.57" y1="15.06" y2="20.72"/>
			<line x1="91.77" x2="91.77" y1="15.06" y2="20.72"/>
			<line x1="98.57" x2="91.77" y1="20.72" y2="20.72"/>
			<line x1="98.57" x2="91.77" y1="15.06" y2="15.06"/>
			<line x1="23.86" x2="18.19" y1="27.26" y2="27.26"/>
			<line x1="23.86" x2="18.19" y1="20.46" y2="20.46"/>
			<line x1="18.19" x2="18.19" y1="27.26" y2="20.46"/>
			<line x1="23.86" x2="23.86" y1="27.26" y2="20.46"/>
			<line x1="88.43" x2="88.43" y1="15.06" y2="20.72"/>
			<line x1="81.63" x2="81.63" y1="15.06" y2="20.72"/>
			<line x1="88.43" x2="81.63" y1="20.72" y2="20.72"/>
			<line x1="88.43" x2="81.63" y1="15.06" y2="15.06"/>
			<line x1="15.65" x2="9.98" y1="8.288" y2="8.288"/>
			<line x1="15.65" x2="9.98" y1="1.485" y2="1.485"/>
			<line x1="9.98" x2="9.98" y1="8.288" y2="1.485"/>
			<line x1="15.65" x2="15.65" y1="8.288" y2="1.485"/>
			<line x1="78.29" x2="78.29" y1="15.06" y2="20.72"/>
			<line x1="71.49" x2="71.49" y1="15.06" y2="20.72"/>
			<line x1="78.29" x2="71.49" y1="20.72" y2="20.72"/>
			<line x1="78.29" x2="71.49" y1="15.06" y2="15.06"/>
			<line x1="15.65" x2="9.98" y1="17.75" y2="17.75"/>
			<line x1="15.65" x2="9.98" y1="10.95" y2="10.95"/>
			<line x1="9.98" x2="9.98" y1="17.75" y2="10.95"/>
			<line x1="15.65" x2="15.65" y1="17.75" y2="10.95"/>
			<line x1="66.42" x2="66.42" y1="27.21" y2="21.54"/>
			<line x1="73.22" x2="73.22" y1="27.21" y2="21.54"/>
			<line x1="66.42" x2="73.22" y1="21.54" y2="21.54"/>
			<line x1="66.42" x2="73.22" y1="27.21" y2="27.21"/>
			<line x1="15.65" x2="9.98" y1="27.26" y2="27.26"/>
			<line x1="15.65" x2="9.98" y1="20.46" y2="20.46"/>
			<line x1="9.98" x2="9.98" y1="27.26" y2="20.46"/>
			<line x1="15.65" x2="15.65" y1="27.26" y2="20.46"/>
			<line x1="68.15" x2="68.15" y1="15.06" y2="20.72"/>
			<line x1="61.35" x2="61.35" y1="15.06" y2="20.72"/>
			<line x1="68.15" x2="61.35" y1="20.72" y2="20.72"/>
			<line x1="68.15" x2="61.35" y1="15.06" y2="15.06"/>
			<line x1="1.712" x2="7.381" y1="34.49" y2="34.49"/>
			<line x1="1.712" x2="7.381" y1="41.3" y2="41.3"/>
			<line x1="7.381" x2="7.381" y1="34.49" y2="41.3"/>
			<line x1="1.712" x2="1.712" y1="34.49" y2="41.3"/>
			<line x1="191.5" x2="183.6" y1="58.56" y2="58.56"/>
			<line x1="183.6" x2="183.6" y1="66.49" y2="58.56"/>
			<line x1="191.6" x2="191.6" y1="66.5" y2="58.56"/>
			<line x1="191.5" x2="183.6" y1="66.49" y2="66.49"/>
		</g>
		<g fill="none" stroke="#9a916c">
			<circle id="connector1pin" cx="23.99" cy="76.93" r="1.913" stroke-width=".9921" connectorname="5V"/>
			<rect x="22" y="74.95" width="3.971" height="3.971" stroke-width=".853"/>
			<g stroke-width=".9921">
				<circle id="connector2pin" cx="23.99" cy="84.13" r="1.913" connectorname="4"/>
				<circle id="connector3pin" cx="23.99" cy="91.33" r="1.913" connectorname="6"/>
				<circle id="connector4pin" cx="23.99" cy="98.53" r="1.913" connectorname="8"/>
				<circle id="connector5pin" cx="23.99" cy="105.7" r="1.913" connectorname="10"/>
				<circle id="connector6pin" cx="23.99" cy="112.9" r="1.913" connectorname="12"/>
				<circle id="connector7pin" cx="23.99" cy="120.1" r="1.913" connectorname="14"/>
				<circle id="connector8pin" cx="23.99" cy="127.3" r="1.913" connectorname="16"/>
				<circle id="connector9pin" cx="23.99" cy="134.5" r="1.913" connectorname="18"/>
				<circle id="connector17pin" cx="52.79" cy="84.13" r="1.913" connectorname="20"/>
				<circle id="connector16pin" cx="52.79" cy="91.33" r="1.913" connectorname="22"/>
				<circle id="connector15pin" cx="52.79" cy="98.53" r="1.913" connectorname="24"/>
				<circle id="connector14pin" cx="52.79" cy="105.7" r="1.913" connectorname="26"/>
				<circle id="connector13pin" cx="52.79" cy="112.9" r="1.913" connectorname="28"/>
				<circle id="connector12pin" cx="52.79" cy="120.1" r="1.913" connectorname="30"/>
				<circle id="connector11pin" cx="52.79" cy="127.3" r="1.913" connectorname="32"/>
				<circle id="connector10pin" cx="52.79" cy="134.5" r="1.913" connectorname="34"/>
				<circle id="connector18pin" cx="81.59" cy="76.93" r="1.913" connectorname="2"/>
				<rect x="79.67" y="75.02" width="3.827" height="3.827"/>
				<circle id="connector19pin" cx="81.59" cy="84.13" r="1.913" connectorname="4"/>
				<circle id="connector20pin" cx="81.59" cy="91.33" r="1.913" connectorname="6"/>
				<circle id="connector21pin" cx="81.59" cy="98.53" r="1.913" connectorname="8"/>
				<circle id="connector22pin" cx="81.59" cy="105.7" r="1.913" connectorname="10"/>
				<circle id="connector23pin" cx="81.59" cy="112.9" r="1.913" connectorname="12"/>
				<circle id="connector24pin" cx="81.59" cy="120.1" r="1.913" connectorname="14"/>
				<circle id="connector25pin" cx="81.59" cy="127.3" r="1.913" connectorname="16"/>
				<circle id="connector26pin" cx="81.59" cy="134.5" r="1.913" connectorname="18"/>
				<circle id="connector34pin" cx="110.4" cy="84.13" r="1.913" connectorname="20"/>
				<circle id="connector33pin" cx="110.4" cy="91.33" r="1.913" connectorname="22"/>
				<circle id="connector32pin" cx="110.4" cy="98.53" r="1.913" connectorname="24"/>
				<circle id="connector31pin" cx="110.4" cy="105.7" r="1.913" connectorname="26"/>
				<circle id="connector30pin" cx="110.4" cy="112.9" r="1.913" connectorname="28"/>
				<circle id="connector29pin" cx="110.4" cy="120.1" r="1.913" connectorname="30"/>
				<circle id="connector28pin" cx="110.4" cy="127.3" r="1.913" connectorname="32"/>
				<circle id="connector27pin" cx="110.4" cy="134.5" r="1.913" connectorname="34"/>
				<circle id="connector35pin" cx="139.2" cy="76.93" r="1.913" connectorname="2"/>
				<rect x="137.3" y="75.02" width="3.827" height="3.827"/>
				<circle id="connector36pin" cx="139.2" cy="84.13" r="1.913" connectorname="4"/>
				<circle id="connector37pin" cx="139.2" cy="91.33" r="1.913" connectorname="6"/>
				<circle id="connector38pin" cx="139.2" cy="98.53" r="1.913" connectorname="8"/>
				<circle id="connector39pin" cx="139.2" cy="105.7" r="1.913" connectorname="10"/>
				<circle id="connector40pin" cx="139.2" cy="112.9" r="1.913" connectorname="12"/>
				<circle id="connector41pin" cx="139.2" cy="120.1" r="1.913" connectorname="14"/>
				<circle id="connector42pin" cx="139.2" cy="127.3" r="1.913" connectorname="16"/>
				<circle id="connector43pin" cx="139.2" cy="134.5" r="1.913" connectorname="18"/>
				<circle id="connector51pin" cx="168" cy="84.13" r="1.913" connectorname="20"/>
				<circle id="connector50pin" cx="168" cy="91.33" r="1.913" connectorname="22"/>
				<circle id="connector49pin" cx="168" cy="98.53" r="1.913" connectorname="24"/>
				<circle id="connector48pin" cx="168" cy="105.7" r="1.913" connectorname="26"/>
				<circle id="connector47pin" cx="168" cy="112.9" r="1.913" connectorname="28"/>
				<circle id="connector46pin" cx="168" cy="120.1" r="1.913" connectorname="30"/>
				<circle id="connector45pin" cx="168" cy="127.3" r="1.913" connectorname="32"/>
				<circle id="connector44pin" cx="168" cy="134.5" r="1.913" connectorname="34"/>
			</g>
		</g>
		<g fill="none" stroke="#9a916c" stroke-width=".8504">
			<circle id="connector73pin" cx="150.9" cy="21.86" r="1.842" connectorname="1"/>
			<rect x="149" y="20.02" width="3.685" height="3.685"/>
			<circle id="connector72pin" cx="143.7" cy="21.86" r="1.842" connectorname="AREF"/>
			<circle id="connector71pin" cx="136.5" cy="21.86" r="1.842" connectorname="3"/>
			<circle id="connector78pin" cx="79.2" cy="144" r="1.984" connectorname="1"/>
			<rect x="77.22" y="142" width="3.968" height="3.968"/>
			<circle id="connector79pin" cx="86.4" cy="144" r="1.984" connectorname="IOREF"/>
			<circle id="connector80pin" cx="93.6" cy="144" r="1.984" connectorname="XMCAC_P2_4"/>
			<circle id="connector81pin" cx="100.8" cy="144" r="1.984" connectorname="PWR_3V3_XMCAC"/>
			<circle id="connector82pin" cx="108" cy="144" r="1.984" connectorname="5"/>
			<circle id="connector83pin" cx="115.2" cy="144" r="1.984" connectorname="6"/>
			<circle id="connector84pin" cx="122.4" cy="144" r="1.984" connectorname="7"/>
			<circle id="connector85pin" cx="129.6" cy="144" r="1.984" connectorname="PWR_VIN_VRIN"/>
			<circle id="connector62pin" cx="118.1" cy="7.194" r="1.984" connectorname="M1P2_M1P3_SPI_CS_BS"/>
			<rect x="116.1" y="5.21" width="3.968" height="3.968"/>
			<circle id="connector61pin" cx="110.9" cy="7.194" r="1.984" connectorname="M1P1_RST_GPIO2_BS"/>
			<circle id="connector60pin" cx="103.7" cy="7.194" r="1.984" connectorname="M1P1_SPI_CS_BS"/>
			<circle id="connector59pin" cx="96.48" cy="7.194" r="1.984" connectorname="SPI_MOSI_BS"/>
			<circle id="connector58pin" cx="89.28" cy="7.194" r="1.984" connectorname="SPI_MISO_BS"/>
			<circle id="connector57pin" cx="82.08" cy="7.194" r="1.984" connectorname="SPI_SCK_BS"/>
			<circle id="connector56pin" cx="74.88" cy="7.194" r="1.984" connectorname="7"/>
			<circle id="connector55pin" cx="67.68" cy="7.194" r="1.984" connectorname="AREF"/>
			<circle id="connector54pin" cx="60.48" cy="7.194" r="1.984" connectorname="I2C.SDA"/>
			<circle id="connector53pin" cx="53.28" cy="7.194" r="1.984" connectorname="I2C.SCL"/>
			<circle id="connector70pin" cx="180" cy="7.196" r="1.984" connectorname="UART.TX"/>
			<rect x="178" y="5.211" width="3.968" height="3.968"/>
			<circle id="connector69pin" cx="172.8" cy="7.196" r="1.984" connectorname="UART.RX"/>
			<circle id="connector68pin" cx="165.6" cy="7.196" r="1.984" connectorname="M1P1_IN_GPIO3_BS"/>
			<circle id="connector67pin" cx="158.4" cy="7.196" r="1.984" connectorname="M1P2_M1P3_IN_GPIO3_BS"/>
			<circle id="connector66pin" cx="151.2" cy="7.196" r="1.984" connectorname="M1P2_M1P3_RST_GPIO2_BS"/>
			<circle id="connector65pin" cx="144" cy="7.196" r="1.984" connectorname="M1P1_PWM_BS"/>
			<circle id="connector64pin" cx="136.8" cy="7.196" r="1.984" connectorname="M1P2_M1P3_PWM_BS"/>
			<circle id="connector63pin" cx="129.6" cy="7.196" r="1.984" connectorname="M1P2_M1P3_GPIO1_BS"/>
			<circle id="connector86pin" cx="144" cy="144" r="1.984" connectorname="1"/>
			<rect x="142" y="142" width="3.968" height="3.968"/>
			<circle id="connector87pin" cx="151.2" cy="144" r="1.984" connectorname="2"/>
			<circle id="connector88pin" cx="158.4" cy="144" r="1.984" connectorname="3"/>
			<circle id="connector89pin" cx="165.6" cy="144" r="1.984" connectorname="ANALOG.AN1"/>
			<circle id="connector90pin" cx="172.8" cy="144" r="1.984" connectorname="XMCAC_P2_11"/>
			<circle id="connector91pin" cx="180" cy="144" r="1.984" connectorname="XMCAC_P2_2"/>
			<circle id="connector74pin" cx="6.487" cy="48.72" r="2.041" connectorname="VREF_B"/>
			<circle id="connector77pin" cx="20.53" cy="146.1" r="1.842" connectorname="1"/>
			<rect x="18.68" y="144.2" width="3.685" height="3.685"/>
			<circle id="connector76pin" cx="13.33" cy="146.1" r="1.842" connectorname="IOREF_LS"/>
			<circle id="connector75pin" cx="6.127" cy="146.1" r="1.842" connectorname="3"/>
			<circle id="connector52pin" cx="4.96" cy="6.645" r="2.041" connectorname="VREF_A"/>
		</g>
		<g fill="#fff" font-family="OCRA" font-size="3.5px" stroke-width="0">
			<text x="141.9519" y="127.22768">INT/</text>
			<text x="142.12848" y="130.7589">GPIO3</text>
			<text x="141.60091" y="137.48543">GPIO4</text>
			<text x="141.76538" y="134.18002">PWM/</text>
		</g>
		<text x="85.375198" y="69.271248" fill="#fff" font-family="OCRA" font-size="8" stroke-width="0">WWW.INFINEON.COM</text>
		<g fill="#9a916c">
			<g stroke-width=".7158">
				<path d="m121.4 88.92v4.819h-11v-0.0015a2.41 2.41 0 0 0 2.41-2.41 2.41 2.41 0 0 0-2.41-2.408z"/>
				<path d="m121.4 96.12v4.819h-11v-1e-3a2.41 2.41 0 0 0 2.41-2.41 2.41 2.41 0 0 0-2.41-2.408z"/>
				<path d="m121.4 103.3v4.819h-11v-1e-3a2.41 2.41 0 0 0 2.41-2.41 2.41 2.41 0 0 0-2.41-2.408z"/>
				<path d="m121.4 110.5v4.819h-11v-2e-3a2.41 2.41 0 0 0 2.41-2.41 2.41 2.41 0 0 0-2.41-2.408z"/>
				<path d="m121.4 117.7v4.819h-11v-1e-3a2.41 2.41 0 0 0 2.41-2.41 2.41 2.41 0 0 0-2.41-2.408z"/>
				<path d="m121.4 124.9v4.819h-11v-2e-3a2.41 2.41 0 0 0 2.41-2.41 2.41 2.41 0 0 0-2.41-2.408z"/>
				<path d="m121.4 132.1v4.819h-11v-1e-3a2.41 2.41 0 0 0 2.41-2.41 2.41 2.41 0 0 0-2.41-2.408z"/>
				<path d="m121.4 81.72v4.819h-11v-1e-3a2.41 2.41 0 0 0 2.41-2.41 2.41 2.41 0 0 0-2.41-2.408z"/>
				<path d="m63.78 88.92v4.819h-11v-0.0015a2.41 2.41 0 0 0 2.41-2.41 2.41 2.41 0 0 0-2.41-2.408z"/>
				<path d="m63.78 96.12v4.819h-11v-1e-3a2.41 2.41 0 0 0 2.41-2.41 2.41 2.41 0 0 0-2.41-2.408z"/>
				<path d="m63.78 103.3v4.819h-11v-1e-3a2.41 2.41 0 0 0 2.41-2.41 2.41 2.41 0 0 0-2.41-2.408z"/>
				<path d="m63.78 110.5v4.819h-11v-2e-3a2.41 2.41 0 0 0 2.41-2.41 2.41 2.41 0 0 0-2.41-2.408z"/>
				<path d="m63.78 117.7v4.819h-11v-1e-3a2.41 2.41 0 0 0 2.41-2.41 2.41 2.41 0 0 0-2.41-2.408z"/>
				<path d="m63.78 124.9v4.819h-11v-2e-3a2.41 2.41 0 0 0 2.41-2.41 2.41 2.41 0 0 0-2.41-2.408z"/>
				<path d="m63.78 132.1v4.819h-11v-1e-3a2.41 2.41 0 0 0 2.41-2.41 2.41 2.41 0 0 0-2.41-2.408z"/>
			</g>
			<g transform="matrix(.75 0 0 .75 -.000259 0)">
				<path d="m17.32 99.36v6.426h11.45v-6.426h-11.45z" stroke-width=".8433"/>
				<path d="m17.32 109v6.426h14.66v-0.00195a3.213 3.213 0 0 1-3.213-3.213 3.213 3.213 0 0 1 3.213-3.211h-14.66z" stroke-width=".9543"/>
			</g>
			<g stroke-width=".7158">
				<path d="m12.99 88.92v4.819h11v-0.0015a2.41 2.41 0 0 1-2.41-2.41 2.41 2.41 0 0 1 2.41-2.408z"/>
				<path d="m12.99 96.12v4.819h11v-1e-3a2.41 2.41 0 0 1-2.41-2.41 2.41 2.41 0 0 1 2.41-2.408z"/>
				<path d="m12.99 103.3v4.819h11v-1e-3a2.41 2.41 0 0 1-2.41-2.41 2.41 2.41 0 0 1 2.41-2.408z"/>
				<path d="m12.99 110.5v4.819h11v-2e-3a2.41 2.41 0 0 1-2.41-2.41 2.41 2.41 0 0 1 2.41-2.408z"/>
				<path d="m12.99 117.7v4.819h11v-1e-3a2.41 2.41 0 0 1-2.41-2.41 2.41 2.41 0 0 1 2.41-2.408z"/>
				<path d="m12.99 124.9v4.819h11v-2e-3a2.41 2.41 0 0 1-2.41-2.41 2.41 2.41 0 0 1 2.41-2.408z"/>
				<path d="m12.99 132.1v4.819h11v-1e-3a2.41 2.41 0 0 1-2.41-2.41 2.41 2.41 0 0 1 2.41-2.408z"/>
				<path d="m63.78 81.72v4.819h-11v-1e-3a2.41 2.41 0 0 0 2.41-2.41 2.41 2.41 0 0 0-2.41-2.408z"/>
			</g>
			<path d="m70.59 74.52v4.819h8.588v-4.819z" stroke-width=".6325"/>
			<g stroke-width=".7158">
				<path d="m70.59 81.72v4.819h11v-0.0015a2.41 2.41 0 0 1-2.41-2.41 2.41 2.41 0 0 1 2.41-2.408z"/>
				<path d="m70.59 88.92v4.819h11v-0.0015a2.41 2.41 0 0 1-2.41-2.41 2.41 2.41 0 0 1 2.41-2.408z"/>
				<path d="m70.59 96.12v4.819h11v-1e-3a2.41 2.41 0 0 1-2.41-2.41 2.41 2.41 0 0 1 2.41-2.408z"/>
				<path d="m70.59 103.3v4.819h11v-1e-3a2.41 2.41 0 0 1-2.41-2.41 2.41 2.41 0 0 1 2.41-2.408z"/>
				<path d="m70.59 110.5v4.819h11v-2e-3a2.41 2.41 0 0 1-2.41-2.41 2.41 2.41 0 0 1 2.41-2.408z"/>
				<path d="m70.59 117.7v4.819h11v-1e-3a2.41 2.41 0 0 1-2.41-2.41 2.41 2.41 0 0 1 2.41-2.408z"/>
				<path d="m70.59 124.9v4.819h11v-2e-3a2.41 2.41 0 0 1-2.41-2.41 2.41 2.41 0 0 1 2.41-2.408z"/>
				<path d="m70.59 132.1v4.819h11v-1e-3a2.41 2.41 0 0 1-2.41-2.41 2.41 2.41 0 0 1 2.41-2.408z"/>
				<path d="m179 88.92v4.819h-11v-0.0015a2.41 2.41 0 0 0 2.41-2.41 2.41 2.41 0 0 0-2.41-2.408z"/>
				<path d="m179 96.12v4.819h-11v-1e-3a2.41 2.41 0 0 0 2.41-2.41 2.41 2.41 0 0 0-2.41-2.408z"/>
				<path d="m179 103.3v4.819h-11v-1e-3a2.41 2.41 0 0 0 2.41-2.41 2.41 2.41 0 0 0-2.41-2.408z"/>
				<path d="m179 110.5v4.819h-11v-2e-3a2.41 2.41 0 0 0 2.41-2.41 2.41 2.41 0 0 0-2.41-2.408z"/>
				<path d="m179 117.7v4.819h-11v-1e-3a2.41 2.41 0 0 0 2.41-2.41 2.41 2.41 0 0 0-2.41-2.408z"/>
				<path d="m179 124.9v4.819h-11v-2e-3a2.41 2.41 0 0 0 2.41-2.41 2.41 2.41 0 0 0-2.41-2.408z"/>
				<path d="m179 132.1v4.819h-11v-1e-3a2.41 2.41 0 0 0 2.41-2.41 2.41 2.41 0 0 0-2.41-2.408z"/>
				<path d="m179 81.72v4.819h-11v-1e-3a2.41 2.41 0 0 0 2.41-2.41 2.41 2.41 0 0 0-2.41-2.408z"/>
			</g>
			<path d="m128.2 74.52v4.819h8.588v-4.819z" stroke-width=".6325"/>
			<g stroke-width=".7158">
				<path d="m128.2 81.72v4.819h11v-0.0015a2.41 2.41 0 0 1-2.41-2.41 2.41 2.41 0 0 1 2.41-2.408z"/>
				<path d="m128.2 88.92v4.819h11v-0.0015a2.41 2.41 0 0 1-2.41-2.41 2.41 2.41 0 0 1 2.41-2.408z"/>
				<path d="m128.2 96.12v4.819h11v-1e-3a2.41 2.41 0 0 1-2.41-2.41 2.41 2.41 0 0 1 2.41-2.408z"/>
				<path d="m128.2 103.3v4.819h11v-1e-3a2.41 2.41 0 0 1-2.41-2.41 2.41 2.41 0 0 1 2.41-2.408z"/>
				<path d="m128.2 110.5v4.819h11v-2e-3a2.41 2.41 0 0 1-2.41-2.41 2.41 2.41 0 0 1 2.41-2.408z"/>
				<path d="m128.2 117.7v4.819h11v-1e-3a2.41 2.41 0 0 1-2.41-2.41 2.41 2.41 0 0 1 2.41-2.408z"/>
				<path d="m128.2 124.9v4.819h11v-2e-3a2.41 2.41 0 0 1-2.41-2.41 2.41 2.41 0 0 1 2.41-2.408z"/>
				<path d="m128.2 132.1v4.819h11v-1e-3a2.41 2.41 0 0 1-2.41-2.41 2.41 2.41 0 0 1 2.41-2.408z"/>
			</g>
		</g>
		<g fill="#fff">
			<g stroke-width=".07632">
				<path d="m91.52 51.21 6.04 0.01415 1.965 7.043-6.241-0.01415-1.764-7.043"/>
				<path d="m90.34 47.47c-9e-3 1.292 1.394 2.301 3.004 2.304 1.812 0.0031 3.229-0.9995 3.238-2.292 8e-3 -1.15-1.396-2.158-3.208-2.161-1.611-0.0031-3.026 1-3.034 2.15"/>
				<path d="m88.72 48.33 0.9994 1.007c-1.818 1.003-3.038 2.581-3.048 4.162-5e-3 0.7172 0.1936 1.437 0.7907 2.157 1.195 2.013 3.601 3.455 6.617 4.034 1.408 0.2894 2.815 0.438 4.225 0.4401 2.013 0.0035 4.229-0.2795 6.246-0.8511l-3.744-12.08c-0.2036-2.13e-4 -0.4027-8.49e-4 -0.6026-9.91e-4 -0.8053-0.0014-1.613-3e-3 -2.416-0.0044l4e-3 -0.7188c1.41 0.0026 3.02 0.1514 4.426 0.4408l3.743 12.22c-2.624 1.143-5.85 1.855-8.87 1.851l-0.2036-2.13e-4c-3.825-0.0019-7.643-1.02-10.65-2.893-1.804-1.152-2.8-2.734-2.789-4.314 9e-3 -2.443 2.043-4.595 5.271-5.451"/>
			</g>
			<g stroke-width=".06693">
				<path d="m111.2 59.5 2.143 0.0044 0.0812-15.1-2.143-0.0049z"/>
				<path d="m118.1 50.56 0.042 4.96e-4c0.4521-0.82 1.122-1.319 2.193-1.315 2.143 0.0044 2.198 1.787 2.191 3.329l-0.042 6.948-2.014-0.0049 0.028-6.988c4e-3 -0.7007-0.1183-1.602-1.192-1.605-1.329-3e-3 -1.23 1.418-1.234 2.28l-0.0282 6.307-2.014-0.0049 0.0491-10.11 2.014 0.0049-6e-3 1.161"/>
				<path d="m125.3 49.43 0.0209-3.264c8e-3 -1.722 0.1694-3.404 2.46-3.398 0.5136 9.93e-4 0.9001 0.1086 1.349 0.284l-8e-3 1.962c-0.2771-0.1427-0.5136-0.2414-0.8359-0.2428-1.029-0.0026-0.9468 0.9404-0.9518 1.619l-0.0209 3.044 1.672 4e-3 -8e-3 1.482-1.672-4e-3 -0.042 8.63-2.014-0.0049 0.042-8.63-1.007-0.0023 8e-3 -1.482 1.007 0.0026"/>
				<path d="m130.3 46.37c4e-3 -0.6801 0.606-1.24 1.356-1.238 0.7078 0.0018 1.326 0.5644 1.323 1.244-4e-3 0.7021-0.6284 1.26-1.337 1.256-0.7503-0.0018-1.346-0.5644-1.343-1.264zm2.268 13.18-2.015-0.0049 0.0491-10.11 2.015 0.0049-0.0491 10.11"/>
				<path d="m136.9 50.61 0.042 4.97e-4c0.4521-0.8199 1.122-1.319 2.192-1.316 2.143 0.0045 2.198 1.787 2.19 3.329l-0.042 6.948-2.015-0.0049 0.042-6.988c4e-3 -0.7007-0.1183-1.602-1.192-1.605-1.329-3e-3 -1.23 1.418-1.234 2.28l-0.028 6.307-2.014-0.0049 0.0491-10.11 2.014 0.0049-6e-3 1.161"/>
				<path d="m145.3 54.9c-4e-3 0.8418-0.0629 3.164 1.249 3.167 1.072 0.0026 1.27-1.099 1.274-1.879l1.864 0.0044c-8e-3 1.862-0.8975 3.562-3.168 3.557-3.022-0.0016-3.285-3.011-3.274-5.154 8e-3 -2.062 0.282-5.285 3.263-5.278 2.936 0.0018 3.262 3.211 3.252 5.294l-1e-3 0.2996zm2.407-1.336c4e-3 -0.781 8e-3 -2.563-1.21-2.566-1.264-0.0029-1.188 1.78-1.192 2.56l2.4 0.0037"/>
				<path d="m151.4 54.57c8e-3 -2.203 0.345-5.245 3.434-5.238 3.086 0.0213 3.392 3.051 3.381 5.254-8e-3 2.122-0.345 5.185-3.434 5.178-3.086-0.0213-3.391-3.072-3.38-5.194zm4.758 0.01418c4e-3 -0.8004 0.2106-3.524-1.332-3.527-1.543-0.0037-1.364 2.72-1.368 3.521-4e-3 0.7209-0.2106 3.463 1.332 3.467 1.543 0.0037 1.365-2.74 1.368-3.461"/>
				<path d="m162.3 50.67 0.042 4.98e-4c0.4562-0.82 1.122-1.319 2.192-1.315 2.143 0.0044 2.198 1.787 2.19 3.329l-0.042 6.948-2.015-0.0049 0.042-6.988c4e-3 -0.7007-0.1182-1.602-1.193-1.605-1.328-3e-3 -1.228 1.419-1.234 2.28l-0.028 6.307-2.015-0.0049 0.0491-10.11 2.015 0.0049-6e-3 1.161"/>
			</g>
		</g>
		<g transform="rotate(-90)">
			<text x="-138.86754" y="8.6941309" fill="#fff" font-family="OCRA" font-size="6" stroke-width="0">Shield2Go Adapter</text>
		</g>
		<g fill="#fff" font-family="OCRA" stroke-width="0">
			<text x="57.520626" y="3.6824656" font-size="3.5">SDA</text>
			<text x="130.31944" y="3.5850036" font-size="3.2">PWM2/3</text>
			<g font-size="3.5px">
				<text x="71.508759" y="3.9523237">GND</text>
				<text x="85.4981" y="3.9523237">MISO</text>
				<text x="100.42007" y="4.0455866">CS1</text>
				<text x="113.16113" y="3.7111676">CS2/3</text>
			</g>
		</g>
		<line x1="10.44" x2="10.44" y1="52.69" y2="44.75" stroke="#fff" stroke-linecap="round" stroke-width=".5669"/>
		<g fill="#fff" font-family="OCRA" stroke-width="0">
			<text x="145.41454" y="3.5850036" font-size="3.2">RST2/3</text>
			<g font-size="3.5px">
				<text x="161.83519" y="3.7215829">INT1</text>
				<text x="177.48849" y="3.670265">RX</text>
				<text x="27.163748" y="100.08423">SDA</text>
				<text x="27.159346" y="92.89003">AN2</text>
				<text x="27.159346" y="85.690033">AN1</text>
				<text x="27.163748" y="78.459732">5V</text>
			</g>
		</g>
		<circle id="connector0pin" cx="187.6" cy="62.52" r="2.041" fill="none" stroke="#9a916c" stroke-width=".8504" connectorname="GND"/>
	</g>
</svg>
