<?xml version="1.0" encoding="utf-8"?>
<!-- Generator: Adobe Illustrator 16.0.0, SVG Export Plug-In . SVG Version: 6.00 Build 0)  -->
<svg version="1.2" baseProfile="tiny" id="Layer_1" xmlns:svg="http://www.w3.org/2000/svg"
	 xmlns="http://www.w3.org/2000/svg" xmlns:xlink="http://www.w3.org/1999/xlink" x="0px" y="0px" width="174.398px"
	 height="82.541px" viewBox="0 0 174.398 82.541" xml:space="preserve">
<g id="breadbaordbreadboard">
	<path fill="#0F7391" d="M1.002,0.554v81.07h169.229V0.554H1.002z M9.467,75.97c-1.743,0-3.155-1.414-3.155-3.156
		c0-1.744,1.413-3.158,3.155-3.158c1.741,0,3.156,1.416,3.156,3.158S11.208,75.97,9.467,75.97z M9.467,12.544
		c-1.743,0-3.155-1.414-3.155-3.157c0-1.743,1.413-3.157,3.155-3.157c1.741,0,3.156,1.415,3.156,3.157
		C12.623,11.131,11.208,12.544,9.467,12.544z M128.698,75.179c-1.743,0-3.157-1.414-3.157-3.158c0-1.742,1.414-3.156,3.157-3.156
		c1.74,0,3.155,1.414,3.155,3.156C131.853,73.765,130.438,75.179,128.698,75.179z M129.062,13.103c-1.744,0-3.156-1.414-3.156-3.157
		c0-1.743,1.412-3.157,3.156-3.157c1.739,0,3.154,1.415,3.154,3.157C132.217,11.688,130.802,13.103,129.062,13.103z M119.376,42.976
		c1.104,0,1.999,0.896,1.999,2c0,1.104-0.895,2-1.999,2c-1.104,0-2.001-0.896-2.001-2C117.375,43.872,118.272,42.976,119.376,42.976
		z M112.176,42.976c1.105,0,2,0.896,2,2c0,1.104-0.895,2-2,2c-1.104,0-2-0.896-2-2C110.176,43.872,111.073,42.976,112.176,42.976z
		 M104.977,42.976c1.104,0,2,0.896,2,2c0,1.104-0.896,2-2,2c-1.105,0-2-0.896-2-2C102.977,43.872,103.871,42.976,104.977,42.976z
		 M97.776,42.976c1.104,0,2,0.896,2,2s-0.896,2-2,2c-1.105,0-2-0.896-2-2C95.776,43.87,96.67,42.976,97.776,42.976z M90.576,42.976
		c1.105,0,2,0.896,2,2c0,1.104-0.895,2-2,2c-1.104,0-2-0.896-2-2C88.576,43.872,89.472,42.976,90.576,42.976z M83.376,42.976
		c1.104,0,1.999,0.896,1.999,2c0,1.104-0.895,2-1.999,2c-1.104,0-2.001-0.896-2.001-2C81.375,43.872,82.272,42.976,83.376,42.976z
		 M76.175,42.976c1.104,0,2.001,0.896,2.001,2c0,1.104-0.896,2-2.001,2c-1.104,0-1.999-0.896-1.999-2
		C74.176,43.872,75.072,42.976,76.175,42.976z M68.976,42.976c1.104,0,1.999,0.896,1.999,2c0,1.104-0.896,2-1.999,2
		c-1.104,0-2.001-0.896-2.001-2C66.975,43.872,67.871,42.976,68.976,42.976z M61.776,42.976c1.104,0,2,0.896,2,2s-0.896,2-2,2
		c-1.104,0-2-0.896-2-2C59.776,43.87,60.671,42.976,61.776,42.976z M54.574,42.976c1.104,0,2,0.896,2,2c0,1.104-0.896,2-2,2
		c-1.104,0-2-0.896-2-2C52.574,43.872,53.47,42.976,54.574,42.976z M47.374,42.976c1.104,0,1.999,0.896,1.999,2
		c0,1.104-0.895,2-1.999,2c-1.104,0-2.001-0.896-2.001-2C45.373,43.872,46.27,42.976,47.374,42.976z M40.174,42.976
		c1.104,0,2,0.896,2,2c0,1.104-0.896,2-2,2c-1.104,0-2-0.896-2-2C38.174,43.872,39.071,42.976,40.174,42.976z M32.975,42.976
		c1.104,0,2,0.896,2,2c0,1.104-0.896,2-2,2c-1.104,0-2-0.896-2-2C30.975,43.872,31.87,42.976,32.975,42.976z M25.775,42.976
		c1.104,0,2,0.896,2,2s-0.896,2-2,2c-1.104,0-2-0.896-2-2C23.775,43.87,24.669,42.976,25.775,42.976z M119.376,35.775
		c1.104,0,1.999,0.896,1.999,2c0,1.105-0.895,2-1.999,2c-1.104,0-2.001-0.895-2.001-2S118.272,35.775,119.376,35.775z
		 M112.176,35.775c1.105,0,2,0.896,2,2c0,1.105-0.895,2-2,2c-1.104,0-2-0.895-2-2S111.073,35.775,112.176,35.775z M104.977,35.775
		c1.104,0,2,0.896,2,2c0,1.105-0.896,2-2,2c-1.105,0-2-0.895-2-2S103.871,35.775,104.977,35.775z M97.776,35.775
		c1.104,0,2,0.896,2,2c0,1.105-0.896,2-2,2c-1.105,0-2-0.896-2-2S96.67,35.775,97.776,35.775z M90.576,35.775c1.105,0,2,0.896,2,2
		c0,1.105-0.895,2-2,2c-1.104,0-2-0.895-2-2S89.472,35.775,90.576,35.775z M83.376,35.775c1.104,0,1.999,0.896,1.999,2
		c0,1.105-0.895,2-1.999,2c-1.104,0-2.001-0.895-2.001-2S82.272,35.775,83.376,35.775z M76.175,35.775c1.104,0,2.001,0.896,2.001,2
		c0,1.105-0.896,2-2.001,2c-1.104,0-1.999-0.895-1.999-2S75.072,35.775,76.175,35.775z M68.976,35.775c1.104,0,1.999,0.896,1.999,2
		c0,1.105-0.896,2-1.999,2c-1.104,0-2.001-0.895-2.001-2S67.871,35.775,68.976,35.775z M61.776,35.775c1.104,0,2,0.896,2,2
		c0,1.105-0.896,2-2,2c-1.104,0-2-0.896-2-2S60.671,35.775,61.776,35.775z M54.574,35.775c1.104,0,2,0.896,2,2c0,1.105-0.896,2-2,2
		c-1.104,0-2-0.895-2-2S53.47,35.775,54.574,35.775z M47.374,35.775c1.104,0,1.999,0.896,1.999,2c0,1.105-0.895,2-1.999,2
		c-1.104,0-2.001-0.895-2.001-2S46.27,35.775,47.374,35.775z M40.174,35.775c1.104,0,2.001,0.896,2.001,2c0,1.105-0.896,2-2.001,2
		c-1.104,0-2-0.896-2-2C38.174,36.67,39.071,35.775,40.174,35.775z M32.975,35.775c1.104,0,2,0.896,2,2c0,1.105-0.896,2-2,2
		c-1.104,0-2.001-0.896-2.001-2C30.974,36.67,31.87,35.775,32.975,35.775z M25.775,35.775c1.104,0,2,0.896,2,2c0,1.105-0.896,2-2,2
		c-1.104,0-2-0.896-2-2S24.669,35.775,25.775,35.775z M119.376,28.574c1.104,0,1.999,0.896,1.999,2c0,1.105-0.895,2-1.999,2
		c-1.104,0-2.001-0.895-2.001-2C117.375,29.469,118.272,28.574,119.376,28.574z M112.176,28.574c1.105,0,2,0.896,2,2
		c0,1.105-0.895,2-2,2c-1.104,0-2-0.895-2-2C110.176,29.469,111.073,28.574,112.176,28.574z M104.977,28.574c1.104,0,2,0.896,2,2
		c0,1.105-0.896,2-2,2c-1.105,0-2-0.895-2-2C102.977,29.469,103.871,28.574,104.977,28.574z M97.776,28.574c1.104,0,2,0.896,2,2
		c0,1.105-0.896,2-2,2c-1.105,0-2-0.895-2-2C95.776,29.469,96.67,28.574,97.776,28.574z M90.576,28.574c1.105,0,2,0.896,2,2
		c0,1.105-0.895,2-2,2c-1.104,0-2-0.895-2-2C88.576,29.469,89.472,28.574,90.576,28.574z M83.376,28.574
		c1.104,0,1.999,0.896,1.999,2c0,1.105-0.895,2-1.999,2c-1.104,0-2.001-0.895-2.001-2C81.375,29.469,82.272,28.574,83.376,28.574z
		 M76.175,28.574c1.104,0,2.001,0.896,2.001,2c0,1.105-0.896,2-2.001,2c-1.104,0-1.999-0.895-1.999-2
		C74.176,29.469,75.072,28.574,76.175,28.574z M68.976,28.574c1.104,0,1.999,0.896,1.999,2c0,1.105-0.896,2-1.999,2
		c-1.104,0-2.001-0.895-2.001-2C66.975,29.469,67.871,28.574,68.976,28.574z M61.776,28.574c1.104,0,2,0.896,2,2
		c0,1.105-0.896,2-2,2c-1.104,0-2-0.895-2-2C59.776,29.469,60.671,28.574,61.776,28.574z M54.574,28.574c1.104,0,2,0.896,2,2
		c0,1.105-0.896,2-2,2c-1.104,0-2-0.895-2-2C52.574,29.469,53.47,28.574,54.574,28.574z M47.374,28.574c1.104,0,1.999,0.896,1.999,2
		c0,1.105-0.895,2-1.999,2c-1.104,0-2.001-0.895-2.001-2C45.373,29.469,46.27,28.574,47.374,28.574z M40.174,28.574
		c1.104,0,2,0.896,2,2c0,1.105-0.896,2-2,2c-1.104,0-2-0.895-2-2C38.174,29.469,39.071,28.574,40.174,28.574z M32.975,28.574
		c1.104,0,2,0.896,2,2c0,1.105-0.896,2-2,2c-1.104,0-2-0.895-2-2C30.975,29.469,31.87,28.574,32.975,28.574z M25.775,28.574
		c1.104,0,2,0.896,2,2c0,1.105-0.896,2-2,2c-1.104,0-2-0.895-2-2C23.775,29.469,24.669,28.574,25.775,28.574z M119.375,21.374
		c1.105,0,2,0.896,2,2s-0.895,2-2,2c-1.104,0-2-0.896-2-2S118.272,21.374,119.375,21.374z M112.176,21.374c1.105,0,2,0.896,2,2
		s-0.895,2-2,2c-1.104,0-2-0.896-2-2S111.073,21.374,112.176,21.374z M104.977,21.374c1.104,0,2,0.896,2,2s-0.896,2-2,2
		c-1.105,0-2-0.896-2-2S103.871,21.374,104.977,21.374z M97.776,21.374c1.104,0,2,0.896,2,2s-0.896,2-2,2c-1.105,0-2-0.896-2-2
		S96.67,21.374,97.776,21.374z M90.576,21.374c1.105,0,2,0.896,2,2s-0.895,2-2,2c-1.104,0-2-0.896-2-2S89.472,21.374,90.576,21.374z
		 M83.376,21.374c1.104,0,1.999,0.896,1.999,2s-0.895,2-1.999,2c-1.104,0-2.001-0.896-2.001-2S82.272,21.374,83.376,21.374z
		 M76.175,21.374c1.104,0,2.001,0.896,2.001,2s-0.896,2-2.001,2c-1.104,0-1.999-0.896-1.999-2S75.072,21.374,76.175,21.374z
		 M68.976,21.374c1.104,0,1.999,0.896,1.999,2s-0.896,2-1.999,2c-1.104,0-2.001-0.896-2.001-2S67.871,21.374,68.976,21.374z
		 M61.776,21.374c1.104,0,2,0.896,2,2s-0.896,2-2,2c-1.104,0-2-0.896-2-2S60.671,21.374,61.776,21.374z M54.574,21.374
		c1.104,0,2,0.896,2,2s-0.896,2-2,2c-1.104,0-2-0.896-2-2S53.47,21.374,54.574,21.374z M47.374,21.374c1.104,0,1.999,0.896,1.999,2
		s-0.895,2-1.999,2c-1.104,0-2.001-0.896-2.001-2S46.27,21.374,47.374,21.374z M40.174,21.374c1.104,0,2,0.896,2,2s-0.896,2-2,2
		c-1.104,0-2-0.896-2-2S39.071,21.374,40.174,21.374z M32.975,21.374c1.104,0,2,0.896,2,2s-0.896,2-2,2c-1.104,0-2-0.896-2-2
		S31.87,21.374,32.975,21.374z M25.775,21.374c1.104,0,2,0.896,2,2s-0.896,2-2,2c-1.104,0-2-0.896-2-2S24.669,21.374,25.775,21.374z
		"/>
	<g>
		<g>
			<circle fill="none" stroke="#FFFFFF" stroke-width="0.1" stroke-miterlimit="10" cx="14.028" cy="23.374" r="2"/>
		</g>
		<g>
			<circle fill="none" stroke="#FFFFFF" stroke-width="0.1" stroke-miterlimit="10" cx="6.828" cy="23.374" r="2"/>
		</g>
	</g>
	<g>
		<g>
			<circle fill="none" stroke="#FFFFFF" stroke-width="0.1" stroke-miterlimit="10" cx="14.385" cy="34.171" r="2"/>
		</g>
		<g>
			<circle fill="none" stroke="#FFFFFF" stroke-width="0.1" stroke-miterlimit="10" cx="7.185" cy="34.171" r="2"/>
		</g>
	</g>
	<path fill="#F7BD13" d="M9.466,4.832c-2.52,0-4.557,2.035-4.557,4.555c0,2.518,2.037,4.557,4.557,4.557
		c2.517,0,4.559-2.039,4.559-4.557C14.021,6.868,11.981,4.832,9.466,4.832z M9.466,12.544c-1.743,0-3.155-1.414-3.155-3.157
		c0-1.743,1.413-3.157,3.155-3.157c1.741,0,3.156,1.415,3.156,3.157C12.622,11.131,11.207,12.544,9.466,12.544z"/>
	<path fill="#F7BD13" d="M9.466,68.256c-2.52,0-4.557,2.035-4.557,4.556c0,2.52,2.037,4.559,4.557,4.559
		c2.517,0,4.559-2.039,4.559-4.559C14.021,70.292,11.981,68.256,9.466,68.256z M9.466,75.97c-1.743,0-3.155-1.414-3.155-3.156
		c0-1.744,1.413-3.158,3.155-3.158c1.741,0,3.156,1.416,3.156,3.158S11.207,75.97,9.466,75.97z"/>
	<path fill="#F7BD13" d="M129.06,5.39c-2.521,0-4.559,2.035-4.559,4.555c0,2.518,2.037,4.557,4.559,4.557
		c2.517,0,4.558-2.039,4.558-4.557C133.615,7.425,131.576,5.39,129.06,5.39z M129.06,13.103c-1.744,0-3.156-1.414-3.156-3.157
		c0-1.743,1.412-3.157,3.156-3.157c1.739,0,3.154,1.415,3.154,3.157C132.216,11.688,130.801,13.103,129.06,13.103z"/>
	<path fill="#F7BD13" d="M128.698,67.463c-2.521,0-4.559,2.035-4.559,4.558c0,2.52,2.035,4.559,4.559,4.559
		c2.517,0,4.557-2.039,4.557-4.559C133.25,69.499,131.21,67.463,128.698,67.463z M128.698,75.179c-1.744,0-3.158-1.414-3.158-3.158
		c0-1.742,1.414-3.156,3.158-3.156c1.739,0,3.154,1.414,3.154,3.156C131.852,73.765,130.437,75.179,128.698,75.179z"/>
	<g>
		<polygon fill="#B3B3B3" points="173.401,6.301 173.401,27.905 158.997,27.905 158.997,6.301 		"/>
		<rect x="158.997" y="8.598" fill="#4D4D4D" width="13.103" height="16.905"/>
		<rect x="158.798" y="20.802" fill="#666666" width="1.002" height="1.103"/>
		<rect x="158.798" y="21.804" fill="#999999" width="0.896" height="0.101"/>
		<rect x="158.798" y="18.602" fill="#666666" width="1.002" height="1.103"/>
		<rect x="158.798" y="19.703" fill="#999999" width="0.896" height="0.103"/>
		<rect x="158.798" y="16.504" fill="#666666" width="1.002" height="1.1"/>
		<rect x="158.798" y="17.604" fill="#999999" width="0.896" height="0.104"/>
		<rect x="158.798" y="14.401" fill="#666666" width="1.002" height="1.101"/>
		<rect x="158.798" y="15.501" fill="#999999" width="0.896" height="0.101"/>
		<rect x="158.798" y="12.302" fill="#666666" width="1.002" height="1.1"/>
		<rect x="158.798" y="13.4" fill="#999999" width="0.896" height="0.101"/>
		<rect x="164.597" y="4.9" fill="#666666" width="2.604" height="1.101"/>
		<rect x="164.597" y="28.104" fill="#666666" width="2.604" height="1.104"/>
		<rect x="158.997" y="6.301" fill="#CCCCCC" width="0.104" height="21.604"/>
		<path fill="#E6E6E6" d="M173.401,6.099h-14.305V11h1.104h0.102V8.1h0.198v3.104l0,0v0.602h-1.397v0.498v9.604v0.601h1.397l0,0l0,0
			v0.501l0,0v3.101h-0.198v-2.897h-1.203v4.8h14.304L173.401,6.099L173.401,6.099z M164.597,10.102V8.3h6.804v1.802H164.597z
			 M159.398,18.903v-3.501h0.697v3.501H159.398z M164.597,26.104v-1.802h6.804v1.802H164.597L164.597,26.104z"/>
		<polygon fill="#B3B3B3" points="173,28.104 173.499,28.104 174.399,28.905 174.399,29.304 		"/>
		<polygon fill="#CCCCCC" points="173.499,28.104 173.499,28.104 173.9,28.104 174.399,28.905 		"/>
		<polygon fill="#B3B3B3" points="174.399,4.9 174.399,5.399 173.499,6.099 173,6.099 		"/>
		<polygon fill="#CCCCCC" points="174.399,5.399 173.9,6.099 173.499,6.099 173.499,6.099 		"/>
		<rect x="172.501" y="12.101" fill="#F2F2F2" width="0.499" height="0.5"/>
		<rect x="172.501" y="14.401" fill="#F2F2F2" width="0.499" height="0.5"/>
		<rect x="172.501" y="16.803" fill="#F2F2F2" width="0.499" height="0.499"/>
		<rect x="172.501" y="19.204" fill="#F2F2F2" width="0.499" height="0.498"/>
		<rect x="172.501" y="21.602" fill="#F2F2F2" width="0.499" height="0.5"/>
		<rect x="172.501" y="22.003" fill="#808080" width="0.499" height="0.099"/>
		<rect x="172.501" y="19.703" fill="#808080" width="0.499" height="0.103"/>
		<rect x="172.501" y="17.302" fill="#808080" width="0.499" height="0.104"/>
		<rect x="172.501" y="14.901" fill="#808080" width="0.499" height="0.103"/>
		<rect x="172.501" y="12.501" fill="#808080" width="0.499" height="0.1"/>
		<path fill="#4D4D4D" d="M173.201,22.704v-0.603H172.9v-0.5h0.301v-1.797H172.9v-0.502h0.301v-1.801H172.9v-0.499h0.301v-1.801
			H172.9V14.7h0.301v-1.8H172.9v-0.5h0.301v-0.399v-0.299c0-0.104-0.104-0.201-0.104-0.201H172.2c-0.104,0-0.104,0.1-0.104,0.201
			v11.4c0,0.103,0.104,0.201,0.104,0.201h0.897C173.099,23.003,173.201,22.904,173.201,22.704L173.201,22.704z"/>
		<path fill="#CCCCCC" d="M159.498,28.104l-0.501-0.298v-2.9c0,0,0.104,2.602,0.202,2.698c0.102,0.104,0.197-0.102,0.197-0.102
			L159.498,28.104L159.498,28.104z"/>
		<path fill="#CCCCCC" d="M159.498,6.099l-0.501,0.306v2.898c0,0,0.104-2.602,0.202-2.704c0.102-0.099,0.197,0.104,0.197,0.104
			L159.498,6.099L159.498,6.099z"/>
		<polygon fill="#F2F2F2" points="173.401,27.704 173.401,28.104 159.498,28.104 159.498,26.403 		"/>
		<polygon fill="#999999" points="173.401,6.099 164.098,6.702 159.498,7.4 159.498,6.099 		"/>
		<rect x="164.597" y="24.204" fill="#CCCCCC" width="0.104" height="1.801"/>
		<rect x="164.597" y="8.3" fill="#CCCCCC" width="0.104" height="1.802"/>
		<rect x="172.598" y="7.201" fill="#B3B3B3" width="0.604" height="19.9"/>
		<rect x="173.099" y="7.201" fill="#CCCCCC" width="0.302" height="19.9"/>
	</g>
	<g>
		<polygon fill="#B3B3B3" points="173.401,42.206 173.401,63.812 158.997,63.812 158.997,42.206 		"/>
		<rect x="158.997" y="44.511" fill="#4D4D4D" width="13.103" height="16.901"/>
		<rect x="158.798" y="56.71" fill="#666666" width="1.002" height="1.104"/>
		<rect x="158.798" y="57.711" fill="#999999" width="0.896" height="0.104"/>
		<rect x="158.798" y="54.511" fill="#666666" width="1.002" height="1.102"/>
		<rect x="158.798" y="55.61" fill="#999999" width="0.896" height="0.1"/>
		<rect x="158.798" y="52.412" fill="#666666" width="1.002" height="1.103"/>
		<rect x="158.798" y="53.511" fill="#999999" width="0.896" height="0.102"/>
		<rect x="158.798" y="50.31" fill="#666666" width="1.002" height="1.104"/>
		<rect x="158.798" y="51.411" fill="#999999" width="0.896" height="0.102"/>
		<rect x="158.798" y="48.209" fill="#666666" width="1.002" height="1.104"/>
		<rect x="158.798" y="49.312" fill="#999999" width="0.896" height="0.103"/>
		<rect x="164.597" y="40.809" fill="#666666" width="2.604" height="1.1"/>
		<rect x="164.597" y="64.013" fill="#666666" width="2.604" height="1.102"/>
		<rect x="158.997" y="42.206" fill="#CCCCCC" width="0.104" height="21.605"/>
		<path fill="#E6E6E6" d="M173.401,42.008h-14.305v4.9h1.104h0.102v-2.9h0.198v3.103l0,0v0.603h-1.397v0.499v9.604v0.601h1.397l0,0
			l0,0v0.501l0,0v3.104h-0.198v-2.9h-1.203v4.804h14.304L173.401,42.008L173.401,42.008z M164.597,46.009v-1.802h6.804v1.806
			L164.597,46.009L164.597,46.009z M159.398,54.813V51.31h0.697v3.504H159.398L159.398,54.813z M164.597,62.013v-1.898h6.804v1.801
			L164.597,62.013L164.597,62.013z"/>
		<polygon fill="#B3B3B3" points="173,64.013 173.499,64.013 174.399,64.813 174.399,65.213 		"/>
		<polygon fill="#CCCCCC" points="173.499,64.013 173.499,64.013 173.9,64.013 174.399,64.813 		"/>
		<polygon fill="#B3B3B3" points="174.399,40.809 174.399,41.209 173.499,42.008 173,42.008 		"/>
		<polygon fill="#CCCCCC" points="174.399,41.209 173.9,42.008 173.499,42.008 173.499,42.008 		"/>
		<rect x="172.501" y="48.011" fill="#F2F2F2" width="0.499" height="0.502"/>
		<rect x="172.501" y="50.31" fill="#F2F2F2" width="0.499" height="0.502"/>
		<rect x="172.501" y="52.71" fill="#F2F2F2" width="0.499" height="0.501"/>
		<rect x="172.501" y="55.11" fill="#F2F2F2" width="0.499" height="0.5"/>
		<rect x="172.501" y="57.511" fill="#F2F2F2" width="0.499" height="0.5"/>
		<rect x="172.501" y="57.912" fill="#808080" width="0.499" height="0.101"/>
		<rect x="172.501" y="55.511" fill="#808080" width="0.499" height="0.102"/>
		<rect x="172.501" y="53.211" fill="#808080" width="0.499" height="0.104"/>
		<rect x="172.501" y="50.812" fill="#808080" width="0.499" height="0.1"/>
		<rect x="172.501" y="48.411" fill="#808080" width="0.499" height="0.102"/>
		<path fill="#4D4D4D" d="M173.201,58.61v-0.6H172.9v-0.5h0.301v-1.803H172.9V55.11h0.301v-1.803H172.9V52.81h0.301v-1.802H172.9
			v-0.501h0.301V48.71H172.9v-0.504h0.301V47.81v-0.304c0-0.103-0.104-0.198-0.104-0.198H172.2c-0.104,0-0.104,0.101-0.104,0.198
			v11.399c0,0.103,0.104,0.199,0.104,0.199h0.897C173.099,58.913,173.201,58.813,173.201,58.61L173.201,58.61z"/>
		<path fill="#CCCCCC" d="M159.498,64.013l-0.501-0.303v-2.896c0,0,0.104,2.604,0.202,2.701c0.1,0.098,0.197-0.104,0.197-0.104
			L159.498,64.013L159.498,64.013z"/>
		<path fill="#CCCCCC" d="M159.498,42.008l-0.501,0.304v2.896c0,0,0.104-2.602,0.202-2.7c0.1-0.1,0.197,0.103,0.197,0.103
			L159.498,42.008L159.498,42.008z"/>
		<polygon fill="#F2F2F2" points="173.401,63.612 173.401,64.013 159.498,64.013 159.498,62.312 		"/>
		<polygon fill="#999999" points="173.401,42.008 164.098,42.608 159.498,43.31 159.498,42.008 		"/>
		<rect x="164.597" y="60.112" fill="#CCCCCC" width="0.104" height="1.8"/>
		<rect x="164.597" y="44.207" fill="#CCCCCC" width="0.104" height="1.806"/>
		<rect x="172.598" y="43.106" fill="#B3B3B3" width="0.604" height="19.906"/>
		<rect x="173.099" y="43.106" fill="#CCCCCC" width="0.302" height="19.906"/>
	</g>
	<g>
		<rect x="140.939" y="11.544" fill="#404040" width="13.124" height="13.13"/>
	</g>
	<g>
		<rect x="125.318" y="25.829" fill="#404040" width="6.758" height="6.76"/>
	</g>
	<g>
		<rect x="125.318" y="51.131" fill="#404040" width="6.758" height="6.761"/>
	</g>
	<g>
		<polygon id="_x30_.1.2.0.0.0.0.1" fill="#404040" points="4.844,26.74 8.844,26.74 12.145,26.74 16.045,26.74 17.646,25.238 
			17.646,21.24 16.045,19.739 12.145,19.739 8.844,19.739 4.844,19.739 3.344,21.24 3.344,25.238 		"/>
		<polygon id="_x30_.1.2.0.0.0.0.4" fill="#404040" points="4.844,26.74 8.844,26.74 12.145,26.74 16.045,26.74 17.646,25.238 
			17.646,21.24 16.045,19.739 12.145,19.739 8.844,19.739 4.844,19.739 3.344,21.24 3.344,25.238 		"/>
		<rect id="_x30_.1.2.0.0.0.0.8.0" x="12.845" y="22.239" fill="#8D8C8C" width="2.301" height="2.298"/>
		<rect id="_x30_.1.2.0.0.0.0.9.0" x="5.744" y="22.239" fill="#8D8C8C" width="2.3" height="2.298"/>
		<rect id="_x30_.1.2.0.0.0.0.22.0" x="6.244" y="22.839" fill="#8C8663" width="1.199" height="1.197"/>
		<polygon id="_x30_.1.2.0.0.0.0.23" fill="#B8AF82" points="7.945,24.537 7.445,23.938 6.244,23.938 5.744,24.537 		"/>
		<polygon id="_x30_.1.2.0.0.0.0.24" fill="#80795B" points="6.244,22.839 6.244,23.938 5.744,24.537 5.744,22.239 		"/>
		<polygon id="_x30_.1.2.0.0.0.0.25" fill="#5E5B43" points="7.445,22.839 6.244,22.839 5.744,22.239 7.945,22.239 		"/>
		<polygon id="_x30_.1.2.0.0.0.0.26" fill="#9A916C" points="7.945,24.537 7.445,23.938 7.445,22.839 7.945,22.239 		"/>
		<rect id="_x30_.1.2.0.0.0.0.27.0" x="13.444" y="22.839" fill="#8C8663" width="1.2" height="1.197"/>
		<polygon id="_x30_.1.2.0.0.0.0.28" fill="#B8AF82" points="15.146,24.537 14.644,23.938 13.444,23.938 12.945,24.537 		"/>
		<polygon id="_x30_.1.2.0.0.0.0.29" fill="#80795B" points="13.444,22.839 13.444,23.938 12.945,24.537 12.945,22.239 		"/>
		<polygon id="_x30_.1.2.0.0.0.0.30" fill="#5E5B43" points="14.644,22.839 13.444,22.839 12.945,22.239 15.146,22.239 		"/>
		<polygon id="_x30_.1.2.0.0.0.0.31" fill="#9A916C" points="15.146,24.537 14.644,23.938 14.644,22.839 15.146,22.239 		"/>
	</g>
	<g>
		<polygon id="_x30_.1.2.0.0.0.0.1_1_" fill="#404040" points="5.213,37.575 9.213,37.575 12.513,37.575 16.414,37.575 
			18.014,36.073 18.014,32.075 16.414,30.574 12.513,30.574 9.213,30.574 5.213,30.574 3.713,32.075 3.713,36.073 		"/>
		<polygon id="_x30_.1.2.0.0.0.0.4_1_" fill="#404040" points="5.213,37.575 9.213,37.575 12.513,37.575 16.414,37.575 
			18.014,36.073 18.014,32.075 16.414,30.574 12.513,30.574 9.213,30.574 5.213,30.574 3.713,32.075 3.713,36.073 		"/>
		<rect id="_x30_.1.2.0.0.0.0.8.0_1_" x="13.214" y="33.074" fill="#8D8C8C" width="2.302" height="2.298"/>
		<rect id="_x30_.1.2.0.0.0.0.9.0_1_" x="6.113" y="33.074" fill="#8D8C8C" width="2.301" height="2.298"/>
		<rect id="_x30_.1.2.0.0.0.0.22.0_1_" x="6.613" y="33.675" fill="#8C8663" width="1.2" height="1.197"/>
		<polygon id="_x30_.1.2.0.0.0.0.23_1_" fill="#B8AF82" points="8.313,35.372 7.813,34.773 6.613,34.773 6.113,35.372 		"/>
		<polygon id="_x30_.1.2.0.0.0.0.24_1_" fill="#80795B" points="6.613,33.675 6.613,34.773 6.113,35.372 6.113,33.074 		"/>
		<polygon id="_x30_.1.2.0.0.0.0.25_1_" fill="#5E5B43" points="7.813,33.675 6.613,33.675 6.113,33.074 8.313,33.074 		"/>
		<polygon id="_x30_.1.2.0.0.0.0.26_1_" fill="#9A916C" points="8.313,35.372 7.813,34.773 7.813,33.675 8.313,33.074 		"/>
		<rect id="_x30_.1.2.0.0.0.0.27.0_1_" x="13.812" y="33.675" fill="#8C8663" width="1.2" height="1.197"/>
		<polygon id="_x30_.1.2.0.0.0.0.28_1_" fill="#B8AF82" points="15.514,35.372 15.012,34.773 13.812,34.773 13.313,35.372 		"/>
		<polygon id="_x30_.1.2.0.0.0.0.29_1_" fill="#80795B" points="13.812,33.675 13.812,34.773 13.313,35.372 13.313,33.074 		"/>
		<polygon id="_x30_.1.2.0.0.0.0.30_1_" fill="#5E5B43" points="15.012,33.675 13.812,33.675 13.313,33.074 15.514,33.074 		"/>
		<polygon id="_x30_.1.2.0.0.0.0.31_1_" fill="#9A916C" points="15.514,35.372 15.012,34.773 15.012,33.675 15.514,33.074 		"/>
	</g>
	<g>
		<polygon id="_x30_.1.2.0.0.0.0.1_2_" fill="#404040" points="155.563,79.162 159.563,79.162 162.865,79.162 166.764,79.162 
			168.365,77.66 168.365,73.662 166.764,72.161 162.865,72.161 159.563,72.161 155.563,72.161 154.063,73.662 154.063,77.66 		"/>
		<polygon id="_x30_.1.2.0.0.0.0.4_2_" fill="#404040" points="155.563,79.162 159.563,79.162 162.865,79.162 166.764,79.162 
			168.365,77.66 168.365,73.662 166.764,72.161 162.865,72.161 159.563,72.161 155.563,72.161 154.063,73.662 154.063,77.66 		"/>
		<rect id="_x30_.1.2.0.0.0.0.8.0_2_" x="163.564" y="74.661" fill="#8D8C8C" width="2.302" height="2.298"/>
		<rect id="_x30_.1.2.0.0.0.0.9.0_2_" x="156.464" y="74.661" fill="#8D8C8C" width="2.301" height="2.298"/>
		<rect id="_x30_.1.2.0.0.0.0.22.0_2_" x="156.964" y="75.263" fill="#8C8663" width="1.2" height="1.196"/>
		<polygon id="_x30_.1.2.0.0.0.0.23_2_" fill="#B8AF82" points="158.664,76.959 158.164,76.36 156.964,76.36 156.464,76.959 		"/>
		<polygon id="_x30_.1.2.0.0.0.0.24_2_" fill="#80795B" points="156.964,75.263 156.964,76.36 156.464,76.959 156.464,74.661 		"/>
		<polygon id="_x30_.1.2.0.0.0.0.25_2_" fill="#5E5B43" points="158.164,75.263 156.964,75.263 156.464,74.661 158.664,74.661 		"/>
		<polygon id="_x30_.1.2.0.0.0.0.26_2_" fill="#9A916C" points="158.664,76.959 158.164,76.36 158.164,75.263 158.664,74.661 		"/>
		<rect id="_x30_.1.2.0.0.0.0.27.0_2_" x="164.163" y="75.263" fill="#8C8663" width="1.199" height="1.196"/>
		<polygon id="_x30_.1.2.0.0.0.0.28_2_" fill="#B8AF82" points="165.865,76.959 165.363,76.36 164.163,76.36 163.664,76.959 		"/>
		<polygon id="_x30_.1.2.0.0.0.0.29_2_" fill="#80795B" points="164.163,75.263 164.163,76.36 163.664,76.959 163.664,74.661 		"/>
		<polygon id="_x30_.1.2.0.0.0.0.30_2_" fill="#5E5B43" points="165.363,75.263 164.163,75.263 163.664,74.661 165.865,74.661 		"/>
		<polygon id="_x30_.1.2.0.0.0.0.31_2_" fill="#9A916C" points="165.865,76.959 165.363,76.36 165.363,75.263 165.865,74.661 		"/>
	</g>
	<g>
		<g id="j20">
			<circle id="pin56" fill="none" stroke="#F7BD13" stroke-width="1.1" stroke-miterlimit="10" cx="119.375" cy="44.976" r="2"/>
			<circle id="pin55" fill="none" stroke="#F7BD13" stroke-width="1.1" stroke-miterlimit="10" cx="112.175" cy="44.976" r="2"/>
			<circle id="pin54" fill="none" stroke="#F7BD13" stroke-width="1.1" stroke-miterlimit="10" cx="104.975" cy="44.976" r="2"/>
			<circle id="pin53" fill="none" stroke="#F7BD13" stroke-width="1.1" stroke-miterlimit="10" cx="97.775" cy="44.976" r="2"/>
			<circle id="pin52" fill="none" stroke="#F7BD13" stroke-width="1.1" stroke-miterlimit="10" cx="90.576" cy="44.976" r="2"/>
			<circle id="pin51" fill="none" stroke="#F7BD13" stroke-width="1.1" stroke-miterlimit="10" cx="83.375" cy="44.976" r="2"/>
			<circle id="pin50" fill="none" stroke="#F7BD13" stroke-width="1.1" stroke-miterlimit="10" cx="76.174" cy="44.976" r="2"/>
			<circle id="pin49" fill="none" stroke="#F7BD13" stroke-width="1.1" stroke-miterlimit="10" cx="68.974" cy="44.976" r="2"/>
			<circle id="pin48" fill="none" stroke="#F7BD13" stroke-width="1.1" stroke-miterlimit="10" cx="61.775" cy="44.976" r="2"/>
			<circle id="pin47" fill="none" stroke="#F7BD13" stroke-width="1.1" stroke-miterlimit="10" cx="54.574" cy="44.976" r="2"/>
			<circle id="pin46" fill="none" stroke="#F7BD13" stroke-width="1.1" stroke-miterlimit="10" cx="47.373" cy="44.976" r="2"/>
			<circle id="pin45" fill="none" stroke="#F7BD13" stroke-width="1.1" stroke-miterlimit="10" cx="40.173" cy="44.976" r="2"/>
			<circle id="pin44" fill="none" stroke="#F7BD13" stroke-width="1.1" stroke-miterlimit="10" cx="32.973" cy="44.976" r="2"/>
			<circle id="pin43" fill="none" stroke="#F7BD13" stroke-width="1.1" stroke-miterlimit="10" cx="25.773" cy="44.976" r="2"/>
		</g>
		<g id="j19">
			<circle id="pin42" fill="none" stroke="#F7BD13" stroke-width="1.1" stroke-miterlimit="10" cx="119.375" cy="37.775" r="2"/>
			<circle id="pin41" fill="none" stroke="#F7BD13" stroke-width="1.1" stroke-miterlimit="10" cx="112.175" cy="37.775" r="2"/>
			<circle id="pin40" fill="none" stroke="#F7BD13" stroke-width="1.1" stroke-miterlimit="10" cx="104.975" cy="37.775" r="2"/>
			<circle id="pin39" fill="none" stroke="#F7BD13" stroke-width="1.1" stroke-miterlimit="10" cx="97.775" cy="37.775" r="2"/>
			<circle id="pin38" fill="none" stroke="#F7BD13" stroke-width="1.1" stroke-miterlimit="10" cx="90.576" cy="37.775" r="2"/>
			<circle id="pin37" fill="none" stroke="#F7BD13" stroke-width="1.1" stroke-miterlimit="10" cx="83.375" cy="37.775" r="2"/>
			<circle id="pin36" fill="none" stroke="#F7BD13" stroke-width="1.1" stroke-miterlimit="10" cx="76.174" cy="37.775" r="2"/>
			<circle id="pin35" fill="none" stroke="#F7BD13" stroke-width="1.1" stroke-miterlimit="10" cx="68.974" cy="37.775" r="2"/>
			<circle id="pin34" fill="none" stroke="#F7BD13" stroke-width="1.1" stroke-miterlimit="10" cx="61.775" cy="37.775" r="2"/>
			<circle id="pin33" fill="none" stroke="#F7BD13" stroke-width="1.1" stroke-miterlimit="10" cx="54.574" cy="37.775" r="2"/>
			<circle id="pin32" fill="none" stroke="#F7BD13" stroke-width="1.1" stroke-miterlimit="10" cx="47.373" cy="37.775" r="2"/>
			<circle id="pin31" fill="none" stroke="#F7BD13" stroke-width="1.1" stroke-miterlimit="10" cx="40.173" cy="37.775" r="2"/>
			<circle id="pin30" fill="none" stroke="#F7BD13" stroke-width="1.1" stroke-miterlimit="10" cx="32.973" cy="37.775" r="2"/>
			<circle id="pin29" fill="none" stroke="#F7BD13" stroke-width="1.1" stroke-miterlimit="10" cx="25.773" cy="37.775" r="2"/>
		</g>
		<g id="j18">
			<circle id="pin28" fill="none" stroke="#F7BD13" stroke-width="1.1" stroke-miterlimit="10" cx="119.375" cy="30.574" r="2"/>
			<circle id="pin27" fill="none" stroke="#F7BD13" stroke-width="1.1" stroke-miterlimit="10" cx="112.175" cy="30.574" r="2"/>
			<circle id="pin26" fill="none" stroke="#F7BD13" stroke-width="1.1" stroke-miterlimit="10" cx="104.975" cy="30.574" r="2"/>
			<circle id="pin25" fill="none" stroke="#F7BD13" stroke-width="1.1" stroke-miterlimit="10" cx="97.775" cy="30.574" r="2"/>
			<circle id="pin24" fill="none" stroke="#F7BD13" stroke-width="1.1" stroke-miterlimit="10" cx="90.576" cy="30.574" r="2"/>
			<circle id="pin23" fill="none" stroke="#F7BD13" stroke-width="1.1" stroke-miterlimit="10" cx="83.375" cy="30.574" r="2"/>
			<circle id="pin22" fill="none" stroke="#F7BD13" stroke-width="1.1" stroke-miterlimit="10" cx="76.174" cy="30.574" r="2"/>
			<circle id="pin21" fill="none" stroke="#F7BD13" stroke-width="1.1" stroke-miterlimit="10" cx="68.974" cy="30.574" r="2"/>
			<circle id="pin20" fill="none" stroke="#F7BD13" stroke-width="1.1" stroke-miterlimit="10" cx="61.775" cy="30.574" r="2"/>
			<circle id="pin19" fill="none" stroke="#F7BD13" stroke-width="1.1" stroke-miterlimit="10" cx="54.574" cy="30.574" r="2"/>
			<circle id="pin18" fill="none" stroke="#F7BD13" stroke-width="1.1" stroke-miterlimit="10" cx="47.373" cy="30.574" r="2"/>
			<circle id="pin17" fill="none" stroke="#F7BD13" stroke-width="1.1" stroke-miterlimit="10" cx="40.173" cy="30.574" r="2"/>
			<circle id="pin16" fill="none" stroke="#F7BD13" stroke-width="1.1" stroke-miterlimit="10" cx="32.973" cy="30.574" r="2"/>
			<circle id="pin15" fill="none" stroke="#F7BD13" stroke-width="1.1" stroke-miterlimit="10" cx="25.773" cy="30.574" r="2"/>
		</g>
		<g id="j17">
			<circle id="pin14" fill="none" stroke="#F7BD13" stroke-width="1.1" stroke-miterlimit="10" cx="119.375" cy="23.374" r="2"/>
			<circle id="pin13" fill="none" stroke="#F7BD13" stroke-width="1.1" stroke-miterlimit="10" cx="112.175" cy="23.374" r="2"/>
			<circle id="pin12" fill="none" stroke="#F7BD13" stroke-width="1.1" stroke-miterlimit="10" cx="104.975" cy="23.374" r="2"/>
			<circle id="pin11" fill="none" stroke="#F7BD13" stroke-width="1.1" stroke-miterlimit="10" cx="97.775" cy="23.374" r="2"/>
			<circle id="pin10" fill="none" stroke="#F7BD13" stroke-width="1.1" stroke-miterlimit="10" cx="90.576" cy="23.374" r="2"/>
			<circle id="pin9" fill="none" stroke="#F7BD13" stroke-width="1.1" stroke-miterlimit="10" cx="83.375" cy="23.374" r="2"/>
			<circle id="pin8" fill="none" stroke="#F7BD13" stroke-width="1.1" stroke-miterlimit="10" cx="76.174" cy="23.374" r="2"/>
			<circle id="pin7" fill="none" stroke="#F7BD13" stroke-width="1.1" stroke-miterlimit="10" cx="68.974" cy="23.374" r="2"/>
			<circle id="pin6" fill="none" stroke="#F7BD13" stroke-width="1.1" stroke-miterlimit="10" cx="61.775" cy="23.374" r="2"/>
			<circle id="pin5" fill="none" stroke="#F7BD13" stroke-width="1.1" stroke-miterlimit="10" cx="54.574" cy="23.374" r="2"/>
			<circle id="pin4" fill="none" stroke="#F7BD13" stroke-width="1.1" stroke-miterlimit="10" cx="47.373" cy="23.374" r="2"/>
			<circle id="pin3" fill="none" stroke="#F7BD13" stroke-width="1.1" stroke-miterlimit="10" cx="40.173" cy="23.374" r="2"/>
			<circle id="pin2" fill="none" stroke="#F7BD13" stroke-width="1.1" stroke-miterlimit="10" cx="32.973" cy="23.374" r="2"/>
			<circle id="pin1" fill="none" stroke="#F7BD13" stroke-width="1.1" stroke-miterlimit="10" cx="25.773" cy="23.374" r="2"/>
		</g>
	</g>
	<g id="edison" opacity="0.7">
		<path fill="#035CA3" d="M20.142,5.09v69.656h99.729V5.09H20.142z M32.762,12.491c-1.813,0-3.279-1.467-3.279-3.278
			s1.467-3.279,3.279-3.279c1.806,0,3.275,1.468,3.275,3.279C36.038,11.023,34.568,12.491,32.762,12.491z M114.101,71.25
			c-1.947,0-3.524-1.578-3.524-3.524c0-1.945,1.577-3.523,3.524-3.523c1.941,0,3.521,1.578,3.521,3.523
			C117.625,69.672,116.044,71.25,114.101,71.25z"/>
		<rect x="20.141" y="58.364" fill="#036EA3" width="40.448" height="16.383"/>
		<rect x="20.142" y="74.747" fill="#1A476C" width="99.729" height="0.914"/>
		<rect x="43.242" y="6.456" fill="#D0CFCE" width="75.858" height="51.041"/>
		<rect x="43.242" y="57.497" fill="#9C9B9B" width="75.858" height="1.666"/>
		<rect x="25.942" y="63.858" fill="#B5B1AC" width="30.833" height="8.955"/>
		<rect x="25.942" y="72.813" fill="#888581" width="30.833" height="0.813"/>
		<rect x="53.927" y="63.858" fill="#D0CFCE" width="2.85" height="8.955"/>
		<rect x="50.265" y="63.858" fill="#D0CFCE" width="2.848" height="8.955"/>
		<polygon fill="#D0CFCE" points="32.659,63.858 32.659,67.317 36.324,67.317 36.324,67.726 28.284,67.726 28.284,67.317 
			31.031,67.317 31.031,63.858 25.942,63.858 25.942,72.813 31.031,72.813 31.031,69.353 28.284,69.353 28.284,69.047 
			36.324,69.047 36.324,69.353 32.659,69.353 32.659,72.813 48.331,72.813 48.331,63.858 		"/>
		<g>
			<g>
				<path fill="#1A1A1A" d="M62.953,30.062c-5.922,0.519-12.055-0.316-12.885-4.885c-0.416-2.289,0.626-4.677,1.977-6.133V18.21
					c-2.494,2.183-3.846,4.887-3.016,8.105c0.934,4.16,6.237,6.547,14.344,5.718c3.225-0.313,7.377-1.351,10.285-2.91v-2.286
					C70.957,28.501,66.591,29.749,62.953,30.062 M78.542,18.211c-1.351-6.858-14.65-7.276-23.174-2.078v0.624
					c8.521-4.364,20.575-4.364,21.721,1.973c0.412,2.08-0.832,4.261-2.913,5.51v1.664C76.672,24.763,79.271,21.849,78.542,18.211z
					 M73.138,25.695c-1.145-0.106-1.559-0.832-1.559-1.667V17.17h1.559V25.695z M54.746,25.802
					c-1.146-0.106-1.563-0.833-1.563-1.663v-4.471h1.563V25.802z M53.185,17.381h1.563v1.451h-1.563V17.381z M63.994,25.695
					c-1.246,0-1.77-0.832-1.77-1.768v-5.921h1.563v1.665h1.146v1.245h-1.248v3.013c0,0.314,0.209,0.519,0.52,0.519h0.627v1.249
					L63.994,25.695 M66.8,23.203c0,0.829,0.521,1.35,1.354,1.35c0.728,0,1.039-0.205,1.455-0.624l0.933,0.936
					c-0.621,0.624-1.24,0.933-2.393,0.933c-1.449,0-2.906-0.83-2.906-3.116c0-1.975,1.243-3.116,2.805-3.116
					c1.662,0,2.602,1.348,2.602,3.01v0.521H66.8 M68.046,20.811c-0.519,0-0.935,0.311-1.146,0.623
					c-0.104,0.208-0.104,0.416-0.104,0.627h2.395C69.089,21.435,68.775,20.811,68.046,20.811z M57.656,20.915v4.784h-1.559v-6.031
					h3.117c1.349,0,1.769,0.935,1.769,1.764v4.264h-1.457v-4.262c0-0.312-0.207-0.623-0.625-0.623h-1.245V20.915L57.656,20.915z"/>
				<path fill="#1A1A1A" d="M75.115,18.109c-0.313,0-0.621-0.313-0.621-0.622c0-0.313,0.313-0.627,0.621-0.627
					c0.313,0,0.62,0.314,0.62,0.627C75.736,17.797,75.426,18.109,75.115,18.109 M75.115,16.97c-0.313,0-0.521,0.208-0.521,0.519
					c0,0.31,0.206,0.521,0.521,0.521c0.313,0,0.521-0.21,0.521-0.521C75.633,17.177,75.426,16.97,75.115,16.97z M75.322,17.797
					L75.322,17.797L75.322,17.797l-0.313-0.31l0,0l0,0l0,0v0.31l0,0h-0.104l0,0v-0.621V17.07c0,0,0.104,0,0.206,0
					c0.207,0,0.313,0.106,0.313,0.206l0,0c0,0.103-0.104,0.21-0.104,0.21L75.322,17.797C75.426,17.797,75.426,17.797,75.322,17.797
					C75.426,17.797,75.426,17.797,75.322,17.797z M75.218,17.278C75.218,17.177,75.218,17.177,75.218,17.278
					c-0.104-0.102-0.104-0.102-0.207-0.102l0,0v0.203L75.218,17.278C75.218,17.381,75.218,17.381,75.218,17.278L75.218,17.278z"/>
				<path fill="#1A1A1A" d="M82.804,21.954v3.118h4.152v0.626h-4.881v-8.004h4.881v0.621h-4.152v3.015h3.529v0.624H82.804
					 M90.182,19.771c0.415,0,0.835,0.103,1.25,0.312c0.311,0.206,0.621,0.417,0.825,0.831v-3.428h0.729V25.8h-0.313
					c-0.204,0-0.313-0.106-0.313-0.313v-0.725c-0.207,0.415-0.413,0.623-0.832,0.933c-0.313,0.207-0.829,0.313-1.354,0.313
					c-0.416,0-0.729-0.104-1.037-0.206c-0.313-0.104-0.624-0.313-0.834-0.624c-0.205-0.208-0.412-0.626-0.52-0.937
					c-0.104-0.415-0.209-0.833-0.209-1.249c0-0.519,0.104-0.931,0.209-1.242c0.104-0.417,0.313-0.728,0.52-0.938
					c0.209-0.207,0.521-0.417,0.834-0.622C89.457,19.875,89.871,19.771,90.182,19.771z M92.259,22.787
					c0-0.727-0.204-1.355-0.518-1.769c-0.313-0.416-0.83-0.626-1.455-0.626c-0.623,0-1.146,0.21-1.453,0.626
					c-0.313,0.414-0.521,1.041-0.521,1.769c0,0.723,0.21,1.352,0.521,1.764c0.313,0.416,0.832,0.626,1.453,0.626
					c0.623,0,1.146-0.208,1.455-0.626C92.053,24.139,92.259,23.512,92.259,22.787z M94.443,17.694h0.836v0.935h-0.836V17.694z
					 M94.547,19.979h0.729v5.716h-0.729V19.979z M98.601,20.395c-0.415,0-0.729,0.107-1.039,0.208
					c-0.207,0.106-0.416,0.416-0.416,0.727c0,0.209,0.104,0.416,0.209,0.624c0.104,0.107,0.31,0.209,0.622,0.315l1.145,0.312
					c0.418,0.103,0.834,0.312,1.041,0.518c0.205,0.208,0.313,0.52,0.313,0.931c0,0.521-0.209,0.938-0.521,1.25
					c-0.414,0.31-0.832,0.521-1.56,0.521c-0.419,0-0.938-0.106-1.248-0.212c-0.416-0.103-0.729-0.31-0.937-0.517l0.313-0.521
					c0.205,0.211,0.519,0.313,0.834,0.417c0.31,0.103,0.621,0.208,1.035,0.208c0.413,0,0.83-0.109,1.039-0.313
					c0.206-0.207,0.415-0.418,0.415-0.835c0-0.204-0.104-0.412-0.208-0.623c-0.104-0.104-0.313-0.312-0.625-0.312l-1.145-0.206
					c-0.416-0.108-0.729-0.314-1.039-0.521c-0.209-0.208-0.313-0.519-0.313-0.935c0-0.206,0.104-0.519,0.207-0.725
					s0.208-0.314,0.415-0.519c0.209-0.105,0.416-0.208,0.622-0.315c0.209-0.104,0.521-0.104,0.833-0.104s0.625,0,1.038,0.104
					c0.313,0.107,0.625,0.21,0.834,0.417l-0.313,0.518c-0.206-0.103-0.413-0.205-0.727-0.31
					C99.225,20.5,98.914,20.395,98.601,20.395z M104.21,25.902c-0.413,0-0.827-0.105-1.142-0.207
					c-0.313-0.106-0.627-0.312-0.834-0.627c-0.209-0.31-0.411-0.622-0.521-0.929c-0.104-0.419-0.207-0.833-0.207-1.25
					c0-0.416,0.104-0.829,0.207-1.247c0.104-0.413,0.313-0.727,0.521-0.933c0.207-0.206,0.521-0.416,0.834-0.624
					c0.313-0.105,0.729-0.208,1.142-0.208c0.42,0,0.832,0.106,1.146,0.208c0.313,0.105,0.624,0.311,0.836,0.624
					c0.204,0.206,0.412,0.624,0.521,0.933c0.104,0.418,0.205,0.832,0.205,1.247c0,0.417-0.104,0.831-0.205,1.25
					c-0.104,0.413-0.313,0.725-0.521,0.929c-0.212,0.315-0.521,0.416-0.836,0.627C105.042,25.802,104.628,25.902,104.21,25.902z
					 M102.133,22.889c0,0.729,0.209,1.353,0.521,1.768c0.313,0.412,0.834,0.623,1.457,0.623s1.142-0.208,1.453-0.623
					c0.313-0.415,0.521-1.039,0.521-1.768c0-0.725-0.205-1.349-0.521-1.766c-0.313-0.414-0.83-0.621-1.453-0.621
					c-0.625,0-1.146,0.206-1.457,0.621C102.342,21.435,102.133,22.06,102.133,22.889z M108.264,19.979h0.313
					c0.207,0,0.312,0.105,0.312,0.31v0.729c0.211-0.416,0.413-0.729,0.835-0.934c0.312-0.208,0.825-0.312,1.244-0.312
					c0.621,0,1.145,0.207,1.561,0.517c0.313,0.417,0.521,0.937,0.521,1.665v3.745h-0.729v-3.535c0-0.622-0.104-1.039-0.313-1.247
					c-0.207-0.312-0.625-0.413-1.146-0.413c-0.622,0-1.146,0.208-1.452,0.624c-0.312,0.415-0.521,1.039-0.521,1.764v2.809h-0.623
					L108.264,19.979L108.264,19.979z"/>
			</g>
			<text transform="matrix(1 0 0 1 49.1326 52.6084)" font-family="'DroidSans'" font-size="6.2355">What will you make?</text>
		</g>
		<rect x="26.144" y="41.625" fill="#F7BD13" width="0.815" height="2.853"/>
		<rect x="26.144" y="41.625" fill="#FCE5A1" width="0.815" height="0.104"/>
		<rect x="26.144" y="44.575" fill="#B98E0E" width="0.815" height="0.104"/>
		<rect x="28.897" y="48.952" fill="#B98E0E" width="6.304" height="0.105"/>
		<rect x="28.897" y="48.136" fill="#F7BD13" width="6.304" height="0.918"/>
		<rect x="26.655" y="37.555" fill="#E6E6E6" width="10.786" height="10.786"/>
		<polygon fill="#B3B3B3" points="26.655,48.241 26.655,48.647 28.897,48.647 28.897,48.442 35.204,48.442 35.204,48.647 
			37.441,48.647 37.441,48.241 		"/>
		<rect x="28.897" y="48.442" fill="#B98E0E" width="6.304" height="0.104"/>
		<rect x="35" y="41.625" fill="#F7BD13" width="3.052" height="2.853"/>
		<rect x="35" y="41.625" fill="#FCE5A1" width="3.052" height="0.104"/>
		<rect x="37.441" y="44.575" fill="#B98E0E" width="0.512" height="0.104"/>
		<circle fill="#FAD771" cx="32.048" cy="42.948" r="3.764"/>
		<circle fill="#FEE98C" cx="32.048" cy="42.948" r="3.764"/>
		<circle fill="#ECB74D" cx="32.048" cy="42.945" r="3.663"/>
		<path fill="#DB7D00" d="M28.387,43.046c0-2.034,1.628-3.661,3.66-3.661c2.039,0,3.662,1.626,3.662,3.661v-0.102
			c0-2.034-1.624-3.666-3.662-3.666c-2.032,0-3.66,1.629-3.66,3.666V43.046z"/>
		<circle fill="#FEE068" cx="32.048" cy="42.946" r="1.119"/>
		<rect x="31.031" y="41.931" fill="#FEE068" width="2.138" height="1.016"/>
		<circle fill="#ECC847" cx="32.048" cy="42.031" r="1.12"/>
		<path fill="#FBC91A" d="M32.048,41.119c0.395,0,0.716,0.315,0.716,0.712c0,0.389-0.32,0.71-0.716,0.71
			c-0.392,0-0.71-0.321-0.71-0.71C31.338,41.434,31.657,41.119,32.048,41.119z"/>
		<path fill="#E8A00E" d="M28.284,42.03c0,2.035,1.73,3.768,3.766,3.768c2.039,0,3.767-1.73,3.767-3.768v0.816
			c0,2.031-1.728,3.762-3.767,3.762c-2.032,0-3.766-1.729-3.766-3.762V42.03z"/>
		<path fill="#E8A00E" d="M28.487,42.03c0-2.036,1.629-3.662,3.666-3.662c2.035,0,3.661,1.627,3.661,3.662v0.816
			c0-2.04-1.627-3.667-3.661-3.667c-2.037,0-3.666,1.626-3.666,3.667V42.03z"/>
		<path fill="#FEE068" d="M32.048,38.268c-2.032,0-3.766,1.728-3.766,3.762c0,2.035,1.73,3.771,3.766,3.771
			c2.039,0,3.767-1.734,3.767-3.771C35.813,39.995,34.186,38.268,32.048,38.268z M32.048,45.696c-2.032,0-3.66-1.631-3.66-3.666
			c0-2.036,1.628-3.667,3.66-3.667c2.039,0,3.662,1.63,3.662,3.667C35.71,44.065,34.087,45.696,32.048,45.696z"/>
		<path fill="#F7BD13" d="M114.101,62.64c-2.813,0-5.088,2.271-5.088,5.086c0,2.813,2.273,5.088,5.088,5.088
			c2.81,0,5.088-2.275,5.088-5.088C119.187,64.911,116.91,62.64,114.101,62.64z M114.101,71.25c-1.947,0-3.524-1.578-3.524-3.524
			c0-1.945,1.577-3.523,3.524-3.523c1.941,0,3.521,1.578,3.521,3.523C117.625,69.672,116.044,71.25,114.101,71.25z"/>
		<path fill="#F7BD13" d="M35.278,5.207c-0.062-0.04-0.188-0.114-0.188-0.114l-4.653-0.004c-1.438,0.813-2.409,2.355-2.409,4.124
			c0,2.613,2.12,4.73,4.736,4.73c2.607,0,4.729-2.119,4.729-4.73C37.492,7.523,36.61,6.044,35.278,5.207z M32.762,12.491
			c-1.813,0-3.279-1.467-3.279-3.278s1.467-3.279,3.279-3.279c1.806,0,3.275,1.468,3.275,3.279
			C36.038,11.023,34.568,12.491,32.762,12.491z"/>
	</g>
	<path fill="#E6E6E6" d="M32.762,12.491c-1.813,0-3.279-1.467-3.279-3.278s1.467-3.279,3.279-3.279c1.806,0,3.275,1.468,3.275,3.279
		C36.038,11.023,34.568,12.491,32.762,12.491z"/>
	<path fill="#E6E6E6" d="M114.102,71.25c-1.954,0-3.533-1.581-3.533-3.532s1.579-3.533,3.533-3.533c1.945,0,3.529,1.582,3.529,3.533
		C117.632,69.667,116.049,71.25,114.102,71.25z"/>
</g>
</svg>
