<?xml version="1.0" encoding="utf-8"?>
<!-- Generator: Adobe Illustrator 16.0.0, SVG Export Plug-In . SVG Version: 6.00 Build 0)  -->
<!DOCTYPE svg PUBLIC "-//W3C//DTD SVG 1.1//EN" "http://www.w3.org/Graphics/SVG/1.1/DTD/svg11.dtd">
<svg version="1.1"
	 xmlns:dc="http://purl.org/dc/elements/1.1/" xmlns:cc="http://creativecommons.org/ns#" xmlns:rdf="http://www.w3.org/1999/02/22-rdf-syntax-ns#" xmlns:svg="http://www.w3.org/2000/svg"
	 xmlns="http://www.w3.org/2000/svg" xmlns:xlink="http://www.w3.org/1999/xlink" x="0px" y="0px" width="28.347px"
	 height="17.007px" viewBox="-0.043 0 28.347 17.007" enable-background="new -0.043 0 28.347 17.007" xml:space="preserve">
<g id="breadboard" transform="translate(19.38084,25.687731)">
	<g>
		<rect x="-15.129" y="-25.685" fill="#B9B9B9" width="1.563" height="4.402"/>
		<rect x="2.977" y="-25.685" fill="#B9B9B9" width="1.563" height="4.402"/>
	</g>
	<path id="path4286_4_" fill="#B9B9B9" d="M2.977-24.746h-16.543v3.463H2.977V-24.746z"/>
	<g id="g5474" transform="translate(-106.65418,-99.447685)">
	</g>
	<path id="path4286_2_" fill="#B9B9B9" d="M5.337-25.688H8.88V-8.68H5.337V-25.688z"/>
	<path id="path4286_3_" fill="#B9B9B9" d="M-19.381-25.686h3.401v17.008h-3.401V-25.686z"/>
	<path id="connector0terminal" fill="#9A916C" d="M-13.669-18.798h2.665c0.156,0,0.283,0.127,0.283,0.284v2.665
		c0,0.156-0.127,0.283-0.283,0.283h-2.665c-0.156,0-0.283-0.127-0.283-0.283v-2.665C-13.952-18.671-13.825-18.798-13.669-18.798z"/>
	<path id="connector0pin" fill="#9A916C" d="M-13.669-18.798h2.665c0.156,0,0.283,0.127,0.283,0.284v2.665
		c0,0.156-0.127,0.283-0.283,0.283h-2.665c-0.156,0-0.283-0.127-0.283-0.283v-2.665C-13.952-18.671-13.825-18.798-13.669-18.798z"/>
	<path id="connector1terminal" fill="#9A916C" d="M-6.582-18.798h2.664c0.157,0,0.284,0.127,0.284,0.284v2.665
		c0,0.156-0.127,0.283-0.284,0.283h-2.664c-0.156,0-0.283-0.127-0.283-0.283v-2.665C-6.865-18.671-6.738-18.798-6.582-18.798z"/>
	<path id="connector1pin" fill="#9A916C" d="M-6.582-18.798h2.664c0.157,0,0.284,0.127,0.284,0.284v2.665
		c0,0.156-0.127,0.283-0.284,0.283h-2.664c-0.156,0-0.283-0.127-0.283-0.283v-2.665C-6.865-18.671-6.738-18.798-6.582-18.798z"/>
	<path id="connector2terminal" fill="#9A916C" d="M0.507-18.799h2.664c0.156,0,0.283,0.127,0.283,0.284v2.665
		c0,0.156-0.127,0.283-0.283,0.283H0.507c-0.158,0-0.285-0.127-0.285-0.283v-2.665C0.221-18.672,0.348-18.799,0.507-18.799z"/>
	<path id="connector2pin" fill="#9A916C" d="M0.507-18.799h2.664c0.156,0,0.283,0.127,0.283,0.284v2.665
		c0,0.156-0.127,0.283-0.283,0.283H0.507c-0.158,0-0.285-0.127-0.285-0.283v-2.665C0.221-18.672,0.348-18.799,0.507-18.799z"/>
	<path id="path4286" fill="#E2E2E2" d="M6.327-21.811h-23.244v9.259H6.327V-21.811z"/>
	<path id="path4286_1_" fill="#D0D0D0" d="M5.893-21.283h-22.376v8.203H5.893V-21.283z"/>
	<path id="path4286_5_" fill="#EFEFEF" d="M6.327-21.283H4.872v8.203h1.455V-21.283z"/>
	<path id="path4286_6_" fill="#EFEFEF" d="M-15.462-21.285h-1.455v8.203h1.455V-21.285z"/>
	<g id="g4830" transform="translate(-105.09513,-104.93867)">
		<path id="rect4154" opacity="0.95" fill="#8C8663" enable-background="new    " d="M92.234,86.948h1.049
			c0.156,0,0.283,0.126,0.283,0.283v1.049c0,0.157-0.127,0.284-0.283,0.284h-1.049c-0.157,0-0.284-0.127-0.284-0.284v-1.049
			C91.95,87.075,92.077,86.948,92.234,86.948z"/>
		<path id="path4217" opacity="0.95" fill="#5E5B43" enable-background="new    " d="M94.231,89.231l-0.808-0.809
			c-0.051,0.051-0.063,0.143-0.141,0.143h-1.048c-0.079,0-0.091-0.092-0.143-0.143l-0.808,0.809
			c0.052,0.051,0.063,0.142,0.142,0.142h2.664C94.17,89.372,94.18,89.282,94.231,89.231z"/>
		<path id="path4222" opacity="0.95" fill="#80795B" enable-background="new    " d="M93.425,87.09
			c0.051,0.051,0.141,0.063,0.141,0.142v1.048c0,0.079-0.091,0.092-0.143,0.143l0.808,0.809c0.052-0.052,0.143-0.063,0.143-0.141
			v-2.667c0-0.078-0.091-0.089-0.143-0.141L93.425,87.09z"/>
		<path id="path4220" opacity="0.95" fill="#9A916C" enable-background="new    " d="M91.285,86.283
			c-0.052,0.051-0.143,0.063-0.143,0.141v2.667c0,0.078,0.091,0.089,0.143,0.141l0.808-0.809c-0.052-0.051-0.143-0.063-0.143-0.143
			v-1.048c0-0.079,0.092-0.09,0.143-0.141L91.285,86.283z"/>
		<path id="rect4159" opacity="0.95" fill="#B8AF82" enable-background="new    " d="M91.285,86.283l0.808,0.808
			c0.052-0.052,0.063-0.142,0.143-0.142h1.048c0.079,0,0.092,0.089,0.143,0.141l0.806-0.807c-0.051-0.051-0.062-0.142-0.141-0.142
			h-2.664C91.348,86.141,91.337,86.232,91.285,86.283z"/>
	</g>
	<g id="g4843" transform="translate(-105.09539,-104.93867)">
		<path id="rect5450" opacity="0.95" fill="#8C8663" enable-background="new    " d="M99.321,86.948h1.049
			c0.156,0,0.283,0.126,0.283,0.283v1.049c0,0.157-0.127,0.284-0.283,0.284h-1.049c-0.156,0-0.283-0.127-0.283-0.284v-1.049
			C99.038,87.075,99.165,86.948,99.321,86.948z"/>
		<path id="path5452" opacity="0.95" fill="#5E5B43" enable-background="new    " d="M101.319,89.231l-0.808-0.809
			c-0.052,0.051-0.063,0.143-0.141,0.143h-1.049c-0.078,0-0.091-0.092-0.143-0.143l-0.808,0.809
			c0.052,0.051,0.063,0.142,0.143,0.142h2.664C101.257,89.372,101.269,89.282,101.319,89.231z"/>
		<path id="path5454" opacity="0.95" fill="#80795B" enable-background="new    " d="M100.513,87.09
			c0.052,0.051,0.141,0.063,0.141,0.142v1.048c0,0.079-0.091,0.092-0.142,0.143l0.808,0.809c0.051-0.052,0.142-0.063,0.142-0.141
			v-2.667c0-0.078-0.091-0.089-0.142-0.141L100.513,87.09z"/>
		<path id="path5456" opacity="0.95" fill="#9A916C" enable-background="new    " d="M98.372,86.283
			c-0.051,0.051-0.142,0.063-0.142,0.141v2.667c0,0.078,0.091,0.089,0.142,0.141l0.808-0.809c-0.051-0.051-0.142-0.063-0.142-0.143
			v-1.048c0-0.079,0.091-0.09,0.142-0.141L98.372,86.283z"/>
		<path id="path5458" opacity="0.95" fill="#B8AF82" enable-background="new    " d="M98.372,86.283l0.808,0.808
			c0.052-0.052,0.063-0.142,0.143-0.142h1.049c0.078,0,0.091,0.089,0.142,0.141l0.807-0.807c-0.051-0.051-0.063-0.142-0.141-0.142
			h-2.664C98.436,86.141,98.424,86.232,98.372,86.283z"/>
	</g>
	<g id="g4856" transform="translate(-105.09513,-104.93867)">
		<path id="rect5464" opacity="0.95" fill="#8C8663" enable-background="new    " d="M106.408,86.947h1.049
			c0.156,0,0.283,0.127,0.283,0.284v1.049c0,0.156-0.127,0.283-0.283,0.283h-1.049c-0.156,0-0.283-0.127-0.283-0.283v-1.049
			C106.125,87.075,106.252,86.947,106.408,86.947z"/>
		<path id="path5466" opacity="0.95" fill="#5E5B43" enable-background="new    " d="M108.406,89.229l-0.809-0.808
			c-0.051,0.052-0.063,0.142-0.141,0.142h-1.049c-0.078,0-0.09-0.09-0.143-0.142l-0.807,0.808c0.051,0.052,0.063,0.143,0.143,0.143
			h2.664C108.344,89.372,108.356,89.28,108.406,89.229z"/>
		<path id="path5468" opacity="0.95" fill="#80795B" enable-background="new    " d="M107.6,87.088
			c0.051,0.051,0.141,0.064,0.141,0.143v1.049c0,0.078-0.092,0.09-0.143,0.142l0.809,0.808c0.051-0.051,0.141-0.063,0.141-0.141
			v-2.666c0-0.078-0.09-0.089-0.141-0.141L107.6,87.088z"/>
		<path id="path5470" opacity="0.95" fill="#9A916C" enable-background="new    " d="M105.459,86.282
			c-0.051,0.051-0.143,0.063-0.143,0.141v2.666c0,0.078,0.092,0.09,0.143,0.141l0.807-0.808c-0.051-0.052-0.141-0.063-0.141-0.142
			v-1.049c0-0.078,0.09-0.09,0.141-0.141L105.459,86.282z"/>
		<path id="path5472" opacity="0.95" fill="#B8AF82" enable-background="new    " d="M105.459,86.282l0.807,0.808
			c0.053-0.051,0.064-0.142,0.143-0.142h1.049c0.078,0,0.092,0.089,0.143,0.14l0.807-0.806c-0.051-0.051-0.063-0.142-0.141-0.142
			h-2.664C105.522,86.14,105.51,86.231,105.459,86.282z"/>
	</g>
</g>
</svg>
