<?xml version="1.0" encoding="utf-8"?>
<!-- Generator: Adobe Illustrator 16.0.0, SVG Export Plug-In . SVG Version: 6.00 Build 0)  -->
<!DOCTYPE svg PUBLIC "-//W3C//DTD SVG 1.1//EN" "http://www.w3.org/Graphics/SVG/1.1/DTD/svg11.dtd">
<svg version="1.1" id="Ebene_1" xmlns="http://www.w3.org/2000/svg" xmlns:xlink="http://www.w3.org/1999/xlink" x="0px" y="0px"
	 width="212.598px" height="179.22px" viewBox="0 0 212.598 179.22" enable-background="new 0 0 212.598 179.22"
	 xml:space="preserve">
<desc>
	<referenceFile>generic_ic_dip_8_300mil_bread.svg</referenceFile>
</desc>
<g id="breadboard">
	<g id="bottom">
		<path d="M0,147.572c0-1.854,1.518-3.372,3.372-3.372h205.854c1.854,0,3.372,1.518,3.372,3.372v28.275
			c0,1.854-1.518,3.372-3.372,3.372H3.372c-1.854,0-3.372-1.518-3.372-3.372V147.572z"/>
	</g>
	<g id="connectors">
		<circle id="connector6pin" fill="none" stroke="#FFBF00" stroke-width="1.75" cx="192.755" cy="91.133" r="2.48"/>
		<circle id="connector5pin" fill="none" stroke="#FFBF00" stroke-width="1.75" cx="192.755" cy="127.273" r="2.48"/>
		<circle id="connector0pin" fill="none" stroke="#FFBF00" stroke-width="1.75" cx="21.232" cy="20.27" r="2.48"/>
		<circle id="connector1pin" fill="none" stroke="#FFBF00" stroke-width="1.75" cx="21.232" cy="76.252" r="2.48"/>
		<circle id="connector2pin" fill="none" stroke="#FFBF00" stroke-width="1.75" cx="21.232" cy="93.26" r="2.48"/>
		<circle id="connector3pin" fill="none" stroke="#FFBF00" stroke-width="1.75" cx="21.232" cy="110.268" r="2.48"/>
		<circle id="connector4pin" fill="none" stroke="#FFBF00" stroke-width="1.75" cx="21.232" cy="127.274" r="2.48"/>
	</g>
	<g>
		<path fill="#303030" d="M0,59.173c0-1.56,0-4.11,0-5.67V2.835C0,1.275,1.275,0,2.834,0h206.929c1.56,0,2.835,1.275,2.835,2.835
			v144.566c0,1.56-1.275,2.835-2.835,2.835H2.834c-1.559,0-2.834-1.275-2.834-2.835V59.173z"/>
	</g>
	<text id="label" transform="matrix(1 0 0 1 54.4878 62.3994)" enable-background="new    "><tspan x="0" y="0" fill="#E6E6E6" font-family="'OCRA'" font-size="5.76">INPUT: 18-32VDC  3.0A</tspan><tspan x="0" y="6.912" fill="#E6E6E6" font-family="'OCRA'" font-size="5.76">OUTPUT: 21-126VDC max. 146VDC</tspan><tspan x="0" y="13.824" fill="#E6E6E6" font-family="'OCRA'" font-size="5.76">constant current 350mA</tspan></text>
	<text id="label_1_" transform="matrix(1 0 0 1 54.4878 34.6494)" fill="#E6E6E6" font-family="'OCRA'" font-size="10">LDH-45B-350</text>
	<text id="label_2_" transform="matrix(1 0 0 1 26.0708 23.0635)" fill="#E6E6E6" font-family="'OCRA'" font-size="5.5">Vin+</text>
	<text id="label_3_" transform="matrix(1 0 0 1 26.0708 78.7334)" fill="#E6E6E6" font-family="'OCRA'" font-size="5.5">Vin-</text>
	<text id="label_4_" transform="matrix(1 0 0 1 26.0708 95.7402)" fill="#E6E6E6" font-family="'OCRA'" font-size="5.5">DIM-</text>
	<text id="label_5_" transform="matrix(1 0 0 1 26.0708 112.748)" fill="#E6E6E6" font-family="'OCRA'" font-size="5.5">Analogue DIM</text>
	<text id="label_6_" transform="matrix(1 0 0 1 26.0708 129.7539)" fill="#E6E6E6" font-family="'OCRA'" font-size="5.5">PWM DIM</text>
	<text id="label_8_" transform="matrix(1 0 0 1 168.356 93.6133)" fill="#E6E6E6" font-family="'OCRA'" font-size="5.5">Vout+</text>
	<text id="label_7_" transform="matrix(1 0 0 1 168.356 129.7539)" fill="#E6E6E6" font-family="'OCRA'" font-size="5.5">Vout-</text>
	<g id="connectors_1_">
		
			<circle id="connector6pin_1_" fill="none" stroke="#FFFFFF" stroke-width="0.5" stroke-miterlimit="10" cx="192.755" cy="91.133" r="2.48"/>
		
			<circle id="connector5pin_1_" fill="none" stroke="#FFFFFF" stroke-width="0.5" stroke-miterlimit="10" cx="192.755" cy="127.273" r="2.48"/>
		
			<circle id="connector0pin_1_" fill="none" stroke="#FFFFFF" stroke-width="0.5" stroke-miterlimit="10" cx="21.232" cy="20.27" r="2.48"/>
		
			<circle id="connector1pin_1_" fill="none" stroke="#FFFFFF" stroke-width="0.5" stroke-miterlimit="10" cx="21.232" cy="76.252" r="2.48"/>
		
			<circle id="connector2pin_1_" fill="none" stroke="#FFFFFF" stroke-width="0.5" stroke-miterlimit="10" cx="21.232" cy="93.26" r="2.48"/>
		
			<circle id="connector3pin_1_" fill="none" stroke="#FFFFFF" stroke-width="0.5" stroke-miterlimit="10" cx="21.232" cy="110.268" r="2.48"/>
		
			<circle id="connector4pin_1_" fill="none" stroke="#FFFFFF" stroke-width="0.5" stroke-miterlimit="10" cx="21.232" cy="127.274" r="2.48"/>
	</g>
</g>
</svg>
