<svg id="0" width="63" height="29.7" version="1.1" viewBox="0 0 50.4 23.76" xmlns="http://www.w3.org/2000/svg" xmlns:xml="http://www.w3.org/XML/1998/namespace">
 <desc id="0.0">
  <referenceFile id="0.0.0">svg.breadboard.LM124-324_Quad_Opamp.svg</referenceFile>
 </desc>
 <g id="breadboard">
  <rect id="middle" y="2.16" width="50.4" height="19.44" fill="#303030"/>
  <rect id="top" y="2.16" width="50.4" height="1.771" fill="#3d3d3d"/>
  <rect id="bottom" y="19.83" width="50.4" height="1.771"/>
  <polygon id="right" points="50.4 2.16 49.86 3.931 49.86 19.83 50.4 21.6" fill="#141414"/>
  <polygon id="left" points="0 2.16 .54 3.931 .54 19.83 0 21.6" fill="#1f1f1f"/>
  <polygon id="left-upper-rect" points=".403 11.88 3.6 11.88 3.6 8.28 .54 8.251 .403 9.777" fill="#1c1c1c"/>
  <polygon id="left-lower-rect" points=".403 11.88 .403 13.98 .54 15.52 3.6 15.52 3.6 11.88" fill="#383838"/>
  <path id="slot" d="m.403 9.777v4.199c1.059-.123 1.887-1.009 1.887-2.104s-.821-1.972-1.887-2.095z" fill="#262626"/>
  <path id="cover" d="m.54 3.931v4.313c1.714.324 3.018 1.821 3.018 3.629s-1.298 3.312-3.018 3.636v.008h3.6v-11.59h-3.6z" fill="#303030"/>
  <circle id="circle13" cx="4.68" cy="16.9" r="1.483" fill="#212121"/>
  <g fill="#8c8c8c">
   <rect id="connector0pin" x="2.52" y="20.64" width="2.16" height="3.124"/>
   <rect id="rect6651" x="2.52" y="21.6" width="2.16" height="2.159"/>
   <polygon id="polygon18" points="6.12 21.41 6.12 20.64 2.52 20.64 2.52 22.08 4.68 22.08"/>
   <rect id="connector13pin" x="2.52" width="2.16" height="3.125"/>
   <rect id="rect6655" x="2.52" width="2.16" height="2.16"/>
   <polygon id="polygon22" points="2.52 1.685 2.52 3.125 6.12 3.125 6.12 2.347 4.68 1.685"/>
   <rect id="connector6pin" x="45.72" y="20.64" width="2.158" height="3.124"/>
   <rect id="rect6659" x="45.72" y="21.6" width="2.158" height="2.159"/>
   <polygon id="polygon26" points="47.88 22.08 47.88 20.64 44.28 20.64 44.28 21.41 45.72 22.08"/>
   <rect id="connector7pin" x="45.72" width="2.158" height="3.125"/>
   <rect id="rect6663" x="45.72" width="2.158" height="2.16"/>
   <polygon id="polygon30" points="44.28 2.347 44.28 3.125 47.88 3.125 47.88 1.685 45.72 1.685"/>
   <rect id="connector1pin" x="9.72" y="20.64" width="2.158" height="3.124"/>
   <rect id="rect6667" x="9.72" y="21.6" width="2.158" height="2.159"/>
   <polygon id="polygon34" points="9.72 22.08 11.88 22.08 13.32 21.41 13.32 20.64 8.28 20.64 8.28 21.41"/>
   <rect id="connector12pin" x="9.72" width="2.158" height="3.125"/>
   <rect id="rect6671" x="9.72" width="2.158" height="2.16"/>
   <polygon id="polygon38" points="11.88 1.685 9.72 1.685 8.28 2.347 8.28 3.125 13.32 3.125 13.32 2.347"/>
   <rect id="connector2pin" x="16.92" y="20.64" width="2.16" height="3.124"/>
   <rect id="rect6675" x="16.92" y="21.6" width="2.16" height="2.159"/>
   <polygon id="polygon42" points="16.92 22.08 19.08 22.08 20.52 21.41 20.52 20.64 15.48 20.64 15.48 21.41"/>
   <rect id="connector11pin" x="16.92" width="2.16" height="3.125"/>
   <rect id="rect6679" x="16.92" width="2.16" height="2.16"/>
   <polygon id="polygon46" points="19.08 1.685 16.92 1.685 15.48 2.347 15.48 3.125 20.52 3.125 20.52 2.347"/>
   <rect id="connector3pin" x="24.12" y="20.64" width="2.16" height="3.124"/>
   <rect id="rect6683" x="24.12" y="21.6" width="2.16" height="2.159"/>
   <polygon id="polygon50" points="24.12 22.08 26.28 22.08 27.72 21.41 27.72 20.64 22.68 20.64 22.68 21.41"/>
   <rect id="connector10pin" x="24.12" width="2.16" height="3.125"/>
   <rect id="rect6687" x="24.12" width="2.16" height="2.16"/>
   <polygon id="polygon54" points="26.28 1.685 24.12 1.685 22.68 2.347 22.68 3.125 27.72 3.125 27.72 2.347"/>
   <rect id="connector4pin" x="31.32" y="20.64" width="2.16" height="3.124"/>
   <rect id="rect6691" x="31.32" y="21.6" width="2.16" height="2.159"/>
   <polygon id="polygon58" points="31.32 22.08 33.48 22.08 34.92 21.41 34.92 20.64 29.88 20.64 29.88 21.41"/>
   <rect id="connector9pin" x="31.32" width="2.16" height="3.125"/>
   <rect id="rect6695" x="31.32" width="2.16" height="2.16"/>
   <polygon id="polygon62" points="33.48 1.685 31.32 1.685 29.88 2.347 29.88 3.125 34.92 3.125 34.92 2.347"/>
   <rect id="connector5pin" x="38.52" y="20.64" width="2.16" height="3.124"/>
   <rect id="rect6699" x="38.52" y="21.6" width="2.16" height="2.159"/>
   <polygon id="polygon66" points="38.52 22.08 40.68 22.08 42.12 21.41 42.12 20.64 37.08 20.64 37.08 21.41"/>
   <rect id="connector8pin" x="38.52" width="2.16" height="3.125"/>
   <rect id="rect6703" x="38.52" width="2.16" height="2.16"/>
   <polygon id="polygon70" points="40.68 1.685 38.52 1.685 37.08 2.347 37.08 3.125 42.12 3.125 42.12 2.347"/>
  </g>
  <g fill="#b3b3b3" font-family="Droid Sans" font-size="5.12" font-weight="bold" letter-spacing="0px" word-spacing="0px" style="line-height:125%">
   <text id="tspan3226" x="8.7359381" y="14.165937">LM124-324</text>
  </g>
 </g>
</svg>
