<?xml version='1.0' encoding='UTF-8' standalone='no'?>
<svg
  xmlns:dc="http://purl.org/dc/elements/1.1/"
  xmlns:cc="http://creativecommons.org/ns#"
  xmlns:rdf="http://www.w3.org/1999/02/22-rdf-syntax-ns#"
  xmlns:svg="http://www.w3.org/2000/svg"
  xmlns="http://www.w3.org/2000/svg"
  enable-background="new 0 0 50.4 23.76"
  gorn="0"
  id="Layer_1"
  version="1.1"
  width="0.70000005in"
  y="0px"
  x="0px"
  xml:space="preserve"
  viewBox="0 0 700.00025 329.01054"
  height="0.32901043in">
  <style
    id="style71"
  />
  <metadata
    id="metadata69">
    <rdf:RDF>
      <cc:Work
        rdf:about="">
        <dc:format>image/svg+xml</dc:format>
        <dc:type
          rdf:resource="http://purl.org/dc/dcmitype/StillImage"
        />
        <dc:title/>
      </cc:Work>
    </rdf:RDF>
  </metadata>
  <defs
    id="defs67">
                </defs>
  <desc
    id="desc2">
    <referenceFile>LM239_383e0df5e7311423c672919352eb812d_8_breadboard.svg</referenceFile>
  </desc>
  <g
    id="breadboard">
    <rect
      height="269.99695"
      fill="#303030"
      x="0"
      y="29.999907"
      width="700.00024"
      id="middle"
      gorn="0.1.0.0"
      opacity="1"
      stroke-width="13.8888"
      stop-opacity="1"
    />
    <rect
      height="24.596945"
      fill="#3D3D3D"
      x="0"
      y="29.999907"
      width="700.00024"
      id="top"
      gorn="0.1.0.1"
      opacity="1"
      stroke-width="13.8888"
      stop-opacity="1"
    />
    <rect
      height="24.596945"
      x="0"
      y="274.99707"
      width="700.00024"
      id="bottom"
      gorn="0.1.0.2"
      opacity="1"
      stroke-width="13.8888"
      stop-opacity="1"
    />
    <polygon
      fill="#141414"
      id="right"
      gorn="0.1.0.3"
      points="50.4,2.16 49.86,3.931 49.86,19.829 50.4,21.601 "
      transform="matrix(13.888893,0,0,13.888732,0,1.8704618e-4)"
      opacity="1"
      stroke-width="0.999999"
      stop-opacity="1"
    />
    <polygon
      fill="#1F1F1F"
      id="left"
      gorn="0.1.0.4"
      points="0,2.16 0.54,3.888 0.54,19.8 0,21.601 "
      transform="matrix(13.888893,0,0,13.888732,0,1.8704618e-4)"
      opacity="1"
      stroke-width="0.999999"
      stop-opacity="1"
    />
    <polygon
      fill="#1C1C1C"
      id="left-upper-rect"
      gorn="0.1.0.5"
      points="0.403,11.88 3.6,11.88 3.6,8.28 0.54,8.208 0.403,9.72 "
      transform="matrix(13.888893,0,0,13.888732,0,1.8704618e-4)"
      opacity="1"
      stroke-width="0.999999"
      stop-opacity="1"
    />
    <polygon
      fill="#383838"
      id="left-lower-rect"
      gorn="0.1.0.6"
      points="0.403,11.88 0.403,13.681 0.54,15.479 3.6,15.479 3.6,11.88 "
      transform="matrix(13.888893,0,0,13.888732,0,1.8704618e-4)"
      opacity="1"
      stroke-width="0.999999"
      stop-opacity="1"
    />
    <path
      fill="#262626"
      d="m 5.5972238,134.99869 v 58.29106 c 14.7083372,-1.68064 26.0000072,-13.99989 26.0000072,-28.9858 0,-14.99994 -11.000003,-26.99973 -26.0000072,-28.99969 z"
      id="slot"
      gorn="0.1.0.7"
      opacity="1"
      stroke-width="13.8888"
      stop-opacity="1"
    />
    <path
      fill="#303030"
      d="m 7.5000022,53.999643 v 59.999207 c 24.0138958,4.49996 42.0000118,24.99976 42.0000118,49.99953 0,24.99962 -18.000005,45.99946 -42.0000118,49.99939 v 0.0972 L 58.000017,164.09561 V 54.999555 Z"
      id="cover"
      gorn="0.1.0.8"
      opacity="1"
      stroke-width="13.8888"
      stop-opacity="1"
    />
    <ellipse
      cy="233.99756"
      fill="#212121"
      id="circle13"
      gorn="0.1.0.9"
      cx="65.000015"
      rx="20.597229"
      ry="20.596991"
      opacity="1"
      stroke-width="13.8888"
      stop-opacity="1"
    />
    <text
      font-family="OCRA"
      font-size="60"
      fill="#E6E6E6"
      id="label"
      x="250.00128"
      y="184.71898">LM239</text>
    <rect
      height="43.013405"
      fill="#8C8C8C"
      x="35.000011"
      y="285.99713"
      width="30.00001"
      id="connector0pin"
      gorn="0.1.0.11"
      opacity="1"
      stroke-width="13.8888"
      stop-opacity="1"
    />
    <polygon
      fill="#8C8C8C"
      id="polygon18"
      gorn="0.1.0.13"
      points="6.12,21.384 6.12,20.592 2.52,20.592 2.52,22.032 4.68,22.032 "
      transform="matrix(13.888893,0,0,13.888732,0,1.8704618e-4)"
      opacity="1"
      stroke-width="0.999999"
      stop-opacity="1"
    />
    <rect
      height="42.999512"
      fill="#8C8C8C"
      x="35.000011"
      width="30.00001"
      id="connector13pin"
      gorn="0.1.0.14"
      y="0"
      opacity="1"
      stroke-width="13.8888"
      stop-opacity="1"
    />
    <polygon
      fill="#8C8C8C"
      id="polygon22"
      gorn="0.1.0.16"
      points="2.52,1.656 2.52,3.096 6.12,3.096 6.12,2.304 4.68,1.656 "
      transform="matrix(13.888893,0,0,13.888732,0,1.8704618e-4)"
      opacity="1"
      stroke-width="0.999999"
      stop-opacity="1"
    />
    <rect
      height="43.013405"
      fill="#8C8C8C"
      x="635.00018"
      y="285.99713"
      width="29.986118"
      id="connector6pin"
      gorn="0.1.0.17"
      opacity="1"
      stroke-width="13.8888"
      stop-opacity="1"
    />
    <polygon
      fill="#8C8C8C"
      id="polygon26"
      gorn="0.1.0.19"
      points="47.88,22.032 47.88,20.592 44.28,20.592 44.28,21.384 45.72,22.032 "
      transform="matrix(13.888893,0,0,13.888732,0,1.8704618e-4)"
      opacity="1"
      stroke-width="0.999999"
      stop-opacity="1"
    />
    <rect
      height="42.999512"
      fill="#8C8C8C"
      x="635.00018"
      width="29.986118"
      id="connector7pin"
      gorn="0.1.0.20"
      y="0"
      opacity="1"
      stroke-width="13.8888"
      stop-opacity="1"
    />
    <polygon
      fill="#8C8C8C"
      id="polygon30"
      gorn="0.1.0.22"
      points="44.28,2.304 44.28,3.096 47.88,3.096 47.88,1.656 45.72,1.656 "
      transform="matrix(13.888893,0,0,13.888732,0,1.8704618e-4)"
      opacity="1"
      stroke-width="0.999999"
      stop-opacity="1"
    />
    <rect
      height="42.999512"
      fill="#8C8C8C"
      x="135.00005"
      width="29.986118"
      id="connector12pin"
      gorn="0.1.0.23"
      y="0"
      opacity="1"
      stroke-width="13.8888"
      stop-opacity="1"
    />
    <polygon
      fill="#8C8C8C"
      id="polygon34"
      gorn="0.1.0.25"
      points="8.28,2.304 8.28,3.096 13.32,3.096 13.32,2.304 11.88,1.656 9.72,1.656 "
      transform="matrix(13.888893,0,0,13.888732,0,1.8704618e-4)"
      opacity="1"
      stroke-width="0.999999"
      stop-opacity="1"
    />
    <rect
      height="42.999512"
      fill="#8C8C8C"
      x="235.00008"
      width="30.00001"
      id="connector11pin"
      gorn="0.1.0.26"
      y="0"
      opacity="1"
      stroke-width="13.8888"
      stop-opacity="1"
    />
    <polygon
      fill="#8C8C8C"
      id="polygon38"
      gorn="0.1.0.28"
      points="15.48,2.304 15.48,3.096 20.52,3.096 20.52,2.304 19.08,1.656 16.92,1.656 "
      transform="matrix(13.888893,0,0,13.888732,0,1.8704618e-4)"
      opacity="1"
      stroke-width="0.999999"
      stop-opacity="1"
    />
    <rect
      height="42.999512"
      fill="#8C8C8C"
      x="335.00012"
      width="30.00001"
      id="connector10pin"
      gorn="0.1.0.29"
      y="0"
      opacity="1"
      stroke-width="13.8888"
      stop-opacity="1"
    />
    <polygon
      fill="#8C8C8C"
      id="polygon42"
      gorn="0.1.0.31"
      points="22.68,2.304 22.68,3.096 27.72,3.096 27.72,2.304 26.28,1.656 24.12,1.656 "
      transform="matrix(13.888893,0,0,13.888732,0,1.8704618e-4)"
      opacity="1"
      stroke-width="0.999999"
      stop-opacity="1"
    />
    <rect
      height="42.999512"
      fill="#8C8C8C"
      x="435.00012"
      width="30.00001"
      id="connector9pin"
      gorn="0.1.0.32"
      y="0"
      opacity="1"
      stroke-width="13.8888"
      stop-opacity="1"
    />
    <polygon
      fill="#8C8C8C"
      id="polygon46"
      gorn="0.1.0.34"
      points="29.88,2.304 29.88,3.096 34.92,3.096 34.92,2.304 33.48,1.656 31.32,1.656 "
      transform="matrix(13.888893,0,0,13.888732,0,1.8704618e-4)"
      opacity="1"
      stroke-width="0.999999"
      stop-opacity="1"
    />
    <rect
      height="42.999512"
      fill="#8C8C8C"
      x="535.00018"
      width="30.00001"
      id="connector8pin"
      gorn="0.1.0.35"
      y="0"
      opacity="1"
      stroke-width="13.8888"
      stop-opacity="1"
    />
    <polygon
      fill="#8C8C8C"
      id="polygon50"
      gorn="0.1.0.37"
      points="37.08,2.304 37.08,3.096 42.12,3.096 42.12,2.304 40.68,1.656 38.52,1.656 "
      transform="matrix(13.888893,0,0,13.888732,0,1.8704618e-4)"
      opacity="1"
      stroke-width="0.999999"
      stop-opacity="1"
    />
    <rect
      height="43.013405"
      fill="#8C8C8C"
      x="135.00005"
      y="285.99713"
      width="29.986118"
      id="connector1pin"
      gorn="0.1.0.38"
      opacity="1"
      stroke-width="13.8888"
      stop-opacity="1"
    />
    <polygon
      fill="#8C8C8C"
      id="polygon54"
      gorn="0.1.0.40"
      points="13.32,21.384 13.32,20.592 8.28,20.592 8.28,21.384 9.72,22.032 11.88,22.032 "
      transform="matrix(13.888893,0,0,13.888732,0,1.8704618e-4)"
      opacity="1"
      stroke-width="0.999999"
      stop-opacity="1"
    />
    <rect
      height="43.013405"
      fill="#8C8C8C"
      x="235.00008"
      y="285.99713"
      width="30.00001"
      id="connector2pin"
      gorn="0.1.0.41"
      opacity="1"
      stroke-width="13.8888"
      stop-opacity="1"
    />
    <polygon
      fill="#8C8C8C"
      id="polygon58"
      gorn="0.1.0.43"
      points="20.52,21.384 20.52,20.592 15.48,20.592 15.48,21.384 16.92,22.032 19.08,22.032 "
      transform="matrix(13.888893,0,0,13.888732,0,1.8704618e-4)"
      opacity="1"
      stroke-width="0.999999"
      stop-opacity="1"
    />
    <rect
      height="43.013405"
      fill="#8C8C8C"
      x="335.00012"
      y="285.99713"
      width="30.00001"
      id="connector3pin"
      gorn="0.1.0.44"
      opacity="1"
      stroke-width="13.8888"
      stop-opacity="1"
    />
    <polygon
      fill="#8C8C8C"
      id="polygon62"
      gorn="0.1.0.46"
      points="27.72,21.384 27.72,20.592 22.68,20.592 22.68,21.384 24.12,22.032 26.28,22.032 "
      transform="matrix(13.888893,0,0,13.888732,0,1.8704618e-4)"
      opacity="1"
      stroke-width="0.999999"
      stop-opacity="1"
    />
    <rect
      height="43.013405"
      fill="#8C8C8C"
      x="435.00012"
      y="285.99713"
      width="30.00001"
      id="connector4pin"
      gorn="0.1.0.47"
      opacity="1"
      stroke-width="13.8888"
      stop-opacity="1"
    />
    <polygon
      fill="#8C8C8C"
      id="polygon66"
      gorn="0.1.0.49"
      points="34.92,21.384 34.92,20.592 29.88,20.592 29.88,21.384 31.32,22.032 33.48,22.032 "
      transform="matrix(13.888893,0,0,13.888732,0,1.8704618e-4)"
      opacity="1"
      stroke-width="0.999999"
      stop-opacity="1"
    />
    <rect
      height="43.013405"
      fill="#8C8C8C"
      x="535.00018"
      y="285.99713"
      width="30.00001"
      id="connector5pin"
      gorn="0.1.0.50"
      opacity="1"
      stroke-width="13.8888"
      stop-opacity="1"
    />
    <polygon
      fill="#8C8C8C"
      id="polygon70"
      gorn="0.1.0.52"
      points="42.12,21.384 42.12,20.592 37.08,20.592 37.08,21.384 38.52,22.032 40.68,22.032 "
      transform="matrix(13.888893,0,0,13.888732,0,1.8704618e-4)"
      opacity="1"
      stroke-width="0.999999"
      stop-opacity="1"
    />
  </g>
</svg>
