<svg id="Ebene_1" width=".52in" height=".73327in" version="1.2" viewBox="0 0 37.44 52.795" xmlns="http://www.w3.org/2000/svg" xmlns:xml="http://www.w3.org/XML/1998/namespace">
	<g id="breadboard">
		<g fill="none">
			<g stroke="#8c8c8c" stroke-linecap="round" stroke-linejoin="round" stroke-width="2.16">
				<path id="path4" d="m4.2388 44.5v7.2"/>
				<path id="path6" d="m11.439 44.5v7.2"/>
				<path id="path8" d="m18.639 44.5v7.2"/>
				<path id="path10" d="m25.839 44.5v7.2"/>
				<path id="path12" d="m33.039 44.5v7.2"/>
			</g>
			<rect id="connector0pin" x="3.096" y="50.635" width="2.16" height="2.16"/>
			<g>
				<rect id="connector1pin" x="10.296" y="50.635" width="2.16" height="2.16"/>
				<rect id="connector2pin" x="17.496" y="50.635" width="2.16" height="2.16"/>
				<rect id="connector3pin" x="24.696" y="50.635" width="2.16" height="2.16"/>
				<rect id="connector4pin" x="31.896" y="50.635" width="2.16" height="2.16"/>
			</g>
		</g>
		<path id="path24" d="m33.921-3.1836e-5h-15.201v1.8c4.3633 0 8.0229 1.8 8.0229 4s-3.5188 4-8.0229 4v5.8h15.201z" fill="#bfbcbc"/>
		<path id="path26" d="m10.697 5.8c0-2.2 3.5188-4 8.0229-4v-1.8h-15.201v15.6h15.201v-5.8c-4.5041 0-8.0229-1.8-8.0229-4z" fill="#808080"/>
		<g fill="#8c8c8c">
			<rect id="rect4" x="2.6905" y="33.2" width="3.0965" height="11.4"/>
			<rect id="rect6" x="9.8905" y="33.2" width="3.0965" height="11.4"/>
			<rect id="rect8" x="31.491" y="33.2" width="3.0965" height="11.4"/>
		</g>
		<g transform="matrix(1.4075 0 0 1 245.75 -258.1)">
			<polygon id="polygon10" points="-172.1 270.6 -172.1 258.1 -174.6 261 -174.6 270.6" fill="#ccc" stroke-width=".84289"/>
			<polygon id="polygon12" points="-150.5 270.6 -148 270.6 -148 261 -150.5 258.1" fill="#999" stroke-width=".84289"/>
		</g>
		<g transform="matrix(1.4075 0 0 1 246.47 -258.1)">
			<polygon id="polygon21" points="-174.6 289.8 -169.6 289.8 -169.6 298.6 -171.2 299.3 -173 299.3 -174.6 298.6" fill="#8c8c8c" stroke-width=".84289"/>
		</g>
		<g transform="matrix(1.4075 0 0 1 246.07 -258.1)">
			<polygon id="polygon23" points="-164.2 289.8 -164.2 298.6 -165.8 299.3 -167.6 299.3 -169.2 298.6 -169.2 289.8" fill="#8c8c8c" stroke-width=".84289"/>
		</g>
		<rect id="rect6_1_" x="17.091" y="33.2" width="3.0965" height="11.4" fill="#8c8c8c"/>
		<g transform="matrix(1.4075 0 0 1 245.67 -258.1)">
			<polygon id="polygon23_1_" points="-158.8 289.8 -158.8 298.6 -160.4 299.3 -162.2 299.3 -163.8 298.6 -163.8 289.8" fill="#8c8c8c" stroke-width=".84289"/>
		</g>
		<rect id="rect6_2_" x="24.431" y="33.2" width="3.0965" height="11.4" fill="#8c8c8c"/>
		<g transform="matrix(1.4075 0 0 1 245.55 -258.1)">
			<polygon id="polygon23_2_" points="-153.5 289.8 -153.5 298.6 -155.2 299.3 -157 299.3 -158.6 298.6 -158.6 289.8" fill="#8c8c8c" stroke-width=".84289"/>
		</g>
		<g transform="matrix(1.4075 0 0 1 245.43 -258.1)">
			<polygon id="polygon25" points="-148.4 289.8 -148.4 298.6 -150 299.3 -151.8 299.3 -153.4 298.6 -153.4 289.8" fill="#8c8c8c" stroke-width=".84289"/>
		</g>
		<g>
			<rect id="rect40" x="25.335" y="22.4" width="12.105" height="16" fill="#141414"/>
			<rect id="rect42" y="22.4" width="12.105" height="16" fill="#333"/>
			<path id="path40_1_" d="m8.4314e-6 28.2v5.2c2.815 0 5.2078-1.2 5.2078-2.6s-2.3928-2.6-5.2078-2.6z" fill="#262626"/>
			<path id="path47" d="m36.401 28.2c-2.815 0-5.2078 1.2-5.2078 2.6s2.3928 2.6 5.2078 2.6z"/>
			<path id="path46" d="m8.4314e-6 22.4v7.1c2.815 0 5.2078 1.2 5.2078 2.6s-2.3928 2.6-5.2078 2.6v3.7h37.44v-16zm37.44 12.3c-2.815 0-5.2078-1.2-5.2078-2.6s2.3928-2.6 5.2078-2.6z" fill="#1a1a1a"/>
			<rect id="rect49" y="19" width="37.44" height="3.3"/>
			<rect id="rect51" y="14.9" width="37.44" height="4.1" fill="#333"/>
			<rect id="tabpin" x="3.5188" y="-2.5751e-5" width="30.402" height="3.1" fill="#b2b2b2"/>
			<path id="path55" d="m33.921 2.4h-30.402l-3.5188 2.9v9.6h37.44v-9.6zm-15.201 9.7c-4.3633 0-8.0229-1.8-8.0229-4 0-2.2 3.5188-4 8.0229-4 4.3633 0 8.0229 1.8 8.0229 4-.14075 2.3-3.6596 4-8.0229 4z" fill="#8c8c8c"/>
			<text id="text176" x="3" y="29" fill="#663300" font-family="Droid Sans" font-size="8">MIC4576</text>
		</g>
	</g>
</svg>
