<?xml version='1.0' encoding='UTF-8'?>
<!DOCTYPE svg>
<!-- Creator: CorelDRAW X6 -->
<svg xmlns="http://www.w3.org/2000/svg" height="0.5in" version="1.1" width="0.8in" shape-rendering="geometricPrecision" fill-rule="evenodd" xml:space="preserve" text-rendering="geometricPrecision" viewBox="0 0 13282 8302" image-rendering="optimizeQuality"  xmlns:xml="http://www.w3.org/XML/1998/namespace" clip-rule="evenodd">
    <desc >
        <referenceFile >Molex_53398-0871-smd_bb.svg</referenceFile>
    </desc>
    <g gorn="0.1" id="_53398-0871_smd-v" >
        <metadata id="CorelCorpID_0Corel-Layer" />
        <g gorn="0.1.1" id="breadboard" >
            <g gorn="0.1.1.0" id="icon" >
                <rect height="8302" width="13282"  fill="#1F7A34"/>
                <g >
                    <g >
                        <rect height="131" width="817" x="9664"  y="4698" fill="#727376"/>
                        <rect height="131" width="490" x="5579"  y="4698" fill="#727376"/>
                        <rect height="131" width="490" x="6396"  y="4698" fill="#727376"/>
                        <rect height="131" width="490" x="7213"  y="4698" fill="#727376"/>
                        <rect height="131" width="490" x="8030"  y="4698" fill="#727376"/>
                        <rect height="131" width="490" x="8847"  y="4698" fill="#727376"/>
                        <rect height="131" width="490" x="4762"  y="4698" fill="#727376"/>
                        <rect height="131" width="490" x="3945"  y="4698" fill="#727376"/>
                        <rect height="131" width="817" x="2801"  y="4698" fill="#727376"/>
                    </g>
                    <g >
                        <rect height="1894" width="7681" x="2801"  y="2813" fill="#727376"/>
                        <rect height="163" width="7681" x="2801"  y="4026" fill="#F0F0F0"/>
                        <rect height="1491" width="7681" x="2801"  y="3059" fill="#BDBFC1"/>
                    </g>
                    <g >
                        <rect height="294" width="4739" x="4272"  y="2542" fill="#727376"/>
                        <rect height="234" width="4739" x="4272"  y="2308" fill="#F0F0F0"/>
                    </g>
                    <g >
                        <rect height="319" width="209" x="3677"  y="3014" fill="#A8CF45"/>
                        <rect height="392" width="209" x="3677"  y="3333" fill="#706A22"/>
                        <rect height="196" width="65" x="3749"  y="3014" fill="#FEFEFE"/>
                        <rect height="405" width="209" x="3677"  y="4708" fill="#BFD84F"/>
                        <rect height="97" width="209" x="3677"  y="5016" fill="#706A22"/>
                    </g>
                    <g >
                        <rect height="319" width="209" x="4494"  y="3014" fill="#A8CF45"/>
                        <rect height="392" width="209" x="4494"  y="3333" fill="#706A22"/>
                        <rect height="196" width="65" x="4566"  y="3014" fill="#FEFEFE"/>
                        <rect height="405" width="209" x="4494"  y="4708" fill="#BFD84F"/>
                        <rect height="97" width="209" x="4494"  y="5016" fill="#706A22"/>
                    </g>
                    <g >
                        <rect height="319" width="209" x="5311"  y="3014" fill="#A8CF45"/>
                        <rect height="392" width="209" x="5311"  y="3333" fill="#706A22"/>
                        <rect height="196" width="65" x="5383"  y="3014" fill="#FEFEFE"/>
                        <rect height="405" width="209" x="5311"  y="4708" fill="#BFD84F"/>
                        <rect height="97" width="209" x="5311"  y="5016" fill="#706A22"/>
                    </g>
                    <g >
                        <rect height="319" width="209" x="6128"  y="3014" fill="#A8CF45"/>
                        <rect height="392" width="209" x="6128"  y="3333" fill="#706A22"/>
                        <rect height="196" width="65" x="6200"  y="3014" fill="#FEFEFE"/>
                        <rect height="405" width="209" x="6128"  y="4708" fill="#BFD84F"/>
                        <rect height="97" width="209" x="6128"  y="5016" fill="#706A22"/>
                    </g>
                    <g >
                        <rect height="319" width="209" x="6945"  y="3014" fill="#A8CF45"/>
                        <rect height="392" width="209" x="6945"  y="3333" fill="#706A22"/>
                        <rect height="196" width="65" x="7017"  y="3014" fill="#FEFEFE"/>
                        <rect height="405" width="209" x="6945"  y="4708" fill="#BFD84F"/>
                        <rect height="97" width="209" x="6945"  y="5016" fill="#706A22"/>
                    </g>
                    <g >
                        <rect height="319" width="209" x="7762"  y="3014" fill="#A8CF45"/>
                        <rect height="392" width="209" x="7762"  y="3333" fill="#706A22"/>
                        <rect height="196" width="65" x="7834"  y="3014" fill="#FEFEFE"/>
                        <rect height="405" width="209" x="7762"  y="4708" fill="#BFD84F"/>
                        <rect height="97" width="209" x="7762"  y="5016" fill="#706A22"/>
                    </g>
                    <g >
                        <rect height="319" width="209" x="8579"  y="3014" fill="#A8CF45"/>
                        <rect height="392" width="209" x="8579"  y="3333" fill="#706A22"/>
                        <rect height="196" width="65" x="8651"  y="3014" fill="#FEFEFE"/>
                        <rect height="405" width="209" x="8579"  y="4708" fill="#BFD84F"/>
                        <rect height="97" width="209" x="8579"  y="5016" fill="#706A22"/>
                    </g>
                    <g >
                        <rect height="319" width="209" x="9396"  y="3014" fill="#A8CF45"/>
                        <rect height="392" width="209" x="9396"  y="3333" fill="#706A22"/>
                        <rect height="196" width="65" x="9468"  y="3014" fill="#FEFEFE"/>
                        <rect height="405" width="209" x="9396"  y="4708" fill="#BFD84F"/>
                        <rect height="97" width="209" x="9396"  y="5016" fill="#706A22"/>
                    </g>
                    <g >
                        <polygon points="11392,3162 11392,3168 11593,3369 11593,4285 11392,4485 11392,4485 "  fill="#BFD84F"/>
                        <rect height="1700" width="924" x="10481"  y="2745" fill="#E6E7E8"/>
                        <rect height="1445" width="229" x="10481"  y="2745" fill="#BDBFC1"/>
                        <rect height="361" width="924" x="10481"  y="4189" fill="#848688"/>
                        <rect height="294" width="915" x="9174"  y="2542" fill="#727376"/>
                        <rect height="234" width="1307" x="9174"  y="2308" fill="#F0F0F0"/>
                        <rect height="1978" width="392" x="10089"  y="2308" fill="#F0F0F0"/>
                        <rect height="410" width="196" x="10089"  y="3040" fill="#606062"/>
                        <rect height="254" width="392" x="10089"  y="3897" fill="#606062"/>
                        <rect height="348" width="654" x="9828"  y="4167" fill="#606062"/>
                        <rect height="151" width="654" x="9828"  y="4026" fill="#F0F0F0"/>
                        <rect height="81" width="654" x="9828"  y="4470" fill="#BDBFC1"/>
                        <rect height="151" width="608" x="8789"  y="2813" fill="#D2D3D5"/>
                    </g>
                    <g >
                        <polygon points="1891,3168 1891,3168 1891,4480 1891,4485 1690,4285 1690,3369 "  fill="#BFD84F"/>
                        <rect height="1700" width="924" x="1877"  y="2745" fill="#E6E7E8"/>
                        <rect height="1445" width="229" x="2572"  y="2745" fill="#BDBFC1"/>
                        <rect height="361" width="924" x="1877"  y="4189" fill="#848688"/>
                        <rect height="294" width="915" x="3193"  y="2542" fill="#727376"/>
                        <rect height="234" width="1307" x="2801"  y="2308" fill="#F0F0F0"/>
                        <rect height="1978" width="392" x="2801"  y="2308" fill="#F0F0F0"/>
                        <rect height="410" width="196" x="2997"  y="3040" fill="#606062"/>
                        <rect height="254" width="392" x="2801"  y="3897" fill="#606062"/>
                        <rect height="348" width="654" x="2801"  y="4167" fill="#606062"/>
                        <rect height="151" width="654" x="2801"  y="4026" fill="#F0F0F0"/>
                        <rect height="81" width="654" x="2801"  y="4470" fill="#BDBFC1"/>
                        <rect height="151" width="608" x="3886"  y="2813" fill="#D2D3D5"/>
                    </g>
                </g>
                <text font-size="691.706" font-weight="500" x="4372"  y="5890" font-family="OCRA" fill="white">53398-0871</text>
                <text font-size="691.706" font-weight="500" x="4504"  y="1952" font-family="OCRA" fill="white">Picoblade</text>
                <text font-size="691.706" font-weight="500" x="5521"  y="1047" font-family="OCRA" fill="white">MOLEX</text>
                <g transform="matrix(2.64845E-014 -1 1 2.64845E-014 -2989.01 -32926.3)" >
                    <g >
                        <g >
                            <g >
                                <g >
                                    <g >
                                        <text font-size="747.072" font-weight="500" x="-40000"  y="4043" font-family="OCRA" fill="white">1</text>
                                    </g>
                                </g>
                            </g>
                        </g>
                    </g>
                </g>
                <g transform="matrix(2.64845E-014 -1 1 2.64845E-014 -1328.7 -32926.3)" >
                    <g >
                        <g >
                            <g >
                                <g >
                                    <g >
                                        <text font-size="747.072" font-weight="500" x="-40000"  y="4043" font-family="OCRA" fill="white">2</text>
                                    </g>
                                </g>
                            </g>
                        </g>
                    </g>
                </g>
                <g transform="matrix(2.64845E-014 -1 1 2.64845E-014 331.537 -32926.3)" >
                    <g >
                        <g >
                            <g >
                                <g >
                                    <g >
                                        <text font-size="747.072" font-weight="500" x="-40000"  y="4043" font-family="OCRA" fill="white">3</text>
                                    </g>
                                </g>
                            </g>
                        </g>
                    </g>
                </g>
                <g transform="matrix(2.64845E-014 -1 1 2.64845E-014 1991.84 -32926.3)" >
                    <g >
                        <g >
                            <g >
                                <g >
                                    <g >
                                        <text font-size="747.072" font-weight="500" x="-40000"  y="4043" font-family="OCRA" fill="white">4</text>
                                    </g>
                                </g>
                            </g>
                        </g>
                    </g>
                </g>
                <g transform="matrix(2.64845E-014 -1 1 2.64845E-014 3652.67 -33461.5)" >
                    <g >
                        <g >
                            <g >
                                <g >
                                    <g >
                                        <text font-size="747.072" font-weight="500" x="-40534"  y="4043" font-family="OCRA" fill="white">5</text>
                                    </g>
                                </g>
                            </g>
                        </g>
                    </g>
                </g>
                <g transform="matrix(2.64845E-014 -1 1 2.64845E-014 5313.1 -33461)" >
                    <g >
                        <g >
                            <g >
                                <g >
                                    <g >
                                        <text font-size="747.072" font-weight="500" x="-40534"  y="4043" font-family="OCRA" fill="white">6</text>
                                    </g>
                                </g>
                            </g>
                        </g>
                    </g>
                </g>
                <g transform="matrix(2.64845E-014 -1 1 2.64845E-014 6972.69 -33460.9)" >
                    <g >
                        <g >
                            <g >
                                <g >
                                    <g >
                                        <text font-size="747.072" font-weight="500" x="-40534"  y="4043" font-family="OCRA" fill="white">7</text>
                                    </g>
                                </g>
                            </g>
                        </g>
                    </g>
                </g>
                <g transform="matrix(2.64845E-014 -1 1 2.64845E-014 8633.52 -33461)" >
                    <g >
                        <g >
                            <g >
                                <g >
                                    <g >
                                        <text font-size="747.072" font-weight="500" x="-40534"  y="4043" font-family="OCRA" fill="white">8</text>
                                    </g>
                                </g>
                            </g>
                        </g>
                    </g>
                </g>
            </g>
            <g gorn="0.1.1.1" id="connector0pin" >
                <rect height="530" width="530" x="565"  y="7207" fill="#8D8C8C"/>
                <rect height="273" width="273" x="694"  y="7335" fill="#8C8663"/>
                <polygon points="565,7736 694,7607 694,7322 565,7207 "  fill="#B8AF82"/>
                <polygon points="967,7335 696,7335 565,7207 1095,7207 "  fill="#80795B"/>
                <polygon points="967,7607 967,7335 1095,7207 1095,7736 "  fill="#5E5B43"/>
                <polygon points="565,7736 696,7607 967,7607 1095,7736 "  fill="#9A916C"/>
            </g>
            <g gorn="0.1.1.2" id="connector1pin" >
                <rect height="530" width="530" x="2225"  y="7207" fill="#8D8C8C"/>
                <rect height="273" width="273" x="2355"  y="7335" fill="#8C8663"/>
                <polygon points="2225,7736 2355,7607 2355,7322 2225,7207 "  fill="#B8AF82"/>
                <polygon points="2627,7335 2357,7335 2225,7207 2756,7207 "  fill="#80795B"/>
                <polygon points="2627,7607 2627,7335 2756,7207 2756,7736 "  fill="#5E5B43"/>
                <polygon points="2225,7736 2356,7607 2627,7607 2756,7736 "  fill="#9A916C"/>
            </g>
            <g gorn="0.1.1.3" id="connector2pin" >
                <rect height="530" width="530" x="3886"  y="7207" fill="#8D8C8C"/>
                <rect height="273" width="273" x="4015"  y="7335" fill="#8C8663"/>
                <polygon points="3886,7736 4015,7607 4015,7322 3886,7207 "  fill="#B8AF82"/>
                <polygon points="4288,7335 4017,7335 3886,7207 4416,7207 "  fill="#80795B"/>
                <polygon points="4288,7607 4288,7335 4416,7207 4416,7736 "  fill="#5E5B43"/>
                <polygon points="3886,7736 4016,7607 4288,7607 4416,7736 "  fill="#9A916C"/>
            </g>
            <g gorn="0.1.1.4" id="connector3pin" >
                <rect height="530" width="530" x="5546"  y="7207" fill="#8D8C8C"/>
                <rect height="273" width="273" x="5675"  y="7335" fill="#8C8663"/>
                <polygon points="5546,7736 5675,7607 5675,7322 5546,7207 "  fill="#B8AF82"/>
                <polygon points="5948,7335 5677,7335 5546,7207 6076,7207 "  fill="#80795B"/>
                <polygon points="5948,7607 5948,7335 6076,7207 6076,7736 "  fill="#5E5B43"/>
                <polygon points="5546,7736 5677,7607 5948,7607 6076,7736 "  fill="#9A916C"/>
            </g>
            <g gorn="0.1.1.5" id="connector4pin" >
                <rect height="530" width="530" x="7206"  y="7206" fill="#8D8C8C"/>
                <rect height="273" width="273" x="7336"  y="7335" fill="#8C8663"/>
                <polygon points="7206,7736 7336,7607 7336,7322 7206,7207 "  fill="#B8AF82"/>
                <polygon points="7608,7335 7337,7335 7206,7207 7736,7207 "  fill="#80795B"/>
                <polygon points="7608,7607 7608,7335 7736,7207 7736,7736 "  fill="#5E5B43"/>
                <polygon points="7206,7736 7337,7607 7608,7607 7736,7736 "  fill="#9A916C"/>
            </g>
            <g gorn="0.1.1.6" id="connector5pin" >
                <rect height="530" width="530" x="8867"  y="7206" fill="#8D8C8C"/>
                <rect height="273" width="273" x="8996"  y="7335" fill="#8C8663"/>
                <polygon points="8867,7736 8996,7607 8996,7322 8867,7206 "  fill="#B8AF82"/>
                <polygon points="9269,7335 8998,7335 8867,7206 9397,7206 "  fill="#80795B"/>
                <polygon points="9269,7607 9269,7335 9397,7206 9397,7736 "  fill="#5E5B43"/>
                <polygon points="8867,7736 8997,7607 9269,7607 9397,7736 "  fill="#9A916C"/>
            </g>
            <g gorn="0.1.1.7" id="connector6pin" >
                <rect height="530" width="530" x="10527"  y="7206" fill="#8D8C8C"/>
                <rect height="273" width="273" x="10656"  y="7335" fill="#8C8663"/>
                <polygon points="10527,7736 10656,7607 10656,7322 10527,7206 "  fill="#B8AF82"/>
                <polygon points="10929,7335 10658,7335 10527,7206 11057,7206 "  fill="#80795B"/>
                <polygon points="10929,7607 10929,7335 11057,7206 11057,7736 "  fill="#5E5B43"/>
                <polygon points="10527,7736 10658,7607 10929,7607 11057,7736 "  fill="#9A916C"/>
            </g>
            <g gorn="0.1.1.8" id="connector7pin" >
                <rect height="530" width="530" x="12188"  y="7206" fill="#8D8C8C"/>
                <rect height="273" width="273" x="12317"  y="7335" fill="#8C8663"/>
                <polygon points="12188,7736 12317,7607 12317,7322 12188,7206 "  fill="#B8AF82"/>
                <polygon points="12590,7335 12319,7335 12188,7206 12718,7206 "  fill="#80795B"/>
                <polygon points="12590,7607 12590,7335 12718,7206 12718,7736 "  fill="#5E5B43"/>
                <polygon points="12188,7736 12319,7607 12590,7607 12718,7736 "  fill="#9A916C"/>
            </g>
        </g>
    </g>
</svg>
