<?xml version="1.0" encoding="utf-8"?>
<!-- Generator: Adobe Illustrator 16.0.0, SVG Export Plug-In . SVG Version: 6.00 Build 0)  -->
<svg version="1.2" baseProfile="tiny" id="svg2" xmlns:xml="http://www.w3.org/XML/1998/namespace"
	 xmlns="http://www.w3.org/2000/svg" xmlns:xlink="http://www.w3.org/1999/xlink" x="0px" y="0px" width="203.671px"
	 height="151.234px" viewBox="0 0 203.671 151.234" xml:space="preserve">
<g id="breadboardbreadboard" transform="translate(2.3556871,-2.2e-5)">
	<path id="path5990-7" fill="#1C1C1C" d="M6.833,0v151.234h187.254v-7.006l7.229-7.292V43.274l-7.229-6.576V3.772L190.008,0H6.837
		H6.833z M49.783,2.823c0.074-0.004,0.146,0,0.221,0c2.41,0,4.361,1.952,4.361,4.361c0,2.409-1.951,4.361-4.361,4.361
		c-2.409,0-4.361-1.952-4.361-4.361C45.643,4.85,47.479,2.94,49.783,2.823L49.783,2.823z M194.117,45.901
		c2.408,0,4.359,1.952,4.359,4.361s-1.949,4.361-4.359,4.361s-4.361-1.952-4.361-4.361S191.707,45.901,194.117,45.901z
		 M194.041,125.279c2.41,0,4.361,1.957,4.361,4.366c0,2.41-1.951,4.36-4.361,4.36c-2.409,0-4.36-1.95-4.36-4.36
		C189.679,127.237,191.631,125.279,194.041,125.279z"/>
	<g id="g3733">
		<path id="path10810" fill="#F7BD13" d="M172.605,65.324c-1.483,0-2.689,1.201-2.689,2.683c0,1.484,1.207,2.69,2.689,2.69
			s2.684-1.206,2.684-2.69C175.289,66.525,174.087,65.324,172.605,65.324z M172.605,66.679c0.736,0,1.329,0.593,1.329,1.329
			c0,0.736-0.593,1.336-1.329,1.336s-1.336-0.6-1.336-1.336C171.269,67.272,171.87,66.679,172.605,66.679z"/>
		<path id="path10812" fill="#F7BD13" d="M172.605,78.007c-1.483,0-2.689,1.202-2.689,2.683c0,1.482,1.207,2.69,2.689,2.69
			s2.684-1.208,2.684-2.69C175.289,79.209,174.087,78.007,172.605,78.007z M172.605,79.362c0.736,0,1.329,0.594,1.329,1.329
			s-0.593,1.335-1.329,1.335s-1.336-0.6-1.336-1.335S171.87,79.362,172.605,79.362z"/>
		<path id="path10814" fill="#F7BD13" d="M154.171,65.324c-1.483,0-2.689,1.201-2.689,2.683c0,1.484,1.207,2.69,2.689,2.69
			s2.684-1.206,2.684-2.69C156.855,66.525,155.654,65.324,154.171,65.324z M154.171,66.679c0.736,0,1.328,0.593,1.328,1.329
			c0,0.736-0.592,1.336-1.328,1.336s-1.336-0.6-1.336-1.336C152.835,67.272,153.435,66.679,154.171,66.679z"/>
		<path id="path10816" fill="#F7BD13" d="M154.171,78.007c-1.483,0-2.689,1.202-2.689,2.683c0,1.482,1.207,2.69,2.689,2.69
			s2.684-1.208,2.684-2.69C156.855,79.209,155.654,78.007,154.171,78.007z M154.171,79.362c0.736,0,1.328,0.594,1.328,1.329
			s-0.592,1.335-1.328,1.335s-1.336-0.6-1.336-1.335S153.435,79.362,154.171,79.362z"/>
		<path id="path10793" fill="#F7BD13" d="M194.42,62.143c-1.483,0-2.69,1.2-2.69,2.684c0,1.484,1.208,2.69,2.69,2.69
			c1.483,0,2.683-1.208,2.683-2.69C197.103,63.344,195.904,62.143,194.42,62.143z M194.42,63.497c0.735,0,1.329,0.594,1.329,1.329
			s-0.594,1.335-1.329,1.335s-1.336-0.6-1.336-1.335S193.685,63.497,194.42,63.497z"/>
		<path id="rect10807" fill="#F7BD13" d="M184.838,62.282v4.976h4.976v-4.976H184.838z M187.326,63.433
			c0.736,0,1.336,0.6,1.336,1.335s-0.6,1.329-1.336,1.329c-0.735,0-1.329-0.594-1.329-1.329S186.59,63.433,187.326,63.433z"/>
		<path id="path10799" fill="#F7BD13" d="M194.42,69.434c-1.483,0-2.69,1.201-2.69,2.684c0,1.482,1.208,2.689,2.69,2.689
			c1.483,0,2.683-1.207,2.683-2.689C197.103,70.635,195.904,69.434,194.42,69.434z M194.42,70.788c0.735,0,1.329,0.594,1.329,1.33
			s-0.594,1.335-1.329,1.335s-1.336-0.6-1.336-1.335S193.685,70.788,194.42,70.788z"/>
		<path id="path10801" fill="#F7BD13" d="M194.42,76.607c-1.483,0-2.69,1.2-2.69,2.683c0,1.483,1.208,2.69,2.69,2.69
			c1.483,0,2.683-1.207,2.683-2.69C197.103,77.807,195.904,76.607,194.42,76.607z M194.42,77.962c0.735,0,1.329,0.593,1.329,1.328
			c0,0.736-0.594,1.336-1.329,1.336s-1.336-0.6-1.336-1.336C193.084,78.555,193.685,77.962,194.42,77.962z"/>
		<path id="path10803" fill="#F7BD13" d="M187.418,76.607c-1.483,0-2.689,1.2-2.689,2.683c0,1.483,1.207,2.69,2.689,2.69
			c1.483,0,2.684-1.207,2.684-2.69C190.102,77.807,188.902,76.607,187.418,76.607z M187.418,77.962c0.736,0,1.329,0.593,1.329,1.328
			c0,0.736-0.593,1.336-1.329,1.336c-0.735,0-1.335-0.6-1.335-1.336C186.083,78.555,186.683,77.962,187.418,77.962z"/>
		<path id="path10805" fill="#F7BD13" d="M187.418,69.434c-1.483,0-2.689,1.201-2.689,2.684c0,1.482,1.207,2.689,2.689,2.689
			c1.483,0,2.684-1.207,2.684-2.689C190.102,70.635,188.902,69.434,187.418,69.434z M187.418,70.788c0.736,0,1.329,0.594,1.329,1.33
			s-0.593,1.335-1.329,1.335c-0.735,0-1.335-0.6-1.335-1.335S186.683,70.788,187.418,70.788z"/>
		<path id="path10698-4" fill="#F7BD13" d="M66.437,4.411c0,0.735-0.596,1.333-1.332,1.333c-0.735,0-1.332-0.597-1.332-1.333
			s0.596-1.332,1.332-1.332C65.84,3.079,66.437,3.675,66.437,4.411z"/>
		<path id="path10698-0-1" fill="#F7BD13" d="M102.222,112.709c0,0.736-0.596,1.332-1.333,1.332c-0.735,0-1.331-0.596-1.331-1.332
			s0.595-1.332,1.331-1.332C101.626,111.377,102.222,111.973,102.222,112.709z"/>
		<rect id="rect10751-9" x="187.929" y="19.638" fill="#F7BD13" width="2.152" height="2.152"/>
		<path id="path10698-2-9" fill="#F7BD13" d="M13.229,146.225c0,0.736-0.597,1.332-1.332,1.332c-0.736,0-1.333-0.596-1.333-1.332
			s0.596-1.332,1.333-1.332C12.632,144.893,13.229,145.488,13.229,146.225z"/>
		<path id="path10698-6-3-7" fill="#F7BD13" d="M197.437,114.982c0,0.736-0.598,1.332-1.333,1.332s-1.332-0.596-1.332-1.332
			s0.597-1.331,1.332-1.331C196.84,113.651,197.437,114.246,197.437,114.982z"/>
		<path id="path4360" fill="#F7BD13" d="M31.312,14.198c-1.987,0-3.605,1.609-3.605,3.597s1.618,3.605,3.605,3.605
			c1.987,0,3.596-1.618,3.596-3.605C34.908,15.808,33.299,14.198,31.312,14.198z M31.312,16.013c0.985,0,1.781,0.795,1.781,1.781
			c0,0.986-0.796,1.791-1.781,1.791c-0.986,0-1.79-0.804-1.79-1.791C29.522,16.808,30.326,16.013,31.312,16.013z"/>
		<path id="path4362" fill="#F7BD13" d="M31.312,56.66c-1.987,0-3.605,1.609-3.605,3.597c0,1.987,1.618,3.604,3.605,3.604
			c1.987,0,3.596-1.618,3.596-3.604C34.908,58.27,33.299,56.66,31.312,56.66z M31.312,58.475c0.985,0,1.781,0.795,1.781,1.781
			s-0.796,1.79-1.781,1.79c-0.986,0-1.79-0.803-1.79-1.79C29.522,59.271,30.326,58.475,31.312,58.475z"/>
		<path id="path4368" fill="#F7BD13" d="M147.328,67.227c0,0.735-0.598,1.332-1.332,1.332c-0.736,0-1.333-0.597-1.333-1.332
			s0.597-1.333,1.333-1.333C146.731,65.895,147.328,66.492,147.328,67.227z"/>
		<path id="path5356" fill="#F7BD13" d="M36.612,124.248c-1.987,0-3.605,1.609-3.605,3.596s1.618,3.605,3.605,3.605
			c1.987,0,3.596-1.617,3.596-3.605C40.208,125.856,38.599,124.248,36.612,124.248z M36.612,126.064
			c0.985,0,1.782,0.795,1.782,1.782c0,0.984-0.795,1.789-1.782,1.789c-0.985,0-1.79-0.805-1.79-1.789
			C34.822,126.858,35.626,126.064,36.612,126.064z"/>
		<path id="path5358" fill="#F7BD13" d="M28.261,137.648c-1.83,0-3.318,1.482-3.318,3.313c0,1.828,1.488,3.318,3.318,3.318
			c1.83,0,3.311-1.49,3.311-3.318C31.572,139.131,30.091,137.648,28.261,137.648z M28.261,139.32c0.907,0,1.64,0.732,1.64,1.64
			s-0.732,1.647-1.64,1.647c-0.908,0-1.648-0.74-1.648-1.647S27.354,139.32,28.261,139.32z"/>
		<rect id="rect8764" x="157.982" y="19.782" fill="#2E2E2E" width="8.506" height="8.506"/>
		<rect id="rect8820" x="17.676" y="6.58" fill="#2E2E2E" width="4.536" height="2.268"/>
		<rect id="rect8828" x="46.922" y="94.266" fill="#2E2E2E" width="6.166" height="3.913"/>
		<rect id="rect8832" x="64.39" y="10.961" fill="#2E2E2E" width="4.981" height="9.723"/>
		<rect id="rect8834" x="37.762" y="61.818" fill="#2E2E2E" width="9.604" height="4.744"/>
		<rect id="rect8836" x="25.809" y="81.83" fill="#2E2E2E" width="2.846" height="5.692"/>
		<path id="rect8838" fill="#2E2E2E" d="M53.258,73.179h-3.323v-4.507H39.144v1.811h-4.285v2.133h4.285v4.349h-4.285v2.131h4.285
			v4.229h-4.285v2.139h4.285v2.298h10.791V82.78h3.322L53.258,73.179L53.258,73.179z"/>
		<rect id="rect8840" x="128.064" y="119.147" fill="#2E2E2E" width="17.075" height="9.842"/>
		<rect id="rect8842" x="63.28" y="67.562" fill="#2E2E2E" width="9.012" height="5.217"/>
		<rect id="rect8844" x="12.141" y="104.163" fill="#2E2E2E" width="15.178" height="8.419"/>
		<rect id="rect8850" x="103.04" y="19.987" fill="#2E2E2E" width="17.012" height="9.924"/>
		<rect id="rect8854" x="87.632" y="19.383" fill="#2E2E2E" width="9.685" height="5.104"/>
		<rect id="rect8856" x="102.955" y="38.101" fill="#2E2E2E" width="19.849" height="19.848"/>
		<rect id="rect8858" x="103.326" y="70.16" fill="#2E2E2E" width="39.723" height="39.723"/>
		<path id="rect8860" fill="#2E2E2E" d="M89.926,76.757h-2.951v-2.253H70.141v0.95h-7.252v2.841h7.252v10.121h-7.252v2.842h7.252
			v1.627h16.836v-2.849h2.951L89.926,76.757L89.926,76.757z"/>
		<path id="path8870" fill="#2E2E2E" d="M197.251,94.12H194.3v-2.253h-16.836v0.949h-7.252v2.842h7.252v10.119h-7.252v2.844h7.252
			v1.625H194.3v-2.848h2.951V94.12L197.251,94.12z"/>
		<rect id="rect4372" x="73.202" y="67.562" fill="#2E2E2E" width="9.447" height="4.784"/>
		<rect id="rect4374" x="85.895" y="67.675" fill="#2E2E2E" width="9.073" height="5.104"/>
		<rect id="rect4376" x="10.929" y="62.573" fill="#2E2E2E" width="9.604" height="4.744"/>
		<rect id="rect4378" x="24.306" y="65.426" fill="#2E2E2E" width="4.744" height="9.605"/>
		<rect id="rect4380" x="37.702" y="97.887" fill="#2E2E2E" width="4.744" height="9.605"/>
		<rect id="rect4382" x="17.83" y="12.251" fill="#2E2E2E" width="4.536" height="2.269"/>
		<rect id="rect4384" x="29.021" y="6.58" fill="#2E2E2E" width="4.536" height="2.268"/>
		<rect id="rect4386" x="58.304" y="18.231" fill="#2E2E2E" width="4.536" height="2.268"/>
		<rect id="rect4388" x="58.304" y="21.125" fill="#2E2E2E" width="4.536" height="2.268"/>
		<rect id="rect4390" x="73.327" y="24.498" fill="#2E2E2E" width="4.537" height="2.269"/>
		<rect id="rect4392" x="80.229" y="24.345" fill="#2E2E2E" width="4.536" height="2.268"/>
		<rect id="rect4394" x="90.501" y="25.724" fill="#2E2E2E" width="4.537" height="2.268"/>
		<rect id="rect4396" x="89.029" y="32.255" fill="#2E2E2E" width="2.268" height="4.536"/>
		<rect id="rect4398" x="95.31" y="31.335" fill="#2E2E2E" width="2.269" height="4.536"/>
		<rect id="rect4400" x="99.601" y="24.59" fill="#2E2E2E" width="2.269" height="4.536"/>
		<rect id="rect4402" x="89.029" y="38.657" fill="#2E2E2E" width="2.268" height="4.536"/>
		<rect id="rect4404" x="89.029" y="50.012" fill="#2E2E2E" width="2.268" height="4.536"/>
		<rect id="rect4406" x="89.029" y="56.941" fill="#2E2E2E" width="2.268" height="4.536"/>
		<rect id="rect4408" x="93.097" y="57.726" fill="#2E2E2E" width="4.537" height="2.269"/>
		<rect id="rect4410" x="92.229" y="61.308" fill="#2E2E2E" width="2.268" height="4.536"/>
		<rect id="rect4412" x="95.32" y="61.308" fill="#2E2E2E" width="2.269" height="4.536"/>
		<rect id="rect4414" x="51.518" y="61.634" fill="#2E2E2E" width="4.536" height="2.268"/>
		<rect id="rect4416" x="51.518" y="65.052" fill="#2E2E2E" width="4.536" height="2.269"/>
		<rect id="rect4418" x="57.479" y="66.761" fill="#2E2E2E" width="4.537" height="2.268"/>
		<rect id="rect4420" x="57.479" y="70.504" fill="#2E2E2E" width="4.537" height="2.268"/>
		<rect id="rect4422" x="19.267" y="100.881" fill="#2E2E2E" width="4.536" height="2.27"/>
		<rect id="rect4424" x="40.985" y="108.264" fill="#2E2E2E" width="4.537" height="2.27"/>
		<rect id="rect4426" x="40.985" y="111.031" fill="#2E2E2E" width="4.537" height="2.269"/>
		<rect id="rect4428" x="35.339" y="111.031" fill="#2E2E2E" width="4.536" height="2.269"/>
		<rect id="rect4430" x="26.155" y="96.164" fill="#2E2E2E" width="2.269" height="4.537"/>
		<rect id="rect4432" x="39.074" y="92.582" fill="#2E2E2E" width="2.268" height="4.536"/>
		<rect id="rect4434" x="43.005" y="92.582" fill="#2E2E2E" width="2.269" height="4.536"/>
		<rect id="rect4436" x="48.136" y="101.206" fill="#2E2E2E" width="2.269" height="4.537"/>
		<rect id="rect4438" x="48.136" y="108.042" fill="#2E2E2E" width="2.269" height="4.537"/>
		<rect id="rect4440" x="61.99" y="28.338" fill="#2E2E2E" width="21.265" height="36.859"/>
		<rect id="rect4442" x="124.66" y="24.703" fill="#2E2E2E" width="9.687" height="5.104"/>
		<rect id="rect4444" x="121.206" y="24.264" fill="#2E2E2E" width="2.269" height="4.537"/>
		<rect id="rect4446" x="129.685" y="32.427" fill="#2E2E2E" width="4.537" height="2.268"/>
		<rect id="rect4448" x="129.685" y="35.793" fill="#2E2E2E" width="4.537" height="2.269"/>
		<rect id="rect4450" x="131.088" y="41.636" fill="#2E2E2E" width="2.268" height="4.536"/>
		<rect id="rect4452" x="131.088" y="48.255" fill="#2E2E2E" width="2.268" height="4.536"/>
		<rect id="rect4454" x="135.559" y="52.404" fill="#2E2E2E" width="2.269" height="4.537"/>
		<rect id="rect4456" x="129.465" y="60.776" fill="#2E2E2E" width="4.537" height="2.269"/>
		<rect id="rect4458" x="146.73" y="30.149" fill="#2E2E2E" width="4.535" height="2.268"/>
		<rect id="rect4460" x="153.46" y="30.149" fill="#2E2E2E" width="4.537" height="2.268"/>
		<rect id="rect4462" x="159.863" y="30.149" fill="#2E2E2E" width="4.537" height="2.268"/>
		<rect id="rect4464" x="166.263" y="30.149" fill="#2E2E2E" width="4.537" height="2.268"/>
		<rect id="rect4466" x="180.227" y="25.781" fill="#2E2E2E" width="4.537" height="2.268"/>
		<rect id="rect4468" x="181.638" y="20.763" fill="#2E2E2E" width="4.535" height="2.269"/>
		<rect id="rect4470" x="188.202" y="23.825" fill="#2E2E2E" width="2.268" height="4.536"/>
		<rect id="rect4472" x="188.202" y="30.226" fill="#2E2E2E" width="2.268" height="4.536"/>
		<rect id="rect4474" x="181.91" y="30.77" fill="#2E2E2E" width="2.268" height="4.536"/>
		<rect id="rect4476" x="151.523" y="84.868" fill="#2E2E2E" width="2.268" height="4.535"/>
		<rect id="rect4478" x="155.164" y="84.868" fill="#2E2E2E" width="2.269" height="4.535"/>
		<rect id="rect4480" x="152.393" y="93.709" fill="#2E2E2E" width="2.269" height="4.537"/>
		<rect id="rect4482" x="152.613" y="101.386" fill="#2E2E2E" width="2.269" height="4.537"/>
		<rect id="rect4484" x="155.732" y="101.435" fill="#2E2E2E" width="4.535" height="2.268"/>
		<rect id="rect4486" x="155.732" y="103.983" fill="#2E2E2E" width="4.535" height="2.268"/>
		<rect id="rect4488" x="157.142" y="106.859" fill="#2E2E2E" width="4.536" height="2.268"/>
		<rect id="rect4490" x="151.4" y="106.859" fill="#2E2E2E" width="4.537" height="2.268"/>
		<rect id="rect4492" x="154.431" y="109.625" fill="#2E2E2E" width="4.536" height="2.268"/>
		<rect id="rect4494" x="161.033" y="84.635" fill="#2E2E2E" width="9.072" height="5.104"/>
		<rect id="rect4496" x="178.406" y="84.527" fill="#2E2E2E" width="9.072" height="5.103"/>
		<rect id="rect4498" x="189.148" y="84.309" fill="#2E2E2E" width="9.073" height="5.104"/>
		<rect id="rect4500" x="155.199" y="91.337" fill="#2E2E2E" width="5.104" height="9.072"/>
		<rect id="rect4502" x="159.455" y="120.713" fill="#2E2E2E" width="2.268" height="4.535"/>
		<rect id="rect4504" x="162.573" y="120.217" fill="#2E2E2E" width="4.537" height="2.268"/>
		<rect id="rect4506" x="162.573" y="123.31" fill="#2E2E2E" width="4.537" height="2.269"/>
		<rect id="rect4508" x="169.658" y="120.82" fill="#2E2E2E" width="2.268" height="4.537"/>
		<rect id="rect4510" x="175.949" y="120.82" fill="#2E2E2E" width="2.268" height="4.537"/>
		<rect id="rect4512" x="180.509" y="120.82" fill="#2E2E2E" width="2.269" height="4.537"/>
		<rect id="rect4514" x="146.091" y="121.581" fill="#2E2E2E" width="2.268" height="4.536"/>
		<rect id="rect4516" x="124.816" y="121.689" fill="#2E2E2E" width="2.27" height="4.535"/>
		<rect id="rect4518" x="117.413" y="114.572" fill="#2E2E2E" width="4.537" height="2.268"/>
		<rect id="rect4520" x="108.4" y="115.982" fill="#2E2E2E" width="4.537" height="2.269"/>
		<rect id="rect4522" x="106.199" y="118.836" fill="#2E2E2E" width="9.073" height="5.104"/>
		<rect id="rect5332" x="151.523" y="84.868" fill="#2E2E2E" width="2.268" height="4.535"/>
		<rect id="rect5334" x="96.2" y="82.765" fill="#2E2E2E" width="2.269" height="4.537"/>
		<rect id="rect5336" x="94.43" y="90.591" fill="#2E2E2E" width="2.268" height="4.536"/>
		<g id="g9883" transform="matrix(0.25311793,0,0,0.25311793,55.789688,78.669074)">
			<rect id="rect9671" x="106.114" y="243.868" fill="#55ADF7" width="226.793" height="27.825"/>
		</g>
		<g id="g9958" transform="matrix(0.25311793,0,0,0.25311793,106.00829,78.669074)">
			<rect id="rect9960" x="162.35" y="243.868" fill="#55ADF7" width="170.603" height="27.825"/>
		</g>
		<g id="g10237" transform="matrix(0.25311793,0,0,0.25311793,58.281998,78.669074)">
			<rect id="rect10038" x="295.443" y="-295.946" fill="#55ADF7" width="226.056" height="27.825"/>
		</g>
		<g id="g10334" transform="matrix(0.25311793,0,0,0.25311793,-3.452713,78.669074)">
			<rect id="rect10336" x="237.86" y="-295.946" fill="#55ADF7" width="283.582" height="27.825"/>
		</g>
		<g id="g14243" transform="matrix(0.25311793,0,0,0.25311793,58.281998,78.669074)">
			<rect id="rect8764-5" x="460.649" y="-200.334" fill="#505050" width="15.456" height="24.358"/>
			<rect id="rect6106-7" x="460.649" y="-195.513" fill="#0000F7" width="15.471" height="14.725"/>
		</g>
		<g id="g14302" transform="matrix(0.25311793,0,0,0.25311793,52.495001,77.437285)">
			<rect id="rect8764-5-5" x="-90.476" y="69.353" fill="#505050" width="15.461" height="24.362"/>
			<rect id="rect6106-7-6" x="-90.482" y="74.17" fill="#E6E6E6" width="15.473" height="14.723"/>
		</g>
		<g id="g4265" transform="translate(-63.970902,87.725014)">
			<path id="path6010-1" fill="#666666" d="M223.693-19.762c0-0.591-0.473-1.078-1.092-1.167v-0.018h-4.412
				c-0.714,0-1.295,0.53-1.295,1.186s0.58,1.186,1.295,1.186h4.412v-0.019C223.22-18.684,223.693-19.172,223.693-19.762
				L223.693-19.762z"/>
			<path id="path14215" fill="#666666" d="M223.693-7.05c0-0.592-0.473-1.078-1.092-1.167v-0.019h-4.412
				c-0.714,0-1.295,0.531-1.295,1.186s0.58,1.187,1.295,1.187h4.412v-0.019C223.22-5.973,223.693-6.459,223.693-7.05L223.693-7.05z"
				/>
			<path id="path14217" fill="#666666" d="M237.767-19.762c0-0.591-0.473-1.078-1.092-1.167v-0.018h-4.412
				c-0.715,0-1.296,0.53-1.296,1.186s0.58,1.186,1.296,1.186h4.412v-0.019C237.293-18.684,237.767-19.172,237.767-19.762
				L237.767-19.762z"/>
			<path id="path14219" fill="#666666" d="M237.767-7.05c0-0.592-0.473-1.078-1.092-1.167v-0.019h-4.412
				c-0.715,0-1.296,0.531-1.296,1.186s0.58,1.187,1.296,1.187h4.412v-0.019C237.293-5.973,237.767-6.459,237.767-7.05L237.767-7.05z
				"/>
			<rect id="rect6112-4" x="218.782" y="-21.829" fill="#8C8C8C" width="16.976" height="17.359"/>
			<path id="path6114-6" fill="#404040" d="M235.377-19.389c0,0.854-0.691,1.546-1.547,1.546c-0.852,0-1.545-0.689-1.545-1.546
				c0-0.851,0.689-1.545,1.545-1.545C234.685-20.931,235.377-20.238,235.377-19.389z"/>
			<path id="path6116-8" fill="#404040" d="M222.392-19.389c0,0.854-0.691,1.546-1.545,1.546c-0.855,0-1.547-0.689-1.547-1.546
				c0-0.851,0.69-1.545,1.547-1.545C221.703-20.931,222.392-20.238,222.392-19.389z"/>
			<circle id="circle6118-9" fill="#404040" cx="220.847" cy="-6.398" r="1.544"/>
			<circle id="circle6120-8" fill="#404040" cx="233.834" cy="-6.398" r="1.544"/>
			<circle id="circle6122-3" fill="#404040" cx="227.264" cy="-13.15" r="5.015"/>
		</g>
		<g id="g4353" transform="translate(0,10.633983)">
			<rect id="MicroUSB" x="4.968" y="64.405" fill="#999999" width="14.638" height="22.734"/>
			<g id="g5520" transform="matrix(0,-0.59099447,0.59099447,0,-2.2130381,86.439621)">
				<path id="path5522" fill="#4D4D4D" d="M30.043,24.499l-2.641-1.524v1.134H13.433c0.516-0.416,1.008-0.965,1.495-1.506
					c0.801-0.894,1.628-1.819,2.337-1.819h2.275c0.142,0.521,0.598,0.914,1.164,0.914c0.677,0,1.225-0.549,1.225-1.226
					c0-0.677-0.549-1.225-1.225-1.225c-0.566,0-1.022,0.391-1.164,0.913h-2.275c-0.987,0-1.87,0.984-2.803,2.028
					c-0.745,0.83-1.51,1.676-2.256,1.923h-1.822c-0.184-1.021-1.072-1.793-2.145-1.793c-1.206,0-2.184,0.976-2.184,2.184
					s0.978,2.185,2.184,2.185c1.073,0,1.961-0.775,2.145-1.794h5.198c0.746,0.247,1.51,1.093,2.253,1.923
					c0.936,1.043,1.818,2.025,2.803,2.025h2.142v0.986h2.597v-2.596h-2.597v0.985h-2.142c-0.706,0-1.536-0.924-2.337-1.818
					c-0.484-0.541-0.979-1.091-1.493-1.506h10.595v1.134L30.043,24.499z"/>
			</g>
		</g>
		<rect id="rect4358" x="-0.519" y="18.268" width="57.273" height="41.338"/>
		<rect id="rect4370" x="40.985" y="100.043" fill="#999999" width="39.268" height="45.224"/>
		<g id="g3447" transform="translate(0,1.9017882e-5)">
			<rect id="rect4526" x="12.499" y="6.938" fill="#505050" width="3.262" height="6.166"/>
			<rect id="rect4528" x="12.497" y="8.158" fill="#008000" width="3.264" height="3.728"/>
		</g>
		<g id="g5326" transform="translate(22.725645,1.9017882e-5)">
			<rect id="rect5328" x="12.504" y="6.938" fill="#505050" width="3.262" height="6.166"/>
			<rect id="rect5330" x="12.502" y="8.158" fill="#FFA700" width="3.265" height="3.728"/>
		</g>
		<g id="g3431" transform="translate(0,1.9017882e-5)">
			<rect id="rect3429" x="25.909" y="139.383" fill="#666666" width="4.536" height="2.275"/>
			<g id="g9337" transform="matrix(0.98974836,0,0,0.95396389,-0.28582241,5.9145572)">
				<rect id="rect6264-2" x="5.04" y="114.7" width="34.397" height="25.705"/>
				<rect id="rect6266-3" x="1.856" y="114.18" width="7.889" height="26.748"/>
			</g>
		</g>
		<g id="use3451" transform="translate(11.414369,1.9017882e-5)">
			<g id="g3447_1_" transform="translate(0,1.9017882e-5)">
				<rect id="rect4526_1_" x="21.634" y="6.938" fill="#505050" width="3.263" height="6.166"/>
				<rect id="rect4528_1_" x="21.633" y="8.158" fill="#008000" width="3.265" height="3.728"/>
			</g>
		</g>
		<g id="text3151">
			
				<text id="tspan3153" transform="matrix(1 0 0 1 120.6871 22.7256)" fill="#FFFFFF" font-family="'DroidSans'" font-size="5.6013">Digital I/O</text>
		</g>
		<g id="text3161">
			
				<text id="tspan3163" transform="matrix(1 0 0 1 172.1686 24.2739)" fill="#FFFFFF" font-family="'DroidSans'" font-size="4.8011">LED</text>
		</g>
		<g id="text3165" transform="scale(0.93172948,1.0732729)">
			
				<text id="tspan3167" transform="matrix(0.9317 0 0 0.9317 29.2787 86.0767)" fill="#FFFFFF" font-family="'DroidSans'" font-size="4.4645">PWR</text>
		</g>
		<g id="text3169">
			
				<text id="tspan3171" transform="matrix(1 0 0 1 108.424 128.3398)" fill="#FFFFFF" font-family="'DroidSans'" font-size="5.6013">Power</text>
		</g>
		<g id="text3173">
			
				<text id="tspan3175" transform="matrix(1 0 0 1 157.1422 130.8535)" fill="#FFFFFF" font-family="'DroidSans'" font-size="5.6013">Analog In</text>
		</g>
		<g id="text3177" transform="scale(1.0689727,0.93547758)">
			
				<text id="tspan3179" transform="matrix(1.069 0 0 1.069 115.5544 126.3036)" fill="#FFFFFF" font-family="'DroidSansMono'" font-size="6.1642">www.netduino.com</text>
		</g>
		<g id="text3265">
			
				<text id="tspan3267" transform="matrix(1 0 0 1 16.1622 147.9551)" fill="#FFFFFF" font-family="'DroidSans'" font-size="4.8011">7.5-12V</text>
		</g>
		<g id="text3269">
			
				<text id="tspan3271" transform="matrix(1 0 0 1 173.4196 75.7617)" fill="#FFFFFF" font-family="'DroidSans'" font-size="4.8011">SW1</text>
		</g>
		<g id="g10385">
			<g id="text10006" transform="matrix(0,-1,1,0,0,0)">
				
					<text id="tspan10008" transform="matrix(1 0 0 1 -18.2295 62.3361)" fill="#FFFFFF" font-family="'DroidSans'" font-size="5.6013">SC</text>
			</g>
			<g id="text10006_1_" transform="matrix(0,-1,1,0,0,0)">
				
					<text id="tspan10008_1_" transform="matrix(1 0 0 1 -18.2295 69.4723)" fill="#FFFFFF" font-family="'DroidSans'" font-size="5.6013">SD</text>
			</g>
			<g id="text10010" transform="matrix(0,-1,1,0,0,0)">
				
					<text id="tspan10012" transform="matrix(1 0 0 1 -21.7422 83.6183)" fill="#FFFFFF" font-family="'DroidSans'" font-size="5.6013">Gnd</text>
			</g>
			<g id="text10014" transform="matrix(0,-1,1,0,0,0)">
				
					<text id="tspan10016" transform="matrix(1 0 0 1 -17.4785 90.9215)" fill="#FFFFFF" font-family="'DroidSans'" font-size="5.6013">13</text>
			</g>
			<g id="text10018" transform="matrix(0,-1,1,0,0,0)">
				
					<text id="tspan10020" transform="matrix(1 0 0 1 -17.4756 98.1891)" fill="#FFFFFF" font-family="'DroidSans'" font-size="5.6013">12</text>
			</g>
			<g id="text10022" transform="matrix(0,-1,1,0,0,0)">
				
					<text id="tspan10024" transform="matrix(1 0 0 1 -17.46 105.4572)" fill="#FFFFFF" font-family="'DroidSans'" font-size="5.6013">11</text>
			</g>
			<g id="text10026" transform="matrix(0,-1,1,0,0,0)">
				
					<text id="tspan10028" transform="matrix(1 0 0 1 -17.4619 112.6461)" fill="#FFFFFF" font-family="'DroidSans'" font-size="5.6013">10</text>
			</g>
			<g id="text10030" transform="matrix(0,-1,1,0,0,0)">
				
					<text id="tspan10032" transform="matrix(1 0 0 1 -14.3731 119.9259)" fill="#FFFFFF" font-family="'DroidSans'" font-size="5.6013">9</text>
			</g>
			<g id="text10034" transform="matrix(0,-1,1,0,0,0)">
				
					<text id="tspan10036" transform="matrix(1 0 0 1 -14.3887 127.2174)" fill="#FFFFFF" font-family="'DroidSans'" font-size="5.6013">8</text>
			</g>
		</g>
		<g id="g10403">
			<g id="text10038" transform="matrix(0,-1,1,0,0,0)">
				
					<text id="tspan10040" transform="matrix(1 0 0 1 -14.4981 138.4293)" fill="#FFFFFF" font-family="'DroidSans'" font-size="5.6013">7</text>
			</g>
			<g id="text10042" transform="matrix(0,-1,1,0,0,0)">
				
					<text id="tspan10044" transform="matrix(1 0 0 1 -14.4893 145.7692)" fill="#FFFFFF" font-family="'DroidSans'" font-size="5.6013">6</text>
			</g>
			<g id="text10046" transform="matrix(0,-1,1,0,0,0)">
				
					<text id="tspan10048" transform="matrix(1 0 0 1 -14.5127 152.8756)" fill="#FFFFFF" font-family="'DroidSans'" font-size="5.6013">5</text>
			</g>
			<g id="text10050" transform="matrix(0,-1,1,0,0,0)">
				
					<text id="tspan10052" transform="matrix(1 0 0 1 -14.4981 160.0621)" fill="#FFFFFF" font-family="'DroidSans'" font-size="5.6013">4</text>
			</g>
			<g id="text10054" transform="matrix(0,-1,1,0,0,0)">
				
					<text id="tspan10056" transform="matrix(1 0 0 1 -14.5059 167.3453)" fill="#FFFFFF" font-family="'DroidSans'" font-size="5.6013">3</text>
			</g>
			<g id="text10058" transform="matrix(0,-1,1,0,0,0)">
				
					<text id="tspan10060" transform="matrix(1 0 0 1 -14.5049 174.3678)" fill="#FFFFFF" font-family="'DroidSans'" font-size="5.6013">2</text>
			</g>
			<g id="text10062" transform="matrix(0,-1,1,0,0,0)">
				
					<text id="tspan10064" transform="matrix(1 0 0 1 -14.4942 181.693)" fill="#FFFFFF" font-family="'DroidSans'" font-size="5.6013">1</text>
			</g>
			<g id="text10066" transform="matrix(0,-1,1,0,0,0)">
				
					<text id="tspan10068" transform="matrix(1 0 0 1 -14.5 188.9781)" fill="#FFFFFF" font-family="'DroidSans'" font-size="5.6013">0</text>
			</g>
		</g>
		<g id="g10433">
			<g id="text10082" transform="matrix(0,-1,1,0,0,0)">
				
					<text id="tspan10084" transform="matrix(1 0 0 1 -139.6153 102.4991)" fill="#FFFFFF" font-family="'DroidSans'" font-size="5.6013">/RESET</text>
			</g>
			<g id="text10082_2_" transform="matrix(0,-1,1,0,0,0)">
				<text transform="matrix(1 0 0 1 -139.6153 95.3658)" fill="#FFFFFF" font-family="'DroidSans'" font-size="5.6013">I</text>
				<text transform="matrix(1 0 0 1 -137.7725 95.3658)" fill="#FFFFFF" font-family="'DroidSans'" font-size="5.6013">O</text>
				<text transform="matrix(1 0 0 1 -133.6153 95.3658)" fill="#FFFFFF" font-family="'DroidSans'" font-size="5.6013">R</text>
				<text transform="matrix(1 0 0 1 -130.3116 95.3658)" fill="#FFFFFF" font-family="'DroidSans'" font-size="5.6013">E</text>
				<text transform="matrix(1 0 0 1 -127.3545 95.3658)" fill="#FFFFFF" font-family="'DroidSans'" font-size="5.6013">F</text>
			</g>
			<g id="text10086" transform="matrix(0,-1,1,0,0,0)">
				
					<text id="tspan10088" transform="matrix(1 0 0 1 -139.6348 109.7321)" fill="#FFFFFF" font-family="'DroidSans'" font-size="5.6013">3V3</text>
			</g>
			<g id="text10090" transform="matrix(0,-1,1,0,0,0)">
				
					<text id="tspan10092" transform="matrix(1 0 0 1 -139.6289 117.1158)" fill="#FFFFFF" font-family="'DroidSans'" font-size="5.6013">5V</text>
			</g>
			<g id="text10094" transform="matrix(0,-1,1,0,0,0)">
				
					<text id="tspan10096" transform="matrix(1 0 0 1 -139.626 138.693)" fill="#FFFFFF" font-family="'DroidSans'" font-size="5.6013">Vin</text>
			</g>
			<g id="text10010-4" transform="matrix(0,-1,1,0,0,0)">
				
					<text id="tspan10012-0" transform="matrix(1 0 0 1 -139.6192 124.1217)" fill="#FFFFFF" font-family="'DroidSans'" font-size="5.6013">Gnd</text>
			</g>
			<g id="text10170" transform="matrix(0,-1,1,0,0,0)">
				
					<text id="tspan10172" transform="matrix(1 0 0 1 -139.6192 131.4664)" fill="#FFFFFF" font-family="'DroidSans'" font-size="5.6013">Gnd</text>
			</g>
		</g>
		<g id="g10279">
			<g id="text10046-9" transform="matrix(0,-1,1,0,0,0)">
				
					<text id="tspan10048-4" transform="matrix(1 0 0 1 -139.6289 189.0543)" fill="#FFFFFF" font-family="'DroidSans'" font-size="5.6013">5</text>
			</g>
			<g id="text10050-8" transform="matrix(0,-1,1,0,0,0)">
				
					<text id="tspan10052-8" transform="matrix(1 0 0 1 -139.6192 181.7662)" fill="#FFFFFF" font-family="'DroidSans'" font-size="5.6013">4</text>
			</g>
			<g id="text10054-2" transform="matrix(0,-1,1,0,0,0)">
				
					<text id="tspan10056-4" transform="matrix(1 0 0 1 -139.6289 174.4879)" fill="#FFFFFF" font-family="'DroidSans'" font-size="5.6013">3</text>
			</g>
			<g id="text10058-5" transform="matrix(0,-1,1,0,0,0)">
				
					<text id="tspan10060-5" transform="matrix(1 0 0 1 -139.6231 167.2028)" fill="#FFFFFF" font-family="'DroidSans'" font-size="5.6013">2</text>
			</g>
			<g id="text10062-1" transform="matrix(0,-1,1,0,0,0)">
				
					<text id="tspan10064-7" transform="matrix(1 0 0 1 -139.6162 159.9176)" fill="#FFFFFF" font-family="'DroidSans'" font-size="5.6013">1</text>
			</g>
			<g id="text10066-1" transform="matrix(0,-1,1,0,0,0)">
				
					<text id="tspan10068-1" transform="matrix(1 0 0 1 -139.6231 152.6344)" fill="#FFFFFF" font-family="'DroidSans'" font-size="5.6013">0</text>
			</g>
		</g>
		<g id="g4334">
			<g id="g4512" transform="matrix(0.27246189,0,0,0.27246189,89.908267,-5.0926443)">
				<path id="path4514" fill="#FFFFFF" d="M348.27,204.052v-7.577h-2.832v-1.014h6.81v1.014h-2.839v7.577H348.27z"/>
				<path id="path4516" fill="#FFFFFF" d="M353.374,204.052v-8.591h1.713l2.029,6.082c0.186,0.566,0.326,0.991,0.412,1.271
					c0.097-0.312,0.247-0.769,0.455-1.376l2.057-5.979h1.534v8.593h-1.1v-7.192l-2.498,7.192h-1.025l-2.48-7.315v7.315H353.374
					L353.374,204.052z"/>
			</g>
			<g id="g4306">
				<path id="path4225" fill="#FFFFFF" d="M140.099,45.971v-3.646c0-1.641,1.146-2.734,2.67-2.734c1.521,0,2.668,1.094,2.668,2.734
					v3.646h-1.146v-3.646c0-0.964-0.703-1.641-1.521-1.641c-0.82,0-1.523,0.677-1.523,1.641v3.646H140.099L140.099,45.971z"/>
				<path id="path4227" fill="#FFFFFF" d="M148.461,43.914l-0.469-0.911l3.086-1.719c-0.391-0.391-0.717-0.599-1.42-0.599
					c-1.184,0-2.043,0.885-2.043,2.161s0.859,2.162,2.043,2.162c1.355,0,1.861-0.808,2.096-1.953l1.16,0.143
					c-0.131,1.653-1.459,2.903-3.256,2.903c-1.73,0-3.24-1.328-3.24-3.254c0-1.926,1.51-3.254,3.24-3.254
					c1.459,0,2.436,0.768,3.021,1.979L148.461,43.914L148.461,43.914z"/>
				<path id="path4229" fill="#FFFFFF" d="M157.414,40.815h-2.24v3.281c0,0.586,0.273,0.781,0.858,0.781h1.381v1.094h-1.536
					c-1.172,0-1.85-0.781-1.85-2.018V38.16h1.146v1.562h2.239L157.414,40.815L157.414,40.815z"/>
				<path id="path4231" fill="#FFFFFF" d="M164.315,36.859v5.806c0,2.058-1.315,3.437-3.151,3.437c-2.031,0-3.229-1.563-3.229-3.411
					c0-1.745,1.406-3.099,3.008-3.099c0.623,0,1.223,0.13,1.77,0.442v1.198c-0.417-0.286-1.054-0.546-1.574-0.546
					c-1.238,0-2.058,0.859-2.058,2.147c0,1.277,0.86,2.175,2.083,2.175c1.094,0,2.005-0.833,2.005-2.551V36.86L164.315,36.859
					L164.315,36.859z"/>
				<path id="path4233" fill="#FFFFFF" d="M170.756,39.722v3.646c0,1.641-1.146,2.734-2.669,2.734s-2.67-1.093-2.67-2.734v-3.645
					h1.146v3.646c0,0.963,0.703,1.641,1.523,1.641s1.523-0.677,1.523-1.641v-3.645L170.756,39.722L170.756,39.722z"/>
				<path id="path4235" fill="#FFFFFF" d="M173.157,37.64c0.442,0,0.69,0.338,0.69,0.689s-0.249,0.69-0.69,0.69
					c-0.443,0-0.69-0.339-0.69-0.69S172.714,37.64,173.157,37.64z M172.584,45.972v-6.249h1.146v6.249H172.584z"/>
				<path id="path4237" fill="#FFFFFF" d="M175.547,45.971v-3.646c0-1.641,1.146-2.734,2.67-2.734c1.521,0,2.668,1.094,2.668,2.734
					v3.646h-1.148v-3.645c0-0.963-0.703-1.64-1.522-1.64c-0.821,0-1.522,0.677-1.522,1.64v3.645h-1.146H175.547z"/>
				<path id="path4239" fill="#FFFFFF" d="M185.089,39.592c1.731,0,3.242,1.328,3.242,3.254s-1.511,3.254-3.242,3.254
					c-1.732,0-3.242-1.328-3.242-3.254C181.847,40.92,183.357,39.592,185.089,39.592z M185.089,45.008
					c1.184,0,2.044-0.885,2.044-2.162s-0.859-2.161-2.044-2.161c-1.186,0-2.043,0.885-2.043,2.161S183.904,45.008,185.089,45.008z"
					/>
			</g>
			<g id="g4316" transform="translate(0.18867926,-3.5849065)">
				<path id="path4241" fill="#FFFFFF" d="M153.422,64.403v-5.754c0-2.056,1.314-3.437,3.15-3.437c2.031,0,3.229,1.563,3.229,3.412
					c0,1.744-1.405,3.098-3.006,3.098c-0.625,0-1.225-0.13-1.771-0.442v-1.198c0.417,0.286,1.054,0.547,1.576,0.547
					c1.236,0,2.055-0.86,2.055-2.148c0-1.275-0.857-2.174-2.082-2.174c-1.094,0-2.005,0.833-2.005,2.551v5.546L153.422,64.403
					L153.422,64.403z"/>
				<path id="path4243" fill="#FFFFFF" d="M161.014,61.59v-9.112h1.146v9.112H161.014z"/>
				<path id="path4245" fill="#FFFFFF" d="M168.956,55.342v3.645c0,1.641-1.146,2.734-2.668,2.734c-1.523,0-2.67-1.093-2.67-2.734
					v-3.645h1.146v3.645c0,0.963,0.704,1.641,1.523,1.641c0.82,0,1.522-0.677,1.522-1.641v-3.645H168.956L168.956,55.342z"/>
				<path id="path4247" fill="#FFFFFF" d="M169.906,60.498h3.203c0.534,0,0.741-0.208,0.741-0.6c0-1.146-3.944-0.703-3.944-2.864
					c0-1.106,0.769-1.692,2.136-1.692h2.694v1.094h-2.89c-0.561,0-0.729,0.156-0.742,0.546c-0.014,1.081,3.944,0.625,3.944,2.865
					c0,1.185-0.833,1.745-1.939,1.745h-3.202L169.906,60.498L169.906,60.498z"/>
			</g>
			<path fill="#FFFFFF" d="M179.013,51.937c0,0,0.037-2,2.025-2s1.98,2.112,1.966,2.125s-0.078,0.863-0.753,1.414
				c-0.674,0.55-3.73,2.882-4.037,3.188c-0.306,0.306-0.426,1.325,0.424,1.325h5.389v-1.013l-4.521,0.018
				c0,0,3.501-2.788,3.958-3.245c0.455-0.457,0.887-2.501,0-3.588c-0.888-1.087-1.852-1.251-2.514-1.251s-2.967,0.5-2.967,3.025
				C178.263,51.937,179.013,51.937,179.013,51.937z"/>
		</g>
		<g id="text3453" transform="translate(0,1.9017882e-5)">
			<text transform="matrix(1 0 0 1 11.1989 4.8594)" fill="#FFFFFF" font-family="'DroidSans'" font-size="3.2007">A</text>
			<text transform="matrix(1 0 0 1 13.1139 4.8594)" fill="#FFFFFF" font-family="'DroidSans'" font-size="3.2007">C</text>
			<text transform="matrix(1 0 0 1 15.0436 4.8594)" fill="#FFFFFF" font-family="'DroidSans'" font-size="3.2007">T</text>
		</g>
		<g id="text3457" transform="translate(0,1.9017882e-5)">
			<text id="tspan3459" transform="matrix(1 0 0 1 22.858 4.8594)" fill="#FFFFFF" font-family="'DroidSans'" font-size="3.2007">100</text>
		</g>
		<g id="text3461" transform="translate(0,1.9017882e-5)">
			<text transform="matrix(1 0 0 1 33.8185 4.8594)" fill="#FFFFFF" font-family="'DroidSans'" font-size="3.2007">F</text>
			<text transform="matrix(1 0 0 1 35.3912 4.8594)" fill="#FFFFFF" font-family="'DroidSans'" font-size="3.2007">D</text>
			<text transform="matrix(1 0 0 1 37.5494 4.8594)" fill="#FFFFFF" font-family="'DroidSans'" font-size="3.2007">X</text>
		</g>
		<g id="text3471">
			
				<text id="tspan3473" transform="matrix(1 0 0 1 53.0875 149.0596)" fill="#FFFFFF" font-family="'DroidSans'" font-size="4.0009">MicroSD</text>
		</g>
	</g>
</g>
<rect id="connector0pin" x="75.804" y="6.011" width="2.775" height="2.773"/>
<rect id="connector1pin" x="82.884" y="6.011" width="2.772" height="2.773"/>
<rect id="connector50pin" x="61.401" y="6.011" width="2.775" height="2.773"/>
<rect id="connector51pin" x="68.481" y="6.011" width="2.772" height="2.773"/>
<rect id="connector2pin" x="89.964" y="6.011" width="2.773" height="2.773"/>
<rect id="connector3pin" x="97.243" y="6.011" width="2.774" height="2.773"/>
<rect id="connector4pin" x="104.52" y="6.011" width="2.773" height="2.773"/>
<rect id="connector5pin" x="111.502" y="6.011" width="2.773" height="2.773"/>
<rect id="connector6pin" x="118.884" y="6.011" width="2.773" height="2.773"/>
<rect id="connector7pin" x="126.055" y="6.011" width="2.774" height="2.773"/>
<rect id="connector8pin" x="137.538" y="5.912" width="2.773" height="2.773"/>
<rect id="connector9pin" x="144.709" y="5.912" width="2.775" height="2.773"/>
<rect id="connector10pin" x="151.691" y="5.912" width="2.772" height="2.773"/>
<rect id="connector11pin" x="159.072" y="5.912" width="2.773" height="2.773"/>
<rect id="connector12pin" x="166.255" y="5.912" width="2.774" height="2.773"/>
<rect id="connector13pin" x="173.326" y="5.912" width="2.772" height="2.773"/>
<rect id="connector14pin" x="180.608" y="5.912" width="2.771" height="2.773"/>
<rect id="connector15pin" x="187.891" y="5.912" width="2.775" height="2.773"/>
<rect id="connector16pin" x="101.433" y="142.622" width="2.775" height="2.772"/>
<rect id="connector52pin" x="94.231" y="142.622" width="2.775" height="2.772"/>
<rect id="connector53pin" x="87.03" y="142.622" width="2.775" height="2.772"/>
<rect id="connector17pin" x="108.731" y="142.622" width="2.775" height="2.772"/>
<rect id="connector18pin" x="116.033" y="142.622" width="2.774" height="2.772"/>
<rect id="connector19pin" x="123.015" y="142.622" width="2.772" height="2.772"/>
<rect id="connector20pin" x="130.387" y="142.622" width="2.773" height="2.772"/>
<rect id="connector21pin" x="137.568" y="142.622" width="2.773" height="2.772"/>
<rect id="connector22pin" x="151.742" y="142.723" width="2.771" height="2.771"/>
<rect id="connector23pin" x="159.013" y="142.723" width="2.774" height="2.771"/>
<rect id="connector24pin" x="166.295" y="142.723" width="2.773" height="2.771"/>
<rect id="connector25pin" x="173.276" y="142.723" width="2.772" height="2.771"/>
<rect id="connector26pin" x="180.648" y="142.723" width="2.773" height="2.771"/>
<rect id="connector27pin" x="187.83" y="142.723" width="2.771" height="2.771"/>
</svg>
