<?xml version='1.0' encoding='utf-8'?>
<!DOCTYPE svg>
<!-- Generator: Adobe Illustrator 14.0.0, SVG Export Plug-In . SVG Version: 6.00 Build 43363)  -->
<svg xmlns="http://www.w3.org/2000/svg"  width="0.414986in" x="0px" version="1.1" y="0px" height="0.1in" viewBox="0 0 29.879 7.2" id="0">
 <desc   id="0.0" oldid="0.0">
  <referenceFile   id="0.0.0" oldid="0.0.0">diode.svg</referenceFile>
 </desc>
 <g   id="breadboard">
  <rect  width="1" x="0.011" y="2.583" fill="none"  height="1" id="connector0pin"/>
  <rect  width="1" x="25.576" y="2.583" fill="none"  height="1" id="connector1pin"/>
  <line  fill="none"  stroke="#8C8C8C" id="connector0leg" stroke-linecap="round" y1="3.63" x1="1.047" y2="3.63" stroke-width="2.094" x2="2.094"/>
  <line  fill="none"  stroke="#8C8C8C" id="connector1leg" stroke-linecap="round" y1="3.63" x1="27.785" y2="3.63" stroke-width="2.094" x2="28.832"/>
  <rect  width="25.691" x="2.094" y="2.583" fill="#8C8C8C"  height="2.094" id="rect7"/>
  <g   id="0.0.5">
   <path  fill="#1A1A1A"  id="Body_1_" d="M9.159,0H7.002c-0.475,0-0.393,7.193,0,7.193h2.157c0.396,0,11.114,0,11.508,0h2.158&#xd;&#xa;&#x9;&#x9;&#x9;&#x9;c0.515,0,0.558-7.193,0-7.193h-2.158C20.27,0,9.553,0,9.159,0z"/>
   <rect  width="1.992" x="9.783" opacity="0.74" y="0" fill="#FFFFFF"  height="7.193" id="rect16" enable-background="new    "/>
   <path  opacity="0.4" fill="#FFFFFF"  id="Reflex_1_" enable-background="new    " d="M7.289,0.358c0.726,0,1.145,0,1.866,0&#xd;&#xa;&#x9;&#x9;&#x9;&#x9;c0.719,0,10.786,0,11.508,0c0.021,0,0.229,0,0.479,0c0.563,0,1.066,0,1.311,0c0.354,0,1.146,0.36-0.354,0.36&#xd;&#xa;&#x9;&#x9;&#x9;&#x9;c-1.08,0-0.726,0-1.438,0c-0.717,0-10.791,0-11.508,0c-0.723,0-1.145,0-1.866,0C6.931,0.719,6.573,0.358,7.289,0.358z"/>
   <path  opacity="0.4"  id="Shaddow_1_" enable-background="new    " d="M22.822,7.194c-0.727,0.014-1.438,0-2.156,0&#xd;&#xa;&#x9;&#x9;&#x9;&#x9;c-0.902,0-12.942,0-13.667,0c-0.091,0-0.202-0.723-0.182-0.723c1.293,0,1.613,0,2.336,0c0.723,0,10.789,0,11.509,0&#xd;&#xa;&#x9;&#x9;&#x9;&#x9;c0.721,0,1.67,0,2.393,0C23.076,6.471,22.969,7.192,22.822,7.194z"/>
  </g>
 </g>
</svg>
