<?xml version='1.0' encoding='UTF-8' standalone='no'?>
<svg
  xmlns:dc="http://purl.org/dc/elements/1.1/"
  xmlns:cc="http://creativecommons.org/ns#"
  xmlns:rdf="http://www.w3.org/1999/02/22-rdf-syntax-ns#"
  xmlns:svg="http://www.w3.org/2000/svg"
  xmlns="http://www.w3.org/2000/svg"
  y="0px"
  enable-background="new 0 0 195.85 161.29"
  width="2.7132361in"
  xml:space="preserve"
  viewBox="0 0 2713.237 2276.5112"
  height="2.2765105in"
  id="Layer_1"
  x="0px"
  version="1.1">
  <metadata
    id="metadata723">
    <rdf:RDF>
      <cc:Work
        rdf:about="">
        <dc:format>image/svg+xml</dc:format>
        <dc:type
          rdf:resource="http://purl.org/dc/dcmitype/StillImage"
        />
        <dc:title/>
      </cc:Work>
    </rdf:RDF>
  </metadata>
  <defs
    id="defs721">
  </defs>
  <desc
    id="desc2">
    <referenceFile>PCM_1_breadboard.svg</referenceFile>
  </desc>
  <g
    id="breadboard">
    <line
      y1="2181.7039"
      y2="2181.7039"
      x2="2427.0557"
      x1="1146.0555"
      id="line4"
      fill="none"
      stroke="#000000"
      stroke-width="14"
    />
    <path
      d="M 1145.681,95.663797"
      id="path6"
      fill="none"
      stroke="#000000"
      stroke-width="14"
    />
    <path
      d="M 1145.681,2181.5387"
      id="path8"
      fill="none"
      stroke="#000000"
      stroke-width="14"
    />
    <path
      d="m 2416.8758,2181.5387 h 78.7223 c 81.875,0 148.1389,-53.8474 148.1389,-120.3753 v -113.4295 h 30.0834 c 17.9305,0 32.4166,-14.4862 32.4166,-32.3887 v -757.182 -803.25014 c 0,-17.93075 -17.6111,-32.41693 -39.3333,-32.41693 h -23.1389 V 243.802 c 0,-81.88864 -54.0972,-122.65282 -120.6389,-122.65282 H 1148.2782 V 91.038054 c 0,-17.902499 -14.4862,-32.388674 -32.4167,-32.388674 v 0 H 328.76399 c -17.91667,0 -32.40279,17.58319 -32.40279,39.332939 v 23.138601 h -78.70836 c -81.88891,0 -148.15282,53.84737 -148.15282,120.36114 V 354.92719 H 39.402788 C 21.486116,354.92719 7,369.41337 7,387.31587 v 757.19473 803.2501 c 0,17.9166 17.597228,32.4169 39.333346,32.4169 h 23.152786 v 78.6942 c 0,81.89 53.833348,148.1396 120.375038,148.1396 h 113.43059 v 30.1111 c 0,17.9025 14.48612,32.3887 32.40279,32.3887 h 738.37525 41.6112 c 17.9027,0 32.3889,-17.5973 32.3889,-39.333 l 0.2222,-48.6254"
      id="BackColor_3_"
      stroke="#000000"
      stroke-width="14"
    />
    <rect
      y="95.833206"
      width="141.6806"
      height="264.11124"
      x="455.41678"
      id="rect14"
      stroke-width="14"
    />
    <circle
      r="19"
      cy="306.94302"
      cx="525.23627"
      id="ellipse16"
      fill="#c2b59b"
      stroke-width="14"
    />
    <path
      d="m 455.41681,234.37108 v 108.04231 c 16.22223,0 29.20834,0 29.3889,-20.61098 l -0.19445,-73.75049 c 28.47224,0 54.23614,0 83.23614,0 l -0.19445,73.75049 h 0.0278 c -0.20834,20.61098 13.02778,20.61098 29.41667,20.61098 l -0.0972,-0.46625 v -106.88941 -0.67818 c -48.15279,0 -94.18059,0 -141.58338,0 0,38.01473 0,74.29163 0,110.34812"
      id="path18"
      fill="#c2b59b"
      stroke-width="14"
    />
    <rect
      y="0"
      width="141.69449"
      height="264.11124"
      x="597.0835"
      id="rect22"
      stroke-width="14"
    />
    <circle
      r="19"
      cy="306.94302"
      cx="666.93079"
      id="ellipse24"
      fill="#c2b59b"
      stroke-width="14"
    />
    <path
      d="m 597.08352,234.37108 v 108.04231 c 16.22223,0 29.20835,0 29.40279,-20.61098 l -0.19444,-73.75049 c 28.47223,0 54.23612,0 83.22225,0 l -0.19445,73.75049 h 0.0417 c -0.20834,20.61098 13.01389,20.61098 29.41668,20.61098 l -0.11111,-0.46625 v -106.88941 -0.67818 c -48.13892,0 -94.16671,0 -141.58339,0 0,38.01473 0,74.29163 0,110.34812"
      id="path26"
      fill="#c2b59b"
      stroke-width="14"
    />
    <rect
      y="95.833206"
      width="141.6806"
      height="264.11124"
      x="880.52802"
      id="rect30"
      stroke-width="14"
    />
    <circle
      r="19"
      cy="306.94302"
      cx="950.36133"
      id="ellipse32"
      fill="#c2b59b"
      stroke-width="14"
    />
    <path
      d="m 880.52806,234.37108 v 108.04231 c 16.22223,0 29.20834,0 29.40279,-20.61098 l -0.19445,-73.75049 c 28.47224,0 54.23613,0 83.22225,0 l -0.19444,73.75049 h 0.0278 c -0.20833,20.61098 13.02779,20.61098 29.41679,20.61098 l -0.1112,-0.46625 v -106.88941 -0.67818 c -48.13893,0 -94.15284,0 -141.56952,0 0,38.01473 0,74.29163 0,110.34812"
      id="path34"
      fill="#c2b59b"
      stroke-width="14"
    />
    <rect
      y="95.833206"
      width="141.6806"
      height="264.11124"
      x="738.77802"
      id="rect38"
      stroke-width="14"
    />
    <circle
      r="19"
      cy="306.94302"
      cx="808.61133"
      id="ellipse40"
      fill="#c2b59b"
      stroke-width="14"
    />
    <path
      d="m 738.77802,234.37108 v 108.04231 c 16.20833,0 29.20834,0 29.38889,-20.61098 l -0.19444,-73.75049 c 28.47223,0 54.23613,0 83.23614,0 l -0.19445,73.75049 h 0.0278 c -0.20833,20.61098 13.02778,20.61098 29.41668,20.61098 l -0.0972,-0.46625 v -106.88941 -0.67818 c -48.15279,0 -94.18058,0 -141.58337,0 0,38.01473 0,74.29163 0,110.34812"
      id="path42"
      fill="#c2b59b"
      stroke-width="14"
    />
    <path
      d="m 874.30584,458.76056 c -91.9167,0 -180.97228,0 -271.1112,0 0,26.959 0.44444,52.24941 -0.18056,77.51438 -0.36111,15.61082 7.52778,21.69465 21.70834,22.02667 12.00001,0.29671 23.97223,0.24019 35.95835,0.25432 62.06946,0 124.13893,-0.26844 186.20839,0.15542 19.05556,0.14128 28.81945,-6.09796 27.70835,-26.98727 -1.26389,-23.79135 -0.29167,-47.69431 -0.29167,-72.95787 z"
      id="path47"
      fill="#ffffff"
      stroke="#000000"
      stroke-width="14"
    />
    <text
      y="-483.71057"
      x="-815.53815"
      id="text49"
      transform="scale(-1)"
      font-size="76"
      font-family="'Droid Sans'">CAN</text>
    <path
      d="m 1022.2504,369.84429 c 0,30.12526 0,59.06935 0,88.90214 -48.20842,0 -94.11121,0 -141.72234,0 0,-29.70846 0,-58.65255 0,-88.90214 47.70835,0 94.19447,0 141.72234,0 z"
      id="path69"
      fill="#00a651"
      stroke-width="14"
    />
    <path
      d="m 880.52806,369.84429 c 0,30.12526 0,59.06935 0,88.90214 -48.19446,0 -94.06948,0 -141.6806,0 0,-29.70846 0,-58.65255 0,-88.90214 47.72223,0 94.1528,0 141.6806,0 z"
      id="path71"
      fill="#fff200"
      stroke-width="14"
    />
    <path
      d="m 738.79191,369.84429 c 0,30.12526 0,59.06935 0,88.90214 -48.20836,0 -94.11115,0 -141.72227,0 0,-29.70846 0,-58.65255 0,-88.90214 47.70834,0 94.19447,0 141.72227,0 z"
      id="path73"
      fill="#00a651"
      stroke-width="14"
    />
    <path
      d="m 597.06964,369.84429 c 0,30.12526 0,59.06935 0,88.90214 -48.19447,0 -94.06948,0 -141.6806,0 0,-29.70846 0,-58.65255 0,-88.90214 47.73612,0 94.1528,0 141.6806,0 z"
      id="path75"
      fill="#fff200"
      stroke-width="14"
    />
    <rect
      y="1976.4843"
      width="141.6806"
      height="264.11124"
      x="903.72241"
      id="rect78"
      stroke-width="14"
    />
    <circle
      r="19"
      cy="2029.4705"
      cx="975.5697"
      id="ellipse80"
      fill="#c2b59b"
      stroke-width="14"
    />
    <path
      d="m 1045.4031,2102.0392 v -108.0281 c -16.2222,0 -29.2082,0 -29.4027,20.5841 l 0.1945,73.7773 c -28.47236,0 -54.23625,0 -83.22238,0 l 0.19444,-73.7773 h -0.0278 c 0.20833,-20.5841 -13.02778,-20.5841 -29.41668,-20.5841 l 0.0972,0.4662 v 106.8753 0.6782 c 48.13891,0 94.16671,0 141.58342,0 0,-38.0006 0,-74.2917 0,-110.3482"
      id="path82"
      fill="#c2b59b"
      stroke-width="14"
    />
    <rect
      y="1976.4843"
      width="141.6806"
      height="264.11124"
      x="762.04193"
      id="rect86"
      stroke-width="14"
    />
    <circle
      r="19"
      cy="2029.4705"
      cx="833.88916"
      id="ellipse88"
      fill="#c2b59b"
      stroke-width="14"
    />
    <path
      d="m 903.72251,2102.0392 v -108.0281 c -16.22223,0 -29.20834,0 -29.40279,20.5841 l 0.19445,73.7773 c -28.47224,0 -54.23613,0 -83.23614,0 l 0.19445,-73.7773 h -0.0278 c 0.20834,-20.5841 -13.02777,-20.5841 -29.41667,-20.5841 l 0.0972,0.4662 v 106.8753 0.6782 c 48.15279,0 94.18058,0 141.59726,0 0,-38.0006 0,-74.2917 0,-110.3482"
      id="path90"
      fill="#c2b59b"
      stroke-width="14"
    />
    <rect
      y="1976.4843"
      width="141.6806"
      height="264.11124"
      x="478.59735"
      id="rect94"
      stroke-width="14"
    />
    <circle
      r="19"
      cy="2029.4705"
      cx="550.44458"
      id="ellipse96"
      fill="#c2b59b"
      stroke-width="14"
    />
    <path
      d="m 620.27798,2102.0392 v -108.0281 c -16.22223,0 -29.20835,0 -29.40279,20.5841 l 0.19444,73.7773 c -28.47223,0 -54.23612,0 -83.23614,0 l 0.19445,-73.7773 h -0.0278 c 0.20834,-20.5841 -13.02778,-20.5841 -29.40279,-20.5841 l 0.0972,0.4662 v 106.8753 0.6782 c 48.1528,0 94.18059,0 141.58339,0 0,-38.0006 0,-74.2917 0,-110.3482"
      id="path98"
      fill="#c2b59b"
      stroke-width="14"
    />
    <rect
      y="1976.4843"
      width="141.6806"
      height="264.11124"
      x="620.36127"
      id="rect102"
      stroke-width="14"
    />
    <circle
      r="19"
      cy="2029.4705"
      cx="692.20856"
      id="ellipse104"
      fill="#c2b59b"
      stroke-width="14"
    />
    <path
      d="m 762.04191,2102.0392 v -108.0281 c -16.22223,0 -29.20834,0 -29.3889,20.5841 l 0.18056,73.7773 c -28.47223,0 -54.23613,0 -83.22225,0 l 0.19444,-73.7773 h -0.0278 c 0.20834,-20.5841 -13.02778,-20.5841 -29.41667,-20.5841 l 0.11111,0.4662 v 106.8753 0.6782 c 48.12502,0 94.15281,0 141.56949,0 0,-38.0006 0,-74.2917 0,-110.3482"
      id="path106"
      fill="#c2b59b"
      stroke-width="14"
    />
    <path
      d="m 762.02802,1966.5802 c 0,-30.1253 0,-59.0962 0,-88.9163 48.19447,0 94.09725,0 141.70839,0 0,29.7226 0,58.6525 0,88.9163 -47.70835,0 -94.19448,0 -141.70839,0 z"
      id="path111"
      stroke="#009444"
      stroke-width="14"
    />
    <path
      d="m 911.66696,1966.5802 c 0,-30.1253 0,-59.0962 0,-88.9163 43.47223,0 84.84725,0 127.79184,0 0,29.7226 0,58.6525 0,88.9163 -43.04181,0 -84.91682,0 -127.79184,0 z"
      id="path113"
      fill="#ed1c24"
      stroke="#009444"
      stroke-width="14"
    />
    <path
      d="m 195.45839,1724.3164 c -25.37501,0 -45.94446,20.5418 -45.94446,45.8619 v 0 c 0,25.3327 20.56945,45.9027 45.94446,45.9027 140.69449,-0.1836 284.29176,-0.3532 424.98625,-0.3814 37.27779,0 74.56947,0.4238 111.83337,-0.2402 16.2639,-0.2967 30.54167,4.6526 29.75001,21.0829 -0.70833,14.667 0,29.8059 0,41.1117 97.38893,0 186.04173,0.8619 283.37508,0.8619 0,-37.971 0,-77.4028 0,-116.8191 0,-36.9297 -0.1943,-37.1246 -37.8611,-37.3465 -2.0972,0 -4.2083,0 -6.3194,0 -262.38903,0 -543.37523,-0.1412 -805.76421,0 z"
      id="path115"
      fill="#009444"
      stroke-width="14"
    />
    <path
      d="m 444.1807,1905.2615 -263.50009,0.2402 c -17.43056,0 -31.55556,-20.0981 -31.55556,-44.8756 v 0 c 0,-24.7776 14.125,-44.8743 31.55556,-44.8743 180.13894,-0.1412 373.0279,0 553.16685,0 1.44444,0 2.88888,0 4.33333,0 25.86112,0.2261 26.00001,0.4098 26.00001,36.527 0,38.5559 0,77.1259 0,114.2915 -66.83335,0 -240.68063,0 -307.52788,0 0,-11.0685 -0.875,-21.097 -0.375,-35.4433 0.54167,-16.0559 -2.84722,-26.278 -14.01389,-25.9729 z"
      id="path117"
      fill="#2e3192"
      stroke-width="14"
    />
    <rect
      y="701.31915"
      width="264.48618"
      height="141.48618"
      x="26.583342"
      id="rect122"
      stroke-width="14"
    />
    <circle
      r="19"
      cy="773.06653"
      cx="238.00008"
      id="ellipse124"
      fill="#c2b59b"
      stroke-width="14"
    />
    <path
      d="m 165.31949,842.80172 h 108.20837 c 0,-16.20705 0,-29.16591 -20.625,-29.36089 l -73.86114,0.19781 c 0,-28.43122 0,-54.15256 0,-83.11078 l 73.86114,0.19781 v 0 c 20.625,0.22606 20.625,-12.99984 20.625,-29.36089 l -0.47222,0.14128 h -107.0417 -0.69445 c 0,48.07014 0,94.02804 0,141.3762 38.06946,0 74.38892,0 110.51393,0"
      id="path126"
      fill="#c2b59b"
      stroke-width="14"
    />
    <rect
      y="842.87189"
      width="264.48618"
      height="141.48618"
      x="26.583342"
      id="rect130"
      stroke-width="14"
    />
    <circle
      r="19"
      cy="914.60895"
      cx="238.00008"
      id="ellipse132"
      fill="#c2b59b"
      stroke-width="14"
    />
    <path
      d="m 165.31949,984.34464 h 108.20837 c 0,-16.20847 0,-29.16733 -20.625,-29.34818 l -73.86114,0.1978 c 0,-28.43122 0,-54.15255 0,-83.11077 l 73.86114,0.1978 v 0 c 20.625,0.21194 20.625,-12.99983 20.625,-29.37501 l -0.47222,0.14128 h -107.0417 -0.69445 c 0,48.06873 0,94.02662 0,141.36066 38.06946,0 74.38892,0 110.51393,0"
      id="path134"
      fill="#c2b59b"
      stroke-width="14"
    />
    <path
      d="m 291.06954,701.28848 c 33.52778,0 65.75002,0 98.95836,0 0,48.12524 0,93.97152 0,141.50053 -33.06946,0 -65.2778,0 -98.95836,0 0,-47.62509 0,-94.05629 0,-141.50053 z"
      id="path139"
      stroke="#009444"
      stroke-width="14"
    />
    <path
      d="m 291.06954,842.80172 c 33.52778,0 65.75002,0 98.95836,0 0,48.12524 0,93.93196 0,141.47227 -33.06946,0 -65.2778,0 -98.95836,0 0,-47.65193 0,-94.0139 0,-141.47227 z"
      id="path141"
      fill="#ed1c24"
      stroke="#009444"
      stroke-width="14"
    />
    <path
      d="m 389.25013,930.99742 c 37.34723,0 62.7639,0.86185 97.79169,-0.81946 6.41667,-0.29671 17.48612,-10.81978 17.66668,-16.9036 1.49999,-45.61033 1.40277,-91.31956 0.11111,-136.95815 -0.18056,-6.06969 -9.76389,-16.72275 -15.34723,-16.97283 -36.29168,-1.54144 -62.94447,-0.80533 -100.22225,-0.80533 0,58.22303 0,114.13885 0,172.45937 z"
      id="path143"
      fill="#009444"
      stroke-width="14"
    />
    <text
      y="-410.02591"
      x="797.31036"
      id="text145"
      transform="rotate(90)"
      font-size="76"
      font-family="'Droid Sans'">Vin</text>
    <path
      d="m 1368.2089,1773.1919 h -90.6668 c 0,-3.6254 0.014,-107.9589 0,-111.583 1.125,-19.889 22.0972,-39.5279 42.5417,-39.6112 25.7916,-0.1413 48.1528,15.0131 48.1251,35.9717 -0.014,3.8882 0,111.2495 0,115.2225 l 0.014,-11.2917"
      id="path166"
      fill="#009444"
      stroke-width="14"
    />
    <path
      d="m 1646.9312,1773.1919 h -90.6806 c 0,-3.6254 0.042,-107.9589 0,-111.583 1.1389,-19.889 22.125,-39.5279 42.5555,-39.6112 25.764,-0.1413 48.1251,15.0131 48.1251,35.9717 -0.028,3.8882 0,111.2495 0,115.2225 v -11.2917"
      id="path168"
      fill="#009444"
      stroke-width="14"
    />
    <path
      d="m 1925.6257,1773.1919 h -90.639 c 0,-3.6254 0,-107.9589 0,-111.583 1.0973,-19.889 22.0972,-39.5279 42.5278,-39.6112 25.8056,-0.1413 48.1668,15.0131 48.125,35.9717 -0.014,3.8882 -0.014,111.2495 -0.014,115.2225 l 0.042,-11.2917"
      id="path170"
      fill="#009444"
      stroke-width="14"
    />
    <path
      d="m 2207.0841,1773.1919 h -90.6667 c 0,-3.6254 0.028,-107.9589 0,-111.583 1.125,-19.889 22.1111,-39.5279 42.5417,-39.6112 25.7778,-0.1413 48.125,15.0131 48.125,35.9717 -0.028,3.8882 0,111.2495 0,115.2225 v -11.2917"
      id="path172"
      fill="#009444"
      stroke-width="14"
    />
    <path
      d="m 2298.1813,1773.1919 c -16.9028,0 -1086.4031,0.4239 -1103.1531,0.1696 -27.6112,1.2433 -21.0139,-4.5283 -23.1528,22.9309 0.042,24.5133 0,51.9442 0,76.1665 h 1137.1671 v -89.0971 c 0.1666,-9.9311 -2.2778,-10.0145 -10.8612,-10.1671 z"
      id="path174"
      fill="#009444"
      stroke-width="14"
    />
    <rect
      y="1877.1901"
      width="141.69449"
      height="264.09732"
      x="2163.751"
      id="rect176"
      stroke-width="14"
    />
    <circle
      r="19"
      cy="1930.1797"
      cx="2235.5979"
      id="ellipse178"
      fill="#c2b59b"
      stroke-width="14"
    />
    <path
      d="M 2305.4452,2002.7468 V 1894.706 c -16.2361,0 -29.2083,0 -29.3889,20.5968 l 0.1945,73.7505 c -28.4722,0 -54.2361,0 -83.2362,0 l 0.1945,-73.7505 h -0.028 c 0.2223,-20.5968 -13.0277,-20.5968 -29.4167,-20.5968 l 0.1251,0.4662 v 106.8894 0.6782 c 48.1111,0 94.1389,0 141.5555,0 0,-37.9992 0,-74.2916 0,-110.3467"
      id="path180"
      fill="#c2b59b"
      stroke-width="14"
    />
    <rect
      y="1877.1901"
      width="141.6667"
      height="264.09732"
      x="2022.0702"
      id="rect184"
      stroke-width="14"
    />
    <circle
      r="19"
      cy="1930.1797"
      cx="2093.9177"
      id="ellipse186"
      fill="#c2b59b"
      stroke-width="14"
    />
    <path
      d="M 2163.7508,2002.7468 V 1894.706 c -16.2083,0 -29.1945,0 -29.3889,20.5968 l 0.2083,73.7505 c -28.4862,0 -54.2361,0 -83.2362,0 l 0.1945,-73.7505 h -0.028 c 0.2223,-20.5968 -13.0277,-20.5968 -29.4028,-20.5968 l 0.098,0.4662 v 106.8894 0.6782 c 48.1389,0 94.1529,0 141.5557,0 0,-37.9992 0,-74.2916 0,-110.3467"
      id="path188"
      fill="#c2b59b"
      stroke-width="14"
    />
    <rect
      y="1877.1901"
      width="141.6806"
      height="264.09732"
      x="1738.6394"
      id="rect192"
      stroke-width="14"
    />
    <circle
      r="19"
      cy="1930.1797"
      cx="1810.4729"
      id="ellipse194"
      fill="#c2b59b"
      stroke-width="14"
    />
    <path
      d="M 1880.3202,2002.7468 V 1894.706 c -16.2223,0 -29.2224,0 -29.4029,20.5968 l 0.1945,73.7505 c -28.4723,0 -54.2223,0 -83.2223,0 l 0.1944,-73.7505 h -0.028 c 0.2084,-20.5968 -13.0277,-20.5968 -29.4027,-20.5968 l 0.098,0.4662 v 106.8894 0.6782 c 48.139,0 94.1528,0 141.5696,0 0,-37.9992 0,-74.2916 0,-110.3467"
      id="path196"
      fill="#c2b59b"
      stroke-width="14"
    />
    <rect
      y="1877.1901"
      width="141.6806"
      height="264.09732"
      x="1880.3895"
      id="rect200"
      stroke-width="14"
    />
    <circle
      r="19"
      cy="1930.1797"
      cx="1952.2369"
      id="ellipse202"
      fill="#c2b59b"
      stroke-width="14"
    />
    <path
      d="M 2022.0702,2002.7468 V 1894.706 c -16.2223,0 -29.2084,0 -29.4028,20.5968 l 0.2083,73.7505 c -28.4861,0 -54.2361,0 -83.2223,0 l 0.1945,-73.7505 h -0.042 c 0.2083,-20.5968 -13.014,-20.5968 -29.4029,-20.5968 l 0.098,0.4662 v 106.8894 0.6782 c 48.1389,0 94.1527,0 141.5695,0 0,-37.9992 0,-74.2916 0,-110.3467"
      id="path204"
      fill="#c2b59b"
      stroke-width="14"
    />
    <rect
      y="1877.1901"
      width="141.6806"
      height="264.09732"
      x="1596.9587"
      id="rect208"
      stroke-width="14"
    />
    <circle
      r="19"
      cy="1930.1797"
      cx="1668.806"
      id="ellipse210"
      fill="#c2b59b"
      stroke-width="14"
    />
    <path
      d="M 1738.6395,2002.7468 V 1894.706 c -16.2361,0 -29.2223,0 -29.3889,20.5968 l 0.1806,73.7505 c -28.4723,0 -54.2223,0 -83.2223,0 l 0.2084,-73.7505 h -0.028 c 0.2083,-20.5968 -13.0278,-20.5968 -29.4167,-20.5968 l 0.1111,0.4662 v 106.8894 0.6782 c 48.1251,0 94.1389,0 141.5556,0 0,-37.9992 0,-74.2916 0,-110.3467"
      id="path212"
      fill="#c2b59b"
      stroke-width="14"
    />
    <rect
      y="1877.1901"
      width="141.6806"
      height="264.09732"
      x="1455.2783"
      id="rect216"
      stroke-width="14"
    />
    <circle
      r="19"
      cy="1930.1797"
      cx="1527.1255"
      id="ellipse218"
      fill="#c2b59b"
      stroke-width="14"
    />
    <path
      d="M 1596.9589,2002.7468 V 1894.706 c -16.2361,0 -29.2083,0 -29.3889,20.5968 l 0.1944,73.7505 c -28.4722,0 -54.2361,0 -83.2361,0 l 0.1944,-73.7505 h -0.028 c 0.2223,-20.5968 -13.0277,-20.5968 -29.4027,-20.5968 l 0.098,0.4662 v 106.8894 0.6782 c 48.125,0 94.1528,0 141.5695,0 0,-37.9992 0,-74.2916 0,-110.3467"
      id="path220"
      fill="#c2b59b"
      stroke-width="14"
    />
    <rect
      y="1877.1901"
      width="141.69449"
      height="264.09732"
      x="1313.5559"
      id="rect224"
      stroke-width="14"
    />
    <circle
      r="19"
      cy="1930.1797"
      cx="1385.4032"
      id="ellipse226"
      fill="#c2b59b"
      stroke-width="14"
    />
    <path
      d="M 1455.2506,2002.7468 V 1894.706 c -16.2362,0 -29.2224,0 -29.4029,20.5968 l 0.1945,73.7505 c -28.4723,0 -54.2223,0 -83.2222,0 l 0.1943,-73.7505 h -0.028 c 0.2085,-20.5968 -13.0277,-20.5968 -29.4165,-20.5968 l 0.111,0.4662 v 106.8894 0.6782 c 48.125,0 94.1528,0 141.5696,0 0,-37.9992 0,-74.2916 0,-110.3467"
      id="path228"
      fill="#c2b59b"
      stroke-width="14"
    />
    <rect
      y="1877.1901"
      width="141.6806"
      height="264.09732"
      x="1171.8755"
      id="rect232"
      stroke-width="14"
    />
    <circle
      r="19"
      cy="1930.1797"
      cx="1243.7225"
      id="ellipse234"
      fill="#c2b59b"
      stroke-width="14"
    />
    <path
      d="M 1313.556,2002.7468 V 1894.706 c -16.2222,0 -29.2083,0 -29.4027,20.5968 l 0.1944,73.7505 c -28.4722,0 -54.2362,0 -83.2361,0 l 0.1943,-73.7505 h -0.028 c 0.2083,-20.5968 -13.0279,-20.5968 -29.4029,-20.5968 l 0.098,0.4662 v 106.8894 0.6782 c 48.1527,0 94.1805,0 141.5833,0 0,-37.9992 0,-74.2916 0,-110.3467"
      id="path236"
      fill="#c2b59b"
      stroke-width="14"
    />
    <path
      d="m 1175.0838,1867.2892 c 0,-30.1253 0,-59.0976 0,-88.9177 47.1111,0 91.9444,0 138.4722,0 0,29.7226 0,58.654 0,88.9177 -46.625,0 -92.0278,0 -138.4722,0 z"
      id="path241"
      fill="#ed1c24"
      stroke-width="14"
    />
    <path
      d="m 1313.556,1867.2892 c 0,-30.1253 0,-59.0976 0,-88.9177 48.2084,0 94.0973,0 141.7223,0 0,29.7226 0,58.654 0,88.9177 -47.7222,0 -94.1806,0 -141.7223,0 z"
      id="path243"
      stroke-width="14"
    />
    <path
      d="m 1455.2506,1867.2892 c 0,-30.1253 0,-59.0976 0,-88.9177 48.2082,0 94.0833,0 141.7083,0 0,29.7226 0,58.654 0,88.9177 -47.7222,0 -94.1945,0 -141.7083,0 z"
      id="path245"
      fill="#ed1c24"
      stroke-width="14"
    />
    <path
      d="m 1596.9589,1867.2892 c 0,-30.1253 0,-59.0976 0,-88.9177 48.2083,0 94.0694,0 141.6806,0 0,29.7226 0,58.654 0,88.9177 -47.7222,0 -94.1667,0 -141.6806,0 z"
      id="path247"
      stroke-width="14"
    />
    <path
      d="m 1738.6118,1867.2892 c 0,-30.1253 0,-59.0976 0,-88.9177 48.1944,0 94.0971,0 141.7084,0 0,29.7226 0,58.654 0,88.9177 -47.7084,0 -94.1946,0 -141.7084,0 z"
      id="path249"
      fill="#ed1c24"
      stroke-width="14"
    />
    <path
      d="m 1880.3202,1867.2892 c 0,-30.1253 0,-59.0976 0,-88.9177 48.1944,0 94.0693,0 141.6666,0 0,29.7226 0,58.654 0,88.9177 -47.7083,0 -94.1389,0 -141.6666,0 z"
      id="path251"
      stroke-width="14"
    />
    <path
      d="m 2022.0562,1867.2892 c 0,-30.1253 0,-59.0976 0,-88.9177 48.1946,0 94.0973,0 141.7084,0 0,29.7226 0,58.654 0,88.9177 -47.7083,0 -94.1945,0 -141.7084,0 z"
      id="path253"
      fill="#ed1c24"
      stroke-width="14"
    />
    <path
      d="m 2163.7646,1867.2892 c 0,-30.1253 0,-59.0976 0,-88.9177 48.2084,0 94.0695,0 141.6806,0 0,29.7226 0,58.654 0,88.9177 -47.7222,0 -94.1527,0 -141.6806,0 z"
      id="path255"
      stroke-width="14"
    />
    <path
      d="m 2111.3618,548.51041 h 90.6807 c 0,3.62543 -0.028,107.97308 0,111.58297 -1.1251,19.88899 -22.1112,39.52791 -42.5556,39.61127 -25.7778,0.14129 -48.1389,-15.01317 -48.1251,-35.95759 0.014,-3.90376 0,-111.25094 0,-115.23665 l -0.014,11.29167"
      id="path258"
      fill="#009444"
      stroke-width="14"
    />
    <path
      d="m 1832.6673,548.51041 h 90.6667 c 0,3.62543 -0.042,107.97308 0,111.58297 -1.1389,19.88899 -22.1111,39.52791 -42.5416,39.61127 -25.764,0.14129 -48.1251,-15.01317 -48.1251,-35.95759 0.028,-3.90376 0,-111.25094 0,-115.23665 v 11.29167"
      id="path260"
      fill="#009444"
      stroke-width="14"
    />
    <path
      d="m 1551.3478,548.51041 h 90.6528 c 0,3.62543 0,107.97308 0,111.58297 -1.1111,19.88899 -22.125,39.52791 -42.5417,39.61127 -25.7916,0.14129 -48.1528,-15.01317 -48.1251,-35.95759 0.014,-3.90376 0.014,-111.25094 0.014,-115.23665 l -0.028,11.29167"
      id="path262"
      fill="#009444"
      stroke-width="14"
    />
    <path
      d="m 1269.9033,548.51041 h 90.6805 c 0,3.62543 -0.028,107.97308 0,111.58297 -1.1389,19.88899 -22.1111,39.52791 -42.5556,39.61127 -25.7778,0.14129 -48.1249,-15.01317 -48.1249,-35.95759 0.028,-3.90376 0,-111.25094 0,-115.23665 v 11.29167"
      id="path264"
      fill="#009444"
      stroke-width="14"
    />
    <path
      d="m 1178.806,548.51041 c 16.8889,0 1086.3892,-0.43799 1103.167,-0.16954 27.5973,-1.21507 21.0139,4.54238 23.1389,-22.93091 -0.056,-24.51333 0,-51.95836 0,-76.16651 H 1167.9171 v 89.11124 c -0.1389,9.90282 2.3056,10.00031 10.8889,10.1529 z"
      id="path266"
      fill="#009444"
      stroke-width="14"
    />
    <rect
      y="180.41234"
      width="141.6806"
      height="264.11124"
      x="1171.542"
      id="rect268"
      stroke-width="14"
    />
    <circle
      r="19"
      cy="391.52219"
      cx="1241.3754"
      id="ellipse270"
      fill="#c2b59b"
      stroke-width="14"
    />
    <path
      d="m 1171.5421,318.95548 v 108.04089 c 16.2223,0 29.2083,0 29.4028,-20.61097 l -0.1945,-73.7505 c 28.4723,0 54.2362,0 83.2223,0 l -0.1806,73.7505 h 0.028 c -0.2084,20.61097 13.0278,20.61097 29.4167,20.61097 l -0.098,-0.46625 v -106.8894 -0.67818 c -48.1667,0 -94.1807,0 -141.5973,0 0,38.01332 0,74.29163 0,110.3467"
      id="path272"
      fill="#c2b59b"
      stroke-width="14"
    />
    <rect
      y="180.41234"
      width="141.6667"
      height="264.11124"
      x="1313.2227"
      id="rect276"
      stroke-width="14"
    />
    <circle
      r="19"
      cy="391.52219"
      cx="1383.056"
      id="ellipse278"
      fill="#c2b59b"
      stroke-width="14"
    />
    <path
      d="m 1313.2227,318.95548 v 108.04089 c 16.2223,0 29.2083,0 29.4028,-20.61097 l -0.1945,-73.7505 c 28.4723,0 54.2223,0 83.2223,0 l -0.1945,73.7505 h 0.028 c -0.2222,20.61097 13.0278,20.61097 29.4028,20.61097 l -0.098,-0.46625 v -106.8894 -0.67818 c -48.1389,0 -94.1667,0 -141.5695,0 0,38.01332 0,74.29163 0,110.3467"
      id="path280"
      fill="#c2b59b"
      stroke-width="14"
    />
    <rect
      y="180.41234"
      width="141.6667"
      height="264.11124"
      x="1596.6533"
      id="rect284"
      stroke-width="14"
    />
    <circle
      r="19"
      cy="391.52219"
      cx="1666.4867"
      id="ellipse286"
      fill="#c2b59b"
      stroke-width="14"
    />
    <path
      d="m 1596.6533,318.95548 v 108.04089 c 16.2223,0 29.2084,0 29.3889,-20.61097 l -0.1944,-73.7505 c 28.4723,0 54.2222,0 83.2222,0 l -0.1944,73.7505 h 0.028 c -0.2083,20.61097 13.0278,20.61097 29.4028,20.61097 l -0.098,-0.46625 v -106.8894 -0.67818 c -48.1111,0 -94.1251,0 -141.5557,0 0,38.01332 0,74.29163 0,110.3467"
      id="path288"
      fill="#c2b59b"
      stroke-width="14"
    />
    <rect
      y="180.41234"
      width="141.6806"
      height="264.11124"
      x="1454.8894"
      id="rect292"
      stroke-width="14"
    />
    <circle
      r="19"
      cy="391.52219"
      cx="1524.7366"
      id="ellipse294"
      fill="#c2b59b"
      stroke-width="14"
    />
    <path
      d="m 1454.8894,318.95548 v 108.04089 c 16.2362,0 29.2084,0 29.4028,-20.61097 l -0.2084,-73.7505 c 28.4861,0 54.2362,0 83.2362,0 l -0.1945,73.7505 h 0.028 c -0.2222,20.61097 13.0278,20.61097 29.4028,20.61097 l -0.097,-0.46625 v -106.8894 -0.67818 c -48.1111,0 -94.1528,0 -141.5695,0 0,38.01332 0,74.29163 0,110.3467"
      id="path296"
      fill="#c2b59b"
      stroke-width="14"
    />
    <rect
      y="180.41234"
      width="141.6806"
      height="264.11124"
      x="1738.3339"
      id="rect300"
      stroke-width="14"
    />
    <circle
      r="19"
      cy="391.52219"
      cx="1808.1674"
      id="ellipse302"
      fill="#c2b59b"
      stroke-width="14"
    />
    <path
      d="m 1738.3339,318.95548 v 108.04089 c 16.2361,0 29.2223,0 29.4028,-20.61097 l -0.1944,-73.7505 c 28.4722,0 54.2222,0 83.2361,0 l -0.2083,73.7505 h 0.028 c -0.2083,20.61097 13.0279,20.61097 29.4029,20.61097 l -0.098,-0.46625 v -106.8894 -0.67818 c -48.1389,0 -94.1527,0 -141.5695,0 0,38.01332 0,74.29163 0,110.3467"
      id="path304"
      fill="#c2b59b"
      stroke-width="14"
    />
    <rect
      y="180.41234"
      width="141.69449"
      height="264.11124"
      x="1880.0145"
      id="rect308"
      stroke-width="14"
    />
    <circle
      r="19"
      cy="391.52219"
      cx="1949.8618"
      id="ellipse310"
      fill="#c2b59b"
      stroke-width="14"
    />
    <path
      d="m 1880.0145,318.95548 v 108.04089 c 16.2361,0 29.2223,0 29.4028,-20.61097 l -0.1944,-73.7505 c 28.4722,0 54.2361,0 83.2222,0 l -0.2083,73.7505 h 0.028 c -0.1945,20.61097 13.0278,20.61097 29.4305,20.61097 l -0.1249,-0.46625 v -106.8894 -0.67818 c -48.1251,0 -94.1389,0 -141.5557,0 0,38.01332 0,74.29163 0,110.3467"
      id="path312"
      fill="#c2b59b"
      stroke-width="14"
    />
    <rect
      y="180.41234"
      width="141.6806"
      height="264.11124"
      x="2021.7368"
      id="rect316"
      stroke-width="14"
    />
    <circle
      r="19"
      cy="391.52219"
      cx="2091.5564"
      id="ellipse318"
      fill="#c2b59b"
      stroke-width="14"
    />
    <path
      d="m 2021.7368,318.95548 v 108.04089 c 16.2222,0 29.2083,0 29.4028,-20.61097 l -0.2083,-73.7505 c 28.4861,0 54.2361,0 83.2222,0 l -0.1944,73.7505 h 0.028 c -0.2221,20.61097 13.0278,20.61097 29.4167,20.61097 l -0.1111,-0.46625 v -106.8894 -0.67818 c -48.1389,0 -94.1528,0 -141.5556,0 0,38.01332 0,74.29163 0,110.3467"
      id="path320"
      fill="#c2b59b"
      stroke-width="14"
    />
    <rect
      y="180.41234"
      width="141.6806"
      height="264.11124"
      x="2163.4175"
      id="rect324"
      stroke-width="14"
    />
    <circle
      r="19"
      cy="391.52219"
      cx="2233.251"
      id="ellipse326"
      fill="#c2b59b"
      stroke-width="14"
    />
    <path
      d="m 2163.4174,318.95548 v 108.04089 c 16.2222,0 29.1945,0 29.3889,-20.61097 l -0.2083,-73.7505 c 28.4861,0 54.2361,0 83.2361,0 l -0.1944,73.7505 h 0.028 c -0.2222,20.61097 13.0278,20.61097 29.4167,20.61097 l -0.1111,-0.46625 v -106.8894 -0.67818 c -48.1111,0 -94.1528,0 -141.5556,0 0,38.01332 0,74.29163 0,110.3467"
      id="path328"
      fill="#c2b59b"
      stroke-width="14"
    />
    <path
      d="m 2301.8896,454.41315 c 0,30.12525 0,59.08347 0,88.90355 -47.0971,0 -91.9167,0 -138.4722,0 0,-29.70846 0,-58.63984 0,-88.90355 46.6389,0 92.0278,0 138.4722,0 z"
      id="path333"
      fill="#ed1c24"
      stroke-width="14"
    />
    <path
      d="m 2163.4174,454.41315 c 0,30.12525 0,59.08347 0,88.90355 -48.2083,0 -94.0834,0 -141.7083,0 0,-29.70846 0,-58.63984 0,-88.90355 47.7083,0 94.1805,0 141.7083,0 z"
      id="path335"
      stroke-width="14"
    />
    <path
      d="m 2021.7368,454.41315 c 0,30.12525 0,59.08347 0,88.90355 -48.2083,0 -94.1111,0 -141.7223,0 0,-29.70846 0,-58.63984 0,-88.90355 47.7084,0 94.2084,0 141.7223,0 z"
      id="path337"
      fill="#ed1c24"
      stroke-width="14"
    />
    <path
      d="m 1880.0145,454.41315 c 0,30.12525 0,59.08347 0,88.90355 -48.1944,0 -94.0694,0 -141.6806,0 0,-29.70846 0,-58.63984 0,-88.90355 47.7223,0 94.1529,0 141.6806,0 z"
      id="path339"
      stroke-width="14"
    />
    <path
      d="m 1738.3756,454.41315 c 0,30.12525 0,59.08347 0,88.90355 -48.2083,0 -94.1112,0 -141.7083,0 0,-29.70846 0,-58.63984 0,-88.90355 47.6944,0 94.1805,0 141.7083,0 z"
      id="path341"
      fill="#ed1c24"
      stroke-width="14"
    />
    <path
      d="m 1596.6533,454.41315 c 0,30.12525 0,59.08347 0,88.90355 -48.2084,0 -94.0695,0 -141.6806,0 0,-29.70846 0,-58.63984 0,-88.90355 47.7223,0 94.1529,0 141.6806,0 z"
      id="path343"
      stroke-width="14"
    />
    <path
      d="m 1454.9033,454.41315 c 0,30.12525 0,59.08347 0,88.90355 -48.1944,0 -94.0973,0 -141.6945,0 0,-29.70846 0,-58.63984 0,-88.90355 47.7084,0 94.1944,0 141.6945,0 z"
      id="path345"
      fill="#ed1c24"
      stroke-width="14"
    />
    <path
      d="m 1313.2088,454.41315 c 0,30.12525 0,59.08347 0,88.90355 -48.1945,0 -94.0695,0 -141.6806,0 0,-29.70846 0,-58.63984 0,-88.90355 47.7222,0 94.1528,0 141.6806,0 z"
      id="path347"
      stroke-width="14"
    />
    <text
      y="1801.3971"
      x="214.30148"
      id="text349"
      font-size="76.38891602"
      font-family="'Droid Sans'"
      stroke-width="14">COMPRESSOR OUT</text>
    <path
      d="m 1244.3199,774.26049 c 0,61.0841 0,120.20854 0,179.33299 0,135.27822 0.014,270.54232 0,405.82052 0,36.9028 -15.8611,52.3187 -52.625,52.2918 -172.1667,-0.1413 -344.33352,-0.1413 -516.50024,0 -36.58334,0 -52.15279,-16.6252 -51.91669,-52.6111 0.58334,-85.9308 0.3889,-171.89 -0.15277,-257.8335 -0.19444,-30.5562 16.33334,-49.2372 46.83334,-49.3333 61.38892,-0.1695 122.77783,0.1696 184.15284,0 35.06946,-0.1413 43.26391,-8.5139 43.30558,-43.7637 0.11111,-77.40414 0.0416,-154.81963 0.0416,-233.88959 115.63904,0 230.08344,0 346.86134,0 z m -21.7084,478.70921 c -68.4027,0 -134.9445,0 -201.0416,0 0,34.1519 0,66.7638 0,98.9165 67.8611,0 133.9444,0 201.0416,0 0,-33.1671 0,-65.2775 0,-98.9165 z"
      id="path370"
      fill="#009444"
      stroke-width="14"
    />
    <path
      d="m 1222.6115,1253.816 c 0,33.6673 0,65.7649 0,98.9448 -67.0972,0 -133.1667,0 -201.0416,0 0,-32.1527 0,-64.7773 0,-98.9448 66.0971,0 132.6389,0 201.0416,0 z m -18.9027,77.6387 c 0,-20.3468 0,-38.7494 0,-56.7353 -55.8334,0 -110.1806,0 -164.25,0 0,19.7915 0,37.6658 0,56.7353 55.0138,0 108.861,0 164.25,0 z"
      id="path372"
      fill="#ffffff"
      stroke-width="14"
    />
    <path
      d="m 1132.4448,1092.9973 c 0,39.2919 0,77.6669 0,118.3746 -9.3332,0 -18.1805,0 -27,0 -61.3749,0 -122.75004,-0.2543 -184.12506,0.4521 -10.875,0.1413 -14.70833,-1.2857 -14.34723,-13.3898 1.00001,-34.4302 0.36112,-68.917 0.36112,-105.4299 74.31947,0 148.55567,0 225.11117,0 z m -212.95839,7.4712 c 0,34.3752 0,66.9589 0,99.681 67.95835,0 134.54179,0 200.73629,0 0,-34.0418 0,-66.6523 0,-99.681 -67.3056,0 -132.84738,0 -200.73629,0 z"
      id="path374"
      stroke-width="14"
    />
    <path
      d="m 1188.8477,1134.4975 c 0,11.6944 0,21.2214 0,31.9578 -10.9445,0 -20.9723,0 -32.2778,0 0,-10.6248 0,-20.6534 0,-31.9578 10.6806,0 20.6805,0 32.2778,0 z"
      id="path376"
      stroke-width="14"
    />
    <path
      d="m 953.70864,1286.5664 c 10.18056,0 19.70834,0 30.98612,0 0,9.9169 0,19.9582 0,31.7218 -9.15278,0 -19.19445,0 -30.98612,0 0,-9.1385 0,-19.1388 0,-31.7218 z"
      id="path378"
      stroke-width="14"
    />
    <path
      d="m 1218.1115,809.08071 c 0,19.69402 0,37.76324 0,57.02775 -97.875,0 -194.9445,0 -293.62509,0 0,-18.11161 0,-36.66685 0,-57.02775 96.87509,0 194.37509,0 293.62509,0 z m -10.9305,8.29073 c -91.3195,0 -181.2084,0 -272.25014,0 0,13.59748 0,26.47298 0,39.27784 91.62514,0 181.44454,0 272.25014,0 0,-13.8744 0,-26.18051 0,-39.27784 z"
      id="path380"
      stroke-width="14"
    />
    <path
      d="m 1203.7088,1331.4547 c -55.389,0 -109.2362,0 -164.25,0 0,-19.0695 0,-36.9438 0,-56.7353 54.0694,0 108.4166,0 164.25,0 0,17.9859 0,36.3885 0,56.7353 z m -153.9167,-9.3461 c 49.1944,0 95.875,0 142.5694,0 0,-13.7642 0,-26.028 0,-38.6944 -47.9583,0 -94.6388,0 -142.5694,0 0,6.2774 0,11.0967 0,15.916 0,7.0008 0,13.9719 0,22.7784 z"
      id="path382"
      stroke-width="14"
    />
    <path
      d="m 919.48641,1100.4685 c 67.88891,0 133.43069,0 200.73629,0 0,33.0146 0,65.6392 0,99.681 -66.1945,0 -132.77794,0 -200.73629,0 0,-32.708 0,-65.3058 0,-99.681 z m 180.51399,21.5703 c -54.5695,0 -106.86119,0 -159.18066,0 0,19.9865 0,38.4853 0,56.902 53.86113,0 106.18066,0 159.18066,0 0,-19.4439 0,-37.4439 0,-56.902 z"
      id="path384"
      fill="#ffffff"
      stroke-width="14"
    />
    <path
      d="m 1207.181,817.37144 c 0,13.09733 0,25.40344 0,39.27784 -90.7917,0 -180.625,0 -272.25014,0 0,-12.80486 0,-25.66623 0,-39.27784 91.05564,0 180.93064,0 272.25014,0 z m -152.0973,3.47284 c 0,11.76357 0,22.37424 0,33.20814 11.4445,0 21.4167,0 31.2084,0 0,-12.20862 0,-22.76419 0,-33.20814 -11.2917,0 -20.7639,0 -31.2084,0 z m -102.47228,33.33247 c 11.98612,0 21.95834,0 32.18056,0 0,-12.08288 0,-22.69354 0,-32.69385 -11.66667,0 -21.65278,0 -32.18056,0 0,11.33406 0,20.91616 0,32.69385 z m 235.97238,0.50864 c 0,-12.56891 0,-22.68083 0,-33.72243 -11.1667,0 -21.125,0 -31.7084,0 0,11.90345 0,22.54237 0,33.72243 11.0556,0 20.5695,0 31.7084,0 z"
      id="path386"
      fill="#ffffff"
      stroke-width="14"
    />
    <path
      d="m 1049.7921,1322.1086 c 0,-8.8065 0,-15.7917 0,-22.7784 0,-4.8334 0,-9.6386 0,-15.916 47.9306,0 94.6249,0 142.5694,0 0,12.6664 0,24.9302 0,38.6944 -46.6944,0 -93.375,0 -142.5694,0 z m 138.9583,-35.4038 c -12.1944,0 -22.1528,0 -32.1667,0 0,11.7918 0,21.8614 0,32.7928 11.2223,0 21.1806,0 32.1667,0 0,-11.3892 0,-21.4729 0,-32.7928 z m -133.5278,-0.4238 c 0,11.8751 0,22.4731 0,32.8619 11.5417,0 21.5139,0 31.6806,0 0,-11.7777 0,-21.8472 0,-32.8619 -11.1667,0 -21.1389,0 -31.6806,0 z"
      id="path388"
      fill="#ffffff"
      stroke-width="14"
    />
    <path
      d="m 1100.0004,1122.0388 c 0,19.4581 0,37.4581 0,56.902 -53,0 -105.31953,0 -159.18066,0 0,-18.4167 0,-36.9028 0,-56.902 52.31947,0 104.61116,0 159.18066,0 z m -9.5556,9.1936 c -48.1805,0 -94.22226,0 -140.01394,0 0,13.8758 0,26.0703 0,38.4457 47.38891,0 93.38894,0 140.01394,0 0,-13.3333 0,-25.0559 0,-38.4457 z"
      id="path390"
      stroke-width="14"
    />
    <path
      d="m 1055.0837,820.84428 c 10.4306,0 19.9167,0 31.2084,0 0,10.44395 0,20.99952 0,33.20814 -9.7917,0 -19.7639,0 -31.2084,0 0,-10.8339 0,-21.44457 0,-33.20814 z"
      id="path392"
      stroke-width="14"
    />
    <path
      d="m 952.61142,854.17675 c 0,-11.77769 0,-21.35979 0,-32.69385 10.52778,0 20.51389,0 32.18056,0 0,10.00031 0,20.61097 0,32.69385 -10.22222,0 -20.19444,0 -32.18056,0 z"
      id="path394"
      stroke-width="14"
    />
    <path
      d="m 1188.5838,854.69104 c -11.1389,0 -20.6528,0 -31.7084,0 0,-11.18005 0,-21.80485 0,-33.72242 10.5834,0 20.5417,0 31.7084,0 0,11.04159 0,21.15351 0,33.72242 z"
      id="path396"
      stroke-width="14"
    />
    <path
      d="m 1188.7504,1286.7048 c 0,11.3058 0,21.4036 0,32.7928 -10.9861,0 -20.9444,0 -32.1667,0 0,-10.9314 0,-21.0151 0,-32.7928 10.0279,0 19.9723,0 32.1667,0 z"
      id="path398"
      stroke-width="14"
    />
    <path
      d="m 1055.2226,1286.288 c 10.5555,0 20.5139,0 31.6806,0 0,11.0148 0,21.0984 0,32.862 -10.1667,0 -20.1528,0 -31.6806,0 0,-10.3888 0,-20.9727 0,-32.862 z"
      id="path400"
      stroke-width="14"
    />
    <path
      d="m 1090.4448,1131.2324 c 0,13.3898 0,25.1251 0,38.4457 -46.625,0 -92.62503,0 -140.01394,0 0,-12.3754 0,-24.584 0,-38.4457 45.79168,0 91.81954,0 140.01394,0 z m -137.47227,2.7085 c 0,12.7921 0,22.8758 0,33.0697 11.77778,0 21.81945,0 32.27778,0 0,-11.7085 0,-21.8473 0,-33.0697 -11.20833,0 -21.26389,0 -32.27778,0 z m 135.01397,0.2119 c -12.3333,0 -22.375,0 -32.5555,0 0,12.0829 0,22.6808 0,32.6105 11.9028,0 21.9444,0 32.5555,0 0,-11.4301 0,-21.0419 0,-32.6105 z"
      id="path402"
      fill="#ffffff"
      stroke-width="14"
    />
    <path
      d="m 952.97253,1133.9409 c 11.01389,0 21.06945,0 32.27778,0 0,11.2224 0,21.3612 0,33.0697 -10.45833,0 -20.51389,0 -32.27778,0 0,-10.1939 0,-20.2776 0,-33.0697 z"
      id="path404"
      stroke-width="14"
    />
    <path
      d="m 1087.9865,1134.15 c 0,11.5686 0,21.1803 0,32.6105 -10.6111,0 -20.6527,0 -32.5555,0 0,-9.9297 0,-20.5418 0,-32.6105 10.1805,0 20.2222,0 32.5555,0 z"
      id="path406"
      stroke-width="14"
    />
    <text
      y="1028.5649"
      x="984.0188"
      id="text408"
      font-size="91"
      font-family="'Droid Sans'">VSOL</text>
    <text
      y="1170.4553"
      x="685.44012"
      id="text428"
      font-size="91"
      font-family="'Droid Sans'">12V</text>
    <text
      y="1320.3676"
      x="685.44012"
      id="text448"
      font-size="91"
      font-family="'Droid Sans'">24V</text>
    <text
      y="1754.3136"
      x="1285.3105"
      id="text468"
      font-size="134"
      font-family="'Droid Sans'">0</text>
    <path
      d="m 1602.8478,1189.3028 c 86.7361,0.014 173.4445,0.014 260.2084,0.014 38.7223,0 51.1806,16.1661 50,64.8889 -0.75,32.3195 -17.7222,46.93 -51.0695,46.7774 -105.7639,-0.4521 -211.5417,-0.5793 -317.3195,-0.014 -36.0417,0.2119 -42.5,7.6111 -43.9306,43.2776 -0.4305,11.847 1.2917,24.1107 -1.2778,35.4589 -4.9444,22.0408 -20.2638,33.2491 -42.6111,33.389 -40.1944,0.2543 -80.375,0.2967 -120.5694,0 -27.6945,-0.2402 -44.5973,-19.8339 -44.0834,-47.6943 0.8056,-42.2223 1.0417,-84.5011 0.1945,-126.7233 -0.625,-31.1666 15.0555,-49.2909 46.0138,-49.3192 88.139,-0.1412 176.2918,0 264.4446,0 z m -206.3195,122.3053 c 0,-0.1413 0,-0.1413 0,-0.1978 -11.2917,0 -22.5694,0 -33.8473,0 -51.7222,0 -51.7222,0 -50.5972,51.3197 0.5139,23.5286 6.3056,29.3482 30.5834,29.5559 28.2083,0.2402 56.4305,0.1413 84.6388,0.1413 55.0973,0 56.9029,-2.125 53.764,-57.2086 -0.9306,-16.7072 -8.6806,-24.0273 -25.3056,-23.6515 -19.7083,0.4663 -39.4722,0.1413 -59.2361,0.1413 z"
      id="path489"
      fill="#009444"
      stroke-width="14"
    />
    <path
      d="m 1601.8894,1149.1363 c -88.2222,0 -176.4028,0 -264.6111,0 -28.6251,0 -45.5278,-19.4453 -44.9306,-48.7638 0.8611,-42.2506 0.8473,-84.5844 -0.028,-126.83351 -0.625,-30.15351 15.0139,-47.47249 45.4306,-47.45836 39.5139,0 79.0417,0 118.5556,0 29.1806,0 45.7361,17.22149 44.6944,46.26307 -2.1666,59.9595 2.3889,64.653 62.9168,64.653 99.5139,0 199.0417,0 298.5556,0 39.3889,0 51.6111,15.5698 50.5973,64.3619 -0.7084,33.5826 -17.0557,47.3044 -52.8751,47.1108 -86.0833,-0.4803 -172.1945,-0.1695 -258.3195,-0.1695 0.014,0.2684 0.014,0.5228 0.014,0.7912 z m -207.6389,-121.473 c 0,0.1413 0,0.1554 0,0.2402 11.2639,0 22.5278,0 33.7916,0 52.0001,0 52.9862,-1.7492 53.3057,-52.62526 0.1527,-21.08288 -9.0001,-29.59684 -28.6111,-29.74943 -29.5556,-0.22606 -59.139,-0.35322 -88.7085,-0.36735 -52.0971,0 -52.8749,1.35636 -52.236,52.90216 0.2499,19.68128 9.1249,28.80558 27.5416,29.47248 18.2917,0.6499 36.6112,0.1413 54.9167,0.1413 z"
      id="path491"
      fill="#009444"
      stroke-width="14"
    />
    <path
      d="m 1396.5283,1311.6081 c 19.7639,0 39.5278,0.3532 59.25,-0.1413 16.625,-0.3815 24.375,6.9443 25.3056,23.6529 3.1388,55.0822 1.3333,57.2072 -53.7639,57.2072 -28.2084,0 -56.4307,0.1695 -84.639,-0.1413 -24.2916,-0.2119 -30.0694,-6.0273 -30.5833,-29.5559 -1.125,-51.3183 -1.125,-51.3183 50.5973,-51.3183 11.2777,0 22.5694,0 33.8471,0 -0.014,0.1413 -0.014,0.1413 -0.014,0.1978 z"
      id="path493"
      fill="#58595b"
      stroke-width="14"
    />
    <path
      d="m 1394.2505,1027.6633 c -18.3055,0 -36.6389,0.5086 -54.9167,-0.1554 -18.4167,-0.6641 -27.2917,-9.7912 -27.5416,-29.47254 -0.6251,-51.52743 0.1389,-52.95867 52.236,-52.90216 29.5695,0 59.1529,0.15542 88.7085,0.36735 19.5972,0.15542 28.7499,8.68069 28.6111,29.75084 -0.3056,50.87471 -1.3056,52.62381 -53.3057,52.62381 -11.2638,0 -22.5277,0 -33.7916,0 0,-0.1413 0,-0.1554 0,-0.226 z"
      id="path495"
      fill="#58595b"
      stroke-width="14"
    />
    <text
      y="1132.0164"
      x="1431.2434"
      id="text497"
      font-size="91"
      font-family="'Droid Sans'">STATUS</text>
    <text
      y="1281.9287"
      x="1456.6564"
      id="text517"
      font-size="91"
      font-family="'Droid Sans'">COMP</text>
    <text
      y="2649.7341"
      x="-1900.3246"
      id="text538"
      transform="rotate(-90)"
      font-size="111"
      font-family="'Droid Sans'"
      fill="#00a651">Pneumatics Control Module</text>
    <text
      y="1892.3989"
      x="219.3459"
      id="text558"
      font-size="76"
      font-family="'Droid Sans'"
      fill="#ffffff">PRESSURE SW</text>
    <text
      y="1755.6222"
      x="1566.5345"
      id="text578"
      font-size="134"
      font-family="'Droid Sans'">1</text>
    <text
      y="1755.6222"
      x="1845.8583"
      id="text598"
      font-size="134"
      font-family="'Droid Sans'">2</text>
    <text
      y="1754.3136"
      x="2130.1079"
      id="text618"
      font-size="134"
      font-family="'Droid Sans'">3</text>
    <text
      y="-565.69012"
      x="-2192.3425"
      id="text638"
      transform="scale(-1)"
      font-size="134"
      font-family="'Droid Sans'">4</text>
    <text
      y="-566.21356"
      x="-1910.1519"
      id="text658"
      transform="scale(-1)"
      font-size="134"
      font-family="'Droid Sans'">5</text>
    <text
      y="-564.83954"
      x="-1630.2103"
      id="text678"
      transform="scale(-1)"
      font-size="134"
      font-family="'Droid Sans'">6</text>
    <text
      y="-566.19574"
      x="-1348.7369"
      id="text698"
      transform="scale(-0.99996841,-1.0000316)"
      font-size="133.99577332"
      font-family="'Droid Sans'"
      stroke-width="0.99996841">7</text>
    <rect
      y="1980.0614"
      x="1220.9518"
      height="45.283035"
      width="45.283035"
      id="connector0pin"
      fill="none"
      stroke="none"
      stroke-width="0"
    />
    <rect
      id="connector1pin"
      width="45.283035"
      height="45.283035"
      x="1362.6185"
      y="1980.0614"
      fill="none"
      stroke="none"
      stroke-width="0"
    />
    <rect
      y="1980.0614"
      x="1503.2435"
      height="45.283035"
      width="45.281265"
      id="connector2pin"
      fill="none"
      stroke="none"
      stroke-width="0"
    />
    <rect
      id="connector3pin"
      width="45.283035"
      height="45.283035"
      x="1645.9519"
      y="1980.0614"
      fill="none"
      stroke="none"
      stroke-width="0"
    />
    <rect
      y="1980.0614"
      x="1786.5769"
      height="45.283035"
      width="45.281265"
      id="connector4pin"
      fill="none"
      stroke="none"
      stroke-width="0"
    />
    <rect
      id="connector5pin"
      width="45.283035"
      height="45.283035"
      x="1927.202"
      y="1980.0614"
      fill="none"
      stroke="none"
      stroke-width="0"
    />
    <rect
      y="1980.0614"
      x="2071.9939"
      height="45.283035"
      width="45.281265"
      id="connector6pin"
      fill="none"
      stroke="none"
      stroke-width="0"
    />
    <rect
      id="connector7pin"
      width="45.283035"
      height="45.283035"
      x="2212.6189"
      y="1980.0614"
      fill="none"
      stroke="none"
      stroke-width="0"
    />
    <rect
      y="296.3317"
      x="2212.6189"
      height="45.283035"
      width="45.281261"
      id="connector8pin"
      fill="none"
      stroke="none"
      stroke-width="0"
    />
    <rect
      id="connector9pin"
      width="45.283035"
      height="45.283035"
      x="2069.9104"
      y="296.3317"
      fill="none"
      stroke="none"
      stroke-width="0"
    />
    <rect
      y="296.3317"
      x="1927.202"
      height="45.283035"
      width="45.281265"
      id="connector10pin"
      fill="none"
      stroke="none"
      stroke-width="0"
    />
    <rect
      id="connector11pin"
      width="45.283035"
      height="45.283035"
      x="1787.6187"
      y="296.3317"
      fill="none"
      stroke="none"
      stroke-width="0"
    />
    <rect
      y="296.3317"
      x="1644.9067"
      height="45.283035"
      width="45.283035"
      id="connector12pin"
      fill="none"
      stroke="none"
      stroke-width="0"
    />
    <rect
      id="connector13pin"
      width="45.281265"
      height="45.283035"
      x="1503.2435"
      y="296.3317"
      fill="none"
      stroke="none"
      stroke-width="0"
    />
    <rect
      y="296.3317"
      x="1361.5768"
      height="45.283035"
      width="45.283035"
      id="connector14pin"
      fill="none"
      stroke="none"
      stroke-width="0"
    />
    <rect
      id="connector15pin"
      width="45.281265"
      height="45.283035"
      x="1220.9518"
      y="296.3317"
      fill="none"
      stroke="none"
      stroke-width="0"
    />
    <rect
      id="connector16pin"
      width="45.283035"
      height="45.283035"
      x="141.6667"
      y="890.48468"
      fill="none"
      stroke="none"
      stroke-width="0"
    />
    <rect
      y="749.85962"
      x="141.6667"
      height="45.283035"
      width="45.283035"
      id="connector17pin"
      fill="none"
      stroke="none"
      stroke-width="0"
    />
    <rect
      id="connector18pin"
      width="45.283035"
      height="45.283035"
      x="503.24319"
      y="211.43585"
      fill="none"
      stroke="none"
      stroke-width="0"
    />
    <rect
      y="211.43585"
      x="644.90991"
      height="45.283035"
      width="45.281265"
      id="connector19pin"
      fill="none"
      stroke="none"
      stroke-width="0"
    />
    <rect
      id="connector20pin"
      width="45.283035"
      height="45.283035"
      x="788.65997"
      y="211.43585"
      fill="none"
      stroke="none"
      stroke-width="0"
    />
    <rect
      y="211.43585"
      x="928.24335"
      height="45.283035"
      width="45.283035"
      id="connector21pin"
      fill="none"
      stroke="none"
      stroke-width="0"
    />
    <rect
      y="2078.6238"
      x="527.20154"
      height="45.283035"
      width="45.283035"
      id="connector22pin"
      fill="none"
      stroke="none"
      stroke-width="0"
    />
    <rect
      id="connector23pin"
      width="45.283035"
      height="45.283035"
      x="668.86829"
      y="2078.6238"
      fill="none"
      stroke="none"
      stroke-width="0"
    />
    <rect
      y="2078.6238"
      x="810.53497"
      height="45.283035"
      width="45.283035"
      id="connector24pin"
      fill="none"
      stroke="none"
      stroke-width="0"
    />
    <rect
      id="connector25pin"
      width="45.281265"
      height="45.283035"
      x="952.20178"
      y="2078.6238"
      fill="none"
      stroke="none"
      stroke-width="0"
    />
  </g>
</svg>
