<?xml version='1.0' encoding='UTF-8'?>
<!DOCTYPE svg>
<!-- Creator: CorelDRAW X6 -->
<svg xmlns="http://www.w3.org/2000/svg" viewBox="0 0 1500 801"  xmlns:xml="http://www.w3.org/XML/1998/namespace" clip-rule="evenodd" shape-rendering="geometricPrecision" version="1.1" image-rendering="optimizeQuality" text-rendering="geometricPrecision" width="1.5in" height="0.801in" fill-rule="evenodd" xml:space="preserve">
    <desc >
        <referenceFile >photon_DIP_24_700mil_breadboard.svg</referenceFile>
    </desc>
    <g  id="SPARKCORE" gorn="0.1">
        <metadata  id="CorelCorpID_0Corel-Layer"/>
        <g  id="PCB" gorn="0.1.1">
            <path  fill="#404040" d="M1417 0l0 794 -2 6 -154 0 0 0c0,-5 -6,-9 -13,-9 -7,0 -13,4 -13,9l0 0 -74 0 0 0c0,-5 -6,-9 -13,-9 -7,0 -13,4 -13,9l0 0 -74 0 0 0c0,-5 -6,-9 -13,-9 -7,0 -13,4 -13,9l0 0 -74 0 0 0c0,-5 -6,-9 -13,-9 -7,0 -13,4 -13,9l0 0 -74 0 0 0c0,-5 -6,-9 -13,-9 -7,0 -13,4 -13,9l0 0 -74 0 0 0c0,-5 -6,-9 -13,-9 -7,0 -13,4 -13,9l0 0 -74 0 0 0c0,-5 -6,-9 -13,-9 -7,0 -13,4 -13,9l0 0 -74 0 0 0c0,-5 -6,-9 -13,-9 -7,0 -13,4 -13,9l0 0 -74 0 0 0c0,-5 -6,-9 -13,-9 -7,0 -13,4 -13,9l0 0 -74 0 0 0c0,-5 -6,-9 -13,-9 -7,0 -13,4 -13,9l0 0 -74 0 0 0c0,-5 -6,-9 -13,-9 -7,0 -13,4 -13,9l0 0 -74 0c0,-5 -6,-9 -13,-9 -7,0 -13,4 -13,9l-38 0 -121 -59 0 -680 121 -61 38 0c0,7 6,12 13,12 7,0 13,-5 13,-12l74 0c0,7 6,12 13,12 7,0 13,-5 13,-12l74 0c0,7 6,12 13,12 7,0 13,-5 13,-12l74 0c0,7 6,12 13,12 7,0 13,-5 13,-12l74 0c0,7 6,12 13,12 7,0 13,-5 13,-12l74 0c0,7 6,12 13,12 7,0 13,-5 13,-12l74 0c0,7 6,12 13,12 7,0 13,-5 13,-12l74 0c0,7 6,12 13,12 7,0 13,-5 13,-12l74 0c0,7 6,12 13,12 7,0 13,-5 13,-12l74 0c0,7 6,12 13,12 7,0 13,-5 13,-12l74 0c0,7 6,12 13,12 7,0 13,-5 13,-12l74 0c0,7 6,12 13,12 7,0 13,-5 13,-12l156 0z"/>
            <path  fill="#666666" d="M135 800l-38 0 -121 -59 0 -7 121 60 42 0c-2,1 -4,4 -4,6zm1282 -6l-2 6 -154 0 0 0 0 0 0 0 0 0 0 0 0 0 0 0 0 0 0 0 0 0 0 -1 0 0 0 0 0 0 0 0 0 0 0 0 0 0 0 0 -1 0 0 0 0 -1 0 0 0 0 0 0 0 0 0 0 0 0 0 0 0 0 0 0 0 0 0 0 0 0 0 -1 0 0 0 0 0 0 0 0 0 0 0 0 0 0 0 0 0 0 0 0 0 0 0 0 0 -1 0 0 0 0 -1 0 0 0 0 0 0 0 0 0 0 0 0 0 0 0 0 0 0 0 0 0 0 -1 0 0 0 0 0 0 0 0 0 0 0 0 -1 0 0 0 0 0 0 0 0 0 0 0 0 0 0 0 0 0 0 -1 0 0 0 0 0 0 0 0 0 0 -1 0 0 0 0 0 0 0 0 0 0 0 0 0 0 0 0 0 160 0zm-182 6l-74 0 0 0 0 0 0 0 0 0 0 0 0 0 0 0 0 0 0 0 0 0 0 -1 0 0 0 0 0 0 0 0 0 0 0 0 0 0 0 0 -1 0 0 0 0 0 0 -1 0 0 0 0 0 0 0 0 0 0 0 0 0 0 0 0 0 0 0 0 0 0 0 0 0 -1 0 0 0 0 0 0 0 0 0 0 0 0 0 0 0 0 0 0 0 0 0 0 0 0 0 0 0 -1 0 0 0 0 -1 0 0 0 0 0 0 0 0 0 0 0 0 0 0 0 0 0 0 0 0 0 0 -1 0 0 0 0 0 0 0 0 0 0 0 0 -1 0 0 0 0 0 0 0 0 0 0 0 0 0 0 0 0 0 0 -1 0 0 0 0 0 0 0 0 0 0 -1 0 0 0 0 0 0 0 0 0 0 0 0 0 0 0 0 0 82 0 0 0 0 0 0 0 -1 0 0 0 0 0 0 1 0 0 0 0 0 0 -1 0 0 0 0 0 0 0 0 0 0 1 0 0 0 0 0 0 0 0 0 0 0 0 0 0 0 0 -1 1 0 0 0 0 0 0 0 0 0 0 0 0 0 1 0 0 0 0 0 0 0 0 0 0 0 0 0 0 0 0 0 0 0 0 0 0 0 0 0 1 0 0 0 0 0 0 0 0 0 0 0 0 0 0 0 0 -1 0 0 0 0 1 0 0 0 0 0 0 0 0 0 0 0 0 0 0 0 0 0 0 0 0zm-100 0l-74 0 0 0 0 0 0 0 0 0 0 0 0 0 0 0 0 0 0 0 0 0 0 -1 0 0 0 0 0 0 0 0 0 0 0 0 0 0 0 0 -1 0 0 0 0 0 0 -1 0 0 0 0 0 0 0 0 0 0 0 0 0 0 0 0 0 0 0 0 0 0 0 0 0 0 0 -1 0 0 0 0 0 0 0 0 0 0 0 0 0 0 0 0 0 0 0 0 0 0 0 -1 -1 0 0 0 0 0 0 0 0 0 0 0 0 0 0 0 0 0 0 0 0 0 0 0 0 0 0 -1 0 0 0 0 0 0 0 0 0 0 0 0 -1 0 0 0 0 0 0 0 0 0 0 0 0 0 0 -1 0 0 0 0 0 0 0 0 0 0 -1 0 0 0 0 0 0 0 0 0 0 0 0 0 82 0 0 0 0 0 0 0 0 0 0 0 0 0 0 0 0 0 0 0 0 0 -1 0 0 0 0 0 0 0 0 1 0 0 0 0 0 0 0 0 0 0 0 0 0 0 0 0 0 0 0 0 -1 0 0 0 0 0 0 0 0 0 0 1 0 0 0 0 0 0 0 0 0 0 0 0 0 0 0 0 0 0 0 0 0 0 0 0 0 0 -1 1 0 0 0 0 0 0 0 0 0 0 0 0 0 0 0 0 0 0 0 0 0 0 0 0 0 0 0 1 0 0 0 0 0 0 0 0 0 0 0 0 0 0 0 0 0 0 0 0 0 0 0 0 0 1 0 0 0 0 0 0 0 0 0 0 0 0 0 0 0 0 -1 0 0 0 0 0 0 1 0 0 0 0 0 0 0 0 0 0 0 0 0 0 0 0 0 0 0 0zm-100 0l-74 0 0 0 0 0 0 0 0 0 0 0 0 0 0 0 0 0 0 0 0 0 0 -1 0 0 0 0 0 0 0 0 0 0 0 0 0 0 0 0 -1 0 0 0 0 0 0 -1 0 0 0 0 0 0 0 0 0 0 0 0 0 0 0 0 0 0 0 0 0 0 0 0 0 0 0 -1 0 0 0 0 0 0 0 0 0 0 0 0 0 0 0 0 0 0 0 0 0 0 0 0 0 -1 -1 0 0 0 0 0 0 0 0 0 0 0 0 0 0 0 0 0 0 0 0 0 0 0 0 0 0 -1 0 0 0 0 0 0 0 0 0 0 0 0 -1 0 0 0 0 0 0 0 0 0 0 0 0 0 0 0 0 0 0 0 0 -1 0 0 0 0 0 0 0 0 0 0 -1 0 0 0 0 0 0 0 0 0 0 0 0 0 0 0 0 0 82 0 0 0 0 0 0 0 0 0 0 0 0 0 0 0 0 0 -1 0 0 0 0 0 0 0 0 1 0 0 0 0 0 0 0 0 0 0 0 0 0 0 0 0 -1 0 0 0 0 0 0 0 0 0 0 1 0 0 0 0 0 0 0 0 0 0 0 0 0 0 0 0 0 0 0 0 0 0 0 0 0 0 -1 1 0 0 0 0 0 0 0 0 0 0 0 0 0 0 0 0 0 0 0 0 0 0 0 1 0 0 0 0 0 0 0 0 0 0 0 0 0 0 0 0 0 0 0 0 0 0 0 0 0 0 0 1 0 0 0 0 0 0 0 0 0 0 0 0 0 0 0 0 -1 0 0 0 0 0 0 1 0 0 0 0 0 0 0 0 0 0 0 0 0 0 0 0 0 0 0 0zm-100 0l-74 0 0 0 0 0 0 0 0 0 0 0 0 0 0 0 0 0 0 0 0 0 0 -1 0 0 0 0 0 0 0 0 0 0 0 0 0 0 0 0 -1 0 0 0 0 0 0 -1 0 0 0 0 0 0 0 0 0 0 0 0 0 0 0 0 0 0 0 0 0 0 0 0 0 0 0 -1 0 0 0 0 0 0 0 0 0 0 0 0 0 0 0 0 0 0 0 0 0 0 0 -1 0 0 -1 0 0 0 0 0 0 0 0 0 0 0 0 0 0 0 0 0 0 0 0 0 0 0 0 0 0 -1 0 0 0 0 0 0 0 0 0 0 0 0 -1 0 0 0 0 0 0 0 0 0 0 0 0 0 0 0 0 0 0 0 0 -1 0 0 0 0 0 0 0 0 0 0 -1 0 0 0 0 0 0 0 0 0 0 0 0 0 0 0 0 0 82 0 0 0 0 0 0 0 0 0 0 0 0 0 0 0 0 0 0 0 -1 0 0 0 0 0 0 0 0 0 0 1 0 0 0 0 0 0 0 0 0 0 0 0 0 0 0 0 0 0 0 0 0 0 -1 0 0 0 0 0 0 0 0 0 0 1 0 0 0 0 0 0 0 0 0 0 0 0 0 0 0 0 0 0 0 0 0 0 0 0 0 0 -1 1 0 0 0 0 0 0 0 0 0 0 0 0 0 0 0 0 0 0 0 0 0 0 0 0 0 1 0 0 0 0 0 0 0 0 0 0 0 0 0 0 0 0 0 0 0 0 0 0 0 0 0 0 0 1 0 0 0 0 0 0 0 0 0 0 0 0 0 0 0 0 -1 0 0 0 0 0 0 1 0 0 0 0 0 0 0 0 0 0 0 0 0 0 0 0 0 0 0 0zm-100 0l-74 0 0 0 0 0 0 0 0 0 0 0 0 0 0 0 0 0 0 0 0 0 0 -1 0 0 0 0 0 0 0 0 0 0 0 0 0 0 0 0 -1 0 0 0 0 0 0 -1 0 0 0 0 0 0 0 0 0 0 0 0 0 0 0 0 0 0 0 0 0 0 0 0 0 0 0 -1 0 0 0 0 0 0 0 0 0 0 0 0 0 0 0 0 0 0 0 0 0 0 0 -1 0 0 -1 0 0 0 0 0 0 0 0 0 0 0 0 0 0 0 0 0 0 0 0 0 0 0 0 0 0 -1 0 0 0 0 0 0 0 0 0 0 0 0 -1 0 0 0 0 0 0 0 0 0 0 0 0 0 0 0 0 0 0 -1 0 0 0 0 0 0 0 0 0 0 -1 0 0 0 0 0 0 0 0 0 0 0 0 0 0 0 0 0 0 0 82 0 0 0 0 0 0 0 0 0 0 0 0 0 0 0 0 0 0 0 -1 0 0 0 0 0 0 0 0 0 0 1 0 0 0 0 0 0 0 0 0 0 0 0 0 0 0 0 0 0 0 0 -1 0 0 0 0 0 0 0 0 0 0 1 0 0 0 0 0 0 0 0 0 0 0 0 0 0 0 0 0 0 0 0 0 0 0 0 0 0 0 0 -1 1 0 0 0 0 0 0 0 0 0 0 0 0 0 0 0 0 0 0 0 0 0 0 0 1 0 0 0 0 0 0 0 0 0 0 0 0 0 0 0 0 0 0 0 0 0 0 0 0 0 0 0 1 0 0 0 0 0 0 0 0 0 0 0 0 0 0 0 0 -1 0 0 0 0 0 0 1 0 0 0 0 0 0 0 0 0 0 0 0 0 0 0 0 0 0 0 0zm-100 0l-74 0 0 0 0 0 0 0 0 0 0 0 0 0 0 0 0 0 0 0 0 0 0 -1 0 0 0 0 0 0 0 0 0 0 0 0 0 0 0 0 -1 0 0 0 0 0 0 -1 0 0 0 0 0 0 0 0 0 0 0 0 0 0 0 0 0 0 0 0 0 0 0 0 0 0 0 -1 0 0 0 0 0 0 0 0 0 0 0 0 0 0 0 0 0 0 0 0 0 0 0 0 0 -1 0 0 -1 0 0 0 0 0 0 0 0 0 0 0 0 0 0 0 0 0 0 0 0 0 0 0 0 0 0 -1 0 0 0 0 0 0 0 0 0 0 0 0 -1 0 0 0 0 0 0 0 0 0 0 0 0 0 0 0 0 -1 0 0 0 0 0 0 0 0 -1 0 0 0 0 0 0 0 0 0 0 0 0 0 0 0 0 0 0 0 0 0 82 0 0 0 0 0 0 0 0 0 0 0 -1 0 0 0 0 0 0 0 0 1 0 0 0 0 0 0 0 0 0 0 0 0 0 0 -1 0 0 0 0 0 0 0 0 0 0 1 0 0 0 0 0 0 0 0 0 0 0 0 0 0 0 0 0 0 0 0 -1 1 0 0 0 0 0 0 0 0 0 0 0 0 0 0 0 0 0 0 0 0 0 0 0 1 0 0 0 0 0 0 0 0 0 0 0 0 0 0 0 0 0 0 0 0 0 0 0 0 0 0 0 1 0 0 0 0 0 0 0 0 0 0 0 0 0 0 -1 0 0 0 0 0 0 0 0 1 0 0 0 0 0 0 0 0 0 0 0 0 0 0 0 0 0 0 0 0zm-100 0l-74 0 0 0 0 0 0 0 0 0 0 0 0 0 0 0 0 0 0 0 0 0 0 -1 0 0 0 0 0 0 0 0 0 0 0 0 0 0 0 0 -1 0 0 0 0 0 0 -1 0 0 0 0 0 0 0 0 0 0 0 0 0 0 0 0 0 0 0 0 0 0 0 0 0 0 0 -1 0 0 0 0 0 0 0 0 0 0 0 0 0 0 0 0 0 0 0 0 0 0 0 -1 0 0 -1 0 0 0 0 0 0 0 0 0 0 0 0 0 0 0 0 0 0 0 0 0 0 0 0 0 0 -1 0 0 0 0 0 0 0 0 0 0 -1 0 0 0 0 0 0 0 0 0 0 0 0 0 0 0 0 0 0 0 0 0 0 -1 0 0 0 0 0 0 0 0 -1 0 0 0 0 0 0 0 0 0 0 0 0 0 0 0 0 0 0 0 0 0 0 0 82 0 0 0 0 0 0 0 0 0 0 0 0 0 0 0 0 0 0 0 0 0 -1 0 0 0 0 0 0 0 0 0 0 1 0 0 0 0 0 0 0 0 0 0 0 0 0 0 0 0 0 0 -1 0 0 0 0 0 0 0 0 0 0 1 0 0 0 0 0 0 0 0 0 0 0 0 0 0 0 0 0 0 0 0 0 0 0 0 0 0 0 0 -1 1 0 0 0 0 0 0 0 0 0 0 0 0 0 0 0 0 0 0 0 0 0 0 0 0 0 1 0 0 0 0 0 0 0 0 0 0 0 0 0 0 0 0 0 0 0 0 0 0 0 0 0 0 0 1 0 0 0 0 0 0 0 0 0 0 0 0 0 0 -1 0 0 0 0 0 0 0 0 1 0 0 0 0 0 0 0 0 0 0 0 0 0 0 0 0 0 0 0 0zm-100 0l-74 0 0 0 0 0 0 0 0 0 0 0 0 0 0 0 0 0 0 0 0 0 0 -1 0 0 0 0 0 0 0 0 0 0 0 0 0 0 -1 0 0 0 0 0 0 0 0 -1 0 0 0 0 0 0 0 0 0 0 0 0 0 0 0 0 0 0 0 0 0 0 0 0 0 0 0 -1 0 0 0 0 0 0 0 0 0 0 0 0 0 0 0 0 0 0 0 0 0 0 0 0 0 -1 0 0 -1 0 0 0 0 0 0 0 0 0 0 0 0 0 0 0 0 0 0 0 0 0 0 0 0 0 0 -1 0 0 0 0 0 0 0 0 0 0 -1 0 0 0 0 0 0 0 0 0 0 0 0 0 0 0 0 0 0 0 0 0 0 -1 0 0 0 0 0 0 0 0 -1 0 0 0 0 0 0 0 0 0 0 0 0 0 0 0 0 0 0 0 0 0 82 0 0 0 0 0 0 0 0 0 0 0 0 0 0 0 -1 0 0 0 0 0 0 0 0 0 0 1 0 0 0 0 0 0 0 0 0 0 0 0 0 0 0 0 0 0 -1 0 0 0 0 0 0 0 0 0 0 1 0 0 0 0 0 0 0 0 0 0 0 0 0 0 0 0 0 0 0 0 0 0 0 0 0 0 0 0 -1 1 0 0 0 0 0 0 0 0 0 0 0 0 0 0 0 0 0 0 0 0 0 0 0 1 0 0 0 0 0 0 0 0 0 0 0 0 0 0 0 0 0 0 0 0 0 0 0 0 0 0 0 1 0 0 0 0 0 0 0 0 0 0 0 0 0 0 -1 0 0 0 0 0 0 0 0 1 0 0 0 0 0 0 0 0 0 0 0 0 0 0 0 0 0 0 0 0zm-100 0l-74 0 0 0 0 0 0 0 0 0 0 0 0 0 0 0 0 0 0 0 0 0 0 -1 0 0 0 0 0 0 0 0 0 0 0 0 0 0 -1 0 0 0 0 0 0 0 0 -1 0 0 0 0 0 0 0 0 0 0 0 0 0 0 0 0 0 0 0 0 0 0 0 0 0 0 0 -1 0 0 0 0 0 0 0 0 0 0 0 0 0 0 0 0 0 0 0 0 0 0 0 0 0 -1 0 0 -1 0 0 0 0 0 0 0 0 0 0 0 0 0 0 0 0 0 0 0 0 0 0 0 0 0 0 -1 0 0 0 0 0 0 0 0 0 0 -1 0 0 0 0 0 0 0 0 0 0 0 0 0 0 0 0 0 0 0 0 0 0 -1 0 0 0 0 0 0 -1 0 0 0 0 0 0 0 0 0 0 0 0 0 0 0 0 0 0 0 0 0 0 0 82 0 0 0 0 0 0 0 0 0 0 0 0 0 0 0 0 0 0 0 0 0 -1 0 0 0 0 0 0 0 0 0 0 1 0 0 0 0 0 0 0 0 0 0 0 0 0 0 0 0 0 0 0 0 0 0 -1 0 0 0 0 0 0 0 0 0 0 1 0 0 0 0 0 0 0 0 0 0 0 0 0 0 0 0 0 0 0 0 0 0 0 0 0 0 0 0 -1 1 0 0 0 0 0 0 0 0 0 0 0 0 0 0 0 0 0 0 0 0 0 0 0 0 0 1 0 0 0 0 0 0 0 0 0 0 0 0 0 0 0 0 0 0 0 0 0 0 0 0 0 0 0 1 0 0 0 0 0 0 0 0 0 0 0 0 0 0 -1 0 0 0 0 0 0 0 0 1 0 0 0 0 0 0 0 0 0 0 0 0 0 0 0 0 0 0 0 0zm-100 0l-74 0 0 0 0 0 0 0 0 0 0 0 0 0 0 0 0 0 0 0 0 0 0 -1 0 0 0 0 0 0 0 0 0 0 0 0 -1 0 0 0 0 0 0 0 0 0 0 -1 0 0 0 0 0 0 0 0 0 0 0 0 0 0 0 0 0 0 0 0 0 0 0 0 0 0 0 -1 0 0 0 0 0 0 0 0 0 0 0 0 0 0 0 0 0 0 0 0 0 0 0 0 0 -1 0 0 -1 0 0 0 0 0 0 0 0 0 0 0 0 0 0 0 0 0 0 0 0 0 0 0 0 0 0 -1 0 0 0 0 0 0 0 0 0 0 -1 0 0 0 0 0 0 0 0 0 0 0 0 0 0 0 0 0 0 0 0 0 0 -1 0 0 0 0 0 0 0 0 -1 0 0 0 0 0 0 0 0 0 0 0 0 0 0 0 0 0 0 0 0 0 82 0 0 0 0 0 0 0 0 0 0 0 0 0 -1 0 0 0 0 0 0 0 0 0 0 1 0 0 0 0 0 0 0 0 0 0 0 0 0 0 0 0 0 0 0 0 -1 0 0 0 0 0 0 0 0 0 0 1 0 0 0 0 0 0 0 0 0 0 0 0 0 0 0 0 0 0 0 0 0 0 0 0 0 0 0 0 -1 1 0 0 0 0 0 0 0 0 0 0 0 0 0 0 0 0 0 0 0 0 0 0 0 0 0 1 0 0 0 0 0 0 0 0 0 0 0 0 0 0 0 0 0 0 0 0 0 0 0 0 0 0 0 1 0 0 0 0 0 0 0 0 0 0 0 0 -1 0 0 0 0 0 0 0 0 0 0 1 0 0 0 0 0 0 0 0 0 0 0 0 0 0 0 0 0 0 0 0zm-100 0l-74 0 0 0 0 0 0 0 0 0 0 0 0 0 0 0 0 0 0 0 0 -1 0 0 0 0 0 0 0 0 0 0 0 0 -1 0 0 0 0 0 0 0 0 0 0 -1 0 0 0 0 0 0 0 0 0 0 0 0 0 0 0 0 0 0 0 0 0 0 0 0 0 0 0 -1 0 0 0 0 0 0 0 0 0 0 0 0 0 0 0 0 0 0 0 0 0 0 0 -1 0 0 -1 0 0 0 0 0 0 0 0 0 0 0 0 0 0 0 0 0 0 0 0 0 0 0 0 0 0 -1 0 0 0 0 0 0 0 0 0 0 -1 0 0 0 0 0 0 0 0 0 0 0 0 0 0 0 0 0 0 0 0 0 0 -1 0 0 0 0 0 0 -1 0 0 0 0 0 0 0 0 0 0 0 0 0 0 0 0 0 0 0 0 0 0 0 82 0 0 0 0 0 0 0 0 0 0 0 0 0 0 0 0 0 0 0 0 0 -1 0 0 0 0 0 0 0 0 0 0 1 0 0 0 0 0 0 0 0 0 0 0 0 0 0 0 0 0 0 0 0 0 0 -1 0 0 0 0 0 0 0 0 0 0 1 0 0 0 0 0 0 0 0 0 0 0 0 0 0 0 0 0 0 0 0 0 0 0 0 0 0 0 0 -1 1 0 0 0 0 0 0 0 0 0 0 0 0 0 0 0 0 0 0 0 0 0 0 0 0 0 1 0 0 0 0 0 0 0 0 0 0 0 0 0 0 0 0 0 0 0 0 0 0 0 0 0 0 0 1 0 0 0 0 0 0 0 0 0 0 0 0 -1 0 0 0 0 0 0 0 0 0 0 1 0 0 0 0 0 0 0 0 0 0 0 0 0 0 0 0 0 0 0 0z"/>
            <polygon  fill="#8C8C8C" points="97,800 -24,741 -24,734 97,794 "/>
            <path  fill="#00A0E3" d="M809 794l22 0c2,-8 10,-14 18,-14 9,0 16,6 19,14l18 0 0 -215c-5,-41 -73,-39 -77,0l0 215z"/>
        </g>
        <g  id="MISC_x0020_COMPS" gorn="0.1.2">
            <polygon  fill="#666666" points="219,214 219,253 180,253 180,214 "/>
            <polygon  fill="#666666" points="238,398 238,461 208,461 208,398 "/>
            <polygon  fill="#666666" points="1386,60 1386,202 1300,202 1300,60 "/>
            <polygon  fill="#666666" points="269,329 269,372 247,372 247,329 "/>
            <polygon  fill="#666666" points="1277,150 1277,213 1246,213 1246,150 "/>
            <polygon  fill="#666666" points="1101,496 1165,496 1165,526 1101,526 "/>
            <polygon  fill="#666666" points="1094,437 1137,437 1137,459 1094,459 "/>
            <polygon  fill="#666666" points="815,453 857,453 857,475 815,475 "/>
            <polygon  fill="#666666" points="815,359 858,359 858,381 815,381 "/>
            <polygon  fill="#666666" points="815,307 857,307 857,329 815,329 "/>
            <polygon  fill="#666666" points="815,269 857,269 857,291 815,291 "/>
            <polygon  fill="#666666" points="815,157 857,157 857,179 815,179 "/>
            <polygon  fill="#666666" points="821,402 884,402 884,432 821,432 "/>
            <polygon  fill="#666666" points="816,499 879,499 879,529 816,529 "/>
            <polygon  fill="#666666" points="1226,145 1226,188 1204,188 1204,145 "/>
            <polygon  fill="#666666" points="1078,610 1078,653 1056,653 1056,610 "/>
            <polygon  fill="#666666" points="1158,610 1158,653 1136,653 1136,610 "/>
            <polygon  fill="#666666" points="1198,610 1198,653 1177,653 1177,610 "/>
            <polygon  fill="#666666" points="269,329 269,372 247,372 247,329 "/>
            <polygon  fill="#666666" points="172,294 172,337 150,337 150,294 "/>
            <polygon  fill="#666666" points="231,313 231,356 209,356 209,313 "/>
            <polygon  fill="#666666" points="90,289 133,289 133,310 90,310 "/>
            <polygon  fill="#666666" points="23,288 65,288 65,310 23,310 "/>
            <polygon  fill="#666666" points="237,139 237,182 215,182 215,139 "/>
            <polygon  fill="#666666" points="180,155 180,179 165,179 165,155 "/>
            <polygon  fill="#666666" points="129,248 153,248 153,262 129,262 "/>
            <polygon  fill="#666666" points="245,228 269,228 269,242 245,242 "/>
            <polygon  fill="#666666" points="216,528 258,528 258,550 216,550 "/>
            <polygon  fill="#666666" points="217,644 259,644 259,666 217,666 "/>
            <polygon  fill="#666666" points="192,601 256,601 256,631 192,631 "/>
            <polygon  fill="#666666" points="1171,314 1171,411 1158,411 1149,421 1098,421 1088,411 1076,411 1076,314 1089,314 1098,305 1149,305 1157,314 "/>
            <polygon  fill="#666666" points="749,646 791,646 791,668 749,668 "/>
        </g>
        <g  id="UFL" gorn="0.1.3">
            <polygon  fill="#CCCCCC" points="93,134 28,134 28,99 93,99 "/>
            <polygon  fill="#E5E5E5" points="30,134 28,134 28,99 30,99 "/>
            <polygon  fill="#CCCCCC" points="92,216 27,216 27,181 92,181 "/>
            <polygon  fill="#E5E5E5" points="30,216 27,216 27,181 30,181 "/>
            <polygon  fill="#CCCCCC" points="116,170 93,170 93,145 116,145 "/>
            <path  fill="#E5E5E5" stroke-width="3" stroke="#8C8C8C" d="M107 117l0 80c0,4 -3,7 -8,7l-78 0c-4,0 -8,-3 -8,-7l0 -80c0,-4 4,-7 8,-7l78 0c5,0 8,3 8,7z"/>
            <path  fill="#E5E5E5" stroke-width="3" stroke="#8C8C8C" d="M87 157c0,15 -12,28 -27,28 -15,0 -28,-13 -28,-28 0,-15 13,-27 28,-27 15,0 27,12 27,27z"/>
            <path  fill="#CC9933" d="M67 157c0,4 -3,7 -7,7 -4,0 -7,-3 -7,-7 0,-4 3,-7 7,-7 4,0 7,3 7,7z"/>
        </g>
        <g  id="ANT" gorn="0.1.4">
            <polygon  fill="#CCCCCC" points="96,388 96,704 16,704 16,388 "/>
            <polygon  fill="#999999" points="96,388 96,406 16,406 16,388 "/>
            <polygon  fill="#999999" points="96,684 96,704 16,704 16,684 "/>
            <polygon  fill="#CC9933" points="96,435 96,476 16,476 16,435 "/>
        </g>
        <g  id="USB_x0020_MICRO" gorn="0.1.5">
            <g  id="PINS" gorn="0.1.5.0">
                <polygon  fill="#666666" points="1233,443 1216,443 1216,457 1233,457 "/>
                <polygon  fill="#999999" points="1231,455 1216,455 1216,457 1231,457 "/>
                <polygon  fill="#666666" points="1233,418 1216,418 1216,431 1233,431 "/>
                <polygon  fill="#999999" points="1231,430 1216,430 1216,431 1231,431 "/>
                <polygon  fill="#666666" points="1233,392 1216,392 1216,406 1233,406 "/>
                <polygon  fill="#999999" points="1231,405 1216,405 1216,406 1231,406 "/>
                <polygon  fill="#666666" points="1233,367 1216,367 1216,380 1233,380 "/>
                <polygon  fill="#999999" points="1231,379 1216,379 1216,380 1231,380 "/>
                <polygon  fill="#666666" points="1233,341 1216,341 1216,355 1233,355 "/>
                <polygon  fill="#999999" points="1231,354 1216,354 1216,355 1231,355 "/>
            </g>
            <polygon  fill="#B3B3B3" points="1464,269 1464,529 1229,529 1229,269 "/>
            <polygon  fill="#CCCCCC" points="1231,269 1229,269 1229,529 1231,529 "/>
            <polygon  fill="#333333" points="1445,328 1229,328 1229,470 1445,470 "/>
            <polygon  fill="#B3B3B3" points="1459,532 1465,532 1480,541 1480,546 "/>
            <polygon  fill="#CCCCCC" points="1465,532 1465,532 1473,532 1480,541 "/>
            <polygon  fill="#B3B3B3" points="1480,252 1480,257 1465,266 1459,266 "/>
            <polygon  fill="#CCCCCC" points="1480,257 1473,266 1465,266 1465,266 "/>
            <path  fill="#CCCCCC" d="M1237 532l-8 -3 0 -35c0,0 2,32 4,33 3,1 4,-2 4,-2l0 7z"/>
            <path  fill="#CCCCCC" d="M1237 266l-8 3 0 35c0,0 2,-32 4,-33 3,-1 4,2 4,2l0 -7z"/>
            <path  fill="#E6E6E6" d="M1229 313l23 0 0 22 -23 0 0 6 8 0 0 116 -8 0 0 7 23 0 0 22 -23 0 0 46 235 0 0 -266 -235 0 0 47zm191 151l12 0 0 22 -12 0c-4,6 -11,10 -18,10 -9,0 -16,-3 -19,-10l0 0 -62 0 0 -22 62 0c3,-7 10,-11 19,-11 8,0 15,4 18,11zm0 -150l12 0 0 22 -12 0c-4,6 -11,9 -18,9 -9,0 -16,-2 -19,-9l0 0 -62 0 0 -22 62 0c3,-7 10,-12 19,-12 8,0 15,5 18,12z"/>
            <polygon  fill="#F2F2F2" points="1464,526 1464,532 1237,532 1237,511 "/>
            <polygon  fill="#999999" points="1464,266 1313,274 1237,282 1237,266 "/>
            <polygon  fill="#CCCCCC" points="1323,464 1321,464 1321,486 1323,486 "/>
            <polygon  fill="#CCCCCC" points="1323,314 1321,314 1321,336 1323,336 "/>
            <polygon  fill="#B3B3B3" points="1461,279 1452,279 1452,519 1461,519 "/>
            <polygon  fill="#CCCCCC" points="1464,279 1460,279 1460,519 1464,519 "/>
        </g>
        <g  id="SPARK_x0020_LOGO" gorn="0.1.6">
            <polygon  fill="#CC9933" points="1307,724 1337,706 1365,724 1347,695 1365,667 1337,685 1309,667 1327,695 "/>
            <polygon  fill="#CC9933" points="1318,700 1321,695 1318,691 1297,695 "/>
            <polygon  fill="#CC9933" points="1337,679 1333,677 1337,656 1342,677 1337,679 "/>
            <polygon  fill="#CC9933" points="1332,714 1337,711 1342,714 1337,735 "/>
            <polygon  fill="#CC9933" points="1356,700 1377,695 1356,691 1353,695 "/>
            <polygon  fill="#E6AB00" points="1307,724 1337,706 1365,724 1365,724 1337,705 "/>
            <polygon  fill="#E6AB00" points="1318,700 1321,695 1318,699 1297,695 "/>
            <polygon  fill="#E6AB00" points="1333,677 1337,678 1342,677 1337,679 "/>
            <polygon  fill="#E6AB00" points="1332,714 1337,732 1342,714 1337,735 "/>
            <polygon  fill="#E6AB00" points="1356,700 1377,695 1356,699 1353,695 "/>
            <polygon  fill="#E6AB00" points="1347,695 1365,667 1346,695 "/>
            <polygon  fill="#E6AB00" points="1328,695 1309,667 1327,695 "/>
        </g>
        <g  id="BLUE_x0020_LED" gorn="0.1.7">
            <polygon  fill="#CCCCCC" points="865,583 865,646 830,646 830,583 "/>
            <polygon  fill="#E5E5E5" points="862,595 862,634 834,634 834,595 "/>
            <polygon  fill="#1B5BB3" points="853,607 853,622 842,622 842,607 "/>
        </g>
        <g  id="BUTTON" gorn="0.1.8">
            <polygon  fill="#CCCCCC" points="1019,179 997,179 997,144 1019,144 "/>
            <polygon  fill="#E5E5E5" points="999,179 997,179 997,144 999,144 "/>
            <polygon  fill="#CCCCCC" points="958,179 936,179 936,144 958,144 "/>
            <polygon  fill="#E5E5E5" points="938,179 936,179 936,144 938,144 "/>
            <polygon  fill="#CCCCCC" points="958,306 936,306 936,271 958,271 "/>
            <polygon  fill="#E5E5E5" points="938,306 936,306 936,271 938,271 "/>
            <polygon  fill="#CCCCCC" points="1019,306 997,306 997,271 1019,271 "/>
            <polygon  fill="#E5E5E5" points="999,306 997,306 997,271 999,271 "/>
            <polygon  fill="#999999" points="1036,296 918,296 918,155 1036,155 "/>
            <polygon  fill="#B2B2B2" points="918,296 918,293 1036,293 1036,296 "/>
            <polygon  fill="#8C8C8C" points="918,158 918,155 1036,155 1036,158 "/>
            <path  fill="black" d="M1011 225c0,20 -15,35 -34,35 -19,0 -35,-15 -35,-35 0,-19 16,-34 35,-34 19,0 34,15 34,34z"/>
            <g >
                <path  fill="#404040" d="M1008 224c0,17 -14,31 -31,31 -18,0 -32,-14 -32,-31 0,-18 14,-32 32,-32 17,0 31,14 31,32z"/>
                <path  fill="#999999" d="M1008 224c0,17 -14,31 -31,31 -18,0 -32,-14 -32,-31 6,40 58,40 63,0z"/>
            </g>
        </g>
        <g  id="TEXT" gorn="0.1.9">
            <path  fill="#00A0E3" d="M1051 174c-1,0 -3,-1 -4,-1 -1,-1 -2,-1 -2,-2 -1,-1 -2,-2 -2,-4 -1,-1 -1,-2 -1,-4 0,-2 0,-3 1,-5 0,-1 0,-2 1,-3l4 0c-1,0 -1,1 -1,2 0,0 -1,1 -1,2 0,0 0,1 0,2 0,0 0,1 0,2 0,2 0,4 1,5 1,1 2,2 4,2 1,0 1,0 2,-1 0,0 1,0 1,-1 1,0 1,-1 2,-2 0,-1 1,-2 1,-3 1,-2 1,-3 2,-4 1,-1 1,-1 2,-2 1,-1 2,-1 3,-1 1,-1 2,-1 3,-1 1,0 2,1 3,1 1,0 2,1 3,2 0,1 1,2 1,3 1,1 1,2 1,4 0,2 0,3 -1,4 0,2 0,3 -1,4l-3 -1c0,-1 1,-2 1,-4 0,-1 0,-2 0,-3 0,-2 0,-3 -1,-4 -1,-1 -2,-2 -3,-2 -1,0 -2,0 -2,1 -1,0 -2,0 -2,1 0,0 -1,1 -1,2 -1,1 -1,2 -2,3 0,1 -1,2 -1,3 -1,1 -2,2 -2,3 -1,0 -2,1 -3,1 -1,0 -2,1 -3,1zm-8 22l0 -16 31 0 0 16 -3 0 0 -12 -10 0 0 12 -4 0 0 -12 -11 0 0 12 -3 0zm0 17l0 -4 28 0 0 -9 3 0 0 22 -3 0 0 -9 -28 0zm31 36l-20 0c-2,0 -3,0 -5,0 -1,-1 -2,-2 -3,-3 -1,-1 -2,-2 -3,-3 0,-2 -1,-3 -1,-5 0,-2 1,-4 1,-5 1,-2 1,-3 2,-4 1,-1 3,-2 4,-2 2,-1 3,-1 5,-1l20 0 0 4 -20 0c-3,0 -5,1 -6,2 -2,1 -2,3 -2,6 0,1 0,2 0,3 1,1 1,2 2,2 1,1 2,1 3,2 1,0 2,0 3,0l20 0 0 4zm-9 28c-1,0 -2,-1 -4,-1 -1,0 -2,-1 -3,-2 -1,-1 -2,-2 -2,-4 -1,-1 -1,-3 -1,-5l0 -3 -12 0 0 -4 31 0 0 7c0,2 0,4 0,5 -1,2 -1,3 -2,4 -1,1 -2,1 -3,2 -1,0 -2,1 -4,1zm-7 -15l0 2c0,2 1,3 1,4 0,1 0,2 1,2 0,1 1,1 2,2 1,0 2,0 3,0 2,0 3,0 4,-1 1,-2 2,-3 2,-6l0 -3 -13 0z" fill-rule="nonzero"/>
            <path  fill="#00A0E3" d="M1055 474l-13 0 0 -4 32 0 0 8c0,4 -1,7 -2,9 -2,1 -4,2 -7,2 -1,0 -2,0 -3,0 -1,-1 -2,-1 -3,-2 0,0 -1,-1 -1,-2 -1,0 -1,-1 -1,-2l-15 9 0 -5 13 -8 0 -5zm4 0l0 4c0,1 0,2 0,3 0,1 1,2 1,2 1,1 1,1 2,2 1,0 2,0 3,0 1,0 2,0 2,0 1,-1 2,-1 2,-2 1,0 1,-1 1,-2 0,-1 0,-2 0,-3l0 -4 -11 0zm-17 39l0 -17 32 0 0 17 -4 0 0 -13 -9 0 0 12 -4 0 0 -12 -11 0 0 13 -4 0zm9 23c-2,0 -3,0 -4,0 -1,-1 -2,-2 -3,-3 0,-1 -1,-2 -1,-3 -1,-1 -1,-3 -1,-4 0,-2 0,-4 0,-5 1,-1 1,-2 1,-3l4 0c0,0 0,1 0,1 -1,1 -1,2 -1,2 0,1 0,2 0,2 -1,1 -1,2 -1,3 0,2 1,4 2,5 1,1 2,1 3,1 1,0 2,0 2,0 1,0 2,-1 2,-1 1,-1 1,-1 1,-2 1,-1 1,-2 2,-4 0,-1 1,-2 2,-3 0,-1 1,-2 2,-2 0,-1 1,-1 2,-2 1,0 2,0 3,0 2,0 3,0 4,1 1,0 2,1 2,2 1,1 1,1 2,3 0,1 0,2 0,3 0,2 0,4 0,5 0,1 -1,3 -1,4l-4 -2c1,-1 1,-2 1,-3 1,-1 1,-2 1,-3 0,-2 -1,-4 -1,-5 -1,0 -2,-1 -4,-1 -1,0 -1,0 -2,0 0,1 -1,1 -1,1 -1,1 -1,2 -2,2 0,1 -1,2 -1,3 -1,2 -1,3 -2,4 0,1 -1,2 -2,2 0,1 -1,1 -2,2 -1,0 -2,0 -3,0zm-9 23l0 -16 32 0 0 16 -4 0 0 -12 -9 0 0 11 -4 0 0 -11 -11 0 0 12 -4 0zm0 16l0 -4 28 0 0 -9 4 0 0 22 -4 0 0 -9 -28 0z" fill-rule="nonzero"/>
            <path  fill="#00A0E3" d="M1232 681c0,2 0,3 -1,4 0,1 0,1 -1,2 -1,1 -2,1 -3,2 0,0 -1,1 -3,1l0 0c3,0 5,1 7,3 1,1 2,3 2,5 0,2 0,3 -1,4 0,2 -1,3 -2,4 -1,1 -2,1 -4,2 -2,0 -4,1 -6,1 -1,0 -3,-1 -5,-1 -1,0 -3,-1 -4,-1l0 -4c1,0 3,1 5,1 1,1 3,1 4,1 2,0 3,0 4,-1 1,0 2,0 3,-1 0,-1 1,-1 1,-2 0,-1 1,-2 1,-3 0,-1 -1,-2 -1,-3 0,0 -1,-1 -2,-2 -1,0 -2,0 -3,-1 -1,0 -2,0 -3,0l-4 0 0 -4 4 0c1,0 2,0 3,0 1,0 2,-1 2,-1 1,-1 2,-2 2,-3 0,0 1,-1 1,-2 0,-1 -1,-2 -1,-2 0,-1 -1,-2 -1,-2 -1,-1 -1,-1 -2,-1 -1,0 -2,0 -2,0 -2,0 -4,0 -5,0 -1,1 -2,2 -4,2l-2 -3c1,0 1,-1 2,-1 1,0 2,-1 3,-1 0,0 1,-1 2,-1 1,0 2,0 4,0 1,0 3,0 4,1 1,0 2,1 3,1 1,1 2,2 2,3 1,1 1,2 1,3zm27 -8l5 0 -12 35 -5 0 -11 -35 5 0 7 22c0,2 0,3 1,5 0,1 0,2 1,3 0,-1 0,-2 1,-3 0,-2 0,-3 1,-5l7 -22zm27 8c0,2 0,3 0,4 -1,1 -1,1 -2,2 0,1 -1,1 -2,2 -1,0 -2,1 -3,1l0 0c3,0 5,1 6,3 2,1 2,3 2,5 0,2 0,3 0,4 -1,2 -2,3 -3,4 -1,1 -2,1 -4,2 -1,0 -3,1 -5,1 -2,0 -4,-1 -5,-1 -2,0 -3,-1 -5,-1l0 -4c2,0 3,1 5,1 2,1 3,1 5,1 1,0 2,0 3,-1 1,0 2,0 3,-1 1,-1 1,-1 1,-2 1,-1 1,-2 1,-3 0,-1 0,-2 -1,-3 0,0 -1,-1 -1,-2 -1,0 -2,0 -3,-1 -1,0 -3,0 -4,0l-3 0 0 -4 3 0c1,0 2,0 3,0 1,0 2,-1 3,-1 1,-1 1,-2 1,-3 1,0 1,-1 1,-2 0,-1 0,-2 -1,-2 0,-1 0,-2 -1,-2 0,-1 -1,-1 -2,-1 0,0 -1,0 -2,0 -2,0 -3,0 -5,0 -1,1 -2,2 -3,2l-2 -3c0,0 1,-1 2,-1 0,0 1,-1 2,-1 1,0 2,-1 3,-1 1,0 2,0 3,0 2,0 3,0 4,1 2,0 3,1 4,1 1,1 1,2 2,3 0,1 0,2 0,3z" fill-rule="nonzero"/>
            <path  fill="#00A0E3" d="M1129 694l0 14 -5 0 0 -34 9 0c4,0 7,0 9,2 2,2 3,4 3,8 0,1 0,2 0,3 -1,1 -1,2 -2,3 -1,1 -1,1 -2,2 -1,0 -2,1 -3,1l10 15 -5 0 -9 -14 -5 0zm0 -4l4 0c1,0 2,0 3,0 1,0 2,-1 3,-1 0,-1 1,-2 1,-2 0,-1 0,-2 0,-3 0,-1 0,-2 0,-3 0,-1 -1,-2 -1,-2 -1,-1 -2,-1 -3,-1 -1,0 -2,-1 -3,-1l-4 0 0 13zm42 9c0,2 0,3 -1,4 0,1 -1,2 -2,3 -1,1 -2,2 -4,2 -1,1 -3,1 -5,1 -1,0 -3,0 -4,-1 -2,0 -3,0 -4,-1l0 -4c0,0 1,1 2,1 0,0 1,0 2,0 0,1 1,1 2,1 1,0 2,0 2,0 3,0 5,0 6,-1 1,-1 2,-3 2,-4 0,-1 0,-2 0,-3 -1,0 -1,-1 -2,-1 0,-1 -1,-1 -2,-2 -1,0 -2,-1 -4,-2 -1,0 -2,-1 -3,-1 -1,-1 -2,-2 -3,-3 -1,0 -1,-1 -1,-2 -1,-1 -1,-3 -1,-4 0,-1 0,-3 1,-4 0,-1 1,-2 2,-2 1,-1 2,-2 3,-2 2,-1 3,-1 5,-1 1,0 3,0 5,1 1,0 3,1 4,1l-2 4c-1,-1 -2,-1 -3,-1 -2,-1 -3,-1 -4,-1 -2,0 -4,1 -5,1 -1,1 -1,3 -1,4 0,1 0,2 0,2 0,1 1,2 1,2 1,1 1,1 2,2 1,0 2,1 4,1 1,1 2,1 3,2 1,0 2,1 3,2 1,1 1,2 2,3 0,1 0,2 0,3zm17 9l-4 0 0 -30 -10 0 0 -4 24 0 0 4 -10 0 0 30z" fill-rule="nonzero"/>
            <path  fill="#00A0E3" d="M1022 674l5 0 -12 35 -4 0 -12 -35 5 0 7 22c1,1 1,3 1,4 1,1 1,3 1,4 0,-1 1,-3 1,-4 0,-1 1,-3 1,-4l7 -22zm10 0l9 0c2,0 4,0 6,0 1,1 2,1 3,2 1,1 2,2 3,3 0,1 1,2 1,4 0,1 -1,2 -1,3 0,0 -1,1 -1,2 -1,0 -2,1 -2,1 -1,1 -2,1 -3,1l0 1c1,0 2,0 3,0 1,1 2,1 2,2 1,0 2,1 2,2 0,1 1,2 1,4 0,1 -1,3 -1,4 -1,1 -2,2 -2,3 -1,1 -3,1 -4,2 -1,0 -3,1 -5,1l-11 0 0 -35zm4 15l6 0c1,0 2,0 3,-1 1,0 2,0 3,-1 0,0 1,-1 1,-2 0,0 0,-1 0,-2 0,-2 0,-3 -2,-4 -1,-1 -3,-1 -6,-1l-5 0 0 11zm0 3l0 13 6 0c2,0 3,0 4,-1 1,0 2,0 2,-1 1,0 1,-1 1,-2 1,-1 1,-2 1,-3 0,0 0,-1 -1,-2 0,-1 0,-1 -1,-2 0,0 -1,-1 -2,-1 -1,0 -2,-1 -4,-1l-6 0zm46 17l-4 -11 -13 0 -3 11 -5 0 13 -35 4 0 13 35 -5 0zm-5 -15l-3 -10c-1,0 -1,-1 -1,-1 0,-1 0,-1 0,-1 0,-1 -1,-1 -1,-2 0,0 0,-1 0,-1 0,0 0,1 0,1 -1,1 -1,1 -1,2 0,0 0,1 0,1 0,0 -1,1 -1,1l-3 10 10 0zm25 15l-5 0 0 -31 -10 0 0 -4 24 0 0 4 -9 0 0 31z" fill-rule="nonzero"/>
            <path  fill="#00A0E3" d="M907 690l12 0 0 17c-1,0 -2,0 -3,1 -1,0 -2,0 -3,0 0,0 -1,0 -2,1 -2,0 -3,0 -4,0 -2,0 -4,-1 -6,-2 -2,0 -4,-2 -5,-3 -2,-2 -3,-4 -3,-6 -1,-2 -1,-4 -1,-7 0,-3 0,-5 1,-8 1,-2 2,-4 3,-5 2,-2 3,-3 5,-4 3,-1 5,-1 8,-1 1,0 3,0 5,0 1,1 3,1 4,2l-1 4c-1,0 -2,-1 -2,-1 -1,0 -2,0 -2,-1 -1,0 -2,0 -2,0 -1,0 -2,0 -3,0 -2,0 -3,0 -5,1 -1,0 -3,1 -4,3 -1,1 -1,2 -2,4 0,2 -1,4 -1,6 0,2 1,4 1,5 0,2 1,4 2,5 1,1 2,2 4,3 1,0 3,1 5,1 1,0 2,0 2,0 1,0 1,0 2,0 0,-1 1,-1 1,-1 1,0 1,0 1,0l0 -10 -7 0 0 -4zm46 18l-5 0 -17 -29 0 0c0,2 0,3 0,4 0,1 0,2 0,3 0,1 0,2 0,3l0 19 -4 0 0 -35 5 0 17 29 0 0c0,-1 0,-2 0,-4 0,0 0,-1 0,-1 0,-1 0,-1 0,-2 0,0 0,-1 0,-1 0,-1 0,-1 0,-2l0 -19 4 0 0 35zm35 -18c0,3 0,6 -1,8 -1,2 -2,4 -3,6 -2,1 -4,2 -6,3 -2,1 -4,1 -7,1l-9 0 0 -35 10 0c3,0 5,1 7,2 2,0 3,1 5,3 1,1 2,3 3,5 1,2 1,5 1,7zm-5 1c0,-3 0,-5 0,-6 -1,-2 -2,-3 -3,-5 -1,-1 -2,-1 -3,-2 -2,-1 -3,-1 -5,-1l-5 0 0 27 4 0c4,0 7,-1 9,-3 2,-2 3,-6 3,-10z" fill-rule="nonzero"/>
            <path  fill="#404040" d="M847 691c0,3 0,5 -1,7 -1,3 -2,5 -3,6 -2,1 -4,3 -6,3 -2,1 -4,1 -7,1l-8 0 0 -34 9 0c3,0 5,0 7,1 2,1 3,2 5,3 1,1 2,3 3,5 1,3 1,5 1,8zm-5 0c0,-2 0,-4 0,-6 -1,-2 -2,-3 -3,-4 -1,-1 -2,-2 -3,-3 -2,0 -3,-1 -5,-1l-5 0 0 28 4 0c4,0 7,-2 9,-4 2,-2 3,-6 3,-10zm15 17l13 -30 -18 0 0 -4 22 0 0 3 -13 31 -4 0z" fill-rule="nonzero"/>
            <path  fill="#00A0E3" d="M748 690c0,3 0,6 -1,8 0,2 -2,4 -3,6 -1,1 -3,2 -5,3 -2,1 -5,1 -7,1l-9 0 0 -35 10 0c2,0 4,1 6,1 2,1 4,2 5,4 2,1 3,3 3,5 1,2 1,5 1,7zm-4 1c0,-3 0,-5 -1,-6 -1,-2 -1,-4 -2,-5 -1,-1 -3,-2 -4,-2 -1,-1 -3,-1 -5,-1l-5 0 0 27 4 0c4,0 7,-1 10,-3 2,-2 3,-6 3,-10zm10 2c0,-1 0,-3 0,-5 0,-1 1,-3 1,-4 1,-2 1,-3 2,-5 1,-1 2,-2 3,-3 1,-1 2,-2 4,-2 1,-1 3,-1 5,-1 1,0 1,0 1,0 1,0 1,0 1,0 1,0 1,0 1,0 1,0 1,0 1,0l0 4c0,0 -1,0 -2,0 0,0 -1,0 -2,0 -1,0 -2,0 -3,0 -1,0 -2,1 -3,1 -1,1 -2,2 -2,3 -1,0 -1,1 -1,2 -1,1 -1,3 -1,4 0,1 0,2 0,3l0 0c0,0 1,-1 1,-1 0,-1 1,-1 2,-2 0,0 1,0 2,0 0,-1 1,-1 2,-1 2,0 3,1 4,1 1,1 2,1 3,2 1,1 2,2 2,3 1,2 1,3 1,5 0,2 0,3 -1,5 0,1 -1,2 -2,3 -1,1 -2,2 -3,3 -2,0 -3,1 -5,1 -1,0 -3,-1 -4,-1 -1,-1 -3,-2 -4,-3 -1,-1 -1,-3 -2,-5 -1,-2 -1,-4 -1,-7zm11 12c1,0 2,0 3,-1 1,0 1,0 2,-1 1,-1 1,-2 1,-3 1,-1 1,-2 1,-3 0,-1 0,-2 -1,-3 0,-1 0,-2 -1,-2 0,-1 -1,-1 -2,-2 -1,0 -1,0 -2,0 -2,0 -2,0 -3,0 -1,1 -2,1 -3,2 0,0 -1,1 -1,2 0,1 -1,1 -1,2 0,1 1,2 1,3 0,1 1,2 1,3 1,1 2,2 2,2 1,1 2,1 3,1z" fill-rule="nonzero"/>
            <path  fill="#00A0E3" d="M649 690c0,3 0,5 -1,8 -1,2 -2,4 -4,5 -1,2 -3,3 -5,3 -2,1 -4,2 -7,2l-9 0 0 -35 10 0c2,0 5,0 7,1 2,1 3,2 5,3 1,2 2,3 3,6 1,2 1,4 1,7zm-5 0c0,-2 0,-4 -1,-6 0,-2 -1,-3 -2,-4 -1,-1 -2,-2 -4,-3 -1,0 -3,0 -4,0l-5 0 0 27 4 0c4,0 7,-1 9,-4 2,-2 3,-5 3,-10zm21 -4c1,0 3,0 4,1 2,0 3,1 4,2 1,1 2,2 2,3 1,1 1,3 1,4 0,2 0,4 -1,5 0,2 -1,3 -2,4 -1,1 -3,2 -4,2 -2,1 -4,1 -6,1 0,0 -1,0 -2,0 -1,0 -1,0 -2,0 -1,-1 -2,-1 -2,-1 -1,0 -1,-1 -2,-1l0 -4c1,0 1,1 2,1 1,0 1,1 2,1 1,0 2,0 2,0 1,0 2,0 3,0 1,0 2,0 3,0 1,0 2,-1 2,-1 1,-1 2,-2 2,-3 0,-1 1,-2 1,-3 0,-2 -1,-4 -3,-5 -1,-1 -3,-2 -6,-2 0,0 -1,0 -1,0 -1,0 -1,0 -2,0 0,0 -1,0 -1,0 0,0 -1,1 -1,1l-2 -2 1 -16 16 0 0 4 -12 0 -1 10c0,0 1,0 2,-1 1,0 2,0 3,0z" fill-rule="nonzero"/>
            <path  fill="#00A0E3" d="M547 691c0,2 0,5 -1,7 -1,2 -2,4 -3,6 -2,1 -3,2 -6,3 -2,1 -4,1 -7,1l-8 0 0 -34 9 0c3,0 5,0 7,1 2,0 3,1 5,3 1,1 2,3 3,5 1,2 1,5 1,8zm-4 0c0,-3 -1,-5 -1,-6 -1,-2 -2,-3 -3,-4 -1,-2 -2,-2 -3,-3 -2,0 -3,-1 -5,-1l-5 0 0 27 4 0c4,0 7,-1 9,-3 2,-2 4,-6 4,-10zm33 9l-5 0 0 8 -4 0 0 -8 -16 0 0 -3 15 -24 5 0 0 24 5 0 0 3zm-9 -3l0 -9c0,-1 0,-2 0,-3 0,-1 0,-2 0,-3 0,-1 0,-1 0,-2 0,-1 0,-2 0,-2l0 0c0,0 0,0 -1,1 0,0 0,1 0,1 0,0 -1,1 -1,1 0,1 0,1 0,1l-10 15 12 0z" fill-rule="nonzero"/>
            <path  fill="#00A0E3" d="M449 690c0,3 0,6 -1,8 -1,2 -2,4 -3,6 -2,1 -4,2 -6,3 -2,1 -4,1 -7,1l-8 0 0 -35 9 0c3,0 5,1 7,1 2,1 3,2 5,4 1,1 2,3 3,5 1,2 1,5 1,7zm-5 1c0,-3 0,-5 0,-6 -1,-2 -2,-4 -3,-5 -1,-1 -2,-2 -3,-2 -2,-1 -3,-1 -5,-1l-5 0 0 27 4 0c4,0 7,-1 9,-3 2,-2 3,-6 3,-10zm31 -9c0,1 0,2 -1,3 0,1 -1,1 -1,2 -1,1 -2,1 -3,2 0,0 -2,1 -3,1l0 0c3,0 5,1 7,3 1,1 2,3 2,5 0,2 0,3 -1,4 0,2 -1,3 -2,4 -1,1 -3,1 -4,2 -2,0 -4,1 -6,1 -2,0 -3,-1 -5,-1 -1,0 -3,-1 -4,-1l0 -4c1,0 3,1 5,1 1,1 3,1 4,1 2,0 3,0 4,-1 1,0 2,0 3,-1 0,-1 1,-1 1,-2 0,-1 1,-2 1,-3 0,-1 -1,-2 -1,-3 -1,0 -1,-1 -2,-2 -1,0 -2,0 -3,-1 -1,0 -2,0 -4,0l-3 0 0 -4 3 0c2,0 3,0 4,0 1,0 2,-1 2,-1 1,-1 2,-2 2,-3 0,0 0,-1 0,-2 0,-1 0,-2 0,-2 0,-1 -1,-2 -1,-2 -1,-1 -1,-1 -2,-1 -1,0 -2,0 -2,0 -2,0 -4,0 -5,0 -1,1 -2,2 -4,2l-2 -3c1,0 1,-1 2,-1 1,0 2,-1 3,-1 0,0 1,-1 2,-1 1,0 2,0 4,0 1,0 3,0 4,1 1,0 2,1 3,1 1,1 2,2 2,3 1,1 1,2 1,4z" fill-rule="nonzero"/>
            <path  fill="#00A0E3" d="M349 691c0,3 0,5 -1,8 -1,2 -2,4 -3,5 -2,2 -4,3 -6,3 -2,1 -4,2 -7,2l-9 0 0 -35 10 0c3,0 5,0 7,1 2,1 3,2 5,3 1,2 2,3 3,6 1,2 1,4 1,7zm-5 0c0,-2 0,-4 0,-6 -1,-2 -2,-3 -3,-4 -1,-1 -2,-2 -3,-3 -2,0 -3,0 -5,0l-5 0 0 27 4 0c4,0 7,-1 9,-4 2,-2 3,-5 3,-10zm32 18l-22 0 0 -4 9 -9c1,-1 2,-3 3,-4 1,-1 2,-2 2,-3 1,-1 1,-2 2,-3 0,-1 0,-2 0,-3 0,-1 0,-2 0,-3 0,0 -1,-1 -1,-1 -1,-1 -1,-1 -2,-2 -1,0 -2,0 -2,0 -2,0 -3,0 -4,1 -2,1 -3,1 -4,2l-2 -3c0,0 1,-1 2,-1 0,-1 1,-1 2,-1 1,-1 2,-1 3,-1 1,-1 2,-1 3,-1 1,0 3,1 4,1 1,0 2,1 3,2 1,1 1,2 2,3 0,1 1,2 1,4 0,1 -1,2 -1,3 0,2 -1,3 -2,4 -1,1 -1,2 -2,4 -1,1 -3,2 -4,3l-6 7 0 1 16 0 0 4z" fill-rule="nonzero"/>
            <path  fill="#00A0E3" d="M256 690c0,3 0,6 -1,8 -1,2 -2,4 -3,6 -2,1 -4,2 -6,3 -2,1 -4,1 -7,1l-8 0 0 -35 9 0c3,0 5,1 7,1 2,1 3,2 5,4 1,1 2,3 3,5 1,2 1,5 1,7zm-5 1c0,-3 0,-5 0,-6 -1,-2 -2,-4 -3,-5 -1,-1 -2,-2 -3,-2 -2,-1 -3,-1 -5,-1l-5 0 0 27 4 0c4,0 7,-1 9,-3 2,-3 3,-6 3,-10zm25 17l-4 0 0 -22c0,0 0,-1 0,-2 0,-1 0,-1 0,-2 0,-1 0,-2 0,-2 0,-1 0,-2 0,-2 0,0 -1,0 -1,1 0,0 0,0 0,0 -1,0 -1,1 -1,1 0,0 -1,0 -1,0l-3 3 -3 -3 9 -7 4 0 0 35z" fill-rule="nonzero"/>
            <path  fill="#00A0E3" d="M148 690c0,3 0,6 -1,8 0,2 -2,4 -3,6 -1,1 -3,2 -5,3 -2,1 -5,1 -7,1l-9 0 0 -35 10 0c2,0 4,1 6,2 2,0 4,1 5,3 2,1 3,3 3,5 1,2 1,5 1,7zm-4 1c0,-3 0,-5 -1,-6 0,-2 -1,-3 -2,-5 -1,-1 -2,-1 -4,-2 -1,-1 -3,-1 -5,-1l-5 0 0 27 4 0c4,0 8,-1 10,-3 2,-2 3,-6 3,-10zm32 0c0,3 0,5 -1,7 0,2 -1,4 -2,6 0,1 -2,3 -3,3 -1,1 -3,2 -5,2 -2,0 -4,-1 -5,-2 -1,0 -3,-2 -3,-3 -1,-2 -2,-4 -3,-6 0,-2 0,-4 0,-7 0,-3 0,-6 0,-8 1,-2 1,-4 2,-5 1,-2 2,-3 4,-4 1,-1 3,-1 5,-1 2,0 3,0 5,1 1,1 2,2 3,4 1,1 2,3 2,5 1,2 1,5 1,8zm-18 0c0,2 0,4 1,6 0,2 0,3 1,4 0,2 1,2 2,3 1,1 2,1 3,1 1,0 2,0 3,-1 1,-1 1,-1 2,-3 1,-1 1,-2 1,-4 0,-2 1,-4 1,-6 0,-3 -1,-5 -1,-7 0,-1 0,-3 -1,-4 -1,-1 -1,-2 -2,-3 -1,0 -2,0 -3,0 -1,0 -2,0 -3,0 -1,1 -2,2 -2,3 -1,1 -1,3 -1,4 -1,2 -1,4 -1,7z" fill-rule="nonzero"/>
            <path  fill="#00A0E3" d="M144 128l-4 -11 -13 0 -4 11 -4 0 13 -35 4 0 12 35 -4 0zm-5 -15l-4 -10c0,0 0,0 0,-1 0,0 0,-1 -1,-1 0,-1 0,-1 0,-2 0,0 0,-1 0,-1 -1,0 -1,1 -1,1 0,1 0,1 0,2 0,0 -1,1 -1,1 0,1 0,1 0,1l-3 10 10 0zm34 -2c0,2 0,5 -1,7 0,2 -1,4 -2,6 -1,1 -2,3 -3,3 -2,1 -3,2 -5,2 -2,0 -4,-1 -5,-2 -2,0 -3,-2 -4,-3 -1,-2 -1,-4 -2,-6 0,-2 0,-5 0,-7 0,-3 0,-6 0,-8 1,-2 1,-4 2,-5 1,-2 2,-3 4,-4 1,-1 3,-1 5,-1 2,0 3,0 5,1 1,1 2,2 3,3 1,2 2,4 2,6 1,2 1,5 1,8zm-18 0c0,2 0,4 0,6 1,2 1,3 2,4 0,1 1,2 2,3 0,1 1,1 3,1 1,0 2,0 3,-1 1,-1 1,-2 2,-3 0,-1 1,-2 1,-4 0,-2 0,-4 0,-6 0,-3 0,-5 0,-7 0,-1 -1,-3 -1,-4 -1,-1 -1,-2 -2,-3 -1,0 -2,-1 -3,-1 -2,0 -3,1 -3,1 -1,1 -2,2 -2,3 -1,1 -1,3 -2,4 0,2 0,4 0,7z" fill-rule="nonzero"/>
            <path  fill="#00A0E3" d="M244 128l-4 -11 -13 0 -4 11 -4 0 13 -35 4 0 12 35 -4 0zm-5 -15l-4 -10c0,0 0,0 0,-1 0,0 0,-1 -1,-1 0,-1 0,-1 0,-2 0,0 0,-1 0,-1 -1,0 -1,1 -1,1 0,1 0,1 0,2 0,0 -1,1 -1,1 0,1 0,1 0,1l-3 10 10 0zm26 15l-4 0 0 -22c0,0 0,-1 0,-2 0,-1 0,-1 0,-2 0,-1 0,-2 0,-2 0,-1 0,-2 0,-2 0,0 0,0 0,1 -1,0 -1,0 -1,0 0,0 -1,1 -1,1 0,0 0,0 -1,0l-3 3 -2 -3 9 -7 3 0 0 35z" fill-rule="nonzero"/>
            <path  fill="#00A0E3" d="M344 128l-4 -11 -13 0 -4 11 -4 0 13 -35 4 0 12 35 -4 0zm-5 -15l-4 -10c0,0 0,0 0,-1 0,0 0,-1 -1,-1 0,-1 0,-1 0,-2 0,0 0,-1 0,-1 -1,0 -1,1 -1,1 0,1 0,1 0,2 0,0 -1,1 -1,1 0,1 0,1 0,1l-3 10 10 0zm33 15l-21 0 0 -4 8 -9c1,-1 2,-2 3,-3 1,-1 2,-2 2,-3 1,-1 2,-2 2,-3 0,-1 1,-3 1,-4 0,-1 -1,-1 -1,-2 0,-1 -1,-1 -1,-2 -1,0 -1,-1 -2,-1 0,0 -1,0 -2,0 -2,0 -3,0 -4,0 -1,1 -3,2 -4,3l-2 -3c1,-1 1,-1 2,-2 1,0 2,-1 2,-1 1,0 2,-1 3,-1 1,0 2,0 3,0 1,0 3,0 4,0 1,1 2,2 3,2 1,1 2,2 2,3 1,1 1,3 1,4 0,1 0,3 -1,4 0,1 -1,2 -1,4 -1,1 -2,2 -3,3 -1,1 -2,3 -3,4l-7 7 0 0 16 0 0 4z" fill-rule="nonzero"/>
            <path  fill="#00A0E3" d="M444 128l-4 -11 -13 0 -4 11 -4 0 13 -35 4 0 12 35 -4 0zm-5 -15l-4 -10c0,0 0,0 0,-1 0,0 0,-1 -1,-1 0,-1 0,-1 0,-2 0,0 0,-1 0,-1 -1,0 -1,1 -1,1 0,1 0,1 0,2 0,0 -1,1 -1,1 0,1 0,1 0,1l-3 10 10 0zm32 -12c0,2 0,3 0,4 -1,1 -1,1 -2,2 -1,1 -1,1 -2,2 -1,0 -2,1 -3,1l0 0c2,0 5,1 6,3 1,1 2,3 2,5 0,2 0,3 -1,4 0,2 -1,3 -2,4 -1,1 -2,1 -4,2 -1,0 -3,1 -6,1 -1,0 -3,-1 -4,-1 -2,0 -3,-1 -5,-1l0 -4c2,0 3,1 5,1 1,1 3,1 4,1 2,0 3,0 4,-1 1,0 2,0 3,-1 1,-1 1,-1 1,-2 1,-1 1,-2 1,-3 0,-1 0,-2 -1,-3 0,0 -1,-1 -2,-2 0,0 -1,0 -2,-1 -2,0 -3,0 -4,0l-3 0 0 -4 3 0c1,0 2,0 3,0 1,0 2,-1 3,-2 0,0 1,-1 1,-2 1,0 1,-1 1,-2 0,-1 0,-2 -1,-2 0,-1 0,-2 -1,-2 0,-1 -1,-1 -2,-1 0,0 -1,0 -2,0 -2,0 -3,0 -5,0 -1,1 -2,2 -3,2l-3 -3c1,0 2,-1 2,-1 1,0 2,-1 3,-1 1,0 2,-1 3,-1 1,0 2,0 3,0 1,0 3,0 4,0 2,1 3,2 4,2 0,1 1,2 1,3 1,1 1,2 1,3z" fill-rule="nonzero"/>
            <path  fill="#00A0E3" d="M544 128l-4 -11 -13 0 -4 11 -4 0 13 -35 4 0 12 35 -4 0zm-5 -15l-4 -10c0,0 0,0 0,-1 0,0 0,-1 -1,-1 0,-1 0,-1 0,-2 0,0 0,-1 0,-1 -1,0 -1,1 -1,1 0,1 0,1 0,2 0,0 -1,1 -1,1 0,1 0,1 0,1l-3 10 10 0zm35 7l-5 0 0 8 -4 0 0 -8 -16 0 0 -4 16 -23 4 0 0 23 5 0 0 4zm-9 -4l0 -8c0,-1 0,-2 0,-3 0,-1 0,-2 0,-3 0,-1 0,-2 0,-2 0,-1 0,-2 0,-2l0 0c0,0 0,0 0,1 -1,0 -1,0 -1,1 0,0 0,1 -1,1 0,0 0,1 0,1l-10 14 12 0z" fill-rule="nonzero"/>
            <path  fill="#00A0E3" d="M644 128l-4 -11 -13 0 -4 11 -4 0 13 -35 4 0 12 35 -4 0zm-5 -15l-4 -10c0,0 0,0 0,-1 0,0 0,-1 -1,-1 0,-1 0,-1 0,-2 0,0 0,-1 0,-1 -1,0 -1,1 -1,1 0,1 0,1 0,2 0,0 -1,1 -1,1 0,1 0,1 0,1l-3 10 10 0zm22 -6c2,0 3,0 5,0 1,1 2,1 3,2 1,1 2,2 3,4 0,1 0,2 0,4 0,2 0,3 0,5 -1,1 -2,2 -3,3 -1,1 -2,2 -4,3 -1,0 -3,1 -5,1 -1,0 -2,-1 -2,-1 -1,0 -2,0 -3,0 0,0 -1,0 -2,-1 0,0 -1,0 -2,0l0 -4c1,0 2,0 2,1 1,0 2,0 3,0 0,0 1,1 2,1 1,0 1,0 2,0 1,0 2,0 3,-1 1,0 2,0 3,-1 1,-1 1,-1 1,-2 1,-1 1,-2 1,-4 0,-2 -1,-4 -2,-5 -1,-1 -4,-2 -6,-2 -1,0 -1,0 -2,0 0,1 -1,1 -1,1 -1,0 -1,0 -1,0 -1,0 -1,0 -2,0l-2 -1 1 -17 17 0 0 4 -13 0 -1 10c1,0 1,0 2,0 1,0 2,0 3,0z" fill-rule="nonzero"/>
            <path  fill="#00A0E3" d="M727 110c0,3 -1,5 -1,8 -1,2 -2,4 -4,5 -1,2 -3,3 -5,3 -2,1 -4,2 -7,2l-9 0 0 -35 10 0c2,0 4,0 6,1 2,1 4,2 5,3 2,2 3,3 4,6 0,2 1,4 1,7zm-5 0c0,-2 0,-4 -1,-6 0,-2 -1,-3 -2,-4 -1,-1 -2,-2 -4,-3 -1,0 -3,0 -5,0l-4 0 0 27 3 0c5,0 8,-1 10,-4 2,-2 3,-5 3,-10zm33 18l-4 -11 -13 0 -4 11 -4 0 12 -35 4 0 13 35 -4 0zm-5 -15l-4 -10c0,0 0,-1 0,-1 0,-1 -1,-1 -1,-2 0,0 0,-1 0,-1 0,-1 0,-1 -1,-2 0,1 0,1 0,2 0,0 0,1 0,1 -1,1 -1,1 -1,2 0,0 0,1 0,1l-4 10 11 0zm28 -17c-2,0 -3,1 -5,1 -1,1 -2,2 -3,3 -1,1 -2,3 -2,4 -1,2 -1,4 -1,6 0,2 0,4 1,6 0,2 1,3 2,5 1,1 2,2 3,2 2,1 3,1 5,1 1,0 3,0 4,0 1,-1 3,-1 4,-1l0 4c-1,0 -1,0 -2,0 -1,0 -1,1 -2,1 -1,0 -1,0 -2,0 -1,0 -2,0 -3,0 -2,0 -5,0 -6,-1 -2,-1 -4,-2 -5,-4 -1,-1 -2,-3 -3,-6 -1,-2 -1,-4 -1,-7 0,-2 1,-5 1,-7 1,-2 2,-4 3,-6 2,-1 3,-2 5,-3 2,-1 4,-2 7,-2 2,0 3,1 5,1 1,0 3,1 4,1l-2 4c-1,0 -2,-1 -3,-1 -1,-1 -2,-1 -4,-1z" fill-rule="nonzero"/>
            <path  fill="#00A0E3" d="M826 93l4 0 6 21c0,1 0,1 0,2 1,1 1,2 1,3 0,1 0,1 1,2 0,1 0,2 0,2 0,0 0,-1 0,-2 0,0 0,-1 1,-2 0,-1 0,-2 0,-2 0,-1 0,-2 0,-3l5 -21 5 0 -9 35 -4 0 -6 -22c-1,-1 -1,-2 -1,-3 0,-1 0,-1 -1,-2 0,-1 0,-2 0,-3 0,1 0,2 -1,3 0,1 0,1 0,2 0,1 -1,2 -1,3l-6 22 -4 0 -9 -35 5 0 5 21c0,1 0,2 0,3 1,0 1,1 1,2 0,1 0,2 0,2 0,1 0,2 0,2 1,0 1,-1 1,-2 0,-1 0,-1 0,-2 0,-1 0,-2 1,-3 0,-1 0,-2 0,-2l6 -21zm52 35l-5 0 -11 -17 -4 3 0 14 -4 0 0 -35 4 0 0 18 3 -4 11 -14 5 0 -12 15 13 20zm25 -25c0,2 0,3 -1,5 0,1 -1,2 -2,3 -1,1 -2,2 -4,3 -1,0 -3,1 -6,1l-3 0 0 13 -5 0 0 -35 9 0c2,0 4,1 5,1 2,0 3,1 4,2 1,1 2,2 2,3 1,1 1,3 1,4zm-16 8l3 0c1,0 2,0 3,-1 2,0 2,0 3,-1 1,0 1,-1 2,-2 0,-1 0,-2 0,-3 0,-3 0,-4 -2,-5 -1,-1 -3,-2 -6,-2l-3 0 0 14z" fill-rule="nonzero"/>
            <path  fill="#00A0E3" d="M929 114l0 14 -4 0 0 -35 8 0c4,0 7,1 9,3 2,1 3,4 3,7 0,2 0,3 0,4 -1,1 -1,2 -2,2 0,1 -1,2 -2,2 -1,1 -2,1 -2,1l9 16 -5 0 -9 -14 -5 0zm0 -4l4 0c1,0 2,0 3,0 1,-1 2,-1 3,-2 1,0 1,-1 1,-2 1,-1 1,-2 1,-3 0,-1 0,-2 -1,-3 0,0 -1,-1 -1,-1 -1,-1 -2,-1 -3,-2 -1,0 -2,0 -3,0l-4 0 0 13zm46 18l-5 0 -8 -15 -9 15 -4 0 10 -18 -10 -17 5 0 8 14 8 -14 4 0 -10 17 11 18z" fill-rule="nonzero"/>
            <path  fill="#00A0E3" d="M1037 128l-5 0 0 -31 -10 0 0 -4 25 0 0 4 -10 0 0 31zm37 0l-5 0 -9 -15 -8 15 -5 0 11 -18 -10 -17 5 0 8 14 8 -14 4 0 -10 17 11 18z" fill-rule="nonzero"/>
            <path  fill="#00A0E3" d="M1114 110l11 0 0 17c0,0 -1,0 -2,1 -1,0 -2,0 -3,0 -1,0 -2,0 -3,0 -1,1 -2,1 -3,1 -3,0 -5,-1 -7,-2 -2,0 -3,-2 -5,-3 -1,-2 -2,-4 -3,-6 0,-2 -1,-5 -1,-7 0,-3 1,-5 2,-8 0,-2 1,-4 3,-5 1,-2 3,-3 5,-4 2,-1 5,-1 7,-1 2,0 4,0 5,0 2,1 4,1 5,2l-2 4c0,0 -1,-1 -2,-1 0,0 -1,0 -2,-1 0,0 -1,0 -2,0 -1,0 -1,0 -2,0 -2,0 -4,0 -5,1 -2,0 -3,1 -4,3 -1,1 -2,2 -2,4 -1,2 -1,4 -1,6 0,2 0,4 1,5 0,2 1,4 2,5 1,1 2,2 3,3 2,0 4,1 6,1 1,0 1,0 2,0 0,0 1,0 1,-1 1,0 1,0 2,0 0,0 1,0 1,0l0 -10 -7 0 0 -4zm46 18l-6 0 -16 -29 0 0c0,2 0,3 0,4 0,1 0,2 0,3 0,1 0,2 0,3l0 19 -4 0 0 -35 5 0 16 29 1 0c0,-1 0,-2 -1,-4 0,0 0,-1 0,-1 0,-1 0,-1 0,-2 0,0 0,-1 0,-1 0,-1 0,-1 0,-2l0 -19 5 0 0 35zm35 -18c0,3 -1,6 -1,8 -1,2 -2,4 -4,6 -1,1 -3,2 -5,3 -2,1 -5,1 -7,1l-9 0 0 -35 10 0c2,0 4,1 6,1 2,1 4,2 5,4 2,1 3,3 4,5 0,2 1,5 1,7zm-5 1c0,-3 0,-5 -1,-6 0,-2 -1,-3 -2,-5 -1,-1 -2,-1 -4,-2 -1,-1 -3,-1 -5,-1l-4 0 0 27 3 0c5,0 8,-1 10,-3 2,-2 3,-6 3,-10z" fill-rule="nonzero"/>
            <path  fill="#00A0E3" d="M1236 93l5 0 -12 35 -4 0 -12 -35 5 0 7 22c0,2 1,3 1,4 0,2 1,3 1,4 0,-1 0,-2 1,-4 0,-1 0,-2 1,-4l7 -22zm19 35l-12 0 0 -3 4 -1 0 -27 -4 -1 0 -3 12 0 0 3 -4 1 0 27 4 1 0 3zm33 0l-6 0 -16 -29 0 0c0,1 0,3 0,4 0,1 0,2 0,3 0,1 0,2 0,3l0 19 -4 0 0 -35 5 0 17 29 0 0c0,-1 0,-3 0,-4 0,0 0,-1 -1,-1 0,-1 0,-1 0,-2 0,0 0,-1 0,-1 0,-1 0,-1 0,-2l0 -19 5 0 0 35z" fill-rule="nonzero"/>
        </g>
        <g  id="BUTTON_0" gorn="0.1.10">
            <polygon  fill="#CCCCCC" points="1019,530 997,530 997,495 1019,495 "/>
            <polygon  fill="#E5E5E5" points="999,530 997,530 997,495 999,495 "/>
            <polygon  fill="#CCCCCC" points="958,530 935,530 935,495 958,495 "/>
            <polygon  fill="#E5E5E5" points="938,530 935,530 935,495 938,495 "/>
            <polygon  fill="#CCCCCC" points="958,656 935,656 935,621 958,621 "/>
            <polygon  fill="#E5E5E5" points="938,656 935,656 935,621 938,621 "/>
            <polygon  fill="#CCCCCC" points="1019,656 997,656 997,621 1019,621 "/>
            <polygon  fill="#E5E5E5" points="999,656 997,656 997,621 999,621 "/>
            <polygon  fill="#999999" points="1036,646 918,646 918,506 1036,506 "/>
            <polygon  fill="#B2B2B2" points="918,646 918,644 1036,644 1036,646 "/>
            <polygon  fill="#8C8C8C" points="918,508 918,506 1036,506 1036,508 "/>
            <path  fill="black" d="M1011 576c0,19 -15,35 -34,35 -19,0 -35,-16 -35,-35 0,-19 16,-35 35,-35 19,0 34,16 34,35z"/>
            <g >
                <path  fill="#404040" d="M1008 574c0,18 -14,32 -32,32 -17,0 -31,-14 -31,-32 0,-17 14,-31 31,-31 18,0 32,14 32,31z"/>
                <path  fill="#999999" d="M1008 574c0,18 -14,32 -32,32 -17,0 -31,-14 -31,-32 6,41 58,41 63,0z"/>
            </g>
        </g>
        <g  id="SMPS" gorn="0.1.11">
            <polygon  fill="#CCCCCC" points="1110,188 1087,188 1087,153 1110,153 "/>
            <polygon  fill="#E5E5E5" points="1090,188 1087,188 1087,153 1090,153 "/>
            <polygon  fill="#CCCCCC" points="1185,188 1162,188 1162,153 1185,153 "/>
            <polygon  fill="#E5E5E5" points="1164,188 1162,188 1162,153 1164,153 "/>
            <polygon  fill="#CCCCCC" points="1184,272 1162,272 1162,237 1184,237 "/>
            <polygon  fill="#E5E5E5" points="1164,272 1162,272 1162,237 1164,237 "/>
            <polygon  fill="#CCCCCC" points="1147,272 1125,272 1125,237 1147,237 "/>
            <polygon  fill="#E5E5E5" points="1127,272 1125,272 1125,237 1127,237 "/>
            <polygon  fill="#CCCCCC" points="1110,272 1087,272 1087,237 1110,237 "/>
            <polygon  fill="#E5E5E5" points="1090,272 1087,272 1087,237 1090,237 "/>
            <polygon  fill="#666666" points="1195,177 1195,247 1078,247 1078,177 "/>
        </g>
        <g  id="P0_x0020_MODULE" gorn="0.1.12">
            <polygon  fill="#006900" points="768,183 768,615 295,615 295,183 "/>
            <polygon  fill="#CCCCCC" points="358,190 358,235 303,235 303,190 "/>
            <polygon  fill="#B2B2B2" points="757,190 757,235 690,235 690,190 "/>
            <polygon  fill="#B2B2B2" points="757,548 757,609 715,609 715,548 "/>
            <polygon  fill="#CCCCCC" points="346,558 346,609 303,609 303,558 "/>
            <polygon  fill="#CCCCCC" points="346,418 346,519 303,519 303,418 "/>
            <polygon  fill="#B2B2B2" points="757,476 757,524 715,524 715,476 "/>
            <polygon  fill="#B2B2B2" points="757,377 757,419 715,419 715,377 "/>
            <polygon  fill="#9A916C" points="342,287 342,347 311,347 311,287 "/>
            <polygon  fill="#CC9933" points="754,272 754,346 719,346 719,272 "/>
            <polygon  fill="#CC9933" points="354,605 354,580 398,580 398,605 "/>
            <polygon  fill="#B2B2B2" points="749,197 749,602 314,602 314,197 "/>
            <path  fill="#CCCCCC" d="M635 197l114 0 0 405 -346 0c202,-77 26,-304 232,-405z"/>
            <g  id="MARKINGS" gorn="0.1.12.13">
                <path  fill="#666666" d="M458 432c0,1 0,2 0,3 -1,0 -1,1 -1,2 -1,0 -1,1 -2,1 -1,0 -1,1 -2,1 -1,0 -1,-1 -2,-1 0,0 -1,0 -1,-1 -1,0 -1,0 -1,-1 -1,0 -1,-1 -1,-2 -1,1 -1,2 -1,2 -1,1 -1,1 -2,2 0,0 -1,1 -1,1 -1,0 -1,0 -2,0 -1,0 -2,0 -2,0 -1,-1 -2,-1 -2,-2 -1,0 -1,-1 -1,-2 -1,-1 -1,-2 -1,-3 0,-1 0,-2 1,-3 0,-1 0,-2 1,-2 0,-1 1,-1 2,-2 0,0 1,0 2,0 1,0 1,0 2,0 0,0 1,1 1,1 1,0 1,1 2,1 0,1 0,2 1,2 0,0 0,-1 1,-1 0,-1 0,-1 1,-1 0,-1 1,-1 1,-1 1,0 1,-1 2,-1 1,0 1,1 2,1 1,0 1,1 2,1 0,1 0,2 1,3 0,0 0,1 0,2zm-16 -4c-1,0 -1,0 -2,0 0,0 0,0 -1,1 0,0 0,0 0,1 0,1 -1,1 -1,2 0,1 1,1 1,2 0,0 0,1 0,1 1,1 1,1 2,1 0,0 0,0 1,0 1,0 1,0 1,0 1,0 1,0 1,-1 1,0 1,-1 1,-1 1,-1 1,-1 1,-2l1 0c-1,-2 -2,-3 -2,-3 -1,-1 -2,-1 -3,-1zm14 4c0,-1 -1,-2 -1,-3 -1,0 -1,-1 -2,-1 -1,0 -1,0 -2,1 0,0 0,0 -1,0 0,1 0,1 -1,2 0,0 0,0 0,1 0,1 0,1 0,1 1,1 1,1 1,2 1,0 1,0 1,0 1,1 1,1 2,1 1,0 1,-1 2,-1 0,-1 1,-2 1,-3zm-7 18c0,1 0,2 0,3 0,0 -1,1 -1,2 -1,1 -1,1 -2,1 -1,1 -2,1 -3,1 -1,0 -2,0 -3,-1 -1,0 -1,0 -2,-1 -1,-1 -1,-2 -1,-3 -1,-1 -1,-2 -1,-3 0,-1 0,-1 0,-2 0,0 0,-1 1,-1 0,-1 0,-1 0,-2 0,0 0,-1 0,-1l3 0c0,0 -1,1 -1,1 0,1 0,1 0,2 0,0 0,1 0,1 -1,1 -1,1 -1,2 0,1 1,1 1,2 0,1 0,1 1,2 0,0 0,0 1,1 1,0 1,0 2,0 1,0 2,0 3,-1 1,-1 1,-3 1,-4 0,-1 0,-1 0,-1 0,-1 0,-1 0,-1 0,-1 0,-1 0,-1 0,-1 0,-1 0,-1l1 -2 10 1 0 11 -3 0 0 -8 -6 -1c0,1 0,1 0,2 0,0 0,1 0,2zm-2 25c-2,0 -3,0 -5,0 -1,0 -2,-1 -3,-2 -1,0 -2,-1 -2,-2 -1,-1 -1,-2 -1,-3 0,-1 0,-3 1,-3 0,-1 1,-2 2,-3 1,0 2,-1 3,-1 2,0 3,-1 5,-1 2,0 3,1 5,1 1,0 2,0 3,1 1,1 2,1 2,2 1,1 1,2 1,4 0,1 0,2 -1,3 0,1 -1,2 -2,2 -1,1 -2,1 -3,2 -2,0 -3,0 -5,0zm0 -12c-1,0 -3,0 -4,1 -1,0 -2,0 -2,0 -1,1 -2,1 -2,2 0,0 -1,1 -1,2 0,1 1,1 1,2 0,0 1,1 2,1 0,1 1,1 2,1 1,0 3,0 4,0 1,0 3,0 4,0 1,0 2,0 3,-1 0,0 1,-1 1,-1 0,-1 1,-1 1,-2 0,-1 -1,-2 -1,-2 0,-1 -1,-1 -1,-2 -1,0 -2,0 -3,0 -1,-1 -3,-1 -4,-1zm-10 25l0 -3 13 0c0,0 1,0 1,0 0,0 1,0 1,0 1,0 1,0 2,0 0,0 1,0 1,0 0,0 0,0 -1,0 0,0 0,0 0,-1 0,0 0,0 0,0 0,0 -1,0 -1,-1l-2 -2 2 -1 5 6 0 2 -21 0zm10 23c-2,0 -3,0 -5,0 -1,-1 -2,-1 -3,-2 -1,0 -2,-1 -2,-2 -1,-1 -1,-2 -1,-3 0,-2 0,-3 1,-4 0,-1 1,-1 2,-2 1,-1 2,-1 3,-1 2,-1 3,-1 5,-1 2,0 3,0 5,1 1,0 2,0 3,1 1,0 2,1 2,2 1,1 1,2 1,4 0,1 0,2 -1,3 0,1 -1,2 -2,2 -1,1 -2,1 -3,2 -2,0 -3,0 -5,0zm0 -12c-1,0 -3,0 -4,0 -1,1 -2,1 -2,1 -1,0 -2,1 -2,1 0,1 -1,2 -1,3 0,0 1,1 1,2 0,0 1,1 2,1 0,0 1,1 2,1 1,0 3,0 4,0 1,0 3,0 4,0 1,0 2,-1 3,-1 0,0 1,-1 1,-1 0,-1 1,-2 1,-2 0,-1 -1,-2 -1,-3 0,0 -1,-1 -1,-1 -1,0 -2,0 -3,-1 -1,0 -3,0 -4,0zm-6 31l0 -4 -4 0 0 -2 4 0 0 -11 3 0 14 10 0 3 -14 0 0 4 -3 0zm3 -6l5 0c0,0 1,0 1,0 1,0 2,0 2,0 1,0 1,0 2,0 0,0 1,0 1,0l0 0c0,0 0,-1 -1,-1 0,0 0,0 0,0 -1,0 -1,0 -1,0 0,-1 0,-1 -1,-1l-8 -6 0 8zm-21 -98l0 7c0,1 0,2 0,3 0,1 0,2 -1,3 0,0 -1,1 -2,1 0,1 -1,1 -2,1 -1,0 -1,0 -2,-1 0,0 -1,0 -1,0 0,-1 -1,-1 -1,-2 0,0 -1,-1 -1,-2l0 0c0,1 0,2 0,2 0,1 -1,1 -1,2 -1,0 -1,1 -2,1 0,0 -1,0 -2,0 -1,0 -1,0 -2,0 -1,0 -2,-1 -2,-2 -1,0 -1,-1 -1,-2 -1,-1 -1,-2 -1,-3l0 -8 21 0zm-9 3l0 4c0,1 0,2 1,2 0,1 0,1 0,2 0,0 1,0 1,1 1,0 1,0 2,0 1,0 2,-1 2,-1 1,-1 1,-3 1,-4l0 -4 -7 0zm-2 0l-7 0 0 4c0,1 0,2 0,3 0,0 0,1 1,1 0,1 0,1 1,1 0,0 1,0 1,0 1,0 1,0 2,0 0,0 1,0 1,-1 0,0 1,-1 1,-1 0,-1 0,-2 0,-3l0 -4zm-10 27l19 -7 0 0c-1,0 -2,0 -2,0 -1,0 -2,0 -2,0 -1,0 -2,0 -2,0l-13 0 0 -3 21 0 0 5 -17 6 0 0 17 7 0 4 -21 0 0 -3 13 0c1,0 1,0 2,0 0,0 1,0 2,0 0,1 1,1 2,1l0 -1 -19 -7 0 -2zm7 17l2 0 0 8 -2 0 0 -8zm4 25c-2,0 -3,0 -5,0 -1,0 -2,-1 -3,-1 -1,-1 -2,-2 -2,-3 -1,-1 -1,-2 -1,-3 0,-1 0,-2 1,-3 0,-1 1,-2 2,-3 1,0 2,-1 3,-1 2,0 3,0 5,0 1,0 3,0 4,0 2,0 3,1 4,1 1,1 1,2 2,2 0,1 1,3 1,4 0,1 -1,2 -1,3 -1,1 -1,2 -2,2 -1,1 -2,2 -4,2 -1,0 -3,0 -4,0zm0 -12c-2,0 -3,1 -4,1 -1,0 -2,0 -3,0 0,1 -1,1 -1,2 -1,0 -1,1 -1,2 0,1 0,1 1,2 0,1 1,1 1,1 1,1 2,1 3,1 1,0 2,0 4,0 1,0 2,0 4,0 1,0 2,0 2,-1 1,0 1,0 2,-1 0,-1 0,-1 0,-2 0,-1 0,-2 0,-2 -1,-1 -1,-1 -2,-2 0,0 -1,0 -2,0 -2,0 -3,-1 -4,-1zm1 30c-1,0 -2,0 -3,0 -1,0 -2,0 -3,-1 0,0 -1,0 -2,-1 -1,0 -2,-1 -2,-2 -1,0 -1,-1 -2,-2 0,-1 0,-3 0,-4 0,0 0,0 0,-1 0,0 0,0 0,0 0,-1 0,-1 0,-1 0,0 0,-1 0,-1l2 0c0,1 0,1 0,2 0,0 0,0 0,1 0,1 0,3 1,3 0,1 1,2 2,3 0,0 1,1 2,1 1,0 2,0 4,0l0 0c-1,0 -1,0 -1,-1 -1,0 -1,0 -1,-1 0,0 -1,-1 -1,-1 0,-1 0,-1 0,-2 0,-1 0,-2 1,-3 0,0 0,-1 1,-2 0,0 1,-1 2,-1 1,0 1,0 3,0 1,0 2,0 2,0 1,0 2,1 3,1 0,1 1,2 1,3 0,1 1,2 1,3 0,1 -1,2 -1,3 0,0 -1,1 -2,2 0,1 -1,1 -3,2 -1,0 -2,0 -4,0zm7 -7c0,-1 0,-2 0,-2 0,-1 0,-1 -1,-1 0,-1 -1,-1 -1,-1 -1,-1 -2,-1 -3,-1 0,0 -1,0 -1,1 -1,0 -1,0 -2,0 0,1 0,1 -1,2 0,0 0,1 0,2 0,0 0,1 1,1 0,1 0,2 0,2 1,0 1,1 2,1 0,0 1,0 1,0 1,0 1,0 2,0 1,0 1,-1 2,-1 0,0 1,-1 1,-1 0,-1 0,-2 0,-2zm-12 10l2 0 0 8 -2 0 0 -8zm-1 25c-1,0 -2,-1 -3,-1 0,0 -1,-1 -1,-2 -1,0 -1,-1 -2,-2 0,-1 0,-2 0,-3 0,-1 0,-3 0,-4 0,-1 1,-1 1,-2l3 0c-1,0 -1,1 -1,1 0,1 0,1 0,2 0,0 -1,1 -1,1 0,1 0,1 0,2 0,1 1,3 1,3 1,1 2,2 3,2 0,0 1,0 1,-1 0,0 1,0 1,0 0,-1 1,-1 1,-2 0,-1 1,-1 1,-2 0,-1 1,-2 1,-3 0,-1 1,-1 1,-2 1,0 1,0 2,-1 1,0 1,0 2,0 1,0 2,0 2,1 1,0 2,0 2,1 1,1 1,1 1,2 0,1 1,2 1,3 0,1 -1,2 -1,3 0,1 0,2 -1,3l-2 -1c0,-1 1,-1 1,-2 0,-1 0,-2 0,-3 0,-1 0,-2 -1,-3 0,-1 -1,-1 -2,-1 0,0 -1,0 -1,0 -1,0 -1,1 -1,1 -1,0 -1,1 -1,2 0,0 -1,1 -1,2 0,1 -1,2 -1,2 -1,1 -1,2 -1,2 -1,1 -1,1 -2,1 -1,0 -1,1 -2,1zm-27 -112c0,1 0,2 -1,3 0,1 0,1 -1,2 0,1 -1,1 -2,2 0,0 -1,0 -2,0 -1,0 -2,0 -3,0 -1,-1 -2,-1 -2,-2 -1,-1 -1,-2 -2,-3 0,-1 0,-2 0,-3 0,-1 0,-1 0,-2 0,0 0,-1 0,-1 0,-1 0,-1 0,-2 0,0 1,-1 1,-1l2 0c0,0 0,1 0,1 0,1 -1,1 -1,2 0,0 0,1 0,1 0,1 0,1 0,2 0,1 0,1 0,2 0,1 1,1 1,2 0,0 1,1 1,1 1,0 2,0 2,0 2,0 3,0 4,-1 0,-1 1,-3 1,-4 0,-1 0,-1 0,-1 0,-1 0,-1 0,-1 0,-1 -1,-1 -1,-1 0,0 0,-1 0,-1l1 -1 10 0 0 11 -2 0 0 -8 -6 -1c0,1 0,1 0,2 0,0 0,1 0,2zm-13 13l19 9 0 -12 2 0 0 15 -2 0 -19 -9 0 -3zm16 29c-1,0 -1,0 -2,0 0,-1 -1,-1 -1,-1 -1,-1 -1,-1 -1,-2 -1,-1 -1,-1 -1,-2l0 0c0,2 -1,3 -2,4 -1,1 -2,2 -3,2 -1,0 -2,0 -3,-1 0,0 -1,-1 -2,-1 0,-1 -1,-2 -1,-3 0,-1 0,-2 0,-4 0,-1 0,-2 0,-3 0,-1 0,-2 1,-3l2 0c0,1 0,2 -1,3 0,1 0,2 0,3 0,1 0,2 0,3 0,0 1,1 1,2 0,0 1,0 1,1 1,0 1,0 2,0 1,0 1,0 2,-1 0,0 1,0 1,-1 0,0 0,-1 1,-2 0,0 0,-1 0,-2l0 -2 2 0 0 2c0,1 0,1 0,2 0,1 1,1 1,2 0,0 1,1 1,1 1,0 1,0 2,0 0,0 1,0 1,0 1,0 1,-1 1,-1 1,0 1,-1 1,-1 0,-1 0,-1 0,-2 0,-1 0,-2 0,-3 -1,-1 -1,-2 -2,-2l2 -2c0,1 1,1 1,2 0,0 0,1 1,1 0,1 0,1 0,2 0,1 0,1 0,2 0,1 0,2 0,3 0,1 -1,2 -1,2 -1,1 -1,1 -2,2 0,0 -1,0 -2,0z" fill-rule="nonzero"/>
                <g  id="SPARK_x0020_LOGO_1" gorn="0.1.12.13.1">
                    <polygon  fill="#666666" points="581,451 626,422 670,449 642,406 670,361 626,390 583,362 610,406 "/>
                    <polygon  fill="#666666" points="597,413 602,406 597,399 564,406 "/>
                    <polygon  fill="#666666" points="626,381 620,377 626,344 633,377 627,381 "/>
                    <polygon  fill="#666666" points="619,434 626,430 634,435 626,467 "/>
                    <polygon  fill="#666666" points="655,413 688,406 655,399 651,406 "/>
                    <polygon  fill="#666666" points="581,451 626,422 670,449 670,449 626,420 "/>
                </g>
                <path  fill="#666666" d="M546 403c-2,0 -3,0 -4,-1 -1,0 -2,-1 -3,-2 -1,-1 -1,-2 -2,-3 0,-2 0,-4 0,-6l0 -4 -12 0 0 -4 29 0 0 8c0,2 0,4 -1,6 0,1 -1,2 -1,3 -1,1 -2,2 -3,2 -1,1 -2,1 -3,1zm-6 -16l0 3c0,2 0,3 0,4 0,1 0,2 1,2 0,1 1,2 2,2 0,0 1,1 2,1 2,0 4,-1 5,-2 0,-2 1,-4 1,-6l0 -4 -11 0zm0 42c-3,0 -5,0 -6,0 -2,-1 -4,-1 -5,-2 -1,-1 -2,-2 -3,-4 -1,-1 -1,-3 -1,-5 0,-1 0,-3 1,-4 1,-2 2,-3 3,-4 1,0 3,-1 5,-2 1,0 3,0 6,0 2,0 4,0 6,0 2,1 3,1 5,2 1,1 2,2 2,4 1,1 1,3 1,4 0,2 0,4 -1,5 0,2 -1,3 -2,4 -2,0 -3,1 -5,2 -2,0 -4,0 -6,0zm0 -17c-2,0 -4,0 -5,0 -2,1 -3,1 -4,1 -1,1 -2,2 -2,2 -1,1 -1,2 -1,3 0,2 0,3 1,3 0,1 1,2 2,2 1,1 2,1 4,2 1,0 3,0 5,0 2,0 3,0 5,0 1,-1 3,-1 3,-2 1,0 2,-1 3,-2 0,0 0,-1 0,-3 0,-1 0,-2 0,-3 -1,0 -2,-1 -3,-2 0,0 -2,0 -3,-1 -2,0 -3,0 -5,0z" fill-rule="nonzero"/>
                <path  fill="#666666" id="QRCODE" gorn="0.1.12.13.3" d="M370 260l7 0 8 0 7 0 8 0 7 0 8 0 8 0 7 0 8 0 7 0 8 0 7 0 8 0 7 0 8 0 8 0 7 0 8 0 0 7 -8 0 0 8 8 0 0 7 -8 0 0 8 8 0 0 8 -8 0 -7 0 0 7 0 8 0 7 0 8 7 0 0 -8 8 0 0 8 -8 0 0 7 8 0 0 8 -8 0 0 -8 -7 0 0 8 -8 0 0 7 8 0 0 8 7 0 0 -8 8 0 0 8 -8 0 0 8 8 0 0 7 -8 0 0 -7 -7 0 0 7 -8 0 -8 0 -7 0 -8 0 -7 0 0 -7 -8 0 -7 0 0 7 -8 0 -7 0 -8 0 -8 0 -7 0 0 -7 -8 0 0 7 -7 0 0 -7 7 0 0 -8 0 -8 -7 0 0 -7 7 0 0 -8 8 0 0 -7 7 0 0 -8 -7 0 0 -7 -8 0 0 7 -7 0 0 8 -8 0 0 0 0 7 0 8 0 7 0 8 0 8 0 7 8 0 7 0 8 0 0 8 7 0 0 7 0 8 -7 0 0 -8 0 0 0 -7 -8 0 -7 0 -8 0 0 0 0 7 0 8 -7 0 0 -8 0 -7 0 -8 0 -7 0 -8 0 -8 0 -7 0 -8 0 -7 0 -8 0 -7 0 -8 0 -7 0 -8 0 -8 0 -7 0 -8 0 -7zm121 136l0 -8 -8 0 0 0 0 8 -8 0 0 -8 -7 0 0 0 0 8 -8 0 0 -8 -7 0 0 8 -8 0 0 -8 8 0 0 -7 -8 0 0 -8 8 0 7 0 8 0 0 8 7 0 0 -8 8 0 8 0 7 0 0 8 8 0 0 7 -8 0 0 8 -7 0zm0 -8l7 0 0 -7 -7 0 0 7zm-61 8l0 -8 -7 0 0 8 -8 0 0 -8 8 0 0 -7 -8 0 0 -8 8 0 7 0 0 8 0 7 8 0 0 8 -8 0zm-45 0l0 -8 7 0 0 8 -7 0zm98 -30l0 -8 -8 0 -7 0 0 -8 7 0 0 -7 0 0 -7 0 0 -8 7 0 8 0 8 0 0 -7 -8 0 0 -8 -8 0 -7 0 0 -7 0 -8 -8 0 0 -7 8 0 7 0 0 7 8 0 0 -7 0 -8 -8 0 0 -8 -7 0 0 -7 -8 0 0 -8 -7 0 0 8 7 0 0 7 0 0 0 8 -7 0 -8 0 0 -8 -7 0 0 -7 -8 0 0 7 0 8 8 0 0 8 -8 0 0 -8 -7 0 -8 0 0 8 8 0 0 7 0 8 7 0 0 7 0 8 -7 0 0 -8 -8 0 0 8 0 7 0 8 -8 0 0 -8 -7 0 0 8 0 7 0 8 0 8 7 0 0 -8 0 -8 8 0 0 8 0 8 8 0 7 0 0 -8 0 -8 -7 0 0 -7 0 0 0 -8 7 0 8 0 0 8 -8 0 0 7 8 0 0 -7 7 0 0 -8 0 -7 -7 0 0 -8 7 0 0 8 8 0 0 7 7 0 0 8 -7 0 -8 0 0 7 8 0 7 0 0 8 0 8 8 0 7 0 8 0zm-45 -8l7 0 0 -8 -7 0 0 8zm-53 -38l0 -7 -8 0 0 7 8 0zm22 -7l0 -8 -7 0 0 8 7 0zm91 -8l8 0 0 8 -8 0 0 -8zm-53 0l8 0 0 8 -8 0 0 -8zm-53 -7l0 -8 -7 0 0 8 7 0zm99 -8l0 -8 7 0 0 -7 -7 0 0 -8 -8 0 -8 0 -7 0 0 8 7 0 8 0 0 7 0 8 8 0zm-84 0l0 -8 8 0 0 -7 8 0 7 0 0 -8 -7 0 -8 0 -8 0 0 8 -7 0 -8 0 0 -8 -7 0 -8 0 0 8 0 7 8 0 7 0 0 8 8 0 7 0zm46 -8l0 -7 -8 0 0 7 8 0zm-8 -7l0 -8 -7 0 0 8 7 0z"/>
                <g  id="USI_x0020_LOGO" gorn="0.1.12.13.4">
                    <path  fill="#666666" d="M515 423l0 44 -31 22 0 52 -6 0 0 -55 32 -22 0 -37 5 -4zm-15 19l0 16 -16 11 0 -16 16 -11zm-22 39l0 -31 28 -20 0 31 -28 20zm-4 60l-6 0 0 -83 6 -5 0 88z"/>
                    <path  fill="#666666" d="M516 488l0 5 -15 0c-2,0 -4,0 -5,0 -1,1 -2,1 -2,2 -1,1 -1,2 -1,3 0,1 0,2 1,3 0,1 1,1 2,1 1,1 2,1 5,1l15 0 0 5 -15 0c-3,0 -5,-1 -7,-1 -1,0 -2,-1 -3,-1 -1,-1 -2,-2 -2,-3 -1,-1 -1,-3 -1,-5 0,-2 0,-4 1,-5 0,-1 1,-2 2,-3 1,-1 2,-1 3,-1 2,-1 4,-1 7,-1l15 0zm-19 25l0 5c-2,0 -2,0 -2,0 -2,0 -3,2 -3,4 0,1 1,2 2,3 0,1 1,1 2,1 1,0 1,0 2,0 0,0 1,-1 1,-2 0,0 1,-2 1,-4 1,-2 2,-4 3,-5 2,-2 3,-3 6,-3 1,0 2,1 4,1 1,1 2,2 2,4 1,1 1,2 1,4 0,3 0,6 -2,7 -2,2 -3,3 -6,3l0 -6c1,0 2,0 3,-1 0,0 1,-1 1,-3 0,-1 -1,-2 -1,-3 -1,-1 -1,-1 -2,-1 -1,0 -1,0 -2,1 0,0 -1,2 -2,4 0,3 -1,5 -2,6 0,1 -1,2 -2,2 -2,1 -3,1 -5,1 -1,0 -3,0 -4,-1 -2,-1 -3,-2 -3,-3 -1,-2 -1,-3 -1,-5 0,-4 1,-6 2,-8 2,-2 4,-1 7,-1zm-9 22l28 0 0 5 -28 0 0 -5z" fill-rule="nonzero"/>
                    <path  fill="#666666" d="M516 548c0,1 0,2 -1,3 0,0 -1,1 -2,1 0,1 -1,1 -2,1 -1,0 -1,0 -2,-1 -1,0 -1,-1 -2,-1 0,-1 0,-2 0,-3 0,0 0,-1 0,-2 1,-1 1,-1 2,-2 1,0 1,0 2,0 1,0 2,0 2,0 1,1 2,1 2,2 1,1 1,2 1,2zm-1 0c0,0 0,-1 0,-2 -1,0 -1,-1 -2,-1 0,0 -1,0 -2,0 0,0 -1,0 -2,0 0,0 -1,1 -1,1 0,1 0,2 0,2 0,1 0,2 0,2 0,1 1,1 1,2 1,0 2,0 2,0 1,0 2,0 2,0 1,-1 1,-1 2,-2 0,0 0,-1 0,-2zm-6 -2l5 0 0 2c0,1 0,1 -1,1 0,1 0,1 0,1 0,0 0,0 -1,0 0,0 0,0 -1,0 0,-1 0,-1 0,-1 0,0 0,0 0,0 -1,0 -1,1 -1,1l-1 0 0 -1 1 0c0,0 1,-1 1,-1 0,0 0,0 0,0l0 -1 -2 0 0 -1zm2 1l0 1c0,1 1,1 1,1 0,0 0,0 0,0 0,0 0,0 1,0 0,0 0,0 0,0 0,0 0,-1 0,-1l0 -1 -2 0z"/>
                </g>
            </g>
            <g  id="PIN1" gorn="0.1.12.14">
                <path  fill="#404040" d="M676 245c6,-6 16,-6 22,0 7,6 7,16 0,23 -6,6 -16,6 -22,0 -7,-7 -7,-17 0,-23z"/>
                <path  fill="white" d="M676 245c6,-6 16,-6 22,0 7,6 7,16 0,23 13,-17 -6,-36 -22,-23z"/>
            </g>
        </g>
        <g  id="RGB_x0020_LED" gorn="0.1.13">
            <g >
                <polygon  fill="#CCCCCC" points="968,380 946,380 946,360 968,360 "/>
                <polygon  fill="#E5E5E5" points="948,380 946,380 946,360 948,360 "/>
            </g>
            <g >
                <polygon  fill="#CCCCCC" points="1006,380 983,380 983,360 1006,360 "/>
                <polygon  fill="#E5E5E5" points="986,380 983,380 983,360 986,360 "/>
            </g>
            <g >
                <polygon  fill="#CCCCCC" points="968,436 945,436 945,415 968,415 "/>
                <polygon  fill="#E5E5E5" points="948,436 945,436 945,415 948,415 "/>
            </g>
            <g >
                <polygon  fill="#CCCCCC" points="1006,436 983,436 983,415 1006,415 "/>
                <polygon  fill="#E5E5E5" points="986,436 983,436 983,415 986,415 "/>
            </g>
            <polygon  fill="black" points="939,363 1014,363 1014,375 1014,433 939,433 "/>
            <polygon  fill="#404040" points="998,363 999,363 1014,374 1014,375 "/>
            <polygon  fill="#E5E5E5" points="949,373 977,369 1002,373 1006,398 1002,424 977,427 949,424 946,398 "/>
            <path  fill="#B2B2B2" d="M977 385c7,0 12,6 12,12l-12 0 0 -12z"/>
            <path  fill="#1B5BB3" d="M976 385c-6,0 -12,6 -12,12l12 0 0 -12z"/>
            <path  fill="#00A63D" d="M976 410c-6,0 -12,-5 -12,-12l12 0 0 12z"/>
            <path  fill="#CC1414" d="M977 410c7,0 12,-5 12,-12l-12 0 0 12z"/>
            <polygon  fill="white" points="949,373 977,369 1002,373 1006,398 1002,424 1004,398 1002,373 977,371 "/>
            <polygon  fill="#B2B2B2" points="1002,424 977,427 949,424 946,398 949,373 948,398 949,424 977,425 "/>
        </g>
        <g  id="BTCOEX_x0020_PADS" gorn="0.1.14">
            <polygon  fill="#CC9933" points="407,134 440,134 440,167 407,167 "/>
            <polygon  fill="#CC9933" points="456,134 489,134 489,167 456,167 "/>
            <polygon  fill="#CC9933" points="504,134 538,134 538,167 504,167 "/>
            <polygon  fill="#E6AB00" points="407,134 408,134 408,167 407,167 "/>
            <polygon  fill="#E6AB00" points="456,134 457,134 457,167 456,167 "/>
            <polygon  fill="#E6AB00" points="504,134 505,134 505,167 504,167 "/>
        </g>
        <g  id="PINS_2" gorn="0.1.15">
            <g  id="PIN" gorn="0.1.15.0">
                <path  fill="#B2B2B2" d="M148 84c-19,0 -35,-15 -35,-34 0,-20 16,-35 35,-35 19,0 35,15 35,35 0,19 -16,34 -35,34z"/>
                <path  fill="#999999" d="M167 78c0,-5 -4,-17 -19,-28 15,-13 19,-23 20,-29 11,8 15,19 15,29 0,9 -4,21 -16,28z"/>
                <path  fill="#999999" d="M136 37l12 13 -12 12c1,-8 2,-16 0,-25z"/>
                <path  fill="#CCCCCC" d="M148 50l13 12c-9,-2 -17,-2 -25,0l12 -12z"/>
                <path  fill="#999999" d="M148 50l13 -13c-2,8 -3,16 0,25l-13 -12z"/>
                <path  fill="#CCCCCC" d="M148 50l-12 -13c8,2 16,2 25,0l-13 13z"/>
                <path  fill="#CCCCCC" d="M148 55c-3,0 -5,-2 -5,-5 0,-4 2,-6 5,-6 3,0 6,2 6,6 0,4 -3,5 -6,5z"/>
                <path  fill="#E5E5E5" d="M148 55c-3,0 -5,-2 -5,-5 0,-2 0,-4 1,-5 -1,1 -1,3 -1,4 0,4 2,6 5,6 2,0 3,-1 4,-1 -1,1 -2,1 -4,1z"/>
                <path  fill="#666666" id="connector41pin" gorn="0.1.15.0.8" d="M144 46c1,-1 2,-2 4,-2 3,0 6,2 6,6 0,2 -1,3 -2,4 1,-1 1,-2 1,-4 0,-4 -2,-6 -5,-6 -2,0 -3,1 -4,2z"/>
            </g>
            <g  id="PIN_3" gorn="0.1.15.1">
                <path  fill="#B2B2B2" d="M248 84c-19,0 -35,-15 -35,-34 0,-20 16,-35 35,-35 19,0 35,15 35,35 0,19 -16,34 -35,34z"/>
                <path  fill="#999999" d="M267 78c0,-5 -4,-17 -19,-28 15,-13 19,-23 20,-29 11,8 15,19 15,29 0,9 -4,21 -16,28z"/>
                <path  fill="#999999" d="M236 37l12 13 -12 12c1,-8 2,-16 0,-25z"/>
                <path  fill="#CCCCCC" d="M248 50l13 12c-9,-2 -17,-2 -25,0l12 -12z"/>
                <path  fill="#999999" d="M248 50l13 -13c-2,8 -3,16 0,25l-13 -12z"/>
                <path  fill="#CCCCCC" d="M248 50l-12 -13c8,2 16,2 25,0l-13 13z"/>
                <path  fill="#CCCCCC" d="M248 55c-3,0 -5,-2 -5,-5 0,-4 2,-6 5,-6 3,0 6,2 6,6 0,4 -3,5 -6,5z"/>
                <path  fill="#E5E5E5" d="M248 55c-3,0 -5,-2 -5,-5 0,-2 0,-4 1,-5 -1,1 -1,3 -1,4 0,4 2,6 5,6 2,0 3,-1 4,-1 -1,1 -2,1 -4,1z"/>
                <path  fill="#666666" id="connector42pin" gorn="0.1.15.1.8" d="M244 46c1,-1 2,-2 4,-2 3,0 6,2 6,6 0,2 -1,3 -2,4 1,-1 1,-2 1,-4 0,-4 -2,-6 -5,-6 -2,0 -3,1 -4,2z"/>
            </g>
            <g  id="PIN_4" gorn="0.1.15.2">
                <path  fill="#B2B2B2" d="M348 84c-19,0 -35,-15 -35,-34 0,-20 16,-35 35,-35 19,0 35,15 35,35 0,19 -16,34 -35,34z"/>
                <path  fill="#999999" d="M367 78c0,-5 -4,-17 -19,-28 15,-13 19,-23 20,-29 11,8 15,19 15,29 0,9 -4,21 -16,28z"/>
                <path  fill="#999999" d="M336 37l12 13 -12 12c1,-8 2,-16 0,-25z"/>
                <path  fill="#CCCCCC" d="M348 50l13 12c-9,-2 -17,-2 -25,0l12 -12z"/>
                <path  fill="#999999" d="M348 50l13 -13c-2,8 -3,16 0,25l-13 -12z"/>
                <path  fill="#CCCCCC" d="M348 50l-12 -13c8,2 16,2 25,0l-13 13z"/>
                <path  fill="#CCCCCC" d="M348 55c-3,0 -5,-2 -5,-5 0,-4 2,-6 5,-6 3,0 6,2 6,6 0,4 -3,5 -6,5z"/>
                <path  fill="#E5E5E5" d="M348 55c-3,0 -5,-2 -5,-5 0,-2 0,-4 1,-5 -1,1 -1,3 -1,4 0,4 2,6 5,6 2,0 3,-1 4,-1 -1,1 -2,1 -4,1z"/>
                <path  fill="#666666" id="connector43pin" gorn="0.1.15.2.8" d="M344 46c1,-1 2,-2 4,-2 3,0 6,2 6,6 0,2 -1,3 -2,4 1,-1 1,-2 1,-4 0,-4 -2,-6 -5,-6 -2,0 -3,1 -4,2z"/>
            </g>
            <g  id="PIN_5" gorn="0.1.15.3">
                <path  fill="#B2B2B2" d="M448 84c-19,0 -35,-15 -35,-34 0,-20 16,-35 35,-35 19,0 35,15 35,35 0,19 -16,34 -35,34z"/>
                <path  fill="#999999" d="M467 78c0,-5 -4,-17 -19,-28 15,-13 19,-23 20,-29 11,8 15,19 15,29 0,9 -4,21 -16,28z"/>
                <path  fill="#999999" d="M436 37l12 13 -12 12c1,-8 2,-16 0,-25z"/>
                <path  fill="#CCCCCC" d="M448 50l13 12c-9,-2 -17,-2 -25,0l12 -12z"/>
                <path  fill="#999999" d="M448 50l13 -13c-2,8 -3,16 0,25l-13 -12z"/>
                <path  fill="#CCCCCC" d="M448 50l-12 -13c8,2 16,2 25,0l-13 13z"/>
                <path  fill="#CCCCCC" d="M448 55c-3,0 -5,-2 -5,-5 0,-4 2,-6 5,-6 3,0 6,2 6,6 0,4 -3,5 -6,5z"/>
                <path  fill="#E5E5E5" d="M448 55c-3,0 -5,-2 -5,-5 0,-2 0,-4 1,-5 -1,1 -1,3 -1,4 0,4 2,6 5,6 2,0 3,-1 4,-1 -1,1 -2,1 -4,1z"/>
                <path  fill="#666666" id="connector44pin" gorn="0.1.15.3.8" d="M444 46c1,-1 2,-2 4,-2 3,0 6,2 6,6 0,2 -1,3 -2,4 1,-1 1,-2 1,-4 0,-4 -2,-6 -5,-6 -2,0 -3,1 -4,2z"/>
            </g>
            <g  id="PIN_6" gorn="0.1.15.4">
                <path  fill="#B2B2B2" d="M548 84c-19,0 -35,-15 -35,-34 0,-20 16,-35 35,-35 19,0 35,15 35,35 0,19 -16,34 -35,34z"/>
                <path  fill="#999999" d="M567 78c0,-5 -4,-17 -19,-28 15,-13 19,-23 20,-29 11,8 15,19 15,29 0,9 -4,21 -16,28z"/>
                <path  fill="#999999" d="M536 37l12 13 -12 12c1,-8 2,-16 0,-25z"/>
                <path  fill="#CCCCCC" d="M548 50l13 12c-9,-2 -17,-2 -25,0l12 -12z"/>
                <path  fill="#999999" d="M548 50l13 -13c-2,8 -3,16 0,25l-13 -12z"/>
                <path  fill="#CCCCCC" d="M548 50l-12 -13c8,2 16,2 25,0l-13 13z"/>
                <path  fill="#CCCCCC" d="M548 55c-3,0 -5,-2 -5,-5 0,-4 2,-6 5,-6 3,0 6,2 6,6 0,4 -3,5 -6,5z"/>
                <path  fill="#E5E5E5" d="M548 55c-3,0 -5,-2 -5,-5 0,-2 0,-4 1,-5 -1,1 -1,3 -1,4 0,4 2,6 5,6 2,0 3,-1 4,-1 -1,1 -2,1 -4,1z"/>
                <path  fill="#666666" id="connector45pin" gorn="0.1.15.4.8" d="M544 46c1,-1 2,-2 4,-2 3,0 6,2 6,6 0,2 -1,3 -2,4 1,-1 1,-2 1,-4 0,-4 -2,-6 -5,-6 -2,0 -3,1 -4,2z"/>
            </g>
            <g  id="PIN_7" gorn="0.1.15.5">
                <path  fill="#B2B2B2" d="M648 84c-19,0 -35,-15 -35,-34 0,-20 16,-35 35,-35 19,0 35,15 35,35 0,19 -16,34 -35,34z"/>
                <path  fill="#999999" d="M667 78c0,-5 -4,-17 -19,-28 15,-13 19,-23 20,-29 11,8 15,19 15,29 0,9 -4,21 -16,28z"/>
                <path  fill="#999999" d="M636 37l12 13 -12 12c1,-8 2,-16 0,-25z"/>
                <path  fill="#CCCCCC" d="M648 50l13 12c-9,-2 -17,-2 -25,0l12 -12z"/>
                <path  fill="#999999" d="M648 50l13 -13c-2,8 -3,16 0,25l-13 -12z"/>
                <path  fill="#CCCCCC" d="M648 50l-12 -13c8,2 16,2 25,0l-13 13z"/>
                <path  fill="#CCCCCC" d="M648 55c-3,0 -5,-2 -5,-5 0,-4 2,-6 5,-6 3,0 6,2 6,6 0,4 -3,5 -6,5z"/>
                <path  fill="#E5E5E5" d="M648 55c-3,0 -5,-2 -5,-5 0,-2 0,-4 1,-5 -1,1 -1,3 -1,4 0,4 2,6 5,6 2,0 3,-1 4,-1 -1,1 -2,1 -4,1z"/>
                <path  fill="#666666" id="connector46pin" gorn="0.1.15.5.8" d="M644 46c1,-1 2,-2 4,-2 3,0 6,2 6,6 0,2 -1,3 -2,4 1,-1 1,-2 1,-4 0,-4 -2,-6 -5,-6 -2,0 -3,1 -4,2z"/>
            </g>
            <g  id="PIN_8" gorn="0.1.15.6">
                <path  fill="#B2B2B2" d="M748 84c-19,0 -35,-15 -35,-34 0,-20 16,-35 35,-35 19,0 35,15 35,35 0,19 -16,34 -35,34z"/>
                <path  fill="#999999" d="M767 78c0,-5 -4,-17 -19,-28 15,-13 19,-23 20,-29 11,8 15,19 15,29 0,9 -4,21 -16,28z"/>
                <path  fill="#999999" d="M736 37l12 13 -12 12c1,-8 2,-16 0,-25z"/>
                <path  fill="#CCCCCC" d="M748 50l13 12c-9,-2 -17,-2 -25,0l12 -12z"/>
                <path  fill="#999999" d="M748 50l13 -13c-2,8 -3,16 0,25l-13 -12z"/>
                <path  fill="#CCCCCC" d="M748 50l-12 -13c8,2 16,2 25,0l-13 13z"/>
                <path  fill="#CCCCCC" d="M748 55c-3,0 -5,-2 -5,-5 0,-4 2,-6 5,-6 3,0 6,2 6,6 0,4 -3,5 -6,5z"/>
                <path  fill="#E5E5E5" d="M748 55c-3,0 -5,-2 -5,-5 0,-2 0,-4 1,-5 -1,1 -1,3 -1,4 0,4 2,6 5,6 2,0 3,-1 4,-1 -1,1 -2,1 -4,1z"/>
                <path  fill="#666666" id="connector47pin" gorn="0.1.15.6.8" d="M744 46c1,-1 2,-2 4,-2 3,0 6,2 6,6 0,2 -1,3 -2,4 1,-1 1,-2 1,-4 0,-4 -2,-6 -5,-6 -2,0 -3,1 -4,2z"/>
            </g>
            <g  id="PIN_9" gorn="0.1.15.7">
                <path  fill="#B2B2B2" d="M848 84c-19,0 -35,-15 -35,-34 0,-20 16,-35 35,-35 19,0 35,15 35,35 0,19 -16,34 -35,34z"/>
                <path  fill="#999999" d="M867 78c0,-5 -4,-17 -19,-28 15,-13 19,-23 20,-29 11,8 15,19 15,29 0,9 -4,21 -16,28z"/>
                <path  fill="#999999" d="M836 37l12 13 -12 12c1,-8 2,-16 0,-25z"/>
                <path  fill="#CCCCCC" d="M848 50l13 12c-9,-2 -17,-2 -25,0l12 -12z"/>
                <path  fill="#999999" d="M848 50l13 -13c-2,8 -3,16 0,25l-13 -12z"/>
                <path  fill="#CCCCCC" d="M848 50l-12 -13c8,2 16,2 25,0l-13 13z"/>
                <path  fill="#CCCCCC" d="M848 55c-3,0 -5,-2 -5,-5 0,-4 2,-6 5,-6 3,0 6,2 6,6 0,4 -3,5 -6,5z"/>
                <path  fill="#E5E5E5" d="M848 55c-3,0 -5,-2 -5,-5 0,-2 0,-4 1,-5 -1,1 -1,3 -1,4 0,4 2,6 5,6 2,0 3,-1 4,-1 -1,1 -2,1 -4,1z"/>
                <path  fill="#666666" id="connector48pin" gorn="0.1.15.7.8" d="M844 46c1,-1 2,-2 4,-2 3,0 6,2 6,6 0,2 -1,3 -2,4 1,-1 1,-2 1,-4 0,-4 -2,-6 -5,-6 -2,0 -3,1 -4,2z"/>
            </g>
            <g  id="PIN_10" gorn="0.1.15.8">
                <path  fill="#B2B2B2" d="M948 84c-19,0 -35,-15 -35,-34 0,-20 16,-35 35,-35 19,0 35,15 35,35 0,19 -16,34 -35,34z"/>
                <path  fill="#999999" d="M967 78c0,-5 -4,-17 -19,-28 15,-13 19,-23 20,-29 11,8 15,19 15,29 0,9 -4,21 -16,28z"/>
                <path  fill="#999999" d="M936 37l12 13 -12 12c1,-8 2,-16 0,-25z"/>
                <path  fill="#CCCCCC" d="M948 50l13 12c-9,-2 -17,-2 -25,0l12 -12z"/>
                <path  fill="#999999" d="M948 50l13 -13c-2,8 -3,16 0,25l-13 -12z"/>
                <path  fill="#CCCCCC" d="M948 50l-12 -13c8,2 16,2 25,0l-13 13z"/>
                <path  fill="#CCCCCC" d="M948 55c-3,0 -5,-2 -5,-5 0,-4 2,-6 5,-6 3,0 6,2 6,6 0,4 -3,5 -6,5z"/>
                <path  fill="#E5E5E5" d="M948 55c-3,0 -5,-2 -5,-5 0,-2 0,-4 1,-5 -1,1 -1,3 -1,4 0,4 2,6 5,6 2,0 3,-1 4,-1 -1,1 -2,1 -4,1z"/>
                <path  fill="#666666" id="connector49pin" gorn="0.1.15.8.8" d="M944 46c1,-1 2,-2 4,-2 3,0 6,2 6,6 0,2 -1,3 -2,4 1,-1 1,-2 1,-4 0,-4 -2,-6 -5,-6 -2,0 -3,1 -4,2z"/>
            </g>
            <g  id="PIN_11" gorn="0.1.15.9">
                <path  fill="#B2B2B2" d="M1048 84c-19,0 -35,-15 -35,-34 0,-20 16,-35 35,-35 19,0 35,15 35,35 0,19 -16,34 -35,34z"/>
                <path  fill="#999999" d="M1067 78c0,-5 -4,-17 -19,-28 15,-13 19,-23 20,-29 11,8 15,19 15,29 0,9 -4,21 -16,28z"/>
                <path  fill="#999999" d="M1036 37l12 13 -12 12c1,-8 2,-16 0,-25z"/>
                <path  fill="#CCCCCC" d="M1048 50l13 12c-9,-2 -17,-2 -25,0l12 -12z"/>
                <path  fill="#999999" d="M1048 50l13 -13c-2,8 -3,16 0,25l-13 -12z"/>
                <path  fill="#CCCCCC" d="M1048 50l-12 -13c8,2 16,2 25,0l-13 13z"/>
                <path  fill="#CCCCCC" d="M1048 55c-3,0 -5,-2 -5,-5 0,-4 2,-6 5,-6 3,0 6,2 6,6 0,4 -3,5 -6,5z"/>
                <path  fill="#E5E5E5" d="M1048 55c-3,0 -5,-2 -5,-5 0,-2 0,-4 1,-5 -1,1 -1,3 -1,4 0,4 2,6 5,6 2,0 3,-1 4,-1 -1,1 -2,1 -4,1z"/>
                <path  fill="#666666" id="connector50pin" gorn="0.1.15.9.8" d="M1044 46c1,-1 2,-2 4,-2 3,0 6,2 6,6 0,2 -1,3 -2,4 1,-1 1,-2 1,-4 0,-4 -2,-6 -5,-6 -2,0 -3,1 -4,2z"/>
            </g>
            <g  id="PIN_12" gorn="0.1.15.10">
                <path  fill="#B2B2B2" d="M1148 84c-19,0 -35,-15 -35,-34 0,-20 16,-35 35,-35 19,0 35,15 35,35 0,19 -16,34 -35,34z"/>
                <path  fill="#999999" d="M1167 78c0,-5 -4,-17 -19,-28 15,-13 19,-23 20,-29 11,8 15,19 15,29 0,9 -4,21 -16,28z"/>
                <path  fill="#999999" d="M1136 37l12 13 -12 12c1,-8 2,-16 0,-25z"/>
                <path  fill="#CCCCCC" d="M1148 50l13 12c-9,-2 -17,-2 -25,0l12 -12z"/>
                <path  fill="#999999" d="M1148 50l13 -13c-2,8 -3,16 0,25l-13 -12z"/>
                <path  fill="#CCCCCC" d="M1148 50l-12 -13c8,2 16,2 25,0l-13 13z"/>
                <path  fill="#CCCCCC" d="M1148 55c-3,0 -5,-2 -5,-5 0,-4 2,-6 5,-6 3,0 6,2 6,6 0,4 -3,5 -6,5z"/>
                <path  fill="#E5E5E5" d="M1148 55c-3,0 -5,-2 -5,-5 0,-2 0,-4 1,-5 -1,1 -1,3 -1,4 0,4 2,6 5,6 2,0 3,-1 4,-1 -1,1 -2,1 -4,1z"/>
                <path  fill="#666666" id="connector51pin" gorn="0.1.15.10.8" d="M1144 46c1,-1 2,-2 4,-2 3,0 6,2 6,6 0,2 -1,3 -2,4 1,-1 1,-2 1,-4 0,-4 -2,-6 -5,-6 -2,0 -3,1 -4,2z"/>
            </g>
            <g  id="PIN_13" gorn="0.1.15.11">
                <path  fill="#B2B2B2" d="M1248 84c-19,0 -35,-15 -35,-34 0,-20 16,-35 35,-35 19,0 35,15 35,35 0,19 -16,34 -35,34z"/>
                <path  fill="#999999" d="M1267 78c0,-5 -4,-17 -19,-28 15,-13 19,-23 20,-29 11,8 15,19 15,29 0,9 -4,21 -16,28z"/>
                <path  fill="#999999" d="M1236 37l12 13 -12 12c1,-8 2,-16 0,-25z"/>
                <path  fill="#CCCCCC" d="M1248 50l13 12c-9,-2 -17,-2 -25,0l12 -12z"/>
                <path  fill="#999999" d="M1248 50l13 -13c-2,8 -3,16 0,25l-13 -12z"/>
                <path  fill="#CCCCCC" d="M1248 50l-12 -13c8,2 16,2 25,0l-13 13z"/>
                <path  fill="#CCCCCC" d="M1248 55c-3,0 -5,-2 -5,-5 0,-4 2,-6 5,-6 3,0 6,2 6,6 0,4 -3,5 -6,5z"/>
                <path  fill="#E5E5E5" d="M1248 55c-3,0 -5,-2 -5,-5 0,-2 0,-4 1,-5 -1,1 -1,3 -1,4 0,4 2,6 5,6 2,0 3,-1 4,-1 -1,1 -2,1 -4,1z"/>
                <path  fill="#666666" id="connector52pin" gorn="0.1.15.11.8" d="M1244 46c1,-1 2,-2 4,-2 3,0 6,2 6,6 0,2 -1,3 -2,4 1,-1 1,-2 1,-4 0,-4 -2,-6 -5,-6 -2,0 -3,1 -4,2z"/>
            </g>
            <g  id="PIN_14" gorn="0.1.15.12">
                <path  fill="#B2B2B2" d="M148 784c-19,0 -35,-15 -35,-34 0,-20 16,-35 35,-35 19,0 35,15 35,35 0,19 -16,34 -35,34z"/>
                <path  fill="#999999" d="M167 778c0,-5 -4,-17 -19,-28 15,-13 19,-23 20,-29 11,8 15,19 15,29 0,9 -4,21 -16,28z"/>
                <path  fill="#999999" d="M136 737l12 13 -12 12c1,-8 2,-17 0,-25z"/>
                <path  fill="#CCCCCC" d="M148 750l13 12c-9,-2 -17,-2 -25,0l12 -12z"/>
                <path  fill="#999999" d="M148 750l13 -13c-2,8 -3,16 0,25l-13 -12z"/>
                <path  fill="#CCCCCC" d="M148 750l-12 -13c8,2 16,2 25,0l-13 13z"/>
                <path  fill="#CCCCCC" d="M148 755c-3,0 -5,-2 -5,-5 0,-4 2,-6 5,-6 3,0 6,2 6,6 0,3 -3,5 -6,5z"/>
                <path  fill="#E5E5E5" d="M148 755c-3,0 -5,-2 -5,-5 0,-2 0,-4 1,-5 -1,1 -1,2 -1,4 0,4 2,6 5,6 2,0 3,-1 4,-2 -1,2 -2,2 -4,2z"/>
                <path  fill="#666666" id="connector53pin" gorn="0.1.15.12.8" d="M144 746c1,-1 2,-2 4,-2 3,0 6,2 6,6 0,1 -1,3 -2,4 1,-1 1,-2 1,-4 0,-4 -2,-6 -5,-6 -2,0 -3,1 -4,2z"/>
            </g>
            <g  id="PIN_15" gorn="0.1.15.13">
                <path  fill="#B2B2B2" d="M248 784c-19,0 -35,-15 -35,-34 0,-20 16,-35 35,-35 19,0 35,15 35,35 0,19 -16,34 -35,34z"/>
                <path  fill="#999999" d="M267 778c0,-5 -4,-17 -19,-28 15,-13 19,-23 20,-29 11,8 15,19 15,29 0,9 -4,21 -16,28z"/>
                <path  fill="#999999" d="M236 737l12 13 -12 12c1,-8 2,-17 0,-25z"/>
                <path  fill="#CCCCCC" d="M248 750l13 12c-9,-2 -17,-2 -25,0l12 -12z"/>
                <path  fill="#999999" d="M248 750l13 -13c-2,8 -3,16 0,25l-13 -12z"/>
                <path  fill="#CCCCCC" d="M248 750l-12 -13c8,2 16,2 25,0l-13 13z"/>
                <path  fill="#CCCCCC" d="M248 755c-3,0 -5,-2 -5,-5 0,-4 2,-6 5,-6 3,0 6,2 6,6 0,3 -3,5 -6,5z"/>
                <path  fill="#E5E5E5" d="M248 755c-3,0 -5,-2 -5,-5 0,-2 0,-4 1,-5 -1,1 -1,2 -1,4 0,4 2,6 5,6 2,0 3,-1 4,-2 -1,2 -2,2 -4,2z"/>
                <path  fill="#666666" id="connector54pin" gorn="0.1.15.13.8" d="M244 746c1,-1 2,-2 4,-2 3,0 6,2 6,6 0,1 -1,3 -2,4 1,-1 1,-2 1,-4 0,-4 -2,-6 -5,-6 -2,0 -3,1 -4,2z"/>
            </g>
            <g  id="PIN_16" gorn="0.1.15.14">
                <path  fill="#B2B2B2" d="M348 784c-19,0 -35,-15 -35,-34 0,-20 16,-35 35,-35 19,0 35,15 35,35 0,19 -16,34 -35,34z"/>
                <path  fill="#999999" d="M367 778c0,-5 -4,-17 -19,-28 15,-13 19,-23 20,-29 11,8 15,19 15,29 0,9 -4,21 -16,28z"/>
                <path  fill="#999999" d="M336 737l12 13 -12 12c1,-8 2,-17 0,-25z"/>
                <path  fill="#CCCCCC" d="M348 750l13 12c-9,-2 -17,-2 -25,0l12 -12z"/>
                <path  fill="#999999" d="M348 750l13 -13c-2,8 -3,16 0,25l-13 -12z"/>
                <path  fill="#CCCCCC" d="M348 750l-12 -13c8,2 16,2 25,0l-13 13z"/>
                <path  fill="#CCCCCC" d="M348 755c-3,0 -5,-2 -5,-5 0,-4 2,-6 5,-6 3,0 6,2 6,6 0,3 -3,5 -6,5z"/>
                <path  fill="#E5E5E5" d="M348 755c-3,0 -5,-2 -5,-5 0,-2 0,-4 1,-5 -1,1 -1,2 -1,4 0,4 2,6 5,6 2,0 3,-1 4,-2 -1,2 -2,2 -4,2z"/>
                <path  fill="#666666" id="connector55pin" gorn="0.1.15.14.8" d="M344 746c1,-1 2,-2 4,-2 3,0 6,2 6,6 0,1 -1,3 -2,4 1,-1 1,-2 1,-4 0,-4 -2,-6 -5,-6 -2,0 -3,1 -4,2z"/>
            </g>
            <g  id="PIN_17" gorn="0.1.15.15">
                <path  fill="#B2B2B2" d="M448 784c-19,0 -35,-15 -35,-34 0,-20 16,-35 35,-35 19,0 35,15 35,35 0,19 -16,34 -35,34z"/>
                <path  fill="#999999" d="M467 778c0,-5 -4,-17 -19,-28 15,-13 19,-23 20,-29 11,8 15,19 15,29 0,9 -4,21 -16,28z"/>
                <path  fill="#999999" d="M436 737l12 13 -12 12c1,-8 2,-17 0,-25z"/>
                <path  fill="#CCCCCC" d="M448 750l13 12c-9,-2 -17,-2 -25,0l12 -12z"/>
                <path  fill="#999999" d="M448 750l13 -13c-2,8 -3,16 0,25l-13 -12z"/>
                <path  fill="#CCCCCC" d="M448 750l-12 -13c8,2 16,2 25,0l-13 13z"/>
                <path  fill="#CCCCCC" d="M448 755c-3,0 -5,-2 -5,-5 0,-4 2,-6 5,-6 3,0 6,2 6,6 0,3 -3,5 -6,5z"/>
                <path  fill="#E5E5E5" d="M448 755c-3,0 -5,-2 -5,-5 0,-2 0,-4 1,-5 -1,1 -1,2 -1,4 0,4 2,6 5,6 2,0 3,-1 4,-2 -1,2 -2,2 -4,2z"/>
                <path  fill="#666666" id="connector56pin" gorn="0.1.15.15.8" d="M444 746c1,-1 2,-2 4,-2 3,0 6,2 6,6 0,1 -1,3 -2,4 1,-1 1,-2 1,-4 0,-4 -2,-6 -5,-6 -2,0 -3,1 -4,2z"/>
            </g>
            <g  id="PIN_18" gorn="0.1.15.16">
                <path  fill="#B2B2B2" d="M548 784c-19,0 -35,-15 -35,-34 0,-20 16,-35 35,-35 19,0 35,15 35,35 0,19 -16,34 -35,34z"/>
                <path  fill="#999999" d="M567 778c0,-5 -4,-17 -19,-28 15,-13 19,-23 20,-29 11,8 15,19 15,29 0,9 -4,21 -16,28z"/>
                <path  fill="#999999" d="M536 737l12 13 -12 12c1,-8 2,-17 0,-25z"/>
                <path  fill="#CCCCCC" d="M548 750l13 12c-9,-2 -17,-2 -25,0l12 -12z"/>
                <path  fill="#999999" d="M548 750l13 -13c-2,8 -3,16 0,25l-13 -12z"/>
                <path  fill="#CCCCCC" d="M548 750l-12 -13c8,2 16,2 25,0l-13 13z"/>
                <path  fill="#CCCCCC" d="M548 755c-3,0 -5,-2 -5,-5 0,-4 2,-6 5,-6 3,0 6,2 6,6 0,3 -3,5 -6,5z"/>
                <path  fill="#E5E5E5" d="M548 755c-3,0 -5,-2 -5,-5 0,-2 0,-4 1,-5 -1,1 -1,2 -1,4 0,4 2,6 5,6 2,0 3,-1 4,-2 -1,2 -2,2 -4,2z"/>
                <path  fill="#666666" id="connector57pin" gorn="0.1.15.16.8" d="M544 746c1,-1 2,-2 4,-2 3,0 6,2 6,6 0,1 -1,3 -2,4 1,-1 1,-2 1,-4 0,-4 -2,-6 -5,-6 -2,0 -3,1 -4,2z"/>
            </g>
            <g  id="PIN_19" gorn="0.1.15.17">
                <path  fill="#B2B2B2" d="M648 784c-19,0 -35,-15 -35,-34 0,-20 16,-35 35,-35 19,0 35,15 35,35 0,19 -16,34 -35,34z"/>
                <path  fill="#999999" d="M667 778c0,-5 -4,-17 -19,-28 15,-13 19,-23 20,-29 11,8 15,19 15,29 0,9 -4,21 -16,28z"/>
                <path  fill="#999999" d="M636 737l12 13 -12 12c1,-8 2,-17 0,-25z"/>
                <path  fill="#CCCCCC" d="M648 750l13 12c-9,-2 -17,-2 -25,0l12 -12z"/>
                <path  fill="#999999" d="M648 750l13 -13c-2,8 -3,16 0,25l-13 -12z"/>
                <path  fill="#CCCCCC" d="M648 750l-12 -13c8,2 16,2 25,0l-13 13z"/>
                <path  fill="#CCCCCC" d="M648 755c-3,0 -5,-2 -5,-5 0,-4 2,-6 5,-6 3,0 6,2 6,6 0,3 -3,5 -6,5z"/>
                <path  fill="#E5E5E5" d="M648 755c-3,0 -5,-2 -5,-5 0,-2 0,-4 1,-5 -1,1 -1,2 -1,4 0,4 2,6 5,6 2,0 3,-1 4,-2 -1,2 -2,2 -4,2z"/>
                <path  fill="#666666" id="connector58pin" gorn="0.1.15.17.8" d="M644 746c1,-1 2,-2 4,-2 3,0 6,2 6,6 0,1 -1,3 -2,4 1,-1 1,-2 1,-4 0,-4 -2,-6 -5,-6 -2,0 -3,1 -4,2z"/>
            </g>
            <g  id="PIN_20" gorn="0.1.15.18">
                <path  fill="#B2B2B2" d="M748 784c-19,0 -35,-15 -35,-34 0,-20 16,-35 35,-35 19,0 35,15 35,35 0,19 -16,34 -35,34z"/>
                <path  fill="#999999" d="M767 778c0,-5 -4,-17 -19,-28 15,-13 19,-23 20,-29 11,8 15,19 15,29 0,9 -4,21 -16,28z"/>
                <path  fill="#999999" d="M736 737l12 13 -12 12c1,-8 2,-17 0,-25z"/>
                <path  fill="#CCCCCC" d="M748 750l13 12c-9,-2 -17,-2 -25,0l12 -12z"/>
                <path  fill="#999999" d="M748 750l13 -13c-2,8 -3,16 0,25l-13 -12z"/>
                <path  fill="#CCCCCC" d="M748 750l-12 -13c8,2 16,2 25,0l-13 13z"/>
                <path  fill="#CCCCCC" d="M748 755c-3,0 -5,-2 -5,-5 0,-4 2,-6 5,-6 3,0 6,2 6,6 0,3 -3,5 -6,5z"/>
                <path  fill="#E5E5E5" d="M748 755c-3,0 -5,-2 -5,-5 0,-2 0,-4 1,-5 -1,1 -1,2 -1,4 0,4 2,6 5,6 2,0 3,-1 4,-2 -1,2 -2,2 -4,2z"/>
                <path  fill="#666666" id="connector59pin" gorn="0.1.15.18.8" d="M744 746c1,-1 2,-2 4,-2 3,0 6,2 6,6 0,1 -1,3 -2,4 1,-1 1,-2 1,-4 0,-4 -2,-6 -5,-6 -2,0 -3,1 -4,2z"/>
            </g>
            <g  id="PIN_21" gorn="0.1.15.19">
                <path  fill="#B2B2B2" d="M848 784c-19,0 -35,-15 -35,-34 0,-20 16,-35 35,-35 19,0 35,15 35,35 0,19 -16,34 -35,34z"/>
                <path  fill="#999999" d="M867 778c0,-5 -4,-17 -19,-28 15,-13 19,-23 20,-29 11,8 15,19 15,29 0,9 -4,21 -16,28z"/>
                <path  fill="#999999" d="M836 737l12 13 -12 12c1,-8 2,-17 0,-25z"/>
                <path  fill="#CCCCCC" d="M848 750l13 12c-9,-2 -17,-2 -25,0l12 -12z"/>
                <path  fill="#999999" d="M848 750l13 -13c-2,8 -3,16 0,25l-13 -12z"/>
                <path  fill="#CCCCCC" d="M848 750l-12 -13c8,2 16,2 25,0l-13 13z"/>
                <path  fill="#CCCCCC" d="M848 755c-3,0 -5,-2 -5,-5 0,-4 2,-6 5,-6 3,0 6,2 6,6 0,3 -3,5 -6,5z"/>
                <path  fill="#E5E5E5" d="M848 755c-3,0 -5,-2 -5,-5 0,-2 0,-4 1,-5 -1,1 -1,2 -1,4 0,4 2,6 5,6 2,0 3,-1 4,-2 -1,2 -2,2 -4,2z"/>
                <path  fill="#666666" id="connector60pin" gorn="0.1.15.19.8" d="M844 746c1,-1 2,-2 4,-2 3,0 6,2 6,6 0,1 -1,3 -2,4 1,-1 1,-2 1,-4 0,-4 -2,-6 -5,-6 -2,0 -3,1 -4,2z"/>
            </g>
            <g  id="PIN_22" gorn="0.1.15.20">
                <path  fill="#B2B2B2" d="M948 784c-19,0 -35,-15 -35,-34 0,-20 16,-35 35,-35 19,0 35,15 35,35 0,19 -16,34 -35,34z"/>
                <path  fill="#999999" d="M967 778c0,-5 -4,-17 -19,-28 15,-13 19,-23 20,-29 11,8 15,19 15,29 0,9 -4,21 -16,28z"/>
                <path  fill="#999999" d="M936 737l12 13 -12 12c1,-8 2,-17 0,-25z"/>
                <path  fill="#CCCCCC" d="M948 750l13 12c-9,-2 -17,-2 -25,0l12 -12z"/>
                <path  fill="#999999" d="M948 750l13 -13c-2,8 -3,16 0,25l-13 -12z"/>
                <path  fill="#CCCCCC" d="M948 750l-12 -13c8,2 16,2 25,0l-13 13z"/>
                <path  fill="#CCCCCC" d="M948 755c-3,0 -5,-2 -5,-5 0,-4 2,-6 5,-6 3,0 6,2 6,6 0,3 -3,5 -6,5z"/>
                <path  fill="#E5E5E5" d="M948 755c-3,0 -5,-2 -5,-5 0,-2 0,-4 1,-5 -1,1 -1,2 -1,4 0,4 2,6 5,6 2,0 3,-1 4,-2 -1,2 -2,2 -4,2z"/>
                <path  fill="#666666" id="connector61pin" gorn="0.1.15.20.8" d="M944 746c1,-1 2,-2 4,-2 3,0 6,2 6,6 0,1 -1,3 -2,4 1,-1 1,-2 1,-4 0,-4 -2,-6 -5,-6 -2,0 -3,1 -4,2z"/>
            </g>
            <g  id="PIN_23" gorn="0.1.15.21">
                <path  fill="#B2B2B2" d="M1048 784c-19,0 -35,-15 -35,-34 0,-20 16,-35 35,-35 19,0 35,15 35,35 0,19 -16,34 -35,34z"/>
                <path  fill="#999999" d="M1067 778c0,-5 -4,-17 -19,-28 15,-13 19,-23 20,-29 11,8 15,19 15,29 0,9 -4,21 -16,28z"/>
                <path  fill="#999999" d="M1036 737l12 13 -12 12c1,-8 2,-17 0,-25z"/>
                <path  fill="#CCCCCC" d="M1048 750l13 12c-9,-2 -17,-2 -25,0l12 -12z"/>
                <path  fill="#999999" d="M1048 750l13 -13c-2,8 -3,16 0,25l-13 -12z"/>
                <path  fill="#CCCCCC" d="M1048 750l-12 -13c8,2 16,2 25,0l-13 13z"/>
                <path  fill="#CCCCCC" d="M1048 755c-3,0 -5,-2 -5,-5 0,-4 2,-6 5,-6 3,0 6,2 6,6 0,3 -3,5 -6,5z"/>
                <path  fill="#E5E5E5" d="M1048 755c-3,0 -5,-2 -5,-5 0,-2 0,-4 1,-5 -1,1 -1,2 -1,4 0,4 2,6 5,6 2,0 3,-1 4,-2 -1,2 -2,2 -4,2z"/>
                <path  fill="#666666" id="connector62pin" gorn="0.1.15.21.8" d="M1044 746c1,-1 2,-2 4,-2 3,0 6,2 6,6 0,1 -1,3 -2,4 1,-1 1,-2 1,-4 0,-4 -2,-6 -5,-6 -2,0 -3,1 -4,2z"/>
            </g>
            <g  id="PIN_24" gorn="0.1.15.22">
                <path  fill="#B2B2B2" d="M1148 784c-19,0 -35,-15 -35,-34 0,-20 16,-35 35,-35 19,0 35,15 35,35 0,19 -16,34 -35,34z"/>
                <path  fill="#999999" d="M1167 778c0,-5 -4,-17 -19,-28 15,-13 19,-23 20,-29 11,8 15,19 15,29 0,9 -4,21 -16,28z"/>
                <path  fill="#999999" d="M1136 737l12 13 -12 12c1,-8 2,-17 0,-25z"/>
                <path  fill="#CCCCCC" d="M1148 750l13 12c-9,-2 -17,-2 -25,0l12 -12z"/>
                <path  fill="#999999" d="M1148 750l13 -13c-2,8 -3,16 0,25l-13 -12z"/>
                <path  fill="#CCCCCC" d="M1148 750l-12 -13c8,2 16,2 25,0l-13 13z"/>
                <path  fill="#CCCCCC" d="M1148 755c-3,0 -5,-2 -5,-5 0,-4 2,-6 5,-6 3,0 6,2 6,6 0,3 -3,5 -6,5z"/>
                <path  fill="#E5E5E5" d="M1148 755c-3,0 -5,-2 -5,-5 0,-2 0,-4 1,-5 -1,1 -1,2 -1,4 0,4 2,6 5,6 2,0 3,-1 4,-2 -1,2 -2,2 -4,2z"/>
                <path  fill="#666666" id="connector63pin" gorn="0.1.15.22.8" d="M1144 746c1,-1 2,-2 4,-2 3,0 6,2 6,6 0,1 -1,3 -2,4 1,-1 1,-2 1,-4 0,-4 -2,-6 -5,-6 -2,0 -3,1 -4,2z"/>
            </g>
            <g  id="PIN_25" gorn="0.1.15.23">
                <path  fill="#B2B2B2" d="M1248 784c-19,0 -35,-15 -35,-34 0,-20 16,-35 35,-35 19,0 35,15 35,35 0,19 -16,34 -35,34z"/>
                <path  fill="#999999" d="M1267 778c0,-5 -4,-17 -19,-28 15,-13 19,-23 20,-29 11,8 15,19 15,29 0,9 -4,21 -16,28z"/>
                <path  fill="#999999" d="M1236 737l12 13 -12 12c1,-8 2,-17 0,-25z"/>
                <path  fill="#CCCCCC" d="M1248 750l13 12c-9,-2 -17,-2 -25,0l12 -12z"/>
                <path  fill="#999999" d="M1248 750l13 -13c-2,8 -3,16 0,25l-13 -12z"/>
                <path  fill="#CCCCCC" d="M1248 750l-12 -13c8,2 16,2 25,0l-13 13z"/>
                <path  fill="#CCCCCC" d="M1248 755c-3,0 -5,-2 -5,-5 0,-4 2,-6 5,-6 3,0 6,2 6,6 0,3 -3,5 -6,5z"/>
                <path  fill="#E5E5E5" d="M1248 755c-3,0 -5,-2 -5,-5 0,-2 0,-4 1,-5 -1,1 -1,2 -1,4 0,4 2,6 5,6 2,0 3,-1 4,-2 -1,2 -2,2 -4,2z"/>
                <path  fill="#666666" id="connector64pin" gorn="0.1.15.23.8" d="M1244 746c1,-1 2,-2 4,-2 3,0 6,2 6,6 0,1 -1,3 -2,4 1,-1 1,-2 1,-4 0,-4 -2,-6 -5,-6 -2,0 -3,1 -4,2z"/>
            </g>
            <g  id="castellated_top" gorn="0.1.15.24">
                <path  fill="#B2B2B2" d="M173 0c0,13 -11,25 -25,25 -14,0 -25,-12 -25,-25l12 0c0,7 6,12 13,12 7,0 13,-5 13,-12l12 0z"/>
                <path  fill="#B2B2B2" d="M273 0c0,13 -11,25 -25,25 -14,0 -25,-12 -25,-25l12 0c0,7 6,12 13,12 7,0 13,-5 13,-12l12 0z"/>
                <path  fill="#B2B2B2" d="M373 0c0,13 -11,25 -25,25 -14,0 -25,-12 -25,-25l12 0c0,7 6,12 13,12 7,0 13,-5 13,-12l12 0z"/>
                <path  fill="#B2B2B2" d="M473 0c0,13 -11,25 -25,25 -14,0 -25,-12 -25,-25l12 0c0,7 6,12 13,12 7,0 13,-5 13,-12l12 0z"/>
                <path  fill="#B2B2B2" d="M573 0c0,13 -11,25 -25,25 -14,0 -25,-12 -25,-25l12 0c0,7 6,12 13,12 7,0 13,-5 13,-12l12 0z"/>
                <path  fill="#B2B2B2" d="M673 0c0,13 -11,25 -25,25 -14,0 -25,-12 -25,-25l12 0c0,7 6,12 13,12 7,0 13,-5 13,-12l12 0z"/>
                <path  fill="#B2B2B2" d="M773 0c0,13 -11,25 -25,25 -14,0 -25,-12 -25,-25l12 0c0,7 6,12 13,12 7,0 13,-5 13,-12l12 0z"/>
                <path  fill="#B2B2B2" d="M873 0c0,13 -11,25 -25,25 -14,0 -25,-12 -25,-25l12 0c0,7 6,12 13,12 7,0 13,-5 13,-12l12 0z"/>
                <path  fill="#B2B2B2" d="M973 0c0,13 -11,25 -25,25 -14,0 -25,-12 -25,-25l12 0c0,7 6,12 13,12 7,0 13,-5 13,-12l12 0z"/>
                <path  fill="#B2B2B2" d="M1073 0c0,13 -11,25 -25,25 -14,0 -25,-12 -25,-25l12 0c0,7 6,12 13,12 7,0 13,-5 13,-12l12 0z"/>
                <path  fill="#B2B2B2" d="M1173 0c0,13 -11,25 -25,25 -14,0 -25,-12 -25,-25l12 0c0,7 6,12 13,12 7,0 13,-5 13,-12l12 0z"/>
                <path  fill="#B2B2B2" d="M1273 0c0,13 -11,25 -25,25 -14,0 -25,-12 -25,-25l12 0c0,7 6,12 13,12 7,0 13,-5 13,-12l12 0z"/>
            </g>
            <g  id="castellated_pin" gorn="0.1.15.25">
                <path  fill="#B2B2B2" d="M1223 794c0,-10 11,-19 25,-19 14,0 25,9 25,19l-12 0c0,-6 -6,-10 -13,-10 -7,0 -13,4 -13,10l-12 0z"/>
                <polygon  fill="#CCCCCC" points="1235,794 1223,794 1223,800 1235,800 "/>
                <polygon  fill="#CCCCCC" points="1273,794 1261,794 1261,800 1273,800 "/>
                <path  fill="#666666" d="M1261 800l0 -6 0 0c0,-6 -6,-10 -13,-10 -7,0 -13,4 -13,10l0 6c1,-5 6,-9 13,-9 7,0 13,4 13,9z"/>
            </g>
            <g  id="castellated_pin_26" gorn="0.1.15.26">
                <path  fill="#B2B2B2" d="M1123 794c0,-10 11,-19 25,-19 14,0 25,9 25,19l-12 0c0,-6 -6,-10 -13,-10 -7,0 -13,4 -13,10l-12 0z"/>
                <polygon  fill="#CCCCCC" points="1135,794 1123,794 1123,800 1135,800 "/>
                <polygon  fill="#CCCCCC" points="1173,794 1161,794 1161,800 1173,800 "/>
                <path  fill="#666666" d="M1161 800l0 -6 0 0c0,-6 -6,-10 -13,-10 -7,0 -13,4 -13,10l0 6c1,-5 6,-9 13,-9 7,0 13,4 13,9z"/>
            </g>
            <g  id="castellated_pin_27" gorn="0.1.15.27">
                <path  fill="#B2B2B2" d="M1023 794c0,-10 11,-19 25,-19 14,0 25,9 25,19l-12 0c0,-6 -6,-10 -13,-10 -7,0 -13,4 -13,10l-12 0z"/>
                <polygon  fill="#CCCCCC" points="1035,794 1023,794 1023,800 1035,800 "/>
                <polygon  fill="#CCCCCC" points="1073,794 1061,794 1061,800 1073,800 "/>
                <path  fill="#666666" d="M1061 800l0 -6 0 0c0,-6 -6,-10 -13,-10 -7,0 -13,4 -13,10l0 6c1,-5 6,-9 13,-9 7,0 13,4 13,9z"/>
            </g>
            <g  id="castellated_pin_28" gorn="0.1.15.28">
                <path  fill="#B2B2B2" d="M623 794c0,-10 11,-19 25,-19 14,0 25,9 25,19l-12 0c0,-6 -6,-10 -13,-10 -7,0 -13,4 -13,10l-12 0z"/>
                <polygon  fill="#CCCCCC" points="635,794 623,794 623,800 635,800 "/>
                <polygon  fill="#CCCCCC" points="673,794 661,794 661,800 673,800 "/>
                <path  fill="#666666" d="M661 800l0 -6 0 0c0,-6 -6,-10 -13,-10 -7,0 -13,4 -13,10l0 6c1,-5 6,-9 13,-9 7,0 13,4 13,9z"/>
            </g>
            <g  id="castellated_pin_29" gorn="0.1.15.29">
                <path  fill="#B2B2B2" d="M723 794c0,-10 11,-19 25,-19 14,0 25,9 25,19l-12 0c0,-6 -6,-10 -13,-10 -7,0 -13,4 -13,10l-12 0z"/>
                <polygon  fill="#CCCCCC" points="735,794 723,794 723,800 735,800 "/>
                <polygon  fill="#CCCCCC" points="773,794 761,794 761,800 773,800 "/>
                <path  fill="#666666" d="M761 800l0 -6 0 0c0,-6 -6,-10 -13,-10 -7,0 -13,4 -13,10l0 6c1,-5 6,-9 13,-9 7,0 13,4 13,9z"/>
            </g>
            <g  id="castellated_pin_30" gorn="0.1.15.30">
                <path  fill="#B2B2B2" d="M823 794c0,-10 11,-19 25,-19 14,0 25,9 25,19l-12 0c0,-6 -6,-10 -13,-10 -7,0 -13,4 -13,10l-12 0z"/>
                <polygon  fill="#CCCCCC" points="835,794 823,794 823,800 835,800 "/>
                <polygon  fill="#CCCCCC" points="873,794 861,794 861,800 873,800 "/>
                <path  fill="#666666" d="M861 800l0 -6 0 0c0,-6 -6,-10 -13,-10 -7,0 -13,4 -13,10l0 6c1,-5 6,-9 13,-9 7,0 13,4 13,9z"/>
            </g>
            <g  id="castellated_pin_31" gorn="0.1.15.31">
                <path  fill="#B2B2B2" d="M923 794c0,-10 11,-19 25,-19 14,0 25,9 25,19l-12 0c0,-6 -6,-10 -13,-10 -7,0 -13,4 -13,10l-12 0z"/>
                <polygon  fill="#CCCCCC" points="935,794 923,794 923,800 935,800 "/>
                <polygon  fill="#CCCCCC" points="973,794 961,794 961,800 973,800 "/>
                <path  fill="#666666" d="M961 800l0 -6 0 0c0,-6 -6,-10 -13,-10 -7,0 -13,4 -13,10l0 6c1,-5 6,-9 13,-9 7,0 13,4 13,9z"/>
            </g>
            <g  id="castellated_pin_32" gorn="0.1.15.32">
                <path  fill="#B2B2B2" d="M123 794c0,-10 11,-19 25,-19 14,0 25,9 25,19l-12 0c0,-6 -6,-10 -13,-10 -7,0 -13,4 -13,10l-12 0z"/>
                <polygon  fill="#CCCCCC" points="135,794 123,794 123,800 135,800 "/>
                <polygon  fill="#CCCCCC" points="173,794 161,794 161,800 173,800 "/>
                <path  fill="#666666" d="M161 800l0 -6 0 0c0,-6 -6,-10 -13,-10 -7,0 -13,4 -13,10l0 6c1,-5 6,-9 13,-9 7,0 13,4 13,9z"/>
            </g>
            <g  id="castellated_pin_33" gorn="0.1.15.33">
                <path  fill="#B2B2B2" d="M223 794c0,-10 11,-19 25,-19 14,0 25,9 25,19l-12 0c0,-6 -6,-10 -13,-10 -7,0 -13,4 -13,10l-12 0z"/>
                <polygon  fill="#CCCCCC" points="235,794 223,794 223,800 235,800 "/>
                <polygon  fill="#CCCCCC" points="273,794 261,794 261,800 273,800 "/>
                <path  fill="#666666" d="M261 800l0 -6 0 0c0,-6 -6,-10 -13,-10 -7,0 -13,4 -13,10l0 6c1,-5 6,-9 13,-9 7,0 13,4 13,9z"/>
            </g>
            <g  id="castellated_pin_34" gorn="0.1.15.34">
                <path  fill="#B2B2B2" d="M323 794c0,-10 11,-19 25,-19 14,0 25,9 25,19l-12 0c0,-6 -6,-10 -13,-10 -7,0 -13,4 -13,10l-12 0z"/>
                <polygon  fill="#CCCCCC" points="335,794 323,794 323,800 335,800 "/>
                <polygon  fill="#CCCCCC" points="373,794 361,794 361,800 373,800 "/>
                <path  fill="#666666" d="M361 800l0 -6 0 0c0,-6 -6,-10 -13,-10 -7,0 -13,4 -13,10l0 6c1,-5 6,-9 13,-9 7,0 13,4 13,9z"/>
            </g>
            <g  id="castellated_pin_35" gorn="0.1.15.35">
                <path  fill="#B2B2B2" d="M423 794c0,-10 11,-19 25,-19 14,0 25,9 25,19l-12 0c0,-6 -6,-10 -13,-10 -7,0 -13,4 -13,10l-12 0z"/>
                <polygon  fill="#CCCCCC" points="435,794 423,794 423,800 435,800 "/>
                <polygon  fill="#CCCCCC" points="473,794 461,794 461,800 473,800 "/>
                <path  fill="#666666" d="M461 800l0 -6 0 0c0,-6 -6,-10 -13,-10 -7,0 -13,4 -13,10l0 6c1,-5 6,-9 13,-9 7,0 13,4 13,9z"/>
            </g>
            <g  id="castellated_pin_36" gorn="0.1.15.36">
                <path  fill="#B2B2B2" d="M523 794c0,-10 11,-19 25,-19 14,0 25,9 25,19l-12 0c0,-6 -6,-10 -13,-10 -7,0 -13,4 -13,10l-12 0z"/>
                <polygon  fill="#CCCCCC" points="535,794 523,794 523,800 535,800 "/>
                <polygon  fill="#CCCCCC" points="573,794 561,794 561,800 573,800 "/>
                <path  fill="#666666" d="M561 800l0 -6 0 0c0,-6 -6,-10 -13,-10 -7,0 -13,4 -13,10l0 6c1,-5 6,-9 13,-9 7,0 13,4 13,9z"/>
            </g>
        </g>
    </g>
</svg>
