<?xml version='1.0' encoding='UTF-8' standalone='no'?>
<!-- Generator: Adobe Illustrator 13.0.2, SVG Export Plug-In . SVG Version: 6.00 Build 14948)  -->
  <svg
  xmlns="http://www.w3.org/2000/svg"
  xmlns:svg="http://www.w3.org/2000/svg"
  width="0.58166552in"
  xml:space="preserve"
  x="0px"
  version="1.1"
  y="0px"
  height="0.2849851in"
  viewBox="0 0 581.66551 284.98511"
  id="svg">
  <defs
    id="defs92">
  </defs>
  <g
    id="breadboard">
    <rect
      width="89.69413"
      x="243.13896"
      y="205.41594"
      fill="#bf7b00"
      height="20.83326"
      id="rect2"
      stroke-width="13.8888"
    />
    <rect
      width="65.388657"
      x="255.29173"
      y="224.26308"
      fill="#ffb600"
      height="10.361074"
      id="rect4"
      stroke-width="13.8888"
    />
    <rect
      width="7.3717914"
      x="574.2937"
      y="16.791607"
      height="49.749825"
      id="rect16"
      stroke-width="10.8048"
    />
    <rect
      width="13.608814"
      x="543.09174"
      y="16.791607"
      height="49.749825"
      id="rect18"
      stroke-width="10.8048"
    />
    <polygon
      fill="#101010"
      points="68.322,4.791 68.322,1.209 66.221,1.209 66.221,4.791 "
      id="polygon20"
      transform="matrix(8.4056911,0,0,13.888839,6.1962891e-6,0)"
    />
    <polygon
      fill="#202020"
      points="61.285,4.791 64.61,4.791 64.61,1.209 61.285,1.209 "
      id="polygon22"
      transform="matrix(8.4056911,0,0,13.888839,6.1962891e-6,0)"
    />
    <rect
      width="19.711348"
      x="495.43994"
      y="16.791607"
      height="49.749825"
      id="rect24"
      stroke-width="10.8048"
    />
    <rect
      width="23.973032"
      x="434.88525"
      y="16.791607"
      height="49.749825"
      id="rect26"
      stroke-width="10.8048"
    />
    <polygon
      fill="#303030"
      points="54.588,4.791 58.941,4.791 58.941,1.209 54.588,1.209 "
      id="polygon28"
      transform="matrix(8.4056911,0,0,13.888839,6.1962891e-6,0)"
    />
    <polygon
      fill="#404040"
      points="46.573,4.791 51.737,4.791 51.737,1.209 46.573,1.209 "
      id="polygon30"
      transform="matrix(8.4056911,0,0,13.888839,6.1962891e-6,0)"
    />
    <rect
      width="27.932114"
      x="363.5462"
      y="16.791607"
      height="49.749825"
      id="rect32"
      stroke-width="10.8048"
    />
    <rect
      width="29.924263"
      x="284.97815"
      y="16.791607"
      height="49.749825"
      id="rect34"
      stroke-width="10.8048"
    />
    <polygon
      fill="#515151"
      points="37.463,4.791 43.25,4.791 43.25,1.209 37.463,1.209 "
      id="polygon36"
      transform="matrix(8.4056911,0,0,13.888839,6.1962891e-6,0)"
    />
    <polygon
      fill="#515151"
      points="28.032,4.791 33.903,4.791 33.903,1.209 28.032,1.209 "
      id="polygon38"
      transform="matrix(8.4056911,0,0,13.888839,6.1962891e-6,0)"
    />
    <rect
      width="28.436455"
      x="207.26756"
      y="16.791607"
      height="49.749825"
      id="rect40"
      stroke-width="10.8048"
    />
    <rect
      width="24.460562"
      x="138.27364"
      y="16.791607"
      height="49.749825"
      id="rect42"
      stroke-width="10.8048"
    />
    <polygon
      fill="#404040"
      points="19.368,4.791 24.658,4.791 24.658,1.209 19.368,1.209 "
      id="polygon44"
      transform="matrix(8.4056911,0,0,13.888839,6.1962891e-6,0)"
    />
    <polygon
      fill="#303030"
      points="11.953,4.791 16.45,4.791 16.45,1.209 11.953,1.209 "
      id="polygon46"
      transform="matrix(8.4056911,0,0,13.888839,6.1962891e-6,0)"
    />
    <rect
      width="20.635973"
      x="79.770035"
      y="16.791607"
      height="49.749825"
      id="rect48"
      stroke-width="10.8048"
    />
    <rect
      width="14.743583"
      x="35.598114"
      y="16.791607"
      height="49.749825"
      id="rect50"
      stroke-width="10.8048"
    />
    <polygon
      fill="#202020"
      points="5.989,4.791 9.49,4.791 9.49,1.209 5.989,1.209 "
      id="polygon52"
      transform="matrix(8.4056911,0,0,13.888839,6.1962891e-6,0)"
    />
    <polygon
      fill="#101010"
      points="1.915,4.791 4.235,4.791 4.235,1.209 1.915,1.209 "
      id="polygon54"
      transform="matrix(8.4056911,0,0,13.888839,6.1962891e-6,0)"
    />
    <rect
      width="8.3720684"
      x="7.7248383"
      y="16.791607"
      height="49.749825"
      id="rect56"
      stroke-width="10.8048"
    />
    <rect
      width="7.7248311"
      x="0"
      y="16.791607"
      fill="#515151"
      height="49.749825"
      id="rect58"
      stroke-width="10.8048"
    />
    <rect
      width="425.19687"
      x="74.926529"
      y="67.007874"
      fill="#1e1e1e"
      height="138.8884"
      id="rect62"
      stroke-width="13.8888"
    />
    <rect
      width="78.319168"
      x="248.54173"
      y="115.86069"
      height="35.610981"
      id="rect68"
      stroke-width="13.8888"
    />
    <line
      opacity="0.2"
      fill="none"
      stroke="#ffffff"
      y1="155.62445"
      stroke-width="3.3611"
      x1="249.41673"
      y2="155.62445"
      x2="326.02753"
      id="line70"
    />
    <rect
      width="35.043327"
      x="273.28583"
      y="0"
      fill="#999999"
      height="16.791607"
      id="rect72"
      stroke-width="10.8048"
    />
    <rect
      width="29.888783"
      x="351.84601"
      y="192.08264"
      fill="#8c8c8c"
      height="92.902451"
      id="rect74"
      stroke-width="13.8888"
    />
    <rect
      width="29.916561"
      x="273.05554"
      y="192.08264"
      fill="#8c8c8c"
      height="92.902451"
      id="rect76"
      stroke-width="13.8888"
    />
    <rect
      width="29.888783"
      x="194.29625"
      y="192.08264"
      fill="#8c8c8c"
      height="92.902451"
      id="rect78"
      stroke-width="13.8888"
    />
    <rect
      width="51.277596"
      x="183.58794"
      y="162.19388"
      fill="#8c8c8c"
      height="74.458069"
      id="rect82"
      stroke-width="13.8888"
    />
    <rect
      width="51.291485"
      x="262.34723"
      y="162.19388"
      fill="#8c8c8c"
      height="74.458069"
      id="rect84"
      stroke-width="13.8888"
    />
    <rect
      width="51.291485"
      x="341.06824"
      y="162.19388"
      fill="#8c8c8c"
      height="74.458069"
      id="rect86"
      stroke-width="13.8888"
    />
    <rect
      width="29.888783"
      x="115.55611"
      y="192.08264"
      fill="#8c8c8c"
      height="92.902451"
      id="rect261"
      stroke-width="13.8888"
    />
    <rect
      width="51.277596"
      x="104.84779"
      y="162.19388"
      fill="#8c8c8c"
      height="74.458069"
      id="rect263"
      stroke-width="13.8888"
    />
    <rect
      width="29.888783"
      x="430.58618"
      y="192.08264"
      fill="#8c8c8c"
      height="92.902451"
      id="rect267"
      stroke-width="13.8888"
    />
    <rect
      width="51.291485"
      x="419.80841"
      y="162.19388"
      fill="#8c8c8c"
      height="74.458069"
      id="rect269"
      stroke-width="13.8888"
    />
    <rect
      width="29.888783"
      x="194.29625"
      y="253.95743"
      fill="none"
      height="31.027666"
      id="connector0pin"
      stroke-width="13.8888"
    />
    <rect
      width="29.916561"
      x="273.05554"
      y="253.95743"
      fill="none"
      height="31.027666"
      id="connector1pin"
      stroke-width="13.8888"
    />
    <rect
      width="29.888783"
      x="351.84601"
      y="253.95743"
      fill="none"
      height="31.027666"
      id="connector2pin"
      stroke-width="13.8888"
    />
    <rect
      width="29.888783"
      x="115.55611"
      y="253.95743"
      fill="none"
      height="31.027666"
      id="connector3pin"
      stroke-width="13.8888"
    />
    <rect
      width="29.888783"
      x="430.59583"
      y="253.95743"
      fill="none"
      height="31.027666"
      id="connector4pin"
      stroke-width="13.8888"
    />
  </g>
</svg>
