<?xml version="1.0" encoding="utf-8"?>
<!-- Generator: Adobe Illustrator 16.0.0, SVG Export Plug-In . SVG Version: 6.00 Build 0)  -->
<svg version="1.2" baseProfile="tiny" id="Layer_1" xmlns="http://www.w3.org/2000/svg" xmlns:xlink="http://www.w3.org/1999/xlink"
	 x="0px" y="0px" width="60.415px" height="53.256px" viewBox="0 0 60.415 53.256" xml:space="preserve">
<g id="breadboard">
	<rect id="connector0pin" x="4.165" y="14.51" fill="#FFBF00" width="1.75" height="1.75"/>
	<rect id="connector1pin" x="4.165" y="21.71" fill="#FFBF00" width="1.75" height="1.75"/>
	<rect id="connector2pin" x="4.165" y="28.909" fill="#FFBF00" width="1.75" height="1.75"/>
	<rect id="connector3pin" x="4.165" y="36.11" fill="#FFBF00" width="1.75" height="1.75"/>
	<rect id="connector4pin" x="54.564" y="14.51" fill="#FFBF00" width="1.75" height="1.75"/>
	<rect id="connector5pin" x="54.564" y="21.71" fill="#FFBF00" width="1.75" height="1.75"/>
	<rect id="connector6pin" x="54.564" y="28.909" fill="#FFBF00" width="1.75" height="1.75"/>
	<rect id="connector7pin" x="54.564" y="36.11" fill="#FFBF00" width="1.75" height="1.75"/>
	<g>
		<path fill="#013985" d="M5,1C2.25,1,0,3.25,0,6v42.256c0,2.75,2.25,5,5,5h50.415c2.75,0,5-2.25,5-5V6c0-2.75-2.25-5-5-5H5z
			 M6.29,51.989c-2.313,0-4.188-1.875-4.188-4.188c0-2.314,1.875-4.189,4.188-4.189s4.188,1.875,4.188,4.189
			C10.478,50.114,8.603,51.989,6.29,51.989z M6.29,11.24c-2.313,0-4.188-1.875-4.188-4.188c0-2.313,1.876-4.188,4.188-4.188
			s4.188,1.875,4.188,4.188C10.478,9.366,8.603,11.24,6.29,11.24z M54.54,51.989c-2.313,0-4.188-1.875-4.188-4.188
			c0-2.314,1.875-4.189,4.188-4.189c2.313,0,4.188,1.875,4.188,4.189C58.728,50.114,56.853,51.989,54.54,51.989z M54.54,11.24
			c-2.313,0-4.188-1.875-4.188-4.188c0-2.313,1.875-4.188,4.188-4.188c2.313,0,4.188,1.875,4.188,4.188
			C58.728,9.365,56.853,11.24,54.54,11.24z"/>
	</g>
	<g>
		<path fill="#014CB1" d="M5,0C2.25,0,0,2.25,0,5v42.256c0,2.75,2.25,5,5,5h50.415c2.75,0,5-2.25,5-5V5c0-2.75-2.25-5-5-5H5z
			 M6.29,50.989c-2.313,0-4.188-1.875-4.188-4.188c0-2.314,1.875-4.189,4.188-4.189s4.188,1.875,4.188,4.189
			C10.478,49.114,8.603,50.989,6.29,50.989z M6.29,10.24c-2.313,0-4.188-1.875-4.188-4.188c0-2.313,1.876-4.188,4.188-4.188
			s4.188,1.875,4.188,4.188C10.478,8.366,8.603,10.24,6.29,10.24z M54.54,50.989c-2.313,0-4.188-1.875-4.188-4.188
			c0-2.314,1.875-4.189,4.188-4.189c2.313,0,4.188,1.875,4.188,4.189C58.728,49.114,56.853,50.989,54.54,50.989z M54.54,10.24
			c-2.313,0-4.188-1.875-4.188-4.188c0-2.313,1.875-4.188,4.188-4.188c2.313,0,4.188,1.875,4.188,4.188
			C58.728,8.365,56.853,10.24,54.54,10.24z"/>
	</g>
	<g>
		<g>
			<circle fill="none" stroke="#CCCCCC" cx="37.622" cy="43.265" r="3.084"/>
			<circle fill="none" stroke="#CCCCCC" cx="22.815" cy="43.265" r="3.084"/>
			<circle fill="none" stroke="#CCCCCC" cx="37.622" cy="6.08" r="3.084"/>
			<circle fill="none" stroke="#CCCCCC" cx="22.815" cy="6.08" r="3.084"/>
		</g>
		<g>
			<circle fill="#B3B3B3" cx="37.622" cy="43.265" r="3.084"/>
			<circle fill="#B3B3B3" cx="22.815" cy="43.265" r="3.084"/>
			<circle fill="#B3B3B3" cx="37.622" cy="6.08" r="3.084"/>
			<circle fill="#B3B3B3" cx="22.815" cy="6.08" r="3.084"/>
		</g>
		<polygon fill="#333333" points="48.124,39.97 48.124,9.383 45.497,6.756 14.918,6.756 12.291,9.383 12.291,39.97 14.917,42.597 
			45.497,42.597 		"/>
		<polygon fill="#1A1A1A" points="48.124,39.97 45.497,42.597 14.917,42.597 12.291,39.97 12.291,40.97 14.917,43.597 
			45.497,43.597 48.124,40.97 		"/>
		<path fill="#999999" d="M45.504,37.479l-2.494,2.496H17.402l-2.494-2.496v-25.61l2.494-2.495h25.611l2.491,2.495V37.479
			L45.504,37.479z"/>
		<path fill="#666666" d="M14.908,38.286l2.494,2.496H43.01l2.494-2.496v-0.807l-2.494,2.496H17.402l-2.494-2.496V38.286z"/>
		<g>
			<g>
				<circle fill="#333333" cx="19.364" cy="13.831" r="2.651"/>
			</g>
			<g>
				<circle fill="#333333" cx="41.124" cy="13.878" r="2.651"/>
			</g>
			<g>
				<circle fill="#333333" cx="41.079" cy="35.636" r="2.65"/>
			</g>
			<g>
				<circle fill="#333333" cx="19.318" cy="35.588" r="2.649"/>
			</g>
		</g>
		<circle fill="#3F3F3F" cx="30.206" cy="24.674" r="8.924"/>
		<circle fill="#4D4D4D" cx="30.206" cy="24.674" r="8.924"/>
		<g>
			
			<g>
				<g>
					<path d="M22.021,14.033c0,1.46-1.184,2.643-2.645,2.643c-1.458,0-2.644-1.183-2.644-2.643v-0.23
						c0,1.46,1.186,2.643,2.644,2.643c1.46,0,2.645-1.183,2.645-2.643V14.033z"/>
				</g>
				<g>
					<path d="M43.725,14.08c0,1.458-1.186,2.644-2.645,2.644c-1.461,0-2.644-1.186-2.644-2.644v-0.23
						c0,1.458,1.183,2.644,2.644,2.644c1.459,0,2.645-1.186,2.645-2.644V14.08z"/>
				</g>
				<g>
					<path d="M38.391,35.552c0,1.459,1.184,2.643,2.643,2.643c1.461,0,2.645-1.184,2.645-2.643v0.229
						c0,1.461-1.184,2.645-2.645,2.645c-1.459,0-2.643-1.184-2.643-2.645V35.552z"/>
				</g>
				<g>
					<path d="M16.688,35.501c0,1.463,1.183,2.643,2.644,2.643c1.46,0,2.644-1.18,2.644-2.643v0.23c0,1.463-1.183,2.643-2.644,2.643
						s-2.644-1.18-2.644-2.643V35.501z"/>
				</g>
			</g>
			<g>
				<path fill="#262626" d="M30.191,15.717c4.916,0,8.901,3.985,8.901,8.902c0,4.911-3.985,8.897-8.901,8.897
					c-4.915,0-8.899-3.986-8.899-8.897C21.292,19.702,25.276,15.717,30.191,15.717z"/>
			</g>
			<g>
				
					<line fill="none" stroke="#333333" stroke-width="0" stroke-linecap="round" stroke-linejoin="round" x1="21.293" y1="24.59" x2="21.293" y2="24.648"/>
			</g>
			<g>
				<circle fill="#0D0D0D" cx="30.346" cy="25.674" r="7.832"/>
			</g>
			<g>
				<circle fill="#333333" cx="30.203" cy="24.67" r="7.633"/>
			</g>
			<g>
				<path fill="#999999" d="M19.036,13.664c0.052-0.124,0.147-0.22,0.284-0.244l-0.262-1.666c-0.1,0.017-0.206,0.003-0.304,0.034
					l-0.001-0.008c-0.616,0.19-1.078,0.65-1.313,1.236L19.036,13.664z"/>
			</g>
			<g>
				<path fill="#999999" d="M40.737,13.709c0.051-0.126,0.146-0.222,0.284-0.244l-0.257-1.667c-0.104,0.019-0.205,0.003-0.309,0.032
					l-0.004-0.009c-0.611,0.189-1.072,0.648-1.31,1.236L40.737,13.709z"/>
			</g>
			<g>
				<path fill="#999999" d="M40.693,35.41c0.052-0.126,0.146-0.224,0.284-0.244l-0.262-1.664c-0.1,0.021-0.205,0.004-0.303,0.034
					l-0.004-0.014c-0.615,0.188-1.076,0.647-1.311,1.235L40.693,35.41z"/>
			</g>
			<g>
				<path fill="#999999" d="M18.988,35.366c0.053-0.129,0.147-0.221,0.286-0.243l-0.261-1.668c-0.102,0.022-0.207,0.004-0.304,0.034
					l-0.003-0.008c-0.617,0.186-1.076,0.647-1.314,1.232L18.988,35.366z"/>
			</g>
			<g>
				<path fill="#858585" d="M32.934,17.555c-0.592-0.229-1.212-0.395-1.871-0.471c-1.641-0.182-3.209,0.181-4.549,0.925
					l-0.167,0.433c1.497-0.8,3.241-1.172,5.058-0.967c0.559,0.063,1.1,0.189,1.617,0.353L32.934,17.555z"/>
			</g>
		</g>
	</g>
	<g>
		<g>
			<rect x="4.144" y="36.085" fill="#CCCCCC" width="1.798" height="1.801"/>
			<polygon fill="#E6E6E6" points="3.292,35.235 4.144,36.085 5.938,36.085 6.787,35.235 			"/>
			<polygon fill="#999999" points="5.938,37.883 5.938,36.085 6.787,35.235 6.787,38.735 			"/>
			<polygon fill="#808080" points="4.144,37.883 5.938,37.883 6.787,38.735 3.292,38.735 			"/>
			<polygon fill="#B3B3B3" points="3.292,35.235 4.144,36.085 4.144,37.883 3.292,38.735 			"/>
		</g>
		<g>
			<rect x="4.144" y="28.886" fill="#CCCCCC" width="1.798" height="1.801"/>
			<polygon fill="#E6E6E6" points="3.292,28.035 4.144,28.886 5.938,28.886 6.787,28.035 			"/>
			<polygon fill="#999999" points="5.938,30.683 5.938,28.886 6.787,28.035 6.787,31.535 			"/>
			<polygon fill="#808080" points="4.144,30.683 5.938,30.683 6.787,31.535 3.292,31.535 			"/>
			<polygon fill="#B3B3B3" points="3.292,28.035 4.144,28.886 4.144,30.683 3.292,31.535 			"/>
		</g>
		<g>
			<rect x="4.144" y="21.685" fill="#CCCCCC" width="1.798" height="1.8"/>
			<polygon fill="#E6E6E6" points="3.292,20.835 4.144,21.685 5.938,21.685 6.787,20.835 			"/>
			<polygon fill="#999999" points="5.938,23.482 5.938,21.685 6.787,20.835 6.787,24.335 			"/>
			<polygon fill="#808080" points="4.144,23.482 5.938,23.482 6.787,24.335 3.292,24.335 			"/>
			<polygon fill="#B3B3B3" points="3.292,20.835 4.144,21.685 4.144,23.482 3.292,24.335 			"/>
		</g>
		<g>
			<rect x="4.144" y="14.485" fill="#CCCCCC" width="1.798" height="1.8"/>
			<polygon fill="#E6E6E6" points="3.292,13.635 4.144,14.485 5.938,14.485 6.787,13.635 			"/>
			<polygon fill="#999999" points="5.938,16.282 5.938,14.485 6.787,13.635 6.787,17.135 			"/>
			<polygon fill="#808080" points="4.144,16.282 5.938,16.282 6.787,17.135 3.292,17.135 			"/>
			<polygon fill="#B3B3B3" points="3.292,13.635 4.144,14.485 4.144,16.282 3.292,17.135 			"/>
		</g>
	</g>
	<g>
		<g>
			<rect x="54.543" y="36.085" fill="#CCCCCC" width="1.799" height="1.801"/>
			<polygon fill="#E6E6E6" points="53.692,35.235 54.543,36.085 56.338,36.085 57.188,35.235 			"/>
			<polygon fill="#999999" points="56.338,37.882 56.338,36.085 57.188,35.235 57.188,38.735 			"/>
			<polygon fill="#808080" points="54.543,37.882 56.338,37.882 57.188,38.735 53.692,38.735 			"/>
			<polygon fill="#B3B3B3" points="53.692,35.235 54.543,36.085 54.543,37.882 53.692,38.735 			"/>
		</g>
		<g>
			<rect x="54.543" y="28.886" fill="#CCCCCC" width="1.799" height="1.799"/>
			<polygon fill="#E6E6E6" points="53.692,28.035 54.543,28.886 56.338,28.886 57.188,28.035 			"/>
			<polygon fill="#999999" points="56.338,30.683 56.338,28.886 57.188,28.035 57.188,31.535 			"/>
			<polygon fill="#808080" points="54.543,30.683 56.338,30.683 57.188,31.535 53.692,31.535 			"/>
			<polygon fill="#B3B3B3" points="53.692,28.035 54.543,28.886 54.543,30.683 53.692,31.535 			"/>
		</g>
		<g>
			<rect x="54.543" y="21.685" fill="#CCCCCC" width="1.799" height="1.8"/>
			<polygon fill="#E6E6E6" points="53.692,20.835 54.543,21.685 56.338,21.685 57.188,20.835 			"/>
			<polygon fill="#999999" points="56.338,23.481 56.338,21.685 57.188,20.835 57.188,24.335 			"/>
			<polygon fill="#808080" points="54.543,23.481 56.338,23.481 57.188,24.335 53.692,24.335 			"/>
			<polygon fill="#B3B3B3" points="53.692,20.835 54.543,21.685 54.543,23.481 53.692,24.335 			"/>
		</g>
		<g>
			<rect x="54.543" y="14.484" fill="#CCCCCC" width="1.799" height="1.8"/>
			<polygon fill="#E6E6E6" points="53.692,13.635 54.543,14.484 56.338,14.484 57.188,13.635 			"/>
			<polygon fill="#999999" points="56.338,16.281 56.338,14.484 57.188,13.635 57.188,17.135 			"/>
			<polygon fill="#808080" points="54.543,16.281 56.338,16.281 57.188,17.135 53.692,17.135 			"/>
			<polygon fill="#B3B3B3" points="53.692,13.635 54.543,14.484 54.543,16.281 53.692,17.135 			"/>
		</g>
	</g>
	<polygon fill="#E6E6E6" points="19.493,42.972 26.125,42.972 24.963,43.831 20.313,43.831 	"/>
	<polygon fill="#E6E6E6" points="34.52,42.972 41.153,42.972 39.991,43.831 35.34,43.831 	"/>
	<text transform="matrix(1 0 0 1 7.3936 16.4458)" fill="#FFFFFF" font-family="'OCRAStd'" font-size="2">IN</text>
	<text transform="matrix(1 0 0 1 7.3936 23.646)" fill="#FFFFFF" font-family="'OCRAStd'" font-size="2">OUT</text>
	<text transform="matrix(1 0 0 1 7.3936 30.8457)" fill="#FFFFFF" font-family="'OCRAStd'" font-size="2">GND</text>
	<text transform="matrix(1 0 0 1 7.3936 38.0459)" fill="#FFFFFF" font-family="'OCRAStd'" font-size="2">OFF</text>
	<text transform="matrix(1 0 0 1 50.2134 16.7021)" fill="#FFFFFF" font-family="'OCRAStd'" font-size="2">IN</text>
	<text transform="matrix(1 0 0 1 48.7729 23.646)" fill="#FFFFFF" font-family="'OCRAStd'" font-size="2">OUT</text>
	<text transform="matrix(1 0 0 1 48.7729 30.8457)" fill="#FFFFFF" font-family="'OCRAStd'" font-size="2">GND</text>
	<text transform="matrix(1 0 0 1 48.7729 38.0459)" fill="#FFFFFF" font-family="'OCRAStd'" font-size="2">OFF</text>
</g>
</svg>
