<?xml version='1.0' encoding='utf-8'?>
<!DOCTYPE svg>
<!-- Generator: Adobe Illustrator 17.0.0, SVG Export Plug-In . SVG Version: 6.00 Build 0)  -->
<svg xmlns="http://www.w3.org/2000/svg" width="2.82939in" x="0px" version="1.1" y="0px" gorn="0"  height="1.492in" viewBox="0 0 203.716 107.424" xmlns:xml="http://www.w3.org/XML/1998/namespace" id="Layer_1" enable-background="new 0 0 203.716 107.424" xml:space="preserve">
    <desc >
        <referenceFile >OpenSegment_breadboard_green.svg</referenceFile>
    </desc>
    <desc >Fritzing breadboard generated by brd2svg</desc>
    <g gorn="0.2"  id="breadboard">
        <g gorn="0.2.0"  id="icon">
            <path fill="#E72D2F"  d="M150.832,0v107.424H50.608V0H150.832 M139.528,6.912c0,2.426,1.966,4.392,4.392,4.392s4.392-1.966,4.392-4.392c0.002-2.426-1.962-4.394-4.388-4.396s-4.394,1.962-4.396,4.388C139.528,6.907,139.528,6.909,139.528,6.912z M53.128,6.912c0,2.426,1.966,4.392,4.392,4.392s4.392-1.966,4.392-4.392S59.946,2.52,57.52,2.52S53.128,4.486,53.128,6.912z M139.528,100.512c0,2.426,1.966,4.392,4.392,4.392s4.392-1.966,4.392-4.392c0.002-2.426-1.962-4.394-4.388-4.396s-4.394,1.962-4.396,4.388C139.528,100.507,139.528,100.509,139.528,100.512z M53.128,100.512c0,2.426,1.966,4.392,4.392,4.392s4.392-1.966,4.392-4.392s-1.966-4.392-4.392-4.392C55.094,96.12,53.128,98.086,53.128,100.512z M68.32,1.857c-0.803,0-1.455,0.651-1.455,1.455s0.651,1.455,1.455,1.455s1.455-0.651,1.455-1.455S69.124,1.857,68.32,1.857z M75.52,1.857c-0.804,0-1.455,0.651-1.455,1.455s0.651,1.455,1.455,1.455c0.803,0,1.455-0.651,1.455-1.455S76.324,1.857,75.52,1.857z M82.695,1.857c-0.803,0-1.455,0.651-1.455,1.455s0.651,1.455,1.455,1.455s1.455-0.651,1.455-1.455S83.499,1.857,82.695,1.857z M89.895,1.857c-0.804,0-1.455,0.651-1.455,1.455s0.651,1.455,1.455,1.455c0.803,0,1.455-0.651,1.455-1.455S90.699,1.857,89.895,1.857z M97.12,1.857c-0.804,0-1.455,0.651-1.455,1.455s0.651,1.455,1.455,1.455s1.455-0.651,1.455-1.455S97.924,1.857,97.12,1.857z M104.32,1.857c-0.803,0-1.455,0.651-1.455,1.455s0.651,1.455,1.455,1.455s1.455-0.651,1.455-1.455S105.124,1.857,104.32,1.857z M111.526,1.857c-0.804,0-1.455,0.651-1.455,1.455s0.651,1.455,1.455,1.455s1.455-0.651,1.455-1.455S112.33,1.857,111.526,1.857z M118.726,1.857c-0.803,0-1.455,0.651-1.455,1.455s0.651,1.455,1.455,1.455s1.455-0.651,1.455-1.455S119.53,1.857,118.726,1.857z M125.901,1.857c-0.804,0-1.455,0.651-1.455,1.455s0.651,1.455,1.455,1.455c0.803,0,1.455-0.651,1.455-1.455S126.705,1.857,125.901,1.857z M133.101,1.857c-0.803,0-1.455,0.651-1.455,1.455s0.651,1.455,1.455,1.455s1.455-0.651,1.455-1.455S133.905,1.857,133.101,1.857z M68.32,102.657c-0.803,0-1.455,0.651-1.455,1.455s0.651,1.455,1.455,1.455s1.455-0.651,1.455-1.455S69.124,102.657,68.32,102.657z M75.52,102.657c-0.804,0-1.455,0.651-1.455,1.455s0.651,1.455,1.455,1.455c0.803,0,1.455-0.651,1.455-1.455S76.324,102.657,75.52,102.657z M82.695,102.657c-0.803,0-1.455,0.651-1.455,1.455s0.651,1.455,1.455,1.455s1.455-0.651,1.455-1.455S83.499,102.657,82.695,102.657z M89.895,102.657c-0.804,0-1.455,0.651-1.455,1.455s0.651,1.455,1.455,1.455c0.803,0,1.455-0.651,1.455-1.455S90.699,102.657,89.895,102.657z M97.12,102.657c-0.804,0-1.455,0.651-1.455,1.455s0.651,1.455,1.455,1.455s1.455-0.651,1.455-1.455S97.924,102.657,97.12,102.657z M104.32,102.657c-0.803,0-1.455,0.651-1.455,1.455s0.651,1.455,1.455,1.455s1.455-0.651,1.455-1.455S105.124,102.657,104.32,102.657z M111.526,102.657c-0.804,0-1.455,0.651-1.455,1.455s0.651,1.455,1.455,1.455s1.455-0.651,1.455-1.455S112.33,102.657,111.526,102.657z M118.726,102.657c-0.803,0-1.455,0.651-1.455,1.455s0.651,1.455,1.455,1.455s1.455-0.651,1.455-1.455S119.53,102.657,118.726,102.657z M125.901,102.657c-0.804,0-1.455,0.651-1.455,1.455s0.651,1.455,1.455,1.455c0.803,0,1.455-0.651,1.455-1.455C127.356,103.308,126.705,102.657,125.901,102.657z M133.101,102.657c-0.803,0-1.455,0.651-1.455,1.455s0.651,1.455,1.455,1.455s1.455-0.651,1.455-1.455S133.905,102.657,133.101,102.657z"/>
            <g gorn="0.2.0.1"  id="silkscreen">
                <line fill="none"  stroke="#FFFFFF" stroke-linecap="round" y1="3.312" stroke-width="0.5" x1="79.12" y2="7.632" x2="79.12"/>
                <line fill="none"  stroke="#FFFFFF" stroke-linecap="round" y1="3.312" stroke-width="0.5" x1="122.32" y2="7.632" x2="122.32"/>
                <line fill="none"  stroke="#FFFFFF" stroke-linecap="round" y1="7.632" stroke-width="0.5" x1="122.32" y2="9.432" x2="120.52"/>
                <line fill="none"  stroke="#FFFFFF" stroke-linecap="round" y1="9.432" stroke-width="0.5" x1="80.92" y2="7.632" x2="79.12"/>
                <line fill="none"  stroke="#FFFFFF" stroke-linecap="round" y1="7.632" stroke-width="0.5" x1="79.12" y2="9.432" x2="77.32"/>
                <line fill="none"  stroke="#FFFFFF" stroke-linecap="round" y1="3.312" stroke-width="0.5" x1="136.72" y2="7.632" x2="136.72"/>
                <line fill="none"  stroke="#FFFFFF" stroke-linecap="round" y1="7.632" stroke-width="0.5" x1="136.72" y2="9.432" x2="134.92"/>
                <line fill="none"  stroke="#FFFFFF" stroke-linecap="round" y1="9.432" stroke-width="0.5" x1="124.12" y2="7.632" x2="122.32"/>
                <g  transform="matrix(4.489659e-11 -1 1 4.489659e-11 70.3722 16.8536)">
                    <g >
                        <text fill="#FFFFFF" font-family="OCRA" gorn="0.2.0.1.8.0.0"  id="silk_16_" font-size="5">GND</text>
                    </g>
                </g>
                <g  transform="matrix(4.489659e-11 -1 1 4.489659e-11 127.9717 16.8536)">
                    <g >
                        <text fill="#FFFFFF" font-family="OCRA" gorn="0.2.0.1.9.0.0"  id="silk_15_" font-size="5">GND</text>
                    </g>
                </g>
                <g  transform="matrix(4.489659e-11 -1 1 4.489659e-11 77.077 13.2784)">
                    <g >
                        <text fill="#FFFFFF" font-family="OCRA" gorn="0.2.0.1.10.0.0"  id="silk_14_" font-size="5">A6</text>
                    </g>
                </g>
                <g  transform="matrix(4.489659e-11 -1 1 4.489659e-11 135.172 13.2784)">
                    <g >
                        <text fill="#FFFFFF" font-family="OCRA" gorn="0.2.0.1.11.0.0"  id="silk_13_" font-size="5">A7</text>
                    </g>
                </g>
                <g  transform="matrix(1 0 0 1 81.0641 10.6338)">
                    <g >
                        <text fill="#FFFFFF" font-family="OCRA" gorn="0.2.0.1.12.0.0"  id="silk_12_" font-size="5">GRN</text>
                    </g>
                </g>
                <g  transform="matrix(1 0 0 1 93.8144 10.6338)">
                    <g >
                        <text fill="#FFFFFF" font-family="OCRA" gorn="0.2.0.1.13.0.0"  id="silk_11_" font-size="5">FTDI</text>
                    </g>
                </g>
                <g  transform="matrix(1 0 0 1 109.7152 10.6338)">
                    <g >
                        <text fill="#FFFFFF" font-family="OCRA" gorn="0.2.0.1.14.0.0"  id="silk_10_" font-size="5">BLK</text>
                    </g>
                </g>
                <g  transform="matrix(4.489659e-11 -1 1 4.489659e-11 127.6798 100.962)">
                    <g >
                        <text fill="#FFFFFF" font-family="OCRA" gorn="0.2.0.1.15.0.0"  id="silk_9_" font-size="5">GND</text>
                    </g>
                </g>
                <g  transform="matrix(4.489659e-11 -1 1 4.489659e-11 134.9197 100.962)">
                    <g >
                        <text fill="#FFFFFF" font-family="OCRA" gorn="0.2.0.1.16.0.0"  id="silk_8_" font-size="5">PWR</text>
                    </g>
                </g>
                <g  transform="matrix(4.489659e-11 -1 1 4.489659e-11 113.2647 100.962)">
                    <g >
                        <text fill="#FFFFFF" font-family="OCRA" gorn="0.2.0.1.17.0.0"  id="silk_7_" font-size="5">RXI</text>
                    </g>
                </g>
                <g  transform="matrix(4.489659e-11 -1 1 4.489659e-11 120.5046 100.962)">
                    <g >
                        <text fill="#FFFFFF" font-family="OCRA" gorn="0.2.0.1.18.0.0"  id="silk_6_" font-size="5">TXO</text>
                    </g>
                </g>
                <g  transform="matrix(4.489659e-11 -1 1 4.489659e-11 99.0393 100.962)">
                    <g >
                        <text fill="#FFFFFF" font-family="OCRA" gorn="0.2.0.1.19.0.0"  id="silk_5_" font-size="5">SDA</text>
                    </g>
                </g>
                <g  transform="matrix(4.489659e-11 -1 1 4.489659e-11 106.2791 100.962)">
                    <g >
                        <text fill="#FFFFFF" font-family="OCRA" gorn="0.2.0.1.20.0.0"  id="silk_4_" font-size="5">SCL</text>
                    </g>
                </g>
                <g  transform="matrix(4.489659e-11 -1 1 4.489659e-11 84.6242 100.962)">
                    <g >
                        <text fill="#FFFFFF" font-family="OCRA" gorn="0.2.0.1.21.0.0"  id="silk_2_" font-size="5">SDI</text>
                    </g>
                </g>
                <g  transform="matrix(4.489659e-11 -1 1 4.489659e-11 70.3324 100.962)">
                    <g >
                        <text fill="#FFFFFF" font-family="OCRA" gorn="0.2.0.1.22.0.0"  id="silk" font-size="5">SCK</text>
                    </g>
                </g>
                <g  transform="matrix(4.489659e-11 -1 1 4.489659e-11 77.5723 100.962)">
                    <g >
                        <text fill="#FFFFFF" font-family="OCRA" gorn="0.2.0.1.23.0.0"  id="silk_3_" font-size="5">SDO</text>
                    </g>
                </g>
                <line fill="none"  stroke="#FFFFFF" stroke-linecap="round" y1="3.312" stroke-width="0.5" x1="64.72" y2="7.632" x2="64.72"/>
                <line fill="none"  stroke="#FFFFFF" stroke-linecap="round" y1="9.432" stroke-width="0.5" x1="66.52" y2="7.632" x2="64.72"/>
                <g >
                    <title >element:JP1</title>
                    <g >
                        <title >package:FTDI_BASIC</title>
                    </g>
                </g>
                <g >
                    <title >element:JP2</title>
                    <g >
                        <title >package:1X10</title>
                    </g>
                </g>
                <g >
                    <title >element:U3</title>
                    <g >
                        <title >package:7-SEGMENT-4DIGIT-COUNTER</title>
                    </g>
                </g>
                <g  transform="matrix(4.489659e-11 -1 1 4.489659e-11 91.864 100.962)">
                    <g >
                        <text fill="#FFFFFF" font-family="OCRA" gorn="0.2.0.1.29.0.0"  id="silk_17_" font-size="5">SS</text>
                    </g>
                </g>
                <line fill="none"  stroke="#FFFFFF" y1="93.962" stroke-width="0.5" x1="87.709" y2="100.712" x2="87.709"/>
            </g>
            <g gorn="0.2.0.2"  id="_x3C_Group_x3E__1_">
                <circle fill="none" cx="57.015" gorn="0.2.0.2.0"  cy="79.337" stroke="#9A916C" id="connector0pin_1_" r="3.506" stroke-width="0.4898"/>
                <circle fill="none" cx="69.827" gorn="0.2.0.2.1"  cy="79.337" stroke="#9A916C" id="connector1pin_1_" r="3.506" stroke-width="0.4898"/>
                <circle fill="none" cx="82.639" gorn="0.2.0.2.2"  cy="79.337" stroke="#9A916C" id="connector2pin_1_" r="3.506" stroke-width="0.4898"/>
                <circle fill="none" cx="95.452" gorn="0.2.0.2.3"  cy="79.337" stroke="#9A916C" id="connector3pin_1_" r="3.506" stroke-width="0.4898"/>
                <circle fill="none" cx="108.264" gorn="0.2.0.2.4"  cy="79.337" stroke="#9A916C" id="connector4pin_1_" r="3.506" stroke-width="0.4898"/>
                <circle fill="none" cx="121.076" gorn="0.2.0.2.5"  cy="79.337" stroke="#9A916C" id="connector5pin_1_" r="3.506" stroke-width="0.4898"/>
                <circle fill="none" cx="133.889" gorn="0.2.0.2.6"  cy="79.337" stroke="#9A916C" id="connector6pin_1_" r="3.506" stroke-width="0.4898"/>
                <circle fill="none" cx="146.701" gorn="0.2.0.2.7"  cy="79.337" stroke="#9A916C" id="connector7pin_1_" r="3.506" stroke-width="0.4898"/>
                <circle fill="none" cx="146.701" gorn="0.2.0.2.8"  cy="28.087" stroke="#9A916C" id="connector8pin_1_" r="3.506" stroke-width="0.4898"/>
                <circle fill="none" cx="121.076" gorn="0.2.0.2.9"  cy="28.087" stroke="#9A916C" id="connector9pin_1_" r="3.506" stroke-width="0.4898"/>
                <circle fill="none" cx="95.452" gorn="0.2.0.2.10"  cy="28.087" stroke="#9A916C" id="connector10pin_1_" r="3.506" stroke-width="0.4898"/>
                <circle fill="none" cx="82.639" gorn="0.2.0.2.11"  cy="28.087" stroke="#9A916C" id="connector11pin_1_" r="3.506" stroke-width="0.4898"/>
                <circle fill="none" cx="69.827" gorn="0.2.0.2.12"  cy="28.087" stroke="#9A916C" id="connector12pin_1_" r="3.506" stroke-width="0.4898"/>
                <circle fill="none" cx="57.015" gorn="0.2.0.2.13"  cy="28.087" stroke="#9A916C" id="connector13pin_1_" r="3.506" stroke-width="0.4898"/>
                <polygon fill="#323232" points="0,20.913 201.732,20.912 203.716,22.692 203.716,86.511 1.779,86.512 0,84.186 " />
                <polygon fill="#646464" points="17.293,27.125 39.433,27.125 40.909,28.598 37.955,33.027 18.765,33.027 15.818,28.598 " />
                <polygon fill="#26DD26" points="42.386,30.073 43.861,33.027 40.909,49.267 37.955,52.216 35.006,49.267 37.955,34.501 " />
                <polygon fill="#26DD26" points="37.955,53.691 39.433,56.641 36.481,72.881 33.529,75.833 30.577,72.881 33.529,58.123 " />
                <polygon fill="#646464" points="30.577,78.785 8.435,78.785 6.958,77.304 9.91,72.881 29.102,72.881 32.052,77.308 " />
                <polygon fill="#26DD26" points="5.481,75.833 4.007,72.881 6.958,56.641 9.91,53.691 12.86,56.641 9.91,71.402 " />
                <polygon fill="#26DD26" points="9.91,52.216 8.435,49.267 11.389,33.027 14.337,30.073 17.293,33.027 14.337,47.79 " />
                <polyline fill="#26DD26" points="11.389,52.216 14.337,49.267 33.529,49.267 36.481,52.216 33.529,55.168 14.337,55.168 " />
                <circle fill="#646464" cx="40.277"  cy="75.826" r="3.111"/>
                <polygon fill="#26DD26" points="68.521,27.125 90.661,27.125 92.136,28.598 89.183,33.027 69.993,33.027 67.046,28.598 " />
                <polygon fill="#26DD26" points="93.613,30.073 95.089,33.027 92.137,49.267 89.183,52.215 86.234,49.267 89.183,34.501 " />
                <polygon fill="#26DD26" points="89.183,53.691 90.661,56.641 87.709,72.881 84.757,75.833 81.805,72.881 84.757,58.123 " />
                <polygon fill="#646464" points="81.805,78.785 59.663,78.785 58.186,77.304 61.138,72.881 80.33,72.881 83.28,77.308 " />
                <polygon fill="#26DD26" points="56.709,75.833 55.235,72.881 58.186,56.641 61.138,53.691 64.088,56.641 61.138,71.402 " />
                <polygon fill="#26DD26" points="61.138,52.215 59.663,49.267 62.617,33.027 65.565,30.073 68.521,33.027 65.565,47.79 " />
                <polyline fill="#26DD26" points="62.617,52.215 65.565,49.267 84.757,49.267 87.709,52.215 84.757,55.168 65.565,55.168 " />
                <circle fill="#646464" cx="91.505"  cy="75.826" r="3.111"/>
                <circle fill="#646464" cx="98.977"  cy="64.168" r="3.111"/>
                <circle fill="#646464" cx="102.463"  cy="41.144" r="3.111"/>
                <circle fill="#646464" cx="155.995"  cy="29.814" r="3.111"/>
                <polygon fill="#646464" points="119.768,27.125 141.911,27.125 143.386,28.598 140.432,33.027 121.242,33.027 118.293,28.598 " />
                <polygon fill="#646464" points="144.861,30.073 146.338,33.027 143.386,49.267 140.432,52.215 137.483,49.267 140.432,34.501 " />
                <polygon fill="#646464" points="140.432,53.691 141.911,56.641 138.958,72.881 136.005,75.833 133.054,72.881 136.004,58.123 " />
                <polygon fill="#26DD26" points="133.054,78.785 110.912,78.785 109.435,77.304 112.387,72.881 131.577,72.881 134.528,77.308 " />
                <polygon fill="#26DD26" points="107.958,75.833 106.485,72.881 109.435,56.641 112.387,53.691 115.338,56.641 112.387,71.402 " />
                <polygon fill="#26DD26" points="112.387,52.215 110.912,49.267 113.866,33.027 116.814,30.073 119.768,33.027 116.814,47.79 " />
                <polyline fill="#646464" points="113.866,52.215 116.814,49.267 136.004,49.267 138.958,52.215 136.004,55.168 116.814,55.168 " />
                <circle fill="#646464" cx="142.754"  cy="75.826" r="3.111"/>
                <polygon fill="#26DD26" points="171.151,27.125 193.293,27.125 194.769,28.598 191.815,33.027 172.625,33.027 169.676,28.598 " />
                <polygon fill="#26DD26" points="196.244,30.073 197.721,33.027 194.769,49.267 191.815,52.215 188.866,49.267 191.815,34.501 " />
                <polygon fill="#26DD26" points="191.815,53.691 193.293,56.641 190.341,72.881 187.387,75.833 184.437,72.881 187.387,58.123 " />
                <polygon fill="#26DD26" points="184.437,78.785 162.295,78.785 160.818,77.304 163.77,72.881 182.96,72.881 185.91,77.308 " />
                <polygon fill="#26DD26" points="159.341,75.833 157.867,72.881 160.818,56.641 163.77,53.691 166.72,56.641 163.77,71.402 " />
                <polygon fill="#26DD26" points="163.77,52.215 162.295,49.267 165.249,33.027 168.197,30.073 171.151,33.027 168.197,47.79 " />
                <polyline fill="#646464" points="165.249,52.215 168.197,49.267 187.387,49.267 190.341,52.215 187.387,55.168 168.197,55.168 " />
                <circle fill="#646464" cx="194.137"  cy="75.826" r="3.111"/>
                <polygon fill="#C7C7C7" points="201.936,84.186 0,84.186 1.779,86.512 203.716,86.511 " />
                <polygon fill="#AAAAAA" points="201.732,84.186 203.716,86.511 203.716,22.692 201.732,20.912 " />
            </g>
            <g gorn="0.2.0.3"  id="copper1">
                <circle fill="none" cx="89.92" gorn="0.2.0.3.0"  cy="3.312" stroke="#9A916C" id="connector3pin" r="2.052" stroke-width="1.224"/>
                <circle fill="none" cx="118.72" gorn="0.2.0.3.1"  cy="3.312" stroke="#9A916C" id="connector7pin" r="2.052" stroke-width="1.224"/>
                <circle fill="none" cx="82.72" gorn="0.2.0.3.2"  cy="3.312" stroke="#9A916C" id="connector2pin" r="2.052" stroke-width="1.224"/>
                <circle fill="none" cx="111.52" gorn="0.2.0.3.3"  cy="3.312" stroke="#9A916C" id="connector6pin" r="2.052" stroke-width="1.224"/>
                <circle fill="none" cx="104.32" gorn="0.2.0.3.4"  cy="3.312" stroke="#9A916C" id="connector5pin" r="2.052" stroke-width="1.224"/>
                <circle fill="none" cx="97.12" gorn="0.2.0.3.5"  cy="3.312" stroke="#9A916C" id="connector4pin" r="2.052" stroke-width="1.224"/>
                <circle fill="none" cx="133.12" gorn="0.2.0.3.6"  cy="104.112" stroke="#9A916C" id="connector19pin" r="2.052" stroke-width="1.224"/>
                <circle fill="none" cx="125.92" gorn="0.2.0.3.7"  cy="104.112" stroke="#9A916C" id="connector18pin" r="2.052" stroke-width="1.224"/>
                <circle fill="none" cx="118.72" gorn="0.2.0.3.8"  cy="104.112" stroke="#9A916C" id="connector17pin" r="2.052" stroke-width="1.224"/>
                <circle fill="none" cx="111.52" gorn="0.2.0.3.9"  cy="104.112" stroke="#9A916C" id="connector16pin" r="2.052" stroke-width="1.224"/>
                <circle fill="none" cx="104.32" gorn="0.2.0.3.10"  cy="104.112" stroke="#9A916C" id="connector15pin" r="2.052" stroke-width="1.224"/>
                <circle fill="none" cx="97.12" gorn="0.2.0.3.11"  cy="104.112" stroke="#9A916C" id="connector14pin" r="2.052" stroke-width="1.224"/>
                <circle fill="none" cx="89.92" gorn="0.2.0.3.12"  cy="104.112" stroke="#9A916C" id="connector13pin" r="2.052" stroke-width="1.224"/>
                <circle fill="none" cx="82.72" gorn="0.2.0.3.13"  cy="104.112" stroke="#9A916C" id="connector12pin" r="2.052" stroke-width="1.224"/>
                <circle fill="none" cx="75.52" gorn="0.2.0.3.14"  cy="104.112" stroke="#9A916C" id="connector11pin" r="2.052" stroke-width="1.224"/>
                <circle fill="none" cx="68.32" gorn="0.2.0.3.15"  cy="104.112" stroke="#9A916C" id="connector10pin" r="2.052" stroke-width="1.224"/>
                <circle fill="none" cx="133.12" gorn="0.2.0.3.16"  cy="3.312" stroke="#9A916C" id="connector9pin" r="2.052" stroke-width="1.224"/>
                <circle fill="none" cx="125.92" gorn="0.2.0.3.17"  cy="3.312" stroke="#9A916C" id="connector8pin" r="2.052" stroke-width="1.224"/>
                <circle fill="none" cx="75.52" gorn="0.2.0.3.18"  cy="3.312" stroke="#9A916C" id="connector1pin" r="2.052" stroke-width="1.224"/>
                <circle fill="none" cx="68.32" gorn="0.2.0.3.19"  cy="3.312" stroke="#9A916C" id="connector0pin" r="2.052" stroke-width="1.224"/>
            </g>
        </g>
    </g>
</svg>
