<?xml version='1.0' encoding='utf-8'?>
<!DOCTYPE svg>
<!-- Generator: Adobe Illustrator 17.1.0, SVG Export Plug-In . SVG Version: 6.00 Build 0)  -->
<svg xmlns="http://www.w3.org/2000/svg" xml:space="preserve" height="0.7in" viewBox="0 0 86.4 50.4" xmlns:xml="http://www.w3.org/XML/1998/namespace" x="0px" width="1.2in" y="0px" gorn="0"  version="1.1" enable-background="new 0 0 86.4 50.4" id="Layer_1">
    <desc >
        <referenceFile >SparkFun_Thermocouple_Breakout_breadboard.svg</referenceFile>
    </desc>
    <desc >Fritzing breadboard generated by brd2svg</desc>
    <g gorn="0.2"  id="breadboard">
        <g gorn="0.2.0"  id="icon">
            <path fill="#EC1C24" d="M86.4,50.4V0h-6.5l-0.7,0.7v2.9h-9.4V0.7L69.1,0H0v50.4h69.1l0.7-0.7v-2.9h9.4v2.9l0.7,0.7H86.4 M24.1,43.2c0-2.6,2.1-4.7,4.7-4.7s4.7,2.1,4.7,4.7c0,0,0,0,0,0c0,2.6-2.1,4.7-4.7,4.7S24.1,45.8,24.1,43.2z M52.9,7.2c0-2.6,2.1-4.7,4.7-4.7s4.7,2.1,4.7,4.7s-2.1,4.7-4.7,4.7S52.9,9.8,52.9,7.2z M2.2,7.2c0-0.8,0.6-1.4,1.4-1.4C4.4,5.8,5,6.4,5,7.2c0,0,0,0,0,0C5,8,4.4,8.6,3.6,8.6S2.2,8,2.2,7.2z M2.2,14.4c0-0.8,0.6-1.4,1.4-1.4S5,13.6,5,14.4c0,0,0,0,0,0c0,0.8-0.6,1.4-1.4,1.4C2.8,15.8,2.2,15.2,2.2,14.4z M2.2,21.6c0-0.8,0.6-1.4,1.4-1.4c0.8,0,1.4,0.6,1.4,1.4c0,0,0,0,0,0C5,22.4,4.4,23,3.6,23S2.2,22.4,2.2,21.6z M2.2,28.8c0-0.8,0.6-1.4,1.4-1.4C4.4,27.4,5,28,5,28.8c0,0,0,0,0,0c0,0.8-0.6,1.4-1.4,1.4S2.2,29.6,2.2,28.8z M2.2,36c0-0.8,0.6-1.4,1.4-1.4C4.4,34.6,5,35.2,5,36c0,0,0,0,0,0c0,0.8-0.6,1.4-1.4,1.4S2.2,36.8,2.2,36z M2.2,43.2c0-0.8,0.6-1.4,1.4-1.4c0.8,0,1.4,0.6,1.4,1.4c0,0,0,0,0,0c0,0.8-0.6,1.4-1.4,1.4S2.2,44,2.2,43.2z M54.7,28.8c0-0.8,0.6-1.4,1.4-1.4c0.8,0,1.4,0.6,1.4,1.4l0,0c0,0.8-0.6,1.4-1.4,1.4C55.4,30.2,54.7,29.6,54.7,28.8z M54.7,21.6c0-0.8,0.6-1.4,1.4-1.4c0.8,0,1.4,0.6,1.4,1.4S57,23,56.2,23C55.4,23,54.7,22.4,54.7,21.6z" />
            <g gorn="0.2.0.1"  id="silkscreen">
                <g transform="matrix(1 0 0 1 6.4386 16.2002)" >
                    <g >
                        <g >
                            <text fill="#FFFFFF" font-family="OCRA"  font-size="4.5">VCC</text>
                        </g>
                    </g>
                </g>
                <line fill="none" stroke="#FFFFFF" stroke-linecap="round" y1="18.9" y2="18.9" x1="7" x2="13.1" stroke-miterlimit="10" stroke-width="0.5" />
                <g transform="matrix(1 0 0 1 6.4386 9.2521)" >
                    <g >
                        <g >
                            <text fill="#FFFFFF" font-family="OCRA"  font-size="5">GND</text>
                        </g>
                    </g>
                </g>
                <g transform="matrix(1 0 0 1 15.6431 3.3982)" >
                    <g >
                        <g >
                            <text fill="#FFFFFF" font-family="OCRA"  font-size="3">VCC + 3.0V to 5.5V</text>
                        </g>
                    </g>
                </g>
                <g transform="matrix(1 0 0 1 34.5762 39.0401)" >
                    <g >
                        <g >
                            <g  enable-background="new    ">
                                <text fill="#FFFFFF" x="0" y="0" font-family="OCRA"  font-size="3">MAX6675 Thermocouple</text>
                                <text fill="#FFFFFF" x="0" y="3.6" font-family="OCRA"  font-size="3">Breakout</text>
                            </g>
                        </g>
                    </g>
                </g>
                <g >
                    <path fill="#FFFFFF" d="M71.2,19c0,0,0.5-0.1,0.5,0.2c0,0.2-0.2,0.6-0.4,0.9c-0.3,0.2-0.5,0.2-0.8,0c-0.3-0.3-0.2-0.8-0.2-0.8s-0.8,0.9-0.1,1.9c0.6,0.8,1.4,0.6,2.1-0.2c0.6-0.7,1.3-0.1,1.2,0.6c-0.1,0.5-0.4,0.7-0.7,0.6c-0.2-0.1-0.3-0.4-0.3-0.4s-0.2,0.4,0,0.9c0.2,0.4,0.5,0.8,1.4,0.7h4c0,0-0.5-0.4-1.1-0.9c-0.6-0.6-1-0.8-1-1.4c0.1-1.1-0.4-1.9-1.2-2.4C73.1,17.5,71.4,18.3,71.2,19z" />
                    <path fill="#FFFFFF" d="M81.7,42.1c0.5,0,0.7-0.5,0.7-0.9c0-0.3-0.1-0.8-0.6-0.8c-0.4,0-0.5,0.5-0.7,1.4c-0.2,0.7-0.4,1.4-1.2,1.4c-1.1,0-1.4-1-1.4-1.9c0-1,0.3-1.8,1.4-1.9v1.1c-0.5,0-0.6,0.4-0.6,0.8c0,0.3,0,0.7,0.4,0.7c0.4,0,0.5-0.7,0.7-1.4c0.2-0.7,0.4-1.4,1.2-1.4c1.2,0,1.5,1,1.5,2c0,1-0.4,2-1.5,2.1V42.1z" />
                    <path fill="#FFFFFF" d="M78.9,38.7l-0.2-1.1h0.6v0c-0.5-0.3-0.7-0.8-0.7-1.3c0-1.4,1.1-2,2.4-2c1.2,0,2.3,0.6,2.3,1.9c0,0.5-0.2,1-0.7,1.3v0h3.2l-1.1,1.2L78.9,38.7L78.9,38.7z M80.9,35.4c-0.7,0-1.4,0.3-1.4,1.1c0,0.8,0.7,1,1.4,1s1.4-0.3,1.4-1.1C82.3,35.7,81.6,35.4,80.9,35.4z" />
                    <path fill="#FFFFFF" d="M80,33.7c-1.1-0.1-1.5-1.1-1.5-2.1c0-0.9,0.2-1.9,1.2-1.9h2.3c0.4,0,0.8,0,1-0.2v1.2c-0.1,0-0.3,0.1-0.4,0.1c0.4,0.4,0.5,0.9,0.5,1.5c0,0.8-0.4,1.5-1.3,1.5c-2,0-0.9-3-1.9-2.9c-0.5,0-0.6,0.4-0.6,0.8c0,0.5,0.2,0.8,0.7,0.8L80,33.7z M80.9,31c0.2,0.2,0.2,0.6,0.3,1c0.1,0.4,0.2,0.7,0.6,0.7s0.6-0.3,0.6-0.7c0-0.9-0.7-1-1-1H80.9z" />
                    <path fill="#FFFFFF" d="M78.9,29.1l-0.2-1.1h0.8v0c-0.6-0.2-0.9-0.8-0.9-1.4c0-0.1,0-0.2,0-0.3h1.1c0,0.1,0,0.3,0,0.4c0,0.9,0.6,1.2,1.4,1.2h2v1.2H78.9z" />
                    <path fill="#FFFFFF" d="M77.7,25.8L77,24.6h3.3l-1.6-1.5v-1.4l1.6,1.7l2.8-1.8v1.5l-2,1.2l0.5,0.5h1.5v1.2H77.7z" />
                    <path fill="#FFFFFF" d="M79.5,20.7v1.2l-0.8-0.8v-0.4h-0.3c-0.8,0-1.3-0.5-1.3-1.5c0-0.2,0-0.4,0-0.6H78c0,0.1,0,0.3,0,0.4c0,0.3,0.1,0.5,0.5,0.5h0.3v-0.8h0.8v0.8h3.6v1.2L79.5,20.7z" />
                    <path fill="#FFFFFF" d="M83.1,14.2v1.1h-0.6v0c0.5,0.3,0.7,0.8,0.7,1.3c0,1.3-0.7,1.6-1.8,1.6h-2.7v-1.2h2.5c0.7,0,1.1-0.2,1.1-0.8c0-0.7-0.4-0.9-1.3-0.9h-2.3v-1.2L83.1,14.2L83.1,14.2z" />
                    <path fill="#FFFFFF" d="M78.7,13.5v-1.1h0.6v0c-0.5-0.3-0.7-0.8-0.7-1.3c0-1.3,0.7-1.6,1.8-1.6h2.7v1.2h-2.5c-0.7,0-1.1,0.2-1.1,0.8c0,0.7,0.4,0.9,1.3,0.9h2.3v1.2L78.7,13.5L78.7,13.5z" />
                </g>
                <g transform="matrix(1 0 0 1 6.4386 23.353)" >
                    <g >
                        <g >
                            <text fill="#FFFFFF" font-family="OCRA"  font-size="5">CS</text>
                        </g>
                    </g>
                </g>
                <g transform="matrix(1 0 0 1 63.6053 23.353)" >
                    <g >
                        <g >
                            <text fill="#FFFFFF" font-family="OCRA"  font-size="5">-</text>
                        </g>
                    </g>
                </g>
                <g transform="matrix(1 0 0 1 63.6053 30.6719)" >
                    <g >
                        <g >
                            <text fill="#FFFFFF" font-family="OCRA"  font-size="5">+</text>
                        </g>
                    </g>
                </g>
                <g transform="matrix(1 0 0 1 6.4388 30.3529)" >
                    <g >
                        <g >
                            <text fill="#FFFFFF" font-family="OCRA"  font-size="5">NC</text>
                        </g>
                    </g>
                </g>
                <g transform="matrix(1 0 0 1 6.4388 37.7904)" >
                    <g >
                        <g >
                            <text fill="#FFFFFF" font-family="OCRA"  font-size="5">(MI)SO</text>
                        </g>
                    </g>
                </g>
                <g transform="matrix(1 0 0 1 6.4388 45.2523)" >
                    <g >
                        <g >
                            <text fill="#FFFFFF" font-family="OCRA"  font-size="5">SCK</text>
                        </g>
                    </g>
                </g>
                <rect fill="#FFFFFF" height="2.2" x="16.6" width="1.3" y="14"  fill-opacity="0.15"/>
                <rect fill="#FFFFFF" height="14.7" x="28.7" width="11.3" y="18.5"  fill-opacity="0.15"/>
                <path fill="#FFFFFF" d="M62.8,45.2V44l-1.3-0.2c-0.1-0.3-0.2-0.7-0.5-1l0.8-1.1l-0.9-0.9l-1.1,0.8c-0.3-0.2-0.7-0.3-1-0.5l-0.2-1.3h-1.2l-0.2,1.3c-0.3,0.1-0.7,0.2-1,0.5l-1.1-0.8l-0.9,0.9l0.8,1.1c-0.2,0.3-0.3,0.7-0.5,1L53.3,44v1.2l1.3,0.2c0.1,0.3,0.2,0.7,0.5,1l-0.8,1.1l0.9,0.9l1.1-0.8c0.2,0.1,0.3,0.2,0.5,0.3l0.8-2.1c-0.5-0.2-0.9-0.7-0.9-1.2c0-0.8,0.5-1.3,1.3-1.3c0.8,0,1.3,0.5,1.3,1.3c0,0.5-0.3,1-0.9,1.2l0.8,2.1c0.2-0.1,0.5-0.2,0.5-0.3l1.1,0.8l0.9-0.9l-0.8-1.1c0.2-0.3,0.3-0.7,0.5-1L62.8,45.2z" />
                <rect fill="none" stroke="#FFFFFF" height="18.3" stroke-miterlimit="10" x="47.9" width="14.7" y="16.5" stroke-width="0.5" stroke-linejoin="round" />
                <line fill="none" stroke="#FFFFFF" y1="16.5" y2="34.8" x1="60" x2="60" stroke-miterlimit="10" stroke-width="0.5" stroke-linejoin="round" />
            </g>
            <circle fill="none" stroke="#9A916C" r="2.1" cx="3.6" cy="7.2" stroke-width="1.224" gorn="0.2.0.2"  id="connector0pin"/>
            <circle fill="none" stroke="#9A916C" r="2.1" cx="3.6" cy="14.4" stroke-width="1.224" gorn="0.2.0.3"  id="connector1pin"/>
            <circle fill="none" stroke="#9A916C" r="2.1" cx="3.6" cy="21.6" stroke-width="1.224" gorn="0.2.0.4"  id="connector2pin"/>
            <circle fill="none" stroke="#9A916C" r="2.1" cx="3.6" cy="28.8" stroke-width="1.224" gorn="0.2.0.5"  id="connector3pin"/>
            <circle fill="none" stroke="#9A916C" r="2.1" cx="3.6" cy="36" stroke-width="1.224" gorn="0.2.0.6"  id="connector4pin"/>
            <circle fill="none" stroke="#9A916C" r="2.1" cx="3.6" cy="43.2" stroke-width="1.224" gorn="0.2.0.7"  id="connector5pin"/>
            <circle fill="none" stroke="#9A916C" r="1.9" cx="56.2" cy="28.8" stroke-width="0.864" gorn="0.2.0.8"  id="connector10pin"/>
            <rect fill="none" stroke="#9A916C" height="3.7" x="54.3" width="3.7" y="26.9" stroke-width="0.864" gorn="0.2.0.9"  id="connector7pin"/>
            <circle fill="none" stroke="#9A916C" r="1.9" cx="56.2" cy="21.6" stroke-width="0.864" gorn="0.2.0.10"  id="connector11pin"/>
            <rect fill="none" stroke="#9A916C" height="3.7" x="54.3" width="3.7" y="19.7" stroke-width="0.864" gorn="0.2.0.11"  id="connector6pin"/>
        </g>
        <g transform="matrix(1, 0, 0, 1, 35.442, 9.25553)" >
            <g >
                <g >
                    <g >
                        <g >
                            <rect fill="#888E8A" height="1.7" x="-10.5" width="4.1" y="9.6" />
                            <rect fill="#888E8A" height="1.7" x="4.5" width="4.1" y="9.6" />
                            <rect fill="#888E8A" height="1.7" x="-10.5" width="4.1" y="13.2" />
                            <rect fill="#888E8A" height="1.7" x="4.5" width="4.1" y="13.2" />
                            <rect fill="#888E8A" height="1.7" x="-10.5" width="4.1" y="16.7" />
                            <rect fill="#888E8A" height="1.7" x="4.5" width="4.1" y="16.7" />
                            <rect fill="#888E8A" height="1.7" x="-10.5" width="4.1" y="20.2" />
                            <rect fill="#888E8A" height="1.7" x="4.5" width="4.1" y="20.2" />
                        </g>
                        <g >
                            <g transform="matrix(0.5, 0, 0, 0.5, 7.479, 6.17223)" >
                                <g >
                                    <g >
                                        <g >
                                            <g >
                                                <rect fill="#303030" height="32.5" x="-28.4" width="23.4" y="3.3" />
                                                <polygon fill="#1F2020" points="-4.9,3.3 -4.9,35.8 -6.4,34.3 -6.4,4.8 " />
                                                <polygon fill="#1F2020" points="-28.4,3.3 -28.4,35.8 -26.9,34.3 -26.9,4.8 " />
                                                <polygon fill="#010101" points="-4.9,3.3 -28.4,3.3 -26.9,4.8 -6.4,4.8 " />
                                                <polygon fill="#3E3E3E" points="-4.9,35.8 -28.4,35.8 -26.9,34.3 -6.4,34.3 " />
                                            </g>
                                        </g>
                                    </g>
                                </g>
                            </g>
                        </g>
                    </g>
                </g>
            </g>
        </g>
        <g transform="matrix(1, 0, 0, 1, 40.6392, 12.035)" >
            <g >
                <g >
                    <g gorn="0.2.2.0.0.0"  id="_x30_603-cap">
                        <rect fill="#AF6C41" height="2.8" x="0" width="8" y="0" />
                        <g >
                            <g >
                                <path fill="#DCDCDC" d="M6.8,0L6.8,0L6.8,0L6.8,0L6.8,0C6.6,0.3,6.6,0.8,6.6,1.1c0,0.3,0,1.5,0.1,1.7l0,0l0,0h1.2V0H6.8z" />
                                <path fill="#DCDCDC" d="M1.2,0.1V0H0v2.9h1.2c0.1-0.3,0.2-1.4,0.2-1.7C1.4,0.8,1.3,0.4,1.2,0.1z" />
                            </g>
                        </g>
                        <rect fill="#FFFFFF" height="0.1" x="0" width="8" y="0" opacity="0.2"  enable-background="new    "/>
                        <rect height="0.1" x="0" width="8" y="2.7" opacity="0.2"  enable-background="new    "/>
                    </g>
                </g>
            </g>
        </g>
        <g transform="matrix(1, 0, 0, 1, 13.803, 13.7347)" >
            <g >
                <g >
                    <g gorn="0.2.3.0.0.0"  id="_x30_603-res">
                        <g transform="matrix(0, 1, -1, 0, 5.386, -2.552)" >
                            <g >
                                <g >
                                    <g >
                                        <g >
                                            <g >
                                                <g transform="matrix(2.578893e-06 1 -1 2.578893e-06 5.381 -2.547)" >
                                                    <g >
                                                        <g >
                                                            <rect fill="#333333" height="8" x="2.5" width="2.8" y="-2.6" />
                                                        </g>
                                                    </g>
                                                </g>
                                                <g transform="matrix(2.578893e-06 1 -1 2.578893e-06 3.987 -3.941)" >
                                                    <g >
                                                        <g >
                                                            <rect fill="#FFFFFF" height="8" x="3.9" width="0" y="-4" opacity="0.2"  enable-background="new    "/>
                                                        </g>
                                                    </g>
                                                </g>
                                                <g transform="matrix(2.578893e-06 1 -1 2.578893e-06 6.782 -1.146)" >
                                                    <g >
                                                        <g >
                                                            <rect height="8" x="3.9" width="0" y="-1.2" opacity="0.2"  enable-background="new    "/>
                                                        </g>
                                                    </g>
                                                </g>
                                            </g>
                                            <g >
                                                <path fill="#DCDCDC" d="M6.8,0L6.8,0L6.8,0L6.8,0L6.8,0C6.6,0.3,6.6,0.8,6.6,1.1c0,0.3,0,1.4,0.1,1.7l0,0l0,0l1.2,0V0H6.8z" />
                                                <path fill="#DCDCDC" d="M1.2,0.1V0H0v2.7h1.2c0.1-0.3,0.2-1.4,0.2-1.7C1.4,0.7,1.3,0.4,1.2,0.1z" />
                                                <path fill="#999999" d="M7.9,2.9H6.7l0-0.1h1.2L7.9,2.9z" />
                                                <path fill="#999999" d="M0,2.9h1.2l0-0.1H0L0,2.9z" />
                                                <g transform="matrix(2.578893e-06 1 -1 2.578893e-06 0.6385 -0.5925)" >
                                                    <g >
                                                        <g >
                                                            <rect fill="#FFFFFF" height="1.2" x="0.6" width="0" y="-0.6" opacity="0.5"  enable-background="new    "/>
                                                        </g>
                                                    </g>
                                                </g>
                                                <g transform="matrix(2.578893e-06 1 -1 2.578893e-06 7.333 -7.287)" >
                                                    <g >
                                                        <g >
                                                            <rect fill="#FFFFFF" height="1.2" x="7.3" width="0" y="-0.6" opacity="0.5"  enable-background="new    "/>
                                                        </g>
                                                    </g>
                                                </g>
                                                <line fill="none" y1="2.8" y2="2.8" x1="0.7" x2="0.7" />
                                            </g>
                                        </g>
                                    </g>
                                </g>
                            </g>
                        </g>
                    </g>
                </g>
            </g>
        </g>
    </g>
</svg>
