<?xml version='1.0' encoding='utf-8'?>
<!DOCTYPE svg>
<!-- Generator: Adobe Illustrator 17.0.0, SVG Export Plug-In . SVG Version: 6.00 Build 0)  -->
<svg xmlns="http://www.w3.org/2000/svg" width="0.644722in" x="0px" version="1.1" y="0px" gorn="0"  height="0.539069in" viewBox="0 0 46.42 38.813" xmlns:xml="http://www.w3.org/XML/1998/namespace" id="Layer_1" enable-background="new 0 0 46.42 38.813" xml:space="preserve">
    <desc >
        <referenceFile >CC3000_02_breadboard.svg</referenceFile>
    </desc>
    <g gorn="0.1"  id="_x3C_desc_x3E_"/>
    <g gorn="0.2"  id="breadboard_1_">
        <g gorn="0.2.0"  id="icon_1_">
            <rect width="46.42" x="0" y="0" fill="#325E3B"  height="38.813"/>
            <g gorn="0.2.0.1"  id="_x3C_Group_x3E_">
                <g >
                    <rect width="45.616" x="0.485" y="0.402" fill="#2C4933"  height="38.115"/>
                    <path fill="#888E8A"  d="M31.394,1.692c0-0.592,0.508-0.994,0.994-0.994l12.5,0c0.592,0,0.994,0.402,0.994,0.994l0,35.422c0,0.592-0.508,0.994-0.994,0.994l-12.492,0c-0.592,0-0.994-0.402-0.994-0.994L31.394,1.692L31.394,1.692z"/>
                    <path fill="#888E8A"  d="M0.698,1.691c0-0.592,0.508-0.994,0.994-0.994l12.5,0c0.592,0,0.994,0.402,0.994,0.994l0,35.422c0,0.592-0.508,0.994-0.994,0.994l-12.5,0c-0.592,0-0.994-0.402-0.994-0.994L0.698,1.691L0.698,1.691z"/>
                    <rect width="25.212" x="11.4" y="0.698" fill="#888E8A"  height="29.111"/>
                    <path fill="#99988C"  d="M0.994,1.995c0-0.592,0.508-0.994,0.994-0.994l42.415,0c0.592,0,0.994,0.402,0.994,0.994l0,34.914c0,0.592-0.508,0.994-0.994,0.994l-42.415,0c-0.592,0-0.994-0.402-0.994-0.994C0.994,36.909,0.994,1.995,0.994,1.995z"/>
                    <g  transform="matrix(1 0 0 1 10.4698 7.951)">
                        <g >
                            <g >
                                <text fill="#C1B8AF" font-family="OCRA"  font-size="6.0035">CC3000</text>
                            </g>
                        </g>
                    </g>
                </g>
            </g>
            <g gorn="0.2.0.2"  id="copper1_1_">
                <g gorn="0.2.0.2.0"  id="copper0">
                    <rect width="3.413" x="0.994" y="23.521" fill="none" gorn="0.2.0.2.0.0"  height="1.995" id="connector34pin"/>
                    <rect width="0.006826" x="0.990587" y="24.516505" fill="none" gorn="0.2.0.2.0.1"  height="0.003990000000000001" stroke="none" id="connector34terminal" stroke-width="0"/>
                    <rect width="3.413" x="0.994" y="26.904" fill="none" gorn="0.2.0.2.0.2"  height="1.995" id="connector35pin"/>
                    <rect width="0.006826" x="0.990587" y="27.899505" fill="none" gorn="0.2.0.2.0.3"  height="0.003990000000000001" stroke="none" id="connector35terminal" stroke-width="0"/>
                    <rect width="3.413" x="0.994" y="30.317" fill="none" gorn="0.2.0.2.0.4"  height="1.995" id="connector36pin"/>
                    <rect width="0.006826" x="0.990587" y="31.312505" fill="none" gorn="0.2.0.2.0.5"  height="0.003990000000000001" stroke="none" id="connector36terminal" stroke-width="0"/>
                    <rect width="5.4" x="10.399" y="22.095" fill="none" gorn="0.2.0.2.0.6"  height="6.804" id="connector37pin"/>
                    <rect width="5.4" x="20.593" y="22.095" fill="none" gorn="0.2.0.2.0.7"  height="6.804" id="connector38pin"/>
                    <rect width="5.4" x="30.803" y="22.095" fill="none" gorn="0.2.0.2.0.8"  height="6.804" id="connector39pin"/>
                    <rect width="5.4" x="10.399" y="9.891" fill="none" gorn="0.2.0.2.0.9"  height="6.804" id="connector40pin"/>
                    <rect width="5.4" x="20.593" y="9.891" fill="none" gorn="0.2.0.2.0.10"  height="6.804" id="connector41pin"/>
                    <rect width="5.4" x="30.803" y="9.891" fill="none" gorn="0.2.0.2.0.11"  height="6.804" id="connector42pin"/>
                    <rect width="3.413" x="0.994" y="34.322" fill="none" gorn="0.2.0.2.0.12"  height="3.413" id="connector43pin"/>
                    <rect width="3.413" x="42.119" y="34.322" fill="none" gorn="0.2.0.2.0.13"  height="3.413" id="connector44pin"/>
                    <rect width="3.413" x="42.119" y="1.1" fill="none" gorn="0.2.0.2.0.14"  height="3.413" id="connector45pin"/>
                    <rect width="3.413" x="0.994" y="1.1" fill="none" gorn="0.2.0.2.0.15"  height="3.413" id="connector46pin"/>
                    <rect width="1.995" x="6.887" y="34.322" fill="none" gorn="0.2.0.2.0.16"  height="3.413" id="connector0pin"/>
                    <rect width="0.003990000000000001" x="7.882504999999999" y="37.731587" fill="none" gorn="0.2.0.2.0.17"  height="0.006826" stroke="none" id="connector0terminal" stroke-width="0"/>
                    <rect width="1.995" x="10.399" y="34.322" fill="none" gorn="0.2.0.2.0.18"  height="3.413" id="connector1pin"/>
                    <rect width="0.003990000000000001" x="11.394505" y="37.731587" fill="none" gorn="0.2.0.2.0.19"  height="0.006826" stroke="none" id="connector1terminal" stroke-width="0"/>
                    <rect width="1.995" x="13.789" y="34.322" fill="none" gorn="0.2.0.2.0.20"  height="3.413" id="connector2pin"/>
                    <rect width="0.003990000000000001" x="14.784505" y="37.731587" fill="none" gorn="0.2.0.2.0.21"  height="0.006826" stroke="none" id="connector2terminal" stroke-width="0"/>
                    <rect width="1.995" x="17.203" y="34.322" fill="none" gorn="0.2.0.2.0.22"  height="3.413" id="connector3pin"/>
                    <rect width="0.003990000000000001" x="18.198505" y="37.731587" fill="none" gorn="0.2.0.2.0.23"  height="0.006826" stroke="none" id="connector3terminal" stroke-width="0"/>
                    <rect width="1.995" x="20.593" y="34.322" fill="none" gorn="0.2.0.2.0.24"  height="3.413" id="connector4pin"/>
                    <rect width="0.003990000000000001" x="21.588505" y="37.731587" fill="none" gorn="0.2.0.2.0.25"  height="0.006826" stroke="none" id="connector4terminal" stroke-width="0"/>
                    <rect width="1.995" x="24.006" y="34.322" fill="none" gorn="0.2.0.2.0.26"  height="3.413" id="connector5pin"/>
                    <rect width="0.003990000000000001" x="25.001505" y="37.731587" fill="none" gorn="0.2.0.2.0.27"  height="0.006826" stroke="none" id="connector5terminal" stroke-width="0"/>
                    <rect width="1.995" x="27.389" y="34.322" fill="none" gorn="0.2.0.2.0.28"  height="3.413" id="connector6pin"/>
                    <rect width="0.003990000000000001" x="28.384505" y="37.731587" fill="none" gorn="0.2.0.2.0.29"  height="0.006826" stroke="none" id="connector6terminal" stroke-width="0"/>
                    <rect width="1.995" x="30.803" y="34.322" fill="none" gorn="0.2.0.2.0.30"  height="3.413" id="connector7pin"/>
                    <rect width="0.003990000000000001" x="31.798505" y="37.731587" fill="none" gorn="0.2.0.2.0.31"  height="0.006826" stroke="none" id="connector7terminal" stroke-width="0"/>
                    <rect width="1.995" x="34.216" y="34.322" fill="none" gorn="0.2.0.2.0.32"  height="3.413" id="connector9pin"/>
                    <rect width="0.003990000000000001" x="35.211505" y="37.731587" fill="none" gorn="0.2.0.2.0.33"  height="0.006826" stroke="none" id="connector9terminal" stroke-width="0"/>
                    <rect width="1.995" x="37.606" y="34.322" fill="none" gorn="0.2.0.2.0.34"  height="3.413" id="connector10pin"/>
                    <rect width="0.003990000000000001" x="38.601505" y="37.731587" fill="none" gorn="0.2.0.2.0.35"  height="0.006826" stroke="none" id="connector10terminal" stroke-width="0"/>
                    <rect width="3.413" x="42.119" y="30.318" fill="none" gorn="0.2.0.2.0.36"  height="1.995" id="connector11pin"/>
                    <rect width="0.006826" x="45.528587" y="31.313505" fill="none" gorn="0.2.0.2.0.37"  height="0.003990000000000001" stroke="none" id="connector11terminal" stroke-width="0"/>
                    <rect width="3.413" x="42.119" y="26.904" fill="none" gorn="0.2.0.2.0.38"  height="1.995" id="connector12pin"/>
                    <rect width="0.006826" x="45.528587" y="27.899505" fill="none" gorn="0.2.0.2.0.39"  height="0.003990000000000001" stroke="none" id="connector12terminal" stroke-width="0"/>
                    <rect width="3.413" x="42.119" y="23.521" fill="none" gorn="0.2.0.2.0.40"  height="1.995" id="connector13pin"/>
                    <rect width="0.006826" x="45.528587" y="24.516505" fill="none" gorn="0.2.0.2.0.41"  height="0.003990000000000001" stroke="none" id="connector13terminal" stroke-width="0"/>
                    <rect width="3.413" x="42.119" y="20.108" fill="none" gorn="0.2.0.2.0.42"  height="1.995" id="connector14pin"/>
                    <rect width="0.006826" x="45.528587" y="21.103505" fill="none" gorn="0.2.0.2.0.43"  height="0.003990000000000001" stroke="none" id="connector14terminal" stroke-width="0"/>
                    <rect width="3.413" x="42.119" y="16.695" fill="none" gorn="0.2.0.2.0.44"  height="1.995" id="connector15pin"/>
                    <rect width="0.006826" x="45.528587" y="17.690505" fill="none" gorn="0.2.0.2.0.45"  height="0.003990000000000001" stroke="none" id="connector15terminal" stroke-width="0"/>
                    <rect width="3.413" x="42.119" y="13.304" fill="none" gorn="0.2.0.2.0.46"  height="1.995" id="connector16pin"/>
                    <rect width="0.006826" x="45.528587" y="14.299505" fill="none" gorn="0.2.0.2.0.47"  height="0.003990000000000001" stroke="none" id="connector16terminal" stroke-width="0"/>
                    <rect width="3.413" x="42.119" y="9.891" fill="none" gorn="0.2.0.2.0.48"  height="1.995" id="connector17pin"/>
                    <rect width="0.006826" x="45.528587" y="10.886505" fill="none" gorn="0.2.0.2.0.49"  height="0.003990000000000001" stroke="none" id="connector17terminal" stroke-width="0"/>
                    <rect width="3.413" x="42.119" y="6.508" fill="none" gorn="0.2.0.2.0.50"  height="1.995" id="connector18pin"/>
                    <rect width="0.006826" x="45.528587" y="7.503505" fill="none" gorn="0.2.0.2.0.51"  height="0.003990000000000001" stroke="none" id="connector18terminal" stroke-width="0"/>
                    <rect width="1.995" x="37.606" y="1.1" fill="none" gorn="0.2.0.2.0.52"  height="3.413" id="connector19pin"/>
                    <rect width="0.003990000000000001" x="38.601505" y="1.096587" fill="none" gorn="0.2.0.2.0.53"  height="0.006826" stroke="none" id="connector19terminal" stroke-width="0"/>
                    <rect width="1.995" x="34.216" y="1.1" fill="none" gorn="0.2.0.2.0.54"  height="3.413" id="connector20pin"/>
                    <rect width="0.003990000000000001" x="35.211505" y="1.096587" fill="none" gorn="0.2.0.2.0.55"  height="0.006826" stroke="none" id="connector20terminal" stroke-width="0"/>
                    <rect width="1.995" x="30.803" y="1.1" fill="none" gorn="0.2.0.2.0.56"  height="3.413" id="connector21pin"/>
                    <rect width="0.003990000000000001" x="31.798505" y="1.096587" fill="none" gorn="0.2.0.2.0.57"  height="0.006826" stroke="none" id="connector21terminal" stroke-width="0"/>
                    <rect width="1.995" x="27.389" y="1.1" fill="none" gorn="0.2.0.2.0.58"  height="3.413" id="connector22pin"/>
                    <rect width="0.003990000000000001" x="28.384505" y="1.096587" fill="none" gorn="0.2.0.2.0.59"  height="0.006826" stroke="none" id="connector22terminal" stroke-width="0"/>
                    <rect width="1.995" x="24.007" y="1.1" fill="none" gorn="0.2.0.2.0.60"  height="3.413" id="connector23pin"/>
                    <rect width="0.003990000000000001" x="25.002505" y="1.096587" fill="none" gorn="0.2.0.2.0.61"  height="0.006826" stroke="none" id="connector23terminal" stroke-width="0"/>
                    <rect width="1.995" x="20.593" y="1.1" fill="none" gorn="0.2.0.2.0.62"  height="3.413" id="connector24pin"/>
                    <rect width="0.003990000000000001" x="21.588505" y="1.096587" fill="none" gorn="0.2.0.2.0.63"  height="0.006826" stroke="none" id="connector24terminal" stroke-width="0"/>
                    <rect width="1.995" x="17.203" y="1.1" fill="none" gorn="0.2.0.2.0.64"  height="3.413" id="connector25pin"/>
                    <rect width="0.003990000000000001" x="18.198505" y="1.096587" fill="none" gorn="0.2.0.2.0.65"  height="0.006826" stroke="none" id="connector25terminal" stroke-width="0"/>
                    <rect width="1.995" x="13.79" y="1.1" fill="none" gorn="0.2.0.2.0.66"  height="3.413" id="connector26pin"/>
                    <rect width="0.003990000000000001" x="14.785505" y="1.096587" fill="none" gorn="0.2.0.2.0.67"  height="0.006826" stroke="none" id="connector26terminal" stroke-width="0"/>
                    <rect width="1.995" x="10.399" y="1.1" fill="none" gorn="0.2.0.2.0.68"  height="3.413" id="connector27pin"/>
                    <rect width="0.003990000000000001" x="11.394505" y="1.096587" fill="none" gorn="0.2.0.2.0.69"  height="0.006826" stroke="none" id="connector27terminal" stroke-width="0"/>
                    <rect width="1.995" x="6.887" y="1.1" fill="none" gorn="0.2.0.2.0.70"  height="3.413" id="connector28pin"/>
                    <rect width="0.003990000000000001" x="7.882504999999999" y="1.096587" fill="none" gorn="0.2.0.2.0.71"  height="0.006826" stroke="none" id="connector28terminal" stroke-width="0"/>
                    <rect width="3.413" x="0.994" y="6.508" fill="none" gorn="0.2.0.2.0.72"  height="1.995" id="connector29pin"/>
                    <rect width="0.006826" x="0.990587" y="7.503505" fill="none" gorn="0.2.0.2.0.73"  height="0.003990000000000001" stroke="none" id="connector29terminal" stroke-width="0"/>
                    <rect width="3.413" x="0.994" y="9.891" fill="none" gorn="0.2.0.2.0.74"  height="1.995" id="connector30pin"/>
                    <rect width="0.006826" x="0.990587" y="10.886505" fill="none" gorn="0.2.0.2.0.75"  height="0.003990000000000001" stroke="none" id="connector30terminal" stroke-width="0"/>
                    <rect width="3.413" x="0.994" y="13.304" fill="none" gorn="0.2.0.2.0.76"  height="1.995" id="connector31pin"/>
                    <rect width="0.006826" x="0.990587" y="14.299505" fill="none" gorn="0.2.0.2.0.77"  height="0.003990000000000001" stroke="none" id="connector31terminal" stroke-width="0"/>
                    <rect width="3.413" x="0.994" y="16.695" fill="none" gorn="0.2.0.2.0.78"  height="1.995" id="connector32pin"/>
                    <rect width="0.006826" x="0.990587" y="17.690505" fill="none" gorn="0.2.0.2.0.79"  height="0.003990000000000001" stroke="none" id="connector32terminal" stroke-width="0"/>
                    <rect width="3.413" x="0.994" y="20.108" fill="none" gorn="0.2.0.2.0.80"  height="1.995" id="connector33pin"/>
                    <rect width="0.006826" x="0.990587" y="21.103505" fill="none" gorn="0.2.0.2.0.81"  height="0.003990000000000001" stroke="none" id="connector33terminal" stroke-width="0"/>
                    <circle fill="none" cx="7.904"  cy="31.311" stroke="#87867E" r="1.396" stroke-width="0.5" stroke-miterlimit="10"/>
                </g>
            </g>
        </g>
    </g>
</svg>
