<?xml version='1.0' encoding='utf-8'?>
<!DOCTYPE svg>
<!-- Generator: Adobe Illustrator 17.0.0, SVG Export Plug-In . SVG Version: 6.00 Build 0)  -->
<svg xmlns="http://www.w3.org/2000/svg" width="3.16728in" x="0px" version="1.1" y="0px" gorn="0"  height="1.16043in" viewBox="0 0 228.044 83.551" xmlns:xml="http://www.w3.org/XML/1998/namespace" id="Layer_1" enable-background="new 0 0 228.044 83.551" xml:space="preserve">
    <desc >
        <referenceFile >Polymer Lithium Ion Battery-generic-straight.svg</referenceFile>
    </desc>
    <g gorn="0.1"  id="_x3C_desc_x3E_"/>
    <g gorn="0.2"  id="breadboard">
        <g gorn="0.2.0"  id="icon_1_">
            <path fill="#D2D2D2" gorn="0.2.0.0"  id="path4_1_" d="M90.837,0.873c0-0.532,0.484-0.904,0.906-0.904h135.396c0.602,0,0.905,0.308,0.905,0.904v81.739c0,0.479-0.377,0.905-0.905,0.905H91.741c-0.492,0-0.905-0.354-0.905-0.905L90.837,0.873L90.837,0.873z"/>
            <g >
                <line fill="none"  stroke="#FF0000" y1="42.357" stroke-width="2" x1="0" y2="42.357" x2="95.124" stroke-miterlimit="10"/>
                <line fill="none"  stroke="#000000" y1="35.052" stroke-width="2" x1="-0.001" y2="35.052" x2="95.124" stroke-miterlimit="10"/>
                <path fill="#FFC900" gorn="0.2.0.1.2"  id="path4_2_" d="M106.696,83.517H91.744c-0.493,0-0.908-0.355-0.908-0.904l0.001-81.739l0,0c0-0.532,0.484-0.904,0.908-0.904h14.949v83.55L106.696,83.517L106.696,83.517z"/>
                <path opacity="0.36" fill="#1D1D1D" gorn="0.2.0.1.3"  id="path4_3_" enable-background="new    " d="M102.15,83.517H91.744c-0.493,0-0.908-0.355-0.908-0.904l0.001-81.739l0,0c0-0.532,0.484-0.904,0.908-0.904h10.402v83.55L102.15,83.517L102.15,83.517z"/>
                <path opacity="0.35" gorn="0.2.0.1.4"  id="path22_1_" enable-background="new    " d="M93.117,83.096c-0.803,0-1.824-0.741-1.824-1.624v-4.063c0,0.887,1.023,2.262,1.824,2.262h132.638c0.803,0,1.818-1.375,1.818-2.262v4.063c0,0.883-1.019,1.624-1.818,1.624H93.117L93.117,83.096z"/>
                <path opacity="0.35" fill="#FFFFFF" gorn="0.2.0.1.5"  id="path22_2_" enable-background="new    " d="M225.657,0.441c0.804,0,1.822,0.742,1.822,1.626v4.06c0-0.879-1.021-2.257-1.822-2.257H93.022c-0.804,0-1.82,1.378-1.82,2.257v-4.06c0-0.885,1.02-1.626,1.82-1.626L225.657,0.441L225.657,0.441z"/>
            </g>
            <g gorn="0.2.0.2"  id="silkscreen_1_">
                <g  transform="matrix(1, 0, 0, 1, 28.2537, 30.6853)">
                    <g >
                        <g >
                            <g />
                        </g>
                    </g>
                </g>
                <g  transform="matrix(1, 0, 0, 1, 28.2537, 40.1101)">
                    <g >
                        <g >
                            <g >
                                <g  transform="matrix(1 0 0 1 87.961 -1.5)">
                                    <g >
                                        <g >
                                            <text font-family="DroidSans"  font-size="13">Polymer Lithium </text>
                                        </g>
                                    </g>
                                </g>
                                <g  transform="matrix(1 0 0 1 87.961 14.1)">
                                    <g >
                                        <g >
                                            <text font-family="DroidSans"  font-size="13">Ion Battery</text>
                                        </g>
                                    </g>
                                </g>
                            </g>
                        </g>
                    </g>
                </g>
                <g  transform="matrix(1 0 0 1 104.9995 14.0525)">
                    <g >
                        <g >
                            <text font-family="Droid Sans"  font-size="13">_</text>
                        </g>
                    </g>
                </g>
                <g  transform="matrix(1 0 0 1 104.6955 28.637)">
                    <g >
                        <g >
                            <text font-family="Droid Sans"  font-size="13">+</text>
                        </g>
                    </g>
                </g>
            </g>
            <g gorn="0.2.0.3"  id="copper1_1_">
                <rect width="5.137" x="0.245" y="34.357" fill="none" gorn="0.2.0.3.0"  height="1.175" id="connector1pin"/>
                <rect width="0.010274" x="0.239863" y="34.94332499999999" fill="none" gorn="0.2.0.3.1"  height="0.00235" stroke="none" id="connector1terminal" stroke-width="0"/>
                <rect width="5.137" x="0.245" y="41.809" fill="none" gorn="0.2.0.3.2"  height="1.175" id="connector0pin"/>
                <rect width="0.010274" x="0.239863" y="42.39532499999999" fill="none" gorn="0.2.0.3.3"  height="0.00235" stroke="none" id="connector0terminal" stroke-width="0"/>
            </g>
        </g>
    </g>
</svg>
