<?xml version='1.0' encoding='utf-8'?>
<!-- Generator: Adobe Illustrator 16.0.0, SVG Export Plug-In . SVG Version: 6.00 Build 0)  -->
<svg xmlns="http://www.w3.org/2000/svg" version="1.2" x="0px" gorn="0" xmlns:xml="http://www.w3.org/XML/1998/namespace" xml:space="preserve" id="Layer_1" viewBox="0 0 195.85 268.334" y="0px" baseProfile="tiny"  width="2.72014in" height="3.72686in">
    <desc >
        <referenceFile >Router copy.svg</referenceFile>
    </desc>
    <path fill="#FFFFFF" stroke="#000000" stroke-miterlimit="10" d="M195.721,240.467c0,15.655-12.691,28.346-28.348,28.346H28.476c-15.655,0-28.347-12.69-28.347-28.346V27.868c0-15.655,12.691-28.347,28.347-28.347h138.897c15.656,0,28.348,12.691,28.348,28.347V240.467z"  stroke-width="1"/>
    <g gorn="0.2" id="Vin_1_" >
        <g gorn="0.2.0" id="Connectors_copy_3" >
            <path stroke="#009444" stroke-miterlimit="10" fill-rule="evenodd" d="M28.06,267.688c0-4.326,0-8.484,0-12.77c4.387,0,8.566,0,12.899,0c0,4.267,0,8.424,0,12.77C36.616,267.688,32.384,267.688,28.06,267.688z"  stroke-width="1"/>
            <g gorn="0.2.0.1" id="Connector_copy_3_1_" >
                <path fill="#C49A6C" gorn="0.2.0.1.0" id="connector1pin" fill-rule="evenodd" d="M39.36,261.303c0,4.761,0,4.761-4.69,4.761h-0.321c-4.698,0-4.698,0-4.69-4.761l0,0c0-4.808,0.078-4.755,4.69-4.761h0.321C39.36,256.542,39.36,256.542,39.36,261.303L39.36,261.303z" />
            </g>
            <rect fill="#FFDE17" x="102.334" fill-rule="evenodd" y="241.846"  width="65.039" height="26.146"/>
        </g>
        <g gorn="0.2.1" id="Connectors_copy_3_1_" >
            <path fill="#ED1C24" stroke="#009444" stroke-miterlimit="10" fill-rule="evenodd" d="M41.706,267.688c0-4.326,0-8.484,0-12.77c4.387,0,8.566,0,12.899,0c0,4.267,0,8.424,0,12.77C50.262,267.688,46.03,267.688,41.706,267.688z"  stroke-width="1"/>
            <g gorn="0.2.1.1" id="Connector_copy_3_5_" >
                <path fill="#C49A6C" gorn="0.2.1.1.0" id="connector0pin" fill-rule="evenodd" d="M53.111,261.303c0,4.761,0,4.761-4.69,4.761h-0.321c-4.698,0-4.698,0-4.69-4.761l0,0c0-4.808,0.078-4.755,4.69-4.761h0.321C53.111,256.542,53.111,256.542,53.111,261.303L53.111,261.303z" />
            </g>
        </g>
        <g transform="matrix(0.9986 0 0 1 37.147 252.9775)" >
            <g >
                <g >
                    <text font-size="5.4927" font-family="Droid Sans" >V</text>
                </g>
            </g>
        </g>
        <g transform="matrix(0.9986 0 0 1 40.1196 252.9775)" >
            <g >
                <g >
                    <text font-size="5.4927" font-family="Droid Sans" >i</text>
                </g>
            </g>
        </g>
        <g transform="matrix(0.9986 0 0 1 41.4033 252.9775)" >
            <g >
                <g >
                    <text font-size="5.4927" font-family="Droid Sans" >n</text>
                </g>
            </g>
        </g>
        <g transform="matrix(1 0 0 1 103.5 240.0781)" >
            <g >
                <g >
                    <text font-size="5.7475" font-family="Droid Sans" >18-24v POE</text>
                </g>
            </g>
        </g>
    </g>
    <polygon fill="#C49A6C" points="138.438,249.553 146.778,249.553 146.778,245.31 154.387,245.31 154.387,249.553 163.458,249.553 163.458,266.525 138.438,266.525 " gorn="0.3" id="connector3pin" stroke="#000000" stroke-miterlimit="10"  stroke-width="1"/>
    <polygon fill="#C49A6C" points="106.249,249.553 114.589,249.553 114.589,245.31 122.197,245.31 122.197,249.553 131.269,249.553 131.269,266.525 106.249,266.525 " gorn="0.4" id="connector2pin" stroke="#000000" stroke-miterlimit="10"  stroke-width="1"/>
    <g gorn="0.5" id="LEd" >
        <circle fill="#2BB673" r="2.167" cy="14.834" cx="62.982" />
        <circle fill="#2BB673" r="2.167" cy="14.834" cx="86.277" />
        <circle fill="#2BB673" r="2.167" cy="14.834" cx="109.571" />
        <circle fill="#2BB673" r="2.167" cy="14.834" cx="132.866" />
    </g>
    <g transform="matrix(1 0 0 1 68.5 126.5)" >
        <g >
            <g >
                <text font-size="12" font-family="Droid Sans" >O</text>
            </g>
        </g>
    </g>
    <g transform="matrix(1 0 0 1 76.7681 126.5)" >
        <g >
            <g >
                <text font-size="12" font-family="Droid Sans" >p</text>
            </g>
        </g>
    </g>
    <g transform="matrix(1 0 0 1 83.5957 126.5)" >
        <g >
            <g >
                <text font-size="12" font-family="Droid Sans" >e</text>
            </g>
        </g>
    </g>
    <g transform="matrix(1 0 0 1 89.6074 126.5)" >
        <g >
            <g >
                <text font-size="12" font-family="Droid Sans" >n</text>
            </g>
        </g>
    </g>
    <g transform="matrix(1 0 0 1 96.2676 126.5)" >
        <g >
            <g >
                <text font-size="12" font-family="Droid Sans" />
            </g>
        </g>
    </g>
    <g transform="matrix(1 0 0 1 98.8115 126.5)" >
        <g >
            <g >
                <text font-size="12" font-family="Droid Sans" >M</text>
            </g>
        </g>
    </g>
    <g transform="matrix(1 0 0 1 108.5313 126.5)" >
        <g >
            <g >
                <text font-size="12" font-family="Droid Sans" >e</text>
            </g>
        </g>
    </g>
    <g transform="matrix(1 0 0 1 114.543 126.5)" >
        <g >
            <g >
                <text font-size="12" font-family="Droid Sans" >s</text>
            </g>
        </g>
    </g>
    <g transform="matrix(1 0 0 1 119.2949 126.5)" >
        <g >
            <g >
                <text font-size="12" font-family="Droid Sans" >h</text>
            </g>
        </g>
    </g>
    <g transform="matrix(1 0 0 1 136.7012 240.0781)" >
        <g >
            <g >
                <text font-size="5.7475" font-family="Droid Sans" >802.3af POE</text>
            </g>
        </g>
    </g>
</svg>
