<?xml version="1.0" encoding="utf-8"?>
<!-- Generator: Adobe Illustrator 16.0.0, SVG Export Plug-In . SVG Version: 6.00 Build 0)  -->
<!DOCTYPE svg PUBLIC "-//W3C//DTD SVG 1.1//EN" "http://www.w3.org/Graphics/SVG/1.1/DTD/svg11.dtd">
<svg version="1.1" xmlns="http://www.w3.org/2000/svg" xmlns:xlink="http://www.w3.org/1999/xlink" x="0px" y="0px"
	 width="266.457px" height="34.801px" viewBox="2.225 0 266.457 34.801" enable-background="new 2.225 0 266.457 34.801"
	 xml:space="preserve">
<g id="breadboard">
	<g>
		<rect id="connector0pin" x="22.792" y="32.597" fill="none" width="2.125" height="2.126"/>
		<rect id="connector1pin" x="29.991" y="32.597" fill="none" width="2.125" height="2.126"/>
		<rect id="connector2pin" x="37.19" y="32.597" fill="none" width="2.126" height="2.126"/>
		<rect id="connector3pin" x="44.389" y="32.597" fill="none" width="2.127" height="2.126"/>
		<rect id="connector4pin" x="51.59" y="32.597" fill="none" width="2.125" height="2.126"/>
		<rect id="connector5pin" x="58.792" y="32.597" fill="none" width="2.125" height="2.126"/>
		<rect id="connector6pin" x="65.991" y="32.597" fill="none" width="2.125" height="2.126"/>
		<rect id="connector7pin" x="73.19" y="32.597" fill="none" width="2.126" height="2.126"/>
		<rect id="connector8pin" x="80.389" y="32.597" fill="none" width="2.127" height="2.126"/>
		<rect id="connector9pin" x="87.59" y="32.597" fill="none" width="2.125" height="2.126"/>
		<rect id="connector10pin" x="94.792" y="32.597" fill="none" width="2.125" height="2.126"/>
		<rect id="connector11pin" x="101.991" y="32.597" fill="none" width="2.125" height="2.126"/>
		<rect id="connector12pin" x="109.19" y="32.597" fill="none" width="2.126" height="2.126"/>
		<rect id="connector13pin" x="116.391" y="32.597" fill="none" width="2.125" height="2.126"/>
		<rect id="connector14pin" x="123.59" y="32.597" fill="none" width="2.125" height="2.126"/>
		<rect id="connector15pin" x="130.792" y="32.597" fill="none" width="2.127" height="2.126"/>
		<rect id="connector16pin" x="137.991" y="32.597" fill="none" width="2.125" height="2.126"/>
		<rect id="connector17pin" x="145.19" y="32.597" fill="none" width="2.125" height="2.126"/>
		<rect id="connector18pin" x="152.391" y="32.597" fill="none" width="2.125" height="2.126"/>
		<rect id="connector19pin" x="159.59" y="32.597" fill="none" width="2.125" height="2.126"/>
		<rect id="connector20pin" x="166.792" y="32.597" fill="none" width="2.125" height="2.126"/>
		<rect id="connector21pin" x="173.991" y="32.597" fill="none" width="2.125" height="2.126"/>
		<rect id="connector22pin" x="181.19" y="32.597" fill="none" width="2.125" height="2.126"/>
		<rect id="connector23pin" x="188.391" y="32.597" fill="none" width="2.125" height="2.126"/>
		<rect id="connector24pin" x="195.59" y="32.597" fill="none" width="2.125" height="2.126"/>
		<rect id="connector25pin" x="202.792" y="32.597" fill="none" width="2.125" height="2.126"/>
		<rect id="connector26pin" x="209.991" y="32.597" fill="none" width="2.125" height="2.126"/>
		<rect id="connector27pin" x="217.19" y="32.597" fill="none" width="2.125" height="2.126"/>
		<rect id="connector28pin" x="224.391" y="32.597" fill="none" width="2.125" height="2.126"/>
		<rect id="connector29pin" x="231.59" y="32.597" fill="none" width="2.125" height="2.126"/>
		<rect id="connector30pin" x="238.792" y="32.597" fill="none" width="2.125" height="2.126"/>
		<rect id="connector31pin" x="245.991" y="32.597" fill="none" width="2.125" height="2.126"/>
	</g>
	<g id="icon">
		<g>
			<rect x="2.225" y="8.636" fill="#999999" width="266.457" height="14.398"/>
			<rect x="2.225" y="0.437" fill="#ADADAD" width="266.457" height="14.398"/>
			<rect x="2.225" y="15.836" fill="#A3A3A3" width="15.32" height="15.761"/>
			<rect x="2.225" y="24.269" fill="#999999" width="15.32" height="7.328"/>
			<ellipse fill="#393939" cx="9.329" cy="19.57" rx="1.979" ry="2"/>
			<rect x="253.362" y="15.836" fill="#A3A3A3" width="15.319" height="15.761"/>
			<rect x="253.362" y="24.269" fill="#999999" width="15.319" height="7.328"/>
			<ellipse fill="#393939" cx="260.466" cy="19.57" rx="1.979" ry="2"/>
			<g opacity="0.5">
				<path fill="#202020" d="M9.329,17.57c-1.093,0-1.979,0.896-1.979,2c0,0.072,0.013,0.14,0.021,0.209
					c0.105-1.005,0.937-1.791,1.958-1.791c1.021,0,1.853,0.786,1.958,1.791c0.007-0.07,0.021-0.138,0.021-0.209
					C11.308,18.465,10.422,17.57,9.329,17.57z"/>
			</g>
		</g>
		<g>
			<g>
				<rect x="244.06" y="20.995" fill="#616161" width="6" height="1.648"/>
				<rect x="244.06" y="18.745" fill="#616161" width="6" height="1.648"/>
				<rect x="244.06" y="16.491" fill="#616161" width="6" height="1.648"/>
				<rect x="244.06" y="20.995" fill="#494949" width="1.229" height="1.648"/>
				<rect x="244.06" y="18.745" fill="#494949" width="1.213" height="1.648"/>
				<rect x="244.06" y="16.491" fill="#494949" width="1.213" height="1.648"/>
				<rect x="244.06" y="16.491" opacity="0.5" fill="#494949" width="6" height="0.34"/>
				<rect x="244.06" y="18.745" opacity="0.5" fill="#494949" width="6" height="0.34"/>
				<polygon fill="#ADADAD" points="245.924,20.995 245.924,33.66 246.472,34.801 247.648,34.801 248.195,33.66 248.195,20.995 				
					"/>
				<polygon fill="#ADADAD" points="245.035,20.995 245.298,22.644 246.472,23.784 247.648,23.784 248.821,22.464 249.083,20.995 
									"/>
				<rect x="245.924" y="23.285" fill="#C2C2C2" width="0.281" height="6.171"/>
				<rect x="247.915" y="23.285" fill="#C2C2C2" width="0.28" height="6.171"/>
				<polygon fill="#C2C2C2" points="246.206,33.004 246.752,33.926 247.367,33.926 247.915,33.004 248.195,33.004 247.648,34.145 
					246.472,34.145 245.924,33.004 				"/>
				<polygon fill="#C2C2C2" points="247.915,23.285 248.498,22.644 248.71,20.995 249.083,20.995 248.821,22.644 248.195,23.285 
									"/>
				<polygon fill="#C2C2C2" points="246.206,23.285 245.621,22.644 245.407,20.995 245.035,20.995 245.298,22.644 245.924,23.285 
									"/>
				<rect x="245.924" y="24.654" fill="#CECECE" width="2.271" height="1.583"/>
				<rect x="245.924" y="24.972" fill="#DADADA" width="2.271" height="0.599"/>
				<rect x="245.924" y="24.972" fill="#E7E7E7" width="2.271" height="0.3"/>
				<polygon opacity="0.5" fill="#494949" points="245.076,21.254 249.037,21.254 249.083,20.995 245.035,20.995 				"/>
			</g>
			<g>
				<rect x="236.86" y="20.995" fill="#616161" width="6" height="1.648"/>
				<rect x="236.86" y="18.745" fill="#616161" width="6" height="1.648"/>
				<rect x="236.86" y="16.491" fill="#616161" width="6" height="1.648"/>
				<rect x="236.86" y="20.995" fill="#494949" width="1.229" height="1.648"/>
				<rect x="236.86" y="18.745" fill="#494949" width="1.213" height="1.648"/>
				<rect x="236.86" y="16.491" fill="#494949" width="1.213" height="1.648"/>
				<rect x="236.86" y="16.491" opacity="0.5" fill="#494949" width="6" height="0.34"/>
				<rect x="236.86" y="18.745" opacity="0.5" fill="#494949" width="6" height="0.34"/>
				<polygon fill="#ADADAD" points="238.724,20.995 238.724,33.66 239.272,34.801 240.448,34.801 240.995,33.66 240.995,20.995 				
					"/>
				<polygon fill="#ADADAD" points="237.834,20.995 238.098,22.644 239.272,23.784 240.448,23.784 241.621,22.464 241.882,20.995 
									"/>
				<rect x="238.724" y="23.285" fill="#C2C2C2" width="0.281" height="6.171"/>
				<rect x="240.714" y="23.285" fill="#C2C2C2" width="0.28" height="6.171"/>
				<polygon fill="#C2C2C2" points="239.005,33.004 239.552,33.926 240.167,33.926 240.714,33.004 240.995,33.004 240.448,34.145 
					239.272,34.145 238.724,33.004 				"/>
				<polygon fill="#C2C2C2" points="240.714,23.285 241.297,22.644 241.51,20.995 241.882,20.995 241.621,22.644 240.995,23.285 
									"/>
				<polygon fill="#C2C2C2" points="239.005,23.285 238.42,22.644 238.207,20.995 237.834,20.995 238.098,22.644 238.724,23.285 
									"/>
				<rect x="238.724" y="24.654" fill="#CECECE" width="2.271" height="1.583"/>
				<rect x="238.724" y="24.972" fill="#DADADA" width="2.271" height="0.599"/>
				<rect x="238.724" y="24.972" fill="#E7E7E7" width="2.271" height="0.3"/>
				<polygon opacity="0.5" fill="#494949" points="237.875,21.254 241.836,21.254 241.882,20.995 237.834,20.995 				"/>
			</g>
			<g>
				<rect x="229.66" y="20.995" fill="#616161" width="6" height="1.648"/>
				<rect x="229.66" y="18.745" fill="#616161" width="6" height="1.648"/>
				<rect x="229.66" y="16.491" fill="#616161" width="6" height="1.648"/>
				<rect x="229.66" y="20.995" fill="#494949" width="1.229" height="1.648"/>
				<rect x="229.66" y="18.745" fill="#494949" width="1.213" height="1.648"/>
				<rect x="229.66" y="16.491" fill="#494949" width="1.213" height="1.648"/>
				<rect x="229.66" y="16.491" opacity="0.5" fill="#494949" width="6" height="0.34"/>
				<rect x="229.66" y="18.745" opacity="0.5" fill="#494949" width="6" height="0.34"/>
				<polygon fill="#ADADAD" points="231.524,20.995 231.524,33.66 232.072,34.801 233.248,34.801 233.794,33.66 233.794,20.995 				
					"/>
				<polygon fill="#ADADAD" points="230.634,20.995 230.898,22.644 232.072,23.784 233.248,23.784 234.42,22.464 234.682,20.995 
									"/>
				<rect x="231.524" y="23.285" fill="#C2C2C2" width="0.281" height="6.171"/>
				<rect x="233.514" y="23.285" fill="#C2C2C2" width="0.28" height="6.171"/>
				<polygon fill="#C2C2C2" points="231.805,33.004 232.352,33.926 232.966,33.926 233.514,33.004 233.794,33.004 233.248,34.145 
					232.072,34.145 231.524,33.004 				"/>
				<polygon fill="#C2C2C2" points="233.514,23.285 234.097,22.644 234.31,20.995 234.682,20.995 234.42,22.644 233.794,23.285 				
					"/>
				<polygon fill="#C2C2C2" points="231.805,23.285 231.22,22.644 231.006,20.995 230.634,20.995 230.898,22.644 231.524,23.285 
									"/>
				<rect x="231.524" y="24.654" fill="#CECECE" width="2.271" height="1.583"/>
				<rect x="231.524" y="24.972" fill="#DADADA" width="2.271" height="0.599"/>
				<rect x="231.524" y="24.972" fill="#E7E7E7" width="2.271" height="0.3"/>
				<polygon opacity="0.5" fill="#494949" points="230.675,21.254 234.636,21.254 234.682,20.995 230.634,20.995 				"/>
			</g>
			<g>
				<rect x="222.459" y="20.995" fill="#616161" width="6" height="1.648"/>
				<rect x="222.459" y="18.745" fill="#616161" width="6" height="1.648"/>
				<rect x="222.459" y="16.491" fill="#616161" width="6" height="1.648"/>
				<rect x="222.459" y="20.995" fill="#494949" width="1.229" height="1.648"/>
				<rect x="222.459" y="18.745" fill="#494949" width="1.213" height="1.648"/>
				<rect x="222.459" y="16.491" fill="#494949" width="1.213" height="1.648"/>
				<rect x="222.459" y="16.491" opacity="0.5" fill="#494949" width="6" height="0.34"/>
				<rect x="222.459" y="18.745" opacity="0.5" fill="#494949" width="6" height="0.34"/>
				<polygon fill="#ADADAD" points="224.324,20.995 224.324,33.66 224.872,34.801 226.047,34.801 226.594,33.66 226.594,20.995 				
					"/>
				<polygon fill="#ADADAD" points="223.434,20.995 223.698,22.644 224.872,23.784 226.047,23.784 227.22,22.464 227.482,20.995 
									"/>
				<rect x="224.324" y="23.285" fill="#C2C2C2" width="0.281" height="6.171"/>
				<rect x="226.314" y="23.285" fill="#C2C2C2" width="0.28" height="6.171"/>
				<polygon fill="#C2C2C2" points="224.605,33.004 225.152,33.926 225.766,33.926 226.314,33.004 226.594,33.004 226.047,34.145 
					224.872,34.145 224.324,33.004 				"/>
				<polygon fill="#C2C2C2" points="226.314,23.285 226.897,22.644 227.11,20.995 227.482,20.995 227.22,22.644 226.594,23.285 				
					"/>
				<polygon fill="#C2C2C2" points="224.605,23.285 224.02,22.644 223.806,20.995 223.434,20.995 223.698,22.644 224.324,23.285 
									"/>
				<rect x="224.324" y="24.654" fill="#CECECE" width="2.271" height="1.583"/>
				<rect x="224.324" y="24.972" fill="#DADADA" width="2.271" height="0.599"/>
				<rect x="224.324" y="24.972" fill="#E7E7E7" width="2.271" height="0.3"/>
				<polygon opacity="0.5" fill="#494949" points="223.475,21.254 227.436,21.254 227.482,20.995 223.434,20.995 				"/>
			</g>
			<g>
				<rect x="215.259" y="20.995" fill="#616161" width="6" height="1.648"/>
				<rect x="215.259" y="18.745" fill="#616161" width="6" height="1.648"/>
				<rect x="215.259" y="16.491" fill="#616161" width="6" height="1.648"/>
				<rect x="215.259" y="20.995" fill="#494949" width="1.229" height="1.648"/>
				<rect x="215.259" y="18.745" fill="#494949" width="1.213" height="1.648"/>
				<rect x="215.259" y="16.491" fill="#494949" width="1.213" height="1.648"/>
				<rect x="215.259" y="16.491" opacity="0.5" fill="#494949" width="6" height="0.34"/>
				<rect x="215.259" y="18.745" opacity="0.5" fill="#494949" width="6" height="0.34"/>
				<polygon fill="#ADADAD" points="217.124,20.995 217.124,33.66 217.671,34.801 218.847,34.801 219.394,33.66 219.394,20.995 				
					"/>
				<polygon fill="#ADADAD" points="216.234,20.995 216.498,22.644 217.671,23.784 218.847,23.784 220.02,22.464 220.282,20.995 
									"/>
				<rect x="217.124" y="23.285" fill="#C2C2C2" width="0.281" height="6.171"/>
				<rect x="219.114" y="23.285" fill="#C2C2C2" width="0.28" height="6.171"/>
				<polygon fill="#C2C2C2" points="217.405,33.004 217.952,33.926 218.566,33.926 219.114,33.004 219.394,33.004 218.847,34.145 
					217.671,34.145 217.124,33.004 				"/>
				<polygon fill="#C2C2C2" points="219.114,23.285 219.697,22.644 219.91,20.995 220.282,20.995 220.02,22.644 219.394,23.285 				
					"/>
				<polygon fill="#C2C2C2" points="217.405,23.285 216.82,22.644 216.606,20.995 216.234,20.995 216.498,22.644 217.124,23.285 
									"/>
				<rect x="217.124" y="24.654" fill="#CECECE" width="2.271" height="1.583"/>
				<rect x="217.124" y="24.972" fill="#DADADA" width="2.271" height="0.599"/>
				<rect x="217.124" y="24.972" fill="#E7E7E7" width="2.271" height="0.3"/>
				<polygon opacity="0.5" fill="#494949" points="216.275,21.254 220.236,21.254 220.282,20.995 216.234,20.995 				"/>
			</g>
			<g>
				<rect x="208.059" y="20.995" fill="#616161" width="6" height="1.648"/>
				<rect x="208.059" y="18.745" fill="#616161" width="6" height="1.648"/>
				<rect x="208.059" y="16.491" fill="#616161" width="6" height="1.648"/>
				<rect x="208.059" y="20.995" fill="#494949" width="1.229" height="1.648"/>
				<rect x="208.059" y="18.745" fill="#494949" width="1.213" height="1.648"/>
				<rect x="208.059" y="16.491" fill="#494949" width="1.213" height="1.648"/>
				<rect x="208.059" y="16.491" opacity="0.5" fill="#494949" width="6" height="0.34"/>
				<rect x="208.059" y="18.745" opacity="0.5" fill="#494949" width="6" height="0.34"/>
				<polygon fill="#ADADAD" points="209.923,20.995 209.923,33.66 210.471,34.801 211.647,34.801 212.194,33.66 212.194,20.995 				
					"/>
				<polygon fill="#ADADAD" points="209.034,20.995 209.297,22.644 210.471,23.784 211.647,23.784 212.82,22.464 213.082,20.995 
									"/>
				<rect x="209.923" y="23.285" fill="#C2C2C2" width="0.281" height="6.171"/>
				<rect x="211.914" y="23.285" fill="#C2C2C2" width="0.28" height="6.171"/>
				<polygon fill="#C2C2C2" points="210.205,33.004 210.751,33.926 211.366,33.926 211.914,33.004 212.194,33.004 211.647,34.145 
					210.471,34.145 209.923,33.004 				"/>
				<polygon fill="#C2C2C2" points="211.914,23.285 212.497,22.644 212.709,20.995 213.082,20.995 212.82,22.644 212.194,23.285 
									"/>
				<polygon fill="#C2C2C2" points="210.205,23.285 209.62,22.644 209.406,20.995 209.034,20.995 209.297,22.644 209.923,23.285 
									"/>
				<rect x="209.923" y="24.654" fill="#CECECE" width="2.271" height="1.583"/>
				<rect x="209.923" y="24.972" fill="#DADADA" width="2.271" height="0.599"/>
				<rect x="209.923" y="24.972" fill="#E7E7E7" width="2.271" height="0.3"/>
				<polygon opacity="0.5" fill="#494949" points="209.075,21.254 213.036,21.254 213.082,20.995 209.034,20.995 				"/>
			</g>
			<g>
				<rect x="200.859" y="20.995" fill="#616161" width="6" height="1.648"/>
				<rect x="200.859" y="18.745" fill="#616161" width="6" height="1.648"/>
				<rect x="200.859" y="16.491" fill="#616161" width="6" height="1.648"/>
				<rect x="200.859" y="20.995" fill="#494949" width="1.229" height="1.648"/>
				<rect x="200.859" y="18.745" fill="#494949" width="1.213" height="1.648"/>
				<rect x="200.859" y="16.491" fill="#494949" width="1.213" height="1.648"/>
				<rect x="200.859" y="16.491" opacity="0.5" fill="#494949" width="6" height="0.34"/>
				<rect x="200.859" y="18.745" opacity="0.5" fill="#494949" width="6" height="0.34"/>
				<polygon fill="#ADADAD" points="202.723,20.995 202.723,33.66 203.271,34.801 204.447,34.801 204.994,33.66 204.994,20.995 				
					"/>
				<polygon fill="#ADADAD" points="201.833,20.995 202.097,22.644 203.271,23.784 204.447,23.784 205.62,22.464 205.881,20.995 
									"/>
				<rect x="202.723" y="23.285" fill="#C2C2C2" width="0.281" height="6.171"/>
				<rect x="204.713" y="23.285" fill="#C2C2C2" width="0.28" height="6.171"/>
				<polygon fill="#C2C2C2" points="203.004,33.004 203.551,33.926 204.166,33.926 204.713,33.004 204.994,33.004 204.447,34.145 
					203.271,34.145 202.723,33.004 				"/>
				<polygon fill="#C2C2C2" points="204.713,23.285 205.296,22.644 205.509,20.995 205.881,20.995 205.62,22.644 204.994,23.285 
									"/>
				<polygon fill="#C2C2C2" points="203.004,23.285 202.419,22.644 202.206,20.995 201.833,20.995 202.097,22.644 202.723,23.285 
									"/>
				<rect x="202.723" y="24.654" fill="#CECECE" width="2.271" height="1.583"/>
				<rect x="202.723" y="24.972" fill="#DADADA" width="2.271" height="0.599"/>
				<rect x="202.723" y="24.972" fill="#E7E7E7" width="2.271" height="0.3"/>
				<polygon opacity="0.5" fill="#494949" points="201.875,21.254 205.835,21.254 205.881,20.995 201.833,20.995 				"/>
			</g>
			<g>
				<rect x="193.659" y="20.995" fill="#616161" width="6" height="1.648"/>
				<rect x="193.659" y="18.745" fill="#616161" width="6" height="1.648"/>
				<rect x="193.659" y="16.491" fill="#616161" width="6" height="1.648"/>
				<rect x="193.659" y="20.995" fill="#494949" width="1.229" height="1.648"/>
				<rect x="193.659" y="18.745" fill="#494949" width="1.213" height="1.648"/>
				<rect x="193.659" y="16.491" fill="#494949" width="1.213" height="1.648"/>
				<rect x="193.659" y="16.491" opacity="0.5" fill="#494949" width="6" height="0.34"/>
				<rect x="193.659" y="18.745" opacity="0.5" fill="#494949" width="6" height="0.34"/>
				<polygon fill="#ADADAD" points="195.523,20.995 195.523,33.66 196.071,34.801 197.247,34.801 197.793,33.66 197.793,20.995 				
					"/>
				<polygon fill="#ADADAD" points="194.633,20.995 194.897,22.644 196.071,23.784 197.247,23.784 198.419,22.464 198.681,20.995 
									"/>
				<rect x="195.523" y="23.285" fill="#C2C2C2" width="0.281" height="6.171"/>
				<rect x="197.513" y="23.285" fill="#C2C2C2" width="0.28" height="6.171"/>
				<polygon fill="#C2C2C2" points="195.804,33.004 196.351,33.926 196.965,33.926 197.513,33.004 197.793,33.004 197.247,34.145 
					196.071,34.145 195.523,33.004 				"/>
				<polygon fill="#C2C2C2" points="197.513,23.285 198.096,22.644 198.309,20.995 198.681,20.995 198.419,22.644 197.793,23.285 
									"/>
				<polygon fill="#C2C2C2" points="195.804,23.285 195.219,22.644 195.005,20.995 194.633,20.995 194.897,22.644 195.523,23.285 
									"/>
				<rect x="195.523" y="24.654" fill="#CECECE" width="2.271" height="1.583"/>
				<rect x="195.523" y="24.972" fill="#DADADA" width="2.271" height="0.599"/>
				<rect x="195.523" y="24.972" fill="#E7E7E7" width="2.271" height="0.3"/>
				<polygon opacity="0.5" fill="#494949" points="194.674,21.254 198.635,21.254 198.681,20.995 194.633,20.995 				"/>
			</g>
			<g>
				<rect x="186.458" y="20.995" fill="#616161" width="6" height="1.648"/>
				<rect x="186.458" y="18.745" fill="#616161" width="6" height="1.648"/>
				<rect x="186.458" y="16.491" fill="#616161" width="6" height="1.648"/>
				<rect x="186.458" y="20.995" fill="#494949" width="1.229" height="1.648"/>
				<rect x="186.458" y="18.745" fill="#494949" width="1.213" height="1.648"/>
				<rect x="186.458" y="16.491" fill="#494949" width="1.213" height="1.648"/>
				<rect x="186.458" y="16.491" opacity="0.5" fill="#494949" width="6" height="0.34"/>
				<rect x="186.458" y="18.745" opacity="0.5" fill="#494949" width="6" height="0.34"/>
				<polygon fill="#ADADAD" points="188.323,20.995 188.323,33.66 188.871,34.801 190.046,34.801 190.593,33.66 190.593,20.995 				
					"/>
				<polygon fill="#ADADAD" points="187.433,20.995 187.697,22.644 188.871,23.784 190.046,23.784 191.219,22.464 191.481,20.995 
									"/>
				<rect x="188.323" y="23.285" fill="#C2C2C2" width="0.281" height="6.171"/>
				<rect x="190.313" y="23.285" fill="#C2C2C2" width="0.28" height="6.171"/>
				<polygon fill="#C2C2C2" points="188.604,33.004 189.151,33.926 189.765,33.926 190.313,33.004 190.593,33.004 190.046,34.145 
					188.871,34.145 188.323,33.004 				"/>
				<polygon fill="#C2C2C2" points="190.313,23.285 190.896,22.644 191.109,20.995 191.481,20.995 191.219,22.644 190.593,23.285 
									"/>
				<polygon fill="#C2C2C2" points="188.604,23.285 188.019,22.644 187.805,20.995 187.433,20.995 187.697,22.644 188.323,23.285 
									"/>
				<rect x="188.323" y="24.654" fill="#CECECE" width="2.271" height="1.583"/>
				<rect x="188.323" y="24.972" fill="#DADADA" width="2.271" height="0.599"/>
				<rect x="188.323" y="24.972" fill="#E7E7E7" width="2.271" height="0.3"/>
				<polygon opacity="0.5" fill="#494949" points="187.474,21.254 191.435,21.254 191.481,20.995 187.433,20.995 				"/>
			</g>
			<g>
				<rect x="179.258" y="20.995" fill="#616161" width="6" height="1.648"/>
				<rect x="179.258" y="18.745" fill="#616161" width="6" height="1.648"/>
				<rect x="179.258" y="16.491" fill="#616161" width="6" height="1.648"/>
				<rect x="179.258" y="20.995" fill="#494949" width="1.229" height="1.648"/>
				<rect x="179.258" y="18.745" fill="#494949" width="1.213" height="1.648"/>
				<rect x="179.258" y="16.491" fill="#494949" width="1.213" height="1.648"/>
				<rect x="179.258" y="16.491" opacity="0.5" fill="#494949" width="6" height="0.34"/>
				<rect x="179.258" y="18.745" opacity="0.5" fill="#494949" width="6" height="0.34"/>
				<polygon fill="#ADADAD" points="181.123,20.995 181.123,33.66 181.67,34.801 182.846,34.801 183.393,33.66 183.393,20.995 				
					"/>
				<polygon fill="#ADADAD" points="180.233,20.995 180.497,22.644 181.67,23.784 182.846,23.784 184.019,22.464 184.281,20.995 
									"/>
				<rect x="181.123" y="23.285" fill="#C2C2C2" width="0.281" height="6.171"/>
				<rect x="183.113" y="23.285" fill="#C2C2C2" width="0.28" height="6.171"/>
				<polygon fill="#C2C2C2" points="181.404,33.004 181.951,33.926 182.565,33.926 183.113,33.004 183.393,33.004 182.846,34.145 
					181.67,34.145 181.123,33.004 				"/>
				<polygon fill="#C2C2C2" points="183.113,23.285 183.696,22.644 183.909,20.995 184.281,20.995 184.019,22.644 183.393,23.285 
									"/>
				<polygon fill="#C2C2C2" points="181.404,23.285 180.819,22.644 180.605,20.995 180.233,20.995 180.497,22.644 181.123,23.285 
									"/>
				<rect x="181.123" y="24.654" fill="#CECECE" width="2.271" height="1.583"/>
				<rect x="181.123" y="24.972" fill="#DADADA" width="2.271" height="0.599"/>
				<rect x="181.123" y="24.972" fill="#E7E7E7" width="2.271" height="0.3"/>
				<polygon opacity="0.5" fill="#494949" points="180.274,21.254 184.235,21.254 184.281,20.995 180.233,20.995 				"/>
			</g>
			<g>
				<rect x="172.058" y="20.995" fill="#616161" width="6" height="1.648"/>
				<rect x="172.058" y="18.745" fill="#616161" width="6" height="1.648"/>
				<rect x="172.058" y="16.491" fill="#616161" width="6" height="1.648"/>
				<rect x="172.058" y="20.995" fill="#494949" width="1.229" height="1.648"/>
				<rect x="172.058" y="18.745" fill="#494949" width="1.213" height="1.648"/>
				<rect x="172.058" y="16.491" fill="#494949" width="1.213" height="1.648"/>
				<rect x="172.058" y="16.491" opacity="0.5" fill="#494949" width="6" height="0.34"/>
				<rect x="172.058" y="18.745" opacity="0.5" fill="#494949" width="6" height="0.34"/>
				<polygon fill="#ADADAD" points="173.922,20.995 173.922,33.66 174.47,34.801 175.646,34.801 176.193,33.66 176.193,20.995 				
					"/>
				<polygon fill="#ADADAD" points="173.033,20.995 173.296,22.644 174.47,23.784 175.646,23.784 176.819,22.464 177.081,20.995 
									"/>
				<rect x="173.922" y="23.285" fill="#C2C2C2" width="0.281" height="6.171"/>
				<rect x="175.913" y="23.285" fill="#C2C2C2" width="0.28" height="6.171"/>
				<polygon fill="#C2C2C2" points="174.204,33.004 174.75,33.926 175.365,33.926 175.913,33.004 176.193,33.004 175.646,34.145 
					174.47,34.145 173.922,33.004 				"/>
				<polygon fill="#C2C2C2" points="175.913,23.285 176.496,22.644 176.708,20.995 177.081,20.995 176.819,22.644 176.193,23.285 
									"/>
				<polygon fill="#C2C2C2" points="174.204,23.285 173.619,22.644 173.405,20.995 173.033,20.995 173.296,22.644 173.922,23.285 
									"/>
				<rect x="173.922" y="24.654" fill="#CECECE" width="2.271" height="1.583"/>
				<rect x="173.922" y="24.972" fill="#DADADA" width="2.271" height="0.599"/>
				<rect x="173.922" y="24.972" fill="#E7E7E7" width="2.271" height="0.3"/>
				<polygon opacity="0.5" fill="#494949" points="173.074,21.254 177.035,21.254 177.081,20.995 173.033,20.995 				"/>
			</g>
			<g>
				<rect x="164.858" y="20.995" fill="#616161" width="6" height="1.648"/>
				<rect x="164.858" y="18.745" fill="#616161" width="6" height="1.648"/>
				<rect x="164.858" y="16.491" fill="#616161" width="6" height="1.648"/>
				<rect x="164.858" y="20.995" fill="#494949" width="1.229" height="1.648"/>
				<rect x="164.858" y="18.745" fill="#494949" width="1.213" height="1.648"/>
				<rect x="164.858" y="16.491" fill="#494949" width="1.213" height="1.648"/>
				<rect x="164.858" y="16.491" opacity="0.5" fill="#494949" width="6" height="0.34"/>
				<rect x="164.858" y="18.745" opacity="0.5" fill="#494949" width="6" height="0.34"/>
				<polygon fill="#ADADAD" points="166.722,20.995 166.722,33.66 167.27,34.801 168.446,34.801 168.993,33.66 168.993,20.995 				
					"/>
				<polygon fill="#ADADAD" points="165.833,20.995 166.096,22.644 167.27,23.784 168.446,23.784 169.619,22.464 169.88,20.995 				
					"/>
				<rect x="166.722" y="23.285" fill="#C2C2C2" width="0.281" height="6.171"/>
				<rect x="168.712" y="23.285" fill="#C2C2C2" width="0.28" height="6.171"/>
				<polygon fill="#C2C2C2" points="167.003,33.004 167.55,33.926 168.165,33.926 168.712,33.004 168.993,33.004 168.446,34.145 
					167.27,34.145 166.722,33.004 				"/>
				<polygon fill="#C2C2C2" points="168.712,23.285 169.295,22.644 169.508,20.995 169.88,20.995 169.619,22.644 168.993,23.285 
									"/>
				<polygon fill="#C2C2C2" points="167.003,23.285 166.418,22.644 166.205,20.995 165.833,20.995 166.096,22.644 166.722,23.285 
									"/>
				<rect x="166.722" y="24.654" fill="#CECECE" width="2.271" height="1.583"/>
				<rect x="166.722" y="24.972" fill="#DADADA" width="2.271" height="0.599"/>
				<rect x="166.722" y="24.972" fill="#E7E7E7" width="2.271" height="0.3"/>
				<polygon opacity="0.5" fill="#494949" points="165.874,21.254 169.834,21.254 169.88,20.995 165.833,20.995 				"/>
			</g>
			<g>
				<rect x="157.658" y="20.995" fill="#616161" width="6" height="1.648"/>
				<rect x="157.658" y="18.745" fill="#616161" width="6" height="1.648"/>
				<rect x="157.658" y="16.491" fill="#616161" width="6" height="1.648"/>
				<rect x="157.658" y="20.995" fill="#494949" width="1.229" height="1.648"/>
				<rect x="157.658" y="18.745" fill="#494949" width="1.213" height="1.648"/>
				<rect x="157.658" y="16.491" fill="#494949" width="1.213" height="1.648"/>
				<rect x="157.658" y="16.491" opacity="0.5" fill="#494949" width="6" height="0.34"/>
				<rect x="157.658" y="18.745" opacity="0.5" fill="#494949" width="6" height="0.34"/>
				<polygon fill="#ADADAD" points="159.522,20.995 159.522,33.66 160.07,34.801 161.246,34.801 161.792,33.66 161.792,20.995 				
					"/>
				<polygon fill="#ADADAD" points="158.632,20.995 158.896,22.644 160.07,23.784 161.246,23.784 162.418,22.464 162.68,20.995 				
					"/>
				<rect x="159.522" y="23.285" fill="#C2C2C2" width="0.281" height="6.171"/>
				<rect x="161.512" y="23.285" fill="#C2C2C2" width="0.28" height="6.171"/>
				<polygon fill="#C2C2C2" points="159.803,33.004 160.35,33.926 160.964,33.926 161.512,33.004 161.792,33.004 161.246,34.145 
					160.07,34.145 159.522,33.004 				"/>
				<polygon fill="#C2C2C2" points="161.512,23.285 162.095,22.644 162.308,20.995 162.68,20.995 162.418,22.644 161.792,23.285 
									"/>
				<polygon fill="#C2C2C2" points="159.803,23.285 159.218,22.644 159.004,20.995 158.632,20.995 158.896,22.644 159.522,23.285 
									"/>
				<rect x="159.522" y="24.654" fill="#CECECE" width="2.271" height="1.583"/>
				<rect x="159.522" y="24.972" fill="#DADADA" width="2.271" height="0.599"/>
				<rect x="159.522" y="24.972" fill="#E7E7E7" width="2.271" height="0.3"/>
				<polygon opacity="0.5" fill="#494949" points="158.673,21.254 162.634,21.254 162.68,20.995 158.632,20.995 				"/>
			</g>
			<g>
				<rect x="150.458" y="20.995" fill="#616161" width="6" height="1.648"/>
				<rect x="150.458" y="18.745" fill="#616161" width="6" height="1.648"/>
				<rect x="150.458" y="16.491" fill="#616161" width="6" height="1.648"/>
				<rect x="150.458" y="20.995" fill="#494949" width="1.229" height="1.648"/>
				<rect x="150.458" y="18.745" fill="#494949" width="1.213" height="1.648"/>
				<rect x="150.458" y="16.491" fill="#494949" width="1.213" height="1.648"/>
				<rect x="150.458" y="16.491" opacity="0.5" fill="#494949" width="6" height="0.34"/>
				<rect x="150.458" y="18.745" opacity="0.5" fill="#494949" width="6" height="0.34"/>
				<polygon fill="#ADADAD" points="152.322,20.995 152.322,33.66 152.87,34.801 154.045,34.801 154.592,33.66 154.592,20.995 				
					"/>
				<polygon fill="#ADADAD" points="151.432,20.995 151.696,22.644 152.87,23.784 154.045,23.784 155.218,22.464 155.48,20.995 				
					"/>
				<rect x="152.322" y="23.285" fill="#C2C2C2" width="0.281" height="6.171"/>
				<rect x="154.312" y="23.285" fill="#C2C2C2" width="0.28" height="6.171"/>
				<polygon fill="#C2C2C2" points="152.603,33.004 153.15,33.926 153.764,33.926 154.312,33.004 154.592,33.004 154.045,34.145 
					152.87,34.145 152.322,33.004 				"/>
				<polygon fill="#C2C2C2" points="154.312,23.285 154.895,22.644 155.108,20.995 155.48,20.995 155.218,22.644 154.592,23.285 
									"/>
				<polygon fill="#C2C2C2" points="152.603,23.285 152.018,22.644 151.804,20.995 151.432,20.995 151.696,22.644 152.322,23.285 
									"/>
				<rect x="152.322" y="24.654" fill="#CECECE" width="2.271" height="1.583"/>
				<rect x="152.322" y="24.972" fill="#DADADA" width="2.271" height="0.599"/>
				<rect x="152.322" y="24.972" fill="#E7E7E7" width="2.271" height="0.3"/>
				<polygon opacity="0.5" fill="#494949" points="151.473,21.254 155.434,21.254 155.48,20.995 151.432,20.995 				"/>
			</g>
			<g>
				<rect x="143.257" y="20.995" fill="#616161" width="6" height="1.648"/>
				<rect x="143.257" y="18.745" fill="#616161" width="6" height="1.648"/>
				<rect x="143.257" y="16.491" fill="#616161" width="6" height="1.648"/>
				<rect x="143.257" y="20.995" fill="#494949" width="1.229" height="1.648"/>
				<rect x="143.257" y="18.745" fill="#494949" width="1.213" height="1.648"/>
				<rect x="143.257" y="16.491" fill="#494949" width="1.213" height="1.648"/>
				<rect x="143.257" y="16.491" opacity="0.5" fill="#494949" width="6" height="0.34"/>
				<rect x="143.257" y="18.745" opacity="0.5" fill="#494949" width="6" height="0.34"/>
				<polygon fill="#ADADAD" points="145.122,20.995 145.122,33.66 145.669,34.801 146.845,34.801 147.392,33.66 147.392,20.995 				
					"/>
				<polygon fill="#ADADAD" points="144.232,20.995 144.496,22.644 145.669,23.784 146.845,23.784 148.018,22.464 148.28,20.995 
									"/>
				<rect x="145.122" y="23.285" fill="#C2C2C2" width="0.281" height="6.171"/>
				<rect x="147.112" y="23.285" fill="#C2C2C2" width="0.28" height="6.171"/>
				<polygon fill="#C2C2C2" points="145.403,33.004 145.95,33.926 146.564,33.926 147.112,33.004 147.392,33.004 146.845,34.145 
					145.669,34.145 145.122,33.004 				"/>
				<polygon fill="#C2C2C2" points="147.112,23.285 147.695,22.644 147.908,20.995 148.28,20.995 148.018,22.644 147.392,23.285 
									"/>
				<polygon fill="#C2C2C2" points="145.403,23.285 144.818,22.644 144.604,20.995 144.232,20.995 144.496,22.644 145.122,23.285 
									"/>
				<rect x="145.122" y="24.654" fill="#CECECE" width="2.271" height="1.583"/>
				<rect x="145.122" y="24.972" fill="#DADADA" width="2.271" height="0.599"/>
				<rect x="145.122" y="24.972" fill="#E7E7E7" width="2.271" height="0.3"/>
				<polygon opacity="0.5" fill="#494949" points="144.273,21.254 148.234,21.254 148.28,20.995 144.232,20.995 				"/>
			</g>
			<g>
				<rect x="136.057" y="20.995" fill="#616161" width="6" height="1.648"/>
				<rect x="136.057" y="18.745" fill="#616161" width="6" height="1.648"/>
				<rect x="136.057" y="16.491" fill="#616161" width="6" height="1.648"/>
				<rect x="136.057" y="20.995" fill="#494949" width="1.229" height="1.648"/>
				<rect x="136.057" y="18.745" fill="#494949" width="1.213" height="1.648"/>
				<rect x="136.057" y="16.491" fill="#494949" width="1.213" height="1.648"/>
				<rect x="136.057" y="16.491" opacity="0.5" fill="#494949" width="6" height="0.34"/>
				<rect x="136.057" y="18.745" opacity="0.5" fill="#494949" width="6" height="0.34"/>
				<polygon fill="#ADADAD" points="137.921,20.995 137.921,33.66 138.469,34.801 139.645,34.801 140.192,33.66 140.192,20.995 				
					"/>
				<polygon fill="#ADADAD" points="137.032,20.995 137.295,22.644 138.469,23.784 139.645,23.784 140.818,22.464 141.08,20.995 
									"/>
				<rect x="137.921" y="23.285" fill="#C2C2C2" width="0.281" height="6.171"/>
				<rect x="139.912" y="23.285" fill="#C2C2C2" width="0.28" height="6.171"/>
				<polygon fill="#C2C2C2" points="138.203,33.004 138.75,33.926 139.364,33.926 139.912,33.004 140.192,33.004 139.645,34.145 
					138.469,34.145 137.921,33.004 				"/>
				<polygon fill="#C2C2C2" points="139.912,23.285 140.495,22.644 140.708,20.995 141.08,20.995 140.818,22.644 140.192,23.285 
									"/>
				<polygon fill="#C2C2C2" points="138.203,23.285 137.618,22.644 137.404,20.995 137.032,20.995 137.295,22.644 137.921,23.285 
									"/>
				<rect x="137.921" y="24.654" fill="#CECECE" width="2.271" height="1.583"/>
				<rect x="137.921" y="24.972" fill="#DADADA" width="2.271" height="0.599"/>
				<rect x="137.921" y="24.972" fill="#E7E7E7" width="2.271" height="0.3"/>
				<polygon opacity="0.5" fill="#494949" points="137.073,21.254 141.034,21.254 141.08,20.995 137.032,20.995 				"/>
			</g>
			<g>
				<rect x="128.857" y="20.995" fill="#616161" width="6" height="1.648"/>
				<rect x="128.857" y="18.745" fill="#616161" width="6" height="1.648"/>
				<rect x="128.857" y="16.491" fill="#616161" width="6" height="1.648"/>
				<rect x="128.857" y="20.995" fill="#494949" width="1.229" height="1.648"/>
				<rect x="128.857" y="18.745" fill="#494949" width="1.213" height="1.648"/>
				<rect x="128.857" y="16.491" fill="#494949" width="1.213" height="1.648"/>
				<rect x="128.857" y="16.491" opacity="0.5" fill="#494949" width="6" height="0.34"/>
				<rect x="128.857" y="18.745" opacity="0.5" fill="#494949" width="6" height="0.34"/>
				<polygon fill="#ADADAD" points="130.721,20.995 130.721,33.66 131.269,34.801 132.445,34.801 132.992,33.66 132.992,20.995 				
					"/>
				<polygon fill="#ADADAD" points="129.832,20.995 130.095,22.644 131.269,23.784 132.445,23.784 133.618,22.464 133.879,20.995 
									"/>
				<rect x="130.721" y="23.285" fill="#C2C2C2" width="0.281" height="6.171"/>
				<rect x="132.711" y="23.285" fill="#C2C2C2" width="0.28" height="6.171"/>
				<polygon fill="#C2C2C2" points="131.002,33.004 131.549,33.926 132.164,33.926 132.711,33.004 132.992,33.004 132.445,34.145 
					131.269,34.145 130.721,33.004 				"/>
				<polygon fill="#C2C2C2" points="132.711,23.285 133.294,22.644 133.507,20.995 133.879,20.995 133.618,22.644 132.992,23.285 
									"/>
				<polygon fill="#C2C2C2" points="131.002,23.285 130.417,22.644 130.204,20.995 129.832,20.995 130.095,22.644 130.721,23.285 
									"/>
				<rect x="130.721" y="24.654" fill="#CECECE" width="2.271" height="1.583"/>
				<rect x="130.721" y="24.972" fill="#DADADA" width="2.271" height="0.599"/>
				<rect x="130.721" y="24.972" fill="#E7E7E7" width="2.271" height="0.3"/>
				<polygon opacity="0.5" fill="#494949" points="129.873,21.254 133.833,21.254 133.879,20.995 129.832,20.995 				"/>
			</g>
			<g>
				<rect x="121.657" y="20.995" fill="#616161" width="6" height="1.648"/>
				<rect x="121.657" y="18.745" fill="#616161" width="6" height="1.648"/>
				<rect x="121.657" y="16.491" fill="#616161" width="6" height="1.648"/>
				<rect x="121.657" y="20.995" fill="#494949" width="1.229" height="1.648"/>
				<rect x="121.657" y="18.745" fill="#494949" width="1.213" height="1.648"/>
				<rect x="121.657" y="16.491" fill="#494949" width="1.213" height="1.648"/>
				<rect x="121.657" y="16.491" opacity="0.5" fill="#494949" width="6" height="0.34"/>
				<rect x="121.657" y="18.745" opacity="0.5" fill="#494949" width="6" height="0.34"/>
				<polygon fill="#ADADAD" points="123.521,20.995 123.521,33.66 124.069,34.801 125.245,34.801 125.792,33.66 125.792,20.995 				
					"/>
				<polygon fill="#ADADAD" points="122.631,20.995 122.895,22.644 124.069,23.784 125.245,23.784 126.417,22.464 126.679,20.995 
									"/>
				<rect x="123.521" y="23.285" fill="#C2C2C2" width="0.281" height="6.171"/>
				<rect x="125.511" y="23.285" fill="#C2C2C2" width="0.28" height="6.171"/>
				<polygon fill="#C2C2C2" points="123.802,33.004 124.349,33.926 124.963,33.926 125.511,33.004 125.792,33.004 125.245,34.145 
					124.069,34.145 123.521,33.004 				"/>
				<polygon fill="#C2C2C2" points="125.511,23.285 126.094,22.644 126.307,20.995 126.679,20.995 126.417,22.644 125.792,23.285 
									"/>
				<polygon fill="#C2C2C2" points="123.802,23.285 123.217,22.644 123.003,20.995 122.631,20.995 122.895,22.644 123.521,23.285 
									"/>
				<rect x="123.521" y="24.654" fill="#CECECE" width="2.271" height="1.583"/>
				<rect x="123.521" y="24.972" fill="#DADADA" width="2.271" height="0.599"/>
				<rect x="123.521" y="24.972" fill="#E7E7E7" width="2.271" height="0.3"/>
				<polygon opacity="0.5" fill="#494949" points="122.672,21.254 126.633,21.254 126.679,20.995 122.631,20.995 				"/>
			</g>
			<g>
				<rect x="114.457" y="20.995" fill="#616161" width="6" height="1.648"/>
				<rect x="114.457" y="18.745" fill="#616161" width="6" height="1.648"/>
				<rect x="114.457" y="16.491" fill="#616161" width="6" height="1.648"/>
				<rect x="114.457" y="20.995" fill="#494949" width="1.229" height="1.648"/>
				<rect x="114.457" y="18.745" fill="#494949" width="1.213" height="1.648"/>
				<rect x="114.457" y="16.491" fill="#494949" width="1.213" height="1.648"/>
				<rect x="114.457" y="16.491" opacity="0.5" fill="#494949" width="6" height="0.34"/>
				<rect x="114.457" y="18.745" opacity="0.5" fill="#494949" width="6" height="0.34"/>
				<polygon fill="#ADADAD" points="116.321,20.995 116.321,33.66 116.869,34.801 118.044,34.801 118.591,33.66 118.591,20.995 				
					"/>
				<polygon fill="#ADADAD" points="115.431,20.995 115.695,22.644 116.869,23.784 118.044,23.784 119.217,22.464 119.479,20.995 
									"/>
				<rect x="116.321" y="23.285" fill="#C2C2C2" width="0.281" height="6.171"/>
				<rect x="118.311" y="23.285" fill="#C2C2C2" width="0.28" height="6.171"/>
				<polygon fill="#C2C2C2" points="116.602,33.004 117.149,33.926 117.763,33.926 118.311,33.004 118.591,33.004 118.044,34.145 
					116.869,34.145 116.321,33.004 				"/>
				<polygon fill="#C2C2C2" points="118.311,23.285 118.894,22.644 119.107,20.995 119.479,20.995 119.217,22.644 118.591,23.285 
									"/>
				<polygon fill="#C2C2C2" points="116.602,23.285 116.017,22.644 115.803,20.995 115.431,20.995 115.695,22.644 116.321,23.285 
									"/>
				<rect x="116.321" y="24.654" fill="#CECECE" width="2.271" height="1.583"/>
				<rect x="116.321" y="24.972" fill="#DADADA" width="2.271" height="0.599"/>
				<rect x="116.321" y="24.972" fill="#E7E7E7" width="2.271" height="0.3"/>
				<polygon opacity="0.5" fill="#494949" points="115.472,21.254 119.433,21.254 119.479,20.995 115.431,20.995 				"/>
			</g>
			<g>
				<rect x="107.256" y="20.995" fill="#616161" width="6" height="1.648"/>
				<rect x="107.256" y="18.745" fill="#616161" width="6" height="1.648"/>
				<rect x="107.256" y="16.491" fill="#616161" width="6" height="1.648"/>
				<rect x="107.256" y="20.995" fill="#494949" width="1.229" height="1.648"/>
				<rect x="107.256" y="18.745" fill="#494949" width="1.213" height="1.648"/>
				<rect x="107.256" y="16.491" fill="#494949" width="1.213" height="1.648"/>
				<rect x="107.256" y="16.491" opacity="0.5" fill="#494949" width="6" height="0.34"/>
				<rect x="107.256" y="18.745" opacity="0.5" fill="#494949" width="6" height="0.34"/>
				<polygon fill="#ADADAD" points="109.121,20.995 109.121,33.66 109.668,34.801 110.844,34.801 111.391,33.66 111.391,20.995 				
					"/>
				<polygon fill="#ADADAD" points="108.231,20.995 108.495,22.644 109.668,23.784 110.844,23.784 112.017,22.464 112.279,20.995 
									"/>
				<rect x="109.121" y="23.285" fill="#C2C2C2" width="0.281" height="6.171"/>
				<rect x="111.111" y="23.285" fill="#C2C2C2" width="0.28" height="6.171"/>
				<polygon fill="#C2C2C2" points="109.402,33.004 109.949,33.926 110.563,33.926 111.111,33.004 111.391,33.004 110.844,34.145 
					109.668,34.145 109.121,33.004 				"/>
				<polygon fill="#C2C2C2" points="111.111,23.285 111.694,22.644 111.907,20.995 112.279,20.995 112.017,22.644 111.391,23.285 
									"/>
				<polygon fill="#C2C2C2" points="109.402,23.285 108.817,22.644 108.603,20.995 108.231,20.995 108.495,22.644 109.121,23.285 
									"/>
				<rect x="109.121" y="24.654" fill="#CECECE" width="2.271" height="1.583"/>
				<rect x="109.121" y="24.972" fill="#DADADA" width="2.271" height="0.599"/>
				<rect x="109.121" y="24.972" fill="#E7E7E7" width="2.271" height="0.3"/>
				<polygon opacity="0.5" fill="#494949" points="108.272,21.254 112.233,21.254 112.279,20.995 108.231,20.995 				"/>
			</g>
			<g>
				<rect x="100.056" y="20.995" fill="#616161" width="6" height="1.648"/>
				<rect x="100.056" y="18.745" fill="#616161" width="6" height="1.648"/>
				<rect x="100.056" y="16.491" fill="#616161" width="6" height="1.648"/>
				<rect x="100.056" y="20.995" fill="#494949" width="1.229" height="1.648"/>
				<rect x="100.056" y="18.745" fill="#494949" width="1.213" height="1.648"/>
				<rect x="100.056" y="16.491" fill="#494949" width="1.213" height="1.648"/>
				<rect x="100.056" y="16.491" opacity="0.5" fill="#494949" width="6" height="0.34"/>
				<rect x="100.056" y="18.745" opacity="0.5" fill="#494949" width="6" height="0.34"/>
				<polygon fill="#ADADAD" points="101.92,20.995 101.92,33.66 102.468,34.801 103.644,34.801 104.191,33.66 104.191,20.995 				
					"/>
				<polygon fill="#ADADAD" points="101.031,20.995 101.294,22.644 102.468,23.784 103.644,23.784 104.817,22.464 105.079,20.995 
									"/>
				<rect x="101.92" y="23.285" fill="#C2C2C2" width="0.281" height="6.171"/>
				<rect x="103.911" y="23.285" fill="#C2C2C2" width="0.28" height="6.171"/>
				<polygon fill="#C2C2C2" points="102.202,33.004 102.749,33.926 103.363,33.926 103.911,33.004 104.191,33.004 103.644,34.145 
					102.468,34.145 101.92,33.004 				"/>
				<polygon fill="#C2C2C2" points="103.911,23.285 104.494,22.644 104.707,20.995 105.079,20.995 104.817,22.644 104.191,23.285 
									"/>
				<polygon fill="#C2C2C2" points="102.202,23.285 101.617,22.644 101.403,20.995 101.031,20.995 101.294,22.644 101.92,23.285 
									"/>
				<rect x="101.92" y="24.654" fill="#CECECE" width="2.271" height="1.583"/>
				<rect x="101.92" y="24.972" fill="#DADADA" width="2.271" height="0.599"/>
				<rect x="101.92" y="24.972" fill="#E7E7E7" width="2.271" height="0.3"/>
				<polygon opacity="0.5" fill="#494949" points="101.072,21.254 105.033,21.254 105.079,20.995 101.031,20.995 				"/>
			</g>
			<g>
				<rect x="92.856" y="20.995" fill="#616161" width="6" height="1.648"/>
				<rect x="92.856" y="18.745" fill="#616161" width="6" height="1.648"/>
				<rect x="92.856" y="16.491" fill="#616161" width="6" height="1.648"/>
				<rect x="92.856" y="20.995" fill="#494949" width="1.229" height="1.648"/>
				<rect x="92.856" y="18.745" fill="#494949" width="1.213" height="1.648"/>
				<rect x="92.856" y="16.491" fill="#494949" width="1.213" height="1.648"/>
				<rect x="92.856" y="16.491" opacity="0.5" fill="#494949" width="6" height="0.34"/>
				<rect x="92.856" y="18.745" opacity="0.5" fill="#494949" width="6" height="0.34"/>
				<polygon fill="#ADADAD" points="94.72,20.995 94.72,33.66 95.268,34.801 96.444,34.801 96.991,33.66 96.991,20.995 				"/>
				<polygon fill="#ADADAD" points="93.831,20.995 94.094,22.644 95.268,23.784 96.444,23.784 97.617,22.464 97.878,20.995 				"/>
				<rect x="94.72" y="23.285" fill="#C2C2C2" width="0.281" height="6.171"/>
				<rect x="96.71" y="23.285" fill="#C2C2C2" width="0.28" height="6.171"/>
				<polygon fill="#C2C2C2" points="95.001,33.004 95.548,33.926 96.163,33.926 96.71,33.004 96.991,33.004 96.444,34.145 
					95.268,34.145 94.72,33.004 				"/>
				<polygon fill="#C2C2C2" points="96.71,23.285 97.293,22.644 97.506,20.995 97.878,20.995 97.617,22.644 96.991,23.285 				"/>
				<polygon fill="#C2C2C2" points="95.001,23.285 94.417,22.644 94.203,20.995 93.831,20.995 94.094,22.644 94.72,23.285 				"/>
				<rect x="94.72" y="24.654" fill="#CECECE" width="2.271" height="1.583"/>
				<rect x="94.72" y="24.972" fill="#DADADA" width="2.271" height="0.599"/>
				<rect x="94.72" y="24.972" fill="#E7E7E7" width="2.271" height="0.3"/>
				<polygon opacity="0.5" fill="#494949" points="93.872,21.254 97.833,21.254 97.878,20.995 93.831,20.995 				"/>
			</g>
			<g>
				<rect x="85.656" y="20.995" fill="#616161" width="6" height="1.648"/>
				<rect x="85.656" y="18.745" fill="#616161" width="6" height="1.648"/>
				<rect x="85.656" y="16.491" fill="#616161" width="6" height="1.648"/>
				<rect x="85.656" y="20.995" fill="#494949" width="1.229" height="1.648"/>
				<rect x="85.656" y="18.745" fill="#494949" width="1.213" height="1.648"/>
				<rect x="85.656" y="16.491" fill="#494949" width="1.213" height="1.648"/>
				<rect x="85.656" y="16.491" opacity="0.5" fill="#494949" width="6" height="0.34"/>
				<rect x="85.656" y="18.745" opacity="0.5" fill="#494949" width="6" height="0.34"/>
				<polygon fill="#ADADAD" points="87.52,20.995 87.52,33.66 88.068,34.801 89.244,34.801 89.791,33.66 89.791,20.995 				"/>
				<polygon fill="#ADADAD" points="86.63,20.995 86.894,22.644 88.068,23.784 89.244,23.784 90.417,22.464 90.678,20.995 				"/>
				<rect x="87.52" y="23.285" fill="#C2C2C2" width="0.281" height="6.171"/>
				<rect x="89.51" y="23.285" fill="#C2C2C2" width="0.28" height="6.171"/>
				<polygon fill="#C2C2C2" points="87.801,33.004 88.348,33.926 88.962,33.926 89.51,33.004 89.791,33.004 89.244,34.145 
					88.068,34.145 87.52,33.004 				"/>
				<polygon fill="#C2C2C2" points="89.51,23.285 90.093,22.644 90.306,20.995 90.678,20.995 90.417,22.644 89.791,23.285 				"/>
				<polygon fill="#C2C2C2" points="87.801,23.285 87.216,22.644 87.002,20.995 86.63,20.995 86.894,22.644 87.52,23.285 				"/>
				<rect x="87.52" y="24.654" fill="#CECECE" width="2.271" height="1.583"/>
				<rect x="87.52" y="24.972" fill="#DADADA" width="2.271" height="0.599"/>
				<rect x="87.52" y="24.972" fill="#E7E7E7" width="2.271" height="0.3"/>
				<polygon opacity="0.5" fill="#494949" points="86.671,21.254 90.632,21.254 90.678,20.995 86.63,20.995 				"/>
			</g>
			<g>
				<rect x="78.456" y="20.995" fill="#616161" width="6" height="1.648"/>
				<rect x="78.456" y="18.745" fill="#616161" width="6" height="1.648"/>
				<rect x="78.456" y="16.491" fill="#616161" width="6" height="1.648"/>
				<rect x="78.456" y="20.995" fill="#494949" width="1.229" height="1.648"/>
				<rect x="78.456" y="18.745" fill="#494949" width="1.213" height="1.648"/>
				<rect x="78.456" y="16.491" fill="#494949" width="1.213" height="1.648"/>
				<rect x="78.456" y="16.491" opacity="0.5" fill="#494949" width="6" height="0.34"/>
				<rect x="78.456" y="18.745" opacity="0.5" fill="#494949" width="6" height="0.34"/>
				<polygon fill="#ADADAD" points="80.32,20.995 80.32,33.66 80.868,34.801 82.043,34.801 82.59,33.66 82.59,20.995 				"/>
				<polygon fill="#ADADAD" points="79.43,20.995 79.694,22.644 80.868,23.784 82.043,23.784 83.216,22.464 83.478,20.995 				"/>
				<rect x="80.32" y="23.285" fill="#C2C2C2" width="0.281" height="6.171"/>
				<rect x="82.31" y="23.285" fill="#C2C2C2" width="0.28" height="6.171"/>
				<polygon fill="#C2C2C2" points="80.601,33.004 81.148,33.926 81.762,33.926 82.31,33.004 82.59,33.004 82.043,34.145 
					80.868,34.145 80.32,33.004 				"/>
				<polygon fill="#C2C2C2" points="82.31,23.285 82.893,22.644 83.106,20.995 83.478,20.995 83.216,22.644 82.59,23.285 				"/>
				<polygon fill="#C2C2C2" points="80.601,23.285 80.016,22.644 79.802,20.995 79.43,20.995 79.694,22.644 80.32,23.285 				"/>
				<rect x="80.32" y="24.654" fill="#CECECE" width="2.271" height="1.583"/>
				<rect x="80.32" y="24.972" fill="#DADADA" width="2.271" height="0.599"/>
				<rect x="80.32" y="24.972" fill="#E7E7E7" width="2.271" height="0.3"/>
				<polygon opacity="0.5" fill="#494949" points="79.471,21.254 83.432,21.254 83.478,20.995 79.43,20.995 				"/>
			</g>
			<g>
				<rect x="71.255" y="20.995" fill="#616161" width="6" height="1.648"/>
				<rect x="71.255" y="18.745" fill="#616161" width="6" height="1.648"/>
				<rect x="71.255" y="16.491" fill="#616161" width="6" height="1.648"/>
				<rect x="71.255" y="20.995" fill="#494949" width="1.229" height="1.648"/>
				<rect x="71.255" y="18.745" fill="#494949" width="1.213" height="1.648"/>
				<rect x="71.255" y="16.491" fill="#494949" width="1.213" height="1.648"/>
				<rect x="71.255" y="16.491" opacity="0.5" fill="#494949" width="6" height="0.34"/>
				<rect x="71.255" y="18.745" opacity="0.5" fill="#494949" width="6" height="0.34"/>
				<polygon fill="#ADADAD" points="73.12,20.995 73.12,33.66 73.667,34.801 74.843,34.801 75.39,33.66 75.39,20.995 				"/>
				<polygon fill="#ADADAD" points="72.23,20.995 72.494,22.644 73.667,23.784 74.843,23.784 76.016,22.464 76.278,20.995 				"/>
				<rect x="73.12" y="23.285" fill="#C2C2C2" width="0.281" height="6.171"/>
				<rect x="75.11" y="23.285" fill="#C2C2C2" width="0.28" height="6.171"/>
				<polygon fill="#C2C2C2" points="73.401,33.004 73.948,33.926 74.562,33.926 75.11,33.004 75.39,33.004 74.843,34.145 
					73.667,34.145 73.12,33.004 				"/>
				<polygon fill="#C2C2C2" points="75.11,23.285 75.693,22.644 75.906,20.995 76.278,20.995 76.016,22.644 75.39,23.285 				"/>
				<polygon fill="#C2C2C2" points="73.401,23.285 72.816,22.644 72.602,20.995 72.23,20.995 72.494,22.644 73.12,23.285 				"/>
				<rect x="73.12" y="24.654" fill="#CECECE" width="2.271" height="1.583"/>
				<rect x="73.12" y="24.972" fill="#DADADA" width="2.271" height="0.599"/>
				<rect x="73.12" y="24.972" fill="#E7E7E7" width="2.271" height="0.3"/>
				<polygon opacity="0.5" fill="#494949" points="72.271,21.254 76.232,21.254 76.278,20.995 72.23,20.995 				"/>
			</g>
			<g>
				<rect x="64.055" y="20.995" fill="#616161" width="6" height="1.648"/>
				<rect x="64.055" y="18.745" fill="#616161" width="6" height="1.648"/>
				<rect x="64.055" y="16.491" fill="#616161" width="6" height="1.648"/>
				<rect x="64.055" y="20.995" fill="#494949" width="1.229" height="1.648"/>
				<rect x="64.055" y="18.745" fill="#494949" width="1.213" height="1.648"/>
				<rect x="64.055" y="16.491" fill="#494949" width="1.213" height="1.648"/>
				<rect x="64.055" y="16.491" opacity="0.5" fill="#494949" width="6" height="0.34"/>
				<rect x="64.055" y="18.745" opacity="0.5" fill="#494949" width="6" height="0.34"/>
				<polygon fill="#ADADAD" points="65.919,20.995 65.919,33.66 66.467,34.801 67.643,34.801 68.19,33.66 68.19,20.995 				"/>
				<polygon fill="#ADADAD" points="65.03,20.995 65.293,22.644 66.467,23.784 67.643,23.784 68.816,22.464 69.078,20.995 				"/>
				<rect x="65.919" y="23.285" fill="#C2C2C2" width="0.281" height="6.171"/>
				<rect x="67.91" y="23.285" fill="#C2C2C2" width="0.28" height="6.171"/>
				<polygon fill="#C2C2C2" points="66.201,33.004 66.748,33.926 67.362,33.926 67.91,33.004 68.19,33.004 67.643,34.145 
					66.467,34.145 65.919,33.004 				"/>
				<polygon fill="#C2C2C2" points="67.91,23.285 68.493,22.644 68.706,20.995 69.078,20.995 68.816,22.644 68.19,23.285 				"/>
				<polygon fill="#C2C2C2" points="66.201,23.285 65.616,22.644 65.402,20.995 65.03,20.995 65.293,22.644 65.919,23.285 				"/>
				<rect x="65.919" y="24.654" fill="#CECECE" width="2.271" height="1.583"/>
				<rect x="65.919" y="24.972" fill="#DADADA" width="2.271" height="0.599"/>
				<rect x="65.919" y="24.972" fill="#E7E7E7" width="2.271" height="0.3"/>
				<polygon opacity="0.5" fill="#494949" points="65.071,21.254 69.032,21.254 69.078,20.995 65.03,20.995 				"/>
			</g>
			<g>
				<rect x="56.855" y="20.995" fill="#616161" width="6" height="1.648"/>
				<rect x="56.855" y="18.745" fill="#616161" width="6" height="1.648"/>
				<rect x="56.855" y="16.491" fill="#616161" width="6" height="1.648"/>
				<rect x="56.855" y="20.995" fill="#494949" width="1.229" height="1.648"/>
				<rect x="56.855" y="18.745" fill="#494949" width="1.213" height="1.648"/>
				<rect x="56.855" y="16.491" fill="#494949" width="1.213" height="1.648"/>
				<rect x="56.855" y="16.491" opacity="0.5" fill="#494949" width="6" height="0.34"/>
				<rect x="56.855" y="18.745" opacity="0.5" fill="#494949" width="6" height="0.34"/>
				<polygon fill="#ADADAD" points="58.719,20.995 58.719,33.66 59.267,34.801 60.443,34.801 60.99,33.66 60.99,20.995 				"/>
				<polygon fill="#ADADAD" points="57.83,20.995 58.093,22.644 59.267,23.784 60.443,23.784 61.616,22.464 61.877,20.995 				"/>
				<rect x="58.719" y="23.285" fill="#C2C2C2" width="0.281" height="6.171"/>
				<rect x="60.709" y="23.285" fill="#C2C2C2" width="0.28" height="6.171"/>
				<polygon fill="#C2C2C2" points="59,33.004 59.547,33.926 60.162,33.926 60.709,33.004 60.99,33.004 60.443,34.145 
					59.267,34.145 58.719,33.004 				"/>
				<polygon fill="#C2C2C2" points="60.709,23.285 61.292,22.644 61.505,20.995 61.877,20.995 61.616,22.644 60.99,23.285 				"/>
				<polygon fill="#C2C2C2" points="59,23.285 58.416,22.644 58.202,20.995 57.83,20.995 58.093,22.644 58.719,23.285 				"/>
				<rect x="58.719" y="24.654" fill="#CECECE" width="2.271" height="1.583"/>
				<rect x="58.719" y="24.972" fill="#DADADA" width="2.271" height="0.599"/>
				<rect x="58.719" y="24.972" fill="#E7E7E7" width="2.271" height="0.3"/>
				<polygon opacity="0.5" fill="#494949" points="57.871,21.254 61.832,21.254 61.877,20.995 57.83,20.995 				"/>
			</g>
			<g>
				<rect x="49.655" y="20.995" fill="#616161" width="6" height="1.648"/>
				<rect x="49.655" y="18.745" fill="#616161" width="6" height="1.648"/>
				<rect x="49.655" y="16.491" fill="#616161" width="6" height="1.648"/>
				<rect x="49.655" y="20.995" fill="#494949" width="1.229" height="1.648"/>
				<rect x="49.655" y="18.745" fill="#494949" width="1.213" height="1.648"/>
				<rect x="49.655" y="16.491" fill="#494949" width="1.213" height="1.648"/>
				<rect x="49.655" y="16.491" opacity="0.5" fill="#494949" width="6" height="0.34"/>
				<rect x="49.655" y="18.745" opacity="0.5" fill="#494949" width="6" height="0.34"/>
				<polygon fill="#ADADAD" points="51.519,20.995 51.519,33.66 52.067,34.801 53.243,34.801 53.79,33.66 53.79,20.995 				"/>
				<polygon fill="#ADADAD" points="50.629,20.995 50.893,22.644 52.067,23.784 53.243,23.784 54.416,22.464 54.677,20.995 				"/>
				<rect x="51.519" y="23.285" fill="#C2C2C2" width="0.281" height="6.171"/>
				<rect x="53.509" y="23.285" fill="#C2C2C2" width="0.28" height="6.171"/>
				<polygon fill="#C2C2C2" points="51.8,33.004 52.347,33.926 52.961,33.926 53.509,33.004 53.79,33.004 53.243,34.145 
					52.067,34.145 51.519,33.004 				"/>
				<polygon fill="#C2C2C2" points="53.509,23.285 54.092,22.644 54.305,20.995 54.677,20.995 54.416,22.644 53.79,23.285 				"/>
				<polygon fill="#C2C2C2" points="51.8,23.285 51.215,22.644 51.001,20.995 50.629,20.995 50.893,22.644 51.519,23.285 				"/>
				<rect x="51.519" y="24.654" fill="#CECECE" width="2.271" height="1.583"/>
				<rect x="51.519" y="24.972" fill="#DADADA" width="2.271" height="0.599"/>
				<rect x="51.519" y="24.972" fill="#E7E7E7" width="2.271" height="0.3"/>
				<polygon opacity="0.5" fill="#494949" points="50.67,21.254 54.631,21.254 54.677,20.995 50.629,20.995 				"/>
			</g>
			<g>
				<rect x="42.455" y="20.995" fill="#616161" width="6" height="1.648"/>
				<rect x="42.455" y="18.745" fill="#616161" width="6" height="1.648"/>
				<rect x="42.455" y="16.491" fill="#616161" width="6" height="1.648"/>
				<rect x="42.455" y="20.995" fill="#494949" width="1.229" height="1.648"/>
				<rect x="42.455" y="18.745" fill="#494949" width="1.213" height="1.648"/>
				<rect x="42.455" y="16.491" fill="#494949" width="1.213" height="1.648"/>
				<rect x="42.455" y="16.491" opacity="0.5" fill="#494949" width="6" height="0.34"/>
				<rect x="42.455" y="18.745" opacity="0.5" fill="#494949" width="6" height="0.34"/>
				<polygon fill="#ADADAD" points="44.319,20.995 44.319,33.66 44.867,34.801 46.042,34.801 46.589,33.66 46.589,20.995 				"/>
				<polygon fill="#ADADAD" points="43.429,20.995 43.693,22.644 44.867,23.784 46.042,23.784 47.215,22.464 47.477,20.995 				"/>
				<rect x="44.319" y="23.285" fill="#C2C2C2" width="0.281" height="6.171"/>
				<rect x="46.309" y="23.285" fill="#C2C2C2" width="0.28" height="6.171"/>
				<polygon fill="#C2C2C2" points="44.6,33.004 45.147,33.926 45.761,33.926 46.309,33.004 46.589,33.004 46.042,34.145 
					44.867,34.145 44.319,33.004 				"/>
				<polygon fill="#C2C2C2" points="46.309,23.285 46.892,22.644 47.105,20.995 47.477,20.995 47.215,22.644 46.589,23.285 				"/>
				<polygon fill="#C2C2C2" points="44.6,23.285 44.015,22.644 43.801,20.995 43.429,20.995 43.693,22.644 44.319,23.285 				"/>
				<rect x="44.319" y="24.654" fill="#CECECE" width="2.271" height="1.583"/>
				<rect x="44.319" y="24.972" fill="#DADADA" width="2.271" height="0.599"/>
				<rect x="44.319" y="24.972" fill="#E7E7E7" width="2.271" height="0.3"/>
				<polygon opacity="0.5" fill="#494949" points="43.47,21.254 47.431,21.254 47.477,20.995 43.429,20.995 				"/>
			</g>
			<g>
				<rect x="35.254" y="20.995" fill="#616161" width="6" height="1.648"/>
				<rect x="35.254" y="18.745" fill="#616161" width="6" height="1.648"/>
				<rect x="35.254" y="16.491" fill="#616161" width="6" height="1.648"/>
				<rect x="35.254" y="20.995" fill="#494949" width="1.229" height="1.648"/>
				<rect x="35.254" y="18.745" fill="#494949" width="1.213" height="1.648"/>
				<rect x="35.254" y="16.491" fill="#494949" width="1.213" height="1.648"/>
				<rect x="35.254" y="16.491" opacity="0.5" fill="#494949" width="6" height="0.34"/>
				<rect x="35.254" y="18.745" opacity="0.5" fill="#494949" width="6" height="0.34"/>
				<polygon fill="#ADADAD" points="37.119,20.995 37.119,33.66 37.667,34.801 38.842,34.801 39.389,33.66 39.389,20.995 				"/>
				<polygon fill="#ADADAD" points="36.229,20.995 36.493,22.644 37.667,23.784 38.842,23.784 40.015,22.464 40.277,20.995 				"/>
				<rect x="37.119" y="23.285" fill="#C2C2C2" width="0.281" height="6.171"/>
				<rect x="39.109" y="23.285" fill="#C2C2C2" width="0.28" height="6.171"/>
				<polygon fill="#C2C2C2" points="37.4,33.004 37.947,33.926 38.561,33.926 39.109,33.004 39.389,33.004 38.842,34.145 
					37.667,34.145 37.119,33.004 				"/>
				<polygon fill="#C2C2C2" points="39.109,23.285 39.692,22.644 39.905,20.995 40.277,20.995 40.015,22.644 39.389,23.285 				"/>
				<polygon fill="#C2C2C2" points="37.4,23.285 36.815,22.644 36.601,20.995 36.229,20.995 36.493,22.644 37.119,23.285 				"/>
				<rect x="37.119" y="24.654" fill="#CECECE" width="2.271" height="1.583"/>
				<rect x="37.119" y="24.972" fill="#DADADA" width="2.271" height="0.599"/>
				<rect x="37.119" y="24.972" fill="#E7E7E7" width="2.271" height="0.3"/>
				<polygon opacity="0.5" fill="#494949" points="36.27,21.254 40.231,21.254 40.277,20.995 36.229,20.995 				"/>
			</g>
			<g>
				<rect x="28.054" y="20.995" fill="#616161" width="6" height="1.648"/>
				<rect x="28.054" y="18.745" fill="#616161" width="6" height="1.648"/>
				<rect x="28.054" y="16.491" fill="#616161" width="6" height="1.648"/>
				<rect x="28.054" y="20.995" fill="#494949" width="1.229" height="1.648"/>
				<rect x="28.054" y="18.745" fill="#494949" width="1.213" height="1.648"/>
				<rect x="28.054" y="16.491" fill="#494949" width="1.213" height="1.648"/>
				<rect x="28.054" y="16.491" opacity="0.5" fill="#494949" width="6" height="0.34"/>
				<rect x="28.054" y="18.745" opacity="0.5" fill="#494949" width="6" height="0.34"/>
				<polygon fill="#ADADAD" points="29.918,20.995 29.918,33.66 30.466,34.801 31.642,34.801 32.189,33.66 32.189,20.995 				"/>
				<polygon fill="#ADADAD" points="29.029,20.995 29.292,22.644 30.466,23.784 31.642,23.784 32.815,22.464 33.077,20.995 				"/>
				<rect x="29.918" y="23.285" fill="#C2C2C2" width="0.281" height="6.171"/>
				<rect x="31.909" y="23.285" fill="#C2C2C2" width="0.28" height="6.171"/>
				<polygon fill="#C2C2C2" points="30.2,33.004 30.747,33.926 31.361,33.926 31.909,33.004 32.189,33.004 31.642,34.145 
					30.466,34.145 29.918,33.004 				"/>
				<polygon fill="#C2C2C2" points="31.909,23.285 32.492,22.644 32.705,20.995 33.077,20.995 32.815,22.644 32.189,23.285 				"/>
				<polygon fill="#C2C2C2" points="30.2,23.285 29.615,22.644 29.401,20.995 29.029,20.995 29.292,22.644 29.918,23.285 				"/>
				<rect x="29.918" y="24.654" fill="#CECECE" width="2.271" height="1.583"/>
				<rect x="29.918" y="24.972" fill="#DADADA" width="2.271" height="0.599"/>
				<rect x="29.918" y="24.972" fill="#E7E7E7" width="2.271" height="0.3"/>
				<polygon opacity="0.5" fill="#494949" points="29.07,21.254 33.031,21.254 33.077,20.995 29.029,20.995 				"/>
			</g>
			<g>
				<rect x="20.854" y="20.995" fill="#616161" width="6" height="1.648"/>
				<rect x="20.854" y="18.745" fill="#616161" width="6" height="1.648"/>
				<rect x="20.854" y="16.491" fill="#616161" width="6" height="1.648"/>
				<rect x="20.854" y="20.995" fill="#494949" width="1.229" height="1.648"/>
				<rect x="20.854" y="18.745" fill="#494949" width="1.213" height="1.648"/>
				<rect x="20.854" y="16.491" fill="#494949" width="1.213" height="1.648"/>
				<rect x="20.854" y="16.491" opacity="0.5" fill="#494949" width="6" height="0.34"/>
				<rect x="20.854" y="18.745" opacity="0.5" fill="#494949" width="6" height="0.34"/>
				<polygon fill="#ADADAD" points="22.718,20.995 22.718,33.66 23.266,34.801 24.442,34.801 24.989,33.66 24.989,20.995 				"/>
				<polygon fill="#ADADAD" points="21.829,20.995 22.092,22.644 23.266,23.784 24.442,23.784 25.615,22.464 25.876,20.995 				"/>
				<rect x="22.718" y="23.285" fill="#C2C2C2" width="0.281" height="6.171"/>
				<rect x="24.708" y="23.285" fill="#C2C2C2" width="0.28" height="6.171"/>
				<polygon fill="#C2C2C2" points="23,33.004 23.546,33.926 24.161,33.926 24.708,33.004 24.989,33.004 24.442,34.145 
					23.266,34.145 22.718,33.004 				"/>
				<polygon fill="#C2C2C2" points="24.708,23.285 25.292,22.644 25.504,20.995 25.876,20.995 25.615,22.644 24.989,23.285 				"/>
				<polygon fill="#C2C2C2" points="23,23.285 22.415,22.644 22.201,20.995 21.829,20.995 22.092,22.644 22.718,23.285 				"/>
				<rect x="22.718" y="24.654" fill="#CECECE" width="2.271" height="1.583"/>
				<rect x="22.718" y="24.972" fill="#DADADA" width="2.271" height="0.599"/>
				<rect x="22.718" y="24.972" fill="#E7E7E7" width="2.271" height="0.3"/>
				<polygon opacity="0.5" fill="#494949" points="21.87,21.254 25.831,21.254 25.876,20.995 21.829,20.995 				"/>
			</g>
		</g>
		<g>
			<g>
				<rect x="236.627" y="7.636" fill="#616161" width="13.211" height="7.199"/>
			</g>
			<g>
				<rect x="222.227" y="7.636" fill="#616161" width="13.211" height="7.199"/>
			</g>
			<g>
				<rect x="207.827" y="7.636" fill="#616161" width="13.211" height="7.199"/>
			</g>
			<g>
				<rect x="193.426" y="7.636" fill="#616161" width="13.211" height="7.199"/>
			</g>
			<g>
				<rect x="179.026" y="7.636" fill="#616161" width="13.211" height="7.199"/>
			</g>
			<g>
				<rect x="164.625" y="7.636" fill="#616161" width="13.211" height="7.199"/>
			</g>
			<g>
				<rect x="150.225" y="7.636" fill="#616161" width="13.211" height="7.199"/>
			</g>
			<g>
				<rect x="135.825" y="7.636" fill="#616161" width="13.211" height="7.199"/>
			</g>
			<g>
				<rect x="121.424" y="7.636" fill="#616161" width="13.211" height="7.199"/>
			</g>
			<g>
				<rect x="107.024" y="7.636" fill="#616161" width="13.211" height="7.199"/>
			</g>
			<g>
				<rect x="92.624" y="7.636" fill="#616161" width="13.211" height="7.199"/>
			</g>
			<g>
				<rect x="78.223" y="7.636" fill="#616161" width="13.211" height="7.199"/>
			</g>
			<g>
				<rect x="63.823" y="7.636" fill="#616161" width="13.211" height="7.199"/>
			</g>
			<g>
				<rect x="49.422" y="7.636" fill="#616161" width="13.211" height="7.199"/>
			</g>
			<g>
				<rect x="35.022" y="7.636" fill="#616161" width="13.211" height="7.199"/>
			</g>
			<g>
				<rect x="20.622" y="7.636" fill="#616161" width="13.211" height="7.199"/>
			</g>
		</g>
		<g>
			<g>
				<rect x="236.627" y="7.636" fill="#494949" width="1.145" height="7.199"/>
			</g>
			<g>
				<rect x="222.227" y="7.636" fill="#494949" width="1.145" height="7.199"/>
			</g>
			<g>
				<rect x="207.827" y="7.636" fill="#494949" width="1.145" height="7.199"/>
			</g>
			<g>
				<rect x="193.426" y="7.636" fill="#494949" width="1.145" height="7.199"/>
			</g>
			<g>
				<rect x="179.026" y="7.636" fill="#494949" width="1.145" height="7.199"/>
			</g>
			<g>
				<rect x="164.625" y="7.636" fill="#494949" width="1.145" height="7.199"/>
			</g>
			<g>
				<rect x="150.225" y="7.636" fill="#494949" width="1.145" height="7.199"/>
			</g>
			<g>
				<rect x="135.825" y="7.636" fill="#494949" width="1.145" height="7.199"/>
			</g>
			<g>
				<rect x="121.424" y="7.636" fill="#494949" width="1.145" height="7.199"/>
			</g>
			<g>
				<rect x="107.024" y="7.636" fill="#494949" width="1.145" height="7.199"/>
			</g>
			<g>
				<rect x="92.624" y="7.636" fill="#494949" width="1.145" height="7.199"/>
			</g>
			<g>
				<rect x="78.223" y="7.636" fill="#494949" width="1.145" height="7.199"/>
			</g>
			<g>
				<rect x="63.823" y="7.636" fill="#494949" width="1.145" height="7.199"/>
			</g>
			<g>
				<rect x="49.422" y="7.636" fill="#494949" width="1.145" height="7.199"/>
			</g>
			<g>
				<rect x="35.022" y="7.636" fill="#494949" width="1.145" height="7.199"/>
			</g>
			<g>
				<rect x="20.622" y="7.636" fill="#494949" width="1.145" height="7.199"/>
			</g>
		</g>
		<g opacity="0.5">
			<g>
				<rect x="236.627" y="7.636" fill="#494949" width="13.211" height="1.258"/>
			</g>
			<g>
				<rect x="222.227" y="7.636" fill="#494949" width="13.211" height="1.258"/>
			</g>
			<g>
				<rect x="207.827" y="7.636" fill="#494949" width="13.211" height="1.258"/>
			</g>
			<g>
				<rect x="193.426" y="7.636" fill="#494949" width="13.211" height="1.258"/>
			</g>
			<g>
				<rect x="179.026" y="7.636" fill="#494949" width="13.211" height="1.258"/>
			</g>
			<g>
				<rect x="164.625" y="7.636" fill="#494949" width="13.211" height="1.258"/>
			</g>
			<g>
				<rect x="150.225" y="7.636" fill="#494949" width="13.211" height="1.258"/>
			</g>
			<g>
				<rect x="135.825" y="7.636" fill="#494949" width="13.211" height="1.258"/>
			</g>
			<g>
				<rect x="121.424" y="7.636" fill="#494949" width="13.211" height="1.258"/>
			</g>
			<g>
				<rect x="107.024" y="7.636" fill="#494949" width="13.211" height="1.258"/>
			</g>
			<g>
				<rect x="92.624" y="7.636" fill="#494949" width="13.211" height="1.258"/>
			</g>
			<g>
				<rect x="78.223" y="7.636" fill="#494949" width="13.211" height="1.258"/>
			</g>
			<g>
				<rect x="63.823" y="7.636" fill="#494949" width="13.211" height="1.258"/>
			</g>
			<g>
				<rect x="49.422" y="7.636" fill="#494949" width="13.211" height="1.258"/>
			</g>
			<g>
				<rect x="35.022" y="7.636" fill="#494949" width="13.211" height="1.258"/>
			</g>
			<g>
				<rect x="20.622" y="7.636" fill="#494949" width="13.211" height="1.258"/>
			</g>
		</g>
	</g>
</g>
</svg>
