<?xml version="1.0" encoding="utf-8"?>
<!-- Generator: Adobe Illustrator 16.0.0, SVG Export Plug-In . SVG Version: 6.00 Build 0)  -->
<!DOCTYPE svg PUBLIC "-//W3C//DTD SVG 1.1//EN" "http://www.w3.org/Graphics/SVG/1.1/DTD/svg11.dtd">
<svg version="1.1" xmlns:svg="http://www.w3.org/2000/svg"
	 xmlns="http://www.w3.org/2000/svg" xmlns:xlink="http://www.w3.org/1999/xlink" x="0px" y="0px" width="187.933px"
	 height="81.296px" viewBox="0 0 187.933 81.296" enable-background="new 0 0 187.933 81.296" xml:space="preserve">
<g>
	<polygon points="170.184,38.988 170.184,45.452 168.533,45.452 170.184,50.688 171.986,56.888 172.434,56.888 172.434,38.988 	"/>
	<polygon fill="#212121" points="170.184,40.647 170.184,47.111 168.533,47.111 170.184,52.347 171.986,58.547 172.434,58.547 
		172.434,40.647 	"/>
	<rect x="168.533" y="45.452" width="1.651" height="1.659"/>
</g>
<g>
	<polygon points="16.982,38.988 16.982,45.452 18.634,45.452 16.982,50.688 15.181,56.888 14.732,56.888 14.732,38.988 	"/>
	<polygon fill="#212121" points="16.982,40.647 16.982,47.111 18.634,47.111 16.982,52.347 15.181,58.547 14.732,58.547 
		14.732,40.647 	"/>
	<rect x="16.982" y="45.452" width="1.651" height="1.659"/>
</g>
<g id="breadboard">
	<g id="board">
		<polygon fill="#175C27" points="0,41.933 187.933,41.933 188.933,45.601 1,45.601 		"/>
		<path fill="#1F7A34" d="M0,0v41.933h187.933V0H0z M15.851,41.025c-2.349,0-4.253-1.904-4.253-4.251
			c0-2.349,1.904-4.253,4.253-4.253c2.347,0,4.251,1.904,4.251,4.253C20.102,39.121,18.198,41.025,15.851,41.025z M171.31,41.025
			c-2.349,0-4.254-1.904-4.254-4.251c0-2.349,1.905-4.253,4.254-4.253c2.346,0,4.251,1.904,4.251,4.253
			C175.561,39.121,173.656,41.025,171.31,41.025z"/>
	</g>
	<g id="icon">
		<path fill="#212121" d="M151.029,26.129c0,0.779-0.638,1.417-1.417,1.417H38.325c-0.78,0-1.417-0.638-1.417-1.417V15.463
			c0-0.779,0.638-1.417,1.417-1.417h111.287c0.779,0,1.417,0.638,1.417,1.417V26.129z"/>
		<path fill="#303030" d="M178.1,35.526c-2.477,0-4.518-1.804-4.916-4.167c-0.046,0.272-0.084,0.548-0.084,0.833
			c0,2.762,2.238,5,5,5s5-2.238,5-5c0-0.285-0.038-0.561-0.084-0.833C182.618,33.723,180.577,35.526,178.1,35.526z"/>
		<path fill="#303030" d="M9.433,35.526c-2.477,0-4.518-1.804-4.916-4.167c-0.046,0.272-0.084,0.548-0.084,0.833
			c0,2.762,2.238,5,5,5s5-2.238,5-5c0-0.285-0.038-0.561-0.084-0.833C13.951,33.723,11.91,35.526,9.433,35.526z"/>
		<g>
			<path fill="#303030" d="M179.43,21.162H8.504C3.827,21.162,0,24.989,0,29.666v0.001c0,4.677,3.827,8.504,8.504,8.504H179.43
				c4.677,0,8.504-3.827,8.504-8.504v-0.001C187.934,24.989,184.107,21.162,179.43,21.162z M9.475,35.521c-2.762,0-5-2.238-5-5
				s2.238-5,5-5s5,2.238,5,5S12.237,35.521,9.475,35.521z M178.142,35.521c-2.762,0-5-2.238-5-5s2.238-5,5-5s5,2.238,5,5
				S180.904,35.521,178.142,35.521z"/>
			<path fill="#212121" d="M179.43,23.688H8.504C3.827,23.688,0,27.516,0,32.192v0.001c0,4.677,3.827,8.504,8.504,8.504H179.43
				c4.677,0,8.504-3.827,8.504-8.504v-0.001C187.934,27.516,184.107,23.688,179.43,23.688z M9.433,37.192c-2.762,0-5-2.238-5-5
				s2.238-5,5-5s5,2.238,5,5S12.195,37.192,9.433,37.192z M178.1,37.192c-2.762,0-5-2.238-5-5s2.238-5,5-5s5,2.238,5,5
				S180.862,37.192,178.1,37.192z"/>
		</g>
		<g>
			<g>
				<path fill="#303030" d="M167.194,47.105c0,0.779-0.638,1.417-1.417,1.417H22.159c-0.78,0-1.417-0.638-1.417-1.417V20.603
					c0-0.779,0.638-1.417,1.417-1.417h143.618c0.779,0,1.417,0.638,1.417,1.417V47.105z"/>
				<path fill="#212121" d="M20.742,48.522c0-2.204,0.472-2.835,1.911-2.835h141.926c1.438,0,2.615,1.275,2.615,2.835v29.938
					c0,1.56-1.177,2.835-2.615,2.835H29.11c-1.438,0-2.615-1.275-2.615-2.835v-9.135c0-1.56-0.375-4.044-0.833-5.521
					C25.662,63.805,20.742,50.727,20.742,48.522z"/>
				<path d="M23.198,49.644c-0.466-1.488,0.428-2.705,1.987-2.705h137.902c1.56,0,2.835,1.275,2.835,2.835V77.21
					c0,1.56-1.275,2.835-2.835,2.835H31.308c-1.559,0-2.834-1.275-2.834-2.835v-7.884c0-1.56-0.381-4.053-0.847-5.54L23.198,49.644z
					"/>
				<path fill="#212121" d="M25.924,51.656c-0.443-1.495,0.47-2.718,2.029-2.718h133.29c1.56,0,2.835,1.275,2.835,2.835V75.21
					c0,1.56-1.275,2.835-2.835,2.835H33.153c-1.559,0-2.834-1.275-2.834-2.835v-5.884c0-1.56-0.362-4.058-0.805-5.553L25.924,51.656
					z"/>
			</g>
			<g>
				<g>
					<rect x="149.638" y="51.047" width="5.91" height="10.167"/>
					<rect x="154.286" y="55.547" fill="#999999" width="2.075" height="1.042"/>
					<rect x="148.6" y="55.547" fill="#999999" width="2.076" height="1.042"/>
				</g>
				<g>
					<rect x="136.458" y="51.047" width="5.91" height="10.167"/>
					<rect x="141.105" y="55.547" fill="#999999" width="2.075" height="1.042"/>
					<rect x="135.419" y="55.547" fill="#999999" width="2.076" height="1.042"/>
				</g>
				<g>
					<rect x="123.277" y="51.047" width="5.91" height="10.167"/>
					<rect x="127.924" y="55.547" fill="#999999" width="2.075" height="1.042"/>
					<rect x="122.239" y="55.547" fill="#999999" width="2.076" height="1.042"/>
				</g>
				<g>
					<rect x="110.096" y="51.047" width="5.91" height="10.167"/>
					<rect x="114.744" y="55.547" fill="#999999" width="2.075" height="1.042"/>
					<rect x="109.058" y="55.547" fill="#999999" width="2.076" height="1.042"/>
				</g>
				<g>
					<rect x="96.916" y="51.047" width="5.91" height="10.167"/>
					<rect x="101.563" y="55.547" fill="#999999" width="2.075" height="1.042"/>
					<rect x="95.877" y="55.547" fill="#999999" width="2.076" height="1.042"/>
				</g>
				<g>
					<rect x="83.735" y="51.047" width="5.91" height="10.167"/>
					<rect x="88.382" y="55.547" fill="#999999" width="2.075" height="1.042"/>
					<rect x="82.697" y="55.547" fill="#999999" width="2.076" height="1.042"/>
				</g>
				<g>
					<rect x="70.554" y="51.047" width="5.91" height="10.167"/>
					<rect x="75.202" y="55.547" fill="#999999" width="2.075" height="1.042"/>
					<rect x="69.516" y="55.547" fill="#999999" width="2.076" height="1.042"/>
				</g>
				<g>
					<rect x="57.374" y="51.047" width="5.91" height="10.167"/>
					<rect x="62.021" y="55.547" fill="#999999" width="2.075" height="1.042"/>
					<rect x="56.335" y="55.547" fill="#999999" width="2.076" height="1.042"/>
				</g>
				<g>
					<rect x="44.193" y="51.047" width="5.91" height="10.167"/>
					<rect x="48.84" y="55.547" fill="#999999" width="2.075" height="1.042"/>
					<rect x="43.155" y="55.547" fill="#999999" width="2.076" height="1.042"/>
				</g>
				<g>
					<rect x="31.012" y="51.047" width="5.91" height="10.167"/>
					<rect x="35.659" y="55.547" fill="#999999" width="2.076" height="1.042"/>
					<rect x="29.974" y="55.547" fill="#999999" width="2.076" height="1.042"/>
				</g>
			</g>
			<g>
				<g>
					<rect x="155.798" y="65.878" width="5.91" height="10.167"/>
					<rect x="160.445" y="70.378" fill="#999999" width="2.076" height="1.042"/>
					<rect x="154.76" y="70.378" fill="#999999" width="2.076" height="1.042"/>
				</g>
				<g>
					<rect x="142.618" y="65.878" width="5.91" height="10.167"/>
					<rect x="147.264" y="70.378" fill="#999999" width="2.076" height="1.042"/>
					<rect x="141.58" y="70.378" fill="#999999" width="2.076" height="1.042"/>
				</g>
				<g>
					<rect x="129.437" y="65.878" width="5.91" height="10.167"/>
					<rect x="134.083" y="70.378" fill="#999999" width="2.076" height="1.042"/>
					<rect x="128.399" y="70.378" fill="#999999" width="2.076" height="1.042"/>
				</g>
				<g>
					<rect x="116.256" y="65.878" width="5.91" height="10.167"/>
					<rect x="120.903" y="70.378" fill="#999999" width="2.076" height="1.042"/>
					<rect x="115.218" y="70.378" fill="#999999" width="2.076" height="1.042"/>
				</g>
				<g>
					<rect x="103.076" y="65.878" width="5.91" height="10.167"/>
					<rect x="107.722" y="70.378" fill="#999999" width="2.076" height="1.042"/>
					<rect x="102.038" y="70.378" fill="#999999" width="2.076" height="1.042"/>
				</g>
				<g>
					<rect x="89.895" y="65.878" width="5.91" height="10.167"/>
					<rect x="94.542" y="70.378" fill="#999999" width="2.076" height="1.042"/>
					<rect x="88.857" y="70.378" fill="#999999" width="2.076" height="1.042"/>
				</g>
				<g>
					<rect x="76.714" y="65.878" width="5.91" height="10.167"/>
					<rect x="81.361" y="70.378" fill="#999999" width="2.076" height="1.042"/>
					<rect x="75.676" y="70.378" fill="#999999" width="2.076" height="1.042"/>
				</g>
				<g>
					<rect x="63.534" y="65.878" width="5.91" height="10.167"/>
					<rect x="68.18" y="70.378" fill="#999999" width="2.076" height="1.042"/>
					<rect x="62.496" y="70.378" fill="#999999" width="2.076" height="1.042"/>
				</g>
				<g>
					<rect x="50.353" y="65.878" width="5.91" height="10.167"/>
					<rect x="55" y="70.378" fill="#999999" width="2.076" height="1.042"/>
					<rect x="49.315" y="70.378" fill="#999999" width="2.076" height="1.042"/>
				</g>
				<g>
					<rect x="37.172" y="65.878" width="5.91" height="10.167"/>
					<rect x="41.819" y="70.378" fill="#999999" width="2.076" height="1.042"/>
					<rect x="36.134" y="70.378" fill="#999999" width="2.076" height="1.042"/>
				</g>
			</g>
		</g>
	</g>
	<g id="text">
		<text transform="matrix(6.123234e-017 -1 1 6.123234e-017 22.936 9.1221)" fill="#FFFFFF" font-family="'OCRA'" font-size="3.24">1</text>
		
			<text transform="matrix(6.123234e-017 -1 1 6.123234e-017 30.1489 9.1221)" fill="#FFFFFF" font-family="'OCRA'" font-size="3.24">2</text>
		
			<text transform="matrix(6.123234e-017 -1 1 6.123234e-017 37.3618 9.1221)" fill="#FFFFFF" font-family="'OCRA'" font-size="3.24">3</text>
		
			<text transform="matrix(6.123234e-017 -1 1 6.123234e-017 44.5747 9.1221)" fill="#FFFFFF" font-family="'OCRA'" font-size="3.24">4</text>
		
			<text transform="matrix(6.123234e-017 -1 1 6.123234e-017 51.7876 9.1221)" fill="#FFFFFF" font-family="'OCRA'" font-size="3.24">5</text>
		
			<text transform="matrix(6.123234e-017 -1 1 6.123234e-017 59.0005 9.1221)" fill="#FFFFFF" font-family="'OCRA'" font-size="3.24">6</text>
		
			<text transform="matrix(6.123234e-017 -1 1 6.123234e-017 66.2134 9.1221)" fill="#FFFFFF" font-family="'OCRA'" font-size="3.24">7</text>
		
			<text transform="matrix(6.123234e-017 -1 1 6.123234e-017 73.4263 9.1221)" fill="#FFFFFF" font-family="'OCRA'" font-size="3.24">8</text>
		
			<text transform="matrix(6.123234e-017 -1 1 6.123234e-017 80.6392 9.1221)" fill="#FFFFFF" font-family="'OCRA'" font-size="3.24">9</text>
		
			<text transform="matrix(6.123234e-017 -1 1 6.123234e-017 87.8521 11.4658)" fill="#FFFFFF" font-family="'OCRA'" font-size="3.24">10</text>
		
			<text transform="matrix(6.123234e-017 -1 1 6.123234e-017 95.0649 11.4658)" fill="#FFFFFF" font-family="'OCRA'" font-size="3.24">11</text>
		
			<text transform="matrix(6.123234e-017 -1 1 6.123234e-017 102.2778 11.4658)" fill="#FFFFFF" font-family="'OCRA'" font-size="3.24">12</text>
		
			<text transform="matrix(6.123234e-017 -1 1 6.123234e-017 167.1938 11.4658)" fill="#FFFFFF" font-family="'OCRA'" font-size="3.24">21</text>
		
			<text transform="matrix(6.123234e-017 -1 1 6.123234e-017 109.4917 11.4658)" fill="#FFFFFF" font-family="'OCRA'" font-size="3.24">13</text>
		
			<text transform="matrix(6.123234e-017 -1 1 6.123234e-017 159.9819 11.4658)" fill="#FFFFFF" font-family="'OCRA'" font-size="3.24">20</text>
		
			<text transform="matrix(6.123234e-017 -1 1 6.123234e-017 116.7036 11.4658)" fill="#FFFFFF" font-family="'OCRA'" font-size="3.24">14</text>
		
			<text transform="matrix(6.123234e-017 -1 1 6.123234e-017 152.7681 11.4658)" fill="#FFFFFF" font-family="'OCRA'" font-size="3.24">19</text>
		
			<text transform="matrix(6.123234e-017 -1 1 6.123234e-017 123.9165 11.4658)" fill="#FFFFFF" font-family="'OCRA'" font-size="3.24">15</text>
		
			<text transform="matrix(6.123234e-017 -1 1 6.123234e-017 145.5562 11.4658)" fill="#FFFFFF" font-family="'OCRA'" font-size="3.24">18</text>
		
			<text transform="matrix(6.123234e-017 -1 1 6.123234e-017 131.1294 11.4658)" fill="#FFFFFF" font-family="'OCRA'" font-size="3.24">16</text>
		
			<text transform="matrix(6.123234e-017 -1 1 6.123234e-017 138.3433 11.4658)" fill="#FFFFFF" font-family="'OCRA'" font-size="3.24">17</text>
	</g>
	<g id="connectors">
		<rect id="connector15pin" x="128.817" y="2.808" fill="#8D8C8C" width="2.301" height="2.297"/>
		<rect x="129.379" y="3.365" fill="#8C8663" width="1.184" height="1.182"/>
		<polygon fill="#B8AF82" points="128.817,5.104 129.379,4.546 129.379,3.31 128.817,2.808 		"/>
		<polygon fill="#80795B" points="130.559,3.367 129.385,3.367 128.817,2.808 131.122,2.808 		"/>
		<polygon fill="#5E5B43" points="130.559,4.546 130.559,3.367 131.122,2.808 131.122,5.104 		"/>
		<polygon fill="#9A916C" points="128.817,5.104 129.385,4.546 130.559,4.546 131.122,5.104 		"/>
		<rect id="connector16pin" x="136.02" y="2.808" fill="#8D8C8C" width="2.301" height="2.297"/>
		<rect x="136.575" y="3.368" fill="#8C8663" width="1.184" height="1.183"/>
		<polygon fill="#B8AF82" points="138.321,2.808 137.758,3.369 137.758,4.603 138.321,5.105 		"/>
		<polygon fill="#80795B" points="136.579,4.546 137.752,4.546 138.321,5.105 136.016,5.105 		"/>
		<polygon fill="#5E5B43" points="136.579,3.369 136.579,4.546 136.016,5.105 136.016,2.808 		"/>
		<polygon fill="#9A916C" points="138.321,2.808 137.752,3.369 136.579,3.369 136.016,2.808 		"/>
		<rect id="connector0pin" x="20.82" y="2.808" fill="#8D8C8C" width="2.299" height="2.297"/>
		<rect x="21.38" y="3.365" fill="#8C8663" width="1.184" height="1.182"/>
		<polygon fill="#B8AF82" points="20.82,5.104 21.38,4.546 21.38,3.31 20.82,2.808 		"/>
		<polygon fill="#80795B" points="22.561,3.367 21.389,3.367 20.82,2.808 23.119,2.808 		"/>
		<polygon fill="#5E5B43" points="22.561,4.546 22.561,3.367 23.119,2.808 23.119,5.104 		"/>
		<polygon fill="#9A916C" points="20.82,5.104 21.387,4.546 22.561,4.546 23.119,5.104 		"/>
		<rect id="connector1pin" x="28.019" y="2.808" fill="#8D8C8C" width="2.299" height="2.297"/>
		<rect x="28.579" y="3.365" fill="#8C8663" width="1.184" height="1.182"/>
		<polygon fill="#B8AF82" points="28.019,5.104 28.579,4.546 28.579,3.31 28.019,2.808 		"/>
		<polygon fill="#80795B" points="29.763,3.367 28.588,3.367 28.019,2.808 30.317,2.808 		"/>
		<polygon fill="#5E5B43" points="29.763,4.546 29.763,3.367 30.317,2.808 30.317,5.104 		"/>
		<polygon fill="#9A916C" points="28.019,5.104 28.586,4.546 29.763,4.546 30.317,5.104 		"/>
		<rect id="connector2pin" x="35.22" y="2.808" fill="#8D8C8C" width="2.299" height="2.297"/>
		<rect x="35.781" y="3.365" fill="#8C8663" width="1.184" height="1.182"/>
		<polygon fill="#B8AF82" points="35.22,5.104 35.781,4.546 35.781,3.31 35.22,2.808 		"/>
		<polygon fill="#80795B" points="36.961,3.367 35.788,3.367 35.22,2.808 37.517,2.808 		"/>
		<polygon fill="#5E5B43" points="36.961,4.546 36.961,3.367 37.517,2.808 37.517,5.104 		"/>
		<polygon fill="#9A916C" points="35.22,5.104 35.786,4.546 36.961,4.546 37.517,5.104 		"/>
		<rect id="connector3pin" x="42.42" y="2.808" fill="#8D8C8C" width="2.299" height="2.297"/>
		<rect x="42.979" y="3.365" fill="#8C8663" width="1.184" height="1.182"/>
		<polygon fill="#B8AF82" points="42.42,5.104 42.979,4.546 42.979,3.31 42.42,2.808 		"/>
		<polygon fill="#80795B" points="44.163,3.367 42.989,3.367 42.42,2.808 44.719,2.808 		"/>
		<polygon fill="#5E5B43" points="44.163,4.546 44.163,3.367 44.719,2.808 44.719,5.104 		"/>
		<polygon fill="#9A916C" points="42.42,5.104 42.987,4.546 44.163,4.546 44.719,5.104 		"/>
		<rect id="connector4pin" x="49.618" y="2.808" fill="#8D8C8C" width="2.299" height="2.297"/>
		<rect x="50.18" y="3.365" fill="#8C8663" width="1.184" height="1.182"/>
		<polygon fill="#B8AF82" points="49.618,5.104 50.18,4.546 50.18,3.31 49.618,2.808 		"/>
		<polygon fill="#80795B" points="51.364,3.367 50.186,3.367 49.618,2.808 51.917,2.808 		"/>
		<polygon fill="#5E5B43" points="51.364,4.546 51.364,3.367 51.917,2.808 51.917,5.104 		"/>
		<polygon fill="#9A916C" points="49.618,5.104 50.184,4.546 51.364,4.546 51.917,5.104 		"/>
		<rect id="connector5pin" x="56.819" y="2.808" fill="#8D8C8C" width="2.299" height="2.297"/>
		<rect x="57.379" y="3.365" fill="#8C8663" width="1.184" height="1.182"/>
		<polygon fill="#B8AF82" points="56.819,5.104 57.379,4.546 57.379,3.31 56.819,2.808 		"/>
		<polygon fill="#80795B" points="58.561,3.367 57.387,3.367 56.819,2.808 59.12,2.808 		"/>
		<polygon fill="#5E5B43" points="58.561,4.546 58.561,3.367 59.12,2.808 59.12,5.104 		"/>
		<polygon fill="#9A916C" points="56.819,5.104 57.385,4.546 58.561,4.546 59.12,5.104 		"/>
		<rect id="connector6pin" x="64.018" y="2.808" fill="#8D8C8C" width="2.299" height="2.297"/>
		<rect x="64.581" y="3.365" fill="#8C8663" width="1.184" height="1.182"/>
		<polygon fill="#B8AF82" points="64.018,5.104 64.581,4.546 64.581,3.31 64.018,2.808 		"/>
		<polygon fill="#80795B" points="65.762,3.367 64.588,3.367 64.018,2.808 66.317,2.808 		"/>
		<polygon fill="#5E5B43" points="65.762,4.546 65.762,3.367 66.317,2.808 66.317,5.104 		"/>
		<polygon fill="#9A916C" points="64.018,5.104 64.586,4.546 65.762,4.546 66.317,5.104 		"/>
		<rect id="connector7pin" x="71.217" y="2.808" fill="#8D8C8C" width="2.299" height="2.297"/>
		<rect x="71.778" y="3.365" fill="#8C8663" width="1.184" height="1.182"/>
		<polygon fill="#B8AF82" points="71.217,5.104 71.778,4.546 71.778,3.31 71.217,2.808 		"/>
		<polygon fill="#80795B" points="72.959,3.367 71.786,3.367 71.217,2.808 73.516,2.808 		"/>
		<polygon fill="#5E5B43" points="72.959,4.546 72.959,3.367 73.516,2.808 73.516,5.104 		"/>
		<polygon fill="#9A916C" points="71.217,5.104 71.786,4.546 72.959,4.546 73.516,5.104 		"/>
		<rect id="connector8pin" x="78.417" y="2.808" fill="#8D8C8C" width="2.299" height="2.297"/>
		<rect x="78.979" y="3.365" fill="#8C8663" width="1.184" height="1.182"/>
		<polygon fill="#B8AF82" points="78.417,5.104 78.979,4.546 78.979,3.31 78.417,2.808 		"/>
		<polygon fill="#80795B" points="80.159,3.367 78.985,3.367 78.417,2.808 80.721,2.808 		"/>
		<polygon fill="#5E5B43" points="80.159,4.546 80.159,3.367 80.721,2.808 80.721,5.104 		"/>
		<polygon fill="#9A916C" points="78.417,5.104 78.985,4.546 80.159,4.546 80.721,5.104 		"/>
		<rect id="connector9pin" x="85.618" y="2.808" fill="#8D8C8C" width="2.299" height="2.297"/>
		<rect x="86.178" y="3.365" fill="#8C8663" width="1.186" height="1.182"/>
		<polygon fill="#B8AF82" points="85.618,5.104 86.178,4.546 86.178,3.31 85.618,2.808 		"/>
		<polygon fill="#80795B" points="87.36,3.367 86.186,3.367 85.618,2.808 87.915,2.808 		"/>
		<polygon fill="#5E5B43" points="87.36,4.546 87.36,3.367 87.915,2.808 87.915,5.104 		"/>
		<polygon fill="#9A916C" points="85.618,5.104 86.186,4.546 87.36,4.546 87.915,5.104 		"/>
		<rect id="connector10pin" x="92.825" y="2.808" fill="#8D8C8C" width="2.299" height="2.297"/>
		<rect x="93.385" y="3.365" fill="#8C8663" width="1.184" height="1.182"/>
		<polygon fill="#B8AF82" points="92.825,5.104 93.385,4.546 93.385,3.31 92.825,2.808 		"/>
		<polygon fill="#80795B" points="94.567,3.367 93.393,3.367 92.825,2.808 95.122,2.808 		"/>
		<polygon fill="#5E5B43" points="94.567,4.546 94.567,3.367 95.122,2.808 95.122,5.104 		"/>
		<polygon fill="#9A916C" points="92.825,5.104 93.385,4.546 94.567,4.546 95.122,5.104 		"/>
		<rect id="connector11pin" x="100.024" y="2.808" fill="#8D8C8C" width="2.299" height="2.297"/>
		<rect x="100.586" y="3.365" fill="#8C8663" width="1.184" height="1.182"/>
		<polygon fill="#B8AF82" points="100.024,5.104 100.586,4.546 100.586,3.31 100.024,2.808 		"/>
		<polygon fill="#80795B" points="101.766,3.367 100.592,3.367 100.024,2.808 102.321,2.808 		"/>
		<polygon fill="#5E5B43" points="101.766,4.546 101.766,3.367 102.321,2.808 102.321,5.104 		"/>
		<polygon fill="#9A916C" points="100.024,5.104 100.586,4.546 101.766,4.546 102.321,5.104 		"/>
		<rect id="connector20pin" x="164.815" y="2.808" fill="#8D8C8C" width="2.299" height="2.297"/>
		<rect x="165.368" y="3.368" fill="#8C8663" width="1.184" height="1.183"/>
		<polygon fill="#B8AF82" points="167.114,2.808 166.551,3.369 166.551,4.603 167.114,5.105 		"/>
		<polygon fill="#80795B" points="165.372,4.546 166.545,4.546 167.114,5.105 164.817,5.105 		"/>
		<polygon fill="#5E5B43" points="165.372,3.369 165.372,4.546 164.817,5.105 164.817,2.808 		"/>
		<polygon fill="#9A916C" points="167.114,2.808 166.551,3.369 165.372,3.369 164.817,2.808 		"/>
		<rect id="connector12pin" x="107.217" y="2.808" fill="#8D8C8C" width="2.299" height="2.297"/>
		<rect x="107.778" y="3.365" fill="#8C8663" width="1.186" height="1.182"/>
		<polygon fill="#B8AF82" points="107.217,5.104 107.778,4.546 107.778,3.31 107.217,2.808 		"/>
		<polygon fill="#80795B" points="108.959,3.367 107.786,3.367 107.217,2.808 109.514,2.808 		"/>
		<polygon fill="#5E5B43" points="108.959,4.546 108.959,3.367 109.514,2.808 109.514,5.104 		"/>
		<polygon fill="#9A916C" points="107.217,5.104 107.786,4.546 108.959,4.546 109.514,5.104 		"/>
		<rect id="connector19pin" x="157.622" y="2.808" fill="#8D8C8C" width="2.299" height="2.297"/>
		<rect x="158.172" y="3.368" fill="#8C8663" width="1.186" height="1.183"/>
		<polygon fill="#B8AF82" points="159.92,2.808 159.358,3.369 159.358,4.603 159.92,5.105 		"/>
		<polygon fill="#80795B" points="158.178,4.546 159.352,4.546 159.92,5.105 157.624,5.105 		"/>
		<polygon fill="#5E5B43" points="158.178,3.369 158.178,4.546 157.624,5.105 157.624,2.808 		"/>
		<polygon fill="#9A916C" points="159.92,2.808 159.352,3.369 158.178,3.369 157.624,2.808 		"/>
		<rect id="connector13pin" x="114.417" y="2.808" fill="#8D8C8C" width="2.299" height="2.297"/>
		<rect x="114.979" y="3.365" fill="#8C8663" width="1.184" height="1.182"/>
		<polygon fill="#B8AF82" points="114.417,5.104 114.979,4.546 114.979,3.31 114.417,2.808 		"/>
		<polygon fill="#80795B" points="116.159,3.367 114.985,3.367 114.417,2.808 116.713,2.808 		"/>
		<polygon fill="#5E5B43" points="116.159,4.546 116.159,3.367 116.713,2.808 116.713,5.104 		"/>
		<polygon fill="#9A916C" points="114.417,5.104 114.985,4.546 116.159,4.546 116.713,5.104 		"/>
		<rect id="connector18pin" x="150.422" y="2.808" fill="#8D8C8C" width="2.299" height="2.297"/>
		<rect x="150.975" y="3.368" fill="#8C8663" width="1.184" height="1.183"/>
		<polygon fill="#B8AF82" points="152.721,2.808 152.159,3.369 152.159,4.603 152.721,5.105 		"/>
		<polygon fill="#80795B" points="150.977,4.546 152.151,4.546 152.721,5.105 150.424,5.105 		"/>
		<polygon fill="#5E5B43" points="150.977,3.369 150.977,4.546 150.424,5.105 150.424,2.808 		"/>
		<polygon fill="#9A916C" points="152.721,2.808 152.151,3.369 150.977,3.369 150.424,2.808 		"/>
		<rect id="connector14pin" x="121.618" y="2.808" fill="#8D8C8C" width="2.299" height="2.297"/>
		<rect x="122.178" y="3.365" fill="#8C8663" width="1.186" height="1.182"/>
		<polygon fill="#B8AF82" points="121.618,5.104 122.178,4.546 122.178,3.31 121.618,2.808 		"/>
		<polygon fill="#80795B" points="123.36,3.367 122.186,3.367 121.618,2.808 123.915,2.808 		"/>
		<polygon fill="#5E5B43" points="123.36,4.546 123.36,3.367 123.915,2.808 123.915,5.104 		"/>
		<polygon fill="#9A916C" points="121.618,5.104 122.186,4.546 123.36,4.546 123.915,5.104 		"/>
		<rect id="connector17pin" x="143.221" y="2.808" fill="#8D8C8C" width="2.299" height="2.297"/>
		<rect x="143.774" y="3.368" fill="#8C8663" width="1.186" height="1.183"/>
		<polygon fill="#B8AF82" points="145.52,2.808 144.959,3.369 144.959,4.603 145.52,5.105 		"/>
		<polygon fill="#80795B" points="143.778,4.546 144.952,4.546 145.52,5.105 143.223,5.105 		"/>
		<polygon fill="#5E5B43" points="143.778,3.369 143.778,4.546 143.223,5.105 143.223,2.808 		"/>
		<polygon fill="#9A916C" points="145.52,2.808 144.952,3.369 143.778,3.369 143.223,2.808 		"/>
	</g>
</g>
</svg>
