<?xml version="1.0" encoding="UTF-8"?>
<!-- Created with Fritzing (http://www.fritzing.org/) -->
<svg id="svg49" width=".8in" height="1.25in" gorn="0" version="1.2" viewBox="0 0 800 1250" xmlns="http://www.w3.org/2000/svg">
<g id="breadboard"> 
<desc id="desc2">
  <referenceFile>generic_ic_dip_8_300mil_bread.svg</referenceFile>
 </desc>
 <rect id="rect4532" x="45.341" y="45.341" width="709.32" height="1159.3" stroke="#000" stroke-linecap="round" stroke-linejoin="round" stroke-width="90.682" gorn="0.3"/>
 <g transform="translate(100,745)">
  <g id="layer1" gorn="0.4.0.0.0">
   <g id="g5284" gorn="0.4.0.0.0.0">
    <g id="text5001" fill="#fff" font-family="Droid Sans" font-size="1027.7" letter-spacing="0" stroke-width="10.417" word-spacing="0" style="font-feature-settings:normal;font-variant-caps:normal;font-variant-ligatures:normal;font-variant-numeric:normal;line-height:125%" gorn="0.4.0.0.0.0.0" xml:space="preserve">
                            <text id="tspan4999" x="244.29526" y="-609.24811" fill="#ffffff" font-family="Droid Sans" font-size="83.333" stroke-width="115.74" style="font-feature-settings:normal;font-variant-caps:normal;font-variant-ligatures:normal;font-variant-numeric:normal" gorn="0.4.0.0.0.0.0.0">Vin</text>
                        </g>
    <rect id="rect5003" x="-24.698" y="-639.78" width="49.397" height="11.543" fill="#fff" stroke-linecap="round" stroke-linejoin="round" stroke-width="7.0782" gorn="0.4.0.0.0.0.1"/>
    <g transform="translate(-13.47)">
     <g id="g5113" fill="#fff" gorn="0.4.0.0.0.0.2.0.0.0">
      <g transform="rotate(90)">
       <rect id="rect5003-3" x="-658.71" y="-619.24" width="49.397" height="11.543" fill="#fff" stroke-linecap="round" stroke-linejoin="round" stroke-width="7.0782" gorn="0.4.0.0.0.0.2.0.0.0.0.0.0.0"/>
      </g>
      <rect id="rect5109" x="588.77" y="-639.78" width="49.397" height="11.543" fill="#fff" stroke-linecap="round" stroke-linejoin="round" stroke-width="7.0782" gorn="0.4.0.0.0.0.2.0.0.0.1"/>
     </g>
    </g>
    <g transform="translate(-219.24 964.01)">
     <g id="g5119" fill="#fff" gorn="0.4.0.0.0.0.3.0.0.0">
      <g transform="rotate(90)">
       <rect id="rect5115" x="-658.71" y="-619.24" width="49.397" height="11.543" fill="#fff" stroke-linecap="round" stroke-linejoin="round" stroke-width="7.0782" gorn="0.4.0.0.0.0.3.0.0.0.0.0.0.0"/>
      </g>
      <rect id="rect5117" x="588.77" y="-639.78" width="49.397" height="11.543" fill="#fff" stroke-linecap="round" stroke-linejoin="round" stroke-width="7.0782" gorn="0.4.0.0.0.0.3.0.0.0.1"/>
     </g>
    </g>
    <g transform="scale(.85195 1.1738)">
     <g id="text5123" fill="#fff" font-family="Droid Sans" font-size="94.934" letter-spacing="0" stroke-width="11.867" word-spacing="0" style="font-feature-settings:normal;font-variant-caps:normal;font-variant-ligatures:normal;font-variant-numeric:normal;line-height:125%" gorn="0.4.0.0.0.0.4.0.0.0" xml:space="preserve">
                                        <text id="tspan5121" x="153.09834" y="385.53259" fill="#ffffff" font-family="Droid Sans" font-size="47.467" font-weight="bold" stroke-width="131.85" style="font-feature-settings:normal;font-variant-caps:normal;font-variant-ligatures:normal;font-variant-numeric:normal" gorn="0.4.0.0.0.0.4.0.0.0.0">MADE IN TAIWAN</text>
                                    </g>
    </g>
    <g transform="scale(.9652 1.0361)">
     <g id="text5127" fill="#fff" font-family="Droid Sans" font-size="83.408" letter-spacing="0" stroke-width="10.426" word-spacing="0" style="font-feature-settings:normal;font-variant-caps:normal;font-variant-ligatures:normal;font-variant-numeric:normal;line-height:125%" gorn="0.4.0.0.0.0.5.0.0.0" xml:space="preserve">
                                        <text id="tspan5125" x="60.271534" y="-256.29752" fill="#ffffff" font-family="Droid Sans" font-size="97.31" stroke-width="115.84" style="font-feature-settings:normal;font-variant-caps:normal;font-variant-ligatures:normal;font-variant-numeric:normal" gorn="0.4.0.0.0.0.5.0.0.0.0">SCW05B-05</text>
                                    </g>
    </g>
    <g id="text5131" fill="#fff" font-family="Droid Sans" font-size="71.207" letter-spacing="0" stroke-width="8.9009" word-spacing="0" style="font-feature-settings:normal;font-variant-caps:normal;font-variant-ligatures:normal;font-variant-numeric:normal;line-height:125%" gorn="0.4.0.0.0.0.6" xml:space="preserve">
                            <text id="tspan5129" x="77.946739" y="-193.60353" fill="#ffffff" stroke-width="98.899" gorn="0.4.0.0.0.0.6.0">I/P:DC 18-36V</text>
                        </g>
    <g id="text5135" fill="#fff" font-family="Droid Sans" font-size="71.207" letter-spacing="0" stroke-width="8.9009" word-spacing="0" style="font-feature-settings:normal;font-variant-caps:normal;font-variant-ligatures:normal;font-variant-numeric:normal;line-height:125%" gorn="0.4.0.0.0.0.7" xml:space="preserve">
                            <text id="tspan5133" x="-8.089551" y="-122.32674" fill="#ffffff" stroke-width="98.899" gorn="0.4.0.0.0.0.7.0">O/P:DC 5V 1000mA</text>
                        </g>
    <g id="text5153" fill="#fff" font-family="Droid Sans" font-size="83.333" letter-spacing="0" stroke-width="10.417" word-spacing="0" style="font-feature-settings:normal;font-variant-caps:normal;font-variant-ligatures:normal;font-variant-numeric:normal;line-height:125%" gorn="0.4.0.0.0.0.8" xml:space="preserve">
                            <text id="tspan5151" x="34.010349" y="154.80402" fill="#ffffff" font-family="Droid Sans" font-size="69.444" stroke-width="115.74" style="font-feature-settings:normal;font-variant-caps:normal;font-variant-ligatures:normal;font-variant-numeric:normal" gorn="0.4.0.0.0.0.8.0">NC</text>
                        </g>
    <g id="text5157" fill="#fff" font-family="Droid Sans" font-size="83.333" letter-spacing="0" stroke-width="10.417" word-spacing="0" style="font-feature-settings:normal;font-variant-caps:normal;font-variant-ligatures:normal;font-variant-numeric:normal;line-height:125%" gorn="0.4.0.0.0.0.9" xml:space="preserve">
                            <text id="tspan5155" x="34.010349" y="254.80402" fill="#ffffff" font-family="Droid Sans" font-size="69.444" stroke-width="115.74" style="font-feature-settings:normal;font-variant-caps:normal;font-variant-ligatures:normal;font-variant-numeric:normal" gorn="0.4.0.0.0.0.9.0">NC</text>
                        </g>
    <g id="text5161" fill="#fff" font-family="Droid Sans" font-size="83.333" letter-spacing="0" stroke-width="10.417" word-spacing="0" style="font-feature-settings:normal;font-variant-caps:normal;font-variant-ligatures:normal;font-variant-numeric:normal;line-height:125%" gorn="0.4.0.0.0.0.10" xml:space="preserve">
                            <text id="tspan5159" x="34.010349" y="354.80402" fill="#ffffff" font-family="Droid Sans" font-size="69.444" stroke-width="115.74" style="font-feature-settings:normal;font-variant-caps:normal;font-variant-ligatures:normal;font-variant-numeric:normal" gorn="0.4.0.0.0.0.10.0">NC</text>
                        </g>
    <g id="text5165" fill="#fff" font-family="Droid Sans" font-size="83.333" letter-spacing="0" stroke-width="10.417" word-spacing="0" style="font-feature-settings:normal;font-variant-caps:normal;font-variant-ligatures:normal;font-variant-numeric:normal;line-height:125%" gorn="0.4.0.0.0.0.11" xml:space="preserve">
                            <text id="tspan5163" x="464.84137" y="254.83792" fill="#ffffff" font-family="Droid Sans" font-size="69.444" stroke-width="115.74" style="font-feature-settings:normal;font-variant-caps:normal;font-variant-ligatures:normal;font-variant-numeric:normal" gorn="0.4.0.0.0.0.11.0">NO</text>
                        </g>
    <g id="text5169" fill="#fff" font-family="Droid Sans" font-size="83.333" letter-spacing="0" stroke-width="10.417" word-spacing="0" style="font-feature-settings:normal;font-variant-caps:normal;font-variant-ligatures:normal;font-variant-numeric:normal;line-height:125%" gorn="0.4.0.0.0.0.12" xml:space="preserve">
                            <text id="tspan5167" x="427.23694" y="354.83792" fill="#ffffff" font-family="Droid Sans" font-size="69.444" stroke-width="115.74" style="font-feature-settings:normal;font-variant-caps:normal;font-variant-ligatures:normal;font-variant-numeric:normal" gorn="0.4.0.0.0.0.12.0">OUT</text>
                        </g>
    <g id="text5173" fill="#fff" font-family="Droid Sans" font-size="83.333" letter-spacing="0" stroke-width="10.417" word-spacing="0" style="font-feature-settings:normal;font-variant-caps:normal;font-variant-ligatures:normal;font-variant-numeric:normal;line-height:125%" gorn="0.4.0.0.0.0.13" xml:space="preserve">
                            <text id="tspan5171" x="420.92996" y="154.80402" fill="#ffffff" font-family="Droid Sans" font-size="69.444" stroke-width="115.74" style="font-feature-settings:normal;font-variant-caps:normal;font-variant-ligatures:normal;font-variant-numeric:normal" gorn="0.4.0.0.0.0.13.0">GND</text>
                        </g>
    <rect id="rect5067" x="-9.4096" y="-570" width="18.819" height="100" fill="#fff" stroke-linecap="round" stroke-linejoin="round" stroke-width="8.2808" gorn="0.4.0.0.0.0.14"/>
    <ellipse id="connector2pin" cx="600" cy="-570" rx="21.871" ry="22.38" fill="#fff" stroke-linecap="round" stroke-linejoin="round" stroke-width="6.25" gorn="0.4.0.0.0.0.15"/>
    <ellipse id="connector3pin" cx="600" cy="-470" rx="21.871" ry="22.38" fill="#fff" stroke-linecap="round" stroke-linejoin="round" stroke-width="6.25" gorn="0.4.0.0.0.0.16"/>
    <rect x="590.59" y="-570" width="18.819" height="100" fill="#fff" stroke-linecap="round" stroke-linejoin="round" stroke-width="8.2808"/>
    <ellipse id="connector4pin" cy="130" rx="21.871" ry="22.38" fill="#fff" stroke-linecap="round" stroke-linejoin="round" stroke-width="6.25" gorn="0.4.0.0.0.0.18"/>
    <g transform="matrix(5.5047 0 0 5.5047 134.86 -584.81)">
     <g id="g20" fill="#fff" gorn="0.4.0.0.0.0.19.0.0.0">
      <polygon id="polygon2" points="45.181 32.737 45.181 31.636 41.789 31.636 41.789 30.059 44.764 30.059 44.764 28.996 41.789 28.996 41.789 27.696 45.029 27.696 45.029 26.612 40.537 26.612 40.537 32.737" gorn="0.4.0.0.0.0.19.0.0.0.0"/>
      <polygon id="polygon4" points="23.417 26.612 23.417 32.737 24.612 32.737 24.612 28.392 27.105 32.737 28.385 32.737 28.385 26.612 27.192 26.612 27.192 30.884 24.76 26.612" gorn="0.4.0.0.0.0.19.0.0.0.1"/>
      <polygon id="polygon6" points="55.718 32.737 55.718 31.636 52.658 31.636 52.658 26.612 51.379 26.612 51.379 32.737" gorn="0.4.0.0.0.0.19.0.0.0.2"/>
      <path id="path8" d="m18.609 31.479h2.259l0.402 1.259h1.388l-2.167-6.125h-1.448l-2.188 6.125h1.339zm1.144-3.468 0.776 2.412h-1.57z" gorn="0.4.0.0.0.0.19.0.0.0.3"/>
      <polygon id="polygon10" points="50.519 32.737 50.519 31.636 47.46 31.636 47.46 26.612 46.177 26.612 46.177 32.737" gorn="0.4.0.0.0.0.19.0.0.0.4"/>
      <polygon id="polygon12" points="37.419 31.098 37.229 30.119 36.503 26.612 35.149 26.612 34.461 30.14 34.282 31.098 34.108 30.119 33.297 26.612 31.938 26.612 33.675 32.737 34.863 32.737 35.604 29.153 35.82 27.969 36.037 29.153 36.775 32.737 38.003 32.737 39.727 26.612 38.422 26.612 37.607 30.157" gorn="0.4.0.0.0.0.19.0.0.0.5"/>
      <path id="path14" d="m0 0v35.8h60v-35.8zm13.481 2.582h3.268v14.741l8.209-14.741h3.269v19.842h-2.957v-14.532l-8.09 14.532h-3.385v-14.532l-8.093 14.532h-3.268zm44.547 31.516h-55.787v-9.24h55.787zm-11.048-11.674h-3.269v-14.742l-8.209 14.742h-3.27v-19.842h2.958v14.531l8.091-14.531h3.387v14.531l8.092-14.531h3.269z" gorn="0.4.0.0.0.0.19.0.0.0.6"/>
      <path id="path16" d="m6.034 28.594c0-0.118-4e-3 -0.286-7e-3 -0.503 0-0.213-4e-3 -0.377-4e-3 -0.496l1.154 5.143h1.244l1.161-5.143c0 0.119 0 0.283-4e-3 0.496-3e-3 0.217-3e-3 0.385-3e-3 0.503v4.144h1.191v-6.125h-1.84l-1.109 4.817-1.115-4.817h-1.863v6.125h1.195z" gorn="0.4.0.0.0.0.19.0.0.0.7"/>
      <polygon id="polygon18" points="16.292 32.737 16.292 31.636 12.9 31.636 12.9 30.059 15.876 30.059 15.876 28.996 12.9 28.996 12.9 27.696 16.145 27.696 16.145 26.612 11.649 26.612 11.649 32.737" gorn="0.4.0.0.0.0.19.0.0.0.8"/>
     </g>
    </g>
    <ellipse id="ellipse5099" cy="230" rx="21.871" ry="22.38" fill="#fff" stroke-linecap="round" stroke-linejoin="round" stroke-width="6.25" gorn="0.4.0.0.0.0.20"/>
    <ellipse id="connector5pin" cy="330" rx="21.871" ry="22.38" fill="#fff" stroke-linecap="round" stroke-linejoin="round" stroke-width="6.25" gorn="0.4.0.0.0.0.21"/>
    <ellipse id="connector7pin" cx="600" cy="130" rx="21.871" ry="22.38" fill="#fff" stroke-linecap="round" stroke-linejoin="round" stroke-width="6.25" gorn="0.4.0.0.0.0.22"/>
    <ellipse id="ellipse5105" cx="600" cy="230" rx="21.871" ry="22.38" fill="#fff" stroke-linecap="round" stroke-linejoin="round" stroke-width="6.25" gorn="0.4.0.0.0.0.23"/>
    <ellipse id="connector6pin" cx="600" cy="330" rx="21.871" ry="22.38" fill="#fff" stroke-linecap="round" stroke-linejoin="round" stroke-width="6.25" gorn="0.4.0.0.0.0.24"/>
    <ellipse id="connector0pin" cy="-570" rx="21.871" ry="22.38" fill="#fff" stroke-linecap="round" stroke-linejoin="round" stroke-width="6.25" gorn="0.4.0.0.0.0.25"/>
    <ellipse id="connector1pin" cy="-470" rx="21.871" ry="22.38" fill="#fff" stroke-linecap="round" stroke-linejoin="round" stroke-width="6.25" gorn="0.4.0.0.0.0.26"/>
    <g transform="matrix(1.6088 0 0 1.6088 276.83 -168.29)">
     <switch id="switch4538" fill="#ffffff">
      <g id="g4536" fill="#fff" extraneous="self" gorn="0.4.0.0.0.0.27.0.0.0.1">
       <g id="g4534" fill="#fff" gorn="0.4.0.0.0.0.27.0.0.0.1.0">
        <path id="path4530" d="m128.12 134.83c-19.697 0-35.666-15.969-35.666-35.667s15.969-35.666 35.666-35.666c11.699 0 22.082 5.632 28.586 14.332l18.85-2e-3c-8.145-18.078-26.32-30.663-47.436-30.663-25.398 0-46.531 18.215-51.08 42.291h-31.711v-18.756h33.625v-20.876h-53v8e-3h-1.5v103h20.875v-42.5h32.006c5.113 23.35 25.902 40.833 50.785 40.833 20.594 0 38.391-11.97 46.813-29.332l-19.273-1e-3c-6.542 7.938-16.45 12.999-27.54 12.999z" gorn="0.4.0.0.0.0.27.0.0.0.1.0.0"/>
        <path id="path4532" d="m140.6 109.17c-2.932 3.656-7.438 5.998-12.49 5.998-8.836 0-16-7.163-16-16s7.164-16 16-16c5.523 0 10.393 3.078 13.268 7.334l15.113-4e-3c-3.709-12.155-15.012-20.996-28.381-20.996-16.385 0-29.666 13.282-29.666 29.667s13.281 29.667 29.666 29.667c12.875 0 23.834-8.201 27.939-19.665h-15.449z" gorn="0.4.0.0.0.0.27.0.0.0.1.0.1"/>
       </g>
      </g>
     </switch>
    </g>
    <g transform="matrix(1.6634 0 0 1.6634 25.6 -127.17)">
     <g id="g4556" fill="#fff" gorn="0.4.0.0.0.0.28.0.0.0">
      <path id="path4552" d="m60.2 105.7c-18.6 0-33.7-15.1-33.7-33.7s15.1-33.7 33.7-33.7v-17.4c-28.2 0-51.1 22.9-51.1 51.1s22.9 51.1 51.1 51.1z" gorn="0.4.0.0.0.0.28.0.0.0.0"/>
      <path id="path4554" d="m102.8 80.2h27.4v-17.2h-27.2c3.9-14.2 17-24.7 32.5-24.7v-17.4c-28.2 0-51.1 22.9-51.1 51.1s22.9 51.1 51.1 51.1v-17.4c-15.8 0-29-10.9-32.7-25.5z" gorn="0.4.0.0.0.0.28.0.0.0.1"/>
     </g>
    </g>
   </g>
  </g>
 </g>
</g>
</svg>
