<?xml version="1.0" encoding="utf-8"?>
<!-- Generator: Adobe Illustrator 16.0.0, SVG Export Plug-In . SVG Version: 6.00 Build 0)  -->
<!DOCTYPE svg PUBLIC "-//W3C//DTD SVG 1.1//EN" "http://www.w3.org/Graphics/SVG/1.1/DTD/svg11.dtd">
<svg version="1.1" id="Layer_1" xmlns="http://www.w3.org/2000/svg" xmlns:xlink="http://www.w3.org/1999/xlink" x="0px" y="0px"
	 width="79.2px" height="109.814px" viewBox="0 0 79.2 109.814" enable-background="new 0 0 79.2 109.814" xml:space="preserve">
<desc>Fritzing breadboard generated by brd2svg</desc>
<g id="breadboard">
	<g id="icon">
		<path fill="#C62717" d="M79.2,109.813H0V23.415h79.2V109.813 M51.264,30.614c-0.004,2.505,2.024,4.539,4.529,4.542
			c2.505,0.004,4.539-2.024,4.542-4.529c0-0.004,0-0.009,0-0.013c0.003-2.505-2.024-4.538-4.528-4.542
			c-2.506-0.003-4.539,2.024-4.543,4.529C51.264,30.605,51.264,30.61,51.264,30.614z M18.865,30.614
			c-0.004,2.505,2.024,4.539,4.529,4.542c2.505,0.004,4.538-2.024,4.542-4.529c0-0.004,0-0.009,0-0.013
			c0.003-2.505-2.024-4.538-4.529-4.542c-2.505-0.003-4.539,2.024-4.542,4.529C18.865,30.605,18.865,30.61,18.865,30.614z
			 M67.32,30.614c0,2.585,2.096,4.68,4.681,4.68c2.584,0,4.68-2.095,4.68-4.68c0-2.584-2.096-4.68-4.68-4.68
			C69.416,25.935,67.32,28.03,67.32,30.614z M2.52,30.614c-0.001,2.585,2.094,4.681,4.678,4.682
			c2.585,0.001,4.681-2.093,4.682-4.678c0-0.001,0-0.002,0-0.003c0-2.584-2.094-4.68-4.679-4.681c-2.584,0-4.68,2.094-4.681,4.679
			C2.52,30.613,2.52,30.614,2.52,30.614z M67.32,102.614c0,2.584,2.096,4.68,4.681,4.68c2.584,0,4.68-2.096,4.68-4.68l0,0
			c0-2.585-2.096-4.68-4.68-4.68C69.416,97.935,67.32,100.029,67.32,102.614z M2.52,102.614c-0.001,2.584,2.094,4.681,4.678,4.682
			c2.585,0.001,4.681-2.094,4.682-4.678c0-0.002,0-0.003,0-0.004c0-2.585-2.094-4.68-4.679-4.682c-2.584,0-4.68,2.096-4.681,4.68
			C2.52,102.613,2.52,102.614,2.52,102.614z M59.76,70.214c0,0.796,0.645,1.44,1.439,1.44s1.44-0.645,1.44-1.44
			c0-0.795-0.646-1.439-1.44-1.439S59.76,69.419,59.76,70.214z M59.76,77.415c0,0.795,0.645,1.439,1.439,1.439
			s1.44-0.645,1.44-1.439c0-0.796-0.646-1.44-1.44-1.44S59.76,76.619,59.76,77.415z M59.76,84.614c0,0.795,0.645,1.44,1.439,1.44
			s1.44-0.646,1.44-1.44s-0.646-1.439-1.44-1.439S59.76,83.819,59.76,84.614z M45.36,70.214c0,0.796,0.645,1.44,1.439,1.44
			c0.796,0,1.441-0.645,1.441-1.44c0-0.795-0.646-1.439-1.441-1.439C46.004,68.774,45.36,69.419,45.36,70.214z M45.36,77.415
			c0,0.795,0.645,1.439,1.439,1.439c0.796,0,1.441-0.645,1.441-1.439c0-0.796-0.646-1.44-1.441-1.44
			C46.004,75.975,45.36,76.619,45.36,77.415z M45.36,84.614c0,0.795,0.645,1.44,1.439,1.44c0.796,0,1.441-0.646,1.441-1.44
			s-0.646-1.439-1.441-1.439C46.004,83.175,45.36,83.819,45.36,84.614z M30.96,70.214c0,0.796,0.645,1.44,1.44,1.44
			s1.44-0.645,1.44-1.44c0-0.795-0.645-1.439-1.44-1.439S30.96,69.419,30.96,70.214z M30.96,77.415c0,0.795,0.645,1.439,1.44,1.439
			s1.44-0.645,1.44-1.439c0-0.796-0.645-1.44-1.44-1.44S30.96,76.619,30.96,77.415z M30.96,84.614c0,0.795,0.645,1.44,1.44,1.44
			s1.44-0.646,1.44-1.44s-0.645-1.439-1.44-1.439S30.96,83.819,30.96,84.614z M16.56,70.214c0,0.796,0.644,1.441,1.439,1.441
			c0.795,0.001,1.44-0.644,1.441-1.438c0-0.001,0-0.001,0-0.003c0-0.795-0.645-1.439-1.44-1.439S16.56,69.419,16.56,70.214z
			 M16.56,77.415c0,0.795,0.644,1.439,1.439,1.441c0.795,0,1.44-0.645,1.441-1.439c0-0.001,0-0.002,0-0.002
			c0-0.796-0.645-1.44-1.44-1.44S16.56,76.619,16.56,77.415z M16.56,84.614c0,0.795,0.644,1.441,1.439,1.441
			c0.795,0,1.44-0.644,1.441-1.439c0,0,0-0.001,0-0.002c0-0.795-0.645-1.439-1.44-1.439S16.56,83.819,16.56,84.614z M52.56,106.214
			c0,0.795,0.645,1.44,1.44,1.44c0.795,0,1.439-0.646,1.439-1.44s-0.645-1.439-1.439-1.439
			C53.205,104.774,52.56,105.419,52.56,106.214L52.56,106.214z M45.36,106.214c0,0.795,0.645,1.44,1.439,1.44
			c0.796,0,1.441-0.646,1.441-1.44s-0.646-1.439-1.441-1.439C46.004,104.774,45.36,105.419,45.36,106.214L45.36,106.214z
			 M38.16,106.214c0,0.795,0.645,1.44,1.44,1.44c0.795,0,1.439-0.646,1.439-1.44s-0.645-1.439-1.439-1.439
			C38.805,104.774,38.16,105.419,38.16,106.214L38.16,106.214z M30.96,106.214c0,0.795,0.645,1.44,1.44,1.44s1.44-0.646,1.44-1.44
			s-0.645-1.439-1.44-1.439S30.96,105.419,30.96,106.214L30.96,106.214z M23.76,106.214c0,0.795,0.644,1.441,1.439,1.441
			c0.795,0,1.44-0.644,1.441-1.439c0,0,0-0.001,0-0.002c0-0.795-0.645-1.439-1.44-1.439C24.405,104.774,23.76,105.419,23.76,106.214
			L23.76,106.214z M74.161,41.415c-0.002,0.795,0.643,1.441,1.438,1.442s1.441-0.643,1.441-1.438c0-0.001,0-0.003,0-0.004
			c0.002-0.795-0.643-1.441-1.438-1.442c-0.795-0.001-1.441,0.643-1.441,1.438C74.161,41.412,74.161,41.413,74.161,41.415z
			 M74.161,48.614c-0.002,0.795,0.643,1.441,1.438,1.442c0.795,0.001,1.441-0.643,1.441-1.438c0-0.001,0-0.003,0-0.004
			c0.002-0.795-0.643-1.441-1.438-1.442s-1.441,0.643-1.441,1.438C74.161,48.612,74.161,48.613,74.161,48.614z M74.161,55.814
			c-0.002,0.796,0.643,1.44,1.438,1.442c0.795,0,1.441-0.643,1.441-1.438c0-0.001,0-0.003,0-0.004
			c0.002-0.795-0.643-1.441-1.438-1.442c-0.795-0.001-1.441,0.643-1.441,1.438C74.161,55.812,74.161,55.813,74.161,55.814z"/>
		<g>
			<title>layer 21</title>
			<g>
				<title>text:GRN</title>
				<g transform="matrix(1, 0, 0, 1, 34.776, 91.4544)">
					<g transform="rotate(-90)">
						<text transform="matrix(1 0 0 1 -9.0573 3.662109e-004)" fill="#FFFFFF" font-family="'OCRA'" font-size="4.176">GRN</text>
					</g>
				</g>
			</g>
			<g>
				<title>text:BLK</title>
				<g transform="matrix(1, 0, 0, 1, 49.176, 91.4544)">
					<g transform="rotate(-90)">
						<text transform="matrix(1 0 0 1 -9.0573 2.746582e-004)" fill="#FFFFFF" font-family="'OCRA'" font-size="4.176">BLK</text>
					</g>
				</g>
			</g>
			<g>
				<title>text:WHT</title>
				<g transform="matrix(1, 0, 0, 1, 41.976, 91.4544)">
					<g transform="rotate(-90)">
						<text transform="matrix(1 0 0 1 -9.0573 -9.155273e-004)" fill="#FFFFFF" font-family="'OCRA'" font-size="4.176">WHT</text>
					</g>
				</g>
			</g>
			<g>
				<title>text:RED</title>
				<g transform="matrix(1, 0, 0, 1, 56.376, 91.4544)">
					<g transform="rotate(-90)">
						<text transform="matrix(1 0 0 1 -9.0573 -5.187988e-004)" fill="#FFFFFF" font-family="'OCRA'" font-size="4.176">RED</text>
					</g>
				</g>
			</g>
			<g>
				<title>text:UL</title>
				<text transform="matrix(1 0 0 1 58.3198 65.1738)" fill="#FFFFFF" font-family="'OCRA'" font-size="4.176">UL</text>
			</g>
			<g>
				<title>text:UR</title>
				<text transform="matrix(1 0 0 1 43.9204 65.1738)" fill="#FFFFFF" font-family="'OCRA'" font-size="4.176">UR</text>
			</g>
			<g>
				<title>text:LL</title>
				<text transform="matrix(1 0 0 1 29.52 65.1738)" fill="#FFFFFF" font-family="'OCRA'" font-size="4.176">LL</text>
			</g>
			<g>
				<title>text:LR</title>
				<text transform="matrix(1 0 0 1 15.1201 65.1738)" fill="#FFFFFF" font-family="'OCRA'" font-size="4.176">LR</text>
			</g>
			<g>
				<title>text:Load</title>
				<g transform="matrix(1, 0, 0, 1, 71.856, 70.2142)">
					<g transform="rotate(-90)">
						<text transform="matrix(1 0 0 1 -12.0758 -6.103516e-005)" fill="#FFFFFF" font-family="'OCRA'" font-size="4.176">Load</text>
					</g>
				</g>
			</g>
			<g>
				<title>text:Sensors</title>
				<g transform="matrix(1, 0, 0, 1, 76.896, 65.5342)">
					<g transform="rotate(-90)">
						<text transform="matrix(1 0 0 1 -21.1347 9.765625e-004)" fill="#FFFFFF" font-family="'OCRA'" font-size="4.176">Sensors</text>
					</g>
				</g>
			</g>
			<g>
				<title>text:B</title>
				<text transform="matrix(1 0 0 1 23.853 73.54)" fill="#FFFFFF" font-family="'OCRA'" font-size="5.8464">B</text>
			</g>
			<g>
				<title>text:W</title>
				<text transform="matrix(1 0 0 1 23.853 80.7402)" fill="#FFFFFF" font-family="'OCRA'" font-size="5.8464">W</text>
			</g>
			<g>
				<title>text:R</title>
				<text transform="matrix(1 0 0 1 23.853 87.9404)" fill="#FFFFFF" font-family="'OCRA'" font-size="5.8464">R</text>
			</g>
			<g>
				<title>text:B</title>
				<text transform="matrix(1 0 0 1 38.2529 73.54)" fill="#FFFFFF" font-family="'OCRA'" font-size="5.8464">B</text>
			</g>
			<g>
				<title>text:W</title>
				<text transform="matrix(1 0 0 1 38.2529 80.7402)" fill="#FFFFFF" font-family="'OCRA'" font-size="5.8464">W</text>
			</g>
			<g>
				<title>text:R</title>
				<text transform="matrix(1 0 0 1 38.2529 87.9404)" fill="#FFFFFF" font-family="'OCRA'" font-size="5.8464">R</text>
			</g>
			<g>
				<title>text:B</title>
				<text transform="matrix(1 0 0 1 52.6528 73.54)" fill="#FFFFFF" font-family="'OCRA'" font-size="5.8464">B</text>
			</g>
			<g>
				<title>text:W</title>
				<text transform="matrix(1 0 0 1 52.6528 80.7402)" fill="#FFFFFF" font-family="'OCRA'" font-size="5.8464">W</text>
			</g>
			<g>
				<title>text:R</title>
				<text transform="matrix(1 0 0 1 52.6528 87.9404)" fill="#FFFFFF" font-family="'OCRA'" font-size="5.8464">R</text>
			</g>
			<g>
				<title>text:YLW</title>
				<g transform="matrix(1, 0, 0, 1, 27.576, 91.4544)">
					<g transform="rotate(-90)">
						<text transform="matrix(1 0 0 1 -9.0573 1.831055e-004)" fill="#FFFFFF" font-family="'OCRA'" font-size="4.176">YLW</text>
					</g>
				</g>
			</g>
			<g>
				<title>text:RJ45</title>
				<text transform="matrix(1 0 0 1 30.96 40.334)" fill="#FFFFFF" font-family="'OCRA'" font-size="5.8464">RJ45</text>
			</g>
			<g>
				<title>text:Load Combinator</title>
				<g transform="matrix(1, 0, 0, 1, 8.64, 94.3344)">
					<g transform="rotate(270)">
						<text transform="matrix(1 0 0 1 4.272461e-004 -3.662109e-004)" fill="#FFFFFF" font-family="'OCRA'" font-size="5.0112">Load Combinator</text>
					</g>
				</g>
			</g>
			<g>
				<title>text:GND</title>
				<text transform="matrix(1 0 0 1 62.5825 43.79)" fill="#FFFFFF" font-family="'OCRA'" font-size="4.176">GND</text>
			</g>
			<g>
				<title>text:SIG</title>
				<text transform="matrix(1 0 0 1 62.5825 50.9902)" fill="#FFFFFF" font-family="'OCRA'" font-size="4.176">SIG</text>
			</g>
			<g>
				<title>text:5V</title>
				<text transform="matrix(1 0 0 1 65.6021 58.1895)" fill="#FFFFFF" font-family="'OCRA'" font-size="4.176">5V</text>
			</g>
			<g>
				<title>element:JP1</title>
				<g>
					<title>package:1X03</title>
					
						<line fill="none" stroke="#FFFFFF" stroke-width="0.576" stroke-linecap="round" x1="63" y1="81.015" x2="64.799" y2="82.814"/>
					
						<line fill="none" stroke="#FFFFFF" stroke-width="0.576" stroke-linecap="round" x1="64.799" y1="82.814" x2="64.799" y2="86.415"/>
					
						<line fill="none" stroke="#FFFFFF" stroke-width="0.576" stroke-linecap="round" x1="64.799" y1="86.415" x2="63" y2="88.214"/>
					
						<line fill="none" stroke="#FFFFFF" stroke-width="0.576" stroke-linecap="round" x1="59.4" y1="88.214" x2="57.6" y2="86.415"/>
					
						<line fill="none" stroke="#FFFFFF" stroke-width="0.576" stroke-linecap="round" x1="57.6" y1="86.415" x2="57.6" y2="82.814"/>
					
						<line fill="none" stroke="#FFFFFF" stroke-width="0.576" stroke-linecap="round" x1="57.6" y1="82.814" x2="59.4" y2="81.015"/>
					
						<line fill="none" stroke="#FFFFFF" stroke-width="0.576" stroke-linecap="round" x1="64.799" y1="68.415" x2="64.799" y2="72.015"/>
					
						<line fill="none" stroke="#FFFFFF" stroke-width="0.576" stroke-linecap="round" x1="64.799" y1="72.015" x2="63" y2="73.814"/>
					
						<line fill="none" stroke="#FFFFFF" stroke-width="0.576" stroke-linecap="round" x1="59.4" y1="73.814" x2="57.6" y2="72.015"/>
					
						<line fill="none" stroke="#FFFFFF" stroke-width="0.576" stroke-linecap="round" x1="63" y1="73.814" x2="64.799" y2="75.614"/>
					
						<line fill="none" stroke="#FFFFFF" stroke-width="0.576" stroke-linecap="round" x1="64.799" y1="75.614" x2="64.799" y2="79.214"/>
					
						<line fill="none" stroke="#FFFFFF" stroke-width="0.576" stroke-linecap="round" x1="64.799" y1="79.214" x2="63" y2="81.015"/>
					
						<line fill="none" stroke="#FFFFFF" stroke-width="0.576" stroke-linecap="round" x1="59.4" y1="81.015" x2="57.6" y2="79.214"/>
					
						<line fill="none" stroke="#FFFFFF" stroke-width="0.576" stroke-linecap="round" x1="57.6" y1="79.214" x2="57.6" y2="75.614"/>
					
						<line fill="none" stroke="#FFFFFF" stroke-width="0.576" stroke-linecap="round" x1="57.6" y1="75.614" x2="59.4" y2="73.814"/>
					<line fill="none" stroke="#FFFFFF" stroke-width="0.576" stroke-linecap="round" x1="63" y1="66.614" x2="59.4" y2="66.614"/>
					
						<line fill="none" stroke="#FFFFFF" stroke-width="0.576" stroke-linecap="round" x1="64.799" y1="68.415" x2="63" y2="66.614"/>
					
						<line fill="none" stroke="#FFFFFF" stroke-width="0.576" stroke-linecap="round" x1="59.4" y1="66.614" x2="57.6" y2="68.415"/>
					
						<line fill="none" stroke="#FFFFFF" stroke-width="0.576" stroke-linecap="round" x1="57.6" y1="72.015" x2="57.6" y2="68.415"/>
					<line fill="none" stroke="#FFFFFF" stroke-width="0.576" stroke-linecap="round" x1="63" y1="88.214" x2="59.4" y2="88.214"/>
				</g>
			</g>
			<g>
				<title>element:JP2</title>
				<g>
					<title>package:1X03</title>
					
						<line fill="none" stroke="#FFFFFF" stroke-width="0.576" stroke-linecap="round" x1="48.6" y1="81.015" x2="50.4" y2="82.814"/>
					
						<line fill="none" stroke="#FFFFFF" stroke-width="0.576" stroke-linecap="round" x1="50.4" y1="82.814" x2="50.4" y2="86.415"/>
					
						<line fill="none" stroke="#FFFFFF" stroke-width="0.576" stroke-linecap="round" x1="50.4" y1="86.415" x2="48.6" y2="88.214"/>
					<line fill="none" stroke="#FFFFFF" stroke-width="0.576" stroke-linecap="round" x1="45" y1="88.214" x2="43.2" y2="86.415"/>
					
						<line fill="none" stroke="#FFFFFF" stroke-width="0.576" stroke-linecap="round" x1="43.2" y1="86.415" x2="43.2" y2="82.814"/>
					<line fill="none" stroke="#FFFFFF" stroke-width="0.576" stroke-linecap="round" x1="43.2" y1="82.814" x2="45" y2="81.015"/>
					
						<line fill="none" stroke="#FFFFFF" stroke-width="0.576" stroke-linecap="round" x1="50.4" y1="68.415" x2="50.4" y2="72.015"/>
					
						<line fill="none" stroke="#FFFFFF" stroke-width="0.576" stroke-linecap="round" x1="50.4" y1="72.015" x2="48.6" y2="73.814"/>
					<line fill="none" stroke="#FFFFFF" stroke-width="0.576" stroke-linecap="round" x1="45" y1="73.814" x2="43.2" y2="72.015"/>
					
						<line fill="none" stroke="#FFFFFF" stroke-width="0.576" stroke-linecap="round" x1="48.6" y1="73.814" x2="50.4" y2="75.614"/>
					
						<line fill="none" stroke="#FFFFFF" stroke-width="0.576" stroke-linecap="round" x1="50.4" y1="75.614" x2="50.4" y2="79.214"/>
					
						<line fill="none" stroke="#FFFFFF" stroke-width="0.576" stroke-linecap="round" x1="50.4" y1="79.214" x2="48.6" y2="81.015"/>
					<line fill="none" stroke="#FFFFFF" stroke-width="0.576" stroke-linecap="round" x1="45" y1="81.015" x2="43.2" y2="79.214"/>
					
						<line fill="none" stroke="#FFFFFF" stroke-width="0.576" stroke-linecap="round" x1="43.2" y1="79.214" x2="43.2" y2="75.614"/>
					<line fill="none" stroke="#FFFFFF" stroke-width="0.576" stroke-linecap="round" x1="43.2" y1="75.614" x2="45" y2="73.814"/>
					<line fill="none" stroke="#FFFFFF" stroke-width="0.576" stroke-linecap="round" x1="48.6" y1="66.614" x2="45" y2="66.614"/>
					
						<line fill="none" stroke="#FFFFFF" stroke-width="0.576" stroke-linecap="round" x1="50.4" y1="68.415" x2="48.6" y2="66.614"/>
					<line fill="none" stroke="#FFFFFF" stroke-width="0.576" stroke-linecap="round" x1="45" y1="66.614" x2="43.2" y2="68.415"/>
					
						<line fill="none" stroke="#FFFFFF" stroke-width="0.576" stroke-linecap="round" x1="43.2" y1="72.015" x2="43.2" y2="68.415"/>
					<line fill="none" stroke="#FFFFFF" stroke-width="0.576" stroke-linecap="round" x1="48.6" y1="88.214" x2="45" y2="88.214"/>
				</g>
			</g>
			<g>
				<title>element:JP3</title>
				<g>
					<title>package:1X03</title>
					<line fill="none" stroke="#FFFFFF" stroke-width="0.576" stroke-linecap="round" x1="34.2" y1="81.015" x2="36" y2="82.814"/>
					<line fill="none" stroke="#FFFFFF" stroke-width="0.576" stroke-linecap="round" x1="36" y1="82.814" x2="36" y2="86.415"/>
					<line fill="none" stroke="#FFFFFF" stroke-width="0.576" stroke-linecap="round" x1="36" y1="86.415" x2="34.2" y2="88.214"/>
					
						<line fill="none" stroke="#FFFFFF" stroke-width="0.576" stroke-linecap="round" x1="30.6" y1="88.214" x2="28.8" y2="86.415"/>
					
						<line fill="none" stroke="#FFFFFF" stroke-width="0.576" stroke-linecap="round" x1="28.8" y1="86.415" x2="28.8" y2="82.814"/>
					
						<line fill="none" stroke="#FFFFFF" stroke-width="0.576" stroke-linecap="round" x1="28.8" y1="82.814" x2="30.6" y2="81.015"/>
					<line fill="none" stroke="#FFFFFF" stroke-width="0.576" stroke-linecap="round" x1="36" y1="68.415" x2="36" y2="72.015"/>
					<line fill="none" stroke="#FFFFFF" stroke-width="0.576" stroke-linecap="round" x1="36" y1="72.015" x2="34.2" y2="73.814"/>
					
						<line fill="none" stroke="#FFFFFF" stroke-width="0.576" stroke-linecap="round" x1="30.6" y1="73.814" x2="28.8" y2="72.015"/>
					<line fill="none" stroke="#FFFFFF" stroke-width="0.576" stroke-linecap="round" x1="34.2" y1="73.814" x2="36" y2="75.614"/>
					<line fill="none" stroke="#FFFFFF" stroke-width="0.576" stroke-linecap="round" x1="36" y1="75.614" x2="36" y2="79.214"/>
					<line fill="none" stroke="#FFFFFF" stroke-width="0.576" stroke-linecap="round" x1="36" y1="79.214" x2="34.2" y2="81.015"/>
					
						<line fill="none" stroke="#FFFFFF" stroke-width="0.576" stroke-linecap="round" x1="30.6" y1="81.015" x2="28.8" y2="79.214"/>
					
						<line fill="none" stroke="#FFFFFF" stroke-width="0.576" stroke-linecap="round" x1="28.8" y1="79.214" x2="28.8" y2="75.614"/>
					
						<line fill="none" stroke="#FFFFFF" stroke-width="0.576" stroke-linecap="round" x1="28.8" y1="75.614" x2="30.6" y2="73.814"/>
					
						<line fill="none" stroke="#FFFFFF" stroke-width="0.576" stroke-linecap="round" x1="34.2" y1="66.614" x2="30.6" y2="66.614"/>
					<line fill="none" stroke="#FFFFFF" stroke-width="0.576" stroke-linecap="round" x1="36" y1="68.415" x2="34.2" y2="66.614"/>
					
						<line fill="none" stroke="#FFFFFF" stroke-width="0.576" stroke-linecap="round" x1="30.6" y1="66.614" x2="28.8" y2="68.415"/>
					
						<line fill="none" stroke="#FFFFFF" stroke-width="0.576" stroke-linecap="round" x1="28.8" y1="72.015" x2="28.8" y2="68.415"/>
					
						<line fill="none" stroke="#FFFFFF" stroke-width="0.576" stroke-linecap="round" x1="34.2" y1="88.214" x2="30.6" y2="88.214"/>
				</g>
			</g>
			<g>
				<title>element:JP4</title>
				<g>
					<title>package:1X03</title>
					
						<line fill="none" stroke="#FFFFFF" stroke-width="0.576" stroke-linecap="round" x1="19.8" y1="81.015" x2="21.6" y2="82.814"/>
					
						<line fill="none" stroke="#FFFFFF" stroke-width="0.576" stroke-linecap="round" x1="21.6" y1="82.814" x2="21.6" y2="86.415"/>
					
						<line fill="none" stroke="#FFFFFF" stroke-width="0.576" stroke-linecap="round" x1="21.6" y1="86.415" x2="19.8" y2="88.214"/>
					
						<line fill="none" stroke="#FFFFFF" stroke-width="0.576" stroke-linecap="round" x1="16.2" y1="88.214" x2="14.4" y2="86.415"/>
					
						<line fill="none" stroke="#FFFFFF" stroke-width="0.576" stroke-linecap="round" x1="14.4" y1="86.415" x2="14.4" y2="82.814"/>
					
						<line fill="none" stroke="#FFFFFF" stroke-width="0.576" stroke-linecap="round" x1="14.4" y1="82.814" x2="16.2" y2="81.015"/>
					
						<line fill="none" stroke="#FFFFFF" stroke-width="0.576" stroke-linecap="round" x1="21.6" y1="68.415" x2="21.6" y2="72.015"/>
					
						<line fill="none" stroke="#FFFFFF" stroke-width="0.576" stroke-linecap="round" x1="21.6" y1="72.015" x2="19.8" y2="73.814"/>
					
						<line fill="none" stroke="#FFFFFF" stroke-width="0.576" stroke-linecap="round" x1="16.2" y1="73.814" x2="14.4" y2="72.015"/>
					
						<line fill="none" stroke="#FFFFFF" stroke-width="0.576" stroke-linecap="round" x1="19.8" y1="73.814" x2="21.6" y2="75.614"/>
					
						<line fill="none" stroke="#FFFFFF" stroke-width="0.576" stroke-linecap="round" x1="21.6" y1="75.614" x2="21.6" y2="79.214"/>
					
						<line fill="none" stroke="#FFFFFF" stroke-width="0.576" stroke-linecap="round" x1="21.6" y1="79.214" x2="19.8" y2="81.015"/>
					
						<line fill="none" stroke="#FFFFFF" stroke-width="0.576" stroke-linecap="round" x1="16.2" y1="81.015" x2="14.4" y2="79.214"/>
					
						<line fill="none" stroke="#FFFFFF" stroke-width="0.576" stroke-linecap="round" x1="14.4" y1="79.214" x2="14.4" y2="75.614"/>
					
						<line fill="none" stroke="#FFFFFF" stroke-width="0.576" stroke-linecap="round" x1="14.4" y1="75.614" x2="16.2" y2="73.814"/>
					
						<line fill="none" stroke="#FFFFFF" stroke-width="0.576" stroke-linecap="round" x1="19.8" y1="66.614" x2="16.2" y2="66.614"/>
					
						<line fill="none" stroke="#FFFFFF" stroke-width="0.576" stroke-linecap="round" x1="21.6" y1="68.415" x2="19.8" y2="66.614"/>
					
						<line fill="none" stroke="#FFFFFF" stroke-width="0.576" stroke-linecap="round" x1="16.2" y1="66.614" x2="14.4" y2="68.415"/>
					
						<line fill="none" stroke="#FFFFFF" stroke-width="0.576" stroke-linecap="round" x1="14.4" y1="72.015" x2="14.4" y2="68.415"/>
					
						<line fill="none" stroke="#FFFFFF" stroke-width="0.576" stroke-linecap="round" x1="19.8" y1="88.214" x2="16.2" y2="88.214"/>
				</g>
			</g>
			<g>
				<title>element:JP5</title>
				<g>
					<title>package:1X05</title>
					
						<line fill="none" stroke="#FFFFFF" stroke-width="0.576" stroke-linecap="round" x1="34.2" y1="109.813" x2="30.6" y2="109.813"/>
					
						<line fill="none" stroke="#FFFFFF" stroke-width="0.576" stroke-linecap="round" x1="30.6" y1="109.813" x2="28.8" y2="108.015"/>
					
						<line fill="none" stroke="#FFFFFF" stroke-width="0.576" stroke-linecap="round" x1="28.8" y1="104.414" x2="30.6" y2="102.614"/>
					
						<line fill="none" stroke="#FFFFFF" stroke-width="0.576" stroke-linecap="round" x1="28.8" y1="108.015" x2="27" y2="109.813"/>
					
						<line fill="none" stroke="#FFFFFF" stroke-width="0.576" stroke-linecap="round" x1="27" y1="109.813" x2="23.4" y2="109.813"/>
					
						<line fill="none" stroke="#FFFFFF" stroke-width="0.576" stroke-linecap="round" x1="23.4" y1="109.813" x2="21.6" y2="108.015"/>
					
						<line fill="none" stroke="#FFFFFF" stroke-width="0.576" stroke-linecap="round" x1="21.6" y1="104.414" x2="23.4" y2="102.614"/>
					
						<line fill="none" stroke="#FFFFFF" stroke-width="0.576" stroke-linecap="round" x1="23.4" y1="102.614" x2="27" y2="102.614"/>
					
						<line fill="none" stroke="#FFFFFF" stroke-width="0.576" stroke-linecap="round" x1="27" y1="102.614" x2="28.8" y2="104.414"/>
					
						<line fill="none" stroke="#FFFFFF" stroke-width="0.576" stroke-linecap="round" x1="43.2" y1="108.015" x2="41.4" y2="109.813"/>
					
						<line fill="none" stroke="#FFFFFF" stroke-width="0.576" stroke-linecap="round" x1="41.4" y1="109.813" x2="37.8" y2="109.813"/>
					
						<line fill="none" stroke="#FFFFFF" stroke-width="0.576" stroke-linecap="round" x1="37.8" y1="109.813" x2="36" y2="108.015"/>
					
						<line fill="none" stroke="#FFFFFF" stroke-width="0.576" stroke-linecap="round" x1="36" y1="104.414" x2="37.8" y2="102.614"/>
					
						<line fill="none" stroke="#FFFFFF" stroke-width="0.576" stroke-linecap="round" x1="37.8" y1="102.614" x2="41.4" y2="102.614"/>
					
						<line fill="none" stroke="#FFFFFF" stroke-width="0.576" stroke-linecap="round" x1="41.4" y1="102.614" x2="43.2" y2="104.414"/>
					
						<line fill="none" stroke="#FFFFFF" stroke-width="0.576" stroke-linecap="round" x1="34.2" y1="109.813" x2="36" y2="108.015"/>
					
						<line fill="none" stroke="#FFFFFF" stroke-width="0.576" stroke-linecap="round" x1="36" y1="104.414" x2="34.2" y2="102.614"/>
					
						<line fill="none" stroke="#FFFFFF" stroke-width="0.576" stroke-linecap="round" x1="30.6" y1="102.614" x2="34.2" y2="102.614"/>
					
						<line fill="none" stroke="#FFFFFF" stroke-width="0.576" stroke-linecap="round" x1="55.799" y1="109.813" x2="52.2" y2="109.813"/>
					
						<line fill="none" stroke="#FFFFFF" stroke-width="0.576" stroke-linecap="round" x1="52.2" y1="109.813" x2="50.4" y2="108.015"/>
					
						<line fill="none" stroke="#FFFFFF" stroke-width="0.576" stroke-linecap="round" x1="50.4" y1="104.414" x2="52.2" y2="102.614"/>
					
						<line fill="none" stroke="#FFFFFF" stroke-width="0.576" stroke-linecap="round" x1="50.4" y1="108.015" x2="48.6" y2="109.813"/>
					
						<line fill="none" stroke="#FFFFFF" stroke-width="0.576" stroke-linecap="round" x1="48.6" y1="109.813" x2="45" y2="109.813"/>
					
						<line fill="none" stroke="#FFFFFF" stroke-width="0.576" stroke-linecap="round" x1="45" y1="109.813" x2="43.2" y2="108.015"/>
					
						<line fill="none" stroke="#FFFFFF" stroke-width="0.576" stroke-linecap="round" x1="43.2" y1="104.414" x2="45" y2="102.614"/>
					
						<line fill="none" stroke="#FFFFFF" stroke-width="0.576" stroke-linecap="round" x1="45" y1="102.614" x2="48.6" y2="102.614"/>
					
						<line fill="none" stroke="#FFFFFF" stroke-width="0.576" stroke-linecap="round" x1="48.6" y1="102.614" x2="50.4" y2="104.414"/>
					
						<line fill="none" stroke="#FFFFFF" stroke-width="0.576" stroke-linecap="round" x1="57.6" y1="108.015" x2="57.6" y2="104.414"/>
					
						<line fill="none" stroke="#FFFFFF" stroke-width="0.576" stroke-linecap="round" x1="55.799" y1="109.813" x2="57.6" y2="108.015"/>
					
						<line fill="none" stroke="#FFFFFF" stroke-width="0.576" stroke-linecap="round" x1="57.6" y1="104.414" x2="55.799" y2="102.614"/>
					
						<line fill="none" stroke="#FFFFFF" stroke-width="0.576" stroke-linecap="round" x1="52.2" y1="102.614" x2="55.799" y2="102.614"/>
					
						<line fill="none" stroke="#FFFFFF" stroke-width="0.576" stroke-linecap="round" x1="21.6" y1="108.015" x2="21.6" y2="104.414"/>
				</g>
			</g>
			<g>
				<title>element:JP6</title>
				<g>
					<title>package:RJ45-8</title>
					<line fill="none" stroke="#FFFFFF" stroke-width="0.576" stroke-linecap="round" x1="61.2" y1="58.961" x2="18" y2="58.961"/>
					<line fill="none" stroke="#FFFFFF" stroke-width="0.576" stroke-linecap="round" x1="61.2" y1="22.11" x2="61.2" y2="58.961"/>
					<line fill="none" stroke="#FFFFFF" stroke-width="0.576" stroke-linecap="round" x1="61.2" y1="22.11" x2="18" y2="22.11"/>
					<line fill="none" stroke="#FFFFFF" stroke-width="0.576" stroke-linecap="round" x1="18" y1="58.961" x2="18" y2="22.11"/>
				</g>
			</g>
			<g>
				<title>element:JP7</title>
				<g>
					<title>package:1X03</title>
					
						<line fill="none" stroke="#FFFFFF" stroke-width="0.576" stroke-linecap="round" x1="77.4" y1="52.214" x2="79.2" y2="54.014"/>
					
						<line fill="none" stroke="#FFFFFF" stroke-width="0.576" stroke-linecap="round" x1="79.2" y1="54.014" x2="79.2" y2="57.614"/>
					
						<line fill="none" stroke="#FFFFFF" stroke-width="0.576" stroke-linecap="round" x1="79.2" y1="57.614" x2="77.4" y2="59.415"/>
					
						<line fill="none" stroke="#FFFFFF" stroke-width="0.576" stroke-linecap="round" x1="73.799" y1="59.415" x2="72" y2="57.614"/>
					<line fill="none" stroke="#FFFFFF" stroke-width="0.576" stroke-linecap="round" x1="72" y1="57.614" x2="72" y2="54.014"/>
					
						<line fill="none" stroke="#FFFFFF" stroke-width="0.576" stroke-linecap="round" x1="72" y1="54.014" x2="73.799" y2="52.214"/>
					
						<line fill="none" stroke="#FFFFFF" stroke-width="0.576" stroke-linecap="round" x1="79.2" y1="39.614" x2="79.2" y2="43.214"/>
					
						<line fill="none" stroke="#FFFFFF" stroke-width="0.576" stroke-linecap="round" x1="79.2" y1="43.214" x2="77.4" y2="45.014"/>
					
						<line fill="none" stroke="#FFFFFF" stroke-width="0.576" stroke-linecap="round" x1="73.799" y1="45.014" x2="72" y2="43.214"/>
					
						<line fill="none" stroke="#FFFFFF" stroke-width="0.576" stroke-linecap="round" x1="77.4" y1="45.014" x2="79.2" y2="46.814"/>
					
						<line fill="none" stroke="#FFFFFF" stroke-width="0.576" stroke-linecap="round" x1="79.2" y1="46.814" x2="79.2" y2="50.415"/>
					
						<line fill="none" stroke="#FFFFFF" stroke-width="0.576" stroke-linecap="round" x1="79.2" y1="50.415" x2="77.4" y2="52.214"/>
					
						<line fill="none" stroke="#FFFFFF" stroke-width="0.576" stroke-linecap="round" x1="73.799" y1="52.214" x2="72" y2="50.415"/>
					<line fill="none" stroke="#FFFFFF" stroke-width="0.576" stroke-linecap="round" x1="72" y1="50.415" x2="72" y2="46.814"/>
					
						<line fill="none" stroke="#FFFFFF" stroke-width="0.576" stroke-linecap="round" x1="72" y1="46.814" x2="73.799" y2="45.014"/>
					
						<line fill="none" stroke="#FFFFFF" stroke-width="0.576" stroke-linecap="round" x1="77.4" y1="37.814" x2="73.799" y2="37.814"/>
					
						<line fill="none" stroke="#FFFFFF" stroke-width="0.576" stroke-linecap="round" x1="79.2" y1="39.614" x2="77.4" y2="37.814"/>
					
						<line fill="none" stroke="#FFFFFF" stroke-width="0.576" stroke-linecap="round" x1="73.799" y1="37.814" x2="72" y2="39.614"/>
					<line fill="none" stroke="#FFFFFF" stroke-width="0.576" stroke-linecap="round" x1="72" y1="43.214" x2="72" y2="39.614"/>
					
						<line fill="none" stroke="#FFFFFF" stroke-width="0.576" stroke-linecap="round" x1="77.4" y1="59.415" x2="73.799" y2="59.415"/>
				</g>
			</g>
			<g>
				<title>element:LOGO3</title>
				<g>
					<title>package:SFE_LOGO_FLAME_.1</title>
					<g>
						<title>polygon</title>
						<path fill="none" stroke="#FFFFFF" stroke-width="0.0283" stroke-linecap="round" d="M18.499,99.156v0.255 M18.499,99.411
							l-0.028,0.085 M18.471,99.496l-0.028,0.058 M18.442,99.554l-0.085,0.084 M18.357,99.638l-0.085,0.028 M18.272,99.666h-0.085
							 M18.187,99.666l-0.227-0.057 M17.96,99.609l-0.114-0.056 M17.847,99.554l-0.085-0.058 M17.762,99.496l-0.113-0.085
							 M17.648,99.411l-0.17-0.17 M17.479,99.241l-0.113-0.17 M17.365,99.071l-0.028-0.113 M17.337,98.958v-0.17 M17.337,98.788
							l0.028-0.086 M17.365,98.702l0.028-0.057 M17.394,98.646l0.057-0.084 M17.45,98.562l0.113-0.086 M17.563,98.476l0.113-0.057
							 M17.677,98.419l0.142-0.027 M17.818,98.392l0.114-0.029 M17.932,98.362h0.17 M18.102,98.362l0.057,0.029 M18.159,98.392
							h0.028 M18.187,98.392l-0.028-0.029 M18.159,98.362l-0.113-0.085 M18.045,98.277l-0.397-0.198 M17.648,98.079l-0.255-0.057
							 M17.394,98.022H17.11 M17.11,98.022l-0.312,0.057 M16.798,98.079l-0.312,0.17 M16.486,98.249l-0.255,0.198 M16.231,98.447
							l-0.142,0.227 M16.089,98.674l-0.085,0.256 M16.004,98.93v0.227 M16.004,99.156l0.057,0.255 M16.061,99.411l0.142,0.255
							 M16.203,99.666l0.199,0.228 M16.401,99.894l0.227,0.254 M16.628,100.147l0.199,0.199 M16.827,100.347l0.085,0.227
							 M16.912,100.573v0.199 M16.912,100.772l-0.057,0.17 M16.855,100.942l-0.114,0.142 M16.741,101.084l-0.17,0.113
							 M16.571,101.197l-0.227,0.058 M16.345,101.255h-0.227 M16.118,101.255l-0.142-0.029 M15.976,101.226l-0.142-0.057
							 M15.834,101.169l-0.17-0.17 M15.664,100.999l-0.057-0.086 M15.607,100.913l-0.028-0.085 M15.579,100.828v-0.112
							 M15.579,100.716l0.028-0.086 M15.607,100.63l0.17-0.17 M15.778,100.46l0.085-0.029 M15.863,100.431l0.113-0.057
							 M15.976,100.374l0.028-0.027 M16.004,100.347l-0.113-0.057 M15.891,100.29h-0.34 M15.551,100.29l-0.17,0.028 M15.381,100.318
							l-0.142,0.028 M15.239,100.347l-0.142,0.057 M15.097,100.403l-0.113,0.085 M14.984,100.488l-0.142,0.112 M14.842,100.601
							l-0.17,0.285 M14.672,100.886l-0.057,0.198 M14.615,101.084l-0.028,0.226 M14.587,101.31v3.884 M14.587,105.193l0.142-0.142
							 M14.729,105.052l0.085-0.142 M14.814,104.91l0.142-0.142 M14.956,104.769l0.142-0.17 M15.097,104.599l0.34-0.34
							 M15.438,104.259l0.34-0.397 M15.778,103.861l0.283-0.283 M16.061,103.578l0.284-0.17 M16.345,103.408l0.17-0.028
							 M16.515,103.38h0.539 M17.053,103.38l0.34-0.057 M17.394,103.323l0.312-0.085 M17.705,103.238l0.284-0.114 M17.989,103.124
							l0.283-0.17 M18.272,102.954l0.227-0.197 M18.499,102.757l0.227-0.228 M18.726,102.529l0.199-0.255 M18.924,102.274
							l0.283-0.51 M19.208,101.765l0.142-0.539 M19.349,101.226l0.028-0.482 M19.377,100.743l-0.085-0.453 M19.292,100.29
							l-0.142-0.426 M19.151,99.864l-0.198-0.311 M18.953,99.554l-0.227-0.256 M18.726,99.298l-0.227-0.142 M14.587,105.165h0.028
							 M14.587,105.138h0.057 M14.587,105.108h0.085 M14.587,105.08h0.114 M14.587,105.052h0.142 M14.587,105.024h0.159
							 M14.587,104.995h0.176 M14.587,104.968h0.193 M14.587,104.938h0.21 M14.587,104.91h0.227 M14.587,104.882h0.255
							 M14.587,104.854h0.284 M14.587,104.826h0.312 M14.587,104.798h0.34 M14.587,104.769h0.369 M14.587,104.74h0.392
							 M14.587,104.712h0.416 M14.587,104.685h0.439 M14.587,104.655h0.463 M14.587,104.628h0.487 M14.587,104.599h0.51
							 M14.587,104.57h0.539 M14.587,104.542h0.567 M14.587,104.513h0.596 M14.587,104.485h0.624 M14.587,104.457h0.652
							 M14.587,104.429h0.681 M14.587,104.4h0.709 M14.587,104.372h0.737 M14.587,104.343h0.766 M14.587,104.315h0.794
							 M14.587,104.287h0.822 M14.587,104.259h0.851 M14.587,104.229h0.875 M14.587,104.201h0.899 M14.587,104.173h0.923
							 M14.587,104.146h0.948 M14.587,104.116h0.972 M14.587,104.089h0.996 M14.587,104.06h1.021 M14.587,104.031h1.045
							 M14.587,104.003h1.069 M14.587,103.974h1.093 M14.587,103.946h1.118 M14.587,103.919h1.142 M14.587,103.89h1.167
							 M14.587,103.861h1.191 M14.587,103.833h1.219 M14.587,103.806h1.248 M14.587,103.776h1.276 M14.587,103.748h1.304
							 M14.587,103.72h1.333 M14.587,103.692h1.361 M14.587,103.663h1.389 M14.587,103.636h1.417 M14.587,103.606h1.446
							 M14.587,103.578h1.474 M14.587,103.55h1.521 M14.587,103.522h1.569 M14.587,103.493h1.616 M14.587,103.466h1.663
							 M14.587,103.437h1.71 M14.587,103.408h1.758 M14.587,103.38h2.466 M14.587,103.351h2.636 M14.587,103.323h2.807
							 M14.587,103.296h2.91 M14.587,103.267h3.014 M14.587,103.238h3.118 M14.587,103.209h3.189 M14.587,103.181h3.26
							 M14.587,103.153h3.331 M14.587,103.124h3.402 M14.587,103.097h3.449 M14.587,103.068h3.496 M14.587,103.039h3.543
							 M14.587,103.011h3.591 M14.587,102.981h3.638 M14.587,102.954h3.685 M14.587,102.927h3.718 M14.587,102.897h3.75
							 M14.587,102.869h3.782 M14.587,102.841h3.815 M14.587,102.812h3.847 M14.587,102.784h3.879 M14.587,102.757h3.912
							 M14.587,102.728h3.94 M14.587,102.699h3.969 M14.587,102.671h3.997 M14.587,102.642h4.025 M14.587,102.614h4.054
							 M14.587,102.587h4.082 M14.587,102.558h4.11 M14.587,102.529h4.139 M14.587,102.501h4.161 M14.587,102.474h4.183
							 M14.587,102.444h4.205 M14.587,102.416h4.227 M14.587,102.388h4.249 M14.587,102.359h4.271 M14.587,102.331h4.293
							 M14.587,102.304h4.315 M14.587,102.274h4.337 M14.587,102.246h4.353 M14.587,102.218h4.369 M14.587,102.188h4.384
							 M14.587,102.161h4.4 M14.587,102.132h4.416 M14.587,102.104h4.432 M14.587,102.076h4.447 M14.587,102.048h4.463
							 M14.587,102.019h4.479 M14.587,101.991h4.495 M14.587,101.962h4.51 M14.587,101.935h4.526 M14.587,101.905h4.542
							 M14.587,101.878h4.558 M14.587,101.849h4.573 M14.587,101.82h4.589 M14.587,101.792h4.605 M14.587,101.765h4.621
							 M14.587,101.735h4.628 M14.587,101.707h4.636 M14.587,101.679h4.643 M14.587,101.65h4.65 M14.587,101.622h4.658
							 M14.587,101.593h4.666 M14.587,101.565h4.673 M14.587,101.537h4.68 M14.587,101.509h4.688 M14.587,101.479h4.695
							 M14.587,101.452h4.703 M14.587,101.425h4.71 M14.587,101.396h4.718 M14.587,101.367h4.725 M14.587,101.339h4.732
							 M14.587,101.31h4.74 M14.591,101.282h4.744 M14.594,101.255h1.523 M16.345,101.255h2.997 M14.598,101.226h1.378
							 M16.458,101.226h2.891 M14.601,101.197h1.304 M16.571,101.197h2.78 M14.605,101.169h1.229 M16.614,101.169h2.739
							 M14.608,101.14h1.198 M16.656,101.14h2.698 M14.612,101.112h1.166 M16.699,101.112h2.657 M14.615,101.084h1.134
							 M16.741,101.084h2.616 M14.624,101.056h1.097 M16.764,101.056h2.595 M14.632,101.027h1.061 M16.787,101.027h2.574
							 M14.64,100.999h1.024 M16.81,100.999h2.553 M14.648,100.97h0.998 M16.832,100.97h2.532 M14.656,100.942h0.971
							 M16.855,100.942h2.511 M14.664,100.913h0.943 M16.864,100.913h2.503 M14.672,100.886h0.926 M16.874,100.886h2.496
							 M14.689,100.856h0.899 M16.883,100.856h2.488 M14.706,100.828h0.873 M16.893,100.828h2.48 M14.723,100.8h0.856 M16.902,100.8
							h2.472 M14.74,100.772h0.839 M16.912,100.772h2.464 M14.757,100.743h0.822 M16.912,100.743h2.466 M14.774,100.716h0.805
							 M16.912,100.716h2.46 M14.791,100.687h0.797 M16.912,100.687h2.456 M14.808,100.658h0.79 M16.912,100.658h2.45
							 M14.825,100.63h0.782 M16.912,100.63h2.445 M14.842,100.601h0.793 M16.912,100.601h2.439 M14.877,100.573h0.787
							 M16.912,100.573h2.434 M14.913,100.546h0.779 M16.901,100.546h2.439 M14.949,100.517h0.772 M16.89,100.517h2.445
							 M14.984,100.488h0.766 M16.879,100.488h2.45 M15.021,100.46h0.756 M16.869,100.46h2.456 M15.06,100.431h0.803
							 M16.858,100.431h2.461 M15.097,100.403h0.822 M16.848,100.403h2.466 M15.168,100.374h0.808 M16.837,100.374h2.472
							 M15.239,100.347h0.765 M16.827,100.347h2.477 M15.381,100.318h0.567 M16.798,100.318h2.5 M16.77,100.29h2.523
							 M16.741,100.261h2.542 M16.713,100.233h2.561 M16.685,100.205h2.58 M16.656,100.177h2.599 M16.628,100.147h2.618
							 M16.603,100.12h2.633 M16.578,100.093h2.649 M16.552,100.063h2.665 M16.527,100.035h2.68 M16.502,100.007h2.696
							 M16.477,99.978h2.712 M16.452,99.95h2.728 M16.426,99.922h2.744 M16.401,99.894h2.759 M16.376,99.864h2.774 M16.352,99.836
							h2.781 M16.327,99.808h2.788 M16.302,99.78h2.795 M16.277,99.751h2.801 M16.252,99.724h2.808 M16.228,99.694h2.815
							 M16.203,99.666h1.984 M18.272,99.666h0.752 M16.187,99.638h1.887 M18.357,99.638h0.649 M16.171,99.609h1.789 M18.386,99.609
							h0.603 M16.156,99.581h1.748 M18.414,99.581h0.557 M16.14,99.554h1.707 M18.442,99.554h0.51 M16.124,99.524h1.68
							 M18.457,99.524h0.471 M16.108,99.496h1.653 M18.471,99.496h0.432 M16.093,99.468h1.631 M18.48,99.468h0.397 M16.077,99.439
							h1.61 M18.489,99.439h0.362 M16.061,99.411h1.587 M18.499,99.411h0.328 M16.055,99.382h1.565 M18.499,99.382h0.302
							 M16.048,99.354h1.543 M18.499,99.354h0.277 M16.042,99.327h1.521 M18.499,99.327h0.252 M16.036,99.298h1.499 M18.499,99.298
							h0.227 M16.03,99.27h1.477 M18.499,99.27h0.181 M16.023,99.241h1.455 M18.499,99.241h0.136 M16.017,99.212h1.442
							 M18.499,99.212h0.091 M16.011,99.185h1.43 M18.499,99.185h0.045 M16.004,99.156h1.417 M16.004,99.128h1.398 M16.004,99.1
							h1.379 M16.004,99.071h1.361 M16.004,99.042h1.354 M16.004,99.015h1.346 M16.004,98.985h1.339 M16.004,98.958h1.333
							 M16.004,98.93h1.333 M16.014,98.901h1.323 M16.023,98.872h1.313 M16.033,98.845h1.304 M16.042,98.815h1.295 M16.052,98.788
							h1.285 M16.061,98.759h1.285 M16.07,98.731h1.285 M16.08,98.702h1.285 M16.089,98.674h1.29 M16.107,98.646h1.286
							 M16.125,98.618h1.287 M16.143,98.589h1.289 M16.16,98.562h1.29 M16.178,98.532h1.31 M16.196,98.504h1.33 M16.213,98.476h1.35
							 M16.231,98.447h1.389 M16.268,98.419h1.409 M16.304,98.392h1.514 M18.159,98.392h0.028 M16.34,98.362h1.818 M16.377,98.334
							h1.744 M16.414,98.306h1.669 M16.45,98.277h1.596 M16.486,98.249h1.502 M16.538,98.22h1.394 M16.59,98.192h1.285
							 M16.642,98.165h1.176 M16.694,98.136h1.067 M16.746,98.107h0.959 M16.798,98.079h0.85 M16.954,98.05h0.567"/>
					</g>
				</g>
			</g>
			<g>
				<title>element:STANDOFF1</title>
				<g>
					<title>package:STAND-OFF</title>
				</g>
			</g>
			<g>
				<title>element:STANDOFF2</title>
				<g>
					<title>package:STAND-OFF</title>
				</g>
			</g>
			<g>
				<title>element:STANDOFF3</title>
				<g>
					<title>package:STAND-OFF</title>
				</g>
			</g>
			<g>
				<title>element:STANDOFF4</title>
				<g>
					<title>package:STAND-OFF</title>
				</g>
			</g>
			<g>
				<title>element:U$7</title>
				<g>
					<title>package:OSHW-LOGO-S</title>
				</g>
			</g>
		</g>
		<circle id="connector0pin" fill="none" stroke="#9A916C" stroke-width="1.224" cx="61.2" cy="70.215" r="2.052"/>
		<circle id="connector1pin" fill="none" stroke="#9A916C" stroke-width="1.224" cx="61.2" cy="77.414" r="2.052"/>
		<circle id="connector2pin" fill="none" stroke="#9A916C" stroke-width="1.224" cx="61.2" cy="84.615" r="2.052"/>
		<circle id="connector3pin" fill="none" stroke="#9A916C" stroke-width="1.224" cx="46.799" cy="70.215" r="2.052"/>
		<circle id="connector4pin" fill="none" stroke="#9A916C" stroke-width="1.224" cx="46.799" cy="77.414" r="2.052"/>
		<circle id="connector5pin" fill="none" stroke="#9A916C" stroke-width="1.224" cx="46.799" cy="84.615" r="2.052"/>
		<circle id="connector6pin" fill="none" stroke="#9A916C" stroke-width="1.224" cx="32.4" cy="70.215" r="2.052"/>
		<circle id="connector7pin" fill="none" stroke="#9A916C" stroke-width="1.224" cx="32.4" cy="77.414" r="2.052"/>
		<circle id="connector8pin" fill="none" stroke="#9A916C" stroke-width="1.224" cx="32.4" cy="84.615" r="2.052"/>
		<circle id="connector9pin" fill="none" stroke="#9A916C" stroke-width="1.224" cx="18" cy="70.215" r="2.052"/>
		<circle id="connector10pin" fill="none" stroke="#9A916C" stroke-width="1.224" cx="18" cy="77.414" r="2.052"/>
		<circle id="connector11pin" fill="none" stroke="#9A916C" stroke-width="1.224" cx="18" cy="84.615" r="2.052"/>
		<circle id="connector12pin" fill="none" stroke="#9A916C" stroke-width="1.224" cx="54" cy="106.214" r="2.052"/>
		<circle id="connector13pin" fill="none" stroke="#9A916C" stroke-width="1.224" cx="46.799" cy="106.214" r="2.052"/>
		<circle id="connector14pin" fill="none" stroke="#9A916C" stroke-width="1.224" cx="39.6" cy="106.214" r="2.052"/>
		<circle id="connector15pin" fill="none" stroke="#9A916C" stroke-width="1.224" cx="32.4" cy="106.214" r="2.052"/>
		<circle id="connector16pin" fill="none" stroke="#9A916C" stroke-width="1.224" cx="25.2" cy="106.214" r="2.052"/>
		<circle id="connector25pin" fill="none" stroke="#9A916C" stroke-width="1.224" cx="75.6" cy="41.414" r="2.052"/>
		<circle id="connector26pin" fill="none" stroke="#9A916C" stroke-width="1.224" cx="75.6" cy="48.615" r="2.052"/>
		<circle id="connector27pin" fill="none" stroke="#9A916C" stroke-width="1.224" cx="75.6" cy="55.814" r="2.052"/>
		<g>
			<rect x="17.197" y="19.636" fill="#1A1A1A" width="43.775" height="32.671"/>
			<g>
				<g enable-background="new    ">
					<g>
						<polyline fill="#B3B3B3" points="59.815,2.654 59.815,5.547 50.123,5.547 50.123,2.654 59.815,2.654 						"/>
						<polyline fill="#B3B3B3" points="59.815,5.547 59.815,19.52 18.351,19.52 18.351,13.895 18.351,13.554 18.343,13.554 
							18.343,11.361 18.351,11.361 18.351,11.015 18.351,5.547 28.044,5.547 18.351,5.547 18.351,2.654 28.044,2.654 33.707,2.654 
							33.707,2.304 44.461,2.304 44.461,2.654 50.123,2.654 50.123,5.547 59.815,5.547 						"/>
						<polyline fill="#B3B3B3" points="17.201,20.056 60.976,20.056 60.976,1.97 17.201,1.97 17.201,1.975 60.976,1.975 
							60.976,2.199 17.201,2.199 17.64,2.199 17.64,8.004 17.201,8.004 17.201,20.056 						"/>
						<polyline fill="#333333" points="19.289,11.361 19.289,5.902 28.738,5.902 28.738,5.188 28.765,5.188 28.765,4.566 
							33.707,4.566 33.707,2.906 33.707,2.654 28.044,2.654 28.044,5.547 18.351,5.547 18.351,11.015 19.289,11.015 19.289,11.361 
													"/>
						<polyline fill="#333333" points="18.351,19.52 59.815,19.52 59.815,5.547 50.123,5.547 50.123,2.654 44.461,2.654 
							44.461,4.566 49.402,4.566 49.402,5.188 49.429,5.188 49.429,5.902 58.871,5.902 58.871,11.015 59.815,11.015 59.815,13.895 
							58.871,13.895 58.871,19.013 52.669,19.013 51.418,19.013 51.032,19.013 50.789,19.013 50.599,19.013 50.221,19.013 
							50.023,19.013 49.781,19.013 49.429,19.013 48.178,19.013 47.792,19.013 47.548,19.013 47.359,19.013 46.981,19.013 
							46.784,19.013 46.541,19.013 46.189,19.013 44.938,19.013 44.551,19.013 44.308,19.013 44.11,19.013 43.742,19.013 
							43.552,19.013 43.3,19.013 42.949,19.013 41.699,19.013 41.311,19.013 41.068,19.013 40.871,19.013 40.501,19.013 
							40.312,19.013 40.06,19.013 39.709,19.013 38.459,19.013 38.072,19.013 37.82,19.013 37.63,19.013 37.261,19.013 
							37.064,19.013 36.82,19.013 36.468,19.013 35.218,19.013 34.832,19.013 34.58,19.013 34.39,19.013 34.021,19.013 
							33.824,19.013 33.58,19.013 33.23,19.013 31.978,19.013 31.591,19.013 31.347,19.013 31.15,19.013 30.773,19.013 
							30.583,19.013 30.339,19.013 29.99,19.013 28.738,19.013 28.351,19.013 28.109,19.013 27.91,19.013 27.533,19.013 
							27.343,19.013 27.099,19.013 26.75,19.013 25.498,19.013 19.289,19.013 19.289,13.554 19.289,13.895 18.351,13.895 
							18.351,19.52 						"/>
						<polyline points="49.402,4.57 49.402,5.188 28.775,5.188 28.775,4.57 49.402,4.57 						"/>
						<polyline points="52.669,5.902 52.669,9.822 51.418,9.822 51.418,5.902 52.669,5.902 						"/>
						<polyline points="46.189,5.188 46.189,9.822 44.938,9.822 44.938,5.188 46.189,5.188 						"/>
						<polyline points="42.949,5.188 42.949,9.822 41.699,9.822 41.699,5.188 42.949,5.188 						"/>
						<polyline points="39.709,5.188 39.709,9.822 38.459,9.822 38.459,5.188 39.709,5.188 						"/>
						<polyline points="36.468,5.188 36.468,9.822 35.218,9.822 35.218,5.188 36.468,5.188 						"/>
						<polyline points="33.23,5.188 33.23,9.822 31.978,9.822 31.978,5.188 33.23,5.188 						"/>
						<polyline points="26.75,5.902 26.75,9.822 25.498,9.822 25.498,5.902 26.75,5.902 						"/>
						<polyline points="19.289,19.013 25.498,19.013 25.498,10.16 26.75,10.16 26.75,19.013 27.099,19.013 27.099,11.55 
							28.351,11.55 28.351,19.013 28.738,19.013 28.738,10.16 29.99,10.16 29.99,19.013 30.339,19.013 30.339,11.55 31.591,11.55 
							31.591,19.013 31.978,19.013 31.978,10.16 33.23,10.16 33.23,19.013 33.58,19.013 33.58,11.55 34.832,11.55 34.832,19.013 
							35.218,19.013 35.218,10.16 36.468,10.16 36.468,19.013 36.82,19.013 36.82,11.55 38.072,11.55 38.072,19.013 38.459,19.013 
							38.459,10.16 39.709,10.16 39.709,19.013 40.06,19.013 40.06,11.55 41.311,11.55 41.311,19.013 41.699,19.013 41.699,10.16 
							42.949,10.16 42.949,19.013 43.3,19.013 43.3,11.55 44.551,11.55 44.551,19.013 44.938,19.013 44.938,10.16 46.189,10.16 
							46.189,19.013 46.541,19.013 46.541,11.55 47.792,11.55 47.792,19.013 48.178,19.013 48.178,10.16 49.429,10.16 
							49.429,19.013 49.781,19.013 49.781,11.55 51.032,11.55 51.032,19.013 51.418,19.013 51.418,10.16 52.669,10.16 
							52.669,19.013 58.871,19.013 58.871,13.895 58.871,13.554 58.69,13.554 58.448,13.554 58.321,13.554 58.177,13.554 
							57.934,13.554 57.934,11.361 58.871,11.361 58.871,11.015 58.871,5.902 49.429,5.902 49.429,9.822 48.178,9.822 48.178,5.188 
							49.402,5.188 49.402,4.566 44.461,4.566 44.461,2.654 44.461,2.906 33.707,2.906 33.707,4.566 28.765,4.566 28.765,5.188 
							29.99,5.188 29.99,9.822 28.738,9.822 28.738,5.902 19.289,5.902 19.289,11.361 20.234,11.361 20.234,13.554 19.992,13.554 
							19.845,13.554 19.71,13.554 19.476,13.554 19.289,13.554 19.289,19.013 						"/>
						<polyline fill="#1A1A1A" points="28.775,5.188 49.402,5.188 49.402,4.57 28.775,4.57 28.775,5.188 						"/>
						<polyline fill="#1A1A1A" points="33.707,2.906 44.461,2.906 44.461,2.654 44.461,2.304 33.707,2.304 33.707,2.654 
							33.707,2.906 						"/>
						<polyline points="18.351,11.361 19.289,11.361 19.289,11.015 18.351,11.015 18.351,11.361 						"/>
						<polyline points="18.351,13.895 19.289,13.895 19.289,13.554 19.224,13.554 18.351,13.554 18.351,13.895 						"/>
						<polyline points="58.871,13.895 59.815,13.895 59.815,11.015 58.871,11.015 58.871,11.361 59.815,11.361 59.815,13.554 
							58.942,13.554 58.871,13.554 58.871,13.895 						"/>
						<polyline fill="#CCCCCC" points="18.343,13.554 18.351,13.554 19.224,13.554 19.224,11.361 20.234,11.361 20.234,13.554 
							20.234,11.361 19.289,11.361 18.351,11.361 18.343,11.361 18.343,13.554 						"/>
						<polyline fill="#B3B3B3" points="19.224,13.554 19.289,13.554 19.476,13.554 19.476,11.361 20.234,11.361 20.234,13.554 
							20.234,11.361 19.224,11.361 19.224,13.554 						"/>
						<polyline fill="#999999" points="19.476,13.554 19.71,13.554 19.71,11.361 20.234,11.361 20.234,13.554 20.234,11.361 
							19.476,11.361 19.476,13.554 						"/>
						<polyline fill="#808080" points="19.71,13.554 19.845,13.554 19.845,11.361 19.992,11.361 19.992,13.554 20.234,13.554 
							20.234,11.361 19.71,11.361 19.71,13.554 						"/>
						<polyline fill="#CCCCCC" points="19.845,13.554 19.992,13.554 19.992,11.361 19.845,11.361 19.845,13.554 						"/>
						<polyline fill="#CCCCCC" points="58.942,13.554 59.815,13.554 59.815,11.361 58.871,11.361 57.934,11.361 58.942,11.361 
							58.942,13.554 						"/>
						<polyline fill="#B3B3B3" points="58.69,13.554 58.871,13.554 58.942,13.554 58.942,11.361 57.934,11.361 58.69,11.361 
							58.69,13.554 						"/>
						<polyline fill="#999999" points="58.448,13.554 58.69,13.554 58.69,11.361 57.934,11.361 58.448,11.361 58.448,13.554 						
							"/>
						<polyline fill="#808080" points="57.934,13.554 58.177,13.554 58.177,11.361 58.321,11.361 58.321,13.554 58.448,13.554 
							58.448,11.361 57.934,11.361 57.934,13.554 						"/>
						<polyline fill="#CCCCCC" points="58.177,13.554 58.321,13.554 58.321,11.361 58.177,11.361 58.177,13.554 						"/>
						<polyline fill="#0F0F0F" points="25.498,9.822 26.75,9.822 26.75,5.902 25.498,5.902 25.498,9.822 						"/>
						<polyline fill="#252525" points="28.738,5.902 28.765,5.902 28.765,5.188 28.738,5.188 28.738,5.902 						"/>
						<polyline fill="#0F0F0F" points="28.738,9.822 29.99,9.822 29.99,5.188 28.765,5.188 28.765,5.902 28.738,5.902 28.738,9.822 
													"/>
						<polyline fill="#0F0F0F" points="31.978,9.822 33.23,9.822 33.23,5.188 31.978,5.188 31.978,9.822 						"/>
						<polyline fill="#0F0F0F" points="35.218,9.822 36.468,9.822 36.468,5.188 35.218,5.188 35.218,9.822 						"/>
						<polyline fill="#0F0F0F" points="38.459,9.822 39.709,9.822 39.709,5.188 38.459,5.188 38.459,9.822 						"/>
						<polyline fill="#0F0F0F" points="41.699,9.822 42.949,9.822 42.949,5.188 41.699,5.188 41.699,9.822 						"/>
						<polyline fill="#0F0F0F" points="44.938,9.822 46.189,9.822 46.189,5.188 44.938,5.188 44.938,9.822 						"/>
						<polyline fill="#252525" points="49.402,5.902 49.429,5.902 49.429,5.188 49.402,5.188 49.402,5.902 						"/>
						<polyline fill="#0F0F0F" points="48.178,9.822 49.429,9.822 49.429,5.902 49.402,5.902 49.402,5.188 48.178,5.188 
							48.178,9.822 						"/>
						<polyline fill="#0F0F0F" points="51.418,9.822 52.669,9.822 52.669,5.902 51.418,5.902 51.418,9.822 						"/>
						<polyline fill="#0D0D0D" points="25.498,19.013 26.75,19.013 26.75,10.16 25.498,10.16 25.498,19.013 						"/>
						<polyline fill="#0D0D0D" points="28.738,19.013 29.99,19.013 29.99,10.16 28.738,10.16 28.738,19.013 						"/>
						<polyline fill="#0D0D0D" points="31.978,19.013 33.23,19.013 33.23,10.16 31.978,10.16 31.978,19.013 						"/>
						<polyline fill="#0D0D0D" points="35.218,19.013 36.468,19.013 36.468,10.16 35.218,10.16 35.218,19.013 						"/>
						<polyline fill="#0D0D0D" points="38.459,19.013 39.709,19.013 39.709,10.16 38.459,10.16 38.459,19.013 						"/>
						<polyline fill="#0D0D0D" points="41.699,19.013 42.949,19.013 42.949,10.16 41.699,10.16 41.699,19.013 						"/>
						<polyline fill="#0D0D0D" points="44.938,19.013 46.189,19.013 46.189,10.16 44.938,10.16 44.938,19.013 						"/>
						<polyline fill="#0D0D0D" points="48.178,19.013 49.429,19.013 49.429,10.16 48.178,10.16 48.178,19.013 						"/>
						<polyline fill="#0D0D0D" points="51.418,19.013 52.669,19.013 52.669,10.16 51.418,10.16 51.418,19.013 						"/>
						<polyline fill="#6F4813" points="27.099,19.013 27.343,19.013 27.343,11.55 28.109,11.55 28.109,19.013 28.351,19.013 
							28.351,11.55 27.099,11.55 27.099,19.013 						"/>
						<polyline fill="#6F4813" points="30.339,19.013 30.583,19.013 30.583,11.55 31.347,11.55 31.347,19.013 31.591,19.013 
							31.591,11.55 30.339,11.55 30.339,19.013 						"/>
						<polyline fill="#6F4813" points="33.58,19.013 33.824,19.013 33.824,11.55 34.58,11.55 34.58,19.013 34.832,19.013 
							34.832,11.55 33.58,11.55 33.58,19.013 						"/>
						<polyline fill="#6F4813" points="36.82,19.013 37.064,19.013 37.064,11.55 37.82,11.55 37.82,19.013 38.072,19.013 
							38.072,11.55 36.82,11.55 36.82,19.013 						"/>
						<polyline fill="#6F4813" points="40.06,19.013 40.312,19.013 40.312,11.55 41.068,11.55 41.068,19.013 41.311,19.013 
							41.311,11.55 40.06,11.55 40.06,19.013 						"/>
						<polyline fill="#6F4813" points="43.3,19.013 43.552,19.013 43.552,11.55 44.308,11.55 44.308,19.013 44.551,19.013 
							44.551,11.55 43.3,11.55 43.3,19.013 						"/>
						<polyline fill="#6F4813" points="46.541,19.013 46.784,19.013 46.784,11.55 47.548,11.55 47.548,19.013 47.792,19.013 
							47.792,11.55 46.541,11.55 46.541,19.013 						"/>
						<polyline fill="#6F4813" points="49.781,19.013 50.023,19.013 50.023,11.55 50.789,11.55 50.789,19.013 51.032,19.013 
							51.032,11.55 49.781,11.55 49.781,19.013 						"/>
						<polyline fill="#78592E" points="27.343,19.013 27.533,19.013 27.533,11.55 27.91,11.55 27.91,19.013 28.109,19.013 
							28.109,11.55 27.343,11.55 27.343,19.013 						"/>
						<polyline fill="#78592E" points="30.583,19.013 30.773,19.013 30.773,11.55 31.15,11.55 31.15,19.013 31.347,19.013 
							31.347,11.55 30.583,11.55 30.583,19.013 						"/>
						<polyline fill="#78592E" points="33.824,19.013 34.021,19.013 34.021,11.55 34.39,11.55 34.39,19.013 34.58,19.013 
							34.58,11.55 33.824,11.55 33.824,19.013 						"/>
						<polyline fill="#78592E" points="37.064,19.013 37.261,19.013 37.261,11.55 37.63,11.55 37.63,19.013 37.82,19.013 
							37.82,11.55 37.064,11.55 37.064,19.013 						"/>
						<polyline fill="#78592E" points="40.312,19.013 40.501,19.013 40.501,11.55 40.871,11.55 40.871,19.013 41.068,19.013 
							41.068,11.55 40.312,11.55 40.312,19.013 						"/>
						<polyline fill="#78592E" points="43.552,19.013 43.742,19.013 43.742,11.55 44.11,11.55 44.11,19.013 44.308,19.013 
							44.308,11.55 43.552,11.55 43.552,19.013 						"/>
						<polyline fill="#78592E" points="46.784,19.013 46.981,19.013 46.981,11.55 47.359,11.55 47.359,19.013 47.548,19.013 
							47.548,11.55 46.784,11.55 46.784,19.013 						"/>
						<polyline fill="#78592E" points="50.023,19.013 50.221,19.013 50.221,11.55 50.599,11.55 50.599,19.013 50.789,19.013 
							50.789,11.55 50.023,11.55 50.023,19.013 						"/>
						<polyline fill="#81694A" points="27.533,19.013 27.91,19.013 27.91,11.55 27.533,11.55 27.533,19.013 						"/>
						<polyline fill="#81694A" points="30.773,19.013 31.15,19.013 31.15,11.55 30.773,11.55 30.773,19.013 						"/>
						<polyline fill="#81694A" points="34.021,19.013 34.39,19.013 34.39,11.55 34.021,11.55 34.021,19.013 						"/>
						<polyline fill="#81694A" points="37.261,19.013 37.63,19.013 37.63,11.55 37.261,11.55 37.261,19.013 						"/>
						<polyline fill="#81694A" points="40.501,19.013 40.871,19.013 40.871,11.55 40.501,11.55 40.501,19.013 						"/>
						<polyline fill="#81694A" points="43.742,19.013 44.11,19.013 44.11,11.55 43.742,11.55 43.742,19.013 						"/>
						<polyline fill="#81694A" points="46.981,19.013 47.359,19.013 47.359,11.55 46.981,11.55 46.981,19.013 						"/>
						<polyline fill="#81694A" points="50.221,19.013 50.599,19.013 50.599,11.55 50.221,11.55 50.221,19.013 						"/>
						<polyline fill="#999999" points="17.201,2.199 60.976,2.199 60.976,1.975 17.201,1.975 17.201,2.199 						"/>
						<polyline fill="#999999" points="17.201,8.004 17.64,8.004 17.64,2.199 17.201,2.199 17.201,8.004 						"/>
					</g>
				</g>
			</g>
			<g>
				<path fill="#B3B3B3" d="M50.137,29.386c0,0.396-0.324,0.719-0.724,0.719h-2.649c-0.396,0-0.724-0.323-0.724-0.719v-9.449
					c0-0.396,0.323-0.719,0.724-0.719h2.649c0.396,0,0.724,0.323,0.724,0.719V29.386z"/>
				<path fill="#B3B3B3" d="M32.13,29.386c0,0.396-0.324,0.719-0.727,0.719h-2.646c-0.396,0-0.727-0.323-0.727-0.719v-9.449
					c0-0.396,0.324-0.719,0.727-0.719h2.646c0.396,0,0.727,0.323,0.727,0.719V29.386z"/>
				<path fill="#CCCCCC" d="M50.137,29.386c0,0.396-0.324,0.719-0.724,0.719h-2.649c-0.396,0-0.724-0.323-0.724-0.719v-1.168h4.098
					L50.137,29.386L50.137,29.386z"/>
				<path fill="#CCCCCC" d="M32.13,29.386c0,0.396-0.324,0.719-0.727,0.719h-2.646c-0.396,0-0.727-0.323-0.727-0.719v-1.168h4.1
					V29.386z"/>
				<rect x="46.04" y="24.341" fill="#999999" width="4.098" height="4.063"/>
				<rect x="28.031" y="24.341" fill="#999999" width="4.1" height="4.063"/>
				<rect x="46.04" y="21.968" fill="#B3B3B3" width="4.098" height="3.875"/>
				<rect x="28.031" y="21.968" fill="#B3B3B3" width="4.1" height="3.875"/>
				<rect x="46.04" y="22.592" fill="#CCCCCC" width="4.098" height="1.469"/>
				<rect x="28.031" y="22.592" fill="#CCCCCC" width="4.1" height="1.469"/>
				<rect x="46.04" y="28.248" fill="#E6E6E6" width="4.098" height="0.311"/>
				<rect x="46.037" y="28.617" fill="#F2F2F2" width="4.098" height="0.488"/>
				<path fill="#CCCCCC" d="M17.195,30.484v27.602v0.72h0.721H60.25h0.722v-0.72V30.484h-0.288V20.055h-0.436h-8.627h-0.721
					l-0.047,0.717l-0.336,5.104l-0.336,5.104c-0.026,0.395-0.372,0.718-0.771,0.718h-2.666c-0.396,0-0.738-0.323-0.769-0.718
					l-0.336-5.104l-0.336-5.104l0,0l-0.048-0.717h-0.724H33.615h-0.721l-0.049,0.717l0,0L32.5,25.875l-0.35,5.105
					c-0.021,0.395-0.373,0.717-0.768,0.717h-2.629c-0.396,0-0.74-0.322-0.771-0.717l-0.346-5.105l-0.344-5.104l0,0l-0.049-0.717
					h-0.719h-8.627h-0.43v10.43L17.195,30.484L17.195,30.484z"/>
			</g>
			<rect x="57.498" y="20.056" opacity="0.37" fill="#E6E6E6" enable-background="new    " width="3.475" height="38.751"/>
			<rect x="17.193" y="20.056" opacity="0.37" fill="#808080" enable-background="new    " width="3.473" height="38.751"/>
			<path opacity="0.45" fill="#E6E6E6" enable-background="new    " d="M48.09,20.056h2.047c0,0,0,8.853,0,9.33
				c0,0.479-0.433,0.721-0.724,0.721s-1.323,0-1.323,0V20.056z"/>
			<path opacity="0.45" fill="#E6E6E6" enable-background="new    " d="M30.083,20.056h2.043c0,0,0,8.853,0,9.33
				c0,0.479-0.428,0.721-0.719,0.721s-1.324,0-1.324,0V20.056L30.083,20.056z"/>
			<path opacity="0.45" fill="#B3B3B3" enable-background="new    " d="M30.08,20.056h-2.049c0,0,0,8.853,0,9.33
				c0,0.479,0.436,0.721,0.727,0.721s1.322,0,1.322,0V20.056z"/>
			<path opacity="0.45" fill="#B3B3B3" enable-background="new    " d="M48.09,20.056H46.04c0,0,0,8.853,0,9.33
				c0,0.479,0.433,0.721,0.724,0.721s1.327,0,1.327,0V20.056z"/>
			<rect x="46.04" y="23.029" opacity="0.76" fill="#E6E6E6" enable-background="new    " width="4.098" height="0.813"/>
			<rect x="28.031" y="23.029" opacity="0.76" fill="#E6E6E6" enable-background="new    " width="4.1" height="0.813"/>
			<rect x="28.031" y="28.248" opacity="0.76" fill="#E6E6E6" enable-background="new    " width="4.1" height="0.311"/>
			<rect x="28.031" y="28.591" opacity="0.76" fill="#F2F2F2" enable-background="new    " width="4.096" height="0.409"/>
			<g>
				<g>
					<rect x="61.771" y="15.496" fill="#999999" width="0.386" height="1.699"/>
					<rect x="61.771" y="15.496" fill="#999999" width="0.386" height="1.699"/>
				</g>
				<path fill="#999999" d="M60.976,10.754c0,0,0.658,2.99,0.783,4.74h0.397c-0.125-1.75-0.782-4.74-0.782-4.74
					s-0.254-1.497-0.397-1.903C60.976,9.82,60.976,10.754,60.976,10.754z"/>
				<path fill="#CCCCCC" d="M60.976,12.441c0,0,0.669,3.004,0.794,4.754h0.398c-0.125-1.75-0.794-4.754-0.794-4.754
					s-0.254-1.496-0.397-1.902C60.976,11.507,60.976,12.441,60.976,12.441z"/>
			</g>
			<g>
				<g>
					<rect x="16.011" y="15.496" fill="#999999" width="0.385" height="1.699"/>
					<rect x="16.011" y="15.496" fill="#999999" width="0.385" height="1.699"/>
				</g>
				<path fill="#999999" d="M17.191,10.754c0,0-0.656,2.99-0.781,4.74h-0.396c0.125-1.75,0.781-4.74,0.781-4.74
					s0.254-1.497,0.396-1.903C17.191,9.82,17.191,10.754,17.191,10.754z"/>
				<path fill="#CCCCCC" d="M17.191,12.441c0,0-0.67,3.004-0.795,4.754H16c0.125-1.75,0.795-4.754,0.795-4.754
					s0.254-1.496,0.396-1.902C17.191,11.507,17.191,12.441,17.191,12.441z"/>
			</g>
		</g>
	</g>
</g>
</svg>
