<?xml version='1.0' encoding='UTF-8' standalone='no'?>
<svg xmlns="http://www.w3.org/2000/svg"  x="0px" id="Ebene_1" xmlns:xml="http://www.w3.org/XML/1998/namespace" viewBox="0 0 37.440042 52.795318" gorn="0" height="0.73326832in" xml:space="preserve" width="0.51999998in" y="0px" version="1.2">
    <metadata  id="metadata89">
        <rdf:RDF xmlns:rdf="http://www.w3.org/1999/02/22-rdf-syntax-ns#">
            <cc:Work rdf:about="" xmlns:rdf="http://www.w3.org/1999/02/22-rdf-syntax-ns#" xmlns:cc="http://creativecommons.org/ns#">
                <dc:format xmlns:dc="http://purl.org/dc/elements/1.1/">image/svg+xml</dc:format>
                <dc:type xmlns:rdf="http://www.w3.org/1999/02/22-rdf-syntax-ns#" rdf:resource="http://purl.org/dc/dcmitype/StillImage" xmlns:dc="http://purl.org/dc/elements/1.1/"/>
                <dc:title xmlns:dc="http://purl.org/dc/elements/1.1/"/>
            </cc:Work>
        </rdf:RDF>
    </metadata>
    <defs  id="defs87"/>
    <desc  id="desc2">
        <referenceFile >LM2575_49c3e5efdf04a40682409de596550173_1_breadboard.svg</referenceFile>
    </desc>
    <g  id="breadboard" gorn="0.3">
        <path d="m 4.2388128,44.499966 v 7.2" fill="none"  id="path4" stroke-linecap="round" gorn="0.3.0" stroke="#8c8c8c" stroke-width="2.16000009" stroke-linejoin="round"/>
        <path d="m 11.43882,44.499966 v 7.2" fill="none"  id="path6" stroke-linecap="round" gorn="0.3.1" stroke="#8c8c8c" stroke-width="2.16000009" stroke-linejoin="round"/>
        <path d="m 18.638828,44.499966 v 7.2" fill="none"  id="path8" stroke-linecap="round" gorn="0.3.2" stroke="#8c8c8c" stroke-width="2.16000009" stroke-linejoin="round"/>
        <path d="m 25.838838,44.499966 v 7.2" fill="none"  id="path10" stroke-linecap="round" gorn="0.3.3" stroke="#8c8c8c" stroke-width="2.16000009" stroke-linejoin="round"/>
        <path d="m 33.038846,44.499966 v 7.2" fill="none"  id="path12" stroke-linecap="round" gorn="0.3.4" stroke="#8c8c8c" stroke-width="2.16000009" stroke-linejoin="round"/>
        <rect fill="none"  x="3.0960035" id="connector0pin" gorn="0.3.5" height="2.1600025" width="2.1600025" y="50.635345" stroke-width="0.99999988"/>
        <rect fill="none"  x="10.296012" id="connector1pin" gorn="0.3.6" height="2.1600025" width="2.1600025" y="50.635338" stroke-width="1"/>
        <rect fill="none"  x="17.496019" id="connector2pin" gorn="0.3.7" height="2.1600025" width="2.1600025" y="50.635338" stroke-width="1"/>
        <rect fill="none"  x="24.696028" id="connector3pin" gorn="0.3.8" height="2.1600025" width="2.1600025" y="50.635338" stroke-width="1"/>
        <rect fill="none"  x="31.896036" id="connector4pin" gorn="0.3.9" height="2.1600025" width="2.1600025" y="50.635338" stroke-width="1"/>
        <path d="M 33.921243,-3.1836454e-5 H 18.720025 V 1.7999682 c 4.363314,0 8.022866,1.8 8.022866,4 0,2.2 -3.518801,3.9999988 -8.022866,3.9999988 v 5.8 h 15.201218 z" fill="#bfbcbc"  id="path24" gorn="0.3.10" stroke-width="1"/>
        <path d="m 10.697161,5.7999682 c 0,-2.2 3.518801,-4 8.022864,-4 V -3.1836454e-5 H 3.5188089 V 15.599967 H 18.720025 v -5.8 c -4.504063,0 -8.022864,-1.7999988 -8.022864,-3.9999988 z" fill="#808080"  id="path26" gorn="0.3.11" stroke-width="1"/>
        <rect fill="#8c8c8c"  x="2.6905451" id="rect4" gorn="0.3.12" height="11.4" width="3.0965443" y="33.199959" stroke-width="1"/>
        <rect fill="#8c8c8c"  x="9.8905449" id="rect6" gorn="0.3.13" height="11.4" width="3.0965443" y="33.199959" stroke-width="1"/>
        <rect fill="#8c8c8c"  x="31.490576" id="rect8" gorn="0.3.14" height="11.4" width="3.0965443" y="33.199959" stroke-width="1"/>
        <g  transform="matrix(1.4075201,0,0,1,245.75301,-258.10002)">
            <g >
                <g >
                    <g >
                        <g >
                            <g >
                                <g >
                                    <g >
                                        <g >
                                            <g >
                                                <g >
                                                    <polygon fill="#cccccc"  points="-172.1,270.6 -172.1,258.1 -174.6,261 -174.6,270.6 " id="polygon10" gorn="0.3.15.0.0.0.0.0.0.0.0.0.0.0" stroke-width="0.84289354"/>
                                                </g>
                                            </g>
                                        </g>
                                    </g>
                                </g>
                            </g>
                        </g>
                    </g>
                </g>
            </g>
        </g>
        <g  transform="matrix(1.4075201,0,0,1,245.75301,-258.10002)">
            <g >
                <g >
                    <g >
                        <g >
                            <g >
                                <g >
                                    <g >
                                        <g >
                                            <g >
                                                <g >
                                                    <polygon fill="#999999"  points="-150.5,270.6 -148,270.6 -148,261 -150.5,258.1 " id="polygon12" gorn="0.3.16.0.0.0.0.0.0.0.0.0.0.0" stroke-width="0.84289354"/>
                                                </g>
                                            </g>
                                        </g>
                                    </g>
                                </g>
                            </g>
                        </g>
                    </g>
                </g>
            </g>
        </g>
        <g  transform="matrix(1.4075201,0,0,1,246.47301,-258.10002)">
            <g >
                <g >
                    <g >
                        <g >
                            <g >
                                <g >
                                    <g >
                                        <g >
                                            <g >
                                                <g >
                                                    <polygon fill="#8c8c8c"  points="-174.6,289.8 -169.6,289.8 -169.6,298.6 -171.2,299.3 -173,299.3 -174.6,298.6 " id="polygon21" gorn="0.3.17.0.0.0.0.0.0.0.0.0.0.0" stroke-width="0.84289354"/>
                                                </g>
                                            </g>
                                        </g>
                                    </g>
                                </g>
                            </g>
                        </g>
                    </g>
                </g>
            </g>
        </g>
        <g  transform="matrix(1.4075201,0,0,1,246.07241,-258.10002)">
            <g >
                <g >
                    <g >
                        <g >
                            <g >
                                <g >
                                    <g >
                                        <g >
                                            <g >
                                                <g >
                                                    <polygon fill="#8c8c8c"  points="-164.2,289.8 -164.2,298.6 -165.8,299.3 -167.6,299.3 -169.2,298.6 -169.2,289.8 " id="polygon23" gorn="0.3.18.0.0.0.0.0.0.0.0.0.0.0" stroke-width="0.84289354"/>
                                                </g>
                                            </g>
                                        </g>
                                    </g>
                                </g>
                            </g>
                        </g>
                    </g>
                </g>
            </g>
        </g>
        <rect fill="#8c8c8c"  x="17.090565" id="rect6_1_" gorn="0.3.19" height="11.4" width="3.0965443" y="33.199959" stroke-width="1"/>
        <g  transform="matrix(1.4075201,0,0,1,245.67181,-258.10002)">
            <g >
                <g >
                    <g >
                        <g >
                            <g >
                                <g >
                                    <g >
                                        <g >
                                            <g >
                                                <g >
                                                    <polygon fill="#8c8c8c"  points="-158.8,289.8 -158.8,298.6 -160.4,299.3 -162.2,299.3 -163.8,298.6 -163.8,289.8 " id="polygon23_1_" gorn="0.3.20.0.0.0.0.0.0.0.0.0.0.0" stroke-width="0.84289354"/>
                                                </g>
                                            </g>
                                        </g>
                                    </g>
                                </g>
                            </g>
                        </g>
                    </g>
                </g>
            </g>
        </g>
        <rect fill="#8c8c8c"  x="24.431311" id="rect6_2_" gorn="0.3.21" height="11.4" width="3.0965443" y="33.199959" stroke-width="1"/>
        <g  transform="matrix(1.4075201,0,0,1,245.55271,-258.10002)">
            <g >
                <g >
                    <g >
                        <g >
                            <g >
                                <g >
                                    <g >
                                        <g >
                                            <g >
                                                <g >
                                                    <polygon fill="#8c8c8c"  points="-153.5,289.8 -153.5,298.6 -155.2,299.3 -157,299.3 -158.6,298.6 -158.6,289.8 " id="polygon23_2_" gorn="0.3.22.0.0.0.0.0.0.0.0.0.0.0" stroke-width="0.84289354"/>
                                                </g>
                                            </g>
                                        </g>
                                    </g>
                                </g>
                            </g>
                        </g>
                    </g>
                </g>
            </g>
        </g>
        <g  transform="matrix(1.4075201,0,0,1,245.43362,-258.10002)">
            <g >
                <g >
                    <g >
                        <g >
                            <g >
                                <g >
                                    <g >
                                        <g >
                                            <g >
                                                <g >
                                                    <polygon fill="#8c8c8c"  points="-148.4,289.8 -148.4,298.6 -150,299.3 -151.8,299.3 -153.4,298.6 -153.4,289.8 " id="polygon25" gorn="0.3.23.0.0.0.0.0.0.0.0.0.0.0" stroke-width="0.84289354"/>
                                                </g>
                                            </g>
                                        </g>
                                    </g>
                                </g>
                            </g>
                        </g>
                    </g>
                </g>
            </g>
        </g>
        <rect fill="#141414"  x="25.335361" id="rect40" gorn="0.3.24" height="16" width="12.104673" y="22.399967" stroke-width="1"/>
        <rect fill="#333333"  x="0" id="rect42" gorn="0.3.25" height="16" width="12.104673" y="22.399967" stroke-width="1"/>
        <path d="m 8.4314209e-6,28.199967 v 5.2 c 2.8150404685791,0 5.2078245685791,-1.2 5.2078245685791,-2.6 0,-1.4 -2.3927841,-2.6 -5.2078245685791,-2.6 z" fill="#262626"  id="path40_1_" gorn="0.3.26" stroke-width="1"/>
        <path d="m 36.400651,28.199967 c -2.81504,0 -5.207824,1.2 -5.207824,2.6 0,1.4 2.392784,2.6 5.207824,2.6 z"  id="path47" gorn="0.3.27" stroke-width="1"/>
        <path d="m 8.4314209e-6,22.399967 v 7.1 c 2.8150404685791,0 5.2078245685791,1.2 5.2078245685791,2.6 0,1.4 -2.3927841,2.6 -5.2078245685791,2.6 v 3.7 H 37.440044 v -16 z M 37.440044,34.699967 c -2.81504,0 -5.207824,-1.2 -5.207824,-2.6 0,-1.4 2.392784,-2.6 5.207824,-2.6 z" fill="#1a1a1a"  id="path46" gorn="0.3.28" stroke-width="1"/>
        <rect  x="0" id="rect49" gorn="0.3.29" height="3.3" width="37.440033" y="18.999973" stroke-width="1"/>
        <rect fill="#333333"  x="0" id="rect51" gorn="0.3.30" height="4.0999999" width="37.440033" y="14.899968" stroke-width="1"/>
        <rect fill="#b2b2b2"  x="3.5188003" id="connector6pin" gorn="0.3.31" height="3.0999999" width="30.402435" y="-2.5750785e-005" stroke-width="1"/>
        <path d="M 33.921243,2.3999682 H 3.5188089 l -3.5188004685791,2.9 V 14.899967 H 37.440044 V 5.2999682 Z M 18.720025,12.099967 c -4.363312,0 -8.022864,-1.8 -8.022864,-3.9999988 0,-2.2 3.518801,-4 8.022864,-4 4.363314,0 8.022866,1.8 8.022866,4 -0.140753,2.2999988 -3.659552,3.9999988 -8.022866,3.9999988 z" fill="#8c8c8c"  id="path55" gorn="0.3.32" stroke-width="1"/>
        <text fill="#663300"  x="4" id="text176" font-family="Droid Sans" gorn="0.3.33" font-size="8" y="29" stroke-width="1">LM2575</text>
    </g>
</svg>
