<?xml version='1.0' encoding='utf-8'?>
<!DOCTYPE svg>
<!-- Generator: Adobe Illustrator 16.0.0, SVG Export Plug-In . SVG Version: 6.00 Build 0)  -->
<svg xmlns="http://www.w3.org/2000/svg" x="0px" xmlns:xml="http://www.w3.org/XML/1998/namespace" width="2.75597in"  y="0px" viewBox="0 0 198.43 85.04" height="1.18111in" id="Layer_1" gorn="0" xml:space="preserve" enable-background="new 0 0 198.43 85.04" version="1.1">
    <desc >
        <referenceFile >Talon.svg</referenceFile>
    </desc>
    <rect width="198.43"  height="85.04" fill="#414042"/>
    <rect width="16.833"  height="34.333"/>
    <rect width="16.833"  y="50.707" height="34.333"/>
    <rect x="181.596" width="16.834"  height="34.333"/>
    <rect x="181.596" width="16.834"  y="50.707" height="34.333"/>
    <rect x="22" width="154.167"  height="4.667"/>
    <rect x="22" width="154.167"  y="80.5" height="4.666"/>
    <rect x="36" width="134.167"  y="36.667" height="11.667"/>
    <rect x="22" width="154.167"  y="17.167" height="7.833"/>
    <rect x="22" width="154.167"  y="59.666" height="7.834"/>
    <g  transform="matrix(-4.371139e-008 -1 1 -4.371139e-008 14.2798 21.084)">
        <g >
            <g >
                <g >
                    <text font-size="12"  font-family="Droid Sans" fill="#8DC63F">V+</text>
                </g>
            </g>
        </g>
    </g>
    <g  transform="matrix(-4.371139e-008 -1 1 -4.371139e-008 14.2798 78.2354)">
        <g >
            <g >
                <g >
                    <text font-size="12"  font-family="Droid Sans" fill="#8DC63F">GND</text>
                </g>
            </g>
        </g>
    </g>
    <g  transform="matrix(-4.371139e-008 -1 1 -4.371139e-008 192.7793 25)">
        <g >
            <g >
                <g >
                    <text font-size="12"  font-family="Droid Sans" fill="#8DC63F">m+</text>
                </g>
            </g>
        </g>
    </g>
    <g  transform="matrix(-4.371139e-008 -1 1 -4.371139e-008 192.7793 75.1152)">
        <g >
            <g >
                <g >
                    <text font-size="12"  font-family="Droid Sans" fill="#8DC63F">m-</text>
                </g>
            </g>
        </g>
    </g>
    <rect x="195.334" width="3.096"  y="56" height="24.5" id="connector3pin" gorn="0.15" fill="#00A79D"/>
    <rect x="195.334" width="3.096"  y="4.917" height="24.5" id="connector2pin" gorn="0.16" fill="#FFFFFF"/>
    <rect width="3.096"  y="55.791" height="24.5" id="connector1pin" stroke-miterlimit="10" gorn="0.17" stroke="#58595B" stroke-width="1"/>
    <rect width="3.096"  y="4.708" height="24.5" id="connector0pin" gorn="0.18" fill="#ED1C24"/>
    <rect x="23.75" width="8.75"  y="78.235" height="6.931" id="connector4pin" stroke-miterlimit="10" gorn="0.19" stroke="#58595B" stroke-width="1" fill="#FFF200"/>
    <rect x="32.5" width="8.75"  y="78.235" height="6.931" id="connector5pin" stroke-miterlimit="10" gorn="0.20" stroke="#58595B" stroke-width="1" fill="#39B54A"/>
    <rect x="41.25" width="8.75"  y="78.235" height="6.931" id="connector6pin" stroke-miterlimit="10" gorn="0.21" stroke="#58595B" stroke-width="1" fill="#FFF200"/>
    <rect x="50" width="8.75"  y="78.235" height="6.931" id="connector7pin" stroke-miterlimit="10" gorn="0.22" stroke="#58595B" stroke-width="1" fill="#39B54A"/>
</svg>
