<?xml version="1.0" encoding="UTF-8" standalone="no"?>
<!DOCTYPE svg PUBLIC "-//W3C//DTD SVG 1.1//EN" "http://www.w3.org/Graphics/SVG/1.1/DTD/svg11.dtd">
<svg xmlns="http://www.w3.org/2000/svg" version="1.1" viewBox="0 0 168 300" width="16.8mm" height="30mm">


<g  id="breadboard">
<!--
<g transform="translate(84 70)">
	<rect id="connector10terminal" x="-13" y="73.5" fill="none" width="6" height="1"/>
	<rect id="connector1terminal" x="-3" y="73.5" fill="none" width="6" height="1"/>
	<rect id="connector2terminal" x="7" y="73.5" fill="none" width="6" height="1"/>
	
	<line  id="connector10pin" stroke-linecap="round" x1="-10" y1="62.317" x2="-10" y2="72.317" stroke="#8C8C8C" fill="none" stroke-width="6" />
	<line  id="connector1pin" stroke-linecap="round" x1="0" y1="62.317" x2="0" y2="72.317" stroke="#8C8C8C" fill="none" stroke-width="6" />
	<line  id="connector2pin" stroke-linecap="round" x1="10" y1="62.317" x2="10" y2="72.317" stroke="#8C8C8C" fill="none" stroke-width="6" />
</g>
-->
<g transform="translate(136.5 204.5) rotate(180)">
<!--
		<g transform="translate(52.5 0)" fill="none">
			<rect id="connector2terminal" x="-13" y="60" width="6" height="1"/>
			<rect id="connector1terminal" x="-3" y="60" width="6" height="1"/>
			<rect id="connector10terminal" x="7" y="60" width="6" height="1"/>
			<line id="connector2pin" x1="-10" x2="-10" y1="62.317" y2="72.317" stroke="#8C8C8C" stroke-linecap="round" stroke-width="6"/>
			<line id="connector1pin" x1= "0" x2="0" y1="62.317" y2="72.317" stroke="#8C8C8C" stroke-linecap="round" stroke-width="6"/>
			<line id="connector10pin" x1="10" x2="10" y1="62.317" y2="72.317" stroke="#8C8C8C" stroke-linecap="round" stroke-width="6"/>
		</g>
-->
		<g transform="translate(52.5 74)" fill="#dfdaca">
			<path d="m16.5-15v38.5h-33v-38.5z" fill="#dfdaca"/>
			<path d="m20 15v-21.5h-3.5v21.5h3.5" fill="#cac3ac"/>
			<path d="m-16.5-6.5v21.5h-3.5v-21.5h3.5" fill="#cac3ac"/>
			<path d="m-16.5 15v-2h-3.5v2h3.5" fill="#b9b3a6"/>
			<path d="m20 15v-2h-3.5v2h3.5" fill="#b9b3a6"/>
			<path d="m16.5 23.5-1.5 1.5h-30l-1.5-1.5h33" fill="#b9b3a6"/>
			<path d="m-28.5-25h57m-57 0c-0.8284 0-1.5 0.6716-1.5 1.5v7c0 0.8284 0.6716 1.5 1.5 1.5h8.5v8.5h7.5v-8.5h5.5v8.5h4.5v-8.5h5.5v8.5h4.5v-8.5h5.5v8.5h7.25v-8.5h8.5c1 0 1.5-0.6 1.5-1.5v-7c0-0.8284-0.6716-1.5-1.5-1.5"/>
			<path d="m-20-6.5h7.5v-8.5h5.5v8.5h4.5v-8.5h5.5v8.5h4.5v-8.5h5.5v8.5h7.25" stroke="#cac3ac" stroke-width=".4"/>
			<path d="m7.5-23h5.5l-2.75 5z" fill="#cac3ac" stroke-width=".5"/>
			<path d="m10-25c0-6-6-10-6-16" stroke="#000" stroke-width="6"/>
			<path d="m-10-25c0-6 6-10 6-16" stroke="red" stroke-width="6"/>
			<path d="m0-25v-16" stroke="blue" stroke-width="6"/>
			<path d="m0-41v-86" stroke="#000" stroke-width="16"/>
			<g transform="translate(0 -60)">
				<path d="m4-67c0-6 21-10 21.5-28.5" fill="none" stroke="#000" stroke-width="6"/>
				<path d="m-4-67c0-6-21-10-21.5-28.5" fill="none" stroke="red" stroke-width="6"/>
				<path d="m0-67v-28.5" stroke="blue" stroke-width="6"/>
			</g>
		</g>
		<g transform="translate(52.5 -90)" fill="none"  stroke-linecap="round">

			<rect id="connector2pin" x="-27.94" width="5.08" height="5.08"/>
			<rect id="connector1pin" x="-2.54" width="5.08" height="5.08"/>
			<rect id="connector0pin" x="22.86"  width="5.08" height="5.08"/>
			<line id="connector2leg" x1="-25.4" x2="-25.4" y1="1.27" y2="7.62" stroke="#8C8C8C" stroke-width="6.35"/>
			<line id="connector1leg" x1="0" x2="0" y1="1.27" y2="7.62" stroke="#8C8C8C" stroke-width="6.35"/>
			<line id="connector0leg" x1="25.4" x2="25.4" y1="1.27" y2="7.62" stroke="#8C8C8C"  stroke-width="6.35"/>
		</g>

</g>


<g transform="translate(84 80) scale(0.2) rotate(-90)">


   <path d="m-328.71-125v250 h24.16v-250" fill="#d3c5b3"/>

<path d="m-147.03 373.75h254.91 v-373.75v-373.75h-254.91" fill="#202020"/>
<ellipse rx="164" ry="374" cx="-149" fill="#202020"/>

   <path d="m196.49-316.92c-12.574-17.584-26.201-31.398-40.403-40.956-14.2-9.569-28.973-14.88-43.799-15.748-14.826-0.879-29.702 2.685-44.108 10.569-14.407 7.873-28.341 20.063-41.312 36.142-12.974 16.07-24.982 36.027-35.605 59.17-10.626 23.135-19.864 49.453-27.39 78.029-15.094 57.12-23.172 123.36-23.133 189.71-0.0388 66.345 8.039 132.59 23.133 189.71 7.5259 28.576 16.764 54.894 27.39 78.029 10.623 23.143 22.631 43.1 35.605 59.17 12.971 16.079 26.905 28.269 41.312 36.142 14.406 7.884 29.283 11.448 44.108 10.569 14.826-0.868 29.599-6.179 43.799-15.748 14.202-9.558 27.829-23.372 40.403-40.956" fill="#404040"/>

<path d="m107.88-373.75c14.391-0.012 28.718 3.627 42.225 10.485 5.339 2.708 10.555 5.895 15.648 9.561 29.128 20.964 54.059 56.989 73.492 103.7" fill="#000000"/>
   <path d="m107.88 373.75c14.391 0.012 28.718-3.627 42.225-10.485 5.339-2.708 10.555-5.895 15.648-9.561 29.128-20.964 54.059-56.989 73.492-103.7"  fill="#000000"/>

   <path d="m242.05-250c10.722-0.013 21.37 2.828 31.23 8.065 3.798 2.014 7.487 4.361 11.068 7.042 10.519 7.867 20.073 18.456 28.658 31.309 11.135 16.673 20.652 37.227 28.269 60.619 13.564 41.506 20.909 92.14 20.87 142.96" fill="#000000"/>
   <path d="m242.05 250c10.722 0.013 21.37-2.828 31.23-8.065 3.798-2.014 7.487-4.361 11.068-7.042 10.519-7.867 20.073-18.456 28.658-31.309 11.135-16.673 20.652-37.227 28.269-60.619 13.564-41.506 20.909-92.14 20.87-142.96" fill="#000000"/>



   <path d="m236.36-250c-45.513-104.74-114.88-137.34-175.4-82.42-60.518 54.915-100.11 186.38-100.11 332.42 0 146.04 39.591 277.5 100.11 332.42 60.518 54.916 129.88 22.321 175.4-82.42" fill="#333333"/>
#6d6d6d

   <path d="m160.6 250c-49.094 38.594-103.7 1.059-134.63-92.533-30.923-93.592-30.923-221.34 0-314.93 30.923-93.592 85.532-131.13 134.63-92.533"  fill="#404040"/>

   <path d="m134.72-250h107.33
v500 h-107.33" fill="#202020"/>
   <path d="m188.38-219.32c-16.924-20.766-36.287-31.441-55.589-30.646-19.302 0.691-38.49 12.849-55.085 34.905-16.619 21.966-30.599 53.769-40.135 91.302-9.5764 37.481-14.683 80.589-14.66 123.76-0.0233 43.167 5.0831 86.275 14.66 123.76 9.5361 37.533 23.516 69.336 40.135 91.302 16.595 22.056 35.783 34.214 55.085 34.905 19.302 0.795 38.665-9.88 55.589-30.646" fill="#202020"/>


   <path d="m302.98-209.61c-16.764-24.437-36.511-38.483-56.508-40.194-19.994-1.831-40.176 8.679-57.752 30.074-17.601 21.291-32.541 53.4-42.751 91.884-10.257 38.422-15.752 83.099-15.725 127.85-0.027 44.747 5.468 89.424 15.725 127.85 10.21 38.484 25.15 70.593 42.751 91.884 17.576 21.395 37.758 31.905 57.752 30.074 19.997-1.711 39.744-15.757 56.508-40.194" fill="#404040"/>

   <path d="m255.46 235c58.042 0 105.1-105.21 105.1-235 0-129.79-47.053-235-105.1-235-58.043 0-105.1 105.21-105.1 235 0 129.79 47.053 235 105.1 235" fill="#333333"/>


   <path d="m-102.31-373.75c-92.313 0-167.15 167.33-167.15 373.75" fill="none" stroke="#000000"/>  
   <path d="m-269.45 3.2791e-11c0 206.42 74.833 373.75 167.15 373.75" fill="none" stroke="#000000"/>


</g>

<g transform="scale(1, 0.448)">

<g transform="translate(44, 49.5) scale(0.22)  ">
<g fill="#6d6d6d">
<path d="M 48.385 27.376 L 77.19 27.42 L 100.331 68.639 L 87.826 93.019 L 38.647 93.159 L 24.775 68.499 Z" />
<path d="M 176.31 27.29 V 41.28 H 146.41 V 93.32 H 128.36 V 41.37 H 98.64 V 27.32 H 176.31 Z" />
<path d="M 179.55 27.41 C 194.00 27.03 208.56 27.37 223.03 27.25 C 232.52 26.98 241.78 30.80 248.14 37.88 C 258.09 48.22 259.63 64.99 252.15 77.15 C 247.42 85.21 239.20 90.71 230.07 92.48 C 224.67 93.67 219.48 93.33 214.00 93.35 C 202.47 93.34 190.95 93.36 179.42 93.34 C 179.51 71.42 179.25 49.30 179.55 27.41 Z"/>
<path d="M 259.61 27.215 L 277.78 27.27 L 277.81 57.735 L 310.99 27.32 L 335.595 27.285 L 301.015 58.61 L 337.345 93.4 L 312.56 93.38 L 277.81 58.855 L 277.78 93.34 L 259.63 93.31 Z"  />
</g>
<g fill="#333333">
<path d="M 48.801 27.766 C 54 33 57.96 36.53 62.686 40.545 C 54 50 54 50 48.74 55.263 Z"  />
<path d="M 76.49 27.49 L 76.51 54.48 L 62.795 40.569 L 76.49 27.49 Z" />
<path d="M 196.511 40.839 L 207 40.76 C 213.35 40.93 220.26 40.25 226.45 41.61 C 234.24 43.87 240.07 51.89 239.83 60.01 C 240.18 68.02 234.54 75.61 227.08 78.22 C 223.2 79.17 219.133 79.068 214.94 79.089 L 196.68 79.15 Z"  />
<path d="M 49.42 55.19 C 58.30 55.50 67.20 55.16 76.08 55.38 C 71.92 63.42 67.01 71.11 62.93 79.20 C 58.49 71.54 54.07 63.86 49.78 56.12 L 49.42 55.19 Z"  />
<path d="M 48.559 55.597 L 43.949 73.934 L 25.261 68.623 Z"  />
<path d="M 76.965 55.636 L 100.144 68.924 L 81.725 73.953 ZM 76.965 55.636 L 100 68.79 L 81.725 73.953 Z"  />
<path d="m 43.85 74.37 L 61.986 79.042 L 39.24 92.96 Z" />
<path d="M 81.608 74.359 L 86.876 93.074 L 63.419 79.374 Z"  />
</g>
</g>
</g>
   
</g>

</svg>