<?xml version='1.0' encoding='UTF-8' standalone='no'?>
<svg
  xmlns:dc="http://purl.org/dc/elements/1.1/"
  xmlns:cc="http://creativecommons.org/ns#"
  xmlns:rdf="http://www.w3.org/1999/02/22-rdf-syntax-ns#"
  xmlns:svg="http://www.w3.org/2000/svg"
  xmlns="http://www.w3.org/2000/svg"
  height="2.0457814in"
  width="2.22475in"
  y="0px"
  version="1.1"
  x="0px"
  viewBox="0 0 2224.7508 2045.7821"
  id="Layer_1"
  xml:space="preserve"
  enable-background="new 0 0 159.85 146.15">
  <metadata
    id="metadata230">
    <rdf:RDF>
      <cc:Work
        rdf:about="">
        <dc:format>image/svg+xml</dc:format>
        <dc:type
          rdf:resource="http://purl.org/dc/dcmitype/StillImage"
        />
        <dc:title/>
      </cc:Work>
    </rdf:RDF>
  </metadata>
  <defs
    id="defs228">
                            </defs>
  <desc
    id="desc2">
    <referenceFile>VRM_1_breadboard.svg</referenceFile>
  </desc>
  <g
    id="breadboard">
    <path
      id="BackColor"
      d="m 2217.8062,1131.9609 v 578.1816 c 0,17.9311 -14.4861,32.4166 -32.3888,32.4166 h -30.1112 v 113.4176 c 0,66.541 -66.25,120.3893 -148.1389,120.3893 h -78.6945 v 23.1383 c 0,21.7219 -14.4861,39.3332 -32.4167,39.3332 H 1092.8059 335.6251 c -17.91667,0 -32.40279,-14.4855 -32.40279,-32.4166 v -30.0832 H 189.79173 c -66.52781,0 -120.375038,-66.2637 -120.375038,-148.1392 v -78.7228 H 46.277796 c -21.736118,0 -39.3333442,-14.4855 -39.3333442,-32.3883 V 1227.4192 335.64078 c 0,-17.9169 14.4861142,-32.40381 32.4027872,-32.40381 H 69.44447 V 189.80665 c 0,-66.54243 66.26391,-120.3752 148.15282,-120.3752 h 78.68058 V 46.278999 c 0,-21.736024 14.48612,-39.3345472 32.40278,-39.3345472 h 803.23625 757.1948 c 17.9166,0 32.4028,14.4869092 32.4028,32.4038102 v 30.097339 h 113.4306 c 66.5278,0 120.375,66.263669 120.375,148.153329 v 78.7073 h 23.1389 c 21.7361,0 39.3334,14.48691 39.3334,32.40381 v 803.25086 z"
      fill="#191919"
      stroke="#000000"
      stroke-width="13.88890362"
    />
    <rect
      x="447.31955"
      y="597.20996"
      width="117.47226"
      height="140.62526"
      id="rect5"
      stroke-width="13.88890362"
    />
    <path
      id="path7"
      d="M 696.7502,1018.2801 H 563.63906 V 456.58482 H 53.222242 V 412.52978 H 595.38907 c -10.91668,0 101.36113,-7.66795 101.36113,105.11004 l -0.0138,-2.22157 z"
      fill="#e6e7e8"
      stroke-width="13.88890362"
    />
    <path
      id="path9"
      d="M 696.7502,1014.2799 H 563.63906 v 561.6826 H 53.222242 v 44.055 H 595.38907 c -10.91668,0 101.36113,7.6807 101.36113,-105.0973 l -0.0138,2.2088 z"
      fill="#009444"
      stroke-width="13.88890362"
    />
    <rect
      id="rect11"
      height="479.1676"
      width="164.9306"
      y="556.46094"
      x="506.34735"
      fill="none"
      stroke-width="13.88890362"
    />
    <text
      id="text13"
      font-size="110"
      x="556.49109"
      y="-591.66687"
      transform="rotate(90)"
      font-family="'Droid Sans'">12V2A</text>
    <rect
      id="rect23"
      height="631.94562"
      width="164.9306"
      y="1035.6293"
      x="506.34735"
      fill="none"
      stroke-width="13.88890362"
    />
    <text
      id="text25"
      font-size="110"
      x="1035.5275"
      y="-592.75195"
      transform="rotate(90)"
      font-family="'Droid Sans'">12V500mA</text>
    <rect
      x="447.31955"
      y="456.58432"
      width="117.48614"
      height="140.62526"
      id="rect36"
      fill="#be1e2d"
      stroke-width="13.88890362"
    />
    <rect
      x="447.61121"
      y="878.46118"
      width="117.48614"
      height="140.62526"
      id="rect38"
      stroke-width="13.88890362"
    />
    <rect
      x="447.61121"
      y="737.83557"
      width="117.48614"
      height="140.62526"
      id="rect40"
      fill="#be1e2d"
      stroke-width="13.88890362"
    />
    <rect
      x="447.4584"
      y="1156.2388"
      width="117.48614"
      height="140.62526"
      id="rect42"
      stroke-width="13.88890362"
    />
    <rect
      x="447.4584"
      y="1015.6132"
      width="117.48614"
      height="140.62526"
      id="rect44"
      fill="#be1e2d"
      stroke-width="13.88890362"
    />
    <rect
      x="447.75009"
      y="1437.49"
      width="117.48614"
      height="140.62526"
      id="rect46"
      stroke-width="13.88890362"
    />
    <rect
      x="447.75009"
      y="1296.8644"
      width="117.48614"
      height="140.62526"
      id="rect48"
      fill="#be1e2d"
      stroke-width="13.88890362"
    />
    <rect
      x="53.222244"
      y="598.1272"
      width="58.916683"
      height="140.62526"
      id="rect50"
      stroke-width="13.88890362"
    />
    <rect
      x="53.222244"
      y="457.50153"
      width="58.916683"
      height="140.62526"
      id="rect52"
      fill="#be1e2d"
      stroke-width="13.88890362"
    />
    <rect
      x="53.375023"
      y="879.37836"
      width="58.916683"
      height="140.62526"
      id="rect54"
      stroke-width="13.88890362"
    />
    <rect
      x="53.375023"
      y="738.75281"
      width="58.916683"
      height="140.62526"
      id="rect56"
      fill="#be1e2d"
      stroke-width="13.88890362"
    />
    <rect
      x="53.291687"
      y="1157.156"
      width="58.916683"
      height="140.62526"
      id="rect58"
      stroke-width="13.88890362"
    />
    <rect
      x="53.291687"
      y="1016.5304"
      width="58.916683"
      height="140.62526"
      id="rect60"
      fill="#be1e2d"
      stroke-width="13.88890362"
    />
    <rect
      x="53.444462"
      y="1438.4072"
      width="58.902798"
      height="140.62526"
      id="rect62"
      stroke-width="13.88890362"
    />
    <rect
      x="53.444462"
      y="1297.7816"
      width="58.902798"
      height="140.62526"
      id="rect64"
      fill="#be1e2d"
      stroke-width="13.88890362"
    />
    <path
      d="m 1535.8616,1014.2799 h 133.1112 v 561.6953 h 510.4167 v 44.0564 h -542.1668 c 10.9167,0 -101.3611,7.6807 -101.3611,-105.1114 l 0.014,2.2216 z"
      id="path76"
      fill="#009444"
      stroke-width="13.88890362"
    />
    <path
      d="m 1535.8616,1018.266 h 133.1112 V 456.58482 h 510.4167 v -44.05504 h -542.1668 c 10.9167,0 -101.3611,-7.68069 -101.3611,105.09731 l 0.014,-2.20884 z"
      id="path78"
      fill="#e6e7e8"
      stroke-width="13.88890362"
    />
    <rect
      x="1561.3337"
      y="996.92023"
      width="164.9306"
      height="514.65375"
      id="rect80"
      fill="none"
      stroke-width="13.88890362"
    />
    <text
      font-size="110"
      id="text82"
      x="-1511.2225"
      y="1643.067"
      transform="rotate(-90)"
      font-family="'Droid Sans'">5V500mA</text>
    <rect
      x="1561.3337"
      y="364.97464"
      width="164.9306"
      height="631.94562"
      id="rect92"
      fill="none"
      stroke-width="13.88890362"
    />
    <text
      font-size="110"
      id="text94"
      x="-802.81787"
      y="1642.1538"
      transform="rotate(-90)"
      font-family="'Droid Sans'">5V2A</text>
    <path
      d="M 2162.0145,360.59879"
      id="path104"
      fill="none"
      stroke-width="13.88890362"
    />
    <path
      d="M 185.16673,360.59879"
      id="path106"
      fill="none"
      stroke-width="13.88890362"
    />
    <rect
      x="1663.4033"
      y="1296.5172"
      width="117.48614"
      height="140.62526"
      id="rect108"
      stroke-width="13.88890362"
    />
    <rect
      x="1663.4033"
      y="1437.1428"
      width="117.48614"
      height="140.62526"
      id="rect110"
      fill="#be1e2d"
      stroke-width="13.88890362"
    />
    <rect
      x="1663.1116"
      y="1015.2522"
      width="117.48614"
      height="140.62526"
      id="rect112"
      stroke-width="13.88890362"
    />
    <rect
      x="1663.1116"
      y="1155.8916"
      width="117.48614"
      height="140.62526"
      id="rect114"
      fill="#be1e2d"
      stroke-width="13.88890362"
    />
    <rect
      x="1663.2644"
      y="737.47455"
      width="117.48614"
      height="140.62526"
      id="rect116"
      stroke-width="13.88890362"
    />
    <rect
      x="1663.2644"
      y="878.10016"
      width="117.48614"
      height="140.62526"
      id="rect118"
      fill="#be1e2d"
      stroke-width="13.88890362"
    />
    <rect
      x="1662.9587"
      y="456.22333"
      width="117.48614"
      height="140.62526"
      id="rect120"
      stroke-width="13.88890362"
    />
    <rect
      x="1662.9587"
      y="596.84894"
      width="117.48614"
      height="140.62526"
      id="rect122"
      fill="#be1e2d"
      stroke-width="13.88890362"
    />
    <rect
      x="2120.5842"
      y="1295.4204"
      width="58.916683"
      height="140.37527"
      id="rect124"
      stroke-width="13.88890362"
    />
    <rect
      x="2120.5842"
      y="1435.8093"
      width="58.916683"
      height="140.37527"
      id="rect126"
      fill="#be1e2d"
      stroke-width="13.88890362"
    />
    <rect
      x="2120.4451"
      y="1014.6563"
      width="58.902798"
      height="140.37527"
      id="rect128"
      stroke-width="13.88890362"
    />
    <rect
      x="2120.4451"
      y="1155.0297"
      width="58.902798"
      height="140.38916"
      id="rect130"
      fill="#be1e2d"
      stroke-width="13.88890362"
    />
    <rect
      x="2120.5146"
      y="737.34845"
      width="58.902798"
      height="140.37527"
      id="rect132"
      stroke-width="13.88890362"
    />
    <rect
      x="2120.5146"
      y="877.72534"
      width="58.902798"
      height="140.38916"
      id="rect134"
      fill="#be1e2d"
      stroke-width="13.88890362"
    />
    <rect
      x="2120.3618"
      y="456.58432"
      width="58.916683"
      height="140.37527"
      id="rect136"
      stroke-width="13.88890362"
    />
    <rect
      x="2120.3618"
      y="596.96124"
      width="58.916683"
      height="140.38916"
      id="rect138"
      fill="#be1e2d"
      stroke-width="13.88890362"
    />
    <polyline
      points="80.258,32.017 68.208,32.017 68.208,6.156 80.258,6.156 80.258,3 63.27,3 63.27,5.589 63.25,33.017 63.25,48.47 80.258,48.47 "
      id="polyline151"
      transform="matrix(13.888893,0,0,13.888915,-2.3333285,6.9317167)"
      fill="#ed1c24"
    />
    <polyline
      points="80.258,32.017 92.309,32.017 92.309,6.156 80.258,6.156 80.258,3 97.246,3 97.246,5.589 97.267,33.017 97.267,48.47 80.258,48.47 "
      id="polyline153"
      transform="matrix(13.888893,0,0,13.888915,-2.3333285,6.9317167)"
      stroke="#414042"
      stroke-width="1"
    />
    <path
      d="m 876.13914,763.65549 v -83.52825 h 472.45846 v 87.22144 c 0,30.39025 -26.7638,46.87515 -59.8333,46.87515 H 930.54194 c -30.06945,0 -54.4028,-27.20788 -54.4028,-50.56834 z"
      id="path155"
      fill="#009444"
      stroke-width="13.88890362"
    />
    <rect
      x="876.1391"
      y="680.1261"
      width="472.45844"
      height="110.65298"
      id="rect157"
      fill="none"
      stroke-width="13.88890362"
    />
    <text
      font-size="110"
      id="text159"
      x="-1204.4713"
      y="-716.12842"
      transform="scale(-1)"
      font-family="'Droid Sans'">12V</text>
    <path
      d="m 1379.1671,1630.2127 12.1667,1.4433 c 61.125,0 111.8333,64.7779 111.8333,120.5153 v 0 c 0,62.6525 -50.6945,114.1519 -111.8333,114.1519 h -121.5834 v 0 c -41.4861,0 -75.139,-38.5279 -75.139,-86.0413 v -342.6115 c 0,-47.5148 33.6529,-86.0428 75.139,-86.0428 v 0 c 41.4861,0 75.1389,38.528 75.1389,86.0428 v 153.4865 c 0,22.3742 8.5972,39.0558 34.2778,39.0558 z"
      id="path172"
      fill="#009444"
      stroke-width="13.88890362"
    />
    <text
      font-size="110"
      id="text174"
      x="-1584.0681"
      y="1307.6925"
      transform="rotate(-90)"
      font-family="'Droid Sans'">5V</text>
    <ellipse
      cy="1749.838"
      cx="1385.2504"
      id="circle184"
      rx="108.94447"
      ry="108.94465"
      fill="#333333"
      stroke-width="13.88890362"
    />
    <path
      d="m 827.52803,1624.5314 -12.16668,1.4447 c -61.12502,0 -111.83336,64.7779 -111.83336,120.5139 v 0 c 0,62.6525 50.69446,114.1534 111.83336,114.1534 h 121.58337 v 0 c 41.48612,0 75.13898,-38.528 75.13898,-86.0428 v -342.6115 c 0,-47.5133 -33.65286,-86.0413 -75.13898,-86.0413 v 0 c -41.48613,0 -75.13892,38.528 -75.13892,86.0413 v 153.4865 c -0.0139,22.3756 -8.6111,39.0558 -34.27777,39.0558 z"
      id="path187"
      fill="#009444"
      stroke-width="13.88890362"
    />
    <text
      font-size="110"
      id="text189"
      x="1424.6443"
      y="-895.83362"
      transform="rotate(90)"
      font-family="'Droid Sans'">12V</text>
    <ellipse
      cy="1744.1569"
      cx="821.43079"
      id="circle199"
      rx="108.94447"
      ry="108.94465"
      fill="#333333"
      stroke-width="13.88890362"
    />
    <text
      x="812.50024"
      y="985.36511"
      font-size="110"
      id="text202"
      font-family="'Droid Sans'"
      fill="#009444">V</text>
    <text
      x="871.01428"
      y="988.10602"
      font-size="110"
      id="text204"
      font-family="'Droid Sans'"
      fill="#ffffff">oltage</text>
    <text
      x="843.47845"
      y="1108.2819"
      font-size="110"
      id="text206"
      font-family="'Droid Sans'"
      fill="#009444">R</text>
    <text
      x="910.5976"
      y="1107.8977"
      font-size="110"
      id="text208"
      font-family="'Droid Sans'"
      fill="#ffffff">egulator</text>
    <text
      x="874.72845"
      y="1233.2819"
      font-size="110"
      id="text210"
      font-family="'Droid Sans'"
      fill="#009444">M</text>
    <text
      x="973.09766"
      y="1232.2076"
      font-size="110"
      id="text212"
      font-family="'Droid Sans'"
      fill="#ffffff">odule</text>
    <circle
      id="path602"
      cx="202.19162"
      cy="196.71498"
      r="69.108246"
      fill="#ffffff"
      stroke="none"
    />
    <circle
      r="69.108246"
      cy="177.96497"
      cx="2011.484"
      id="circle604"
      fill="#ffffff"
      stroke="none"
    />
    <circle
      r="69.108246"
      cy="1861.2988"
      cx="202.19162"
      id="circle606"
      fill="#ffffff"
      stroke="none"
    />
    <circle
      id="circle608"
      cx="2011.484"
      cy="1866.5072"
      r="69.108246"
      fill="#ffffff"
      stroke="none"
    />
    <rect
      height="104.16669"
      width="104.16669"
      y="485.72156"
      x="1892.8894"
      id="connector0pin"
      fill="#ffffff"
      stroke-width="0.61598748"
    />
    <rect
      height="104.16669"
      width="104.16669"
      y="621.02826"
      x="1888.5421"
      id="connector1pin"
      fill="#ffffff"
      stroke-width="0.64531463"
    />
    <rect
      height="104.16669"
      width="104.16669"
      y="761.6665"
      x="1891.4449"
      id="connector2pin"
      fill="#ffffff"
      stroke-width="0.61598748"
    />
    <rect
      height="104.16669"
      width="104.16669"
      y="896.9715"
      x="1891.4449"
      id="connector3pin"
      fill="#ffffff"
      stroke-width="0.64531463"
    />
    <rect
      height="104.16669"
      width="104.16669"
      y="1042.2786"
      x="1890.0004"
      id="connector4pin"
      fill="#ffffff"
      stroke-width="0.61602312"
    />
    <rect
      height="104.16669"
      width="104.16669"
      y="1177.5853"
      x="1890.0004"
      id="connector5pin"
      fill="#ffffff"
      stroke-width="0.64535564"
    />
    <rect
      height="104.16669"
      width="104.16669"
      y="1318.2234"
      x="1892.8894"
      id="connector6pin"
      fill="#ffffff"
    />
    <rect
      height="104.16669"
      width="104.16669"
      y="1453.5424"
      x="1892.8894"
      id="connector7pin"
      fill="#ffffff"
    />
    <rect
      height="104.16669"
      width="104.16669"
      y="621.01624"
      x="232.29173"
      id="connector8pin"
      fill="#ffffff"
      stroke-width="0.64531463"
    />
    <rect
      height="104.16669"
      width="104.16669"
      y="485.71298"
      x="232.29173"
      id="connector9pin"
      fill="#ffffff"
    />
    <rect
      height="104.16669"
      width="104.16669"
      y="896.96283"
      x="235.18062"
      id="connector10pin"
      fill="#ffffff"
    />
    <rect
      height="104.16669"
      width="104.16669"
      y="761.65619"
      x="235.18062"
      id="connector11pin"
      fill="#ffffff"
    />
    <rect
      height="104.16669"
      width="104.16669"
      y="1453.532"
      x="236.62508"
      id="connector12pin"
      fill="#ffffff"
    />
    <rect
      height="104.16669"
      width="104.16669"
      y="1318.2269"
      x="236.62508"
      id="connector13pin"
      fill="#ffffff"
    />
    <rect
      height="104.16669"
      width="104.16669"
      y="1177.5889"
      x="233.73618"
      id="connector14pin"
      fill="#ffffff"
    />
    <rect
      height="104.16669"
      width="104.16669"
      y="1042.2822"
      x="233.73618"
      id="connector15pin"
      fill="#ffffff"
    />
    <rect
      id="connector16pin"
      x="980.04193"
      y="191.44774"
      width="104.16526"
      height="104.16669"
      fill="#ffffff"
      stroke-width="0.99999315"
    />
    <rect
      id="connector17pin"
      x="1126.0122"
      y="195.78154"
      width="104.16526"
      height="104.16669"
      fill="#ffffff"
      stroke-width="0.99999315"
    />
  </g>
</svg>
