<?xml version="1.0" encoding="UTF-8" standalone="no"?>
<svg xmlns="http://www.w3.org/2000/svg" xmlns:svg="http://www.w3.org/2000/svg" xmlns:rdf="http://www.w3.org/1999/02/22-rdf-syntax-ns#" xmlns:cc="http://creativecommons.org/ns#" xmlns:dc="http://purl.org/dc/elements/1.1/" id="svg2" y="0in" version="1.2" height="1.8099999in" width="4.3530002in" x="0in" viewBox="0 0 4352.9999 1809.9999">
  
  <defs id="defs22"/>
  
  <g id="breadboard">
    <path id="rect1" d="m 10,120 c 1.354767,-57.972588 58.970183,-107.340722 110,-110 l 4102.9704,4.9e-5 c 60.6753,6.607806 106.5692,34.715679 120.0294,109.999951 v 1569.9999 c -22.5244,70.4717 -65.255,101.8783 -120.0294,110 h -4102.9704 c -62.701739,-17.2917 -93.429953,-58.3777 -110,-110 z" fill="white" stroke="#000000" stroke-width="20"/>
    <rect x="125.7664" y="125.7664" width="1941.5931" height="1553.2799" id="rect3" fill="black" stroke="#000000" stroke-width="15.5328"/>
    <line x1="125.7664" y1="319.92642" x2="2067.3591" y2="319.92642" stroke="#808080" stroke-width="3.10656" id="line3"/>
    <line x1="125.7664" y1="514.08636" x2="2067.3591" y2="514.08636" stroke="#808080" stroke-width="3.10656" id="line4"/>
    <line x1="125.7664" y1="708.2464" x2="2067.3591" y2="708.2464" stroke="#808080" stroke-width="3.10656" id="line5"/>
    <line x1="125.7664" y1="902.40631" x2="2067.3591" y2="902.40631" stroke="#808080" stroke-width="9.31968" id="line6"/>
    <line x1="125.7664" y1="1096.5664" x2="2067.3591" y2="1096.5664" stroke="#808080" stroke-width="3.10656" id="line7"/>
    <line x1="125.7664" y1="1290.7262" x2="2067.3591" y2="1290.7262" stroke="#808080" stroke-width="3.10656" id="line8"/>
    <line x1="125.7664" y1="1484.8864" x2="2067.3591" y2="1484.8864" stroke="#808080" stroke-width="3.10656" id="line9"/>
    <line y1="125.7664" x1="319.92587" y2="1679.0463" x2="319.92587" stroke="#808080" stroke-width="3.10656" id="line10"/>
    <line y1="125.7664" x1="514.08533" y2="1679.0463" x2="514.08533" stroke="#808080" stroke-width="3.10656" id="line11"/>
    <line y1="125.7664" x1="708.24432" y2="1679.0463" x2="708.24432" stroke="#808080" stroke-width="3.10656" id="line12"/>
    <line y1="125.7664" x1="902.40381" y2="1679.0463" x2="902.40381" stroke="#808080" stroke-width="3.10656" id="line13"/>
    <line y1="125.7664" x1="1096.5634" y2="1679.0463" x2="1096.5634" stroke="#808080" stroke-width="9.31968" id="line14"/>
    <line y1="125.7664" x1="1290.7223" y2="1679.0463" x2="1290.7223" stroke="#808080" stroke-width="3.10656" id="line15"/>
    <line y1="125.7664" x1="1484.8818" y2="1679.0463" x2="1484.8818" stroke="#808080" stroke-width="3.10656" id="line16"/>
    <line y1="125.7664" x1="1679.0408" y2="1679.0463" x2="1679.0408" stroke="#808080" stroke-width="3.10656" id="line17"/>
    <line y1="125.7664" x1="1873.2003" y2="1679.0463" x2="1873.2003" stroke="#808080" stroke-width="3.10656" id="line18"/>
    <path id="rect2" d="m 2259.9997,230.0007 161.9984,0.0157 c 32.8534,0.71014 38.5212,2.67182 37.9997,38 v 60.81826 c -0.405,32.75848 -1.9797,37.63601 -38,38 l -162.0002,0.16599 c -33.0305,0.007 -38.6586,-1.76495 -37.9998,-38 l 10e-5,-61 c 0.866,-35.27147 9.2467,-37.68271 37.9997,-38 z" fill="#777777" stroke="#000000" stroke-width="10"/>
    <path id="path2" d="m 2538.0534,230.0007 161.9984,0.0157 c 32.8534,0.71014 38.5212,2.67182 37.9997,38 v 60.81826 c -0.405,32.75848 -1.9797,37.63601 -38,38 l -162.0002,0.16599 c -33.0305,0.007 -38.6586,-1.76495 -37.9998,-38 l 10e-5,-61 c 0.866,-35.27147 9.2467,-37.68271 37.9997,-38 z" fill="#777777" stroke="#000000" stroke-width="10"/>
    <path id="path3" d="m 2816.0534,230.0007 161.9984,0.0157 c 32.8534,0.71014 38.5212,2.67182 37.9997,38 v 60.81826 c -0.405,32.75848 -1.9797,37.63601 -38,38 l -162.0002,0.16599 c -33.0305,0.007 -38.6586,-1.76495 -37.9998,-38 l 10e-5,-61 c 0.866,-35.27147 9.2467,-37.68271 37.9997,-38 z" fill="#777777" stroke="#000000" stroke-width="10"/>
    <path id="path4" d="m 2259.9997,397.00069 161.9984,0.0157 c 32.8534,0.71014 38.5212,2.67182 37.9997,38 v 60.81826 c -0.405,32.75848 -1.9797,37.63601 -38,38 l -162.0002,0.16599 c -33.0305,0.007 -38.6586,-1.76495 -37.9998,-38 l 10e-5,-61 c 0.866,-35.27147 9.2467,-37.68271 37.9997,-38 z" fill="#777777" stroke="#000000" stroke-width="10"/>
    <path id="path5" d="m 2259.9997,564.00068 161.9984,0.0157 c 32.8534,0.71014 38.5212,2.67182 37.9997,38 v 60.81826 c -0.405,32.75848 -1.9797,37.63601 -38,38 l -162.0002,0.16599 c -33.0305,0.007 -38.6586,-1.76495 -37.9998,-38 l 10e-5,-61 c 0.866,-35.27147 9.2467,-37.68271 37.9997,-38 z" fill="#777777" stroke="#000000" stroke-width="10"/>
    <path id="path6" d="m 2259.9997,731.00068 161.9984,0.0157 c 32.8534,0.71014 38.5212,2.67182 37.9997,38 v 60.81826 c -0.405,32.75848 -1.9797,37.63601 -38,38 l -162.0002,0.16599 c -33.0305,0.007 -38.6586,-1.76495 -37.9998,-38 l 10e-5,-61 c 0.866,-35.27147 9.2467,-37.68271 37.9997,-38 z" fill="#777777" stroke="#000000" stroke-width="10"/>
    <path id="rect4" d="m 2266.9999,178.99999 h 702 c 49.6795,5.18495 100.0863,43.01393 107,107 v 1232.99991 c -17.7984,81.0247 -61.4215,96.4943 -107,107 h -702 c -63.9865,-9.6063 -101.1328,-57.197 -107,-107 v -1232.99991 c 11.4884,-70.02523 54.4578,-95.31433 107,-107 z" fill="none" stroke="#000000" stroke-width="10"/>
    <path id="connector0pin" d="m 2259.9997,898.00067 161.9984,0.0157 c 32.8534,0.71014 38.5212,2.67182 37.9997,38 v 60.81826 c -0.405,32.75847 -1.9797,37.63597 -38,37.99997 l -162.0002,0.166 c -33.0305,0.01 -38.6586,-1.7649 -37.9998,-37.99998 l 10e-5,-61 c 0.866,-35.27147 9.2467,-37.68271 37.9997,-38 z" fill="#777777" stroke="#000000" stroke-width="10"/>
    <path id="path8" d="m 2538.0534,397.00069 161.9984,0.0157 c 32.8534,0.71014 38.5212,2.67182 37.9997,38 v 60.81826 c -0.405,32.75848 -1.9797,37.63601 -38,38 l -162.0002,0.16599 c -33.0305,0.007 -38.6586,-1.76495 -37.9998,-38 l 10e-5,-61 c 0.866,-35.27147 9.2467,-37.68271 37.9997,-38 z" fill="#777777" stroke="#000000" stroke-width="10"/>
    <path id="path9" d="m 2538.0534,564.00068 161.9984,0.0157 c 32.8534,0.71014 38.5212,2.67182 37.9997,38 v 60.81826 c -0.405,32.75848 -1.9797,37.63601 -38,38 l -162.0002,0.16599 c -33.0305,0.007 -38.6586,-1.76495 -37.9998,-38 l 10e-5,-61 c 0.866,-35.27147 9.2467,-37.68271 37.9997,-38 z" fill="#777777" stroke="#000000" stroke-width="10"/>
    <path id="path10" d="m 2538.0534,731.00068 161.9984,0.0157 c 32.8534,0.71014 38.5212,2.67182 37.9997,38 v 60.81826 c -0.405,32.75848 -1.9797,37.63601 -38,38 l -162.0002,0.16599 c -33.0305,0.007 -38.6586,-1.76495 -37.9998,-38 l 10e-5,-61 c 0.866,-35.27147 9.2467,-37.68271 37.9997,-38 z" fill="#777777" stroke="#000000" stroke-width="10"/>
    <path id="connector1pin" d="m 2538.0534,898.00067 161.9984,0.0157 c 32.8534,0.71014 38.5212,2.67182 37.9997,38 v 60.81826 c -0.405,32.75847 -1.9797,37.63597 -38,37.99997 l -162.0002,0.166 c -33.0305,0.01 -38.6586,-1.7649 -37.9998,-37.99998 l 10e-5,-61 c 0.866,-35.27147 9.2467,-37.68271 37.9997,-38 z" fill="#777777" stroke="#000000" stroke-width="10"/>
    <path id="path12" d="m 2816.0534,397.00069 161.9984,0.0157 c 32.8534,0.71014 38.5212,2.67182 37.9997,38 v 60.81826 c -0.405,32.75848 -1.9797,37.63601 -38,38 l -162.0002,0.16599 c -33.0305,0.007 -38.6586,-1.76495 -37.9998,-38 l 10e-5,-61 c 0.866,-35.27147 9.2467,-37.68271 37.9997,-38 z" fill="#777777" stroke="#000000" stroke-width="10"/>
    <path id="path13" d="m 2816.0534,564.00068 161.9984,0.0157 c 32.8534,0.71014 38.5212,2.67182 37.9997,38 v 60.81826 c -0.405,32.75848 -1.9797,37.63601 -38,38 l -162.0002,0.16599 c -33.0305,0.007 -38.6586,-1.76495 -37.9998,-38 l 10e-5,-61 c 0.866,-35.27147 9.2467,-37.68271 37.9997,-38 z" fill="#777777" stroke="#000000" stroke-width="10"/>
    <path id="path14" d="m 2816.0534,731.00068 161.9984,0.0157 c 32.8534,0.71014 38.5212,2.67182 37.9997,38 v 60.81826 c -0.405,32.75848 -1.9797,37.63601 -38,38 l -162.0002,0.16599 c -33.0305,0.007 -38.6586,-1.76495 -37.9998,-38 l 10e-5,-61 c 0.866,-35.27147 9.2467,-37.68271 37.9997,-38 z" fill="#777777" stroke="#000000" stroke-width="10"/>
    <path id="connector2pin" d="m 2816.0534,898.00067 161.9984,0.0157 c 32.8534,0.71014 38.5212,2.67182 37.9997,38 v 60.81826 c -0.405,32.75847 -1.9797,37.63597 -38,37.99997 l -162.0002,0.166 c -33.0305,0.01 -38.6586,-1.7649 -37.9998,-37.99998 l 10e-5,-61 c 0.866,-35.27147 9.2467,-37.68271 37.9997,-38 z" fill="#777777" stroke="#000000" stroke-width="10"/>
    <text fill="#000000" font-family="'Droid Sans'" id="text3685" font-size="76" y="317.25391" x="2253.6152">Freq</text>
    <text fill="#000000" font-family="'Droid Sans'" id="text1" font-size="76" y="485.74216" x="2232.6152">Delay</text>
    <text fill="#000000" font-family="'Droid Sans'" id="text2" font-size="76" y="659.99805" x="2239.957">Init V</text>
    <text fill="#000000" font-family="'Droid Sans'" id="text3" font-size="76" y="826.49799" x="2249.6152">Fall t</text>
    <text fill="#000000" font-family="'Droid Sans'" id="text4" font-size="76" y="316.25391" x="2524">Amp</text>
    <text fill="#000000" font-family="'Droid Sans'" id="text5" font-size="76" y="316.25391" x="2786.3611">Offset</text>
    <text fill="#000000" font-family="'Droid Sans'" id="text6" font-size="76" y="485.74216" x="2513.2578">Width</text>
    <text fill="#000000" font-family="'Droid Sans'" id="text7" font-size="76" y="485.74216" x="2782.615">Phase</text>
    <text fill="#000000" font-family="'Droid Sans'" id="text8" font-size="76" y="659.99805" x="2501.6152">Puls V</text>
    <text fill="#000000" font-family="'Droid Sans'" id="text9" font-size="76" y="656.25391" x="2782.615">Damp</text>
    <text fill="#000000" font-family="'Droid Sans'" id="text10" font-size="76" y="826.49799" x="2510.6152">Rise t</text>
    <text fill="#000000" font-family="'Droid Sans'" id="text11" font-size="76" y="826.49799" x="2777.3611">Cycles</text>
    <path id="sine" d="m 3209.0012,122.99999 h 282 c 13.329,1.07883 18.9778,7.27785 18.4665,17.58361 l -0.4665,183.41638 c -1.1606,10.8394 -7.6145,16.38546 -18,18 h -282 c -11.2549,-0.74512 -15.9342,-8.06582 -18,-18 l 0.4665,-182.99999 c 1.0671,-11.78314 8.7125,-16.90442 17.5335,-18 z" fill="#777777" stroke="#000000" stroke-width="10"/>
    <path d="m 3219.0155,232.5815 c 13.858,-26.09738 28.4154,-49.16711 49.1671,-49.16711 22.4939,0.4503 38.7534,31.13006 49.1671,49.16711 11.0997,19.22533 28.0264,49.16712 49.1671,49.16712 23.4663,0 37.201,-28.44128 49.1671,-49.16712 11.8934,-20.5999 27.6207,-49.16711 49.1672,-49.16711 8.3019,0 10.6698,1.33616 16.389,6.55561" id="path9-1" fill="none" stroke="#000000" stroke-width="10"/>
    <path id="square" d="m 3209.0012,391.99998 h 282 c 13.329,1.07883 18.9778,7.27785 18.4665,17.58361 l -0.4665,183.41638 c -1.1606,10.8394 -7.6145,16.38546 -18,18 h -282 c -11.2549,-0.74512 -15.9342,-8.06582 -18,-18 l 0.4665,-182.99999 c 1.0671,-11.78314 8.7125,-16.90442 17.5335,-18 z" fill="#777777" stroke="#000000" stroke-width="10"/>
    <path d="m 3220.4143,550.7486 v -98.33423 h 98.3343 v 98.33423 h 98.3342 v -98.33423 h 65.5562" id="path8-2" fill="none" stroke="#000000" stroke-width="10"/>
    <path id="pwm" d="m 3209.0012,660.99997 h 282 c 13.329,1.07883 18.9778,7.27785 18.4665,17.58361 l -0.4665,183.41638 c -1.1606,10.8394 -7.6145,16.38546 -18,18 h -282 c -11.2549,-0.74512 -15.9342,-8.06582 -18,-18 l 0.4665,-182.99999 c 1.0671,-11.78314 8.7125,-16.90442 17.5335,-18 z" fill="#777777" stroke="#000000" stroke-width="10"/>
    <path d="m 3220.4143,819.74859 v -98.33423 h 32.7781 v 98.33423 h 163.8904 v -98.33423 h 32.7781 v 98.33423 h 32.778" id="path8-4" fill="none" stroke="#000000" stroke-width="10"/>
    <path id="pulse" d="m 3209.0012,928.99996 h 282 c 13.329,1.07883 18.9778,7.27785 18.4665,17.58361 l -0.4665,183.41633 c -1.1606,10.8394 -7.6145,16.3855 -18,18 h -282 c -11.2549,-0.7451 -15.9342,-8.0658 -18,-18 l 0.4665,-182.99994 c 1.0671,-11.78314 8.7125,-16.90442 17.5335,-18 z" fill="#777777" stroke="#000000" stroke-width="10"/>
    <path d="m 3220.4143,1088.7486 v -98.33425 h 32.7782 v 98.33425 h 229.4465" id="path8-8" fill="none" stroke="#000000" stroke-width="10"/>
    <path id="exp" d="m 3572.0012,928.99996 h 282 c 13.329,1.07883 18.9778,7.27785 18.4665,17.58361 l -0.4665,183.41633 c -1.1606,10.8394 -7.6145,16.3855 -18,18 h -282 c -11.2549,-0.7451 -15.9342,-8.0658 -18,-18 l 0.4665,-182.99994 c 1.0671,-11.78314 8.7125,-16.90442 17.5335,-18 z" fill="#777777" stroke="#000000" stroke-width="10"/>
    <path d="m 3583.4131,1088.7486 c 1.2646,-48.2492 4.7245,-98.36564 32.7781,-98.33424 h 65.5561 c 2.6126,37.03884 -2.4905,96.15894 32.7781,98.33424 h 65.5562 c 1.0586,-85.8654 21.0757,-97.52074 32.778,-98.33424 h 32.7781" id="path8-873" fill="none" stroke="#000000" stroke-width="10"/>
    <path id="generic_pulse" d="m 3572.0012,660.99997 h 282 c 13.329,1.07883 18.9778,7.27785 18.4665,17.58361 l -0.4665,183.41638 c -1.1606,10.8394 -7.6145,16.38546 -18,18 h -282 c -11.2549,-0.74512 -15.9342,-8.06582 -18,-18 l 0.4665,-182.99999 c 1.0671,-11.78314 8.7125,-16.90442 17.5335,-18 z" fill="#777777" stroke="#000000" stroke-width="10"/>
    <path d="m 3583.239,819.74859 32.7781,-98.33423 h 65.5562 l 32.778,98.33423 h 65.5562 l 32.7781,-98.33423 h 32.778" id="path8-80" fill="none" stroke="#000000" stroke-width="10"/>
    <path id="sawtooth" d="m 3572.0012,391.99998 h 282 c 13.329,1.07883 18.9778,7.27785 18.4665,17.58361 l -0.4665,183.41638 c -1.1606,10.8394 -7.6145,16.38546 -18,18 h -282 c -11.2549,-0.74512 -15.9342,-8.06582 -18,-18 l 0.4665,-182.99999 c 1.0671,-11.78314 8.7125,-16.90442 17.5335,-18 z" fill="#777777" stroke="#000000" stroke-width="10"/>
    <path d="m 3581.5268,550.85882 196.6685,-98.33423 v 98.33423 l 65.5561,-32.77808" id="path8-87" fill="none" stroke="#000000" stroke-width="10"/>
    <path id="triangular" d="m 3572.0012,122.99999 h 282 c 13.329,1.07883 18.9778,7.27785 18.4665,17.58361 l -0.4665,183.41638 c -1.1606,10.8394 -7.6145,16.38546 -18,18 h -282 c -11.2549,-0.74512 -15.9342,-8.06582 -18,-18 l 0.4665,-182.99999 c 1.0671,-11.78314 8.7125,-16.90442 17.5335,-18 z" fill="#777777" stroke="#000000" stroke-width="10"/>
    <path d="m 3581.4142,282.16291 98.3342,-98.33423 98.3342,98.33423 65.5562,-65.55616" id="path8-0" fill="none" stroke="#000000" stroke-width="10"/>
    <rect id="rect14-44-4" width="163.64143" height="91.798851" x="2639.0146" y="1481.5698" rx="21.33349" ry="21.33349" fill="#777777" fill-opacity="1" stroke="#000000" stroke-width="12.8001" stroke-linecap="round" stroke-linejoin="round" stroke-dasharray="none" stroke-dashoffset="0" paint-order="stroke fill markers"/>
    <path id="path4-5-3" d="m 2774.0246,1527.4313 -106.3763,-36.2803 0.022,72.6358 z" fill="#000000" fill-opacity="1" stroke="#000000" stroke-width="3.0136" stroke-linecap="round" stroke-linejoin="round" stroke-dasharray="none" stroke-dashoffset="0" paint-order="stroke fill markers"/>
    <rect id="rect14-44-4-5" width="163.64143" height="91.798851" x="-2599.0413" y="1481.5698" rx="21.33349" ry="21.33349" fill="#777777" fill-opacity="1" stroke="#000000" stroke-width="12.8001" stroke-linecap="round" stroke-linejoin="round" stroke-dasharray="none" stroke-dashoffset="0" paint-order="stroke fill markers" transform="scale(-1,1)"/>
    <path id="path4-5-3-6" d="m 2464.0321,1527.4313 106.3763,-36.2803 -0.022,72.6358 z" fill="#000000" fill-opacity="1" stroke="#000000" stroke-width="3.0136" stroke-linecap="round" stroke-linejoin="round" stroke-dasharray="none" stroke-dashoffset="0" paint-order="stroke fill markers"/>
    <circle cx="2614.4878" cy="1272.5159" fill="#d3d3d3" id="circle20" r="158.3654" stroke-width="45.2472"/>
    <path d="m 2773.4071,1144.934 c -110.1297,-106.3158 -257.4047,-53.725 -312.0115,55.3689 79.9254,-133.1046 222.6367,-109.9355 286.5716,-30.6774 z" id="path7" fill="#000000" fill-opacity="1" stroke="#000000" stroke-width="11.9716" stroke-linecap="butt" stroke-linejoin="miter" stroke-opacity="1"/>
    <circle cx="2705.5891" cy="1199.3267" fill="#808080" id="circle18" r="26.477343" stroke-width="13.2387"/>
    <text x="3825.885" y="1686.4351" fill="#787878" font-family="'Droid Sans'" font-size="88.5826" id="text33">COM</text>
    <circle cx="3921.5178" cy="1506.7242" fill="#808080" id="circle34" r="79.724281" stroke-width="39.37"/>
    <text x="3408.5015" y="1685.3638" fill="#787878" font-family="'Droid Sans'" font-size="88.5826" id="text20">SIGNAL</text>
    <circle cx="3558.8062" cy="1507.7954" fill="#cc1414" id="circle21" r="79.724281" stroke-width="39.37"/>
    <path id="noise" d="m 3934.0011,660.99997 h 282 c 13.329,1.07883 18.9778,7.27785 18.4665,17.58361 l -0.4665,183.41638 c -1.1606,10.8394 -7.6145,16.38546 -18,18 h -282 c -11.2549,-0.74512 -15.9342,-8.06582 -18,-18 l 0.4665,-182.99999 c 1.0671,-11.78314 8.7125,-16.90442 17.5335,-18 z" fill="#777777" stroke="#000000" stroke-width="10"/>
    <text x="3935.5833" y="805.26898" id="text17-1-8" font-size="96.9097" font-family="'Droid Sans'" fill="#000000">NOISE</text>
    <path id="fm" d="m 3934.0011,391.99998 h 282 c 13.329,1.07883 18.9778,7.27785 18.4665,17.58361 l -0.4665,183.41638 c -1.1606,10.8394 -7.6145,16.38546 -18,18 h -282 c -11.2549,-0.74512 -15.9342,-8.06582 -18,-18 l 0.4665,-182.99999 c 1.0671,-11.78314 8.7125,-16.90442 17.5335,-18 z" fill="#777777" stroke="#000000" stroke-width="10"/>
    <text x="4009.5833" y="536.1806" id="text12" font-size="96.9097" font-family="'Droid Sans'" fill="#000000">FM</text>
    <path id="am" d="m 3934.0011,122.99999 h 282 c 13.329,1.07883 18.9778,7.27785 18.4665,17.58361 l -0.4665,183.41638 c -1.1606,10.8394 -7.6145,16.38546 -18,18 h -282 c -11.2549,-0.74512 -15.9342,-8.06582 -18,-18 l 0.4665,-182.99999 c 1.0671,-11.78314 8.7125,-16.90442 17.5335,-18 z" fill="#777777" stroke="#000000" stroke-width="10"/>
    <text x="4007.9998" y="267.46457" id="text13" font-size="96.9097" font-family="'Droid Sans'" fill="#000000">AM</text>
    <path id="rand" d="m 3934.0011,928.99996 h 282 c 13.329,1.07883 18.9778,7.27785 18.4665,17.58361 l -0.4665,183.41633 c -1.1606,10.8394 -7.6145,16.3855 -18,18 h -282 c -11.2549,-0.7451 -15.9342,-8.0658 -18,-18 l 0.4665,-182.99994 c 1.0671,-11.78314 8.7125,-16.90442 17.5335,-18 z" fill="#777777" stroke="#000000" stroke-width="10"/>
    <text x="3935.5833" y="1073.4645" id="text14" font-size="96.9097" font-family="'Droid Sans'" fill="#000000">RAND</text>

    <circle id="connector1pin" cx="3921.5178" cy="1506.7242" fill="#303030" r="29.527508" stroke-width="39.37"/>
    <circle id="connector0pin" cx="3558.8066" cy="1507.7954" fill="#303030" r="29.527508" stroke-width="39.37"/>
  </g>
</svg>
