<svg width=".539in" height=".516in" version="1.2" viewBox="0 0 539 516" xmlns="http://www.w3.org/2000/svg" xmlns:xml="http://www.w3.org/XML/1998/namespace">
	<g id="breadboard">
		<rect id="rect1020" x="4.44e-16" y="-2.84e-14" width="539" height="516" fill="#008000" stroke-width="10.4"/>
		<g fill="none">
			<g stroke="#8c8c8c" stroke-linecap="round" stroke-linejoin="round" stroke-width="20">
				<path id="path6" d="m160 470v16.4"/>
				<path id="path8" d="m260 470v16.4"/>
				<path id="path10" d="m360 470v16.4"/>
				<path id="path12" d="m460 470v16.4"/>
			</g>
			<rect id="connector0pin" x="45" y="466" width="30" height="30" stroke-width="13.9"/>
			<g stroke-width="13.9">
				<rect id="connector1pin" x="146" y="466" width="30" height="30"/>
				<rect id="connector2pin" x="245" y="466" width="30" height="30"/>
				<rect id="connector3pin" x="345" y="466" width="30" height="30"/>
				<rect id="connector4pin" x="445" y="466" width="30" height="30"/>
			</g>
		</g>
		<g stroke-width="9.2">
			<rect id="rect40" x="301" y="151" width="76.4" height="214" fill="#141414"/>
			<rect id="rect42" x="141" y="151" width="76.4" height="214" fill="#333"/>
			<path id="path46" d="m141 151v95.2c17.8 0 32.9 16.1 32.9 34.8 0 18.8-15.1 34.8-32.9 34.8v49.6h236v-214zm236 165c-17.8 0-32.9-16.1-32.9-34.8 0-18.8 15.1-34.8 32.9-34.8z" fill="#1a1a1a"/>
			<rect id="rect49" x="141" y="105" width="236" height="44.2"/>
			<rect id="connector6pin" x="141" y="50.1" width="236" height="55" fill="#333"/>
		</g>
		<g fill="none" stroke="#8c8c8c" stroke-linecap="round" stroke-linejoin="round">
			<path id="path1000" d="m60 470v16.4" stroke-width="20"/>
			<g stroke-width="10">
				<path d="m211 363v20.1"/>
				<path d="m311 363v20.1"/>
				<path d="m161 363v20.1"/>
				<path d="m261 363v20.1"/>
				<path d="m361 363v20.1"/>
			</g>
		</g>
		<text id="text176" x="150.5" y="240" fill="#dddddd" font-family="OCRA" font-size="50" stroke-width="30">XL6019</text>
	</g>
</svg>
