<?xml version='1.0' encoding='UTF-8' standalone='no'?>
<svg
  xmlns:dc="http://purl.org/dc/elements/1.1/"
  xmlns:cc="http://creativecommons.org/ns#"
  xmlns:rdf="http://www.w3.org/1999/02/22-rdf-syntax-ns#"
  xmlns:svg="http://www.w3.org/2000/svg"
  xmlns="http://www.w3.org/2000/svg"
  version="1.1"
  id="svg6563"
  viewBox="0 0 910 810"
  height="0.81in"
  width="0.91in">
  <defs
    id="defs6565"
  />
  <metadata
    id="metadata6568">
    <rdf:RDF>
      <cc:Work
        rdf:about="">
        <dc:format>image/svg+xml</dc:format>
        <dc:type
          rdf:resource="http://purl.org/dc/dcmitype/StillImage"
        />
        <dc:title/>
      </cc:Work>
    </rdf:RDF>
  </metadata>
  <g
    id="schematic">
    <rect
      fill="none"
      stroke="#000000"
      stroke-width="10"
      stroke-linecap="round"
      id="rect7"
      height="800"
      width="700"
      y="5"
      x="105"
    />
    <text
      y="759.41534"
      x="461.04837"
      id="label"
      font-size="60"
      font-family="'Droid Sans'"
      text-anchor="middle"
      fill="#000000">4001</text>
    <line
      fill="none"
      stroke="#555555"
      stroke-width="10"
      stroke-linecap="round"
      id="connector6pin"
      y2="705"
      x2="100"
      y1="705"
      x1="5"
    />
    <rect
      fill="none"
      stroke-width="0"
      id="connector6terminal"
      height="10"
      width="10"
      y="700"
      x="0"
    />
    <text
      id="text57"
      y="679.36377"
      x="61.587917"
      font-size="35"
      font-family="'Droid Sans'"
      text-anchor="start"
      fill="#555555">7</text>
    <line
      fill="none"
      stroke="#555555"
      stroke-width="10"
      stroke-linecap="round"
      id="connector13pin"
      y2="105"
      x2="905"
      y1="105"
      x1="810"
    />
    <rect
      fill="none"
      stroke-width="0"
      id="connector13terminal"
      height="10"
      width="10"
      y="100"
      x="900"
    />
    <text
      x="128.01564"
      y="722.57416"
      id="text6039"
      font-size="49"
      font-family="'Droid Sans'"
      text-anchor="start"
      fill="#555555">GND</text>
    <text
      id="text64"
      y="79.703392"
      x="866.22089"
      font-size="35"
      font-family="'Droid Sans'"
      text-anchor="end"
      fill="#555555">14</text>
    <text
      font-size="49"
      x="792.03442"
      y="123.1483"
      id="text5967"
      font-family="'Droid Sans'"
      text-anchor="end"
      fill="#555555">VDD</text>
    <line
      fill="none"
      stroke="#555555"
      stroke-width="10"
      stroke-linecap="round"
      id="connector10pin"
      y2="405"
      x2="905"
      y1="405"
      x1="810"
    />
    <rect
      fill="none"
      stroke-width="0"
      x="900"
      y="400"
      width="10"
      height="10"
      id="connector10terminal"
    />
    <text
      id="text85"
      y="379.91791"
      x="866.00635"
      font-size="35"
      font-family="'Droid Sans'"
      text-anchor="end"
      fill="#555555">11</text>
    <text
      font-size="49"
      x="790.54352"
      y="370.13242"
      id="text5979"
      font-family="'Droid Sans'"
      text-anchor="end"
      fill="#555555">Q4</text>
    <path
      fill="none"
      stroke="#000000"
      stroke-width="10"
      stroke-linecap="square"
      id="path9336"
      d="m 475,255 v 150 h 325"
    />
    <path
      fill="none"
      stroke="#000000"
      stroke-width="10"
      stroke-linecap="square"
      d="m 475,655 v -150 h 325"
      id="path9380"
    />
    <line
      fill="none"
      stroke="#555555"
      stroke-width="10"
      stroke-linecap="round"
      x1="810"
      y1="505"
      x2="905"
      y2="505"
      id="connector9pin"
    />
    <rect
      fill="none"
      stroke-width="0"
      x="900"
      y="500"
      width="10"
      height="10"
      id="connector9terminal"
    />
    <text
      font-size="35"
      x="866.00635"
      y="479.7034"
      id="text92"
      font-family="'Droid Sans'"
      text-anchor="end"
      fill="#555555">10</text>
    <text
      font-size="49"
      x="792.68866"
      y="470.34692"
      id="text5973"
      font-family="'Droid Sans'"
      text-anchor="end"
      fill="#555555">Q3</text>
    <line
      fill="none"
      stroke="#555555"
      stroke-width="10"
      stroke-linecap="round"
      id="connector3pin"
      y2="405"
      x2="100"
      y1="405"
      x1="5"
    />
    <rect
      fill="none"
      stroke-width="0"
      x="0"
      y="400"
      width="10"
      height="10"
      id="connector3terminal"
    />
    <text
      id="text36"
      y="379.27756"
      x="61.019066"
      font-size="35"
      font-family="'Droid Sans'"
      text-anchor="start"
      fill="#555555">4</text>
    <text
      id="text6033"
      y="370.83896"
      x="122.00928"
      font-size="49"
      font-family="'Droid Sans'"
      text-anchor="start"
      fill="#555555">Q2</text>
    <path
      fill="none"
      stroke="#000000"
      stroke-width="10"
      stroke-linecap="square"
      id="path9358"
      d="m 442,555 v -150 h -332"
    />
    <text
      class="text"
      font-size="35"
      x="62.306149"
      y="280.77914"
      id="text29"
      font-family="'Droid Sans'"
      text-anchor="start"
      fill="#555555">3</text>
    <text
      font-size="49"
      x="122.00928"
      y="270.19543"
      id="text5961"
      line-height="125%"
      font-family="'Droid Sans'"
      text-anchor="start"
      fill="#555555">Q1</text>
    <line
      fill="none"
      stroke="#555555"
      stroke-width="10"
      stroke-linecap="round"
      x1="5"
      y1="305"
      x2="100"
      y2="305"
      id="connector2pin"
    />
    <rect
      fill="none"
      stroke-width="0"
      x="0"
      y="300"
      width="10"
      height="10"
      id="connector2terminal"
    />
    <path
      fill="none"
      stroke="#000000"
      stroke-width="10"
      stroke-linecap="square"
      d="m 443,155 v 150 h -332"
      id="path8338"
    />
    <line
      fill="none"
      stroke="#555555"
      stroke-width="10"
      stroke-linecap="round"
      x1="5"
      y1="105"
      x2="100"
      y2="105"
      id="connector0pin"
    />
    <rect
      fill="none"
      stroke-width="0"
      id="connector0terminal"
      height="10"
      width="10"
      y="100"
      x="0"
    />
    <line
      fill="none"
      stroke="#555555"
      stroke-width="10"
      stroke-linecap="round"
      x1="5"
      y1="205"
      x2="100"
      y2="205"
      id="connector1pin"
    />
    <rect
      fill="none"
      stroke-width="0"
      id="connector1terminal"
      height="10"
      width="10"
      y="200"
      x="0"
    />
    <text
      font-size="35"
      x="67.239937"
      y="79.921082"
      id="text15"
      font-family="'Droid Sans'"
      text-anchor="start"
      fill="#555555">1</text>
    <text
      font-size="35"
      x="62.735172"
      y="179.92108"
      id="text22"
      font-family="'Droid Sans'"
      text-anchor="start"
      fill="#555555">2</text>
    <text
      id="text5937"
      y="180.27754"
      x="120.23877"
      font-size="49"
      font-family="'Droid Sans'"
      text-anchor="start"
      fill="#555555">B1</text>
    <text
      font-size="49"
      x="125"
      y="79.848518"
      id="text5913"
      font-family="'Droid Sans'"
      text-anchor="start"
      fill="#555555">A1</text>
    <path
      id="body-4001-0"
      d="m 200.5666,64.99999 h 72.47488 C 344.59895,64.999988 381.29511,155 380.3777,155 c 0,0 -36.69613,90 -108.25363,90 h -72.47488 c 8.99054,-10 16.51326,-26 21.10027,-40 4.58703,-16 7.33924,-33 7.33924,-50 5e-5,-17 -1.83481,-34 -7.33924,-50 -4.58701,-14.00001 -11.00883,-30.00001 -21.10027,-40.00001 z"
      fill="none"
      stroke="#000000"
      stroke-width="10"
      stroke-linecap="butt"
    />
    <path
      id="a-pin-4001-0"
      d="M 107,105 H 219.99999"
      fill="none"
      stroke="#000000"
      stroke-width="10"
      stroke-linecap="butt"
    />
    <path
      id="b-pin-4001-0"
      d="m 108.00001,205 h 112"
      fill="none"
      stroke="#000000"
      stroke-width="10"
      stroke-linecap="butt"
    />
    <path
      fill="none"
      stroke="#000000"
      stroke-width="10"
      stroke-linecap="butt"
      id="q-pin-4001-0"
      d="m 422,155 h 20"
    />
    <circle
      fill="none"
      stroke="#000000"
      stroke-width="10"
      r="20"
      cy="155"
      cx="403"
      id="not-q-4001-0"
    />
    <line
      fill="none"
      stroke="#555555"
      stroke-width="10"
      stroke-linecap="round"
      id="connector5pin"
      y2="605"
      x2="100"
      y1="605"
      x1="5"
    />
    <rect
      fill="none"
      stroke-width="0"
      id="connector5terminal"
      height="10"
      width="10"
      y="600"
      x="0"
    />
    <line
      fill="none"
      stroke="#555555"
      stroke-width="10"
      stroke-linecap="round"
      id="connector4pin"
      y2="505"
      x2="100"
      y1="505"
      x1="5"
    />
    <rect
      fill="none"
      stroke-width="0"
      id="connector4terminal"
      height="10"
      width="10"
      y="500"
      x="0"
    />
    <text
      id="text43"
      y="479.49207"
      x="62.735172"
      font-size="35"
      font-family="'Droid Sans'"
      text-anchor="start"
      fill="#555555">5</text>
    <text
      id="text50"
      y="579.06305"
      x="61.877121"
      font-size="35"
      font-family="'Droid Sans'"
      text-anchor="start"
      fill="#555555">6</text>
    <text
      font-size="49"
      x="120.23877"
      y="580.06305"
      id="text6027"
      font-family="'Droid Sans'"
      text-anchor="start"
      fill="#555555">B2</text>
    <text
      id="text6021"
      y="480.06302"
      x="125"
      font-size="49"
      font-family="'Droid Sans'"
      text-anchor="start"
      fill="#555555">A2</text>
    <path
      d="m 200.43303,465 h 71.9002 c 71.90021,0 108.3172,90 108.3172,90 0,0 -36.41699,90 -108.3172,90 h -71.9002 c 9.33769,-10 15.87407,-26 20.54291,-40 4.66885,-16 7.47016,-33 7.19003,-50 4e-5,-17 -1.86755,-34 -7.19003,-50 -4.66884,-14 -10.27145,-30 -20.54291,-40 z"
      id="path328"
      fill="none"
      stroke="#000000"
      stroke-width="9.99999905"
      stroke-linecap="butt"
    />
    <path
      d="M 104.65045,505 H 220.00001"
      id="path330"
      fill="none"
      stroke="#000000"
      stroke-width="10.00000095"
      stroke-linecap="butt"
    />
    <path
      d="m 106,605 114,-10e-4"
      id="path332"
      fill="none"
      stroke="#000000"
      stroke-width="10"
      stroke-linecap="butt"
    />
    <path
      fill="none"
      stroke="#000000"
      stroke-width="10"
      stroke-linecap="butt"
      d="m 422,555 h 20"
      id="path334"
    />
    <circle
      fill="none"
      stroke="#000000"
      stroke-width="10"
      r="20"
      id="circle336"
      cx="401"
      cy="555"
    />
    <line
      fill="none"
      stroke="#555555"
      stroke-width="10"
      stroke-linecap="round"
      x1="810"
      y1="605"
      x2="905"
      y2="605"
      id="connector8pin"
    />
    <rect
      fill="none"
      stroke-width="0"
      id="connector8terminal"
      height="10"
      width="10"
      y="600"
      x="900"
    />
    <text
      font-size="35"
      x="847.55829"
      y="580.13239"
      id="text99"
      font-family="'Droid Sans'"
      text-anchor="end"
      fill="#555555">9</text>
    <text
      id="text5949"
      y="579.14197"
      x="792.76306"
      font-size="49"
      font-family="'Droid Sans'"
      text-anchor="end"
      fill="#555555">B3</text>
    <line
      fill="none"
      stroke="#555555"
      stroke-width="10"
      stroke-linecap="round"
      x1="810"
      y1="705"
      x2="905"
      y2="705"
      id="connector7pin"
    />
    <rect
      fill="none"
      stroke-width="0"
      id="connector7terminal"
      height="10"
      width="10"
      y="700"
      x="900"
    />
    <text
      font-size="35"
      x="848.6308"
      y="679.05988"
      id="text106"
      font-family="'Droid Sans'"
      text-anchor="end"
      fill="#555555">8</text>
    <text
      font-size="49"
      x="792.68225"
      y="678.49841"
      id="text5925"
      font-family="'Droid Sans'"
      text-anchor="end"
      fill="#555555">A3</text>
    <path
      d="M 714.30159,745 H 642.0683 c -72.2333,0 -108.76828,-90 -108.76828,-90 0,0 36.25609,-90 108.76828,-90 h 72.51218 c -9.01754,10 -15.80394,26 -20.45215,40 -4.64822,16 -7.43715,33 -7.43715,50 -3e-5,17 1.85929,34 7.25122,50 4.64821,14 12.08537,30 20.45216,40 z"
      id="path314"
      fill="none"
      stroke="#000000"
      stroke-width="10"
      stroke-linecap="butt"
    />
    <path
      d="M 806.99997,705 H 689.99996"
      id="path316"
      fill="none"
      stroke="#000000"
      stroke-width="10"
      stroke-linecap="butt"
    />
    <path
      d="M 806.99997,605 H 689.99996"
      id="path318"
      fill="none"
      stroke="#000000"
      stroke-width="10"
      stroke-linecap="butt"
    />
    <path
      fill="none"
      stroke="#000000"
      stroke-width="10"
      stroke-linecap="butt"
      d="m 494,655 h -19"
      id="path320"
    />
    <circle
      fill="none"
      stroke="#000000"
      stroke-width="10"
      r="20"
      id="circle322"
      cx="514"
      cy="655"
    />
    <line
      fill="none"
      stroke="#555555"
      stroke-width="10"
      stroke-linecap="round"
      id="connector12pin"
      y2="205"
      x2="905"
      y1="205"
      x1="810"
    />
    <rect
      fill="none"
      stroke-width="0"
      id="connector12terminal"
      height="10"
      width="10"
      y="200"
      x="900"
    />
    <text
      id="text71"
      y="179.91791"
      x="866.22089"
      font-size="35"
      font-family="'Droid Sans'"
      text-anchor="end"
      fill="#555555">13</text>
    <line
      fill="none"
      stroke="#555555"
      stroke-width="10"
      stroke-linecap="round"
      id="connector11pin"
      y2="305"
      x2="905"
      y1="305"
      x1="810"
    />
    <rect
      fill="none"
      stroke-width="0"
      id="connector11terminal"
      height="10"
      width="10"
      y="300"
      x="900"
    />
    <text
      id="text78"
      y="279.27438"
      x="865.57733"
      font-size="35"
      font-family="'Droid Sans'"
      text-anchor="end"
      fill="#555555">12</text>
    <text
      id="text5955"
      y="179.78125"
      x="790.16064"
      font-size="49"
      font-family="'Droid Sans'"
      text-anchor="end"
      fill="#555555">B4</text>
    <text
      font-size="49"
      x="790.39069"
      y="279.14197"
      id="text5931"
      font-family="'Droid Sans'"
      text-anchor="end"
      fill="#555555">A4</text>
    <path
      d="m 714.05997,345 h -72.42399 c -72.42399,0 -108.63599,-90 -108.63599,-90 0,0 36.212,-90 108.63599,-90 h 72.42399 c -9.28513,10 -15.78471,26 -20.42728,40 -4.64256,16 -7.42811,33 -7.42811,50 -2e-5,17 1.85703,34 7.42811,50 4.64257,14 12.07066,30 20.42728,40 z"
      id="path300"
      fill="none"
      stroke="#000000"
      stroke-width="10"
      stroke-linecap="butt"
    />
    <path
      d="M 806.99997,305 H 689.99996"
      id="path302"
      fill="none"
      stroke="#000000"
      stroke-width="10"
      stroke-linecap="butt"
    />
    <path
      d="M 806.99997,205 H 689.99996"
      id="path304"
      fill="none"
      stroke="#000000"
      stroke-width="10"
      stroke-linecap="butt"
    />
    <path
      fill="none"
      stroke="#000000"
      stroke-width="10"
      stroke-linecap="butt"
      d="m 494,255 h -19"
      id="path306"
    />
    <circle
      fill="none"
      stroke="#000000"
      stroke-width="10"
      r="20"
      id="circle308"
      cx="513"
      cy="255"
    />
  </g>
</svg>
