<?xml version='1.0' encoding='UTF-8' standalone='no'?>
<svg
  xmlns:dc="http://purl.org/dc/elements/1.1/"
  xmlns:cc="http://creativecommons.org/ns#"
  xmlns:rdf="http://www.w3.org/1999/02/22-rdf-syntax-ns#"
  xmlns:svg="http://www.w3.org/2000/svg"
  xmlns="http://www.w3.org/2000/svg"
  width="0.91027236in"
  height="0.79749954in"
  viewBox="0 0 910.27264 797.49979"
  id="svg6563"
  version="1.1">
  <defs
    id="defs6565"
  />
  <metadata
    id="metadata6568">
    <rdf:RDF>
      <cc:Work
        rdf:about="">
        <dc:format>image/svg+xml</dc:format>
        <dc:type
          rdf:resource="http://purl.org/dc/dcmitype/StillImage"
        />
        <dc:title/>
      </cc:Work>
    </rdf:RDF>
  </metadata>
  <g
    id="schematic">
    <rect
      stroke-linecap="round"
      stroke-width="10"
      stroke="#000000"
      fill="none"
      x="105.21711"
      y="5"
      width="690.0481"
      height="787.49982"
      id="rect7"
    />
    <text
      font-size="60"
      id="label"
      x="400.96542"
      y="741.14246"
      font-family="'Droid Sans'"
      text-anchor="middle"
      fill="#000000">4077</text>
    <line
      stroke-linecap="round"
      stroke-width="10"
      stroke="#555555"
      fill="none"
      x1="5.0712123"
      y1="698.74884"
      x2="100.21674"
      y2="698.74884"
      id="connector6pin"
    />
    <rect
      stroke-width="0"
      fill="none"
      x="0.20977323"
      y="693.8894"
      width="10"
      height="10"
      id="connector6terminal"
    />
    <text
      font-size="35"
      x="61.710964"
      y="677.35449"
      id="text57"
      font-family="'Droid Sans'"
      text-anchor="start"
      fill="#555555">7</text>
    <line
      stroke-linecap="round"
      stroke-width="10"
      stroke="#555555"
      fill="none"
      x1="800.7334"
      y1="98.750038"
      x2="904.6554"
      y2="98.750038"
      id="connector13pin"
    />
    <rect
      stroke-width="0"
      fill="none"
      x="900.27264"
      y="93.888519"
      width="10"
      height="10"
      id="connector13terminal"
    />
    <text
      font-size="49"
      id="text6039"
      y="715.38025"
      x="117.89175"
      text-anchor="start"
      fill="#555555">GND</text>
    <text
      font-size="35"
      x="855.52319"
      y="77.359024"
      id="text64"
      font-family="'Droid Sans'"
      text-anchor="end"
      fill="#555555">14</text>
    <text
      id="text5967"
      y="115.25478"
      x="687.75598"
      font-size="49"
      font-family="'Droid Sans'"
      fill="#555555">VDD</text>
    <line
      stroke-linecap="round"
      stroke-width="10"
      stroke="#555555"
      fill="none"
      x1="800.7334"
      y1="398.74976"
      x2="904.6554"
      y2="398.74976"
      id="connector10pin"
    />
    <rect
      stroke-width="0"
      fill="none"
      id="connector10terminal"
      height="10"
      width="10"
      y="393.88895"
      x="900.27264"
    />
    <text
      font-size="35"
      x="855.72119"
      y="377.69272"
      id="text85"
      font-family="'Droid Sans'"
      text-anchor="end"
      fill="#555555">11</text>
    <text
      id="text5979"
      y="367.59274"
      x="780.7951"
      font-size="49"
      font-family="'Droid Sans'"
      text-anchor="end"
      fill="#555555">Q4</text>
    <path
      stroke-linecap="square"
      stroke-width="10"
      stroke="#000000"
      fill="none"
      d="m 465.18955,248.7518 v 149.99883 h 325.00009"
      id="path9336"
    />
    <path
      stroke-linecap="square"
      stroke-width="10"
      stroke="#000000"
      fill="none"
      id="path9380"
      d="m 465.18954,648.7506 v -149.99998 h 325.0001"
    />
    <line
      stroke-linecap="round"
      stroke-width="10"
      stroke="#555555"
      fill="none"
      id="connector9pin"
      y2="498.74872"
      x2="904.6554"
      y1="498.74872"
      x1="800.7334"
    />
    <rect
      stroke-width="0"
      fill="none"
      id="connector9terminal"
      height="10"
      width="10"
      y="493.88934"
      x="900.27264"
    />
    <text
      id="text92"
      y="477.52322"
      x="855.37384"
      font-size="35"
      font-family="'Droid Sans'"
      text-anchor="end">10</text>
    <text
      id="text5973"
      y="467.89474"
      x="773.35583"
      font-size="49"
      font-family="'Droid Sans'"
      text-anchor="end"
      fill="#555555">Q3</text>
    <line
      stroke-linecap="round"
      stroke-width="10"
      stroke="#555555"
      fill="none"
      x1="5.0712123"
      y1="398.74979"
      x2="100.21674"
      y2="398.74979"
      id="connector3pin"
    />
    <rect
      stroke-width="0"
      fill="none"
      id="connector3terminal"
      height="10"
      width="10"
      y="393.88895"
      x="0.20977323"
    />
    <text
      font-size="35"
      x="60.689316"
      y="377.46564"
      id="text36"
      font-family="'Droid Sans'"
      text-anchor="start"
      fill="#555555">4</text>
    <text
      font-size="49"
      x="117.5174"
      y="367.90363"
      id="text6033"
      font-family="'Droid Sans'"
      text-anchor="start"
      fill="#555555">Q2</text>
    <path
      stroke-linecap="square"
      stroke-width="10"
      stroke="#000000"
      fill="none"
      d="m 435.21105,548.74984 v -149.99998 h -325.02164"
      id="path9358"
    />
    <line
      stroke-linecap="round"
      stroke-width="10"
      stroke="#555555"
      fill="none"
      id="connector2pin"
      y2="298.75009"
      x2="100.21674"
      y1="298.75009"
      x1="5.0712123"
    />
    <rect
      stroke-width="0"
      fill="none"
      id="connector2terminal"
      height="10"
      width="10"
      y="293.88858"
      x="0.20977323"
    />
    <text
      id="text29"
      y="277.46234"
      x="62.010586"
      font-size="35"
      font-family="'Droid Sans'"
      fill="#555555">3</text>
    <text
      id="text5961"
      y="267.59988"
      x="116.79539"
      font-size="49"
      font-family="'Droid Sans'"
      text-anchor="start"
      fill="#555555">Q1</text>
    <path
      stroke-linecap="square"
      stroke-width="10"
      stroke="#000000"
      fill="none"
      id="path8338"
      d="m 435.21104,148.75058 v 149.99929 h -325.02163"
    />
    <line
      stroke-linecap="round"
      stroke-width="10"
      stroke="#555555"
      fill="none"
      id="connector0pin"
      y2="98.750046"
      x2="100.21674"
      y1="98.750046"
      x1="5.0712123"
    />
    <rect
      stroke-width="0"
      fill="none"
      x="0.20977323"
      y="93.888519"
      width="10"
      height="10"
      id="connector0terminal"
    />
    <line
      stroke-linecap="round"
      stroke-width="10"
      stroke="#555555"
      fill="none"
      id="connector1pin"
      y2="198.74973"
      x2="100.21674"
      y1="198.74973"
      x1="5.0712123"
    />
    <rect
      stroke-width="0"
      fill="none"
      x="0.20977323"
      y="193.8889"
      width="10"
      height="10"
      id="connector1terminal"
    />
    <text
      id="text15"
      y="76.909737"
      x="67.295662"
      font-size="35"
      font-family="'Droid Sans'"
      text-anchor="start"
      fill="#555555">1</text>
    <text
      id="text22"
      y="176.79108"
      x="62.978176"
      font-size="35"
      font-family="'Droid Sans'"
      text-anchor="start"
      fill="#555555">2</text>
    <text
      text-align="start"
      font-size="49"
      x="115.59691"
      y="177.37598"
      id="text5937"
      font-family="'Droid Sans'"
      text-anchor="start"
      fill="#555555">B1</text>
    <text
      id="text5913"
      y="76.956444"
      x="120.55287"
      font-size="49"
      font-family="'Droid Sans'"
      text-anchor="start"
      fill="#555555">A1</text>
    <path
      d="m 224.63808,58.749596 h 60.53471 c 60.5347,0 90.80206,90.000014 90.80206,90.000014 0,0 -30.26736,90.00001 -90.80206,90.00001 h -60.53471 c 7.56683,-10.00009 13.26732,-25.53116 17.02541,-40.00117 4.13994,-15.93993 5.67508,-33.14609 5.67511,-49.99884 3e-5,-16.85332 -1.53498,-34.06053 -5.67511,-50.001148 -3.75803,-14.468859 -9.45858,-29.99889 -17.02541,-39.998866 z"
      id="body-4077-0"
      fill="none"
      stroke="#000000"
      stroke-width="10.00000095"
      stroke-linecap="butt"
    />
    <path
      id="xbar-4077-0"
      d="m 200.75359,238.74962 h -1.74742 c 9.33333,-10.00009 16.36459,-25.53173 20.99998,-40.00117 5.1064,-15.93993 6.99996,-33.14609 7,-49.99884 4e-5,-16.85332 -1.89325,-34.06053 -7,-50.001148 -4.63531,-14.468859 -11.66665,-29.99889 -20.99998,-39.998866 h 2.26852 c 9.33332,9.999976 16.36712,25.52943 21.00257,39.998866 5.10671,15.940618 6.99745,33.147828 6.99741,50.001148 -6e-5,16.85275 -1.81273,34.08831 -6.99741,49.99884 -4.73496,14.53053 -12.19036,30.00108 -21.52367,40.00117 z"
      fill="none"
      stroke="#000000"
      stroke-width="10"
      stroke-linecap="butt"
    />
    <path
      d="m 110.18941,98.750168 109.81067,-0.0017"
      id="a-pin-4077-0"
      fill="none"
      stroke="#000000"
      stroke-width="10"
      stroke-linecap="butt"
      stroke-linejoin="miter"
    />
    <path
      d="m 100.18942,198.75015 119.81065,-0.003"
      id="b-pin-4077-0"
      fill="none"
      stroke="#000000"
      stroke-width="10"
      stroke-linecap="butt"
    />
    <path
      stroke-linecap="butt"
      stroke-width="10"
      stroke="#000000"
      fill="none"
      d="m 416.5229,148.75016 h 18.66665"
      id="q-pin-4077-0"
    />
    <ellipse
      stroke-width="10"
      stroke="#000000"
      fill="none"
      ry="20"
      rx="18.665346"
      id="not-q-4077-0"
      cx="397.8562"
      cy="148.75006"
    />
    <line
      stroke-linecap="round"
      stroke-width="10"
      stroke="#555555"
      fill="none"
      x1="5.0712123"
      y1="498.74875"
      x2="100.21674"
      y2="498.74875"
      id="connector4pin"
    />
    <rect
      stroke-width="0"
      fill="none"
      x="0.20977323"
      y="493.88934"
      width="10"
      height="10"
      id="connector4terminal"
    />
    <line
      stroke-linecap="round"
      stroke-width="10"
      stroke="#555555"
      fill="none"
      x1="5.0712123"
      y1="598.74915"
      x2="100.21674"
      y2="598.74915"
      id="connector5pin"
    />
    <rect
      stroke-width="0"
      fill="none"
      x="0.20977323"
      y="593.88904"
      width="10"
      height="10"
      id="connector5terminal"
    />
    <text
      font-size="35"
      x="61.588181"
      y="476.92462"
      id="text43"
      font-family="'Droid Sans'"
      text-anchor="start"
      fill="#555555">5</text>
    <text
      font-size="35"
      x="61.710964"
      y="577.05072"
      id="text50"
      font-family="'Droid Sans'"
      text-anchor="start"
      fill="#555555">6</text>
    <text
      id="text6027"
      y="577.63477"
      x="115.35134"
      font-size="49"
      font-family="'Droid Sans'"
      text-anchor="start"
      fill="#555555">B2</text>
    <text
      font-size="49"
      x="120.75919"
      y="477.2099"
      id="text6021"
      font-family="'Droid Sans'"
      text-anchor="start"
      fill="#555555">A2</text>
    <path
      id="path381"
      d="m 226.72021,458.74984 h 60.53396 c 60.53398,0 90.80097,90.00001 90.80097,90.00001 0,0 -30.26699,89.9999 -90.80097,89.9999 h -60.53396 c 7.56675,-9.99998 13.26717,-25.53105 17.02518,-40.00106 4.13992,-15.94004 5.67503,-33.14609 5.67505,-49.99884 4e-5,-16.85332 -1.53493,-34.06064 -5.67505,-50.00115 -3.75797,-14.46886 -9.45843,-29.99889 -17.02518,-39.99886 z"
      fill="none"
      stroke="#000000"
      stroke-width="10"
      stroke-linecap="butt"
    />
    <path
      d="m 200.7536,638.75001 h -1.74742 c 9.33333,-9.99998 16.36459,-25.53162 20.99998,-40.00106 5.1064,-15.94004 6.99996,-33.14609 7,-49.99884 4e-5,-16.85332 -1.89325,-34.06064 -7,-50.00115 -4.63531,-14.46886 -11.66665,-29.99889 -20.99998,-39.99886 h 2.26852 c 9.33332,9.99997 16.36712,25.52943 21.00257,39.99886 5.10671,15.94051 6.99745,33.14783 6.99741,50.00115 -6e-5,16.85275 -1.81273,34.08831 -6.99741,49.99884 -4.73496,14.53053 -12.19036,30.00108 -21.52367,40.00106 z"
      id="path383"
      fill="none"
      stroke="#000000"
      stroke-width="10"
      stroke-linecap="butt"
    />
    <path
      id="path385"
      d="m 110.18941,498.75012 109.81067,-0.002"
      fill="none"
      stroke="#000000"
      stroke-width="10"
      stroke-linecap="butt"
    />
    <path
      id="path387"
      d="m 110.18941,598.7501 109.81067,-0.003"
      fill="none"
      stroke="#000000"
      stroke-width="10"
      stroke-linecap="butt"
    />
    <path
      stroke-linecap="butt"
      stroke-width="10"
      stroke="#000000"
      fill="none"
      id="path389"
      d="m 416.5229,548.75011 h 18.66665"
    />
    <ellipse
      stroke-width="10"
      stroke="#000000"
      fill="none"
      ry="20"
      rx="18.665346"
      cy="548.75018"
      cx="397.8562"
      id="circle391"
    />
    <line
      stroke-linecap="round"
      stroke-width="10"
      stroke="#555555"
      fill="none"
      id="connector8pin"
      y2="598.74915"
      x2="904.6554"
      y1="598.74915"
      x1="800.7334"
    />
    <rect
      stroke-width="0"
      fill="none"
      x="900.27264"
      y="593.88904"
      width="10"
      height="10"
      id="connector8terminal"
    />
    <line
      stroke-linecap="round"
      stroke-width="10"
      stroke="#555555"
      fill="none"
      id="connector7pin"
      y2="698.74878"
      x2="904.6554"
      y1="698.74878"
      x1="800.7334"
    />
    <rect
      stroke-width="0"
      fill="none"
      x="900.27264"
      y="693.8894"
      width="10"
      height="10"
      id="connector7terminal"
    />
    <text
      id="text99"
      y="576.97778"
      x="827.90143"
      font-size="35"
      font-family="'Droid Sans'"
      text-anchor="end"
      fill="#555555">9</text>
    <text
      font-size="49"
      x="782.66364"
      y="576.46893"
      id="text5949"
      font-family="'Droid Sans'"
      text-anchor="end"
      fill="#555555">B3</text>
    <text
      id="text106"
      y="677.15558"
      x="837.28564"
      font-size="35"
      font-family="'Droid Sans'"
      text-anchor="end"
      fill="#555555">8</text>
    <text
      id="text5925"
      y="677.15649"
      x="782.72821"
      font-size="49"
      font-family="'Droid Sans'"
      text-anchor="end"
      fill="#555555">A3</text>
    <path
      id="path365"
      d="M 672.65346,738.74979 H 612.1195 c -60.53396,0 -90.80094,-90.00001 -90.80094,-90.00001 0,0 30.26698,-90.00002 90.80094,-90.00002 h 60.53396 c -7.56674,9.99998 -13.26716,25.53116 -17.02519,40.00117 -4.13991,15.93993 -5.675,33.1461 -5.67504,49.99885 -4e-5,16.85332 1.53491,34.06052 5.67504,50.00114 3.75797,14.46886 9.45845,29.99889 17.02519,39.99887 z"
      fill="none"
      stroke="#000000"
      stroke-width="10"
      stroke-linecap="butt"
    />
    <path
      d="m 700.25373,558.75001 h 1.75142 c -9.35483,9.99998 -16.40231,25.53174 -21.04838,40.00117 -5.11818,15.93993 -7.01608,33.1461 -7.01613,49.99885 -5e-5,16.85332 1.8976,34.06052 7.01613,50.00114 4.64601,14.46886 11.69355,29.99889 21.04838,39.99887 h -2.27374 c -9.35484,-9.99998 -16.40486,-25.52943 -21.05099,-39.99887 -5.11847,-15.94062 -7.01359,-33.14782 -7.01353,-50.00114 4e-5,-16.85275 1.81692,-34.08831 7.01353,-49.99885 4.74588,-14.53064 12.21846,-30.00119 21.57331,-40.00117 z"
      id="path367"
      fill="none"
      stroke="#000000"
      stroke-width="10"
      stroke-linecap="butt"
    />
    <path
      id="path369"
      d="m 800.18962,698.75002 -120.18942,0.002"
      fill="none"
      stroke="#000000"
      stroke-width="10"
      stroke-linecap="butt"
    />
    <path
      id="path371"
      d="m 790.18961,598.75003 -110.18937,0.003"
      fill="none"
      stroke="#000000"
      stroke-width="10"
      stroke-linecap="butt"
    />
    <path
      stroke-linecap="butt"
      stroke-width="10"
      stroke="#000000"
      fill="none"
      id="path373"
      d="m 483.89922,648.75003 h -18.70968"
    />
    <ellipse
      stroke-linecap="butt"
      stroke-width="10"
      stroke="#000000"
      fill="none"
      ry="20"
      rx="18.708378"
      cy="248.25462"
      cx="498.77643"
      id="circle375"
    />
    <line
      stroke-linecap="round"
      stroke-width="10"
      stroke="#555555"
      fill="none"
      x1="800.7334"
      y1="198.74971"
      x2="904.6554"
      y2="198.74971"
      id="connector12pin"
    />
    <rect
      stroke-width="0"
      fill="none"
      x="900.27264"
      y="193.8889"
      width="10"
      height="10"
      id="connector12terminal"
    />
    <line
      stroke-linecap="round"
      stroke-width="10"
      stroke="#555555"
      fill="none"
      x1="800.7334"
      y1="298.75009"
      x2="904.6554"
      y2="298.75009"
      id="connector11pin"
    />
    <rect
      stroke-width="0"
      fill="none"
      x="900.27264"
      y="293.88858"
      width="10"
      height="10"
      id="connector11terminal"
    />
    <text
      font-size="35"
      x="855.72119"
      y="177.08878"
      id="text71"
      font-family="'Droid Sans'"
      text-anchor="end"
      fill="#555555">13</text>
    <text
      font-size="35"
      x="855.42249"
      y="277.39075"
      id="text78"
      font-family="'Droid Sans'"
      text-anchor="end"
      fill="#555555">12</text>
    <text
      font-size="49"
      x="781.21881"
      y="177.17818"
      id="text5955"
      font-family="'Droid Sans'"
      text-anchor="end"
      fill="#555555">B4</text>
    <text
      id="text5931"
      y="277.3551"
      x="780.7951"
      font-size="49"
      font-family="'Droid Sans'"
      text-anchor="end"
      fill="#555555">A4</text>
    <path
      id="path349"
      d="M 672.65345,338.74965 H 612.1195 c -60.53396,0 -90.80094,-90.00002 -90.80094,-90.00002 0,0 30.26698,-89.99989 90.80094,-89.99989 h 60.53395 c -7.56675,9.99997 -13.26717,25.53104 -17.02519,40.00105 -4.1399,15.94005 -5.675,33.1461 -5.67505,49.99884 -3e-5,16.85333 1.53493,34.06053 5.67505,50.00115 3.75797,14.46886 9.45844,29.99889 17.02519,39.99887 z"
      fill="none"
      stroke="#000000"
      stroke-width="10"
      stroke-linecap="butt"
    />
    <path
      d="m 700.25373,158.75018 h 1.75142 c -9.35483,9.99997 -16.40231,25.53162 -21.04838,40.00105 -5.11818,15.94005 -7.01608,33.1461 -7.01613,49.99884 -5e-5,16.85333 1.8976,34.06053 7.01613,50.00115 4.64601,14.46886 11.69355,29.99889 21.04838,39.99887 h -2.27374 c -9.35484,-9.99998 -16.40486,-25.52943 -21.05099,-39.99887 -5.11847,-15.94062 -7.01359,-33.14782 -7.01353,-50.00115 4e-5,-16.85274 1.81692,-34.0883 7.01353,-49.99884 4.74588,-14.53053 12.21846,-30.00108 21.57331,-40.00105 z"
      id="path351"
      fill="none"
      stroke="#000000"
      stroke-width="10"
      stroke-linecap="butt"
      stroke-linejoin="miter"
    />
    <path
      id="path353"
      d="m 800.18962,298.75007 -120.18942,0.002"
      fill="none"
      stroke="#000000"
      stroke-width="10"
      stroke-linecap="butt"
    />
    <path
      id="path355"
      d="m 790.18961,198.75008 -110.18937,0.003"
      fill="none"
      stroke="#000000"
      stroke-width="10"
      stroke-linecap="butt"
    />
    <path
      stroke-linecap="butt"
      stroke-width="10"
      stroke="#000000"
      fill="none"
      id="path357"
      d="m 483.89922,248.75007 h -18.70968"
    />
    <ellipse
      stroke-width="10"
      stroke="#000000"
      fill="none"
      ry="20"
      rx="18.708378"
      cy="649.24762"
      cx="498.40823"
      id="circle359"
    />
  </g>
</svg>
