<?xml version="1.0" encoding="utf-8"?>
<!-- Generator: Adobe Illustrator 16.0.0, SVG Export Plug-In . SVG Version: 6.00 Build 0)  -->
<svg version="1.2" baseProfile="tiny" id="Layer_1" xmlns="http://www.w3.org/2000/svg" xmlns:xlink="http://www.w3.org/1999/xlink"
	 x="0px" y="0px" width="64.8px" height="28.8px" viewBox="0 0 64.8 28.8" xml:space="preserve">
<desc>
	<referenceFile>generic_ic_dip_6_schem.svg</referenceFile>
</desc>
<g id="schematic">
	
		<rect x="14.4" y="0.45" fill="none" stroke="#000000" stroke-linecap="round" stroke-linejoin="round" width="35.551" height="27.9"/>
	<text id="label" transform="matrix(1 0 0 1 23.2681 20.0073)" font-family="'DroidSans'" font-size="3.5">AMPHENOL</text>
	<text id="label0" transform="matrix(1 0 0 1 15.8003 7.8999)" fill="#8C8C8C" font-family="'DroidSans'" font-size="3.5">Sleeve</text>
	<text transform="matrix(1 0 0 1 6.5117 6.1499)" fill="#8C8C8C" font-family="'DroidSans'" font-size="2.5">1</text>
	<text id="label1" transform="matrix(1 0 0 1 15.8003 15.0991)" fill="#8C8C8C" font-family="'DroidSans'" font-size="3.5">Ring</text>
	<text transform="matrix(1 0 0 1 6.5117 13.3501)" fill="#8C8C8C" font-family="'DroidSans'" font-size="2.5">2</text>
	<text id="label2" transform="matrix(1 0 0 1 15.8003 22.3003)" fill="#8C8C8C" font-family="'DroidSans'" font-size="3.5">Tip</text>
	<text transform="matrix(1 0 0 1 6.5117 20.5503)" fill="#8C8C8C" font-family="'DroidSans'" font-size="2.5">3</text>
	<rect x="64.8" y="6.85" fill="none" width="0" height="0.7"/>
	<text id="label5" transform="matrix(1 0 0 1 44.2271 22.3003)" fill="#8C8C8C" font-family="'DroidSans'" font-size="3.5">Tip</text>
	<text transform="matrix(1 0 0 1 56.9106 20.5503)" fill="#8C8C8C" font-family="'DroidSans'" font-size="2.5">6</text>
	<text id="label4" transform="matrix(1 0 0 1 42.1548 15.0991)" fill="#8C8C8C" font-family="'DroidSans'" font-size="3.5">Ring</text>
	<text transform="matrix(1 0 0 1 56.9106 13.3501)" fill="#8C8C8C" font-family="'DroidSans'" font-size="2.5">5</text>
	<g>
		
			<line fill="none" stroke="#787878" stroke-width="0.75" stroke-linecap="round" stroke-linejoin="round" x1="0.35" y1="7.2" x2="14.4" y2="7.2"/>
		<rect id="connector0pin" y="6.85" fill="none" width="14.4" height="0.7"/>
		<rect id="connector0terminal" y="6.85" fill="none" width="0" height="0.7"/>
		
			<line fill="none" stroke="#787878" stroke-width="0.75" stroke-linecap="round" stroke-linejoin="round" x1="0.35" y1="14.4" x2="14.4" y2="14.4"/>
		<rect id="connector1pin" y="14.05" fill="none" width="14.4" height="0.7"/>
		<rect id="connector1terminal" y="14.05" fill="none" width="0" height="0.7"/>
		
			<line fill="none" stroke="#787878" stroke-width="0.75" stroke-linecap="round" stroke-linejoin="round" x1="0.35" y1="21.6" x2="14.4" y2="21.6"/>
		<rect id="connector2pin" y="21.25" fill="none" width="14.4" height="0.701"/>
		<rect id="connector2terminal" y="21.25" fill="none" width="0" height="0.701"/>
		
			<line fill="none" stroke="#787878" stroke-width="0.75" stroke-linecap="round" stroke-linejoin="round" x1="50.05" y1="7.2" x2="64.451" y2="7.2"/>
		<rect id="connector3pin" x="50.4" y="6.85" fill="none" width="14.4" height="0.7"/>
		
			<line fill="none" stroke="#787878" stroke-width="0.75" stroke-linecap="round" stroke-linejoin="round" x1="50.05" y1="14.4" x2="64.451" y2="14.4"/>
		<rect id="connector4terminal" x="64.8" y="14.05" fill="none" width="0" height="0.7"/>
		<rect id="connector4pin" x="50.4" y="14.05" fill="none" width="14.4" height="0.7"/>
		
			<line fill="none" stroke="#787878" stroke-width="0.75" stroke-linecap="round" stroke-linejoin="round" x1="50.05" y1="21.6" x2="64.451" y2="21.6"/>
		<rect id="connector5pin" x="50.4" y="21.25" fill="none" width="14.4" height="0.701"/>
	</g>
	<rect x="64.8" y="21.25" fill="none" width="0" height="0.701"/>
	<text id="label3" transform="matrix(1 0 0 1 38.981 7.8994)" fill="#8C8C8C" font-family="'DroidSans'" font-size="3.5">Sleeve</text>
	<text transform="matrix(1 0 0 1 56.9106 6.1494)" fill="#8C8C8C" font-family="'DroidSans'" font-size="2.5">4</text>
	<text transform="matrix(1 0 0 1 29.2876 24.5913)" font-family="'DroidSans'" font-size="3.5">Jack</text>
</g>
</svg>
