<?xml version="1.0" encoding="utf-8"?>
<!-- Generator: Adobe Illustrator 16.0.0, SVG Export Plug-In . SVG Version: 6.00 Build 0)  -->
<!DOCTYPE svg PUBLIC "-//W3C//DTD SVG 1.1//EN" "http://www.w3.org/Graphics/SVG/1.1/DTD/svg11.dtd">
<svg version="1.1" id="Ebene_1" xmlns:svg="http://www.w3.org/2000/svg"
	 xmlns="http://www.w3.org/2000/svg" xmlns:xlink="http://www.w3.org/1999/xlink" x="0px" y="0px" width="108px" height="180px"
	 viewBox="0 0 108 180" enable-background="new 0 0 108 180" xml:space="preserve">
<g id="schematic">
	
		<rect x="14.85" y="14.85" fill="#FFFFFF" stroke="#000000" stroke-width="0.3175" stroke-linecap="round" width="78.3" height="150.3"/>
	
		<line id="connector61pin" fill="none" stroke="#787878" stroke-width="0.2469" stroke-linecap="round" x1="93.25" y1="28.8" x2="107.65" y2="28.8"/>
	<text transform="matrix(1 0 0 1 82.2441 29.5)" fill="#8C8C8C" font-family="'DroidSans'" font-size="3.5">D0/RX</text>
	<rect id="connector61terminal" x="107.65" y="28.45" fill="none" width="0.699" height="0.7"/>
	
		<line id="connector62pin" fill="none" stroke="#787878" stroke-width="0.2469" stroke-linecap="round" x1="93.25" y1="36" x2="107.65" y2="36"/>
	<text transform="matrix(1 0 0 1 82.4922 36.6992)" fill="#8C8C8C" font-family="'DroidSans'" font-size="3.5">D1/TX</text>
	<rect id="connector62terminal" x="107.65" y="35.65" fill="none" width="0.699" height="0.7"/>
	
		<line id="connector63pin" fill="none" stroke="#787878" stroke-width="0.2469" stroke-linecap="round" x1="93.25" y1="43.2" x2="107.65" y2="43.2"/>
	<text transform="matrix(1 0 0 1 87.5273 43.9004)" fill="#8C8C8C" font-family="'DroidSans'" font-size="3.5">D2</text>
	<rect id="connector63terminal" x="107.65" y="42.85" fill="none" width="0.699" height="0.7"/>
	
		<line id="connector64pin" fill="none" stroke="#787878" stroke-width="0.2469" stroke-linecap="round" x1="93.25" y1="50.4" x2="107.65" y2="50.4"/>
	<text transform="matrix(1 0 0 1 78.4629 51.0996)" fill="#8C8C8C" font-family="'DroidSans'" font-size="3.5">D3 PWM</text>
	<rect id="connector64terminal" x="107.65" y="50.05" fill="none" width="0.699" height="0.7"/>
	
		<line id="connector65pin" fill="none" stroke="#787878" stroke-width="0.2469" stroke-linecap="round" x1="93.25" y1="57.6" x2="107.65" y2="57.6"/>
	<text transform="matrix(1 0 0 1 87.5273 58.3008)" fill="#8C8C8C" font-family="'DroidSans'" font-size="3.5">D4</text>
	<rect id="connector65terminal" x="107.65" y="57.25" fill="none" width="0.699" height="0.7"/>
	
		<line id="connector66pin" fill="none" stroke="#787878" stroke-width="0.2469" stroke-linecap="round" x1="93.25" y1="64.8" x2="107.65" y2="64.8"/>
	<text transform="matrix(1 0 0 1 78.4629 65.5)" fill="#8C8C8C" font-family="'DroidSans'" font-size="3.5">D5 PWM</text>
	<rect id="connector66terminal" x="107.65" y="64.45" fill="none" width="0.699" height="0.7"/>
	
		<line id="connector67pin" fill="none" stroke="#787878" stroke-width="0.2469" stroke-linecap="round" x1="93.25" y1="72" x2="107.65" y2="72"/>
	<text transform="matrix(1 0 0 1 78.4629 72.6992)" fill="#8C8C8C" font-family="'DroidSans'" font-size="3.5">D6 PWM</text>
	<rect id="connector67terminal" x="107.65" y="71.65" fill="none" width="0.699" height="0.7"/>
	
		<line id="connector68pin" fill="none" stroke="#787878" stroke-width="0.2469" stroke-linecap="round" x1="93.25" y1="79.2" x2="107.65" y2="79.2"/>
	<text transform="matrix(1 0 0 1 87.5273 79.9004)" fill="#8C8C8C" font-family="'DroidSans'" font-size="3.5">D7</text>
	<rect id="connector68terminal" x="107.65" y="78.85" fill="none" width="0.699" height="0.7"/>
	
		<line id="connector51pin" fill="none" stroke="#787878" stroke-width="0.2469" stroke-linecap="round" x1="93.25" y1="86.4" x2="107.65" y2="86.4"/>
	<text transform="matrix(1 0 0 1 87.5273 87.0996)" fill="#8C8C8C" font-family="'DroidSans'" font-size="3.5">D8</text>
	<rect id="connector51terminal" x="107.65" y="86.05" fill="none" width="0.699" height="0.7"/>
	
		<line id="connector52pin" fill="none" stroke="#787878" stroke-width="0.2469" stroke-linecap="round" x1="93.25" y1="93.6" x2="107.65" y2="93.6"/>
	<text transform="matrix(1 0 0 1 78.4629 94.3008)" fill="#8C8C8C" font-family="'DroidSans'" font-size="3.5">D9 PWM</text>
	<rect id="connector52terminal" x="107.65" y="93.25" fill="none" width="0.699" height="0.699"/>
	
		<line id="connector53pin" fill="none" stroke="#787878" stroke-width="0.2469" stroke-linecap="round" x1="93.25" y1="100.8" x2="107.65" y2="100.8"/>
	<text transform="matrix(1 0 0 1 71.5977 101.5)" fill="#8C8C8C" font-family="'DroidSans'" font-size="3.5">D10 PWM/SS</text>
	<rect id="connector53terminal" x="107.65" y="100.449" fill="none" width="0.699" height="0.701"/>
	
		<line id="connector54pin" fill="none" stroke="#787878" stroke-width="0.2469" stroke-linecap="round" x1="93.25" y1="108" x2="107.65" y2="108"/>
	<text transform="matrix(1 0 0 1 66.584 108.6992)" fill="#8C8C8C" font-family="'DroidSans'" font-size="3.5">D11 PWM/MOSI</text>
	<rect id="connector54terminal" x="107.65" y="107.65" fill="none" width="0.699" height="0.699"/>
	
		<line id="connector55pin" fill="none" stroke="#787878" stroke-width="0.2469" stroke-linecap="round" x1="93.25" y1="115.2" x2="107.65" y2="115.2"/>
	<text transform="matrix(1 0 0 1 75.6484 115.9004)" fill="#8C8C8C" font-family="'DroidSans'" font-size="3.5">D12/MISO</text>
	<rect id="connector55terminal" x="107.65" y="114.85" fill="none" width="0.699" height="0.7"/>
	<line id="connector41pin" fill="none" x1="93.25" y1="122.4" x2="107.65" y2="122.4"/>
	<rect id="connector41terminal" x="107.65" y="122.05" fill="none" width="0.699" height="0.7"/>
	
		<line id="connector56pin" fill="none" stroke="#787878" stroke-width="0.2469" stroke-linecap="round" x1="93.25" y1="122.4" x2="107.65" y2="122.4"/>
	<text transform="matrix(1 0 0 1 78.3398 123.0996)" fill="#8C8C8C" font-family="'DroidSans'" font-size="3.5">D13/SCK</text>
	<rect id="connector56terminal" x="107.65" y="122.05" fill="none" width="0.699" height="0.7"/>
	
		<line id="connector45pin" fill="none" stroke="#787878" stroke-width="0.2469" stroke-linecap="round" x1="93.25" y1="136.8" x2="107.65" y2="136.8"/>
	<text transform="matrix(1 0 0 1 73.2715 137.5)" fill="#8C8C8C" font-family="'DroidSans'" font-size="3.5">ICSP2 MISO</text>
	<rect id="connector45terminal" x="107.65" y="136.45" fill="none" width="0.699" height="0.7"/>
	
		<line id="connector47pin" fill="none" stroke="#787878" stroke-width="0.2469" stroke-linecap="round" x1="93.25" y1="144" x2="107.65" y2="144"/>
	<text transform="matrix(1 0 0 1 75.9629 144.6992)" fill="#8C8C8C" font-family="'DroidSans'" font-size="3.5">ICSP2 SCK</text>
	<rect id="connector47terminal" x="107.65" y="143.65" fill="none" width="0.699" height="0.699"/>
	
		<line id="connector48pin" fill="none" stroke="#787878" stroke-width="0.2469" stroke-linecap="round" x1="93.25" y1="151.2" x2="107.65" y2="151.2"/>
	<text transform="matrix(1 0 0 1 73.2715 151.9004)" fill="#8C8C8C" font-family="'DroidSans'" font-size="3.5">ICSP2 MOSI</text>
	<rect id="connector48terminal" x="107.65" y="150.85" fill="none" width="0.699" height="0.7"/>
	<line id="connector43pin" fill="none" x1="0.35" y1="28.8" x2="14.75" y2="28.8"/>
	<rect id="connector43terminal" x="-0.35" y="28.45" fill="none" width="0.7" height="0.7"/>
	
		<line id="connector85pin" fill="none" stroke="#787878" stroke-width="0.2469" stroke-linecap="round" x1="0.35" y1="28.8" x2="14.75" y2="28.8"/>
	<text transform="matrix(1 0 0 1 16.1504 29.5)" fill="#8C8C8C" font-family="'DroidSans'" font-size="3.5">RESET</text>
	<rect id="connector85terminal" x="-0.35" y="28.45" fill="none" width="0.7" height="0.7"/>
	
		<line id="connector49pin" fill="none" stroke="#787878" stroke-width="0.2469" stroke-linecap="round" x1="0.35" y1="36" x2="14.75" y2="36"/>
	<text transform="matrix(1 0 0 1 16.1504 36.6992)" fill="#8C8C8C" font-family="'DroidSans'" font-size="3.5">RESET2</text>
	<rect id="connector49terminal" x="-0.35" y="35.65" fill="none" width="0.7" height="0.7"/>
	
		<line id="connector58pin" fill="none" stroke="#787878" stroke-width="0.2469" stroke-linecap="round" x1="0.35" y1="43.2" x2="14.75" y2="43.2"/>
	<text transform="matrix(1 0 0 1 16.1504 43.9004)" fill="#8C8C8C" font-family="'DroidSans'" font-size="3.5">AREF</text>
	<rect id="connector58terminal" x="-0.35" y="42.85" fill="none" width="0.7" height="0.7"/>
	
		<line id="connector84pin" fill="none" stroke="#787878" stroke-width="0.2469" stroke-linecap="round" x1="0.35" y1="50.4" x2="14.75" y2="50.4"/>
	<text transform="matrix(1 0 0 1 16.1504 51.0996)" fill="#8C8C8C" font-family="'DroidSans'" font-size="3.5">IOREF</text>
	<rect id="connector84terminal" x="-0.35" y="50.05" fill="none" width="0.7" height="0.7"/>
	
		<line id="connector0pin" fill="none" stroke="#787878" stroke-width="0.2469" stroke-linecap="round" x1="0.35" y1="64.8" x2="14.75" y2="64.8"/>
	<text transform="matrix(1 0 0 1 16.1504 65.5)" fill="#8C8C8C" font-family="'DroidSans'" font-size="3.5">A0</text>
	<rect id="connector0terminal" x="-0.35" y="64.45" fill="none" width="0.7" height="0.7"/>
	
		<line id="connector1pin" fill="none" stroke="#787878" stroke-width="0.2469" stroke-linecap="round" x1="0.35" y1="72" x2="14.75" y2="72"/>
	<text transform="matrix(1 0 0 1 16.1504 72.6992)" fill="#8C8C8C" font-family="'DroidSans'" font-size="3.5">A1</text>
	<rect id="connector1terminal" x="-0.35" y="71.65" fill="none" width="0.7" height="0.7"/>
	
		<line id="connector2pin" fill="none" stroke="#787878" stroke-width="0.2469" stroke-linecap="round" x1="0.35" y1="79.2" x2="14.75" y2="79.2"/>
	<text transform="matrix(1 0 0 1 16.1504 79.9004)" fill="#8C8C8C" font-family="'DroidSans'" font-size="3.5">A2</text>
	<rect id="connector2terminal" x="-0.35" y="78.85" fill="none" width="0.7" height="0.7"/>
	
		<line id="connector3pin" fill="none" stroke="#787878" stroke-width="0.2469" stroke-linecap="round" x1="0.35" y1="86.4" x2="14.75" y2="86.4"/>
	<text transform="matrix(1 0 0 1 16.1504 87.0996)" fill="#8C8C8C" font-family="'DroidSans'" font-size="3.5">A3</text>
	<rect id="connector3terminal" x="-0.35" y="86.05" fill="none" width="0.7" height="0.7"/>
	<line id="connector39pin" fill="none" x1="0.35" y1="93.6" x2="14.75" y2="93.6"/>
	<rect id="connector39terminal" x="-0.35" y="93.25" fill="none" width="0.7" height="0.699"/>
	
		<line id="connector42pin" fill="none" stroke="#787878" stroke-width="0.2469" stroke-linecap="round" x1="107.65" y1="108" x2="93.251" y2="108"/>
	<rect id="connector42terminal" x="107.65" y="107.65" fill="none" width="0.701" height="0.699"/>
	<line id="connector4pin" fill="none" x1="0.35" y1="93.6" x2="14.75" y2="93.6"/>
	<rect id="connector4terminal" x="-0.35" y="93.25" fill="none" width="0.7" height="0.699"/>
	
		<line id="connector59pin" fill="none" stroke="#787878" stroke-width="0.2469" stroke-linecap="round" x1="0.35" y1="93.6" x2="14.75" y2="93.6"/>
	<text transform="matrix(1 0 0 1 16.1504 94.3008)" fill="#8C8C8C" font-family="'DroidSans'" font-size="3.5">A4/SDA</text>
	<rect id="connector59terminal" x="-0.35" y="93.25" fill="none" width="0.7" height="0.699"/>
	<line id="connector5pin" fill="none" x1="0.35" y1="100.8" x2="14.75" y2="100.8"/>
	<rect id="connector5terminal" x="-0.35" y="100.449" fill="none" width="0.7" height="0.701"/>
	
		<line id="connector60pin" fill="none" stroke="#787878" stroke-width="0.2469" stroke-linecap="round" x1="0.35" y1="100.8" x2="14.75" y2="100.8"/>
	<text transform="matrix(1 0 0 1 16.1504 101.5)" fill="#8C8C8C" font-family="'DroidSans'" font-size="3.5">A5/SCL</text>
	<rect id="connector60terminal" x="-0.35" y="100.449" fill="none" width="0.7" height="0.701"/>
	
		<line id="connector91pin" fill="none" stroke="#787878" stroke-width="0.2469" stroke-linecap="round" x1="0.35" y1="136.8" x2="14.75" y2="136.8"/>
	<text transform="matrix(1 0 0 1 16.1504 137.5)" fill="#8C8C8C" font-family="'DroidSans'" font-size="3.5">N/C</text>
	<rect id="connector91terminal" x="-0.35" y="136.45" fill="none" width="0.7" height="0.7"/>
	<line id="connector88pin" fill="none" x1="57.6" y1="165.25" x2="57.6" y2="179.65"/>
	<rect id="connector88terminal" x="57.25" y="179.65" fill="none" width="0.699" height="0.699"/>
	<line id="connector57pin" fill="none" x1="57.6" y1="165.25" x2="57.6" y2="179.65"/>
	<rect id="connector57terminal" x="57.25" y="179.65" fill="none" width="0.699" height="0.699"/>
	<line id="connector44pin" fill="none" x1="57.6" y1="165.25" x2="57.6" y2="179.65"/>
	<rect id="connector44terminal" x="57.25" y="179.65" fill="none" width="0.699" height="0.699"/>
	<line id="connector50pin" fill="none" x1="57.6" y1="165.25" x2="57.6" y2="179.65"/>
	<rect id="connector50terminal" x="57.25" y="179.65" fill="none" width="0.699" height="0.699"/>
	
		<line id="connector89pin" fill="none" stroke="#787878" stroke-width="0.2469" stroke-linecap="round" x1="57.6" y1="165.25" x2="57.6" y2="179.65"/>
	<g transform="translate(20.5669,57.8026)">
		<g transform="rotate(270)">
			<text transform="matrix(1 0 0 1 -106.047 37.7339)" fill="#8C8C8C" font-family="'DroidSans'" font-size="3.5">GND</text>
		</g>
	</g>
	<rect id="connector89terminal" x="57.25" y="179.65" fill="none" width="0.699" height="0.699"/>
	
		<line id="connector86pin" fill="none" stroke="#787878" stroke-width="0.2469" stroke-linecap="round" x1="36" y1="0.35" x2="36" y2="14.75"/>
	<g transform="translate(12.9469,5.69736)">
		<g transform="rotate(270)">
			<text transform="matrix(1 0 0 1 -16.2948 23.7523)" fill="#8C8C8C" font-family="'DroidSans'" font-size="3.5">3V3</text>
		</g>
	</g>
	<rect id="connector86terminal" x="35.65" y="-0.35" fill="none" width="0.7" height="0.7"/>
	<line id="connector40pin" fill="none" x1="50.4" y1="0.35" x2="50.4" y2="14.75"/>
	<rect id="connector40terminal" x="50.05" y="-0.35" fill="none" width="0.7" height="0.7"/>
	<line id="connector46pin" fill="none" x1="50.4" y1="0.35" x2="50.4" y2="14.75"/>
	<rect id="connector46terminal" x="50.05" y="-0.35" fill="none" width="0.7" height="0.7"/>
	
		<line id="connector87pin" fill="none" stroke="#787878" stroke-width="0.2469" stroke-linecap="round" x1="50.4" y1="0.35" x2="50.4" y2="14.75"/>
	<g transform="translate(18.0269,5.69736)">
		<g transform="rotate(270)">
			<text transform="matrix(1 0 0 1 -14.3671 33.0727)" fill="#8C8C8C" font-family="'DroidSans'" font-size="3.5">5V</text>
		</g>
	</g>
	<rect id="connector87terminal" x="50.05" y="-0.35" fill="none" width="0.7" height="0.7"/>
	
		<line id="connector90pin" fill="none" stroke="#787878" stroke-width="0.2469" stroke-linecap="round" x1="64.8" y1="0.35" x2="64.8" y2="14.75"/>
	<g transform="translate(23.1069,5.69736)">
		<g transform="rotate(270)">
			<text transform="matrix(1 0 0 1 -16.1776 42.3931)" fill="#8C8C8C" font-family="'DroidSans'" font-size="3.5">VIN</text>
		</g>
	</g>
	<rect id="connector90terminal" x="64.449" y="-0.35" fill="none" width="0.701" height="0.7"/>
	<text id="label" transform="matrix(1 0 0 1 46.7871 81.3828)" font-family="'DroidSans'" font-size="4.25">Arduino</text>
	<text id="label_1_" transform="matrix(1 0 0 1 50.4883 85.916)" font-family="'DroidSans'" font-size="4.25">Uno</text>
	<text id="label_2_" transform="matrix(1 0 0 1 48.5938 90.4492)" font-family="'DroidSans'" font-size="4.25">(Rev3)</text>
	<text id="label_3_" transform="matrix(1 0 0 1 50.1426 94.9844)" font-family="'DroidSans'" font-size="4.25">ICSP</text>
</g>
</svg>
