<?xml version='1.0' encoding='UTF-8' standalone='no'?>
<!-- Created with Fritzing (http://www.fritzing.org/) -->
<svg xmlns="http://www.w3.org/2000/svg"  width="1.1in" x="0in" version="1.2" y="0in" height="1.8in" viewBox="0 0 79.2 129.6" baseProfile="tiny">
 <desc >Fritzing schematic generated by brd2svg</desc>
 <g  id="schematic">
  <rect  width="49.95" x="14.4" y="14.4" fill="none" height="100.8" stroke="#000000" stroke-linejoin="round" stroke-linecap="round" stroke-width="0.9"/>
  <text  x="39.6" y="61.3" font-family="'Droid Sans'" fill="#000000" text-anchor="middle" stroke="none" id="label" font-size="3.5">blueIOT</text>
  <text  x="39.6" y="64.8" font-family="'Droid Sans'" fill="#000000" text-anchor="middle" stroke="none" id="label" font-size="3.5">core</text>
  <line  fill="none" stroke="#787878" stroke-linejoin="round" stroke-linecap="round" y1="28.8" stroke-width="0.699998" x1="0.349999" y2="28.8" x2="14.4"/>
  <rect  width="14.4" x="0" y="28.45" fill="none" height="0.699998" id="connector62pin" stroke-width="0" connectorName="RESET"/>
  <rect  width="0" x="0" y="28.45" fill="none" height="0.699998" id="connector62terminal" stroke-width="0"/>
  <text  x="15.8" y="29.5" font-family="'Droid Sans'" fill="#8c8c8c" text-anchor="start" stroke="none" id="label62" font-size="3.5">RESET</text>
  <line  fill="none" stroke="#787878" stroke-linejoin="round" stroke-linecap="round" y1="36" stroke-width="0.699998" x1="0.349999" y2="36" x2="14.4"/>
  <rect  width="14.4" x="0" y="35.65" fill="none" height="0.699998" id="connector72pin" stroke-width="0" connectorName="A0"/>
  <rect  width="0" x="0" y="35.65" fill="none" height="0.699998" id="connector72terminal" stroke-width="0"/>
  <text  x="15.8" y="36.7" font-family="'Droid Sans'" fill="#8c8c8c" text-anchor="start" stroke="none" id="label72" font-size="3.5">A0</text>
  <line  fill="none" stroke="#787878" stroke-linejoin="round" stroke-linecap="round" y1="43.2" stroke-width="0.699998" x1="0.349999" y2="43.2" x2="14.4"/>
  <rect  width="14.4" x="0" y="42.85" fill="none" height="0.699998" id="connector71pin" stroke-width="0" connectorName="A4"/>
  <rect  width="0" x="0" y="42.85" fill="none" height="0.699998" id="connector71terminal" stroke-width="0"/>
  <text  x="15.8" y="43.9" font-family="'Droid Sans'" fill="#8c8c8c" text-anchor="start" stroke="none" id="label71" font-size="3.5">A4</text>
  <line  fill="none" stroke="#787878" stroke-linejoin="round" stroke-linecap="round" y1="50.4" stroke-width="0.699998" x1="0.349999" y2="50.4" x2="14.4"/>
  <rect  width="14.4" x="0" y="50.05" fill="none" height="0.699998" id="connector70pin" stroke-width="0" connectorName="A5"/>
  <rect  width="0" x="0" y="50.05" fill="none" height="0.699998" id="connector70terminal" stroke-width="0"/>
  <text  x="15.8" y="51.1" font-family="'Droid Sans'" fill="#8c8c8c" text-anchor="start" stroke="none" id="label70" font-size="3.5">A5</text>
  <line  fill="none" stroke="#787878" stroke-linejoin="round" stroke-linecap="round" y1="57.6" stroke-width="0.699998" x1="0.349999" y2="57.6" x2="14.4"/>
  <rect  width="14.4" x="0" y="57.25" fill="none" height="0.699998" id="connector73pin" stroke-width="0" connectorName="DTR"/>
  <rect  width="0" x="0" y="57.25" fill="none" height="0.699998" id="connector73terminal" stroke-width="0"/>
  <text  x="15.8" y="58.3" font-family="'Droid Sans'" fill="#8c8c8c" text-anchor="start" stroke="none" id="label73" font-size="3.5">DTR</text>
  <line  fill="none" stroke="#787878" stroke-linejoin="round" stroke-linecap="round" y1="28.8" stroke-width="0.699998" x1="64.45" y2="28.8" x2="78.8501"/>
  <rect  width="14.4" x="64.8" y="28.45" fill="none" connectorname="D2" height="0.699998" id="connector67pin" stroke-width="0"/>
  <rect  width="0" x="79.2" y="28.45" fill="none" height="0.699998" id="connector67terminal" stroke-width="0"/>
  <text  x="63.4" y="29.5" font-family="'Droid Sans'" fill="#8c8c8c" text-anchor="end" stroke="none" id="label67" font-size="3.5">D2</text>
  <line  fill="none" stroke="#787878" stroke-linejoin="round" stroke-linecap="round" y1="36" stroke-width="0.699998" x1="64.45" y2="36" x2="78.8501"/>
  <rect  width="14.4" x="64.8" y="35.65" fill="none" connectorname="D5" height="0.699998" id="connector65pin" stroke-width="0"/>
  <rect  width="0" x="79.2" y="35.65" fill="none" height="0.699998" id="connector65terminal" stroke-width="0"/>
  <text  x="63.4" y="36.7" font-family="'Droid Sans'" fill="#8c8c8c" text-anchor="end" stroke="none" id="label65" font-size="3.5">D5</text>
  <line  fill="none" stroke="#787878" stroke-linejoin="round" stroke-linecap="round" y1="43.2" stroke-width="0.699998" x1="64.45" y2="43.2" x2="78.8501"/>
  <rect  width="14.4" x="64.8" y="42.85" fill="none" connectorname="D8" height="0.699998" id="connector56pin" stroke-width="0"/>
  <rect  width="0" x="79.2" y="42.85" fill="none" height="0.699998" id="connector56terminal" stroke-width="0"/>
  <text  x="63.4" y="43.9" font-family="'Droid Sans'" fill="#8c8c8c" text-anchor="end" stroke="none" id="label56" font-size="3.5">D8</text>
  <line  fill="none" stroke="#787878" stroke-linejoin="round" stroke-linecap="round" y1="50.4" stroke-width="0.699998" x1="64.45" y2="50.4" x2="78.8501"/>
  <rect  width="14.4" x="64.8" y="50.05" fill="none" connectorname="D10" height="0.699998" id="connector57pin" stroke-width="0"/>
  <rect  width="0" x="79.2" y="50.05" fill="none" height="0.699998" id="connector57terminal" stroke-width="0"/>
  <text  x="63.4" y="51.1" font-family="'Droid Sans'" fill="#8c8c8c" text-anchor="end" stroke="none" id="label57" font-size="3.5">D10</text>
  <line  fill="none" stroke="#787878" stroke-linejoin="round" stroke-linecap="round" y1="57.6" stroke-width="0.699998" x1="64.45" y2="57.6" x2="78.8501"/>
  <rect  width="14.4" x="64.8" y="57.25" fill="none" connectorname="TXD" height="0.699998" id="connector66pin" stroke-width="0"/>
  <rect  width="0" x="79.2" y="57.25" fill="none" height="0.699998" id="connector66terminal" stroke-width="0"/>
  <text  x="63.4" y="58.3" font-family="'Droid Sans'" fill="#8c8c8c" text-anchor="end" stroke="none" id="label66" font-size="3.5">TXD</text>
  <line  fill="none" stroke="#787878" stroke-linejoin="round" stroke-linecap="round" y1="64.8" stroke-width="0.699998" x1="64.45" y2="64.8" x2="78.8501"/>
  <rect  width="14.4" x="64.8" y="64.45" fill="none" connectorname="SCK" height="0.699998" id="connector59pin" stroke-width="0"/>
  <rect  width="0" x="79.2" y="64.45" fill="none" height="0.699998" id="connector59terminal" stroke-width="0"/>
  <text  x="63.4" y="65.5" font-family="'Droid Sans'" fill="#8c8c8c" text-anchor="end" stroke="none" id="label59" font-size="3.5">SCK</text>
  <line  fill="none" stroke="#787878" stroke-linejoin="round" stroke-linecap="round" y1="72" stroke-width="0.699998" x1="64.45" y2="72" x2="78.8501"/>
  <rect  width="14.4" x="64.8" y="71.65" fill="none" connectorname="RXD" height="0.699998" id="connector69pin" stroke-width="0"/>
  <rect  width="0" x="79.2" y="71.65" fill="none" height="0.699998" id="connector69terminal" stroke-width="0"/>
  <text  x="63.4" y="72.6998" font-family="'Droid Sans'" fill="#8c8c8c" text-anchor="end" stroke="none" id="label69" font-size="3.5">RXD</text>
  <line  fill="none" stroke="#787878" stroke-linejoin="round" stroke-linecap="round" y1="79.2" stroke-width="0.699998" x1="64.45" y2="79.2" x2="78.8501"/>
  <rect  width="14.4" x="64.8" y="78.8501" fill="none" connectorname="P22" height="0.699998" id="connector64pin" stroke-width="0"/>
  <rect  width="0" x="79.2" y="78.8501" fill="none" height="0.699998" id="connector64terminal" stroke-width="0"/>
  <text  x="63.4" y="79.8998" font-family="'Droid Sans'" fill="#8c8c8c" text-anchor="end" stroke="none" id="label64" font-size="3.5">P22</text>
  <line  fill="none" stroke="#787878" stroke-linejoin="round" stroke-linecap="round" y1="86.4" stroke-width="0.699998" x1="64.45" y2="86.4" x2="78.8501"/>
  <rect  width="14.4" x="64.8" y="86.0501" fill="none" connectorname="P21" height="0.699998" id="connector63pin" stroke-width="0"/>
  <rect  width="0" x="79.2" y="86.0501" fill="none" height="0.699998" id="connector63terminal" stroke-width="0"/>
  <text  x="63.4" y="87.0998" font-family="'Droid Sans'" fill="#8c8c8c" text-anchor="end" stroke="none" id="label63" font-size="3.5">P21</text>
  <line  fill="none" stroke="#787878" stroke-linejoin="round" stroke-linecap="round" y1="93.6" stroke-width="0.699998" x1="64.45" y2="93.6" x2="78.8501"/>
  <rect  width="14.4" x="64.8" y="93.2501" fill="none" connectorname="MOSI" height="0.699998" id="connector58pin" stroke-width="0"/>
  <rect  width="0" x="79.2" y="93.2501" fill="none" height="0.699998" id="connector58terminal" stroke-width="0"/>
  <text  x="63.4" y="94.2998" font-family="'Droid Sans'" fill="#8c8c8c" text-anchor="end" stroke="none" id="label58" font-size="3.5">MOSI</text>
  <line  fill="none" stroke="#787878" stroke-linejoin="round" stroke-linecap="round" y1="100.8" stroke-width="0.699998" x1="64.45" y2="100.8" x2="78.8501"/>
  <rect  width="14.4" x="64.8" y="100.45" fill="none" connectorname="MISO" height="0.699998" id="connector60pin" stroke-width="0"/>
  <rect  width="0" x="79.2" y="100.45" fill="none" height="0.699998" id="connector60terminal" stroke-width="0"/>
  <text  x="63.4" y="101.5" font-family="'Droid Sans'" fill="#8c8c8c" text-anchor="end" stroke="none" id="label60" font-size="3.5">MISO</text>
  <line  fill="none" stroke="#787878" stroke-linejoin="round" stroke-linecap="round" y1="0.349999" stroke-width="0.699998" x1="36" y2="14.4" x2="36"/>
  <rect  width="0.699998" x="35.65" y="0" fill="none" connectorname="VCC" height="14.4" id="connector61pin" stroke-width="0"/>
  <rect  width="0.699998" x="35.65" y="0" fill="none" height="0" id="connector61terminal" stroke-width="0"/>
  <g  transform="matrix(1, 0, 0, 1, 37.4, 16)">
   <g  transform="rotate(270)">
    <text  x="0" y="0" font-family="'Droid Sans'" fill="#8c8c8c" text-anchor="end" stroke="none" id="label61" font-size="3.5">VCC</text>
   </g>
  </g>
  <line  fill="none" stroke="#787878" stroke-linejoin="round" stroke-linecap="round" y1="115.2" stroke-width="0.699998" x1="36" y2="129.25" x2="36"/>
  <rect  width="0.699998" x="35.65" y="115.2" fill="none" connectorname="GND" height="14.4" id="connector68pin" stroke-width="0"/>
  <rect  width="0.699998" x="35.65" y="129.6" fill="none" height="0" id="connector68terminal" stroke-width="0"/>
  <g  transform="matrix(1, 0, 0, 1, 37.4, 113.6)">
   <g  transform="rotate(270)">
    <text  x="0" y="0" font-family="'Droid Sans'" fill="#8c8c8c" text-anchor="start" stroke="none" id="label68" font-size="3.5">GND</text>
   </g>
  </g>
  <rect  width="0.699998" x="35.65" y="115.2" fill="none" connectorname="GND" height="14.4" id="connector74pin" stroke-width="0"/>
  <rect  width="0.699998" x="35.65" y="129.6" fill="none" height="0" id="connector74terminal" stroke-width="0"/>
 </g>
</svg>
