<svg height="3in" viewBox="0 0 3000 3000" width="3in" xmlns="http://www.w3.org/2000/svg">
	<g>
		<g transform="translate(0 77.7778)">
			<g id="schematic">
				<g id="subpart4">
					<path d="m200 200h793.75v500h-793.75z" fill="none" stroke="#000" stroke-linecap="round" stroke-linejoin="round" stroke-width="12.5"/>
					<text id="label" font-family="'Droid Sans'" font-size="48.6111" text-anchor="middle" x="600" y="400">LM1 CN6</text>
					<path d="m4.8611 400h195.1389" fill="none" stroke="#787878" stroke-linecap="round" stroke-linejoin="round" stroke-width="9.7222"/>
					<path id="connector52pin" d="m0 395.139h200v9.7222h-200z" fill="none"/>
					<path id="connector52terminal" d="m0 395.139h.1v9.7222h-.1z" fill="none"/>
					<text id="label0" fill="#8c8c8c" font-family="'Droid Sans'" font-size="48.6111" x="219.444" y="409.722">MICA</text>
					<text fill="#8c8c8c" font-family="Droid Sans" font-size="34.7222" stroke-width="0" text-anchor="middle" x="100" y="385.417">1</text>
					<path d="m4.8611 500h195.1389" fill="none" stroke="#787878" stroke-linecap="round" stroke-linejoin="round" stroke-width="9.7222"/>
					<path id="connector58pin" d="m0 495.139h200v9.7222h-200z" fill="none"/>
					<path id="connector58terminal" d="m0 495.139h.1v9.7222h-.1z" fill="none"/>
					<text id="label3" fill="#8c8c8c" font-family="'Droid Sans'" font-size="48.6111" x="219.444" y="509.722">DLCK</text>
					<text fill="#8c8c8c" font-family="Droid Sans" font-size="34.7222" stroke-width="0" text-anchor="middle" x="100" y="485.417">4</text>
					<path d="m995.139 400h200.001" fill="none" stroke="#787878" stroke-linecap="round" stroke-linejoin="round" stroke-width="9.7222"/>
					<path id="connector51pin" d="m1000 395.139h200v9.7222h-200z" fill="none"/>
					<path id="connector51terminal" d="m1200 395.139h.1v9.7222h-.1z" fill="none"/>
					<text id="label7" fill="#8c8c8c" font-family="'Droid Sans'" font-size="48.6111" text-anchor="end" x="980.556" y="409.722">MICB</text>
					<text fill="#8c8c8c" font-family="Droid Sans" font-size="34.7222" stroke-width="0" text-anchor="middle" x="1100" y="385.417">8</text>
					<path d="m995.139 500h200.001" fill="none" stroke="#787878" stroke-linecap="round" stroke-linejoin="round" stroke-width="9.7222"/>
					<path id="connector53pin" d="m1000 495.139h200v9.7222h-200z" fill="none"/>
					<path id="connector53terminal" d="m1200 495.139h.1v9.7222h-.1z" fill="none"/>
					<text id="label6" fill="#8c8c8c" font-family="'Droid Sans'" font-size="48.6111" text-anchor="end" x="980.556" y="509.722">MIC BIASA</text>
					<text fill="#8c8c8c" font-family="Droid Sans" font-size="34.7222" stroke-width="0" text-anchor="middle" x="1100" y="485.417">7</text>
					<path d="m600 4.8611v195.1389" stroke="#787878" stroke-linecap="round" stroke-linejoin="round" stroke-width="9.7222"/>
					<path id="connector57pin" d="m595.139 0h9.7222v200h-9.7222z" fill="none"/>
					<path id="connector57terminal" d="m595.139 0h9.7222v.1h-9.7222z" fill="none"/>
					<g transform="translate(619.444 222.222)">
						<g transform="matrix(0 -1 1 0 0 0)">
							<text id="label4" fill="#8c8c8c" font-family="'Droid Sans'" font-size="48.6111" text-anchor="end">1.8V</text>
						</g>
					</g>
					<g transform="translate(585.417 100)">
						<g transform="matrix(0 -1 1 0 0 0)">
							<text fill="#8c8c8c" font-family="Droid Sans" font-size="34.7222" stroke-width="0" text-anchor="middle">5</text>
						</g>
					</g>
					<path d="m600 700v195.139" fill="none" stroke="#787878" stroke-linecap="round" stroke-linejoin="round" stroke-width="9.7222"/>
					<path id="connector55pin" d="m595.139 700h9.7222v200h-9.7222z" fill="none"/>
					<path id="connector55terminal" d="m595.139 900h9.7222v.1h-9.7222z" fill="none"/>
					<g transform="translate(619.444 677.778)">
						<g transform="matrix(0 -1 1 0 0 0)">
							<text id="label5" fill="#8c8c8c" font-family="'Droid Sans'" font-size="48.6111">GND</text>
						</g>
					</g>
					<g transform="translate(585.417 800)">
						<g transform="matrix(0 -1 1 0 0 0)">
							<text fill="#8c8c8c" font-family="Droid Sans" font-size="34.7222" stroke-width="0" text-anchor="middle">6</text>
						</g>
					</g>
					<g fill="none">
						<path id="connector56pin" d="m595.139 700h9.7222v200h-9.7222z"/>
						<path id="connector56terminal" d="m595.139 900h9.7222v.1h-9.7222z"/>
						<path id="connector54pin" d="m1000 495.139h200v9.7222h-200z"/>
						<path id="connector54terminal" d="m1200 495.139h.1v9.7222h-.1z"/>
					</g>
				</g>
			</g>
		</g>
		<g id="subpart3">
			<g transform="translate(1400 77.7778)">
				<path d="m200 200h993.75v1000h-993.75z" fill="none" stroke="#000" stroke-linecap="round" stroke-linejoin="round" stroke-width="12.5"/>
				<text id="label" font-family="'Droid Sans'" font-size="48.6111" text-anchor="middle" x="700" y="651.389">LM1 CN9</text>
				<g fill="none">
					<path d="m4.8611 400h195.1389" stroke="#787878" stroke-linecap="round" stroke-linejoin="round" stroke-width="9.7222"/>
					<path id="connector32pin" d="m0 395.139h200v9.7222h-200z"/>
					<path id="connector32terminal" d="m0 395.139h.1v9.7222h-.1z"/>
				</g>
				<text id="label1" fill="#8c8c8c" font-family="'Droid Sans'" font-size="48.6111" x="219.444" y="409.722">SEN_AIN0</text>
				<text fill="#8c8c8c" font-family="Droid Sans" font-size="34.7222" stroke-width="0" text-anchor="middle" x="100" y="385.417">2</text>
				<path d="m4.8611 500h195.1389" fill="none" stroke="#787878" stroke-linecap="round" stroke-linejoin="round" stroke-width="9.7222"/>
				<path id="connector36pin" d="m0 495.139h200v9.7222h-200z" fill="none"/>
				<path id="connector36terminal" d="m0 495.139h.1v9.7222h-.1z" fill="none"/>
				<text id="label3" fill="#8c8c8c" font-family="'Droid Sans'" font-size="48.6111" x="219.444" y="509.722">SCK</text>
				<text fill="#8c8c8c" font-family="Droid Sans" font-size="34.7222" stroke-width="0" text-anchor="middle" x="100" y="485.417">4</text>
				<path d="m4.8611 600h195.1389" fill="none" stroke="#787878" stroke-linecap="round" stroke-linejoin="round" stroke-width="9.7222"/>
				<path id="connector38pin" d="m0 595.139h200v9.7222h-200z" fill="none"/>
				<path id="connector38terminal" d="m0 595.139h.1v9.7222h-.1z" fill="none"/>
				<text id="label4" fill="#8c8c8c" font-family="'Droid Sans'" font-size="48.6111" x="219.444" y="609.722">MISO</text>
				<text fill="#8c8c8c" font-family="Droid Sans" font-size="34.7222" stroke-width="0" text-anchor="middle" x="100" y="585.417">5</text>
				<path d="m4.8611 700h195.1389" fill="none" stroke="#787878" stroke-linecap="round" stroke-linejoin="round" stroke-width="9.7222"/>
				<path id="connector40pin" d="m0 695.139h200v9.7222h-200z" fill="none"/>
				<path id="connector40terminal" d="m0 695.139h.1v9.7222h-.1z" fill="none"/>
				<text id="label5" fill="#8c8c8c" font-family="'Droid Sans'" font-size="48.6111" x="219.444" y="709.722">MOSI</text>
				<text fill="#8c8c8c" font-family="Droid Sans" font-size="34.7222" stroke-width="0" text-anchor="middle" x="100" y="685.417">6</text>
				<path d="m4.8611 800h195.1389" fill="none" stroke="#787878" stroke-linecap="round" stroke-linejoin="round" stroke-width="9.7222"/>
				<path id="connector42pin" d="m0 795.139h200v9.7222h-200z" fill="none"/>
				<path id="connector42terminal" d="m0 795.139h.1v9.7222h-.1z" fill="none"/>
				<text id="label6" fill="#8c8c8c" font-family="'Droid Sans'" font-size="48.6111" x="219.444" y="809.722">CS0</text>
				<text fill="#8c8c8c" font-family="Droid Sans" font-size="34.7222" stroke-width="0" text-anchor="middle" x="100" y="785.417">7</text>
				<path d="m4.8611 900h195.1389" fill="none" stroke="#787878" stroke-linecap="round" stroke-linejoin="round" stroke-width="9.7222"/>
				<path id="connector44pin" d="m0 895.139h200v9.7222h-200z" fill="none"/>
				<path id="connector44terminal" d="m0 895.139h.1v9.7222h-.1z" fill="none"/>
				<text id="label7" fill="#8c8c8c" font-family="'Droid Sans'" font-size="48.6111" x="219.444" y="909.722">CS1</text>
				<text fill="#8c8c8c" font-family="Droid Sans" font-size="34.7222" stroke-width="0" text-anchor="middle" x="100" y="885.417">8</text>
				<path d="m1195.14 400h200" fill="none" stroke="#787878" stroke-linecap="round" stroke-linejoin="round" stroke-width="9.7222"/>
				<path id="connector29pin" d="m1200 395.139h200v9.7222h-200z" fill="none"/>
				<path id="connector29terminal" d="m1400 395.139h.1v9.7222h-.1z" fill="none"/>
				<text id="label15" fill="#8c8c8c" font-family="'Droid Sans'" font-size="48.6111" text-anchor="end" x="1180.56" y="409.722">MAIN POWER</text>
				<text fill="#8c8c8c" font-family="Droid Sans" font-size="34.7222" stroke-width="0" text-anchor="middle" x="1300" y="385.417">1</text>
				<path d="m1195.14 500h200" fill="none" stroke="#787878" stroke-linecap="round" stroke-linejoin="round" stroke-width="9.7222"/>
				<path id="connector31pin" d="m1200 495.139h200v9.7222h-200z" fill="none"/>
				<path id="connector31terminal" d="m1400 495.139h.1v9.7222h-.1z" fill="none"/>
				<text id="label14" fill="#8c8c8c" font-family="'Droid Sans'" font-size="48.6111" text-anchor="end" x="1180.56" y="509.722">SEN_AIN1</text>
				<text fill="#8c8c8c" font-family="Droid Sans" font-size="34.7222" stroke-width="0" text-anchor="middle" x="1300" y="485.417">3</text>
				<path d="m1195.14 600h200" fill="none" stroke="#787878" stroke-linecap="round" stroke-linejoin="round" stroke-width="9.7222"/>
				<path id="connector35pin" d="m1200 595.139h200v9.7222h-200z" fill="none"/>
				<path id="connector35terminal" d="m1400 595.139h.1v9.7222h-.1z" fill="none"/>
				<text id="label12" fill="#8c8c8c" font-family="'Droid Sans'" font-size="48.6111" text-anchor="end" x="1180.56" y="609.722">HIF_IRQ_OUR</text>
				<text fill="#8c8c8c" font-family="Droid Sans" font-size="34.7222" stroke-width="0" text-anchor="middle" x="1300" y="585.417">13</text>
				<path d="m1195.14 700h200" fill="none" stroke="#787878" stroke-linecap="round" stroke-linejoin="round" stroke-width="9.7222"/>
				<path id="connector37pin" d="m1200 695.139h200v9.7222h-200z" fill="none"/>
				<path id="connector37terminal" d="m1400 695.139h.1v9.7222h-.1z" fill="none"/>
				<text id="label11" fill="#8c8c8c" font-family="'Droid Sans'" font-size="48.6111" text-anchor="end" x="1180.56" y="709.722">PWM0</text>
				<text fill="#8c8c8c" font-family="Droid Sans" font-size="34.7222" stroke-width="0" text-anchor="middle" x="1300" y="685.417">12</text>
				<path d="m1195.14 800h200" fill="none" stroke="#787878" stroke-linecap="round" stroke-linejoin="round" stroke-width="9.7222"/>
				<path id="connector39pin" d="m1200 795.139h200v9.7222h-200z" fill="none"/>
				<path id="connector39terminal" d="m1400 795.139h.1v9.7222h-.1z" fill="none"/>
				<text id="label10" fill="#8c8c8c" font-family="'Droid Sans'" font-size="48.6111" text-anchor="end" x="1180.56" y="809.722">PWM1</text>
				<text fill="#8c8c8c" font-family="Droid Sans" font-size="34.7222" stroke-width="0" text-anchor="middle" x="1300" y="785.417">11</text>
				<path d="m1195.14 900h200" fill="none" stroke="#787878" stroke-linecap="round" stroke-linejoin="round" stroke-width="9.7222"/>
				<path id="connector41pin" d="m1200 895.139h200v9.7222h-200z" fill="none"/>
				<path id="connector41terminal" d="m1400 895.139h.1v9.7222h-.1z" fill="none"/>
				<text id="label9" fill="#8c8c8c" font-family="'Droid Sans'" font-size="48.6111" text-anchor="end" x="1180.56" y="909.722">PWM2</text>
				<text fill="#8c8c8c" font-family="Droid Sans" font-size="34.7222" stroke-width="0" text-anchor="middle" x="1300" y="885.417">10</text>
				<path d="m1195.14 1000h200" fill="none" stroke="#787878" stroke-linecap="round" stroke-linejoin="round" stroke-width="9.7222"/>
				<path id="connector43pin" d="m1200 995.139h200v9.7222h-200z" fill="none"/>
				<path id="connector43terminal" d="m1400 995.139h.1v9.7222h-.1z" fill="none"/>
				<text id="label8" fill="#8c8c8c" font-family="'Droid Sans'" font-size="48.6111" text-anchor="end" x="1180.56" y="1009.72">PWM3</text>
				<text fill="#8c8c8c" font-family="Droid Sans" font-size="34.7222" stroke-width="0" text-anchor="middle" x="1300" y="985.417">9</text>
				<path d="m700 4.8611v195.1389" stroke="#787878" stroke-linecap="round" stroke-linejoin="round" stroke-width="9.7222"/>
				<path id="connector33pin" d="m695.139 0h9.7222v200h-9.7222z" fill="none"/>
				<path id="connector33terminal" d="m695.139 0h9.7222v.1h-9.7222z" fill="none"/>
				<g transform="translate(719.444 222.222)">
					<g transform="matrix(0 -1 1 0 0 0)">
						<text id="label13" fill="#8c8c8c" font-family="'Droid Sans'" font-size="48.6111" text-anchor="end">3.3V</text>
					</g>
				</g>
				<g transform="translate(685.417 100)">
					<g transform="matrix(0 -1 1 0 0 0)">
						<text fill="#8c8c8c" font-family="Droid Sans" font-size="34.7222" stroke-width="0" text-anchor="middle">14</text>
					</g>
				</g>
				<path d="m700 1200v195.14" fill="none" stroke="#787878" stroke-linecap="round" stroke-linejoin="round" stroke-width="9.7222"/>
				<path id="connector34pin" d="m695.139 1200h9.7222v200h-9.7222z" fill="none"/>
				<path id="connector34terminal" d="m695.139 1400h9.7222v.1h-9.7222z" fill="none"/>
				<g transform="translate(719.444 1177.78)">
					<g transform="matrix(0 -1 1 0 0 0)">
						<text id="label2" fill="#8c8c8c" font-family="'Droid Sans'" font-size="48.6111">GND</text>
					</g>
				</g>
				<g transform="translate(685.417 1300)">
					<g transform="matrix(0 -1 1 0 0 0)">
						<text fill="#8c8c8c" font-family="Droid Sans" font-size="34.7222" stroke-width="0" text-anchor="middle">3</text>
					</g>
				</g>
				<path id="connector30pin" d="m695.139 1200h9.7222v200h-9.7222z" fill="none"/>
				<path id="connector30terminal" d="m695.139 1400h9.7222v.1h-9.7222z" fill="none"/>
			</g>
		</g>
	</g>
	<g id="subpart1">
		<g transform="translate(0 1100)">
			<path d="m200 200h993.75v1400h-993.75z" fill="none" stroke="#000" stroke-linecap="round" stroke-linejoin="round" stroke-width="12.5"/>
			<text id="label" font-family="'Droid Sans'" font-size="48.6111" text-anchor="middle" x="700" y="851.389">CXD5602PWBMAIN1</text>
			<path d="m4.8611 500h195.1389" fill="none" stroke="#787878" stroke-linecap="round" stroke-linejoin="round" stroke-width="9.7222"/>
			<path id="connector1pin" d="m0 495.139h200v9.7222h-200z" fill="none"/>
			<path id="connector1terminal" d="m0 495.139h.1v9.7222h-.1z" fill="none"/>
			<text id="label1" fill="#8c8c8c" font-family="'Droid Sans'" font-size="48.6111" x="219.444" y="509.722">TX</text>
			<text fill="#8c8c8c" font-family="Droid Sans" font-size="34.7222" stroke-width="0" text-anchor="middle" x="100" y="485.417">2</text>
			<path d="m4.8611 600h195.1389" fill="none" stroke="#787878" stroke-linecap="round" stroke-linejoin="round" stroke-width="9.7222"/>
			<path id="connector2pin" d="m0 595.139h200v9.7222h-200z" fill="none"/>
			<path id="connector2terminal" d="m0 595.139h.1v9.7222h-.1z" fill="none"/>
			<text id="label2" fill="#8c8c8c" font-family="'Droid Sans'" font-size="48.6111" x="219.444" y="609.722">RX</text>
			<text fill="#8c8c8c" font-family="Droid Sans" font-size="34.7222" stroke-width="0" text-anchor="middle" x="100" y="585.417">3</text>
			<path d="m4.8611 700h195.1389" fill="none" stroke="#787878" stroke-linecap="round" stroke-linejoin="round" stroke-width="9.7222"/>
			<path id="connector3pin" d="m0 695.139h200v9.7222h-200z" fill="none"/>
			<path id="connector3terminal" d="m0 695.139h.1v9.7222h-.1z" fill="none"/>
			<text id="label3" fill="#8c8c8c" font-family="'Droid Sans'" font-size="48.6111" x="219.444" y="709.722">RTS</text>
			<text fill="#8c8c8c" font-family="Droid Sans" font-size="34.7222" stroke-width="0" text-anchor="middle" x="100" y="685.417">4</text>
			<path d="m4.8611 800h195.1389" fill="none" stroke="#787878" stroke-linecap="round" stroke-linejoin="round" stroke-width="9.7222"/>
			<path id="connector4pin" d="m0 795.139h200v9.7222h-200z" fill="none"/>
			<path id="connector4terminal" d="m0 795.139h.1v9.7222h-.1z" fill="none"/>
			<text id="label4" fill="#8c8c8c" font-family="'Droid Sans'" font-size="48.6111" x="219.444" y="809.722">CTS</text>
			<text fill="#8c8c8c" font-family="Droid Sans" font-size="34.7222" stroke-width="0" text-anchor="middle" x="100" y="785.417">5</text>
			<path d="m4.8611 900h195.1389" fill="none" stroke="#787878" stroke-linecap="round" stroke-linejoin="round" stroke-width="9.7222"/>
			<path id="connector5pin" d="m0 895.139h200v9.7222h-200z" fill="none"/>
			<path id="connector5terminal" d="m0 895.139h.1v9.7222h-.1z" fill="none"/>
			<text id="label5" fill="#8c8c8c" font-family="'Droid Sans'" font-size="48.6111" x="219.444" y="909.722">I2S BCK</text>
			<text fill="#8c8c8c" font-family="Droid Sans" font-size="34.7222" stroke-width="0" text-anchor="middle" x="100" y="885.417">6</text>
			<path d="m4.8611 1000h195.1389" fill="none" stroke="#787878" stroke-linecap="round" stroke-linejoin="round" stroke-width="9.7222"/>
			<path id="connector6pin" d="m0 995.139h200v9.7222h-200z" fill="none"/>
			<path id="connector6terminal" d="m0 995.139h.1v9.7222h-.1z" fill="none"/>
			<text id="label6" fill="#8c8c8c" font-family="'Droid Sans'" font-size="48.6111" x="219.444" y="1009.72">I2S LRCK</text>
			<text fill="#8c8c8c" font-family="Droid Sans" font-size="34.7222" stroke-width="0" text-anchor="middle" x="100" y="985.417">7</text>
			<path d="m4.8611 1100h195.1389" fill="none" stroke="#787878" stroke-linecap="round" stroke-linejoin="round" stroke-width="9.7222"/>
			<path id="connector7pin" d="m0 1095.14h200v9.7222h-200z" fill="none"/>
			<path id="connector7terminal" d="m0 1095.14h.1v9.7222h-.1z" fill="none"/>
			<text id="label7" fill="#8c8c8c" font-family="'Droid Sans'" font-size="48.6111" x="219.444" y="1109.72">SP CS</text>
			<text fill="#8c8c8c" font-family="Droid Sans" font-size="34.7222" stroke-width="0" text-anchor="middle" x="100" y="1085.42">8</text>
			<path d="m4.8611 1200h195.1389" fill="none" stroke="#787878" stroke-linecap="round" stroke-linejoin="round" stroke-width="9.7222"/>
			<path id="connector8pin" d="m0 1195.14h200v9.7222h-200z" fill="none"/>
			<path id="connector8terminal" d="m0 1195.14h.1v9.7222h-.1z" fill="none"/>
			<text id="label8" fill="#8c8c8c" font-family="'Droid Sans'" font-size="48.6111" x="219.444" y="1209.72">SPI SCK</text>
			<text fill="#8c8c8c" font-family="Droid Sans" font-size="34.7222" stroke-width="0" text-anchor="middle" x="100" y="1185.42">9</text>
			<path d="m4.8611 1300h195.1389" fill="none" stroke="#787878" stroke-linecap="round" stroke-linejoin="round" stroke-width="9.7222"/>
			<path id="connector11pin" d="m0 1295.14h200v9.7222h-200z" fill="none"/>
			<path id="connector11terminal" d="m0 1295.14h.1v9.7222h-.1z" fill="none"/>
			<text id="label11" fill="#8c8c8c" font-family="'Droid Sans'" font-size="48.6111" x="219.444" y="1309.72">D22</text>
			<text fill="#8c8c8c" font-family="Droid Sans" font-size="34.7222" stroke-width="0" text-anchor="middle" x="100" y="1285.42">12</text>
			<path d="m4.8611 1400h195.1389" fill="none" stroke="#787878" stroke-linecap="round" stroke-linejoin="round" stroke-width="9.7222"/>
			<path id="connector12pin" d="m0 1395.14h200v9.7222h-200z" fill="none"/>
			<path id="connector12terminal" d="m0 1395.14h.1v9.7222h-.1z" fill="none"/>
			<text id="label12" fill="#8c8c8c" font-family="'Droid Sans'" font-size="48.6111" x="219.444" y="1409.72">A2</text>
			<text fill="#8c8c8c" font-family="Droid Sans" font-size="34.7222" stroke-width="0" text-anchor="middle" x="100" y="1385.42">13</text>
			<path d="m1195.14 500h200" fill="none" stroke="#787878" stroke-linecap="round" stroke-linejoin="round" stroke-width="9.7222"/>
			<path id="connector25pin" d="m1200 495.139h200v9.7222h-200z" fill="none"/>
			<path id="connector25terminal" d="m1400 495.139h.1v9.7222h-.1z" fill="none"/>
			<text id="label25" fill="#8c8c8c" font-family="'Droid Sans'" font-size="48.6111" text-anchor="end" x="1180.56" y="509.722">XRST_PIN_1.8V</text>
			<text fill="#8c8c8c" font-family="Droid Sans" font-size="34.7222" stroke-width="0" text-anchor="middle" x="1300" y="485.417">26</text>
			<path d="m1195.14 600h200" fill="none" stroke="#787878" stroke-linecap="round" stroke-linejoin="round" stroke-width="9.7222"/>
			<path id="connector22pin" d="m1200 595.139h200v9.7222h-200z" fill="none"/>
			<path id="connector22terminal" d="m1400 595.139h.1v9.7222h-.1z" fill="none"/>
			<text id="label22" fill="#8c8c8c" font-family="'Droid Sans'" font-size="48.6111" text-anchor="end" x="1180.56" y="609.722">D21</text>
			<text fill="#8c8c8c" font-family="Droid Sans" font-size="34.7222" stroke-width="0" text-anchor="middle" x="1300" y="585.417">23</text>
			<path d="m1195.14 700h200" fill="none" stroke="#787878" stroke-linecap="round" stroke-linejoin="round" stroke-width="9.7222"/>
			<path id="connector21pin" d="m1200 695.139h200v9.7222h-200z" fill="none"/>
			<path id="connector21terminal" d="m1400 695.139h.1v9.7222h-.1z" fill="none"/>
			<text id="label21" fill="#8c8c8c" font-family="'Droid Sans'" font-size="48.6111" text-anchor="end" x="1180.56" y="709.722">D20</text>
			<text fill="#8c8c8c" font-family="Droid Sans" font-size="34.7222" stroke-width="0" text-anchor="middle" x="1300" y="685.417">22</text>
			<path d="m1195.14 800h200" fill="none" stroke="#787878" stroke-linecap="round" stroke-linejoin="round" stroke-width="9.7222"/>
			<path id="connector20pin" d="m1200 795.139h200v9.7222h-200z" fill="none"/>
			<path id="connector20terminal" d="m1400 795.139h1v9.7222h-1z" fill="none"/>
			<text id="label20" fill="#8c8c8c" font-family="'Droid Sans'" font-size="48.6111" text-anchor="end" x="1180.56" y="809.722">I2S DIN</text>
			<text fill="#8c8c8c" font-family="Droid Sans" font-size="34.7222" stroke-width="0" text-anchor="middle" x="1300" y="785.417">21</text>
			<path d="m1195.14 900h200" fill="none" stroke="#787878" stroke-linecap="round" stroke-linejoin="round" stroke-width="9.7222"/>
			<path id="connector19pin" d="m1200 895.139h200v9.7222h-200z" fill="none"/>
			<path id="connector19terminal" d="m1400 895.139h.1v9.7222h-.1z" fill="none"/>
			<text id="label19" fill="#8c8c8c" font-family="'Droid Sans'" font-size="48.6111" text-anchor="end" x="1180.56" y="909.722">I2S DOUT</text>
			<text fill="#8c8c8c" font-family="Droid Sans" font-size="34.7222" stroke-width="0" text-anchor="middle" x="1300" y="885.417">20</text>
			<path d="m1195.14 1000h200" fill="none" stroke="#787878" stroke-linecap="round" stroke-linejoin="round" stroke-width="9.7222"/>
			<path id="connector18pin" d="m1200 995.139h200v9.7222h-200z" fill="none"/>
			<path id="connector18terminal" d="m1400 995.139h.1v9.7222h-.1z" fill="none"/>
			<text id="label18" fill="#8c8c8c" font-family="'Droid Sans'" font-size="48.6111" text-anchor="end" x="1180.56" y="1009.72">SPI MISO</text>
			<text fill="#8c8c8c" font-family="Droid Sans" font-size="34.7222" stroke-width="0" text-anchor="middle" x="1300" y="985.417">19</text>
			<path d="m1195.14 1100h200" fill="none" stroke="#787878" stroke-linecap="round" stroke-linejoin="round" stroke-width="9.7222"/>
			<path id="connector17pin" d="m1200 1095.14h200v9.7222h-200z" fill="none"/>
			<path id="connector17terminal" d="m1400 1095.14h.1v9.7222h-.1z" fill="none"/>
			<text id="label17" fill="#8c8c8c" font-family="'Droid Sans'" font-size="48.6111" text-anchor="end" x="1180.56" y="1109.72">SPI MOSI</text>
			<text fill="#8c8c8c" font-family="Droid Sans" font-size="34.7222" stroke-width="0" text-anchor="middle" x="1300" y="1085.42">18</text>
			<path d="m1195.14 1200h200" fill="none" stroke="#787878" stroke-linecap="round" stroke-linejoin="round" stroke-width="9.7222"/>
			<path id="connector15pin" d="m1200 1195.14h200v9.7222h-200z" fill="none"/>
			<path id="connector15terminal" d="m1400 1195.14h.1v9.7222h-.1z" fill="none"/>
			<text id="label15" fill="#8c8c8c" font-family="'Droid Sans'" font-size="48.6111" text-anchor="end" x="1180.56" y="1209.72">I2C SCL</text>
			<text fill="#8c8c8c" font-family="Droid Sans" font-size="34.7222" stroke-width="0" text-anchor="middle" x="1300" y="1185.42">16</text>
			<path d="m1195.14 1300h200" fill="none" stroke="#787878" stroke-linecap="round" stroke-linejoin="round" stroke-width="9.7222"/>
			<path id="connector14pin" d="m1200 1295.14h200v9.7222h-200z" fill="none"/>
			<path id="connector14terminal" d="m1400 1295.14h.1v9.7222h-.1z" fill="none"/>
			<text id="label14" fill="#8c8c8c" font-family="'Droid Sans'" font-size="48.6111" text-anchor="end" x="1180.56" y="1309.72">I2C SDA</text>
			<text fill="#8c8c8c" font-family="Droid Sans" font-size="34.7222" stroke-width="0" text-anchor="middle" x="1300" y="1285.42">15</text>
			<path d="m1195.14 1400h200" fill="none" stroke="#787878" stroke-linecap="round" stroke-linejoin="round" stroke-width="9.7222"/>
			<path id="connector13pin" d="m1200 1395.14h200v9.7222h-200z" fill="none"/>
			<path id="connector13terminal" d="m1400 1395.14h.1v9.7222h-.1z" fill="none"/>
			<text id="label13" fill="#8c8c8c" font-family="'Droid Sans'" font-size="48.6111" text-anchor="end" x="1180.56" y="1409.72">A3</text>
			<text fill="#8c8c8c" font-family="Droid Sans" font-size="34.7222" stroke-width="0" text-anchor="middle" x="1300" y="1385.42">14</text>
			<path d="m500 4.8611v195.1389" stroke="#787878" stroke-linecap="round" stroke-linejoin="round" stroke-width="9.7222"/>
			<path id="connector9pin" d="m495.139 0h9.7222v200h-9.7222z" fill="none"/>
			<path id="connector9terminal" d="m495.139 0h9.7222v.1h-9.7222z" fill="none"/>
			<g transform="translate(519.444 222.222)">
				<g transform="matrix(0 -1 1 0 0 0)">
					<text id="label9" fill="#8c8c8c" font-family="'Droid Sans'" font-size="48.6111" text-anchor="end">3.3V</text>
				</g>
			</g>
			<g transform="translate(485.417 100)">
				<g transform="matrix(0 -1 1 0 0 0)">
					<text fill="#8c8c8c" font-family="Droid Sans" font-size="34.7222" stroke-width="0" text-anchor="middle">10</text>
				</g>
			</g>
			<path d="m600 4.8611v195.1389" stroke="#787878" stroke-linecap="round" stroke-linejoin="round" stroke-width="9.7222"/>
			<path id="connector23pin" d="m595.139 0h9.7222v200h-9.7222z" fill="none"/>
			<path id="connector23terminal" d="m595.139 0h9.7222v.1h-9.7222z" fill="none"/>
			<g transform="translate(619.444 222.222)">
				<g transform="matrix(0 -1 1 0 0 0)">
					<text id="label23" fill="#8c8c8c" font-family="'Droid Sans'" font-size="48.6111" text-anchor="end">EXT_VDD</text>
				</g>
			</g>
			<g transform="translate(585.417 100)">
				<g transform="matrix(0 -1 1 0 0 0)">
					<text fill="#8c8c8c" font-family="Droid Sans" font-size="34.7222" stroke-width="0" text-anchor="middle">24</text>
				</g>
			</g>
			<path d="m700 4.8611v195.1389" stroke="#787878" stroke-linecap="round" stroke-linejoin="round" stroke-width="9.7222"/>
			<path id="connector24pin" d="m695.139 0h9.7222v200h-9.7222z" fill="none"/>
			<path id="connector24terminal" d="m695.139 0h9.7222v.1h-9.7222z" fill="none"/>
			<g transform="translate(719.444 222.222)">
				<g transform="matrix(0 -1 1 0 0 0)">
					<text id="label24" fill="#8c8c8c" font-family="'Droid Sans'" font-size="48.6111" text-anchor="end">1.8V</text>
				</g>
			</g>
			<g transform="translate(685.417 100)">
				<g transform="matrix(0 -1 1 0 0 0)">
					<text fill="#8c8c8c" font-family="Droid Sans" font-size="34.7222" stroke-width="0" text-anchor="middle">25</text>
				</g>
			</g>
			<path d="m700 1600v195.14" fill="none" stroke="#787878" stroke-linecap="round" stroke-linejoin="round" stroke-width="9.7222"/>
			<path id="connector16pin" d="m695.139 1600h9.7222v200h-9.7222z" fill="none"/>
			<path id="connector16terminal" d="m695.139 1800h9.7222v.1h-9.7222z" fill="none"/>
			<g transform="translate(719.444 1577.78)">
				<g transform="matrix(0 -1 1 0 0 0)">
					<text id="label16" fill="#8c8c8c" font-family="'Droid Sans'" font-size="48.6111">GND</text>
				</g>
			</g>
			<g transform="translate(685.417 1700)">
				<g transform="matrix(0 -1 1 0 0 0)">
					<text fill="#8c8c8c" font-family="Droid Sans" font-size="34.7222" stroke-width="0" text-anchor="middle">17</text>
				</g>
			</g>
			<g fill="none">
				<path id="connector10pin" d="m695.139 0h9.7222v200h-9.7222z"/>
				<path id="connector10terminal" d="m695.139 0h9.7222v.1h-9.7222z"/>
				<path id="connector0pin" d="m695.139 1600h9.7222v200h-9.7222z"/>
				<path id="connector0terminal" d="m695.139 1800h9.7222v.1h-9.7222z"/>
			</g>
		</g>
	</g>
	<g id="subpart2">
		<g transform="translate(1800 1700)">
			<path d="m6.25 6.25h393.75v393.75h-393.75z" fill="none" stroke="#000" stroke-linecap="round" stroke-linejoin="round" stroke-width="12.5"/>
			<text id="label" font-family="'Droid Sans'" font-size="48.6111" text-anchor="middle" x="186.25" y="281.389">LM1 CN2</text>
			<g fill="none">
				<path d="m395.139 100h200" stroke="#787878" stroke-linecap="round" stroke-linejoin="round" stroke-width="9.7222"/>
				<path id="connector26pin" d="m400 95.1389h200v9.7222h-200z"/>
				<path id="connector26terminal" d="m600 95.1389h.1v9.7222h-.1z"/>
			</g>
			<text id="label4" fill="#8c8c8c" font-family="'Droid Sans'" font-size="48.6111" text-anchor="end" x="380.556" y="109.722">3.3V</text>
			<text fill="#8c8c8c" font-family="Droid Sans" font-size="34.7222" stroke-width="0" text-anchor="middle" x="500" y="85.4167">1</text>
			<path d="m395.139 200h200" fill="none" stroke="#787878" stroke-linecap="round" stroke-linejoin="round" stroke-width="9.7222"/>
			<path id="connector27pin" d="m400 195.139h200v9.7222h-200z" fill="none"/>
			<path id="connector27terminal" d="m600 195.139h.1v9.7222h-.1z" fill="none"/>
			<text id="label3" fill="#8c8c8c" font-family="'Droid Sans'" font-size="48.6111" text-anchor="end" x="380.556" y="209.722">VDD_LVS</text>
			<text fill="#8c8c8c" font-family="Droid Sans" font-size="34.7222" stroke-width="0" text-anchor="middle" x="500" y="185.417">2</text>
			<path d="m395.139 300h200" fill="none" stroke="#787878" stroke-linecap="round" stroke-linejoin="round" stroke-width="9.7222"/>
			<path id="connector28pin" d="m400 295.139h200v9.7222h-200z" fill="none"/>
			<path id="connector28terminal" d="m600 295.139h.1v9.7222h-.1z" fill="none"/>
			<text id="label2" fill="#8c8c8c" font-family="'Droid Sans'" font-size="48.6111" text-anchor="end" x="380.556" y="309.722">5V</text>
			<text fill="#8c8c8c" font-family="Droid Sans" font-size="34.7222" stroke-width="0" text-anchor="middle" x="500" y="285.417">3</text>
		</g>
	</g>
</svg>

