<?xml version="1.0" encoding="utf-8"?>
<!-- Generator: Adobe Illustrator 16.0.0, SVG Export Plug-In . SVG Version: 6.00 Build 0)  -->
<!DOCTYPE svg PUBLIC "-//W3C//DTD SVG 1.1//EN" "http://www.w3.org/Graphics/SVG/1.1/DTD/svg11.dtd">
<svg version="1.1" id="Layer_1" xmlns="http://www.w3.org/2000/svg" xmlns:xlink="http://www.w3.org/1999/xlink" x="0px" y="0px"
	 width="71.063px" height="178.199px" viewBox="0 0 71.063 178.199" enable-background="new 0 0 71.063 178.199"
	 xml:space="preserve">
<desc>
	<referenceFile>generic_ic_dip_42_schema.svg</referenceFile>
</desc>
<g id="schematic">
	<rect x="14.303" y="14.333" fill="#FFFFFF" stroke="#000000" stroke-miterlimit="10" width="42.459" height="149.282"/>
	<g id="DQuid_IO_GPRS" enable-background="new    ">
		<g id="DQuid">
			<path d="M32.332,141.684c0,0.208-0.027,0.393-0.082,0.55s-0.133,0.29-0.235,0.396c-0.104,0.106-0.23,0.185-0.38,0.238
				c-0.15,0.053-0.319,0.08-0.51,0.08h-0.621v-2.481h0.69c0.173,0,0.33,0.025,0.47,0.078c0.14,0.052,0.259,0.129,0.358,0.231
				s0.175,0.229,0.229,0.382C32.305,141.309,32.332,141.484,32.332,141.684z M31.997,141.693c0-0.165-0.019-0.308-0.056-0.428
				c-0.038-0.121-0.092-0.22-0.163-0.299c-0.071-0.078-0.159-0.136-0.263-0.173c-0.104-0.038-0.223-0.057-0.354-0.057h-0.342v1.94
				h0.274c0.299,0,0.524-0.082,0.676-0.248C31.922,142.263,31.997,142.018,31.997,141.693z"/>
			<path d="M34.908,141.704c0,0.148-0.014,0.286-0.041,0.414c-0.028,0.128-0.069,0.243-0.123,0.345s-0.12,0.191-0.201,0.266
				c-0.081,0.074-0.173,0.133-0.279,0.176c0.049,0.106,0.112,0.2,0.189,0.282s0.167,0.156,0.27,0.223l-0.206,0.242
				c-0.117-0.083-0.224-0.181-0.322-0.292s-0.176-0.24-0.233-0.383c-0.019,0.002-0.041,0.004-0.063,0.005
				c-0.023,0.001-0.045,0.001-0.065,0.001c-0.185,0-0.344-0.031-0.479-0.092c-0.135-0.061-0.247-0.147-0.336-0.259
				c-0.089-0.112-0.155-0.247-0.198-0.405s-0.065-0.333-0.065-0.526c0-0.192,0.022-0.367,0.065-0.523
				c0.043-0.157,0.109-0.291,0.199-0.401s0.202-0.197,0.338-0.257s0.296-0.091,0.48-0.091c0.175,0,0.33,0.031,0.463,0.091
				s0.244,0.146,0.335,0.258c0.091,0.111,0.159,0.245,0.205,0.401C34.886,141.334,34.908,141.51,34.908,141.704z M33.09,141.704
				c0,0.155,0.015,0.294,0.044,0.418c0.03,0.125,0.075,0.229,0.135,0.316c0.061,0.086,0.138,0.153,0.231,0.198
				c0.094,0.046,0.205,0.069,0.333,0.069s0.24-0.023,0.333-0.069c0.094-0.045,0.17-0.112,0.231-0.198
				c0.06-0.087,0.104-0.192,0.133-0.316c0.028-0.124,0.042-0.263,0.042-0.418c0-0.157-0.014-0.296-0.042-0.42
				c-0.029-0.123-0.072-0.228-0.133-0.313c-0.06-0.085-0.136-0.15-0.229-0.196c-0.094-0.045-0.204-0.068-0.333-0.068
				s-0.24,0.022-0.334,0.068s-0.172,0.111-0.232,0.196c-0.062,0.086-0.106,0.19-0.136,0.313
				C33.105,141.408,33.09,141.547,33.09,141.704z"/>
			<path d="M36.623,142.948l-0.046-0.25H36.56c-0.029,0.048-0.062,0.091-0.101,0.126s-0.082,0.065-0.129,0.088
				c-0.046,0.023-0.095,0.041-0.147,0.052c-0.052,0.011-0.105,0.017-0.159,0.017c-0.104,0-0.194-0.013-0.271-0.039
				c-0.078-0.026-0.144-0.067-0.195-0.122s-0.091-0.126-0.118-0.212c-0.026-0.086-0.04-0.188-0.04-0.307v-1.217h0.31v1.2
				c0,0.146,0.03,0.257,0.09,0.331c0.06,0.074,0.152,0.11,0.278,0.11c0.092,0,0.169-0.015,0.231-0.044s0.112-0.072,0.15-0.13
				c0.037-0.057,0.064-0.127,0.081-0.211c0.017-0.084,0.025-0.181,0.025-0.289v-0.967h0.309v1.864L36.623,142.948L36.623,142.948z"
				/>
			<path d="M37.439,140.58c0-0.068,0.018-0.117,0.052-0.147c0.035-0.03,0.078-0.046,0.128-0.046c0.024,0,0.048,0.004,0.07,0.012
				c0.022,0.007,0.041,0.019,0.058,0.034c0.016,0.016,0.029,0.036,0.039,0.061c0.009,0.024,0.015,0.054,0.015,0.087
				c0,0.066-0.019,0.115-0.054,0.147c-0.036,0.032-0.079,0.048-0.128,0.048c-0.051,0-0.094-0.016-0.128-0.047
				C37.457,140.696,37.439,140.646,37.439,140.58z M37.771,142.948h-0.309v-1.863h0.309V142.948z"/>
			<path d="M39.514,142.698H39.5c-0.025,0.039-0.055,0.075-0.088,0.109c-0.033,0.035-0.071,0.065-0.116,0.091
				c-0.043,0.026-0.092,0.046-0.146,0.061c-0.055,0.015-0.116,0.021-0.184,0.021c-0.105,0-0.201-0.02-0.289-0.061
				c-0.087-0.041-0.162-0.102-0.224-0.183c-0.062-0.081-0.11-0.181-0.144-0.301c-0.034-0.12-0.052-0.259-0.052-0.418
				s0.018-0.299,0.052-0.42c0.033-0.12,0.082-0.221,0.144-0.303c0.063-0.082,0.137-0.143,0.224-0.184
				c0.087-0.041,0.183-0.063,0.289-0.063c0.066,0,0.127,0.007,0.182,0.022c0.054,0.015,0.103,0.034,0.146,0.059
				c0.044,0.025,0.082,0.054,0.117,0.086c0.034,0.033,0.063,0.068,0.088,0.104h0.02c-0.004-0.039-0.006-0.075-0.01-0.11
				c-0.003-0.03-0.005-0.06-0.007-0.091s-0.003-0.056-0.003-0.074v-0.74h0.308v2.641h-0.25L39.514,142.698z M39.026,142.725
				c0.086,0,0.158-0.013,0.218-0.039s0.107-0.066,0.145-0.119c0.037-0.053,0.064-0.119,0.082-0.199s0.027-0.173,0.03-0.279v-0.069
				c0-0.114-0.008-0.216-0.023-0.305c-0.015-0.089-0.042-0.164-0.078-0.224c-0.037-0.061-0.085-0.107-0.147-0.138
				c-0.061-0.032-0.137-0.046-0.229-0.046c-0.153,0-0.266,0.062-0.337,0.185c-0.072,0.124-0.107,0.301-0.107,0.532
				c0,0.237,0.035,0.413,0.107,0.529S38.871,142.725,39.026,142.725z"/>
		</g>
		<g id="IO">
			<path d="M42.046,142.948h-0.899v-0.173l0.292-0.069v-1.997l-0.292-0.069v-0.174h0.899v0.174l-0.292,0.069v1.997l0.292,0.069
				V142.948z"/>
			<path d="M44.516,141.704c0,0.191-0.023,0.365-0.069,0.522c-0.046,0.157-0.114,0.292-0.205,0.404
				c-0.091,0.112-0.203,0.198-0.337,0.259c-0.134,0.062-0.29,0.092-0.464,0.092c-0.184,0-0.344-0.031-0.48-0.092
				c-0.135-0.061-0.247-0.147-0.336-0.259c-0.089-0.112-0.155-0.247-0.197-0.405c-0.043-0.157-0.065-0.333-0.065-0.525
				s0.021-0.367,0.065-0.523c0.043-0.157,0.109-0.291,0.198-0.401c0.09-0.111,0.202-0.197,0.338-0.257
				c0.136-0.061,0.296-0.091,0.48-0.091c0.176,0,0.33,0.031,0.463,0.091c0.132,0.06,0.244,0.146,0.335,0.258
				c0.091,0.111,0.158,0.245,0.205,0.402C44.492,141.334,44.516,141.51,44.516,141.704z M42.698,141.704
				c0,0.155,0.015,0.294,0.044,0.418c0.029,0.125,0.074,0.229,0.134,0.316c0.061,0.086,0.138,0.153,0.231,0.198
				c0.094,0.046,0.205,0.069,0.333,0.069c0.129,0,0.241-0.023,0.333-0.069c0.093-0.045,0.17-0.112,0.23-0.198
				c0.061-0.087,0.105-0.192,0.133-0.316c0.029-0.124,0.043-0.263,0.043-0.418c0-0.157-0.014-0.296-0.043-0.42
				c-0.028-0.123-0.072-0.228-0.132-0.313c-0.06-0.085-0.136-0.15-0.23-0.196c-0.093-0.045-0.203-0.068-0.332-0.068
				s-0.24,0.022-0.334,0.068c-0.094,0.046-0.172,0.111-0.233,0.196c-0.06,0.086-0.106,0.19-0.135,0.313
				C42.713,141.408,42.698,141.547,42.698,141.704z"/>
		</g>
		<g id="GPRS">
			<path d="M34.647,145.809h0.822v1.217c-0.062,0.02-0.125,0.038-0.188,0.055c-0.063,0.016-0.129,0.029-0.195,0.04
				c-0.067,0.011-0.138,0.019-0.211,0.025s-0.153,0.008-0.237,0.008c-0.178,0-0.335-0.029-0.472-0.089
				c-0.137-0.059-0.253-0.144-0.347-0.254c-0.094-0.11-0.165-0.244-0.213-0.403c-0.048-0.157-0.073-0.335-0.073-0.532
				c0-0.194,0.026-0.37,0.081-0.528c0.054-0.157,0.132-0.292,0.235-0.401c0.104-0.11,0.23-0.195,0.381-0.255
				c0.151-0.059,0.323-0.089,0.517-0.089c0.125,0,0.246,0.013,0.361,0.038c0.116,0.025,0.223,0.061,0.323,0.108l-0.123,0.275
				c-0.041-0.019-0.084-0.037-0.131-0.055c-0.046-0.017-0.095-0.031-0.145-0.045c-0.05-0.013-0.101-0.023-0.154-0.031
				c-0.052-0.007-0.105-0.012-0.157-0.012c-0.138,0-0.26,0.023-0.366,0.069c-0.106,0.046-0.195,0.111-0.268,0.197
				c-0.072,0.086-0.127,0.191-0.164,0.314c-0.037,0.123-0.056,0.262-0.056,0.418c0,0.146,0.016,0.282,0.046,0.404
				c0.031,0.122,0.081,0.228,0.148,0.316c0.068,0.088,0.156,0.156,0.263,0.206c0.107,0.049,0.237,0.072,0.389,0.072
				c0.05,0,0.095-0.001,0.137-0.004c0.042-0.003,0.08-0.007,0.115-0.012c0.035-0.004,0.068-0.01,0.099-0.016
				c0.031-0.006,0.062-0.013,0.091-0.019v-0.74h-0.508L34.647,145.809L34.647,145.809z"/>
			<path d="M37.543,145.364c0,0.103-0.015,0.202-0.046,0.296c-0.032,0.095-0.083,0.18-0.154,0.253
				c-0.071,0.072-0.166,0.131-0.283,0.175c-0.117,0.043-0.262,0.065-0.434,0.065h-0.254v0.966h-0.316v-2.482h0.615
				c0.152,0,0.282,0.016,0.393,0.048c0.11,0.032,0.2,0.079,0.271,0.141c0.071,0.062,0.124,0.138,0.157,0.229
				C37.526,145.146,37.543,145.249,37.543,145.364z M36.372,145.885h0.219c0.106,0,0.197-0.009,0.276-0.027
				c0.079-0.019,0.144-0.047,0.195-0.087c0.052-0.041,0.09-0.093,0.117-0.157c0.025-0.064,0.039-0.142,0.039-0.233
				c0-0.161-0.046-0.28-0.14-0.357c-0.093-0.077-0.237-0.116-0.435-0.116h-0.271L36.372,145.885L36.372,145.885z"/>
			<path d="M38.375,146.094v1.025H38.06v-2.482h0.604c0.301,0,0.523,0.058,0.667,0.175c0.144,0.117,0.215,0.293,0.215,0.53
				c0,0.098-0.013,0.185-0.042,0.257c-0.027,0.074-0.064,0.137-0.11,0.189c-0.045,0.053-0.098,0.097-0.156,0.132
				c-0.06,0.035-0.12,0.064-0.182,0.086l0.675,1.112H39.36l-0.595-1.025L38.375,146.094L38.375,146.094z M38.375,145.826h0.279
				c0.102,0,0.188-0.01,0.259-0.03c0.071-0.019,0.13-0.049,0.176-0.088c0.046-0.04,0.08-0.088,0.1-0.146
				c0.021-0.058,0.031-0.127,0.031-0.205c0-0.081-0.012-0.15-0.035-0.207s-0.058-0.103-0.105-0.139
				c-0.048-0.036-0.106-0.063-0.178-0.079s-0.157-0.024-0.256-0.024h-0.271L38.375,145.826L38.375,145.826z"/>
			<path d="M41.417,146.456c0,0.109-0.02,0.207-0.059,0.294c-0.039,0.086-0.095,0.159-0.167,0.219
				c-0.073,0.06-0.161,0.106-0.265,0.137c-0.104,0.032-0.221,0.046-0.352,0.046c-0.125,0-0.243-0.009-0.352-0.03
				c-0.109-0.02-0.201-0.049-0.274-0.087v-0.303c0.039,0.019,0.082,0.036,0.131,0.054c0.049,0.019,0.101,0.033,0.155,0.047
				c0.055,0.014,0.11,0.024,0.168,0.033c0.058,0.008,0.115,0.013,0.171,0.013c0.181,0,0.315-0.034,0.402-0.102
				c0.086-0.068,0.13-0.166,0.13-0.292c0-0.061-0.008-0.115-0.024-0.16c-0.017-0.045-0.045-0.087-0.087-0.125
				c-0.041-0.038-0.097-0.074-0.166-0.11s-0.156-0.074-0.261-0.117c-0.101-0.039-0.188-0.083-0.263-0.13
				c-0.074-0.047-0.135-0.1-0.183-0.158c-0.048-0.059-0.083-0.126-0.106-0.201c-0.023-0.075-0.035-0.159-0.035-0.254
				c0-0.1,0.019-0.188,0.055-0.267s0.087-0.144,0.153-0.198c0.065-0.053,0.144-0.094,0.234-0.123
				c0.092-0.029,0.192-0.042,0.301-0.042c0.135,0,0.256,0.013,0.363,0.038s0.204,0.058,0.287,0.098L41.261,145
				c-0.073-0.033-0.156-0.062-0.25-0.086c-0.093-0.024-0.19-0.036-0.29-0.036c-0.138,0-0.244,0.031-0.32,0.096
				c-0.076,0.064-0.114,0.15-0.114,0.259c0,0.064,0.008,0.12,0.025,0.167c0.017,0.047,0.044,0.09,0.084,0.127
				c0.04,0.039,0.092,0.074,0.157,0.107c0.064,0.033,0.145,0.068,0.24,0.106c0.103,0.041,0.193,0.083,0.271,0.125
				c0.077,0.043,0.143,0.092,0.194,0.146s0.091,0.117,0.118,0.188C41.403,146.274,41.417,146.358,41.417,146.456z"/>
		</g>
	</g>
	<g id="_x33_8">
		
			<line id="_x3C_Tracciato38_x3E_" fill="none" stroke="#787878" stroke-width="0.75" stroke-linecap="round" stroke-linejoin="round" x1="56.763" y1="43.053" x2="71.063" y2="43.053"/>
		<rect id="connector38pin" x="56.762" y="42.705" fill="none" width="14.303" height="0.695"/>
		<rect id="connector38terminal" x="71.063" y="42.705" fill="none" width="0" height="0.695"/>
		
			<text id="_x35_V_Out_2_" transform="matrix(1 0 0 1 46.376 43.5298)" fill="#8C8C8C" font-family="'DroidSans'" font-size="3.0047">5V Out</text>
		<text transform="matrix(1 0 0 1 62.9927 42.0103)" fill="#8C8C8C" font-family="'DroidSans'" font-size="2.4831">38</text>
	</g>
	<g id="_x34_2">
		
			<line id="_x3C_Tracciato42_x3E_" fill="none" stroke="#787878" stroke-width="0.75" stroke-linecap="round" stroke-linejoin="round" x1="28.795" y1="14.421" x2="28.795" y2="0.121"/>
		<rect id="connector42pin" x="28.447" y="0.121" fill="none" width="0.695" height="14.302"/>
		<rect id="connector42terminal" x="28.795" y="-0.227" fill="none" width="0" height="0.695"/>
		
			<text id="Not_connected" transform="matrix(-4.371139e-008 -1 1 -4.371139e-008 29.1426 35.8008)" fill="#8C8C8C" font-family="'DroidSans'" font-size="3.0047">Not connected</text>
		
			<text transform="matrix(-4.371139e-008 -1 1 -4.371139e-008 27.7515 8.1914)" fill="#8C8C8C" font-family="'DroidSans'" font-size="2.4831">42</text>
	</g>
	<g id="_x34_1">
		
			<line id="_x3C_Tracciato41_x3E_" fill="none" stroke="#787878" stroke-width="0.75" stroke-linecap="round" stroke-linejoin="round" x1="35.946" y1="14.421" x2="35.946" y2="0.121"/>
		<rect id="connector41pin" x="35.599" y="0.121" fill="none" width="0.695" height="14.302"/>
		<rect id="connector41terminal" x="35.947" y="-0.227" fill="none" width="0" height="0.695"/>
		
			<text id="_x35_V_Out" transform="matrix(-4.371139e-008 -1 1 -4.371139e-008 36.2939 24.6113)" fill="#8C8C8C" font-family="'DroidSans'" font-size="3.0047">5V Out</text>
		
			<text transform="matrix(-4.371139e-008 -1 1 -4.371139e-008 34.9033 8.1914)" fill="#8C8C8C" font-family="'DroidSans'" font-size="2.4831">41</text>
	</g>
	<g id="_x34_0">
		
			<line id="_x3C_Tracciato40_x3E_" fill="none" stroke="#787878" stroke-width="0.75" stroke-linecap="round" stroke-linejoin="round" x1="56.763" y1="28.75" x2="71.063" y2="28.75"/>
		<rect id="connector40pin" x="56.762" y="28.402" fill="none" width="14.303" height="0.695"/>
		<rect id="connector40terminal" x="71.063" y="28.402" fill="none" width="0" height="0.695"/>
		
			<text id="Not_connected_6_" transform="matrix(1 0 0 1 35.7622 29.0981)" fill="#8C8C8C" font-family="'DroidSans'" font-size="3.0047">Not connected</text>
		<text transform="matrix(1 0 0 1 62.9927 27.707)" fill="#8C8C8C" font-family="'DroidSans'" font-size="2.4831">40</text>
	</g>
	<g id="_x33_9">
		
			<line id="_x3C_Tracciato39" fill="none" stroke="#787878" stroke-width="0.75" stroke-linecap="round" stroke-linejoin="round" x1="56.763" y1="35.901" x2="71.063" y2="35.901"/>
		<rect id="connector39pin" x="56.762" y="35.554" fill="none" width="14.303" height="0.695"/>
		<rect id="connector39terminal" x="71.063" y="35.554" fill="none" width="0" height="0.695"/>
		
			<text id="_x33_.3V_Out" transform="matrix(1 0 0 1 43.915 36.2485)" fill="#8C8C8C" font-family="'DroidSans'" font-size="3.0047">3.3V Out</text>
		<text transform="matrix(1 0 0 1 62.9927 34.8589)" fill="#8C8C8C" font-family="'DroidSans'" font-size="2.4831">39</text>
	</g>
	<g id="_x33_7">
		
			<line id="_x3C_Tracciato37_x3E_" fill="none" stroke="#787878" stroke-width="0.75" stroke-linecap="round" stroke-linejoin="round" x1="56.763" y1="50.204" x2="71.063" y2="50.204"/>
		<rect id="connector37pin" x="56.762" y="49.856" fill="none" width="14.303" height="0.694"/>
		<rect id="connector37terminal" x="71.063" y="49.856" fill="none" width="0" height="0.694"/>
		<text id="GND_1_" transform="matrix(1 0 0 1 49.2163 50.4946)" fill="#8C8C8C" font-family="'DroidSans'" font-size="3.0047">GND</text>
		<text transform="matrix(1 0 0 1 62.9927 49.1606)" fill="#8C8C8C" font-family="'DroidSans'" font-size="2.4831">37</text>
	</g>
	<g id="_x33_6">
		
			<line id="_x3C_Tracciato36_x3E_" fill="none" stroke="#787878" stroke-width="0.75" stroke-linecap="round" stroke-linejoin="round" x1="56.763" y1="57.355" x2="71.063" y2="57.355"/>
		<rect id="connector36pin" x="56.762" y="57.007" fill="none" width="14.303" height="0.695"/>
		<rect id="connector36terminal" x="71.063" y="57.007" fill="none" width="0" height="0.695"/>
		<text id="GND" transform="matrix(1 0 0 1 49.2163 56.8403)" fill="#8C8C8C" font-family="'DroidSans'" font-size="3.0047">GND</text>
		<text transform="matrix(1 0 0 1 62.9927 56.3115)" fill="#8C8C8C" font-family="'DroidSans'" font-size="2.4831">36</text>
	</g>
	<g id="_x33_5">
		
			<line id="_x3C_Tracciato35_x3E_" fill="none" stroke="#787878" stroke-width="0.75" stroke-linecap="round" stroke-linejoin="round" x1="56.763" y1="64.506" x2="71.063" y2="64.506"/>
		<rect id="connector35pin" x="56.762" y="64.159" fill="none" width="14.303" height="0.695"/>
		<rect id="connector35terminal" x="71.063" y="64.159" fill="none" width="0" height="0.695"/>
		<text id="usr_12VIn" transform="matrix(1 0 0 1 43.4077 65.2012)" fill="#8C8C8C" font-family="'DroidSans'" font-size="3.0047">usr12VIn</text>
		<text transform="matrix(1 0 0 1 62.9927 63.4639)" fill="#8C8C8C" font-family="'DroidSans'" font-size="2.4831">35</text>
	</g>
	<g id="_x33_4">
		
			<line id="_x3C_Tracciato34_x3E_" fill="none" stroke="#787878" stroke-width="0.75" stroke-linecap="round" stroke-linejoin="round" x1="56.763" y1="71.657" x2="71.063" y2="71.657"/>
		<rect id="connector34pin" x="56.762" y="71.31" fill="none" width="14.303" height="0.695"/>
		<rect id="connector34terminal" x="71.063" y="71.31" fill="none" width="0" height="0.695"/>
		<text id="A0" transform="matrix(1 0 0 1 52.0537 72.353)" fill="#8C8C8C" font-family="'DroidSans'" font-size="3.0047">A0</text>
		<text transform="matrix(1 0 0 1 62.9927 70.6152)" fill="#8C8C8C" font-family="'DroidSans'" font-size="2.4831">34</text>
	</g>
	<g id="_x33_3">
		
			<line id="_x3C_Tracciato33_x3E_" fill="none" stroke="#787878" stroke-width="0.75" stroke-linecap="round" stroke-linejoin="round" x1="56.763" y1="78.809" x2="71.063" y2="78.809"/>
		<rect id="connector33pin" x="56.762" y="78.461" fill="none" width="14.303" height="0.695"/>
		<rect id="connector33terminal" x="71.063" y="78.461" fill="none" width="0" height="0.695"/>
		
			<text id="Not_connected_2_" transform="matrix(1 0 0 1 35.3413 79.5029)" fill="#8C8C8C" font-family="'DroidSans'" font-size="3.0047">Not Connected</text>
		<text transform="matrix(1 0 0 1 62.9927 77.7661)" fill="#8C8C8C" font-family="'DroidSans'" font-size="2.4831">33</text>
	</g>
	<g id="_x33_2">
		
			<line id="_x3C_Tracciato32_x3E_" fill="none" stroke="#787878" stroke-width="0.75" stroke-linecap="round" stroke-linejoin="round" x1="56.763" y1="85.96" x2="71.063" y2="85.96"/>
		<rect id="connector32pin" x="56.762" y="85.612" fill="none" width="14.303" height="0.695"/>
		<rect id="connector32terminal" x="71.063" y="85.612" fill="none" width="0" height="0.695"/>
		
			<text id="Not_connected_3_" transform="matrix(1 0 0 1 35.3413 86.4971)" fill="#8C8C8C" font-family="'DroidSans'" font-size="3.0047">Not Connected</text>
		<text transform="matrix(1 0 0 1 62.9927 84.918)" fill="#8C8C8C" font-family="'DroidSans'" font-size="2.4831">32</text>
	</g>
	<g id="_x33_1">
		
			<line id="_x3C_Tracciato31_x3E_" fill="none" stroke="#787878" stroke-width="0.75" stroke-linecap="round" stroke-linejoin="round" x1="56.763" y1="93.111" x2="71.063" y2="93.111"/>
		<rect id="connector31pin" x="56.762" y="92.763" fill="none" width="14.303" height="0.695"/>
		<rect id="connector31terminal" x="71.063" y="92.763" fill="none" width="0" height="0.695"/>
		
			<text id="Not_connected_4_" transform="matrix(1 0 0 1 35.3413 93.4575)" fill="#8C8C8C" font-family="'DroidSans'" font-size="3.0047">Not Connected</text>
		<text transform="matrix(1 0 0 1 62.9927 92.0688)" fill="#8C8C8C" font-family="'DroidSans'" font-size="2.4831">31</text>
	</g>
	<g id="_x33_0">
		
			<line id="_x3C_Tracciato30_x3E_" fill="none" stroke="#787878" stroke-width="0.75" stroke-linecap="round" stroke-linejoin="round" x1="56.763" y1="100.262" x2="71.063" y2="100.262"/>
		<rect id="connector30pin" x="56.762" y="99.915" fill="none" width="14.303" height="0.694"/>
		<rect id="connector30terminal" x="71.063" y="99.915" fill="none" width="0" height="0.694"/>
		
			<text id="I2C_x5F_SDA" transform="matrix(1 0 0 1 44.4014 100.6094)" fill="#8C8C8C" font-family="'DroidSans'" font-size="3.0047">I2C_SDA</text>
		<text transform="matrix(1 0 0 1 62.9927 99.2202)" fill="#8C8C8C" font-family="'DroidSans'" font-size="2.4831">30</text>
	</g>
	<g id="_x32_9">
		
			<line id="_x3C_Tracciato29_x3E_" fill="none" stroke="#787878" stroke-width="0.75" stroke-linecap="round" stroke-linejoin="round" x1="56.763" y1="107.413" x2="71.063" y2="107.413"/>
		<rect id="connector29pin" x="56.762" y="107.065" fill="none" width="14.303" height="0.696"/>
		<rect id="connector29terminal" x="71.063" y="107.065" fill="none" width="0" height="0.696"/>
		
			<text id="I2C_x5F_SCL" transform="matrix(1 0 0 1 44.9673 107.7603)" fill="#8C8C8C" font-family="'DroidSans'" font-size="3.0047">I2C_SCL</text>
		<text transform="matrix(1 0 0 1 62.9927 106.3716)" fill="#8C8C8C" font-family="'DroidSans'" font-size="2.4831">29</text>
	</g>
	<g id="_x32_8">
		
			<line id="_x3C_Tracciato28_x3E_" fill="none" stroke="#787878" stroke-width="0.75" stroke-linecap="round" stroke-linejoin="round" x1="56.763" y1="114.565" x2="71.063" y2="114.565"/>
		<rect id="connector28pin" x="56.762" y="114.218" fill="none" width="14.303" height="0.694"/>
		<rect id="connector28terminal" x="71.063" y="114.218" fill="none" width="0" height="0.694"/>
		
			<text id="Not_connected_5_" transform="matrix(1 0 0 1 35.3413 115.2607)" fill="#8C8C8C" font-family="'DroidSans'" font-size="3.0047">Not Connected</text>
		<text transform="matrix(1 0 0 1 62.9927 113.5225)" fill="#8C8C8C" font-family="'DroidSans'" font-size="2.4831">28</text>
	</g>
	<g id="_x32_7">
		
			<line id="_x3C_Tracciato27_x3E_" fill="none" stroke="#787878" stroke-width="0.75" stroke-linecap="round" stroke-linejoin="round" x1="56.763" y1="121.716" x2="71.063" y2="121.716"/>
		<rect id="connector27pin" x="56.762" y="121.368" fill="none" width="14.303" height="0.694"/>
		<rect id="connector27terminal" x="71.063" y="121.368" fill="none" width="0" height="0.694"/>
		
			<text id="Not_connected_1_" transform="matrix(1 0 0 1 35.3413 122.4116)" fill="#8C8C8C" font-family="'DroidSans'" font-size="3.0047">Not Connected</text>
		<text transform="matrix(1 0 0 1 62.9927 120.6743)" fill="#8C8C8C" font-family="'DroidSans'" font-size="2.4831">27</text>
	</g>
	<g id="_x32_6">
		
			<line id="_x3C_Tracciato26_x3E_" fill="none" stroke="#787878" stroke-width="0.75" stroke-linecap="round" stroke-linejoin="round" x1="56.763" y1="128.867" x2="71.063" y2="128.867"/>
		<rect id="connector26pin" x="56.762" y="128.519" fill="none" width="14.303" height="0.695"/>
		<rect id="connector26terminal" x="71.063" y="128.519" fill="none" width="0" height="0.695"/>
		<text id="D3" transform="matrix(1 0 0 1 51.8247 129.563)" fill="#8C8C8C" font-family="'DroidSans'" font-size="3.0047">D3</text>
		<text transform="matrix(1 0 0 1 62.9927 127.8247)" fill="#8C8C8C" font-family="'DroidSans'" font-size="2.4831">26</text>
	</g>
	<g id="_x32_5">
		
			<line id="_x3C_Tracciato25_x3E_" fill="none" stroke="#787878" stroke-width="0.75" stroke-linecap="round" stroke-linejoin="round" x1="56.763" y1="136.018" x2="71.063" y2="136.018"/>
		<rect id="connector25pin" x="56.762" y="135.671" fill="none" width="14.303" height="0.695"/>
		<rect id="connector25terminal" x="71.063" y="135.671" fill="none" width="0" height="0.695"/>
		<text id="D2" transform="matrix(1 0 0 1 51.8247 136.7134)" fill="#8C8C8C" font-family="'DroidSans'" font-size="3.0047">D2</text>
		<text transform="matrix(1 0 0 1 62.9927 134.9775)" fill="#8C8C8C" font-family="'DroidSans'" font-size="2.4831">25</text>
	</g>
	<g id="_x32_4">
		
			<line id="_x3C_Tracciato24_x3E_" fill="none" stroke="#787878" stroke-width="0.75" stroke-linecap="round" stroke-linejoin="round" x1="56.763" y1="143.169" x2="71.063" y2="143.169"/>
		<rect id="connector24pin" x="56.762" y="142.821" fill="none" width="14.303" height="0.696"/>
		<rect id="connector24terminal" x="71.063" y="142.821" fill="none" width="0" height="0.696"/>
		<text id="D1" transform="matrix(1 0 0 1 51.8247 143.8662)" fill="#8C8C8C" font-family="'DroidSans'" font-size="3.0047">D1</text>
		<text transform="matrix(1 0 0 1 62.9927 142.1274)" fill="#8C8C8C" font-family="'DroidSans'" font-size="2.4831">24</text>
	</g>
	<g id="_x32_3">
		
			<line id="_x3C_Tracciato23_x3E_" fill="none" stroke="#787878" stroke-width="0.75" stroke-linecap="round" stroke-linejoin="round" x1="56.763" y1="150.321" x2="71.063" y2="150.321"/>
		<rect id="connector23pin" x="56.762" y="149.974" fill="none" width="14.303" height="0.695"/>
		<rect id="connector23terminal" x="71.063" y="149.974" fill="none" width="0" height="0.695"/>
		<text id="D0" transform="matrix(1 0 0 1 51.8247 151.0166)" fill="#8C8C8C" font-family="'DroidSans'" font-size="3.0047">D0</text>
		<text transform="matrix(1 0 0 1 62.9927 149.2783)" fill="#8C8C8C" font-family="'DroidSans'" font-size="2.4831">23</text>
	</g>
	<g id="_x32_2">
		
			<line id="_x3C_Tracciato22_x3E_" fill="none" stroke="#787878" stroke-width="0.75" stroke-linecap="round" stroke-linejoin="round" x1="50.431" y1="163.552" x2="50.431" y2="177.853"/>
		<rect id="connector22pin" x="50.083" y="163.551" fill="none" width="0.695" height="14.302"/>
		<rect id="connector22terminal" x="50.431" y="177.504" fill="none" width="0" height="0.695"/>
		
			<text id="UART_Tx" transform="matrix(-4.371139e-008 1 -1 -4.371139e-008 49.5947 151.3735)" fill="#8C8C8C" font-family="'DroidSans'" font-size="3.0047">UART Tx</text>
		
			<text transform="matrix(-4.371139e-008 1 -1 -4.371139e-008 51.4727 169.7822)" fill="#8C8C8C" font-family="'DroidSans'" font-size="2.4831">22</text>
	</g>
	<g id="_x32_1">
		
			<line id="_x3C_Tracciato21_x3E_" fill="none" stroke="#787878" stroke-width="0.75" stroke-linecap="round" stroke-linejoin="round" x1="43.234" y1="163.551" x2="43.234" y2="177.852"/>
		<rect id="connector21pin" x="42.887" y="163.549" fill="none" width="0.695" height="14.302"/>
		<rect id="connector21terminal" x="43.235" y="177.504" fill="none" width="0" height="0.695"/>
		
			<text id="UART_Rx" transform="matrix(-4.371139e-008 1 -1 -4.371139e-008 42.5381 151.0698)" fill="#8C8C8C" font-family="'DroidSans'" font-size="3.0047">UART Rx</text>
		
			<text transform="matrix(-4.371139e-008 1 -1 -4.371139e-008 44.2764 169.7803)" fill="#8C8C8C" font-family="'DroidSans'" font-size="2.4831">21</text>
	</g>
	<g id="_x32_0">
		
			<line id="_x3C_Tracciato20_x3E_" fill="none" stroke="#787878" stroke-width="0.75" stroke-linecap="round" stroke-linejoin="round" x1="0.348" y1="151.823" x2="14.303" y2="151.823"/>
		<rect id="connector20pin" y="151.475" fill="none" width="14.302" height="0.694"/>
		<rect id="connector20terminal" y="151.475" fill="none" width="0" height="0.694"/>
		<text id="IN_4" transform="matrix(1 0 0 1 15.6924 152.5186)" fill="#8C8C8C" font-family="'DroidSans'" font-size="3.0047">INPUT 4</text>
		<text transform="matrix(1 0 0 1 5.7837 150.7803)" fill="#8C8C8C" font-family="'DroidSans'" font-size="2.4831">20</text>
	</g>
	<g id="_x31_9">
		
			<line id="_x3C_Tracciato19_x3E_" fill="none" stroke="#787878" stroke-width="0.75" stroke-linecap="round" stroke-linejoin="round" x1="0.348" y1="144.671" x2="14.303" y2="144.671"/>
		<rect id="connector19pin" y="144.323" fill="none" width="14.302" height="0.694"/>
		<rect id="connector19terminal" y="144.323" fill="none" width="0" height="0.694"/>
		<text id="IN_3" transform="matrix(1 0 0 1 15.6924 145.3672)" fill="#8C8C8C" font-family="'DroidSans'" font-size="3.0047">INPUT 3</text>
		<text transform="matrix(1 0 0 1 5.7837 143.6299)" fill="#8C8C8C" font-family="'DroidSans'" font-size="2.4831">19</text>
	</g>
	<g id="_x31_8">
		
			<line id="_x3C_Tracciato18_x3E_" fill="none" stroke="#787878" stroke-width="0.75" stroke-linecap="round" stroke-linejoin="round" x1="0.348" y1="137.521" x2="14.303" y2="137.521"/>
		<rect id="connector18pin" y="137.173" fill="none" width="14.302" height="0.694"/>
		<rect id="connector18terminal" y="137.173" fill="none" width="0" height="0.694"/>
		<text id="IN_2" transform="matrix(1 0 0 1 15.6924 138.2153)" fill="#8C8C8C" font-family="'DroidSans'" font-size="3.0047">INPUT 2</text>
		<text transform="matrix(1 0 0 1 5.7837 136.4771)" fill="#8C8C8C" font-family="'DroidSans'" font-size="2.4831">18</text>
	</g>
	<g id="_x31_7">
		
			<line id="_x3C_Tracciato17_x3E_" fill="none" stroke="#787878" stroke-width="0.75" stroke-linecap="round" stroke-linejoin="round" x1="0.348" y1="130.368" x2="14.303" y2="130.368"/>
		<rect id="connector17terminal" y="130.021" fill="none" width="0" height="0.696"/>
		<rect id="connector17pin" y="130.021" fill="none" width="14.302" height="0.696"/>
		<text id="IN_1" transform="matrix(1 0 0 1 15.6924 131.0649)" fill="#8C8C8C" font-family="'DroidSans'" font-size="3.0047">INPUT 1</text>
		<text transform="matrix(1 0 0 1 5.7837 129.3267)" fill="#8C8C8C" font-family="'DroidSans'" font-size="2.4831">17</text>
	</g>
	<g id="_x31_6">
		
			<line id="_x3C_Tracciato16_x3E_" fill="none" stroke="#787878" stroke-width="0.75" stroke-linecap="round" stroke-linejoin="round" x1="0.348" y1="118.47" x2="14.303" y2="118.47"/>
		<rect id="connector16pin" y="118.122" fill="none" width="14.302" height="0.695"/>
		<rect id="connector16terminal" y="118.122" fill="none" width="0" height="0.695"/>
		<text id="OUT_4" transform="matrix(1 0 0 1 15.6924 119.166)" fill="#8C8C8C" font-family="'DroidSans'" font-size="3.0047">OUTPUT 4</text>
		<text transform="matrix(1 0 0 1 5.7837 117.4282)" fill="#8C8C8C" font-family="'DroidSans'" font-size="2.4831">16</text>
	</g>
	<g id="_x31_5">
		
			<line id="_x3C_Tracciato15_x3E_" fill="none" stroke="#787878" stroke-width="0.75" stroke-linecap="round" stroke-linejoin="round" x1="0.348" y1="111.319" x2="14.303" y2="111.319"/>
		<rect id="connector15pin" y="110.971" fill="none" width="14.302" height="0.694"/>
		<rect id="connector15terminal" y="110.971" fill="none" width="0" height="0.694"/>
		<text id="OUT_3" transform="matrix(1 0 0 1 15.6924 112.0146)" fill="#8C8C8C" font-family="'DroidSans'" font-size="3.0047">OUTPUT 3</text>
		<text transform="matrix(1 0 0 1 5.7837 110.2773)" fill="#8C8C8C" font-family="'DroidSans'" font-size="2.4831">15</text>
	</g>
	<g id="_x31_4">
		
			<line id="_x3C_Tracciato14_x3E_" fill="none" stroke="#787878" stroke-width="0.75" stroke-linecap="round" stroke-linejoin="round" x1="0.522" y1="85.562" x2="14.478" y2="85.562"/>
		<rect id="connector14pin" x="0.175" y="85.213" fill="none" width="14.301" height="0.696"/>
		<rect id="connector14terminal" x="0.175" y="85.213" fill="none" width="0" height="0.696"/>
		<text id="CAN_L" transform="matrix(1 0 0 1 15.8667 86.2563)" fill="#8C8C8C" font-family="'DroidSans'" font-size="3.0047">CAN L</text>
		<text transform="matrix(1 0 0 1 5.958 84.5181)" fill="#8C8C8C" font-family="'DroidSans'" font-size="2.4831">14</text>
	</g>
	<g id="_x31_3">
		
			<line id="_x3C_Tracciato13_x3E_" fill="none" stroke="#787878" stroke-width="0.75" stroke-linecap="round" stroke-linejoin="round" x1="0.522" y1="78.409" x2="14.478" y2="78.409"/>
		<rect id="connector13pin" x="0.175" y="78.063" fill="none" width="14.301" height="0.694"/>
		<rect id="connector13terminal" x="0.175" y="78.063" fill="none" width="0" height="0.694"/>
		<text id="CAN_H" transform="matrix(1 0 0 1 15.8667 79.105)" fill="#8C8C8C" font-family="'DroidSans'" font-size="3.0047">CAN H</text>
		<text transform="matrix(1 0 0 1 5.958 77.3682)" fill="#8C8C8C" font-family="'DroidSans'" font-size="2.4831">13</text>
	</g>
	<g id="_x31_2">
		
			<line id="_x3C_Tracciato12_x3E_" fill="none" stroke="#787878" stroke-width="0.75" stroke-linecap="round" stroke-linejoin="round" x1="0.348" y1="71.415" x2="14.303" y2="71.415"/>
		<rect id="connector12pin" y="71.067" fill="none" width="14.302" height="0.696"/>
		<rect id="connector12terminal" y="71.067" fill="none" width="0" height="0.696"/>
		<text id="UART_Rx_1_" transform="matrix(1 0 0 1 15.6924 72.1104)" fill="#8C8C8C" font-family="'DroidSans'" font-size="3.0047">UART Rx</text>
		<text transform="matrix(1 0 0 1 5.7837 70.3721)" fill="#8C8C8C" font-family="'DroidSans'" font-size="2.4831">12</text>
	</g>
	<g id="_x31_1">
		
			<line id="_x3C_Tracciato11_x3E_" fill="none" stroke="#787878" stroke-width="0.75" stroke-linecap="round" stroke-linejoin="round" x1="0.348" y1="64.263" x2="14.303" y2="64.263"/>
		<rect id="connector11pin" y="63.917" fill="none" width="14.302" height="0.695"/>
		<rect id="connector11terminal" y="63.917" fill="none" width="0" height="0.695"/>
		<text id="UART_Tx_1_" transform="matrix(1 0 0 1 15.6924 64.959)" fill="#8C8C8C" font-family="'DroidSans'" font-size="3.0047">UART Tx</text>
		<text transform="matrix(1 0 0 1 5.7837 63.2222)" fill="#8C8C8C" font-family="'DroidSans'" font-size="2.4831">11</text>
	</g>
	<g id="_x31_0">
		
			<line id="_x3C_Tracciato10_x3E_" fill="none" stroke="#787878" stroke-width="0.75" stroke-linecap="round" stroke-linejoin="round" x1="0.348" y1="57.112" x2="14.303" y2="57.112"/>
		<rect id="connector10pin" y="56.764" fill="none" width="14.302" height="0.695"/>
		<rect id="connector10terminal" y="56.764" fill="none" width="0" height="0.695"/>
		
			<text id="I2C_x5F_SCL_1_" transform="matrix(1 0 0 1 15.6924 57.8071)" fill="#8C8C8C" font-family="'DroidSans'" font-size="3.0047">I2C_SCL</text>
		<text transform="matrix(1 0 0 1 5.7837 56.0688)" fill="#8C8C8C" font-family="'DroidSans'" font-size="2.4831">10</text>
	</g>
	<g id="_x39_">
		
			<line id="_x3C_Tracciato9_x3E_" fill="none" stroke="#787878" stroke-width="0.75" stroke-linecap="round" stroke-linejoin="round" x1="0.348" y1="49.961" x2="14.303" y2="49.961"/>
		<rect id="connector9pin" y="49.614" fill="none" width="14.302" height="0.694"/>
		<rect id="connector9terminal" y="49.614" fill="none" width="0" height="0.694"/>
		
			<text id="I2C_x5F_SDA_1_" transform="matrix(1 0 0 1 15.6924 50.6572)" fill="#8C8C8C" font-family="'DroidSans'" font-size="3.0047">I2C_SDA</text>
		<text transform="matrix(1 0 0 1 6.4683 48.9189)" fill="#8C8C8C" font-family="'DroidSans'" font-size="2.4831">9</text>
	</g>
	<g id="_x38_">
		
			<line id="_x3C_Tracciato8_x3E_" fill="none" stroke="#787878" stroke-width="0.75" stroke-linecap="round" stroke-linejoin="round" x1="0.348" y1="104.167" x2="14.303" y2="104.167"/>
		<rect id="connector8pin" y="103.819" fill="none" width="14.302" height="0.695"/>
		<rect id="connector8terminal" y="103.819" fill="none" width="0" height="0.695"/>
		<text id="OUT_2" transform="matrix(1 0 0 1 15.6924 104.8638)" fill="#8C8C8C" font-family="'DroidSans'" font-size="3.0047">OUTPUT 2</text>
		<text transform="matrix(1 0 0 1 5.7837 103.126)" fill="#8C8C8C" font-family="'DroidSans'" font-size="2.4831">8</text>
	</g>
	<g id="_x37_">
		
			<line id="_x3C_Tracciato7_x3E_" fill="none" stroke="#787878" stroke-width="0.75" stroke-linecap="round" stroke-linejoin="round" x1="0.348" y1="97.016" x2="14.303" y2="97.016"/>
		<rect id="connector7pin" y="96.669" fill="none" width="14.302" height="0.694"/>
		<rect id="connector7terminal" y="96.669" fill="none" width="0" height="0.694"/>
		<text id="OUT_1" transform="matrix(1 0 0 1 15.6924 97.7114)" fill="#8C8C8C" font-family="'DroidSans'" font-size="3.0047">OUTPUT 1</text>
		<text transform="matrix(1 0 0 1 5.7837 95.9741)" fill="#8C8C8C" font-family="'DroidSans'" font-size="2.4831">7</text>
	</g>
	<g id="_x36_">
		
			<line id="_x3C_Tracciato6_x3E_" fill="none" stroke="#787878" stroke-width="0.75" stroke-linecap="round" stroke-linejoin="round" x1="36.043" y1="177.504" x2="36.043" y2="163.55"/>
		<rect id="connector6terminal" x="36.043" y="177.504" fill="none" width="0" height="0.695"/>
		<rect id="connector6pin" x="35.695" y="163.55" fill="none" width="0.696" height="14.301"/>
		
			<text id="GND_2_" transform="matrix(-4.371139e-008 -1 1 -4.371139e-008 36.7388 162.1597)" fill="#8C8C8C" font-family="'DroidSans'" font-size="3.0047">GND</text>
		
			<text transform="matrix(1.192488e-008 -1 1 1.192488e-008 34.6411 170.4834)" fill="#8C8C8C" font-family="'DroidSans'" font-size="2.4831">6</text>
	</g>
	<g id="_x35_">
		
			<line id="_x3C_Tracciato5_x3E_" fill="none" stroke="#787878" stroke-width="0.75" stroke-linecap="round" stroke-linejoin="round" x1="28.833" y1="177.504" x2="28.833" y2="163.55"/>
		<rect id="connector5pin" x="28.486" y="163.55" fill="none" width="0.695" height="14.301"/>
		<rect id="connector5terminal" x="28.833" y="177.504" fill="none" width="0" height="0.695"/>
		
			<text id="GND_3_" transform="matrix(-4.371139e-008 -1 1 -4.371139e-008 29.5278 162.1597)" fill="#8C8C8C" font-family="'DroidSans'" font-size="3.0047">GND</text>
		
			<text transform="matrix(1.192488e-008 -1 1 1.192488e-008 27.4312 170.4834)" fill="#8C8C8C" font-family="'DroidSans'" font-size="2.4831">5</text>
	</g>
	<g id="_x34_">
		
			<line id="_x3C_Tracciato4_x3E_" fill="none" stroke="#787878" stroke-width="0.75" stroke-linecap="round" stroke-linejoin="round" x1="0.348" y1="42.812" x2="14.303" y2="42.812"/>
		<rect id="connector4pin" y="42.464" fill="none" width="14.302" height="0.694"/>
		<rect id="connector4terminal" y="42.464" fill="none" width="0" height="0.694"/>
		<text id="RS-232_Tx" transform="matrix(1 0 0 1 15.6924 43.5063)" fill="#8C8C8C" font-family="'DroidSans'" font-size="3.0047">RS-232 Tx</text>
		<text transform="matrix(1 0 0 1 6.4683 41.7686)" fill="#8C8C8C" font-family="'DroidSans'" font-size="2.4831">4</text>
	</g>
	<g id="_x33_">
		
			<line id="_x3C_Tracciato3_x3E_" fill="none" stroke="#787878" stroke-width="0.75" stroke-linecap="round" stroke-linejoin="round" x1="0.348" y1="35.66" x2="14.303" y2="35.66"/>
		<rect id="connector3pin" y="35.313" fill="none" width="14.302" height="0.695"/>
		<rect id="connector3terminal" y="35.313" fill="none" width="0" height="0.695"/>
		<text id="RS-232_Rx" transform="matrix(1 0 0 1 15.6924 36.355)" fill="#8C8C8C" font-family="'DroidSans'" font-size="3.0047">RS-232 Rx</text>
		<text transform="matrix(1 0 0 1 6.4683 34.6182)" fill="#8C8C8C" font-family="'DroidSans'" font-size="2.4831">3</text>
	</g>
	<g id="_x32_">
		
			<line id="_x3C_Tracciato2_x3E_" fill="none" stroke="#787878" stroke-width="0.75" stroke-linecap="round" stroke-linejoin="round" x1="0.521" y1="28.686" x2="14.477" y2="28.686"/>
		<rect id="connector2pin" x="0.174" y="28.34" fill="none" width="14.302" height="0.694"/>
		<rect id="connector2terminal" x="0.174" y="28.34" fill="none" width="0" height="0.694"/>
		
			<text id="_x35_V_Out_1_" transform="matrix(1 0 0 1 15.8682 29.3784)" fill="#8C8C8C" font-family="'DroidSans'" font-size="3.0047">5V Out</text>
		<text transform="matrix(1 0 0 1 6.6416 27.6401)" fill="#8C8C8C" font-family="'DroidSans'" font-size="2.4831">2</text>
	</g>
	<g id="_x31_">
		
			<line id="_x3C_Tracciato1_x3E_" fill="none" stroke="#787878" stroke-width="0.75" stroke-linecap="round" stroke-linejoin="round" x1="0.523" y1="21.531" x2="14.479" y2="21.531"/>
		<rect id="connector1pin" x="0.176" y="21.184" fill="none" width="14.302" height="0.695"/>
		<rect id="connector1terminal" x="0.176" y="21.184" fill="none" width="0" height="0.695"/>
		<text id="User_12_In" transform="matrix(1 0 0 1 15.8682 22.2266)" fill="#8C8C8C" font-family="'DroidSans'" font-size="3.0047">usr12V In</text>
		<text transform="matrix(1 0 0 1 6.6436 20.4888)" fill="#8C8C8C" font-family="'DroidSans'" font-size="2.4831">1</text>
	</g>
</g>
<rect id="connector4pin_1_" x="190.423" y="545.695" display="none" fill="none" width="2.311" height="47.596"/>
<rect id="connector4terminal_1_" x="212.698" y="592.137" display="none" fill="none" width="0" height="2.312"/>
<rect id="connector5terminal_1_" x="212.698" y="592.137" display="none" fill="none" width="0" height="2.313"/>
<rect id="connector6terminal_1_" x="212.695" y="592.135" display="none" fill="none" width="0" height="2.316"/>
<rect id="connector4pin_2_" x="211.542" y="545.695" display="none" fill="none" width="2.312" height="47.596"/>
<rect id="connector5pin_1_" x="211.542" y="545.695" display="none" fill="none" width="2.312" height="47.596"/>
<rect id="connector7pin_1_" x="211.542" y="545.695" display="none" fill="none" width="2.312" height="47.596"/>
<rect id="connector4terminal_2_" x="191.579" y="592.137" display="none" fill="none" width="0" height="2.312"/>
<rect id="connector5terminal_2_" x="191.579" y="592.137" display="none" fill="none" width="0" height="2.313"/>
<rect id="connector6terminal_2_" x="191.576" y="592.135" display="none" fill="none" width="0" height="2.316"/>
<rect id="connector6pin_1_" x="190.419" y="545.695" display="none" fill="none" width="2.316" height="47.596"/>
<rect id="connector7pin_2_" x="190.423" y="545.695" display="none" fill="none" width="2.312" height="47.596"/>
</svg>
