<?xml version="1.0" encoding="utf-8"?>
<!-- Generator: Adobe Illustrator 15.1.0, SVG Export Plug-In . SVG Version: 6.00 Build 0)  -->
<!DOCTYPE svg PUBLIC "-//W3C//DTD SVG 1.1//EN" "http://www.w3.org/Graphics/SVG/1.1/DTD/svg11.dtd">
<svg version="1.1" id="Layer_1" xmlns="http://www.w3.org/2000/svg" xmlns:xlink="http://www.w3.org/1999/xlink" x="0px" y="0px"
	 width="420px" height="595px" viewBox="0 0 420 595" enable-background="new 0 0 420 595" xml:space="preserve">
<desc>
	<referenceFile>generic_ic_dip_42_schema.svg</referenceFile>
</desc>
<g id="schematic">
	<rect x="139.344" y="49.088" fill="#FFFFFF" stroke="#000000" stroke-miterlimit="10" width="141.309" height="496.825"/>
	<g id="DQuid_IO_GPRS" enable-background="new    ">
		<g id="DQuid">
			<path d="M199.346,472.921c0,0.695-0.09,1.307-0.271,1.832c-0.182,0.524-0.442,0.965-0.785,1.315
				c-0.344,0.354-0.765,0.617-1.264,0.794s-1.063,0.267-1.696,0.267h-2.068v-8.26h2.299c0.576,0,1.099,0.086,1.565,0.261
				c0.467,0.174,0.863,0.43,1.191,0.771c0.328,0.34,0.581,0.764,0.761,1.269C199.256,471.674,199.346,472.257,199.346,472.921z
				 M198.233,472.953c0-0.55-0.062-1.024-0.186-1.426c-0.125-0.402-0.305-0.731-0.542-0.992c-0.237-0.26-0.529-0.453-0.875-0.578
				c-0.347-0.127-0.74-0.188-1.181-0.188h-1.137v6.457h0.915c0.995,0,1.744-0.275,2.249-0.825S198.233,474.034,198.233,472.953z"/>
			<path d="M207.921,472.987c0,0.493-0.046,0.952-0.138,1.378c-0.093,0.426-0.229,0.81-0.407,1.15
				c-0.18,0.34-0.402,0.635-0.669,0.884c-0.269,0.249-0.576,0.444-0.928,0.587c0.162,0.354,0.372,0.666,0.631,0.937
				c0.258,0.27,0.557,0.517,0.896,0.741l-0.684,0.804c-0.389-0.275-0.745-0.601-1.07-0.973c-0.326-0.373-0.585-0.798-0.777-1.275
				c-0.063,0.007-0.135,0.013-0.212,0.017c-0.077,0.003-0.148,0.005-0.217,0.005c-0.614,0-1.146-0.102-1.596-0.305
				s-0.823-0.491-1.118-0.863c-0.296-0.373-0.515-0.821-0.658-1.348c-0.143-0.526-0.215-1.108-0.215-1.749
				c0-0.64,0.072-1.221,0.215-1.743c0.144-0.521,0.363-0.967,0.661-1.336s0.672-0.654,1.125-0.854
				c0.452-0.201,0.985-0.304,1.599-0.304c0.583,0,1.098,0.103,1.54,0.304c0.442,0.2,0.814,0.487,1.116,0.858
				c0.301,0.371,0.528,0.816,0.681,1.338C207.845,471.76,207.921,472.344,207.921,472.987z M201.871,472.987
				c0,0.517,0.049,0.979,0.146,1.393c0.099,0.413,0.248,0.764,0.449,1.051c0.201,0.289,0.458,0.51,0.768,0.662
				c0.312,0.151,0.682,0.229,1.11,0.229s0.799-0.076,1.11-0.229c0.311-0.153,0.566-0.373,0.769-0.662
				c0.201-0.287,0.35-0.638,0.443-1.051c0.094-0.412,0.141-0.876,0.141-1.393c0-0.521-0.047-0.984-0.141-1.396
				c-0.095-0.411-0.241-0.758-0.441-1.043c-0.2-0.283-0.454-0.502-0.762-0.654c-0.31-0.152-0.678-0.229-1.107-0.229
				c-0.429,0-0.8,0.076-1.112,0.229c-0.313,0.152-0.571,0.371-0.774,0.654c-0.204,0.285-0.354,0.633-0.452,1.043
				C201.92,472.003,201.871,472.468,201.871,472.987z"/>
			<path d="M213.627,477.129l-0.152-0.831h-0.057c-0.096,0.161-0.207,0.303-0.336,0.422c-0.131,0.118-0.273,0.217-0.429,0.293
				c-0.153,0.078-0.317,0.135-0.49,0.173s-0.352,0.056-0.53,0.056c-0.344,0-0.646-0.043-0.904-0.129
				c-0.26-0.087-0.477-0.223-0.649-0.407c-0.173-0.184-0.305-0.42-0.394-0.706c-0.089-0.285-0.133-0.627-0.133-1.021v-4.05h1.029
				v3.993c0,0.488,0.1,0.855,0.299,1.102s0.508,0.367,0.927,0.367c0.305,0,0.562-0.049,0.77-0.146
				c0.207-0.099,0.373-0.241,0.5-0.433c0.125-0.189,0.216-0.424,0.271-0.703s0.082-0.599,0.082-0.961v-3.219h1.028v6.202
				L213.627,477.129L213.627,477.129z"/>
			<path d="M216.344,469.248c0-0.227,0.058-0.391,0.172-0.491c0.115-0.103,0.258-0.152,0.427-0.152c0.083,0,0.161,0.012,0.235,0.037
				c0.072,0.022,0.137,0.062,0.191,0.115c0.054,0.053,0.098,0.118,0.13,0.2c0.031,0.08,0.048,0.179,0.048,0.291
				c0,0.219-0.06,0.382-0.178,0.488c-0.119,0.107-0.262,0.16-0.428,0.16c-0.169,0-0.312-0.053-0.427-0.158
				C216.402,469.634,216.344,469.469,216.344,469.248z M217.451,477.129h-1.028v-6.202h1.028V477.129z"/>
			<path d="M223.247,476.298h-0.045c-0.083,0.129-0.182,0.25-0.291,0.364c-0.111,0.115-0.239,0.216-0.385,0.303
				s-0.309,0.154-0.488,0.204c-0.181,0.049-0.385,0.071-0.61,0.071c-0.35,0-0.67-0.065-0.96-0.203
				c-0.29-0.135-0.538-0.338-0.745-0.606c-0.207-0.27-0.367-0.604-0.479-1.002c-0.113-0.399-0.171-0.863-0.171-1.391
				c0-0.53,0.058-0.997,0.171-1.397c0.112-0.401,0.272-0.737,0.479-1.009s0.455-0.476,0.745-0.612s0.61-0.206,0.96-0.206
				c0.223,0,0.424,0.024,0.605,0.073c0.18,0.049,0.343,0.113,0.487,0.197c0.146,0.082,0.273,0.179,0.388,0.287
				c0.113,0.109,0.211,0.226,0.294,0.346h0.066c-0.012-0.128-0.021-0.25-0.033-0.367c-0.008-0.099-0.016-0.198-0.022-0.302
				c-0.007-0.104-0.011-0.187-0.011-0.246v-2.463h1.027v8.79h-0.83L223.247,476.298z M221.626,476.387
				c0.286,0,0.527-0.043,0.726-0.13c0.197-0.086,0.357-0.22,0.48-0.396c0.122-0.177,0.213-0.396,0.271-0.663
				c0.059-0.266,0.091-0.576,0.1-0.93v-0.231c0-0.38-0.025-0.719-0.077-1.015c-0.051-0.295-0.138-0.544-0.26-0.745
				c-0.122-0.202-0.285-0.354-0.488-0.458c-0.203-0.104-0.457-0.155-0.762-0.155c-0.511,0-0.884,0.206-1.122,0.616
				c-0.239,0.41-0.358,1-0.358,1.769c0,0.787,0.119,1.374,0.358,1.76C220.733,476.195,221.11,476.387,221.626,476.387z"/>
		</g>
		<g id="IO">
			<path d="M231.676,477.129h-2.994v-0.576l0.972-0.231v-6.644l-0.972-0.231v-0.576h2.994v0.576l-0.972,0.231v6.644l0.972,0.231
				V477.129z"/>
			<path d="M239.895,472.987c0,0.636-0.076,1.216-0.229,1.739c-0.153,0.523-0.379,0.973-0.681,1.346
				c-0.303,0.372-0.676,0.66-1.122,0.863c-0.445,0.203-0.962,0.305-1.545,0.305c-0.613,0-1.146-0.102-1.597-0.305
				c-0.449-0.203-0.822-0.491-1.117-0.863c-0.297-0.373-0.516-0.821-0.658-1.348c-0.144-0.525-0.215-1.108-0.215-1.749
				c0-0.64,0.071-1.221,0.215-1.743c0.144-0.521,0.363-0.967,0.66-1.336c0.298-0.369,0.672-0.654,1.125-0.855
				c0.451-0.2,0.984-0.303,1.599-0.303c0.584,0,1.098,0.103,1.54,0.303c0.441,0.201,0.812,0.488,1.115,0.859
				c0.302,0.371,0.527,0.816,0.681,1.338C239.819,471.76,239.895,472.344,239.895,472.987z M233.845,472.987
				c0,0.517,0.05,0.979,0.147,1.393s0.246,0.764,0.448,1.051c0.201,0.289,0.457,0.51,0.769,0.662
				c0.311,0.151,0.682,0.229,1.109,0.229c0.429,0,0.801-0.076,1.11-0.229c0.31-0.153,0.566-0.373,0.768-0.662
				c0.201-0.287,0.351-0.638,0.443-1.051c0.095-0.412,0.143-0.876,0.143-1.393c0-0.521-0.048-0.984-0.143-1.396
				c-0.094-0.41-0.24-0.758-0.439-1.043c-0.2-0.283-0.454-0.502-0.764-0.654c-0.309-0.152-0.678-0.229-1.106-0.229
				c-0.43,0-0.801,0.076-1.112,0.229c-0.313,0.152-0.571,0.371-0.774,0.654c-0.202,0.285-0.354,0.633-0.45,1.043
				C233.896,472.002,233.845,472.468,233.845,472.987z"/>
		</g>
		<g id="GPRS">
			<path d="M207.054,486.65h2.734v4.051c-0.207,0.067-0.416,0.127-0.627,0.181c-0.211,0.053-0.429,0.098-0.65,0.133
				c-0.222,0.036-0.456,0.062-0.7,0.082c-0.245,0.02-0.509,0.027-0.791,0.027c-0.591,0-1.115-0.099-1.569-0.296
				c-0.456-0.197-0.841-0.479-1.153-0.848c-0.312-0.367-0.55-0.812-0.711-1.339c-0.162-0.525-0.243-1.116-0.243-1.771
				c0-0.647,0.089-1.233,0.269-1.758c0.18-0.522,0.439-0.969,0.782-1.336s0.767-0.648,1.269-0.848
				c0.503-0.197,1.075-0.296,1.72-0.296c0.418,0,0.819,0.041,1.204,0.124c0.384,0.083,0.742,0.203,1.073,0.36l-0.407,0.916
				c-0.136-0.063-0.282-0.125-0.438-0.182c-0.155-0.057-0.316-0.105-0.482-0.149s-0.336-0.077-0.512-0.104
				c-0.175-0.026-0.35-0.039-0.521-0.039c-0.459,0-0.866,0.076-1.22,0.229c-0.354,0.153-0.651,0.371-0.891,0.658
				c-0.238,0.286-0.421,0.635-0.545,1.045s-0.187,0.873-0.187,1.391c0,0.488,0.052,0.938,0.155,1.345
				c0.104,0.406,0.269,0.757,0.494,1.051c0.227,0.293,0.519,0.521,0.875,0.685c0.357,0.163,0.789,0.241,1.294,0.241
				c0.166,0,0.317-0.004,0.455-0.014s0.266-0.021,0.381-0.037c0.117-0.015,0.228-0.033,0.331-0.053
				c0.104-0.021,0.204-0.041,0.303-0.062v-2.463h-1.689L207.054,486.65L207.054,486.65z"/>
			<path d="M216.692,485.171c0,0.343-0.052,0.672-0.154,0.987c-0.104,0.316-0.274,0.597-0.512,0.84
				c-0.237,0.242-0.551,0.438-0.94,0.582c-0.391,0.146-0.871,0.218-1.443,0.218h-0.848v3.215h-1.051v-8.26h2.045
				c0.506,0,0.939,0.054,1.306,0.16c0.366,0.107,0.667,0.265,0.903,0.47c0.237,0.206,0.413,0.459,0.524,0.761
				C216.635,484.443,216.692,484.785,216.692,485.171z M212.793,486.904h0.729c0.352,0,0.656-0.03,0.918-0.09
				c0.263-0.061,0.479-0.158,0.649-0.291c0.172-0.135,0.301-0.307,0.387-0.52c0.087-0.214,0.131-0.474,0.131-0.777
				c0-0.535-0.154-0.932-0.464-1.189c-0.309-0.257-0.791-0.387-1.446-0.387h-0.903V486.904L212.793,486.904z"/>
			<path d="M219.459,487.599v3.412h-1.051v-8.26h2.012c1.002,0,1.742,0.193,2.221,0.581c0.479,0.39,0.717,0.977,0.717,1.764
				c0,0.327-0.046,0.614-0.139,0.857c-0.092,0.245-0.215,0.455-0.367,0.63c-0.151,0.176-0.326,0.321-0.521,0.438
				c-0.197,0.116-0.398,0.213-0.605,0.287l2.248,3.701h-1.236l-1.981-3.412L219.459,487.599L219.459,487.599z M219.459,486.707
				h0.928c0.338,0,0.627-0.032,0.863-0.1c0.237-0.064,0.433-0.164,0.585-0.293c0.152-0.131,0.264-0.293,0.333-0.486
				c0.069-0.192,0.104-0.421,0.104-0.681c0-0.271-0.039-0.501-0.115-0.688c-0.077-0.188-0.194-0.344-0.352-0.464
				s-0.354-0.208-0.593-0.263s-0.522-0.082-0.852-0.082h-0.903L219.459,486.707L219.459,486.707z"/>
			<path d="M229.582,488.802c0,0.365-0.064,0.69-0.194,0.979c-0.13,0.287-0.315,0.531-0.557,0.73
				c-0.241,0.2-0.534,0.352-0.882,0.455c-0.347,0.104-0.736,0.154-1.17,0.154c-0.418,0-0.809-0.031-1.172-0.099
				c-0.363-0.066-0.667-0.163-0.913-0.291v-1.006c0.13,0.061,0.274,0.12,0.438,0.178c0.163,0.06,0.336,0.111,0.517,0.156
				c0.183,0.045,0.367,0.082,0.561,0.109c0.191,0.028,0.382,0.043,0.569,0.043c0.604,0,1.049-0.113,1.338-0.34
				c0.286-0.226,0.432-0.55,0.432-0.972c0-0.203-0.027-0.381-0.082-0.531c-0.055-0.149-0.15-0.288-0.288-0.415
				c-0.138-0.126-0.321-0.248-0.551-0.366c-0.23-0.118-0.521-0.247-0.87-0.389c-0.336-0.131-0.626-0.274-0.873-0.432
				c-0.246-0.156-0.449-0.332-0.609-0.528c-0.159-0.195-0.278-0.418-0.355-0.667c-0.077-0.248-0.116-0.529-0.116-0.847
				c0-0.331,0.062-0.627,0.182-0.888s0.289-0.479,0.509-0.657c0.219-0.178,0.479-0.315,0.782-0.409
				c0.304-0.095,0.638-0.142,1.002-0.142c0.448,0,0.853,0.042,1.209,0.127c0.357,0.085,0.677,0.191,0.955,0.325l-0.379,0.881
				c-0.244-0.109-0.521-0.204-0.833-0.285c-0.311-0.081-0.632-0.121-0.964-0.121c-0.459,0-0.813,0.104-1.065,0.318
				c-0.253,0.213-0.379,0.5-0.379,0.86c0,0.215,0.026,0.4,0.084,0.558c0.057,0.156,0.149,0.298,0.282,0.424
				c0.131,0.127,0.307,0.245,0.522,0.354c0.216,0.111,0.482,0.229,0.8,0.354c0.342,0.136,0.644,0.274,0.9,0.418
				c0.258,0.144,0.474,0.305,0.646,0.485c0.174,0.182,0.305,0.391,0.394,0.628C229.538,488.197,229.582,488.478,229.582,488.802z"/>
		</g>
	</g>
	<g id="_x33_8">
		
			<line id="_x3C_Tracciato38_x3E_" fill="none" stroke="#787878" stroke-width="0.75" stroke-linecap="round" stroke-linejoin="round" x1="280.656" y1="150" x2="328.249" y2="150"/>
		<rect id="connector38pin" x="280.653" y="148.844" fill="none" width="47.598" height="2.312"/>
		<rect id="connector38terminal" x="328.249" y="148.844" fill="none" width="0" height="2.312"/>
		
			<text id="_x35_V_Out_2_" transform="matrix(1 0 0 1 246.0862 151.5896)" fill="#8C8C8C" font-family="'DroidSans'" font-size="10">5V Out</text>
		<text transform="matrix(1 0 0 1 301.3889 146.531)" fill="#8C8C8C" font-family="'DroidSans'" font-size="8.2639">38</text>
	</g>
	<g id="_x34_2">
		
			<line id="_x3C_Tracciato42_x3E_" fill="none" stroke="#787878" stroke-width="0.75" stroke-linecap="round" stroke-linejoin="round" x1="198.263" y1="49.434" x2="198.263" y2="1.842"/>
		<rect id="connector42pin" x="197.106" y="1.842" fill="none" width="2.314" height="47.598"/>
		<rect id="connector42terminal" x="198.263" y="0.684" fill="none" width="0" height="2.313"/>
		
			<text id="Not_connected" transform="matrix(-4.371139e-08 -1 1 -4.371139e-08 199.4202 120.5891)" fill="#8C8C8C" font-family="'DroidSans'" font-size="10">Not connected</text>
		
			<text transform="matrix(-4.371139e-08 -1 1 -4.371139e-08 194.7922 28.7014)" fill="#8C8C8C" font-family="'DroidSans'" font-size="8.2639">42</text>
	</g>
	<g id="_x34_1">
		
			<line id="_x3C_Tracciato41_x3E_" fill="none" stroke="#787878" stroke-width="0.75" stroke-linecap="round" stroke-linejoin="round" x1="222.063" y1="49.434" x2="222.063" y2="1.842"/>
		<rect id="connector41pin" x="220.906" y="1.842" fill="none" width="2.314" height="47.598"/>
		<rect id="connector41terminal" x="222.064" y="0.684" fill="none" width="0" height="2.313"/>
		
			<text id="_x35_V_Out" transform="matrix(-4.371139e-08 -1 1 -4.371139e-08 223.2209 83.3479)" fill="#8C8C8C" font-family="'DroidSans'" font-size="10">5V Out</text>
		
			<text transform="matrix(-4.371139e-08 -1 1 -4.371139e-08 218.593 28.7014)" fill="#8C8C8C" font-family="'DroidSans'" font-size="8.2639">41</text>
	</g>
	<g id="_x34_0">
		
			<line id="_x3C_Tracciato40_x3E_" fill="none" stroke="#787878" stroke-width="0.75" stroke-linecap="round" stroke-linejoin="round" x1="280.656" y1="102.4" x2="328.249" y2="102.4"/>
		<rect id="connector40pin" x="280.653" y="101.243" fill="none" width="47.598" height="2.314"/>
		<rect id="connector40terminal" x="328.249" y="101.243" fill="none" width="0" height="2.314"/>
		
			<text id="Not_connected_6_" transform="matrix(1 0 0 1 210.7639 103.5574)" fill="#8C8C8C" font-family="'DroidSans'" font-size="10">Not connected</text>
		<text transform="matrix(1 0 0 1 301.3889 98.9294)" fill="#8C8C8C" font-family="'DroidSans'" font-size="8.2639">40</text>
	</g>
	<g id="_x33_9">
		
			<line id="_x3C_Tracciato39" fill="none" stroke="#787878" stroke-width="0.75" stroke-linecap="round" stroke-linejoin="round" x1="280.656" y1="126.2" x2="328.249" y2="126.2"/>
		<rect id="connector39pin" x="280.653" y="125.043" fill="none" width="47.598" height="2.314"/>
		<rect id="connector39terminal" x="328.249" y="125.043" fill="none" width="0" height="2.314"/>
		<text id="_x33_.3V_Out" transform="matrix(1 0 0 1 237.8977 127.3572)" fill="#8C8C8C" font-family="'DroidSans'" font-size="10">3.3V Out</text>
		<text transform="matrix(1 0 0 1 301.3889 122.7302)" fill="#8C8C8C" font-family="'DroidSans'" font-size="8.2639">39</text>
	</g>
	<g id="_x33_7">
		
			<line id="_x3C_Tracciato37_x3E_" fill="none" stroke="#787878" stroke-width="0.75" stroke-linecap="round" stroke-linejoin="round" x1="280.656" y1="173.8" x2="328.249" y2="173.8"/>
		<rect id="connector37pin" x="280.653" y="172.643" fill="none" width="47.598" height="2.312"/>
		<rect id="connector37terminal" x="328.249" y="172.643" fill="none" width="0" height="2.312"/>
		<text id="GND_1_" transform="matrix(1 0 0 1 255.5393 174.7673)" fill="#8C8C8C" font-family="'DroidSans'" font-size="10">GND</text>
		<text transform="matrix(1 0 0 1 301.3889 170.3298)" fill="#8C8C8C" font-family="'DroidSans'" font-size="8.2639">37</text>
	</g>
	<g id="_x33_6">
		
			<line id="_x3C_Tracciato36_x3E_" fill="none" stroke="#787878" stroke-width="0.75" stroke-linecap="round" stroke-linejoin="round" x1="280.656" y1="197.6" x2="328.249" y2="197.6"/>
		<rect id="connector36pin" x="280.653" y="196.443" fill="none" width="47.598" height="2.312"/>
		<rect id="connector36terminal" x="328.249" y="196.443" fill="none" width="0" height="2.312"/>
		<text id="GND" transform="matrix(1 0 0 1 255.5393 195.8865)" fill="#8C8C8C" font-family="'DroidSans'" font-size="10">GND</text>
		<text transform="matrix(1 0 0 1 301.3889 194.1287)" fill="#8C8C8C" font-family="'DroidSans'" font-size="8.2639">36</text>
	</g>
	<g id="_x33_5">
		
			<line id="_x3C_Tracciato35_x3E_" fill="none" stroke="#787878" stroke-width="0.75" stroke-linecap="round" stroke-linejoin="round" x1="280.656" y1="221.4" x2="328.249" y2="221.4"/>
		<rect id="connector35pin" x="280.653" y="220.243" fill="none" width="47.598" height="2.314"/>
		<rect id="connector35terminal" x="328.249" y="220.243" fill="none" width="0" height="2.314"/>
		<text id="usr_12VIn" transform="matrix(1 0 0 1 236.2083 223.7126)" fill="#8C8C8C" font-family="'DroidSans'" font-size="10">usr12VIn</text>
		<text transform="matrix(1 0 0 1 301.3889 217.9294)" fill="#8C8C8C" font-family="'DroidSans'" font-size="8.2639">35</text>
	</g>
	<g id="_x33_4">
		
			<line id="_x3C_Tracciato34_x3E_" fill="none" stroke="#787878" stroke-width="0.75" stroke-linecap="round" stroke-linejoin="round" x1="280.656" y1="245.2" x2="328.249" y2="245.2"/>
		<rect id="connector34pin" x="280.653" y="244.043" fill="none" width="47.598" height="2.314"/>
		<rect id="connector34terminal" x="328.249" y="244.043" fill="none" width="0" height="2.314"/>
		<text id="A0" transform="matrix(1 0 0 1 264.9827 247.5134)" fill="#8C8C8C" font-family="'DroidSans'" font-size="10">A0</text>
		<text transform="matrix(1 0 0 1 301.3889 241.7302)" fill="#8C8C8C" font-family="'DroidSans'" font-size="8.2639">34</text>
	</g>
	<g id="_x33_3">
		
			<line id="_x3C_Tracciato33_x3E_" fill="none" stroke="#787878" stroke-width="0.75" stroke-linecap="round" stroke-linejoin="round" x1="280.656" y1="269" x2="328.249" y2="269"/>
		<rect id="connector33pin" x="280.653" y="267.844" fill="none" width="47.598" height="2.312"/>
		<rect id="connector33terminal" x="328.249" y="267.844" fill="none" width="0" height="2.312"/>
		
			<text id="Not_connected_2_" transform="matrix(1 0 0 1 209.3621 271.3103)" fill="#8C8C8C" font-family="'DroidSans'" font-size="10">Not Connected</text>
		<text transform="matrix(1 0 0 1 301.3889 265.531)" fill="#8C8C8C" font-family="'DroidSans'" font-size="8.2639">33</text>
	</g>
	<g id="_x33_2">
		
			<line id="_x3C_Tracciato32_x3E_" fill="none" stroke="#787878" stroke-width="0.75" stroke-linecap="round" stroke-linejoin="round" x1="280.656" y1="292.8" x2="328.249" y2="292.8"/>
		<rect id="connector32pin" x="280.653" y="291.643" fill="none" width="47.598" height="2.312"/>
		<rect id="connector32terminal" x="328.249" y="291.643" fill="none" width="0" height="2.312"/>
		
			<text id="Not_connected_3_" transform="matrix(1 0 0 1 209.3621 294.5886)" fill="#8C8C8C" font-family="'DroidSans'" font-size="10">Not Connected</text>
		<text transform="matrix(1 0 0 1 301.3889 289.3318)" fill="#8C8C8C" font-family="'DroidSans'" font-size="8.2639">32</text>
	</g>
	<g id="_x33_1">
		
			<line id="_x3C_Tracciato31_x3E_" fill="none" stroke="#787878" stroke-width="0.75" stroke-linecap="round" stroke-linejoin="round" x1="280.656" y1="316.6" x2="328.249" y2="316.6"/>
		<rect id="connector31pin" x="280.653" y="315.44" fill="none" width="47.598" height="2.313"/>
		<rect id="connector31terminal" x="328.249" y="315.44" fill="none" width="0" height="2.313"/>
		
			<text id="Not_connected_4_" transform="matrix(1 0 0 1 209.3621 317.7537)" fill="#8C8C8C" font-family="'DroidSans'" font-size="10">Not Connected</text>
		<text transform="matrix(1 0 0 1 301.3889 313.1306)" fill="#8C8C8C" font-family="'DroidSans'" font-size="8.2639">31</text>
	</g>
	<g id="_x33_0">
		
			<line id="_x3C_Tracciato30_x3E_" fill="none" stroke="#787878" stroke-width="0.75" stroke-linecap="round" stroke-linejoin="round" x1="280.656" y1="340.397" x2="328.249" y2="340.397"/>
		<rect id="connector30pin" x="280.653" y="339.243" fill="none" width="47.598" height="2.312"/>
		<rect id="connector30terminal" x="328.249" y="339.243" fill="none" width="0" height="2.312"/>
		<text id="I2C_x5F_SDA" transform="matrix(1 0 0 1 239.5149 341.5535)" fill="#8C8C8C" font-family="'DroidSans'" font-size="10">I2C_SDA</text>
		<text transform="matrix(1 0 0 1 301.3889 336.9314)" fill="#8C8C8C" font-family="'DroidSans'" font-size="8.2639">30</text>
	</g>
	<g id="_x32_9">
		
			<line id="_x3C_Tracciato29_x3E_" fill="none" stroke="#787878" stroke-width="0.75" stroke-linecap="round" stroke-linejoin="round" x1="280.656" y1="364.197" x2="328.249" y2="364.197"/>
		<rect id="connector29pin" x="280.653" y="363.04" fill="none" width="47.598" height="2.317"/>
		<rect id="connector29terminal" x="328.249" y="363.04" fill="none" width="0" height="2.317"/>
		<text id="I2C_x5F_SCL" transform="matrix(1 0 0 1 241.3987 365.3542)" fill="#8C8C8C" font-family="'DroidSans'" font-size="10">I2C_SCL</text>
		<text transform="matrix(1 0 0 1 301.3889 360.7302)" fill="#8C8C8C" font-family="'DroidSans'" font-size="8.2639">29</text>
	</g>
	<g id="_x32_8">
		
			<line id="_x3C_Tracciato28_x3E_" fill="none" stroke="#787878" stroke-width="0.75" stroke-linecap="round" stroke-linejoin="round" x1="280.656" y1="388" x2="328.249" y2="388"/>
		<rect id="connector28pin" x="280.653" y="386.844" fill="none" width="47.598" height="2.311"/>
		<rect id="connector28terminal" x="328.249" y="386.844" fill="none" width="0" height="2.311"/>
		
			<text id="Not_connected_5_" transform="matrix(1 0 0 1 209.3621 390.3162)" fill="#8C8C8C" font-family="'DroidSans'" font-size="10">Not Connected</text>
		<text transform="matrix(1 0 0 1 301.3889 384.5291)" fill="#8C8C8C" font-family="'DroidSans'" font-size="8.2639">28</text>
	</g>
	<g id="_x32_7">
		
			<line id="_x3C_Tracciato27_x3E_" fill="none" stroke="#787878" stroke-width="0.75" stroke-linecap="round" stroke-linejoin="round" x1="280.656" y1="411.798" x2="328.249" y2="411.798"/>
		<rect id="connector27pin" x="280.653" y="410.64" fill="none" width="47.598" height="2.312"/>
		<rect id="connector27terminal" x="328.249" y="410.64" fill="none" width="0" height="2.312"/>
		
			<text id="Not_connected_1_" transform="matrix(1 0 0 1 209.3621 414.115)" fill="#8C8C8C" font-family="'DroidSans'" font-size="10">Not Connected</text>
		<text transform="matrix(1 0 0 1 301.3889 408.3318)" fill="#8C8C8C" font-family="'DroidSans'" font-size="8.2639">27</text>
	</g>
	<g id="_x32_6">
		
			<line id="_x3C_Tracciato26_x3E_" fill="none" stroke="#787878" stroke-width="0.75" stroke-linecap="round" stroke-linejoin="round" x1="280.656" y1="435.6" x2="328.249" y2="435.6"/>
		<rect id="connector26pin" x="280.653" y="434.44" fill="none" width="47.598" height="2.313"/>
		<rect id="connector26terminal" x="328.249" y="434.44" fill="none" width="0" height="2.313"/>
		<text id="D3" transform="matrix(1 0 0 1 264.2209 437.9138)" fill="#8C8C8C" font-family="'DroidSans'" font-size="10">D3</text>
		<text transform="matrix(1 0 0 1 301.3889 432.1306)" fill="#8C8C8C" font-family="'DroidSans'" font-size="8.2639">26</text>
	</g>
	<g id="_x32_5">
		
			<line id="_x3C_Tracciato25_x3E_" fill="none" stroke="#787878" stroke-width="0.75" stroke-linecap="round" stroke-linejoin="round" x1="280.656" y1="459.397" x2="328.249" y2="459.397"/>
		<rect id="connector25pin" x="280.653" y="458.243" fill="none" width="47.598" height="2.312"/>
		<rect id="connector25terminal" x="328.249" y="458.243" fill="none" width="0" height="2.312"/>
		<text id="D2" transform="matrix(1 0 0 1 264.2209 461.7126)" fill="#8C8C8C" font-family="'DroidSans'" font-size="10">D2</text>
		<text transform="matrix(1 0 0 1 301.3889 455.9333)" fill="#8C8C8C" font-family="'DroidSans'" font-size="8.2639">25</text>
	</g>
	<g id="_x32_4">
		
			<line id="_x3C_Tracciato24_x3E_" fill="none" stroke="#787878" stroke-width="0.75" stroke-linecap="round" stroke-linejoin="round" x1="280.656" y1="483.197" x2="328.249" y2="483.197"/>
		<rect id="connector24pin" x="280.653" y="482.04" fill="none" width="47.598" height="2.317"/>
		<rect id="connector24terminal" x="328.249" y="482.04" fill="none" width="0" height="2.317"/>
		<text id="D1" transform="matrix(1 0 0 1 264.2209 485.5154)" fill="#8C8C8C" font-family="'DroidSans'" font-size="10">D1</text>
		<text transform="matrix(1 0 0 1 301.3889 479.7302)" fill="#8C8C8C" font-family="'DroidSans'" font-size="8.2639">24</text>
	</g>
	<g id="_x32_3">
		
			<line id="_x3C_Tracciato23_x3E_" fill="none" stroke="#787878" stroke-width="0.75" stroke-linecap="round" stroke-linejoin="round" x1="280.656" y1="507" x2="328.249" y2="507"/>
		<rect id="connector23pin" x="280.653" y="505.844" fill="none" width="47.598" height="2.311"/>
		<rect id="connector23terminal" x="328.249" y="505.844" fill="none" width="0" height="2.311"/>
		<text id="D0" transform="matrix(1 0 0 1 264.2209 509.3123)" fill="#8C8C8C" font-family="'DroidSans'" font-size="10">D0</text>
		<text transform="matrix(1 0 0 1 301.3889 503.5291)" fill="#8C8C8C" font-family="'DroidSans'" font-size="8.2639">23</text>
	</g>
	<g id="_x32_2">
		
			<line id="_x3C_Tracciato22_x3E_" fill="none" stroke="#787878" stroke-width="0.75" stroke-linecap="round" stroke-linejoin="round" x1="245.745" y1="545.703" x2="245.745" y2="593.296"/>
		<rect id="connector22pin" x="244.587" y="545.699" fill="none" width="2.313" height="47.597"/>
		<rect id="connector22terminal" x="245.744" y="592.137" fill="none" width="0" height="2.313"/>
		
			<text id="UART_Tx" transform="matrix(-4.371139e-08 1 -1 -4.371139e-08 242.9612 505.1697)" fill="#8C8C8C" font-family="'DroidSans'" font-size="10">UART Tx</text>
		
			<text transform="matrix(-4.371139e-08 1 -1 -4.371139e-08 249.2112 566.4353)" fill="#8C8C8C" font-family="'DroidSans'" font-size="8.2639">22</text>
	</g>
	<g id="_x32_1">
		
			<line id="_x3C_Tracciato21_x3E_" fill="none" stroke="#787878" stroke-width="0.75" stroke-linecap="round" stroke-linejoin="round" x1="228.345" y1="545.697" x2="228.345" y2="593.291"/>
		<rect id="connector21pin" x="227.191" y="545.693" fill="none" width="2.314" height="47.598"/>
		<rect id="connector21terminal" x="228.348" y="592.135" fill="none" width="0" height="2.313"/>
		
			<text id="UART_Rx" transform="matrix(-4.371139e-08 1 -1 -4.371139e-08 226.0295 504.1599)" fill="#8C8C8C" font-family="'DroidSans'" font-size="10">UART Rx</text>
		
			<text transform="matrix(-4.371139e-08 1 -1 -4.371139e-08 231.8147 566.4294)" fill="#8C8C8C" font-family="'DroidSans'" font-size="8.2639">21</text>
	</g>
	<g id="_x32_0">
		
			<line id="_x3C_Tracciato20_x3E_" fill="none" stroke="#787878" stroke-width="0.75" stroke-linecap="round" stroke-linejoin="round" x1="92.901" y1="523.6" x2="139.344" y2="523.6"/>
		<rect id="connector20pin" x="91.743" y="522.44" fill="none" width="47.597" height="2.313"/>
		<rect id="connector20terminal" x="91.743" y="522.44" fill="none" width="0" height="2.313"/>
		<text id="IN_4" transform="matrix(1 0 0 1 143.969 525.9138)" fill="#8C8C8C" font-family="'DroidSans'" font-size="10">INPUT 4</text>
		<text transform="matrix(1 0 0 1 110.9919 520.1306)" fill="#8C8C8C" font-family="'DroidSans'" font-size="8.2639">20</text>
	</g>
	<g id="_x31_9">
		
			<line id="_x3C_Tracciato19_x3E_" fill="none" stroke="#787878" stroke-width="0.75" stroke-linecap="round" stroke-linejoin="round" x1="92.901" y1="499.798" x2="139.344" y2="499.798"/>
		<rect id="connector19pin" x="91.743" y="498.64" fill="none" width="47.597" height="2.312"/>
		<rect id="connector19terminal" x="91.743" y="498.64" fill="none" width="0" height="2.312"/>
		<text id="IN_3" transform="matrix(1 0 0 1 143.969 502.115)" fill="#8C8C8C" font-family="'DroidSans'" font-size="10">INPUT 3</text>
		<text transform="matrix(1 0 0 1 110.9919 496.3318)" fill="#8C8C8C" font-family="'DroidSans'" font-size="8.2639">19</text>
	</g>
	<g id="_x31_8">
		
			<line id="_x3C_Tracciato18_x3E_" fill="none" stroke="#787878" stroke-width="0.75" stroke-linecap="round" stroke-linejoin="round" x1="92.901" y1="476" x2="139.344" y2="476"/>
		<rect id="connector18pin" x="91.743" y="474.844" fill="none" width="47.597" height="2.311"/>
		<rect id="connector18terminal" x="91.743" y="474.844" fill="none" width="0" height="2.311"/>
		<text id="IN_2" transform="matrix(1 0 0 1 143.969 478.3123)" fill="#8C8C8C" font-family="'DroidSans'" font-size="10">INPUT 2</text>
		<text transform="matrix(1 0 0 1 110.9919 472.5291)" fill="#8C8C8C" font-family="'DroidSans'" font-size="8.2639">18</text>
	</g>
	<g id="_x31_7">
		
			<line id="_x3C_Tracciato17_x3E_" fill="none" stroke="#787878" stroke-width="0.75" stroke-linecap="round" stroke-linejoin="round" x1="92.901" y1="452.197" x2="139.344" y2="452.197"/>
		<rect id="connector17terminal" x="91.743" y="451.04" fill="none" width="0" height="2.317"/>
		<rect id="connector17pin" x="91.743" y="451.04" fill="none" width="47.597" height="2.317"/>
		<text id="IN_1" transform="matrix(1 0 0 1 143.969 454.5154)" fill="#8C8C8C" font-family="'DroidSans'" font-size="10">INPUT 1</text>
		<text transform="matrix(1 0 0 1 110.9919 448.7302)" fill="#8C8C8C" font-family="'DroidSans'" font-size="8.2639">17</text>
	</g>
	<g id="_x31_6">
		
			<line id="_x3C_Tracciato16_x3E_" fill="none" stroke="#787878" stroke-width="0.75" stroke-linecap="round" stroke-linejoin="round" x1="92.901" y1="412.597" x2="139.344" y2="412.597"/>
		<rect id="connector16pin" x="91.743" y="411.44" fill="none" width="47.597" height="2.312"/>
		<rect id="connector16terminal" x="91.743" y="411.44" fill="none" width="0" height="2.312"/>
		<text id="OUT_4" transform="matrix(1 0 0 1 143.969 414.9138)" fill="#8C8C8C" font-family="'DroidSans'" font-size="10">OUTPUT 4</text>
		<text transform="matrix(1 0 0 1 110.9919 409.1326)" fill="#8C8C8C" font-family="'DroidSans'" font-size="8.2639">16</text>
	</g>
	<g id="_x31_5">
		
			<line id="_x3C_Tracciato15_x3E_" fill="none" stroke="#787878" stroke-width="0.75" stroke-linecap="round" stroke-linejoin="round" x1="92.901" y1="388.802" x2="139.344" y2="388.802"/>
		<rect id="connector15pin" x="91.743" y="387.64" fill="none" width="47.597" height="2.312"/>
		<rect id="connector15terminal" x="91.743" y="387.64" fill="none" width="0" height="2.312"/>
		<text id="OUT_3" transform="matrix(1 0 0 1 143.969 391.113)" fill="#8C8C8C" font-family="'DroidSans'" font-size="10">OUTPUT 3</text>
		<text transform="matrix(1 0 0 1 110.9919 385.3318)" fill="#8C8C8C" font-family="'DroidSans'" font-size="8.2639">15</text>
	</g>
	<g id="_x31_4">
		
			<line id="_x3C_Tracciato14_x3E_" fill="none" stroke="#787878" stroke-width="0.75" stroke-linecap="round" stroke-linejoin="round" x1="93.481" y1="303.076" x2="139.925" y2="303.076"/>
		<rect id="connector14pin" x="92.324" y="301.916" fill="none" width="47.597" height="2.317"/>
		<rect id="connector14terminal" x="92.324" y="301.916" fill="none" width="0" height="2.317"/>
		<text id="CAN_L" transform="matrix(1 0 0 1 144.5496 305.3894)" fill="#8C8C8C" font-family="'DroidSans'" font-size="10">CAN L</text>
		<text transform="matrix(1 0 0 1 111.5725 299.6023)" fill="#8C8C8C" font-family="'DroidSans'" font-size="8.2639">14</text>
	</g>
	<g id="_x31_3">
		
			<line id="_x3C_Tracciato13_x3E_" fill="none" stroke="#787878" stroke-width="0.75" stroke-linecap="round" stroke-linejoin="round" x1="93.481" y1="279.272" x2="139.925" y2="279.272"/>
		<rect id="connector13pin" x="92.324" y="278.119" fill="none" width="47.597" height="2.312"/>
		<rect id="connector13terminal" x="92.324" y="278.119" fill="none" width="0" height="2.312"/>
		<text id="CAN_H" transform="matrix(1 0 0 1 144.5496 281.5886)" fill="#8C8C8C" font-family="'DroidSans'" font-size="10">CAN H</text>
		<text transform="matrix(1 0 0 1 111.5725 275.8074)" fill="#8C8C8C" font-family="'DroidSans'" font-size="8.2639">13</text>
	</g>
	<g id="_x31_2">
		
			<line id="_x3C_Tracciato12_x3E_" fill="none" stroke="#787878" stroke-width="0.75" stroke-linecap="round" stroke-linejoin="round" x1="92.901" y1="255.997" x2="139.344" y2="255.997"/>
		<rect id="connector12pin" x="91.743" y="254.837" fill="none" width="47.597" height="2.317"/>
		<rect id="connector12terminal" x="91.743" y="254.837" fill="none" width="0" height="2.317"/>
		<text id="UART_Rx_1_" transform="matrix(1 0 0 1 143.969 258.3103)" fill="#8C8C8C" font-family="'DroidSans'" font-size="10">UART Rx</text>
		<text transform="matrix(1 0 0 1 110.9919 252.5232)" fill="#8C8C8C" font-family="'DroidSans'" font-size="8.2639">12</text>
	</g>
	<g id="_x31_1">
		
			<line id="_x3C_Tracciato11_x3E_" fill="none" stroke="#787878" stroke-width="0.75" stroke-linecap="round" stroke-linejoin="round" x1="92.901" y1="232.193" x2="139.344" y2="232.193"/>
		<rect id="connector11pin" x="91.743" y="231.04" fill="none" width="47.597" height="2.312"/>
		<rect id="connector11terminal" x="91.743" y="231.04" fill="none" width="0" height="2.312"/>
		<text id="UART_Tx_1_" transform="matrix(1 0 0 1 143.969 234.5095)" fill="#8C8C8C" font-family="'DroidSans'" font-size="10">UART Tx</text>
		<text transform="matrix(1 0 0 1 110.9919 228.7283)" fill="#8C8C8C" font-family="'DroidSans'" font-size="8.2639">11</text>
	</g>
	<g id="_x31_0">
		
			<line id="_x3C_Tracciato10_x3E_" fill="none" stroke="#787878" stroke-width="0.75" stroke-linecap="round" stroke-linejoin="round" x1="92.901" y1="208.396" x2="139.344" y2="208.396"/>
		<rect id="connector10pin" x="91.743" y="207.236" fill="none" width="47.597" height="2.313"/>
		<rect id="connector10terminal" x="91.743" y="207.236" fill="none" width="0" height="2.313"/>
		
			<text id="I2C_x5F_SCL_1_" transform="matrix(1 0 0 1 143.969 210.7068)" fill="#8C8C8C" font-family="'DroidSans'" font-size="10">I2C_SCL</text>
		<text transform="matrix(1 0 0 1 110.9919 204.9236)" fill="#8C8C8C" font-family="'DroidSans'" font-size="8.2639">10</text>
	</g>
	<g id="_x39_">
		
			<line id="_x3C_Tracciato9_x3E_" fill="none" stroke="#787878" stroke-width="0.75" stroke-linecap="round" stroke-linejoin="round" x1="92.901" y1="184.594" x2="139.344" y2="184.594"/>
		<rect id="connector9pin" x="91.743" y="183.44" fill="none" width="47.597" height="2.312"/>
		<rect id="connector9terminal" x="91.743" y="183.44" fill="none" width="0" height="2.312"/>
		
			<text id="I2C_x5F_SDA_1_" transform="matrix(1 0 0 1 143.969 186.9119)" fill="#8C8C8C" font-family="'DroidSans'" font-size="10">I2C_SDA</text>
		<text transform="matrix(1 0 0 1 113.2698 181.1267)" fill="#8C8C8C" font-family="'DroidSans'" font-size="8.2639">9</text>
	</g>
	<g id="_x38_">
		
			<line id="_x3C_Tracciato8_x3E_" fill="none" stroke="#787878" stroke-width="0.75" stroke-linecap="round" stroke-linejoin="round" x1="92.901" y1="364.997" x2="139.344" y2="364.997"/>
		<rect id="connector8pin" x="91.743" y="363.841" fill="none" width="47.597" height="2.313"/>
		<rect id="connector8terminal" x="91.743" y="363.841" fill="none" width="0" height="2.313"/>
		<text id="OUT_2" transform="matrix(1 0 0 1 143.969 367.3162)" fill="#8C8C8C" font-family="'DroidSans'" font-size="10">OUTPUT 2</text>
		<text transform="matrix(1 0 0 1 110.9919 361.531)" fill="#8C8C8C" font-family="'DroidSans'" font-size="8.2639">8</text>
	</g>
	<g id="_x37_">
		
			<line id="_x3C_Tracciato7_x3E_" fill="none" stroke="#787878" stroke-width="0.75" stroke-linecap="round" stroke-linejoin="round" x1="92.901" y1="341.197" x2="139.344" y2="341.197"/>
		<rect id="connector7pin" x="91.743" y="340.045" fill="none" width="47.597" height="2.311"/>
		<rect id="connector7terminal" x="91.743" y="340.045" fill="none" width="0" height="2.311"/>
		<text id="OUT_1" transform="matrix(1 0 0 1 143.969 343.5134)" fill="#8C8C8C" font-family="'DroidSans'" font-size="10">OUTPUT 1</text>
		<text transform="matrix(1 0 0 1 110.9919 337.7302)" fill="#8C8C8C" font-family="'DroidSans'" font-size="8.2639">7</text>
	</g>
	<g id="_x36_">
		
			<line id="_x3C_Tracciato6_x3E_" fill="none" stroke="#787878" stroke-width="0.75" stroke-linecap="round" stroke-linejoin="round" x1="212.698" y1="592.137" x2="212.698" y2="545.695"/>
		<rect id="connector6terminal" x="212.698" y="592.137" fill="none" width="0" height="2.313"/>
		<rect id="connector6pin" x="211.538" y="545.695" fill="none" width="2.316" height="47.596"/>
		
			<text id="GND_2_" transform="matrix(-4.371139e-08 -1 1 -4.371139e-08 215.012 541.0681)" fill="#8C8C8C" font-family="'DroidSans'" font-size="10">GND</text>
		
			<text transform="matrix(1.192488e-08 -1 1 1.192488e-08 208.0305 568.7712)" fill="#8C8C8C" font-family="'DroidSans'" font-size="8.2639">6</text>
	</g>
	<g id="_x35_">
		
			<line id="_x3C_Tracciato5_x3E_" fill="none" stroke="#787878" stroke-width="0.75" stroke-linecap="round" stroke-linejoin="round" x1="191.579" y1="592.137" x2="191.579" y2="545.695"/>
		<rect id="connector5pin" x="190.423" y="545.695" fill="none" width="2.312" height="47.596"/>
		<rect id="connector5terminal" x="191.579" y="592.137" fill="none" width="0" height="2.313"/>
		
			<text id="GND_3_" transform="matrix(-4.371139e-08 -1 1 -4.371139e-08 193.8918 541.0681)" fill="#8C8C8C" font-family="'DroidSans'" font-size="10">GND</text>
		
			<text transform="matrix(1.192488e-08 -1 1 1.192488e-08 186.9114 568.7712)" fill="#8C8C8C" font-family="'DroidSans'" font-size="8.2639">5</text>
	</g>
	<g id="_x34_">
		
			<line id="_x3C_Tracciato4_x3E_" fill="none" stroke="#787878" stroke-width="0.75" stroke-linecap="round" stroke-linejoin="round" x1="92.901" y1="160.8" x2="139.344" y2="160.8"/>
		<rect id="connector4pin" x="91.743" y="159.643" fill="none" width="47.597" height="2.312"/>
		<rect id="connector4terminal" x="91.743" y="159.643" fill="none" width="0" height="2.312"/>
		<text id="RS-232_Tx" transform="matrix(1 0 0 1 143.969 163.113)" fill="#8C8C8C" font-family="'DroidSans'" font-size="10">RS-232 Tx</text>
		<text transform="matrix(1 0 0 1 113.2698 157.3298)" fill="#8C8C8C" font-family="'DroidSans'" font-size="8.2639">4</text>
	</g>
	<g id="_x33_">
		
			<line id="_x3C_Tracciato3_x3E_" fill="none" stroke="#787878" stroke-width="0.75" stroke-linecap="round" stroke-linejoin="round" x1="92.901" y1="137" x2="139.344" y2="137"/>
		<rect id="connector3pin" x="91.743" y="135.844" fill="none" width="47.597" height="2.312"/>
		<rect id="connector3terminal" x="91.743" y="135.844" fill="none" width="0" height="2.312"/>
		<text id="RS-232_Rx" transform="matrix(1 0 0 1 143.969 139.3142)" fill="#8C8C8C" font-family="'DroidSans'" font-size="10">RS-232 Rx</text>
		<text transform="matrix(1 0 0 1 113.2698 133.531)" fill="#8C8C8C" font-family="'DroidSans'" font-size="8.2639">3</text>
	</g>
	<g id="_x32_">
		
			<line id="_x3C_Tracciato2_x3E_" fill="none" stroke="#787878" stroke-width="0.75" stroke-linecap="round" stroke-linejoin="round" x1="93.479" y1="113.79" x2="139.923" y2="113.79"/>
		<rect id="connector2pin" x="92.322" y="112.637" fill="none" width="47.598" height="2.312"/>
		<rect id="connector2terminal" x="92.323" y="112.637" fill="none" width="0" height="2.312"/>
		
			<text id="_x35_V_Out_1_" transform="matrix(1 0 0 1 144.5535 116.0925)" fill="#8C8C8C" font-family="'DroidSans'" font-size="10">5V Out</text>
		<text transform="matrix(1 0 0 1 113.8479 110.3074)" fill="#8C8C8C" font-family="'DroidSans'" font-size="8.2639">2</text>
	</g>
	<g id="_x31_">
		
			<line id="_x3C_Tracciato1_x3E_" fill="none" stroke="#787878" stroke-width="0.75" stroke-linecap="round" stroke-linejoin="round" x1="93.485" y1="89.979" x2="139.928" y2="89.979"/>
		<rect id="connector1pin" x="92.328" y="88.822" fill="none" width="47.597" height="2.314"/>
		<rect id="connector1terminal" x="92.328" y="88.822" fill="none" width="0" height="2.314"/>
		<text id="User_12_In" transform="matrix(1 0 0 1 144.5535 92.2917)" fill="#8C8C8C" font-family="'DroidSans'" font-size="10">usr12V In</text>
		<text transform="matrix(1 0 0 1 113.8538 86.5085)" fill="#8C8C8C" font-family="'DroidSans'" font-size="8.2639">1</text>
	</g>
</g>
<rect id="connector4pin" x="190.423" y="545.695" display="none" fill="none" width="2.311" height="47.596"/>
<rect id="connector4terminal_1_" x="212.698" y="592.137" display="none" fill="none" width="0" height="2.311"/>
<rect id="connector5terminal_1_" x="212.698" y="592.137" display="none" fill="none" width="0" height="2.313"/>
<rect id="connector6terminal_1_" x="212.696" y="592.135" display="none" fill="none" width="0" height="2.316"/>
<rect id="connector4pin_1_" x="211.542" y="545.695" display="none" fill="none" width="2.311" height="47.596"/>
<rect id="connector5pin_1_" x="211.542" y="545.695" display="none" fill="none" width="2.312" height="47.596"/>
<rect id="connector7pin_1_" x="211.542" y="545.695" display="none" fill="none" width="2.312" height="47.596"/>
<rect id="connector4terminal" x="191.579" y="592.137" display="none" fill="none" width="0" height="2.311"/>
<rect id="connector5terminal" x="191.579" y="592.137" display="none" fill="none" width="0" height="2.313"/>
<rect id="connector6terminal" x="191.576" y="592.135" display="none" fill="none" width="0" height="2.316"/>
<rect id="connector6pin" x="190.419" y="545.695" display="none" fill="none" width="2.316" height="47.596"/>
<rect id="connector7pin" x="190.423" y="545.695" display="none" fill="none" width="2.312" height="47.596"/>
</svg>
