<?xml version='1.0' encoding='UTF-8' standalone='no'?>
<!-- Created with Fritzing (http://www.fritzing.org/) -->
<svg xmlns="http://www.w3.org/2000/svg"  width="1.5in" x="0in" version="1.2" y="0in" height="1in" viewBox="0 0 108 72" baseProfile="tiny">
 <desc >Fritzing schematic generated by brd2svg</desc>
 <g  id="schematic">
  <rect  width="78.75" x="14.4" y="14.4" fill="none" height="43.2" stroke="#000000" stroke-linejoin="round" stroke-linecap="round" stroke-width="0.9"/>
  <text  x="54" y="29" font-family="'Droid Sans'" fill="#000000" text-anchor="middle" stroke="none" id="label" font-size="3.5">FemtoBuck</text>
  <text  x="54" y="32.5" font-family="'Droid Sans'" fill="#000000" text-anchor="middle" stroke="none" id="label" font-size="3.5">LED</text>
  <text  x="54" y="36" font-family="'Droid Sans'" fill="#000000" text-anchor="middle" stroke="none" id="label" font-size="3.5">Driver</text>
  <line  fill="none" stroke="#787878" stroke-linejoin="round" stroke-linecap="round" y1="28.8" stroke-width="0.699998" x1="0.349999" y2="28.8" x2="14.4"/>
  <rect  width="14.4" x="0" y="28.45" fill="none" height="0.699998" id="connector13pin" stroke-width="0" connectorName="CTRL_CH1"/>
  <rect  width="0" x="0" y="28.45" fill="none" height="0.699998" id="connector13terminal" stroke-width="0"/>
  <text  x="15.8" y="29.5" font-family="'Droid Sans'" fill="#8c8c8c" text-anchor="start" stroke="none" id="label13" font-size="3.5">CTRL_CH1</text>
  <line  fill="none" stroke="#787878" stroke-linejoin="round" stroke-linecap="round" y1="28.8" stroke-width="0.699998" x1="93.2501" y2="28.8" x2="107.65"/>
  <rect  width="14.4" x="93.6" y="28.45" fill="none" connectorname="OUT-" height="0.699998" id="connector15pin" stroke-width="0"/>
  <rect  width="0" x="108" y="28.45" fill="none" height="0.699998" id="connector15terminal" stroke-width="0"/>
  <text  x="92.2003" y="29.5" font-family="'Droid Sans'" fill="#8c8c8c" text-anchor="end" stroke="none" id="label15" font-size="3.5">OUT-</text>
  <line  fill="none" stroke="#787878" stroke-linejoin="round" stroke-linecap="round" y1="36" stroke-width="0.699998" x1="93.2501" y2="36" x2="107.65"/>
  <rect  width="14.4" x="93.6" y="35.65" fill="none" connectorname="OUT+" height="0.699998" id="connector14pin" stroke-width="0"/>
  <rect  width="0" x="108" y="35.65" fill="none" height="0.699998" id="connector14terminal" stroke-width="0"/>
  <text  x="92.2003" y="36.7" font-family="'Droid Sans'" fill="#8c8c8c" text-anchor="end" stroke="none" id="label14" font-size="3.5">OUT+</text>
  <line  fill="none" stroke="#787878" stroke-linejoin="round" stroke-linecap="round" y1="0.349999" stroke-width="0.699998" x1="50.4" y2="14.4" x2="50.4"/>
  <rect  width="0.699998" x="50.05" y="0" fill="none" connectorname="VIN" height="14.4" id="connector11pin" stroke-width="0"/>
  <rect  width="0.699998" x="50.05" y="0" fill="none" height="0" id="connector11terminal" stroke-width="0"/>
  <g  transform="matrix(1, 0, 0, 1, 51.8, 16)">
   <g  transform="rotate(270)">
    <text  x="0" y="0" font-family="'Droid Sans'" fill="#8c8c8c" text-anchor="end" stroke="none" id="label11" font-size="3.5">VIN</text>
   </g>
  </g>
  <line  fill="none" stroke="#787878" stroke-linejoin="round" stroke-linecap="round" y1="57.6" stroke-width="0.699998" x1="50.4" y2="71.65" x2="50.4"/>
  <rect  width="0.699998" x="50.05" y="57.6" fill="none" connectorname="GND" height="14.4" id="connector10pin" stroke-width="0"/>
  <rect  width="0.699998" x="50.05" y="72" fill="none" height="0" id="connector10terminal" stroke-width="0"/>
  <g  transform="matrix(1, 0, 0, 1, 51.8, 56)">
   <g  transform="rotate(270)">
    <text  x="0" y="0" font-family="'Droid Sans'" fill="#8c8c8c" text-anchor="start" stroke="none" id="label10" font-size="3.5">GND</text>
   </g>
  </g>
  <rect  width="0.699998" x="50.05" y="57.6" fill="none" connectorname="GND" height="14.4" id="connector12pin" stroke-width="0"/>
  <rect  width="0.699998" x="50.05" y="72" fill="none" height="0" id="connector12terminal" stroke-width="0"/>
 </g>
</svg>
