<svg width="1.5in" height="2.3in" baseProfile="tiny" version="1.2" viewBox="0 0 38.1 58.42" xmlns="http://www.w3.org/2000/svg">
 <g id="schematic">
  <rect x="5.239" y="5.239" width="27.62" height="47.94" fill="#fff" stroke="#000" stroke-linecap="round" stroke-width=".3175"/>
  <line id="connector20pin" x1="32.9" x2="37.98" y1="10.16" y2="10.16" fill="none" stroke="#787878" stroke-linecap="round" stroke-width=".2469"/>
  <text x="32.4026" y="10.4069" fill="#8c8c8c" font-family="'Droid Sans'" font-size="1.235" stroke-width="0" text-anchor="end">D0/RX</text>
  <rect id="connector20terminal" x="37.98" y="10.04" width=".2469" height=".2469" fill="none" stroke-width="0"/>
  <line id="connector21pin" x1="32.9" x2="37.98" y1="12.7" y2="12.7" fill="none" stroke="#787878" stroke-linecap="round" stroke-width=".2469"/>
  <text x="32.4026" y="12.9469" fill="#8c8c8c" font-family="'Droid Sans'" font-size="1.235" stroke-width="0" text-anchor="end">D1/TX</text>
  <rect id="connector21terminal" x="37.98" y="12.58" width=".2469" height=".2469" fill="none" stroke-width="0"/>
  <line id="connector22pin" x1="32.9" x2="37.98" y1="15.24" y2="15.24" fill="none" stroke="#787878" stroke-linecap="round" stroke-width=".2469"/>
  <text x="32.4026" y="15.4869" fill="#8c8c8c" font-family="'Droid Sans'" font-size="1.235" stroke-width="0" text-anchor="end">D2</text>
  <rect id="connector22terminal" x="37.98" y="15.12" width=".2469" height=".2469" fill="none" stroke-width="0"/>
  <line id="connector23pin" x1="32.9" x2="37.98" y1="17.78" y2="17.78" fill="none" stroke="#787878" stroke-linecap="round" stroke-width=".2469"/>
  <text x="32.4026" y="18.0269" fill="#8c8c8c" font-family="'Droid Sans'" font-size="1.235" stroke-width="0" text-anchor="end">D3 PWM</text>
  <rect id="connector23terminal" x="37.98" y="17.66" width=".2469" height=".2469" fill="none" stroke-width="0"/>
  <line id="connector24pin" x1="32.9" x2="37.98" y1="20.32" y2="20.32" fill="none" stroke="#787878" stroke-linecap="round" stroke-width=".2469"/>
  <text x="32.4026" y="20.5669" fill="#8c8c8c" font-family="'Droid Sans'" font-size="1.235" stroke-width="0" text-anchor="end">D4</text>
  <rect id="connector24terminal" x="37.98" y="20.2" width=".2469" height=".2469" fill="none" stroke-width="0"/>
  <line id="connector25pin" x1="32.9" x2="37.98" y1="22.86" y2="22.86" fill="none" stroke="#787878" stroke-linecap="round" stroke-width=".2469"/>
  <text x="32.4026" y="23.1069" fill="#8c8c8c" font-family="'Droid Sans'" font-size="1.235" stroke-width="0" text-anchor="end">D5 PWM</text>
  <rect id="connector25terminal" x="37.98" y="22.74" width=".2469" height=".2469" fill="none" stroke-width="0"/>
  <line id="connector26pin" x1="32.9" x2="37.98" y1="25.4" y2="25.4" fill="none" stroke="#787878" stroke-linecap="round" stroke-width=".2469"/>
  <text x="32.4026" y="25.6469" fill="#8c8c8c" font-family="'Droid Sans'" font-size="1.235" stroke-width="0" text-anchor="end">D6 PWM</text>
  <rect id="connector26terminal" x="37.98" y="25.28" width=".2469" height=".2469" fill="none" stroke-width="0"/>
  <line id="connector27pin" x1="32.9" x2="37.98" y1="27.94" y2="27.94" fill="none" stroke="#787878" stroke-linecap="round" stroke-width=".2469"/>
  <text x="32.4026" y="28.1869" fill="#8c8c8c" font-family="'Droid Sans'" font-size="1.235" stroke-width="0" text-anchor="end">D7</text>
  <rect id="connector27terminal" x="37.98" y="27.82" width=".2469" height=".2469" fill="none" stroke-width="0"/>
  <line id="connector10pin" x1="32.9" x2="37.98" y1="30.48" y2="30.48" fill="none" stroke="#787878" stroke-linecap="round" stroke-width=".2469"/>
  <text x="32.4026" y="30.7269" fill="#8c8c8c" font-family="'Droid Sans'" font-size="1.235" stroke-width="0" text-anchor="end">D8</text>
  <rect id="connector10terminal" x="37.98" y="30.36" width=".2469" height=".2469" fill="none" stroke-width="0"/>
  <line id="connector11pin" x1="32.9" x2="37.98" y1="33.02" y2="33.02" fill="none" stroke="#787878" stroke-linecap="round" stroke-width=".2469"/>
  <text x="32.4026" y="33.2669" fill="#8c8c8c" font-family="'Droid Sans'" font-size="1.235" stroke-width="0" text-anchor="end">D9 PWM</text>
  <rect id="connector11terminal" x="37.98" y="32.9" width=".2469" height=".2469" fill="none" stroke-width="0"/>
  <line id="connector12pin" x1="32.9" x2="37.98" y1="35.56" y2="35.56" fill="none" stroke="#787878" stroke-linecap="round" stroke-width=".2469"/>
  <text x="32.4026" y="35.8069" fill="#8c8c8c" font-family="'Droid Sans'" font-size="1.235" stroke-width="0" text-anchor="end">D10 PWM</text>
  <rect id="connector12terminal" x="37.98" y="35.44" width=".2469" height=".2469" fill="none" stroke-width="0"/>
  <text x="32.4026" y="38.3469" fill="#8c8c8c" font-family="'Droid Sans'" font-size="1.235" stroke-width="0" text-anchor="end">D11 PWM/MOSI</text>
  <line id="connector13pin" x1="32.9" x2="37.98" y1="38.1" y2="38.1" fill="none" stroke="#787878" stroke-linecap="round" stroke-width=".2469"/>
  <rect id="connector13terminal" x="37.98" y="37.98" width=".2469" height=".2469" fill="none" stroke-width="0"/>
  <line id="connector33pin" x1="32.9" x2="37.98" y1="38.1" y2="38.1" fill="none" stroke="#787878" stroke-linecap="round" stroke-width=".2469"/>
  <rect id="connector33terminal" x="37.98" y="37.98" width=".2469" height=".2469" fill="none" stroke-width="0"/>
  <line id="connector14pin" x1="32.9" x2="37.98" y1="40.64" y2="40.64" fill="none" stroke="#787878" stroke-linecap="round" stroke-width=".2469"/>
  <text x="32.4026" y="40.8869" fill="#8c8c8c" font-family="'Droid Sans'" font-size="1.235" stroke-width="0" text-anchor="end">D12/MISO</text>
  <g fill="none">
   <g stroke-width="0">
    <rect id="connector14terminal" x="37.98" y="40.52" width=".2469" height=".2469"/>
    <rect id="connector30terminal" x="37.98" y="40.52" width=".2469" height=".2469"/>
    <line id="connector30pin" x1="32.9" x2="37.98" y1="40.64" y2="40.64"/>
    <line id="connector15pin" x1="32.9" x2="37.98" y1="43.18" y2="43.18"/>
    <rect id="connector15terminal" x="37.98" y="43.06" width=".2469" height=".2469"/>
    <rect id="connector32terminal" x="37.98" y="43.06" width=".2469" height=".2469"/>
   </g>
  </g>
   <line id="connector32pin" x1="32.9" x2="37.98" y1="43.18" y2="43.18" stroke="#787878" stroke-linecap="round" stroke-width=".2469"/>
  <text class="text" x="32.4026" y="43.4269" fill="#8c8c8c" font-family="'Droid Sans'" font-size="1.235" stroke-width="0" text-anchor="end">D13/SCK</text>
  <g fill="none">
   <g stroke-width="0">

    <line id="connector34pin" x1=".1235" x2="5.203" y1="10.16" y2="10.16" stroke-linecap="round"/>
    <rect id="connector34terminal" x="-.1235" y="10.04" width=".2469" height=".2469"/>
   </g>
   <line id="connector55pin" x1=".1235" x2="5.203" y1="10.16" y2="10.16" stroke="#787878" stroke-linecap="round" stroke-width=".2469"/>
  </g>
  <text x="5.69736" y="10.4069" fill="#8c8c8c" font-family="'Droid Sans'" font-size="1.235" stroke-width="0">RESET</text>
  <rect id="connector55terminal" x="-.1235" y="10.04" width=".2469" height=".2469" fill="none" stroke-width="0"/>
 
  <line id="connector17pin" x1=".1235" x2="5.203" y1="15.24" y2="15.24" fill="none" stroke="#787878" stroke-linecap="round" stroke-width=".2469"/>
  <text x="5.69736" y="15.4869" fill="#8c8c8c" font-family="'Droid Sans'" font-size="1.235" stroke-width="0">AREF</text>
  <rect id="connector17terminal" x="-.1235" y="15.12" width=".2469" height=".2469" fill="none" stroke-width="0"/>
  <line id="connector56pin" x1=".1235" x2="5.203" y1="17.78" y2="17.78" fill="none" stroke="#787878" stroke-linecap="round" stroke-width=".2469"/>
  <text x="5.69736" y="18.0269" fill="#8c8c8c" font-family="'Droid Sans'" font-size="1.235" stroke-width="0">IOREF</text>
  <rect id="connector56terminal" x="-.1235" y="17.66" width=".2469" height=".2469" fill="none" stroke-width="0"/>
  <line id="connector40pin" x1=".1235" x2="5.203" y1="22.86" y2="22.86" fill="none" stroke="#787878" stroke-linecap="round" stroke-width=".2469"/>
  <text x="5.69736" y="23.1069" fill="#8c8c8c" font-family="'Droid Sans'" font-size="1.235" stroke-width="0">A0</text>
  <rect id="connector40terminal" x="-.1235" y="22.74" width=".2469" height=".2469" fill="none" stroke-width="0"/>
  <line id="connector41pin" x1=".1235" x2="5.203" y1="25.4" y2="25.4" fill="none" stroke="#787878" stroke-linecap="round" stroke-width=".2469"/>
  <text x="5.69736" y="25.6469" fill="#8c8c8c" font-family="'Droid Sans'" font-size="1.235" stroke-width="0">A1</text>
  <rect id="connector41terminal" class="terminal" x="-.1235" y="25.28" width=".2469" height=".2469" fill="none" stroke-width="0"/>
  <line id="connector42pin" class="pin" x1=".1235" x2="5.203" y1="27.94" y2="27.94" fill="none" stroke="#787878" stroke-linecap="round" stroke-width=".2469"/>
  <text x="5.69736" y="28.1869" fill="#8c8c8c" font-family="'Droid Sans'" font-size="1.235" stroke-width="0">A2</text>
  <rect id="connector42terminal" x="-.1235" y="27.82" width=".2469" height=".2469" fill="none" stroke-width="0"/>
  <line id="connector43pin" x1=".1235" x2="5.203" y1="30.48" y2="30.48" fill="none" stroke="#787878" stroke-linecap="round" stroke-width=".2469"/>
  <text class="text" x="5.69736" y="30.7269" fill="#8c8c8c" font-family="'Droid Sans'" font-size="1.235" stroke-width="0">A3</text>
  <g fill="none">
   <g stroke-width="0">
    <rect id="connector43terminal" x="-.1235" y="30.36" width=".2469" height=".2469"/>
    <line id="connector18pin" x1=".1235" x2="5.203" y1="33.02" y2="33.02" stroke-linecap="round"/>
    <rect id="connector18terminal" x="-.1235" y="32.9" width=".2469" height=".2469"/>
   </g>
   <line id="connector44pin" x1=".1235" x2="5.203" y1="33.02" y2="33.02" stroke="#787878" stroke-linecap="round" stroke-width=".2469"/>
  </g>
  <text x="5.69736" y="33.2669" fill="#8c8c8c" font-family="'Droid Sans'" font-size="1.235" stroke-width="0">A4/SDA</text>
  <g fill="none">
   <g stroke-width="0">
    <rect id="connector44terminal" x="-.1235" y="32.9" width=".2469" height=".2469"/>
    <line id="connector45pin" x1=".1235" x2="5.203" y1="35.56" y2="35.56" stroke-linecap="round"/>
    <rect id="connector45terminal" x="-.1235" y="35.44" width=".2469" height=".2469"/>
   </g>
   <line id="connector19pin" x1=".1235" x2="5.203" y1="35.56" y2="35.56" stroke="#787878" stroke-linecap="round" stroke-width=".2469"/>
  </g>
  <text x="5.69736" y="35.8" fill="#8c8c8c" font-family="'Droid Sans'" font-size="1.235" stroke-width="0">A5/SCL</text>
  <rect id="connector19terminal" x="-.1235" y="35.44" width=".2469" height=".2469" fill="none" stroke-width="0"/>
 
  <text x="5.69736" y="38.4" fill="#8c8c8c" font-family="'Droid Sans'" font-size="1.235" stroke-width="0">ADC6</text>
  <line id="connector57pin" x1=".1235" x2="5.203" y1="38.1" y2="38.1" stroke="#787878" stroke-linecap="round" stroke-width=".2469"/>
  <rect id="connector57terminal" x="-.1235" y="37.98" width=".2469" height=".2469" fill="none" stroke-width="0"/>

  <text x="5.69736" y="40.88" fill="#8c8c8c" font-family="'Droid Sans'" font-size="1.235" stroke-width="0">A7</text>
  <line id="connectorA62pin" x1=".1235" x2="5.203" y1="40.64" y2="40.64" stroke="#787878" stroke-linecap="round" stroke-width=".2469"/>
  <rect id="connectorA62terminal" x="-.1235" y="40.52" width=".2469" height=".2469" fill="none" stroke-width="0"/>

  <line id="connector50pin" x1=".1235" x2="5.203" y1="48.26" y2="48.26" fill="none" stroke="#787878" stroke-linecap="round" stroke-width=".2469"/>
  <text x="5.69736" y="48.5069" fill="#8c8c8c" font-family="'Droid Sans'" font-size="1.235" stroke-width="0">N/C</text>
  <g fill="none">
   <g stroke-width="0">
    <rect id="connector50terminal" x="-.1235" y="48.14" width=".2469" height=".2469"/>
    <line id="connector16pin" x1="20.32" x2="20.32" y1="53.22" y2="58.3" stroke-linecap="round"/>
    <rect id="connector16terminal" x="20.2" y="58.3" width=".2469" height=".2469"/>
    <line id="connector51pin" x1="20.32" x2="20.32" y1="53.22" y2="58.3" stroke-linecap="round"/>
    <rect id="connector51terminal" x="20.2" y="58.3" width=".2469" height=".2469"/>
    <line id="connector52pin" x1="20.32" x2="20.32" y1="53.22" y2="58.3" stroke-linecap="round"/>
    <rect id="connector52terminal" x="20.2" y="58.3" width=".2469" height=".2469"/>
    <line id="connectorD40pin" x1="20.32" x2="20.32" y1="53.22" y2="58.3" stroke-linecap="round"/>
    <rect id="connectorD40terminal" x="20.2" y="58.3" width=".2469" height=".2469"/>
    <line id="connector35pin" x1="20.32" x2="20.32" y1="53.22" y2="58.3" stroke-linecap="round"/>
    <rect id="connector35terminal" x="20.2" y="58.3" width=".2469" height=".2469"/>
   </g>
   <line id="connectorA60pin" x1="20.32" x2="20.32" y1="53.22" y2="58.3" stroke="#787878" stroke-linecap="round" stroke-width=".2469"/>
  </g>
  <g transform="translate(20.57 52.72)">
   <g transform="rotate(270)">
    <text fill="#8c8c8c" font-family="'Droid Sans'" font-size="1.235" stroke-width="0">GND</text>
   </g>
  </g>
  <rect id="connectorA60terminal" x="20.2" y="58.3" width=".2469" height=".2469" fill="none" stroke-width="0"/>

  <g transform="translate(12.95 5.697)">
   <g transform="rotate(270)">
    <text fill="#8c8c8c" font-family="'Droid Sans'" font-size="1.235" stroke-width="0" text-anchor="end">3V3</text>
   </g>
  </g>
  <g fill="none">
   <line id="connector54pin" x1="12.7" x2="12.7" y1=".1235" y2="5.203"  stroke="#787878" stroke-linecap="round" stroke-width=".2469"/>
   <g stroke-width="0">
    <rect id="connector54terminal" x="12.58" y="-.1235" width=".2469" height=".2469"/>
    <line id="connector53pin" x1="17.78" x2="17.78" y1=".1235" y2="5.203" stroke-linecap="round"/>
    <rect id="connector53terminal" x="17.66" y="-.1235" width=".2469" height=".2469"/>
    <line id="connector31pin" x1="17.78" x2="17.78" y1=".1235" y2="5.203" stroke-linecap="round"/>
    <rect id="connector31terminal" x="17.66" y="-.1235" width=".2469" height=".2469"/>
   </g>
   <line id="connectorD41pin" x1="17.78" x2="17.78" y1=".1235" y2="5.203" stroke="#787878" stroke-linecap="round" stroke-width=".2469"/>
   <rect id="connectorD41terminal" x="17.66" y="-.1235" width=".2469" height=".2469" fill="none" stroke-width="0"/>
  </g>
  <g transform="translate(18.03 5.697)">
   <g transform="rotate(270)">
    <text fill="#8c8c8c" font-family="'Droid Sans'" font-size="1.235" stroke-width="0" text-anchor="end">VCC/5V</text>
   </g>
  </g>

 
  <g font-family="'Droid Sans'" font-size="1.499" stroke-width="0" text-anchor="middle">
   <text id="label" x="19.2088" y="26.9698">SeeedStudio</text>
   <text id="label" x="19.2088" y="28.5691">Grove Beginner Kit</text>
   <text id="label" x="19.2088" y="30.1684">Arduino™</text>
  </g>
 </g>
</svg>
