<?xml version='1.0' encoding='UTF-8' standalone='no'?>
<svg xmlns="http://www.w3.org/2000/svg" height="29.933334" id="svg1260" y="0in" width="9.999999" version="1.2" x="0in" viewBox="0 0 7.4999994 22.449998" gorn="0" >
    <desc >
        <referenceFile >HalogenSchem.svg</referenceFile>
    </desc>
    <metadata id="metadata1266" >
        <rdf:RDF xmlns:rdf="http://www.w3.org/1999/02/22-rdf-syntax-ns#">
            <cc:Work xmlns:cc="http://creativecommons.org/ns#" rdf:about="" xmlns:rdf="http://www.w3.org/1999/02/22-rdf-syntax-ns#">
                <dc:format xmlns:dc="http://purl.org/dc/elements/1.1/">image/svg+xml</dc:format>
                <dc:type rdf:resource="http://purl.org/dc/dcmitype/StillImage" xmlns:dc="http://purl.org/dc/elements/1.1/" xmlns:rdf="http://www.w3.org/1999/02/22-rdf-syntax-ns#"/>
                <dc:title xmlns:dc="http://purl.org/dc/elements/1.1/"/>
            </cc:Work>
        </rdf:RDF>
    </metadata>
    <defs id="defs1264" />
    <g transform="matrix(0.0986842,0,0,0.0986842,-36.748827,16.779209)" >
        <g >
            <g >
                <g id="g1926" gorn="0.3.0.0.0" >
                    <g id="g1934" gorn="0.3.0.0.0.0" >
                        <circle id="circle" r="36" cy="-56.604435" cx="410.38815" stroke="#000000" fill="none" stroke-width="4" gorn="0.3.0.0.0.0.0" />
                        <g transform="translate(270.3883,-116.60442)" >
                            <g >
                                <g >
                                    <g id="cross" gorn="0.3.0.0.0.0.1.0.0.0" >
                                        <line id="cross_1" stroke="#000000" stroke-width="4" y1="35" x1="165" x2="115" y2="85" gorn="0.3.0.0.0.0.1.0.0.0.0"  style="stroke-linecap:round"/>
                                        <g transform="matrix(-1,0,0,1,280,0)" >
                                            <g >
                                                <g >
                                                    <g >
                                                        <line id="cross_2" stroke="#000000" stroke-width="4" y1="35" x1="165" x2="115" y2="85" gorn="0.3.0.0.0.0.1.0.0.0.1.0.0.0.0"  style="stroke-linecap:round"/>
                                                    </g>
                                                </g>
                                            </g>
                                        </g>
                                    </g>
                                </g>
                            </g>
                        </g>
                    </g>
                </g>
            </g>
        </g>
    </g>
    <g transform="translate(-6.1045463,0.284)" >
        <g >
            <g >
                <g >
                    <path id="connector1pin" fill="#787878" gorn="0.4.0.0.0.0"  d="m 9.9,22.166 c -0.193,0 -0.35,-0.156 -0.35,-0.35 v -7.2 c 0,-0.193 0.156,-0.35 0.35,-0.35 0.194,0 0.35,0.156 0.35,0.35 v 7.2 c -10e-4,0.194 -0.157,0.35 -0.35,0.35 z"/>
                    <rect id="connector1terminal" height="0.0158" y="22.1581" width="0.0014" stroke="none" fill="none" stroke-width="0" x="9.8993" gorn="0.4.0.0.0.1" />
                </g>
            </g>
        </g>
    </g>
    <g transform="translate(-6.1045463,0.134)" >
        <g >
            <g >
                <g >
                    <rect height="0.001" id="rect1216" y="21.816" width="0.001" fill="none" x="9.8999996" gorn="0.5.0.0.0.0" />
                </g>
            </g>
        </g>
    </g>
    <g transform="translate(-2.6755463,6.5602)" >
        <g >
            <g >
                <g id="g1229" gorn="0.6.0.0.0" >
                    <g id="g1227" gorn="0.6.0.0.0.0" >
                        <g transform="rotate(-90)" >
                            <g >
                                <g >
                                    <g id="g1225" gorn="0.6.0.0.0.0.0.0.0.0" >
                                        <g id="g1223" gorn="0.6.0.0.0.0.0.0.0.0.0" >
                                            <g id="g1221" enable-background="new    " gorn="0.6.0.0.0.0.0.0.0.0.0.0" >
                                                <path id="path1219" fill="#787878" gorn="0.6.0.0.0.0.0.0.0.0.0.0.0"  d="m -11.647,5.54 h -0.891 V 5.388 l 0.342,-0.372 c 0.049,-0.053 0.093,-0.101 0.131,-0.145 0.038,-0.044 0.071,-0.086 0.099,-0.128 0.026,-0.042 0.047,-0.084 0.062,-0.125 0.015,-0.043 0.021,-0.088 0.021,-0.138 0,-0.038 -0.005,-0.072 -0.017,-0.102 -0.012,-0.03 -0.027,-0.054 -0.047,-0.075 -0.021,-0.02 -0.045,-0.035 -0.073,-0.046 -0.028,-0.011 -0.06,-0.016 -0.094,-0.016 -0.062,0 -0.118,0.013 -0.167,0.038 -0.051,0.024 -0.098,0.057 -0.143,0.096 l -0.1,-0.116 c 0.025,-0.023 0.055,-0.046 0.084,-0.065 0.029,-0.021 0.063,-0.039 0.097,-0.054 0.034,-0.015 0.071,-0.026 0.109,-0.036 0.038,-0.008 0.079,-0.013 0.121,-0.013 0.063,0 0.119,0.009 0.169,0.026 0.051,0.018 0.094,0.043 0.129,0.076 0.035,0.032 0.063,0.072 0.082,0.119 0.019,0.048 0.028,0.101 0.028,0.16 0,0.056 -0.009,0.108 -0.026,0.158 -0.017,0.05 -0.041,0.1 -0.07,0.148 -0.031,0.048 -0.066,0.097 -0.109,0.146 -0.041,0.049 -0.087,0.1 -0.136,0.152 L -12.32,5.37 v 0.008 h 0.673 z"/>
                                            </g>
                                        </g>
                                    </g>
                                </g>
                            </g>
                        </g>
                    </g>
                </g>
            </g>
        </g>
    </g>
    <g transform="translate(-6.1045463,0.134)" >
        <g >
            <g >
                <g >
                    <path id="connector0pin" fill="#787878" gorn="0.7.0.0.0.0"  d="m 9.9,7.766 c -0.193,0 -0.35,-0.157 -0.35,-0.35 v -7.2 c 0,-0.193 0.156,-0.35 0.35,-0.35 0.194,0 0.35,0.157 0.35,0.35 v 7.2 c -10e-4,0.193 -0.157,0.35 -0.35,0.35 z"/>
                    <rect id="connector0terminal" height="0.0158" y="-0.1419" width="0.0014" stroke="none" fill="none" stroke-width="0" x="9.8993" gorn="0.7.0.0.0.1" />
                </g>
            </g>
        </g>
    </g>
    <g transform="translate(-6.1045463,0.134)" >
        <g >
            <g >
                <g >
                    <polygon id="polygon1234" fill="none" points="9.9,0.216 9.901,0.216 " gorn="0.8.0.0.0.0" />
                </g>
            </g>
        </g>
    </g>
    <g transform="translate(-2.6755463,1.4802)" >
        <g >
            <g >
                <g id="g1247" gorn="0.9.0.0.0" >
                    <g id="g1245" gorn="0.9.0.0.0.0" >
                        <g transform="rotate(-90)" >
                            <g >
                                <g >
                                    <g id="g1243" gorn="0.9.0.0.0.0.0.0.0.0" >
                                        <g id="g1241" gorn="0.9.0.0.0.0.0.0.0.0.0" >
                                            <g id="g1239" enable-background="new    " gorn="0.9.0.0.0.0.0.0.0.0.0.0" >
                                                <path id="path1237" fill="#787878" gorn="0.9.0.0.0.0.0.0.0.0.0.0.0"  d="M -2.616,5.54 H -2.788 V 4.648 c 0,-0.028 0,-0.058 0,-0.09 0,-0.032 10e-4,-0.063 0.002,-0.095 10e-4,-0.032 0.002,-0.063 0.003,-0.092 10e-4,-0.028 0.002,-0.054 0.002,-0.076 -0.011,0.012 -0.021,0.021 -0.029,0.03 -0.008,0.009 -0.017,0.017 -0.026,0.024 -0.009,0.007 -0.018,0.016 -0.028,0.025 -0.01,0.008 -0.021,0.019 -0.035,0.03 L -3.044,4.522 -3.138,4.402 -2.764,4.11 h 0.146 v 1.43 z"/>
                                            </g>
                                        </g>
                                    </g>
                                </g>
                            </g>
                        </g>
                    </g>
                </g>
            </g>
        </g>
    </g>
</svg>
