<svg width="1.535in" height="1.8in" version="1.2" viewBox="0 0 1535 1800" xmlns="http://www.w3.org/2000/svg">
 <desc>
  <referenceFile>H-Bridge_Kit_2Go_schematic.svg</referenceFile>
 </desc>
 <desc>Fritzing schematic generated by brd2svg</desc>
 <g id="schematic">
  <rect x="195.9" y="206.4" width="1133" height="1394" fill="none" stroke="#000" stroke-linecap="round" stroke-linejoin="round" stroke-width="12.7"/>
  <g fill="#000000" font-family="OCRA" font-size="76.39" stroke-width="13.89" text-anchor="middle">
   <text x="762.50006" y="772.91675">H-Bridge</text>
   <text x="762.50006" y="877.08344">Kit</text>
   <text x="762.50006" y="981.25">2Go</text>
  </g>
  <line x1="4.861" x2="200" y1="507.6" y2="507.6" stroke="#555" stroke-linecap="round" stroke-linejoin="round" stroke-width="9.722"/>
  <rect id="connector28pin" x="1.627e-6" y="502.8" width="200" height="9.722" fill="none" stroke-width="0" connectorName="DBG_RESET"/>
  <rect id="connector28terminal" x="1.627e-6" y="502.8" width="0" height="9.722" fill="none" stroke-width="0"/>
  <text x="215.34026" y="507.59033" fill="#555555" font-family="OCRA" font-size="48.61" stroke-width="13.89">DBG_RESET</text>
  <g fill="none">
   <line x1="4.861" x2="200" y1="611.8" y2="611.8" stroke="#555" stroke-linecap="round" stroke-linejoin="round" stroke-width="9.722"/>
   <rect id="connector30pin" x="-4.169e-8" y="606.9" width="200" height="9.722" stroke-width="0" connectorName="DBG_TCK"/>
   <rect id="connector30terminal" x="-4.169e-8" y="606.9" width="0" height="9.722" stroke-width="0"/>
  </g>
  <text x="215.34026" y="611.75696" fill="#555555" font-family="OCRA" font-size="48.61" stroke-width="13.89">DBG_TCK</text>
  <g fill="none">
   <line x1="4.861" x2="200" y1="716" y2="716" stroke="#555" stroke-linecap="round" stroke-linejoin="round" stroke-width="9.722"/>
   <rect id="connector29pin" x="-4.169e-8" y="711.1" width="200" height="9.722" stroke-width="0" connectorName="DBG_TMS"/>
   <rect id="connector29terminal" x="-4.169e-8" y="711.1" width="0" height="9.722" stroke-width="0"/>
  </g>
  <text x="215.34026" y="715.92371" fill="#555555" font-family="OCRA" font-size="48.61" stroke-width="13.89">DBG_TMS</text>
  <g fill="none">
   <line x1="4.861" x2="200" y1="820.1" y2="820.1" stroke="#555" stroke-linecap="round" stroke-linejoin="round" stroke-width="9.722"/>
   <rect id="connector18pin" x="1.627e-6" y="815.3" width="200" height="9.722" stroke-width="0" connectorName="OUT1"/>
   <rect id="connector18terminal" x="1.627e-6" y="815.3" width="0" height="9.722" stroke-width="0"/>
  </g>
  <text x="215.34026" y="824.99994" fill="#555555" font-family="OCRA" font-size="48.61" stroke-width="13.89">OUT1</text>
  <g fill="none">
   <line x1="4.861" x2="200" y1="924.3" y2="924.3" stroke="#555" stroke-linecap="round" stroke-linejoin="round" stroke-width="9.722"/>
   <rect id="connector16pin" x="-4.169e-8" y="919" width="200" height="9.722" stroke-width="0" connectorName="OUT2"/>
   <rect id="connector16terminal" x="-4.169e-8" y="919.4" width="0" height="9.722" stroke-width="0"/>
  </g>
  <text x="215.34026" y="929.1665" fill="#555555" font-family="OCRA" font-size="48.61" stroke-width="13.89">OUT2</text>
  <g fill="none">
   <line x1="4.861" x2="200" y1="1028" y2="1028" stroke="#555" stroke-linecap="round" stroke-linejoin="round" stroke-width="9.722"/>
   <rect id="connector9pin" x="1.627e-6" y="1024" width="200" height="9.722" stroke-width="0" connectorName="P0.0"/>
   <rect id="connector9terminal" x="1.627e-6" y="1024" width="0" height="9.722" stroke-width="0"/>
  </g>
  <text x="215.34026" y="1033.3331" fill="#555555" font-family="OCRA" font-size="48.61" stroke-width="13.89">P0.0</text>
  <g fill="none">
   <line x1="4.861" x2="200" y1="1133" y2="1133" stroke="#555" stroke-linecap="round" stroke-linejoin="round" stroke-width="9.722"/>
   <rect id="connector4pin" x="-4.169e-8" y="1128" width="200" height="9.722" stroke-width="0" connectorName="P0.14"/>
   <rect id="connector4terminal" x="-4.169e-8" y="1128" width="0" height="9.722" stroke-width="0"/>
  </g>
  <text x="215.34026" y="1137.4998" fill="#555555" font-family="OCRA" font-size="48.61" stroke-width="13.89">P0.14</text>
  <g fill="none">
   <line x1="4.861" x2="200" y1="1237" y2="1237" stroke="#555" stroke-linecap="round" stroke-linejoin="round" stroke-width="9.722"/>
   <rect id="connector5pin" x="1.627e-6" y="1232" width="200" height="9.722" stroke-width="0" connectorName="P0.15"/>
   <rect id="connector5terminal" x="1.627e-6" y="1232" width="0" height="9.722" stroke-width="0"/>
  </g>
  <text x="215.34026" y="1241.6666" fill="#555555" font-family="OCRA" font-size="48.61" stroke-width="13.89">P0.15</text>
  <g fill="none">
   <line x1="1331" x2="1531" y1="403.5" y2="403.5" stroke="#555" stroke-linecap="round" stroke-linejoin="round" stroke-width="9.722"/>
   <rect id="connector14pin" x="1335" y="398.6" width="200" height="9.722" stroke-width="0" connectorname="P2.9"/>
   <rect id="connector14terminal" x="1535" y="398.6" width="0" height="9.722" stroke-width="0"/>
  </g>
  <text x="1320.0277" y="408.33331" fill="#555555" font-family="OCRA" font-size="48.61" stroke-width="13.89" text-anchor="end">P2.9</text>
  <g fill="none">
   <line x1="1331" x2="1531" y1="507.6" y2="507.6" stroke="#555" stroke-linecap="round" stroke-linejoin="round" stroke-width="9.722"/>
   <rect id="connector15pin" x="1335" y="502.8" width="200" height="9.722" stroke-width="0" connectorname="P2.7/P2.8"/>
   <rect id="connector15terminal" x="1535" y="502.8" width="0" height="9.722" stroke-width="0"/>
  </g>
  <text x="1320.0277" y="512.5" fill="#555555" font-family="OCRA" font-size="48.61" stroke-width="13.89" text-anchor="end">P2.7/P2.8</text>
  <g fill="none">
   <line x1="1331" x2="1531" y1="611.8" y2="611.8" stroke="#555" stroke-linecap="round" stroke-linejoin="round" stroke-width="9.722"/>
   <rect id="connector7pin" x="1335" y="606.9" width="200" height="9.722" stroke-width="0" connectorname="P2.6"/>
   <rect id="connector7terminal" x="1535" y="606.9" width="0" height="9.722" stroke-width="0"/>
  </g>
  <text x="1320.0277" y="616.66669" fill="#555555" font-family="OCRA" font-size="48.61" stroke-width="13.89" text-anchor="end">P2.6</text>
  <g fill="none">
   <line x1="1331" x2="1531" y1="716" y2="716" stroke="#555" stroke-linecap="round" stroke-linejoin="round" stroke-width="9.722"/>
   <rect id="connector13pin" x="1335" y="711.1" width="200" height="9.722" stroke-width="0" connectorname="P2.11/DIS"/>
   <rect id="connector13terminal" x="1535" y="711.1" width="0" height="9.722" stroke-width="0"/>
  </g>
  <text x="1320.0277" y="720.83337" fill="#555555" font-family="OCRA" font-size="48.61" stroke-width="13.89" text-anchor="end">P2.11/DIS</text>
  <text x="1320.0277" y="825" fill="#555555" font-family="OCRA" font-size="48.61" stroke-width="13.89" text-anchor="end">P2.10/PWM</text>
  <g fill="none">
   <line x1="1331" x2="1531" y1="924.3" y2="924.3" stroke="#555" stroke-linecap="round" stroke-linejoin="round" stroke-width="9.722"/>
   <rect id="connector6pin" x="1335" y="919.4" width="200" height="9.722" stroke-width="0" connectorname="P2.0/DIR"/>
   <rect id="connector6terminal" x="1535" y="919.4" width="0" height="9.722" stroke-width="0"/>
  </g>
  <text x="1320.0277" y="929.16669" fill="#555555" font-family="OCRA" font-size="48.61" stroke-width="13.89" text-anchor="end">P2.0/DIR</text>
  <g fill="none">
   <line x1="1331" x2="1531" y1="1028" y2="1028" stroke="#555" stroke-linecap="round" stroke-linejoin="round" stroke-width="9.722"/>
   <rect id="connector3pin" x="1335" y="1024" width="200" height="9.722" stroke-width="0" connectorname="P0.9/CSN"/>
   <rect id="connector3terminal" x="1535" y="1024" width="0" height="9.722" stroke-width="0"/>
  </g>
  <text x="1320.0277" y="1033.3334" fill="#555555" font-family="OCRA" font-size="48.61" stroke-width="13.89" text-anchor="end">P0.9/CSN</text>
  <g fill="none">
   <line x1="1331" x2="1531" y1="1133" y2="1133" stroke="#555" stroke-linecap="round" stroke-linejoin="round" stroke-width="9.722"/>
   <rect id="connector2pin" x="1335" y="1128" width="200" height="9.722" stroke-width="0" connectorname="P0.8/SCK"/>
   <rect id="connector2terminal" x="1535" y="1128" width="0" height="9.722" stroke-width="0"/>
  </g>
  <text x="1320.0277" y="1137.5" fill="#555555" font-family="OCRA" font-size="48.61" stroke-width="13.89" text-anchor="end">P0.8/SCK</text>
  <g fill="none">
   <line x1="1331" x2="1531" y1="1237" y2="1237" stroke="#555" stroke-linecap="round" stroke-linejoin="round" stroke-width="9.722"/>
   <rect id="connector1pin" x="1335" y="1232" width="200" height="9.722" stroke-width="0" connectorname="P0.7/SI"/>
   <rect id="connector1terminal" x="1535" y="1232" width="0" height="9.722" stroke-width="0"/>
  </g>
  <text x="1320.0277" y="1241.6667" fill="#555555" font-family="OCRA" font-size="48.61" stroke-width="13.89" text-anchor="end">P0.7/SI</text>
  <g fill="none">
   <line x1="1331" x2="1531" y1="1341" y2="1341" stroke="#555" stroke-linecap="round" stroke-linejoin="round" stroke-width="9.722"/>
   <rect id="connector0pin" x="1335" y="1336" width="200" height="9.722" stroke-width="0" connectorname="P0.6/SO"/>
   <rect id="connector0terminal" x="1535" y="1336" width="0" height="9.722" stroke-width="0"/>
  </g>
  <text x="1320.0277" y="1345.8334" fill="#555555" font-family="OCRA" font-size="48.61" stroke-width="13.89" text-anchor="end">P0.6/SO</text>
  <g fill="none">
   <line x1="1331" x2="1531" y1="1445" y2="1445" stroke="#555" stroke-linecap="round" stroke-linejoin="round" stroke-width="9.722"/>
   <rect id="connector8pin" x="1335" y="1440" width="200" height="9.722" stroke-width="0" connectorname="P0.5"/>
   <rect id="connector8terminal" x="1535" y="1440" width="0" height="9.722" stroke-width="0"/>
  </g>
  <text x="1320.0277" y="1450" fill="#555555" font-family="OCRA" font-size="48.61" stroke-width="13.89" text-anchor="end">P0.5</text>
  <g fill="none">
   <line x1="710.4" x2="710.4" y1="4.861" y2="200" stroke="#555" stroke-linecap="round" stroke-linejoin="round" stroke-width="9.722"/>
   <rect id="connector20pin" x="705.6" y="4.942e-6" width="9.722" height="200" stroke-width="0" connectorname="VS"/>
   <rect id="connector20terminal" x="705.6" y="4.942e-6" width="9.722" height="0" stroke-width="0"/>
  </g>
  <g transform="matrix(13.89 0 0 13.89 727.5 215.4)">
   <g transform="rotate(-90)">
    <text fill="#555555" font-family="OCRA" font-size="3.5" text-anchor="end">VS</text>
   </g>
  </g>
  <g fill="none">
   <line x1="813.9" x2="813.9" y1="4.861" y2="200" stroke="#555" stroke-linecap="round" stroke-linejoin="round" stroke-width="9.722"/>
   <rect id="connector23pin" x="809" y="1.823e-5" width="9.722" height="200" stroke-width="0" connectorname="VBAT"/>
   <rect id="connector23terminal" x="809" y="1.823e-5" width="9.722" height="0" stroke-width="0"/>
  </g>
  <g transform="matrix(13.89 0 0 13.89 831.7 215.4)">
   <g transform="rotate(-90)">
    <text fill="#555555" font-family="OCRA" font-size="3.5" text-anchor="end">VBAT</text>
   </g>
  </g>
  <g fill="none">
   <line x1="918.8" x2="918.8" y1="4.861" y2="200" stroke="#555" stroke-linecap="round" stroke-linejoin="round" stroke-width="9.722"/>
   <rect id="connector26pin" x="913.9" y="8.28e-6" width="9.722" height="200" stroke-width="0" connectorname="V5V"/>
   <rect id="connector26terminal" x="913.9" y="8.28e-6" width="9.722" height="0" stroke-width="0"/>
  </g>
  <g transform="matrix(13.89 0 0 13.89 935.8 215.4)">
   <g transform="rotate(-90)">
    <text fill="#555555" font-family="OCRA" font-size="3.5" text-anchor="end">V5V</text>
   </g>
  </g>
  <g fill="none">
   <line x1="757.6" x2="757.6" y1="1600" y2="1795" stroke="#555" stroke-linecap="round" stroke-linejoin="round" stroke-width="9.722"/>
   <rect id="connector11pin" x="752.8" y="1600" width="9.722" height="200" stroke-width="0" connectorname="GND"/>
   <rect id="connector11terminal" x="752.8" y="1800" width="9.722" height="0" stroke-width="0"/>
  </g>
  <g transform="matrix(13.89 0 0 13.89 777.1 1578)">
   <g transform="rotate(-90)">
    <text fill="#555555" font-family="OCRA" font-size="3.5">GND</text>
   </g>
  </g>
  <g fill="none" stroke-width="0">
   <rect id="connector31pin" x="601.5" y="-5.367e-9" width="9.722" height="105" connectorname="+3V3"/>
   <rect id="connector31terminal" x="601.5" y="-5.367e-9" width="9.722" height="9.722"/>
   <rect id="connector21pin" x="705.6" y="4.942e-6" width="9.722" height="200" connectorname="VS"/>
   <rect id="connector21terminal" x="705.6" y="4.942e-6" width="9.722" height="0"/>
   <rect id="connector22pin" x="809" y="1.823e-5" width="9.722" height="200" connectorname="VBAT"/>
   <rect id="connector22terminal" x="697.4" y="1.078e-5" width="9.722" height="0"/>
   <rect id="connector24pin" x="752.8" y="1600" width="9.722" height="200" connectorname="GND"/>
   <rect id="connector24terminal" x="752.8" y="1800" width="9.722" height="0"/>
   <rect id="connector25pin" x="752.8" y="1600" width="9.722" height="200" connectorname="GND"/>
   <rect id="connector25terminal" x="752.8" y="1800" width="9.722" height="0"/>
   <rect id="connector27pin" x="752.8" y="1600" width="9.722" height="200" connectorname="GND"/>
   <rect id="connector27terminal" x="752.8" y="1800" width="9.722" height="0"/>
   <rect id="connector19pin" x="1.627e-6" y="815.3" width="200" height="9.722" connectorName="OUT1"/>
   <rect id="connector19terminal" x="1.627e-6" y="815.3" width="0" height="9.722"/>
   <rect id="connector17pin" x="-4.169e-8" y="919.4" width="200" height="9.722" connectorName="OUT2"/>
   <rect id="connector17terminal" x="-4.169e-8" y="919.4" width="0" height="9.722"/>
  </g>
  <g transform="matrix(13.89 0 0 13.89 623.3 215.4)">
   <g transform="rotate(-90)">
    <text fill="#555555" font-family="OCRA" font-size="3.5" text-anchor="end">+3V3</text>
   </g>
  </g>
  <g fill="none">
   <rect id="connector10terminal" x="601.5" y="-5.367e-9" width="9.722" height="9.722" stroke-width="0"/>
   <rect id="connector10pin" x="601.4" y="-5.367e-9" width="9.722" height="200" stroke-width="0" connectorname="VS"/>
   <line x1="606.2" x2="606.2" y1="4.861" y2="200" stroke="#555" stroke-linecap="round" stroke-linejoin="round" stroke-width="9.722"/>
   <line x1="1331" x2="1531" y1="820.1" y2="820.1" stroke="#555" stroke-linecap="round" stroke-linejoin="round" stroke-width="9.722"/>
   <rect id="connector12pin" x="1335" y="815.3" width="200" height="9.722" stroke-width="0" connectorname="P2.11/DIS"/>
   <rect id="connector12terminal" x="1535" y="815.3" width="0" height="9.722" stroke-width="0"/>
  </g>
 </g>
</svg>
