<?xml version="1.0" encoding="utf-8"?>
<!-- Generator: Adobe Illustrator 16.0.0, SVG Export Plug-In . SVG Version: 6.00 Build 0)  -->
<!DOCTYPE svg PUBLIC "-//W3C//DTD SVG 1.1//EN" "http://www.w3.org/Graphics/SVG/1.1/DTD/svg11.dtd">
<svg version="1.1" id="Layer_1" xmlns="http://www.w3.org/2000/svg" xmlns:xlink="http://www.w3.org/1999/xlink" x="0px" y="0px"
	 width="136.8px" height="194.399px" viewBox="0 0 136.8 194.399" enable-background="new 0 0 136.8 194.399" xml:space="preserve">
<desc>Fritzing schematic generated by brd2svg</desc>
<g id="schematic">
	<rect x="14.4" y="14.4" fill="#FFFFFF" stroke="#000000" stroke-miterlimit="10" width="107.551" height="165.599"/>
	<text id="label" transform="matrix(1 0 0 1 63.6646 61.2998)" font-family="'DroidSans'" font-size="3.5">Ludus</text>
	<text id="label_1_" transform="matrix(1 0 0 1 59.2739 64.7998)" font-family="'DroidSans'" font-size="3.5">ProtoShield</text>
	
		<line fill="none" stroke="#787878" stroke-width="0.7" stroke-linecap="round" stroke-linejoin="round" x1="0.35" y1="21.599" x2="14.4" y2="21.599"/>
	<rect id="connector167pin" y="21.25" fill="none" width="14.4" height="0.7"/>
	<rect id="connector167terminal" y="21.25" fill="none" width="0" height="0.7"/>
	<text id="label167" transform="matrix(1 0 0 1 15.7998 22.2998)" fill="#8C8C8C" font-family="'DroidSans'" font-size="3.5">RESET</text>
	
		<line fill="none" stroke="#787878" stroke-width="0.7" stroke-linecap="round" stroke-linejoin="round" x1="0.35" y1="28.799" x2="14.4" y2="28.799"/>
	<rect id="connector56pin" y="28.449" fill="none" width="14.4" height="0.7"/>
	<rect id="connector56terminal" y="28.449" fill="none" width="0" height="0.7"/>
	<text id="label56" transform="matrix(1 0 0 1 15.7998 29.499)" fill="#8C8C8C" font-family="'DroidSans'" font-size="3.5">A0</text>
	
		<line fill="none" stroke="#787878" stroke-width="0.7" stroke-linecap="round" stroke-linejoin="round" x1="0.35" y1="36" x2="14.4" y2="36"/>
	<rect id="connector59pin" y="35.649" fill="none" width="14.4" height="0.7"/>
	<rect id="connector59terminal" y="35.649" fill="none" width="0" height="0.7"/>
	<text id="label59" transform="matrix(1 0 0 1 15.7998 36.6992)" fill="#8C8C8C" font-family="'DroidSans'" font-size="3.5">A1</text>
	
		<line fill="none" stroke="#787878" stroke-width="0.7" stroke-linecap="round" stroke-linejoin="round" x1="0.35" y1="43.199" x2="14.4" y2="43.199"/>
	<rect id="connector62pin" y="42.85" fill="none" width="14.4" height="0.7"/>
	<rect id="connector62terminal" y="42.85" fill="none" width="0" height="0.7"/>
	<text id="label62" transform="matrix(1 0 0 1 15.7998 43.8994)" fill="#8C8C8C" font-family="'DroidSans'" font-size="3.5">A2</text>
	
		<line fill="none" stroke="#787878" stroke-width="0.7" stroke-linecap="round" stroke-linejoin="round" x1="0.35" y1="50.399" x2="14.4" y2="50.399"/>
	<rect id="connector65pin" y="50.049" fill="none" width="14.4" height="0.7"/>
	<rect id="connector65terminal" y="50.049" fill="none" width="0" height="0.7"/>
	<text id="label65" transform="matrix(1 0 0 1 15.7998 51.0986)" fill="#8C8C8C" font-family="'DroidSans'" font-size="3.5">A3</text>
	
		<line fill="none" stroke="#787878" stroke-width="0.7" stroke-linecap="round" stroke-linejoin="round" x1="0.35" y1="57.599" x2="14.4" y2="57.599"/>
	<rect id="connector68pin" y="57.25" fill="none" width="14.4" height="0.7"/>
	<rect id="connector68terminal" y="57.25" fill="none" width="0" height="0.7"/>
	<text id="label68" transform="matrix(1 0 0 1 15.7998 58.2998)" fill="#8C8C8C" font-family="'DroidSans'" font-size="3.5">A4</text>
	
		<line fill="none" stroke="#787878" stroke-width="0.7" stroke-linecap="round" stroke-linejoin="round" x1="0.35" y1="64.799" x2="14.4" y2="64.799"/>
	<rect id="connector71pin" y="64.449" fill="none" width="14.4" height="0.7"/>
	<rect id="connector71terminal" y="64.449" fill="none" width="0" height="0.7"/>
	<text id="label71" transform="matrix(1 0 0 1 15.7998 65.499)" fill="#8C8C8C" font-family="'DroidSans'" font-size="3.5">A5</text>
	
		<line fill="none" stroke="#787878" stroke-width="0.7" stroke-linecap="round" stroke-linejoin="round" x1="0.35" y1="71.999" x2="14.4" y2="71.999"/>
	<rect id="connector26pin" y="71.649" fill="none" width="14.4" height="0.699"/>
	<rect id="connector26terminal" y="71.649" fill="none" width="0" height="0.699"/>
	<text id="label26" transform="matrix(1 0 0 1 15.7998 72.6992)" fill="#8C8C8C" font-family="'DroidSans'" font-size="3.5">AIN1</text>
	
		<line fill="none" stroke="#787878" stroke-width="0.7" stroke-linecap="round" stroke-linejoin="round" x1="0.35" y1="79.199" x2="14.4" y2="79.199"/>
	<rect id="connector29pin" y="78.849" fill="none" width="14.4" height="0.701"/>
	<rect id="connector29terminal" y="78.849" fill="none" width="0" height="0.701"/>
	<text id="label29" transform="matrix(1 0 0 1 15.7998 79.8994)" fill="#8C8C8C" font-family="'DroidSans'" font-size="3.5">AIN2</text>
	
		<line fill="none" stroke="#787878" stroke-width="0.7" stroke-linecap="round" stroke-linejoin="round" x1="0.35" y1="86.399" x2="14.4" y2="86.399"/>
	<rect id="connector35pin" y="86.05" fill="none" width="14.4" height="0.699"/>
	<rect id="connector35terminal" y="86.05" fill="none" width="0" height="0.699"/>
	<text id="label35" transform="matrix(1 0 0 1 15.7998 87.0996)" fill="#8C8C8C" font-family="'DroidSans'" font-size="3.5">BIN1</text>
	
		<line fill="none" stroke="#787878" stroke-width="0.7" stroke-linecap="round" stroke-linejoin="round" x1="0.35" y1="93.599" x2="14.4" y2="93.599"/>
	<rect id="connector38pin" y="93.249" fill="none" width="14.4" height="0.7"/>
	<rect id="connector38terminal" y="93.249" fill="none" width="0" height="0.7"/>
	<text id="label38" transform="matrix(1 0 0 1 15.7998 94.2998)" fill="#8C8C8C" font-family="'DroidSans'" font-size="3.5">BIN2</text>
	
		<line fill="none" stroke="#787878" stroke-width="0.7" stroke-linecap="round" stroke-linejoin="round" x1="0.35" y1="100.799" x2="14.4" y2="100.799"/>
	<rect id="connector149pin" y="100.449" fill="none" width="14.4" height="0.7"/>
	<rect id="connector149terminal" y="100.449" fill="none" width="0" height="0.7"/>
	<text id="label149" transform="matrix(1 0 0 1 15.7998 101.499)" fill="#8C8C8C" font-family="'DroidSans'" font-size="3.5">AREF</text>
	
		<line fill="none" stroke="#787878" stroke-width="0.7" stroke-linecap="round" stroke-linejoin="round" x1="0.35" y1="107.999" x2="14.4" y2="107.999"/>
	<rect id="connector165pin" y="107.649" fill="none" width="14.4" height="0.699"/>
	<rect id="connector165terminal" y="107.649" fill="none" width="0" height="0.699"/>
	<text id="label165" transform="matrix(1 0 0 1 15.7998 108.6992)" fill="#8C8C8C" font-family="'DroidSans'" font-size="3.5">IOREF</text>
	
		<line fill="none" stroke="#787878" stroke-width="0.7" stroke-linecap="round" stroke-linejoin="round" x1="0.35" y1="115.199" x2="14.4" y2="115.199"/>
	<rect id="connector172pin" y="114.848" fill="none" width="14.4" height="0.701"/>
	<rect id="connector172terminal" y="114.848" fill="none" width="0" height="0.701"/>
	<text id="label172" transform="matrix(1 0 0 1 15.7998 115.8989)" fill="#8C8C8C" font-family="'DroidSans'" font-size="3.5">VIN</text>
	
		<line fill="none" stroke="#787878" stroke-width="0.7" stroke-linecap="round" stroke-linejoin="round" x1="0.35" y1="122.399" x2="14.4" y2="122.399"/>
	<rect id="connector166pin" y="122.049" fill="none" width="14.4" height="0.699"/>
	<rect id="connector166terminal" y="122.049" fill="none" width="0" height="0.699"/>
	<text id="label166" transform="matrix(1 0 0 1 15.7998 123.1001)" fill="#8C8C8C" font-family="'DroidSans'" font-size="3.5">NC</text>
	
		<line fill="none" stroke="#787878" stroke-width="0.7" stroke-linecap="round" stroke-linejoin="round" x1="122.05" y1="21.599" x2="136.451" y2="21.599"/>
	<rect id="connector79pin" x="122.4" y="21.25" fill="none" width="14.4" height="0.7"/>
	<rect id="connector79terminal" x="136.8" y="21.25" fill="none" width="0" height="0.7"/>
	<text id="label79" transform="matrix(1 0 0 1 110.1206 22.2998)" fill="#8C8C8C" font-family="'DroidSans'" font-size="3.5">AOUT1</text>
	
		<line fill="none" stroke="#787878" stroke-width="0.7" stroke-linecap="round" stroke-linejoin="round" x1="122.05" y1="28.799" x2="136.451" y2="28.799"/>
	<rect id="connector78pin" x="122.4" y="28.449" fill="none" width="14.4" height="0.7"/>
	<rect id="connector78terminal" x="136.8" y="28.449" fill="none" width="0" height="0.7"/>
	<text id="label78" transform="matrix(1 0 0 1 110.1206 29.499)" fill="#8C8C8C" font-family="'DroidSans'" font-size="3.5">AOUT2</text>
	
		<line fill="none" stroke="#787878" stroke-width="0.7" stroke-linecap="round" stroke-linejoin="round" x1="122.05" y1="36" x2="136.451" y2="36"/>
	<rect id="connector77pin" x="122.4" y="35.649" fill="none" width="14.4" height="0.7"/>
	<rect id="connector77terminal" x="136.8" y="35.649" fill="none" width="0" height="0.7"/>
	<text id="label77" transform="matrix(1 0 0 1 110.0405 36.6992)" fill="#8C8C8C" font-family="'DroidSans'" font-size="3.5">BOUT1</text>
	
		<line fill="none" stroke="#787878" stroke-width="0.7" stroke-linecap="round" stroke-linejoin="round" x1="122.05" y1="43.199" x2="136.451" y2="43.199"/>
	<rect id="connector76pin" x="122.4" y="42.85" fill="none" width="14.4" height="0.7"/>
	<rect id="connector76terminal" x="136.8" y="42.85" fill="none" width="0" height="0.7"/>
	<text id="label76" transform="matrix(1 0 0 1 110.0405 43.8994)" fill="#8C8C8C" font-family="'DroidSans'" font-size="3.5">BOUT2</text>
	
		<line fill="none" stroke="#787878" stroke-width="0.7" stroke-linecap="round" stroke-linejoin="round" x1="122.05" y1="50.399" x2="136.451" y2="50.399"/>
	<rect id="connector14pin" x="122.4" y="50.049" fill="none" width="14.4" height="0.7"/>
	<rect id="connector14terminal" x="136.8" y="50.049" fill="none" width="0" height="0.7"/>
	<text id="label14" transform="matrix(1 0 0 1 116.6772 51.0986)" fill="#8C8C8C" font-family="'DroidSans'" font-size="3.5">D0</text>
	
		<line fill="none" stroke="#787878" stroke-width="0.7" stroke-linecap="round" stroke-linejoin="round" x1="122.05" y1="57.599" x2="136.451" y2="57.599"/>
	<rect id="connector17pin" x="122.4" y="57.25" fill="none" width="14.4" height="0.7"/>
	<rect id="connector17terminal" x="136.8" y="57.25" fill="none" width="0" height="0.7"/>
	<text id="label17" transform="matrix(1 0 0 1 116.6772 58.2998)" fill="#8C8C8C" font-family="'DroidSans'" font-size="3.5">D1</text>
	
		<line fill="none" stroke="#787878" stroke-width="0.7" stroke-linecap="round" stroke-linejoin="round" x1="122.05" y1="64.799" x2="136.451" y2="64.799"/>
	<rect id="connector169pin" x="122.4" y="64.449" fill="none" width="14.4" height="0.7"/>
	<rect id="connector169terminal" x="136.8" y="64.449" fill="none" width="0" height="0.7"/>
	<text id="label169" transform="matrix(1 0 0 1 115.353 65.499)" fill="#8C8C8C" font-family="'DroidSans'" font-size="3.5">SCL</text>
	
		<line fill="none" stroke="#787878" stroke-width="0.7" stroke-linecap="round" stroke-linejoin="round" x1="122.05" y1="71.999" x2="136.451" y2="71.999"/>
	<rect id="connector170pin" x="122.4" y="71.649" fill="none" width="14.4" height="0.699"/>
	<rect id="connector170terminal" x="136.8" y="71.649" fill="none" width="0" height="0.699"/>
	<text id="label170" transform="matrix(1 0 0 1 114.6948 72.6992)" fill="#8C8C8C" font-family="'DroidSans'" font-size="3.5">SDA</text>
	
		<line fill="none" stroke="#787878" stroke-width="0.7" stroke-linecap="round" stroke-linejoin="round" x1="122.05" y1="79.199" x2="136.451" y2="79.199"/>
	<rect id="connector74pin" x="122.4" y="78.849" fill="none" width="14.4" height="0.701"/>
	<rect id="connector74terminal" x="136.8" y="78.849" fill="none" width="0" height="0.701"/>
	<text id="label74" transform="matrix(1 0 0 1 98.1323 79.8994)" fill="#8C8C8C" font-family="'DroidSans'" font-size="3.5">SDA_I2C_PORT</text>
	
		<line fill="none" stroke="#787878" stroke-width="0.7" stroke-linecap="round" stroke-linejoin="round" x1="122.05" y1="86.399" x2="136.451" y2="86.399"/>
	<rect id="connector75pin" x="122.4" y="86.05" fill="none" width="14.4" height="0.699"/>
	<rect id="connector75terminal" x="136.8" y="86.05" fill="none" width="0" height="0.699"/>
	<text id="label75" transform="matrix(1 0 0 1 98.7905 87.0996)" fill="#8C8C8C" font-family="'DroidSans'" font-size="3.5">SCL_I2C_PORT</text>
	
		<line fill="none" stroke="#787878" stroke-width="0.7" stroke-linecap="round" stroke-linejoin="round" x1="122.05" y1="93.599" x2="136.451" y2="93.599"/>
	<rect id="connector13pin" x="122.4" y="93.249" fill="none" width="14.4" height="0.7"/>
	<rect id="connector13terminal" x="136.8" y="93.249" fill="none" width="0" height="0.7"/>
	<text id="label13" transform="matrix(1 0 0 1 105.2886 94.2998)" fill="#8C8C8C" font-family="'DroidSans'" font-size="3.5">PWR_RAIL</text>
	
		<line fill="none" stroke="#787878" stroke-width="0.7" stroke-linecap="round" stroke-linejoin="round" x1="122.05" y1="100.799" x2="136.451" y2="100.799"/>
	<rect id="connector32pin" x="122.4" y="100.449" fill="none" width="14.4" height="0.7"/>
	<rect id="connector32terminal" x="136.8" y="100.449" fill="none" width="0" height="0.7"/>
	<text id="label32" transform="matrix(1 0 0 1 110.6714 101.499)" fill="#8C8C8C" font-family="'DroidSans'" font-size="3.5">PWMB</text>
	
		<line fill="none" stroke="#787878" stroke-width="0.7" stroke-linecap="round" stroke-linejoin="round" x1="122.05" y1="107.999" x2="136.451" y2="107.999"/>
	<rect id="connector23pin" x="122.4" y="107.649" fill="none" width="14.4" height="0.699"/>
	<rect id="connector23terminal" x="136.8" y="107.649" fill="none" width="0" height="0.699"/>
	<text id="label23" transform="matrix(1 0 0 1 110.7163 108.6992)" fill="#8C8C8C" font-family="'DroidSans'" font-size="3.5">PWMA</text>
	
		<line fill="none" stroke="#787878" stroke-width="0.7" stroke-linecap="round" stroke-linejoin="round" x1="122.05" y1="115.199" x2="136.451" y2="115.199"/>
	<rect id="connector41pin" x="122.4" y="114.848" fill="none" width="14.4" height="0.701"/>
	<rect id="connector41terminal" x="136.8" y="114.848" fill="none" width="0" height="0.701"/>
	<text id="label41" transform="matrix(1 0 0 1 116.6772 115.8989)" fill="#8C8C8C" font-family="'DroidSans'" font-size="3.5">D9</text>
	
		<line fill="none" stroke="#787878" stroke-width="0.7" stroke-linecap="round" stroke-linejoin="round" x1="122.05" y1="122.399" x2="136.451" y2="122.399"/>
	<rect id="connector20pin" x="122.4" y="122.049" fill="none" width="14.4" height="0.699"/>
	<rect id="connector20terminal" x="136.8" y="122.049" fill="none" width="0" height="0.699"/>
	<text id="label20" transform="matrix(1 0 0 1 116.6772 123.1001)" fill="#8C8C8C" font-family="'DroidSans'" font-size="3.5">D2</text>
	
		<line fill="none" stroke="#787878" stroke-width="0.7" stroke-linecap="round" stroke-linejoin="round" x1="122.05" y1="129.598" x2="136.451" y2="129.598"/>
	<rect id="connector53pin" x="122.4" y="129.249" fill="none" width="14.4" height="0.7"/>
	<rect id="connector53terminal" x="136.8" y="129.249" fill="none" width="0" height="0.7"/>
	<text id="label53" transform="matrix(1 0 0 1 114.7495 130.2993)" fill="#8C8C8C" font-family="'DroidSans'" font-size="3.5">D13</text>
	
		<line fill="none" stroke="#787878" stroke-width="0.7" stroke-linecap="round" stroke-linejoin="round" x1="122.05" y1="136.799" x2="136.451" y2="136.799"/>
	<rect id="connector50pin" x="122.4" y="136.449" fill="none" width="14.4" height="0.7"/>
	<rect id="connector50terminal" x="136.8" y="136.449" fill="none" width="0" height="0.7"/>
	<text id="label50" transform="matrix(1 0 0 1 114.7495 137.4985)" fill="#8C8C8C" font-family="'DroidSans'" font-size="3.5">D12</text>
	
		<line fill="none" stroke="#787878" stroke-width="0.7" stroke-linecap="round" stroke-linejoin="round" x1="122.05" y1="143.999" x2="136.451" y2="143.999"/>
	<rect id="connector47pin" x="122.4" y="143.649" fill="none" width="14.4" height="0.699"/>
	<rect id="connector47terminal" x="136.8" y="143.649" fill="none" width="0" height="0.699"/>
	<text id="label47" transform="matrix(1 0 0 1 114.7495 144.6997)" fill="#8C8C8C" font-family="'DroidSans'" font-size="3.5">D11</text>
	
		<line fill="none" stroke="#787878" stroke-width="0.7" stroke-linecap="round" stroke-linejoin="round" x1="122.05" y1="151.199" x2="136.451" y2="151.199"/>
	<rect id="connector44pin" x="122.4" y="150.848" fill="none" width="14.4" height="0.701"/>
	<rect id="connector44terminal" x="136.8" y="150.848" fill="none" width="0" height="0.701"/>
	<text id="label44" transform="matrix(1 0 0 1 114.7495 151.8989)" fill="#8C8C8C" font-family="'DroidSans'" font-size="3.5">D10</text>
	
		<line fill="none" stroke="#787878" stroke-width="0.7" stroke-linecap="round" stroke-linejoin="round" x1="57.6" y1="0.35" x2="57.6" y2="14.4"/>
	<rect id="connector73pin" x="57.25" fill="none" width="0.7" height="14.4"/>
	<polygon id="connector73terminal" fill="none" points="57.25,0 57.95,0 57.95,0 	"/>
	<g transform="matrix(1, 0, 0, 1, 59, 16)">
		<g transform="rotate(270)">
			<text id="label73" transform="matrix(1 0 0 1 -6.7817 0)" fill="#8C8C8C" font-family="'DroidSans'" font-size="3.5">3.3V</text>
		</g>
	</g>
	
		<line fill="none" stroke="#787878" stroke-width="0.7" stroke-linecap="round" stroke-linejoin="round" x1="64.8" y1="0.35" x2="64.8" y2="14.4"/>
	<rect id="connector142pin" x="64.45" fill="none" width="0.7" height="14.4"/>
	<polygon id="connector142terminal" fill="none" points="64.45,0 65.15,0 65.15,0 	"/>
	<g transform="matrix(1, 0, 0, 1, 66.2, 16)">
		<g transform="rotate(270)">
			
				<text id="label142" transform="matrix(1 0 0 1 -6.0688 1.831055e-004)" fill="#8C8C8C" font-family="'DroidSans'" font-size="3.5">VCC</text>
		</g>
	</g>
	
		<line fill="none" stroke="#787878" stroke-width="0.7" stroke-linecap="round" stroke-linejoin="round" x1="72" y1="0.35" x2="72" y2="14.4"/>
	<rect id="connector55pin" x="71.65" fill="none" width="0.7" height="14.4"/>
	<polygon id="connector55terminal" fill="none" points="71.65,0 72.35,0 72.35,0 	"/>
	<g transform="matrix(1, 0, 0, 1, 73.3997, 16)">
		<g transform="rotate(270)">
			
				<text id="label55" transform="matrix(1 0 0 1 -30.6538 1.831055e-004)" fill="#8C8C8C" font-family="'DroidSans'" font-size="3.5">ANALOG_PWR_RAIL</text>
		</g>
	</g>
	
		<line fill="none" stroke="#787878" stroke-width="0.7" stroke-linecap="round" stroke-linejoin="round" x1="64.8" y1="179.999" x2="64.8" y2="194.049"/>
	<rect id="connector12pin" x="64.45" y="179.999" fill="none" width="0.7" height="14.4"/>
	<polygon id="connector12terminal" fill="none" points="64.45,194.399 65.15,194.399 65.15,194.399 	"/>
	<g transform="matrix(1, 0, 0, 1, 66.2, 207.2)">
		<g transform="rotate(270)">
			
				<text id="label12" transform="matrix(1 0 0 1 28.8011 1.831055e-004)" fill="#8C8C8C" font-family="'DroidSans'" font-size="3.5">GND</text>
		</g>
	</g>
	<rect id="connector81pin" x="57.25" fill="none" width="0.7" height="14.4"/>
	<polygon id="connector81terminal" fill="none" points="57.25,0 57.95,0 57.95,0 	"/>
	<rect id="connector141pin" x="57.25" fill="none" width="0.7" height="14.4"/>
	<polygon id="connector141terminal" fill="none" points="57.25,0 57.95,0 57.95,0 	"/>
	<rect id="connector70pin" x="71.65" fill="none" width="0.7" height="14.4"/>
	<polygon id="connector70terminal" fill="none" points="71.65,0 72.35,0 72.35,0 	"/>
	<rect id="connector61pin" x="71.65" fill="none" width="0.7" height="14.4"/>
	<polygon id="connector61terminal" fill="none" points="71.65,0 72.35,0 72.35,0 	"/>
	<rect id="connector58pin" x="71.65" fill="none" width="0.7" height="14.4"/>
	<polygon id="connector58terminal" fill="none" points="71.65,0 72.35,0 72.35,0 	"/>
	<rect id="connector67pin" x="71.65" fill="none" width="0.7" height="14.4"/>
	<polygon id="connector67terminal" fill="none" points="71.65,0 72.35,0 72.35,0 	"/>
	<rect id="connector64pin" x="71.65" fill="none" width="0.7" height="14.4"/>
	<polygon id="connector64terminal" fill="none" points="71.65,0 72.35,0 72.35,0 	"/>
	<rect id="connector15pin" x="64.45" y="179.999" fill="none" width="0.7" height="14.4"/>
	<polygon id="connector15terminal" fill="none" points="64.45,194.399 65.15,194.399 65.15,194.399 	"/>
	<rect id="connector18pin" x="64.45" y="179.999" fill="none" width="0.7" height="14.4"/>
	<polygon id="connector18terminal" fill="none" points="64.45,194.399 65.15,194.399 65.15,194.399 	"/>
	<rect id="connector21pin" x="64.45" y="179.999" fill="none" width="0.7" height="14.4"/>
	<polygon id="connector21terminal" fill="none" points="64.45,194.399 65.15,194.399 65.15,194.399 	"/>
	<rect id="connector24pin" x="64.45" y="179.999" fill="none" width="0.7" height="14.4"/>
	<polygon id="connector24terminal" fill="none" points="64.45,194.399 65.15,194.399 65.15,194.399 	"/>
	<rect id="connector27pin" x="64.45" y="179.999" fill="none" width="0.7" height="14.4"/>
	<polygon id="connector27terminal" fill="none" points="64.45,194.399 65.15,194.399 65.15,194.399 	"/>
	<rect id="connector30pin" x="64.45" y="179.999" fill="none" width="0.7" height="14.4"/>
	<polygon id="connector30terminal" fill="none" points="64.45,194.399 65.15,194.399 65.15,194.399 	"/>
	<rect id="connector33pin" x="64.45" y="179.999" fill="none" width="0.7" height="14.4"/>
	<polygon id="connector33terminal" fill="none" points="64.45,194.399 65.15,194.399 65.15,194.399 	"/>
	<rect id="connector36pin" x="64.45" y="179.999" fill="none" width="0.7" height="14.4"/>
	<polygon id="connector36terminal" fill="none" points="64.45,194.399 65.15,194.399 65.15,194.399 	"/>
	<rect id="connector39pin" x="64.45" y="179.999" fill="none" width="0.7" height="14.4"/>
	<polygon id="connector39terminal" fill="none" points="64.45,194.399 65.15,194.399 65.15,194.399 	"/>
	<rect id="connector42pin" x="64.45" y="179.999" fill="none" width="0.7" height="14.4"/>
	<polygon id="connector42terminal" fill="none" points="64.45,194.399 65.15,194.399 65.15,194.399 	"/>
	<rect id="connector45pin" x="64.45" y="179.999" fill="none" width="0.7" height="14.4"/>
	<polygon id="connector45terminal" fill="none" points="64.45,194.399 65.15,194.399 65.15,194.399 	"/>
	<rect id="connector48pin" x="64.45" y="179.999" fill="none" width="0.7" height="14.4"/>
	<polygon id="connector48terminal" fill="none" points="64.45,194.399 65.15,194.399 65.15,194.399 	"/>
	<rect id="connector51pin" x="64.45" y="179.999" fill="none" width="0.7" height="14.4"/>
	<polygon id="connector51terminal" fill="none" points="64.45,194.399 65.15,194.399 65.15,194.399 	"/>
	<rect id="connector54pin" x="64.45" y="179.999" fill="none" width="0.7" height="14.4"/>
	<polygon id="connector54terminal" fill="none" points="64.45,194.399 65.15,194.399 65.15,194.399 	"/>
	<rect id="connector57pin" x="64.45" y="179.999" fill="none" width="0.7" height="14.4"/>
	<polygon id="connector57terminal" fill="none" points="64.45,194.399 65.15,194.399 65.15,194.399 	"/>
	<rect id="connector60pin" x="64.45" y="179.999" fill="none" width="0.7" height="14.4"/>
	<polygon id="connector60terminal" fill="none" points="64.45,194.399 65.15,194.399 65.15,194.399 	"/>
	<rect id="connector63pin" x="64.45" y="179.999" fill="none" width="0.7" height="14.4"/>
	<polygon id="connector63terminal" fill="none" points="64.45,194.399 65.15,194.399 65.15,194.399 	"/>
	<rect id="connector66pin" x="64.45" y="179.999" fill="none" width="0.7" height="14.4"/>
	<polygon id="connector66terminal" fill="none" points="64.45,194.399 65.15,194.399 65.15,194.399 	"/>
	<rect id="connector69pin" x="64.45" y="179.999" fill="none" width="0.7" height="14.4"/>
	<polygon id="connector69terminal" fill="none" points="64.45,194.399 65.15,194.399 65.15,194.399 	"/>
	<rect id="connector72pin" x="64.45" y="179.999" fill="none" width="0.7" height="14.4"/>
	<polygon id="connector72terminal" fill="none" points="64.45,194.399 65.15,194.399 65.15,194.399 	"/>
	<rect id="connector80pin" x="64.45" y="179.999" fill="none" width="0.7" height="14.4"/>
	<polygon id="connector80terminal" fill="none" points="64.45,194.399 65.15,194.399 65.15,194.399 	"/>
	<rect id="connector162pin" x="64.45" y="179.999" fill="none" width="0.7" height="14.4"/>
	<polygon id="connector162terminal" fill="none" points="64.45,194.399 65.15,194.399 65.15,194.399 	"/>
	<rect id="connector163pin" x="64.45" y="179.999" fill="none" width="0.7" height="14.4"/>
	<polygon id="connector163terminal" fill="none" points="64.45,194.399 65.15,194.399 65.15,194.399 	"/>
	<rect id="connector164pin" x="64.45" y="179.999" fill="none" width="0.7" height="14.4"/>
	<polygon id="connector164terminal" fill="none" points="64.45,194.399 65.15,194.399 65.15,194.399 	"/>
	<rect id="connector143pin" y="28.449" fill="none" width="14.4" height="0.7"/>
	<rect id="connector143terminal" y="28.449" fill="none" width="0" height="0.7"/>
	<rect id="connector144pin" y="35.649" fill="none" width="14.4" height="0.7"/>
	<rect id="connector144terminal" y="35.649" fill="none" width="0" height="0.7"/>
	<rect id="connector145pin" y="42.85" fill="none" width="14.4" height="0.7"/>
	<rect id="connector145terminal" y="42.85" fill="none" width="0" height="0.7"/>
	<rect id="connector146pin" y="50.049" fill="none" width="14.4" height="0.7"/>
	<rect id="connector146terminal" y="50.049" fill="none" width="0" height="0.7"/>
	<rect id="connector147pin" y="57.25" fill="none" width="14.4" height="0.7"/>
	<rect id="connector147terminal" y="57.25" fill="none" width="0" height="0.7"/>
	<rect id="connector148pin" y="64.449" fill="none" width="14.4" height="0.7"/>
	<rect id="connector148terminal" y="64.449" fill="none" width="0" height="0.7"/>
	<rect id="connector87pin" x="122.4" y="21.25" fill="none" width="14.4" height="0.7"/>
	<rect id="connector87terminal" x="136.8" y="21.25" fill="none" width="0" height="0.7"/>
	<rect id="connector86pin" x="122.4" y="28.449" fill="none" width="14.4" height="0.7"/>
	<rect id="connector86terminal" x="136.8" y="28.449" fill="none" width="0" height="0.7"/>
	<rect id="connector85pin" x="122.4" y="35.649" fill="none" width="14.4" height="0.7"/>
	<rect id="connector85terminal" x="136.8" y="35.649" fill="none" width="0" height="0.7"/>
	<rect id="connector84pin" x="122.4" y="42.85" fill="none" width="14.4" height="0.7"/>
	<rect id="connector84terminal" x="136.8" y="42.85" fill="none" width="0" height="0.7"/>
	<rect id="connector150pin" x="122.4" y="122.049" fill="none" width="14.4" height="0.699"/>
	<rect id="connector150terminal" x="136.8" y="122.049" fill="none" width="0" height="0.699"/>
	<rect id="connector151pin" x="122.4" y="107.649" fill="none" width="14.4" height="0.699"/>
	<rect id="connector151terminal" x="136.8" y="107.649" fill="none" width="0" height="0.699"/>
	<rect id="connector152pin" y="71.649" fill="none" width="14.4" height="0.699"/>
	<rect id="connector152terminal" y="71.649" fill="none" width="0" height="0.699"/>
	<rect id="connector153pin" y="78.849" fill="none" width="14.4" height="0.701"/>
	<rect id="connector153terminal" y="78.849" fill="none" width="0" height="0.701"/>
	<rect id="connector154pin" x="122.4" y="100.449" fill="none" width="14.4" height="0.7"/>
	<rect id="connector154terminal" x="136.8" y="100.449" fill="none" width="0" height="0.7"/>
	<rect id="connector155pin" y="86.05" fill="none" width="14.4" height="0.699"/>
	<rect id="connector155terminal" y="86.05" fill="none" width="0" height="0.699"/>
	<rect id="connector156pin" y="93.249" fill="none" width="14.4" height="0.7"/>
	<rect id="connector156terminal" y="93.249" fill="none" width="0" height="0.7"/>
	<rect id="connector157pin" x="122.4" y="114.848" fill="none" width="14.4" height="0.701"/>
	<rect id="connector157terminal" x="136.8" y="114.848" fill="none" width="0" height="0.701"/>
	<rect id="connector158pin" x="122.4" y="150.848" fill="none" width="14.4" height="0.701"/>
	<rect id="connector158terminal" x="136.8" y="150.848" fill="none" width="0" height="0.701"/>
	<rect id="connector159pin" x="122.4" y="143.649" fill="none" width="14.4" height="0.699"/>
	<rect id="connector159terminal" x="136.8" y="143.649" fill="none" width="0" height="0.699"/>
	<rect id="connector160pin" x="122.4" y="136.449" fill="none" width="14.4" height="0.7"/>
	<rect id="connector160terminal" x="136.8" y="136.449" fill="none" width="0" height="0.7"/>
	<rect id="connector161pin" x="122.4" y="129.249" fill="none" width="14.4" height="0.7"/>
	<rect id="connector161terminal" x="136.8" y="129.249" fill="none" width="0" height="0.7"/>
	<rect id="connector168pin" x="122.4" y="50.049" fill="none" width="14.4" height="0.7"/>
	<rect id="connector168terminal" x="136.8" y="50.049" fill="none" width="0" height="0.7"/>
	<rect id="connector171pin" x="122.4" y="57.25" fill="none" width="14.4" height="0.7"/>
	<rect id="connector171terminal" x="136.8" y="57.25" fill="none" width="0" height="0.7"/>
	<rect id="connector82pin" x="122.4" y="78.849" fill="none" width="14.4" height="0.701"/>
	<rect id="connector82terminal" x="136.8" y="78.849" fill="none" width="0" height="0.701"/>
	<rect id="connector83pin" x="122.4" y="86.05" fill="none" width="14.4" height="0.699"/>
	<rect id="connector83terminal" x="136.8" y="86.05" fill="none" width="0" height="0.699"/>
	<rect id="connector37pin" x="122.4" y="93.249" fill="none" width="14.4" height="0.7"/>
	<rect id="connector37terminal" x="136.8" y="93.249" fill="none" width="0" height="0.7"/>
	<rect id="connector49pin" x="122.4" y="93.249" fill="none" width="14.4" height="0.7"/>
	<rect id="connector49terminal" x="136.8" y="93.249" fill="none" width="0" height="0.7"/>
	<rect id="connector40pin" x="122.4" y="93.249" fill="none" width="14.4" height="0.7"/>
	<rect id="connector40terminal" x="136.8" y="93.249" fill="none" width="0" height="0.7"/>
	<rect id="connector43pin" x="122.4" y="93.249" fill="none" width="14.4" height="0.7"/>
	<rect id="connector43terminal" x="136.8" y="93.249" fill="none" width="0" height="0.7"/>
	<rect id="connector46pin" x="122.4" y="93.249" fill="none" width="14.4" height="0.7"/>
	<rect id="connector46terminal" x="136.8" y="93.249" fill="none" width="0" height="0.7"/>
	<rect id="connector31pin" x="122.4" y="93.249" fill="none" width="14.4" height="0.7"/>
	<rect id="connector31terminal" x="136.8" y="93.249" fill="none" width="0" height="0.7"/>
	<rect id="connector22pin" x="122.4" y="93.249" fill="none" width="14.4" height="0.7"/>
	<rect id="connector22terminal" x="136.8" y="93.249" fill="none" width="0" height="0.7"/>
	<rect id="connector16pin" x="122.4" y="93.249" fill="none" width="14.4" height="0.7"/>
	<rect id="connector16terminal" x="136.8" y="93.249" fill="none" width="0" height="0.7"/>
	<rect id="connector19pin" x="122.4" y="93.249" fill="none" width="14.4" height="0.7"/>
	<rect id="connector19terminal" x="136.8" y="93.249" fill="none" width="0" height="0.7"/>
	<rect id="connector25pin" x="122.4" y="93.249" fill="none" width="14.4" height="0.7"/>
	<rect id="connector25terminal" x="136.8" y="93.249" fill="none" width="0" height="0.7"/>
	<rect id="connector34pin" x="122.4" y="93.249" fill="none" width="14.4" height="0.7"/>
	<rect id="connector34terminal" x="136.8" y="93.249" fill="none" width="0" height="0.7"/>
	<rect id="connector28pin" x="122.4" y="93.249" fill="none" width="14.4" height="0.7"/>
	<rect id="connector28terminal" x="136.8" y="93.249" fill="none" width="0" height="0.7"/>
	<rect id="connector52pin" x="122.4" y="93.249" fill="none" width="14.4" height="0.7"/>
	<rect id="connector52terminal" x="136.8" y="93.249" fill="none" width="0" height="0.7"/>
</g>
</svg>
