<?xml version="1.0" encoding="utf-8"?>
<!-- Generator: Adobe Illustrator 16.0.0, SVG Export Plug-In . SVG Version: 6.00 Build 0)  -->
<!DOCTYPE svg PUBLIC "-//W3C//DTD SVG 1.1//EN" "http://www.w3.org/Graphics/SVG/1.1/DTD/svg11.dtd">
<svg version="1.1"
	 id="Ebene_1" xmlns:svg="http://www.w3.org/2000/svg" xmlns:rdf="http://www.w3.org/1999/02/22-rdf-syntax-ns#" xmlns:inkscape="http://www.inkscape.org/namespaces/inkscape"
	 xmlns="http://www.w3.org/2000/svg" xmlns:xlink="http://www.w3.org/1999/xlink" x="0px" y="0px" width="79.2px" height="90.99px"
	 viewBox="0 0 79.2 90.99" enable-background="new 0 0 79.2 90.99" xml:space="preserve">
<g id="schematic">
	<g id="layer1" transform="translate(-201.99844,-375.87344)">
		
			<rect id="rect5" x="216.395" y="376.359" fill="#FFFFFF" stroke="#000000" stroke-width="0.9" stroke-linecap="round" stroke-linejoin="round" width="50.4" height="76.1"/>
		<text transform="matrix(1 0 0 1 233.9354 436.7655)" font-family="'DroidSans'" font-size="4.5">LTR- 110</text>
		<text transform="matrix(1 0 0 1 225.285 442.1659)" font-family="'DroidSans'" font-size="4.5">line transformer</text>
		<text id="label_1_" transform="matrix(0.0017 1 -1 0.0017 222.3026 393.4789)" font-family="'DroidSans'" font-size="2.5">75 Ohm</text>
		<text id="label_4_" transform="matrix(1 -0.0017 0.0017 1 219.1498 391.6718)" font-family="'DroidSans'" font-size="2.5">3</text>
		<text id="label_5_" transform="matrix(1 -0.0017 0.0017 1 219.1498 398.6718)" font-family="'DroidSans'" font-size="2.5">2</text>
		<text id="label_6_" transform="matrix(1 -0.0017 0.0017 1 219.1498 405.9218)" font-family="'DroidSans'" font-size="2.5">1</text>
		<text id="label_11_" transform="matrix(1 -0.0017 0.0017 1 262.3895 412.9921)" font-family="'DroidSans'" font-size="2.5">6</text>
		<text id="label_10_" transform="matrix(1 -0.0017 0.0017 1 262.3895 419.9921)" font-family="'DroidSans'" font-size="2.5">7</text>
		<text id="label_9_" transform="matrix(1 -0.0017 0.0017 1 262.3895 427.2421)" font-family="'DroidSans'" font-size="2.5">8</text>
		
			<text id="label_2_" transform="matrix(4.489659e-011 -1 1 4.489659e-011 260.327 398.4901)" font-family="'DroidSans'" font-size="2.5">60 Ohm</text>
		<text id="label_7_" transform="matrix(1 0 0 1 262.3885 391.6708)" font-family="'DroidSans'" font-size="2.5">4</text>
		<text id="label_8_" transform="matrix(1 0 0 1 262.3885 397.9637)" font-family="'DroidSans'" font-size="2.5">5</text>
		<text id="label_3_" transform="matrix(0 -1 1 0 259.6864 423.5643)" font-family="'DroidSans'" font-size="2.5">90 Ohm</text>
		<g>
			<g>
				
					<line fill="none" stroke="#787878" stroke-width="0.7" stroke-linecap="round" stroke-linejoin="round" x1="216.37" y1="404.676" x2="202.373" y2="404.676"/>
			</g>
			<g>
				
					<line fill="none" stroke="#787878" stroke-width="0.7" stroke-linecap="round" stroke-linejoin="round" x1="266.936" y1="426.277" x2="280.77" y2="426.277"/>
			</g>
			<g>
				
					<line fill="none" stroke="#787878" stroke-width="0.7" stroke-linecap="round" stroke-linejoin="round" x1="266.936" y1="419.076" x2="280.77" y2="419.076"/>
			</g>
			<g>
				
					<line fill="none" stroke="#787878" stroke-width="0.7" stroke-linecap="round" stroke-linejoin="round" x1="266.936" y1="411.878" x2="280.77" y2="411.878"/>
			</g>
		</g>
		<g>
			<g>
				
					<line fill="none" stroke="#787878" stroke-width="0.7" stroke-linecap="round" stroke-linejoin="round" x1="202.373" y1="397.474" x2="216.371" y2="397.474"/>
			</g>
			<g>
				
					<line fill="none" stroke="#787878" stroke-width="0.7" stroke-linecap="round" stroke-linejoin="round" x1="202.373" y1="390.274" x2="216.371" y2="390.274"/>
			</g>
			<g>
				
					<line fill="none" stroke="#787878" stroke-width="0.7" stroke-linecap="round" stroke-linejoin="round" x1="280.77" y1="390.328" x2="266.936" y2="390.328"/>
			</g>
			<g>
				
					<line fill="none" stroke="#787878" stroke-width="0.7" stroke-linecap="round" stroke-linejoin="round" x1="280.77" y1="397.528" x2="266.936" y2="397.528"/>
			</g>
		</g>
	</g>
	<text id="label_12_" transform="matrix(1 -0.0017 0.0017 1 40.3667 75.0981)" font-family="'DroidSans'" font-size="2.5">GND</text>
	<g>
		
			<line fill="none" stroke="#787878" stroke-width="0.7" stroke-linecap="round" stroke-linejoin="round" x1="43.225" y1="76.903" x2="43.225" y2="90.737"/>
	</g>
	<rect id="connector131" x="42.875" y="76.819" fill="none" width="0.699" height="14.344"/>
	<rect id="connector131terminal" x="42.875" y="90.859" fill="none" width="0.699" height="0.304"/>
	<g>
		
			<line fill="none" stroke="#787878" stroke-width="0.7" stroke-linecap="round" stroke-linejoin="round" x1="43.225" y1="76.903" x2="43.225" y2="90.737"/>
	</g>
	<rect id="connector130" x="42.875" y="76.819" fill="none" width="0.699" height="14.344"/>
	<rect id="connector130terminal" x="42.875" y="90.859" fill="none" width="0.699" height="0.304"/>
	<rect id="connector6" y="21.237" fill="none" width="14.372" height="0.7"/>
	<rect id="connector6terminal" y="21.237" fill="none" width="0.232" height="0.7"/>
	<rect id="connector7" y="28.453" fill="none" width="14.372" height="0.7"/>
	<rect id="connector7terminal" y="28.453" fill="none" width="0.084" height="0.7"/>
	<rect id="connector8" x="64.854" y="50.054" fill="none" width="14.344" height="0.699"/>
	<rect id="connector8terminal" x="78.894" y="50.054" fill="none" width="0.304" height="0.699"/>
	<rect id="connector12" x="64.738" y="42.854" fill="none" width="14.343" height="0.699"/>
	<rect id="connector12terminal" x="78.887" y="42.854" fill="none" width="0.193" height="0.699"/>
	<rect id="connector13" x="64.854" y="35.639" fill="none" width="14.344" height="0.7"/>
	<rect id="connector13terminal" x="78.963" y="35.639" fill="none" width="0.232" height="0.7"/>
	<rect id="connector0" x="64.795" y="21.305" fill="none" width="14.343" height="0.7"/>
	<rect id="connector0terminal" x="78.863" y="21.305" fill="none" width="0.275" height="0.7"/>
	<rect id="connector1" x="64.795" y="14.089" fill="none" width="14.343" height="0.7"/>
	<rect id="connector1terminal" x="78.834" y="14.089" fill="none" width="0.304" height="0.7"/>
	<rect id="connector5" y="14.047" fill="none" width="14.372" height="0.7"/>
	<rect id="connector5terminal" y="14.05" fill="none" width="0.153" height="0.7"/>
</g>
</svg>
