<?xml version='1.0' encoding='UTF-8' standalone='no'?>
<svg
  xmlns:dc="http://purl.org/dc/elements/1.1/"
  xmlns:cc="http://creativecommons.org/ns#"
  xmlns:rdf="http://www.w3.org/1999/02/22-rdf-syntax-ns#"
  xmlns:svg="http://www.w3.org/2000/svg"
  xmlns="http://www.w3.org/2000/svg"
  viewBox="0 0 410.00004 509.73892"
  x="0in"
  width="0.41000003in"
  height="0.50973892in"
  version="1.2"
  y="0in"
  id="svg2">
  <metadata
    id="metadata41">
    <rdf:RDF>
      <cc:Work
        rdf:about="">
        <dc:format>image/svg+xml</dc:format>
        <dc:type
          rdf:resource="http://purl.org/dc/dcmitype/StillImage"
        />
        <dc:title/>
      </cc:Work>
    </rdf:RDF>
  </metadata>
  <defs
    id="defs39"
  />
  <desc
    id="desc4">
    <referenceFile>multimeter_c_dc_1_schematic.svg</referenceFile>
  </desc>
  <g
    id="schematic">
    <rect
      stroke-linecap="round"
      stroke-width="10"
      stroke="#000000"
      fill="none"
      x="5"
      width="400.00003"
      height="400.00003"
      y="5"
      id="rect7"
    />
    <text
      fill="#000000"
      text-anchor="middle"
      font-family="'Droid Sans'"
      font-size="60"
      y="256.62247"
      x="198.94531"
      id="label">Ammeter</text>
    <text
      font-size="49"
      y="374.10483"
      x="204.50374"
      id="text83"
      font-family="'Droid Sans'"
      text-anchor="middle"
      fill="#555555">COM</text>
    <text
      fill="#555555"
      text-anchor="middle"
      font-family="'Droid Sans'"
      font-size="49"
      y="374.58334"
      x="303.65347"
      id="text87">V</text>
    <text
      fill="#555555"
      text-anchor="middle"
      font-family="'Droid Sans'"
      id="text42"
      x="104.19888"
      y="374.10483"
      font-size="49">A</text>
    <text
      fill="#000000"
      text-anchor="middle"
      font-family="'Droid Sans'"
      id="text50"
      x="198.94531"
      y="308.70572"
      font-size="60">(DC)</text>
    <rect
      stroke-linecap="round"
      stroke-width="4.03603458"
      stroke="#000000"
      fill="none"
      id="rect124"
      y="62.018028"
      height="105.96397"
      width="245.96397"
      x="82.018021"
    />
    <path
      stroke-width="1.67171204"
      fill="#555555"
      d="m 361.62971,374.97919 h -13.79169 v -9.26649 q 1.43664,-0.90983 2.84934,-1.96337 1.4367,-1.05394 2.49021,-2.41825 1.07737,-1.41278 1.69999,-3.30443 0.62263,-1.9154 0.62263,-4.45354 0,-4.93246 -3.04087,-7.9017 -3.04095,-2.99301 -8.30872,-2.99301 -5.2677,0 -8.30866,2.99301 -3.0409,2.96905 -3.0409,7.9017 0,2.53814 0.62253,4.45354 0.62247,1.89165 1.70003,3.30443 1.07738,1.36473 2.49019,2.41825 1.41269,1.05392 2.84931,1.96337 v 9.26649 h -13.79172 v -4.16622 h 9.81681 v -2.96914 q -3.75919,-2.15489 -6.20153,-5.89016 -2.41834,-3.73527 -2.41834,-8.38064 0,-6.60845 4.47757,-10.79878 4.50145,-4.19014 11.80465,-4.19014 7.30305,0 11.78056,4.19014 4.50148,4.19023 4.50148,10.79878 0,4.64519 -2.44224,8.38064 -2.41834,3.73527 -6.17765,5.89016 v 2.96914 h 9.8169 z"
      id="path124"
    />
    <line
      stroke-linecap="round"
      stroke-width="10"
      stroke="#555555"
      fill="none"
      id="connector0pin"
      x1="205"
      x2="205"
      y2="504.66772"
      y1="409.66772"
    />
    <rect
      stroke-width="0"
      fill="none"
      y="499.66772"
      height="10"
      width="10"
      x="200"
      id="connector0terminal"
    />
    <line
      stroke-linecap="round"
      stroke-width="10"
      stroke="#555555"
      fill="none"
      y1="409.66772"
      y2="504.66772"
      x2="305"
      x1="305"
      id="connector1pin"
    />
    <rect
      stroke-width="0"
      fill="none"
      id="connector1terminal"
      x="300"
      width="10"
      height="10"
      y="499.66772"
    />
    <line
      stroke-linecap="round"
      stroke-width="10"
      stroke="#555555"
      fill="none"
      y1="409.66772"
      y2="504.66772"
      x2="104.69514"
      x1="104.69514"
      id="connector2pin"
    />
    <rect
      stroke-width="0"
      fill="none"
      id="connector2terminal"
      x="99.695145"
      width="10"
      height="10"
      y="499.66772"
    />
  </g>
</svg>
