<?xml version="1.0" encoding="utf-8"?>
<!-- Generator: Adobe Illustrator 16.0.0, SVG Export Plug-In . SVG Version: 6.00 Build 0)  -->
<!DOCTYPE svg PUBLIC "-//W3C//DTD SVG 1.1//EN" "http://www.w3.org/Graphics/SVG/1.1/DTD/svg11.dtd">
<svg version="1.1" xmlns="http://www.w3.org/2000/svg" xmlns:xlink="http://www.w3.org/1999/xlink" x="0px" y="0px" width="115.2px"
	 height="71.824px" viewBox="0 0 115.2 71.824" enable-background="new 0 0 115.2 71.824" xml:space="preserve">
<g id="schematic">
	<rect x="14.4" y="14.4" fill="#FFFFFF" stroke="#000000" stroke-miterlimit="10" width="85.95" height="43.2"/>
	<text id="label" transform="matrix(1 0 0 1 50.1367 33.2)" font-family="'DroidSans'" font-size="3.5">MyoWare</text>
	<text id="label_1_" transform="matrix(1 0 0 1 53.2808 36.7)" font-family="'DroidSans'" font-size="3.5">Proto</text>
	<text id="label_2_" transform="matrix(1 0 0 1 52.7935 40.2)" font-family="'DroidSans'" font-size="3.5">Shield</text>
	
		<line fill="none" stroke="#787878" stroke-width="0.7" stroke-linecap="round" stroke-linejoin="round" x1="100.45" y1="28.8" x2="114.85" y2="28.8"/>
	<rect id="connector128pin" x="100.799" y="28.45" fill="none" width="14.4" height="0.7"/>
	<rect id="connector128terminal" x="115.2" y="28.45" fill="none" width="0" height="0.7"/>
	<text id="label128" transform="matrix(1 0 0 1 94.0171 29.4998)" fill="#8C8C8C" font-family="'DroidSans'" font-size="3.5">SIG</text>
	
		<line fill="none" stroke="#787878" stroke-width="0.7" stroke-linecap="round" stroke-linejoin="round" x1="0.397" y1="28.801" x2="14.535" y2="28.801"/>
	<rect id="connector1pin" x="0.484" y="28.451" fill="none" width="14.4" height="0.7"/>
	<rect id="connector1terminal" x="14.775" y="28.451" fill="none" width="0" height="0.7"/>
	<text id="label1" transform="matrix(1 0 0 1 19.0352 29.5007)" fill="#8C8C8C" font-family="'DroidSans'" font-size="3.5">SHIELD_PWR</text>
	
		<line fill="none" stroke="#787878" stroke-width="0.7" stroke-linecap="round" stroke-linejoin="round" x1="0.366" y1="43.201" x2="14.535" y2="43.201"/>
	<rect id="connector0pin" x="0.484" y="42.85" fill="none" width="14.4" height="0.7"/>
	<rect id="connector0terminal" x="14.885" y="42.85" fill="none" width="0" height="0.7"/>
	<text id="label0" transform="matrix(1 0 0 1 19.0352 43.9011)" fill="#8C8C8C" font-family="'DroidSans'" font-size="3.5">RAW_EMG</text>
	
		<line fill="none" stroke="#787878" stroke-width="0.7" stroke-linecap="round" stroke-linejoin="round" x1="57.6" y1="0.35" x2="57.6" y2="14.4"/>
	<rect id="connector126pin" x="57.25" y="0" fill="none" width="0.7" height="14.4"/>
	<polygon id="connector126terminal" fill="none" points="57.25,0 57.95,0 57.95,0 	"/>
	<g transform="matrix(1, 0, 0, 1, 59, 16)">
		<g transform="rotate(270)">
			
				<text id="label126" transform="matrix(1 0 0 1 -6.0691 4.882813e-004)" fill="#8C8C8C" font-family="'DroidSans'" font-size="3.5">VCC</text>
		</g>
	</g>
	
		<line fill="none" stroke="#787878" stroke-width="0.7" stroke-linecap="round" stroke-linejoin="round" x1="57.6" y1="57.424" x2="57.6" y2="71.474"/>
	<rect id="connector2pin" x="57.25" y="57.424" fill="none" width="0.7" height="14.399"/>
	<polygon id="connector2terminal" fill="none" points="57.25,71.823 57.95,71.823 57.95,71.823 	"/>
	<g transform="matrix(1, 0, 0, 1, 59, 488)">
		<g transform="rotate(270)">
			<text id="label2" transform="matrix(1 0 0 1 432.176 4.882813e-004)" fill="#8C8C8C" font-family="'DroidSans'" font-size="3.5">GND</text>
		</g>
	</g>
	<rect id="connector129pin" x="57.25" y="0" fill="none" width="0.7" height="14.4"/>
	<polygon id="connector129terminal" fill="none" points="57.25,0 57.95,0 57.95,0 	"/>
	<rect id="connector5pin" x="57.25" y="57.424" fill="none" width="0.7" height="14.399"/>
	<polygon id="connector5terminal" fill="none" points="57.25,71.823 57.95,71.823 57.95,71.823 	"/>
	<rect id="connector127pin" x="57.25" y="57.424" fill="none" width="0.7" height="14.399"/>
	<polygon id="connector127terminal" fill="none" points="57.25,71.823 57.95,71.823 57.95,71.823 	"/>
	<rect id="connector130pin" x="57.25" y="57.424" fill="none" width="0.7" height="14.399"/>
	<polygon id="connector130terminal" fill="none" points="57.25,71.823 57.95,71.823 57.95,71.823 	"/>
	<rect id="connector131pin" x="100.799" y="28.45" fill="none" width="14.4" height="0.7"/>
	<rect id="connector131terminal" x="115.2" y="28.45" fill="none" width="0" height="0.7"/>
	<rect id="connector4pin" x="0.484" y="28.451" fill="none" width="14.4" height="0.7"/>
	<rect id="connector4terminal" y="28.451" fill="none" width="0" height="0.7"/>
	<rect id="connector3pin" x="0.484" y="42.85" fill="none" width="14.4" height="0.7"/>
	<rect id="connector3terminal" y="42.85" fill="none" width="0" height="0.7"/>
	<g>
		<line fill="none" x1="0.375" y1="20.57" x2="14.425" y2="20.57"/>
		<rect id="connector38pin" x="0.375" y="20.219" fill="none" width="14.4" height="0.7"/>
		<rect id="connector38terminal" y="20.57" fill="none" width="0" height="0"/>
		<line fill="none" x1="0.375" y1="20.57" x2="14.425" y2="20.57"/>
		<rect id="connector54pin" x="0.375" y="20.219" fill="none" width="14.4" height="0.7"/>
		<rect id="connector54terminal" y="20.57" fill="none" width="0" height="0"/>
		<line fill="none" x1="0.375" y1="20.57" x2="14.425" y2="20.57"/>
		<rect id="connector62pin" x="0.375" y="20.219" fill="none" width="14.4" height="0.699"/>
		<rect id="connector62terminal" y="20.569" fill="none" width="0" height="0.001"/>
		<line fill="none" x1="0.375" y1="20.57" x2="14.425" y2="20.57"/>
		<rect id="connector22pin" x="0.375" y="20.219" fill="none" width="14.4" height="0.7"/>
		<rect id="connector22terminal" y="20.57" fill="none" width="0" height="0"/>
		<line fill="none" x1="0.375" y1="20.57" x2="14.425" y2="20.57"/>
		<rect id="connector70pin" x="0.375" y="20.219" fill="none" width="14.4" height="0.7"/>
		<rect id="connector70terminal" y="20.57" fill="none" width="0" height="0"/>
		<line fill="none" x1="0.375" y1="20.57" x2="14.425" y2="20.57"/>
		<rect id="connector14pin" x="0.375" y="20.219" fill="none" width="14.4" height="0.7"/>
		<rect id="connector14terminal" y="20.57" fill="none" width="0" height="0"/>
		<line fill="none" x1="0.375" y1="20.57" x2="14.425" y2="20.57"/>
		<rect id="connector110pin" x="0.375" y="20.219" fill="none" width="14.4" height="0.7"/>
		<rect id="connector110terminal" y="20.57" fill="none" width="0" height="0"/>
		<line fill="none" x1="0.375" y1="20.57" x2="14.425" y2="20.57"/>
		<rect id="connector46pin" x="0.375" y="20.219" fill="none" width="14.4" height="0.7"/>
		<rect id="connector46terminal" y="20.57" fill="none" width="0" height="0"/>
		<line fill="none" x1="0.375" y1="20.57" x2="14.425" y2="20.57"/>
		<rect id="connector118pin" x="0.375" y="20.219" fill="none" width="14.4" height="0.699"/>
		<rect id="connector118terminal" y="20.569" fill="none" width="0" height="0.001"/>
		<line fill="none" x1="0.375" y1="20.57" x2="14.425" y2="20.57"/>
		<rect id="connector30pin" x="0.375" y="20.219" fill="none" width="14.4" height="0.7"/>
		<rect id="connector30terminal" y="20.57" fill="none" width="0" height="0"/>
		<line fill="none" x1="0.375" y1="20.57" x2="14.425" y2="20.57"/>
		<rect id="connector6pin" x="0.375" y="20.219" fill="none" width="14.4" height="0.7"/>
		<rect id="connector6terminal" y="20.57" fill="none" width="0" height="0"/>
		<line fill="none" x1="0.375" y1="20.57" x2="14.425" y2="20.57"/>
		<rect id="connector78pin" x="0.375" y="20.219" fill="none" width="14.4" height="0.7"/>
		<rect id="connector78terminal" y="20.57" fill="none" width="0" height="0"/>
		<line fill="none" x1="0.375" y1="20.57" x2="14.425" y2="20.57"/>
		<rect id="connector63pin" x="0.375" y="20.219" fill="none" width="14.4" height="0.699"/>
		<rect id="connector63terminal" y="20.569" fill="none" width="0" height="0.001"/>
		<line fill="none" x1="0.375" y1="20.57" x2="14.425" y2="20.57"/>
		<rect id="connector31pin" x="0.375" y="20.219" fill="none" width="14.4" height="0.7"/>
		<rect id="connector31terminal" y="20.57" fill="none" width="0" height="0"/>
		<line fill="none" x1="0.375" y1="20.57" x2="14.425" y2="20.57"/>
		<rect id="connector23pin" x="0.375" y="20.219" fill="none" width="14.4" height="0.7"/>
		<rect id="connector23terminal" y="20.57" fill="none" width="0" height="0"/>
		<line fill="none" x1="0.375" y1="20.57" x2="14.425" y2="20.57"/>
		<rect id="connector71pin" x="0.375" y="20.219" fill="none" width="14.4" height="0.7"/>
		<rect id="connector71terminal" y="20.57" fill="none" width="0" height="0"/>
		<line fill="none" x1="0.375" y1="20.57" x2="14.425" y2="20.57"/>
		<rect id="connector79pin" x="0.375" y="20.219" fill="none" width="14.4" height="0.7"/>
		<rect id="connector79terminal" y="20.57" fill="none" width="0" height="0"/>
		<line fill="none" x1="0.375" y1="20.57" x2="14.425" y2="20.57"/>
		<rect id="connector119pin" x="0.375" y="20.219" fill="none" width="14.4" height="0.699"/>
		<rect id="connector119terminal" y="20.569" fill="none" width="0" height="0.001"/>
		<line fill="none" x1="0.375" y1="20.57" x2="14.425" y2="20.57"/>
		<rect id="connector55pin" x="0.375" y="20.219" fill="none" width="14.4" height="0.7"/>
		<rect id="connector55terminal" y="20.57" fill="none" width="0" height="0"/>
		<line fill="none" x1="0.375" y1="20.57" x2="14.425" y2="20.57"/>
		<rect id="connector111pin" x="0.375" y="20.219" fill="none" width="14.4" height="0.7"/>
		<rect id="connector111terminal" y="20.57" fill="none" width="0" height="0"/>
		<line fill="none" x1="0.375" y1="20.57" x2="14.425" y2="20.57"/>
		<rect id="connector7pin" x="0.375" y="20.219" fill="none" width="14.4" height="0.7"/>
		<rect id="connector7terminal" y="20.57" fill="none" width="0" height="0"/>
		<line fill="none" x1="0.375" y1="20.57" x2="14.425" y2="20.57"/>
		<rect id="connector47pin" x="0.375" y="20.219" fill="none" width="14.4" height="0.7"/>
		<rect id="connector47terminal" y="20.57" fill="none" width="0" height="0"/>
		<line fill="none" x1="0.375" y1="20.57" x2="14.425" y2="20.57"/>
		<rect id="connector39pin" x="0.375" y="20.219" fill="none" width="14.4" height="0.699"/>
		<rect id="connector39terminal" y="20.569" fill="none" width="0" height="0.001"/>
		<line fill="none" x1="0.375" y1="20.57" x2="14.425" y2="20.57"/>
		<rect id="connector15pin" x="0.375" y="20.219" fill="none" width="14.4" height="0.7"/>
		<rect id="connector15terminal" y="20.57" fill="none" width="0" height="0"/>
		<line fill="none" x1="0.375" y1="20.57" x2="14.425" y2="20.57"/>
		<rect id="connector72pin" x="0.375" y="20.219" fill="none" width="14.4" height="0.7"/>
		<rect id="connector72terminal" y="20.57" fill="none" width="0" height="0"/>
		<line fill="none" x1="0.375" y1="20.57" x2="14.425" y2="20.57"/>
		<rect id="connector32pin" x="0.375" y="20.219" fill="none" width="14.4" height="0.7"/>
		<rect id="connector32terminal" y="20.57" fill="none" width="0" height="0"/>
		<line fill="none" x1="0.375" y1="20.57" x2="14.425" y2="20.57"/>
		<rect id="connector40pin" x="0.375" y="20.219" fill="none" width="14.4" height="0.7"/>
		<rect id="connector40terminal" y="20.57" fill="none" width="0" height="0"/>
		<line fill="none" x1="0.375" y1="20.57" x2="14.425" y2="20.57"/>
		<rect id="connector64pin" x="0.375" y="20.219" fill="none" width="14.4" height="0.699"/>
		<rect id="connector64terminal" y="20.569" fill="none" width="0" height="0.001"/>
		<line fill="none" x1="0.375" y1="20.57" x2="14.425" y2="20.57"/>
		<rect id="connector56pin" x="0.375" y="20.219" fill="none" width="14.4" height="0.7"/>
		<rect id="connector56terminal" y="20.57" fill="none" width="0" height="0"/>
		<line fill="none" x1="0.375" y1="20.57" x2="14.425" y2="20.57"/>
		<rect id="connector48pin" x="0.375" y="20.219" fill="none" width="14.4" height="0.7"/>
		<rect id="connector48terminal" y="20.57" fill="none" width="0" height="0"/>
		<line fill="none" x1="0.375" y1="20.57" x2="14.425" y2="20.57"/>
		<rect id="connector96pin" x="0.375" y="20.219" fill="none" width="14.4" height="0.7"/>
		<rect id="connector96terminal" y="20.57" fill="none" width="0" height="0"/>
		<line fill="none" x1="0.375" y1="20.57" x2="14.425" y2="20.57"/>
		<rect id="connector88pin" x="0.375" y="20.219" fill="none" width="14.4" height="0.7"/>
		<rect id="connector88terminal" y="20.57" fill="none" width="0" height="0"/>
		<line fill="none" x1="0.375" y1="20.57" x2="14.425" y2="20.57"/>
		<rect id="connector104pin" x="0.375" y="20.219" fill="none" width="14.4" height="0.7"/>
		<rect id="connector104terminal" y="20.57" fill="none" width="0" height="0"/>
		<line fill="none" x1="0.375" y1="20.57" x2="14.425" y2="20.57"/>
		<rect id="connector112pin" x="0.375" y="20.219" fill="none" width="14.4" height="0.7"/>
		<rect id="connector112terminal" y="20.57" fill="none" width="0" height="0"/>
		<line fill="none" x1="0.375" y1="20.57" x2="14.425" y2="20.57"/>
		<rect id="connector8pin" x="0.375" y="20.219" fill="none" width="14.4" height="0.7"/>
		<rect id="connector8terminal" y="20.57" fill="none" width="0" height="0"/>
		<line fill="none" x1="0.375" y1="20.57" x2="14.425" y2="20.57"/>
		<rect id="connector16pin" x="0.375" y="20.219" fill="none" width="14.4" height="0.7"/>
		<rect id="connector16terminal" y="20.57" fill="none" width="0" height="0"/>
		<line fill="none" x1="0.375" y1="20.57" x2="14.425" y2="20.57"/>
		<rect id="connector80pin" x="0.375" y="20.219" fill="none" width="14.4" height="0.7"/>
		<rect id="connector80terminal" y="20.57" fill="none" width="0" height="0"/>
		<line fill="none" x1="0.375" y1="20.57" x2="14.425" y2="20.57"/>
		<rect id="connector24pin" x="0.375" y="20.219" fill="none" width="14.4" height="0.7"/>
		<rect id="connector24terminal" y="20.57" fill="none" width="0" height="0"/>
		<line fill="none" x1="0.375" y1="20.57" x2="14.425" y2="20.57"/>
		<rect id="connector120pin" x="0.375" y="20.219" fill="none" width="14.4" height="0.7"/>
		<rect id="connector120terminal" y="20.57" fill="none" width="0" height="0"/>
		<line fill="none" x1="0.375" y1="20.57" x2="14.425" y2="20.57"/>
		<rect id="connector121pin" x="0.375" y="20.219" fill="none" width="14.4" height="0.7"/>
		<rect id="connector121terminal" y="20.57" fill="none" width="0" height="0"/>
		<line fill="none" x1="0.375" y1="20.57" x2="14.425" y2="20.57"/>
		<rect id="connector81pin" x="0.375" y="20.219" fill="none" width="14.4" height="0.7"/>
		<rect id="connector81terminal" y="20.57" fill="none" width="0" height="0"/>
		<line fill="none" x1="0.375" y1="20.57" x2="14.425" y2="20.57"/>
		<rect id="connector113pin" x="0.375" y="20.219" fill="none" width="14.4" height="0.7"/>
		<rect id="connector113terminal" y="20.57" fill="none" width="0" height="0"/>
		<line fill="none" x1="0.375" y1="20.57" x2="14.425" y2="20.57"/>
		<rect id="connector105pin" x="0.375" y="20.219" fill="none" width="14.4" height="0.699"/>
		<rect id="connector105terminal" y="20.569" fill="none" width="0" height="0.001"/>
		<line fill="none" x1="0.375" y1="20.57" x2="14.425" y2="20.57"/>
		<rect id="connector89pin" x="0.375" y="20.219" fill="none" width="14.4" height="0.7"/>
		<rect id="connector89terminal" y="20.57" fill="none" width="0" height="0"/>
		<line fill="none" x1="0.375" y1="20.57" x2="14.425" y2="20.57"/>
		<rect id="connector73pin" x="0.375" y="20.219" fill="none" width="14.4" height="0.7"/>
		<rect id="connector73terminal" y="20.57" fill="none" width="0" height="0"/>
		<line fill="none" x1="0.375" y1="20.57" x2="14.425" y2="20.57"/>
		<rect id="connector57pin" x="0.375" y="20.219" fill="none" width="14.4" height="0.7"/>
		<rect id="connector57terminal" y="20.57" fill="none" width="0" height="0"/>
		<line fill="none" x1="0.375" y1="20.57" x2="14.425" y2="20.57"/>
		<rect id="connector97pin" x="0.375" y="20.219" fill="none" width="14.4" height="0.7"/>
		<rect id="connector97terminal" y="20.57" fill="none" width="0" height="0"/>
		<line fill="none" x1="0.375" y1="20.57" x2="14.425" y2="20.57"/>
		<rect id="connector65pin" x="0.375" y="20.219" fill="none" width="14.4" height="0.699"/>
		<rect id="connector65terminal" y="20.569" fill="none" width="0" height="0.001"/>
		<line fill="none" x1="0.375" y1="20.57" x2="14.425" y2="20.57"/>
		<rect id="connector25pin" x="0.375" y="20.219" fill="none" width="14.4" height="0.7"/>
		<rect id="connector25terminal" y="20.57" fill="none" width="0" height="0"/>
		<line fill="none" x1="0.375" y1="20.57" x2="14.425" y2="20.57"/>
		<rect id="connector17pin" x="0.375" y="20.219" fill="none" width="14.4" height="0.7"/>
		<rect id="connector17terminal" y="20.57" fill="none" width="0" height="0"/>
		<line fill="none" x1="0.375" y1="20.57" x2="14.425" y2="20.57"/>
		<rect id="connector41pin" x="0.375" y="20.219" fill="none" width="14.4" height="0.7"/>
		<rect id="connector41terminal" y="20.57" fill="none" width="0" height="0"/>
		<line fill="none" x1="0.375" y1="20.57" x2="14.425" y2="20.57"/>
		<rect id="connector49pin" x="0.375" y="20.219" fill="none" width="14.4" height="0.7"/>
		<rect id="connector49terminal" y="20.57" fill="none" width="0" height="0"/>
		<line fill="none" x1="0.375" y1="20.57" x2="14.425" y2="20.57"/>
		<rect id="connector33pin" x="0.375" y="20.219" fill="none" width="14.4" height="0.699"/>
		<rect id="connector33terminal" y="20.569" fill="none" width="0" height="0.001"/>
		<line fill="none" x1="0.375" y1="20.57" x2="14.425" y2="20.57"/>
		<rect id="connector9pin" x="0.375" y="20.219" fill="none" width="14.4" height="0.7"/>
		<rect id="connector9terminal" y="20.57" fill="none" width="0" height="0"/>
		<line fill="none" x1="0.375" y1="20.57" x2="14.425" y2="20.57"/>
		<rect id="connector82pin" x="0.375" y="20.219" fill="none" width="14.4" height="0.7"/>
		<rect id="connector82terminal" y="20.57" fill="none" width="0" height="0"/>
		<line fill="none" x1="0.375" y1="20.57" x2="14.425" y2="20.57"/>
		<rect id="connector26pin" x="0.375" y="20.219" fill="none" width="14.4" height="0.7"/>
		<rect id="connector26terminal" y="20.57" fill="none" width="0" height="0"/>
		<line fill="none" x1="0.375" y1="20.57" x2="14.425" y2="20.57"/>
		<rect id="connector74pin" x="0.375" y="20.219" fill="none" width="14.4" height="0.7"/>
		<rect id="connector74terminal" y="20.57" fill="none" width="0" height="0"/>
		<line fill="none" x1="0.375" y1="20.57" x2="14.425" y2="20.57"/>
		<rect id="connector18pin" x="0.375" y="20.219" fill="none" width="14.4" height="0.7"/>
		<rect id="connector18terminal" y="20.57" fill="none" width="0" height="0"/>
		<line fill="none" x1="0.375" y1="20.57" x2="14.425" y2="20.57"/>
		<rect id="connector114pin" x="0.375" y="20.219" fill="none" width="14.4" height="0.699"/>
		<rect id="connector114terminal" y="20.569" fill="none" width="0" height="0.001"/>
		<line fill="none" x1="0.375" y1="20.57" x2="14.425" y2="20.57"/>
		<rect id="connector34pin" x="0.375" y="20.219" fill="none" width="14.4" height="0.7"/>
		<rect id="connector34terminal" y="20.57" fill="none" width="0" height="0"/>
		<line fill="none" x1="0.375" y1="20.57" x2="14.425" y2="20.57"/>
		<rect id="connector10pin" x="0.375" y="20.219" fill="none" width="14.4" height="0.7"/>
		<rect id="connector10terminal" y="20.57" fill="none" width="0" height="0"/>
		<line fill="none" x1="0.375" y1="20.57" x2="14.425" y2="20.57"/>
		<rect id="connector98pin" x="0.375" y="20.219" fill="none" width="14.4" height="0.7"/>
		<rect id="connector98terminal" y="20.57" fill="none" width="0" height="0"/>
		<line fill="none" x1="0.375" y1="20.57" x2="14.425" y2="20.57"/>
		<rect id="connector90pin" x="0.375" y="20.219" fill="none" width="14.4" height="0.7"/>
		<rect id="connector90terminal" y="20.57" fill="none" width="0" height="0"/>
		<line fill="none" x1="0.375" y1="20.57" x2="14.776" y2="20.57"/>
		<rect id="connector86pin" x="0.375" y="20.22" fill="none" width="14.4" height="0.699"/>
		<rect id="connector86terminal" x="14.575" y="20.22" fill="none" width="0" height="0.699"/>
		<line fill="none" x1="0.375" y1="20.57" x2="14.776" y2="20.57"/>
		<rect id="connector102pin" x="0.375" y="20.22" fill="none" width="14.4" height="0.7"/>
		<rect id="connector102terminal" x="14.4" y="20.57" fill="none" width="0" height="0.7"/>
		<line fill="none" x1="0.375" y1="20.57" x2="14.776" y2="20.57"/>
		<rect id="connector94pin" x="0.375" y="20.22" fill="none" width="14.4" height="0.7"/>
		<rect id="connector94terminal" x="14.4" y="20.57" fill="none" width="0" height="0.7"/>
		<line fill="none" x1="0.375" y1="20.57" x2="14.776" y2="20.57"/>
		<rect id="connector61pin" x="0.375" y="20.22" fill="none" width="14.4" height="0.7"/>
		<rect id="connector61terminal" x="14.4" y="20.57" fill="none" width="0" height="0.7"/>
		<line fill="none" x1="0.375" y1="20.57" x2="14.776" y2="20.57"/>
		<rect id="connector29pin" x="0.375" y="20.22" fill="none" width="14.4" height="0.7"/>
		<rect id="connector29terminal" x="14.4" y="20.57" fill="none" width="0" height="0.7"/>
		<line fill="none" x1="0.375" y1="20.57" x2="14.776" y2="20.57"/>
		<rect id="connector37pin" x="0.375" y="20.22" fill="none" width="14.4" height="0.699"/>
		<rect id="connector37terminal" x="14.4" y="20.57" fill="none" width="0" height="0.699"/>
		<line fill="none" x1="0.375" y1="20.57" x2="14.776" y2="20.57"/>
		<rect id="connector45pin" x="0.375" y="20.22" fill="none" width="14.4" height="0.7"/>
		<rect id="connector45terminal" x="14.4" y="20.57" fill="none" width="0" height="0.7"/>
		<line fill="none" x1="0.375" y1="20.57" x2="14.776" y2="20.57"/>
		<rect id="connector21pin" x="0.375" y="20.22" fill="none" width="14.4" height="0.7"/>
		<rect id="connector21terminal" x="14.4" y="20.57" fill="none" width="0" height="0.7"/>
		<line fill="none" x1="0.375" y1="20.57" x2="14.776" y2="20.57"/>
		<rect id="connector85pin" x="0.375" y="20.22" fill="none" width="14.4" height="0.7"/>
		<rect id="connector85terminal" x="14.4" y="20.57" fill="none" width="0" height="0.7"/>
		<line fill="none" x1="0.375" y1="20.57" x2="14.776" y2="20.57"/>
		<rect id="connector77pin" x="0.375" y="20.22" fill="none" width="14.4" height="0.699"/>
		<rect id="connector77terminal" x="14.4" y="20.57" fill="none" width="0" height="0.699"/>
		<line fill="none" x1="0.375" y1="20.57" x2="14.776" y2="20.57"/>
		<rect id="connector13pin" x="0.375" y="20.22" fill="none" width="14.4" height="0.7"/>
		<rect id="connector13terminal" x="14.4" y="20.57" fill="none" width="0" height="0.7"/>
		<line fill="none" x1="0.375" y1="20.57" x2="14.776" y2="20.57"/>
		<rect id="connector93pin" x="0.375" y="20.22" fill="none" width="14.4" height="0.7"/>
		<rect id="connector93terminal" x="14.4" y="20.57" fill="none" width="0" height="0.7"/>
		<line fill="none" x1="0.375" y1="20.57" x2="14.776" y2="20.57"/>
		<rect id="connector101pin" x="0.375" y="20.22" fill="none" width="14.4" height="0.7"/>
		<rect id="connector101terminal" x="14.4" y="20.57" fill="none" width="0" height="0.7"/>
		<line fill="none" x1="0.375" y1="20.57" x2="14.776" y2="20.57"/>
		<rect id="connector53pin" x="0.375" y="20.22" fill="none" width="14.4" height="0.7"/>
		<rect id="connector53terminal" x="14.4" y="20.57" fill="none" width="0" height="0.7"/>
		<line fill="none" x1="0.375" y1="20.57" x2="14.776" y2="20.57"/>
		<rect id="connector117pin" x="0.375" y="20.22" fill="none" width="14.4" height="0.699"/>
		<rect id="connector117terminal" x="14.4" y="20.57" fill="none" width="0" height="0.699"/>
		<line fill="none" x1="0.375" y1="20.57" x2="14.776" y2="20.57"/>
		<rect id="connector69pin" x="0.375" y="20.22" fill="none" width="14.4" height="0.7"/>
		<rect id="connector69terminal" x="14.4" y="20.57" fill="none" width="0" height="0.7"/>
		<line fill="none" x1="0.375" y1="20.57" x2="14.776" y2="20.57"/>
		<rect id="connector125pin" x="0.375" y="20.22" fill="none" width="14.4" height="0.7"/>
		<rect id="connector125terminal" x="14.4" y="20.57" fill="none" width="0" height="0.7"/>
		<line fill="none" x1="0.375" y1="20.57" x2="14.776" y2="20.57"/>
		<rect id="connector109pin" x="0.375" y="20.22" fill="none" width="14.4" height="0.7"/>
		<rect id="connector109terminal" x="14.4" y="20.57" fill="none" width="0" height="0.7"/>
		<line fill="none" x1="0.375" y1="20.57" x2="14.776" y2="20.57"/>
		<rect id="connector116pin" x="0.375" y="20.22" fill="none" width="14.4" height="0.7"/>
		<rect id="connector116terminal" x="14.4" y="20.57" fill="none" width="0" height="0.7"/>
		<line fill="none" x1="0.375" y1="20.57" x2="14.776" y2="20.57"/>
		<rect id="connector92pin" x="0.375" y="20.22" fill="none" width="14.4" height="0.699"/>
		<rect id="connector92terminal" x="14.4" y="20.57" fill="none" width="0" height="0.699"/>
		<line fill="none" x1="0.375" y1="20.57" x2="14.776" y2="20.57"/>
		<rect id="connector76pin" x="0.375" y="20.22" fill="none" width="14.4" height="0.7"/>
		<rect id="connector76terminal" x="14.4" y="20.57" fill="none" width="0" height="0.7"/>
		<line fill="none" x1="0.375" y1="20.57" x2="14.776" y2="20.57"/>
		<rect id="connector20pin" x="0.375" y="20.22" fill="none" width="14.4" height="0.7"/>
		<rect id="connector20terminal" x="14.4" y="20.57" fill="none" width="0" height="0.7"/>
		<line fill="none" x1="0.375" y1="20.57" x2="14.776" y2="20.57"/>
		<rect id="connector28pin" x="0.375" y="20.22" fill="none" width="14.4" height="0.7"/>
		<rect id="connector28terminal" x="14.4" y="20.57" fill="none" width="0" height="0.7"/>
		<line fill="none" x1="0.375" y1="20.57" x2="14.776" y2="20.57"/>
		<rect id="connector60pin" x="0.375" y="20.22" fill="none" width="14.4" height="0.7"/>
		<rect id="connector60terminal" x="14.4" y="20.57" fill="none" width="0" height="0.7"/>
		<line fill="none" x1="0.375" y1="20.57" x2="14.776" y2="20.57"/>
		<rect id="connector84pin" x="0.375" y="20.22" fill="none" width="14.4" height="0.699"/>
		<rect id="connector84terminal" x="14.4" y="20.57" fill="none" width="0" height="0.699"/>
		<line fill="none" x1="0.375" y1="20.57" x2="14.776" y2="20.57"/>
		<rect id="connector36pin" x="0.375" y="20.22" fill="none" width="14.4" height="0.7"/>
		<rect id="connector36terminal" x="14.4" y="20.57" fill="none" width="0" height="0.7"/>
		<line fill="none" x1="0.375" y1="20.57" x2="14.776" y2="20.57"/>
		<rect id="connector100pin" x="0.375" y="20.22" fill="none" width="14.4" height="0.7"/>
		<rect id="connector100terminal" x="14.4" y="20.57" fill="none" width="0" height="0.7"/>
		<line fill="none" x1="0.375" y1="20.57" x2="14.776" y2="20.57"/>
		<rect id="connector52pin" x="0.375" y="20.22" fill="none" width="14.4" height="0.7"/>
		<rect id="connector52terminal" x="14.4" y="20.57" fill="none" width="0" height="0.7"/>
		<line fill="none" x1="0.375" y1="20.57" x2="14.776" y2="20.57"/>
		<rect id="connector108pin" x="0.375" y="20.22" fill="none" width="14.4" height="0.7"/>
		<rect id="connector108terminal" x="14.4" y="20.57" fill="none" width="0" height="0.7"/>
		<line fill="none" x1="0.375" y1="20.57" x2="14.776" y2="20.57"/>
		<rect id="connector44pin" x="0.375" y="20.22" fill="none" width="14.4" height="0.7"/>
		<rect id="connector44terminal" x="14.4" y="20.57" fill="none" width="0" height="0.7"/>
		<line fill="none" x1="0.375" y1="20.57" x2="14.776" y2="20.57"/>
		<rect id="connector12pin" x="0.375" y="20.22" fill="none" width="14.4" height="0.7"/>
		<rect id="connector12terminal" x="14.4" y="20.57" fill="none" width="0" height="0.7"/>
		<line fill="none" x1="0.375" y1="20.57" x2="14.776" y2="20.57"/>
		<rect id="connector124pin" x="0.375" y="20.22" fill="none" width="14.4" height="0.7"/>
		<rect id="connector124terminal" x="14.4" y="20.57" fill="none" width="0" height="0.7"/>
		<line fill="none" x1="0.375" y1="20.57" x2="14.776" y2="20.57"/>
		<rect id="connector68pin" x="0.375" y="20.22" fill="none" width="14.4" height="0.7"/>
		<rect id="connector68terminal" x="14.4" y="20.57" fill="none" width="0" height="0.7"/>
		<line fill="none" x1="0.375" y1="20.57" x2="14.776" y2="20.57"/>
		<rect id="connector27pin" x="0.375" y="20.22" fill="none" width="14.4" height="0.7"/>
		<rect id="connector27terminal" x="14.4" y="20.57" fill="none" width="0" height="0.7"/>
		<line fill="none" x1="0.375" y1="20.57" x2="14.776" y2="20.57"/>
		<rect id="connector75pin" x="0.375" y="20.22" fill="none" width="14.4" height="0.7"/>
		<rect id="connector75terminal" x="14.4" y="20.57" fill="none" width="0" height="0.7"/>
		<line fill="none" x1="0.375" y1="20.57" x2="14.776" y2="20.57"/>
		<rect id="connector35pin" x="0.375" y="20.22" fill="none" width="14.4" height="0.7"/>
		<rect id="connector35terminal" x="14.4" y="20.57" fill="none" width="0" height="0.7"/>
		<line fill="none" x1="0.375" y1="20.57" x2="14.776" y2="20.57"/>
		<rect id="connector67pin" x="0.375" y="20.22" fill="none" width="14.4" height="0.7"/>
		<rect id="connector67terminal" x="14.4" y="20.57" fill="none" width="0" height="0.7"/>
		<line fill="none" x1="0.375" y1="20.57" x2="14.776" y2="20.57"/>
		<rect id="connector123pin" x="0.375" y="20.22" fill="none" width="14.4" height="0.7"/>
		<rect id="connector123terminal" x="14.4" y="20.57" fill="none" width="0" height="0.7"/>
		<line fill="none" x1="0.375" y1="20.57" x2="14.776" y2="20.57"/>
		<rect id="connector11pin" x="0.375" y="20.22" fill="none" width="14.4" height="0.7"/>
		<rect id="connector11terminal" x="14.4" y="20.57" fill="none" width="0" height="0.7"/>
		<line fill="none" x1="0.375" y1="20.57" x2="14.776" y2="20.57"/>
		<rect id="connector107pin" x="0.375" y="20.22" fill="none" width="14.4" height="0.699"/>
		<rect id="connector107terminal" x="14.4" y="20.57" fill="none" width="0" height="0.699"/>
		<line fill="none" x1="0.375" y1="20.57" x2="14.776" y2="20.57"/>
		<rect id="connector51pin" x="0.375" y="20.22" fill="none" width="14.4" height="0.7"/>
		<rect id="connector51terminal" x="14.4" y="20.57" fill="none" width="0" height="0.7"/>
		<line fill="none" x1="0.375" y1="20.57" x2="14.776" y2="20.57"/>
		<rect id="connector59pin" x="0.375" y="20.22" fill="none" width="14.4" height="0.7"/>
		<rect id="connector59terminal" x="14.4" y="20.57" fill="none" width="0" height="0.7"/>
		<line fill="none" x1="0.375" y1="20.57" x2="14.776" y2="20.57"/>
		<rect id="connector115pin" x="0.375" y="20.22" fill="none" width="14.4" height="0.7"/>
		<rect id="connector115terminal" x="14.4" y="20.57" fill="none" width="0" height="0.7"/>
		<line fill="none" x1="0.375" y1="20.57" x2="14.776" y2="20.57"/>
		<rect id="connector99pin" x="0.375" y="20.22" fill="none" width="14.4" height="0.7"/>
		<rect id="connector99terminal" x="14.4" y="20.57" fill="none" width="0" height="0.7"/>
		<line fill="none" x1="0.375" y1="20.57" x2="14.776" y2="20.57"/>
		<rect id="connector19pin" x="0.375" y="20.22" fill="none" width="14.4" height="0.699"/>
		<rect id="connector19terminal" x="14.4" y="20.57" fill="none" width="0" height="0.699"/>
		<line fill="none" x1="0.375" y1="20.57" x2="14.776" y2="20.57"/>
		<rect id="connector43pin" x="0.375" y="20.22" fill="none" width="14.4" height="0.7"/>
		<rect id="connector43terminal" x="14.4" y="20.57" fill="none" width="0" height="0.7"/>
		<line fill="none" x1="0.375" y1="20.57" x2="14.776" y2="20.57"/>
		<rect id="connector83pin" x="0.375" y="20.22" fill="none" width="14.4" height="0.7"/>
		<rect id="connector83terminal" x="14.4" y="20.57" fill="none" width="0" height="0.7"/>
		<line fill="none" x1="0.375" y1="20.57" x2="14.776" y2="20.57"/>
		<rect id="connector91pin" x="0.375" y="20.22" fill="none" width="14.4" height="0.7"/>
		<rect id="connector91terminal" x="14.4" y="20.57" fill="none" width="0" height="0.7"/>
		<line fill="none" x1="0.375" y1="20.57" x2="14.776" y2="20.57"/>
		<rect id="connector66pin" x="0.375" y="20.22" fill="none" width="14.4" height="0.7"/>
		<rect id="connector66terminal" x="14.4" y="20.57" fill="none" width="0" height="0.7"/>
		<line fill="none" x1="0.375" y1="20.57" x2="14.776" y2="20.57"/>
		<rect id="connector122pin" x="0.375" y="20.22" fill="none" width="14.4" height="0.699"/>
		<rect id="connector122terminal" x="14.4" y="20.57" fill="none" width="0" height="0.699"/>
		<line fill="none" x1="0.375" y1="20.57" x2="14.776" y2="20.57"/>
		<rect id="connector58pin" x="0.375" y="20.22" fill="none" width="14.4" height="0.7"/>
		<rect id="connector58terminal" x="14.4" y="20.57" fill="none" width="0" height="0.7"/>
		<line fill="none" x1="0.375" y1="20.57" x2="14.776" y2="20.57"/>
		<rect id="connector42pin" x="0.375" y="20.22" fill="none" width="14.4" height="0.7"/>
		<rect id="connector42terminal" x="14.4" y="20.57" fill="none" width="0" height="0.7"/>
		<line fill="none" x1="0.375" y1="20.57" x2="14.776" y2="20.57"/>
		<rect id="connector50pin" x="0.375" y="20.22" fill="none" width="14.4" height="0.7"/>
		<rect id="connector50terminal" x="14.4" y="20.57" fill="none" width="0" height="0.7"/>
		<line fill="none" x1="0.375" y1="20.57" x2="14.776" y2="20.57"/>
		<rect id="connector106pin" x="0.375" y="20.22" fill="none" width="14.4" height="0.7"/>
		<rect id="connector106terminal" x="14.4" y="20.57" fill="none" width="0" height="0.7"/>
		<rect id="connector87pin" x="0.375" y="20.22" fill="none" width="14.4" height="0.699"/>
		<rect id="connector87terminal" x="14.575" y="20.22" fill="none" width="0" height="0.699"/>
		<rect id="connector103pin" x="0.375" y="20.22" fill="none" width="14.4" height="0.7"/>
		<rect id="connector103terminal" x="14.4" y="20.57" fill="none" width="0" height="0.7"/>
		<rect id="connector95pin" x="0.375" y="20.22" fill="none" width="14.4" height="0.7"/>
		<rect id="connector95terminal" x="14.4" y="20.57" fill="none" width="0" height="0.7"/>
	</g>
</g>
</svg>
