<?xml version='1.0' encoding='UTF-8'?>
<!DOCTYPE svg>
<!-- Creator: CorelDRAW X6 -->
<svg xmlns="http://www.w3.org/2000/svg" viewBox="0 0 1200 1700"  xmlns:xml="http://www.w3.org/XML/1998/namespace" clip-rule="evenodd" shape-rendering="geometricPrecision" version="1.1" image-rendering="optimizeQuality" text-rendering="geometricPrecision" width="1.2in" height="1.7in" fill-rule="evenodd" xml:space="preserve">
    <desc >
        <referenceFile >photon_DIP_24_700mil_schematic.svg</referenceFile>
    </desc>
    <g >
        <metadata  id="CorelCorpID_0Corel-Layer"/>
        <g >
            <path  fill="black" d="M1100 106l-1000 0 0 -11 1000 0 5 5 -5 6zm0 0l0 -11 0 0 0 0 1 0 0 0 0 0 0 0 1 0 0 1 0 0 0 0 1 0 0 0 0 0 0 0 0 0 1 1 0 0 0 0 0 0 0 0 0 1 1 0 0 0 0 0 0 1 0 0 0 0 0 0 0 1 0 0 0 0 0 0 0 1 0 0 0 0 0 0 0 1 0 0 0 0 0 0 0 1 0 0 -1 0 0 0 0 1 0 0 0 0 0 0 -1 0 0 0 0 1 0 0 0 0 -1 0 0 0 0 0 0 0 -1 0 0 1 0 0 0 0 -1 0 0 0 0 0zm-5 1494l0 -1500 10 0 0 1500 -5 6 -5 -6zm0 0l10 0 0 1 0 0 0 0 0 0 0 1 0 0 0 0 0 0 0 1 0 0 -1 0 0 0 0 1 0 0 0 0 0 0 -1 0 0 0 0 1 0 0 0 0 -1 0 0 0 0 0 0 0 -1 0 0 0 0 1 0 0 -1 0 0 0 0 0 0 0 -1 0 0 0 0 0 0 -1 -1 0 0 0 0 0 0 0 -1 0 0 0 0 0 0 0 0 -1 -1 0 0 0 0 0 0 0 0 0 0 -1 -1 0 0 0 0 0 0 -1 0 0 0 0 0 0 0 -1 0 0 0 0 0 0 0 -1zm-995 -5l1000 0 0 11 -1000 0 -5 -6 5 -5zm0 0l0 11 0 0 -1 0 0 0 0 0 0 -1 -1 0 0 0 0 0 0 0 -1 0 0 0 0 0 0 0 0 -1 -1 0 0 0 0 0 0 0 0 0 0 -1 -1 0 0 0 0 0 0 -1 0 0 0 0 0 0 0 -1 0 0 0 0 0 0 0 -1 0 0 0 0 0 0 0 -1 0 0 0 0 0 0 0 -1 0 0 0 0 0 0 1 -1 0 0 0 0 0 0 0 0 0 -1 1 0 0 0 0 0 0 0 0 0 1 0 0 -1 0 0 0 0 1 0 0 0 0 0 0 0 1 0 0 0zm5 -1495l0 1500 -10 0 0 -1500 5 -5 5 5zm0 0l-10 0 0 0 0 0 0 0 0 -1 0 0 0 0 0 0 0 -1 0 0 0 0 0 0 1 -1 0 0 0 0 0 0 0 0 0 -1 1 0 0 0 0 0 0 0 0 0 1 0 0 0 0 -1 0 0 1 0 0 0 0 0 0 0 1 0 0 0 0 0 0 0 1 0 0 0 0 0 0 0 1 0 0 1 0 0 0 0 1 0 0 0 0 0 0 0 0 0 1 1 0 0 0 0 0 0 0 0 0 1 1 0 0 0 0 0 0 1 0 0 0 0 0 0 0 1 0 0 0 0 0 0z" fill-rule="nonzero"/>
        </g>
        <path  fill="black" d="M388 136l5 0 -11 34 -4 0 -12 -34 5 0 7 22c0,1 0,2 1,4 0,1 0,2 1,3 0,-1 0,-2 1,-3 0,-2 0,-3 1,-5l6 -21zm19 34l-12 0 0 -2 4 -1 0 -27 -4 -1 0 -3 12 0 0 3 -4 1 0 27 4 1 0 2zm32 0l-6 0 -15 -28 -1 0c0,1 1,2 1,4 0,1 0,2 0,3 0,1 0,2 0,3l0 18 -4 0 0 -34 5 0 16 28 0 0c0,-1 0,-2 0,-4 0,0 0,0 0,-1 0,-1 -1,-1 -1,-2 0,0 0,-1 0,-1 0,-1 0,-1 0,-1l0 -19 5 0 0 34z" fill-rule="nonzero"/>
        <path  fill="black" d="M174 516l-4 0 0 -30 -10 0 0 -4 24 0 0 4 -10 0 0 30zm36 0l-5 0 -8 -15 -8 15 -5 0 11 -18 -10 -16 5 0 7 13 8 -13 4 0 -9 16 10 18z" fill-rule="nonzero"/>
        <path  fill="black" d="M169 602l0 14 -5 0 0 -34 9 0c4,0 7,1 9,3 2,1 3,4 3,7 0,1 -1,2 -1,3 0,1 -1,2 -1,3 -1,1 -2,1 -3,2 0,0 -1,1 -2,1l9 15 -5 0 -8 -14 -5 0zm0 -3l3 0c2,0 3,-1 4,-1 1,0 2,-1 2,-1 1,-1 1,-1 2,-2 0,-1 0,-2 0,-3 0,-1 0,-2 0,-3 -1,0 -1,-1 -2,-1 0,-1 -1,-1 -2,-2 -1,0 -2,0 -4,0l-3 0 0 13zm44 17l-4 0 -9 -15 -8 15 -4 0 10 -18 -10 -16 5 0 8 13 7 -13 5 0 -10 16 10 18z" fill-rule="nonzero"/>
        <path  fill="black" d="M585 144c0,1 0,2 0,3 -1,1 -1,2 -2,3 0,0 -1,1 -2,1 -1,1 -2,1 -3,1l0 0c3,1 5,2 6,3 2,1 2,3 2,5 0,2 0,3 0,4 -1,2 -2,3 -3,4 -1,0 -2,1 -3,2 -2,0 -4,0 -6,0 -2,0 -3,0 -5,0 -1,0 -3,-1 -4,-1l0 -4c2,0 3,1 5,1 1,1 3,1 4,1 1,0 3,0 4,-1 1,0 2,0 2,-1 1,-1 1,-1 2,-2 0,-1 0,-2 0,-3 0,-1 0,-2 0,-2 -1,-1 -1,-2 -2,-2 -1,-1 -2,-1 -3,-1 -1,-1 -2,-1 -4,-1l-3 0 0 -3 3 0c2,0 3,0 4,-1 1,0 1,0 2,-1 1,-1 1,-1 2,-2 0,-1 0,-2 0,-3 0,0 0,-1 0,-2 -1,0 -1,-1 -1,-1 -1,-1 -2,-1 -2,-1 -1,-1 -2,-1 -3,-1 -1,0 -3,1 -4,1 -1,1 -2,1 -4,2l-2 -3c1,0 2,-1 2,-1 1,0 2,-1 3,-1 0,0 1,-1 2,-1 1,0 2,0 3,0 2,0 3,0 5,0 1,1 2,1 3,2 1,1 1,2 2,3 0,1 0,2 0,3zm26 -8l5 0 -11 34 -5 0 -11 -34 5 0 7 22c0,1 0,2 1,4 0,1 0,2 1,3 0,-1 0,-2 0,-3 1,-2 1,-3 2,-5l6 -21zm27 8c0,1 0,2 -1,3 0,1 0,2 -1,3 -1,0 -1,1 -2,1 -1,1 -2,1 -3,1l0 0c2,1 4,2 6,3 1,1 2,3 2,5 0,2 0,3 -1,4 0,2 -1,3 -2,4 -1,0 -2,1 -4,2 -1,0 -3,0 -5,0 -2,0 -4,0 -5,0 -2,0 -3,-1 -4,-1l0 -4c1,0 3,1 4,1 2,1 3,1 5,1 1,0 2,0 3,-1 1,0 2,0 3,-1 0,-1 1,-1 1,-2 1,-1 1,-2 1,-3 0,-1 0,-2 -1,-2 0,-1 -1,-2 -2,-2 0,-1 -1,-1 -2,-1 -1,-1 -3,-1 -4,-1l-3 0 0 -3 3 0c1,0 2,0 3,-1 1,0 2,0 3,-1 0,-1 1,-1 1,-2 1,-1 1,-2 1,-3 0,0 0,-1 -1,-2 0,0 0,-1 -1,-1 0,-1 -1,-1 -2,-1 0,-1 -1,-1 -2,-1 -2,0 -3,1 -4,1 -2,1 -3,1 -4,2l-2 -3c1,0 1,-1 2,-1 1,0 1,-1 2,-1 1,0 2,-1 3,-1 1,0 2,0 3,0 2,0 3,0 4,0 2,1 3,1 3,2 1,1 2,2 2,3 1,1 1,2 1,3z" fill-rule="nonzero"/>
        <path  fill="black" d="M169 303l0 14 -5 0 0 -34 9 0c4,0 7,1 9,3 2,1 3,4 3,7 0,1 -1,2 -1,3 0,1 -1,2 -1,3 -1,1 -2,1 -3,2 0,0 -1,0 -2,1l9 15 -5 0 -8 -14 -5 0zm0 -4l3 0c2,0 3,0 4,0 1,0 2,-1 2,-1 1,-1 1,-2 2,-2 0,-1 0,-2 0,-3 0,-1 0,-2 0,-3 -1,-1 -1,-1 -2,-2 0,0 -1,-1 -2,-1 -1,0 -2,0 -4,0l-3 0 0 12zm41 9c0,1 0,3 -1,4 0,1 -1,2 -2,3 -1,1 -2,1 -4,2 -1,0 -3,0 -4,0 -2,0 -4,0 -5,0 -2,0 -3,-1 -4,-1l0 -4c1,0 1,0 2,0 0,1 1,1 2,1 1,0 1,0 2,0 1,1 2,1 2,1 3,0 5,-1 6,-2 1,-1 2,-2 2,-4 0,-1 0,-1 -1,-2 0,-1 0,-1 -1,-2 0,0 -1,-1 -2,-1 -1,-1 -2,-1 -4,-2 -1,0 -2,-1 -3,-1 -1,-1 -2,-2 -3,-3 0,0 -1,-1 -1,-2 0,-1 -1,-2 -1,-4 0,-1 1,-2 1,-3 1,-1 1,-2 2,-3 1,-1 2,-1 3,-2 2,0 3,0 5,0 1,0 3,0 4,0 2,1 3,1 4,2l-1 3c-1,0 -2,-1 -4,-1 -1,0 -2,0 -3,0 -2,0 -4,0 -5,1 -1,1 -1,2 -1,3 0,1 0,2 0,3 0,0 1,1 1,1 1,1 1,1 2,2 1,0 2,1 4,1 1,1 2,1 3,2 1,0 2,1 3,2 1,1 1,1 1,2 1,1 1,3 1,4zm16 9l-4 0 0 -30 -9 0 0 -4 23 0 0 4 -10 0 0 30z" fill-rule="nonzero"/>
        <path  fill="black" d="M468 1544l11 0 0 16c-1,0 -2,1 -3,1 0,0 -1,0 -2,0 -1,1 -2,1 -3,1 -1,0 -2,0 -3,0 -3,0 -5,-1 -7,-1 -1,-1 -3,-2 -4,-4 -2,-1 -3,-3 -3,-5 -1,-2 -1,-5 -1,-7 0,-3 0,-5 1,-8 1,-2 2,-4 3,-5 1,-1 3,-3 5,-3 2,-1 5,-2 7,-2 2,0 4,1 5,1 2,0 3,1 4,1l-1 4c-1,0 -1,0 -2,-1 -1,0 -1,0 -2,0 -1,0 -1,-1 -2,-1 -1,0 -1,0 -2,0 -2,0 -4,0 -5,1 -2,1 -3,2 -4,3 -1,1 -1,2 -2,4 0,2 -1,4 -1,6 0,2 1,3 1,5 0,2 1,3 2,4 1,2 2,2 4,3 1,1 3,1 5,1 0,0 1,0 2,0 0,0 1,0 1,0 1,0 1,0 2,0 0,0 0,0 1,-1l0 -10 -7 0 0 -3zm44 17l-5 0 -16 -27 0 0c0,1 0,2 0,3 0,1 0,2 0,3 0,1 0,2 0,3l0 18 -4 0 0 -33 5 0 16 27 0 0c0,-1 0,-2 0,-3 0,0 0,-1 0,-1 0,-1 0,-2 0,-2 0,-1 0,-1 0,-1 0,-1 0,-1 0,-2l0 -18 4 0 0 33zm34 -17c0,3 0,6 -1,8 -1,2 -2,4 -3,5 -2,2 -3,3 -5,3 -2,1 -5,1 -7,1l-9 0 0 -33 10 0c2,0 4,0 6,1 2,1 3,2 5,3 1,1 2,3 3,5 1,2 1,5 1,7zm-5 0c0,-2 0,-4 0,-5 -1,-2 -2,-3 -3,-4 0,-1 -2,-2 -3,-3 -1,0 -3,-1 -5,-1l-4 0 0 27 3 0c4,0 7,-1 9,-4 2,-2 3,-5 3,-10z" fill-rule="nonzero"/>
        <path  fill="black" d="M1005 700c0,3 -1,6 -1,8 -1,2 -2,4 -4,5 -1,2 -3,3 -5,3 -2,1 -4,1 -7,1l-8 0 0 -33 9 0c3,0 5,0 7,1 2,1 3,2 5,3 1,1 2,3 3,5 0,2 1,5 1,7zm-5 0c0,-2 0,-4 -1,-5 0,-2 -1,-3 -2,-4 -1,-1 -2,-2 -3,-3 -2,0 -3,0 -5,0l-5 0 0 26 4 0c4,0 7,-1 9,-4 2,-2 3,-5 3,-10zm14 17l13 -29 -17 0 0 -4 21 0 0 3 -12 30 -5 0z" fill-rule="nonzero"/>
        <path  fill="black" d="M1005 800c0,3 -1,6 -1,8 -1,2 -2,4 -4,5 -1,2 -3,3 -5,3 -2,1 -4,1 -7,1l-8 0 0 -33 9 0c3,0 5,0 7,1 2,1 3,2 4,3 2,1 3,3 4,5 0,2 1,5 1,7zm-5 0c0,-2 0,-4 -1,-5 0,-2 -1,-3 -2,-4 -1,-1 -2,-2 -3,-3 -2,0 -3,-1 -5,-1l-5 0 0 27 4 0c4,0 7,-1 9,-4 2,-2 3,-5 3,-10zm10 3c0,-2 0,-3 0,-5 1,-1 1,-3 1,-4 1,-2 1,-3 2,-4 1,-2 1,-3 3,-4 1,-1 2,-1 3,-2 2,0 4,-1 6,-1 0,0 0,0 1,0 0,0 0,0 1,0 0,1 1,1 1,1 0,0 0,0 1,0l0 3c-1,0 -1,0 -2,0 -1,0 -1,0 -2,0 -1,0 -3,0 -4,0 -1,1 -2,1 -2,2 -1,0 -2,1 -2,2 -1,1 -1,2 -2,3 0,1 0,2 0,3 0,1 0,2 -1,3l1 0c0,0 0,-1 1,-1 0,-1 1,-1 1,-1 1,-1 2,-1 2,-1 1,0 2,-1 3,-1 1,0 3,1 4,1 1,1 2,1 3,2 1,1 1,2 2,3 0,2 0,3 0,5 0,1 0,3 0,4 -1,2 -2,3 -2,4 -1,1 -2,2 -4,2 -1,1 -2,1 -4,1 -1,0 -3,0 -4,-1 -2,-1 -3,-2 -4,-3 -1,-1 -1,-2 -2,-4 -1,-2 -1,-4 -1,-7zm11 11c1,0 2,0 3,0 0,0 1,-1 2,-2 0,0 0,-1 1,-2 0,-1 0,-2 0,-3 0,-1 0,-2 0,-3 0,-1 -1,-2 -1,-2 -1,-1 -1,-2 -2,-2 -1,0 -2,0 -3,0 -1,0 -2,0 -3,0 0,1 -1,1 -2,2 0,0 -1,1 -1,2 0,0 -1,1 -1,2 0,1 1,2 1,3 0,1 0,2 1,3 1,0 1,1 2,2 1,0 2,0 3,0z" fill-rule="nonzero"/>
        <path  fill="black" d="M1005 900c0,3 0,6 -1,8 -1,2 -2,4 -3,5 -2,2 -3,3 -5,3 -2,1 -5,1 -7,1l-9 0 0 -33 10 0c2,0 4,0 6,1 2,1 4,2 5,3 1,1 2,3 3,5 1,2 1,5 1,7zm-4 0c0,-2 -1,-4 -1,-5 -1,-2 -1,-3 -2,-4 -1,-1 -3,-2 -4,-3 -1,0 -3,-1 -5,-1l-4 0 0 27 3 0c4,0 7,-1 10,-4 2,-2 3,-5 3,-10zm19 -3c2,0 3,0 5,0 1,1 2,2 3,2 1,1 2,2 2,3 1,2 1,3 1,5 0,1 0,3 -1,4 0,2 -1,3 -2,4 -1,1 -2,2 -4,2 -1,1 -3,1 -5,1 -1,0 -1,0 -2,0 -1,0 -2,0 -2,-1 -1,0 -2,0 -2,0 -1,0 -2,-1 -2,-1l0 -4c1,0 1,1 2,1 0,0 1,1 2,1 1,0 1,0 2,0 1,0 2,0 2,0 2,0 3,0 4,0 1,0 1,-1 2,-1 1,-1 1,-2 1,-3 1,-1 1,-2 1,-3 0,-2 -1,-4 -2,-5 -1,-1 -3,-2 -6,-2 0,0 -1,0 -1,0 -1,0 -1,1 -2,1 0,0 -1,0 -1,0 -1,0 -1,0 -1,0l-2 -1 1 -16 16 0 0 4 -12 0 -1 9c0,0 1,0 2,0 0,0 1,0 2,0z" fill-rule="nonzero"/>
        <path  fill="black" d="M1003 1000c0,3 0,6 -1,8 0,2 -1,4 -3,5 -1,2 -3,3 -5,3 -2,1 -4,1 -7,1l-8 0 0 -33 9 0c2,0 5,0 6,1 2,1 4,2 5,3 2,1 3,3 3,5 1,2 1,5 1,7zm-4 0c0,-2 0,-4 -1,-5 0,-2 -1,-3 -2,-4 -1,-1 -2,-2 -4,-3 -1,0 -3,-1 -4,-1l-5 0 0 27 4 0c4,0 7,-1 9,-4 2,-2 3,-5 3,-10zm32 10l-5 0 0 7 -4 0 0 -7 -15 0 0 -4 15 -22 4 0 0 22 5 0 0 4zm-9 -4l0 -8c0,-1 0,-2 0,-3 0,-1 0,-2 0,-3 0,0 1,-1 1,-2 0,-1 0,-2 0,-2l-1 0c0,0 0,1 0,1 0,0 0,1 0,1 -1,0 -1,1 -1,1 0,1 0,1 -1,1l-9 14 11 0z" fill-rule="nonzero"/>
        <path  fill="black" d="M1005 1100c0,3 0,6 -1,8 -1,2 -2,4 -3,5 -1,2 -3,3 -5,3 -2,1 -4,1 -7,1l-8 0 0 -33 9 0c2,0 4,0 6,1 2,1 4,2 5,3 1,1 2,3 3,5 1,2 1,5 1,7zm-4 0c0,-2 0,-4 -1,-5 0,-2 -1,-3 -2,-4 -1,-1 -2,-2 -4,-3 -1,0 -3,-1 -5,-1l-4 0 0 27 4 0c4,0 7,-1 9,-4 2,-2 3,-5 3,-10zm29 -8c0,1 0,2 0,3 -1,1 -1,1 -2,2 0,1 -1,1 -2,2 -1,0 -2,1 -3,1l0 0c3,0 5,1 6,2 2,2 2,4 2,6 0,1 0,3 0,4 -1,1 -2,2 -3,3 -1,1 -2,2 -4,2 -1,1 -3,1 -5,1 -2,0 -3,0 -5,0 -1,-1 -3,-1 -4,-2l0 -4c1,1 3,1 4,2 2,0 3,0 5,0 1,0 2,0 4,0 1,0 1,-1 2,-1 1,-1 1,-2 2,-2 0,-1 0,-2 0,-3 0,-1 0,-2 -1,-3 0,-1 -1,-1 -1,-2 -1,0 -2,-1 -3,-1 -1,0 -2,0 -4,0l-3 0 0 -4 3 0c1,0 3,0 4,0 1,0 1,-1 2,-1 1,-1 1,-2 1,-2 1,-1 1,-2 1,-3 0,-1 0,-2 0,-2 -1,-1 -1,-1 -2,-2 0,0 -1,0 -1,-1 -1,0 -2,0 -3,0 -1,0 -3,0 -4,1 -1,0 -3,1 -4,2l-2 -3c1,-1 1,-1 2,-2 1,0 2,0 2,-1 1,0 2,0 3,0 1,-1 2,-1 3,-1 2,0 3,1 5,1 1,0 2,1 3,2 1,0 1,1 2,2 0,1 0,3 0,4z" fill-rule="nonzero"/>
        <path  fill="black" d="M1005 1200c0,3 0,6 -1,8 -1,2 -2,4 -3,5 -1,2 -3,3 -5,3 -2,1 -5,1 -7,1l-8 0 0 -33 9 0c2,0 4,0 6,1 2,1 4,2 5,3 1,1 2,3 3,5 1,2 1,5 1,7zm-4 0c0,-2 -1,-4 -1,-5 -1,-2 -1,-3 -2,-4 -1,-1 -2,-2 -4,-3 -1,0 -3,-1 -5,-1l-4 0 0 27 4 0c4,0 7,-1 9,-4 2,-2 3,-5 3,-10zm30 17l-21 0 0 -3 8 -9c2,-1 3,-2 3,-3 1,-1 2,-2 3,-3 0,-1 1,-2 1,-3 1,-1 1,-2 1,-3 0,-1 0,-2 -1,-3 0,-1 0,-1 -1,-2 0,0 -1,0 -2,-1 0,0 -1,0 -2,0 -1,0 -2,0 -4,1 -1,0 -2,1 -3,2l-2 -3c0,0 1,-1 2,-1 0,-1 1,-1 2,-1 1,-1 2,-1 2,-1 1,-1 2,-1 3,-1 2,0 3,1 4,1 2,0 3,1 3,2 1,1 2,1 2,3 1,1 1,2 1,3 0,2 0,3 -1,4 0,1 -1,2 -1,4 -1,1 -2,2 -3,3 -1,1 -2,2 -3,4l-7 6 0 1 16 0 0 3z" fill-rule="nonzero"/>
        <path  fill="black" d="M667 1543l11 0 0 17c0,0 -1,0 -2,0 -1,1 -2,1 -3,1 -1,0 -2,0 -3,0 -1,0 -2,0 -3,0 -2,0 -4,0 -6,-1 -2,-1 -4,-2 -5,-3 -1,-2 -2,-3 -3,-6 -1,-2 -1,-4 -1,-7 0,-2 1,-5 1,-7 1,-2 2,-4 3,-5 2,-2 4,-3 6,-4 2,-1 4,-1 7,-1 1,0 3,0 4,0 2,1 3,1 5,2l-2 4c0,-1 -1,-1 -2,-1 0,0 -1,-1 -2,-1 0,0 -1,0 -2,0 0,0 -1,0 -2,0 -2,0 -3,0 -5,1 -1,0 -2,1 -3,2 -1,1 -2,3 -3,5 0,1 0,3 0,5 0,2 0,4 0,6 1,1 1,3 2,4 1,1 2,2 4,3 1,0 3,1 5,1 1,0 1,0 2,0 1,0 1,0 2,-1 0,0 0,0 1,0 0,0 1,0 1,0l0 -10 -7 0 0 -4zm44 18l-5 0 -16 -28 0 0c0,1 0,3 0,4 0,1 0,2 1,3 0,1 0,2 0,3l0 18 -5 0 0 -34 6 0 15 28 1 0c-1,-1 -1,-2 -1,-3 0,-1 0,-1 0,-2 0,0 0,-1 0,-1 0,-1 0,-1 0,-2 0,0 0,-1 0,-1l0 -19 4 0 0 34zm34 -17c0,3 0,5 -1,7 -1,2 -2,4 -3,6 -1,1 -3,2 -5,3 -2,1 -4,1 -7,1l-8 0 0 -34 9 0c2,0 4,1 6,1 2,1 4,2 5,4 1,1 3,3 3,5 1,2 1,4 1,7zm-4 0c0,-2 0,-4 -1,-6 0,-1 -1,-3 -2,-4 -1,-1 -2,-2 -4,-2 -1,-1 -3,-1 -5,-1l-4 0 0 26 4 0c4,0 7,-1 9,-3 2,-2 3,-6 3,-10z" fill-rule="nonzero"/>
        <path  fill="black" d="M507 327c0,2 -1,5 -1,7 -1,2 -2,4 -4,6 -2,2 -4,3 -7,4 -3,1 -6,2 -10,2l-6 0 0 23 -8 0 0 -59 15 0c4,0 7,0 9,1 3,0 5,2 7,3 2,2 3,3 4,6 0,2 1,4 1,7zm-28 12l5 0c2,0 5,0 6,0 2,-1 4,-1 5,-2 1,-1 2,-3 3,-4 1,-2 1,-3 1,-6 0,-4 -1,-6 -3,-8 -3,-2 -6,-3 -11,-3l-6 0 0 23zm67 30l0 -29c0,-3 -1,-6 -2,-8 -1,-1 -4,-2 -7,-2 -2,0 -4,0 -5,1 -2,0 -3,1 -4,3 -1,1 -1,3 -2,5 0,2 0,4 0,7l0 23 -8 0 0 -63 8 0 0 19 -1 5 1 0c0,-1 1,-2 2,-3 1,-1 2,-1 3,-2 1,0 2,-1 4,-1 1,0 2,0 4,0 5,0 8,1 11,3 2,3 4,7 4,13l0 29 -8 0zm58 -22c0,3 -1,7 -2,10 -1,2 -2,5 -4,7 -1,2 -3,3 -6,4 -2,1 -5,2 -8,2 -3,0 -5,-1 -8,-2 -2,-1 -4,-2 -6,-4 -1,-2 -3,-5 -4,-7 -1,-3 -1,-7 -1,-10 0,-4 0,-7 1,-10 1,-3 2,-5 4,-7 2,-2 4,-4 6,-5 3,-1 5,-1 8,-1 3,0 6,0 8,1 2,1 4,3 6,5 2,2 3,4 4,7 1,3 2,6 2,10zm-32 0c0,5 1,10 3,12 2,3 5,5 9,5 4,0 7,-2 9,-5 2,-2 3,-7 3,-12 0,-6 -1,-10 -3,-13 -2,-3 -5,-4 -9,-4 -4,0 -7,1 -9,4 -2,3 -3,7 -3,13zm57 17c0,0 1,0 2,0 0,0 1,0 1,-1 1,0 1,0 2,0 0,0 1,0 1,0l0 6c0,0 -1,0 -1,0 -1,0 -2,0 -2,0 -1,1 -2,1 -2,1 -1,0 -2,0 -2,0 -2,0 -4,0 -5,-1 -1,0 -3,-1 -4,-2 -1,-1 -2,-3 -2,-4 -1,-2 -1,-4 -1,-7l0 -26 -6 0 0 -3 6 -4 3 -9 4 0 0 10 12 0 0 6 -12 0 0 26c0,2 1,4 2,6 0,1 2,2 4,2zm51 -17c0,3 0,7 -1,10 -1,2 -3,5 -4,7 -2,2 -4,3 -6,4 -3,1 -6,2 -9,2 -2,0 -5,-1 -7,-2 -3,-1 -5,-2 -6,-4 -2,-2 -4,-5 -4,-7 -1,-3 -2,-7 -2,-10 0,-4 1,-7 1,-10 1,-3 3,-5 4,-7 2,-2 4,-4 7,-5 2,-1 5,-1 8,-1 2,0 5,0 7,1 3,1 5,3 7,5 1,2 3,4 4,7 1,3 1,6 1,10zm-31 0c0,5 1,10 3,12 1,3 4,5 9,5 4,0 7,-2 9,-5 1,-2 2,-7 2,-12 0,-6 -1,-10 -2,-13 -2,-3 -5,-4 -9,-4 -5,0 -8,1 -10,4 -1,3 -2,7 -2,13zm71 22l0 -29c0,-3 -1,-6 -3,-8 -1,-1 -3,-2 -6,-2 -2,0 -4,0 -6,1 -1,0 -2,1 -3,3 -1,1 -2,3 -2,5 -1,2 -1,4 -1,7l0 23 -7 0 0 -45 6 0 1 6 0 0c1,-1 2,-2 3,-3 1,-1 2,-1 3,-2 1,0 2,-1 3,-1 1,0 3,0 4,0 5,0 9,1 11,3 3,3 4,7 4,13l0 29 -7 0z" fill-rule="nonzero"/>
        <path  fill="black" d="M766 136l5 0 -11 34 -5 0 -11 -34 4 0 7 22c1,1 1,3 1,4 1,1 1,3 1,4 1,-1 1,-3 1,-4 1,-1 1,-3 2,-4l6 -22zm10 0l9 0c2,0 4,0 6,0 1,1 3,1 4,2 1,0 1,1 2,2 0,2 1,3 1,5 0,1 0,2 -1,2 0,1 -1,2 -1,3 -1,0 -1,1 -2,1 -1,1 -2,1 -3,1l0 0c1,1 2,1 3,1 1,1 2,1 2,2 1,0 2,1 2,2 0,1 1,2 1,3 0,2 -1,3 -1,5 -1,1 -1,2 -2,3 -1,1 -3,1 -4,2 -1,0 -3,0 -5,0l-11 0 0 -34zm4 15l6 0c1,0 3,-1 3,-1 1,0 2,0 3,-1 0,0 1,-1 1,-2 0,0 0,-1 0,-2 0,-2 0,-3 -2,-4 -1,-1 -3,-1 -5,-1l-6 0 0 11zm0 3l0 13 7 0c1,0 2,0 3,-1 1,0 2,-1 2,-1 1,-1 1,-1 2,-2 0,-1 0,-2 0,-3 0,-1 0,-1 0,-2 -1,-1 -1,-2 -2,-2 0,-1 -1,-1 -2,-1 -1,-1 -2,-1 -4,-1l-6 0zm46 16l-3 -10 -13 0 -4 10 -5 0 13 -34 4 0 13 34 -5 0zm-5 -14l-3 -10c0,-1 -1,-1 -1,-1 0,-1 0,-1 0,-2 0,0 0,-1 -1,-1 0,-1 0,-1 0,-2 0,1 0,1 0,2 0,0 -1,1 -1,1 0,1 0,1 0,2 0,0 0,0 0,1l-4 10 10 0zm22 14l-5 0 0 -30 -10 0 0 -4 25 0 0 4 -10 0 0 30z" fill-rule="nonzero"/>
        <path  fill="black" d="M179 682l5 0 5 21c0,1 1,1 1,2 0,1 0,2 0,3 1,1 1,2 1,2 0,1 0,2 0,2 0,0 0,-1 1,-2 0,0 0,-1 0,-2 0,-1 0,-1 0,-2 0,-1 1,-2 1,-3l5 -21 4 0 -8 35 -5 0 -6 -22c0,-1 0,-2 -1,-3 0,-1 0,-1 0,-2 0,-1 -1,-2 -1,-3 0,1 0,2 0,3 0,1 -1,1 -1,2 0,1 0,2 0,3l-6 22 -5 0 -9 -35 5 0 5 21c0,1 1,2 1,3 0,1 0,1 0,2 0,1 0,2 1,2 0,1 0,2 0,2 0,0 0,-1 0,-2 0,0 0,-1 1,-2 0,-1 0,-2 0,-3 0,-1 0,-1 1,-2l5 -21zm52 35l-5 0 -11 -16 -3 2 0 14 -5 0 0 -35 5 0 0 18 3 -4 10 -14 5 0 -12 16 13 19zm25 -24c0,1 0,2 0,4 -1,1 -1,2 -2,3 -1,1 -3,2 -4,3 -2,0 -4,1 -6,1l-4 0 0 13 -4 0 0 -35 8 0c2,0 4,1 6,1 1,1 2,1 3,2 1,1 2,2 3,3 0,1 0,3 0,5zm-16 7l3 0c2,0 3,0 4,-1 1,0 2,0 3,-1 0,0 1,-1 1,-2 1,-1 1,-2 1,-3 0,-2 -1,-4 -2,-5 -1,-1 -3,-2 -6,-2l-4 0 0 14z" fill-rule="nonzero"/>
        <path  fill="black" d="M190 917l-4 -11 -13 0 -4 11 -5 0 13 -35 4 0 13 35 -4 0zm-6 -15l-3 -10c0,0 0,0 0,-1 -1,0 -1,0 -1,-1 0,0 0,-1 0,-1 0,-1 -1,-1 -1,-2 0,1 0,1 0,2 0,0 0,1 -1,1 0,1 0,1 0,1 0,1 0,1 0,1l-4 10 10 0zm23 -6c2,0 3,0 4,1 2,0 3,1 4,1 1,1 2,2 2,4 1,1 1,2 1,4 0,2 0,3 -1,5 0,1 -1,3 -2,4 -1,1 -2,1 -4,2 -2,0 -3,1 -5,1 -1,0 -2,0 -3,0 -1,-1 -1,-1 -2,-1 -1,0 -1,0 -2,0 -1,-1 -1,-1 -2,-1l0 -4c1,0 1,0 2,1 1,0 1,0 2,0 1,1 2,1 3,1 0,0 1,0 2,0 1,0 2,0 3,0 1,-1 2,-1 3,-2 0,0 1,-1 1,-2 1,-1 1,-2 1,-3 0,-3 -1,-4 -2,-6 -2,-1 -4,-1 -6,-1 -1,0 -1,0 -2,0 0,0 -1,0 -1,0 -1,0 -1,0 -2,0 0,0 -1,0 -1,0l-2 -1 1 -17 17 0 0 4 -13 0 -1 10c1,0 1,0 2,0 1,0 2,0 3,0z" fill-rule="nonzero"/>
        <path  fill="black" d="M190 799c0,3 0,5 -1,7 -1,2 -2,4 -3,6 -2,1 -4,2 -6,3 -2,1 -4,1 -7,1l-9 0 0 -34 10 0c3,0 5,0 7,1 2,0 3,1 5,3 1,1 2,3 3,5 1,2 1,5 1,8zm-5 0c0,-3 0,-5 0,-6 -1,-2 -2,-3 -3,-4 -1,-2 -2,-2 -3,-3 -2,0 -3,-1 -5,-1l-5 0 0 28 4 0c4,0 7,-2 9,-4 2,-2 3,-6 3,-10zm33 17l-4 -11 -13 0 -4 11 -4 0 12 -35 4 0 13 35 -4 0zm-6 -14l-3 -10c0,-1 0,-1 0,-2 -1,0 -1,0 -1,-1 0,0 0,-1 0,-1 0,-1 -1,-1 -1,-2 0,1 0,1 0,2 0,0 0,1 0,1 -1,1 -1,1 -1,2 0,0 0,0 0,1l-4 10 10 0zm28 -17c-1,0 -3,0 -4,1 -2,1 -3,2 -4,3 -1,1 -1,2 -2,4 0,2 -1,4 -1,6 0,2 1,4 1,6 0,2 1,3 2,4 1,1 2,2 4,3 1,1 3,1 4,1 2,0 3,0 4,-1 2,0 3,0 4,0l0 3c0,1 -1,1 -2,1 0,0 -1,0 -2,0 0,1 -1,1 -2,1 0,0 -1,0 -2,0 -3,0 -5,-1 -7,-2 -2,0 -3,-2 -5,-3 -1,-2 -2,-4 -2,-6 -1,-2 -1,-4 -1,-7 0,-3 0,-5 1,-7 0,-3 1,-4 3,-6 1,-2 3,-3 5,-4 2,0 4,-1 6,-1 2,0 4,0 5,1 2,0 3,0 5,1l-2 4c-1,-1 -2,-1 -4,-1 -1,-1 -2,-1 -4,-1z" fill-rule="nonzero"/>
        <path  fill="black" d="M190 1017l-4 -11 -13 0 -4 11 -5 0 13 -35 4 0 13 35 -4 0zm-6 -15l-3 -10c0,0 0,0 0,-1 -1,0 -1,0 -1,-1 0,0 0,-1 0,-1 0,-1 -1,-1 -1,-2 0,1 0,1 0,2 0,0 0,1 -1,1 0,1 0,1 0,1 0,1 0,1 0,1l-4 10 10 0zm36 7l-5 0 0 8 -4 0 0 -8 -16 0 0 -3 15 -24 5 0 0 23 5 0 0 4zm-9 -4l0 -8c0,-1 0,-2 0,-3 0,-1 0,-2 0,-3 0,-1 0,-1 0,-2 0,-1 0,-2 0,-2l0 0c0,0 -1,0 -1,1 0,0 0,1 0,1 0,0 -1,1 -1,1 0,0 0,1 0,1l-10 14 12 0z" fill-rule="nonzero"/>
        <path  fill="black" d="M190 1117l-4 -11 -13 0 -4 11 -5 0 13 -35 4 0 13 35 -4 0zm-6 -15l-3 -10c0,0 0,0 0,-1 -1,0 -1,0 -1,-1 0,0 0,-1 0,-1 0,-1 -1,-1 -1,-2 0,1 0,1 0,2 0,0 0,1 -1,1 0,1 0,1 0,1 0,1 0,1 0,1l-4 10 10 0zm33 -11c0,1 0,2 -1,3 0,1 -1,2 -1,2 -1,1 -2,2 -3,2 0,0 -2,1 -3,1l0 0c3,0 5,1 7,3 1,1 2,3 2,5 0,2 0,3 -1,4 0,2 -1,3 -2,4 -1,1 -3,1 -4,2 -2,0 -4,1 -6,1 -2,0 -3,0 -5,-1 -1,0 -3,-1 -4,-1l0 -4c1,0 3,1 4,1 2,1 4,1 5,1 2,0 3,0 4,0 1,-1 2,-1 3,-2 0,0 1,-1 1,-2 0,-1 1,-2 1,-3 0,-1 -1,-2 -1,-3 -1,0 -1,-1 -2,-1 -1,-1 -2,-1 -3,-2 -1,0 -2,0 -4,0l-3 0 0 -4 3 0c2,0 3,0 4,0 1,0 2,-1 2,-1 1,-1 2,-2 2,-2 0,-1 0,-2 0,-3 0,-1 0,-2 0,-2 0,-1 -1,-2 -1,-2 -1,0 -1,-1 -2,-1 -1,0 -2,0 -2,0 -2,0 -4,0 -5,0 -1,1 -2,2 -4,3l-2 -3c1,-1 1,-1 2,-2 1,0 2,-1 3,-1 0,0 1,-1 2,-1 1,0 2,0 3,0 2,0 4,0 5,1 1,0 2,1 3,1 1,1 2,2 2,3 1,1 1,2 1,4z" fill-rule="nonzero"/>
        <path  fill="black" d="M190 1217l-4 -11 -13 0 -4 11 -5 0 13 -35 4 0 13 35 -4 0zm-6 -15l-3 -10c0,0 0,0 0,-1 -1,0 -1,0 -1,-1 0,0 0,-1 0,-1 0,-1 -1,-1 -1,-2 0,1 0,1 0,2 0,0 0,1 -1,1 0,1 0,1 0,1 0,1 0,1 0,1l-4 10 10 0zm34 15l-22 0 0 -4 9 -9c1,-1 2,-2 3,-3 1,-1 2,-2 2,-3 1,-1 1,-2 2,-3 0,-1 0,-2 0,-4 0,-1 0,-1 0,-2 0,-1 -1,-1 -1,-2 -1,0 -1,-1 -2,-1 -1,0 -2,0 -2,0 -2,0 -3,0 -4,1 -2,0 -3,1 -4,2l-2 -3c0,-1 1,-1 2,-2 0,0 1,0 2,-1 1,0 2,0 3,-1 1,0 2,0 3,0 1,0 3,0 4,1 1,0 2,1 3,1 1,1 1,2 2,3 0,2 1,3 1,4 0,2 -1,3 -1,4 0,1 -1,3 -2,4 0,1 -1,2 -2,3 -1,1 -3,3 -4,4l-6 7 0 0 16 0 0 4z" fill-rule="nonzero"/>
        <path  fill="black" d="M190 1317l-4 -11 -13 0 -4 11 -5 0 13 -35 4 0 13 35 -4 0zm-6 -15l-3 -10c0,0 0,0 0,-1 -1,0 -1,0 -1,-1 0,0 0,-1 0,-1 0,-1 -1,-1 -1,-2 0,1 0,1 0,2 0,0 0,1 -1,1 0,1 0,1 0,1 0,1 0,1 0,1l-4 10 10 0zm27 15l-4 0 0 -22c0,0 0,-1 0,-2 0,0 0,-1 0,-2 0,-1 0,-2 0,-2 0,-1 0,-2 0,-2 0,0 -1,0 -1,1 0,0 0,0 0,0 -1,0 -1,1 -1,1 0,0 -1,0 -1,1l-3 2 -3 -2 9 -8 4 0 0 35z" fill-rule="nonzero"/>
        <path  fill="black" d="M190 1417l-4 -11 -13 0 -4 11 -5 0 13 -35 4 0 13 35 -4 0zm-6 -15l-3 -10c0,0 0,0 0,-1 -1,0 -1,0 -1,-1 0,0 0,-1 0,-1 0,-1 -1,-1 -1,-2 0,1 0,1 0,2 0,0 0,1 -1,1 0,1 0,1 0,1 0,1 0,1 0,1l-4 10 10 0zm35 -2c0,3 -1,5 -1,7 0,3 -1,4 -2,6 -1,1 -2,3 -3,3 -2,1 -4,2 -6,2 -1,0 -3,-1 -4,-2 -2,0 -3,-2 -4,-3 -1,-2 -1,-3 -2,-6 0,-2 -1,-4 -1,-7 0,-3 1,-6 1,-8 0,-2 1,-4 2,-5 1,-2 2,-3 3,-4 2,-1 3,-1 5,-1 2,0 4,0 5,1 2,1 3,2 4,4 1,1 1,3 2,5 0,2 1,5 1,8zm-18 0c0,2 0,4 0,6 0,2 1,3 1,4 1,2 1,3 2,3 1,1 2,1 3,1 2,0 3,0 4,-1 0,0 1,-1 2,-3 0,-1 1,-2 1,-4 0,-2 0,-4 0,-6 0,-3 0,-5 0,-6 0,-2 -1,-4 -1,-5 -1,-1 -2,-2 -2,-3 -1,0 -2,0 -4,0 -1,0 -2,0 -3,0 -1,1 -1,2 -2,3 0,1 -1,3 -1,5 0,1 0,3 0,6z" fill-rule="nonzero"/>
        <path  fill="black" d="M1003 1400c0,3 0,5 -1,7 -1,3 -2,4 -3,6 -2,1 -3,3 -5,3 -3,1 -5,1 -8,1l-8 0 0 -34 9 0c3,0 5,0 7,1 2,0 4,2 5,3 1,1 2,3 3,5 1,2 1,5 1,8zm-4 0c0,-2 -1,-4 -1,-6 -1,-2 -1,-3 -2,-4 -1,-1 -3,-2 -4,-3 -2,0 -3,-1 -5,-1l-5 0 0 28 4 0c4,0 7,-2 9,-4 3,-2 4,-6 4,-10zm32 0c0,3 0,5 -1,8 0,2 -1,4 -2,5 -1,2 -2,3 -3,4 -2,0 -3,1 -5,1 -2,0 -4,-1 -5,-1 -2,-1 -3,-2 -4,-4 -1,-1 -1,-3 -2,-5 0,-3 0,-5 0,-8 0,-3 0,-5 0,-8 1,-2 1,-4 2,-5 1,-2 2,-3 4,-4 1,0 3,-1 5,-1 1,0 3,1 5,1 1,1 2,2 3,4 1,1 2,3 2,5 1,3 1,5 1,8zm-18 0c0,2 0,4 0,6 1,2 1,3 1,5 1,1 2,2 2,2 1,1 2,1 4,1 1,0 2,0 3,-1 1,0 1,-1 2,-2 0,-1 1,-3 1,-5 0,-2 0,-4 0,-6 0,-2 0,-4 0,-6 0,-2 -1,-3 -1,-5 -1,-1 -1,-2 -2,-2 -1,-1 -2,-1 -3,-1 -2,0 -3,0 -4,1 0,0 -1,1 -2,2 0,2 0,3 -1,5 0,2 0,4 0,6z" fill-rule="nonzero"/>
        <path  fill="black" d="M1006 1300c0,3 0,5 -1,8 -1,2 -2,4 -3,5 -1,2 -3,3 -5,3 -2,1 -5,2 -7,2l-9 0 0 -35 9 0c3,0 5,0 7,1 2,1 4,2 5,3 1,2 3,3 3,5 1,3 1,5 1,8zm-4 0c0,-2 -1,-4 -1,-6 -1,-2 -1,-3 -2,-4 -1,-1 -3,-2 -4,-3 -1,0 -3,0 -5,0l-5 0 0 27 4 0c4,0 7,-1 10,-4 2,-2 3,-5 3,-10zm24 18l-4 0 0 -22c0,-1 0,-2 0,-2 0,-1 0,-2 0,-3 0,0 0,-1 0,-2 0,-1 0,-1 0,-2 0,1 0,1 0,1 -1,0 -1,0 -1,1 0,0 -1,0 -1,0 0,0 0,1 -1,1l-3 3 -2 -3 9 -7 3 0 0 35z" fill-rule="nonzero"/>
        <g >
            <path  fill="black" id="connector52pin" gorn="0.1.27.0" d="M394 100l12 0 0 1 0 0 -1 0 0 1 0 0 0 0 0 0 0 1 0 0 0 0 0 0 0 1 -1 0 0 0 0 0 0 0 0 1 -1 0 0 0 0 0 0 0 0 0 -1 0 0 1 0 0 0 0 -1 0 0 0 0 0 -1 0 0 0 0 0 0 0 -1 0 0 0 0 0 -1 0 0 0 0 0 0 0 -1 -1 0 0 0 0 0 0 0 0 -1 0 0 0 0 -1 0 0 0 0 -1 0 0 0 0 -1 0 0 0 0 0 0 0 -1 0 0 -1 0 0 0 0 -1 0 0 0 0 0 -1zm12 -100l0 100 -12 0 0 -100 12 0zm0 0l-12 0 0 0 0 0 0 0 0 -1 0 0 1 0 0 -1 0 0 0 0 0 0 0 -1 0 0 0 0 1 0 0 0 0 -1 0 0 0 0 1 0 0 0 0 0 0 -1 0 0 1 0 0 0 0 0 0 0 1 0 0 0 0 0 1 0 0 0 0 0 0 0 1 0 0 0 0 0 1 0 0 0 0 0 0 0 1 0 0 1 0 0 0 0 0 0 1 0 0 0 0 1 0 0 0 0 1 0 0 0 0 1 0 0 0 0 0 0 0 1 0 0 0 0 0 1 1 0 0 0 0 0z" fill-rule="nonzero"/>
            <rect x="399.988"  fill="none" y="-5.111" stroke-width="0" stroke="none" id="connector52terminal" gorn="0.1.27.1" width="0.024" height="0.222"/>
        </g>
        <g >
            <path  fill="black" id="connector50pin" gorn="0.1.28.0" d="M0 495l0 11 0 0 -1 0 0 0 0 0 0 0 -1 0 0 0 0 0 0 -1 -1 0 0 0 0 0 0 0 -1 0 0 0 0 -1 0 0 0 0 -1 0 0 0 0 -1 0 0 0 0 0 0 0 -1 0 0 0 0 -1 0 0 -1 0 0 0 0 0 -1 0 0 0 0 0 0 0 -1 1 0 0 0 0 -1 0 0 0 0 0 0 0 -1 0 0 0 0 1 0 0 0 0 -1 0 0 0 0 1 0 0 0 0 0 0 -1 1 0 0 0 0 0 0 0 1 0 0 0 0 0 0 0 1 0 0 0zm100 11l-100 0 0 -11 100 0 0 11zm0 0l0 -11 0 0 1 0 0 0 0 0 0 0 1 0 0 0 0 0 0 0 1 0 0 1 0 0 0 0 1 0 0 0 0 0 0 1 0 0 1 0 0 0 0 0 0 1 0 0 0 0 0 0 0 1 0 0 1 0 0 1 0 0 0 0 0 0 0 1 0 0 0 0 0 1 -1 0 0 0 0 0 0 1 0 0 0 0 0 0 0 1 0 0 -1 0 0 0 0 0 0 1 0 0 -1 0 0 0 0 0 0 0 -1 0 0 1 0 0 0 0 -1 0 0 0 0 0 0 0 -1 0 0 0z" fill-rule="nonzero"/>
            <rect x="-6.112"  fill="none" y="500.489" stroke-width="0" stroke="none" id="connector50terminal" gorn="0.1.28.1" width="0.224" height="0.022"/>
        </g>
        <g >
            <path  fill="black" id="connector49pin" gorn="0.1.29.0" d="M0 595l0 11 0 0 -1 0 0 0 0 0 0 0 -1 0 0 0 0 0 0 -1 -1 0 0 0 0 0 0 0 -1 0 0 0 0 -1 0 0 0 0 -1 0 0 0 0 -1 0 0 0 0 0 0 0 -1 0 0 0 0 -1 0 0 -1 0 0 0 0 0 -1 0 0 0 0 0 0 0 -1 1 0 0 0 0 -1 0 0 0 0 0 0 0 -1 0 0 0 0 1 0 0 0 0 -1 0 0 0 0 1 0 0 0 0 0 0 -1 1 0 0 0 0 0 0 0 1 0 0 0 0 0 0 0 1 0 0 0zm100 11l-100 0 0 -11 100 0 0 11zm0 0l0 -11 0 0 1 0 0 0 0 0 0 0 1 0 0 0 0 0 0 0 1 0 0 1 0 0 0 0 1 0 0 0 0 0 0 1 0 0 1 0 0 0 0 0 0 1 0 0 0 0 0 0 0 1 0 0 1 0 0 1 0 0 0 0 0 0 0 1 0 0 0 0 0 1 -1 0 0 0 0 0 0 1 0 0 0 0 0 0 0 1 0 0 -1 0 0 0 0 0 0 1 0 0 -1 0 0 0 0 0 0 0 -1 0 0 1 0 0 0 0 -1 0 0 0 0 0 0 0 -1 0 0 0z" fill-rule="nonzero"/>
            <rect x="-6.112"  fill="none" y="600.489" stroke-width="0" stroke="none" id="connector49terminal" gorn="0.1.29.1" width="0.224" height="0.022"/>
        </g>
        <g >
            <path  fill="black" id="connector48pin" gorn="0.1.30.0" d="M0 695l0 11 0 0 -1 0 0 0 0 0 0 0 -1 0 0 0 0 0 0 -1 -1 0 0 0 0 0 0 0 -1 0 0 0 0 -1 0 0 0 0 -1 0 0 0 0 -1 0 0 0 0 0 0 0 -1 0 0 0 0 -1 0 0 -1 0 0 0 0 0 -1 0 0 0 0 0 0 0 -1 1 0 0 0 0 -1 0 0 0 0 0 0 0 -1 0 0 0 0 1 0 0 0 0 -1 0 0 0 0 1 0 0 0 0 0 0 -1 1 0 0 0 0 0 0 0 1 0 0 0 0 0 0 0 1 0 0 0zm100 11l-100 0 0 -11 100 0 0 11zm0 0l0 -11 0 0 1 0 0 0 0 0 0 0 1 0 0 0 0 0 0 0 1 0 0 1 0 0 0 0 1 0 0 0 0 0 0 1 0 0 1 0 0 0 0 0 0 1 0 0 0 0 0 0 0 1 0 0 1 0 0 1 0 0 0 0 0 0 0 1 0 0 0 0 0 1 -1 0 0 0 0 0 0 1 0 0 0 0 0 0 0 1 0 0 -1 0 0 0 0 0 0 1 0 0 -1 0 0 0 0 0 0 0 -1 0 0 1 0 0 0 0 -1 0 0 0 0 0 0 0 -1 0 0 0z" fill-rule="nonzero"/>
            <rect x="-6.112"  fill="none" y="700.489" stroke-width="0" stroke="none" id="connector48terminal" gorn="0.1.30.1" width="0.224" height="0.022"/>
        </g>
        <g >
            <path  fill="black" id="connector47pin" gorn="0.1.31.0" d="M0 795l0 11 0 0 -1 0 0 0 0 0 0 0 -1 0 0 0 0 0 0 -1 -1 0 0 0 0 0 0 0 -1 0 0 0 0 -1 0 0 0 0 -1 0 0 0 0 -1 0 0 0 0 0 0 0 -1 0 0 0 0 -1 0 0 -1 0 0 0 0 0 -1 0 0 0 0 0 0 0 -1 1 0 0 0 0 -1 0 0 0 0 0 0 0 -1 0 0 0 0 1 0 0 0 0 -1 0 0 0 0 1 0 0 0 0 0 0 -1 1 0 0 0 0 0 0 0 1 0 0 0 0 0 0 0 1 0 0 0zm100 11l-100 0 0 -11 100 0 0 11zm0 0l0 -11 0 0 1 0 0 0 0 0 0 0 1 0 0 0 0 0 0 0 1 0 0 1 0 0 0 0 1 0 0 0 0 0 0 1 0 0 1 0 0 0 0 0 0 1 0 0 0 0 0 0 0 1 0 0 1 0 0 1 0 0 0 0 0 0 0 1 0 0 0 0 0 1 -1 0 0 0 0 0 0 1 0 0 0 0 0 0 0 1 0 0 -1 0 0 0 0 0 0 1 0 0 -1 0 0 0 0 0 0 0 -1 0 0 1 0 0 0 0 -1 0 0 0 0 0 0 0 -1 0 0 0z" fill-rule="nonzero"/>
            <rect x="-6.112"  fill="none" y="800.489" stroke-width="0" stroke="none" id="connector47terminal" gorn="0.1.31.1" width="0.224" height="0.022"/>
        </g>
        <g >
            <path  fill="black" id="connector46pin" gorn="0.1.32.0" d="M0 895l0 11 0 0 -1 0 0 0 0 0 0 0 -1 0 0 0 0 0 0 -1 -1 0 0 0 0 0 0 0 -1 0 0 0 0 -1 0 0 0 0 -1 0 0 0 0 -1 0 0 0 0 0 0 0 -1 0 0 0 0 -1 0 0 -1 0 0 0 0 0 -1 0 0 0 0 0 0 0 -1 1 0 0 0 0 -1 0 0 0 0 0 0 0 -1 0 0 0 0 1 0 0 0 0 -1 0 0 0 0 1 0 0 0 0 0 0 -1 1 0 0 0 0 0 0 0 1 0 0 0 0 0 0 0 1 0 0 0zm100 11l-100 0 0 -11 100 0 0 11zm0 0l0 -11 0 0 1 0 0 0 0 0 0 0 1 0 0 0 0 0 0 0 1 0 0 1 0 0 0 0 1 0 0 0 0 0 0 1 0 0 1 0 0 0 0 0 0 1 0 0 0 0 0 0 0 1 0 0 1 0 0 1 0 0 0 0 0 0 0 1 0 0 0 0 0 1 -1 0 0 0 0 0 0 1 0 0 0 0 0 0 0 1 0 0 -1 0 0 0 0 0 0 1 0 0 -1 0 0 0 0 0 0 0 -1 0 0 1 0 0 0 0 -1 0 0 0 0 0 0 0 -1 0 0 0z" fill-rule="nonzero"/>
            <rect x="-6.112"  fill="none" y="900.489" stroke-width="0" stroke="none" id="connector46terminal" gorn="0.1.32.1" width="0.224" height="0.022"/>
        </g>
        <g >
            <path  fill="black" id="connector45pin" gorn="0.1.33.0" d="M0 995l0 11 0 0 -1 0 0 0 0 0 0 0 -1 0 0 0 0 0 0 -1 -1 0 0 0 0 0 0 0 -1 0 0 0 0 -1 0 0 0 0 -1 0 0 0 0 -1 0 0 0 0 0 0 0 -1 0 0 0 0 -1 0 0 -1 0 0 0 0 0 -1 0 0 0 0 0 0 0 -1 1 0 0 0 0 -1 0 0 0 0 0 0 0 -1 0 0 0 0 1 0 0 0 0 -1 0 0 0 0 1 0 0 0 0 0 0 -1 1 0 0 0 0 0 0 0 1 0 0 0 0 0 0 0 1 0 0 0zm100 11l-100 0 0 -11 100 0 0 11zm0 0l0 -11 0 0 1 0 0 0 0 0 0 0 1 0 0 0 0 0 0 0 1 0 0 1 0 0 0 0 1 0 0 0 0 0 0 1 0 0 1 0 0 0 0 0 0 1 0 0 0 0 0 0 0 1 0 0 1 0 0 1 0 0 0 0 0 0 0 1 0 0 0 0 0 1 -1 0 0 0 0 0 0 1 0 0 0 0 0 0 0 1 0 0 -1 0 0 0 0 0 0 1 0 0 -1 0 0 0 0 0 0 0 -1 0 0 1 0 0 0 0 -1 0 0 0 0 0 0 0 -1 0 0 0z" fill-rule="nonzero"/>
            <rect x="-6.112"  fill="none" y="1000.49" stroke-width="0" stroke="none" id="connector45terminal" gorn="0.1.33.1" width="0.224" height="0.022"/>
        </g>
        <g >
            <path  fill="black" id="connector44pin" gorn="0.1.34.0" d="M0 1095l0 11 0 0 -1 0 0 0 0 0 0 0 -1 0 0 0 0 0 0 -1 -1 0 0 0 0 0 0 0 -1 0 0 0 0 -1 0 0 0 0 -1 0 0 0 0 -1 0 0 0 0 0 0 0 -1 0 0 0 0 -1 0 0 -1 0 0 0 0 0 -1 0 0 0 0 0 0 0 -1 1 0 0 0 0 -1 0 0 0 0 0 0 0 -1 0 0 0 0 1 0 0 0 0 -1 0 0 0 0 1 0 0 0 0 0 0 -1 1 0 0 0 0 0 0 0 1 0 0 0 0 0 0 0 1 0 0 0zm100 11l-100 0 0 -11 100 0 0 11zm0 0l0 -11 0 0 1 0 0 0 0 0 0 0 1 0 0 0 0 0 0 0 1 0 0 1 0 0 0 0 1 0 0 0 0 0 0 1 0 0 1 0 0 0 0 0 0 1 0 0 0 0 0 0 0 1 0 0 1 0 0 1 0 0 0 0 0 0 0 1 0 0 0 0 0 1 -1 0 0 0 0 0 0 1 0 0 0 0 0 0 0 1 0 0 -1 0 0 0 0 0 0 1 0 0 -1 0 0 0 0 0 0 0 -1 0 0 1 0 0 0 0 -1 0 0 0 0 0 0 0 -1 0 0 0z" fill-rule="nonzero"/>
            <rect x="-6.112"  fill="none" y="1100.49" stroke-width="0" stroke="none" id="connector44terminal" gorn="0.1.34.1" width="0.224" height="0.022"/>
        </g>
        <g >
            <path  fill="black" id="connector43pin" gorn="0.1.35.0" d="M0 1195l0 11 0 0 -1 0 0 0 0 0 0 0 -1 0 0 0 0 0 0 -1 -1 0 0 0 0 0 0 0 -1 0 0 0 0 -1 0 0 0 0 -1 0 0 0 0 -1 0 0 0 0 0 0 0 -1 0 0 0 0 -1 0 0 -1 0 0 0 0 0 -1 0 0 0 0 0 0 0 -1 1 0 0 0 0 -1 0 0 0 0 0 0 0 -1 0 0 0 0 1 0 0 0 0 -1 0 0 0 0 1 0 0 0 0 0 0 -1 1 0 0 0 0 0 0 0 1 0 0 0 0 0 0 0 1 0 0 0zm100 11l-100 0 0 -11 100 0 0 11zm0 0l0 -11 0 0 1 0 0 0 0 0 0 0 1 0 0 0 0 0 0 0 1 0 0 1 0 0 0 0 1 0 0 0 0 0 0 1 0 0 1 0 0 0 0 0 0 1 0 0 0 0 0 0 0 1 0 0 1 0 0 1 0 0 0 0 0 0 0 1 0 0 0 0 0 1 -1 0 0 0 0 0 0 1 0 0 0 0 0 0 0 1 0 0 -1 0 0 0 0 0 0 1 0 0 -1 0 0 0 0 0 0 0 -1 0 0 1 0 0 0 0 -1 0 0 0 0 0 0 0 -1 0 0 0z" fill-rule="nonzero"/>
            <rect x="-6.112"  fill="none" y="1200.49" stroke-width="0" stroke="none" id="connector43terminal" gorn="0.1.35.1" width="0.224" height="0.022"/>
        </g>
        <g >
            <path  fill="black" id="connector42pin" gorn="0.1.36.0" d="M0 1295l0 11 0 0 -1 0 0 0 0 0 0 0 -1 0 0 0 0 0 0 -1 -1 0 0 0 0 0 0 0 -1 0 0 0 0 -1 0 0 0 0 -1 0 0 0 0 -1 0 0 0 0 0 0 0 -1 0 0 0 0 -1 0 0 -1 0 0 0 0 0 -1 0 0 0 0 0 0 0 -1 1 0 0 0 0 -1 0 0 0 0 0 0 0 -1 0 0 0 0 1 0 0 0 0 -1 0 0 0 0 1 0 0 0 0 0 0 -1 1 0 0 0 0 0 0 0 1 0 0 0 0 0 0 0 1 0 0 0zm100 11l-100 0 0 -11 100 0 0 11zm0 0l0 -11 0 0 1 0 0 0 0 0 0 0 1 0 0 0 0 0 0 0 1 0 0 1 0 0 0 0 1 0 0 0 0 0 0 1 0 0 1 0 0 0 0 0 0 1 0 0 0 0 0 0 0 1 0 0 1 0 0 1 0 0 0 0 0 0 0 1 0 0 0 0 0 1 -1 0 0 0 0 0 0 1 0 0 0 0 0 0 0 1 0 0 -1 0 0 0 0 0 0 1 0 0 -1 0 0 0 0 0 0 0 -1 0 0 1 0 0 0 0 -1 0 0 0 0 0 0 0 -1 0 0 0z" fill-rule="nonzero"/>
            <rect x="-6.112"  fill="none" y="1300.49" stroke-width="0" stroke="none" id="connector42terminal" gorn="0.1.36.1" width="0.224" height="0.022"/>
        </g>
        <g >
            <path  fill="black" id="connector64pin" gorn="0.1.37.0" d="M594 100l12 0 0 1 0 0 -1 0 0 1 0 0 0 0 0 0 0 1 0 0 0 0 0 0 0 1 -1 0 0 0 0 0 0 0 0 1 -1 0 0 0 0 0 0 0 0 0 -1 0 0 1 0 0 0 0 -1 0 0 0 0 0 -1 0 0 0 0 0 0 0 -1 0 0 0 0 0 -1 0 0 0 0 0 0 0 -1 -1 0 0 0 0 0 0 0 0 -1 0 0 0 0 -1 0 0 0 0 -1 0 0 0 0 -1 0 0 0 0 0 0 0 -1 0 0 -1 0 0 0 0 -1 0 0 0 0 0 -1zm12 -100l0 100 -12 0 0 -100 12 0zm0 0l-12 0 0 0 0 0 0 0 0 -1 0 0 1 0 0 -1 0 0 0 0 0 0 0 -1 0 0 0 0 1 0 0 0 0 -1 0 0 0 0 1 0 0 0 0 0 0 -1 0 0 1 0 0 0 0 0 0 0 1 0 0 0 0 0 1 0 0 0 0 0 0 0 1 0 0 0 0 0 1 0 0 0 0 0 0 0 1 0 0 1 0 0 0 0 0 0 1 0 0 0 0 1 0 0 0 0 1 0 0 0 0 1 0 0 0 0 0 0 0 1 0 0 0 0 0 1 1 0 0 0 0 0z" fill-rule="nonzero"/>
        </g>
        <g >
            <path  fill="black" id="connector63pin" gorn="0.1.38.0" d="M0 294l0 12 0 0 0 0 -1 0 0 0 0 -1 0 0 -1 0 0 0 0 0 0 0 -1 0 0 0 0 0 0 -1 -1 0 0 0 0 0 0 0 0 -1 0 0 -1 0 0 0 0 -1 0 0 0 0 0 0 0 -1 0 0 0 0 0 0 0 -1 0 0 0 0 0 -1 0 0 0 0 0 0 0 -1 0 0 0 0 0 0 0 -1 0 0 1 0 0 0 0 -1 0 0 0 0 0 0 1 0 0 -1 0 0 0 0 1 0 0 0 0 0 0 0 1 0 0 0 0 -1 0 0 1 0 0 0 0 0zm100 12l-100 0 0 -12 100 0 0 12zm0 0l0 -12 1 0 0 0 0 0 0 0 1 1 0 0 0 0 0 0 1 0 0 0 0 0 0 0 1 0 0 1 0 0 0 0 0 0 1 0 0 1 0 0 0 0 0 0 0 1 0 0 1 0 0 0 0 1 0 0 0 0 0 0 0 1 0 0 0 0 0 1 0 0 0 0 0 0 0 1 0 0 -1 0 0 0 0 1 0 0 0 0 0 0 0 1 -1 0 0 0 0 0 0 0 0 1 -1 0 0 0 0 0 0 0 -1 0 0 0 0 0 0 0 -1 1 0 0 0 0 0 0 -1 0z" fill-rule="nonzero"/>
            <rect x="-5.111"  fill="none" y="299.988" stroke-width="0" stroke="none" id="connector63terminal" gorn="0.1.38.1" width="0.222" height="0.024"/>
        </g>
        <g >
            <path  fill="black" id="connector62pin" gorn="0.1.39.0" d="M794 100l12 0 0 1 0 0 -1 0 0 1 0 0 0 0 0 0 0 1 0 0 0 0 0 0 0 1 -1 0 0 0 0 0 0 0 0 1 -1 0 0 0 0 0 0 0 0 0 -1 0 0 1 0 0 0 0 -1 0 0 0 0 0 -1 0 0 0 0 0 0 0 -1 0 0 0 0 0 -1 0 0 0 0 0 0 0 -1 -1 0 0 0 0 0 0 0 0 -1 0 0 0 0 -1 0 0 0 0 -1 0 0 0 0 -1 0 0 0 0 0 0 0 -1 -1 0 0 0 0 0 0 -1 0 0 0 0 0 -1zm12 -100l0 100 -12 0 0 -100 12 0zm0 0l-12 0 0 0 0 0 0 0 0 -1 0 0 0 0 1 -1 0 0 0 0 0 0 0 -1 0 0 0 0 1 0 0 0 0 -1 0 0 0 0 1 0 0 0 0 0 0 -1 0 0 1 0 0 0 0 0 0 0 1 0 0 0 0 0 1 0 0 0 0 0 0 0 1 0 0 0 0 0 1 0 0 0 0 0 0 0 1 0 0 1 0 0 0 0 0 0 1 0 0 0 0 1 0 0 0 0 1 0 0 0 0 1 0 0 0 0 0 0 0 1 0 0 0 0 0 1 1 0 0 0 0 0z" fill-rule="nonzero"/>
            <rect x="799.988"  fill="none" y="-5.111" stroke-width="0" stroke="none" id="connector62terminal" gorn="0.1.39.1" width="0.024" height="0.222"/>
        </g>
        <g >
            <path  fill="black" id="connector61pin" gorn="0.1.40.0" d="M695 1700l11 0 0 0 0 1 0 0 0 0 0 0 0 1 0 0 -1 0 0 0 0 1 0 0 0 0 0 0 0 1 -1 0 0 0 0 0 0 0 0 1 -1 0 0 0 0 0 0 0 -1 0 0 0 0 0 0 0 -1 1 0 0 0 0 0 0 -1 0 0 0 0 0 -1 0 0 0 0 -1 0 0 -1 0 0 0 0 0 0 0 -1 0 0 0 0 0 0 -1 -1 0 0 0 0 0 0 0 0 -1 0 0 -1 0 0 0 0 -1 0 0 0 0 0 0 0 -1 0 0 0 0 0 0 0 -1 0 0zm11 -100l0 100 -11 0 0 -100 11 0zm0 0l-11 0 0 0 0 -1 0 0 0 0 0 0 0 -1 0 0 0 0 0 0 0 -1 0 0 1 0 0 0 0 -1 0 0 0 0 0 0 1 0 0 -1 0 0 0 0 1 0 0 0 0 0 0 0 1 0 0 0 0 -1 0 0 1 0 0 0 0 0 1 0 0 0 0 0 0 0 1 1 0 0 0 0 0 0 1 0 0 0 0 0 0 0 1 0 0 1 0 0 0 0 0 0 1 0 0 1 0 0 0 0 0 0 0 1 0 0 1 0 0 0 0 1 0 0 0 0 0 0 0 1 0 0z" fill-rule="nonzero"/>
            <rect x="700.489"  fill="none" y="1705.89" stroke-width="0" stroke="none" id="connector61terminal" gorn="0.1.40.1" width="0.022" height="0.224"/>
        </g>
        <g >
            <path  fill="black" id="connector60pin" gorn="0.1.41.0" d="M1100 695l0 11 0 0 -1 0 0 0 0 0 0 0 -1 0 0 0 0 0 0 -1 -1 0 0 0 0 0 0 0 -1 0 0 0 0 -1 0 0 0 0 -1 0 0 0 0 -1 0 0 0 0 0 0 0 -1 0 0 0 0 -1 0 0 -1 0 0 0 0 0 -1 0 0 0 0 0 0 0 -1 1 0 0 0 0 -1 0 0 0 0 0 0 0 -1 0 0 0 0 1 0 0 0 0 -1 0 0 0 0 1 0 0 0 0 0 0 -1 1 0 0 0 0 0 0 0 1 0 0 0 0 0 0 0 1 0 0 0zm100 11l-100 0 0 -11 100 0 0 11zm0 0l0 -11 0 0 1 0 0 0 0 0 0 0 1 0 0 0 0 0 0 0 1 0 0 1 0 0 0 0 1 0 0 0 0 0 0 1 0 0 1 0 0 0 0 0 0 1 0 0 0 0 0 0 0 1 0 0 1 0 0 1 0 0 0 0 0 0 0 1 0 0 0 0 0 1 -1 0 0 0 0 0 0 1 0 0 0 0 0 0 0 1 0 0 -1 0 0 0 0 0 0 1 0 0 -1 0 0 0 0 0 0 0 -1 0 0 1 0 0 0 0 -1 0 0 0 0 0 0 0 -1 0 0 0z" fill-rule="nonzero"/>
            <rect x="1205.89"  fill="none" y="700.489" stroke-width="0" stroke="none" id="connector60terminal" gorn="0.1.41.1" width="0.224" height="0.022"/>
        </g>
        <g >
            <path  fill="black" id="connector59pin" gorn="0.1.42.0" d="M1100 795l0 11 0 0 -1 0 0 0 0 0 0 0 -1 0 0 0 0 0 0 -1 -1 0 0 0 0 0 0 0 -1 0 0 0 0 -1 0 0 0 0 -1 0 0 0 0 -1 0 0 0 0 0 0 0 -1 0 0 0 0 -1 0 0 -1 0 0 0 0 0 -1 0 0 0 0 0 0 0 -1 1 0 0 0 0 -1 0 0 0 0 0 0 0 -1 0 0 0 0 1 0 0 0 0 -1 0 0 0 0 1 0 0 0 0 0 0 -1 1 0 0 0 0 0 0 0 1 0 0 0 0 0 0 0 1 0 0 0zm100 11l-100 0 0 -11 100 0 0 11zm0 0l0 -11 0 0 1 0 0 0 0 0 0 0 1 0 0 0 0 0 0 0 1 0 0 1 0 0 0 0 1 0 0 0 0 0 0 1 0 0 1 0 0 0 0 0 0 1 0 0 0 0 0 0 0 1 0 0 1 0 0 1 0 0 0 0 0 0 0 1 0 0 0 0 0 1 -1 0 0 0 0 0 0 1 0 0 0 0 0 0 0 1 0 0 -1 0 0 0 0 0 0 1 0 0 -1 0 0 0 0 0 0 0 -1 0 0 1 0 0 0 0 -1 0 0 0 0 0 0 0 -1 0 0 0z" fill-rule="nonzero"/>
            <rect x="1205.89"  fill="none" y="800.489" stroke-width="0" stroke="none" id="connector59terminal" gorn="0.1.42.1" width="0.224" height="0.022"/>
        </g>
        <g >
            <path  fill="black" id="connector58pin" gorn="0.1.43.0" d="M1100 895l0 11 0 0 -1 0 0 0 0 0 0 0 -1 0 0 0 0 0 0 -1 -1 0 0 0 0 0 0 0 -1 0 0 0 0 -1 0 0 0 0 -1 0 0 0 0 -1 0 0 0 0 0 0 0 -1 0 0 0 0 -1 0 0 -1 0 0 0 0 0 -1 0 0 0 0 0 0 0 -1 1 0 0 0 0 -1 0 0 0 0 0 0 0 -1 0 0 0 0 1 0 0 0 0 -1 0 0 0 0 1 0 0 0 0 0 0 -1 1 0 0 0 0 0 0 0 1 0 0 0 0 0 0 0 1 0 0 0zm100 11l-100 0 0 -11 100 0 0 11zm0 0l0 -11 0 0 1 0 0 0 0 0 0 0 1 0 0 0 0 0 0 0 1 0 0 1 0 0 0 0 1 0 0 0 0 0 0 1 0 0 1 0 0 0 0 0 0 1 0 0 0 0 0 0 0 1 0 0 1 0 0 1 0 0 0 0 0 0 0 1 0 0 0 0 0 1 -1 0 0 0 0 0 0 1 0 0 0 0 0 0 0 1 0 0 -1 0 0 0 0 0 0 1 0 0 -1 0 0 0 0 0 0 0 -1 0 0 1 0 0 0 0 -1 0 0 0 0 0 0 0 -1 0 0 0z" fill-rule="nonzero"/>
            <rect x="1205.89"  fill="none" y="900.489" stroke-width="0" stroke="none" id="connector58terminal" gorn="0.1.43.1" width="0.224" height="0.022"/>
        </g>
        <g >
            <path  fill="black" id="connector57pin" gorn="0.1.44.0" d="M1100 995l0 11 0 0 -1 0 0 0 0 0 0 0 -1 0 0 0 0 0 0 -1 -1 0 0 0 0 0 0 0 -1 0 0 0 0 -1 0 0 0 0 -1 0 0 0 0 -1 0 0 0 0 0 0 0 -1 0 0 0 0 -1 0 0 -1 0 0 0 0 0 -1 0 0 0 0 0 0 0 -1 1 0 0 0 0 -1 0 0 0 0 0 0 0 -1 0 0 0 0 1 0 0 0 0 -1 0 0 0 0 1 0 0 0 0 0 0 -1 1 0 0 0 0 0 0 0 1 0 0 0 0 0 0 0 1 0 0 0zm100 11l-100 0 0 -11 100 0 0 11zm0 0l0 -11 0 0 1 0 0 0 0 0 0 0 1 0 0 0 0 0 0 0 1 0 0 1 0 0 0 0 1 0 0 0 0 0 0 1 0 0 1 0 0 0 0 0 0 1 0 0 0 0 0 0 0 1 0 0 1 0 0 1 0 0 0 0 0 0 0 1 0 0 0 0 0 1 -1 0 0 0 0 0 0 1 0 0 0 0 0 0 0 1 0 0 -1 0 0 0 0 0 0 1 0 0 -1 0 0 0 0 0 0 0 -1 0 0 1 0 0 0 0 -1 0 0 0 0 0 0 0 -1 0 0 0z" fill-rule="nonzero"/>
            <rect x="1205.89"  fill="none" y="1000.49" stroke-width="0" stroke="none" id="connector57terminal" gorn="0.1.44.1" width="0.224" height="0.022"/>
        </g>
        <g >
            <path  fill="black" id="connector56pin" gorn="0.1.45.0" d="M1100 1095l0 11 0 0 -1 0 0 0 0 0 0 0 -1 0 0 0 0 0 0 -1 -1 0 0 0 0 0 0 0 -1 0 0 0 0 -1 0 0 0 0 -1 0 0 0 0 -1 0 0 0 0 0 0 0 -1 0 0 0 0 -1 0 0 -1 0 0 0 0 0 -1 0 0 0 0 0 0 0 -1 1 0 0 0 0 -1 0 0 0 0 0 0 0 -1 0 0 0 0 1 0 0 0 0 -1 0 0 0 0 1 0 0 0 0 0 0 -1 1 0 0 0 0 0 0 0 1 0 0 0 0 0 0 0 1 0 0 0zm100 11l-100 0 0 -11 100 0 0 11zm0 0l0 -11 0 0 1 0 0 0 0 0 0 0 1 0 0 0 0 0 0 0 1 0 0 1 0 0 0 0 1 0 0 0 0 0 0 1 0 0 1 0 0 0 0 0 0 1 0 0 0 0 0 0 0 1 0 0 1 0 0 1 0 0 0 0 0 0 0 1 0 0 0 0 0 1 -1 0 0 0 0 0 0 1 0 0 0 0 0 0 0 1 0 0 -1 0 0 0 0 0 0 1 0 0 -1 0 0 0 0 0 0 0 -1 0 0 1 0 0 0 0 -1 0 0 0 0 0 0 0 -1 0 0 0z" fill-rule="nonzero"/>
            <rect x="1205.89"  fill="none" y="1100.49" stroke-width="0" stroke="none" id="connector56terminal" gorn="0.1.45.1" width="0.224" height="0.022"/>
        </g>
        <g >
            <path  fill="black" id="connector55pin" gorn="0.1.46.0" d="M1100 1195l0 11 0 0 -1 0 0 0 0 0 0 0 -1 0 0 0 0 0 0 -1 -1 0 0 0 0 0 0 0 -1 0 0 0 0 -1 0 0 0 0 -1 0 0 0 0 -1 0 0 0 0 0 0 0 -1 0 0 0 0 -1 0 0 -1 0 0 0 0 0 -1 0 0 0 0 0 0 0 -1 1 0 0 0 0 -1 0 0 0 0 0 0 0 -1 0 0 0 0 1 0 0 0 0 -1 0 0 0 0 1 0 0 0 0 0 0 -1 1 0 0 0 0 0 0 0 1 0 0 0 0 0 0 0 1 0 0 0zm100 11l-100 0 0 -11 100 0 0 11zm0 0l0 -11 0 0 1 0 0 0 0 0 0 0 1 0 0 0 0 0 0 0 1 0 0 1 0 0 0 0 1 0 0 0 0 0 0 1 0 0 1 0 0 0 0 0 0 1 0 0 0 0 0 0 0 1 0 0 1 0 0 1 0 0 0 0 0 0 0 1 0 0 0 0 0 1 -1 0 0 0 0 0 0 1 0 0 0 0 0 0 0 1 0 0 -1 0 0 0 0 0 0 1 0 0 -1 0 0 0 0 0 0 0 -1 0 0 1 0 0 0 0 -1 0 0 0 0 0 0 0 -1 0 0 0z" fill-rule="nonzero"/>
            <rect x="1205.89"  fill="none" y="1200.49" stroke-width="0" stroke="none" id="connector55terminal" gorn="0.1.46.1" width="0.224" height="0.022"/>
        </g>
        <g >
            <path  fill="black" id="connector54pin" gorn="0.1.47.0" d="M1100 1295l0 11 0 0 -1 0 0 0 0 0 0 0 -1 0 0 0 0 0 0 -1 -1 0 0 0 0 0 0 0 -1 0 0 0 0 -1 0 0 0 0 -1 0 0 0 0 -1 0 0 0 0 0 0 0 -1 0 0 0 0 -1 0 0 -1 0 0 0 0 0 -1 0 0 0 0 0 0 0 -1 1 0 0 0 0 -1 0 0 0 0 0 0 0 -1 0 0 0 0 1 0 0 0 0 -1 0 0 0 0 1 0 0 0 0 0 0 -1 1 0 0 0 0 0 0 0 1 0 0 0 0 0 0 0 1 0 0 0zm100 11l-100 0 0 -11 100 0 0 11zm0 0l0 -11 0 0 1 0 0 0 0 0 0 0 1 0 0 0 0 0 0 0 1 0 0 1 0 0 0 0 1 0 0 0 0 0 0 1 0 0 1 0 0 0 0 0 0 1 0 0 0 0 0 0 0 1 0 0 1 0 0 1 0 0 0 0 0 0 0 1 0 0 0 0 0 1 -1 0 0 0 0 0 0 1 0 0 0 0 0 0 0 1 0 0 -1 0 0 0 0 0 0 1 0 0 -1 0 0 0 0 0 0 0 -1 0 0 1 0 0 0 0 -1 0 0 0 0 0 0 0 -1 0 0 0z" fill-rule="nonzero"/>
            <rect x="1205.89"  fill="none" y="1300.49" stroke-width="0" stroke="none" id="connector54terminal" gorn="0.1.47.1" width="0.224" height="0.022"/>
        </g>
        <g >
            <path  fill="black" id="connector41pin" gorn="0.1.48.0" d="M0 1395l0 11 0 0 -1 0 0 0 0 0 0 0 -1 0 0 0 0 0 0 -1 -1 0 0 0 0 0 0 0 -1 0 0 0 0 -1 0 0 0 0 -1 0 0 0 0 -1 0 0 0 0 0 0 0 -1 0 0 0 0 -1 0 0 -1 0 0 0 0 0 -1 0 0 0 0 0 0 0 -1 1 0 0 0 0 -1 0 0 0 0 0 0 0 -1 0 0 0 0 1 0 0 0 0 -1 0 0 0 0 1 0 0 0 0 0 0 -1 1 0 0 0 0 0 0 0 1 0 0 0 0 0 0 0 1 0 0 0zm100 11l-100 0 0 -11 100 0 0 11zm0 0l0 -11 0 0 1 0 0 0 0 0 0 0 1 0 0 0 0 0 0 0 1 0 0 1 0 0 0 0 1 0 0 0 0 0 0 1 0 0 1 0 0 0 0 0 0 1 0 0 0 0 0 0 0 1 0 0 1 0 0 1 0 0 0 0 0 0 0 1 0 0 0 0 0 1 -1 0 0 0 0 0 0 1 0 0 0 0 0 0 0 1 0 0 -1 0 0 0 0 0 0 1 0 0 -1 0 0 0 0 0 0 0 -1 0 0 1 0 0 0 0 -1 0 0 0 0 0 0 0 -1 0 0 0z" fill-rule="nonzero"/>
            <rect x="-6.112"  fill="none" y="1400.49" stroke-width="0" stroke="none" id="connector41terminal" gorn="0.1.48.1" width="0.224" height="0.022"/>
        </g>
        <g >
            <path  fill="black" id="connector53pin" gorn="0.1.49.0" d="M1100 1395l0 11 0 0 -1 0 0 0 0 0 0 0 -1 0 0 0 0 0 0 -1 -1 0 0 0 0 0 0 0 -1 0 0 0 0 -1 0 0 0 0 -1 0 0 0 0 -1 0 0 0 0 0 0 0 -1 0 0 0 0 -1 0 0 -1 0 0 0 0 0 -1 0 0 0 0 0 0 0 -1 1 0 0 0 0 -1 0 0 0 0 0 0 0 -1 0 0 0 0 1 0 0 0 0 -1 0 0 0 0 1 0 0 0 0 0 0 -1 1 0 0 0 0 0 0 0 1 0 0 0 0 0 0 0 1 0 0 0zm100 11l-100 0 0 -11 100 0 0 11zm0 0l0 -11 0 0 1 0 0 0 0 0 0 0 1 0 0 0 0 0 0 0 1 0 0 1 0 0 0 0 1 0 0 0 0 0 0 1 0 0 1 0 0 0 0 0 0 1 0 0 0 0 0 0 0 1 0 0 1 0 0 1 0 0 0 0 0 0 0 1 0 0 0 0 0 1 -1 0 0 0 0 0 0 1 0 0 0 0 0 0 0 1 0 0 -1 0 0 0 0 0 0 1 0 0 -1 0 0 0 0 0 0 0 -1 0 0 1 0 0 0 0 -1 0 0 0 0 0 0 0 -1 0 0 0z" fill-rule="nonzero"/>
            <rect x="1205.89"  fill="none" y="1400.49" stroke-width="0" stroke="none" id="connector53terminal" gorn="0.1.49.1" width="0.224" height="0.022"/>
        </g>
        <g >
            <path  fill="black" id="connector51pin" gorn="0.1.50.0" d="M495 1700l11 0 0 0 0 1 0 0 0 0 0 0 0 1 0 0 -1 0 0 0 0 1 0 0 0 0 0 0 0 1 -1 0 0 0 0 0 0 0 0 1 -1 0 0 0 0 0 0 0 -1 0 0 0 0 0 0 0 -1 1 0 0 0 0 0 0 -1 0 0 0 0 0 -1 0 0 0 0 -1 0 0 -1 0 0 0 0 0 0 0 -1 0 0 0 0 0 0 -1 -1 0 0 0 0 0 0 0 0 -1 0 0 -1 0 0 0 0 -1 0 0 0 0 0 0 0 -1 0 0 0 0 0 0 0 -1 0 0zm11 -100l0 100 -11 0 0 -100 11 0zm0 0l-11 0 0 0 0 -1 0 0 0 0 0 0 0 -1 0 0 0 0 0 0 0 -1 0 0 1 0 0 0 0 -1 0 0 0 0 0 0 1 0 0 -1 0 0 0 0 1 0 0 0 0 0 0 0 1 0 0 0 0 -1 0 0 1 0 0 0 0 0 1 0 0 0 0 0 0 0 1 1 0 0 0 0 0 0 1 0 0 0 0 0 0 0 1 0 0 1 0 0 0 0 0 0 1 0 0 1 0 0 0 0 0 0 0 1 0 0 1 0 0 0 0 1 0 0 0 0 0 0 0 1 0 0z" fill-rule="nonzero"/>
            <rect x="500.489"  fill="none" y="1705.89" stroke-width="0" stroke="none" id="connector51terminal" gorn="0.1.50.1" width="0.022" height="0.224"/>
        </g>
    </g>
</svg>
