<?xml version="1.0" encoding="utf-8"?>
<!-- Generator: Adobe Illustrator 16.0.0, SVG Export Plug-In . SVG Version: 6.00 Build 0)  -->
<!DOCTYPE svg PUBLIC "-//W3C//DTD SVG 1.1//EN" "http://www.w3.org/Graphics/SVG/1.1/DTD/svg11.dtd">
<svg version="1.1" id="Layer_1" xmlns="http://www.w3.org/2000/svg" xmlns:xlink="http://www.w3.org/1999/xlink" x="0px" y="0px"
	 width="93.6px" height="180px" viewBox="0 0 93.6 180" enable-background="new 0 0 93.6 180" xml:space="preserve">
<desc>Fritzing schematic generated by brd2svg</desc>
<g id="schematic">
	
		<rect x="14.4" y="14.4" fill="#FFFFFF" stroke="#000000" stroke-width="0.9" stroke-linecap="round" stroke-linejoin="round" width="64.351" height="151.2"/>
	<text id="label" transform="matrix(1 0 0 1 39.7288 82.8994)" font-family="'DroidSans'" font-size="3.5">pinocc.io</text>
	<text id="label_1_" transform="matrix(1 0 0 1 37.7756 86.3994)" font-family="'DroidSans'" font-size="3.5">protoboard</text>
	
		<line fill="none" stroke="#787878" stroke-width="0.7" stroke-linecap="round" stroke-linejoin="round" x1="0.35" y1="36" x2="14.4" y2="36"/>
	<rect id="connector2pin" x="0" y="35.65" fill="none" width="14.399" height="0.7"/>
	<rect id="connector2terminal" x="0" y="35.65" fill="none" width="0" height="0.7"/>
	<text id="label2" transform="matrix(1 0 0 1 15.7996 36.6992)" fill="#8C8C8C" font-family="'DroidSans'" font-size="3.5">RESET</text>
	
		<line fill="none" stroke="#787878" stroke-width="0.7" stroke-linecap="round" stroke-linejoin="round" x1="0.35" y1="43.2" x2="14.4" y2="43.2"/>
	<rect id="connector23pin" x="0" y="42.85" fill="none" width="14.399" height="0.7"/>
	<rect id="connector23terminal" x="0" y="42.85" fill="none" width="0" height="0.7"/>
	<text id="label23" transform="matrix(1 0 0 1 15.7996 43.8994)" fill="#8C8C8C" font-family="'DroidSans'" font-size="3.5">AREF</text>
	
		<line fill="none" stroke="#787878" stroke-width="0.7" stroke-linecap="round" stroke-linejoin="round" x1="0.35" y1="50.4" x2="14.4" y2="50.4"/>
	<rect id="connector24pin" x="0" y="50.05" fill="none" width="14.399" height="0.7"/>
	<rect id="connector24terminal" x="0" y="50.05" fill="none" width="0" height="0.7"/>
	<text id="label24" transform="matrix(1 0 0 1 15.7996 51.0996)" fill="#8C8C8C" font-family="'DroidSans'" font-size="3.5">A0</text>
	
		<line fill="none" stroke="#787878" stroke-width="0.7" stroke-linecap="round" stroke-linejoin="round" x1="0.35" y1="57.6" x2="14.4" y2="57.6"/>
	<rect id="connector25pin" x="0" y="57.25" fill="none" width="14.399" height="0.7"/>
	<rect id="connector25terminal" x="0" y="57.25" fill="none" width="0" height="0.7"/>
	<text id="label25" transform="matrix(1 0 0 1 15.7996 58.2998)" fill="#8C8C8C" font-family="'DroidSans'" font-size="3.5">A1</text>
	
		<line fill="none" stroke="#787878" stroke-width="0.7" stroke-linecap="round" stroke-linejoin="round" x1="0.35" y1="64.8" x2="14.4" y2="64.8"/>
	<rect id="connector26pin" x="0" y="64.45" fill="none" width="14.399" height="0.7"/>
	<rect id="connector26terminal" x="0" y="64.45" fill="none" width="0" height="0.7"/>
	<text id="label26" transform="matrix(1 0 0 1 15.7996 65.5)" fill="#8C8C8C" font-family="'DroidSans'" font-size="3.5">A2</text>
	
		<line fill="none" stroke="#787878" stroke-width="0.7" stroke-linecap="round" stroke-linejoin="round" x1="0.35" y1="72" x2="14.4" y2="72"/>
	<rect id="connector27pin" x="0" y="71.65" fill="none" width="14.399" height="0.7"/>
	<rect id="connector27terminal" x="0" y="71.65" fill="none" width="0" height="0.7"/>
	<text id="label27" transform="matrix(1 0 0 1 15.7996 72.6992)" fill="#8C8C8C" font-family="'DroidSans'" font-size="3.5">A3</text>
	
		<line fill="none" stroke="#787878" stroke-width="0.7" stroke-linecap="round" stroke-linejoin="round" x1="0.35" y1="79.2" x2="14.4" y2="79.2"/>
	<rect id="connector28pin" x="0" y="78.85" fill="none" width="14.399" height="0.7"/>
	<rect id="connector28terminal" x="0" y="78.85" fill="none" width="0" height="0.7"/>
	<text id="label28" transform="matrix(1 0 0 1 15.7996 79.8994)" fill="#8C8C8C" font-family="'DroidSans'" font-size="3.5">A4</text>
	
		<line fill="none" stroke="#787878" stroke-width="0.7" stroke-linecap="round" stroke-linejoin="round" x1="0.35" y1="86.4" x2="14.4" y2="86.4"/>
	<rect id="connector29pin" x="0" y="86.05" fill="none" width="14.399" height="0.7"/>
	<rect id="connector29terminal" x="0" y="86.05" fill="none" width="0" height="0.7"/>
	<text id="label29" transform="matrix(1 0 0 1 15.7996 87.0996)" fill="#8C8C8C" font-family="'DroidSans'" font-size="3.5">A5</text>
	
		<line fill="none" stroke="#787878" stroke-width="0.7" stroke-linecap="round" stroke-linejoin="round" x1="0.35" y1="93.6" x2="14.4" y2="93.6"/>
	<rect id="connector30pin" x="0" y="93.25" fill="none" width="14.399" height="0.7"/>
	<rect id="connector30terminal" x="0" y="93.25" fill="none" width="0" height="0.7"/>
	<text id="label30" transform="matrix(1 0 0 1 15.7996 94.2988)" fill="#8C8C8C" font-family="'DroidSans'" font-size="3.5">A6</text>
	
		<line fill="none" stroke="#787878" stroke-width="0.7" stroke-linecap="round" stroke-linejoin="round" x1="0.35" y1="100.8" x2="14.4" y2="100.8"/>
	<rect id="connector31pin" x="0" y="100.45" fill="none" width="14.399" height="0.7"/>
	<rect id="connector31terminal" x="0" y="100.45" fill="none" width="0" height="0.7"/>
	<text id="label31" transform="matrix(1 0 0 1 15.7996 101.5)" fill="#8C8C8C" font-family="'DroidSans'" font-size="3.5">A7</text>
	
		<line fill="none" stroke="#787878" stroke-width="0.7" stroke-linecap="round" stroke-linejoin="round" x1="0.35" y1="108" x2="14.4" y2="108"/>
	<rect id="connector1pin" x="0" y="107.65" fill="none" width="14.399" height="0.699"/>
	<rect id="connector1terminal" x="0" y="107.65" fill="none" width="0" height="0.699"/>
	<text id="label1" transform="matrix(1 0 0 1 15.7996 108.6992)" fill="#8C8C8C" font-family="'DroidSans'" font-size="3.5">BKPK-BUS</text>
	
		<line fill="none" stroke="#787878" stroke-width="0.7" stroke-linecap="round" stroke-linejoin="round" x1="78.85" y1="36" x2="93.25" y2="36"/>
	<rect id="connector9pin" x="79.2" y="35.65" fill="none" width="14.399" height="0.7"/>
	<rect id="connector9terminal" x="93.6" y="35.65" fill="none" width="0" height="0.7"/>
	<text id="label9" transform="matrix(1 0 0 1 73.4778 36.6992)" fill="#8C8C8C" font-family="'DroidSans'" font-size="3.5">D2</text>
	
		<line fill="none" stroke="#787878" stroke-width="0.7" stroke-linecap="round" stroke-linejoin="round" x1="78.85" y1="43.2" x2="93.25" y2="43.2"/>
	<rect id="connector10pin" x="79.2" y="42.85" fill="none" width="14.399" height="0.7"/>
	<rect id="connector10terminal" x="93.6" y="42.85" fill="none" width="0" height="0.7"/>
	<text id="label10" transform="matrix(1 0 0 1 73.4778 43.8994)" fill="#8C8C8C" font-family="'DroidSans'" font-size="3.5">D3</text>
	
		<line fill="none" stroke="#787878" stroke-width="0.7" stroke-linecap="round" stroke-linejoin="round" x1="78.85" y1="50.4" x2="93.25" y2="50.4"/>
	<rect id="connector11pin" x="79.2" y="50.05" fill="none" width="14.399" height="0.7"/>
	<rect id="connector11terminal" x="93.6" y="50.05" fill="none" width="0" height="0.7"/>
	<text id="label11" transform="matrix(1 0 0 1 73.4778 51.0996)" fill="#8C8C8C" font-family="'DroidSans'" font-size="3.5">D4</text>
	
		<line fill="none" stroke="#787878" stroke-width="0.7" stroke-linecap="round" stroke-linejoin="round" x1="78.85" y1="57.6" x2="93.25" y2="57.6"/>
	<rect id="connector12pin" x="79.2" y="57.25" fill="none" width="14.399" height="0.7"/>
	<rect id="connector12terminal" x="93.6" y="57.25" fill="none" width="0" height="0.7"/>
	<text id="label12" transform="matrix(1 0 0 1 73.4778 58.2998)" fill="#8C8C8C" font-family="'DroidSans'" font-size="3.5">D5</text>
	
		<line fill="none" stroke="#787878" stroke-width="0.7" stroke-linecap="round" stroke-linejoin="round" x1="78.85" y1="64.8" x2="93.25" y2="64.8"/>
	<rect id="connector13pin" x="79.2" y="64.45" fill="none" width="14.399" height="0.7"/>
	<rect id="connector13terminal" x="93.6" y="64.45" fill="none" width="0" height="0.7"/>
	<text id="label13" transform="matrix(1 0 0 1 73.4778 65.5)" fill="#8C8C8C" font-family="'DroidSans'" font-size="3.5">D6</text>
	
		<line fill="none" stroke="#787878" stroke-width="0.7" stroke-linecap="round" stroke-linejoin="round" x1="78.85" y1="72" x2="93.25" y2="72"/>
	<rect id="connector14pin" x="79.2" y="71.65" fill="none" width="14.399" height="0.7"/>
	<rect id="connector14terminal" x="93.6" y="71.65" fill="none" width="0" height="0.7"/>
	<text id="label14" transform="matrix(1 0 0 1 73.4778 72.6992)" fill="#8C8C8C" font-family="'DroidSans'" font-size="3.5">D7</text>
	
		<line fill="none" stroke="#787878" stroke-width="0.7" stroke-linecap="round" stroke-linejoin="round" x1="78.85" y1="79.2" x2="93.25" y2="79.2"/>
	<rect id="connector15pin" x="79.2" y="78.85" fill="none" width="14.399" height="0.7"/>
	<rect id="connector15terminal" x="93.6" y="78.85" fill="none" width="0" height="0.7"/>
	<text id="label15" transform="matrix(1 0 0 1 73.4778 79.8994)" fill="#8C8C8C" font-family="'DroidSans'" font-size="3.5">D8</text>
	
		<line fill="none" stroke="#787878" stroke-width="0.7" stroke-linecap="round" stroke-linejoin="round" x1="78.85" y1="86.4" x2="93.25" y2="86.4"/>
	<rect id="connector7pin" x="79.2" y="86.05" fill="none" width="14.399" height="0.7"/>
	<rect id="connector7terminal" x="93.6" y="86.05" fill="none" width="0" height="0.7"/>
	<text id="label7" transform="matrix(1 0 0 1 71.8938 87.0996)" fill="#8C8C8C" font-family="'DroidSans'" font-size="3.5">RX0</text>
	
		<line fill="none" stroke="#787878" stroke-width="0.7" stroke-linecap="round" stroke-linejoin="round" x1="78.85" y1="93.6" x2="93.25" y2="93.6"/>
	<rect id="connector8pin" x="79.2" y="93.25" fill="none" width="14.399" height="0.7"/>
	<rect id="connector8terminal" x="93.6" y="93.25" fill="none" width="0" height="0.7"/>
	<text id="label8" transform="matrix(1 0 0 1 72.1418 94.2988)" fill="#8C8C8C" font-family="'DroidSans'" font-size="3.5">TX0</text>
	
		<line fill="none" stroke="#787878" stroke-width="0.7" stroke-linecap="round" stroke-linejoin="round" x1="78.85" y1="100.8" x2="93.25" y2="100.8"/>
	<rect id="connector20pin" x="79.2" y="100.45" fill="none" width="14.399" height="0.7"/>
	<rect id="connector20terminal" x="93.6" y="100.45" fill="none" width="0" height="0.7"/>
	<text id="label20" transform="matrix(1 0 0 1 72.1418 101.5)" fill="#8C8C8C" font-family="'DroidSans'" font-size="3.5">TX1</text>
	
		<line fill="none" stroke="#787878" stroke-width="0.7" stroke-linecap="round" stroke-linejoin="round" x1="78.85" y1="108" x2="93.25" y2="108"/>
	<rect id="connector19pin" x="79.2" y="107.65" fill="none" width="14.399" height="0.699"/>
	<rect id="connector19terminal" x="93.6" y="107.65" fill="none" width="0" height="0.699"/>
	<text id="label19" transform="matrix(1 0 0 1 71.8938 108.6992)" fill="#8C8C8C" font-family="'DroidSans'" font-size="3.5">RX1</text>
	
		<line fill="none" stroke="#787878" stroke-width="0.7" stroke-linecap="round" stroke-linejoin="round" x1="78.85" y1="115.2" x2="93.25" y2="115.2"/>
	<rect id="connector6pin" x="79.2" y="114.85" fill="none" width="14.399" height="0.7"/>
	<rect id="connector6terminal" x="93.6" y="114.85" fill="none" width="0" height="0.7"/>
	<text id="label6" transform="matrix(1 0 0 1 74.1672 115.8994)" fill="#8C8C8C" font-family="'DroidSans'" font-size="3.5">SS</text>
	
		<line fill="none" stroke="#787878" stroke-width="0.7" stroke-linecap="round" stroke-linejoin="round" x1="78.85" y1="122.4" x2="93.25" y2="122.4"/>
	<rect id="connector22pin" x="79.2" y="122.05" fill="none" width="14.399" height="0.7"/>
	<rect id="connector22terminal" x="93.6" y="122.05" fill="none" width="0" height="0.7"/>
	<text id="label22" transform="matrix(1 0 0 1 71.4954 123.0996)" fill="#8C8C8C" font-family="'DroidSans'" font-size="3.5">SDA</text>
	
		<line fill="none" stroke="#787878" stroke-width="0.7" stroke-linecap="round" stroke-linejoin="round" x1="78.85" y1="129.6" x2="93.25" y2="129.6"/>
	<rect id="connector21pin" x="79.2" y="129.25" fill="none" width="14.399" height="0.7"/>
	<rect id="connector21terminal" x="93.6" y="129.25" fill="none" width="0" height="0.7"/>
	<text id="label21" transform="matrix(1 0 0 1 72.1536 130.2998)" fill="#8C8C8C" font-family="'DroidSans'" font-size="3.5">SCL</text>
	
		<line fill="none" stroke="#787878" stroke-width="0.7" stroke-linecap="round" stroke-linejoin="round" x1="78.85" y1="136.8" x2="93.25" y2="136.8"/>
	<rect id="connector3pin" x="79.2" y="136.45" fill="none" width="14.399" height="0.7"/>
	<rect id="connector3terminal" x="93.6" y="136.45" fill="none" width="0" height="0.7"/>
	<text id="label3" transform="matrix(1 0 0 1 71.8459 137.5)" fill="#8C8C8C" font-family="'DroidSans'" font-size="3.5">SCK</text>
	
		<line fill="none" stroke="#787878" stroke-width="0.7" stroke-linecap="round" stroke-linejoin="round" x1="78.85" y1="144" x2="93.25" y2="144"/>
	<rect id="connector5pin" x="79.2" y="143.65" fill="none" width="14.399" height="0.699"/>
	<rect id="connector5terminal" x="93.6" y="143.65" fill="none" width="0" height="0.699"/>
	<text id="label5" transform="matrix(1 0 0 1 69.1545 144.6992)" fill="#8C8C8C" font-family="'DroidSans'" font-size="3.5">MOSI</text>
	
		<line fill="none" stroke="#787878" stroke-width="0.7" stroke-linecap="round" stroke-linejoin="round" x1="78.85" y1="151.2" x2="93.25" y2="151.2"/>
	<rect id="connector4pin" x="79.2" y="150.85" fill="none" width="14.399" height="0.7"/>
	<rect id="connector4terminal" x="93.6" y="150.85" fill="none" width="0" height="0.7"/>
	<text id="label4" transform="matrix(1 0 0 1 69.1545 151.8994)" fill="#8C8C8C" font-family="'DroidSans'" font-size="3.5">MISO</text>
	
		<line fill="none" stroke="#787878" stroke-width="0.7" stroke-linecap="round" stroke-linejoin="round" x1="28.8" y1="0.35" x2="28.8" y2="14.4"/>
	<rect id="connector0pin" x="28.449" fill="none" width="0.7" height="14.4"/>
	<polygon id="connector0terminal" fill="none" points="28.449,0 29.15,0 29.15,0 	"/>
	<g transform="matrix(1, 0, 0, 1, 37.4, 16)">
		<g transform="rotate(270)">
			<text id="label0" transform="matrix(1 0 0 1 -8.4219 -7.2006)" fill="#8C8C8C" font-family="'DroidSans'" font-size="3.5">VUSB</text>
		</g>
	</g>
	
		<line fill="none" stroke="#787878" stroke-width="0.7" stroke-linecap="round" stroke-linejoin="round" x1="43.2" y1="0.35" x2="43.2" y2="14.4"/>
	<rect id="connector16pin" x="42.85" fill="none" width="0.7" height="14.4"/>
	<polygon id="connector16terminal" fill="none" points="42.85,0 43.55,0 43.55,0 	"/>
	<g transform="matrix(1, 0, 0, 1, 44.6, 16)">
		<g transform="rotate(270)">
			
				<text id="label16" transform="matrix(1 0 0 1 -11.1699 -1.220703e-004)" fill="#8C8C8C" font-family="'DroidSans'" font-size="3.5">VCC-AE</text>
		</g>
	</g>
	
		<line fill="none" stroke="#787878" stroke-width="0.7" stroke-linecap="round" stroke-linejoin="round" x1="57.6" y1="0.35" x2="57.6" y2="14.4"/>
	<rect id="connector18pin" x="57.25" fill="none" width="0.7" height="14.4"/>
	<polygon id="connector18terminal" fill="none" points="57.25,0 57.95,0 57.95,0 	"/>
	<g transform="matrix(1, 0, 0, 1, 51.8, 16)">
		<g transform="rotate(270)">
			<text id="label18" transform="matrix(1 0 0 1 -7.8945 7.2003)" fill="#8C8C8C" font-family="'DroidSans'" font-size="3.5">VBAT</text>
		</g>
	</g>
	
		<line fill="none" stroke="#787878" stroke-width="0.7" stroke-linecap="round" stroke-linejoin="round" x1="43.2" y1="165.6" x2="43.2" y2="179.65"/>
	<rect id="connector17pin" x="42.85" y="165.6" fill="none" width="0.7" height="14.4"/>
	<polygon id="connector17terminal" fill="none" points="42.85,180 43.55,180 43.55,180 	"/>
	<g transform="matrix(1, 0, 0, 1, 44.6, 164)">
		<g transform="rotate(270)">
			<text id="label17" transform="matrix(1 0 0 1 0 -1.220703e-004)" fill="#8C8C8C" font-family="'DroidSans'" font-size="3.5">GND</text>
		</g>
	</g>
</g>
</svg>
