<?xml version="1.0" encoding="utf-8"?>
<!-- Generator: Adobe Illustrator 16.0.0, SVG Export Plug-In . SVG Version: 6.00 Build 0)  -->
<!DOCTYPE svg PUBLIC "-//W3C//DTD SVG 1.1//EN" "http://www.w3.org/Graphics/SVG/1.1/DTD/svg11.dtd">
<svg version="1.1" id="Ebene_1" xmlns="http://www.w3.org/2000/svg" xmlns:xlink="http://www.w3.org/1999/xlink" x="0px" y="0px"
	 width="122.4px" height="295.2px" viewBox="0 0 122.4 295.2" enable-background="new 0 0 122.4 295.2" xml:space="preserve">
<g id="schematic">
	
		<rect x="14.4" y="14.4" fill="none" stroke="#000000" stroke-width="0.9" stroke-linecap="round" stroke-linejoin="round" width="93.149" height="266.399"/>
	<text id="label" transform="matrix(1 0 0 1 50.7253 140.5)" font-family="'DroidSans'" font-size="3.5">PocketBeagle</text>
	
		<line fill="none" stroke="#787878" stroke-width="0.7" stroke-linecap="round" stroke-linejoin="round" x1="0.35" y1="36" x2="14.4" y2="36"/>
	<rect id="connector52pin" x="0" y="35.65" fill="none" width="14.4" height="0.7"/>
	<rect id="connector52terminal" x="0" y="35.65" fill="none" width="0" height="0.7"/>
	<text id="label52" transform="matrix(1 0 0 1 15.7996 36.7002)" fill="#8C8C8C" font-family="'DroidSans'" font-size="3.5">POWER.BUTTON</text>
	
		<line fill="none" stroke="#787878" stroke-width="0.7" stroke-linecap="round" stroke-linejoin="round" x1="0.35" y1="43.2" x2="14.4" y2="43.2"/>
	<rect id="connector21pin" x="0" y="42.85" fill="none" width="14.4" height="0.7"/>
	<rect id="connector21terminal" x="0" y="42.85" fill="none" width="0" height="0.7"/>
	<text id="label21" transform="matrix(1 0 0 1 15.7996 43.9004)" fill="#8C8C8C" font-family="'DroidSans'" font-size="3.5">AIN.VREFN</text>
	
		<line fill="none" stroke="#787878" stroke-width="0.7" stroke-linecap="round" stroke-linejoin="round" x1="0.35" y1="50.4" x2="14.4" y2="50.4"/>
	<rect id="connector22pin" x="0" y="50.05" fill="none" width="14.4" height="0.7"/>
	<rect id="connector22terminal" x="0" y="50.05" fill="none" width="0" height="0.7"/>
	<text id="label22" transform="matrix(1 0 0 1 15.7996 51.0996)" fill="#8C8C8C" font-family="'DroidSans'" font-size="3.5">AIN.VREFP</text>
	
		<line fill="none" stroke="#787878" stroke-width="0.7" stroke-linecap="round" stroke-linejoin="round" x1="0.35" y1="57.6" x2="14.4" y2="57.6"/>
	<rect id="connector23pin" x="0" y="57.25" fill="none" width="14.4" height="0.7"/>
	<rect id="connector23terminal" x="0" y="57.25" fill="none" width="0" height="0.7"/>
	<text id="label23" transform="matrix(1 0 0 1 15.7996 58.2998)" fill="#8C8C8C" font-family="'DroidSans'" font-size="3.5">AIN0(1.8V)</text>
	
		<line fill="none" stroke="#787878" stroke-width="0.7" stroke-linecap="round" stroke-linejoin="round" x1="0.35" y1="64.8" x2="14.4" y2="64.8"/>
	<rect id="connector25pin" x="0" y="64.45" fill="none" width="14.4" height="0.7"/>
	<rect id="connector25terminal" x="0" y="64.45" fill="none" width="0" height="0.7"/>
	<text id="label25" transform="matrix(1 0 0 1 15.7996 65.5)" fill="#8C8C8C" font-family="'DroidSans'" font-size="3.5">AIN1(1.8V)</text>
	
		<line fill="none" stroke="#787878" stroke-width="0.7" stroke-linecap="round" stroke-linejoin="round" x1="0.35" y1="72" x2="14.4" y2="72"/>
	<rect id="connector27pin" x="0" y="71.65" fill="none" width="14.4" height="0.7"/>
	<rect id="connector27terminal" x="0" y="71.65" fill="none" width="0" height="0.7"/>
	<text id="label27" transform="matrix(1 0 0 1 15.7996 72.7002)" fill="#8C8C8C" font-family="'DroidSans'" font-size="3.5">AIN2(1.8V)</text>
	
		<line fill="none" stroke="#787878" stroke-width="0.7" stroke-linecap="round" stroke-linejoin="round" x1="0.35" y1="79.2" x2="14.4" y2="79.2"/>
	<rect id="connector29pin" x="0" y="78.85" fill="none" width="14.4" height="0.7"/>
	<rect id="connector29terminal" x="0" y="78.85" fill="none" width="0" height="0.7"/>
	<text id="label29" transform="matrix(1 0 0 1 15.7996 79.8994)" fill="#8C8C8C" font-family="'DroidSans'" font-size="3.5">AIN3(1.8V)</text>
	
		<line fill="none" stroke="#787878" stroke-width="0.7" stroke-linecap="round" stroke-linejoin="round" x1="0.35" y1="86.4" x2="14.4" y2="86.4"/>
	<rect id="connector31pin" x="0" y="86.05" fill="none" width="14.4" height="0.7"/>
	<rect id="connector31terminal" x="0" y="86.05" fill="none" width="0" height="0.7"/>
	<text id="label31" transform="matrix(1 0 0 1 15.7996 87.0996)" fill="#8C8C8C" font-family="'DroidSans'" font-size="3.5">AIN4(1.8V)</text>
	
		<line fill="none" stroke="#787878" stroke-width="0.7" stroke-linecap="round" stroke-linejoin="round" x1="0.35" y1="93.6" x2="14.4" y2="93.6"/>
	<rect id="connector75pin" x="0" y="93.25" fill="none" width="14.4" height="0.7"/>
	<rect id="connector75terminal" x="0" y="93.25" fill="none" width="0" height="0.7"/>
	<text id="label75" transform="matrix(1 0 0 1 15.7996 94.2998)" fill="#8C8C8C" font-family="'DroidSans'" font-size="3.5">AIN5/GPIO86</text>
	
		<line fill="none" stroke="#787878" stroke-width="0.7" stroke-linecap="round" stroke-linejoin="round" x1="0.35" y1="100.8" x2="14.4" y2="100.8"/>
	<rect id="connector6pin" x="0" y="100.45" fill="none" width="14.4" height="0.7"/>
	<rect id="connector6terminal" x="0" y="100.45" fill="none" width="0" height="0.7"/>
	<text id="label6" transform="matrix(1 0 0 1 15.7996 101.5)" fill="#8C8C8C" font-family="'DroidSans'" font-size="3.5">AIN6/GPIO87</text>
	
		<line fill="none" stroke="#787878" stroke-width="0.7" stroke-linecap="round" stroke-linejoin="round" x1="0.35" y1="108" x2="14.4" y2="108"/>
	<rect id="connector76pin" x="0" y="107.65" fill="none" width="14.4" height="0.7"/>
	<rect id="connector76terminal" x="0" y="107.65" fill="none" width="0" height="0.7"/>
	<text id="label76" transform="matrix(1 0 0 1 15.7996 108.7002)" fill="#8C8C8C" font-family="'DroidSans'" font-size="3.5">AIN7(1.8V)</text>
	
		<line fill="none" stroke="#787878" stroke-width="0.7" stroke-linecap="round" stroke-linejoin="round" x1="0.35" y1="115.2" x2="14.4" y2="115.2"/>
	<rect id="connector56pin" x="0" y="114.85" fill="none" width="14.4" height="0.7"/>
	<rect id="connector56terminal" x="0" y="114.85" fill="none" width="0" height="0.7"/>
	<text id="label56" transform="matrix(1 0 0 1 15.7996 115.9004)" fill="#8C8C8C" font-family="'DroidSans'" font-size="3.5">BAT.TEMP</text>
	
		<line fill="none" stroke="#787878" stroke-width="0.7" stroke-linecap="round" stroke-linejoin="round" x1="0.35" y1="122.4" x2="14.4" y2="122.4"/>
	<rect id="connector24pin" x="0" y="122.05" fill="none" width="14.4" height="0.7"/>
	<rect id="connector24terminal" x="0" y="122.05" fill="none" width="0" height="0.7"/>
	<text id="label24" transform="matrix(1 0 0 1 15.7996 123.0996)" fill="#8C8C8C" font-family="'DroidSans'" font-size="3.5">GPIO20</text>
	
		<line fill="none" stroke="#787878" stroke-width="0.7" stroke-linecap="round" stroke-linejoin="round" x1="0.35" y1="129.6" x2="14.4" y2="129.6"/>
	<rect id="connector43pin" x="0" y="129.25" fill="none" width="14.4" height="0.7"/>
	<rect id="connector43terminal" x="0" y="129.25" fill="none" width="0" height="0.7"/>
	<text id="label43" transform="matrix(1 0 0 1 15.7996 130.2998)" fill="#8C8C8C" font-family="'DroidSans'" font-size="3.5">GPIO23</text>
	
		<line fill="none" stroke="#787878" stroke-width="0.7" stroke-linecap="round" stroke-linejoin="round" x1="0.35" y1="136.8" x2="14.4" y2="136.8"/>
	<rect id="connector38pin" x="0" y="136.45" fill="none" width="14.4" height="0.7"/>
	<rect id="connector38terminal" x="0" y="136.45" fill="none" width="0" height="0.7"/>
	<text id="label38" transform="matrix(1 0 0 1 15.7996 137.5)" fill="#8C8C8C" font-family="'DroidSans'" font-size="3.5">GPIO26</text>
	
		<line fill="none" stroke="#787878" stroke-width="0.7" stroke-linecap="round" stroke-linejoin="round" x1="0.35" y1="144" x2="14.4" y2="144"/>
	<rect id="connector59pin" x="0" y="143.65" fill="none" width="14.4" height="0.7"/>
	<rect id="connector59terminal" x="0" y="143.65" fill="none" width="0" height="0.7"/>
	<text id="label59" transform="matrix(1 0 0 1 15.7996 144.7002)" fill="#8C8C8C" font-family="'DroidSans'" font-size="3.5">GPIO27</text>
	
		<line fill="none" stroke="#787878" stroke-width="0.7" stroke-linecap="round" stroke-linejoin="round" x1="0.35" y1="151.2" x2="14.4" y2="151.2"/>
	<rect id="connector73pin" x="0" y="150.85" fill="none" width="14.4" height="0.699"/>
	<rect id="connector73terminal" x="0" y="150.85" fill="none" width="0" height="0.699"/>
	<text id="label73" transform="matrix(1 0 0 1 15.7996 151.9009)" fill="#8C8C8C" font-family="'DroidSans'" font-size="3.5">GPIO45</text>
	
		<line fill="none" stroke="#787878" stroke-width="0.7" stroke-linecap="round" stroke-linejoin="round" x1="0.35" y1="158.4" x2="14.4" y2="158.4"/>
	<rect id="connector62pin" x="0" y="158.049" fill="none" width="14.4" height="0.701"/>
	<rect id="connector62terminal" x="0" y="158.049" fill="none" width="0" height="0.701"/>
	<text id="label62" transform="matrix(1 0 0 1 15.7996 159.1001)" fill="#8C8C8C" font-family="'DroidSans'" font-size="3.5">GPIO46</text>
	
		<line fill="none" stroke="#787878" stroke-width="0.7" stroke-linecap="round" stroke-linejoin="round" x1="0.35" y1="165.6" x2="14.4" y2="165.6"/>
	<rect id="connector58pin" x="0" y="165.25" fill="none" width="14.4" height="0.699"/>
	<rect id="connector58terminal" x="0" y="165.25" fill="none" width="0" height="0.699"/>
	<text id="label58" transform="matrix(1 0 0 1 15.7996 166.2993)" fill="#8C8C8C" font-family="'DroidSans'" font-size="3.5">GPIO47</text>
	
		<line fill="none" stroke="#787878" stroke-width="0.7" stroke-linecap="round" stroke-linejoin="round" x1="0.35" y1="172.799" x2="14.4" y2="172.799"/>
	<rect id="connector64pin" x="0" y="172.45" fill="none" width="14.4" height="0.7"/>
	<rect id="connector64terminal" x="0" y="172.45" fill="none" width="0" height="0.7"/>
	<text id="label64" transform="matrix(1 0 0 1 15.7996 173.5005)" fill="#8C8C8C" font-family="'DroidSans'" font-size="3.5">GPIO48</text>
	
		<line fill="none" stroke="#787878" stroke-width="0.7" stroke-linecap="round" stroke-linejoin="round" x1="0.35" y1="180" x2="14.4" y2="180"/>
	<rect id="connector50pin" x="0" y="179.65" fill="none" width="14.4" height="0.7"/>
	<rect id="connector50terminal" x="0" y="179.65" fill="none" width="0" height="0.7"/>
	<text id="label50" transform="matrix(1 0 0 1 15.7996 180.6997)" fill="#8C8C8C" font-family="'DroidSans'" font-size="3.5">GPIO52</text>
	
		<line fill="none" stroke="#787878" stroke-width="0.7" stroke-linecap="round" stroke-linejoin="round" x1="0.35" y1="187.2" x2="14.4" y2="187.2"/>
	<rect id="connector46pin" x="0" y="186.85" fill="none" width="14.4" height="0.699"/>
	<rect id="connector46terminal" x="0" y="186.85" fill="none" width="0" height="0.699"/>
	<text id="label46" transform="matrix(1 0 0 1 15.7996 187.9009)" fill="#8C8C8C" font-family="'DroidSans'" font-size="3.5">GPIO57</text>
	
		<line fill="none" stroke="#787878" stroke-width="0.7" stroke-linecap="round" stroke-linejoin="round" x1="0.35" y1="194.4" x2="14.4" y2="194.4"/>
	<rect id="connector44pin" x="0" y="194.049" fill="none" width="14.4" height="0.701"/>
	<rect id="connector44terminal" x="0" y="194.049" fill="none" width="0" height="0.701"/>
	<text id="label44" transform="matrix(1 0 0 1 15.7996 195.1001)" fill="#8C8C8C" font-family="'DroidSans'" font-size="3.5">GPIO58</text>
	
		<line fill="none" stroke="#787878" stroke-width="0.7" stroke-linecap="round" stroke-linejoin="round" x1="0.35" y1="201.6" x2="14.4" y2="201.6"/>
	<rect id="connector42pin" x="0" y="201.25" fill="none" width="14.4" height="0.699"/>
	<rect id="connector42terminal" x="0" y="201.25" fill="none" width="0" height="0.699"/>
	<text id="label42" transform="matrix(1 0 0 1 15.7996 202.2993)" fill="#8C8C8C" font-family="'DroidSans'" font-size="3.5">GPIO59</text>
	
		<line fill="none" stroke="#787878" stroke-width="0.7" stroke-linecap="round" stroke-linejoin="round" x1="0.35" y1="208.799" x2="14.4" y2="208.799"/>
	<rect id="connector48pin" x="0" y="208.45" fill="none" width="14.4" height="0.7"/>
	<rect id="connector48terminal" x="0" y="208.45" fill="none" width="0" height="0.7"/>
	<text id="label48" transform="matrix(1 0 0 1 15.7996 209.5005)" fill="#8C8C8C" font-family="'DroidSans'" font-size="3.5">GPIO60</text>
	
		<line fill="none" stroke="#787878" stroke-width="0.7" stroke-linecap="round" stroke-linejoin="round" x1="0.35" y1="216" x2="14.4" y2="216"/>
	<rect id="connector60pin" x="0" y="215.65" fill="none" width="14.4" height="0.7"/>
	<rect id="connector60terminal" x="0" y="215.65" fill="none" width="0" height="0.7"/>
	<text id="label60" transform="matrix(1 0 0 1 15.7996 216.6997)" fill="#8C8C8C" font-family="'DroidSans'" font-size="3.5">GPIO64</text>
	
		<line fill="none" stroke="#787878" stroke-width="0.7" stroke-linecap="round" stroke-linejoin="round" x1="0.35" y1="223.2" x2="14.4" y2="223.2"/>
	<rect id="connector57pin" x="0" y="222.85" fill="none" width="14.4" height="0.699"/>
	<rect id="connector57terminal" x="0" y="222.85" fill="none" width="0" height="0.699"/>
	<text id="label57" transform="matrix(1 0 0 1 15.7996 223.9009)" fill="#8C8C8C" font-family="'DroidSans'" font-size="3.5">GPIO65</text>
	
		<line fill="none" stroke="#787878" stroke-width="0.7" stroke-linecap="round" stroke-linejoin="round" x1="0.35" y1="230.4" x2="14.4" y2="230.4"/>
	<rect id="connector8pin" x="0" y="230.049" fill="none" width="14.4" height="0.701"/>
	<rect id="connector8terminal" x="0" y="230.049" fill="none" width="0" height="0.701"/>
	<text id="label8" transform="matrix(1 0 0 1 15.7996 231.1001)" fill="#8C8C8C" font-family="'DroidSans'" font-size="3.5">GPIO89</text>
	
		<line fill="none" stroke="#787878" stroke-width="0.7" stroke-linecap="round" stroke-linejoin="round" x1="107.65" y1="36" x2="122.05" y2="36"/>
	<rect id="connector11pin" x="108" y="35.65" fill="none" width="14.4" height="0.7"/>
	<rect id="connector11terminal" x="122.4" y="35.65" fill="none" width="0" height="0.7"/>
	<text id="label11" transform="matrix(1 0 0 1 91.7488 36.7002)" fill="#8C8C8C" font-family="'DroidSans'" font-size="3.5">USB1.VIN</text>
	
		<line fill="none" stroke="#787878" stroke-width="0.7" stroke-linecap="round" stroke-linejoin="round" x1="107.65" y1="43.2" x2="122.05" y2="43.2"/>
	<rect id="connector9pin" x="108" y="42.85" fill="none" width="14.4" height="0.7"/>
	<rect id="connector9terminal" x="122.4" y="42.85" fill="none" width="0" height="0.7"/>
	<text id="label9" transform="matrix(1 0 0 1 89.0515 43.9004)" fill="#8C8C8C" font-family="'DroidSans'" font-size="3.5">USB1.VBUS</text>
	
		<line fill="none" stroke="#787878" stroke-width="0.7" stroke-linecap="round" stroke-linejoin="round" x1="107.65" y1="50.4" x2="122.05" y2="50.4"/>
	<rect id="connector17pin" x="108" y="50.05" fill="none" width="14.4" height="0.7"/>
	<rect id="connector17terminal" x="122.4" y="50.05" fill="none" width="0" height="0.7"/>
	<text id="label17" transform="matrix(1 0 0 1 93.7195 51.0996)" fill="#8C8C8C" font-family="'DroidSans'" font-size="3.5">USB1.ID</text>
	
		<line fill="none" stroke="#787878" stroke-width="0.7" stroke-linecap="round" stroke-linejoin="round" x1="107.65" y1="57.6" x2="122.05" y2="57.6"/>
	<rect id="connector7pin" x="108" y="57.25" fill="none" width="14.4" height="0.7"/>
	<rect id="connector7terminal" x="122.4" y="57.25" fill="none" width="0" height="0.7"/>
	<text id="label7" transform="matrix(1 0 0 1 82.4314 58.2998)" fill="#8C8C8C" font-family="'DroidSans'" font-size="3.5">USB1.DRVVBUS</text>
	
		<line fill="none" stroke="#787878" stroke-width="0.7" stroke-linecap="round" stroke-linejoin="round" x1="107.65" y1="64.8" x2="122.05" y2="64.8"/>
	<rect id="connector15pin" x="108" y="64.45" fill="none" width="14.4" height="0.7"/>
	<rect id="connector15terminal" x="122.4" y="64.45" fill="none" width="0" height="0.7"/>
	<text id="label15" transform="matrix(1 0 0 1 92.8884 65.5)" fill="#8C8C8C" font-family="'DroidSans'" font-size="3.5">USB1.DP</text>
	
		<line fill="none" stroke="#787878" stroke-width="0.7" stroke-linecap="round" stroke-linejoin="round" x1="107.65" y1="72" x2="122.05" y2="72"/>
	<rect id="connector13pin" x="108" y="71.65" fill="none" width="14.4" height="0.7"/>
	<rect id="connector13terminal" x="122.4" y="71.65" fill="none" width="0" height="0.7"/>
	<text id="label13" transform="matrix(1 0 0 1 92.3533 72.7002)" fill="#8C8C8C" font-family="'DroidSans'" font-size="3.5">USB1.DN</text>
	
		<line fill="none" stroke="#787878" stroke-width="0.7" stroke-linecap="round" stroke-linejoin="round" x1="107.65" y1="79.2" x2="122.05" y2="79.2"/>
	<rect id="connector47pin" x="108" y="78.85" fill="none" width="14.4" height="0.7"/>
	<rect id="connector47terminal" x="122.4" y="78.85" fill="none" width="0" height="0.7"/>
	<text id="label47" transform="matrix(1 0 0 1 91.7927 79.8994)" fill="#8C8C8C" font-family="'DroidSans'" font-size="3.5">UART4.TX</text>
	
		<line fill="none" stroke="#787878" stroke-width="0.7" stroke-linecap="round" stroke-linejoin="round" x1="107.65" y1="86.4" x2="122.05" y2="86.4"/>
	<rect id="connector45pin" x="108" y="86.05" fill="none" width="14.4" height="0.7"/>
	<rect id="connector45terminal" x="122.4" y="86.05" fill="none" width="0" height="0.7"/>
	<text id="label45" transform="matrix(1 0 0 1 91.3708 87.0996)" fill="#8C8C8C" font-family="'DroidSans'" font-size="3.5">UART4.RX</text>
	
		<line fill="none" stroke="#787878" stroke-width="0.7" stroke-linecap="round" stroke-linejoin="round" x1="107.65" y1="93.6" x2="122.05" y2="93.6"/>
	<rect id="connector34pin" x="108" y="93.25" fill="none" width="14.4" height="0.7"/>
	<rect id="connector34terminal" x="122.4" y="93.25" fill="none" width="0" height="0.7"/>
	<text id="label34" transform="matrix(1 0 0 1 91.7927 94.2998)" fill="#8C8C8C" font-family="'DroidSans'" font-size="3.5">UART0.TX</text>
	
		<line fill="none" stroke="#787878" stroke-width="0.7" stroke-linecap="round" stroke-linejoin="round" x1="107.65" y1="100.8" x2="122.05" y2="100.8"/>
	<rect id="connector36pin" x="108" y="100.45" fill="none" width="14.4" height="0.7"/>
	<rect id="connector36terminal" x="122.4" y="100.45" fill="none" width="0" height="0.7"/>
	<text id="label36" transform="matrix(1 0 0 1 91.3708 101.5)" fill="#8C8C8C" font-family="'DroidSans'" font-size="3.5">UART0.RX</text>
	
		<line fill="none" stroke="#787878" stroke-width="0.7" stroke-linecap="round" stroke-linejoin="round" x1="107.65" y1="108" x2="122.05" y2="108"/>
	<rect id="connector65pin" x="108" y="107.65" fill="none" width="14.4" height="0.7"/>
	<rect id="connector65terminal" x="122.4" y="107.65" fill="none" width="0" height="0.7"/>
	<text id="label65" transform="matrix(1 0 0 1 90.0691 108.7002)" fill="#8C8C8C" font-family="'DroidSans'" font-size="3.5">SPI1.MOSI</text>
	
		<line fill="none" stroke="#787878" stroke-width="0.7" stroke-linecap="round" stroke-linejoin="round" x1="107.65" y1="115.2" x2="122.05" y2="115.2"/>
	<rect id="connector67pin" x="108" y="114.85" fill="none" width="14.4" height="0.7"/>
	<rect id="connector67terminal" x="122.4" y="114.85" fill="none" width="0" height="0.7"/>
	<text id="label67" transform="matrix(1 0 0 1 90.0691 115.9004)" fill="#8C8C8C" font-family="'DroidSans'" font-size="3.5">SPI1.MISO</text>
	
		<line fill="none" stroke="#787878" stroke-width="0.7" stroke-linecap="round" stroke-linejoin="round" x1="107.65" y1="122.4" x2="122.05" y2="122.4"/>
	<rect id="connector71pin" x="108" y="122.05" fill="none" width="14.4" height="0.7"/>
	<rect id="connector71terminal" x="122.4" y="122.05" fill="none" width="0" height="0.7"/>
	<text id="label71" transform="matrix(1 0 0 1 94.8914 123.0996)" fill="#8C8C8C" font-family="'DroidSans'" font-size="3.5">SPI1.CS</text>
	
		<line fill="none" stroke="#787878" stroke-width="0.7" stroke-linecap="round" stroke-linejoin="round" x1="107.65" y1="129.6" x2="122.05" y2="129.6"/>
	<rect id="connector69pin" x="108" y="129.25" fill="none" width="14.4" height="0.7"/>
	<rect id="connector69terminal" x="122.4" y="129.25" fill="none" width="0" height="0.7"/>
	<text id="label69" transform="matrix(1 0 0 1 92.9617 130.2998)" fill="#8C8C8C" font-family="'DroidSans'" font-size="3.5">SPI1.CLK</text>
	
		<line fill="none" stroke="#787878" stroke-width="0.7" stroke-linecap="round" stroke-linejoin="round" x1="107.65" y1="136.8" x2="122.05" y2="136.8"/>
	<rect id="connector16pin" x="108" y="136.45" fill="none" width="14.4" height="0.7"/>
	<rect id="connector16terminal" x="122.4" y="136.45" fill="none" width="0" height="0.7"/>
	<text id="label16" transform="matrix(1 0 0 1 90.0691 137.5)" fill="#8C8C8C" font-family="'DroidSans'" font-size="3.5">SPI0.MOSI</text>
	
		<line fill="none" stroke="#787878" stroke-width="0.7" stroke-linecap="round" stroke-linejoin="round" x1="107.65" y1="144" x2="122.05" y2="144"/>
	<rect id="connector14pin" x="108" y="143.65" fill="none" width="14.4" height="0.7"/>
	<rect id="connector14terminal" x="122.4" y="143.65" fill="none" width="0" height="0.7"/>
	<text id="label14" transform="matrix(1 0 0 1 90.0691 144.7002)" fill="#8C8C8C" font-family="'DroidSans'" font-size="3.5">SPI0.MISO</text>
	
		<line fill="none" stroke="#787878" stroke-width="0.7" stroke-linecap="round" stroke-linejoin="round" x1="107.65" y1="151.2" x2="122.05" y2="151.2"/>
	<rect id="connector10pin" x="108" y="150.85" fill="none" width="14.4" height="0.699"/>
	<rect id="connector10terminal" x="122.4" y="150.85" fill="none" width="0" height="0.699"/>
	<text id="label10" transform="matrix(1 0 0 1 94.8914 151.9009)" fill="#8C8C8C" font-family="'DroidSans'" font-size="3.5">SPI0.CS</text>
	
		<line fill="none" stroke="#787878" stroke-width="0.7" stroke-linecap="round" stroke-linejoin="round" x1="107.65" y1="158.4" x2="122.05" y2="158.4"/>
	<rect id="connector12pin" x="108" y="158.049" fill="none" width="14.4" height="0.701"/>
	<rect id="connector12terminal" x="122.4" y="158.049" fill="none" width="0" height="0.701"/>
	<text id="label12" transform="matrix(1 0 0 1 92.9617 159.1001)" fill="#8C8C8C" font-family="'DroidSans'" font-size="3.5">SPI0.CLK</text>
	
		<line fill="none" stroke="#787878" stroke-width="0.7" stroke-linecap="round" stroke-linejoin="round" x1="107.65" y1="165.6" x2="122.05" y2="165.6"/>
	<rect id="connector66pin" x="108" y="165.25" fill="none" width="14.4" height="0.699"/>
	<rect id="connector66terminal" x="122.4" y="165.25" fill="none" width="0" height="0.699"/>
	<text id="label66" transform="matrix(1 0 0 1 94.946 166.2993)" fill="#8C8C8C" font-family="'DroidSans'" font-size="3.5">RESET#</text>
	
		<line fill="none" stroke="#787878" stroke-width="0.7" stroke-linecap="round" stroke-linejoin="round" x1="107.65" y1="172.799" x2="122.05" y2="172.799"/>
	<rect id="connector41pin" x="108" y="172.45" fill="none" width="14.4" height="0.7"/>
	<rect id="connector41terminal" x="122.4" y="172.45" fill="none" width="0" height="0.7"/>
	<text id="label41" transform="matrix(1 0 0 1 94.3894 173.5005)" fill="#8C8C8C" font-family="'DroidSans'" font-size="3.5">PWM1A</text>
	
		<line fill="none" stroke="#787878" stroke-width="0.7" stroke-linecap="round" stroke-linejoin="round" x1="107.65" y1="180" x2="122.05" y2="180"/>
	<rect id="connector40pin" x="108" y="179.65" fill="none" width="14.4" height="0.7"/>
	<rect id="connector40terminal" x="122.4" y="179.65" fill="none" width="0" height="0.7"/>
	<text id="label40" transform="matrix(1 0 0 1 94.3894 180.6997)" fill="#8C8C8C" font-family="'DroidSans'" font-size="3.5">PWM0A</text>
	
		<line fill="none" stroke="#787878" stroke-width="0.7" stroke-linecap="round" stroke-linejoin="round" x1="107.65" y1="187.2" x2="122.05" y2="187.2"/>
	<rect id="connector39pin" x="108" y="186.85" fill="none" width="14.4" height="0.699"/>
	<rect id="connector39terminal" x="122.4" y="186.85" fill="none" width="0" height="0.699"/>
	<text id="label39" transform="matrix(1 0 0 1 93.3533 187.9009)" fill="#8C8C8C" font-family="'DroidSans'" font-size="3.5">PRU1.10</text>
	
		<line fill="none" stroke="#787878" stroke-width="0.7" stroke-linecap="round" stroke-linejoin="round" x1="107.65" y1="194.4" x2="122.05" y2="194.4"/>
	<rect id="connector33pin" x="108" y="194.049" fill="none" width="14.4" height="0.701"/>
	<rect id="connector33terminal" x="122.4" y="194.049" fill="none" width="0" height="0.701"/>
	<text id="label33" transform="matrix(1 0 0 1 95.281 195.1001)" fill="#8C8C8C" font-family="'DroidSans'" font-size="3.5">PRU0.7</text>
	
		<line fill="none" stroke="#787878" stroke-width="0.7" stroke-linecap="round" stroke-linejoin="round" x1="107.65" y1="201.6" x2="122.05" y2="201.6"/>
	<rect id="connector68pin" x="108" y="201.25" fill="none" width="14.4" height="0.699"/>
	<rect id="connector68terminal" x="122.4" y="201.25" fill="none" width="0" height="0.699"/>
	<text id="label68" transform="matrix(1 0 0 1 95.281 202.2993)" fill="#8C8C8C" font-family="'DroidSans'" font-size="3.5">PRU0.6</text>
	
		<line fill="none" stroke="#787878" stroke-width="0.7" stroke-linecap="round" stroke-linejoin="round" x1="107.65" y1="208.799" x2="122.05" y2="208.799"/>
	<rect id="connector74pin" x="108" y="208.45" fill="none" width="14.4" height="0.7"/>
	<rect id="connector74terminal" x="122.4" y="208.45" fill="none" width="0" height="0.7"/>
	<text id="label74" transform="matrix(1 0 0 1 95.281 209.5005)" fill="#8C8C8C" font-family="'DroidSans'" font-size="3.5">PRU0.5</text>
	
		<line fill="none" stroke="#787878" stroke-width="0.7" stroke-linecap="round" stroke-linejoin="round" x1="107.65" y1="216" x2="122.05" y2="216"/>
	<rect id="connector35pin" x="108" y="215.65" fill="none" width="14.4" height="0.7"/>
	<rect id="connector35terminal" x="122.4" y="215.65" fill="none" width="0" height="0.7"/>
	<text id="label35" transform="matrix(1 0 0 1 95.281 216.6997)" fill="#8C8C8C" font-family="'DroidSans'" font-size="3.5">PRU0.4</text>
	
		<line fill="none" stroke="#787878" stroke-width="0.7" stroke-linecap="round" stroke-linejoin="round" x1="107.65" y1="223.2" x2="122.05" y2="223.2"/>
	<rect id="connector70pin" x="108" y="222.85" fill="none" width="14.4" height="0.699"/>
	<rect id="connector70terminal" x="122.4" y="222.85" fill="none" width="0" height="0.699"/>
	<text id="label70" transform="matrix(1 0 0 1 95.281 223.9009)" fill="#8C8C8C" font-family="'DroidSans'" font-size="3.5">PRU0.3</text>
	
		<line fill="none" stroke="#787878" stroke-width="0.7" stroke-linecap="round" stroke-linejoin="round" x1="107.65" y1="230.4" x2="122.05" y2="230.4"/>
	<rect id="connector72pin" x="108" y="230.049" fill="none" width="14.4" height="0.701"/>
	<rect id="connector72terminal" x="122.4" y="230.049" fill="none" width="0" height="0.701"/>
	<text id="label72" transform="matrix(1 0 0 1 95.281 231.1001)" fill="#8C8C8C" font-family="'DroidSans'" font-size="3.5">PRU0.2</text>
	
		<line fill="none" stroke="#787878" stroke-width="0.7" stroke-linecap="round" stroke-linejoin="round" x1="107.65" y1="237.6" x2="122.05" y2="237.6"/>
	<rect id="connector37pin" x="108" y="237.25" fill="none" width="14.4" height="0.699"/>
	<rect id="connector37terminal" x="122.4" y="237.25" fill="none" width="0" height="0.699"/>
	<text id="label37" transform="matrix(1 0 0 1 95.281 238.2993)" fill="#8C8C8C" font-family="'DroidSans'" font-size="3.5">PRU0.1</text>
	
		<line fill="none" stroke="#787878" stroke-width="0.7" stroke-linecap="round" stroke-linejoin="round" x1="107.65" y1="244.799" x2="122.05" y2="244.799"/>
	<rect id="connector32pin" x="108" y="244.45" fill="none" width="14.4" height="0.7"/>
	<rect id="connector32terminal" x="122.4" y="244.45" fill="none" width="0" height="0.7"/>
	<text id="label32" transform="matrix(1 0 0 1 92.863 245.5005)" fill="#8C8C8C" font-family="'DroidSans'" font-size="3.5">I2C2.SCL</text>
	
		<line fill="none" stroke="#787878" stroke-width="0.7" stroke-linecap="round" stroke-linejoin="round" x1="107.65" y1="252" x2="122.05" y2="252"/>
	<rect id="connector30pin" x="108" y="251.65" fill="none" width="14.4" height="0.7"/>
	<rect id="connector30terminal" x="122.4" y="251.65" fill="none" width="0" height="0.7"/>
	<text id="label30" transform="matrix(1 0 0 1 92.2048 252.6997)" fill="#8C8C8C" font-family="'DroidSans'" font-size="3.5">I2C2.SDA</text>
	
		<line fill="none" stroke="#787878" stroke-width="0.7" stroke-linecap="round" stroke-linejoin="round" x1="107.65" y1="259.2" x2="122.05" y2="259.2"/>
	<rect id="connector49pin" x="108" y="258.85" fill="none" width="14.4" height="0.699"/>
	<rect id="connector49terminal" x="122.4" y="258.85" fill="none" width="0" height="0.699"/>
	<text id="label49" transform="matrix(1 0 0 1 92.863 259.9009)" fill="#8C8C8C" font-family="'DroidSans'" font-size="3.5">I2C1.SCL</text>
	
		<line fill="none" stroke="#787878" stroke-width="0.7" stroke-linecap="round" stroke-linejoin="round" x1="107.65" y1="266.4" x2="122.05" y2="266.4"/>
	<rect id="connector51pin" x="108" y="266.049" fill="none" width="14.4" height="0.701"/>
	<rect id="connector51terminal" x="122.4" y="266.049" fill="none" width="0" height="0.701"/>
	<text id="label51" transform="matrix(1 0 0 1 92.2048 267.1001)" fill="#8C8C8C" font-family="'DroidSans'" font-size="3.5">I2C1.SDA</text>
	
		<line fill="none" stroke="#787878" stroke-width="0.7" stroke-linecap="round" stroke-linejoin="round" x1="43.2" y1="0.35" x2="43.2" y2="14.4"/>
	<rect id="connector5pin" x="42.85" fill="none" width="0.699" height="14.4"/>
	<polygon id="connector5terminal" fill="none" points="42.85,0 43.55,0 43.55,0 	"/>
	
		<text id="label5" transform="matrix(-1.836970e-016 -1 1 -1.836970e-016 44.5994 21.7251)" fill="#8C8C8C" font-family="'DroidSans'" font-size="3.5">VIN</text>
	
		<line fill="none" stroke="#787878" stroke-width="0.7" stroke-linecap="round" stroke-linejoin="round" x1="50.4" y1="0.35" x2="50.4" y2="14.4"/>
	<rect id="connector18pin" x="50.05" fill="none" width="0.7" height="14.4"/>
	<polygon id="connector18terminal" fill="none" points="50.05,0 50.75,0 50.75,0 	"/>
	
		<text id="label18" transform="matrix(-1.836970e-016 -1 1 -1.836970e-016 51.7996 22.7817)" fill="#8C8C8C" font-family="'DroidSans'" font-size="3.5">3.3V</text>
	
		<line fill="none" stroke="#787878" stroke-width="0.7" stroke-linecap="round" stroke-linejoin="round" x1="57.6" y1="0.35" x2="57.6" y2="14.4"/>
	<rect id="connector28pin" x="57.25" fill="none" width="0.7" height="14.4"/>
	<polygon id="connector28terminal" fill="none" points="57.25,0 57.95,0 57.95,0 	"/>
	
		<text id="label28" transform="matrix(-1.836970e-016 -1 1 -1.836970e-016 58.9998 24.7759)" fill="#8C8C8C" font-family="'DroidSans'" font-size="3.5">VOUT</text>
	
		<line fill="none" stroke="#787878" stroke-width="0.7" stroke-linecap="round" stroke-linejoin="round" x1="64.8" y1="0.35" x2="64.8" y2="14.4"/>
	<rect id="connector90pin" x="64.45" fill="none" width="0.7" height="14.4"/>
	<polygon id="connector54terminal" fill="none" points="64.45,0 65.15,0 65.15,0 	"/>
	
		<text id="label54" transform="matrix(-1.836970e-016 -1 1 -1.836970e-016 66.2 28.2231)" fill="#8C8C8C" font-family="'DroidSans'" font-size="3.5">BAT.VIN</text>
	
		<line fill="none" stroke="#787878" stroke-width="0.7" stroke-linecap="round" stroke-linejoin="round" x1="57.6" y1="280.799" x2="57.6" y2="294.85"/>
	<rect id="connector19pin" x="57.25" y="280.799" fill="none" width="0.7" height="14.4"/>
	<polygon id="connector19terminal" fill="none" points="57.25,295.2 57.95,295.2 57.95,295.2 	"/>
	
		<text id="label19" transform="matrix(-1.836970e-016 -1 1 -1.836970e-016 58.9998 279.1997)" fill="#8C8C8C" font-family="'DroidSans'" font-size="3.5">GND</text>
	<rect id="connector53pin" x="57.25" fill="none" width="0.7" height="14.4"/>
	<polygon id="connector53terminal" fill="none" points="57.25,0 57.95,0 57.95,0 	"/>
	<rect id="connector63pin" x="50.05" fill="none" width="0.7" height="14.4"/>
	<polygon id="connector63terminal" fill="none" points="50.05,0 50.75,0 50.75,0 	"/>
	<rect id="connector20pin" x="57.25" y="280.799" fill="none" width="0.7" height="14.4"/>
	<polygon id="connector20terminal" fill="none" points="57.25,295.2 57.95,295.2 57.95,295.2 	"/>
	<rect id="connector26pin" x="57.25" y="280.799" fill="none" width="0.7" height="14.4"/>
	<polygon id="connector26terminal" fill="none" points="57.25,295.2 57.95,295.2 57.95,295.2 	"/>
	<rect id="connector55pin" x="57.25" y="280.799" fill="none" width="0.7" height="14.4"/>
	<polygon id="connector55terminal" fill="none" points="57.25,295.2 57.95,295.2 57.95,295.2 	"/>
	<rect id="connector61pin" x="57.25" y="280.799" fill="none" width="0.7" height="14.4"/>
	<polygon id="connector61terminal" fill="none" points="57.25,295.2 57.95,295.2 57.95,295.2 	"/>
</g>
</svg>
