<?xml version="1.0" encoding="utf-8"?>
<!-- Generator: Adobe Illustrator 16.0.0, SVG Export Plug-In . SVG Version: 6.00 Build 0)  -->
<!DOCTYPE svg PUBLIC "-//W3C//DTD SVG 1.1//EN" "http://www.w3.org/Graphics/SVG/1.1/DTD/svg11.dtd">
<svg version="1.1" id="svg2" xmlns="http://www.w3.org/2000/svg" xmlns:xlink="http://www.w3.org/1999/xlink" x="0px" y="0px"
	 width="87.646px" height="145.796px" viewBox="0 0 87.646 145.796" enable-background="new 0 0 87.646 145.796"
	 xml:space="preserve">
<g id="schematic">
	
		<rect id="rect7" x="14.816" y="1.206" fill="none" stroke="#000000" stroke-width="0.75" stroke-linecap="round" stroke-linejoin="round" width="57.6" height="144"/>
	<text id="label" transform="matrix(1 0 0 1 28.8669 18.9536)" font-family="'DroidSans'" font-size="9.0886">A4988</text>
	<g>
		
			<line id="line10" fill="none" stroke="#000000" stroke-width="0.75" stroke-linecap="round" stroke-linejoin="round" x1="0.416" y1="28.042" x2="14.816" y2="28.042"/>
		<rect x="0.416" y="27.542" fill="none" width="14.4" height="1"/>
		<path fill="none" d="M0.416,27.742L0.416,27.742L0.416,27.742z"/>
		<rect id="connector0pin" x="0.416" y="27.542" fill="none" width="1.516" height="1"/>
	</g>
	<text id="label0" transform="matrix(1 0 0 1 18.1375 29.5562)" font-family="'DroidSans'" font-size="5.0169">EN</text>
	<g>
		
			<line id="line15" fill="none" stroke="#000000" stroke-width="0.75" stroke-linecap="round" stroke-linejoin="round" x1="0.416" y1="42.442" x2="14.816" y2="42.442"/>
		<rect x="0.416" y="41.943" fill="none" width="14.4" height="1"/>
		<path fill="none" d="M0.416,42.034L0.416,42.034L0.416,42.034z"/>
		<rect id="connector1pin" x="0.416" y="41.943" fill="none" width="1.516" height="1"/>
	</g>
	<text id="label1" transform="matrix(1 0 0 1 18.1375 43.9751)" font-family="'DroidSans'" font-size="5.0169">MS1</text>
	<g>
		
			<line id="line20" fill="none" stroke="#000000" stroke-width="0.75" stroke-linecap="round" stroke-linejoin="round" x1="0.416" y1="56.843" x2="14.816" y2="56.843"/>
		<rect x="0.416" y="56.342" fill="none" width="14.4" height="1"/>
		<path fill="none" d="M0.416,56.743L0.416,56.743L0.416,56.743z"/>
		<rect id="connector2pin" x="0.416" y="56.342" fill="none" width="1.516" height="1"/>
	</g>
	<text id="label2" transform="matrix(1 0 0 1 18.1375 58.3931)" font-family="'DroidSans'" font-size="5.0169">MS2</text>
	<g>
		
			<line id="line25" fill="none" stroke="#000000" stroke-width="0.75" stroke-linecap="round" stroke-linejoin="round" x1="0.416" y1="71.242" x2="14.816" y2="71.242"/>
		<rect x="0.416" y="70.743" fill="none" width="14.4" height="1"/>
		<path fill="none" d="M0.416,71.034L0.416,71.034L0.416,71.034z"/>
		<rect id="connector3pin" x="0.416" y="70.743" fill="none" width="1.516" height="1"/>
	</g>
	<text id="label3" transform="matrix(1 0 0 1 18.1375 72.811)" font-family="'DroidSans'" font-size="5.0169">MS3</text>
	<g>
		
			<line id="line30" fill="none" stroke="#000000" stroke-width="0.75" stroke-linecap="round" stroke-linejoin="round" x1="0.416" y1="85.643" x2="14.816" y2="85.643"/>
		<rect x="0.416" y="85.142" fill="none" width="14.4" height="1"/>
		<path fill="none" d="M0.416,85.327L0.416,85.327L0.416,85.327z"/>
		<rect id="connector4pin" x="0.416" y="85.142" fill="none" width="1.516" height="1"/>
	</g>
	<text id="label4" transform="matrix(1 0 0 1 18.1375 88.229)" font-family="'DroidSans'" font-size="5.0169">RST</text>
	<g>
		
			<line id="line35" fill="none" stroke="#000000" stroke-width="0.75" stroke-linecap="round" stroke-linejoin="round" x1="0.416" y1="100.042" x2="14.816" y2="100.042"/>
		<rect x="0.416" y="99.542" fill="none" width="14.4" height="1"/>
		<path fill="none" d="M0.416,100.035L0.416,100.035L0.416,100.035z"/>
		<rect id="connector5pin" x="0.416" y="99.542" fill="none" width="1.516" height="1"/>
	</g>
	<text id="label5" transform="matrix(1 0 0 1 18.1375 102.6479)" font-family="'DroidSans'" font-size="5.0169">SLP</text>
	<g>
		
			<line id="line40" fill="none" stroke="#000000" stroke-width="0.75" stroke-linecap="round" stroke-linejoin="round" x1="0.416" y1="114.443" x2="14.816" y2="114.443"/>
		<rect x="0.416" y="113.943" fill="none" width="14.4" height="1"/>
		<path fill="none" d="M0.416,114.327L0.416,114.327L0.416,114.327z"/>
		<rect id="connector6pin" x="0.416" y="113.943" fill="none" width="1.516" height="1"/>
	</g>
	<text id="label6" transform="matrix(1 0 0 1 18.1375 116.0669)" font-family="'DroidSans'" font-size="5.0169">STEP</text>
	<g>
		
			<line id="line45" fill="none" stroke="#000000" stroke-width="0.75" stroke-linecap="round" stroke-linejoin="round" x1="0.416" y1="128.844" x2="14.816" y2="128.844"/>
		<rect x="0.416" y="128.343" fill="none" width="14.4" height="1"/>
		<path fill="none" d="M0.416,128.619L0.416,128.619L0.416,128.619z"/>
		<rect id="connector7pin" x="0.416" y="128.343" fill="none" width="1.516" height="1"/>
	</g>
	<text id="label7" transform="matrix(1 0 0 1 18.1375 130.4849)" font-family="'DroidSans'" font-size="5.0169">DIR</text>
	<g>
		
			<line id="line50" fill="none" stroke="#000000" stroke-width="0.75" stroke-linecap="round" stroke-linejoin="round" x1="72.416" y1="28.042" x2="86.817" y2="28.042"/>
		<rect x="72.416" y="27.542" fill="none" width="14.4" height="1"/>
		<path fill="none" d="M86.211,27.742L86.211,27.742L86.211,27.742z"/>
		<rect id="connector15pin" x="85.301" y="27.542" fill="none" width="1.517" height="1"/>
	</g>
	<text id="label15" transform="matrix(1 0 0 1 55.5427 29.5562)" font-family="'DroidSans'" font-size="5.0169">VMOT</text>
	<g>
		
			<line id="line55" fill="none" stroke="#000000" stroke-width="0.75" stroke-linecap="round" stroke-linejoin="round" x1="72.416" y1="42.442" x2="86.817" y2="42.442"/>
		<rect x="72.416" y="41.943" fill="none" width="14.4" height="1"/>
		<path fill="none" d="M86.211,42.034L86.211,42.034L86.211,42.034z"/>
		<rect id="connector14pin" x="85.301" y="41.943" fill="none" width="1.517" height="1"/>
	</g>
	<text id="label14" transform="matrix(1 0 0 1 58.3835 43.9751)" font-family="'DroidSans'" font-size="5.0169">GND</text>
	<g>
		
			<line id="line60" fill="none" stroke="#000000" stroke-width="0.75" stroke-linecap="round" stroke-linejoin="round" x1="72.416" y1="56.843" x2="86.817" y2="56.843"/>
		<rect x="72.416" y="56.342" fill="none" width="14.4" height="1"/>
		<path fill="none" d="M86.211,56.743L86.211,56.743L86.211,56.743z"/>
		<rect id="connector13pin" x="85.301" y="56.342" fill="none" width="1.517" height="1"/>
	</g>
	<text id="label13" transform="matrix(1 0 0 1 63.0554 59.3931)" font-family="'DroidSans'" font-size="5.0169">2B</text>
	<g>
		
			<line id="line65" fill="none" stroke="#000000" stroke-width="0.75" stroke-linecap="round" stroke-linejoin="round" x1="72.416" y1="71.242" x2="86.817" y2="71.242"/>
		<rect x="72.416" y="70.743" fill="none" width="14.4" height="1"/>
		<path fill="none" d="M86.211,71.034L86.211,71.034L86.211,71.034z"/>
		<rect id="connector12pin" x="85.301" y="70.743" fill="none" width="1.517" height="1"/>
	</g>
	<text id="label12" transform="matrix(1 0 0 1 63.1218 72.811)" font-family="'DroidSans'" font-size="5.0169">2A</text>
	<g>
		
			<line id="line70" fill="none" stroke="#000000" stroke-width="0.75" stroke-linecap="round" stroke-linejoin="round" x1="72.416" y1="85.643" x2="86.817" y2="85.643"/>
		<rect x="72.416" y="85.142" fill="none" width="14.4" height="1"/>
		<path fill="none" d="M86.211,85.327L86.211,85.327L86.211,85.327z"/>
		<rect id="connector11pin" x="85.301" y="85.142" fill="none" width="1.517" height="1"/>
	</g>
	<text id="label11" transform="matrix(1 0 0 1 63.1218 87.229)" font-family="'DroidSans'" font-size="5.0169">1A</text>
	<g>
		
			<line id="line75" fill="none" stroke="#000000" stroke-width="0.75" stroke-linecap="round" stroke-linejoin="round" x1="72.416" y1="100.042" x2="86.817" y2="100.042"/>
		<rect x="72.416" y="99.542" fill="none" width="14.4" height="1"/>
		<path fill="none" d="M86.211,100.035L86.211,100.035L86.211,100.035z"/>
		<rect id="connector10pin" x="85.301" y="99.542" fill="none" width="1.517" height="1"/>
	</g>
	<text id="label10" transform="matrix(1 0 0 1 63.0554 101.6479)" font-family="'DroidSans'" font-size="5.0169">1B</text>
	<g>
		
			<line id="line80" fill="none" stroke="#000000" stroke-width="0.75" stroke-linecap="round" stroke-linejoin="round" x1="72.416" y1="114.443" x2="86.817" y2="114.443"/>
		<rect x="72.416" y="113.943" fill="none" width="14.4" height="1"/>
		<path fill="none" d="M86.211,114.327L86.211,114.327L86.211,114.327z"/>
		<rect id="connector9pin" x="85.301" y="113.943" fill="none" width="1.517" height="1"/>
	</g>
	<text id="label9" transform="matrix(1 0 0 1 59.2214 116.0669)" font-family="'DroidSans'" font-size="5.0169">VDD</text>
	<g>
		
			<line id="line85" fill="none" stroke="#000000" stroke-width="0.75" stroke-linecap="round" stroke-linejoin="round" x1="72.416" y1="128.844" x2="86.817" y2="128.844"/>
		<rect x="72.416" y="128.343" fill="none" width="14.4" height="1"/>
		<path fill="none" d="M86.211,128.619L86.211,128.619L86.211,128.619z"/>
		<rect id="connector8pin" x="85.301" y="128.343" fill="none" width="1.517" height="1"/>
	</g>
	<text id="label8" transform="matrix(1 0 0 1 58.3835 130.4849)" font-family="'DroidSans'" font-size="5.0169">GND</text>
	<path id="path3071-1" fill="none" stroke="#000000" stroke-width="0.6189" d="M18.704,23.694c6.869,0,6.807,0,6.807,0"/>
	<path id="path3071-1-1" fill="none" stroke="#000000" stroke-width="0.7408" d="M18.752,82.416c9.843,0,9.755,0,9.755,0"/>
	<path id="path3071-1-1-9" fill="none" stroke="#000000" stroke-width="0.7408" d="M18.752,96.962c9.843,0,9.755,0,9.755,0"/>
</g>
</svg>
