<?xml version='1.0' encoding='UTF-8' standalone='no'?>
<!-- Created with Fritzing (http://www.fritzing.org/) -->
<svg xmlns="http://www.w3.org/2000/svg"  width="1in" x="0in" version="1.2" y="0in" height="1in" viewBox="0 0 72 72" baseProfile="tiny">
 <desc >Fritzing schematic generated by brd2svg</desc>
 <g  id="schematic">
  <rect  width="42.75" x="14.4" y="14.4" fill="none" height="43.2" stroke="#000000" stroke-linejoin="round" stroke-linecap="round" stroke-width="0.9"/>
  <text  x="36" y="29" font-family="'Droid Sans'" fill="#000000" text-anchor="middle" stroke="none" id="label" font-size="3.5">Power</text>
  <text  x="36" y="32.5" font-family="'Droid Sans'" fill="#000000" text-anchor="middle" stroke="none" id="label" font-size="3.5">Cell</text>
  <text  x="36" y="36" font-family="'Droid Sans'" fill="#000000" text-anchor="middle" stroke="none" id="label" font-size="3.5">LiPo</text>
  <text  x="36" y="39.5" font-family="'Droid Sans'" fill="#000000" text-anchor="middle" stroke="none" id="label" font-size="3.5">Charger/Booster</text>
  <line  fill="none" stroke="#787878" stroke-linejoin="round" stroke-linecap="round" y1="28.8" stroke-width="0.699998" x1="0.349999" y2="28.8" x2="14.4"/>
  <rect  width="14.4" x="0" y="28.45" fill="none" height="0.699998" id="connector25pin" stroke-width="0" connectorName="EN"/>
  <rect  width="0" x="0" y="28.45" fill="none" height="0.699998" id="connector25terminal" stroke-width="0"/>
  <text  x="15.8" y="29.5" font-family="'Droid Sans'" fill="#8c8c8c" text-anchor="start" stroke="none" id="label25" font-size="3.5">EN</text>
  <line  fill="none" stroke="#787878" stroke-linejoin="round" stroke-linecap="round" y1="28.8" stroke-width="0.699998" x1="57.25" y2="28.8" x2="71.65"/>
  <rect  width="14.4" x="57.6" y="28.45" fill="none" connectorname="PS" height="0.699998" id="connector24pin" stroke-width="0"/>
  <rect  width="0" x="72" y="28.45" fill="none" height="0.699998" id="connector24terminal" stroke-width="0"/>
  <text  x="56.2" y="29.5" font-family="'Droid Sans'" fill="#8c8c8c" text-anchor="end" stroke="none" id="label24" font-size="3.5">PS</text>
  <line  fill="none" stroke="#787878" stroke-linejoin="round" stroke-linecap="round" y1="0.349999" stroke-width="0.699998" x1="21.6" y2="14.4" x2="21.6"/>
  <rect  width="0.699998" x="21.25" y="0" fill="none" connectorname="VCC" height="14.4" id="connector18pin" stroke-width="0"/>
  <rect  width="0.699998" x="21.25" y="0" fill="none" height="0" id="connector18terminal" stroke-width="0"/>
  <g  transform="matrix(1, 0, 0, 1, 23, 16)">
   <g  transform="rotate(270)">
    <text  x="0" y="0" font-family="'Droid Sans'" fill="#8c8c8c" text-anchor="end" stroke="none" id="label18" font-size="3.5">VCC</text>
   </g>
  </g>
  <line  fill="none" stroke="#787878" stroke-linejoin="round" stroke-linecap="round" y1="0.349999" stroke-width="0.699998" x1="28.8" y2="14.4" x2="28.8"/>
  <rect  width="0.699998" x="28.45" y="0" fill="none" connectorname="5VIN" height="14.4" id="connector20pin" stroke-width="0"/>
  <rect  width="0.699998" x="28.45" y="0" fill="none" height="0" id="connector20terminal" stroke-width="0"/>
  <g  transform="matrix(1, 0, 0, 1, 30.2, 16)">
   <g  transform="rotate(270)">
    <text  x="0" y="0" font-family="'Droid Sans'" fill="#8c8c8c" text-anchor="end" stroke="none" id="label20" font-size="3.5">5VIN</text>
   </g>
  </g>
  <line  fill="none" stroke="#787878" stroke-linejoin="round" stroke-linecap="round" y1="0.349999" stroke-width="0.699998" x1="36" y2="14.4" x2="36"/>
  <rect  width="0.699998" x="35.65" y="0" fill="none" connectorname="VBATT" height="14.4" id="connector22pin" stroke-width="0"/>
  <rect  width="0.699998" x="35.65" y="0" fill="none" height="0" id="connector22terminal" stroke-width="0"/>
  <g  transform="matrix(1, 0, 0, 1, 37.4, 16)">
   <g  transform="rotate(270)">
    <text  x="0" y="0" font-family="'Droid Sans'" fill="#8c8c8c" text-anchor="end" stroke="none" id="label22" font-size="3.5">VBATT</text>
   </g>
  </g>
  <line  fill="none" stroke="#787878" stroke-linejoin="round" stroke-linecap="round" y1="57.6" stroke-width="0.699998" x1="36" y2="71.65" x2="36"/>
  <rect  width="0.699998" x="35.65" y="57.6" fill="none" connectorname="GND" height="14.4" id="connector19pin" stroke-width="0"/>
  <rect  width="0.699998" x="35.65" y="72" fill="none" height="0" id="connector19terminal" stroke-width="0"/>
  <g  transform="matrix(1, 0, 0, 1, 37.4, 56)">
   <g  transform="rotate(270)">
    <text  x="0" y="0" font-family="'Droid Sans'" fill="#8c8c8c" text-anchor="start" stroke="none" id="label19" font-size="3.5">GND</text>
   </g>
  </g>
  <rect  width="0.699998" x="35.65" y="57.6" fill="none" connectorname="GND" height="14.4" id="connector21pin" stroke-width="0"/>
  <rect  width="0.699998" x="35.65" y="72" fill="none" height="0" id="connector21terminal" stroke-width="0"/>
  <rect  width="0.699998" x="35.65" y="57.6" fill="none" connectorname="GND" height="14.4" id="connector23pin" stroke-width="0"/>
  <rect  width="0.699998" x="35.65" y="72" fill="none" height="0" id="connector23terminal" stroke-width="0"/>
 </g>
</svg>
