<?xml version="1.0" encoding="utf-8"?>
<!-- Generator: Adobe Illustrator 16.0.0, SVG Export Plug-In . SVG Version: 6.00 Build 0)  -->
<svg version="1.2" baseProfile="tiny" id="Layer_1" xmlns="http://www.w3.org/2000/svg" xmlns:xlink="http://www.w3.org/1999/xlink"
	 x="0px" y="0px" width="100.8px" height="72px" viewBox="0 0 100.8 72" xml:space="preserve">
<g id="schematic">
	
		<rect x="14.4" y="14.4" fill="none" stroke="#000000" stroke-width="0.9" stroke-linecap="round" stroke-linejoin="round" width="71.551" height="43.2"/>
	<text id="label" transform="matrix(1 0 0 1 40.9517 29)" font-family="'DroidSans'" font-size="3.5">PowerBoost</text>
	<text id="label_1_" transform="matrix(1 0 0 1 47.5083 32.5)" font-family="'DroidSans'" font-size="3.5">500</text>
	<text transform="matrix(1 0 0 1 44.1631 36)" font-family="'DroidSans'" font-size="3.5">C</text>
	<text transform="matrix(1 0 0 1 46.2734 36)" font-family="'DroidSans'" font-size="3.5">h</text>
	<text transform="matrix(1 0 0 1 48.335 36)" font-family="'DroidSans'" font-size="3.5">a</text>
	<text transform="matrix(1 0 0 1 50.1924 36)" font-family="'DroidSans'" font-size="3.5">r</text>
	<text transform="matrix(1 0 0 1 51.5542 36)" font-family="'DroidSans'" font-size="3.5">g</text>
	<text transform="matrix(1 0 0 1 53.3677 36)" font-family="'DroidSans'" font-size="3.5">e</text>
	<text transform="matrix(1 0 0 1 55.2407 36)" font-family="'DroidSans'" font-size="3.5">r</text>
	
		<line fill="none" stroke="#787878" stroke-width="0.7" stroke-linecap="round" stroke-linejoin="round" x1="0.35" y1="28.8" x2="14.4" y2="28.8"/>
	
		<line fill="none" stroke="#787878" stroke-width="0.7" stroke-linecap="round" stroke-linejoin="round" x1="0.35" y1="36" x2="14.4" y2="36"/>
	<rect id="connector22pin" y="28.45" fill="none" width="14.4" height="0.7"/>
	<rect id="connector22terminal" y="28.45" fill="none" width="0" height="0.7"/>
	<rect id="connector1pin" y="35.65" fill="none" width="14.4" height="0.7"/>
	<rect id="connector1terminal" y="35.65" fill="none" width="0" height="0.7"/>
	<text transform="matrix(1 0 0 1 15.7998 29.5)" fill="#8C8C8C" font-family="'DroidSans'" font-size="3.5">V</text>
	<text transform="matrix(1 0 0 1 17.7871 29.5)" fill="#8C8C8C" font-family="'DroidSans'" font-size="3.5">B</text>
	<text transform="matrix(1 0 0 1 19.9609 29.5)" fill="#8C8C8C" font-family="'DroidSans'" font-size="3.5">A</text>
	<text transform="matrix(1 0 0 1 21.8789 29.5)" fill="#8C8C8C" font-family="'DroidSans'" font-size="3.5">T</text>
	<text transform="matrix(1 0 0 1 23.6953 29.5)" fill="#8C8C8C" font-family="'DroidSans'" font-size="3.5"> </text>
	<text transform="matrix(1 0 0 1 24.6045 29.5)" fill="#8C8C8C" font-family="'DroidSans'" font-size="3.5">O</text>
	<text transform="matrix(1 0 0 1 27.2021 29.5)" fill="#8C8C8C" font-family="'DroidSans'" font-size="3.5">U</text>
	<text transform="matrix(1 0 0 1 29.646 29.5)" fill="#8C8C8C" font-family="'DroidSans'" font-size="3.5">T</text>
	<text transform="matrix(1 0 0 1 15.7998 36.6992)" fill="#8C8C8C" font-family="'DroidSans'" font-size="3.5">V</text>
	<text transform="matrix(1 0 0 1 17.7871 36.6992)" fill="#8C8C8C" font-family="'DroidSans'" font-size="3.5">B</text>
	<text transform="matrix(1 0 0 1 19.9609 36.6992)" fill="#8C8C8C" font-family="'DroidSans'" font-size="3.5">A</text>
	<text transform="matrix(1 0 0 1 21.8789 36.6992)" fill="#8C8C8C" font-family="'DroidSans'" font-size="3.5">T</text>
	<text transform="matrix(1 0 0 1 23.6953 36.6992)" fill="#8C8C8C" font-family="'DroidSans'" font-size="3.5"> </text>
	<text transform="matrix(1 0 0 1 24.6045 36.6992)" fill="#8C8C8C" font-family="'DroidSans'" font-size="3.5">I</text>
	<text transform="matrix(1 0 0 1 25.7905 36.6992)" fill="#8C8C8C" font-family="'DroidSans'" font-size="3.5">N</text>
	
		<line fill="none" stroke="#787878" stroke-width="0.7" stroke-linecap="round" stroke-linejoin="round" x1="86.05" y1="28.8" x2="100.451" y2="28.8"/>
	<rect id="connector23pin" x="86.4" y="28.45" fill="none" width="14.4" height="0.7"/>
	<rect id="connector23terminal" x="100.8" y="28.45" fill="none" width="0" height="0.7"/>
	<text id="label23" transform="matrix(1 0 0 1 72.7339 29.5)" fill="#8C8C8C" font-family="'DroidSans'" font-size="3.5">ENABLE</text>
	
		<line fill="none" stroke="#787878" stroke-width="0.7" stroke-linecap="round" stroke-linejoin="round" x1="86.05" y1="36" x2="100.451" y2="36"/>
	<rect id="connector25pin" x="86.4" y="35.65" fill="none" width="14.4" height="0.7"/>
	<rect id="connector25terminal" x="100.8" y="35.65" fill="none" width="0" height="0.7"/>
	<text id="label25" transform="matrix(1 0 0 1 78.5093 36.6992)" fill="#8C8C8C" font-family="'DroidSans'" font-size="3.5">LBO</text>
	
		<line fill="none" stroke="#787878" stroke-width="0.7" stroke-linecap="round" stroke-linejoin="round" x1="50.4" y1="0.35" x2="50.4" y2="14.4"/>
	<g transform="matrix(1, 0, 0, 1, 51.8, 16)">
		<g>
			<g>
				<g transform="rotate(270)">
					<g>
						<g>
							
								<text id="label19" transform="matrix(1 0 0 1 -6.7813 3.051758e-004)" fill="#8C8C8C" font-family="'DroidSans'" font-size="3.5">5.0V</text>
						</g>
					</g>
				</g>
			</g>
		</g>
	</g>
	
		<line fill="none" stroke="#787878" stroke-width="0.7" stroke-linecap="round" stroke-linejoin="round" x1="57.6" y1="0.35" x2="57.6" y2="14.4"/>
	<rect id="connector28pin" x="57.25" fill="none" width="0.701" height="14.4"/>
	<polygon id="connector28terminal" fill="none" points="57.25,0 57.951,0 57.951,0 	"/>
	<g transform="matrix(1, 0, 0, 1, 59, 16)">
		<g>
			<g>
				<g transform="rotate(270)">
					<g>
						<g>
							
								<text id="label28" transform="matrix(1 0 0 1 -6.4336 -4.882813e-004)" fill="#8C8C8C" font-family="'DroidSans'" font-size="3.5">USB</text>
						</g>
					</g>
				</g>
			</g>
		</g>
	</g>
	
		<line fill="none" stroke="#787878" stroke-width="0.7" stroke-linecap="round" stroke-linejoin="round" x1="50.4" y1="57.6" x2="50.4" y2="71.65"/>
	
		<line fill="none" stroke="#787878" stroke-width="0.7" stroke-linecap="round" stroke-linejoin="round" x1="50.4" y1="57.6" x2="50.4" y2="71.65"/>
	
		<line fill="none" stroke="#787878" stroke-width="0.7" stroke-linecap="round" stroke-linejoin="round" x1="50.401" y1="57.6" x2="50.401" y2="71.65"/>
	
		<line fill="none" stroke="#787878" stroke-width="0.7" stroke-linecap="round" stroke-linejoin="round" x1="43.2" y1="57.6" x2="43.2" y2="71.65"/>
	<rect id="connector0pin" x="42.85" y="57.6" fill="none" width="0.7" height="14.4"/>
	<polygon id="connector0terminal" fill="none" points="42.85,72 43.55,72 43.55,72 	"/>
	<g transform="matrix(1, 0, 0, 1, 51.8, 56)">
		<g>
			<g>
				<g transform="rotate(270)">
					<g>
						<g>
							<text id="label16" transform="matrix(1 0 0 1 0 3.051758e-004)" fill="#8C8C8C" font-family="'DroidSans'" font-size="3.5">GND</text>
						</g>
					</g>
				</g>
			</g>
		</g>
	</g>
	<g transform="matrix(1, 0, 0, 1, 51.8, 56)">
		<g>
			<g>
				<g transform="rotate(270)">
					<g>
						<g>
							<text transform="matrix(1 0 0 1 0 -7.6374)" fill="#8C8C8C" font-family="'DroidSans'" font-size="3.5">G</text>
							<text transform="matrix(1 0 0 1 2.415 -7.6374)" fill="#8C8C8C" font-family="'DroidSans'" font-size="3.5">N</text>
							<text transform="matrix(1 0 0 1 4.9668 -7.6374)" fill="#8C8C8C" font-family="'DroidSans'" font-size="3.5">D</text>
							<text transform="matrix(1 0 0 1 7.3604 -7.6374)" fill="#8C8C8C" font-family="'DroidSans'" font-size="3.5"> </text>
							<text transform="matrix(1 0 0 1 8.2695 -7.6374)" fill="#8C8C8C" font-family="'DroidSans'" font-size="3.5">V</text>
							<text transform="matrix(1 0 0 1 10.2578 -7.6374)" fill="#8C8C8C" font-family="'DroidSans'" font-size="3.5">B</text>
							<text transform="matrix(1 0 0 1 12.4316 -7.6374)" fill="#8C8C8C" font-family="'DroidSans'" font-size="3.5">A</text>
							<text transform="matrix(1 0 0 1 14.3486 -7.6374)" fill="#8C8C8C" font-family="'DroidSans'" font-size="3.5">T</text>
							<text transform="matrix(1 0 0 1 16.165 -7.6374)" fill="#8C8C8C" font-family="'DroidSans'" font-size="3.5"> </text>
							<text transform="matrix(1 0 0 1 17.0742 -7.6374)" fill="#8C8C8C" font-family="'DroidSans'" font-size="3.5">I</text>
							<text transform="matrix(1 0 0 1 18.2607 -7.6374)" fill="#8C8C8C" font-family="'DroidSans'" font-size="3.5">N</text>
						</g>
					</g>
				</g>
			</g>
		</g>
	</g>
	<rect id="connector27pin" x="50.05" fill="none" width="0.7" height="14.4"/>
	<polygon id="connector27terminal" fill="none" points="50.05,0 50.75,0 50.75,0 	"/>
	<rect id="connector24pin" x="50.05" y="57.6" fill="none" width="0.7" height="14.4"/>
	<polygon id="connector24terminal" fill="none" points="50.05,72 50.75,72 50.75,72 	"/>
	<rect id="connector26pin" x="50.05" y="57.6" fill="none" width="0.7" height="14.4"/>
	<polygon id="connector26terminal" fill="none" points="50.05,72 50.75,72 50.75,72 	"/>
	<rect id="connector29pin" x="50.049" y="57.6" fill="none" width="0.701" height="14.4"/>
	<polygon id="connector29terminal" fill="none" points="50.049,72 50.75,72 50.75,72 	"/>
</g>
</svg>
