<?xml version="1.0" encoding="utf-8"?>
<!-- Generator: Adobe Illustrator 16.0.0, SVG Export Plug-In . SVG Version: 6.00 Build 0)  -->
<svg version="1.2" baseProfile="tiny" id="Layer_1" xmlns:svg="http://www.w3.org/2000/svg"
	 xmlns="http://www.w3.org/2000/svg" xmlns:xlink="http://www.w3.org/1999/xlink" x="0px" y="0px" width="86.4px" height="58.061px"
	 viewBox="0 0 86.4 58.061" xml:space="preserve">
<g id="schematic">
	<rect x="14.85" y="0.562" fill="#FFFFFF" stroke="#000000" stroke-linecap="round" width="56.698" height="42.3"/>
	<text transform="matrix(1 0 0 1 62.9226 15.2114)" fill="#8C8C8C" font-family="'DroidSans'" font-size="3.5">OUT</text>
	<text transform="matrix(1 0 0 1 62.9226 29.6113)" fill="#8C8C8C" font-family="'DroidSans'" font-size="3.5">OFF</text>
	
		<line id="connector3pin" fill="none" stroke="#787878" stroke-width="0.75" stroke-linecap="round" x1="71.65" y1="28.911" x2="86.05" y2="28.911"/>
	<rect id="connector3terminal" x="86.05" y="28.561" fill="none" width="0.7" height="0.7"/>
	
		<line id="connector7pin" fill="none" stroke="#787878" stroke-width="0.75" stroke-linecap="round" x1="71.65" y1="28.911" x2="86.05" y2="28.911"/>
	<rect id="connector7terminal" x="86.05" y="28.561" fill="none" width="0.7" height="0.7"/>
	
		<line id="connector1pin" fill="none" stroke="#787878" stroke-width="0.75" stroke-linecap="round" x1="71.65" y1="14.511" x2="86.05" y2="14.511"/>
	<rect id="connector1terminal" x="86.05" y="14.162" fill="none" width="0.7" height="0.7"/>
	
		<line id="connector5pin" fill="none" stroke="#787878" stroke-width="0.75" stroke-linecap="round" x1="71.65" y1="14.511" x2="86.05" y2="14.511"/>
	<rect id="connector5terminal" x="86.05" y="14.162" fill="none" width="0.7" height="0.7"/>
	
		<line id="connector0pin" fill="none" stroke="#787878" stroke-width="0.75" stroke-linecap="round" x1="0.35" y1="14.511" x2="14.75" y2="14.511"/>
	<rect id="connector0terminal" x="-0.35" y="14.162" fill="none" width="0.7" height="0.7"/>
	
		<line id="connector4pin" fill="none" stroke="#787878" stroke-width="0.75" stroke-linecap="round" x1="0.35" y1="14.511" x2="14.75" y2="14.511"/>
	<rect id="connector4terminal" x="-0.35" y="14.162" fill="none" width="0.7" height="0.7"/>
	
		<line id="connector2pin" fill="none" stroke="#787878" stroke-width="0.75" stroke-linecap="round" x1="43.2" y1="42.961" x2="43.2" y2="57.361"/>
	<rect id="connector2terminal" x="42.85" y="57.361" fill="none" width="0.698" height="0.699"/>
	
		<line id="connector6pin" fill="none" stroke="#787878" stroke-width="0.75" stroke-linecap="round" x1="43.2" y1="42.961" x2="43.2" y2="57.361"/>
	<rect id="connector6terminal" x="42.85" y="57.361" fill="none" width="0.698" height="0.699"/>
	<text transform="matrix(1 0 0 1 16.1492 15.2114)" fill="#8C8C8C" font-family="'DroidSans'" font-size="3.5">IN</text>
	<g transform="translate(15.4869,19.7026)">
		<g transform="rotate(270)">
			<text transform="matrix(1 0 0 1 -21.8579 28.4123)" fill="#8C8C8C" font-family="'DroidSans'" font-size="3.5">GND</text>
		</g>
	</g>
	<text transform="matrix(1 0 0 1 35.9187 19.7114)" font-family="'DroidSans'" font-size="4.25">p</text>
	<text transform="matrix(1 0 0 1 38.4089 19.7114)" font-family="'DroidSans'" font-size="4.25">o</text>
	<text transform="matrix(1 0 0 1 40.8621 19.7114)" font-family="'DroidSans'" font-size="4.25">w</text>
	<text transform="matrix(1 0 0 1 44.033 19.7114)" font-family="'DroidSans'" font-size="4.25">e</text>
	<text transform="matrix(1 0 0 1 46.3074 19.7114)" font-family="'DroidSans'" font-size="4.25">r</text>
	<text transform="matrix(1 0 0 1 48.0027 19.7114)" font-family="'DroidSans'" font-size="4.25"> </text>
	<text transform="matrix(1 0 0 1 31.3708 24.811)" font-family="'DroidSans'" font-size="4.25">p</text>
	<text transform="matrix(1 0 0 1 33.8611 24.811)" font-family="'DroidSans'" font-size="4.25">u</text>
	<text transform="matrix(1 0 0 1 36.364 24.811)" font-family="'DroidSans'" font-size="4.25">s</text>
	<text transform="matrix(1 0 0 1 38.281 24.811)" font-family="'DroidSans'" font-size="4.25">h</text>
	<text transform="matrix(1 0 0 1 40.7839 24.811)" font-family="'DroidSans'" font-size="4.25">b</text>
	<text transform="matrix(1 0 0 1 43.2742 24.811)" font-family="'DroidSans'" font-size="4.25">u</text>
	<text transform="matrix(1 0 0 1 45.7771 24.811)" font-family="'DroidSans'" font-size="4.25">t</text>
	<text transform="matrix(1 0 0 1 47.2585 24.811)" font-family="'DroidSans'" font-size="4.25">t</text>
	<text transform="matrix(1 0 0 1 48.699 24.811)" font-family="'DroidSans'" font-size="4.25">o</text>
	<text transform="matrix(1 0 0 1 51.1511 24.811)" font-family="'DroidSans'" font-size="4.25">n</text>
</g>
</svg>
