<?xml version='1.0' encoding='utf-8'?>
<!DOCTYPE svg>
<!-- Generator: Adobe Illustrator 17.0.0, SVG Export Plug-In . SVG Version: 6.00 Build 0)  -->
<svg xmlns="http://www.w3.org/2000/svg" width="5.05301in" x="0px" version="1.1" y="0px" gorn="0"  height="4.16719in" viewBox="0 0 363.817 300.038" xmlns:xml="http://www.w3.org/XML/1998/namespace" id="Layer_1" enable-background="new 0 0 363.817 300.038" xml:space="preserve">
    <desc >
        <referenceFile >Copernicus-DIP-Breakout_schematic.svg</referenceFile>
    </desc>
    <desc >Fritzing schematic generated by brd2svg</desc>
    <g gorn="0.2"  id="schematic">
        <rect width="318.897" x="22.46" y="22.46" fill="none"  height="255.118" stroke="#000000" stroke-linejoin="round" stroke-linecap="round" stroke-width="2.4"/>
        <g  transform="matrix(1 0 0 1 71.0886 64.9795)">
            <g >
                <g >
                    <g gorn="0.2.1.0.0.0"  id="label" enable-background="new    ">
                        <text x="0" y="0" font-family="DroidSans"  font-size="18">Copernicus II DIP Module</text>
                        <text x="66.924" y="21.6" font-family="DroidSans"  font-size="18">Breakout</text>
                    </g>
                </g>
            </g>
        </g>
        <line fill="none"  stroke="#000000" stroke-linejoin="round" stroke-linecap="round" y1="64.98" stroke-width="2.4" x1="1.2" y2="64.98" x2="21.26"/>
        <rect width="21.26" x="0" y="63.78" fill="none" gorn="0.2.3"  height="2.4" id="connector19pin"/>
        <rect width="2.4" x="0" y="63.78" fill="none"  height="2.4"/>
        <g  transform="matrix(1 0 0 1 27.7403 67.3795)">
            <g >
                <g >
                    <text font-family="DroidSans" gorn="0.2.5.0.0.0"  id="label4" font-size="9.936">R7</text>
                </g>
            </g>
        </g>
        <line fill="none"  stroke="#000000" stroke-linejoin="round" stroke-linecap="round" y1="86.239" stroke-width="2.4" x1="1.2" y2="86.239" x2="21.26"/>
        <rect width="21.26" x="0" y="85.039" fill="none" gorn="0.2.7"  height="2.4" id="connector18pin"/>
        <rect width="2.4" x="0" y="85.039" fill="none"  height="2.4"/>
        <g  transform="matrix(1 0 0 1 27.7403 88.6392)">
            <g >
                <g >
                    <text font-family="DroidSans" gorn="0.2.9.0.0.0"  id="label6" font-size="9.936">R6</text>
                </g>
            </g>
        </g>
        <line fill="none"  stroke="#000000" stroke-linejoin="round" stroke-linecap="round" y1="107.499" stroke-width="2.4" x1="1.2" y2="107.499" x2="21.26"/>
        <rect width="21.26" x="0" y="106.299" fill="none" gorn="0.2.11"  height="2.4" id="connector17pin"/>
        <rect width="2.4" x="0" y="106.299" fill="none"  height="2.4"/>
        <g  transform="matrix(1 0 0 1 27.7403 109.899)">
            <g >
                <g >
                    <text font-family="DroidSans" gorn="0.2.13.0.0.0"  id="label16" font-size="9.936">TX-B</text>
                </g>
            </g>
        </g>
        <line fill="none"  stroke="#000000" stroke-linejoin="round" stroke-linecap="round" y1="128.759" stroke-width="2.4" x1="1.2" y2="128.759" x2="21.26"/>
        <rect width="21.26" x="0" y="127.559" fill="none" gorn="0.2.15"  height="2.4" id="connector16pin"/>
        <rect width="2.4" x="0" y="127.559" fill="none"  height="2.4"/>
        <g  transform="matrix(1 0 0 1 27.7403 131.159)">
            <g >
                <g >
                    <text font-family="DroidSans" gorn="0.2.17.0.0.0"  id="label8" font-size="9.936">TX-A</text>
                </g>
            </g>
        </g>
        <line fill="none"  stroke="#000000" stroke-linejoin="round" stroke-linecap="round" y1="150.019" stroke-width="2.4" x1="1.2" y2="150.019" x2="21.26"/>
        <rect width="21.26" x="0" y="148.819" fill="none" gorn="0.2.19"  height="2.4" id="connector15pin"/>
        <rect width="2.4" x="0" y="148.819" fill="none"  height="2.4"/>
        <g  transform="matrix(1 0 0 1 27.7403 152.419)">
            <g >
                <g >
                    <text font-family="DroidSans" gorn="0.2.21.0.0.0"  id="label9" font-size="9.936">R5</text>
                </g>
            </g>
        </g>
        <line fill="none"  stroke="#000000" stroke-linejoin="round" stroke-linecap="round" y1="171.279" stroke-width="2.4" x1="1.2" y2="171.279" x2="21.26"/>
        <rect width="21.26" x="0" y="170.078" fill="none" gorn="0.2.23"  height="2.4" id="connector14pin"/>
        <rect width="2.4" x="0" y="170.078" fill="none" gorn="0.2.24"  height="2.4" id="connector14terminal"/>
        <g  transform="matrix(1 0 0 1 27.7403 173.678)">
            <g >
                <g >
                    <text font-family="DroidSans" gorn="0.2.25.0.0.0"  id="label14" font-size="9.936">RX-A</text>
                </g>
            </g>
        </g>
        <line fill="none"  stroke="#000000" stroke-linejoin="round" stroke-linecap="round" y1="192.539" stroke-width="2.4" x1="1.2" y2="192.539" x2="21.26"/>
        <rect width="21.26" x="0" y="191.339" fill="none" gorn="0.2.27"  height="2.4" id="connector13pin"/>
        <rect width="2.4" x="0" y="191.339" fill="none"  height="2.4"/>
        <g  transform="matrix(1 0 0 1 27.7403 194.939)">
            <g >
                <g >
                    <text font-family="DroidSans" gorn="0.2.29.0.0.0"  id="label15" font-size="9.936">RX-B</text>
                </g>
            </g>
        </g>
        <line fill="none"  stroke="#000000" stroke-linejoin="round" stroke-linecap="round" y1="213.798" stroke-width="2.4" x1="1.2" y2="213.798" x2="21.26"/>
        <rect width="21.26" x="0" y="212.599" fill="none" gorn="0.2.31"  height="2.4" id="connector12pin"/>
        <rect width="2.4" x="0" y="212.599" fill="none"  height="2.4"/>
        <g  transform="matrix(1 0 0 1 27.7403 216.199)">
            <g >
                <g >
                    <text font-family="DroidSans" gorn="0.2.33.0.0.0"  id="label19" font-size="9.936">PPS</text>
                </g>
            </g>
        </g>
        <line fill="none"  stroke="#000000" stroke-linejoin="round" stroke-linecap="round" y1="235.058" stroke-width="2.4" x1="1.2" y2="235.058" x2="21.26"/>
        <rect width="21.26" x="0" y="233.858" fill="none" gorn="0.2.35"  height="2.4" id="connector11pin"/>
        <rect width="2.4" x="0" y="233.858" fill="none" gorn="0.2.36"  height="2.4" id="connector22terminal"/>
        <g  transform="matrix(1 0 0 1 27.7403 237.458)">
            <g >
                <g >
                    <text font-family="DroidSans" gorn="0.2.37.0.0.0"  id="label22" font-size="9.936">R4</text>
                </g>
            </g>
        </g>
        <line fill="none"  stroke="#000000" stroke-linejoin="round" stroke-linecap="round" y1="64.98" stroke-width="2.4" x1="341.358" y2="64.98" x2="362.617"/>
        <rect width="21.26" x="342.557" y="63.78" fill="none" gorn="0.2.39"  height="2.4" id="connector10pin"/>
        <rect width="2.4" x="361.418" y="63.78" fill="none"  height="2.4"/>
        <g  transform="matrix(1 0 0 1 322.3952 67.3795)">
            <g >
                <g >
                    <text font-family="DroidSans" gorn="0.2.41.0.0.0"  id="label13" font-size="9.936">R3</text>
                </g>
            </g>
        </g>
        <line fill="none"  stroke="#000000" stroke-linejoin="round" stroke-linecap="round" y1="86.239" stroke-width="2.4" x1="341.358" y2="86.239" x2="362.617"/>
        <rect width="21.26" x="342.557" y="85.039" fill="none" gorn="0.2.43"  height="2.4" id="connector2pin"/>
        <rect width="2.4" x="361.418" y="85.039" fill="none"  height="2.4"/>
        <g  transform="matrix(1 0 0 1 308.1411 88.6392)">
            <g >
                <g >
                    <text font-family="DroidSans" gorn="0.2.45.0.0.0"  id="label10" font-size="9.936">OPEN</text>
                </g>
            </g>
        </g>
        <line fill="none"  stroke="#000000" stroke-linejoin="round" stroke-linecap="round" y1="107.499" stroke-width="2.4" x1="341.358" y2="107.499" x2="362.617"/>
        <rect width="21.26" x="342.557" y="106.299" fill="none" gorn="0.2.47"  height="2.4" id="connector3pin"/>
        <rect width="2.4" x="361.418" y="106.299" fill="none" gorn="0.2.48"  height="2.4" id="connector21terminal"/>
        <g  transform="matrix(1 0 0 1 303.3086 109.899)">
            <g >
                <g >
                    <text font-family="DroidSans" gorn="0.2.49.0.0.0"  id="label21" font-size="9.936">SHORT</text>
                </g>
            </g>
        </g>
        <line fill="none"  stroke="#000000" stroke-linejoin="round" stroke-linecap="round" y1="128.759" stroke-width="2.4" x1="341.358" y2="128.759" x2="362.617"/>
        <rect width="21.26" x="342.557" y="127.559" fill="none" gorn="0.2.51"  height="2.4" id="connector1pin"/>
        <rect width="2.4" x="361.418" y="127.559" fill="none" gorn="0.2.52"  height="2.4" id="connector20terminal"/>
        <g  transform="matrix(1 0 0 1 322.3947 131.159)">
            <g >
                <g >
                    <text font-family="DroidSans" gorn="0.2.53.0.0.0"  id="label20" font-size="9.936">R1</text>
                </g>
            </g>
        </g>
        <line fill="none"  stroke="#000000" stroke-linejoin="round" stroke-linecap="round" y1="150.019" stroke-width="2.4" x1="341.358" y2="150.019" x2="362.617"/>
        <rect width="21.26" x="342.557" y="148.819" fill="none" gorn="0.2.55"  height="2.4" id="connector4pin"/>
        <rect width="2.4" x="361.418" y="148.819" fill="none"  height="2.4"/>
        <g  transform="matrix(1 0 0 1 322.3946 152.419)">
            <g >
                <g >
                    <text font-family="DroidSans" gorn="0.2.57.0.0.0"  id="label7" font-size="9.936">R2</text>
                </g>
            </g>
        </g>
        <line fill="none"  stroke="#000000" stroke-linejoin="round" stroke-linecap="round" y1="171.279" stroke-width="2.4" x1="341.358" y2="171.279" x2="362.617"/>
        <rect width="21.26" x="342.557" y="170.078" fill="none" gorn="0.2.59"  height="2.4" id="connector6pin"/>
        <rect width="2.4" x="361.418" y="170.078" fill="none"  height="2.4"/>
        <g  transform="matrix(1 0 0 1 312.1192 173.678)">
            <g >
                <g >
                    <text font-family="DroidSans" gorn="0.2.61.0.0.0"  id="label17" font-size="9.936">XRST</text>
                </g>
            </g>
        </g>
        <line fill="none"  stroke="#000000" stroke-linejoin="round" stroke-linecap="round" y1="192.539" stroke-width="2.4" x1="341.358" y2="192.539" x2="362.617"/>
        <rect width="21.26" x="342.557" y="191.339" fill="none" gorn="0.2.63"  height="2.4" id="connector0pin"/>
        <rect width="2.4" x="361.418" y="191.339" fill="none"  height="2.4"/>
        <g  transform="matrix(1 0 0 1 308.9745 194.9395)">
            <g >
                <g >
                    <text font-family="DroidSans" gorn="0.2.65.0.0.0"  id="label18" font-size="9.936">LANA</text>
                </g>
            </g>
        </g>
        <line fill="none"  stroke="#000000" stroke-linejoin="round" stroke-linecap="round" y1="213.798" stroke-width="2.4" x1="341.358" y2="213.798" x2="362.617"/>
        <rect width="21.26" x="342.557" y="212.599" fill="none" gorn="0.2.67"  height="2.4" id="connector9pin"/>
        <rect width="2.4" x="361.418" y="212.599" fill="none" gorn="0.2.68"  height="2.4" id="connector27terminal"/>
        <rect width="21.26" x="342.557" y="233.858" fill="none" gorn="0.2.69"  height="2.4" id="connector23pin"/>
        <rect width="2.4" x="361.418" y="233.858" fill="none" gorn="0.2.70"  height="2.4" id="connector23terminal"/>
        <g  transform="matrix(1 0 0 1 306.6674 216.1993)">
            <g >
                <g >
                    <text font-family="DroidSans" gorn="0.2.71.0.0.0"  id="label23" font-size="9.936">XSTBY</text>
                </g>
            </g>
        </g>
        <line fill="none"  stroke="#000000" stroke-linejoin="round" stroke-linecap="round" y1="1.2" stroke-width="2.4" x1="171.279" y2="21.26" x2="171.279"/>
        <rect width="2.4" x="170.078" y="0" fill="none"  height="21.26"/>
        <polygon fill="none" points="170.078,0 172.478,0 172.478,0 " />
        <g  transform="matrix(1 0 0 1 162.6655 33.8599)">
            <g >
                <g >
                    <text font-family="DroidSans" gorn="0.2.75.0.0.0"  id="label0" font-size="9.936">VCC</text>
                </g>
            </g>
        </g>
        <line fill="none"  stroke="#000000" stroke-linejoin="round" stroke-linecap="round" y1="1.2" stroke-width="2.4" x1="202.546" y2="21.26" x2="202.546"/>
        <rect width="2.4" x="201.346" y="0" fill="none" gorn="0.2.77"  height="21.26" id="connector5pin"/>
        <polygon fill="none" points="201.346,0 203.746,0 203.746,0 " gorn="0.2.78"  id="connector5terminal"/>
        <g  transform="matrix(1 0 0 1 191.3392 33.8599)">
            <g >
                <g >
                    <text font-family="DroidSans" gorn="0.2.79.0.0.0"  id="label5" font-size="9.936">VBAT</text>
                </g>
            </g>
        </g>
        <line fill="none"  stroke="#000000" stroke-linejoin="round" stroke-linecap="round" y1="278.778" stroke-width="2.4" x1="181.909" y2="298.837" x2="181.909"/>
        <rect width="2.4" x="180.708" y="278.778" fill="none"  height="21.26"/>
        <polygon fill="none" points="180.708,300.038 183.108,300.038 183.108,300.038 " />
        <g  transform="matrix(1 0 0 1 171.4616 273.018)">
            <g >
                <g >
                    <text font-family="DroidSans" gorn="0.2.83.0.0.0"  id="label1" font-size="9.936">GND</text>
                </g>
            </g>
        </g>
        <rect width="2.4" x="170.078" y="0" fill="none"  height="21.26"/>
        <polygon fill="none" points="170.078,0 172.478,0 172.478,0 " />
        <rect width="2.4" x="170.078" y="0" fill="none"  height="21.26"/>
        <polygon fill="none" points="170.078,0 172.478,0 172.478,0 " />
        <rect width="2.4" x="170.078" y="0" fill="none" gorn="0.2.88"  height="21.26" id="connector7pin"/>
        <polygon fill="none" points="170.078,0 172.478,0 172.478,0 " gorn="0.2.89"  id="connector26terminal"/>
        <rect width="2.4" x="180.708" y="278.778" fill="none"  height="21.26"/>
        <polygon fill="none" points="180.708,300.038 183.108,300.038 183.108,300.038 " />
        <rect width="2.4" x="180.708" y="278.778" fill="none"  height="21.26"/>
        <polygon fill="none" points="180.708,300.038 183.108,300.038 183.108,300.038 " />
        <rect width="2.4" x="180.708" y="278.778" fill="none" gorn="0.2.94"  height="21.26" id="connector24pin"/>
        <polygon fill="none" points="180.708,300.038 183.108,300.038 183.108,300.038 " gorn="0.2.95"  id="connector24terminal"/>
        <rect width="2.4" x="180.708" y="278.778" fill="none" gorn="0.2.96"  height="21.26" id="connector8pin"/>
        <polygon fill="none" points="180.708,300.038 183.108,300.038 183.108,300.038 " gorn="0.2.97"  id="connector25terminal"/>
    </g>
</svg>
