<?xml version='1.0' encoding='utf-8'?>
<!DOCTYPE svg>
<!-- Generator: Adobe Illustrator 17.0.0, SVG Export Plug-In . SVG Version: 6.00 Build 0)  -->
<svg xmlns="http://www.w3.org/2000/svg" width="5.05301in" x="0px" version="1.1" y="0px" gorn="0"  height="1.55526in" viewBox="0 0 363.817 111.979" xmlns:xml="http://www.w3.org/XML/1998/namespace" id="Layer_1" enable-background="new 0 0 363.817 111.979" xml:space="preserve">
    <desc >
        <referenceFile >Antenna GPS Embedded SMA_schematic.svg</referenceFile>
    </desc>
    <desc >Fritzing schematic generated by brd2svg</desc>
    <g gorn="0.2"  id="schematic">
        <rect width="318.897" x="22.46" y="22.46" fill="none"  height="67.059" stroke="#000000" stroke-linejoin="round" stroke-linecap="round" stroke-width="2.4"/>
        <g  transform="matrix(1 0 0 1 56.1867 64.9795)">
            <g >
                <g >
                    <text font-family="DroidSans" gorn="0.2.1.0.0.0"  id="label" font-size="18">Antenna GPS Embedded SMA</text>
                </g>
            </g>
        </g>
        <line fill="none"  stroke="#000000" stroke-linejoin="round" stroke-linecap="round" y1="1.2" stroke-width="2.4" x1="178.503" y2="21.26" x2="178.503"/>
        <rect width="2.4" x="177.302" y="0" fill="none"  height="21.26"/>
        <polygon fill="none" points="177.302,0 179.702,0 179.702,0 " />
        <g  transform="matrix(1 0 0 1 169.8886 33.8599)">
            <g >
                <g >
                    <text font-family="DroidSans" gorn="0.2.5.0.0.0"  id="label0" font-size="9.936">VCC</text>
                </g>
            </g>
        </g>
        <line fill="none"  stroke="#000000" stroke-linejoin="round" stroke-linecap="round" y1="90.719" stroke-width="2.4" x1="181.909" y2="110.778" x2="181.909"/>
        <rect width="2.4" x="180.708" y="90.719" fill="none"  height="21.26"/>
        <polygon fill="none" points="180.708,111.979 183.108,111.979 183.108,111.979 " />
        <g  transform="matrix(1 0 0 1 171.4616 84.9591)">
            <g >
                <g >
                    <text font-family="DroidSans" gorn="0.2.9.0.0.0"  id="label1" font-size="9.936">GND</text>
                </g>
            </g>
        </g>
        <rect width="2.4" x="177.302" y="0" fill="none" gorn="0.2.10"  height="21.26" id="connector2pin"/>
        <polygon fill="none" points="177.302,0 179.702,0 179.702,0 " gorn="0.2.11"  id="connector2terminal"/>
        <rect width="2.4" x="177.302" y="0" fill="none" gorn="0.2.12"  height="21.26" id="connector11pin"/>
        <polygon fill="none" points="177.302,0 179.702,0 179.702,0 " gorn="0.2.13"  id="connector11terminal"/>
        <rect width="2.4" x="177.302" y="0" fill="none" gorn="0.2.14"  height="21.26" id="connector0pin"/>
        <polygon fill="none" points="177.302,0 179.702,0 179.702,0 " gorn="0.2.15"  id="connector26terminal"/>
        <rect width="2.4" x="180.708" y="90.719" fill="none" gorn="0.2.16"  height="21.26" id="connector3pin"/>
        <polygon fill="none" points="180.708,111.979 183.108,111.979 183.108,111.979 " gorn="0.2.17"  id="connector3terminal"/>
        <rect width="2.4" x="180.708" y="90.719" fill="none" gorn="0.2.18"  height="21.26" id="connector12pin"/>
        <polygon fill="none" points="180.708,111.979 183.108,111.979 183.108,111.979 " gorn="0.2.19"  id="connector12terminal"/>
        <rect width="2.4" x="180.708" y="90.719" fill="none" gorn="0.2.20"  height="21.26" id="connector24pin"/>
        <polygon fill="none" points="180.708,111.979 183.108,111.979 183.108,111.979 " gorn="0.2.21"  id="connector24terminal"/>
        <rect width="2.4" x="180.708" y="90.719" fill="none" gorn="0.2.22"  height="21.26" id="connector1pin"/>
        <polygon fill="none" points="180.708,111.979 183.108,111.979 183.108,111.979 " gorn="0.2.23"  id="connector25terminal"/>
    </g>
</svg>
