<?xml version='1.0' encoding='utf-8'?>
<!DOCTYPE svg>
<!-- Generator: Adobe Illustrator 17.1.0, SVG Export Plug-In . SVG Version: 6.00 Build 0)  -->
<svg xmlns="http://www.w3.org/2000/svg" gorn="0" viewBox="0 0 301.2 139"  x="0px" height="1.93056in" y="0px" xml:space="preserve" xmlns:xml="http://www.w3.org/XML/1998/namespace" version="1.1" enable-background="new 0 21 301.2 139" id="Layer_1" width="4.18333in">
    <desc >
        <referenceFile >TRRS_Breakout-v10_schematic.svg</referenceFile>
    </desc>
    <g  transform="translate(0,-21)">
        <g >
            <g >
                <desc >Fritzing schematic generated by brd2svg</desc>
                <g gorn="0.1.0.0.1"  id="schematic">
                    <rect stroke-width="2.4" stroke="#000000"  x="22.5" stroke-linecap="round" height="137.5" y="22.5" fill="none" stroke-linejoin="round" width="276.4"/>
                    <g  transform="matrix(1 0 0 1 88.3771 72.6463)">
                        <g >
                            <g  enable-background="new    ">
                                <text font-size="18"  x="0" y="0" font-family="DroidSans">TRRS 3.5mm Jack </text>
                                <text font-size="18"  x="34.5" y="21.6" font-family="DroidSans">Breakout</text>
                            </g>
                        </g>
                    </g>
                    <rect gorn="0.1.0.0.1.2"  x="298.8" height="2.4" y="133.8" fill="none" id="connector82terminal" width="2.4"/>
                    <rect gorn="0.1.0.0.1.3"  x="298.8" height="2.4" y="90.4" fill="none" id="connector108terminal" width="2.4"/>
                    <rect gorn="0.1.0.0.1.4"  x="298.8" height="2.4" y="72.1" fill="none" id="connector110terminal" width="2.4"/>
                    <rect gorn="0.1.0.0.1.5"  x="298.8" height="2.4" y="54.8" fill="none" id="connector110terminal_1_" width="2.4"/>
                    <line stroke-width="2.4" stroke="#000000" y1="59.3" y2="59.3"  stroke-linecap="round" x1="1.2" fill="none" x2="21.3" stroke-linejoin="round"/>
                    <rect gorn="0.1.0.0.1.7"  x="0" height="2.4" y="58.1" fill="none" id="connector41pin" width="21.3"/>
                    <rect gorn="0.1.0.0.1.8"  x="0" height="2.4" y="58.1" fill="none" id="connector41terminal" width="2.4"/>
                    <g  transform="matrix(1 0 0 1 27.7399 61.6973)">
                        <g >
                            <text gorn="0.1.0.0.1.9.0.0" font-size="9.936"  id="label41" font-family="DroidSans">SLEEVE</text>
                        </g>
                    </g>
                    <line stroke-width="2.4" stroke="#000000" y1="80.6" y2="80.6"  stroke-linecap="round" x1="1.2" fill="none" x2="21.3" stroke-linejoin="round"/>
                    <rect gorn="0.1.0.0.1.11"  x="0" height="2.4" y="79.4" fill="none" id="connector40pin" width="21.3"/>
                    <rect gorn="0.1.0.0.1.12"  x="0" height="2.4" y="79.4" fill="none" id="connector40terminal" width="2.4"/>
                    <g  transform="matrix(1 0 0 1 27.7399 82.9572)">
                        <g >
                            <text gorn="0.1.0.0.1.13.0.0" font-size="9.936"  id="label40" font-family="DroidSans">RING2</text>
                        </g>
                    </g>
                    <line stroke-width="2.4" stroke="#000000" y1="101.8" y2="101.8"  stroke-linecap="round" x1="1.2" fill="none" x2="21.3" stroke-linejoin="round"/>
                    <rect gorn="0.1.0.0.1.15"  x="0" height="2.4" y="100.6" fill="none" id="connector39pin" width="21.3"/>
                    <rect gorn="0.1.0.0.1.16"  x="0" height="2.4" y="100.6" fill="none" id="connector39terminal" width="2.4"/>
                    <g  transform="matrix(1 0 0 1 27.7399 104.2163)">
                        <g >
                            <text gorn="0.1.0.0.1.17.0.0" font-size="9.936"  id="label39" font-family="DroidSans">RING1</text>
                        </g>
                    </g>
                    <rect gorn="0.1.0.0.1.18"  x="19.5" height="2.4" y="139.5" fill="none" id="connector22terminal" width="2.4"/>
                    <rect gorn="0.1.0.0.1.19"  x="19.5" height="2.4" y="139.5" fill="none" id="connector21terminal" width="2.4"/>
                    <rect gorn="0.1.0.0.1.20"  x="298.8" height="2.4" y="133.8" fill="none" id="connector119terminal" width="2.4"/>
                    <rect gorn="0.1.0.0.1.21"  x="0" height="2.4" y="58.1" fill="none" id="connector180pin" width="21.3"/>
                    <rect gorn="0.1.0.0.1.22"  x="0" height="2.4" y="58.1" fill="none" id="connector180terminal" width="2.4"/>
                    <rect gorn="0.1.0.0.1.23"  x="0" height="2.4" y="58.1" fill="none" id="connector65pin" width="21.3"/>
                    <rect gorn="0.1.0.0.1.24"  x="0" height="2.4" y="58.1" fill="none" id="connector65terminal" width="2.4"/>
                    <rect gorn="0.1.0.0.1.25"  x="0" height="2.4" y="58.1" fill="none" id="connector135pin" width="21.3"/>
                    <rect gorn="0.1.0.0.1.26"  x="0" height="2.4" y="58.1" fill="none" id="connector135terminal" width="2.4"/>
                    <rect gorn="0.1.0.0.1.27"  x="0" height="2.4" y="58.1" fill="none" id="connector0pin" width="21.3"/>
                    <rect stroke-width="0" stroke="none" x="-0.0213" height="0.0048" fill="none" y="59.2976" id="connector0terminal" width="0.0426"/>
                    <rect gorn="0.1.0.0.1.28"  x="0" height="2.4" y="58.1" fill="none" id="connector98terminal" width="2.4"/>
                    <rect gorn="0.1.0.0.1.29"  x="0" height="2.4" y="79.4" fill="none" id="connector1pin" width="21.3"/>
                    <rect stroke-width="0" stroke="none" x="-0.0213" height="0.0048" fill="none" y="80.59760000000001" id="connector1terminal" width="0.0426"/>
                    <rect gorn="0.1.0.0.1.30"  x="0" height="2.4" y="79.4" fill="none" id="connector136terminal" width="2.4"/>
                    <rect gorn="0.1.0.0.1.31"  x="0" height="2.4" y="100.6" fill="none" id="connector4pin" width="21.3"/>
                    <rect stroke-width="0" stroke="none" x="-0.0213" height="0.0048" fill="none" y="101.7976" id="connector4terminal" width="0.0426"/>
                    <rect gorn="0.1.0.0.1.32"  x="0" height="2.4" y="100.6" fill="none" id="connector137terminal" width="2.4"/>
                    <line stroke-width="2.4" stroke="#000000" y1="122.8" y2="122.8"  stroke-linecap="round" x1="1.2" fill="none" x2="21.3" stroke-linejoin="round"/>
                    <rect gorn="0.1.0.0.1.34"  x="0" height="2.4" y="121.6" fill="none" id="connector39pin_1_" width="21.3"/>
                    <rect gorn="0.1.0.0.1.35"  x="0" height="2.4" y="121.6" fill="none" id="connector39terminal_1_" width="2.4"/>
                    <g  transform="matrix(1 0 0 1 27.7399 125.2163)">
                        <g >
                            <text gorn="0.1.0.0.1.36.0.0" font-size="9.936"  id="label39_1_" font-family="DroidSans">TIP</text>
                        </g>
                    </g>
                    <rect gorn="0.1.0.0.1.37"  x="0" height="2.4" y="121.6" fill="none" id="connector3pin" width="21.3"/>
                    <rect stroke-width="0" stroke="none" x="-0.0213" height="0.0048" fill="none" y="122.7976" id="connector3terminal" width="0.0426"/>
                    <rect gorn="0.1.0.0.1.38"  x="0" height="2.4" y="121.6" fill="none" id="connector137terminal_1_" width="2.4"/>
                    <rect gorn="0.1.0.0.1.39"  x="19.5" height="2.4" y="139.5" fill="none" id="connector56terminal" width="2.4"/>
                    <rect gorn="0.1.0.0.1.40"  x="19.5" height="2.4" y="139.5" fill="none" id="connector142terminal" width="2.4"/>
                    <rect gorn="0.1.0.0.1.41"  x="19.5" height="2.4" y="139.5" fill="none" id="connector31terminal" width="2.4"/>
                    <rect gorn="0.1.0.0.1.42"  x="19.5" height="2.4" y="139.5" fill="none" id="connector150terminal" width="2.4"/>
                    <rect gorn="0.1.0.0.1.43"  x="19.5" height="2.4" y="139.5" fill="none" id="connector32terminal" width="2.4"/>
                    <rect gorn="0.1.0.0.1.44"  x="19.5" height="2.4" y="139.5" fill="none" id="connector57terminal" width="2.4"/>
                    <rect gorn="0.1.0.0.1.45"  x="19.5" height="2.4" y="139.5" fill="none" id="connector143terminal" width="2.4"/>
                    <rect gorn="0.1.0.0.1.46"  x="19.5" height="2.4" y="139.5" fill="none" id="connector154terminal" width="2.4"/>
                </g>
            </g>
        </g>
    </g>
</svg>
