<?xml version='1.0' encoding='utf-8'?>
<!DOCTYPE svg>
<!-- Generator: Adobe Illustrator 17.0.0, SVG Export Plug-In . SVG Version: 6.00 Build 0)  -->
<svg xmlns="http://www.w3.org/2000/svg" width="4.16719in" x="0px" version="1.1" y="0px" gorn="0"  height="2.36803in" viewBox="0 0 300.038 170.498" xmlns:xml="http://www.w3.org/XML/1998/namespace" id="Layer_1" enable-background="new 0 0 300.038 170.498" xml:space="preserve">
    <desc >
        <referenceFile >sound-detector_schematic.svg</referenceFile>
    </desc>
    <desc >Fritzing schematic generated by brd2svg</desc>
    <g gorn="0.2"  id="schematic">
        <rect width="255.118" x="22.46" y="22.46" fill="none"  height="125.578" stroke="#000000" stroke-linejoin="round" stroke-linecap="round" stroke-width="2.4"/>
        <g  transform="matrix(1 0 0 1 88.0385 64.9796)">
            <g >
                <text font-family="DroidSans" gorn="0.2.1.0.0"  id="label" font-size="18">Sound Detector</text>
            </g>
        </g>
        <line fill="none"  stroke="#000000" stroke-linejoin="round" stroke-linecap="round" y1="64.98" stroke-width="2.4" x1="1.2" y2="64.98" x2="21.26"/>
        <rect width="21.26" x="0" y="63.78" fill="none" gorn="0.2.3"  height="2.4"/>
        <rect width="2.4" x="0" y="63.78" fill="none" gorn="0.2.4"  height="2.4"/>
        <g  transform="matrix(1 0 0 1 27.7399 67.3796)">
            <g >
                <text font-family="DroidSans" gorn="0.2.5.0.0"  id="label6" font-size="9.936">AUDIO</text>
            </g>
        </g>
        <line fill="none"  stroke="#000000" stroke-linejoin="round" stroke-linecap="round" y1="86.24" stroke-width="2.4" x1="1.2" y2="86.24" x2="21.26"/>
        <rect width="21.26" x="0" y="85.039" fill="none" gorn="0.2.7"  height="2.4"/>
        <rect width="2.4" x="0" y="85.039" fill="none" gorn="0.2.8"  height="2.4"/>
        <g  transform="matrix(1 0 0 1 27.7399 88.6393)">
            <g >
                <text font-family="DroidSans" gorn="0.2.9.0.0"  id="label3" font-size="9.936">ENVELOPE</text>
            </g>
        </g>
        <line fill="none"  stroke="#000000" stroke-linejoin="round" stroke-linecap="round" y1="107.499" stroke-width="2.4" x1="1.2" y2="107.499" x2="21.26"/>
        <rect width="21.26" x="0" y="106.299" fill="none" gorn="0.2.11"  height="2.4" id="connector7pin"/>
        <rect width="2.4" x="0" y="106.299" fill="none" gorn="0.2.12"  height="2.4" id="connector7terminal"/>
        <g  transform="matrix(1 0 0 1 27.7399 109.8992)">
            <g >
                <text font-family="DroidSans" gorn="0.2.13.0.0"  id="label7" font-size="9.936">GATE</text>
            </g>
        </g>
        <line fill="none"  stroke="#000000" stroke-linejoin="round" stroke-linecap="round" y1="1.2" stroke-width="2.4" x1="150.019" y2="21.26" x2="150.019"/>
        <rect width="2.4" x="148.819" y="0" fill="none" gorn="0.2.15"  height="21.26"/>
        <polygon fill="none" points="148.819,0 151.219,0 151.219,0 " gorn="0.2.16" />
        <g  transform="matrix(1 0 0 1 141.405 33.86)">
            <g >
                <text font-family="DroidSans" gorn="0.2.17.0.0"  id="label4" font-size="9.936">VCC</text>
            </g>
        </g>
        <line fill="none"  stroke="#000000" stroke-linejoin="round" stroke-linecap="round" y1="149.238" stroke-width="2.4" x1="150.019" y2="169.298" x2="150.019"/>
        <rect width="2.4" x="148.819" y="149.238" fill="none" gorn="0.2.19"  height="21.26"/>
        <polygon fill="none" points="148.819,170.498 151.219,170.498 151.219,170.498 " gorn="0.2.20" />
        <g  transform="matrix(1 0 0 1 139.5712 143.4777)">
            <g >
                <text font-family="DroidSans" gorn="0.2.21.0.0"  id="label1" font-size="9.936">GND</text>
            </g>
        </g>
        <rect width="2.4" x="148.819" y="0" fill="none" gorn="0.2.22"  height="21.26" id="connector17pin"/>
        <polygon fill="none" points="148.819,0 151.219,0 151.219,0 " gorn="0.2.23"  id="connector17terminal"/>
        <rect width="2.4" x="148.819" y="0" fill="none" gorn="0.2.24"  height="21.26" id="connector29pin"/>
        <polygon fill="none" points="148.819,0 151.219,0 151.219,0 " gorn="0.2.25"  id="connector29terminal"/>
        <rect width="2.4" x="148.819" y="0" fill="none" gorn="0.2.26"  height="21.26" id="connector36pin"/>
        <polygon fill="none" points="148.819,0 151.219,0 151.219,0 " gorn="0.2.27"  id="connector36terminal"/>
        <rect width="2.4" x="148.819" y="0" fill="none" gorn="0.2.28"  height="21.26" id="connector44pin"/>
        <polygon fill="none" points="148.819,0 151.219,0 151.219,0 " gorn="0.2.29"  id="connector44terminal"/>
        <rect width="2.4" x="148.819" y="0" fill="none" gorn="0.2.30"  height="21.26" id="connector3pin"/>
        <polygon fill="none" points="148.819,0 151.219,0 151.219,0 " gorn="0.2.31"  id="connector56terminal"/>
        <rect width="2.4" x="148.819" y="149.238" fill="none" gorn="0.2.32"  height="21.26"/>
        <polygon fill="none" points="148.819,170.498 151.219,170.498 151.219,170.498 " gorn="0.2.33" />
        <rect width="2.4" x="148.819" y="149.238" fill="none" gorn="0.2.34"  height="21.26" id="connector18pin"/>
        <polygon fill="none" points="148.819,170.498 151.219,170.498 151.219,170.498 " gorn="0.2.35"  id="connector18terminal"/>
        <rect width="2.4" x="148.819" y="149.238" fill="none" gorn="0.2.36"  height="21.26" id="connector24pin"/>
        <polygon fill="none" points="148.819,170.498 151.219,170.498 151.219,170.498 " gorn="0.2.37"  id="connector24terminal"/>
        <rect width="2.4" x="148.819" y="149.238" fill="none" gorn="0.2.38"  height="21.26" id="connector28pin"/>
        <polygon fill="none" points="148.819,170.498 151.219,170.498 151.219,170.498 " gorn="0.2.39"  id="connector28terminal"/>
        <rect width="2.4" x="148.819" y="149.238" fill="none" gorn="0.2.40"  height="21.26" id="connector45pin"/>
        <polygon fill="none" points="148.819,170.498 151.219,170.498 151.219,170.498 " gorn="0.2.41"  id="connector45terminal"/>
        <rect width="2.4" x="148.819" y="149.238" fill="none" gorn="0.2.42"  height="21.26" id="connector51pin"/>
        <polygon fill="none" points="148.819,170.498 151.219,170.498 151.219,170.498 " gorn="0.2.43"  id="connector51terminal"/>
        <rect width="2.4" x="148.819" y="149.238" fill="none" gorn="0.2.44"  height="21.26" id="connector57pin"/>
        <polygon fill="none" points="148.819,170.498 151.219,170.498 151.219,170.498 " gorn="0.2.45"  id="connector57terminal"/>
        <rect width="2.4" x="148.819" y="149.238" fill="none" gorn="0.2.46"  height="21.26" id="connector4pin"/>
        <polygon fill="none" points="148.819,170.498 151.219,170.498 151.219,170.498 " gorn="0.2.47"  id="connector65terminal"/>
        <rect width="21.26" x="0" y="63.78" fill="none" gorn="0.2.48"  height="2.4" id="connector14pin"/>
        <rect width="2.4" x="0" y="63.78" fill="none" gorn="0.2.49"  height="2.4" id="connector14terminal"/>
        <rect width="21.26" x="0" y="85.039" fill="none" gorn="0.2.50"  height="2.4" id="connector1pin"/>
        <rect width="2.4" x="0" y="85.039" fill="none" gorn="0.2.51"  height="2.4" id="connector37terminal"/>
        <rect width="21.26" x="0" y="106.299" fill="none" gorn="0.2.52"  height="2.4" id="connector2pin"/>
        <rect width="2.4" x="0" y="106.299" fill="none" gorn="0.2.53"  height="2.4" id="connector41terminal"/>
        <rect width="21.26" x="0" y="63.78" fill="none" gorn="0.2.54"  height="2.4" id="connector71pin"/>
        <rect width="2.4" x="0" y="63.78" fill="none" gorn="0.2.55"  height="2.4" id="connector71terminal"/>
        <rect width="21.26" x="0" y="63.78" fill="none" gorn="0.2.56"  height="2.4" id="connector0pin"/>
        <rect width="2.4" x="0" y="63.78" fill="none" gorn="0.2.57"  height="2.4" id="connector40terminal"/>
        <line fill="none"  stroke="#000000" stroke-linejoin="round" stroke-linecap="round" y1="64.98" stroke-width="2.4" x1="278.778" y2="64.98" x2="298.838"/>
        <rect width="21.26" x="277.578" y="63.78" fill="none" gorn="0.2.59"  height="2.4" id="connector6pin_1_"/>
        <rect width="2.4" x="277.578" y="63.78" fill="none" gorn="0.2.60"  height="2.4" id="connector6terminal_1_"/>
        <g  transform="matrix(1 0 0 1 251.8177 67.3796)">
            <g >
                <text font-family="DroidSans" gorn="0.2.61.0.0"  id="label6_1_" font-size="9.936">R17</text>
            </g>
        </g>
        <rect width="21.26" x="277.578" y="63.78" fill="none" gorn="0.2.62"  height="2.4" id="connector14pin_1_"/>
        <rect width="2.4" x="277.578" y="63.78" fill="none" gorn="0.2.63"  height="2.4" id="connector14terminal_1_"/>
        <rect width="21.26" x="277.578" y="63.78" fill="none" gorn="0.2.64"  height="2.4" id="connector5pin"/>
        <rect width="2.4" x="277.578" y="63.78" fill="none" gorn="0.2.65"  height="2.4" id="connector71terminal_1_"/>
        <rect width="21.26" x="277.578" y="63.78" fill="none" gorn="0.2.66"  height="2.4" id="connector6pin"/>
        <rect width="2.4" x="277.578" y="63.78" fill="none" gorn="0.2.67"  height="2.4" id="connector40terminal_1_"/>
    </g>
</svg>
