<?xml version='1.0' encoding='utf-8'?>
<!DOCTYPE svg>
<!-- Generator: Adobe Illustrator 16.0.0, SVG Export Plug-In . SVG Version: 6.00 Build 0)  -->
<svg xmlns="http://www.w3.org/2000/svg"  width="2.985in" xml:space="preserve" xmlns:xml="http://www.w3.org/XML/1998/namespace" x="0px" version="1.1" y="0px" height="5.63in" viewBox="0 0 214.92 405.36" id="0" enable-background="new 0 0 214.92 405.36">
<desc><referenceFile>schematic-arduino-uno-r3.svg</referenceFile></desc>

 <g   id="schematic">
  <rect  width="10.488" x="1.299" y="126.765" fill="none"  height="2.1" id="connector28pin"/>
  <rect  width="10.488" x="1.299" y="105.884" fill="none"  height="2.1" id="connector29pin"/>
  <rect  width="10.488" x="1.299" y="85.004" fill="none"  height="2.1" id="connector0pin"/>
  <rect  width="2.099" x="106.41" y="393.897" fill="none"  height="10.488" id="connector1pin"/>
  <rect  width="10.486" x="203.165" y="42.676" fill="none"  height="2.099" id="connector2pin"/>
  <rect  width="10.488" x="203.172" y="63.912" fill="none"  height="2.099" id="connector3pin"/>
  <rect  width="10.488" x="203.172" y="85.148" fill="none"  height="2.099" id="connector4pin"/>
  <rect  width="10.488" x="203.172" y="106.387" fill="none"  height="2.098" id="connector5pin"/>
  <rect  width="10.488" x="203.172" y="127.622" fill="none"  height="2.099" id="connector6pin"/>
  <rect  width="10.488" x="203.172" y="148.857" fill="none"  height="2.099" id="connector7pin"/>
  <rect  width="10.488" x="203.172" y="170.095" fill="none"  height="2.099" id="connector8pin"/>
  <rect  width="10.488" x="203.172" y="191.331" fill="none"  height="2.1" id="connector9pin"/>
  <rect  width="10.488" x="203.172" y="212.567" fill="none"  height="2.1" id="connector10pin"/>
  <rect  width="10.488" x="203.172" y="233.803" fill="none"  height="2.098" id="connector11pin"/>
  <rect  width="10.488" x="203.172" y="255.04" fill="none"  height="2.102" id="connector12pin"/>
  <rect  width="10.488" x="203.172" y="276.276" fill="none"  height="2.098" id="connector13pin"/>
  <rect  width="10.488" x="203.172" y="297.51" fill="none"  height="2.1" id="connector14pin"/>
  <rect  width="10.488" x="203.172" y="360.508" fill="none"  height="2.1" id="connector31pin"/>
  <rect  width="10.488" x="203.172" y="339.627" fill="none"  height="2.1" id="connector30pin"/>
  <rect  width="10.488" x="203.172" y="318.747" fill="none"  height="2.1" id="connector15pin"/>
  <rect  width="10.486" x="1.289" y="63.768" fill="none"  height="2.099" id="connector16pin"/>
  <rect  width="2.101" x="63.896" y="0.975" fill="none"  height="10.488" id="connector17pin"/>
  <rect  width="2.098" x="85.132" y="0.975" fill="none"  height="10.488" id="connector18pin"/>
  <rect  width="2.097" x="106.406" y="393.897" fill="none"  height="10.488" id="connector19pin"/>
  <rect  width="2.099" x="106.41" y="393.897" fill="none"  height="10.488" id="connector20pin"/>
  <rect  width="2.1" x="148.841" y="0.975" fill="none"  height="10.488" id="connector21pin"/>
  <rect  width="10.488" x="1.26" y="233.637" fill="none"  height="2.099" id="connector22pin"/>
  <rect  width="10.488" x="1.26" y="254.874" fill="none"  height="2.102" id="connector23pin"/>
  <rect  width="10.488" x="1.26" y="276.109" fill="none"  height="2.099" id="connector24pin"/>
  <rect  width="10.488" x="1.26" y="297.345" fill="none"  height="2.099" id="connector25pin"/>
  <rect  width="10.488" x="1.26" y="318.584" fill="none"  height="2.098" id="connector26pin"/>
  <rect  width="10.488" x="1.26" y="339.819" fill="none"  height="2.098" id="connector27pin"/>
  <rect  width="1.995" x="1.299" y="126.765" fill="none"  height="2.1" id="connector28terminal"/>
  <rect  width="1.995" x="1.299" y="105.884" fill="none"  height="2.1" id="connector29terminal"/>
  <rect  width="1.995" x="1.299" y="85.004" fill="none"  height="2.1" id="connector0terminal"/>
  <rect  width="2.099" x="106.41" y="402.393" fill="none"  height="1.992" id="connector1terminal"/>
  <rect  width="1.992" x="211.659" y="42.676" fill="none"  height="2.099" id="connector2terminal"/>
  <rect  width="1.994" x="211.667" y="63.912" fill="none"  height="2.099" id="connector3terminal"/>
  <rect  width="1.994" x="211.667" y="85.148" fill="none"  height="2.099" id="connector4terminal"/>
  <rect  width="1.994" x="211.667" y="106.387" fill="none"  height="2.098" id="connector5terminal"/>
  <rect  width="1.994" x="211.667" y="127.622" fill="none"  height="2.099" id="connector6terminal"/>
  <rect  width="1.994" x="211.667" y="148.857" fill="none"  height="2.099" id="connector7terminal"/>
  <rect  width="1.994" x="211.667" y="170.095" fill="none"  height="2.099" id="connector8terminal"/>
  <rect  width="1.994" x="211.667" y="191.331" fill="none"  height="2.1" id="connector9terminal"/>
  <rect  width="1.994" x="211.667" y="212.567" fill="none"  height="2.1" id="connector10terminal"/>
  <rect  width="1.994" x="211.667" y="233.803" fill="none"  height="2.098" id="connector11terminal"/>
  <rect  width="1.994" x="211.667" y="255.04" fill="none"  height="2.102" id="connector12terminal"/>
  <rect  width="1.994" x="211.667" y="276.276" fill="none"  height="2.098" id="connector13terminal"/>
  <rect  width="1.994" x="211.667" y="297.51" fill="none"  height="2.1" id="connector14terminal"/>
  <rect  width="1.994" x="211.667" y="360.508" fill="none"  height="2.1" id="connector31terminal"/>
  <rect  width="1.994" x="211.667" y="339.627" fill="none"  height="2.1" id="connector30terminal"/>
  <rect  width="1.994" x="211.667" y="318.747" fill="none"  height="2.1" id="connector15terminal"/>
  <rect  width="1.995" x="1.289" y="63.768" fill="none"  height="2.099" id="connector16terminal"/>
  <rect  width="2.101" x="63.896" y="0.975" fill="none"  height="1.995" id="connector17terminal"/>
  <rect  width="2.098" x="85.132" y="0.975" fill="none"  height="1.995" id="connector18terminal"/>
  <rect  width="2.097" x="106.406" y="402.393" fill="none"  height="1.992" id="connector19terminal"/>
  <rect  width="2.099" x="106.41" y="402.393" fill="none"  height="1.992" id="connector20terminal"/>
  <rect  width="2.1" x="148.841" y="0.975" fill="none"  height="1.995" id="connector21terminal"/>
  <rect  width="1.995" x="1.26" y="233.637" fill="none"  height="2.099" id="connector22terminal"/>
  <rect  width="1.995" x="1.26" y="254.874" fill="none"  height="2.102" id="connector23terminal"/>
  <rect  width="1.995" x="1.26" y="276.109" fill="none"  height="2.099" id="connector24terminal"/>
  <rect  width="1.995" x="1.26" y="297.345" fill="none"  height="2.099" id="connector25terminal"/>
  <rect  width="1.995" x="1.26" y="318.584" fill="none"  height="2.098" id="connector26terminal"/>
  <rect  width="1.995" x="1.26" y="339.819" fill="none"  height="2.098" id="connector27terminal"/>
  <g   id="0.0.64">
   <rect  width="169.973" x="22.446" y="22.211" fill="none"  height="360.936" stroke="#000000" stroke-linejoin="round" stroke-linecap="round" id="0.0.64.0" stroke-width="2.415"/>
   <line  fill="none"  stroke="#000000" stroke-linejoin="round" stroke-linecap="round" id="0.0.64.1" y1="64.65" stroke-width="2.2495" x1="1.291" y2="64.65" x2="22.527"/>
   <line  fill="none"  stroke="#000000" stroke-linejoin="round" stroke-linecap="round" id="0.0.64.2" y1="127.648" stroke-width="2.415" x1="1.299" y2="127.648" x2="22.446"/>
   <text  font-family="'DroidSans'"  id="0.0.64.3" transform="matrix(1 0 0 1 30.4224 130.1953)" font-size="9.9889">N/C</text>
   <line  fill="none"  stroke="#000000" stroke-linejoin="round" stroke-linecap="round" id="0.0.64.4" y1="106.768" stroke-width="2.415" x1="1.299" y2="106.768" x2="22.446"/>
   <g   enable-background="new    " id="0.0.64.5" transform="matrix(1 0 0 1 30.4224 109.3154)">
    <text  x="0" y="0" font-family="'DroidSans'"  id="0.0.64.5.0" font-size="9.9889">I</text>
    <text  x="3.288" y="0" font-family="'DroidSans'"  id="0.0.64.5.1" font-size="9.9889">O REF</text>
   </g>
   <line  fill="none"  stroke="#000000" stroke-linejoin="round" stroke-linecap="round" id="0.0.64.6" y1="85.887" stroke-width="2.415" x1="1.299" y2="85.887" x2="22.446"/>
   <line  fill="none"  stroke="#000000" stroke-linejoin="round" stroke-linecap="round" id="0.0.64.7" y1="234.518" stroke-width="2.415" x1="1.26" y2="234.518" x2="22.446"/>
   <line  fill="none"  stroke="#000000" stroke-linejoin="round" stroke-linecap="round" id="0.0.64.8" y1="255.754" stroke-width="2.415" x1="1.26" y2="255.754" x2="22.446"/>
   <line  fill="none"  stroke="#000000" stroke-linejoin="round" stroke-linecap="round" id="0.0.64.9" y1="276.989" stroke-width="2.415" x1="1.26" y2="276.989" x2="22.446"/>
   <line  fill="none"  stroke="#000000" stroke-linejoin="round" stroke-linecap="round" id="0.0.64.10" y1="298.225" stroke-width="2.415" x1="1.26" y2="298.225" x2="22.446"/>
   <line  fill="none"  stroke="#000000" stroke-linejoin="round" stroke-linecap="round" id="0.0.64.11" y1="319.463" stroke-width="2.415" x1="1.26" y2="319.463" x2="22.446"/>
   <line  fill="none"  stroke="#000000" stroke-linejoin="round" stroke-linecap="round" id="0.0.64.12" y1="340.7" stroke-width="2.415" x1="1.26" y2="340.7" x2="22.446"/>
   <line  fill="none"  stroke="#000000" stroke-linejoin="round" stroke-linecap="round" id="0.0.64.13" y1="43.894" stroke-width="1.9517" x1="213.653" y2="43.894" x2="192.418"/>
   <line  fill="none"  stroke="#000000" stroke-linejoin="round" stroke-linecap="round" id="0.0.64.14" y1="65.129" stroke-width="2.415" x1="213.66" y2="65.129" x2="192.418"/>
   <line  fill="none"  stroke="#000000" stroke-linejoin="round" stroke-linecap="round" id="0.0.64.15" y1="86.367" stroke-width="2.415" x1="213.66" y2="86.367" x2="192.418"/>
   <line  fill="none"  stroke="#000000" stroke-linejoin="round" stroke-linecap="round" id="0.0.64.16" y1="107.603" stroke-width="2.415" x1="213.66" y2="107.603" x2="192.418"/>
   <line  fill="none"  stroke="#000000" stroke-linejoin="round" stroke-linecap="round" id="0.0.64.17" y1="128.838" stroke-width="2.415" x1="213.66" y2="128.838" x2="192.418"/>
   <line  fill="none"  stroke="#000000" stroke-linejoin="round" stroke-linecap="round" id="0.0.64.18" y1="150.076" stroke-width="2.415" x1="213.66" y2="150.076" x2="192.418"/>
   <line  fill="none"  stroke="#000000" stroke-linejoin="round" stroke-linecap="round" id="0.0.64.19" y1="171.312" stroke-width="2.415" x1="213.66" y2="171.312" x2="192.418"/>
   <line  fill="none"  stroke="#000000" stroke-linejoin="round" stroke-linecap="round" id="0.0.64.20" y1="192.548" stroke-width="2.415" x1="213.66" y2="192.548" x2="192.418"/>
   <line  fill="none"  stroke="#000000" stroke-linejoin="round" stroke-linecap="round" id="0.0.64.21" y1="213.784" stroke-width="2.415" x1="213.66" y2="213.784" x2="192.418"/>
   <line  fill="none"  stroke="#000000" stroke-linejoin="round" stroke-linecap="round" id="0.0.64.22" y1="235.02" stroke-width="2.415" x1="213.66" y2="235.02" x2="192.418"/>
   <line  fill="none"  stroke="#000000" stroke-linejoin="round" stroke-linecap="round" id="0.0.64.23" y1="256.256" stroke-width="2.415" x1="213.66" y2="256.256" x2="192.418"/>
   <line  fill="none"  stroke="#000000" stroke-linejoin="round" stroke-linecap="round" id="0.0.64.24" y1="277.495" stroke-width="2.415" x1="213.66" y2="277.495" x2="192.418"/>
   <line  fill="none"  stroke="#000000" stroke-linejoin="round" stroke-linecap="round" id="0.0.64.25" y1="340.491" stroke-width="2.415" x1="213.66" y2="340.491" x2="192.418"/>
   <line  fill="none"  stroke="#000000" stroke-linejoin="round" stroke-linecap="round" id="0.0.64.26" y1="361.727" stroke-width="2.415" x1="213.66" y2="361.727" x2="192.418"/>
   <text  font-family="'DroidSans'"  id="0.0.64.27" transform="matrix(1 0 0 1 165.7803 343.2427)" font-size="9.9889">SCL</text>
   <g   enable-background="new    " id="0.0.64.28" transform="matrix(1 0 0 1 163.8037 364.4243)">
    <text  x="0" y="0" font-family="'DroidSans'"  id="0.0.64.28.0" font-size="9.9889">S</text>
    <text  x="5.186" y="0" font-family="'DroidSans'"  id="0.0.64.28.1" font-size="9.9889">D</text>
    <text  x="11.921" y="0" font-family="'DroidSans'"  id="0.0.64.28.2" font-size="9.9889">A</text>
   </g>
   <line  fill="none"  stroke="#000000" stroke-linejoin="round" stroke-linecap="round" id="0.0.64.29" y1="298.729" stroke-width="2.415" x1="213.66" y2="298.729" x2="192.418"/>
   <line  fill="none"  stroke="#000000" stroke-linejoin="round" stroke-linecap="round" id="0.0.64.30" y1="319.965" stroke-width="2.415" x1="213.66" y2="319.965" x2="192.418"/>
   <text  font-family="'DroidSans'"  id="0.0.64.31" transform="matrix(1 0 0 1 30.4204 67.3672)" font-size="9.9889">RST</text>
   <text  font-family="'DroidSans'"  id="0.0.64.32" transform="matrix(1 0 0 1 30.4224 88.4355)" font-size="9.9889">AREF</text>
   <text  font-family="'DroidSans'"  id="0.0.64.33" transform="matrix(1 0 0 1 32.2925 237.0103)" font-size="9.9889">A0</text>
   <text  font-family="'DroidSans'"  id="0.0.64.34" transform="matrix(1 0 0 1 32.2925 258.4458)" font-size="9.9889">A1</text>
   <text  font-family="'DroidSans'"  id="0.0.64.35" transform="matrix(1 0 0 1 32.2925 279.8853)" font-size="9.9889">A2</text>
   <text  font-family="'DroidSans'"  id="0.0.64.36" transform="matrix(1 0 0 1 32.2925 301.3228)" font-size="9.9889">A3</text>
   <text  font-family="'DroidSans'"  id="0.0.64.37" transform="matrix(1 0 0 1 32.2925 322.7603)" font-size="9.9889">A4</text>
   <text  font-family="'DroidSans'"  id="0.0.64.38" transform="matrix(1 0 0 1 32.2925 344.1978)" font-size="9.9889">A5</text>
   <line  fill="none"  stroke="#000000" stroke-linejoin="round" stroke-linecap="round" id="0.0.64.39" y1="22.211" stroke-width="1.9517" x1="64.9" y2="0.975" x2="64.9"/>
   <line  fill="none"  stroke="#000000" stroke-linejoin="round" stroke-linecap="round" id="0.0.64.40" y1="22.211" stroke-width="1.9517" x1="86.136" y2="0.975" x2="86.136"/>
   <line  fill="none"  stroke="#000000" stroke-linejoin="round" stroke-linecap="round" id="0.0.64.41" y1="22.211" stroke-width="1.9517" x1="149.845" y2="0.975" x2="149.845"/>
   <text  font-family="'DroidSans'"  id="0.0.64.42" transform="matrix(1 0 0 1 56.5571 39.3721)" font-size="9.9889">3V3</text>
   <text  font-family="'DroidSans'"  id="0.0.64.43" transform="matrix(1 0 0 1 80.5503 39.3721)" font-size="9.9889">5V</text>
   <text  font-family="'DroidSans'"  id="0.0.64.44" transform="matrix(1 0 0 1 141.749 39.3721)" font-size="9.9889">Vin </text>
   <text  font-family="'DroidSans'"  id="0.0.64.45" transform="matrix(0 1 -1 0 57.3369 264.1118)" font-size="9.9889">Analog Input</text>
   <text  font-family="'DroidSans'"  id="0.0.64.46" transform="matrix(1 0 0 1 163.4346 88.8037)" font-size="9.9889">D11</text>
   <text  font-family="'DroidSans'"  id="0.0.64.47" transform="matrix(1 0 0 1 163.4346 110.4131)" font-size="9.9889">D10</text>
   <text  font-family="'DroidSans'"  id="0.0.64.48" transform="matrix(1 0 0 1 168.9346 131.5947)" font-size="9.9889">D9</text>
   <text  font-family="'DroidSans'"  id="0.0.64.49" transform="matrix(1 0 0 1 168.9346 152.3516)" font-size="9.9889">D8</text>
   <text  font-family="'DroidSans'"  id="0.0.64.50" transform="matrix(1 0 0 1 168.9346 173.9609)" font-size="9.9889">D7</text>
   <text  font-family="'DroidSans'"  id="0.0.64.51" transform="matrix(1 0 0 1 168.9346 194.7197)" font-size="9.9889">D6</text>
   <text  font-family="'DroidSans'"  id="0.0.64.52" transform="matrix(1 0 0 1 168.9346 216.3267)" font-size="9.9889">D5</text>
   <text  font-family="'DroidSans'"  id="0.0.64.53" transform="matrix(1 0 0 1 168.9346 237.5083)" font-size="9.9889">D4</text>
   <text  font-family="'DroidSans'"  id="0.0.64.54" transform="matrix(1 0 0 1 168.9346 259.1157)" font-size="9.9889">D3</text>
   <text  font-family="'DroidSans'"  id="0.0.64.55" transform="matrix(1 0 0 1 195.7061 253.0571)" font-size="6.9922">PWM</text>
   <text  font-family="'DroidSans'"  id="0.0.64.56" transform="matrix(1 0 0 1 196.6982 295.2173)" font-size="6.9922">TX</text>
   <text  font-family="'DroidSans'"  id="0.0.64.57" transform="matrix(1 0 0 1 196.6982 315.6138)" font-size="6.9922">RX</text>
   <text  font-family="'DroidSans'"  id="0.0.64.58" transform="matrix(1 0 0 1 195.7061 125.9219)" font-size="6.9922">PWM</text>
   <text  font-family="'DroidSans'"  id="0.0.64.59" transform="matrix(1 0 0 1 195.7061 104.583)" font-size="6.9922">PWM</text>
   <text  font-family="'DroidSans'"  id="0.0.64.60" transform="matrix(1 0 0 1 195.7061 210.5454)" font-size="6.9922">PWM</text>
   <text  font-family="'DroidSans'"  id="0.0.64.61" transform="matrix(1 0 0 1 195.7061 189.208)" font-size="6.9922">PWM</text>
   <text  font-family="'DroidSans'"  id="0.0.64.62" transform="matrix(1 0 0 1 195.7061 83.4561)" font-size="6.9922">PWM</text>
   <text  font-family="'DroidSans'"  id="0.0.64.63" transform="matrix(1 0 0 1 168.9346 279.8735)" font-size="9.9889">D2</text>
   <text  font-family="'DroidSans'"  id="0.0.64.64" transform="matrix(1 0 0 1 168.9346 301.481)" font-size="9.9889">D1</text>
   <text  font-family="'DroidSans'"  id="0.0.64.65" transform="matrix(1 0 0 1 163.4346 46.4385)" font-size="9.9889">D13</text>
   <text  font-family="'DroidSans'"  id="0.0.64.66" transform="matrix(1 0 0 1 163.4346 67.6211)" font-size="9.9889">D12</text>
   <text  font-family="'DroidSans'"  id="0.0.64.67" transform="matrix(1 0 0 1 168.9346 322.6646)" font-size="9.9889">D0</text>
   <text  font-family="'DroidSans'"  id="0.0.64.68" transform="matrix(0 -1 1 0 156.9346 242.4321)" font-size="9.9889">Digital Input/Output</text>
   <text  font-family="'DroidSans'"  id="0.0.64.69" transform="matrix(1 0 0 1 93.2798 53.918)" font-size="9.9889">Power</text>
   <text  font-family="'DroidSans'"  id="0.0.64.70" transform="matrix(1 0 0 1 46.6763 194.7197)" font-size="17.98">RedBoard </text>
   <line  fill="none"  stroke="#000000" stroke-linejoin="round" stroke-linecap="round" id="0.0.64.71" y1="404.385" stroke-width="1.9517" x1="107.458" y2="383.147" x2="107.458"/>
   <text  font-family="'DroidSans'"  id="0.0.64.72" transform="matrix(1 0 0 1 96.9272 372.9595)" font-size="9.9889">GND</text>
   <polygon  points="206.345,290.319 211.05,293.036 206.345,295.752 "  id="0.0.64.73"/>
   <polygon  points="211.05,316.364 206.345,313.643 211.05,310.928 "  id="0.0.64.74"/>
  </g>
 </g>
</svg>
