<?xml version='1.0' encoding='UTF-8' standalone='no'?>
<!-- Created with Fritzing (http://www.fritzing.org/) -->
<svg xmlns="http://www.w3.org/2000/svg"  width="1.3in" x="0in" version="1.2" y="0in" height="0.9in" viewBox="0 0 93.6 64.8" baseProfile="tiny">
 <desc >Fritzing schematic generated by brd2svg</desc>
 <g  id="schematic">
  <rect  width="64.35" x="14.4" y="14.4" fill="none" height="36" stroke="#000000" stroke-linejoin="round" stroke-linecap="round" stroke-width="0.9"/>
  <text  x="46.8" y="28.8" font-family="'Droid Sans'" fill="#000000" text-anchor="middle" stroke="none" id="label" font-size="3.5">SHT1x-Breakout</text>
  <line  fill="none" stroke="#787878" stroke-linejoin="round" stroke-linecap="round" y1="28.8" stroke-width="0.699998" x1="0.349999" y2="28.8" x2="14.4"/>
  <rect  width="14.4" x="0" y="28.45" fill="none" height="0.699998" id="connector5pin" stroke-width="0" connectorName="DATA"/>
  <rect  width="0" x="0" y="28.45" fill="none" height="0.699998" id="connector5terminal" stroke-width="0"/>
  <text  x="15.8" y="29.5" font-family="'Droid Sans'" fill="#8c8c8c" text-anchor="start" stroke="none" id="label5" font-size="3.5">DATA</text>
  <line  fill="none" stroke="#787878" stroke-linejoin="round" stroke-linecap="round" y1="28.8" stroke-width="0.699998" x1="78.8501" y2="28.8" x2="93.2501"/>
  <rect  width="14.4" x="79.2" y="28.45" fill="none" connectorname="SCK" height="0.699998" id="connector4pin" stroke-width="0"/>
  <rect  width="0" x="93.6" y="28.45" fill="none" height="0.699998" id="connector4terminal" stroke-width="0"/>
  <text  x="77.8003" y="29.5" font-family="'Droid Sans'" fill="#8c8c8c" text-anchor="end" stroke="none" id="label4" font-size="3.5">SCK</text>
  <line  fill="none" stroke="#787878" stroke-linejoin="round" stroke-linecap="round" y1="0.349999" stroke-width="0.699998" x1="43.2" y2="14.4" x2="43.2"/>
  <rect  width="0.699998" x="42.85" y="0" fill="none" connectorname="VCC" height="14.4" id="connector6pin" stroke-width="0"/>
  <rect  width="0.699998" x="42.85" y="0" fill="none" height="0" id="connector6terminal" stroke-width="0"/>
  <g  transform="matrix(1, 0, 0, 1, 44.6, 16)">
   <g  transform="rotate(270)">
    <text  x="0" y="0" font-family="'Droid Sans'" fill="#8c8c8c" text-anchor="end" stroke="none" id="label6" font-size="3.5">VCC</text>
   </g>
  </g>
  <line  fill="none" stroke="#787878" stroke-linejoin="round" stroke-linecap="round" y1="50.4" stroke-width="0.699998" x1="43.2" y2="64.45" x2="43.2"/>
  <rect  width="0.699998" x="42.85" y="50.4" fill="none" connectorname="GND" height="14.4" id="connector7pin" stroke-width="0"/>
  <rect  width="0.699998" x="42.85" y="64.8" fill="none" height="0" id="connector7terminal" stroke-width="0"/>
  <g  transform="matrix(1, 0, 0, 1, 44.6, 48.8)">
   <g  transform="rotate(270)">
    <text  x="0" y="0" font-family="'Droid Sans'" fill="#8c8c8c" text-anchor="start" stroke="none" id="label7" font-size="3.5">GND</text>
   </g>
  </g>
 </g>
</svg>
