<?xml version="1.0" encoding="utf-8"?>
<!-- Generator: Adobe Illustrator 16.0.0, SVG Export Plug-In . SVG Version: 6.00 Build 0)  -->
<!DOCTYPE svg PUBLIC "-//W3C//DTD SVG 1.1//EN" "http://www.w3.org/Graphics/SVG/1.1/DTD/svg11.dtd">
<svg version="1.1" id="Layer_1" xmlns="http://www.w3.org/2000/svg" xmlns:xlink="http://www.w3.org/1999/xlink" x="0px" y="0px"
	 width="86.4px" height="201.6px" viewBox="0 0 86.4 201.6" enable-background="new 0 0 86.4 201.6" xml:space="preserve">
<desc>Fritzing schematic generated by brd2svg</desc>
<g id="schematic">
	<rect x="14.4" y="14.4" fill="#FFFFFF" stroke="#000000" stroke-miterlimit="10" width="57.148" height="172.801"/>
	<g>
		<text id="label" transform="matrix(1 0 0 1 38.4207 100.0745)" font-family="'DroidSans'" font-size="3.5">SODAQ</text>
		<text id="label_1_" transform="matrix(1 0 0 1 39.5129 104.1741)" font-family="'DroidSans'" font-size="3.5">MBILI</text>
		<text transform="matrix(1 0 0 1 40.6877 107.675)" font-family="'DroidSans'" font-size="2.7">(rev4)</text>
	</g>
	<line fill="none" x1="0.35" y1="0.349" x2="14.4" y2="0.349"/>
	<rect id="connector252pin" x="0" y="0" fill="none" width="14.4" height="0.7"/>
	<rect id="connector252terminal" x="0" y="0" fill="none" width="0" height="0.7"/>
	
		<line fill="none" stroke="#787878" stroke-width="0.7" stroke-linecap="round" stroke-linejoin="round" x1="0.35" y1="28.8" x2="14.4" y2="28.8"/>
	<rect id="connector172pin" x="0" y="28.45" fill="none" width="14.4" height="0.698"/>
	<rect id="connector172terminal" x="0" y="28.45" fill="none" width="0" height="0.698"/>
	<text id="label172" transform="matrix(1 0 0 1 17.7996 29.4993)" fill="#8C8C8C" font-family="'DroidSans'" font-size="3.5">A0</text>
	
		<line fill="none" stroke="#787878" stroke-width="0.7" stroke-linecap="round" stroke-linejoin="round" x1="0.35" y1="36" x2="14.4" y2="36"/>
	<rect id="connector173pin" x="0" y="35.649" fill="none" width="14.4" height="0.7"/>
	<rect id="connector173terminal" x="0" y="35.649" fill="none" width="0" height="0.7"/>
	<text id="label173" transform="matrix(1 0 0 1 17.7996 36.6995)" fill="#8C8C8C" font-family="'DroidSans'" font-size="3.5">A1</text>
	
		<line fill="none" stroke="#787878" stroke-width="0.7" stroke-linecap="round" stroke-linejoin="round" x1="0.35" y1="43.2" x2="14.4" y2="43.2"/>
	<rect id="connector168pin" x="0" y="42.849" fill="none" width="14.4" height="0.7"/>
	<rect id="connector168terminal" x="0" y="42.849" fill="none" width="0" height="0.7"/>
	<text id="label168" transform="matrix(1 0 0 1 17.7996 43.8997)" fill="#8C8C8C" font-family="'DroidSans'" font-size="3.5">A2</text>
	
		<line fill="none" stroke="#787878" stroke-width="0.7" stroke-linecap="round" stroke-linejoin="round" x1="0.35" y1="50.399" x2="14.4" y2="50.399"/>
	<rect id="connector169pin" x="0" y="50.05" fill="none" width="14.4" height="0.7"/>
	<rect id="connector169terminal" x="0" y="50.05" fill="none" width="0" height="0.7"/>
	<text id="label169" transform="matrix(1 0 0 1 17.7996 51.0999)" fill="#8C8C8C" font-family="'DroidSans'" font-size="3.5">A3</text>
	
		<line fill="none" stroke="#787878" stroke-width="0.7" stroke-linecap="round" stroke-linejoin="round" x1="0.35" y1="57.599" x2="14.4" y2="57.599"/>
	<rect id="connector164pin" x="0" y="57.25" fill="none" width="14.4" height="0.7"/>
	<rect id="connector164terminal" x="0" y="57.25" fill="none" width="0" height="0.7"/>
	<text id="label164" transform="matrix(1 0 0 1 17.7996 58.2991)" fill="#8C8C8C" font-family="'DroidSans'" font-size="3.5">A4</text>
	
		<line fill="none" stroke="#787878" stroke-width="0.7" stroke-linecap="round" stroke-linejoin="round" x1="0.35" y1="64.8" x2="14.4" y2="64.8"/>
	<rect id="connector165pin" x="0" y="64.45" fill="none" width="14.4" height="0.699"/>
	<rect id="connector165terminal" x="0" y="64.45" fill="none" width="0" height="0.699"/>
	<text id="label165" transform="matrix(1 0 0 1 17.7996 65.4993)" fill="#8C8C8C" font-family="'DroidSans'" font-size="3.5">A5</text>
	<line fill="none" x1="0.35" y1="0" x2="14.4" y2="0"/>
	<rect id="connector253pin" x="0" y="0" fill="none" width="14.4" height="0.698"/>
	<rect id="connector253terminal" x="0" y="0" fill="none" width="0" height="0.698"/>
	<line fill="none" x1="0.35" y1="0" x2="14.4" y2="0"/>
	<rect id="connector267pin" x="0" y="0" fill="none" width="14.4" height="0.7"/>
	<rect id="connector267terminal" x="0" y="0" fill="none" width="0" height="0.7"/>
	<line fill="none" x1="0.35" y1="0" x2="14.4" y2="0"/>
	<rect id="connector280pin" x="0" y="0" fill="none" width="14.4" height="0.7"/>
	<rect id="connector280terminal" x="0" y="0" fill="none" width="0" height="0.7"/>
	<line fill="none" x1="0.35" y1="0" x2="14.4" y2="0"/>
	<rect id="connector268pin" x="0" y="0" fill="none" width="14.4" height="0.7"/>
	<rect id="connector268terminal" x="0" y="0" fill="none" width="0" height="0.7"/>
	<line fill="none" x1="0.35" y1="0" x2="14.4" y2="0"/>
	<rect id="connector262pin" x="0" y="0" fill="none" width="14.4" height="0.698"/>
	<rect id="connector262terminal" x="0" y="0" fill="none" width="0" height="0.698"/>
	<line fill="none" x1="0" y1="0.349" x2="14.4" y2="0.349"/>
	<rect id="connector226pin" x="0.349" y="0" fill="none" width="14.399" height="0.7"/>
	<rect id="connector226terminal" x="14.75" y="0" fill="none" width="0" height="0.7"/>
	<g>
		
			<line fill="none" stroke="#787878" stroke-width="0.7" stroke-linecap="round" stroke-linejoin="round" x1="71.65" y1="122.399" x2="86.051" y2="122.399"/>
		<rect id="connector180pin" x="72" y="122.049" fill="none" width="14.4" height="0.7"/>
		<rect id="connector180terminal" x="86.4" y="122.049" fill="none" width="0" height="0.7"/>
		<text id="label180" transform="matrix(1 0 0 1 60.5476 123.0989)" fill="#8C8C8C" font-family="'DroidSans'" font-size="3.5">TXD1</text>
		
			<line fill="none" stroke="#787878" stroke-width="0.7" stroke-linecap="round" stroke-linejoin="round" x1="71.65" y1="129.599" x2="86.051" y2="129.599"/>
		<rect id="connector184pin" x="72" y="129.249" fill="none" width="14.4" height="0.698"/>
		<rect id="connector184terminal" x="86.4" y="129.249" fill="none" width="0" height="0.698"/>
		<text id="label184" transform="matrix(1 0 0 1 60.5476 130.2991)" fill="#8C8C8C" font-family="'DroidSans'" font-size="3.5">TXD0</text>
		
			<line fill="none" stroke="#787878" stroke-width="0.7" stroke-linecap="round" stroke-linejoin="round" x1="71.65" y1="136.799" x2="86.051" y2="136.799"/>
		<rect id="connector231pin" x="72" y="136.448" fill="none" width="14.4" height="0.7"/>
		<rect id="connector231terminal" x="86.4" y="136.448" fill="none" width="0" height="0.7"/>
		<text id="label231" transform="matrix(1 0 0 1 62.2957 137.4993)" fill="#8C8C8C" font-family="'DroidSans'" font-size="3.5">SDA</text>
		
			<line fill="none" stroke="#787878" stroke-width="0.7" stroke-linecap="round" stroke-linejoin="round" x1="71.65" y1="143.999" x2="86.051" y2="143.999"/>
		<rect id="connector230pin" x="72" y="143.649" fill="none" width="14.4" height="0.7"/>
		<rect id="connector230terminal" x="86.4" y="143.649" fill="none" width="0" height="0.7"/>
		<text id="label230" transform="matrix(1 0 0 1 62.9539 144.6995)" fill="#8C8C8C" font-family="'DroidSans'" font-size="3.5">SCL</text>
		
			<line fill="none" stroke="#787878" stroke-width="0.7" stroke-linecap="round" stroke-linejoin="round" x1="71.65" y1="158.399" x2="86.051" y2="158.399"/>
		<rect id="connector181pin" x="72" y="158.05" fill="none" width="14.4" height="0.7"/>
		<rect id="connector181terminal" x="86.4" y="158.05" fill="none" width="0" height="0.7"/>
		<text id="label181" transform="matrix(1 0 0 1 60.2996 159.0989)" fill="#8C8C8C" font-family="'DroidSans'" font-size="3.5">RXD1</text>
		
			<line fill="none" stroke="#787878" stroke-width="0.7" stroke-linecap="round" stroke-linejoin="round" x1="71.65" y1="165.599" x2="86.051" y2="165.599"/>
		<rect id="connector185pin" x="72" y="165.25" fill="none" width="14.4" height="0.7"/>
		<rect id="connector185terminal" x="86.4" y="165.25" fill="none" width="0" height="0.7"/>
		<text id="label185" transform="matrix(1 0 0 1 60.2996 166.2991)" fill="#8C8C8C" font-family="'DroidSans'" font-size="3.5">RXD0</text>
	</g>
	<line fill="none" x1="0" y1="0" x2="14.4" y2="0"/>
	<rect id="connector228pin" x="0.349" y="0" fill="none" width="14.399" height="0.698"/>
	<rect id="connector228terminal" x="14.75" y="0" fill="none" width="0" height="0.698"/>
	<line fill="none" x1="0" y1="0" x2="14.4" y2="0"/>
	<rect id="connector266pin" x="0.349" y="0" fill="none" width="14.399" height="0.7"/>
	<rect id="connector266terminal" x="14.75" y="0" fill="none" width="0" height="0.7"/>
	<line fill="none" x1="0" y1="0" x2="14.4" y2="0"/>
	<rect id="connector227pin" x="0.349" y="0" fill="none" width="14.399" height="0.7"/>
	<rect id="connector227terminal" x="14.75" y="0" fill="none" width="0" height="0.7"/>
	<line fill="none" x1="0" y1="0" x2="14.4" y2="0"/>
	<rect id="connector224pin" x="0.349" y="0" fill="none" width="14.399" height="0.7"/>
	<rect id="connector224terminal" x="14.75" y="0" fill="none" width="0" height="0.7"/>
	
		<line fill="none" stroke="#787878" stroke-width="0.7" stroke-linecap="round" stroke-linejoin="round" x1="71.65" y1="57.599" x2="86.051" y2="57.599"/>
	<rect id="connector177pin" x="72" y="57.249" fill="none" width="14.4" height="0.698"/>
	<rect id="connector177terminal" x="86.4" y="57.249" fill="none" width="0" height="0.698"/>
	<text id="label177" transform="matrix(1 0 0 1 62.3503 58.2991)" fill="#8C8C8C" font-family="'DroidSans'" font-size="3.5">D11</text>
	
		<line fill="none" stroke="#787878" stroke-width="0.7" stroke-linecap="round" stroke-linejoin="round" x1="71.65" y1="64.799" x2="86.051" y2="64.799"/>
	<rect id="connector176pin" x="72" y="64.448" fill="none" width="14.4" height="0.7"/>
	<rect id="connector176terminal" x="86.4" y="64.448" fill="none" width="0" height="0.7"/>
	<text id="label176" transform="matrix(1 0 0 1 62.3503 65.4993)" fill="#8C8C8C" font-family="'DroidSans'" font-size="3.5">D10</text>
	
		<line fill="none" stroke="#787878" stroke-width="0.7" stroke-linecap="round" stroke-linejoin="round" x1="71.65" y1="86.4" x2="86.051" y2="86.4"/>
	<rect id="connector193pin" x="72" y="86.049" fill="none" width="14.4" height="0.7"/>
	<rect id="connector193terminal" x="86.4" y="86.049" fill="none" width="0" height="0.7"/>
	<text id="label193" transform="matrix(1 0 0 1 64.2781 87.0999)" fill="#8C8C8C" font-family="'DroidSans'" font-size="3.5">D7</text>
	
		<line fill="none" stroke="#787878" stroke-width="0.7" stroke-linecap="round" stroke-linejoin="round" x1="71.65" y1="93.599" x2="86.051" y2="93.599"/>
	<rect id="connector192pin" x="72" y="93.249" fill="none" width="14.4" height="0.7"/>
	<rect id="connector192terminal" x="86.4" y="93.249" fill="none" width="0" height="0.7"/>
	<text id="label192" transform="matrix(1 0 0 1 64.2781 94.3)" fill="#8C8C8C" font-family="'DroidSans'" font-size="3.5">D6</text>
	
		<line fill="none" stroke="#787878" stroke-width="0.7" stroke-linecap="round" stroke-linejoin="round" x1="71.65" y1="100.799" x2="86.051" y2="100.799"/>
	<rect id="connector189pin" x="72" y="100.449" fill="none" width="14.4" height="0.699"/>
	<rect id="connector189terminal" x="86.4" y="100.449" fill="none" width="0" height="0.699"/>
	<text id="label189" transform="matrix(1 0 0 1 64.2781 101.4993)" fill="#8C8C8C" font-family="'DroidSans'" font-size="3.5">D5</text>
	
		<line fill="none" stroke="#787878" stroke-width="0.7" stroke-linecap="round" stroke-linejoin="round" x1="71.65" y1="107.999" x2="86.051" y2="107.999"/>
	<rect id="connector188pin" x="72" y="107.65" fill="none" width="14.4" height="0.699"/>
	<rect id="connector188terminal" x="86.4" y="107.65" fill="none" width="0" height="0.699"/>
	<text id="label188" transform="matrix(1 0 0 1 64.2781 108.6995)" fill="#8C8C8C" font-family="'DroidSans'" font-size="3.5">D4</text>
	<line fill="none" x1="0" y1="0" x2="14.4" y2="0"/>
	<rect id="connector1pin" x="0.349" y="0" fill="none" width="14.399" height="0.698"/>
	<rect id="connector1terminal" x="14.75" y="0" fill="none" width="0" height="0.698"/>
	<line fill="none" x1="0" y1="0" x2="14.4" y2="0"/>
	<rect id="connector2pin" x="0.349" y="0" fill="none" width="14.399" height="0.7"/>
	<rect id="connector2terminal" x="14.75" y="0" fill="none" width="0" height="0.7"/>
	<line fill="none" x1="0" y1="0" x2="14.4" y2="0"/>
	<rect id="connector3pin" x="0.349" y="0" fill="none" width="14.399" height="0.7"/>
	<rect id="connector3terminal" x="14.75" y="0" fill="none" width="0" height="0.7"/>
	<line fill="none" x1="0" y1="0" x2="14.4" y2="0"/>
	<rect id="connector4pin" x="0.349" y="0" fill="none" width="14.399" height="0.7"/>
	<rect id="connector4terminal" x="14.75" y="0" fill="none" width="0" height="0.7"/>
	<line fill="none" x1="0" y1="0" x2="14.4" y2="0"/>
	<rect id="connector5pin" x="0.349" y="0" fill="none" width="14.399" height="0.7"/>
	<rect id="connector5terminal" x="14.75" y="0" fill="none" width="0" height="0.7"/>
	<line fill="none" x1="0" y1="0" x2="14.4" y2="0"/>
	<rect id="connector6pin" x="0.349" y="0" fill="none" width="14.399" height="0.698"/>
	<rect id="connector6terminal" x="14.75" y="0" fill="none" width="0" height="0.698"/>
	<line fill="none" x1="0" y1="0" x2="14.4" y2="0"/>
	<rect id="connector7pin" x="0.349" y="0" fill="none" width="14.399" height="0.7"/>
	<rect id="connector7terminal" x="14.75" y="0" fill="none" width="0" height="0.7"/>
	<line fill="none" x1="0" y1="0" x2="14.4" y2="0"/>
	<rect id="connector8pin" x="0.349" y="0" fill="none" width="14.399" height="0.7"/>
	<rect id="connector8terminal" x="14.75" y="0" fill="none" width="0" height="0.7"/>
	<line fill="none" x1="0" y1="0" x2="14.4" y2="0"/>
	<rect id="connector10pin" x="0.349" y="0" fill="none" width="14.399" height="0.7"/>
	<rect id="connector10terminal" x="14.75" y="0" fill="none" width="0" height="0.7"/>
	<line fill="none" x1="0" y1="0" x2="14.4" y2="0"/>
	<rect id="connector12pin" x="0.349" y="0" fill="none" width="14.399" height="0.698"/>
	<rect id="connector12terminal" x="14.75" y="0" fill="none" width="0" height="0.698"/>
	<line fill="none" x1="0" y1="0" x2="14.4" y2="0"/>
	<rect id="connector13pin" x="0.349" y="0" fill="none" width="14.399" height="0.7"/>
	<rect id="connector13terminal" x="14.75" y="0" fill="none" width="0" height="0.7"/>
	<line fill="none" x1="0" y1="0" x2="14.4" y2="0"/>
	<rect id="connector14pin" x="0.349" y="0" fill="none" width="14.399" height="0.7"/>
	<rect id="connector14terminal" x="14.75" y="0" fill="none" width="0" height="0.7"/>
	<line fill="none" x1="0" y1="0" x2="14.4" y2="0"/>
	<rect id="connector16pin" x="0.349" y="0" fill="none" width="14.399" height="0.7"/>
	<rect id="connector16terminal" x="14.75" y="0" fill="none" width="0" height="0.7"/>
	<line fill="none" x1="0" y1="0" x2="14.4" y2="0"/>
	<rect id="connector17pin" x="0.349" y="0" fill="none" width="14.399" height="0.698"/>
	<rect id="connector17terminal" x="14.75" y="0" fill="none" width="0" height="0.698"/>
	<line fill="none" x1="0" y1="0" x2="14.4" y2="0"/>
	<rect id="connector18pin" x="0.349" y="0" fill="none" width="14.399" height="0.7"/>
	<rect id="connector18terminal" x="14.75" y="0" fill="none" width="0" height="0.7"/>
	<line fill="none" x1="0" y1="0" x2="14.4" y2="0"/>
	<rect id="connector19pin" x="0.349" y="0" fill="none" width="14.399" height="0.698"/>
	<rect id="connector19terminal" x="14.75" y="0" fill="none" width="0" height="0.698"/>
	<line fill="none" x1="28.8" y1="0.35" x2="28.8" y2="14.4"/>
	<rect id="connector265pin" x="28.45" y="0" fill="none" width="0.7" height="14.399"/>
	<polygon id="connector265terminal" fill="none" points="28.45,0 29.15,0 29.15,0 	"/>
	
		<line fill="none" stroke="#787878" stroke-width="0.7" stroke-linecap="round" stroke-linejoin="round" x1="36" y1="0.35" x2="36" y2="14.4"/>
	<rect id="connector0pin" x="35.65" y="0" fill="none" width="0.7" height="14.399"/>
	<polygon id="connector0terminal" fill="none" points="35.65,0 36.35,0 36.35,0 	"/>
	<g transform="matrix(1, 0, 0, 1, 37.4, 16)">
		<g transform="rotate(270)">
			<text id="label0" transform="matrix(1 0 0 1 -8.7815 1.525879e-004)" fill="#8C8C8C" font-family="'DroidSans'" font-size="3.5">3.3V</text>
		</g>
	</g>
	
		<line fill="none" stroke="#787878" stroke-width="0.7" stroke-linecap="round" stroke-linejoin="round" x1="43.2" y1="0.35" x2="43.2" y2="14.4"/>
	<rect id="connector170pin" x="42.85" y="0" fill="none" width="0.698" height="14.399"/>
	<polygon id="connector170terminal" fill="none" points="42.85,0 43.55,0 43.55,0 	"/>
	<g transform="matrix(1, 0, 0, 1, 44.6, 16)">
		<g transform="rotate(270)">
			
				<text id="label170" transform="matrix(1 0 0 1 -7.843 -6.408691e-004)" fill="#8C8C8C" font-family="'DroidSans'" font-size="3.5">3V3</text>
		</g>
	</g>
	
		<line fill="none" stroke="#787878" stroke-width="0.7" stroke-linecap="round" stroke-linejoin="round" x1="43.2" y1="187.201" x2="43.2" y2="201.251"/>
	<rect id="connector9pin" x="42.85" y="187.201" fill="none" width="0.698" height="14.398"/>
	<polygon id="connector9terminal" fill="none" points="42.85,201.6 43.55,201.6 43.55,201.6 	"/>
	<g transform="matrix(1, 0, 0, 1, 44.6, 322.4)">
		<g transform="rotate(270)">
			
				<text id="label9" transform="matrix(1 0 0 1 137.8021 -6.408691e-004)" fill="#8C8C8C" font-family="'DroidSans'" font-size="3.5">GND</text>
		</g>
	</g>
	<rect id="connector166pin" x="35.65" y="0" fill="none" width="0.7" height="14.399"/>
	<polygon id="connector166terminal" fill="none" points="35.65,0 36.35,0 36.35,0 	"/>
	<rect id="connector174pin" x="35.65" y="0" fill="none" width="0.7" height="14.399"/>
	<polygon id="connector174terminal" fill="none" points="35.65,0 36.35,0 36.35,0 	"/>
	<rect id="connector182pin" x="35.65" y="0" fill="none" width="0.7" height="14.399"/>
	<polygon id="connector182terminal" fill="none" points="35.65,0 36.35,0 36.35,0 	"/>
	<rect id="connector190pin" x="35.65" y="0" fill="none" width="0.7" height="14.399"/>
	<polygon id="connector190terminal" fill="none" points="35.65,0 36.35,0 36.35,0 	"/>
	<rect id="connector196pin" x="35.65" y="0" fill="none" width="0.7" height="14.399"/>
	<polygon id="connector196terminal" fill="none" points="35.65,0 36.35,0 36.35,0 	"/>
	<rect id="connector218pin" x="35.65" y="0" fill="none" width="0.7" height="14.399"/>
	<polygon id="connector218terminal" fill="none" points="35.65,0 36.35,0 36.35,0 	"/>
	<rect id="connector225pin" x="35.65" y="0" fill="none" width="0.7" height="14.399"/>
	<polygon id="connector225terminal" fill="none" points="35.65,0 36.35,0 36.35,0 	"/>
	<rect id="connector232pin" x="35.65" y="0" fill="none" width="0.7" height="14.399"/>
	<polygon id="connector232terminal" fill="none" points="35.65,0 36.35,0 36.35,0 	"/>
	<rect id="connector258pin" x="35.65" y="0" fill="none" width="0.7" height="14.399"/>
	<polygon id="connector258terminal" fill="none" points="35.65,0 36.35,0 36.35,0 	"/>
	<rect id="connector261pin" x="35.65" y="0" fill="none" width="0.7" height="14.399"/>
	<polygon id="connector261terminal" fill="none" points="35.65,0 36.35,0 36.35,0 	"/>
	<rect id="connector178pin" x="42.85" y="0" fill="none" width="0.698" height="14.399"/>
	<polygon id="connector178terminal" fill="none" points="42.85,0 43.55,0 43.55,0 	"/>
	<rect id="connector186pin" x="42.85" y="0" fill="none" width="0.698" height="14.399"/>
	<polygon id="connector186terminal" fill="none" points="42.85,0 43.55,0 43.55,0 	"/>
	<rect id="connector222pin" x="42.85" y="0" fill="none" width="0.698" height="14.399"/>
	<polygon id="connector222terminal" fill="none" points="42.85,0 43.55,0 43.55,0 	"/>
	<rect id="connector194pin" x="42.85" y="0" fill="none" width="0.698" height="14.399"/>
	<polygon id="connector194terminal" fill="none" points="42.85,0 43.55,0 43.55,0 	"/>
	<rect id="connector236pin" x="42.85" y="0" fill="none" width="0.698" height="14.399"/>
	<polygon id="connector236terminal" fill="none" points="42.85,0 43.55,0 43.55,0 	"/>
	<rect id="connector167pin" x="42.85" y="187.201" fill="none" width="0.698" height="14.398"/>
	<polygon id="connector167terminal" fill="none" points="42.85,201.6 43.55,201.6 43.55,201.6 	"/>
	<rect id="connector171pin" x="42.85" y="187.201" fill="none" width="0.698" height="14.398"/>
	<polygon id="connector171terminal" fill="none" points="42.85,201.6 43.55,201.6 43.55,201.6 	"/>
	<rect id="connector175pin" x="42.85" y="187.201" fill="none" width="0.698" height="14.398"/>
	<polygon id="connector175terminal" fill="none" points="42.85,201.6 43.55,201.6 43.55,201.6 	"/>
	<rect id="connector179pin" x="42.85" y="187.201" fill="none" width="0.698" height="14.398"/>
	<polygon id="connector179terminal" fill="none" points="42.85,201.6 43.55,201.6 43.55,201.6 	"/>
	<rect id="connector183pin" x="42.85" y="187.201" fill="none" width="0.698" height="14.398"/>
	<polygon id="connector183terminal" fill="none" points="42.85,201.6 43.55,201.6 43.55,201.6 	"/>
	<rect id="connector187pin" x="42.85" y="187.201" fill="none" width="0.698" height="14.398"/>
	<polygon id="connector187terminal" fill="none" points="42.85,201.6 43.55,201.6 43.55,201.6 	"/>
	<rect id="connector191pin" x="42.85" y="187.201" fill="none" width="0.698" height="14.398"/>
	<polygon id="connector191terminal" fill="none" points="42.85,201.6 43.55,201.6 43.55,201.6 	"/>
	<rect id="connector195pin" x="42.85" y="187.201" fill="none" width="0.698" height="14.398"/>
	<polygon id="connector195terminal" fill="none" points="42.85,201.6 43.55,201.6 43.55,201.6 	"/>
	<rect id="connector205pin" x="42.85" y="187.201" fill="none" width="0.698" height="14.398"/>
	<polygon id="connector205terminal" fill="none" points="42.85,201.6 43.55,201.6 43.55,201.6 	"/>
	<rect id="connector219pin" x="42.85" y="187.201" fill="none" width="0.698" height="14.398"/>
	<polygon id="connector219terminal" fill="none" points="42.85,201.6 43.55,201.6 43.55,201.6 	"/>
	<rect id="connector223pin" x="42.85" y="187.201" fill="none" width="0.698" height="14.398"/>
	<polygon id="connector223terminal" fill="none" points="42.85,201.6 43.55,201.6 43.55,201.6 	"/>
	<rect id="connector229pin" x="42.85" y="187.201" fill="none" width="0.698" height="14.398"/>
	<polygon id="connector229terminal" fill="none" points="42.85,201.6 43.55,201.6 43.55,201.6 	"/>
	<rect id="connector233pin" x="42.85" y="187.201" fill="none" width="0.698" height="14.398"/>
	<polygon id="connector233terminal" fill="none" points="42.85,201.6 43.55,201.6 43.55,201.6 	"/>
	<rect id="connector237pin" x="42.85" y="187.201" fill="none" width="0.698" height="14.398"/>
	<polygon id="connector237terminal" fill="none" points="42.85,201.6 43.55,201.6 43.55,201.6 	"/>
	<rect id="connector251pin" x="42.85" y="187.201" fill="none" width="0.698" height="14.398"/>
	<polygon id="connector251terminal" fill="none" points="42.85,201.6 43.55,201.6 43.55,201.6 	"/>
	<rect id="connector254pin" x="42.85" y="187.201" fill="none" width="0.698" height="14.398"/>
	<polygon id="connector254terminal" fill="none" points="42.85,201.6 43.55,201.6 43.55,201.6 	"/>
	<rect id="connector256pin" x="42.85" y="187.201" fill="none" width="0.698" height="14.398"/>
	<polygon id="connector256terminal" fill="none" points="42.85,201.6 43.55,201.6 43.55,201.6 	"/>
	<rect id="connector264pin" x="42.85" y="187.201" fill="none" width="0.698" height="14.398"/>
	<polygon id="connector264terminal" fill="none" points="42.85,201.6 43.55,201.6 43.55,201.6 	"/>
	<rect id="connector270pin" x="42.85" y="187.201" fill="none" width="0.698" height="14.398"/>
	<polygon id="connector270terminal" fill="none" points="42.85,201.6 43.55,201.6 43.55,201.6 	"/>
	<rect id="connector281pin" x="42.85" y="187.201" fill="none" width="0.698" height="14.398"/>
	<polygon id="connector281terminal" fill="none" points="42.85,201.6 43.55,201.6 43.55,201.6 	"/>
	<rect id="connector206pin" x="0.349" y="0" fill="none" width="14.399" height="0.7"/>
	<rect id="connector206terminal" x="14.75" y="0" fill="none" width="0" height="0.7"/>
	<rect id="connector269pin" x="0.349" y="0" fill="none" width="14.399" height="0.7"/>
	<rect id="connector269terminal" x="14.75" y="0" fill="none" width="0" height="0.7"/>
	<rect id="connector209pin" x="0.349" y="0" fill="none" width="14.399" height="0.7"/>
	<rect id="connector209terminal" x="14.75" y="0" fill="none" width="0" height="0.7"/>
	<rect id="connector199pin" x="0.349" y="0" fill="none" width="14.399" height="0.7"/>
	<rect id="connector199terminal" x="14.75" y="0" fill="none" width="0" height="0.7"/>
	<rect id="connector201pin" x="0.349" y="0" fill="none" width="14.399" height="0.7"/>
	<rect id="connector201terminal" x="14.75" y="0" fill="none" width="0" height="0.7"/>
	<rect id="connector202pin" x="0.349" y="0" fill="none" width="14.399" height="0.698"/>
	<rect id="connector202terminal" x="14.75" y="0" fill="none" width="0" height="0.698"/>
	<rect id="connector212pin" x="0.349" y="0" fill="none" width="14.399" height="0.7"/>
	<rect id="connector212terminal" x="14.75" y="0" fill="none" width="0" height="0.7"/>
	<rect id="connector213pin" x="0.349" y="0" fill="none" width="14.399" height="0.698"/>
	<rect id="connector213terminal" x="14.75" y="0" fill="none" width="0" height="0.698"/>
	<rect id="connector203pin" x="0.349" y="0" fill="none" width="14.399" height="0.7"/>
	<rect id="connector203terminal" x="14.75" y="0" fill="none" width="0" height="0.7"/>
	<rect id="connector214pin" x="0.349" y="0" fill="none" width="14.399" height="0.7"/>
	<rect id="connector214terminal" x="14.75" y="0" fill="none" width="0" height="0.7"/>
	<rect id="connector210pin" x="0.349" y="0" fill="none" width="14.399" height="0.7"/>
	<rect id="connector210terminal" x="14.75" y="0" fill="none" width="0" height="0.7"/>
	<rect id="connector200pin" x="0.349" y="0" fill="none" width="14.399" height="0.7"/>
	<rect id="connector200terminal" x="14.75" y="0" fill="none" width="0" height="0.7"/>
	<rect id="connector198pin" x="0.349" y="0" fill="none" width="14.399" height="0.7"/>
	<rect id="connector198terminal" x="14.75" y="0" fill="none" width="0" height="0.7"/>
	<rect id="connector197pin" x="0.349" y="0" fill="none" width="14.399" height="0.698"/>
	<rect id="connector197terminal" x="14.75" y="0" fill="none" width="0" height="0.698"/>
	<rect id="connector215pin" x="0.349" y="0" fill="none" width="14.399" height="0.698"/>
	<rect id="connector215terminal" x="14.75" y="0" fill="none" width="0" height="0.698"/>
	<rect id="connector260pin" x="0.349" y="0" fill="none" width="14.399" height="0.698"/>
	<rect id="connector260terminal" x="14.75" y="0" fill="none" width="0" height="0.698"/>
	<rect id="connector208pin" x="0.349" y="0" fill="none" width="14.399" height="0.698"/>
	<rect id="connector208terminal" x="14.75" y="0" fill="none" width="0" height="0.698"/>
	<g>
		
			<line fill="none" stroke="#787878" stroke-width="0.7" stroke-linecap="round" stroke-linejoin="round" x1="71.65" y1="71.998" x2="86.051" y2="71.998"/>
		<rect id="connector15pin" x="72" y="71.649" fill="none" width="14.4" height="0.7"/>
		<rect id="connector15terminal" x="86.4" y="71.649" fill="none" width="0" height="0.7"/>
		<text id="label15" transform="matrix(1 0 0 1 64.2781 72.6995)" fill="#8C8C8C" font-family="'DroidSans'" font-size="3.5">D9</text>
		<rect id="connector235pin" x="72" y="71.649" fill="none" width="14.4" height="0.7"/>
		<rect id="connector235terminal" x="86.4" y="71.649" fill="none" width="0" height="0.7"/>
		<rect id="connector211pin" x="72" y="71.649" fill="none" width="14.4" height="0.7"/>
		<rect id="connector211terminal" x="86.4" y="71.649" fill="none" width="0" height="0.7"/>
	</g>
	<g>
		
			<line fill="none" stroke="#787878" stroke-width="0.7" stroke-linecap="round" stroke-linejoin="round" x1="71.65" y1="79.199" x2="86.051" y2="79.199"/>
		<rect id="connector11pin" x="72" y="78.85" fill="none" width="14.4" height="0.7"/>
		<rect id="connector11terminal" x="86.4" y="78.85" fill="none" width="0" height="0.7"/>
		<text id="label11" transform="matrix(1 0 0 1 64.2781 79.8997)" fill="#8C8C8C" font-family="'DroidSans'" font-size="3.5">D8</text>
		<rect id="connector234pin" x="72" y="78.85" fill="none" width="14.4" height="0.7"/>
		<rect id="connector234terminal" x="86.4" y="78.85" fill="none" width="0" height="0.7"/>
		<rect id="connector207pin" x="72" y="78.85" fill="none" width="14.4" height="0.7"/>
		<rect id="connector207terminal" x="86.4" y="78.85" fill="none" width="0" height="0.7"/>
	</g>
	<rect id="connector204pin" x="0.349" y="0" fill="none" width="14.399" height="0.7"/>
	<rect id="connector204terminal" x="14.75" y="0" fill="none" width="0" height="0.7"/>
	<g>
		
			<line fill="none" stroke="#787878" stroke-width="0.7" stroke-linecap="round" stroke-linejoin="round" x1="71.65" y1="28.8" x2="86.051" y2="28.8"/>
		<rect id="connector217pin" x="72" y="28.449" fill="none" width="14.4" height="0.699"/>
		<rect id="connector217terminal" x="86.4" y="28.449" fill="none" width="0" height="0.699"/>
		<text id="label217" transform="matrix(1 0 0 1 62.3503 29.5002)" fill="#8C8C8C" font-family="'DroidSans'" font-size="3.5">D21</text>
		
			<line fill="none" stroke="#787878" stroke-width="0.7" stroke-linecap="round" stroke-linejoin="round" x1="71.65" y1="36" x2="86.051" y2="36"/>
		<rect id="connector216pin" x="72" y="35.65" fill="none" width="14.4" height="0.7"/>
		<rect id="connector216terminal" x="86.4" y="35.65" fill="none" width="0" height="0.7"/>
		<text id="label216" transform="matrix(1 0 0 1 62.3503 36.7004)" fill="#8C8C8C" font-family="'DroidSans'" font-size="3.5">D20</text>
		
			<line fill="none" stroke="#787878" stroke-width="0.7" stroke-linecap="round" stroke-linejoin="round" x1="71.65" y1="43.199" x2="86.051" y2="43.199"/>
		<rect id="connector221pin" x="72" y="42.85" fill="none" width="14.4" height="0.7"/>
		<rect id="connector221terminal" x="86.4" y="42.85" fill="none" width="0" height="0.7"/>
		<text id="label221" transform="matrix(1 0 0 1 62.3503 43.9006)" fill="#8C8C8C" font-family="'DroidSans'" font-size="3.5">D19</text>
		
			<line fill="none" stroke="#787878" stroke-width="0.7" stroke-linecap="round" stroke-linejoin="round" x1="71.65" y1="50.4" x2="86.051" y2="50.4"/>
		<rect id="connector220pin" x="72" y="50.05" fill="none" width="14.4" height="0.7"/>
		<rect id="connector220terminal" x="86.4" y="50.05" fill="none" width="0" height="0.7"/>
		<text id="label220" transform="matrix(1 0 0 1 62.3503 51.0999)" fill="#8C8C8C" font-family="'DroidSans'" font-size="3.5">D18</text>
		<rect id="connector263pin" x="72" y="28.449" fill="none" width="14.4" height="0.699"/>
		<rect id="connector263terminal" x="86.4" y="28.449" fill="none" width="0" height="0.699"/>
		<rect id="connector257pin" x="72" y="35.65" fill="none" width="14.4" height="0.7"/>
		<rect id="connector257terminal" x="86.4" y="35.65" fill="none" width="0" height="0.7"/>
		<rect id="connector259pin" x="72" y="42.85" fill="none" width="14.4" height="0.7"/>
		<rect id="connector259terminal" x="86.4" y="42.85" fill="none" width="0" height="0.7"/>
		<rect id="connector255pin" x="72" y="50.05" fill="none" width="14.4" height="0.7"/>
		<rect id="connector255terminal" x="86.4" y="50.05" fill="none" width="0" height="0.7"/>
	</g>
</g>
</svg>
