<?xml version="1.0" encoding="utf-8"?>
<!-- Generator: Adobe Illustrator 16.0.0, SVG Export Plug-In . SVG Version: 6.00 Build 0)  -->
<svg version="1.2" baseProfile="tiny" id="Schematic" xmlns:xml="http://www.w3.org/XML/1998/namespace"
	 xmlns="http://www.w3.org/2000/svg" xmlns:xlink="http://www.w3.org/1999/xlink" x="0px" y="0px" width="72.436px"
	 height="72.721px" viewBox="0 0 72.436 72.721" xml:space="preserve">
<desc>
	<referenceFile>SparkFun___Breakout_Board_for_microSD_Tr__schematic__58c25f18f1c08d677072cd8301438167.svg</referenceFile>
</desc>
<g transform="translate(-1.75,-0.067)">
	<g>
		<g transform="matrix(2.5249706,0,0,2.0988094,-262.03687,-119.97765)">
			<g id="schematic">
				<rect id="connector7" x="127.29" y="81.269" fill="none" width="5.714" height="0.259"/>
				<rect id="connector6" x="127.29" y="77.842" fill="none" width="5.757" height="0.253"/>
				<rect id="connector5" x="118.643" y="84.831" fill="none" width="0.172" height="6.858"/>
				<rect id="connector4" x="127.29" y="74.386" fill="none" width="5.712" height="0.303"/>
				<rect id="connector3" x="118.643" y="57.385" fill="none" width="0.172" height="6.868"/>
				<rect id="connector2" x="127.298" y="70.94" fill="none" width="5.703" height="0.335"/>
				<rect id="connector1" x="127.29" y="67.533" fill="none" width="5.703" height="0.287"/>
			</g>
		</g>
		<g transform="translate(-1.0569348e-6,0.0023032)">
			<g id="g3">
				
					<rect id="rect135" x="16.166" y="14.858" fill="#FFFFFF" stroke="#000000" stroke-miterlimit="10" width="43.2" height="43.199"/>
				<text id="text5" transform="matrix(1 0 0 1 28.9182 32.7852)" font-family="'DroidSans'" font-size="3.75">SparkFun -</text>
				<text id="text3200" transform="matrix(1 0 0 1 29.0754 39.001)" font-family="'DroidSans'" font-size="3.75">microSD</text>
				<text transform="matrix(1 0 0 1 29.0129 44.6426)" font-family="'DroidSans'" font-size="3.75">T</text>
				<text transform="matrix(1 0 0 1 30.8093 44.6426)" font-family="'DroidSans'" font-size="3.75">r</text>
				<text transform="matrix(1 0 0 1 32.2688 44.6426)" font-family="'DroidSans'" font-size="3.75">a</text>
				<text transform="matrix(1 0 0 1 34.259 44.6426)" font-family="'DroidSans'" font-size="3.75">n</text>
				<text transform="matrix(1 0 0 1 36.467 44.6426)" font-family="'DroidSans'" font-size="3.75">s</text>
				<text transform="matrix(1 0 0 1 38.1589 44.6426)" font-family="'DroidSans'" font-size="3.75">f</text>
				<text transform="matrix(1 0 0 1 39.3938 44.6426)" font-family="'DroidSans'" font-size="3.75">l</text>
				<text transform="matrix(1 0 0 1 40.3635 44.6426)" font-family="'DroidSans'" font-size="3.75">a</text>
				<text transform="matrix(1 0 0 1 42.3538 44.6426)" font-family="'DroidSans'" font-size="3.75">s</text>
				<text transform="matrix(1 0 0 1 44.0461 44.6426)" font-family="'DroidSans'" font-size="3.75">h</text>
				<g id="g13">
					<g id="g15">
						
							<line id="line17" fill="none" stroke="#000000" stroke-width="0.75" stroke-linecap="round" stroke-linejoin="round" x1="37.75" y1="14.875" x2="37.75" y2="0.475"/>
						
							<line id="line3212" fill="none" stroke="#000000" stroke-width="0.75" stroke-linecap="round" stroke-linejoin="round" x1="59.392" y1="50.861" x2="73.792" y2="50.861"/>
						
							<line id="line3230" fill="none" stroke="#000000" stroke-width="0.75" stroke-linecap="round" stroke-linejoin="round" x1="59.386" y1="29.26" x2="73.787" y2="29.26"/>
					</g>
					<g id="g19">
						
							<line id="line21" fill="none" stroke="#000000" stroke-width="0.75" stroke-linecap="round" stroke-linejoin="round" x1="59.389" y1="36.461" x2="73.79" y2="36.461"/>
						
							<line id="line3214" fill="none" stroke="#000000" stroke-width="0.75" stroke-linecap="round" stroke-linejoin="round" x1="59.501" y1="43.66" x2="73.902" y2="43.66"/>
						
							<line id="line3232" fill="none" stroke="#000000" stroke-width="0.75" stroke-linecap="round" stroke-linejoin="round" x1="59.366" y1="22.052" x2="73.766" y2="22.052"/>
						
							<line id="line3234" fill="none" stroke="#000000" stroke-width="0.75" stroke-linecap="round" stroke-linejoin="round" x1="37.766" y1="58.057" x2="37.766" y2="72.457"/>
					</g>
				</g>
				<text id="text3226" transform="matrix(1 0 0 1 52.3372 22.8448)" font-family="'DroidSans'" font-size="2.75">CD</text>
				<text id="text3228" transform="matrix(1 0 0 1 52.3381 30.541)" font-family="'DroidSans'" font-size="2.75">DO</text>
				<text id="text3236" transform="matrix(0 1 -1 0 36.8938 50.7569)" font-family="'DroidSans'" font-size="2.75">GND</text>
				<text id="text7" transform="matrix(1 0 0 1 51.4436 37.4424)" font-family="'DroidSans'" font-size="2.75">SCK</text>
				<text transform="matrix(-4.371139e-008 -1 1 -4.371139e-008 38.6057 21.7271)" font-family="'DroidSans'" font-size="2.75">V</text>
				<text transform="matrix(-4.371139e-008 -1 1 -4.371139e-008 38.6057 20.2202)" font-family="'DroidSans'" font-size="2.75">C</text>
				<text transform="matrix(-4.371139e-008 -1 1 -4.371139e-008 38.6057 18.6167)" font-family="'DroidSans'" font-size="2.75">C</text>
				<text transform="matrix(1 0 0 1 52.3381 44.3555)" font-family="'DroidSans'" font-size="2.75">D</text>
				<text transform="matrix(1 0 0 1 54.1926 44.3555)" font-family="'DroidSans'" font-size="2.75">I</text>
				<text id="text3222" transform="matrix(1 0 0 1 52.3381 51.501)" font-family="'DroidSans'" font-size="2.75">CS</text>
			</g>
		</g>
	</g>
</g>
</svg>
