<?xml version='1.0' encoding='UTF-8' standalone='no'?>
<!-- Created with Fritzing (http://www.fritzing.org/) -->
<svg xmlns="http://www.w3.org/2000/svg"  width="1in" x="0in" version="1.2" y="0in" height="1in" viewBox="0 0 72 72" baseProfile="tiny">
 <desc >Fritzing schematic generated by brd2svg</desc>
 <g  id="schematic">
  <rect  width="42.75" x="14.4" y="14.4" fill="none" height="43.2" stroke="#000000" stroke-linejoin="round" stroke-linecap="round" stroke-width="0.9"/>
  <text  x="36" y="29" font-family="'Droid Sans'" fill="#000000" text-anchor="middle" stroke="none" id="label" font-size="3.5">Soil</text>
  <text  x="36" y="32.5" font-family="'Droid Sans'" fill="#000000" text-anchor="middle" stroke="none" id="label" font-size="3.5">Moisture</text>
  <text  x="36" y="36" font-family="'Droid Sans'" fill="#000000" text-anchor="middle" stroke="none" id="label" font-size="3.5">Sensor</text>
  <line  fill="none" stroke="#787878" stroke-linejoin="round" stroke-linecap="round" y1="28.8" stroke-width="0.699998" x1="0.349999" y2="28.8" x2="14.4"/>
  <rect  width="14.4" x="0" y="28.45" fill="none" height="0.699998" id="connector4pin" stroke-width="0" connectorName="SIG"/>
  <rect  width="0" x="0" y="28.45" fill="none" height="0.699998" id="connector4terminal" stroke-width="0"/>
  <text  x="15.8" y="29.5" font-family="'Droid Sans'" fill="#8c8c8c" text-anchor="start" stroke="none" id="label4" font-size="3.5">SIG</text>
  <line  fill="none" stroke="#787878" stroke-linejoin="round" stroke-linecap="round" y1="0.349999" stroke-width="0.699998" x1="36" y2="14.4" x2="36"/>
  <rect  width="0.699998" x="35.65" y="0" fill="none" connectorname="VCC" height="14.4" id="connector2pin" stroke-width="0"/>
  <rect  width="0.699998" x="35.65" y="0" fill="none" height="0" id="connector2terminal" stroke-width="0"/>
  <g  transform="matrix(1, 0, 0, 1, 37.4, 16)">
   <g  transform="rotate(270)">
    <text  x="0" y="0" font-family="'Droid Sans'" fill="#8c8c8c" text-anchor="end" stroke="none" id="label2" font-size="3.5">VCC</text>
   </g>
  </g>
  <line  fill="none" stroke="#787878" stroke-linejoin="round" stroke-linecap="round" y1="57.6" stroke-width="0.699998" x1="36" y2="71.65" x2="36"/>
  <rect  width="0.699998" x="35.65" y="57.6" fill="none" connectorname="GND" height="14.4" id="connector3pin" stroke-width="0"/>
  <rect  width="0.699998" x="35.65" y="72" fill="none" height="0" id="connector3terminal" stroke-width="0"/>
  <g  transform="matrix(1, 0, 0, 1, 37.4, 56)">
   <g  transform="rotate(270)">
    <text  x="0" y="0" font-family="'Droid Sans'" fill="#8c8c8c" text-anchor="start" stroke="none" id="label3" font-size="3.5">GND</text>
   </g>
  </g>
  <rect  width="0.699998" x="35.65" y="0" fill="none" connectorname="VCC" height="14.4" id="connector7pin" stroke-width="0"/>
  <rect  width="0.699998" x="35.65" y="0" fill="none" height="0" id="connector7terminal" stroke-width="0"/>
  <rect  width="0.699998" x="35.65" y="57.6" fill="none" connectorname="GND" height="14.4" id="connector6pin" stroke-width="0"/>
  <rect  width="0.699998" x="35.65" y="72" fill="none" height="0" id="connector6terminal" stroke-width="0"/>
  <rect  width="14.4" x="0" y="28.45" fill="none" height="0.699998" id="connector5pin" stroke-width="0" connectorName="SIG"/>
  <rect  width="0" x="0" y="28.45" fill="none" height="0.699998" id="connector5terminal" stroke-width="0"/>
 </g>
</svg>
