<?xml version='1.0' encoding='UTF-8' standalone='no'?>
<!-- Created with Fritzing (http://www.fritzing.org/) -->
<svg xmlns="http://www.w3.org/2000/svg"  width="2.5in" x="0in" version="1.2" y="0in" height="3.1in" viewBox="0 0 180 223.2" baseProfile="tiny">
 <desc >Fritzing schematic generated by brd2svg</desc>
 <g  id="schematic">
  <rect  width="150.75" x="14.4" y="14.4" fill="none" height="194.4" stroke="#000000" stroke-linejoin="round" stroke-linecap="round" stroke-width="0.9"/>
  <text  x="90" y="104.5" font-family="'Droid Sans'" fill="#000000" text-anchor="middle" stroke="none" id="label" font-size="3.5">SparkFun</text>
  <text  x="90" y="108" font-family="'Droid Sans'" fill="#000000" text-anchor="middle" stroke="none" id="label" font-size="3.5">Stepoko</text>
  <line  fill="none" stroke="#787878" stroke-linejoin="round" stroke-linecap="round" y1="28.8" stroke-width="0.699998" x1="0.349999" y2="28.8" x2="14.4"/>
  <rect  width="14.4" x="0" y="28.45" fill="none" height="0.699998" id="connector157pin" stroke-width="0" connectorName="Limit XYZ (shared)"/>
  <rect  width="0" x="0" y="28.45" fill="none" height="0.699998" id="connector157terminal" stroke-width="0"/>
  <text  x="15.8" y="29.5" font-family="'Droid Sans'" fill="#8c8c8c" text-anchor="start" stroke="none" id="label157" font-size="3.5">Limit XYZ (shared)</text>
  <line  fill="none" stroke="#787878" stroke-linejoin="round" stroke-linecap="round" y1="36" stroke-width="0.699998" x1="0.349999" y2="36" x2="14.4"/>
  <rect  width="14.4" x="0" y="35.65" fill="none" height="0.699998" id="connector199pin" stroke-width="0" connectorName="Probe (switch)"/>
  <rect  width="0" x="0" y="35.65" fill="none" height="0.699998" id="connector199terminal" stroke-width="0"/>
  <text  x="15.8" y="36.7" font-family="'Droid Sans'" fill="#8c8c8c" text-anchor="start" stroke="none" id="label199" font-size="3.5">Probe (switch)</text>
  <line  fill="none" stroke="#787878" stroke-linejoin="round" stroke-linecap="round" y1="43.2" stroke-width="0.699998" x1="0.349999" y2="43.2" x2="14.4"/>
  <rect  width="14.4" x="0" y="42.85" fill="none" height="0.699998" id="connector201pin" stroke-width="0" connectorName="E-Stop (switch)"/>
  <rect  width="0" x="0" y="42.85" fill="none" height="0.699998" id="connector201terminal" stroke-width="0"/>
  <text  x="15.8" y="43.9" font-family="'Droid Sans'" fill="#8c8c8c" text-anchor="start" stroke="none" id="label201" font-size="3.5">E-Stop (switch)</text>
  <line  fill="none" stroke="#787878" stroke-linejoin="round" stroke-linecap="round" y1="50.4" stroke-width="0.699998" x1="0.349999" y2="50.4" x2="14.4"/>
  <rect  width="14.4" x="0" y="50.05" fill="none" height="0.699998" id="connector158pin" stroke-width="0" connectorName="Limit X"/>
  <rect  width="0" x="0" y="50.05" fill="none" height="0.699998" id="connector158terminal" stroke-width="0"/>
  <text  x="15.8" y="51.1" font-family="'Droid Sans'" fill="#8c8c8c" text-anchor="start" stroke="none" id="label158" font-size="3.5">Limit X</text>
  <line  fill="none" stroke="#787878" stroke-linejoin="round" stroke-linecap="round" y1="57.6" stroke-width="0.699998" x1="0.349999" y2="57.6" x2="14.4"/>
  <rect  width="14.4" x="0" y="57.25" fill="none" height="0.699998" id="connector186pin" stroke-width="0" connectorName="Limit Y"/>
  <rect  width="0" x="0" y="57.25" fill="none" height="0.699998" id="connector186terminal" stroke-width="0"/>
  <text  x="15.8" y="58.3" font-family="'Droid Sans'" fill="#8c8c8c" text-anchor="start" stroke="none" id="label186" font-size="3.5">Limit Y</text>
  <line  fill="none" stroke="#787878" stroke-linejoin="round" stroke-linecap="round" y1="64.8" stroke-width="0.699998" x1="0.349999" y2="64.8" x2="14.4"/>
  <rect  width="14.4" x="0" y="64.45" fill="none" height="0.699998" id="connector188pin" stroke-width="0" connectorName="Limit Z"/>
  <rect  width="0" x="0" y="64.45" fill="none" height="0.699998" id="connector188terminal" stroke-width="0"/>
  <text  x="15.8" y="65.5" font-family="'Droid Sans'" fill="#8c8c8c" text-anchor="start" stroke="none" id="label188" font-size="3.5">Limit Z</text>
  <line  fill="none" stroke="#787878" stroke-linejoin="round" stroke-linecap="round" y1="72" stroke-width="0.699998" x1="0.349999" y2="72" x2="14.4"/>
  <rect  width="14.4" x="0" y="71.65" fill="none" height="0.699998" id="connector164pin" stroke-width="0" connectorName="A0-RESET/ABORT"/>
  <rect  width="0" x="0" y="71.65" fill="none" height="0.699998" id="connector164terminal" stroke-width="0"/>
  <text  x="15.8" y="72.6998" font-family="'Droid Sans'" fill="#8c8c8c" text-anchor="start" stroke="none" id="label164" font-size="3.5">A0-RESET/ABORT</text>
  <line  fill="none" stroke="#787878" stroke-linejoin="round" stroke-linecap="round" y1="79.2" stroke-width="0.699998" x1="0.349999" y2="79.2" x2="14.4"/>
  <rect  width="14.4" x="0" y="78.8501" fill="none" height="0.699998" id="connector166pin" stroke-width="0" connectorName="A1-FEED_HOLD"/>
  <rect  width="0" x="0" y="78.8501" fill="none" height="0.699998" id="connector166terminal" stroke-width="0"/>
  <text  x="15.8" y="79.8998" font-family="'Droid Sans'" fill="#8c8c8c" text-anchor="start" stroke="none" id="label166" font-size="3.5">A1-FEED_HOLD</text>
  <line  fill="none" stroke="#787878" stroke-linejoin="round" stroke-linecap="round" y1="86.4" stroke-width="0.699998" x1="0.349999" y2="86.4" x2="14.4"/>
  <rect  width="14.4" x="0" y="86.0501" fill="none" height="0.699998" id="connector168pin" stroke-width="0" connectorName="A2-CYCLE_START/RESUME"/>
  <rect  width="0" x="0" y="86.0501" fill="none" height="0.699998" id="connector168terminal" stroke-width="0"/>
  <text  x="15.8" y="87.0998" font-family="'Droid Sans'" fill="#8c8c8c" text-anchor="start" stroke="none" id="label168" font-size="3.5">A2-CYCLE_START/RESUME</text>
  <line  fill="none" stroke="#787878" stroke-linejoin="round" stroke-linecap="round" y1="93.6" stroke-width="0.699998" x1="0.349999" y2="93.6" x2="14.4"/>
  <rect  width="14.4" x="0" y="93.2501" fill="none" height="0.699998" id="connector170pin" stroke-width="0" connectorName="A3-COOLANT_ENABLE"/>
  <rect  width="0" x="0" y="93.2501" fill="none" height="0.699998" id="connector170terminal" stroke-width="0"/>
  <text  x="15.8" y="94.2998" font-family="'Droid Sans'" fill="#8c8c8c" text-anchor="start" stroke="none" id="label170" font-size="3.5">A3-COOLANT_ENABLE</text>
  <line  fill="none" stroke="#787878" stroke-linejoin="round" stroke-linecap="round" y1="100.8" stroke-width="0.699998" x1="0.349999" y2="100.8" x2="14.4"/>
  <rect  width="14.4" x="0" y="100.45" fill="none" height="0.699998" id="connector172pin" stroke-width="0" connectorName="A4"/>
  <rect  width="0" x="0" y="100.45" fill="none" height="0.699998" id="connector172terminal" stroke-width="0"/>
  <text  x="15.8" y="101.5" font-family="'Droid Sans'" fill="#8c8c8c" text-anchor="start" stroke="none" id="label172" font-size="3.5">A4</text>
  <line  fill="none" stroke="#787878" stroke-linejoin="round" stroke-linecap="round" y1="108" stroke-width="0.699998" x1="0.349999" y2="108" x2="14.4"/>
  <rect  width="14.4" x="0" y="107.65" fill="none" height="0.699998" id="connector174pin" stroke-width="0" connectorName="A5-PROBE"/>
  <rect  width="0" x="0" y="107.65" fill="none" height="0.699998" id="connector174terminal" stroke-width="0"/>
  <text  x="15.8" y="108.7" font-family="'Droid Sans'" fill="#8c8c8c" text-anchor="start" stroke="none" id="label174" font-size="3.5">A5-PROBE</text>
  <line  fill="none" stroke="#787878" stroke-linejoin="round" stroke-linecap="round" y1="115.2" stroke-width="0.699998" x1="0.349999" y2="115.2" x2="14.4"/>
  <rect  width="14.4" x="0" y="114.85" fill="none" height="0.699998" id="connector182pin" stroke-width="0" connectorName="A6"/>
  <rect  width="0" x="0" y="114.85" fill="none" height="0.699998" id="connector182terminal" stroke-width="0"/>
  <text  x="15.8" y="115.9" font-family="'Droid Sans'" fill="#8c8c8c" text-anchor="start" stroke="none" id="label182" font-size="3.5">A6</text>
  <line  fill="none" stroke="#787878" stroke-linejoin="round" stroke-linecap="round" y1="122.4" stroke-width="0.699998" x1="0.349999" y2="122.4" x2="14.4"/>
  <rect  width="14.4" x="0" y="122.05" fill="none" height="0.699998" id="connector181pin" stroke-width="0" connectorName="A7"/>
  <rect  width="0" x="0" y="122.05" fill="none" height="0.699998" id="connector181terminal" stroke-width="0"/>
  <text  x="15.8" y="123.1" font-family="'Droid Sans'" fill="#8c8c8c" text-anchor="start" stroke="none" id="label181" font-size="3.5">A7</text>
  <line  fill="none" stroke="#787878" stroke-linejoin="round" stroke-linecap="round" y1="129.6" stroke-width="0.699998" x1="0.349999" y2="129.6" x2="14.4"/>
  <rect  width="14.4" x="0" y="129.25" fill="none" height="0.699998" id="connector177pin" stroke-width="0" connectorName="AREF"/>
  <rect  width="0" x="0" y="129.25" fill="none" height="0.699998" id="connector177terminal" stroke-width="0"/>
  <text  x="15.8" y="130.3" font-family="'Droid Sans'" fill="#8c8c8c" text-anchor="start" stroke="none" id="label177" font-size="3.5">AREF</text>
  <line  fill="none" stroke="#787878" stroke-linejoin="round" stroke-linecap="round" y1="136.8" stroke-width="0.699998" x1="0.349999" y2="136.8" x2="14.4"/>
  <rect  width="14.4" x="0" y="136.45" fill="none" height="0.699998" id="connector210pin" stroke-width="0" connectorName="D2-STEP-X"/>
  <rect  width="0" x="0" y="136.45" fill="none" height="0.699998" id="connector210terminal" stroke-width="0"/>
  <text  x="15.8" y="137.5" font-family="'Droid Sans'" fill="#8c8c8c" text-anchor="start" stroke="none" id="label210" font-size="3.5">D2-STEP-X</text>
  <line  fill="none" stroke="#787878" stroke-linejoin="round" stroke-linecap="round" y1="144" stroke-width="0.699998" x1="0.349999" y2="144" x2="14.4"/>
  <rect  width="14.4" x="0" y="143.65" fill="none" height="0.699998" id="connector211pin" stroke-width="0" connectorName="D3-STEP-Y"/>
  <rect  width="0" x="0" y="143.65" fill="none" height="0.699998" id="connector211terminal" stroke-width="0"/>
  <text  x="15.8" y="144.7" font-family="'Droid Sans'" fill="#8c8c8c" text-anchor="start" stroke="none" id="label211" font-size="3.5">D3-STEP-Y</text>
  <line  fill="none" stroke="#787878" stroke-linejoin="round" stroke-linecap="round" y1="28.8" stroke-width="0.699998" x1="165.25" y2="28.8" x2="179.65"/>
  <rect  width="14.4" x="165.6" y="28.45" fill="none" connectorname="X A+" height="0.699998" id="connector621pin" stroke-width="0"/>
  <rect  width="0" x="180" y="28.45" fill="none" height="0.699998" id="connector621terminal" stroke-width="0"/>
  <text  x="164.2" y="29.5" font-family="'Droid Sans'" fill="#8c8c8c" text-anchor="end" stroke="none" id="label621" font-size="3.5">X A+</text>
  <line  fill="none" stroke="#787878" stroke-linejoin="round" stroke-linecap="round" y1="36" stroke-width="0.699998" x1="165.25" y2="36" x2="179.65"/>
  <rect  width="14.4" x="165.6" y="35.65" fill="none" connectorname="X A-" height="0.699998" id="connector622pin" stroke-width="0"/>
  <rect  width="0" x="180" y="35.65" fill="none" height="0.699998" id="connector622terminal" stroke-width="0"/>
  <text  x="164.2" y="36.7" font-family="'Droid Sans'" fill="#8c8c8c" text-anchor="end" stroke="none" id="label622" font-size="3.5">X A-</text>
  <line  fill="none" stroke="#787878" stroke-linejoin="round" stroke-linecap="round" y1="43.2" stroke-width="0.699998" x1="165.25" y2="43.2" x2="179.65"/>
  <rect  width="14.4" x="165.6" y="42.85" fill="none" connectorname="X B+" height="0.699998" id="connector623pin" stroke-width="0"/>
  <rect  width="0" x="180" y="42.85" fill="none" height="0.699998" id="connector623terminal" stroke-width="0"/>
  <text  x="164.2" y="43.9" font-family="'Droid Sans'" fill="#8c8c8c" text-anchor="end" stroke="none" id="label623" font-size="3.5">X B+</text>
  <line  fill="none" stroke="#787878" stroke-linejoin="round" stroke-linecap="round" y1="50.4" stroke-width="0.699998" x1="165.25" y2="50.4" x2="179.65"/>
  <rect  width="14.4" x="165.6" y="50.05" fill="none" connectorname="X B-" height="0.699998" id="connector624pin" stroke-width="0"/>
  <rect  width="0" x="180" y="50.05" fill="none" height="0.699998" id="connector624terminal" stroke-width="0"/>
  <text  x="164.2" y="51.1" font-family="'Droid Sans'" fill="#8c8c8c" text-anchor="end" stroke="none" id="label624" font-size="3.5">X B-</text>
  <line  fill="none" stroke="#787878" stroke-linejoin="round" stroke-linecap="round" y1="57.6" stroke-width="0.699998" x1="165.25" y2="57.6" x2="179.65"/>
  <rect  width="14.4" x="165.6" y="57.25" fill="none" connectorname="Y A+" height="0.699998" id="connector625pin" stroke-width="0"/>
  <rect  width="0" x="180" y="57.25" fill="none" height="0.699998" id="connector625terminal" stroke-width="0"/>
  <text  x="164.2" y="58.3" font-family="'Droid Sans'" fill="#8c8c8c" text-anchor="end" stroke="none" id="label625" font-size="3.5">Y A+</text>
  <line  fill="none" stroke="#787878" stroke-linejoin="round" stroke-linecap="round" y1="64.8" stroke-width="0.699998" x1="165.25" y2="64.8" x2="179.65"/>
  <rect  width="14.4" x="165.6" y="64.45" fill="none" connectorname="Y A-" height="0.699998" id="connector626pin" stroke-width="0"/>
  <rect  width="0" x="180" y="64.45" fill="none" height="0.699998" id="connector626terminal" stroke-width="0"/>
  <text  x="164.2" y="65.5" font-family="'Droid Sans'" fill="#8c8c8c" text-anchor="end" stroke="none" id="label626" font-size="3.5">Y A-</text>
  <line  fill="none" stroke="#787878" stroke-linejoin="round" stroke-linecap="round" y1="72" stroke-width="0.699998" x1="165.25" y2="72" x2="179.65"/>
  <rect  width="14.4" x="165.6" y="71.65" fill="none" connectorname="Y B+" height="0.699998" id="connector627pin" stroke-width="0"/>
  <rect  width="0" x="180" y="71.65" fill="none" height="0.699998" id="connector627terminal" stroke-width="0"/>
  <text  x="164.2" y="72.6998" font-family="'Droid Sans'" fill="#8c8c8c" text-anchor="end" stroke="none" id="label627" font-size="3.5">Y B+</text>
  <line  fill="none" stroke="#787878" stroke-linejoin="round" stroke-linecap="round" y1="79.2" stroke-width="0.699998" x1="165.25" y2="79.2" x2="179.65"/>
  <rect  width="14.4" x="165.6" y="78.8501" fill="none" connectorname="Y B-" height="0.699998" id="connector628pin" stroke-width="0"/>
  <rect  width="0" x="180" y="78.8501" fill="none" height="0.699998" id="connector628terminal" stroke-width="0"/>
  <text  x="164.2" y="79.8998" font-family="'Droid Sans'" fill="#8c8c8c" text-anchor="end" stroke="none" id="label628" font-size="3.5">Y B-</text>
  <line  fill="none" stroke="#787878" stroke-linejoin="round" stroke-linecap="round" y1="86.4" stroke-width="0.699998" x1="165.25" y2="86.4" x2="179.65"/>
  <rect  width="14.4" x="165.6" y="86.0501" fill="none" connectorname="Z A+" height="0.699998" id="connector629pin" stroke-width="0"/>
  <rect  width="0" x="180" y="86.0501" fill="none" height="0.699998" id="connector629terminal" stroke-width="0"/>
  <text  x="164.2" y="87.0998" font-family="'Droid Sans'" fill="#8c8c8c" text-anchor="end" stroke="none" id="label629" font-size="3.5">Z A+</text>
  <line  fill="none" stroke="#787878" stroke-linejoin="round" stroke-linecap="round" y1="93.6" stroke-width="0.699998" x1="165.25" y2="93.6" x2="179.65"/>
  <rect  width="14.4" x="165.6" y="93.2501" fill="none" connectorname="Z A-" height="0.699998" id="connector630pin" stroke-width="0"/>
  <rect  width="0" x="180" y="93.2501" fill="none" height="0.699998" id="connector630terminal" stroke-width="0"/>
  <text  x="164.2" y="94.2998" font-family="'Droid Sans'" fill="#8c8c8c" text-anchor="end" stroke="none" id="label630" font-size="3.5">Z A-</text>
  <line  fill="none" stroke="#787878" stroke-linejoin="round" stroke-linecap="round" y1="100.8" stroke-width="0.699998" x1="165.25" y2="100.8" x2="179.65"/>
  <rect  width="14.4" x="165.6" y="100.45" fill="none" connectorname="Z B+" height="0.699998" id="connector631pin" stroke-width="0"/>
  <rect  width="0" x="180" y="100.45" fill="none" height="0.699998" id="connector631terminal" stroke-width="0"/>
  <text  x="164.2" y="101.5" font-family="'Droid Sans'" fill="#8c8c8c" text-anchor="end" stroke="none" id="label631" font-size="3.5">Z B+</text>
  <line  fill="none" stroke="#787878" stroke-linejoin="round" stroke-linecap="round" y1="108" stroke-width="0.699998" x1="165.25" y2="108" x2="179.65"/>
  <rect  width="14.4" x="165.6" y="107.65" fill="none" connectorname="Z B-" height="0.699998" id="connector632pin" stroke-width="0"/>
  <rect  width="0" x="180" y="107.65" fill="none" height="0.699998" id="connector632terminal" stroke-width="0"/>
  <text  x="164.2" y="108.7" font-family="'Droid Sans'" fill="#8c8c8c" text-anchor="end" stroke="none" id="label632" font-size="3.5">Z B-</text>
  <line  fill="none" stroke="#787878" stroke-linejoin="round" stroke-linecap="round" y1="115.2" stroke-width="0.699998" x1="165.25" y2="115.2" x2="179.65"/>
  <rect  width="14.4" x="165.6" y="114.85" fill="none" connectorname="TXO" height="0.699998" id="connector180pin" stroke-width="0"/>
  <rect  width="0" x="180" y="114.85" fill="none" height="0.699998" id="connector180terminal" stroke-width="0"/>
  <text  x="164.2" y="115.9" font-family="'Droid Sans'" fill="#8c8c8c" text-anchor="end" stroke="none" id="label180" font-size="3.5">TXO</text>
  <line  fill="none" stroke="#787878" stroke-linejoin="round" stroke-linecap="round" y1="122.4" stroke-width="0.699998" x1="165.25" y2="122.4" x2="179.65"/>
  <rect  width="14.4" x="165.6" y="122.05" fill="none" connectorname="STEP_ENABLE" height="0.699998" id="connector209pin" stroke-width="0"/>
  <rect  width="0" x="180" y="122.05" fill="none" height="0.699998" id="connector209terminal" stroke-width="0"/>
  <text  x="164.2" y="123.1" font-family="'Droid Sans'" fill="#8c8c8c" text-anchor="end" stroke="none" id="label209" font-size="3.5">STEP_ENABLE</text>
  <line  fill="none" stroke="#787878" stroke-linejoin="round" stroke-linecap="round" y1="129.6" stroke-width="0.699998" x1="165.25" y2="129.6" x2="179.65"/>
  <rect  width="14.4" x="165.6" y="129.25" fill="none" connectorname="SCK-D13-SPINDLE_DIR" height="0.699998" id="connector153pin" stroke-width="0"/>
  <rect  width="0" x="180" y="129.25" fill="none" height="0.699998" id="connector153terminal" stroke-width="0"/>
  <text  x="164.2" y="130.3" font-family="'Droid Sans'" fill="#8c8c8c" text-anchor="end" stroke="none" id="label153" font-size="3.5">SCK-D13-SPINDLE_DIR</text>
  <line  fill="none" stroke="#787878" stroke-linejoin="round" stroke-linecap="round" y1="136.8" stroke-width="0.699998" x1="165.25" y2="136.8" x2="179.65"/>
  <rect  width="14.4" x="165.6" y="136.45" fill="none" connectorname="RXI" height="0.699998" id="connector179pin" stroke-width="0"/>
  <rect  width="0" x="180" y="136.45" fill="none" height="0.699998" id="connector179terminal" stroke-width="0"/>
  <text  x="164.2" y="137.5" font-family="'Droid Sans'" fill="#8c8c8c" text-anchor="end" stroke="none" id="label179" font-size="3.5">RXI</text>
  <line  fill="none" stroke="#787878" stroke-linejoin="round" stroke-linecap="round" y1="144" stroke-width="0.699998" x1="165.25" y2="144" x2="179.65"/>
  <rect  width="14.4" x="165.6" y="143.65" fill="none" connectorname="RESET" height="0.699998" id="connector155pin" stroke-width="0"/>
  <rect  width="0" x="180" y="143.65" fill="none" height="0.699998" id="connector155terminal" stroke-width="0"/>
  <text  x="164.2" y="144.7" font-family="'Droid Sans'" fill="#8c8c8c" text-anchor="end" stroke="none" id="label155" font-size="3.5">RESET</text>
  <line  fill="none" stroke="#787878" stroke-linejoin="round" stroke-linecap="round" y1="151.2" stroke-width="0.699998" x1="165.25" y2="151.2" x2="179.65"/>
  <rect  width="14.4" x="165.6" y="150.85" fill="none" connectorname="MOSI-D11-SPINDLE_PWM" height="0.699998" id="connector154pin" stroke-width="0"/>
  <rect  width="0" x="180" y="150.85" fill="none" height="0.699998" id="connector154terminal" stroke-width="0"/>
  <text  x="164.2" y="151.9" font-family="'Droid Sans'" fill="#8c8c8c" text-anchor="end" stroke="none" id="label154" font-size="3.5">MOSI-D11-SPINDLE_PWM</text>
  <line  fill="none" stroke="#787878" stroke-linejoin="round" stroke-linecap="round" y1="158.4" stroke-width="0.699998" x1="165.25" y2="158.4" x2="179.65"/>
  <rect  width="14.4" x="165.6" y="158.05" fill="none" connectorname="MISO-D12-LIMIT-Z" height="0.699998" id="connector151pin" stroke-width="0"/>
  <rect  width="0" x="180" y="158.05" fill="none" height="0.699998" id="connector151terminal" stroke-width="0"/>
  <text  x="164.2" y="159.1" font-family="'Droid Sans'" fill="#8c8c8c" text-anchor="end" stroke="none" id="label151" font-size="3.5">MISO-D12-LIMIT-Z</text>
  <line  fill="none" stroke="#787878" stroke-linejoin="round" stroke-linecap="round" y1="165.6" stroke-width="0.699998" x1="165.25" y2="165.6" x2="179.65"/>
  <rect  width="14.4" x="165.6" y="165.25" fill="none" connectorname="ESTOP-LOGIC" height="0.699998" id="connector162pin" stroke-width="0"/>
  <rect  width="0" x="180" y="165.25" fill="none" height="0.699998" id="connector162terminal" stroke-width="0"/>
  <text  x="164.2" y="166.3" font-family="'Droid Sans'" fill="#8c8c8c" text-anchor="end" stroke="none" id="label162" font-size="3.5">ESTOP-LOGIC</text>
  <line  fill="none" stroke="#787878" stroke-linejoin="round" stroke-linecap="round" y1="172.8" stroke-width="0.699998" x1="165.25" y2="172.8" x2="179.65"/>
  <rect  width="14.4" x="165.6" y="172.45" fill="none" connectorname="D7-DIR-Z" height="0.699998" id="connector213pin" stroke-width="0"/>
  <rect  width="0" x="180" y="172.45" fill="none" height="0.699998" id="connector213terminal" stroke-width="0"/>
  <text  x="164.2" y="173.5" font-family="'Droid Sans'" fill="#8c8c8c" text-anchor="end" stroke="none" id="label213" font-size="3.5">D7-DIR-Z</text>
  <line  fill="none" stroke="#787878" stroke-linejoin="round" stroke-linecap="round" y1="180" stroke-width="0.699998" x1="165.25" y2="180" x2="179.65"/>
  <rect  width="14.4" x="165.6" y="179.65" fill="none" connectorname="D6-DIR-Y" height="0.699998" id="connector214pin" stroke-width="0"/>
  <rect  width="0" x="180" y="179.65" fill="none" height="0.699998" id="connector214terminal" stroke-width="0"/>
  <text  x="164.2" y="180.7" font-family="'Droid Sans'" fill="#8c8c8c" text-anchor="end" stroke="none" id="label214" font-size="3.5">D6-DIR-Y</text>
  <line  fill="none" stroke="#787878" stroke-linejoin="round" stroke-linecap="round" y1="187.2" stroke-width="0.699998" x1="165.25" y2="187.2" x2="179.65"/>
  <rect  width="14.4" x="165.6" y="186.85" fill="none" connectorname="D5-DIR-X" height="0.699998" id="connector215pin" stroke-width="0"/>
  <rect  width="0" x="180" y="186.85" fill="none" height="0.699998" id="connector215terminal" stroke-width="0"/>
  <text  x="164.2" y="187.9" font-family="'Droid Sans'" fill="#8c8c8c" text-anchor="end" stroke="none" id="label215" font-size="3.5">D5-DIR-X</text>
  <line  fill="none" stroke="#787878" stroke-linejoin="round" stroke-linecap="round" y1="194.4" stroke-width="0.699998" x1="165.25" y2="194.4" x2="179.65"/>
  <rect  width="14.4" x="165.6" y="194.05" fill="none" connectorname="D4-STEP-Z" height="0.699998" id="connector212pin" stroke-width="0"/>
  <rect  width="0" x="180" y="194.05" fill="none" height="0.699998" id="connector212terminal" stroke-width="0"/>
  <text  x="164.2" y="195.1" font-family="'Droid Sans'" fill="#8c8c8c" text-anchor="end" stroke="none" id="label212" font-size="3.5">D4-STEP-Z</text>
  <line  fill="none" stroke="#787878" stroke-linejoin="round" stroke-linecap="round" y1="0.349999" stroke-width="0.699998" x1="79.2" y2="14.4" x2="79.2"/>
  <rect  width="0.699998" x="78.8501" y="0" fill="none" connectorname="5V" height="14.4" id="connector152pin" stroke-width="0"/>
  <rect  width="0.699998" x="78.8501" y="0" fill="none" height="0" id="connector152terminal" stroke-width="0"/>
  <g  transform="matrix(1, 0, 0, 1, 80.5997, 16)">
   <g  transform="rotate(270)">
    <text  x="0" y="0" font-family="'Droid Sans'" fill="#8c8c8c" text-anchor="end" stroke="none" id="label152" font-size="3.5">5V</text>
   </g>
  </g>
  <line  fill="none" stroke="#787878" stroke-linejoin="round" stroke-linecap="round" y1="0.349999" stroke-width="0.699998" x1="86.4" y2="14.4" x2="86.4"/>
  <rect  width="0.699998" x="86.0501" y="0" fill="none" connectorname="VIN" height="14.4" id="connector159pin" stroke-width="0"/>
  <rect  width="0.699998" x="86.0501" y="0" fill="none" height="0" id="connector159terminal" stroke-width="0"/>
  <g  transform="matrix(1, 0, 0, 1, 87.7997, 16)">
   <g  transform="rotate(270)">
    <text  x="0" y="0" font-family="'Droid Sans'" fill="#8c8c8c" text-anchor="end" stroke="none" id="label159" font-size="3.5">VIN</text>
   </g>
  </g>
  <line  fill="none" stroke="#787878" stroke-linejoin="round" stroke-linecap="round" y1="0.349999" stroke-width="0.699998" x1="93.6" y2="14.4" x2="93.6"/>
  <rect  width="0.699998" x="93.2501" y="0" fill="none" connectorname="VCC" height="14.4" id="connector163pin" stroke-width="0"/>
  <rect  width="0.699998" x="93.2501" y="0" fill="none" height="0" id="connector163terminal" stroke-width="0"/>
  <g  transform="matrix(1, 0, 0, 1, 94.9997, 16)">
   <g  transform="rotate(270)">
    <text  x="0" y="0" font-family="'Droid Sans'" fill="#8c8c8c" text-anchor="end" stroke="none" id="label163" font-size="3.5">VCC</text>
   </g>
  </g>
  <line  fill="none" stroke="#787878" stroke-linejoin="round" stroke-linecap="round" y1="208.8" stroke-width="0.699998" x1="86.4" y2="222.85" x2="86.4"/>
  <rect  width="0.699998" x="86.0501" y="208.8" fill="none" connectorname="GND" height="14.4" id="connector619pin" stroke-width="0"/>
  <rect  width="0.699998" x="86.0501" y="223.2" fill="none" height="0" id="connector619terminal" stroke-width="0"/>
  <g  transform="matrix(1, 0, 0, 1, 87.7997, 207.2)">
   <g  transform="rotate(270)">
    <text  x="0" y="0" font-family="'Droid Sans'" fill="#8c8c8c" text-anchor="start" stroke="none" id="label619" font-size="3.5">GND</text>
   </g>
  </g>
  <line  fill="none" stroke="#787878" stroke-linejoin="round" stroke-linecap="round" y1="208.8" stroke-width="0.699998" x1="93.6" y2="222.85" x2="93.6"/>
  <rect  width="0.699998" x="93.2501" y="208.8" fill="none" connectorname="GND" height="14.4" id="connector156pin" stroke-width="0"/>
  <rect  width="0.699998" x="93.2501" y="223.2" fill="none" height="0" id="connector156terminal" stroke-width="0"/>
  <g  transform="matrix(1, 0, 0, 1, 94.9997, 207.2)">
   <g  transform="rotate(270)">
    <text  x="0" y="0" font-family="'Droid Sans'" fill="#8c8c8c" text-anchor="start" stroke="none" id="label156" font-size="3.5">GND</text>
   </g>
  </g>
  <rect  width="0.699998" x="78.8501" y="0" fill="none" connectorname="5V" height="14.4" id="connector160pin" stroke-width="0"/>
  <rect  width="0.699998" x="78.8501" y="0" fill="none" height="0" id="connector160terminal" stroke-width="0"/>
  <rect  width="0.699998" x="86.0501" y="0" fill="none" connectorname="VIN" height="14.4" id="connector161pin" stroke-width="0"/>
  <rect  width="0.699998" x="86.0501" y="0" fill="none" height="0" id="connector161terminal" stroke-width="0"/>
  <rect  width="0.699998" x="93.2501" y="0" fill="none" connectorname="VCC" height="14.4" id="connector165pin" stroke-width="0"/>
  <rect  width="0.699998" x="93.2501" y="0" fill="none" height="0" id="connector165terminal" stroke-width="0"/>
  <rect  width="0.699998" x="93.2501" y="0" fill="none" connectorname="VCC" height="14.4" id="connector203pin" stroke-width="0"/>
  <rect  width="0.699998" x="93.2501" y="0" fill="none" height="0" id="connector203terminal" stroke-width="0"/>
  <rect  width="0.699998" x="78.8501" y="0" fill="none" connectorname="5V" height="14.4" id="connector206pin" stroke-width="0"/>
  <rect  width="0.699998" x="78.8501" y="0" fill="none" height="0" id="connector206terminal" stroke-width="0"/>
  <rect  width="0.699998" x="86.0501" y="0" fill="none" connectorname="VIN" height="14.4" id="connector207pin" stroke-width="0"/>
  <rect  width="0.699998" x="86.0501" y="0" fill="none" height="0" id="connector207terminal" stroke-width="0"/>
  <rect  width="0.699998" x="86.0501" y="0" fill="none" connectorname="VIN" height="14.4" id="connector208pin" stroke-width="0"/>
  <rect  width="0.699998" x="86.0501" y="0" fill="none" height="0" id="connector208terminal" stroke-width="0"/>
  <rect  width="0.699998" x="86.0501" y="0" fill="none" connectorname="VIN" height="14.4" id="connector620pin" stroke-width="0"/>
  <rect  width="0.699998" x="86.0501" y="0" fill="none" height="0" id="connector620terminal" stroke-width="0"/>
  <rect  width="0.699998" x="93.2501" y="208.8" fill="none" connectorname="GND" height="14.4" id="connector167pin" stroke-width="0"/>
  <rect  width="0.699998" x="93.2501" y="223.2" fill="none" height="0" id="connector167terminal" stroke-width="0"/>
  <rect  width="0.699998" x="93.2501" y="208.8" fill="none" connectorname="GND" height="14.4" id="connector169pin" stroke-width="0"/>
  <rect  width="0.699998" x="93.2501" y="223.2" fill="none" height="0" id="connector169terminal" stroke-width="0"/>
  <rect  width="0.699998" x="93.2501" y="208.8" fill="none" connectorname="GND" height="14.4" id="connector171pin" stroke-width="0"/>
  <rect  width="0.699998" x="93.2501" y="223.2" fill="none" height="0" id="connector171terminal" stroke-width="0"/>
  <rect  width="0.699998" x="93.2501" y="208.8" fill="none" connectorname="GND" height="14.4" id="connector173pin" stroke-width="0"/>
  <rect  width="0.699998" x="93.2501" y="223.2" fill="none" height="0" id="connector173terminal" stroke-width="0"/>
  <rect  width="0.699998" x="93.2501" y="208.8" fill="none" connectorname="GND" height="14.4" id="connector175pin" stroke-width="0"/>
  <rect  width="0.699998" x="93.2501" y="223.2" fill="none" height="0" id="connector175terminal" stroke-width="0"/>
  <rect  width="0.699998" x="93.2501" y="208.8" fill="none" connectorname="GND" height="14.4" id="connector178pin" stroke-width="0"/>
  <rect  width="0.699998" x="93.2501" y="223.2" fill="none" height="0" id="connector178terminal" stroke-width="0"/>
  <rect  width="0.699998" x="93.2501" y="208.8" fill="none" connectorname="GND" height="14.4" id="connector198pin" stroke-width="0"/>
  <rect  width="0.699998" x="93.2501" y="223.2" fill="none" height="0" id="connector198terminal" stroke-width="0"/>
  <rect  width="0.699998" x="93.2501" y="208.8" fill="none" connectorname="GND" height="14.4" id="connector200pin" stroke-width="0"/>
  <rect  width="0.699998" x="93.2501" y="223.2" fill="none" height="0" id="connector200terminal" stroke-width="0"/>
  <rect  width="0.699998" x="93.2501" y="208.8" fill="none" connectorname="GND" height="14.4" id="connector202pin" stroke-width="0"/>
  <rect  width="0.699998" x="93.2501" y="223.2" fill="none" height="0" id="connector202terminal" stroke-width="0"/>
  <rect  width="0.699998" x="93.2501" y="208.8" fill="none" connectorname="GND" height="14.4" id="connector204pin" stroke-width="0"/>
  <rect  width="0.699998" x="93.2501" y="223.2" fill="none" height="0" id="connector204terminal" stroke-width="0"/>
  <rect  width="0.699998" x="93.2501" y="208.8" fill="none" connectorname="GND" height="14.4" id="connector205pin" stroke-width="0"/>
  <rect  width="0.699998" x="93.2501" y="223.2" fill="none" height="0" id="connector205terminal" stroke-width="0"/>
  <rect  width="14.4" x="0" y="28.45" fill="none" height="0.699998" id="connector187pin" stroke-width="0" connectorName="Limit XYZ (shared)"/>
  <rect  width="0" x="0" y="28.45" fill="none" height="0.699998" id="connector187terminal" stroke-width="0"/>
  <rect  width="14.4" x="0" y="28.45" fill="none" height="0.699998" id="connector185pin" stroke-width="0" connectorName="Limit XYZ (shared)"/>
  <rect  width="0" x="0" y="28.45" fill="none" height="0.699998" id="connector185terminal" stroke-width="0"/>
  <rect  width="14.4" x="165.6" y="129.25" fill="none" connectorname="SCK-D13-SPINDLE_DIR" height="0.699998" id="connector183pin" stroke-width="0"/>
  <rect  width="0" x="180" y="129.25" fill="none" height="0.699998" id="connector183terminal" stroke-width="0"/>
  <rect  width="14.4" x="165.6" y="143.65" fill="none" connectorname="RESET" height="0.699998" id="connector176pin" stroke-width="0"/>
  <rect  width="0" x="180" y="143.65" fill="none" height="0.699998" id="connector176terminal" stroke-width="0"/>
  <rect  width="14.4" x="165.6" y="150.85" fill="none" connectorname="MOSI-D11-SPINDLE_PWM" height="0.699998" id="connector184pin" stroke-width="0"/>
  <rect  width="0" x="180" y="150.85" fill="none" height="0.699998" id="connector184terminal" stroke-width="0"/>
 </g>
</svg>
