<?xml version="1.0" encoding="utf-8"?>
<!-- Generator: Adobe Illustrator 16.0.0, SVG Export Plug-In . SVG Version: 6.00 Build 0)  -->
<!DOCTYPE svg PUBLIC "-//W3C//DTD SVG 1.1//EN" "http://www.w3.org/Graphics/SVG/1.1/DTD/svg11.dtd">
<svg version="1.1" id="svg2" xmlns:svg="http://www.w3.org/2000/svg"
	 xmlns="http://www.w3.org/2000/svg" xmlns:xlink="http://www.w3.org/1999/xlink" x="0px" y="0px" width="14.4px" height="43.2px"
	 viewBox="0 0 14.4 43.2" enable-background="new 0 0 14.4 43.2" xml:space="preserve">
<g id="schematic">
	<line id="connector0pin" fill="none" stroke="#000000" stroke-width="0.7" stroke-linecap="round" stroke-linejoin="round" x1="0.35" y1="3.6" x2="7.346" y2="3.6"/>
	<rect id="connector0terminal" x="-0.252" y="3.504" fill="none" width="0.546" height="0.208"/>
	<polyline fill="none" stroke="#000000" stroke-width="0.7" stroke-linecap="round" stroke-linejoin="round" points="14.1,5.557 
		9.927,3.6 14.1,1.643 	"/>
	
		<line id="line" fill="none" stroke="#000000" stroke-width="0.7" stroke-linecap="round" stroke-linejoin="round" x1="10.11" y1="3.6" x2="4.804" y2="3.6"/>
	<text transform="matrix(1 0 0 1 4.3611 2.5796)" fill="#8C8C8C" font-family="'DroidSans'" font-size="2.5">1</text>
	
		<line id="connector1pin" fill="none" stroke="#000000" stroke-width="0.7" stroke-linecap="round" stroke-linejoin="round" x1="0.35" y1="10.8" x2="7.346" y2="10.8"/>
	<rect id="connector1terminal" x="-0.252" y="10.704" fill="none" width="0.546" height="0.208"/>
	<polyline fill="none" stroke="#000000" stroke-width="0.7" stroke-linecap="round" stroke-linejoin="round" points="14.1,12.757 
		9.927,10.8 14.1,8.843 	"/>
	
		<line id="line_1_" fill="none" stroke="#000000" stroke-width="0.7" stroke-linecap="round" stroke-linejoin="round" x1="10.11" y1="10.8" x2="4.804" y2="10.8"/>
	<text transform="matrix(1 0 0 1 4.3611 9.7798)" fill="#8C8C8C" font-family="'DroidSans'" font-size="2.5">2</text>
	
		<line id="connector2pin" fill="none" stroke="#000000" stroke-width="0.7" stroke-linecap="round" stroke-linejoin="round" x1="0.35" y1="18" x2="7.346" y2="18"/>
	<rect id="connector2terminal" x="-0.252" y="17.904" fill="none" width="0.546" height="0.208"/>
	<polyline fill="none" stroke="#000000" stroke-width="0.7" stroke-linecap="round" stroke-linejoin="round" points="14.1,19.957 
		9.927,18 14.1,16.043 	"/>
	
		<line id="line_2_" fill="none" stroke="#000000" stroke-width="0.7" stroke-linecap="round" stroke-linejoin="round" x1="10.11" y1="18" x2="4.804" y2="18"/>
	<text transform="matrix(1 0 0 1 4.3611 16.98)" fill="#8C8C8C" font-family="'DroidSans'" font-size="2.5">3</text>
	
		<line id="connector3pin" fill="none" stroke="#000000" stroke-width="0.7" stroke-linecap="round" stroke-linejoin="round" x1="0.35" y1="25.2" x2="7.346" y2="25.2"/>
	<rect id="connector3terminal" x="-0.252" y="25.104" fill="none" width="0.546" height="0.208"/>
	<polyline fill="none" stroke="#000000" stroke-width="0.7" stroke-linecap="round" stroke-linejoin="round" points="14.1,27.157 
		9.927,25.2 14.1,23.243 	"/>
	
		<line id="line_3_" fill="none" stroke="#000000" stroke-width="0.7" stroke-linecap="round" stroke-linejoin="round" x1="10.11" y1="25.2" x2="4.804" y2="25.2"/>
	<text transform="matrix(1 0 0 1 4.3611 24.1802)" fill="#8C8C8C" font-family="'DroidSans'" font-size="2.5">4</text>
	
		<line id="connector4pin" fill="none" stroke="#000000" stroke-width="0.7" stroke-linecap="round" stroke-linejoin="round" x1="0.35" y1="32.4" x2="7.346" y2="32.4"/>
	<rect id="connector4terminal" x="-0.252" y="32.304" fill="none" width="0.546" height="0.208"/>
	<polyline fill="none" stroke="#000000" stroke-width="0.7" stroke-linecap="round" stroke-linejoin="round" points="14.1,34.357 
		9.927,32.4 14.1,30.443 	"/>
	
		<line id="line_4_" fill="none" stroke="#000000" stroke-width="0.7" stroke-linecap="round" stroke-linejoin="round" x1="10.11" y1="32.4" x2="4.804" y2="32.4"/>
	<text transform="matrix(1 0 0 1 4.3611 31.3804)" fill="#8C8C8C" font-family="'DroidSans'" font-size="2.5">5</text>
	
		<line id="connector5pin" fill="none" stroke="#000000" stroke-width="0.7" stroke-linecap="round" stroke-linejoin="round" x1="0.35" y1="39.6" x2="7.346" y2="39.6"/>
	<rect id="connector5terminal" x="-0.252" y="39.504" fill="none" width="0.546" height="0.207"/>
	<polyline fill="none" stroke="#000000" stroke-width="0.7" stroke-linecap="round" stroke-linejoin="round" points="14.1,41.557 
		9.927,39.6 14.1,37.643 	"/>
	
		<line id="line_5_" fill="none" stroke="#000000" stroke-width="0.7" stroke-linecap="round" stroke-linejoin="round" x1="10.11" y1="39.6" x2="4.804" y2="39.6"/>
	<text transform="matrix(1 0 0 1 4.3611 38.5796)" fill="#8C8C8C" font-family="'DroidSans'" font-size="2.5">6</text>
</g>
</svg>
