<?xml version='1.0' encoding='UTF-8' standalone='no'?>
<!-- Created with Fritzing (http://www.fritzing.org/) -->
<svg xmlns="http://www.w3.org/2000/svg"  width="1.7in" x="0in" version="1.2" y="0in" height="2.3in" viewBox="0 0 122.4 165.6" baseProfile="tiny">
 <desc >Fritzing schematic generated by brd2svg</desc>
 <g  id="schematic">
  <rect  width="93.15" x="14.4" y="14.4" fill="none" height="136.8" stroke="#000000" stroke-linejoin="round" stroke-linecap="round" stroke-width="0.9"/>
  <text  x="61.2" y="75.7001" font-family="'Droid Sans'" fill="#000000" text-anchor="middle" stroke="none" id="label" font-size="3.5">sx1509-breakout</text>
  <line  fill="none" stroke="#787878" stroke-linejoin="round" stroke-linecap="round" y1="28.8" stroke-width="0.699998" x1="0.349999" y2="28.8" x2="14.4"/>
  <rect  width="14.4" x="0" y="28.45" fill="none" height="0.699998" id="connector6pin" stroke-width="0" connectorName="!INT"/>
  <rect  width="0" x="0" y="28.45" fill="none" height="0.699998" id="connector6terminal" stroke-width="0"/>
  <text  x="15.8" y="29.5" font-family="'Droid Sans'" fill="#8c8c8c" text-anchor="start" stroke="none" id="label6" font-size="3.5">!INT</text>
  <line  fill="none" stroke="#787878" stroke-linejoin="round" stroke-linecap="round" y1="36" stroke-width="0.699998" x1="0.349999" y2="36" x2="14.4"/>
  <rect  width="14.4" x="0" y="35.65" fill="none" height="0.699998" id="connector7pin" stroke-width="0" connectorName="!RESET"/>
  <rect  width="0" x="0" y="35.65" fill="none" height="0.699998" id="connector7terminal" stroke-width="0"/>
  <text  x="15.8" y="36.7" font-family="'Droid Sans'" fill="#8c8c8c" text-anchor="start" stroke="none" id="label7" font-size="3.5">!RESET</text>
  <line  fill="none" stroke="#787878" stroke-linejoin="round" stroke-linecap="round" y1="43.2" stroke-width="0.699998" x1="0.349999" y2="43.2" x2="14.4"/>
  <rect  width="14.4" x="0" y="42.85" fill="none" height="0.699998" id="connector21pin" stroke-width="0" connectorName="0"/>
  <rect  width="0" x="0" y="42.85" fill="none" height="0.699998" id="connector21terminal" stroke-width="0"/>
  <text  x="15.8" y="43.9" font-family="'Droid Sans'" fill="#8c8c8c" text-anchor="start" stroke="none" id="label21" font-size="3.5">0</text>
  <line  fill="none" stroke="#787878" stroke-linejoin="round" stroke-linecap="round" y1="50.4" stroke-width="0.699998" x1="0.349999" y2="50.4" x2="14.4"/>
  <rect  width="14.4" x="0" y="50.05" fill="none" height="0.699998" id="connector23pin" stroke-width="0" connectorName="1"/>
  <rect  width="0" x="0" y="50.05" fill="none" height="0.699998" id="connector23terminal" stroke-width="0"/>
  <text  x="15.8" y="51.1" font-family="'Droid Sans'" fill="#8c8c8c" text-anchor="start" stroke="none" id="label23" font-size="3.5">1</text>
  <line  fill="none" stroke="#787878" stroke-linejoin="round" stroke-linecap="round" y1="57.6" stroke-width="0.699998" x1="0.349999" y2="57.6" x2="14.4"/>
  <rect  width="14.4" x="0" y="57.25" fill="none" height="0.699998" id="connector38pin" stroke-width="0" connectorName="1"/>
  <rect  width="0" x="0" y="57.25" fill="none" height="0.699998" id="connector38terminal" stroke-width="0"/>
  <text  x="15.8" y="58.3" font-family="'Droid Sans'" fill="#8c8c8c" text-anchor="start" stroke="none" id="label38" font-size="3.5">1</text>
  <line  fill="none" stroke="#787878" stroke-linejoin="round" stroke-linecap="round" y1="64.8" stroke-width="0.699998" x1="0.349999" y2="64.8" x2="14.4"/>
  <rect  width="14.4" x="0" y="64.45" fill="none" height="0.699998" id="connector25pin" stroke-width="0" connectorName="2"/>
  <rect  width="0" x="0" y="64.45" fill="none" height="0.699998" id="connector25terminal" stroke-width="0"/>
  <text  x="15.8" y="65.5" font-family="'Droid Sans'" fill="#8c8c8c" text-anchor="start" stroke="none" id="label25" font-size="3.5">2</text>
  <line  fill="none" stroke="#787878" stroke-linejoin="round" stroke-linecap="round" y1="72" stroke-width="0.699998" x1="0.349999" y2="72" x2="14.4"/>
  <rect  width="14.4" x="0" y="71.65" fill="none" height="0.699998" id="connector27pin" stroke-width="0" connectorName="3"/>
  <rect  width="0" x="0" y="71.65" fill="none" height="0.699998" id="connector27terminal" stroke-width="0"/>
  <text  x="15.8" y="72.6998" font-family="'Droid Sans'" fill="#8c8c8c" text-anchor="start" stroke="none" id="label27" font-size="3.5">3</text>
  <line  fill="none" stroke="#787878" stroke-linejoin="round" stroke-linecap="round" y1="79.2" stroke-width="0.699998" x1="0.349999" y2="79.2" x2="14.4"/>
  <rect  width="14.4" x="0" y="78.8501" fill="none" height="0.699998" id="connector31pin" stroke-width="0" connectorName="4"/>
  <rect  width="0" x="0" y="78.8501" fill="none" height="0.699998" id="connector31terminal" stroke-width="0"/>
  <text  x="15.8" y="79.8998" font-family="'Droid Sans'" fill="#8c8c8c" text-anchor="start" stroke="none" id="label31" font-size="3.5">4</text>
  <line  fill="none" stroke="#787878" stroke-linejoin="round" stroke-linecap="round" y1="86.4" stroke-width="0.699998" x1="0.349999" y2="86.4" x2="14.4"/>
  <rect  width="14.4" x="0" y="86.0501" fill="none" height="0.699998" id="connector33pin" stroke-width="0" connectorName="5"/>
  <rect  width="0" x="0" y="86.0501" fill="none" height="0.699998" id="connector33terminal" stroke-width="0"/>
  <text  x="15.8" y="87.0998" font-family="'Droid Sans'" fill="#8c8c8c" text-anchor="start" stroke="none" id="label33" font-size="3.5">5</text>
  <line  fill="none" stroke="#787878" stroke-linejoin="round" stroke-linecap="round" y1="93.6" stroke-width="0.699998" x1="0.349999" y2="93.6" x2="14.4"/>
  <rect  width="14.4" x="0" y="93.2501" fill="none" height="0.699998" id="connector35pin" stroke-width="0" connectorName="6"/>
  <rect  width="0" x="0" y="93.2501" fill="none" height="0.699998" id="connector35terminal" stroke-width="0"/>
  <text  x="15.8" y="94.2998" font-family="'Droid Sans'" fill="#8c8c8c" text-anchor="start" stroke="none" id="label35" font-size="3.5">6</text>
  <line  fill="none" stroke="#787878" stroke-linejoin="round" stroke-linecap="round" y1="100.8" stroke-width="0.699998" x1="0.349999" y2="100.8" x2="14.4"/>
  <rect  width="14.4" x="0" y="100.45" fill="none" height="0.699998" id="connector37pin" stroke-width="0" connectorName="7"/>
  <rect  width="0" x="0" y="100.45" fill="none" height="0.699998" id="connector37terminal" stroke-width="0"/>
  <text  x="15.8" y="101.5" font-family="'Droid Sans'" fill="#8c8c8c" text-anchor="start" stroke="none" id="label37" font-size="3.5">7</text>
  <line  fill="none" stroke="#787878" stroke-linejoin="round" stroke-linecap="round" y1="108" stroke-width="0.699998" x1="0.349999" y2="108" x2="14.4"/>
  <rect  width="14.4" x="0" y="107.65" fill="none" height="0.699998" id="connector39pin" stroke-width="0" connectorName="8"/>
  <rect  width="0" x="0" y="107.65" fill="none" height="0.699998" id="connector39terminal" stroke-width="0"/>
  <text  x="15.8" y="108.7" font-family="'Droid Sans'" fill="#8c8c8c" text-anchor="start" stroke="none" id="label39" font-size="3.5">8</text>
  <line  fill="none" stroke="#787878" stroke-linejoin="round" stroke-linecap="round" y1="115.2" stroke-width="0.699998" x1="0.349999" y2="115.2" x2="14.4"/>
  <rect  width="14.4" x="0" y="114.85" fill="none" height="0.699998" id="connector41pin" stroke-width="0" connectorName="9"/>
  <rect  width="0" x="0" y="114.85" fill="none" height="0.699998" id="connector41terminal" stroke-width="0"/>
  <text  x="15.8" y="115.9" font-family="'Droid Sans'" fill="#8c8c8c" text-anchor="start" stroke="none" id="label41" font-size="3.5">9</text>
  <line  fill="none" stroke="#787878" stroke-linejoin="round" stroke-linecap="round" y1="122.4" stroke-width="0.699998" x1="0.349999" y2="122.4" x2="14.4"/>
  <rect  width="14.4" x="0" y="122.05" fill="none" height="0.699998" id="connector43pin" stroke-width="0" connectorName="10"/>
  <rect  width="0" x="0" y="122.05" fill="none" height="0.699998" id="connector43terminal" stroke-width="0"/>
  <text  x="15.8" y="123.1" font-family="'Droid Sans'" fill="#8c8c8c" text-anchor="start" stroke="none" id="label43" font-size="3.5">10</text>
  <line  fill="none" stroke="#787878" stroke-linejoin="round" stroke-linecap="round" y1="129.6" stroke-width="0.699998" x1="0.349999" y2="129.6" x2="14.4"/>
  <rect  width="14.4" x="0" y="129.25" fill="none" height="0.699998" id="connector45pin" stroke-width="0" connectorName="11"/>
  <rect  width="0" x="0" y="129.25" fill="none" height="0.699998" id="connector45terminal" stroke-width="0"/>
  <text  x="15.8" y="130.3" font-family="'Droid Sans'" fill="#8c8c8c" text-anchor="start" stroke="none" id="label45" font-size="3.5">11</text>
  <line  fill="none" stroke="#787878" stroke-linejoin="round" stroke-linecap="round" y1="136.8" stroke-width="0.699998" x1="0.349999" y2="136.8" x2="14.4"/>
  <rect  width="14.4" x="0" y="136.45" fill="none" height="0.699998" id="connector49pin" stroke-width="0" connectorName="12"/>
  <rect  width="0" x="0" y="136.45" fill="none" height="0.699998" id="connector49terminal" stroke-width="0"/>
  <text  x="15.8" y="137.5" font-family="'Droid Sans'" fill="#8c8c8c" text-anchor="start" stroke="none" id="label49" font-size="3.5">12</text>
  <line  fill="none" stroke="#787878" stroke-linejoin="round" stroke-linecap="round" y1="28.8" stroke-width="0.699998" x1="107.65" y2="28.8" x2="122.05"/>
  <rect  width="14.4" x="108" y="28.45" fill="none" connectorname="SDA" height="0.699998" id="connector10pin" stroke-width="0"/>
  <rect  width="0" x="122.4" y="28.45" fill="none" height="0.699998" id="connector10terminal" stroke-width="0"/>
  <text  x="106.6" y="29.5" font-family="'Droid Sans'" fill="#8c8c8c" text-anchor="end" stroke="none" id="label10" font-size="3.5">SDA</text>
  <line  fill="none" stroke="#787878" stroke-linejoin="round" stroke-linecap="round" y1="36" stroke-width="0.699998" x1="107.65" y2="36" x2="122.05"/>
  <rect  width="14.4" x="108" y="35.65" fill="none" connectorname="SCL" height="0.699998" id="connector11pin" stroke-width="0"/>
  <rect  width="0" x="122.4" y="35.65" fill="none" height="0.699998" id="connector11terminal" stroke-width="0"/>
  <text  x="106.6" y="36.7" font-family="'Droid Sans'" fill="#8c8c8c" text-anchor="end" stroke="none" id="label11" font-size="3.5">SCL</text>
  <line  fill="none" stroke="#787878" stroke-linejoin="round" stroke-linecap="round" y1="43.2" stroke-width="0.699998" x1="107.65" y2="43.2" x2="122.05"/>
  <rect  width="14.4" x="108" y="42.85" fill="none" connectorname="PWRBUSA" height="0.699998" id="connector18pin" stroke-width="0"/>
  <rect  width="0" x="122.4" y="42.85" fill="none" height="0.699998" id="connector18terminal" stroke-width="0"/>
  <text  x="106.6" y="43.9" font-family="'Droid Sans'" fill="#8c8c8c" text-anchor="end" stroke="none" id="label18" font-size="3.5">PWRBUSA</text>
  <line  fill="none" stroke="#787878" stroke-linejoin="round" stroke-linecap="round" y1="50.4" stroke-width="0.699998" x1="107.65" y2="50.4" x2="122.05"/>
  <rect  width="14.4" x="108" y="50.05" fill="none" connectorname="OSCIO" height="0.699998" id="connector12pin" stroke-width="0"/>
  <rect  width="0" x="122.4" y="50.05" fill="none" height="0.699998" id="connector12terminal" stroke-width="0"/>
  <text  x="106.6" y="51.1" font-family="'Droid Sans'" fill="#8c8c8c" text-anchor="end" stroke="none" id="label12" font-size="3.5">OSCIO</text>
  <line  fill="none" stroke="#787878" stroke-linejoin="round" stroke-linecap="round" y1="57.6" stroke-width="0.699998" x1="107.65" y2="57.6" x2="122.05"/>
  <rect  width="14.4" x="108" y="57.25" fill="none" connectorname="15" height="0.699998" id="connector55pin" stroke-width="0"/>
  <rect  width="0" x="122.4" y="57.25" fill="none" height="0.699998" id="connector55terminal" stroke-width="0"/>
  <text  x="106.6" y="58.3" font-family="'Droid Sans'" fill="#8c8c8c" text-anchor="end" stroke="none" id="label55" font-size="3.5">15</text>
  <line  fill="none" stroke="#787878" stroke-linejoin="round" stroke-linecap="round" y1="64.8" stroke-width="0.699998" x1="107.65" y2="64.8" x2="122.05"/>
  <rect  width="14.4" x="108" y="64.45" fill="none" connectorname="14" height="0.699998" id="connector53pin" stroke-width="0"/>
  <rect  width="0" x="122.4" y="64.45" fill="none" height="0.699998" id="connector53terminal" stroke-width="0"/>
  <text  x="106.6" y="65.5" font-family="'Droid Sans'" fill="#8c8c8c" text-anchor="end" stroke="none" id="label53" font-size="3.5">14</text>
  <line  fill="none" stroke="#787878" stroke-linejoin="round" stroke-linecap="round" y1="72" stroke-width="0.699998" x1="107.65" y2="72" x2="122.05"/>
  <rect  width="14.4" x="108" y="71.65" fill="none" connectorname="13" height="0.699998" id="connector51pin" stroke-width="0"/>
  <rect  width="0" x="122.4" y="71.65" fill="none" height="0.699998" id="connector51terminal" stroke-width="0"/>
  <text  x="106.6" y="72.6998" font-family="'Droid Sans'" fill="#8c8c8c" text-anchor="end" stroke="none" id="label51" font-size="3.5">13</text>
  <line  fill="none" stroke="#787878" stroke-linejoin="round" stroke-linecap="round" y1="0.349999" stroke-width="0.699998" x1="50.4" y2="14.4" x2="50.4"/>
  <rect  width="0.699998" x="50.05" y="0" fill="none" connectorname="3.3V" height="14.4" id="connector9pin" stroke-width="0"/>
  <rect  width="0.699998" x="50.05" y="0" fill="none" height="0" id="connector9terminal" stroke-width="0"/>
  <g  transform="matrix(1, 0, 0, 1, 51.8, 16)">
   <g  transform="rotate(270)">
    <text  x="0" y="0" font-family="'Droid Sans'" fill="#8c8c8c" text-anchor="end" stroke="none" id="label9" font-size="3.5">3.3V</text>
   </g>
  </g>
  <line  fill="none" stroke="#787878" stroke-linejoin="round" stroke-linecap="round" y1="0.349999" stroke-width="0.699998" x1="57.6" y2="14.4" x2="57.6"/>
  <rect  width="0.699998" x="57.25" y="0" fill="none" connectorname="VCC1" height="14.4" id="connector29pin" stroke-width="0"/>
  <rect  width="0.699998" x="57.25" y="0" fill="none" height="0" id="connector29terminal" stroke-width="0"/>
  <g  transform="matrix(1, 0, 0, 1, 59, 16)">
   <g  transform="rotate(270)">
    <text  x="0" y="0" font-family="'Droid Sans'" fill="#8c8c8c" text-anchor="end" stroke="none" id="label29" font-size="3.5">VCC1</text>
   </g>
  </g>
  <line  fill="none" stroke="#787878" stroke-linejoin="round" stroke-linecap="round" y1="0.349999" stroke-width="0.699998" x1="64.8" y2="14.4" x2="64.8"/>
  <rect  width="0.699998" x="64.45" y="0" fill="none" connectorname="VCC2" height="14.4" id="connector47pin" stroke-width="0"/>
  <rect  width="0.699998" x="64.45" y="0" fill="none" height="0" id="connector47terminal" stroke-width="0"/>
  <g  transform="matrix(1, 0, 0, 1, 66.2, 16)">
   <g  transform="rotate(270)">
    <text  x="0" y="0" font-family="'Droid Sans'" fill="#8c8c8c" text-anchor="end" stroke="none" id="label47" font-size="3.5">VCC2</text>
   </g>
  </g>
  <line  fill="none" stroke="#787878" stroke-linejoin="round" stroke-linecap="round" y1="151.2" stroke-width="0.699998" x1="57.6" y2="165.25" x2="57.6"/>
  <rect  width="0.699998" x="57.25" y="151.2" fill="none" connectorname="GND" height="14.4" id="connector8pin" stroke-width="0"/>
  <rect  width="0.699998" x="57.25" y="165.6" fill="none" height="0" id="connector8terminal" stroke-width="0"/>
  <g  transform="matrix(1, 0, 0, 1, 59, 149.6)">
   <g  transform="rotate(270)">
    <text  x="0" y="0" font-family="'Droid Sans'" fill="#8c8c8c" text-anchor="start" stroke="none" id="label8" font-size="3.5">GND</text>
   </g>
  </g>
  <rect  width="0.699998" x="50.05" y="0" fill="none" connectorname="3.3V" height="14.4" id="connector15pin" stroke-width="0"/>
  <rect  width="0.699998" x="50.05" y="0" fill="none" height="0" id="connector15terminal" stroke-width="0"/>
  <rect  width="0.699998" x="57.25" y="151.2" fill="none" connectorname="GND" height="14.4" id="connector14pin" stroke-width="0"/>
  <rect  width="0.699998" x="57.25" y="165.6" fill="none" height="0" id="connector14terminal" stroke-width="0"/>
  <rect  width="0.699998" x="57.25" y="151.2" fill="none" connectorname="GND" height="14.4" id="connector19pin" stroke-width="0"/>
  <rect  width="0.699998" x="57.25" y="165.6" fill="none" height="0" id="connector19terminal" stroke-width="0"/>
  <rect  width="0.699998" x="57.25" y="151.2" fill="none" connectorname="GND" height="14.4" id="connector57pin" stroke-width="0"/>
  <rect  width="0.699998" x="57.25" y="165.6" fill="none" height="0" id="connector57terminal" stroke-width="0"/>
  <rect  width="14.4" x="0" y="35.65" fill="none" height="0.699998" id="connector13pin" stroke-width="0" connectorName="!RESET"/>
  <rect  width="0" x="0" y="35.65" fill="none" height="0.699998" id="connector13terminal" stroke-width="0"/>
  <rect  width="14.4" x="0" y="57.25" fill="none" height="0.699998" id="connector42pin" stroke-width="0" connectorName="1"/>
  <rect  width="0" x="0" y="57.25" fill="none" height="0.699998" id="connector42terminal" stroke-width="0"/>
  <rect  width="14.4" x="0" y="57.25" fill="none" height="0.699998" id="connector44pin" stroke-width="0" connectorName="1"/>
  <rect  width="0" x="0" y="57.25" fill="none" height="0.699998" id="connector44terminal" stroke-width="0"/>
  <rect  width="14.4" x="0" y="57.25" fill="none" height="0.699998" id="connector46pin" stroke-width="0" connectorName="1"/>
  <rect  width="0" x="0" y="57.25" fill="none" height="0.699998" id="connector46terminal" stroke-width="0"/>
  <rect  width="14.4" x="0" y="57.25" fill="none" height="0.699998" id="connector48pin" stroke-width="0" connectorName="1"/>
  <rect  width="0" x="0" y="57.25" fill="none" height="0.699998" id="connector48terminal" stroke-width="0"/>
  <rect  width="14.4" x="0" y="57.25" fill="none" height="0.699998" id="connector50pin" stroke-width="0" connectorName="1"/>
  <rect  width="0" x="0" y="57.25" fill="none" height="0.699998" id="connector50terminal" stroke-width="0"/>
  <rect  width="14.4" x="108" y="28.45" fill="none" connectorname="SDA" height="0.699998" id="connector16pin" stroke-width="0"/>
  <rect  width="0" x="122.4" y="28.45" fill="none" height="0.699998" id="connector16terminal" stroke-width="0"/>
  <rect  width="14.4" x="108" y="35.65" fill="none" connectorname="SCL" height="0.699998" id="connector17pin" stroke-width="0"/>
  <rect  width="0" x="122.4" y="35.65" fill="none" height="0.699998" id="connector17terminal" stroke-width="0"/>
  <rect  width="14.4" x="108" y="42.85" fill="none" connectorname="PWRBUSA" height="0.699998" id="connector28pin" stroke-width="0"/>
  <rect  width="0" x="122.4" y="42.85" fill="none" height="0.699998" id="connector28terminal" stroke-width="0"/>
  <rect  width="14.4" x="108" y="42.85" fill="none" connectorname="PWRBUSA" height="0.699998" id="connector30pin" stroke-width="0"/>
  <rect  width="0" x="122.4" y="42.85" fill="none" height="0.699998" id="connector30terminal" stroke-width="0"/>
  <rect  width="14.4" x="108" y="42.85" fill="none" connectorname="PWRBUSA" height="0.699998" id="connector26pin" stroke-width="0"/>
  <rect  width="0" x="122.4" y="42.85" fill="none" height="0.699998" id="connector26terminal" stroke-width="0"/>
  <rect  width="14.4" x="108" y="42.85" fill="none" connectorname="PWRBUSA" height="0.699998" id="connector32pin" stroke-width="0"/>
  <rect  width="0" x="122.4" y="42.85" fill="none" height="0.699998" id="connector32terminal" stroke-width="0"/>
  <rect  width="14.4" x="108" y="42.85" fill="none" connectorname="PWRBUSA" height="0.699998" id="connector34pin" stroke-width="0"/>
  <rect  width="0" x="122.4" y="42.85" fill="none" height="0.699998" id="connector34terminal" stroke-width="0"/>
  <rect  width="14.4" x="108" y="42.85" fill="none" connectorname="PWRBUSA" height="0.699998" id="connector20pin" stroke-width="0"/>
  <rect  width="0" x="122.4" y="42.85" fill="none" height="0.699998" id="connector20terminal" stroke-width="0"/>
  <rect  width="14.4" x="108" y="42.85" fill="none" connectorname="PWRBUSA" height="0.699998" id="connector24pin" stroke-width="0"/>
  <rect  width="0" x="122.4" y="42.85" fill="none" height="0.699998" id="connector24terminal" stroke-width="0"/>
  <rect  width="14.4" x="108" y="42.85" fill="none" connectorname="PWRBUSA" height="0.699998" id="connector36pin" stroke-width="0"/>
  <rect  width="0" x="122.4" y="42.85" fill="none" height="0.699998" id="connector36terminal" stroke-width="0"/>
  <rect  width="14.4" x="108" y="42.85" fill="none" connectorname="PWRBUSA" height="0.699998" id="connector22pin" stroke-width="0"/>
  <rect  width="0" x="122.4" y="42.85" fill="none" height="0.699998" id="connector22terminal" stroke-width="0"/>
  <rect  width="14.4" x="0" y="57.25" fill="none" height="0.699998" id="connector40pin" stroke-width="0" connectorName="1"/>
  <rect  width="0" x="0" y="57.25" fill="none" height="0.699998" id="connector40terminal" stroke-width="0"/>
  <rect  width="14.4" x="0" y="57.25" fill="none" height="0.699998" id="connector56pin" stroke-width="0" connectorName="1"/>
  <rect  width="0" x="0" y="57.25" fill="none" height="0.699998" id="connector56terminal" stroke-width="0"/>
  <rect  width="14.4" x="0" y="57.25" fill="none" height="0.699998" id="connector54pin" stroke-width="0" connectorName="1"/>
  <rect  width="0" x="0" y="57.25" fill="none" height="0.699998" id="connector54terminal" stroke-width="0"/>
  <rect  width="14.4" x="0" y="57.25" fill="none" height="0.699998" id="connector52pin" stroke-width="0" connectorName="1"/>
  <rect  width="0" x="0" y="57.25" fill="none" height="0.699998" id="connector52terminal" stroke-width="0"/>
 </g>
</svg>
