<?xml version='1.0' encoding='utf-8'?>
<!-- Generator: Adobe Illustrator 16.0.0, SVG Export Plug-In . SVG Version: 6.00 Build 0)  -->
<svg xmlns="http://www.w3.org/2000/svg" x="0px" xmlns:xml="http://www.w3.org/XML/1998/namespace" width="3.13282in"  y="0px" height="1.33475in" viewBox="0 0 225.563 96.102" xml:space="preserve" baseProfile="tiny" version="1.2">
    <desc >
        <referenceFile >TalonSRX-Schematic copy.svg</referenceFile>
    </desc>
    <rect x="14" width="198.43"  height="85.04" stroke="#000000" stroke-width="1" fill="none"/>
    <rect x="36" width="154.167"  height="4.667" stroke-miterlimit="10" stroke="#000000" stroke-width="1" fill="none"/>
    <rect x="36" width="154.167"  y="80.5" height="4.666" stroke-miterlimit="10" stroke="#000000" stroke-width="1" fill="none"/>
    <rect x="50" width="134.167"  y="36.667" height="11.667" stroke-miterlimit="10" stroke="#000000" stroke-width="1" fill="none"/>
    <rect x="36" width="154.167"  y="17.167" height="7.833" stroke-miterlimit="10" stroke="#000000" stroke-width="1" fill="none"/>
    <rect x="36" width="154.167"  y="59.666" height="7.834" stroke-miterlimit="10" stroke="#000000" stroke-width="1" fill="none"/>
    <g  transform="matrix(0 -1 1 0 28.2803 21.0845)">
        <g >
            <g >
                <text font-size="12"  font-family="Droid Sans">V+</text>
            </g>
        </g>
    </g>
    <g  transform="matrix(0 -1 1 0 28.2803 78.2363)">
        <g >
            <g >
                <text font-size="12"  font-family="Droid Sans">GND</text>
            </g>
        </g>
    </g>
    <g  transform="matrix(0 -1 1 0 206.7803 25.0005)">
        <g >
            <g >
                <text font-size="12"  font-family="Droid Sans">m+</text>
            </g>
        </g>
    </g>
    <g  transform="matrix(0 -1 1 0 206.7803 75.1152)">
        <g >
            <g >
                <text font-size="12"  font-family="Droid Sans">m-</text>
            </g>
        </g>
    </g>
    <line  id="connector5pin" y1="81.701" x1="42.125" x2="42.125" stroke-linecap="round" gorn="0.11" stroke="#797979" stroke-width="1.0665" fill="none" y2="96.102"/>
    <line  id="connector4pin" y1="81.701" x1="50.875" x2="50.875" stroke-linecap="round" gorn="0.12" stroke="#797979" stroke-width="1.0665" fill="none" y2="96.102"/>
    <line  id="connector7pin" y1="81.701" x1="59.625" x2="59.625" stroke-linecap="round" gorn="0.13" stroke="#797979" stroke-width="1.0665" fill="none" y2="96.102"/>
    <line  id="connector6pin" y1="81.701" x1="68.375" x2="68.375" stroke-linecap="round" gorn="0.14" stroke="#797979" stroke-width="1.0665" fill="none" y2="96.102"/>
    <line  id="connector0pin" y1="15.333" x1="15.548" x2="1.147" stroke-linecap="round" gorn="0.15" stroke="#797979" stroke-width="1.0665" fill="none" y2="15.333"/>
    <line  id="connector1pin" y1="68.041" x1="15.548" x2="1.147" stroke-linecap="round" gorn="0.16" stroke="#797979" stroke-width="1.0665" fill="none" y2="68.041"/>
    <line  id="connector2pin" y1="15.333" x1="225.282" x2="210.882" stroke-linecap="round" gorn="0.17" stroke="#797979" stroke-width="1.0665" fill="none" y2="15.333"/>
    <line  id="connector3pin" y1="68.041" x1="225.282" x2="210.882" stroke-linecap="round" gorn="0.18" stroke="#797979" stroke-width="1.0665" fill="none" y2="68.041"/>
    <g  transform="matrix(0 -1 1 0 43.7783 79.9551)">
        <g >
            <g >
                <text font-size="4.8298"  font-family="Droid Sans">C0_G</text>
            </g>
        </g>
    </g>
    <g  transform="matrix(0 -1 1 0 52.5283 79.9551)">
        <g >
            <g >
                <text font-size="4.8298"  font-family="Droid Sans">C0_Y</text>
            </g>
        </g>
    </g>
    <g  transform="matrix(0 -1 1 0 61.2783 79.9551)">
        <g >
            <g >
                <text font-size="4.8298"  font-family="Droid Sans">C1_G</text>
            </g>
        </g>
    </g>
    <g  transform="matrix(0 -1 1 0 70.0283 79.9551)">
        <g >
            <g >
                <text font-size="4.8298"  font-family="Droid Sans">C1_Y</text>
            </g>
        </g>
    </g>
</svg>
