<?xml version='1.0' encoding='UTF-8' standalone='no'?>
<!-- Created with Fritzing (http://www.fritzing.org/) -->
<svg xmlns="http://www.w3.org/2000/svg"  width="1.1in" x="0in" version="1.2" y="0in" height="1.3in" viewBox="0 0 79.2 93.6" baseProfile="tiny">
 <desc >Fritzing schematic generated by brd2svg</desc>
 <g  id="schematic">
  <rect  width="49.95" x="14.4" y="14.4" fill="none" height="64.8" stroke="#000000" stroke-linejoin="round" stroke-linecap="round" stroke-width="0.9"/>
  <text  x="39.6" y="32.7" font-family="'Droid Sans'" fill="#000000" text-anchor="middle" stroke="none" id="label" font-size="3.5">Motor</text>
  <text  x="39.6" y="36.2" font-family="'Droid Sans'" fill="#000000" text-anchor="middle" stroke="none" id="label" font-size="3.5">Driver</text>
  <text  x="39.6" y="39.7" font-family="'Droid Sans'" fill="#000000" text-anchor="middle" stroke="none" id="label" font-size="3.5">1A</text>
  <text  x="39.6" y="43.2" font-family="'Droid Sans'" fill="#000000" text-anchor="middle" stroke="none" id="label" font-size="3.5">Dual</text>
  <text  x="39.6" y="46.7" font-family="'Droid Sans'" fill="#000000" text-anchor="middle" stroke="none" id="label" font-size="3.5">TB6612FNG</text>
  <line  fill="none" stroke="#787878" stroke-linejoin="round" stroke-linecap="round" y1="28.8" stroke-width="0.699998" x1="0.349999" y2="28.8" x2="14.4"/>
  <rect  width="14.4" x="0" y="28.45" fill="none" height="0.699998" id="connector10pin" stroke-width="0" connectorName="A01"/>
  <rect  width="0" x="0" y="28.45" fill="none" height="0.699998" id="connector10terminal" stroke-width="0"/>
  <text  x="15.8" y="29.5" font-family="'Droid Sans'" fill="#8c8c8c" text-anchor="start" stroke="none" id="label10" font-size="3.5">A01</text>
  <line  fill="none" stroke="#787878" stroke-linejoin="round" stroke-linecap="round" y1="36" stroke-width="0.699998" x1="0.349999" y2="36" x2="14.4"/>
  <rect  width="14.4" x="0" y="35.65" fill="none" height="0.699998" id="connector9pin" stroke-width="0" connectorName="A02"/>
  <rect  width="0" x="0" y="35.65" fill="none" height="0.699998" id="connector9terminal" stroke-width="0"/>
  <text  x="15.8" y="36.7" font-family="'Droid Sans'" fill="#8c8c8c" text-anchor="start" stroke="none" id="label9" font-size="3.5">A02</text>
  <line  fill="none" stroke="#787878" stroke-linejoin="round" stroke-linecap="round" y1="43.2" stroke-width="0.699998" x1="0.349999" y2="43.2" x2="14.4"/>
  <rect  width="14.4" x="0" y="42.85" fill="none" height="0.699998" id="connector16pin" stroke-width="0" connectorName="AIN1"/>
  <rect  width="0" x="0" y="42.85" fill="none" height="0.699998" id="connector16terminal" stroke-width="0"/>
  <text  x="15.8" y="43.9" font-family="'Droid Sans'" fill="#8c8c8c" text-anchor="start" stroke="none" id="label16" font-size="3.5">AIN1</text>
  <line  fill="none" stroke="#787878" stroke-linejoin="round" stroke-linecap="round" y1="50.4" stroke-width="0.699998" x1="0.349999" y2="50.4" x2="14.4"/>
  <rect  width="14.4" x="0" y="50.05" fill="none" height="0.699998" id="connector15pin" stroke-width="0" connectorName="AIN2"/>
  <rect  width="0" x="0" y="50.05" fill="none" height="0.699998" id="connector15terminal" stroke-width="0"/>
  <text  x="15.8" y="51.1" font-family="'Droid Sans'" fill="#8c8c8c" text-anchor="start" stroke="none" id="label15" font-size="3.5">AIN2</text>
  <line  fill="none" stroke="#787878" stroke-linejoin="round" stroke-linecap="round" y1="57.6" stroke-width="0.699998" x1="0.349999" y2="57.6" x2="14.4"/>
  <rect  width="14.4" x="0" y="57.25" fill="none" height="0.699998" id="connector7pin" stroke-width="0" connectorName="B01"/>
  <rect  width="0" x="0" y="57.25" fill="none" height="0.699998" id="connector7terminal" stroke-width="0"/>
  <text  x="15.8" y="58.3" font-family="'Droid Sans'" fill="#8c8c8c" text-anchor="start" stroke="none" id="label7" font-size="3.5">B01</text>
  <line  fill="none" stroke="#787878" stroke-linejoin="round" stroke-linecap="round" y1="28.8" stroke-width="0.699998" x1="64.45" y2="28.8" x2="78.8501"/>
  <rect  width="14.4" x="64.8" y="28.45" fill="none" connectorname="STBY" height="0.699998" id="connector17pin" stroke-width="0"/>
  <rect  width="0" x="79.2" y="28.45" fill="none" height="0.699998" id="connector17terminal" stroke-width="0"/>
  <text  x="63.4" y="29.5" font-family="'Droid Sans'" fill="#8c8c8c" text-anchor="end" stroke="none" id="label17" font-size="3.5">STBY</text>
  <line  fill="none" stroke="#787878" stroke-linejoin="round" stroke-linecap="round" y1="36" stroke-width="0.699998" x1="64.45" y2="36" x2="78.8501"/>
  <rect  width="14.4" x="64.8" y="35.65" fill="none" connectorname="PWMB" height="0.699998" id="connector20pin" stroke-width="0"/>
  <rect  width="0" x="79.2" y="35.65" fill="none" height="0.699998" id="connector20terminal" stroke-width="0"/>
  <text  x="63.4" y="36.7" font-family="'Droid Sans'" fill="#8c8c8c" text-anchor="end" stroke="none" id="label20" font-size="3.5">PWMB</text>
  <line  fill="none" stroke="#787878" stroke-linejoin="round" stroke-linecap="round" y1="43.2" stroke-width="0.699998" x1="64.45" y2="43.2" x2="78.8501"/>
  <rect  width="14.4" x="64.8" y="42.85" fill="none" connectorname="PWMA" height="0.699998" id="connector14pin" stroke-width="0"/>
  <rect  width="0" x="79.2" y="42.85" fill="none" height="0.699998" id="connector14terminal" stroke-width="0"/>
  <text  x="63.4" y="43.9" font-family="'Droid Sans'" fill="#8c8c8c" text-anchor="end" stroke="none" id="label14" font-size="3.5">PWMA</text>
  <line  fill="none" stroke="#787878" stroke-linejoin="round" stroke-linecap="round" y1="50.4" stroke-width="0.699998" x1="64.45" y2="50.4" x2="78.8501"/>
  <rect  width="14.4" x="64.8" y="50.05" fill="none" connectorname="BIN2" height="0.699998" id="connector19pin" stroke-width="0"/>
  <rect  width="0" x="79.2" y="50.05" fill="none" height="0.699998" id="connector19terminal" stroke-width="0"/>
  <text  x="63.4" y="51.1" font-family="'Droid Sans'" fill="#8c8c8c" text-anchor="end" stroke="none" id="label19" font-size="3.5">BIN2</text>
  <line  fill="none" stroke="#787878" stroke-linejoin="round" stroke-linecap="round" y1="57.6" stroke-width="0.699998" x1="64.45" y2="57.6" x2="78.8501"/>
  <rect  width="14.4" x="64.8" y="57.25" fill="none" connectorname="BIN1" height="0.699998" id="connector18pin" stroke-width="0"/>
  <rect  width="0" x="79.2" y="57.25" fill="none" height="0.699998" id="connector18terminal" stroke-width="0"/>
  <text  x="63.4" y="58.3" font-family="'Droid Sans'" fill="#8c8c8c" text-anchor="end" stroke="none" id="label18" font-size="3.5">BIN1</text>
  <line  fill="none" stroke="#787878" stroke-linejoin="round" stroke-linecap="round" y1="64.8" stroke-width="0.699998" x1="64.45" y2="64.8" x2="78.8501"/>
  <rect  width="14.4" x="64.8" y="64.45" fill="none" connectorname="B02" height="0.699998" id="connector8pin" stroke-width="0"/>
  <rect  width="0" x="79.2" y="64.45" fill="none" height="0.699998" id="connector8terminal" stroke-width="0"/>
  <text  x="63.4" y="65.5" font-family="'Droid Sans'" fill="#8c8c8c" text-anchor="end" stroke="none" id="label8" font-size="3.5">B02</text>
  <line  fill="none" stroke="#787878" stroke-linejoin="round" stroke-linecap="round" y1="0.349999" stroke-width="0.699998" x1="36" y2="14.4" x2="36"/>
  <rect  width="0.699998" x="35.65" y="0" fill="none" connectorname="VCC" height="14.4" id="connector12pin" stroke-width="0"/>
  <rect  width="0.699998" x="35.65" y="0" fill="none" height="0" id="connector12terminal" stroke-width="0"/>
  <g  transform="matrix(1, 0, 0, 1, 37.4, 16)">
   <g  transform="rotate(270)">
    <text  x="0" y="0" font-family="'Droid Sans'" fill="#8c8c8c" text-anchor="end" stroke="none" id="label12" font-size="3.5">VCC</text>
   </g>
  </g>
  <line  fill="none" stroke="#787878" stroke-linejoin="round" stroke-linecap="round" y1="0.349999" stroke-width="0.699998" x1="43.2" y2="14.4" x2="43.2"/>
  <rect  width="0.699998" x="42.85" y="0" fill="none" connectorname="VM" height="14.4" id="connector13pin" stroke-width="0"/>
  <rect  width="0.699998" x="42.85" y="0" fill="none" height="0" id="connector13terminal" stroke-width="0"/>
  <g  transform="matrix(1, 0, 0, 1, 44.6, 16)">
   <g  transform="rotate(270)">
    <text  x="0" y="0" font-family="'Droid Sans'" fill="#8c8c8c" text-anchor="end" stroke="none" id="label13" font-size="3.5">VM</text>
   </g>
  </g>
  <line  fill="none" stroke="#787878" stroke-linejoin="round" stroke-linecap="round" y1="79.2" stroke-width="0.699998" x1="36" y2="93.2501" x2="36"/>
  <rect  width="0.699998" x="35.65" y="79.2" fill="none" connectorname="GND" height="14.4" id="connector6pin" stroke-width="0"/>
  <rect  width="0.699998" x="35.65" y="93.6" fill="none" height="0" id="connector6terminal" stroke-width="0"/>
  <g  transform="matrix(1, 0, 0, 1, 37.4, 77.6002)">
   <g  transform="rotate(270)">
    <text  x="0" y="0" font-family="'Droid Sans'" fill="#8c8c8c" text-anchor="start" stroke="none" id="label6" font-size="3.5">GND</text>
   </g>
  </g>
  <rect  width="0.699998" x="35.65" y="79.2" fill="none" connectorname="GND" height="14.4" id="connector11pin" stroke-width="0"/>
  <rect  width="0.699998" x="35.65" y="93.6" fill="none" height="0" id="connector11terminal" stroke-width="0"/>
  <rect  width="0.699998" x="35.65" y="79.2" fill="none" connectorname="GND" height="14.4" id="connector21pin" stroke-width="0"/>
  <rect  width="0.699998" x="35.65" y="93.6" fill="none" height="0" id="connector21terminal" stroke-width="0"/>
 </g>
</svg>
