<?xml version='1.0' encoding='utf-8'?>
<!-- Generator: Adobe Illustrator 20.1.0, SVG Export Plug-In . SVG Version: 6.00 Build 0)  -->
<svg xmlns="http://www.w3.org/2000/svg"  viewBox="0 0 51.1 43.9" gorn="0" x="0px" y="0px" id="Layer_1" xml:space="preserve" version="1.1" baseProfile="tiny" width="0.709722in" xmlns:xml="http://www.w3.org/XML/1998/namespace" height="0.609722in">
    <desc >
        <referenceFile >sparkfun-electromechanical_relay-spst_schematic.svg</referenceFile>
    </desc>
    <g  gorn="0.1" id="schematic">
        <rect  x="7.6" y="0.4" stroke-linecap="round" fill="#FFFFFF" stroke="#000000" width="36" stroke-width="0.9" height="43.2"/>
        <path d="M14.8,16.9c2.6-0.2,4.5-2.5,4.3-5c-0.2-2.3-2-4.1-4.3-4.3"  fill="none" stroke="#000000" stroke-width="0.5"/>
        <path d="M14.8,12.6c-1.2-0.3-2.4,0.3-2.8,1.5c-0.4,1.2,0.3,2.4,1.5,2.8c0.4,0.1,0.9,0.1,1.3,0"  fill="none" stroke="#000000" stroke-width="0.5"/>
        <path d="M14.8,24.1c3.2-0.9,5-4.2,4.1-7.4c-0.6-2-2.1-3.6-4.1-4.1"  fill="none" stroke="#000000" stroke-width="0.5"/>
        <path d="M14.8,19.8c-1.2-0.3-2.4,0.3-2.8,1.5c-0.4,1.2,0.3,2.4,1.5,2.8c0.4,0.1,0.9,0.1,1.3,0"  fill="none" stroke="#000000" stroke-width="0.5"/>
        <path d="M14.8,31.3c3.2-0.9,5-4.3,4.1-7.4c-0.6-2-2.1-3.5-4.1-4.1"  fill="none" stroke="#000000" stroke-width="0.5"/>
        <path d="M14.8,27c-1.2-0.3-2.4,0.3-2.8,1.5c-0.4,1.2,0.3,2.4,1.5,2.8c0.4,0.1,0.9,0.1,1.3,0"  fill="none" stroke="#000000" stroke-width="0.5"/>
        <path d="M14.8,36.4c2.6-0.2,4.5-2.5,4.3-5c-0.2-2.3-2-4.1-4.3-4.3"  fill="none" stroke="#000000" stroke-width="0.5"/>
        <line  stroke-linecap="round" fill="none" stroke="#000000" y1="36.4" y2="36.4" stroke-width="0.5" x1="43.5" x2="29.1"/>
        <line  stroke-linecap="round" fill="none" stroke="#000000" y1="36.4" y2="29.2" stroke-width="0.5" x1="29.1" x2="29.1"/>
        <line  stroke-linecap="round" fill="none" stroke="#000000" y1="22" y2="22" stroke-width="0.5" x1="43.5" x2="36.3"/>
        <line  stroke-linecap="round" fill="none" stroke="#000000" y1="22" y2="16.9" stroke-width="0.5" x1="36.3" x2="31.3"/>
        <line  stroke-linecap="round" fill="none" stroke="#000000" y1="29.2" y2="31.3" stroke-width="0.5" x1="29.1" x2="31.3"/>
        <line  stroke-linecap="round" fill="none" stroke="#000000" y1="29.2" y2="31.3" stroke-width="0.5" x1="29.1" x2="27"/>
        <line  stroke-linecap="round" fill="none" stroke="#000000" y1="7.6" y2="7.6" stroke-width="0.5" x1="7.6" x2="14.8"/>
        <line  stroke-linecap="round" fill="none" stroke="#000000" y1="36.4" y2="36.4" stroke-width="0.5" x1="7.6" x2="14.8"/>
        <line  gorn="0.1.16" stroke-linecap="round" fill="none" stroke="#787878" id="connector0pin" y1="36.4" y2="36.4" stroke-width="0.75" x1="0.3" x2="7.6"/>
        <polygon  gorn="0.1.17" fill="none" id="connector0terminal" points="1,36.7 0,36.7 0,36.1 1,36 "/>
        <g  transform="matrix(1 0 0 1 3.2625 35.3096)">
            <g >
                <g >
                    <text  font-size="2" fill="#8C8C8C" font-family="DroidSans">1</text>
                </g>
            </g>
        </g>
        <line  gorn="0.1.19" stroke-linecap="round" fill="none" stroke="#787878" id="connector1pin" y1="22" y2="22" stroke-width="0.75" x1="50.8" x2="43.5"/>
        <polygon  gorn="0.1.20" fill="none" id="connector1terminal" points="50,22.3 51.1,22.3 51.1,21.6 50,21.6 "/>
        <g  transform="matrix(1 0 0 1 46.4622 20.9102)">
            <g >
                <g >
                    <text  font-size="2" fill="#8C8C8C" font-family="DroidSans">2</text>
                </g>
            </g>
        </g>
        <line  gorn="0.1.22" stroke-linecap="round" fill="none" stroke="#787878" id="connector2pin" y1="36.4" y2="36.4" stroke-width="0.75" x1="50.8" x2="43.5"/>
        <polygon  gorn="0.1.23" fill="none" id="connector2terminal" points="50,36.7 51.1,36.7 51.1,36 50,36.1 "/>
        <g  transform="matrix(1 0 0 1 46.4622 35.3096)">
            <g >
                <g >
                    <text  font-size="2" fill="#8C8C8C" font-family="DroidSans">3</text>
                </g>
            </g>
        </g>
        <polygon  gorn="0.1.25" fill="none" id="connector3terminal" points="50,7.9 51.1,7.9 51.1,7.2 50,7.2 "/>
        <line  gorn="0.1.26" stroke-linecap="round" fill="none" stroke="#787878" id="connector4pin" y1="7.6" y2="7.6" stroke-width="0.75" x1="0.3" x2="7.6"/>
        <polygon  gorn="0.1.27" fill="none" id="connector4terminal" points="1,7.9 0,7.9 0,7.2 1,7.2 "/>
        <g  transform="matrix(1 0 0 1 3.2625 6.5098)">
            <g >
                <g >
                    <text  font-size="2" fill="#8C8C8C" font-family="DroidSans"> 4</text>
                </g>
            </g>
        </g>
    </g>
</svg>
