<?xml version="1.0" encoding="UTF-8"?>
<svg version="1.1" xmlns="http://www.w3.org/2000/svg" xmlns:xlink="http://www.w3.org/1999/xlink" x="0in" y="0in"
	 viewBox="0 0 33.02 27.94" width="1.3in" height="1.1in">
<g id="schematic">

	<rect class="interior rect" x="5.23875" y="0.15875" width="22.5425" height="27.6225" fill="#FFFFFF" stroke="#000000" stroke-width="0.3175" stroke-linecap="round" />

	<g font-family="'Droid Sans'" stroke="none" stroke-width="0" stroke-linecap="round">
		<g class="pins" font-size="1.23472" fill="none">
			<g class="pins-left" text-anchor="start">
				<line id="connector0pin" x1="0.123472" y1="5.08" x2="5.20347" y2="5.08" stroke="#787878" stroke-width="0.246944" />
				<text x="5.69736" y="5.3269" fill="#8c8c8c">RST</text>
				<rect id="connector0terminal" x="-0.123472" y="4.9565" width="0.246944" height="0.246944" />

				<line id="connector1pin" x1="0.123472" y1="7.62" x2="5.20347" y2="7.62" stroke="#787878" stroke-width="0.246944" />
				<text x="5.69736" y="7.8669" fill="#8c8c8c">A0</text>
				<rect id="connector1terminal" x="-0.123472" y="7.4965" width="0.246944" height="0.246944" />

				<line id="connector2pin" x1="0.123472" y1="10.16" x2="5.20347" y2="10.16" stroke="#787878" stroke-width="0.246944" />
				<text x="5.69736" y="10.4069" fill="#8c8c8c">D0</text>
				<rect id="connector2terminal" x="-0.123472" y="10.0365" width="0.246944" height="0.246944" />

				<line id="connector3pin" x1="0.123472" y1="12.7" x2="5.20347" y2="12.7" stroke="#787878" stroke-width="0.246944" />
				<text x="5.69736" y="12.9469" fill="#8c8c8c">D5</text>
				<rect id="connector3terminal" x="-0.123472" y="12.5765" width="0.246944" height="0.246944" />

				<line id="connector4pin" x1="0.123472" y1="15.24" x2="5.20347" y2="15.24" stroke="#787878" stroke-width="0.246944" />
				<text x="5.69736" y="15.4869" fill="#8c8c8c">D6</text>
				<rect id="connector4terminal" x="-0.123472" y="15.1165" width="0.246944" height="0.246944" />

				<line id="connector5pin" x1="0.123472" y1="17.78" x2="5.20347" y2="17.78" stroke="#787878" stroke-width="0.246944" />
				<text x="5.69736" y="18.0269" fill="#8c8c8c">D7</text>
				<rect id="connector5terminal" x="-0.123472" y="17.6565" width="0.246944" height="0.246944" />

				<line id="connector6pin" x1="0.123472" y1="20.32" x2="5.20347" y2="20.32" stroke="#787878" stroke-width="0.246944" />
				<text x="5.69736" y="20.5669" fill="#8c8c8c">D8</text>
				<rect id="connector6terminal" x="-0.123472" y="20.1965" width="0.246944" height="0.246944" />

				<line id="connector7pin" x1="0.123472" y1="22.86" x2="5.20347" y2="22.86" stroke="#787878" stroke-width="0.246944" />
				<text x="5.69736" y="23.1069" fill="#8c8c8c">3V3</text>
				<rect id="connector7terminal" x="-0.123472" y="22.7365" width="0.246944" height="0.246944" />
			</g>
			<g class="pins-right" text-anchor="end">
				<line id="connector8pin" x1="27.8165" y1="22.86" x2="32.8965" y2="22.86" stroke="#787878" stroke-width="0.246944" />
				<text x="27.3226" y="23.1069" fill="#8c8c8c">5V</text>
				<rect id="connector8terminal" x="32.8965" y="22.7365" width="0.246944" height="0.246944" />

				<line id="connector9pin" x1="27.8165" y1="20.32" x2="32.8965" y2="20.32" stroke="#787878" stroke-width="0.246944" />
				<text x="27.3226" y="20.5669" fill="#8c8c8c">GND</text>
				<rect id="connector9terminal" x="32.8965" y="20.1965" width="0.246944" height="0.246944" />

				<line id="connector10pin" x1="27.8165" y1="17.78" x2="32.8965" y2="17.78" stroke="#787878" stroke-width="0.246944" />
				<text x="27.3226" y="18.0269" fill="#8c8c8c">D4</text>
				<rect id="connector10terminal" x="32.8965" y="17.6565" width="0.246944" height="0.246944" />

				<line id="connector11pin" x1="27.8165" y1="15.24" x2="32.8965" y2="15.24" stroke="#787878" stroke-width="0.246944" />
				<text x="27.3226" y="15.4869" fill="#8c8c8c">D3</text>
				<rect id="connector11terminal" x="32.8965" y="15.1165" width="0.246944" height="0.246944" />

				<line id="connector12pin" x1="27.8165" y1="12.7" x2="32.8965" y2="12.7" stroke="#787878" stroke-width="0.246944" />
				<text x="27.3226" y="12.9469" fill="#8c8c8c">D2</text>
				<rect id="connector12terminal" x="32.8965" y="12.5765" width="0.246944" height="0.246944" />

				<line id="connector13pin" x1="27.8165" y1="10.16" x2="32.8965" y2="10.16" stroke="#787878" stroke-width="0.246944" />
				<text x="27.3226" y="10.4069" fill="#8c8c8c">D1</text>
				<rect id="connector13terminal" x="32.8965" y="10.0365" width="0.246944" height="0.246944" />

				<line id="connector14pin" x1="27.8165" y1="7.62" x2="32.8965" y2="7.62" stroke="#787878" stroke-width="0.246944" />
				<text x="27.3226" y="7.8669" fill="#8c8c8c">RX</text>
				<rect id="connector14terminal" x="32.8965" y="7.4965" width="0.246944" height="0.246944" />

				<line id="connector15pin" x1="27.8165" y1="5.08" x2="32.8965" y2="5.08" stroke="#787878" stroke-width="0.246944" />
				<text x="27.3226" y="5.3269" fill="#8c8c8c">TX</text>
				<rect id="connector15terminal" x="32.8965" y="4.9565" width="0.246944" height="0.246944" />
			</g>
			<g class="pins-duplicate">
				<line id="connector16pin" x1="0.123472" y1="2.54" x2="5.20347" y2="2.54" stroke="none" stroke-width="0" />
				<rect id="connector16terminal" x="-0.123472" y="2.4165" width="0.246944" height="0.246944" />
				<line id="connector17pin" x1="0.123472" y1="2.54" x2="5.20347" y2="2.54" stroke="none" stroke-width="0" />
				<rect id="connector17terminal" x="-0.123472" y="2.4165" width="0.246944" height="0.246944" />
				<line id="connector18pin" x1="0.123472" y1="2.54" x2="5.20347" y2="2.54" stroke="none" stroke-width="0" />
				<rect id="connector18terminal" x="-0.123472" y="2.4165" width="0.246944" height="0.246944" />
				<line id="connector19pin" x1="0.123472" y1="2.54" x2="5.20347" y2="2.54" stroke="none" stroke-width="0" />
				<rect id="connector19terminal" x="-0.123472" y="2.4165" width="0.246944" height="0.246944" />
				<line id="connector20pin" x1="0.123472" y1="2.54" x2="5.20347" y2="2.54" stroke="none" stroke-width="0" />
				<rect id="connector20terminal" x="-0.123472" y="2.4165" width="0.246944" height="0.246944" />
				<line id="connector21pin" x1="0.123472" y1="2.54" x2="5.20347" y2="2.54" stroke="none" stroke-width="0" />
				<rect id="connector21terminal" x="-0.123472" y="2.4165" width="0.246944" height="0.246944" />
				<line id="connector22pin" x1="0.123472" y1="2.54" x2="5.20347" y2="2.54" stroke="none" stroke-width="0" />
				<rect id="connector22terminal" x="-0.123472" y="2.4165" width="0.246944" height="0.246944" />
				<line id="connector23pin" x1="0.123472" y1="2.54" x2="5.20347" y2="2.54" stroke="none" stroke-width="0" />
				<rect id="connector23terminal" x="-0.123472" y="2.4165" width="0.246944" height="0.246944" />
				<line id="connector24pin" x1="0.123472" y1="2.54" x2="5.20347" y2="2.54" stroke="none" stroke-width="0" />
				<rect id="connector24terminal" x="-0.123472" y="2.4165" width="0.246944" height="0.246944" />
				<line id="connector25pin" x1="0.123472" y1="2.54" x2="5.20347" y2="2.54" stroke="none" stroke-width="0" />
				<rect id="connector25terminal" x="-0.123472" y="2.4165" width="0.246944" height="0.246944" />
				<line id="connector26pin" x1="0.123472" y1="2.54" x2="5.20347" y2="2.54" stroke="none" stroke-width="0" />
				<rect id="connector26terminal" x="-0.123472" y="2.4165" width="0.246944" height="0.246944" />
				<line id="connector27pin" x1="0.123472" y1="2.54" x2="5.20347" y2="2.54" stroke="none" stroke-width="0" />
				<rect id="connector27terminal" x="-0.123472" y="2.4165" width="0.246944" height="0.246944" />
				<line id="connector28pin" x1="0.123472" y1="2.54" x2="5.20347" y2="2.54" stroke="none" stroke-width="0" />
				<rect id="connector28terminal" x="-0.123472" y="2.4165" width="0.246944" height="0.246944" />
				<line id="connector29pin" x1="0.123472" y1="2.54" x2="5.20347" y2="2.54" stroke="none" stroke-width="0" />
				<rect id="connector29terminal" x="-0.123472" y="2.4165" width="0.246944" height="0.246944" />
				<line id="connector30pin" x1="0.123472" y1="2.54" x2="5.20347" y2="2.54" stroke="none" stroke-width="0" />
				<rect id="connector30terminal" x="-0.123472" y="2.4165" width="0.246944" height="0.246944" />
				<line id="connector31pin" x1="0.123472" y1="2.54" x2="5.20347" y2="2.54" stroke="none" stroke-width="0" />
				<rect id="connector31terminal" x="-0.123472" y="2.4165" width="0.246944" height="0.246944" />
			</g>
		</g>

		<g fill="#000000" font-size="1.49931" text-anchor="middle">
			<text x="16.52" y="13.5">WeMos D1 mini</text>
			<text x="16.52" y="15.5">Dual Base Shield</text>
		</g>
	</g>
</g>
</svg>
