<?xml version="1.0" encoding="utf-8"?>
<!-- Generator: Adobe Illustrator 16.0.0, SVG Export Plug-In . SVG Version: 6.00 Build 0)  -->
<svg version="1.2" baseProfile="tiny" id="Layer_1" xmlns:svg="http://www.w3.org/2000/svg"
	 xmlns="http://www.w3.org/2000/svg" xmlns:xlink="http://www.w3.org/1999/xlink" x="0px" y="0px" width="51.1px" height="36.795px"
	 viewBox="0 0 51.1 36.795" xml:space="preserve">
<g id="schematic">
	
		<rect x="7.55" y="7.739" fill="#FFFFFF" stroke="#000000" stroke-width="0.9" stroke-linecap="round" stroke-linejoin="round" width="36" height="21.6"/>
	
		<line id="connector0pin" fill="none" stroke="#787878" stroke-width="0.75" stroke-linecap="round" x1="50.749" y1="14.938" x2="43.549" y2="14.938"/>
	<rect id="connector0terminal" x="50.749" y="14.938" fill="none" width="0" height="0.001"/>
	<text transform="matrix(1 0 0 1 46.4602 13.8877)" fill="#8C8C8C" font-family="'DroidSans'" font-size="2.5">1</text>
	
		<line id="connector1pin" fill="none" stroke="#787878" stroke-width="0.75" stroke-linecap="round" x1="0.35" y1="14.938" x2="7.55" y2="14.938"/>
	<rect id="connector1terminal" x="0.35" y="14.938" fill="none" width="0" height="0.001"/>
	<text transform="matrix(1 0 0 1 3.2629 13.8877)" fill="#8C8C8C" font-family="'DroidSans'" font-size="2.5">2</text>
	
		<line id="connector2pin" fill="none" stroke="#787878" stroke-width="0.75" stroke-linecap="round" x1="18.553" y1="7.675" x2="18.553" y2="0.475"/>
	<rect id="connector2terminal" x="18.553" y="0.474" fill="none" width="0" height="0.002"/>
	<text transform="matrix(1 0 0 1 19.6028 5.3877)" fill="#8C8C8C" font-family="'DroidSans'" font-size="2.5">3</text>
	<text transform="matrix(1 0 0 1 34.0051 16.0273)" fill="#787878" font-family="'DroidSans'" font-size="3.5">VDD</text>
	<text transform="matrix(1 0 0 1 8.7253 16.0273)" fill="#787878" font-family="'DroidSans'" font-size="3.5">DOUT</text>
	
		<line id="connector3pin" fill="none" stroke="#787878" stroke-width="0.75" stroke-linecap="round" x1="0.351" y1="22.138" x2="7.55" y2="22.138"/>
	<rect id="connector3terminal" x="0.351" y="22.138" fill="none" width="0" height="0.002"/>
	<text transform="matrix(1 0 0 1 3.2629 21.0889)" fill="#8C8C8C" font-family="'DroidSans'" font-size="2.5">4</text>
	<text transform="matrix(1 0 0 1 8.7258 23.2275)" fill="#787878" font-family="'DroidSans'" font-size="3.5">D</text>
	<text transform="matrix(1 0 0 1 11.0862 23.2275)" fill="#787878" font-family="'DroidSans'" font-size="3.5">I</text>
	<text transform="matrix(1 0 0 1 12.2717 23.2275)" fill="#787878" font-family="'DroidSans'" font-size="3.5">N</text>
	<text transform="matrix(1 0 0 1 15.7336 12.1025)" fill="#787878" font-family="'DroidSans'" font-size="3.5">VSS</text>
	<text transform="matrix(1 0 0 1 18.1521 20.6768)" font-family="'DroidSans'" font-size="4.252">WS2812b</text>
	<text transform="matrix(1 0 0 1 19.6033 25.7783)" font-family="'DroidSans'" font-size="4.252">RGB LED</text>
</g>
</svg>
